#usda 1.0
(
    defaultPrim = "root"
    doc = "Blender v5.1.2"
    metersPerUnit = 1
    upAxis = "Y"
)

def Xform "root" (
    customData = {
        dictionary Blender = {
            bool generated = 1
        }
    }
)
{
    float3 xformOp:rotateXYZ = (-90, -0, 0)
    uniform token[] xformOpOrder = ["xformOp:rotateXYZ"]

    def SkelRoot "Armature"
    {
        custom string userProperties:blender:object_name = "Armature"
        float3 xformOp:rotateXYZ = (-0.0000076293945, 0, 0)
        float3 xformOp:scale = (1, 1, 1)
        double3 xformOp:translate = (0, 0, 0)
        uniform token[] xformOpOrder = ["xformOp:translate", "xformOp:rotateXYZ", "xformOp:scale"]

        def Skeleton "Armature" (
            prepend apiSchemas = ["SkelBindingAPI"]
        )
        {
            uniform matrix4d[] bindTransforms = [( (1, 0, 0, 0), (0, 0, 1, 0), (0, -1, 0, 0), (0, 0, -0.5, 1) ), ( (1, 0, 0, 0), (0, 0.9973218441009521, 0.07313692569732666, 0), (0, -0.07313704490661621, 0.9973218441009521, 0), (0.0024281740188598633, -1.5354440212249756, -0.08586597442626953, 1) ), ( (0.9999817609786987, 0.00601182272657752, 0.0005433078622445464, 0), (-0.006036306265741587, 0.9961357712745667, 0.08761820942163467, 0), (-0.000014463272236753255, -0.08762001246213913, 0.9961539506912231, 0), (0.0024281737860292196, 0.021970033645629883, 0.02834438532590866, 1) ), ( (0.9999999403953552, -7.237304089358076e-10, -8.36735125631094e-11, 0), (8.904095238904119e-10, 0.9947499632835388, 0.10233432054519653, 0), (-1.3642420526593924e-11, -0.10233443975448608, 0.9947500228881836, 0), (-0.007586062885820866, 1.6745599508285522, 0.17370301485061646, 1) ), ( (0.9999999403953552, 2.4940735698919525e-8, -3.948903426476136e-10, 0), (-2.4777630613925794e-8, 0.9995316863059998, -0.030597887933254242, 0), (-3.6955072335587147e-10, 0.030597761273384094, 0.9995316863059998, 0), (-0.007586062885820866, 3.3903114795684814, 0.3502099812030792, 1) ), ( (0.9999999403953552, 2.4940732146205846e-8, -3.948903981587648e-10, 0), (-2.4777627061212115e-8, 0.9995316863059998, -0.030597887933254242, 0), (-3.695505568224178e-10, 0.030597761273384094, 0.9995316863059998, 0), (-0.007586093153804541, 4.611324310302734, 0.3128320574760437, 1) ), ( (1, 2.1975314723476913e-7, 0.0000023741210952721303, 0), (0, -0.9957435131072998, 0.09216790646314621, 0), (0.000002384269919275539, -0.09216779470443726, -0.9957435131072998, 0), (0.0024281740188598633, -1.8203651905059814, -0.12665009498596191, 1) ), ( (0.9805775880813599, -0.19604910910129547, 0.005893552675843239, 0), (0.19608977437019348, 0.9792362451553345, -0.05143309757113457, 0), (0.004311742261052132, 0.05158977210521698, 0.9986591935157776, 0), (0.42110371589660645, -0.9472010135650635, 0.28851455450057983, 1) ), ( (0.9805775880813599, -0.19604921340942383, 0.005893628112971783, 0), (0.19608986377716064, 0.9792361855506897, -0.051433101296424866, 0), (0.004311674740165472, 0.05158979073166847, 0.9986591935157776, 0), (0.5515959858894348, -0.29554665088653564, 0.2542872726917267, 1) ), ( (0.9868195056915283, 0.16125182807445526, -0.012818634510040283, 0), (-0.16170568764209747, 0.9854974746704102, -0.05143299698829651, 0), (0.004334183409810066, 0.05282708629965782, 0.9985936284065247, 0), (-0.46437984704971313, -0.9946507215499878, 0.28851455450057983, 1) ), ( (0.9868195056915283, 0.16125188767910004, -0.012818566523492336, 0), (-0.16170574724674225, 0.9854974746704102, -0.051433026790618896, 0), (0.004334107507020235, 0.052827104926109314, 0.9985936284065247, 0), (-0.5719904899597168, -0.33882957696914673, 0.25428733229637146, 1) )]
            uniform token[] joints = ["Root", "Root/Spine1", "Root/Spine1/Spine2", "Root/Spine1/Spine2/Spine3", "Root/Spine1/Spine2/Spine3/Tail", "Root/Spine1/Spine2/Spine3/Tail/Tail_end", "Root/Face", "Root/Face/Bone", "Root/Face/Bone/Bone_end", "Root/Face/Bone_001", "Root/Face/Bone_001/Bone_001_end"]
            float[] primvars:blender:bone_lengths = [1.7242868, 1.5615964, 1.6590006, 1.724807, 1.2215849, 1.2215852, 1.0445038, 0.6654721, 0.66547203, 0.66547215, 0.6654724] (
                interpolation = "uniform"
            )
            uniform matrix4d[] restTransforms = [( (1, 0, 0, 0), (0, 0.03940032050013542, 0.999223530292511, 0), (0, -0.999223530292511, 0.03940032050013542, 0), (0, 0, -0.4151533246040344, 1) ), ( (1, 0, 0, 0), (0, 0.07313701510429382, -0.9973219037055969, 0), (0, 0.9973219037055969, 0.07313713431358337, 0), (0.0024281740188598633, 0.41413408517837524, 1.5354442596435547, 1) ), ( (0.999981701374054, 0.006035460624843836, 0.0001021666539600119, 0), (-0.006036308128386736, 0.999876081943512, 0.01452925056219101, 0), (-0.000014463278603216168, -0.014529604464769363, 0.9998943209648132, 0), (-2.3283064365386963e-10, 1.561596393585205, 0, 1) ), ( (0.999981701374054, -0.006036307662725449, -0.000014463330444414169, 0), (0.006035862024873495, 0.9998724460601807, 0.01478087529540062, 0), (-0.00007476040627807379, -0.014780677855014801, 0.9998907446861267, 0), (-2.3283064365386963e-10, 1.6590005159378052, -2.9802322387695312e-8, 1) ), ( (1, 2.5733994490906298e-8, -2.914817720522933e-9, 0), (-2.589318803813967e-8, 0.9911530017852783, -0.13272365927696228, 0), (-5.264793045967053e-10, 0.13272367417812347, 0.9911530613899231, 0), (-1.862645149230957e-9, 1.7248066663742065, 2.9802322387695312e-8, 1) ), ( (1, -3.3861802251067274e-15, -2.220446049250313e-16, 0), (-1.457167719820518e-16, 1, -7.450580596923828e-9, 0), (0, 0, 1, 0), (-9.313225746154785e-10, 1.2215852737426758, 0, 1) ), ( (1, 0.0000023741210952721303, -2.1975296249365783e-7, 0), (1.1874960108120003e-13, 0.09216776490211487, 0.9957435131072998, 0), (0.0000023842701466492144, -0.9957435727119446, 0.09216766059398651, 0), (0.0024281740188598633, 0.37334999442100525, 1.8203654289245605, 1) ), ( (0.9805599451065063, 0.19584868848323822, 0.0121594974771142, 0), (0.1961788535118103, -0.9797911047935486, -0.03903038054704666, 0), (0.0042692264541983604, 0.04065690189599991, -0.999164342880249, 0), (0.4186767637729645, -0.831182599067688, -0.4938742518424988, 1) ), ( (1, -1.2118835002183914e-7, 6.891787052154541e-8, 0), (9.988434612751007e-8, 1, 7.450580596923828e-9, 0), (-6.798654794692993e-8, 0, 1, 0), (0, 0.665472149848938, 2.9802322387695312e-8, 1) ), ( (0.9868401288986206, -0.16162040829658508, -0.0021362770348787308, 0), (-0.16158072650432587, -0.9860633611679077, -0.039624057710170746, 0), (0.004292667377740145, 0.039449453353881836, -0.9992119073867798, 0), (-0.4668068289756775, -0.7839350700378418, -0.48950302600860596, 1) ), ( (1, 5.6228600442409515e-8, 7.078051567077637e-8, 0), (-6.717164069414139e-8, 1, -2.9802322387695312e-8, 0), (-7.264316082000732e-8, 2.9802322387695312e-8, 1, 0), (-1.1920928955078125e-7, 0.665472149848938, 0, 1) )]
        }

        def Xform "Fish"
        {
            custom string userProperties:blender:object_name = "Fish"

            def Mesh "Cube" (
                active = true
                prepend apiSchemas = ["MaterialBindingAPI", "SkelBindingAPI"]
            )
            {
                uniform bool doubleSided = 1
                float3[] extent = [(-0.57677037, -3.025878, -1.199231), (0.57677037, 4.9576154, 1.4666905)]
                int[] faceVertexCounts = [4, 4, 4, 4, 4, 4, 4, 4, 4, 4, 4, 4, 4, 4, 4, 4, 4, 4, 4, 3, 3, 4, 4, 4, 4, 4, 4, 4, 3, 4, 4, 5, 4, 3, 4, 4, 4, 4, 4, 3, 4, 4, 4, 4, 5, 4, 3, 4, 4, 4, 4, 4, 4, 3, 4, 4, 4, 3, 4, 4, 4, 4, 4, 3, 4, 4, 4, 3, 4, 4, 4, 4, 3, 4, 4, 4, 3, 4, 4, 4, 4, 4, 4, 4, 4, 4, 4, 4, 4, 4, 4, 3, 3, 4, 4, 4, 4, 4, 4, 4, 4, 4, 4, 3, 4, 3, 4, 4, 4, 4, 4, 4, 4, 4, 4, 4, 4, 4, 4, 4, 4, 4, 4, 4, 4, 4, 4, 4, 4, 4, 4, 4, 4, 3, 4, 4, 3, 4, 4, 4, 4, 4, 4, 4, 4, 3, 4, 4, 3, 3, 4, 4, 4, 4, 4, 4, 4, 4, 4, 4, 4, 4, 4, 4, 4, 4, 4, 4, 3, 4, 4, 3, 4, 3, 3, 4, 4, 4, 4, 4, 4, 4, 4, 4, 4, 4, 4, 4, 4, 4, 4, 4, 3, 3, 4, 4, 4, 4, 4, 3, 4, 5, 4, 3, 4, 4, 4, 4, 3, 4, 4, 4, 4, 5, 4, 3, 4, 4, 4, 4, 4, 3, 4, 4, 4, 3, 4, 4, 4, 3, 4, 4, 3, 4, 4, 3, 4, 4, 3, 4, 4, 4, 4, 4, 4, 4, 4, 4, 4, 4, 4, 4, 4, 3, 3, 4, 4, 4, 4, 4, 4, 4, 3, 3, 4, 4, 4, 4, 4, 4, 4, 4, 4, 4, 4, 4, 3, 4, 4, 3, 3, 4, 3, 3, 4, 4, 4, 4, 4, 3, 3, 4, 3, 3, 4]
                int[] faceVertexIndices = [4, 2, 11, 10, 113, 5, 0, 112, 81, 78, 2, 7, 110, 1, 5, 113, 76, 3, 9, 82, 81, 218, 215, 78, 217, 258, 121, 80, 115, 80, 121, 122, 3, 6, 8, 4, 114, 81, 7, 112, 4, 8, 7, 2, 10, 11, 14, 13, 131, 85, 14, 11, 131, 78, 83, 136, 3, 4, 10, 9, 20, 18, 17, 16, 30, 26, 31, 32, 9, 10, 13, 12, 82, 9, 12, 84, 23, 16, 17, 15, 16, 23, 19, 20, 16, 15, 95, 232, 225, 88, 84, 12, 19, 88, 12, 13, 20, 19, 90, 227, 228, 91, 13, 14, 18, 20, 91, 22, 21, 90, 29, 19, 33, 95, 29, 22, 91, 88, 225, 221, 84, 15, 23, 30, 32, 33, 96, 31, 26, 94, 18, 27, 35, 32, 31, 21, 22, 33, 32, 22, 29, 94, 26, 25, 93, 93, 230, 231, 94, 93, 25, 28, 92, 19, 15, 33, 88, 19, 29, 95, 35, 27, 24, 34, 90, 21, 31, 96, 25, 34, 24, 28, 17, 35, 34, 30, 23, 26, 30, 34, 25, 17, 18, 35, 41, 45, 57, 46, 99, 41, 46, 109, 45, 40, 44, 57, 39, 42, 56, 55, 42, 38, 54, 56, 107, 244, 237, 100, 37, 38, 42, 40, 39, 55, 44, 36, 37, 42, 39, 77, 0, 41, 99, 40, 36, 39, 5, 36, 40, 45, 245, 238, 101, 108, 0, 5, 45, 41, 238, 240, 103, 101, 109, 46, 43, 100, 46, 57, 43, 48, 47, 50, 49, 56, 54, 47, 48, 102, 239, 242, 105, 48, 49, 51, 239, 102, 104, 241, 240, 241, 104, 103, 102, 105, 51, 49, 105, 106, 53, 51, 52, 55, 48, 100, 43, 52, 107, 53, 52, 48, 51, 100, 237, 246, 109, 55, 56, 48, 62, 36, 5, 63, 62, 63, 58, 60, 1, 37, 64, 65, 63, 65, 59, 58, 73, 72, 68, 69, 62, 64, 37, 36, 64, 62, 60, 61, 5, 1, 65, 63, 65, 64, 61, 59, 72, 74, 66, 68, 74, 75, 67, 66, 75, 73, 69, 67, 67, 69, 71, 70, 68, 66, 70, 71, 69, 68, 71, 66, 67, 70, 60, 58, 73, 75, 61, 60, 75, 74, 59, 61, 74, 72, 58, 59, 72, 73, 52, 53, 106, 107, 235, 245, 108, 98, 244, 107, 106, 243, 105, 242, 243, 106, 49, 50, 104, 102, 47, 101, 103, 50, 50, 103, 104, 114, 251, 218, 81, 108, 101, 47, 38, 98, 108, 54, 109, 246, 236, 99, 37, 97, 98, 38, 234, 235, 98, 97, 99, 236, 214, 77, 92, 229, 230, 93, 94, 231, 233, 96, 24, 86, 92, 28, 91, 228, 232, 95, 223, 229, 92, 86, 18, 89, 87, 27, 96, 233, 227, 90, 224, 223, 86, 87, 14, 85, 89, 18, 222, 226, 89, 85, 27, 87, 86, 24, 226, 224, 87, 89, 2, 78, 131, 11, 132, 269, 268, 131, 253, 255, 118, 116, 110, 6, 80, 115, 1, 79, 97, 37, 6, 3, 76, 80, 125, 262, 213, 76, 268, 222, 85, 131, 1, 110, 115, 79, 77, 114, 112, 0, 111, 123, 124, 6, 110, 113, 8, 8, 113, 112, 7, 79, 115, 122, 258, 248, 111, 121, 248, 260, 123, 111, 217, 80, 76, 213, 261, 124, 123, 260, 77, 214, 253, 116, 120, 257, 256, 119, 216, 79, 122, 259, 119, 256, 251, 114, 119, 118, 120, 114, 116, 118, 119, 117, 254, 259, 122, 114, 77, 116, 122, 121, 117, 124, 261, 254, 117, 255, 257, 120, 118, 219, 263, 126, 82, 121, 111, 124, 117, 127, 264, 262, 125, 263, 265, 128, 126, 76, 82, 126, 125, 127, 128, 130, 129, 125, 126, 128, 127, 130, 267, 266, 129, 129, 266, 264, 127, 265, 267, 130, 128, 215, 220, 83, 78, 269, 132, 136, 273, 136, 83, 134, 135, 84, 221, 219, 82, 133, 270, 272, 135, 135, 272, 273, 136, 132, 131, 136, 220, 271, 134, 83, 271, 270, 133, 134, 135, 134, 133, 43, 44, 55, 52, 57, 44, 43, 54, 108, 47, 141, 147, 148, 139, 250, 249, 137, 142, 218, 144, 139, 215, 247, 250, 142, 138, 213, 219, 146, 140, 252, 259, 258, 217, 140, 141, 145, 143, 251, 249, 144, 218, 141, 139, 144, 145, 147, 150, 151, 148, 268, 148, 151, 222, 268, 273, 220, 215, 140, 146, 147, 141, 157, 153, 154, 155, 167, 169, 168, 163, 146, 149, 150, 147, 219, 221, 149, 146, 160, 154, 153, 152, 160, 153, 156, 152, 153, 157, 221, 225, 156, 149, 149, 156, 157, 150, 150, 157, 155, 151, 228, 227, 158, 159, 166, 170, 156, 232, 228, 159, 166, 152, 170, 169, 167, 160, 233, 231, 163, 168, 155, 172, 164, 169, 159, 158, 168, 170, 166, 159, 169, 231, 230, 162, 163, 230, 229, 165, 162, 156, 170, 152, 225, 232, 166, 156, 172, 171, 161, 164, 227, 233, 168, 158, 162, 165, 161, 171, 154, 160, 167, 171, 172, 163, 162, 171, 167, 154, 172, 155, 178, 183, 194, 182, 236, 246, 183, 178, 182, 194, 181, 177, 176, 192, 193, 179, 179, 193, 191, 175, 174, 179, 175, 177, 181, 192, 176, 173, 176, 179, 174, 214, 236, 178, 137, 177, 176, 173, 142, 182, 177, 173, 137, 178, 182, 142, 246, 237, 180, 183, 183, 180, 194, 185, 186, 187, 184, 193, 185, 184, 191, 185, 188, 186, 239, 186, 188, 242, 242, 188, 190, 243, 189, 185, 192, 237, 244, 189, 180, 190, 188, 185, 189, 192, 185, 193, 199, 200, 142, 173, 199, 197, 195, 200, 138, 202, 201, 174, 200, 195, 196, 202, 210, 206, 205, 209, 199, 173, 174, 201, 201, 198, 197, 199, 142, 200, 202, 138, 202, 196, 198, 201, 209, 205, 203, 211, 211, 203, 204, 212, 212, 204, 206, 210, 204, 207, 208, 206, 205, 208, 207, 203, 206, 208, 205, 203, 207, 204, 197, 212, 210, 195, 198, 211, 212, 197, 196, 209, 211, 198, 195, 210, 209, 196, 189, 244, 243, 190, 186, 239, 241, 187, 184, 187, 240, 238, 187, 241, 240, 245, 184, 238, 175, 191, 245, 235, 174, 175, 235, 234, 161, 165, 229, 223, 155, 164, 224, 226, 151, 155, 226, 222, 164, 161, 223, 224, 139, 148, 268, 215, 247, 252, 217, 143, 138, 174, 234, 216, 143, 217, 213, 140, 138, 216, 252, 247, 214, 137, 249, 251, 248, 261, 260, 143, 145, 250, 247, 145, 144, 249, 250, 216, 259, 252, 256, 257, 255, 251, 256, 255, 253, 251, 253, 214, 259, 254, 258, 258, 254, 261, 248, 213, 262, 263, 219, 264, 266, 267, 265, 262, 264, 265, 263, 273, 272, 271, 220, 269, 273, 268, 272, 270, 271, 180, 189, 192, 181, 194, 180, 181, 191, 184, 245, 216, 234, 97, 79]
                rel material:binding = </root/_materials/Bottom>
                normal3f[] normals = [(0.9875906, 0.10793717, -0.11408084), (0.9875906, 0.10793717, -0.11408084), (0.9875906, 0.10793717, -0.11408084), (0.9875906, 0.10793717, -0.11408084), (0.9937841, 0.008551324, -0.11099592), (0.99376154, 0.008566658, -0.11119634), (0.99376154, 0.008566658, -0.11119634), (0.9939889, 0.008409529, -0.10915712), (0.6008378, 0.17128529, -0.7808042), (0.6008378, 0.17128529, -0.7808042), (0.6008378, 0.17128529, -0.7808042), (0.6008378, 0.17128529, -0.7808042), (0.995786, -0.00651924, 0.0914753), (0.99595, -0.006391447, 0.0896817), (0.99595, -0.006391447, 0.0896817), (0.9956366, -0.006633463, 0.09307885), (0.6286155, 0.20636965, 0.74983597), (0.6286155, 0.20636965, 0.74983597), (0.6286155, 0.20636965, 0.74983597), (0.6286155, 0.20636965, 0.74983597), (0, 0.21427512, -0.9767733), (0, 0.21427512, -0.9767733), (0, 0.21427512, -0.9767733), (0, 0.21427512, -0.9767733), (0, 0.99874264, 0.05013038), (0, 0.99874264, 0.05013038), (0, 0.99874264, 0.05013038), (0, 0.99874264, 0.05013038), (0.9998168, 0.00059138593, -0.019131726), (0.99981165, 0.00052888197, -0.01940014), (0.99981165, 0.00052888197, -0.01940014), (0.9998161, 0.0005828074, -0.019168567), (0.9939778, 0.0009488891, 0.10957826), (0.9939778, 0.0009488891, 0.10957826), (0.9939778, 0.0009488891, 0.10957826), (0.9939778, 0.0009488891, 0.10957826), (0.60944235, 0.036576495, -0.7919863), (0.6094424, 0.036576502, -0.7919862), (0.6094424, 0.036576502, -0.7919862), (0.6094423, 0.03657649, -0.7919863), (0.9935382, 0.018425738, -0.11199166), (0.99420506, 0.008576828, -0.10715858), (0.99356765, 0.018024964, -0.111795746), (0.9935382, 0.018425738, -0.11199166), (0.9771143, 0.17015556, -0.12765054), (0.9771143, 0.17015556, -0.12765054), (0.9771143, 0.17015556, -0.12765054), (0.9771143, 0.17015556, -0.12765054), (0.5545458, 0.42777932, -0.7137814), (0.5545458, 0.42777932, -0.7137814), (0.5545458, 0.42777932, -0.7137814), (0.5545458, 0.42777932, -0.7137814), (0.9994415, 0.024733987, -0.022472506), (0.9994415, 0.024733987, -0.022472506), (0.99947566, 0.028667623, -0.015054157), (0.99947536, 0.028977087, -0.014470129), (0.9872534, 0.0899252, 0.13131662), (0.9872534, 0.0899252, 0.13131662), (0.9872534, 0.0899252, 0.13131662), (0.9872534, 0.0899252, 0.13131662), (0.95449144, 0.108794644, -0.27768663), (0.95449144, 0.108794644, -0.27768663), (0.95449144, 0.108794644, -0.27768663), (0.95449144, 0.108794644, -0.27768663), (0.99981403, -0.012170699, -0.014957248), (0.99981403, -0.012170699, -0.014957248), (0.9998119, -0.014100558, -0.013322259), (0.99976856, -0.01975581, -0.008528143), (0.97778416, 0.14352752, 0.15276791), (0.97778416, 0.14352752, 0.15276791), (0.97778416, 0.14352752, 0.15276791), (0.97778416, 0.14352752, 0.15276791), (0.64974076, 0.22534147, 0.7259877), (0.64974076, 0.22534147, 0.7259877), (0.64974076, 0.22534147, 0.7259877), (0.64974076, 0.22534147, 0.7259877), (0, 1, 0), (0, 1, 0), (0, 1, 0), (0, 1, 0), (0, 1, 0), (0, 1, 0), (0.93792266, 0.10958298, 0.32907864), (0.93792266, 0.10958298, 0.32907864), (0.93792266, 0.10958298, 0.32907864), (0.93792266, 0.10958298, 0.32907864), (0, -0.63932294, 0.76893836), (0, -0.63932294, 0.76893836), (0, -0.63932294, 0.76893836), (0, -0.63932294, 0.76893836), (0.6223767, 0.18891053, 0.7595789), (0.6223767, 0.18891053, 0.7595789), (0.6223767, 0.18891053, 0.7595789), (0.6223767, 0.18891053, 0.7595789), (0.9568322, 0.14853768, 0.24981746), (0.9568322, 0.14853768, 0.24981746), (0.9568322, 0.14853768, 0.24981746), (0.9568322, 0.14853768, 0.24981746), (0, 0, 1), (0, 0, 1), (0, 0, 1), (0, 0, 1), (0.96786606, 0.11599111, -0.22311684), (0.96786606, 0.11599111, -0.22311684), (0.96786606, 0.11599111, -0.22311684), (0.96786606, 0.11599111, -0.22311684), (0, 0, 1), (0, 0, 1), (0, 0, 1), (0, 0, 1), (0.9963957, 0.064522915, -0.05506663), (0.9963957, 0.06452297, -0.055066433), (0.9963957, 0.064522944, -0.055066492), (0.16040511, -0.4048179, 0.90021825), (0.16040511, -0.4048179, 0.90021825), (0.16040511, -0.4048179, 0.90021825), (0.16040511, -0.4048179, 0.90021825), (0, 0.21977383, 0.9755509), (0, 0.21977383, 0.9755509), (0, 0.21977383, 0.9755509), (0, 0.21977383, 0.9755509), (0.9986363, 0.023553299, -0.046591498), (0.9986363, 0.023553299, -0.046591498), (0.9986363, 0.023553299, -0.046591498), (0.9986363, 0.023553299, -0.046591498), (0.9986363, 0.023553299, -0.046591498), (0.033653192, 0.6047715, -0.7956877), (0.033653192, 0.6047715, -0.7956877), (0.033653192, 0.6047715, -0.7956877), (0.033653192, 0.6047715, -0.7956877), (0.9948707, 0.09819233, -0.024302825), (0.9948707, 0.098192245, -0.024303256), (0.99487066, 0.098192275, -0.024303015), (0.99976856, -0.01975581, -0.008528143), (0.9998119, -0.014100558, -0.013322259), (0.9997467, -0.021326277, -0.0071967384), (0.9997467, -0.021326277, -0.0071967384), (0.9979529, 0.036974855, -0.052180253), (0.9979529, 0.036974855, -0.052180253), (0.9979529, 0.036974855, -0.052180253), (0.9979529, 0.036974855, -0.052180253), (-0.001409193, 0.87977624, 0.47538596), (-0.0027833525, 0.879933, 0.47508952), (-0.0027833525, 0.879933, 0.47508952), (-0.00009376102, 0.87962425, 0.4756692), (-0.00009376102, 0.87962425, 0.4756692), (0.000093602415, 0.8796245, 0.4756688), (0.0014091915, 0.8797762, 0.47538602), (-0.001409193, 0.87977624, 0.47538596), (-0.020458635, 0.9610325, 0.27567726), (-0.020458635, 0.9610325, 0.27567726), (-0.020458635, 0.9610325, 0.27567726), (-0.020458635, 0.9610325, 0.27567726), (0.9963957, 0.06452297, -0.055066433), (0.9963957, 0.064523, -0.055066306), (0.9963957, 0.064522944, -0.055066492), (0.30968788, -0.60842115, 0.73069626), (0.30968788, -0.60842115, 0.73069626), (0.30968788, -0.60842115, 0.73069626), (0.30968788, -0.60842115, 0.73069626), (0.999617, 0.027585601, 0.0022201627), (0.99961025, 0.027829343, 0.0022039355), (0.99961025, 0.027829343, 0.0022039355), (0.9997036, 0.024223061, 0.0024434624), (-0.002654905, 0.71356297, -0.7005861), (-0.005292474, 0.7137152, -0.7004161), (-0.005292474, 0.7137152, -0.7004161), (-0.0049794, 0.71369743, -0.7004364), (0.9999924, -0.0014118981, -0.0036504446), (0.999992, -0.0015058602, -0.0036996661), (0.99999046, -0.0019029343, -0.003907581), (0.99999046, -0.0019029343, -0.003907581), (0.9997223, 0.023429511, 0.0024961892), (0.999617, 0.027585601, 0.0022201627), (0.9997036, 0.024223061, 0.0024434624), (0.9997223, 0.023429511, 0.0024961892), (0.9997223, 0.023429511, 0.0024961892), (0.99999285, -0.0012625167, -0.0035722468), (0.99999285, -0.0012625167, -0.0035722468), (0.999992, -0.0015058602, -0.0036996661), (0.9999924, -0.0014118981, -0.0036504446), (0.99487054, 0.09819235, -0.02430264), (0.9948707, 0.09819233, -0.024302825), (0.99487066, 0.098192275, -0.024303015), (0.100809745, 0.9934977, -0.052912325), (0.100809745, 0.9934977, -0.052912325), (0.100809745, 0.9934977, -0.052912325), (0.100809745, 0.9934977, -0.052912325), (-0.16504239, 0.9835697, -0.07315588), (-0.16504239, 0.9835697, -0.07315588), (-0.16504239, 0.9835697, -0.07315588), (-0.16504239, 0.9835697, -0.07315588), (0.05493218, 0.80502546, 0.5906914), (0.05493218, 0.80502546, 0.5906914), (0.05493218, 0.80502546, 0.5906914), (0.05493218, 0.80502546, 0.5906914), (-0.018596474, 0.95433074, 0.2981727), (-0.018596474, 0.95433074, 0.2981727), (-0.018596474, 0.95433074, 0.2981727), (-0.018596474, 0.95433074, 0.2981727), (-0.028117282, 0.34658644, 0.93759656), (-0.028117282, 0.34658644, 0.93759656), (-0.028117282, 0.34658644, 0.93759656), (-0.028117282, 0.34658644, 0.93759656), (0, -0.35798714, -0.9337265), (0, -0.35798714, -0.9337265), (0, -0.35798714, -0.9337265), (0, -0.35798714, -0.9337265), (0.9902699, -0.08860495, 0.107306615), (0.99023885, -0.09020137, 0.10625772), (0.9903669, -0.08116913, 0.11218298), (-0.041893803, 0.6080166, 0.7928182), (-0.041893803, 0.6080166, 0.7928182), (-0.041893803, 0.6080166, 0.7928182), (-0.041893803, 0.6080166, 0.7928182), (0.99036866, -0.080935985, 0.11233519), (0.9902699, -0.08860495, 0.107306615), (0.9903669, -0.08116913, 0.11218298), (0.99036866, -0.080935985, 0.11233519), (0.62123024, -0.079438515, -0.77959126), (0.62123024, -0.079438515, -0.77959126), (0.62123024, -0.079438515, -0.77959126), (0.62123024, -0.079438515, -0.77959126), (0.9894565, -0.051360063, -0.13541818), (0.9894565, -0.051360063, -0.13541818), (0.9894565, -0.051360063, -0.13541818), (0.99157065, -0.027397927, -0.12663707), (0.99157065, -0.027397927, -0.12663707), (0.99157065, -0.027397927, -0.12663707), (0.99157065, -0.027397927, -0.12663707), (0, -0.27336243, 0.9619111), (0, -0.27336243, 0.9619111), (0, -0.27336243, 0.9619111), (0, -0.27336243, 0.9619111), (0.9924337, -0.038068414, -0.11673077), (0.9924337, -0.038068414, -0.11673077), (0.9924337, -0.038068414, -0.11673077), (0.9924337, -0.038068414, -0.11673077), (0, -0.63295174, 0.7741912), (0, -0.63295174, 0.7741912), (0, -0.63295174, 0.7741912), (0, -0.63295174, 0.7741912), (0.49223867, -0.12542501, -0.8613765), (0.49223867, -0.12542501, -0.8613765), (0.49223867, -0.12542501, -0.8613765), (0.49223867, -0.12542501, -0.8613765), (0.937345, -0.17020829, -0.30399585), (0.937345, -0.17020829, -0.30399585), (0.937345, -0.17020829, -0.30399585), (0.91643417, -0.315231, 0.24653153), (0.91643417, -0.315231, 0.24653153), (0.91643417, -0.315231, 0.24653153), (0.91643417, -0.315231, 0.24653153), (0.9692937, -0.1251259, 0.2116909), (0.9692937, -0.1251259, 0.2116909), (0.9692937, -0.1251259, 0.2116909), (0.9692937, -0.1251259, 0.2116909), (0, -0.74990845, -0.6615417), (0, -0.74990845, -0.6615417), (0, -0.74990845, -0.6615417), (0, -0.74990845, -0.6615417), (0.8959993, -0.2989642, -0.3283378), (0.8959993, -0.2989642, -0.3283378), (0.8959993, -0.2989642, -0.3283378), (0, -0.8768676, -0.48073205), (0, -0.8768676, -0.48073205), (0, -0.8768676, -0.48073205), (0, -0.8768676, -0.48073205), (0, -0.99660844, 0.08229035), (0, -0.99660844, 0.08229035), (0, -0.99660844, 0.08229035), (0, -0.99660844, 0.08229035), (0.18280777, -0.73166347, -0.65669614), (0.18280777, -0.73166347, -0.65669614), (0.18280777, -0.73166347, -0.65669614), (0.18280777, -0.73166347, -0.65669614), (0.16545266, -0.6407813, -0.7496832), (0.16545266, -0.6407813, -0.7496832), (0.16545266, -0.6407813, -0.7496832), (0.16545266, -0.6407813, -0.7496832), (0.9461288, -0.06973235, -0.3161924), (0.9461288, -0.06973235, -0.3161924), (0.9461288, -0.06973235, -0.3161924), (0.3534881, -0.32043284, -0.8788453), (0.3534881, -0.32043284, -0.8788453), (0.3534881, -0.32043284, -0.8788453), (0.3534881, -0.32043284, -0.8788453), (0.8825029, -0.32627603, -0.33872196), (0.8825029, -0.32627603, -0.33872196), (0.8825029, -0.32627603, -0.33872196), (0.8825029, -0.32627603, -0.33872196), (0, -0.097851515, -0.995201), (0, -0.097851515, -0.995201), (0, -0.097851515, -0.995201), (0, -0.097851515, -0.995201), (0.98336273, -0.07766228, 0.16421402), (0.98336273, -0.07766228, 0.16421402), (0.98336273, -0.07766228, 0.16421402), (0.99364936, -0.044501517, 0.10334742), (0.9943327, -0.03929172, 0.09878577), (0.9946101, -0.039170004, 0.09600242), (0.9948876, -0.043798693, 0.09099603), (0.047519337, 0.0980989, -0.9940415), (0.047519337, 0.0980989, -0.9940415), (0.047519337, 0.0980989, -0.9940415), (0.047519337, 0.0980989, -0.9940415), (0.99394584, -0.05312759, 0.09617335), (0.9938611, -0.053368717, 0.09691228), (0.9935685, -0.04535953, 0.10375023), (0.99489963, -0.044463318, 0.09054176), (-0.4058532, 0.91391695, 0.006230802), (-0.4058532, 0.91391695, 0.006230802), (-0.4058532, 0.91391695, 0.006230802), (-0.4058532, 0.91391695, 0.006230802), (-0.9955917, 0.09251421, -0.015434752), (-0.9955917, 0.09251421, -0.015434752), (-0.9955917, 0.09251421, -0.015434752), (-0.9955917, 0.09251421, -0.015434752), (0.99364936, -0.044501517, 0.10334742), (0.9935685, -0.04535953, 0.10375023), (0.9938611, -0.053368717, 0.09691228), (0.9943327, -0.03929172, 0.09878577), (0.41133532, -0.91147524, 0.004020586), (0.41133532, -0.91147524, 0.004020586), (0.41133532, -0.91147524, 0.004020586), (0.41133532, -0.91147524, 0.004020586), (0.9946101, -0.039170004, 0.09600242), (0.99394584, -0.05312759, 0.09617335), (0.99489963, -0.044463318, 0.09054176), (0.9948876, -0.043798693, 0.09099603), (-0.012390376, -0.112402804, 0.99358547), (-0.012390376, -0.112402804, 0.99358547), (-0.012390376, -0.112402804, 0.99358547), (-0.012390376, -0.112402804, 0.99358547), (0.18377206, 0.14384112, 0.9723875), (0.18377206, 0.14384112, 0.9723875), (0.18377206, 0.14384112, 0.9723875), (0.18377206, 0.14384112, 0.9723875), (0.9922401, -0.12313501, 0.017245192), (0.9922401, -0.12313501, 0.017245192), (0.9922401, -0.12313501, 0.017245192), (0.9922401, -0.12313501, 0.017245192), (0.019256534, 0.21901393, -0.9755317), (0.019256534, 0.21901393, -0.9755317), (0.019256534, 0.21901393, -0.9755317), (0.019256534, 0.21901393, -0.9755317), (-0.066161096, 0.12760124, -0.98961645), (-0.066161096, 0.12760124, -0.98961645), (-0.066161096, 0.12760124, -0.98961645), (-0.066161096, 0.12760124, -0.98961645), (0.12228995, 0.54494953, 0.82950294), (0.12228995, 0.54494953, 0.82950294), (0.12228995, 0.54494953, 0.82950294), (0.12228995, 0.54494953, 0.82950294), (-0.9996313, 0.02490686, -0.01081464), (-0.9996313, 0.02490686, -0.01081464), (-0.9996313, 0.02490686, -0.01081464), (0.99897504, -0.042858507, 0.014562499), (0.99897504, -0.042858507, 0.014562499), (0.99897504, -0.042858507, 0.014562499), (0.15374301, 0.21526612, -0.9643773), (0.15374301, 0.21526612, -0.9643773), (0.15374301, 0.21526612, -0.9643773), (0.15374301, 0.21526612, -0.9643773), (0.86183244, -0.50719297, 0.0004371196), (0.86183244, -0.50719297, 0.0004371196), (0.86183244, -0.50719297, 0.0004371196), (0.86183244, -0.50719297, 0.0004371196), (0.088748895, -0.05309912, 0.9946377), (0.088748895, -0.05309912, 0.9946377), (0.088748895, -0.05309912, 0.9946377), (0.088748895, -0.05309912, 0.9946377), (-0.8773413, 0.47986022, -0.0025290612), (-0.8773413, 0.47986022, -0.0025290612), (-0.8773413, 0.47986022, -0.0025290612), (-0.8773413, 0.47986022, -0.0025290612), (0.15000959, -0.519801, -0.84101367), (0.15000959, -0.519801, -0.84101367), (0.15000959, -0.519801, -0.84101367), (0.15000959, -0.519801, -0.84101367), (0, 0.5487652, 0.8359765), (0, 0.5487652, 0.8359765), (0, 0.5487652, 0.8359765), (0, 0.5487652, 0.8359765), (0, -0.53257537, -0.8463826), (0, -0.53257537, -0.8463826), (0, -0.53257537, -0.8463826), (0, -0.53257537, -0.8463826), (0, -0.63393223, -0.7733887), (0, -0.63393223, -0.7733887), (0, -0.63393223, -0.7733887), (0, -0.63393223, -0.7733887), (0.18079185, -0.88598585, -0.42701682), (0.18079185, -0.88598585, -0.42701682), (0.18079185, -0.88598585, -0.42701682), (0.18079185, -0.88598585, -0.42701682), (0.4555703, -0.58111095, 0.6743632), (0.4555703, -0.58111095, 0.6743632), (0.4555703, -0.58111095, 0.6743632), (0.4555703, -0.58111095, 0.6743632), (0.1354527, -0.9874235, 0.08153194), (0.1354527, -0.9874235, 0.08153194), (0.1354527, -0.9874235, 0.08153194), (0, 0.046134047, -0.9989353), (0, 0.046134047, -0.9989353), (0, 0.046134047, -0.9989353), (0, 0.046134047, -0.9989353), (0.38335034, -0.2721128, 0.8826081), (0.38335034, -0.2721128, 0.8826081), (0.38335034, -0.2721128, 0.8826081), (-0.06728784, 0.488401, 0.87002116), (-0.06728784, 0.488401, 0.87002116), (-0.06728784, 0.488401, 0.87002116), (-0.06728784, 0.488401, 0.87002116), (0, 0.9961081, -0.0881399), (0, 0.9961081, -0.0881399), (0, 0.9961081, -0.0881399), (0, 0.9961081, -0.0881399), (0.57247853, -0.28978807, 0.7670014), (0.57247853, -0.28978807, 0.7670014), (0.57247853, -0.28978807, 0.7670014), (0.57247853, -0.28978807, 0.7670014), (0, -0.36743635, 0.93004876), (0, -0.36743635, 0.93004876), (0, -0.36743635, 0.93004876), (0, -0.36743635, 0.93004876), (0, -0.088213876, -0.9961016), (0, -0.088213876, -0.9961016), (0, -0.088213876, -0.9961016), (0, -0.088213876, -0.9961016), (0, 0.96102434, 0.27646405), (0, 0.96102434, 0.27646405), (0, 0.96102434, 0.27646405), (0, 0.96102434, 0.27646405), (0, 0.6053019, -0.79599595), (0, 0.6053019, -0.79599595), (0, 0.6053019, -0.79599595), (0, 0.6053019, -0.79599595), (0, -0.45441926, -0.89078796), (0, -0.45441926, -0.890788), (0, -0.45441926, -0.890788), (0, -0.45441926, -0.89078796), (0, -0.4033942, 0.91502625), (0, -0.4033942, 0.91502625), (0, -0.4033942, 0.91502625), (0, -0.4033942, 0.91502625), (0, -0.45441926, -0.890788), (0, -0.45441926, -0.890788), (0, -0.45441926, -0.890788), (0, -0.45441926, -0.890788), (0.033746585, -0.8767744, -0.4797165), (0.033746585, -0.8767744, -0.4797165), (0.033746585, -0.8767744, -0.4797165), (0.033746585, -0.8767744, -0.4797165), (-0.0049794, 0.71369743, -0.7004364), (0.004979133, 0.7136972, -0.7004367), (0.0026545713, 0.7135629, -0.70058614), (-0.002654905, 0.71356297, -0.7005861), (0, -0.6861794, -0.72743237), (0, -0.6861794, -0.72743237), (0, -0.6861794, -0.7274323), (0, -0.6861794, -0.7274323), (0.4155323, 0.11076744, -0.9028087), (0.4155323, 0.11076744, -0.9028087), (0.4155323, 0.11076744, -0.9028087), (0.4155323, 0.11076744, -0.9028087), (0, 0.15721811, -0.98756385), (0, 0.15721811, -0.98756385), (0, 0.15721811, -0.98756385), (0, 0.15721811, -0.98756385), (0, -0.6861796, -0.7274322), (0, -0.6861794, -0.7274323), (0, -0.6861794, -0.7274323), (0, -0.6861796, -0.7274322), (0, -0.87637174, -0.48163536), (0, -0.87637174, -0.48163536), (0, -0.87637174, -0.48163536), (0, -0.87637174, -0.48163536), (0.6460027, 0.28790927, -0.7069574), (0.6460027, 0.28790927, -0.7069574), (0.6460027, 0.28790927, -0.7069574), (0.6460027, 0.28790927, -0.7069574), (0, 0.82654446, 0.56287146), (0, 0.82654446, 0.56287146), (0, 0.82654446, 0.56287146), (0, 0.82654446, 0.56287146), (0, -0.10698141, -0.9942611), (0, -0.10698141, -0.9942611), (0, -0.10698141, -0.9942611), (0, -0.10698141, -0.9942611), (0.6096207, -0.027440414, 0.79221827), (0.6096207, -0.02744044, 0.79221815), (0.6096207, -0.02744044, 0.79221815), (0.6096207, -0.027440418, 0.7922182), (0.6166291, -0.18790397, 0.7645003), (0.6166291, -0.18790397, 0.7645003), (0.6166291, -0.18790397, 0.7645003), (0.6166291, -0.18790397, 0.7645003), (0.60678446, 0.10014668, 0.7885324), (0.60678446, 0.10014668, 0.7885324), (0.60678446, 0.10014668, 0.7885324), (0.60678446, 0.10014668, 0.7885324), (0, -0.74973613, 0.6617369), (0, -0.74973613, 0.6617369), (0, -0.74973613, 0.6617369), (0, -0.74973613, 0.6617369), (0, 0.5054352, -0.8628645), (0, 0.5054352, -0.8628645), (0, 0.5054352, -0.8628645), (0, 0.5054352, -0.8628645), (0.6096206, -0.027440388, 0.79221827), (0.6096207, -0.027440414, 0.79221827), (0.6096207, -0.027440418, 0.7922182), (0.6096206, -0.027440388, 0.79221827), (0.6094421, 0.036576483, -0.7919863), (0.60944235, 0.036576495, -0.7919863), (0.6094423, 0.03657649, -0.7919863), (0.6094421, 0.036576483, -0.7919863), (1, -1.0894601e-9, 0), (1, 2.2600853e-8, 0), (1, 2.6761263e-10, 0), (0.99562603, -0.0066415286, 0.09319167), (0.995786, -0.00651924, 0.0914753), (0.9956366, -0.006633463, 0.09307885), (0.99562603, -0.0066415286, 0.09319167), (0.99420506, 0.008576828, -0.10715858), (0.9937841, 0.008551324, -0.11099592), (0.9939889, 0.008409529, -0.10915712), (0.99356765, 0.018024964, -0.111795746), (0.99982184, 0.00065345014, -0.0188652), (0.9998168, 0.00059138593, -0.019131726), (0.9998161, 0.0005828074, -0.019168567), (0, 0.81147945, -0.5843809), (0, 0.81147945, -0.5843809), (0, 0.81147945, -0.5843809), (0, 0.81147945, -0.5843809), (0, 0.49476543, -0.86902654), (0, 0.49476543, -0.86902654), (0, 0.49476543, -0.86902654), (0, 0.49476543, -0.86902654), (0, 0.12599184, 0.9920312), (0, 0.12599184, 0.9920312), (0, 0.12599184, 0.9920312), (0, 0.12599184, 0.9920312), (0, 0.038672686, 0.99925196), (0, 0.038672686, 0.99925196), (0, 0.038672686, 0.99925196), (0, 0.038672686, 0.99925196), (0, -0.4501495, -0.8929533), (0, -0.4501495, -0.8929533), (0, -0.4501495, -0.8929533), (0, -0.4501495, -0.8929533), (0, 0.19687714, 0.9804282), (0, 0.19687714, 0.9804282), (0, 0.19687714, 0.9804282), (0, 0.19687714, 0.9804282), (0, -0.39651623, 0.91802776), (0, -0.39651623, 0.91802776), (0, -0.39651623, 0.91802776), (0, -0.39651623, 0.91802776), (0, 0.6124143, 0.79053694), (0, 0.6124143, 0.79053694), (0, 0.6124143, 0.79053694), (0, 0.6124143, 0.79053694), (0.9999864, 0.0052124904, 0.00011523313), (0.9999864, 0.0052124904, 0.00011523313), (0.9999864, 0.0052124904, 0.00011523313), (0.9931871, 0.04973108, -0.10538621), (0.9931871, 0.04973108, -0.10538621), (0.9931871, 0.04973108, -0.10538621), (0.9931871, 0.04973108, -0.10538621), (0, -0.34910867, 0.93708223), (0, -0.34910867, 0.93708223), (0, -0.34910867, 0.93708223), (0, -0.34910867, 0.93708223), (0.9884098, 0.0070035984, -0.15164815), (0.9884098, 0.0070035984, -0.15164815), (0.9884098, 0.0070035984, -0.15164815), (1, 0, 0), (1, -1.2478712e-8, 0), (1, -4.111163e-9, 0), (0, -0.28591016, 0.95825636), (0, -0.28591016, 0.95825636), (0, -0.28591016, 0.95825636), (0, -0.28591016, 0.95825636), (0, 0.22670263, -0.97396404), (0, 0.22670263, -0.97396404), (0, 0.22670263, -0.97396404), (0, 0.22670263, -0.97396404), (0, 0.5331825, 0.8460002), (0, 0.5331825, 0.8460002), (0, 0.5331825, 0.8460002), (0, 0.5331825, 0.8460002), (1, -1.2478712e-8, 0), (1, -1.0894601e-9, 0), (1, 2.6761263e-10, 0), (1, -4.111163e-9, 0), (0, -0.58903253, 0.80810934), (0, -0.58903253, 0.80810934), (0, -0.58903253, 0.80810934), (0, -0.58903253, 0.80810934), (0, 0.95291275, 0.3032446), (0, 0.95291275, 0.3032446), (0, 0.95291275, 0.3032446), (0, 0.95291275, 0.3032446), (0.99731725, 0.027237115, 0.06794545), (0.99731725, 0.027237115, 0.06794545), (0.99731725, 0.027237115, 0.06794545), (0.99731725, 0.027237115, 0.06794545), (0.9996364, -0.018337937, 0.019766804), (0.9996364, -0.018337937, 0.019766804), (0.9996364, -0.018337937, 0.019766804), (0.9996364, -0.018337937, 0.019766804), (0.9999602, -0.008283797, 0.0033367518), (0.9999602, -0.008283797, 0.0033367518), (0.9999602, -0.008283797, 0.0033367518), (0.9999602, -0.008283797, 0.0033367518), (0, 0.51925933, 0.8546167), (0, 0.51925933, 0.8546167), (0, 0.51925933, 0.8546167), (0, 0.51925933, 0.8546167), (0, -0.4117511, 0.91129637), (0, -0.4117511, 0.91129637), (0, -0.4117511, 0.91129637), (0, -0.4117511, 0.91129637), (0, 0.89714366, -0.44173896), (0, 0.89714366, -0.44173896), (0, 0.89714366, -0.44173896), (0, 0.89714366, -0.44173896), (0, -0.24670227, -0.9690913), (0, -0.24670227, -0.9690913), (0, -0.24670227, -0.9690913), (0, -0.24670227, -0.9690913), (0, 0.424819, -0.9052783), (0, 0.424819, -0.9052783), (0, 0.424819, -0.9052783), (0, 0.424819, -0.9052783), (0.99947536, 0.028977087, -0.014470129), (0.99947566, 0.028667623, -0.015054157), (0.9994729, 0.029693952, -0.013117198), (0.9994729, 0.029693952, -0.013117198), (0, 0.28035724, 0.9598958), (0, 0.28035724, 0.9598958), (0, 0.28035724, 0.9598958), (0, 0.28035724, 0.9598958), (0, 0.7326535, 0.6806019), (0, 0.7326535, 0.6806019), (0, 0.7326535, 0.6806019), (0, 0.7326535, 0.6806019), (0, 0.9934107, 0.11460802), (0, 0.9934107, 0.11460802), (0, 0.9934107, 0.11460802), (0, 0.9934107, 0.11460802), (0.9995874, 0.012954399, -0.02563641), (0.9995874, 0.012954399, -0.02563641), (0.9995874, 0.012954399, -0.02563641), (0, -0.27461377, -0.9615547), (0, -0.27461377, -0.9615547), (0, -0.27461377, -0.9615547), (0, -0.27461377, -0.9615547), (0, -0.021283848, -0.9997735), (0, -0.021283848, -0.9997735), (0, -0.021283848, -0.9997735), (0, -0.021283848, -0.9997735), (0.9916003, 0.08127678, -0.100612946), (0.9916003, 0.08127678, -0.100612946), (0.9916003, 0.08127678, -0.100612946), (0.9554952, -0.10902733, -0.2741205), (0.9554952, -0.10902733, -0.2741205), (0.9554952, -0.10902733, -0.2741205), (0.9554952, -0.10902733, -0.2741205), (0.9397769, -0.19212957, -0.28267592), (0.9397769, -0.19212957, -0.28267592), (0.9397769, -0.19212957, -0.28267592), (0.489671, -0.10429012, 0.8656478), (0.489671, -0.10429012, 0.8656478), (0.489671, -0.10429012, 0.8656478), (-0.9875906, 0.107937165, -0.114080824), (-0.9875906, 0.107937165, -0.114080824), (-0.9875906, 0.107937165, -0.114080824), (-0.9875906, 0.107937165, -0.114080824), (-0.9937841, 0.00855132, -0.11099592), (-0.9939889, 0.008409525, -0.10915712), (-0.99376154, 0.008566653, -0.11119634), (-0.99376154, 0.008566653, -0.11119634), (-0.6008378, 0.1712853, -0.7808042), (-0.6008378, 0.1712853, -0.7808042), (-0.6008378, 0.1712853, -0.7808042), (-0.6008378, 0.1712853, -0.7808042), (-0.995786, -0.0065192343, 0.0914753), (-0.9956366, -0.0066335266, 0.09307885), (-0.99595, -0.006391461, 0.0896817), (-0.99595, -0.006391461, 0.0896817), (-0.6286155, 0.20636965, 0.74983597), (-0.6286155, 0.20636965, 0.74983597), (-0.6286155, 0.20636965, 0.74983597), (-0.6286155, 0.20636965, 0.74983597), (-0.9998168, 0.0005913865, -0.019131724), (-0.9998161, 0.0005828081, -0.019168565), (-0.99981165, 0.00052888313, -0.019400137), (-0.99981165, 0.00052888313, -0.019400137), (-0.9939778, 0.00094887504, 0.10957826), (-0.9939778, 0.00094887504, 0.10957826), (-0.9939778, 0.00094887504, 0.10957826), (-0.9939778, 0.00094887504, 0.10957826), (-0.60944235, 0.0365765, -0.7919863), (-0.6094423, 0.0365765, -0.7919863), (-0.6094424, 0.03657651, -0.7919862), (-0.6094424, 0.03657651, -0.7919862), (-0.9935382, 0.018425735, -0.11199166), (-0.9935382, 0.018425735, -0.11199166), (-0.9935677, 0.018025123, -0.111795425), (-0.99420506, 0.008576748, -0.10715873), (-0.9771143, 0.17015556, -0.12765054), (-0.9771143, 0.17015556, -0.12765054), (-0.9771143, 0.17015556, -0.12765054), (-0.9771143, 0.17015556, -0.12765054), (-0.5545458, 0.42777932, -0.7137814), (-0.5545458, 0.42777932, -0.7137814), (-0.5545458, 0.42777932, -0.7137814), (-0.5545458, 0.42777932, -0.7137814), (-0.99946123, 0.023642475, -0.02276638), (-0.9995683, 0.015511484, -0.024950404), (-0.9994415, 0.02473399, -0.022472499), (-0.9994415, 0.02473399, -0.022472499), (-0.9872534, 0.0899252, 0.13131663), (-0.9872534, 0.0899252, 0.13131663), (-0.9872534, 0.0899252, 0.13131663), (-0.9872534, 0.0899252, 0.13131663), (-0.9544915, 0.10879465, -0.27768633), (-0.9544915, 0.10879465, -0.27768633), (-0.9544915, 0.10879465, -0.27768633), (-0.9544915, 0.10879465, -0.27768633), (-0.99981403, -0.012170699, -0.014957277), (-0.99976856, -0.019755814, -0.008528169), (-0.9998119, -0.014100264, -0.0133219175), (-0.99981403, -0.012170699, -0.014957277), (-0.97778416, 0.14352751, 0.15276791), (-0.97778416, 0.14352751, 0.15276791), (-0.97778416, 0.14352751, 0.15276791), (-0.97778416, 0.14352751, 0.15276791), (-0.64974076, 0.22534148, 0.7259877), (-0.64974076, 0.22534148, 0.7259877), (-0.64974076, 0.22534148, 0.7259877), (-0.64974076, 0.22534148, 0.7259877), (0, 1, 0), (0, 1, 0), (0, 1, 0), (0, 1, 0), (0, 1, 0), (0, 1, 0), (-0.93792266, 0.109583, 0.32907864), (-0.93792266, 0.109583, 0.32907864), (-0.93792266, 0.109583, 0.32907864), (-0.93792266, 0.109583, 0.32907864), (-0.6223767, 0.18891051, 0.7595788), (-0.6223767, 0.18891051, 0.7595788), (-0.6223767, 0.18891051, 0.7595788), (-0.6223767, 0.18891051, 0.7595788), (-0.95683205, 0.14853765, 0.24981762), (-0.95683205, 0.14853765, 0.24981762), (-0.95683205, 0.14853765, 0.24981762), (-0.95683205, 0.14853765, 0.24981762), (-0.96786606, 0.11599109, -0.22311707), (-0.96786606, 0.11599109, -0.22311707), (-0.96786606, 0.11599109, -0.22311707), (-0.96786606, 0.11599109, -0.22311707), (0, 0, 1), (0, 0, 1), (0, 0, 1), (0, 0, 1), (-0.9963957, 0.064522915, -0.05506663), (-0.9963957, 0.064522944, -0.055066492), (-0.9963957, 0.06452297, -0.055066433), (-0.16040505, -0.40481776, 0.90021825), (-0.16040505, -0.40481776, 0.90021825), (-0.16040505, -0.40481776, 0.90021825), (-0.16040505, -0.40481776, 0.90021825), (-0.9986363, 0.023553299, -0.046591498), (-0.9986363, 0.023553299, -0.046591498), (-0.9986363, 0.023553299, -0.046591498), (-0.9986363, 0.023553299, -0.046591498), (-0.9986363, 0.023553299, -0.046591498), (-0.033653192, 0.6047715, -0.7956877), (-0.033653192, 0.6047715, -0.7956877), (-0.033653192, 0.6047715, -0.7956877), (-0.033653192, 0.6047715, -0.7956877), (-0.9948707, 0.09819233, -0.024302825), (-0.99487066, 0.098192275, -0.024303015), (-0.9948707, 0.098192245, -0.024303256), (-0.99976856, -0.019755814, -0.008528169), (-0.9997467, -0.021326277, -0.0071967384), (-0.9997467, -0.021326277, -0.0071967384), (-0.9998119, -0.014100264, -0.0133219175), (-0.9979529, 0.036974847, -0.052180253), (-0.9979529, 0.036974847, -0.052180253), (-0.9979529, 0.036974847, -0.052180253), (-0.9979529, 0.036974847, -0.052180253), (0.0014091915, 0.8797762, 0.47538602), (0.000093602415, 0.8796245, 0.4756688), (0.0027833497, 0.87993294, 0.47508967), (0.0027833497, 0.87993294, 0.47508967), (0.020458635, 0.9610325, 0.2756774), (0.020458635, 0.9610325, 0.2756774), (0.020458635, 0.9610325, 0.2756774), (0.020458635, 0.9610325, 0.2756774), (-0.9963957, 0.06452297, -0.055066433), (-0.9963957, 0.064522944, -0.055066492), (-0.9963957, 0.064523, -0.055066306), (-0.3096877, -0.6084212, 0.7306963), (-0.3096877, -0.6084212, 0.7306963), (-0.3096877, -0.6084212, 0.7306963), (-0.3096877, -0.6084212, 0.7306963), (-0.999617, 0.027585603, 0.0022201673), (-0.9997035, 0.024223065, 0.0024435613), (-0.99961025, 0.02782934, 0.0022039416), (-0.99961025, 0.02782934, 0.0022039416), (0.0026545713, 0.7135629, -0.70058614), (0.004979133, 0.7136972, -0.7004367), (0.005291809, 0.7137151, -0.70041615), (0.005291809, 0.7137151, -0.70041615), (-0.9999924, -0.0014118906, -0.0036504562), (-0.99999046, -0.0019029343, -0.003907581), (-0.99999046, -0.0019029343, -0.003907581), (-0.999992, -0.001505859, -0.003699665), (-0.99972236, 0.023429517, 0.0024961892), (-0.99972236, 0.023429517, 0.0024961892), (-0.99972236, 0.023429517, 0.0024961892), (-0.9997035, 0.024223065, 0.0024435613), (-0.999617, 0.027585603, 0.0022201673), (-0.99999285, -0.0012625144, -0.0035722444), (-0.9999924, -0.0014118906, -0.0036504562), (-0.999992, -0.001505859, -0.003699665), (-0.99999285, -0.0012625144, -0.0035722444), (-0.99487054, 0.09819235, -0.02430264), (-0.99487066, 0.098192275, -0.024303015), (-0.9948707, 0.09819233, -0.024302825), (-0.10080976, 0.9934977, -0.05291233), (-0.10080976, 0.9934977, -0.05291233), (-0.10080976, 0.9934977, -0.05291233), (-0.10080976, 0.9934977, -0.05291233), (0.1650423, 0.9835697, -0.07315571), (0.1650423, 0.9835697, -0.07315571), (0.1650423, 0.9835697, -0.07315571), (0.1650423, 0.9835697, -0.07315571), (-0.05493211, 0.8050255, 0.5906914), (-0.05493211, 0.8050255, 0.5906914), (-0.05493211, 0.8050255, 0.5906914), (-0.05493211, 0.8050255, 0.5906914), (0.018596467, 0.9543307, 0.29817274), (0.018596467, 0.9543307, 0.29817274), (0.018596467, 0.9543307, 0.29817274), (0.018596467, 0.9543307, 0.29817274), (0.028117288, 0.34658638, 0.93759656), (0.028117288, 0.34658638, 0.93759656), (0.028117288, 0.34658638, 0.93759656), (0.028117288, 0.34658638, 0.93759656), (-0.99026996, -0.0886048, 0.107306436), (-0.9903669, -0.08116902, 0.11218284), (-0.99023885, -0.09020137, 0.10625772), (0.041893754, 0.60801655, 0.7928183), (0.041893754, 0.60801655, 0.7928183), (0.041893754, 0.60801655, 0.7928183), (0.041893754, 0.60801655, 0.7928183), (-0.9903688, -0.08093595, 0.1123352), (-0.9903688, -0.08093595, 0.1123352), (-0.9903669, -0.08116902, 0.11218284), (-0.99026996, -0.0886048, 0.107306436), (-0.62123036, -0.079438515, -0.77959114), (-0.62123036, -0.079438515, -0.77959114), (-0.62123036, -0.079438515, -0.77959114), (-0.62123036, -0.079438515, -0.77959114), (-0.9894565, -0.051360063, -0.13541818), (-0.9894565, -0.051360063, -0.13541818), (-0.9894565, -0.051360063, -0.13541818), (-0.99157065, -0.027397927, -0.12663707), (-0.99157065, -0.027397927, -0.12663707), (-0.99157065, -0.027397927, -0.12663707), (-0.99157065, -0.027397927, -0.12663707), (-0.9924337, -0.038068388, -0.116730765), (-0.9924337, -0.038068388, -0.116730765), (-0.9924337, -0.038068388, -0.116730765), (-0.9924337, -0.038068388, -0.116730765), (-0.49223873, -0.12542504, -0.8613765), (-0.49223873, -0.12542504, -0.8613765), (-0.49223873, -0.12542504, -0.8613765), (-0.49223873, -0.12542504, -0.8613765), (-0.937345, -0.17020829, -0.30399585), (-0.937345, -0.17020829, -0.30399585), (-0.937345, -0.17020829, -0.30399585), (-0.91643417, -0.31523097, 0.24653158), (-0.91643417, -0.31523097, 0.24653158), (-0.91643417, -0.31523097, 0.24653158), (-0.91643417, -0.31523097, 0.24653158), (-0.9692937, -0.12512593, 0.2116909), (-0.9692937, -0.12512593, 0.2116909), (-0.9692937, -0.12512593, 0.2116909), (-0.9692937, -0.12512593, 0.2116909), (-0.8959993, -0.2989642, -0.3283378), (-0.8959993, -0.2989642, -0.3283378), (-0.8959993, -0.2989642, -0.3283378), (-0.18280777, -0.73166347, -0.6566961), (-0.18280777, -0.73166347, -0.6566961), (-0.18280777, -0.73166347, -0.6566961), (-0.18280777, -0.73166347, -0.6566961), (-0.16545264, -0.6407811, -0.7496833), (-0.16545264, -0.6407811, -0.7496833), (-0.16545264, -0.6407811, -0.7496833), (-0.16545264, -0.6407811, -0.7496833), (-0.9461288, -0.06973235, -0.3161924), (-0.9461288, -0.06973235, -0.3161924), (-0.9461288, -0.06973235, -0.3161924), (-0.35348794, -0.32043284, -0.8788453), (-0.35348794, -0.32043284, -0.8788453), (-0.35348794, -0.32043284, -0.8788453), (-0.35348794, -0.32043284, -0.8788453), (-0.8825029, -0.32627603, -0.33872196), (-0.8825029, -0.32627603, -0.33872196), (-0.8825029, -0.32627603, -0.33872196), (-0.8825029, -0.32627603, -0.33872196), (-0.98336273, -0.07766228, 0.16421402), (-0.98336273, -0.07766228, 0.16421402), (-0.98336273, -0.07766228, 0.16421402), (-0.9936493, -0.044501174, 0.1033478), (-0.9948876, -0.043798797, 0.09099614), (-0.9946101, -0.03917016, 0.096002564), (-0.9943327, -0.03929134, 0.09878623), (-0.047519322, 0.0980989, -0.9940415), (-0.047519322, 0.0980989, -0.9940415), (-0.047519322, 0.0980989, -0.9940415), (-0.047519322, 0.0980989, -0.9940415), (-0.9939458, -0.0531276, 0.09617332), (-0.9948997, -0.04446364, 0.09054127), (-0.9935684, -0.045359895, 0.10375063), (-0.9938611, -0.053368744, 0.0969123), (0.40585324, 0.91391695, 0.0062308926), (0.40585324, 0.91391695, 0.0062308926), (0.40585324, 0.91391695, 0.0062308926), (0.40585324, 0.91391695, 0.0062308926), (0.9955917, 0.09251426, -0.01543474), (0.9955917, 0.09251426, -0.01543474), (0.9955917, 0.09251426, -0.01543474), (0.9955917, 0.09251426, -0.01543474), (-0.9936493, -0.044501174, 0.1033478), (-0.9943327, -0.03929134, 0.09878623), (-0.9938611, -0.053368744, 0.0969123), (-0.9935684, -0.045359895, 0.10375063), (-0.41133535, -0.91147524, 0.0040205074), (-0.41133535, -0.91147524, 0.0040205074), (-0.41133535, -0.91147524, 0.0040205074), (-0.41133535, -0.91147524, 0.0040205074), (-0.9946101, -0.03917016, 0.096002564), (-0.9948876, -0.043798797, 0.09099614), (-0.9948997, -0.04446364, 0.09054127), (-0.9939458, -0.0531276, 0.09617332), (0.012390533, -0.11240277, 0.99358547), (0.012390533, -0.11240277, 0.99358547), (0.012390533, -0.11240277, 0.99358547), (0.012390533, -0.11240277, 0.99358547), (-0.1837719, 0.1438411, 0.97238755), (-0.1837719, 0.1438411, 0.97238755), (-0.1837719, 0.1438411, 0.97238755), (-0.1837719, 0.1438411, 0.97238755), (-0.9922401, -0.123134986, 0.01724519), (-0.9922401, -0.123134986, 0.01724519), (-0.9922401, -0.123134986, 0.01724519), (-0.9922401, -0.123134986, 0.01724519), (-0.019256579, 0.21901388, -0.97553176), (-0.019256579, 0.21901388, -0.97553176), (-0.019256579, 0.21901388, -0.97553176), (-0.019256579, 0.21901388, -0.97553176), (0.06616098, 0.1276012, -0.9896164), (0.06616098, 0.1276012, -0.9896164), (0.06616098, 0.1276012, -0.9896164), (0.06616098, 0.1276012, -0.9896164), (-0.122289844, 0.5449496, 0.82950294), (-0.122289844, 0.5449496, 0.82950294), (-0.122289844, 0.5449496, 0.82950294), (-0.122289844, 0.5449496, 0.82950294), (0.9996313, 0.02490686, -0.01081464), (0.9996313, 0.02490686, -0.01081464), (0.9996313, 0.02490686, -0.01081464), (-0.99897504, -0.042858507, 0.014562499), (-0.99897504, -0.042858507, 0.014562499), (-0.99897504, -0.042858507, 0.014562499), (-0.15374297, 0.21526614, -0.9643773), (-0.15374297, 0.21526614, -0.9643773), (-0.15374297, 0.21526614, -0.9643773), (-0.15374297, 0.21526614, -0.9643773), (-0.86183244, -0.50719297, 0.00043716285), (-0.86183244, -0.50719297, 0.00043716285), (-0.86183244, -0.50719297, 0.00043716285), (-0.86183244, -0.50719297, 0.00043716285), (-0.0887489, -0.053099122, 0.99463755), (-0.0887489, -0.053099122, 0.99463755), (-0.0887489, -0.053099122, 0.99463755), (-0.0887489, -0.053099122, 0.99463755), (0.8773413, 0.47986025, -0.0025290935), (0.8773413, 0.47986025, -0.0025290935), (0.8773413, 0.47986025, -0.0025290935), (0.8773413, 0.47986025, -0.0025290935), (-0.15000969, -0.5198011, -0.84101367), (-0.15000969, -0.5198011, -0.84101367), (-0.15000969, -0.5198011, -0.84101367), (-0.15000969, -0.5198011, -0.84101367), (-0.18079194, -0.88598615, -0.42701605), (-0.18079194, -0.88598615, -0.42701605), (-0.18079194, -0.88598615, -0.42701605), (-0.18079194, -0.88598615, -0.42701605), (-0.45557037, -0.58111095, 0.67436314), (-0.45557037, -0.58111095, 0.67436314), (-0.45557037, -0.58111095, 0.67436314), (-0.45557037, -0.58111095, 0.67436314), (-0.1354527, -0.9874235, 0.08153194), (-0.1354527, -0.9874235, 0.08153194), (-0.1354527, -0.9874235, 0.08153194), (-0.38335034, -0.2721128, 0.8826081), (-0.38335034, -0.2721128, 0.8826081), (-0.38335034, -0.2721128, 0.8826081), (0.067287534, 0.48840097, 0.8700212), (0.067287534, 0.48840097, 0.8700212), (0.067287534, 0.48840097, 0.8700212), (0.067287534, 0.48840097, 0.8700212), (-0.5724785, -0.2897881, 0.7670014), (-0.5724785, -0.2897881, 0.7670014), (-0.5724785, -0.2897881, 0.7670014), (-0.5724785, -0.2897881, 0.7670014), (0, -0.45441926, -0.89078796), (0, -0.45441926, -0.89078796), (0, -0.45441926, -0.890788), (0, -0.45441926, -0.890788), (-0.033746585, -0.8767744, -0.4797164), (-0.033746585, -0.8767744, -0.4797164), (-0.033746585, -0.8767744, -0.4797164), (-0.033746585, -0.8767744, -0.4797164), (-0.4155322, 0.11076741, -0.90280867), (-0.4155322, 0.11076741, -0.90280867), (-0.4155322, 0.11076741, -0.90280867), (-0.4155322, 0.11076741, -0.90280867), (0, -0.6861796, -0.7274323), (0, -0.6861796, -0.7274323), (0, -0.6861794, -0.72743237), (0, -0.6861794, -0.72743237), (-0.6460027, 0.28790927, -0.7069574), (-0.6460027, 0.28790927, -0.7069574), (-0.6460027, 0.28790927, -0.7069574), (-0.6460027, 0.28790927, -0.7069574), (-0.6096207, -0.027440418, 0.79221827), (-0.6096207, -0.027440418, 0.7922182), (-0.6096207, -0.02744044, 0.79221815), (-0.6096207, -0.02744044, 0.79221815), (-0.6166291, -0.18790399, 0.7645003), (-0.6166291, -0.18790399, 0.7645003), (-0.6166291, -0.18790399, 0.7645003), (-0.6166291, -0.18790399, 0.7645003), (-0.60678446, 0.10014669, 0.7885324), (-0.60678446, 0.10014669, 0.7885324), (-0.60678446, 0.10014669, 0.7885324), (-0.60678446, 0.10014669, 0.7885324), (-0.6096206, -0.02744039, 0.79221827), (-0.6096206, -0.02744039, 0.79221827), (-0.6096207, -0.027440418, 0.7922182), (-0.6096207, -0.027440418, 0.79221827), (-0.6094421, 0.03657648, -0.7919863), (-0.6094421, 0.03657648, -0.7919863), (-0.6094423, 0.0365765, -0.7919863), (-0.60944235, 0.0365765, -0.7919863), (-1, -1.0894621e-9, 0), (-1, 2.6761074e-10, 0), (-1, 2.2600853e-8, 0), (-0.99562603, -0.006641505, 0.09319167), (-0.99562603, -0.006641505, 0.09319167), (-0.9956366, -0.0066335266, 0.09307885), (-0.995786, -0.0065192343, 0.0914753), (-0.99420506, 0.008576748, -0.10715873), (-0.9935677, 0.018025123, -0.111795425), (-0.9939889, 0.008409525, -0.10915712), (-0.9937841, 0.00855132, -0.11099592), (-0.99982184, 0.00065345014, -0.0188652), (-0.9998161, 0.0005828081, -0.019168565), (-0.9998168, 0.0005913865, -0.019131724), (-0.9999864, 0.0052124904, 0.00011523313), (-0.9999864, 0.0052124904, 0.00011523313), (-0.9999864, 0.0052124904, 0.00011523313), (-0.99318707, 0.04973108, -0.10538621), (-0.99318707, 0.04973108, -0.10538621), (-0.99318707, 0.04973108, -0.10538621), (-0.99318707, 0.04973108, -0.10538621), (-0.9884098, 0.0070035984, -0.15164815), (-0.9884098, 0.0070035984, -0.15164815), (-0.9884098, 0.0070035984, -0.15164815), (-1, 0, 0), (-1, -4.1111643e-9, 0), (-1, -1.2478717e-8, 0), (-1, -1.2478717e-8, 0), (-1, -4.1111643e-9, 0), (-1, 2.6761074e-10, 0), (-1, -1.0894621e-9, 0), (-0.99731725, 0.02723712, 0.06794545), (-0.99731725, 0.02723712, 0.06794545), (-0.99731725, 0.02723712, 0.06794545), (-0.99731725, 0.02723712, 0.06794545), (-0.9996365, -0.018337931, 0.019766802), (-0.9996365, -0.018337931, 0.019766802), (-0.9996365, -0.018337931, 0.019766802), (-0.9996365, -0.018337931, 0.019766802), (-0.9999602, -0.008283797, 0.0033367518), (-0.9999602, -0.008283797, 0.0033367518), (-0.9999602, -0.008283797, 0.0033367518), (-0.9999602, -0.008283797, 0.0033367518), (-0.9994729, 0.029693939, -0.013117195), (-0.9994729, 0.029693939, -0.013117195), (-0.9994729, 0.029693939, -0.013117195), (-0.9994729, 0.029693939, -0.013117195), (-0.9995874, 0.012954399, -0.02563641), (-0.9995683, 0.015511484, -0.024950404), (-0.99946123, 0.023642475, -0.02276638), (-0.9916003, 0.08127678, -0.100612946), (-0.9916003, 0.08127678, -0.100612946), (-0.9916003, 0.08127678, -0.100612946), (-0.9554952, -0.109027326, -0.27412048), (-0.9554952, -0.109027326, -0.27412048), (-0.9554952, -0.109027326, -0.27412048), (-0.9554952, -0.109027326, -0.27412048), (-0.9397769, -0.19212957, -0.28267592), (-0.9397769, -0.19212957, -0.28267592), (-0.9397769, -0.19212957, -0.28267592), (-0.489671, -0.10429012, 0.8656478), (-0.489671, -0.10429012, 0.8656478), (-0.489671, -0.10429012, 0.8656478), (0, -0.22585014, 0.974162), (0, -0.22585014, 0.974162), (0, -0.22585014, 0.974162), (0, -0.22585014, 0.974162)] (
                    interpolation = "faceVarying"
                )
                point3f[] points = [(0.26445383, -0.50162745, -0.8149732), (0.26445383, -0.50162745, 0.92812204), (0.26445383, 1.4983726, -0.5494196), (0.26445383, 1.4983726, 0.8357556), (0.35130706, 1.4983726, 0.16625966), (0.35130706, -0.50162745, -0.05132323), (0.26445383, 0.49837255, 0.9627595), (0.26445383, 0.49837255, -0.7687899), (0.35130706, 0.49837255, 0.056574464), (0.19859159, 2.56636, 0.58303815), (0.24240434, 2.56636, 0.27017194), (0.19859159, 2.56636, -0.14531624), (0.10662817, 3.3110647, 0.43954083), (0.13000551, 3.3110647, 0.32236028), (0.10662817, 3.3110647, 0.22353545), (0.028027777, 4.0593586, 0.3427806), (0.042352185, 4.0593586, 0.30195385), (0.028027777, 4.0593586, 0.2722093), (0.06555416, 3.66833, 0.22850506), (0.056120608, 3.66833, 0.39292422), (0.084327966, 3.66833, 0.31252897), (0.050044388, 4.9576154, 0.9559727), (0.041263144, 4.6042175, 0.9559727), (0.028030315, 4.0593586, 0.30161414), (0.025082352, 4.2413297, -0.5070459), (0.026683288, 4.483882, -0.21546897), (0.028030315, 4.2061186, 0.29982603), (0.034498382, 3.884289, -0.17025335), (0.025082352, 4.622917, -0.7017059), (0.049894616, 4.01132, 0.68215984), (0.028030315, 4.0895004, 0.30099243), (0.039465472, 4.6319876, 0.6239513), (0.034583464, 4.3443985, 0.62535125), (0.04073306, 4.031447, 0.53997004), (0.026364125, 4.1753144, -0.15571094), (0.03222201, 3.945879, -0.014594138), (0.31977114, -1.4631945, -0.09976494), (0.23291788, -1.4631945, 0.7096775), (0.1980749, -2.0583844, 0.5291344), (0.31015947, -1.6438668, -0.10147121), (0.3015232, -1.4631945, -0.23309684), (0.24180077, -1.1923444, -0.7570774), (0.22998908, -1.8152056, 0.43815196), (0.20204812, -1.4683318, -0.870015), (0.39406022, -1.4683318, -0.23165652), (0.26292357, -1.1854633, -0.6049696), (0.242816, -1.1988792, -0.8951782), (0.22005521, -2.3502395, 0.5152538), (0.34478816, -2.4476526, -0.094177514), (0.17342754, -2.961916, -0.09354593), (0.12668562, -3.0110145, -0.0037731528), (0.158331, -2.7662847, -0.3128731), (0.19149517, -2.4214277, -0.55865306), (0.14564864, -2.6219077, -0.44516122), (0.2592442, -2.0570095, 0.52841306), (0.4065311, -1.648072, -0.08576444), (0.30532882, -1.8137379, 0.4419162), (0.33832175, -1.1939564, -0.603451), (0.36620525, -0.9212506, 0.08388767), (0.36408177, -0.9222393, 0.46241704), (0.41034222, -1.012672, 0.076575786), (0.4094739, -1.0133702, 0.45322865), (0.31850567, -1.0561206, 0.068297505), (0.32213277, -0.93825877, 0.079702616), (0.2807126, -1.0695481, 0.44471258), (0.28461826, -0.96003044, 0.4577059), (0.5626867, -0.4796996, 0.4003828), (0.5626777, -0.5517956, 0.18881717), (0.4777239, -0.4587679, 0.40957117), (0.47826573, -0.5296992, 0.19612905), (0.57677037, -0.20901614, 0.23089238), (0.48567373, -0.21443015, 0.23746522), (0.45261213, -0.7612734, 0.46283782), (0.45394477, -0.7596395, 0.14000836), (0.5251257, -0.8173046, 0.45364943), (0.5255554, -0.8163984, 0.13269648), (0.061027803, 1.4983726, 0.9922942), (0.061027803, -0.50162745, -0.9715118), (0.061027803, 1.4983726, -0.7059582), (0.061027803, -0.50162745, 1.0846606), (0.061027803, 0.49837255, 1.1192981), (0.061027803, 0.49837255, -0.92532855), (0.045828823, 2.56636, 0.72510576), (0.05204324, 1.868024, -0.80006063), (0.024606502, 3.3110647, 0.50759935), (0.024606498, 3.3110647, 0.16582467), (0.0057882345, 4.2413297, -0.5070459), (0.007961164, 3.884289, -0.17025335), (0.012950907, 3.682405, 0.42394325), (0.009579002, 3.66833, 0.22270057), (0.011548704, 4.9576154, 0.9559727), (0.009522263, 4.6042175, 0.9559727), (0.0057882345, 4.622917, -0.7017059), (0.0061576804, 4.481639, -0.21060461), (0.006468535, 4.2061186, 0.29886952), (0.011514142, 4.0040894, 0.691403), (0.009107416, 4.6251917, 0.6175467), (0.05375027, -1.4631945, 0.8617305), (0.045709584, -2.1774902, 0.5795322), (0.05580017, -1.2311327, -0.90690744), (0.06807532, -1.4683318, -0.9557998), (0.050781965, -2.4010694, 0.57310456), (0.040021736, -2.9770021, -0.11103501), (0.02923514, -3.0184252, 0.06837593), (0.02923514, -3.025878, -0.021884494), (0.03653792, -2.7808533, -0.3333849), (0.033611223, -2.6257026, -0.46055922), (0.033047482, -2.4161808, -0.59239817), (0.059825573, -2.238206, 0.6193882), (0.0710354, -1.2374675, -0.9784992), (0.26445383, -0.09468073, 0.94221765), (0.06404355, 0.549517, 1.3516715), (0.26445383, -0.09468073, -0.79617906), (0.35130706, -0.09468073, -0.007414615), (0.061027803, -0.09468073, -0.95271766), (0.061027803, -0.09468073, 1.0987562), (0.02630325, -0.090345204, -1.1788446), (0.06404355, 0.26101792, 1.3926692), (0.025166351, 0.09912193, -1.199231), (0.025166351, 0.09695417, -1.1011736), (0.023986656, 0.32428065, -1.1468225), (0.06404355, 0.49080136, 1.2701381), (0.06404355, -0.09932351, 1.2584245), (0.06404355, 0.73611027, 1.4579052), (0.06404355, 0.50910777, 1.4666905), (0.04002914, 1.6587937, 1.1740485), (0.04294495, 2.1108074, 1.0122129), (0.04002914, 1.8926942, 1.3445392), (0.04294495, 2.0378847, 1.2413647), (0.04002914, 2.0826836, 1.430382), (0.04294495, 2.1198382, 1.4078071), (0.04930856, 2.338484, -0.40387836), (0.044726126, 2.4290085, -0.5368081), (0.027139287, 2.3009477, -0.86462367), (0.0459429, 2.0774288, -0.85986525), (0.041664314, 2.224976, -0.78284186), (0.044929948, 2.208528, -0.64027274), (-0.26445383, -0.50162745, -0.8149732), (-0.26445383, -0.50162745, 0.92812204), (-0.26445383, 1.4983726, -0.5494196), (-0.26445383, 1.4983726, 0.8357556), (-0.35130706, 1.4983726, 0.16625966), (-0.35130706, -0.50162745, -0.05132323), (-0.26445383, 0.49837255, 0.9627595), (-0.26445383, 0.49837255, -0.7687899), (-0.35130706, 0.49837255, 0.056574464), (-0.19859159, 2.56636, 0.58303815), (-0.24240434, 2.56636, 0.27017194), (-0.19859159, 2.56636, -0.14531624), (-0.10662817, 3.3110647, 0.43954083), (-0.13000551, 3.3110647, 0.32236028), (-0.10662817, 3.3110647, 0.22353545), (-0.028027777, 4.0593586, 0.3427806), (-0.042352185, 4.0593586, 0.30195385), (-0.028027777, 4.0593586, 0.2722093), (-0.06555416, 3.66833, 0.22850506), (-0.056120608, 3.66833, 0.39292422), (-0.084327966, 3.66833, 0.31252897), (-0.050044388, 4.9576154, 0.9559727), (-0.041263144, 4.6042175, 0.9559727), (-0.028030315, 4.0593586, 0.30161414), (-0.025082352, 4.2413297, -0.5070459), (-0.026683288, 4.483882, -0.21546897), (-0.028030315, 4.2061186, 0.29982603), (-0.034498382, 3.884289, -0.17025335), (-0.025082352, 4.622917, -0.7017059), (-0.049894616, 4.01132, 0.68215984), (-0.028030315, 4.0895004, 0.30099243), (-0.039465472, 4.6319876, 0.6239513), (-0.034583464, 4.3443985, 0.62535125), (-0.04073306, 4.031447, 0.53997004), (-0.026364125, 4.1753144, -0.15571094), (-0.03222201, 3.945879, -0.014594138), (-0.31977114, -1.4631945, -0.09976494), (-0.23291788, -1.4631945, 0.7096775), (-0.1980749, -2.0583844, 0.5291344), (-0.31015947, -1.6438668, -0.10147121), (-0.3015232, -1.4631945, -0.23309684), (-0.24180077, -1.1923444, -0.7570774), (-0.22998908, -1.8152056, 0.43815196), (-0.20204812, -1.4683318, -0.870015), (-0.39406022, -1.4683318, -0.23165652), (-0.26292357, -1.1854633, -0.6049696), (-0.242816, -1.1988792, -0.8951782), (-0.22005521, -2.3502395, 0.5152538), (-0.34478816, -2.4476526, -0.094177514), (-0.17342754, -2.961916, -0.09354593), (-0.12668562, -3.0110145, -0.0037731528), (-0.158331, -2.7662847, -0.3128731), (-0.19149517, -2.4214277, -0.55865306), (-0.14564864, -2.6219077, -0.44516122), (-0.2592442, -2.0570095, 0.52841306), (-0.4065311, -1.648072, -0.08576444), (-0.30532882, -1.8137379, 0.4419162), (-0.33832175, -1.1939564, -0.603451), (-0.36620525, -0.9212506, 0.08388767), (-0.36408177, -0.9222393, 0.46241704), (-0.41034222, -1.012672, 0.076575786), (-0.4094739, -1.0133702, 0.45322865), (-0.31850567, -1.0561206, 0.068297505), (-0.32213277, -0.93825877, 0.079702616), (-0.2807126, -1.0695481, 0.44471258), (-0.28461826, -0.96003044, 0.4577059), (-0.5626867, -0.4796996, 0.4003828), (-0.5626777, -0.5517956, 0.18881717), (-0.4777239, -0.4587679, 0.40957117), (-0.47826573, -0.5296992, 0.19612905), (-0.57677037, -0.20901614, 0.23089238), (-0.48567373, -0.21443015, 0.23746522), (-0.45261213, -0.7612734, 0.46283782), (-0.45394477, -0.7596395, 0.14000836), (-0.5251257, -0.8173046, 0.45364943), (-0.5255554, -0.8163984, 0.13269648), (-0.061027803, 1.4983726, 0.9922942), (-0.061027803, -0.50162745, -0.9715118), (-0.061027803, 1.4983726, -0.7059582), (-0.061027803, -0.50162745, 1.0846606), (-0.061027803, 0.49837255, 1.1192981), (-0.061027803, 0.49837255, -0.92532855), (-0.045828823, 2.56636, 0.72510576), (-0.05204324, 1.868024, -0.80006063), (-0.024606502, 3.3110647, 0.50759935), (-0.024606498, 3.3110647, 0.16582467), (-0.0057882345, 4.2413297, -0.5070459), (-0.007961164, 3.884289, -0.17025335), (-0.012950907, 3.682405, 0.42394325), (-0.009579002, 3.66833, 0.22270057), (-0.011548704, 4.9576154, 0.9559727), (-0.009522263, 4.6042175, 0.9559727), (-0.0057882345, 4.622917, -0.7017059), (-0.0061576804, 4.481639, -0.21060461), (-0.006468535, 4.2061186, 0.29886952), (-0.011514142, 4.0040894, 0.691403), (-0.009107416, 4.6251917, 0.6175467), (-0.05375027, -1.4631945, 0.8617305), (-0.045709584, -2.1774902, 0.5795322), (-0.05580017, -1.2311327, -0.90690744), (-0.06807532, -1.4683318, -0.9557998), (-0.050781965, -2.4010694, 0.57310456), (-0.040021736, -2.9770021, -0.11103501), (-0.02923514, -3.0184252, 0.06837593), (-0.02923514, -3.025878, -0.021884494), (-0.03653792, -2.7808533, -0.3333849), (-0.033611223, -2.6257026, -0.46055922), (-0.033047482, -2.4161808, -0.59239817), (-0.059825573, -2.238206, 0.6193882), (-0.0710354, -1.2374675, -0.9784992), (-0.26445383, -0.09468073, 0.94221765), (-0.06404355, 0.549517, 1.3516715), (-0.26445383, -0.09468073, -0.79617906), (-0.35130706, -0.09468073, -0.007414615), (-0.061027803, -0.09468073, -0.95271766), (-0.061027803, -0.09468073, 1.0987562), (-0.02630325, -0.090345204, -1.1788446), (-0.06404355, 0.26101792, 1.3926692), (-0.025166351, 0.09912193, -1.199231), (-0.025166351, 0.09695417, -1.1011736), (-0.023986656, 0.32428065, -1.1468225), (-0.06404355, 0.49080136, 1.2701381), (-0.06404355, -0.09932351, 1.2584245), (-0.06404355, 0.73611027, 1.4579052), (-0.06404355, 0.50910777, 1.4666905), (-0.04002914, 1.6587937, 1.1740485), (-0.04294495, 2.1108074, 1.0122129), (-0.04002914, 1.8926942, 1.3445392), (-0.04294495, 2.0378847, 1.2413647), (-0.04002914, 2.0826836, 1.430382), (-0.04294495, 2.1198382, 1.4078071), (-0.04930856, 2.338484, -0.40387836), (-0.044726126, 2.4290085, -0.5368081), (-0.027139287, 2.3009477, -0.86462367), (-0.0459429, 2.0774288, -0.85986525), (-0.041664314, 2.224976, -0.78284186), (-0.044929948, 2.208528, -0.64027274)]
                matrix4d primvars:skel:geomBindTransform = ( (1, 0, 0, 0), (0, 1, 0, 0), (0, 0, 1, 0), (0, 0, 0, 1) )
                int[] primvars:skel:jointIndices = [0, 1, 0, 0, 1, 0, 0, 2, 3, 0, 2, 3, 0, 2, 3, 0, 1, 0, 0, 2, 0, 0, 2, 0, 0, 1, 2, 0, 2, 3, 0, 3, 0, 0, 2, 3, 0, 3, 0, 0, 3, 0, 0, 3, 0, 0, 4, 0, 0, 4, 0, 0, 4, 0, 0, 4, 0, 0, 4, 0, 0, 4, 0, 0, 4, 0, 0, 4, 0, 0, 4, 0, 0, 4, 0, 0, 4, 0, 0, 4, 0, 0, 4, 0, 0, 4, 0, 0, 4, 0, 0, 4, 0, 0, 4, 0, 0, 4, 0, 0, 4, 0, 0, 4, 0, 0, 4, 0, 0, 1, 6, 0, 1, 6, 0, 1, 6, 0, 1, 6, 0, 1, 6, 0, 1, 6, 0, 1, 6, 0, 1, 6, 0, 1, 6, 0, 1, 6, 0, 1, 6, 0, 6, 0, 0, 6, 0, 0, 6, 0, 0, 6, 0, 0, 6, 0, 0, 1, 6, 0, 6, 0, 0, 1, 6, 0, 1, 6, 0, 1, 6, 0, 1, 6, 0, 1, 7, 0, 1, 7, 0, 1, 7, 0, 1, 7, 0, 1, 6, 0, 1, 0, 0, 1, 6, 0, 1, 6, 0, 7, 0, 0, 7, 0, 0, 7, 0, 0, 7, 0, 0, 7, 0, 0, 7, 0, 0, 7, 0, 0, 1, 7, 0, 7, 0, 0, 1, 7, 0, 2, 3, 0, 1, 0, 0, 2, 3, 0, 1, 0, 0, 2, 0, 0, 2, 0, 0, 2, 3, 0, 2, 3, 0, 3, 0, 0, 3, 0, 0, 4, 0, 0, 4, 0, 0, 4, 0, 0, 4, 0, 0, 4, 0, 0, 4, 0, 0, 4, 0, 0, 4, 0, 0, 4, 0, 0, 4, 0, 0, 4, 0, 0, 1, 6, 0, 1, 6, 0, 1, 6, 0, 1, 6, 0, 6, 0, 0, 6, 0, 0, 6, 0, 0, 6, 0, 0, 6, 0, 0, 6, 0, 0, 1, 6, 0, 1, 6, 0, 1, 6, 0, 1, 2, 0, 2, 0, 0, 1, 0, 0, 1, 2, 0, 0, 0, 0, 1, 2, 0, 0, 0, 0, 2, 0, 0, 0, 0, 0, 0, 0, 0, 0, 0, 0, 2, 0, 0, 1, 2, 0, 2, 0, 0, 2, 0, 0, 2, 3, 0, 2, 3, 0, 2, 3, 0, 2, 3, 0, 2, 3, 0, 2, 3, 0, 2, 3, 0, 2, 3, 0, 2, 3, 0, 2, 3, 0, 2, 3, 0, 2, 3, 0, 1, 0, 0, 1, 0, 0, 2, 3, 0, 2, 3, 0, 2, 3, 0, 1, 0, 0, 2, 0, 0, 2, 0, 0, 1, 2, 0, 2, 3, 0, 3, 0, 0, 2, 3, 0, 3, 0, 0, 3, 0, 0, 3, 0, 0, 4, 0, 0, 4, 0, 0, 4, 0, 0, 4, 0, 0, 4, 0, 0, 4, 0, 0, 4, 0, 0, 4, 0, 0, 4, 0, 0, 4, 0, 0, 4, 0, 0, 4, 0, 0, 4, 0, 0, 4, 0, 0, 4, 0, 0, 4, 0, 0, 4, 0, 0, 4, 0, 0, 4, 0, 0, 4, 0, 0, 4, 0, 0, 1, 6, 0, 1, 6, 0, 1, 6, 0, 1, 6, 0, 1, 6, 0, 1, 6, 0, 1, 6, 0, 1, 6, 0, 1, 6, 0, 1, 6, 0, 1, 6, 0, 6, 0, 0, 6, 0, 0, 6, 0, 0, 6, 0, 0, 6, 0, 0, 1, 6, 0, 6, 0, 0, 1, 6, 0, 1, 6, 0, 1, 6, 0, 1, 6, 0, 1, 9, 0, 1, 9, 0, 1, 9, 0, 1, 9, 0, 1, 6, 0, 1, 6, 0, 1, 6, 0, 1, 6, 0, 9, 0, 0, 9, 0, 0, 9, 0, 0, 9, 0, 0, 9, 0, 0, 9, 0, 0, 9, 0, 0, 1, 9, 0, 9, 0, 0, 1, 9, 0, 2, 3, 0, 1, 0, 0, 2, 3, 0, 1, 0, 0, 2, 0, 0, 2, 0, 0, 2, 3, 0, 2, 3, 0, 3, 0, 0, 3, 0, 0, 4, 0, 0, 4, 0, 0, 4, 0, 0, 4, 0, 0, 4, 0, 0, 4, 0, 0, 4, 0, 0, 4, 0, 0, 4, 0, 0, 4, 0, 0, 4, 0, 0, 1, 6, 0, 1, 6, 0, 1, 6, 0, 1, 6, 0, 6, 0, 0, 6, 0, 0, 6, 0, 0, 6, 0, 0, 6, 0, 0, 6, 0, 0, 1, 6, 0, 1, 6, 0, 1, 6, 0, 1, 2, 0, 2, 0, 0, 1, 0, 0, 1, 2, 0, 0, 0, 0, 1, 2, 0, 0, 0, 0, 2, 0, 0, 0, 0, 0, 0, 0, 0, 0, 0, 0, 2, 0, 0, 1, 2, 0, 2, 0, 0, 2, 0, 0, 2, 3, 0, 2, 3, 0, 2, 3, 0, 2, 3, 0, 2, 3, 0, 2, 3, 0, 2, 3, 0, 2, 3, 0, 2, 3, 0, 2, 3, 0, 2, 3, 0, 2, 3] (
                    elementSize = 3
                    interpolation = "vertex"
                )
                float[] primvars:skel:jointWeights = [0.8891751, 0.11082485, 0, 0.9242829, 0.07571709, 0, 0.52385914, 0.4196706, 0.056470282, 0.52134615, 0.42416134, 0.054492533, 0.5060856, 0.4842024, 0.009712013, 0.5362627, 0.46373734, 0, 0.8095385, 0.1904615, 0, 0.821056, 0.17894396, 0, 0.51519996, 0.026557334, 0.45824268, 0.5026455, 0.01893203, 0.47842246, 0.50575686, 0.49424312, 0, 0.50166905, 0.03730441, 0.46102655, 0.5050213, 0.49497873, 0, 0.50428575, 0.49571422, 0, 0.50364435, 0.49635565, 0, 0.50003487, 0.49996516, 0, 0.5001191, 0.4998809, 0, 0.50009733, 0.49990267, 0, 0.50584847, 0.49415147, 0, 0.50342226, 0.49657768, 0, 0.50482357, 0.49517637, 0, 0.50175965, 0.49824035, 0, 0.501213, 0.498787, 0, 0.5000469, 0.49995312, 0, 0.5003593, 0.4996407, 0, 0.5004754, 0.4995246, 0, 0.50002325, 0.49997675, 0, 0.5008118, 0.49918815, 0, 0.50035197, 0.499648, 0, 0.5003024, 0.49969766, 0, 0.5, 0.5, 0, 0.50222313, 0.49777687, 0, 0.5010258, 0.4989742, 0, 0.5004151, 0.4995849, 0, 0.50060207, 0.49939796, 0, 0.5010931, 0.49890694, 0, 0.526219, 0.37952664, 0.094254345, 0.745988, 0.060495414, 0.19351657, 0.52797824, 0.024782592, 0.44723916, 0.51419514, 0.15965107, 0.32615378, 0.52114403, 0.35584214, 0.12301384, 0.55352235, 0.35223582, 0.09424181, 0.5506841, 0.047712352, 0.40160355, 0.5229351, 0.35408548, 0.12297946, 0.5185993, 0.26621056, 0.21519013, 0.5480932, 0.36742043, 0.084486365, 0.54554576, 0.33808497, 0.11636925, 0.5146092, 0.48539078, 0, 0.50427693, 0.49572307, 0, 0.50045174, 0.4995483, 0, 0.50020236, 0.49979758, 0, 0.50191313, 0.49808687, 0, 0.5020951, 0.024258219, 0.47364667, 0.5055316, 0.49446833, 0, 0.5252767, 0.025099754, 0.44962358, 0.5089227, 0.092636645, 0.39844072, 0.5354443, 0.04109019, 0.42346546, 0.5434701, 0.3532958, 0.10323417, 0.5083277, 0.13076954, 0.36090273, 0.5130864, 0.024278592, 0.4626351, 0.50792724, 0.12584679, 0.36622596, 0.5121722, 0.022622779, 0.465205, 0.6240321, 0.35396254, 0.022005362, 0.69659, 0.30341, 0, 0.8434075, 0.109020054, 0.04757241, 0.895882, 0.10125216, 0.0028659564, 0.50019383, 0.49980617, 0, 0.50033283, 0.49966717, 0, 0.500092, 0.49990797, 0, 0.50037885, 0.49962112, 0, 0.5000172, 0.49998277, 0, 0.5000199, 0.49998012, 0, 0.50376725, 0.49623278, 0, 0.5057022, 0.007290495, 0.4870073, 0.50417817, 0.4958218, 0, 0.50652474, 0.0038195902, 0.48965567, 0.523322, 0.4076163, 0.06906169, 0.9512444, 0.048755556, 0, 0.5279417, 0.3978186, 0.07423975, 0.9367787, 0.06322129, 0, 0.8462865, 0.1537135, 0, 0.8573191, 0.14268087, 0, 0.50152785, 0.03223802, 0.46623412, 0.5162222, 0.24667673, 0.2371011, 0.5054333, 0.49456665, 0, 0.505116, 0.494884, 0, 0.50035954, 0.49964046, 0, 0.5008194, 0.49918061, 0, 0.5022256, 0.49777436, 0, 0.506019, 0.493981, 0, 0.50174725, 0.49825278, 0, 0.5012045, 0.49879554, 0, 0.5003518, 0.49964824, 0, 0.50047296, 0.49952698, 0, 0.50001514, 0.4999849, 0, 0.5003076, 0.4996924, 0, 0.50244486, 0.49755514, 0, 0.75180906, 0.068005025, 0.18018593, 0.5194909, 0.010590195, 0.46991888, 0.55387205, 0.3401571, 0.10597087, 0.52329296, 0.3623961, 0.11431097, 0.51304966, 0.4869503, 0, 0.50018865, 0.49981138, 0, 0.500341, 0.499659, 0, 0.5001426, 0.4998575, 0, 0.5018136, 0.4981864, 0, 0.50560766, 0.49439234, 0, 0.50205505, 0.028635899, 0.46930903, 0.5185366, 0.0038837958, 0.4775796, 0.5438907, 0.3477855, 0.108323716, 0.89273447, 0.069008455, 0.03825713, 0.8756691, 0.12433085, 0, 0.9300149, 0.06998512, 0, 0.5193725, 0.4419314, 0.038696088, 1, 0, 0, 0.9106414, 0.043940406, 0.045418233, 1, 0, 0, 0.9009716, 0.099028334, 0, 1, 0, 0, 1, 0, 0, 1, 0, 0, 0.868465, 0.13153492, 0, 0.91961586, 0.03222287, 0.04816119, 0.87856585, 0.12143421, 0, 0.8824117, 0.11758833, 0, 0.51732254, 0.31442606, 0.1682514, 0.5108048, 0.20798284, 0.28121242, 0.5135214, 0.26285827, 0.22362036, 0.51258886, 0.25285056, 0.23456064, 0.5129877, 0.25730446, 0.22970787, 0.5129028, 0.25640154, 0.23069566, 0.50449854, 0.09324984, 0.4022516, 0.50577337, 0.12044501, 0.37378165, 0.5105195, 0.18064067, 0.3088398, 0.5120759, 0.19629627, 0.2916278, 0.5104801, 0.17998505, 0.30953485, 0.50897413, 0.15610649, 0.3349194, 0.8932292, 0.10677086, 0, 0.90959114, 0.09040888, 0, 0.5237734, 0.4201957, 0.056030937, 0.5213542, 0.42472777, 0.053918038, 0.50649416, 0.4859619, 0.0075438926, 0.5349836, 0.46501645, 0, 0.8097105, 0.19028951, 0, 0.820922, 0.179078, 0, 0.5151215, 0.026368013, 0.45851046, 0.5027298, 0.018469872, 0.47880045, 0.50517714, 0.49482283, 0, 0.5016273, 0.03720363, 0.4611691, 0.50450903, 0.49549094, 0, 0.5035791, 0.49642095, 0, 0.50328577, 0.4967142, 0, 0.5000116, 0.49998835, 0, 0.5000934, 0.49990657, 0, 0.5001116, 0.49988842, 0, 0.50551933, 0.49448064, 0, 0.50276136, 0.4972386, 0, 0.5038324, 0.49616763, 0, 0.501762, 0.498238, 0, 0.50121486, 0.49878514, 0, 0.5, 0.5, 0, 0.50035983, 0.49964014, 0, 0.50047517, 0.49952483, 0, 0.5000161, 0.49998388, 0, 0.5008086, 0.4991914, 0, 0.500352, 0.499648, 0, 0.50031275, 0.49968722, 0, 0.5, 0.5, 0, 0.50222236, 0.4977776, 0, 0.5010255, 0.49897453, 0, 0.50039685, 0.49960315, 0, 0.5005939, 0.49940607, 0, 0.5010597, 0.4989403, 0, 0.5240291, 0.38023007, 0.09574087, 0.7132115, 0.09629465, 0.19049384, 0.5255888, 0.028884953, 0.44552624, 0.5132347, 0.16191627, 0.3248491, 0.52008593, 0.355521, 0.12439308, 0.5534992, 0.34698787, 0.09951292, 0.5458955, 0.055167537, 0.3989369, 0.5228461, 0.35292023, 0.12423363, 0.5178688, 0.26645795, 0.21567328, 0.54783356, 0.36477727, 0.08738911, 0.5455538, 0.3324889, 0.12195728, 0.5146104, 0.48538953, 0, 0.50439054, 0.49560943, 0, 0.50047225, 0.4995277, 0, 0.5002148, 0.4997852, 0, 0.50194234, 0.4980577, 0, 0.5019925, 0.024602456, 0.47340506, 0.50556993, 0.49443007, 0, 0.52309686, 0.028896755, 0.44800642, 0.5084656, 0.094494216, 0.3970402, 0.5323103, 0.0463165, 0.4213732, 0.5432081, 0.35073468, 0.10605722, 0.5101156, 0.14979027, 0.3400941, 0.51694375, 0.051203713, 0.43185252, 0.5097793, 0.14699124, 0.34322947, 0.5153059, 0.056185756, 0.42850837, 0.6073073, 0.36707523, 0.02561746, 0.6730132, 0.3236861, 0.0033006836, 0.7188176, 0.23290811, 0.048274245, 0.80347514, 0.17997006, 0.016554859, 0.5003339, 0.4996661, 0, 0.50031686, 0.49968314, 0, 0.5002541, 0.49974594, 0, 0.50055575, 0.49944422, 0, 0.5000545, 0.49994552, 0, 0.5000662, 0.4999338, 0, 0.50632036, 0.49367964, 0, 0.5051096, 0.010359606, 0.4845308, 0.5069765, 0.4930235, 0, 0.5059157, 0.0069260485, 0.48715827, 0.52335614, 0.40850994, 0.06813394, 0.9511411, 0.048858933, 0, 0.5278278, 0.39834863, 0.07382357, 0.9342763, 0.065723754, 0, 0.84703726, 0.15296277, 0, 0.85714024, 0.14285979, 0, 0.5015196, 0.032887172, 0.46559325, 0.5162192, 0.24760547, 0.23617533, 0.5054315, 0.49456856, 0, 0.5051256, 0.49487445, 0, 0.50035965, 0.49964032, 0, 0.50081897, 0.499181, 0, 0.50214916, 0.4978508, 0, 0.50605166, 0.49394837, 0, 0.5017493, 0.49825072, 0, 0.5012049, 0.49879512, 0, 0.5003518, 0.49964824, 0, 0.5004729, 0.49952704, 0, 0.5000141, 0.4999859, 0, 0.50030977, 0.4996902, 0, 0.5024417, 0.49755833, 0, 0.739608, 0.07629605, 0.184096, 0.5191463, 0.011225527, 0.46962816, 0.55408853, 0.32597527, 0.11993622, 0.52327806, 0.36174747, 0.114974506, 0.51308006, 0.48691994, 0, 0.50019425, 0.49980575, 0, 0.500353, 0.499647, 0, 0.5001476, 0.49985245, 0, 0.5018218, 0.4981782, 0, 0.5056212, 0.49437875, 0, 0.50206435, 0.028823167, 0.46911252, 0.51821476, 0.004491425, 0.4772938, 0.54382765, 0.3422576, 0.113914765, 0.8900607, 0.07164451, 0.038294744, 0.8756917, 0.12430835, 0, 0.9311509, 0.06884915, 0, 0.51960164, 0.44084015, 0.039558206, 1, 0, 0, 0.90889406, 0.045855403, 0.045250457, 1, 0, 0, 0.9010022, 0.09899774, 0, 1, 0, 0, 1, 0, 0, 1, 0, 0, 0.86848366, 0.13151635, 0, 0.9189229, 0.03297243, 0.04810466, 0.8785739, 0.12142604, 0, 0.88247675, 0.11752327, 0, 0.5173307, 0.31504956, 0.16761976, 0.5108522, 0.21872005, 0.27042776, 0.5135261, 0.26303598, 0.22343796, 0.51262057, 0.25378147, 0.23359792, 0.5129902, 0.25738227, 0.22962752, 0.5129069, 0.25652334, 0.2305697, 0.5045125, 0.09371074, 0.4017768, 0.50581944, 0.11816762, 0.37601295, 0.5105219, 0.18076207, 0.30871606, 0.5120802, 0.19682266, 0.29109713, 0.5104951, 0.18074363, 0.30876124, 0.5090039, 0.16135639, 0.3296397] (
                    elementSize = 3
                    interpolation = "vertex"
                )
                rel skel:skeleton = </root/Armature/Armature>
                uniform token subdivisionScheme = "none"
                uniform token subsetFamily:materialBind:familyType = "nonOverlapping"
                custom string userProperties:blender:data_name = "Cube"

                def GeomSubset "Bottom" (
                    prepend apiSchemas = ["MaterialBindingAPI"]
                )
                {
                    uniform token elementType = "face"
                    uniform token familyName = "materialBind"
                    int[] indices = [0, 1, 2, 5, 9, 10, 11, 12, 15, 19, 26, 47, 48, 49, 50, 51, 52, 54, 56, 57, 58, 59, 60, 61, 62, 63, 64, 65, 66, 67, 68, 69, 70, 71, 72, 73, 74, 75, 76, 97, 98, 99, 100, 101, 102, 103, 104, 105, 106, 107, 110, 119, 120, 123, 130, 132, 135, 172, 173, 174, 175, 176, 177, 182, 183, 184, 185, 188, 192, 197, 216, 217, 218, 219, 220, 222, 224, 225, 226, 227, 228, 229, 230, 231, 232, 233, 234, 235, 236, 237, 238, 259, 260, 261, 262, 263, 264, 268, 270, 275, 278, 291, 292, 293]
                    rel material:binding = </root/_materials/Bottom>
                }

                def GeomSubset "Top" (
                    prepend apiSchemas = ["MaterialBindingAPI"]
                )
                {
                    uniform token elementType = "face"
                    uniform token familyName = "materialBind"
                    int[] indices = [3, 4, 8, 14, 17, 18, 20, 21, 23, 24, 30, 53, 55, 77, 79, 82, 84, 108, 109, 126, 127, 128, 131, 134, 139, 165, 178, 179, 181, 187, 190, 191, 193, 194, 195, 196, 221, 223, 239, 241, 244, 246, 265, 271, 272, 273, 274, 277, 294]
                    rel material:binding = </root/_materials/Top>
                }

                def GeomSubset "Fins" (
                    prepend apiSchemas = ["MaterialBindingAPI"]
                )
                {
                    uniform token elementType = "face"
                    uniform token familyName = "materialBind"
                    int[] indices = [6, 7, 13, 16, 22, 25, 27, 28, 29, 31, 32, 33, 34, 35, 36, 37, 38, 39, 40, 41, 42, 43, 44, 45, 46, 78, 80, 81, 83, 85, 86, 87, 88, 89, 90, 91, 92, 93, 94, 95, 96, 111, 112, 113, 114, 115, 116, 117, 118, 121, 122, 124, 125, 129, 133, 136, 137, 138, 140, 141, 142, 143, 144, 145, 146, 147, 148, 149, 150, 151, 152, 153, 154, 155, 156, 157, 158, 159, 160, 161, 162, 163, 164, 166, 167, 168, 169, 170, 171, 180, 186, 189, 198, 199, 200, 201, 202, 203, 204, 205, 206, 207, 208, 209, 210, 211, 212, 213, 214, 215, 240, 242, 243, 245, 247, 248, 249, 250, 251, 252, 253, 254, 255, 256, 257, 258, 266, 267, 269, 276, 279, 280, 281, 282, 283, 284, 285, 286, 287, 288, 289, 290]
                    rel material:binding = </root/_materials/Fins>
                }
            }
        }
    }

    def Scope "_materials"
    {
        def Material "Bottom"
        {
            token outputs:surface.connect = </root/_materials/Bottom/Principled_BSDF.outputs:surface>
            custom string userProperties:blender:data_name = "Bottom"

            def Shader "Principled_BSDF"
            {
                uniform token info:id = "UsdPreviewSurface"
                float inputs:clearcoat = 0
                float inputs:clearcoatRoughness = 0.03
                color3f inputs:diffuseColor = (0.6845994, 0.8000139, 0.7278514)
                float inputs:ior = 1.5
                float inputs:metallic = 0
                float inputs:opacity = 1
                float inputs:roughness = 0.6900348
                float inputs:specular = 0.5
                token outputs:surface
            }
        }

        def Material "Top"
        {
            token outputs:surface.connect = </root/_materials/Top/Principled_BSDF.outputs:surface>
            custom string userProperties:blender:data_name = "Top"

            def Shader "Principled_BSDF"
            {
                uniform token info:id = "UsdPreviewSurface"
                float inputs:clearcoat = 0
                float inputs:clearcoatRoughness = 0.03
                color3f inputs:diffuseColor = (0.80001724, 0.35866377, 0.24072172)
                float inputs:ior = 1.5
                float inputs:metallic = 0
                float inputs:opacity = 1
                float inputs:roughness = 0.6900348
                float inputs:specular = 0.5
                token outputs:surface
            }
        }

        def Material "Fins"
        {
            token outputs:surface.connect = </root/_materials/Fins/Principled_BSDF.outputs:surface>
            custom string userProperties:blender:data_name = "Fins"

            def Shader "Principled_BSDF"
            {
                uniform token info:id = "UsdPreviewSurface"
                float inputs:clearcoat = 0
                float inputs:clearcoatRoughness = 0.03
                color3f inputs:diffuseColor = (0.80000234, 0.6559877, 0.40170646)
                float inputs:ior = 1.5
                float inputs:metallic = 0
                float inputs:opacity = 1
                float inputs:roughness = 0.6900348
                float inputs:specular = 0.5
                token outputs:surface
            }
        }
    }
}

