#usda 1.0
(
    defaultPrim = "root"
    doc = "Blender v5.1.2"
    metersPerUnit = 1
    upAxis = "Y"
)

def Xform "root" (
    customData = {
        dictionary Blender = {
            bool generated = 1
        }
    }
)
{
    float3 xformOp:rotateXYZ = (-90, -0, 0)
    uniform token[] xformOpOrder = ["xformOp:rotateXYZ"]

    def Xform "TrafficBarrier_1"
    {
        custom string userProperties:blender:object_name = "TrafficBarrier_1"

        def Mesh "Plane_014" (
            active = true
            prepend apiSchemas = ["MaterialBindingAPI"]
        )
        {
            uniform bool doubleSided = 1
            float3[] extent = [(-0.77766496, -0.44031098, 0.0064981254), (0.77766496, 0.44031098, 1.1184815)]
            int[] faceVertexCounts = [4, 4, 4, 4, 4, 4, 4, 4, 4, 4, 4, 4, 4, 4, 4, 4, 4, 4, 4, 4, 4, 4, 4, 4, 4, 4, 4, 4, 4, 4, 4, 4, 4, 4, 4, 4, 4, 4, 4, 4, 4, 4, 4, 4, 4, 4, 4, 4, 4, 4, 4, 4, 4, 4, 4, 4, 4, 4, 4, 4, 4, 4, 4, 4, 4, 4, 4, 4, 4, 4, 4, 4, 4, 4, 4, 4, 4, 4, 4, 4, 4, 4, 4, 4, 4, 4, 4, 4, 4, 4, 4, 4, 4, 4, 4, 4, 4, 4, 4, 4, 4, 4, 4, 4, 4, 4, 4, 4, 4, 4, 4, 4, 4, 4, 4, 4, 4, 4, 4, 4, 4, 4, 4, 4, 4, 4, 4, 4, 4, 4, 4, 4, 4, 4, 4, 4, 4, 4, 4, 4, 4, 4, 4, 4, 4, 4, 4, 4, 4, 4, 4, 4, 4, 4, 4, 4, 4, 4, 4, 4, 4, 4, 4, 4, 4, 4, 4, 4, 4, 4, 4, 4, 4, 4, 4, 4, 4, 4, 4, 4, 4, 4, 4, 4, 4, 4, 4, 4, 4, 4, 4, 4, 4, 4, 4, 4, 4, 4, 4, 4, 4, 4, 4, 4, 4, 4, 4, 4, 4, 4, 4, 4, 4, 4, 4, 4, 4, 4, 4, 4, 4, 4, 4, 4, 4, 4, 4, 4, 4, 4, 4, 4, 4, 4, 4, 4, 4, 4, 4, 4, 4, 4, 4, 4, 4, 4, 4, 4, 4, 4, 4, 4, 4, 4, 4, 4, 4, 4, 4, 4, 4, 4, 4, 4, 4, 4, 4, 4, 4, 4, 4, 4, 4, 4, 4, 4, 4, 4, 4, 4, 4, 4, 4, 4, 4, 4, 4, 4, 4, 4, 4, 4, 4, 4, 4, 4, 4, 4, 4, 4, 4, 4, 4, 4, 4, 4, 4, 4, 4, 4, 4, 4, 4, 4, 4, 4, 4, 4, 4, 4, 4, 4, 4, 4, 4, 4, 4, 4, 4, 4, 4, 4, 4, 4, 4, 4, 4, 4, 4, 4, 4, 4, 4, 4, 4, 4, 4, 4, 4, 4, 4, 4, 4, 4, 4, 4, 4, 4, 4, 4, 4, 4, 4, 4, 4, 4]
            int[] faceVertexIndices = [18, 19, 62, 61, 13, 3, 4, 20, 9, 11, 4, 3, 55, 7, 73, 77, 31, 30, 89, 69, 44, 45, 102, 101, 1, 66, 73, 7, 44, 11, 9, 32, 30, 29, 88, 89, 11, 44, 101, 78, 12, 10, 59, 58, 6, 43, 75, 71, 29, 28, 87, 88, 43, 42, 100, 75, 5, 2, 57, 56, 2, 14, 74, 57, 28, 27, 86, 87, 42, 41, 99, 100, 7, 55, 43, 6, 55, 54, 42, 43, 54, 53, 41, 42, 53, 52, 40, 41, 52, 51, 39, 40, 51, 50, 38, 39, 50, 49, 37, 38, 49, 48, 36, 37, 48, 47, 35, 36, 47, 46, 34, 35, 46, 45, 33, 34, 45, 44, 32, 33, 27, 26, 85, 86, 41, 40, 98, 99, 14, 15, 72, 74, 26, 25, 84, 85, 40, 39, 97, 98, 0, 6, 71, 60, 25, 24, 83, 84, 39, 38, 96, 97, 13, 12, 58, 65, 24, 23, 82, 83, 38, 37, 95, 96, 15, 16, 68, 72, 23, 22, 81, 82, 37, 36, 94, 95, 4, 11, 78, 70, 22, 21, 80, 81, 36, 35, 93, 94, 10, 8, 63, 59, 21, 20, 79, 80, 35, 34, 92, 93, 20, 4, 70, 79, 34, 33, 91, 92, 33, 32, 90, 91, 9, 3, 64, 76, 0, 19, 31, 1, 19, 18, 30, 31, 18, 17, 29, 30, 17, 16, 28, 29, 16, 15, 27, 28, 15, 14, 26, 27, 14, 2, 25, 26, 2, 5, 24, 25, 5, 8, 23, 24, 8, 10, 22, 23, 10, 12, 21, 22, 12, 13, 20, 21, 32, 9, 76, 90, 1, 31, 69, 66, 71, 75, 62, 60, 54, 55, 77, 111, 53, 54, 111, 110, 19, 0, 60, 62, 52, 53, 110, 109, 16, 17, 67, 68, 51, 52, 109, 108, 50, 51, 108, 107, 49, 50, 107, 106, 17, 18, 61, 67, 80, 79, 101, 102, 91, 90, 65, 58, 97, 96, 74, 72, 98, 97, 72, 68, 99, 98, 68, 67, 66, 69, 77, 73, 100, 99, 67, 61, 75, 100, 61, 62, 70, 78, 101, 79, 96, 95, 57, 74, 95, 94, 56, 57, 94, 93, 63, 56, 93, 92, 59, 63, 92, 91, 58, 59, 64, 65, 90, 76, 69, 89, 111, 77, 89, 88, 110, 111, 88, 87, 109, 110, 87, 86, 108, 109, 86, 85, 107, 108, 85, 84, 106, 107, 84, 83, 105, 106, 83, 82, 104, 105, 82, 81, 103, 104, 81, 80, 102, 103, 45, 46, 103, 102, 8, 5, 56, 63, 46, 47, 104, 103, 3, 13, 65, 64, 47, 48, 105, 104, 48, 49, 106, 105, 6, 0, 1, 7, 130, 131, 174, 173, 125, 115, 116, 132, 121, 123, 116, 115, 167, 119, 185, 189, 143, 142, 201, 181, 156, 157, 214, 213, 113, 178, 185, 119, 156, 123, 121, 144, 142, 141, 200, 201, 123, 156, 213, 190, 124, 122, 171, 170, 118, 155, 187, 183, 141, 140, 199, 200, 155, 154, 212, 187, 117, 114, 169, 168, 114, 126, 186, 169, 140, 139, 198, 199, 154, 153, 211, 212, 119, 167, 155, 118, 167, 166, 154, 155, 166, 165, 153, 154, 165, 164, 152, 153, 164, 163, 151, 152, 163, 162, 150, 151, 162, 161, 149, 150, 161, 160, 148, 149, 160, 159, 147, 148, 159, 158, 146, 147, 158, 157, 145, 146, 157, 156, 144, 145, 139, 138, 197, 198, 153, 152, 210, 211, 126, 127, 184, 186, 138, 137, 196, 197, 152, 151, 209, 210, 112, 118, 183, 172, 137, 136, 195, 196, 151, 150, 208, 209, 125, 124, 170, 177, 136, 135, 194, 195, 150, 149, 207, 208, 127, 128, 180, 184, 135, 134, 193, 194, 149, 148, 206, 207, 116, 123, 190, 182, 134, 133, 192, 193, 148, 147, 205, 206, 122, 120, 175, 171, 133, 132, 191, 192, 147, 146, 204, 205, 132, 116, 182, 191, 146, 145, 203, 204, 145, 144, 202, 203, 121, 115, 176, 188, 112, 131, 143, 113, 131, 130, 142, 143, 130, 129, 141, 142, 129, 128, 140, 141, 128, 127, 139, 140, 127, 126, 138, 139, 126, 114, 137, 138, 114, 117, 136, 137, 117, 120, 135, 136, 120, 122, 134, 135, 122, 124, 133, 134, 124, 125, 132, 133, 144, 121, 188, 202, 113, 143, 181, 178, 183, 187, 174, 172, 166, 167, 189, 223, 165, 166, 223, 222, 131, 112, 172, 174, 164, 165, 222, 221, 128, 129, 179, 180, 163, 164, 221, 220, 162, 163, 220, 219, 161, 162, 219, 218, 129, 130, 173, 179, 192, 191, 213, 214, 203, 202, 177, 170, 209, 208, 186, 184, 210, 209, 184, 180, 211, 210, 180, 179, 178, 181, 189, 185, 212, 211, 179, 173, 187, 212, 173, 174, 182, 190, 213, 191, 208, 207, 169, 186, 207, 206, 168, 169, 206, 205, 175, 168, 205, 204, 171, 175, 204, 203, 170, 171, 176, 177, 202, 188, 181, 201, 223, 189, 201, 200, 222, 223, 200, 199, 221, 222, 199, 198, 220, 221, 198, 197, 219, 220, 197, 196, 218, 219, 196, 195, 217, 218, 195, 194, 216, 217, 194, 193, 215, 216, 193, 192, 214, 215, 157, 158, 215, 214, 120, 117, 168, 175, 158, 159, 216, 215, 115, 125, 177, 176, 159, 160, 217, 216, 160, 161, 218, 217, 118, 112, 113, 119, 242, 243, 286, 285, 237, 227, 228, 244, 233, 235, 228, 227, 279, 231, 297, 301, 255, 254, 313, 293, 268, 269, 326, 325, 225, 290, 297, 231, 268, 235, 233, 256, 254, 253, 312, 313, 235, 268, 325, 302, 236, 234, 283, 282, 230, 267, 299, 295, 253, 252, 311, 312, 267, 266, 324, 299, 229, 226, 281, 280, 226, 238, 298, 281, 252, 251, 310, 311, 266, 265, 323, 324, 231, 279, 267, 230, 279, 278, 266, 267, 278, 277, 265, 266, 277, 276, 264, 265, 276, 275, 263, 264, 275, 274, 262, 263, 274, 273, 261, 262, 273, 272, 260, 261, 272, 271, 259, 260, 271, 270, 258, 259, 270, 269, 257, 258, 269, 268, 256, 257, 251, 250, 309, 310, 265, 264, 322, 323, 238, 239, 296, 298, 250, 249, 308, 309, 264, 263, 321, 322, 224, 230, 295, 284, 249, 248, 307, 308, 263, 262, 320, 321, 237, 236, 282, 289, 248, 247, 306, 307, 262, 261, 319, 320, 239, 240, 292, 296, 247, 246, 305, 306, 261, 260, 318, 319, 228, 235, 302, 294, 246, 245, 304, 305, 260, 259, 317, 318, 234, 232, 287, 283, 245, 244, 303, 304, 259, 258, 316, 317, 244, 228, 294, 303, 258, 257, 315, 316, 257, 256, 314, 315, 233, 227, 288, 300, 224, 243, 255, 225, 243, 242, 254, 255, 242, 241, 253, 254, 241, 240, 252, 253, 240, 239, 251, 252, 239, 238, 250, 251, 238, 226, 249, 250, 226, 229, 248, 249, 229, 232, 247, 248, 232, 234, 246, 247, 234, 236, 245, 246, 236, 237, 244, 245, 256, 233, 300, 314, 225, 255, 293, 290, 295, 299, 286, 284, 278, 279, 301, 335, 277, 278, 335, 334, 243, 224, 284, 286, 276, 277, 334, 333, 240, 241, 291, 292, 275, 276, 333, 332, 274, 275, 332, 331, 273, 274, 331, 330, 241, 242, 285, 291, 304, 303, 325, 326, 315, 314, 289, 282, 321, 320, 298, 296, 322, 321, 296, 292, 323, 322, 292, 291, 290, 293, 301, 297, 324, 323, 291, 285, 299, 324, 285, 286, 294, 302, 325, 303, 320, 319, 281, 298, 319, 318, 280, 281, 318, 317, 287, 280, 317, 316, 283, 287, 316, 315, 282, 283, 288, 289, 314, 300, 293, 313, 335, 301, 313, 312, 334, 335, 312, 311, 333, 334, 311, 310, 332, 333, 310, 309, 331, 332, 309, 308, 330, 331, 308, 307, 329, 330, 307, 306, 328, 329, 306, 305, 327, 328, 305, 304, 326, 327, 269, 270, 327, 326, 232, 229, 280, 287, 270, 271, 328, 327, 227, 237, 289, 288, 271, 272, 329, 328, 272, 273, 330, 329, 230, 224, 225, 231, 339, 338, 337, 336, 340, 342, 346, 344, 338, 342, 340, 337, 339, 343, 342, 338, 336, 341, 343, 339, 337, 340, 341, 336, 347, 345, 344, 346, 346, 342, 350, 354, 343, 341, 345, 347, 343, 347, 355, 351, 350, 351, 355, 354, 349, 348, 352, 353, 342, 343, 351, 350, 344, 345, 353, 352, 345, 341, 349, 353, 340, 344, 352, 348, 341, 340, 348, 349, 347, 346, 354, 355, 359, 356, 357, 358, 360, 364, 366, 362, 358, 357, 360, 362, 359, 358, 362, 363, 356, 359, 363, 361, 357, 356, 361, 360, 367, 366, 364, 365, 366, 374, 370, 362, 363, 367, 365, 361, 363, 371, 375, 367, 370, 374, 375, 371, 369, 373, 372, 368, 362, 370, 371, 363, 364, 372, 373, 365, 365, 373, 369, 361, 360, 368, 372, 364, 361, 369, 368, 360, 367, 375, 374, 366]
            rel material:binding = </root/_materials/Atlas>
            normal3f[] normals = [(0, -1, 1.7636204e-7), (0, -1, 1.283254e-7), (0, -1, 9.428736e-8), (0, -1, 1.8857467e-7), (0, -1, 1.9007285e-7), (0, -1, 2.0422799e-7), (0, -1, 1.6977243e-7), (0, -1, 1.7328989e-7), (-1, 0, 0), (-1, 0, 0), (-1, 0, 0), (-1, 0, 0), (0, 1, -1.2771876e-7), (0, 1, -8.9436725e-8), (0, 0.99999994, 0), (0, 1, -9.428829e-8), (0, -1, 1.2881863e-7), (0, -1, 1.7636297e-7), (0, -1, 1.8857658e-7), (0, -1, 9.428829e-8), (0, 1, -1.7498319e-7), (0, 1, -1.7844808e-7), (0, 1, -1.8857659e-7), (0, 1, -1.808201e-7), (1, 0, 0), (1, 0, 0), (1, 0, 0), (1, 0, 0), (0, 1, -1.7498319e-7), (0, 1, -1.6977243e-7), (0, 1, -2.0422799e-7), (0, 1, -1.9385119e-7), (0, -1, 1.7636297e-7), (0, -1, 1.8014137e-7), (0, -1, 1.8857662e-7), (0, -1, 1.8857658e-7), (0, 1, -1.6977243e-7), (0, 1, -1.7498319e-7), (0, 1, -1.808201e-7), (0, 1, -1.7306355e-7), (0, -1, 1.2921838e-7), (0, -1, 1.3299677e-7), (0, -1, 9.428737e-8), (0, -1, 9.428732e-8), (0, 1, -1.962494e-7), (0, 1, -1.8601514e-7), (0, 1, -2.0110005e-7), (0, 1, -2.1362537e-7), (0, -1, 1.8014137e-7), (0, -1, 1.7805631e-7), (0, -1, 1.8857664e-7), (0, -1, 1.8857662e-7), (0, 1, -1.8601514e-7), (0, 1, -1.7427693e-7), (0, 1, -1.8857467e-7), (0, 1, -2.0110005e-7), (0, -1, 1.7805537e-7), (0, -1, 1.3299673e-7), (0, -1, 9.4287365e-8), (0, -1, 1.8857473e-7), (0, -1, 1.3299673e-7), (0, -1, 1.3091166e-7), (0, -1, 9.428735e-8), (0, -1, 9.4287365e-8), (0, -1, 1.7805631e-7), (0, -1, 1.7636303e-7), (0, -1, 1.8857665e-7), (0, -1, 1.8857664e-7), (0, 1, -1.7427693e-7), (0, 1, -1.7844711e-7), (0, 1, -1.885747e-7), (0, 1, -1.8857467e-7), (0, 1, -8.9436725e-8), (0, 1, -1.2771876e-7), (0, 1, -1.8601514e-7), (0, 1, -1.962494e-7), (0, 1, -1.2771876e-7), (0, 1, -1.7844805e-7), (0, 1, -1.7427693e-7), (0, 1, -1.8601514e-7), (0, 1, -1.7844805e-7), (0, 1, -1.7427793e-7), (0, 1, -1.7844711e-7), (0, 1, -1.7427693e-7), (0, 1, -1.7427793e-7), (0, 1, -1.784481e-7), (0, 1, -1.7427702e-7), (0, 1, -1.7844711e-7), (0, 1, -1.784481e-7), (0, 1, -1.3846888e-7), (0, 1, -1.83527e-7), (0, 1, -1.7427702e-7), (0, 1, -1.3846888e-7), (0, 1, -1.363838e-7), (0, 1, -1.8561204e-7), (0, 1, -1.83527e-7), (0, 1, -1.363838e-7), (0, 1, -1.3091216e-7), (0, 1, -1.801404e-7), (0, 1, -1.8561204e-7), (0, 1, -1.3091216e-7), (0, 1, -1.2921888e-7), (0, 1, -1.7636208e-7), (0, 1, -1.801404e-7), (0, 1, -1.2921888e-7), (0, 1, -1.8014143e-7), (0, 1, -1.7805539e-7), (0, 1, -1.7636208e-7), (0, 1, -1.8014143e-7), (0, 1, -1.7427797e-7), (0, 1, -1.7844717e-7), (0, 1, -1.7805539e-7), (0, 1, -1.7427797e-7), (0, 1, -1.7844808e-7), (0, 1, -1.7427698e-7), (0, 1, -1.7844717e-7), (0, 1, -1.7844808e-7), (0, 1, -1.7498319e-7), (0, 1, -1.9385119e-7), (0, 1, -1.7427698e-7), (0, -1, 1.7636303e-7), (0, -1, 1.8014138e-7), (0, -1, 1.8857664e-7), (0, -1, 1.8857665e-7), (0, 1, -1.7844711e-7), (0, 1, -1.7427702e-7), (0, 1, -1.8857475e-7), (0, 1, -1.885747e-7), (0, -1, 1.3091166e-7), (0, -1, 1.7636208e-7), (0, -1, 1.8857472e-7), (0, -1, 9.428735e-8), (0, -1, 1.8014138e-7), (0, -1, 1.7805631e-7), (0, -1, 1.8857665e-7), (0, -1, 1.8857664e-7), (0, 1, -1.7427702e-7), (0, 1, -1.83527e-7), (0, 1, -1.8857472e-7), (0, 1, -1.8857475e-7), (1, 0, 0), (1, 0, 0), (1, 0, 0), (1, 0, 0), (0, -1, 1.7805631e-7), (0, -1, 1.8014138e-7), (0, -1, 1.8857664e-7), (0, -1, 1.8857665e-7), (0, 1, -1.83527e-7), (0, 1, -1.8561204e-7), (0, 1, -1.885747e-7), (0, 1, -1.8857472e-7), (0, -1, 1.9007285e-7), (0, -1, 1.2921838e-7), (0, -1, 9.428732e-8), (0, -1, 2.1527464e-7), (0, -1, 1.8014138e-7), (0, -1, 1.8183471e-7), (0, -1, 1.8857666e-7), (0, -1, 1.8857664e-7), (0, 1, -1.8561204e-7), (0, 1, -1.801404e-7), (0, 1, -1.8857472e-7), (0, 1, -1.885747e-7), (0, -1, 1.7636208e-7), (0, -1, 1.3299673e-7), (0, -1, 9.428737e-8), (0, -1, 1.8857472e-7), (0, -1, 1.8183471e-7), (0, -1, 1.7805633e-7), (0, -1, 1.8857664e-7), (0, -1, 1.8857666e-7), (0, 1, -1.801404e-7), (0, 1, -1.7636208e-7), (0, 1, -1.8857473e-7), (0, 1, -1.8857472e-7), (-1, 0, 0), (-1, 0, 0), (-1, 0, 0), (-1, 0, 0), (0, -1, 1.7805633e-7), (0, -1, 1.7636302e-7), (0, -1, 1.8857659e-7), (0, -1, 1.8857664e-7), (0, 1, -1.7636208e-7), (0, 1, -1.7805539e-7), (0, 1, -1.8857475e-7), (0, 1, -1.8857473e-7), (0, -1, 1.3299677e-7), (0, -1, 1.8183374e-7), (0, -1, 1.8857475e-7), (0, -1, 9.428737e-8), (0, -1, 1.7636302e-7), (0, -1, 1.7328989e-7), (0, -1, 1.808201e-7), (0, -1, 1.8857659e-7), (0, 1, -1.7805539e-7), (0, 1, -1.7844717e-7), (0, 1, -1.8857475e-7), (0, 1, -1.8857475e-7), (0, -1, 1.7328989e-7), (0, -1, 1.6977243e-7), (0, -1, 1.7306355e-7), (0, -1, 1.808201e-7), (0, 1, -1.7844717e-7), (0, 1, -1.7427698e-7), (0, 1, -1.885747e-7), (0, 1, -1.8857475e-7), (0, 1, -1.7427698e-7), (0, 1, -1.9385119e-7), (0, 1, -2.1527464e-7), (0, 1, -1.885747e-7), (-1, 0, 0), (-1, 0, 0), (-1, 0, 0), (-1, 0, 0), (0, -1, 8.078156e-8), (0, -1, 1.283254e-7), (0, -1, 1.2881863e-7), (0, -1, 8.078157e-8), (0, -1, 1.283254e-7), (0, -1, 1.7636204e-7), (0, -1, 1.7636297e-7), (0, -1, 1.2881863e-7), (0, -1, 1.7636204e-7), (0, -1, 1.3091164e-7), (0, -1, 1.8014137e-7), (0, -1, 1.7636297e-7), (0, -1, 1.3091164e-7), (0, -1, 1.3299673e-7), (0, -1, 1.7805631e-7), (0, -1, 1.8014137e-7), (0, -1, 1.3299673e-7), (0, -1, 1.7636208e-7), (0, -1, 1.7636303e-7), (0, -1, 1.7805631e-7), (0, -1, 1.7636208e-7), (0, -1, 1.3091166e-7), (0, -1, 1.8014138e-7), (0, -1, 1.7636303e-7), (0, -1, 1.3091166e-7), (0, -1, 1.3299673e-7), (0, -1, 1.7805631e-7), (0, -1, 1.8014138e-7), (0, -1, 1.3299673e-7), (0, -1, 1.7805537e-7), (0, -1, 1.8014138e-7), (0, -1, 1.7805631e-7), (0, -1, 1.7805537e-7), (0, -1, 1.8183374e-7), (0, -1, 1.8183471e-7), (0, -1, 1.8014138e-7), (0, -1, 1.8183374e-7), (0, -1, 1.3299677e-7), (0, -1, 1.7805633e-7), (0, -1, 1.8183471e-7), (0, -1, 1.3299677e-7), (0, -1, 1.2921838e-7), (0, -1, 1.7636302e-7), (0, -1, 1.7805633e-7), (0, -1, 1.2921838e-7), (0, -1, 1.9007285e-7), (0, -1, 1.7328989e-7), (0, -1, 1.7636302e-7), (0, 1, -1.9385119e-7), (0, 1, -2.0422799e-7), (0, 1, -2.4197467e-7), (0, 1, -2.1527464e-7), (0, -1, 8.078157e-8), (0, -1, 1.2881863e-7), (0, -1, 9.428829e-8), (0, -0.99999994, 0), (0, 0, 0.99999994), (0, 0, 1), (0, 0, 1), (0, 0, 0.99999994), (0, 1, -1.7844805e-7), (0, 1, -1.2771876e-7), (0, 1, -9.428829e-8), (0, 1, -1.8857658e-7), (0, 1, -1.7427793e-7), (0, 1, -1.7844805e-7), (0, 1, -1.8857658e-7), (0, 1, -1.8857662e-7), (0, -1, 1.283254e-7), (0, -1, 8.078156e-8), (0, -1, 0), (0, -1, 9.428736e-8), (0, 1, -1.784481e-7), (0, 1, -1.7427793e-7), (0, 1, -1.8857662e-7), (0, 1, -1.8857664e-7), (0, -1, 1.3299673e-7), (0, -1, 1.3091164e-7), (0, -1, 9.428732e-8), (0, -1, 9.428737e-8), (0, 1, -1.3846888e-7), (0, 1, -1.784481e-7), (0, 1, -1.8857664e-7), (0, 1, -9.4288325e-8), (0, 1, -1.363838e-7), (0, 1, -1.3846888e-7), (0, 1, -9.4288325e-8), (0, 1, -9.428832e-8), (0, 1, -1.3091216e-7), (0, 1, -1.363838e-7), (0, 1, -9.428832e-8), (0, 1, -9.428832e-8), (0, -1, 1.3091164e-7), (0, -1, 1.7636204e-7), (0, -1, 1.8857467e-7), (0, -1, 9.428732e-8), (0, 0, -1), (0, 0, -1), (0, 0, -1), (0, 0, -1), (0, 0, 1), (0, 0, 1), (0, 0, 1), (0, 0, 1), (0, 0, 1), (0, 0, 1), (0, 0, 1), (0, 0, 1), (0, 0, 1), (0, 0, 1), (0, 0, 1), (0, 0, 1), (0, 0, 1), (0, 0, 1), (0, 0, 1), (0, 0, 1), (0, 0, -1), (0, 0, -1), (0, 0, -1), (0, 0, -1), (0, 0, 1), (0, 0, 1), (0, 0, 1), (0, 0, 1), (0, 0, 1), (0, 0, 1), (0, 0, 1), (0, 0, 1), (0, 0, -1), (0, 0, -1), (0, 0, -1), (0, 0, -1), (0, 0, 1), (0, 0, 1), (0, 0, 1), (0, 0, 1), (0, 0, 1), (0, 0, 1), (0, 0, 1), (0, 0, 1), (0, 0, 1), (0, 0, 1), (0, 0, 1), (0, 0, 1), (0, 0, 1), (0, 0, 1), (0, 0, 1), (0, 0, 1), (0, 0, 1), (0, 0, 1), (0, 0, 1), (0, 0, 1), (0, 0, 1), (0, 0, 1), (0, 0, 1), (0, 0, 1), (0, 0, -1), (0, 0, -1), (0, 0, -1), (0, 0, -1), (0, 0, -1), (0, 0, -1), (0, 0, -1), (0, 0, -1), (0, 0, -1), (0, 0, -1), (0, 0, -1), (0, 0, -1), (0, 0, -1), (0, 0, -1), (0, 0, -1), (0, 0, -1), (0, 0, -1), (0, 0, -1), (0, 0, -1), (0, 0, -1), (0, 0, -1), (0, 0, -1), (0, 0, -1), (0, 0, -1), (0, 0, -1), (0, 0, -1), (0, 0, -1), (0, 0, -1), (0, 0, -1), (0, 0, -1), (0, 0, -1), (0, 0, -1), (0, 0, -1), (0, 0, -1), (0, 0, -1), (0, 0, -1), (0, 0, -1), (0, 0, -1), (0, 0, -1), (0, 0, -1), (0, 1, -1.7844808e-7), (0, 1, -1.7427797e-7), (0, 1, -1.8857664e-7), (0, 1, -1.8857659e-7), (0, -1, 1.8183374e-7), (0, -1, 1.7805537e-7), (0, -1, 1.8857473e-7), (0, -1, 1.8857475e-7), (0, 1, -1.7427797e-7), (0, 1, -1.8014143e-7), (0, 1, -1.8857666e-7), (0, 1, -1.8857664e-7), (0, -1, 2.0422799e-7), (0, -1, 1.9007285e-7), (0, -1, 2.1527464e-7), (0, -1, 2.4197467e-7), (0, 1, -1.8014143e-7), (0, 1, -1.2921888e-7), (0, 1, -9.428832e-8), (0, 1, -1.8857666e-7), (0, 1, -1.2921888e-7), (0, 1, -1.3091216e-7), (0, 1, -9.428832e-8), (0, 1, -9.428832e-8), (1, 0, 0), (1, 0, 0), (1, 0, 0), (1, 0, 0), (0, -1, 1.7089094e-7), (0, -1, 1.8003895e-7), (0, -1, 2.0110103e-7), (0, -1, 1.8857578e-7), (0, -1, 1.8388009e-7), (0, -1, 1.9642482e-7), (0, -1, 2.4850004e-7), (0, -1, 2.0947344e-7), (-1, 0, 0), (-1, 0, 0), (-1, 0, 0), (-1, 0, 0), (0, 1, -1.9471324e-7), (0, 1, -2.0171595e-7), (0, 1, -2.5917916e-7), (0, 1, -2.2387775e-7), (0, -1, 1.8983503e-7), (0, -1, 1.7089123e-7), (0, -1, 1.8857632e-7), (0, -1, 2.2387775e-7), (0, 1, -1.7498301e-7), (0, 1, -1.7844793e-7), (0, 1, -1.8857631e-7), (0, 1, -1.8081977e-7), (1, 0, 0), (1, 0, 0), (1, 0, 0), (1, 0, 0), (0, 1, -1.7498301e-7), (0, 1, -1.6977226e-7), (0, 1, -2.0422863e-7), (0, 1, -1.9385183e-7), (0, -1, 1.7089123e-7), (0, -1, 1.7466958e-7), (0, -1, 1.8857631e-7), (0, -1, 1.8857632e-7), (0, 1, -1.6977226e-7), (0, 1, -1.7498301e-7), (0, 1, -1.8081977e-7), (0, 1, -1.730632e-7), (0, -1, 1.2752537e-7), (0, -1, 1.2921869e-7), (0, -1, 9.4287905e-8), (0, -1, 9.428789e-8), (0, 1, -1.789395e-7), (0, 1, -1.7744884e-7), (0, 1, -2.0110103e-7), (0, 1, -2.1362628e-7), (0, -1, 1.7466958e-7), (0, -1, 1.7258455e-7), (0, -1, 1.8857634e-7), (0, -1, 1.8857631e-7), (0, 1, -1.7744884e-7), (0, 1, -1.8183422e-7), (0, 1, -1.8857578e-7), (0, 1, -2.0110103e-7), (0, -1, 1.7258428e-7), (0, -1, 1.7089097e-7), (0, -1, 1.885758e-7), (0, -1, 1.8857584e-7), (0, -1, 1.7089097e-7), (0, -1, 1.671126e-7), (0, -1, 1.885758e-7), (0, -1, 1.885758e-7), (0, -1, 1.7258455e-7), (0, -1, 1.671129e-7), (0, -1, 1.8857635e-7), (0, -1, 1.8857634e-7), (0, 1, -1.8183422e-7), (0, 1, -1.7844768e-7), (0, 1, -1.8857581e-7), (0, 1, -1.8857578e-7), (0, 1, -2.0171595e-7), (0, 1, -1.9471324e-7), (0, 1, -1.7744884e-7), (0, 1, -1.789395e-7), (0, 1, -1.9471324e-7), (0, 1, -1.8183452e-7), (0, 1, -1.8183422e-7), (0, 1, -1.7744884e-7), (0, 1, -1.8183452e-7), (0, 1, -1.742778e-7), (0, 1, -1.7844768e-7), (0, 1, -1.8183422e-7), (0, 1, -1.742778e-7), (0, 1, -1.7089127e-7), (0, 1, -1.7089098e-7), (0, 1, -1.7844768e-7), (0, 1, -1.7089127e-7), (0, 1, -1.7844798e-7), (0, 1, -1.7427757e-7), (0, 1, -1.7089098e-7), (0, 1, -1.7844798e-7), (0, 1, -1.7805617e-7), (0, 1, -1.8014097e-7), (0, 1, -1.7427757e-7), (0, 1, -1.7805617e-7), (0, 1, -1.7258455e-7), (0, 1, -1.7466932e-7), (0, 1, -1.8014097e-7), (0, 1, -1.7258455e-7), (0, 1, -1.7089127e-7), (0, 1, -1.7089098e-7), (0, 1, -1.7466932e-7), (0, 1, -1.7089127e-7), (0, 1, -1.7089131e-7), (0, 1, -1.7089101e-7), (0, 1, -1.7089098e-7), (0, 1, -1.7089131e-7), (0, 1, -1.7089125e-7), (0, 1, -1.7089101e-7), (0, 1, -1.7089101e-7), (0, 1, -1.7089125e-7), (0, 1, -1.7844793e-7), (0, 1, -1.7427753e-7), (0, 1, -1.7089101e-7), (0, 1, -1.7844793e-7), (0, 1, -1.7498301e-7), (0, 1, -1.9385183e-7), (0, 1, -1.7427753e-7), (0, -1, 1.671129e-7), (0, -1, 1.6919793e-7), (0, -1, 1.8857635e-7), (0, -1, 1.8857635e-7), (0, 1, -1.7844768e-7), (0, 1, -1.7089098e-7), (0, 1, -1.8857584e-7), (0, 1, -1.8857581e-7), (0, -1, 1.671126e-7), (0, -1, 1.6919769e-7), (0, -1, 1.885758e-7), (0, -1, 1.885758e-7), (0, -1, 1.6919793e-7), (0, -1, 1.7089124e-7), (0, -1, 1.8857634e-7), (0, -1, 1.8857635e-7), (0, 1, -1.7089098e-7), (0, 1, -1.7427757e-7), (0, 1, -1.885758e-7), (0, 1, -1.8857584e-7), (1, 0, 0), (1, 0, 0), (1, 0, 0), (1, 0, 0), (0, -1, 1.7089124e-7), (0, -1, 1.7466961e-7), (0, -1, 1.8857638e-7), (0, -1, 1.8857634e-7), (0, 1, -1.7427757e-7), (0, 1, -1.8014097e-7), (0, 1, -1.885758e-7), (0, 1, -1.885758e-7), (0, -1, 1.8388009e-7), (0, -1, 1.2752537e-7), (0, -1, 9.428789e-8), (0, -1, 2.1527588e-7), (0, -1, 1.7466961e-7), (0, -1, 1.7636295e-7), (0, -1, 1.885764e-7), (0, -1, 1.8857638e-7), (0, 1, -1.8014097e-7), (0, 1, -1.7466932e-7), (0, 1, -1.885758e-7), (0, 1, -1.885758e-7), (0, -1, 1.6919769e-7), (0, -1, 1.2752538e-7), (0, -1, 9.4287905e-8), (0, -1, 1.885758e-7), (0, -1, 1.7636295e-7), (0, -1, 1.7636289e-7), (0, -1, 1.8857634e-7), (0, -1, 1.885764e-7), (0, 1, -1.7466932e-7), (0, 1, -1.7089098e-7), (0, 1, -1.8857584e-7), (0, 1, -1.885758e-7), (-1, 0, 0), (-1, 0, 0), (-1, 0, 0), (-1, 0, 0), (0, -1, 1.7636289e-7), (0, -1, 1.7258449e-7), (0, -1, 1.8857631e-7), (0, -1, 1.8857634e-7), (0, 1, -1.7089098e-7), (0, 1, -1.7089101e-7), (0, 1, -1.8857584e-7), (0, 1, -1.8857584e-7), (0, -1, 1.2921869e-7), (0, -1, 1.7636266e-7), (0, -1, 1.8857584e-7), (0, -1, 9.4287905e-8), (0, -1, 1.7258449e-7), (0, -1, 2.0947344e-7), (0, -1, 2.6735137e-7), (0, -1, 1.8857631e-7), (0, 1, -1.7089101e-7), (0, 1, -1.7089101e-7), (0, 1, -1.8857581e-7), (0, 1, -1.8857584e-7), (0, -1, 2.0947344e-7), (0, -1, 2.4850004e-7), (0, -1, 3.461264e-7), (0, -1, 2.6735137e-7), (0, 1, -1.7089101e-7), (0, 1, -1.7427753e-7), (0, 1, -1.885758e-7), (0, 1, -1.8857581e-7), (0, 1, -1.7427753e-7), (0, 1, -1.9385183e-7), (0, 1, -2.1527588e-7), (0, 1, -1.885758e-7), (-1, 0, 0), (-1, 0, 0), (-1, 0, 0), (-1, 0, 0), (0, -1, 1.8759468e-7), (0, -1, 1.8003895e-7), (0, -1, 1.8983503e-7), (0, -1, 2.1037111e-7), (0, -1, 1.8003895e-7), (0, -1, 1.7089094e-7), (0, -1, 1.7089123e-7), (0, -1, 1.8983503e-7), (0, -1, 1.7089094e-7), (0, -1, 1.254403e-7), (0, -1, 1.7466958e-7), (0, -1, 1.7089123e-7), (0, -1, 1.254403e-7), (0, -1, 1.2752538e-7), (0, -1, 1.7258455e-7), (0, -1, 1.7466958e-7), (0, -1, 1.2752538e-7), (0, -1, 1.6919769e-7), (0, -1, 1.671129e-7), (0, -1, 1.7258455e-7), (0, -1, 1.6919769e-7), (0, -1, 1.671126e-7), (0, -1, 1.6919793e-7), (0, -1, 1.671129e-7), (0, -1, 1.671126e-7), (0, -1, 1.7089097e-7), (0, -1, 1.7089124e-7), (0, -1, 1.6919793e-7), (0, -1, 1.7089097e-7), (0, -1, 1.7258428e-7), (0, -1, 1.7466961e-7), (0, -1, 1.7089124e-7), (0, -1, 1.7258428e-7), (0, -1, 1.7636266e-7), (0, -1, 1.7636295e-7), (0, -1, 1.7466961e-7), (0, -1, 1.7636266e-7), (0, -1, 1.2921869e-7), (0, -1, 1.7636289e-7), (0, -1, 1.7636295e-7), (0, -1, 1.2921869e-7), (0, -1, 1.2752537e-7), (0, -1, 1.7258449e-7), (0, -1, 1.7636289e-7), (0, -1, 1.2752537e-7), (0, -1, 1.8388009e-7), (0, -1, 2.0947344e-7), (0, -1, 1.7258449e-7), (0, 1, -1.9385183e-7), (0, 1, -2.0422863e-7), (0, 1, -2.4197595e-7), (0, 1, -2.1527588e-7), (0, -1, 2.1037111e-7), (0, -1, 1.8983503e-7), (0, -1, 2.2387775e-7), (0, -1, 2.5917916e-7), (0, 0, 0.99999994), (0, 0, 1), (0, 0, 1), (0, 0, 0.99999994), (0, 1, -1.8183452e-7), (0, 1, -1.9471324e-7), (0, 1, -2.2387775e-7), (0, 1, -1.8857632e-7), (0, 1, -1.742778e-7), (0, 1, -1.8183452e-7), (0, 1, -1.8857632e-7), (0, 1, -1.8857631e-7), (0, -1, 1.8003895e-7), (0, -1, 1.8759468e-7), (0, -1, 2.1362628e-7), (0, -1, 2.0110103e-7), (0, 1, -1.7089127e-7), (0, 1, -1.742778e-7), (0, 1, -1.8857631e-7), (0, 1, -1.8857634e-7), (0, -1, 1.2752538e-7), (0, -1, 1.254403e-7), (0, -1, 9.428789e-8), (0, -1, 9.4287905e-8), (0, 1, -1.7844798e-7), (0, 1, -1.7089127e-7), (0, 1, -1.8857634e-7), (0, 1, -1.8857635e-7), (0, 1, -1.7805617e-7), (0, 1, -1.7844798e-7), (0, 1, -1.8857635e-7), (0, 1, -1.8857635e-7), (0, 1, -1.7258455e-7), (0, 1, -1.7805617e-7), (0, 1, -1.8857635e-7), (0, 1, -1.8857634e-7), (0, -1, 1.254403e-7), (0, -1, 1.7089094e-7), (0, -1, 1.8857578e-7), (0, -1, 9.428789e-8), (0, 0, -1), (0, 0, -1), (0, 0, -1), (0, 0, -1), (0, 0, 1), (0, 0, 1), (0, 0, 1), (0, 0, 1), (0, 0, 1), (0, 0, 1), (0, 0, 1), (0, 0, 1), (0, 0, 1), (0, 0, 1), (0, 0, 1), (0, 0, 1), (0, 0, 1), (0, 0, 1), (0, 0, 1), (0, 0, 1), (0, 0, -1), (0, 0, -1), (0, 0, -1), (0, 0, -1), (0, 0, 1), (0, 0, 1), (0, 0, 1), (0, 0, 1), (0, 0, 1), (0, 0, 1), (0, 0, 1), (0, 0, 1), (0, 0, -1), (0, 0, -1), (0, 0, -1), (0, 0, -1), (0, 0, 1), (0, 0, 1), (0, 0, 1), (0, 0, 1), (0, 0, 1), (0, 0, 1), (0, 0, 1), (0, 0, 1), (0, 0, 1), (0, 0, 1), (0, 0, 1), (0, 0, 1), (0, 0, 1), (0, 0, 1), (0, 0, 1), (0, 0, 1), (0, 0, 1), (0, 0, 1), (0, 0, 1), (0, 0, 1), (0, 0, 1), (0, 0, 1), (0, 0, 1), (0, 0, 1), (0, 0, -1), (0, 0, -1), (0, 0, -1), (0, 0, -1), (0, 0, -1), (0, 0, -1), (0, 0, -1), (0, 0, -1), (0, 0, -1), (0, 0, -1), (0, 0, -1), (0, 0, -1), (0, 0, -1), (0, 0, -1), (0, 0, -1), (0, 0, -1), (0, 0, -1), (0, 0, -1), (0, 0, -1), (0, 0, -1), (0, 0, -1), (0, 0, -1), (0, 0, -1), (0, 0, -1), (0, 0, -1), (0, 0, -1), (0, 0, -1), (0, 0, -1), (0, 0, -1), (0, 0, -1), (0, 0, -1), (0, 0, -1), (0, 0, -1), (0, 0, -1), (0, 0, -1), (0, 0, -1), (0, 0, -1), (0, 0, -1), (0, 0, -1), (0, 0, -1), (0, 1, -1.7844793e-7), (0, 1, -1.7089125e-7), (0, 1, -1.8857634e-7), (0, 1, -1.8857631e-7), (0, -1, 1.7636266e-7), (0, -1, 1.7258428e-7), (0, -1, 1.8857584e-7), (0, -1, 1.8857584e-7), (0, 1, -1.7089125e-7), (0, 1, -1.7089131e-7), (0, 1, -1.885764e-7), (0, 1, -1.8857634e-7), (0, -1, 1.9642482e-7), (0, -1, 1.8388009e-7), (0, -1, 2.1527588e-7), (0, -1, 2.4197595e-7), (0, 1, -1.7089131e-7), (0, 1, -1.7089127e-7), (0, 1, -1.8857638e-7), (0, 1, -1.885764e-7), (0, 1, -1.7089127e-7), (0, 1, -1.7258455e-7), (0, 1, -1.8857634e-7), (0, 1, -1.8857638e-7), (1, 0, 0), (1, 0, 0), (1, 0, 0), (1, 0, 0), (0, -1, 1.7088985e-7), (0, -1, 1.7206894e-7), (0, -1, 2.0109883e-7), (0, -1, 1.8857358e-7), (0, -1, 1.8468386e-7), (0, -1, 1.9902474e-7), (0, -1, 1.6457048e-7), (0, -1, 1.6800468e-7), (-1, 0, 0), (-1, 0, 0), (-1, 0, 0), (-1, 0, 0), (0, 1, -1.9004302e-7), (0, 1, -1.9883203e-7), (0, 1, -2.5918143e-7), (0, 1, -2.2387971e-7), (0, -1, 1.8626469e-7), (0, -1, 1.7089204e-7), (0, -1, 1.8857797e-7), (0, -1, 2.2387971e-7), (0, 1, -1.7159722e-7), (0, 1, -1.7258533e-7), (0, 1, -1.8857796e-7), (0, 1, -1.8082137e-7), (1, 0, 0), (1, 0, 0), (1, 0, 0), (1, 0, 0), (0, 1, -1.7159722e-7), (0, 1, -1.6977305e-7), (0, 1, -2.0422729e-7), (0, 1, -1.8629387e-7), (0, -1, 1.7089204e-7), (0, -1, 1.7089202e-7), (0, -1, 1.8857793e-7), (0, -1, 1.8857797e-7), (0, 1, -1.6977305e-7), (0, 1, -1.7159722e-7), (0, 1, -1.8082137e-7), (0, 0.99999994, -1.7306475e-7), (0, -1, 1.7088986e-7), (0, -1, 1.7466827e-7), (0, -1, 1.8857367e-7), (0, -1, 1.885736e-7), (0, 1, -1.7605336e-7), (0, 1, -1.7376223e-7), (0, 1, -2.0109883e-7), (0, 1, -2.1362409e-7), (0, -1, 1.7089202e-7), (0, -1, 1.7089205e-7), (0, -1, 1.8857797e-7), (0, -1, 1.8857793e-7), (0, 1, -1.7376223e-7), (0, 1, -1.7466819e-7), (0, 1, -1.8857358e-7), (0, 1, -2.0109883e-7), (0, -1, 1.7466827e-7), (0, -1, 1.688048e-7), (0, -1, 1.8857362e-7), (0, -1, 1.8857365e-7), (0, -1, 1.688048e-7), (0, -1, 1.6919658e-7), (0, -1, 1.8857361e-7), (0, -1, 1.8857362e-7), (0, -1, 1.7089205e-7), (0, -1, 1.7089205e-7), (0, -1, 1.8857799e-7), (0, -1, 1.8857797e-7), (0, 1, -1.7466819e-7), (0, 1, -1.7258316e-7), (0, 1, -1.8857362e-7), (0, 1, -1.8857358e-7), (0, 1, -1.9883203e-7), (0, 1, -1.9004302e-7), (0, 1, -1.7376223e-7), (0, 1, -1.7605336e-7), (0, 1, -1.9004302e-7), (0, 1, -1.7258533e-7), (0, 1, -1.7466819e-7), (0, 1, -1.7376223e-7), (0, 1, -1.7258533e-7), (0, 1, -1.7467039e-7), (0, 1, -1.7258316e-7), (0, 1, -1.7466819e-7), (0, 1, -1.7467039e-7), (0, 1, -1.68807e-7), (0, 1, -1.7297496e-7), (0, 1, -1.7258316e-7), (0, 1, -1.68807e-7), (0, 1, -1.6919877e-7), (0, 1, -1.6711154e-7), (0, 1, -1.7297496e-7), (0, 1, -1.6919877e-7), (0, 1, -1.6711371e-7), (0, 1, -1.6919658e-7), (0, 1, -1.6711154e-7), (0, 1, -1.6711371e-7), (0, 1, -1.767555e-7), (0, 1, -1.704981e-7), (0, 1, -1.6919658e-7), (0, 1, -1.767555e-7), (0, 1, -1.7427865e-7), (0, 1, -1.7844661e-7), (0, 1, -1.704981e-7), (0, 1, -1.7427865e-7), (0, 1, -1.7089212e-7), (0, 1, -1.7088992e-7), (0, 1, -1.7844661e-7), (0, 1, -1.7089212e-7), (0, 1, -1.7467043e-7), (0, 1, -1.7258321e-7), (0, 1, -1.7088992e-7), (0, 1, -1.7467043e-7), (0, 1, -1.7258533e-7), (0, 1, -1.746682e-7), (0, 1, -1.7258321e-7), (0, 1, -1.7258533e-7), (0, 1, -1.7159722e-7), (0, 1, -1.8629387e-7), (0, 1, -1.746682e-7), (0, -1, 1.7089205e-7), (0, -1, 1.6711368e-7), (0, -1, 1.8857797e-7), (0, -1, 1.8857799e-7), (0, 1, -1.7258316e-7), (0, 1, -1.7297496e-7), (0, 1, -1.8857367e-7), (0, 1, -1.8857362e-7), (0, -1, 1.6919658e-7), (0, -1, 1.708899e-7), (0, -1, 1.8857362e-7), (0, -1, 1.8857361e-7), (0, -1, 1.6711368e-7), (0, -1, 1.7297711e-7), (0, -1, 1.8857797e-7), (0, -1, 1.8857797e-7), (0, 1, -1.7297496e-7), (0, 1, -1.6711154e-7), (0, 1, -1.8857362e-7), (0, 1, -1.8857367e-7), (1, 0, 0), (1, 0, 0), (1, 0, 0), (1, 0, 0), (0, -1, 1.7297711e-7), (0, -1, 1.7258535e-7), (0, -1, 1.8857799e-7), (0, -1, 1.8857797e-7), (0, 1, -1.6711154e-7), (0, 1, -1.6919658e-7), (0, 1, -1.8857361e-7), (0, 1, -1.8857362e-7), (0, -1, 1.8468386e-7), (0, -1, 1.7088986e-7), (0, -1, 1.885736e-7), (0, -1, 2.1527339e-7), (0, -1, 1.7258535e-7), (0, -1, 1.7467048e-7), (0, -1, 1.8857804e-7), (0, -1, 1.8857799e-7), (0, 1, -1.6919658e-7), (0, 1, -1.704981e-7), (0, 1, -1.8857362e-7), (0, 1, -1.8857361e-7), (0, -1, 1.708899e-7), (0, -1, 1.708899e-7), (0, -1, 1.8857367e-7), (0, -1, 1.8857362e-7), (0, -1, 1.7467048e-7), (0, -1, 1.7258537e-7), (0, -1, 1.8857801e-7), (0, -1, 1.8857804e-7), (0, 1, -1.704981e-7), (0, 1, -1.7844661e-7), (0, 1, -1.8857365e-7), (0, 1, -1.8857362e-7), (-1, 0, 0), (-1, 0, 0), (-1, 0, 0), (-1, 0, 0), (0, -1, 1.7258537e-7), (0, -1, 1.7089204e-7), (0, -1, 1.8857796e-7), (0, -1, 1.8857801e-7), (0, 1, -1.7844661e-7), (0, 1, -1.7088992e-7), (0, 1, -1.8857367e-7), (0, 1, -1.8857365e-7), (0, -1, 1.7466827e-7), (0, -1, 1.7258321e-7), (0, -1, 1.8857367e-7), (0, -1, 1.8857367e-7), (0, -1, 1.7089204e-7), (0, -1, 1.6800468e-7), (0, -1, 1.8082137e-7), (0, -1, 1.8857796e-7), (0, 1, -1.7088992e-7), (0, 1, -1.7258321e-7), (0, 1, -1.8857367e-7), (0, 1, -1.8857367e-7), (0, -1, 1.6800468e-7), (0, -1, 1.6457048e-7), (0, -0.99999994, 1.7306475e-7), (0, -1, 1.8082137e-7), (0, 1, -1.7258321e-7), (0, 1, -1.746682e-7), (0, 1, -1.885736e-7), (0, 1, -1.8857367e-7), (0, 1, -1.746682e-7), (0, 1, -1.8629387e-7), (0, 1, -2.1527339e-7), (0, 1, -1.885736e-7), (-1, 0, 0), (-1, 0, 0), (-1, 0, 0), (-1, 0, 0), (0, -1, 1.7605336e-7), (0, -1, 1.7206894e-7), (0, -1, 1.8626469e-7), (0, -1, 1.9883203e-7), (0, -1, 1.7206894e-7), (0, -1, 1.7088985e-7), (0, -1, 1.7089204e-7), (0, -1, 1.8626469e-7), (0, -1, 1.7088985e-7), (0, -1, 1.7088989e-7), (0, -1, 1.7089202e-7), (0, -1, 1.7089204e-7), (0, -1, 1.7088989e-7), (0, -1, 1.708899e-7), (0, -1, 1.7089205e-7), (0, -1, 1.7089202e-7), (0, -1, 1.708899e-7), (0, -1, 1.708899e-7), (0, -1, 1.7089205e-7), (0, -1, 1.7089205e-7), (0, -1, 1.708899e-7), (0, -1, 1.6919658e-7), (0, -1, 1.6711368e-7), (0, -1, 1.7089205e-7), (0, -1, 1.6919658e-7), (0, -1, 1.688048e-7), (0, -1, 1.7297711e-7), (0, -1, 1.6711368e-7), (0, -1, 1.688048e-7), (0, -1, 1.7466827e-7), (0, -1, 1.7258535e-7), (0, -1, 1.7297711e-7), (0, -1, 1.7466827e-7), (0, -1, 1.7258321e-7), (0, -1, 1.7467048e-7), (0, -1, 1.7258535e-7), (0, -1, 1.7258321e-7), (0, -1, 1.7466827e-7), (0, -1, 1.7258537e-7), (0, -1, 1.7467048e-7), (0, -1, 1.7466827e-7), (0, -1, 1.7088986e-7), (0, -1, 1.7089204e-7), (0, -1, 1.7258537e-7), (0, -1, 1.7088986e-7), (0, -1, 1.8468386e-7), (0, -1, 1.6800468e-7), (0, -1, 1.7089204e-7), (0, 1, -1.8629387e-7), (0, 1, -2.0422729e-7), (0, 0.99999994, -2.4197325e-7), (0, 1, -2.1527339e-7), (0, -1, 1.9883203e-7), (0, -1, 1.8626469e-7), (0, -1, 2.2387971e-7), (0, -1, 2.5918143e-7), (0, 0, 0.99999994), (0, 0, 1), (0, 0, 1), (0, 0, 0.99999994), (0, 1, -1.7258533e-7), (0, 1, -1.9004302e-7), (0, 1, -2.2387971e-7), (0, 1, -1.8857797e-7), (0, 1, -1.7467039e-7), (0, 1, -1.7258533e-7), (0, 1, -1.8857797e-7), (0, 1, -1.8857793e-7), (0, -1, 1.7206894e-7), (0, -1, 1.7605336e-7), (0, -1, 2.1362409e-7), (0, -1, 2.0109883e-7), (0, 1, -1.68807e-7), (0, 1, -1.7467039e-7), (0, 1, -1.8857793e-7), (0, 1, -1.8857797e-7), (0, -1, 1.708899e-7), (0, -1, 1.7088989e-7), (0, -1, 1.8857362e-7), (0, -1, 1.8857367e-7), (0, 1, -1.6919877e-7), (0, 1, -1.68807e-7), (0, 1, -1.8857797e-7), (0, 1, -1.8857799e-7), (0, 1, -1.6711371e-7), (0, 1, -1.6919877e-7), (0, 1, -1.8857799e-7), (0, 1, -1.8857797e-7), (0, 1, -1.767555e-7), (0, 1, -1.6711371e-7), (0, 1, -1.8857797e-7), (0, 1, -1.8857797e-7), (0, -1, 1.7088989e-7), (0, -1, 1.7088985e-7), (0, -1, 1.8857358e-7), (0, -1, 1.8857362e-7), (0, 0, -1), (0, 0, -1), (0, 0, -1), (0, 0, -1), (0, 0, 1), (0, 0, 1), (0, 0, 1), (0, 0, 1), (0, 0, 1), (0, 0, 1), (0, 0, 1), (0, 0, 1), (0, 0, 1), (0, 0, 1), (0, 0, 1), (0, 0, 1), (0, 0, 1), (0, 0, 1), (0, 0, 1), (0, 0, 1), (0, 0, -1), (0, 0, -1), (0, 0, -1), (0, 0, -1), (0, 0, 1), (0, 0, 1), (0, 0, 1), (0, 0, 1), (0, 0, 1), (0, 0, 1), (0, 0, 1), (0, 0, 1), (0, 0, -1), (0, 0, -1), (0, 0, -1), (0, 0, -1), (0, 0, 1), (0, 0, 1), (0, 0, 1), (0, 0, 1), (0, 0, 1), (0, 0, 1), (0, 0, 1), (0, 0, 1), (0, 0, 1), (0, 0, 1), (0, 0, 1), (0, 0, 1), (0, 0, 1), (0, 0, 1), (0, 0, 1), (0, 0, 1), (0, 0, 1), (0, 0, 1), (0, 0, 1), (0, 0, 1), (0, 0, 1), (0, 0, 1), (0, 0, 1), (0, 0, 1), (0, 0, -1), (0, 0, -1), (0, 0, -1), (0, 0, -1), (0, 0, -1), (0, 0, -1), (0, 0, -1), (0, 0, -1), (0, 0, -1), (0, 0, -1), (0, 0, -1), (0, 0, -1), (0, 0, -1), (0, 0, -1), (0, 0, -1), (0, 0, -1), (0, 0, -1), (0, 0, -1), (0, 0, -1), (0, 0, -1), (0, 0, -1), (0, 0, -1), (0, 0, -1), (0, 0, -1), (0, 0, -1), (0, 0, -1), (0, 0, -1), (0, 0, -1), (0, 0, -1), (0, 0, -1), (0, 0, -1), (0, 0, -1), (0, 0, -1), (0, 0, -1), (0, 0, -1), (0, 0, -1), (0, 0, -1), (0, 0, -1), (0, 0, -1), (0, 0, -1), (0, 1, -1.7258533e-7), (0, 1, -1.7467043e-7), (0, 1, -1.8857801e-7), (0, 1, -1.8857796e-7), (0, -1, 1.7258321e-7), (0, -1, 1.7466827e-7), (0, -1, 1.8857365e-7), (0, -1, 1.8857367e-7), (0, 1, -1.7467043e-7), (0, 1, -1.7089212e-7), (0, 1, -1.8857804e-7), (0, 1, -1.8857801e-7), (0, -1, 1.9902474e-7), (0, -1, 1.8468386e-7), (0, -1, 2.1527339e-7), (0, -0.99999994, 2.4197325e-7), (0, 1, -1.7089212e-7), (0, 1, -1.7427865e-7), (0, 1, -1.8857799e-7), (0, 1, -1.8857804e-7), (0, 1, -1.7427865e-7), (0, 1, -1.767555e-7), (0, 1, -1.8857797e-7), (0, 1, -1.8857799e-7), (1, 0, 0), (1, 0, 0), (1, 0, 0), (1, 0, 0), (0, 0, 1), (0, 0, 1), (0, 0, 1), (0, 0, 1), (-1, -3.892424e-7, 0), (-1, -3.8924227e-7, 0), (-1, 3.1044993e-7, 0), (-1, 3.1044993e-7, 0), (-1, -0.0000017886268, 0), (-1, -3.8924227e-7, 0), (-1, -3.892424e-7, 0), (-1, -0.0000017886268, 0), (0, 1, -1.6340914e-7), (0, 1, -1.6340914e-7), (0, 1, -1.6340914e-7), (0, 1, -1.6340914e-7), (1, 0.0000017886268, 0), (1, 4.6312059e-7, 0), (1, 4.6312044e-7, 0), (1, 0.0000017886268, 0), (0, -1, 1.6340914e-7), (0, -1, 1.6340914e-7), (0, -1, 1.6340914e-7), (0, -1, 1.6340914e-7), (0, -1.566619e-7, -1), (0, -1.566619e-7, -1), (0, -1.566619e-7, -1), (0, -1.566619e-7, -1), (-1, 3.1044993e-7, 0), (-1, -3.8924227e-7, 0), (-1, 0, 0), (-1, 0, 0), (1, 4.6312044e-7, 0), (1, 4.6312059e-7, 0), (1, -1.9963267e-7, 0), (1, -1.9963267e-7, 0), (1, 4.6312044e-7, 0), (1, -1.9963267e-7, 0), (1, 0, 0), (1, 0, 0), (0, 1, 0), (0, 1, 0), (0, 1, 0), (0, 1, 0), (0, -1, 0), (0, -1, 0), (0, -1, 0), (0, -1, 0), (0, 1.5785595e-7, 1), (0, 1.5785595e-7, 1), (0, 1.5785595e-7, 1), (0, 1.5785595e-7, 1), (0, -1.566619e-7, -1), (0, -1.566619e-7, -1), (0, -1.63337e-7, -1), (0, -1.63337e-7, -1), (1, -1.9963267e-7, 0), (1, 4.6312059e-7, 0), (1, 0, 0), (1, 0, 0), (-1, -3.892424e-7, 0), (-1, 3.1044993e-7, 0), (-1, 0, 0), (-1, 0, 0), (0, 1.5785594e-7, 1), (0, 1.5785594e-7, 1), (0, 1.5785594e-7, 1), (0, 1.5785594e-7, 1), (0, -1.566619e-7, -1), (0, -1.566619e-7, -1), (0, -1.63337e-7, -1), (0, -1.63337e-7, -1), (0, 0, 1), (0, 0, 1), (0, 0, 1), (0, 0, 1), (1, -5.5990694e-7, 0), (1, -8.138618e-9, 0), (1, -8.895114e-9, 0), (1, -5.604112e-7, 0), (1, -0.0000016634433, 0), (1, -0.0000016634433, 0), (1, -5.5990694e-7, 0), (1, -5.604112e-7, 0), (0, 1, -1.6340914e-7), (0, 1, -1.6340914e-7), (0, 1, -1.6340914e-7), (0, 1, -1.6340914e-7), (-1, 0.0000016762053, 0), (-1, 0.0000016762053, 0), (-1, 5.689381e-7, 0), (-1, 5.625878e-7, 0), (0, -1, 1.6340914e-7), (0, -1, 1.6340914e-7), (0, -1, 1.6340914e-7), (0, -1, 1.6340914e-7), (0, -1.566619e-7, -1), (0, -1.566619e-7, -1), (0, -1.566619e-7, -1), (0, -1.566619e-7, -1), (1, -8.895114e-9, 0), (1, -1.7790228e-8, 0), (1, -1.7790228e-8, 0), (1, -5.604112e-7, 0), (-1, 5.689381e-7, 0), (-1, 1.5304442e-8, 0), (-1, 5.77895e-9, 0), (-1, 5.625878e-7, 0), (-1, 5.689381e-7, 0), (-1, 3.0608884e-8, 0), (-1, 3.0608884e-8, 0), (-1, 1.5304442e-8, 0), (0, 1, 0), (0, 1, 0), (0, 1, 0), (0, 1, 0), (0, -1, 0), (0, -1, 0), (0, -1, 0), (0, -1, 0), (0, 1.5785595e-7, 1), (0, 1.5785595e-7, 1), (0, 1.5785595e-7, 1), (0, 1.5785595e-7, 1), (0, -1.566619e-7, -1), (0, -1.63337e-7, -1), (0, -1.63337e-7, -1), (0, -1.566619e-7, -1), (-1, 5.77895e-9, 0), (-1, 1.15579e-8, 0), (-1, 1.15579e-8, 0), (-1, 5.625878e-7, 0), (1, -5.5990694e-7, 0), (1, -1.6277236e-8, 0), (1, -1.6277236e-8, 0), (1, -8.138618e-9, 0), (0, 1.5785594e-7, 1), (0, 1.5785594e-7, 1), (0, 1.5785594e-7, 1), (0, 1.5785594e-7, 1), (0, -1.566619e-7, -1), (0, -1.63337e-7, -1), (0, -1.63337e-7, -1), (0, -1.566619e-7, -1)] (
                interpolation = "faceVarying"
            )
            point3f[] points = [(0.77766496, -0.025156058, 0.4093668), (0.77766496, -0.025156088, 0.23153356), (0.0070147617, -0.025156058, 0.4093668), (-0.77766496, -0.025156058, 0.4093668), (-0.77766496, -0.025156088, 0.23153356), (-0.112625994, -0.025156058, 0.4093668), (0.77766496, 0.025156192, 0.4093668), (0.77766496, 0.025156163, 0.23153356), (-0.23226674, -0.025156058, 0.4093668), (-0.77766496, 0.025156192, 0.4093668), (-0.3519075, -0.025156058, 0.4093668), (-0.77766496, 0.025156163, 0.23153356), (-0.47154823, -0.025156058, 0.4093668), (-0.591189, -0.025156058, 0.4093668), (0.12665553, -0.025156058, 0.4093668), (0.2462963, -0.025156058, 0.4093668), (0.36593705, -0.025156058, 0.4093668), (0.4855778, -0.025156058, 0.4093668), (0.6052186, -0.025156058, 0.4093668), (0.72485936, -0.025156058, 0.4093668), (-0.7124824, -0.025156088, 0.23153356), (-0.5928416, -0.025156088, 0.23153356), (-0.47320083, -0.025156088, 0.23153356), (-0.35356012, -0.025156088, 0.23153356), (-0.23391938, -0.025156088, 0.23153356), (-0.11427862, -0.025156088, 0.23153356), (0.0053621433, -0.025156088, 0.23153356), (0.1250029, -0.025156088, 0.23153356), (0.24464366, -0.025156088, 0.23153356), (0.36428443, -0.025156088, 0.23153356), (0.4839252, -0.025156088, 0.23153356), (0.603566, -0.025156088, 0.23153356), (-0.591189, 0.025156192, 0.4093668), (-0.47154823, 0.025156192, 0.4093668), (-0.3519075, 0.025156192, 0.4093668), (-0.23226674, 0.025156192, 0.4093668), (-0.112625994, 0.025156192, 0.4093668), (0.0070147617, 0.025156192, 0.4093668), (0.12665553, 0.025156192, 0.4093668), (0.2462963, 0.025156192, 0.4093668), (0.36593705, 0.025156192, 0.4093668), (0.4855778, 0.025156192, 0.4093668), (0.6052186, 0.025156192, 0.4093668), (0.72485936, 0.025156192, 0.4093668), (-0.7124824, 0.025156163, 0.23153356), (-0.5928416, 0.025156163, 0.23153356), (-0.47320083, 0.025156163, 0.23153356), (-0.35356012, 0.025156163, 0.23153356), (-0.23391938, 0.025156163, 0.23153356), (-0.11427862, 0.025156163, 0.23153356), (0.0053621433, 0.025156163, 0.23153356), (0.1250029, 0.025156163, 0.23153356), (0.24464366, 0.025156163, 0.23153356), (0.36428443, 0.025156163, 0.23153356), (0.4839252, 0.025156163, 0.23153356), (0.603566, 0.025156163, 0.23153356), (-0.112625994, -0.025156057, 0.41968673), (0.0070147617, -0.025156057, 0.41968673), (-0.47154823, -0.025156057, 0.41968673), (-0.3519075, -0.025156057, 0.41968673), (0.77766496, -0.025156057, 0.41968673), (0.6052186, -0.025156057, 0.41968673), (0.72485936, -0.025156057, 0.41968673), (-0.23226674, -0.025156057, 0.41968673), (-0.77766496, -0.025156057, 0.41968673), (-0.591189, -0.025156057, 0.41968673), (0.77766496, -0.02515609, 0.22121371), (0.4855778, -0.025156057, 0.41968673), (0.36593705, -0.025156057, 0.41968673), (0.603566, -0.02515609, 0.22121371), (-0.77766496, -0.02515609, 0.22121371), (0.77766496, 0.025156194, 0.41968673), (0.2462963, -0.025156057, 0.41968673), (0.77766496, 0.02515616, 0.22121371), (0.12665553, -0.025156057, 0.41968673), (0.72485936, 0.025156194, 0.41968673), (-0.77766496, 0.025156194, 0.41968673), (0.603566, 0.02515616, 0.22121371), (-0.77766496, 0.02515616, 0.22121371), (-0.7124824, -0.02515609, 0.22121371), (-0.5928416, -0.02515609, 0.22121371), (-0.47320083, -0.02515609, 0.22121371), (-0.35356012, -0.02515609, 0.22121371), (-0.23391938, -0.02515609, 0.22121371), (-0.11427862, -0.02515609, 0.22121371), (0.0053621433, -0.02515609, 0.22121371), (0.1250029, -0.02515609, 0.22121371), (0.24464366, -0.02515609, 0.22121371), (0.36428443, -0.02515609, 0.22121371), (0.4839252, -0.02515609, 0.22121371), (-0.591189, 0.025156194, 0.41968673), (-0.47154823, 0.025156194, 0.41968673), (-0.3519075, 0.025156194, 0.41968673), (-0.23226674, 0.025156194, 0.41968673), (-0.112625994, 0.025156194, 0.41968673), (0.0070147617, 0.025156194, 0.41968673), (0.12665553, 0.025156194, 0.41968673), (0.2462963, 0.025156194, 0.41968673), (0.36593705, 0.025156194, 0.41968673), (0.4855778, 0.025156194, 0.41968673), (0.6052186, 0.025156194, 0.41968673), (-0.7124824, 0.02515616, 0.22121371), (-0.5928416, 0.02515616, 0.22121371), (-0.47320083, 0.02515616, 0.22121371), (-0.35356012, 0.02515616, 0.22121371), (-0.23391938, 0.02515616, 0.22121371), (-0.11427862, 0.02515616, 0.22121371), (0.0053621433, 0.02515616, 0.22121371), (0.1250029, 0.02515616, 0.22121371), (0.24464366, 0.02515616, 0.22121371), (0.36428443, 0.02515616, 0.22121371), (0.4839252, 0.02515616, 0.22121371), (0.77766496, -0.025156014, 0.687229), (0.77766496, -0.025156042, 0.5093958), (0.0070147617, -0.025156014, 0.687229), (-0.77766496, -0.025156014, 0.687229), (-0.77766496, -0.025156042, 0.5093958), (-0.112625994, -0.025156014, 0.687229), (0.77766496, 0.025156237, 0.687229), (0.77766496, 0.02515621, 0.5093958), (-0.23226674, -0.025156014, 0.687229), (-0.77766496, 0.025156237, 0.687229), (-0.3519075, -0.025156014, 0.687229), (-0.77766496, 0.02515621, 0.5093958), (-0.47154823, -0.025156014, 0.687229), (-0.591189, -0.025156014, 0.687229), (0.12665553, -0.025156014, 0.687229), (0.2462963, -0.025156014, 0.687229), (0.36593705, -0.025156014, 0.687229), (0.4855778, -0.025156014, 0.687229), (0.6052186, -0.025156014, 0.687229), (0.72485936, -0.025156014, 0.687229), (-0.7124824, -0.025156042, 0.5093958), (-0.5928416, -0.025156042, 0.5093958), (-0.47320083, -0.025156042, 0.5093958), (-0.35356012, -0.025156042, 0.5093958), (-0.23391938, -0.025156042, 0.5093958), (-0.11427862, -0.025156042, 0.5093958), (0.0053621433, -0.025156042, 0.5093958), (0.1250029, -0.025156042, 0.5093958), (0.24464366, -0.025156042, 0.5093958), (0.36428443, -0.025156042, 0.5093958), (0.4839252, -0.025156042, 0.5093958), (0.603566, -0.025156042, 0.5093958), (-0.591189, 0.025156237, 0.687229), (-0.47154823, 0.025156237, 0.687229), (-0.3519075, 0.025156237, 0.687229), (-0.23226674, 0.025156237, 0.687229), (-0.112625994, 0.025156237, 0.687229), (0.0070147617, 0.025156237, 0.687229), (0.12665553, 0.025156237, 0.687229), (0.2462963, 0.025156237, 0.687229), (0.36593705, 0.025156237, 0.687229), (0.4855778, 0.025156237, 0.687229), (0.6052186, 0.025156237, 0.687229), (0.72485936, 0.025156237, 0.687229), (-0.7124824, 0.02515621, 0.5093958), (-0.5928416, 0.02515621, 0.5093958), (-0.47320083, 0.02515621, 0.5093958), (-0.35356012, 0.02515621, 0.5093958), (-0.23391938, 0.02515621, 0.5093958), (-0.11427862, 0.02515621, 0.5093958), (0.0053621433, 0.02515621, 0.5093958), (0.1250029, 0.02515621, 0.5093958), (0.24464366, 0.02515621, 0.5093958), (0.36428443, 0.02515621, 0.5093958), (0.4839252, 0.02515621, 0.5093958), (0.603566, 0.02515621, 0.5093958), (-0.112625994, -0.025156012, 0.69754887), (0.0070147617, -0.025156012, 0.69754887), (-0.47154823, -0.025156012, 0.69754887), (-0.3519075, -0.025156012, 0.69754887), (0.77766496, -0.025156012, 0.69754887), (0.6052186, -0.025156012, 0.69754887), (0.72485936, -0.025156012, 0.69754887), (-0.23226674, -0.025156012, 0.69754887), (-0.77766496, -0.025156012, 0.69754887), (-0.591189, -0.025156012, 0.69754887), (0.77766496, -0.025156043, 0.49907592), (0.4855778, -0.025156012, 0.69754887), (0.36593705, -0.025156012, 0.69754887), (0.603566, -0.025156043, 0.49907592), (-0.77766496, -0.025156043, 0.49907592), (0.77766496, 0.025156239, 0.69754887), (0.2462963, -0.025156012, 0.69754887), (0.77766496, 0.025156207, 0.49907592), (0.12665553, -0.025156012, 0.69754887), (0.72485936, 0.025156239, 0.69754887), (-0.77766496, 0.025156239, 0.69754887), (0.603566, 0.025156207, 0.49907592), (-0.77766496, 0.025156207, 0.49907592), (-0.7124824, -0.025156043, 0.49907592), (-0.5928416, -0.025156043, 0.49907592), (-0.47320083, -0.025156043, 0.49907592), (-0.35356012, -0.025156043, 0.49907592), (-0.23391938, -0.025156043, 0.49907592), (-0.11427862, -0.025156043, 0.49907592), (0.0053621433, -0.025156043, 0.49907592), (0.1250029, -0.025156043, 0.49907592), (0.24464366, -0.025156043, 0.49907592), (0.36428443, -0.025156043, 0.49907592), (0.4839252, -0.025156043, 0.49907592), (-0.591189, 0.025156239, 0.69754887), (-0.47154823, 0.025156239, 0.69754887), (-0.3519075, 0.025156239, 0.69754887), (-0.23226674, 0.025156239, 0.69754887), (-0.112625994, 0.025156239, 0.69754887), (0.0070147617, 0.025156239, 0.69754887), (0.12665553, 0.025156239, 0.69754887), (0.2462963, 0.025156239, 0.69754887), (0.36593705, 0.025156239, 0.69754887), (0.4855778, 0.025156239, 0.69754887), (0.6052186, 0.025156239, 0.69754887), (-0.7124824, 0.025156207, 0.49907592), (-0.5928416, 0.025156207, 0.49907592), (-0.47320083, 0.025156207, 0.49907592), (-0.35356012, 0.025156207, 0.49907592), (-0.23391938, 0.025156207, 0.49907592), (-0.11427862, 0.025156207, 0.49907592), (0.0053621433, 0.025156207, 0.49907592), (0.1250029, 0.025156207, 0.49907592), (0.24464366, 0.025156207, 0.49907592), (0.36428443, 0.025156207, 0.49907592), (0.4839252, 0.025156207, 0.49907592), (0.77766496, -0.025155969, 0.96509117), (0.77766496, -0.025155997, 0.78725797), (0.0070147617, -0.025155969, 0.96509117), (-0.77766496, -0.025155969, 0.96509117), (-0.77766496, -0.025155997, 0.78725797), (-0.112625994, -0.025155969, 0.96509117), (0.77766496, 0.025156282, 0.96509117), (0.77766496, 0.025156254, 0.78725797), (-0.23226674, -0.025155969, 0.96509117), (-0.77766496, 0.025156282, 0.96509117), (-0.3519075, -0.025155969, 0.96509117), (-0.77766496, 0.025156254, 0.78725797), (-0.47154823, -0.025155969, 0.96509117), (-0.591189, -0.025155969, 0.96509117), (0.12665553, -0.025155969, 0.96509117), (0.2462963, -0.025155969, 0.96509117), (0.36593705, -0.025155969, 0.96509117), (0.4855778, -0.025155969, 0.96509117), (0.6052186, -0.025155969, 0.96509117), (0.72485936, -0.025155969, 0.96509117), (-0.7124824, -0.025155997, 0.78725797), (-0.5928416, -0.025155997, 0.78725797), (-0.47320083, -0.025155997, 0.78725797), (-0.35356012, -0.025155997, 0.78725797), (-0.23391938, -0.025155997, 0.78725797), (-0.11427862, -0.025155997, 0.78725797), (0.0053621433, -0.025155997, 0.78725797), (0.1250029, -0.025155997, 0.78725797), (0.24464366, -0.025155997, 0.78725797), (0.36428443, -0.025155997, 0.78725797), (0.4839252, -0.025155997, 0.78725797), (0.603566, -0.025155997, 0.78725797), (-0.591189, 0.025156282, 0.96509117), (-0.47154823, 0.025156282, 0.96509117), (-0.3519075, 0.025156282, 0.96509117), (-0.23226674, 0.025156282, 0.96509117), (-0.112625994, 0.025156282, 0.96509117), (0.0070147617, 0.025156282, 0.96509117), (0.12665553, 0.025156282, 0.96509117), (0.2462963, 0.025156282, 0.96509117), (0.36593705, 0.025156282, 0.96509117), (0.4855778, 0.025156282, 0.96509117), (0.6052186, 0.025156282, 0.96509117), (0.72485936, 0.025156282, 0.96509117), (-0.7124824, 0.025156254, 0.78725797), (-0.5928416, 0.025156254, 0.78725797), (-0.47320083, 0.025156254, 0.78725797), (-0.35356012, 0.025156254, 0.78725797), (-0.23391938, 0.025156254, 0.78725797), (-0.11427862, 0.025156254, 0.78725797), (0.0053621433, 0.025156254, 0.78725797), (0.1250029, 0.025156254, 0.78725797), (0.24464366, 0.025156254, 0.78725797), (0.36428443, 0.025156254, 0.78725797), (0.4839252, 0.025156254, 0.78725797), (0.603566, 0.025156254, 0.78725797), (-0.112625994, -0.025155967, 0.9754112), (0.0070147617, -0.025155967, 0.9754112), (-0.47154823, -0.025155967, 0.9754112), (-0.3519075, -0.025155967, 0.9754112), (0.77766496, -0.025155967, 0.9754112), (0.6052186, -0.025155967, 0.9754112), (0.72485936, -0.025155967, 0.9754112), (-0.23226674, -0.025155967, 0.9754112), (-0.77766496, -0.025155967, 0.9754112), (-0.591189, -0.025155967, 0.9754112), (0.77766496, -0.025155999, 0.7769382), (0.4855778, -0.025155967, 0.9754112), (0.36593705, -0.025155967, 0.9754112), (0.603566, -0.025155999, 0.7769382), (-0.77766496, -0.025155999, 0.7769382), (0.77766496, 0.025156284, 0.9754112), (0.2462963, -0.025155967, 0.9754112), (0.77766496, 0.025156252, 0.7769382), (0.12665553, -0.025155967, 0.9754112), (0.72485936, 0.025156284, 0.9754112), (-0.77766496, 0.025156284, 0.9754112), (0.603566, 0.025156252, 0.7769382), (-0.77766496, 0.025156252, 0.7769382), (-0.7124824, -0.025155999, 0.7769382), (-0.5928416, -0.025155999, 0.7769382), (-0.47320083, -0.025155999, 0.7769382), (-0.35356012, -0.025155999, 0.7769382), (-0.23391938, -0.025155999, 0.7769382), (-0.11427862, -0.025155999, 0.7769382), (0.0053621433, -0.025155999, 0.7769382), (0.1250029, -0.025155999, 0.7769382), (0.24464366, -0.025155999, 0.7769382), (0.36428443, -0.025155999, 0.7769382), (0.4839252, -0.025155999, 0.7769382), (-0.591189, 0.025156284, 0.9754112), (-0.47154823, 0.025156284, 0.9754112), (-0.3519075, 0.025156284, 0.9754112), (-0.23226674, 0.025156284, 0.9754112), (-0.112625994, 0.025156284, 0.9754112), (0.0070147617, 0.025156284, 0.9754112), (0.12665553, 0.025156284, 0.9754112), (0.2462963, 0.025156284, 0.9754112), (0.36593705, 0.025156284, 0.9754112), (0.4855778, 0.025156284, 0.9754112), (0.6052186, 0.025156284, 0.9754112), (-0.7124824, 0.025156252, 0.7769382), (-0.5928416, 0.025156252, 0.7769382), (-0.47320083, 0.025156252, 0.7769382), (-0.35356012, 0.025156252, 0.7769382), (-0.23391938, 0.025156252, 0.7769382), (-0.11427862, 0.025156252, 0.7769382), (0.0053621433, 0.025156252, 0.7769382), (0.1250029, 0.025156252, 0.7769382), (0.24464366, 0.025156252, 0.7769382), (0.36428443, 0.025156252, 0.7769382), (0.4839252, 0.025156252, 0.7769382), (-0.5028283, -0.01552322, 1.1184815), (-0.5599089, -0.01552322, 1.1184815), (-0.5599089, 0.0155235855, 1.1184815), (-0.5028283, 0.0155235855, 1.1184815), (-0.5599089, -0.0155233955, 0.045126386), (-0.5028283, -0.0155233955, 0.045126386), (-0.5599089, 0.01552341, 0.04512638), (-0.5028283, 0.01552341, 0.04512638), (-0.5599089, -0.015523402, 0.0064981994), (-0.5028283, -0.015523402, 0.0064981994), (-0.5599089, 0.015523404, 0.0064981948), (-0.5028283, 0.015523404, 0.0064981948), (-0.5599089, -0.44031098, 0.045126453), (-0.5028283, -0.44031098, 0.045126453), (-0.5599089, 0.44031098, 0.04512631), (-0.5028283, 0.44031098, 0.04512631), (-0.5599089, -0.44031098, 0.006498269), (-0.5028283, -0.44031098, 0.006498269), (-0.5599089, 0.44031098, 0.0064981254), (-0.5028283, 0.44031098, 0.0064981254), (0.5028283, -0.01552322, 1.1184815), (0.5599089, -0.01552322, 1.1184815), (0.5599089, 0.0155235855, 1.1184815), (0.5028283, 0.0155235855, 1.1184815), (0.5599089, -0.0155233955, 0.045126386), (0.5028283, -0.0155233955, 0.045126386), (0.5599089, 0.01552341, 0.04512638), (0.5028283, 0.01552341, 0.04512638), (0.5599089, -0.015523402, 0.0064981994), (0.5028283, -0.015523402, 0.0064981994), (0.5599089, 0.015523404, 0.0064981948), (0.5028283, 0.015523404, 0.0064981948), (0.5599089, -0.44031098, 0.045126453), (0.5028283, -0.44031098, 0.045126453), (0.5599089, 0.44031098, 0.04512631), (0.5028283, 0.44031098, 0.04512631), (0.5599089, -0.44031098, 0.006498269), (0.5028283, -0.44031098, 0.006498269), (0.5599089, 0.44031098, 0.0064981254), (0.5028283, 0.44031098, 0.0064981254)]
            texCoord2f[] primvars:st = [(0.04667121, 0.67187494), (0.014396846, 0.6728515), (0.04667121, 0.67187494), (0.014396846, 0.6728515), (0.014396846, 0.6728515), (0.04667121, 0.67187494), (0.078897774, 0.67187494), (0.04667121, 0.67187494), (0.014396846, 0.6728515), (0.04667121, 0.67187494), (0.014396846, 0.6728515), (0.078897774, 0.67187494), (0.04667121, 0.67187494), (0.014396846, 0.6728515), (0.04667121, 0.67187494), (0.014396846, 0.6728515), (0.04667121, 0.67187494), (0.014396846, 0.6728515), (0.04667121, 0.67187494), (0.078897774, 0.67187494), (0.014396846, 0.6728515), (0.04667121, 0.67187494), (0.014396846, 0.6728515), (0.014396846, 0.6728515), (0.078897774, 0.67187494), (0.04667121, 0.67187494), (0.04667121, 0.67187494), (0.014396846, 0.6728515), (0.014396846, 0.6728515), (0.04667121, 0.67187494), (0.078897774, 0.67187494), (0.04667121, 0.67187494), (0.078897774, 0.67187494), (0.014396846, 0.6728515), (0.014396846, 0.6728515), (0.078897774, 0.67187494), (0.04667121, 0.67187494), (0.014396846, 0.6728515), (0.04667121, 0.67187494), (0.078897774, 0.67187494), (0.078897774, 0.67187494), (0.04667121, 0.67187494), (0.014396846, 0.6728515), (0.04667121, 0.67187494), (0.078897774, 0.67187494), (0.014396846, 0.6728515), (0.078897774, 0.67187494), (0.04667121, 0.67187494), (0.014396846, 0.67285144), (0.04667121, 0.67187494), (0.078897774, 0.67187494), (0.014396846, 0.6728515), (0.04667121, 0.67187494), (0.014396846, 0.6728515), (0.078897774, 0.67187494), (0.014396846, 0.6728515), (0.04667121, 0.67187494), (0.078897774, 0.67187494), (0.014396846, 0.6728515), (0.078897774, 0.67187494), (0.04667121, 0.67187494), (0.014396846, 0.6728515), (0.04667121, 0.67187494), (0.078897774, 0.67187494), (0.014396846, 0.6728515), (0.078897774, 0.67187494), (0.04667121, 0.67187494), (0.014396846, 0.6728515), (0.04667121, 0.67187494), (0.078897774, 0.67187494), (0.014396846, 0.6728515), (0.078897774, 0.67187494), (0.04667121, 0.67187494), (0.014396846, 0.67285156), (0.04667121, 0.67187494), (0.078897774, 0.67187494), (0.014396846, 0.67285144), (0.078897774, 0.67187494), (0.04667121, 0.67187494), (0.014396846, 0.67285156), (0.04667121, 0.67187494), (0.078897774, 0.67187494), (0.014396846, 0.67285144), (0.078897774, 0.67187494), (0.04667121, 0.67187494), (0.04667121, 0.67187494), (0.078897774, 0.67187494), (0.014396846, 0.6728515), (0.04667121, 0.67187494), (0.078897774, 0.67187494), (0.014396846, 0.67285144), (0.04667121, 0.67187494), (0.078897774, 0.67187494), (0.014396846, 0.6728515), (0.078897774, 0.67187494), (0.04667121, 0.67187494), (0.014396846, 0.6728515), (0.04667121, 0.67187494), (0.078897774, 0.67187494), (0.014396846, 0.67285156), (0.078897774, 0.67187494), (0.04667121, 0.67187494), (0.014396846, 0.67285144), (0.04667121, 0.67187494), (0.078897774, 0.67187494), (0.014396846, 0.6728515), (0.078897774, 0.67187494), (0.04667121, 0.67187494), (0.014396846, 0.6728515), (0.04667121, 0.67187494), (0.078897774, 0.67187494), (0.014396846, 0.6728515), (0.078897774, 0.67187494), (0.04667121, 0.67187494), (0.014396846, 0.6728515), (0.04667121, 0.67187494), (0.078897774, 0.67187494), (0.014396846, 0.6728515), (0.014396846, 0.6728515), (0.078897774, 0.67187494), (0.04667121, 0.67187494), (0.014396846, 0.6728515), (0.04667121, 0.67187494), (0.078897774, 0.67187494), (0.04667121, 0.67187494), (0.014396846, 0.6728515), (0.078897774, 0.67187494), (0.04667121, 0.67187494), (0.078897774, 0.67187494), (0.014396846, 0.6728515), (0.078897774, 0.67187494), (0.04667121, 0.67187494), (0.014396846, 0.6728515), (0.04667121, 0.67187494), (0.078897774, 0.67187494), (0.014396846, 0.6728515), (0.078897774, 0.67187494), (0.04667121, 0.67187494), (0.014396846, 0.67285144), (0.04667121, 0.67187494), (0.078897774, 0.67187494), (0.014396846, 0.67285156), (0.078897774, 0.67187494), (0.04667121, 0.67187494), (0.014396846, 0.6728515), (0.04667121, 0.67187494), (0.078897774, 0.67187494), (0.014396846, 0.6728515), (0.078897774, 0.67187494), (0.04667121, 0.67187494), (0.014396846, 0.6728515), (0.04667121, 0.67187494), (0.078897774, 0.67187494), (0.014396846, 0.6728515), (0.078897774, 0.67187494), (0.04667121, 0.67187494), (0.014396846, 0.6728515), (0.04667121, 0.67187494), (0.078897774, 0.67187494), (0.014396846, 0.6728515), (0.014396846, 0.6728515), (0.014396846, 0.6728515), (0.014396846, 0.6728515), (0.014396846, 0.6728515), (0.014396846, 0.6728515), (0.014396846, 0.67285144), (0.014396846, 0.6728515), (0.014396846, 0.6728515), (0.014396846, 0.6728515), (0.014396846, 0.6728515), (0.014396846, 0.6728515), (0.014396846, 0.6728515), (0.014396846, 0.6728515), (0.014396846, 0.6728515), (0.014396846, 0.6728515), (0.014396846, 0.6728515), (0.014396846, 0.6728515), (0.014396846, 0.6728515), (0.014396846, 0.6728515), (0.014396846, 0.6728515), (0.014396846, 0.6728515), (0.014396846, 0.6728515), (0.014396846, 0.6728515), (0.014396846, 0.6728515), (0.014396846, 0.6728515), (0.014396846, 0.6728515), (0.014396846, 0.6728515), (0.014396846, 0.6728515), (0.014396846, 0.6728515), (0.014396846, 0.6728515), (0.014396846, 0.67285156), (0.014396846, 0.67285144), (0.014396846, 0.67285156), (0.014396846, 0.67285144), (0.014396846, 0.67285144), (0.014396846, 0.6728515), (0.014396846, 0.6728515), (0.014396846, 0.67285156), (0.014396846, 0.67285144), (0.014396846, 0.6728515), (0.014396846, 0.6728515), (0.014396846, 0.6728515), (0.014396846, 0.6728515), (0.014396846, 0.6728515), (0.014396846, 0.6728515), (0.014396846, 0.6728515), (0.014396846, 0.6728515), (0.014396846, 0.6728515), (0.014396846, 0.6728515), (0.014396846, 0.6728515), (0.014396846, 0.67285156), (0.014396846, 0.6728515), (0.014396846, 0.6728515), (0.014396846, 0.6728515), (0.014396846, 0.6728515), (0.014396846, 0.6728515), (0.04667121, 0.67187494), (0.014396846, 0.6728515), (0.04667121, 0.67187494), (0.014396846, 0.6728515), (0.014396846, 0.67285144), (0.04667121, 0.67187494), (0.078897774, 0.67187494), (0.04667121, 0.67187494), (0.014396846, 0.6728515), (0.04667121, 0.67187494), (0.014396846, 0.6728515), (0.078897774, 0.67187494), (0.04667121, 0.67187494), (0.014396846, 0.6728515), (0.04667121, 0.67187494), (0.014396846, 0.6728515), (0.04667121, 0.67187494), (0.014396846, 0.6728515), (0.04667121, 0.67187494), (0.078897774, 0.67187494), (0.014396846, 0.6728515), (0.04667121, 0.67187494), (0.014396846, 0.6728515), (0.014396846, 0.6728515), (0.078897774, 0.67187494), (0.04667121, 0.67187494), (0.04667121, 0.67187494), (0.014396846, 0.6728515), (0.014396846, 0.6728515), (0.04667121, 0.67187494), (0.078897774, 0.67187494), (0.04667121, 0.67187494), (0.078897774, 0.67187494), (0.014396846, 0.6728515), (0.014396846, 0.6728515), (0.078897774, 0.67187494), (0.04667121, 0.67187494), (0.014396846, 0.6728515), (0.04667121, 0.67187494), (0.078897774, 0.67187494), (0.078897774, 0.67187494), (0.04667121, 0.67187494), (0.014396846, 0.6728515), (0.04667121, 0.67187494), (0.078897774, 0.67187494), (0.014396846, 0.67285144), (0.078897774, 0.67187494), (0.04667121, 0.67187494), (0.014396846, 0.6728515), (0.04667121, 0.67187494), (0.078897774, 0.67187494), (0.014396846, 0.6728515), (0.04667121, 0.67187494), (0.014396846, 0.6728515), (0.078897774, 0.67187494), (0.014396846, 0.6728515), (0.04667121, 0.67187494), (0.078897774, 0.67187494), (0.014396846, 0.6728515), (0.078897774, 0.67187494), (0.04667121, 0.67187494), (0.014396846, 0.6728515), (0.04667121, 0.67187494), (0.078897774, 0.67187494), (0.014396846, 0.6728515), (0.078897774, 0.67187494), (0.04667121, 0.67187494), (0.014396846, 0.6728515), (0.04667121, 0.67187494), (0.078897774, 0.67187494), (0.014396846, 0.6728515), (0.078897774, 0.67187494), (0.04667121, 0.67187494), (0.014396846, 0.6728515), (0.04667121, 0.67187494), (0.078897774, 0.67187494), (0.014396846, 0.6728515), (0.078897774, 0.67187494), (0.04667121, 0.67187494), (0.014396846, 0.6728515), (0.04667121, 0.67187494), (0.078897774, 0.67187494), (0.014396846, 0.67285144), (0.078897774, 0.67187494), (0.04667121, 0.67187494), (0.04667121, 0.67187494), (0.078897774, 0.67187494), (0.014396846, 0.6728515), (0.04667121, 0.67187494), (0.078897774, 0.67187494), (0.014396846, 0.6728515), (0.04667121, 0.67187494), (0.078897774, 0.67187494), (0.014396846, 0.67285144), (0.078897774, 0.67187494), (0.04667121, 0.67187494), (0.014396846, 0.6728515), (0.04667121, 0.67187494), (0.078897774, 0.67187494), (0.014396846, 0.67285156), (0.078897774, 0.67187494), (0.04667121, 0.67187494), (0.014396846, 0.67285144), (0.04667121, 0.67187494), (0.078897774, 0.67187494), (0.014396846, 0.6728515), (0.078897774, 0.67187494), (0.04667121, 0.67187494), (0.014396846, 0.6728515), (0.04667121, 0.67187494), (0.078897774, 0.67187494), (0.014396846, 0.6728515), (0.078897774, 0.67187494), (0.04667121, 0.67187494), (0.014396846, 0.6728515), (0.04667121, 0.67187494), (0.078897774, 0.67187494), (0.014396846, 0.6728515), (0.014396846, 0.6728515), (0.078897774, 0.67187494), (0.04667121, 0.67187494), (0.014396846, 0.6728515), (0.04667121, 0.67187494), (0.078897774, 0.67187494), (0.04667121, 0.67187494), (0.014396846, 0.6728515), (0.078897774, 0.67187494), (0.04667121, 0.67187494), (0.078897774, 0.67187494), (0.014396846, 0.6728515), (0.078897774, 0.67187494), (0.04667121, 0.67187494), (0.014396846, 0.6728515), (0.04667121, 0.67187494), (0.078897774, 0.67187494), (0.014396846, 0.6728515), (0.078897774, 0.67187494), (0.04667121, 0.67187494), (0.014396846, 0.6728515), (0.04667121, 0.67187494), (0.078897774, 0.67187494), (0.014396846, 0.6728515), (0.078897774, 0.67187494), (0.04667121, 0.67187494), (0.014396846, 0.6728515), (0.04667121, 0.67187494), (0.078897774, 0.67187494), (0.014396846, 0.6728515), (0.078897774, 0.67187494), (0.04667121, 0.67187494), (0.014396846, 0.6728515), (0.04667121, 0.67187494), (0.078897774, 0.67187494), (0.014396846, 0.6728515), (0.078897774, 0.67187494), (0.04667121, 0.67187494), (0.014396846, 0.6728515), (0.04667121, 0.67187494), (0.078897774, 0.67187494), (0.014396846, 0.6728515), (0.014396846, 0.6728515), (0.014396846, 0.67285144), (0.014396846, 0.6728515), (0.014396846, 0.6728515), (0.014396846, 0.6728515), (0.014396846, 0.6728515), (0.014396846, 0.6728515), (0.014396846, 0.6728515), (0.014396846, 0.6728515), (0.014396846, 0.6728515), (0.014396846, 0.6728515), (0.014396846, 0.67285144), (0.014396846, 0.6728515), (0.014396846, 0.6728515), (0.014396846, 0.6728515), (0.014396846, 0.6728515), (0.014396846, 0.6728515), (0.014396846, 0.6728515), (0.014396846, 0.6728515), (0.014396846, 0.6728515), (0.014396846, 0.6728515), (0.014396846, 0.6728515), (0.014396846, 0.6728515), (0.014396846, 0.6728515), (0.014396846, 0.6728515), (0.014396846, 0.6728515), (0.014396846, 0.6728515), (0.014396846, 0.6728515), (0.014396846, 0.6728515), (0.014396846, 0.6728515), (0.014396846, 0.6728515), (0.014396846, 0.6728515), (0.014396846, 0.6728515), (0.014396846, 0.67285144), (0.014396846, 0.6728515), (0.014396846, 0.67285144), (0.014396846, 0.6728515), (0.014396846, 0.67285156), (0.014396846, 0.67285144), (0.014396846, 0.6728515), (0.014396846, 0.6728515), (0.014396846, 0.6728515), (0.014396846, 0.6728515), (0.014396846, 0.6728515), (0.014396846, 0.6728515), (0.014396846, 0.6728515), (0.014396846, 0.6728515), (0.014396846, 0.6728515), (0.014396846, 0.6728515), (0.014396846, 0.6728515), (0.014396846, 0.6728515), (0.014396846, 0.6728515), (0.014396846, 0.6728515), (0.014396846, 0.6728515), (0.014396846, 0.6728515), (0.014396846, 0.6728515), (0.04667121, 0.67187494), (0.014396846, 0.6728515), (0.04667121, 0.67187494), (0.0143968165, 0.6728515), (0.014396846, 0.6728515), (0.04667121, 0.67187494), (0.078897774, 0.67187494), (0.04667121, 0.67187494), (0.014396846, 0.6728515), (0.04667121, 0.67187494), (0.014396846, 0.6728515), (0.078897774, 0.67187494), (0.04667121, 0.67187494), (0.014396846, 0.6728515), (0.04667121, 0.67187494), (0.014396846, 0.6728515), (0.04667121, 0.67187494), (0.014396846, 0.6728515), (0.04667121, 0.67187494), (0.078897774, 0.67187494), (0.014396846, 0.67285156), (0.04667121, 0.67187494), (0.014396846, 0.6728515), (0.014396846, 0.67285144), (0.078897774, 0.67187494), (0.04667121, 0.67187494), (0.04667121, 0.67187494), (0.014396846, 0.6728515), (0.014396846, 0.6728515), (0.04667121, 0.67187494), (0.078897774, 0.67187494), (0.04667121, 0.67187494), (0.078897774, 0.67187494), (0.014396846, 0.67285144), (0.014396846, 0.6728515), (0.078897774, 0.67187494), (0.04667121, 0.67187494), (0.014396846, 0.6728515), (0.04667121, 0.67187494), (0.078897774, 0.67187494), (0.078897774, 0.67187494), (0.04667121, 0.67187494), (0.014396846, 0.6728515), (0.04667121, 0.67187494), (0.078897774, 0.67187494), (0.014396846, 0.6728515), (0.078897774, 0.67187494), (0.04667121, 0.67187494), (0.014396846, 0.6728515), (0.04667121, 0.67187494), (0.078897774, 0.67187494), (0.014396846, 0.6728515), (0.04667121, 0.67187494), (0.014396846, 0.6728515), (0.078897774, 0.67187494), (0.014396846, 0.6728515), (0.04667121, 0.67187494), (0.078897774, 0.67187494), (0.014396846, 0.6728515), (0.078897774, 0.67187494), (0.04667121, 0.67187494), (0.014396846, 0.6728515), (0.04667121, 0.67187494), (0.078897774, 0.67187494), (0.014396846, 0.67285144), (0.078897774, 0.67187494), (0.04667121, 0.67187494), (0.014396846, 0.67285156), (0.04667121, 0.67187494), (0.078897774, 0.67187494), (0.014396846, 0.6728515), (0.078897774, 0.67187494), (0.04667121, 0.67187494), (0.014396846, 0.6728515), (0.04667121, 0.67187494), (0.078897774, 0.67187494), (0.014396846, 0.6728515), (0.078897774, 0.67187494), (0.04667121, 0.67187494), (0.014396846, 0.6728515), (0.04667121, 0.67187494), (0.078897774, 0.67187494), (0.014396846, 0.6728515), (0.078897774, 0.67187494), (0.04667121, 0.67187494), (0.04667121, 0.67187494), (0.078897774, 0.67187494), (0.014396846, 0.6728515), (0.04667121, 0.67187494), (0.078897774, 0.67187494), (0.014396846, 0.6728515), (0.04667121, 0.67187494), (0.078897774, 0.67187494), (0.014396846, 0.6728515), (0.078897774, 0.67187494), (0.04667121, 0.67187494), (0.014396846, 0.6728515), (0.04667121, 0.67187494), (0.078897774, 0.67187494), (0.014396846, 0.6728515), (0.078897774, 0.67187494), (0.04667121, 0.67187494), (0.014396846, 0.6728515), (0.04667121, 0.67187494), (0.078897774, 0.67187494), (0.014396846, 0.6728515), (0.078897774, 0.67187494), (0.04667121, 0.67187494), (0.014396846, 0.6728515), (0.04667121, 0.67187494), (0.078897774, 0.67187494), (0.014396846, 0.6728515), (0.078897774, 0.67187494), (0.04667121, 0.67187494), (0.014396846, 0.67285144), (0.04667121, 0.67187494), (0.078897774, 0.67187494), (0.014396846, 0.6728515), (0.014396846, 0.67285144), (0.078897774, 0.67187494), (0.04667121, 0.67187494), (0.014396846, 0.6728515), (0.04667121, 0.67187494), (0.078897774, 0.67187494), (0.04667121, 0.67187494), (0.014396846, 0.6728515), (0.078897774, 0.67187494), (0.04667121, 0.67187494), (0.078897774, 0.67187494), (0.014396846, 0.6728515), (0.078897774, 0.67187494), (0.04667121, 0.67187494), (0.014396846, 0.6728515), (0.04667121, 0.67187494), (0.078897774, 0.67187494), (0.014396846, 0.6728515), (0.078897774, 0.67187494), (0.04667121, 0.67187494), (0.014396846, 0.6728515), (0.04667121, 0.67187494), (0.078897774, 0.67187494), (0.014396846, 0.6728515), (0.078897774, 0.67187494), (0.04667121, 0.67187494), (0.014396846, 0.67285144), (0.04667121, 0.67187494), (0.078897774, 0.67187494), (0.014396846, 0.67285156), (0.078897774, 0.67187494), (0.04667121, 0.67187494), (0.014396846, 0.67285144), (0.04667121, 0.67187494), (0.078897774, 0.67187494), (0.014396846, 0.67285156), (0.078897774, 0.67187494), (0.04667121, 0.67187494), (0.014396846, 0.67285144), (0.04667121, 0.67187494), (0.078897774, 0.67187494), (0.014396846, 0.6728515), (0.014396846, 0.6728515), (0.014396846, 0.6728515), (0.014396846, 0.6728515), (0.014396846, 0.67285144), (0.014396846, 0.6728515), (0.014396846, 0.6728515), (0.014396846, 0.6728515), (0.014396846, 0.67285156), (0.014396846, 0.6728515), (0.014396846, 0.67285144), (0.0143968165, 0.6728515), (0.014396846, 0.6728515), (0.014396846, 0.6728515), (0.014396846, 0.6728515), (0.014396846, 0.6728515), (0.014396846, 0.6728515), (0.014396846, 0.6728515), (0.014396846, 0.6728515), (0.014396846, 0.6728515), (0.014396846, 0.6728515), (0.014396846, 0.6728515), (0.014396846, 0.6728515), (0.014396846, 0.6728515), (0.014396846, 0.6728515), (0.014396846, 0.6728515), (0.014396846, 0.6728515), (0.014396846, 0.6728515), (0.014396846, 0.67285144), (0.014396846, 0.67285156), (0.014396846, 0.6728515), (0.014396846, 0.6728515), (0.014396846, 0.6728515), (0.014396846, 0.6728515), (0.014396846, 0.6728515), (0.014396846, 0.6728515), (0.014396846, 0.6728515), (0.014396846, 0.6728515), (0.014396846, 0.6728515), (0.014396846, 0.6728515), (0.014396846, 0.6728515), (0.014396846, 0.6728515), (0.014396846, 0.6728515), (0.014396846, 0.67285144), (0.014396846, 0.6728515), (0.014396846, 0.67285144), (0.014396846, 0.6728515), (0.014396846, 0.6728515), (0.014396846, 0.6728515), (0.014396846, 0.6728515), (0.014396846, 0.6728515), (0.014396846, 0.6728515), (0.014396846, 0.67285144), (0.014396846, 0.67285156), (0.014396846, 0.67285144), (0.014396846, 0.67285156), (0.014396846, 0.67285144), (0.014396846, 0.6728515), (0.014396846, 0.6728515), (0.014396846, 0.6728515), (0.014396846, 0.6728515), (0.014396846, 0.6728515), (0.014396846, 0.6728515), (0.014396846, 0.6728515), (0.014396846, 0.6728515), (0.014396846, 0.6728515), (0.014396846, 0.6728515), (0.014396846, 0.6728515), (0.014396846, 0.6728515), (0.014396846, 0.6728515), (0.014396846, 0.6728515), (0.014396846, 0.6728515), (0.014396846, 0.6728515), (0.014396846, 0.6728515), (0.014396846, 0.6728515), (0.014396846, 0.6728515), (0.014396846, 0.6728515), (0.014396846, 0.6728515), (0.014396846, 0.6728515), (0.014396846, 0.6728515), (0.014396846, 0.6728515), (0.0143968165, 0.6728515), (0.014396846, 0.6728515), (0.014396846, 0.6728515), (0.014396846, 0.6728515), (0.0143968165, 0.6728515), (0.014396846, 0.6728515), (0.014396846, 0.6728515), (0.014396846, 0.6728515), (0.014396846, 0.6728515), (0.014396846, 0.6728515), (0.014396846, 0.6728515), (0.014396846, 0.6728515), (0.014396846, 0.6728515), (0.014396846, 0.6728515), (0.014396846, 0.6728515), (0.014396846, 0.6728515)] (
                interpolation = "faceVarying"
            )
            int[] primvars:st:indices = [48, 51, 166, 165, 31, 7, 9, 52, 22, 27, 10, 8, 159, 17, 177, 181, 87, 82, 193, 173, 125, 129, 206, 205, 3, 170, 177, 17, 124, 26, 21, 88, 82, 79, 192, 193, 27, 125, 205, 182, 28, 23, 163, 162, 15, 121, 179, 175, 79, 76, 191, 192, 121, 118, 204, 179, 13, 4, 161, 160, 4, 34, 178, 161, 76, 73, 190, 191, 118, 117, 203, 204, 16, 157, 122, 14, 158, 154, 119, 123, 155, 151, 115, 120, 152, 148, 112, 116, 149, 145, 109, 113, 146, 142, 106, 110, 143, 139, 103, 107, 140, 136, 100, 104, 137, 133, 97, 101, 134, 130, 94, 98, 131, 127, 91, 95, 128, 126, 89, 92, 73, 70, 189, 190, 117, 114, 202, 203, 34, 37, 176, 178, 70, 67, 188, 189, 114, 111, 201, 202, 1, 15, 175, 164, 67, 64, 187, 188, 111, 108, 200, 201, 33, 28, 162, 169, 64, 61, 186, 187, 108, 105, 199, 200, 37, 42, 172, 176, 61, 58, 185, 186, 105, 102, 198, 199, 10, 27, 182, 174, 58, 55, 184, 185, 102, 99, 197, 198, 23, 20, 167, 163, 55, 53, 183, 184, 99, 96, 196, 197, 53, 10, 174, 183, 96, 93, 195, 196, 93, 90, 194, 195, 22, 8, 168, 180, 0, 49, 85, 2, 50, 46, 83, 86, 47, 43, 80, 84, 44, 40, 77, 81, 41, 38, 74, 78, 39, 35, 71, 75, 36, 5, 68, 72, 6, 11, 65, 69, 12, 18, 62, 66, 19, 24, 59, 63, 25, 29, 56, 60, 30, 32, 54, 57, 90, 22, 180, 194, 3, 87, 173, 170, 175, 179, 166, 164, 156, 159, 181, 215, 153, 156, 215, 214, 51, 1, 164, 166, 150, 153, 214, 213, 42, 45, 171, 172, 147, 150, 213, 212, 144, 147, 212, 211, 141, 144, 211, 210, 45, 48, 165, 171, 184, 183, 205, 206, 195, 194, 169, 162, 201, 200, 178, 176, 202, 201, 176, 172, 203, 202, 172, 171, 170, 173, 181, 177, 204, 203, 171, 165, 179, 204, 165, 166, 174, 182, 205, 183, 200, 199, 161, 178, 199, 198, 160, 161, 198, 197, 167, 160, 197, 196, 163, 167, 196, 195, 162, 163, 168, 169, 194, 180, 173, 193, 215, 181, 193, 192, 214, 215, 192, 191, 213, 214, 191, 190, 212, 213, 190, 189, 211, 212, 189, 188, 210, 211, 188, 187, 209, 210, 187, 186, 208, 209, 186, 185, 207, 208, 185, 184, 206, 207, 129, 132, 207, 206, 20, 13, 160, 167, 132, 135, 208, 207, 8, 33, 169, 168, 135, 138, 209, 208, 138, 141, 210, 209, 15, 1, 3, 17, 264, 267, 382, 381, 247, 223, 225, 268, 238, 243, 226, 224, 375, 233, 393, 397, 303, 298, 409, 389, 341, 345, 422, 421, 219, 386, 393, 233, 340, 242, 237, 304, 298, 295, 408, 409, 243, 341, 421, 398, 244, 239, 379, 378, 231, 337, 395, 391, 295, 292, 407, 408, 337, 334, 420, 395, 229, 220, 377, 376, 220, 250, 394, 377, 292, 289, 406, 407, 334, 333, 419, 420, 232, 373, 338, 230, 374, 370, 335, 339, 371, 367, 331, 336, 368, 364, 328, 332, 365, 361, 325, 329, 362, 358, 322, 326, 359, 355, 319, 323, 356, 352, 316, 320, 353, 349, 313, 317, 350, 346, 310, 314, 347, 343, 307, 311, 344, 342, 305, 308, 289, 286, 405, 406, 333, 330, 418, 419, 250, 253, 392, 394, 286, 283, 404, 405, 330, 327, 417, 418, 217, 231, 391, 380, 283, 280, 403, 404, 327, 324, 416, 417, 249, 244, 378, 385, 280, 277, 402, 403, 324, 321, 415, 416, 253, 258, 388, 392, 277, 274, 401, 402, 321, 318, 414, 415, 226, 243, 398, 390, 274, 271, 400, 401, 318, 315, 413, 414, 239, 236, 383, 379, 271, 269, 399, 400, 315, 312, 412, 413, 269, 226, 390, 399, 312, 309, 411, 412, 309, 306, 410, 411, 238, 224, 384, 396, 216, 265, 301, 218, 266, 262, 299, 302, 263, 259, 296, 300, 260, 256, 293, 297, 257, 254, 290, 294, 255, 251, 287, 291, 252, 221, 284, 288, 222, 227, 281, 285, 228, 234, 278, 282, 235, 240, 275, 279, 241, 245, 272, 276, 246, 248, 270, 273, 306, 238, 396, 410, 219, 303, 389, 386, 391, 395, 382, 380, 372, 375, 397, 431, 369, 372, 431, 430, 267, 217, 380, 382, 366, 369, 430, 429, 258, 261, 387, 388, 363, 366, 429, 428, 360, 363, 428, 427, 357, 360, 427, 426, 261, 264, 381, 387, 400, 399, 421, 422, 411, 410, 385, 378, 417, 416, 394, 392, 418, 417, 392, 388, 419, 418, 388, 387, 386, 389, 397, 393, 420, 419, 387, 381, 395, 420, 381, 382, 390, 398, 421, 399, 416, 415, 377, 394, 415, 414, 376, 377, 414, 413, 383, 376, 413, 412, 379, 383, 412, 411, 378, 379, 384, 385, 410, 396, 389, 409, 431, 397, 409, 408, 430, 431, 408, 407, 429, 430, 407, 406, 428, 429, 406, 405, 427, 428, 405, 404, 426, 427, 404, 403, 425, 426, 403, 402, 424, 425, 402, 401, 423, 424, 401, 400, 422, 423, 345, 348, 423, 422, 236, 229, 376, 383, 348, 351, 424, 423, 224, 249, 385, 384, 351, 354, 425, 424, 354, 357, 426, 425, 231, 217, 219, 233, 480, 483, 598, 597, 463, 439, 441, 484, 454, 459, 442, 440, 591, 449, 609, 613, 519, 514, 625, 605, 557, 561, 638, 637, 435, 602, 609, 449, 556, 458, 453, 520, 514, 511, 624, 625, 459, 557, 637, 614, 460, 455, 595, 594, 447, 553, 611, 607, 511, 508, 623, 624, 553, 550, 636, 611, 445, 436, 593, 592, 436, 466, 610, 593, 508, 505, 622, 623, 550, 549, 635, 636, 448, 589, 554, 446, 590, 586, 551, 555, 587, 583, 547, 552, 584, 580, 544, 548, 581, 577, 541, 545, 578, 574, 538, 542, 575, 571, 535, 539, 572, 568, 532, 536, 569, 565, 529, 533, 566, 562, 526, 530, 563, 559, 523, 527, 560, 558, 521, 524, 505, 502, 621, 622, 549, 546, 634, 635, 466, 469, 608, 610, 502, 499, 620, 621, 546, 543, 633, 634, 433, 447, 607, 596, 499, 496, 619, 620, 543, 540, 632, 633, 465, 460, 594, 601, 496, 493, 618, 619, 540, 537, 631, 632, 469, 474, 604, 608, 493, 490, 617, 618, 537, 534, 630, 631, 442, 459, 614, 606, 490, 487, 616, 617, 534, 531, 629, 630, 455, 452, 599, 595, 487, 485, 615, 616, 531, 528, 628, 629, 485, 442, 606, 615, 528, 525, 627, 628, 525, 522, 626, 627, 454, 440, 600, 612, 432, 481, 517, 434, 482, 478, 515, 518, 479, 475, 512, 516, 476, 472, 509, 513, 473, 470, 506, 510, 471, 467, 503, 507, 468, 437, 500, 504, 438, 443, 497, 501, 444, 450, 494, 498, 451, 456, 491, 495, 457, 461, 488, 492, 462, 464, 486, 489, 522, 454, 612, 626, 435, 519, 605, 602, 607, 611, 598, 596, 588, 591, 613, 647, 585, 588, 647, 646, 483, 433, 596, 598, 582, 585, 646, 645, 474, 477, 603, 604, 579, 582, 645, 644, 576, 579, 644, 643, 573, 576, 643, 642, 477, 480, 597, 603, 616, 615, 637, 638, 627, 626, 601, 594, 633, 632, 610, 608, 634, 633, 608, 604, 635, 634, 604, 603, 602, 605, 613, 609, 636, 635, 603, 597, 611, 636, 597, 598, 606, 614, 637, 615, 632, 631, 593, 610, 631, 630, 592, 593, 630, 629, 599, 592, 629, 628, 595, 599, 628, 627, 594, 595, 600, 601, 626, 612, 605, 625, 647, 613, 625, 624, 646, 647, 624, 623, 645, 646, 623, 622, 644, 645, 622, 621, 643, 644, 621, 620, 642, 643, 620, 619, 641, 642, 619, 618, 640, 641, 618, 617, 639, 640, 617, 616, 638, 639, 561, 564, 639, 638, 452, 445, 592, 599, 564, 567, 640, 639, 440, 465, 601, 600, 567, 570, 641, 640, 570, 573, 642, 641, 447, 433, 435, 449, 651, 650, 649, 648, 652, 654, 658, 656, 650, 654, 652, 649, 651, 655, 654, 650, 648, 653, 655, 651, 649, 652, 653, 648, 659, 657, 656, 658, 658, 654, 662, 666, 655, 653, 657, 659, 655, 659, 667, 663, 662, 663, 667, 666, 661, 660, 664, 665, 654, 655, 663, 662, 656, 657, 665, 664, 657, 653, 661, 665, 652, 656, 664, 660, 653, 652, 660, 661, 659, 658, 666, 667, 671, 668, 669, 670, 672, 676, 678, 674, 670, 669, 672, 674, 671, 670, 674, 675, 668, 671, 675, 673, 669, 668, 673, 672, 679, 678, 676, 677, 678, 686, 682, 674, 675, 679, 677, 673, 675, 683, 687, 679, 682, 686, 687, 683, 681, 685, 684, 680, 674, 682, 683, 675, 676, 684, 685, 677, 677, 685, 681, 673, 672, 680, 684, 676, 673, 681, 680, 672, 679, 687, 686, 678]
            uniform token subdivisionScheme = "none"
            custom string userProperties:blender:data_name = "Plane.014"
        }
    }

    def Scope "_materials"
    {
        def Material "Atlas"
        {
            token outputs:surface.connect = </root/_materials/Atlas/Principled_BSDF.outputs:surface>
            custom string userProperties:blender:data_name = "Atlas"

            def Shader "Principled_BSDF"
            {
                uniform token info:id = "UsdPreviewSurface"
                float inputs:clearcoat = 0
                float inputs:clearcoatRoughness = 0.03
                color3f inputs:diffuseColor.connect = </root/_materials/Atlas/Image_Texture.outputs:rgb>
                color3f inputs:emissiveColor = (0, 0, 0)
                float inputs:ior = 1.5
                float inputs:metallic = 0
                float inputs:opacity = 1
                float inputs:roughness = 1
                float inputs:specular = 0.5
                token outputs:surface
            }

            def Shader "Image_Texture"
            {
                uniform token info:id = "UsdUVTexture"
                token inputs:sourceColorSpace = "sRGB"
                float2 inputs:st.connect = </root/_materials/Atlas/uvmap.outputs:result>
                token inputs:wrapS = "repeat"
                token inputs:wrapT = "repeat"
                float3 outputs:rgb
            }

            def Shader "uvmap"
            {
                uniform token info:id = "UsdPrimvarReader_float2"
                string inputs:varname = "st"
                float2 outputs:result
            }
        }
    }
}

