#usda 1.0
(
    defaultPrim = "root"
    doc = "Blender v5.1.2"
    metersPerUnit = 1
    upAxis = "Y"
)

def Xform "root" (
    customData = {
        dictionary Blender = {
            bool generated = 1
        }
    }
)
{
    float3 xformOp:rotateXYZ = (-90, -0, 0)
    uniform token[] xformOpOrder = ["xformOp:rotateXYZ"]

    def Xform "Wheel"
    {
        custom string userProperties:blender:object_name = "Wheel"

        def Mesh "Cylinder_009" (
            active = true
            prepend apiSchemas = ["MaterialBindingAPI"]
        )
        {
            uniform bool doubleSided = 1
            float3[] extent = [(-0.28649127, -0.28649127, 0.008071266), (0.28649127, 0.28649127, 0.21221396)]
            int[] faceVertexCounts = [4, 4, 4, 4, 4, 4, 4, 4, 4, 4, 4, 4, 4, 4, 4, 4, 4, 4, 4, 4, 4, 4, 4, 4, 4, 4, 4, 4, 4, 4, 4, 4, 4, 4, 4, 4, 4, 4, 4, 4, 4, 4, 4, 4, 4, 4, 4, 4, 4, 4, 4, 4, 4, 4, 4, 4, 4, 4, 4, 4, 4, 4, 4, 4, 4, 4, 4, 4, 4, 4, 4, 4, 4, 4, 4, 4, 4, 4, 4, 4, 4, 4, 4, 4, 4, 4, 4, 4, 4, 4, 4, 4, 4, 4, 4, 4, 4, 4, 4, 4, 4, 4, 4, 4, 4, 4, 4, 4, 4, 4, 4, 4, 4, 4, 4, 4, 4, 4, 4, 4, 4, 4, 4, 4, 4, 4, 4, 4, 4, 4, 4, 4, 4, 4, 4, 4, 4, 4, 4, 4, 4, 4, 4, 4, 4, 4, 4, 4, 4, 4, 4, 4, 4, 4, 4, 4, 4, 4, 4, 4, 4, 4, 4, 4, 4, 4, 4, 4, 4, 4, 4, 4, 4, 4, 4, 4, 4, 4, 4, 4, 4, 4, 4, 4, 4, 4, 4, 4, 4, 4, 4, 4, 4, 4, 4, 4, 4, 4, 4, 4, 4, 4, 4, 4, 4, 4, 4, 4, 4, 4, 4, 4, 4, 4, 4, 4, 4, 4, 4, 4, 4, 4, 4, 4, 4, 4, 4, 4, 4, 4, 4, 4, 4, 4, 4, 4, 4, 4, 4, 4, 4, 4, 4, 4, 4, 4, 4, 4, 4, 4, 4, 4, 4, 4, 4, 4, 4, 4, 4, 4, 4, 4, 4, 4, 4, 4, 4, 4, 4, 4, 4, 4, 4, 4, 4, 4, 4, 4, 4, 4, 4, 4, 4, 4, 4, 4, 4, 4, 4, 4, 4, 4, 4, 4, 4, 4, 4, 4, 4, 4, 4, 4, 4, 4]
            int[] faceVertexIndices = [271, 269, 185, 181, 186, 190, 266, 268, 190, 194, 264, 266, 194, 198, 262, 264, 198, 202, 260, 262, 202, 206, 258, 260, 206, 210, 256, 258, 210, 214, 254, 256, 214, 218, 252, 254, 218, 222, 250, 252, 222, 226, 248, 250, 226, 230, 246, 248, 230, 234, 244, 246, 234, 238, 240, 244, 90, 92, 93, 91, 30, 236, 179, 0, 67, 95, 94, 64, 182, 186, 268, 270, 174, 173, 172, 175, 245, 241, 237, 233, 247, 245, 233, 229, 249, 247, 229, 225, 251, 249, 225, 221, 253, 251, 221, 217, 255, 253, 217, 213, 257, 255, 213, 209, 259, 257, 209, 205, 261, 259, 205, 201, 263, 261, 201, 197, 265, 263, 197, 193, 267, 265, 193, 189, 269, 267, 189, 185, 242, 271, 181, 178, 0, 179, 180, 2, 28, 232, 236, 30, 26, 228, 232, 28, 24, 224, 228, 26, 22, 220, 224, 24, 20, 216, 220, 22, 18, 212, 216, 20, 16, 208, 212, 18, 14, 204, 208, 16, 12, 200, 204, 14, 10, 196, 200, 12, 8, 192, 196, 10, 6, 188, 192, 8, 4, 184, 188, 6, 2, 180, 184, 4, 241, 242, 178, 237, 177, 182, 270, 243, 83, 81, 80, 82, 91, 89, 88, 90, 73, 71, 70, 72, 68, 70, 71, 69, 85, 83, 82, 84, 65, 68, 69, 66, 103, 158, 95, 67, 99, 105, 68, 65, 87, 85, 84, 86, 72, 74, 75, 73, 77, 75, 74, 76, 89, 87, 86, 88, 141, 145, 88, 86, 118, 114, 73, 75, 79, 77, 76, 78, 95, 93, 92, 94, 81, 79, 78, 80, 146, 142, 87, 89, 117, 121, 76, 74, 145, 149, 90, 88, 122, 118, 75, 77, 150, 146, 89, 91, 121, 125, 78, 76, 149, 153, 92, 90, 126, 122, 77, 79, 154, 150, 91, 93, 125, 129, 80, 78, 0, 2, 98, 97, 153, 157, 94, 92, 130, 126, 79, 81, 3, 1, 102, 101, 158, 154, 93, 95, 129, 133, 82, 80, 106, 100, 66, 69, 134, 130, 81, 83, 133, 137, 84, 82, 110, 106, 69, 71, 105, 109, 70, 68, 138, 134, 83, 85, 109, 113, 72, 70, 137, 141, 86, 84, 114, 110, 71, 73, 142, 138, 85, 87, 113, 117, 74, 72, 30, 0, 97, 156, 5, 3, 101, 107, 2, 4, 104, 98, 100, 103, 67, 66, 4, 6, 108, 104, 7, 5, 107, 111, 6, 8, 112, 108, 9, 7, 111, 115, 8, 10, 116, 112, 11, 9, 115, 119, 10, 12, 120, 116, 13, 11, 119, 123, 12, 14, 124, 120, 15, 13, 123, 127, 14, 16, 128, 124, 17, 15, 127, 131, 16, 18, 132, 128, 19, 17, 131, 135, 18, 20, 136, 132, 21, 19, 135, 139, 20, 22, 140, 136, 23, 21, 139, 143, 22, 24, 144, 140, 25, 23, 143, 147, 24, 26, 148, 144, 27, 25, 147, 151, 26, 28, 152, 148, 29, 27, 151, 155, 28, 30, 156, 152, 31, 29, 155, 159, 96, 99, 65, 64, 1, 31, 159, 102, 97, 98, 99, 96, 101, 102, 103, 100, 98, 104, 105, 99, 107, 101, 100, 106, 104, 108, 109, 105, 111, 107, 106, 110, 108, 112, 113, 109, 115, 111, 110, 114, 112, 116, 117, 113, 119, 115, 114, 118, 116, 120, 121, 117, 123, 119, 118, 122, 120, 124, 125, 121, 127, 123, 122, 126, 124, 128, 129, 125, 131, 127, 126, 130, 128, 132, 133, 129, 135, 131, 130, 134, 132, 136, 137, 133, 139, 135, 134, 138, 136, 140, 141, 137, 143, 139, 138, 142, 140, 144, 145, 141, 147, 143, 142, 146, 144, 148, 149, 145, 151, 147, 146, 150, 148, 152, 153, 149, 155, 151, 150, 154, 152, 156, 157, 153, 159, 155, 154, 158, 156, 97, 96, 157, 102, 159, 158, 103, 157, 96, 64, 94, 176, 1, 3, 183, 183, 3, 5, 187, 187, 5, 7, 191, 191, 7, 9, 195, 195, 9, 11, 199, 199, 11, 13, 203, 203, 13, 15, 207, 207, 15, 17, 211, 211, 17, 19, 215, 215, 19, 21, 219, 219, 21, 23, 223, 223, 23, 25, 227, 227, 25, 27, 231, 231, 27, 29, 235, 235, 29, 31, 239, 239, 31, 1, 176, 176, 183, 285, 173, 233, 237, 168, 164, 215, 219, 54, 50, 200, 196, 33, 37, 181, 185, 283, 287, 260, 258, 295, 294, 240, 243, 289, 303, 202, 198, 35, 39, 259, 261, 294, 295, 236, 232, 165, 169, 242, 241, 303, 289, 217, 221, 56, 52, 199, 203, 38, 34, 184, 180, 286, 282, 238, 234, 167, 175, 244, 240, 303, 302, 186, 182, 284, 280, 262, 260, 294, 293, 235, 239, 174, 166, 241, 245, 302, 303, 220, 216, 53, 57, 201, 205, 40, 36, 183, 187, 281, 285, 261, 263, 293, 294, 222, 218, 55, 59, 237, 178, 171, 168, 246, 244, 302, 301, 219, 223, 58, 54, 204, 200, 37, 41, 185, 189, 279, 283, 264, 262, 293, 292, 245, 247, 301, 302, 206, 202, 39, 43, 263, 265, 292, 293, 179, 236, 169, 170, 221, 225, 60, 56, 203, 207, 42, 38, 188, 184, 282, 278, 248, 246, 301, 300, 190, 186, 280, 276, 266, 264, 292, 291, 177, 238, 175, 172, 247, 249, 300, 301, 224, 220, 57, 61, 205, 209, 44, 40, 187, 191, 277, 281, 265, 267, 291, 292, 226, 222, 59, 63, 238, 177, 243, 240, 170, 169, 168, 171, 166, 174, 175, 167, 169, 165, 164, 168, 162, 166, 167, 163, 165, 161, 160, 164, 62, 162, 163, 63, 161, 61, 60, 160, 58, 62, 63, 59, 61, 57, 56, 60, 54, 58, 59, 55, 57, 53, 52, 56, 50, 54, 55, 51, 53, 49, 48, 52, 46, 50, 51, 47, 49, 45, 44, 48, 42, 46, 47, 43, 45, 41, 40, 44, 38, 42, 43, 39, 41, 37, 36, 40, 34, 38, 39, 35, 37, 33, 32, 36, 273, 34, 35, 272, 33, 274, 275, 32, 277, 273, 272, 276, 274, 278, 279, 275, 281, 277, 276, 280, 278, 282, 283, 279, 285, 281, 280, 284, 282, 286, 287, 283, 173, 285, 284, 172, 286, 170, 171, 287, 218, 214, 51, 55, 257, 259, 295, 296, 182, 177, 172, 284, 197, 201, 36, 32, 216, 212, 49, 53, 231, 235, 166, 162, 258, 256, 296, 295, 180, 179, 170, 286, 234, 230, 163, 167, 178, 181, 287, 171, 195, 199, 34, 273, 213, 217, 52, 48, 232, 228, 161, 165, 255, 257, 296, 297, 198, 194, 272, 35, 256, 254, 297, 296, 271, 242, 289, 288, 196, 192, 274, 33, 211, 215, 50, 46, 229, 233, 164, 160, 214, 210, 47, 51, 253, 255, 297, 298, 243, 270, 288, 289, 193, 197, 32, 275, 212, 208, 45, 49, 227, 231, 162, 62, 254, 252, 298, 297, 230, 226, 63, 163, 269, 271, 288, 290, 191, 195, 273, 277, 209, 213, 48, 44, 228, 224, 61, 161, 251, 253, 298, 299, 270, 268, 290, 288, 194, 190, 276, 272, 252, 250, 299, 298, 192, 188, 278, 274, 207, 211, 46, 42, 225, 229, 160, 60, 267, 269, 290, 291, 210, 206, 43, 47, 249, 251, 299, 300, 268, 266, 291, 290, 189, 193, 275, 279, 208, 204, 41, 45, 223, 227, 62, 58, 250, 248, 300, 299, 239, 176, 173, 174, 64, 65, 66, 67]
            rel material:binding = </root/_materials/Atlas>
            normal3f[] normals = [(0.36316666, 0.8767617, 0.31527594), (0.67104435, 0.67104447, 0.3152758), (0.6613271, 0.66132694, -0.35396785), (0.3579078, 0.86406523, -0.35396796), (0.66132724, 0.661327, 0.35396722), (0.86406565, 0.3579075, 0.3539673), (0.87676173, 0.36316645, -0.3152762), (0.6710444, 0.67104435, -0.315276), (0.86406565, 0.3579075, 0.3539673), (0.9352577, 1.0821542e-8, 0.3539678), (0.94899994, -5.3034963e-9, -0.31527615), (0.87676173, 0.36316645, -0.3152762), (0.9352577, 1.0821542e-8, 0.3539678), (0.8640654, -0.3579075, 0.35396793), (0.87676185, -0.3631666, -0.3152756), (0.94899994, -5.3034963e-9, -0.31527615), (0.8640654, -0.3579075, 0.35396793), (0.6613271, -0.6613269, 0.35396767), (0.6710446, -0.67104435, -0.31527546), (0.87676185, -0.3631666, -0.3152756), (0.6613271, -0.6613269, 0.35396767), (0.3579077, -0.8640655, 0.35396722), (0.3631668, -0.876762, -0.31527513), (0.6710446, -0.67104435, -0.31527546), (0.3579077, -0.8640655, 0.35396722), (3.6793247e-7, -0.93525755, 0.3539679), (3.1555794e-7, -0.9490002, -0.31527564), (0.3631668, -0.876762, -0.31527513), (3.6793247e-7, -0.93525755, 0.3539679), (-0.3579078, -0.86406535, 0.35396776), (-0.36316633, -0.8767618, -0.31527594), (3.1555794e-7, -0.9490002, -0.31527564), (-0.3579078, -0.86406535, 0.35396776), (-0.6613272, -0.66132706, 0.3539675), (-0.67104423, -0.6710445, -0.31527582), (-0.36316633, -0.8767618, -0.31527594), (-0.6613272, -0.66132706, 0.3539675), (-0.86406547, -0.35790738, 0.35396776), (-0.87676185, -0.36316645, -0.31527567), (-0.67104423, -0.6710445, -0.31527582), (-0.86406547, -0.35790738, 0.35396776), (-0.93525773, 3.4628928e-7, 0.35396743), (-0.9490002, 2.4396076e-7, -0.31527567), (-0.87676185, -0.36316645, -0.31527567), (-0.93525773, 3.4628928e-7, 0.35396743), (-0.8640654, 0.3579078, 0.35396755), (-0.8767617, 0.36316675, -0.31527588), (-0.9490002, 2.4396076e-7, -0.31527567), (-0.8640654, 0.3579078, 0.35396755), (-0.6613274, 0.6613272, 0.35396668), (-0.6710445, 0.6710447, -0.31527492), (-0.8767617, 0.36316675, -0.31527588), (-0.6613274, 0.6613272, 0.35396668), (-0.35790795, 0.8640659, 0.3539662), (-0.36316657, 0.8767622, -0.31527457), (-0.6710445, 0.6710447, -0.31527492), (0.92387944, -0.38268363, 5.590727e-8), (0.70710665, -0.707107, 1.1667603e-7), (0.70710665, -0.70710695, 1.1667601e-7), (0.92387944, -0.38268363, 5.590728e-8), (-0.23238929, 0.5610376, -0.79450107), (-0.38186696, 0.92190903, 0.065279), (7.1189675e-8, 0.997867, 0.06527978), (9.641891e-8, 0.6072625, -0.79450125), (-3.0951114e-7, -1, 1.9446023e-7), (0.38268322, -0.9238797, 1.5556816e-7), (0.38268313, -0.9238796, 1.5556815e-7), (-2.9983886e-7, -1, 1.9446021e-7), (0.35790768, 0.8640654, 0.35396752), (0.66132724, 0.661327, 0.35396722), (0.6710444, 0.67104435, -0.315276), (0.3631666, 0.87676173, -0.31527606), (0, 1.3257337e-8, 1), (0, 2.6514485e-8, 1), (-1.6682938e-7, 0.43657306, 0.8996688), (-0.16707005, 0.40334168, 0.8996683), (-0.67104435, 0.67104495, 0.31527472), (-0.36316645, 0.8767624, 0.31527445), (-0.35790765, 0.8640657, -0.35396683), (-0.66132724, 0.6613272, -0.3539671), (-0.8767619, 0.3631669, 0.31527528), (-0.67104435, 0.67104495, 0.31527472), (-0.66132724, 0.6613272, -0.3539671), (-0.86406547, 0.35790777, -0.35396737), (-0.9490002, 2.1479154e-7, 0.31527555), (-0.8767619, 0.3631669, 0.31527528), (-0.86406547, 0.35790777, -0.35396737), (-0.93525773, 1.7314464e-7, -0.35396743), (-0.8767615, -0.36316663, 0.31527638), (-0.9490002, 2.1479154e-7, 0.31527555), (-0.93525773, 1.7314464e-7, -0.35396743), (-0.8640653, -0.3579077, -0.35396776), (-0.67104405, -0.6710445, 0.3152763), (-0.8767615, -0.36316663, 0.31527638), (-0.8640653, -0.3579077, -0.35396776), (-0.6613269, -0.6613274, -0.35396728), (-0.36316642, -0.8767617, 0.31527612), (-0.67104405, -0.6710445, 0.3152763), (-0.6613269, -0.6613274, -0.35396728), (-0.3579075, -0.8640655, -0.35396746), (1.9357756e-7, -0.9490002, 0.31527564), (-0.36316642, -0.8767617, 0.31527612), (-0.3579075, -0.8640655, -0.35396746), (3.030031e-7, -0.93525773, -0.35396737), (0.36316663, -0.876762, 0.31527525), (1.9357756e-7, -0.9490002, 0.31527564), (3.030031e-7, -0.93525773, -0.35396737), (0.3579076, -0.8640657, -0.35396698), (0.67104423, -0.67104447, 0.3152759), (0.36316663, -0.876762, 0.31527525), (0.3579076, -0.8640657, -0.35396698), (0.6613268, -0.66132724, -0.3539678), (0.8767617, -0.3631667, 0.31527606), (0.67104423, -0.67104447, 0.3152759), (0.6613268, -0.66132724, -0.3539678), (0.8640653, -0.35790774, -0.35396785), (0.94900006, 1.8562233e-8, 0.3152758), (0.8767617, -0.3631667, 0.31527606), (0.8640653, -0.35790774, -0.35396785), (0.9352577, -4.869694e-8, -0.35396776), (0.87676173, 0.36316666, 0.3152758), (0.94900006, 1.8562233e-8, 0.3152758), (0.9352577, -4.869694e-8, -0.35396776), (0.8640653, 0.3579075, -0.35396785), (0.67104435, 0.67104447, 0.3152758), (0.87676173, 0.36316666, 0.3152758), (0.8640653, 0.3579075, -0.35396785), (0.6613271, 0.66132694, -0.35396785), (6.0990196e-8, 0.9490001, 0.31527576), (0.36316666, 0.8767617, 0.31527594), (0.3579078, 0.86406523, -0.35396796), (4.869694e-8, 0.93525755, -0.3539678), (9.641891e-8, 0.6072625, -0.79450125), (7.1189675e-8, 0.997867, 0.06527978), (0.38186723, 0.9219088, 0.06528022), (0.23238942, 0.5610375, -0.7945011), (-0.42939958, 0.4293998, -0.79450095), (-0.70559835, 0.7055988, 0.06527889), (-0.38186696, 0.92190903, 0.065279), (-0.23238929, 0.5610376, -0.79450107), (-0.5610377, 0.23238946, -0.79450095), (-0.92190886, 0.38186744, 0.065279104), (-0.70559835, 0.7055988, 0.06527889), (-0.42939958, 0.4293998, -0.79450095), (-0.60726285, 0, -0.79450107), (-0.997867, 1.8390662e-7, 0.06527966), (-0.92190886, 0.38186744, 0.065279104), (-0.5610377, 0.23238946, -0.79450095), (-0.5610376, -0.23238952, -0.79450095), (-0.9219089, -0.38186708, 0.065279804), (-0.997867, 1.8390662e-7, 0.06527966), (-0.60726285, 0, -0.79450107), (-0.4293995, -0.4293999, -0.79450095), (-0.7055985, -0.7055987, 0.06527941), (-0.9219089, -0.38186708, 0.065279804), (-0.5610376, -0.23238952, -0.79450095), (-0.23238927, -0.56103784, -0.79450095), (-0.38186702, -0.9219089, 0.06528051), (-0.7055985, -0.7055987, 0.06527941), (-0.4293995, -0.4293999, -0.79450095), (1.1910573e-7, -0.6072631, -0.7945008), (2.4619771e-7, -0.997867, 0.06528107), (-0.38186702, -0.9219089, 0.06528051), (-0.23238927, -0.56103784, -0.79450095), (0.23238951, -0.56103796, -0.79450077), (0.3818673, -0.92190886, 0.0652802), (2.4619771e-7, -0.997867, 0.06528107), (1.1910573e-7, -0.6072631, -0.7945008), (0.4293997, -0.42939988, -0.7945008), (0.7055985, -0.7055985, 0.06528009), (0.3818673, -0.92190886, 0.0652802), (0.23238951, -0.56103796, -0.79450077), (0.56103766, -0.23238955, -0.79450095), (0.9219089, -0.38186714, 0.06528007), (0.7055985, -0.7055985, 0.06528009), (0.4293997, -0.42939988, -0.7945008), (0.6072628, -8.5075506e-8, -0.79450095), (0.997867, -8.898709e-9, 0.0652801), (0.9219089, -0.38186714, 0.06528007), (0.56103766, -0.23238955, -0.79450095), (0.5610378, 0.2323893, -0.794501), (0.9219089, 0.38186717, 0.06528008), (0.997867, -8.898709e-9, 0.0652801), (0.6072628, -8.5075506e-8, -0.79450095), (0.4293997, 0.4293996, -0.794501), (0.7055984, 0.7055986, 0.06527997), (0.9219089, 0.38186717, 0.06528008), (0.5610378, 0.2323893, -0.794501), (0.23238942, 0.5610375, -0.7945011), (0.38186723, 0.9219088, 0.06528022), (0.7055984, 0.7055986, 0.06527997), (0.4293997, 0.4293996, -0.794501), (-0.36316645, 0.8767624, 0.31527445), (6.0990196e-8, 0.9490001, 0.31527576), (4.869694e-8, 0.93525755, -0.3539678), (-0.35790765, 0.8640657, -0.35396683), (-6.492923e-8, 0.9352578, 0.3539673), (0.35790768, 0.8640654, 0.35396752), (0.3631666, 0.87676173, -0.31527606), (1.5910485e-8, 0.9490001, -0.31527573), (0.38268313, 0.9238796, -1.5556813e-7), (-2.1278889e-7, 1, -1.5556813e-7), (-2.1278892e-7, 1, -1.5556813e-7), (0.3826831, 0.9238796, -1.5556812e-7), (0.92387944, -0.38268363, 5.590728e-8), (1, -6.7705564e-8, -1.2153729e-9), (1, -9.672223e-8, -1.2153684e-9), (0.92387944, -0.38268363, 5.590727e-8), (-1, -9.672222e-9, 1.2153786e-9), (-0.9238795, -0.38268346, 7.656868e-8), (-0.9238795, -0.38268343, 7.656868e-8), (-1, -3.868889e-8, 1.2153832e-9), (-0.7071067, -0.70710677, 1.361221e-7), (-0.9238795, -0.38268343, 7.656868e-8), (-0.9238795, -0.38268346, 7.656868e-8), (-0.70710677, -0.7071068, 1.361221e-7), (0.7071066, 0.70710707, -1.361221e-7), (0.38268313, 0.9238796, -1.5556813e-7), (0.3826831, 0.9238796, -1.5556812e-7), (0.7071066, 0.707107, -1.361221e-7), (-0.38268355, -0.9238795, 1.9446013e-7), (-0.7071067, -0.70710677, 1.361221e-7), (-0.70710677, -0.7071068, 1.361221e-7), (-0.38268355, -0.92387944, 1.9446011e-7), (-1.7774501e-7, -0.6706909, 0.7417369), (0.25666168, -0.6196375, 0.74173725), (0.08667, -0.20924054, 0.97401583), (-6.137612e-8, -0.22648013, 0.97401583), (-0.25666225, -0.6196375, -0.741737), (-0.47424996, -0.47424996, -0.7417371), (-0.16014592, -0.16014604, -0.97401565), (-0.08667035, -0.20924072, -0.97401565), (0.92387944, 0.38268355, -7.656865e-8), (0.7071066, 0.70710707, -1.361221e-7), (0.7071066, 0.707107, -1.361221e-7), (0.9238795, 0.38268355, -7.6568654e-8), (-1, -3.868889e-8, 1.2153832e-9), (-0.92387944, 0.38268346, -5.5907282e-8), (-0.9238795, 0.38268352, -5.5907293e-8), (-1, -9.672222e-9, 1.2153786e-9), (-0.7071067, 0.7071069, -7.778408e-8), (-0.9238795, 0.38268352, -5.5907293e-8), (-0.92387944, 0.38268346, -5.5907282e-8), (-0.70710665, 0.707107, -7.778408e-8), (1, -6.7705564e-8, -1.2153729e-9), (0.92387944, 0.38268355, -7.656865e-8), (0.9238795, 0.38268355, -7.6568654e-8), (1, -9.672223e-8, -1.2153684e-9), (0.61963767, 0.25666225, -0.7417369), (0.670691, -2.0968355e-7, -0.7417369), (0.22648045, -1.9259403e-7, -0.9740157), (0.20924078, 0.086670294, -0.97401565), (-0.61963725, 0.25666255, 0.7417371), (-0.6706904, 1.8468818e-7, 0.74173737), (-0.2264797, 2.0105966e-7, 0.9740159), (-0.20924051, 0.086670704, 0.97401565), (-0.38268355, 0.92387944, -1.16676105e-7), (-0.7071067, 0.7071069, -7.778408e-8), (-0.70710665, 0.707107, -7.778408e-8), (-0.38268355, 0.92387944, -1.166761e-7), (0.38268322, -0.9238797, 1.5556816e-7), (0.70710665, -0.70710695, 1.1667601e-7), (0.70710665, -0.707107, 1.1667603e-7), (0.38268313, -0.9238796, 1.5556815e-7), (-2.1278889e-7, 1, -1.5556813e-7), (-0.38268355, 0.92387944, -1.16676105e-7), (-0.38268355, 0.92387944, -1.166761e-7), (-2.1278892e-7, 1, -1.5556813e-7), (0.6706907, 4.443625e-8, 0.7417372), (0.6196375, 0.25666243, 0.74173695), (0.20924039, 0.08667062, 0.9740157), (0.22648017, 1.67197e-7, 0.9740157), (-0.61963767, 0.25666225, -0.7417369), (-0.47425005, 0.47425, -0.7417371), (-0.16014592, 0.16014582, -0.97401565), (-0.20924081, 0.08667028, -0.97401565), (0.670691, -2.0968355e-7, -0.7417369), (0.6196377, -0.2566625, -0.7417368), (0.20924065, -0.08667056, -0.97401565), (0.22648045, -1.9259403e-7, -0.9740157), (-0.4742502, 0.47425002, 0.7417369), (-0.61963725, 0.25666255, 0.7417371), (-0.20924051, 0.086670704, 0.97401565), (-0.16014639, 0.16014613, 0.97401553), (0.6196378, -0.25666216, 0.74173677), (0.6706907, 4.443625e-8, 0.7417372), (0.22648017, 1.67197e-7, 0.9740157), (0.20924124, -0.08667028, 0.9740156), (-0.47425005, 0.47425, -0.7417371), (-0.25666234, 0.61963755, -0.74173695), (-0.08667037, 0.20924056, -0.9740157), (-0.16014592, 0.16014582, -0.97401565), (0.6196377, -0.2566625, -0.7417368), (0.47424987, -0.47425026, -0.741737), (0.16014594, -0.16014612, -0.97401565), (0.20924065, -0.08667056, -0.97401565), (-0.25666243, 0.6196376, 0.7417369), (-0.4742502, 0.47425002, 0.7417369), (-0.16014639, 0.16014613, 0.97401553), (-0.08667043, 0.20924044, 0.97401583), (0.47424978, -0.47425008, 0.7417371), (0.6196378, -0.25666216, 0.74173677), (0.20924124, -0.08667028, 0.9740156), (0.16014591, -0.16014579, 0.9740157), (-0.25666234, 0.61963755, -0.74173695), (-9.30384e-8, 0.670691, -0.7417368), (-3.1746268e-8, 0.22648038, -0.9740157), (-0.08667037, 0.20924056, -0.9740157), (9.641891e-8, 0.6072625, -0.79450125), (0.23238942, 0.5610375, -0.7945011), (0.036526933, 0.08818366, -0.99543434), (1.6876434e-8, 0.09544928, -0.99543434), (0.47424987, -0.47425026, -0.741737), (0.256662, -0.61963767, -0.741737), (0.08667037, -0.20924094, -0.97401565), (0.16014594, -0.16014612, -0.97401565), (-1.05536145e-7, 0.67069125, 0.7417367), (-0.25666243, 0.6196376, 0.7417369), (-0.08667043, 0.20924044, 0.97401583), (-4.232835e-9, 0.22647986, 0.97401583), (0.23238942, 0.5610378, 0.79450095), (9.003825e-8, 0.607263, 0.7945008), (-6.856051e-8, 0.09544971, 0.9954342), (0.036526844, 0.08818404, 0.9954342), (0.25666168, -0.6196375, 0.74173725), (0.47424978, -0.47425008, 0.7417371), (0.16014591, -0.16014579, 0.9740157), (0.08667, -0.20924054, 0.97401583), (-9.30384e-8, 0.670691, -0.7417368), (0.25666222, 0.6196378, -0.7417368), (0.08667032, 0.20924069, -0.9740157), (-3.1746268e-8, 0.22648038, -0.9740157), (-0.47425014, -0.47424978, 0.7417371), (-0.25666225, -0.6196375, 0.7417371), (-0.08667022, -0.2092402, 0.97401583), (-0.16014615, -0.16014564, 0.97401565), (0.25666198, 0.61963797, 0.7417367), (-1.05536145e-7, 0.67069125, 0.7417367), (-4.232835e-9, 0.22647986, 0.97401583), (0.086670205, 0.2092405, 0.97401583), (0.25666222, 0.6196378, -0.7417368), (0.4742499, 0.47425035, -0.7417369), (0.160146, 0.16014597, -0.97401565), (0.08667032, 0.20924069, -0.9740157), (-0.6196376, -0.25666228, 0.741737), (-0.47425014, -0.47424978, 0.7417371), (-0.16014615, -0.16014564, 0.97401565), (-0.20924087, -0.08667029, 0.97401565), (-0.47424996, -0.47424996, -0.7417371), (-0.61963767, -0.2566624, -0.7417369), (-0.20924069, -0.08667054, -0.97401565), (-0.16014592, -0.16014604, -0.97401565), (0.47424996, 0.4742504, 0.7417368), (0.25666198, 0.61963797, 0.7417367), (0.086670205, 0.2092405, 0.97401583), (0.16014606, 0.16014615, 0.97401565), (-0.61963767, -0.2566624, -0.7417369), (-0.6706911, -7.706912e-8, -0.7417369), (-0.22648053, -1.6084773e-7, -0.97401565), (-0.20924069, -0.08667054, -0.97401565), (0.4742499, 0.47425035, -0.7417369), (0.61963767, 0.25666225, -0.7417369), (0.20924078, 0.086670294, -0.97401565), (0.160146, 0.16014597, -0.97401565), (-0.6706904, 1.8468818e-7, 0.74173737), (-0.6196376, -0.25666228, 0.741737), (-0.20924087, -0.08667029, 0.97401565), (-0.2264797, 2.0105966e-7, 0.9740159), (0.6196375, 0.25666243, 0.74173695), (0.47424996, 0.4742504, 0.7417368), (0.16014606, 0.16014615, 0.97401565), (0.20924039, 0.08667062, 0.9740157), (-0.6706911, -7.706912e-8, -0.7417369), (-0.61963767, 0.25666225, -0.7417369), (-0.20924081, 0.08667028, -0.97401565), (-0.22648053, -1.6084773e-7, -0.97401565), (-0.23238929, 0.5610376, -0.79450107), (9.641891e-8, 0.6072625, -0.79450125), (1.6876434e-8, 0.09544928, -0.99543434), (-0.036526907, 0.08818366, -0.99543434), (0.4293996, 0.42939985, 0.79450095), (0.23238942, 0.5610378, 0.79450095), (0.036526844, 0.08818404, 0.9954342), (0.06749277, 0.06749314, 0.99543434), (0.23238942, 0.5610375, -0.7945011), (0.4293997, 0.4293996, -0.794501), (0.067492984, 0.06749283, -0.99543434), (0.036526933, 0.08818366, -0.99543434), (-0.25666225, -0.6196375, 0.7417371), (-1.7774501e-7, -0.6706909, 0.7417369), (-6.137612e-8, -0.22648013, 0.97401583), (-0.08667022, -0.2092402, 0.97401583), (0.4293997, 0.4293996, -0.794501), (0.5610378, 0.2323893, -0.794501), (0.08818385, 0.036526777, -0.9954342), (0.067492984, 0.06749283, -0.99543434), (0.56103766, 0.2323895, 0.794501), (0.4293996, 0.42939985, 0.79450095), (0.06749277, 0.06749314, 0.99543434), (0.08818362, 0.03652709, 0.99543434), (0.5610378, 0.2323893, -0.794501), (0.6072628, -8.5075506e-8, -0.79450095), (0.0954495, -1.5610702e-7, -0.9954342), (0.08818385, 0.036526777, -0.9954342), (0.60726285, 6.80604e-8, 0.79450095), (0.56103766, 0.2323895, 0.794501), (0.08818362, 0.03652709, 0.99543434), (0.09544943, 1.5821654e-7, 0.9954342), (0.6072628, -8.5075506e-8, -0.79450095), (0.56103766, -0.23238955, -0.79450095), (0.08818381, -0.036527075, -0.9954342), (0.0954495, -1.5610702e-7, -0.9954342), (0.56103766, -0.23238932, 0.794501), (0.60726285, 6.80604e-8, 0.79450095), (0.09544943, 1.5821654e-7, 0.9954342), (0.088183776, -0.036526814, 0.99543434), (0.56103766, -0.23238955, -0.79450095), (0.4293997, -0.42939988, -0.7945008), (0.06749298, -0.067493126, -0.99543434), (0.08818381, -0.036527075, -0.9954342), (0.42939988, -0.4293997, 0.79450095), (0.56103766, -0.23238932, 0.794501), (0.088183776, -0.036526814, 0.99543434), (0.067493156, -0.067492865, 0.99543434), (0.4293997, -0.42939988, -0.7945008), (0.23238951, -0.56103796, -0.79450077), (0.036526944, -0.088183984, -0.9954342), (0.06749298, -0.067493126, -0.99543434), (0.23238961, -0.5610377, 0.79450095), (0.42939988, -0.4293997, 0.79450095), (0.067493156, -0.067492865, 0.99543434), (0.036527053, -0.08818369, 0.9954342), (0.23238951, -0.56103796, -0.79450077), (1.1910573e-7, -0.6072631, -0.7945008), (2.1095543e-8, -0.09544963, -0.9954342), (0.036526944, -0.088183984, -0.9954342), (1.361208e-7, -0.6072625, 0.7945013), (0.23238961, -0.5610377, 0.79450095), (0.036527053, -0.08818369, 0.9954342), (-7.594396e-8, -0.095449336, 0.9954342), (1.1910573e-7, -0.6072631, -0.7945008), (-0.23238927, -0.56103784, -0.79450095), (-0.036526904, -0.08818397, -0.9954342), (2.1095543e-8, -0.09544963, -0.9954342), (-0.2323892, -0.5610373, 0.79450136), (1.361208e-7, -0.6072625, 0.7945013), (-7.594396e-8, -0.095449336, 0.9954342), (-0.036527127, -0.08818371, 0.99543434), (-0.23238927, -0.56103784, -0.79450095), (-0.4293995, -0.4293999, -0.79450095), (-0.06749296, -0.06749314, -0.99543434), (-0.036526904, -0.08818397, -0.9954342), (-0.4293993, -0.42939967, 0.7945011), (-0.2323892, -0.5610373, 0.79450136), (-0.036527127, -0.08818371, 0.99543434), (-0.067493044, -0.06749288, 0.99543434), (-0.4293995, -0.4293999, -0.79450095), (-0.5610376, -0.23238952, -0.79450095), (-0.08818379, -0.036527075, -0.9954342), (-0.06749296, -0.06749314, -0.99543434), (-0.5610374, -0.23238939, 0.7945012), (-0.4293993, -0.42939967, 0.7945011), (-0.067493044, -0.06749288, 0.99543434), (-0.088183634, -0.036526795, 0.9954342), (-0.5610376, -0.23238952, -0.79450095), (-0.60726285, 0, -0.79450107), (-0.09544948, -1.3606625e-7, -0.99543434), (-0.08818379, -0.036527075, -0.9954342), (-0.60726285, 1.417925e-7, 0.79450095), (-0.5610374, -0.23238939, 0.7945012), (-0.088183634, -0.036526795, 0.9954342), (-0.09544953, 1.75093e-7, 0.99543434), (-0.60726285, 0, -0.79450107), (-0.5610377, 0.23238946, -0.79450095), (-0.08818383, 0.036526795, -0.9954342), (-0.09544948, -1.3606625e-7, -0.99543434), (-0.5610377, 0.2323897, 0.7945009), (-0.60726285, 1.417925e-7, 0.79450095), (-0.09544953, 1.75093e-7, 0.99543434), (-0.088183865, 0.036527082, 0.9954342), (-0.5610377, 0.23238946, -0.79450095), (-0.42939958, 0.4293998, -0.79450095), (-0.067492954, 0.06749284, -0.99543434), (-0.08818383, 0.036526795, -0.9954342), (-0.42939955, 0.4294, 0.7945009), (-0.5610377, 0.2323897, 0.7945009), (-0.088183865, 0.036527082, 0.9954342), (-0.06749296, 0.06749314, 0.99543434), (-0.42939958, 0.4293998, -0.79450095), (-0.23238929, 0.5610376, -0.79450107), (-0.036526907, 0.08818366, -0.99543434), (-0.067492954, 0.06749284, -0.99543434), (-0.2323893, 0.56103784, 0.79450095), (-0.42939955, 0.4294, 0.7945009), (-0.06749296, 0.06749314, 0.99543434), (-0.036526974, 0.08818404, 0.9954342), (-1.16645154e-7, -0.6706911, -0.74173677), (-0.25666225, -0.6196375, -0.741737), (-0.08667035, -0.20924072, -0.97401565), (-2.116418e-8, -0.22648063, -0.97401565), (9.003825e-8, 0.607263, 0.7945008), (-0.2323893, 0.56103784, 0.79450095), (-0.036526974, 0.08818404, 0.9954342), (-6.856051e-8, 0.09544971, 0.9954342), (-1.6233734e-7, -0.91687304, -0.3991789), (-0.3508721, -0.84708005, -0.39917943), (-0.25666225, -0.6196375, -0.741737), (-1.16645154e-7, -0.6706911, -0.74173677), (-0.35087216, -0.8470801, 0.39917916), (-2.3335994e-7, -0.91687304, 0.39917892), (-1.7774501e-7, -0.6706909, 0.7417369), (-0.25666225, -0.6196375, 0.7417371), (-0.3508721, -0.84708005, -0.39917943), (-0.6483269, -0.6483269, -0.39917982), (-0.47424996, -0.47424996, -0.7417371), (-0.25666225, -0.6196375, -0.741737), (-0.648327, -0.6483268, 0.39917967), (-0.35087216, -0.8470801, 0.39917916), (-0.25666225, -0.6196375, 0.7417371), (-0.47425014, -0.47424978, 0.7417371), (-0.6483269, -0.6483269, -0.39917982), (-0.84708005, -0.35087225, -0.39917922), (-0.61963767, -0.2566624, -0.7417369), (-0.47424996, -0.47424996, -0.7417371), (-0.84708, -0.35087216, 0.39917943), (-0.648327, -0.6483268, 0.39917967), (-0.47425014, -0.47424978, 0.7417371), (-0.6196376, -0.25666228, 0.741737), (-0.84708005, -0.35087225, -0.39917922), (-0.91687304, 1.0146084e-8, -0.39917892), (-0.6706911, -7.706912e-8, -0.7417369), (-0.61963767, -0.2566624, -0.7417369), (-0.9168728, 1.521913e-7, 0.39917964), (-0.84708, -0.35087216, 0.39917943), (-0.6196376, -0.25666228, 0.741737), (-0.6706904, 1.8468818e-7, 0.74173737), (-0.91687304, 1.0146084e-8, -0.39917892), (-0.84708005, 0.3508722, -0.39917922), (-0.61963767, 0.25666225, -0.7417369), (-0.6706911, -7.706912e-8, -0.7417369), (-0.84707975, 0.35087228, 0.39917976), (-0.9168728, 1.521913e-7, 0.39917964), (-0.6706904, 1.8468818e-7, 0.74173737), (-0.61963725, 0.25666255, 0.7417371), (-0.84708005, 0.3508722, -0.39917922), (-0.648327, 0.648327, -0.39917952), (-0.47425005, 0.47425, -0.7417371), (-0.61963767, 0.25666225, -0.7417369), (-0.64832705, 0.64832693, 0.39917952), (-0.84707975, 0.35087228, 0.39917976), (-0.61963725, 0.25666255, 0.7417371), (-0.4742502, 0.47425002, 0.7417369), (-0.648327, 0.648327, -0.39917952), (-0.3508722, 0.8470802, -0.39917916), (-0.25666234, 0.61963755, -0.74173695), (-0.47425005, 0.47425, -0.7417371), (-0.35087225, 0.84708023, 0.3991788), (-0.64832705, 0.64832693, 0.39917952), (-0.4742502, 0.47425002, 0.7417369), (-0.25666243, 0.6196376, 0.7417369), (-0.3508722, 0.8470802, -0.39917916), (-1.21753e-7, 0.91687316, -0.3991788), (-9.30384e-8, 0.670691, -0.7417368), (-0.25666234, 0.61963755, -0.74173695), (-1.623373e-7, 0.91687346, 0.39917806), (-0.35087225, 0.84708023, 0.3991788), (-0.25666243, 0.6196376, 0.7417369), (-1.05536145e-7, 0.67069125, 0.7417367), (-1.21753e-7, 0.91687316, -0.3991788), (0.35087198, 0.8470803, -0.39917883), (0.25666222, 0.6196378, -0.7417368), (-9.30384e-8, 0.670691, -0.7417368), (0.35087174, 0.8470806, 0.3991785), (-1.623373e-7, 0.91687346, 0.39917806), (-1.05536145e-7, 0.67069125, 0.7417367), (0.25666198, 0.61963797, 0.7417367), (0.35087198, 0.8470803, -0.39917883), (0.6483269, 0.64832723, -0.3991792), (0.4742499, 0.47425035, -0.7417369), (0.25666222, 0.6196378, -0.7417368), (0.6483269, 0.6483273, 0.3991792), (0.35087174, 0.8470806, 0.3991785), (0.25666198, 0.61963797, 0.7417367), (0.47424996, 0.4742504, 0.7417368), (0.6483269, 0.64832723, -0.3991792), (0.84708005, 0.3508721, -0.3991793), (0.61963767, 0.25666225, -0.7417369), (0.4742499, 0.47425035, -0.7417369), (0.84708, 0.3508722, 0.39917928), (0.6483269, 0.6483273, 0.3991792), (0.47424996, 0.4742504, 0.7417368), (0.6196375, 0.25666243, 0.74173695), (0.84708005, 0.3508721, -0.3991793), (0.91687304, -1.8262952e-7, -0.399179), (0.670691, -2.0968355e-7, -0.7417369), (0.61963767, 0.25666225, -0.7417369), (0.91687286, -6.0876516e-8, 0.3991794), (0.84708, 0.3508722, 0.39917928), (0.6196375, 0.25666243, 0.74173695), (0.6706907, 4.443625e-8, 0.7417372), (0.91687304, -1.8262952e-7, -0.399179), (0.8470802, -0.35087225, -0.39917898), (0.6196377, -0.2566625, -0.7417368), (0.670691, -2.0968355e-7, -0.7417369), (0.8470801, -0.350872, 0.39917934), (0.91687286, -6.0876516e-8, 0.3991794), (0.6706907, 4.443625e-8, 0.7417372), (0.6196378, -0.25666216, 0.74173677), (0.8470802, -0.35087225, -0.39917898), (0.64832693, -0.648327, -0.39917958), (0.47424987, -0.47425026, -0.741737), (0.6196377, -0.2566625, -0.7417368), (0.6483268, -0.64832705, 0.3991797), (0.8470801, -0.350872, 0.39917934), (0.6196378, -0.25666216, 0.74173677), (0.47424978, -0.47425008, 0.7417371), (0.64832693, -0.648327, -0.39917958), (0.3508718, -0.84708005, -0.39917952), (0.256662, -0.61963767, -0.741737), (0.47424987, -0.47425026, -0.741737), (0.3508715, -0.8470802, 0.39917976), (0.6483268, -0.64832705, 0.3991797), (0.47424978, -0.47425008, 0.7417371), (0.25666168, -0.6196375, 0.74173725), (0.3508718, -0.84708005, -0.39917952), (-1.6233734e-7, -0.91687304, -0.3991789), (-1.16645154e-7, -0.6706911, -0.74173677), (0.256662, -0.61963767, -0.741737), (-2.3335994e-7, -0.91687304, 0.39917892), (0.3508715, -0.8470802, 0.39917976), (0.25666168, -0.6196375, 0.74173725), (-1.7774501e-7, -0.6706909, 0.7417369), (0.256662, -0.61963767, -0.741737), (-1.16645154e-7, -0.6706911, -0.74173677), (-2.116418e-8, -0.22648063, -0.97401565), (0.08667037, -0.20924094, -0.97401565), (1.661092e-7, 0.997867, -0.065280125), (9.003825e-8, 0.607263, 0.7945008), (0.23238942, 0.5610378, 0.79450095), (0.381867, 0.9219089, -0.06528055), (0.381867, 0.9219089, -0.06528055), (0.23238942, 0.5610378, 0.79450095), (0.4293996, 0.42939985, 0.79450095), (0.70559824, 0.7055987, -0.06528009), (0.70559824, 0.7055987, -0.06528009), (0.4293996, 0.42939985, 0.79450095), (0.56103766, 0.2323895, 0.794501), (0.9219089, 0.3818671, -0.06528021), (0.9219089, 0.3818671, -0.06528021), (0.56103766, 0.2323895, 0.794501), (0.60726285, 6.80604e-8, 0.79450095), (0.997867, 4.1527308e-8, -0.065280125), (0.997867, 4.1527308e-8, -0.065280125), (0.60726285, 6.80604e-8, 0.79450095), (0.56103766, -0.23238932, 0.794501), (0.9219088, -0.3818674, -0.06528034), (0.9219088, -0.3818674, -0.06528034), (0.56103766, -0.23238932, 0.794501), (0.42939988, -0.4293997, 0.79450095), (0.70559806, -0.70559895, -0.065280564), (0.70559806, -0.70559895, -0.065280564), (0.42939988, -0.4293997, 0.79450095), (0.23238961, -0.5610377, 0.79450095), (0.3818672, -0.9219089, -0.06527996), (0.3818672, -0.9219089, -0.06527996), (0.23238961, -0.5610377, 0.79450095), (1.361208e-7, -0.6072625, 0.7945013), (3.5594854e-7, -0.997867, -0.06528028), (3.5594854e-7, -0.997867, -0.06528028), (1.361208e-7, -0.6072625, 0.7945013), (-0.2323892, -0.5610373, 0.79450136), (-0.38186732, -0.92190886, -0.06528049), (-0.38186732, -0.92190886, -0.06528049), (-0.2323892, -0.5610373, 0.79450136), (-0.4293993, -0.42939967, 0.7945011), (-0.7055983, -0.70559865, -0.06528051), (-0.7055983, -0.70559865, -0.06528051), (-0.4293993, -0.42939967, 0.7945011), (-0.5610374, -0.23238939, 0.7945012), (-0.9219088, -0.3818674, -0.06528029), (-0.9219088, -0.3818674, -0.06528029), (-0.5610374, -0.23238939, 0.7945012), (-0.60726285, 1.417925e-7, 0.79450095), (-0.99786705, 2.284002e-7, -0.06527979), (-0.99786705, 2.284002e-7, -0.06527979), (-0.60726285, 1.417925e-7, 0.79450095), (-0.5610377, 0.2323897, 0.7945009), (-0.9219088, 0.3818675, -0.06527895), (-0.9219088, 0.3818675, -0.06527895), (-0.5610377, 0.2323897, 0.7945009), (-0.42939955, 0.4294, 0.7945009), (-0.7055982, 0.705599, -0.06527819), (-0.7055982, 0.705599, -0.06527819), (-0.42939955, 0.4294, 0.7945009), (-0.2323893, 0.56103784, 0.79450095), (-0.3818667, 0.92190915, -0.065278925), (-0.3818667, 0.92190915, -0.065278925), (-0.2323893, 0.56103784, 0.79450095), (9.003825e-8, 0.607263, 0.7945008), (1.661092e-7, 0.997867, -0.065280125), (1.661092e-7, 0.997867, -0.065280125), (0.381867, 0.9219089, -0.06528055), (0.31696635, 0.76522535, -0.5603236), (1.5279218e-7, 0.82827425, -0.56032294), (-0.66132724, 0.6613272, -0.3539671), (-0.35790765, 0.8640657, -0.35396683), (-0.1670693, 0.40334138, -0.89966863), (-0.30870363, 0.30870402, -0.89966875), (-0.38186732, -0.92190886, -0.06528049), (-0.7055983, -0.70559865, -0.06528051), (-0.5856777, -0.585678, -0.56032395), (-0.3169672, -0.7652243, -0.5603246), (0.7055985, -0.7055985, 0.06528009), (0.9219089, -0.38186714, 0.06528007), (0.76522565, -0.31696695, 0.5603228), (0.58567864, -0.5856784, 0.5603226), (0.3579078, 0.86406523, -0.35396796), (0.6613271, 0.66132694, -0.35396785), (0.30870378, 0.30870327, -0.89966893), (0.16706891, 0.40334004, -0.89966923), (0.6710446, -0.67104435, -0.31527546), (0.3631668, -0.876762, -0.31527513), (0.30074462, -0.72606117, -0.6183752), (0.5557031, -0.55570275, -0.6183757), (-0.36316657, 0.8767622, -0.31527457), (1.5910485e-8, 0.9490001, -0.31527573), (-1.15900335e-7, 0.7858823, -0.6183761), (-0.30074495, 0.72606206, -0.61837393), (0.6613271, -0.6613269, 0.35396767), (0.8640654, -0.3579075, 0.35396793), (0.40334022, -0.16706894, 0.8996691), (0.30870348, -0.30870333, 0.8996691), (0.36316663, -0.876762, 0.31527525), (0.67104423, -0.67104447, 0.3152759), (0.5557023, -0.5557026, 0.61837643), (0.3007443, -0.7260611, 0.6183754), (-0.38186696, 0.92190903, 0.065279), (-0.70559835, 0.7055988, 0.06527889), (-0.58567923, 0.5856795, 0.56032073), (-0.316967, 0.76522666, 0.56032133), (6.0990196e-8, 0.9490001, 0.31527576), (-0.36316645, 0.8767624, 0.31527445), (-0.30074447, 0.7260623, 0.61837393), (1.7830821e-8, 0.7858823, 0.61837614), (-0.6613269, -0.6613274, -0.35396728), (-0.8640653, -0.3579077, -0.35396776), (-0.4033403, -0.16706927, -0.89966905), (-0.30870408, -0.3087041, -0.8996687), (0.9219088, -0.3818674, -0.06528034), (0.70559806, -0.70559895, -0.065280564), (0.5856772, -0.5856788, -0.5603235), (0.76522493, -0.3169674, -0.56032354), (0.7055984, 0.7055986, 0.06527997), (0.38186723, 0.9219088, 0.06528022), (0.3169669, 0.7652253, 0.5603234), (0.58567834, 0.5856785, 0.5603228), (-0.35790795, 0.8640659, 0.3539662), (-0.6613274, 0.6613272, 0.35396668), (-0.30870524, 0.308704, 0.8996683), (-0.16707005, 0.40334168, 0.8996683), (-0.6710445, 0.6710447, -0.31527492), (-0.36316657, 0.8767622, -0.31527457), (-0.30074495, 0.72606206, -0.61837393), (-0.5557034, 0.5557038, -0.6183746), (0.66132724, 0.661327, 0.35396722), (0.35790768, 0.8640654, 0.35396752), (0.16706935, 0.40334055, 0.89966893), (0.308704, 0.30870378, 0.89966875), (0.87676185, -0.3631666, -0.3152756), (0.6710446, -0.67104435, -0.31527546), (0.5557031, -0.55570275, -0.6183757), (0.7260607, -0.30074418, -0.618376), (-0.7055982, 0.705599, -0.06527819), (-0.3818667, 0.92190915, -0.065278925), (-0.31696668, 0.76522726, -0.5603208), (-0.58567953, 0.5856803, -0.56031954), (-0.36316645, 0.8767624, 0.31527445), (-0.67104435, 0.67104495, 0.31527472), (-0.555703, 0.55570424, 0.61837447), (-0.30074447, 0.7260623, 0.61837393), (-0.9219089, -0.38186708, 0.065279804), (-0.7055985, -0.7055987, 0.06527941), (-0.58567864, -0.5856791, 0.56032175), (-0.76522577, -0.31696695, 0.5603226), (0.6613268, -0.66132724, -0.3539678), (0.3579076, -0.8640657, -0.35396698), (0.1670693, -0.40334126, -0.89966863), (0.30870318, -0.30870357, -0.89966905), (0.381867, 0.9219089, -0.06528055), (0.70559824, 0.7055987, -0.06528009), (0.5856779, 0.5856788, -0.5603228), (0.31696635, 0.76522535, -0.5603236), (0.67104423, -0.67104447, 0.3152759), (0.8767617, -0.3631667, 0.31527606), (0.7260601, -0.30074415, 0.6183766), (0.5557023, -0.5557026, 0.61837643), (-0.86406547, -0.35790738, 0.35396776), (-0.6613272, -0.66132706, 0.3539675), (-0.30870283, -0.30870378, 0.8996691), (-0.40334046, -0.16706888, 0.8996691), (-0.35790765, 0.8640657, -0.35396683), (4.869694e-8, 0.93525755, -0.3539678), (-1.6198831e-7, 0.43657243, -0.8996691), (-0.1670693, 0.40334138, -0.89966863), (-0.8767617, 0.36316675, -0.31527588), (-0.6710445, 0.6710447, -0.31527492), (-0.5557034, 0.5557038, -0.6183746), (-0.72606033, 0.30074424, -0.6183763), (-0.7055983, -0.70559865, -0.06528051), (-0.9219088, -0.3818674, -0.06528029), (-0.7652249, -0.31696716, -0.5603237), (-0.5856777, -0.585678, -0.56032395), (0.3818673, -0.92190886, 0.0652802), (0.7055985, -0.7055985, 0.06528009), (0.58567864, -0.5856784, 0.5603226), (0.31696704, -0.7652256, 0.5603229), (0.6613271, 0.66132694, -0.35396785), (0.8640653, 0.3579075, -0.35396785), (0.40334037, 0.16706896, -0.8996691), (0.30870378, 0.30870327, -0.89966893), (0.94899994, -5.3034963e-9, -0.31527615), (0.87676185, -0.3631666, -0.3152756), (0.7260607, -0.30074418, -0.618376), (0.7858817, -4.457705e-8, -0.6183769), (-0.67104435, 0.67104495, 0.31527472), (-0.8767619, 0.3631669, 0.31527528), (-0.72606105, 0.30074447, 0.6183754), (-0.555703, 0.55570424, 0.61837447), (0.3579077, -0.8640655, 0.35396722), (0.6613271, -0.6613269, 0.35396767), (0.30870348, -0.30870333, 0.8996691), (0.16706936, -0.4033409, 0.8996688), (0.8767617, -0.3631667, 0.31527606), (0.94900006, 1.8562233e-8, 0.3152758), (0.7858821, 3.5661635e-8, 0.6183763), (0.7260601, -0.30074415, 0.6183766), (7.1189675e-8, 0.997867, 0.06527978), (-0.38186696, 0.92190903, 0.065279), (-0.316967, 0.76522666, 0.56032133), (1.7975548e-8, 0.82827437, 0.5603228), (-0.8640653, -0.3579077, -0.35396776), (-0.93525773, 1.7314464e-7, -0.35396743), (-0.4365725, 1.6582808e-8, -0.89966905), (-0.4033403, -0.16706927, -0.89966905), (0.70559806, -0.70559895, -0.065280564), (0.3818672, -0.9219089, -0.06527996), (0.31696692, -0.7652258, -0.56032264), (0.5856772, -0.5856788, -0.5603235), (0.9219089, 0.38186717, 0.06528008), (0.7055984, 0.7055986, 0.06527997), (0.58567834, 0.5856785, 0.5603228), (0.76522547, 0.316967, 0.56032306), (-0.9490002, 2.4396076e-7, -0.31527567), (-0.8767617, 0.36316675, -0.31527588), (-0.72606033, 0.30074424, -0.6183763), (-0.7858823, 3.2987018e-7, -0.61837614), (0.86406565, 0.3579075, 0.3539673), (0.66132724, 0.661327, 0.35396722), (0.308704, 0.30870378, 0.89966875), (0.40334088, 0.16706932, 0.8996689), (0.87676173, 0.36316645, -0.3152762), (0.94899994, -5.3034963e-9, -0.31527615), (0.7858817, -4.457705e-8, -0.6183769), (0.72605985, 0.30074388, -0.61837703), (-6.492923e-8, 0.9352578, 0.3539673), (-0.35790795, 0.8640659, 0.3539662), (-0.16707005, 0.40334168, 0.8996683), (-1.6682938e-7, 0.43657306, 0.8996688), (-0.8767619, 0.3631669, 0.31527528), (-0.9490002, 2.1479154e-7, 0.31527555), (-0.78588253, 2.674623e-7, 0.61837584), (-0.72606105, 0.30074447, 0.6183754), (-0.997867, 1.8390662e-7, 0.06527966), (-0.9219089, -0.38186708, 0.065279804), (-0.76522577, -0.31696695, 0.5603226), (-0.82827467, 1.9773101e-7, 0.5603224), (0.3579076, -0.8640657, -0.35396698), (3.030031e-7, -0.93525773, -0.35396737), (2.542162e-7, -0.43657303, -0.8996688), (0.1670693, -0.40334126, -0.89966863), (0.70559824, 0.7055987, -0.06528009), (0.9219089, 0.3818671, -0.06528021), (0.7652254, 0.3169671, -0.560323), (0.5856779, 0.5856788, -0.5603228), (0.94900006, 1.8562233e-8, 0.3152758), (0.87676173, 0.36316666, 0.3152758), (0.7260603, 0.3007441, 0.6183764), (0.7858821, 3.5661635e-8, 0.6183763), (-0.93525773, 3.4628928e-7, 0.35396743), (-0.86406547, -0.35790738, 0.35396776), (-0.40334046, -0.16706888, 0.8996691), (-0.43657288, 4.183975e-7, 0.89966893), (-0.35790795, 0.8640659, 0.3539662), (-6.492923e-8, 0.9352578, 0.3539673), (1.5910485e-8, 0.9490001, -0.31527573), (-0.36316657, 0.8767622, -0.31527457), (-2.7739074e-7, -6.628621e-9, -1), (5.5478023e-7, -2.2191102e-8, -1), (-0.1670693, 0.40334138, -0.89966863), (-1.6198831e-7, 0.43657243, -0.8996691), (-0.0000022191446, 5.6502607e-8, 1), (0, 1.3257337e-8, 1), (-0.16707005, 0.40334168, 0.8996683), (-0.30870524, 0.308704, 0.8996683), (5.5478023e-7, -2.2191102e-8, -1), (5.547815e-7, -7.537892e-8, -1), (-0.30870363, 0.30870402, -0.89966875), (-0.1670693, 0.40334138, -0.89966863), (-0.0000022191455, 1.898014e-7, 1), (-0.0000022191446, 5.6502607e-8, 1), (-0.30870524, 0.308704, 0.8996683), (-0.40334147, 0.16706926, 0.8996686), (5.547815e-7, -7.537892e-8, -1), (0, -1.3981332e-7, -1), (-0.40334097, 0.1670692, -0.8996688), (-0.30870363, 0.30870402, -0.89966875), (0, 1.9994822e-7, 1), (-0.0000022191455, 1.898014e-7, 1), (-0.40334147, 0.16706926, 0.8996686), (-0.43657288, 4.183975e-7, 0.89966893), (0, -1.3981332e-7, -1), (0.0000011095633, -1.6662243e-7, -1), (-0.4365725, 1.6582808e-8, -0.89966905), (-0.40334097, 0.1670692, -0.8996688), (0, 1.2315127e-7, 1), (0, 1.9994822e-7, 1), (-0.43657288, 4.183975e-7, 0.89966893), (-0.40334046, -0.16706888, 0.8996691), (0.0000011095633, -1.6662243e-7, -1), (-9.650068e-12, -1.398133e-7, -1), (-0.4033403, -0.16706927, -0.89966905), (-0.4365725, 1.6582808e-8, -0.89966905), (0.0000022191061, 5.650183e-8, 1), (0, 1.2315127e-7, 1), (-0.40334046, -0.16706888, 0.8996691), (-0.30870283, -0.30870378, 0.8996691), (-9.650068e-12, -1.398133e-7, -1), (-0.0000011095723, -7.5378885e-8, -1), (-0.30870408, -0.3087041, -0.8996687), (-0.4033403, -0.16706927, -0.89966905), (0.0000016643331, 0, 1), (0.0000022191061, 5.650183e-8, 1), (-0.30870283, -0.30870378, 0.8996691), (-0.1670687, -0.40334043, 0.8996692), (-0.0000011095723, -7.5378885e-8, -1), (0, -2.2191124e-8, -1), (-0.1670692, -0.40334082, -0.89966893), (-0.30870408, -0.3087041, -0.8996687), (-5.547764e-7, 0, 1), (0.0000016643331, 0, 1), (-0.1670687, -0.40334043, 0.8996692), (7.944254e-8, -0.4365724, 0.8996691), (0, -2.2191124e-8, -1), (0, -6.628592e-9, -1), (2.542162e-7, -0.43657303, -0.8996688), (-0.1670692, -0.40334082, -0.89966893), (0, 0, 1), (-5.547764e-7, 0, 1), (7.944254e-8, -0.4365724, 0.8996691), (0.16706936, -0.4033409, 0.8996688), (0, -6.628592e-9, -1), (0, -2.2191005e-8, -1), (0.1670693, -0.40334126, -0.89966863), (2.542162e-7, -0.43657303, -0.8996688), (0, 5.650212e-8, 1), (0, 0, 1), (0.16706936, -0.4033409, 0.8996688), (0.30870348, -0.30870333, 0.8996691), (0, -2.2191005e-8, -1), (0, -7.537907e-8, -1), (0.30870318, -0.30870357, -0.89966905), (0.1670693, -0.40334126, -0.89966863), (0, 1.2315154e-7, 1), (0, 5.650212e-8, 1), (0.30870348, -0.30870333, 0.8996691), (0.40334022, -0.16706894, 0.8996691), (0, -7.537907e-8, -1), (0, -1.3981361e-7, -1), (0.4033402, -0.16706921, -0.8996691), (0.30870318, -0.30870357, -0.89966905), (0, 1.9994826e-7, 1), (0, 1.2315154e-7, 1), (0.40334022, -0.16706894, 0.8996691), (0.4365726, 9.95426e-8, 0.8996691), (0, -1.3981361e-7, -1), (-0.0000011095647, -1.6662258e-7, -1), (0.43657213, -1.3770045e-7, -0.89966923), (0.4033402, -0.16706921, -0.8996691), (0, 1.8980091e-7, 1), (0, 1.9994826e-7, 1), (0.4365726, 9.95426e-8, 0.8996691), (0.40334088, 0.16706932, 0.8996689), (-0.0000011095647, -1.6662258e-7, -1), (3.4740247e-12, -1.3981366e-7, -1), (0.40334037, 0.16706896, -0.8996691), (0.43657213, -1.3770045e-7, -0.89966923), (0, 5.6502113e-8, 1), (0, 1.8980091e-7, 1), (0.40334088, 0.16706932, 0.8996689), (0.308704, 0.30870378, 0.89966875), (3.4740247e-12, -1.3981366e-7, -1), (5.547863e-7, -7.537917e-8, -1), (0.30870378, 0.30870327, -0.89966893), (0.40334037, 0.16706896, -0.8996691), (0, 1.3257173e-8, 1), (0, 5.6502113e-8, 1), (0.308704, 0.30870378, 0.89966875), (0.16706935, 0.40334055, 0.89966893), (5.547863e-7, -7.537917e-8, -1), (-8.32172e-7, -2.2191106e-8, -1), (0.16706891, 0.40334004, -0.89966923), (0.30870378, 0.30870327, -0.89966893), (0, 2.6514485e-8, 1), (0, 1.3257173e-8, 1), (0.16706935, 0.40334055, 0.89966893), (-1.6682938e-7, 0.43657306, 0.8996688), (-8.32172e-7, -2.2191106e-8, -1), (-2.7739074e-7, -6.628621e-9, -1), (-1.6198831e-7, 0.43657243, -0.8996691), (0.16706891, 0.40334004, -0.89966923), (-0.6613272, -0.66132706, 0.3539675), (-0.3579078, -0.86406535, 0.35396776), (-0.1670687, -0.40334043, 0.8996692), (-0.30870283, -0.30870378, 0.8996691), (1.9357756e-7, -0.9490002, 0.31527564), (0.36316663, -0.876762, 0.31527525), (0.3007443, -0.7260611, 0.6183754), (2.4963148e-7, -0.7858824, 0.618376), (0.35790768, 0.8640654, 0.35396752), (-6.492923e-8, 0.9352578, 0.3539673), (-1.6682938e-7, 0.43657306, 0.8996688), (0.16706935, 0.40334055, 0.89966893), (0.8640653, -0.35790774, -0.35396785), (0.6613268, -0.66132724, -0.3539678), (0.30870318, -0.30870357, -0.89966905), (0.4033402, -0.16706921, -0.8996691), (-0.7055985, -0.7055987, 0.06527941), (-0.38186702, -0.9219089, 0.06528051), (-0.31696686, -0.7652251, 0.5603236), (-0.58567864, -0.5856791, 0.56032175), (-0.9219088, 0.3818675, -0.06527895), (-0.7055982, 0.705599, -0.06527819), (-0.58567953, 0.5856803, -0.56031954), (-0.7652269, 0.3169677, -0.5603207), (0.3631668, -0.876762, -0.31527513), (3.1555794e-7, -0.9490002, -0.31527564), (5.260092e-7, -0.7858824, -0.618376), (0.30074462, -0.72606117, -0.6183752), (0.38186723, 0.9219088, 0.06528022), (7.1189675e-8, 0.997867, 0.06527978), (1.7975548e-8, 0.82827437, 0.5603228), (0.3169669, 0.7652253, 0.5603234), (-0.6613274, 0.6613272, 0.35396668), (-0.8640654, 0.3579078, 0.35396755), (-0.40334147, 0.16706926, 0.8996686), (-0.30870524, 0.308704, 0.8996683), (4.869694e-8, 0.93525755, -0.3539678), (0.3579078, 0.86406523, -0.35396796), (0.16706891, 0.40334004, -0.89966923), (-1.6198831e-7, 0.43657243, -0.8996691), (0.997867, 4.1527308e-8, -0.065280125), (0.9219088, -0.3818674, -0.06528034), (0.76522493, -0.3169674, -0.56032354), (0.82827413, 1.07853275e-7, -0.5603231), (-0.3579075, -0.8640655, -0.35396746), (-0.6613269, -0.6613274, -0.35396728), (-0.30870408, -0.3087041, -0.8996687), (-0.1670692, -0.40334082, -0.89966893), (-0.70559835, 0.7055988, 0.06527889), (-0.92190886, 0.38186744, 0.065279104), (-0.76522666, 0.3169675, 0.56032115), (-0.58567923, 0.5856795, 0.56032073), (-0.36316642, -0.8767617, 0.31527612), (1.9357756e-7, -0.9490002, 0.31527564), (2.4963148e-7, -0.7858824, 0.618376), (-0.30074397, -0.72606003, 0.6183768), (0.8640654, -0.3579075, 0.35396793), (0.9352577, 1.0821542e-8, 0.3539678), (0.4365726, 9.95426e-8, 0.8996691), (0.40334022, -0.16706894, 0.8996691), (3.1555794e-7, -0.9490002, -0.31527564), (-0.36316633, -0.8767618, -0.31527594), (-0.30074376, -0.7260603, -0.6183767), (5.260092e-7, -0.7858824, -0.618376), (0.36316666, 0.8767617, 0.31527594), (6.0990196e-8, 0.9490001, 0.31527576), (1.7830821e-8, 0.7858823, 0.61837614), (0.30074424, 0.7260601, 0.6183766), (0.9219089, -0.38186714, 0.06528007), (0.997867, -8.898709e-9, 0.0652801), (0.82827413, -8.987773e-9, 0.5603231), (0.76522565, -0.31696695, 0.5603228), (3.5594854e-7, -0.997867, -0.06528028), (-0.38186732, -0.92190886, -0.06528049), (-0.3169672, -0.7652243, -0.5603246), (3.4153538e-7, -0.82827365, -0.56032383), (-0.86406547, 0.35790777, -0.35396737), (-0.66132724, 0.6613272, -0.3539671), (-0.30870363, 0.30870402, -0.89966875), (-0.40334097, 0.1670692, -0.8996688), (-0.3579078, -0.86406535, 0.35396776), (3.6793247e-7, -0.93525755, 0.3539679), (7.944254e-8, -0.4365724, 0.8996691), (-0.1670687, -0.40334043, 0.8996692), (-0.67104405, -0.6710445, 0.3152763), (-0.36316642, -0.8767617, 0.31527612), (-0.30074397, -0.72606003, 0.6183768), (-0.5557017, -0.55570257, 0.61837715), (1.5910485e-8, 0.9490001, -0.31527573), (0.3631666, 0.87676173, -0.31527606), (0.30074406, 0.72606003, -0.6183768), (-1.15900335e-7, 0.7858823, -0.6183761), (0.9352577, -4.869694e-8, -0.35396776), (0.8640653, -0.35790774, -0.35396785), (0.4033402, -0.16706921, -0.8996691), (0.43657213, -1.3770045e-7, -0.89966923), (-0.38186702, -0.9219089, 0.06528051), (2.4619771e-7, -0.997867, 0.06528107), (2.6963318e-7, -0.8282733, 0.56032443), (-0.31696686, -0.7652251, 0.5603236), (-0.99786705, 2.284002e-7, -0.06527979), (-0.9219088, 0.3818675, -0.06527895), (-0.7652269, 0.3169677, -0.5603207), (-0.8282744, 3.4153535e-7, -0.56032264), (-0.36316633, -0.8767618, -0.31527594), (-0.67104423, -0.6710445, -0.31527582), (-0.5557022, -0.5557028, -0.6183765), (-0.30074376, -0.7260603, -0.6183767), (-0.8640654, 0.3579078, 0.35396755), (-0.93525773, 3.4628928e-7, 0.35396743), (-0.43657288, 4.183975e-7, 0.89966893), (-0.40334147, 0.16706926, 0.8996686), (0.67104435, 0.67104447, 0.3152758), (0.36316666, 0.8767617, 0.31527594), (0.30074424, 0.7260601, 0.6183766), (0.55570245, 0.5557027, 0.6183763), (0.9219089, 0.3818671, -0.06528021), (0.997867, 4.1527308e-8, -0.065280125), (0.82827413, 1.07853275e-7, -0.5603231), (0.7652254, 0.3169671, -0.560323), (3.030031e-7, -0.93525773, -0.35396737), (-0.3579075, -0.8640655, -0.35396746), (-0.1670692, -0.40334082, -0.89966893), (2.542162e-7, -0.43657303, -0.8996688), (-0.92190886, 0.38186744, 0.065279104), (-0.997867, 1.8390662e-7, 0.06527966), (-0.82827467, 1.9773101e-7, 0.5603224), (-0.76522666, 0.3169675, 0.56032115), (-0.8767615, -0.36316663, 0.31527638), (-0.67104405, -0.6710445, 0.3152763), (-0.5557017, -0.55570257, 0.61837715), (-0.72605956, -0.300744, 0.6183773), (0.3631666, 0.87676173, -0.31527606), (0.6710444, 0.67104435, -0.315276), (0.55570245, 0.5557024, -0.6183766), (0.30074406, 0.72606003, -0.6183768), (0.9352577, 1.0821542e-8, 0.3539678), (0.86406565, 0.3579075, 0.3539673), (0.40334088, 0.16706932, 0.8996689), (0.4365726, 9.95426e-8, 0.8996691), (-0.67104423, -0.6710445, -0.31527582), (-0.87676185, -0.36316645, -0.31527567), (-0.72606057, -0.3007439, -0.61837626), (-0.5557022, -0.5557028, -0.6183765), (0.997867, -8.898709e-9, 0.0652801), (0.9219089, 0.38186717, 0.06528008), (0.76522547, 0.316967, 0.56032306), (0.82827413, -8.987773e-9, 0.5603231), (0.3818672, -0.9219089, -0.06527996), (3.5594854e-7, -0.997867, -0.06528028), (3.4153538e-7, -0.82827365, -0.56032383), (0.31696692, -0.7652258, -0.56032264), (-0.93525773, 1.7314464e-7, -0.35396743), (-0.86406547, 0.35790777, -0.35396737), (-0.40334097, 0.1670692, -0.8996688), (-0.4365725, 1.6582808e-8, -0.89966905), (0.87676173, 0.36316666, 0.3152758), (0.67104435, 0.67104447, 0.3152758), (0.55570245, 0.5557027, 0.6183763), (0.7260603, 0.3007441, 0.6183764), (3.6793247e-7, -0.93525755, 0.3539679), (0.3579077, -0.8640655, 0.35396722), (0.16706936, -0.4033409, 0.8996688), (7.944254e-8, -0.4365724, 0.8996691), (-0.9490002, 2.1479154e-7, 0.31527555), (-0.8767615, -0.36316663, 0.31527638), (-0.72605956, -0.300744, 0.6183773), (-0.78588253, 2.674623e-7, 0.61837584), (0.6710444, 0.67104435, -0.315276), (0.87676173, 0.36316645, -0.3152762), (0.72605985, 0.30074388, -0.61837703), (0.55570245, 0.5557024, -0.6183766), (0.8640653, 0.3579075, -0.35396785), (0.9352577, -4.869694e-8, -0.35396776), (0.43657213, -1.3770045e-7, -0.89966923), (0.40334037, 0.16706896, -0.8996691), (2.4619771e-7, -0.997867, 0.06528107), (0.3818673, -0.92190886, 0.0652802), (0.31696704, -0.7652256, 0.5603229), (2.6963318e-7, -0.8282733, 0.56032443), (-0.9219088, -0.3818674, -0.06528029), (-0.99786705, 2.284002e-7, -0.06527979), (-0.8282744, 3.4153535e-7, -0.56032264), (-0.7652249, -0.31696716, -0.5603237), (-0.87676185, -0.36316645, -0.31527567), (-0.9490002, 2.4396076e-7, -0.31527567), (-0.7858823, 3.2987018e-7, -0.61837614), (-0.72606057, -0.3007439, -0.61837626), (-0.3818667, 0.92190915, -0.065278925), (1.661092e-7, 0.997867, -0.065280125), (1.5279218e-7, 0.82827425, -0.56032294), (-0.31696668, 0.76522726, -0.5603208), (-2.9983886e-7, -1, 1.9446021e-7), (-0.38268355, -0.9238795, 1.9446013e-7), (-0.38268355, -0.92387944, 1.9446011e-7), (-3.0951114e-7, -1, 1.9446023e-7)] (
                interpolation = "faceVarying"
            )
            point3f[] points = [(0, 0.26888898, 0.014417194), (0, 0.26888904, 0.20586795), (0.10289937, 0.24842103, 0.014417201), (0.10289937, 0.24842106, 0.20586795), (0.19013324, 0.19013323, 0.014417209), (0.19013324, 0.19013326, 0.20586795), (0.24842104, 0.10289935, 0.014417224), (0.24842104, 0.10289938, 0.20586798), (0.268889, -2.7349154e-8, 0.0144172385), (0.268889, 3.84213e-9, 0.20586798), (0.24842104, -0.10289941, 0.014417253), (0.24842104, -0.10289938, 0.205868), (0.19013324, -0.19013326, 0.014417268), (0.19013324, -0.19013323, 0.205868), (0.10289938, -0.24842106, 0.014417276), (0.10289938, -0.24842103, 0.20586802), (4.0601112e-8, -0.26888904, 0.014417283), (4.0601112e-8, -0.26888898, 0.20586804), (-0.10289931, -0.24842109, 0.014417276), (-0.10289931, -0.24842106, 0.20586802), (-0.19013318, -0.19013332, 0.014417268), (-0.19013318, -0.19013329, 0.205868), (-0.24842104, -0.102899425, 0.014417253), (-0.24842104, -0.102899395, 0.205868), (-0.268889, -1.2389172e-8, 0.0144172385), (-0.268889, 1.8802112e-8, 0.20586798), (-0.24842103, 0.1028994, 0.014417224), (-0.24842103, 0.10289943, 0.20586798), (-0.19013317, 0.19013329, 0.014417209), (-0.19013317, 0.19013332, 0.20586795), (-0.102899246, 0.24842109, 0.014417201), (-0.102899246, 0.24842112, 0.20586795), (0.26051104, -0.10790724, 0.05287544), (0.2587082, -0.107160494, 0.05287544), (0.2587082, -0.10716048, 0.16740982), (0.26051104, -0.10790723, 0.16740982), (0.19938652, -0.19938654, 0.052875455), (0.19800669, -0.1980067, 0.052875455), (0.19800669, -0.19800667, 0.16740984), (0.19938652, -0.1993865, 0.16740984), (0.10790723, -0.26051104, 0.052875463), (0.10716047, -0.2587082, 0.052875463), (0.10716047, -0.2587082, 0.16740984), (0.10790723, -0.26051104, 0.16740984), (4.0549192e-8, -0.28197515, 0.052875467), (4.0498076e-8, -0.28002375, 0.052875467), (4.0498076e-8, -0.28002375, 0.16740984), (4.0549192e-8, -0.28197515, 0.16740984), (-0.10790717, -0.2605111, 0.052875463), (-0.107160404, -0.25870824, 0.052875463), (-0.107160404, -0.25870824, 0.16740984), (-0.10790717, -0.2605111, 0.16740984), (-0.19938648, -0.19938663, 0.052875455), (-0.19800664, -0.1980068, 0.052875455), (-0.19800664, -0.19800676, 0.16740984), (-0.19938648, -0.1993866, 0.16740984), (-0.26051104, -0.107907265, 0.05287544), (-0.2587082, -0.10716051, 0.05287544), (-0.2587082, -0.107160494, 0.16740982), (-0.26051104, -0.10790725, 0.16740982), (-0.28197515, -5.6118297e-9, 0.052875422), (-0.28002375, -5.678716e-9, 0.052875422), (-0.28002375, 1.2981301e-8, 0.1674098), (-0.28197515, 1.3048188e-8, 0.1674098), (1.07348415e-8, 0.18287073, 0.024597377), (0.06998162, 0.16895051, 0.024597377), (0.06998162, 0.16895054, 0.19568779), (1.07348415e-8, 0.18287076, 0.19568779), (0.12930915, 0.12930912, 0.024597384), (0.12930915, 0.12930915, 0.1956878), (0.16895054, 0.06998159, 0.024597391), (0.16895054, 0.06998162, 0.1956878), (0.18287076, -2.3853275e-8, 0.024597406), (0.18287076, 4.0208894e-9, 0.19568782), (0.16895054, -0.06998164, 0.024597421), (0.16895054, -0.06998161, 0.19568783), (0.12930915, -0.12930916, 0.024597429), (0.12930915, -0.12930913, 0.19568783), (0.06998163, -0.16895054, 0.024597436), (0.06998163, -0.16895051, 0.19568785), (3.8347554e-8, -0.18287076, 0.024597436), (3.8347554e-8, -0.18287073, 0.19568785), (-0.06998155, -0.16895057, 0.024597436), (-0.06998155, -0.16895054, 0.19568785), (-0.1293091, -0.1293092, 0.024597429), (-0.1293091, -0.12930918, 0.19568783), (-0.16895053, -0.06998165, 0.024597421), (-0.16895053, -0.06998162, 0.19568783), (-0.18287073, -1.3679028e-8, 0.024597406), (-0.18287073, 1.4195136e-8, 0.19568782), (-0.16895051, 0.06998162, 0.024597391), (-0.16895051, 0.06998165, 0.1956878), (-0.12930909, 0.12930916, 0.024597384), (-0.12930909, 0.12930919, 0.1956878), (-0.069981515, 0.16895057, 0.024597377), (-0.069981515, 0.1689506, 0.19568779), (8.979452e-9, 0.19693668, 0.021326728), (8.259241e-9, 0.20270771, 0.008071266), (0.077572905, 0.1872775, 0.008071266), (0.07536442, 0.18194576, 0.021326728), (0.07536442, 0.18194579, 0.19895843), (0.077572905, 0.18727753, 0.2122139), (8.259241e-9, 0.20270774, 0.2122139), (8.97945e-9, 0.19693671, 0.19895843), (0.14333601, 0.14333598, 0.008071274), (0.13925527, 0.13925524, 0.021326736), (0.13925527, 0.13925527, 0.19895844), (0.14333601, 0.14333601, 0.2122139), (0.18727753, 0.077572875, 0.008071281), (0.18194579, 0.07536439, 0.021326743), (0.18194579, 0.07536442, 0.19895846), (0.18727753, 0.077572905, 0.2122139), (0.20270772, -2.6969431e-8, 0.008071296), (0.1969367, -2.4686573e-8, 0.021326758), (0.19693671, 4.2533035e-9, 0.19895846), (0.20270775, 6.289625e-9, 0.21221393), (0.18727753, -0.07757293, 0.008071311), (0.18194579, -0.07536444, 0.021326773), (0.18194579, -0.07536441, 0.19895849), (0.18727753, -0.0775729, 0.21221393), (0.14333601, -0.14333603, 0.008071318), (0.13925527, -0.13925529, 0.02132678), (0.13925527, -0.13925526, 0.19895849), (0.14333601, -0.143336, 0.21221395), (0.07757291, -0.18727753, 0.008071326), (0.075364426, -0.18194579, 0.021326788), (0.075364426, -0.18194576, 0.19895849), (0.07757291, -0.1872775, 0.21221396), (3.8867256e-8, -0.20270774, 0.008071326), (3.8716063e-8, -0.19693671, 0.021326788), (3.8716063e-8, -0.19693668, 0.19895849), (3.8867256e-8, -0.2027077, 0.21221396), (-0.07757284, -0.18727756, 0.008071326), (-0.07536435, -0.1819458, 0.021326788), (-0.07536435, -0.18194579, 0.19895849), (-0.07757284, -0.18727753, 0.21221396), (-0.14333597, -0.14333607, 0.008071318), (-0.13925521, -0.13925533, 0.02132678), (-0.13925523, -0.13925532, 0.19895849), (-0.14333597, -0.14333604, 0.21221395), (-0.18727751, -0.077572934, 0.008071311), (-0.18194577, -0.07536445, 0.021326773), (-0.18194577, -0.07536442, 0.19895849), (-0.18727751, -0.077572905, 0.21221393), (-0.20270771, -1.569153e-8, 0.008071296), (-0.19693668, -1.3729752e-8, 0.021326758), (-0.19693667, 1.5210125e-8, 0.19895846), (-0.20270771, 1.7567526e-8, 0.21221393), (-0.1872775, 0.077572905, 0.008071281), (-0.18194576, 0.07536442, 0.021326743), (-0.18194576, 0.07536445, 0.19895846), (-0.1872775, 0.077572934, 0.2122139), (-0.14333595, 0.14333603, 0.008071274), (-0.13925521, 0.1392553, 0.021326736), (-0.13925521, 0.13925533, 0.19895844), (-0.14333595, 0.14333606, 0.2122139), (-0.07757279, 0.18727754, 0.008071266), (-0.07536431, 0.1819458, 0.021326728), (-0.07536431, 0.18194583, 0.19895843), (-0.07757279, 0.18727757, 0.2122139), (-0.26051104, 0.10790726, 0.052875403), (-0.2587082, 0.1071605, 0.052875403), (-0.2587082, 0.107160516, 0.16740978), (-0.26051104, 0.10790727, 0.16740978), (-0.19938646, 0.1993866, 0.05287539), (-0.19800663, 0.19800676, 0.05287539), (-0.19800663, 0.1980068, 0.16740976), (-0.19938646, 0.19938663, 0.16740976), (-0.107907094, 0.26051113, 0.05287538), (-0.10716033, 0.2587083, 0.05287538), (-1.7843399e-9, 0.28002375, 0.052875377), (-2.027869e-9, 0.28197515, 0.052875377), (-2.027869e-9, 0.28197515, 0.16740975), (-1.7843399e-9, 0.28002375, 0.16740975), (-0.10716033, 0.2587083, 0.16740976), (-0.107907094, 0.26051113, 0.16740976), (-1.9492872e-9, 0.28450865, 0.17403936), (-2.1967137e-9, 0.28649127, 0.1626145), (-2.1967137e-9, 0.28649127, 0.057670627), (-1.9492872e-9, 0.28450865, 0.04624577), (0.10887676, 0.26285172, 0.04624577), (0.10963547, 0.26468343, 0.05767063), (0.10963547, 0.26468343, 0.1626145), (0.10887676, 0.26285172, 0.17403936), (0.20117798, 0.20117797, 0.046245784), (0.20257992, 0.2025799, 0.05767064), (0.20257992, 0.20257993, 0.16261451), (0.20117798, 0.201178, 0.17403938), (0.26285172, 0.108876735, 0.0462458), (0.26468343, 0.10963546, 0.057670657), (0.26468343, 0.10963547, 0.16261452), (0.26285172, 0.10887675, 0.1740394), (0.28450865, -2.249725e-8, 0.046245813), (0.28649127, -2.0678252e-8, 0.057670675), (0.28649127, -3.5807268e-9, 0.16261455), (0.28450865, -1.6770318e-9, 0.17403941), (0.26285172, -0.10887678, 0.04624583), (0.26468343, -0.109635495, 0.057670694), (0.26468343, -0.10963548, 0.16261457), (0.26285172, -0.108876765, 0.17403942), (0.20117798, -0.201178, 0.046245843), (0.20257992, -0.20257993, 0.05767071), (0.20257992, -0.2025799, 0.16261458), (0.20117798, -0.20117797, 0.17403944), (0.108876765, -0.26285172, 0.046245858), (0.10963548, -0.26468343, 0.05767072), (0.10963548, -0.26468343, 0.16261458), (0.108876765, -0.26285172, 0.17403945), (4.1010324e-8, -0.28450865, 0.046245858), (4.1062265e-8, -0.28649127, 0.057670724), (4.1062265e-8, -0.28649127, 0.1626146), (4.1010324e-8, -0.28450865, 0.17403945), (-0.10887669, -0.26285174, 0.046245858), (-0.10963541, -0.26468346, 0.05767072), (-0.10963541, -0.26468346, 0.16261458), (-0.10887669, -0.26285174, 0.17403945), (-0.20117794, -0.20117807, 0.046245843), (-0.20257987, -0.20258, 0.05767071), (-0.20257987, -0.20257998, 0.16261458), (-0.20117794, -0.20117804, 0.17403944), (-0.26285172, -0.108876795, 0.04624583), (-0.26468343, -0.10963552, 0.057670694), (-0.26468343, -0.1096355, 0.16261457), (-0.26285172, -0.10887678, 0.17403942), (-0.28450865, -6.6682513e-9, 0.046245813), (-0.28649127, -4.7389466e-9, 0.057670675), (-0.28649127, 1.2358578e-8, 0.16261455), (-0.28450865, 1.4151967e-8, 0.17403941), (-0.2628517, 0.10887679, 0.0462458), (-0.2646834, 0.10963551, 0.057670657), (-0.2646834, 0.109635524, 0.16261452), (-0.2628517, 0.1088768, 0.1740394), (-0.20117791, 0.20117804, 0.046245784), (-0.20257986, 0.20257998, 0.05767064), (-0.20257986, 0.20258, 0.16261451), (-0.20117791, 0.20117807, 0.17403938), (-0.108876616, 0.26285177, 0.04624577), (-0.10963534, 0.26468349, 0.05767063), (-0.10963534, 0.26468349, 0.1626145), (-0.108876616, 0.26285177, 0.17403936), (-0.10963534, 0.26468349, 0.11588204), (-0.10963534, 0.26468349, 0.10440309), (-2.1967137e-9, 0.28649127, 0.10440309), (-2.1967137e-9, 0.28649127, 0.11588204), (-0.20257986, 0.20257999, 0.11588205), (-0.20257986, 0.20257999, 0.10440311), (-0.2646834, 0.10963552, 0.11588206), (-0.2646834, 0.10963552, 0.10440312), (-0.28649127, 4.7448947e-9, 0.115882084), (-0.28649127, 2.8747373e-9, 0.10440314), (-0.26468343, -0.10963551, 0.1158821), (-0.26468343, -0.10963551, 0.10440316), (-0.20257987, -0.20257999, 0.11588211), (-0.20257987, -0.20257999, 0.104403175), (-0.10963541, -0.26468346, 0.11588213), (-0.10963541, -0.26468346, 0.10440318), (4.1062265e-8, -0.28649127, 0.11588213), (4.1062265e-8, -0.28649127, 0.10440318), (0.10963548, -0.26468343, 0.11588213), (0.10963548, -0.26468343, 0.10440318), (0.20257992, -0.20257992, 0.11588211), (0.20257992, -0.20257992, 0.104403175), (0.26468343, -0.10963549, 0.1158821), (0.26468343, -0.10963549, 0.10440316), (0.28649127, -1.1194411e-8, 0.115882084), (0.28649127, -1.3064568e-8, 0.10440314), (0.26468343, 0.109635465, 0.11588206), (0.26468343, 0.109635465, 0.10440312), (0.20257992, 0.20257992, 0.11588205), (0.20257992, 0.20257992, 0.10440311), (0.10963547, 0.26468343, 0.11588204), (0.10963547, 0.26468343, 0.10440309), (0.28197515, -2.6398572e-9, 0.1674098), (0.28002375, -2.598176e-9, 0.1674098), (0.28002375, -2.1258193e-8, 0.052875422), (0.28197515, -2.1299876e-8, 0.052875422), (0.26051104, 0.10790722, 0.16740978), (0.2587082, 0.107160464, 0.16740978), (0.2587082, 0.10716045, 0.052875403), (0.26051104, 0.107907206, 0.052875403), (0.19938652, 0.19938654, 0.16740976), (0.19800669, 0.1980067, 0.16740976), (0.19800669, 0.19800667, 0.05287539), (0.19938652, 0.1993865, 0.05287539), (0.10790722, 0.26051104, 0.16740976), (0.107160464, 0.2587082, 0.16740976), (0.107160464, 0.2587082, 0.05287538), (0.10790722, 0.26051104, 0.05287538), (0.10790722, 0.26051104, 0.110142566), (-2.027869e-9, 0.28197515, 0.110142566), (0.19938652, 0.19938652, 0.11014258), (0.26051104, 0.10790721, 0.110142596), (0.28197515, -1.1969866e-8, 0.11014261), (0.26051104, -0.107907236, 0.110142626), (0.19938652, -0.19938652, 0.11014264), (0.10790723, -0.26051104, 0.110142656), (4.0549192e-8, -0.28197515, 0.110142656), (-0.10790717, -0.2605111, 0.110142656), (-0.19938648, -0.19938661, 0.11014264), (-0.26051104, -0.10790726, 0.110142626), (-0.28197515, 3.7181787e-9, 0.11014261), (-0.26051104, 0.107907265, 0.110142596), (-0.19938646, 0.19938661, 0.11014258), (-0.107907094, 0.26051113, 0.110142566)]
            texCoord2f[] primvars:st = [(0.14160159, 0.57793146), (0.14160159, 0.57793146), (0.14160159, 0.57793146), (0.14160159, 0.57793146), (0.14160159, 0.57793146), (0.14160159, 0.57793146), (0.14160159, 0.57793146), (0.14160159, 0.57793146), (0.14160159, 0.57793146), (0.14160159, 0.57793146), (0.14160159, 0.57793146), (0.14160159, 0.57793146), (0.14160159, 0.57793146), (0.14160159, 0.57793146), (0.14160159, 0.57793146), (0.14160159, 0.57793146), (0.14160159, 0.57793146), (0.14160159, 0.57793146), (0.14160159, 0.57793146), (0.14160159, 0.57793146), (0.14160159, 0.57793146), (0.14160159, 0.57793146), (0.14160159, 0.57793146), (0.14160159, 0.57793146), (0.14160159, 0.57793146), (0.14160159, 0.57793146), (0.14160159, 0.57793146), (0.14160159, 0.57793146), (0.14160159, 0.57793146), (0.14160159, 0.57793146), (0.14160159, 0.57793146), (0.14160159, 0.57793146), (0.14160159, 0.57793146), (0.14160159, 0.57793146), (0.14160159, 0.57793146), (0.14160159, 0.57793146), (0.14160159, 0.57793146), (0.14160159, 0.57793146), (0.14160159, 0.57793146), (0.14160159, 0.57793146), (0.14160159, 0.57793146), (0.14160159, 0.57793146), (0.14160159, 0.57793146), (0.14160159, 0.57793146), (0.14160159, 0.57793146), (0.14160159, 0.57793146), (0.14160159, 0.57793146), (0.14160159, 0.57793146), (0.14160159, 0.57793146), (0.14160159, 0.57793146), (0.14160159, 0.57793146), (0.14160159, 0.57793146), (0.14160159, 0.57793146), (0.14160159, 0.57793146), (0.14160159, 0.57793146), (0.14160159, 0.57793146), (0.14160159, 0.57793146), (0.14160159, 0.57793146), (0.14160159, 0.57793146), (0.14160159, 0.57793146), (0.14160159, 0.57793146), (0.14160159, 0.57793146), (0.14160159, 0.57793146), (0.14160159, 0.57793146), (0.11039281, 0.5797589), (0.14160159, 0.57793146), (0.11039281, 0.5797589), (0.14160159, 0.57793146), (0.11039281, 0.5797589), (0.14160159, 0.57793146), (0.11039281, 0.5797589), (0.14160159, 0.57793146), (0.14160159, 0.57793146), (0.11039281, 0.5797589), (0.14160159, 0.57793146), (0.11039281, 0.5797589), (0.14160159, 0.57793146), (0.11039281, 0.5797589), (0.14160159, 0.57793146), (0.11039281, 0.5797589), (0.14160159, 0.57793146), (0.11039281, 0.5797589), (0.14160159, 0.57793146), (0.11039281, 0.5797589), (0.14160159, 0.57793146), (0.11039281, 0.5797589), (0.14160159, 0.57793146), (0.11039281, 0.5797589), (0.14160159, 0.57793146), (0.11039281, 0.5797589), (0.14160159, 0.57793146), (0.11039281, 0.5797589), (0.14160159, 0.57793146), (0.11039281, 0.5797589), (0.14160159, 0.57793146), (0.11039281, 0.5797589), (0.14160159, 0.57793146), (0.11039281, 0.5797589), (0.14160159, 0.57793146), (0.11039281, 0.5797589), (0.14160159, 0.57793146), (0.11039281, 0.5797589), (0.14160159, 0.57793146), (0.11039281, 0.5797589), (0.14160159, 0.57793146), (0.11039281, 0.5797589), (0.14160159, 0.57793146), (0.11039281, 0.5797589), (0.14160159, 0.57793146), (0.11039281, 0.5797589), (0.14160159, 0.57793146), (0.11039281, 0.5797589), (0.14160159, 0.57793146), (0.11039281, 0.5797589), (0.14160159, 0.57793146), (0.11039281, 0.5797589), (0.14160159, 0.57793146), (0.11039281, 0.5797589), (0.14160159, 0.57793146), (0.11039281, 0.5797589), (0.14160159, 0.57793146), (0.11039281, 0.5797589), (0.14160159, 0.57793146), (0.11039281, 0.5797589), (0.14160159, 0.57793146), (0.11039281, 0.5797589), (0.14160159, 0.57793146), (0.11039281, 0.5797589), (0.14160159, 0.57793146), (0.11039281, 0.5797589), (0.14160159, 0.57793146), (0.14160159, 0.57793146), (0.11039281, 0.5797589), (0.14160159, 0.57793146), (0.11039281, 0.5797589), (0.14160159, 0.57793146), (0.14160159, 0.57793146), (0.14160159, 0.57793146), (0.11039281, 0.5797589), (0.14160159, 0.57793146), (0.14160159, 0.57793146), (0.11039281, 0.5797589), (0.14160159, 0.57793146), (0.11039281, 0.5797589), (0.14160159, 0.57793146), (0.14160159, 0.57793146), (0.14160159, 0.57793146), (0.11039281, 0.5797589), (0.14160159, 0.57793146), (0.11039281, 0.5797589), (0.14160159, 0.57793146), (0.14160159, 0.57793146), (0.14160159, 0.57793146), (0.11039281, 0.5797589), (0.14160159, 0.57793146), (0.11039281, 0.5797589), (0.14160159, 0.57793146), (0.14160159, 0.57793146), (0.14160159, 0.57793146), (0.11039281, 0.5797589), (0.14160159, 0.57793146), (0.11039281, 0.5797589), (0.14160159, 0.57793146), (0.14160159, 0.57793146), (0.14160159, 0.57793146), (0.11039281, 0.5797589), (0.14160159, 0.57793146), (0.11039281, 0.5797589), (0.14160159, 0.57793146), (0.14160159, 0.57793146), (0.14160159, 0.57793146), (0.11039281, 0.5797589), (0.14160159, 0.57793146), (0.11039281, 0.5797589), (0.14160159, 0.57793146), (0.14160159, 0.57793146), (0.14160159, 0.57793146), (0.11039281, 0.5797589), (0.14160159, 0.57793146), (0.11039281, 0.5797589), (0.14160159, 0.57793146), (0.14160159, 0.57793146), (0.14160159, 0.57793146), (0.11039281, 0.5797589), (0.14160159, 0.57793146), (0.11039281, 0.5797589), (0.14160159, 0.57793146), (0.14160159, 0.57793146), (0.14160159, 0.57793146), (0.11039281, 0.5797589), (0.14160159, 0.57793146), (0.11039281, 0.5797589), (0.14160159, 0.57793146), (0.14160159, 0.57793146), (0.14160159, 0.57793146), (0.11039281, 0.5797589), (0.14160159, 0.57793146), (0.11039281, 0.5797589), (0.14160159, 0.57793146), (0.14160159, 0.57793146), (0.14160159, 0.57793146), (0.11039281, 0.5797589), (0.14160159, 0.57793146), (0.11039281, 0.5797589), (0.14160159, 0.57793146), (0.14160159, 0.57793146), (0.14160159, 0.57793146), (0.11039281, 0.5797589), (0.14160159, 0.57793146), (0.11039281, 0.5797589), (0.14160159, 0.57793146), (0.14160159, 0.57793146), (0.14160159, 0.57793146), (0.11039281, 0.5797589), (0.14160159, 0.57793146), (0.11039281, 0.5797589), (0.14160159, 0.57793146), (0.14160159, 0.57793146), (0.14160159, 0.57793146), (0.14160159, 0.57793146), (0.11039281, 0.5797589), (0.11039281, 0.5797589), (0.14160159, 0.57793146), (0.14160159, 0.57793146), (0.14160159, 0.57793146), (0.14160159, 0.57793146), (0.14160159, 0.57793146), (0.14160159, 0.57793146), (0.14160159, 0.57793146), (0.14160159, 0.57793146), (0.14160159, 0.57793146), (0.14160159, 0.57793146), (0.14160159, 0.57793146), (0.14160159, 0.57793146), (0.14160159, 0.57793146), (0.14160159, 0.57793146), (0.14160159, 0.57793146), (0.14160159, 0.57793146), (0.14160159, 0.57793146), (0.14160159, 0.57793146), (0.14160159, 0.57793146), (0.14160159, 0.57793146), (0.14160159, 0.57793146), (0.14160159, 0.57793146), (0.14160159, 0.57793146), (0.14160159, 0.57793146), (0.14160159, 0.57793146), (0.14160159, 0.57793146), (0.14160159, 0.57793146), (0.14160159, 0.57793146), (0.14160159, 0.57793146), (0.14160159, 0.57793146), (0.14160159, 0.57793146), (0.14160159, 0.57793146), (0.14160159, 0.57793146), (0.14160159, 0.57793146), (0.14160159, 0.57793146), (0.14160159, 0.57793146), (0.14160159, 0.57793146), (0.14160159, 0.57793146), (0.14160159, 0.57793146), (0.14160159, 0.57793146), (0.14160159, 0.57793146), (0.14160159, 0.57793146), (0.14160159, 0.57793146), (0.14160159, 0.57793146), (0.14160159, 0.57793146), (0.14160159, 0.57793146), (0.14160159, 0.57793146), (0.14160159, 0.57793146), (0.14160159, 0.57793146), (0.14160159, 0.57793146), (0.14160159, 0.57793146), (0.14160159, 0.57793146), (0.14160159, 0.57793146), (0.14160159, 0.57793146), (0.14160159, 0.57793146), (0.14160159, 0.57793146), (0.14160159, 0.57793146), (0.14160159, 0.57793146), (0.14160159, 0.57793146), (0.14160159, 0.57793146), (0.14160159, 0.57793146), (0.14160159, 0.57793146), (0.14160159, 0.57793146), (0.14160159, 0.57793146), (0.14160159, 0.57793146), (0.14160159, 0.57793146), (0.14160159, 0.57793146), (0.14160159, 0.57793146), (0.14160159, 0.57793146), (0.14160159, 0.57793146), (0.14160159, 0.57793146), (0.14160159, 0.57793146), (0.14160159, 0.57793146), (0.14160159, 0.57793146), (0.14160159, 0.57793146), (0.14160159, 0.57793146), (0.14160159, 0.57793146), (0.14160159, 0.57793146), (0.14160159, 0.57793146), (0.14160159, 0.57793146), (0.14160159, 0.57793146), (0.14160159, 0.57793146), (0.14160159, 0.57793146), (0.14160159, 0.57793146), (0.14160159, 0.57793146), (0.14160159, 0.57793146), (0.14160159, 0.57793146), (0.14160159, 0.57793146), (0.14160159, 0.57793146), (0.14160159, 0.57793146), (0.14160159, 0.57793146), (0.14160159, 0.57793146), (0.14160159, 0.57793146), (0.14160159, 0.57793146), (0.14160159, 0.57793146), (0.14160159, 0.57793146), (0.14160159, 0.57793146), (0.14160159, 0.57793146), (0.14160159, 0.57793146), (0.14160159, 0.57793146), (0.14160159, 0.57793146), (0.14160159, 0.57793146), (0.14160159, 0.57793146), (0.14160159, 0.57793146), (0.14160159, 0.57793146), (0.14160159, 0.57793146), (0.14160159, 0.57793146), (0.14160159, 0.57793146), (0.14160159, 0.57793146), (0.14160159, 0.57793146), (0.14160159, 0.57793146), (0.14160159, 0.57793146), (0.14160159, 0.57793146), (0.14160159, 0.57793146), (0.14160159, 0.57793146), (0.14160159, 0.57793146), (0.14160159, 0.57793146), (0.14160159, 0.57793146), (0.14160159, 0.57793146), (0.14160159, 0.57793146), (0.14160159, 0.57793146), (0.14160159, 0.57793146), (0.14160159, 0.57793146), (0.14160159, 0.57793146), (0.14160159, 0.57793146), (0.14160159, 0.57793146), (0.14160159, 0.57793146), (0.14160159, 0.57793146), (0.14160159, 0.57793146), (0.14160159, 0.57793146), (0.14160159, 0.57793146), (0.14160159, 0.57793146), (0.14160159, 0.57793146), (0.14160159, 0.57793146), (0.14160159, 0.57793146), (0.14160159, 0.57793146), (0.14160159, 0.57793146), (0.14160159, 0.57793146), (0.14160159, 0.57793146), (0.14160159, 0.5779315), (0.14160159, 0.57793146), (0.14160159, 0.57793146), (0.14160159, 0.57793146), (0.14160159, 0.57793146), (0.14160159, 0.57793146), (0.14160159, 0.57793146)] (
                interpolation = "faceVarying"
            )
            int[] primvars:st:indices = [335, 333, 249, 245, 250, 254, 330, 332, 254, 258, 328, 330, 258, 262, 326, 328, 262, 266, 324, 326, 266, 270, 322, 324, 270, 274, 320, 322, 274, 278, 318, 320, 278, 282, 316, 318, 282, 286, 314, 316, 286, 290, 312, 314, 290, 294, 310, 312, 294, 298, 308, 310, 298, 302, 304, 308, 116, 120, 122, 118, 30, 300, 243, 0, 71, 126, 124, 65, 246, 250, 332, 334, 238, 237, 236, 239, 309, 305, 301, 297, 311, 309, 297, 293, 313, 311, 293, 289, 315, 313, 289, 285, 317, 315, 285, 281, 319, 317, 281, 277, 321, 319, 277, 273, 323, 321, 273, 269, 325, 323, 269, 265, 327, 325, 265, 261, 329, 327, 261, 257, 331, 329, 257, 253, 333, 331, 253, 249, 306, 335, 245, 242, 0, 243, 244, 2, 28, 296, 300, 30, 26, 292, 296, 28, 24, 288, 292, 26, 22, 284, 288, 24, 20, 280, 284, 22, 18, 276, 280, 20, 16, 272, 276, 18, 14, 268, 272, 16, 12, 264, 268, 14, 10, 260, 264, 12, 8, 256, 260, 10, 6, 252, 256, 8, 4, 248, 252, 6, 2, 244, 248, 4, 305, 306, 242, 301, 241, 246, 334, 307, 102, 98, 96, 100, 118, 114, 112, 116, 82, 78, 76, 80, 72, 76, 78, 74, 106, 102, 100, 104, 67, 72, 74, 69, 138, 221, 127, 70, 132, 141, 73, 66, 110, 106, 104, 108, 80, 84, 86, 82, 90, 86, 84, 88, 114, 110, 108, 112, 195, 201, 113, 109, 161, 155, 83, 87, 94, 90, 88, 92, 126, 122, 120, 124, 98, 94, 92, 96, 203, 197, 111, 115, 159, 165, 89, 85, 201, 207, 117, 113, 167, 161, 87, 91, 209, 203, 115, 119, 165, 171, 93, 89, 207, 213, 121, 117, 173, 167, 91, 95, 215, 209, 119, 123, 171, 177, 97, 93, 0, 2, 131, 130, 213, 220, 125, 121, 179, 173, 95, 99, 3, 1, 137, 136, 221, 215, 123, 127, 177, 183, 101, 97, 143, 134, 68, 75, 185, 179, 99, 103, 183, 189, 105, 101, 149, 143, 75, 79, 141, 147, 77, 73, 191, 185, 103, 107, 147, 153, 81, 77, 189, 195, 109, 105, 155, 149, 79, 83, 197, 191, 107, 111, 153, 159, 85, 81, 30, 0, 130, 218, 5, 3, 136, 145, 2, 4, 140, 131, 134, 138, 70, 68, 4, 6, 146, 140, 7, 5, 145, 151, 6, 8, 152, 146, 9, 7, 151, 157, 8, 10, 158, 152, 11, 9, 157, 163, 10, 12, 164, 158, 13, 11, 163, 169, 12, 14, 170, 164, 15, 13, 169, 175, 14, 16, 176, 170, 17, 15, 175, 181, 16, 18, 182, 176, 19, 17, 181, 187, 18, 20, 188, 182, 21, 19, 187, 193, 20, 22, 194, 188, 23, 21, 193, 199, 22, 24, 200, 194, 25, 23, 199, 205, 24, 26, 206, 200, 27, 25, 205, 211, 26, 28, 212, 206, 29, 27, 211, 217, 28, 30, 218, 212, 31, 29, 217, 223, 129, 132, 66, 64, 1, 31, 223, 137, 130, 131, 133, 128, 136, 137, 139, 135, 131, 140, 142, 133, 145, 136, 135, 144, 140, 146, 148, 142, 151, 145, 144, 150, 146, 152, 154, 148, 157, 151, 150, 156, 152, 158, 160, 154, 163, 157, 156, 162, 158, 164, 166, 160, 169, 163, 162, 168, 164, 170, 172, 166, 175, 169, 168, 174, 170, 176, 178, 172, 181, 175, 174, 180, 176, 182, 184, 178, 187, 181, 180, 186, 182, 188, 190, 184, 193, 187, 186, 192, 188, 194, 196, 190, 199, 193, 192, 198, 194, 200, 202, 196, 205, 199, 198, 204, 200, 206, 208, 202, 211, 205, 204, 210, 206, 212, 214, 208, 217, 211, 210, 216, 212, 218, 219, 214, 223, 217, 216, 222, 218, 130, 128, 219, 137, 223, 222, 139, 220, 129, 64, 125, 240, 1, 3, 247, 247, 3, 5, 251, 251, 5, 7, 255, 255, 7, 9, 259, 259, 9, 11, 263, 263, 11, 13, 267, 267, 13, 15, 271, 271, 15, 17, 275, 275, 17, 19, 279, 279, 19, 21, 283, 283, 21, 23, 287, 287, 23, 25, 291, 291, 25, 27, 295, 295, 27, 29, 299, 299, 29, 31, 303, 303, 31, 1, 240, 240, 247, 349, 237, 297, 301, 232, 228, 279, 283, 54, 50, 264, 260, 33, 37, 245, 249, 347, 351, 324, 322, 359, 358, 304, 307, 353, 367, 266, 262, 35, 39, 323, 325, 358, 359, 300, 296, 229, 233, 306, 305, 367, 353, 281, 285, 56, 52, 263, 267, 38, 34, 248, 244, 350, 346, 302, 298, 231, 239, 308, 304, 367, 366, 250, 246, 348, 344, 326, 324, 358, 357, 299, 303, 238, 230, 305, 309, 366, 367, 284, 280, 53, 57, 265, 269, 40, 36, 247, 251, 345, 349, 325, 327, 357, 358, 286, 282, 55, 59, 301, 242, 235, 232, 310, 308, 366, 365, 283, 287, 58, 54, 268, 264, 37, 41, 249, 253, 343, 347, 328, 326, 357, 356, 309, 311, 365, 366, 270, 266, 39, 43, 327, 329, 356, 357, 243, 300, 233, 234, 285, 289, 60, 56, 267, 271, 42, 38, 252, 248, 346, 342, 312, 310, 365, 364, 254, 250, 344, 340, 330, 328, 356, 355, 241, 302, 239, 236, 311, 313, 364, 365, 288, 284, 57, 61, 269, 273, 44, 40, 251, 255, 341, 345, 329, 331, 355, 356, 290, 286, 59, 63, 302, 241, 307, 304, 234, 233, 232, 235, 230, 238, 239, 231, 233, 229, 228, 232, 226, 230, 231, 227, 229, 225, 224, 228, 62, 226, 227, 63, 225, 61, 60, 224, 58, 62, 63, 59, 61, 57, 56, 60, 54, 58, 59, 55, 57, 53, 52, 56, 50, 54, 55, 51, 53, 49, 48, 52, 46, 50, 51, 47, 49, 45, 44, 48, 42, 46, 47, 43, 45, 41, 40, 44, 38, 42, 43, 39, 41, 37, 36, 40, 34, 38, 39, 35, 37, 33, 32, 36, 337, 34, 35, 336, 33, 338, 339, 32, 341, 337, 336, 340, 338, 342, 343, 339, 345, 341, 340, 344, 342, 346, 347, 343, 349, 345, 344, 348, 346, 350, 351, 347, 237, 349, 348, 236, 350, 234, 235, 351, 282, 278, 51, 55, 321, 323, 359, 360, 246, 241, 236, 348, 261, 265, 36, 32, 280, 276, 49, 53, 295, 299, 230, 226, 322, 320, 360, 359, 244, 243, 234, 350, 298, 294, 227, 231, 242, 245, 351, 235, 259, 263, 34, 337, 277, 281, 52, 48, 296, 292, 225, 229, 319, 321, 360, 361, 262, 258, 336, 35, 320, 318, 361, 360, 335, 306, 353, 352, 260, 256, 338, 33, 275, 279, 50, 46, 293, 297, 228, 224, 278, 274, 47, 51, 317, 319, 361, 362, 307, 334, 352, 353, 257, 261, 32, 339, 276, 272, 45, 49, 291, 295, 226, 62, 318, 316, 362, 361, 294, 290, 63, 227, 333, 335, 352, 354, 255, 259, 337, 341, 273, 277, 48, 44, 292, 288, 61, 225, 315, 317, 362, 363, 334, 332, 354, 352, 258, 254, 340, 336, 316, 314, 363, 362, 256, 252, 342, 338, 271, 275, 46, 42, 289, 293, 224, 60, 331, 333, 354, 355, 274, 270, 43, 47, 313, 315, 363, 364, 332, 330, 355, 354, 253, 257, 339, 343, 272, 268, 41, 45, 287, 291, 62, 58, 314, 312, 364, 363, 303, 240, 237, 238, 65, 67, 69, 71]
            uniform token subdivisionScheme = "none"
            custom string userProperties:blender:data_name = "Cylinder.009"
        }
    }

    def Scope "_materials"
    {
        def Material "Atlas"
        {
            token outputs:surface.connect = </root/_materials/Atlas/Principled_BSDF.outputs:surface>
            custom string userProperties:blender:data_name = "Atlas"

            def Shader "Principled_BSDF"
            {
                uniform token info:id = "UsdPreviewSurface"
                float inputs:clearcoat = 0
                float inputs:clearcoatRoughness = 0.03
                color3f inputs:diffuseColor.connect = </root/_materials/Atlas/Image_Texture.outputs:rgb>
                color3f inputs:emissiveColor = (0, 0, 0)
                float inputs:ior = 1.5
                float inputs:metallic = 0
                float inputs:opacity = 1
                float inputs:roughness = 1
                float inputs:specular = 0.5
                token outputs:surface
            }

            def Shader "Image_Texture"
            {
                uniform token info:id = "UsdUVTexture"
                asset inputs:file = @./textures/T_ZombieAtlas_D.png@
                token inputs:sourceColorSpace = "sRGB"
                float2 inputs:st.connect = </root/_materials/Atlas/uvmap.outputs:result>
                token inputs:wrapS = "repeat"
                token inputs:wrapT = "repeat"
                float3 outputs:rgb
            }

            def Shader "uvmap"
            {
                uniform token info:id = "UsdPrimvarReader_float2"
                string inputs:varname = "st"
                float2 outputs:result
            }
        }
    }
}

