#usda 1.0
(
    defaultPrim = "root"
    doc = "Blender v5.1.2"
    metersPerUnit = 1
    upAxis = "Y"
)

def Xform "root" (
    customData = {
        dictionary Blender = {
            bool generated = 1
        }
    }
)
{
    float3 xformOp:rotateXYZ = (-90, -0, 0)
    uniform token[] xformOpOrder = ["xformOp:rotateXYZ"]

    def Xform "BookCase"
    {
        custom string userProperties:blender:object_name = "BookCase"

        def Mesh "Cube_004" (
            active = true
            prepend apiSchemas = ["MaterialBindingAPI"]
        )
        {
            uniform bool doubleSided = 1
            float3[] extent = [(-0.20250873, -0.37885168, -0.0010457025), (0.2494396, 0.37885168, 1.5324566)]
            int[] faceVertexCounts = [4, 4, 4, 4, 4, 4, 4, 4, 4, 4, 4, 6, 4, 4, 4, 4, 4, 4, 4, 4, 4, 3, 4, 4, 4, 3, 4, 4, 4, 4, 4, 4, 4, 4, 4, 4, 4, 4, 4, 4, 4, 4, 4, 4, 4, 4, 4, 4, 4, 4, 4, 4, 4, 4, 4, 4, 4, 4, 4, 4, 4, 4, 4, 4, 4, 4, 4, 4, 4, 4, 4, 4, 4, 4, 4, 4, 4, 4, 4, 4, 4, 4, 4, 4, 3, 4, 4, 4, 4, 4, 4, 4, 4, 4, 4, 4, 4, 4, 3, 4, 4, 3, 4, 4, 4, 4, 4, 4, 4, 4, 4, 4, 4, 4, 4, 4, 4, 4, 4, 4, 4, 4, 4, 4, 4, 4, 4, 4, 4, 4, 4, 4, 4, 4, 4, 4, 3, 4, 4, 4, 4, 4]
            int[] faceVertexIndices = [0, 2, 16, 17, 6, 77, 83, 12, 3, 74, 79, 8, 78, 75, 4, 7, 5, 76, 74, 3, 81, 71, 0, 10, 75, 77, 6, 4, 84, 81, 10, 13, 11, 4, 6, 12, 72, 80, 9, 1, 9, 20, 29, 25, 71, 73, 78, 7, 2, 0, 23, 94, 76, 5, 57, 58, 13, 14, 80, 91, 20, 9, 57, 14, 11, 41, 41, 11, 12, 49, 129, 84, 13, 58, 15, 18, 17, 16, 14, 13, 18, 15, 10, 0, 17, 18, 13, 10, 18, 94, 23, 42, 113, 27, 26, 25, 28, 3, 8, 31, 32, 4, 11, 21, 7, 4, 21, 22, 15, 16, 22, 21, 2, 7, 22, 16, 14, 15, 21, 11, 3, 19, 23, 5, 12, 83, 120, 49, 28, 25, 29, 30, 20, 24, 30, 29, 1, 9, 25, 26, 28, 30, 33, 32, 19, 3, 32, 33, 27, 28, 32, 31, 24, 19, 33, 30, 116, 45, 46, 117, 106, 35, 43, 114, 20, 91, 136, 65, 19, 34, 42, 23, 35, 36, 44, 43, 111, 40, 41, 112, 37, 38, 46, 45, 39, 40, 48, 47, 24, 50, 34, 19, 50, 51, 35, 34, 51, 52, 36, 35, 52, 53, 37, 36, 53, 54, 38, 37, 54, 55, 39, 38, 55, 56, 40, 39, 136, 135, 64, 65, 56, 57, 41, 40, 64, 135, 134, 63, 134, 133, 62, 63, 62, 133, 132, 61, 132, 131, 60, 61, 60, 131, 130, 59, 130, 129, 58, 59, 20, 65, 50, 24, 105, 34, 35, 106, 50, 65, 64, 51, 63, 52, 51, 64, 52, 63, 62, 53, 61, 54, 53, 62, 54, 61, 60, 55, 59, 56, 55, 60, 56, 59, 58, 57, 110, 39, 47, 118, 117, 46, 38, 109, 109, 38, 39, 110, 113, 42, 34, 105, 107, 36, 37, 108, 118, 47, 48, 119, 115, 44, 36, 107, 108, 37, 45, 116, 119, 48, 40, 111, 112, 41, 49, 120, 114, 43, 44, 115, 27, 31, 67, 68, 8, 1, 70, 66, 70, 69, 68, 66, 70, 68, 67, 31, 8, 66, 67, 26, 27, 68, 69, 1, 26, 69, 70, 71, 88, 87, 73, 82, 83, 77, 75, 80, 96, 100, 91, 128, 85, 84, 129, 128, 112, 82, 85, 112, 120, 83, 82, 86, 87, 88, 89, 85, 86, 89, 84, 81, 89, 88, 71, 84, 89, 81, 98, 99, 96, 97, 74, 103, 102, 79, 75, 92, 82, 78, 93, 92, 75, 86, 92, 93, 87, 73, 87, 93, 78, 85, 82, 92, 86, 74, 76, 94, 90, 99, 101, 100, 96, 91, 100, 101, 95, 72, 97, 96, 80, 99, 103, 104, 101, 90, 104, 103, 74, 98, 102, 103, 99, 95, 101, 104, 90, 90, 94, 113, 105, 106, 114, 115, 107, 108, 116, 117, 109, 110, 118, 119, 111, 95, 90, 105, 121, 121, 105, 106, 122, 122, 106, 107, 123, 123, 107, 108, 124, 124, 108, 109, 125, 125, 109, 110, 126, 126, 110, 111, 127, 127, 111, 112, 128, 91, 95, 121, 136, 121, 122, 135, 136, 134, 135, 122, 123, 123, 124, 133, 134, 132, 133, 124, 125, 125, 126, 131, 132, 130, 131, 126, 127, 127, 128, 129, 130, 98, 139, 138, 102, 79, 137, 141, 72, 141, 139, 140, 137, 138, 139, 141, 102, 138, 137, 79, 97, 140, 139, 98, 72, 141, 140, 97, 79, 72, 1, 8]
            rel material:binding = </root/_materials/Wood_004>
            normal3f[] normals = [(-0.0008219043, 0.0217253, -0.9997636), (-0.0008219043, 0.0217253, -0.9997636), (-0.0008219043, 0.0217253, -0.9997636), (-0.0008219043, 0.0217253, -0.9997636), (0.9999067, 0, -0.013660229), (0.9999067, 0, -0.013660229), (0.9999067, 0, -0.01366021), (0.9999067, 0, -0.01366021), (0.99987394, 0, -0.01587627), (0.99987394, 0, -0.01587627), (0.99987394, 0, -0.01587627), (0.99987394, 0, -0.01587627), (0.999874, 0, -0.01587626), (0.999874, 0, -0.01587626), (0.999874, 0, -0.01587626), (0.999874, 0, -0.01587626), (-0.007963056, 0, -0.99996823), (-0.007963056, 0, -0.99996823), (-0.007963056, 0, -0.99996823), (-0.007963056, 0, -0.99996823), (-0.9999005, -0.00011461374, -0.014103628), (-0.9999023, -0.0001130418, -0.01397555), (-0.9999023, 0.00011305168, -0.01397555), (-0.9999005, 0.0001146187, -0.014103628), (0.007963193, 0, 0.99996835), (0.007963193, 0, 0.99996835), (0.007963193, 0, 0.99996835), (0.007963193, 0, 0.99996835), (-0.99989873, -0.000021421522, -0.01423208), (-0.9999005, -0.00011461374, -0.014103628), (-0.9999005, 0.0001146187, -0.014103628), (-0.99989873, 0.000021421522, -0.01423208), (0.0009940004, 0.999876, 0.015716262), (0.0007801146, 0.99987614, 0.015719302), (0.00012525171, 0.99987626, 0.015728341), (0.00012525001, 0.9998763, 0.015728192), (-0.9999591, -0.000026198151, -0.009041339), (-0.9999033, -0.0000928439, -0.013909961), (-0.9999033, 0.00009288814, -0.01390996), (-0.9999591, 0.000026208627, -0.009041337), (-0.9999033, 0.00009288814, -0.01390996), (-0.99989873, 0.00007598575, -0.014231028), (-0.9998987, 0.00022799392, -0.014228493), (-0.99990314, 0.00016932926, -0.0139152445), (3.2027832e-11, 0, -1), (3.2027832e-11, 0, -1), (3.2027832e-11, 0, -1), (3.2027832e-11, 0, -1), (3.2027832e-11, 0, -1), (3.2027832e-11, 0, -1), (0.9999067, 0, -0.013660211), (0.9999067, 0, -0.013660211), (0.9999067, 0, -0.0136602465), (0.9999067, 0, -0.0136602465), (2.0956739e-8, -0.99986565, -0.016388759), (2.0956735e-8, -0.99986565, -0.016388759), (0, -0.9998657, -0.016388357), (0, -0.9998657, -0.016388357), (-0.9999033, -0.0000928439, -0.013909961), (-0.99989873, -0.00007597251, -0.014231026), (-0.99989873, 0.00007598575, -0.014231028), (-0.9999033, 0.00009288814, -0.01390996), (0.9998997, -0.0022661458, -0.013982273), (0.999899, -0.0024857584, -0.013985916), (0.999899, -0.0024857584, -0.013985916), (0.9999026, -0.0015121058, -0.013874311), (0.00012524826, 0.99987626, 0.01572804), (0.0009940004, 0.999876, 0.015716262), (0.00012525001, 0.9998763, 0.015728192), (0.00012524826, 0.99987626, 0.01572804), (-0.99989873, 0, -0.014232344), (-0.99989873, -0.000021421522, -0.01423208), (-0.99989873, 0.000021421522, -0.01423208), (-0.99989873, 0, -0.014232344), (-0.00015629153, -0.9998705, -0.016094694), (-0.00015629153, -0.9998705, -0.016094694), (-0.00015629153, -0.9998705, -0.016094694), (-0.00015629153, -0.9998705, -0.016094694), (0.00017672133, -0.95414555, 0.299343), (0.00017672133, -0.95414555, 0.299343), (0.00017672133, -0.95414555, 0.299343), (0.00017672133, -0.95414555, 0.299343), (-0.9999005, 0.0001146187, -0.014103628), (-0.9999023, 0.00011305168, -0.01397555), (-0.99990225, 0.0002272497, -0.013973711), (-0.99990076, 0.00022903038, -0.014086625), (-0.99989873, 0.000021421522, -0.01423208), (-0.9999005, 0.0001146187, -0.014103628), (-0.99990076, 0.00022903038, -0.014086625), (0.9999067, 0, -0.013660211), (0.9999067, 0, -0.013660211), (0.99990666, 0, -0.013660174), (0.99990666, 0, -0.013660174), (0.00016437359, -0.9998778, -0.01563306), (0.00016437359, -0.9998778, -0.01563306), (0.00016442142, -0.99987185, -0.016007062), (0.00016442152, -0.99987185, -0.016007774), (-0.0010629917, 0.99992895, 0.01187264), (-0.0011794962, 0.9999984, 0.0013782715), (-0.0017660556, 0.99999624, 0.0020801786), (-0.0016554567, 0.9999492, 0.009945422), (0.0007801146, 0.99987614, 0.015719302), (0.0009940004, 0.999876, 0.015716262), (0.001437096, 0.99987555, 0.015710225), (0.0012125369, 0.99999934, -0.000019241294), (0.0012125369, 0.99999934, -0.000019241294), (0.0012125369, 0.99999934, -0.000019241294), (0.0012125369, 0.99999934, -0.000019241294), (0.999888, -0.0010676777, -0.014929505), (0.999888, -0.0010676777, -0.014929505), (0.999888, -0.0010676777, -0.014929505), (0.999888, -0.0010676777, -0.014929505), (-0.021573832, 0.004323784, -0.9997579), (-0.021573832, 0.004323784, -0.9997579), (-0.021573832, 0.004323784, -0.9997579), (-0.021573832, 0.004323784, -0.9997579), (0.96895325, 0.0011166505, 0.24724127), (0.96895325, 0.0011166505, 0.24724127), (0.96895325, 0.0011166505, 0.24724127), (0.96895325, 0.0011166505, 0.24724127), (-0.0010629917, 0.99992895, 0.01187264), (-0.00044116323, 0.9998761, 0.015735978), (0.00012525536, 0.9998763, 0.015728299), (0.00012525622, 0.9998763, 0.015728401), (0.9999067, 0, -0.01366021), (0.9999067, 0, -0.01366021), (0.9999067, 0, -0.013660192), (0.9999067, 0, -0.013660192), (0.00016442152, -0.99987185, -0.016007774), (0.00016442142, -0.99987185, -0.016007062), (0.0001644702, -0.9998657, -0.016388455), (0.0001644702, -0.9998657, -0.016388455), (-0.00078658113, 0.023563866, -0.999722), (-0.00078658113, 0.023563866, -0.999722), (-0.00078658113, 0.023563866, -0.999722), (-0.00078658113, 0.023563866, -0.999722), (-0.9999591, 0.000026208627, -0.009041337), (-0.9999033, 0.00009288814, -0.01390996), (-0.99990314, 0.00016932926, -0.0139152445), (-0.999977, 0.0000552783, -0.0067909095), (0.9998951, 0.0022821934, -0.014303657), (0.99989897, 0.0029591909, -0.013898387), (0.99989897, 0.0029591909, -0.013898387), (0.99989516, 0.0022824693, -0.014303493), (-0.00044116323, 0.9998761, 0.015735978), (-0.0010629917, 0.99992895, 0.01187264), (-0.0016554567, 0.9999492, 0.009945422), (-0.0015736674, 0.9998747, 0.015751319), (0.99989057, 0.0016080798, -0.014707192), (0.9998951, 0.0022821934, -0.014303657), (0.99989516, 0.0022824693, -0.014303493), (0.99989057, 0.0016080798, -0.014707192), (-0.016772678, 0.009974282, -0.99980956), (-0.016772678, 0.009974282, -0.99980956), (-0.016772678, 0.009974282, -0.99980956), (-0.016772678, 0.009974282, -0.99980956), (0.9999067, 0, -0.013660187), (0.9999067, 0, -0.013660187), (0.9999067, 0, -0.013660187), (0.9999067, 0, -0.013660187), (-0.007963136, 0, -0.99996835), (-0.007963136, 0, -0.99996835), (-0.007963136, 0, -0.99996835), (-0.007963136, 0, -0.99996835), (-0.99989873, 0.00007598575, -0.014231028), (-0.99989873, -0.00007597251, -0.014231026), (-0.9998987, 0, -0.014232216), (-0.9998987, 0, -0.014232216), (-0.00044116323, 0.9998761, 0.015735978), (0.00012525449, 0.99987626, 0.015728198), (0.00012525449, 0.99987626, 0.015728198), (0.00012525536, 0.9998763, 0.015728299), (0.00012525242, 0.9998764, 0.015728151), (0.00012525242, 0.9998764, 0.015728151), (0.00012525242, 0.9998764, 0.015728151), (0.00012525242, 0.9998764, 0.015728151), (0.99990326, 0.0010947856, -0.013868853), (0.99990326, -0.0010947442, -0.013868854), (0.9999026, -0.0015121058, -0.013874311), (0.9999026, 0.0015121069, -0.013874312), (0.0001252524, 0.99987626, 0.015727999), (0.0001252524, 0.99987626, 0.015727999), (0.0001252524, 0.99987626, 0.015727999), (0.0001252524, 0.99987626, 0.015727999), (0.00012524822, 0.9998763, 0.01572798), (0.00012524822, 0.9998763, 0.01572798), (0.00012524822, 0.9998763, 0.01572798), (0.00012524822, 0.9998763, 0.01572798), (0.9998967, 0.0036964116, -0.013886583), (0.9998978, 0.003381173, -0.013891559), (0.999902, 0.0022586067, -0.013815004), (0.9998967, 0.0036964116, -0.013886583), (0.9998978, 0.003381173, -0.013891559), (0.9998998, 0.0026404685, -0.013903439), (0.99990296, 0.0017497602, -0.013821889), (0.999902, 0.0022586067, -0.013815004), (0.9998998, 0.0026404685, -0.013903439), (0.9999016, 0.0017923622, -0.013917072), (0.9999037, 0.0011921863, -0.013832127), (0.99990296, 0.0017497602, -0.013821889), (0.9999016, 0.0017923622, -0.013917072), (0.99990255, 0.0009417107, -0.013930755), (0.9999041, 0.0006183773, -0.013840085), (0.9999037, 0.0011921863, -0.013832127), (0.99990255, 0.0009417107, -0.013930755), (0.9999028, 0.00009017514, -0.01394443), (0.99990404, 0.000050914663, -0.013850468), (0.9999041, 0.0006183773, -0.013840085), (0.9999028, 0.00009017514, -0.01394443), (0.9999023, -0.0007639669, -0.013958138), (0.9999039, -0.00051763136, -0.013858326), (0.99990404, 0.000050914663, -0.013850468), (0.9999023, -0.0007639669, -0.013958138), (0.9999011, -0.0016185398, -0.013971852), (0.99990326, -0.0010947442, -0.013868854), (0.9999039, -0.00051763136, -0.013858326), (-0.9998987, 0, -0.014232216), (-0.99989873, 0, -0.014232258), (-0.99989873, 0, -0.014232258), (-0.9998987, 0, -0.014232216), (0.9999011, -0.0016185398, -0.013971852), (0.9998997, -0.0022661458, -0.013982273), (0.9999026, -0.0015121058, -0.013874311), (0.99990326, -0.0010947442, -0.013868854), (-0.99989873, 0, -0.014232258), (-0.99989873, 0, -0.014232258), (-0.99989873, 0, -0.014232265), (-0.99989873, 0, -0.014232265), (-0.99989873, 0, -0.014232265), (-0.99989873, 0, -0.014232256), (-0.99989873, 0, -0.014232256), (-0.99989873, 0, -0.014232265), (-0.99989873, 0, -0.014232256), (-0.99989873, 0, -0.014232256), (-0.99989873, 0, -0.014232264), (-0.99989873, 0, -0.014232264), (-0.99989873, 0, -0.014232264), (-0.9998987, 0, -0.014232261), (-0.9998987, 0, -0.014232261), (-0.99989873, 0, -0.014232264), (-0.9998987, 0, -0.014232261), (-0.9998987, 0, -0.014232261), (-0.99989873, 0, -0.014232263), (-0.99989873, 0, -0.014232263), (-0.99989873, 0, -0.014232263), (-0.99989873, 0, -0.014232344), (-0.99989873, 0, -0.014232344), (-0.99989873, 0, -0.014232263), (3.5409993e-8, -0.9998657, -0.016388537), (5.461325e-8, -0.99986565, -0.016388997), (5.461325e-8, -0.99986565, -0.016388997), (3.5409993e-8, -0.9998657, -0.016388537), (0.999902, -0.0022585806, -0.0138150025), (0.999902, 0.0022586067, -0.013815004), (0.99990296, 0.0017497602, -0.013821889), (0.99990296, -0.0017497392, -0.013821886), (5.461325e-8, -0.99986565, -0.016388997), (5.461325e-8, -0.99986565, -0.016388997), (9.3739416e-8, -0.99986565, -0.016388813), (9.3739416e-8, -0.99986565, -0.016388813), (1.5323802e-7, -0.99986565, -0.016388586), (1.5323802e-7, -0.99986565, -0.016388586), (9.3739416e-8, -0.99986565, -0.016388813), (9.3739416e-8, -0.99986565, -0.016388813), (1.5323802e-7, -0.99986565, -0.016388586), (1.5323802e-7, -0.99986565, -0.016388586), (1.951914e-7, -0.99986565, -0.016388807), (1.9519139e-7, -0.99986565, -0.016388807), (1.9733146e-7, -0.99986565, -0.01638892), (1.9733146e-7, -0.99986565, -0.01638892), (1.9519139e-7, -0.99986565, -0.016388807), (1.951914e-7, -0.99986565, -0.016388807), (1.9733146e-7, -0.99986565, -0.01638892), (1.9733146e-7, -0.99986565, -0.01638892), (1.7783553e-7, -0.99986565, -0.01638887), (1.7783553e-7, -0.99986565, -0.01638887), (1.00053114e-7, -0.99986565, -0.016388811), (1.0005313e-7, -0.99986565, -0.016388813), (1.7783553e-7, -0.99986565, -0.01638887), (1.7783553e-7, -0.99986565, -0.01638887), (1.0005313e-7, -0.99986565, -0.016388813), (1.00053114e-7, -0.99986565, -0.016388811), (2.0956735e-8, -0.99986565, -0.016388759), (2.0956739e-8, -0.99986565, -0.016388759), (-0.007962994, 0, -0.99996823), (-0.007962994, 0, -0.99996823), (-0.007962994, 0, -0.99996823), (-0.007962994, 0, -0.99996823), (0.007963084, 0, 0.99996823), (0.007963084, 0, 0.99996823), (0.007963084, 0, 0.99996823), (0.007963084, 0, 0.99996823), (0.99990404, -0.000050910538, -0.0138504645), (0.99990404, 0.000050914663, -0.013850468), (0.9999039, -0.00051763136, -0.013858326), (0.9999039, 0.0005176464, -0.013858325), (0.007963037, 0, 0.9999683), (0.007963037, 0, 0.9999683), (0.007963037, 0, 0.9999683), (0.007963037, 0, 0.9999683), (0.9999037, -0.0011921682, -0.013832126), (0.9999037, 0.0011921863, -0.013832127), (0.9999041, 0.0006183773, -0.013840085), (0.999904, -0.0006183564, -0.013840083), (0.99990666, 0, -0.0136601925), (0.99990666, 0, -0.0136601925), (0.99990666, 0, -0.0136601925), (0.99990666, 0, -0.0136601925), (0.007963247, 0, 0.9999683), (0.007963247, 0, 0.9999683), (0.007963247, 0, 0.9999683), (0.007963247, 0, 0.9999683), (-0.007963348, 0, -0.99996835), (-0.007963348, 0, -0.99996835), (-0.007963348, 0, -0.99996835), (-0.007963348, 0, -0.99996835), (0.007963299, 0, 0.99996823), (0.007963299, 0, 0.99996823), (0.007963299, 0, 0.99996823), (0.007963299, 0, 0.99996823), (-0.007963306, 0, -0.99996835), (-0.007963306, 0, -0.99996835), (-0.007963306, 0, -0.99996835), (-0.007963306, 0, -0.99996835), (0.99990666, 0, -0.013660198), (0.99990666, 0, -0.013660198), (0.99990666, 0, -0.013660198), (0.99990666, 0, -0.013660198), (1, -8.085491e-8, 0), (1, -8.085491e-8, 0), (1, -8.085491e-8, 0), (1, -8.085491e-8, 0), (-0.0011794962, 0.9999984, 0.0013782715), (0, 1, 0), (0, 1, 0), (-0.00089356594, 0.99999964, 0), (0.001464535, -0.009199579, 0.99995655), (0.0014643137, -0.005460988, 0.9999841), (0.0014654672, -0.0065996125, 0.9999772), (0.0014656823, -0.010343342, 0.9999454), (0.001464535, -0.009199579, 0.99995655), (0.0014654672, -0.0065996125, 0.9999772), (0.0014656823, -0.010343342, 0.9999454), (-0.0017660556, 0.99999624, 0.0020801786), (-0.0011794962, 0.9999984, 0.0013782715), (-0.00089356594, 0.99999964, 0), (-0.0017952106, 0.99999845, 0), (0.00018648329, -1, 0), (0.00018648329, -1, 0), (0.00018648329, -1, 0), (0.00018648329, -1, 0), (-0.9999591, 0.000026208627, -0.009041337), (-0.999977, 0.0000552783, -0.0067909095), (-0.99999994, 5.597683e-8, 0), (-0.99999994, 5.597683e-8, 0), (-0.0008219045, -0.021725304, -0.9997636), (-0.0008219045, -0.021725304, -0.9997636), (-0.0008219045, -0.021725304, -0.9997636), (-0.0008219045, -0.021725304, -0.9997636), (0.0009940008, -0.999876, 0.015716325), (0.00012525001, -0.9998763, 0.015728226), (0.00012525171, -0.99987626, 0.015728327), (0.0007801146, -0.99987614, 0.015719295), (-0.9999033, -0.0000928439, -0.013909961), (-0.99990314, -0.00016925648, -0.013915244), (-0.9998987, -0.00022795418, -0.014228488), (-0.99989873, -0.00007597251, -0.014231026), (2.0956739e-8, 0.99986565, -0.016388712), (0, 0.9998657, -0.01638832), (0, 0.9998657, -0.01638832), (2.0956735e-8, 0.99986565, -0.016388714), (0.9998997, 0.00226615, -0.013982272), (0.9999026, 0.0015121069, -0.013874312), (0.999899, 0.0024856941, -0.013985921), (0.999899, 0.0024856941, -0.013985921), (0.00012524828, -0.99987626, 0.015728122), (0.00012524828, -0.99987626, 0.015728122), (0.00012525001, -0.9998763, 0.015728226), (0.0009940008, -0.999876, 0.015716325), (-0.00015629143, 0.9998705, -0.016094772), (-0.00015629143, 0.9998705, -0.016094772), (-0.00015629143, 0.9998705, -0.016094772), (-0.00015629143, 0.9998705, -0.016094772), (0.00017672073, 0.95414555, 0.29934293), (0.00017672073, 0.95414555, 0.29934293), (0.00017672073, 0.95414555, 0.29934293), (0.00017672073, 0.95414555, 0.29934293), (-0.9999005, -0.00011461374, -0.014103628), (-0.99990076, -0.00022901931, -0.014086625), (-0.99990225, -0.00022722983, -0.013973711), (-0.9999023, -0.0001130418, -0.01397555), (-0.99989873, -0.000021421522, -0.01423208), (-0.99990076, -0.00022901931, -0.014086625), (-0.9999005, -0.00011461374, -0.014103628), (0.00016437459, 0.9998778, -0.015633037), (0.000164422, 0.99987185, -0.016007734), (0.00016442194, 0.99987185, -0.016007023), (0.00016437459, 0.9998778, -0.015633037), (-0.0010629877, -0.99992895, 0.011872647), (-0.0016554509, -0.9999492, 0.009945404), (-0.0017660551, -0.99999624, 0.0020802103), (-0.0011794957, -0.9999984, 0.0013782923), (0.0007801146, -0.99987614, 0.015719295), (0.001437096, -0.99987555, 0.015710225), (0.0009940008, -0.999876, 0.015716325), (0.0012125369, -0.99999934, -0.000019306963), (0.0012125369, -0.99999934, -0.000019306963), (0.0012125369, -0.99999934, -0.000019306963), (0.0012125369, -0.99999934, -0.000019306963), (0.999888, 0.0010677207, -0.014929505), (0.999888, 0.0010677207, -0.014929505), (0.999888, 0.0010677207, -0.014929505), (0.999888, 0.0010677207, -0.014929505), (-0.021573832, -0.004323784, -0.9997579), (-0.021573832, -0.004323784, -0.9997579), (-0.021573832, -0.004323784, -0.9997579), (-0.021573832, -0.004323784, -0.9997579), (0.96895325, -0.0011166717, 0.24724127), (0.96895325, -0.0011166717, 0.24724127), (0.96895325, -0.0011166717, 0.24724127), (0.96895325, -0.0011166717, 0.24724127), (-0.0010629877, -0.99992895, 0.011872647), (0.00012525622, -0.9998763, 0.015728464), (0.00012525536, -0.9998763, 0.015728291), (-0.00044116, -0.9998761, 0.015735941), (0.000164422, 0.99987185, -0.016007734), (0.0001644702, 0.9998657, -0.016388398), (0.0001644702, 0.9998657, -0.016388398), (0.00016442194, 0.99987185, -0.016007023), (-0.0007866809, -0.023563858, -0.999722), (-0.0007866809, -0.023563858, -0.999722), (-0.0007866809, -0.023563858, -0.999722), (-0.0007866809, -0.023563858, -0.999722), (-0.9999591, -0.000026198151, -0.009041339), (-0.999977, -0.00005524728, -0.006790911), (-0.99990314, -0.00016925648, -0.013915244), (-0.9999033, -0.0000928439, -0.013909961), (0.9998951, -0.0022822546, -0.014303659), (0.99989516, -0.0022825303, -0.014303494), (0.9998989, -0.0029592584, -0.013898387), (0.9998989, -0.0029592584, -0.013898387), (-0.00044116, -0.9998761, 0.015735941), (-0.0015736577, -0.9998747, 0.015751218), (-0.0016554509, -0.9999492, 0.009945404), (-0.0010629877, -0.99992895, 0.011872647), (0.99989057, -0.0016081341, -0.014707193), (0.99989057, -0.0016081341, -0.014707193), (0.99989516, -0.0022825303, -0.014303494), (0.9998951, -0.0022822546, -0.014303659), (-0.01677382, -0.00997428, -0.99980956), (-0.01677382, -0.00997428, -0.99980956), (-0.01677382, -0.00997428, -0.99980956), (-0.01677382, -0.00997428, -0.99980956), (-0.00044116, -0.9998761, 0.015735941), (0.00012525536, -0.9998763, 0.015728291), (0.00012525449, -0.99987626, 0.015728118), (0.00012525449, -0.99987626, 0.015728118), (0.00012525241, -0.9998763, 0.01572812), (0.00012525241, -0.9998763, 0.01572812), (0.00012525241, -0.9998763, 0.01572812), (0.00012525241, -0.9998763, 0.01572812), (0.0001252524, -0.99987626, 0.015727984), (0.0001252524, -0.99987626, 0.015727984), (0.0001252524, -0.99987626, 0.015727984), (0.0001252524, -0.99987626, 0.015727984), (0.00012524822, -0.9998763, 0.015727982), (0.00012524822, -0.9998763, 0.015727982), (0.00012524822, -0.9998763, 0.015727982), (0.00012524822, -0.9998763, 0.015727982), (0.9998967, -0.0036963844, -0.013886582), (0.9998967, -0.0036963844, -0.013886582), (0.999902, -0.0022585806, -0.0138150025), (0.9998978, -0.003381134, -0.013891556), (0.9998978, -0.003381134, -0.013891556), (0.999902, -0.0022585806, -0.0138150025), (0.99990296, -0.0017497392, -0.013821886), (0.9998998, -0.0026404364, -0.013903434), (0.9998998, -0.0026404364, -0.013903434), (0.99990296, -0.0017497392, -0.013821886), (0.9999037, -0.0011921682, -0.013832126), (0.9999016, -0.0017923355, -0.013917069), (0.9999016, -0.0017923355, -0.013917069), (0.9999037, -0.0011921682, -0.013832126), (0.999904, -0.0006183564, -0.013840083), (0.99990255, -0.0009416791, -0.013930751), (0.99990255, -0.0009416791, -0.013930751), (0.999904, -0.0006183564, -0.013840083), (0.99990404, -0.000050910538, -0.0138504645), (0.9999028, -0.00009016843, -0.0139444275), (0.9999028, -0.00009016843, -0.0139444275), (0.99990404, -0.000050910538, -0.0138504645), (0.9999039, 0.0005176464, -0.013858325), (0.9999023, 0.0007639882, -0.013958137), (0.9999023, 0.0007639882, -0.013958137), (0.9999039, 0.0005176464, -0.013858325), (0.99990326, 0.0010947856, -0.013868853), (0.9999011, 0.0016186015, -0.013971848), (0.9999011, 0.0016186015, -0.013971848), (0.99990326, 0.0010947856, -0.013868853), (0.9999026, 0.0015121069, -0.013874312), (0.9998997, 0.00226615, -0.013982272), (3.7237488e-8, 0.9998657, -0.016388474), (3.7237488e-8, 0.9998657, -0.016388474), (5.6619385e-8, 0.99986565, -0.016388942), (5.6619385e-8, 0.99986565, -0.016388942), (5.6619385e-8, 0.99986565, -0.016388942), (9.4478914e-8, 0.99986565, -0.016388845), (9.4478914e-8, 0.99986565, -0.016388845), (5.6619385e-8, 0.99986565, -0.016388942), (1.531694e-7, 0.99986565, -0.016388506), (9.4478914e-8, 0.99986565, -0.016388845), (9.4478914e-8, 0.99986565, -0.016388845), (1.531694e-7, 0.99986565, -0.016388506), (1.531694e-7, 0.99986565, -0.016388506), (1.9626007e-7, 0.99986565, -0.016388725), (1.9626007e-7, 0.99986565, -0.016388725), (1.531694e-7, 0.99986565, -0.016388506), (1.9796596e-7, 0.99986565, -0.016388891), (1.9626007e-7, 0.99986565, -0.016388725), (1.9626007e-7, 0.99986565, -0.016388725), (1.9796596e-7, 0.99986565, -0.016388891), (1.9796596e-7, 0.99986565, -0.016388891), (1.7774002e-7, 0.99986565, -0.016388783), (1.7774002e-7, 0.99986565, -0.016388783), (1.9796596e-7, 0.99986565, -0.016388891), (1.00101076e-7, 0.99986565, -0.016388781), (1.7774002e-7, 0.99986565, -0.016388783), (1.7774002e-7, 0.99986565, -0.016388783), (1.001011e-7, 0.99986565, -0.016388781), (1.001011e-7, 0.99986565, -0.016388781), (2.0956739e-8, 0.99986565, -0.016388712), (2.0956735e-8, 0.99986565, -0.016388714), (1.00101076e-7, 0.99986565, -0.016388781), (1, 0, 0), (1, 0, 0), (1, 0, 0), (1, 0, 0), (-0.0011794957, -0.9999984, 0.0013782923), (-0.00089356606, -0.99999964, 0), (0, -1, 0), (0, -1, 0), (0.0014653757, 0.009199579, 0.99995655), (0.0014646243, 0.0065996125, 0.9999772), (0.0014643137, 0.005460988, 0.9999841), (0.0014656823, 0.010343342, 0.9999454), (0.0014656823, 0.010343342, 0.9999454), (0.0014646243, 0.0065996125, 0.9999772), (0.0014653757, 0.009199579, 0.99995655), (-0.0017660551, -0.99999624, 0.0020802103), (-0.0017952109, -0.9999984, 0), (-0.00089356606, -0.99999964, 0), (-0.0011794957, -0.9999984, 0.0013782923), (0.00018648329, 1, 0), (0.00018648329, 1, 0), (0.00018648329, 1, 0), (0.00018648329, 1, 0), (-0.9999591, -0.000026198151, -0.009041339), (-0.99999994, -9.951437e-8, 0), (-0.99999994, -9.951437e-8, 0), (-0.999977, -0.00005524728, -0.006790911), (0, 0, 1), (0, 0, 1), (0, 0, 1), (0, 0, 1)] (
                interpolation = "faceVarying"
            )
            point3f[] points = [(-0.18139744, -0.31309164, 0.00047153197), (-0.20250873, -0.2573083, 1.4939572), (0.18139744, -0.31309164, 0.00047153197), (0.19997294, -0.2566509, 1.3342552), (0.18393323, -0.23818044, 0.16017355), (-0.120259926, -0.2566509, 1.3368053), (-0.13629964, -0.23818044, 0.1627237), (0.18139744, -0.23818044, 0.00047153197), (0.20250873, -0.2573083, 1.4939572), (-0.20032878, -0.33489192, 1.3333994), (-0.18365812, -0.3156949, 0.16219467), (0.18617412, -0.24076095, 0.32420352), (-0.13405874, -0.24076095, 0.32675368), (-0.18598716, -0.31837693, 0.32582268), (0.18598716, -0.31837693, 0.3258227), (0.22804907, -0.37011105, 0.16067743), (0.22578838, -0.36750782, -0.0010457025), (-0.18139744, -0.36745402, -0.00041153337), (-0.18365812, -0.37005726, 0.1613116), (0.19888282, -0.25539556, 1.25446), (-0.19919579, -0.33358723, 1.2537998), (0.22832417, -0.23823428, 0.15953937), (0.22578838, -0.23823428, -0.00016263714), (-0.12135005, -0.25539556, 1.2570102), (0.19919579, -0.33358723, 1.2537998), (-0.20032878, -0.3763414, 1.3327358), (-0.20250873, -0.37885168, 1.4932936), (0.2494396, -0.3787674, 1.492632), (0.24725966, -0.37625712, 1.3320743), (-0.19919579, -0.37503672, 1.2531362), (0.24612665, -0.37495244, 1.2524745), (0.2494396, -0.25722405, 1.4932957), (0.2469038, -0.2565666, 1.3335937), (0.24581368, -0.25531128, 1.2537985), (0.1972942, -0.25356624, 1.138178), (0.19649991, -0.25265154, 1.0800369), (0.19411704, -0.24990755, 0.9056138), (0.19332275, -0.24899289, 0.8474727), (0.19093987, -0.24624892, 0.6730497), (0.19014558, -0.24533424, 0.6149087), (0.18776271, -0.24259028, 0.44048554), (0.18696842, -0.2416756, 0.3823445), (-0.12293863, -0.25356624, 1.1407281), (-0.123732924, -0.25265154, 1.082587), (-0.1261158, -0.24990755, 0.90816396), (-0.12691009, -0.24899289, 0.850023), (-0.12929296, -0.24624892, 0.6755998), (-0.13008727, -0.24533424, 0.61745876), (-0.13247015, -0.24259028, 0.44303572), (-0.13326445, -0.2416756, 0.3848947), (0.19754471, -0.33168593, 1.1378026), (0.19671918, -0.33073527, 1.0798041), (0.19424255, -0.32788333, 0.9058084), (0.19341703, -0.32693267, 0.84780985), (0.1909404, -0.32408077, 0.6738141), (0.19011487, -0.3231301, 0.6158155), (0.18763824, -0.3202782, 0.44181985), (0.18681271, -0.31932756, 0.38382128), (-0.18681271, -0.31932756, 0.38382125), (-0.18763824, -0.32027823, 0.44181982), (-0.19011487, -0.3231302, 0.6158155), (-0.1909404, -0.32408082, 0.67381406), (-0.19341703, -0.32693276, 0.8478098), (-0.19424255, -0.3278834, 0.9058084), (-0.19671918, -0.3307353, 1.0798041), (-0.19754471, -0.33168596, 1.1378026), (0.20250873, -0.2573083, 1.5324566), (0.2494396, -0.25722405, 1.5317953), (0.2494396, -0.3787674, 1.5311315), (-0.20250873, -0.37885168, 1.5317929), (-0.20250873, -0.2573083, 1.5324566), (-0.18139744, 0.31309164, 0.00047153197), (-0.20250873, 0.2573083, 1.4939572), (0.18139744, 0.31309164, 0.00047153197), (0.19997294, 0.2566509, 1.3342552), (0.18393323, 0.23818044, 0.16017355), (-0.120259926, 0.2566509, 1.3368053), (-0.13629964, 0.23818044, 0.1627237), (0.18139744, 0.23818044, 0.00047153197), (0.20250873, 0.2573083, 1.4939572), (-0.20032878, 0.33489192, 1.3333994), (-0.18365812, 0.3156949, 0.16219467), (0.18617412, 0.24076095, 0.32420352), (-0.13405874, 0.24076095, 0.32675368), (-0.18598716, 0.31837693, 0.32582268), (0.18598716, 0.31837693, 0.3258227), (0.22804907, 0.37011105, 0.16067743), (0.22578838, 0.36750782, -0.0010457025), (-0.18139744, 0.36745402, -0.00041153337), (-0.18365812, 0.37005726, 0.1613116), (0.19888282, 0.25539556, 1.25446), (-0.19919579, 0.33358723, 1.2537998), (0.22832417, 0.23823428, 0.15953937), (0.22578838, 0.23823428, -0.00016263714), (-0.12135005, 0.25539556, 1.2570102), (0.19919579, 0.33358723, 1.2537998), (-0.20032878, 0.3763414, 1.3327358), (-0.20250873, 0.37885168, 1.4932936), (0.2494396, 0.3787674, 1.492632), (0.24725966, 0.37625712, 1.3320743), (-0.19919579, 0.37503672, 1.2531362), (0.24612665, 0.37495244, 1.2524745), (0.2494396, 0.25722405, 1.4932957), (0.2469038, 0.2565666, 1.3335937), (0.24581368, 0.25531128, 1.2537985), (0.1972942, 0.25356624, 1.138178), (0.19649991, 0.25265154, 1.0800369), (0.19411704, 0.24990755, 0.9056138), (0.19332275, 0.24899289, 0.8474727), (0.19093987, 0.24624892, 0.6730497), (0.19014558, 0.24533424, 0.6149087), (0.18776271, 0.24259028, 0.44048554), (0.18696842, 0.2416756, 0.3823445), (-0.12293863, 0.25356624, 1.1407281), (-0.123732924, 0.25265154, 1.082587), (-0.1261158, 0.24990755, 0.90816396), (-0.12691009, 0.24899289, 0.850023), (-0.12929296, 0.24624892, 0.6755998), (-0.13008727, 0.24533424, 0.61745876), (-0.13247015, 0.24259028, 0.44303572), (-0.13326445, 0.2416756, 0.3848947), (0.19754471, 0.33168593, 1.1378026), (0.19671918, 0.33073527, 1.0798041), (0.19424255, 0.32788333, 0.9058084), (0.19341703, 0.32693267, 0.84780985), (0.1909404, 0.32408077, 0.6738141), (0.19011487, 0.3231301, 0.6158155), (0.18763824, 0.3202782, 0.44181985), (0.18681271, 0.31932756, 0.38382128), (-0.18681271, 0.31932756, 0.38382125), (-0.18763824, 0.32027823, 0.44181982), (-0.19011487, 0.3231302, 0.6158155), (-0.1909404, 0.32408082, 0.67381406), (-0.19341703, 0.32693276, 0.8478098), (-0.19424255, 0.3278834, 0.9058084), (-0.19671918, 0.3307353, 1.0798041), (-0.19754471, 0.33168596, 1.1378026), (0.20250873, 0.2573083, 1.5324566), (0.2494396, 0.25722405, 1.5317953), (0.2494396, 0.3787674, 1.5311315), (-0.20250873, 0.37885168, 1.5317929), (-0.20250873, 0.2573083, 1.5324566)]
            uniform token subdivisionScheme = "none"
            uniform token subsetFamily:materialBind:familyType = "nonOverlapping"
            custom string userProperties:blender:data_name = "Cube.004"

            def GeomSubset "Wood_004" (
                prepend apiSchemas = ["MaterialBindingAPI"]
            )
            {
                uniform token elementType = "face"
                uniform token familyName = "materialBind"
                int[] indices = [2, 3, 4, 6, 9, 10, 14, 23, 24, 32, 33, 34, 35, 36, 37, 38, 40, 44, 63, 71, 72, 73, 74, 75, 77, 78, 79, 80, 82, 83, 84, 85, 86, 87, 88, 91, 99, 100, 107, 108, 109, 110, 111, 112, 113, 134, 135, 136, 137, 138, 139, 140, 141]
                rel material:binding = </root/_materials/Wood_004>
            }

            def GeomSubset "DarkWood_002" (
                prepend apiSchemas = ["MaterialBindingAPI"]
            )
            {
                uniform token elementType = "face"
                uniform token familyName = "materialBind"
                int[] indices = [0, 1, 5, 7, 8, 11, 12, 13, 15, 16, 17, 18, 19, 20, 21, 22, 25, 26, 27, 28, 29, 30, 31, 39, 41, 42, 43, 45, 46, 47, 48, 49, 50, 51, 52, 53, 54, 55, 56, 57, 58, 59, 60, 61, 62, 64, 65, 66, 67, 68, 69, 70, 76, 81, 89, 90, 92, 93, 94, 95, 96, 97, 98, 101, 102, 103, 104, 105, 106, 114, 115, 116, 117, 118, 119, 120, 121, 122, 123, 124, 125, 126, 127, 128, 129, 130, 131, 132, 133]
                rel material:binding = </root/_materials/DarkWood_002>
            }
        }
    }

    def Scope "_materials"
    {
        def Material "Wood_004"
        {
            token outputs:surface.connect = </root/_materials/Wood_004/Principled_BSDF.outputs:surface>
            custom string userProperties:blender:data_name = "Wood.004"

            def Shader "Principled_BSDF"
            {
                uniform token info:id = "UsdPreviewSurface"
                float inputs:clearcoat = 0
                float inputs:clearcoatRoughness = 0.03
                color3f inputs:diffuseColor = (0.8, 0.8, 0.8)
                color3f inputs:emissiveColor = (0, 0, 0)
                float inputs:ior = 1.5
                float inputs:metallic = 0
                float inputs:opacity = 1
                float inputs:roughness = 0.5527864
                float inputs:specular = 1
                token outputs:surface
            }
        }

        def Material "DarkWood_002"
        {
            token outputs:surface.connect = </root/_materials/DarkWood_002/Principled_BSDF.outputs:surface>
            custom string userProperties:blender:data_name = "DarkWood.002"

            def Shader "Principled_BSDF"
            {
                uniform token info:id = "UsdPreviewSurface"
                float inputs:clearcoat = 0
                float inputs:clearcoatRoughness = 0.03
                color3f inputs:diffuseColor = (0.8, 0.8, 0.8)
                color3f inputs:emissiveColor = (0, 0, 0)
                float inputs:ior = 1.5
                float inputs:metallic = 0
                float inputs:opacity = 1
                float inputs:roughness = 0.5527864
                float inputs:specular = 1
                token outputs:surface
            }
        }
    }
}

