#usda 1.0
(
    defaultPrim = "root"
    doc = "Blender v5.1.2"
    metersPerUnit = 1
    upAxis = "Y"
)

def Xform "root" (
    customData = {
        dictionary Blender = {
            bool generated = 1
        }
    }
)
{
    float3 xformOp:rotateXYZ = (-90, -0, 0)
    uniform token[] xformOpOrder = ["xformOp:rotateXYZ"]

    def Xform "SofaLong"
    {
        custom string userProperties:blender:object_name = "SofaLong"

        def Mesh "Cube_007" (
            active = true
            prepend apiSchemas = ["MaterialBindingAPI"]
        )
        {
            uniform bool doubleSided = 1
            float3[] extent = [(-0.47094983, -0.6650844, -0.010585934), (0.89416885, 0.6987597, 0.6169989)]
            int[] faceVertexCounts = [4, 4, 4, 4, 4, 4, 3, 3, 3, 3, 4, 4, 4, 4, 4, 4, 4, 4, 4, 4, 4, 4, 4, 4, 4, 4, 4, 4, 3, 3, 3, 4, 4, 4, 4, 4, 4, 4, 4, 4, 4, 4, 4, 4, 4, 3, 3, 3, 3, 3, 3, 3, 3, 4, 4, 4, 4, 4, 4, 4, 4, 4, 4, 4, 4, 4, 4, 4, 4, 4, 4, 5, 4, 4, 4, 4, 4, 4, 5, 4, 5, 4, 4, 5, 4, 4, 5, 4, 4, 4, 4, 4, 4, 4, 4, 4, 4, 5, 4, 4, 4, 5, 4, 4, 4, 4, 4, 4, 4, 4, 5, 4, 4, 4, 3, 4, 4, 4, 4, 4, 4, 3, 3, 3, 3, 4, 4, 4, 4, 4, 4, 4, 4, 4, 4, 4, 4, 4, 4, 4, 4, 4, 4, 3, 3, 3, 4, 4, 4, 4, 4, 4, 4, 4, 4, 4, 4, 4, 4, 4, 3, 3, 3, 3, 3, 4, 3, 4, 4, 4, 4, 4, 4, 4, 4, 4, 4, 4, 4, 4, 4, 4, 3, 4, 4, 4, 4, 4, 4, 4, 4, 4, 4, 4, 4, 5, 4, 4, 4, 4, 4, 3, 4, 4, 4, 4, 4, 4, 4, 3, 4, 4, 4, 4, 5]
            int[] faceVertexIndices = [26, 22, 15, 9, 18, 13, 10, 14, 24, 20, 6, 2, 0, 1, 28, 30, 21, 19, 16, 23, 27, 25, 38, 37, 8, 9, 10, 11, 12, 13, 14, 15, 16, 17, 18, 19, 2, 6, 7, 3, 24, 2, 33, 36, 4, 1, 0, 5, 20, 17, 19, 21, 18, 14, 16, 19, 17, 11, 13, 18, 12, 8, 10, 13, 9, 15, 14, 10, 26, 9, 8, 27, 3, 7, 5, 0, 11, 24, 25, 12, 15, 22, 23, 16, 25, 24, 36, 38, 2, 3, 31, 33, 12, 25, 27, 8, 11, 17, 20, 24, 1, 4, 22, 26, 38, 32, 29, 37, 29, 30, 28, 32, 33, 31, 6, 35, 7, 29, 32, 31, 30, 35, 34, 5, 7, 36, 33, 32, 38, 28, 39, 37, 29, 35, 21, 23, 34, 1, 26, 39, 28, 3, 0, 30, 31, 22, 4, 34, 23, 26, 27, 37, 39, 42, 47, 59, 53, 62, 57, 54, 58, 55, 61, 49, 44, 56, 43, 40, 52, 50, 63, 60, 46, 40, 41, 42, 43, 44, 45, 46, 47, 48, 49, 50, 51, 52, 53, 54, 55, 56, 57, 58, 59, 60, 61, 62, 63, 40, 43, 45, 41, 44, 49, 51, 45, 50, 46, 48, 51, 47, 42, 41, 48, 49, 61, 63, 50, 62, 58, 60, 63, 59, 47, 46, 60, 61, 55, 57, 62, 56, 52, 54, 57, 53, 59, 58, 54, 55, 44, 43, 56, 42, 53, 52, 40, 45, 51, 48, 41, 76, 71, 70, 77, 78, 65, 64, 79, 194, 77, 70, 193, 76, 67, 88, 82, 69, 75, 95, 96, 193, 182, 75, 69, 68, 83, 97, 94, 86, 192, 66, 77, 194, 69, 78, 79, 68, 67, 76, 77, 66, 82, 88, 89, 85, 74, 71, 91, 92, 78, 69, 96, 97, 83, 84, 83, 86, 87, 80, 74, 92, 93, 85, 72, 65, 84, 87, 67, 73, 89, 88, 75, 81, 86, 94, 95, 183, 80, 85, 191, 65, 78, 83, 84, 71, 76, 82, 90, 91, 92, 91, 90, 93, 94, 97, 96, 95, 90, 82, 85, 93, 101, 111, 114, 104, 87, 86, 101, 98, 85, 89, 99, 100, 185, 100, 112, 188, 112, 100, 106, 117, 184, 98, 102, 186, 102, 98, 105, 108, 106, 107, 109, 116, 117, 100, 99, 107, 106, 99, 103, 109, 107, 103, 113, 116, 109, 105, 104, 114, 115, 108, 98, 101, 104, 105, 187, 113, 103, 186, 187, 110, 111, 188, 110, 115, 114, 111, 116, 113, 112, 117, 110, 102, 108, 115, 191, 85, 100, 185, 182, 74, 80, 183, 192, 189, 73, 67, 66, 190, 87, 98, 184, 189, 72, 87, 190, 6, 20, 21, 35, 4, 5, 34, 144, 127, 133, 140, 136, 132, 128, 131, 142, 120, 124, 138, 118, 148, 146, 119, 139, 141, 134, 137, 145, 155, 156, 143, 126, 128, 127, 129, 131, 130, 132, 134, 133, 135, 137, 136, 120, 121, 125, 124, 142, 154, 151, 120, 122, 123, 118, 119, 138, 139, 137, 135, 136, 137, 134, 132, 135, 136, 131, 129, 130, 131, 128, 126, 127, 128, 132, 133, 144, 145, 126, 127, 121, 118, 123, 125, 129, 130, 143, 142, 133, 134, 141, 140, 143, 156, 154, 142, 120, 151, 149, 121, 130, 126, 145, 143, 129, 142, 138, 135, 119, 144, 140, 122, 156, 155, 147, 150, 147, 146, 148, 150, 149, 151, 124, 125, 153, 147, 148, 149, 150, 153, 125, 123, 152, 154, 156, 150, 151, 146, 147, 155, 157, 153, 152, 141, 139, 119, 146, 157, 144, 121, 149, 148, 118, 140, 141, 152, 122, 144, 157, 155, 145, 160, 171, 177, 165, 176, 172, 199, 204, 173, 162, 167, 179, 174, 170, 158, 161, 168, 164, 178, 181, 158, 160, 159, 161, 163, 162, 164, 166, 165, 167, 169, 168, 170, 172, 171, 172, 170, 200, 199, 176, 178, 177, 201, 199, 212, 213, 158, 159, 163, 161, 162, 163, 169, 167, 168, 169, 166, 164, 165, 166, 159, 160, 167, 168, 181, 179, 173, 179, 206, 202, 177, 178, 164, 165, 178, 176, 204, 203, 174, 173, 180, 175, 171, 172, 176, 177, 173, 174, 161, 162, 160, 158, 170, 171, 163, 159, 166, 169, 124, 153, 139, 138, 122, 152, 123, 73, 189, 190, 89, 89, 190, 184, 99, 75, 182, 183, 81, 86, 191, 185, 101, 113, 187, 188, 112, 110, 187, 186, 102, 99, 184, 186, 103, 101, 185, 188, 111, 81, 183, 191, 86, 64, 192, 194, 79, 79, 194, 193, 68, 182, 193, 197, 198, 65, 72, 189, 192, 64, 195, 198, 197, 196, 70, 71, 195, 196, 193, 70, 196, 197, 207, 204, 199, 201, 170, 174, 175, 210, 206, 205, 207, 207, 205, 203, 204, 206, 207, 201, 202, 202, 201, 213, 208, 179, 181, 205, 206, 181, 178, 203, 205, 175, 180, 208, 211, 210, 175, 211, 209, 208, 213, 211, 211, 213, 212, 209, 199, 200, 209, 212, 173, 202, 208, 180, 200, 170, 210, 209, 71, 74, 182, 198, 195]
            rel material:binding = </root/_materials/Sofa_004>
            normal3f[] normals = [(-0.9834358, -4.7887454e-8, -0.18125665), (-0.98343587, -7.183118e-8, -0.18125655), (-0.9834359, -5.1478874e-8, -0.18125622), (-0.9834359, -5.1478874e-8, -0.18125622), (0.18125689, 1.567424e-7, -0.98343575), (0.18125689, 1.567424e-7, -0.98343575), (0.18125689, 1.567424e-7, -0.98343575), (0.18125689, 1.567424e-7, -0.98343575), (0.9834358, 7.1027905e-8, 0.18125682), (0.9834358, 1.0654183e-7, 0.18125664), (0.98343575, 9.6078814e-8, 0.181257), (0.98343575, 4.803941e-8, 0.18125704), (-0.9979895, -7.602086e-8, 0.06337896), (-0.9979895, -7.602095e-8, 0.06337895), (-0.9979896, 0, 0.06337894), (-0.9979896, 0, 0.06337894), (0.00046814664, 0.99999666, -0.002539991), (-9.482946e-8, 1, 5.248325e-7), (-9.482946e-8, 1, 5.248325e-7), (0.00046814635, 0.99999666, -0.0025399893), (0.1812548, -1.8512376e-8, -0.9834361), (0.18125658, -5.3473947e-8, -0.9834359), (0.18125658, -5.3473947e-8, -0.9834359), (0.18125637, -4.9651646e-8, -0.9834359), (-0.89671165, -0.16912888, -0.4090278), (-0.89671165, -0.16912888, -0.4090278), (-0.89671165, -0.16912888, -0.4090278), (0.98361224, -0.16912988, -0.06246618), (0.98361224, -0.16912988, -0.06246618), (0.98361224, -0.16912988, -0.06246618), (-0.8967114, 0.16912872, -0.40902817), (-0.8967114, 0.16912872, -0.40902817), (-0.8967114, 0.16912872, -0.40902817), (0.9836124, 0.1691296, -0.06246578), (0.9836124, 0.1691296, -0.06246578), (0.9836124, 0.1691296, -0.06246578), (0.90981805, 2.7017787e-8, 0.41500735), (0.909818, 5.403554e-8, 0.4150076), (0.909818, 5.403554e-8, 0.4150076), (0.90981805, 2.7017752e-8, 0.41500732), (0.9834358, 7.1027905e-8, 0.18125682), (0.98343575, 4.803941e-8, 0.18125704), (0.9834357, 0, 0.18125705), (0.9834357, 0, 0.18125705), (-0.9979896, -1.5204182e-7, 0.06337898), (-0.9979895, -7.602095e-8, 0.06337895), (-0.9979895, -7.602086e-8, 0.06337896), (-0.9979896, -1.5204182e-7, 0.06337898), (0.96847117, 0.17386064, 0.17842646), (0.96839786, 0.17420901, 0.17848475), (0.96839786, 0.17420901, 0.17848475), (0.9688126, 0.17223063, 0.17815359), (0.14810523, 0.57649416, -0.80356663), (0.14810523, 0.57649416, -0.80356663), (0.14810523, 0.57649416, -0.80356663), (0.14810523, 0.57649416, -0.80356663), (0.9979895, 1.3693119e-7, -0.0633793), (0.9979895, 1.3693119e-7, -0.0633793), (0.9979895, 1.3693119e-7, -0.0633793), (0.9979895, 1.3693119e-7, -0.0633793), (0.14810546, -0.57649374, -0.80356693), (0.14810546, -0.57649374, -0.80356693), (0.14810546, -0.57649374, -0.80356693), (0.14810546, -0.57649374, -0.80356693), (-0.9098183, -7.906232e-8, -0.41500694), (-0.9098183, -7.906232e-8, -0.41500694), (-0.9098183, -7.906232e-8, -0.41500694), (-0.9098183, -7.906232e-8, -0.41500694), (-0.9683979, -0.1742091, -0.17848453), (-0.9683979, -0.1742091, -0.17848453), (-0.9683979, -0.1742091, -0.17848453), (-0.9683979, -0.1742091, -0.17848453), (-0.18125638, -8.010155e-8, 0.98343587), (-0.1812567, -1.6020311e-7, 0.9834358), (-0.1812567, -1.6020311e-7, 0.9834358), (-0.18125635, -8.010156e-8, 0.98343587), (0.96839786, -0.17420897, 0.1784847), (0.96839786, -0.17420897, 0.1784847), (0.96839786, -0.17420897, 0.1784847), (0.96839786, -0.17420897, 0.1784847), (-0.96839803, 0.17420833, -0.1784846), (-0.9685474, 0.17311397, -0.17873824), (-0.96854764, 0.1731122, -0.17873865), (-0.96839803, 0.17420833, -0.1784846), (0.9941095, -1.9122271e-7, -0.10838078), (0.9941095, -1.9122271e-7, -0.10838078), (0.9941095, -1.9122271e-7, -0.10838078), (0.9941095, -1.9122271e-7, -0.10838078), (0.90981805, 2.7017787e-8, 0.41500735), (0.90981805, 2.7017752e-8, 0.41500732), (0.9098182, 0, 0.41500714), (0.9098182, 0, 0.41500714), (-4.7414634e-8, -1, 0), (-4.7414634e-8, -1, 0), (-4.7414634e-8, -1, 0), (-4.7414634e-8, -1, 0), (0.98343587, 1.17004866e-7, 0.18125632), (0.98343587, 1.17004866e-7, 0.18125632), (0.9834358, 1.0654183e-7, 0.18125664), (0.9834358, 7.1027905e-8, 0.18125682), (-0.98343575, -4.6091746e-8, -0.18125685), (-0.98343575, -9.2183484e-8, -0.18125688), (-0.98343587, -7.183118e-8, -0.18125655), (-0.9834358, -4.7887454e-8, -0.18125665), (0, -0.99999994, 0), (0, -0.99999994, 0), (0, -0.99999994, 0), (0, -0.99999994, 0), (-0.99112517, -0.117085814, 0.06294324), (-0.99112517, -0.117085814, 0.06294324), (-0.99112517, -0.117085814, 0.06294324), (0.90356034, -0.11708537, 0.41215265), (0.90356034, -0.11708537, 0.41215265), (0.90356034, -0.11708537, 0.41215265), (0.89736, 0.16491827, 0.40932503), (0.89736, 0.16491827, 0.40932503), (0.89736, 0.16491827, 0.40932503), (-0.1631051, -0.43618527, 0.88495153), (-0.1631051, -0.43618527, 0.88495153), (-0.1631051, -0.43618527, 0.88495153), (-0.1631051, -0.43618527, 0.88495153), (-0.14936395, 0.56651926, 0.8103989), (-0.14936395, 0.56651926, 0.8103989), (-0.14936395, 0.56651926, 0.8103989), (-0.14936395, 0.56651926, 0.8103989), (0.9762508, -0.1206582, 0.17993279), (0.9762508, -0.1206582, 0.17993279), (0.9762508, -0.1206582, 0.17993279), (0.9762508, -0.1206582, 0.17993279), (-0.9762509, -0.12065814, -0.17993283), (-0.9762509, -0.12065814, -0.17993283), (-0.9762509, -0.12065814, -0.17993283), (-0.9762509, -0.12065814, -0.17993283), (0.0009363847, 0.99998665, -0.005080488), (0.00046814664, 0.99999666, -0.002539991), (0.00046814635, 0.99999666, -0.0025399893), (0.0009363847, 0.99998665, -0.005080488), (-0.98343575, -4.6091746e-8, -0.18125685), (-0.9834358, -4.7887454e-8, -0.18125665), (-0.9834358, 0, -0.18125685), (-0.9834358, 0, -0.18125685), (-0.18125638, -8.010155e-8, 0.98343587), (-0.18125635, -8.010156e-8, 0.98343587), (-0.18125604, 0, 0.983436), (-0.18125604, 0, 0.983436), (-0.9685474, 0.17311397, -0.17873824), (-0.96869564, 0.1720194, -0.17899165), (-0.96869564, 0.1720194, -0.17899165), (-0.96854764, 0.1731122, -0.17873865), (0.18125391, 0, -0.9834364), (0.1812548, -1.8512376e-8, -0.9834361), (0.18125637, -4.9651646e-8, -0.9834359), (0.18125391, 0, -0.9834364), (1.879095e-7, -3.34793e-8, -1), (1.879095e-7, -3.34793e-8, -1), (1.879095e-7, -3.34793e-8, -1), (1.879095e-7, -3.34793e-8, -1), (1, -7.364005e-8, 3.2364397e-7), (1, -7.364005e-8, 3.2364397e-7), (1, -7.364005e-8, 3.2364397e-7), (1, -7.364005e-8, 3.2364397e-7), (-1.1274572e-7, 4.4801123e-15, 1), (-1.1274572e-7, 4.4801123e-15, 1), (-1.1274572e-7, 4.4801123e-15, 1), (-1.1274572e-7, 4.4801123e-15, 1), (1.3381735e-7, -0.99999994, 0), (1.3381735e-7, -0.99999994, 0), (1.3381735e-7, -0.99999994, 0), (1.3381735e-7, -0.99999994, 0), (-1.6727172e-7, 0.99999994, 1.7029856e-7), (-1.6727172e-7, 0.99999994, 1.7029856e-7), (-1.6727172e-7, 0.99999994, 1.7029856e-7), (-1.6727172e-7, 0.99999994, 1.7029856e-7), (-0.19842292, -0.19857058, -0.95979065), (-0.19842292, -0.19857058, -0.95979065), (-0.19842292, -0.19857058, -0.95979065), (-0.19842303, -0.19857098, 0.9597906), (-0.19842303, -0.19857098, 0.9597906), (-0.19842303, -0.19857098, 0.9597906), (-0.1984231, 0.19857095, -0.9597905), (-0.1984231, 0.19857095, -0.9597905), (-0.1984231, 0.19857095, -0.9597905), (-0.19842292, 0.19857088, 0.9597906), (-0.19842292, 0.19857088, 0.9597906), (-0.19842292, 0.19857088, 0.9597906), (0.19842248, -0.19857013, -0.9597909), (0.19842248, -0.19857013, -0.9597909), (0.19842248, -0.19857013, -0.9597909), (0.19842303, -0.19857052, 0.9597906), (0.19842303, -0.19857052, 0.9597906), (0.19842303, -0.19857052, 0.9597906), (0.1984229, 0.19857024, -0.9597907), (0.1984229, 0.19857024, -0.9597907), (0.1984229, 0.19857024, -0.9597907), (0.19842304, 0.19857115, 0.9597905), (0.19842304, 0.19857115, 0.9597905), (0.19842304, 0.19857115, 0.9597905), (-0.7068429, -0.7073706, 0), (-0.7068429, -0.7073706, 0), (-0.7068429, -0.7073706, 0), (-0.7068429, -0.7073706, 0), (-0.20245439, -3.8834717e-8, 0.9792917), (-0.20245439, -3.8834717e-8, 0.9792917), (-0.20245439, -3.8834717e-8, 0.9792917), (-0.20245439, -3.8834717e-8, 0.9792917), (-0.70684314, 0.70737034, -1.1234648e-7), (-0.70684314, 0.70737034, -1.1234648e-7), (-0.70684314, 0.70737034, -1.1234648e-7), (-0.70684314, 0.70737034, -1.1234648e-7), (-0.2024542, -3.9849507e-8, -0.9792918), (-0.2024542, -3.9849507e-8, -0.9792918), (-0.2024542, -3.9849507e-8, -0.9792918), (-0.2024542, -3.9849507e-8, -0.9792918), (-1.6938273e-7, 0.20259938, 0.9792617), (-1.6938273e-7, 0.20259938, 0.9792617), (-1.6938273e-7, 0.20259938, 0.9792617), (-1.6938273e-7, 0.20259938, 0.9792617), (0.70684296, 0.70737064, 1.7391149e-7), (0.70684296, 0.70737064, 1.7391149e-7), (0.70684296, 0.70737064, 1.7391149e-7), (0.70684296, 0.70737064, 1.7391149e-7), (1.1274752e-7, 0.20259902, -0.97926176), (1.1274752e-7, 0.20259902, -0.97926176), (1.1274752e-7, 0.20259902, -0.97926176), (1.1274752e-7, 0.20259902, -0.97926176), (0.20245454, -5.2639013e-8, 0.9792916), (0.20245454, -5.2639013e-8, 0.9792916), (0.20245454, -5.2639013e-8, 0.9792916), (0.20245454, -5.2639013e-8, 0.9792916), (0.70684344, -0.7073701, 3.4611182e-7), (0.70684344, -0.7073701, 3.4611182e-7), (0.70684344, -0.7073701, 3.4611182e-7), (0.70684344, -0.7073701, 3.4611182e-7), (0.20245396, 3.935587e-8, -0.97929174), (0.20245396, 3.935587e-8, -0.97929174), (0.20245396, 3.935587e-8, -0.97929174), (0.20245396, 3.935587e-8, -0.97929174), (-9.627248e-8, -0.20259982, 0.9792617), (-9.627248e-8, -0.20259982, 0.9792617), (-9.627248e-8, -0.20259982, 0.9792617), (-9.627248e-8, -0.20259982, 0.9792617), (1.5506957e-7, -0.20259891, -0.97926176), (1.5506957e-7, -0.20259891, -0.97926176), (1.5506957e-7, -0.20259891, -0.97926176), (1.5506957e-7, -0.20259891, -0.97926176), (-0.99999994, 0, -1.6182193e-7), (-0.99999994, 0, -1.6182193e-7), (-0.99999994, 0, -1.6182193e-7), (-0.99999994, 0, -1.6182193e-7), (-6.328283e-8, 0.99863046, 0.05231747), (-2.8119937e-8, 0.99863046, 0.05231764), (3.347913e-9, 0.99863046, 0.05231766), (-6.7171776e-8, 0.99863046, 0.052317478), (2.7337126e-7, -0.9986305, 0.052317455), (4.3210835e-7, -0.9986306, 0.05231706), (4.3210835e-7, -0.9986306, 0.05231706), (2.613147e-7, -0.99863046, 0.052317478), (2.0587798e-7, 2.176547e-8, -1), (2.3514606e-7, -1.0925778e-8, -1), (1.15959274e-7, 1.0725281e-8, -1), (1.2217457e-7, 2.9529556e-8, -1), (-4.9933195e-8, 1, 3.5910464e-8), (-7.072177e-14, 0.99999994, 2.966286e-7), (-7.072177e-14, 0.99999994, 2.966286e-7), (-4.99332e-8, 1, 3.5910407e-8), (1, -1.6042537e-7, 2.1096785e-7), (1, -1.6042537e-7, 2.1096785e-7), (1, -1.6042537e-7, 2.1096785e-7), (1, -1.6042537e-7, 2.1096785e-7), (0.9728667, 3.082182e-7, 0.23136635), (0.9728667, 3.082182e-7, 0.23136635), (0.9728667, 3.082182e-7, 0.23136635), (0.9728667, 3.082182e-7, 0.23136635), (0.9728667, 3.082182e-7, 0.23136635), (0.00031503988, -0.0033479074, 0.99999434), (0.0006301825, -0.0022983325, 0.99999714), (0.0006301825, -0.0022983325, 0.99999714), (0.00031240526, -0.0033566824, 0.99999434), (2.6386846e-7, 1.0925945e-8, -1), (3.0986382e-7, -2.1851593e-8, -0.99999994), (2.3514606e-7, -1.0925778e-8, -1), (2.0587798e-7, 2.176547e-8, -1), (1.0257761e-7, -0.99863046, 0.052317873), (2.7337126e-7, -0.9986305, 0.052317455), (2.613147e-7, -0.99863046, 0.052317478), (1.0257761e-7, -0.99863046, 0.052317873), (-1.2080868e-8, 0.9986306, 0.052317385), (-6.328283e-8, 0.99863046, 0.05231747), (-6.7171776e-8, 0.99863046, 0.052317478), (-1.2080868e-8, 0.9986306, 0.052317385), (0.00031716083, 0.003385775, 0.9999942), (-2.025952e-7, 0.0044567664, 0.99999005), (-2.025952e-7, 0.0044567664, 0.99999005), (0.00031491453, 0.0033933553, 0.9999942), (1, -2.0283802e-7, 2.1096768e-7), (1, -2.0283802e-7, 2.1096768e-7), (1, -2.0283802e-7, 2.1096768e-7), (1, -2.0283802e-7, 2.1096768e-7), (2.0013509e-7, -1, 0), (1.7256917e-7, -0.99999994, 0), (1.7256917e-7, -0.99999994, 0), (1.7256917e-7, -0.99999994, 0), (2.001351e-7, -1, 0), (-1.03041174e-7, -0.0043974784, 0.99999034), (0.00031503988, -0.0033479074, 0.99999434), (0.00031240526, -0.0033566824, 0.99999434), (-1.03041174e-7, -0.0043974784, 0.99999034), (0.020224253, -0.99979186, 0.0026637858), (0.020224253, -0.99979186, 0.0026637858), (0.020224253, -0.99979186, 0.0026637858), (0.020224253, -0.99979186, 0.0026637858), (0.020224253, -0.99979186, 0.0026637858), (-1, -2.849248e-7, -0.00012629238), (-1, -2.3369817e-7, -0.00012834447), (-1, -1.5420254e-7, 2.325635e-7), (-1, -3.0485944e-7, -8.124606e-9), (-1, -3.5737403e-7, -0.0001284733), (-1, -3.346534e-7, -0.00012640096), (-1, -3.3548616e-7, -3.3919044e-8), (-1, -4.052254e-7, 1.5504227e-7), (0.023858635, 0.99971044, 0.003143279), (0.023858635, 0.99971044, 0.003143279), (0.023858635, 0.99971044, 0.003143279), (0.023858635, 0.99971044, 0.003143279), (0.023858635, 0.99971044, 0.003143279), (1, 4.0403168e-7, 7.739518e-8), (1, 3.4939677e-7, 7.739523e-8), (1, 3.8336137e-7, 3.8697614e-8), (1, 4.1516154e-7, 3.8697586e-8), (2.2770101e-7, -1, 0), (2.0013509e-7, -1, 0), (2.001351e-7, -1, 0), (2.2770101e-7, -1, 0), (-9.986632e-8, 1, -2.2480774e-7), (-4.9933195e-8, 1, 3.5910464e-8), (-4.99332e-8, 1, 3.5910407e-8), (-9.986632e-8, 1, -2.2480774e-7), (-9.986632e-8, 1, -2.2480774e-7), (0.70710707, 0, 0.7071065), (0.70710707, 0, 0.7071065), (0.70710707, 0, 0.7071065), (0.70710707, 0, 0.7071065), (0.7071063, 2.1640702e-7, 0.7071073), (0.7071063, 2.1640702e-7, 0.7071073), (0.7071063, 2.1640702e-7, 0.7071073), (0.7071063, 2.1640702e-7, 0.7071073), (0.00063452387, 0.0023147792, 0.99999714), (0.00031716083, 0.003385775, 0.9999942), (0.00031491453, 0.0033933553, 0.9999942), (0.00063452387, 0.0023147792, 0.99999714), (0.9702798, 1.5279348e-7, 0.24198566), (0.9702798, 1.5279352e-7, 0.24198566), (0.9702798, 0, 0.24198568), (0.9702798, 0, 0.24198568), (9.1080386e-7, -1, 0), (9.1080386e-7, -1, 0), (9.1080386e-7, -1, 0), (9.1080386e-7, -1, 0), (0, 1, 0), (0, 1, 0), (0, 1, 0), (0, 1, 0), (0.9702798, 3.8198374e-7, 0.24198566), (0.9702798, 1.0086058e-7, 0.24198571), (0.9702798, 1.0086052e-7, 0.24198571), (0.9702798, 3.8198374e-7, 0.24198565), (0.9702798, 1.0086052e-7, 0.24198571), (0.9702798, 1.0086058e-7, 0.24198571), (0.9702798, -2.566594e-7, 0.2419858), (0.9702798, -2.566594e-7, 0.2419858), (-0.97116977, -4.2697715e-7, -0.23838864), (-0.9711698, 1.6796136e-9, -0.23838866), (-0.97116977, 1.6796312e-9, -0.23838864), (-0.97116977, -4.2697715e-7, -0.23838864), (-0.97116977, 1.6796312e-9, -0.23838864), (-0.9711698, 1.6796136e-9, -0.23838866), (-0.9711698, 4.303364e-7, -0.23838872), (-0.9711698, 4.303364e-7, -0.23838872), (0, 1, -3.528556e-7), (0, 1, -3.528556e-7), (0, 1, -3.528556e-7), (0, 1, -3.528556e-7), (0, 1, -3.528556e-7), (0, 2.827146e-7, -1), (0, 2.827146e-7, -1), (0, 2.827146e-7, -1), (0, 2.827146e-7, -1), (-0.9711698, -2.1348866e-7, -0.23838878), (-0.97116977, -2.1348859e-7, -0.23838876), (-0.9711698, 0, -0.23838882), (-0.9711698, 0, -0.23838882), (-0.1584916, 2.6821336e-8, 0.98736036), (-0.1584916, 2.6821272e-8, 0.98736036), (-0.15849109, 1.584539e-7, 0.9873605), (-0.15849109, 1.584539e-7, 0.9873605), (9.013683e-7, -1, 5.292835e-7), (9.013683e-7, -1, 5.292835e-7), (9.013683e-7, -1, 5.292835e-7), (9.013683e-7, -1, 5.292835e-7), (9.013683e-7, -1, 5.292835e-7), (4.440541e-7, -1.413573e-7, -1), (4.440541e-7, -1.413573e-7, -1), (4.440541e-7, -1.413573e-7, -1), (4.440541e-7, -1.413573e-7, -1), (-0.15849082, -7.8608494e-8, 0.9873604), (-0.1584916, 2.6821272e-8, 0.98736036), (-0.1584916, 2.6821336e-8, 0.98736036), (-0.15849082, -7.8608494e-8, 0.9873604), (0.58610004, 1.8366083e-7, 0.8102386), (0.5860996, 1.1686491e-8, 0.810239), (0.58609957, 1.1686691e-8, 0.8102391), (0.5861001, 1.8366084e-7, 0.81023866), (0.5860996, 1.1686491e-8, 0.810239), (0.58609974, -2.1276222e-7, 0.81023896), (0.58609974, -2.1276222e-7, 0.81023896), (0.58609957, 1.1686691e-8, 0.8102391), (0.58610076, 2.6443675e-7, 0.8102382), (0.58610076, 1.978115e-7, 0.8102382), (0.5861007, 1.9781147e-7, 0.8102382), (0.58610076, 2.6443675e-7, 0.8102382), (-0.1584899, -2.6202851e-8, 0.9873606), (-0.15848988, -2.6202834e-8, 0.9873606), (-0.15849024, 0, 0.98736054), (-0.15849024, 0, 0.98736054), (1, 4.1516154e-7, 3.8697586e-8), (1, 3.8336137e-7, 3.8697614e-8), (1, 4.1732596e-7, 0), (1, 4.2629148e-7, 0), (-9.063789e-8, 2.6281581e-8, 1), (-6.6351824e-8, 1.4555324e-8, 1), (-1.3065912e-7, -4.361218e-14, 1), (-1.19045595e-7, 2.7619881e-8, 1), (-0.99999994, -3.1084764e-7, -0.00025286732), (-1, -3.242974e-7, -0.00012635656), (-1, -3.346534e-7, -0.00012640096), (-1, -3.5737403e-7, -0.0001284733), (-1, -3.1106455e-7, -0.00025295684), (-1, -3.4034633e-7, -1.2813206e-7), (-1, -3.0485944e-7, -8.124606e-9), (-1, -3.9572242e-7, -4.1105454e-7), (-1, -3.42947e-7, -4.1105432e-7), (-1, -3.242974e-7, -0.00012635656), (-1, -2.849248e-7, -0.00012629238), (-1, -3.0485944e-7, -8.124606e-9), (-1, -3.4034633e-7, -1.2813206e-7), (0.9688849, 0.17188397, 0.17809543), (0.96847117, 0.17386064, 0.17842646), (0.9688126, 0.17223063, 0.17815359), (0.9688849, 0.17188397, 0.17809543), (-0.98432344, 0.16492356, 0.062510975), (-0.98432344, 0.16492356, 0.062510975), (-0.98432344, 0.16492356, 0.062510975), (-0.9834358, 4.096466e-9, -0.18125659), (-0.9834359, 7.61848e-8, -0.18125598), (-0.9834359, 7.61848e-8, -0.18125598), (-0.98343587, 1.07019304e-7, -0.18125647), (0.18125643, -9.287563e-8, -0.98343587), (0.18125643, -9.287563e-8, -0.98343587), (0.18125643, -9.287563e-8, -0.98343587), (0.18125643, -9.287563e-8, -0.98343587), (0.9834358, -7.724603e-8, 0.18125682), (0.98343575, -5.19972e-8, 0.18125711), (0.98343575, -1.03994424e-7, 0.18125716), (0.9834358, -1.15869014e-7, 0.1812567), (-0.9979895, -9.59495e-8, 0.0633793), (-0.99798954, -3.524492e-7, 0.06337972), (-0.99798954, -3.524492e-7, 0.06337972), (-0.9979895, -9.5949545e-8, 0.0633793), (0.00046780796, -0.99999666, -0.002540326), (0.00046780767, -0.99999666, -0.0025403243), (-3.8598853e-7, -1, -8.07435e-8), (-3.8598853e-7, -1, -8.07435e-8), (0.18126118, 4.575987e-8, -0.983435), (0.18125674, 5.263059e-8, -0.9834358), (0.18125619, 5.347396e-8, -0.98343587), (0.18125619, 5.347396e-8, -0.98343587), (-0.8967116, 0.16912852, -0.4090279), (-0.8967116, 0.16912852, -0.4090279), (-0.8967116, 0.16912852, -0.4090279), (0.98361254, 0.16912839, -0.06246597), (0.98361254, 0.16912839, -0.06246597), (0.98361254, 0.16912839, -0.06246597), (-0.8967114, -0.16912924, -0.409028), (-0.8967114, -0.16912924, -0.409028), (-0.8967114, -0.16912924, -0.409028), (0.98361236, -0.16912898, -0.06246639), (0.98361236, -0.16912898, -0.06246639), (0.98361236, -0.16912898, -0.06246639), (0.9098186, 6.804342e-8, 0.41500625), (0.9098186, 6.804341e-8, 0.41500628), (0.9098189, -4.0137557e-8, 0.4150056), (0.9098189, -4.0137557e-8, 0.4150056), (0.9834358, -7.724603e-8, 0.18125682), (0.98343575, 0, 0.1812571), (0.98343575, 0, 0.1812571), (0.98343575, -5.19972e-8, 0.18125711), (-0.9979896, 1.6055009e-7, 0.0633789), (-0.9979896, 1.6055009e-7, 0.0633789), (-0.9979895, -9.59495e-8, 0.0633793), (-0.9979895, -9.5949545e-8, 0.0633793), (0.968481, -0.17381418, 0.17841879), (0.9688223, -0.17218417, 0.17814577), (0.9683978, -0.17420879, 0.17848481), (0.9683978, -0.17420879, 0.17848481), (0.14810486, -0.5764955, -0.8035658), (0.14810486, -0.5764955, -0.8035658), (0.14810486, -0.5764955, -0.8035658), (0.14810486, -0.5764955, -0.8035658), (0.9979895, -1.6055014e-7, -0.063379206), (0.9979895, -1.6055014e-7, -0.063379206), (0.9979895, -1.6055014e-7, -0.063379206), (0.9979895, -1.6055014e-7, -0.063379206), (0.14810573, 0.57649404, -0.80356663), (0.14810573, 0.57649404, -0.80356663), (0.14810573, 0.57649404, -0.80356663), (0.14810573, 0.57649404, -0.80356663), (-0.9098183, 1.2041268e-7, -0.41500688), (-0.9098183, 1.2041268e-7, -0.41500688), (-0.9098183, 1.2041268e-7, -0.41500688), (-0.9098183, 1.2041268e-7, -0.41500688), (-0.9683979, 0.17420876, -0.17848441), (-0.9683979, 0.17420876, -0.17848441), (-0.9683979, 0.17420876, -0.17848441), (-0.9683979, 0.17420876, -0.17848441), (-0.18125692, 2.0356175e-7, 0.98343575), (-0.18125692, 2.0356177e-7, 0.9834358), (-0.18125674, 1.4288565e-7, 0.9834358), (-0.18125674, 1.4288565e-7, 0.9834358), (0.9683981, 0.17420824, 0.17848475), (0.9683981, 0.17420824, 0.17848475), (0.9683981, 0.17420824, 0.17848475), (0.9683981, 0.17420824, 0.17848475), (-0.96839803, -0.17420873, -0.17848426), (-0.96839803, -0.17420873, -0.17848426), (-0.96854764, -0.17311262, -0.17873847), (-0.96854746, -0.1731144, -0.17873809), (0.9941096, 6.261606e-8, -0.10837995), (0.9941096, 6.261606e-8, -0.10837995), (0.9941096, 6.261606e-8, -0.10837995), (0.9941096, 6.261606e-8, -0.10837995), (0.9098186, 6.804342e-8, 0.41500625), (0.90981823, 1.7622438e-7, 0.41500697), (0.90981823, 1.7622438e-7, 0.41500697), (0.9098186, 6.804341e-8, 0.41500628), (-9.4829254e-8, 1, 0), (-9.4829254e-8, 1, 0), (-9.4829254e-8, 1, 0), (-9.4829254e-8, 1, 0), (0.9834359, -1.2774362e-7, 0.1812562), (0.9834358, -7.724603e-8, 0.18125682), (0.9834358, -1.15869014e-7, 0.1812567), (0.9834359, -1.2774362e-7, 0.1812562), (-0.98343575, -3.1947703e-8, -0.1812569), (-0.9834358, 4.096466e-9, -0.18125659), (-0.98343587, 1.07019304e-7, -0.18125647), (-0.98343575, 1.3785382e-7, -0.18125694), (4.145868e-7, 1, 0), (4.145868e-7, 1, 0), (4.145868e-7, 1, 0), (4.145868e-7, 1, 0), (-0.9911249, 0.11708705, 0.06294433), (-0.9911249, 0.11708705, 0.06294433), (-0.9911249, 0.11708705, 0.06294433), (0.90356034, 0.117084734, 0.41215265), (0.90356034, 0.117084734, 0.41215265), (0.90356034, 0.117084734, 0.41215265), (0.8973609, -0.16491778, 0.4093234), (0.8973609, -0.16491778, 0.4093234), (0.8973609, -0.16491778, 0.4093234), (-0.16310447, 0.43618524, 0.8849516), (-0.16310447, 0.43618524, 0.8849516), (-0.16310447, 0.43618524, 0.8849516), (-0.16310447, 0.43618524, 0.8849516), (-0.14936486, -0.56651866, 0.81039923), (-0.14936486, -0.56651866, 0.81039923), (-0.14936486, -0.56651866, 0.81039923), (-0.14936486, -0.56651866, 0.81039923), (0.9762508, 0.120658696, 0.17993283), (0.9762508, 0.120658696, 0.17993283), (0.9762508, 0.120658696, 0.17993283), (0.9762508, 0.120658696, 0.17993283), (-0.9762509, 0.12065847, -0.17993258), (-0.9762509, 0.12065847, -0.17993258), (-0.9762509, 0.12065847, -0.17993258), (-0.9762509, 0.12065847, -0.17993258), (0.00093599857, -0.9999867, -0.0050805532), (0.00093599857, -0.9999867, -0.0050805532), (0.00046780767, -0.99999666, -0.0025403243), (0.00046780796, -0.99999666, -0.002540326), (-0.98343575, -3.1947703e-8, -0.1812569), (-0.98343575, -2.017492e-7, -0.18125689), (-0.98343575, -2.017492e-7, -0.18125689), (-0.9834358, 4.096466e-9, -0.18125659), (-0.18125692, 2.0356175e-7, 0.98343575), (-0.1812571, 2.6423788e-7, 0.9834358), (-0.1812571, 2.6423788e-7, 0.9834358), (-0.18125692, 2.0356177e-7, 0.9834358), (-0.96854746, -0.1731144, -0.17873809), (-0.96854764, -0.17311262, -0.17873847), (-0.9686956, -0.17201984, -0.17899165), (-0.9686956, -0.17201984, -0.17899165), (0.18126382, 4.1675207e-8, -0.98343456), (0.18126382, 4.1675207e-8, -0.98343456), (0.18125674, 5.263059e-8, -0.9834358), (0.18126118, 4.575987e-8, -0.983435), (1.7659572e-7, 6.69586e-8, -1), (1.7659572e-7, 6.69586e-8, -1), (1.7659572e-7, 6.69586e-8, -1), (1.7659572e-7, 6.69586e-8, -1), (8.4467075e-8, 4.441627e-7, -1), (9.9688314e-8, -6.3508963e-7, -1), (3.7764605e-7, -2.410157e-7, -1), (9.374893e-8, 2.5147668e-7, -1), (-6.4804055e-8, 8.030584e-8, 1), (-2.280254e-8, -6.546542e-8, 1), (-2.280254e-8, -6.546542e-8, 1), (-6.167044e-8, -6.536713e-8, 1), (5.699331e-8, 1, 0.0000012378594), (5.699331e-8, 1, 0.0000012378594), (5.699331e-8, 1, 0.0000012378594), (5.699331e-8, 1, 0.0000012378594), (-1.4021882e-7, -1, -1.6416963e-7), (-1.4021882e-7, -1, -1.6416963e-7), (-6.519574e-8, -1, -1.7103314e-7), (-4.5607237e-8, -1, -1.728252e-7), (-0.19842339, 0.19857103, -0.9597904), (-0.19842339, 0.19857103, -0.9597904), (-0.19842339, 0.19857103, -0.9597904), (-0.19842255, 0.1985705, 0.9597907), (-0.19842255, 0.1985705, 0.9597907), (-0.19842255, 0.1985705, 0.9597907), (-0.1984239, -0.19857186, -0.95979017), (-0.1984239, -0.19857186, -0.95979017), (-0.1984239, -0.19857186, -0.95979017), (-0.19842325, -0.19857107, 0.95979047), (-0.19842325, -0.19857107, 0.95979047), (-0.19842325, -0.19857107, 0.95979047), (0.05304522, 0.098917484, -0.9936808), (0.05304522, 0.098917484, -0.9936808), (0.05304522, 0.098917484, -0.9936808), (9.9688314e-8, -6.3508963e-7, -1), (6.8925914e-8, -2.461034e-7, -1), (5.0303896e-7, -3.8686406e-7, -1), (3.7764605e-7, -2.410157e-7, -1), (0.05304536, -0.09891815, -0.9936807), (0.05304536, -0.09891815, -0.9936807), (0.05304536, -0.09891815, -0.9936807), (1, 3.3632256e-7, 3.2364403e-7), (1, 3.3632227e-7, 3.2364372e-7), (0.99999994, 6.726448e-7, 6.4728755e-7), (0.99999994, 6.726448e-7, 6.4728755e-7), (-0.7068429, 0.7073706, -3.7101154e-7), (-0.7068429, 0.7073706, -3.7101154e-7), (-0.7068429, 0.7073706, -3.7101154e-7), (-0.7068429, 0.7073706, -3.7101154e-7), (-0.20245445, -3.9849475e-8, 0.9792917), (-0.20245445, -3.9849475e-8, 0.9792917), (-0.20245445, -3.9849475e-8, 0.9792917), (-0.20245445, -3.9849475e-8, 0.9792917), (-0.7068428, -0.70737064, -1.1594111e-7), (-0.7068428, -0.70737064, -1.1594111e-7), (-0.7068428, -0.70737064, -1.1594111e-7), (-0.7068428, -0.70737064, -1.1594111e-7), (-0.20245495, 0, -0.9792915), (-0.20245495, 0, -0.9792915), (-0.20245495, 0, -0.9792915), (-0.20245495, 0, -0.9792915), (-8.7682785e-8, -0.20259918, 0.9792617), (-8.7682785e-8, -0.20259918, 0.9792617), (-4.384139e-8, -0.20259917, 0.9792617), (-4.3841393e-8, -0.20259917, 0.97926176), (-6.4804055e-8, 8.030584e-8, 1), (-6.167044e-8, -6.536713e-8, 1), (-1.03370986e-7, -6.5261666e-8, 1), (-8.4388496e-8, 1.531879e-7, 1), (4.8879205e-8, -0.20259951, -0.9792617), (4.8879205e-8, -0.20259951, -0.9792617), (4.8879205e-8, -0.20259951, -0.9792617), (4.8879205e-8, -0.20259951, -0.9792617), (7.2737876e-8, 6.876542e-7, -1), (8.4467075e-8, 4.441627e-7, -1), (9.374893e-8, 2.5147668e-7, -1), (7.2737876e-8, 6.876542e-7, -1), (-0.18861096, 2.7473456e-7, 0.98205185), (-0.18861096, 2.7473456e-7, 0.98205185), (-0.18861096, 2.7473456e-7, 0.98205185), (-0.18861096, 2.7473456e-7, 0.98205185), (0.05330677, 2.797997e-8, -0.9985782), (0.05330677, 2.797997e-8, -0.9985782), (0.05330677, 2.797997e-8, -0.9985782), (0.05330677, 2.797997e-8, -0.9985782), (-4.352955e-8, 0.20259996, 0.97926164), (-4.352955e-8, 0.20259996, 0.97926164), (-4.352955e-8, 0.20259996, 0.97926164), (-4.352955e-8, 0.20259996, 0.97926164), (1.2219766e-7, 0.20259781, -0.979262), (1.2219766e-7, 0.20259781, -0.979262), (1.2219766e-7, 0.20259781, -0.979262), (1.2219766e-7, 0.20259781, -0.979262), (-0.99999994, 4.5446843e-8, -1.6182192e-7), (-0.99999994, 4.5446843e-8, -1.6182192e-7), (-0.99999994, 4.5446843e-8, -1.6182192e-7), (-0.99999994, 4.5446843e-8, -1.6182192e-7), (0.96888494, -0.17188382, 0.1780955), (0.96888494, -0.17188382, 0.1780955), (0.9688223, -0.17218417, 0.17814577), (0.968481, -0.17381418, 0.17841879), (-0.98432344, -0.16492356, 0.06251099), (-0.98432344, -0.16492356, 0.06251099), (-0.98432344, -0.16492356, 0.06251099), (-1, -3.346534e-7, -0.00012640096), (-1, -3.242974e-7, -0.00012635656), (-1, -3.4034633e-7, -1.2813206e-7), (-1, -3.3548616e-7, -3.3919044e-8), (-1, -3.3548616e-7, -3.3919044e-8), (-1, -3.4034633e-7, -1.2813206e-7), (-1, -3.42947e-7, -4.1105432e-7), (-1, -2.9017153e-7, -4.1105403e-7), (-1.07040115e-7, 5.617199e-8, 1), (-9.063789e-8, 2.6281581e-8, 1), (-1.19045595e-7, 2.7619881e-8, 1), (-1.07040115e-7, 5.617199e-8, 1), (1, 4.469618e-7, 3.8697568e-8), (1, 4.1516154e-7, 3.8697586e-8), (1, 4.2629148e-7, 0), (1, 4.35257e-7, 0), (0.58610076, 1.978115e-7, 0.8102382), (0.58610004, 1.8366083e-7, 0.8102386), (0.5861001, 1.8366084e-7, 0.81023866), (0.5861007, 1.9781147e-7, 0.8102382), (-0.1584899, -2.6202851e-8, 0.9873606), (-0.15849082, -7.8608494e-8, 0.9873604), (-0.15849082, -7.8608494e-8, 0.9873604), (-0.15848988, -2.6202834e-8, 0.9873606), (-0.9711698, -2.1348866e-7, -0.23838878), (-0.97116977, -4.2697715e-7, -0.23838864), (-0.97116977, -4.2697715e-7, -0.23838864), (-0.97116977, -2.1348859e-7, -0.23838876), (0.9702798, 1.5279348e-7, 0.24198566), (0.9702798, 3.8198374e-7, 0.24198566), (0.9702798, 3.8198374e-7, 0.24198565), (0.9702798, 1.5279352e-7, 0.24198566), (0.99999994, 4.5866648e-7, 7.739512e-8), (1, 4.0403168e-7, 7.739518e-8), (1, 4.1516154e-7, 3.8697586e-8), (1, 4.469618e-7, 3.8697568e-8), (2.1787304e-7, 4.3703487e-8, -1), (2.6386846e-7, 1.0925945e-8, -1), (2.0587798e-7, 2.176547e-8, -1), (1.7642452e-7, 5.4938752e-8, -1), (1.7642452e-7, 5.4938752e-8, -1), (2.0587798e-7, 2.176547e-8, -1), (1.2217457e-7, 2.9529556e-8, -1), (1.3497599e-7, 6.617401e-8, -1), (2.3719483e-8, -0.99999994, -4.1641806e-7), (2.3719483e-8, -0.99999994, -4.1641806e-7), (2.3719483e-8, -0.99999994, -4.1641806e-7), (2.3719483e-8, -0.99999994, -4.1641806e-7), (-1, -2.3369817e-7, -0.00012834447), (-1, -2.849248e-7, -0.00012629238), (-1, -3.242974e-7, -0.00012635656), (-0.99999994, -3.1084764e-7, -0.00025286732), (-1, -3.1063223e-7, -0.0002527784), (0.97286665, 3.5618922e-7, 0.23136653), (0.97286665, 3.5618922e-7, 0.23136653), (0.97286665, 3.5618922e-7, 0.23136653), (0.97286665, 3.5618922e-7, 0.23136653), (3.347913e-9, 0.99863046, 0.05231766), (-2.8119937e-8, 0.99863046, 0.05231764), (9.3601734e-8, 0.99863046, 0.052317727), (9.3601734e-8, 0.99863046, 0.052317727), (1.2217457e-7, 2.9529556e-8, -1), (1.15959274e-7, 1.0725281e-8, -1), (7.149029e-8, 2.1450521e-8, -1), (7.149029e-8, 2.1450521e-8, -1), (1, 0, 1.73366e-13), (1, 0, 1.73366e-13), (1, 3.3632227e-7, 3.2364372e-7), (1, 3.3632256e-7, 3.2364403e-7), (-0.99999994, 0, -6.472878e-7), (-0.99999994, 0, -6.472878e-7), (-0.99999994, 0, -6.472878e-7), (-0.99999994, 0, -6.472878e-7), (0.1984226, -0.19857115, 0.9597906), (0.1984226, -0.19857115, 0.9597906), (0.1984226, -0.19857115, 0.9597906), (0.70684195, -0.70737153, -4.6376388e-7), (0.70684195, -0.70737153, -4.6376388e-7), (0.70684195, -0.70737153, -4.6376388e-7), (0.70684195, -0.70737153, -4.6376388e-7), (0.20245412, 2.6566273e-8, 0.9792918), (0.20245412, 2.6566273e-8, 0.9792918), (0.2024543, 6.2433074e-8, 0.9792917), (0.20245431, 6.2433074e-8, 0.9792918), (0.20245431, 6.2433074e-8, 0.9792918), (0.2024543, 6.2433074e-8, 0.9792917), (0.20245448, 9.829987e-8, 0.9792916), (0.20245448, 9.829987e-8, 0.9792916), (-4.3841393e-8, -0.20259917, 0.97926176), (-4.384139e-8, -0.20259917, 0.9792617), (0, -0.20259918, 0.97926176), (0, -0.20259918, 0.97926176), (-4.5607237e-8, -1, -1.728252e-7), (-6.519574e-8, -1, -1.7103314e-7), (2.9415839e-8, -1, -1.796887e-7), (2.9415839e-8, -1, -1.796887e-7), (0, 0.20259894, 0.9792618), (0, 0.20259894, 0.9792618), (0, 0.20259894, 0.9792618), (0, 0.20259894, 0.9792618), (0, 1, 8.478908e-7), (0, 1, 8.478908e-7), (0, 1, 8.478908e-7), (0, 1, 8.478908e-7), (0.1984219, 0.19857045, 0.95979095), (0.1984219, 0.19857045, 0.95979095), (0.1984219, 0.19857045, 0.95979095), (0.7068435, 0.70737, 0), (0.7068435, 0.70737, 0), (0.7068435, 0.70737, 0), (0.7068435, 0.70737, 0), (3.7764605e-7, -2.410157e-7, -1), (5.0303896e-7, -3.8686406e-7, -1), (4.4173876e-7, 2.5536642e-13, -1), (0.000001204545, 7.658291e-13, -1), (-6.4804055e-8, 8.030584e-8, 1), (-8.4388496e-8, 1.531879e-7, 1), (-6.5405985e-8, 3.7163744e-7, 0.99999994), (-6.5405985e-8, 3.7163744e-7, 0.99999994), (5.0303896e-7, -3.8686406e-7, -1), (6.8925914e-8, -2.461034e-7, -1), (6.013379e-8, 0, -0.99999994), (4.4173876e-7, 2.5536642e-13, -1), (-3.460641e-8, 2.174061e-8, 1), (-6.6351824e-8, 1.4555324e-8, 1), (-9.063789e-8, 2.6281581e-8, 1), (-3.460641e-8, 2.174061e-8, 1), (-3.460641e-8, 2.174061e-8, 1)] (
                interpolation = "faceVarying"
            )
            point3f[] points = [(-0.3454061, -0.4526163, 0.6032358), (-0.34711927, -0.45261627, 0.5762593), (-0.25951436, -0.45261627, 0.59240574), (-0.27073234, -0.4526163, 0.61699885), (-0.34711933, -0.02341631, 0.5762594), (-0.34540614, -0.023416325, 0.60323584), (-0.25951442, -0.02341631, 0.5924058), (-0.2707324, -0.023416325, 0.6169989), (-0.2857663, -0.4897783, 0.27965105), (-0.2922319, -0.45261627, 0.27845937), (-0.2810139, -0.45261627, 0.25386623), (-0.20462696, -0.45261627, 0.2946058), (-0.21109255, -0.4897783, 0.29341415), (-0.20634016, -0.45261627, 0.26762933), (-0.28101397, -0.023416236, 0.25386629), (-0.29223195, -0.023416251, 0.27845943), (-0.28576636, 0.01374577, 0.2796511), (-0.20462702, -0.023416251, 0.29460585), (-0.20634021, -0.023416236, 0.26762938), (-0.2110926, 0.01374577, 0.2934142), (-0.22925815, -0.023416296, 0.42824608), (-0.23174284, 0.01374571, 0.40545547), (-0.31288218, -0.023416296, 0.39050072), (-0.3064166, 0.01374571, 0.39169237), (-0.22925809, -0.45261627, 0.42824602), (-0.23174278, -0.48977828, 0.4054554), (-0.31288213, -0.45261627, 0.39050066), (-0.30641654, -0.48977828, 0.39169234), (-0.34711927, -0.5503728, 0.5762593), (-0.3406537, -0.60446316, 0.577451), (-0.3454061, -0.5503728, 0.6032358), (-0.27073234, -0.5503728, 0.61699885), (-0.26597995, -0.60446316, 0.59121406), (-0.2595144, -0.5503728, 0.59240574), (-0.34065363, 0.014721528, 0.57745105), (-0.2659799, 0.014721528, 0.5912141), (-0.22925809, -0.5503727, 0.42824602), (-0.30641654, -0.60446316, 0.39169234), (-0.2317428, -0.60446316, 0.4054554), (-0.31288213, -0.5503727, 0.39050066), (-0.25771195, -0.5093848, 0.17060345), (-0.29627818, -0.47084737, 0.17060345), (-0.25771198, -0.47084737, 0.16263047), (-0.25771195, -0.5093848, 0.26268715), (-0.25771195, -0.47084737, 0.27066016), (-0.29627818, -0.47084737, 0.26268712), (-0.25771198, 0.0127758235, 0.17060345), (-0.25771198, -0.025761634, 0.16263044), (-0.29627818, -0.025761649, 0.17060345), (-0.25771195, -0.025761649, 0.27066016), (-0.25771198, 0.0127758235, 0.26268715), (-0.2962782, -0.025761649, 0.26268715), (0.187706, -0.50938475, 0.17060351), (0.18770596, -0.4708473, 0.16263053), (0.2262722, -0.4708473, 0.17060351), (0.18770593, -0.4708473, 0.27066022), (0.187706, -0.50938475, 0.2626872), (0.22627214, -0.4708473, 0.26268718), (0.2262722, -0.025761575, 0.17060354), (0.18770593, -0.025761575, 0.16263053), (0.18770593, 0.012775913, 0.17060351), (0.18770596, -0.02576159, 0.27066022), (0.2262722, -0.02576159, 0.2626872), (0.18770593, 0.012775883, 0.2626872), (-0.4317516, -0.6650844, -0.010585934), (-0.43179637, -0.6558144, 0.16635934), (-0.43175203, 0.6987596, -0.010585934), (-0.4317968, 0.6894896, 0.16635934), (0.2659439, -0.6650843, -0.0105858445), (0.22386286, -0.6558143, 0.16635942), (0.2659435, 0.6987597, -0.010585785), (0.22386247, 0.68948966, 0.16635942), (-0.43179637, -0.5134416, 0.16635934), (-0.43179676, 0.54900086, 0.16635934), (0.22386244, 0.55947965, 0.16635942), (0.22386292, -0.5258044, 0.16635945), (-0.30091318, 0.6894896, 0.16635936), (-0.2907113, 0.6987596, -0.010585904), (-0.30091274, -0.65581435, 0.16635936), (-0.2907109, -0.66508436, -0.010585934), (-0.30091316, 0.54900086, 0.16635936), (-0.30091274, -0.51344156, 0.1663594), (-0.30091318, 0.68948954, 0.35826683), (-0.30091277, -0.6558144, 0.35826686), (-0.4317963, -0.6558144, 0.3582668), (-0.30091318, 0.5490008, 0.35889298), (-0.30091277, -0.51344156, 0.35889292), (-0.43179634, -0.5134417, 0.35889292), (-0.43179676, 0.68948954, 0.35826683), (-0.43179673, 0.5490008, 0.35889295), (0.17321974, 0.6894896, 0.35826695), (0.22386244, 0.6894896, 0.30762422), (0.22386241, 0.5594796, 0.30762422), (0.17321977, 0.5594796, 0.35826695), (0.1732201, -0.52580446, 0.3582669), (0.22386286, -0.52580446, 0.30762422), (0.22386286, -0.6558143, 0.30762425), (0.17322013, -0.6558143, 0.35826692), (-0.43179634, -0.5134417, 0.395144), (-0.43179673, 0.5490008, 0.39514402), (-0.30091318, 0.5490008, 0.39514402), (-0.30091277, -0.51344156, 0.39514405), (-0.4709494, -0.5134417, 0.55464935), (-0.4709498, 0.5490008, 0.55464935), (-0.30091277, -0.61885643, 0.39514405), (-0.43179634, -0.61885655, 0.39514402), (-0.30091316, 0.65441567, 0.39514405), (-0.43179673, 0.65441567, 0.39514405), (-0.4709494, -0.61885655, 0.55464935), (-0.47094983, 0.65441567, 0.55464935), (-0.38837183, -0.5134416, 0.56790465), (-0.33423167, -0.51344156, 0.5287415), (-0.3342321, 0.5490008, 0.5287415), (-0.38837218, 0.5490008, 0.5679047), (-0.33423167, -0.61885643, 0.5287414), (-0.38837183, -0.6188565, 0.56790465), (-0.3883722, 0.65441567, 0.56790465), (-0.3342321, 0.65441567, 0.5287415), (-0.34540653, 0.4873461, 0.6032358), (-0.34711972, 0.4873461, 0.5762593), (-0.25951484, 0.4873461, 0.59240574), (-0.2707328, 0.4873461, 0.61699885), (-0.34711978, 0.058146223, 0.5762593), (-0.3454066, 0.058146223, 0.60323584), (-0.2595149, 0.058146223, 0.5924058), (-0.27073285, 0.058146223, 0.6169989), (-0.28576678, 0.5245081, 0.27965105), (-0.29223236, 0.48734605, 0.27845937), (-0.28101438, 0.48734605, 0.25386623), (-0.20462744, 0.487346, 0.2946058), (-0.21109301, 0.5245081, 0.29341415), (-0.20634063, 0.48734605, 0.26762933), (-0.28101444, 0.058146045, 0.25386626), (-0.29223242, 0.058146045, 0.27845943), (-0.28576684, 0.020984128, 0.2796511), (-0.20462748, 0.058146045, 0.29460585), (-0.20634069, 0.058146045, 0.26762936), (-0.21109307, 0.020984128, 0.2934142), (-0.22925861, 0.058146194, 0.42824608), (-0.23174332, 0.020984098, 0.40545547), (-0.31288263, 0.058146194, 0.3905007), (-0.30641705, 0.020984158, 0.39169237), (-0.22925855, 0.48734605, 0.42824602), (-0.23174325, 0.52450806, 0.4054554), (-0.31288257, 0.4873461, 0.39050066), (-0.306417, 0.52450806, 0.39169234), (-0.34711975, 0.58510256, 0.5762593), (-0.34065413, 0.63919294, 0.577451), (-0.34540653, 0.58510256, 0.6032357), (-0.27073282, 0.58510256, 0.61699885), (-0.26598042, 0.6391929, 0.59121406), (-0.25951484, 0.58510256, 0.59240574), (-0.34065408, 0.02000831, 0.577451), (-0.26598036, 0.02000831, 0.5912141), (-0.22925857, 0.5851025, 0.42824605), (-0.306417, 0.6391929, 0.39169234), (-0.23174326, 0.6391929, 0.4054554), (-0.3128826, 0.5851025, 0.39050066), (-0.25771242, 0.5424, 0.17060345), (-0.29627863, 0.50386256, 0.17060345), (-0.25771242, 0.50386256, 0.16263047), (-0.25771242, 0.54239994, 0.26268715), (-0.25771242, 0.5038625, 0.27066016), (-0.29627866, 0.5038625, 0.26268715), (-0.25771242, 0.020239308, 0.17060348), (-0.25771245, 0.05877675, 0.16263044), (-0.29627866, 0.05877675, 0.17060348), (-0.25771242, 0.05877675, 0.27066016), (-0.25771245, 0.020239308, 0.26268715), (-0.29627866, 0.05877675, 0.26268712), (0.2651966, 0.54239994, 0.17060348), (0.18770546, 0.50386244, 0.16263053), (0.33706096, 0.50386244, 0.17060351), (0.30671015, 0.5038625, 0.27066022), (0.26519653, 0.54239994, 0.26268718), (0.26519653, 0.66268784, 0.26268718), (0.33706096, 0.05877669, 0.17060351), (0.18770543, 0.05877669, 0.1626305), (0.26519647, 0.020239249, 0.17060348), (0.2820861, 0.05877666, 0.27066016), (0.30671015, 0.6241504, 0.27066016), (0.2820861, 0.02023922, 0.26268718), (0.22386268, 0.0040831715, 0.16635942), (-0.30091298, 0.017779663, 0.16635936), (-0.43179655, 0.017779544, 0.39514402), (-0.30091298, 0.017779633, 0.39514405), (-0.4709496, 0.017779514, 0.55464935), (-0.388372, 0.017779544, 0.56790465), (-0.33423188, 0.017779574, 0.5287415), (-0.43179655, 0.017779574, 0.16635934), (-0.43179652, 0.017779544, 0.35889292), (-0.30091298, 0.017779633, 0.35889295), (-0.43175182, 0.016837582, -0.010585934), (0.26594368, 0.004083231, -0.010585815), (-0.2907111, 0.016837612, -0.010585874), (0.8520876, 0.6894896, 0.16635942), (0.89416873, 0.6987596, -0.010585755), (0.89416885, 0.004083261, -0.010585755), (0.852088, 0.0040831715, 0.16635945), (0.8187773, 0.50386244, 0.17060357), (0.7802111, 0.54239994, 0.17060351), (0.8187772, 0.5038625, 0.2626872), (0.780211, 0.5038625, 0.27066022), (0.780211, 0.020239249, 0.17060351), (0.8187772, 0.05877669, 0.17060354), (0.780211, 0.020239249, 0.2626872), (0.780211, 0.05877669, 0.27066022), (0.8187773, 0.05877669, 0.2626872), (0.780211, 0.6241504, 0.2706602), (0.7802111, 0.66268784, 0.17060351), (0.2651966, 0.66268784, 0.17060348), (0.780211, 0.66268784, 0.2626872), (0.8187772, 0.62415034, 0.17060357), (0.8187772, 0.6241504, 0.2626872)]
            uniform token subdivisionScheme = "none"
            custom string userProperties:blender:data_name = "Cube.007"
        }
    }

    def Scope "_materials"
    {
        def Material "Sofa_004"
        {
            token outputs:surface.connect = </root/_materials/Sofa_004/Principled_BSDF.outputs:surface>
            custom string userProperties:blender:data_name = "Sofa.004"

            def Shader "Principled_BSDF"
            {
                uniform token info:id = "UsdPreviewSurface"
                float inputs:clearcoat = 0
                float inputs:clearcoatRoughness = 0.03
                color3f inputs:diffuseColor = (0.8, 0.8, 0.8)
                color3f inputs:emissiveColor = (0, 0, 0)
                float inputs:ior = 1.5
                float inputs:metallic = 0
                float inputs:opacity = 1
                float inputs:roughness = 0.5527864
                float inputs:specular = 1
                token outputs:surface
            }
        }
    }
}

