#usda 1.0
(
    defaultPrim = "root"
    doc = "Blender v5.1.2"
    metersPerUnit = 1
    upAxis = "Y"
)

def Xform "root" (
    customData = {
        dictionary Blender = {
            bool generated = 1
        }
    }
)
{
    float3 xformOp:rotateXYZ = (-90, -0, 0)
    uniform token[] xformOpOrder = ["xformOp:rotateXYZ"]

    def Xform "Mushroom_1"
    {
        custom string userProperties:blender:object_name = "Mushroom_1"

        def Mesh "Cube_008" (
            active = true
            prepend apiSchemas = ["MaterialBindingAPI"]
        )
        {
            uniform bool doubleSided = 1
            float3[] extent = [(-0.053259835, -0.0534267, 0.0004788544), (0.055239726, 0.055072844, 0.11911764)]
            int[] faceVertexCounts = [4, 4, 4, 4, 4, 4, 4, 4, 4, 4, 4, 4, 4, 4, 4, 4, 4, 4, 4, 4, 4, 4, 4, 4, 4, 4, 4, 4, 4, 4, 4, 4, 4, 4, 4, 4, 4, 4, 4, 4, 4, 4, 4, 4, 4, 4, 4, 4, 4, 4, 4, 4, 4, 4, 4, 4, 4, 4, 4, 4, 4, 4, 4, 4, 4, 4, 4, 4, 4, 4, 4, 4, 4, 4, 4, 4, 4, 4, 4, 4]
            int[] faceVertexIndices = [0, 41, 70, 23, 0, 23, 63, 24, 0, 24, 65, 35, 0, 35, 71, 41, 1, 40, 71, 35, 1, 35, 65, 27, 1, 27, 69, 36, 1, 36, 72, 40, 2, 39, 72, 36, 2, 36, 69, 30, 2, 30, 67, 37, 2, 37, 73, 39, 3, 38, 73, 37, 3, 37, 67, 33, 3, 33, 63, 23, 3, 23, 70, 38, 4, 22, 64, 26, 4, 26, 68, 29, 4, 29, 66, 32, 4, 32, 62, 22, 5, 47, 69, 27, 5, 27, 65, 46, 5, 46, 75, 43, 5, 43, 76, 47, 6, 32, 66, 31, 6, 31, 73, 38, 6, 38, 70, 34, 6, 34, 62, 32, 7, 29, 68, 28, 7, 28, 72, 39, 7, 39, 73, 31, 7, 31, 66, 29, 8, 26, 64, 25, 8, 25, 71, 40, 8, 40, 72, 28, 8, 28, 68, 26, 9, 22, 62, 34, 9, 34, 70, 41, 9, 41, 71, 25, 9, 25, 64, 22, 18, 60, 56, 17, 17, 53, 78, 58, 16, 57, 79, 51, 10, 48, 67, 30, 10, 30, 69, 47, 10, 47, 76, 44, 10, 44, 77, 48, 11, 46, 65, 24, 11, 24, 63, 49, 11, 49, 74, 42, 11, 42, 75, 46, 12, 49, 63, 33, 12, 33, 67, 48, 12, 48, 77, 45, 12, 45, 74, 49, 13, 52, 80, 51, 13, 51, 79, 50, 13, 50, 78, 53, 13, 53, 81, 52, 16, 51, 80, 59, 15, 59, 80, 52, 15, 52, 81, 56, 14, 58, 78, 50, 14, 50, 79, 57, 17, 56, 81, 53, 21, 14, 57, 61, 21, 54, 58, 14, 20, 15, 56, 60, 20, 55, 59, 15, 19, 16, 59, 55, 19, 61, 57, 16, 18, 17, 58, 54, 18, 54, 74, 45, 18, 45, 77, 60, 19, 55, 76, 43, 19, 43, 75, 61, 20, 60, 77, 44, 20, 44, 76, 55, 21, 61, 75, 42, 21, 42, 74, 54]
            rel material:binding = </root/_materials/Mushroom1>
            normal3f[] normals = [(0.2977716, -0.91756743, 0.26344308), (0.2977716, -0.91756743, 0.26344308), (0.2977716, -0.91756743, 0.26344308), (0.2977716, -0.91756743, 0.26344308), (0.29571578, -0.9112327, 0.2867178), (0.29571578, -0.9112327, 0.2867178), (0.29571578, -0.9112327, 0.2867178), (0.29571578, -0.9112327, 0.2867178), (-0.3101672, -0.9064156, 0.28671804), (-0.3101672, -0.9064156, 0.28671804), (-0.3101672, -0.9064156, 0.28671804), (-0.3101672, -0.9064156, 0.28671804), (-0.3123234, -0.9127167, 0.2634429), (-0.3123234, -0.9127167, 0.2634429), (-0.3123234, -0.9127167, 0.2634429), (-0.3123234, -0.9127167, 0.2634429), (-0.91756713, -0.2977718, 0.26344335), (-0.91756713, -0.2977718, 0.26344335), (-0.91756713, -0.2977718, 0.26344335), (-0.91756713, -0.2977718, 0.26344335), (-0.91123265, -0.29571623, 0.28671753), (-0.91123265, -0.29571623, 0.28671753), (-0.91123265, -0.29571623, 0.28671753), (-0.91123265, -0.29571623, 0.28671753), (-0.9064157, 0.31016704, 0.28671747), (-0.9064157, 0.31016704, 0.28671747), (-0.9064157, 0.31016704, 0.28671747), (-0.9064157, 0.31016704, 0.28671747), (-0.91271675, 0.3123233, 0.2634434), (-0.91271675, 0.3123233, 0.2634434), (-0.91271675, 0.3123233, 0.2634434), (-0.91271675, 0.3123233, 0.2634434), (-0.2977713, 0.91756773, 0.2634423), (-0.2977713, 0.91756773, 0.2634423), (-0.2977713, 0.91756773, 0.2634423), (-0.2977713, 0.91756773, 0.2634423), (-0.29571548, 0.91123253, 0.28671873), (-0.29571548, 0.91123253, 0.28671873), (-0.29571548, 0.91123253, 0.28671873), (-0.29571548, 0.91123253, 0.28671873), (0.31016675, 0.9064156, 0.28671828), (0.31016675, 0.9064156, 0.28671828), (0.31016675, 0.9064156, 0.28671828), (0.31016675, 0.9064156, 0.28671828), (0.3123229, 0.91271704, 0.26344264), (0.3123229, 0.91271704, 0.26344264), (0.3123229, 0.91271704, 0.26344264), (0.3123229, 0.91271704, 0.26344264), (0.9175672, 0.29777136, 0.2634435), (0.9175672, 0.29777136, 0.2634435), (0.9175672, 0.29777136, 0.2634435), (0.9175672, 0.29777136, 0.2634435), (0.91123277, 0.29571593, 0.2867174), (0.91123277, 0.29571593, 0.2867174), (0.91123277, 0.29571593, 0.2867174), (0.91123277, 0.29571593, 0.2867174), (0.9064156, -0.31016752, 0.2867174), (0.9064156, -0.31016752, 0.2867174), (0.9064156, -0.31016752, 0.2867174), (0.9064156, -0.31016752, 0.2867174), (0.91271657, -0.31232357, 0.26344344), (0.91271657, -0.31232357, 0.26344344), (0.91271657, -0.31232357, 0.26344344), (0.91271657, -0.31232357, 0.26344344), (-0.10853788, -0.106825754, -0.98833585), (-0.10853788, -0.106825754, -0.98833585), (-0.10853788, -0.106825754, -0.98833585), (-0.10853788, -0.106825754, -0.98833585), (-0.106825635, 0.10853765, -0.98833585), (-0.106825635, 0.10853765, -0.98833585), (-0.106825635, 0.10853765, -0.98833585), (-0.106825635, 0.10853765, -0.98833585), (0.10853789, 0.10682542, -0.9883359), (0.10853789, 0.10682542, -0.9883359), (0.10853789, 0.10682542, -0.9883359), (0.10853789, 0.10682542, -0.9883359), (0.10682564, -0.10853802, -0.98833585), (0.10682564, -0.10853802, -0.98833585), (0.10682564, -0.10853802, -0.98833585), (0.10682564, -0.10853802, -0.98833585), (-0.88354796, 0.30234185, -0.3576764), (-0.88354796, 0.30234185, -0.3576764), (-0.88354796, 0.30234185, -0.3576764), (-0.88354796, 0.30234185, -0.3576764), (-0.8882435, -0.28825572, -0.35767594), (-0.8882435, -0.28825572, -0.35767594), (-0.8882435, -0.28825572, -0.35767594), (-0.8882435, -0.28825572, -0.35767594), (-0.8612196, -0.27948552, -0.42448637), (-0.8612196, -0.27948552, -0.42448637), (-0.8612196, -0.27948552, -0.42448637), (-0.8612196, -0.27948552, -0.42448637), (-0.85666746, 0.2931436, -0.4244852), (-0.85666746, 0.2931436, -0.4244852), (-0.85666746, 0.2931436, -0.4244852), (-0.85666746, 0.2931436, -0.4244852), (0.39940396, 0.15040487, -0.90435326), (0.39940396, 0.15040487, -0.90435326), (0.39940396, 0.15040487, -0.90435326), (0.39940396, 0.15040487, -0.90435326), (0.8864144, 0.28766158, -0.36265743), (0.8864144, 0.28766158, -0.36265743), (0.8864144, 0.28766158, -0.36265743), (0.8864144, 0.28766158, -0.36265743), (0.88172835, -0.30171967, -0.36265722), (0.88172835, -0.30171967, -0.36265722), (0.88172835, -0.30171967, -0.36265722), (0.88172835, -0.30171967, -0.36265722), (0.3969617, -0.15673663, -0.90435344), (0.3969617, -0.15673663, -0.90435344), (0.3969617, -0.15673663, -0.90435344), (0.3969617, -0.15673663, -0.90435344), (-0.15040493, 0.39940405, -0.9043532), (-0.15040493, 0.39940405, -0.9043532), (-0.15040493, 0.39940405, -0.9043532), (-0.15040493, 0.39940405, -0.9043532), (-0.28766155, 0.886415, -0.36265576), (-0.28766155, 0.886415, -0.36265576), (-0.28766155, 0.886415, -0.36265576), (-0.28766155, 0.886415, -0.36265576), (0.30171916, 0.88172895, -0.36265624), (0.30171916, 0.88172895, -0.36265624), (0.30171916, 0.88172895, -0.36265624), (0.30171916, 0.88172895, -0.36265624), (0.15673654, 0.3969622, -0.90435314), (0.15673654, 0.3969622, -0.90435314), (0.15673654, 0.3969622, -0.90435314), (0.15673654, 0.3969622, -0.90435314), (-0.399404, -0.15040492, -0.90435326), (-0.399404, -0.15040492, -0.90435326), (-0.399404, -0.15040492, -0.90435326), (-0.399404, -0.15040492, -0.90435326), (-0.88641435, -0.28766197, -0.36265713), (-0.88641435, -0.28766197, -0.36265713), (-0.88641435, -0.28766197, -0.36265713), (-0.88641435, -0.28766197, -0.36265713), (-0.88172865, 0.30171937, -0.3626572), (-0.88172865, 0.30171937, -0.3626572), (-0.88172865, 0.30171937, -0.3626572), (-0.88172865, 0.30171937, -0.3626572), (-0.39696226, 0.15673621, -0.90435314), (-0.39696226, 0.15673621, -0.90435314), (-0.39696226, 0.15673621, -0.90435314), (-0.39696226, 0.15673621, -0.90435314), (0.1504048, -0.39940357, -0.9043535), (0.1504048, -0.39940357, -0.9043535), (0.1504048, -0.39940357, -0.9043535), (0.1504048, -0.39940357, -0.9043535), (0.28766176, -0.8864145, -0.36265674), (0.28766176, -0.8864145, -0.36265674), (0.28766176, -0.8864145, -0.36265674), (0.28766176, -0.8864145, -0.36265674), (-0.30171958, -0.88172865, -0.36265656), (-0.30171958, -0.88172865, -0.36265656), (-0.30171958, -0.88172865, -0.36265656), (-0.30171958, -0.88172865, -0.36265656), (-0.15673634, -0.39696166, -0.90435344), (-0.15673634, -0.39696166, -0.90435344), (-0.15673634, -0.39696166, -0.90435344), (-0.15673634, -0.39696166, -0.90435344), (0.949839, 0.30824444, 0.05283298), (0.949839, 0.30824444, 0.05283298), (0.949839, 0.30824444, 0.05283298), (0.949839, 0.30824444, 0.05283298), (0.74153584, -0.28172252, 0.6088982), (0.74153584, -0.28172252, 0.6088982), (0.74153584, -0.28172252, 0.6088982), (0.74153584, -0.28172252, 0.6088982), (-0.74592173, -0.26989618, 0.60889804), (-0.74592173, -0.26989618, 0.60889804), (-0.74592173, -0.26989618, 0.60889804), (-0.74592173, -0.26989618, 0.60889804), (0.302341, 0.8835484, -0.35767618), (0.302341, 0.8835484, -0.35767618), (0.302341, 0.8835484, -0.35767618), (0.302341, 0.8835484, -0.35767618), (-0.28825435, 0.88824373, -0.3576764), (-0.28825435, 0.88824373, -0.3576764), (-0.28825435, 0.88824373, -0.3576764), (-0.28825435, 0.88824373, -0.3576764), (-0.27948567, 0.8612201, -0.42448497), (-0.27948567, 0.8612201, -0.42448497), (-0.27948567, 0.8612201, -0.42448497), (-0.27948567, 0.8612201, -0.42448497), (0.29314372, 0.8566673, -0.42448545), (0.29314372, 0.8566673, -0.42448545), (0.29314372, 0.8566673, -0.42448545), (0.29314372, 0.8566673, -0.42448545), (-0.30234212, -0.8835482, -0.35767558), (-0.30234212, -0.8835482, -0.35767558), (-0.30234212, -0.8835482, -0.35767558), (-0.30234212, -0.8835482, -0.35767558), (0.28825557, -0.888244, -0.35767487), (0.28825557, -0.888244, -0.35767487), (0.28825557, -0.888244, -0.35767487), (0.28825557, -0.888244, -0.35767487), (0.2794852, -0.8612193, -0.42448723), (0.2794852, -0.8612193, -0.42448723), (0.2794852, -0.8612193, -0.42448723), (0.2794852, -0.8612193, -0.42448723), (-0.29314336, -0.85666674, -0.4244869), (-0.29314336, -0.85666674, -0.4244869), (-0.29314336, -0.85666674, -0.4244869), (-0.29314336, -0.85666674, -0.4244869), (0.8835482, -0.3023426, -0.35767525), (0.8835482, -0.3023426, -0.35767525), (0.8835482, -0.3023426, -0.35767525), (0.8835482, -0.3023426, -0.35767525), (0.888244, 0.288255, -0.35767552), (0.888244, 0.288255, -0.35767552), (0.888244, 0.288255, -0.35767552), (0.888244, 0.288255, -0.35767552), (0.86122006, 0.2794857, -0.42448512), (0.86122006, 0.2794857, -0.42448512), (0.86122006, 0.2794857, -0.42448512), (0.86122006, 0.2794857, -0.42448512), (0.85666686, -0.29314387, -0.42448604), (0.85666686, -0.29314387, -0.42448604), (0.85666686, -0.29314387, -0.42448604), (0.85666686, -0.29314387, -0.42448604), (-0.23011051, 0.23379853, 0.9446626), (-0.23011051, 0.23379853, 0.9446626), (-0.23011051, 0.23379853, 0.9446626), (-0.23011051, 0.23379853, 0.9446626), (-0.23379868, -0.23011057, 0.94466263), (-0.23379868, -0.23011057, 0.94466263), (-0.23379868, -0.23011057, 0.94466263), (-0.23379868, -0.23011057, 0.94466263), (0.23011026, -0.23379901, 0.9446625), (0.23011026, -0.23379901, 0.9446625), (0.23011026, -0.23379901, 0.9446625), (0.23011026, -0.23379901, 0.9446625), (0.2337989, 0.23011033, 0.9446626), (0.2337989, 0.23011033, 0.9446626), (0.2337989, 0.23011033, 0.9446626), (0.2337989, 0.23011033, 0.9446626), (-0.7415361, 0.281722, 0.6088981), (-0.7415361, 0.281722, 0.6088981), (-0.7415361, 0.281722, 0.6088981), (-0.7415361, 0.281722, 0.6088981), (-0.2698961, 0.7459213, 0.6088985), (-0.2698961, 0.7459213, 0.6088985), (-0.2698961, 0.7459213, 0.6088985), (-0.2698961, 0.7459213, 0.6088985), (0.2817225, 0.74153566, 0.60889846), (0.2817225, 0.74153566, 0.60889846), (0.2817225, 0.74153566, 0.60889846), (0.2817225, 0.74153566, 0.60889846), (0.26989618, -0.7459213, 0.6088984), (0.26989618, -0.7459213, 0.6088984), (0.26989618, -0.7459213, 0.6088984), (0.26989618, -0.7459213, 0.6088984), (-0.2817222, -0.74153584, 0.6088984), (-0.2817222, -0.74153584, 0.6088984), (-0.2817222, -0.74153584, 0.6088984), (-0.2817222, -0.74153584, 0.6088984), (0.74592143, 0.26989627, 0.6088984), (0.74592143, 0.26989627, 0.6088984), (0.74592143, 0.26989627, 0.6088984), (0.74592143, 0.26989627, 0.6088984), (-0.32330805, -0.9448178, 0.052832138), (-0.32330805, -0.9448178, 0.052832138), (-0.32330805, -0.9448178, 0.052832138), (-0.32330805, -0.9448178, 0.052832138), (0.30824447, -0.94983894, 0.052832697), (0.30824447, -0.94983894, 0.052832697), (0.30824447, -0.94983894, 0.052832697), (0.30824447, -0.94983894, 0.052832697), (0.32330787, 0.9448178, 0.052832726), (0.32330787, 0.9448178, 0.052832726), (0.32330787, 0.9448178, 0.052832726), (0.32330787, 0.9448178, 0.052832726), (-0.3082444, 0.94983906, 0.052832007), (-0.3082444, 0.94983906, 0.052832007), (-0.3082444, 0.94983906, 0.052832007), (-0.3082444, 0.94983906, 0.052832007), (-0.9448179, 0.32330766, 0.052833077), (-0.9448179, 0.32330766, 0.052833077), (-0.9448179, 0.32330766, 0.052833077), (-0.9448179, 0.32330766, 0.052833077), (-0.94983894, -0.3082445, 0.052832738), (-0.94983894, -0.3082445, 0.052832738), (-0.94983894, -0.3082445, 0.052832738), (-0.94983894, -0.3082445, 0.052832738), (0.9448177, -0.32330814, 0.05283212), (0.9448177, -0.32330814, 0.05283212), (0.9448177, -0.32330814, 0.05283212), (0.9448177, -0.32330814, 0.05283212), (0.33413732, -0.11433904, -0.9355633), (0.33413732, -0.11433904, -0.9355633), (0.33413732, -0.11433904, -0.9355633), (0.33413732, -0.11433904, -0.9355633), (0.33591324, 0.10901155, -0.9355633), (0.33591324, 0.10901155, -0.9355633), (0.33591324, 0.10901155, -0.9355633), (0.33591324, 0.10901155, -0.9355633), (-0.33413726, 0.11433885, -0.93556345), (-0.33413726, 0.11433885, -0.93556345), (-0.33413726, 0.11433885, -0.93556345), (-0.33413726, 0.11433885, -0.93556345), (-0.3359136, -0.10901171, -0.93556327), (-0.3359136, -0.10901171, -0.93556327), (-0.3359136, -0.10901171, -0.93556327), (-0.3359136, -0.10901171, -0.93556327), (0.114338934, 0.3341373, -0.9355634), (0.114338934, 0.3341373, -0.9355634), (0.114338934, 0.3341373, -0.9355634), (0.114338934, 0.3341373, -0.9355634), (-0.109011404, 0.33591303, -0.9355634), (-0.109011404, 0.33591303, -0.9355634), (-0.109011404, 0.33591303, -0.9355634), (-0.109011404, 0.33591303, -0.9355634), (-0.11433895, -0.33413762, -0.9355633), (-0.11433895, -0.33413762, -0.9355633), (-0.11433895, -0.33413762, -0.9355633), (-0.11433895, -0.33413762, -0.9355633), (0.109011516, -0.33591333, -0.9355633), (0.109011516, -0.33591333, -0.9355633), (0.109011516, -0.33591333, -0.9355633), (0.109011516, -0.33591333, -0.9355633)] (
                interpolation = "faceVarying"
            )
            point3f[] points = [(0.0007098151, -0.034411103, 0.035640053), (-0.03424422, 0.0011031962, 0.035640053), (0.0012700773, 0.03605727, 0.035640053), (0.036224134, 0.00054293405, 0.035640053), (0.000989946, 0.00082306523, 0.0004788544), (-0.03323591, 0.0010951796, 0.059918042), (0.036224134, 0.00054293405, 0.009098239), (0.0012700773, 0.03605727, 0.009098239), (-0.03424422, 0.0011031962, 0.009098239), (0.0007098151, -0.034411103, 0.009098239), (0.0012620604, 0.035048924, 0.059918042), (0.0007178318, -0.033402774, 0.059918042), (0.03521581, 0.0005509508, 0.059918042), (0.0009899458, 0.00082305924, 0.11911764), (0.00056385587, -0.052769404, 0.08624933), (0.0014160353, 0.054415587, 0.08624933), (-0.052602533, 0.0012491542, 0.08624933), (0.054582432, 0.00039697488, 0.08624933), (0.055239726, 0.00039174798, 0.07446257), (-0.053259835, 0.0012543792, 0.07446257), (0.0014212613, 0.055072844, 0.07446257), (0.00055863033, -0.0534267, 0.07446257), (0.0008155421, -0.021113014, 0.002633702), (0.027205473, -0.025812658, 0.035640053), (0.00074751355, -0.029669482, 0.050670765), (-0.02564578, -0.025392462, 0.009098239), (-0.020946153, 0.0009974693, 0.002633702), (-0.029502619, 0.0010654979, 0.050670765), (-0.02522558, 0.027458832, 0.009098239), (0.0011643504, 0.022759208, 0.002633702), (0.0012323787, 0.031315632, 0.050670765), (0.027625667, 0.027038632, 0.009098239), (0.022926047, 0.00064866117, 0.002633702), (0.031482514, 0.00058063254, 0.050670765), (0.027205473, -0.025812658, 0.009098239), (-0.02564578, -0.025392462, 0.035640053), (-0.02522558, 0.027458832, 0.035640053), (0.027625667, 0.027038632, 0.035640053), (0.04071368, 0.0005072397, 0.020043388), (0.0013057716, 0.040546797, 0.020043388), (-0.038733788, 0.0011388906, 0.020043388), (0.00067412073, -0.03890065, 0.020043388), (0.0006826321, -0.03783, 0.06887703), (-0.037663132, 0.0011303764, 0.06887703), (0.0012972587, 0.039476175, 0.06887703), (0.039643023, 0.00051575, 0.06887703), (-0.024883537, -0.024642223, 0.059918042), (-0.024475368, 0.02669659, 0.059918042), (0.02686343, 0.026288418, 0.059918042), (0.026455255, -0.025050394, 0.059918042), (0.00071627495, -0.033598576, 0.11150849), (-0.033431716, 0.0010967304, 0.11150849), (0.0012636171, 0.035244726, 0.11150849), (0.03541161, 0.0005493881, 0.11150849), (0.041353792, -0.040187743, 0.07446257), (-0.039373904, 0.04183393, 0.07446257), (0.041503865, 0.040697847, 0.08624933), (-0.039523974, -0.0390517, 0.08624933), (0.040864732, -0.039690834, 0.08624933), (-0.03888484, 0.041336987, 0.08624933), (0.04200077, 0.04118696, 0.07446257), (-0.04002088, -0.039540768, 0.07446257), (0.018429376, -0.016895877, 0.004309695), (0.023677545, -0.022228163, 0.050670765), (-0.016729016, -0.016616346, 0.004309695), (-0.02206128, -0.021864515, 0.050670765), (0.018708907, 0.018262539, 0.004309695), (0.024041193, 0.023510683, 0.050670765), (-0.016449489, 0.018542066, 0.004309695), (-0.021697633, 0.023874331, 0.050670765), (0.03054588, -0.029206583, 0.020043388), (-0.029039701, -0.028732846, 0.020043388), (-0.028565962, 0.030852756, 0.020043388), (0.031019619, 0.030379018, 0.020043388), (0.029749261, -0.028397223, 0.06887704), (-0.028230341, -0.027936252, 0.06887704), (-0.02776937, 0.030043347, 0.06887704), (0.03021023, 0.029582376, 0.06887704), (0.028315151, -0.026940098, 0.105590254), (-0.026773272, -0.026502114, 0.105590254), (-0.02633529, 0.028586278, 0.105590254), (0.028753133, 0.028148292, 0.105590254)]
            uniform token subdivisionScheme = "none"
            uniform token subsetFamily:materialBind:familyType = "nonOverlapping"
            custom string userProperties:blender:data_name = "Cube.008"

            def GeomSubset "Mushroom1" (
                prepend apiSchemas = ["MaterialBindingAPI"]
            )
            {
                uniform token elementType = "face"
                uniform token familyName = "materialBind"
                int[] indices = [0, 1, 2, 3, 4, 5, 6, 7, 8, 9, 10, 11, 12, 13, 14, 15, 16, 17, 18, 19, 20, 21, 22, 23, 24, 25, 26, 27, 28, 29, 30, 31, 32, 33, 34, 35, 36, 37, 38, 39, 43, 44, 45, 46, 47, 48, 49, 50, 51, 52, 53, 54]
                rel material:binding = </root/_materials/Mushroom1>
            }

            def GeomSubset "Red" (
                prepend apiSchemas = ["MaterialBindingAPI"]
            )
            {
                uniform token elementType = "face"
                uniform token familyName = "materialBind"
                int[] indices = [40, 41, 42, 55, 56, 57, 58, 59, 60, 61, 62, 63, 64, 65, 66, 67, 68, 69, 70, 71, 72, 73, 74, 75, 76, 77, 78, 79]
                rel material:binding = </root/_materials/Red>
            }
        }
    }

    def Scope "_materials"
    {
        def Material "Mushroom1"
        {
            token outputs:surface.connect = </root/_materials/Mushroom1/Principled_BSDF.outputs:surface>
            custom string userProperties:blender:data_name = "Mushroom1"

            def Shader "Principled_BSDF"
            {
                uniform token info:id = "UsdPreviewSurface"
                float inputs:clearcoat = 0
                float inputs:clearcoatRoughness = 0.03
                color3f inputs:diffuseColor = (0.44797465, 0.42662844, 0.33506352)
                float inputs:ior = 1.5
                float inputs:metallic = 0
                float inputs:opacity = 1
                float inputs:roughness = 0.6900348
                float inputs:specular = 0.5
                token outputs:surface
            }
        }

        def Material "Red"
        {
            token outputs:surface.connect = </root/_materials/Red/Principled_BSDF.outputs:surface>
            custom string userProperties:blender:data_name = "Red"

            def Shader "Principled_BSDF"
            {
                uniform token info:id = "UsdPreviewSurface"
                float inputs:clearcoat = 0
                float inputs:clearcoatRoughness = 0.03
                color3f inputs:diffuseColor = (0.16794623, 0.04252471, 0.017704226)
                float inputs:ior = 1.5
                float inputs:metallic = 0
                float inputs:opacity = 1
                float inputs:roughness = 0.6900348
                float inputs:specular = 0.5
                token outputs:surface
            }
        }
    }
}

