#usda 1.0
(
    defaultPrim = "root"
    doc = "Blender v5.1.2"
    metersPerUnit = 1
    upAxis = "Y"
)

def Xform "root" (
    customData = {
        dictionary Blender = {
            bool generated = 1
        }
    }
)
{
    float3 xformOp:rotateXYZ = (-90, -0, 0)
    uniform token[] xformOpOrder = ["xformOp:rotateXYZ"]

    def Xform "Rice_2"
    {
        custom string userProperties:blender:object_name = "Rice_2"

        def Mesh "Plane_005" (
            active = true
            prepend apiSchemas = ["MaterialBindingAPI"]
        )
        {
            uniform bool doubleSided = 1
            float3[] extent = [(-0.16461334, -0.066477, -0.015083873), (0.09005037, 0.060733467, 0.5496704)]
            int[] faceVertexCounts = [4, 4, 4, 4, 3, 4, 4, 4, 4, 4, 3, 4, 4, 4, 4, 3, 4, 4, 4, 4, 4, 3, 4, 4, 4, 4, 4, 4, 4, 4, 4, 4, 4, 4, 4, 4, 4, 4, 4, 4, 4, 4, 4, 4, 4, 4, 4, 4, 4, 4, 4, 4, 4, 4, 4, 4, 4, 4, 4, 4, 4, 4, 3, 4, 4, 4, 4, 3, 4, 4, 4, 4, 4, 4, 4, 4, 4, 4, 4, 4, 4, 4, 4, 3, 4, 4, 4, 4, 4, 3, 4, 4, 4, 4, 3, 4, 4, 4, 4, 4, 3, 4, 4, 4, 4, 4, 4, 4, 4, 4, 4, 4, 4, 4, 4, 4, 4, 4, 4, 4, 4, 4, 4, 4, 4, 4, 4, 4, 4, 4, 4, 4, 3, 4, 4, 4, 4, 3, 4, 4, 4, 4, 4, 4, 4, 4, 4, 4, 4, 4, 4, 4, 4]
            int[] faceVertexIndices = [0, 1, 3, 2, 0, 2, 5, 4, 4, 5, 7, 6, 6, 7, 9, 8, 8, 9, 10, 3, 1, 11, 12, 13, 14, 16, 15, 13, 15, 18, 17, 17, 18, 20, 19, 19, 20, 22, 21, 21, 22, 23, 24, 26, 27, 25, 24, 28, 29, 26, 28, 30, 31, 29, 30, 32, 33, 31, 32, 34, 33, 27, 36, 35, 25, 37, 39, 40, 38, 37, 41, 42, 39, 41, 43, 44, 42, 43, 45, 46, 44, 45, 47, 46, 1, 0, 24, 25, 2, 3, 27, 26, 0, 4, 28, 24, 5, 2, 26, 29, 4, 6, 30, 28, 7, 5, 29, 31, 6, 8, 32, 30, 9, 7, 31, 33, 8, 10, 34, 32, 10, 9, 33, 34, 12, 11, 48, 49, 3, 12, 36, 27, 11, 1, 25, 35, 14, 13, 37, 38, 16, 14, 38, 40, 15, 16, 40, 39, 13, 17, 41, 37, 18, 15, 39, 42, 17, 19, 43, 41, 20, 18, 42, 44, 19, 21, 45, 43, 22, 20, 44, 46, 21, 23, 47, 45, 23, 22, 46, 47, 48, 50, 54, 52, 35, 36, 51, 50, 11, 35, 50, 48, 36, 12, 49, 51, 53, 52, 56, 57, 49, 48, 52, 53, 51, 49, 53, 55, 50, 51, 55, 54, 57, 56, 58, 59, 55, 53, 57, 59, 54, 55, 59, 58, 52, 54, 58, 56, 60, 61, 63, 62, 60, 62, 65, 64, 64, 65, 67, 66, 66, 67, 69, 68, 68, 69, 70, 71, 73, 74, 72, 71, 75, 76, 73, 75, 77, 78, 76, 77, 79, 80, 78, 79, 81, 80, 61, 60, 71, 72, 63, 61, 72, 74, 62, 63, 74, 73, 60, 64, 75, 71, 65, 62, 73, 76, 64, 66, 77, 75, 67, 65, 76, 78, 66, 68, 79, 77, 69, 67, 78, 80, 68, 70, 81, 79, 70, 69, 80, 81, 82, 83, 85, 84, 82, 84, 87, 86, 86, 87, 89, 88, 88, 89, 91, 90, 90, 91, 92, 85, 83, 93, 94, 95, 96, 98, 97, 95, 97, 100, 99, 99, 100, 102, 101, 101, 102, 104, 103, 103, 104, 105, 106, 108, 109, 107, 106, 110, 111, 108, 110, 112, 113, 111, 112, 114, 115, 113, 114, 116, 115, 109, 118, 117, 107, 119, 121, 122, 120, 119, 123, 124, 121, 123, 125, 126, 124, 125, 127, 128, 126, 127, 129, 128, 83, 82, 106, 107, 84, 85, 109, 108, 82, 86, 110, 106, 87, 84, 108, 111, 86, 88, 112, 110, 89, 87, 111, 113, 88, 90, 114, 112, 91, 89, 113, 115, 90, 92, 116, 114, 92, 91, 115, 116, 94, 93, 130, 131, 85, 94, 118, 109, 93, 83, 107, 117, 96, 95, 119, 120, 98, 96, 120, 122, 97, 98, 122, 121, 95, 99, 123, 119, 100, 97, 121, 124, 99, 101, 125, 123, 102, 100, 124, 126, 101, 103, 127, 125, 104, 102, 126, 128, 103, 105, 129, 127, 105, 104, 128, 129, 117, 118, 133, 132, 93, 117, 132, 130, 118, 94, 131, 133, 134, 135, 137, 136, 134, 136, 139, 138, 138, 139, 141, 140, 140, 141, 143, 142, 142, 143, 144, 145, 147, 148, 146, 145, 149, 150, 147, 149, 151, 152, 150, 151, 153, 154, 152, 153, 155, 154, 135, 134, 145, 146, 137, 135, 146, 148, 136, 137, 148, 147, 134, 138, 149, 145, 139, 136, 147, 150, 138, 140, 151, 149, 141, 139, 150, 152, 140, 142, 153, 151, 143, 141, 152, 154, 142, 144, 155, 153, 144, 143, 154, 155, 130, 132, 158, 156, 131, 130, 156, 157, 133, 131, 157, 159, 132, 133, 159, 158]
            rel material:binding = </root/_materials/Green>
            normal3f[] normals = [(-0.92224896, -0.25472844, -0.29080978), (-0.92224896, -0.25472844, -0.29080978), (-0.92224896, -0.25472844, -0.29080978), (-0.92224896, -0.25472844, -0.29080978), (-0.8738684, -0.24824639, -0.4180046), (-0.8738684, -0.24824639, -0.4180046), (-0.8738684, -0.24824639, -0.4180046), (-0.8738684, -0.24824639, -0.4180046), (-0.7826158, -0.2270074, -0.579638), (-0.7826158, -0.2270074, -0.579638), (-0.7826158, -0.2270074, -0.579638), (-0.7826158, -0.2270074, -0.579638), (-0.62676144, -0.2127642, -0.7496009), (-0.62676144, -0.2127642, -0.7496009), (-0.62676144, -0.2127642, -0.7496009), (-0.62676144, -0.2127642, -0.7496009), (-0.47656274, -0.19340773, -0.8576022), (-0.47656274, -0.19340773, -0.8576022), (-0.47656274, -0.19340773, -0.8576022), (-0.9503888, -0.25634545, -0.17620543), (-0.9503888, -0.25634545, -0.17620543), (-0.9503888, -0.25634545, -0.17620543), (-0.9503888, -0.25634545, -0.17620543), (-0.9871592, 0.14296067, -0.071266696), (-0.9871592, 0.14296067, -0.071266696), (-0.9871592, 0.14296067, -0.071266696), (-0.9871592, 0.14296067, -0.071266696), (-0.9656368, 0.24819486, 0.07710288), (-0.9656368, 0.24819486, 0.07710288), (-0.9656368, 0.24819486, 0.07710288), (-0.9656368, 0.24819486, 0.07710288), (-0.938495, 0.22698295, 0.2602039), (-0.938495, 0.22698295, 0.2602039), (-0.938495, 0.22698295, 0.2602039), (-0.938495, 0.22698295, 0.2602039), (-0.85487413, 0.2129756, 0.4731085), (-0.85487413, 0.2129756, 0.4731085), (-0.85487413, 0.2129756, 0.4731085), (-0.85487413, 0.2129756, 0.4731085), (-0.757505, 0.19785272, 0.6221259), (-0.757505, 0.19785272, 0.6221259), (-0.757505, 0.19785272, 0.6221259), (0.9223007, 0.25440034, 0.290933), (0.9223007, 0.25440034, 0.290933), (0.9223007, 0.25440034, 0.290933), (0.9223007, 0.25440034, 0.290933), (0.8738647, 0.24793108, 0.41819945), (0.8738647, 0.24793108, 0.41819945), (0.8738647, 0.24793108, 0.41819945), (0.8738647, 0.24793108, 0.41819945), (0.78267795, 0.22680561, 0.57963306), (0.78267795, 0.22680561, 0.57963306), (0.78267795, 0.22680561, 0.57963306), (0.78267795, 0.22680561, 0.57963306), (0.6272885, 0.21406472, 0.7487893), (0.6272885, 0.21406472, 0.7487893), (0.6272885, 0.21406472, 0.7487893), (0.6272885, 0.21406472, 0.7487893), (0.47926277, 0.20084295, 0.8543824), (0.47926277, 0.20084295, 0.8543824), (0.47926277, 0.20084295, 0.8543824), (0.9504111, 0.25618404, 0.17631915), (0.9504111, 0.25618404, 0.17631915), (0.9504111, 0.25618404, 0.17631915), (0.9504111, 0.25618404, 0.17631915), (0.9871488, -0.14291331, 0.07150552), (0.9871488, -0.14291331, 0.07150552), (0.9871488, -0.14291331, 0.07150552), (0.9871488, -0.14291331, 0.07150552), (0.9657191, -0.24793054, -0.07692219), (0.9657191, -0.24793054, -0.07692219), (0.9657191, -0.24793054, -0.07692219), (0.9657191, -0.24793054, -0.07692219), (0.9385049, -0.2268057, -0.2603222), (0.9385049, -0.2268057, -0.2603222), (0.9385049, -0.2268057, -0.2603222), (0.9385049, -0.2268057, -0.2603222), (0.8541325, -0.21406156, -0.47395706), (0.8541325, -0.21406156, -0.47395706), (0.8541325, -0.21406156, -0.47395706), (0.8541325, -0.21406156, -0.47395706), (0.7538434, -0.20083286, -0.6256088), (0.7538434, -0.20083286, -0.6256088), (0.7538434, -0.20083286, -0.6256088), (0.25966913, 0.9656242, 0.011912457), (0.25966913, 0.9656242, 0.011912457), (0.25966913, 0.9656242, 0.011912457), (0.25966913, 0.9656242, 0.011912457), (-0.19913642, -0.9643145, -0.17447717), (-0.19913642, -0.9643145, -0.17447717), (-0.19913642, -0.9643145, -0.17447717), (-0.19913642, -0.9643145, -0.17447717), (0.20751433, 0.97066665, 0.12142547), (0.20751433, 0.97066665, 0.12142547), (0.20751433, 0.97066665, 0.12142547), (0.20751433, 0.97066665, 0.12142547), (-0.16215532, -0.96867216, -0.18809554), (-0.16215532, -0.96867216, -0.18809554), (-0.16215532, -0.96867216, -0.18809554), (-0.16215532, -0.96867216, -0.18809554), (0.13422178, 0.9734466, 0.18543509), (0.13422178, 0.9734466, 0.18543509), (0.13422178, 0.9734466, 0.18543509), (0.13422178, 0.9734466, 0.18543509), (-0.2202493, -0.97243315, -0.076576374), (-0.2202493, -0.97243315, -0.076576374), (-0.2202493, -0.97243315, -0.076576374), (-0.2202493, -0.97243315, -0.076576374), (-0.051217087, 0.95976543, 0.27609265), (-0.051217087, 0.95976543, 0.27609265), (-0.051217087, 0.95976543, 0.27609265), (-0.051217087, 0.95976543, 0.27609265), (-0.206524, -0.97568786, -0.07335555), (-0.206524, -0.97568786, -0.07335555), (-0.206524, -0.97568786, -0.07335555), (-0.206524, -0.97568786, -0.07335555), (-0.28937417, 0.90679103, 0.30658233), (-0.28937417, 0.90679103, 0.30658233), (-0.28937417, 0.90679103, 0.30658233), (-0.28937417, 0.90679103, 0.30658233), (-0.25857306, -0.9652806, -0.037057206), (-0.25857306, -0.9652806, -0.037057206), (-0.25857306, -0.9652806, -0.037057206), (-0.25857306, -0.9652806, -0.037057206), (-0.9577905, -0.25591394, -0.13094044), (-0.9577905, -0.25591394, -0.13094044), (-0.9577905, -0.25591394, -0.13094044), (-0.9577905, -0.25591394, -0.13094044), (-0.24813788, -0.9676304, -0.046034), (-0.24813788, -0.9676304, -0.046034), (-0.24813788, -0.9676304, -0.046034), (-0.24813788, -0.9676304, -0.046034), (0.24813648, 0.9676307, 0.04603382), (0.24813648, 0.9676307, 0.04603382), (0.24813648, 0.9676307, 0.04603382), (0.24813648, 0.9676307, 0.04603382), (0.2934263, 0.9543498, -0.055835363), (0.2934263, 0.9543498, -0.055835363), (0.2934263, 0.9543498, -0.055835363), (0.2934263, 0.9543498, -0.055835363), (0.04726197, -0.04267763, -0.99797034), (0.04726197, -0.04267763, -0.99797034), (0.04726197, -0.04267763, -0.99797034), (0.04726197, -0.04267763, -0.99797034), (-0.2877509, -0.9457734, -0.15070504), (-0.2877509, -0.9457734, -0.15070504), (-0.2877509, -0.9457734, -0.15070504), (-0.2877509, -0.9457734, -0.15070504), (0.29107827, 0.95669883, -0.00087432144), (0.28710526, 0.95789903, 0.00005155359), (0.28727403, 0.9578485, 0.000012251853), (0.29107827, 0.95669883, -0.00087432144), (-0.29926768, -0.95019037, -0.08704719), (-0.29926768, -0.95019037, -0.08704719), (-0.29926768, -0.95019037, -0.08704719), (-0.29926768, -0.95019037, -0.08704719), (0.28710526, 0.95789903, 0.00005155359), (0.28330472, 0.95902944, 0.0009361059), (0.28330472, 0.95902944, 0.0009361059), (0.28727403, 0.9578485, 0.000012251853), (-0.24433939, -0.9583099, 0.14812301), (-0.24433939, -0.9583099, 0.14812301), (-0.24433939, -0.9583099, 0.14812301), (-0.24433939, -0.9583099, 0.14812301), (0.315727, 0.9449249, 0.08621639), (0.315727, 0.9449249, 0.08621639), (0.315727, 0.9449249, 0.08621639), (0.315727, 0.9449249, 0.08621639), (-0.16061036, -0.9612122, 0.22422199), (-0.16061036, -0.9612122, 0.22422199), (-0.16061036, -0.9612122, 0.22422199), (-0.16061036, -0.9612122, 0.22422199), (0.39080253, 0.90137035, 0.1865609), (0.39080253, 0.90137035, 0.1865609), (0.39080253, 0.90137035, 0.1865609), (0.39080253, 0.90137035, 0.1865609), (-0.036555067, -0.9544192, 0.29622248), (-0.036555067, -0.9544192, 0.29622248), (-0.036555067, -0.9544192, 0.29622248), (-0.036555067, -0.9544192, 0.29622248), (0.245796, 0.9675524, 0.05853735), (0.245796, 0.9675524, 0.05853735), (0.245796, 0.9675524, 0.05853735), (0.245796, 0.9675524, 0.05853735), (0.94102246, 0.2559138, 0.22132522), (0.94102246, 0.2559138, 0.22132522), (0.94102246, 0.2559138, 0.22132522), (0.94102246, 0.2559138, 0.22132522), (0.23820421, 0.9662927, 0.097658046), (0.23820421, 0.9662927, 0.097658046), (0.23820421, 0.9662927, 0.097658046), (0.23820421, 0.9662927, 0.097658046), (-0.25738218, -0.9662928, 0.0057174237), (-0.25738218, -0.9662928, 0.0057174237), (-0.25738218, -0.9662928, 0.0057174237), (-0.25738218, -0.9662928, 0.0057174237), (-0.9200808, -0.25416726, -0.29807767), (-0.9200808, -0.25416726, -0.29807767), (-0.9200808, -0.25416726, -0.29807767), (-0.9200808, -0.25416726, -0.29807767), (-0.950481, -0.2561847, -0.17594078), (-0.950481, -0.2561847, -0.17594078), (-0.950481, -0.2561847, -0.17594078), (-0.950481, -0.2561847, -0.17594078), (-0.24961607, -0.96759856, -0.03801167), (-0.24961607, -0.96759856, -0.03801167), (-0.24961607, -0.96759856, -0.03801167), (-0.24961607, -0.96759856, -0.03801167), (0.9470013, 0.25614375, 0.19385333), (0.9470013, 0.25614375, 0.19385333), (0.9470013, 0.25614375, 0.19385333), (0.9470013, 0.25614375, 0.19385333), (0.18240623, 2.7965187e-8, -0.98322326), (0.18240623, 2.7965187e-8, -0.98322326), (0.18240623, 2.7965187e-8, -0.98322326), (0.18240623, 2.7965187e-8, -0.98322326), (-0.2195129, -0.957693, -0.18611354), (-0.2195129, -0.957693, -0.18611354), (-0.2195129, -0.957693, -0.18611354), (-0.2195129, -0.957693, -0.18611354), (0.965773, 0.25416726, 0.05178348), (0.965773, 0.25416726, 0.05178348), (0.965773, 0.25416726, 0.05178348), (0.965773, 0.25416726, 0.05178348), (0.27166313, 0.957693, -0.09499115), (0.27166313, 0.957693, -0.09499115), (0.27166313, 0.957693, -0.09499115), (0.27166313, 0.957693, -0.09499115), (-0.98874515, 0.14296085, 0.044106122), (-0.98874515, 0.14296085, 0.044106122), (-0.98874515, 0.14296085, 0.044106122), (-0.98874515, 0.14296085, 0.044106122), (-0.95010114, 0.24819499, 0.18896262), (-0.95010114, 0.24819499, 0.18896262), (-0.95010114, 0.24819499, 0.18896262), (-0.95010114, 0.24819499, 0.18896262), (-0.9018342, 0.22698271, 0.36766014), (-0.9018342, 0.22698271, 0.36766014), (-0.9018342, 0.22698271, 0.36766014), (-0.9018342, 0.22698271, 0.36766014), (-0.7940041, 0.21297395, 0.5693854), (-0.7940041, 0.21297395, 0.5693854), (-0.7940041, 0.21297395, 0.5693854), (-0.7940041, 0.21297395, 0.5693854), (-0.67994565, 0.19784974, 0.7060662), (-0.67994565, 0.19784974, 0.7060662), (-0.67994565, 0.19784974, 0.7060662), (0.9887627, -0.14291249, -0.04386755), (0.9887627, -0.14291249, -0.04386755), (0.9887627, -0.14291249, -0.04386755), (0.9887627, -0.14291249, -0.04386755), (0.95020396, -0.247931, -0.18879266), (0.95020396, -0.247931, -0.18879266), (0.95020396, -0.247931, -0.18879266), (0.95020396, -0.247931, -0.18879266), (0.90183026, -0.22680596, -0.36777884), (0.90183026, -0.22680596, -0.36777884), (0.90183026, -0.22680596, -0.36777884), (0.90183026, -0.22680596, -0.36777884), (0.79316723, -0.21406336, -0.5701427), (0.79316723, -0.21406336, -0.5701427), (0.79316723, -0.21406336, -0.5701427), (0.79316723, -0.21406336, -0.5701427), (0.6758975, -0.20083632, -0.7091032), (0.6758975, -0.20083632, -0.7091032), (0.6758975, -0.20083632, -0.7091032), (0.28493437, 0.9543496, -0.08960577), (0.28493437, 0.9543496, -0.08960577), (0.28493437, 0.9543496, -0.08960577), (0.28493437, 0.9543496, -0.08960577), (-0.06919857, -0.04267551, -0.9966897), (-0.06919857, -0.04267551, -0.9966897), (-0.06919857, -0.04267551, -0.9966897), (-0.06919857, -0.04267551, -0.9966897), (-0.30333373, -0.94577384, -0.11619137), (-0.30333373, -0.94577384, -0.11619137), (-0.30333373, -0.94577384, -0.11619137), (-0.30333373, -0.94577384, -0.11619137), (0.28899848, 0.95669883, -0.034744907), (0.28516006, 0.95789903, -0.033362877), (0.2853231, 0.9578484, -0.03342155), (0.28899848, 0.95669883, -0.034744907), (-0.30736446, -0.95019037, -0.051626116), (-0.30736446, -0.95019037, -0.051626116), (-0.30736446, -0.95019037, -0.051626116), (-0.30736446, -0.95019037, -0.051626116), (0.28516006, 0.95789903, -0.033362877), (0.28148818, 0.95902956, -0.032041963), (0.28148818, 0.95902956, -0.032041963), (0.2853231, 0.9578484, -0.03342155), (-0.22544132, -0.9583095, 0.17555359), (-0.22544132, -0.9583095, 0.17555359), (-0.22544132, -0.9583095, 0.17555359), (-0.22544132, -0.9583095, 0.17555359), (0.32361725, 0.94492435, 0.048885405), (0.32361725, 0.94492435, 0.048885405), (0.32361725, 0.94492435, 0.048885405), (0.32361725, 0.94492435, 0.048885405), (-0.13342485, -0.9612117, 0.24139166), (-0.13342485, -0.9612117, 0.24139166), (-0.13342485, -0.9612117, 0.24139166), (-0.13342485, -0.9612117, 0.24139166), (0.40985706, 0.9013712, 0.1398116), (0.40985706, 0.9013712, 0.1398116), (0.40985706, 0.9013712, 0.1398116), (0.40985706, 0.9013712, 0.1398116), (-0.0018320788, -0.9544185, 0.29846603), (-0.0018320788, -0.9544185, 0.29846603), (-0.0018320788, -0.9544185, 0.29846603), (-0.0018320788, -0.9544185, 0.29846603), (-0.8532428, 0.5215039, -0.0032395374), (-0.8532428, 0.5215039, -0.0032395374), (-0.8532428, 0.5215039, -0.0032395374), (-0.8532428, 0.5215039, -0.0032395374), (-0.8527109, 0.50373906, -0.13831456), (-0.8527109, 0.50373906, -0.13831456), (-0.8527109, 0.50373906, -0.13831456), (-0.8527109, 0.50373906, -0.13831456), (-0.8236539, 0.46853805, -0.3194784), (-0.8236539, 0.46853805, -0.3194784), (-0.8236539, 0.46853805, -0.3194784), (-0.8236539, 0.46853805, -0.3194784), (-0.7605541, 0.38270372, -0.52449524), (-0.7605541, 0.38270372, -0.52449524), (-0.7605541, 0.38270372, -0.52449524), (-0.7605541, 0.38270372, -0.52449524), (-0.6803262, 0.29824042, -0.669484), (-0.6803262, 0.29824042, -0.669484), (-0.6803262, 0.29824042, -0.669484), (-0.84080184, 0.5292319, 0.11386789), (-0.84080184, 0.5292319, 0.11386789), (-0.84042233, 0.5293737, 0.11598997), (-0.8404243, 0.529373, 0.115979135), (-0.5490844, 0.8183326, 0.16981775), (-0.5490844, 0.8183326, 0.16981775), (-0.5490844, 0.8183326, 0.16981775), (-0.5490844, 0.8183326, 0.16981775), (-0.41892308, 0.85984993, 0.29182437), (-0.41892308, 0.85984993, 0.29182437), (-0.41892308, 0.85984993, 0.29182437), (-0.41892308, 0.85984993, 0.29182437), (-0.36624745, 0.8073514, 0.46265164), (-0.36624745, 0.8073514, 0.46265164), (-0.36624745, 0.8073514, 0.46265164), (-0.36624745, 0.8073514, 0.46265164), (-0.26403192, 0.71597105, 0.6462759), (-0.26403192, 0.71597105, 0.6462759), (-0.26403192, 0.71597105, 0.6462759), (-0.26403192, 0.71597105, 0.6462759), (-0.17142539, 0.6203044, 0.7653991), (-0.17142539, 0.6203044, 0.7653991), (-0.17142539, 0.6203044, 0.7653991), (0.85307395, -0.52177894, 0.00338792), (0.85307395, -0.52177894, 0.00338792), (0.85307395, -0.52177894, 0.00338792), (0.85307395, -0.52177894, 0.00338792), (0.8525361, -0.5039719, 0.13854459), (0.8525361, -0.5039719, 0.13854459), (0.8525361, -0.5039719, 0.13854459), (0.8525361, -0.5039719, 0.13854459), (0.82354784, -0.46872026, 0.31948453), (0.82354784, -0.46872026, 0.31948453), (0.82354784, -0.46872026, 0.31948453), (0.82354784, -0.46872026, 0.31948453), (0.7616, -0.38211554, 0.5234053), (0.7616, -0.38211554, 0.5234053), (0.7616, -0.38211554, 0.5234053), (0.7616, -0.38211554, 0.5234053), (0.68649805, -0.29478517, 0.66469693), (0.68649805, -0.29478517, 0.66469693), (0.68649805, -0.29478517, 0.66469693), (0.84073144, -0.5293706, -0.11374315), (0.84073144, -0.5293706, -0.11374315), (0.84073144, -0.5293706, -0.11374315), (0.84073144, -0.5293706, -0.11374315), (0.5491773, -0.81831694, -0.1695931), (0.5491773, -0.81831694, -0.1695931), (0.5491773, -0.81831694, -0.1695931), (0.5491773, -0.81831694, -0.1695931), (0.41921452, -0.8597472, -0.2917086), (0.41921452, -0.8597472, -0.2917086), (0.41921452, -0.8597472, -0.2917086), (0.41921452, -0.8597472, -0.2917086), (0.36634922, -0.8072257, -0.46279013), (0.36634922, -0.8072257, -0.46279013), (0.36634922, -0.8072257, -0.46279013), (0.36634922, -0.8072257, -0.46279013), (0.262544, -0.7160924, -0.6467474), (0.262544, -0.7160924, -0.6467474), (0.262544, -0.7160924, -0.6467474), (0.262544, -0.7160924, -0.6467474), (0.165978, -0.6193445, -0.7673746), (0.165978, -0.6193445, -0.7673746), (0.165978, -0.6193445, -0.7673746), (0.8618816, 0.4714726, -0.18674503), (0.8618816, 0.4714726, -0.18674503), (0.8618816, 0.4714726, -0.18674503), (0.8618816, 0.4714726, -0.18674503), (-0.86703724, -0.4980057, 0.01538918), (-0.86703724, -0.4980057, 0.01538918), (-0.86703724, -0.4980057, 0.01538918), (-0.86703724, -0.4980057, 0.01538918), (0.8623195, 0.5016212, -0.069146), (0.8623195, 0.5016212, -0.069146), (0.8623195, 0.5016212, -0.069146), (0.8623195, 0.5016212, -0.069146), (-0.8502446, -0.5263455, -0.0066775917), (-0.8502446, -0.5263455, -0.0066775917), (-0.8502446, -0.5263455, -0.0066775917), (-0.8502446, -0.5263455, -0.0066775917), (0.83505255, 0.5500648, 0.01076859), (0.83505255, 0.5500648, 0.01076859), (0.83505255, 0.5500648, 0.01076859), (0.83505255, 0.5500648, 0.01076859), (-0.85936826, -0.49812484, 0.11557576), (-0.85936826, -0.49812484, 0.11557576), (-0.85936826, -0.49812484, 0.11557576), (-0.85936826, -0.49812484, 0.11557576), (0.7315412, 0.66562736, 0.14760652), (0.7315412, 0.66562736, 0.14760652), (0.7315412, 0.66562736, 0.14760652), (0.7315412, 0.66562736, 0.14760652), (-0.85202736, -0.51059294, 0.11551725), (-0.85202736, -0.51059294, 0.11551725), (-0.85202736, -0.51059294, 0.11551725), (-0.85202736, -0.51059294, 0.11551725), (0.54950684, 0.7984597, 0.24597639), (0.54950684, 0.7984597, 0.24597639), (0.54950684, 0.7984597, 0.24597639), (0.54950684, 0.7984597, 0.24597639), (-0.8678724, -0.46950173, 0.1623746), (-0.8678724, -0.46950173, 0.1623746), (-0.8678724, -0.46950173, 0.1623746), (-0.8678724, -0.46950173, 0.1623746), (-0.8404243, 0.529373, 0.115979135), (-0.84042233, 0.5293737, 0.11598997), (-0.84004843, 0.5295097, 0.11805986), (-0.84004843, 0.5295097, 0.11805986), (-0.86535203, -0.4777513, 0.15139231), (-0.86535203, -0.4777513, 0.15139231), (-0.86535203, -0.4777513, 0.15139231), (-0.86535203, -0.4777513, 0.15139231), (0.86535066, 0.4777538, -0.1513922), (0.86535066, 0.4777538, -0.1513922), (0.86535066, 0.4777538, -0.1513922), (0.86535066, 0.4777538, -0.1513922), (0.85671955, 0.44616538, -0.25878203), (0.85671955, 0.44616538, -0.25878203), (0.85671955, 0.44616538, -0.25878203), (0.85671955, 0.44616538, -0.25878203), (-0.27562678, 0.03682258, -0.9605592), (-0.27562678, 0.03682258, -0.9605592), (-0.27562678, 0.03682258, -0.9605592), (-0.27562678, 0.03682258, -0.9605592), (-0.90391284, -0.42366907, 0.058703456), (-0.90391284, -0.42366907, 0.058703456), (-0.90391284, -0.42366907, 0.058703456), (-0.90391284, -0.42366907, 0.058703456), (0.8720614, 0.44395357, -0.20594724), (0.87063307, 0.447554, -0.20418978), (0.87069404, 0.44740126, -0.20426446), (0.8720614, 0.44395357, -0.20594724), (-0.8968917, -0.4247566, 0.12315506), (-0.8968917, -0.4247566, 0.12315506), (-0.8968917, -0.4247566, 0.12315506), (-0.8968917, -0.4247566, 0.12315506), (0.87063307, 0.447554, -0.20418978), (0.8692539, 0.4509861, -0.2025073), (0.8692539, 0.4509861, -0.2025073), (0.87069404, 0.44740126, -0.20426446), (-0.8026799, -0.49360928, 0.33474588), (-0.8026799, -0.49360928, 0.33474588), (-0.8026799, -0.49360928, 0.33474588), (-0.8026799, -0.49360928, 0.33474588), (0.9034236, 0.4093436, -0.12752846), (0.9034236, 0.4093436, -0.12752846), (0.9034236, 0.4093436, -0.12752846), (0.9034236, 0.4093436, -0.12752846), (-0.73016745, -0.5637447, 0.3860664), (-0.73016745, -0.5637447, 0.3860664), (-0.73016745, -0.5637447, 0.3860664), (-0.73016745, -0.5637447, 0.3860664), (0.9479328, 0.3152346, -0.0452838), (0.9479328, 0.3152346, -0.0452838), (0.9479328, 0.3152346, -0.0452838), (0.9479328, 0.3152346, -0.0452838), (-0.62602115, -0.6559797, 0.42164916), (-0.62602115, -0.6559797, 0.42164916), (-0.62602115, -0.6559797, 0.42164916), (-0.62602115, -0.6559797, 0.42164916), (0.84656507, -0.52746964, -0.07143792), (0.84656507, -0.52746964, -0.07143792), (0.84656507, -0.52746964, -0.07143792), (0.84656507, -0.52746964, -0.07143792), (0.86984676, 0.478568, -0.11974696), (0.86984676, 0.478568, -0.11974696), (0.86984676, 0.478568, -0.11974696), (0.86984676, 0.478568, -0.11974696), (-0.8617513, -0.47691095, 0.17303331), (-0.8617513, -0.47691095, 0.17303331), (-0.8617513, -0.47691095, 0.17303331), (-0.8617513, -0.47691095, 0.17303331), (-0.5182727, 0.80789936, 0.2805211), (-0.5182727, 0.80789936, 0.2805211), (-0.5182727, 0.80789936, 0.2805211), (-0.5182727, 0.80789936, 0.2805211), (-0.37812117, 0.8373952, 0.3947072), (-0.37812117, 0.8373952, 0.3947072), (-0.37812117, 0.8373952, 0.3947072), (-0.37812117, 0.8373952, 0.3947072), (-0.3131377, 0.7700709, 0.5558197), (-0.3131377, 0.7700709, 0.5558197), (-0.3131377, 0.7700709, 0.5558197), (-0.3131377, 0.7700709, 0.5558197), (-0.1985062, 0.66231555, 0.7224496), (-0.1985062, 0.66231555, 0.7224496), (-0.1985062, 0.66231555, 0.7224496), (-0.1985062, 0.66231555, 0.7224496), (-0.098644905, 0.5558294, 0.8254229), (-0.098644905, 0.5558294, 0.8254229), (-0.098644905, 0.5558294, 0.8254229), (0.5183837, -0.80790347, -0.28030416), (0.5183837, -0.80790347, -0.28030416), (0.5183837, -0.80790347, -0.28030416), (0.5183837, -0.80790347, -0.28030416), (0.37842286, -0.8373059, -0.39460737), (0.37842286, -0.8373059, -0.39460737), (0.37842286, -0.8373059, -0.39460737), (0.37842286, -0.8373059, -0.39460737), (0.31323087, -0.76993483, -0.55595577), (0.31323087, -0.76993483, -0.55595577), (0.31323087, -0.76993483, -0.55595577), (0.31323087, -0.76993483, -0.55595577), (0.19698273, -0.66237867, -0.72280866), (0.19698273, -0.66237867, -0.72280866), (0.19698273, -0.66237867, -0.72280866), (0.19698273, -0.66237867, -0.72280866), (0.093076706, -0.5546393, -0.82686883), (0.093076706, -0.5546393, -0.82686883), (0.093076706, -0.5546393, -0.82686883), (0.8419674, 0.45569274, -0.2888513), (0.8419674, 0.45569274, -0.2888513), (0.8419674, 0.45569274, -0.2888513), (0.8419674, 0.45569274, -0.2888513), (-0.34984112, 0.12086526, -0.9289794), (-0.34984112, 0.12086526, -0.9289794), (-0.34984112, 0.12086526, -0.9289794), (-0.34984112, 0.12086526, -0.9289794), (-0.90436697, -0.41587368, 0.09575723), (-0.90436697, -0.41587368, 0.09575723), (-0.90436697, -0.41587368, 0.09575723), (-0.90436697, -0.41587368, 0.09575723), (0.86138695, 0.4488556, -0.23778364), (0.8601715, 0.452312, -0.23562434), (0.8602234, 0.45216542, -0.2357161), (0.86138695, 0.4488556, -0.23778364), (-0.8923032, -0.4224622, 0.15912502), (-0.8923032, -0.4224622, 0.15912502), (-0.8923032, -0.4224622, 0.15912502), (-0.8923032, -0.4224622, 0.15912502), (0.8601715, 0.452312, -0.23562434), (0.85899574, 0.45560643, -0.23355742), (0.85899574, 0.45560643, -0.23355742), (0.8602234, 0.45216542, -0.2357161), (-0.78301287, -0.51002485, 0.35604158), (-0.78301287, -0.51002485, 0.35604158), (-0.78301287, -0.51002485, 0.35604158), (-0.78301287, -0.51002485, 0.35604158), (0.8981756, 0.40739018, -0.1652694), (0.8981756, 0.40739018, -0.1652694), (0.8981756, 0.40739018, -0.1652694), (0.8981756, 0.40739018, -0.1652694), (-0.70802677, -0.5851181, 0.39539203), (-0.70802677, -0.5851181, 0.39539203), (-0.70802677, -0.5851181, 0.39539203), (-0.70802677, -0.5851181, 0.39539203), (0.9472366, 0.30615246, -0.09493913), (0.9472366, 0.30615246, -0.09493913), (0.9472366, 0.30615246, -0.09493913), (0.9472366, 0.30615246, -0.09493913), (-0.60317504, -0.6813004, 0.41474053), (-0.60317504, -0.6813004, 0.41474053), (-0.60317504, -0.6813004, 0.41474053), (-0.60317504, -0.6813004, 0.41474053), (0.8550792, 0.47506925, -0.20772298), (0.8550792, 0.47506925, -0.20772298), (0.8550792, 0.47506925, -0.20772298), (0.8550792, 0.47506925, -0.20772298), (-0.8527973, 0.5222398, 0.0014908325), (-0.8527973, 0.5222398, 0.0014908325), (-0.8527973, 0.5222398, 0.0014908325), (-0.8527973, 0.5222398, 0.0014908325), (-0.87527484, -0.4788473, 0.06781779), (-0.87527484, -0.4788473, 0.06781779), (-0.87527484, -0.4788473, 0.06781779), (-0.87527484, -0.4788473, 0.06781779), (0.8391035, -0.5296817, -0.12386599), (0.8391035, -0.5296817, -0.12386599), (0.8391035, -0.5296817, -0.12386599), (0.8391035, -0.5296817, -0.12386599)] (
                interpolation = "faceVarying"
            )
            point3f[] points = [(-0.08746496, 0.00828572, 0.39569014), (-0.06478223, 0.0030038226, 0.32839376), (-0.08257769, -0.010287065, 0.39647058), (-0.063499585, -0.0018929562, 0.32860428), (-0.11293022, 0.006941994, 0.44969264), (-0.10660659, -0.016855448, 0.45063803), (-0.1310007, 0.0044886004, 0.47521532), (-0.12731339, -0.014299584, 0.47743145), (-0.15900204, -0.0046799285, 0.5011968), (-0.15784031, -0.009690963, 0.5016813), (-0.16461334, -0.008006091, 0.50506514), (-0.045712046, 0.0030068257, 0.22553644), (-0.044436153, -0.0018894777, 0.22577314), (-0.071737304, 0.008518105, 0.4140433), (-0.0694084, 0.0035444433, 0.34112227), (-0.07657547, -0.010047739, 0.41313198), (-0.06791289, -0.0012871433, 0.3413997), (-0.06720005, 0.0071800407, 0.47509342), (-0.07341689, -0.016579172, 0.4737965), (-0.05902313, 0.0047074123, 0.50714254), (-0.06320177, -0.013988813, 0.50798047), (-0.041401617, -0.0044395225, 0.5430732), (-0.042552892, -0.009362963, 0.54323715), (-0.036842965, -0.007730408, 0.5496704), (-0.083534196, 0.007194729, 0.3974349), (-0.060643256, 0.0018895111, 0.32950625), (-0.078696296, -0.011370971, 0.39833242), (-0.059367362, -0.0030067922, 0.32974294), (-0.109330535, 0.0059031323, 0.45210436), (-0.1031352, -0.017871834, 0.45325372), (-0.12792744, 0.0035512126, 0.47834796), (-0.12448824, -0.015182318, 0.48082232), (-0.15667042, -0.0054493495, 0.5050001), (-0.15576158, -0.010399847, 0.50565404), (-0.16287582, -0.00863185, 0.5092292), (-0.041499864, 0.0018894904, 0.22631787), (-0.040223975, -0.0030068127, 0.22655457), (-0.06743215, 0.0071947332, 0.41389942), (-0.06511305, 0.0022302547, 0.34138188), (-0.07227004, -0.011370969, 0.4130019), (-0.06361754, -0.0026013316, 0.34165934), (-0.06296192, 0.0059031346, 0.47418386), (-0.06915726, -0.017871829, 0.4730345), (-0.055015914, 0.003551215, 0.50535166), (-0.059113797, -0.015182316, 0.5064277), (-0.037745558, -0.0054493486, 0.54054016), (-0.03882845, -0.010399851, 0.54082453), (-0.033470027, -0.008631851, 0.5467136), (-0.033601016, 0.010443365, 0.122413635), (-0.02916955, -0.006562598, 0.123235755), (-0.018971164, 0.006562609, 0.12512775), (-0.014539702, -0.010443352, 0.12594986), (-0.013585166, 0.0120413145, 0.011955704), (-0.008475638, -0.0075667575, 0.012903617), (0.0032832182, 0.0075667566, 0.015085104), (0.008392747, -0.012041314, 0.016033016), (-0.0032765022, 0.0064351284, -0.015083873), (-0.0005458642, -0.004043832, -0.014577288), (0.0057383124, 0.004043832, -0.013411456), (0.00846895, -0.006435128, -0.012904872), (-0.023957342, 0.0062427716, 0.22778822), (-0.030131035, 0.0012691088, 0.15509164), (-0.028868701, -0.012323073, 0.22744615), (-0.0286134, -0.0035624772, 0.15519316), (-0.0123457275, 0.004904706, 0.2878954), (-0.01867127, -0.018854506, 0.2873308), (-0.0004944131, 0.002432078, 0.31877512), (-0.0045471303, -0.01626415, 0.32009363), (0.021189053, -0.0067148563, 0.3524107), (0.020064712, -0.011638295, 0.35270756), (0.026484556, -0.010005741, 0.3584325), (-0.019698193, 0.004919399, 0.22714424), (-0.025834657, -0.00004507889, 0.15484963), (-0.024607671, -0.013646302, 0.22681588), (-0.024317015, -0.004876665, 0.15495113), (-0.008242261, 0.0036278006, 0.28649879), (-0.014529265, -0.020147165, 0.28607827), (0.0032771453, 0.0012758812, 0.31653), (-0.0006676465, -0.017457651, 0.31807572), (0.02452549, -0.007724683, 0.34946942), (0.023483045, -0.012675184, 0.3498779), (0.029490456, -0.010907183, 0.35510328), (0.02595552, 0.027097521, 0.3754457), (0.018124774, 0.013847424, 0.30591643), (0.015982375, 0.01078642, 0.37742737), (0.01549286, 0.009550728, 0.30644497), (0.023587182, 0.03916203, 0.43388706), (0.0108328685, 0.018223498, 0.43635803), (0.017300747, 0.04798206, 0.46332613), (0.006801039, 0.03224677, 0.46702206), (-0.000031255186, 0.059341017, 0.496699), (-0.0027469173, 0.05502608, 0.49753645), (-0.004941143, 0.060733467, 0.5023087), (0.001961261, 0.010391409, 0.20262024), (-0.000667423, 0.006097293, 0.20317553), (0.041252963, 0.014047954, 0.38886026), (0.019062158, 0.016282866, 0.31921673), (0.024592392, 0.004939959, 0.39175823), (0.016631715, 0.011870203, 0.31974494), (0.060038902, 0.0037261928, 0.44621918), (0.038665652, -0.007898155, 0.4498095), (0.07234127, -0.007090935, 0.47505945), (0.056491934, -0.01694031, 0.47947544), (0.0869747, -0.029687377, 0.50605065), (0.08275275, -0.03223865, 0.50717264), (0.089353174, -0.03589452, 0.51161385), (0.028170839, 0.023335578, 0.37623665), (0.020282242, 0.009982525, 0.3060518), (0.018203467, 0.0070532486, 0.37834212), (0.017653551, 0.0056884093, 0.3066071), (0.025811926, 0.035608064, 0.43539482), (0.013047852, 0.014757151, 0.43809113), (0.019460112, 0.044805575, 0.46564648), (0.008911997, 0.029261053, 0.46964657), (0.0019588172, 0.05674805, 0.49983114), (-0.0008286238, 0.052640274, 0.50088817), (-0.0031288788, 0.058631886, 0.505921), (0.004072096, 0.0065047652, 0.20242049), (0.0014434196, 0.0022106494, 0.20297576), (0.04302033, 0.010046098, 0.3877795), (0.02094115, 0.012253874, 0.3185231), (0.026363827, 0.000936616, 0.39069062), (0.018510703, 0.00784121, 0.31905136), (0.061585464, -0.00011859342, 0.44441766), (0.040255398, -0.011784064, 0.44814563), (0.07358344, -0.010597833, 0.47245935), (0.057824746, -0.020554991, 0.477087), (0.08789234, -0.03276593, 0.5028129), (0.08372797, -0.0353972, 0.50403583), (0.09005037, -0.038651798, 0.5080302), (-0.0122765545, 0.010640853, 0.1001931), (-0.018227588, 0.00091945846, 0.101450205), (-0.0074978573, 0.0018419297, 0.09974089), (-0.013448888, -0.007879463, 0.10099801), (0.018828917, -0.0033438343, 0.19866623), (-0.008742901, 0.005013357, 0.13145316), (0.0022785142, -0.012456078, 0.2021275), (-0.011207719, 0.0006023596, 0.13180745), (0.041883387, -0.01868358, 0.25328013), (0.020642579, -0.030302878, 0.2575989), (0.05621532, -0.032038815, 0.28004497), (0.040579177, -0.042027436, 0.28488755), (0.07281594, -0.057340465, 0.3077837), (0.068647884, -0.059924535, 0.3090257), (0.07550736, -0.064022355, 0.31260478), (0.020428888, -0.007262248, 0.19711944), (-0.007001631, 0.0010339742, 0.13027968), (0.0038835704, -0.016377132, 0.20059332), (-0.009466448, -0.003377026, 0.130634), (0.043209393, -0.02238216, 0.25104815), (0.022021703, -0.03405454, 0.2554967), (0.05718135, -0.035329815, 0.27707207), (0.04165021, -0.04544475, 0.28210872), (0.07341634, -0.060147043, 0.30423895), (0.06931209, -0.062819995, 0.30556992), (0.07586686, -0.066477, 0.3087607), (-0.016455546, 0.0039097765, 0.06759634), (-0.019613063, -0.0012482264, 0.06826334), (-0.013920052, -0.0007587792, 0.06735641), (-0.017077565, -0.0059167813, 0.06802341)]
            uniform token subdivisionScheme = "none"
            custom string userProperties:blender:data_name = "Plane.005"
        }
    }

    def Scope "_materials"
    {
        def Material "Green"
        {
            token outputs:surface.connect = </root/_materials/Green/Principled_BSDF.outputs:surface>
            custom string userProperties:blender:data_name = "Green"

            def Shader "Principled_BSDF"
            {
                uniform token info:id = "UsdPreviewSurface"
                float inputs:clearcoat = 0
                float inputs:clearcoatRoughness = 0.03
                color3f inputs:diffuseColor = (0.23164624, 0.44797465, 0.12646018)
                float inputs:ior = 1.5
                float inputs:metallic = 0
                float inputs:opacity = 1
                float inputs:roughness = 0.6900348
                float inputs:specular = 0.5
                token outputs:surface
            }
        }
    }
}

