#usda 1.0
(
    defaultPrim = "root"
    doc = "Blender v5.1.2"
    metersPerUnit = 1
    upAxis = "Y"
)

def Xform "root" (
    customData = {
        dictionary Blender = {
            bool generated = 1
        }
    }
)
{
    float3 xformOp:rotateXYZ = (-90, -0, 0)
    uniform token[] xformOpOrder = ["xformOp:rotateXYZ"]

    def Xform "Floor_BricksSeparate"
    {
        custom string userProperties:blender:object_name = "Floor_BricksSeparate"

        def Mesh "Cube_032" (
            active = true
            prepend apiSchemas = ["MaterialBindingAPI"]
        )
        {
            uniform bool doubleSided = 1
            float3[] extent = [(-0.4524747, -0.47432184, -0.024190381), (0.49841538, 0.72552276, 0.23189536)]
            int[] faceVertexCounts = [4, 4, 4, 4, 4, 4, 3, 3, 3, 3, 3, 3, 3, 3, 4, 4, 4, 4, 4, 4, 4, 4, 4, 4, 4, 4, 4, 4, 4, 4, 4, 4, 4, 4, 4, 4, 4, 4, 4, 4, 4, 4, 8, 4, 4, 4, 4, 4, 4, 4, 16, 4, 4, 4, 4, 4, 4, 4, 4, 4, 4, 4, 4, 4, 4, 4, 3, 3, 3, 3, 3, 3, 3, 3, 4, 4, 4, 4, 4, 4, 4, 4, 4, 4, 4, 4, 4, 4, 4, 4, 8, 4, 4, 16, 4, 4, 4, 4, 4, 4, 4, 4, 4, 4, 4, 4, 4, 4, 4, 4]
            int[] faceVertexIndices = [43, 99, 94, 38, 65, 9, 7, 63, 123, 122, 119, 120, 38, 94, 59, 3, 24, 80, 74, 18, 77, 21, 19, 75, 0, 1, 2, 3, 4, 5, 6, 7, 8, 9, 10, 11, 12, 13, 14, 15, 16, 17, 18, 19, 20, 21, 22, 23, 1, 57, 58, 2, 40, 6, 8, 42, 59, 60, 4, 3, 38, 3, 5, 39, 0, 5, 4, 1, 11, 8, 7, 9, 16, 72, 69, 13, 24, 18, 20, 25, 21, 77, 78, 22, 49, 15, 17, 53, 12, 17, 16, 13, 23, 20, 19, 21, 22, 26, 27, 23, 30, 24, 25, 28, 74, 75, 19, 18, 22, 78, 82, 26, 30, 86, 80, 24, 34, 30, 28, 32, 26, 29, 31, 27, 34, 90, 86, 30, 52, 34, 32, 44, 26, 82, 85, 29, 29, 33, 35, 31, 52, 108, 90, 34, 43, 38, 39, 41, 2, 36, 37, 0, 2, 58, 92, 36, 10, 66, 99, 43, 37, 42, 8, 11, 41, 39, 5, 0, 36, 92, 96, 40, 10, 43, 41, 11, 36, 40, 42, 37, 48, 104, 105, 49, 29, 85, 89, 33, 14, 70, 106, 50, 50, 106, 107, 51, 46, 45, 44, 32, 28, 25, 20, 23, 27, 31, 35, 55, 54, 53, 17, 12, 14, 50, 46, 12, 50, 51, 45, 46, 51, 52, 44, 45, 33, 47, 55, 35, 47, 48, 54, 55, 48, 49, 53, 54, 51, 107, 108, 52, 33, 89, 103, 47, 47, 103, 104, 48, 4, 60, 57, 1, 62, 63, 7, 6, 71, 72, 16, 15, 13, 69, 70, 14, 40, 96, 62, 6, 49, 105, 71, 15, 56, 58, 57, 59, 61, 60, 62, 64, 63, 65, 67, 66, 68, 70, 69, 71, 73, 72, 74, 76, 75, 77, 79, 78, 96, 98, 64, 62, 94, 95, 61, 59, 56, 57, 60, 61, 67, 65, 63, 64, 80, 81, 76, 74, 105, 109, 73, 71, 68, 69, 72, 73, 79, 77, 75, 76, 78, 79, 83, 82, 86, 84, 81, 80, 90, 88, 84, 86, 82, 83, 87, 85, 108, 100, 88, 90, 85, 87, 91, 89, 99, 97, 95, 94, 58, 56, 93, 92, 93, 56, 61, 95, 97, 67, 64, 98, 66, 67, 97, 99, 92, 93, 98, 96, 102, 68, 73, 109, 110, 111, 91, 87, 83, 79, 76, 81, 84, 88, 100, 101, 70, 68, 102, 106, 106, 102, 101, 107, 107, 101, 100, 108, 89, 91, 111, 103, 103, 111, 110, 104, 104, 110, 109, 105, 9, 65, 66, 10, 122, 121, 118, 119, 115, 114, 116, 117, 117, 116, 112, 113, 119, 118, 112, 116, 120, 119, 116, 114, 123, 120, 114, 115, 121, 122, 117, 113, 118, 121, 113, 112, 122, 123, 115, 117]
            rel material:binding = </root/_materials/Grey_Floor>
            normal3f[] normals = [(0.0011614528, 0.99999934, 2.4870457e-7), (0.0011614526, 0.99999934, 2.4870457e-7), (0.0014929329, 0.9999989, 4.1727995e-7), (0.0014929326, 0.99999887, 4.1727992e-7), (1, 0, -2.6050006e-7), (1, 0, -2.6050006e-7), (1, 0, -2.6050006e-7), (1, 0, -2.6050006e-7), (3.2023297e-7, -0.027184276, 0.99963045), (3.2023297e-7, -0.027184276, 0.99963045), (3.2023297e-7, -0.027184276, 0.99963045), (3.2023297e-7, -0.027184276, 0.99963045), (0.0014929326, 0.99999887, 4.1727992e-7), (0.0014929329, 0.9999989, 4.1727995e-7), (8.059301e-14, 1, 4.277021e-7), (8.059301e-14, 1, 4.277021e-7), (-0.9771694, -0.21246178, 3.1033494e-7), (-0.9771694, -0.21246178, 3.1033494e-7), (-0.97716945, -0.21246158, 3.01668e-7), (-0.97716945, -0.21246158, 3.01668e-7), (0.21246186, -0.97716933, -2.3695657e-7), (0.21246186, -0.97716933, -2.3695657e-7), (0.21246186, -0.97716933, -2.3695657e-7), (0.21246186, -0.97716933, -2.3695657e-7), (-0.44202384, -0.44202688, 0.7805301), (-0.44202384, -0.44202688, 0.7805301), (-0.44202384, -0.44202688, 0.7805301), (-0.44202426, 0.44202426, 0.7805313), (-0.44202426, 0.44202426, 0.7805313), (-0.44202426, 0.44202426, 0.7805313), (0.44202438, -0.44202337, 0.78053176), (0.44202438, -0.44202337, 0.78053176), (0.44202438, -0.44202337, 0.78053176), (0.44202453, 0.4420225, 0.7805321), (0.44202453, 0.4420225, 0.7805321), (0.44202453, 0.4420225, 0.7805321), (-0.52584493, 0.33802095, 0.7805311), (-0.52584493, 0.33802095, 0.7805311), (-0.52584493, 0.33802095, 0.7805311), (0.33801714, 0.5258468, 0.7805315), (0.33801714, 0.5258468, 0.7805315), (0.33801714, 0.5258468, 0.7805315), (-0.33801892, -0.525847, 0.78053063), (-0.33801892, -0.525847, 0.78053063), (-0.33801892, -0.525847, 0.78053063), (0.52584666, -0.33802053, 0.78053033), (0.52584666, -0.33802053, 0.78053033), (0.52584666, -0.33802053, 0.78053033), (-0.70710456, -0.7071089, 1.7032306e-7), (-0.70710456, -0.7071089, 1.7032306e-7), (-0.70710456, -0.7071089, 1.7032306e-7), (-0.70710456, -0.7071089, 1.7032306e-7), (-2.0896289e-7, -0.49278012, 0.8701538), (-2.0896289e-7, -0.49278012, 0.8701538), (-2.0896289e-7, -0.49278012, 0.8701538), (-2.0896289e-7, -0.49278012, 0.8701538), (-0.7071066, 0.70710695, 4.5444364e-7), (-0.7071066, 0.70710695, 4.5444364e-7), (-0.7071066, 0.70710695, 4.5444364e-7), (-0.7071066, 0.70710695, 4.5444364e-7), (-5.9036303e-8, 0.4927774, 0.87015545), (-5.9036303e-8, 0.4927774, 0.87015545), (-5.9036303e-8, 0.4927774, 0.87015545), (-5.9036303e-8, 0.4927774, 0.87015545), (-0.49277887, -1.3939469e-7, 0.8701546), (-0.49277887, -1.3939469e-7, 0.8701546), (-0.49277887, -1.3939469e-7, 0.8701546), (-0.49277887, -1.3939469e-7, 0.8701546), (0.49277857, -1.6967192e-7, 0.8701547), (0.49277857, -1.6967192e-7, 0.8701547), (0.49277857, -1.6967192e-7, 0.8701547), (0.49277857, -1.6967192e-7, 0.8701547), (-0.21246149, 0.9771694, 1.681596e-7), (-0.21246149, 0.9771694, 1.681596e-7), (-0.21246149, 0.9771694, 1.681596e-7), (-0.21246149, 0.9771694, 1.681596e-7), (-0.4815278, -0.10469634, 0.870155), (-0.48152784, -0.10469636, 0.870155), (-0.48152784, -0.10469636, 0.870155), (-0.48152784, -0.10469635, 0.8701549), (0.8411959, -0.5407305, -3.7247315e-7), (0.8411959, -0.5407305, -3.7247315e-7), (0.8411959, -0.5407305, -3.7247315e-7), (0.8411959, -0.5407305, -3.7247315e-7), (0.48152775, 0.10469629, 0.870155), (0.48152775, 0.10469629, 0.870155), (0.48152775, 0.10469629, 0.870155), (0.48152775, 0.10469629, 0.870155), (-0.10469684, 0.4815297, 0.87015396), (-0.10469684, 0.4815297, 0.87015396), (-0.10469684, 0.4815297, 0.87015396), (-0.10469684, 0.4815297, 0.87015396), (0.10469727, -0.48153037, 0.8701534), (0.10469727, -0.48153037, 0.8701534), (0.10469727, -0.48153037, 0.8701534), (0.10469727, -0.48153037, 0.8701534), (0.48152843, 0.10469643, 0.8701547), (0.48152843, 0.10469643, 0.8701547), (0.48152843, 0.10469643, 0.8701547), (0.48152843, 0.10469643, 0.8701547), (-0.48152772, -0.10469657, 0.870155), (-0.4815278, -0.10469634, 0.870155), (-0.48152784, -0.10469635, 0.8701549), (-0.48152772, -0.10469658, 0.870155), (-0.54072964, -0.8411965, 2.1008445e-7), (-0.54072964, -0.8411965, 2.1008445e-7), (-0.54072964, -0.8411965, 2.1008445e-7), (-0.54072964, -0.8411965, 2.1008445e-7), (0.97716963, 0.21246079, -2.9824338e-7), (0.97716963, 0.21246079, -2.9824338e-7), (0.97716963, 0.21246079, -2.9824338e-7), (0.97716963, 0.21246079, -2.9824338e-7), (-0.9771693, -0.21246222, 3.19243e-7), (-0.9771693, -0.21246223, 3.19243e-7), (-0.9771694, -0.21246178, 3.1033494e-7), (-0.9771694, -0.21246178, 3.1033494e-7), (-0.4815276, -0.104696736, 0.87015504), (-0.48152772, -0.10469657, 0.870155), (-0.48152772, -0.10469658, 0.870155), (-0.4815276, -0.104696736, 0.87015504), (0.32398024, 0.13780609, 0.93597335), (0.32398024, 0.13780609, 0.93597335), (0.32398024, 0.13780609, 0.93597335), (0.32398024, 0.13780609, 0.93597335), (-0.9771693, -0.21246216, 3.2182098e-7), (-0.9771693, -0.21246216, 3.2182095e-7), (-0.9771693, -0.21246223, 3.19243e-7), (-0.9771693, -0.21246222, 3.19243e-7), (-0.48152772, -0.10469635, 0.87015504), (-0.4815276, -0.104696736, 0.87015504), (-0.4815276, -0.104696736, 0.87015504), (-0.48152775, -0.104696356, 0.87015504), (0.96690416, 0.2551396, -3.435543e-7), (0.96690416, 0.2551396, -3.435543e-7), (0.96690416, 0.2551396, -3.435543e-7), (0.96690416, 0.2551396, -3.435543e-7), (0.3581402, -0.023848716, 0.93336314), (0.3581402, -0.023848716, 0.93336314), (0.3581402, -0.023848716, 0.93336314), (0.3581402, -0.023848716, 0.93336314), (-0.97716933, -0.21246198, 3.2978727e-7), (-0.97716933, -0.21246202, 3.297873e-7), (-0.9771693, -0.21246216, 3.2182095e-7), (-0.9771693, -0.21246216, 3.2182098e-7), (0.050688215, 0.36982113, 0.9277193), (0.050688215, 0.36982113, 0.9277193), (0.050688215, 0.36982113, 0.9277193), (0.050688215, 0.36982113, 0.9277193), (0.007802832, -0.4410302, 0.89745826), (0.007802832, -0.4410302, 0.89745826), (0.007802832, -0.4410302, 0.89745826), (0.007802832, -0.4410302, 0.89745826), (0.008741583, -0.99996185, -1.3966859e-7), (0.008741583, -0.99996185, -1.3966859e-7), (0.008741583, -0.99996185, -1.3966859e-7), (0.008741583, -0.99996185, -1.3966859e-7), (-0.0006629599, 0.9999998, 9.055152e-8), (-0.0006629599, 0.9999998, 9.055152e-8), (0.0011614526, 0.99999934, 2.4870457e-7), (0.0011614528, 0.99999934, 2.4870457e-7), (3.1299404e-8, -1.9958047e-7, 1), (3.1299404e-8, -1.9958047e-7, 1), (3.1299404e-8, -1.9958047e-7, 1), (3.1299404e-8, -1.9958047e-7, 1), (3.1299404e-8, -1.9958047e-7, 1), (3.1299404e-8, -1.9958047e-7, 1), (3.1299404e-8, -1.9958047e-7, 1), (3.1299404e-8, -1.9958047e-7, 1), (-0.047396693, -0.99887615, -5.9724506e-8), (-0.047396693, -0.99887615, -5.9724506e-8), (-0.047396693, -0.99887615, -5.9724506e-8), (-0.047396693, -0.99887615, -5.9724506e-8), (-0.011268076, 0.37027308, 0.92885464), (-0.011268076, 0.37027308, 0.92885464), (-0.011268076, 0.37027308, 0.92885464), (-0.011268076, 0.37027308, 0.92885464), (-0.042314377, -0.44064796, 0.8966822), (-0.042314377, -0.44064796, 0.8966822), (-0.042314377, -0.44064796, 0.8966822), (-0.042314377, -0.44064796, 0.8966822), (0.97532797, 0.22076091, -3.2281767e-7), (0.97532797, 0.22076091, -3.2281767e-7), (0.97625744, 0.21661337, -3.1383416e-7), (0.97625744, 0.21661337, -3.1383416e-7), (0.98911536, 0.14714244, -3.189667e-7), (0.98911536, 0.14714244, -3.189667e-7), (0.98911536, 0.14714244, -3.189667e-7), (0.98911536, 0.14714244, -3.189667e-7), (-0.97716933, -0.21246216, 3.215236e-7), (-0.97716933, -0.21246216, 3.215236e-7), (-0.9771693, -0.2124622, 3.255031e-7), (-0.97716933, -0.2124622, 3.2550307e-7), (-0.97716933, -0.2124622, 3.2550307e-7), (-0.9771693, -0.2124622, 3.255031e-7), (-0.97716933, -0.21246219, 3.3244964e-7), (-0.97716933, -0.21246217, 3.3244964e-7), (8.206465e-9, -1.3382289e-8, 1), (8.206465e-9, -1.3382289e-8, 1), (8.206465e-9, -1.3382289e-8, 1), (8.206465e-9, -1.3382289e-8, 1), (8.206465e-9, -1.3382289e-8, 1), (8.206465e-9, -1.3382289e-8, 1), (8.206465e-9, -1.3382289e-8, 1), (8.206465e-9, -1.3382289e-8, 1), (8.206465e-9, -1.3382289e-8, 1), (8.206465e-9, -1.3382289e-8, 1), (8.206465e-9, -1.3382289e-8, 1), (8.206465e-9, -1.3382289e-8, 1), (8.206465e-9, -1.3382289e-8, 1), (8.206465e-9, -1.3382289e-8, 1), (8.206465e-9, -1.3382289e-8, 1), (8.206465e-9, -1.3382289e-8, 1), (-0.48152754, -0.104696125, 0.8701552), (-0.48152727, -0.104696766, 0.87015516), (-0.48152727, -0.10469677, 0.87015516), (-0.48152754, -0.104696125, 0.8701552), (-0.48152727, -0.104696766, 0.87015516), (-0.4815275, -0.10469674, 0.87015504), (-0.48152754, -0.10469676, 0.8701551), (-0.48152727, -0.10469677, 0.87015516), (-0.4815275, -0.10469674, 0.87015504), (-0.48152772, -0.10469635, 0.87015504), (-0.48152775, -0.104696356, 0.87015504), (-0.48152754, -0.10469676, 0.8701551), (0.48152676, 0.10469659, 0.8701555), (0.48152676, 0.10469659, 0.8701555), (0.48152676, 0.10469659, 0.8701555), (0.48152676, 0.10469659, 0.8701555), (0.36190903, 0.18990284, 0.9126657), (0.36190903, 0.18990284, 0.9126657), (0.36190903, 0.18990284, 0.9126657), (0.36190903, 0.18990284, 0.9126657), (0.40808824, -0.02248489, 0.9126655), (0.40808824, -0.02248489, 0.9126655), (0.40808824, -0.02248489, 0.9126655), (0.40808824, -0.02248489, 0.9126655), (-0.97716933, -0.21246217, 3.3244964e-7), (-0.97716933, -0.21246219, 3.3244964e-7), (-0.97716933, -0.21246202, 3.297873e-7), (-0.97716933, -0.21246198, 3.2978727e-7), (0.97716933, 0.21246186, -3.1445947e-7), (0.97716933, 0.21246186, -3.1445947e-7), (0.9780636, 0.20830661, -3.1176788e-7), (0.9780636, 0.20830658, -3.1176788e-7), (0.9780636, 0.20830658, -3.1176788e-7), (0.9780636, 0.20830661, -3.1176788e-7), (0.97894025, 0.20414758, -3.0907069e-7), (0.97894025, 0.20414758, -3.0907069e-7), (-1, 0, 3.2562576e-7), (-1, 0, 3.2562576e-7), (-1, 0, 3.2562576e-7), (-1, 0, 3.2562576e-7), (0.70710725, -0.70710623, -3.029621e-7), (0.70710725, -0.70710623, -3.029621e-7), (0.70710725, -0.70710623, -3.029621e-7), (0.70710725, -0.70710623, -3.029621e-7), (0.54072684, 0.8411982, -1.0504193e-7), (0.54072684, 0.8411982, -1.0504193e-7), (0.54072684, 0.8411982, -1.0504193e-7), (0.54072684, 0.8411982, -1.0504193e-7), (-0.84119505, 0.54073185, 2.9095224e-7), (-0.84119505, 0.54073185, 2.9095224e-7), (-0.84119505, 0.54073185, 2.9095224e-7), (-0.84119505, 0.54073185, 2.9095224e-7), (-3.8935323e-7, -1, -7.31244e-8), (-3.8935323e-7, -1, -7.31244e-8), (-3.8935323e-7, -1, -7.31244e-8), (-3.8935323e-7, -1, -7.31244e-8), (0.97625744, 0.21661337, -3.1383416e-7), (0.97625744, 0.21661337, -3.1383416e-7), (0.97716933, 0.21246193, -3.0484506e-7), (0.97716933, 0.21246193, -3.0484506e-7), (-0.4420239, -0.4420251, -0.780531), (-0.4420239, -0.4420251, -0.780531), (-0.4420239, -0.4420251, -0.780531), (-0.44202307, 0.44202283, -0.7805328), (-0.44202307, 0.44202283, -0.7805328), (-0.44202307, 0.44202283, -0.7805328), (0.44202283, -0.44202527, -0.7805316), (0.44202283, -0.44202527, -0.7805316), (0.44202283, -0.44202527, -0.7805316), (0.44202232, 0.442023, -0.78053313), (0.44202232, 0.442023, -0.78053313), (0.44202232, 0.442023, -0.78053313), (-0.52584463, 0.33802107, -0.78053135), (-0.52584463, 0.33802107, -0.78053135), (-0.52584463, 0.33802107, -0.78053135), (0.33801687, 0.52584743, -0.7805313), (0.33801687, 0.52584743, -0.7805313), (0.33801687, 0.52584743, -0.7805313), (-0.33802104, -0.5258468, -0.7805298), (-0.33802104, -0.5258468, -0.7805298), (-0.33802104, -0.5258468, -0.7805298), (0.5258466, -0.33802032, -0.7805304), (0.5258466, -0.33802032, -0.7805304), (0.5258466, -0.33802032, -0.7805304), (-6.7912754e-7, -0.49277848, -0.87015474), (-6.7912754e-7, -0.49277848, -0.87015474), (-6.7912754e-7, -0.49277848, -0.87015474), (-6.7912754e-7, -0.49277848, -0.87015474), (-6.0143225e-7, 0.49277762, -0.87015533), (-6.0143225e-7, 0.49277762, -0.87015533), (-6.0143225e-7, 0.49277762, -0.87015533), (-6.0143225e-7, 0.49277762, -0.87015533), (-0.49277836, 1.5164595e-7, -0.8701549), (-0.49277836, 1.5164595e-7, -0.8701549), (-0.49277836, 1.5164595e-7, -0.8701549), (-0.49277836, 1.5164595e-7, -0.8701549), (0.49277747, 1.2131679e-7, -0.87015533), (0.49277747, 1.2131679e-7, -0.87015533), (0.49277747, 1.2131679e-7, -0.87015533), (0.49277747, 1.2131679e-7, -0.87015533), (-0.4815284, -0.1046963, -0.8701546), (-0.4815284, -0.10469632, -0.8701547), (-0.4815289, -0.10469612, -0.8701544), (-0.4815289, -0.10469612, -0.8701544), (0.48152706, 0.104696676, -0.8701552), (0.48152706, 0.104696676, -0.8701552), (0.48152706, 0.104696676, -0.8701552), (0.48152706, 0.104696676, -0.8701552), (-0.10469742, 0.48152974, -0.8701537), (-0.10469742, 0.48152974, -0.8701537), (-0.10469742, 0.48152974, -0.8701537), (-0.10469742, 0.48152974, -0.8701537), (0.104696654, -0.48153043, -0.8701534), (0.104696654, -0.48153043, -0.8701534), (0.104696654, -0.48153043, -0.8701534), (0.104696654, -0.48153043, -0.8701534), (0.48152822, 0.10469681, -0.8701547), (0.48152822, 0.10469681, -0.8701547), (0.48152822, 0.10469681, -0.8701547), (0.48152822, 0.10469681, -0.8701547), (-0.481528, -0.10469646, -0.8701548), (-0.4815281, -0.104696475, -0.8701548), (-0.4815284, -0.10469632, -0.8701547), (-0.4815284, -0.1046963, -0.8701546), (-0.48152816, -0.104696356, -0.87015474), (-0.48152813, -0.104696356, -0.87015474), (-0.4815281, -0.104696475, -0.8701548), (-0.481528, -0.10469646, -0.8701548), (0.3239799, 0.13780625, -0.9359736), (0.3239799, 0.13780625, -0.9359736), (0.3239799, 0.13780625, -0.9359736), (0.3239799, 0.13780625, -0.9359736), (-0.48152807, -0.10469647, -0.8701548), (-0.48152804, -0.10469646, -0.8701548), (-0.48152813, -0.104696356, -0.87015474), (-0.48152816, -0.104696356, -0.87015474), (0.35814026, -0.023848087, -0.93336314), (0.35814026, -0.023848087, -0.93336314), (0.35814026, -0.023848087, -0.93336314), (0.35814026, -0.023848087, -0.93336314), (0.050687734, 0.3698216, -0.9277191), (0.050687734, 0.3698216, -0.9277191), (0.050687734, 0.3698216, -0.9277191), (0.050687734, 0.3698216, -0.9277191), (0.007802175, -0.44102857, -0.89745915), (0.007802175, -0.44102857, -0.89745915), (0.007802175, -0.44102857, -0.89745915), (0.007802175, -0.44102857, -0.89745915), (-6.475064e-7, 1.6678919e-7, -1), (-6.475064e-7, 1.6678919e-7, -1), (-6.475064e-7, 1.6678919e-7, -1), (-6.475064e-7, 1.6678919e-7, -1), (-6.475064e-7, 1.6678919e-7, -1), (-6.475064e-7, 1.6678919e-7, -1), (-6.475064e-7, 1.6678919e-7, -1), (-6.475064e-7, 1.6678919e-7, -1), (-0.011268788, 0.3702739, -0.9288543), (-0.011268788, 0.3702739, -0.9288543), (-0.011268788, 0.3702739, -0.9288543), (-0.011268788, 0.3702739, -0.9288543), (-0.04231529, -0.4406472, -0.8966825), (-0.04231529, -0.4406472, -0.8966825), (-0.04231529, -0.4406472, -0.8966825), (-0.04231529, -0.4406472, -0.8966825), (-6.8344474e-7, 2.4676137e-7, -1), (-6.8344474e-7, 2.4676137e-7, -1), (-6.8344474e-7, 2.4676137e-7, -1), (-6.8344474e-7, 2.4676137e-7, -1), (-6.8344474e-7, 2.4676137e-7, -1), (-6.8344474e-7, 2.4676137e-7, -1), (-6.8344474e-7, 2.4676137e-7, -1), (-6.8344474e-7, 2.4676137e-7, -1), (-6.8344474e-7, 2.4676137e-7, -1), (-6.8344474e-7, 2.4676137e-7, -1), (-6.8344474e-7, 2.4676137e-7, -1), (-6.8344474e-7, 2.4676137e-7, -1), (-6.8344474e-7, 2.4676137e-7, -1), (-6.8344474e-7, 2.4676137e-7, -1), (-6.8344474e-7, 2.4676137e-7, -1), (-6.8344474e-7, 2.4676137e-7, -1), (-0.481528, -0.10469644, -0.87015486), (-0.481528, -0.10469644, -0.87015486), (-0.48152786, -0.104696564, -0.87015486), (-0.48152786, -0.104696564, -0.87015486), (-0.48152786, -0.104696564, -0.87015486), (-0.48152786, -0.104696564, -0.87015486), (-0.48152784, -0.10469666, -0.8701549), (-0.4815279, -0.104696676, -0.8701549), (-0.4815279, -0.104696676, -0.8701549), (-0.48152784, -0.10469666, -0.8701549), (-0.48152804, -0.10469646, -0.8701548), (-0.48152807, -0.10469647, -0.8701548), (0.48152694, 0.10469668, -0.87015545), (0.48152694, 0.10469668, -0.87015545), (0.48152694, 0.10469668, -0.87015545), (0.48152694, 0.10469668, -0.87015545), (0.36190832, 0.18990338, -0.9126659), (0.36190832, 0.18990338, -0.9126659), (0.36190832, 0.18990338, -0.9126659), (0.36190832, 0.18990338, -0.9126659), (0.40808722, -0.022484886, -0.91266596), (0.40808722, -0.022484886, -0.91266596), (0.40808722, -0.022484886, -0.91266596), (0.40808722, -0.022484886, -0.91266596), (0.7071073, 0.7071064, 8.582063e-8), (0.7071073, 0.7071064, 8.582063e-8), (0.7071073, 0.7071064, 8.582063e-8), (0.7071073, 0.7071064, 8.582063e-8), (3.4618597e-7, 0.04114215, 0.9991533), (3.4618597e-7, 0.04114215, 0.9991533), (3.4618597e-7, 0.04114215, 0.9991533), (3.4618597e-7, 0.04114215, 0.9991533), (-3.3811764e-7, 0.027184267, -0.99963045), (-3.3811764e-7, 0.027184267, -0.99963045), (-3.3811764e-7, 0.027184267, -0.99963045), (-3.3811764e-7, 0.027184267, -0.99963045), (-3.380761e-7, -0.041142125, -0.9991533), (-3.380761e-7, -0.041142125, -0.9991533), (-3.380761e-7, -0.041142125, -0.9991533), (-3.380761e-7, -0.041142125, -0.9991533), (-0.83453, 0.21665815, 0.5065756), (-0.83453, 0.21665815, 0.5065756), (-0.83453, 0.21665815, 0.5065756), (-0.83453, 0.21665815, 0.5065756), (-0.86039454, -0.14659041, 0.48809066), (-0.86039454, -0.14659041, 0.48809066), (-0.86039454, -0.14659041, 0.48809066), (-0.86039454, -0.14659041, 0.48809066), (1.7979909e-7, -0.8761739, 0.48199505), (1.7979909e-7, -0.8761739, 0.48199505), (1.7979909e-7, -0.8761739, 0.48199505), (1.7979909e-7, -0.8761739, 0.48199505), (0.8345302, 0.21665815, 0.50657535), (0.8345302, 0.21665815, 0.50657535), (0.8345302, 0.21665815, 0.50657535), (0.8345302, 0.21665815, 0.50657535), (1.7338174e-7, 0.88936985, 0.45718846), (1.7338174e-7, 0.88936985, 0.45718846), (1.7338174e-7, 0.88936985, 0.45718846), (1.7338174e-7, 0.88936985, 0.45718846), (0.8603948, -0.14659049, 0.48809013), (0.8603948, -0.14659049, 0.48809013), (0.8603948, -0.14659049, 0.48809013), (0.8603948, -0.14659049, 0.48809013)] (
                interpolation = "faceVarying"
            )
            point3f[] points = [(-0.2098908, 0.35494515, 0.2318953), (-0.22889085, 0.35494518, 0.22113535), (-0.2098908, 0.33594525, 0.22113535), (-0.2098908, 0.7255227, 0.22113542), (-0.22889085, 0.70652264, 0.22113541), (-0.2098908, 0.70652264, 0.23189536), (0.47941533, 0.335945, 0.22113535), (0.49841538, 0.35494506, 0.22113535), (0.47941536, 0.35494503, 0.23189528), (0.49841538, 0.70652264, 0.22113541), (0.47941533, 0.7255227, 0.22113542), (0.47941536, 0.70652264, 0.23189534), (-0.4339084, 0.197241, 0.16231276), (-0.4379452, 0.21580712, 0.15155283), (-0.45247465, 0.19320421, 0.15155283), (-0.08113716, 0.27394244, 0.15155283), (-0.103740185, 0.2884718, 0.15155283), (-0.09970342, 0.26990566, 0.16231275), (-0.31049633, -0.45979246, 0.15155284), (-0.2878934, -0.4743218, 0.15155283), (-0.29193014, -0.45575568, 0.16231275), (0.04631168, -0.40165702, 0.15155281), (0.060841057, -0.37905416, 0.15155281), (0.04227493, -0.38309088, 0.16231273), (-0.33604693, -0.3422782, 0.15155284), (-0.31748068, -0.33824137, 0.16231276), (0.035290543, -0.2615398, 0.15155283), (0.016724281, -0.26557657, 0.16231273), (-0.33216518, -0.27070346, 0.16231275), (0.017639345, -0.19464694, 0.15155281), (-0.35073143, -0.27474025, 0.15155281), (-0.020701878, -0.20298328, 0.16231273), (-0.34186316, -0.22609998, 0.16231273), (0.010908102, -0.14939843, 0.15155283), (-0.3604294, -0.23013677, 0.15155283), (-0.007658175, -0.15343519, 0.16231275), (0.11363558, 0.3387735, 0.22113535), (0.11363558, 0.3635647, 0.23189528), (0.15134637, 0.7255227, 0.22113544), (0.15134637, 0.70652264, 0.23189536), (0.17324273, 0.33594513, 0.22113535), (0.21095352, 0.69036096, 0.23189533), (0.17324273, 0.35494503, 0.23189525), (0.21095352, 0.7253447, 0.22113541), (-0.41115695, 0.09260099, 0.16231278), (-0.41558415, 0.1129628, 0.16231275), (-0.42001134, 0.1333246, 0.16231276), (-0.05838574, 0.1693026, 0.15155281), (-0.062639825, 0.18970202, 0.15155281), (-0.06724011, 0.21002619, 0.1515528), (-0.4385776, 0.12928781, 0.15155286), (-0.4341504, 0.10892601, 0.15155283), (-0.4297232, 0.0885642, 0.15155283), (-0.08580638, 0.2059894, 0.16231273), (-0.09278509, 0.18314768, 0.16231275), (-0.076952, 0.16526578, 0.16231275), (-0.20989087, 0.3549452, -0.018432695), (-0.22889093, 0.3549452, -0.007672755), (-0.20989087, 0.33594528, -0.0076727723), (-0.20989087, 0.72552276, -0.0076726964), (-0.22889093, 0.7065227, -0.0076726866), (-0.20989087, 0.7065227, -0.018432627), (0.47941527, 0.33594504, -0.007673213), (0.49841532, 0.3549451, -0.007673223), (0.47941527, 0.3549451, -0.018433144), (0.49841532, 0.7065227, -0.007673162), (0.47941527, 0.72552276, -0.007673152), (0.47941527, 0.7065227, -0.018433075), (-0.43390846, 0.197241, -0.024189912), (-0.43794525, 0.21580712, -0.013429981), (-0.4524747, 0.19320421, -0.013429981), (-0.08113722, 0.27394247, -0.013430213), (-0.103740245, 0.28847182, -0.013430195), (-0.09970348, 0.2699057, -0.024190128), (-0.3104964, -0.45979244, -0.013430235), (-0.28789347, -0.47432184, -0.013430253), (-0.2919302, -0.4557557, -0.024190176), (0.046311628, -0.401657, -0.013430467), (0.060841005, -0.37905413, -0.013430467), (0.04227487, -0.38309085, -0.024190381), (-0.336047, -0.34227818, -0.013430182), (-0.31748074, -0.33824134, -0.024190113), (0.03529049, -0.26153982, -0.013430421), (0.016724221, -0.2655766, -0.024190329), (-0.33216524, -0.27070343, -0.024190096), (0.01763929, -0.19464694, -0.013430395), (-0.3507315, -0.27474022, -0.013430163), (-0.020701937, -0.20298325, -0.024190295), (-0.34186321, -0.22609995, -0.024190078), (0.010908048, -0.14939843, -0.013430377), (-0.36042947, -0.23013674, -0.013430137), (-0.007658236, -0.15343516, -0.024190284), (0.1136355, 0.33877352, -0.007672989), (0.113635495, 0.36356476, -0.018432904), (0.1513463, 0.72552276, -0.007672941), (0.1513463, 0.7065227, -0.018432878), (0.17324266, 0.33594516, -0.0076730237), (0.21095344, 0.690361, -0.018432902), (0.17324266, 0.3549451, -0.018432925), (0.21095344, 0.7253448, -0.0076729753), (-0.411157, 0.09260101, -0.024189962), (-0.4155842, 0.11296282, -0.024189949), (-0.4200114, 0.13332461, -0.024189938), (-0.058385793, 0.1693026, -0.013430263), (-0.062639885, 0.18970205, -0.013430249), (-0.06724017, 0.21002622, -0.013430228), (-0.43857765, 0.12928782, -0.013430005), (-0.43415046, 0.10892603, -0.013430017), (-0.42972326, 0.08856422, -0.01343003), (-0.08580644, 0.20598944, -0.024190143), (-0.09278515, 0.18314768, -0.024190154), (-0.07695206, 0.16526581, -0.024190178), (0.16492194, -0.14501382, 0.0013972296), (0.42988157, -0.14501382, 0.0013971322), (0.1649219, -0.4427188, 0.0013972053), (0.4298816, -0.4427188, 0.0013971078), (0.13714036, -0.26342398, 0.006273006), (0.45766312, -0.26342398, 0.0062729055), (0.21491018, -0.19927694, 0.106955454), (0.19761135, -0.27300775, 0.10999146), (0.21491015, -0.38464975, 0.10695544), (0.37989336, -0.19927694, 0.10695539), (0.39719218, -0.27300775, 0.10999141), (0.3798934, -0.38464975, 0.10695537)]
            uniform token subdivisionScheme = "none"
            custom string userProperties:blender:data_name = "Cube.032"
        }
    }

    def Scope "_materials"
    {
        def Material "Grey_Floor"
        {
            token outputs:surface.connect = </root/_materials/Grey_Floor/Principled_BSDF.outputs:surface>
            custom string userProperties:blender:data_name = "Grey_Floor"

            def Shader "Principled_BSDF"
            {
                uniform token info:id = "UsdPreviewSurface"
                float inputs:clearcoat = 0
                float inputs:clearcoatRoughness = 0.03
                color3f inputs:diffuseColor = (0.0740658, 0.071465924, 0.102466814)
                float inputs:ior = 1.5
                float inputs:metallic = 0
                float inputs:opacity = 1
                float inputs:roughness = 0.6900348
                float inputs:specular = 0.5
                token outputs:surface
            }
        }
    }
}

