#usda 1.0
(
    defaultPrim = "root"
    doc = "Blender v5.1.2"
    metersPerUnit = 1
    upAxis = "Y"
)

def Xform "root" (
    customData = {
        dictionary Blender = {
            bool generated = 1
        }
    }
)
{
    float3 xformOp:rotateXYZ = (-90, -0, 0)
    uniform token[] xformOpOrder = ["xformOp:rotateXYZ"]

    def Xform "Torch"
    {
        custom string userProperties:blender:object_name = "Torch"

        def Mesh "Cylinder_018" (
            active = true
            prepend apiSchemas = ["MaterialBindingAPI"]
        )
        {
            uniform bool doubleSided = 1
            float3[] extent = [(-0.1391373, -0.14410406, -0.27078488), (0.1391373, 0.29354316, 0.87986326)]
            int[] faceVertexCounts = [4, 4, 4, 4, 4, 4, 4, 4, 4, 4, 4, 4, 4, 4, 6, 4, 4, 4, 4, 4, 4, 4, 4, 4, 4, 4, 4, 4, 4, 4, 4, 4, 4, 4, 4, 4, 4, 4, 4, 4, 4, 4, 4, 4, 4, 4, 4, 4, 4, 4, 4, 4, 4, 4, 4, 4, 4, 4, 4, 4, 4, 4, 4, 4, 4, 4, 4, 4, 4, 4, 4, 4, 4, 4, 4, 4, 4, 4, 4, 4, 4, 4, 4, 4, 4, 4, 4, 4, 4, 4, 4, 4, 4, 4, 4, 4, 4, 4, 4, 4, 4, 4, 4, 4, 4, 4, 4, 4, 4, 4, 4, 4, 4, 4, 4, 4, 4, 4, 4, 4, 4, 4, 4, 4, 4, 4, 4, 4, 4, 4, 4, 4, 4, 4, 4, 4, 4, 4, 4, 4, 4, 4, 4, 4, 4, 4, 4, 4, 4, 4, 4, 4, 4, 4, 4, 4, 4, 4, 4, 4, 4, 4, 4, 4, 4, 4, 4, 4, 4, 4, 4, 4, 4, 4, 4, 4, 4, 4, 4, 4, 4, 4, 4, 4, 3, 4, 4, 4, 4, 4, 3, 3, 3, 3, 3]
            int[] faceVertexIndices = [139, 11, 1, 138, 142, 5, 7, 141, 141, 7, 9, 140, 140, 9, 11, 139, 1, 11, 35, 31, 13, 10, 8, 15, 143, 3, 5, 142, 138, 1, 3, 143, 13, 15, 14, 12, 15, 17, 16, 14, 17, 19, 18, 16, 19, 21, 20, 18, 21, 23, 22, 20, 23, 13, 12, 22, 12, 14, 16, 18, 20, 22, 15, 8, 4, 17, 21, 0, 6, 23, 19, 2, 0, 21, 17, 4, 2, 19, 23, 6, 10, 13, 6, 0, 151, 155, 8, 10, 154, 150, 24, 29, 173, 168, 0, 2, 152, 151, 2, 4, 153, 152, 29, 28, 172, 173, 31, 35, 41, 37, 9, 7, 33, 34, 5, 3, 30, 32, 11, 9, 34, 35, 3, 1, 31, 30, 7, 5, 32, 33, 41, 40, 46, 47, 34, 33, 39, 40, 32, 30, 36, 38, 35, 34, 40, 41, 33, 32, 38, 39, 30, 31, 37, 36, 43, 47, 53, 49, 39, 38, 44, 45, 36, 37, 43, 42, 37, 41, 47, 43, 40, 39, 45, 46, 38, 36, 42, 44, 53, 52, 58, 59, 46, 45, 51, 52, 44, 42, 48, 50, 47, 46, 52, 53, 45, 44, 50, 51, 42, 43, 49, 48, 55, 59, 65, 61, 51, 50, 56, 57, 48, 49, 55, 54, 49, 53, 59, 55, 52, 51, 57, 58, 50, 48, 54, 56, 65, 64, 186, 187, 58, 57, 63, 64, 56, 54, 60, 62, 59, 58, 64, 65, 57, 56, 62, 63, 54, 55, 61, 60, 67, 66, 68, 69, 71, 73, 72, 70, 115, 70, 72, 114, 114, 72, 73, 116, 116, 73, 71, 117, 117, 71, 70, 115, 75, 74, 76, 77, 79, 81, 80, 78, 131, 78, 80, 130, 130, 80, 81, 132, 132, 81, 79, 133, 133, 79, 78, 131, 83, 82, 84, 85, 87, 89, 88, 86, 135, 86, 88, 134, 134, 88, 89, 136, 136, 89, 87, 137, 137, 87, 86, 135, 91, 90, 92, 93, 95, 97, 96, 94, 127, 94, 96, 126, 126, 96, 97, 128, 128, 97, 95, 129, 129, 95, 94, 127, 99, 98, 100, 101, 103, 105, 104, 102, 123, 102, 104, 122, 122, 104, 105, 124, 124, 105, 103, 125, 125, 103, 102, 123, 107, 106, 108, 109, 111, 113, 112, 110, 119, 110, 112, 118, 118, 112, 113, 120, 120, 113, 111, 121, 121, 111, 110, 119, 67, 117, 115, 66, 69, 116, 117, 67, 68, 114, 116, 69, 66, 115, 114, 68, 107, 121, 119, 106, 109, 120, 121, 107, 108, 118, 120, 109, 106, 119, 118, 108, 99, 125, 123, 98, 101, 124, 125, 99, 100, 122, 124, 101, 98, 123, 122, 100, 91, 129, 127, 90, 93, 128, 129, 91, 92, 126, 128, 93, 90, 127, 126, 92, 75, 133, 131, 74, 77, 132, 133, 75, 76, 130, 132, 77, 74, 131, 130, 76, 83, 137, 135, 82, 85, 136, 137, 83, 84, 134, 136, 85, 82, 135, 134, 84, 141, 140, 162, 163, 145, 146, 166, 165, 146, 147, 167, 166, 140, 139, 159, 162, 148, 149, 158, 156, 139, 138, 157, 159, 154, 172, 171, 150, 29, 149, 148, 28, 26, 146, 145, 25, 25, 145, 144, 24, 24, 144, 149, 29, 27, 147, 146, 26, 25, 24, 168, 169, 155, 173, 172, 154, 153, 170, 169, 152, 152, 169, 168, 151, 151, 168, 173, 155, 160, 161, 179, 178, 156, 157, 160, 167, 171, 170, 177, 176, 164, 162, 159, 158, 165, 163, 162, 164, 166, 161, 163, 165, 158, 159, 157, 156, 147, 148, 156, 167, 138, 143, 160, 157, 144, 145, 165, 164, 142, 141, 163, 161, 143, 142, 161, 160, 149, 144, 164, 158, 28, 148, 147, 27, 10, 6, 155, 154, 28, 27, 171, 172, 4, 8, 150, 153, 26, 25, 169, 170, 27, 26, 170, 171, 174, 176, 177, 175, 181, 178, 179, 180, 161, 166, 180, 179, 150, 171, 176, 174, 153, 150, 174, 175, 167, 160, 178, 181, 170, 153, 175, 177, 166, 167, 181, 180, 187, 186, 192, 193, 63, 62, 184, 185, 60, 61, 183, 182, 61, 65, 187, 183, 64, 63, 185, 186, 62, 60, 182, 184, 189, 193, 199, 195, 185, 184, 190, 191, 182, 183, 189, 188, 183, 187, 193, 189, 186, 185, 191, 192, 184, 182, 188, 190, 199, 198, 204, 205, 192, 191, 197, 198, 190, 188, 194, 196, 193, 192, 198, 199, 191, 190, 196, 197, 188, 189, 195, 194, 204, 203, 206, 197, 196, 202, 203, 194, 195, 201, 200, 195, 199, 205, 201, 198, 197, 203, 204, 196, 194, 200, 202, 202, 200, 206, 205, 204, 206, 203, 202, 206, 200, 201, 206, 201, 205, 206]
            rel material:binding = </root/_materials/DarkMetal>
            normal3f[] normals = [(-0.8653067, -0.49958518, -0.040730264), (-0.8653067, -0.49958518, -0.040730264), (-0.8653067, -0.49958518, -0.040730264), (-0.8653067, -0.49958518, -0.040730264), (0.86530674, 0.49958518, -0.04073026), (0.86530674, 0.49958518, -0.04073026), (0.86530674, 0.49958518, -0.04073026), (0.86530674, 0.49958518, -0.04073026), (0.86530674, -0.4995851, -0.040730257), (0.86530674, -0.4995851, -0.040730257), (0.86530674, -0.4995851, -0.040730257), (0.86530674, -0.4995851, -0.040730257), (0, -0.9991702, -0.040730286), (0, -0.9991702, -0.040730286), (0, -0.9991702, -0.040730286), (0, -0.9991702, -0.040730286), (-0.44805273, -0.2586842, -0.85576355), (-0.44805273, -0.2586842, -0.85576355), (-0.44805273, -0.2586842, -0.85576355), (-0.44805273, -0.2586842, -0.85576355), (-0.8545592, 0.49337998, 0.1621876), (-0.8545592, 0.49337998, 0.1621876), (-0.8545592, 0.49337998, 0.1621876), (-0.8545592, 0.49337998, 0.1621876), (6.2574344e-8, 0.9991701, -0.04073029), (6.2574344e-8, 0.9991701, -0.04073029), (6.2574344e-8, 0.9991701, -0.04073029), (6.2574344e-8, 0.9991701, -0.04073029), (-0.86530674, 0.49958515, -0.04073027), (-0.86530674, 0.49958515, -0.04073027), (-0.86530674, 0.49958515, -0.04073027), (-0.86530674, 0.49958515, -0.04073027), (-0.85759395, 0.49513167, -0.13920224), (-0.85759395, 0.49513167, -0.13920224), (-0.85759395, 0.49513167, -0.13920224), (-0.85759395, 0.49513167, -0.13920224), (1.3845771e-7, 0.990264, -0.13920239), (1.3845771e-7, 0.990264, -0.13920239), (1.3845771e-7, 0.990264, -0.13920239), (1.3845771e-7, 0.990264, -0.13920239), (0.85759383, 0.4951318, -0.13920228), (0.85759383, 0.4951318, -0.13920228), (0.85759383, 0.4951318, -0.13920228), (0.85759383, 0.4951318, -0.13920228), (0.8575937, -0.49513218, -0.1392023), (0.8575937, -0.49513218, -0.1392023), (0.8575937, -0.49513218, -0.1392023), (0.8575937, -0.49513218, -0.1392023), (0, -0.990264, -0.13920237), (0, -0.990264, -0.13920237), (0, -0.990264, -0.13920237), (0, -0.990264, -0.13920237), (-0.8575936, -0.49513218, -0.13920231), (-0.8575936, -0.49513218, -0.13920231), (-0.8575936, -0.49513218, -0.13920231), (-0.8575936, -0.49513218, -0.13920231), (-1.7944295e-7, 0, -1), (-1.7944295e-7, 0, -1), (-1.7944295e-7, 0, -1), (-1.7944295e-7, 0, -1), (-1.7944295e-7, 0, -1), (-1.7944295e-7, 0, -1), (1.0407421e-7, 0.98675984, 0.16218759), (1.0407421e-7, 0.98675984, 0.16218759), (1.0407421e-7, 0.98675984, 0.16218759), (1.0407421e-7, 0.98675984, 0.16218759), (0, -0.98675996, 0.16218756), (0, -0.98675996, 0.16218756), (0, -0.98675996, 0.16218756), (0, -0.98675996, 0.16218756), (0.85455906, -0.49337998, 0.16218756), (0.85455906, -0.49337998, 0.16218756), (0.85455906, -0.49337998, 0.16218756), (0.85455906, -0.49337998, 0.16218756), (0.8545591, 0.49337998, 0.16218756), (0.8545591, 0.49337998, 0.16218756), (0.8545591, 0.49337998, 0.16218756), (0.8545591, 0.49337998, 0.16218756), (-0.8545591, -0.49337992, 0.16218752), (-0.8545591, -0.49337992, 0.16218752), (-0.8545591, -0.49337992, 0.16218752), (-0.8545591, -0.49337992, 0.16218752), (0, -0.21564358, -0.9764721), (0, -0.21564358, -0.9764721), (0, -0.21564358, -0.9764721), (0, -0.21564358, -0.9764721), (-0.18675329, 0.107821755, -0.9764721), (-0.18675329, 0.107821755, -0.9764721), (-0.18675329, 0.107821755, -0.9764721), (-0.18675329, 0.107821755, -0.9764721), (-3.567547e-7, -0.26666018, 0.96379066), (-3.567547e-7, -0.26666018, 0.96379066), (-3.567547e-7, -0.26666018, 0.96379066), (-3.567547e-7, -0.26666018, 0.96379066), (0.18675151, -0.10782179, -0.97647244), (0.18675151, -0.10782179, -0.97647244), (0.18675151, -0.10782179, -0.97647244), (0.18675151, -0.10782179, -0.97647244), (0.18675329, 0.10782175, -0.9764721), (0.18675329, 0.10782175, -0.9764721), (0.18675329, 0.10782175, -0.9764721), (0.18675329, 0.10782175, -0.9764721), (-0.23093443, -0.13333072, 0.9637906), (-0.23093443, -0.13333072, 0.9637906), (-0.23093443, -0.13333072, 0.9637906), (-0.23093443, -0.13333072, 0.9637906), (-0.8660256, -0.49999967, 5.3760278e-8), (-0.8660256, -0.49999967, 5.3760278e-8), (-0.8660256, -0.49999967, 5.3760278e-8), (-0.8660256, -0.49999967, 5.3760278e-8), (0.44805333, -0.25868404, -0.8557632), (0.44805333, -0.25868404, -0.8557632), (0.44805333, -0.25868404, -0.8557632), (0.44805333, -0.25868404, -0.8557632), (1.2808825e-7, 0.5173679, -0.855763), (1.2808825e-7, 0.5173679, -0.855763), (1.2808825e-7, 0.5173679, -0.855763), (1.2808825e-7, 0.5173679, -0.855763), (0, -0.517368, -0.85576296), (0, -0.517368, -0.85576296), (0, -0.517368, -0.85576296), (0, -0.517368, -0.85576296), (-0.44805396, 0.25868395, -0.855763), (-0.44805396, 0.25868395, -0.855763), (-0.44805396, 0.25868395, -0.855763), (-0.44805396, 0.25868395, -0.855763), (0.44805396, 0.25868395, -0.855763), (0.44805396, 0.25868395, -0.855763), (0.44805396, 0.25868395, -0.855763), (0.44805396, 0.25868395, -0.855763), (4.808856e-7, 0.0000010594962, -1), (-4.808856e-7, 0.0000010594961, -1), (-4.8088555e-7, 0.0000010594962, -1), (4.8088555e-7, 0.0000010594963, -1), (0.8660256, -0.4999996, 5.3760278e-8), (0.8660256, -0.4999996, 5.3760278e-8), (0.8660256, -0.4999996, 5.3760278e-8), (0.8660256, -0.4999996, 5.3760278e-8), (9.3575984e-8, 1, 0), (9.3575984e-8, 1, 0), (9.3575984e-8, 1, 0), (9.3575984e-8, 1, 0), (0, -1, 0), (0, -1, 0), (0, -1, 0), (0, -1, 0), (0.8660253, 0.50000036, -5.3760367e-8), (0.8660253, 0.50000036, -5.3760367e-8), (0.8660253, 0.50000036, -5.3760367e-8), (0.8660253, 0.50000036, -5.3760367e-8), (-0.8660252, 0.5000003, -5.376036e-8), (-0.8660252, 0.5000003, -5.376036e-8), (-0.8660252, 0.5000003, -5.376036e-8), (-0.8660252, 0.5000003, -5.376036e-8), (-0.7999884, -0.46187377, -0.38300285), (-0.7999884, -0.46187377, -0.38300285), (-0.7999884, -0.46187377, -0.38300285), (-0.7999884, -0.46187377, -0.38300285), (-0.0000014426569, 0, -1), (-9.617713e-7, -0.0000010594961, -1), (-9.617713e-7, -0.0000010594962, -1), (-0.0000014426569, 0, -1), (9.617713e-7, -0.0000010594962, -1), (0.0000014426569, 2.7140501e-14, -1), (0.0000014426569, 2.7141196e-14, -1), (9.617714e-7, -0.0000010594961, -1), (0.0000014426569, 2.7140501e-14, -1), (4.808856e-7, 0.0000010594962, -1), (4.8088555e-7, 0.0000010594963, -1), (0.0000014426569, 2.7141196e-14, -1), (-4.808856e-7, 0.0000010594961, -1), (-0.0000014426569, 0, -1), (-0.0000014426569, 0, -1), (-4.8088555e-7, 0.0000010594962, -1), (-9.617713e-7, -0.0000010594961, -1), (9.617713e-7, -0.0000010594962, -1), (9.617714e-7, -0.0000010594961, -1), (-9.617713e-7, -0.0000010594962, -1), (0, 0, 1), (0, 0, 1), (0, 0, 1), (0, 0, 1), (0.79998857, -0.46187362, -0.3830028), (0.79998857, -0.46187362, -0.3830028), (0.79998857, -0.46187362, -0.3830028), (0.79998857, -0.46187362, -0.3830028), (1.4010933e-8, 0.92374724, -0.3830027), (1.4010933e-8, 0.92374724, -0.3830027), (1.4010933e-8, 0.92374724, -0.3830027), (1.4010933e-8, 0.92374724, -0.3830027), (0, -0.9237472, -0.38300294), (0, -0.9237472, -0.38300294), (0, -0.9237472, -0.38300294), (0, -0.9237472, -0.38300294), (0.79998857, 0.4618735, -0.3830027), (0.79998857, 0.4618735, -0.3830027), (0.79998857, 0.4618735, -0.3830027), (0.79998857, 0.4618735, -0.3830027), (-0.79998845, 0.46187368, -0.38300288), (-0.79998845, 0.46187368, -0.38300288), (-0.79998845, 0.46187368, -0.38300288), (-0.79998845, 0.46187368, -0.38300288), (0.7826223, 0.4518478, 0.42817765), (0.7826223, 0.4518478, 0.42817765), (0.7826223, 0.4518478, 0.42817765), (0.7826223, 0.4518478, 0.42817765), (0, 0, 1), (0, 0, 1), (0, 0, 1), (0, 0, 1), (-5.1737754e-7, 0, 1), (-5.173776e-7, 0, 1), (-5.1737754e-7, 0, 1), (-5.1737754e-7, 0, 1), (-5.173776e-7, 0, 1), (0, 0, 1), (0, 0, 1), (-5.1737754e-7, 0, 1), (0, 0, 1), (0, 0, 1), (0, 0, 1), (0, 0, 1), (0, 0, 1), (-5.1737754e-7, 0, 1), (-5.1737754e-7, 0, 1), (0, 0, 1), (5.8487836e-7, 0, 1), (-5.8487836e-7, 0, 1), (-5.8487853e-7, 0, 1), (5.848786e-7, 0, 1), (-0.7826223, 0.4518477, 0.42817762), (-0.7826223, 0.4518477, 0.42817762), (-0.7826223, 0.4518477, 0.42817762), (-0.7826223, 0.4518477, 0.42817762), (0, -0.9036947, 0.4281776), (0, -0.9036947, 0.4281776), (0, -0.9036947, 0.4281776), (0, -0.9036947, 0.4281776), (0, 0.90369487, 0.42817706), (0, 0.90369487, 0.42817706), (0, 0.90369487, 0.42817706), (0, 0.90369487, 0.42817706), (-0.78262264, -0.45184717, 0.4281773), (-0.78262264, -0.45184717, 0.4281773), (-0.78262264, -0.45184717, 0.4281773), (-0.78262264, -0.45184717, 0.4281773), (0.78262264, -0.45184717, 0.4281773), (0.78262264, -0.45184717, 0.4281773), (0.78262264, -0.45184717, 0.4281773), (0.78262264, -0.45184717, 0.4281773), (3.4937185e-7, 0, -1), (3.4937185e-7, 0, -1), (3.4937185e-7, 0, -1), (3.4937185e-7, 0, -1), (0, 0, 0.99999994), (0, 0, 0.99999994), (0, 0, 0.99999994), (0, 0, 0.99999994), (-0.9956985, -0.08177547, 0.04355501), (-0.9956985, -0.08177547, 0.04355501), (-0.9956985, -0.08177547, 0.04355501), (-0.9956985, -0.08177547, 0.04355501), (-0.0077324533, 0.9831637, -0.1825633), (-0.0077324533, 0.9831637, -0.1825633), (-0.0077324533, 0.9831637, -0.1825633), (-0.0077324533, 0.9831637, -0.1825633), (0.9964054, 0.08183338, 0.021897636), (0.9964054, 0.08183338, 0.021897636), (0.9964054, 0.08183338, 0.021897636), (0.9964054, 0.08183338, 0.021897636), (0.007685066, -0.9770944, 0.21266758), (0.007685066, -0.9770944, 0.21266758), (0.007685066, -0.9770944, 0.21266758), (0.007685066, -0.9770944, 0.21266758), (-0.0000015971274, 0, -1), (-0.0000015971274, 0, -1), (-0.0000015971274, 0, -1), (-0.0000015971274, 0, -1), (-0.0000015971274, 0, 1), (-0.0000015971274, 0, 1), (-0.0000015971274, 0, 1), (-0.0000015971274, 0, 1), (-0.42702937, -0.90318817, 0.043555044), (-0.42702937, -0.90318817, 0.043555044), (-0.42702937, -0.90318817, 0.043555044), (-0.42702937, -0.90318817, 0.043555044), (-0.85531104, 0.48488522, -0.18256344), (-0.85531104, 0.48488522, -0.18256344), (-0.85531104, 0.48488522, -0.18256344), (-0.85531104, 0.48488522, -0.18256344), (0.4273326, 0.9038292, 0.021897541), (0.4273326, 0.9038292, 0.021897541), (0.4273326, 0.9038292, 0.021897541), (0.4273326, 0.9038292, 0.021897541), (0.85003126, -0.4818914, 0.2126677), (0.85003126, -0.4818914, 0.2126677), (0.85003126, -0.4818914, 0.2126677), (0.85003126, -0.4818914, 0.2126677), (0, 0, -1), (0, 0, -1), (0, 0, -1), (0, 0, -1), (7.985633e-7, 0, 1), (7.985633e-7, 0, 1), (7.985633e-7, 0, 1), (7.985633e-7, 0, 1), (0.56866986, -0.8214119, 0.043555163), (0.56866986, -0.8214119, 0.043555163), (0.56866986, -0.8214119, 0.043555163), (0.56866986, -0.8214119, 0.043555163), (-0.84757817, -0.49827886, -0.1825636), (-0.84757817, -0.49827886, -0.1825636), (-0.84757817, -0.49827886, -0.1825636), (-0.84757817, -0.49827886, -0.1825636), (-0.56907266, 0.8219956, 0.021897743), (-0.56907266, 0.8219956, 0.021897743), (-0.56907266, 0.8219956, 0.021897743), (-0.56907266, 0.8219956, 0.021897743), (0.8423459, 0.4952029, 0.2126677), (0.8423459, 0.4952029, 0.2126677), (0.8423459, 0.4952029, 0.2126677), (0.8423459, 0.4952029, 0.2126677), (2.495512e-8, 0, -1), (2.495512e-8, 0, -1), (2.495512e-8, 0, -1), (2.495512e-8, 0, -1), (0, 0, 1), (0, 0, 1), (0, 0, 1), (0, 0, 1), (0.9956986, 0.08177635, 0.043555073), (0.9956986, 0.08177635, 0.043555073), (0.9956986, 0.08177635, 0.043555073), (0.9956986, 0.08177635, 0.043555073), (0.007733151, -0.98316365, -0.18256338), (0.007733151, -0.98316365, -0.18256338), (0.007733151, -0.98316365, -0.18256338), (0.007733151, -0.98316365, -0.18256338), (-0.9964053, -0.08183415, 0.02189758), (-0.9964053, -0.08183415, 0.02189758), (-0.9964053, -0.08183415, 0.02189758), (-0.9964053, -0.08183415, 0.02189758), (-0.007685587, 0.97709435, 0.21266764), (-0.007685587, 0.97709435, 0.21266764), (-0.007685587, 0.97709435, 0.21266764), (-0.007685587, 0.97709435, 0.21266764), (0, 0, -1), (0, 0, -1), (0, 0, -1), (0, 0, -1), (0, 0, 1), (0, 0, 1), (0, 0, 1), (0, 0, 1), (0.42702866, 0.9031886, 0.04355509), (0.42702866, 0.9031886, 0.04355509), (0.42702866, 0.9031886, 0.04355509), (0.42702866, 0.9031886, 0.04355509), (0.8553113, -0.48488477, -0.18256335), (0.8553113, -0.48488477, -0.18256335), (0.8553113, -0.48488477, -0.18256335), (0.8553113, -0.48488477, -0.18256335), (-0.4273322, -0.90382946, 0.021897575), (-0.4273322, -0.90382946, 0.021897575), (-0.4273322, -0.90382946, 0.021897575), (-0.4273322, -0.90382946, 0.021897575), (-0.8500313, 0.48189124, 0.21266767), (-0.8500313, 0.48189124, 0.21266767), (-0.8500313, 0.48189124, 0.21266767), (-0.8500313, 0.48189124, 0.21266767), (0.0000015971269, 0, -1), (0.0000015971269, 0, -1), (0.0000015971269, 0, -1), (0.0000015971269, 0, -1), (0.0000023956904, 0, 1), (0.0000023956904, 0, 1), (0.0000023956904, 0, 1), (0.0000023956904, 0, 1), (-0.56867003, 0.82141185, 0.043555085), (-0.56867003, 0.82141185, 0.043555085), (-0.56867003, 0.82141185, 0.043555085), (-0.56867003, 0.82141185, 0.043555085), (0.8475779, 0.49827927, -0.18256347), (0.8475779, 0.49827927, -0.18256347), (0.8475779, 0.49827927, -0.18256347), (0.8475779, 0.49827927, -0.18256347), (0.5690739, -0.8219948, 0.021897431), (0.5690739, -0.8219948, 0.021897431), (0.5690739, -0.8219948, 0.021897431), (0.5690739, -0.8219948, 0.021897431), (-0.84234565, -0.49520332, 0.21266754), (-0.84234565, -0.49520332, 0.21266754), (-0.84234565, -0.49520332, 0.21266754), (-0.84234565, -0.49520332, 0.21266754), (0.006901911, -0.87758803, -0.47936583), (0.006901911, -0.87758803, -0.47936583), (0.006901911, -0.87758803, -0.47936583), (0.006901911, -0.87758803, -0.47936583), (0.9951421, 0.08172961, -0.054885503), (0.9951421, 0.08172961, -0.054885503), (0.9951421, 0.08172961, -0.054885503), (0.9951421, 0.08172961, -0.054885503), (-0.007128805, 0.90638673, 0.422389), (-0.007128805, 0.90638673, 0.422389), (-0.007128805, 0.90638673, 0.422389), (-0.007128805, 0.90638673, 0.422389), (-0.99073213, -0.08136759, -0.10876227), (-0.99073213, -0.08136759, -0.10876227), (-0.99073213, -0.08136759, -0.10876227), (-0.99073213, -0.08136759, -0.10876227), (-0.7565619, -0.4447724, -0.4793659), (-0.7565619, -0.4447724, -0.4793659), (-0.7565619, -0.4447724, -0.4793659), (-0.7565619, -0.4447724, -0.4793659), (0.5683523, -0.82095265, -0.054885022), (0.5683523, -0.82095265, -0.054885022), (0.5683523, -0.82095265, -0.054885022), (0.5683523, -0.82095265, -0.054885022), (0.78138906, 0.4593674, 0.42238927), (0.78138906, 0.4593674, 0.42238927), (0.78138906, 0.4593674, 0.42238927), (0.78138906, 0.4593674, 0.42238927), (-0.5658332, 0.8173148, -0.1087623), (-0.5658332, 0.8173148, -0.1087623), (-0.5658332, 0.8173148, -0.1087623), (-0.5658332, 0.8173148, -0.1087623), (-0.76346487, 0.43281588, -0.47936603), (-0.76346487, 0.43281588, -0.47936603), (-0.76346487, 0.43281588, -0.47936603), (-0.76346487, 0.43281588, -0.47936603), (-0.4267905, -0.90268356, -0.054885376), (-0.4267905, -0.90268356, -0.054885376), (-0.4267905, -0.90268356, -0.054885376), (-0.4267905, -0.90268356, -0.054885376), (0.7885182, -0.4470192, 0.42238945), (0.7885182, -0.4470192, 0.42238945), (0.7885182, -0.4470192, 0.42238945), (0.7885182, -0.4470192, 0.42238945), (0.42489895, 0.89868325, -0.10876241), (0.42489895, 0.89868325, -0.10876241), (0.42489895, 0.89868325, -0.10876241), (0.42489895, 0.89868325, -0.10876241), (-0.006902302, 0.87758803, -0.47936594), (-0.006902302, 0.87758803, -0.47936594), (-0.006902302, 0.87758803, -0.47936594), (-0.006902302, 0.87758803, -0.47936594), (-0.9951421, -0.08173041, -0.054885387), (-0.9951421, -0.08173041, -0.054885387), (-0.9951421, -0.08173041, -0.054885387), (-0.9951421, -0.08173041, -0.054885387), (0.007128804, -0.9063865, 0.4223894), (0.007128804, -0.9063865, 0.4223894), (0.007128804, -0.9063865, 0.4223894), (0.007128804, -0.9063865, 0.4223894), (0.9907321, 0.08136851, -0.10876256), (0.9907321, 0.08136851, -0.10876256), (0.9907321, 0.08136851, -0.10876256), (0.9907321, 0.08136851, -0.10876256), (0.76346475, -0.432816, -0.47936606), (0.76346475, -0.432816, -0.47936606), (0.76346475, -0.432816, -0.47936606), (0.76346475, -0.432816, -0.47936606), (0.42679068, 0.90268344, -0.054885395), (0.42679068, 0.90268344, -0.054885395), (0.42679068, 0.90268344, -0.054885395), (0.42679068, 0.90268344, -0.054885395), (-0.78851795, 0.4470197, 0.42238942), (-0.78851795, 0.4470197, 0.42238942), (-0.78851795, 0.4470197, 0.42238942), (-0.78851795, 0.4470197, 0.42238942), (-0.4248992, -0.8986832, -0.10876224), (-0.4248992, -0.8986832, -0.10876224), (-0.4248992, -0.8986832, -0.10876224), (-0.4248992, -0.8986832, -0.10876224), (0.7565622, 0.44477174, -0.47936603), (0.7565622, 0.44477174, -0.47936603), (0.7565622, 0.44477174, -0.47936603), (0.7565622, 0.44477174, -0.47936603), (-0.56835127, 0.82095337, -0.05488581), (-0.56835127, 0.82095337, -0.05488581), (-0.56835127, 0.82095337, -0.05488581), (-0.56835127, 0.82095337, -0.05488581), (-0.78138924, -0.45936695, 0.42238954), (-0.78138924, -0.45936695, 0.42238954), (-0.78138924, -0.45936695, 0.42238954), (-0.78138924, -0.45936695, 0.42238954), (0.5658337, -0.81731445, -0.10876271), (0.5658337, -0.81731445, -0.10876271), (0.5658337, -0.81731445, -0.10876271), (0.5658337, -0.81731445, -0.10876271), (0.35199565, -0.2032265, 0.9136729), (0.35199565, -0.2032265, 0.9136729), (0.35199565, -0.2032265, 0.9136729), (0.35199565, -0.2032265, 0.9136729), (0.3644492, 0.21041618, -0.9071393), (0.3644492, 0.21041618, -0.9071393), (0.3644492, 0.21041618, -0.9071393), (0.3644492, 0.21041618, -0.9071393), (0, 0.4208322, -0.9071385), (0, 0.4208322, -0.9071385), (0, 0.4208322, -0.9071385), (0, 0.4208322, -0.9071385), (0, -0.40645233, 0.91367203), (0, -0.40645233, 0.91367203), (0, -0.40645233, 0.91367203), (0, -0.40645233, 0.91367203), (-0.3644524, -0.21041588, -0.9071381), (-0.3644524, -0.21041588, -0.9071381), (-0.3644524, -0.21041588, -0.9071381), (-0.3644524, -0.21041588, -0.9071381), (-0.35199535, -0.2032264, 0.9136729), (-0.35199535, -0.2032264, 0.9136729), (-0.35199535, -0.2032264, 0.9136729), (-0.35199535, -0.2032264, 0.9136729), (-0.8555306, 0.49394095, 0.15520859), (-0.8555306, 0.49394095, 0.15520859), (-0.8555306, 0.49394095, 0.15520859), (-0.8555306, 0.49394095, 0.15520859), (-0.86530674, -0.4995853, -0.04073024), (-0.86530674, -0.4995853, -0.04073024), (-0.86530674, -0.4995853, -0.04073024), (-0.86530674, -0.4995853, -0.04073024), (0.8653068, 0.49958506, -0.040730245), (0.8653068, 0.49958506, -0.040730245), (0.8653068, 0.49958506, -0.040730245), (0.8653068, 0.49958506, -0.040730245), (0.8653067, -0.49958518, -0.04073025), (0.8653067, -0.49958518, -0.04073025), (0.8653067, -0.49958518, -0.04073025), (0.8653067, -0.49958518, -0.04073025), (1.2117604e-8, -0.99917024, -0.040730245), (1.2117604e-8, -0.99917024, -0.040730245), (1.2117604e-8, -0.99917024, -0.040730245), (1.2117604e-8, -0.99917024, -0.040730245), (0, 0.9991702, -0.04073026), (0, 0.9991702, -0.04073026), (0, 0.9991702, -0.04073026), (0, 0.9991702, -0.04073026), (0.23093575, -0.13333008, 0.9637903), (0.23093575, -0.13333008, 0.9637903), (0.23093575, -0.13333008, 0.9637903), (0.23093575, -0.13333008, 0.9637903), (-0.85553056, -0.493941, 0.15520856), (-0.85553056, -0.493941, 0.15520856), (-0.85553056, -0.493941, 0.15520856), (-0.85553056, -0.493941, 0.15520856), (0.8555306, 0.4939409, 0.15520859), (0.8555306, 0.4939409, 0.15520859), (0.8555306, 0.4939409, 0.15520859), (0.8555306, 0.4939409, 0.15520859), (0.8555306, -0.49394095, 0.1552086), (0.8555306, -0.49394095, 0.1552086), (0.8555306, -0.49394095, 0.1552086), (0.8555306, -0.49394095, 0.1552086), (-4.868232e-8, -0.9878817, 0.15520859), (-4.868232e-8, -0.9878817, 0.15520859), (-4.868232e-8, -0.9878817, 0.15520859), (-4.868232e-8, -0.9878817, 0.15520859), (-7.107262e-7, -3.1771938e-14, 1), (-7.107262e-7, -3.1771938e-14, 1), (-7.107262e-7, -3.1771938e-14, 1), (-7.107262e-7, -3.1771938e-14, 1), (-0.8643564, 0.4990363, -0.062053952), (-0.8643564, 0.4990363, -0.062053952), (-0.8643564, 0.4990363, -0.062053952), (-0.8643564, 0.4990363, -0.062053952), (0, 0, 1), (0, 0, 1), (0, 0, 1), (0, 0, 1), (0, -0.9980728, -0.0620538), (0, -0.9980728, -0.0620538), (0, -0.9980728, -0.0620538), (0, -0.9980728, -0.0620538), (0.8643564, -0.49903628, -0.062053848), (0.8643564, -0.49903628, -0.062053848), (0.8643564, -0.49903628, -0.062053848), (0.8643564, -0.49903628, -0.062053848), (0.8643565, 0.4990362, -0.06205383), (0.8643565, 0.4990362, -0.06205383), (0.8643565, 0.4990362, -0.06205383), (0.8643565, 0.4990362, -0.06205383), (-0.8643564, -0.4990365, -0.062053878), (-0.8643564, -0.4990365, -0.062053878), (-0.8643564, -0.4990365, -0.062053878), (-0.8643564, -0.4990365, -0.062053878), (-0.36444908, 0.21041614, -0.9071395), (-0.36444908, 0.21041614, -0.9071395), (-0.36444908, 0.21041614, -0.9071395), (-0.36444908, 0.21041614, -0.9071395), (-0.3519984, 0.203227, 0.9136717), (-0.3519984, 0.203227, 0.9136717), (-0.3519984, 0.203227, 0.9136717), (-0.3519984, 0.203227, 0.9136717), (0.3644527, -0.21041597, -0.907138), (0.3644527, -0.21041597, -0.907138), (0.3644527, -0.21041597, -0.907138), (0.3644527, -0.21041597, -0.907138), (0.35199875, 0.20322616, 0.9136717), (0.35199875, 0.20322616, 0.9136717), (0.35199875, 0.20322616, 0.9136717), (0.35199875, 0.20322616, 0.9136717), (-8.984594e-7, 0.40645316, 0.9136717), (-8.984594e-7, 0.40645316, 0.9136717), (-8.984594e-7, 0.40645316, 0.9136717), (-8.984594e-7, 0.40645316, 0.9136717), (0, -0.42083195, -0.9071387), (0, -0.42083195, -0.9071387), (0, -0.42083195, -0.9071387), (0, -0.42083195, -0.9071387), (-0.86530685, 0.4995851, -0.040730257), (-0.86530685, 0.4995851, -0.040730257), (-0.86530685, 0.4995851, -0.040730257), (-0.86530685, 0.4995851, -0.040730257), (-0.18675154, -0.10782184, -0.9764723), (-0.18675154, -0.10782184, -0.9764723), (-0.18675154, -0.10782184, -0.9764723), (-0.18675154, -0.10782184, -0.9764723), (-0.23093575, 0.13333008, 0.9637903), (-0.23093575, 0.13333008, 0.9637903), (-0.23093575, 0.13333008, 0.9637903), (-0.23093575, 0.13333008, 0.9637903), (0, 0.21564358, -0.9764722), (0, 0.21564358, -0.9764722), (0, 0.21564358, -0.9764722), (0, 0.21564358, -0.9764722), (0.23093575, 0.13333006, 0.9637903), (0.23093575, 0.13333006, 0.9637903), (0.23093575, 0.13333006, 0.9637903), (0.23093575, 0.13333006, 0.9637903), (0, 0.2666602, 0.9637906), (0, 0.2666602, 0.9637906), (0, 0.2666602, 0.9637906), (0, 0.2666602, 0.9637906), (0, 0.9878818, 0.15520786), (0, 0.9878818, 0.15520786), (0, 0.9878818, 0.15520786), (0, 0.9878818, 0.15520786), (0, 0.99807286, -0.0620541), (0, 0.99807286, -0.0620541), (0, 0.99807286, -0.0620541), (0, 0.99807286, -0.0620541), (0.99935645, 4.3659018e-8, -0.035872906), (0.99935645, 4.3659018e-8, -0.035872906), (0.99935645, 4.3659018e-8, -0.035872906), (0.99935645, 4.3659018e-8, -0.035872906), (-0.9959112, -4.1077044e-8, 0.0903381), (-0.9959112, -4.1077044e-8, 0.0903381), (-0.9959112, -4.1077044e-8, 0.0903381), (-0.9959112, -4.1077044e-8, 0.0903381), (0, 0, -1), (0, 0, -1), (0, 0, -1), (0, 0, -1), (-0.99935627, -4.3659064e-8, -0.03587302), (-0.99935627, -4.3659064e-8, -0.03587302), (-0.99935627, -4.3659064e-8, -0.03587302), (-0.99935627, -4.3659064e-8, -0.03587302), (0.9959112, 4.6945193e-8, 0.09033808), (0.9959112, 4.6945193e-8, 0.09033808), (0.9959112, 4.6945193e-8, 0.09033808), (0.9959112, 4.6945193e-8, 0.09033808), (0, 0, -1), (0, 0, -1), (0, 0, -1), (0, 0, -1), (-0.044283077, -0.978107, -0.20333616), (-0.044283077, -0.978107, -0.20333616), (-0.044283077, -0.978107, -0.20333616), (-0.044283077, -0.978107, -0.20333616), (0, 0, 1), (5.8487853e-7, 0, 1), (5.848783e-7, 0, 1), (-5.428101e-14, 0, 1), (-5.848786e-7, 0, 1), (-1.0856478e-13, 0, 1), (5.428101e-14, 0, 1), (-5.8487853e-7, 0, 1), (-1.0856478e-13, 0, 1), (5.8487836e-7, 0, 1), (5.848786e-7, 0, 1), (5.428101e-14, 0, 1), (-5.8487836e-7, 0, 1), (0, 0, 1), (-5.428101e-14, 0, 1), (-5.8487853e-7, 0, 1), (5.8487853e-7, 0, 1), (-5.848786e-7, 0, 1), (-5.8487853e-7, 0, 1), (5.848783e-7, 0, 1), (-0.7910457, -0.46246976, 0.40046018), (-0.7910457, -0.46246976, 0.40046018), (-0.7910457, -0.46246976, 0.40046018), (-0.7910457, -0.46246976, 0.40046018), (0.8539659, 0.4937687, -0.16411771), (0.8539659, 0.4937687, -0.16411771), (0.8539659, 0.4937687, -0.16411771), (0.8539659, 0.4937687, -0.16411771), (-0.870153, 0.46229067, -0.17064889), (-0.870153, 0.46229067, -0.17064889), (-0.870153, 0.46229067, -0.17064889), (-0.870153, 0.46229067, -0.17064889), (-0.87015307, -0.46229064, -0.17064874), (-0.87015307, -0.46229064, -0.17064874), (-0.87015307, -0.46229064, -0.17064874), (-0.87015307, -0.46229064, -0.17064874), (0.85396606, -0.49376863, -0.1641175), (0.85396606, -0.49376863, -0.1641175), (0.85396606, -0.49376863, -0.1641175), (0.85396606, -0.49376863, -0.1641175), (-0.04428307, 0.97810704, -0.20333645), (-0.04428307, 0.97810704, -0.20333645), (-0.04428307, 0.97810704, -0.20333645), (-0.04428307, 0.97810704, -0.20333645), (-0.16335341, -0.91015244, -0.3807075), (-0.16335341, -0.91015244, -0.3807075), (-0.16335341, -0.91015244, -0.3807075), (-0.16335341, -0.91015244, -0.3807075), (0.8376919, -0.52752006, -0.14140317), (0.8376919, -0.52752006, -0.14140317), (0.8376919, -0.52752006, -0.14140317), (0.8376919, -0.52752006, -0.14140317), (0.17752205, 0.891196, 0.41743928), (0.17752205, 0.891196, 0.41743928), (0.17752205, 0.891196, 0.41743928), (0.17752205, 0.891196, 0.41743928), (-0.034527987, -0.99925244, 0.017390044), (-0.034527987, -0.99925244, 0.017390044), (-0.034527987, -0.99925244, 0.017390044), (-0.034527987, -0.99925244, 0.017390044), (0.8975515, 0.4355455, 0.06856774), (0.8975515, 0.4355455, 0.06856774), (0.8975515, 0.4355455, 0.06856774), (0.8975515, 0.4355455, 0.06856774), (-0.6321161, 0.49590343, 0.5954067), (-0.6321161, 0.49590343, 0.5954067), (-0.6321161, 0.49590343, 0.5954067), (-0.6321161, 0.49590343, 0.5954067), (0.825709, -0.5397386, 0.16397183), (0.8305946, -0.5336353, 0.15920454), (0.8310188, -0.53309894, 0.15878694), (0.82976496, 0.3369943, 0.44488752), (0.82976496, 0.3369943, 0.44488752), (0.82976496, 0.3369943, 0.44488752), (0.82976496, 0.3369943, 0.44488752), (-0.8220475, 0.5322315, -0.20240445), (-0.8220475, 0.5322315, -0.20240445), (-0.8220475, 0.5322315, -0.20240445), (-0.8220475, 0.5322315, -0.20240445), (-0.8044161, -0.32035875, -0.50028485), (-0.8044161, -0.32035875, -0.50028485), (-0.8044161, -0.32035875, -0.50028485), (-0.8044161, -0.32035875, -0.50028485), (0.8253215, -0.54021704, 0.16434689), (0.8253215, -0.54021704, 0.16434689), (0.8305946, -0.5336353, 0.15920454), (0.825709, -0.5397386, 0.16397183), (0.16280797, 0.9115707, 0.3775347), (0.16280797, 0.9115707, 0.3775347), (0.16280797, 0.9115707, 0.3775347), (0.16280797, 0.9115707, 0.3775347), (0.08580916, 0.9914145, 0.098662354), (0.08580916, 0.9914145, 0.098662354), (0.08580916, 0.9914145, 0.098662354), (-0.015695462, -0.9511562, 0.3083109), (-0.015695462, -0.9511562, 0.3083109), (-0.015695462, -0.9511562, 0.3083109), (0.9007643, 0.43105793, 0.053035207), (0.9007643, 0.43105793, 0.053035207), (0.9007643, 0.43105793, 0.053035207), (-0.7921229, 0.5548643, 0.254297), (-0.7921229, 0.5548643, 0.254297), (-0.7921229, 0.5548643, 0.254297), (-0.8295434, -0.42750865, 0.3592964), (-0.8295434, -0.42750865, 0.3592964), (-0.8295434, -0.42750865, 0.3592964)] (
                interpolation = "faceVarying"
            )
            point3f[] points = [(0.012358824, -0.021406114, -0.1606613), (-0.038064472, -1.663851e-9, 0.27078488), (0.02471765, -1.3456201e-9, -0.1606613), (-0.019032236, 0.032964803, 0.27078488), (0.012358827, 0.021406114, -0.1606613), (0.019032236, 0.0329648, 0.27078488), (-0.012358822, -0.021406114, -0.1606613), (0.038064472, -1.663851e-9, 0.27078488), (-0.012358825, 0.021406114, -0.1606613), (0.019032234, -0.032964803, 0.27078488), (-0.02471765, -1.3456204e-9, -0.1606613), (-0.01903223, -0.032964803, 0.27078488), (-0.031604283, -1.0978647e-9, -0.27078488), (-0.038064472, -1.663851e-9, -0.23098512), (-0.015802141, 0.027370114, -0.27078488), (-0.019032236, 0.032964803, -0.23098512), (0.015802141, 0.02737011, -0.27078488), (0.019032236, 0.0329648, -0.23098512), (0.031604283, -2.872569e-9, -0.27078488), (0.038064472, -1.663851e-9, -0.23098512), (0.01580214, -0.027370114, -0.27078488), (0.019032234, -0.032964803, -0.23098512), (-0.015802138, -0.027370114, -0.27078488), (-0.01903223, -0.032964803, -0.23098512), (0.0098646525, -0.017086081, -0.11874235), (0.019729309, -1.1353243e-9, -0.11874235), (0.009864654, 0.017086081, -0.11874235), (-0.009864653, 0.017086081, -0.11874235), (-0.019729309, -1.1353243e-9, -0.11874235), (-0.009864651, -0.017086081, -0.11874236), (-0.039810322, 0.068953514, 0.29254255), (-0.07962065, 3.4670575e-9, 0.29254255), (0.039810326, 0.06895351, 0.29254255), (0.07962065, 3.467058e-9, 0.29254255), (0.03981032, -0.06895351, 0.29254255), (-0.03981031, -0.06895351, 0.29254255), (-0.039810322, 0.068953514, 0.31973964), (-0.07962065, 5.6267613e-9, 0.31973964), (0.039810326, 0.06895351, 0.31973964), (0.07962065, 5.626762e-9, 0.31973964), (0.03981032, -0.06895351, 0.31973964), (-0.03981031, -0.06895351, 0.31973964), (-0.051990435, 0.09005009, 0.3197396), (-0.103980884, 5.8459375e-9, 0.3197396), (0.051990442, 0.09005009, 0.3197396), (0.103980884, 5.845939e-9, 0.3197396), (0.05199043, -0.09005009, 0.3197396), (-0.051990423, -0.09005009, 0.3197396), (-0.06956865, 0.120496444, 0.3931718), (-0.1391373, 9.910388e-9, 0.3931718), (0.06956865, 0.12049644, 0.3931718), (0.1391373, 9.91039e-9, 0.3931718), (0.06956864, -0.120496444, 0.3931718), (-0.06956863, -0.120496444, 0.3931718), (-0.052547503, 0.09101495, 0.3931718), (-0.10509501, 8.2257845e-9, 0.3931718), (0.052547503, 0.09101495, 0.3931718), (0.10509501, 8.225786e-9, 0.3931718), (0.0525475, -0.09101495, 0.3931718), (-0.052547492, -0.09101495, 0.3931718), (-0.044692166, 0.077409096, 0.36445582), (-0.08938433, -1.2557324e-9, 0.36445582), (0.044692166, 0.077409096, 0.36445582), (0.08938433, -1.2557315e-9, 0.36445582), (0.04469216, -0.07740911, 0.36445582), (-0.04469215, -0.07740911, 0.36445582), (-0.013624541, -0.11481977, 0.38468897), (0.020990256, -0.11454753, 0.38468897), (-0.015007196, -0.097984575, 0.38468897), (0.019607604, -0.09771233, 0.38468897), (-0.013624541, -0.11481977, 0.57267064), (0.020990256, -0.11454753, 0.57267064), (-0.015007196, -0.097984575, 0.57267064), (0.019607604, -0.09771233, 0.57267064), (0.0926246, -0.069209054, 0.38468897), (0.10969621, -0.039095636, 0.38468897), (0.077353545, -0.061988875, 0.38468897), (0.09442518, -0.031875454, 0.38468897), (0.0926246, -0.069209054, 0.57267064), (0.10969621, -0.039095636, 0.57267064), (0.077353545, -0.061988875, 0.57267064), (0.09442518, -0.031875454, 0.57267064), (0.106249094, 0.045610752, 0.38468897), (0.08870591, 0.07545191, 0.38468897), (0.09236071, 0.035995718, 0.38468897), (0.07481752, 0.06583689, 0.38468897), (0.106249094, 0.045610752, 0.57267064), (0.08870591, 0.07545191, 0.57267064), (0.09236071, 0.035995718, 0.57267064), (0.07481752, 0.06583689, 0.57267064), (0.0136244465, 0.11481978, 0.38468897), (-0.020990351, 0.114547506, 0.38468897), (0.015007117, 0.09798458, 0.38468897), (-0.01960768, 0.097712316, 0.38468897), (0.0136244465, 0.11481978, 0.57267064), (-0.020990351, 0.114547506, 0.57267064), (0.015007117, 0.09798458, 0.57267064), (-0.01960768, 0.097712316, 0.57267064), (-0.09262462, 0.069209, 0.38468897), (-0.109696224, 0.039095584, 0.38468897), (-0.07735358, 0.061988834, 0.38468897), (-0.094425194, 0.031875405, 0.38468897), (-0.09262462, 0.069209, 0.57267064), (-0.109696224, 0.039095584, 0.57267064), (-0.07735358, 0.061988834, 0.57267064), (-0.094425194, 0.031875405, 0.57267064), (-0.10624908, -0.045610785, 0.38468897), (-0.088705875, -0.07545195, 0.38468897), (-0.0923607, -0.03599575, 0.38468897), (-0.0748175, -0.06583691, 0.38468897), (-0.10624908, -0.045610785, 0.57267064), (-0.088705875, -0.07545195, 0.57267064), (-0.0923607, -0.03599575, 0.57267064), (-0.0748175, -0.06583691, 0.57267064), (-0.018834721, -0.12297511, 0.43825048), (-0.017099423, -0.14410406, 0.43825048), (0.024608446, -0.12263344, 0.43825048), (0.026343735, -0.14376238, 0.43825048), (-0.1159169, -0.045176312, 0.43825048), (-0.13334744, -0.057243623, 0.43825048), (-0.09389939, -0.08262833, 0.43825048), (-0.11132992, -0.094695635, 0.43825048), (-0.09708228, 0.077798836, 0.43825048), (-0.11624814, 0.08686049, 0.43825048), (-0.11850793, 0.040005106, 0.43825048), (-0.13767378, 0.049066752, 0.43825048), (0.018834626, 0.122975126, 0.43825048), (0.017099315, 0.1441041, 0.43825048), (-0.024608538, 0.12263343, 0.43825048), (-0.02634384, 0.14376238, 0.43825048), (0.09708224, -0.07779887, 0.43825048), (0.116248116, -0.086860545, 0.43825048), (0.118507914, -0.04000516, 0.43825048), (0.13767377, -0.049066808, 0.43825048), (0.11591694, 0.045176275, 0.43825048), (0.13334748, 0.057243578, 0.43825048), (0.09389943, 0.082628325, 0.43825048), (0.11132998, 0.094695605, 0.43825048), (-0.033149816, -1.5221818e-9, 0.16637392), (-0.016574902, -0.028708583, 0.16637392), (0.016574906, -0.028708583, 0.16637392), (0.033149816, -1.5221814e-9, 0.16637392), (0.01657491, 0.028708583, 0.16637392), (-0.01657491, 0.028708583, 0.16637391), (0.015894327, -0.027529785, 0.13745637), (0.03178866, -1.4829449e-9, 0.13745637), (0.01589433, 0.027529785, 0.13745637), (-0.015894331, 0.027529785, 0.13745637), (-0.03178866, -1.4829453e-9, 0.13745637), (-0.015894324, -0.027529785, 0.13745637), (-0.017182646, 0.029761216, -0.15881616), (0.017182646, -0.029761216, -0.15881616), (0.034365293, -1.7232422e-9, -0.15881616), (0.017182648, 0.029761216, -0.15881616), (-0.034365293, -1.7232427e-9, -0.15881616), (-0.01718264, -0.029761216, -0.15881616), (-0.038901668, -1.7550442e-9, 0.14031409), (-0.040567398, -1.8030604e-9, 0.16351625), (-0.019450827, -0.03368983, 0.14031409), (-0.020283692, -0.035132397, 0.16351625), (-0.020283699, 0.035132397, 0.16351622), (0.020283697, 0.035132397, 0.16351625), (0.020283693, -0.035132397, 0.16351625), (0.040567387, -1.8030601e-9, 0.16351625), (0.019450828, -0.03368983, 0.14031409), (0.03890166, -1.7550438e-9, 0.14031409), (0.019450832, 0.03368983, 0.14031409), (-0.019450832, 0.03368983, 0.14031409), (0.013714964, -0.023755016, -0.1205875), (0.02742993, -1.4308649e-9, -0.1205875), (0.013714966, 0.023755016, -0.1205875), (-0.013714964, 0.023755016, -0.1205875), (-0.02742993, -1.4308652e-9, -0.1205875), (-0.01371496, -0.023755016, -0.12058751), (-0.017182657, 0.28817198, -0.15881616), (0.017182637, 0.28817198, -0.15881616), (-0.013714975, 0.2821658, -0.1205875), (0.013714955, 0.2821658, -0.1205875), (-0.02028371, 0.29354316, 0.16351622), (0.020283686, 0.29354316, 0.16351625), (0.019450821, 0.2921006, 0.14031409), (-0.019450843, 0.2921006, 0.14031409), (-0.032833744, 0.056869708, 0.36445582), (-0.06566748, -2.5278715e-9, 0.36445582), (0.03283374, 0.056869708, 0.36445582), (0.06566748, -2.5278708e-9, 0.36445582), (0.03283374, -0.05686972, 0.36445582), (-0.032833733, -0.05686972, 0.36445582), (-0.04850959, 0.08012053, 0.49401414), (-0.09170245, 1.512584e-8, 0.5105714), (0.03787613, 0.08012053, 0.46089965), (0.08106899, 1.4589982e-8, 0.44434237), (0.03787613, -0.08012051, 0.46089965), (-0.048509583, -0.08012051, 0.49401414), (0.016758366, 0.011682714, 0.61598897), (-0.012386569, -0.02958205, 0.6237336), (0.06592774, 0.0061992616, 0.6031635), (0.085952155, -0.040548958, 0.59808266), (0.056807213, -0.081813715, 0.60582733), (0.007637852, -0.076330274, 0.61865276), (-0.013459948, -0.01060914, 0.6779831), (-0.041587926, -0.05300214, 0.6828654), (0.036844842, -0.014135381, 0.6696656), (0.059021614, -0.060054623, 0.6662303), (0.030893631, -0.10244762, 0.6711126), (-0.019411143, -0.098921396, 0.6794301), (0.034376934, -0.034839973, 0.87986326)]
            uniform token subdivisionScheme = "none"
            uniform token subsetFamily:materialBind:familyType = "nonOverlapping"
            custom string userProperties:blender:data_name = "Cylinder.018"

            def GeomSubset "DarkMetal" (
                prepend apiSchemas = ["MaterialBindingAPI"]
            )
            {
                uniform token elementType = "face"
                uniform token familyName = "materialBind"
                int[] indices = [0, 1, 2, 3, 4, 5, 6, 7, 8, 9, 10, 11, 12, 13, 14, 15, 16, 17, 18, 19, 20, 21, 22, 23, 24, 25, 26, 27, 28, 29, 30, 31, 32, 33, 34, 35, 36, 37, 38, 39, 40, 41, 42, 43, 44, 45, 46, 47, 48, 49, 50, 51, 52, 53, 54, 55, 56, 57, 58, 59, 60, 61, 62, 63, 64, 65, 66, 67, 68, 69, 70, 71, 72, 73, 74, 75, 76, 77, 78, 79, 80, 81, 82, 83, 84, 85, 86, 87, 88, 89, 90, 91, 92, 93, 94, 95, 96, 97, 98, 99, 100, 101, 102, 103, 104, 105, 106, 107, 108, 109, 110, 111, 112, 113, 114, 115, 116, 117, 118, 119, 120, 121, 122, 123, 124, 125, 126, 127, 128, 129, 130, 131, 132, 133, 134, 135, 136, 137, 138, 139, 140, 141, 142, 143, 144, 145, 146, 147, 148, 149, 150, 151, 152, 153, 154, 155, 156, 157, 158, 159, 160, 161, 162, 163, 164, 165, 167, 168, 169, 170, 171]
                rel material:binding = </root/_materials/DarkMetal>
            }

            def GeomSubset "Fire" (
                prepend apiSchemas = ["MaterialBindingAPI"]
            )
            {
                uniform token elementType = "face"
                uniform token familyName = "materialBind"
                int[] indices = [166, 172, 173, 174, 175, 176, 177, 178, 179, 180, 181, 182, 183, 184, 185, 186, 187, 188, 189, 190, 191, 192, 193, 194]
                rel material:binding = </root/_materials/Fire>
            }
        }
    }

    def Scope "_materials"
    {
        def Material "DarkMetal"
        {
            token outputs:surface.connect = </root/_materials/DarkMetal/Principled_BSDF.outputs:surface>
            custom string userProperties:blender:data_name = "DarkMetal"

            def Shader "Principled_BSDF"
            {
                uniform token info:id = "UsdPreviewSurface"
                float inputs:clearcoat = 0
                float inputs:clearcoatRoughness = 0.03
                color3f inputs:diffuseColor = (0.04147326, 0.03704425, 0.060716428)
                float inputs:ior = 1.5
                float inputs:metallic = 0
                float inputs:opacity = 1
                float inputs:roughness = 0.6900348
                float inputs:specular = 0.5
                token outputs:surface
            }
        }

        def Material "Fire"
        {
            token outputs:surface.connect = </root/_materials/Fire/Principled_BSDF.outputs:surface>
            custom string userProperties:blender:data_name = "Fire"

            def Shader "Principled_BSDF"
            {
                uniform token info:id = "UsdPreviewSurface"
                float inputs:clearcoat = 0
                float inputs:clearcoatRoughness = 0.03
                color3f inputs:diffuseColor = (0.571125, 0.1702776, 0.024706604)
                float inputs:ior = 1.5
                float inputs:metallic = 0
                float inputs:opacity = 1
                float inputs:roughness = 0.6900348
                float inputs:specular = 0.5
                token outputs:surface
            }
        }
    }
}

