#usda 1.0
(
    defaultPrim = "root"
    doc = "Blender v5.1.2"
    metersPerUnit = 1
    upAxis = "Y"
)

def Xform "root" (
    customData = {
        dictionary Blender = {
            bool generated = 1
        }
    }
)
{
    float3 xformOp:rotateXYZ = (-90, -0, 0)
    uniform token[] xformOpOrder = ["xformOp:rotateXYZ"]

    def Xform "Axe"
    {
        custom string userProperties:blender:object_name = "Axe"

        def Mesh "Cylinder_012" (
            active = true
            prepend apiSchemas = ["MaterialBindingAPI"]
        )
        {
            uniform bool doubleSided = 1
            float3[] extent = [(-0.8730768, -0.094054885, -0.79800415), (0.3890996, 0.096166275, 2.458044)]
            int[] faceVertexCounts = [4, 4, 4, 4, 4, 4, 8, 4, 4, 4, 4, 4, 4, 4, 4, 4, 4, 4, 4, 4, 4, 4, 4, 4, 4, 4, 4, 4, 4, 4, 4, 4, 4, 4, 4, 4, 3, 4, 4, 4, 4, 4, 4, 4, 4, 4, 4, 4, 4, 4, 3, 4, 4, 4, 4, 4, 3, 4, 4, 4, 4, 4, 4, 4, 4, 4, 4, 4, 4, 4, 4, 4, 4, 4, 4, 4, 4, 4, 4, 4, 4, 4, 4, 4, 4, 4, 4, 4, 4, 4, 4, 4, 4, 4, 4, 4, 4, 4, 4, 4, 4, 4, 4, 4, 4, 4, 4, 4, 4, 4, 3, 4, 4, 4, 4, 4, 4, 4]
            int[] faceVertexIndices = [0, 1, 3, 2, 2, 3, 5, 4, 4, 5, 7, 6, 6, 7, 9, 8, 8, 9, 11, 10, 10, 11, 13, 12, 3, 1, 15, 13, 11, 9, 7, 5, 12, 13, 15, 14, 14, 15, 1, 0, 4, 6, 19, 18, 21, 22, 30, 29, 10, 12, 22, 21, 6, 8, 20, 19, 12, 14, 23, 22, 2, 4, 18, 17, 8, 10, 21, 20, 14, 0, 16, 23, 0, 2, 17, 16, 24, 25, 33, 32, 19, 20, 28, 27, 17, 18, 26, 25, 22, 23, 31, 30, 20, 21, 29, 28, 18, 19, 27, 26, 16, 17, 25, 24, 23, 16, 24, 31, 32, 35, 36, 39, 31, 24, 32, 39, 29, 30, 38, 37, 27, 28, 36, 35, 25, 26, 34, 33, 30, 31, 39, 38, 28, 29, 37, 36, 26, 27, 35, 34, 39, 36, 37, 38, 35, 32, 33, 34, 85, 84, 61, 92, 99, 76, 55, 93, 92, 55, 54, 42, 65, 66, 46, 47, 45, 51, 48, 42, 46, 44, 40, 74, 54, 58, 79, 69, 44, 50, 72, 45, 68, 113, 108, 47, 43, 41, 45, 53, 75, 78, 57, 44, 46, 49, 50, 64, 43, 47, 67, 44, 69, 62, 40, 87, 86, 60, 54, 55, 59, 58, 55, 76, 80, 59, 71, 73, 72, 70, 84, 91, 83, 61, 86, 89, 82, 60, 51, 45, 108, 90, 87, 60, 82, 88, 85, 61, 83, 68, 45, 41, 63, 46, 66, 70, 49, 77, 52, 56, 81, 120, 118, 117, 109, 94, 97, 75, 53, 98, 95, 52, 77, 95, 94, 53, 52, 52, 53, 57, 56, 49, 70, 72, 50, 88, 83, 82, 89, 90, 82, 83, 91, 77, 81, 80, 76, 96, 74, 75, 97, 98, 77, 76, 99, 74, 79, 78, 75, 69, 72, 73, 68, 67, 71, 70, 66, 68, 63, 62, 69, 64, 67, 66, 65, 96, 93, 54, 74, 107, 90, 91, 103, 106, 88, 89, 102, 106, 100, 85, 88, 107, 101, 87, 90, 105, 102, 89, 86, 104, 103, 91, 84, 101, 105, 86, 87, 100, 104, 84, 85, 63, 41, 93, 96, 65, 98, 99, 64, 63, 96, 97, 62, 42, 40, 94, 95, 65, 42, 95, 98, 40, 62, 97, 94, 41, 43, 92, 93, 43, 64, 99, 92, 58, 59, 104, 100, 56, 57, 105, 101, 59, 80, 103, 104, 57, 78, 102, 105, 81, 56, 101, 107, 79, 58, 100, 106, 79, 106, 102, 78, 81, 107, 103, 80, 114, 111, 121, 119, 111, 48, 110, 121, 48, 51, 109, 110, 73, 71, 115, 112, 71, 67, 114, 115, 68, 73, 112, 113, 67, 47, 111, 114, 47, 48, 111, 109, 117, 116, 110, 119, 121, 110, 116, 51, 108, 120, 109, 112, 115, 116, 117, 113, 112, 117, 118, 108, 113, 118, 120, 115, 114, 119, 116]
            rel material:binding = </root/_materials/DarkWood>
            normal3f[] normals = [(0.28997868, 0.9569621, -0.01165936), (0.28997868, 0.9569621, -0.01165936), (0.28997868, 0.9569621, -0.01165936), (0.28997868, 0.9569621, -0.01165936), (0.8701046, 0.49266177, -0.014224352), (0.8701046, 0.49266177, -0.014224352), (0.8701046, 0.49266177, -0.014224352), (0.8701046, 0.49266177, -0.014224352), (0.8701046, -0.49266183, -0.014224243), (0.8701046, -0.49266183, -0.014224243), (0.8701046, -0.49266183, -0.014224243), (0.8701046, -0.49266183, -0.014224243), (0.28997847, -0.95696205, -0.011659125), (0.28997847, -0.95696205, -0.011659125), (0.28997847, -0.95696205, -0.011659125), (0.28997847, -0.95696205, -0.011659125), (-0.29199672, -0.9559883, -0.028710814), (-0.29199672, -0.9559883, -0.028710814), (-0.29199672, -0.9559883, -0.028710814), (-0.29199672, -0.9559883, -0.028710814), (-0.87016547, -0.48832798, -0.06593871), (-0.87016547, -0.48832798, -0.06593871), (-0.87016547, -0.48832798, -0.06593871), (-0.87016547, -0.48832798, -0.06593871), (3.0629798e-7, 0, 1), (3.0629798e-7, 0, 1), (3.0629798e-7, 0, 1), (3.0629798e-7, 0, 1), (3.0629798e-7, 0, 1), (3.0629798e-7, 0, 1), (3.0629798e-7, 0, 1), (3.0629798e-7, 0, 1), (-0.87016547, 0.48832804, -0.06593884), (-0.87016547, 0.48832804, -0.06593884), (-0.87016547, 0.48832804, -0.06593884), (-0.87016547, 0.48832804, -0.06593884), (-0.29199678, 0.9559883, -0.028711032), (-0.29199678, 0.9559883, -0.028711032), (-0.29199678, 0.9559883, -0.028711032), (-0.29199678, 0.9559883, -0.028711032), (0.8857767, -0.4636993, 0.019559547), (0.8857767, -0.4636993, 0.019559547), (0.8857767, -0.4636993, 0.019559547), (0.8857767, -0.4636993, 0.019559547), (-0.8619898, -0.50436413, 0.050897636), (-0.8619898, -0.50436413, 0.050897636), (-0.8619898, -0.50436413, 0.050897636), (-0.8619898, -0.50436413, 0.050897636), (-0.8867971, -0.46109444, -0.031351596), (-0.8867971, -0.46109444, -0.031351596), (-0.8867971, -0.46109444, -0.031351596), (-0.8867971, -0.46109444, -0.031351596), (0.311445, -0.9502403, 0.006736314), (0.311445, -0.9502403, 0.006736314), (0.311445, -0.9502403, 0.006736314), (0.311445, -0.9502403, 0.006736314), (-0.88679713, 0.46109426, -0.031351693), (-0.88679713, 0.46109426, -0.031351693), (-0.88679713, 0.46109426, -0.031351693), (-0.88679713, 0.46109426, -0.031351693), (0.88577676, 0.46369928, 0.019559447), (0.88577676, 0.46369928, 0.019559447), (0.88577676, 0.46369928, 0.019559447), (0.88577676, 0.46369928, 0.019559447), (-0.33826068, -0.94099754, -0.010169255), (-0.33826068, -0.94099754, -0.010169255), (-0.33826068, -0.94099754, -0.010169255), (-0.33826068, -0.94099754, -0.010169255), (-0.3382606, 0.9409975, -0.010169454), (-0.3382606, 0.9409975, -0.010169454), (-0.3382606, 0.9409975, -0.010169454), (-0.3382606, 0.9409975, -0.010169454), (0.31144503, 0.95024025, 0.0067361086), (0.31144503, 0.95024025, 0.0067361086), (0.31144503, 0.95024025, 0.0067361086), (0.31144503, 0.95024025, 0.0067361086), (0.34799972, 0.9372002, -0.023493208), (0.34799972, 0.9372002, -0.023493208), (0.34799972, 0.9372002, -0.023493208), (0.34799972, 0.9372002, -0.023493208), (0.34862632, -0.93676955, 0.030374657), (0.34862632, -0.93676955, 0.030374657), (0.34862632, -0.93676955, 0.030374657), (0.34862632, -0.93676955, 0.030374657), (0.8936736, 0.44753492, 0.0325567), (0.8936736, 0.44753492, 0.0325567), (0.8936736, 0.44753492, 0.0325567), (0.8936736, 0.44753492, 0.0325567), (-0.86198974, 0.5043641, 0.050897416), (-0.86198974, 0.5043641, 0.050897416), (-0.86198974, 0.5043641, 0.050897416), (-0.86198974, 0.5043641, 0.050897416), (-0.28565294, -0.95808727, 0.021706712), (-0.28565294, -0.95808727, 0.021706712), (-0.28565294, -0.95808727, 0.021706712), (-0.28565294, -0.95808727, 0.021706712), (0.8936736, -0.4475349, 0.032556884), (0.8936736, -0.4475349, 0.032556884), (0.8936736, -0.4475349, 0.032556884), (0.8936736, -0.4475349, 0.032556884), (0.3486265, 0.9367694, 0.030374268), (0.3486265, 0.9367694, 0.030374268), (0.3486265, 0.9367694, 0.030374268), (0.3486265, 0.9367694, 0.030374268), (-0.2856529, 0.9580874, 0.02170631), (-0.2856529, 0.9580874, 0.02170631), (-0.2856529, 0.9580874, 0.02170631), (-0.2856529, 0.9580874, 0.02170631), (-0.3425877, 0, -0.9394859), (-0.3425877, 0, -0.9394859), (-0.3425877, 0, -0.9394859), (-0.3425877, 0, -0.9394859), (-0.2526299, 0.96577835, 0.058738623), (-0.2526299, 0.96577835, 0.058738623), (-0.2526299, 0.96577835, 0.058738623), (-0.2526299, 0.96577835, 0.058738623), (-0.87368214, -0.4726261, 0.11534254), (-0.87368214, -0.4726261, 0.11534254), (-0.87368214, -0.4726261, 0.11534254), (-0.87368214, -0.4726261, 0.11534254), (0.34799963, -0.9372003, -0.023492945), (0.34799963, -0.9372003, -0.023492945), (0.34799963, -0.9372003, -0.023492945), (0.34799963, -0.9372003, -0.023492945), (0.84959733, 0.5220101, -0.07543224), (0.84959733, 0.5220101, -0.07543224), (0.84959733, 0.5220101, -0.07543224), (0.84959733, 0.5220101, -0.07543224), (-0.87368226, 0.47262606, 0.115342416), (-0.87368226, 0.47262606, 0.115342416), (-0.87368226, 0.47262606, 0.115342416), (-0.87368226, 0.47262606, 0.115342416), (-0.2526299, -0.96577835, 0.05873884), (-0.2526299, -0.96577835, 0.05873884), (-0.2526299, -0.96577835, 0.05873884), (-0.2526299, -0.96577835, 0.05873884), (0.84959716, -0.52201015, -0.07543207), (0.84959716, -0.52201015, -0.07543207), (0.84959716, -0.52201015, -0.07543207), (0.84959716, -0.52201015, -0.07543207), (-0.7039892, 0, -0.7102106), (-0.7039892, 0, -0.7102106), (-0.7039892, 0, -0.7102106), (-0.7039892, 0, -0.7102106), (0.28851, 0, -0.9574769), (0.28851, 0, -0.9574769), (0.28851, 0, -0.9574769), (0.28851, 0, -0.9574769), (0.5158694, 0, 0.8566672), (0.5158694, 0, 0.8566672), (0.5158694, 0, 0.8566672), (-0.25284243, 0.9674935, -0.005191464), (-0.2570554, 0.9663967, -0.00031128858), (-0.25318843, 0.9674051, -0.0047907257), (-0.25284243, 0.9674935, -0.005191464), (0.3989358, 0, 0.9169789), (0.3989358, 0, 0.9169789), (0.3989358, 0, 0.9169789), (0.3989358, 0, 0.9169789), (-1.7501609e-9, 1, -1.4580323e-7), (-3.0842264e-9, 1, -1.3997726e-7), (-3.0842264e-9, 1, -1.3997726e-7), (-1.7501609e-9, 1, -1.4580323e-7), (0.33499905, 0, 0.9422185), (0.33499905, 0, 0.9422185), (0.33499905, 0, 0.9422185), (0.33499905, 0, 0.9422185), (-0.15566094, 0, -0.9878106), (-0.15566094, 0, -0.9878106), (-0.15566094, 0, -0.9878106), (-0.15566094, 0, -0.9878106), (-0.011321531, -0.9999359, -0.000029954988), (-0.01149505, -0.9999339, -0.0001411658), (-0.013053378, -0.99991477, 0.00022834516), (-0.018849881, -0.99981016, 0.004947732), (0.7652333, -0.643753, 1.0591685e-7), (0.7652332, -0.6437532, 1.2282551e-7), (0.7652332, -0.6437532, 1.2282551e-7), (0.76523334, -0.6437531, 1.0591686e-7), (4.3348574e-9, -1, 1.4174422e-7), (4.2320862e-9, -1, 1.4568218e-7), (5.99855e-8, -1, 1.7104377e-7), (3.3811617e-8, -1, 1.5160207e-7), (0.0025697625, 0, 0.9999967), (0.0025697625, 0, 0.9999967), (0.0025697625, 0, 0.9999967), (0.0025697625, 0, 0.9999967), (-0.01124007, -0.99993676, 0.0002470196), (-0.011209921, -0.9999372, 0.00013550543), (-0.018903827, -0.99980944, -0.0048828125), (-0.012906547, -0.9999167, -0.00017804501), (0.17171177, 0, -0.98514724), (0.17171177, 0, -0.98514724), (0.17171177, 0, -0.98514724), (0.17171177, 0, -0.98514724), (-4.7675597e-9, 1, -1.4451093e-7), (-4.992244e-9, 0.99999994, -1.511753e-7), (-4.3348987e-9, 1, -1.417442e-7), (-4.2320876e-9, 1, -1.3676289e-7), (1.7501609e-9, -1, 1.9440431e-7), (3.084248e-9, -1, 1.7545707e-7), (3.084248e-9, -1, 1.7545707e-7), (1.7501609e-9, -1, 1.9440431e-7), (0.55325663, 0, -0.83301085), (0.55325663, 0, -0.83301085), (0.55325663, 0, -0.83301085), (0.43757313, 0, 0.8991829), (0.43757313, 0, 0.8991829), (0.43757313, 0, 0.8991829), (0.43757313, 0, 0.8991829), (-0.011495123, 0.9999339, -0.0001415004), (-0.011321539, 0.9999359, -0.000030299589), (-0.018850137, 0.99981016, 0.004947263), (-0.013053478, 0.99991477, 0.00022775796), (1, 0, 0), (1, 0, 0), (1, 0, 0), (1, 0, 0), (-0.31402817, 0.94159985, 0.12155679), (-0.31402817, 0.94159985, 0.12155679), (-0.31402817, 0.94159985, 0.12155679), (-0.31402817, 0.94159985, 0.12155679), (-0.3110877, -0.9417855, -0.12753254), (-0.3110877, -0.9417855, -0.12753254), (-0.3110877, -0.9417855, -0.12753254), (-0.3110877, -0.9417855, -0.12753254), (0.3839516, -0.19052072, 0.9034838), (0.3839516, -0.19052072, 0.9034838), (0.3839516, -0.19052072, 0.9034838), (-0.31108758, 0.9417855, -0.12753293), (-0.31108758, 0.9417855, -0.12753293), (-0.31108758, 0.9417855, -0.12753293), (-0.31108758, 0.9417855, -0.12753293), (-0.31402767, -0.94159997, 0.121557124), (-0.31402767, -0.94159997, 0.121557124), (-0.31402767, -0.94159997, 0.121557124), (-0.31402767, -0.94159997, 0.121557124), (4.2320862e-9, -1, 1.4568218e-7), (4.3348574e-9, -1, 1.4174422e-7), (4.9921725e-9, -1, 1.5117531e-7), (4.767533e-9, -1, 1.5326361e-7), (0.76523346, 0.6437528, -9.826035e-8), (0.76523346, 0.6437529, -1.0253508e-7), (0.76523346, 0.6437529, -1.0253508e-7), (0.76523346, 0.6437528, -9.826035e-8), (-0.011209864, 0.9999372, 0.00013515702), (-0.011239985, 0.99993676, 0.00024667688), (-0.012906391, 0.9999167, -0.00017868937), (-0.018903704, 0.99980944, -0.004883184), (0.81893414, -0.5706652, 0.060729217), (0.81893414, -0.5706652, 0.060729217), (0.81893414, -0.5706652, 0.060729217), (0.81893414, -0.5706652, 0.060729217), (-0.25224274, -0.9676494, 0.0053216964), (-0.25699174, -0.9664135, 0.0005310786), (-0.25264838, -0.96754575, 0.0049128234), (-0.25224274, -0.9676494, 0.0053216964), (-0.2569917, 0.96641344, 0.0005307607), (-0.25224262, 0.9676494, 0.0053213486), (-0.25224262, 0.9676494, 0.0053213486), (-0.25264812, 0.96754575, 0.004912254), (0.2765674, 0, -0.9609944), (0.2765674, 0, -0.9609944), (0.2765674, 0, -0.9609944), (0.2765674, 0, -0.9609944), (0.43173414, 0, -0.9020009), (0.43173414, 0, -0.9020009), (0.43173414, 0, -0.9020009), (0.43173414, 0, -0.9020009), (1, 0, 0), (1, 0, 0), (1, 0, 0), (1, 0, 0), (-0.32017177, -0.94733715, -0.0065095234), (-0.32017177, -0.94733715, -0.0065095234), (-0.32017177, -0.94733715, -0.0065095234), (-0.32017177, -0.94733715, -0.0065095234), (-0.32017222, 0.94733703, -0.006509781), (-0.32017222, 0.94733703, -0.006509781), (-0.32017222, 0.94733703, -0.006509781), (-0.32017222, 0.94733703, -0.006509781), (-0.011209864, 0.9999372, 0.00013515702), (-0.018903704, 0.99980944, -0.004883184), (-0.018850137, 0.99981016, 0.004947263), (-0.011321539, 0.9999359, -0.000030299589), (-0.25705546, -0.9663967, -0.00031096183), (-0.25318873, -0.967405, -0.0047906353), (-0.25264838, -0.96754575, 0.0049128234), (-0.25699174, -0.9664135, 0.0005310786), (-0.2569917, 0.96641344, 0.0005307607), (-0.25264812, 0.96754575, 0.004912254), (-0.25318843, 0.9674051, -0.0047907257), (-0.2570554, 0.9663967, -0.00031128858), (-0.011321531, -0.9999359, -0.000029954988), (-0.018849881, -0.99981016, 0.004947732), (-0.018903827, -0.99980944, -0.0048828125), (-0.011209921, -0.9999372, 0.00013550543), (0.7652333, -0.643753, 1.0591685e-7), (0.76523334, -0.6437531, 1.0591686e-7), (0.76523346, -0.64375293, 8.900819e-8), (0.76523346, -0.64375293, 8.900819e-8), (0.76523346, 0.64375293, -1.0680982e-7), (0.76523346, 0.64375293, -1.0680982e-7), (0.76523346, 0.6437529, -1.0253508e-7), (0.76523346, 0.6437529, -1.0253508e-7), (4.2320862e-9, -1, 1.4568218e-7), (4.767533e-9, -1, 1.5326361e-7), (3.084248e-9, -1, 1.7545707e-7), (3.084248e-9, -1, 1.7545707e-7), (-4.7675597e-9, 1, -1.4451093e-7), (-4.2320876e-9, 1, -1.3676289e-7), (-3.0842264e-9, 1, -1.3997726e-7), (-3.0842264e-9, 1, -1.3997726e-7), (-0.25705546, -0.9663967, -0.00031096183), (-0.25284255, -0.9674935, -0.0051911017), (-0.25284255, -0.9674935, -0.0051911017), (-0.25318873, -0.967405, -0.0047906353), (-0.030550435, 0.9995331, -0.0003215824), (-0.030550435, 0.9995331, -0.0003215824), (-0.03070465, 0.99952847, 0.00018354168), (-0.03335, 0.99940467, 0.008830715), (-0.030550454, -0.9995332, -0.00032130917), (-0.030550454, -0.9995332, -0.00032130917), (-0.030831587, -0.999524, -0.0011826712), (-0.03349933, -0.999395, -0.009345836), (-0.032978836, -0.9994146, 0.009096748), (-0.023812039, -0.99971056, 0.0034430204), (-0.033536445, -0.9993929, 0.009440636), (-0.033536445, -0.9993929, 0.009440636), (-0.03292414, 0.9994107, -0.009718983), (-0.024037069, 0.999704, -0.003765802), (-0.033816338, 0.99937487, -0.01031649), (-0.033816338, 0.99937487, -0.01031649), (-0.033816442, -0.99937487, -0.010316109), (-0.03349933, -0.999395, -0.009345836), (-0.030831587, -0.999524, -0.0011826712), (-0.033816442, -0.99937487, -0.010316109), (-0.033536494, 0.9993929, 0.009440298), (-0.03335, 0.99940467, 0.008830715), (-0.03070465, 0.99952847, 0.00018354168), (-0.033536494, 0.9993929, 0.009440298), (0.70366764, 0, -0.7105292), (0.70366764, 0, -0.7105292), (0.70366764, 0, -0.7105292), (0.70366764, 0, -0.7105292), (0.65788996, 0, 0.7531141), (0.65788996, 0, 0.7531141), (0.65788996, 0, 0.7531141), (0.65788996, 0, 0.7531141), (-0.7593855, -0.65064096, -0.000061618535), (-0.75574213, -0.654859, -0.0036867808), (-0.75574213, -0.654859, -0.0036867808), (-0.7558539, -0.6547305, -0.003576866), (-0.75934184, 0.650692, 0.00018319422), (-0.755639, 0.654979, 0.0034813154), (-0.7558801, 0.65470034, -0.0035504422), (-0.75938594, 0.6506404, -0.000062404695), (-0.7593855, -0.65064096, -0.000061618535), (-0.7558539, -0.6547305, -0.003576866), (-0.755639, -0.65497905, 0.003481812), (-0.7593686, -0.65066063, 0.00015929576), (0.16354948, 0, -0.9865351), (0.16354948, 0, -0.9865351), (0.16354948, 0, -0.9865351), (0.16354948, 0, -0.9865351), (-0.75934184, 0.650692, 0.00018319422), (-0.7555107, 0.6551264, 0.0035947433), (-0.7555107, 0.6551264, 0.0035947433), (-0.755639, 0.654979, 0.0034813154), (-0.7555105, -0.6551267, 0.003595026), (-0.7593686, -0.65066063, 0.00015929576), (-0.755639, -0.65497905, 0.003481812), (-0.7555105, -0.6551267, 0.003595026), (0.24309185, 0, 0.9700033), (0.24309185, 0, 0.9700033), (0.24309185, 0, 0.9700033), (0.24309185, 0, 0.9700033), (-0.7557424, 0.65485877, -0.0036870511), (-0.75938594, 0.6506404, -0.000062404695), (-0.7558801, 0.65470034, -0.0035504422), (-0.7557424, 0.65485877, -0.0036870511), (0.70894766, 0, 0.7052612), (0.70894766, 0, 0.7052612), (0.70894766, 0, 0.7052612), (0.70894766, 0, 0.7052612), (0.73658395, 0, -0.67634624), (0.73658395, 0, -0.67634624), (0.73658395, 0, -0.67634624), (0.73658395, 0, -0.67634624), (-0.013053478, 0.99991477, 0.00022775796), (-0.018850137, 0.99981016, 0.004947263), (-0.020878397, 0.99978197, 0.00027779044), (-0.022065047, 0.9997537, 0.0023655705), (-0.012906547, -0.9999167, -0.00017804501), (-0.018903827, -0.99980944, -0.0048828125), (-0.020910917, -0.99978125, -0.00020608108), (-0.022235978, -0.9997494, -0.0025599601), (-0.018903704, 0.99980944, -0.004883184), (-0.012906391, 0.9999167, -0.00017868937), (-0.024037069, 0.999704, -0.003765802), (-0.03292414, 0.9994107, -0.009718983), (-0.018849881, -0.99981016, 0.004947732), (-0.013053378, -0.99991477, 0.00022834516), (-0.023812039, -0.99971056, 0.0034430204), (-0.032978836, -0.9994146, 0.009096748), (-0.018849881, -0.99981016, 0.004947732), (-0.020757886, -0.9997846, 0.000065810505), (-0.020910917, -0.99978125, -0.00020608108), (-0.018903827, -0.99980944, -0.0048828125), (-0.018903704, 0.99980944, -0.004883184), (-0.020757854, 0.9997845, 0.00006550896), (-0.020878397, 0.99978197, 0.00027779044), (-0.018850137, 0.99981016, 0.004947263), (-5.99855e-8, 1, -1.4722765e-7), (-3.3811617e-8, 1, -1.3881197e-7), (-1.06017445e-7, 1, -1.6202827e-7), (-1.06017445e-7, 1, -1.6202827e-7), (0.60770476, 0.42659137, 0.66986173), (0.60770476, 0.42659137, 0.66986173), (0.60770476, 0.42659137, 0.66986173), (0.60770476, 0.42659137, 0.66986173), (0.6682378, 0, 0.7439478), (0.6682378, 0, 0.7439478), (0.6682378, 0, 0.7439478), (0.6682378, 0, 0.7439478), (-0.24187534, 0, -0.9703074), (-0.24187534, 0, -0.9703074), (-0.24187534, 0, -0.9703074), (-0.24187534, 0, -0.9703074), (-0.15039177, 0.029820684, -0.98817664), (-0.15039177, 0.029820684, -0.98817664), (-0.15039177, 0.029820684, -0.98817664), (-0.15039177, 0.029820684, -0.98817664), (-0.15039182, -0.029820692, -0.98817664), (-0.15039182, -0.029820692, -0.98817664), (-0.15039182, -0.029820692, -0.98817664), (-0.15039182, -0.029820692, -0.98817664), (-4.2320876e-9, 1, -1.3676289e-7), (-4.3348987e-9, 1, -1.417442e-7), (-3.3811617e-8, 1, -1.3881197e-7), (-5.99855e-8, 1, -1.4722765e-7), (0.38395151, 0.19052082, 0.90348387), (0.38395151, 0.19052082, 0.90348387), (0.38395151, 0.19052082, 0.90348387), (0.99656504, 0, 0.08281303), (0.99656504, 0, 0.08281303), (0.99656504, 0, 0.08281303), (0.99656504, 0, 0.08281303), (0.8189344, 0.57066494, 0.060728926), (0.8189344, 0.57066494, 0.060728926), (0.8189344, 0.57066494, 0.060728926), (0.8189344, 0.57066494, 0.060728926), (0.6077048, -0.4265914, 0.66986156), (0.6077048, -0.4265914, 0.66986156), (0.6077048, -0.4265914, 0.66986156), (0.6077048, -0.4265914, 0.66986156), (-0.26855543, 0, -0.9632642), (-0.26855543, 0, -0.9632642), (-0.26855543, 0, -0.9632642), (-0.26855543, 0, -0.9632642), (-0.2598493, -0.1640201, -0.9516174), (-0.2598493, -0.1640201, -0.9516174), (-0.2598493, -0.1640201, -0.9516174), (-0.2598493, -0.1640201, -0.9516174), (3.3811617e-8, -1, 1.5160207e-7), (5.99855e-8, -1, 1.7104377e-7), (1.06017445e-7, -1, 2.052358e-7), (1.06017445e-7, -1, 2.052358e-7), (-0.2598501, 0.16402002, -0.9516172), (-0.2598501, 0.16402002, -0.9516172), (-0.2598501, 0.16402002, -0.9516172), (-0.2598501, 0.16402002, -0.9516172)] (
                interpolation = "faceVarying"
            )
            point3f[] points = [(-0.012550939, 0.06746183, 1.1417719), (-0.02898712, 0.07796715, 1.7127845), (0.046909157, 0.048012003, 1.1417719), (0.050080176, 0.055440404, 1.7127845), (0.07153834, 0.0010559638, 1.1417719), (0.08283092, 0.0010560283, 1.7127845), (0.046909157, -0.04590007, 1.1417719), (0.050080176, -0.05332834, 1.7127845), (-0.012550945, -0.06534989, 1.1417719), (-0.02898713, -0.07585508, 1.7127845), (-0.07209295, -0.04590006, 1.1537656), (-0.10805443, -0.053328328, 1.7127845), (-0.096476406, 0.001055968, 1.1572359), (-0.14080516, 0.0010560326, 1.7127845), (-0.07209295, 0.048012, 1.1537656), (-0.10805443, 0.0554404, 1.7127845), (0.0062669353, 0.06716258, 0.3193631), (0.065080464, 0.047800377, 0.326048), (0.08944184, 0.0010558701, 0.32881695), (0.065080464, -0.045688618, 0.326048), (0.006266932, -0.065050825, 0.3193631), (-0.042364493, -0.045688607, 0.3141328), (-0.066725865, 0.0010558729, 0.31136385), (-0.042364493, 0.047800373, 0.3141328), (0.025822695, 0.08050004, -0.23185003), (0.0822803, 0.05723134, -0.24680644), (0.10974705, 0.0010557559, -0.25747257), (0.0822803, -0.055119824, -0.24680641), (0.02582268, -0.078388505, -0.2318502), (-0.062084723, -0.055847663, -0.17391379), (-0.09688568, 0.0010557811, -0.14601666), (-0.062084723, 0.05795921, -0.17391382), (-0.0592372, 0.096166275, -0.78986615), (0.020433696, 0.06830903, -0.79800415), (0.07209327, 0.0010556818, -0.7502932), (0.020433696, -0.06619765, -0.79800415), (-0.059237193, -0.094054885, -0.78986615), (-0.1389081, -0.06619763, -0.73989946), (-0.16088283, 0.0010556906, -0.68911093), (-0.1389081, 0.06830903, -0.73989946), (-0.23625806, -0.08903568, 1.6316319), (-0.23625806, -0.08903561, 2.1149225), (-0.23625806, 0.091147676, 1.6316319), (-0.23625806, 0.09114775, 2.1149225), (0.099334285, -0.08903569, 1.5787488), (0.099334285, -0.08903561, 2.1140602), (0.099334285, 0.09114767, 1.5787488), (0.099334285, 0.09114775, 2.1140602), (0.2604295, 0.03811149, 2.056784), (0.14395106, 0.03811141, 1.5865253), (0.14395106, -0.035999443, 1.5865253), (0.2604295, -0.035999365, 2.056784), (-0.36166638, 0.025032423, 1.6002424), (-0.36166638, -0.022920463, 1.6002424), (-0.36166638, -0.022920357, 2.1623735), (-0.36166638, 0.025032526, 2.1623735), (-0.5148178, 0.02331667, 1.5269378), (-0.5148178, -0.021204723, 1.5269378), (-0.5092454, -0.021204606, 2.2341905), (-0.5092454, 0.023316784, 2.2341905), (-0.75251055, 0.0010559359, 1.2872943), (-0.75251055, 0.0010561266, 2.458044), (-0.23625806, -0.08903567, 1.719392), (-0.23625806, -0.08903562, 2.0271623), (-0.23625806, 0.091147736, 2.0271623), (-0.23625806, 0.09114769, 1.719392), (0.099334285, 0.09114769, 1.719392), (0.099334285, 0.09114772, 1.9081047), (0.099334285, -0.08903564, 1.9081047), (0.099334285, -0.08903567, 1.719392), (0.14395106, 0.038111433, 1.719392), (0.14395106, 0.038111463, 1.9081047), (0.14395106, -0.03599942, 1.719392), (0.14395106, -0.03599939, 1.9081047), (-0.35708156, -0.02292039, 1.9971457), (-0.35726434, -0.022920437, 1.750826), (-0.35708156, 0.025032494, 1.9971454), (-0.35726434, 0.025032448, 1.750826), (-0.5118288, -0.02120469, 1.7129025), (-0.5092454, -0.02120464, 2.0265405), (-0.5092454, 0.02331675, 2.0265405), (-0.5118288, 0.0233167, 1.7129025), (-0.8599146, 0.0010559887, 1.5376428), (-0.8730768, 0.0010560693, 2.1591291), (-0.7207317, 0.01574556, 2.4389076), (-0.7207317, -0.013633312, 2.4389076), (-0.7213075, -0.013633496, 1.3080183), (-0.7213075, 0.015745375, 1.3080183), (-0.82884157, -0.013633368, 2.1470654), (-0.8173063, -0.013633447, 1.5538254), (-0.8173063, 0.01574543, 1.5538254), (-0.82884157, 0.015745508, 2.1470654), (-0.27479672, 0.04722045, 2.1245806), (-0.27479672, -0.045108307, 2.1245806), (-0.27479672, -0.045108397, 1.6252428), (-0.27479672, 0.047220368, 1.6252428), (-0.27386352, -0.045108326, 2.0210526), (-0.27390072, -0.045108374, 1.72579), (-0.27390072, 0.047220383, 1.72579), (-0.27386352, 0.04722043, 2.0210526), (-0.66092515, -0.017004767, 2.3866632), (-0.66092515, 0.019116832, 1.3678176), (-0.71285295, -0.017004889, 1.6069083), (-0.71285295, 0.019116951, 2.1099854), (-0.66092515, 0.019116998, 2.3866632), (-0.66092515, -0.017004935, 1.3678176), (-0.71285295, -0.017004818, 2.1099854), (-0.71285295, 0.019116879, 1.6069083), (0.21581273, -0.089035615, 2.0645607), (0.38021833, -0.035999376, 1.9491858), (0.38021833, 0.03811148, 1.9491858), (0.21581273, 0.09114774, 2.0645607), (0.23037863, -0.035999388, 1.8865603), (0.21581273, -0.08903564, 1.8987684), (0.21581273, 0.09114772, 1.8987684), (0.23037863, 0.038111467, 1.8865603), (0.3890996, 0.038111463, 1.8423094), (0.3890996, -0.035999395, 1.8423094), (0.34964177, -0.08903564, 1.8631356), (0.34964177, 0.09114772, 1.8631356), (0.3443904, -0.089035615, 1.9468385), (0.3443904, 0.09114774, 1.9468385)]
            uniform token subdivisionScheme = "none"
            uniform token subsetFamily:materialBind:familyType = "nonOverlapping"
            custom string userProperties:blender:data_name = "Cylinder.012"

            def GeomSubset "DarkWood" (
                prepend apiSchemas = ["MaterialBindingAPI"]
            )
            {
                uniform token elementType = "face"
                uniform token familyName = "materialBind"
                int[] indices = [0, 1, 2, 3, 4, 5, 6, 7, 8, 9, 10, 11, 12, 13, 14, 15, 16, 17, 18, 19, 20, 21, 22, 23, 24, 25, 26, 27, 28, 29, 30, 31, 32, 33, 34, 35]
                rel material:binding = </root/_materials/DarkWood>
            }

            def GeomSubset "LightGrey" (
                prepend apiSchemas = ["MaterialBindingAPI"]
            )
            {
                uniform token elementType = "face"
                uniform token familyName = "materialBind"
                int[] indices = [36, 50, 54, 55, 57, 58, 68, 69, 79, 80, 81, 82, 83, 84, 85, 86]
                rel material:binding = </root/_materials/LightGrey>
            }

            def GeomSubset "Red" (
                prepend apiSchemas = ["MaterialBindingAPI"]
            )
            {
                uniform token elementType = "face"
                uniform token familyName = "materialBind"
                int[] indices = [37, 38, 39, 40, 41, 42, 43, 44, 45, 46, 47, 48, 49, 51, 52, 53, 56, 59, 60, 61, 62, 63, 64, 65, 66, 67, 70, 71, 72, 73, 74, 75, 76, 77, 78, 87, 88, 89, 90, 91, 92, 93, 94, 95, 96, 97, 98, 99, 100, 101, 102, 103, 104, 105, 106, 107, 108, 109, 110, 111, 112, 113, 114, 115, 116, 117]
                rel material:binding = </root/_materials/Red>
            }
        }
    }

    def Scope "_materials"
    {
        def Material "DarkWood"
        {
            token outputs:surface.connect = </root/_materials/DarkWood/Principled_BSDF.outputs:surface>
            custom string userProperties:blender:data_name = "DarkWood"

            def Shader "Principled_BSDF"
            {
                uniform token info:id = "UsdPreviewSurface"
                float inputs:clearcoat = 0
                float inputs:clearcoatRoughness = 0.03
                color3f inputs:diffuseColor = (0.14238349, 0.087243736, 0.044256654)
                float inputs:ior = 1.5
                float inputs:metallic = 0
                float inputs:opacity = 1
                float inputs:roughness = 0.6900348
                float inputs:specular = 0.5
                token outputs:surface
            }
        }

        def Material "LightGrey"
        {
            token outputs:surface.connect = </root/_materials/LightGrey/Principled_BSDF.outputs:surface>
            custom string userProperties:blender:data_name = "LightGrey"

            def Shader "Principled_BSDF"
            {
                uniform token info:id = "UsdPreviewSurface"
                float inputs:clearcoat = 0
                float inputs:clearcoatRoughness = 0.03
                color3f inputs:diffuseColor = (0.37574494, 0.37574494, 0.37574494)
                float inputs:ior = 1.5
                float inputs:metallic = 0
                float inputs:opacity = 1
                float inputs:roughness = 0.6900348
                float inputs:specular = 0.5
                token outputs:surface
            }
        }

        def Material "Red"
        {
            token outputs:surface.connect = </root/_materials/Red/Principled_BSDF.outputs:surface>
            custom string userProperties:blender:data_name = "Red"

            def Shader "Principled_BSDF"
            {
                uniform token info:id = "UsdPreviewSurface"
                float inputs:clearcoat = 0
                float inputs:clearcoatRoughness = 0.03
                color3f inputs:diffuseColor = (0.21402915, 0.03954939, 0.037384413)
                float inputs:ior = 1.5
                float inputs:metallic = 0
                float inputs:opacity = 1
                float inputs:roughness = 0.6900348
                float inputs:specular = 0.5
                token outputs:surface
            }
        }
    }
}

