#usda 1.0
(
    defaultPrim = "root"
    doc = "Blender v5.1.2"
    metersPerUnit = 1
    upAxis = "Y"
)

def Xform "root" (
    customData = {
        dictionary Blender = {
            bool generated = 1
        }
    }
)
{
    float3 xformOp:rotateXYZ = (-90, -0, 0)
    uniform token[] xformOpOrder = ["xformOp:rotateXYZ"]

    def Xform "Raft_Paddle"
    {
        custom string userProperties:blender:object_name = "Raft_Paddle"

        def Mesh "Cylinder_024" (
            active = true
            prepend apiSchemas = ["MaterialBindingAPI"]
        )
        {
            uniform bool doubleSided = 1
            float3[] extent = [(-0.8355463, -8.963803, -0.15202634), (0.8355463, 5.888455, 0.15202783)]
            int[] faceVertexCounts = [4, 4, 4, 4, 4, 4, 8, 4, 4, 8, 4, 4, 4, 4, 4, 4, 4, 4, 4, 4, 4, 4, 4, 4, 4, 4, 4, 4, 4, 4, 4, 4, 4, 4, 4, 4, 4, 4, 4, 4, 4, 4, 4, 4, 4, 4, 4, 4, 4, 4, 4, 4, 4, 4, 4, 4, 4, 4, 4, 4, 4, 4, 4, 4, 4, 4, 4, 4, 4, 4, 4, 4, 4, 4, 4, 4, 4, 4, 4, 4, 4, 4, 4, 4, 4, 4, 4, 4, 4, 4, 4, 4, 4, 4, 4, 4, 4, 4, 4, 4, 4, 4, 4, 4, 4, 4, 4, 4, 4, 4, 4, 4, 4, 4, 4, 4, 4, 4, 4, 4, 4, 4, 4, 4, 4, 4, 4, 4]
            int[] faceVertexIndices = [0, 1, 3, 2, 2, 3, 5, 4, 4, 5, 7, 6, 6, 7, 9, 8, 8, 9, 11, 10, 10, 11, 13, 12, 3, 1, 15, 13, 11, 9, 7, 5, 12, 13, 15, 14, 14, 15, 1, 0, 0, 2, 4, 6, 8, 10, 12, 14, 16, 41, 93, 42, 16, 42, 94, 43, 16, 43, 96, 44, 16, 44, 95, 41, 17, 58, 96, 46, 17, 46, 100, 57, 17, 57, 104, 55, 17, 55, 101, 58, 18, 48, 99, 47, 18, 47, 100, 49, 18, 49, 98, 50, 18, 50, 97, 48, 19, 41, 95, 45, 19, 45, 99, 48, 19, 48, 97, 51, 19, 51, 93, 41, 20, 49, 100, 46, 20, 46, 96, 43, 20, 43, 94, 52, 20, 52, 98, 49, 21, 54, 102, 53, 21, 53, 101, 55, 21, 55, 104, 56, 21, 56, 103, 54, 22, 86, 118, 92, 22, 92, 117, 71, 22, 71, 107, 65, 22, 65, 111, 86, 23, 78, 114, 84, 23, 84, 113, 69, 23, 69, 106, 67, 23, 67, 110, 78, 24, 60, 99, 45, 24, 45, 95, 59, 24, 59, 102, 54, 24, 54, 103, 60, 25, 67, 106, 61, 25, 61, 105, 66, 25, 66, 109, 63, 25, 63, 110, 67, 26, 65, 107, 62, 26, 62, 108, 68, 26, 68, 112, 64, 26, 64, 111, 65, 27, 69, 113, 83, 27, 83, 115, 73, 27, 73, 105, 61, 27, 61, 106, 69, 28, 80, 116, 82, 28, 82, 114, 78, 28, 78, 110, 63, 28, 63, 109, 80, 29, 88, 120, 91, 29, 91, 119, 75, 29, 75, 112, 68, 29, 68, 108, 88, 30, 73, 115, 81, 30, 81, 116, 80, 30, 80, 109, 66, 30, 66, 105, 73, 31, 71, 117, 90, 31, 90, 120, 88, 31, 88, 108, 62, 31, 62, 107, 71, 32, 75, 119, 89, 32, 89, 118, 86, 32, 86, 111, 64, 32, 64, 112, 75, 33, 79, 96, 58, 33, 58, 101, 74, 33, 74, 116, 81, 33, 81, 115, 79, 34, 74, 101, 53, 34, 53, 102, 70, 34, 70, 114, 82, 34, 82, 116, 74, 35, 77, 95, 44, 35, 44, 96, 79, 35, 79, 115, 83, 35, 83, 113, 77, 36, 70, 102, 59, 36, 59, 95, 77, 36, 77, 113, 84, 36, 84, 114, 70, 37, 87, 103, 56, 37, 56, 104, 72, 37, 72, 118, 89, 37, 89, 119, 87, 38, 85, 100, 47, 38, 47, 99, 76, 38, 76, 120, 90, 38, 90, 117, 85, 39, 76, 99, 60, 39, 60, 103, 87, 39, 87, 119, 91, 39, 91, 120, 76, 40, 72, 104, 57, 40, 57, 100, 85, 40, 85, 117, 92, 40, 92, 118, 72, 121, 122, 124, 123, 123, 124, 128, 127, 127, 128, 126, 125, 126, 122, 130, 131, 123, 127, 125, 121, 128, 124, 122, 126, 131, 130, 134, 135, 125, 126, 131, 132, 122, 121, 129, 130, 121, 125, 132, 129, 133, 136, 140, 137, 132, 131, 135, 136, 129, 132, 136, 133, 130, 129, 133, 134, 140, 139, 138, 137, 134, 133, 137, 138, 135, 134, 138, 139, 136, 135, 139, 140]
            rel material:binding = </root/_materials/BrightYellow>
            normal3f[] normals = [(0.38268337, -1.9759659e-7, -0.9238795), (0.38268337, -1.9759659e-7, -0.9238795), (0.38268337, -1.9759659e-7, -0.9238795), (0.38268337, -1.9759659e-7, -0.9238795), (0.9238795, -8.241625e-8, -0.3826833), (0.9238795, -8.241625e-8, -0.3826833), (0.9238795, -8.241625e-8, -0.3826833), (0.9238795, -8.241625e-8, -0.3826833), (0.92387956, 8.2587114e-8, 0.3826834), (0.92387956, 8.2587114e-8, 0.3826834), (0.92387956, 8.2587114e-8, 0.3826834), (0.92387956, 8.2587114e-8, 0.3826834), (0.38268337, 1.9744263e-7, 0.92387956), (0.38268337, 1.9744263e-7, 0.92387956), (0.38268337, 1.9744263e-7, 0.92387956), (0.38268337, 1.9744263e-7, 0.92387956), (-0.38268352, 1.9767828e-7, 0.9238795), (-0.38268352, 1.9767828e-7, 0.9238795), (-0.38268352, 1.9767828e-7, 0.9238795), (-0.38268352, 1.9767828e-7, 0.9238795), (-0.9238795, 8.344462e-8, 0.3826834), (-0.9238795, 8.344462e-8, 0.3826834), (-0.9238795, 8.344462e-8, 0.3826834), (-0.9238795, 8.344462e-8, 0.3826834), (0, 1, 0.0000016219599), (0, 1, 0.0000016219599), (0, 1, 0.0000016219599), (0, 1, 0.0000016219599), (0, 1, 0.0000016219599), (0, 1, 0.0000016219599), (0, 1, 0.0000016219599), (0, 1, 0.0000016219599), (-0.92387956, -8.2587086e-8, -0.3826834), (-0.92387956, -8.2587086e-8, -0.3826834), (-0.92387956, -8.2587086e-8, -0.3826834), (-0.92387956, -8.2587086e-8, -0.3826834), (-0.3826834, -1.9821384e-7, -0.9238795), (-0.3826834, -1.9821384e-7, -0.9238795), (-0.3826834, -1.9821384e-7, -0.9238795), (-0.3826834, -1.9821384e-7, -0.9238795), (0, -1, -5.406533e-7), (0, -1, -5.406533e-7), (0, -1, -5.406533e-7), (0, -1, -5.406533e-7), (0, -1, -5.406533e-7), (0, -1, -5.406533e-7), (0, -1, -5.406533e-7), (0, -1, -5.406533e-7), (-0.9486833, -7.093311e-8, -0.31622776), (-0.9486833, -7.093311e-8, -0.31622776), (-0.9486833, -7.093311e-8, -0.31622776), (-0.9486833, -7.093311e-8, -0.31622776), (-0.9486833, 7.309131e-8, 0.31622782), (-0.9486833, 7.309131e-8, 0.31622782), (-0.9486833, 7.309131e-8, 0.31622782), (-0.9486833, 7.309131e-8, 0.31622782), (-0.9152622, -0.22604369, 0.33346558), (-0.9152622, -0.22604369, 0.33346558), (-0.9152622, -0.22604369, 0.33346558), (-0.9152622, -0.22604369, 0.33346558), (-0.9152622, -0.22604363, -0.33346558), (-0.9152622, -0.22604363, -0.33346558), (-0.9152622, -0.22604363, -0.33346558), (-0.9152622, -0.22604363, -0.33346558), (-0.07547968, -0.07758171, 0.9941246), (-0.07547968, -0.07758171, 0.9941246), (-0.07547968, -0.07758171, 0.9941246), (-0.07547968, -0.07758171, 0.9941246), (0.0754794, -0.07758146, 0.99412477), (0.0754794, -0.07758146, 0.99412477), (0.0754794, -0.07758146, 0.99412477), (0.0754794, -0.07758146, 0.99412477), (0.025036061, 0.33048856, 0.94347787), (0.025036061, 0.33048856, 0.94347787), (0.025036061, 0.33048856, 0.94347787), (0.025036061, 0.33048856, 0.94347787), (-0.025036035, 0.33048853, 0.94347787), (-0.025036035, 0.33048853, 0.94347787), (-0.025036035, 0.33048853, 0.94347787), (-0.025036035, 0.33048853, 0.94347787), (0.91526234, -0.22604352, -0.33346558), (0.91526234, -0.22604352, -0.33346558), (0.91526234, -0.22604352, -0.33346558), (0.91526234, -0.22604352, -0.33346558), (0.9152622, -0.22604361, 0.33346558), (0.9152622, -0.22604361, 0.33346558), (0.9152622, -0.22604361, 0.33346558), (0.9152622, -0.22604361, 0.33346558), (0.9486833, 7.0933126e-8, 0.31622782), (0.9486833, 7.0933126e-8, 0.31622782), (0.9486833, 7.0933126e-8, 0.31622782), (0.9486833, 7.0933126e-8, 0.31622782), (0.9486833, -1.196593e-7, -0.31622776), (0.9486833, -1.196593e-7, -0.31622776), (0.9486833, -1.196593e-7, -0.31622776), (0.9486833, -1.196593e-7, -0.31622776), (-0.22654468, -0.0572442, -0.9723171), (-0.22654468, -0.0572442, -0.9723171), (-0.22654468, -0.0572442, -0.9723171), (-0.22654468, -0.0572442, -0.9723171), (0.22654516, -0.057244312, -0.972317), (0.22654516, -0.057244312, -0.972317), (0.22654516, -0.057244312, -0.972317), (0.22654516, -0.057244312, -0.972317), (0.31622782, -9.753303e-8, -0.94868326), (0.31622782, -9.753303e-8, -0.94868326), (0.31622782, -9.753303e-8, -0.94868326), (0.31622782, -9.753303e-8, -0.94868326), (-0.31622782, -9.31387e-8, -0.94868326), (-0.31622782, -9.31387e-8, -0.94868326), (-0.31622782, -9.31387e-8, -0.94868326), (-0.31622782, -9.31387e-8, -0.94868326), (0.22654566, -0.057244275, 0.97231686), (0.22654566, -0.057244275, 0.97231686), (0.22654566, -0.057244275, 0.97231686), (0.22654566, -0.057244275, 0.97231686), (-0.22654475, -0.057244044, 0.9723171), (-0.22654475, -0.057244044, 0.9723171), (-0.22654475, -0.057244044, 0.9723171), (-0.22654475, -0.057244044, 0.9723171), (-0.31622776, 1.4186622e-7, 0.94868326), (-0.31622776, 1.4186622e-7, 0.94868326), (-0.31622776, 1.4186622e-7, 0.94868326), (-0.31622776, 1.4186622e-7, 0.94868326), (0.31622776, 1.3971005e-7, 0.94868326), (0.31622776, 1.3971005e-7, 0.94868326), (0.31622776, 1.3971005e-7, 0.94868326), (0.31622776, 1.3971005e-7, 0.94868326), (-0.072023675, 0.9507209, -0.30156648), (-0.072023675, 0.9507209, -0.30156648), (-0.072023675, 0.9507209, -0.30156648), (-0.072023675, 0.9507209, -0.30156648), (-0.0720237, 0.95072097, 0.30156645), (-0.0720237, 0.95072097, 0.30156645), (-0.0720237, 0.95072097, 0.30156645), (-0.0720237, 0.95072097, 0.30156645), (0.0720237, 0.9507209, 0.30156648), (0.0720237, 0.9507209, 0.30156648), (0.0720237, 0.9507209, 0.30156648), (0.0720237, 0.9507209, 0.30156648), (0.07202368, 0.9507209, -0.3015665), (0.07202368, 0.9507209, -0.3015665), (0.07202368, 0.9507209, -0.3015665), (0.07202368, 0.9507209, -0.3015665), (0.15631448, 0.3265304, 0.9321715), (0.15631448, 0.3265304, 0.9321715), (0.15631448, 0.3265304, 0.9321715), (0.15631448, 0.3265304, 0.9321715), (-0.1563135, -0.32652798, 0.9321726), (-0.1563135, -0.32652798, 0.9321726), (-0.1563135, -0.32652798, 0.9321726), (-0.1563135, -0.32652798, 0.9321726), (0.21733487, -0.37824434, 0.8998315), (0.21733487, -0.37824434, 0.8998315), (0.21733487, -0.37824434, 0.8998315), (0.21733487, -0.37824434, 0.8998315), (0.5468244, 0.3244343, 0.77183264), (0.5468244, 0.3244343, 0.77183264), (0.5468244, 0.3244343, 0.77183264), (0.5468244, 0.3244343, 0.77183264), (-0.15631355, 0.32652777, -0.9321726), (-0.15631355, 0.32652777, -0.9321726), (-0.15631355, 0.32652777, -0.9321726), (-0.15631355, 0.32652777, -0.9321726), (0.15631351, -0.32652807, -0.9321725), (0.15631351, -0.32652807, -0.9321725), (0.15631351, -0.32652807, -0.9321725), (0.15631351, -0.32652807, -0.9321725), (-0.21733363, -0.3782422, -0.89983267), (-0.21733363, -0.3782422, -0.89983267), (-0.21733363, -0.3782422, -0.89983267), (-0.21733363, -0.3782422, -0.89983267), (-0.5468269, 0.32443509, -0.7718305), (-0.5468269, 0.32443509, -0.7718305), (-0.5468269, 0.32443509, -0.7718305), (-0.5468269, 0.32443509, -0.7718305), (0.07547931, -0.07758175, -0.99412477), (0.07547931, -0.07758175, -0.99412477), (0.07547931, -0.07758175, -0.99412477), (0.07547931, -0.07758175, -0.99412477), (-0.0754795, -0.07758196, -0.99412465), (-0.0754795, -0.07758196, -0.99412465), (-0.0754795, -0.07758196, -0.99412465), (-0.0754795, -0.07758196, -0.99412465), (-0.025036015, 0.33048823, -0.943478), (-0.025036015, 0.33048823, -0.943478), (-0.025036015, 0.33048823, -0.943478), (-0.025036015, 0.33048823, -0.943478), (0.025036039, 0.33048823, -0.943478), (0.025036039, 0.33048823, -0.943478), (0.025036039, 0.33048823, -0.943478), (0.025036039, 0.33048823, -0.943478), (-0.8543822, -0.37644216, -0.35822108), (-0.8543822, -0.37644216, -0.35822108), (-0.8543822, -0.37644216, -0.35822108), (-0.8543822, -0.37644216, -0.35822108), (-0.8543821, -0.37644082, 0.35822266), (-0.8543821, -0.37644082, 0.35822266), (-0.8543821, -0.37644082, 0.35822266), (-0.8543821, -0.37644082, 0.35822266), (-0.92579, 0.2738587, 0.26060387), (-0.92579, 0.2738587, 0.26060387), (-0.92579, 0.2738587, 0.26060387), (-0.92579, 0.2738587, 0.26060387), (-0.9257892, 0.27386004, -0.26060492), (-0.9257892, 0.27386004, -0.26060492), (-0.9257892, 0.27386004, -0.26060492), (-0.9257892, 0.27386004, -0.26060492), (0.8543812, -0.3764417, 0.35822397), (0.8543812, -0.3764417, 0.35822397), (0.8543812, -0.3764417, 0.35822397), (0.8543812, -0.3764417, 0.35822397), (0.8543815, -0.37644246, -0.35822245), (0.8543815, -0.37644246, -0.35822245), (0.8543815, -0.37644246, -0.35822245), (0.8543815, -0.37644246, -0.35822245), (0.92578954, 0.27386013, -0.2606038), (0.92578954, 0.27386013, -0.2606038), (0.92578954, 0.27386013, -0.2606038), (0.92578954, 0.27386013, -0.2606038), (0.92579, 0.27385944, 0.26060265), (0.92579, 0.27385944, 0.26060265), (0.92579, 0.27385944, 0.26060265), (0.92579, 0.27385944, 0.26060265), (0.41513145, -0.86718076, -0.2750699), (0.41513145, -0.86718076, -0.2750699), (0.41513145, -0.86718076, -0.2750699), (0.41513145, -0.86718076, -0.2750699), (0.4151314, -0.86718076, 0.27506983), (0.4151314, -0.86718076, 0.27506983), (0.4151314, -0.86718076, 0.27506983), (0.4151314, -0.86718076, 0.27506983), (0.09621172, -0.9302487, 0.35409144), (0.09621172, -0.9302487, 0.35409144), (0.09621172, -0.9302487, 0.35409144), (0.09621172, -0.9302487, 0.35409144), (0.096211724, -0.9302481, -0.354093), (0.096211724, -0.9302481, -0.354093), (0.096211724, -0.9302481, -0.354093), (0.096211724, -0.9302481, -0.354093), (-0.41513214, 0.8671824, 0.27506387), (-0.41513214, 0.8671824, 0.27506387), (-0.41513214, 0.8671824, 0.27506387), (-0.41513214, 0.8671824, 0.27506387), (-0.4151322, 0.86718225, -0.27506393), (-0.4151322, 0.86718225, -0.27506393), (-0.4151322, 0.86718225, -0.27506393), (-0.4151322, 0.86718225, -0.27506393), (-0.6855078, 0.68043756, -0.2590053), (-0.6855078, 0.68043756, -0.2590053), (-0.6855078, 0.68043756, -0.2590053), (-0.6855078, 0.68043756, -0.2590053), (-0.6855082, 0.6804375, 0.25900427), (-0.6855082, 0.6804375, 0.25900427), (-0.6855082, 0.6804375, 0.25900427), (-0.6855082, 0.6804375, 0.25900427), (-0.15631352, -0.32652828, -0.9321725), (-0.15631352, -0.32652828, -0.9321725), (-0.15631352, -0.32652828, -0.9321725), (-0.15631352, -0.32652828, -0.9321725), (0.15631463, 0.32653007, -0.9321715), (0.15631463, 0.32653007, -0.9321715), (0.15631463, 0.32653007, -0.9321715), (0.15631463, 0.32653007, -0.9321715), (0.5468257, 0.32443407, -0.77183175), (0.5468257, 0.32443407, -0.77183175), (0.5468257, 0.32443407, -0.77183175), (0.5468257, 0.32443407, -0.77183175), (0.2173344, -0.37824246, -0.8998324), (0.2173344, -0.37824246, -0.8998324), (0.2173344, -0.37824246, -0.8998324), (0.2173344, -0.37824246, -0.8998324), (0.15631343, -0.3265279, 0.9321726), (0.15631343, -0.3265279, 0.9321726), (0.15631343, -0.3265279, 0.9321726), (0.15631343, -0.3265279, 0.9321726), (-0.15631342, 0.3265282, 0.9321725), (-0.15631342, 0.3265282, 0.9321725), (-0.15631342, 0.3265282, 0.9321725), (-0.15631342, 0.3265282, 0.9321725), (-0.54682803, 0.32443595, 0.7718292), (-0.54682803, 0.32443595, 0.7718292), (-0.54682803, 0.32443595, 0.7718292), (-0.54682803, 0.32443595, 0.7718292), (-0.21733294, -0.37824056, 0.89983356), (-0.21733294, -0.37824056, 0.89983356), (-0.21733294, -0.37824056, 0.89983356), (-0.21733294, -0.37824056, 0.89983356), (-0.41513136, -0.8671808, 0.27506983), (-0.41513136, -0.8671808, 0.27506983), (-0.41513136, -0.8671808, 0.27506983), (-0.41513136, -0.8671808, 0.27506983), (-0.41513133, -0.8671808, -0.27506983), (-0.41513133, -0.8671808, -0.27506983), (-0.41513133, -0.8671808, -0.27506983), (-0.41513133, -0.8671808, -0.27506983), (-0.09621159, -0.9302464, -0.35409746), (-0.09621159, -0.9302464, -0.35409746), (-0.09621159, -0.9302464, -0.35409746), (-0.09621159, -0.9302464, -0.35409746), (-0.09621152, -0.9302458, 0.35409898), (-0.09621152, -0.9302458, 0.35409898), (-0.09621152, -0.9302458, 0.35409898), (-0.09621152, -0.9302458, 0.35409898), (0.41513133, 0.8671808, -0.27506983), (0.41513133, 0.8671808, -0.27506983), (0.41513133, 0.8671808, -0.27506983), (0.41513133, 0.8671808, -0.27506983), (0.41513133, 0.8671808, 0.2750698), (0.41513133, 0.8671808, 0.2750698), (0.41513133, 0.8671808, 0.2750698), (0.41513133, 0.8671808, 0.2750698), (0.6855091, 0.6804379, 0.25900096), (0.6855091, 0.6804379, 0.25900096), (0.6855091, 0.6804379, 0.25900096), (0.6855091, 0.6804379, 0.25900096), (0.68550915, 0.68043834, -0.2589998), (0.68550915, 0.68043834, -0.2589998), (0.68550915, 0.68043834, -0.2589998), (0.68550915, 0.68043834, -0.2589998), (-0.021982454, -0.23348689, 0.97211146), (-0.021982454, -0.23348689, 0.97211146), (-0.021982454, -0.23348689, 0.97211146), (-0.021982454, -0.23348689, 0.97211146), (-0.073301755, 0.32970506, 0.94123405), (-0.073301755, 0.32970506, 0.94123405), (-0.073301755, 0.32970506, 0.94123405), (-0.073301755, 0.32970506, 0.94123405), (-0.11453559, 0.3284182, 0.9375623), (-0.11453559, 0.3284182, 0.9375623), (-0.11453559, 0.3284182, 0.9375623), (-0.11453559, 0.3284182, 0.9375623), (0.11453487, -0.32841587, 0.9375632), (0.11453487, -0.32841587, 0.9375632), (0.11453487, -0.32841587, 0.9375632), (0.11453487, -0.32841587, 0.9375632), (-0.20731719, 0.932486, 0.29578608), (-0.20731719, 0.932486, 0.29578608), (-0.20731719, 0.932486, 0.29578608), (-0.20731719, 0.932486, 0.29578608), (-0.20731717, 0.932486, -0.29578614), (-0.20731717, 0.932486, -0.29578614), (-0.20731717, 0.932486, -0.29578614), (-0.20731717, 0.932486, -0.29578614), (-0.3154527, 0.90452564, -0.28691986), (-0.3154527, 0.90452564, -0.28691986), (-0.3154527, 0.90452564, -0.28691986), (-0.3154527, 0.90452564, -0.28691986), (-0.3154527, 0.90452564, 0.2869198), (-0.3154527, 0.90452564, 0.2869198), (-0.3154527, 0.90452564, 0.2869198), (-0.3154527, 0.90452564, 0.2869198), (-0.102481194, -0.9363102, -0.3358881), (-0.102481194, -0.9363102, -0.3358881), (-0.102481194, -0.9363102, -0.3358881), (-0.102481194, -0.9363102, -0.3358881), (-0.102481276, -0.93631065, 0.33588666), (-0.102481276, -0.93631065, 0.33588666), (-0.102481276, -0.93631065, 0.33588666), (-0.102481276, -0.93631065, 0.33588666), (0.31545147, -0.9045278, 0.28691447), (0.31545147, -0.9045278, 0.28691447), (0.31545147, -0.9045278, 0.28691447), (0.31545147, -0.9045278, 0.28691447), (0.31545147, -0.9045278, -0.2869145), (0.31545147, -0.9045278, -0.2869145), (0.31545147, -0.9045278, -0.2869145), (0.31545147, -0.9045278, -0.2869145), (-0.07330171, 0.3297049, -0.9412341), (-0.07330171, 0.3297049, -0.9412341), (-0.07330171, 0.3297049, -0.9412341), (-0.07330171, 0.3297049, -0.9412341), (-0.02198233, -0.23348685, -0.97211146), (-0.02198233, -0.23348685, -0.97211146), (-0.02198233, -0.23348685, -0.97211146), (-0.02198233, -0.23348685, -0.97211146), (0.114534944, -0.32841635, -0.9375631), (0.114534944, -0.32841635, -0.9375631), (0.114534944, -0.32841635, -0.9375631), (0.114534944, -0.32841635, -0.9375631), (-0.114535645, 0.32841802, -0.9375623), (-0.114535645, 0.32841802, -0.9375623), (-0.114535645, 0.32841802, -0.9375623), (-0.114535645, 0.32841802, -0.9375623), (0.20731717, 0.932486, -0.29578614), (0.20731717, 0.932486, -0.29578614), (0.20731717, 0.932486, -0.29578614), (0.20731717, 0.932486, -0.29578614), (0.20731719, 0.932486, 0.29578608), (0.20731719, 0.932486, 0.29578608), (0.20731719, 0.932486, 0.29578608), (0.20731719, 0.932486, 0.29578608), (0.31545323, 0.9045272, 0.28691426), (0.31545323, 0.9045272, 0.28691426), (0.31545323, 0.9045272, 0.28691426), (0.31545323, 0.9045272, 0.28691426), (0.3154533, 0.9045272, -0.28691438), (0.3154533, 0.9045272, -0.28691438), (0.3154533, 0.9045272, -0.28691438), (0.3154533, 0.9045272, -0.28691438), (0.10248133, -0.9363112, 0.3358852), (0.10248133, -0.9363112, 0.3358852), (0.10248133, -0.9363112, 0.3358852), (0.10248133, -0.9363112, 0.3358852), (0.10248125, -0.93631077, -0.33588666), (0.10248125, -0.93631077, -0.33588666), (0.10248125, -0.93631077, -0.33588666), (0.10248125, -0.93631077, -0.33588666), (-0.31545094, -0.90452623, -0.28692007), (-0.31545094, -0.90452623, -0.28692007), (-0.31545094, -0.90452623, -0.28692007), (-0.31545094, -0.90452623, -0.28692007), (-0.31545094, -0.90452623, 0.28692), (-0.31545094, -0.90452623, 0.28692), (-0.31545094, -0.90452623, 0.28692), (-0.31545094, -0.90452623, 0.28692), (0.02198228, -0.23348646, -0.9721115), (0.02198228, -0.23348646, -0.9721115), (0.02198228, -0.23348646, -0.9721115), (0.02198228, -0.23348646, -0.9721115), (0.07330171, 0.32970488, -0.9412341), (0.07330171, 0.32970488, -0.9412341), (0.07330171, 0.32970488, -0.9412341), (0.07330171, 0.32970488, -0.9412341), (0.11453561, 0.328418, -0.93756247), (0.11453561, 0.328418, -0.93756247), (0.11453561, 0.328418, -0.93756247), (0.11453561, 0.328418, -0.93756247), (-0.114534944, -0.32841626, -0.9375631), (-0.114534944, -0.32841626, -0.9375631), (-0.114534944, -0.32841626, -0.9375631), (-0.114534944, -0.32841626, -0.9375631), (0.073301755, 0.32970503, 0.94123405), (0.073301755, 0.32970503, 0.94123405), (0.073301755, 0.32970503, 0.94123405), (0.073301755, 0.32970503, 0.94123405), (0.021982389, -0.23348635, 0.9721115), (0.021982389, -0.23348635, 0.9721115), (0.021982389, -0.23348635, 0.9721115), (0.021982389, -0.23348635, 0.9721115), (-0.1145349, -0.32841578, 0.9375632), (-0.1145349, -0.32841578, 0.9375632), (-0.1145349, -0.32841578, 0.9375632), (-0.1145349, -0.32841578, 0.9375632), (0.11453559, 0.32841823, 0.9375623), (0.11453559, 0.32841823, 0.9375623), (0.11453559, 0.32841823, 0.9375623), (0.11453559, 0.32841823, 0.9375623), (-0.9999382, -0.011121406, 0), (-0.9999382, -0.011121406, 0), (-0.9999382, -0.011121406, 0), (-0.9999382, -0.011121406, 0), (0, 1, 0), (0, 1, 0), (0, 1, 0), (0, 1, 0), (0.9999382, -0.011121406, 0), (0.9999382, -0.011121406, 0), (0.9999382, -0.011121406, 0), (0.9999382, -0.011121406, 0), (0, 1.6066257e-7, 1), (0, 1.6066257e-7, 1), (0, 1.621021e-7, 1), (0, 1.621021e-7, 1), (0, -0.047049746, -0.9988926), (0, -0.047049746, -0.9988926), (0, -0.047049746, -0.9988926), (0, -0.047049746, -0.9988926), (0, -0.047049485, 0.9988926), (0, -0.047049485, 0.9988926), (0, -0.047049485, 0.9988926), (0, -0.047049485, 0.9988926), (0, 1.621021e-7, 1), (0, 1.621021e-7, 1), (0, 2.0205299e-7, 1), (0, 2.0205299e-7, 1), (0.67614174, 0.7367716, 0), (0.67614174, 0.7367716, 0), (0.67614174, 0.7367716, 0), (0.67614174, 0.7367716, 0), (-0.67614174, 0.7367716, 0), (-0.67614174, 0.7367716, 0), (-0.67614174, 0.7367716, 0), (-0.67614174, 0.7367716, 0), (0, -1.6066257e-7, -1), (0, -1.6066257e-7, -1), (0, -1.6361294e-7, -1), (0, -1.6361294e-7, -1), (0, -1.958781e-7, -1), (0, -1.958781e-7, -1), (0, -2.4173758e-7, -1), (0, -2.4173758e-7, -1), (0.9982883, 0.058484618, 0), (0.9982883, 0.058484618, 0), (0.9982883, 0.058484618, 0), (0.9982883, 0.058484618, 0), (0, -1.6361294e-7, -1), (0, -1.6361294e-7, -1), (0, -1.958781e-7, -1), (0, -1.958781e-7, -1), (-0.9982883, 0.058484618, 0), (-0.9982883, 0.058484618, 0), (-0.9982883, 0.058484618, 0), (-0.9982883, 0.058484618, 0), (0, -1, 0), (0, -1, 0), (0, -1, 0), (0, -1, 0), (-0.851942, -0.5236363, 0), (-0.851942, -0.5236363, 0), (-0.851942, -0.5236363, 0), (-0.851942, -0.5236363, 0), (0, 2.0205299e-7, 1), (0, 2.0205299e-7, 1), (0, 2.603328e-7, 1), (0, 2.603328e-7, 1), (0.851942, -0.5236363, 0), (0.851942, -0.5236363, 0), (0.851942, -0.5236363, 0), (0.851942, -0.5236363, 0)] (
                interpolation = "faceVarying"
            )
            point3f[] points = [(-7.539099e-10, -3.04217, -0.13960177), (-7.5391227e-10, 5.433962, -0.13960359), (0.09871386, -3.04217, -0.098713145), (0.09871386, 5.433962, -0.098714955), (0.13960247, -3.04217, 7.189296e-7), (0.13960247, 5.433962, -0.000001096613), (0.09871386, -3.04217, 0.09871457), (0.09871386, 5.433962, 0.09871275), (-1.2958347e-8, -3.04217, 0.13960318), (-1.2958349e-8, 5.433962, 0.13960138), (-0.098713875, -3.04217, 0.09871456), (-0.098713875, 5.433962, 0.098712735), (-0.13960248, -3.04217, 7.111626e-7), (-0.13960248, 5.433962, -0.0000011043799), (-0.098713875, -3.04217, -0.09871314), (-0.098713875, 5.433962, -0.098714955), (-0.109421, 5.5284266, -0.0000011434995), (5.8768444e-7, 5.784329, 0.109420404), (0.10942218, 5.5284266, -0.0000011434995), (5.8768444e-7, 5.5284266, -0.10942273), (5.8768444e-7, 5.5284266, 0.10942043), (5.8768444e-7, 5.888455, -0.0000012021555), (0.43026757, 5.6660857, 0.109420426), (-0.43026638, 5.6660857, -0.10942274), (5.8768444e-7, 5.784329, -0.109422766), (-0.52241015, 5.614905, -0.0000011575885), (0.52241135, 5.614905, -0.0000011575885), (-0.43026638, 5.56196, -0.0000011489627), (-0.43026638, 5.7702107, -0.0000011828911), (0.43026757, 5.6660857, -0.10942274), (-0.43026638, 5.6660857, 0.109420426), (0.43026757, 5.56196, -0.0000011489627), (0.43026757, 5.7702107, -0.0000011828911), (-0.22377181, 5.7507977, 0.109420404), (-0.22377181, 5.854923, -0.0000011966924), (-0.22377181, 5.646672, -0.0000011627641), (-0.22377181, 5.7507977, -0.109422766), (0.22377299, 5.854923, -0.0000011966924), (0.22377299, 5.646672, -0.0000011627641), (0.22377299, 5.7507977, -0.109422766), (0.22377299, 5.7507977, 0.109420404), (-0.082065605, 5.5284266, -0.08206733), (-0.109421, 5.376649, -0.0000011187717), (-0.082065605, 5.5284266, 0.08206504), (-0.1380087, 5.633877, -0.0000011606794), (5.8768444e-7, 5.668291, -0.10942274), (5.8768444e-7, 5.668291, 0.109420426), (0.13800988, 5.633877, -0.0000011606794), (0.08206678, 5.5284266, -0.08206733), (0.08206678, 5.5284266, 0.08206504), (0.10942218, 5.376649, -0.0000011187717), (5.8768444e-7, 5.376649, -0.10942271), (5.8768444e-7, 5.376649, 0.109420456), (-0.110653296, 5.880072, -0.0000012007898), (5.8768444e-7, 5.8624234, -0.082067385), (5.8768444e-7, 5.8624234, 0.08206499), (0.11065447, 5.880072, -0.0000012007898), (0.11065447, 5.7759466, 0.109420404), (-0.110653296, 5.7759466, 0.109420404), (-0.110653296, 5.7759466, -0.109422766), (0.11065447, 5.7759466, -0.109422766), (-0.49937418, 5.5496063, -0.0000011469501), (0.49937534, 5.5496063, -0.0000011469501), (-0.49937418, 5.7057943, -0.0000011723964), (0.49937534, 5.7057943, -0.0000011723964), (0.4993754, 5.6277003, 0.08206504), (-0.49937418, 5.6277003, 0.08206504), (-0.49937424, 5.6277003, -0.08206734), (0.49937534, 5.6277003, -0.08206734), (-0.43026638, 5.5879917, -0.08206734), (-0.22377181, 5.8288913, -0.08206737), (0.43026757, 5.5879917, 0.08206503), (0.22377299, 5.8288913, 0.08206501), (-0.43026638, 5.5879917, 0.08206503), (-0.22377181, 5.8288913, 0.08206501), (0.43026757, 5.7441797, -0.08206737), (0.22377299, 5.6727033, -0.08206735), (-0.22377181, 5.6727033, -0.08206735), (-0.43026638, 5.7441797, -0.08206737), (-0.22377181, 5.6727033, 0.08206503), (-0.43026638, 5.7441797, 0.08206501), (-0.33257088, 5.712854, 0.10942041), (-0.33257088, 5.816979, -0.0000011905106), (-0.33257088, 5.6087284, -0.0000011565822), (-0.33257088, 5.712854, -0.10942276), (0.22377299, 5.6727033, 0.08206503), (0.43026757, 5.7441797, 0.08206501), (0.22377299, 5.8288913, -0.08206737), (0.43026757, 5.5879917, -0.08206734), (0.33257204, 5.816979, -0.0000011905106), (0.33257204, 5.6087284, -0.0000011565822), (0.33257204, 5.712854, -0.10942276), (0.33257204, 5.712854, 0.10942041), (-0.082065605, 5.376649, -0.08206732), (-0.082065605, 5.376649, 0.08206506), (-0.11020968, 5.6672144, -0.09191529), (-0.11020968, 5.6672144, 0.09191297), (0.08206678, 5.376649, -0.08206732), (0.08206678, 5.376649, 0.08206506), (0.11021085, 5.6672144, -0.09191529), (0.11021085, 5.6672144, 0.09191297), (-0.110653296, 5.8540406, 0.08206499), (-0.110653296, 5.8540406, -0.082067385), (0.11065447, 5.8540406, -0.082067385), (0.11065447, 5.8540406, 0.08206499), (-0.4814574, 5.579805, 0.06078862), (-0.4814574, 5.579805, -0.060790926), (0.48145857, 5.579805, 0.06078862), (0.48145857, 5.579805, -0.060790926), (-0.4814574, 5.6954994, 0.0607886), (-0.4814574, 5.6954994, -0.06079094), (0.48145857, 5.6954994, 0.0607886), (0.48145857, 5.6954994, -0.06079094), (-0.33257088, 5.63476, -0.08206734), (-0.33257088, 5.790948, -0.08206738), (-0.33257088, 5.63476, 0.08206504), (-0.33257088, 5.790948, 0.082065), (0.33257204, 5.63476, 0.08206504), (0.33257204, 5.790948, 0.082065), (0.33257204, 5.790948, -0.08206738), (0.33257204, 5.63476, -0.08206734), (-0.13176544, -4.7118926, -0.06621844), (-0.13176544, -4.7118926, 0.06622042), (-0.15202712, -2.890143, -0.15202634), (-0.15202712, -2.890143, 0.15202783), (0.13176544, -4.7118926, -0.06621844), (0.13176544, -4.7118926, 0.06622042), (0.15202712, -2.890143, -0.15202634), (0.15202712, -2.890143, 0.15202783), (-0.63709, -5.1756334, -0.06621837), (-0.63709, -5.1756334, 0.06622049), (0.63709, -5.1756334, 0.06622049), (0.63709, -5.1756334, -0.06621837), (-0.8355463, -8.563131, -0.06621781), (-0.8355463, -8.563131, 0.06622104), (0.8355463, -8.563131, 0.06622104), (0.8355463, -8.563131, -0.06621781), (-0.58927786, -8.963803, -0.06621771), (-0.58927786, -8.963803, 0.06622115), (0.58927786, -8.963803, 0.06622115), (0.58927786, -8.963803, -0.06621771)]
            uniform token subdivisionScheme = "none"
            uniform token subsetFamily:materialBind:familyType = "nonOverlapping"
            custom string userProperties:blender:data_name = "Cylinder.024"

            def GeomSubset "BrightYellow" (
                prepend apiSchemas = ["MaterialBindingAPI"]
            )
            {
                uniform token elementType = "face"
                uniform token familyName = "materialBind"
                int[] indices = [10, 11, 12, 13, 14, 15, 16, 17, 18, 19, 20, 21, 22, 23, 24, 25, 26, 27, 28, 29, 30, 31, 32, 33, 34, 35, 36, 37, 38, 39, 40, 41, 42, 43, 44, 45, 46, 47, 48, 49, 50, 51, 52, 53, 54, 55, 56, 57, 58, 59, 60, 61, 62, 63, 64, 65, 66, 67, 68, 69, 70, 71, 72, 73, 74, 75, 76, 77, 78, 79, 80, 81, 82, 83, 84, 85, 86, 87, 88, 89, 90, 91, 92, 93, 94, 95, 96, 97, 98, 99, 100, 101, 102, 103, 104, 105, 106, 107, 108, 109, 110, 111, 112, 113, 114, 115, 116, 117, 118, 119, 120, 121, 122, 123, 124, 125, 126, 127]
                rel material:binding = </root/_materials/BrightYellow>
            }

            def GeomSubset "Blue" (
                prepend apiSchemas = ["MaterialBindingAPI"]
            )
            {
                uniform token elementType = "face"
                uniform token familyName = "materialBind"
                int[] indices = [0, 1, 2, 3, 4, 5, 6, 7, 8, 9]
                rel material:binding = </root/_materials/Blue>
            }
        }
    }

    def Scope "_materials"
    {
        def Material "BrightYellow"
        {
            token outputs:surface.connect = </root/_materials/BrightYellow/Principled_BSDF.outputs:surface>
            custom string userProperties:blender:data_name = "BrightYellow"

            def Shader "Principled_BSDF"
            {
                uniform token info:id = "UsdPreviewSurface"
                float inputs:clearcoat = 0
                float inputs:clearcoatRoughness = 0.03
                color3f inputs:diffuseColor = (0.42869052, 0.33716366, 0.028426038)
                float inputs:ior = 1.5
                float inputs:metallic = 0
                float inputs:opacity = 1
                float inputs:roughness = 0.6900348
                float inputs:specular = 0.5
                token outputs:surface
            }
        }

        def Material "Blue"
        {
            token outputs:surface.connect = </root/_materials/Blue/Principled_BSDF.outputs:surface>
            custom string userProperties:blender:data_name = "Blue"

            def Shader "Principled_BSDF"
            {
                uniform token info:id = "UsdPreviewSurface"
                float inputs:clearcoat = 0
                float inputs:clearcoatRoughness = 0.03
                color3f inputs:diffuseColor = (0.05947835, 0.09314314, 0.4292228)
                float inputs:ior = 1.5
                float inputs:metallic = 0
                float inputs:opacity = 1
                float inputs:roughness = 0.6900348
                float inputs:specular = 0.5
                token outputs:surface
            }
        }
    }
}

