#usda 1.0
(
    defaultPrim = "root"
    doc = "Blender v5.1.2"
    metersPerUnit = 1
    upAxis = "Y"
)

def Xform "root" (
    customData = {
        dictionary Blender = {
            bool generated = 1
        }
    }
)
{
    float3 xformOp:rotateXYZ = (-90, -0, 0)
    uniform token[] xformOpOrder = ["xformOp:rotateXYZ"]

    def Xform "WoodLog"
    {
        custom string userProperties:blender:object_name = "WoodLog"

        def Mesh "Cylinder_004" (
            active = true
            prepend apiSchemas = ["MaterialBindingAPI"]
        )
        {
            uniform bool doubleSided = 1
            float3[] extent = [(-1.9077137, -0.45981246, -0.019475754), (1.861109, 0.6492014, 1.0740358)]
            int[] faceVertexCounts = [4, 4, 4, 4, 4, 4, 4, 4, 4, 4, 4, 4, 4, 4, 4, 4, 4, 4, 4, 4, 4, 4, 4, 4, 4, 4, 4, 4, 4, 4, 4, 4, 4, 4, 4, 4, 4, 4, 4, 4, 4, 4, 4, 4, 4, 4, 4, 3, 4, 4, 4, 4, 4, 4, 4, 4, 4, 4, 4, 3, 3, 3, 3, 3, 3, 3, 4, 3, 3, 4, 4, 4, 4, 4, 4, 4, 4, 4, 4, 4, 4, 4, 4, 5, 4, 4, 4, 4, 4, 4, 4, 3, 4, 4, 4, 4, 4, 4, 4, 4, 4, 4, 5, 4, 5]
            int[] faceVertexIndices = [36, 1, 3, 37, 37, 3, 5, 38, 38, 5, 45, 39, 39, 7, 9, 40, 40, 9, 11, 41, 41, 11, 13, 42, 42, 13, 15, 43, 54, 47, 24, 25, 43, 15, 17, 44, 44, 17, 1, 36, 47, 48, 23, 24, 48, 49, 22, 23, 49, 50, 21, 22, 55, 51, 19, 18, 50, 52, 20, 56, 52, 55, 18, 20, 51, 53, 26, 19, 53, 54, 25, 26, 17, 15, 28, 35, 1, 17, 35, 32, 5, 3, 33, 34, 3, 1, 32, 33, 9, 7, 31, 30, 11, 9, 30, 29, 13, 11, 29, 27, 16, 44, 36, 0, 14, 43, 44, 16, 12, 42, 43, 14, 10, 41, 42, 12, 8, 40, 41, 10, 6, 39, 40, 46, 4, 38, 39, 6, 2, 37, 38, 4, 31, 45, 5, 34, 0, 36, 37, 2, 35, 28, 54, 53, 32, 35, 53, 51, 34, 33, 55, 52, 31, 34, 52, 50, 33, 32, 51, 55, 30, 31, 50, 49, 29, 30, 49, 48, 27, 29, 48, 47, 54, 57, 27, 47, 57, 15, 13, 27, 2, 4, 73, 72, 59, 8, 75, 81, 59, 46, 40, 12, 14, 78, 77, 4, 6, 74, 73, 18, 19, 61, 60, 20, 18, 60, 62, 56, 20, 62, 70, 22, 21, 63, 64, 23, 22, 64, 65, 24, 23, 65, 66, 25, 24, 66, 67, 26, 25, 67, 68, 19, 26, 68, 61, 28, 15, 69, 54, 28, 69, 31, 7, 58, 7, 39, 58, 45, 31, 58, 39, 45, 58, 40, 8, 59, 63, 21, 56, 70, 57, 54, 69, 15, 57, 69, 76, 77, 88, 87, 79, 71, 82, 90, 71, 72, 83, 82, 81, 75, 86, 92, 6, 46, 80, 74, 10, 12, 77, 76, 0, 2, 72, 71, 16, 0, 71, 79, 46, 59, 81, 80, 14, 16, 79, 78, 8, 10, 76, 75, 87, 88, 84, 85, 84, 88, 89, 83, 83, 89, 90, 82, 87, 85, 91, 92, 86, 80, 81, 92, 91, 72, 73, 84, 83, 74, 80, 91, 85, 77, 78, 89, 88, 73, 74, 85, 84, 78, 79, 90, 89, 75, 76, 87, 86, 21, 50, 56, 63, 70, 102, 96, 70, 62, 95, 102, 67, 66, 99, 100, 64, 63, 96, 97, 60, 61, 94, 93, 68, 67, 100, 101, 65, 64, 97, 98, 62, 60, 93, 95, 61, 68, 101, 94, 66, 65, 98, 99, 94, 101, 102, 95, 93, 101, 100, 96, 102, 97, 96, 100, 99, 98]
            rel material:binding = </root/_materials/Wood>
            normal3f[] normals = [(-0.033466864, -0.69678384, -0.7165), (-0.033466864, -0.69678384, -0.7165), (-0.033466864, -0.69678384, -0.7165), (-0.033466864, -0.69678384, -0.7165), (-0.03399084, -0.9953381, -0.09025987), (-0.03399084, -0.9953381, -0.09025987), (-0.03399084, -0.9953381, -0.09025987), (-0.03399084, -0.9953381, -0.09025987), (-0.019098774, -0.72615695, 0.6872637), (-0.019098774, -0.72615695, 0.6872637), (-0.019098774, -0.72615695, 0.6872637), (-0.019098774, -0.72615695, 0.6872637), (0.021101216, -0.40139946, 0.9156599), (0.021101216, -0.40139946, 0.9156599), (0.021101216, -0.40139946, 0.9156599), (0.021101216, -0.40139946, 0.9156599), (0.08955193, 0.4299849, 0.8983838), (0.08955193, 0.4299849, 0.8983838), (0.08955193, 0.4299849, 0.8983838), (0.08955193, 0.4299849, 0.8983838), (0.08543717, 0.9138775, 0.3968985), (0.08543717, 0.9138775, 0.3968985), (0.08543717, 0.9138775, 0.3968985), (0.08543717, 0.9138775, 0.3968985), (0.07107417, 0.98000675, -0.18583699), (0.07107417, 0.98000675, -0.18583699), (0.07107417, 0.98000675, -0.18583699), (0.07107417, 0.98000675, -0.18583699), (-0.05413113, 0.97232044, -0.22729425), (-0.05413113, 0.97232044, -0.22729425), (-0.05413113, 0.97232044, -0.22729425), (-0.05413113, 0.97232044, -0.22729425), (0.0148991635, 0.53180516, -0.84673566), (0.0148991635, 0.53180516, -0.84673566), (0.0148991635, 0.53180516, -0.84673566), (0.0148991635, 0.53180516, -0.84673566), (-0.014353581, -0.10904783, -0.99393296), (-0.014353581, -0.10904783, -0.99393296), (-0.014353581, -0.10904783, -0.99393296), (-0.014353581, -0.10904783, -0.99393296), (-0.019006263, 0.9107111, 0.4126066), (-0.019006263, 0.9107111, 0.4126066), (-0.019006263, 0.9107111, 0.4126066), (-0.019006263, 0.9107111, 0.4126066), (0.000106939806, 0.4343789, 0.90073025), (0.000106939806, 0.4343789, 0.90073025), (0.000106939806, 0.4343789, 0.90073025), (0.000106939806, 0.4343789, 0.90073025), (-0.01487855, -0.18997568, 0.98167604), (-0.01487855, -0.18997568, 0.98167604), (-0.01487855, -0.18997568, 0.98167604), (-0.01487855, -0.18997568, 0.98167604), (0.0057296013, -0.7123874, -0.70176303), (0.0057296013, -0.7123874, -0.70176303), (0.0057296013, -0.7123874, -0.70176303), (0.0057296013, -0.7123874, -0.70176303), (0.02740823, -0.80725664, 0.5895637), (0.02740823, -0.80725664, 0.5895637), (0.02740823, -0.80725664, 0.5895637), (0.02740823, -0.80725664, 0.5895637), (0.023407508, -0.99677074, -0.07681248), (0.023407508, -0.99677074, -0.07681248), (0.023407508, -0.99677074, -0.07681248), (0.023407508, -0.99677074, -0.07681248), (0.008179084, -0.13639764, -0.9906204), (0.008179084, -0.13639764, -0.9906204), (0.008179084, -0.13639764, -0.9906204), (0.008179084, -0.13639764, -0.9906204), (-0.021584613, 0.58859986, -0.8081363), (-0.021584613, 0.58859986, -0.8081363), (-0.021584613, 0.58859986, -0.8081363), (-0.021584613, 0.58859986, -0.8081363), (-0.016647452, 0.5141256, -0.85755336), (-0.016647452, 0.5141256, -0.85755336), (-0.016647452, 0.5141256, -0.85755336), (-0.016647452, 0.5141256, -0.85755336), (-0.02621043, -0.14728831, -0.9887463), (-0.02621043, -0.14728831, -0.9887463), (-0.02621043, -0.14728831, -0.9887463), (-0.02621043, -0.14728831, -0.9887463), (-0.0021710824, -0.9961513, -0.08762211), (-0.0021710824, -0.9961513, -0.08762211), (-0.0021710824, -0.9961513, -0.08762211), (-0.0021710824, -0.9961513, -0.08762211), (-0.01126919, -0.70923007, -0.704887), (-0.01126919, -0.70923007, -0.704887), (-0.01126919, -0.70923007, -0.704887), (-0.01126919, -0.70923007, -0.704887), (-0.03124112, -0.28810763, 0.9570883), (-0.03124112, -0.28810763, 0.9570883), (-0.03124112, -0.28810763, 0.9570883), (-0.03124112, -0.28810763, 0.9570883), (-0.0055060573, 0.44825053, 0.89389104), (-0.0055060573, 0.44825053, 0.89389104), (-0.0055060573, 0.44825053, 0.89389104), (-0.0055060573, 0.44825053, 0.89389104), (0.010783097, 0.9237549, 0.38283232), (0.010783097, 0.9237549, 0.38283232), (0.010783097, 0.9237549, 0.38283232), (0.010783097, 0.9237549, 0.38283232), (0.04965006, -0.11231715, -0.9924312), (0.04965006, -0.11231715, -0.9924312), (0.04965006, -0.11231715, -0.9924312), (0.04965006, -0.11231715, -0.9924312), (0.13773388, 0.48373565, -0.86430854), (0.13773388, 0.48373565, -0.86430854), (0.13773388, 0.48373565, -0.86430854), (0.13773388, 0.48373565, -0.86430854), (0.22325173, 0.96304494, -0.15067558), (0.22325173, 0.96304494, -0.15067558), (0.22325173, 0.96304494, -0.15067558), (0.22325173, 0.96304494, -0.15067558), (0.18176489, 0.8949145, 0.40754077), (0.18176489, 0.8949145, 0.40754077), (0.18176489, 0.8949145, 0.40754077), (0.18176489, 0.8949145, 0.40754077), (0.15166835, 0.42136127, 0.8941205), (0.15166835, 0.42136127, 0.8941205), (0.15166835, 0.42136127, 0.8941205), (0.15166835, 0.42136127, 0.8941205), (0.15988116, -0.36797428, 0.9159874), (0.15988116, -0.36797428, 0.9159874), (0.15988116, -0.36797428, 0.9159874), (0.15988116, -0.36797428, 0.9159874), (0.104166865, -0.7489538, 0.6543833), (0.104166865, -0.7489538, 0.6543833), (0.104166865, -0.7489538, 0.6543833), (0.104166865, -0.7489538, 0.6543833), (0.0017290487, -0.9968445, -0.07935982), (0.0017290487, -0.9968445, -0.07935982), (0.0017290487, -0.9968445, -0.07935982), (0.0017290487, -0.9968445, -0.07935982), (-0.009448863, -0.8015155, 0.5978994), (-0.009448863, -0.8015155, 0.5978994), (-0.009448863, -0.8015155, 0.5978994), (-0.009448863, -0.8015155, 0.5978994), (0.008841959, -0.7249804, -0.68871266), (0.008841959, -0.7249804, -0.68871266), (0.008841959, -0.7249804, -0.68871266), (0.008841959, -0.7249804, -0.68871266), (-0.023238782, 0.5653937, -0.8244938), (-0.023238782, 0.5653937, -0.8244938), (-0.023238782, 0.5653937, -0.8244938), (-0.023238782, 0.5653937, -0.8244938), (0.00018015006, -0.17087574, -0.9852925), (0.00018015006, -0.17087574, -0.9852925), (0.00018015006, -0.17087574, -0.9852925), (0.00018015006, -0.17087574, -0.9852925), (0.05113641, -0.9954891, -0.07991581), (0.05113641, -0.9954891, -0.07991581), (0.05113641, -0.9954891, -0.07991581), (0.05113641, -0.9954891, -0.07991581), (0.04472813, -0.79631424, 0.6032272), (0.04472813, -0.79631424, 0.6032272), (0.04472813, -0.79631424, 0.6032272), (0.04472813, -0.79631424, 0.6032272), (0.03107796, -0.71871245, -0.6946125), (0.03107796, -0.71871245, -0.6946125), (0.03107796, -0.71871245, -0.6946125), (0.03107796, -0.71871245, -0.6946125), (0.01571425, -0.25682425, 0.9663303), (0.01571425, -0.25682425, 0.9663303), (0.01571425, -0.25682425, 0.9663303), (0.01571425, -0.25682425, 0.9663303), (-0.027198566, 0.44595453, 0.8946423), (-0.027198566, 0.44595453, 0.8946423), (-0.027198566, 0.44595453, 0.8946423), (-0.027198566, 0.44595453, 0.8946423), (-0.06297011, 0.91295755, 0.40316644), (-0.06297011, 0.91295755, 0.40316644), (-0.06297011, 0.91295755, 0.40316644), (-0.06297011, 0.91295755, 0.40316644), (-0.048420906, 0.9609349, -0.2725061), (-0.048420906, 0.9609349, -0.2725061), (-0.048420906, 0.9609349, -0.2725061), (-0.048420906, 0.9609349, -0.2725061), (-0.017285611, 0.98144376, -0.19096915), (-0.017285611, 0.98144376, -0.19096915), (-0.017285611, 0.98144376, -0.19096915), (-0.017285611, 0.98144376, -0.19096915), (-0.9942228, 0.10725099, 0.0042669764), (-0.9942228, 0.10725099, 0.0042669764), (-0.9942228, 0.10725099, 0.0042669764), (-0.9942228, 0.10725099, 0.0042669764), (-0.9552986, 0.2893438, -0.06070345), (-0.9552986, 0.2893438, -0.06070345), (-0.9552986, 0.2893438, -0.06070345), (-0.9552986, 0.2893438, -0.06070345), (0.05111563, 0.18179709, 0.9820066), (0.05111563, 0.18179709, 0.9820066), (0.05111563, 0.18179709, 0.9820066), (-0.9740691, 0.14189953, -0.1762214), (-0.974162, 0.14192247, -0.17568874), (-0.974162, 0.14192247, -0.17568874), (-0.9740433, 0.14189318, -0.17636877), (-0.9941781, 0.098790176, -0.043017928), (-0.9941781, 0.098790176, -0.043017928), (-0.9941781, 0.098790176, -0.043017928), (-0.9941781, 0.098790176, -0.043017928), (0.971548, 0.16664834, -0.16829373), (0.971548, 0.16664834, -0.16829373), (0.971548, 0.16664834, -0.16829373), (0.971548, 0.16664834, -0.16829373), (0.99934554, 0.021300277, -0.029236712), (0.9991843, 0.024916053, -0.0317781), (0.9991843, 0.024916053, -0.0317781), (0.9993451, 0.021310404, -0.029243832), (0.9994859, 0.017719645, -0.026719755), (0.99934554, 0.021300277, -0.029236712), (0.9993451, 0.021310404, -0.029243832), (0.9994859, 0.017719645, -0.026719755), (0.99881256, 0.046953704, 0.012998435), (0.99881256, 0.046953704, 0.012998435), (0.99881256, 0.046953704, 0.012998435), (0.99881256, 0.046953704, 0.012998435), (0.99924004, 0.0380662, -0.008385161), (0.99924004, 0.0380662, -0.008385161), (0.99924004, 0.0380662, -0.008385161), (0.99924004, 0.0380662, -0.008385161), (0.998961, 0.038775988, -0.02394808), (0.998961, 0.038775988, -0.02394808), (0.998961, 0.038775988, -0.02394808), (0.998961, 0.038775988, -0.02394808), (0.900606, -0.04281939, -0.432522), (0.900606, -0.04281939, -0.432522), (0.900606, -0.04281939, -0.432522), (0.900606, -0.04281939, -0.432522), (0.9973075, -0.038407058, -0.062471792), (0.9973075, -0.038407058, -0.062471792), (0.9973075, -0.038407058, -0.062471792), (0.9973075, -0.038407058, -0.062471792), (0.9541946, 0.29628056, -0.041600537), (0.9541946, 0.29628056, -0.041600537), (0.9541946, 0.29628056, -0.041600537), (0.9541946, 0.29628056, -0.041600537), (0.04962681, 0.88707227, 0.45895502), (0.04962681, 0.88707227, 0.45895502), (0.04962681, 0.88707227, 0.45895502), (-0.07472454, 0.88772255, 0.45427412), (-0.07472454, 0.88772255, 0.45427412), (-0.07472454, 0.88772255, 0.45427412), (-0.06390362, -0.953768, -0.29367155), (-0.06390362, -0.953768, -0.29367155), (-0.06390362, -0.953768, -0.29367155), (-0.034577195, -0.9549737, -0.2946689), (-0.034577195, -0.9549737, -0.2946689), (-0.034577195, -0.9549737, -0.2946689), (-0.13375346, -0.07289628, 0.98832995), (-0.13375346, -0.07289628, 0.98832995), (-0.13375346, -0.07289628, 0.98832995), (0.09258633, 0.0013659177, 0.99570376), (0.09258633, 0.0013659177, 0.99570376), (0.09258633, 0.0013659177, 0.99570376), (-0.011323264, -0.9023873, 0.43077695), (-0.011323264, -0.9023873, 0.43077695), (-0.011323264, -0.9023873, 0.43077695), (0.9995716, -0.0204447, -0.020943616), (0.9995716, -0.0204447, -0.020943616), (0.9995716, -0.0204447, -0.020943616), (0.9995716, -0.0204447, -0.020943616), (-0.05794861, 0.05783904, -0.99664265), (-0.05794861, 0.05783904, -0.99664265), (-0.05794861, 0.05783904, -0.99664265), (0.09860309, 0.069738016, -0.9926802), (0.09860309, 0.069738016, -0.9926802), (0.09860309, 0.069738016, -0.9926802), (-0.8712927, -0.32539374, -0.3673798), (-0.8712927, -0.32539374, -0.3673798), (-0.8712927, -0.32539374, -0.3673798), (-0.8712927, -0.32539374, -0.3673798), (-0.9370874, 0.20061713, 0.28569224), (-0.9370874, 0.20061713, 0.28569224), (-0.9370874, 0.20061713, 0.28569224), (-0.9370874, 0.20061713, 0.28569224), (-0.8636813, 0.477308, 0.16196217), (-0.8636813, 0.477308, 0.16196217), (-0.8636813, 0.477308, 0.16196217), (-0.8636813, 0.477308, 0.16196217), (-0.28108165, 0.8750151, -0.39413407), (-0.28108165, 0.8750151, -0.39413407), (-0.28108165, 0.8750151, -0.39413407), (-0.28108165, 0.8750151, -0.39413407), (-0.9949559, 0.060223054, -0.08022486), (-0.9949559, 0.060223054, -0.08022486), (-0.9949559, 0.060223054, -0.08022486), (-0.9949559, 0.060223054, -0.08022486), (-0.9739453, 0.14186901, -0.17692852), (-0.9740691, 0.14189953, -0.1762214), (-0.9740433, 0.14189318, -0.17636877), (-0.9739453, 0.14186901, -0.17692852), (-0.97413105, 0.17225508, -0.14627686), (-0.97413105, 0.17225508, -0.14627686), (-0.97413105, 0.17225508, -0.14627686), (-0.97413105, 0.17225508, -0.14627686), (-0.97827744, 0.1563284, -0.13614212), (-0.97827744, 0.1563284, -0.13614212), (-0.97827744, 0.1563284, -0.13614212), (-0.97827744, 0.1563284, -0.13614212), (-0.99395144, -0.011103968, -0.109257765), (-0.99395144, -0.011103968, -0.109257765), (-0.99395144, -0.011103968, -0.109257765), (-0.99395144, -0.011103968, -0.109257765), (-0.9739928, 0.18279453, -0.1338806), (-0.9739928, 0.18279453, -0.1338806), (-0.9739928, 0.18279453, -0.1338806), (-0.9739928, 0.18279453, -0.1338806), (-0.9960805, 0.032462295, -0.08227838), (-0.9960805, 0.032462295, -0.08227838), (-0.9960805, 0.032462295, -0.08227838), (-0.9960805, 0.032462295, -0.08227838), (-0.98850477, 0.08323932, -0.12621236), (-0.98850477, 0.08323932, -0.12621236), (-0.98850477, 0.08323932, -0.12621236), (-0.98850477, 0.08323932, -0.12621236), (-0.9854034, 0.14623706, -0.087147914), (-0.9854034, 0.14623706, -0.087147914), (-0.9854034, 0.14623706, -0.087147914), (-0.9854034, 0.14623706, -0.087147914), (-0.9766909, 0.16916503, -0.1321293), (-0.9766909, 0.16916503, -0.1321293), (-0.9766909, 0.16916503, -0.1321293), (-0.9766909, 0.16916503, -0.1321293), (-0.9969726, 0.054111015, -0.055833884), (-0.9969726, 0.054111015, -0.055833884), (-0.9969726, 0.054111015, -0.055833884), (-0.9969726, 0.054111015, -0.055833884), (-0.9969726, 0.054111015, -0.055833884), (-0.77342194, -0.108768374, -0.62449014), (-0.77342194, -0.108768374, -0.62449014), (-0.77342194, -0.108768374, -0.62449014), (-0.77342194, -0.108768374, -0.62449014), (-0.8340012, 0.55047756, 0.03763634), (-0.8340012, 0.55047756, 0.03763634), (-0.8340012, 0.55047756, 0.03763634), (-0.8340012, 0.55047756, 0.03763634), (-0.78660166, 0.18135786, -0.59022623), (-0.78660166, 0.18135786, -0.59022623), (-0.78660166, 0.18135786, -0.59022623), (-0.78660166, 0.18135786, -0.59022623), (-0.9458269, -0.3082059, -0.10208146), (-0.9458269, -0.3082059, -0.10208146), (-0.9458269, -0.3082059, -0.10208146), (-0.9458269, -0.3082059, -0.10208146), (-0.79486245, 0.50291294, -0.33951747), (-0.79486245, 0.50291294, -0.33951747), (-0.79486245, 0.50291294, -0.33951747), (-0.79486245, 0.50291294, -0.33951747), (-0.9703383, -0.007336944, 0.2416401), (-0.9703383, -0.007336944, 0.2416401), (-0.9703383, -0.007336944, 0.2416401), (-0.9703383, -0.007336944, 0.2416401), (-0.82420206, -0.19700105, -0.5309252), (-0.82420206, -0.19700105, -0.5309252), (-0.82420206, -0.19700105, -0.5309252), (-0.82420206, -0.19700105, -0.5309252), (0.067611866, -0.6482062, 0.7584573), (0.067611866, -0.6482062, 0.7584573), (0.067611866, -0.6482062, 0.7584573), (0.6515659, 0.49359804, -0.57604074), (0.6515659, 0.49359804, -0.57604074), (0.6515659, 0.49359804, -0.57604074), (0.6515659, 0.49359804, -0.57604074), (0.65804094, 0.59607196, -0.46008718), (0.65804094, 0.59607196, -0.46008718), (0.65804094, 0.59607196, -0.46008718), (0.65804094, 0.59607196, -0.46008718), (0.7029167, -0.6727206, -0.23098716), (0.7029167, -0.6727206, -0.23098716), (0.7029167, -0.6727206, -0.23098716), (0.7029167, -0.6727206, -0.23098716), (0.6634899, 0.11354067, -0.7395199), (0.6634899, 0.11354067, -0.7395199), (0.6634899, 0.11354067, -0.7395199), (0.6634899, 0.11354067, -0.7395199), (0.7234988, 0.6031104, 0.33586812), (0.7234988, 0.6031104, 0.33586812), (0.7234988, 0.6031104, 0.33586812), (0.7234988, 0.6031104, 0.33586812), (0.8599372, -0.34020165, 0.3804875), (0.8599372, -0.34020165, 0.3804875), (0.8599372, -0.34020165, 0.3804875), (0.8599372, -0.34020165, 0.3804875), (0.6583553, -0.30111855, -0.68985206), (0.6583553, -0.30111855, -0.68985206), (0.6583553, -0.30111855, -0.68985206), (0.6583553, -0.30111855, -0.68985206), (0.686573, 0.7263421, 0.032322146), (0.686573, 0.7263421, 0.032322146), (0.686573, 0.7263421, 0.032322146), (0.686573, 0.7263421, 0.032322146), (0.7954799, 0.3196611, 0.51480913), (0.7954799, 0.3196611, 0.51480913), (0.7954799, 0.3196611, 0.51480913), (0.7954799, 0.3196611, 0.51480913), (0.6838863, -0.6558769, -0.3195702), (0.6838863, -0.6558769, -0.3195702), (0.6838863, -0.6558769, -0.3195702), (0.6838863, -0.6558769, -0.3195702), (0.95950794, 0.27202982, -0.07310386), (0.95950794, 0.27202982, -0.07310386), (0.95950794, 0.27202982, -0.07310386), (0.95950794, 0.27202982, -0.07310386), (0.95950794, 0.27202982, -0.07310386), (0.97420776, 0.08306706, -0.2098077), (0.97420776, 0.08306706, -0.2098077), (0.97420776, 0.08306706, -0.2098077), (0.97420776, 0.08306706, -0.2098077), (0.95832413, -0.11781093, -0.26026022), (0.95832413, -0.11781093, -0.26026022), (0.95832413, -0.11781093, -0.26026022), (0.95832413, -0.11781093, -0.26026022), (0.95832413, -0.11781093, -0.26026022)] (
                interpolation = "faceVarying"
            )
            point3f[] points = [(-1.8222809, -0.16069919, 0.031601578), (-0.22647704, -0.20207848, 0.05427178), (-1.9063355, -0.4050811, 0.30357644), (-0.23581204, -0.4302054, 0.27379745), (-1.9077137, -0.43273804, 0.67754865), (-0.23721112, -0.4595413, 0.58145183), (-1.8991172, -0.2137337, 0.9818264), (-0.29558384, -0.22114873, 0.81977326), (-1.8845689, 0.14945766, 1.0740358), (-0.21755876, 0.03472954, 0.91373533), (-1.860122, 0.48646185, 0.9110376), (-0.20588, 0.32249865, 0.773425), (-1.7724667, 0.6492014, 0.5590088), (-0.044497237, 0.43017253, 0.52275115), (-1.7112123, 0.58965135, 0.17126079), (-0.1983637, 0.3797897, 0.17175047), (-1.7548187, 0.22084737, -0.015044007), (-0.2138075, 0.11205857, 0.013075157), (1.8428781, -0.37978232, 0.25540975), (1.7695813, -0.15376651, 0.026367387), (1.8532206, -0.4037765, 0.57415336), (1.8600736, -0.10423383, 0.8928491), (1.851304, 0.09328815, 0.912203), (1.8399398, 0.3816847, 0.7731657), (1.827774, 0.5133512, 0.48159432), (1.6957333, 0.45198107, 0.19031866), (1.6756812, 0.16816515, -0.0058518252), (0.37768286, 0.4458812, 0.45927215), (0.41045952, 0.3578535, 0.14831692), (0.5056123, 0.31893227, 0.7756735), (0.50202227, 0.033802018, 0.92255515), (0.38922134, -0.27349305, 0.840759), (0.49213827, -0.21202919, 0.04263906), (0.49393257, -0.43430305, 0.27640983), (0.4998132, -0.45981246, 0.592164), (0.48372376, 0.099570036, -0.009489747), (-1.1791602, -0.16205668, 0.057090137), (-1.1889359, -0.40083858, 0.29251784), (-1.1903117, -0.42921862, 0.6223699), (-1.1846168, -0.19390276, 0.83579516), (-1.1694776, 0.0948476, 0.97843593), (-1.157114, 0.39954147, 0.8327848), (-1.1566224, 0.51718473, 0.52980983), (-1.1545889, 0.45129576, 0.2095842), (-1.1655571, 0.17547733, 0.026410263), (-0.2532103, -0.33365878, 0.7493792), (-1.8907883, -0.0058087353, 1.034616), (1.2758048, 0.4985028, 0.4893371), (1.2849044, 0.36661953, 0.78045565), (1.2922778, 0.07825711, 0.9195593), (1.2419652, -0.23009208, 0.8403865), (1.2733965, -0.16952878, 0.037323482), (1.290473, -0.4180112, 0.58315605), (1.2314749, 0.14691263, -0.019475754), (1.2692473, 0.41243654, 0.18291695), (1.2821506, -0.39341453, 0.26566392), (1.855327, -0.28546366, 0.7383864), (0.4022758, 0.38137427, 0.23152336), (-0.29700133, -0.20057654, 0.7532686), (-1.8896306, 0.11959205, 1.0113405), (1.8417535, -0.3157133, 0.28264862), (1.7690837, -0.11960244, 0.087036505), (1.8513337, -0.33688453, 0.55491257), (1.861109, -0.09100643, 0.8244969), (1.8518484, 0.084498554, 0.84313416), (1.8406351, 0.33198163, 0.72440696), (1.8302598, 0.4445515, 0.4711681), (1.6987479, 0.3916682, 0.22497942), (1.6761429, 0.15214938, 0.061908938), (0.4072656, 0.31706378, 0.22750105), (1.8534197, -0.22925517, 0.6973363), (-1.8252597, -0.10718661, 0.11445204), (-1.8963094, -0.31376046, 0.34434983), (-1.8974748, -0.33713892, 0.66046584), (-1.8902084, -0.1520162, 0.91766953), (-1.8779107, 0.15498671, 0.9956129), (-1.8572462, 0.43985352, 0.85783243), (-1.7831511, 0.57741606, 0.56026495), (-1.7313738, 0.5270786, 0.23250443), (-1.768234, 0.21533185, 0.07502272), (-1.8831683, 0.0237411, 0.96229225), (-1.8821898, 0.12974158, 0.94261765), (-1.7990669, -0.08323728, 0.18354824), (-1.8607162, -0.26247948, 0.3830283), (-1.8617272, -0.28276458, 0.6573183), (-1.8554225, -0.12213543, 0.88049155), (-1.8447518, 0.1442472, 0.94812214), (-1.8268211, 0.39142326, 0.8285712), (-1.7625301, 0.51078486, 0.57037497), (-1.7176032, 0.46710795, 0.28598136), (-1.7495866, 0.19660813, 0.1493356), (-1.849314, 0.030367108, 0.91920984), (-1.8484647, 0.12234208, 0.9021387), (1.7791059, -0.2578796, 0.3137487), (1.7180674, -0.093158655, 0.14944656), (1.7871523, -0.2756621, 0.5424342), (1.7953628, -0.06913999, 0.7688673), (1.7875844, 0.078273326, 0.7845216), (1.778166, 0.2861437, 0.68479824), (1.7694514, 0.38069567, 0.47209314), (1.6589892, 0.3362769, 0.2653105), (1.6400031, 0.13509607, 0.12834126), (1.788904, -0.1852602, 0.6620606)]
            uniform token subdivisionScheme = "none"
            uniform token subsetFamily:materialBind:familyType = "nonOverlapping"
            custom string userProperties:blender:data_name = "Cylinder.004"

            def GeomSubset "Wood" (
                prepend apiSchemas = ["MaterialBindingAPI"]
            )
            {
                uniform token elementType = "face"
                uniform token familyName = "materialBind"
                int[] indices = [0, 1, 2, 3, 4, 5, 6, 7, 8, 9, 10, 11, 12, 13, 14, 15, 16, 17, 18, 19, 20, 21, 22, 23, 24, 25, 26, 27, 28, 29, 30, 31, 32, 33, 34, 35, 36, 37, 38, 39, 40, 41, 42, 43, 44, 45, 46, 47, 48, 49, 50, 51, 52, 53, 54, 55, 56, 57, 58, 59, 60, 61, 62, 63, 64, 65, 66, 67, 68, 69, 70, 71, 72, 73, 74, 75, 76, 77, 78, 79, 84, 85, 86, 87, 88, 89, 90, 91, 92, 93, 94, 95, 96, 97, 98, 99, 100, 101]
                rel material:binding = </root/_materials/Wood>
            }

            def GeomSubset "LightWood" (
                prepend apiSchemas = ["MaterialBindingAPI"]
            )
            {
                uniform token elementType = "face"
                uniform token familyName = "materialBind"
                int[] indices = [80, 81, 82, 83, 102, 103, 104]
                rel material:binding = </root/_materials/LightWood>
            }
        }
    }

    def Scope "_materials"
    {
        def Material "Wood"
        {
            token outputs:surface.connect = </root/_materials/Wood/Principled_BSDF.outputs:surface>
            custom string userProperties:blender:data_name = "Wood"

            def Shader "Principled_BSDF"
            {
                uniform token info:id = "UsdPreviewSurface"
                float inputs:clearcoat = 0
                float inputs:clearcoatRoughness = 0.03
                color3f inputs:diffuseColor = (0.15291856, 0.08545827, 0.06601199)
                float inputs:ior = 1.5
                float inputs:metallic = 0
                float inputs:opacity = 1
                float inputs:roughness = 0.6900348
                float inputs:specular = 0.5
                token outputs:surface
            }
        }

        def Material "LightWood"
        {
            token outputs:surface.connect = </root/_materials/LightWood/Principled_BSDF.outputs:surface>
            custom string userProperties:blender:data_name = "LightWood"

            def Shader "Principled_BSDF"
            {
                uniform token info:id = "UsdPreviewSurface"
                float inputs:clearcoat = 0
                float inputs:clearcoatRoughness = 0.03
                color3f inputs:diffuseColor = (0.1844637, 0.10423384, 0.08693071)
                float inputs:ior = 1.5
                float inputs:metallic = 0
                float inputs:opacity = 1
                float inputs:roughness = 0.6900348
                float inputs:specular = 0.5
                token outputs:surface
            }
        }
    }
}

