#usda 1.0
(
    defaultPrim = "root"
    doc = "Blender v5.1.2"
    metersPerUnit = 1
    upAxis = "Y"
)

def Xform "root" (
    customData = {
        dictionary Blender = {
            bool generated = 1
        }
    }
)
{
    float3 xformOp:rotateXYZ = (-90, -0, 0)
    uniform token[] xformOpOrder = ["xformOp:rotateXYZ"]

    def Xform "Roof_Front_Brick6"
    {
        custom string userProperties:blender:object_name = "Roof_Front_Brick6"

        def Mesh "Cube_101" (
            active = true
            prepend apiSchemas = ["MaterialBindingAPI"]
        )
        {
            uniform bool doubleSided = 1
            float3[] extent = [(-3.346518, -0.79414034, -0.1318021), (3.3478773, 0.33496368, 4.3839817)]
            int[] faceVertexCounts = [4, 4, 4, 4, 4, 4, 4, 4, 4, 4, 4, 4, 4, 4, 4, 4, 4, 4, 4, 4, 4, 4, 4, 4, 4, 4, 4, 4, 4, 4, 4, 4, 4, 4, 4, 4, 4, 4, 4, 4, 4, 4, 4, 4, 4, 4, 4, 4, 4, 4, 4, 4, 4, 4, 4, 4, 4, 4, 4, 4, 4, 4, 4, 4, 4, 4, 4, 4, 4, 4, 4, 4, 4, 4, 4, 4, 4, 4, 4, 4, 4, 4, 4, 4, 4, 4, 4, 4, 4, 4, 4, 4, 4, 4, 4, 4, 4, 4, 4, 4, 4, 4, 4, 4, 4, 4, 4, 4, 4, 4, 4, 4, 4, 4, 4, 4, 4, 4, 4, 4, 4, 4, 4, 4, 4, 4, 4, 4, 4, 4, 4, 4, 4, 4, 4, 4, 4, 4, 4, 4, 4, 4, 4, 4, 4, 4, 4, 4, 4, 4, 4, 4, 4, 4, 4, 4, 4, 4, 4, 4, 4, 4, 4, 4]
            int[] faceVertexIndices = [1, 11, 0, 2, 1, 13, 12, 11, 3, 2, 0, 9, 3, 9, 4, 10, 17, 7, 6, 5, 17, 5, 18, 19, 14, 8, 6, 7, 14, 16, 15, 8, 20, 22, 23, 21, 26, 24, 25, 27, 22, 26, 27, 23, 27, 25, 21, 23, 22, 20, 24, 26, 21, 25, 24, 20, 28, 30, 31, 29, 34, 32, 33, 35, 30, 34, 35, 31, 35, 33, 29, 31, 30, 28, 32, 34, 29, 33, 32, 28, 36, 37, 39, 38, 42, 43, 41, 40, 38, 39, 43, 42, 43, 39, 37, 41, 38, 42, 40, 36, 37, 36, 40, 41, 47, 46, 54, 55, 89, 86, 84, 91, 46, 47, 51, 50, 51, 47, 45, 49, 46, 50, 48, 44, 53, 55, 59, 57, 45, 47, 55, 53, 46, 44, 52, 54, 58, 56, 60, 62, 54, 52, 56, 58, 55, 54, 58, 59, 63, 62, 66, 67, 59, 58, 62, 63, 57, 59, 63, 61, 65, 67, 71, 69, 61, 63, 67, 65, 62, 60, 64, 66, 71, 70, 74, 75, 66, 64, 68, 70, 67, 66, 70, 71, 69, 71, 75, 73, 70, 68, 72, 74, 77, 79, 83, 81, 73, 75, 79, 77, 74, 72, 76, 78, 75, 74, 78, 79, 83, 82, 86, 87, 78, 76, 80, 82, 79, 78, 82, 83, 85, 87, 90, 88, 81, 83, 87, 85, 82, 80, 84, 86, 87, 86, 89, 90, 95, 103, 102, 94, 137, 139, 132, 134, 94, 98, 99, 95, 99, 97, 93, 95, 94, 92, 96, 98, 101, 105, 107, 103, 93, 101, 103, 95, 94, 102, 100, 92, 106, 110, 108, 104, 102, 106, 104, 100, 103, 107, 106, 102, 111, 115, 114, 110, 107, 111, 110, 106, 105, 109, 111, 107, 113, 117, 119, 115, 109, 113, 115, 111, 110, 114, 112, 108, 119, 123, 122, 118, 114, 118, 116, 112, 115, 119, 118, 114, 117, 121, 123, 119, 118, 122, 120, 116, 125, 129, 131, 127, 121, 125, 127, 123, 122, 126, 124, 120, 123, 127, 126, 122, 131, 135, 134, 130, 126, 130, 128, 124, 127, 131, 130, 126, 133, 136, 138, 135, 129, 133, 135, 131, 130, 134, 132, 128, 135, 138, 137, 134, 143, 141, 145, 144, 146, 147, 140, 142, 147, 145, 141, 140, 144, 146, 142, 143, 148, 149, 151, 150, 154, 155, 153, 152, 150, 151, 155, 154, 155, 151, 149, 153, 150, 154, 152, 148, 149, 148, 152, 153, 156, 157, 159, 158, 162, 163, 161, 160, 158, 159, 163, 162, 163, 159, 157, 161, 158, 162, 160, 156, 157, 156, 160, 161, 164, 166, 167, 165, 165, 244, 245, 164, 166, 164, 245, 236, 166, 236, 237, 167, 168, 170, 171, 169, 169, 212, 228, 168, 170, 168, 228, 243, 170, 243, 221, 171, 172, 174, 175, 173, 173, 224, 240, 172, 174, 172, 240, 218, 174, 218, 233, 175, 176, 178, 179, 177, 177, 238, 213, 176, 178, 176, 213, 230, 178, 230, 246, 179, 180, 182, 183, 181, 181, 251, 225, 180, 182, 180, 225, 242, 182, 242, 219, 183, 184, 185, 187, 186, 185, 184, 231, 223, 186, 217, 231, 184, 186, 187, 250, 217, 188, 189, 191, 190, 189, 188, 229, 214, 190, 247, 229, 188, 190, 191, 222, 247, 192, 193, 195, 194, 193, 192, 241, 226, 194, 220, 241, 192, 194, 195, 234, 220, 196, 197, 199, 198, 197, 196, 216, 239, 198, 232, 216, 196, 198, 199, 249, 232, 200, 201, 203, 202, 201, 200, 235, 227, 202, 248, 235, 200, 202, 203, 215, 248, 204, 206, 207, 205, 210, 208, 209, 211, 206, 210, 211, 207, 211, 209, 205, 207, 206, 204, 208, 210, 205, 209, 208, 204, 223, 250, 187, 185, 237, 244, 165, 167, 214, 222, 191, 189, 221, 212, 169, 171, 226, 234, 195, 193, 233, 224, 173, 175, 239, 249, 199, 197, 246, 238, 177, 179, 227, 215, 203, 201, 219, 251, 181, 183]
            rel material:binding = </root/_materials/MI_WoodTrim>
            normal3f[] normals = [(-6.2750907e-12, -1, -4.784779e-15), (-1.9131258e-13, -1, -6.099195e-15), (-1.073611e-11, -1, 0), (-1.0736111e-11, -1, 0), (-6.2750907e-12, -1, -4.784779e-15), (1.0353354e-11, -0.99999994, -8.377396e-15), (1.0353354e-11, -0.99999994, -8.377396e-15), (-1.9131258e-13, -1, -6.099195e-15), (-6.275299e-12, -1, 4.784779e-15), (-1.0736111e-11, -1, 0), (-1.073611e-11, -1, 0), (-1.9144456e-13, -1, 6.099195e-15), (-6.275299e-12, -1, 4.784779e-15), (-1.9144456e-13, -1, 6.099195e-15), (1.0353354e-11, -0.99999994, 8.377396e-15), (1.0353354e-11, -0.99999994, 8.377396e-15), (3.2254667e-7, 1, 0), (3.2172963e-7, 1, 0), (3.2172966e-7, 1, 0), (3.2366094e-7, 1, 0), (3.2254667e-7, 1, 0), (3.2366094e-7, 1, 0), (3.2559217e-7, 0.99999994, 0), (3.2559217e-7, 0.99999994, 0), (3.2254664e-7, 1, 0), (3.2366094e-7, 1, 0), (3.2172966e-7, 1, 0), (3.2172963e-7, 1, 0), (3.2254664e-7, 1, 0), (3.2559217e-7, 0.99999994, 0), (3.2559217e-7, 0.99999994, 0), (3.2366094e-7, 1, 0), (0.99999994, -9.99209e-7, 0), (0.99999994, -9.99209e-7, 0), (0.99999994, -9.99209e-7, 0), (0.99999994, -9.99209e-7, 0), (-0.99999994, 9.992102e-7, 0), (-0.99999994, 9.992102e-7, 0), (-0.99999994, 9.992102e-7, 0), (-0.99999994, 9.992102e-7, 0), (-2.2157188e-8, 0, 1), (-2.2157188e-8, 0, 1), (-2.2157188e-8, 0, 1), (-2.2157188e-8, 0, 1), (-4.0066485e-8, -1, 0), (-4.0066485e-8, -1, 0), (-4.0066485e-8, -1, 0), (-4.0066485e-8, -1, 0), (0, 1, 0), (0, 1, 0), (0, 1, 0), (0, 1, 0), (1.8443288e-8, 0, -1), (1.8443288e-8, 0, -1), (1.8443288e-8, 0, -1), (1.8443288e-8, 0, -1), (0, 0, 1), (0, 0, 1), (0, 0, 1), (0, 0, 1), (2.3841858e-7, 0, -1), (2.3841858e-7, 0, -1), (2.3841858e-7, 0, -1), (2.3841858e-7, 0, -1), (-3.2227084e-7, -1, -1.7945828e-7), (-3.2227084e-7, -1, -1.7945828e-7), (-3.2227084e-7, -1, -1.7945828e-7), (-3.2227084e-7, -1, -1.7945828e-7), (1, 0, 7.676356e-7), (1, 0, 7.676356e-7), (1, 0, 7.676356e-7), (1, 0, 7.676356e-7), (-1, 3.4259818e-7, -5.644378e-7), (-1, 3.4259818e-7, -5.644378e-7), (-1, 3.4259818e-7, -5.644378e-7), (-1, 3.4259818e-7, -5.644378e-7), (-7.0899637e-7, 1, 8.75972e-8), (-7.0899637e-7, 1, 8.75972e-8), (-7.0899637e-7, 1, 8.75972e-8), (-7.0899637e-7, 1, 8.75972e-8), (2.9341402e-7, 0, 1), (2.9341402e-7, 0, 1), (2.9341402e-7, 0, 1), (2.9341402e-7, 0, 1), (-2.3841858e-7, 1.1659226e-13, -0.99999994), (-2.3841858e-7, 1.1659226e-13, -0.99999994), (-2.3841858e-7, 1.1659226e-13, -0.99999994), (-2.3841858e-7, 1.1659226e-13, -0.99999994), (-3.222711e-7, -1, -1.8005672e-7), (-3.222711e-7, -1, -1.8005672e-7), (-3.222711e-7, -1, -1.8005672e-7), (-3.222711e-7, -1, -1.8005672e-7), (-1, 0.0000010277937, 7.676357e-7), (-1, 0.0000010277937, 7.676357e-7), (-1, 0.0000010277937, 7.676357e-7), (-1, 0.0000010277937, 7.676357e-7), (1, -0.0000010277945, -6.0959303e-7), (1, -0.0000010277945, -6.0959303e-7), (1, -0.0000010277945, -6.0959303e-7), (1, -0.0000010277945, -6.0959303e-7), (0.0000013535382, 1, 9.155426e-8), (0.0000013535382, 1, 9.155426e-8), (0.0000013535382, 1, 9.155426e-8), (0.0000013535382, 1, 9.155426e-8), (-3.587118e-7, -1, 3.266434e-8), (-3.5931856e-7, -1, 3.133085e-8), (-3.3117993e-7, -1, 2.359995e-15), (-3.311799e-7, -1, -2.8227115e-14), (0.31775922, 0, 0.9481714), (0.38088816, 0, 0.92462116), (0.3809563, 0, 0.9245931), (0.31775922, 0, 0.9481714), (-3.5931856e-7, -1, 3.133085e-8), (-3.587118e-7, -1, 3.266434e-8), (-3.7357464e-7, -1, 0), (-3.7357464e-7, -1, 0), (-1, 0, 8.6013404e-7), (-0.99946463, 0, -0.03271892), (-0.99946463, 0, -0.03271892), (-1, 0, 8.6013404e-7), (0.99946463, 0, 0.032718956), (1, 0, -8.6013404e-7), (1, 0, -8.6013404e-7), (0.99946463, 0, 0.032718956), (-0.99144477, 0, -0.13052689), (-0.99144477, 0, -0.13052689), (-0.9659257, 0, -0.25881952), (-0.9659257, 0, -0.25881952), (-0.99946463, 0, -0.03271892), (-0.99946463, 0, -0.03271892), (-0.99144477, 0, -0.13052689), (-0.99144477, 0, -0.13052689), (0.99946463, 0, 0.032718956), (0.99946463, 0, 0.032718956), (0.99144477, 0, 0.13052669), (0.9914449, 0, 0.13052669), (0.96592575, 0, 0.25881937), (0.96592575, 0, 0.25881937), (0.92387927, 0, 0.38268408), (0.9238793, 0, 0.38268408), (0.9914449, 0, 0.13052669), (0.99144477, 0, 0.13052669), (0.96592575, 0, 0.25881937), (0.96592575, 0, 0.25881937), (-3.311799e-7, -1, -2.8227115e-14), (-3.3117993e-7, -1, 2.359995e-15), (-3.2632883e-7, -1, -2.5959944e-14), (-3.2632886e-7, -1, 3.256976e-14), (-3.3432343e-7, -1, 4.1255014e-14), (-3.3432343e-7, -1, 2.5959952e-14), (-3.47621e-7, -1, -3.2011467e-8), (-3.47621e-7, -1, -3.2011446e-8), (-3.2632886e-7, -1, 3.256976e-14), (-3.2632883e-7, -1, -2.5959944e-14), (-3.3432343e-7, -1, 2.5959952e-14), (-3.3432343e-7, -1, 4.1255014e-14), (-0.9659257, 0, -0.25881952), (-0.9659257, 0, -0.25881952), (-0.9238794, 0, -0.38268375), (-0.9238794, 0, -0.38268378), (-0.8660251, 0, -0.5000006), (-0.8660251, 0, -0.50000066), (-0.79335326, 0, -0.60876167), (-0.79335314, 0, -0.60876167), (-0.9238794, 0, -0.38268378), (-0.9238794, 0, -0.38268375), (-0.8660251, 0, -0.50000066), (-0.8660251, 0, -0.5000006), (0.9238793, 0, 0.38268408), (0.92387927, 0, 0.38268408), (0.86602503, 0, 0.50000066), (0.86602503, 0, 0.5000006), (-3.5678846e-7, -1, 0), (-3.5678846e-7, -1, 0), (-3.5036476e-7, -1, 0), (-3.5036473e-7, -1, 0), (0.86602503, 0, 0.5000006), (0.86602503, 0, 0.50000066), (0.79335356, 0, 0.60876125), (0.79335356, 0, 0.60876125), (-3.47621e-7, -1, -3.2011446e-8), (-3.47621e-7, -1, -3.2011467e-8), (-3.5678846e-7, -1, 0), (-3.5678846e-7, -1, 0), (-0.79335314, 0, -0.60876167), (-0.79335326, 0, -0.60876167), (-0.7071071, 0, -0.7071064), (-0.7071071, 0, -0.7071064), (0.79335356, 0, 0.60876125), (0.79335356, 0, 0.60876125), (0.707107, 0, 0.7071066), (0.70710707, 0, 0.70710653), (-0.6087617, 0, -0.7933531), (-0.6087618, 0, -0.7933531), (-0.49999958, 0, -0.8660256), (-0.49999958, 0, -0.8660256), (-0.7071071, 0, -0.7071064), (-0.7071071, 0, -0.7071064), (-0.6087618, 0, -0.7933531), (-0.6087617, 0, -0.7933531), (0.70710707, 0, 0.70710653), (0.707107, 0, 0.7071066), (0.60876185, 0, 0.793353), (0.6087619, 0, 0.7933531), (-3.5036473e-7, -1, 0), (-3.5036476e-7, -1, 0), (-3.4932535e-7, -1, 1.600576e-8), (-3.4932535e-7, -1, 1.6005727e-8), (-3.3299364e-7, -1, -4.8017043e-8), (-3.329936e-7, -1, -4.80173e-8), (-3.1776472e-7, -1, -4.8059174e-8), (-3.1776509e-7, -1, -4.804432e-8), (0.6087619, 0, 0.7933531), (0.60876185, 0, 0.793353), (0.5000296, 0, 0.86600834), (0.5000001, 0, 0.8660253), (-3.4932535e-7, -1, 1.6005727e-8), (-3.4932535e-7, -1, 1.600576e-8), (-3.329936e-7, -1, -4.80173e-8), (-3.3299364e-7, -1, -4.8017043e-8), (-0.3843509, 0, -0.9231871), (-0.3843509, 0, -0.9231871), (-0.3248577, 0, -0.9457629), (-0.3248577, 0, -0.9457629), (-0.49999958, 0, -0.8660256), (-0.49999958, 0, -0.8660256), (-0.3843509, 0, -0.9231871), (-0.3843509, 0, -0.9231871), (0.5000001, 0, 0.8660253), (0.5000296, 0, 0.86600834), (0.3809563, 0, 0.9245931), (0.38088816, 0, 0.92462116), (-3.1776509e-7, -1, -4.804432e-8), (-3.1776472e-7, -1, -4.8059174e-8), (-3.1970927e-7, -1, 3.2134206e-8), (-3.1970927e-7, -1, 3.2134206e-8), (-3.5871153e-7, -1, -5.379322e-9), (-3.3117968e-7, -1, -1.4005012e-8), (-3.3117968e-7, -1, -1.40050105e-8), (-3.5931828e-7, -1, -5.097603e-9), (-0.31775838, 0, 0.9481717), (-0.31775838, 0, 0.9481717), (-0.38095617, 0, 0.9245931), (-0.3808878, 0, 0.9246212), (-3.5931828e-7, -1, -5.097603e-9), (-3.735743e-7, -0.99999994, 1.5215047e-9), (-3.735743e-7, -0.99999994, 1.5215047e-9), (-3.5871153e-7, -1, -5.379322e-9), (1, -0.0000018378327, 4.7785227e-7), (1, -0.0000018378327, 4.7785227e-7), (0.99946463, -9.1940854e-7, -0.032718584), (0.99946463, -9.1940854e-7, -0.032718584), (-0.99946463, 4.5970427e-7, 0.032719087), (-0.99946463, 4.5970432e-7, 0.032719087), (-1, 9.189163e-7, -6.6899315e-7), (-1, 9.189163e-7, -6.6899315e-7), (0.99144477, 0, -0.13052635), (0.9659257, 0, -0.2588196), (0.9659257, 0, -0.2588196), (0.9914449, 0, -0.13052636), (0.99946463, -9.1940854e-7, -0.032718584), (0.99144477, 0, -0.13052635), (0.9914449, 0, -0.13052636), (0.99946463, -9.1940854e-7, -0.032718584), (-0.99946463, 4.5970427e-7, 0.032719087), (-0.9914447, 0, 0.13052712), (-0.9914447, 0, 0.13052712), (-0.99946463, 4.5970432e-7, 0.032719087), (-0.96592575, 0, 0.25881928), (-0.92387944, 0, 0.3826837), (-0.92387944, 0, 0.38268366), (-0.96592575, 0, 0.25881928), (-0.9914447, 0, 0.13052712), (-0.96592575, 0, 0.25881928), (-0.96592575, 0, 0.25881928), (-0.9914447, 0, 0.13052712), (-3.3117968e-7, -1, -1.4005012e-8), (-3.263289e-7, -1, 8.002866e-9), (-3.2632892e-7, -1, 8.0029e-9), (-3.3117968e-7, -1, -1.40050105e-8), (-3.3432383e-7, -1, 1.6005748e-8), (-3.4762124e-7, -1, -3.201151e-8), (-3.4762124e-7, -1, -3.201154e-8), (-3.3432383e-7, -1, 1.6005737e-8), (-3.263289e-7, -1, 8.002866e-9), (-3.3432383e-7, -1, 1.6005748e-8), (-3.3432383e-7, -1, 1.6005737e-8), (-3.2632892e-7, -1, 8.0029e-9), (0.9659257, 0, -0.2588196), (0.92387915, 0, -0.3826842), (0.92387915, 0, -0.3826842), (0.9659257, 0, -0.2588196), (0.8660252, 0, -0.5000004), (0.79335374, 0, -0.6087611), (0.7933537, 0, -0.60876095), (0.8660252, 0, -0.5000003), (0.92387915, 0, -0.3826842), (0.8660252, 0, -0.5000004), (0.8660252, 0, -0.5000003), (0.92387915, 0, -0.3826842), (-0.92387944, 0, 0.3826837), (-0.8660252, 0, 0.50000036), (-0.86602527, 0, 0.5000003), (-0.92387944, 0, 0.38268366), (-3.5678843e-7, -1, 1.6005721e-8), (-3.5036453e-7, -1, 8.0028684e-8), (-3.5036453e-7, -1, 8.0028656e-8), (-3.5678843e-7, -1, 1.60058e-8), (-0.8660252, 0, 0.50000036), (-0.7933533, 0, 0.6087615), (-0.7933533, 0, 0.60876155), (-0.86602527, 0, 0.5000003), (-3.4762124e-7, -1, -3.201151e-8), (-3.5678843e-7, -1, 1.6005721e-8), (-3.5678843e-7, -1, 1.60058e-8), (-3.4762124e-7, -1, -3.201154e-8), (0.79335374, 0, -0.6087611), (0.70710593, 0, -0.70710754), (0.70710593, 0, -0.70710766), (0.7933537, 0, -0.60876095), (-0.7933533, 0, 0.6087615), (-0.70710677, 0, 0.70710677), (-0.7071067, 0, 0.7071068), (-0.7933533, 0, 0.60876155), (0.6087613, 0, -0.79335344), (0.49999988, 0, -0.86602545), (0.49999988, 0, -0.86602545), (0.6087613, 0, -0.79335344), (0.70710593, 0, -0.70710754), (0.6087613, 0, -0.79335344), (0.6087613, 0, -0.79335344), (0.70710593, 0, -0.70710766), (-0.70710677, 0, 0.70710677), (-0.60876095, 0, 0.7933537), (-0.60876095, 0, 0.7933537), (-0.7071067, 0, 0.7071068), (-3.5036453e-7, -1, 8.0028684e-8), (-3.4932526e-7, -1, 3.20114e-8), (-3.4932523e-7, -1, 3.2011382e-8), (-3.5036453e-7, -1, 8.0028656e-8), (-3.3299344e-7, -1, 3.2011343e-8), (-3.1776426e-7, -1, 3.2046756e-8), (-3.1776392e-7, -1, 3.2052704e-8), (-3.3299338e-7, -1, 3.201143e-8), (-0.60876095, 0, 0.7933537), (-0.49999902, 0, 0.866026), (-0.5000285, 0, 0.86600894), (-0.60876095, 0, 0.7933537), (-3.4932526e-7, -1, 3.20114e-8), (-3.3299344e-7, -1, 3.2011343e-8), (-3.3299338e-7, -1, 3.201143e-8), (-3.4932523e-7, -1, 3.2011382e-8), (0.38434976, 0, -0.92318755), (0.32485694, 0, -0.94576323), (0.32485694, 0, -0.94576323), (0.3843497, 0, -0.92318755), (0.49999988, 0, -0.86602545), (0.38434976, 0, -0.92318755), (0.3843497, 0, -0.92318755), (0.49999988, 0, -0.86602545), (-0.49999902, 0, 0.866026), (-0.3808878, 0, 0.9246212), (-0.38095617, 0, 0.9245931), (-0.5000285, 0, 0.86600894), (-3.1776426e-7, -1, 3.2046756e-8), (-3.1970828e-7, -1, 0), (-3.1970828e-7, -1, 0), (-3.1776392e-7, -1, 3.2052704e-8), (9.207889e-7, -1.9757987e-13, -1), (9.207889e-7, -1.9757987e-13, -1), (9.207889e-7, -1.9757987e-13, -1), (9.207889e-7, -1.9757987e-13, -1), (-7.388506e-7, 3.5231141e-13, 1), (-7.388506e-7, 3.5231141e-13, 1), (-7.388506e-7, 3.5231141e-13, 1), (-7.388506e-7, 3.5231141e-13, 1), (3.2732723e-7, 1, -2.1027256e-8), (3.2732723e-7, 1, -2.1027256e-8), (3.2732723e-7, 1, -2.1027256e-8), (3.2732723e-7, 1, -2.1027256e-8), (-3.2570713e-7, -1, 2.628407e-8), (-3.2570713e-7, -1, 2.628407e-8), (-3.2570713e-7, -1, 2.628407e-8), (-3.2570713e-7, -1, 2.628407e-8), (1, 0, 0), (1, 0, 0), (1, 0, 0), (1, 0, 0), (-1, 0, 0), (-1, 0, 0), (-1, 0, 0), (-1, 0, 0), (-3.2628614e-7, -1, 0), (-3.2628614e-7, -1, 0), (-3.2628614e-7, -1, 0), (-3.2628614e-7, -1, 0), (1.2262558e-7, 0, 1), (1.2262558e-7, 0, 1), (1.2262558e-7, 0, 1), (1.2262558e-7, 0, 1), (-4.715605e-8, 0, -1), (-4.715605e-8, 0, -1), (-4.715605e-8, 0, -1), (-4.715605e-8, 0, -1), (3.2628614e-7, 1, 0), (3.2628614e-7, 1, 0), (3.2628614e-7, 1, 0), (3.2628614e-7, 1, 0), (0.000001090012, 0, 1), (0.000001090012, 0, 1), (0.000001090012, 0, 1), (0.000001090012, 0, 1), (-8.176003e-7, 0, -1), (-8.176003e-7, 0, -1), (-8.176003e-7, 0, -1), (-8.176003e-7, 0, -1), (-2.9523608e-7, -1, 2.759009e-9), (-2.9523608e-7, -1, 2.759009e-9), (-2.9523608e-7, -1, 2.759009e-9), (-2.9523608e-7, -1, 2.759009e-9), (-1, 2.5707297e-7, 2.5176902e-7), (-1, 2.5707297e-7, 2.5176902e-7), (-1, 2.5707297e-7, 2.5176902e-7), (-1, 2.5707297e-7, 2.5176902e-7), (1, -2.9991847e-7, -2.4954096e-7), (1, -2.9991847e-7, -2.4954096e-7), (1, -2.9991847e-7, -2.4954096e-7), (1, -2.9991847e-7, -2.4954096e-7), (2.9523602e-7, 0.99999994, 0), (2.9523602e-7, 0.99999994, 0), (2.9523602e-7, 0.99999994, 0), (2.9523602e-7, 0.99999994, 0), (-3.1505004e-7, -1, 0), (-3.1505004e-7, -1, 0), (-3.1505004e-7, -1, 0), (-3.1505004e-7, -1, 0), (-0.8124187, 2.7041972e-7, 0.5830745), (-0.8124187, 2.7041972e-7, 0.5830745), (-0.8124187, 2.7041972e-7, 0.5830745), (-0.8124187, 2.7041972e-7, 0.5830745), (-0.583078, 2.556865e-7, -0.8124161), (-0.583078, 2.556865e-7, -0.8124161), (-0.583078, 2.556865e-7, -0.8124161), (-0.583078, 2.556865e-7, -0.8124161), (0.8124171, -3.0422237e-7, -0.5830767), (0.8124171, -3.0422237e-7, -0.5830767), (0.8124171, -3.0422237e-7, -0.5830767), (0.8124171, -3.0422237e-7, -0.5830767), (-3.1504965e-7, -1, 4.169361e-7), (-3.1504965e-7, -1, 4.169361e-7), (-3.1504965e-7, -1, 4.169361e-7), (-3.1504965e-7, -1, 4.169361e-7), (-0.8124188, 2.1982977e-7, 0.5830743), (-0.8124188, 2.1982977e-7, 0.5830743), (-0.8124188, 2.1982977e-7, 0.5830743), (-0.8124188, 2.1982977e-7, 0.5830743), (-0.58307636, 3.579618e-7, -0.8124174), (-0.58307636, 3.579618e-7, -0.8124174), (-0.58307636, 3.579618e-7, -0.8124174), (-0.58307636, 3.579618e-7, -0.8124174), (0.8124165, -2.0281533e-7, -0.58307755), (0.8124165, -2.0281533e-7, -0.58307755), (0.8124165, -2.0281533e-7, -0.58307755), (0.8124165, -2.0281533e-7, -0.58307755), (-3.0698862e-7, -1, 0), (-3.0698862e-7, -1, 0), (-3.0698862e-7, -1, 0), (-3.0698862e-7, -1, 0), (-0.8124181, 1.352103e-7, 0.5830753), (-0.8124181, 1.352103e-7, 0.5830753), (-0.8124181, 1.352103e-7, 0.5830753), (-0.8124181, 1.352103e-7, 0.5830753), (-0.583076, 2.045498e-7, -0.8124176), (-0.583076, 2.045498e-7, -0.8124176), (-0.583076, 2.045498e-7, -0.8124176), (-0.583076, 2.045498e-7, -0.8124176), (0.81241673, -1.6133657e-7, -0.5830773), (0.81241673, -1.6133657e-7, -0.5830773), (0.81241673, -1.6133657e-7, -0.5830773), (0.81241673, -1.6133657e-7, -0.5830773), (-6.23338e-7, -1, 0), (-6.23338e-7, -1, 0), (-6.23338e-7, -1, 0), (-6.23338e-7, -1, 0), (-0.77984464, 2.7041995e-7, 0.6259732), (-0.77984464, 2.7041995e-7, 0.6259732), (-0.77984464, 2.7041995e-7, 0.6259732), (-0.77984464, 2.7041995e-7, 0.6259732), (-0.6259744, 2.0454965e-7, -0.77984357), (-0.6259744, 2.0454965e-7, -0.77984357), (-0.6259744, 2.0454965e-7, -0.77984357), (-0.6259744, 2.0454965e-7, -0.77984357), (0.77984256, -2.485074e-7, -0.62597555), (0.77984256, -2.485074e-7, -0.62597555), (0.77984256, -2.485074e-7, -0.62597555), (0.77984256, -2.485074e-7, -0.62597555), (-3.1689572e-7, -1, 0), (-3.1689572e-7, -1, 0), (-3.1689572e-7, -1, 0), (-3.1689572e-7, -1, 0), (-0.7279853, 4.165209e-7, 0.6855928), (-0.7279853, 4.165209e-7, 0.6855928), (-0.7279853, 4.165209e-7, 0.6855928), (-0.7279853, 4.165209e-7, 0.6855928), (-0.68559176, 4.0909939e-7, -0.7279862), (-0.68559176, 4.0909939e-7, -0.7279862), (-0.68559176, 4.0909939e-7, -0.7279862), (-0.68559176, 4.0909939e-7, -0.7279862), (0.7279849, -2.9111396e-7, -0.6855932), (0.7279849, -2.9111396e-7, -0.6855932), (0.7279849, -2.9111396e-7, -0.6855932), (0.7279849, -2.9111396e-7, -0.6855932), (-3.1505024e-7, -1, 0), (-3.1505024e-7, -1, 0), (-3.1505024e-7, -1, 0), (-3.1505024e-7, -1, 0), (0.81241786, -3.042226e-7, 0.5830755), (0.81241786, -3.042226e-7, 0.5830755), (0.81241786, -3.042226e-7, 0.5830755), (0.81241786, -3.042226e-7, 0.5830755), (0.5830759, -1.5341217e-7, -0.8124177), (0.5830759, -1.5341217e-7, -0.8124177), (0.5830759, -1.5341217e-7, -0.8124177), (0.5830759, -1.5341217e-7, -0.8124177), (-0.81241596, 2.0281541e-7, -0.5830782), (-0.81241596, 2.0281541e-7, -0.5830782), (-0.81241596, 2.0281541e-7, -0.5830782), (-0.81241596, 2.0281541e-7, -0.5830782), (-3.1504976e-7, -1, -2.0846814e-7), (-3.1504976e-7, -1, -2.0846814e-7), (-3.1504976e-7, -1, -2.0846814e-7), (-3.1504976e-7, -1, -2.0846814e-7), (0.812418, -2.704202e-7, 0.5830756), (0.812418, -2.704202e-7, 0.5830756), (0.812418, -2.704202e-7, 0.5830756), (0.812418, -2.704202e-7, 0.5830756), (0.5830759, 3.8266723e-8, -0.8124177), (0.5830759, 3.8266723e-8, -0.8124177), (0.5830759, 3.8266723e-8, -0.8124177), (0.5830759, 3.8266723e-8, -0.8124177), (-0.8124167, 3.3802525e-7, -0.5830773), (-0.8124167, 3.3802525e-7, -0.5830773), (-0.8124167, 3.3802525e-7, -0.5830773), (-0.8124167, 3.3802525e-7, -0.5830773), (-3.0698877e-7, -1, 4.1693733e-7), (-3.0698877e-7, -1, 4.1693733e-7), (-3.0698877e-7, -1, 4.1693733e-7), (-3.0698877e-7, -1, 4.1693733e-7), (0.81241876, -2.7041992e-7, 0.58307433), (0.81241876, -2.7041992e-7, 0.58307433), (0.81241876, -2.7041992e-7, 0.58307433), (0.81241876, -2.7041992e-7, 0.58307433), (0.58307654, -1.02274754e-7, -0.81241727), (0.58307654, -1.02274754e-7, -0.81241727), (0.58307654, -1.02274754e-7, -0.81241727), (0.58307654, -1.02274754e-7, -0.81241727), (-0.8124163, 2.7042083e-7, -0.58307785), (-0.8124163, 2.7042083e-7, -0.58307785), (-0.8124163, 2.7042083e-7, -0.58307785), (-0.8124163, 2.7042083e-7, -0.58307785), (-6.23338e-7, -1, 0), (-6.23338e-7, -1, 0), (-6.23338e-7, -1, 0), (-6.23338e-7, -1, 0), (0.7798443, -1.3520989e-7, 0.6259735), (0.7798443, -1.3520989e-7, 0.6259735), (0.7798443, -1.3520989e-7, 0.6259735), (0.7798443, -1.3520989e-7, 0.6259735), (0.6259744, -1.0227471e-7, -0.77984357), (0.6259744, -1.0227471e-7, -0.77984357), (0.6259744, -1.0227471e-7, -0.77984357), (0.6259744, -1.0227471e-7, -0.77984357), (-0.7798433, 1.3521006e-7, -0.6259748), (-0.7798433, 1.3521006e-7, -0.6259748), (-0.7798433, 1.3521006e-7, -0.6259748), (-0.7798433, 1.3521006e-7, -0.6259748), (-3.1689572e-7, -1, 4.1693627e-7), (-3.1689572e-7, -1, 4.1693627e-7), (-3.1689572e-7, -1, 4.1693627e-7), (-3.1689572e-7, -1, 4.1693627e-7), (0.72798544, 0, 0.68559265), (0.72798544, 0, 0.68559265), (0.72798544, 0, 0.68559265), (0.72798544, 0, 0.68559265), (0.68559164, -8.237758e-9, -0.7279864), (0.68559164, -8.237758e-9, -0.7279864), (0.68559164, -8.237758e-9, -0.7279864), (0.68559164, -8.237758e-9, -0.7279864), (-0.72798467, 1.3521002e-7, -0.6855935), (-0.72798467, 1.3521002e-7, -0.6855935), (-0.72798467, 1.3521002e-7, -0.6855935), (-0.72798467, 1.3521002e-7, -0.6855935), (1, 0, 0), (1, 0, 0), (1, 0, 0), (1, 0, 0), (-1, 0.000001998415, 0), (-1, 0.000001998415, 0), (-1, 0.000001998415, 0), (-1, 0.000001998415, 0), (-2.2131944e-8, 2.6339555e-7, -1), (-2.2131944e-8, 2.6339555e-7, -1), (-2.2131944e-8, 2.6339555e-7, -1), (-2.2131944e-8, 2.6339555e-7, -1), (2.2649034e-15, 1, 1.3510675e-7), (2.2649034e-15, 1, 1.3510675e-7), (2.2649034e-15, 1, 1.3510675e-7), (2.2649034e-15, 1, 1.3510675e-7), (1.513623e-7, -1, -1.01330045e-7), (1.513623e-7, -1, -1.01330045e-7), (1.513623e-7, -1, -1.01330045e-7), (1.513623e-7, -1, -1.01330045e-7), (2.2500563e-8, -1.3169777e-7, 1), (2.2500563e-8, -1.3169777e-7, 1), (2.2500563e-8, -1.3169777e-7, 1), (2.2500563e-8, -1.3169777e-7, 1), (-0.58307767, 5.1137235e-8, 0.8124165), (-0.58307767, 5.1137235e-8, 0.8124165), (-0.58307767, 5.1137235e-8, 0.8124165), (-0.58307767, 5.1137235e-8, 0.8124165), (0.5830784, -3.4517612e-7, 0.81241584), (0.5830784, -3.4517612e-7, 0.81241584), (0.5830784, -3.4517612e-7, 0.81241584), (0.5830784, -3.4517612e-7, 0.81241584), (-0.58307666, -5.1137267e-8, 0.81241715), (-0.58307666, -5.1137267e-8, 0.81241715), (-0.58307666, -5.1137267e-8, 0.81241715), (-0.58307666, -5.1137267e-8, 0.81241715), (0.5830772, -3.5796086e-7, 0.81241673), (0.5830772, -3.5796086e-7, 0.81241673), (0.5830772, -3.5796086e-7, 0.81241673), (0.5830772, -3.5796086e-7, 0.81241673), (-0.5830787, -1.534116e-7, 0.8124156), (-0.5830787, -1.534116e-7, 0.8124156), (-0.5830787, -1.534116e-7, 0.8124156), (-0.5830787, -1.534116e-7, 0.8124156), (0.5830769, -4.0909867e-7, 0.812417), (0.5830769, -4.0909867e-7, 0.812417), (0.5830769, -4.0909867e-7, 0.812417), (0.5830769, -4.0909867e-7, 0.812417), (-0.62597543, 0, 0.7798428), (-0.62597543, 0, 0.7798428), (-0.62597543, 0, 0.7798428), (-0.62597543, 0, 0.7798428), (0.6259759, -3.068238e-7, 0.7798423), (0.6259759, -3.068238e-7, 0.7798423), (0.6259759, -3.068238e-7, 0.7798423), (0.6259759, -3.068238e-7, 0.7798423), (-0.68559235, 1.0227458e-7, 0.7279856), (-0.68559235, 1.0227458e-7, 0.7279856), (-0.68559235, 1.0227458e-7, 0.7279856), (-0.68559235, 1.0227458e-7, 0.7279856), (0.6855923, -2.0454952e-7, 0.7279857), (0.6855923, -2.0454952e-7, 0.7279857), (0.6855923, -2.0454952e-7, 0.7279857), (0.6855923, -2.0454952e-7, 0.7279857)] (
                interpolation = "faceVarying"
            )
            point3f[] points = [(-3.567759e-10, 1.1625235e-16, 0.019167094), (-0.87999994, 9.4360075e-12, 3.099452), (-3.567759e-10, 1.1625235e-16, 4.3772297), (0.87999994, -9.4360075e-12, 3.099452), (3.1225505, 1.3756107e-11, 0.019167094), (-0.87999994, 0.24970071, 0.019167041), (8.136273e-8, 0.24970043, 0.019167041), (8.136273e-8, 0.24970043, 4.3772297), (0.88000005, 0.24970014, 0.019167041), (0.88, -9.464429e-12, 0.019167094), (3.1225505, 1.3756107e-11, 0.33169147), (-0.88, 9.464429e-12, 0.019167094), (-3.1225505, -1.3756107e-11, 0.019167094), (-3.1225505, -1.3756107e-11, 0.33169147), (0.88, 0.24970014, 3.099452), (3.1225505, 0.24969941, 0.019167041), (3.1225505, 0.24969941, 0.33169147), (-0.8799999, 0.24970071, 3.099452), (-3.1225505, 0.24970144, 0.019167041), (-3.1225505, 0.24970144, 0.33169147), (3.3478773, 0.10867034, -0.13180192), (3.3478773, -0.117623106, -0.13180193), (3.3478773, 0.10867034, 0.13180195), (3.3478773, -0.117623106, 0.13180195), (-3.346518, 0.10867034, -0.13180207), (-3.346518, -0.11762284, -0.13180205), (-3.346518, 0.10867034, 0.1318018), (-3.346518, -0.11762284, 0.1318018), (1.010297, 0.16911438, 2.6399999), (1.2414868, 0.16911478, 2.6399999), (1.010297, -0.09448907, 2.6399999), (1.2414867, -0.09448914, 2.6399999), (1.0102985, 0.16911486, -1.3246404e-7), (1.2414888, 0.16911478, -7.734397e-8), (1.0102984, -0.09448859, -1.3246404e-7), (1.2414887, -0.094488665, -7.734397e-8), (-1.0102967, 0.16911504, 2.6399999), (-1.2414865, 0.16911559, 2.6399999), (-1.010297, -0.09448841, 2.6399999), (-1.2414867, -0.09448834, 2.6399999), (-1.0102984, 0.16911551, -1.3246401e-7), (-1.2414886, 0.16911559, -7.734398e-8), (-1.0102985, -0.094487935, -1.3246401e-7), (-1.2414887, -0.09448786, -7.734398e-8), (-1.2449465, 0.022449303, 0.62367237), (-1.3646107, 0.022449343, 0.62367237), (-1.2449465, -0.08155413, 0.62367237), (-1.3646107, -0.081554085, 0.62367237), (-1.244947, 0.022449303, 0), (-1.3646111, 0.022449343, 0), (-1.2449471, -0.08155413, 0), (-1.3646113, -0.081554085, 0), (-1.2534261, 0.022449305, 0.75304466), (-1.3720665, 0.022449344, 0.7374253), (-1.2534261, -0.08155412, 0.75304466), (-1.3720665, -0.081554085, 0.7374253), (-1.2787195, 0.022449315, 0.88020325), (-1.3943063, 0.022449352, 0.8492319), (-1.2787195, -0.081554115, 0.88020325), (-1.3943063, -0.08155408, 0.8492319), (-1.3203942, 0.022449328, 1.0029726), (-1.4309494, 0.022449363, 0.957179), (-1.3203942, -0.0815541, 1.0029726), (-1.4309494, -0.08155406, 0.957179), (-1.3777369, 0.022449346, 1.119252), (-1.4813691, 0.02244938, 1.0594199), (-1.3777369, -0.081554085, 1.119252), (-1.4813691, -0.08155405, 1.0594199), (-1.4497665, 0.02244937, 1.2270519), (-1.5447025, 0.0224494, 1.1542048), (-1.4497665, -0.08155406, 1.2270519), (-1.5447025, -0.081554025, 1.1542048), (-1.5352507, 0.022449398, 1.3245279), (-1.6198659, 0.022449424, 1.2399123), (-1.5352507, -0.08155403, 1.3245279), (-1.6198659, -0.081554, 1.2399123), (-1.6327267, 0.02244943, 1.410012), (-1.7055736, 0.022449452, 1.3150758), (-1.6327267, -0.081554, 1.410012), (-1.7055736, -0.08155397, 1.3150758), (-1.7405264, 0.022449464, 1.4820415), (-1.8003583, 0.022449484, 1.378409), (-1.7405264, -0.081553966, 1.4820415), (-1.8003583, -0.08155394, 1.378409), (-1.8568059, 0.022237787, 1.5393841), (-1.9025993, 0.022449518, 1.4288286), (-1.8568059, -0.08155393, 1.5393841), (-1.9025993, -0.08155391, 1.4288286), (-2.0220017, 0.022449557, 1.4698417), (-1.9681196, -0.08155389, 1.5766885), (-2.0220017, -0.08155388, 1.4698417), (-1.9681196, 0.022026107, 1.5766885), (1.2449466, 0.022448491, 0.62367237), (1.3646109, 0.022448452, 0.62367237), (1.2449466, -0.081554934, 0.62367237), (1.3646109, -0.08155498, 0.62367237), (1.2449471, 0.022448491, -7.1054274e-15), (1.3646113, 0.022448452, 0), (1.244947, -0.081554934, -7.1054274e-15), (1.3646111, -0.08155498, 0), (1.2534262, 0.02244849, 0.75304466), (1.3720666, 0.02244845, 0.7374253), (1.2534262, -0.08155494, 0.75304466), (1.3720666, -0.08155498, 0.7374253), (1.2787198, 0.02244848, 0.88020337), (1.3943064, 0.022448443, 0.84923184), (1.2787198, -0.08155495, 0.88020337), (1.3943064, -0.08155499, 0.84923184), (1.3203943, 0.022448467, 1.0029727), (1.4309496, 0.022448432, 0.95717907), (1.3203943, -0.081554964, 1.0029727), (1.4309496, -0.081555, 0.95717907), (1.377737, 0.022448448, 1.119252), (1.4813693, 0.022448415, 1.0594198), (1.377737, -0.08155498, 1.119252), (1.4813693, -0.08155502, 1.0594198), (1.4497665, 0.022448424, 1.2270519), (1.5447025, 0.022448871, 1.1542048), (1.4497665, -0.081555, 1.2270519), (1.5447025, -0.08155504, 1.1542048), (1.5352507, 0.022448873, 1.3245279), (1.6198659, 0.022448847, 1.2399123), (1.5352507, -0.08155503, 1.3245279), (1.6198659, -0.08155506, 1.2399123), (1.6327266, 0.022448841, 1.410012), (1.7055737, 0.02244882, 1.3150756), (1.6327266, -0.08155506, 1.410012), (1.7055737, -0.08155509, 1.3150756), (1.7405266, 0.022448808, 1.4820415), (1.8003584, 0.022448787, 1.378409), (1.7405266, -0.0815551, 1.4820415), (1.8003584, -0.08155512, 1.378409), (1.856806, 0.022237053, 1.5393841), (1.9025995, 0.022448754, 1.4288285), (1.856806, -0.081555136, 1.5393841), (1.9025995, -0.08155515, 1.4288285), (2.0220022, 0.022448715, 1.4698416), (1.9681199, -0.08155517, 1.5766885), (2.0220022, -0.08155519, 1.4698416), (1.9681199, 0.022024825, 1.5766885), (-1.0630441, 0.20528482, 2.8435946), (-1.218272, 0.20528488, 2.6124043), (-1.063044, -0.05831934, 2.8435946), (-1.2182721, -0.05831929, 2.6124043), (1.2373852, -0.05832009, 2.6124065), (1.2373852, 0.20528407, 2.6124065), (1.0792015, -0.058320038, 2.8435962), (1.0792018, 0.20528412, 2.8435962), (1.0743506, 0.021146305, 2.1516356), (1.0743506, 0.021146305, 2.2525797), (1.0743506, -0.0828576, 2.1516356), (1.0743506, -0.0828576, 2.2525797), (-1.1177613, 0.02114702, 2.151636), (-1.1177613, 0.02114702, 2.25258), (-1.1177613, -0.082856886, 2.151636), (-1.1177613, -0.082856886, 2.25258), (0.05047236, 0.05522071, 4.3839817), (-0.05047169, 0.055220738, 4.3839817), (0.050472323, -0.04878296, 4.3839817), (-0.050471723, -0.04878293, 4.3839817), (0.05047194, 0.05522071, 2.7119815), (-0.05047211, 0.055220738, 2.7119815), (0.05047191, -0.04878296, 2.7119815), (-0.050472144, -0.04878293, 2.7119815), (-0.3924567, -0.7941394, 3.3266025), (-0.32466692, -0.7941394, 3.421056), (-0.26758638, -0.79413944, 3.236982), (-0.19979636, -0.79413944, 3.3314357), (-0.8983851, -0.7941392, 2.6216793), (-0.8305954, -0.7941392, 2.716133), (-0.77351475, -0.79413927, 2.532059), (-0.70572484, -0.79413927, 2.6265128), (-1.4043136, -0.794139, 1.9167562), (-1.3365239, -0.7941391, 2.0112097), (-1.2794433, -0.7941391, 1.8271359), (-1.2116534, -0.7941391, 1.9215894), (-1.9223827, -0.79413885, 1.2239664), (-1.8496054, -0.7941389, 1.3146331), (-1.802519, -0.7941389, 1.1277527), (-1.7297417, -0.79413897, 1.218419), (-2.479864, -0.79413867, 0.56829715), (-2.400155, -0.7941387, 0.6529347), (-2.3679707, -0.7941387, 0.46292013), (-2.288262, -0.7941387, 0.5475575), (0.39245617, -0.7941396, 3.3266025), (0.32466638, -0.7941396, 3.421056), (0.26758584, -0.79413956, 3.236982), (0.19979586, -0.79413956, 3.3314357), (0.89838463, -0.7941398, 2.6216793), (0.8305949, -0.7941398, 2.716133), (0.7735143, -0.79413974, 2.532059), (0.70572436, -0.79413974, 2.6265128), (1.4043131, -0.79414, 1.9167562), (1.3365234, -0.7941399, 2.0112097), (1.2794428, -0.7941399, 1.8271359), (1.2116529, -0.7941399, 1.9215894), (1.9223822, -0.79414016, 1.2239664), (1.849605, -0.7941401, 1.3146331), (1.8025185, -0.7941401, 1.1277527), (1.7297412, -0.79414004, 1.218419), (2.4798634, -0.79414034, 0.56829715), (2.4001546, -0.7941403, 0.6529347), (2.3679702, -0.7941403, 0.46292013), (2.2882614, -0.7941403, 0.5475575), (3.3478773, 0.108670846, 0.13180177), (3.3478773, 0.33496365, 0.13180181), (3.3478773, 0.108670875, -0.1318021), (3.3478773, 0.33496368, -0.13180204), (-3.346518, 0.10866983, 0.13180192), (-3.346518, 0.33496365, 0.13180193), (-3.346518, 0.10866986, -0.13180195), (-3.346518, 0.33496368, -0.13180189), (-0.83059496, 0.15378013, 2.7161334), (-1.9223825, 0.1537796, 1.2239664), (0.8305951, 0.15378019, 2.7161334), (2.2882617, 0.1537796, 0.54755753), (1.9223825, 0.15377966, 1.2239664), (0.2675861, 0.15378025, 3.236982), (-1.2794429, 0.15377945, 1.827136), (-2.2882617, 0.15377942, 0.54755753), (1.2794429, 0.15377945, 1.827136), (-0.7057244, 0.15378045, 2.6265128), (0.70572454, 0.15378036, 2.6265128), (0.32466665, 0.15378024, 3.4210563), (-1.3365235, 0.15377946, 2.01121), (-2.4798636, 0.15377948, 0.5682972), (1.3365235, 0.15377943, 2.01121), (2.4001548, 0.15377945, 0.65293473), (-0.89838475, 0.15378028, 2.6216795), (0.89838487, 0.15378028, 2.6216795), (-1.8025187, 0.15377961, 1.1277527), (0.39245644, 0.15378039, 3.3266025), (1.8025187, 0.15377928, 1.1277527), (-1.211653, 0.15377954, 1.9215895), (1.211653, 0.1537796, 1.9215895), (2.4798636, 0.15377954, 0.5682972), (-0.267586, 0.15378019, 3.236982), (-0.199796, 0.15378034, 3.3314357), (-1.8496051, 0.15377963, 1.3146331), (1.8496051, 0.15377927, 1.3146331), (-1.4043133, 0.15377949, 1.9167562), (1.4043133, 0.15377952, 1.9167562), (-2.3679705, 0.15377945, 0.46292016), (-0.77351445, 0.15378012, 2.5320592), (-0.32466653, 0.1537802, 3.4210563), (-0.39245632, 0.15378042, 3.3266025), (-1.7297412, 0.1537796, 1.2184191), (0.77351457, 0.1537802, 2.5320592), (2.3679705, 0.15377933, 0.46292016), (1.7297412, 0.15377966, 1.2184191), (0.1997961, 0.15378028, 3.3314357), (-2.4001548, 0.15377945, 0.65293473)]
            texCoord2f[] primvars:st = [(0.477175, -0.045837045), (0.1330649, 1.1586589), (0.47717458, 1.6583134), (0.8212844, 1.1586589), (1.6981983, -0.045836627), (0.822237, -0.042877614), (0.48077732, -0.042877614), (0.48077732, 1.6481484), (0.13931766, -0.042877436), (0.8212848, -0.045836866), (1.6981983, 0.076371014), (0.13306502, -0.045837045), (-0.74384797, -0.045837224), (-0.7438482, 0.07637039), (0.13931766, 1.1523424), (-0.7308421, -0.042877436), (-0.73084235, 0.07838899), (0.822237, 1.1523422), (1.6923972, -0.042877436), (1.6923972, 0.07838908), (0.33250102, 0.21301872), (-1.2983952, 0.75754845), (2.2983952, 0.99616915), (0.33250102, 0.3735697), (-1.2983952, 0.75754845), (2.2983952, 0.8827367), (0.49032265, 0.21301872), (2.2983952, 0.8827367), (-1.2983952, 0.867594), (0.49032265, 0.3735697), (2.2983952, 0.99616915), (-1.2983952, 0.867594), (0.33250102, 0.21301872), (2.2983952, 0.75754845), (-1.2983952, 0.99616945), (0.33250102, 0.3735697), (2.2983952, 0.75754845), (-1.2983952, 0.88273686), (0.49032265, 0.21301872), (-1.2983952, 0.88273686), (2.2983952, 0.867594), (0.49032265, 0.3735697), (-1.2983952, 0.99616945), (2.2983952, 0.867594), (0.33250102, 0.21301872), (0, 0.75754845), (1, 0.99616915), (0.33250102, 0.3735697), (0, 0.75754845), (1, 0.8827367), (0.49032265, 0.21301872), (1, 0.8827367), (0, 0.867594), (0.49032265, 0.3735697), (1, 0.99616915), (0, 0.867594), (0.33250102, 0.21301872), (1, 0.75754845), (0, 0.99616945), (0.33250102, 0.3735697), (1, 0.75754845), (0, 0.88273686), (0.49032265, 0.21301872), (0, 0.88273686), (1, 0.867594), (0.49032265, 0.3735697), (0, 0.99616945), (1, 0.867594), (0.33250102, 0.21301872), (0, 0.75754845), (1, 0.99616915), (0.33250102, 0.3735697), (0, 0.75754845), (1, 0.8827367), (0.49032265, 0.21301872), (1, 0.8827367), (0, 0.867594), (0.49032265, 0.3735697), (1, 0.99616915), (0, 0.867594), (0.33250102, 0.21301872), (1, 0.75754845), (0, 0.99616945), (0.33250102, 0.3735697), (1, 0.75754845), (0, 0.88273686), (0.49032265, 0.21301872), (0, 0.88273686), (1, 0.867594), (0.49032265, 0.3735697), (0, 0.99616945), (1, 0.867594), (0.033047542, 0.6916445), (0.05734794, 0.7489907), (0.0343969, 0.6916445), (0.033047482, 0.7489907), (0.0343969, 0.7489907), (0.05734794, 0.6916445), (-0.29382336, 0.6916445), (-0.2938226, 0.7489907), (-0.32512546, 0.6916445), (-0.29382336, 0.7489907), (-0.32512546, 0.7489907), (-0.29382253, 0.6916445), (0.10099794, 0.6916445), (0.12153615, 0.7489907), (0.10099788, 0.7489907), (0.10462327, 0.6916445), (0.12153615, 0.6916445), (0.10462327, 0.7489907), (0.16894825, 0.6916445), (0.18572433, 0.7489907), (0.16894825, 0.7489907), (0.17484966, 0.6916445), (0.17484967, 0.7489907), (0.18572432, 0.6916445), (0.23689857, 0.6916445), (0.24991249, 0.7489907), (0.24507605, 0.6916445), (0.23689859, 0.7489907), (0.24507605, 0.7489907), (0.24991249, 0.6916445), (0.30484897, 0.6916445), (0.31410074, 0.7489907), (0.30484897, 0.7489907), (0.31530243, 0.6916445), (0.31410074, 0.6916445), (0.31530243, 0.7489907), (0.37279928, 0.6916445), (0.37828892, 0.7489907), (0.3855288, 0.6916445), (0.37279928, 0.7489907), (0.3855288, 0.7489907), (0.37828887, 0.6916445), (0.4407496, 0.6916445), (0.442477, 0.7489907), (0.4407496, 0.7489907), (0.45575517, 0.6916445), (0.44247705, 0.6916445), (0.45575517, 0.7489907), (0.5087001, 0.6916445), (0.5066653, 0.7489907), (0.5087001, 0.7489907), (0.52598155, 0.6916445), (0.5066653, 0.6916445), (0.52598155, 0.7489907), (0.57665026, 0.6916445), (0.57085335, 0.7489907), (0.59620786, 0.6916445), (0.5766504, 0.7489907), (0.59620786, 0.7489907), (0.57085335, 0.6916445), (0.64460063, 0.6916445), (0.6350414, 0.7489907), (0.64460063, 0.7489907), (0.66643417, 0.6916445), (0.6350414, 0.6916445), (0.66643417, 0.7489906), (0.7061291, 0.7489906), (0.70613, 0.7489906), (0.73666096, 0.6916445), (0.7061291, 0.6916445), (0.73666096, 0.7489906), (0.70613, 0.6916445), (0.033047542, 0.6916445), (0.05734794, 0.7489907), (0.0343969, 0.6916445), (0.033047482, 0.7489907), (0.0343969, 0.7489907), (0.05734794, 0.6916445), (-0.29382336, 0.6916445), (-0.2938226, 0.7489907), (-0.32512546, 0.6916445), (-0.29382336, 0.7489907), (-0.32512546, 0.7489907), (-0.29382253, 0.6916445), (0.10099794, 0.6916445), (0.12153615, 0.7489907), (0.10099788, 0.7489907), (0.10462327, 0.6916445), (0.12153615, 0.6916445), (0.10462327, 0.7489907), (0.16894825, 0.6916445), (0.18572433, 0.7489907), (0.16894825, 0.7489907), (0.17484966, 0.6916445), (0.17484967, 0.7489907), (0.18572432, 0.6916445), (0.23689857, 0.6916445), (0.24991249, 0.7489907), (0.24507605, 0.6916445), (0.23689859, 0.7489907), (0.24507605, 0.7489907), (0.24991249, 0.6916445), (0.30484897, 0.6916445), (0.31410074, 0.7489907), (0.30484897, 0.7489907), (0.31530243, 0.6916445), (0.31410074, 0.6916445), (0.31530243, 0.7489907), (0.37279928, 0.6916445), (0.37828892, 0.7489907), (0.3855288, 0.6916445), (0.37279928, 0.7489907), (0.3855288, 0.7489907), (0.37828887, 0.6916445), (0.4407496, 0.6916445), (0.442477, 0.7489907), (0.4407496, 0.7489907), (0.45575517, 0.6916445), (0.44247705, 0.6916445), (0.45575517, 0.7489907), (0.5087001, 0.6916445), (0.5066653, 0.7489907), (0.5087001, 0.7489907), (0.52598155, 0.6916445), (0.5066653, 0.6916445), (0.52598155, 0.7489907), (0.57665026, 0.6916445), (0.57085335, 0.7489907), (0.59620786, 0.6916445), (0.5766504, 0.7489907), (0.59620786, 0.7489907), (0.57085335, 0.6916445), (0.64460063, 0.6916445), (0.6350414, 0.7489907), (0.64460063, 0.7489907), (0.66643417, 0.6916445), (0.6350414, 0.6916445), (0.66643417, 0.7489906), (0.7061291, 0.7489906), (0.70613, 0.7489906), (0.73666096, 0.6916445), (0.7061291, 0.6916445), (0.73666096, 0.7489906), (0.70613, 0.6916445), (0.90266824, 0.75754845), (0.09733175, 0.99616945), (0.96146667, 0.75754845), (0.038533293, 0.8827368), (0.9026682, 0.867594), (0.097331844, 0.8827368), (0.9614666, 0.867594), (0.038533375, 0.9961694), (0.03129351, 0.867594), (0.9687065, 0.99616915), (0.03129363, 0.75754845), (0.96870637, 0.8827367), (0.09121162, 0.867594), (0.9087884, 0.8827367), (0.09121152, 0.7575485), (0.9087885, 0.9961692), (0.33250102, 0.21301872), (0, 0.6918762), (1.300223, 0.7505514), (0.33250102, 0.3735697), (0, 0.6918762), (1.300223, 0.6918762), (0.49032265, 0.21301872), (1.300223, 0.6918762), (0, 0.7505514), (0.49032265, 0.3735697), (1.300223, 0.7505514), (0, 0.7505514), (0.33250102, 0.21301872), (1.300223, 0.6918762), (0, 0.7505514), (0.33250102, 0.3735697), (1.300223, 0.6918762), (0, 0.6918762), (0.49032265, 0.21301872), (0, 0.6918762), (1.300223, 0.7505514), (0.49032265, 0.3735697), (0, 0.7505514), (1.300223, 0.7505514), (0.33250102, 0.21301872), (0, 0.6918762), (1.300223, 0.7505514), (0.33250102, 0.3735697), (0, 0.6918762), (1.300223, 0.6918762), (0.49032265, 0.21301872), (1.300223, 0.6918762), (0, 0.7505514), (0.49032265, 0.3735697), (1.300223, 0.7505514), (0, 0.7505514), (0.33250102, 0.21301872), (1.300223, 0.6918762), (0, 0.7505514), (0.33250102, 0.3735697), (1.300223, 0.6918762), (0, 0.6918762), (0.49032265, 0.21301872), (0, 0.6918762), (1.300223, 0.7505514), (0.49032265, 0.3735697), (0, 0.7505514), (1.300223, 0.7505514), (0.33250102, 0.21301872), (1, 0.99616915), (0, 0.75754845), (0.33250102, 0.3735697), (1, 0.8827367), (0, 0.75754845), (0.49032265, 0.21301872), (0, 0.867594), (1, 0.8827367), (0.49032265, 0.3735697), (1, 0.99616915), (0, 0.867594), (0.33250102, 0.21301872), (1, 0.99616915), (0, 0.75754845), (0.33250102, 0.3735697), (1, 0.8827367), (0, 0.75754845), (0.49032265, 0.21301872), (0, 0.867594), (1, 0.8827367), (0.49032265, 0.3735697), (1, 0.99616915), (0, 0.867594), (0.33250102, 0.21301872), (1, 0.99616915), (0, 0.75754845), (0.33250102, 0.3735697), (1, 0.8827367), (0, 0.75754845), (0.49032265, 0.21301872), (0, 0.867594), (1, 0.8827367), (0.49032265, 0.3735697), (1, 0.99616915), (0, 0.867594), (0.33250102, 0.21301872), (1, 0.99616915), (0, 0.75754845), (0.33250102, 0.3735697), (1, 0.8827367), (0, 0.75754845), (0.49032265, 0.21301872), (0, 0.867594), (1, 0.8827367), (0.49032265, 0.3735697), (1, 0.99616915), (0, 0.867594), (0.33250102, 0.21301872), (1, 0.99616915), (0, 0.75754845), (0.33250102, 0.3735697), (1, 0.8827367), (0, 0.75754845), (0.49032265, 0.21301872), (0, 0.867594), (1, 0.8827367), (0.49032265, 0.3735697), (1, 0.99616915), (0, 0.867594), (0.33250102, 0.21301872), (1, 0.99616915), (0, 0.75754845), (0.33250102, 0.3735697), (1, 0.8827367), (0, 0.75754845), (0.49032265, 0.21301872), (0, 0.867594), (1, 0.8827367), (0.49032265, 0.3735697), (1, 0.99616915), (0, 0.867594), (0.33250102, 0.21301872), (1, 0.99616915), (0, 0.75754845), (0.33250102, 0.3735697), (1, 0.8827367), (0, 0.75754845), (0.49032265, 0.21301872), (0, 0.867594), (1, 0.8827367), (0.49032265, 0.3735697), (1, 0.99616915), (0, 0.867594), (0.33250102, 0.21301872), (1, 0.99616915), (0, 0.75754845), (0.33250102, 0.3735697), (1, 0.8827367), (0, 0.75754845), (0.49032265, 0.21301872), (0, 0.867594), (1, 0.8827367), (0.49032265, 0.3735697), (1, 0.99616915), (0, 0.867594), (0.33250102, 0.21301872), (1, 0.99616915), (0, 0.75754845), (0.33250102, 0.3735697), (1, 0.8827367), (0, 0.75754845), (0.49032265, 0.21301872), (0, 0.867594), (1, 0.8827367), (0.49032265, 0.3735697), (1, 0.99616915), (0, 0.867594), (0.33250102, 0.21301872), (1, 0.99616915), (0, 0.75754845), (0.33250102, 0.3735697), (1, 0.8827367), (0, 0.75754845), (0.49032265, 0.21301872), (0, 0.867594), (1, 0.8827367), (0.49032265, 0.3735697), (1, 0.99616915), (0, 0.867594), (0.33250102, 0.21301872), (-1.2983952, 0.75754845), (2.2983952, 0.99616915), (0.33250102, 0.3735697), (-1.2983952, 0.75754845), (2.2983952, 0.8827367), (0.49032265, 0.21301872), (2.2983952, 0.8827367), (-1.2983952, 0.867594), (0.49032265, 0.3735697), (2.2983952, 0.99616915), (-1.2983952, 0.867594), (0.33250102, 0.21301872), (2.2983952, 0.75754845), (-1.2983952, 0.99616945), (0.33250102, 0.3735697), (2.2983952, 0.75754845), (-1.2983952, 0.88273686), (0.49032265, 0.21301872), (-1.2983952, 0.88273686), (2.2983952, 0.867594), (0.49032265, 0.3735697), (-1.2983952, 0.99616945), (2.2983952, 0.867594), (0.6190972, 0.8827367), (0.38090283, 0.75754845), (0.6190976, 0.9961692), (0.38090244, 0.75754845), (0.61909693, 0.8827367), (0.38090307, 0.75754845), (0.619097, 0.9961692), (0.380903, 0.867594), (0.619097, 0.99616915), (0.38090298, 0.75754845), (0.380903, 0.867594), (0.619097, 0.8827367), (0.38090247, 0.867594), (0.61909753, 0.8827367), (0.6190977, 0.9961692), (0.38090232, 0.867594), (0.38090283, 0.867594), (0.6190972, 0.8827367), (0.61909705, 0.9961692), (0.38090295, 0.867594), (0.6190969, 0.99616915), (0.3809031, 0.867594), (0.619097, 0.8827367), (0.380903, 0.75754845), (0.61909753, 0.8827367), (0.38090247, 0.75754845), (0.6190977, 0.9961692), (0.38090232, 0.75754845), (0.6190972, 0.8827367), (0.38090283, 0.75754845), (0.61909705, 0.8827367), (0.38090295, 0.75754845), (0.6190971, 0.99616915), (0.38090286, 0.75754845), (0.6190969, 0.99616915), (0.3809031, 0.75754845), (0.38090247, 0.867594), (0.61909753, 0.8827367), (0.61909693, 0.9961692), (0.38090307, 0.75754845), (0.38090283, 0.867594), (0.6190972, 0.8827367), (0.6190975, 0.9961692), (0.38090253, 0.867594), (0.6190971, 0.99616915), (0.38090286, 0.867594), (0.619097, 0.9961692), (0.380903, 0.75754845), (0.3809029, 0.867594), (0.6190971, 0.8827367), (0.619097, 0.99616915), (0.38090298, 0.86759394), (0.61909753, 0.8827367), (0.38090247, 0.75754845), (0.6190972, 0.8827367), (0.38090283, 0.75754845), (0.61909753, 0.9961692), (0.38090247, 0.75754845), (0.6190971, 0.99616915), (0.38090286, 0.75754845), (0.38090235, 0.867594), (0.61909765, 0.8827367), (0.38090283, 0.867594), (0.6190972, 0.8827367), (0.6190971, 0.8827367), (0.3809029, 0.75754845), (0.619097, 0.99616915), (0.38090298, 0.75754845), (0.61909753, 0.9961692), (0.38090247, 0.867594), (0.38090307, 0.867594), (0.61909693, 0.8827367), (0.3809029, 0.867594), (0.6190971, 0.8827367), (0.61909705, 0.9961692), (0.38090295, 0.867594), (0.619097, 0.9961692), (0.380903, 0.867594), (0.61909765, 0.8827367), (0.38090235, 0.75754845)] (
                interpolation = "faceVarying"
            )
            int[] primvars:st:indices = [1, 11, 0, 2, 1, 13, 12, 11, 3, 2, 0, 9, 3, 9, 4, 10, 17, 7, 6, 5, 17, 5, 18, 19, 14, 8, 6, 7, 14, 16, 15, 8, 20, 26, 29, 23, 38, 32, 35, 41, 27, 39, 42, 30, 43, 36, 24, 31, 28, 21, 33, 40, 25, 37, 34, 22, 44, 50, 53, 47, 62, 56, 59, 65, 51, 63, 66, 54, 67, 60, 48, 55, 52, 45, 57, 64, 49, 61, 58, 46, 68, 71, 77, 74, 86, 89, 83, 80, 75, 78, 90, 87, 91, 79, 72, 84, 76, 88, 81, 69, 73, 70, 82, 85, 96, 94, 107, 109, 159, 154, 152, 163, 94, 96, 102, 100, 103, 97, 93, 99, 95, 101, 98, 92, 105, 108, 115, 111, 93, 97, 108, 105, 95, 92, 104, 106, 112, 110, 116, 119, 106, 104, 110, 112, 109, 107, 113, 114, 120, 118, 125, 127, 114, 113, 118, 120, 111, 115, 121, 117, 123, 126, 133, 129, 117, 121, 126, 123, 119, 116, 122, 124, 132, 130, 137, 139, 124, 122, 128, 131, 127, 125, 130, 132, 129, 133, 138, 135, 131, 128, 134, 136, 141, 144, 151, 147, 135, 138, 144, 141, 136, 134, 140, 142, 139, 137, 143, 145, 150, 148, 155, 157, 142, 140, 146, 149, 145, 143, 148, 150, 153, 156, 161, 158, 147, 151, 156, 153, 149, 146, 152, 154, 157, 155, 160, 162, 168, 181, 179, 166, 231, 235, 224, 226, 166, 172, 174, 168, 175, 171, 165, 169, 167, 164, 170, 173, 177, 183, 187, 180, 165, 177, 180, 169, 167, 178, 176, 164, 184, 191, 188, 182, 178, 184, 182, 176, 181, 186, 185, 179, 192, 199, 197, 190, 186, 192, 190, 185, 183, 189, 193, 187, 195, 201, 205, 198, 189, 195, 198, 193, 191, 196, 194, 188, 204, 211, 209, 202, 196, 203, 200, 194, 199, 204, 202, 197, 201, 207, 210, 205, 203, 208, 206, 200, 213, 219, 223, 216, 207, 213, 216, 210, 208, 214, 212, 206, 211, 217, 215, 209, 222, 229, 227, 220, 214, 221, 218, 212, 217, 222, 220, 215, 225, 230, 233, 228, 219, 225, 228, 223, 221, 226, 224, 218, 229, 234, 232, 227, 242, 238, 246, 244, 248, 250, 236, 240, 251, 247, 239, 237, 245, 249, 241, 243, 252, 255, 261, 258, 270, 273, 267, 264, 259, 262, 274, 271, 275, 263, 256, 268, 260, 272, 265, 253, 257, 254, 266, 269, 276, 279, 285, 282, 294, 297, 291, 288, 283, 286, 298, 295, 299, 287, 280, 292, 284, 296, 289, 277, 281, 278, 290, 293, 300, 306, 309, 303, 304, 508, 510, 301, 307, 302, 511, 492, 308, 493, 494, 310, 312, 318, 321, 315, 316, 444, 476, 313, 319, 314, 477, 506, 320, 507, 462, 322, 324, 330, 333, 327, 328, 468, 500, 325, 331, 326, 501, 456, 332, 457, 486, 334, 336, 342, 345, 339, 340, 496, 446, 337, 343, 338, 447, 480, 344, 481, 512, 346, 348, 354, 357, 351, 352, 522, 470, 349, 355, 350, 471, 504, 356, 505, 458, 358, 360, 363, 369, 366, 364, 361, 482, 466, 367, 454, 483, 362, 368, 370, 520, 455, 372, 375, 381, 378, 376, 373, 478, 448, 379, 514, 479, 374, 380, 382, 464, 515, 384, 387, 393, 390, 388, 385, 502, 472, 391, 460, 503, 386, 392, 394, 488, 461, 396, 399, 405, 402, 400, 397, 452, 498, 403, 484, 453, 398, 404, 406, 518, 485, 408, 411, 417, 414, 412, 409, 490, 474, 415, 516, 491, 410, 416, 418, 450, 517, 420, 426, 429, 423, 438, 432, 435, 441, 427, 439, 442, 430, 443, 436, 424, 431, 428, 421, 433, 440, 425, 437, 434, 422, 467, 521, 371, 365, 495, 509, 305, 311, 449, 465, 383, 377, 463, 445, 317, 323, 473, 489, 395, 389, 487, 469, 329, 335, 499, 519, 407, 401, 513, 497, 341, 347, 475, 451, 419, 413, 459, 523, 353, 359]
            uniform token subdivisionScheme = "none"
            uniform token subsetFamily:materialBind:familyType = "nonOverlapping"
            custom string userProperties:blender:data_name = "Cube.101"

            def GeomSubset "MI_WoodTrim" (
                prepend apiSchemas = ["MaterialBindingAPI"]
            )
            {
                uniform token elementType = "face"
                uniform token familyName = "materialBind"
                int[] indices = [8, 9, 10, 11, 12, 13, 14, 15, 16, 17, 18, 19, 20, 21, 22, 23, 24, 25, 26, 27, 28, 29, 30, 31, 32, 33, 34, 35, 36, 37, 38, 39, 40, 41, 42, 43, 44, 45, 46, 47, 48, 49, 50, 51, 52, 53, 54, 55, 56, 57, 58, 59, 60, 61, 62, 63, 64, 65, 66, 67, 68, 69, 70, 71, 72, 73, 74, 75, 76, 77, 78, 79, 80, 81, 82, 83, 84, 85, 86, 87, 88, 89, 90, 91, 92, 93, 94, 95, 96, 97, 98, 99, 100, 101, 102, 103, 104, 105, 106, 107, 108, 109, 110, 111, 112, 113, 114, 115, 116, 117, 118, 119, 120, 121, 122, 123, 124, 125, 126, 127, 128, 129, 130, 131, 132, 133, 134, 135, 136, 137, 138, 139, 140, 141, 142, 143, 144, 145, 146, 147, 148, 149, 150, 151, 152, 153, 154, 155, 156, 157, 158, 159, 160, 161, 162, 163]
                rel material:binding = </root/_materials/MI_WoodTrim>
            }

            def GeomSubset "MI_Plaster" (
                prepend apiSchemas = ["MaterialBindingAPI"]
            )
            {
                uniform token elementType = "face"
                uniform token familyName = "materialBind"
                int[] indices = [0, 1, 2, 3, 4, 5, 6, 7]
                rel material:binding = </root/_materials/MI_Plaster>
            }
        }
    }

    def Scope "_materials"
    {
        def Material "MI_WoodTrim"
        {
            token outputs:surface.connect = </root/_materials/MI_WoodTrim/Principled_BSDF.outputs:surface>
            custom string userProperties:blender:data_name = "MI_WoodTrim"

            def Shader "Principled_BSDF"
            {
                uniform token info:id = "UsdPreviewSurface"
                float inputs:clearcoat = 0
                float inputs:clearcoatRoughness = 0.03
                color3f inputs:diffuseColor.connect = </root/_materials/MI_WoodTrim/Image_Texture.outputs:rgb>
                float inputs:ior = 1.5
                float inputs:metallic = 0
                normal3f inputs:normal.connect = </root/_materials/MI_WoodTrim/Image_Texture_002.outputs:rgb>
                float inputs:opacity = 1
                float inputs:roughness.connect = </root/_materials/MI_WoodTrim/Image_Texture_001.outputs:r>
                float inputs:specular = 0.5
                token outputs:surface
            }

            def Shader "Image_Texture"
            {
                uniform token info:id = "UsdUVTexture"
                token inputs:sourceColorSpace = "sRGB"
                float2 inputs:st.connect = </root/_materials/MI_WoodTrim/uvmap.outputs:result>
                token inputs:wrapS = "repeat"
                token inputs:wrapT = "repeat"
                float3 outputs:rgb
            }

            def Shader "uvmap"
            {
                uniform token info:id = "UsdPrimvarReader_float2"
                string inputs:varname = "st"
                float2 outputs:result
            }

            def Shader "Image_Texture_001"
            {
                uniform token info:id = "UsdUVTexture"
                token inputs:sourceColorSpace = "raw"
                float2 inputs:st.connect = </root/_materials/MI_WoodTrim/uvmap.outputs:result>
                token inputs:wrapS = "repeat"
                token inputs:wrapT = "repeat"
                float outputs:r
            }

            def Shader "Image_Texture_002"
            {
                uniform token info:id = "UsdUVTexture"
                float4 inputs:bias = (-1, -1, -1, -1)
                float4 inputs:scale = (2, 2, 2, 2)
                token inputs:sourceColorSpace = "raw"
                float2 inputs:st.connect = </root/_materials/MI_WoodTrim/uvmap.outputs:result>
                token inputs:wrapS = "repeat"
                token inputs:wrapT = "repeat"
                float3 outputs:rgb
            }
        }

        def Material "MI_Plaster"
        {
            token outputs:surface.connect = </root/_materials/MI_Plaster/Principled_BSDF.outputs:surface>
            custom string userProperties:blender:data_name = "MI_Plaster"

            def Shader "Principled_BSDF"
            {
                uniform token info:id = "UsdPreviewSurface"
                float inputs:clearcoat = 0
                float inputs:clearcoatRoughness = 0.03
                color3f inputs:diffuseColor.connect = </root/_materials/MI_Plaster/Image_Texture.outputs:rgb>
                float inputs:ior = 1.5
                float inputs:metallic = 0
                normal3f inputs:normal.connect = </root/_materials/MI_Plaster/Image_Texture_001.outputs:rgb>
                float inputs:opacity = 1
                float inputs:roughness = 0.5
                float inputs:specular = 0.5
                token outputs:surface
            }

            def Shader "Image_Texture"
            {
                uniform token info:id = "UsdUVTexture"
                token inputs:sourceColorSpace = "sRGB"
                float2 inputs:st.connect = </root/_materials/MI_Plaster/uvmap.outputs:result>
                token inputs:wrapS = "repeat"
                token inputs:wrapT = "repeat"
                float3 outputs:rgb
            }

            def Shader "uvmap"
            {
                uniform token info:id = "UsdPrimvarReader_float2"
                string inputs:varname = "st"
                float2 outputs:result
            }

            def Shader "Image_Texture_001"
            {
                uniform token info:id = "UsdUVTexture"
                float4 inputs:bias = (-1, -1, -1, -1)
                float4 inputs:scale = (2, 2, 2, 2)
                token inputs:sourceColorSpace = "raw"
                float2 inputs:st.connect = </root/_materials/MI_Plaster/uvmap.outputs:result>
                token inputs:wrapS = "repeat"
                token inputs:wrapT = "repeat"
                float3 outputs:rgb
            }
        }
    }
}

