#usda 1.0
(
    defaultPrim = "root"
    doc = "Blender v5.1.2"
    metersPerUnit = 1
    upAxis = "Y"
)

def Xform "root" (
    customData = {
        dictionary Blender = {
            bool generated = 1
        }
    }
)
{
    float3 xformOp:rotateXYZ = (-90, -0, 0)
    uniform token[] xformOpOrder = ["xformOp:rotateXYZ"]

    def Xform "Prop_Brick3"
    {
        custom string userProperties:blender:object_name = "Prop_Brick3"

        def Mesh "Cube_017_Retopology_002" (
            active = true
            prepend apiSchemas = ["MaterialBindingAPI"]
        )
        {
            uniform bool doubleSided = 1
            float3[] extent = [(-0.18320875, -0.10690491, -0.11486761), (0.19818254, 0.10872508, 0.13483846)]
            int[] faceVertexCounts = [4, 5, 3, 3, 3, 3, 4, 4, 4, 3, 4, 4, 4, 3, 4, 3, 4, 4, 4, 4, 4, 4, 4, 4, 4, 4, 4, 4, 4, 3, 3, 4, 4, 3, 3, 4, 3, 5, 4, 3, 3, 3, 4, 4, 4, 4, 4, 5, 3, 3, 3, 4, 4, 4, 4, 3, 3, 4, 3, 3, 4, 4, 4, 4, 4, 4, 3, 4, 3, 3, 3, 4, 3, 4, 4]
            int[] faceVertexIndices = [35, 1, 0, 3, 0, 1, 29, 28, 2, 0, 2, 4, 5, 3, 0, 6, 0, 4, 0, 6, 5, 5, 6, 4, 9, 7, 63, 3, 5, 7, 5, 8, 64, 9, 8, 5, 8, 9, 10, 11, 4, 13, 10, 9, 10, 12, 54, 11, 10, 14, 12, 13, 16, 15, 10, 14, 10, 15, 15, 17, 19, 14, 16, 20, 17, 15, 21, 18, 17, 20, 17, 18, 50, 19, 16, 23, 21, 20, 24, 22, 21, 23, 21, 22, 57, 18, 25, 26, 24, 23, 25, 23, 16, 13, 28, 26, 25, 2, 4, 2, 25, 13, 24, 26, 27, 60, 30, 27, 26, 28, 28, 29, 30, 30, 32, 31, 30, 31, 59, 27, 35, 32, 30, 33, 29, 33, 30, 35, 33, 34, 34, 33, 29, 1, 1, 35, 34, 37, 36, 35, 3, 63, 39, 32, 35, 36, 38, 36, 37, 36, 38, 39, 31, 32, 39, 39, 40, 59, 31, 40, 39, 41, 44, 39, 38, 43, 41, 42, 46, 44, 41, 42, 41, 43, 62, 61, 40, 44, 45, 49, 44, 46, 45, 48, 46, 47, 47, 46, 42, 46, 48, 49, 45, 55, 49, 48, 50, 19, 50, 48, 51, 48, 47, 53, 52, 52, 51, 48, 53, 51, 52, 42, 8, 11, 53, 47, 42, 53, 54, 53, 11, 12, 51, 53, 54, 14, 19, 51, 12, 57, 55, 50, 18, 56, 61, 49, 55, 58, 56, 55, 57, 60, 58, 57, 22, 56, 58, 59, 27, 59, 58, 60, 60, 22, 24, 59, 40, 61, 59, 61, 56, 62, 43, 37, 63, 37, 43, 38, 42, 62, 64, 8, 62, 63, 7, 64]
            rel material:binding = </root/_materials/MI_RockTrim>
            normal3f[] normals = [(-0.008086537, -0.65599275, 0.75472385), (0.6881955, -0.011402567, 0.72543573), (0.716627, 0.070803724, 0.6938535), (0.044041984, 0.043762952, 0.9980707), (0.716627, 0.070803724, 0.6938535), (0.6881955, -0.011402567, 0.72543573), (0.8738977, -0.45057088, 0.18245211), (0.90114814, -0.43333998, 0.012188715), (0.99969685, -0.0047772164, 0.02415202), (0.716627, 0.070803724, 0.6938535), (0.99969685, -0.0047772164, 0.02415202), (0.72692025, 0.62156445, 0.29196692), (0.025237514, 0.6843101, 0.72875434), (0.044041984, 0.043762952, 0.9980707), (0.716627, 0.070803724, 0.6938535), (0.22853784, 0.6879932, 0.68879294), (0.716627, 0.070803724, 0.6938535), (0.72692025, 0.62156445, 0.29196692), (0.716627, 0.070803724, 0.6938535), (0.22853784, 0.6879932, 0.68879294), (0.025237514, 0.6843101, 0.72875434), (0.025237514, 0.6843101, 0.72875434), (0.22853784, 0.6879932, 0.68879294), (0.72692025, 0.62156445, 0.29196692), (-0.017717566, 0.98334295, 0.1808944), (-0.29175657, 0.6177438, 0.730254), (-0.39246324, 0.02883867, 0.91931546), (0.044041984, 0.043762952, 0.9980707), (0.025237514, 0.6843101, 0.72875434), (-0.29175657, 0.6177438, 0.730254), (0.025237514, 0.6843101, 0.72875434), (-0.718773, 0.68624556, 0.11150096), (-0.6931152, 0.6395627, 0.33249193), (-0.017717566, 0.98334295, 0.1808944), (-0.718773, 0.68624556, 0.11150096), (0.025237514, 0.6843101, 0.72875434), (-0.718773, 0.68624556, 0.11150096), (-0.017717566, 0.98334295, 0.1808944), (-0.0058320295, 0.999751, 0.021542355), (-0.69115734, 0.72263205, 0.010217384), (0.72692025, 0.62156445, 0.29196692), (0.64068186, 0.7643545, 0.07272581), (-0.0058320295, 0.999751, 0.021542355), (-0.017717566, 0.98334295, 0.1808944), (-0.0058320295, 0.999751, 0.021542355), (-0.06508071, 0.96952474, -0.23619145), (-0.5313254, 0.8348623, -0.14386912), (-0.69115734, 0.72263205, 0.010217384), (-0.0058320295, 0.999751, 0.021542355), (0.006109381, 0.96253645, -0.2710835), (-0.06508071, 0.96952474, -0.23619145), (0.64068186, 0.7643545, 0.07272581), (0.6476004, 0.70120686, -0.29819894), (0.11750105, 0.9118852, -0.393267), (-0.0058320295, 0.999751, 0.021542355), (0.006109381, 0.96253645, -0.2710835), (-0.0058320295, 0.999751, 0.021542355), (0.11750105, 0.9118852, -0.393267), (0.11750105, 0.9118852, -0.393267), (0.044732634, 0.55905753, -0.8279213), (0.0033545173, 0.5762516, -0.8172655), (0.006109381, 0.96253645, -0.2710835), (0.6476004, 0.70120686, -0.29819894), (0.57145226, 0.30687827, -0.76109666), (0.044732634, 0.55905753, -0.8279213), (0.11750105, 0.9118852, -0.393267), (0.54517645, 0.024295216, -0.83796924), (0.033139545, 0.02567141, -0.999121), (0.044732634, 0.55905753, -0.8279213), (0.57145226, 0.30687827, -0.76109666), (0.044732634, 0.55905753, -0.8279213), (0.033139545, 0.02567141, -0.999121), (0.0004524688, 0.020436434, -0.9997911), (0.0033545173, 0.5762516, -0.8172655), (0.6476004, 0.70120686, -0.29819894), (0.9709953, 0.014583459, -0.23865303), (0.54517645, 0.024295216, -0.83796924), (0.57145226, 0.30687827, -0.76109666), (0.85342413, -0.47766837, -0.20856686), (0.44907233, -0.4943809, -0.74425906), (0.54517645, 0.024295216, -0.83796924), (0.9709953, 0.014583459, -0.23865303), (0.54517645, 0.024295216, -0.83796924), (0.44907233, -0.4943809, -0.74425906), (0.027054198, -0.50165176, -0.86464655), (0.033139545, 0.02567141, -0.999121), (0.99925786, 0.020735258, -0.032460336), (0.8807621, -0.47267726, -0.028885484), (0.85342413, -0.47766837, -0.20856686), (0.9709953, 0.014583459, -0.23865303), (0.99925786, 0.020735258, -0.032460336), (0.9709953, 0.014583459, -0.23865303), (0.6476004, 0.70120686, -0.29819894), (0.64068186, 0.7643545, 0.07272581), (0.90114814, -0.43333998, 0.012188715), (0.8807621, -0.47267726, -0.028885484), (0.99925786, 0.020735258, -0.032460336), (0.99969685, -0.0047772164, 0.02415202), (0.72692025, 0.62156445, 0.29196692), (0.99969685, -0.0047772164, 0.02415202), (0.99925786, 0.020735258, -0.032460336), (0.64068186, 0.7643545, 0.07272581), (0.85342413, -0.47766837, -0.20856686), (0.8807621, -0.47267726, -0.028885484), (0.3150722, -0.94903576, -0.0077875527), (0.28994712, -0.94468814, -0.15328044), (0.30064493, -0.94433606, 0.13357466), (0.3150722, -0.94903576, -0.0077875527), (0.8807621, -0.47267726, -0.028885484), (0.90114814, -0.43333998, 0.012188715), (0.90114814, -0.43333998, 0.012188715), (0.8738977, -0.45057088, 0.18245211), (0.30064493, -0.94433606, 0.13357466), (0.30064493, -0.94433606, 0.13357466), (-0.05091563, -0.88902134, 0.45502597), (-0.039576337, -0.93076897, 0.36345947), (0.30064493, -0.94433606, 0.13357466), (-0.039576337, -0.93076897, 0.36345947), (-0.0199985, -0.99953926, 0.022835365), (0.3150722, -0.94903576, -0.0077875527), (-0.008086537, -0.65599275, 0.75472385), (-0.05091563, -0.88902134, 0.45502597), (0.30064493, -0.94433606, 0.13357466), (0.47215316, -0.6457512, 0.600064), (0.8738977, -0.45057088, 0.18245211), (0.47215316, -0.6457512, 0.600064), (0.30064493, -0.94433606, 0.13357466), (-0.008086537, -0.65599275, 0.75472385), (0.47215316, -0.6457512, 0.600064), (0.41766274, -0.124894775, 0.8999773), (0.41766274, -0.124894775, 0.8999773), (0.47215316, -0.6457512, 0.600064), (0.8738977, -0.45057088, 0.18245211), (0.6881955, -0.011402567, 0.72543573), (0.6881955, -0.011402567, 0.72543573), (-0.008086537, -0.65599275, 0.75472385), (0.41766274, -0.124894775, 0.8999773), (-0.41780847, -0.32307896, 0.8491502), (-0.12793228, -0.6683631, 0.73275113), (-0.008086537, -0.65599275, 0.75472385), (0.044041984, 0.043762952, 0.9980707), (-0.39246324, 0.02883867, 0.91931546), (-0.4425565, -0.8897011, 0.11214156), (-0.05091563, -0.88902134, 0.45502597), (-0.008086537, -0.65599275, 0.75472385), (-0.12793228, -0.6683631, 0.73275113), (-0.4291165, -0.8560765, 0.28808337), (-0.12793228, -0.6683631, 0.73275113), (-0.41780847, -0.32307896, 0.8491502), (-0.12793228, -0.6683631, 0.73275113), (-0.4291165, -0.8560765, 0.28808337), (-0.4425565, -0.8897011, 0.11214156), (-0.039576337, -0.93076897, 0.36345947), (-0.05091563, -0.88902134, 0.45502597), (-0.4425565, -0.8897011, 0.11214156), (-0.4425565, -0.8897011, 0.11214156), (-0.465554, -0.8830459, -0.059072085), (-0.0199985, -0.99953926, 0.022835365), (-0.039576337, -0.93076897, 0.36345947), (-0.465554, -0.8830459, -0.059072085), (-0.4425565, -0.8897011, 0.11214156), (-0.944168, -0.32939503, 0.0067681936), (-0.82409245, -0.5472776, -0.14614716), (-0.4425565, -0.8897011, 0.11214156), (-0.4291165, -0.8560765, 0.28808337), (-0.8364715, -0.38362512, 0.3913401), (-0.944168, -0.32939503, 0.0067681936), (-0.9994345, 0.00059806445, -0.033621795), (-0.73628855, 0.07031906, -0.67300403), (-0.82409245, -0.5472776, -0.14614716), (-0.944168, -0.32939503, 0.0067681936), (-0.9994345, 0.00059806445, -0.033621795), (-0.944168, -0.32939503, 0.0067681936), (-0.8364715, -0.38362512, 0.3913401), (-0.90808964, 0.018666184, 0.41835946), (-0.07985883, -0.97544557, -0.20525241), (-0.465554, -0.8830459, -0.059072085), (-0.82409245, -0.5472776, -0.14614716), (-0.5936871, -0.48593774, -0.64140475), (-0.1314245, -0.59550804, -0.79252625), (-0.82409245, -0.5472776, -0.14614716), (-0.73628855, 0.07031906, -0.67300403), (-0.5936871, -0.48593774, -0.64140475), (-0.08373081, 0.005422088, -0.9964736), (-0.73628855, 0.07031906, -0.67300403), (-0.8250267, 0.06151634, -0.5617354), (-0.8250267, 0.06151634, -0.5617354), (-0.73628855, 0.07031906, -0.67300403), (-0.9994345, 0.00059806445, -0.033621795), (-0.73628855, 0.07031906, -0.67300403), (-0.08373081, 0.005422088, -0.9964736), (-0.1314245, -0.59550804, -0.79252625), (-0.5936871, -0.48593774, -0.64140475), (-0.005214039, -0.5382059, -0.8427973), (-0.1314245, -0.59550804, -0.79252625), (-0.08373081, 0.005422088, -0.9964736), (0.0004524688, 0.020436434, -0.9997911), (0.0033545173, 0.5762516, -0.8172655), (0.0004524688, 0.020436434, -0.9997911), (-0.08373081, 0.005422088, -0.9964736), (-0.015561689, 0.6399512, -0.7682579), (-0.08373081, 0.005422088, -0.9964736), (-0.8250267, 0.06151634, -0.5617354), (-0.6381497, 0.4255764, -0.6415993), (-0.060822643, 0.14705566, -0.9872564), (-0.060822643, 0.14705566, -0.9872564), (-0.015561689, 0.6399512, -0.7682579), (-0.08373081, 0.005422088, -0.9964736), (-0.6381497, 0.4255764, -0.6415993), (-0.015561689, 0.6399512, -0.7682579), (-0.060822643, 0.14705566, -0.9872564), (-0.9994345, 0.00059806445, -0.033621795), (-0.718773, 0.68624556, 0.11150096), (-0.69115734, 0.72263205, 0.010217384), (-0.6381497, 0.4255764, -0.6415993), (-0.8250267, 0.06151634, -0.5617354), (-0.9994345, 0.00059806445, -0.033621795), (-0.6381497, 0.4255764, -0.6415993), (-0.5313254, 0.8348623, -0.14386912), (-0.6381497, 0.4255764, -0.6415993), (-0.69115734, 0.72263205, 0.010217384), (-0.06508071, 0.96952474, -0.23619145), (-0.015561689, 0.6399512, -0.7682579), (-0.6381497, 0.4255764, -0.6415993), (-0.5313254, 0.8348623, -0.14386912), (0.006109381, 0.96253645, -0.2710835), (0.0033545173, 0.5762516, -0.8172655), (-0.015561689, 0.6399512, -0.7682579), (-0.06508071, 0.96952474, -0.23619145), (0.027054198, -0.50165176, -0.86464655), (-0.005214039, -0.5382059, -0.8427973), (0.0004524688, 0.020436434, -0.9997911), (0.033139545, 0.02567141, -0.999121), (-0.02157449, -0.9716174, -0.23557204), (-0.07985883, -0.97544557, -0.20525241), (-0.1314245, -0.59550804, -0.79252625), (-0.005214039, -0.5382059, -0.8427973), (0.0477765, -0.96361005, -0.26300767), (-0.02157449, -0.9716174, -0.23557204), (-0.005214039, -0.5382059, -0.8427973), (0.027054198, -0.50165176, -0.86464655), (0.28994712, -0.94468814, -0.15328044), (0.0477765, -0.96361005, -0.26300767), (0.027054198, -0.50165176, -0.86464655), (0.44907233, -0.4943809, -0.74425906), (-0.02157449, -0.9716174, -0.23557204), (0.0477765, -0.96361005, -0.26300767), (-0.0199985, -0.99953926, 0.022835365), (0.3150722, -0.94903576, -0.0077875527), (-0.0199985, -0.99953926, 0.022835365), (0.0477765, -0.96361005, -0.26300767), (0.28994712, -0.94468814, -0.15328044), (0.28994712, -0.94468814, -0.15328044), (0.44907233, -0.4943809, -0.74425906), (0.85342413, -0.47766837, -0.20856686), (-0.0199985, -0.99953926, 0.022835365), (-0.465554, -0.8830459, -0.059072085), (-0.07985883, -0.97544557, -0.20525241), (-0.0199985, -0.99953926, 0.022835365), (-0.07985883, -0.97544557, -0.20525241), (-0.02157449, -0.9716174, -0.23557204), (-0.90808964, 0.018666184, 0.41835946), (-0.8364715, -0.38362512, 0.3913401), (-0.41780847, -0.32307896, 0.8491502), (-0.39246324, 0.02883867, 0.91931546), (-0.41780847, -0.32307896, 0.8491502), (-0.8364715, -0.38362512, 0.3913401), (-0.4291165, -0.8560765, 0.28808337), (-0.9994345, 0.00059806445, -0.033621795), (-0.90808964, 0.018666184, 0.41835946), (-0.6931152, 0.6395627, 0.33249193), (-0.718773, 0.68624556, 0.11150096), (-0.90808964, 0.018666184, 0.41835946), (-0.39246324, 0.02883867, 0.91931546), (-0.29175657, 0.6177438, 0.730254), (-0.6931152, 0.6395627, 0.33249193)] (
                interpolation = "faceVarying"
            )
            point3f[] points = [(0.19384535, 0.040989902, 0.116446316), (0.19351627, -0.025961908, 0.12628898), (0.19572832, 0.029228529, 0.08161904), (0.07248916, 0.02963826, 0.13483846), (0.1971127, 0.095034264, 0.08676973), (0.06663813, 0.084991544, 0.12554336), (0.17269708, 0.09127506, 0.11017058), (-0.16368844, 0.08269194, 0.123449296), (-0.18246569, 0.09534146, 0.053486362), (-0.017179206, 0.10163285, 0.030271014), (-0.024457142, 0.10872508, -0.017856658), (-0.18172447, 0.101909764, 0.02001718), (-0.12140347, 0.10098433, -0.0845205), (0.19401707, 0.10052683, 0.06886652), (-0.019547418, 0.10081189, -0.08247183), (0.14520551, 0.09870922, -0.08712691), (0.18718047, 0.09740751, -0.074264385), (0.10187437, 0.086369984, -0.11026621), (0.101491526, 0.032335985, -0.11461762), (-0.019716844, 0.089371316, -0.1100979), (0.18131675, 0.07118284, -0.10465904), (0.1769882, 0.032335985, -0.110859275), (0.17489268, -0.092123754, -0.104319535), (0.1929893, 0.029638702, -0.08068338), (0.1894864, -0.09207518, -0.074196056), (0.19818254, 0.0295418, 0.00925993), (0.1925322, -0.09190439, 0.03162249), (0.17828329, -0.102789745, 0.034052134), (0.1955206, -0.091814734, 0.08719338), (0.19525702, -0.09180627, 0.092438884), (0.18402167, -0.10117147, 0.08762429), (0.03203042, -0.10534172, 0.06603356), (0.036483362, -0.09708611, 0.07559169), (0.1874847, -0.09177766, 0.11013601), (0.18701877, -0.04933849, 0.12958303), (0.0675828, -0.089331955, 0.11726458), (-0.14099132, -0.083054334, 0.12369267), (-0.16438751, -0.0654898, 0.122607246), (-0.16578938, -0.08621422, 0.09695113), (-0.1673625, -0.09243338, 0.062578544), (-0.16648512, -0.09792507, -0.062525235), (-0.182595, -0.077172086, 0.04515284), (-0.18320875, 0.02963854, 0.018853346), (-0.18074627, -0.07004998, 0.10540422), (-0.1715032, -0.08347375, -0.09082871), (-0.17117767, -0.0860557, -0.10859061), (-0.17488085, 0.01029145, -0.10427237), (-0.17385821, 0.03457176, -0.097530305), (-0.122129604, 0.032335985, -0.11486761), (-0.133121, -0.0897413, -0.10967572), (-0.025586054, 0.032335985, -0.11474794), (-0.1262386, 0.088662736, -0.11007909), (-0.14138044, 0.07791756, -0.114695214), (-0.17117767, 0.08455687, -0.10908762), (-0.17217727, 0.09999323, -0.051248185), (-0.019716844, -0.09042717, -0.109713435), (-0.018477008, -0.10528142, -0.08197189), (0.10187437, -0.08769656, -0.10981126), (0.14520551, -0.10332472, -0.086416885), (0.025023118, -0.10690491, 0.042412277), (0.17555924, -0.099919446, -0.07365486), (-0.12033306, -0.099019654, -0.08485884), (-0.18065156, 0.029638316, 0.11722371), (-0.16746964, 0.029638259, 0.13141145), (-0.1807671, 0.088079296, 0.10566095)]
            texCoord2f[] primvars:st = [(0.47686645, 0.8453655), (0.6773548, 0.99229586), (0.47949007, 0.873315), (0.70653486, 0.9923531), (0.46223256, 0.84956163), (0.6843052, 0.9413849), (0.6485399, 0.9914907), (0.46540272, 0.8223994), (0.6619594, 0.93864733), (0.65768737, 0.97998416), (0.6618935, 0.84610915), (0.2930289, 0.8294661), (0.6324251, 0.8384676), (0.26171976, 0.8357985), (0.62336165, 0.9061191), (0.60379463, 0.90353036), (0.6183505, 0.8389896), (0.24800056, 0.8388823), (0.5762895, 0.86535233), (0.6409626, 0.9904953), (0.45795438, 0.8198522), (0.5779699, 0.9059947), (0.57751215, 0.9706259), (0.5821307, 0.9877764), (0.3984767, 0.8198522), (0.5669227, 0.9538951), (0.54561114, 0.9555127), (0.5659836, 0.906222), (0.5652159, 0.98617923), (0.38544244, 0.83056164), (0.38213646, 0.8465447), (0.54886925, 0.9860848), (0.49771518, 0.98963153), (0.8258827, 0.98088676), (0.38539046, 0.89647573), (0.39587224, 0.8476651), (0.39865443, 0.89498764), (0.43267503, 0.84841436), (0.43997517, 0.89809287), (0.44045657, 0.9053767), (0.7686911, 0.98482394), (0.46201456, 0.8981615), (0.4640608, 0.8982717), (0.7463875, 0.9876838), (0.46233308, 0.90406173), (0.7547207, 0.9253935), (0.7496433, 0.9271538), (0.7362416, 0.98929346), (0.4713069, 0.89976597), (0.48073015, 0.88337624), (0.716486, 0.9897387), (0.7326882, 0.9399444), (0.7282401, 0.8595739), (0.7232261, 0.8495402), (0.2892446, 0.76977134), (0.73693496, 0.8483696), (0.27877352, 0.7615275), (0.7515868, 0.8457199), (0.26455647, 0.7582476), (0.21336706, 0.7565302), (0.8027229, 0.84336406), (0.2568788, 0.7669889), (0.24681497, 0.80936205), (0.28003824, 0.7702951), (0.8153254, 0.8399927), (0.2017371, 0.7627952), (0.82259893, 0.8402454), (0.19437613, 0.7617375), (0.49229085, 0.8464115), (0.19625326, 0.80167514), (0.5322727, 0.8432687), (0.54274046, 0.84265095), (0.19903973, 0.8116617), (0.54206324, 0.8653608), (0.49137568, 0.8622792), (0.82299054, 0.85574776), (0.5429814, 0.904665), (0.56490207, 0.86368656), (0.5603743, 0.8575061), (0.19437613, 0.8323108), (0.56398356, 0.8454409), (0.21826726, 0.8387744), (0.5888, 0.84409195), (0.49273378, 0.9092539), (0.82586753, 0.9017103), (0.81316364, 0.90286714), (0.4970587, 0.9594613), (0.8281753, 0.95124334), (0.81721693, 0.9689556), (0.7641082, 0.9222766), (0.81289256, 0.9816399), (0.3976363, 0.9012512), (0.81261057, 0.8616228), (0.28620678, 0.808129), (0.68413174, 0.8443428), (0.29391646, 0.80776745), (0.6542382, 0.8389961), (0.28298485, 0.8317592)] (
                interpolation = "faceVarying"
            )
            int[] primvars:st:indices = [51, 3, 1, 5, 0, 2, 42, 41, 4, 0, 4, 7, 8, 5, 1, 9, 1, 6, 1, 9, 8, 8, 9, 6, 14, 10, 94, 5, 8, 10, 8, 12, 96, 14, 12, 8, 12, 14, 15, 16, 6, 19, 15, 14, 15, 18, 82, 16, 15, 21, 18, 19, 23, 22, 15, 21, 15, 22, 22, 25, 27, 21, 23, 28, 25, 22, 31, 26, 25, 28, 25, 26, 76, 27, 24, 35, 30, 29, 36, 34, 30, 35, 31, 32, 86, 26, 37, 38, 36, 35, 37, 35, 24, 20, 41, 38, 37, 4, 7, 4, 37, 20, 36, 38, 39, 91, 44, 39, 38, 41, 41, 42, 44, 43, 46, 45, 43, 45, 89, 40, 51, 46, 43, 47, 42, 48, 44, 51, 47, 50, 49, 48, 42, 2, 3, 51, 50, 53, 52, 51, 5, 94, 57, 46, 51, 52, 55, 52, 53, 52, 55, 57, 45, 46, 57, 57, 60, 89, 45, 59, 58, 61, 65, 58, 56, 63, 61, 62, 69, 65, 61, 62, 61, 63, 93, 92, 60, 64, 66, 75, 65, 69, 67, 73, 70, 71, 72, 69, 62, 70, 73, 74, 68, 83, 74, 73, 76, 27, 76, 73, 77, 73, 71, 80, 78, 78, 77, 73, 80, 77, 78, 62, 13, 17, 79, 72, 62, 79, 81, 79, 17, 18, 77, 80, 82, 21, 27, 77, 18, 86, 83, 76, 26, 85, 92, 75, 84, 88, 85, 84, 87, 90, 88, 87, 33, 85, 88, 89, 40, 89, 88, 90, 91, 34, 36, 89, 60, 92, 89, 92, 85, 93, 63, 54, 95, 54, 63, 56, 62, 93, 97, 13, 93, 95, 11, 97]
            uniform token subdivisionScheme = "none"
            custom string userProperties:blender:data_name = "Cube.017_Retopology.002"
        }
    }

    def Scope "_materials"
    {
        def Material "MI_RockTrim"
        {
            token outputs:surface.connect = </root/_materials/MI_RockTrim/Principled_BSDF.outputs:surface>
            custom string userProperties:blender:data_name = "MI_RockTrim"

            def Shader "Principled_BSDF"
            {
                uniform token info:id = "UsdPreviewSurface"
                float inputs:clearcoat = 0
                float inputs:clearcoatRoughness = 0.03
                color3f inputs:diffuseColor.connect = </root/_materials/MI_RockTrim/Image_Texture.outputs:rgb>
                float inputs:ior = 1.5
                float inputs:metallic = 0
                normal3f inputs:normal.connect = </root/_materials/MI_RockTrim/Image_Texture_001.outputs:rgb>
                float inputs:opacity = 1
                float inputs:roughness = 0.5
                float inputs:specular = 0.5
                token outputs:surface
            }

            def Shader "Image_Texture"
            {
                uniform token info:id = "UsdUVTexture"
                token inputs:sourceColorSpace = "sRGB"
                float2 inputs:st.connect = </root/_materials/MI_RockTrim/uvmap.outputs:result>
                token inputs:wrapS = "repeat"
                token inputs:wrapT = "repeat"
                float3 outputs:rgb
            }

            def Shader "uvmap"
            {
                uniform token info:id = "UsdPrimvarReader_float2"
                string inputs:varname = "st"
                float2 outputs:result
            }

            def Shader "Image_Texture_001"
            {
                uniform token info:id = "UsdUVTexture"
                float4 inputs:bias = (-1, -1, -1, -1)
                float4 inputs:scale = (2, 2, 2, 2)
                token inputs:sourceColorSpace = "raw"
                float2 inputs:st.connect = </root/_materials/MI_RockTrim/uvmap.outputs:result>
                token inputs:wrapS = "repeat"
                token inputs:wrapT = "repeat"
                float3 outputs:rgb
            }
        }
    }
}

