#usda 1.0
(
    defaultPrim = "root"
    doc = "Blender v5.1.2"
    metersPerUnit = 1
    upAxis = "Y"
)

def Xform "root" (
    customData = {
        dictionary Blender = {
            bool generated = 1
        }
    }
)
{
    float3 xformOp:rotateXYZ = (-90, -0, 0)
    uniform token[] xformOpOrder = ["xformOp:rotateXYZ"]

    def Xform "Wall_Plaster_Window_Thin_Round"
    {
        custom string userProperties:blender:object_name = "Wall_Plaster_Window_Thin_Round"

        def Mesh "Plane_022" (
            active = true
            prepend apiSchemas = ["MaterialBindingAPI"]
        )
        {
            uniform bool doubleSided = 1
            float3[] extent = [(-1.0000001, -0.092446715, 0), (1, 0.31403533, 3.1226888)]
            int[] faceVertexCounts = [4, 4, 4, 4, 4, 4, 4, 4, 4, 4, 4, 4, 4, 4, 4, 4, 4, 4, 4, 4, 4, 4, 4, 4, 4, 4, 4, 4, 4, 4, 4, 4, 4, 4, 4, 4, 4, 4, 4, 4, 4, 4, 4, 4, 4, 4, 4, 4, 4, 4, 4, 4, 4, 4, 4, 4, 4, 4, 4, 4, 4, 4, 4, 4, 4, 4, 4, 4, 4, 4, 4, 4, 4, 4, 4, 4, 4, 4, 4, 4, 4, 4, 4]
            int[] faceVertexIndices = [0, 13, 10, 4, 4, 10, 12, 9, 7, 11, 14, 1, 9, 12, 11, 7, 43, 56, 16, 19, 36, 70, 18, 15, 63, 36, 15, 17, 16, 17, 8, 6, 17, 15, 5, 8, 19, 16, 6, 3, 15, 18, 2, 5, 22, 23, 27, 26, 27, 23, 21, 25, 22, 26, 24, 20, 21, 20, 24, 25, 30, 31, 35, 34, 35, 31, 29, 33, 30, 34, 32, 28, 29, 28, 32, 33, 12, 10, 42, 57, 57, 42, 41, 58, 58, 41, 40, 59, 59, 40, 39, 60, 60, 39, 38, 61, 61, 38, 37, 62, 62, 37, 36, 63, 10, 13, 64, 42, 42, 64, 65, 41, 41, 65, 66, 40, 40, 66, 67, 39, 39, 67, 68, 38, 38, 68, 69, 37, 37, 69, 70, 36, 14, 11, 50, 49, 49, 50, 51, 48, 48, 51, 52, 47, 47, 52, 53, 46, 46, 53, 54, 45, 45, 54, 55, 44, 44, 55, 56, 43, 84, 86, 71, 75, 85, 84, 75, 78, 83, 85, 78, 72, 105, 111, 82, 79, 108, 112, 80, 81, 96, 102, 85, 83, 99, 91, 86, 84, 76, 73, 87, 89, 77, 76, 89, 90, 74, 77, 90, 88, 81, 80, 93, 97, 97, 93, 92, 98, 98, 92, 91, 99, 79, 82, 100, 94, 94, 100, 101, 95, 95, 101, 102, 96, 89, 87, 114, 106, 106, 114, 113, 107, 107, 113, 112, 108, 88, 90, 109, 103, 103, 109, 110, 104, 104, 110, 111, 105, 135, 121, 119, 133, 132, 142, 144, 130, 141, 133, 119, 120, 122, 127, 141, 120, 116, 115, 129, 145, 117, 139, 129, 115, 123, 118, 116, 145, 136, 132, 130, 138, 133, 141, 143, 134, 134, 143, 142, 132, 145, 129, 131, 146, 146, 131, 130, 144, 135, 133, 134, 137, 137, 134, 132, 136, 129, 139, 140, 131, 131, 140, 138, 130, 123, 145, 146, 125, 125, 146, 144, 124, 141, 127, 128, 143, 143, 128, 126, 142, 124, 144, 142, 126]
            rel material:binding = </root/_materials/MI_Plaster>
            normal3f[] normals = [(0, -0.99999994, -4.967202e-8), (0, -0.99999994, -4.967202e-8), (0, -0.99999994, -4.967202e-8), (0, -0.99999994, -4.967202e-8), (0, -1, -3.9673925e-8), (0, -1, -3.9673925e-8), (0, -1, -3.9673925e-8), (0, -1, -3.9673925e-8), (0, -1, -4.1454413e-8), (0, -1, -4.1454413e-8), (0, -1, -4.1454413e-8), (0, -1, -4.1454413e-8), (0, -1, -4.13282e-8), (0, -1, -4.13282e-8), (0, -1, -4.13282e-8), (0, -1, -4.13282e-8), (0, -1, -4.1454392e-8), (0, -1, -4.1454392e-8), (0, -1, -4.1454392e-8), (0, -1, -4.1454392e-8), (0, -1, -4.967203e-8), (0, -1, -4.967203e-8), (0, -1, -4.967203e-8), (0, -1, -4.967203e-8), (8.283508e-12, -0.99999994, -3.967781e-8), (8.283508e-12, -0.99999994, -3.967781e-8), (8.283508e-12, -0.99999994, -3.967781e-8), (8.283508e-12, -0.99999994, -3.967781e-8), (-8.240514e-15, -1, -4.132821e-8), (-8.240514e-15, -1, -4.132821e-8), (-8.240514e-15, -1, -4.132821e-8), (-8.240514e-15, -1, -4.132821e-8), (0, -0.99999994, -3.967393e-8), (0, -0.99999994, -3.967393e-8), (0, -0.99999994, -3.967393e-8), (0, -0.99999994, -3.967393e-8), (0, -1, -4.1454403e-8), (0, -1, -4.1454403e-8), (0, -1, -4.1454403e-8), (0, -1, -4.1454403e-8), (0, -1, -4.9672035e-8), (0, -1, -4.9672035e-8), (0, -1, -4.9672035e-8), (0, -1, -4.9672035e-8), (-2.7567145e-7, 1, 1.27968e-7), (-2.7567145e-7, 1, 1.27968e-7), (-2.7567145e-7, 1, 1.27968e-7), (-2.7567145e-7, 1, 1.27968e-7), (0.0000011118249, 3.0294823e-13, -1), (0.0000011118249, 3.0294823e-13, -1), (0.0000011118249, 3.0294823e-13, -1), (0.0000011118249, 3.0294823e-13, -1), (-9.529931e-7, -6.058967e-13, 1), (-9.529931e-7, -6.058967e-13, 1), (-9.529931e-7, -6.058967e-13, 1), (-9.529931e-7, -6.058967e-13, 1), (0, -1, 2.359569e-8), (0, -1, 2.359569e-8), (0, -1, 2.359569e-8), (0, -1, 2.359569e-8), (-2.7567154e-7, 1, 1.3081255e-7), (-2.7567154e-7, 1, 1.3081255e-7), (-2.7567154e-7, 1, 1.3081255e-7), (-2.7567154e-7, 1, 1.3081255e-7), (9.501048e-7, 2.7078136e-13, -1), (9.501048e-7, 2.7078136e-13, -1), (9.501048e-7, 2.7078136e-13, -1), (9.501048e-7, 2.7078136e-13, -1), (-8.393277e-7, -2.3693368e-13, 1), (-8.393277e-7, -2.3693368e-13, 1), (-8.393277e-7, -2.3693368e-13, 1), (-8.393277e-7, -2.3693368e-13, 1), (2.831222e-7, -1, -1.0402246e-7), (2.831222e-7, -1, -1.0402246e-7), (2.831222e-7, -1, -1.0402246e-7), (2.831222e-7, -1, -1.0402246e-7), (-8.283508e-12, -0.99999994, -3.9677776e-8), (-8.283508e-12, -0.99999994, -3.9677776e-8), (-8.283508e-12, -0.99999994, -3.9677776e-8), (-8.283508e-12, -0.99999994, -3.9677776e-8), (-4.1608873e-12, -1, -3.968366e-8), (-4.1608873e-12, -1, -3.968366e-8), (-4.1608873e-12, -1, -3.968366e-8), (-4.1608873e-12, -1, -3.968366e-8), (-2.3875485e-12, -1, -3.9686753e-8), (-2.3875485e-12, -1, -3.9686753e-8), (-2.3875485e-12, -1, -3.9686753e-8), (-2.3875485e-12, -1, -3.9686753e-8), (-6.209208e-13, -1, -3.9688132e-8), (-6.209208e-13, -1, -3.9688132e-8), (-6.209208e-13, -1, -3.9688132e-8), (-6.209208e-13, -1, -3.9688132e-8), (6.209208e-13, -1, -3.9688143e-8), (6.209208e-13, -1, -3.9688143e-8), (6.209208e-13, -1, -3.9688143e-8), (6.209208e-13, -1, -3.9688143e-8), (2.354842e-12, -0.99999994, -3.968676e-8), (2.354842e-12, -0.99999994, -3.968676e-8), (2.354842e-12, -0.99999994, -3.968676e-8), (2.354842e-12, -0.99999994, -3.968676e-8), (4.1608873e-12, -1, -3.9683712e-8), (4.1608873e-12, -1, -3.9683712e-8), (4.1608873e-12, -1, -3.9683712e-8), (4.1608873e-12, -1, -3.9683712e-8), (-2.5264084e-14, -1, -4.9672042e-8), (-2.5264084e-14, -1, -4.9672042e-8), (-2.5264084e-14, -1, -4.9672042e-8), (-2.5264084e-14, -1, -4.9672042e-8), (0, -1, -4.9672035e-8), (0, -1, -4.9672035e-8), (0, -1, -4.9672035e-8), (0, -1, -4.9672035e-8), (0, -1, -4.9672035e-8), (0, -1, -4.9672035e-8), (0, -1, -4.9672035e-8), (0, -1, -4.9672035e-8), (0, -1, -4.967203e-8), (0, -1, -4.967203e-8), (0, -1, -4.967203e-8), (0, -1, -4.967203e-8), (0, -1, -4.9672032e-8), (0, -1, -4.9672032e-8), (0, -1, -4.9672032e-8), (0, -1, -4.9672032e-8), (0, -1, -4.967203e-8), (0, -1, -4.967203e-8), (0, -1, -4.967203e-8), (0, -1, -4.967203e-8), (0, -1, -4.9672042e-8), (0, -1, -4.9672042e-8), (0, -1, -4.9672042e-8), (0, -1, -4.9672042e-8), (0, -1, -4.1454392e-8), (0, -1, -4.1454392e-8), (0, -1, -4.1454392e-8), (0, -1, -4.1454392e-8), (-8.1457214e-14, -1, -4.145441e-8), (-8.1457214e-14, -1, -4.145441e-8), (-8.1457214e-14, -1, -4.145441e-8), (-8.1457214e-14, -1, -4.145441e-8), (-8.84496e-14, -0.99999994, -4.145438e-8), (-8.84496e-14, -0.99999994, -4.145438e-8), (-8.84496e-14, -0.99999994, -4.145438e-8), (-8.84496e-14, -0.99999994, -4.145438e-8), (-9.209436e-14, -1, -4.1454374e-8), (-9.209436e-14, -1, -4.1454374e-8), (-9.209436e-14, -1, -4.1454374e-8), (-9.209436e-14, -1, -4.1454374e-8), (9.2094355e-14, -1, -4.1454385e-8), (9.2094355e-14, -1, -4.1454385e-8), (9.2094355e-14, -1, -4.1454385e-8), (9.2094355e-14, -1, -4.1454385e-8), (8.844961e-14, -1, -4.145439e-8), (8.844961e-14, -1, -4.145439e-8), (8.844961e-14, -1, -4.145439e-8), (8.844961e-14, -1, -4.145439e-8), (1.6291435e-13, -1, -4.1454392e-8), (1.6291435e-13, -1, -4.1454392e-8), (1.6291435e-13, -1, -4.1454392e-8), (1.6291435e-13, -1, -4.1454392e-8), (0, 1, 6.266225e-8), (0, 1, 6.266225e-8), (0, 1, 6.266225e-8), (0, 1, 6.266225e-8), (1.0857579e-8, 1, 5.1867275e-8), (1.0857579e-8, 1, 5.1867275e-8), (1.0857579e-8, 1, 5.1867275e-8), (1.0857579e-8, 1, 5.1867275e-8), (1.087298e-8, 1, 6.410153e-8), (1.087298e-8, 1, 6.410153e-8), (1.087298e-8, 1, 6.410153e-8), (1.087298e-8, 1, 6.410153e-8), (4.3177866e-9, 1, 9.6783396e-8), (4.3177866e-9, 1, 9.6783396e-8), (4.3177866e-9, 1, 9.6783396e-8), (4.3177866e-9, 1, 9.6783396e-8), (0, 1, 6.696598e-8), (0, 1, 6.696598e-8), (0, 1, 6.696598e-8), (0, 1, 6.696598e-8), (-3.2241225e-8, 1, 3.706835e-8), (-3.2241225e-8, 1, 3.706835e-8), (-3.2241225e-8, 1, 3.706835e-8), (-3.2241225e-8, 1, 3.706835e-8), (0, 1, 6.660003e-8), (0, 1, 6.660003e-8), (0, 1, 6.660003e-8), (0, 1, 6.660003e-8), (0, 1, 7.5001886e-8), (0, 1, 7.5001886e-8), (0, 1, 7.5001886e-8), (0, 1, 7.5001886e-8), (-1.0829729e-8, 0.99999994, 3.1040564e-8), (-1.0829729e-8, 0.99999994, 3.1040564e-8), (-1.0829729e-8, 0.99999994, 3.1040564e-8), (-1.0829729e-8, 0.99999994, 3.1040564e-8), (-1.0845101e-8, 1, 8.3118316e-8), (-1.0845101e-8, 1, 8.3118316e-8), (-1.0845101e-8, 1, 8.3118316e-8), (-1.0845101e-8, 1, 8.3118316e-8), (0, 1, 6.660004e-8), (0, 1, 6.660004e-8), (0, 1, 6.660004e-8), (0, 1, 6.660004e-8), (0, 1, 6.660004e-8), (0, 1, 6.660004e-8), (0, 1, 6.660004e-8), (0, 1, 6.660004e-8), (0, 1, 6.6600045e-8), (0, 1, 6.6600045e-8), (0, 1, 6.6600045e-8), (0, 1, 6.6600045e-8), (-4.294192e-9, 1, 8.662906e-8), (-4.294192e-9, 1, 8.662906e-8), (-4.294192e-9, 1, 8.662906e-8), (-4.294192e-9, 1, 8.662906e-8), (-1.0721857e-7, 1, 7.410869e-8), (-1.0721857e-7, 1, 7.410869e-8), (-1.0721857e-7, 1, 7.410869e-8), (-1.0721857e-7, 1, 7.410869e-8), (-1.9081611e-8, 1, 4.265772e-8), (-1.9081611e-8, 1, 4.265772e-8), (-1.9081611e-8, 1, 4.265772e-8), (-1.9081611e-8, 1, 4.265772e-8), (0, 1, 4.464399e-8), (0, 1, 4.464399e-8), (0, 1, 4.464399e-8), (0, 1, 4.464399e-8), (0, 1, 5.357277e-8), (0, 1, 5.357277e-8), (0, 1, 5.357277e-8), (0, 1, 5.357277e-8), (0, 1, 7.143037e-8), (0, 1, 7.143037e-8), (0, 1, 7.143037e-8), (0, 1, 7.143037e-8), (3.2418384e-8, 1, 5.9635234e-8), (3.2418384e-8, 1, 5.9635234e-8), (3.2418384e-8, 1, 5.9635234e-8), (3.2418384e-8, 1, 5.9635234e-8), (1.9186453e-8, 1, 6.004897e-8), (1.9186453e-8, 1, 6.004897e-8), (1.9186453e-8, 1, 6.004897e-8), (1.9186453e-8, 1, 6.004897e-8), (1.0780769e-7, 1, 1.024594e-7), (1.0780769e-7, 1, 1.024594e-7), (1.0780769e-7, 1, 1.024594e-7), (1.0780769e-7, 1, 1.024594e-7), (4.9140186e-7, 0, 1), (4.9140186e-7, 0, 1), (4.9140186e-7, 0, 1), (4.9140186e-7, 0, 1), (-6.39709e-7, 1, 8.317103e-8), (-6.39709e-7, 1, 8.317103e-8), (-6.39709e-7, 1, 8.317103e-8), (-6.39709e-7, 1, 8.317103e-8), (-6.2570933e-7, 1, -2.613565e-7), (-6.2570933e-7, 1, -2.613565e-7), (-6.2570933e-7, 1, -2.613565e-7), (-6.2570933e-7, 1, -2.613565e-7), (-0.0000013671619, 0, -1), (-0.0000013671619, 0, -1), (-0.0000013671619, 0, -1), (-0.0000013671619, 0, -1), (-6.013759e-7, 1, 5.2676694e-9), (-6.013759e-7, 1, 5.2676694e-9), (-6.013759e-7, 1, 5.2676694e-9), (-6.013759e-7, 1, 5.2676694e-9), (0.0000022757424, 8.0364605e-13, 1), (0.0000022757424, 8.0364605e-13, 1), (0.0000022757424, 8.0364605e-13, 1), (0.0000022757424, 8.0364605e-13, 1), (-0.0000010950026, -1.6072914e-12, -1), (-0.0000010950026, -1.6072914e-12, -1), (-0.0000010950026, -1.6072914e-12, -1), (-0.0000010950026, -1.6072914e-12, -1), (0.0000010976332, 0, 1), (0.0000010976332, 0, 1), (0.0000010976332, 0, 1), (0.0000010976332, 0, 1), (-5.446265e-7, 1, -4.604786e-7), (-5.446265e-7, 1, -4.604786e-7), (-5.446265e-7, 1, -4.604786e-7), (-5.446265e-7, 1, -4.604786e-7), (-5.5959816e-7, 0.99999994, -1.9953173e-7), (-5.5959816e-7, 0.99999994, -1.9953173e-7), (-5.5959816e-7, 0.99999994, -1.9953173e-7), (-5.5959816e-7, 0.99999994, -1.9953173e-7), (-5.5598724e-7, 1, 7.588446e-9), (-5.5598724e-7, 1, 7.588446e-9), (-5.5598724e-7, 1, 7.588446e-9), (-5.5598724e-7, 1, 7.588446e-9), (-5.559876e-7, 1, 7.588746e-9), (-5.559876e-7, 1, 7.588746e-9), (-5.559876e-7, 1, 7.588746e-9), (-5.559876e-7, 1, 7.588746e-9), (0.043276608, 0, 0.9990631), (0.043276608, 0, 0.9990631), (0.043276608, 0, 0.9990631), (0.043276608, 0, 0.9990631), (-0.024718063, 0, 0.9996944), (-0.024718063, 0, 0.9996944), (-0.024718063, 0, 0.9996944), (-0.024718063, 0, 0.9996944), (0.08097388, 0, 0.99671626), (0.08097388, 0, 0.99671626), (0.08097388, 0, 0.99671626), (0.08097388, 0, 0.99671626), (-0.08097388, 0, 0.99671626), (-0.08097388, 0, 0.99671626), (-0.08097388, 0, 0.99671626), (-0.08097388, 0, 0.99671626), (0.08097154, 7.2799374e-8, -0.9967164), (0.08097154, 7.2799374e-8, -0.9967164), (0.08097154, 7.2799374e-8, -0.9967164), (0.08097154, 7.2799374e-8, -0.9967164), (-0.08097153, -7.279937e-8, -0.99671644), (-0.08097153, -7.279937e-8, -0.99671644), (-0.08097153, -7.279937e-8, -0.99671644), (-0.08097153, -7.279937e-8, -0.99671644), (0.043274812, 2.8591861e-8, -0.9990632), (0.043274812, 2.8591861e-8, -0.9990632), (0.043274812, 2.8591861e-8, -0.9990632), (0.043274812, 2.8591861e-8, -0.9990632), (-0.024721196, -2.4496998e-8, -0.9996943), (-0.024721196, -2.4496998e-8, -0.9996943), (-0.024721196, -2.4496998e-8, -0.9996943), (-0.024721196, -2.4496998e-8, -0.9996943), (-0.0000010976329, -1.3084805e-12, -1), (-0.0000010976329, -1.3084805e-12, -1), (-0.0000010976329, -1.3084805e-12, -1), (-0.0000010976329, -1.3084805e-12, -1)] (
                interpolation = "faceVarying"
            )
            point3f[] points = [(-1, 0, 0), (-1, -1.3113416e-7, 3), (1, 0, 0), (1, -1.3113416e-7, 3), (-1, -4.3711385e-8, 0.88), (1, -4.371139e-8, 0.88), (1, -1.0285665e-7, 2.317865), (-1, -1.0285665e-7, 2.317865), (1, -5.040504e-8, 1.0487167), (-1, -5.0405035e-8, 1.0487167), (-0.31859297, -4.3711385e-8, 0.88), (-0.31859288, -1.0285665e-7, 2.317865), (-0.31859297, -5.0405035e-8, 1.0487167), (-0.318593, 0, 0), (-0.31859282, -1.3113416e-7, 3), (0.3206031, -4.371139e-8, 0.88), (0.32060304, -1.0285665e-7, 2.317865), (0.32060307, -5.0405042e-8, 1.0487168), (0.320603, 0, 0), (0.32060307, -1.3113416e-7, 3), (1, -0.0924464, 3.1167645), (1, -0.0924464, 2.8832374), (0.9999999, 0.0013708919, 3.1167645), (0.99999994, 0.0013709217, 2.8832374), (-1.0000001, -0.0924464, 3.1167626), (-1, -0.0924464, 2.8832355), (-1.0000001, 0.0013703406, 3.1167626), (-1, 0.0013703704, 2.8832355), (0.99999994, -0.09244612, 0.8831066), (1, -0.09244612, 0.6495795), (0.9999999, 0.012515706, 0.8831066), (0.99999994, 0.012515736, 0.6495795), (-1.0000001, -0.092446715, 0.8831049), (-1, -0.092446655, 0.6495776), (-1.0000001, 0.012515155, 0.8831049), (-1, 0.0125151845, 0.6495776), (0.2407036, -4.371139e-8, 0.88), (0.1608041, -4.371139e-8, 0.88), (0.08090458, -4.371139e-8, 0.88), (0.0010050684, -4.371139e-8, 0.88), (-0.07889444, -4.371139e-8, 0.88), (-0.15879396, -4.371139e-8, 0.88), (-0.23869346, -4.371139e-8, 0.88), (0.24070358, -1.3113416e-7, 3), (0.1608041, -1.3113416e-7, 3), (0.0809046, -1.3113416e-7, 3), (0.0010051206, -1.3113416e-7, 3), (-0.07889436, -1.3113416e-7, 3), (-0.15879385, -1.3113416e-7, 3), (-0.23869333, -1.3113416e-7, 3), (-0.23869337, -1.0736718e-7, 2.4266717), (-0.1587939, -1.0964398e-7, 2.4815946), (-0.078894384, -1.1094501e-7, 2.512979), (0.0010050944, -1.11293495e-7, 2.5213854), (0.08090458, -1.1094501e-7, 2.512979), (0.16080406, -1.0964398e-7, 2.4815946), (0.24070357, -1.0736718e-7, 2.4266717), (-0.23869346, -5.04358e-8, 1.0494589), (-0.15879396, -5.0451334e-8, 1.0498334), (-0.07889445, -5.046021e-8, 1.0500475), (0.0010050539, -5.0462585e-8, 1.0501049), (0.08090456, -5.046021e-8, 1.0500475), (0.16080406, -5.0451337e-8, 1.0498334), (0.24070358, -5.043581e-8, 1.0494589), (-0.23869349, 0, 0), (-0.15879399, 0, 0), (-0.07889448, 0, 0), (0.0010050237, 0, 0), (0.08090452, 0, 0), (0.16080403, 0, 0), (0.24070352, 0, 0), (-1, 0.20000009, 0), (-1, 0.19999991, 3), (1, 0.20000009, 0), (1, 0.19999991, 3), (-1, 0.20000003, 1.0490153), (1, 0.20000003, 1.0490153), (1, 0.19999996, 2.315328), (-1, 0.19999996, 2.315328), (0, 0.19999991, 3), (0, 0.20000009, 0), (0, 0.20000003, 1.0490153), (0, 0.19999996, 2.519831), (-0.31993008, 0.19999991, 3), (-0.31993008, 0.20000003, 1.0490153), (-0.31993008, 0.19999994, 2.31739), (-0.31993008, 0.20000009, 0), (0.3181818, 0.20000009, 0), (0.3181818, 0.19999991, 3), (0.31818184, 0.20000003, 1.0490153), (0.31818178, 0.19999994, 2.31739), (-0.23994756, 0.20000009, 0), (-0.15996504, 0.20000009, 0), (-0.07998252, 0.20000009, 0), (-0.07998252, 0.19999991, 3), (-0.15996504, 0.19999991, 3), (-0.23994756, 0.19999991, 3), (-0.07998252, 0.20000003, 1.0490153), (-0.15996504, 0.20000003, 1.0490153), (-0.23994756, 0.20000003, 1.0490153), (-0.07998251, 0.19999996, 2.5123951), (-0.15996502, 0.19999994, 2.482027), (-0.23994756, 0.19999994, 2.426112), (0.23863636, 0.19999991, 3), (0.1590909, 0.19999991, 3), (0.07954545, 0.19999991, 3), (0.23863636, 0.20000003, 1.0490153), (0.15909092, 0.20000003, 1.0490153), (0.07954546, 0.20000003, 1.0490153), (0.23863637, 0.19999994, 2.426112), (0.15909089, 0.19999994, 2.482027), (0.079545446, 0.19999996, 2.5123951), (0.07954545, 0.20000009, 0), (0.1590909, 0.20000009, 0), (0.23863636, 0.20000009, 0), (-1, 0.31403407, 3.1167645), (-1.0000001, 0.31403407, 2.8832374), (-0.99999994, 0.19509369, 3.1167645), (-1, 0.19509366, 2.8832374), (1, 0.31403533, 3.1167626), (0.9999999, 0.31403527, 2.8832355), (1, 0.19509491, 3.1167626), (0.99999994, 0.19509488, 2.8832355), (-0.851329, 0.19509375, 2.8832371), (-0.6369192, 0.19509387, 2.8832371), (-0.7441241, 0.19509381, 2.8919463), (0.5044692, 0.19509459, 2.883236), (0.8809258, 0.19509481, 2.8832355), (0.7441241, 0.19509473, 2.8773098), (-0.851329, 0.31403416, 3.1167643), (-0.6369192, 0.31403428, 3.1167643), (-0.7441241, 0.31403422, 3.108055), (0.5044692, 0.31403503, 3.116763), (0.8809258, 0.31403527, 3.1167626), (0.7441241, 0.31403518, 3.1226888), (0.8809258, 0.19509484, 3.1167626), (0.5044692, 0.19509462, 3.116763), (0.7441241, 0.19509476, 3.1226888), (-0.6369192, 0.1950939, 3.1167643), (-0.851329, 0.19509378, 3.1167643), (-0.7441241, 0.19509384, 3.108055), (0.88092566, 0.31403518, 2.8832355), (0.50446904, 0.314035, 2.883236), (0.744124, 0.31403512, 2.8773098), (-0.6369193, 0.31403428, 2.8832371), (-0.85132915, 0.31403416, 2.8832371), (-0.74412423, 0.31403422, 2.8919463)]
            texCoord2f[] primvars:st = [(0.00007069111, 0.0025699288), (0, 1), (0.9999293, 0.0025698394), (1, 1), (0.00007075071, 0.4206848), (0, 0), (1, 0), (0.9999293, 0.4206848), (1, 0.67654306), (0, 0.67654306), (1, 0.07656643), (0, 0.0765664), (0.3407792, 0), (0.34080178, 0.4206848), (0.34077924, 0.676543), (0.34077924, 0.07656643), (0.34080172, 0.002569898), (0.34077924, 1), (0.66074324, 0), (0.6607205, 0.4206848), (0.6607433, 0.6765431), (0.66074336, 0.076566465), (0.6607206, 0.0025698694), (0.6607433, 1), (0, 0.6926124), (1, 0.99616915), (0, 0.6926124), (1, 0.8827367), (1, 0.8827367), (0, 0.7479713), (1, 0.99616915), (0, 0.7479713), (1, 0.6926124), (0, 0.99616945), (1, 0.6926124), (0, 0.88273686), (0, 0.88273686), (1, 0.7479713), (0, 0.99616945), (1, 0.7479713), (0, 0.6926124), (1, 0.99616915), (0, 0.6926124), (1, 0.8827367), (1, 0.8827367), (0, 0.7479713), (1, 0.99616915), (0, 0.7479713), (1, 0.6926124), (0, 0.99616945), (1, 0.6926124), (0, 0.88273686), (0, 0.88273686), (1, 0.7479713), (0, 0.99616945), (1, 0.7479713), (0.6207477, 0), (0.6207307, 0.4206848), (0.58075225, 0), (0.58074087, 0.42068487), (0.5407567, 0), (0.540751, 0.42068487), (0.5007613, 0), (0.50076115, 0.42068487), (0.46076572, 0), (0.46077132, 0.42068487), (0.42077023, 0), (0.42078137, 0.42068475), (0.38077474, 0), (0.3807916, 0.4206848), (0.6207478, 1), (0.5807523, 1), (0.54075676, 1), (0.5007613, 1), (0.46076578, 1), (0.42077023, 1), (0.38077474, 1), (0.38077477, 0.7281374), (0.42077035, 0.7541809), (0.46076593, 0.76906294), (0.5007613, 0.7730493), (0.5407568, 0.76906306), (0.58075225, 0.754181), (0.6207478, 0.7281375), (0.3807748, 0.07691836), (0.42077032, 0.077096), (0.46076578, 0.077197514), (0.5007614, 0.07722467), (0.54075694, 0.07719752), (0.5807524, 0.07709601), (0.62074775, 0.07691836), (0.3807916, 0.0025698943), (0.42078143, 0.0025698906), (0.46077126, 0.0025698869), (0.50076115, 0.0025698834), (0.540751, 0.0025698799), (0.5807408, 0.0025698761), (0.6207307, 0.002569873), (0.00008164503, -0.24999999), (0.000081720515, 0.99991834), (1, -0.25), (1, 0.99991834), (0.00008167142, 0.18706115), (1, 0.18706118), (0.99999994, 0.71465683), (0.000081703285, 0.71465695), (0.5000409, 0.99991834), (0.5000408, -0.25), (0.5000408, 0.18706118), (0.5000409, 0.799861), (0.3400889, 0.99991834), (0.34008884, 0.18706116), (0.3400889, 0.7155161), (0.34008884, -0.25), (0.6591187, -0.25), (0.6591188, 0.99991834), (0.6591187, 0.18706116), (0.65911865, 0.71551603), (0.38007683, -0.25), (0.4200648, -0.25), (0.46005282, -0.25), (0.4600529, 0.99991834), (0.4200649, 0.99991834), (0.3800769, 0.99991834), (0.46005285, 0.18706118), (0.42006484, 0.18706119), (0.38007683, 0.18706118), (0.46005285, 0.79676294), (0.42006487, 0.78411037), (0.38007686, 0.76081395), (0.6193493, 0.99991834), (0.57957983, 0.99991834), (0.53981036, 0.99991834), (0.61934924, 0.18706118), (0.5795797, 0.18706116), (0.5398103, 0.18706118), (0.61934924, 0.7608139), (0.5795797, 0.78411037), (0.5398103, 0.79676306), (0.5398103, -0.25), (0.5795797, -0.25), (0.61934924, -0.25), (1, 0.99616915), (0, 0.6926124), (1, 0.8827367), (0, 0.6926124), (0, 0.7479713), (0, 0.7479713), (1, 0.6926124), (0, 0.99616945), (0, 0.88273686), (1, 0.6926124), (1, 0.7479713), (1, 0.7479713), (0.07433548, 0.7479713), (0.1815404, 0.7479713), (0.12793794, 0.7479713), (0.7522345, 0.74797124), (0.94046295, 0.7479713), (0.8720621, 0.7479713), (0.92566454, 0.99616915), (0.07433548, 0.6926124), (0.8184596, 0.9961692), (0.1815404, 0.6926124), (0.8720621, 0.9961692), (0.12793794, 0.6926124), (0.24776536, 0.9961693), (0.7522345, 0.6926124), (0.059537124, 0.99616945), (0.9404629, 0.6926124), (0.12793794, 0.99616945), (0.8720621, 0.6926124), (0.9404629, 0.7479713), (0.7522346, 0.7479713), (0.8720621, 0.7479713), (0.18154037, 0.7479713), (0.074335456, 0.7479713), (0.12793791, 0.7479713), (0.059537146, 0.88273674), (0.9404629, 0.6926124), (0.24776545, 0.8827368), (0.7522346, 0.6926124), (0.12793797, 0.8827368), (0.8720621, 0.6926124), (0.81845963, 0.8827367), (0.1815404, 0.6926124), (0.92566454, 0.8827367), (0.074335486, 0.6926124), (0.8720621, 0.8827367), (0.12793794, 0.6926124)] (
                interpolation = "faceVarying"
            )
            int[] primvars:st:indices = [0, 16, 13, 4, 5, 12, 15, 11, 9, 14, 17, 1, 11, 15, 14, 9, 70, 83, 20, 23, 57, 97, 22, 19, 90, 56, 18, 21, 20, 21, 10, 8, 21, 18, 6, 10, 23, 20, 8, 3, 19, 22, 2, 7, 28, 30, 38, 36, 39, 31, 26, 34, 29, 37, 32, 24, 27, 25, 33, 35, 44, 46, 54, 52, 55, 47, 42, 50, 45, 53, 48, 40, 43, 41, 49, 51, 15, 12, 68, 84, 84, 68, 66, 85, 85, 66, 64, 86, 86, 64, 62, 87, 87, 62, 60, 88, 88, 60, 58, 89, 89, 58, 56, 90, 13, 16, 91, 69, 69, 91, 92, 67, 67, 92, 93, 65, 65, 93, 94, 63, 63, 94, 95, 61, 61, 95, 96, 59, 59, 96, 97, 57, 17, 14, 77, 76, 76, 77, 78, 75, 75, 78, 79, 74, 74, 79, 80, 73, 73, 80, 81, 72, 72, 81, 82, 71, 71, 82, 83, 70, 111, 113, 98, 102, 112, 111, 102, 105, 110, 112, 105, 99, 132, 138, 109, 106, 135, 139, 107, 108, 123, 129, 112, 110, 126, 118, 113, 111, 103, 100, 114, 116, 104, 103, 116, 117, 101, 104, 117, 115, 108, 107, 120, 124, 124, 120, 119, 125, 125, 119, 118, 126, 106, 109, 127, 121, 121, 127, 128, 122, 122, 128, 129, 123, 116, 114, 141, 133, 133, 141, 140, 134, 134, 140, 139, 135, 115, 117, 136, 130, 130, 136, 137, 131, 131, 137, 138, 132, 172, 152, 148, 169, 166, 180, 184, 162, 178, 168, 149, 150, 153, 158, 179, 151, 144, 142, 160, 186, 146, 176, 161, 143, 154, 147, 145, 187, 173, 167, 163, 175, 168, 178, 182, 170, 170, 182, 180, 166, 186, 160, 164, 188, 188, 164, 162, 184, 172, 169, 171, 174, 174, 171, 167, 173, 161, 176, 177, 165, 165, 177, 175, 163, 154, 187, 189, 156, 156, 189, 185, 155, 179, 158, 159, 183, 183, 159, 157, 181, 155, 185, 181, 157]
            texCoord2f[] primvars:Wear = [(0, 0), (0, 0), (0, 0), (0, 0), (0, 0), (0, 0), (0, 0), (0, 0), (0, 0), (0, 0), (0, 0), (0, 0), (0, 0), (0, 0), (0, 0), (0, 0), (0, 0), (0, 0), (0, 0), (0, 0), (0, 0), (0, 0), (0, 0), (0, 0), (0, 0), (0, 0), (0, 0), (0, 0), (0, 0), (0, 0), (0, 0), (0, 0), (0, 0), (0, 0), (0, 0), (0, 0), (0, 0), (0, 0), (0, 0), (0, 0), (0, 0), (0, 0), (0, 0), (0, 0), (0, 0), (0, 0), (0, 0), (0, 0), (0, 0), (0, 0), (0, 0), (0, 0), (0, 0), (0, 0), (0, 0), (0, 0), (0, 0), (0, 0), (0, 0), (0, 0), (0, 0), (0, 0), (0, 0), (0, 0), (0, 0), (0, 0), (0, 0), (0, 0), (0, 0), (0, 0), (0, 0), (0, 0), (0, 0), (0, 0), (0, 0), (0, 0), (0, 0), (0, 0), (0, 0), (0, 0), (0, 0), (0, 0), (0, 0), (0, 0), (0, 0), (0, 0), (0, 0), (0, 0), (0, 0), (0, 0), (0, 0), (0, 0), (0, 0), (0, 0), (0, 0), (0, 0), (0, 0), (0, 0), (0, 0), (0, 0), (0, 0), (0, 0), (0, 0), (0, 0), (0, 0), (0, 0), (0, 0), (0, 0), (0, 0), (0, 0), (0, 0), (0, 0), (0, 0), (0, 0), (0, 0), (0, 0), (0, 0), (0, 0), (0, 0), (0, 0), (0, 0), (0, 0), (0, 0), (0, 0), (0, 0), (0, 0), (0, 0), (0, 0), (0, 0), (0, 0), (0, 0), (0, 0), (0, 0), (0, 0), (0, 0), (0, 0), (0, 0), (0, 0), (0, 0), (0, 0), (0, 0), (0, 0), (0, 0), (0, 0), (0, 0), (0, 0), (0, 0)] (
                interpolation = "faceVarying"
            )
            int[] primvars:Wear:indices = [0, 13, 10, 4, 4, 10, 12, 9, 7, 11, 14, 1, 9, 12, 11, 7, 43, 56, 16, 19, 36, 70, 18, 15, 63, 36, 15, 17, 16, 17, 8, 6, 17, 15, 5, 8, 19, 16, 6, 3, 15, 18, 2, 5, 22, 23, 27, 26, 27, 23, 21, 25, 22, 26, 24, 20, 21, 20, 24, 25, 30, 31, 35, 34, 35, 31, 29, 33, 30, 34, 32, 28, 29, 28, 32, 33, 12, 10, 42, 57, 57, 42, 41, 58, 58, 41, 40, 59, 59, 40, 39, 60, 60, 39, 38, 61, 61, 38, 37, 62, 62, 37, 36, 63, 10, 13, 64, 42, 42, 64, 65, 41, 41, 65, 66, 40, 40, 66, 67, 39, 39, 67, 68, 38, 38, 68, 69, 37, 37, 69, 70, 36, 14, 11, 50, 49, 49, 50, 51, 48, 48, 51, 52, 47, 47, 52, 53, 46, 46, 53, 54, 45, 45, 54, 55, 44, 44, 55, 56, 43, 84, 86, 71, 75, 85, 84, 75, 78, 83, 85, 78, 72, 105, 111, 82, 79, 108, 112, 80, 81, 96, 102, 85, 83, 99, 91, 86, 84, 76, 73, 87, 89, 77, 76, 89, 90, 74, 77, 90, 88, 81, 80, 93, 97, 97, 93, 92, 98, 98, 92, 91, 99, 79, 82, 100, 94, 94, 100, 101, 95, 95, 101, 102, 96, 89, 87, 114, 106, 106, 114, 113, 107, 107, 113, 112, 108, 88, 90, 109, 103, 103, 109, 110, 104, 104, 110, 111, 105, 135, 121, 119, 133, 132, 142, 144, 130, 141, 133, 119, 120, 122, 127, 141, 120, 116, 115, 129, 145, 117, 139, 129, 115, 123, 118, 116, 145, 136, 132, 130, 138, 133, 141, 143, 134, 134, 143, 142, 132, 145, 129, 131, 146, 146, 131, 130, 144, 135, 133, 134, 137, 137, 134, 132, 136, 129, 139, 140, 131, 131, 140, 138, 130, 123, 145, 146, 125, 125, 146, 144, 124, 141, 127, 128, 143, 143, 128, 126, 142, 124, 144, 142, 126]
            uniform token subdivisionScheme = "none"
            uniform token subsetFamily:materialBind:familyType = "nonOverlapping"
            custom string userProperties:blender:data_name = "Plane.022"

            def GeomSubset "MI_Plaster" (
                prepend apiSchemas = ["MaterialBindingAPI"]
            )
            {
                uniform token elementType = "face"
                uniform token familyName = "materialBind"
                int[] indices = [1, 2, 3, 4, 6, 7, 8, 9, 19, 20, 21, 22, 23, 24, 25, 33, 34, 35, 36, 37, 38, 39, 40, 41, 42, 43, 44, 45, 46, 47, 48, 49, 50, 51, 52, 53, 54, 55, 56, 57, 58, 59, 60, 61]
                rel material:binding = </root/_materials/MI_Plaster>
            }

            def GeomSubset "MI_Brick" (
                prepend apiSchemas = ["MaterialBindingAPI"]
            )
            {
                uniform token elementType = "face"
                uniform token familyName = "materialBind"
                int[] indices = [0, 5, 10, 26, 27, 28, 29, 30, 31, 32]
                rel material:binding = </root/_materials/MI_Brick>
            }

            def GeomSubset "MI_WoodTrim" (
                prepend apiSchemas = ["MaterialBindingAPI"]
            )
            {
                uniform token elementType = "face"
                uniform token familyName = "materialBind"
                int[] indices = [11, 12, 13, 14, 15, 16, 17, 18, 62, 63, 64, 65, 66, 67, 68, 69, 70, 71, 72, 73, 74, 75, 76, 77, 78, 79, 80, 81, 82]
                rel material:binding = </root/_materials/MI_WoodTrim>
            }
        }
    }

    def Scope "_materials"
    {
        def Material "MI_Plaster"
        {
            token outputs:surface.connect = </root/_materials/MI_Plaster/Principled_BSDF.outputs:surface>
            custom string userProperties:blender:data_name = "MI_Plaster"

            def Shader "Principled_BSDF"
            {
                uniform token info:id = "UsdPreviewSurface"
                float inputs:clearcoat = 0
                float inputs:clearcoatRoughness = 0.03
                color3f inputs:diffuseColor.connect = </root/_materials/MI_Plaster/Image_Texture.outputs:rgb>
                float inputs:ior = 1.5
                float inputs:metallic = 0
                normal3f inputs:normal.connect = </root/_materials/MI_Plaster/Image_Texture_001.outputs:rgb>
                float inputs:opacity = 1
                float inputs:roughness = 0.5
                float inputs:specular = 0.5
                token outputs:surface
            }

            def Shader "Image_Texture"
            {
                uniform token info:id = "UsdUVTexture"
                token inputs:sourceColorSpace = "sRGB"
                float2 inputs:st.connect = </root/_materials/MI_Plaster/uvmap.outputs:result>
                token inputs:wrapS = "repeat"
                token inputs:wrapT = "repeat"
                float3 outputs:rgb
            }

            def Shader "uvmap"
            {
                uniform token info:id = "UsdPrimvarReader_float2"
                string inputs:varname = "st"
                float2 outputs:result
            }

            def Shader "Image_Texture_001"
            {
                uniform token info:id = "UsdUVTexture"
                float4 inputs:bias = (-1, -1, -1, -1)
                float4 inputs:scale = (2, 2, 2, 2)
                token inputs:sourceColorSpace = "raw"
                float2 inputs:st.connect = </root/_materials/MI_Plaster/uvmap.outputs:result>
                token inputs:wrapS = "repeat"
                token inputs:wrapT = "repeat"
                float3 outputs:rgb
            }
        }

        def Material "MI_Brick"
        {
            token outputs:surface.connect = </root/_materials/MI_Brick/Principled_BSDF.outputs:surface>
            custom string userProperties:blender:data_name = "MI_Brick"

            def Shader "Principled_BSDF"
            {
                uniform token info:id = "UsdPreviewSurface"
                float inputs:clearcoat = 0
                float inputs:clearcoatRoughness = 0.03
                color3f inputs:diffuseColor.connect = </root/_materials/MI_Brick/Image_Texture.outputs:rgb>
                float inputs:ior = 1.5
                float inputs:metallic = 0
                normal3f inputs:normal.connect = </root/_materials/MI_Brick/Image_Texture_002.outputs:rgb>
                float inputs:opacity = 1
                float inputs:roughness.connect = </root/_materials/MI_Brick/Image_Texture_001.outputs:r>
                float inputs:specular = 0.5
                token outputs:surface
            }

            def Shader "Image_Texture"
            {
                uniform token info:id = "UsdUVTexture"
                token inputs:sourceColorSpace = "sRGB"
                float2 inputs:st.connect = </root/_materials/MI_Brick/uvmap.outputs:result>
                token inputs:wrapS = "repeat"
                token inputs:wrapT = "repeat"
                float3 outputs:rgb
            }

            def Shader "uvmap"
            {
                uniform token info:id = "UsdPrimvarReader_float2"
                string inputs:varname = "st"
                float2 outputs:result
            }

            def Shader "Image_Texture_001"
            {
                uniform token info:id = "UsdUVTexture"
                token inputs:sourceColorSpace = "raw"
                float2 inputs:st.connect = </root/_materials/MI_Brick/uvmap.outputs:result>
                token inputs:wrapS = "repeat"
                token inputs:wrapT = "repeat"
                float outputs:r
            }

            def Shader "Image_Texture_002"
            {
                uniform token info:id = "UsdUVTexture"
                float4 inputs:bias = (-1, -1, -1, -1)
                float4 inputs:scale = (2, 2, 2, 2)
                token inputs:sourceColorSpace = "raw"
                float2 inputs:st.connect = </root/_materials/MI_Brick/uvmap.outputs:result>
                token inputs:wrapS = "repeat"
                token inputs:wrapT = "repeat"
                float3 outputs:rgb
            }
        }

        def Material "MI_WoodTrim"
        {
            token outputs:surface.connect = </root/_materials/MI_WoodTrim/Principled_BSDF.outputs:surface>
            custom string userProperties:blender:data_name = "MI_WoodTrim"

            def Shader "Principled_BSDF"
            {
                uniform token info:id = "UsdPreviewSurface"
                float inputs:clearcoat = 0
                float inputs:clearcoatRoughness = 0.03
                color3f inputs:diffuseColor.connect = </root/_materials/MI_WoodTrim/Image_Texture.outputs:rgb>
                float inputs:ior = 1.5
                float inputs:metallic = 0
                normal3f inputs:normal.connect = </root/_materials/MI_WoodTrim/Image_Texture_002.outputs:rgb>
                float inputs:opacity = 1
                float inputs:roughness.connect = </root/_materials/MI_WoodTrim/Image_Texture_001.outputs:r>
                float inputs:specular = 0.5
                token outputs:surface
            }

            def Shader "Image_Texture"
            {
                uniform token info:id = "UsdUVTexture"
                token inputs:sourceColorSpace = "sRGB"
                float2 inputs:st.connect = </root/_materials/MI_WoodTrim/uvmap.outputs:result>
                token inputs:wrapS = "repeat"
                token inputs:wrapT = "repeat"
                float3 outputs:rgb
            }

            def Shader "uvmap"
            {
                uniform token info:id = "UsdPrimvarReader_float2"
                string inputs:varname = "st"
                float2 outputs:result
            }

            def Shader "Image_Texture_001"
            {
                uniform token info:id = "UsdUVTexture"
                token inputs:sourceColorSpace = "raw"
                float2 inputs:st.connect = </root/_materials/MI_WoodTrim/uvmap.outputs:result>
                token inputs:wrapS = "repeat"
                token inputs:wrapT = "repeat"
                float outputs:r
            }

            def Shader "Image_Texture_002"
            {
                uniform token info:id = "UsdUVTexture"
                float4 inputs:bias = (-1, -1, -1, -1)
                float4 inputs:scale = (2, 2, 2, 2)
                token inputs:sourceColorSpace = "raw"
                float2 inputs:st.connect = </root/_materials/MI_WoodTrim/uvmap.outputs:result>
                token inputs:wrapS = "repeat"
                token inputs:wrapT = "repeat"
                float3 outputs:rgb
            }
        }
    }
}

