#usda 1.0
(
    defaultPrim = "root"
    doc = "Blender v5.1.2"
    metersPerUnit = 1
    upAxis = "Y"
)

def Xform "root" (
    customData = {
        dictionary Blender = {
            bool generated = 1
        }
    }
)
{
    float3 xformOp:rotateXYZ = (-90, -0, 0)
    uniform token[] xformOpOrder = ["xformOp:rotateXYZ"]

    def Xform "Pipe_T"
    {
        custom string userProperties:blender:object_name = "Pipe_T"

        def Mesh "Cylinder_011" (
            active = true
            prepend apiSchemas = ["MaterialBindingAPI"]
        )
        {
            uniform bool doubleSided = 1
            float3[] extent = [(-0.8676809, -0.8676812, -1.0000002), (0.99999976, 0.86768144, 1.0000002)]
            int[] faceVertexCounts = [4, 4, 4, 4, 4, 4, 4, 4, 4, 4, 4, 4, 4, 4, 4, 4, 4, 4, 4, 4, 4, 4, 4, 5, 4, 4, 4, 4, 4, 4, 4, 4, 4, 4, 4, 4, 4, 5, 4, 4, 4, 4, 4, 4, 4, 4, 4, 4, 4, 4, 4, 5, 4, 4, 4, 4, 4, 4, 4, 4, 4, 4, 4, 4, 4, 5, 4, 4, 4, 4, 4, 4, 4, 4, 4, 4, 4, 4, 4, 4, 4, 4, 4, 4, 4, 4, 4, 4, 4, 4, 4, 4, 4, 4, 4, 4, 4, 4, 4, 4, 4, 4, 4, 4, 4, 4, 4, 4, 4, 4, 4, 4, 4, 4, 4, 5, 4, 4, 4, 4, 4, 4, 4, 4, 4, 4, 4, 4, 4, 5, 4, 4, 4, 4, 4, 4, 4, 4, 4, 4, 4, 4, 4, 5, 4, 4, 4, 4, 4, 4, 4, 4, 4, 4, 4, 4, 4, 5, 4, 4, 4, 4, 4, 4, 4, 4, 4, 4, 4, 4, 4, 4, 4, 4, 4, 4, 4, 4, 4, 4, 4, 4, 4, 4]
            int[] faceVertexIndices = [3, 19, 18, 2, 8, 23, 22, 7, 4, 47, 19, 3, 13, 26, 48, 12, 9, 24, 23, 8, 5, 20, 47, 4, 14, 27, 26, 13, 1, 16, 17, 0, 10, 25, 24, 9, 6, 21, 20, 5, 15, 28, 27, 14, 2, 18, 16, 1, 11, 49, 25, 10, 7, 22, 21, 6, 0, 17, 28, 15, 42, 43, 32, 31, 31, 32, 33, 30, 30, 33, 34, 29, 29, 34, 114, 107, 28, 35, 36, 27, 17, 38, 35, 28, 27, 36, 37, 26, 26, 37, 53, 48, 16, 182, 120, 38, 17, 35, 38, 120, 119, 35, 34, 33, 36, 43, 53, 37, 32, 36, 33, 32, 37, 34, 35, 119, 114, 42, 41, 44, 43, 41, 40, 45, 44, 40, 39, 46, 45, 39, 121, 130, 46, 24, 25, 51, 50, 23, 24, 50, 54, 25, 49, 52, 51, 49, 48, 53, 52, 22, 23, 54, 140, 185, 50, 139, 140, 54, 50, 51, 45, 46, 43, 44, 52, 53, 51, 52, 44, 45, 46, 130, 139, 50, 68, 57, 58, 69, 57, 56, 59, 58, 56, 55, 60, 59, 55, 141, 148, 60, 15, 14, 62, 61, 0, 15, 61, 64, 14, 13, 63, 62, 13, 12, 76, 63, 1, 0, 64, 154, 172, 61, 153, 154, 64, 61, 62, 59, 60, 69, 58, 63, 76, 62, 63, 58, 59, 60, 148, 153, 61, 68, 69, 70, 67, 67, 70, 71, 66, 66, 71, 72, 65, 65, 72, 164, 155, 9, 73, 74, 10, 8, 77, 73, 9, 10, 74, 75, 11, 11, 75, 76, 12, 7, 177, 171, 77, 8, 73, 77, 171, 170, 73, 72, 71, 74, 69, 76, 75, 70, 74, 71, 70, 75, 72, 73, 170, 164, 29, 107, 141, 55, 30, 29, 55, 56, 31, 30, 56, 57, 42, 31, 57, 68, 121, 39, 65, 155, 39, 40, 66, 65, 40, 41, 67, 66, 41, 42, 68, 67, 48, 49, 11, 12, 6, 175, 177, 7, 5, 176, 175, 6, 4, 178, 176, 5, 2, 1, 172, 173, 3, 2, 173, 174, 4, 3, 174, 178, 21, 22, 185, 184, 20, 21, 184, 183, 47, 20, 183, 179, 18, 181, 182, 16, 19, 180, 181, 18, 47, 179, 180, 19, 81, 80, 96, 97, 86, 85, 100, 101, 82, 81, 97, 131, 91, 90, 132, 104, 87, 86, 101, 102, 83, 82, 131, 98, 92, 91, 104, 105, 79, 78, 95, 94, 88, 87, 102, 103, 84, 83, 98, 99, 93, 92, 105, 106, 80, 79, 94, 96, 89, 88, 103, 133, 85, 84, 99, 100, 78, 93, 106, 95, 125, 110, 111, 126, 110, 109, 112, 111, 109, 108, 113, 112, 108, 107, 114, 113, 106, 105, 116, 115, 95, 106, 115, 118, 105, 104, 117, 116, 104, 132, 137, 117, 94, 95, 118, 120, 182, 115, 119, 120, 118, 115, 116, 112, 113, 126, 111, 117, 137, 116, 117, 111, 112, 113, 114, 119, 115, 125, 126, 127, 124, 124, 127, 128, 123, 123, 128, 129, 122, 122, 129, 130, 121, 102, 134, 135, 103, 101, 138, 134, 102, 103, 135, 136, 133, 133, 136, 137, 132, 100, 185, 140, 138, 101, 134, 138, 140, 139, 134, 129, 128, 135, 126, 137, 136, 127, 135, 128, 127, 136, 129, 134, 139, 130, 159, 160, 145, 144, 144, 145, 146, 143, 143, 146, 147, 142, 142, 147, 148, 141, 93, 149, 150, 92, 78, 152, 149, 93, 92, 150, 151, 91, 91, 151, 168, 90, 79, 172, 154, 152, 78, 149, 152, 154, 153, 149, 147, 146, 150, 160, 168, 151, 145, 150, 146, 145, 151, 147, 149, 153, 148, 159, 158, 161, 160, 158, 157, 162, 161, 157, 156, 163, 162, 156, 155, 164, 163, 87, 88, 166, 165, 86, 87, 165, 169, 88, 89, 167, 166, 89, 90, 168, 167, 85, 86, 169, 171, 177, 165, 170, 171, 169, 165, 166, 162, 163, 160, 161, 167, 168, 166, 167, 161, 162, 163, 164, 170, 165, 108, 142, 141, 107, 109, 143, 142, 108, 110, 144, 143, 109, 125, 159, 144, 110, 121, 155, 156, 122, 122, 156, 157, 123, 123, 157, 158, 124, 124, 158, 159, 125, 132, 90, 89, 133, 84, 85, 177, 175, 83, 84, 175, 176, 82, 83, 176, 178, 80, 173, 172, 79, 81, 174, 173, 80, 82, 178, 174, 81, 99, 184, 185, 100, 98, 183, 184, 99, 131, 179, 183, 98, 96, 94, 182, 181, 97, 96, 181, 180, 131, 97, 180, 179]
            rel material:binding = </root/_materials/Pipe>
            normal3f[] normals = [(0.0000018472564, -0.0000010300212, 1), (0.0000018472557, -0.0000010300208, 1), (-4.736585e-7, -3.0343986e-7, 1), (-4.736585e-7, -3.0343972e-7, 1), (4.1357133e-13, -7.415751e-8, 1), (2.2516826e-13, -7.415751e-8, 1), (9.473179e-8, 2.1333284e-7, 1), (9.4731945e-8, 2.1333265e-7, 1), (0.00000372036, -1.4061428e-12, 1), (0.0000037203583, 5.339716e-12, 1), (0.0000018472557, -0.0000010300208, 1), (0.0000018472564, -0.0000010300212, 1), (-0.0000015053581, -9.770016e-7, 1), (-0.0000015053539, -9.769996e-7, 1), (-0.000005152558, -3.2785263e-7, 1), (-0.000005152553, -3.2785692e-7, 1), (4.1357143e-14, -3.707874e-8, 1), (3.5383594e-13, -3.707871e-8, 1), (2.2516826e-13, -7.415751e-8, 1), (4.1357133e-13, -7.415751e-8, 1), (0.0000013520815, 0.0000010300232, 1), (0.000001352082, 0.0000010300234, 1), (0.0000037203583, 5.339716e-12, 1), (0.00000372036, -1.4061428e-12, 1), (3.3156115e-7, 0, 1), (3.315615e-7, 0, 1), (-0.0000015053539, -9.769996e-7, 1), (-0.0000015053581, -9.770016e-7, 1), (0, -2.1333278e-7, 1), (-2.8950206e-13, -2.1333304e-7, 1), (-5.307538e-13, 7.415765e-8, 1), (-1.6542856e-13, 7.415764e-8, 1), (-8.5259e-7, 0.0000014774062, 1), (-8.525886e-7, 0.0000014774045, 1), (3.5383594e-13, -3.707871e-8, 1), (4.1357143e-14, -3.707874e-8, 1), (-3.315608e-7, 3.034397e-7, 1), (-3.3156078e-7, 3.034397e-7, 1), (0.000001352082, 0.0000010300234, 1), (0.0000013520815, 0.0000010300232, 1), (-9.473192e-8, 3.70788e-8, 1), (-9.4732165e-8, 3.707883e-8, 1), (3.315615e-7, 0, 1), (3.3156115e-7, 0, 1), (-4.736585e-7, -3.0343972e-7, 1), (-4.736585e-7, -3.0343986e-7, 1), (-2.8950206e-13, -2.1333304e-7, 1), (0, -2.1333278e-7, 1), (-0.000004452425, 0.0000021265535, 1), (-0.000004452421, 0.0000021265548, 1), (-8.525886e-7, 0.0000014774045, 1), (-8.5259e-7, 0.0000014774062, 1), (9.4731945e-8, 2.1333265e-7, 1), (9.473179e-8, 2.1333284e-7, 1), (-3.3156078e-7, 3.034397e-7, 1), (-3.315608e-7, 3.034397e-7, 1), (-1.6542856e-13, 7.415764e-8, 1), (-5.307538e-13, 7.415765e-8, 1), (-9.4732165e-8, 3.707883e-8, 1), (-9.473192e-8, 3.70788e-8, 1), (6.7804115e-7, 3.095111e-7, -1), (6.780411e-7, 3.1304208e-7, -1), (5.4400806e-7, -0.42052343, -0.9072817), (5.18426e-7, -0.38268262, -0.9238798), (5.18426e-7, -0.38268262, -0.9238798), (5.4400806e-7, -0.42052343, -0.9072817), (-0.22868916, -0.8029018, -0.5504997), (4.7469126e-7, -0.70710623, -0.7071074), (4.7469126e-7, -0.70710623, -0.7071074), (-0.22868916, -0.8029018, -0.5504997), (-0.09548567, -0.9652201, -0.24337748), (1.4808941e-7, -0.92387944, -0.38268366), (1.4808941e-7, -0.92387944, -0.38268366), (-0.09548567, -0.9652201, -0.24337748), (-0.030520825, -0.99953413, 0), (-9.472762e-9, -1, 0), (-0.3826825, -0.9238799, -7.0470713e-7), (-0.279127, -0.95565987, -0.09382059), (-0.57221395, -0.79437184, -0.20382479), (-0.70710605, -0.7071075, -0.0000018814262), (1.9344441e-7, -1, 6.3205015e-8), (-5.3197205e-8, -1, 4.699978e-8), (-0.279127, -0.95565987, -0.09382059), (-0.3826825, -0.9238799, -7.0470713e-7), (-0.70710605, -0.7071075, -0.0000018814262), (-0.57221395, -0.79437184, -0.20382479), (-0.9085785, -0.4177141, -0.000002648563), (-0.9238788, -0.38268518, -0.000002673047), (-0.9238788, -0.38268518, -0.000002673047), (-0.9085785, -0.4177141, -0.000002648563), (-1, -0.0000011445978, -0.0000016204178), (-1, -0.0000013154213, -0.0000016204189), (0.3826834, -0.92387956, 4.567977e-7), (0.38268316, -0.9238796, 4.7140385e-9), (-3.8688885e-8, -1, 2.1135846e-9), (-5.3197205e-8, -1, 4.699978e-8), (1.9344441e-7, -1, 6.3205015e-8), (-0.279127, -0.95565987, -0.09382059), (-5.3197205e-8, -1, 4.699978e-8), (-3.8688885e-8, -1, 2.1135846e-9), (-0.14837216, -0.9889316, -2.3728202e-9), (-0.279127, -0.95565987, -0.09382059), (-0.09548567, -0.9652201, -0.24337748), (-0.22868916, -0.8029018, -0.5504997), (-0.57221395, -0.79437184, -0.20382479), (-0.6376935, -0.28119433, -0.7171309), (-0.6376935, -0.28119433, -0.7171309), (-0.59636354, -0.49249712, -0.63387465), (-0.59790796, -0.48709834, -0.63658565), (-0.57221395, -0.79437184, -0.20382479), (-0.22868916, -0.8029018, -0.5504997), (-0.59790796, -0.48709834, -0.63658565), (-0.59636354, -0.49249712, -0.63387465), (-0.09548567, -0.9652201, -0.24337748), (-0.279127, -0.95565987, -0.09382059), (-0.14837216, -0.9889316, -2.3728202e-9), (-0.030520825, -0.99953413, 0), (6.7804115e-7, 3.095111e-7, -1), (7.2287946e-7, 0.38268307, -0.9238797), (6.7239955e-7, 0.42052397, -0.90728146), (6.780411e-7, 3.1304208e-7, -1), (7.2287946e-7, 0.38268307, -0.9238797), (2.6687005e-7, 0.70710665, -0.7071069), (-0.22868949, 0.80290216, -0.550499), (6.7239955e-7, 0.42052397, -0.90728146), (2.6687005e-7, 0.70710665, -0.7071069), (-7.399317e-8, 0.9238796, -0.38268307), (-0.09548602, 0.9652202, -0.2433768), (-0.22868949, 0.80290216, -0.550499), (-7.399317e-8, 0.9238796, -0.38268307), (-1.9892828e-7, 1, 4.8361105e-8), (-0.030521236, 0.99953413, 1.4421172e-8), (-0.09548602, 0.9652202, -0.2433768), (-0.38268277, 0.9238798, -0.0000014956586), (-0.70710534, 0.7071082, -0.0000020363423), (-0.5722137, 0.79437214, -0.2038245), (-0.2791272, 0.9556598, -0.09382046), (4.3524986e-7, 1, -2.5657184e-7), (-0.38268277, 0.9238798, -0.0000014956586), (-0.2791272, 0.9556598, -0.09382046), (9.672221e-8, 1, 3.4691027e-8), (-0.70710534, 0.7071082, -0.0000020363423), (-0.923879, 0.3826846, -0.0000012330444), (-0.90857834, 0.41771448, -0.0000013824953), (-0.5722137, 0.79437214, -0.2038245), (-0.923879, 0.3826846, -0.0000012330444), (-1, -0.0000013154213, -0.0000016204189), (-1, -0.0000011445978, -0.0000016204178), (-0.90857834, 0.41771448, -0.0000013824953), (0.38268375, 0.92387944, 5.7894886e-7), (4.3524986e-7, 1, -2.5657184e-7), (9.672221e-8, 1, 3.4691027e-8), (7.737778e-8, 1, 8.350771e-9), (0.38268355, 0.92387944, 1.0579122e-8), (-0.2791272, 0.9556598, -0.09382046), (-0.14837272, 0.9889315, 1.9864734e-9), (7.737778e-8, 1, 8.350771e-9), (9.672221e-8, 1, 3.4691027e-8), (-0.2791272, 0.9556598, -0.09382046), (-0.5722137, 0.79437214, -0.2038245), (-0.22868949, 0.80290216, -0.550499), (-0.09548602, 0.9652202, -0.2433768), (-0.6376937, 0.28119475, -0.71713066), (-0.59790814, 0.4870986, -0.63658535), (-0.5963637, 0.49249732, -0.6338744), (-0.6376937, 0.28119475, -0.71713066), (-0.5722137, 0.79437214, -0.2038245), (-0.5963637, 0.49249732, -0.6338744), (-0.59790814, 0.4870986, -0.63658535), (-0.22868949, 0.80290216, -0.550499), (-0.09548602, 0.9652202, -0.2433768), (-0.030521236, 0.99953413, 1.4421172e-8), (-0.14837272, 0.9889315, 1.9864734e-9), (-0.2791272, 0.9556598, -0.09382046), (-0.046946857, 3.3075153e-7, 0.9988974), (-0.035555445, 0.37558806, 0.9261045), (-0.032136098, 0.42747095, 0.90345776), (-0.046946853, 0.00022191556, 0.9988973), (-0.035555445, 0.37558806, 0.9261045), (-0.014973566, 0.7045094, 0.70953673), (-0.011650062, 0.75797004, 0.6521853), (-0.032136098, 0.42747095, 0.90345776), (-0.014973566, 0.7045094, 0.70953673), (-0.0025982703, 0.92388904, 0.38265184), (-0.0011096799, 0.95091325, 0.30945566), (-0.011650062, 0.75797004, 0.6521853), (-0.0025982703, 0.92388904, 0.38265184), (0.001233882, 0.9999992, -2.900052e-8), (0.0012338822, 0.9999993, -2.5987388e-8), (-0.0011096799, 0.95091325, 0.30945566), (0.3841753, 0.9232298, -0.0074921576), (0.7122417, 0.70154154, -0.023479579), (0.66697526, 0.7421675, 0.06581379), (0.28939372, 0.95423627, 0.075394906), (0.00095990935, 0.9999956, -0.0028145702), (0.3841753, 0.9232298, -0.0074921576), (0.28939372, 0.95423627, 0.075394906), (-0.0019169248, 0.99999815, -0.00008605142), (0.7122417, 0.70154154, -0.023479579), (0.9271155, 0.36996657, -0.0598465), (0.91981006, 0.39232808, -0.0052867625), (0.66697526, 0.7421675, 0.06581379), (0.9271155, 0.36996657, -0.0598465), (0.9967328, 0.00041107988, -0.08076766), (0.99934, -0.001169781, -0.036306977), (0.91981006, 0.39232808, -0.0052867625), (-0.38108942, 0.92453647, -0.0017840456), (0.00095990935, 0.9999956, -0.0028145702), (-0.0019169248, 0.99999815, -0.00008605142), (-0.0041156346, 0.9999915, 8.6771573e-10), (-0.38108948, 0.92453825, -2.2673068e-10), (0.28939372, 0.95423627, 0.075394906), (0.13857993, 0.99035126, 1.7796267e-9), (-0.0041156346, 0.9999915, 8.6771573e-10), (-0.0019169248, 0.99999815, -0.00008605142), (0.28939372, 0.95423627, 0.075394906), (0.66697526, 0.7421675, 0.06581379), (0.570935, 0.8022871, 0.17426609), (0.17811723, 0.9716582, 0.15541784), (0.99977577, -0.0038045084, 0.020832902), (0.8856702, 0.45577848, 0.08862509), (0.91981006, 0.39232808, -0.0052867625), (0.99934, -0.001169781, -0.036306977), (0.66697526, 0.7421675, 0.06581379), (0.91981006, 0.39232808, -0.0052867625), (0.8856702, 0.45577848, 0.08862509), (0.570935, 0.8022871, 0.17426609), (0.17811723, 0.9716582, 0.15541784), (0.03999452, 0.9991999, 0), (0.13857993, 0.99035126, 1.7796267e-9), (0.28939372, 0.95423627, 0.075394906), (-0.046946857, 3.3075153e-7, 0.9988974), (-0.046946853, 0.00022191556, 0.9988973), (-0.032151897, -0.42733884, 0.90351963), (-0.03556047, -0.37558138, 0.9261069), (-0.03556047, -0.37558138, 0.9261069), (-0.032151897, -0.42733884, 0.90351963), (-0.011642594, -0.7581469, 0.6519798), (-0.0149806915, -0.7045045, 0.7095413), (-0.0149806915, -0.7045045, 0.7095413), (-0.011642594, -0.7581469, 0.6519798), (-0.0011114514, -0.9509121, 0.30945912), (-0.0025994687, -0.92388815, 0.3826539), (-0.0025994687, -0.92388815, 0.3826539), (-0.0011114514, -0.9509121, 0.30945912), (0.0012311955, -0.9999993, -3.248426e-8), (0.0012311955, -0.9999992, -2.9000564e-8), (0.38358444, -0.92347866, -0.007082536), (0.28463736, -0.9546523, 0.087295115), (0.6088142, -0.7813714, 0.13712732), (0.7118475, -0.7019923, -0.021908997), (0.00095963856, -0.9999956, -0.0028142768), (-0.0019178976, -0.99999815, -0.00008613102), (0.28463736, -0.9546523, 0.087295115), (0.38358444, -0.92347866, -0.007082536), (0.7118475, -0.7019923, -0.021908997), (0.6088142, -0.7813714, 0.13712732), (0.9111716, -0.4106463, 0.03370225), (0.927446, -0.36958048, -0.057044875), (0.927446, -0.36958048, -0.057044875), (0.9111716, -0.4106463, 0.03370225), (0.99934, -0.001169781, -0.036306977), (0.9967328, 0.00041107988, -0.08076766), (-0.38108972, -0.92453635, -0.0017841889), (-0.38108978, -0.9245381, 6.8774972e-9), (-0.0041156537, -0.9999916, 1.0563496e-9), (-0.0019178976, -0.99999815, -0.00008613102), (0.00095963856, -0.9999956, -0.0028142768), (0.28463736, -0.9546523, 0.087295115), (-0.0019178976, -0.99999815, -0.00008613102), (-0.0041156537, -0.9999916, 1.0563496e-9), (0.13858053, -0.9903512, 0), (0.28463736, -0.9546523, 0.087295115), (0.16725364, -0.97005874, 0.17610297), (0.54177016, -0.7931185, 0.27829516), (0.6088142, -0.7813714, 0.13712732), (0.99977577, -0.0038045084, 0.020832902), (0.99934, -0.001169781, -0.036306977), (0.9111716, -0.4106463, 0.03370225), (0.975777, -0.21557806, 0.03722065), (0.6088142, -0.7813714, 0.13712732), (0.54177016, -0.7931185, 0.27829516), (0.69339865, -0.6529055, 0.30481574), (0.9111716, -0.4106463, 0.03370225), (0.16725364, -0.97005874, 0.17610297), (0.28463736, -0.9546523, 0.087295115), (0.13858053, -0.9903512, 0), (0.039995175, -0.99919987, 0), (1, 0, 1.0710645e-7), (1, 0, 0), (1, 0, 0), (1, 0, 1.07106125e-7), (1, 0, 2.034549e-7), (1, 0, 1.0710645e-7), (1, 0, 1.07106125e-7), (1, 0, 2.0345492e-7), (1, 9.7064984e-8, 2.0627324e-7), (1, 0, 2.034549e-7), (1, 0, 2.0345492e-7), (1, 9.70656e-8, 2.0627333e-7), (1, 1.9413014e-7, 1.2849671e-7), (1, 9.7064984e-8, 2.0627324e-7), (1, 9.70656e-8, 2.0627333e-7), (1, 1.9413012e-7, 1.2849672e-7), (1, -6.3092256e-7, 0), (1, -3.8825962e-7, 7.915507e-8), (1, -3.8826215e-7, 7.915454e-8), (1, -6.3092256e-7, 0), (1, -3.8825962e-7, 7.915507e-8), (1, 0, 2.6265457e-8), (1, 0, 2.6265447e-8), (1, -3.8826215e-7, 7.915454e-8), (1, 0, 2.6265457e-8), (1, 9.7064984e-8, -3.4317555e-8), (1, 9.706558e-8, -3.4317118e-8), (1, 0, 2.6265447e-8), (1, 9.7064984e-8, -3.4317555e-8), (1, 1.9413014e-7, 1.2849671e-7), (1, 1.9413012e-7, 1.2849672e-7), (1, 9.706558e-8, -3.4317118e-8), (-0.000005152558, -3.2785263e-7, 1), (-0.000004452421, 0.0000021265548, 1), (-0.000004452425, 0.0000021265535, 1), (-0.000005152553, -3.2785692e-7, 1), (-0.70710605, -0.7071061, -0.0014276821), (-0.70710665, -0.70710695, 2.6820577e-9), (-0.38108978, -0.9245381, 6.8774972e-9), (-0.38108972, -0.92453635, -0.0017841889), (-0.92387795, -0.38268462, -0.0014273461), (-0.92387897, -0.38268504, -2.7198332e-9), (-0.70710665, -0.70710695, 2.6820577e-9), (-0.70710605, -0.7071061, -0.0014276821), (-0.999999, -1.1608726e-7, -0.0014268619), (-1, -8.7034735e-8, 3.777549e-11), (-0.92387897, -0.38268504, -2.7198332e-9), (-0.92387795, -0.38268462, -0.0014273461), (-0.70710623, 0.70710593, -0.001427519), (-0.38108942, 0.92453647, -0.0017840456), (-0.38108948, 0.92453825, -2.2673068e-10), (-0.7071068, 0.70710677, 2.039875e-9), (-0.9238781, 0.38268426, -0.0014272631), (-0.70710623, 0.70710593, -0.001427519), (-0.7071068, 0.70710677, 2.039875e-9), (-0.923879, 0.3826847, 2.870935e-9), (-0.999999, -1.1608726e-7, -0.0014268619), (-0.9238781, 0.38268426, -0.0014272631), (-0.923879, 0.3826847, 2.870935e-9), (-1, -8.7034735e-8, 3.777549e-11), (0.7071069, 0.70710665, 8.2894996e-7), (0.38268375, 0.92387944, 5.7894886e-7), (0.38268355, 0.92387944, 1.0579122e-8), (0.70710677, 0.70710677, 2.388852e-9), (0.92387986, 0.38268247, 7.9441116e-7), (0.7071069, 0.70710665, 8.2894996e-7), (0.70710677, 0.70710677, 2.388852e-9), (0.92388, 0.38268238, -7.994757e-10), (1, 4.255768e-7, 6.345357e-7), (0.92387986, 0.38268247, 7.9441116e-7), (0.92388, 0.38268238, -7.994757e-10), (1, 3.5787204e-7, 1.2913803e-13), (0.70710695, -0.7071066, 6.866586e-7), (0.7071069, -0.70710665, 1.2229838e-9), (0.38268316, -0.9238796, 4.7140385e-9), (0.3826834, -0.92387956, 4.567977e-7), (0.9238801, -0.38268194, 6.9488976e-7), (0.9238802, -0.38268188, -4.1807546e-10), (0.7071069, -0.70710665, 1.2229838e-9), (0.70710695, -0.7071066, 6.866586e-7), (1, 4.255768e-7, 6.345357e-7), (1, 3.5787204e-7, 1.2913803e-13), (0.9238802, -0.38268188, -4.1807546e-10), (0.9238801, -0.38268194, 6.9488976e-7), (0.0000018946215, -0.0000010300212, -1), (-5.683902e-7, -3.0343972e-7, -1), (-5.683902e-7, -3.0343986e-7, -1), (0.0000018946206, -0.0000010300208, -1), (4.1357133e-13, -7.415752e-8, -1), (3.3085711e-13, 2.1333265e-7, -1), (1.12584116e-13, 2.1333283e-7, -1), (2.412517e-13, -7.415752e-8, -1), (0.000003789247, -1.3234285e-12, -1), (0.0000018946215, -0.0000010300212, -1), (0.0000018946206, -0.0000010300208, -1), (0.0000037892446, 5.468384e-12, -1), (-0.0000017051758, -9.770016e-7, -1), (-0.000005399738, -3.2785675e-7, -1), (-0.0000053997414, -3.2785258e-7, -1), (-0.0000017051715, -9.769996e-7, -1), (4.1357143e-14, -3.707874e-8, -1), (4.1357133e-13, -7.415752e-8, -1), (2.412517e-13, -7.415752e-8, -1), (3.5383594e-13, -3.7078713e-8, -1), (0.0000013262373, 0.0000010300233, -1), (0.000003789247, -1.3234285e-12, -1), (0.0000037892446, 5.468384e-12, -1), (0.0000013262378, 0.0000010300236, -1), (3.7892718e-7, 0, -1), (-0.0000017051758, -9.770016e-7, -1), (-0.0000017051715, -9.769996e-7, -1), (3.7892718e-7, 0, -1), (2.0678568e-14, -2.1333278e-7, -1), (-1.6542856e-13, 7.415765e-8, -1), (-5.307538e-13, 7.415765e-8, -1), (-2.734186e-13, -2.1333304e-7, -1), (-7.5785755e-7, 0.0000014774058, -1), (4.1357143e-14, -3.707874e-8, -1), (3.5383594e-13, -3.7078713e-8, -1), (-7.5785636e-7, 0.0000014774042, -1), (-3.7892661e-7, 3.034397e-7, -1), (0.0000013262373, 0.0000010300233, -1), (0.0000013262378, 0.0000010300236, -1), (-3.7892667e-7, 3.034397e-7, -1), (-1.6542858e-13, 3.7078802e-8, -1), (3.7892718e-7, 0, -1), (3.7892718e-7, 0, -1), (-4.98587e-13, 3.7078834e-8, -1), (-5.683902e-7, -3.0343972e-7, -1), (2.0678568e-14, -2.1333278e-7, -1), (-2.734186e-13, -2.1333304e-7, -1), (-5.683902e-7, -3.0343986e-7, -1), (-0.000004452425, 0.000002126553, -1), (-7.5785755e-7, 0.0000014774058, -1), (-7.5785636e-7, 0.0000014774042, -1), (-0.00000445242, 0.0000021265546, -1), (3.3085711e-13, 2.1333265e-7, -1), (-3.7892661e-7, 3.034397e-7, -1), (-3.7892667e-7, 3.034397e-7, -1), (1.12584116e-13, 2.1333283e-7, -1), (-1.6542856e-13, 7.415765e-8, -1), (-1.6542858e-13, 3.7078802e-8, -1), (-4.98587e-13, 3.7078834e-8, -1), (-5.307538e-13, 7.415765e-8, -1), (7.343889e-7, 3.095111e-7, 1), (5.626055e-7, -0.38268262, 0.9238798), (5.7897415e-7, -0.42052343, 0.9072817), (7.343889e-7, 3.1304208e-7, 1), (5.626055e-7, -0.38268262, 0.9238798), (4.7469118e-7, -0.70710623, 0.70710725), (-0.22868916, -0.8029018, 0.5504997), (5.7897415e-7, -0.42052343, 0.9072817), (4.7469118e-7, -0.70710623, 0.70710725), (1.4808943e-7, -0.92387944, 0.38268366), (-0.095485695, -0.9652201, 0.24337748), (-0.22868916, -0.8029018, 0.5504997), (1.4808943e-7, -0.92387944, 0.38268366), (-9.472762e-9, -1, 0), (-0.030520825, -0.99953413, 0), (-0.095485695, -0.9652201, 0.24337748), (-0.3826825, -0.9238799, 6.804083e-7), (-0.707106, -0.70710754, 0.0000018854415), (-0.572214, -0.79437184, 0.2038248), (-0.27912703, -0.95565987, 0.09382059), (1.9344441e-7, -1, -7.2967836e-8), (-0.3826825, -0.9238799, 6.804083e-7), (-0.27912703, -0.95565987, 0.09382059), (-5.8033315e-8, -1, -4.8407216e-8), (-0.707106, -0.70710754, 0.0000018854415), (-0.9238788, -0.38268527, 0.000002685118), (-0.9085785, -0.41771415, 0.0000026629446), (-0.572214, -0.79437184, 0.2038248), (-0.9238788, -0.38268527, 0.000002685118), (-1, -0.0000013057492, 0.0000016204191), (-1, -0.0000011273859, 0.000001620418), (-0.9085785, -0.41771415, 0.0000026629446), (0.3826834, -0.92387956, -4.4736964e-7), (1.9344441e-7, -1, -7.2967836e-8), (-5.8033315e-8, -1, -4.8407216e-8), (-3.8688885e-8, -1, 2.1135846e-9), (0.38268316, -0.9238796, 4.7140385e-9), (-0.27912703, -0.95565987, 0.09382059), (-0.14837216, -0.9889316, -2.3728202e-9), (-3.8688885e-8, -1, 2.1135846e-9), (-5.8033315e-8, -1, -4.8407216e-8), (-0.27912703, -0.95565987, 0.09382059), (-0.572214, -0.79437184, 0.2038248), (-0.22868916, -0.8029018, 0.5504997), (-0.095485695, -0.9652201, 0.24337748), (-0.6376935, -0.2811943, 0.71713084), (-0.59790796, -0.48709834, 0.63658565), (-0.5963635, -0.49249712, 0.63387465), (-0.6376935, -0.2811943, 0.71713084), (-0.572214, -0.79437184, 0.2038248), (-0.5963635, -0.49249712, 0.63387465), (-0.59790796, -0.48709834, 0.63658565), (-0.22868916, -0.8029018, 0.5504997), (-0.095485695, -0.9652201, 0.24337748), (-0.030520825, -0.99953413, 0), (-0.14837216, -0.9889316, -2.3728202e-9), (-0.27912703, -0.95565987, 0.09382059), (7.343889e-7, 3.095111e-7, 1), (7.343889e-7, 3.1304208e-7, 1), (7.000071e-7, 0.42052397, 0.90728146), (7.4994364e-7, 0.38268307, 0.9238797), (7.4994364e-7, 0.38268307, 0.9238797), (7.000071e-7, 0.42052397, 0.90728146), (-0.2286895, 0.8029022, 0.550499), (2.6979308e-7, 0.70710677, 0.7071069), (2.6979308e-7, 0.70710677, 0.7071069), (-0.2286895, 0.8029022, 0.550499), (-0.09548602, 0.9652202, 0.24337682), (-8.596604e-8, 0.9238797, 0.38268322), (-8.596604e-8, 0.9238797, 0.38268322), (-0.09548602, 0.9652202, 0.24337682), (-0.030521236, 0.99953413, 1.4421172e-8), (-1.9892828e-7, 1, 4.8361105e-8), (-0.38268274, 0.9238798, 0.0000015138256), (-0.27912718, 0.9556598, 0.09382044), (-0.5722137, 0.79437214, 0.20382449), (-0.70710534, 0.7071082, 0.0000020583354), (4.4492208e-7, 1, 2.8614068e-7), (1.01558314e-7, 1, -1.2807075e-8), (-0.27912718, 0.9556598, 0.09382044), (-0.38268274, 0.9238798, 0.0000015138256), (-0.70710534, 0.7071082, 0.0000020583354), (-0.5722137, 0.79437214, 0.20382449), (-0.9085783, 0.41771448, 0.0000014050703), (-0.923879, 0.38268462, 0.0000012519927), (-0.923879, 0.38268462, 0.0000012519927), (-0.9085783, 0.41771448, 0.0000014050703), (-1, -0.0000011273859, 0.000001620418), (-1, -0.0000013057492, 0.0000016204191), (0.38268375, 0.92387944, -5.577906e-7), (0.38268355, 0.92387944, 1.0579122e-8), (7.737778e-8, 1, 8.350771e-9), (1.01558314e-7, 1, -1.2807075e-8), (4.4492208e-7, 1, 2.8614068e-7), (-0.27912718, 0.9556598, 0.09382044), (1.01558314e-7, 1, -1.2807075e-8), (7.737778e-8, 1, 8.350771e-9), (-0.14837272, 0.9889315, 1.9864734e-9), (-0.27912718, 0.9556598, 0.09382044), (-0.09548602, 0.9652202, 0.24337682), (-0.2286895, 0.8029022, 0.550499), (-0.5722137, 0.79437214, 0.20382449), (-0.6376937, 0.28119475, 0.71713066), (-0.6376937, 0.28119475, 0.71713066), (-0.5963637, 0.49249732, 0.6338744), (-0.59790814, 0.4870986, 0.6365853), (-0.5722137, 0.79437214, 0.20382449), (-0.2286895, 0.8029022, 0.550499), (-0.59790814, 0.4870986, 0.6365853), (-0.5963637, 0.49249732, 0.6338744), (-0.09548602, 0.9652202, 0.24337682), (-0.27912718, 0.9556598, 0.09382044), (-0.14837272, 0.9889315, 1.9864734e-9), (-0.030521236, 0.99953413, 1.4421172e-8), (-0.046946898, 3.1129554e-7, -0.9988974), (-0.0469469, 0.0002218901, -0.9988973), (-0.03213617, 0.42747095, -0.90345776), (-0.035555545, 0.37558806, -0.9261045), (-0.035555545, 0.37558806, -0.9261045), (-0.03213617, 0.42747095, -0.90345776), (-0.01165007, 0.75797004, -0.6521853), (-0.014973575, 0.70450944, -0.7095367), (-0.014973575, 0.70450944, -0.7095367), (-0.01165007, 0.75797004, -0.6521853), (-0.0011096816, 0.95091325, -0.30945566), (-0.0025982726, 0.92388904, -0.38265184), (-0.0025982726, 0.92388904, -0.38265184), (-0.0011096816, 0.95091325, -0.30945566), (0.0012338822, 0.9999993, -2.5987388e-8), (0.001233882, 0.9999992, -2.900052e-8), (0.3841753, 0.9232298, 0.0074921944), (0.28939372, 0.95423627, -0.075394936), (0.6669753, 0.7421675, -0.06581377), (0.7122417, 0.70154154, 0.02347958), (0.00095990935, 0.9999956, 0.0028145942), (-0.0019169297, 0.99999815, 0.00008606222), (0.28939372, 0.95423627, -0.075394936), (0.3841753, 0.9232298, 0.0074921944), (0.7122417, 0.70154154, 0.02347958), (0.6669753, 0.7421675, -0.06581377), (0.91981006, 0.39232808, 0.005286778), (0.9271155, 0.36996657, 0.059846494), (0.9271155, 0.36996657, 0.059846494), (0.91981006, 0.39232808, 0.005286778), (0.99934, -0.0011698194, 0.03630698), (0.9967328, 0.00041108966, 0.08076767), (-0.38108942, 0.92453647, 0.0017840449), (-0.38108948, 0.92453825, -2.2673068e-10), (-0.0041156346, 0.9999915, 8.6771573e-10), (-0.0019169297, 0.99999815, 0.00008606222), (0.00095990935, 0.9999956, 0.0028145942), (0.28939372, 0.95423627, -0.075394936), (-0.0019169297, 0.99999815, 0.00008606222), (-0.0041156346, 0.9999915, 8.6771573e-10), (0.13857993, 0.99035126, 1.7796267e-9), (0.28939372, 0.95423627, -0.075394936), (0.17811723, 0.9716582, -0.1554179), (0.5709351, 0.80228704, -0.17426616), (0.6669753, 0.7421675, -0.06581377), (0.99977577, -0.0038046122, -0.020832894), (0.99934, -0.0011698194, 0.03630698), (0.91981006, 0.39232808, 0.005286778), (0.8856702, 0.45577836, -0.088625), (0.6669753, 0.7421675, -0.06581377), (0.5709351, 0.80228704, -0.17426616), (0.8856702, 0.45577836, -0.088625), (0.91981006, 0.39232808, 0.005286778), (0.17811723, 0.9716582, -0.1554179), (0.28939372, 0.95423627, -0.075394936), (0.13857993, 0.99035126, 1.7796267e-9), (0.03999452, 0.9991999, 0), (-0.046946898, 3.1129554e-7, -0.9988974), (-0.03556045, -0.37558138, -0.9261069), (-0.032151897, -0.42733887, -0.90351963), (-0.0469469, 0.0002218901, -0.9988973), (-0.03556045, -0.37558138, -0.9261069), (-0.014980719, -0.7045045, -0.7095413), (-0.011642611, -0.7581469, -0.6519798), (-0.032151897, -0.42733887, -0.90351963), (-0.014980719, -0.7045045, -0.7095413), (-0.0025994699, -0.92388815, -0.38265395), (-0.0011114522, -0.9509121, -0.30945915), (-0.011642611, -0.7581469, -0.6519798), (-0.0025994699, -0.92388815, -0.38265395), (0.0012311955, -0.9999992, -2.9000564e-8), (0.0012311955, -0.9999993, -3.248426e-8), (-0.0011114522, -0.9509121, -0.30945915), (0.38358444, -0.92347866, 0.0070825713), (0.7118476, -0.7019923, 0.021908985), (0.6088143, -0.7813715, -0.13712732), (0.28463733, -0.9546523, -0.08729514), (0.00095962884, -0.9999956, 0.002814313), (0.38358444, -0.92347866, 0.0070825713), (0.28463733, -0.9546523, -0.08729514), (-0.0019179023, -0.99999815, 0.00008614687), (0.7118476, -0.7019923, 0.021908985), (0.927446, -0.36958048, 0.057044867), (0.91117156, -0.41064638, -0.03370221), (0.6088143, -0.7813715, -0.13712732), (0.927446, -0.36958048, 0.057044867), (0.9967328, 0.00041108966, 0.08076767), (0.99934, -0.0011698194, 0.03630698), (0.91117156, -0.41064638, -0.03370221), (-0.38108972, -0.92453635, 0.0017842026), (0.00095962884, -0.9999956, 0.002814313), (-0.0019179023, -0.99999815, 0.00008614687), (-0.0041156537, -0.9999916, 1.0563496e-9), (-0.38108978, -0.9245381, 6.8774972e-9), (0.28463733, -0.9546523, -0.08729514), (0.13858053, -0.9903512, 0), (-0.0041156537, -0.9999916, 1.0563496e-9), (-0.0019179023, -0.99999815, 0.00008614687), (0.28463733, -0.9546523, -0.08729514), (0.6088143, -0.7813715, -0.13712732), (0.5417702, -0.7931184, -0.27829513), (0.16725364, -0.97005874, -0.17610303), (0.99977577, -0.0038046122, -0.020832894), (0.9757769, -0.21557835, -0.037220642), (0.91117156, -0.41064638, -0.03370221), (0.99934, -0.0011698194, 0.03630698), (0.6088143, -0.7813715, -0.13712732), (0.91117156, -0.41064638, -0.03370221), (0.6933988, -0.6529055, -0.30481547), (0.5417702, -0.7931184, -0.27829513), (0.16725364, -0.97005874, -0.17610303), (0.039995175, -0.99919987, 0), (0.13858053, -0.9903512, 0), (0.28463733, -0.9546523, -0.08729514), (1, -1.4560032e-7, -1.07106445e-7), (1, -1.4559987e-7, -1.0710611e-7), (1, 0, 0), (1, 0, 0), (1, -1.4560008e-7, -2.0345489e-7), (1, -1.456002e-7, -2.0345492e-7), (1, -1.4559987e-7, -1.0710611e-7), (1, -1.4560032e-7, -1.07106445e-7), (1, 9.706499e-8, -2.0627324e-7), (1, 9.7065616e-8, -2.0627333e-7), (1, -1.456002e-7, -2.0345492e-7), (1, -1.4560008e-7, -2.0345489e-7), (1, 1.9413014e-7, -1.2849672e-7), (1, 1.9413015e-7, -1.2849672e-7), (1, 9.7065616e-8, -2.0627333e-7), (1, 9.706499e-8, -2.0627324e-7), (1, -6.3092256e-7, 0), (1, -6.3092256e-7, 0), (1, -4.85316e-8, -7.915454e-8), (1, -4.8528733e-8, -7.915507e-8), (1, -4.8528733e-8, -7.915507e-8), (1, -4.85316e-8, -7.915454e-8), (1, 1.9413336e-7, -2.6265457e-8), (1, 1.9413338e-7, -2.6265464e-8), (1, 1.9413338e-7, -2.6265464e-8), (1, 1.9413336e-7, -2.6265457e-8), (1, 9.706559e-8, 3.4317107e-8), (1, 9.7065e-8, 3.4317544e-8), (1, 9.7065e-8, 3.4317544e-8), (1, 9.706559e-8, 3.4317107e-8), (1, 1.9413015e-7, -1.2849672e-7), (1, 1.9413014e-7, -1.2849672e-7), (-0.0000053997414, -3.2785258e-7, -1), (-0.000005399738, -3.2785675e-7, -1), (-0.000004452425, 0.000002126553, -1), (-0.00000445242, 0.0000021265546, -1), (-0.70710605, -0.7071061, 0.0014276876), (-0.38108972, -0.92453635, 0.0017842026), (-0.38108978, -0.9245381, 6.8774972e-9), (-0.70710665, -0.70710695, 2.6820577e-9), (-0.92387795, -0.38268462, 0.0014273408), (-0.70710605, -0.7071061, 0.0014276876), (-0.70710665, -0.70710695, 2.6820577e-9), (-0.92387897, -0.38268504, -2.7198332e-9), (-0.999999, -1.1608726e-7, 0.0014268619), (-0.92387795, -0.38268462, 0.0014273408), (-0.92387897, -0.38268504, -2.7198332e-9), (-1, -8.7034735e-8, 3.777549e-11), (-0.70710623, 0.70710593, 0.0014275232), (-0.7071068, 0.70710677, 2.039875e-9), (-0.38108948, 0.92453825, -2.2673068e-10), (-0.38108942, 0.92453647, 0.0017840449), (-0.9238781, 0.38268426, 0.0014272691), (-0.923879, 0.3826847, 2.870935e-9), (-0.7071068, 0.70710677, 2.039875e-9), (-0.70710623, 0.70710593, 0.0014275232), (-0.999999, -1.1608726e-7, 0.0014268619), (-1, -8.7034735e-8, 3.777549e-11), (-0.923879, 0.3826847, 2.870935e-9), (-0.9238781, 0.38268426, 0.0014272691), (0.7071069, 0.70710665, -8.241723e-7), (0.70710677, 0.70710677, 2.388852e-9), (0.38268355, 0.92387944, 1.0579122e-8), (0.38268375, 0.92387944, -5.577906e-7), (0.92387986, 0.38268247, -7.960101e-7), (0.92388, 0.38268238, -7.994757e-10), (0.70710677, 0.70710677, 2.388852e-9), (0.7071069, 0.70710665, -8.241723e-7), (1, 4.255768e-7, -6.3453547e-7), (1, 3.5787204e-7, 1.2913803e-13), (0.92388, 0.38268238, -7.994757e-10), (0.92387986, 0.38268247, -7.960101e-7), (0.70710695, -0.7071066, -6.8421264e-7), (0.3826834, -0.92387956, -4.4736964e-7), (0.38268316, -0.9238796, 4.7140385e-9), (0.7071069, -0.70710665, 1.2229838e-9), (0.9238801, -0.38268194, -6.95726e-7), (0.70710695, -0.7071066, -6.8421264e-7), (0.7071069, -0.70710665, 1.2229838e-9), (0.9238802, -0.38268188, -4.1807546e-10), (1, 4.255768e-7, -6.3453547e-7), (0.9238801, -0.38268194, -6.95726e-7), (0.9238802, -0.38268188, -4.1807546e-10), (1, 3.5787204e-7, 1.2913803e-13)] (
                interpolation = "faceVarying"
            )
            point3f[] points = [(4.1276977e-7, 0.86768144, 1.0000001), (-0.3320469, 0.80163306, 1.0000002), (-0.613543, 0.6135434, 1.0000002), (-0.80163264, 0.33204725, 1.0000002), (-0.8676809, -4.6052563e-8, 1.0000002), (-0.8016326, -0.3320473, 1.0000002), (-0.6135428, -0.61354333, 1.0000002), (-0.3320467, -0.801633, 1.0000002), (4.0751252e-7, -0.8676812, 1.0000001), (0.33204788, -0.80163294, 1.0000002), (0.61354387, -0.61354333, 1.0000002), (0.8016334, -0.33204716, 1.0000002), (0.86768174, 2.0612555e-7, 1.0000002), (0.80163336, 0.33204764, 1.0000002), (0.6135432, 0.6135437, 1.0000002), (0.3320472, 0.80163336, 1.0000002), (-0.2831209, 0.6835151, 1.0000002), (5.2918944e-7, 0.73983145, 1.0000001), (-0.5231393, 0.52313983, 1.0000001), (-0.6835144, 0.28312126, 1.0000002), (-0.68351436, -0.2831212, 1.0000002), (-0.5231392, -0.5231397, 1.0000001), (-0.2831207, -0.683515, 1.0000002), (4.4189292e-7, -0.7398312, 1.0000001), (0.28312182, -0.6835148, 1.0000002), (0.52314025, -0.5231397, 1.0000002), (0.6835153, 0.28312162, 1.0000002), (0.52314013, 0.52314013, 1.0000002), (0.28312108, 0.68351537, 1.0000002), (0.9999996, 0.6835149, 0.28312182), (0.9999996, 0.5231396, 0.52314043), (0.9999997, 0.283121, 0.6835153), (0.7483492, 0.28312096, 0.6835152), (0.59756577, 0.5231396, 0.5231401), (0.36926168, 0.6835149, 0.2831216), (0.2831225, 0.6835152, 0.42578375), (0.5231413, 0.5231399, 0.60198164), (0.6835165, 0.28312132, 0.74520266), (0.0000017844784, 0.73983127, 0.33476114), (0.99999976, -0.6835148, 0.28312135), (0.9999997, -0.5231396, 0.5231401), (0.99999976, -0.28312105, 0.6835152), (0.9999997, -6.444699e-8, 0.73983145), (0.81440073, -8.938383e-8, 0.7398313), (0.74834925, -0.28312114, 0.68351495), (0.5975659, -0.5231397, 0.52313983), (0.36926186, -0.6835149, 0.28312123), (-0.7398296, -3.681202e-7, 0.9999994), (0.7398328, -1.6931449e-7, 0.9999994), (0.6835165, -0.28312165, 0.9999994), (0.2831227, -0.6835153, 0.4257834), (0.5231415, -0.52314013, 0.6019813), (0.6835166, -0.28312156, 0.7452024), (0.73983294, -1.1613609e-7, 0.8021027), (0.0000019832844, -0.7398315, 0.33476067), (0.9999996, 0.7989969, 0.33095574), (0.9999995, 0.61152494, 0.6115258), (0.99999964, 0.3309549, 0.7989974), (0.7864439, 0.3430364, 0.78638923), (0.62615013, 0.62349963, 0.5919517), (0.38128594, 0.8041584, 0.3135333), (0.3180395, 0.8029608, 0.43751824), (0.59768736, 0.6204803, 0.6942272), (0.78975487, 0.33936405, 0.85979617), (0.0000017676836, 0.86483127, 0.33476114), (0.99999976, -0.7989968, 0.33095527), (0.9999997, -0.61152506, 0.61152554), (0.99999976, -0.33095503, 0.79899716), (0.9999997, -9.803671e-8, 0.86483145), (0.8619875, -1.1488031e-7, 0.85850656), (0.7879225, -0.34295297, 0.7864765), (0.6261503, -0.6234999, 0.5919515), (0.38128617, -0.8041584, 0.31353283), (0.31803972, -0.80296093, 0.43751776), (0.59466547, -0.6224359, 0.62745667), (0.787728, -0.34120813, 0.8290523), (0.8590157, -1.2885971e-7, 0.90904343), (0.0000020000791, -0.8648315, 0.33476067), (4.1276977e-7, 0.86768144, -1.0000001), (-0.3320469, 0.80163306, -1.0000002), (-0.613543, 0.6135434, -1.0000002), (-0.80163264, 0.33204725, -1.0000002), (-0.8676809, -4.6052563e-8, -1.0000002), (-0.8016326, -0.3320473, -1.0000002), (-0.6135428, -0.61354333, -1.0000002), (-0.3320467, -0.801633, -1.0000002), (4.0751252e-7, -0.8676812, -1.0000001), (0.33204788, -0.80163294, -1.0000002), (0.61354387, -0.61354333, -1.0000002), (0.8016334, -0.33204716, -1.0000002), (0.86768174, 2.0612555e-7, -1.0000002), (0.80163336, 0.33204764, -1.0000002), (0.6135432, 0.6135437, -1.0000002), (0.3320472, 0.80163336, -1.0000002), (-0.2831209, 0.6835151, -1.0000002), (5.2918944e-7, 0.73983145, -1.0000001), (-0.5231393, 0.52313983, -1.0000001), (-0.6835144, 0.28312126, -1.0000002), (-0.68351436, -0.2831212, -1.0000002), (-0.5231392, -0.5231397, -1.0000001), (-0.2831207, -0.683515, -1.0000002), (4.4189292e-7, -0.7398312, -1.0000001), (0.28312182, -0.6835148, -1.0000002), (0.52314025, -0.5231397, -1.0000002), (0.6835153, 0.28312162, -1.0000002), (0.52314013, 0.52314013, -1.0000002), (0.28312108, 0.68351537, -1.0000002), (0.9999996, 0.73983127, 0), (0.9999996, 0.6835149, -0.28312182), (0.9999996, 0.5231396, -0.52314043), (0.9999997, 0.283121, -0.6835153), (0.7483492, 0.28312096, -0.6835152), (0.59756577, 0.5231396, -0.5231401), (0.36926168, 0.6835149, -0.2831216), (0.24171151, 0.7398313, 0), (0.2831225, 0.6835152, -0.42578375), (0.5231413, 0.5231399, -0.60198164), (0.6835165, 0.28312132, -0.74520266), (0.0000017844784, 0.73983127, -0.33476114), (0.016076602, 0.7366339, 0), (0.0000019440404, 0.7398313, 0), (0.99999976, -0.73983103, 0), (0.99999976, -0.6835148, -0.28312135), (0.9999997, -0.5231396, -0.5231401), (0.99999976, -0.28312105, -0.6835152), (0.9999997, -6.444699e-8, -0.73983145), (0.81440073, -8.938383e-8, -0.7398313), (0.74834925, -0.28312114, -0.68351495), (0.5975659, -0.5231397, -0.52313983), (0.36926186, -0.6835149, -0.28312123), (0.24171172, -0.7398312, 0), (-0.7398296, -3.681202e-7, -0.9999994), (0.7398328, -1.6931449e-7, -0.9999994), (0.6835165, -0.28312165, -0.9999994), (0.2831227, -0.6835153, -0.4257834), (0.5231415, -0.52314013, -0.6019813), (0.6835166, -0.28312156, -0.7452024), (0.73983294, -1.1613609e-7, -0.8021027), (0.0000019832844, -0.7398315, -0.33476067), (0.0160768, -0.7366339, 0), (0.0000021428461, -0.7398313, 0), (0.9999996, 0.86482745, 0), (0.9999996, 0.7989969, -0.33095574), (0.9999995, 0.61152494, -0.6115258), (0.99999964, 0.3309549, -0.7989974), (0.7864439, 0.3430364, -0.78638923), (0.62615013, 0.62349963, -0.5919517), (0.38128594, 0.8041584, -0.3135333), (0.24545765, 0.8647741, 0), (0.3180395, 0.8029608, -0.43751824), (0.59768736, 0.6204803, -0.6942272), (0.78975487, 0.33936405, -0.85979617), (0.0000017676836, 0.86483127, -0.33476114), (0.034612767, 0.8602491, 0), (0.0000019272456, 0.8648313, 0), (0.99999976, -0.86483103, 0), (0.99999976, -0.7989968, -0.33095527), (0.9999997, -0.61152506, -0.61152554), (0.99999976, -0.33095503, -0.79899716), (0.9999997, -9.803671e-8, -0.86483145), (0.8619875, -1.1488031e-7, -0.85850656), (0.7879225, -0.34295297, -0.7864765), (0.6261503, -0.6234999, -0.5919515), (0.38128617, -0.8041584, -0.31353283), (0.24545789, -0.864774, 0), (0.31803972, -0.80296093, -0.43751776), (0.59466547, -0.6224359, -0.62745667), (0.787728, -0.34120813, -0.8290523), (0.8590157, -1.2885971e-7, -0.90904343), (0.0000020000791, -0.8648315, -0.33476067), (0.034613, -0.8602491, 0), (0.000002159641, -0.8648313, 0), (-0.33149996, 0.8003151, 0), (-0.6125329, 0.61253434, 0), (-0.8003136, 0.33150122, 0), (-0.61253273, -0.61253405, 0), (-0.80031353, -0.3315011, 0), (-0.33149973, -0.80031484, 0), (-0.86625487, 5.323389e-8, 0), (-0.73982924, -9.940251e-8, 0), (-0.6835135, 0.28312126, 0), (-0.52313834, 0.52313983, 0), (-0.28311992, 0.6835151, 0), (-0.68351346, -0.28312105, 0), (-0.52313817, -0.52313954, 0), (-0.28311974, -0.6835148, 0)]
            uniform token subdivisionScheme = "none"
            custom string userProperties:blender:data_name = "Cylinder.011"
        }
    }

    def Scope "_materials"
    {
        def Material "Pipe"
        {
            token outputs:surface.connect = </root/_materials/Pipe/Principled_BSDF.outputs:surface>
            custom string userProperties:blender:data_name = "Pipe"

            def Shader "Principled_BSDF"
            {
                uniform token info:id = "UsdPreviewSurface"
                float inputs:clearcoat = 0
                float inputs:clearcoatRoughness = 0.03
                color3f inputs:diffuseColor = (0.08689935, 0.17172833, 0.32637116)
                float inputs:ior = 1.5
                float inputs:metallic = 0
                float inputs:opacity = 1
                float inputs:roughness = 0.6900348
                float inputs:specular = 0.5
                token outputs:surface
            }
        }
    }
}

