#usda 1.0
(
    defaultPrim = "root"
    doc = "Blender v5.1.2"
    metersPerUnit = 1
    upAxis = "Y"
)

def Xform "root" (
    customData = {
        dictionary Blender = {
            bool generated = 1
        }
    }
)
{
    float3 xformOp:rotateXYZ = (-90, -0, 0)
    uniform token[] xformOpOrder = ["xformOp:rotateXYZ"]

    def Xform "Cube_Grass_1x1Center"
    {
        custom string userProperties:blender:object_name = "Cube_Grass_1x1Center"

        def Mesh "Cube_062" (
            active = true
            prepend apiSchemas = ["MaterialBindingAPI"]
        )
        {
            uniform bool doubleSided = 1
            float3[] extent = [(-0.99999845, -1.1167185, -0.99999994), (1.000001, 1.116719, 0.9959563)]
            int[] faceVertexCounts = [4, 4, 4, 4, 4, 4, 4, 4, 4, 4, 4, 4, 4, 4, 4, 4, 4, 4, 4, 4, 4, 4, 4, 4, 4, 4, 4, 4, 4, 4, 4, 4, 4, 4, 4, 4, 4, 4, 4, 4, 4, 4, 4, 4, 4, 4, 4, 4, 4, 4, 4, 4, 4, 4, 4, 4, 4, 4, 4, 4, 4, 4, 4, 4, 4, 4, 4, 4, 4, 4, 4, 4, 4, 4, 4, 4, 4, 4, 4, 4, 4, 4, 4, 4, 4, 4, 4, 4, 4, 4, 4, 4, 4, 4, 4, 4]
            int[] faceVertexIndices = [0, 6, 14, 8, 0, 8, 13, 5, 72, 28, 14, 61, 26, 19, 11, 12, 29, 13, 8, 20, 1, 7, 12, 4, 1, 5, 13, 7, 2, 9, 15, 10, 39, 26, 12, 7, 27, 15, 11, 19, 3, 11, 15, 9, 3, 4, 12, 11, 27, 30, 10, 15, 29, 39, 7, 13, 84, 82, 16, 33, 31, 32, 18, 17, 32, 33, 16, 18, 22, 23, 36, 37, 22, 37, 38, 21, 24, 35, 36, 23, 25, 34, 35, 24, 21, 38, 31, 17, 8, 14, 28, 20, 14, 6, 76, 61, 40, 48, 54, 46, 40, 45, 53, 48, 72, 61, 54, 69, 67, 52, 51, 59, 70, 60, 48, 53, 41, 44, 52, 47, 41, 47, 53, 45, 42, 50, 55, 49, 83, 47, 52, 67, 68, 59, 51, 55, 43, 49, 55, 51, 43, 51, 52, 44, 68, 55, 50, 71, 70, 53, 47, 83, 84, 75, 56, 82, 73, 57, 58, 74, 74, 58, 56, 75, 63, 80, 79, 64, 63, 62, 81, 80, 65, 64, 79, 78, 66, 65, 78, 77, 62, 57, 73, 81, 48, 60, 69, 54, 54, 61, 76, 46, 85, 91, 99, 93, 85, 93, 98, 90, 72, 69, 99, 128, 67, 59, 96, 97, 70, 98, 93, 60, 86, 92, 97, 89, 86, 90, 98, 92, 87, 94, 100, 95, 83, 67, 97, 92, 68, 100, 96, 59, 88, 96, 100, 94, 88, 89, 97, 96, 68, 71, 95, 100, 70, 83, 92, 98, 84, 135, 101, 75, 73, 74, 103, 102, 74, 75, 101, 103, 105, 106, 79, 80, 105, 80, 81, 104, 107, 78, 79, 106, 108, 77, 78, 107, 104, 81, 73, 102, 93, 99, 69, 60, 99, 91, 134, 128, 109, 117, 123, 115, 109, 114, 122, 117, 72, 128, 123, 28, 26, 121, 120, 19, 29, 20, 117, 122, 110, 113, 121, 116, 110, 116, 122, 114, 111, 119, 124, 118, 39, 116, 121, 26, 27, 19, 120, 124, 112, 118, 124, 120, 112, 120, 121, 113, 27, 124, 119, 30, 29, 122, 116, 39, 84, 33, 125, 135, 31, 126, 127, 32, 32, 127, 125, 33, 130, 37, 36, 131, 130, 129, 38, 37, 132, 131, 36, 35, 133, 132, 35, 34, 129, 126, 31, 38, 117, 20, 28, 123, 123, 128, 134, 115]
            rel material:binding = </root/_materials/Green_Light>
            normal3f[] normals = [(-0.000007415449, -0.13761769, 0.9904854), (-5.2107374e-8, 0, 1), (-2.6183857e-8, 0, 1), (-0.0000036747808, -0.13759933, 0.99048793), (-0.000007415449, -0.13761769, 0.9904854), (-0.0000036747808, -0.13759933, 0.99048793), (-0.0000073631095, -0.27258843, 0.9621307), (-0.000014584818, -0.27260226, 0.9621268), (-8.041653e-10, 0, 1), (-2.2022377e-10, 0, 1), (-2.6183857e-8, 0, 1), (0, 0, 1), (-1.3833703e-7, -0.9986511, -0.05192408), (-1.3682808e-7, -0.97782207, -0.20943707), (0, -0.977822, -0.20943762), (2.8503797e-9, -0.9986511, -0.051924337), (-3.2218133e-9, -0.2725743, 0.9621347), (-0.0000073631095, -0.27258843, 0.9621307), (-0.0000036747808, -0.13759933, 0.99048793), (-1.0368278e-9, -0.13759595, 0.9904884), (-0.000004907873, -0.954409, 0.29850185), (-0.000002626737, -0.95440674, 0.2985093), (2.8503797e-9, -0.9986511, -0.051924337), (5.4119123e-9, -0.998651, -0.051924568), (-0.000004907873, -0.954409, 0.29850185), (-0.000009638461, -0.8779943, 0.47867098), (-0.0000044805242, -0.87798566, 0.4786869), (-0.000002626737, -0.95440674, 0.2985093), (-0.0000031234015, -0.057287414, -0.99835765), (-0.0000035350442, -0.20503616, -0.97875434), (-0.0000016419785, -0.20502432, -0.97875684), (-0.0000015466666, -0.057284255, -0.9983579), (-1.2755827e-7, -0.95440406, 0.2985178), (-1.3833703e-7, -0.9986511, -0.05192408), (2.8503797e-9, -0.9986511, -0.051924337), (-0.000002626737, -0.95440674, 0.2985093), (-6.104434e-8, -0.20501815, -0.97875816), (-0.0000016419785, -0.20502432, -0.97875684), (-0.0000021973533, -0.3482157, -0.93741447), (-5.106518e-8, -0.34820154, -0.93741965), (-0.000003868152, -0.34822646, -0.9374105), (-0.0000021973533, -0.3482157, -0.93741447), (-0.0000016419785, -0.20502432, -0.97875684), (-0.0000035350442, -0.20503616, -0.97875434), (0, -0.97782177, -0.20943837), (5.4119123e-9, -0.998651, -0.051924568), (2.8503797e-9, -0.9986511, -0.051924337), (0, -0.977822, -0.20943762), (-6.104434e-8, -0.20501815, -0.97875816), (-6.9667685e-8, -0.057281155, -0.998358), (-0.0000015466666, -0.057284255, -0.9983579), (-0.0000016419785, -0.20502432, -0.97875684), (-1.13876425e-7, -0.8779782, 0.47870073), (-1.2755827e-7, -0.95440406, 0.2985178), (-0.000002626737, -0.95440674, 0.2985093), (-0.0000044805242, -0.87798566, 0.4786869), (8.133661e-15, 0, -1), (0, 0, -1), (3.925697e-8, -0.19509037, -0.9807853), (-3.925706e-8, -0.19509038, -0.9807853), (-1.740447e-7, -0.98078525, -0.19509044), (-1.6258676e-7, -0.92387944, -0.38268363), (3.8502566e-8, -0.9238795, -0.3826835), (1.962844e-8, -0.9807853, -0.19509037), (-7.700544e-8, -0.38268346, -0.9238795), (-3.925706e-8, -0.19509038, -0.9807853), (3.925697e-8, -0.19509037, -0.9807853), (7.700531e-8, -0.3826835, -0.9238795), (0, -1, 0), (0, -1, 0), (-1.7881422e-7, -1, 0), (-1.7881422e-7, -1, 0), (0, -1, 0), (-1.7881422e-7, -1, 0), (-1.788142e-7, -1, 0), (0, -1, 0), (0, -1, 0), (-1.7881422e-7, -1, 0), (-1.7881422e-7, -1, 0), (0, -1, 0), (0, -1, 0), (-1.7881423e-7, -1, 0), (-1.7881422e-7, -1, 0), (0, -1, 0), (0, -1, 0), (-1.788142e-7, -1, 0), (-1.740447e-7, -0.98078525, -0.19509044), (1.962844e-8, -0.9807853, -0.19509037), (-0.0000036747808, -0.13759933, 0.99048793), (-2.6183857e-8, 0, 1), (-2.2022377e-10, 0, 1), (-1.0368278e-9, -0.13759595, 0.9904884), (-2.6183857e-8, 0, 1), (-5.2107374e-8, 0, 1), (0, 0, 1), (0, 0, 1), (-0.000007420784, 0.13761768, 0.9904854), (-0.000003675755, 0.13759933, 0.99048793), (-1.9938343e-8, 0, 1), (-3.9678444e-8, 0, 1), (-0.000007420784, 0.13761768, 0.9904854), (-0.00001462024, 0.27260223, 0.96212685), (-0.0000073777933, 0.27258843, 0.9621307), (-0.000003675755, 0.13759933, 0.99048793), (-8.041653e-10, 0, 1), (0, 0, 1), (-1.9938343e-8, 0, 1), (0, 0, 1), (2.6744266e-7, 0.9986511, -0.051924232), (2.8503793e-9, 0.9986511, -0.05192414), (0, 0.97782207, -0.20943731), (2.6134512e-7, 0.977822, -0.20943761), (9.798349e-8, 0.27257437, 0.9621347), (4.946219e-8, 0.13759594, 0.9904884), (-0.000003675755, 0.13759933, 0.99048793), (-0.0000073777933, 0.27258843, 0.9621307), (-0.0000049276177, 0.954409, 0.2985019), (5.411912e-9, 0.9986511, -0.051924244), (2.8503793e-9, 0.9986511, -0.05192414), (-0.000002637303, 0.95440674, 0.29850924), (-0.0000049276177, 0.954409, 0.2985019), (-0.000002637303, 0.95440674, 0.29850924), (-0.00000449853, 0.8779857, 0.4786868), (-0.000009677195, 0.8779945, 0.47867087), (-0.000003108065, 0.057287425, -0.9983577), (-0.0000015390722, 0.05728426, -0.9983579), (-0.0000016311519, 0.20502426, -0.9787569), (-0.0000035112864, 0.20503609, -0.97875434), (2.4234356e-7, 0.95440406, 0.29851788), (-0.000002637303, 0.95440674, 0.29850924), (2.8503793e-9, 0.9986511, -0.05192414), (2.6744266e-7, 0.9986511, -0.051924232), (3.234084e-8, 0.20501816, -0.97875816), (1.1563548e-7, 0.3482017, -0.9374196), (-0.0000021793737, 0.3482156, -0.9374145), (-0.0000016311519, 0.20502426, -0.9787569), (-0.000003836501, 0.3482263, -0.9374105), (-0.0000035112864, 0.20503609, -0.97875434), (-0.0000016311519, 0.20502426, -0.9787569), (-0.0000021793737, 0.3482156, -0.9374145), (0, 0.97782195, -0.20943797), (0, 0.97782207, -0.20943731), (2.8503793e-9, 0.9986511, -0.05192414), (5.411912e-9, 0.9986511, -0.051924244), (3.234084e-8, 0.20501816, -0.97875816), (-0.0000016311519, 0.20502426, -0.9787569), (-0.0000015390722, 0.05728426, -0.9983579), (-5.1672004e-8, 0.05728114, -0.9983581), (2.0861506e-7, 0.87797827, 0.47870055), (-0.00000449853, 0.8779857, 0.4786868), (-0.000002637303, 0.95440674, 0.29850924), (2.4234356e-7, 0.95440406, 0.29851788), (8.133661e-15, 0, -1), (3.925704e-8, 0.19509034, -0.9807853), (3.925697e-8, 0.19509037, -0.9807853), (0, 0, -1), (1.5447961e-7, 0.98078525, -0.19509049), (1.962844e-8, 0.9807853, -0.19509037), (3.8502566e-8, 0.9238795, -0.3826835), (1.5401064e-7, 0.9238794, -0.38268375), (7.700544e-8, 0.38268352, -0.92387944), (7.700531e-8, 0.3826835, -0.9238795), (3.925697e-8, 0.19509037, -0.9807853), (3.925704e-8, 0.19509034, -0.9807853), (0, 1, 0), (1.4901195e-7, 1, 0), (1.4901194e-7, 1, 0), (0, 1, 0), (0, 1, 0), (0, 1, 0), (1.4901197e-7, 1, 0), (1.4901195e-7, 1, 0), (0, 1, 0), (0, 1, 0), (1.4901194e-7, 1, 0), (1.4901194e-7, 1, 0), (0, 1, 0), (0, 1, 0), (1.4901194e-7, 1, 0), (1.4901194e-7, 1, 0), (0, 1, 0), (1.962844e-8, 0.9807853, -0.19509037), (1.5447961e-7, 0.98078525, -0.19509049), (1.4901197e-7, 1, 0), (-0.000003675755, 0.13759933, 0.99048793), (4.946219e-8, 0.13759594, 0.9904884), (0, 0, 1), (-1.9938343e-8, 0, 1), (-1.9938343e-8, 0, 1), (0, 0, 1), (0, 0, 1), (-3.9678444e-8, 0, 1), (0.000007415449, 0.13761769, 0.9904854), (7.404497e-8, 0, 1), (3.7154468e-8, 0, 1), (0.0000037230589, 0.1375993, 0.99048793), (0.000007415449, 0.13761769, 0.9904854), (0.0000037230589, 0.1375993, 0.99048793), (0.000007456995, 0.2725884, 0.9621307), (0.000014584818, 0.27260226, 0.9621268), (-8.041653e-10, 0, 1), (0, 0, 1), (3.7154468e-8, 0, 1), (1.0165542e-8, 0, 1), (2.6744266e-7, 0.9986511, -0.051924232), (2.6134512e-7, 0.977822, -0.20943761), (4.7612812e-7, 0.9778218, -0.20943843), (4.7437152e-7, 0.998651, -0.051924497), (9.798349e-8, 0.27257437, 0.9621347), (0.000007456995, 0.2725884, 0.9621307), (0.0000037230589, 0.1375993, 0.99048793), (4.946219e-8, 0.13759594, 0.9904884), (0.0000052050664, 0.954409, 0.2985021), (0.00000301447, 0.9544067, 0.29850948), (4.7437152e-7, 0.998651, -0.051924497), (4.2251543e-7, 0.998651, -0.051924586), (0.0000052050664, 0.954409, 0.2985021), (0.000009795181, 0.8779942, 0.47867143), (0.0000047766544, 0.8779857, 0.4786869), (0.00000301447, 0.9544067, 0.29850948), (0.0000031234024, 0.05728743, -0.99835765), (0.000003573839, 0.20503594, -0.97875446), (0.0000016992857, 0.20502432, -0.97875684), (0.0000014944978, 0.057284255, -0.99835795), (2.4234356e-7, 0.95440406, 0.29851788), (2.6744266e-7, 0.9986511, -0.051924232), (4.7437152e-7, 0.998651, -0.051924497), (0.00000301447, 0.9544067, 0.29850948), (3.234084e-8, 0.20501816, -0.97875816), (0.0000016992857, 0.20502432, -0.97875684), (0.0000023408325, 0.34821564, -0.93741447), (1.1563548e-7, 0.3482017, -0.9374196), (0.000003944878, 0.34822607, -0.93741065), (0.0000023408325, 0.34821564, -0.93741447), (0.0000016992857, 0.20502432, -0.97875684), (0.000003573839, 0.20503594, -0.97875446), (4.1876592e-7, 0.97782177, -0.20943841), (4.2251543e-7, 0.998651, -0.051924586), (4.7437152e-7, 0.998651, -0.051924497), (4.7612812e-7, 0.9778218, -0.20943843), (3.234084e-8, 0.20501816, -0.97875816), (-5.1672004e-8, 0.05728114, -0.9983581), (0.0000014944978, 0.057284255, -0.99835795), (0.0000016992857, 0.20502432, -0.97875684), (2.0861506e-7, 0.87797827, 0.47870055), (2.4234356e-7, 0.95440406, 0.29851788), (0.00000301447, 0.9544067, 0.29850948), (0.0000047766544, 0.8779857, 0.4786869), (8.133661e-15, 0, -1), (1.6267327e-14, 0, -1), (3.9257117e-8, 0.19509035, -0.9807853), (3.925704e-8, 0.19509034, -0.9807853), (1.5447961e-7, 0.98078525, -0.19509049), (1.5401064e-7, 0.9238794, -0.38268375), (2.6951875e-7, 0.92387927, -0.382684), (2.8933079e-7, 0.98078525, -0.1950906), (7.700544e-8, 0.38268352, -0.92387944), (3.925704e-8, 0.19509034, -0.9807853), (3.9257117e-8, 0.19509035, -0.9807853), (7.7005566e-8, 0.38268352, -0.92387944), (2.980239e-7, 1, 0), (2.9802388e-7, 1, 0), (1.4901194e-7, 1, 0), (1.4901195e-7, 1, 0), (2.980239e-7, 1, 0), (1.4901195e-7, 1, 0), (1.4901197e-7, 1, 0), (2.9802393e-7, 1, 0), (2.9802388e-7, 1, 0), (1.4901194e-7, 1, 0), (1.4901194e-7, 1, 0), (2.9802388e-7, 1, 0), (2.9802388e-7, 1, 0), (1.4901194e-7, 1, 0), (1.4901194e-7, 1, 0), (2.9802388e-7, 1, 0), (2.9802393e-7, 1, 0), (1.4901197e-7, 1, 0), (1.5447961e-7, 0.98078525, -0.19509049), (2.8933079e-7, 0.98078525, -0.1950906), (0.0000037230589, 0.1375993, 0.99048793), (3.7154468e-8, 0, 1), (0, 0, 1), (4.946219e-8, 0.13759594, 0.9904884), (3.7154468e-8, 0, 1), (7.404497e-8, 0, 1), (2.1939416e-8, 0, 1), (1.0165542e-8, 0, 1), (0.0000072775483, -0.13761784, 0.9904854), (0.0000036054023, -0.13759936, 0.99048793), (2.0450255e-8, 0, 1), (4.1141426e-8, 0, 1), (0.0000072775483, -0.13761784, 0.9904854), (0.00001433358, -0.2726025, 0.9621267), (0.000007233135, -0.2725885, 0.96213067), (0.0000036054023, -0.13759936, 0.99048793), (-8.041653e-10, 0, 1), (1.0165542e-8, 0, 1), (2.0450255e-8, 0, 1), (-2.2022377e-10, 0, 1), (-1.3833703e-7, -0.9986511, -0.05192408), (-2.4323637e-7, -0.998651, -0.051923994), (-2.4069632e-7, -0.9778221, -0.2094369), (-1.3682808e-7, -0.97782207, -0.20943707), (-3.2218133e-9, -0.2725743, 0.9621347), (-1.0368278e-9, -0.13759595, 0.9904884), (0.0000036054023, -0.13759936, 0.99048793), (0.000007233135, -0.2725885, 0.96213067), (0.0000046402265, -0.9544089, 0.29850233), (-2.1497483e-7, -0.9986511, -0.051923934), (-2.4323637e-7, -0.998651, -0.051923994), (0.0000023630562, -0.9544067, 0.29850954), (0.0000046402265, -0.9544089, 0.29850233), (0.0000023630562, -0.9544067, 0.29850954), (0.000004213934, -0.8779854, 0.47868744), (0.00000932716, -0.8779937, 0.47867224), (0.0000031246357, -0.0572875, -0.99835765), (0.0000014769397, -0.057284296, -0.9983579), (0.0000015544007, -0.20502405, -0.97875684), (0.0000034808627, -0.20503558, -0.9787545), (-1.2755827e-7, -0.95440406, 0.2985178), (0.0000023630562, -0.9544067, 0.29850954), (-2.4323637e-7, -0.998651, -0.051923994), (-1.3833703e-7, -0.9986511, -0.05192408), (-6.104434e-8, -0.20501815, -0.97875816), (-5.106518e-8, -0.34820154, -0.93741965), (0.0000020916661, -0.34821504, -0.93741477), (0.0000015544007, -0.20502405, -0.97875684), (0.0000037597601, -0.3482253, -0.93741083), (0.0000034808627, -0.20503558, -0.9787545), (0.0000015544007, -0.20502405, -0.97875684), (0.0000020916661, -0.34821504, -0.93741477), (-2.0009153e-7, -0.9778222, -0.20943664), (-2.4069632e-7, -0.9778221, -0.2094369), (-2.4323637e-7, -0.998651, -0.051923994), (-2.1497483e-7, -0.9986511, -0.051923934), (-6.104434e-8, -0.20501815, -0.97875816), (0.0000015544007, -0.20502405, -0.97875684), (0.0000014769397, -0.057284296, -0.9983579), (-6.9667685e-8, -0.057281155, -0.998358), (-1.13876425e-7, -0.8779782, 0.47870073), (0.000004213934, -0.8779854, 0.47868744), (0.0000023630562, -0.9544067, 0.29850954), (-1.2755827e-7, -0.95440406, 0.2985178), (8.133661e-15, 0, -1), (-3.925706e-8, -0.19509038, -0.9807853), (-1.17771094e-7, -0.19509041, -0.98078525), (1.6267327e-14, 0, -1), (-1.740447e-7, -0.98078525, -0.19509044), (-3.6771786e-7, -0.98078525, -0.19509052), (-3.636761e-7, -0.9238794, -0.38268378), (-1.6258676e-7, -0.92387944, -0.38268363), (-7.700544e-8, -0.38268346, -0.9238795), (-2.3101623e-7, -0.3826835, -0.92387944), (-1.17771094e-7, -0.19509041, -0.98078525), (-3.925706e-8, -0.19509038, -0.9807853), (-3.5762844e-7, -1, 0), (-1.7881422e-7, -1, 0), (-1.7881422e-7, -1, 0), (-3.5762844e-7, -1, 0), (-3.5762844e-7, -1, 0), (-3.576284e-7, -1, 0), (-1.788142e-7, -1, 0), (-1.7881422e-7, -1, 0), (-3.5762844e-7, -1, 0), (-3.5762844e-7, -1, 0), (-1.7881422e-7, -1, 0), (-1.7881422e-7, -1, 0), (-3.5762847e-7, -1, 0), (-3.5762844e-7, -1, 0), (-1.7881422e-7, -1, 0), (-1.7881423e-7, -1, 0), (-3.576284e-7, -1, 0), (-3.6771786e-7, -0.98078525, -0.19509052), (-1.740447e-7, -0.98078525, -0.19509044), (-1.788142e-7, -1, 0), (0.0000036054023, -0.13759936, 0.99048793), (-1.0368278e-9, -0.13759595, 0.9904884), (-2.2022377e-10, 0, 1), (2.0450255e-8, 0, 1), (2.0450255e-8, 0, 1), (1.0165542e-8, 0, 1), (2.1939416e-8, 0, 1), (4.1141426e-8, 0, 1)] (
                interpolation = "faceVarying"
            )
            point3f[] points = [(1.000001, -0.84827024, 0.9959563), (1.000001, -1.0999393, 0.8010326), (1.000001, -0.8482704, 0.52715546), (1.000001, -1.0999393, 0.5666322), (1.000001, -1.1167185, 0.64497066), (1.000001, -1.0202432, 0.94722533), (1.000001, -0.35591716, 0.9959563), (0.4382102, -1.0999393, 0.8010326), (0.41714555, -0.84822, 0.9959563), (1.000001, -1.0202432, 0.5370246), (0.41714555, -0.84822017, 0.52715546), (0.4382102, -1.0999393, 0.5666322), (0.45140737, -1.1167185, 0.6449707), (0.41974658, -1.0202305, 0.94722545), (0.4211431, -0.3558417, 0.9959563), (0.41974658, -1.0202305, 0.5370246), (1.000001, -0.87358457, -0.99999994), (1.000001, -0.99999994, -0.8735845), (1.000001, -0.96297365, -0.9629737), (0, -1.0999393, 0.5666322), (0, -0.8482201, 0.9959563), (1.000001, -0.99999994, -0.6239889), (1.000001, -0.99999994, -0.32766843), (1.000001, -0.99999994, -0.024297617), (1.000001, -0.99999994, 0.2812558), (1.000001, -0.99999994, 0.6239889), (0, -1.1167185, 0.6449707), (0, -1.0202305, 0.5370246), (0, -0.3558417, 0.9959563), (0, -1.0202305, 0.94722545), (0, -0.84822017, 0.52715546), (0, -0.99999994, -0.8735845), (0, -0.96297365, -0.96297383), (0, -0.87358457, -0.99999994), (0, -0.99999994, 0.6239889), (0, -0.99999994, 0.2812558), (0, -0.99999994, -0.024297606), (0, -0.99999994, -0.3276684), (0, -0.99999994, -0.6239889), (0, -1.0999393, 0.8010326), (1.000001, 0.84827024, 0.9959563), (1.000001, 1.0999393, 0.8010326), (1.000001, 0.8482704, 0.52715546), (1.000001, 1.0999393, 0.5666322), (1.000001, 1.1167185, 0.64497066), (1.000001, 1.0202432, 0.94722533), (1.000001, 0.35591716, 0.9959563), (0.4382102, 1.0999393, 0.8010326), (0.41714555, 0.84822, 0.9959563), (1.000001, 1.0202432, 0.5370246), (0.41714555, 0.84822017, 0.52715546), (0.4382102, 1.0999393, 0.5666322), (0.45140737, 1.1167185, 0.6449707), (0.41974658, 1.0202305, 0.94722545), (0.4211431, 0.3558417, 0.9959563), (0.41974658, 1.0202305, 0.5370246), (1.000001, 0.87358457, -0.99999994), (1.000001, 0.99999994, -0.8735845), (1.000001, 0.96297365, -0.9629737), (0, 1.0999393, 0.5666322), (0, 0.8482201, 0.9959563), (0.4211431, 0, 0.9959563), (1.000001, 0.99999994, -0.6239889), (1.000001, 0.99999994, -0.32766843), (1.000001, 0.99999994, -0.024297617), (1.000001, 0.99999994, 0.2812558), (1.000001, 0.99999994, 0.6239889), (0, 1.1167185, 0.6449707), (0, 1.0202305, 0.5370246), (0, 0.3558417, 0.9959563), (0, 1.0202305, 0.94722545), (0, 0.84822017, 0.52715546), (0, 0, 0.9959563), (0, 0.99999994, -0.8735845), (0, 0.96297365, -0.96297383), (0, 0.87358457, -0.99999994), (1.000001, 0, 0.9959563), (0, 0.99999994, 0.6239889), (0, 0.99999994, 0.2812558), (0, 0.99999994, -0.024297606), (0, 0.99999994, -0.3276684), (0, 0.99999994, -0.6239889), (1.000001, 0, -0.99999994), (0, 1.0999393, 0.8010326), (0, 0, -0.99999994), (-0.9999978, 0.8482706, 0.9959563), (-0.99999774, 1.0999398, 0.8010326), (-0.9999978, 0.8482708, 0.52715546), (-0.99999774, 1.0999398, 0.5666322), (-0.99999774, 1.116719, 0.64497066), (-0.99999774, 1.0202434, 0.94722533), (-0.999998, 0.35591748, 0.9959563), (-0.4382069, 1.0999396, 0.8010326), (-0.4171424, 0.84822017, 0.9959563), (-0.99999774, 1.0202434, 0.5370246), (-0.4171424, 0.84822035, 0.52715546), (-0.4382069, 1.0999396, 0.5666322), (-0.4514041, 1.1167188, 0.6449707), (-0.41974336, 1.0202308, 0.94722545), (-0.42114007, 0.35584182, 0.9959563), (-0.41974336, 1.0202308, 0.5370246), (-0.9999978, 0.8735849, -0.99999994), (-0.99999774, 1.0000002, -0.8735845), (-0.99999774, 0.962974, -0.9629737), (-0.99999774, 1.0000002, -0.6239889), (-0.99999774, 1.0000002, -0.32766843), (-0.99999774, 1.0000002, -0.024297617), (-0.99999774, 1.0000002, 0.2812558), (-0.99999774, 1.0000002, 0.6239889), (-0.99999833, -0.8482699, 0.9959563), (-0.99999845, -1.0999391, 0.8010326), (-0.99999833, -0.84827006, 0.52715546), (-0.99999845, -1.0999391, 0.5666322), (-0.99999845, -1.1167183, 0.64497066), (-0.99999845, -1.0202427, 0.94722533), (-0.99999815, -0.35591683, 0.9959563), (-0.43820763, -1.0999392, 0.8010326), (-0.41714293, -0.8482198, 0.9959563), (-0.99999845, -1.0202427, 0.5370246), (-0.41714293, -0.84822, 0.52715546), (-0.43820763, -1.0999392, 0.5666322), (-0.4514048, -1.1167184, 0.6449707), (-0.41974398, -1.0202304, 0.94722545), (-0.42114034, -0.35584158, 0.9959563), (-0.41974398, -1.0202304, 0.5370246), (-0.99999833, -0.8735842, -0.99999994), (-0.99999845, -0.9999996, -0.8735845), (-0.99999845, -0.9629733, -0.9629737), (-0.4211402, 1.3722584e-7, 0.9959563), (-0.99999845, -0.9999996, -0.6239889), (-0.99999845, -0.9999996, -0.32766843), (-0.99999845, -0.9999996, -0.024297617), (-0.99999845, -0.9999996, 0.2812558), (-0.99999845, -0.9999996, 0.6239889), (-0.9999981, 3.2584168e-7, 0.9959563), (-0.9999981, 3.2584168e-7, -0.99999994)]
            uniform token subdivisionScheme = "none"
            uniform token subsetFamily:materialBind:familyType = "nonOverlapping"
            custom string userProperties:blender:data_name = "Cube.062"

            def GeomSubset "Green_Light" (
                prepend apiSchemas = ["MaterialBindingAPI"]
            )
            {
                uniform token elementType = "face"
                uniform token familyName = "materialBind"
                int[] indices = [0, 1, 2, 3, 4, 5, 6, 7, 8, 9, 10, 11, 12, 13, 22, 23, 24, 25, 26, 27, 28, 29, 30, 31, 32, 33, 34, 35, 36, 37, 46, 47, 48, 49, 50, 51, 52, 53, 54, 55, 56, 57, 58, 59, 60, 61, 70, 71, 72, 73, 74, 75, 76, 77, 78, 79, 80, 81, 82, 83, 84, 85, 94, 95]
                rel material:binding = </root/_materials/Green_Light>
            }

            def GeomSubset "Dirt_1" (
                prepend apiSchemas = ["MaterialBindingAPI"]
            )
            {
                uniform token elementType = "face"
                uniform token familyName = "materialBind"
                int[] indices = [14, 15, 16, 17, 38, 39, 40, 41, 62, 63, 64, 65, 86, 87, 88, 89]
                rel material:binding = </root/_materials/Dirt_1>
            }

            def GeomSubset "Dirt_2" (
                prepend apiSchemas = ["MaterialBindingAPI"]
            )
            {
                uniform token elementType = "face"
                uniform token familyName = "materialBind"
                int[] indices = [18, 20, 42, 44, 66, 68, 90, 92]
                rel material:binding = </root/_materials/Dirt_2>
            }

            def GeomSubset "Dirt_3" (
                prepend apiSchemas = ["MaterialBindingAPI"]
            )
            {
                uniform token elementType = "face"
                uniform token familyName = "materialBind"
                int[] indices = [19, 21, 43, 45, 67, 69, 91, 93]
                rel material:binding = </root/_materials/Dirt_3>
            }
        }
    }

    def Scope "_materials"
    {
        def Material "Green_Light"
        {
            token outputs:surface.connect = </root/_materials/Green_Light/Principled_BSDF.outputs:surface>
            custom string userProperties:blender:data_name = "Green_Light"

            def Shader "Principled_BSDF"
            {
                uniform token info:id = "UsdPreviewSurface"
                float inputs:clearcoat = 0
                float inputs:clearcoatRoughness = 0.03
                color3f inputs:diffuseColor = (0.31286794, 0.41093433, 0.02278113)
                float inputs:ior = 1.5
                float inputs:metallic = 0
                float inputs:opacity = 1
                float inputs:roughness = 0.6900348
                float inputs:specular = 0.5
                token outputs:surface
            }
        }

        def Material "Dirt_1"
        {
            token outputs:surface.connect = </root/_materials/Dirt_1/Principled_BSDF.outputs:surface>
            custom string userProperties:blender:data_name = "Dirt_1"

            def Shader "Principled_BSDF"
            {
                uniform token info:id = "UsdPreviewSurface"
                float inputs:clearcoat = 0
                float inputs:clearcoatRoughness = 0.03
                color3f inputs:diffuseColor = (0.48689133, 0.246964, 0.10193235)
                float inputs:ior = 1.5
                float inputs:metallic = 0
                float inputs:opacity = 1
                float inputs:roughness = 0.6900348
                float inputs:specular = 0.5
                token outputs:surface
            }
        }

        def Material "Dirt_2"
        {
            token outputs:surface.connect = </root/_materials/Dirt_2/Principled_BSDF.outputs:surface>
            custom string userProperties:blender:data_name = "Dirt_2"

            def Shader "Principled_BSDF"
            {
                uniform token info:id = "UsdPreviewSurface"
                float inputs:clearcoat = 0
                float inputs:clearcoatRoughness = 0.03
                color3f inputs:diffuseColor = (0.31853473, 0.16343075, 0.068858825)
                float inputs:ior = 1.5
                float inputs:metallic = 0
                float inputs:opacity = 1
                float inputs:roughness = 0.6900348
                float inputs:specular = 0.5
                token outputs:surface
            }
        }

        def Material "Dirt_3"
        {
            token outputs:surface.connect = </root/_materials/Dirt_3/Principled_BSDF.outputs:surface>
            custom string userProperties:blender:data_name = "Dirt_3"

            def Shader "Principled_BSDF"
            {
                uniform token info:id = "UsdPreviewSurface"
                float inputs:clearcoat = 0
                float inputs:clearcoatRoughness = 0.03
                color3f inputs:diffuseColor = (0.7873924, 0.3653056, 0.1698924)
                float inputs:ior = 1.5
                float inputs:metallic = 0
                float inputs:opacity = 1
                float inputs:roughness = 0.6900348
                float inputs:specular = 0.5
                token outputs:surface
            }
        }
    }
}

