#usda 1.0
(
    defaultPrim = "root"
    doc = "Blender v5.1.2"
    metersPerUnit = 1
    upAxis = "Y"
)

def Xform "root" (
    customData = {
        dictionary Blender = {
            bool generated = 1
        }
    }
)
{
    float3 xformOp:rotateXYZ = (-90, -0, 0)
    uniform token[] xformOpOrder = ["xformOp:rotateXYZ"]

    def Xform "Cube_Grass_CornerBottom_Tall"
    {
        custom string userProperties:blender:object_name = "Cube_Grass_CornerBottom_Tall"

        def Mesh "Cube_387" (
            active = true
            prepend apiSchemas = ["MaterialBindingAPI"]
        )
        {
            uniform bool doubleSided = 1
            float3[] extent = [(-1.0000005, -1.0000004, -0.99999994), (1.0000007, 1.0000006, 1)]
            int[] faceVertexCounts = [4, 4, 4, 4, 4, 4, 4, 4, 4, 4, 4, 4, 4, 4, 4, 4, 4, 4, 4, 4, 4, 4, 4, 4, 4, 4, 4, 4, 4, 4, 4, 4]
            int[] faceVertexIndices = [14, 23, 42, 43, 28, 33, 40, 41, 23, 28, 41, 42, 34, 14, 43, 39, 38, 11, 1, 18, 0, 8, 2, 12, 1, 4, 5, 7, 2, 6, 5, 4, 3, 7, 5, 6, 18, 1, 7, 19, 19, 7, 3, 24, 9, 3, 6, 10, 10, 6, 2, 8, 1, 11, 13, 4, 4, 13, 12, 2, 24, 3, 9, 29, 28, 27, 32, 33, 27, 26, 31, 32, 25, 24, 29, 30, 20, 25, 26, 21, 23, 22, 27, 28, 22, 21, 26, 27, 16, 17, 20, 21, 20, 19, 24, 25, 14, 15, 22, 23, 15, 16, 21, 22, 17, 18, 19, 20, 36, 37, 17, 16, 34, 35, 15, 14, 35, 36, 16, 15, 37, 38, 18, 17, 25, 30, 31, 26]
            rel material:binding = </root/_materials/Green_Light>
            normal3f[] normals = [(-0.9807853, -0.19509001, 0), (-0.9238795, -0.38268352, 0), (-0.9238793, -0.38268375, 0), (-0.9807853, -0.19509014, 0), (-0.19509149, -0.980785, 0), (-5.090106e-7, -1, 0), (-5.090106e-7, -1, 0), (-0.19509147, -0.9807851, 0), (-0.38268515, -0.92387885, 0), (-0.19509149, -0.980785, 0), (-0.19509147, -0.9807851, 0), (-0.38268512, -0.92387885, 0), (-1, 7.07662e-7, 0), (-0.9807853, -0.19509001, 0), (-0.9807853, -0.19509014, 0), (-1, 7.1915935e-7, 0), (-1, 7.422064e-7, 0), (-0.98078525, 7.174085e-7, -0.19509055), (-0.96729326, -0.17936495, -0.17936572), (-0.9807853, -0.19509013, 0), (-3.3959676e-8, 0, -1), (-1.430294e-7, -0.1950902, -0.98078525), (-0.17936616, -0.17936563, -0.967293), (-0.19509067, 1.2571722e-7, -0.98078525), (-0.96729326, -0.17936495, -0.17936572), (-0.919406, -0.15848507, -0.35996532), (-0.8880745, -0.32505596, -0.32505736), (-0.9194062, -0.3599646, -0.15848614), (-0.17936616, -0.17936563, -0.967293), (-0.15848684, -0.3599653, -0.9194057), (-0.32505852, -0.32505786, -0.8880734), (-0.3599661, -0.15848629, -0.9194055), (-0.17936653, -0.96729296, -0.17936571), (-0.35996643, -0.9194054, -0.15848635), (-0.32505813, -0.88807356, -0.32505774), (-0.15848668, -0.9194057, -0.35996544), (-0.9807853, -0.19509013, 0), (-0.96729326, -0.17936495, -0.17936572), (-0.9194062, -0.3599646, -0.15848614), (-0.92387944, -0.38268375, 0), (-0.3826852, -0.9238788, 0), (-0.35996643, -0.9194054, -0.15848635), (-0.17936653, -0.96729296, -0.17936571), (-0.1950915, -0.980785, 0), (-5.1018014e-7, -0.98078525, -0.19509041), (-0.17936653, -0.96729296, -0.17936571), (-0.15848668, -0.9194057, -0.35996544), (-4.9174383e-7, -0.92387956, -0.38268355), (-2.466026e-7, -0.38268328, -0.9238797), (-0.15848684, -0.3599653, -0.9194057), (-0.17936616, -0.17936563, -0.967293), (-1.430294e-7, -0.1950902, -0.98078525), (-0.96729326, -0.17936495, -0.17936572), (-0.98078525, 7.174085e-7, -0.19509055), (-0.9238794, 6.7435906e-7, -0.3826838), (-0.919406, -0.15848507, -0.35996532), (-0.3599661, -0.15848629, -0.9194055), (-0.38268414, 2.4660324e-7, -0.92387927), (-0.19509067, 1.2571722e-7, -0.98078525), (-0.17936616, -0.17936563, -0.967293), (-0.1950915, -0.980785, 0), (-0.17936653, -0.96729296, -0.17936571), (-5.1018014e-7, -0.98078525, -0.19509041), (-5.090106e-7, -1, 0), (-0.19509149, -0.980785, 0), (-0.19509155, -0.980785, 0), (-5.090106e-7, -1, 0), (-5.090106e-7, -1, 0), (-0.19509155, -0.980785, 0), (-0.1950915, -0.980785, 0), (-5.090106e-7, -1, 0), (-5.090106e-7, -1, 0), (-0.1950915, -0.980785, 0), (-0.1950915, -0.980785, 0), (-5.090106e-7, -1, 0), (-5.0901053e-7, -1, 0), (-0.38268515, -0.92387885, 0), (-0.1950915, -0.980785, 0), (-0.1950915, -0.980785, 0), (-0.38268518, -0.9238788, 0), (-0.38268515, -0.92387885, 0), (-0.38268524, -0.9238787, 0), (-0.19509155, -0.980785, 0), (-0.19509149, -0.980785, 0), (-0.38268524, -0.9238787, 0), (-0.38268518, -0.9238788, 0), (-0.1950915, -0.980785, 0), (-0.19509155, -0.980785, 0), (-0.9807853, -0.19509014, 0), (-0.9807853, -0.19509013, 0), (-0.9238794, -0.3826837, 0), (-0.92387944, -0.38268384, 0), (-0.38268515, -0.92387885, 0), (-0.3826852, -0.9238788, 0), (-0.1950915, -0.980785, 0), (-0.1950915, -0.980785, 0), (-0.9807853, -0.19509001, 0), (-0.9807853, -0.19509006, 0), (-0.92387944, -0.38268358, 0), (-0.9238795, -0.38268352, 0), (-0.9807853, -0.19509006, 0), (-0.9807853, -0.19509014, 0), (-0.92387944, -0.38268384, 0), (-0.92387944, -0.38268358, 0), (-0.9807853, -0.19509013, 0), (-0.9807853, -0.19509013, 0), (-0.92387944, -0.38268375, 0), (-0.9238794, -0.3826837, 0), (-1, 7.314374e-7, 0), (-1, 7.427918e-7, 0), (-0.9807853, -0.19509013, 0), (-0.9807853, -0.19509014, 0), (-1, 7.07662e-7, 0), (-1, 7.1249013e-7, 0), (-0.9807853, -0.19509006, 0), (-0.9807853, -0.19509001, 0), (-1, 7.1249013e-7, 0), (-1, 7.314374e-7, 0), (-0.9807853, -0.19509014, 0), (-0.9807853, -0.19509006, 0), (-1, 7.427918e-7, 0), (-1, 7.422064e-7, 0), (-0.9807853, -0.19509013, 0), (-0.9807853, -0.19509013, 0), (-0.1950915, -0.980785, 0), (-5.0901053e-7, -1, 0), (-5.090106e-7, -1, 0), (-0.1950915, -0.980785, 0)] (
                interpolation = "faceVarying"
            )
            point3f[] points = [(1.0000007, 0.9999994, -0.99999994), (-1.0000005, -0.8735839, -0.8735845), (-0.8735851, -0.87358403, -0.99999994), (-0.8735852, -0.9999994, -0.8735845), (-0.9629742, -0.873584, -0.9629737), (-0.9465711, -0.9465699, -0.9465705), (-0.87358516, -0.9629731, -0.9629737), (-0.96297425, -0.96297306, -0.8735845), (0.9999994, -0.87358505, -0.99999994), (0.9999993, -1.0000004, -0.8735845), (0.99999934, -0.96297413, -0.96297383), (-0.9999991, 1.0000006, -0.8735845), (-0.87358373, 1.0000006, -0.99999994), (-0.9629728, 1.0000006, -0.96297383), (-1.0000005, -0.8735839, 0.6239889), (-1.0000005, -0.8735839, 0.2812558), (-1.0000005, -0.8735839, -0.024297606), (-1.0000005, -0.8735839, -0.3276684), (-1.0000005, -0.8735839, -0.6239889), (-0.96297425, -0.96297306, -0.6239889), (-0.96297425, -0.96297306, -0.3276684), (-0.96297425, -0.96297306, -0.024297606), (-0.96297425, -0.96297306, 0.2812558), (-0.96297425, -0.96297306, 0.6239889), (-0.8735852, -0.9999994, -0.6239889), (-0.8735852, -0.9999994, -0.3276684), (-0.8735852, -0.9999994, -0.024297606), (-0.8735852, -0.9999994, 0.2812558), (-0.8735852, -0.9999994, 0.6239889), (0.9999993, -1.0000004, -0.6239889), (0.9999993, -1.0000004, -0.3276684), (0.9999993, -1.0000004, -0.024297606), (0.9999993, -1.0000004, 0.2812558), (0.9999993, -1.0000004, 0.6239889), (-0.9999991, 1.0000006, 0.6239889), (-0.9999991, 1.0000006, 0.2812558), (-0.9999991, 1.0000006, -0.024297606), (-0.9999991, 1.0000006, -0.3276684), (-0.9999991, 1.0000006, -0.6239889), (-0.9999991, 1.0000006, 1), (0.9999993, -1.0000004, 1), (-0.8735852, -0.9999994, 1), (-0.96297425, -0.96297306, 1), (-1.0000005, -0.8735839, 1)]
            uniform token subdivisionScheme = "none"
            uniform token subsetFamily:materialBind:familyType = "nonOverlapping"
            custom string userProperties:blender:data_name = "Cube.387"

            def GeomSubset "Dirt_1" (
                prepend apiSchemas = ["MaterialBindingAPI"]
            )
            {
                uniform token elementType = "face"
                uniform token familyName = "materialBind"
                int[] indices = [0, 1, 2, 3, 5, 6, 7, 8, 11, 12, 13, 14, 19, 22, 27, 31]
                rel material:binding = </root/_materials/Dirt_1>
            }

            def GeomSubset "Dirt_2" (
                prepend apiSchemas = ["MaterialBindingAPI"]
            )
            {
                uniform token elementType = "face"
                uniform token familyName = "materialBind"
                int[] indices = [16, 18, 20, 23, 24, 26, 28, 30]
                rel material:binding = </root/_materials/Dirt_2>
            }

            def GeomSubset "Dirt_3" (
                prepend apiSchemas = ["MaterialBindingAPI"]
            )
            {
                uniform token elementType = "face"
                uniform token familyName = "materialBind"
                int[] indices = [4, 9, 10, 15, 17, 21, 25, 29]
                rel material:binding = </root/_materials/Dirt_3>
            }
        }
    }

    def Scope "_materials"
    {
        def Material "Green_Light"
        {
            token outputs:surface.connect = </root/_materials/Green_Light/Principled_BSDF.outputs:surface>
            custom string userProperties:blender:data_name = "Green_Light"

            def Shader "Principled_BSDF"
            {
                uniform token info:id = "UsdPreviewSurface"
                float inputs:clearcoat = 0
                float inputs:clearcoatRoughness = 0.03
                color3f inputs:diffuseColor = (0.31286794, 0.41093433, 0.02278113)
                float inputs:ior = 1.5
                float inputs:metallic = 0
                float inputs:opacity = 1
                float inputs:roughness = 0.6900348
                float inputs:specular = 0.5
                token outputs:surface
            }
        }

        def Material "Dirt_1"
        {
            token outputs:surface.connect = </root/_materials/Dirt_1/Principled_BSDF.outputs:surface>
            custom string userProperties:blender:data_name = "Dirt_1"

            def Shader "Principled_BSDF"
            {
                uniform token info:id = "UsdPreviewSurface"
                float inputs:clearcoat = 0
                float inputs:clearcoatRoughness = 0.03
                color3f inputs:diffuseColor = (0.48689133, 0.246964, 0.10193235)
                float inputs:ior = 1.5
                float inputs:metallic = 0
                float inputs:opacity = 1
                float inputs:roughness = 0.6900348
                float inputs:specular = 0.5
                token outputs:surface
            }
        }

        def Material "Dirt_2"
        {
            token outputs:surface.connect = </root/_materials/Dirt_2/Principled_BSDF.outputs:surface>
            custom string userProperties:blender:data_name = "Dirt_2"

            def Shader "Principled_BSDF"
            {
                uniform token info:id = "UsdPreviewSurface"
                float inputs:clearcoat = 0
                float inputs:clearcoatRoughness = 0.03
                color3f inputs:diffuseColor = (0.31853473, 0.16343075, 0.068858825)
                float inputs:ior = 1.5
                float inputs:metallic = 0
                float inputs:opacity = 1
                float inputs:roughness = 0.6900348
                float inputs:specular = 0.5
                token outputs:surface
            }
        }

        def Material "Dirt_3"
        {
            token outputs:surface.connect = </root/_materials/Dirt_3/Principled_BSDF.outputs:surface>
            custom string userProperties:blender:data_name = "Dirt_3"

            def Shader "Principled_BSDF"
            {
                uniform token info:id = "UsdPreviewSurface"
                float inputs:clearcoat = 0
                float inputs:clearcoatRoughness = 0.03
                color3f inputs:diffuseColor = (0.7873924, 0.3653056, 0.1698924)
                float inputs:ior = 1.5
                float inputs:metallic = 0
                float inputs:opacity = 1
                float inputs:roughness = 0.6900348
                float inputs:specular = 0.5
                token outputs:surface
            }
        }
    }
}

