#usda 1.0
(
    defaultPrim = "root"
    doc = "Blender v5.1.2"
    metersPerUnit = 1
    upAxis = "Y"
)

def Xform "root" (
    customData = {
        dictionary Blender = {
            bool generated = 1
        }
    }
)
{
    float3 xformOp:rotateXYZ = (-90, -0, 0)
    uniform token[] xformOpOrder = ["xformOp:rotateXYZ"]

    def Xform "Door"
    {
        custom string userProperties:blender:object_name = "Door"

        def Mesh "Cylinder_014" (
            active = true
            prepend apiSchemas = ["MaterialBindingAPI"]
        )
        {
            uniform bool doubleSided = 1
            float3[] extent = [(-1.248772, -0.78899676, 0.035437107), (1.2482309, -0.2520208, 3.6606069)]
            int[] faceVertexCounts = [5, 5, 4, 5, 4, 4, 4, 5, 4, 6, 6, 4, 4, 4, 6, 4, 4, 4, 4, 4, 4, 4, 4, 4, 4, 4, 4, 4, 4, 5, 5, 4, 5, 4, 4, 4, 4, 6, 6, 4, 4, 4, 6, 4, 4, 4, 4, 4, 4, 4, 4, 4, 4, 4, 4, 4, 4, 4, 4, 4, 4, 4, 4, 4, 4, 5, 4, 4, 4, 4, 4, 4, 4, 4, 4, 4, 4, 4, 4, 4, 4, 4, 4, 4, 4, 4, 4, 4, 4, 4, 4, 4, 4, 4, 4, 4, 4, 4, 4, 4, 4, 4, 4, 4, 4, 4, 4, 4, 4, 4, 4, 4, 4, 4, 4, 4, 4, 4, 4, 4, 4, 4, 4, 4, 4, 4, 4, 4, 4, 4, 4, 4, 4, 4, 4, 4, 4, 4, 4, 4, 4, 4, 4, 4, 4, 4, 4, 4, 4, 4, 3, 4, 4, 4, 4, 3, 4, 4, 4, 3, 3, 4, 4, 4, 3, 3, 4, 4, 4, 4, 3, 3, 4, 4, 4, 4, 3, 3, 4, 4, 4, 4, 3, 3, 4, 4, 4, 3, 3, 4, 4, 4, 3, 3, 4, 4, 4, 4, 3, 4, 4, 4, 4, 3, 3, 4, 4, 4, 4, 3, 3, 4, 4, 4, 4, 3, 4, 4, 4, 4, 3, 3, 4, 4, 4, 3, 3, 4, 4, 4, 3, 3, 4, 4, 4, 4, 3, 3, 4, 4, 4, 4, 4, 4, 4, 4, 4, 4]
            int[] faceVertexIndices = [14, 58, 59, 2, 15, 60, 61, 14, 15, 3, 54, 12, 14, 61, 12, 13, 1, 56, 57, 12, 57, 58, 14, 13, 0, 3, 15, 4, 63, 68, 7, 70, 71, 38, 39, 24, 64, 5, 6, 67, 62, 63, 4, 5, 64, 65, 68, 69, 66, 67, 6, 7, 5, 4, 7, 6, 16, 8, 11, 22, 22, 11, 37, 53, 16, 17, 18, 19, 9, 8, 20, 23, 52, 51, 8, 9, 10, 11, 9, 19, 21, 10, 11, 10, 36, 37, 10, 21, 50, 36, 1, 13, 15, 2, 56, 1, 2, 59, 62, 65, 66, 69, 0, 55, 60, 3, 16, 22, 23, 17, 21, 19, 18, 20, 20, 51, 50, 21, 52, 23, 22, 53, 18, 17, 23, 20, 40, 41, 26, 74, 75, 76, 77, 27, 41, 40, 71, 76, 40, 38, 38, 72, 73, 25, 39, 38, 40, 75, 72, 39, 41, 27, 24, 28, 31, 85, 78, 81, 82, 30, 29, 78, 79, 80, 81, 29, 28, 84, 85, 31, 30, 82, 83, 29, 30, 31, 28, 42, 48, 35, 32, 48, 53, 37, 35, 42, 32, 33, 45, 44, 43, 46, 51, 52, 49, 32, 35, 34, 33, 33, 34, 47, 45, 35, 37, 36, 34, 34, 36, 50, 47, 25, 26, 41, 39, 73, 74, 26, 25, 79, 84, 83, 80, 24, 27, 77, 70, 42, 43, 49, 48, 47, 46, 44, 45, 46, 47, 50, 51, 52, 53, 48, 49, 44, 46, 49, 43, 54, 61, 60, 55, 56, 59, 58, 57, 62, 69, 68, 63, 64, 67, 66, 65, 70, 77, 76, 71, 72, 75, 74, 73, 78, 85, 84, 79, 80, 83, 82, 81, 54, 55, 0, 13, 12, 86, 93, 94, 87, 87, 94, 95, 88, 88, 95, 96, 89, 89, 96, 97, 90, 90, 97, 98, 91, 91, 98, 99, 92, 92, 99, 93, 86, 93, 100, 101, 94, 94, 101, 102, 95, 95, 102, 103, 96, 96, 103, 104, 97, 97, 104, 105, 98, 98, 105, 106, 99, 99, 106, 100, 93, 100, 107, 108, 101, 101, 108, 109, 102, 102, 109, 110, 103, 103, 110, 111, 104, 104, 111, 112, 105, 105, 112, 113, 106, 106, 113, 107, 100, 107, 114, 115, 108, 108, 115, 116, 109, 109, 116, 117, 110, 110, 117, 118, 111, 111, 118, 119, 112, 112, 119, 120, 113, 113, 120, 114, 107, 114, 121, 122, 115, 115, 122, 123, 116, 116, 123, 124, 117, 117, 124, 125, 118, 118, 125, 126, 119, 119, 126, 127, 120, 120, 127, 121, 114, 121, 128, 129, 122, 122, 129, 130, 123, 123, 130, 131, 124, 124, 131, 132, 125, 125, 132, 133, 126, 126, 133, 134, 127, 127, 134, 128, 121, 128, 135, 136, 129, 129, 136, 137, 130, 130, 137, 138, 131, 131, 138, 139, 132, 132, 139, 140, 133, 133, 140, 141, 134, 134, 141, 135, 128, 135, 142, 143, 136, 136, 143, 144, 137, 137, 144, 145, 138, 138, 145, 146, 139, 139, 146, 147, 140, 140, 147, 148, 141, 141, 148, 142, 135, 142, 149, 150, 143, 143, 150, 151, 144, 144, 151, 152, 145, 145, 152, 153, 146, 146, 153, 154, 147, 147, 154, 155, 148, 148, 155, 149, 142, 149, 156, 157, 150, 150, 157, 158, 151, 151, 158, 159, 152, 152, 159, 160, 153, 153, 160, 161, 154, 154, 161, 162, 155, 155, 162, 156, 149, 156, 163, 164, 157, 157, 164, 165, 158, 158, 165, 166, 159, 159, 166, 167, 160, 160, 167, 168, 161, 161, 168, 169, 162, 162, 169, 163, 156, 163, 86, 87, 164, 164, 87, 88, 165, 165, 88, 89, 166, 166, 89, 90, 167, 167, 90, 91, 168, 168, 91, 92, 169, 169, 92, 86, 163, 224, 173, 178, 246, 172, 176, 177, 171, 170, 174, 175, 173, 246, 177, 178, 172, 171, 175, 176, 170, 245, 174, 175, 174, 179, 180, 178, 177, 182, 183, 176, 175, 180, 181, 174, 245, 179, 224, 178, 183, 177, 176, 181, 182, 183, 182, 187, 188, 181, 180, 185, 186, 179, 245, 184, 224, 183, 188, 182, 181, 186, 187, 180, 179, 184, 185, 188, 187, 192, 193, 186, 185, 190, 191, 184, 245, 189, 224, 188, 193, 187, 186, 191, 192, 185, 184, 189, 190, 193, 192, 197, 198, 191, 190, 195, 196, 189, 245, 194, 224, 193, 198, 192, 191, 196, 197, 190, 189, 194, 195, 198, 197, 202, 203, 196, 195, 200, 201, 194, 245, 199, 224, 198, 203, 197, 196, 201, 202, 195, 194, 199, 200, 201, 200, 205, 206, 199, 245, 204, 224, 203, 208, 202, 201, 206, 207, 200, 199, 204, 205, 203, 202, 207, 208, 204, 245, 209, 224, 208, 213, 207, 206, 211, 212, 205, 204, 209, 210, 208, 207, 212, 213, 206, 205, 210, 211, 224, 213, 218, 212, 211, 216, 217, 210, 209, 214, 215, 213, 212, 217, 218, 211, 210, 215, 216, 209, 245, 214, 224, 218, 223, 217, 216, 221, 222, 215, 214, 219, 220, 218, 217, 222, 223, 216, 215, 220, 221, 214, 245, 219, 224, 223, 229, 222, 221, 227, 228, 220, 219, 225, 226, 223, 222, 228, 229, 221, 220, 226, 227, 219, 245, 225, 228, 227, 232, 233, 226, 225, 230, 231, 229, 228, 233, 234, 227, 226, 231, 232, 225, 245, 230, 224, 229, 234, 231, 230, 235, 236, 234, 233, 238, 239, 232, 231, 236, 237, 230, 245, 235, 224, 234, 239, 233, 232, 237, 238, 239, 238, 243, 244, 237, 236, 241, 242, 235, 245, 240, 224, 239, 244, 238, 237, 242, 243, 236, 235, 240, 241, 244, 243, 246, 173, 242, 241, 171, 172, 240, 245, 170, 224, 244, 173, 243, 242, 172, 246, 241, 240, 170, 171, 249, 248, 251, 252, 248, 247, 250, 251, 247, 253, 256, 250, 252, 258, 255, 249, 250, 256, 257, 251, 248, 254, 253, 247, 251, 257, 258, 252, 249, 255, 254, 248]
            rel material:binding = </root/_materials/Door_Metal>
            normal3f[] normals = [(0.9120405, -0.019472906, 0.40963763), (0.9120405, -0.019472906, 0.40963763), (0.97526705, 0.081514664, 0.20544936), (0.9658946, 0.05936324, 0.25203893), (0.9120405, -0.019472906, 0.40963763), (0.5733631, -0.21414542, 0.7908201), (0.5733631, -0.21414542, 0.7908201), (0.5733631, -0.21414542, 0.7908201), (0.5733631, -0.21414542, 0.7908201), (0.5733631, -0.21414542, 0.7908201), (0.2102619, -0.9776451, 2.2850611e-7), (0.21026401, -0.9776446, 2.2633317e-7), (0.2102626, -0.977645, 2.2779902e-7), (0.2102619, -0.9776451, 2.2850611e-7), (-0.06853872, 0.31867865, -0.9453816), (-0.06853873, 0.31867865, -0.9453816), (-0.068538964, 0.31867856, -0.94538164), (-0.068538964, 0.31867856, -0.94538164), (-0.068538964, 0.31867856, -0.94538164), (0.21026401, -0.9776446, 2.2633317e-7), (0.21026614, -0.97764426, 2.2416026e-7), (0.21026614, -0.97764426, 2.2416026e-7), (0.2102626, -0.977645, 2.2779902e-7), (-0.21026352, 0.9776448, -2.2341862e-7), (-0.21026313, 0.97764474, -2.2296167e-7), (-0.21026313, 0.97764474, -2.2296167e-7), (-0.21026328, 0.9776448, -2.2311588e-7), (-0.99831814, -0.05797405, 1.3048887e-8), (-0.99831814, -0.05797405, 1.3048887e-8), (-0.99831814, -0.05797405, 1.3048887e-8), (-0.99831814, -0.05797405, 1.3048887e-8), (0.068538524, 0.31867877, -0.9453815), (0.068538524, 0.31867877, -0.9453815), (0.06853869, 0.31867868, -0.9453816), (0.068538696, 0.3186787, -0.9453816), (0.068538524, 0.31867877, -0.9453815), (0.9983182, 0.057973165, -1.367384e-8), (0.9983182, 0.057973165, -1.367384e-8), (0.9983182, 0.057973165, -1.367384e-8), (0.9983182, 0.057973165, -1.367384e-8), (-0.031040456, 0.32448485, -0.94538146), (-0.031040456, 0.32448485, -0.94538146), (-0.031040456, 0.32448485, -0.94538146), (-0.031040456, 0.32448485, -0.94538146), (-0.031040456, 0.32448485, -0.94538146), (-0.031040456, 0.32448485, -0.94538146), (0.28516242, -0.29786754, 0.9110199), (0.28516242, -0.29786754, 0.9110199), (0.28516242, -0.29786754, 0.9110199), (0.28516242, -0.29786754, 0.9110199), (0.28516242, -0.29786754, 0.9110199), (0.28516242, -0.29786754, 0.9110199), (-0.09522605, 0.99545574, -2.262634e-7), (-0.09522605, 0.99545574, -2.262634e-7), (-0.09522605, 0.99545574, -2.262634e-7), (-0.09522605, 0.99545574, -2.262634e-7), (-0.016975353, 0.07004836, 0.9973992), (-0.016975353, 0.07004836, 0.9973992), (-0.012521533, 0.067906246, 0.9976131), (-0.013160081, 0.06821346, 0.997584), (-0.013160081, 0.06821346, 0.997584), (-0.012521533, 0.067906246, 0.9976131), (0, 0.066057935, 0.9978158), (0, 0.06605792, 0.9978158), (0.96594, 0.25876275, 0.0012887886), (0.96594, 0.25876275, 0.0012887886), (0.96594, 0.25876275, 0.0012887886), (0.96594, 0.25876275, 0.0012887886), (0.96594, 0.25876275, 0.0012887886), (0.96594, 0.25876275, 0.0012887886), (0.13946319, -0.99001443, 0.020529615), (0.13941807, -0.99002075, 0.02052936), (-4.736775e-9, -0.99979603, 0.020194212), (-4.770086e-9, -0.9997961, 0.020194212), (-0.20138857, 0.9792896, -0.020844992), (-0.20138857, 0.9792896, -0.020844992), (-0.14129947, 0.98975396, -0.020532077), (-0.1411651, 0.9897731, -0.020531295), (0.016974766, -0.07004741, -0.9973993), (0.016974766, -0.07004741, -0.9973993), (0.011937369, -0.06838073, -0.9975879), (0.01109305, -0.06810119, -0.99761677), (-0.1411651, 0.9897731, -0.020531295), (-0.14129947, 0.98975396, -0.020532077), (-9.5282955e-9, 0.9997958, -0.020207033), (-1.4235116e-8, 0.99979585, -0.020207034), (0.01109305, -0.06810119, -0.99761677), (0.011937369, -0.06838073, -0.9975879), (-4.051126e-9, -0.06642032, -0.9977917), (-3.9488306e-9, -0.066420324, -0.99779177), (-0.21026383, 0.9776447, -2.2387553e-7), (-0.21026352, 0.9776448, -2.2341862e-7), (-0.21026328, 0.9776448, -2.2311588e-7), (-0.21026383, 0.9776447, -2.2387553e-7), (0.9848171, 0.17359547, -4.099493e-8), (0.9848171, 0.17359547, -4.099493e-8), (0.9658946, 0.05936324, 0.25203893), (0.97526705, 0.081514664, 0.20544936), (0.095225945, -0.9954557, 2.3687868e-7), (0.095225945, -0.9954557, 2.3687868e-7), (0.095225945, -0.9954557, 2.3687868e-7), (0.095225945, -0.9954557, 2.3687868e-7), (-0.98481715, -0.17359501, 3.9899763e-8), (-0.98481715, -0.17359501, 3.9899763e-8), (-0.98481715, -0.17359501, 3.9899763e-8), (-0.98481715, -0.17359501, 3.9899763e-8), (0.13327262, -0.6571657, 0.74187034), (0.08890092, -0.66831857, 0.7385438), (0.09366169, -0.6671914, 0.73897433), (0.13327262, -0.6571657, 0.74187034), (0.10185885, -0.7304971, -0.6752768), (0.15011178, -0.7212976, -0.6761628), (0.15011178, -0.7212976, -0.6761628), (0.10672974, -0.72965044, -0.6754399), (0.10672974, -0.72965044, -0.6754399), (6.134129e-8, -0.73853284, -0.67421746), (6.212961e-8, -0.73853284, -0.6742175), (0.10185885, -0.7304971, -0.6752768), (-7.406939e-9, -0.6779299, 0.7351266), (0.09366169, -0.6671914, 0.73897433), (0.08890092, -0.66831857, 0.7385438), (-9.152588e-9, -0.6779299, 0.7351266), (0.2013886, -0.97928965, 0.020842988), (0.2013886, -0.97928965, 0.020842988), (0.13941807, -0.99002075, 0.02052936), (0.13946319, -0.99001443, 0.020529615), (-0.89693654, 0.09567981, 0.43168306), (-0.89693654, 0.09567981, 0.43168306), (-0.95536655, 0.13004543, 0.26525995), (-0.9687065, 0.14124039, 0.20410495), (-0.89693654, 0.09567981, 0.43168306), (-0.5733633, -0.214146, 0.79081976), (-0.5733633, -0.214146, 0.79081976), (-0.5733633, -0.214146, 0.79081976), (-0.5733633, -0.214146, 0.79081976), (-0.5733633, -0.214146, 0.79081976), (-0.21026209, -0.97764504, 2.2850625e-7), (-0.21026209, -0.97764504, 2.2850625e-7), (-0.21026279, -0.9776449, 2.3030903e-7), (-0.2102639, -0.9776446, 2.3323344e-7), (0.06853869, 0.31867868, -0.9453816), (0.06853886, 0.31867865, -0.9453816), (0.06853886, 0.31867865, -0.9453816), (0.06853886, 0.31867865, -0.9453816), (0.068538696, 0.3186787, -0.9453816), (-0.2102639, -0.9776446, 2.3323344e-7), (-0.21026279, -0.9776449, 2.3030903e-7), (-0.21026574, -0.9776443, 2.3796062e-7), (-0.21026574, -0.9776443, 2.3796062e-7), (0.21026348, 0.9776448, -2.2341858e-7), (0.21026327, 0.9776448, -2.2311585e-7), (0.21026316, 0.97764474, -2.2296167e-7), (0.21026316, 0.97764474, -2.2296167e-7), (0.99831814, -0.057972144, 1.304889e-8), (0.99831814, -0.057972144, 1.304889e-8), (0.99831814, -0.057972144, 1.304889e-8), (0.99831814, -0.057972144, 1.304889e-8), (-0.9983181, 0.057973925, -1.31268845e-8), (-0.9983181, 0.057973925, -1.31268845e-8), (-0.9983181, 0.057973925, -1.31268845e-8), (-0.9983181, 0.057973925, -1.31268845e-8), (0.031040449, 0.32448477, -0.9453814), (0.031040449, 0.32448477, -0.9453814), (0.031040449, 0.32448477, -0.9453814), (0.031040449, 0.32448477, -0.9453814), (0.031040449, 0.32448477, -0.9453814), (0.031040449, 0.32448477, -0.9453814), (-0.28516233, -0.29786685, 0.91102016), (-0.28516233, -0.29786685, 0.91102016), (-0.28516233, -0.29786685, 0.91102016), (-0.28516233, -0.29786685, 0.91102016), (-0.28516233, -0.29786685, 0.91102016), (-0.28516233, -0.29786685, 0.91102016), (0.09522606, 0.99545574, -2.189646e-7), (0.09522606, 0.99545574, -2.189646e-7), (0.09522606, 0.99545574, -2.189646e-7), (0.09522606, 0.99545574, -2.189646e-7), (0.016975757, 0.0700456, 0.99739933), (0.013160295, 0.068211965, 0.99758404), (0.012521726, 0.06790498, 0.99761325), (0.016975757, 0.0700456, 0.99739933), (0.013160295, 0.068211965, 0.99758404), (0, 0.06605792, 0.9978158), (0, 0.066057935, 0.9978158), (0.012521726, 0.06790498, 0.99761325), (-0.96593964, 0.25876465, 0.0012883197), (-0.96593964, 0.25876465, 0.0012883197), (-0.96593964, 0.25876465, 0.0012883197), (-0.96593964, 0.25876465, 0.0012883197), (-0.96593964, 0.25876465, 0.0012883197), (-0.96593964, 0.25876465, 0.0012883197), (-0.13946314, -0.9900144, 0.02052952), (-4.770086e-9, -0.9997961, 0.020194212), (-4.736775e-9, -0.99979603, 0.020194212), (-0.13941807, -0.99002075, 0.02052926), (0.20138852, 0.9792896, -0.020844853), (0.14116508, 0.98977315, -0.020531224), (0.14129944, 0.98975396, -0.020532006), (0.20138852, 0.9792896, -0.020844853), (-0.01697462, -0.07004738, -0.99739915), (-0.011092997, -0.06810123, -0.99761677), (-0.011937284, -0.06838074, -0.9975879), (-0.01697462, -0.07004738, -0.99739915), (0.14116508, 0.98977315, -0.020531224), (-1.4235116e-8, 0.99979585, -0.020207034), (-9.5282955e-9, 0.9997958, -0.020207033), (0.14129944, 0.98975396, -0.020532006), (-0.011092997, -0.06810123, -0.99761677), (-3.9488306e-9, -0.066420324, -0.99779177), (-4.051126e-9, -0.06642032, -0.9977917), (-0.011937284, -0.06838074, -0.9975879), (0.21026374, 0.9776447, -2.2387543e-7), (0.21026374, 0.9776447, -2.2387543e-7), (0.21026327, 0.9776448, -2.2311585e-7), (0.21026348, 0.9776448, -2.2341858e-7), (-0.984817, 0.17359535, -4.3822155e-8), (-0.9687065, 0.14124039, 0.20410495), (-0.95536655, 0.13004543, 0.26525995), (-0.984817, 0.17359535, -4.3822155e-8), (-0.095225975, -0.9954556, 2.3687868e-7), (-0.095225975, -0.9954556, 2.3687868e-7), (-0.095225975, -0.9954556, 2.3687868e-7), (-0.095225975, -0.9954556, 2.3687868e-7), (0.9848168, -0.17359717, 3.9899746e-8), (0.9848168, -0.17359717, 3.9899746e-8), (0.9848168, -0.17359717, 3.9899746e-8), (0.9848168, -0.17359717, 3.9899746e-8), (-0.13327248, -0.6571647, 0.7418712), (-0.13327248, -0.6571647, 0.7418712), (-0.09366166, -0.66719097, 0.7389747), (-0.08890081, -0.6683182, 0.73854417), (-0.101858884, -0.7304971, -0.6752768), (-0.1067298, -0.72965044, -0.6754399), (-0.150112, -0.72129774, -0.67616266), (-0.150112, -0.72129774, -0.67616266), (-0.1067298, -0.72965044, -0.6754399), (-0.101858884, -0.7304971, -0.6752768), (6.212961e-8, -0.73853284, -0.6742175), (6.134129e-8, -0.73853284, -0.67421746), (-7.406939e-9, -0.6779299, 0.7351266), (-9.152588e-9, -0.6779299, 0.7351266), (-0.08890081, -0.6683182, 0.73854417), (-0.09366166, -0.66719097, 0.7389747), (-0.20138855, -0.97928965, 0.020842902), (-0.13946314, -0.9900144, 0.02052952), (-0.13941807, -0.99002075, 0.02052926), (-0.20138855, -0.97928965, 0.020842902), (-0.55821747, -0.8296945, 1.9166636e-7), (-0.55821747, -0.8296945, 1.9166636e-7), (-0.55821747, -0.8296945, 1.9166636e-7), (-0.55821747, -0.8296945, 1.9166636e-7), (0.8296951, -0.55821675, 1.2839574e-7), (0.8296951, -0.55821675, 1.2839574e-7), (0.8296951, -0.55821675, 1.2839574e-7), (0.8296951, -0.55821675, 1.2839574e-7), (-0.65085536, -0.75920177, 1.6827887e-7), (-0.65085536, -0.75920177, 1.6827887e-7), (-0.65085536, -0.75920177, 1.6827887e-7), (-0.65085536, -0.75920177, 1.6827887e-7), (0.759202, -0.6508551, 1.5206298e-7), (0.759202, -0.6508551, 1.5206298e-7), (0.759202, -0.6508551, 1.5206298e-7), (0.759202, -0.6508551, 1.5206298e-7), (0.5582188, -0.82969385, 1.9166673e-7), (0.5582188, -0.82969385, 1.9166673e-7), (0.5582188, -0.82969385, 1.9166673e-7), (0.5582188, -0.82969385, 1.9166673e-7), (-0.8296949, -0.558217, 1.3381535e-7), (-0.8296949, -0.558217, 1.3381535e-7), (-0.8296949, -0.558217, 1.3381535e-7), (-0.8296949, -0.558217, 1.3381535e-7), (0.6508548, -0.75920224, 1.6827869e-7), (0.6508548, -0.75920224, 1.6827869e-7), (0.6508548, -0.75920224, 1.6827869e-7), (0.6508548, -0.75920224, 1.6827869e-7), (-0.75920177, -0.6508554, 1.46431e-7), (-0.75920177, -0.6508554, 1.46431e-7), (-0.75920177, -0.6508554, 1.46431e-7), (-0.75920177, -0.6508554, 1.46431e-7), (-0.06853849, 0.31867877, -0.9453815), (-0.06853849, 0.31867877, -0.9453815), (-0.06853849, 0.31867877, -0.9453815), (-0.06853873, 0.31867865, -0.9453816), (-0.06853872, 0.31867865, -0.9453816), (0.89503664, 0.44599268, -2.9485915e-7), (0.77512246, 0.4459964, -0.44751802), (0.77512383, 0.44599643, -0.44751558), (0.89503664, 0.44599262, -1.9990043e-7), (0.189581, 0.98186505, -4.9400245e-7), (0.16418178, 0.9818651, -0.0947908), (0.16418204, 0.9818651, -0.09479038), (0.189581, 0.98186505, -4.9591375e-7), (-0.6477843, 0.7618238, 4.9593133e-8), (-0.5609999, 0.7618216, 0.3238934), (-0.5609993, 0.7618216, 0.3238943), (-0.6477843, 0.7618238, 7.693343e-8), (-1, 0, 5.8926055e-8), (-0.9659264, 0, 0.25881672), (-0.9659264, 0, 0.25881672), (-1, 0, 1.4731519e-7), (-0.6477842, -0.7618239, 3.5902258e-7), (-0.56099933, -0.76182157, 0.32389453), (-0.5610001, -0.76182157, 0.3238932), (-0.64778423, -0.76182395, 3.9123478e-7), (0.18958034, -0.9818652, -8.163191e-9), (0.16418101, -0.9818654, -0.09478914), (0.16418068, -0.9818654, -0.09478969), (0.18958034, -0.9818652, 5.6781904e-9), (0.8950371, -0.44599155, 2.7259155e-8), (0.7751239, -0.44599542, -0.4475166), (0.77512246, -0.4459954, -0.4475189), (0.8950371, -0.44599164, 1.15837516e-7), (0.77512246, 0.4459964, -0.44751802), (0.447518, 0.4459975, -0.77512187), (0.4475164, 0.4459975, -0.77512276), (0.77512383, 0.44599643, -0.44751558), (0.16418178, 0.9818651, -0.0947908), (0.094790295, 0.9818652, -0.16418128), (0.09479012, 0.9818652, -0.1641814), (0.16418204, 0.9818651, -0.09479038), (-0.5609999, 0.7618216, 0.3238934), (-0.3238942, 0.76182145, 0.5609997), (-0.32389393, 0.76182145, 0.5609999), (-0.5609993, 0.7618216, 0.3238943), (-0.707106, 0, 0.70710766), (-0.707106, 0, 0.70710766), (-0.707106, 0, 0.70710766), (-0.707106, 0, 0.70710766), (-0.56099933, -0.76182157, 0.32389453), (-0.32389417, -0.76182115, 0.5610001), (-0.32389435, -0.76182115, 0.561), (-0.5610001, -0.76182157, 0.3238932), (0.16418101, -0.9818654, -0.09478914), (0.09478971, -0.9818654, -0.1641803), (0.09478987, -0.9818654, -0.1641802), (0.16418068, -0.9818654, -0.09478969), (0.7751239, -0.44599542, -0.4475166), (0.44751582, -0.4459968, -0.7751235), (0.44751742, -0.4459968, -0.7751226), (0.77512246, -0.4459954, -0.4475189), (0.447518, 0.4459975, -0.77512187), (1.7902161e-7, 0.445994, -0.895036), (2.1807317e-7, 0.445994, -0.8950359), (0.4475164, 0.4459975, -0.77512276), (0.094790295, 0.9818652, -0.16418128), (8.801198e-8, 0.9818652, -0.18958), (9.999904e-8, 0.9818652, -0.18958), (0.09479012, 0.9818652, -0.1641814), (-0.3238942, 0.76182145, 0.5609997), (4.4082803e-8, 0.7618228, 0.64778554), (8.5481574e-8, 0.76182276, 0.6477855), (-0.32389393, 0.76182145, 0.5609999), (-0.25881788, 0, 0.9659261), (1.473152e-7, 0, 1), (1.473152e-7, 0, 1), (-0.25881788, 0, 0.9659261), (-0.32389417, -0.76182115, 0.5610001), (8.548157e-8, -0.76182276, 0.6477854), (4.4082803e-8, -0.7618228, 0.64778554), (-0.32389435, -0.76182115, 0.561), (0.09478971, -0.9818654, -0.1641803), (9.795824e-8, -0.9818652, -0.18957998), (8.5172886e-8, -0.9818652, -0.18957998), (0.09478987, -0.9818654, -0.1641802), (0.44751582, -0.4459968, -0.7751235), (2.1807317e-7, -0.445994, -0.8950359), (1.7902161e-7, -0.445994, -0.895036), (0.44751742, -0.4459968, -0.7751226), (1.7902161e-7, 0.445994, -0.895036), (-0.4475184, 0.44599602, -0.77512246), (-0.4475162, 0.44599605, -0.7751238), (2.1807317e-7, 0.445994, -0.8950359), (8.801198e-8, 0.9818652, -0.18958), (-0.094790086, 0.9818652, -0.16418155), (-0.09478993, 0.9818652, -0.16418162), (9.999904e-8, 0.9818652, -0.18958), (4.4082803e-8, 0.7618228, 0.64778554), (0.3238939, 0.761821, 0.56100047), (0.32389405, 0.761821, 0.56100035), (8.5481574e-8, 0.76182276, 0.6477855), (1.473152e-7, 0, 1), (0.25881818, 0, 0.96592605), (0.25881818, 0, 0.96592605), (1.473152e-7, 0, 1), (8.548157e-8, -0.76182276, 0.6477854), (0.32389408, -0.7618211, 0.5610002), (0.3238939, -0.7618211, 0.56100035), (4.4082803e-8, -0.7618228, 0.64778554), (9.795824e-8, -0.9818652, -0.18957998), (-0.09478958, -0.9818653, -0.16418113), (-0.09478973, -0.9818653, -0.16418104), (8.5172886e-8, -0.9818652, -0.18957998), (2.1807317e-7, -0.445994, -0.8950359), (-0.4475163, -0.4459957, -0.77512383), (-0.4475185, -0.4459957, -0.7751225), (1.7902161e-7, -0.445994, -0.895036), (-0.4475184, 0.44599602, -0.77512246), (-0.7751226, 0.44599634, -0.4475178), (-0.77512383, 0.44599634, -0.44751585), (-0.4475162, 0.44599605, -0.7751238), (-0.094790086, 0.9818652, -0.16418155), (-0.16418193, 0.98186505, -0.094791494), (-0.16418214, 0.9818649, -0.09479113), (-0.09478993, 0.9818652, -0.16418162), (0.3238939, 0.761821, 0.56100047), (0.56099904, 0.761822, 0.32389414), (0.56099874, 0.7618219, 0.3238947), (0.32389405, 0.761821, 0.56100035), (0.707106, 0, 0.70710766), (0.707106, 0, 0.70710766), (0.707106, 0, 0.70710766), (0.707106, 0, 0.70710766), (0.32389408, -0.7618211, 0.5610002), (0.5609988, -0.7618221, 0.32389417), (0.5609991, -0.76182204, 0.3238937), (0.3238939, -0.7618211, 0.56100035), (-0.09478958, -0.9818653, -0.16418113), (-0.16418122, -0.9818653, -0.094790034), (-0.16418101, -0.9818652, -0.094790384), (-0.09478973, -0.9818653, -0.16418104), (-0.4475163, -0.4459957, -0.77512383), (-0.7751242, -0.44599542, -0.447516), (-0.77512306, -0.44599542, -0.4475179), (-0.4475185, -0.4459957, -0.7751225), (-0.7751226, 0.44599634, -0.4475178), (-0.8950361, 0.44599357, -4.21227e-7), (-0.89503616, 0.44599357, -3.634554e-7), (-0.77512383, 0.44599634, -0.44751585), (-0.16418193, 0.98186505, -0.094791494), (-0.18958133, 0.98186505, -7.665558e-7), (-0.18958133, 0.981865, -7.7754356e-7), (-0.16418214, 0.9818649, -0.09479113), (0.56099904, 0.761822, 0.32389414), (0.64778346, 0.76182455, 2.5898652e-7), (0.6477835, 0.76182455, 2.7354105e-7), (0.56099874, 0.7618219, 0.3238947), (0.9659264, 0, 0.25881672), (1, 0, 5.8926055e-8), (1, 0, 1.4731519e-7), (0.9659264, 0, 0.25881672), (0.5609988, -0.7618221, 0.32389417), (0.64778346, -0.76182455, 5.385338e-7), (0.64778346, -0.7618245, 5.785869e-7), (0.5609991, -0.76182204, 0.3238937), (-0.16418122, -0.9818653, -0.094790034), (-0.1895807, -0.9818651, 2.1020207e-7), (-0.18958071, -0.9818651, 2.2428854e-7), (-0.16418101, -0.9818652, -0.094790384), (-0.7751242, -0.44599542, -0.447516), (-0.8950367, -0.44599247, -2.0898689e-7), (-0.8950367, -0.4459925, -9.477607e-8), (-0.77512306, -0.44599542, -0.4475179), (-0.8950361, 0.44599357, -4.21227e-7), (-0.7751226, 0.44599718, 0.44751704), (-0.7751237, 0.44599718, 0.44751513), (-0.89503616, 0.44599357, -3.634554e-7), (-0.18958133, 0.98186505, -7.665558e-7), (-0.16418089, 0.9818653, 0.094789706), (-0.1641811, 0.98186535, 0.09478942), (-0.18958133, 0.981865, -7.7754356e-7), (0.64778346, 0.76182455, 2.5898652e-7), (0.5609993, 0.76182234, -0.32389295), (0.5609991, 0.7618222, -0.32389337), (0.6477835, 0.76182455, 2.7354105e-7), (1, 0, 5.8926055e-8), (0.96592647, 0, -0.2588165), (0.96592647, 0, -0.2588165), (1, 0, 1.4731519e-7), (0.64778346, -0.76182455, 5.385338e-7), (0.5609992, -0.7618224, -0.32389283), (0.56099945, -0.7618224, -0.32389238), (0.64778346, -0.7618245, 5.785869e-7), (-0.1895807, -0.9818651, 2.1020207e-7), (-0.16418105, -0.9818654, 0.094789326), (-0.16418087, -0.9818653, 0.09478962), (-0.18958071, -0.9818651, 2.2428854e-7), (-0.8950367, -0.44599247, -2.0898689e-7), (-0.7751239, -0.44599622, 0.44751576), (-0.77512276, -0.44599622, 0.4475178), (-0.8950367, -0.4459925, -9.477607e-8), (-0.7751226, 0.44599718, 0.44751704), (-0.4475169, 0.4459982, 0.77512217), (-0.44751525, 0.44599813, 0.77512306), (-0.7751237, 0.44599718, 0.44751513), (-0.16418089, 0.9818653, 0.094789706), (-0.09478979, 0.9818654, 0.16418028), (-0.09478949, 0.9818654, 0.16418047), (-0.1641811, 0.98186535, 0.09478942), (0.5609993, 0.76182234, -0.32389295), (0.3238939, 0.7618218, -0.56099945), (0.32389408, 0.76182175, -0.56099945), (0.5609991, 0.7618222, -0.32389337), (0.70710623, 0, -0.7071074), (0.70710623, 0, -0.7071074), (0.70710623, 0, -0.7071074), (0.70710623, 0, -0.7071074), (0.5609992, -0.7618224, -0.32389283), (0.32389387, -0.7618223, -0.5609987), (0.32389364, -0.76182234, -0.5609988), (0.56099945, -0.7618224, -0.32389238), (-0.16418105, -0.9818654, 0.094789326), (-0.09478973, -0.9818655, 0.16417976), (-0.09479003, -0.98186547, 0.16417956), (-0.16418087, -0.9818653, 0.09478962), (-0.7751239, -0.44599622, 0.44751576), (-0.4475154, -0.4459973, 0.7751235), (-0.44751695, -0.44599727, 0.7751225), (-0.77512276, -0.44599622, 0.4475178), (-0.4475169, 0.4459982, 0.77512217), (9.477607e-8, 0.4459953, 0.89503527), (9.086379e-8, 0.44599533, 0.8950353), (-0.44751525, 0.44599813, 0.77512306), (-0.09478979, 0.9818654, 0.16418028), (-1.9873664e-8, 0.9818653, 0.18957978), (-2.6530378e-8, 0.9818653, 0.18957978), (-0.09478949, 0.9818654, 0.16418047), (0.3238939, 0.7618218, -0.56099945), (1.2673794e-7, 0.76182294, -0.64778537), (1.4531875e-7, 0.761823, -0.6477853), (0.32389408, 0.76182175, -0.56099945), (0.25881672, 0, -0.9659264), (0, 0.0000013864576, -1), (0, 0.0000013864576, -1), (0.25881672, 0, -0.9659264), (0.32389387, -0.7618223, -0.5609987), (-2.9063727e-7, -0.7618247, -0.64778316), (-2.4796583e-7, -0.7618248, -0.6477832), (0.32389364, -0.76182234, -0.5609988), (-0.09478973, -0.9818655, 0.16417976), (-3.0611954e-8, -0.9818653, 0.1895798), (-1.9873664e-8, -0.9818653, 0.18957978), (-0.09479003, -0.98186547, 0.16417956), (-0.4475154, -0.4459973, 0.7751235), (-1.8172763e-8, -0.44599447, 0.89503574), (-1.0530674e-8, -0.4459945, 0.8950357), (-0.44751695, -0.44599727, 0.7751225), (9.477607e-8, 0.4459953, 0.89503527), (0.44751713, 0.4459979, 0.77512217), (0.44751555, 0.4459979, 0.77512306), (9.086379e-8, 0.44599533, 0.8950353), (-1.9873664e-8, 0.9818653, 0.18957978), (0.094789796, 0.9818653, 0.16418083), (0.09478961, 0.98186535, 0.16418095), (-2.6530378e-8, 0.9818653, 0.18957978), (1.2673794e-7, 0.76182294, -0.64778537), (-0.32389393, 0.76182204, -0.560999), (-0.32389364, 0.76182204, -0.56099916), (1.4531875e-7, 0.761823, -0.6477853), (0, 0.0000013864576, -1), (-0.25881672, 0.0000026784319, -0.9659264), (-0.25881672, 0.0000026784319, -0.9659264), (0, 0.0000013864576, -1), (-2.9063727e-7, -0.7618247, -0.64778316), (-0.32389322, -0.7618234, -0.5609976), (-0.32389295, -0.7618234, -0.5609977), (-2.4796583e-7, -0.7618248, -0.6477832), (-3.0611954e-8, -0.9818653, 0.1895798), (0.094789825, -0.98186535, 0.16418068), (0.094790004, -0.9818654, 0.16418059), (-1.9873664e-8, -0.9818653, 0.18957978), (-1.8172763e-8, -0.44599447, 0.89503574), (0.44751564, -0.4459966, 0.7751237), (0.44751722, -0.44599658, 0.7751228), (-1.0530674e-8, -0.4459945, 0.8950357), (0.44751713, 0.4459979, 0.77512217), (0.7751228, 0.44599605, 0.44751778), (0.7751242, 0.44599602, 0.44751537), (0.44751555, 0.4459979, 0.77512306), (0.094789796, 0.9818653, 0.16418083), (0.16418089, 0.9818653, 0.09478977), (0.16418107, 0.9818653, 0.09478946), (0.09478961, 0.98186535, 0.16418095), (-0.32389393, 0.76182204, -0.560999), (-0.5609994, 0.7618223, -0.32389262), (-0.56099916, 0.7618223, -0.32389304), (-0.32389364, 0.76182204, -0.56099916), (-0.70710623, 0.00000183663, -0.7071074), (-0.70710623, 0.00000183663, -0.7071074), (-0.70710623, 0.00000183663, -0.7071074), (-0.70710623, 0.00000183663, -0.7071074), (-0.32389322, -0.7618234, -0.5609976), (-0.56099856, -0.76182294, -0.3238927), (-0.56099886, -0.76182294, -0.32389224), (-0.32389295, -0.7618234, -0.5609977), (0.094789825, -0.98186535, 0.16418068), (0.16418105, -0.9818654, 0.09478935), (0.16418085, -0.9818653, 0.094789654), (0.094790004, -0.9818654, 0.16418059), (0.44751564, -0.4459966, 0.7751237), (0.77512443, -0.44599485, 0.4475161), (0.77512306, -0.44599476, 0.44751856), (0.44751722, -0.44599658, 0.7751228), (0.7751228, 0.44599605, 0.44751778), (0.89503664, 0.44599268, -2.9485915e-7), (0.89503664, 0.44599262, -1.9990043e-7), (0.7751242, 0.44599602, 0.44751537), (0.16418089, 0.9818653, 0.09478977), (0.189581, 0.98186505, -4.9400245e-7), (0.189581, 0.98186505, -4.9591375e-7), (0.16418107, 0.9818653, 0.09478946), (-0.5609994, 0.7618223, -0.32389262), (-0.6477843, 0.7618238, 4.9593133e-8), (-0.6477843, 0.7618238, 7.693343e-8), (-0.56099916, 0.7618223, -0.32389304), (-0.96592647, 0, -0.2588165), (-1, 0, 5.8926055e-8), (-1, 0, 1.4731519e-7), (-0.96592647, 0, -0.2588165), (-0.56099856, -0.76182294, -0.3238927), (-0.6477842, -0.7618239, 3.5902258e-7), (-0.64778423, -0.76182395, 3.9123478e-7), (-0.56099886, -0.76182294, -0.32389224), (0.16418105, -0.9818654, 0.09478935), (0.18958034, -0.9818652, -8.163191e-9), (0.18958034, -0.9818652, 5.6781904e-9), (0.16418085, -0.9818653, 0.094789654), (0.77512443, -0.44599485, 0.4475161), (0.8950371, -0.44599155, 2.7259155e-8), (0.8950371, -0.44599164, 1.15837516e-7), (0.77512306, -0.44599476, 0.44751856), (-2.986551e-7, -1.7830155e-8, -1), (-2.698835e-7, 0.25881982, -0.96592563), (0.10527365, 0.23644368, -0.9659254), (-6.738017e-7, 0.87412465, -0.48570174), (-0.000001012188, 1, -0.0000011627186), (0.4067353, 0.9135461, -6.8517323e-7), (0.35553735, 0.79855335, -0.4857011), (4.3720019e-7, 0.8741246, 0.48570165), (0.0000012277078, 0.70710576, 0.7071078), (0.28760588, 0.6459734, 0.70710766), (0.35553855, 0.7985527, 0.48570147), (-5.963155e-7, 0.7071077, -0.7071059), (-6.738017e-7, 0.87412465, -0.48570174), (0.35553735, 0.79855335, -0.4857011), (0.28760615, 0.645975, -0.70710605), (-0.000001012188, 1, -0.0000011627186), (4.3720019e-7, 0.8741246, 0.48570165), (0.35553855, 0.7985527, 0.48570147), (0.4067353, 0.9135461, -6.8517323e-7), (-2.6988351e-7, 0.25881952, 0.9659257), (-0.000001418771, -1.4136766e-7, 1), (0.10527386, 0.2364432, 0.9659255), (0.35553855, 0.7985527, 0.48570147), (0.28760588, 0.6459734, 0.70710766), (0.52548134, 0.47314554, 0.70710874), (0.6496011, 0.5849035, 0.4857019), (0.28760615, 0.645975, -0.70710605), (0.35553735, 0.79855335, -0.4857011), (0.64960134, 0.5849038, -0.48570114), (0.5254829, 0.4731471, -0.7071064), (0.4067353, 0.9135461, -6.8517323e-7), (0.35553855, 0.7985527, 0.48570147), (0.6496011, 0.5849035, 0.4857019), (0.74314463, 0.66913086, -4.879265e-7), (0.10527386, 0.2364432, 0.9659255), (-0.000001418771, -1.4136766e-7, 1), (0.1923389, 0.17318389, 0.965926), (-2.986551e-7, -1.7830155e-8, -1), (0.10527365, 0.23644368, -0.9659254), (0.19234043, 0.17318419, -0.9659257), (0.35553735, 0.79855335, -0.4857011), (0.4067353, 0.9135461, -6.8517323e-7), (0.74314463, 0.66913086, -4.879265e-7), (0.64960134, 0.5849038, -0.48570114), (0.5254829, 0.4731471, -0.7071064), (0.64960134, 0.5849038, -0.48570114), (0.8313421, 0.27011812, -0.48570216), (0.6724985, 0.21850681, -0.7071072), (0.74314463, 0.66913086, -4.879265e-7), (0.6496011, 0.5849035, 0.4857019), (0.8313417, 0.27011892, 0.4857023), (0.9510568, 0.30901623, -8.6684827e-7), (0.1923389, 0.17318389, 0.965926), (-0.000001418771, -1.4136766e-7, 1), (0.2461561, 0.079979025, 0.9659247), (-2.986551e-7, -1.7830155e-8, -1), (0.19234043, 0.17318419, -0.9659257), (0.24615599, 0.079979025, -0.9659248), (0.64960134, 0.5849038, -0.48570114), (0.74314463, 0.66913086, -4.879265e-7), (0.9510568, 0.30901623, -8.6684827e-7), (0.8313421, 0.27011812, -0.48570216), (0.6496011, 0.5849035, 0.4857019), (0.52548134, 0.47314554, 0.70710874), (0.67249686, 0.21850689, 0.7071087), (0.8313417, 0.27011892, 0.4857023), (0.6724985, 0.21850681, -0.7071072), (0.8313421, 0.27011812, -0.48570216), (0.8693355, -0.091371335, -0.4857026), (0.7032328, -0.07391333, -0.70710707), (0.9510568, 0.30901623, -8.6684827e-7), (0.8313417, 0.27011892, 0.4857023), (0.8693359, -0.09137115, 0.48570204), (0.9945219, -0.104528375, -0.0000012301978), (0.2461561, 0.079979025, 0.9659247), (-0.000001418771, -1.4136766e-7, 1), (0.257403, -0.027054098, 0.9659253), (-2.986551e-7, -1.7830155e-8, -1), (0.24615599, 0.079979025, -0.9659248), (0.25740743, -0.027054008, -0.96592414), (0.8313421, 0.27011812, -0.48570216), (0.9510568, 0.30901623, -8.6684827e-7), (0.9945219, -0.104528375, -0.0000012301978), (0.8693355, -0.091371335, -0.4857026), (0.8313417, 0.27011892, 0.4857023), (0.67249686, 0.21850689, 0.7071087), (0.7032316, -0.07391294, 0.7071084), (0.8693359, -0.09137115, 0.48570204), (0.7032328, -0.07391333, -0.70710707), (0.8693355, -0.091371335, -0.4857026), (0.75701374, -0.4370624, -0.48570225), (0.6123731, -0.35355362, -0.70710605), (0.9945219, -0.104528375, -0.0000012301978), (0.8693359, -0.09137115, 0.48570204), (0.7570137, -0.43706208, 0.48570263), (0.8660256, -0.4999995, -9.862354e-7), (0.257403, -0.027054098, 0.9659253), (-0.000001418771, -1.4136766e-7, 1), (0.22414531, -0.12940942, 0.9659255), (-2.986551e-7, -1.7830155e-8, -1), (0.25740743, -0.027054008, -0.96592414), (0.22414948, -0.12940907, -0.96592456), (0.8693355, -0.091371335, -0.4857026), (0.9945219, -0.104528375, -0.0000012301978), (0.8660256, -0.4999995, -9.862354e-7), (0.75701374, -0.4370624, -0.48570225), (0.8693359, -0.09137115, 0.48570204), (0.7032316, -0.07391294, 0.7071084), (0.6123712, -0.35355267, 0.70710814), (0.7570137, -0.43706208, 0.48570263), (0.6123731, -0.35355362, -0.70710605), (0.75701374, -0.4370624, -0.48570225), (0.51379746, -0.7071819, -0.4857015), (0.41562748, -0.57206285, -0.7071052), (0.8660256, -0.4999995, -9.862354e-7), (0.7570137, -0.43706208, 0.48570263), (0.51379764, -0.70718104, 0.48570266), (0.58778584, -0.8090165, -6.1250364e-7), (0.22414531, -0.12940942, 0.9659255), (-0.000001418771, -1.4136766e-7, 1), (0.15213278, -0.20938948, 0.96592534), (-2.986551e-7, -1.7830155e-8, -1), (0.22414948, -0.12940907, -0.96592456), (0.15212883, -0.20938931, -0.96592593), (0.75701374, -0.4370624, -0.48570225), (0.8660256, -0.4999995, -9.862354e-7), (0.58778584, -0.8090165, -6.1250364e-7), (0.51379746, -0.7071819, -0.4857015), (0.7570137, -0.43706208, 0.48570263), (0.6123712, -0.35355267, 0.70710814), (0.41562495, -0.5720607, 0.7071085), (0.51379764, -0.70718104, 0.48570266), (0.58778584, -0.8090165, -6.1250364e-7), (0.51379764, -0.70718104, 0.48570266), (0.18173985, -0.8550226, 0.48570246), (0.20791233, -0.9781475, -7.318903e-7), (0.15213278, -0.20938948, 0.96592534), (-0.000001418771, -1.4136766e-7, 1), (0.05381228, -0.25316387, 0.9659256), (-2.986551e-7, -1.7830155e-8, -1), (0.15212883, -0.20938931, -0.96592593), (0.053808764, -0.25316408, -0.9659257), (0.51379746, -0.7071819, -0.4857015), (0.58778584, -0.8090165, -6.1250364e-7), (0.20791233, -0.9781475, -7.318903e-7), (0.18174054, -0.8550232, -0.48570138), (0.51379764, -0.70718104, 0.48570266), (0.41562495, -0.5720607, 0.7071085), (0.14701399, -0.69165343, 0.7071085), (0.18173985, -0.8550226, 0.48570246), (0.41562748, -0.57206285, -0.7071052), (0.51379746, -0.7071819, -0.4857015), (0.18174054, -0.8550232, -0.48570138), (0.14701568, -0.6916562, -0.7071055), (0.05381228, -0.25316387, 0.9659256), (-0.000001418771, -1.4136766e-7, 1), (-0.05381714, -0.25316355, 0.96592546), (-2.986551e-7, -1.7830155e-8, -1), (0.053808764, -0.25316408, -0.9659257), (-0.05381234, -0.25316432, -0.96592546), (0.18174054, -0.8550232, -0.48570138), (0.20791233, -0.9781475, -7.318903e-7), (-0.20791203, -0.97814745, -7.9936876e-7), (-0.18174033, -0.8550232, -0.48570135), (0.18173985, -0.8550226, 0.48570246), (0.14701399, -0.69165343, 0.7071085), (-0.14701615, -0.69165295, 0.70710856), (-0.18174128, -0.8550226, 0.485702), (0.14701568, -0.6916562, -0.7071055), (0.18174054, -0.8550232, -0.48570138), (-0.18174033, -0.8550232, -0.48570135), (-0.14701557, -0.69165564, -0.707106), (0.20791233, -0.9781475, -7.318903e-7), (0.18173985, -0.8550226, 0.48570246), (-0.18174128, -0.8550226, 0.485702), (-0.20791203, -0.97814745, -7.9936876e-7), (-2.986551e-7, -1.7830155e-8, -1), (-0.05381234, -0.25316432, -0.96592546), (-0.15212892, -0.20939006, -0.9659258), (-0.18174033, -0.8550232, -0.48570135), (-0.20791203, -0.97814745, -7.9936876e-7), (-0.5877851, -0.80901706, -5.761688e-7), (-0.5137973, -0.7071821, -0.4857014), (-0.18174128, -0.8550226, 0.485702), (-0.14701615, -0.69165295, 0.70710856), (-0.4156259, -0.57206017, 0.70710844), (-0.51379734, -0.70718145, 0.48570222), (-0.14701557, -0.69165564, -0.707106), (-0.18174033, -0.8550232, -0.48570135), (-0.5137973, -0.7071821, -0.4857014), (-0.41562712, -0.57206196, -0.70710623), (-0.20791203, -0.97814745, -7.9936876e-7), (-0.18174128, -0.8550226, 0.485702), (-0.51379734, -0.70718145, 0.48570222), (-0.5877851, -0.80901706, -5.761688e-7), (-0.05381714, -0.25316355, 0.96592546), (-0.000001418771, -1.4136766e-7, 1), (-0.15213825, -0.2093897, 0.9659244), (-2.986551e-7, -1.7830155e-8, -1), (-0.15212892, -0.20939006, -0.9659258), (-0.22414596, -0.12940976, -0.9659253), (-0.5137973, -0.7071821, -0.4857014), (-0.5877851, -0.80901706, -5.761688e-7), (-0.8660259, -0.49999908, -7.215084e-7), (-0.75701517, -0.43706074, -0.48570156), (-0.51379734, -0.70718145, 0.48570222), (-0.4156259, -0.57206017, 0.70710844), (-0.61237013, -0.35355255, 0.70710915), (-0.75701374, -0.43706226, 0.48570234), (-0.41562712, -0.57206196, -0.70710623), (-0.5137973, -0.7071821, -0.4857014), (-0.75701517, -0.43706074, -0.48570156), (-0.61237323, -0.3535523, -0.70710665), (-0.5877851, -0.80901706, -5.761688e-7), (-0.51379734, -0.70718145, 0.48570222), (-0.75701374, -0.43706226, 0.48570234), (-0.8660259, -0.49999908, -7.215084e-7), (-0.15213825, -0.2093897, 0.9659244), (-0.000001418771, -1.4136766e-7, 1), (-0.22414821, -0.12941006, 0.96592474), (-2.986551e-7, -1.7830155e-8, -1), (-0.22414596, -0.12940976, -0.9659253), (-0.25740802, -0.027053982, -0.96592396), (-0.75701517, -0.43706074, -0.48570156), (-0.8660259, -0.49999908, -7.215084e-7), (-0.9945219, -0.104527965, -9.758523e-7), (-0.8693361, -0.09137027, -0.48570174), (-0.75701374, -0.43706226, 0.48570234), (-0.61237013, -0.35355255, 0.70710915), (-0.70323014, -0.07391235, 0.70710987), (-0.86933565, -0.09137065, 0.48570248), (-0.61237323, -0.3535523, -0.70710665), (-0.75701517, -0.43706074, -0.48570156), (-0.8693361, -0.09137027, -0.48570174), (-0.70323354, -0.0739127, -0.7071064), (-0.8660259, -0.49999908, -7.215084e-7), (-0.75701374, -0.43706226, 0.48570234), (-0.86933565, -0.09137065, 0.48570248), (-0.9945219, -0.104527965, -9.758523e-7), (-0.22414821, -0.12941006, 0.96592474), (-0.000001418771, -1.4136766e-7, 1), (-0.25740588, -0.027054023, 0.9659246), (-0.8693361, -0.09137027, -0.48570174), (-0.9945219, -0.104527965, -9.758523e-7), (-0.9510564, 0.30901715, -7.786062e-7), (-0.8313423, 0.27011883, -0.48570138), (-0.86933565, -0.09137065, 0.48570248), (-0.70323014, -0.07391235, 0.70710987), (-0.67249644, 0.21850683, 0.7071091), (-0.83134156, 0.27011955, 0.48570222), (-0.70323354, -0.0739127, -0.7071064), (-0.8693361, -0.09137027, -0.48570174), (-0.8313423, 0.27011883, -0.48570138), (-0.67249864, 0.21850744, -0.7071068), (-0.9945219, -0.104527965, -9.758523e-7), (-0.86933565, -0.09137065, 0.48570248), (-0.83134156, 0.27011955, 0.48570222), (-0.9510564, 0.30901715, -7.786062e-7), (-0.25740588, -0.027054023, 0.9659246), (-0.000001418771, -1.4136766e-7, 1), (-0.24615669, 0.079979144, 0.9659245), (-2.986551e-7, -1.7830155e-8, -1), (-0.25740802, -0.027053982, -0.96592396), (-0.2461566, 0.079979144, -0.9659246), (-0.83134156, 0.27011955, 0.48570222), (-0.67249644, 0.21850683, 0.7071091), (-0.5254824, 0.47314608, 0.7071074), (-0.6496014, 0.5849036, 0.48570132), (-0.67249864, 0.21850744, -0.7071068), (-0.8313423, 0.27011883, -0.48570138), (-0.6496005, 0.5849045, -0.48570138), (-0.5254823, 0.47314852, -0.707106), (-0.9510564, 0.30901715, -7.786062e-7), (-0.83134156, 0.27011955, 0.48570222), (-0.6496014, 0.5849036, 0.48570132), (-0.74314445, 0.6691311, -7.05936e-7), (-0.24615669, 0.079979144, 0.9659245), (-0.000001418771, -1.4136766e-7, 1), (-0.19233903, 0.17318426, 0.965926), (-2.986551e-7, -1.7830155e-8, -1), (-0.2461566, 0.079979144, -0.9659246), (-0.19234052, 0.17318453, -0.9659256), (-0.8313423, 0.27011883, -0.48570138), (-0.9510564, 0.30901715, -7.786062e-7), (-0.74314445, 0.6691311, -7.05936e-7), (-0.6496005, 0.5849045, -0.48570138), (-0.5254823, 0.47314852, -0.707106), (-0.6496005, 0.5849045, -0.48570138), (-0.35553834, 0.7985528, -0.4857015), (-0.28760642, 0.6459759, -0.7071051), (-0.74314445, 0.6691311, -7.05936e-7), (-0.6496014, 0.5849036, 0.48570132), (-0.35553864, 0.7985525, 0.48570186), (-0.40673712, 0.9135453, -0.0000014066821), (-0.19233903, 0.17318426, 0.965926), (-0.000001418771, -1.4136766e-7, 1), (-0.10527419, 0.2364437, 0.96592534), (-2.986551e-7, -1.7830155e-8, -1), (-0.19234052, 0.17318453, -0.9659256), (-0.10527398, 0.23644419, -0.9659252), (-0.6496005, 0.5849045, -0.48570138), (-0.74314445, 0.6691311, -7.05936e-7), (-0.40673712, 0.9135453, -0.0000014066821), (-0.35553834, 0.7985528, -0.4857015), (-0.6496014, 0.5849036, 0.48570132), (-0.5254824, 0.47314608, 0.7071074), (-0.287605, 0.64597374, 0.7071077), (-0.35553864, 0.7985525, 0.48570186), (-0.28760642, 0.6459759, -0.7071051), (-0.35553834, 0.7985528, -0.4857015), (-6.738017e-7, 0.87412465, -0.48570174), (-5.963155e-7, 0.7071077, -0.7071059), (-0.40673712, 0.9135453, -0.0000014066821), (-0.35553864, 0.7985525, 0.48570186), (4.3720019e-7, 0.8741246, 0.48570165), (-0.000001012188, 1, -0.0000011627186), (-0.10527419, 0.2364437, 0.96592534), (-0.000001418771, -1.4136766e-7, 1), (-2.6988351e-7, 0.25881952, 0.9659257), (-2.986551e-7, -1.7830155e-8, -1), (-0.10527398, 0.23644419, -0.9659252), (-2.698835e-7, 0.25881982, -0.96592563), (-0.35553834, 0.7985528, -0.4857015), (-0.40673712, 0.9135453, -0.0000014066821), (-0.000001012188, 1, -0.0000011627186), (-6.738017e-7, 0.87412465, -0.48570174), (-0.35553864, 0.7985525, 0.48570186), (-0.287605, 0.64597374, 0.7071077), (0.0000012277078, 0.70710576, 0.7071078), (4.3720019e-7, 0.8741246, 0.48570165), (0, -1, -2.551738e-8), (0, -1, 1.0726027e-14), (0, -1, 0), (0, -1, -2.551738e-8), (0, -1, 1.0726027e-14), (0, -1, 2.551738e-8), (0, -1, 2.551738e-8), (0, -1, 0), (0, -0.41024774, 0.91197413), (0, -0.41024774, 0.91197413), (0, -0.41024774, 0.91197413), (0, -0.41024774, 0.91197413), (0, -0.4102483, -0.9119739), (0, -0.4102483, -0.9119739), (0, -0.4102483, -0.9119739), (0, -0.4102483, -0.9119739), (-0.79231024, -0.5197036, 0.31961307), (-0.79231024, -0.5197036, 0.31961307), (-0.79231024, -0.5197036, 0.31961307), (-0.79231024, -0.5197036, 0.31961307), (0.7923109, -0.5197036, 0.31961185), (0.7923109, -0.5197036, 0.31961185), (0.7923109, -0.5197036, 0.31961185), (0.7923109, -0.5197036, 0.31961185), (-0.7923098, -0.5197042, -0.3196131), (-0.7923098, -0.5197042, -0.3196131), (-0.7923098, -0.5197042, -0.3196131), (-0.7923098, -0.5197042, -0.3196131), (0.79231036, -0.5197039, -0.31961265), (0.79231036, -0.5197039, -0.31961265), (0.79231036, -0.5197039, -0.31961265), (0.79231036, -0.5197039, -0.31961265)] (
                interpolation = "faceVarying"
            )
            point3f[] points = [(0.6399354, -0.38052276, 0.07998943), (1.2374177, -0.25202143, 0.07998943), (1.2374177, -0.2520208, 2.7241635), (0.6399354, -0.38052198, 3.4525084), (0.023414612, -0.40662712, 0.07998943), (0.60427433, -0.35106164, 0.07998943), (0.60427433, -0.35106087, 3.4969568), (0.023414612, -0.4066263, 3.6606069), (1.2087444, -0.35423285, 2.5018237), (1.2126349, -0.36585057, 1.9184409), (0.59263396, -0.49338627, 1.9168459), (0.5887435, -0.48176855, 2.5002286), (1.0451516, -0.42554012, 0.035437107), (1.0227052, -0.29820004, 0.07998943), (1.0451516, -0.4255394, 3.1495159), (1.0227052, -0.29819933, 3.194068), (1.2194957, -0.39438128, 2.5048263), (1.2366662, -0.458181, 2.4452264), (1.2396995, -0.46723777, 1.9903944), (1.2233855, -0.40599635, 1.9214432), (0.6196984, -0.5947734, 1.9887996), (0.60338473, -0.533532, 1.9198484), (0.5994948, -0.521917, 2.5032313), (0.61666536, -0.58571666, 2.4436316), (-0.64047635, -0.38052276, 0.07998943), (-1.2379588, -0.25202143, 0.07998943), (-1.2379588, -0.2520208, 2.7241635), (-0.64047635, -0.38052198, 3.4525084), (-0.023955584, -0.40662712, 0.07998943), (-0.60481524, -0.35106164, 0.07998943), (-0.60481524, -0.35106087, 3.4969568), (-0.023955584, -0.4066263, 3.6606069), (-1.2159055, -0.35287112, 2.5018408), (-1.2197956, -0.36448884, 1.918458), (-0.59317493, -0.49338627, 1.9168459), (-0.5892844, -0.48176855, 2.5002286), (-0.00027048588, -0.54114, 1.9167156), (-0.00027048588, -0.5295223, 2.4985197), (-1.0456923, -0.42554012, 0.035437107), (-1.0232462, -0.29820004, 0.07998943), (-1.0456923, -0.4255394, 3.1495159), (-1.0232462, -0.29819933, 3.194068), (-1.2266568, -0.39301953, 2.5048432), (-1.2438272, -0.45681924, 2.4452436), (-1.2468604, -0.465876, 1.9904114), (-1.2305464, -0.4046346, 1.9214603), (-0.62023926, -0.5947734, 1.9887996), (-0.6039256, -0.533532, 1.9198484), (-0.60003567, -0.521917, 2.5032313), (-0.61720634, -0.58571666, 2.4436316), (-0.00027048588, -0.57994264, 1.9190333), (-0.00027048588, -0.642524, 1.987125), (-0.00027048588, -0.63347304, 2.4403737), (-0.00027048588, -0.56832224, 2.500837), (0.72789663, -0.49377206, 0.035437107), (0.65074867, -0.44186696, 0.058526993), (1.2482309, -0.31336564, 0.058526993), (1.1943494, -0.3934515, 0.035437107), (1.1943494, -0.3934509, 2.8018522), (1.2482309, -0.313365, 2.702701), (0.65074867, -0.4418662, 3.4310462), (0.72789663, -0.4937713, 3.3518634), (0.09761894, -0.52933115, 0.035437107), (0.027025819, -0.46881244, 0.058526993), (0.6078855, -0.41324696, 0.058526993), (0.5450621, -0.48652843, 0.035437107), (0.5450621, -0.48652765, 3.4711988), (0.6078855, -0.41324618, 3.4754944), (0.027025819, -0.4688116, 3.6391444), (0.09761894, -0.5293303, 3.5972605), (-0.6512897, -0.44186696, 0.058526993), (-0.72843754, -0.4937721, 0.035437107), (-1.1948904, -0.3934515, 0.035437107), (-1.248772, -0.31336567, 0.058526993), (-1.248772, -0.313365, 2.702701), (-1.1948904, -0.39345086, 2.8711348), (-0.72843754, -0.4937713, 3.3518634), (-0.6512897, -0.4418662, 3.431046), (-0.027566671, -0.4688124, 0.058526993), (-0.09815991, -0.52933115, 0.035437107), (-0.54560304, -0.4865284, 0.035437107), (-0.60842645, -0.41324696, 0.058526993), (-0.60842645, -0.41324618, 3.4754944), (-0.54560304, -0.48652765, 3.471199), (-0.09815991, -0.5293303, 3.5972605), (-0.027566671, -0.4688116, 3.6391444), (0.3720665, -0.67090684, 1.8916879), (0.3515334, -0.6297001, 1.8916879), (0.30712688, -0.621126, 1.8916879), (0.27380276, -0.64946145, 1.8916879), (0.27380276, -0.69235235, 1.8916879), (0.30712688, -0.7206878, 1.8916879), (0.3515334, -0.7121137, 1.8916879), (0.32218283, -0.6709069, 1.705519), (0.30440068, -0.6297002, 1.715786), (0.2659433, -0.62112594, 1.7379898), (0.23708427, -0.64946145, 1.7546513), (0.23708427, -0.69235235, 1.7546513), (0.2659433, -0.72068787, 1.7379899), (0.30440068, -0.71211374, 1.715786), (0.18589854, -0.67090696, 1.5692346), (0.17563152, -0.6297002, 1.587017), (0.15342796, -0.62112606, 1.6254745), (0.1367662, -0.6494615, 1.6543334), (0.1367662, -0.6923524, 1.6543334), (0.15342796, -0.72068787, 1.6254745), (0.17563152, -0.71211374, 1.587017), (-0.00027036667, -0.67090696, 1.519351), (-0.00027036667, -0.6297002, 1.5398841), (-0.00027036667, -0.62112606, 1.5842907), (-0.00027036667, -0.6494615, 1.6176147), (-0.00027036667, -0.6923524, 1.6176147), (-0.00027036667, -0.72068787, 1.5842907), (-0.00027036667, -0.71211374, 1.5398841), (-0.18643916, -0.67090696, 1.5692346), (-0.17617214, -0.6297002, 1.5870168), (-0.15396845, -0.62112606, 1.6254745), (-0.13730681, -0.6494615, 1.6543334), (-0.13730681, -0.6923524, 1.6543334), (-0.15396845, -0.72068787, 1.6254745), (-0.17617214, -0.71211374, 1.5870168), (-0.3227235, -0.6709069, 1.705519), (-0.30494118, -0.6297002, 1.715786), (-0.2664839, -0.62112594, 1.7379897), (-0.23762488, -0.64946145, 1.7546513), (-0.23762488, -0.69235235, 1.7546513), (-0.2664839, -0.72068787, 1.7379897), (-0.30494118, -0.71211374, 1.715786), (-0.372607, -0.67090684, 1.8916879), (-0.35207403, -0.6297001, 1.8916879), (-0.3076676, -0.621126, 1.8916879), (-0.27434337, -0.64946145, 1.8916879), (-0.27434337, -0.69235235, 1.8916879), (-0.3076676, -0.7206878, 1.8916879), (-0.35207403, -0.7121137, 1.8916879), (-0.32272363, -0.6709068, 2.0778568), (-0.3049413, -0.62970006, 2.0675898), (-0.2664839, -0.62112594, 2.045386), (-0.23762488, -0.6494614, 2.0287244), (-0.23762488, -0.6923523, 2.0287244), (-0.2664839, -0.72068775, 2.045386), (-0.3049413, -0.7121136, 2.0675898), (-0.18643916, -0.6709068, 2.2141414), (-0.17617214, -0.62970006, 2.196359), (-0.15396845, -0.62112594, 2.1579015), (-0.13730681, -0.6494614, 2.1290426), (-0.13730681, -0.6923523, 2.1290426), (-0.15396845, -0.72068775, 2.1579015), (-0.17617214, -0.7121136, 2.196359), (-0.00027036667, -0.6709068, 2.2640247), (-0.00027036667, -0.62970006, 2.2434916), (-0.00027036667, -0.62112594, 2.199085), (-0.00027036667, -0.6494614, 2.165761), (-0.00027036667, -0.6923523, 2.165761), (-0.00027036667, -0.72068775, 2.1990852), (-0.00027036667, -0.7121136, 2.2434916), (0.18589854, -0.6709068, 2.2141414), (0.17563152, -0.62970006, 2.196359), (0.15342796, -0.62112594, 2.1579015), (0.1367662, -0.6494614, 2.1290426), (0.1367662, -0.6923523, 2.1290424), (0.15342796, -0.72068775, 2.1579015), (0.17563152, -0.7121136, 2.196359), (0.32218283, -0.6709068, 2.0778568), (0.30440068, -0.62970006, 2.0675898), (0.2659433, -0.62112594, 2.045386), (0.23708427, -0.6494614, 2.0287244), (0.23708427, -0.6923523, 2.0287244), (0.2659433, -0.72068775, 2.045386), (0.30440068, -0.7121136, 2.0675898), (-0.00027036667, -0.61054265, 2.3160813), (-0.00027036667, -0.5663531, 2.2718918), (-0.00027036667, -0.55017865, 2.2115276), (-0.00027036667, -0.6105428, 2.106974), (0.024281979, -0.6157614, 2.3160813), (0.04225552, -0.57539225, 2.2718918), (0.048834205, -0.56061614, 2.2115276), (0.04225552, -0.57539225, 2.1511636), (0.024281979, -0.6157615, 2.106974), (0.044589043, -0.63051534, 2.3160813), (0.07742834, -0.6009467, 2.2718918), (0.08944821, -0.5901239, 2.2115276), (0.07742834, -0.6009467, 2.1511636), (0.044589043, -0.63051534, 2.106974), (0.057139397, -0.65225327, 2.3160813), (0.099166155, -0.63859797, 2.2718918), (0.11454904, -0.63359976, 2.2115276), (0.099166155, -0.63859797, 2.1511636), (0.057139397, -0.65225327, 2.106974), (0.059763074, -0.67721653, 2.3160813), (0.10371065, -0.68183565, 2.2718918), (0.119796515, -0.6835263, 2.2115276), (0.10371053, -0.68183565, 2.1511636), (0.059763074, -0.67721653, 2.106974), (0.052006602, -0.7010888, 2.3160813), (0.090275764, -0.72318363, 2.2718918), (0.10428345, -0.73127085, 2.2115276), (0.090275764, -0.72318363, 2.1511636), (0.052006602, -0.7010888, 2.106974), (0.035210848, -0.7197423, 2.3160813), (0.061184883, -0.75549245, 2.2718918), (0.07069194, -0.76857793, 2.2115276), (0.061184764, -0.75549245, 2.1511636), (0.035210848, -0.7197424, 2.106974), (0.012280107, -0.72995174, 2.3160813), (0.021467566, -0.7731757, 2.2718918), (0.02483058, -0.78899676, 2.2115276), (0.021467566, -0.77317566, 2.1511636), (0.012280107, -0.72995174, 2.106974), (-0.012820721, -0.72995174, 2.3160813), (-0.02200818, -0.7731757, 2.2718918), (-0.025371075, -0.7889967, 2.2115276), (-0.02200818, -0.77317566, 2.1511636), (-0.012820721, -0.72995174, 2.106974), (-0.035751343, -0.7197423, 2.3160813), (-0.061725378, -0.75549245, 2.2718918), (-0.07123256, -0.76857793, 2.2115276), (-0.061725378, -0.75549245, 2.1511636), (-0.035751462, -0.7197423, 2.106974), (-0.052547097, -0.7010888, 2.3160813), (-0.0908165, -0.72318363, 2.2718918), (-0.10482395, -0.7312708, 2.2115276), (-0.0908165, -0.7231835, 2.1511636), (-0.052547097, -0.7010888, 2.106974), (-0.00027036667, -0.6709068, 2.0907993), (-0.06030357, -0.67721653, 2.3160813), (-0.104251266, -0.6818356, 2.2718918), (-0.12033701, -0.6835263, 2.2115276), (-0.10425103, -0.68183553, 2.1511636), (-0.06030357, -0.67721653, 2.106974), (-0.05767989, -0.65225327, 2.3160813), (-0.09970677, -0.6385979, 2.2718918), (-0.115089536, -0.6335997, 2.2115276), (-0.09970677, -0.6385979, 2.1511636), (-0.05767989, -0.65225327, 2.106974), (-0.045129538, -0.63051534, 2.3160813), (-0.077968836, -0.6009467, 2.2718918), (-0.08998871, -0.5901239, 2.2115276), (-0.07796872, -0.6009467, 2.1511636), (-0.045129538, -0.63051534, 2.106974), (-0.024822474, -0.6157614, 2.3160813), (-0.042796016, -0.5753923, 2.2718918), (-0.04937482, -0.56061614, 2.2115276), (-0.042796016, -0.5753923, 2.1511636), (-0.024822474, -0.6157615, 2.106974), (-0.00027036667, -0.6709068, 2.3322558), (-0.00027024746, -0.5663532, 2.1511636), (0.43690515, -0.6430658, 2.3665097), (0.5045363, -0.6430658, 2.2115276), (0.43690497, -0.6430658, 2.0565455), (-0.43744552, -0.6430658, 2.3665097), (-0.5050769, -0.6430658, 2.2115276), (-0.43744552, -0.6430658, 2.0565455), (0.49038476, -0.5411266, 2.4123666), (0.5662891, -0.54112667, 2.2115276), (0.49038452, -0.5411267, 2.0106885), (-0.49092507, -0.5411266, 2.4123666), (-0.5668298, -0.54112667, 2.2115276), (-0.49092507, -0.5411267, 2.0106885)]
            uniform token subdivisionScheme = "none"
            uniform token subsetFamily:materialBind:familyType = "nonOverlapping"
            custom string userProperties:blender:data_name = "Cylinder.014"

            def GeomSubset "Door_Metal" (
                prepend apiSchemas = ["MaterialBindingAPI"]
            )
            {
                uniform token elementType = "face"
                uniform token familyName = "materialBind"
                int[] indices = [66, 67, 68, 69, 70, 71, 72, 73, 74, 75, 76, 77, 78, 79, 80, 81, 82, 83, 84, 85, 86, 87, 88, 89, 90, 91, 92, 93, 94, 95, 96, 97, 98, 99, 100, 101, 102, 103, 104, 105, 106, 107, 108, 109, 110, 111, 112, 113, 114, 115, 116, 117, 118, 119, 120, 121, 122, 123, 124, 125, 126, 127, 128, 129, 130, 131, 132, 133, 134, 135, 136, 137, 138, 139, 140, 141, 142, 143, 144, 145, 146, 147, 148, 149, 150, 151, 152, 153, 154, 155, 156, 157, 158, 159, 160, 161, 162, 163, 164, 165, 166, 167, 168, 169, 170, 171, 172, 173, 174, 175, 176, 177, 178, 179, 180, 181, 182, 183, 184, 185, 186, 187, 188, 189, 190, 191, 192, 193, 194, 195, 196, 197, 198, 199, 200, 201, 202, 203, 204, 205, 206, 207, 208, 209, 210, 211, 212, 213, 214, 215, 216, 217, 218, 219, 220, 221, 222, 223, 224, 225, 226, 227, 228, 229, 230, 231, 232, 233, 234, 235, 236, 237, 238, 239, 240, 241, 242, 243, 244, 245, 246, 247]
                rel material:binding = </root/_materials/Door_Metal>
            }

            def GeomSubset "Wood" (
                prepend apiSchemas = ["MaterialBindingAPI"]
            )
            {
                uniform token elementType = "face"
                uniform token familyName = "materialBind"
                int[] indices = [0, 1, 2, 3, 4, 5, 6, 7, 8, 9, 10, 11, 20, 21, 22, 23, 29, 30, 31, 32, 33, 34, 35, 36, 37, 38, 39, 48, 49, 50, 51, 57, 58, 59, 60, 61, 62, 63, 64, 65]
                rel material:binding = </root/_materials/Wood>
            }

            def GeomSubset "Wood_Light" (
                prepend apiSchemas = ["MaterialBindingAPI"]
            )
            {
                uniform token elementType = "face"
                uniform token familyName = "materialBind"
                int[] indices = [12, 13, 14, 15, 16, 17, 18, 19, 24, 25, 26, 27, 28, 40, 41, 42, 43, 44, 45, 46, 47, 52, 53, 54, 55, 56]
                rel material:binding = </root/_materials/Wood_Light>
            }
        }
    }

    def Scope "_materials"
    {
        def Material "Door_Metal"
        {
            token outputs:surface.connect = </root/_materials/Door_Metal/Principled_BSDF.outputs:surface>
            custom string userProperties:blender:data_name = "Door_Metal"

            def Shader "Principled_BSDF"
            {
                uniform token info:id = "UsdPreviewSurface"
                float inputs:clearcoat = 0
                float inputs:clearcoatRoughness = 0.03
                color3f inputs:diffuseColor = (0.11068601, 0.09278369, 0.090143494)
                float inputs:ior = 1.5
                float inputs:metallic = 0
                float inputs:opacity = 1
                float inputs:roughness = 0.6900348
                float inputs:specular = 0.5
                token outputs:surface
            }
        }

        def Material "Wood"
        {
            token outputs:surface.connect = </root/_materials/Wood/Principled_BSDF.outputs:surface>
            custom string userProperties:blender:data_name = "Wood"

            def Shader "Principled_BSDF"
            {
                uniform token info:id = "UsdPreviewSurface"
                float inputs:clearcoat = 0
                float inputs:clearcoatRoughness = 0.03
                color3f inputs:diffuseColor = (0.3757453, 0.20292167, 0.058710486)
                float inputs:ior = 1.5
                float inputs:metallic = 0
                float inputs:opacity = 1
                float inputs:roughness = 0.6900348
                float inputs:specular = 0.5
                token outputs:surface
            }
        }

        def Material "Wood_Light"
        {
            token outputs:surface.connect = </root/_materials/Wood_Light/Principled_BSDF.outputs:surface>
            custom string userProperties:blender:data_name = "Wood_Light"

            def Shader "Principled_BSDF"
            {
                uniform token info:id = "UsdPreviewSurface"
                float inputs:clearcoat = 0
                float inputs:clearcoatRoughness = 0.03
                color3f inputs:diffuseColor = (0.5382204, 0.31466383, 0.08692671)
                float inputs:ior = 1.5
                float inputs:metallic = 0
                float inputs:opacity = 1
                float inputs:roughness = 0.6900348
                float inputs:specular = 0.5
                token outputs:surface
            }
        }

        def Material "Door_Frame"
        {
            token outputs:surface.connect = </root/_materials/Door_Frame/Principled_BSDF.outputs:surface>
            custom string userProperties:blender:data_name = "Door_Frame"

            def Shader "Principled_BSDF"
            {
                uniform token info:id = "UsdPreviewSurface"
                float inputs:clearcoat = 0
                float inputs:clearcoatRoughness = 0.03
                color3f inputs:diffuseColor = (0.11068601, 0.09278369, 0.090143494)
                float inputs:ior = 1.5
                float inputs:metallic = 0
                float inputs:opacity = 1
                float inputs:roughness = 0.6900348
                float inputs:specular = 0.5
                token outputs:surface
            }
        }
    }

    def Xform "Door_Frame"
    {
        custom string userProperties:blender:object_name = "Door_Frame"

        def Mesh "Cube_014" (
            active = true
            prepend apiSchemas = ["MaterialBindingAPI"]
        )
        {
            uniform bool doubleSided = 1
            float3[] extent = [(-1.8554794, -0.75969243, 0.009255528), (1.8549386, 0.5378885, 4.251684)]
            int[] faceVertexCounts = [4, 4, 4, 4, 4, 4, 4, 4, 4, 4, 4, 4, 4, 4, 4, 4, 4, 4, 4, 4, 4, 4, 4, 4, 4, 4, 4, 4, 4, 4, 4, 4, 4, 4, 4, 4, 4, 4, 4, 4, 4, 4, 4, 4, 4, 4, 4, 4, 4, 4, 4, 4, 4, 4, 4, 4, 4, 4, 4, 4]
            int[] faceVertexIndices = [16, 18, 7, 5, 18, 20, 9, 7, 20, 22, 11, 9, 22, 24, 13, 11, 24, 54, 41, 13, 64, 6, 4, 65, 62, 64, 65, 63, 60, 62, 63, 61, 58, 60, 61, 59, 57, 58, 59, 56, 35, 1, 0, 37, 13, 34, 36, 11, 10, 8, 4, 6, 21, 14, 10, 23, 14, 12, 8, 10, 26, 25, 12, 14, 28, 27, 25, 26, 29, 30, 27, 28, 15, 17, 18, 16, 17, 19, 20, 18, 19, 21, 22, 20, 21, 23, 24, 22, 23, 53, 54, 24, 44, 31, 33, 46, 46, 33, 35, 48, 48, 35, 37, 50, 50, 37, 39, 52, 52, 39, 41, 54, 65, 4, 32, 55, 63, 65, 55, 0, 61, 63, 0, 1, 59, 61, 1, 2, 56, 59, 2, 3, 45, 58, 57, 43, 39, 55, 32, 41, 8, 34, 32, 4, 7, 40, 42, 5, 12, 36, 34, 8, 25, 38, 36, 12, 15, 29, 28, 17, 27, 40, 38, 25, 30, 42, 40, 27, 43, 44, 46, 45, 45, 46, 48, 47, 47, 48, 50, 49, 49, 50, 52, 51, 51, 52, 54, 53, 51, 64, 62, 49, 17, 28, 26, 19, 9, 38, 40, 7, 31, 3, 2, 33, 47, 60, 58, 45, 23, 10, 6, 53, 41, 32, 34, 13, 37, 0, 55, 39, 53, 6, 64, 51, 19, 26, 14, 21, 11, 36, 38, 9, 33, 2, 1, 35, 49, 62, 60, 47]
            rel material:binding = </root/_materials/Door_Frame>
            normal3f[] normals = [(0.41250584, -0.9109549, -0.00020683074), (0.41144955, -0.91097134, 0.028989416), (0.41123068, -0.9108951, 0.034050185), (0.41250584, -0.9109549, -0.00020683074), (0.41144955, -0.91097134, 0.028989416), (0.3979011, -0.91282046, 0.09183381), (0.3959925, -0.9131933, 0.0962697), (0.41123068, -0.9108951, 0.034050185), (0.3979011, -0.91282046, 0.09183381), (0.35320738, -0.92544013, 0.13713181), (0.34857494, -0.9269161, 0.1390039), (0.3959925, -0.9131933, 0.0962697), (0.35320738, -0.92544013, 0.13713181), (0.22429454, -0.95849276, 0.17602158), (0.21288112, -0.9605638, 0.17888258), (0.34857494, -0.9269161, 0.1390039), (0.22429454, -0.95849276, 0.17602158), (-2.6214915e-8, -0.9791815, 0.20298676), (-2.6434648e-8, -0.97918147, 0.20298678), (0.21288112, -0.9605638, 0.17888258), (-0.16368452, 0.5835267, 0.7954269), (5.0704042e-8, 0.58648586, 0.8099595), (5.1632927e-8, 0.58648586, 0.8099594), (-0.18667138, 0.58249205, 0.7911111), (-0.40545803, 0.57401365, 0.7114155), (-0.16368452, 0.5835267, 0.7954269), (-0.18667138, 0.58249205, 0.7911111), (-0.46723253, 0.568713, 0.6769484), (-0.68297446, 0.5483897, 0.48250872), (-0.40545803, 0.57401365, 0.7114155), (-0.46723253, 0.568713, 0.6769484), (-0.7079633, 0.5463026, 0.44759518), (-0.8265198, 0.53606325, 0.1717594), (-0.68297446, 0.5483897, 0.48250872), (-0.7079633, 0.5463026, 0.44759518), (-0.82968503, 0.5357683, 0.15676445), (-0.85088927, 0.52534497, 1.1833425e-7), (-0.8265198, 0.53606325, 0.1717594), (-0.82968503, 0.5357683, 0.15676445), (-0.85088927, 0.52534497, 1.1833425e-7), (0.86572903, -2.1832237e-7, -0.50051296), (0.87875646, -2.2497753e-7, -0.47727042), (0.64701205, -1.355252e-7, -0.7624797), (0.6110167, -1.2466516e-7, -0.79161775), (-0.29378125, -3.9035278e-8, -0.9558727), (-0.3203814, -4.554068e-8, -0.94728863), (-0.6470123, -8.569263e-8, -0.7624796), (-0.6110169, -8.470161e-8, -0.7916176), (0.16368458, 0.5835267, 0.7954269), (0.1866714, 0.58249205, 0.7911111), (5.1632927e-8, 0.58648586, 0.8099594), (5.0704042e-8, 0.58648586, 0.8099595), (0.6309696, 5.073622e-7, 0.7758076), (0.6672216, 5.5386164e-7, 0.7448593), (0.35550898, 2.0723752e-7, 0.9346729), (0.3184869, 1.7259232e-7, 0.9479273), (0.4054581, 0.57401365, 0.7114155), (0.46723264, 0.56871295, 0.6769485), (0.1866714, 0.58249205, 0.7911111), (0.16368458, 0.5835267, 0.7954269), (0.6829744, 0.54838985, 0.48250863), (0.7079631, 0.546303, 0.4475951), (0.46723264, 0.56871295, 0.6769485), (0.4054581, 0.57401365, 0.7114155), (0.82651967, 0.53606343, 0.17175935), (0.82968503, 0.53576833, 0.15676439), (0.7079631, 0.546303, 0.4475951), (0.6829744, 0.54838985, 0.48250863), (0.85088956, 0.52534455, 1.1620695e-7), (0.85088956, 0.52534455, 1.1620695e-7), (0.82968503, 0.53576833, 0.15676439), (0.82651967, 0.53606343, 0.17175935), (0.8582908, -0.51316375, 1.13805825e-7), (0.8440012, -0.52231807, 0.1218431), (0.84400076, -0.52231824, 0.12184587), (0.8582908, -0.51316375, 1.13805825e-7), (0.8440012, -0.52231807, 0.1218431), (0.763176, -0.5426561, 0.35083687), (0.76317525, -0.5426564, 0.3508385), (0.84400076, -0.52231824, 0.12184587), (0.763176, -0.5426561, 0.35083687), (0.6111443, -0.59270287, 0.5246007), (0.6088799, -0.5935712, 0.5262495), (0.76317525, -0.5426564, 0.3508385), (0.6111443, -0.59270287, 0.5246007), (0.3584875, -0.6701641, 0.64989763), (0.34439483, -0.67323697, 0.6543273), (0.6088799, -0.5935712, 0.5262495), (0.3584875, -0.6701641, 0.64989763), (-1.9965947e-8, -0.7086867, 0.70552325), (-9.3272705e-9, -0.7086867, 0.70552325), (0.34439483, -0.67323697, 0.6543273), (-0.4125059, -0.9109549, -0.00020683215), (-0.4125059, -0.9109549, -0.00020683215), (-0.4112307, -0.91089505, 0.034050167), (-0.41144964, -0.91097134, 0.0289894), (-0.41144964, -0.91097134, 0.0289894), (-0.4112307, -0.91089505, 0.034050167), (-0.39599255, -0.9131933, 0.09626971), (-0.39790112, -0.91282046, 0.09183381), (-0.39790112, -0.91282046, 0.09183381), (-0.39599255, -0.9131933, 0.09626971), (-0.34857488, -0.9269161, 0.13900392), (-0.35320738, -0.92544013, 0.13713183), (-0.35320738, -0.92544013, 0.13713183), (-0.34857488, -0.9269161, 0.13900392), (-0.21288107, -0.9605637, 0.17888255), (-0.2242945, -0.95849276, 0.17602156), (-0.2242945, -0.95849276, 0.17602156), (-0.21288107, -0.9605637, 0.17888255), (-2.6434648e-8, -0.97918147, 0.20298678), (-2.6214915e-8, -0.9791815, 0.20298676), (0.22429451, 0.95849276, -0.17602132), (0, 0.9791816, -0.20298655), (0, 0.9791815, -0.20298654), (0.21288113, 0.9605638, -0.17888232), (0.3532075, 0.92544, -0.13713162), (0.22429451, 0.95849276, -0.17602132), (0.21288113, 0.9605638, -0.17888232), (0.3485751, 0.926916, -0.13900371), (0.3979012, 0.91282046, -0.091833755), (0.3532075, 0.92544, -0.13713162), (0.3485751, 0.926916, -0.13900371), (0.3959926, 0.9131933, -0.09626962), (0.41144976, 0.91097134, -0.02898943), (0.3979012, 0.91282046, -0.091833755), (0.3959926, 0.9131933, -0.09626962), (0.41123086, 0.9108951, -0.03405019), (0.41250607, 0.91095483, 0.00020677873), (0.41144976, 0.91097134, -0.02898943), (0.41123086, 0.9108951, -0.03405019), (0.41250607, 0.91095483, 0.00020677873), (-0.984884, 7.750547e-7, 0.17321523), (-0.9864219, 7.790642e-7, 0.16423124), (-1, 8.4014874e-7, 0), (-1, 8.4014874e-7, 0), (0.293781, -4.1650463e-8, -0.9558728), (0.32038113, -4.7740546e-8, -0.94728875), (0, -7.1937007e-9, -1), (0, -7.193701e-9, -1), (-0.22429451, 0.95849276, -0.17602132), (-0.21288113, 0.9605638, -0.17888232), (0, 0.9791815, -0.20298654), (0, 0.9791816, -0.20298655), (-0.98507947, -3.6702932e-7, -0.17210016), (-0.98660713, -3.7256817e-7, -0.1631144), (-0.99999744, -4.6764322e-7, 0.002270184), (-0.99999744, -4.6764322e-7, 0.002270184), (-0.35320744, 0.92544013, -0.13713162), (-0.348575, 0.9269161, -0.13900368), (-0.21288113, 0.9605638, -0.17888232), (-0.22429451, 0.95849276, -0.17602132), (-0.3979013, 0.91282046, -0.09183373), (-0.3959926, 0.9131933, -0.09626961), (-0.348575, 0.9269161, -0.13900368), (-0.35320744, 0.92544013, -0.13713162), (1, 9.938158e-7, 0), (1, 9.938158e-7, 0), (0.9864219, 8.59145e-7, 0.16423124), (0.984884, 8.5098793e-7, 0.17321523), (-0.41144976, 0.9109713, -0.02898942), (-0.41123092, 0.910895, -0.034050178), (-0.3959926, 0.9131933, -0.09626961), (-0.3979013, 0.91282046, -0.09183373), (-0.412506, 0.9109549, 0.00020678264), (-0.412506, 0.9109549, 0.00020678264), (-0.41123092, 0.910895, -0.034050178), (-0.41144976, 0.9109713, -0.02898942), (-0.85829055, -0.51316404, 1.13512385e-7), (-0.85829055, -0.51316404, 1.13512385e-7), (-0.84400076, -0.52231824, 0.121845864), (-0.8440012, -0.5223181, 0.12184309), (-0.8440012, -0.5223181, 0.12184309), (-0.84400076, -0.52231824, 0.121845864), (-0.76317525, -0.54265636, 0.35083845), (-0.7631762, -0.5426561, 0.35083684), (-0.7631762, -0.5426561, 0.35083684), (-0.76317525, -0.54265636, 0.35083845), (-0.6088799, -0.59357125, 0.5262495), (-0.6111443, -0.59270287, 0.5246007), (-0.6111443, -0.59270287, 0.5246007), (-0.6088799, -0.59357125, 0.5262495), (-0.34439486, -0.67323697, 0.65432733), (-0.3584875, -0.67016405, 0.64989763), (-0.3584875, -0.67016405, 0.64989763), (-0.34439486, -0.67323697, 0.65432733), (-9.3272705e-9, -0.7086867, 0.70552325), (-1.9965947e-8, -0.7086867, 0.70552325), (-0.3184869, 1.783722e-7, 0.94792724), (-0.35550895, 2.1189193e-7, 0.93467283), (-0.6672215, 5.5386175e-7, 0.74485934), (-0.6309695, 5.073622e-7, 0.7758077), (0.984884, 8.5098793e-7, 0.17321523), (0.9864219, 8.59145e-7, 0.16423124), (0.8787557, 7.047543e-7, 0.47727194), (0.8657275, 7.0524504e-7, 0.5005157), (-0.86572903, -1.7043058e-7, -0.50051296), (-0.87875646, -1.8392579e-7, -0.47727042), (-0.98660713, -3.7256817e-7, -0.1631144), (-0.98507947, -3.6702932e-7, -0.17210016), (0.99999744, -4.272014e-7, 0.0022701842), (0.99999744, -4.272014e-7, 0.0022701842), (0.98660713, -3.5149222e-7, -0.1631144), (0.98507947, -3.4703768e-7, -0.17210016), (-0.86572737, 7.052452e-7, 0.5005158), (-0.8787556, 7.047545e-7, 0.47727206), (-0.9864219, 7.790642e-7, 0.16423124), (-0.984884, 7.750547e-7, 0.17321523), (0.3184869, 1.7259232e-7, 0.9479273), (0.35550898, 2.0723752e-7, 0.9346729), (0, 3.623952e-8, 1), (0, 3.6239516e-8, 1), (0, -7.193701e-9, -1), (0, -7.1937007e-9, -1), (-0.3203814, -4.554068e-8, -0.94728863), (-0.29378125, -3.9035278e-8, -0.9558727), (0.6110167, -1.2466516e-7, -0.79161775), (0.64701205, -1.355252e-7, -0.7624797), (0.32038113, -4.7740546e-8, -0.94728875), (0.293781, -4.1650463e-8, -0.9558728), (0, 3.6239516e-8, 1), (0, 3.623952e-8, 1), (-0.35550895, 2.1189193e-7, 0.93467283), (-0.3184869, 1.783722e-7, 0.94792724), (0.8657275, 7.0524504e-7, 0.5005157), (0.8787557, 7.047543e-7, 0.47727194), (0.6672216, 5.5386164e-7, 0.7448593), (0.6309696, 5.073622e-7, 0.7758076), (-0.6110169, -8.470161e-8, -0.7916176), (-0.6470123, -8.569263e-8, -0.7624796), (-0.87875646, -1.8392579e-7, -0.47727042), (-0.86572903, -1.7043058e-7, -0.50051296), (0.98507947, -3.4703768e-7, -0.17210016), (0.98660713, -3.5149222e-7, -0.1631144), (0.87875646, -2.2497753e-7, -0.47727042), (0.86572903, -2.1832237e-7, -0.50051296), (-0.6309695, 5.073622e-7, 0.7758077), (-0.6672215, 5.5386175e-7, 0.74485934), (-0.8787556, 7.047545e-7, 0.47727206), (-0.86572737, 7.052452e-7, 0.5005158)] (
                interpolation = "faceVarying"
            )
            point3f[] points = [(-0.8597552, 0.20730948, 3.3536859), (-1.1139581, 0.27128053, 3.041284), (-1.2492191, 0.30531955, 2.65808), (-1.2432058, 0.3038056, 0.009255648), (-0.00027036667, 0.18313289, 4.1201653), (1.2426654, -0.53897214, 0.009255528), (-0.00027036667, 0.0025873184, 4.251684), (1.2486788, -0.5374584, 2.65808), (0.6421451, 0.2407577, 4.015453), (1.1134176, -0.57149744, 3.041284), (0.6743445, 0.06457567, 4.1390414), (0.85921466, -0.6354685, 3.3536859), (1.1850489, 0.39296222, 3.7139506), (0.46057567, -0.72072124, 3.5575862), (1.2354234, 0.22974324, 3.8146992), (1.8549386, -0.1476767, 0.009255528), (1.760943, -0.30488944, 0.009255528), (1.8549386, -0.1476767, 2.708212), (1.7609423, -0.30488944, 2.6853771), (1.6397835, -0.20182109, 3.3177762), (1.5609369, -0.35522223, 3.252019), (1.2354239, -0.3035791, 3.8146992), (1.185049, -0.44981575, 3.7139506), (0.6743447, -0.46874666, 4.1390414), (0.6421453, -0.60202, 4.015453), (1.5609366, 0.48755574, 3.252019), (1.6397831, 0.331501, 3.3177762), (1.760942, 0.5378885, 2.6853771), (1.8549383, 0.3856454, 2.708212), (1.8549383, 0.3856454, 0.009255648), (1.7609427, 0.5378885, 0.009255648), (-1.2432061, -0.53897214, 0.009255528), (-0.00027036667, 0.08308554, 3.6283898), (-1.2492195, -0.5374584, 2.65808), (0.46057558, 0.12205672, 3.5575862), (-1.1139584, -0.57149744, 3.041284), (0.8592145, 0.20730948, 3.3536859), (-0.8597554, -0.6354685, 3.3536859), (1.1134174, 0.27128053, 3.041284), (-0.4611164, -0.72072124, 3.5575862), (1.2486783, 0.30531955, 2.65808), (-0.00027036667, -0.75969243, 3.6283898), (1.242665, 0.3038056, 0.009255648), (-1.8554794, -0.1476767, 0.009255528), (-1.7614838, -0.30488944, 0.009255528), (-1.8554794, -0.1476767, 2.708212), (-1.7614831, -0.30488944, 2.6853771), (-1.6403242, -0.20182109, 3.3177762), (-1.5614777, -0.35522223, 3.252019), (-1.2359647, -0.3035791, 3.8146992), (-1.1855898, -0.44981575, 3.7139506), (-0.67488545, -0.46874666, 4.1390414), (-0.642686, -0.60202, 4.015453), (-0.00027036667, -0.530735, 4.251684), (-0.00027036667, -0.6596451, 4.1201653), (-0.4611163, 0.12205672, 3.5575862), (-1.7614834, 0.5378885, 0.009255648), (-1.855479, 0.3856454, 0.009255648), (-1.855479, 0.3856454, 2.708212), (-1.7614827, 0.5378885, 2.6853771), (-1.6403239, 0.331501, 3.3177762), (-1.5614773, 0.48755574, 3.252019), (-1.2359642, 0.22974324, 3.8146992), (-1.1855897, 0.39296222, 3.7139506), (-0.6748852, 0.06457567, 4.1390414), (-0.64268583, 0.2407577, 4.015453)]
            uniform token subdivisionScheme = "none"
            custom string userProperties:blender:data_name = "Cube.014"
        }
    }
}

