#usda 1.0
(
    defaultPrim = "root"
    doc = "Blender v5.1.2"
    metersPerUnit = 1
    upAxis = "Y"
)

def Xform "root" (
    customData = {
        dictionary Blender = {
            bool generated = 1
        }
    }
)
{
    float3 xformOp:rotateXYZ = (-90, -0, 0)
    uniform token[] xformOpOrder = ["xformOp:rotateXYZ"]

    def Xform "Numbers_5"
    {
        custom string userProperties:blender:object_name = "Numbers_5"

        def Mesh "Cube_035" (
            active = true
            prepend apiSchemas = ["MaterialBindingAPI"]
        )
        {
            uniform bool doubleSided = 1
            float3[] extent = [(-0.34882385, -0.17158476, -0.5610585), (0.36849955, 0.17158478, 0.56398976)]
            int[] faceVertexCounts = [4, 4, 4, 4, 4, 4, 4, 4, 4, 4, 4, 4, 4, 4, 4, 4, 4, 4, 4, 4, 4, 4, 4, 4, 4, 4, 4, 4, 4, 4, 4, 4, 4, 4, 4, 4, 4, 4, 4, 4, 4, 4, 4, 4, 4, 4, 4, 4, 4, 4, 4, 4, 4, 4, 4, 4, 4, 4, 4, 4, 4, 4, 4, 4, 4, 4, 4, 4, 4, 4, 4, 4, 4, 4, 4, 4, 4, 4, 4, 4, 4, 4, 4, 4, 4, 4, 4, 4, 4, 4, 4, 4, 4, 4, 4, 4, 4, 4, 4, 4, 4, 4, 4, 4, 4, 4, 4, 4, 4, 4, 4, 4, 4, 4, 4, 4, 4, 4, 4, 4, 4, 4, 4, 4, 4, 4, 4, 4, 4, 4, 4, 4, 4, 4, 4, 4, 4, 4, 4, 4, 4, 4, 4, 4, 4, 4, 4, 4, 4, 4, 4, 4, 4, 4, 4, 4, 4, 4, 4, 4, 4, 4, 4, 4, 4, 4, 4, 4]
            int[] faceVertexIndices = [0, 46, 138, 75, 0, 75, 139, 50, 0, 50, 129, 42, 0, 42, 126, 46, 1, 48, 136, 64, 1, 64, 137, 52, 1, 52, 127, 43, 1, 43, 128, 48, 2, 50, 139, 61, 2, 61, 136, 48, 2, 48, 128, 44, 2, 44, 129, 50, 3, 52, 137, 58, 3, 58, 138, 46, 3, 46, 126, 45, 3, 45, 127, 52, 4, 53, 126, 42, 4, 42, 129, 49, 4, 49, 130, 54, 4, 54, 133, 53, 5, 51, 128, 43, 5, 43, 127, 47, 5, 47, 132, 55, 5, 55, 131, 51, 6, 49, 129, 44, 6, 44, 128, 51, 6, 51, 131, 56, 6, 56, 130, 49, 7, 57, 133, 54, 7, 54, 130, 56, 7, 56, 131, 55, 7, 55, 132, 57, 8, 62, 134, 65, 8, 65, 137, 64, 8, 64, 136, 63, 8, 63, 135, 62, 9, 47, 127, 45, 9, 45, 126, 53, 9, 53, 133, 57, 9, 57, 132, 47, 10, 60, 140, 77, 10, 77, 141, 59, 10, 59, 134, 62, 10, 62, 135, 60, 11, 59, 141, 74, 11, 74, 138, 58, 11, 58, 137, 65, 11, 65, 134, 59, 12, 61, 139, 76, 12, 76, 140, 60, 12, 60, 135, 63, 12, 63, 136, 61, 13, 66, 142, 73, 13, 73, 145, 67, 13, 67, 138, 74, 13, 74, 141, 66, 14, 83, 142, 70, 14, 70, 143, 82, 14, 82, 147, 78, 14, 78, 146, 83, 15, 68, 143, 70, 15, 70, 142, 66, 15, 66, 141, 77, 15, 77, 140, 68, 16, 67, 145, 72, 16, 72, 144, 69, 16, 69, 139, 75, 16, 75, 138, 67, 17, 69, 144, 71, 17, 71, 143, 68, 17, 68, 140, 76, 17, 76, 139, 69, 18, 79, 148, 80, 18, 80, 149, 81, 18, 81, 146, 78, 18, 78, 147, 79, 19, 84, 145, 73, 19, 73, 142, 83, 19, 83, 146, 81, 19, 81, 149, 84, 20, 82, 143, 71, 20, 71, 144, 85, 20, 85, 148, 79, 20, 79, 147, 82, 21, 89, 153, 98, 21, 98, 157, 95, 21, 95, 156, 97, 21, 97, 152, 89, 22, 72, 145, 91, 22, 91, 153, 89, 22, 89, 152, 92, 22, 92, 144, 72, 23, 80, 148, 86, 23, 86, 151, 87, 23, 87, 150, 125, 23, 125, 149, 80, 24, 84, 149, 125, 24, 125, 150, 90, 24, 90, 153, 91, 24, 91, 145, 84, 25, 85, 144, 92, 25, 92, 152, 88, 25, 88, 151, 86, 25, 86, 148, 85, 26, 96, 154, 106, 26, 106, 158, 104, 26, 104, 161, 105, 26, 105, 157, 96, 27, 87, 151, 100, 27, 100, 155, 93, 27, 93, 154, 99, 27, 99, 150, 87, 28, 90, 150, 99, 28, 99, 154, 96, 28, 96, 157, 98, 28, 98, 153, 90, 29, 88, 152, 97, 29, 97, 156, 94, 29, 94, 155, 100, 29, 100, 151, 88, 30, 103, 161, 114, 30, 114, 165, 111, 30, 111, 164, 113, 30, 113, 160, 103, 31, 94, 156, 108, 31, 108, 160, 102, 31, 102, 159, 107, 31, 107, 155, 94, 32, 95, 157, 105, 32, 105, 161, 103, 32, 103, 160, 108, 32, 108, 156, 95, 33, 93, 155, 107, 33, 107, 159, 101, 33, 101, 158, 106, 33, 106, 154, 93, 34, 122, 162, 109, 34, 109, 163, 121, 34, 121, 167, 117, 34, 117, 166, 122, 35, 101, 159, 116, 35, 116, 163, 109, 35, 109, 162, 115, 35, 115, 158, 101, 36, 104, 158, 115, 36, 115, 162, 112, 36, 112, 165, 114, 36, 114, 161, 104, 37, 102, 160, 113, 37, 113, 164, 110, 37, 110, 163, 116, 37, 116, 159, 102, 38, 118, 168, 119, 38, 119, 169, 120, 38, 120, 166, 117, 38, 117, 167, 118, 39, 123, 165, 112, 39, 112, 162, 122, 39, 122, 166, 120, 39, 120, 169, 123, 40, 121, 163, 110, 40, 110, 164, 124, 40, 124, 168, 118, 40, 118, 167, 121, 41, 124, 164, 111, 41, 111, 165, 123, 41, 123, 169, 119, 41, 119, 168, 124]
            rel material:binding = </root/_materials/White>
            normal3f[] normals = [(0.13866526, -4.6013673e-7, -0.9903393), (0.13809551, -0.19484682, -0.9710635), (0.26485893, -0.20019373, -0.9432774), (0.27033114, -7.311721e-7, -0.9627674), (0.13866526, -4.6013673e-7, -0.9903393), (0.27033114, -7.311721e-7, -0.9627674), (0.26485842, 0.20019253, -0.94327766), (0.13809516, 0.19484593, -0.97106373), (0.13866526, -4.6013673e-7, -0.9903393), (0.13809516, 0.19484593, -0.97106373), (5.8887437e-8, 0.1854936, -0.98264545), (2.9964042e-8, -2.896174e-7, -1), (0.13866526, -4.6013673e-7, -0.9903393), (2.9964042e-8, -2.896174e-7, -1), (0, -0.18549417, -0.9826454), (0.13809551, -0.19484682, -0.9710635), (0.0012181774, 0, 0.9999992), (0.0011968862, 0.18459034, 0.98281485), (0.0045996453, 0.18006493, 0.983644), (0.0046785166, -9.64409e-9, 0.99998903), (0.0012181774, 0, 0.9999992), (0.0046785166, -9.64409e-9, 0.99998903), (0.004599673, -0.18006495, 0.983644), (0.0011969132, -0.18459035, 0.98281485), (0.0012181774, 0, 0.9999992), (0.0011969132, -0.18459035, 0.98281485), (0, -0.18549396, 0.98264545), (-1.2045546e-8, -4.826957e-9, 1), (0.0012181774, 0, 0.9999992), (-1.2045546e-8, -4.826957e-9, 1), (-2.367294e-8, 0.18549392, 0.9826454), (0.0011968862, 0.18459034, 0.98281485), (0.05467088, 0.8936577, -0.4454066), (0.056144238, 0.89442265, -0.44368458), (0.1893949, 0.95735246, -0.21818791), (0.11235761, 0.9588514, -0.26072916), (0.003096709, 0.8606676, 0.5091579), (0.012101242, 0.854815, 0.51879174), (0.0122552095, 0.85469043, 0.51899326), (0.0031175818, 0.8606599, 0.5091707), (0.003096709, 0.8606676, 0.5091579), (0.0031175818, 0.8606599, 0.5091707), (-3.852262e-8, 0.8617947, 0.50725734), (-3.8522675e-8, 0.86179465, 0.5072573), (0.05467088, 0.8936577, -0.4454066), (-1.7493313e-8, 0.86179453, -0.5072575), (-1.7493335e-8, 0.86179453, -0.5072574), (0.056144238, 0.89442265, -0.44368458), (0.0030967174, -0.8606674, 0.5091581), (0.0031175842, -0.86065984, 0.5091709), (0.012255189, -0.8546904, 0.51899344), (0.01210123, -0.8548149, 0.51879185), (0.054670926, -0.89365757, -0.4454068), (0.11235756, -0.95885134, -0.26072952), (0.18939489, -0.9573524, -0.2181881), (0.05614418, -0.8944224, -0.44368485), (0.054670926, -0.89365757, -0.4454068), (0.05614418, -0.8944224, -0.44368485), (0, -0.8617944, -0.5072577), (0, -0.8617944, -0.5072577), (0.0030967174, -0.8606674, 0.5091581), (0, -0.86179453, 0.5072575), (0, -0.86179453, 0.5072575), (0.0031175842, -0.86065984, 0.5091709), (0.20084444, -6.858566e-7, -0.9796232), (0.16385652, -0.19656825, -0.96670157), (0, -0.18549417, -0.9826454), (2.9964042e-8, -2.896174e-7, -1), (0.20084444, -6.858566e-7, -0.9796232), (2.9964042e-8, -2.896174e-7, -1), (5.8887437e-8, 0.1854936, -0.98264545), (0.16385736, 0.19656707, -0.9667016), (0.20084444, -6.858566e-7, -0.9796232), (0.16385736, 0.19656707, -0.9667016), (0.39378837, 0.20307499, -0.89648825), (0.4021679, -8.059778e-7, -0.9155659), (0.20084444, -6.858566e-7, -0.9796232), (0.4021679, -8.059778e-7, -0.9155659), (0.3937874, -0.20307708, -0.89648813), (0.16385652, -0.19656825, -0.96670157), (0.2008446, -4.4883262e-7, 0.9796232), (0.16385747, 0.19656734, 0.96670157), (-2.367294e-8, 0.18549392, 0.9826454), (-1.2045546e-8, -4.826957e-9, 1), (0.2008446, -4.4883262e-7, 0.9796232), (-1.2045546e-8, -4.826957e-9, 1), (0, -0.18549396, 0.98264545), (0.16385667, -0.19656803, 0.96670157), (0.2008446, -4.4883262e-7, 0.9796232), (0.16385667, -0.19656803, 0.96670157), (0.3937878, -0.20307687, 0.89648813), (0.4021681, -5.8898377e-7, 0.91556585), (0.2008446, -4.4883262e-7, 0.9796232), (0.4021681, -5.8898377e-7, 0.91556585), (0.39378837, 0.20307519, 0.89648825), (0.16385747, 0.19656734, 0.96670157), (0, 0.86179465, -0.5072574), (0, 0.86179465, -0.5072574), (-1.7493335e-8, 0.86179453, -0.5072574), (-1.7493313e-8, 0.86179453, -0.5072575), (-7.70453e-8, 0.8617947, 0.5072573), (-3.8522675e-8, 0.86179465, 0.5072573), (-3.852262e-8, 0.8617947, 0.50725734), (-7.70453e-8, 0.8617947, 0.5072573), (0.53518, 0.68997896, 0.4873515), (0.53518, 0.68997896, 0.4873515), (0.53518, 0.68997896, 0.4873515), (0.53518, 0.68997896, 0.4873515), (0.53517973, 0.68997884, -0.48735183), (0.53517973, 0.68997884, -0.48735183), (0.53517973, 0.68997884, -0.48735183), (0.53517973, 0.68997884, -0.48735183), (0.9396072, -0.0000018653786, -0.34225476), (0.92244005, -0.19028263, -0.33600155), (0.92244005, -0.19028263, -0.33600155), (0.9396072, -0.000001995109, -0.34225473), (0.9396072, -0.0000018653786, -0.34225476), (0.9396072, -0.000001995109, -0.34225473), (0.92244065, 0.19027884, -0.3360018), (0.92244065, 0.19027884, -0.3360018), (0.9396073, -0.0000018653782, 0.3422544), (0.9224408, 0.19027887, 0.33600143), (0.9224408, 0.19027887, 0.33600143), (0.9396073, -0.00000204789, 0.3422544), (0.9396073, -0.0000018653782, 0.3422544), (0.9396073, -0.00000204789, 0.3422544), (0.92244005, -0.19028272, 0.33600125), (0.92244005, -0.19028272, 0.33600125), (-0.13688609, -4.9421747e-9, 0.99058676), (-0.28199175, -4.327611e-8, 0.9594168), (-0.27683416, -0.19039842, 0.9418659), (-0.11274017, -0.1841183, 0.97641695), (-0.13688609, -4.9421747e-9, 0.99058676), (-0.11274017, -0.1841183, 0.97641695), (0.004599673, -0.18006495, 0.983644), (0.0046785166, -9.64409e-9, 0.99998903), (-0.13688609, -4.9421747e-9, 0.99058676), (0.0046785166, -9.64409e-9, 0.99998903), (0.0045996453, 0.18006493, 0.983644), (-0.11273936, 0.18411829, 0.9764171), (-0.13688609, -4.9421747e-9, 0.99058676), (-0.11273936, 0.18411829, 0.9764171), (-0.27683237, 0.19039838, 0.9418663), (-0.28199175, -4.327611e-8, 0.9594168), (0, -0.86179453, 0.5072576), (0, -0.86179453, 0.5072576), (0, -0.86179453, 0.5072575), (0, -0.86179453, 0.5072575), (0, -0.8617945, -0.5072578), (0, -0.8617944, -0.5072577), (0, -0.8617944, -0.5072577), (0, -0.8617945, -0.5072578), (0.53517896, -0.6899799, -0.48735112), (0.53517896, -0.6899799, -0.48735112), (0.53517896, -0.6899799, -0.48735112), (0.53517896, -0.6899799, -0.48735112), (0.53517884, -0.68998015, 0.487351), (0.53517884, -0.68998015, 0.487351), (0.53517884, -0.68998015, 0.487351), (0.53517884, -0.68998015, 0.487351), (-0.9714597, 4.1178037e-8, 0.23720483), (-0.95669466, 0.2202794, 0.19029544), (-0.9782619, 0.20737341, 0), (-1, 6.78802e-8, 0), (-0.9714597, 4.1178037e-8, 0.23720483), (-1, 6.78802e-8, 0), (-0.97826195, -0.20737329, 0), (-0.9566947, -0.22027926, 0.19029513), (-0.9714597, 4.1178037e-8, 0.23720483), (-0.9566947, -0.22027926, 0.19029513), (-0.8602466, -0.22440697, 0.45783985), (-0.8827608, 7.11683e-8, 0.46982262), (-0.9714597, 4.1178037e-8, 0.23720483), (-0.8827608, 7.11683e-8, 0.46982262), (-0.86024636, 0.22440699, 0.4578403), (-0.95669466, 0.2202794, 0.19029544), (-0.46424767, -0.8857054, 0), (-0.46424767, -0.8857054, 0), (-0.4642476, -0.88570553, 0), (-0.46424752, -0.8857055, 0), (0.11449028, -0.9829876, -0.14362267), (0.21750835, -0.9666987, -0.13484702), (0.18939489, -0.9573524, -0.2181881), (0.11235756, -0.95885134, -0.26072952), (-0.17763619, -0.8121851, 0.5556984), (0.01210123, -0.8548149, 0.51879185), (0.012255189, -0.8546904, 0.51899344), (-0.21160462, -0.8020782, 0.55847466), (-0.17763619, -0.8121851, 0.5556984), (-0.21160462, -0.8020782, 0.55847466), (-0.41794086, -0.7156185, 0.5596567), (-0.41794086, -0.7156185, 0.5596567), (0.11449032, 0.9829875, -0.14362238), (0.11235761, 0.9588514, -0.26072916), (0.1893949, 0.95735246, -0.21818791), (0.21750829, 0.9666987, -0.13484702), (-0.46424684, 0.88570577, 0), (-0.46424684, 0.8857059, 0), (-0.46424684, 0.8857059, 0), (-0.46424684, 0.88570577, 0), (-0.17763557, 0.8121853, 0.55569834), (-0.41793978, 0.7156191, 0.55965674), (-0.41793978, 0.7156191, 0.55965674), (-0.21160415, 0.8020784, 0.55847466), (-0.17763557, 0.8121853, 0.55569834), (-0.21160415, 0.8020784, 0.55847466), (0.0122552095, 0.85469043, 0.51899326), (0.012101242, 0.854815, 0.51879174), (-0.46713367, -0.8841807, 0.003235548), (-0.46671903, -0.8844014, 0.0027699634), (-0.480913, -0.8766878, 0.011879274), (-0.48242107, -0.8758479, 0.012664027), (0.34359336, -0.9390764, -0.008885894), (0.2518565, -0.9599395, 0.12281886), (0.19780616, -0.95806634, 0.20731977), (0.34496692, -0.9385655, 0.009626899), (0.34359336, -0.9390764, -0.008885894), (0.34496692, -0.9385655, 0.009626899), (0.18939489, -0.9573524, -0.2181881), (0.21750835, -0.9666987, -0.13484702), (-0.46713367, -0.8841807, 0.003235548), (-0.46424752, -0.8857055, 0), (-0.4642476, -0.88570553, 0), (-0.46671903, -0.8844014, 0.0027699634), (-0.98568714, 1.14158325e-7, -0.16858463), (-0.9704716, -0.19190538, -0.14614059), (-0.9803028, -0.1971686, -0.011442018), (-0.9999343, 9.6895924e-8, -0.011457706), (-0.98568714, 1.14158325e-7, -0.16858463), (-0.9999343, 9.6895924e-8, -0.011457706), (-0.9803029, 0.19716881, -0.011442021), (-0.9704716, 0.19190563, -0.1461406), (-0.98568714, 1.14158325e-7, -0.16858463), (-0.9704716, 0.19190563, -0.1461406), (-0.92864364, 0.18841723, -0.31956202), (-0.94557995, 1.3664338e-7, -0.32539004), (-0.98568714, 1.14158325e-7, -0.16858463), (-0.94557995, 1.3664338e-7, -0.32539004), (-0.9286437, -0.18841693, -0.31956196), (-0.9704716, -0.19190538, -0.14614059), (-0.9999958, 7.275356e-8, -0.0028991443), (-0.9786251, 0.2056313, -0.0029491168), (-0.9803029, 0.19716881, -0.011442021), (-0.9999343, 9.6895924e-8, -0.011457706), (-0.9999958, 7.275356e-8, -0.0028991443), (-0.9999343, 9.6895924e-8, -0.011457706), (-0.9803028, -0.1971686, -0.011442018), (-0.9786251, -0.20563115, -0.0029491233), (-0.9999958, 7.275356e-8, -0.0028991443), (-0.9786251, -0.20563115, -0.0029491233), (-0.97826195, -0.20737329, 0), (-1, 6.78802e-8, 0), (-0.9999958, 7.275356e-8, -0.0028991443), (-1, 6.78802e-8, 0), (-0.9782619, 0.20737341, 0), (-0.9786251, 0.2056313, -0.0029491168), (0.9233072, -7.6892053e-7, 0.38406238), (0.8984519, -0.23046698, 0.37372348), (0.8984519, -0.23046698, 0.37372348), (0.9233071, -5.808974e-7, 0.38406232), (0.9233072, -7.6892053e-7, 0.38406238), (0.9233071, -5.808974e-7, 0.38406232), (0.8984521, 0.23046567, 0.37372354), (0.8984521, 0.23046567, 0.37372354), (0.9506857, -0.0000010519506, -0.31015584), (0.9283209, 0.2156305, -0.30285951), (0.9283209, 0.2156305, -0.30285951), (0.9506857, -0.0000010082148, -0.31015584), (0.9506857, -0.0000010519506, -0.31015584), (0.9506857, -0.0000010082148, -0.31015584), (0.92832047, -0.21563251, -0.30285925), (0.92832047, -0.21563251, -0.30285925), (0.34359333, 0.93907654, -0.008886131), (0.3449669, 0.9385655, 0.009626699), (0.19780593, 0.9580664, 0.2073201), (0.25185648, 0.9599395, 0.122818895), (-0.46713293, 0.88418114, 0.00323562), (-0.4824202, 0.87584835, 0.012664022), (-0.4809122, 0.8766883, 0.011879286), (-0.46671826, 0.88440174, 0.0027700246), (-0.46713293, 0.88418114, 0.00323562), (-0.46671826, 0.88440174, 0.0027700246), (-0.46424684, 0.8857059, 0), (-0.46424684, 0.8857059, 0), (0.34359333, 0.93907654, -0.008886131), (0.21750829, 0.9666987, -0.13484702), (0.1893949, 0.95735246, -0.21818791), (0.3449669, 0.9385655, 0.009626699), (-0.30277714, 1.6058728e-7, -0.9530614), (-0.2668508, 0.19418782, -0.9439712), (-0.16360082, 0.1911272, -0.96783525), (-0.16499437, 1.729858e-7, -0.9862945), (-0.30277714, 1.6058728e-7, -0.9530614), (-0.16499437, 1.729858e-7, -0.9862945), (-0.16360088, -0.19112681, -0.9678354), (-0.26685083, -0.1941875, -0.9439713), (-0.30277714, 1.6058728e-7, -0.9530614), (-0.26685083, -0.1941875, -0.9439713), (-0.47415802, -0.2006296, -0.85727584), (-0.48399913, 1.9289467e-7, -0.8750685), (-0.30277714, 1.6058728e-7, -0.9530614), (-0.48399913, 1.9289467e-7, -0.8750685), (-0.47415802, 0.20063, -0.8572758), (-0.2668508, 0.19418782, -0.9439712), (0.14143355, -0.98253304, 0.120935), (0.13471156, -0.9650355, 0.22485423), (0.19780616, -0.95806634, 0.20731977), (0.2518565, -0.9599395, 0.12281886), (-0.5433338, -0.8148049, -0.20219128), (-0.48242107, -0.8758479, 0.012664027), (-0.480913, -0.8766878, 0.011879274), (-0.5450621, -0.8108443, -0.21316357), (-0.5433338, -0.8148049, -0.20219128), (-0.5450621, -0.8108443, -0.21316357), (-0.5635789, -0.69327974, -0.44915697), (-0.5635789, -0.69327974, -0.44915697), (-0.05912773, -0.8599583, -0.5069277), (-0.05912773, -0.8599583, -0.5069277), (-0.066738114, -0.86570543, -0.49608484), (-0.06835009, -0.8669009, -0.49377242), (-0.5433332, 0.8148053, -0.2021913), (-0.5450614, 0.8108448, -0.2131636), (-0.4809122, 0.8766883, 0.011879286), (-0.4824202, 0.87584835, 0.012664022), (0.1414334, 0.9825331, 0.12093525), (0.25185648, 0.9599395, 0.122818895), (0.19780593, 0.9580664, 0.2073201), (0.13471127, 0.9650354, 0.2248546), (-0.0591278, 0.8599583, -0.5069277), (-0.068350226, 0.86690086, -0.49377248), (-0.066738226, 0.8657053, -0.49608493), (-0.0591278, 0.8599583, -0.5069277), (-0.5433332, 0.8148053, -0.2021913), (-0.5635785, 0.69328016, -0.44915697), (-0.5635785, 0.69328016, -0.44915697), (-0.5450614, 0.8108448, -0.2131636), (0.8839152, -2.084476e-7, 0.4676472), (0.58292717, -3.5281602e-7, 0.8125245), (0.5520874, -0.24731432, 0.7962632), (0.8517196, -0.26455417, 0.45231035), (0.8839152, -2.084476e-7, 0.4676472), (0.8517196, -0.26455417, 0.45231035), (0.9291491, -0.26121342, 0.26162842), (0.9291491, -0.26121342, 0.26162842), (0.8839152, -2.084476e-7, 0.4676472), (0.9291492, 0.2612133, 0.2616286), (0.9291492, 0.2612133, 0.2616286), (0.85171974, 0.2645538, 0.4523106), (0.8839152, -2.084476e-7, 0.4676472), (0.85171974, 0.2645538, 0.4523106), (0.55208737, 0.24731362, 0.7962634), (0.58292717, -3.5281602e-7, 0.8125245), (0.30463156, -2.7913646e-7, 0.95247024), (0.25344035, -3.1799203e-7, 0.96735096), (0.2481625, -0.20301884, 0.9472058), (0.29249695, -0.212881, 0.93226993), (0.30463156, -2.7913646e-7, 0.95247024), (0.29249695, -0.212881, 0.93226993), (0.5520874, -0.24731432, 0.7962632), (0.58292717, -3.5281602e-7, 0.8125245), (0.30463156, -2.7913646e-7, 0.95247024), (0.58292717, -3.5281602e-7, 0.8125245), (0.55208737, 0.24731362, 0.7962634), (0.29249677, 0.21288046, 0.9322701), (0.30463156, -2.7913646e-7, 0.95247024), (0.29249677, 0.21288046, 0.9322701), (0.24816239, 0.20301846, 0.94720584), (0.25344035, -3.1799203e-7, 0.96735096), (-0.35643697, 3.2725507e-7, -0.9343194), (-0.16499437, 1.729858e-7, -0.9862945), (-0.16360082, 0.1911272, -0.96783525), (-0.3557581, 0.2183379, -0.908716), (-0.35643697, 3.2725507e-7, -0.9343194), (-0.3557581, 0.2183379, -0.908716), (-0.63898015, 0.24993016, -0.7274884), (-0.6555185, 3.8248209e-7, -0.75517917), (-0.35643697, 3.2725507e-7, -0.9343194), (-0.6555185, 3.8248209e-7, -0.75517917), (-0.63898015, -0.24992941, -0.7274886), (-0.35575807, -0.2183372, -0.9087162), (-0.35643697, 3.2725507e-7, -0.9343194), (-0.35575807, -0.2183372, -0.9087162), (-0.16360088, -0.19112681, -0.9678354), (-0.16499437, 1.729858e-7, -0.9862945), (-0.14261141, -0.8942344, -0.42427203), (-0.06835009, -0.8669009, -0.49377242), (-0.066738114, -0.86570543, -0.49608484), (-0.12564853, -0.8893451, -0.4396335), (-0.14261141, -0.8942344, -0.42427203), (-0.12564853, -0.8893451, -0.4396335), (-0.24213271, -0.9171792, -0.31647125), (-0.25129926, -0.91860163, -0.30499133), (0.14179337, -0.9196963, 0.366133), (0.22647275, -0.9161241, 0.33079693), (0.24059828, -0.9183018, 0.3143789), (0.14840317, -0.91468483, 0.3759364), (0.14179337, -0.9196963, 0.366133), (0.14840317, -0.91468483, 0.3759364), (0.19780616, -0.95806634, 0.20731977), (0.13471156, -0.9650355, 0.22485423), (0.14179307, 0.9196961, 0.3661336), (0.13471127, 0.9650354, 0.2248546), (0.19780593, 0.9580664, 0.2073201), (0.14840293, 0.91468465, 0.37593699), (0.14179307, 0.9196961, 0.3661336), (0.14840293, 0.91468465, 0.37593699), (0.24059825, 0.91830176, 0.3143793), (0.22647269, 0.916124, 0.33079734), (-0.14261167, 0.8942346, -0.42427167), (-0.2512994, 0.9186018, -0.30499068), (-0.24213289, 0.9171794, -0.31647065), (-0.1256487, 0.8893452, -0.4396334), (-0.14261167, 0.8942346, -0.42427167), (-0.1256487, 0.8893452, -0.4396334), (-0.066738226, 0.8657053, -0.49608493), (-0.068350226, 0.86690086, -0.49377248), (-0.31512693, -0.9143863, 0.25415105), (-0.36838332, -0.9293393, 0.02494174), (-0.3680714, -0.9276151, 0.06366856), (-0.2849568, -0.91348594, 0.29041883), (-0.31512693, -0.9143863, 0.25415105), (-0.2849568, -0.91348594, 0.29041883), (-0.13903828, -0.90811276, 0.3949678), (-0.17672482, -0.9093119, 0.37672305), (0.31078482, -0.91935635, -0.2412399), (0.17317419, -0.91451395, -0.36561587), (0.20235026, -0.91589266, -0.34669158), (0.3282108, -0.9196359, -0.21574894), (0.31078482, -0.91935635, -0.2412399), (0.3282108, -0.9196359, -0.21574894), (0.37041897, -0.92880255, -0.010755725), (0.37084836, -0.9279814, -0.03635968), (-0.89262533, 2.3758517e-7, -0.45079932), (-0.6555185, 3.8248209e-7, -0.75517917), (-0.63898015, 0.24993016, -0.7274884), (-0.8610575, 0.2638073, -0.43472484), (-0.89262533, 2.3758517e-7, -0.45079932), (-0.8610575, 0.2638073, -0.43472484), (-0.92849314, 0.26122057, -0.26394007), (-0.92849314, 0.26122057, -0.26394007), (-0.89262533, 2.3758517e-7, -0.45079932), (-0.9284932, -0.26122028, -0.2639401), (-0.9284932, -0.26122028, -0.2639401), (-0.86105764, -0.26380685, -0.4347249), (-0.89262533, 2.3758517e-7, -0.45079932), (-0.86105764, -0.26380685, -0.4347249), (-0.63898015, -0.24992941, -0.7274886), (-0.6555185, 3.8248209e-7, -0.75517917), (-0.33436164, -0.92663264, -0.1719136), (-0.25129926, -0.91860163, -0.30499133), (-0.24213271, -0.9171792, -0.31647125), (-0.33398125, -0.9266198, -0.17272004), (-0.33436164, -0.92663264, -0.1719136), (-0.33398125, -0.9266198, -0.17272004), (-0.3680714, -0.9276151, 0.06366856), (-0.36838332, -0.9293393, 0.02494174), (0.33201367, -0.9267734, 0.1756643), (0.37084836, -0.9279814, -0.03635968), (0.37041897, -0.92880255, -0.010755725), (0.33275324, -0.9267987, 0.17412455), (0.33201367, -0.9267734, 0.1756643), (0.33275324, -0.9267987, 0.17412455), (0.24059828, -0.9183018, 0.3143789), (0.22647275, -0.9161241, 0.33079693), (0.3320137, 0.92677337, 0.17566459), (0.22647269, 0.916124, 0.33079734), (0.24059825, 0.91830176, 0.3143793), (0.33275327, 0.9267987, 0.17412484), (0.3320137, 0.92677337, 0.17566459), (0.33275327, 0.9267987, 0.17412484), (0.37041894, 0.9288025, -0.010755432), (0.3708484, 0.92798144, -0.03635922), (-0.33436158, 0.92663264, -0.17191328), (-0.36838326, 0.9293394, 0.024941677), (-0.36807135, 0.92761517, 0.06366835), (-0.33398125, 0.9266199, -0.17271975), (-0.33436158, 0.92663264, -0.17191328), (-0.33398125, 0.9266199, -0.17271975), (-0.24213289, 0.9171794, -0.31647065), (-0.2512994, 0.9186018, -0.30499068), (0.12675482, -2.2253708e-7, -0.9919341), (0.5108311, -3.3579653e-7, -0.8596811), (0.477112, -0.24789044, -0.8431574), (0.11210683, -0.23524812, -0.96544826), (0.12675482, -2.2253708e-7, -0.9919341), (0.11210683, -0.23524812, -0.96544826), (-0.10511724, -0.23519522, -0.9662471), (-0.106059656, -2.916717e-7, -0.99435973), (0.12675482, -2.2253708e-7, -0.9919341), (-0.106059656, -2.916717e-7, -0.99435973), (-0.10511671, 0.23519467, -0.9662474), (0.11210722, 0.23524764, -0.9654483), (0.12675482, -2.2253708e-7, -0.9919341), (0.11210722, 0.23524764, -0.9654483), (0.4771123, 0.24788977, -0.8431575), (0.5108311, -3.3579653e-7, -0.8596811), (0.310785, 0.9193564, -0.24123949), (0.3708484, 0.92798144, -0.03635922), (0.37041894, 0.9288025, -0.010755432), (0.32821083, 0.9196359, -0.21574853), (0.310785, 0.9193564, -0.24123949), (0.32821083, 0.9196359, -0.21574853), (0.20235033, 0.91589266, -0.3466914), (0.1731743, 0.91451395, -0.36561576), (-0.31512684, 0.91438645, 0.25415075), (-0.17672494, 0.90931195, 0.37672266), (-0.13903864, 0.9081128, 0.39496744), (-0.28495675, 0.91348606, 0.2904184), (-0.31512684, 0.91438645, 0.25415075), (-0.28495675, 0.91348606, 0.2904184), (-0.36807135, 0.92761517, 0.06366835), (-0.36838326, 0.9293394, 0.024941677), (0.843786, -2.8640932e-7, -0.53667986), (0.93894523, -1.480419e-7, -0.34406653), (0.9093093, -0.24925847, -0.33320695), (0.80688584, -0.25422806, -0.53320104), (0.843786, -2.8640932e-7, -0.53667986), (0.80688584, -0.25422806, -0.53320104), (0.477112, -0.24789044, -0.8431574), (0.5108311, -3.3579653e-7, -0.8596811), (0.843786, -2.8640932e-7, -0.53667986), (0.5108311, -3.3579653e-7, -0.8596811), (0.4771123, 0.24788977, -0.8431575), (0.8068861, 0.25422746, -0.53320086), (0.843786, -2.8640932e-7, -0.53667986), (0.8068861, 0.25422746, -0.53320086), (0.9093095, 0.24925804, -0.33320665), (0.93894523, -1.480419e-7, -0.34406653), (-0.62600666, -1.0186916e-7, 0.77981764), (-0.81510365, 8.707358e-9, 0.5793151), (-0.7940643, 0.22573814, 0.56436175), (-0.64136004, 0.22839358, 0.73245734), (-0.62600666, -1.0186916e-7, 0.77981764), (-0.64136004, 0.22839358, 0.73245734), (-0.27093422, 0.22028063, 0.9370545), (-0.24922144, -1.0604973e-7, 0.96844655), (-0.62600666, -1.0186916e-7, 0.77981764), (-0.24922144, -1.0604973e-7, 0.96844655), (-0.2709339, -0.22028086, 0.9370545), (-0.6413595, -0.22839381, 0.7324577), (-0.62600666, -1.0186916e-7, 0.77981764), (-0.6413595, -0.22839381, 0.7324577), (-0.79406404, -0.22573821, 0.564362), (-0.81510365, 8.707358e-9, 0.5793151), (0.054314956, 9.342904e-8, 0.9985239), (0.09009209, -0.2616566, 0.96094704), (0.24667108, -0.2253461, 0.9425351), (0.25462717, -1.1676432e-7, 0.9670393), (0.054314956, 9.342904e-8, 0.9985239), (0.25462717, -1.1676432e-7, 0.9670393), (0.24667118, 0.2253459, 0.9425351), (0.09009212, 0.2616567, 0.96094704), (0.054314956, 9.342904e-8, 0.9985239), (0.09009212, 0.2616567, 0.96094704), (-0.16220644, 0.28505832, 0.9446856), (-0.16220644, 0.28505832, 0.9446856), (0.054314956, 9.342904e-8, 0.9985239), (-0.16220656, -0.28505784, 0.94468564), (-0.16220656, -0.28505784, 0.94468564), (0.09009209, -0.2616566, 0.96094704), (0.08454567, -1.2529227e-7, 0.99641967), (-0.24922144, -1.0604973e-7, 0.96844655), (-0.27093422, 0.22028063, 0.9370545), (0.061882496, 0.21978916, 0.9735827), (0.08454567, -1.2529227e-7, 0.99641967), (0.061882496, 0.21978916, 0.9735827), (0.24667118, 0.2253459, 0.9425351), (0.25462717, -1.1676432e-7, 0.9670393), (0.08454567, -1.2529227e-7, 0.99641967), (0.25462717, -1.1676432e-7, 0.9670393), (0.24667108, -0.2253461, 0.9425351), (0.061882105, -0.21978939, 0.9735827), (0.08454567, -1.2529227e-7, 0.99641967), (0.061882105, -0.21978939, 0.9735827), (-0.2709339, -0.22028086, 0.9370545), (-0.24922144, -1.0604973e-7, 0.96844655), (-0.022670504, -0.9042059, 0.4264946), (-0.17672482, -0.9093119, 0.37672305), (-0.13903828, -0.90811276, 0.3949678), (0.0061231293, -0.9035904, 0.4283538), (-0.022670504, -0.9042059, 0.4264946), (0.0061231293, -0.9035904, 0.4283538), (0.08425778, -0.9057958, 0.4152524), (0.0799499, -0.9047468, 0.41837952), (0.028132876, -0.90742576, -0.41926962), (-0.058535222, -0.9080662, -0.41471604), (-0.054468006, -0.9075515, -0.41639343), (0.049338188, -0.9079525, -0.4161587), (0.028132876, -0.90742576, -0.41926962), (0.049338188, -0.9079525, -0.4161587), (0.20235026, -0.91589266, -0.34669158), (0.17317419, -0.91451395, -0.36561587), (0.028132817, 0.9074258, -0.4192696), (0.1731743, 0.91451395, -0.36561576), (0.20235033, 0.91589266, -0.3466914), (0.049338073, 0.9079525, -0.41615862), (0.028132817, 0.9074258, -0.4192696), (0.049338073, 0.9079525, -0.41615862), (-0.054468013, 0.90755165, -0.41639313), (-0.05853517, 0.90806633, -0.41471577), (-0.022671102, 0.90420616, 0.42649436), (0.07994945, 0.90474683, 0.41837925), (0.08425736, 0.90579593, 0.41525215), (0.0061225877, 0.9035905, 0.4283535), (-0.022671102, 0.90420616, 0.42649436), (0.0061225877, 0.9035905, 0.4283535), (-0.13903864, 0.9081128, 0.39496744), (-0.17672494, 0.90931195, 0.37672266), (-0.9697545, 3.6230995e-7, -0.24408238), (-0.948286, 0.20925137, -0.23867889), (-0.948286, 0.20925137, -0.23867889), (-0.9697545, 5.1719974e-7, -0.24408238), (-0.9697545, 3.6230995e-7, -0.24408238), (-0.9697545, 5.1719974e-7, -0.24408238), (-0.9482862, -0.20925048, -0.23867889), (-0.9482862, -0.20925048, -0.23867889), (-0.92788345, 5.3166275e-7, 0.37287027), (-0.89779735, -0.25258228, 0.36077988), (-0.89779735, -0.25258228, 0.36077988), (-0.92788345, 4.845784e-7, 0.37287027), (-0.92788345, 5.3166275e-7, 0.37287027), (-0.92788345, 4.845784e-7, 0.37287027), (-0.8977969, 0.25258324, 0.3607802), (-0.8977969, 0.25258324, 0.3607802), (-0.08332155, -0.91081995, -0.40430743), (-0.08332155, -0.91081995, -0.40430743), (-0.054468006, -0.9075515, -0.41639343), (-0.058535222, -0.9080662, -0.41471604), (-0.10490741, -0.8937856, 0.4360524), (0.0799499, -0.9047468, 0.41837952), (0.08425778, -0.9057958, 0.4152524), (-0.16376759, -0.8818954, 0.44208667), (-0.10490741, -0.8937856, 0.4360524), (-0.16376759, -0.8818954, 0.44208667), (-0.3858289, -0.80531883, 0.45010868), (-0.3858289, -0.80531883, 0.45010868), (-0.58697885, -0.7319763, -0.34592855), (-0.58697885, -0.7319763, -0.34592855), (-0.58697885, -0.7319763, -0.34592855), (-0.58697885, -0.7319763, -0.34592855), (-0.1049075, 0.8937858, 0.4360521), (-0.16376753, 0.8818956, 0.44208634), (0.08425736, 0.90579593, 0.41525215), (0.07994945, 0.90474683, 0.41837925), (-0.08332136, 0.91082025, -0.40430683), (-0.05853517, 0.90806633, -0.41471577), (-0.054468013, 0.90755165, -0.41639313), (-0.08332136, 0.91082025, -0.40430683), (-0.5869793, 0.73197615, -0.3459278), (-0.5869793, 0.73197615, -0.3459278), (-0.5869793, 0.73197615, -0.3459278), (-0.5869793, 0.73197615, -0.3459278), (-0.1049075, 0.8937858, 0.4360521), (-0.38582855, 0.80531913, 0.4501083), (-0.38582855, 0.80531913, 0.4501083), (-0.16376753, 0.8818956, 0.44208634), (-0.41227663, -2.3561746e-7, -0.91105866), (-0.38746142, 0.24614537, -0.8884178), (-0.10511671, 0.23519467, -0.9662474), (-0.106059656, -2.916717e-7, -0.99435973), (-0.41227663, -2.3561746e-7, -0.91105866), (-0.106059656, -2.916717e-7, -0.99435973), (-0.10511724, -0.23519522, -0.9662471), (-0.38746122, -0.24614578, -0.88841766), (-0.41227663, -2.3561746e-7, -0.91105866), (-0.38746122, -0.24614578, -0.88841766), (-0.6251229, -0.237696, -0.7434528), (-0.64356846, -1.6030238e-7, -0.76538855), (-0.41227663, -2.3561746e-7, -0.91105866), (-0.64356846, -1.6030238e-7, -0.76538855), (-0.6251241, 0.23769584, -0.74345165), (-0.38746142, 0.24614537, -0.8884178)] (
                interpolation = "faceVarying"
            )
            point3f[] points = [(0.004881933, -4.718835e-8, 0.3696496), (0.004881933, -4.718835e-8, 0.56398976), (0.004882216, 0.17158465, 0.46681964), (0.0048816497, -0.17158476, 0.46681967), (0.1910745, -4.718835e-8, 0.3696496), (0.1910745, -4.718835e-8, 0.56398976), (0.19107488, 0.17158465, 0.46681964), (0.2795607, -4.718835e-8, 0.46681967), (-0.20194274, -3.5391263e-8, 0.56398976), (0.19107413, -0.17158476, 0.46681967), (-0.311061, -2.3594176e-8, 0.48250258), (-0.20194283, -0.17158474, 0.4746611), (-0.20194264, 0.17158468, 0.4746611), (-0.20194283, -0.17158474, 0.29095194), (-0.30700636, -2.949272e-8, 0.11142654), (-0.311061, -2.3594176e-8, 0.30663487), (-0.092824474, -4.718835e-8, 0.27526897), (-0.20194264, 0.17158468, 0.29095194), (-0.22244613, -3.5391263e-8, 0.0053247395), (-0.2121945, -0.17158474, 0.10094802), (-0.21219435, 0.17158467, 0.100948036), (0.31665772, 2.6543447e-8, -0.018546272), (0.057035062, -2.0644904e-8, 0.17455284), (-0.069307454, 0, -0.02180467), (-0.0061362684, -0.1715847, 0.07637405), (-0.0061361226, 0.1715847, 0.07637412), (0.17376743, -0.17158465, -0.33604476), (0.06298052, 4.423908e-8, -0.14601874), (0.18981911, -0.17158465, -0.082282595), (0.18981911, 0.17158474, -0.082282424), (0.01224874, 5.6036168e-8, -0.5610585), (0.17376757, 0.17158477, -0.33604467), (0.3044988, 5.898544e-8, -0.38171938), (0.043036215, 6.193471e-8, -0.2903701), (-0.23326188, 8.847816e-9, -0.2771145), (-0.0780146, 4.423908e-8, -0.3216332), (-0.032883044, -0.17158465, -0.44134584), (-0.032882813, 0.17158476, -0.44134584), (-0.34882385, 8.847816e-9, -0.37617314), (-0.24379838, -0.1715847, -0.4068095), (-0.2437982, 0.17158473, -0.40680963), (-0.2543347, 2.949272e-8, -0.5365046), (0.10028328, -4.718835e-8, 0.3696496), (0.10028328, -4.718835e-8, 0.56398976), (0.10028363, 0.17158465, 0.46681964), (0.10028292, -0.17158476, 0.46681967), (0.0048817205, -0.12868857, 0.39394215), (0.19107422, -0.12868857, 0.53969723), (0.004882145, 0.12868848, 0.53969723), (0.19107479, 0.12868848, 0.3939421), (0.004882145, 0.12868848, 0.3939421), (0.19107479, 0.12868848, 0.53969723), (0.0048817205, -0.12868857, 0.53969723), (0.19107422, -0.12868857, 0.39394215), (0.25743914, -4.718835e-8, 0.39394215), (0.25743914, -4.718835e-8, 0.53969723), (0.25743943, 0.12868847, 0.46681964), (0.25743887, -0.12868857, 0.46681967), (-0.09567763, -0.17158474, 0.46878004), (-0.28378144, -0.12868856, 0.48054218), (-0.2837814, 0.12868851, 0.48054224), (-0.09567725, 0.17158465, 0.46878004), (-0.2837814, -2.6543447e-8, 0.54361796), (-0.20194267, 0.1286885, 0.5416576), (-0.095677435, -4.423908e-8, 0.56398976), (-0.2019428, -0.12868856, 0.5416576), (-0.28378144, -0.12868856, 0.3027141), (-0.12010416, -0.12868857, 0.27918974), (-0.2837814, 0.12868851, 0.30271414), (-0.12010392, 0.12868848, 0.27918968), (-0.31004733, -2.5068811e-8, 0.21064247), (-0.20450558, 0.17158468, 0.19626065), (-0.05535959, -4.055249e-8, 0.20289962), (-0.20450574, -0.17158474, 0.19626065), (-0.20194283, -0.17158474, 0.38406953), (-0.06839787, -4.718835e-8, 0.34605446), (-0.20194264, 0.17158468, 0.38406953), (-0.311061, -2.3594176e-8, 0.3977921), (-0.28383902, -3.3916628e-8, 0.03448722), (-0.21988316, 0.1286885, 0.029230576), (-0.14390862, -2.6543447e-8, -0.004094647), (-0.21988323, -0.12868856, 0.029230546), (-0.28330338, 0.1286885, 0.10880692), (-0.2833034, -0.12868856, 0.108806886), (-0.11327401, -0.17158473, 0.089565285), (-0.113273785, 0.17158467, 0.089565285), (-0.053514592, 0.12868851, 0.002740055), (0.00008105041, 2.8755402e-8, -0.063785866), (0.09847579, 0.17158471, 0.029662302), (0.19687049, 7.37318e-9, 0.1231103), (0.09847575, -0.17158468, 0.02966214), (0.041242182, -0.12868854, 0.15000813), (0.041242313, 0.12868851, 0.15000817), (0.087821916, 5.0137622e-8, -0.23328595), (0.22816072, 0.17158476, -0.21800357), (0.36849955, 4.4976396e-8, -0.20272134), (0.22816071, -0.17158465, -0.21800372), (0.28494805, 0.12868856, -0.03448027), (0.28494805, -0.1286885, -0.034480397), (0.09469016, -0.12868848, -0.13008477), (0.09469016, 0.12868857, -0.13008462), (-0.027026108, 6.193471e-8, -0.31918216), (0.07172469, 0.17158478, -0.41697052), (0.17047526, 6.709594e-8, -0.5147589), (0.07172446, -0.17158465, -0.41697052), (0.2718159, -0.12868847, -0.37030074), (0.075719, -0.12868847, -0.3017888), (0.07571907, 0.12868859, -0.30178872), (0.27181605, 0.12868859, -0.37030068), (-0.1375522, 2.5068811e-8, -0.30513877), (-0.13855655, 0.17158474, -0.43076187), (-0.13956112, 3.9077854e-8, -0.55638486), (-0.13855676, -0.17158468, -0.43076178), (0.00096592196, 0.12868859, -0.5311304), (0.00096572214, -0.12868848, -0.5311303), (-0.06673175, -0.12868848, -0.35156137), (-0.06673161, 0.12868857, -0.35156134), (-0.31905022, 1.474636e-9, -0.2849846), (-0.3225674, 0.12868853, -0.3838323), (-0.32608467, 2.1382222e-8, -0.48267993), (-0.32256752, -0.12868851, -0.38383222), (-0.23589589, 0.12868853, -0.3095383), (-0.23589608, -0.12868851, -0.30953828), (-0.25170064, -0.1286885, -0.5040807), (-0.25170055, 0.12868856, -0.5040809), (-0.05351468, -0.12868853, 0.0027399827), (0.10028301, -0.12868857, 0.39394215), (0.10028301, -0.12868857, 0.53969723), (0.10028354, 0.12868847, 0.53969723), (0.10028354, 0.12868847, 0.39394206), (0.24023372, 0.095324785, 0.4128363), (0.24023372, 0.095324785, 0.52080303), (0.2402333, -0.09532488, 0.52080303), (0.2402333, -0.09532488, 0.41283634), (-0.26256403, -0.09532486, 0.52690196), (-0.26256397, 0.09532481, 0.526902), (-0.095677294, 0.12868848, 0.5401873), (-0.09567758, -0.12868857, 0.5401873), (-0.09465053, -0.14413118, 0.37229156), (-0.09465022, 0.1441311, 0.37229148), (-0.2837814, 0.12868851, 0.3943615), (-0.28378144, -0.12868856, 0.39436144), (-0.28366193, -0.12868856, 0.207047), (-0.2836619, 0.12868851, 0.20704706), (-0.09120731, 0.14413112, 0.18249923), (-0.09120755, -0.14413118, 0.18249929), (-0.26738396, -0.095324874, 0.05248882), (-0.26738393, 0.09532481, 0.05248885), (-0.13624988, 0.1286885, 0.019320346), (-0.13625, -0.12868856, 0.019320326), (0.02467972, -0.1286885, -0.040423904), (0.02467974, 0.12868856, -0.040423773), (0.17227182, 0.12868853, 0.09974833), (0.17227179, -0.12868851, 0.099748224), (0.1229066, -0.12868847, -0.22946544), (0.122906625, 0.12868857, -0.22946529), (0.33341485, 0.12868857, -0.20654185), (0.33341482, -0.12868847, -0.20654197), (-0.0023385086, -0.12868847, -0.3436293), (-0.002338367, 0.1286886, -0.3436292), (0.14578769, 0.1286886, -0.4903118), (0.14578748, -0.12868847, -0.4903118), (-0.1378034, -0.12868851, -0.33654454), (-0.13780324, 0.12868856, -0.33654457), (-0.13930993, 0.12868857, -0.5249792), (-0.13931008, -0.12868848, -0.5249791), (-0.2982413, -0.09532483, -0.3170359), (-0.29824114, 0.095324844, -0.31703594), (-0.30605042, 0.09532486, -0.4625428), (-0.3060505, -0.09532481, -0.46254277)]
            uniform token subdivisionScheme = "none"
            custom string userProperties:blender:data_name = "Cube.035"
        }
    }

    def Scope "_materials"
    {
        def Material "White"
        {
            token outputs:surface.connect = </root/_materials/White/Principled_BSDF.outputs:surface>
            custom string userProperties:blender:data_name = "White"

            def Shader "Principled_BSDF"
            {
                uniform token info:id = "UsdPreviewSurface"
                float inputs:clearcoat = 0
                float inputs:clearcoatRoughness = 0.03
                color3f inputs:diffuseColor = (0.56479704, 0.59257376, 0.50614274)
                float inputs:ior = 1.5
                float inputs:metallic = 0
                float inputs:opacity = 1
                float inputs:roughness = 0.6900348
                float inputs:specular = 0.5
                token outputs:surface
            }
        }
    }
}

