#usda 1.0
(
    defaultPrim = "root"
    doc = "Blender v5.1.2"
    metersPerUnit = 1
    upAxis = "Y"
)

def Xform "root" (
    customData = {
        dictionary Blender = {
            bool generated = 1
        }
    }
)
{
    float3 xformOp:rotateXYZ = (-90, -0, 0)
    uniform token[] xformOpOrder = ["xformOp:rotateXYZ"]

    def SkelRoot "Hazard_SpikeTrap_Armature"
    {
        custom string userProperties:blender:object_name = "Hazard_SpikeTrap_Armature"
        float3 xformOp:rotateXYZ = (-0.0000076293945, 0, 0)
        float3 xformOp:scale = (1, 1, 1)
        double3 xformOp:translate = (0, 0, 0)
        uniform token[] xformOpOrder = ["xformOp:translate", "xformOp:rotateXYZ", "xformOp:scale"]

        def Skeleton "Hazard_SpikeTrap_Armature" (
            prepend apiSchemas = ["SkelBindingAPI"]
        )
        {
            uniform matrix4d[] bindTransforms = [( (1, 2.3841855067985307e-7, 0, 0), (0, 0, 1, 0), (2.3841855067985307e-7, -1, 0, 0), (0, 0, 0, 1) ), ( (1, 2.3841855067985307e-7, 0, 0), (0, 0, 0.9999999403953552, 0), (2.3841855067985307e-7, -1, 0, 0), (0, 0, -2.9802322387695312e-8, 1) ), ( (1, 2.3841856489070778e-7, 0, 0), (0, 0, 0.9999999403953552, 0), (2.3841856489070778e-7, -1, 0, 0), (0, 0, 0.3289501667022705, 1) )]
            uniform token[] joints = ["Root", "Root/Spikes", "Root/Spikes/Spikes_end"]
            float[] primvars:blender:bone_lengths = [0.01, 0.32895023, 0.3289503] (
                interpolation = "uniform"
            )
            uniform matrix4d[] restTransforms = [( (1, 2.3841853646899835e-7, -3.0145773843772566e-14, 0), (1.2609278042269995e-14, 7.35534015916528e-8, 1, 0), (2.3841853646899835e-7, -1, 7.35534015916528e-8, 0), (0, 0, 0, 1) ), ( (1, 0, -2.2173242749176638e-21, 0), (0, 0.9999999403953552, 0, 0), (-2.2173242749176638e-21, 0, 1, 0), (0, -2.9802322387695312e-8, 0, 1) ), ( (1, 0, -1.4210856409267898e-14, 0), (0, 1, 0, 0), (1.4210852174103162e-14, 0, 1, 0), (8.470329472543003e-22, 0.3289502263069153, -1.7763568394002505e-15, 1) )]
        }

        def Xform "Hazard_SpikeTrap"
        {
            custom string userProperties:blender:object_name = "Hazard_SpikeTrap"

            def Mesh "Cube_183" (
                active = true
                prepend apiSchemas = ["MaterialBindingAPI", "SkelBindingAPI"]
            )
            {
                uniform bool doubleSided = 1
                float3[] extent = [(-1, -1, -0.021765888), (1, 1, 0.67500997)]
                int[] faceVertexCounts = [3, 4, 3, 4, 4, 4, 4, 4, 4, 4, 4, 4, 4, 4, 4, 3, 4, 4, 4, 4, 4, 4, 4, 4, 4, 4, 4, 4, 4, 4, 4, 4, 4, 4, 4, 4, 4, 4, 4, 4, 4, 4, 4, 4, 4, 4, 4, 20, 14, 4, 4, 14, 4, 3, 3, 20, 4, 3, 3, 4, 4, 4, 4, 3, 4, 4, 4, 4, 4, 4, 4, 4, 4, 4, 4, 4, 4, 4, 4, 4, 4, 4, 4, 4, 4, 4, 4, 4, 8, 8, 8, 8, 8, 12, 4, 4, 4, 4, 4, 4, 4, 4, 4, 4, 4, 4, 4, 4, 4, 4, 4, 4, 4, 4, 4, 4, 4, 4, 4, 4, 4, 4, 4, 4, 4, 4, 4, 4, 4, 4, 4, 4, 4, 4, 4, 4, 4, 4, 4, 4, 4, 4, 4, 4, 4, 4, 4, 4, 4, 4, 4, 4, 4, 4, 4, 4, 4, 4, 4, 4, 4, 4, 4, 4, 4, 4, 4, 4, 4, 4, 4, 4, 4, 4, 4, 4, 4, 4, 4, 4, 4, 4, 4, 4, 4, 4, 4, 4, 4, 4, 4, 4, 4, 4]
                int[] faceVertexIndices = [59, 66, 41, 46, 53, 48, 45, 66, 63, 41, 127, 39, 37, 130, 101, 19, 17, 100, 117, 2, 0, 119, 93, 38, 36, 94, 94, 36, 31, 97, 100, 17, 14, 107, 112, 10, 11, 111, 130, 37, 33, 129, 126, 20, 21, 125, 107, 14, 13, 106, 92, 29, 32, 95, 106, 13, 12, 103, 54, 51, 40, 125, 21, 22, 124, 96, 34, 38, 93, 72, 69, 70, 77, 124, 22, 30, 131, 122, 1, 2, 117, 97, 31, 27, 98, 113, 24, 9, 108, 115, 8, 10, 112, 103, 12, 15, 102, 104, 18, 19, 101, 102, 15, 16, 105, 98, 27, 28, 99, 109, 25, 23, 114, 128, 35, 39, 127, 129, 33, 20, 126, 119, 0, 3, 123, 111, 11, 26, 110, 116, 6, 7, 118, 95, 32, 34, 96, 121, 4, 1, 122, 105, 16, 18, 104, 131, 30, 35, 128, 99, 28, 29, 92, 110, 26, 25, 109, 108, 9, 8, 115, 123, 3, 6, 116, 120, 5, 4, 121, 114, 23, 24, 113, 118, 7, 5, 120, 44, 50, 53, 46, 45, 48, 62, 56, 47, 40, 15, 12, 13, 14, 8, 9, 24, 23, 25, 22, 21, 4, 5, 7, 6, 3, 41, 63, 71, 42, 38, 34, 32, 29, 28, 17, 19, 18, 16, 15, 40, 51, 65, 58, 56, 62, 57, 60, 86, 80, 59, 41, 3, 0, 2, 1, 4, 21, 20, 33, 37, 39, 43, 87, 77, 70, 68, 74, 71, 78, 42, 78, 75, 42, 83, 43, 39, 35, 30, 22, 25, 26, 11, 10, 8, 14, 17, 28, 27, 31, 36, 38, 42, 75, 89, 82, 80, 86, 83, 90, 43, 90, 87, 43, 69, 72, 50, 44, 60, 57, 58, 65, 84, 81, 82, 89, 81, 84, 74, 68, 47, 54, 40, 48, 53, 55, 49, 49, 55, 54, 47, 53, 50, 52, 55, 55, 52, 51, 54, 60, 65, 67, 61, 61, 67, 66, 59, 65, 62, 64, 67, 67, 64, 63, 66, 72, 77, 79, 73, 73, 79, 78, 71, 77, 74, 76, 79, 79, 76, 75, 78, 84, 89, 91, 85, 85, 91, 90, 83, 89, 86, 88, 91, 91, 88, 87, 90, 47, 63, 64, 49, 49, 64, 62, 48, 71, 51, 52, 73, 73, 52, 50, 72, 59, 87, 88, 61, 61, 88, 86, 60, 83, 75, 76, 85, 85, 76, 74, 84, 131, 128, 127, 130, 129, 126, 125, 124, 118, 120, 121, 122, 117, 119, 123, 116, 114, 113, 108, 115, 112, 111, 110, 109, 105, 104, 101, 100, 107, 106, 103, 102, 99, 92, 95, 96, 93, 94, 97, 98, 44, 46, 45, 56, 58, 57, 80, 82, 81, 68, 70, 69, 132, 137, 149, 138, 132, 138, 150, 139, 132, 139, 152, 140, 132, 140, 151, 137, 133, 141, 151, 140, 133, 140, 152, 142, 133, 142, 156, 143, 133, 143, 155, 141, 134, 144, 155, 143, 134, 143, 156, 145, 134, 145, 154, 146, 134, 146, 153, 144, 135, 147, 153, 146, 135, 146, 154, 148, 135, 148, 150, 138, 135, 138, 149, 147, 136, 145, 156, 142, 136, 142, 152, 139, 136, 139, 150, 148, 136, 148, 154, 145, 157, 163, 174, 162, 157, 164, 175, 163, 157, 165, 177, 164, 157, 162, 176, 165, 158, 165, 176, 166, 158, 167, 177, 165, 158, 168, 181, 167, 158, 166, 180, 168, 159, 168, 180, 169, 159, 170, 181, 168, 159, 171, 179, 170, 159, 169, 178, 171, 160, 171, 178, 172, 160, 173, 179, 171, 160, 163, 175, 173, 160, 172, 174, 163, 161, 167, 181, 170, 161, 164, 177, 167, 161, 173, 175, 164, 161, 170, 179, 173, 182, 188, 199, 187, 182, 189, 200, 188, 182, 190, 202, 189, 182, 187, 201, 190, 183, 190, 201, 191, 183, 192, 202, 190, 183, 193, 206, 192, 183, 191, 205, 193, 184, 193, 205, 194, 184, 195, 206, 193, 184, 196, 204, 195, 184, 194, 203, 196, 185, 196, 203, 197, 185, 198, 204, 196, 185, 188, 200, 198, 185, 197, 199, 188, 186, 192, 206, 195, 186, 189, 202, 192, 186, 198, 200, 189, 186, 195, 204, 198, 207, 212, 224, 213, 207, 213, 225, 214, 207, 214, 227, 215, 207, 215, 226, 212, 208, 216, 226, 215, 208, 215, 227, 217, 208, 217, 231, 218, 208, 218, 230, 216, 209, 219, 230, 218, 209, 218, 231, 220, 209, 220, 229, 221, 209, 221, 228, 219, 210, 222, 228, 221, 210, 221, 229, 223, 210, 223, 225, 213, 210, 213, 224, 222, 211, 220, 231, 217, 211, 217, 227, 214, 211, 214, 225, 223, 211, 223, 229, 220, 232, 237, 249, 238, 232, 238, 250, 239, 232, 239, 252, 240, 232, 240, 251, 237, 233, 241, 251, 240, 233, 240, 252, 242, 233, 242, 256, 243, 233, 243, 255, 241, 234, 244, 255, 243, 234, 243, 256, 245, 234, 245, 254, 246, 234, 246, 253, 244, 235, 247, 253, 246, 235, 246, 254, 248, 235, 248, 250, 238, 235, 238, 249, 247, 236, 245, 256, 242, 236, 242, 252, 239, 236, 239, 250, 248, 236, 248, 254, 245]
                rel material:binding = </root/_materials/Red>
                normal3f[] normals = [(-0.04195666, 0.1332017, 0.9902005), (-0.17872782, 0.12372524, 0.97608835), (-5.338758e-7, 0, 1), (-0.92387944, -0.38268355, 0), (-0.92387944, -0.38268355, 0), (-0.98078525, -0.19509038, 0), (-0.98078525, -0.19509038, 0), (-0.17872782, 0.12372524, 0.97608835), (-0.21475577, 0.05633501, 0.97504175), (-5.338758e-7, 0, 1), (-0.9238796, -0.38268322, 0), (-0.9238796, -0.38268322, 0), (-0.9238796, -0.38268322, 0), (-0.9238796, -0.38268322, 0), (-0.9238792, 0.38268438, 0), (-0.9238792, 0.38268438, 0), (-0.9238792, 0.38268438, 0), (-0.9238792, 0.38268438, 0), (0.3826828, -0.9238798, 0), (0.3826828, -0.9238798, 0), (0.3826828, -0.9238798, 0), (0.3826828, -0.9238798, 0), (-0.92387974, -0.38268286, 0), (-0.92387974, -0.38268286, 0), (-0.92387974, -0.38268286, 0), (-0.92387974, -0.38268286, 0), (-0.38268414, -0.9238792, 0), (-0.38268414, -0.9238792, 0), (-0.38268414, -0.9238792, 0), (-0.38268414, -0.9238792, 0), (-0.92387974, -0.382683, 0), (-0.92387974, -0.382683, 0), (-0.92387974, -0.382683, 0), (-0.92387974, -0.382683, 0), (0.3826836, 0.9238794, 0), (0.3826836, 0.9238794, 0), (0.3826836, 0.9238794, 0), (0.3826836, 0.9238794, 0), (-0.38268447, -0.92387915, 0), (-0.38268447, -0.92387915, 0), (-0.38268447, -0.92387915, 0), (-0.38268447, -0.92387915, 0), (0.9238791, -0.38268453, 0), (0.9238791, -0.38268453, 0), (0.9238791, -0.38268453, 0), (0.9238791, -0.38268453, 0), (-0.38268387, -0.9238793, 0), (-0.38268387, -0.9238793, 0), (-0.38268387, -0.9238793, 0), (-0.38268387, -0.9238793, 0), (0.38268432, 0.9238792, 0), (0.38268432, 0.9238792, 0), (0.38268432, 0.9238792, 0), (0.38268432, 0.9238792, 0), (0.3826827, -0.92387974, 0), (0.3826827, -0.92387974, 0), (0.3826827, -0.92387974, 0), (0.3826827, -0.92387974, 0), (-0.17872652, -0.12372512, 0.9760886), (-0.04195645, -0.1332012, 0.9902006), (0.0000013255924, 0, 1), (0.92388, 0.38268238, 0), (0.92388, 0.38268238, 0), (0.92388, 0.38268238, 0), (0.92388, 0.38268238, 0), (-0.9238791, 0.38268453, 0), (-0.9238791, 0.38268453, 0), (-0.9238791, 0.38268453, 0), (-0.9238791, 0.38268453, 0), (0.19509043, -0.98078525, 0), (0.19509043, -0.98078525, 0), (0.38268363, -0.9238795, 0), (0.38268363, -0.9238795, 0), (0.38268393, 0.9238793, 5.1073577e-8), (0.38268393, 0.9238793, 5.1073577e-8), (0.38268393, 0.9238793, 5.1073577e-8), (0.38268393, 0.9238793, 5.1073577e-8), (-0.38268402, -0.9238793, 0), (-0.38268402, -0.9238793, 0), (-0.38268402, -0.9238793, 0), (-0.38268402, -0.9238793, 0), (0.38268256, -0.9238798, 0), (0.38268256, -0.9238798, 0), (0.38268256, -0.9238798, 0), (0.38268256, -0.9238798, 0), (0.38268355, -0.9238795, 0), (0.38268355, -0.9238795, 0), (0.38268355, -0.9238795, 0), (0.38268355, -0.9238795, 0), (0.9238795, 0.38268358, 0), (0.9238795, 0.38268358, 0), (0.9238795, 0.38268358, 0), (0.9238795, 0.38268358, 0), (0.9238794, -0.38268372, 0), (0.9238794, -0.38268372, 0), (0.9238794, -0.38268372, 0), (0.9238794, -0.38268372, 0), (-0.38268292, 0.92387974, 0), (-0.38268292, 0.92387974, 0), (-0.38268292, 0.92387974, 0), (-0.38268292, 0.92387974, 0), (0.92387974, 0.38268286, -4.7376673e-8), (0.92387974, 0.38268286, -4.7376673e-8), (0.92387974, 0.38268286, -4.7376673e-8), (0.92387974, 0.38268286, -4.7376673e-8), (0.9238792, -0.38268417, 0), (0.9238792, -0.38268417, 0), (0.9238792, -0.38268417, 0), (0.9238792, -0.38268417, 0), (-0.9238794, -0.38268355, 0), (-0.9238794, -0.38268355, 0), (-0.9238794, -0.38268355, 0), (-0.9238794, -0.38268355, 0), (-0.9238794, 0.38268372, -5.107358e-8), (-0.9238794, 0.38268372, -5.107358e-8), (-0.9238794, 0.38268372, -5.107358e-8), (-0.9238794, 0.38268372, -5.107358e-8), (0.38268292, -0.92387974, 0), (0.38268292, -0.92387974, 0), (0.38268292, -0.92387974, 0), (0.38268292, -0.92387974, 0), (0.92387915, -0.38268435, -2.7769337e-8), (0.92387915, -0.38268435, -2.7769337e-8), (0.92387915, -0.38268435, -2.7769337e-8), (0.92387915, -0.38268435, -2.7769337e-8), (-0.38268355, 0.9238794, 0), (-0.38268355, 0.9238794, 0), (-0.38268355, 0.9238794, 0), (-0.38268355, 0.9238794, 0), (0.38268414, 0.9238793, 0), (0.38268414, 0.9238793, 0), (0.38268414, 0.9238793, 0), (0.38268414, 0.9238793, 0), (-0.38268286, 0.92387974, 0), (-0.38268286, 0.92387974, 0), (-0.38268286, 0.92387974, 0), (-0.38268286, 0.92387974, 0), (-0.92387974, -0.38268286, 5.1073577e-8), (-0.92387974, -0.38268286, 5.1073577e-8), (-0.92387974, -0.38268286, 5.1073577e-8), (-0.92387974, -0.38268286, 5.1073577e-8), (0.3826835, 0.92387956, -1.02147155e-7), (0.3826835, 0.92387956, -1.02147155e-7), (0.3826835, 0.92387956, -1.02147155e-7), (0.3826835, 0.92387956, -1.02147155e-7), (-0.38268244, 0.92388, 5.18431e-8), (-0.38268244, 0.92388, 5.18431e-8), (-0.38268244, 0.92388, 5.18431e-8), (-0.38268244, 0.92388, 5.18431e-8), (0.92387974, 0.38268286, 0), (0.92387974, 0.38268286, 0), (0.92387974, 0.38268286, 0), (0.92387974, 0.38268286, 0), (-0.9238795, 0.3826836, 0), (-0.9238795, 0.3826836, 0), (-0.9238795, 0.3826836, 0), (-0.9238795, 0.3826836, 0), (0.9238795, -0.38268337, 0), (0.9238795, -0.38268337, 0), (0.9238795, -0.38268337, 0), (0.9238795, -0.38268337, 0), (0.9238796, 0.3826833, -7.661037e-8), (0.9238796, 0.3826833, -7.661037e-8), (0.9238796, 0.3826833, -7.661037e-8), (0.9238796, 0.3826833, -7.661037e-8), (-0.9238795, 0.38268366, 3.7188823e-8), (-0.9238795, 0.38268366, 3.7188823e-8), (-0.9238795, 0.38268366, 3.7188823e-8), (-0.9238795, 0.38268366, 3.7188823e-8), (-0.3826835, -0.9238795, 0), (-0.3826835, -0.9238795, 0), (-0.3826835, -0.9238795, 0), (-0.3826835, -0.9238795, 0), (-0.38268313, 0.9238796, 0), (-0.38268313, 0.9238796, 0), (-0.38268313, 0.9238796, 0), (-0.38268313, 0.9238796, 0), (-0.19509043, -0.98078525, 0), (-0.19509043, -0.98078525, 0), (-0.38268363, -0.9238795, 0), (-0.38268363, -0.9238795, 0), (-0.98078525, -0.19509038, 0), (-0.98078525, -0.19509038, 0), (-0.98078525, 0.19509038, 0), (-0.98078525, 0.19509038, 0), (-0.21475467, -0.056335174, 0.9750419), (0.0000013255924, 0, 1), (1.9788173e-8, 0, 1), (1.1711025e-8, 0, 1), (1.1711025e-8, 0, 1), (4.6396414e-10, 0, 1), (7.789363e-9, 0, 1), (1.1711025e-8, 0, 1), (1.1711025e-8, 0, 1), (1.1711025e-8, 0, 1), (-3.328025e-9, 0, 1), (3.997375e-9, 0, 1), (1.02472395e-8, 0, 1), (1.02472395e-8, 0, 1), (1.1711025e-8, 0, 1), (1.1711025e-8, 0, 1), (1.1711025e-8, 0, 1), (1.1064914e-8, 0, 1), (-5.338758e-7, 0, 1), (-0.21475577, 0.05633501, 0.97504175), (0.041956194, -0.13320099, 0.9902006), (-9.652384e-7, 0, 1), (5.012104e-9, 0, 1), (4.8309186e-8, 0, 1), (4.8309186e-8, 0, 1), (4.8309186e-8, 0, 1), (2.0529749e-8, 0, 1), (2.0529752e-8, 0, 1), (4.8309186e-8, 0, 1), (4.8309186e-8, 0, 1), (4.8309186e-8, 0, 1), (1.9788173e-8, 0, 1), (0.0000013255924, 0, 1), (-0.04195645, -0.1332012, 0.9902006), (-0.92387944, 0.38268355, 0), (-0.92387944, 0.38268355, 0), (-0.98078525, 0.19509038, 0), (-0.98078525, 0.19509038, 0), (-0.19509034, 0.98078525, -7.846508e-8), (-0.19509032, 0.98078525, -7.846509e-8), (0.19509032, 0.98078525, -7.846509e-8), (0.19509034, 0.98078525, -7.846508e-8), (-0.04195666, 0.1332017, 0.9902005), (-5.338758e-7, 0, 1), (1.1064914e-8, 0, 1), (8.783454e-9, 0, 1), (8.783454e-9, 0, 1), (8.783454e-9, 0, 1), (1.02472395e-8, 0, 1), (1.02472395e-8, 0, 1), (8.783454e-9, 0, 1), (8.783454e-9, 0, 1), (8.783454e-9, 0, 1), (-3.7112038e-9, 0, 1), (8.766457e-10, 0, 1), (0.041956842, 0.13320167, 0.9902005), (0.92387944, -0.38268355, 0), (0.92387944, -0.38268355, 0), (0.98078525, -0.19509038, 0), (0.98078525, -0.19509038, 0), (0.041956194, -0.13320099, 0.9902006), (0.17872556, -0.12372475, 0.9760888), (-9.652384e-7, 0, 1), (0.17872556, -0.12372475, 0.9760888), (0.21475376, -0.056334898, 0.9750422), (-9.652384e-7, 0, 1), (0.21475488, 0.05633449, 0.975042), (8.766457e-10, 0, 1), (-3.7112038e-9, 0, 1), (-7.2496857e-9, 0, 1), (-7.2496857e-9, 0, 1), (3.997375e-9, 0, 1), (-3.328025e-9, 0, 1), (-7.2496857e-9, 0, 1), (-7.2496857e-9, 0, 1), (-7.2496857e-9, 0, 1), (7.789363e-9, 0, 1), (4.6396414e-10, 0, 1), (2.0529752e-8, 0, 1), (2.0529749e-8, 0, 1), (-7.2496857e-9, 0, 1), (-7.2496857e-9, 0, 1), (-7.2496857e-9, 0, 1), (5.012104e-9, 0, 1), (-9.652384e-7, 0, 1), (0.21475376, -0.056334898, 0.9750422), (0.38268346, 0.9238795, 0), (0.38268346, 0.9238795, 0), (0.19509034, 0.98078525, -7.846508e-8), (0.19509032, 0.98078525, -7.846509e-8), (0.21475488, 0.05633449, 0.975042), (0.17872821, 0.123725034, 0.9760883), (8.766457e-10, 0, 1), (0.17872821, 0.123725034, 0.9760883), (0.041956842, 0.13320167, 0.9902005), (8.766457e-10, 0, 1), (0.19509043, -0.98078525, 0), (0.19509043, -0.98078525, 0), (-0.19509043, -0.98078525, 0), (-0.19509043, -0.98078525, 0), (-0.19509032, 0.98078525, -7.846509e-8), (-0.19509034, 0.98078525, -7.846508e-8), (-0.38268346, 0.9238795, 0), (-0.38268346, 0.9238795, 0), (0.98078525, 0.19509038, 0), (0.98078525, 0.19509038, 0), (0.92387944, 0.38268355, 0), (0.92387944, 0.38268355, 0), (0.98078525, 0.19509038, 0), (0.98078525, 0.19509038, 0), (0.98078525, -0.19509038, 0), (0.98078525, -0.19509038, 0), (-0.21475467, -0.056335174, 0.9750419), (-0.17872652, -0.12372512, 0.9760886), (0.0000013255924, 0, 1), (-0.90690005, -0.16112271, 0.3893222), (-0.5865039, -0.65396756, 0.47784904), (-0.6774169, -0.58180046, 0.45012733), (-0.901658, -0.20159416, 0.38258675), (-0.3686596, -0.056934867, 0.9278192), (-0.1894413, -0.22749013, 0.9551755), (-0.17872652, -0.12372512, 0.9760886), (-0.21475467, -0.056335174, 0.9750419), (-0.5865039, -0.65396756, 0.47784904), (-0.10908196, -0.7764508, 0.6206652), (-0.1385859, -0.56437767, 0.81380093), (-0.6774169, -0.58180046, 0.45012733), (-0.1894413, -0.22749013, 0.9551755), (-0.1385859, -0.56437767, 0.81380093), (-0.04195645, -0.1332012, 0.9902006), (-0.17872652, -0.12372512, 0.9760886), (-0.1090824, 0.77645177, 0.6206638), (-0.5865044, 0.65396756, 0.47784832), (-0.6774168, 0.5818008, 0.45012692), (-0.13858587, 0.56437844, 0.8138003), (-0.13858587, 0.56437844, 0.8138003), (-0.18944183, 0.22749057, 0.9551753), (-0.17872782, 0.12372524, 0.97608835), (-0.04195666, 0.1332017, 0.9902005), (-0.5865044, 0.65396756, 0.47784832), (-0.90690005, 0.16112268, 0.38932213), (-0.901658, 0.20159414, 0.38258672), (-0.6774168, 0.5818008, 0.45012692), (-0.18944183, 0.22749057, 0.9551753), (-0.36865973, 0.05693466, 0.9278192), (-0.21475577, 0.05633501, 0.97504175), (-0.17872782, 0.12372524, 0.97608835), (0.10908194, -0.77645105, 0.62066483), (0.58650404, -0.65396774, 0.4778485), (0.6774163, -0.5818012, 0.45012715), (0.1385855, -0.5643778, 0.8138008), (0.1385855, -0.5643778, 0.8138008), (0.1894406, -0.22748943, 0.9551759), (0.17872556, -0.12372475, 0.9760888), (0.041956194, -0.13320099, 0.9902006), (0.58650404, -0.65396774, 0.4778485), (0.9069002, -0.16112255, 0.38932195), (0.90165806, -0.20159428, 0.3825865), (0.6774163, -0.5818012, 0.45012715), (0.1894406, -0.22748943, 0.9551759), (0.3686579, -0.056934536, 0.9278199), (0.21475376, -0.056334898, 0.9750422), (0.17872556, -0.12372475, 0.9760888), (0.90690064, 0.16112281, 0.3893208), (0.58650476, 0.6539683, 0.47784695), (0.6774177, 0.5818012, 0.45012513), (0.90165865, 0.20159422, 0.3825851), (0.36865887, 0.05693438, 0.9278195), (0.18944219, 0.22749037, 0.9551753), (0.17872821, 0.123725034, 0.9760883), (0.21475488, 0.05633449, 0.975042), (0.58650476, 0.6539683, 0.47784695), (0.109082274, 0.77645195, 0.62066364), (0.13858597, 0.56437856, 0.8138001), (0.6774177, 0.5818012, 0.45012513), (0.18944219, 0.22749037, 0.9551753), (0.13858597, 0.56437856, 0.8138001), (0.041956842, 0.13320167, 0.9902005), (0.17872821, 0.123725034, 0.9760883), (-0.21475467, -0.056335174, 0.9750419), (-0.21475577, 0.05633501, 0.97504175), (-0.36865973, 0.05693466, 0.9278192), (-0.3686596, -0.056934867, 0.9278192), (-0.901658, -0.20159416, 0.38258675), (-0.901658, 0.20159414, 0.38258672), (-0.90690005, 0.16112268, 0.38932213), (-0.90690005, -0.16112271, 0.3893222), (0.041956194, -0.13320099, 0.9902006), (-0.04195645, -0.1332012, 0.9902006), (-0.1385859, -0.56437767, 0.81380093), (0.1385855, -0.5643778, 0.8138008), (0.1385855, -0.5643778, 0.8138008), (-0.1385859, -0.56437767, 0.81380093), (-0.10908196, -0.7764508, 0.6206652), (0.10908194, -0.77645105, 0.62066483), (-0.04195666, 0.1332017, 0.9902005), (0.041956842, 0.13320167, 0.9902005), (0.13858597, 0.56437856, 0.8138001), (-0.13858587, 0.56437844, 0.8138003), (-0.13858587, 0.56437844, 0.8138003), (0.13858597, 0.56437856, 0.8138001), (0.109082274, 0.77645195, 0.62066364), (-0.1090824, 0.77645177, 0.6206638), (0.21475488, 0.05633449, 0.975042), (0.21475376, -0.056334898, 0.9750422), (0.3686579, -0.056934536, 0.9278199), (0.36865887, 0.05693438, 0.9278195), (0.90165865, 0.20159422, 0.3825851), (0.90165806, -0.20159428, 0.3825865), (0.9069002, -0.16112255, 0.38932195), (0.90690064, 0.16112281, 0.3893208), (1.3801629e-8, 0, 1), (1.3801629e-8, 0, 1), (1.3801629e-8, 0, 1), (1.3801629e-8, 0, 1), (1.3801629e-8, 0, 1), (1.3801629e-8, 0, 1), (1.3801629e-8, 0, 1), (1.3801629e-8, 0, 1), (6.900815e-9, 0, 1), (6.900815e-9, 0, 1), (6.900815e-9, 0, 1), (6.900815e-9, 0, 1), (6.900815e-9, 0, 1), (6.900815e-9, 0, 1), (6.900815e-9, 0, 1), (6.900815e-9, 0, 1), (-1.3801627e-8, 0, 1), (-1.3801627e-8, 0, 1), (-1.3801627e-8, 0, 1), (-1.3801627e-8, 0, 1), (-1.3801627e-8, 0, 1), (-1.3801627e-8, 0, 1), (-1.3801627e-8, 0, 1), (-1.3801627e-8, 0, 1), (6.9008137e-9, 0, 1), (6.9008137e-9, 0, 1), (6.9008137e-9, 0, 1), (6.9008137e-9, 0, 1), (6.9008137e-9, 0, 1), (6.9008137e-9, 0, 1), (6.9008137e-9, 0, 1), (6.9008137e-9, 0, 1), (-3.4504073e-9, 0, 1), (-3.4504073e-9, 0, 1), (-3.4504073e-9, 0, 1), (-3.4504073e-9, 0, 1), (-3.4504073e-9, 0, 1), (-3.4504073e-9, 0, 1), (-3.4504073e-9, 0, 1), (-3.4504073e-9, 0, 1), (4.420012e-10, 0, -0.99999994), (4.420012e-10, 0, -0.99999994), (4.420012e-10, 0, -0.99999994), (4.420012e-10, 0, -0.99999994), (4.420012e-10, 0, -0.99999994), (4.420012e-10, 0, -0.99999994), (4.420012e-10, 0, -0.99999994), (4.420012e-10, 0, -0.99999994), (4.420012e-10, 0, -0.99999994), (4.420012e-10, 0, -0.99999994), (4.420012e-10, 0, -0.99999994), (4.420012e-10, 0, -0.99999994), (-0.96306926, 1.6002946e-7, 0.26925355), (-0.96597195, 7.3596425e-8, 0.25864664), (-0.91948235, -0.3064938, 0.24619865), (-0.91531086, -0.31126413, 0.2555792), (-0.96306926, 1.6002946e-7, 0.26925355), (-0.91531086, -0.31126413, 0.2555792), (-0.6739682, -0.67396814, 0.3025456), (-0.8986614, 1.2280148e-7, 0.43864307), (-0.96306926, 1.6002946e-7, 0.26925355), (-0.8986614, 1.2280148e-7, 0.43864307), (-0.6739684, 0.6739681, 0.30254534), (-0.91531074, 0.31126437, 0.25557908), (-0.96306926, 1.6002946e-7, 0.26925355), (-0.91531074, 0.31126437, 0.25557908), (-0.9194823, 0.30649388, 0.24619867), (-0.96597195, 7.3596425e-8, 0.25864664), (-5.0009223e-8, 0.96306926, 0.2692539), (-9.462397e-8, 0.96597195, 0.25864682), (-0.3064941, 0.9194822, 0.24619883), (-0.31126478, 0.91531056, 0.2555795), (-5.0009223e-8, 0.96306926, 0.2692539), (-0.31126478, 0.91531056, 0.2555795), (-0.6739684, 0.6739681, 0.30254534), (7.613686e-7, 0.89866155, 0.43864277), (-5.0009223e-8, 0.96306926, 0.2692539), (7.613686e-7, 0.89866155, 0.43864277), (0.6739682, 0.6739682, 0.30254543), (0.31126466, 0.91531056, 0.25557935), (-5.0009223e-8, 0.96306926, 0.2692539), (0.31126466, 0.91531056, 0.25557935), (0.3064939, 0.91948223, 0.2461988), (-9.462397e-8, 0.96597195, 0.25864682), (0.96306926, 2.4004424e-7, 0.26925382), (0.96597195, 6.3082645e-8, 0.2586467), (0.9194822, 0.30649418, 0.24619879), (0.9153105, 0.31126487, 0.25557944), (0.96306926, 2.4004424e-7, 0.26925382), (0.9153105, 0.31126487, 0.25557944), (0.6739682, 0.6739682, 0.30254543), (0.89866155, 9.8241074e-8, 0.43864256), (0.96306926, 2.4004424e-7, 0.26925382), (0.89866155, 9.8241074e-8, 0.43864256), (0.67396814, -0.67396814, 0.30254567), (0.91531074, -0.31126446, 0.2555793), (0.96306926, 2.4004424e-7, 0.26925382), (0.91531074, -0.31126446, 0.2555793), (0.91948235, -0.30649406, 0.24619862), (0.96597195, 6.3082645e-8, 0.2586467), (4.0007375e-8, -0.96306926, 0.26925385), (1.0513776e-8, -0.96597207, 0.2586465), (0.3064941, -0.9194823, 0.24619842), (0.31126446, -0.9153107, 0.25557935), (4.0007375e-8, -0.96306926, 0.26925385), (0.31126446, -0.9153107, 0.25557935), (0.67396814, -0.67396814, 0.30254567), (7.613685e-7, -0.8986615, 0.4386428), (4.0007375e-8, -0.96306926, 0.26925385), (7.613685e-7, -0.8986615, 0.4386428), (-0.6739682, -0.67396814, 0.3025456), (-0.3112644, -0.91531074, 0.25557944), (4.0007375e-8, -0.96306926, 0.26925385), (-0.3112644, -0.91531074, 0.25557944), (-0.30649406, -0.91948223, 0.24619856), (1.0513776e-8, -0.96597207, 0.2586465), (0.6584335, 0.6584325, 0.36459857), (0.89866155, 9.8241074e-8, 0.43864256), (0.6739682, 0.6739682, 0.30254543), (7.613686e-7, 0.89866155, 0.43864277), (-0.6584321, 0.65843374, 0.36459866), (7.613686e-7, 0.89866155, 0.43864277), (-0.6739684, 0.6739681, 0.30254534), (-0.8986614, 1.2280148e-7, 0.43864307), (-0.65843207, -0.6584337, 0.36459866), (-0.8986614, 1.2280148e-7, 0.43864307), (-0.6739682, -0.67396814, 0.3025456), (7.613685e-7, -0.8986615, 0.4386428), (0.6584334, -0.65843254, 0.36459854), (7.613685e-7, -0.8986615, 0.4386428), (0.67396814, -0.67396814, 0.30254567), (0.89866155, 9.8241074e-8, 0.43864256), (0.96306926, 4.0007365e-8, 0.26925355), (0.9153108, -0.3112642, 0.2555792), (0.91948235, -0.3064938, 0.24619865), (0.96597195, 5.2568872e-8, 0.25864667), (0.96306926, 4.0007365e-8, 0.26925355), (0.8986614, 2.4560295e-8, 0.43864304), (0.6739681, -0.6739683, 0.30254558), (0.9153108, -0.3112642, 0.2555792), (0.96306926, 4.0007365e-8, 0.26925355), (0.91531074, 0.31126428, 0.25557914), (0.6739685, 0.6739679, 0.30254534), (0.8986614, 2.4560295e-8, 0.43864304), (0.96306926, 4.0007365e-8, 0.26925355), (0.96597195, 5.2568872e-8, 0.25864667), (0.91948223, 0.30649385, 0.24619868), (0.91531074, 0.31126428, 0.25557914), (9.00166e-8, 0.96306926, 0.26925394), (0.3112648, 0.9153105, 0.2555795), (0.3064941, 0.9194822, 0.24619879), (9.462397e-8, 0.96597195, 0.25864682), (9.00166e-8, 0.96306926, 0.26925394), (-6.385672e-7, 0.89866155, 0.43864274), (0.6739685, 0.6739679, 0.30254534), (0.3112648, 0.9153105, 0.2555795), (9.00166e-8, 0.96306926, 0.26925394), (-0.31126466, 0.91531056, 0.2555794), (-0.6739682, 0.67396814, 0.30254546), (-6.385672e-7, 0.89866155, 0.43864274), (9.00166e-8, 0.96306926, 0.26925394), (9.462397e-8, 0.96597195, 0.25864682), (-0.3064939, 0.91948223, 0.2461988), (-0.31126466, 0.91531056, 0.2555794), (-0.96306926, 1.600295e-7, 0.26925382), (-0.9153105, 0.31126478, 0.25557944), (-0.9194822, 0.30649418, 0.24619879), (-0.96597195, 8.41102e-8, 0.25864667), (-0.96306926, 1.600295e-7, 0.26925382), (-0.8986617, 7.3680816e-8, 0.4386426), (-0.6739682, 0.67396814, 0.30254546), (-0.9153105, 0.31126478, 0.25557944), (-0.96306926, 1.600295e-7, 0.26925382), (-0.91531074, -0.31126454, 0.2555793), (-0.6739681, -0.67396826, 0.30254567), (-0.8986617, 7.3680816e-8, 0.4386426), (-0.96306926, 1.600295e-7, 0.26925382), (-0.96597195, 8.41102e-8, 0.25864667), (-0.91948235, -0.30649403, 0.2461986), (-0.91531074, -0.31126454, 0.2555793), (-5.5010133e-8, -0.96306926, 0.26925376), (-0.3112644, -0.9153107, 0.25557935), (-0.30649406, -0.9194823, 0.24619842), (0, -0.96597207, 0.25864646), (-5.5010133e-8, -0.96306926, 0.26925376), (-7.613685e-7, -0.8986615, 0.43864283), (-0.6739681, -0.67396826, 0.30254567), (-0.3112644, -0.9153107, 0.25557935), (-5.5010133e-8, -0.96306926, 0.26925376), (0.31126428, -0.9153107, 0.25557935), (0.6739681, -0.6739683, 0.30254558), (-7.613685e-7, -0.8986615, 0.43864283), (-5.5010133e-8, -0.96306926, 0.26925376), (0, -0.96597207, 0.25864646), (0.30649406, -0.91948223, 0.24619848), (0.31126428, -0.9153107, 0.25557935), (-0.6584334, 0.65843254, 0.36459848), (-6.385672e-7, 0.89866155, 0.43864274), (-0.6739682, 0.67396814, 0.30254546), (-0.8986617, 7.3680816e-8, 0.4386426), (0.6584322, 0.6584337, 0.36459866), (0.8986614, 2.4560295e-8, 0.43864304), (0.6739685, 0.6739679, 0.30254534), (-6.385672e-7, 0.89866155, 0.43864274), (0.6584321, -0.65843374, 0.36459872), (-7.613685e-7, -0.8986615, 0.43864283), (0.6739681, -0.6739683, 0.30254558), (0.8986614, 2.4560295e-8, 0.43864304), (-0.6584334, -0.6584325, 0.36459857), (-0.8986617, 7.3680816e-8, 0.4386426), (-0.6739681, -0.67396826, 0.30254567), (-7.613685e-7, -0.8986615, 0.43864283), (-0.96306926, -4.0007365e-8, 0.26925355), (-0.9153108, 0.3112642, 0.2555792), (-0.91948235, 0.3064938, 0.24619865), (-0.96597195, -5.2568872e-8, 0.25864667), (-0.96306926, -4.0007365e-8, 0.26925355), (-0.8986614, -2.4560295e-8, 0.43864304), (-0.6739681, 0.6739683, 0.30254558), (-0.9153108, 0.3112642, 0.2555792), (-0.96306926, -4.0007365e-8, 0.26925355), (-0.91531074, -0.31126428, 0.25557914), (-0.6739685, -0.6739679, 0.30254534), (-0.8986614, -2.4560295e-8, 0.43864304), (-0.96306926, -4.0007365e-8, 0.26925355), (-0.96597195, -5.2568872e-8, 0.25864667), (-0.91948223, -0.30649385, 0.24619868), (-0.91531074, -0.31126428, 0.25557914), (-9.00166e-8, -0.96306926, 0.26925394), (-0.3112648, -0.9153105, 0.2555795), (-0.3064941, -0.9194822, 0.24619879), (-9.462397e-8, -0.96597195, 0.25864682), (-9.00166e-8, -0.96306926, 0.26925394), (6.385672e-7, -0.89866155, 0.43864274), (-0.6739685, -0.6739679, 0.30254534), (-0.3112648, -0.9153105, 0.2555795), (-9.00166e-8, -0.96306926, 0.26925394), (0.31126466, -0.91531056, 0.2555794), (0.6739682, -0.67396814, 0.30254546), (6.385672e-7, -0.89866155, 0.43864274), (-9.00166e-8, -0.96306926, 0.26925394), (-9.462397e-8, -0.96597195, 0.25864682), (0.3064939, -0.91948223, 0.2461988), (0.31126466, -0.91531056, 0.2555794), (0.96306926, -1.600295e-7, 0.26925382), (0.9153105, -0.31126478, 0.25557944), (0.9194822, -0.30649418, 0.24619879), (0.96597195, -8.41102e-8, 0.25864667), (0.96306926, -1.600295e-7, 0.26925382), (0.8986617, -7.3680816e-8, 0.4386426), (0.6739682, -0.67396814, 0.30254546), (0.9153105, -0.31126478, 0.25557944), (0.96306926, -1.600295e-7, 0.26925382), (0.91531074, 0.31126454, 0.2555793), (0.6739681, 0.67396826, 0.30254567), (0.8986617, -7.3680816e-8, 0.4386426), (0.96306926, -1.600295e-7, 0.26925382), (0.96597195, -8.41102e-8, 0.25864667), (0.91948235, 0.30649403, 0.2461986), (0.91531074, 0.31126454, 0.2555793), (5.5010133e-8, 0.96306926, 0.26925376), (0.3112644, 0.9153107, 0.25557935), (0.30649406, 0.9194823, 0.24619842), (0, 0.96597207, 0.25864646), (5.5010133e-8, 0.96306926, 0.26925376), (7.613685e-7, 0.8986615, 0.43864283), (0.6739681, 0.67396826, 0.30254567), (0.3112644, 0.9153107, 0.25557935), (5.5010133e-8, 0.96306926, 0.26925376), (-0.31126428, 0.9153107, 0.25557935), (-0.6739681, 0.6739683, 0.30254558), (7.613685e-7, 0.8986615, 0.43864283), (5.5010133e-8, 0.96306926, 0.26925376), (0, 0.96597207, 0.25864646), (-0.30649406, 0.91948223, 0.24619848), (-0.31126428, 0.9153107, 0.25557935), (0.6584334, -0.65843254, 0.36459848), (6.385672e-7, -0.89866155, 0.43864274), (0.6739682, -0.67396814, 0.30254546), (0.8986617, -7.3680816e-8, 0.4386426), (-0.6584322, -0.6584337, 0.36459866), (-0.8986614, -2.4560295e-8, 0.43864304), (-0.6739685, -0.6739679, 0.30254534), (6.385672e-7, -0.89866155, 0.43864274), (-0.6584321, 0.65843374, 0.36459872), (7.613685e-7, 0.8986615, 0.43864283), (-0.6739681, 0.6739683, 0.30254558), (-0.8986614, -2.4560295e-8, 0.43864304), (0.6584334, 0.6584325, 0.36459857), (0.8986617, -7.3680816e-8, 0.4386426), (0.6739681, 0.67396826, 0.30254567), (7.613685e-7, 0.8986615, 0.43864283), (0.96306926, -1.6002946e-7, 0.26925355), (0.96597195, -7.3596425e-8, 0.25864664), (0.91948235, 0.3064938, 0.24619865), (0.91531086, 0.31126413, 0.2555792), (0.96306926, -1.6002946e-7, 0.26925355), (0.91531086, 0.31126413, 0.2555792), (0.6739682, 0.67396814, 0.3025456), (0.8986614, -1.2280148e-7, 0.43864307), (0.96306926, -1.6002946e-7, 0.26925355), (0.8986614, -1.2280148e-7, 0.43864307), (0.6739684, -0.6739681, 0.30254534), (0.91531074, -0.31126437, 0.25557908), (0.96306926, -1.6002946e-7, 0.26925355), (0.91531074, -0.31126437, 0.25557908), (0.9194823, -0.30649388, 0.24619867), (0.96597195, -7.3596425e-8, 0.25864664), (5.0009223e-8, -0.96306926, 0.2692539), (9.462397e-8, -0.96597195, 0.25864682), (0.3064941, -0.9194822, 0.24619883), (0.31126478, -0.91531056, 0.2555795), (5.0009223e-8, -0.96306926, 0.2692539), (0.31126478, -0.91531056, 0.2555795), (0.6739684, -0.6739681, 0.30254534), (-7.613686e-7, -0.89866155, 0.43864277), (5.0009223e-8, -0.96306926, 0.2692539), (-7.613686e-7, -0.89866155, 0.43864277), (-0.6739682, -0.6739682, 0.30254543), (-0.31126466, -0.91531056, 0.25557935), (5.0009223e-8, -0.96306926, 0.2692539), (-0.31126466, -0.91531056, 0.25557935), (-0.3064939, -0.91948223, 0.2461988), (9.462397e-8, -0.96597195, 0.25864682), (-0.96306926, -2.4004424e-7, 0.26925382), (-0.96597195, -6.3082645e-8, 0.2586467), (-0.9194822, -0.30649418, 0.24619879), (-0.9153105, -0.31126487, 0.25557944), (-0.96306926, -2.4004424e-7, 0.26925382), (-0.9153105, -0.31126487, 0.25557944), (-0.6739682, -0.6739682, 0.30254543), (-0.89866155, -9.8241074e-8, 0.43864256), (-0.96306926, -2.4004424e-7, 0.26925382), (-0.89866155, -9.8241074e-8, 0.43864256), (-0.67396814, 0.67396814, 0.30254567), (-0.91531074, 0.31126446, 0.2555793), (-0.96306926, -2.4004424e-7, 0.26925382), (-0.91531074, 0.31126446, 0.2555793), (-0.91948235, 0.30649406, 0.24619862), (-0.96597195, -6.3082645e-8, 0.2586467), (-4.0007375e-8, 0.96306926, 0.26925385), (-1.0513776e-8, 0.96597207, 0.2586465), (-0.3064941, 0.9194823, 0.24619842), (-0.31126446, 0.9153107, 0.25557935), (-4.0007375e-8, 0.96306926, 0.26925385), (-0.31126446, 0.9153107, 0.25557935), (-0.67396814, 0.67396814, 0.30254567), (-7.613685e-7, 0.8986615, 0.4386428), (-4.0007375e-8, 0.96306926, 0.26925385), (-7.613685e-7, 0.8986615, 0.4386428), (0.6739682, 0.67396814, 0.3025456), (0.3112644, 0.91531074, 0.25557944), (-4.0007375e-8, 0.96306926, 0.26925385), (0.3112644, 0.91531074, 0.25557944), (0.30649406, 0.91948223, 0.24619856), (-1.0513776e-8, 0.96597207, 0.2586465), (-0.6584335, -0.6584325, 0.36459857), (-0.89866155, -9.8241074e-8, 0.43864256), (-0.6739682, -0.6739682, 0.30254543), (-7.613686e-7, -0.89866155, 0.43864277), (0.6584321, -0.65843374, 0.36459866), (-7.613686e-7, -0.89866155, 0.43864277), (0.6739684, -0.6739681, 0.30254534), (0.8986614, -1.2280148e-7, 0.43864307), (0.65843207, 0.6584337, 0.36459866), (0.8986614, -1.2280148e-7, 0.43864307), (0.6739682, 0.67396814, 0.3025456), (-7.613685e-7, 0.8986615, 0.4386428), (-0.6584334, 0.65843254, 0.36459854), (-7.613685e-7, 0.8986615, 0.4386428), (-0.67396814, 0.67396814, 0.30254567), (-0.89866155, -9.8241074e-8, 0.43864256), (-0.96306926, 2.000369e-8, 0.26925376), (-0.96597207, 0, 0.25864673), (-0.9194822, -0.30649418, 0.2461987), (-0.91531056, -0.31126478, 0.25557935), (-0.96306926, 2.000369e-8, 0.26925376), (-0.91531056, -0.31126478, 0.25557935), (-0.67396814, -0.67396826, 0.30254543), (-0.8986613, 0, 0.43864316), (-0.96306926, 2.000369e-8, 0.26925376), (-0.8986613, 0, 0.43864316), (-0.6739681, 0.67396826, 0.3025454), (-0.91531056, 0.31126484, 0.25557935), (-0.96306926, 2.000369e-8, 0.26925376), (-0.91531056, 0.31126484, 0.25557935), (-0.9194822, 0.30649418, 0.2461987), (-0.96597207, 0, 0.25864673), (1.0001845e-8, 0.96306926, 0.26925382), (1.0513775e-8, 0.96597195, 0.25864673), (-0.30649412, 0.91948223, 0.24619873), (-0.31126475, 0.91531056, 0.25557935), (1.0001845e-8, 0.96306926, 0.26925382), (-0.31126475, 0.91531056, 0.25557935), (-0.6739681, 0.67396826, 0.3025454), (-2.4560277e-8, 0.8986614, 0.438643), (1.0001845e-8, 0.96306926, 0.26925382), (-2.4560277e-8, 0.8986614, 0.438643), (0.67396814, 0.67396826, 0.30254543), (0.31126475, 0.91531056, 0.25557932), (1.0001845e-8, 0.96306926, 0.26925382), (0.31126475, 0.91531056, 0.25557932), (0.30649415, 0.91948223, 0.2461987), (1.0513775e-8, 0.96597195, 0.25864673), (0.96306926, -2.000369e-8, 0.26925376), (0.96597207, 0, 0.25864673), (0.9194822, 0.30649418, 0.2461987), (0.91531056, 0.31126478, 0.25557935), (0.96306926, -2.000369e-8, 0.26925376), (0.91531056, 0.31126478, 0.25557935), (0.67396814, 0.67396826, 0.30254543), (0.8986613, 0, 0.43864316), (0.96306926, -2.000369e-8, 0.26925376), (0.8986613, 0, 0.43864316), (0.6739681, -0.67396826, 0.3025454), (0.91531056, -0.31126484, 0.25557935), (0.96306926, -2.000369e-8, 0.26925376), (0.91531056, -0.31126484, 0.25557935), (0.9194822, -0.30649418, 0.2461987), (0.96597207, 0, 0.25864673), (-1.0001845e-8, -0.96306926, 0.26925382), (-1.0513775e-8, -0.96597195, 0.25864673), (0.30649412, -0.91948223, 0.24619873), (0.31126475, -0.91531056, 0.25557935), (-1.0001845e-8, -0.96306926, 0.26925382), (0.31126475, -0.91531056, 0.25557935), (0.6739681, -0.67396826, 0.3025454), (2.4560277e-8, -0.8986614, 0.438643), (-1.0001845e-8, -0.96306926, 0.26925382), (2.4560277e-8, -0.8986614, 0.438643), (-0.67396814, -0.67396826, 0.30254543), (-0.31126475, -0.91531056, 0.25557932), (-1.0001845e-8, -0.96306926, 0.26925382), (-0.31126475, -0.91531056, 0.25557932), (-0.30649415, -0.91948223, 0.2461987), (-1.0513775e-8, -0.96597195, 0.25864673), (0.65843266, 0.658433, 0.3645989), (0.8986613, 0, 0.43864316), (0.67396814, 0.67396826, 0.30254543), (-2.4560277e-8, 0.8986614, 0.438643), (-0.6584327, 0.658433, 0.3645989), (-2.4560277e-8, 0.8986614, 0.438643), (-0.6739681, 0.67396826, 0.3025454), (-0.8986613, 0, 0.43864316), (-0.65843266, -0.658433, 0.3645989), (-0.8986613, 0, 0.43864316), (-0.67396814, -0.67396826, 0.30254543), (2.4560277e-8, -0.8986614, 0.438643), (0.6584327, -0.658433, 0.3645989), (2.4560277e-8, -0.8986614, 0.438643), (0.6739681, -0.67396826, 0.3025454), (0.8986613, 0, 0.43864316)] (
                    interpolation = "faceVarying"
                )
                point3f[] points = [(-0.6941707, 0.68297666, 0.5311368), (-0.38525337, 0.6829765, 0.5311368), (-0.539712, 0.74695545, 0.5311368), (-0.7581497, 0.52851796, 0.5311368), (-0.32127455, 0.5285177, 0.5311368), (-0.3852535, 0.37405908, 0.5311368), (-0.6941709, 0.37405923, 0.5311368), (-0.53971225, 0.31008023, 0.5311368), (-0.21843761, 2.6048355e-9, 0.5311368), (-0.15445875, 0.15445869, 0.5311368), (-0.15445872, -0.15445869, 0.5311368), (-1.9096419e-8, -0.21843761, 0.5311368), (-0.6941713, -0.37405854, 0.5311368), (-0.5397125, -0.31007972, 0.5311368), (-0.38525382, -0.3740587, 0.5311368), (-0.7581502, -0.52851725, 0.5311368), (-0.69417137, -0.682976, 0.5311368), (-0.321275, -0.5285175, 0.5311368), (-0.5397127, -0.7469549, 0.5311368), (-0.38525403, -0.6829761, 0.5311368), (0.38525426, 0.682976, 0.5311368), (0.32127517, 0.52851737, 0.5311368), (0.38525394, 0.37405854, 0.5311368), (0.15445869, 0.15445872, 0.5311368), (0, 0.21843761, 0.5311368), (0.21843761, -9.548202e-9, 0.5311368), (0.15445872, -0.15445869, 0.5311368), (0.38525334, -0.3740592, 0.5311368), (0.32127434, -0.52851784, 0.5311368), (0.38525313, -0.6829766, 0.5311368), (0.5397126, 0.31007954, 0.5311368), (0.53971213, -0.31008044, 0.5311368), (0.5397118, -0.74695563, 0.5311368), (0.53971297, 0.7469548, 0.5311368), (0.6941705, -0.68297684, 0.5311368), (0.69417137, 0.3740583, 0.5311368), (0.6941708, -0.37405944, 0.5311368), (0.69417155, 0.68297577, 0.5311368), (0.75814956, -0.5285182, 0.5311368), (0.7581504, 0.528517, 0.5311368), (-0.9064075, -0.8175426, 0.5311368), (-0.9064072, 0.8175428, 0.5311368), (0.9064071, -0.8175428, 0.5311368), (0.90640754, 0.8175426, 0.5311368), (-0.79493845, -1, -0.021765888), (-1, -0.79493845, -0.021765888), (-0.93993884, -0.93993884, -0.021765888), (-0.92880344, -0.8121336, 0.5311368), (-1, -0.79493845, 0.465388), (-0.979147, -0.7999748, 0.51187944), (-0.79493845, -1, 0.465388), (-0.8797338, -0.86120325, 0.5311368), (-0.8197745, -0.9593473, 0.51187944), (-0.93993884, -0.93993884, 0.465388), (-0.9144313, -0.8468311, 0.5311368), (-0.9324678, -0.91266817, 0.51187944), (-1, 0.79493845, -0.021765888), (-0.79493845, 0.99999994, -0.021765888), (-0.93993884, 0.93993884, -0.021765888), (-0.87973326, 0.8612039, 0.5311368), (-0.79493845, 1, 0.465388), (-0.81977427, 0.95934755, 0.51187944), (-1, 0.79493845, 0.465388), (-0.92880344, 0.81213367, 0.5311368), (-0.97914696, 0.7999748, 0.51187944), (-0.93993884, 0.93993884, 0.465388), (-0.91443115, 0.84683156, 0.5311368), (-0.9324678, 0.9126683, 0.51187944), (1, -0.79493845, -0.021765888), (0.79493845, -1, -0.021765888), (0.93993884, -0.93993884, -0.021765888), (0.8797336, -0.86120325, 0.5311368), (0.79493845, -1, 0.465388), (0.8197744, -0.9593473, 0.51187944), (1, -0.79493845, 0.465388), (0.9288031, -0.8121338, 0.5311368), (0.97914696, -0.79997486, 0.51187944), (0.93993884, -0.93993884, 0.465388), (0.914431, -0.84683114, 0.5311368), (0.9324678, -0.91266835, 0.51187944), (0.79493845, 0.99999994, -0.021765888), (1, 0.79493845, -0.021765888), (0.93993884, 0.93993884, -0.021765888), (0.9288034, 0.81213367, 0.5311368), (1, 0.79493845, 0.465388), (0.9791471, 0.7999748, 0.51187944), (0.79493845, 1, 0.465388), (0.87973344, 0.8612039, 0.5311368), (0.8197743, 0.95934755, 0.51187944), (0.93993884, 0.93993884, 0.465388), (0.91443145, 0.8468315, 0.5311368), (0.93246794, 0.91266835, 0.51187944), (0.38525313, -0.6829766, 0.09485537), (0.75814956, -0.5285182, 0.09485537), (0.6941708, -0.37405944, 0.09485537), (0.5397118, -0.74695563, 0.09485537), (0.6941705, -0.68297684, 0.09485537), (0.53971213, -0.31008044, 0.09485537), (0.38525334, -0.3740592, 0.09485537), (0.32127434, -0.52851784, 0.09485537), (-0.321275, -0.5285175, 0.09485537), (-0.38525403, -0.6829761, 0.09485537), (-0.7581502, -0.52851725, 0.09485537), (-0.6941713, -0.37405854, 0.09485537), (-0.5397127, -0.7469549, 0.09485537), (-0.6941714, -0.682976, 0.09485537), (-0.5397125, -0.31007975, 0.09485537), (-0.38525382, -0.3740587, 0.09485537), (-0.15445875, 0.15445869, 0.09485537), (0.21843761, -9.548202e-9, 0.09485537), (0.15445872, -0.15445869, 0.09485537), (-1.9096419e-8, -0.21843761, 0.09485537), (-0.15445872, -0.15445869, 0.09485537), (0, 0.21843761, 0.09485537), (0.15445869, 0.15445872, 0.09485537), (-0.21843761, 2.6048355e-9, 0.09485537), (-0.6941709, 0.37405923, 0.09485537), (-0.539712, 0.74695545, 0.09485537), (-0.53971225, 0.31008023, 0.09485537), (-0.6941707, 0.6829767, 0.09485537), (-0.3852535, 0.37405908, 0.09485537), (-0.32127458, 0.5285177, 0.09485537), (-0.38525337, 0.6829765, 0.09485537), (-0.75814974, 0.52851796, 0.09485537), (0.38525394, 0.37405854, 0.09485537), (0.32127517, 0.52851737, 0.09485537), (0.38525426, 0.682976, 0.09485537), (0.7581504, 0.528517, 0.09485537), (0.6941714, 0.3740583, 0.09485537), (0.53971297, 0.7469548, 0.09485537), (0.69417155, 0.68297577, 0.09485537), (0.5397126, 0.31007957, 0.09485537), (-0.6538448, -0.53070253, 0.33015573), (-0.5405264, -0.4173841, 0.33015573), (-0.42720798, -0.5307025, 0.33015573), (-0.5405264, -0.644021, 0.33015573), (-0.5405264, -0.53070253, 0.67500997), (-0.74618226, -0.5307025, -0.014698446), (-0.6255152, -0.6156914, 0.33015573), (-0.57934654, -0.53070253, 0.5887964), (-0.6255152, -0.44571373, 0.33015573), (-0.5405264, -0.3250466, -0.014698446), (-0.5405264, -0.49188244, 0.5887964), (-0.4555376, -0.44571367, 0.33015573), (-0.3348705, -0.5307025, -0.014698446), (-0.5017063, -0.53070253, 0.5887964), (-0.4555376, -0.6156914, 0.33015573), (-0.5405264, -0.7363584, -0.014698446), (-0.5405264, -0.5695226, 0.5887964), (-0.6947683, -0.6849444, -0.014698446), (-0.5829617, -0.5731378, 0.5217414), (-0.6947683, -0.37646055, -0.014698446), (-0.5829617, -0.4882673, 0.5217414), (-0.38628447, -0.6849444, -0.014698446), (-0.4980912, -0.5731378, 0.5217414), (-0.38628447, -0.37646055, -0.014698446), (-0.4980912, -0.4882673, 0.5217414), (0.6538448, -0.53070253, 0.33015573), (0.5405264, -0.4173841, 0.33015573), (0.42720798, -0.5307025, 0.33015573), (0.5405264, -0.644021, 0.33015573), (0.5405264, -0.53070253, 0.67500997), (0.74618226, -0.5307025, -0.014698446), (0.6255152, -0.6156914, 0.33015573), (0.57934654, -0.53070253, 0.5887964), (0.6255152, -0.44571373, 0.33015573), (0.5405264, -0.3250466, -0.014698446), (0.5405264, -0.49188244, 0.5887964), (0.4555376, -0.44571367, 0.33015573), (0.3348705, -0.5307025, -0.014698446), (0.5017063, -0.53070253, 0.5887964), (0.4555376, -0.6156914, 0.33015573), (0.5405264, -0.7363584, -0.014698446), (0.5405264, -0.5695226, 0.5887964), (0.6947683, -0.6849444, -0.014698446), (0.5829617, -0.5731378, 0.5217414), (0.6947683, -0.37646055, -0.014698446), (0.5829617, -0.4882673, 0.5217414), (0.38628447, -0.6849444, -0.014698446), (0.4980912, -0.5731378, 0.5217414), (0.38628447, -0.37646055, -0.014698446), (0.4980912, -0.4882673, 0.5217414), (-0.6538448, 0.53070253, 0.33015573), (-0.5405264, 0.4173841, 0.33015573), (-0.42720798, 0.5307025, 0.33015573), (-0.5405264, 0.644021, 0.33015573), (-0.5405264, 0.53070253, 0.67500997), (-0.74618226, 0.5307025, -0.014698446), (-0.6255152, 0.6156914, 0.33015573), (-0.57934654, 0.53070253, 0.5887964), (-0.6255152, 0.44571373, 0.33015573), (-0.5405264, 0.3250466, -0.014698446), (-0.5405264, 0.49188244, 0.5887964), (-0.4555376, 0.44571367, 0.33015573), (-0.3348705, 0.5307025, -0.014698446), (-0.5017063, 0.53070253, 0.5887964), (-0.4555376, 0.6156914, 0.33015573), (-0.5405264, 0.7363584, -0.014698446), (-0.5405264, 0.5695226, 0.5887964), (-0.6947683, 0.6849444, -0.014698446), (-0.5829617, 0.5731378, 0.5217414), (-0.6947683, 0.37646055, -0.014698446), (-0.5829617, 0.4882673, 0.5217414), (-0.38628447, 0.6849444, -0.014698446), (-0.4980912, 0.5731378, 0.5217414), (-0.38628447, 0.37646055, -0.014698446), (-0.4980912, 0.4882673, 0.5217414), (0.6538448, 0.53070253, 0.33015573), (0.5405264, 0.4173841, 0.33015573), (0.42720798, 0.5307025, 0.33015573), (0.5405264, 0.644021, 0.33015573), (0.5405264, 0.53070253, 0.67500997), (0.74618226, 0.5307025, -0.014698446), (0.6255152, 0.6156914, 0.33015573), (0.57934654, 0.53070253, 0.5887964), (0.6255152, 0.44571373, 0.33015573), (0.5405264, 0.3250466, -0.014698446), (0.5405264, 0.49188244, 0.5887964), (0.4555376, 0.44571367, 0.33015573), (0.3348705, 0.5307025, -0.014698446), (0.5017063, 0.53070253, 0.5887964), (0.4555376, 0.6156914, 0.33015573), (0.5405264, 0.7363584, -0.014698446), (0.5405264, 0.5695226, 0.5887964), (0.6947683, 0.6849444, -0.014698446), (0.5829617, 0.5731378, 0.5217414), (0.6947683, 0.37646055, -0.014698446), (0.5829617, 0.4882673, 0.5217414), (0.38628447, 0.6849444, -0.014698446), (0.4980912, 0.5731378, 0.5217414), (0.38628447, 0.37646055, -0.014698446), (0.4980912, 0.4882673, 0.5217414), (-0.113318436, -1.3928473e-15, 0.33015573), (0, 0.11331843, 0.33015573), (0.113318436, 1.3928473e-15, 0.33015573), (0, -0.11331843, 0.33015573), (0, 0, 0.67500985), (-0.2056559, -2.52781e-15, -0.014698446), (-0.08498883, -0.084988825, 0.33015573), (-0.038820095, -4.7715716e-16, 0.5887964), (-0.08498883, 0.084988825, 0.33015573), (0, 0.20565589, -0.014698446), (0, 0.03882009, 0.5887964), (0.08498883, 0.084988825, 0.33015573), (0.2056559, 2.52781e-15, -0.014698446), (0.038820095, 4.7715716e-16, 0.5887964), (0.08498883, -0.084988825, 0.33015573), (0, -0.20565589, -0.014698446), (0, -0.03882009, 0.5887964), (-0.15424192, -0.1542419, -0.014698446), (-0.04243525, -0.042435247, 0.52174133), (-0.15424192, 0.1542419, -0.014698446), (-0.04243525, 0.042435247, 0.52174133), (0.15424192, -0.1542419, -0.014698446), (0.04243525, -0.042435247, 0.52174133), (0.15424192, 0.1542419, -0.014698446), (0.04243525, 0.042435247, 0.52174133)]
                matrix4d primvars:skel:geomBindTransform = ( (1, 0, 0, 0), (0, 1, 0, 0), (0, 0, 1, 0), (0, 0, 0, 1) )
                int[] primvars:skel:jointIndices = [0, 0, 0, 0, 0, 0, 0, 0, 0, 0, 0, 0, 0, 0, 0, 0, 0, 0, 0, 0, 0, 0, 0, 0, 0, 0, 0, 0, 0, 0, 0, 0, 0, 0, 0, 0, 0, 0, 0, 0, 0, 0, 0, 0, 0, 0, 0, 0, 0, 0, 0, 0, 0, 0, 0, 0, 0, 0, 0, 0, 0, 0, 0, 0, 0, 0, 0, 0, 0, 0, 0, 0, 0, 0, 0, 0, 0, 0, 0, 0, 0, 0, 0, 0, 0, 0, 0, 0, 0, 0, 0, 0, 0, 0, 0, 0, 0, 0, 0, 0, 0, 0, 0, 0, 0, 0, 0, 0, 0, 0, 0, 0, 0, 0, 0, 0, 0, 0, 0, 0, 0, 0, 0, 0, 0, 0, 0, 0, 0, 0, 0, 0, 1, 1, 1, 1, 1, 1, 1, 1, 1, 1, 1, 1, 1, 1, 1, 1, 1, 1, 1, 1, 1, 1, 1, 1, 1, 1, 1, 1, 1, 1, 1, 1, 1, 1, 1, 1, 1, 1, 1, 1, 1, 1, 1, 1, 1, 1, 1, 1, 1, 1, 1, 1, 1, 1, 1, 1, 1, 1, 1, 1, 1, 1, 1, 1, 1, 1, 1, 1, 1, 1, 1, 1, 1, 1, 1, 1, 1, 1, 1, 1, 1, 1, 1, 1, 1, 1, 1, 1, 1, 1, 1, 1, 1, 1, 1, 1, 1, 1, 1, 1, 1, 1, 1, 1, 1, 1, 1, 1, 1, 1, 1, 1, 1, 1, 1, 1, 1, 1, 1, 1, 1, 1, 1, 1, 1] (
                    elementSize = 1
                    interpolation = "vertex"
                )
                float[] primvars:skel:jointWeights = [1, 1, 1, 1, 1, 1, 1, 1, 1, 1, 1, 1, 1, 1, 1, 1, 1, 1, 1, 1, 1, 1, 1, 1, 1, 1, 1, 1, 1, 1, 1, 1, 1, 1, 1, 1, 1, 1, 1, 1, 1, 1, 1, 1, 1, 1, 1, 1, 1, 1, 1, 1, 1, 1, 1, 1, 1, 1, 1, 1, 1, 1, 1, 1, 1, 1, 1, 1, 1, 1, 1, 1, 1, 1, 1, 1, 1, 1, 1, 1, 1, 1, 1, 1, 1, 1, 1, 1, 1, 1, 1, 1, 1, 1, 1, 1, 1, 1, 1, 1, 1, 1, 1, 1, 1, 1, 1, 1, 1, 1, 1, 1, 1, 1, 1, 1, 1, 1, 1, 1, 1, 1, 1, 1, 1, 1, 1, 1, 1, 1, 1, 1, 1, 1, 1, 1, 1, 1, 1, 1, 1, 1, 1, 1, 1, 1, 1, 1, 1, 1, 1, 1, 1, 1, 1, 1, 1, 1, 1, 1, 1, 1, 1, 1, 1, 1, 1, 1, 1, 1, 1, 1, 1, 1, 1, 1, 1, 1, 1, 1, 1, 1, 1, 1, 1, 1, 1, 1, 1, 1, 1, 1, 1, 1, 1, 1, 1, 1, 1, 1, 1, 1, 1, 1, 1, 1, 1, 1, 1, 1, 1, 1, 1, 1, 1, 1, 1, 1, 1, 1, 1, 1, 1, 1, 1, 1, 1, 1, 1, 1, 1, 1, 1, 1, 1, 1, 1, 1, 1, 1, 1, 1, 1, 1, 1, 1, 1, 1, 1, 1, 1, 1, 1, 1, 1, 1, 1] (
                    elementSize = 1
                    interpolation = "vertex"
                )
                rel skel:skeleton = </root/Hazard_SpikeTrap_Armature/Hazard_SpikeTrap_Armature>
                uniform token subdivisionScheme = "none"
                uniform token subsetFamily:materialBind:familyType = "nonOverlapping"
                custom string userProperties:blender:data_name = "Cube.183"

                def GeomSubset "Red" (
                    prepend apiSchemas = ["MaterialBindingAPI"]
                )
                {
                    uniform token elementType = "face"
                    uniform token familyName = "materialBind"
                    int[] indices = [0, 1, 2, 3, 4, 5, 6, 7, 8, 9, 10, 11, 12, 13, 14, 15, 16, 17, 18, 19, 20, 21, 22, 23, 24, 25, 26, 27, 28, 29, 30, 31, 32, 33, 34, 35, 36, 37, 38, 39, 40, 41, 42, 43, 44, 45, 46, 47, 48, 49, 50, 51, 52, 53, 54, 55, 56, 57, 58, 59, 60, 61, 62, 63, 64, 65, 66, 67, 68, 69, 70, 71, 72, 73, 74, 75, 76, 77, 78, 79, 80, 81, 82, 83, 84, 85, 86, 87, 88, 89, 90, 91, 92, 93]
                    rel material:binding = </root/_materials/Red>
                }

                def GeomSubset "Grey" (
                    prepend apiSchemas = ["MaterialBindingAPI"]
                )
                {
                    uniform token elementType = "face"
                    uniform token familyName = "materialBind"
                    int[] indices = [94, 95, 96, 97, 98, 99, 100, 101, 102, 103, 104, 105, 106, 107, 108, 109, 110, 111, 112, 113, 114, 115, 116, 117, 118, 119, 120, 121, 122, 123, 124, 125, 126, 127, 128, 129, 130, 131, 132, 133, 134, 135, 136, 137, 138, 139, 140, 141, 142, 143, 144, 145, 146, 147, 148, 149, 150, 151, 152, 153, 154, 155, 156, 157, 158, 159, 160, 161, 162, 163, 164, 165, 166, 167, 168, 169, 170, 171, 172, 173, 174, 175, 176, 177, 178, 179, 180, 181, 182, 183, 184, 185, 186, 187, 188, 189, 190, 191, 192, 193]
                    rel material:binding = </root/_materials/Grey>
                }
            }
        }
    }

    def Scope "_materials"
    {
        def Material "Red"
        {
            token outputs:surface.connect = </root/_materials/Red/Principled_BSDF.outputs:surface>
            custom string userProperties:blender:data_name = "Red"

            def Shader "Principled_BSDF"
            {
                uniform token info:id = "UsdPreviewSurface"
                float inputs:clearcoat = 0
                float inputs:clearcoatRoughness = 0.03
                color3f inputs:diffuseColor = (0.27382758, 0.052263096, 0.049410034)
                float inputs:ior = 1.5
                float inputs:metallic = 0
                float inputs:opacity = 1
                float inputs:roughness = 0.6900348
                float inputs:specular = 0.5
                token outputs:surface
            }
        }

        def Material "Grey"
        {
            token outputs:surface.connect = </root/_materials/Grey/Principled_BSDF.outputs:surface>
            custom string userProperties:blender:data_name = "Grey"

            def Shader "Principled_BSDF"
            {
                uniform token info:id = "UsdPreviewSurface"
                float inputs:clearcoat = 0
                float inputs:clearcoatRoughness = 0.03
                color3f inputs:diffuseColor = (0.23301195, 0.23301195, 0.23301195)
                float inputs:ior = 1.5
                float inputs:metallic = 0
                float inputs:opacity = 1
                float inputs:roughness = 0.6900348
                float inputs:specular = 0.5
                token outputs:surface
            }
        }
    }
}

