#usda 1.0
(
    defaultPrim = "root"
    doc = "Blender v5.1.2"
    metersPerUnit = 1
    upAxis = "Y"
)

def Xform "root" (
    customData = {
        dictionary Blender = {
            bool generated = 1
        }
    }
)
{
    float3 xformOp:rotateXYZ = (-90, -0, 0)
    uniform token[] xformOpOrder = ["xformOp:rotateXYZ"]

    def Xform "Cactus_2"
    {
        custom string userProperties:blender:object_name = "Cactus_2"

        def Mesh "Cube_029" (
            active = true
            prepend apiSchemas = ["MaterialBindingAPI"]
        )
        {
            uniform bool doubleSided = 1
            float3[] extent = [(-0.21343477, -0.49718803, -0.010726936), (0.4867336, 0.5534804, 1.6868846)]
            int[] faceVertexCounts = [4, 4, 4, 4, 4, 4, 4, 4, 4, 4, 4, 4, 4, 4, 4, 4, 4, 4, 4, 4, 4, 4, 4, 4, 4, 4, 4, 4, 4, 4, 4, 4, 4, 4, 4, 4, 4, 4, 4, 4, 4, 4, 4, 4, 4, 4, 4, 4, 4, 4, 4, 4, 4, 4, 4, 4, 4, 4, 4, 4, 4, 4, 4, 4, 4, 4, 4, 4, 4, 4, 4, 4, 4, 4, 4, 4, 4, 4, 4, 4, 4, 4, 4, 4, 4, 4, 4, 4, 4, 4, 4, 4, 4, 4, 4, 4, 4, 4, 4, 4, 4, 4, 4, 4, 4, 4, 4, 4, 4, 4, 4, 4, 4, 4, 4, 4, 4, 4, 4, 4, 4, 4, 4, 4, 4, 4, 4, 4, 4, 4, 4, 4, 4, 4, 4, 4, 4, 4, 4, 4, 4, 4, 4, 4, 4, 4, 4, 4, 4, 4, 4, 4, 4, 4, 4, 4, 4, 4, 4, 4, 4, 4, 4, 4, 4, 4, 4, 4, 4, 4, 4, 4, 4, 4, 4, 4, 4, 4, 4, 4, 4, 4, 4, 4, 4, 4, 4, 4, 4, 4, 4, 4, 4, 4, 4, 4, 4, 4, 4, 4, 4, 4, 4, 4, 4, 4, 4, 4, 4, 4, 4, 4, 4, 4, 4, 4, 4, 4, 4, 4, 4, 4, 4, 4, 4, 4, 4, 4, 4, 4, 4, 4, 4, 4, 4, 4, 4, 4, 4, 4, 4, 4, 4, 4, 4, 4, 4, 4, 4, 4, 4, 4, 4, 4, 4, 4, 4, 4, 4, 4, 4, 4, 4, 4, 4, 4, 4, 4, 4, 4, 4, 4, 4, 4, 4, 4, 4, 4, 4, 4, 4, 4, 4, 4, 4, 4, 4, 4, 4, 4, 4, 4, 4, 4, 4, 4, 4, 4, 4, 4, 4, 4, 4, 4, 4, 4, 4, 4, 4, 4, 4, 4, 4, 4, 4, 4, 4, 4, 4, 4, 4, 4, 4, 4, 4, 4, 4, 4, 4, 4, 4, 4, 4, 4, 4, 4, 4, 4, 4, 4, 4, 4, 4, 4, 4, 4, 4, 4, 4, 4, 4, 4, 4, 4, 4, 4, 4, 4, 4, 4]
            int[] faceVertexIndices = [0, 125, 294, 91, 0, 91, 279, 92, 0, 92, 281, 119, 0, 119, 295, 125, 1, 124, 295, 119, 1, 119, 281, 95, 1, 95, 285, 120, 1, 120, 296, 124, 2, 123, 296, 120, 2, 120, 285, 98, 2, 98, 283, 121, 2, 121, 297, 123, 3, 122, 297, 121, 3, 121, 283, 101, 3, 101, 279, 91, 3, 91, 294, 122, 4, 90, 280, 94, 4, 94, 284, 97, 4, 97, 282, 100, 4, 100, 278, 90, 5, 235, 359, 241, 5, 241, 358, 106, 5, 106, 287, 103, 5, 103, 288, 235, 6, 115, 289, 104, 6, 104, 288, 114, 6, 114, 292, 112, 6, 112, 293, 115, 7, 236, 360, 240, 7, 240, 359, 235, 7, 235, 288, 104, 7, 104, 289, 236, 8, 106, 358, 239, 8, 239, 361, 109, 8, 109, 286, 102, 8, 102, 287, 106, 9, 109, 361, 238, 9, 238, 360, 236, 9, 236, 289, 105, 9, 105, 286, 109, 10, 112, 292, 111, 10, 111, 291, 110, 10, 110, 290, 113, 10, 113, 293, 112, 11, 117, 287, 102, 11, 102, 286, 116, 11, 116, 290, 110, 11, 110, 291, 117, 12, 116, 286, 105, 12, 105, 289, 115, 12, 115, 293, 113, 12, 113, 290, 116, 13, 114, 288, 103, 13, 103, 287, 117, 13, 117, 291, 111, 13, 111, 292, 114, 14, 100, 282, 99, 14, 99, 297, 122, 14, 122, 294, 118, 14, 118, 278, 100, 15, 97, 284, 96, 15, 96, 296, 123, 15, 123, 297, 99, 15, 99, 282, 97, 16, 94, 280, 93, 16, 93, 295, 124, 16, 124, 296, 96, 16, 96, 284, 94, 17, 90, 278, 118, 17, 118, 294, 125, 17, 125, 295, 93, 17, 93, 280, 90, 18, 147, 311, 153, 18, 153, 310, 134, 18, 134, 303, 131, 18, 131, 304, 147, 19, 143, 305, 132, 19, 132, 304, 142, 19, 142, 308, 140, 19, 140, 309, 143, 20, 148, 312, 152, 20, 152, 311, 147, 20, 147, 304, 132, 20, 132, 305, 148, 21, 134, 310, 151, 21, 151, 313, 137, 21, 137, 302, 130, 21, 130, 303, 134, 22, 137, 313, 150, 22, 150, 312, 148, 22, 148, 305, 133, 22, 133, 302, 137, 23, 140, 308, 139, 23, 139, 307, 138, 23, 138, 306, 141, 23, 141, 309, 140, 24, 145, 303, 130, 24, 130, 302, 144, 24, 144, 306, 138, 24, 138, 307, 145, 25, 144, 302, 133, 25, 133, 305, 143, 25, 143, 309, 141, 25, 141, 306, 144, 26, 142, 304, 131, 26, 131, 303, 145, 26, 145, 307, 139, 26, 139, 308, 142, 27, 149, 317, 161, 27, 161, 315, 155, 27, 155, 312, 150, 27, 150, 313, 149, 28, 146, 316, 160, 28, 160, 317, 149, 28, 149, 313, 151, 28, 151, 310, 146, 29, 155, 315, 159, 29, 159, 314, 154, 29, 154, 311, 152, 29, 152, 312, 155, 30, 154, 314, 158, 30, 158, 316, 146, 30, 146, 310, 153, 30, 153, 311, 154, 31, 135, 301, 127, 31, 127, 299, 156, 31, 156, 316, 158, 31, 158, 314, 135, 32, 136, 300, 128, 32, 128, 301, 135, 32, 135, 314, 159, 32, 159, 315, 136, 33, 156, 299, 126, 33, 126, 298, 157, 33, 157, 317, 160, 33, 160, 316, 156, 34, 157, 298, 129, 34, 129, 300, 136, 34, 136, 315, 161, 34, 161, 317, 157, 35, 183, 331, 189, 35, 189, 330, 170, 35, 170, 323, 167, 35, 167, 324, 183, 36, 179, 325, 168, 36, 168, 324, 178, 36, 178, 328, 176, 36, 176, 329, 179, 37, 184, 332, 188, 37, 188, 331, 183, 37, 183, 324, 168, 37, 168, 325, 184, 38, 170, 330, 187, 38, 187, 333, 173, 38, 173, 322, 166, 38, 166, 323, 170, 39, 173, 333, 186, 39, 186, 332, 184, 39, 184, 325, 169, 39, 169, 322, 173, 40, 176, 328, 175, 40, 175, 327, 174, 40, 174, 326, 177, 40, 177, 329, 176, 41, 181, 323, 166, 41, 166, 322, 180, 41, 180, 326, 174, 41, 174, 327, 181, 42, 180, 322, 169, 42, 169, 325, 179, 42, 179, 329, 177, 42, 177, 326, 180, 43, 178, 324, 167, 43, 167, 323, 181, 43, 181, 327, 175, 43, 175, 328, 178, 44, 185, 337, 197, 44, 197, 335, 191, 44, 191, 332, 186, 44, 186, 333, 185, 45, 182, 336, 196, 45, 196, 337, 185, 45, 185, 333, 187, 45, 187, 330, 182, 46, 191, 335, 195, 46, 195, 334, 190, 46, 190, 331, 188, 46, 188, 332, 191, 47, 190, 334, 194, 47, 194, 336, 182, 47, 182, 330, 189, 47, 189, 331, 190, 48, 171, 321, 163, 48, 163, 319, 192, 48, 192, 336, 194, 48, 194, 334, 171, 49, 172, 320, 164, 49, 164, 321, 171, 49, 171, 334, 195, 49, 195, 335, 172, 50, 192, 319, 162, 50, 162, 318, 193, 50, 193, 337, 196, 50, 196, 336, 192, 51, 193, 318, 165, 51, 165, 320, 172, 51, 172, 335, 197, 51, 197, 337, 193, 52, 219, 351, 225, 52, 225, 350, 206, 52, 206, 343, 203, 52, 203, 344, 219, 53, 215, 345, 204, 53, 204, 344, 214, 53, 214, 348, 212, 53, 212, 349, 215, 54, 220, 352, 224, 54, 224, 351, 219, 54, 219, 344, 204, 54, 204, 345, 220, 55, 206, 350, 223, 55, 223, 353, 209, 55, 209, 342, 202, 55, 202, 343, 206, 56, 209, 353, 222, 56, 222, 352, 220, 56, 220, 345, 205, 56, 205, 342, 209, 57, 212, 348, 211, 57, 211, 347, 210, 57, 210, 346, 213, 57, 213, 349, 212, 58, 217, 343, 202, 58, 202, 342, 216, 58, 216, 346, 210, 58, 210, 347, 217, 59, 216, 342, 205, 59, 205, 345, 215, 59, 215, 349, 213, 59, 213, 346, 216, 60, 214, 344, 203, 60, 203, 343, 217, 60, 217, 347, 211, 60, 211, 348, 214, 61, 221, 357, 233, 61, 233, 355, 227, 61, 227, 352, 222, 61, 222, 353, 221, 62, 218, 356, 232, 62, 232, 357, 221, 62, 221, 353, 223, 62, 223, 350, 218, 63, 227, 355, 231, 63, 231, 354, 226, 63, 226, 351, 224, 63, 224, 352, 227, 64, 226, 354, 230, 64, 230, 356, 218, 64, 218, 350, 225, 64, 225, 351, 226, 65, 207, 341, 199, 65, 199, 339, 228, 65, 228, 356, 230, 65, 230, 354, 207, 66, 208, 340, 200, 66, 200, 341, 207, 66, 207, 354, 231, 66, 231, 355, 208, 67, 228, 339, 198, 67, 198, 338, 229, 67, 229, 357, 232, 67, 232, 356, 228, 68, 229, 338, 201, 68, 201, 340, 208, 68, 208, 355, 233, 68, 233, 357, 229, 69, 237, 279, 101, 69, 101, 283, 108, 69, 108, 360, 238, 69, 238, 361, 237, 70, 234, 281, 92, 70, 92, 279, 237, 70, 237, 361, 239, 70, 239, 358, 234, 71, 108, 283, 98, 71, 98, 285, 107, 71, 107, 359, 240, 71, 240, 360, 108, 72, 107, 285, 95, 72, 95, 281, 234, 72, 234, 358, 241, 72, 241, 359, 107, 73, 263, 375, 269, 73, 269, 374, 250, 73, 250, 367, 247, 73, 247, 368, 263, 74, 259, 369, 248, 74, 248, 368, 258, 74, 258, 372, 256, 74, 256, 373, 259, 75, 264, 376, 268, 75, 268, 375, 263, 75, 263, 368, 248, 75, 248, 369, 264, 76, 250, 374, 267, 76, 267, 377, 253, 76, 253, 366, 246, 76, 246, 367, 250, 77, 253, 377, 266, 77, 266, 376, 264, 77, 264, 369, 249, 77, 249, 366, 253, 78, 256, 372, 255, 78, 255, 371, 254, 78, 254, 370, 257, 78, 257, 373, 256, 79, 261, 367, 246, 79, 246, 366, 260, 79, 260, 370, 254, 79, 254, 371, 261, 80, 260, 366, 249, 80, 249, 369, 259, 80, 259, 373, 257, 80, 257, 370, 260, 81, 258, 368, 247, 81, 247, 367, 261, 81, 261, 371, 255, 81, 255, 372, 258, 82, 265, 381, 277, 82, 277, 379, 271, 82, 271, 376, 266, 82, 266, 377, 265, 83, 262, 380, 276, 83, 276, 381, 265, 83, 265, 377, 267, 83, 267, 374, 262, 84, 271, 379, 275, 84, 275, 378, 270, 84, 270, 375, 268, 84, 268, 376, 271, 85, 270, 378, 274, 85, 274, 380, 262, 85, 262, 374, 269, 85, 269, 375, 270, 86, 251, 365, 243, 86, 243, 363, 272, 86, 272, 380, 274, 86, 274, 378, 251, 87, 252, 364, 244, 87, 244, 365, 251, 87, 251, 378, 275, 87, 275, 379, 252, 88, 272, 363, 242, 88, 242, 362, 273, 88, 273, 381, 276, 88, 276, 380, 272, 89, 273, 362, 245, 89, 245, 364, 252, 89, 252, 379, 277, 89, 277, 381, 273]
            rel material:binding = </root/_materials/Green>
            normal3f[] normals = [(-0.98009294, -0.040456235, -0.19437347), (-0.98009294, -0.040456235, -0.19437347), (-0.98009294, -0.040456235, -0.19437347), (-0.98009294, -0.040456235, -0.19437347), (-0.9903986, -0.0408816, -0.13205783), (-0.9903986, -0.0408816, -0.13205783), (-0.9903986, -0.0408816, -0.13205783), (-0.9903986, -0.0408816, -0.13205783), (-0.81684774, 0.5615339, -0.13205782), (-0.81684774, 0.5615339, -0.13205782), (-0.81684774, 0.5615339, -0.13205782), (-0.81684774, 0.5615339, -0.13205782), (-0.8083481, 0.5556908, -0.19437349), (-0.8083481, 0.5556908, -0.19437349), (-0.8083481, 0.5556908, -0.19437349), (-0.8083481, 0.5556908, -0.19437349), (-0.040456213, 0.98009294, -0.19437346), (-0.040456213, 0.98009294, -0.19437346), (-0.040456213, 0.98009294, -0.19437346), (-0.040456213, 0.98009294, -0.19437346), (-0.040881697, 0.9903986, -0.13205782), (-0.040881697, 0.9903986, -0.13205782), (-0.040881697, 0.9903986, -0.13205782), (-0.040881697, 0.9903986, -0.13205782), (0.5615339, 0.8168479, -0.13205782), (0.5615339, 0.8168479, -0.13205782), (0.5615339, 0.8168479, -0.13205782), (0.5615339, 0.8168479, -0.13205782), (0.55569077, 0.8083481, -0.1943735), (0.55569077, 0.8083481, -0.1943735), (0.55569077, 0.8083481, -0.1943735), (0.55569077, 0.8083481, -0.1943735), (0.98009294, 0.040456235, -0.19437347), (0.98009294, 0.040456235, -0.19437347), (0.98009294, 0.040456235, -0.19437347), (0.98009294, 0.040456235, -0.19437347), (0.9903986, 0.0408816, -0.13205783), (0.9903986, 0.0408816, -0.13205783), (0.9903986, 0.0408816, -0.13205783), (0.9903986, 0.0408816, -0.13205783), (0.81684774, -0.5615339, -0.13205782), (0.81684774, -0.5615339, -0.13205782), (0.81684774, -0.5615339, -0.13205782), (0.81684774, -0.5615339, -0.13205782), (0.8083481, -0.5556908, -0.19437349), (0.8083481, -0.5556908, -0.19437349), (0.8083481, -0.5556908, -0.19437349), (0.8083481, -0.5556908, -0.19437349), (0.040456213, -0.98009294, -0.19437346), (0.040456213, -0.98009294, -0.19437346), (0.040456213, -0.98009294, -0.19437346), (0.040456213, -0.98009294, -0.19437346), (0.040881697, -0.9903986, -0.13205782), (0.040881697, -0.9903986, -0.13205782), (0.040881697, -0.9903986, -0.13205782), (0.040881697, -0.9903986, -0.13205782), (-0.5615339, -0.8168479, -0.13205782), (-0.5615339, -0.8168479, -0.13205782), (-0.5615339, -0.8168479, -0.13205782), (-0.5615339, -0.8168479, -0.13205782), (-0.55569077, -0.8083481, -0.1943735), (-0.55569077, -0.8083481, -0.1943735), (-0.55569077, -0.8083481, -0.1943735), (-0.55569077, -0.8083481, -0.1943735), (-0.06748454, 0.12210312, -0.99022055), (-0.06748454, 0.12210312, -0.99022055), (-0.06748454, 0.12210312, -0.99022055), (-0.06748454, 0.12210312, -0.99022055), (0.12210311, 0.06748453, -0.9902205), (0.12210311, 0.06748453, -0.9902205), (0.12210311, 0.06748453, -0.9902205), (0.12210311, 0.06748453, -0.9902205), (0.06748454, -0.12210312, -0.99022055), (0.06748454, -0.12210312, -0.99022055), (0.06748454, -0.12210312, -0.99022055), (0.06748454, -0.12210312, -0.99022055), (-0.12210311, -0.06748453, -0.9902205), (-0.12210311, -0.06748453, -0.9902205), (-0.12210311, -0.06748453, -0.9902205), (-0.12210311, -0.06748453, -0.9902205), (0.56639135, 0.8239142, 0.019136328), (0.56639135, 0.8239142, 0.019136328), (0.56639135, 0.8239142, 0.019136328), (0.56639135, 0.8239142, 0.019136328), (-0.041235175, 0.99896616, 0.019136246), (-0.041235175, 0.99896616, 0.019136246), (-0.041235175, 0.99896616, 0.019136246), (-0.041235175, 0.99896616, 0.019136246), (-0.040884785, 0.9904744, 0.1314872), (-0.040884785, 0.9904744, 0.1314872), (-0.040884785, 0.9904744, 0.1314872), (-0.040884785, 0.9904744, 0.1314872), (0.561577, 0.8169103, 0.13148683), (0.561577, 0.8169103, 0.13148683), (0.561577, 0.8169103, 0.13148683), (0.561577, 0.8169103, 0.13148683), (0.806241, -0.5542434, 0.20685655), (0.806241, -0.5542434, 0.20685655), (0.806241, -0.5542434, 0.20685655), (0.806241, -0.5542434, 0.20685655), (0.9775388, 0.04035104, 0.20685641), (0.9775388, 0.04035104, 0.20685641), (0.9775388, 0.04035104, 0.20685641), (0.9775388, 0.04035104, 0.20685641), (0.7856905, 0.07251257, 0.6143554), (0.7856905, 0.07251257, 0.6143554), (0.7856905, 0.07251257, 0.6143554), (0.7856905, 0.07251257, 0.6143554), (0.62668717, -0.4794063, 0.6143557), (0.62668717, -0.4794063, 0.6143557), (0.62668717, -0.4794063, 0.6143557), (0.62668717, -0.4794063, 0.6143557), (0.82391405, -0.5663916, 0.019136274), (0.82391405, -0.5663916, 0.019136274), (0.82391405, -0.5663916, 0.019136274), (0.82391405, -0.5663916, 0.019136274), (0.9989663, 0.041235168, 0.01913627), (0.9989663, 0.041235168, 0.01913627), (0.9989663, 0.041235168, 0.01913627), (0.9989663, 0.041235168, 0.01913627), (0.99047446, 0.040884826, 0.13148709), (0.99047446, 0.040884826, 0.13148709), (0.99047446, 0.040884826, 0.13148709), (0.99047446, 0.040884826, 0.13148709), (0.8169105, -0.5615767, 0.13148695), (0.8169105, -0.5615767, 0.13148695), (0.8169105, -0.5615767, 0.13148695), (0.8169105, -0.5615767, 0.13148695), (-0.82391405, 0.5663916, 0.019136274), (-0.82391405, 0.5663916, 0.019136274), (-0.82391405, 0.5663916, 0.019136274), (-0.82391405, 0.5663916, 0.019136274), (-0.9989663, -0.041235168, 0.01913627), (-0.9989663, -0.041235168, 0.01913627), (-0.9989663, -0.041235168, 0.01913627), (-0.9989663, -0.041235168, 0.01913627), (-0.99047446, -0.040884826, 0.13148709), (-0.99047446, -0.040884826, 0.13148709), (-0.99047446, -0.040884826, 0.13148709), (-0.99047446, -0.040884826, 0.13148709), (-0.8169105, 0.5615767, 0.13148695), (-0.8169105, 0.5615767, 0.13148695), (-0.8169105, 0.5615767, 0.13148695), (-0.8169105, 0.5615767, 0.13148695), (-0.56639135, -0.8239142, 0.019136328), (-0.56639135, -0.8239142, 0.019136328), (-0.56639135, -0.8239142, 0.019136328), (-0.56639135, -0.8239142, 0.019136328), (0.041235175, -0.99896616, 0.019136246), (0.041235175, -0.99896616, 0.019136246), (0.041235175, -0.99896616, 0.019136246), (0.041235175, -0.99896616, 0.019136246), (0.040884785, -0.9904744, 0.1314872), (0.040884785, -0.9904744, 0.1314872), (0.040884785, -0.9904744, 0.1314872), (0.040884785, -0.9904744, 0.1314872), (-0.561577, -0.8169103, 0.13148683), (-0.561577, -0.8169103, 0.13148683), (-0.561577, -0.8169103, 0.13148683), (-0.561577, -0.8169103, 0.13148683), (0.29953068, 0.1655467, 0.93961465), (0.29953068, 0.1655467, 0.93961465), (0.29953068, 0.1655467, 0.93961465), (0.29953068, 0.1655467, 0.93961465), (-0.1655462, 0.29953182, 0.9396144), (-0.1655462, 0.29953182, 0.9396144), (-0.1655462, 0.29953182, 0.9396144), (-0.1655462, 0.29953182, 0.9396144), (-0.29953068, -0.1655467, 0.93961465), (-0.29953068, -0.1655467, 0.93961465), (-0.29953068, -0.1655467, 0.93961465), (-0.29953068, -0.1655467, 0.93961465), (0.1655462, -0.29953182, 0.9396144), (0.1655462, -0.29953182, 0.9396144), (0.1655462, -0.29953182, 0.9396144), (0.1655462, -0.29953182, 0.9396144), (-0.806241, 0.5542434, 0.20685655), (-0.806241, 0.5542434, 0.20685655), (-0.806241, 0.5542434, 0.20685655), (-0.806241, 0.5542434, 0.20685655), (-0.9775388, -0.04035104, 0.20685641), (-0.9775388, -0.04035104, 0.20685641), (-0.9775388, -0.04035104, 0.20685641), (-0.9775388, -0.04035104, 0.20685641), (-0.7856905, -0.07251257, 0.6143554), (-0.7856905, -0.07251257, 0.6143554), (-0.7856905, -0.07251257, 0.6143554), (-0.7856905, -0.07251257, 0.6143554), (-0.62668717, 0.4794063, 0.6143557), (-0.62668717, 0.4794063, 0.6143557), (-0.62668717, 0.4794063, 0.6143557), (-0.62668717, 0.4794063, 0.6143557), (-0.5542425, -0.80624163, 0.20685653), (-0.5542425, -0.80624163, 0.20685653), (-0.5542425, -0.80624163, 0.20685653), (-0.5542425, -0.80624163, 0.20685653), (0.040350754, -0.9775388, 0.20685634), (0.040350754, -0.9775388, 0.20685634), (0.040350754, -0.9775388, 0.20685634), (0.040350754, -0.9775388, 0.20685634), (0.07251171, -0.7856901, 0.6143558), (0.07251171, -0.7856901, 0.6143558), (0.07251171, -0.7856901, 0.6143558), (0.07251171, -0.7856901, 0.6143558), (-0.47940657, -0.626687, 0.6143556), (-0.47940657, -0.626687, 0.6143556), (-0.47940657, -0.626687, 0.6143556), (-0.47940657, -0.626687, 0.6143556), (0.5542425, 0.80624163, 0.20685653), (0.5542425, 0.80624163, 0.20685653), (0.5542425, 0.80624163, 0.20685653), (0.5542425, 0.80624163, 0.20685653), (-0.040350754, 0.9775388, 0.20685634), (-0.040350754, 0.9775388, 0.20685634), (-0.040350754, 0.9775388, 0.20685634), (-0.040350754, 0.9775388, 0.20685634), (-0.07251171, 0.7856901, 0.6143558), (-0.07251171, 0.7856901, 0.6143558), (-0.07251171, 0.7856901, 0.6143558), (-0.07251171, 0.7856901, 0.6143558), (0.47940657, 0.626687, 0.6143556), (0.47940657, 0.626687, 0.6143556), (0.47940657, 0.626687, 0.6143556), (0.47940657, 0.626687, 0.6143556), (0.05560955, -0.55418295, -0.8305353), (0.05560955, -0.55418295, -0.8305353), (0.05560955, -0.55418295, -0.8305353), (0.05560955, -0.55418295, -0.8305353), (0.040816803, -0.9888281, -0.14336307), (0.040816803, -0.9888281, -0.14336307), (0.040816803, -0.9888281, -0.14336307), (0.040816803, -0.9888281, -0.14336307), (-0.5606435, -0.81555253, -0.14336306), (-0.5606435, -0.81555253, -0.14336306), (-0.5606435, -0.81555253, -0.14336306), (-0.5606435, -0.81555253, -0.14336306), (-0.34192616, -0.43965632, -0.83053523), (-0.34192616, -0.43965632, -0.83053523), (-0.34192616, -0.43965632, -0.83053523), (-0.34192616, -0.43965632, -0.83053523), (0.55418307, 0.055609617, -0.83053523), (0.55418307, 0.055609617, -0.83053523), (0.55418307, 0.055609617, -0.83053523), (0.55418307, 0.055609617, -0.83053523), (0.9888281, 0.040816743, -0.14336307), (0.9888281, 0.040816743, -0.14336307), (0.9888281, 0.040816743, -0.14336307), (0.9888281, 0.040816743, -0.14336307), (0.8155526, -0.5606434, -0.14336303), (0.8155526, -0.5606434, -0.14336303), (0.8155526, -0.5606434, -0.14336303), (0.8155526, -0.5606434, -0.14336303), (0.43965635, -0.34192616, -0.83053523), (0.43965635, -0.34192616, -0.83053523), (0.43965635, -0.34192616, -0.83053523), (0.43965635, -0.34192616, -0.83053523), (-0.05560955, 0.55418295, -0.8305353), (-0.05560955, 0.55418295, -0.8305353), (-0.05560955, 0.55418295, -0.8305353), (-0.05560955, 0.55418295, -0.8305353), (-0.040816803, 0.9888281, -0.14336307), (-0.040816803, 0.9888281, -0.14336307), (-0.040816803, 0.9888281, -0.14336307), (-0.040816803, 0.9888281, -0.14336307), (0.5606435, 0.81555253, -0.14336306), (0.5606435, 0.81555253, -0.14336306), (0.5606435, 0.81555253, -0.14336306), (0.5606435, 0.81555253, -0.14336306), (0.34192616, 0.43965632, -0.83053523), (0.34192616, 0.43965632, -0.83053523), (0.34192616, 0.43965632, -0.83053523), (0.34192616, 0.43965632, -0.83053523), (-0.55418307, -0.055609617, -0.83053523), (-0.55418307, -0.055609617, -0.83053523), (-0.55418307, -0.055609617, -0.83053523), (-0.55418307, -0.055609617, -0.83053523), (-0.9888281, -0.040816743, -0.14336307), (-0.9888281, -0.040816743, -0.14336307), (-0.9888281, -0.040816743, -0.14336307), (-0.9888281, -0.040816743, -0.14336307), (-0.8155526, 0.5606434, -0.14336303), (-0.8155526, 0.5606434, -0.14336303), (-0.8155526, 0.5606434, -0.14336303), (-0.8155526, 0.5606434, -0.14336303), (-0.43965635, 0.34192616, -0.83053523), (-0.43965635, 0.34192616, -0.83053523), (-0.43965635, 0.34192616, -0.83053523), (-0.43965635, 0.34192616, -0.83053523), (0.6026894, -0.5573404, -0.5710844), (0.6026894, -0.5573404, -0.5710844), (0.6026894, -0.5573404, -0.5710844), (0.6026894, -0.5573404, -0.5710844), (0.8203411, 0.030017253, -0.57108617), (0.8203411, 0.030017253, -0.57108617), (0.8203411, 0.030017253, -0.57108617), (0.8203411, 0.030017253, -0.57108617), (0.8853472, 0.009147117, -0.46484056), (0.8853472, 0.009147117, -0.46484056), (0.8853472, 0.009147117, -0.46484056), (0.8853472, 0.009147117, -0.46484056), (0.6655964, -0.5838699, -0.46484128), (0.6655964, -0.5838699, -0.46484128), (0.6655964, -0.5838699, -0.46484128), (0.6655964, -0.5838699, -0.46484128), (-0.51774085, -0.8105463, 0.2737865), (-0.51774085, -0.8105463, 0.2737865), (-0.51774085, -0.8105463, 0.2737865), (-0.51774085, -0.8105463, 0.2737865), (-0.008647453, -0.99919796, -0.039098468), (-0.008647453, -0.99919796, -0.039098468), (-0.008647453, -0.99919796, -0.039098468), (-0.008647453, -0.99919796, -0.039098468), (0.2655964, -0.88216794, 0.38889384), (0.2655964, -0.88216794, 0.38889384), (0.2655964, -0.88216794, 0.38889384), (0.2655964, -0.88216794, 0.38889384), (-0.20103794, -0.7092497, 0.6756839), (-0.20103794, -0.7092497, 0.6756839), (-0.20103794, -0.7092497, 0.6756839), (-0.20103794, -0.7092497, 0.6756839), (-0.58410984, -0.7950313, 0.16352665), (-0.58423686, -0.79497343, 0.16335402), (-0.5865981, -0.79388845, 0.16013645), (-0.5865981, -0.79388845, 0.16013645), (-0.09768098, -0.9737314, -0.20568317), (-0.09768098, -0.9737314, -0.20568317), (-0.09768098, -0.9737314, -0.20568317), (-0.09768098, -0.9737314, -0.20568317), (-0.06795473, -0.98649013, -0.14906177), (-0.06795473, -0.98649013, -0.14906177), (-0.06795473, -0.98649013, -0.14906177), (-0.06795473, -0.98649013, -0.14906177), (-0.58410984, -0.7950313, 0.16352665), (-0.5817553, -0.7960941, 0.16671787), (-0.5817553, -0.7960941, 0.16671787), (-0.58423686, -0.79497343, 0.16335402), (0.5604356, 0.80225074, -0.20568337), (0.5604356, 0.80225074, -0.20568337), (0.5604356, 0.80225074, -0.20568337), (0.5604356, 0.80225074, -0.20568337), (0.07501758, 0.9836825, 0.16352682), (0.07238524, 0.98443735, 0.16013637), (0.07238524, 0.98443735, 0.16013637), (0.07488353, 0.9837214, 0.16335417), (0.07501758, 0.9836825, 0.16352682), (0.07488353, 0.9837214, 0.16335417), (0.077496365, 0.9829544, 0.16671832), (0.077496365, 0.9829544, 0.16671832), (0.59129643, 0.79255855, -0.14906155), (0.59129643, 0.79255855, -0.14906155), (0.59129643, 0.79255855, -0.14906155), (0.59129643, 0.79255855, -0.14906155), (-0.63550895, 0.57105345, 0.51964045), (-0.63550895, 0.57105345, 0.51964045), (-0.63550895, 0.57105345, 0.51964045), (-0.63550895, 0.57105345, 0.51964045), (-0.8541724, -0.019031039, 0.5196415), (-0.8541724, -0.019031039, 0.5196415), (-0.8541724, -0.019031039, 0.5196415), (-0.8541724, -0.019031039, 0.5196415), (-0.8758059, -0.012682506, 0.48249692), (-0.8758059, -0.012682506, 0.48249692), (-0.8758059, -0.012682506, 0.48249692), (-0.8758059, -0.012682506, 0.48249692), (-0.65605533, 0.58033407, 0.48249748), (-0.65605533, 0.58033407, 0.48249748), (-0.65605533, 0.58033407, 0.48249748), (-0.65605533, 0.58033407, 0.48249748), (0.5524518, -0.4627936, 0.69326705), (0.5524518, -0.4627936, 0.69326705), (0.5524518, -0.4627936, 0.69326705), (0.5524518, -0.4627936, 0.69326705), (0.720626, -0.008960834, 0.69326603), (0.720626, -0.008960834, 0.69326603), (0.720626, -0.008960834, 0.69326603), (0.720626, -0.008960834, 0.69326603), (0.32741213, 0.13675238, 0.93493325), (0.32741213, 0.13675238, 0.93493325), (0.32741213, 0.13675238, 0.93493325), (0.32741213, 0.13675238, 0.93493325), (0.15923665, -0.31708843, 0.9349324), (0.15923665, -0.31708843, 0.9349324), (0.15923665, -0.31708843, 0.9349324), (0.15923665, -0.31708843, 0.9349324), (0.64456314, 0.7635507, -0.03909896), (0.64456314, 0.7635507, -0.03909896), (0.64456314, 0.7635507, -0.03909896), (0.64456314, 0.7635507, -0.03909896), (0.13546962, 0.9522024, 0.2737859), (0.13546962, 0.9522024, 0.2737859), (0.13546962, 0.9522024, 0.2737859), (0.13546962, 0.9522024, 0.2737859), (0.30968943, 0.6689878, 0.6756833), (0.30968943, 0.6689878, 0.6756833), (0.30968943, 0.6689878, 0.6756833), (0.30968943, 0.6689878, 0.6756833), (0.77632177, 0.49607182, 0.38889238), (0.77632177, 0.49607182, 0.38889238), (0.77632177, 0.49607182, 0.38889238), (0.77632177, 0.49607182, 0.38889238), (-0.5913609, 0.5532713, 0.58667135), (-0.5913609, 0.5532713, 0.58667135), (-0.5913609, 0.5532713, 0.58667135), (-0.5913609, 0.5532713, 0.58667135), (-0.80909747, -0.0343119, 0.5866718), (-0.80909747, -0.0343119, 0.5866718), (-0.80909747, -0.0343119, 0.5866718), (-0.80909747, -0.0343119, 0.5866718), (-0.4092117, -0.15462804, 0.8992418), (-0.4092117, -0.15462804, 0.8992418), (-0.4092117, -0.15462804, 0.8992418), (-0.4092117, -0.15462804, 0.8992418), (-0.20963682, 0.3839507, 0.89924085), (-0.20963682, 0.3839507, 0.89924085), (-0.20963682, 0.3839507, 0.89924085), (-0.20963682, 0.3839507, 0.89924085), (0.718183, -0.60026693, -0.35198405), (0.718183, -0.60026693, -0.35198405), (0.718183, -0.60026693, -0.35198405), (0.718183, -0.60026693, -0.35198405), (0.9359199, -0.012683207, -0.35198456), (0.9359199, -0.012683207, -0.35198456), (0.9359199, -0.012683207, -0.35198456), (0.9359199, -0.012683207, -0.35198456), (0.98449785, -0.058551583, 0.16533493), (0.98449785, -0.058551583, 0.16533493), (0.98449785, -0.058551583, 0.16533493), (0.98449785, -0.058551583, 0.16533493), (0.7849194, -0.5971312, 0.16533598), (0.7849194, -0.5971312, 0.16533598), (0.7849194, -0.5971312, 0.16533598), (0.7849194, -0.5971312, 0.16533598), (-0.08376258, 0.2828003, 0.9555145), (-0.08376258, 0.2828003, 0.9555145), (-0.08376258, 0.2828003, 0.9555145), (-0.08376258, 0.2828003, 0.9555145), (-0.24782036, -0.15992829, 0.9555146), (-0.24782036, -0.15992829, 0.9555146), (-0.24782036, -0.15992829, 0.9555146), (-0.24782036, -0.15992829, 0.9555146), (-0.6221111, -0.07984591, 0.77884686), (-0.6221111, -0.07984591, 0.77884686), (-0.6221111, -0.07984591, 0.77884686), (-0.6221111, -0.07984591, 0.77884686), (-0.41985634, 0.46596086, 0.77884597), (-0.41985634, 0.46596086, 0.77884597), (-0.41985634, 0.46596086, 0.77884597), (-0.41985634, 0.46596086, 0.77884597), (0.40540242, 0.8261311, -0.39135194), (0.40540242, 0.8261311, -0.39135194), (0.40540242, 0.8261311, -0.39135194), (0.40540242, 0.8261311, -0.39135194), (0.22279406, 0.8971877, 0.38133582), (0.22279406, 0.8971877, 0.38133582), (0.22279406, 0.8971877, 0.38133582), (0.22279406, 0.8971877, 0.38133582), (0.13028698, 0.9555684, 0.26441345), (0.13028698, 0.9555684, 0.26441345), (0.13028698, 0.9555684, 0.26441345), (0.13028698, 0.9555684, 0.26441345), (0.4959228, 0.8138807, -0.302752), (0.4959228, 0.8138807, -0.302752), (0.4959228, 0.8138807, -0.302752), (0.4959228, 0.8138807, -0.302752), (-0.41565573, -0.82572025, 0.3813353), (-0.41565573, -0.82572025, 0.3813353), (-0.41565573, -0.82572025, 0.3813353), (-0.41565573, -0.82572025, 0.3813353), (-0.23083588, -0.89081913, -0.39135167), (-0.23083588, -0.89081913, -0.39135167), (-0.23083588, -0.89081913, -0.39135167), (-0.23083588, -0.89081913, -0.39135167), (-0.15419209, -0.94051373, -0.30275187), (-0.15419209, -0.94051373, -0.30275187), (-0.15419209, -0.94051373, -0.30275187), (-0.15419209, -0.94051373, -0.30275187), (-0.52386385, -0.8097235, 0.26441377), (-0.52386385, -0.8097235, 0.26441377), (-0.52386385, -0.8097235, 0.26441377), (-0.52386385, -0.8097235, 0.26441377), (0.17328398, -0.3361853, -0.92571706), (0.17328398, -0.3361853, -0.92571706), (0.17328398, -0.3361853, -0.92571706), (0.17328398, -0.3361853, -0.92571706), (0.35051396, 0.14208435, -0.925717), (0.35051396, 0.14208435, -0.925717), (0.35051396, 0.14208435, -0.925717), (0.35051396, 0.14208435, -0.925717), (0.59773463, 0.08520753, -0.79715306), (0.59773463, 0.08520753, -0.79715306), (0.59773463, 0.08520753, -0.79715306), (0.59773463, 0.08520753, -0.79715306), (0.39787036, -0.4541401, -0.7971549), (0.39787036, -0.4541401, -0.7971549), (0.39787036, -0.4541401, -0.7971549), (0.39787036, -0.4541401, -0.7971549), (0.15318416, -0.3783705, -0.91289127), (0.15318416, -0.3783705, -0.91289127), (0.15318416, -0.3783705, -0.91289127), (0.15318416, -0.3783705, -0.91289127), (0.36275586, 0.18718207, -0.91289157), (0.36275586, 0.18718207, -0.91289157), (0.36275586, 0.18718207, -0.91289157), (0.36275586, 0.18718207, -0.91289157), (0.3558238, 0.16131535, -0.92052525), (0.3558238, 0.16131535, -0.92052525), (0.3558238, 0.16131535, -0.92052525), (0.3558238, 0.16131535, -0.92052525), (0.16478074, -0.3542324, -0.9205252), (0.16478074, -0.3542324, -0.9205252), (0.16478074, -0.3542324, -0.9205252), (0.16478074, -0.3542324, -0.9205252), (-0.4116339, -0.8533261, 0.31998754), (-0.4116339, -0.8533261, 0.31998754), (-0.4116339, -0.8533261, 0.31998754), (-0.4116339, -0.8533261, 0.31998754), (-0.2573889, -0.9095559, -0.32628056), (-0.2573889, -0.9095559, -0.32628056), (-0.2573889, -0.9095559, -0.32628056), (-0.2573889, -0.9095559, -0.32628056), (-0.24329035, -0.90008605, -0.3614621), (-0.24329035, -0.90008605, -0.3614621), (-0.24329035, -0.90008605, -0.3614621), (-0.24329035, -0.90008605, -0.3614621), (-0.4139973, -0.83917695, 0.35268718), (-0.4139973, -0.83917695, 0.35268718), (-0.4139973, -0.83917695, 0.35268718), (-0.4139973, -0.83917695, 0.35268718), (0.3974718, 0.8576465, -0.32628012), (0.3974718, 0.8576465, -0.32628012), (0.3974718, 0.8576465, -0.32628012), (0.3974718, 0.8576465, -0.32628012), (0.24383022, 0.91550785, 0.31998786), (0.24383022, 0.91550785, 0.31998786), (0.24383022, 0.91550785, 0.31998786), (0.24383022, 0.91550785, 0.31998786), (0.23281747, 0.9063157, 0.35268676), (0.23281747, 0.9063157, 0.35268676), (0.23281747, 0.9063157, 0.35268676), (0.23281747, 0.9063157, 0.35268676), (0.40199727, 0.8412751, -0.36146173), (0.40199727, 0.8412751, -0.36146173), (0.40199727, 0.8412751, -0.36146173), (0.40199727, 0.8412751, -0.36146173), (-0.060597274, 0.33818698, 0.9391259), (-0.060597274, 0.33818698, 0.9391259), (-0.060597274, 0.33818698, 0.9391259), (-0.060597274, 0.33818698, 0.9391259), (-0.2663418, -0.21703528, 0.93912613), (-0.2663418, -0.21703528, 0.93912613), (-0.2663418, -0.21703528, 0.93912613), (-0.2663418, -0.21703528, 0.93912613), (-0.25584278, -0.18437748, 0.9489729), (-0.25584278, -0.18437748, 0.9489729), (-0.25584278, -0.18437748, 0.9489729), (-0.25584278, -0.18437748, 0.9489729), (-0.07391285, 0.3065732, 0.948973), (-0.07391285, 0.3065732, 0.948973), (-0.07391285, 0.3065732, 0.948973), (-0.07391285, 0.3065732, 0.948973), (-0.52016705, -0.67421645, -0.52426934), (-0.52016705, -0.67421645, -0.52426934), (-0.52016705, -0.67421645, -0.52426934), (-0.52016705, -0.67421645, -0.52426934), (0.08173886, -0.8476202, -0.5242696), (0.08173886, -0.8476202, -0.5242696), (0.08173886, -0.8476202, -0.5242696), (0.08173886, -0.8476202, -0.5242696), (0.06756571, -0.9077182, -0.41410446), (0.06756571, -0.9077182, -0.41410446), (0.06756571, -0.9077182, -0.41410446), (0.06756571, -0.9077182, -0.41410446), (-0.5401401, -0.732643, -0.41410473), (-0.5401401, -0.732643, -0.41410473), (-0.5401401, -0.732643, -0.41410473), (-0.5401401, -0.732643, -0.41410473), (-0.8423093, 0.47159147, 0.26099148), (-0.8423093, 0.47159147, 0.26099148), (-0.8423093, 0.47159147, 0.26099148), (-0.8423093, 0.47159147, 0.26099148), (-0.99755985, -0.06730083, -0.018572554), (-0.99755985, -0.06730083, -0.018572554), (-0.99755985, -0.06730083, -0.018572554), (-0.99755985, -0.06730083, -0.018572554), (-0.85321695, -0.3069024, 0.42170095), (-0.85321695, -0.3069024, 0.42170095), (-0.85321695, -0.3069024, 0.42170095), (-0.85321695, -0.3069024, 0.42170095), (-0.71091515, 0.18704481, 0.67794836), (-0.71091515, 0.18704481, 0.67794836), (-0.71091515, 0.18704481, 0.67794836), (-0.71091515, 0.18704481, 0.67794836), (-0.8327761, 0.53471184, 0.14341246), (-0.83359957, 0.5325401, 0.1466722), (-0.8327482, 0.5347843, 0.14330433), (-0.8327482, 0.5347843, 0.14330433), (-0.9816084, 0.013560226, -0.19042294), (-0.9816084, 0.013560226, -0.19042294), (-0.9816084, 0.013560226, -0.19042294), (-0.9816084, 0.013560226, -0.19042294), (-0.9911611, -0.013693318, -0.13195531), (-0.9911611, -0.013693318, -0.13195531), (-0.9911611, -0.013693318, -0.13195531), (-0.9911611, -0.013693318, -0.13195531), (-0.8327761, 0.53471184, 0.14341246), (-0.8344753, 0.5301819, 0.15019362), (-0.8344753, 0.5301819, 0.15019362), (-0.83359957, 0.5325401, 0.1466722), (0.8383693, -0.5107603, -0.19042291), (0.8383693, -0.5107603, -0.19042291), (0.8383693, -0.5107603, -0.19042291), (0.8383693, -0.5107603, -0.19042291), (0.98961544, 0.009696805, 0.14341287), (0.9896305, 0.00977278, 0.14330402), (0.9896305, 0.00977278, 0.14330402), (0.9891573, 0.0074193585, 0.14667232), (0.98961544, 0.009696805, 0.14341287), (0.9891573, 0.0074193585, 0.14667232), (0.9886441, 0.0049566277, 0.1501942), (0.9886441, 0.0049566277, 0.1501942), (0.8319585, -0.53891814, -0.13195522), (0.8319585, -0.53891814, -0.13195522), (0.8319585, -0.53891814, -0.13195522), (0.8319585, -0.53891814, -0.13195522), (0.530527, 0.7049198, 0.47077504), (0.530527, 0.7049198, 0.47077504), (0.530527, 0.7049198, 0.47077504), (0.530527, 0.7049198, 0.47077504), (-0.074175715, 0.8791296, 0.47077513), (-0.074175715, 0.8791296, 0.47077513), (-0.074175715, 0.8791296, 0.47077513), (-0.074175715, 0.8791296, 0.47077513), (-0.07008308, 0.8989817, 0.432343), (-0.07008308, 0.8989817, 0.432343), (-0.07008308, 0.8989817, 0.432343), (-0.07008308, 0.8989817, 0.432343), (0.5376231, 0.7239069, 0.43234256), (0.5376231, 0.7239069, 0.43234256), (0.5376231, 0.7239069, 0.43234256), (0.5376231, 0.7239069, 0.43234256), (-0.40854323, -0.5439374, 0.73295593), (-0.40854323, -0.5439374, 0.73295593), (-0.40854323, -0.5439374, 0.73295593), (-0.40854323, -0.5439374, 0.73295593), (0.05653527, -0.6779221, 0.73295647), (0.05653527, -0.6779221, 0.73295647), (0.05653527, -0.6779221, 0.73295647), (0.05653527, -0.6779221, 0.73295647), (0.1764468, -0.26169574, 0.9488845), (0.1764468, -0.26169574, 0.9488845), (0.1764468, -0.26169574, 0.9488845), (0.1764468, -0.26169574, 0.9488845), (-0.28863034, -0.1277111, 0.94888484), (-0.28863034, -0.1277111, 0.94888484), (-0.28863034, -0.1277111, 0.94888484), (-0.28863034, -0.1277111, 0.94888484), (0.80885553, -0.58771414, -0.018571554), (0.80885553, -0.58771414, -0.018571554), (0.80885553, -0.58771414, -0.018571554), (0.80885553, -0.58771414, -0.018571554), (0.9641059, -0.048822228, 0.26099086), (0.9641059, -0.048822228, 0.26099086), (0.9641059, -0.048822228, 0.26099086), (0.9641059, -0.048822228, 0.26099086), (0.70146465, -0.21984966, 0.67794794), (0.70146465, -0.21984966, 0.67794794), (0.70146465, -0.21984966, 0.67794794), (0.70146465, -0.21984966, 0.67794794), (0.5591631, -0.71379626, 0.4217006), (0.5591631, -0.71379626, 0.4217006), (0.5591631, -0.71379626, 0.4217006), (0.5591631, -0.71379626, 0.4217006), (0.51721704, 0.66354096, 0.54055524), (0.51721704, 0.66354096, 0.54055524), (0.51721704, 0.66354096, 0.54055524), (0.51721704, 0.66354096, 0.54055524), (-0.084920466, 0.83701205, 0.5405545), (-0.084920466, 0.83701205, 0.5405545), (-0.084920466, 0.83701205, 0.5405545), (-0.084920466, 0.83701205, 0.5405545), (-0.16975836, 0.4481398, 0.8776974), (-0.16975836, 0.4481398, 0.8776974), (-0.16975836, 0.4481398, 0.8776974), (-0.16975836, 0.4481398, 0.8776974), (0.38216087, 0.2891368, 0.8776975), (0.38216087, 0.2891368, 0.8776975), (0.38216087, 0.2891368, 0.8776975), (0.38216087, 0.2891368, 0.8776975), (-0.55067104, -0.77966434, -0.2981356), (-0.55067104, -0.77966434, -0.2981356), (-0.55067104, -0.77966434, -0.2981356), (-0.55067104, -0.77966434, -0.2981356), (0.051466666, -0.9531353, -0.2981346), (0.051466666, -0.9531353, -0.2981346), (0.051466666, -0.9531353, -0.2981346), (0.051466666, -0.9531353, -0.2981346), (0.018004764, -0.97489184, 0.2219497), (0.018004764, -0.97489184, 0.2219497), (0.018004764, -0.97489184, 0.2219497), (0.018004764, -0.97489184, 0.2219497), (-0.53391296, -0.815889, 0.22195102), (-0.53391296, -0.815889, 0.22195102), (-0.53391296, -0.815889, 0.22195102), (-0.53391296, -0.815889, 0.22195102), (0.29166135, 0.1596231, 0.9431088), (0.29166135, 0.1596231, 0.9431088), (0.29166135, 0.1596231, 0.9431088), (0.29166135, 0.1596231, 0.9431088), (-0.16203408, 0.29032865, 0.9431088), (-0.16203408, 0.29032865, 0.9431088), (-0.16203408, 0.29032865, 0.9431088), (-0.16203408, 0.29032865, 0.9431088), (-0.11312799, 0.65863425, 0.7439106), (-0.11312799, 0.65863425, 0.7439106), (-0.11312799, 0.65863425, 0.7439106), (-0.11312799, 0.65863425, 0.7439106), (0.4461994, 0.49749652, 0.7439108), (0.4461994, 0.49749652, 0.7439108), (0.4461994, 0.49749652, 0.7439108), (0.4461994, 0.49749652, 0.7439108), (0.8474837, -0.36541593, -0.38502294), (0.8474837, -0.36541593, -0.38502294), (0.8474837, -0.36541593, -0.38502294), (0.8474837, -0.36541593, -0.38502294), (0.9175793, -0.13358173, 0.37443846), (0.9175793, -0.13358173, 0.37443846), (0.9175793, -0.13358173, 0.37443846), (0.9175793, -0.13358173, 0.37443846), (0.9669179, -0.04395731, 0.25127196), (0.9669179, -0.04395731, 0.25127196), (0.9669179, -0.04395731, 0.25127196), (0.9669179, -0.04395731, 0.25127196), (0.843519, -0.45130205, -0.2912081), (0.843519, -0.45130205, -0.2912081), (0.843519, -0.45130205, -0.2912081), (0.843519, -0.45130205, -0.2912081), (-0.8480085, 0.3750697, 0.37443838), (-0.8480085, 0.3750697, 0.37443838), (-0.8480085, 0.3750697, 0.37443838), (-0.8480085, 0.3750697, 0.37443838), (-0.91199905, 0.14147608, -0.38502246), (-0.91199905, 0.14147608, -0.38502246), (-0.91199905, 0.14147608, -0.38502246), (-0.91199905, 0.14147608, -0.38502246), (-0.95433545, 0.06664455, -0.29120848), (-0.95433545, 0.06664455, -0.29120848), (-0.95433545, 0.06664455, -0.29120848), (-0.95433545, 0.06664455, -0.29120848), (-0.8421025, 0.47720605, 0.25127205), (-0.8421025, 0.47720605, 0.25127205), (-0.8421025, 0.47720605, 0.25127205), (-0.8421025, 0.47720605, 0.25127205), (-0.33769768, -0.25096315, -0.9071812), (-0.33769768, -0.25096315, -0.9071812), (-0.33769768, -0.25096315, -0.9071812), (-0.33769768, -0.25096315, -0.9071812), (0.15241848, -0.39216158, -0.9071813), (0.15241848, -0.39216158, -0.9071813), (0.15241848, -0.39216158, -0.9071813), (0.15241848, -0.39216158, -0.9071813), (0.116344556, -0.63502675, -0.76367867), (0.116344556, -0.63502675, -0.76367867), (0.116344556, -0.63502675, -0.76367867), (0.116344556, -0.63502675, -0.76367867), (-0.43636295, -0.4757963, -0.76367885), (-0.43636295, -0.4757963, -0.76367885), (-0.43636295, -0.4757963, -0.76367885), (-0.43636295, -0.4757963, -0.76367885), (-0.38104782, -0.23331317, -0.8946327), (-0.38104782, -0.23331317, -0.8946327), (-0.38104782, -0.23331317, -0.8946327), (-0.38104782, -0.23331317, -0.8946327), (0.19851544, -0.4002802, -0.8946325), (0.19851544, -0.4002802, -0.8946325), (0.19851544, -0.4002802, -0.8946325), (0.19851544, -0.4002802, -0.8946325), (0.17207542, -0.39572844, -0.90210253), (0.17207542, -0.39572844, -0.90210253), (0.17207542, -0.39572844, -0.90210253), (0.17207542, -0.39572844, -0.90210253), (-0.35623896, -0.2435254, -0.90210265), (-0.35623896, -0.2435254, -0.90210265), (-0.35623896, -0.2435254, -0.90210265), (-0.35623896, -0.2435254, -0.90210265), (-0.8762565, 0.36547756, 0.31400743), (-0.8762565, 0.36547756, 0.31400743), (-0.8762565, 0.36547756, 0.31400743), (-0.8762565, 0.36547756, 0.31400743), (-0.9315793, 0.17030528, -0.32117948), (-0.9315793, 0.17030528, -0.32117948), (-0.9315793, 0.17030528, -0.32117948), (-0.9315793, 0.17030528, -0.32117948), (-0.92167085, 0.1549261, -0.35569763), (-0.92167085, 0.1549261, -0.35569763), (-0.92167085, 0.1549261, -0.35569763), (-0.92167085, 0.1549261, -0.35569763), (-0.8617798, 0.370769, 0.34621677), (-0.8617798, 0.370769, 0.34621677), (-0.8617798, 0.370769, 0.34621677), (-0.8617798, 0.370769, 0.34621677), (0.8794008, -0.3514228, -0.32117966), (0.8794008, -0.3514228, -0.32117966), (0.8794008, -0.3514228, -0.32117966), (0.8794008, -0.3514228, -0.32117966), (0.9363944, -0.15673183, 0.31400755), (0.9363944, -0.15673183, 0.31400755), (0.9363944, -0.15673183, 0.31400755), (0.9363944, -0.15673183, 0.31400755), (0.9269516, -0.1445496, 0.3462169), (0.9269516, -0.1445496, 0.3462169), (0.9269516, -0.1445496, 0.3462169), (0.9269516, -0.1445496, 0.3462169), (0.86282885, -0.3591734, -0.35569757), (0.86282885, -0.3591734, -0.35569757), (0.86282885, -0.3591734, -0.35569757), (0.86282885, -0.3591734, -0.35569757), (0.34834442, 0.13969451, 0.92689896), (0.34834442, 0.13969451, 0.92689896), (0.34834442, 0.13969451, 0.92689896), (0.34834442, 0.13969451, 0.92689896), (-0.2206316, 0.30361173, 0.92689896), (-0.2206316, 0.30361173, 0.92689896), (-0.2206316, 0.30361173, 0.92689896), (-0.2206316, 0.30361173, 0.92689896), (-0.18712026, 0.29613617, 0.9366373), (-0.18712026, 0.29613617, 0.9366373), (-0.18712026, 0.29613617, 0.9366373), (-0.18712026, 0.29613617, 0.9366373), (0.315993, 0.15119354, 0.936637), (0.315993, 0.15119354, 0.936637), (0.315993, 0.15119354, 0.936637), (0.315993, 0.15119354, 0.936637), (0.4807057, 0.5372397, -0.69303364), (0.4807057, 0.5372397, -0.69303364), (0.4807057, 0.5372397, -0.69303364), (0.4807057, 0.5372397, -0.69303364), (-0.12120125, 0.71064335, -0.6930341), (-0.12120125, 0.71064335, -0.6930341), (-0.12120125, 0.71064335, -0.6930341), (-0.12120125, 0.71064335, -0.6930341), (-0.10044482, 0.7935956, -0.6000975), (-0.10044482, 0.7935956, -0.6000975), (-0.10044482, 0.7935956, -0.6000975), (-0.10044482, 0.7935956, -0.6000975), (0.5072625, 0.6185199, -0.60009813), (0.5072625, 0.6185199, -0.60009813), (0.5072625, 0.6185199, -0.60009813), (0.5072625, 0.6185199, -0.60009813), (0.8606494, -0.4079311, 0.30475366), (0.8606494, -0.4079311, 0.30475366), (0.8606494, -0.4079311, 0.30475366), (0.8606494, -0.4079311, 0.30475366), (0.9938194, 0.054316994, -0.09681314), (0.9938194, 0.054316994, -0.09681314), (0.9938194, 0.054316994, -0.09681314), (0.9938194, 0.054316994, -0.09681314), (0.87621, 0.38671595, 0.28758785), (0.87621, 0.38671595, 0.28758785), (0.87621, 0.38671595, 0.28758785), (0.87621, 0.38671595, 0.28758785), (0.754148, -0.036980487, 0.6556625), (0.754148, -0.036980487, 0.6556625), (0.754148, -0.036980487, 0.6556625), (0.754148, -0.036980487, 0.6556625), (0.84514064, -0.49251637, 0.20776169), (0.8450848, -0.49267384, 0.20761558), (0.8440358, -0.49560368, 0.20489131), (0.8440358, -0.49560368, 0.20489131), (0.96749187, -0.062560536, -0.24504249), (0.96749187, -0.062560536, -0.24504249), (0.96749187, -0.062560536, -0.24504249), (0.96749187, -0.062560536, -0.24504249), (0.98056793, -0.023076816, -0.19481781), (0.98056793, -0.023076816, -0.19481781), (0.98056793, -0.023076816, -0.19481781), (0.98056793, -0.023076816, -0.19481781), (0.84514064, -0.49251637, 0.20776169), (0.84616685, -0.489599, 0.21046239), (0.84616685, -0.489599, 0.21046239), (0.8450848, -0.49267384, 0.20761558), (-0.85248584, 0.46175975, -0.24504258), (-0.85248584, 0.46175975, -0.24504258), (-0.85248584, 0.46175975, -0.24504258), (-0.85248584, 0.46175975, -0.24504258), (-0.97763574, 0.032609783, 0.20776175), (-0.9783428, 0.029408004, 0.20489158), (-0.9783428, 0.029408004, 0.20489158), (-0.9776722, 0.032446712, 0.20761567), (-0.97763574, 0.032609783, 0.20776175), (-0.9776722, 0.032446712, 0.20761567), (-0.97695255, 0.03562579, 0.21046233), (-0.97695255, 0.03562579, 0.21046233), (-0.84255123, 0.50214875, -0.1948181), (-0.84255123, 0.50214875, -0.1948181), (-0.84255123, 0.50214875, -0.1948181), (-0.84255123, 0.50214875, -0.1948181), (-0.4942439, -0.5789772, 0.64846635), (-0.4942439, -0.5789772, 0.64846635), (-0.4942439, -0.5789772, 0.64846635), (-0.4942439, -0.5789772, 0.64846635), (0.110459216, -0.753187, 0.6484659), (0.110459216, -0.753187, 0.6484659), (0.110459216, -0.753187, 0.6484659), (0.110459216, -0.753187, 0.6484659), (0.10405822, -0.781046, 0.61574274), (0.10405822, -0.781046, 0.61574274), (0.10405822, -0.781046, 0.61574274), (0.10405822, -0.781046, 0.61574274), (-0.50364643, -0.60597146, 0.6157426), (-0.50364643, -0.60597146, 0.6157426), (-0.50364643, -0.60597146, 0.6157426), (-0.50364643, -0.60597146, 0.6157426), (0.45065948, 0.6901299, 0.56623906), (0.45065948, 0.6901299, 0.56623906), (0.45065948, 0.6901299, 0.56623906), (0.45065948, 0.6901299, 0.56623906), (-0.014417895, 0.82411397, 0.56624055), (-0.014417895, 0.82411397, 0.56624055), (-0.014417895, 0.82411397, 0.56624055), (-0.014417895, 0.82411397, 0.56624055), (-0.117276065, 0.46708512, 0.8764005), (-0.117276065, 0.46708512, 0.8764005), (-0.117276065, 0.46708512, 0.8764005), (-0.117276065, 0.46708512, 0.8764005), (0.34780207, 0.33310014, 0.87640053), (0.34780207, 0.33310014, 0.87640053), (0.34780207, 0.33310014, 0.87640053), (0.34780207, 0.33310014, 0.87640053), (-0.81259626, 0.5747298, -0.09681356), (-0.81259626, 0.5747298, -0.09681356), (-0.81259626, 0.5747298, -0.09681356), (-0.81259626, 0.5747298, -0.09681356), (-0.94576573, 0.11248219, 0.3047539), (-0.94576573, 0.11248219, 0.3047539), (-0.94576573, 0.11248219, 0.3047539), (-0.94576573, 0.11248219, 0.3047539), (-0.6582321, 0.36991438, 0.6556628), (-0.6582321, 0.36991438, 0.6556628), (-0.6582321, 0.36991438, 0.6556628), (-0.6582321, 0.36991438, 0.6556628), (-0.53616863, 0.7936094, 0.28758875), (-0.53616863, 0.7936094, 0.28758875), (-0.53616863, 0.7936094, 0.28758875), (-0.53616863, 0.7936094, 0.28758875), (-0.47679797, -0.52323705, 0.70631903), (-0.47679797, -0.52323705, 0.70631903), (-0.47679797, -0.52323705, 0.70631903), (-0.47679797, -0.52323705, 0.70631903), (0.12534179, -0.6967081, 0.7063196), (0.12534179, -0.6967081, 0.7063196), (0.12534179, -0.6967081, 0.7063196), (0.12534179, -0.6967081, 0.7063196), (0.22876768, -0.24331221, 0.9425839), (0.22876768, -0.24331221, 0.9425839), (0.22876768, -0.24331221, 0.9425839), (0.22876768, -0.24331221, 0.9425839), (-0.32315242, -0.0843091, 0.9425839), (-0.32315242, -0.0843091, 0.9425839), (-0.32315242, -0.0843091, 0.9425839), (-0.32315242, -0.0843091, 0.9425839), (0.52485055, 0.69003624, -0.49837932), (0.52485055, 0.69003624, -0.49837932), (0.52485055, 0.69003624, -0.49837932), (0.52485055, 0.69003624, -0.49837932), (-0.077288106, 0.86350656, -0.4983802), (-0.077288106, 0.86350656, -0.4983802), (-0.077288106, 0.86350656, -0.4983802), (-0.077288106, 0.86350656, -0.4983802), (-0.0107878735, 0.9999415, 0.00066823734), (-0.0107878735, 0.9999415, 0.00066823734), (-0.0107878735, 0.9999415, 0.00066823734), (-0.0107878735, 0.9999415, 0.00066823734), (0.54112995, 0.8409386, 0.00066869566), (0.54112995, 0.8409386, 0.00066869566), (0.54112995, 0.8409386, 0.00066869566), (0.54112995, 0.8409386, 0.00066869566), (-0.22958897, 0.055838183, 0.97168463), (-0.22958897, 0.055838183, 0.97168463), (-0.22958897, 0.055838183, 0.97168463), (-0.22958897, 0.055838183, 0.97168463), (0.22410645, -0.07486746, 0.9716847), (0.22410645, -0.07486746, 0.9716847), (0.22410645, -0.07486746, 0.9716847), (0.22410645, -0.07486746, 0.9716847), (0.16521306, -0.4778423, 0.8627696), (0.16521306, -0.4778423, 0.8627696), (0.16521306, -0.4778423, 0.8627696), (0.16521306, -0.4778423, 0.8627696), (-0.39411524, -0.31670502, 0.8627694), (-0.39411524, -0.31670502, 0.8627694), (-0.39411524, -0.31670502, 0.8627694), (-0.39411524, -0.31670502, 0.8627694), (-0.8729817, 0.27690923, -0.40152743), (-0.8729817, 0.27690923, -0.40152743), (-0.8729817, 0.27690923, -0.40152743), (-0.8729817, 0.27690923, -0.40152743), (-0.8926905, 0.21997541, 0.3933378), (-0.8926905, 0.21997541, 0.3933378), (-0.8926905, 0.21997541, 0.3933378), (-0.8926905, 0.21997541, 0.3933378), (-0.94915855, 0.105601795, 0.2965571), (-0.94915855, 0.105601795, 0.2965571), (-0.94915855, 0.105601795, 0.2965571), (-0.94915855, 0.105601795, 0.2965571), (-0.86364293, 0.38144907, -0.3295719), (-0.86364293, 0.38144907, -0.3295719), (-0.86364293, 0.38144907, -0.3295719), (-0.86364293, 0.38144907, -0.3295719), (0.8728984, -0.28867552, 0.39333794), (0.8728984, -0.28867552, 0.39333794), (0.8728984, -0.28867552, 0.39333794), (0.8728984, -0.28867552, 0.39333794), (0.8865009, -0.22998247, -0.4015275), (0.8865009, -0.22998247, -0.4015275), (0.8865009, -0.22998247, -0.4015275), (0.8865009, -0.22998247, -0.4015275), (0.9342114, -0.13649736, -0.32957155), (0.9342114, -0.13649736, -0.32957155), (0.9342114, -0.13649736, -0.32957155), (0.9342114, -0.13649736, -0.32957155), (0.85986197, -0.41556123, 0.29655722), (0.85986197, -0.41556123, 0.29655722), (0.85986197, -0.41556123, 0.29655722), (0.85986197, -0.41556123, 0.29655722), (0.27717006, 0.04086362, -0.9599516), (0.27717006, 0.04086362, -0.9599516), (0.27717006, 0.04086362, -0.9599516), (0.27717006, 0.04086362, -0.9599516), (-0.21294717, 0.1820624, -0.95995146), (-0.21294717, 0.1820624, -0.95995146), (-0.21294717, 0.1820624, -0.95995146), (-0.21294717, 0.1820624, -0.95995146), (-0.16951638, 0.45046, -0.8765558), (-0.16951638, 0.45046, -0.8765558), (-0.16951638, 0.45046, -0.8765558), (-0.16951638, 0.45046, -0.8765558), (0.3831911, 0.2912295, -0.87655574), (0.3831911, 0.2912295, -0.87655574), (0.3831911, 0.2912295, -0.87655574), (0.3831911, 0.2912295, -0.87655574), (0.3213597, 0.02612973, -0.9465966), (0.3213597, 0.02612973, -0.9465966), (0.3213597, 0.02612973, -0.9465966), (0.3213597, 0.02612973, -0.9465966), (-0.258203, 0.19309668, -0.9465965), (-0.258203, 0.19309668, -0.9465965), (-0.258203, 0.19309668, -0.9465965), (-0.258203, 0.19309668, -0.9465965), (-0.23226422, 0.18680947, -0.9545447), (-0.23226422, 0.18680947, -0.9545447), (-0.23226422, 0.18680947, -0.9545447), (-0.23226422, 0.18680947, -0.9545447), (0.296052, 0.03460615, -0.95454466), (0.296052, 0.03460615, -0.95454466), (0.296052, 0.03460615, -0.95454466), (0.296052, 0.03460615, -0.95454466), (0.89715344, -0.29294258, 0.33060613), (0.89715344, -0.29294258, 0.33060613), (0.89715344, -0.29294258, 0.33060613), (0.89715344, -0.29294258, 0.33060613), (0.91033137, -0.24405846, -0.33426365), (0.91033137, -0.24405846, -0.33426365), (0.91033137, -0.24405846, -0.33426365), (0.91033137, -0.24405846, -0.33426365), (0.8981252, -0.23665541, -0.3706285), (0.8981252, -0.23665541, -0.3706285), (0.8981252, -0.23665541, -0.3706285), (0.8981252, -0.23665541, -0.3706285), (0.8848048, -0.29084688, 0.36404487), (0.8848048, -0.29084688, 0.36404487), (0.8848048, -0.29084688, 0.36404487), (0.8848048, -0.29084688, 0.36404487), (-0.9006483, 0.27766928, -0.33426395), (-0.9006483, 0.27766928, -0.33426395), (-0.9006483, 0.27766928, -0.33426395), (-0.9006483, 0.27766928, -0.33426395), (-0.9154979, 0.22926657, 0.33060625), (-0.9154979, 0.22926657, 0.33060625), (-0.9154979, 0.22926657, 0.33060625), (-0.9154979, 0.22926657, 0.33060625), (-0.903927, 0.22447154, 0.36404476), (-0.903927, 0.22447154, 0.36404476), (-0.903927, 0.22447154, 0.36404476), (-0.903927, 0.22447154, 0.36404476), (-0.88637424, 0.27744374, -0.37062886), (-0.88637424, 0.27744374, -0.37062886), (-0.88637424, 0.27744374, -0.37062886), (-0.88637424, 0.27744374, -0.37062886), (-0.28733423, 0.07207817, 0.9551145), (-0.28733423, 0.07207817, 0.9551145), (-0.28733423, 0.07207817, 0.9551145), (-0.28733423, 0.07207817, 0.9551145), (0.28164127, -0.091838986, 0.95511454), (0.28164127, -0.091838986, 0.95511454), (0.28164127, -0.091838986, 0.95511454), (0.28164127, -0.091838986, 0.95511454), (0.24876954, -0.08214685, 0.9650728), (0.24876954, -0.08214685, 0.9650728), (0.24876954, -0.08214685, 0.9650728), (0.24876954, -0.08214685, 0.9650728), (-0.2543451, 0.062795706, 0.9650727), (-0.2543451, 0.062795706, 0.9650727), (-0.2543451, 0.062795706, 0.9650727), (-0.2543451, 0.062795706, 0.9650727), (-0.5650421, -0.8219511, -0.071581714), (-0.5650421, -0.8219511, -0.071581714), (-0.5650421, -0.8219511, -0.071581714), (-0.5650421, -0.8219511, -0.071581714), (0.041137084, -0.996586, -0.07158172), (0.041137084, -0.996586, -0.07158172), (0.041137084, -0.996586, -0.07158172), (0.041137084, -0.996586, -0.07158172), (0.04120709, -0.9982833, -0.041622818), (0.04120709, -0.9982833, -0.041622818), (0.04120709, -0.9982833, -0.041622818), (0.04120709, -0.9982833, -0.041622818), (-0.56600434, -0.82335085, -0.041622847), (-0.56600434, -0.82335085, -0.041622847), (-0.56600434, -0.82335085, -0.041622847), (-0.56600434, -0.82335085, -0.041622847), (-0.82195103, 0.56504196, -0.071581736), (-0.82195103, 0.56504196, -0.071581736), (-0.82195103, 0.56504196, -0.071581736), (-0.82195103, 0.56504196, -0.071581736), (-0.996586, -0.041137047, -0.071581736), (-0.996586, -0.041137047, -0.071581736), (-0.996586, -0.041137047, -0.071581736), (-0.996586, -0.041137047, -0.071581736), (-0.99828327, -0.041207258, -0.041622806), (-0.99828327, -0.041207258, -0.041622806), (-0.99828327, -0.041207258, -0.041622806), (-0.99828327, -0.041207258, -0.041622806), (-0.8233509, 0.5660044, -0.041622803), (-0.8233509, 0.5660044, -0.041622803), (-0.8233509, 0.5660044, -0.041622803), (-0.8233509, 0.5660044, -0.041622803), (0.82195103, -0.56504196, -0.071581736), (0.82195103, -0.56504196, -0.071581736), (0.82195103, -0.56504196, -0.071581736), (0.82195103, -0.56504196, -0.071581736), (0.996586, 0.041137047, -0.071581736), (0.996586, 0.041137047, -0.071581736), (0.996586, 0.041137047, -0.071581736), (0.996586, 0.041137047, -0.071581736), (0.99828327, 0.041207258, -0.041622806), (0.99828327, 0.041207258, -0.041622806), (0.99828327, 0.041207258, -0.041622806), (0.99828327, 0.041207258, -0.041622806), (0.8233509, -0.5660044, -0.041622803), (0.8233509, -0.5660044, -0.041622803), (0.8233509, -0.5660044, -0.041622803), (0.8233509, -0.5660044, -0.041622803), (0.5650421, 0.8219511, -0.071581714), (0.5650421, 0.8219511, -0.071581714), (0.5650421, 0.8219511, -0.071581714), (0.5650421, 0.8219511, -0.071581714), (-0.041137084, 0.996586, -0.07158172), (-0.041137084, 0.996586, -0.07158172), (-0.041137084, 0.996586, -0.07158172), (-0.041137084, 0.996586, -0.07158172), (-0.04120709, 0.9982833, -0.041622818), (-0.04120709, 0.9982833, -0.041622818), (-0.04120709, 0.9982833, -0.041622818), (-0.04120709, 0.9982833, -0.041622818), (0.56600434, 0.82335085, -0.041622847), (0.56600434, 0.82335085, -0.041622847), (0.56600434, 0.82335085, -0.041622847), (0.56600434, 0.82335085, -0.041622847), (0.16196564, 0.9368269, -0.3100363), (0.16196564, 0.9368269, -0.3100363), (0.16196564, 0.9368269, -0.3100363), (0.16196564, 0.9368269, -0.3100363), (-0.4488666, 0.81225187, -0.3725127), (-0.4488666, 0.81225187, -0.3725127), (-0.4488666, 0.81225187, -0.3725127), (-0.4488666, 0.81225187, -0.3725127), (-0.48236632, 0.824378, -0.29618165), (-0.48236632, 0.824378, -0.29618165), (-0.48236632, 0.824378, -0.29618165), (-0.48236632, 0.824378, -0.29618165), (0.13066304, 0.96258694, -0.23738933), (0.13066304, 0.96258694, -0.23738933), (0.13066304, 0.96258694, -0.23738933), (0.13066304, 0.96258694, -0.23738933), (0.9723193, -0.058138072, 0.22630757), (0.9723193, -0.058138072, 0.22630757), (0.9723193, -0.058138072, 0.22630757), (0.9723193, -0.058138072, 0.22630757), (0.8462071, 0.52966934, 0.058171194), (0.8462071, 0.52966934, 0.058171194), (0.8462071, 0.52966934, 0.058171194), (0.8462071, 0.52966934, 0.058171194), (0.6452877, 0.5700597, 0.5085623), (0.6452877, 0.5700597, 0.5085623), (0.6452877, 0.5700597, 0.5085623), (0.6452877, 0.5700597, 0.5085623), (0.766943, 0.024631696, 0.6412423), (0.766943, 0.024631696, 0.6412423), (0.766943, 0.024631696, 0.6412423), (0.766943, 0.024631696, 0.6412423), (0.97451866, -0.10258641, 0.1994732), (0.97451866, -0.10258641, 0.1994732), (0.97451866, -0.10258641, 0.1994732), (0.97451866, -0.10258641, 0.1994732), (0.872228, 0.48863274, -0.021359848), (0.872228, 0.48863274, -0.021359848), (0.872228, 0.48863274, -0.021359848), (0.872228, 0.48863274, -0.021359848), (0.8589137, 0.5120219, 0.010035278), (0.8589137, 0.5120219, 0.010035278), (0.8589137, 0.5120219, 0.010035278), (0.8589137, 0.5120219, 0.010035278), (0.9780408, -0.08209513, 0.19156384), (0.9780408, -0.08209513, 0.19156384), (0.9780408, -0.08209513, 0.19156384), (0.9780408, -0.08209513, 0.19156384), (-0.9705943, 0.09125157, -0.22275563), (-0.9705943, 0.09125157, -0.22275563), (-0.9705943, 0.09125157, -0.22275563), (-0.9705943, 0.09125157, -0.22275563), (-0.862888, -0.50535154, -0.006647517), (-0.86563134, -0.5005836, -0.0099210525), (-0.86563134, -0.5005836, -0.0099210525), (-0.8655582, -0.5007118, -0.00983192), (-0.862888, -0.50535154, -0.006647517), (-0.8655582, -0.5007118, -0.00983192), (-0.86001116, -0.51026493, -0.0032588695), (-0.86001116, -0.51026493, -0.0032588695), (-0.97987247, 0.08608623, -0.18010822), (-0.97987247, 0.08608623, -0.18010822), (-0.97987247, 0.08608623, -0.18010822), (-0.97987247, 0.08608623, -0.18010822), (-0.15795508, -0.95203435, 0.26207018), (-0.15795508, -0.95203435, 0.26207018), (-0.15795508, -0.95203435, 0.26207018), (-0.15795508, -0.95203435, 0.26207018), (0.45011383, -0.8254968, 0.34051833), (0.45011383, -0.8254968, 0.34051833), (0.45011383, -0.8254968, 0.34051833), (0.45011383, -0.8254968, 0.34051833), (0.48197204, -0.8214363, 0.30486947), (0.48197204, -0.8214363, 0.30486947), (0.48197204, -0.8214363, 0.30486947), (0.48197204, -0.8214363, 0.30486947), (-0.13047104, -0.9635429, 0.23358612), (-0.13047104, -0.9635429, 0.23358612), (-0.13047104, -0.9635429, 0.23358612), (-0.13047104, -0.9635429, 0.23358612), (0.16687723, 0.49893263, 0.85042244), (0.16687723, 0.49893263, 0.85042244), (0.16687723, 0.49893263, 0.85042244), (0.16687723, 0.49893263, 0.85042244), (-0.30604076, 0.3970592, 0.8652647), (-0.30604076, 0.3970592, 0.8652647), (-0.30604076, 0.3970592, 0.8652647), (-0.30604076, 0.3970592, 0.8652647), (-0.20352565, -0.0625517, 0.97706944), (-0.20352565, -0.0625517, 0.97706944), (-0.20352565, -0.0625517, 0.97706944), (-0.20352565, -0.0625517, 0.97706944), (0.26939622, 0.039319914, 0.9622264), (0.26939622, 0.039319914, 0.9622264), (0.26939622, 0.039319914, 0.9622264), (0.26939622, 0.039319914, 0.9622264), (-0.993316, 0.10773335, -0.041434444), (-0.993316, 0.10773335, -0.041434444), (-0.993316, 0.10773335, -0.041434444), (-0.993316, 0.10773335, -0.041434444), (-0.8628459, -0.48880726, 0.1287033), (-0.8628459, -0.48880726, 0.1287033), (-0.8628459, -0.48880726, 0.1287033), (-0.8628459, -0.48880726, 0.1287033), (-0.6692477, -0.2847397, 0.6863169), (-0.6692477, -0.2847397, 0.6863169), (-0.6692477, -0.2847397, 0.6863169), (-0.6692477, -0.2847397, 0.6863169), (-0.7909041, 0.26068762, 0.5536361), (-0.7909041, 0.26068762, 0.5536361), (-0.7909041, 0.26068762, 0.5536361), (-0.7909041, 0.26068762, 0.5536361), (-0.11479915, -0.93819225, 0.326522), (-0.11479915, -0.93819225, 0.326522), (-0.11479915, -0.93819225, 0.326522), (-0.11479915, -0.93819225, 0.326522), (0.49579012, -0.78993523, 0.36082494), (0.49579012, -0.78993523, 0.36082494), (0.49579012, -0.78993523, 0.36082494), (0.49579012, -0.78993523, 0.36082494), (0.42428926, -0.49477696, 0.75840247), (0.42428926, -0.49477696, 0.75840247), (0.42428926, -0.49477696, 0.75840247), (0.42428926, -0.49477696, 0.75840247), (-0.13693014, -0.61567163, 0.77601457), (-0.13693014, -0.61567163, 0.77601457), (-0.13693014, -0.61567163, 0.77601457), (-0.13693014, -0.61567163, 0.77601457), (0.11020092, 0.9829629, -0.1471042), (0.11020092, 0.9829629, -0.1471042), (0.11020092, 0.9829629, -0.1471042), (0.11020092, 0.9829629, -0.1471042), (-0.50471485, 0.84468484, -0.17824236), (-0.50471485, 0.84468484, -0.17824236), (-0.50471485, 0.84468484, -0.17824236), (-0.50471485, 0.84468484, -0.17824236), (-0.44825262, 0.78009784, 0.43648228), (-0.44825262, 0.78009784, 0.43648228), (-0.44825262, 0.78009784, 0.43648228), (-0.44825262, 0.78009784, 0.43648228), (0.11296914, 0.9009922, 0.41886866), (0.11296914, 0.9009922, 0.41886866), (0.11296914, 0.9009922, 0.41886866), (0.11296914, 0.9009922, 0.41886866), (-0.21089068, -0.20619312, 0.95551527), (-0.21089068, -0.20619312, 0.95551527), (-0.21089068, -0.20619312, 0.95551527), (-0.21089068, -0.20619312, 0.95551527), (0.257189, -0.1443769, 0.955515), (0.257189, -0.1443769, 0.955515), (0.257189, -0.1443769, 0.955515), (0.257189, -0.1443769, 0.955515), (0.4048524, -0.683753, 0.607105), (0.4048524, -0.683753, 0.607105), (0.4048524, -0.683753, 0.607105), (0.4048524, -0.683753, 0.607105), (-0.19914207, -0.80708116, 0.55584395), (-0.19914207, -0.80708116, 0.55584395), (-0.19914207, -0.80708116, 0.55584395), (-0.19914207, -0.80708116, 0.55584395), (-0.91982853, -0.027581207, -0.39135), (-0.91982853, -0.027581207, -0.39135), (-0.91982853, -0.027581207, -0.39135), (-0.91982853, -0.027581207, -0.39135), (-0.8973267, -0.22223373, 0.38133582), (-0.8973267, -0.22223373, 0.38133582), (-0.8973267, -0.22223373, 0.38133582), (-0.8973267, -0.22223373, 0.38133582), (-0.8923384, -0.43655375, 0.11468623), (-0.8923384, -0.43655375, 0.11468623), (-0.8923384, -0.43655375, 0.11468623), (-0.8923384, -0.43655375, 0.11468623), (-0.9555401, 0.06653151, -0.2872569), (-0.9555401, 0.06653151, -0.2872569), (-0.9555401, 0.06653151, -0.2872569), (-0.9555401, 0.06653151, -0.2872569), (0.92425454, 0.018328726, 0.3813367), (0.92425454, 0.018328726, 0.3813367), (0.92425454, 0.018328726, 0.3813367), (0.92425454, 0.018328726, 0.3813367), (0.8954535, 0.21214986, -0.39135084), (0.8954535, 0.21214986, -0.39135084), (0.8954535, 0.21214986, -0.39135084), (0.8954535, 0.21214986, -0.39135084), (0.8972543, 0.41489655, -0.15098247), (0.8972543, 0.41489655, -0.15098247), (0.8972543, 0.41489655, -0.15098247), (0.8972543, 0.41489655, -0.15098247), (0.96124774, -0.08264076, 0.2630082), (0.96124774, -0.08264076, 0.2630082), (0.96124774, -0.08264076, 0.2630082), (0.96124774, -0.08264076, 0.2630082), (0.21626149, 0.31029063, -0.92571634), (0.21626149, 0.31029063, -0.92571634), (0.21626149, 0.31029063, -0.92571634), (0.21626149, 0.31029063, -0.92571634), (-0.28939813, 0.24351166, -0.9257164), (-0.28939813, 0.24351166, -0.9257164), (-0.28939813, 0.24351166, -0.9257164), (-0.28939813, 0.24351166, -0.9257164), (-0.4002956, 0.6614462, -0.63423365), (-0.4002956, 0.6614462, -0.63423365), (-0.4002956, 0.6614462, -0.63423365), (-0.4002956, 0.6614462, -0.63423365), (0.20200776, 0.7757554, -0.5978266), (0.20200776, 0.7757554, -0.5978266), (0.20200776, 0.7757554, -0.5978266), (0.20200776, 0.7757554, -0.5978266), (0.2629501, 0.31222653, -0.9128921), (0.2629501, 0.31222653, -0.9128921), (0.2629501, 0.31222653, -0.9128921), (0.2629501, 0.31222653, -0.9128921), (-0.33498853, 0.23326105, -0.91289216), (-0.33498853, 0.23326105, -0.91289216), (-0.33498853, 0.23326105, -0.91289216), (-0.33498853, 0.23326105, -0.91289216), (-0.3088807, 0.23921898, -0.9205253), (-0.3088807, 0.23921898, -0.9205253), (-0.3088807, 0.23921898, -0.9205253), (-0.3088807, 0.23921898, -0.9205253), (0.2361911, 0.3112021, -0.92052543), (0.2361911, 0.3112021, -0.92052543), (0.2361911, 0.3112021, -0.92052543), (0.2361911, 0.3112021, -0.92052543), (0.94678336, 0.034780264, 0.31998673), (0.94678336, 0.034780264, 0.31998673), (0.94678336, 0.034780264, 0.31998673), (0.94678336, 0.034780264, 0.31998673), (0.92442614, 0.19742593, -0.32628107), (0.92442614, 0.19742593, -0.32628107), (0.92442614, 0.19742593, -0.32628107), (0.92442614, 0.19742593, -0.32628107), (0.9094656, 0.20546785, -0.3614627), (0.9094656, 0.20546785, -0.3614627), (0.9094656, 0.20546785, -0.3614627), (0.9094656, 0.20546785, -0.3614627), (0.9353786, 0.026080094, 0.3526848), (0.9353786, 0.026080094, 0.3526848), (0.9353786, 0.026080094, 0.3526848), (0.9353786, 0.026080094, 0.3526848), (-0.9439854, -0.049321387, -0.32628036), (-0.9439854, -0.049321387, -0.32628036), (-0.9439854, -0.049321387, -0.32628036), (-0.9439854, -0.049321387, -0.32628036), (-0.9233536, -0.21219431, 0.31998706), (-0.9233536, -0.21219431, 0.31998706), (-0.9233536, -0.21219431, 0.31998706), (-0.9233536, -0.21219431, 0.31998706), (-0.91008186, -0.21763474, 0.3526843), (-0.91008186, -0.21763474, 0.3526843), (-0.91008186, -0.21763474, 0.3526843), (-0.91008186, -0.21763474, 0.3526843), (-0.9316254, -0.037672162, -0.36146212), (-0.9316254, -0.037672162, -0.36146212), (-0.9316254, -0.037672162, -0.36146212), (-0.9316254, -0.037672162, -0.36146212), (-0.2706826, -0.21159461, 0.93912655), (-0.2706826, -0.21159461, 0.93912655), (-0.2706826, -0.21159461, 0.93912655), (-0.2706826, -0.21159461, 0.93912655), (0.31633392, -0.13407148, 0.93912613), (0.31633392, -0.13407148, 0.93912613), (0.31633392, -0.13407148, 0.93912613), (0.31633392, -0.13407148, 0.93912613), (0.2825517, -0.140045, 0.9489742), (0.2825517, -0.140045, 0.9489742), (0.2825517, -0.140045, 0.9489742), (0.2825517, -0.140045, 0.9489742), (-0.23650701, -0.20859393, 0.94897467), (-0.23650701, -0.20859393, 0.94897467), (-0.23650701, -0.20859393, 0.94897467), (-0.23650701, -0.20859393, 0.94897467)] (
                interpolation = "faceVarying"
            )
            point3f[] points = [(-0.118136555, 0.034034133, 0.18750249), (0.034034133, 0.118136555, 0.18750249), (0.118136555, -0.034034133, 0.18750249), (-0.034034133, -0.118136555, 0.18750249), (0, 0, -0.010726936), (0.05393916, 0.18722929, 1.3668833), (0.14847246, -0.042773645, 1.5940534), (0.18722929, -0.05393916, 1.3668833), (-0.18722929, 0.05393916, 1.3668833), (-0.05393916, -0.18722929, 1.3668833), (0, 0, 1.6868846), (-0.14847246, 0.042773645, 1.5940534), (-0.042773645, -0.14847246, 1.5940534), (0.042773645, 0.14847246, 1.5940534), (-0.024714872, -0.08578829, 0.011508376), (0.08578829, -0.024714872, 0.011508376), (0.024714872, 0.08578829, 0.011508376), (-0.08578829, 0.024714872, 0.011508376), (0.42867658, -0.17650728, 1.1240311), (0.4078059, -0.23791441, 1.2736644), (0.34379077, -0.22309807, 1.1605728), (0.39464936, -0.0858516, 1.1605728), (0.30976355, -0.1324424, 1.1971143), (0.44857112, -0.18387946, 1.3074133), (0.45286128, -0.116328225, 1.2736644), (0.3776613, -0.15760285, 1.3060365), (0.48300597, -0.19663978, 1.2412922), (0.24029188, -0.10669872, 1.1113099), (0.3161839, -0.06020654, 1.0719603), (0.26756138, -0.19141884, 1.0719603), (0.34345344, -0.14492665, 1.0326109), (0.20530769, -0.093734846, 0.9869744), (0.15033056, -0.14532128, 1.0402037), (0.19722222, -0.018779729, 1.0402037), (0.14224511, -0.07036616, 1.093433), (-0.14314611, -0.44104654, 0.6868755), (-0.21253805, -0.4123558, 0.85891217), (-0.20321864, -0.34528792, 0.72445554), (-0.041334912, -0.39192522, 0.7244556), (-0.10140745, -0.29616663, 0.7620356), (-0.14636919, -0.45223415, 0.8990367), (-0.06912586, -0.45367163, 0.85891217), (-0.12234389, -0.36883947, 0.8922042), (-0.15932003, -0.49718803, 0.8256202), (-0.079492785, -0.2200982, 0.65831035), (-0.020361558, -0.30574638, 0.61692125), (-0.17512792, -0.2611595, 0.61692125), (-0.1159967, -0.3468077, 0.5755321), (-0.070016496, -0.1872049, 0.5128706), (-0.13292685, -0.1250298, 0.5716911), (0.01633026, -0.1680295, 0.5716911), (-0.0465801, -0.10585437, 0.63051146), (0.11674938, 0.4610819, 0.4534424), (0.20145306, 0.47131452, 0.63169134), (0.18311694, 0.37111622, 0.5102713), (0.012690008, 0.42021477, 0.5102713), (0.07905758, 0.33024913, 0.56710017), (0.1343362, 0.52212787, 0.6679256), (0.050472446, 0.51481074, 0.63169134), (0.10926724, 0.43511048, 0.6820359), (0.14265828, 0.5510148, 0.5813468), (0.04962643, 0.22809009, 0.48010972), (-0.01593209, 0.30678022, 0.4216788), (0.14700189, 0.2598403, 0.42167884), (0.08144336, 0.33853045, 0.3632479), (0.03012704, 0.16040535, 0.3394629), (0.10065174, 0.10985512, 0.41000786), (-0.056482248, 0.15512408, 0.41000786), (0.0140424585, 0.104573846, 0.48055285), (-0.050652828, -0.17582203, 0.7869029), (-0.17582203, 0.050652828, 0.7869029), (0.17582203, -0.050652828, 0.7869029), (0.050652828, 0.17582203, 0.7869029), (-0.06780157, 0.47205675, 1.1825287), (-0.025549226, 0.47347066, 1.3989724), (0.011380993, 0.42145878, 1.2063005), (-0.12432566, 0.39772993, 1.2084872), (-0.045143098, 0.3471319, 1.2322589), (-0.085954726, 0.46913534, 1.4365374), (-0.14492887, 0.4477548, 1.402719), (-0.07230011, 0.40260273, 1.4149573), (-0.098177984, 0.51862276, 1.3867342), (-0.017100245, 0.28137374, 1.077976), (-0.08924288, 0.32412717, 1.0408996), (0.041470442, 0.34138954, 1.0408996), (-0.030672215, 0.384143, 1.0038232), (-0.012497693, 0.24652256, 0.9608229), (0.05468073, 0.22343512, 1.0109773), (-0.0713796, 0.20678724, 1.0109773), (-0.00420117, 0.18369982, 1.0611318), (-0.06434122, 0.018536154, -0.0051681083), (-0.114128016, -0.06307682, 0.18750249), (-0.14873207, 0.042848434, 0.414232), (-0.045805063, 0.08287737, 0.011508376), (0.018536154, 0.06434122, -0.0051681083), (0.042848434, 0.14873207, 0.414232), (0.08287737, 0.045805063, 0.011508376), (0.06434122, -0.018536154, -0.0051681083), (0.14873207, -0.042848434, 0.414232), (0.045805063, -0.08287737, 0.011508376), (-0.018536154, -0.06434122, -0.0051681083), (-0.042848434, -0.14873207, 0.414232), (-0.17057511, 0.049141232, 1.4908452), (0.049141232, 0.17057511, 1.4908452), (0.17057511, -0.049141232, 1.4908452), (-0.049141232, -0.17057511, 1.4908452), (-0.0999676, 0.18087634, 1.3668833), (0.16985613, 0.0938769, 0.7869029), (0.0938769, -0.16985613, 0.7869029), (-0.18087634, -0.0999676, 1.3668833), (-0.09894088, 0.028504021, 1.6636767), (0.028504021, 0.09894088, 1.6636767), (0.09894088, -0.028504021, 1.6636767), (-0.028504021, -0.09894088, 1.6636767), (0.14343455, 0.079274096, 1.5940534), (0.079274096, -0.14343455, 1.5940534), (-0.14343455, -0.079274096, 1.5940534), (-0.079274096, 0.14343455, 1.5940534), (-0.08287737, -0.045805063, 0.011508376), (-0.06307682, 0.114128016, 0.18750249), (0.114128016, 0.06307682, 0.18750249), (0.06307682, -0.114128016, 0.18750249), (-0.027044687, -0.093875356, 0.06662457), (0.093875356, -0.027044687, 0.06662457), (0.027044687, 0.093875356, 0.06662457), (-0.093875356, 0.027044687, 0.06662457), (0.11298447, 0.010554936, 1.0177165), (0.10748551, -0.05748549, 0.9546588), (0.06731841, -0.11267919, 1.0177165), (0.072817385, -0.044638764, 1.0807743), (0.43107307, -0.10024722, 1.228517), (0.4647087, -0.1898595, 1.1923958), (0.38079986, -0.23591402, 1.2285169), (0.34716427, -0.14630176, 1.2646381), (0.43288442, -0.11953175, 1.1331664), (0.17984048, -0.13826683, 1.0002818), (0.13254353, -0.120740324, 1.0801257), (0.34369963, -0.08648308, 1.187979), (0.45902395, -0.14167789, 1.2989761), (0.47911215, -0.19519687, 1.2774035), (0.42899942, -0.22270195, 1.298976), (0.4089113, -0.16918296, 1.3205487), (0.45294204, -0.23735496, 1.2493852), (0.37393358, -0.20807725, 1.2979435), (0.40772513, -0.116887644, 1.2979435), (0.4867336, -0.14616533, 1.2493852), (0.3487917, -0.09094356, 1.0424482), (0.39474046, -0.22246659, 1.1331664), (0.30555573, -0.18941793, 1.187979), (0.27142054, -0.0622726, 1.1014725), (0.27196932, -0.11843723, 1.13537), (0.35316223, -0.07266387, 1.0987482), (0.30372816, -0.2060664, 1.0987482), (0.38492104, -0.16029304, 1.0621264), (0.31232482, -0.18935278, 1.0424482), (0.23495363, -0.16068183, 1.1014725), (0.21500924, -0.043360684, 1.0002818), (0.1677123, -0.025834158, 1.0801257), (0.2887552, -0.124657474, 1.0145413), (0.22114435, -0.1731667, 1.0593865), (0.26908153, -0.043803766, 1.0593865), (0.20147064, -0.09231299, 1.1042316), (0.04231205, -0.07051104, 0.5396632), (-0.03745754, -0.07418889, 0.4684995), (-0.103043936, -0.028635228, 0.5396632), (-0.023274349, -0.024957385, 0.6108268), (-0.053414322, -0.43035203, 0.80523574), (-0.1540537, -0.478908, 0.7680882), (-0.21343477, -0.38425148, 0.8052357), (-0.11279542, -0.3356956, 0.84238327), (-0.07722239, -0.44042554, 0.69627047), (-0.12305837, -0.1609112, 0.5275757), (-0.105481066, -0.0998983, 0.61580634), (-0.045918383, -0.3317656, 0.7526406), (-0.09720048, -0.46119526, 0.8890056), (-0.15730518, -0.4901943, 0.86682004), (-0.19276926, -0.4336628, 0.8890056), (-0.13266458, -0.4046638, 0.91119117), (-0.20847759, -0.46565104, 0.8339431), (-0.18074548, -0.36938962, 0.8838812), (-0.07318633, -0.40037647, 0.8838812), (-0.10091844, -0.4966379, 0.8339432), (-0.05339633, -0.3476891, 0.5858794), (-0.19863519, -0.40544757, 0.69627047), (-0.16733117, -0.29678762, 0.7526406), (-0.026018389, -0.25265697, 0.64796305), (-0.08977492, -0.25578874, 0.6882988), (-0.03095992, -0.3473903, 0.65040594), (-0.18830967, -0.30205917, 0.65040594), (-0.12949468, -0.39366078, 0.6125131), (-0.16947111, -0.31424892, 0.5858794), (-0.14209317, -0.21921681, 0.64796305), (-0.011115529, -0.19316098, 0.5275757), (0.0064617693, -0.13214809, 0.61580634), (-0.09779103, -0.28361362, 0.5507215), (-0.1584186, -0.20725949, 0.59901255), (-0.005833596, -0.25121796, 0.59901255), (-0.066461146, -0.17486383, 0.6473035), (-0.085196145, 0.04773514, 0.4017435), (-0.006210465, 0.034273524, 0.3226205), (0.06783083, 0.0036493763, 0.4017435), (-0.011154842, 0.017110996, 0.48086655), (0.03052853, 0.47844744, 0.5832193), (0.1333902, 0.5188442, 0.5270444), (0.19899388, 0.429914, 0.5832193), (0.096132234, 0.3895173, 0.63939404), (0.048127808, 0.4631397, 0.46764964), (0.08704171, 0.13645056, 0.35709915), (0.07497828, 0.09457692, 0.46291658), (0.019858949, 0.36501515, 0.5528929), (0.08193672, 0.5293544, 0.658867), (0.14336859, 0.5534804, 0.6253179), (0.182549, 0.50036883, 0.658867), (0.12111709, 0.47624275, 0.6924162), (0.19510213, 0.52021563, 0.593933), (0.17005885, 0.43328744, 0.66944975), (0.056823388, 0.4659096, 0.66944975), (0.08186667, 0.55283785, 0.593933), (0.016365997, 0.34232783, 0.37785563), (0.175948, 0.4263158, 0.46764964), (0.14767915, 0.32819122, 0.5528929), (-0.0074966997, 0.25949758, 0.465502), (0.062177557, 0.27165654, 0.50179267), (-0.002858445, 0.35727242, 0.44553027), (0.16279525, 0.309549, 0.44553027), (0.09775928, 0.39516494, 0.38926786), (0.13856648, 0.30712292, 0.37785563), (0.11470378, 0.22429267, 0.465502), (-0.03080878, 0.17040227, 0.35709915), (-0.042872217, 0.12852864, 0.46291658), (0.061124872, 0.26800257, 0.35383034), (0.12864974, 0.20045431, 0.41705775), (-0.031987756, 0.2467326, 0.41705775), (0.0355371, 0.17918433, 0.4802852), (-0.0938769, 0.16985613, 0.7869029), (0.18087634, 0.0999676, 1.3668833), (0.0999676, -0.18087634, 1.3668833), (-0.16985613, -0.0938769, 0.7869029), (-0.055124123, -0.19134244, 1.1547188), (-0.19134244, 0.055124123, 1.1547188), (0.19134244, -0.055124123, 1.1547188), (0.055124123, 0.19134244, 1.1547188), (-0.058730476, 0.12369789, 0.9897891), (0.00037180632, 0.14907241, 0.93037397), (0.064035036, 0.13991062, 0.9897891), (0.0049327556, 0.114536114, 1.0492042), (-0.14441079, 0.42991224, 1.3364719), (-0.091307834, 0.50757, 1.3166572), (-0.010968275, 0.45728138, 1.3328019), (-0.064071216, 0.37962362, 1.3526168), (-0.11585924, 0.44754282, 1.1895651), (0.035811983, 0.24491265, 0.97336143), (0.04203438, 0.1977956, 1.0485933), (-0.09886543, 0.3538492, 1.2268628), (-0.12555262, 0.45843628, 1.4288628), (-0.094398215, 0.5056621, 1.4182106), (-0.045998983, 0.47557312, 1.4263661), (-0.0771534, 0.4283473, 1.4370182), (-0.05017589, 0.51376367, 1.3888571), (-0.030767463, 0.42674866, 1.4100243), (-0.1203022, 0.4074618, 1.4128343), (-0.1397106, 0.49447677, 1.3916671), (-0.07799319, 0.36482343, 1.0130923), (-0.014079265, 0.46533948, 1.1879251), (0.0029145926, 0.37164584, 1.2252227), (-0.06781423, 0.2877465, 1.0687068), (-0.025993511, 0.3120684, 1.1190051), (-0.10062067, 0.35965315, 1.0871634), (0.032020092, 0.3786218, 1.0866168), (-0.04260706, 0.4262066, 1.0547752), (0.020041786, 0.37777022, 1.0130923), (0.030220766, 0.30069327, 1.0687068), (-0.05873326, 0.23242676, 0.97336143), (-0.05251086, 0.1853097, 1.0485933), (-0.023476072, 0.32965273, 0.98679733), (0.046701003, 0.29468596, 1.0290519), (-0.08216997, 0.2776669, 1.0290519), (-0.011992909, 0.24270016, 1.0713065), (-0.061390646, -0.033929676, -0.00084457506), (-0.14368537, -0.07941272, 0.41423202), (-0.033929676, 0.061390646, -0.00084457506), (-0.07941272, 0.14368537, 0.41423202), (0.033929676, -0.061390646, -0.00084457506), (0.07941272, -0.14368537, 0.41423202), (0.061390646, 0.033929676, -0.00084457506), (0.14368537, 0.07941272, 0.41423202), (-0.16478726, -0.09107542, 1.4908451), (-0.09107542, 0.16478726, 1.4908451), (0.16478726, 0.09107542, 1.4908451), (0.09107542, -0.16478726, 1.4908451), (-0.099141315, -0.054793894, 1.6456263), (-0.054793894, 0.099141315, 1.6456263), (0.099141315, 0.054793894, 1.6456263), (0.054793894, -0.099141315, 1.6456263), (-0.09069003, -0.050123002, 0.06662456), (-0.050123002, 0.09069003, 0.06662456), (0.09069003, 0.050123002, 0.06662456), (0.050123002, -0.09069003, 0.06662456), (0.09427567, -0.00003180653, 1.0650098), (0.120276764, -0.0096668545, 0.97042316), (0.06002613, -0.092457406, 1.0650098), (0.086027205, -0.102092445, 0.97042316), (0.38070977, -0.10087143, 1.2556077), (0.46886808, -0.13353972, 1.2014261), (0.4311632, -0.23528983, 1.2014261), (0.3430049, -0.20262153, 1.2556078), (0.42483866, -0.1392426, 1.3091954), (0.479449, -0.15947923, 1.2756324), (0.45609242, -0.22250907, 1.2756324), (0.40148214, -0.20227244, 1.3091954), (0.38933986, -0.105035126, 1.071282), (0.35226429, -0.20508702, 1.0712819), (0.26755047, -0.17369515, 1.1262146), (0.30462608, -0.07364327, 1.1262146), (0.25986817, -0.16912553, 1.0257527), (0.19440477, -0.14486715, 1.0930203), (0.29582107, -0.07210332, 1.0257527), (0.23035769, -0.04784495, 1.0930203), (0.029461248, -0.046814755, 0.5930359), (0.018823856, -0.08373838, 0.48629045), (-0.07955574, -0.01540789, 0.5930359), (-0.090193145, -0.052331515, 0.48629045), (-0.057945028, -0.37088484, 0.83309644), (-0.088888735, -0.47829413, 0.77737504), (-0.20890407, -0.44371873, 0.77737504), (-0.17796037, -0.33630943, 0.8330964), (-0.09715185, -0.42113304, 0.8984622), (-0.11632017, -0.48766854, 0.8639451), (-0.19066456, -0.46625057, 0.8639451), (-0.17149624, -0.39971507, 0.8984622), (-0.06552355, -0.39342597, 0.6219863), (-0.18353587, -0.35942763, 0.6219863), (-0.15374605, -0.2560236, 0.6788256), (-0.035733733, -0.29002193, 0.6788256), (-0.15109417, -0.25353545, 0.5627942), (-0.12759675, -0.17197312, 0.6352308), (-0.03665541, -0.28650427, 0.5627942), (-0.013158005, -0.20494197, 0.6352308), (-0.06792191, 0.035788473, 0.4610858), (-0.064213626, 0.048660368, 0.34240124), (0.04684832, 0.0027241502, 0.4610858), (0.050556604, 0.015596044, 0.34240124), (0.037614964, 0.42388317, 0.62535036), (0.06555845, 0.5208783, 0.5410881), (0.19190747, 0.48447827, 0.5410881), (0.16396397, 0.3874831, 0.62535036), (0.082825884, 0.490442, 0.67792), (0.10013567, 0.5505264, 0.62572306), (0.1784035, 0.52797806, 0.62572306), (0.16109371, 0.46789372, 0.67792), (0.031191416, 0.39762264, 0.40333346), (0.15543169, 0.3618301, 0.40333346), (0.1287454, 0.2691988, 0.48772708), (0.004505135, 0.30499136, 0.48772708), (0.11816546, 0.23954591, 0.3696372), (0.09897463, 0.17293224, 0.46447834), (-0.0023126602, 0.27425465, 0.3696372), (-0.021503486, 0.20764096, 0.46447834), (-0.10216375, 0.18484993, 1.1547188), (0.18484993, 0.10216375, 1.1547188), (0.10216375, -0.18484993, 1.1547188), (-0.18484993, -0.10216375, 1.1547188), (-0.041674428, 0.11277337, 1.0343505), (-0.045095142, 0.1386756, 0.94522774), (0.050399702, 0.12493293, 1.0343505), (0.046978988, 0.15083514, 0.94522774), (-0.11751674, 0.38535348, 1.3494979), (-0.13794416, 0.4813133, 1.3225284), (-0.037862346, 0.5018401, 1.3197759), (-0.017434865, 0.40588033, 1.3467456), (-0.10987215, 0.42860988, 1.4289609), (-0.12328717, 0.4887542, 1.4143302), (-0.061401173, 0.5020852, 1.412388), (-0.04798615, 0.44194084, 1.4270186), (-0.09027064, 0.40482607, 1.063009), (0.009209916, 0.4190525, 1.0625991), (0.021670066, 0.33344892, 1.1107714), (-0.077810496, 0.31922242, 1.1111813), (0.026285935, 0.3251658, 0.99736094), (0.03489831, 0.25995135, 1.060743), (-0.070367314, 0.31240147, 0.99736094), (-0.06175493, 0.24718708, 1.060743)]
            uniform token subdivisionScheme = "none"
            custom string userProperties:blender:data_name = "Cube.029"
        }
    }

    def Scope "_materials"
    {
        def Material "Green"
        {
            token outputs:surface.connect = </root/_materials/Green/Principled_BSDF.outputs:surface>
            custom string userProperties:blender:data_name = "Green"

            def Shader "Principled_BSDF"
            {
                uniform token info:id = "UsdPreviewSurface"
                float inputs:clearcoat = 0
                float inputs:clearcoatRoughness = 0.03
                color3f inputs:diffuseColor = (0.08744194, 0.15232062, 0.059860136)
                float inputs:ior = 1.5
                float inputs:metallic = 0
                float inputs:opacity = 1
                float inputs:roughness = 0.6900348
                float inputs:specular = 0.5
                token outputs:surface
            }
        }
    }
}

