#usda 1.0
(
    defaultPrim = "root"
    doc = "Blender v5.1.2"
    metersPerUnit = 1
    upAxis = "Y"
)

def Xform "root" (
    customData = {
        dictionary Blender = {
            bool generated = 1
        }
    }
)
{
    float3 xformOp:rotateXYZ = (-90, -0, 0)
    uniform token[] xformOpOrder = ["xformOp:rotateXYZ"]

    def Xform "Cactus_5"
    {
        custom string userProperties:blender:object_name = "Cactus_5"

        def Mesh "Cube_034" (
            active = true
            prepend apiSchemas = ["MaterialBindingAPI"]
        )
        {
            uniform bool doubleSided = 1
            float3[] extent = [(-0.044491846, -0.1301764, -0.015303865), (0.06708131, 0.55020267, 0.8659185)]
            int[] faceVertexCounts = [4, 4, 4, 4, 4, 4, 4, 4, 4, 4, 4, 4, 4, 4, 4, 4, 4, 4, 4, 4, 4, 4, 4, 4, 4, 4, 4, 4, 4, 4, 4, 4, 4, 4, 4, 4, 4, 4, 4, 4, 4, 4, 4, 4, 4, 4, 4, 4, 4, 4, 4, 4, 4, 4, 4, 4, 4, 4, 4, 4, 4, 4, 4, 4, 4, 4, 4, 4, 4, 4, 4, 4, 4, 4, 4, 4, 4, 4, 4, 4, 4, 4, 4, 4, 4, 4, 4, 4, 4, 4, 4, 4, 4, 4, 4, 4, 4, 4, 4, 4, 4, 4, 4, 4, 4, 4, 4, 4, 4, 4, 4, 4, 4, 4, 4, 4, 4, 4, 4, 4, 4, 4, 4, 4, 4, 4, 4, 4, 4, 4, 4, 4, 4, 4, 4, 4, 4, 4, 4, 4, 4, 4, 4, 4, 4, 4, 4, 4, 4, 4, 4, 4, 4, 4, 4, 4, 4, 4, 4, 4, 4, 4, 4, 4, 4, 4, 4, 4, 4, 4, 4, 4, 4, 4, 4, 4, 4, 4, 4, 4, 4, 4, 4, 4, 4, 4, 4, 4, 4, 4, 4, 4, 4, 4, 4, 4, 4, 4, 4, 4, 4, 4, 4, 4, 4, 4, 4, 4, 4, 4, 4, 4, 4, 4, 4, 4, 4, 4, 4, 4, 4, 4, 4, 4, 4, 4, 4, 4, 4, 4, 4, 4, 4, 4, 4, 4, 4, 4, 4, 4, 4, 4, 4, 4, 4, 4, 4, 4, 4, 4, 4, 4, 4, 4, 4, 4, 4, 4, 4, 4, 4, 4, 4, 4, 4, 4, 4, 4, 4, 4, 4, 4, 4, 4, 4, 4, 4, 4, 4, 4]
            int[] faceVertexIndices = [0, 101, 227, 85, 0, 85, 219, 79, 0, 79, 211, 71, 0, 71, 222, 101, 1, 79, 219, 84, 1, 84, 220, 80, 1, 80, 213, 72, 1, 72, 211, 79, 2, 100, 226, 83, 2, 83, 221, 81, 2, 81, 212, 73, 2, 73, 223, 100, 3, 81, 221, 82, 3, 82, 218, 70, 3, 70, 210, 74, 3, 74, 212, 81, 4, 78, 225, 99, 4, 99, 224, 92, 4, 92, 216, 77, 4, 77, 215, 78, 5, 98, 222, 71, 5, 71, 211, 72, 5, 72, 213, 91, 5, 91, 223, 98, 6, 209, 285, 201, 6, 201, 214, 93, 6, 93, 225, 96, 6, 96, 286, 209, 7, 200, 284, 208, 7, 208, 285, 89, 7, 89, 218, 82, 7, 82, 221, 200, 8, 203, 287, 207, 8, 207, 284, 200, 8, 200, 221, 83, 8, 83, 226, 203, 9, 198, 282, 206, 9, 206, 283, 199, 9, 199, 220, 84, 9, 84, 219, 198, 10, 199, 283, 205, 10, 205, 287, 203, 10, 203, 226, 94, 10, 94, 220, 199, 11, 74, 210, 90, 11, 90, 222, 98, 11, 98, 223, 73, 11, 73, 212, 74, 12, 93, 214, 75, 12, 75, 217, 76, 12, 76, 224, 99, 12, 99, 225, 93, 13, 80, 220, 94, 13, 94, 226, 100, 13, 100, 223, 91, 13, 91, 213, 80, 14, 70, 218, 95, 14, 95, 227, 101, 14, 101, 222, 90, 14, 90, 210, 70, 15, 202, 286, 204, 15, 204, 282, 198, 15, 198, 219, 85, 15, 85, 227, 202, 16, 133, 245, 117, 16, 117, 237, 111, 16, 111, 229, 103, 16, 103, 240, 133, 17, 111, 237, 116, 17, 116, 238, 112, 17, 112, 231, 104, 17, 104, 229, 111, 18, 132, 244, 115, 18, 115, 239, 113, 18, 113, 230, 105, 18, 105, 241, 132, 19, 113, 239, 114, 19, 114, 236, 102, 19, 102, 228, 106, 19, 106, 230, 113, 20, 110, 243, 131, 20, 131, 242, 124, 20, 124, 234, 109, 20, 109, 233, 110, 21, 130, 240, 103, 21, 103, 229, 104, 21, 104, 231, 123, 21, 123, 241, 130, 22, 127, 236, 121, 22, 121, 232, 125, 22, 125, 243, 128, 22, 128, 245, 127, 23, 120, 235, 107, 23, 107, 232, 121, 23, 121, 236, 114, 23, 114, 239, 120, 24, 129, 242, 108, 24, 108, 235, 120, 24, 120, 239, 115, 24, 115, 244, 129, 25, 118, 233, 109, 25, 109, 234, 119, 25, 119, 238, 116, 25, 116, 237, 118, 26, 119, 234, 124, 26, 124, 242, 129, 26, 129, 244, 126, 26, 126, 238, 119, 27, 106, 228, 122, 27, 122, 240, 130, 27, 130, 241, 105, 27, 105, 230, 106, 28, 125, 232, 107, 28, 107, 235, 108, 28, 108, 242, 131, 28, 131, 243, 125, 29, 112, 238, 126, 29, 126, 244, 132, 29, 132, 241, 123, 29, 123, 231, 112, 30, 102, 236, 127, 30, 127, 245, 133, 30, 133, 240, 122, 30, 122, 228, 102, 31, 128, 243, 110, 31, 110, 233, 118, 31, 118, 237, 117, 31, 117, 245, 128, 32, 149, 263, 165, 32, 165, 258, 135, 32, 135, 247, 143, 32, 143, 255, 149, 33, 148, 255, 143, 33, 143, 247, 136, 33, 136, 249, 144, 33, 144, 256, 148, 34, 147, 262, 164, 34, 164, 259, 137, 34, 137, 248, 145, 34, 145, 257, 147, 35, 146, 257, 145, 35, 145, 248, 138, 35, 138, 246, 134, 35, 134, 254, 146, 36, 163, 261, 142, 36, 142, 251, 141, 36, 141, 252, 156, 36, 156, 260, 163, 37, 135, 258, 162, 37, 162, 259, 155, 37, 155, 249, 136, 37, 136, 247, 135, 38, 153, 254, 159, 38, 159, 263, 160, 38, 160, 261, 157, 38, 157, 250, 153, 39, 139, 253, 152, 39, 152, 257, 146, 39, 146, 254, 153, 39, 153, 250, 139, 40, 140, 260, 161, 40, 161, 262, 147, 40, 147, 257, 152, 40, 152, 253, 140, 41, 141, 251, 150, 41, 150, 255, 148, 41, 148, 256, 151, 41, 151, 252, 141, 42, 156, 252, 151, 42, 151, 256, 158, 42, 158, 262, 161, 42, 161, 260, 156, 43, 154, 246, 138, 43, 138, 248, 137, 43, 137, 259, 162, 43, 162, 258, 154, 44, 139, 250, 157, 44, 157, 261, 163, 44, 163, 260, 140, 44, 140, 253, 139, 45, 158, 256, 144, 45, 144, 249, 155, 45, 155, 259, 164, 45, 164, 262, 158, 46, 159, 254, 134, 46, 134, 246, 154, 46, 154, 258, 165, 46, 165, 263, 159, 47, 142, 261, 160, 47, 160, 263, 149, 47, 149, 255, 150, 47, 150, 251, 142, 48, 197, 281, 181, 48, 181, 273, 175, 48, 175, 265, 167, 48, 167, 276, 197, 49, 175, 273, 180, 49, 180, 274, 176, 49, 176, 267, 168, 49, 168, 265, 175, 50, 196, 280, 179, 50, 179, 275, 177, 50, 177, 266, 169, 50, 169, 277, 196, 51, 177, 275, 178, 51, 178, 272, 166, 51, 166, 264, 170, 51, 170, 266, 177, 52, 174, 279, 195, 52, 195, 278, 188, 52, 188, 270, 173, 52, 173, 269, 174, 53, 194, 276, 167, 53, 167, 265, 168, 53, 168, 267, 187, 53, 187, 277, 194, 54, 191, 272, 185, 54, 185, 268, 189, 54, 189, 279, 192, 54, 192, 281, 191, 55, 184, 271, 171, 55, 171, 268, 185, 55, 185, 272, 178, 55, 178, 275, 184, 56, 193, 278, 172, 56, 172, 271, 184, 56, 184, 275, 179, 56, 179, 280, 193, 57, 182, 269, 173, 57, 173, 270, 183, 57, 183, 274, 180, 57, 180, 273, 182, 58, 183, 270, 188, 58, 188, 278, 193, 58, 193, 280, 190, 58, 190, 274, 183, 59, 170, 264, 186, 59, 186, 276, 194, 59, 194, 277, 169, 59, 169, 266, 170, 60, 189, 268, 171, 60, 171, 271, 172, 60, 172, 278, 195, 60, 195, 279, 189, 61, 176, 274, 190, 61, 190, 280, 196, 61, 196, 277, 187, 61, 187, 267, 176, 62, 166, 272, 191, 62, 191, 281, 197, 62, 197, 276, 186, 62, 186, 264, 166, 63, 192, 279, 174, 63, 174, 269, 182, 63, 182, 273, 181, 63, 181, 281, 192, 64, 96, 225, 78, 64, 78, 215, 86, 64, 86, 282, 204, 64, 204, 286, 96, 65, 87, 216, 92, 65, 92, 224, 97, 65, 97, 287, 205, 65, 205, 283, 87, 66, 86, 215, 77, 66, 77, 216, 87, 66, 87, 283, 206, 66, 206, 282, 86, 67, 97, 224, 76, 67, 76, 217, 88, 67, 88, 284, 207, 67, 207, 287, 97, 68, 88, 217, 75, 68, 75, 214, 201, 68, 201, 285, 208, 68, 208, 284, 88, 69, 95, 218, 89, 69, 89, 285, 209, 69, 209, 286, 202, 69, 202, 227, 95]
            rel material:binding = </root/_materials/Green>
            normal3f[] normals = [(-0.99923456, -0.029239204, 0.025991773), (-0.99923456, -0.029239204, 0.025991773), (-0.99923456, -0.029239204, 0.025991773), (-0.99923456, -0.029239204, 0.025991773), (-0.9814759, -0.18825027, 0.035593197), (-0.9814759, -0.18825027, 0.035593197), (-0.9814759, -0.18825027, 0.035593197), (-0.9814759, -0.18825027, 0.035593197), (-0.96525913, -0.19941407, 0.16884583), (-0.96525913, -0.19941407, 0.16884583), (-0.96525913, -0.19941407, 0.16884583), (-0.96525913, -0.19941407, 0.16884583), (-0.9899723, -0.012685388, 0.14069073), (-0.9899723, -0.012685388, 0.14069073), (-0.9899723, -0.012685388, 0.14069073), (-0.9899723, -0.012685388, 0.14069073), (-0.6098549, -0.78328633, 0.12058013), (-0.6098549, -0.78328633, 0.12058013), (-0.6098549, -0.78328633, 0.12058013), (-0.6098549, -0.78328633, 0.12058013), (0.56940424, -0.8119842, 0.1282978), (0.56940424, -0.8119842, 0.1282978), (0.56940424, -0.8119842, 0.1282978), (0.56940424, -0.8119842, 0.1282978), (0.5989808, -0.72657686, 0.3366128), (0.5989808, -0.72657686, 0.3366128), (0.5989808, -0.72657686, 0.3366128), (0.5989808, -0.72657686, 0.3366128), (-0.6255368, -0.70914054, 0.32530504), (-0.6255368, -0.70914054, 0.32530504), (-0.6255368, -0.70914054, 0.32530504), (-0.6255368, -0.70914054, 0.32530504), (0.98920906, 0.12841073, 0.070541665), (0.98920906, 0.12841073, 0.070541665), (0.98920906, 0.12841073, 0.070541665), (0.98920906, 0.12841073, 0.070541665), (0.90068907, 0.4344543, -0.0029423141), (0.90068907, 0.4344543, -0.0029423141), (0.90068907, 0.4344543, -0.0029423141), (0.90068907, 0.4344543, -0.0029423141), (0.90947765, 0.36974657, 0.19009984), (0.90947765, 0.36974657, 0.19009984), (0.90947765, 0.36974657, 0.19009984), (0.90947765, 0.36974657, 0.19009984), (0.970495, 0.06354934, 0.23259585), (0.970495, 0.06354934, 0.23259585), (0.970495, 0.06354934, 0.23259585), (0.970495, 0.06354934, 0.23259585), (0.4351021, 0.8960891, -0.08780925), (0.4351021, 0.8960891, -0.08780925), (0.4351021, 0.8960891, -0.08780925), (0.4351021, 0.8960891, -0.08780925), (-0.4727572, 0.8767568, -0.08830685), (-0.4727572, 0.8767568, -0.08830685), (-0.4727572, 0.8767568, -0.08830685), (-0.4727572, 0.8767568, -0.08830685), (-0.5490772, 0.8184104, 0.1694655), (-0.5490772, 0.8184104, 0.1694655), (-0.5490772, 0.8184104, 0.1694655), (-0.5490772, 0.8184104, 0.1694655), (0.5229346, 0.8341198, 0.1754525), (0.5229346, 0.8341198, 0.1754525), (0.5229346, 0.8341198, 0.1754525), (0.5229346, 0.8341198, 0.1754525), (-0.30376652, -0.0023363102, -0.95274353), (-0.30376652, -0.0023363102, -0.95274353), (-0.30363858, -0.0022579727, -0.9527846), (-0.30044964, -0.0003040122, -0.95379764), (0.2963927, -0.0034631337, -0.9550599), (0.2928807, 0.0009457378, -0.95614856), (0.29625532, -0.0032904178, -0.95510304), (0.2963927, -0.0034631337, -0.9550599), (0.34243926, -0.28091577, -0.896561), (0.34243926, -0.28091577, -0.896561), (0.34243926, -0.28091577, -0.896561), (0.34243926, -0.28091577, -0.896561), (-0.34792173, -0.2792369, -0.89497334), (-0.34792173, -0.2792369, -0.89497334), (-0.34792173, -0.2792369, -0.89497334), (-0.34792173, -0.2792369, -0.89497334), (-0.72491115, 0.0006142525, 0.6888422), (-0.72734624, 0.0022119698, 0.6862671), (-0.72729707, 0.0021796292, 0.6863193), (-0.72491115, 0.0006142525, 0.6888422), (-0.7132578, -0.33802304, 0.61400634), (-0.7132578, -0.33802304, 0.61400634), (-0.7132578, -0.33802304, 0.61400634), (-0.7132578, -0.33802304, 0.61400634), (0.68739194, -0.3542684, 0.6340237), (0.68739194, -0.3542684, 0.6340237), (0.68739194, -0.3542684, 0.6340237), (0.68739194, -0.3542684, 0.6340237), (0.68850225, -0.004995246, 0.7252169), (0.68850225, -0.004995246, 0.7252169), (0.68850225, -0.004995246, 0.7252169), (0.68850225, -0.004995246, 0.7252169), (-0.9219428, 0.32471812, -0.21113908), (-0.9219428, 0.32471812, -0.21113908), (-0.9219428, 0.32471812, -0.21113908), (-0.9219428, 0.32471812, -0.21113908), (-0.738631, 0.33987784, -0.58215743), (-0.738631, 0.33987784, -0.58215743), (-0.738631, 0.33987784, -0.58215743), (-0.738631, 0.33987784, -0.58215743), (-0.9324356, 0.0063484553, -0.36128044), (-0.9324356, 0.0063484553, -0.36128044), (-0.9324356, 0.0063484553, -0.36128044), (-0.9324356, 0.0063484553, -0.36128044), (-0.9989231, 0.0183707, -0.042604152), (-0.9989231, 0.0183707, -0.042604152), (-0.9984947, 0.030947417, -0.045284525), (-0.9988758, 0.020040935, -0.04296056), (0.33227292, 0.84091824, -0.42714295), (0.33227292, 0.84091824, -0.42714295), (0.33227292, 0.84091824, -0.42714295), (0.33227292, 0.84091824, -0.42714295), (-0.3565008, 0.8341275, -0.42087817), (-0.3565008, 0.8341275, -0.42087817), (-0.3565008, 0.8341275, -0.42087817), (-0.3565008, 0.8341275, -0.42087817), (-0.4246109, 0.8595724, -0.28432518), (-0.4246109, 0.8595724, -0.28432518), (-0.4246109, 0.8595724, -0.28432518), (-0.4246109, 0.8595724, -0.28432518), (0.38589057, 0.875484, -0.29088873), (0.38589057, 0.875484, -0.29088873), (0.38589057, 0.875484, -0.29088873), (0.38589057, 0.875484, -0.29088873), (0.98092145, 0.11200024, -0.15889978), (0.98092145, 0.11200024, -0.15889978), (0.98092145, 0.11200024, -0.15889978), (0.98092145, 0.11200024, -0.15889978), (0.8593297, 0.44474065, -0.25250378), (0.8593297, 0.44474065, -0.25250378), (0.8593297, 0.44474065, -0.25250378), (0.8593297, 0.44474065, -0.25250378), (0.8629013, 0.47837985, -0.16295436), (0.8629013, 0.47837985, -0.16295436), (0.8629013, 0.47837985, -0.16295436), (0.8629013, 0.47837985, -0.16295436), (0.9857383, 0.1464057, -0.08297846), (0.9857383, 0.1464057, -0.08297846), (0.9857383, 0.1464057, -0.08297846), (0.9857383, 0.1464057, -0.08297846), (-0.5555393, -0.831442, -0.008963754), (-0.5555393, -0.831442, -0.008963754), (-0.5555393, -0.831442, -0.008963754), (-0.5555393, -0.831442, -0.008963754), (0.52541316, -0.8507407, -0.013463722), (0.52541316, -0.8507407, -0.013463722), (0.52541316, -0.8507407, -0.013463722), (0.52541316, -0.8507407, -0.013463722), (0.5601859, -0.82701916, 0.047234755), (0.5601859, -0.82701916, 0.047234755), (0.5601859, -0.82701916, 0.047234755), (0.5601859, -0.82701916, 0.047234755), (-0.60401046, -0.7955762, 0.047222137), (-0.60401046, -0.7955762, 0.047222137), (-0.60401046, -0.7955762, 0.047222137), (-0.60401046, -0.7955762, 0.047222137), (0.9484027, -0.31525096, -0.03389863), (0.9484027, -0.31525096, -0.03389863), (0.9484027, -0.31525096, -0.03389863), (0.9484027, -0.31525096, -0.03389863), (0.9903614, -0.09598329, -0.09985817), (0.9903614, -0.09598329, -0.09985817), (0.9903614, -0.09598329, -0.09985817), (0.9903614, -0.09598329, -0.09985817), (0.992131, -0.12188708, -0.028627483), (0.992131, -0.12188708, -0.028627483), (0.992131, -0.12188708, -0.028627483), (0.992131, -0.12188708, -0.028627483), (0.9404531, -0.33976316, 0.010440061), (0.9404531, -0.33976316, 0.010440061), (0.9404531, -0.33976316, 0.010440061), (0.9404531, -0.33976316, 0.010440061), (-0.7165521, 0.4301479, 0.54911387), (-0.7165521, 0.4301479, 0.54911387), (-0.7165521, 0.4301479, 0.54911387), (-0.7165521, 0.4301479, 0.54911387), (-0.72971535, 0.003773273, 0.6837407), (-0.72971535, 0.003773273, 0.6837407), (-0.72729707, 0.0021796292, 0.6863193), (-0.72734624, 0.0022119698, 0.6862671), (0.6937582, 0.010185952, 0.720136), (0.6937582, 0.010185952, 0.720136), (0.6937582, 0.010185952, 0.720136), (0.6937582, 0.010185952, 0.720136), (0.69032896, 0.45049512, 0.5661273), (0.69032896, 0.45049512, 0.5661273), (0.69032896, 0.45049512, 0.5661273), (0.69032896, 0.45049512, 0.5661273), (-0.2528248, 0.3145848, -0.9149405), (-0.2528248, 0.3145848, -0.9149405), (-0.2528248, 0.3145848, -0.9149405), (-0.2528248, 0.3145848, -0.9149405), (0.24833028, 0.3158536, -0.9157339), (0.24833028, 0.3158536, -0.9157339), (0.24833028, 0.3158536, -0.9157339), (0.24833028, 0.3158536, -0.9157339), (0.2927065, 0.0011641226, -0.95620155), (0.2927065, 0.0011641226, -0.95620155), (0.29625532, -0.0032904178, -0.95510304), (0.2928807, 0.0009457378, -0.95614856), (-0.30031794, -0.00022338406, -0.9538391), (-0.30044964, -0.0003040122, -0.95379764), (-0.30363858, -0.0022579727, -0.9527846), (-0.30031794, -0.00022338406, -0.9538391), (0.94591784, -0.31446227, 0.07970578), (0.94591784, -0.31446227, 0.07970578), (0.94591784, -0.31446227, 0.07970578), (0.94591784, -0.31446227, 0.07970578), (0.99046546, -0.10296226, 0.09152677), (0.99046546, -0.10296226, 0.09152677), (0.99046546, -0.10296226, 0.09152677), (0.99046546, -0.10296226, 0.09152677), (0.96962196, -0.04933487, 0.2395818), (0.96962196, -0.04933487, 0.2395818), (0.96962196, -0.04933487, 0.2395818), (0.96962196, -0.04933487, 0.2395818), (0.9311715, -0.2782404, 0.23558895), (0.9311715, -0.2782404, 0.23558895), (0.9311715, -0.2782404, 0.23558895), (0.9311715, -0.2782404, 0.23558895), (-0.963519, 0.2673057, -0.013374682), (-0.963519, 0.2673057, -0.013374682), (-0.963519, 0.2673057, -0.013374682), (-0.963519, 0.2673057, -0.013374682), (-0.9991321, 0.036508624, 0.020055808), (-0.9991321, 0.036508624, 0.020055808), (-0.9991321, 0.036508624, 0.020055808), (-0.9991321, 0.036508624, 0.020055808), (-0.99028814, 0.018811323, 0.13775201), (-0.99028814, 0.018811323, 0.13775201), (-0.99028814, 0.018811323, 0.13775201), (-0.99028814, 0.018811323, 0.13775201), (-0.9535095, 0.2680145, 0.13779579), (-0.9535095, 0.2680145, 0.13779579), (-0.9535095, 0.2680145, 0.13779579), (-0.9535095, 0.2680145, 0.13779579), (-0.99922603, -0.027259998, -0.028360441), (-0.99922603, -0.027259998, -0.028360441), (-0.99940604, -0.016594794, -0.030200483), (-0.9992338, -0.026907502, -0.028421585), (-0.9788814, -0.20442083, -0.0018127143), (-0.9788814, -0.20442083, -0.0018127143), (-0.9788814, -0.20442083, -0.0018127143), (-0.9788814, -0.20442083, -0.0018127143), (-0.9801869, -0.19766992, 0.012661586), (-0.9801869, -0.19766992, 0.012661586), (-0.9801869, -0.19766992, 0.012661586), (-0.9801869, -0.19766992, 0.012661586), (-0.9993697, -0.03456014, -0.008117117), (-0.9993697, -0.03456014, -0.008117117), (-0.9993697, -0.03456014, -0.008117117), (-0.9993697, -0.03456014, -0.008117117), (-0.99871707, -0.016647236, 0.047822673), (-0.99871707, -0.016647236, 0.047822673), (-0.99871707, -0.016647236, 0.047822673), (-0.99871707, -0.016647236, 0.047822673), (-0.96226174, -0.20109236, 0.18334122), (-0.96226174, -0.20109236, 0.18334122), (-0.96226174, -0.20109236, 0.18334122), (-0.96226174, -0.20109236, 0.18334122), (-0.9397271, -0.13532333, 0.31400722), (-0.9397271, -0.13532333, 0.31400722), (-0.9397271, -0.13532333, 0.31400722), (-0.9397271, -0.13532333, 0.31400722), (-0.98580146, 0.07280317, 0.15131159), (-0.98580146, 0.07280317, 0.15131159), (-0.98580146, 0.07280317, 0.15131159), (-0.98580146, 0.07280317, 0.15131159), (-0.46874607, -0.6904982, 0.5508988), (-0.46874607, -0.6904982, 0.5508988), (-0.46874607, -0.6904982, 0.5508988), (-0.46874607, -0.6904982, 0.5508988), (0.43184292, -0.7031848, 0.56483877), (0.43184292, -0.7031848, 0.56483877), (0.43184292, -0.7031848, 0.56483877), (0.43184292, -0.7031848, 0.56483877), (0.49794564, -0.54421747, 0.67518693), (0.49794564, -0.54421747, 0.67518693), (0.49794564, -0.54421747, 0.67518693), (0.49794564, -0.54421747, 0.67518693), (-0.5242143, -0.53685224, 0.66105145), (-0.5242143, -0.53685224, 0.66105145), (-0.5242143, -0.53685224, 0.66105145), (-0.5242143, -0.53685224, 0.66105145), (0.9783992, 0.18871865, -0.08438131), (0.9783992, 0.18871865, -0.08438131), (0.9783992, 0.18871865, -0.08438131), (0.9783992, 0.18871865, -0.08438131), (0.83454883, 0.36494908, -0.41272318), (0.83454883, 0.36494908, -0.41272318), (0.83454883, 0.36494908, -0.41272318), (0.83454883, 0.36494908, -0.41272318), (0.8635037, 0.46254286, -0.2010358), (0.8635037, 0.46254286, -0.2010358), (0.8635037, 0.46254286, -0.2010358), (0.8635037, 0.46254286, -0.2010358), (0.960197, 0.25271022, 0.118993744), (0.960197, 0.25271022, 0.118993744), (0.960197, 0.25271022, 0.118993744), (0.960197, 0.25271022, 0.118993744), (0.34074974, 0.5389625, -0.7703304), (0.34074974, 0.5389625, -0.7703304), (0.34074974, 0.5389625, -0.7703304), (0.34074974, 0.5389625, -0.7703304), (-0.372775, 0.53050494, -0.76131684), (-0.372775, 0.53050494, -0.76131684), (-0.372775, 0.53050494, -0.76131684), (-0.372775, 0.53050494, -0.76131684), (-0.4933615, 0.67810106, -0.5447691), (-0.4933615, 0.67810106, -0.5447691), (-0.4933615, 0.67810106, -0.5447691), (-0.4933615, 0.67810106, -0.5447691), (0.46793434, 0.69045657, -0.55164033), (0.46793434, 0.69045657, -0.55164033), (0.46793434, 0.69045657, -0.55164033), (0.46793434, 0.69045657, -0.55164033), (-0.6298613, -0.74460465, -0.22099487), (-0.6298613, -0.74460465, -0.22099487), (-0.6298613, -0.74460465, -0.22099487), (-0.6298613, -0.74460465, -0.22099487), (0.58929104, -0.777221, -0.22059798), (0.58929104, -0.777221, -0.22059798), (0.58929104, -0.777221, -0.22059798), (0.58929104, -0.777221, -0.22059798), (0.47271153, -0.86195076, 0.18326159), (0.47271153, -0.86195076, 0.18326159), (0.47271153, -0.86195076, 0.18326159), (0.47271153, -0.86195076, 0.18326159), (-0.5002772, -0.84789705, 0.17548056), (-0.5002772, -0.84789705, 0.17548056), (-0.5002772, -0.84789705, 0.17548056), (-0.5002772, -0.84789705, 0.17548056), (-0.66097957, 0.35855913, 0.6591974), (-0.66097957, 0.35855913, 0.6591974), (-0.66097957, 0.35855913, 0.6591974), (-0.66097957, 0.35855913, 0.6591974), (-0.6093506, -0.05743773, 0.79081774), (-0.6093506, -0.05743773, 0.79081774), (-0.6093506, -0.05743773, 0.79081774), (-0.6093506, -0.05743773, 0.79081774), (0.5814827, -0.063426726, 0.8110826), (0.5814827, -0.063426726, 0.8110826), (0.5814827, -0.063426726, 0.8110826), (0.5814827, -0.063426726, 0.8110826), (0.6218652, 0.36906055, 0.6907084), (0.6218652, 0.36906055, 0.6907084), (0.6218652, 0.36906055, 0.6907084), (0.6218652, 0.36906055, 0.6907084), (-0.89939004, 0.18671793, -0.39526445), (-0.89939004, 0.18671793, -0.39526445), (-0.89939004, 0.18671793, -0.39526445), (-0.89939004, 0.18671793, -0.39526445), (-0.8134292, 0.070810884, -0.57733756), (-0.8134292, 0.070810884, -0.57733756), (-0.8134292, 0.070810884, -0.57733756), (-0.8134292, 0.070810884, -0.57733756), (-0.98498833, -0.12669636, -0.11724434), (-0.98498833, -0.12669636, -0.11724434), (-0.98498833, -0.12669636, -0.11724434), (-0.98498833, -0.12669636, -0.11724434), (-0.99788815, 0.012215992, -0.063796416), (-0.99788815, 0.012215992, -0.063796416), (-0.99788815, 0.012215992, -0.063796416), (-0.99788815, 0.012215992, -0.063796416), (0.22734472, 0.20142315, -0.9527555), (0.22734472, 0.20142315, -0.9527555), (0.22734472, 0.20142315, -0.9527555), (0.22734472, 0.20142315, -0.9527555), (-0.24249743, 0.20213619, -0.94886035), (-0.24249743, 0.20213619, -0.94886035), (-0.24249743, 0.20213619, -0.94886035), (-0.24249743, 0.20213619, -0.94886035), (-0.2934473, 0.374647, -0.8795046), (-0.2934473, 0.374647, -0.8795046), (-0.2934473, 0.374647, -0.8795046), (-0.2934473, 0.374647, -0.8795046), (0.26702604, 0.37618494, -0.8872328), (0.26702604, 0.37618494, -0.8872328), (0.26702604, 0.37618494, -0.8872328), (0.26702604, 0.37618494, -0.8872328), (0.9491664, -0.17898348, -0.25893635), (0.9491664, -0.17898348, -0.25893635), (0.9491664, -0.17898348, -0.25893635), (0.9491664, -0.17898348, -0.25893635), (0.6950982, 0.08751956, -0.71356773), (0.6950982, 0.08751956, -0.71356773), (0.6950982, 0.08751956, -0.71356773), (0.6950982, 0.08751956, -0.71356773), (0.7669148, 0.25865284, -0.5873162), (0.7669148, 0.25865284, -0.5873162), (0.7669148, 0.25865284, -0.5873162), (0.7669148, 0.25865284, -0.5873162), (0.9742893, 0.042371683, -0.2212803), (0.9742893, 0.042371683, -0.2212803), (0.9742893, 0.042371683, -0.2212803), (0.9742893, 0.042371683, -0.2212803), (-0.4011891, -0.73483926, 0.5468624), (-0.4011891, -0.73483926, 0.5468624), (-0.4011891, -0.73483926, 0.5468624), (-0.4011891, -0.73483926, 0.5468624), (0.3782897, -0.74433076, 0.550335), (0.3782897, -0.74433076, 0.550335), (0.3782897, -0.74433076, 0.550335), (0.3782897, -0.74433076, 0.550335), (0.38754687, -0.6682361, 0.63503385), (0.38754687, -0.6682361, 0.63503385), (0.38754687, -0.6682361, 0.63503385), (0.38754687, -0.6682361, 0.63503385), (-0.4222524, -0.6550938, 0.6265422), (-0.4222524, -0.6550938, 0.6265422), (-0.4222524, -0.6550938, 0.6265422), (-0.4222524, -0.6550938, 0.6265422), (0.8375651, -0.4912592, 0.23905839), (0.8375651, -0.4912592, 0.23905839), (0.8375651, -0.4912592, 0.23905839), (0.8375651, -0.4912592, 0.23905839), (0.9487238, -0.31270272, -0.046261862), (0.9487238, -0.31270272, -0.046261862), (0.9487238, -0.31270272, -0.046261862), (0.9487238, -0.31270272, -0.046261862), (0.98130447, -0.17387225, 0.08252199), (0.98130447, -0.17387225, 0.08252199), (0.98130447, -0.17387225, 0.08252199), (0.98130447, -0.17387225, 0.08252199), (0.87564653, -0.3583802, 0.32373875), (0.87564653, -0.3583802, 0.32373875), (0.87564653, -0.3583802, 0.32373875), (0.87564653, -0.3583802, 0.32373875), (-0.6721998, 0.74036705, 0.0019544887), (-0.6721998, 0.74036705, 0.0019544887), (-0.6721998, 0.74036705, 0.0019544887), (-0.6721998, 0.74036705, 0.0019544887), (-0.6918778, 0.5168355, 0.5041688), (-0.6918778, 0.5168355, 0.5041688), (-0.6918778, 0.5168355, 0.5041688), (-0.6918778, 0.5168355, 0.5041688), (0.65392697, 0.5458764, 0.5238307), (0.65392697, 0.5458764, 0.5238307), (0.65392697, 0.5458764, 0.5238307), (0.65392697, 0.5458764, 0.5238307), (0.6446301, 0.76448894, -0.0029730704), (0.6446301, 0.76448894, -0.0029730704), (0.6446301, 0.76448894, -0.0029730704), (0.6446301, 0.76448894, -0.0029730704), (-0.3778506, -0.04425775, -0.92480814), (-0.3778506, -0.04425775, -0.92480814), (-0.3778506, -0.04425775, -0.92480814), (-0.3778506, -0.04425775, -0.92480814), (0.35282746, -0.040220235, -0.9348235), (0.35282746, -0.040220235, -0.9348235), (0.35282746, -0.040220235, -0.9348235), (0.35282746, -0.040220235, -0.9348235), (0.61990666, -0.6456234, -0.4459664), (0.61990666, -0.6456234, -0.4459664), (0.61990666, -0.6456234, -0.4459664), (0.61990666, -0.6456234, -0.4459664), (-0.65961176, -0.6266497, -0.4149971), (-0.65961176, -0.6266497, -0.4149971), (-0.65961176, -0.6266497, -0.4149971), (-0.65961176, -0.6266497, -0.4149971), (0.8969845, -0.31170818, 0.3134591), (0.8969845, -0.31170818, 0.3134591), (0.8969845, -0.31170818, 0.3134591), (0.8969845, -0.31170818, 0.3134591), (0.9841623, -0.058278292, 0.1674166), (0.9841623, -0.058278292, 0.1674166), (0.9841623, -0.058278292, 0.1674166), (0.9841623, -0.058278292, 0.1674166), (0.9569071, 0.09413046, 0.27471486), (0.9569071, 0.09413046, 0.27471486), (0.9569071, 0.09413046, 0.27471486), (0.9569071, 0.09413046, 0.27471486), (0.884935, -0.18431515, 0.42768896), (0.884935, -0.18431515, 0.42768896), (0.884935, -0.18431515, 0.42768896), (0.884935, -0.18431515, 0.42768896), (-0.93517995, 0.226537, -0.272249), (-0.93517995, 0.226537, -0.272249), (-0.93517995, 0.226537, -0.272249), (-0.93517995, 0.226537, -0.272249), (-0.99823606, 0.054198954, -0.024233874), (-0.99823606, 0.054198954, -0.024233874), (-0.99823606, 0.054198954, -0.024233874), (-0.99823606, 0.054198954, -0.024233874), (-0.98729885, 0.13377565, 0.0857034), (-0.98729885, 0.13377565, 0.0857034), (-0.98729885, 0.13377565, 0.0857034), (-0.98729885, 0.13377565, 0.0857034), (-0.9272518, 0.34340513, -0.14925478), (-0.9272518, 0.34340513, -0.14925478), (-0.9272518, 0.34340513, -0.14925478), (-0.9272518, 0.34340513, -0.14925478), (-0.983776, -0.17092624, -0.0544891), (-0.983776, -0.17092624, -0.0544891), (-0.983776, -0.17092624, -0.0544891), (-0.983776, -0.17092624, -0.0544891), (-0.9115847, -0.36966664, 0.17988865), (-0.9115847, -0.36966664, 0.17988865), (-0.9115847, -0.36966664, 0.17988865), (-0.9115847, -0.36966664, 0.17988865), (-0.9526641, -0.21580069, 0.2141527), (-0.9526641, -0.21580069, 0.2141527), (-0.9526641, -0.21580069, 0.2141527), (-0.9526641, -0.21580069, 0.2141527), (-0.9984795, -0.049799547, 0.023635525), (-0.9984795, -0.049799547, 0.023635525), (-0.9984795, -0.049799547, 0.023635525), (-0.9984795, -0.049799547, 0.023635525), (-0.9989197, 0.0314405, 0.0342209), (-0.9989197, 0.0314405, 0.0342209), (-0.9989197, 0.0314405, 0.0342209), (-0.9989197, 0.0314405, 0.0342209), (-0.9834456, 0.0262642, 0.17929016), (-0.9834456, 0.0262642, 0.17929016), (-0.9834456, 0.0262642, 0.17929016), (-0.9834456, 0.0262642, 0.17929016), (-0.924308, 0.26351097, 0.27607363), (-0.924308, 0.26351097, 0.27607363), (-0.924308, 0.26351097, 0.27607363), (-0.924308, 0.26351097, 0.27607363), (-0.9690559, 0.2320535, 0.084153384), (-0.9690559, 0.2320535, 0.084153384), (-0.9690559, 0.2320535, 0.084153384), (-0.9690559, 0.2320535, 0.084153384), (-0.508244, 0.8197911, 0.26387587), (-0.508244, 0.8197911, 0.26387587), (-0.508244, 0.8197911, 0.26387587), (-0.508244, 0.8197911, 0.26387587), (-0.46992356, 0.71363634, 0.51951414), (-0.46992356, 0.71363634, 0.51951414), (-0.46992356, 0.71363634, 0.51951414), (-0.46992356, 0.71363634, 0.51951414), (0.4443929, 0.7226735, 0.5293941), (0.4443929, 0.7226735, 0.5293941), (0.4443929, 0.7226735, 0.5293941), (0.4443929, 0.7226735, 0.5293941), (0.4697356, 0.83932143, 0.2736568), (0.4697356, 0.83932143, 0.2736568), (0.4697356, 0.83932143, 0.2736568), (0.4697356, 0.83932143, 0.2736568), (0.9917159, -0.114781424, 0.057661958), (0.9917159, -0.114781424, 0.057661958), (0.9917159, -0.114781424, 0.057661958), (0.9917159, -0.114781424, 0.057661958), (0.959647, -0.08928897, 0.26665565), (0.959647, -0.08928897, 0.26665565), (0.959647, -0.08928897, 0.26665565), (0.959647, -0.08928897, 0.26665565), (0.91059387, -0.35063916, 0.21879464), (0.91059387, -0.35063916, 0.21879464), (0.91059387, -0.35063916, 0.21879464), (0.91059387, -0.35063916, 0.21879464), (0.9391714, -0.34153268, -0.036229935), (0.9391714, -0.34153268, -0.036229935), (0.9391714, -0.34153268, -0.036229935), (0.9391714, -0.34153268, -0.036229935), (0.5326974, -0.82819885, -0.17412677), (0.5326974, -0.82819885, -0.17412677), (0.5326974, -0.82819885, -0.17412677), (0.5326974, -0.82819885, -0.17412677), (0.54447335, -0.80055267, 0.25032803), (0.54447335, -0.80055267, 0.25032803), (0.54447335, -0.80055267, 0.25032803), (0.54447335, -0.80055267, 0.25032803), (-0.571322, -0.7842783, 0.24186514), (-0.571322, -0.7842783, 0.24186514), (-0.571322, -0.7842783, 0.24186514), (-0.571322, -0.7842783, 0.24186514), (-0.57183725, -0.80212057, -0.17206006), (-0.57183725, -0.80212057, -0.17206006), (-0.57183725, -0.80212057, -0.17206006), (-0.57183725, -0.80212057, -0.17206006), (-0.6297753, 0.400385, -0.66563874), (-0.6297753, 0.400385, -0.66563874), (-0.6297753, 0.400385, -0.66563874), (-0.6297753, 0.400385, -0.66563874), (-0.39320225, 0.8423857, -0.36848122), (-0.39320225, 0.8423857, -0.36848122), (-0.39320225, 0.8423857, -0.36848122), (-0.39320225, 0.8423857, -0.36848122), (0.36880806, 0.8530162, -0.36924785), (0.36880806, 0.8530162, -0.36924785), (0.36880806, 0.8530162, -0.36924785), (0.36880806, 0.8530162, -0.36924785), (0.5894647, 0.4251897, -0.6868369), (0.5894647, 0.4251897, -0.6868369), (0.5894647, 0.4251897, -0.6868369), (0.5894647, 0.4251897, -0.6868369), (-0.6307282, 0.09925688, 0.76962984), (-0.6307282, 0.09925688, 0.76962984), (-0.6307282, 0.09925688, 0.76962984), (-0.6307282, 0.09925688, 0.76962984), (0.5904592, 0.108574905, 0.79973084), (0.5904592, 0.108574905, 0.79973084), (0.5904592, 0.108574905, 0.79973084), (0.5904592, 0.108574905, 0.79973084), (0.49256814, 0.46171552, 0.737696), (0.49256814, 0.46171552, 0.737696), (0.49256814, 0.46171552, 0.737696), (0.49256814, 0.46171552, 0.737696), (-0.52000123, 0.4503341, 0.7258084), (-0.52000123, 0.4503341, 0.7258084), (-0.52000123, 0.4503341, 0.7258084), (-0.52000123, 0.4503341, 0.7258084), (-0.9596609, -0.22213902, -0.17235231), (-0.9596609, -0.22213902, -0.17235231), (-0.9596609, -0.22213902, -0.17235231), (-0.9596609, -0.22213902, -0.17235231), (-0.99853784, -0.032603342, -0.04311955), (-0.99853784, -0.032603342, -0.04311955), (-0.99853784, -0.032603342, -0.04311955), (-0.99853784, -0.032603342, -0.04311955), (-0.97714454, -0.033475734, -0.20992337), (-0.97714454, -0.033475734, -0.20992337), (-0.97714454, -0.033475734, -0.20992337), (-0.97714454, -0.033475734, -0.20992337), (-0.8335582, -0.30668685, -0.45948237), (-0.8335582, -0.30668685, -0.45948237), (-0.8335582, -0.30668685, -0.45948237), (-0.8335582, -0.30668685, -0.45948237), (0.25014502, -0.5720597, -0.7811371), (0.25014502, -0.5720597, -0.7811371), (0.25014502, -0.5720597, -0.7811371), (0.25014502, -0.5720597, -0.7811371), (0.40135795, -0.6937548, -0.5980101), (0.40135795, -0.6937548, -0.5980101), (0.40135795, -0.6937548, -0.5980101), (0.40135795, -0.6937548, -0.5980101), (-0.43754032, -0.6825408, -0.585403), (-0.43754032, -0.6825408, -0.585403), (-0.43754032, -0.6825408, -0.585403), (-0.43754032, -0.6825408, -0.585403), (-0.26710793, -0.57030976, -0.77678823), (-0.26710793, -0.57030976, -0.77678823), (-0.26710793, -0.57030976, -0.77678823), (-0.26710793, -0.57030976, -0.77678823), (0.92467284, -0.094401546, -0.3688747), (0.92467284, -0.094401546, -0.3688747), (0.92467284, -0.094401546, -0.3688747), (0.92467284, -0.094401546, -0.3688747), (0.98200333, -0.11390711, -0.15064795), (0.98200333, -0.11390711, -0.15064795), (0.98200333, -0.11390711, -0.15064795), (0.98200333, -0.11390711, -0.15064795), (0.88618636, -0.35462075, -0.2981912), (0.88618636, -0.35462075, -0.2981912), (0.88618636, -0.35462075, -0.2981912), (0.88618636, -0.35462075, -0.2981912), (0.7219053, -0.3841647, -0.5755608), (0.7219053, -0.3841647, -0.5755608), (0.7219053, -0.3841647, -0.5755608), (0.7219053, -0.3841647, -0.5755608), (-0.33748212, 0.9219158, -0.19020264), (-0.33748212, 0.9219158, -0.19020264), (-0.33748212, 0.9219158, -0.19020264), (-0.33748212, 0.9219158, -0.19020264), (-0.46195573, 0.88651687, 0.026168829), (-0.46195573, 0.88651687, 0.026168829), (-0.46195573, 0.88651687, 0.026168829), (-0.46195573, 0.88651687, 0.026168829), (0.42517865, 0.90480345, 0.023534248), (0.42517865, 0.90480345, 0.023534248), (0.42517865, 0.90480345, 0.023534248), (0.42517865, 0.90480345, 0.023534248), (0.31705096, 0.9284003, -0.1937828), (0.31705096, 0.9284003, -0.1937828), (0.31705096, 0.9284003, -0.1937828), (0.31705096, 0.9284003, -0.1937828), (0.80675566, 0.5660938, -0.16936105), (0.80675566, 0.5660938, -0.16936105), (0.80675566, 0.5660938, -0.16936105), (0.80675566, 0.5660938, -0.16936105), (0.8975995, 0.44036895, 0.01975194), (0.8975995, 0.44036895, 0.01975194), (0.8975995, 0.44036895, 0.01975194), (0.8975995, 0.44036895, 0.01975194), (0.9886763, 0.14256513, -0.046842), (0.9886763, 0.14256513, -0.046842), (0.9886763, 0.14256513, -0.046842), (0.9886763, 0.14256513, -0.046842), (0.9513165, 0.18184632, -0.24885502), (0.9513165, 0.18184632, -0.24885502), (0.9513165, 0.18184632, -0.24885502), (0.9513165, 0.18184632, -0.24885502), (-0.6343334, -0.4952853, 0.5935602), (-0.6343334, -0.4952853, 0.5935602), (-0.6343334, -0.4952853, 0.5935602), (-0.6343334, -0.4952853, 0.5935602), (0.606773, -0.5126906, 0.60743284), (0.606773, -0.5126906, 0.60743284), (0.606773, -0.5126906, 0.60743284), (0.606773, -0.5126906, 0.60743284), (0.6265608, -0.11630234, 0.7706461), (0.6265608, -0.11630234, 0.7706461), (0.6265608, -0.11630234, 0.7706461), (0.6265608, -0.11630234, 0.7706461), (-0.66513944, -0.106046215, 0.73915076), (-0.66513944, -0.106046215, 0.73915076), (-0.66513944, -0.106046215, 0.73915076), (-0.66513944, -0.106046215, 0.73915076), (-0.31004068, -0.4758972, -0.8230411), (-0.31004068, -0.4758972, -0.8230411), (-0.31004068, -0.4758972, -0.8230411), (-0.31004068, -0.4758972, -0.8230411), (-0.56486595, -0.12861656, -0.8150977), (-0.56486595, -0.12861656, -0.8150977), (-0.56486595, -0.12861656, -0.8150977), (-0.56486595, -0.12861656, -0.8150977), (0.522545, -0.14032263, -0.84098536), (0.522545, -0.14032263, -0.84098536), (0.522545, -0.14032263, -0.84098536), (0.522545, -0.14032263, -0.84098536), (0.2895818, -0.48078912, -0.82763773), (0.2895818, -0.48078912, -0.82763773), (0.2895818, -0.48078912, -0.82763773), (0.2895818, -0.48078912, -0.82763773), (0.9126177, 0.37624794, 0.15989496), (0.9126177, 0.37624794, 0.15989496), (0.9126177, 0.37624794, 0.15989496), (0.9126177, 0.37624794, 0.15989496), (0.8585494, 0.35401845, 0.37089616), (0.8585494, 0.35401845, 0.37089616), (0.8585494, 0.35401845, 0.37089616), (0.8585494, 0.35401845, 0.37089616), (0.94890755, 0.07455896, 0.30661952), (0.94890755, 0.07455896, 0.30661952), (0.94890755, 0.07455896, 0.30661952), (0.94890755, 0.07455896, 0.30661952), (0.9866165, 0.110318325, 0.12007415), (0.9866165, 0.110318325, 0.12007415), (0.9866165, 0.110318325, 0.12007415), (0.9866165, 0.110318325, 0.12007415), (-0.97816586, -0.20485993, -0.03498579), (-0.97816586, -0.20485993, -0.03498579), (-0.97816586, -0.20485993, -0.03498579), (-0.97816586, -0.20485993, -0.03498579), (-0.95412385, -0.25401664, 0.15850356), (-0.95412385, -0.25401664, 0.15850356), (-0.95412385, -0.25401664, 0.15850356), (-0.95412385, -0.25401664, 0.15850356), (-0.9862685, -0.035684243, 0.161248), (-0.9862685, -0.035684243, 0.161248), (-0.9862685, -0.035684243, 0.161248), (-0.9862685, -0.035684243, 0.161248), (-0.999336, -0.032557838, 0.016355855), (-0.999336, -0.032557838, 0.016355855), (-0.999336, -0.032557838, 0.016355855), (-0.999336, -0.032557838, 0.016355855), (-0.9839318, 0.08290815, -0.15812823), (-0.9839318, 0.08290815, -0.15812823), (-0.9839318, 0.08290815, -0.15812823), (-0.9839318, 0.08290815, -0.15812823), (-0.9990885, 0.04055307, -0.0133243175), (-0.9990885, 0.04055307, -0.0133243175), (-0.9990885, 0.04055307, -0.0133243175), (-0.9990885, 0.04055307, -0.0133243175), (-0.96248436, 0.2700592, 0.026302945), (-0.96248436, 0.2700592, 0.026302945), (-0.96248436, 0.2700592, 0.026302945), (-0.96248436, 0.2700592, 0.026302945), (-0.8921365, 0.4328115, -0.12948631), (-0.8921365, 0.4328115, -0.12948631), (-0.8921365, 0.4328115, -0.12948631), (-0.8921365, 0.4328115, -0.12948631), (-0.99874365, -0.049309243, 0.008931758), (-0.99874365, -0.049309243, 0.008931758), (-0.99874365, -0.049309243, 0.008931758), (-0.99874365, -0.049309243, 0.008931758), (-0.9553702, -0.28301662, -0.08467311), (-0.9553702, -0.28301662, -0.08467311), (-0.9553702, -0.28301662, -0.08467311), (-0.9553702, -0.28301662, -0.08467311), (-0.8979411, -0.43530402, 0.064900614), (-0.8979411, -0.43530402, 0.064900614), (-0.8979411, -0.43530402, 0.064900614), (-0.8979411, -0.43530402, 0.064900614), (-0.9822354, -0.132921, 0.13245963), (-0.9822354, -0.132921, 0.13245963), (-0.9822354, -0.132921, 0.13245963), (-0.9822354, -0.132921, 0.13245963), (-0.44070324, -0.84541637, -0.3017481), (-0.44070324, -0.84541637, -0.3017481), (-0.44070324, -0.84541637, -0.3017481), (-0.44070324, -0.84541637, -0.3017481), (0.40473706, -0.86218005, -0.30468577), (0.40473706, -0.86218005, -0.30468577), (0.40473706, -0.86218005, -0.30468577), (0.40473706, -0.86218005, -0.30468577), (0.39873266, -0.916816, -0.021465007), (0.39873266, -0.916816, -0.021465007), (0.39873266, -0.916816, -0.021465007), (0.39873266, -0.916816, -0.021465007), (-0.4228196, -0.9059071, -0.023574797), (-0.4228196, -0.9059071, -0.023574797), (-0.4228196, -0.9059071, -0.023574797), (-0.4228196, -0.9059071, -0.023574797), (0.99052083, 0.07850401, 0.11271914), (0.99052083, 0.07850401, 0.11271914), (0.99052083, 0.07850401, 0.11271914), (0.99052083, 0.07850401, 0.11271914), (0.9418653, 0.29805228, 0.1550955), (0.9418653, 0.29805228, 0.1550955), (0.9418653, 0.29805228, 0.1550955), (0.9418653, 0.29805228, 0.1550955), (0.9187046, 0.21947415, 0.32834873), (0.9187046, 0.21947415, 0.32834873), (0.9187046, 0.21947415, 0.32834873), (0.9187046, 0.21947415, 0.32834873), (0.96582466, -0.045782767, 0.25512078), (0.96582466, -0.045782767, 0.25512078), (0.96582466, -0.045782767, 0.25512078), (0.96582466, -0.045782767, 0.25512078), (0.5512878, 0.770298, 0.32050383), (0.5512878, 0.770298, 0.32050383), (0.5512878, 0.770298, 0.32050383), (0.5512878, 0.770298, 0.32050383), (-0.5909258, 0.7459216, 0.30725807), (-0.5909258, 0.7459216, 0.30725807), (-0.5909258, 0.7459216, 0.30725807), (-0.5909258, 0.7459216, 0.30725807), (-0.59108275, 0.59588903, 0.5436336), (-0.59108275, 0.59588903, 0.5436336), (-0.59108275, 0.59588903, 0.5436336), (-0.59108275, 0.59588903, 0.5436336), (0.56437916, 0.60806584, 0.5583297), (0.56437916, 0.60806584, 0.5583297), (0.56437916, 0.60806584, 0.5583297), (0.56437916, 0.60806584, 0.5583297), (-0.61125124, 0.07754701, -0.7876284), (-0.61125124, 0.07754701, -0.7876284), (-0.61125124, 0.07754701, -0.7876284), (-0.61125124, 0.07754701, -0.7876284), (0.570064, 0.070401, -0.8185784), (0.570064, 0.070401, -0.8185784), (0.570064, 0.070401, -0.8185784), (0.570064, 0.070401, -0.8185784), (0.33274165, -0.45792955, -0.8243685), (0.33274165, -0.45792955, -0.8243685), (0.33274165, -0.45792955, -0.8243685), (0.33274165, -0.45792955, -0.8243685), (-0.35561654, -0.4510544, -0.81858826), (-0.35561654, -0.4510544, -0.81858826), (-0.35561654, -0.4510544, -0.81858826), (-0.35561654, -0.4510544, -0.81858826), (-0.6145634, -0.55785334, 0.5577735), (-0.6145634, -0.55785334, 0.5577735), (-0.6145634, -0.55785334, 0.5577735), (-0.6145634, -0.55785334, 0.5577735), (-0.48219982, -0.82311004, 0.29995546), (-0.48219982, -0.82311004, 0.29995546), (-0.48219982, -0.82311004, 0.29995546), (-0.48219982, -0.82311004, 0.29995546), (0.455459, -0.8375237, 0.3018463), (0.455459, -0.8375237, 0.3018463), (0.455459, -0.8375237, 0.3018463), (0.455459, -0.8375237, 0.3018463), (0.573827, -0.582887, 0.57529587), (0.573827, -0.582887, 0.57529587), (0.573827, -0.582887, 0.57529587), (0.573827, -0.582887, 0.57529587), (-0.97367996, 0.22791895, -0.0005316554), (-0.97367996, 0.22791895, -0.0005316554), (-0.97367996, 0.22791895, -0.0005316554), (-0.97367996, 0.22791895, -0.0005316554), (-0.8831935, 0.41936103, -0.21001345), (-0.8831935, 0.41936103, -0.21001345), (-0.8831935, 0.41936103, -0.21001345), (-0.8831935, 0.41936103, -0.21001345), (-0.979495, 0.12076017, -0.1612655), (-0.979495, 0.12076017, -0.1612655), (-0.979495, 0.12076017, -0.1612655), (-0.979495, 0.12076017, -0.1612655), (-0.99899393, 0.042205647, -0.015162297), (-0.99899393, 0.042205647, -0.015162297), (-0.99899393, 0.042205647, -0.015162297), (-0.99899393, 0.042205647, -0.015162297), (0.2814324, 0.8704685, -0.40383214), (0.2814324, 0.8704685, -0.40383214), (0.2814324, 0.8704685, -0.40383214), (0.2814324, 0.8704685, -0.40383214), (-0.30030763, 0.8659998, -0.3998246), (-0.30030763, 0.8659998, -0.3998246), (-0.30030763, 0.8659998, -0.3998246), (-0.30030763, 0.8659998, -0.3998246), (-0.5240934, 0.84856164, -0.07259017), (-0.5240934, 0.84856164, -0.07259017), (-0.5240934, 0.84856164, -0.07259017), (-0.5240934, 0.84856164, -0.07259017), (0.4849395, 0.87107235, -0.07788854), (0.4849395, 0.87107235, -0.07788854), (0.4849395, 0.87107235, -0.07788854), (0.4849395, 0.87107235, -0.07788854), (0.93574005, 0.24081437, -0.25768027), (0.93574005, 0.24081437, -0.25768027), (0.93574005, 0.24081437, -0.25768027), (0.93574005, 0.24081437, -0.25768027), (0.7930665, 0.5446539, -0.27275953), (0.7930665, 0.5446539, -0.27275953), (0.7930665, 0.5446539, -0.27275953), (0.7930665, 0.5446539, -0.27275953), (0.92432547, 0.3808929, -0.02330432), (0.92432547, 0.3808929, -0.02330432), (0.92432547, 0.3808929, -0.02330432), (0.92432547, 0.3808929, -0.02330432), (0.9875205, 0.14821598, -0.053246263), (0.9875205, 0.14821598, -0.053246263), (0.9875205, 0.14821598, -0.053246263), (0.9875205, 0.14821598, -0.053246263), (-0.29232326, -0.6172575, -0.7304384), (-0.29232326, -0.6172575, -0.7304384), (-0.29232326, -0.6172575, -0.7304384), (-0.29232326, -0.6172575, -0.7304384), (0.27417383, -0.61927074, -0.735753), (0.27417383, -0.61927074, -0.735753), (0.27417383, -0.61927074, -0.735753), (0.27417383, -0.61927074, -0.735753), (0.36148208, -0.7476929, -0.5570333), (0.36148208, -0.7476929, -0.5570333), (0.36148208, -0.7476929, -0.5570333), (0.36148208, -0.7476929, -0.5570333), (-0.39485142, -0.73834, -0.54675996), (-0.39485142, -0.73834, -0.54675996), (-0.39485142, -0.73834, -0.54675996), (-0.39485142, -0.73834, -0.54675996), (0.7560287, -0.38000205, -0.53293437), (0.7560287, -0.38000205, -0.53293437), (0.7560287, -0.38000205, -0.53293437), (0.7560287, -0.38000205, -0.53293437), (0.943003, -0.0118660685, -0.33257288), (0.943003, -0.0118660685, -0.33257288), (0.943003, -0.0118660685, -0.33257288), (0.943003, -0.0118660685, -0.33257288), (0.98479587, -0.101974815, -0.14063494), (0.98479587, -0.101974815, -0.14063494), (0.98479587, -0.101974815, -0.14063494), (0.98479587, -0.101974815, -0.14063494), (0.8589427, -0.41430098, -0.3009521), (0.8589427, -0.41430098, -0.3009521), (0.8589427, -0.41430098, -0.3009521), (0.8589427, -0.41430098, -0.3009521), (-0.70176977, 0.16050759, 0.69408685), (-0.70176977, 0.16050759, 0.69408685), (-0.70176977, 0.16050759, 0.69408685), (-0.70176977, 0.16050759, 0.69408685), (-0.6965671, -0.33607247, 0.6339161), (-0.6965671, -0.33607247, 0.6339161), (-0.6965671, -0.33607247, 0.6339161), (-0.6965671, -0.33607247, 0.6339161), (0.65934724, -0.3468532, 0.66704875), (0.65934724, -0.3468532, 0.66704875), (0.65934724, -0.3468532, 0.66704875), (0.65934724, -0.3468532, 0.66704875), (0.6752611, 0.17074145, 0.71754426), (0.6752611, 0.17074145, 0.71754426), (0.6752611, 0.17074145, 0.71754426), (0.6752611, 0.17074145, 0.71754426), (-0.31453344, 0.83113825, -0.4585608), (-0.31453344, 0.83113825, -0.4585608), (-0.31453344, 0.83113825, -0.4585608), (-0.31453344, 0.83113825, -0.4585608), (0.29412258, 0.837966, -0.459679), (0.29412258, 0.837966, -0.459679), (0.29412258, 0.837966, -0.459679), (0.29412258, 0.837966, -0.459679), (0.51660216, 0.60228455, -0.60858476), (0.51660216, 0.60228455, -0.60858476), (0.51660216, 0.60228455, -0.60858476), (0.51660216, 0.60228455, -0.60858476), (-0.5579745, 0.5784932, -0.5949875), (-0.5579745, 0.5784932, -0.5949875), (-0.5579745, 0.5784932, -0.5949875), (-0.5579745, 0.5784932, -0.5949875), (0.87823063, -0.46381065, -0.11657884), (0.87823063, -0.46381065, -0.11657884), (0.87823063, -0.46381065, -0.11657884), (0.87823063, -0.46381065, -0.11657884), (0.98448265, -0.1726723, 0.031277616), (0.98448265, -0.1726723, 0.031277616), (0.98448265, -0.1726723, 0.031277616), (0.98448265, -0.1726723, 0.031277616), (0.9441657, -0.2540389, 0.20979816), (0.9441657, -0.2540389, 0.20979816), (0.9441657, -0.2540389, 0.20979816), (0.9441657, -0.2540389, 0.20979816), (0.81579864, -0.5720135, 0.08528237), (0.81579864, -0.5720135, 0.08528237), (0.81579864, -0.5720135, 0.08528237), (0.81579864, -0.5720135, 0.08528237), (-0.97978944, 0.18235694, 0.08221081), (-0.97978944, 0.18235694, 0.08221081), (-0.97978944, 0.18235694, 0.08221081), (-0.97978944, 0.18235694, 0.08221081), (-0.99923897, 0.022292485, 0.032008357), (-0.99923897, 0.022292485, 0.032008357), (-0.99923897, 0.022292485, 0.032008357), (-0.99923897, 0.022292485, 0.032008357), (-0.98851466, -0.04368478, 0.14467318), (-0.98851466, -0.04368478, 0.14467318), (-0.98851466, -0.04368478, 0.14467318), (-0.98851466, -0.04368478, 0.14467318), (-0.95855546, 0.15832461, 0.23686416), (-0.95855546, 0.15832461, 0.23686416), (-0.95855546, 0.15832461, 0.23686416), (-0.95855546, 0.15832461, 0.23686416), (-0.98207283, 0.020043071, -0.18743342), (-0.98207283, 0.020043071, -0.18743342), (-0.98207283, 0.020043071, -0.18743342), (-0.98207283, 0.020043071, -0.18743342), (-0.85803217, -0.29817584, -0.41817704), (-0.85803217, -0.29817584, -0.41817704), (-0.85803217, -0.29817584, -0.41817704), (-0.85803217, -0.29817584, -0.41817704), (-0.9458442, -0.27054545, -0.17939883), (-0.9458442, -0.27054545, -0.17939883), (-0.9458442, -0.27054545, -0.17939883), (-0.9458442, -0.27054545, -0.17939883), (-0.9987696, -0.029112015, -0.040148765), (-0.9987696, -0.029112015, -0.040148765), (-0.9987696, -0.029112015, -0.040148765), (-0.9987696, -0.029112015, -0.040148765), (-0.935871, -0.009173045, -0.3522234), (-0.935871, -0.009173045, -0.3522234), (-0.935871, -0.009173045, -0.3522234), (-0.935871, -0.009173045, -0.3522234), (-0.88925993, -0.26433313, -0.37328917), (-0.88925993, -0.26433313, -0.37328917), (-0.88925993, -0.26433313, -0.37328917), (-0.88925993, -0.26433313, -0.37328917), (-0.9756736, -0.21898554, -0.010317671), (-0.9756736, -0.21898554, -0.010317671), (-0.9756736, -0.21898554, -0.010317671), (-0.9756736, -0.21898554, -0.010317671), (-0.99941707, -0.015587009, -0.030374156), (-0.9992338, -0.026907502, -0.028421585), (-0.99940604, -0.016594794, -0.030200483), (-0.99941707, -0.015587009, -0.030374156), (0.8650199, -0.28995448, -0.40947136), (0.8650199, -0.28995448, -0.40947136), (0.8650199, -0.28995448, -0.40947136), (0.8650199, -0.28995448, -0.40947136), (0.90869576, -0.024747908, -0.41672495), (0.90869576, -0.024747908, -0.41672495), (0.90869576, -0.024747908, -0.41672495), (0.90869576, -0.024747908, -0.41672495), (0.9927169, -0.055002112, -0.10718236), (0.9927169, -0.055002112, -0.10718236), (0.9927169, -0.055002112, -0.10718236), (0.9927169, -0.055002112, -0.10718236), (0.957971, -0.2826188, -0.049175736), (0.957971, -0.2826188, -0.049175736), (0.957971, -0.2826188, -0.049175736), (0.957971, -0.2826188, -0.049175736), (-0.41274887, -0.74972224, -0.5172572), (-0.41274887, -0.74972224, -0.5172572), (-0.41274887, -0.74972224, -0.5172572), (-0.41274887, -0.74972224, -0.5172572), (0.4063431, -0.7512405, -0.52011824), (0.4063431, -0.7512405, -0.52011824), (0.4063431, -0.7512405, -0.52011824), (0.4063431, -0.7512405, -0.52011824), (0.4690253, -0.8788084, -0.087812565), (0.4690253, -0.8788084, -0.087812565), (0.4690253, -0.8788084, -0.087812565), (0.4690253, -0.8788084, -0.087812565), (-0.48319182, -0.8715502, -0.08322139), (-0.48319182, -0.8715502, -0.08322139), (-0.48319182, -0.8715502, -0.08322139), (-0.48319182, -0.8715502, -0.08322139), (0.89872706, 0.024620255, -0.43781683), (0.89872706, 0.024620255, -0.43781683), (0.89872706, 0.024620255, -0.43781683), (0.89872706, 0.024620255, -0.43781683), (0.6968724, 0.3616008, -0.6193655), (0.6968724, 0.3616008, -0.6193655), (0.6968724, 0.3616008, -0.6193655), (0.6968724, 0.3616008, -0.6193655), (0.86781055, 0.40053576, -0.29406804), (0.86781055, 0.40053576, -0.29406804), (0.86781055, 0.40053576, -0.29406804), (0.86781055, 0.40053576, -0.29406804), (0.986659, 0.06446134, -0.14949518), (0.986659, 0.06446134, -0.14949518), (0.986659, 0.06446134, -0.14949518), (0.986659, 0.06446134, -0.14949518), (0.21240611, 0.6148089, -0.759535), (0.21240611, 0.6148089, -0.759535), (0.21240611, 0.6148089, -0.759535), (0.21240611, 0.6148089, -0.759535), (-0.2161736, 0.61477435, -0.75849956), (-0.2161736, 0.61477435, -0.75849956), (-0.2161736, 0.61477435, -0.75849956), (-0.2161736, 0.61477435, -0.75849956), (-0.28019258, 0.79216594, -0.5421857), (-0.28019258, 0.79216594, -0.5421857), (-0.28019258, 0.79216594, -0.5421857), (-0.28019258, 0.79216594, -0.5421857), (0.2701913, 0.7934325, -0.5454004), (0.2701913, 0.7934325, -0.5454004), (0.2701913, 0.7934325, -0.5454004), (0.2701913, 0.7934325, -0.5454004), (-0.9509282, 0.29481184, -0.09392363), (-0.9509282, 0.29481184, -0.09392363), (-0.9509282, 0.29481184, -0.09392363), (-0.9509282, 0.29481184, -0.09392363), (-0.93927866, 0.3066757, -0.15396641), (-0.93927866, 0.3066757, -0.15396641), (-0.93927866, 0.3066757, -0.15396641), (-0.93927866, 0.3066757, -0.15396641), (-0.99844754, 0.032090034, -0.04552752), (-0.9988758, 0.020040935, -0.04296056), (-0.9984947, 0.030947417, -0.045284525), (-0.99844754, 0.032090034, -0.04552752), (-0.99884725, 0.041759606, -0.0236681), (-0.99884725, 0.041759606, -0.0236681), (-0.99884725, 0.041759606, -0.0236681), (-0.99884725, 0.041759606, -0.0236681)] (
                interpolation = "faceVarying"
            )
            point3f[] points = [(-0.039418936, 0.022145197, 0.38072), (3.6312157e-17, -0.061612576, 0.38403934), (0.04905954, 0.16737363, 0.37740064), (3.6312157e-17, 0.22884429, 0.37740064), (1.8626451e-9, -0.025447175, -0.015303865), (3.6312157e-17, 0.03400004, 0.49696186), (-0.03658034, 0.06627738, 0.018623665), (9.313226e-10, 0.18060115, 0.1551953), (0.052392744, 0.1287777, 0.1551953), (9.313226e-10, -0.0848358, 0.16348322), (0.052392744, -0.003940776, 0.15933925), (3.6312157e-17, 0.16737363, 0.49696186), (1.8626451e-9, 0.042372987, -0.015303865), (0.04905954, 0.022145197, 0.38072), (-0.039418936, 0.16737363, 0.37740064), (-0.040357187, -0.003940776, 0.15933925), (-0.039418936, 0.38883793, 0.65176576), (-5.5879354e-9, 0.33391178, 0.6807992), (0.049059533, 0.4667387, 0.5765372), (-5.5879354e-9, 0.4897133, 0.53034204), (-5.5879354e-9, 0.18890998, 0.47172552), (-5.5879354e-9, 0.44518012, 0.72875094), (-0.039418936, 0.29930902, 0.4585663), (-5.5879354e-9, 0.31000224, 0.43252414), (0.049059533, 0.29930902, 0.4585663), (-5.5879354e-9, 0.23278987, 0.56189764), (0.049059533, 0.26070285, 0.5232531), (-5.5879354e-9, 0.5443904, 0.65614307), (-5.5879354e-9, 0.20953108, 0.4202013), (0.049059533, 0.3888379, 0.65176576), (-0.039418936, 0.4667387, 0.5765372), (-0.039418936, 0.26070285, 0.5232531), (-0.01472189, -0.002491951, 0.6302976), (0.008112229, 0.037526526, 0.62810016), (0.03653084, -0.08634342, 0.62590265), (0.008112229, -0.1301764, 0.6193102), (0.008112229, 0.033513, 0.47911346), (0.008112229, -0.019506887, 0.6825382), (-0.01472189, -0.041934013, 0.5211687), (0.008112229, -0.08013877, 0.525289), (0.03653084, -0.041934013, 0.52116877), (0.008112229, 0.051765226, 0.540122), (0.03653084, 0.024017986, 0.52858526), (0.008112229, -0.09072283, 0.6825382), (0.008112229, -0.0019040257, 0.47307038), (0.03653084, -0.002491951, 0.6302976), (-0.014721889, -0.08634342, 0.62590265), (-0.01472189, 0.02401799, 0.52858526), (-0.0044440725, 0.34260446, 0.79858404), (0.011488197, 0.32498252, 0.7810152), (0.031316984, 0.39183787, 0.82395077), (0.011488197, 0.42344934, 0.8317487), (0.011488197, 0.3909849, 0.70065385), (0.011488197, 0.33309472, 0.83542615), (-0.004444072, 0.41221553, 0.747236), (0.011488197, 0.43613943, 0.758526), (0.03131699, 0.41221553, 0.747236), (0.011488197, 0.35480753, 0.7264497), (0.03131699, 0.37154958, 0.7311979), (0.011488197, 0.372329, 0.8659185), (0.011488197, 0.41308433, 0.71248895), (0.031316984, 0.34260446, 0.79858404), (-0.0044440725, 0.3918379, 0.82395077), (-0.004444072, 0.37154958, 0.7311979), (-0.03658034, -0.02180954, 0.019448265), (0.038975287, -0.02180954, 0.019448265), (1.8626451e-9, -0.07568833, 0.020272866), (0.038975287, 0.06627738, 0.018623665), (1.8626451e-9, 0.1004855, 0.01862365), (-0.040357187, 0.1287777, 0.1551953), (-0.027675776, 0.21347663, 0.37740064), (-0.027675776, 0.031036329, 0.4679014), (3.6312157e-17, -0.02585458, 0.46873122), (0.030085927, 0.16737363, 0.46707156), (3.6312157e-17, 0.21347663, 0.46707156), (1.8626451e-9, 0.070021115, -0.00682199), (0.027564865, 0.048349082, -0.00682199), (1.8626451e-9, -0.05879754, -0.00640969), (-0.026966125, -0.024537764, -0.0066158324), (-0.027675776, -0.040673137, 0.3832095), (0.030085927, -0.040673137, 0.3832095), (0.030085927, 0.21347663, 0.37740064), (2.3283067e-10, 0.2167835, 0.2620687), (0.05660157, 0.15772465, 0.2620687), (2.3283067e-10, -0.079273224, 0.27243906), (-0.041541923, 0.009696275, 0.26725388), (-0.026966125, -0.062218636, 0.020066708), (0.027564865, -0.062218636, 0.020066708), (0.027564865, 0.091933474, 0.01862365), (-0.027910337, 0.16764529, 0.1551953), (-0.027675776, 0.16737363, 0.46707153), (0.030085927, 0.031036329, 0.46790138), (0.027564865, -0.024537764, -0.0066158324), (-0.026966125, 0.048349082, -0.006821975), (0.05660157, 0.009696275, 0.26725388), (-0.041541923, 0.15772465, 0.2620687), (-0.037049465, 0.027151585, 0.018829823), (0.04064189, 0.02715158, 0.018829808), (3.6312157e-17, 0.1032949, 0.49696186), (1.8626451e-9, 0.012297943, -0.015303865), (0.055768266, 0.10033119, 0.37823048), (-0.04130736, 0.10033119, 0.37823045), (-0.02767578, 0.48396966, 0.54189086), (-0.02767578, 0.4310946, 0.70950466), (-5.5879354e-9, 0.38723946, 0.72764444), (0.03008592, 0.52497745, 0.6362416), (-5.5879354e-9, 0.55020267, 0.5992703), (-5.5879354e-9, 0.241849, 0.4180125), (0.03008592, 0.23197557, 0.42979255), (-5.5879354e-9, 0.19676955, 0.5147612), (-0.02767578, 0.2068582, 0.4846074), (-0.02767578, 0.34764332, 0.67354083), (0.03008592, 0.34764332, 0.67354083), (0.03008592, 0.48396966, 0.54189086), (-5.5879354e-9, 0.39796543, 0.46840954), (0.055768266, 0.3860554, 0.50724155), (-5.5879354e-9, 0.2831207, 0.61621654), (-0.04130736, 0.32863304, 0.581145), (-0.02767578, 0.23976812, 0.5522365), (0.03008592, 0.23976812, 0.5522365), (0.03008592, 0.30732894, 0.4390347), (-0.02767578, 0.30732894, 0.4390347), (-0.02767578, 0.52497745, 0.6362416), (0.03008592, 0.43109456, 0.70950466), (0.03008592, 0.2068582, 0.4846074), (-0.02767578, 0.23197557, 0.42979255), (0.055768266, 0.32863304, 0.58114505), (-0.04130736, 0.3860554, 0.50724155), (-0.04130736, 0.28431088, 0.48775908), (0.055768266, 0.28431088, 0.48775908), (-5.5879354e-9, 0.5001063, 0.6997175), (-5.5879354e-9, 0.19717567, 0.43835184), (0.055768266, 0.43577617, 0.61844194), (-0.04130736, 0.43577617, 0.61844194), (-0.007919455, -0.11921814, 0.6209583), (-0.007919456, -0.015253156, 0.66947806), (0.008112229, 0.01255545, 0.6637097), (0.025540037, -0.08962798, 0.66837937), (0.008112229, -0.1183902, 0.6615122), (0.008112229, -0.033638477, 0.49161875), (0.025540037, -0.011911526, 0.48509496), (0.008112229, 0.0436088, 0.5028808), (-0.007919456, 0.031139247, 0.49148142), (-0.007919456, 0.0275219, 0.6286495), (0.025540039, 0.027521905, 0.6286495), (0.025540037, -0.11921814, 0.6209583), (0.008112229, -0.119589806, 0.56940997), (0.04041699, -0.07305136, 0.5714014), (0.008112229, 0.05179892, 0.58410555), (-0.015815794, 0.0126429945, 0.5787492), (-0.007919456, 0.044828415, 0.5372378), (0.025540039, 0.044828415, 0.5372378), (0.025540039, -0.070587575, 0.524259), (-0.007919456, -0.070587575, 0.524259), (-0.007919455, -0.08962798, 0.6683793), (0.025540039, -0.015253156, 0.66947806), (0.025540039, 0.031139247, 0.49148142), (-0.007919456, -0.011911526, 0.48509496), (0.04041699, 0.0126429945, 0.5787492), (-0.015815794, -0.07305136, 0.5714014), (-0.015815794, -0.006343633, 0.5209627), (0.04041699, -0.006343633, 0.5209627), (0.008112229, -0.055114865, 0.68775725), (0.008112229, 0.019125998, 0.46908745), (0.04041699, -0.043464065, 0.63029766), (-0.015815794, -0.043464065, 0.6302976), (0.00030225562, 0.41554648, 0.82979923), (0.00030225562, 0.33547214, 0.8262156), (0.011488197, 0.3234927, 0.8113251), (0.02364827, 0.3772062, 0.85542655), (0.011488197, 0.3971523, 0.86212385), (0.011488197, 0.42320377, 0.7322381), (0.02364827, 0.41286713, 0.72117573), (0.011488197, 0.3752465, 0.7094251), (0.00030225574, 0.38612607, 0.70828986), (0.00030225562, 0.329388, 0.7854074), (0.02364827, 0.329388, 0.7854074), (0.02364827, 0.41554648, 0.82979923), (0.011488197, 0.44013882, 0.7916103), (0.034028508, 0.40668672, 0.7837882), (0.011488197, 0.33595663, 0.75066674), (-0.005207333, 0.35459563, 0.76331645), (0.00030225574, 0.35899302, 0.72763675), (0.02364827, 0.35899302, 0.72763675), (0.02364827, 0.43015844, 0.7557035), (0.00030225562, 0.43015847, 0.7557035), (0.00030225562, 0.3772062, 0.8554266), (0.02364827, 0.33547217, 0.8262156), (0.02364827, 0.38612607, 0.70828986), (0.00030225562, 0.41286713, 0.72117573), (0.034028508, 0.3545956, 0.76331645), (-0.005207333, 0.40668672, 0.7837882), (-0.005207333, 0.3900871, 0.7375815), (0.034028508, 0.3900871, 0.7375815), (0.011488197, 0.35047722, 0.85354763), (0.011488197, 0.40320382, 0.7012903), (0.034028504, 0.3637238, 0.8137101), (-0.005207333, 0.3637238, 0.8137101), (-0.027910337, -0.064612046, 0.16244723), (0.030919228, -0.064612046, 0.16244723), (0.030919228, 0.16764529, 0.1551953), (-0.026966125, 0.091933474, 0.018623665), (-0.04271474, 0.06968635, 0.15623128), (0.060768075, 0.06968635, 0.15623128), (-0.037993677, -0.015523531, 0.07179707), (0.043996256, -0.015523531, 0.07179707), (1.6298145e-9, -0.0823057, 0.07386382), (0.043996256, 0.09385465, 0.06973033), (1.6298145e-9, 0.13645068, 0.06973033), (-0.037993677, 0.09385465, 0.069730334), (-0.020220809, 0.201524, 0.44382358), (-0.020220809, -0.015166476, 0.4464053), (0.021291986, 0.201524, 0.44382358), (0.021291986, -0.015166476, 0.4464053), (-0.019905407, 0.07023098, -0.00022497773), (-0.019905407, -0.051030084, 0.00041639805), (0.020171516, -0.051030084, 0.00041638315), (0.020171516, 0.07023098, -0.00022497773), (-0.028206524, 0.20201878, 0.2620687), (-0.028206524, -0.057030857, 0.27114275), (0.031971432, -0.057030857, 0.27114275), (0.031971432, 0.20201878, 0.2620687), (-0.028147882, 0.10255398, 0.46727902), (0.031763107, 0.10255398, 0.46727902), (0.027981514, 0.016011357, -0.006770432), (-0.027083406, 0.016011357, -0.006770432), (0.06708131, 0.091188125, 0.26336497), (-0.044491846, 0.091188125, 0.26336497), (-0.020220812, 0.5261952, 0.5940654), (-0.020220812, 0.38844216, 0.7090493), (0.021291979, 0.5261952, 0.5940654), (0.021291982, 0.38844216, 0.70904934), (-0.020220812, 0.25619686, 0.42622972), (-0.020220812, 0.2101312, 0.516616), (0.021291982, 0.2101312, 0.516616), (0.021291979, 0.25619686, 0.42622972), (-0.028147884, 0.39498794, 0.47811753), (-0.028147884, 0.2944988, 0.6074486), (0.031763103, 0.2944988, 0.6074486), (0.031763103, 0.39498794, 0.47811753), (-0.028147884, 0.48402375, 0.67939866), (0.031763103, 0.48402375, 0.67939866), (0.031763103, 0.21895947, 0.45070365), (-0.028147884, 0.21895947, 0.45070365), (0.065831356, 0.3657448, 0.5451334), (-0.04414, 0.3657448, 0.5451334), (-0.0036010328, -0.11130032, 0.6528498), (-0.003601033, 0.009307675, 0.6562681), (0.020445991, -0.11130032, 0.6528498), (0.020445991, 0.0093076825, 0.6562681), (-0.003601033, -0.037841514, 0.49826247), (-0.003601033, 0.04100107, 0.50873107), (0.020445991, 0.04100107, 0.50873107), (0.020445991, -0.037841514, 0.49826252), (-0.008192931, -0.10795519, 0.5699078), (-0.008192931, 0.042009942, 0.5827665), (0.026511576, 0.04200994, 0.5827665), (0.026511576, -0.10795519, 0.5699078), (-0.008192931, -0.052202165, 0.67339236), (0.026511576, -0.052202165, 0.67339236), (0.026511576, 0.012758598, 0.48205626), (-0.008192931, 0.012758598, 0.48205626), (0.046246216, -0.028358549, 0.5742341), (-0.017456649, -0.028358549, 0.57423407), (0.0033153906, 0.39688933, 0.8519757), (0.0033153906, 0.3280811, 0.8085297), (0.020093951, 0.3968893, 0.8519757), (0.020093951, 0.3280811, 0.8085297), (0.0033153906, 0.4226087, 0.7353576), (0.0033153906, 0.37379116, 0.7136784), (0.020093951, 0.37379116, 0.7136784), (0.020093951, 0.4226087, 0.7353576), (0.000111440604, 0.43177578, 0.7896548), (0.000111440546, 0.34061638, 0.7538292), (0.02432615, 0.34061638, 0.7538292), (0.02432615, 0.43177578, 0.7896548), (0.00011144049, 0.35378888, 0.84358823), (0.02432615, 0.35378888, 0.84358823), (0.02432615, 0.39992464, 0.7103631), (0.000111440546, 0.39992464, 0.7103631), (0.03809579, 0.37693793, 0.7747592), (-0.0063522235, 0.3769379, 0.77475923), (-0.02731946, -0.06561017, 0.07334714), (0.028820107, -0.06561017, 0.07334714), (0.028820107, 0.12580167, 0.06973033), (-0.02731946, 0.12580167, 0.06973033), (-0.03916948, 0.045212094, 0.07024702), (0.04817334, 0.04521209, 0.07024702)]
            uniform token subdivisionScheme = "none"
            custom string userProperties:blender:data_name = "Cube.034"
        }
    }

    def Scope "_materials"
    {
        def Material "Green"
        {
            token outputs:surface.connect = </root/_materials/Green/Principled_BSDF.outputs:surface>
            custom string userProperties:blender:data_name = "Green"

            def Shader "Principled_BSDF"
            {
                uniform token info:id = "UsdPreviewSurface"
                float inputs:clearcoat = 0
                float inputs:clearcoatRoughness = 0.03
                color3f inputs:diffuseColor = (0.08744194, 0.15232062, 0.059860136)
                float inputs:ior = 1.5
                float inputs:metallic = 0
                float inputs:opacity = 1
                float inputs:roughness = 0.6900348
                float inputs:specular = 0.5
                token outputs:surface
            }
        }
    }
}

