#usda 1.0
(
    defaultPrim = "root"
    doc = "Blender v5.1.2"
    metersPerUnit = 1
    upAxis = "Y"
)

def Xform "root" (
    customData = {
        dictionary Blender = {
            bool generated = 1
        }
    }
)
{
    float3 xformOp:rotateXYZ = (-90, -0, 0)
    uniform token[] xformOpOrder = ["xformOp:rotateXYZ"]

    def Xform "Lilypad"
    {
        custom string userProperties:blender:object_name = "Lilypad"

        def Mesh "Cylinder_016" (
            active = true
            prepend apiSchemas = ["MaterialBindingAPI"]
        )
        {
            uniform bool doubleSided = 1
            float3[] extent = [(-0.5985977, -0.5945612, -0.026891349), (0.5985977, 0.5945612, 0.19397314)]
            int[] faceVertexCounts = [3, 3, 3, 3, 3, 3, 3, 3, 3, 3, 3, 3, 3, 3, 3, 3, 4, 4, 4, 4, 4, 4, 4, 4, 4, 4, 4, 4, 3, 4, 4, 3, 4, 4, 3, 4, 4, 3, 4, 4, 3, 4, 4, 3, 4, 4, 3, 4, 4, 3, 4, 4, 3, 4, 4, 3, 4, 4, 3, 4, 4, 3, 4, 4, 3, 4, 4, 3, 4, 4, 3, 4, 4, 3, 4, 4, 3, 4, 4, 3, 4, 4, 3, 4, 4, 3, 4, 4, 3, 4, 4, 3, 4, 4, 3, 4, 4, 3, 4, 4, 3, 4, 4, 3, 4, 4, 3, 4, 4, 3, 4, 4, 4, 4, 4, 4, 4, 4, 4, 4, 4, 4, 4, 4, 4, 4, 4, 4, 4, 4, 4, 4, 4, 4, 4, 4, 4, 4, 4, 4, 4, 4, 4, 4, 4, 4, 4, 4, 4, 4, 4, 4, 4, 4, 4, 4, 4, 4, 4, 4, 4, 4, 4, 4, 4, 4, 4, 4, 4, 4, 4, 4, 4, 4, 4, 4, 4, 4, 4, 4, 4, 4, 4, 4, 4, 4, 4, 4, 4, 4, 4, 4, 4, 4, 4, 4, 4, 4, 4, 4, 4, 4, 4, 4, 4, 4, 4, 4]
            int[] faceVertexIndices = [1, 9, 0, 3, 2, 0, 4, 3, 0, 2, 1, 0, 6, 5, 0, 7, 6, 0, 8, 7, 0, 9, 8, 0, 11, 10, 19, 13, 10, 12, 14, 10, 13, 12, 10, 11, 16, 10, 15, 17, 10, 16, 18, 10, 17, 19, 10, 18, 8, 18, 17, 7, 5, 15, 10, 0, 2, 12, 11, 1, 9, 19, 18, 8, 6, 16, 15, 5, 3, 13, 12, 2, 1, 11, 19, 9, 7, 17, 16, 6, 0, 10, 14, 4, 4, 14, 13, 3, 20, 21, 23, 22, 22, 23, 25, 24, 21, 20, 26, 27, 28, 30, 29, 29, 30, 32, 31, 28, 27, 33, 34, 35, 37, 36, 36, 37, 39, 38, 35, 34, 40, 41, 42, 44, 43, 43, 44, 46, 45, 42, 41, 47, 48, 49, 51, 50, 50, 51, 53, 52, 49, 48, 54, 55, 56, 58, 57, 57, 58, 60, 59, 56, 55, 61, 62, 63, 65, 64, 64, 65, 67, 66, 63, 62, 68, 69, 70, 72, 71, 71, 72, 74, 73, 70, 69, 75, 76, 77, 79, 78, 78, 79, 81, 80, 77, 76, 82, 83, 84, 86, 85, 85, 86, 88, 87, 84, 83, 89, 90, 91, 93, 92, 92, 93, 95, 94, 91, 90, 96, 97, 98, 100, 99, 99, 100, 102, 101, 98, 97, 103, 104, 105, 107, 106, 106, 107, 109, 108, 105, 104, 110, 111, 112, 114, 113, 113, 114, 116, 115, 112, 111, 117, 118, 120, 121, 119, 120, 122, 123, 121, 119, 124, 118, 125, 127, 128, 126, 127, 129, 130, 128, 126, 131, 125, 132, 134, 135, 133, 134, 136, 137, 135, 133, 138, 132, 139, 141, 142, 140, 141, 143, 144, 142, 140, 145, 139, 146, 148, 149, 147, 148, 150, 151, 149, 147, 152, 146, 153, 155, 156, 154, 155, 157, 158, 156, 154, 159, 153, 160, 162, 163, 161, 162, 164, 165, 163, 161, 166, 160, 167, 169, 170, 168, 169, 171, 172, 170, 168, 173, 167, 174, 176, 177, 175, 176, 178, 179, 177, 175, 180, 174, 181, 183, 184, 182, 183, 185, 186, 184, 182, 187, 181, 188, 190, 191, 189, 190, 192, 193, 191, 189, 194, 188, 195, 197, 198, 196, 197, 199, 200, 198, 196, 201, 195, 202, 204, 205, 203, 204, 206, 207, 205, 203, 208, 202, 209, 211, 212, 210, 211, 213, 214, 212, 210, 215, 209, 20, 22, 120, 118, 23, 21, 119, 121, 24, 25, 123, 122, 22, 24, 122, 120, 25, 23, 121, 123, 26, 20, 118, 124, 21, 26, 124, 119, 27, 29, 127, 125, 30, 28, 126, 128, 31, 32, 130, 129, 29, 31, 129, 127, 32, 30, 128, 130, 33, 27, 125, 131, 28, 33, 131, 126, 34, 36, 134, 132, 37, 35, 133, 135, 38, 39, 137, 136, 36, 38, 136, 134, 39, 37, 135, 137, 40, 34, 132, 138, 35, 40, 138, 133, 41, 43, 141, 139, 44, 42, 140, 142, 45, 46, 144, 143, 43, 45, 143, 141, 46, 44, 142, 144, 47, 41, 139, 145, 42, 47, 145, 140, 48, 50, 148, 146, 51, 49, 147, 149, 52, 53, 151, 150, 50, 52, 150, 148, 53, 51, 149, 151, 54, 48, 146, 152, 49, 54, 152, 147, 55, 57, 155, 153, 58, 56, 154, 156, 59, 60, 158, 157, 57, 59, 157, 155, 60, 58, 156, 158, 61, 55, 153, 159, 56, 61, 159, 154, 62, 64, 162, 160, 65, 63, 161, 163, 66, 67, 165, 164, 64, 66, 164, 162, 67, 65, 163, 165, 68, 62, 160, 166, 63, 68, 166, 161, 69, 71, 169, 167, 72, 70, 168, 170, 73, 74, 172, 171, 71, 73, 171, 169, 74, 72, 170, 172, 75, 69, 167, 173, 70, 75, 173, 168, 76, 78, 176, 174, 79, 77, 175, 177, 80, 81, 179, 178, 78, 80, 178, 176, 81, 79, 177, 179, 82, 76, 174, 180, 77, 82, 180, 175, 83, 85, 183, 181, 86, 84, 182, 184, 87, 88, 186, 185, 85, 87, 185, 183, 88, 86, 184, 186, 89, 83, 181, 187, 84, 89, 187, 182, 90, 92, 190, 188, 93, 91, 189, 191, 94, 95, 193, 192, 92, 94, 192, 190, 95, 93, 191, 193, 96, 90, 188, 194, 91, 96, 194, 189, 97, 99, 197, 195, 100, 98, 196, 198, 101, 102, 200, 199, 99, 101, 199, 197, 102, 100, 198, 200, 103, 97, 195, 201, 98, 103, 201, 196, 104, 106, 204, 202, 107, 105, 203, 205, 108, 109, 207, 206, 106, 108, 206, 204, 109, 107, 205, 207, 110, 104, 202, 208, 105, 110, 208, 203, 111, 113, 211, 209, 114, 112, 210, 212, 115, 116, 214, 213, 113, 115, 213, 211, 116, 114, 212, 214, 117, 111, 209, 215, 112, 117, 215, 210]
            rel material:binding = </root/_materials/Green>
            normal3f[] normals = [(0.020118639, -0.000634719, 0.9997973), (0.020118639, -0.000634719, 0.9997973), (0.020118639, -0.000634719, 0.9997973), (-0.017950436, 0.015737465, 0.99971503), (-0.017950436, 0.015737465, 0.99971503), (-0.017950436, 0.015737465, 0.99971503), (-0.011497631, -0.019914482, 0.9997356), (-0.011497631, -0.019914482, 0.9997356), (-0.011497631, -0.019914482, 0.9997356), (0, 0, 1), (0, 0, 1), (0, 0, 1), (-0.022706406, 0.009297631, 0.999699), (-0.022706406, 0.009297631, 0.999699), (-0.022706406, 0.009297631, 0.999699), (-9.1063757e-10, 0, 1), (0, 0, 1), (-9.11462e-10, 0, 1), (-1.8338705e-9, 0, 1), (-9.1063757e-10, 0, 1), (-9.11462e-10, 0, 1), (-0.0031923929, -0.020170158, 0.99979144), (-0.0031923929, -0.020170158, 0.99979144), (-0.0031923929, -0.020170158, 0.99979144), (-0.020118639, 0.000634719, -0.9997973), (-0.020118639, 0.000634719, -0.9997973), (-0.020118639, 0.000634719, -0.9997973), (0.017950438, -0.015737467, -0.99971503), (0.017950438, -0.015737467, -0.99971503), (0.017950438, -0.015737467, -0.99971503), (0.011497629, 0.019914484, -0.9997356), (0.011497629, 0.019914484, -0.9997356), (0.011497629, 0.019914484, -0.9997356), (0, 0, -1), (0, 0, -1), (0, 0, -1), (0.022706408, -0.009297633, -0.999699), (0.022706408, -0.009297633, -0.999699), (0.022706408, -0.009297633, -0.999699), (0, 0, -1), (0, 0, -1), (0, 0, -1), (0, 0, -1), (0, 0, -1), (0, 0, -1), (0.0031923945, 0.02017016, -0.99979144), (0.0031923945, 0.02017016, -0.99979144), (0.0031923945, 0.02017016, -0.99979144), (-0.9919089, -0.1269516, 0), (-0.9919089, -0.1269516, 0), (-0.9919089, -0.1269516, 0), (-0.9919089, -0.1269516, 0), (0.9449978, 0.3270768, 0), (0.9449978, 0.3270768, 0), (0.9449978, 0.3270768, 0), (0.9449978, 0.3270768, 0), (0.23003645, 0.97318196, 0), (0.23003645, 0.97318196, 0), (0.23003645, 0.97318196, 0), (0.23003645, 0.97318196, 0), (-0.8865621, 0.46260947, 0), (-0.8865621, 0.46260947, 0), (-0.8865621, 0.46260947, 0), (-0.8865621, 0.46260947, 0), (0.2022092, -0.9793424, 0), (0.2022092, -0.9793424, 0), (0.2022092, -0.9793424, 0), (0.2022092, -0.9793424, 0), (0.9444612, 0.32862273, 0), (0.9444612, 0.32862273, 0), (0.9444612, 0.32862273, 0), (0.9444612, 0.32862273, 0), (-0.22764508, 0.9737441, 0), (-0.22764508, 0.9737441, 0), (-0.22764508, 0.9737441, 0), (-0.22764508, 0.9737441, 0), (-0.6421921, -0.7665437, 0), (-0.6421921, -0.7665437, 0), (-0.6421921, -0.7665437, 0), (-0.6421921, -0.7665437, 0), (-0.49999994, -0.8660254, 0), (-0.49999994, -0.8660254, 0), (-0.49999994, -0.8660254, 0), (-0.49999994, -0.8660254, 0), (0.997607, -0.069140345, 0), (0.997607, -0.069140345, 0), (0.997607, -0.069140345, 0), (0.997607, -0.069140345, 0), (-0.37098145, -0.793767, 0.48198205), (-0.37098145, -0.793767, 0.48198205), (-0.37098145, -0.793767, 0.48198205), (-0.37098145, -0.793767, 0.48198205), (-0.12254856, -0.216962, 0.9684572), (-0.12254856, -0.216962, 0.9684572), (-0.12254856, -0.216962, 0.9684572), (-0.12254856, -0.216962, 0.9684572), (-0.40109184, -0.8838588, -0.24066356), (-0.40109184, -0.8838588, -0.24066356), (-0.40109184, -0.8838588, -0.24066356), (0.549158, -0.68272895, 0.48198208), (0.549158, -0.68272895, 0.48198208), (0.549158, -0.68272895, 0.48198208), (0.549158, -0.68272895, 0.48198208), (0.14078623, -0.20559643, 0.9684572), (0.14078623, -0.20559643, 0.9684572), (0.14078623, -0.20559643, 0.9684572), (0.14078623, -0.20559643, 0.9684572), (0.6167716, -0.7494489, -0.24066404), (0.6167716, -0.7494489, -0.24066404), (0.6167716, -0.7494489, -0.24066404), (0.86390007, 0.14618456, 0.48198223), (0.86390007, 0.14618456, 0.48198223), (0.86390007, 0.14618456, 0.48198223), (0.86390007, 0.14618456, 0.48198223), (0.24815644, 0.02256103, 0.9684572), (0.24815644, 0.02256103, 0.9684572), (0.24815644, 0.02256103, 0.9684572), (0.24815644, 0.02256103, 0.9684572), (0.9551307, 0.17264363, -0.2406645), (0.9551307, 0.17264363, -0.2406645), (0.9551307, 0.17264363, -0.2406645), (0.2805666, 0.8300456, 0.48198208), (0.2805666, 0.8300456, 0.48198208), (0.2805666, 0.8300456, 0.48198208), (0.2805666, 0.8300456, 0.48198208), (0.097704515, 0.22922581, 0.96845716), (0.097704515, 0.22922581, 0.96845716), (0.097704515, 0.22922581, 0.96845716), (0.097704515, 0.22922581, 0.96845716), (0.3004892, 0.92292315, -0.24066368), (0.3004892, 0.92292315, -0.24066368), (0.3004892, 0.92292315, -0.24066368), (-0.52806306, 0.69917274, 0.4819821), (-0.52806306, 0.69917274, 0.4819821), (-0.52806306, 0.69917274, 0.4819821), (-0.52806306, 0.69917274, 0.4819821), (-0.13444522, 0.20979781, 0.9684572), (-0.13444522, 0.20979781, 0.9684572), (-0.13444522, 0.20979781, 0.9684572), (-0.13444522, 0.20979781, 0.9684572), (-0.5936087, 0.7679257, -0.2406637), (-0.5936087, 0.7679257, -0.2406637), (-0.5936087, 0.7679257, -0.2406637), (-0.875714, 0.028606024, 0.48198202), (-0.875714, 0.028606024, 0.48198202), (-0.875714, 0.028606024, 0.48198202), (-0.875714, 0.028606024, 0.48198202), (-0.24768437, 0.027259406, 0.9684572), (-0.24768437, 0.027259406, 0.9684572), (-0.24768437, 0.027259406, 0.9684572), (-0.24768437, 0.027259406, 0.9684572), (-0.97038513, 0.020825166, -0.24066374), (-0.97038513, 0.020825166, -0.24066374), (-0.97038513, 0.020825166, -0.24066374), (-0.76696444, 0.6405726, -0.03784731), (-0.76696444, 0.6405726, -0.03784731), (-0.76696444, 0.6405726, -0.03784731), (-0.76696444, 0.6405726, -0.03784731), (-0.5700943, 0.5172551, 0.63831), (-0.5700943, 0.5172551, 0.63831), (-0.5700943, 0.5172551, 0.63831), (-0.5700943, 0.5172551, 0.63831), (-0.75419915, 0.6299105, -0.18546242), (-0.75419915, 0.6299105, -0.18546242), (-0.75419915, 0.6299105, -0.18546242), (-0.5724587, -0.81935227, -0.03086989), (-0.5724587, -0.81935227, -0.03086989), (-0.5724587, -0.81935227, -0.03086989), (-0.5724587, -0.81935227, -0.03086989), (-0.4524504, -0.6291974, 0.6319805), (-0.4524504, -0.6291974, 0.6319805), (-0.4524504, -0.6291974, 0.6319805), (-0.4524504, -0.6291974, 0.6319805), (-0.56217784, -0.8046365, -0.19109213), (-0.56217784, -0.8046365, -0.19109213), (-0.56217784, -0.8046365, -0.19109213), (0.8582564, -0.5127708, -0.021496635), (0.8582564, -0.5127708, -0.021496635), (0.8582564, -0.5127708, -0.021496635), (0.8582564, -0.5127708, -0.021496635), (0.67552996, -0.39203113, 0.6244764), (0.67552996, -0.39203113, 0.6244764), (0.67552996, -0.39203113, 0.6244764), (0.67552996, -0.39203113, 0.6244764), (0.84028983, -0.5020362, -0.20462827), (0.84028983, -0.5020362, -0.20462827), (0.84028983, -0.5020362, -0.20462827), (0.54393464, 0.8386281, -0.028946381), (0.54393464, 0.8386281, -0.028946381), (0.54393464, 0.8386281, -0.028946381), (0.54393464, 0.8386281, -0.028946381), (0.42247432, 0.65136284, 0.63027126), (0.42247432, 0.65136284, 0.63027126), (0.42247432, 0.65136284, 0.63027126), (0.42247432, 0.65136284, 0.63027126), (0.5333763, 0.8223487, -0.1981224), (0.5333763, 0.8223487, -0.1981224), (0.5333763, 0.8223487, -0.1981224), (-0.9866064, 0.11941572, 0.111120224), (-0.9866064, 0.11941572, 0.111120224), (-0.9866064, 0.11941572, 0.111120224), (-0.9866064, 0.11941572, 0.111120224), (-0.8675619, 0.14570065, 0.4755077), (-0.8675619, 0.14570065, 0.4755077), (-0.8675619, 0.14570065, 0.4755077), (-0.8675619, 0.14570065, 0.4755077), (-0.72270125, 0.08747337, -0.68560296), (-0.72270125, 0.08747337, -0.68560296), (-0.72270125, 0.08747337, -0.68560296), (-0.0342234, -0.9932175, 0.111120045), (-0.0342234, -0.9932175, 0.111120045), (-0.0342234, -0.9932175, 0.111120045), (-0.0342234, -0.9932175, 0.111120045), (-0.04379653, -0.879617, 0.4736622), (-0.04379653, -0.879617, 0.4736622), (-0.04379653, -0.879617, 0.4736622), (-0.04379653, -0.879617, 0.4736622), (-0.025068922, -0.72754383, -0.6856031), (-0.025068922, -0.72754383, -0.6856031), (-0.025068922, -0.72754383, -0.6856031), (0.99313253, 0.036607284, 0.11112025), (0.99313253, 0.036607284, 0.11112025), (0.99313253, 0.036607284, 0.11112025), (0.99313253, 0.036607284, 0.11112025), (0.8798132, 0.044998094, 0.4731848), (0.8798132, 0.044998094, 0.4731848), (0.8798132, 0.044998094, 0.4731848), (0.8798132, 0.044998094, 0.4731848), (0.7274812, 0.026815297, -0.6856035), (0.7274812, 0.026815297, -0.6856035), (0.7274812, 0.026815297, -0.6856035), (9.536134e-8, 0.993807, 0.111120105), (9.536134e-8, 0.993807, 0.111120105), (9.536134e-8, 0.993807, 0.111120105), (9.536134e-8, 0.993807, 0.111120105), (1.22565185e-8, 0.88084686, 0.4734014), (1.22565185e-8, 0.88084686, 0.4734014), (1.22565185e-8, 0.88084686, 0.4734014), (1.22565185e-8, 0.88084686, 0.4734014), (0, 0.7279754, -0.6856032), (0, 0.7279754, -0.6856032), (0, 0.7279754, -0.6856032), (0.36974704, 0.7906654, -0.48799118), (0.36974704, 0.7906654, -0.48799118), (0.36974704, 0.7906654, -0.48799118), (0.36974704, 0.7906654, -0.48799118), (0.12593247, 0.22367235, -0.96649456), (0.12593247, 0.22367235, -0.96649456), (0.12593247, 0.22367235, -0.96649456), (0.12593247, 0.22367235, -0.96649456), (0.40431678, 0.8903153, 0.20944357), (0.40431678, 0.8903153, 0.20944357), (0.40431678, 0.8903153, 0.20944357), (-0.54691607, 0.6802555, -0.48799103), (-0.54691607, 0.6802555, -0.48799103), (-0.54691607, 0.6802555, -0.48799103), (-0.54691607, 0.6802555, -0.48799103), (-0.14531888, 0.21159083, -0.96649456), (-0.14531888, 0.21159083, -0.96649456), (-0.14531888, 0.21159083, -0.96649456), (-0.14531888, 0.21159083, -0.96649456), (-0.62114793, 0.7551868, 0.2094469), (-0.62114793, 0.7551868, 0.2094469), (-0.62114793, 0.7551868, 0.2094469), (-0.8606471, -0.14543557, -0.48799086), (-0.8606471, -0.14543557, -0.48799086), (-0.8606471, -0.14543557, -0.48799086), (-0.8606471, -0.14543557, -0.48799086), (-0.25560075, -0.023592515, -0.9664945), (-0.25560075, -0.023592515, -0.9664945), (-0.25560075, -0.023592515, -0.9664945), (-0.25560075, -0.023592515, -0.9664945), (-0.96227473, -0.1736653, 0.20944683), (-0.96227473, -0.1736653, 0.20944683), (-0.96227473, -0.1736653, 0.20944683), (-0.27968478, -0.8268266, -0.48799014), (-0.27968478, -0.8268266, -0.48799014), (-0.27968478, -0.8268266, -0.48799014), (-0.27968478, -0.8268266, -0.48799014), (-0.100322805, -0.2362702, -0.9664946), (-0.100322805, -0.2362702, -0.9664946), (-0.100322805, -0.2362702, -0.9664946), (-0.100322805, -0.2362702, -0.9664946), (-0.30297637, -0.92969835, 0.20944281), (-0.30297637, -0.92969835, 0.20944281), (-0.30297637, -0.92969835, 0.20944281), (0.5258992, -0.69663084, -0.48799142), (0.5258992, -0.69663084, -0.48799142), (0.5258992, -0.69663084, -0.48799142), (0.5258992, -0.69663084, -0.48799142), (0.13879286, -0.21592736, -0.9664946), (0.13879286, -0.21592736, -0.9664946), (0.13879286, -0.21592736, -0.9664946), (0.13879286, -0.21592736, -0.9664946), (0.5978104, -0.7737935, 0.2094431), (0.5978104, -0.7737935, 0.2094431), (0.5978104, -0.7737935, 0.2094431), (0.8723767, -0.028692935, -0.48799145), (0.8723767, -0.028692935, -0.48799145), (0.8723767, -0.028692935, -0.48799145), (0.8723767, -0.028692935, -0.48799145), (0.25518504, -0.027729075, -0.9664945), (0.25518504, -0.027729075, -0.9664945), (0.25518504, -0.027729075, -0.9664945), (0.25518504, -0.027729075, -0.9664945), (0.9775892, -0.021249078, 0.20944634), (0.9775892, -0.021249078, 0.20944634), (0.9775892, -0.021249078, 0.20944634), (0.7671754, -0.6407795, 0.029044507), (0.7671754, -0.6407795, 0.029044507), (0.7671754, -0.6407795, 0.029044507), (0.7671754, -0.6407795, 0.029044507), (0.57681924, -0.52331847, -0.6272298), (0.57681924, -0.52331847, -0.6272298), (0.57681924, -0.52331847, -0.6272298), (0.57681924, -0.52331847, -0.6272298), (0.7545382, -0.6301992, 0.18308774), (0.7545382, -0.6301992, 0.18308774), (0.7545382, -0.6301992, 0.18308774), (0.57257634, 0.8195331, 0.022844609), (0.57257634, 0.8195331, 0.022844609), (0.57257634, 0.8195331, 0.022844609), (0.57257634, 0.8195331, 0.022844609), (0.45770118, 0.6364807, -0.62080765), (0.45770118, 0.6364807, -0.62080765), (0.45770118, 0.6364807, -0.62080765), (0.45770118, 0.6364807, -0.62080765), (0.562476, 0.8050792, 0.18832998), (0.562476, 0.8050792, 0.18832998), (0.562476, 0.8050792, 0.18832998), (-0.85840595, 0.5127887, 0.013674037), (-0.85840595, 0.5127887, 0.013674037), (-0.85840595, 0.5127887, 0.013674037), (-0.85840595, 0.5127887, 0.013674037), (-0.6826316, 0.3962357, -0.61401236), (-0.6826316, 0.3962357, -0.61401236), (-0.6826316, 0.3962357, -0.61401236), (-0.6826316, 0.3962357, -0.61401236), (-0.8409285, 0.5024083, 0.2010597), (-0.8409285, 0.5024083, 0.2010597), (-0.8409285, 0.5024083, 0.2010597), (-0.5440366, -0.8387975, 0.021046633), (-0.5440366, -0.8387975, 0.021046633), (-0.5440366, -0.8387975, 0.021046633), (-0.5440366, -0.8387975, 0.021046633), (-0.42731613, -0.6588056, -0.61917377), (-0.42731613, -0.6588056, -0.61917377), (-0.42731613, -0.6588056, -0.61917377), (-0.42731613, -0.6588056, -0.61917377), (-0.5337165, -0.8228617, 0.19505239), (-0.5337165, -0.8228617, 0.19505239), (-0.5337165, -0.8228617, 0.19505239), (0.9871069, -0.11946213, -0.1065304), (0.9871069, -0.11946213, -0.1065304), (0.9871069, -0.11946213, -0.1065304), (0.9871069, -0.11946213, -0.1065304), (0.8701068, -0.1461488, -0.47069582), (0.8701068, -0.1461488, -0.47069582), (0.8701068, -0.1461488, -0.47069582), (0.8701068, -0.1461488, -0.47069582), (0.7619222, -0.09222073, 0.6410693), (0.7619222, -0.09222073, 0.6410693), (0.7619222, -0.09222073, 0.6410693), (0.0342344, 0.99374425, -0.10630317), (0.0342344, 0.99374425, -0.10630317), (0.0342344, 0.99374425, -0.10630317), (0.0342344, 0.99374425, -0.10630317), (0.043935742, 0.8822327, -0.468759), (0.043935742, 0.8822327, -0.468759), (0.043935742, 0.8822327, -0.468759), (0.043935742, 0.8822327, -0.468759), (0.026429476, 0.7670242, 0.6410735), (0.026429476, 0.7670242, 0.6410735), (0.026429476, 0.7670242, 0.6410735), (-0.9936456, -0.036648925, -0.106420495), (-0.9936456, -0.036648925, -0.106420495), (-0.9936456, -0.036648925, -0.106420495), (-0.9936456, -0.036648925, -0.106420495), (-0.88233626, -0.04510505, -0.46845302), (-0.88233626, -0.04510505, -0.46845302), (-0.88233626, -0.04510505, -0.46845302), (-0.88233626, -0.04510505, -0.46845302), (-0.76696455, -0.028270578, 0.6410665), (-0.76696455, -0.028270578, 0.6410665), (-0.76696455, -0.028270578, 0.6410665), (0.00000798796, -0.9943355, -0.10628798), (0.00000798796, -0.9943355, -0.10628798), (0.00000798796, -0.9943355, -0.10628798), (0.00000798796, -0.9943355, -0.10628798), (-0.000010801976, -0.8834591, -0.4685082), (-0.000010801976, -0.8834591, -0.4685082), (-0.000010801976, -0.8834591, -0.4685082), (-0.000010801976, -0.8834591, -0.4685082), (0, -0.7674821, 0.6410704), (0, -0.7674821, 0.6410704), (0, -0.7674821, 0.6410704), (0.934511, -0.27909094, 0.22090118), (0.934511, -0.27909094, 0.22090118), (0.934511, -0.27909094, 0.22090118), (0.934511, -0.27909094, 0.22090118), (-0.8154553, 0.5395366, 0.20960163), (-0.8154553, 0.5395366, 0.20960163), (-0.8154553, 0.5395366, 0.20960163), (-0.8154553, 0.5395366, 0.20960163), (-0.53108335, -0.81000966, -0.24866597), (-0.53108335, -0.81000966, -0.24866597), (-0.53108335, -0.81000966, -0.24866597), (-0.53108335, -0.81000966, -0.24866597), (0.8014517, -0.5927275, -0.07968354), (0.8014517, -0.5927275, -0.07968354), (0.8014517, -0.5927275, -0.07968354), (0.8014517, -0.5927275, -0.07968354), (-0.97264695, 0.19059253, -0.13278733), (-0.97264695, 0.19059253, -0.13278733), (-0.97264695, 0.19059253, -0.13278733), (-0.97264695, 0.19059253, -0.13278733), (0.73270726, -0.33101034, 0.59461945), (0.73270726, -0.33101034, 0.59461945), (0.73270726, -0.33101034, 0.59461945), (0.73270726, -0.33101034, 0.59461945), (-0.7438707, 0.34595627, 0.5718136), (-0.7438707, 0.34595627, 0.5718136), (-0.7438707, 0.34595627, 0.5718136), (-0.7438707, 0.34595627, 0.5718136), (0.66224277, 0.7159863, 0.22090273), (0.66224277, 0.7159863, 0.22090273), (0.66224277, 0.7159863, 0.22090273), (0.66224277, 0.7159863, 0.22090273), (-0.84360653, -0.4943655, 0.20959646), (-0.84360653, -0.4943655, 0.20959646), (-0.84360653, -0.4943655, 0.20959646), (-0.84360653, -0.4943655, 0.20959646), (0.4932104, -0.83361703, -0.2486487), (0.4932104, -0.83361703, -0.2486487), (0.4932104, -0.83361703, -0.2486487), (0.4932104, -0.83361703, -0.2486487), (0.88518643, 0.4583656, -0.07966205), (0.88518643, 0.4583656, -0.07966205), (0.88518643, 0.4583656, -0.07966205), (0.88518643, 0.4583656, -0.07966205), (-0.5995927, -0.7892103, -0.13279955), (-0.5995927, -0.7892103, -0.13279955), (-0.5995927, -0.7892103, -0.13279955), (-0.5995927, -0.7892103, -0.13279955), (0.6199437, 0.51195264, 0.59462124), (0.6199437, 0.51195264, 0.59462124), (0.6199437, 0.51195264, 0.59462124), (0.6199437, 0.51195264, 0.59462124), (-0.6382828, -0.5153903, 0.57181096), (-0.6382828, -0.5153903, 0.57181096), (-0.6382828, -0.5153903, 0.57181096), (-0.6382828, -0.5153903, 0.57181096), (-0.30177712, 0.9274299, 0.22091709), (-0.30177712, 0.9274299, 0.22091709), (-0.30177712, 0.9274299, 0.22091709), (-0.30177712, 0.9274299, 0.22091709), (0.01985227, -0.97758687, 0.20959452), (0.01985227, -0.97758687, 0.20959452), (0.01985227, -0.97758687, 0.20959452), (0.01985227, -0.97758687, 0.20959452), (0.968298, 0.023720475, -0.24866927), (0.968298, 0.023720475, -0.24866927), (0.968298, 0.023720475, -0.24866927), (0.968298, 0.023720475, -0.24866927), (0.03186359, 0.99631345, -0.07965098), (0.03186359, 0.99631345, -0.07965098), (0.03186359, 0.99631345, -0.07965098), (0.03186359, 0.99631345, -0.07965098), (0.39628106, -0.90847313, -0.13280731), (0.39628106, -0.90847313, -0.13280731), (0.39628106, -0.90847313, -0.13280731), (0.39628106, -0.90847313, -0.13280731), (-0.14434728, 0.79094017, 0.5946237), (-0.14434728, 0.79094017, 0.5946237), (-0.14434728, 0.79094017, 0.5946237), (-0.14434728, 0.79094017, 0.5946237), (0.13840708, -0.80862695, 0.5718095), (0.13840708, -0.80862695, 0.5718095), (0.13840708, -0.80862695, 0.5718095), (0.13840708, -0.80862695, 0.5718095), (-0.95970905, 0.1736472, 0.2209187), (-0.95970905, 0.1736472, 0.2209187), (-0.95970905, 0.1736472, 0.2209187), (-0.95970905, 0.1736472, 0.2209187), (0.87030226, -0.4457004, 0.20958358), (0.87030226, -0.4457004, 0.20958358), (0.87030226, -0.4457004, 0.20958358), (0.87030226, -0.4457004, 0.20958358), (0.4378753, 0.8639614, -0.24866834), (0.4378753, 0.8639614, -0.24866834), (0.4378753, 0.8639614, -0.24866834), (0.4378753, 0.8639614, -0.24866834), (-0.86229783, 0.50010043, -0.07963726), (-0.86229783, 0.50010043, -0.07963726), (-0.86229783, 0.50010043, -0.07963726), (-0.86229783, 0.50010043, -0.07963726), (0.98778707, -0.08144415, -0.13282944), (0.98778707, -0.08144415, -0.13282944), (0.98778707, -0.08144415, -0.13282944), (0.98778707, -0.08144415, -0.13282944), (-0.76492184, 0.2476342, 0.59461904), (-0.76492184, 0.2476342, 0.59461904), (-0.76492184, 0.2476342, 0.59461904), (-0.76492184, 0.2476342, 0.59461904), (0.77767444, -0.2612492, 0.57181406), (0.77767444, -0.2612492, 0.57181406), (0.77767444, -0.2612492, 0.57181406), (0.77767444, -0.2612492, 0.57181406), (-0.683793, -0.6954326, 0.2209085), (-0.683793, -0.6954326, 0.2209085), (-0.683793, -0.6954326, 0.2209085), (-0.683793, -0.6954326, 0.2209085), (0.8583058, 0.46838212, 0.209593), (0.8583058, 0.46838212, 0.209593), (0.8583058, 0.46838212, 0.209593), (0.8583058, 0.46838212, 0.209593), (-0.46753705, 0.8482845, -0.24864139), (-0.46753705, 0.8482845, -0.24864139), (-0.46753705, 0.8482845, -0.24864139), (-0.46753705, 0.8482845, -0.24864139), (-0.89876616, -0.43113145, -0.07965507), (-0.89876616, -0.43113145, -0.07965507), (-0.89876616, -0.43113145, -0.07965507), (-0.89876616, -0.43113145, -0.07965507), (0.62340367, 0.7705393, -0.13280481), (0.62340367, 0.7705393, -0.13280481), (0.62340367, 0.7705393, -0.13280481), (0.62340367, 0.7705393, -0.13280481), (-0.6352775, -0.49279323, 0.5946238), (-0.6352775, -0.49279323, 0.5946238), (-0.6352775, -0.49279323, 0.5946238), (-0.6352775, -0.49279323, 0.5946238), (0.65371317, 0.4956734, 0.57181007), (0.65371317, 0.4956734, 0.57181007), (0.65371317, 0.4956734, 0.57181007), (0.65371317, 0.4956734, 0.57181007), (0.11124537, -0.9689283, 0.22091268), (0.11124537, -0.9689283, 0.22091268), (0.11124537, -0.9689283, 0.22091268), (0.11124537, -0.9689283, 0.22091268), (0.17503221, 0.9619948, 0.2095941), (0.17503221, 0.9619948, 0.2095941), (0.17503221, 0.9619948, 0.2095941), (0.17503221, 0.9619948, 0.2095941), (-0.953664, 0.1693918, -0.24865884), (-0.953664, 0.1693918, -0.24865884), (-0.953664, 0.1693918, -0.24865884), (-0.953664, 0.1693918, -0.24865884), (-0.22943847, -0.9700593, -0.079642594), (-0.22943847, -0.9700593, -0.079642594), (-0.22943847, -0.9700593, -0.079642594), (-0.22943847, -0.9700593, -0.079642594), (-0.20762432, 0.96915096, -0.13281049), (-0.20762432, 0.96915096, -0.13281049), (-0.20762432, 0.96915096, -0.13281049), (-0.20762432, 0.96915096, -0.13281049), (-0.015902452, -0.8038506, 0.5946185), (-0.015902452, -0.8038506, 0.5946185), (-0.015902452, -0.8038506, 0.5946185), (-0.015902452, -0.8038506, 0.5946185), (0.025250085, 0.81999403, 0.5718149), (0.025250085, 0.81999403, 0.5718149), (0.025250085, 0.81999403, 0.5718149), (0.025250085, 0.81999403, 0.5718149), (-0.5657626, -0.7318886, 0.37980494), (-0.5657626, -0.7318886, 0.37980494), (-0.5657626, -0.7318886, 0.37980494), (-0.5657626, -0.7318886, 0.37980494), (0.6300869, 0.67683834, 0.38063154), (0.6300869, 0.67683834, 0.38063154), (0.6300869, 0.67683834, 0.38063154), (0.6300869, 0.67683834, 0.38063154), (-0.42602947, 0.4781897, -0.7680062), (-0.42602947, 0.4781897, -0.7680062), (-0.42602947, 0.4781897, -0.7680062), (-0.42602947, 0.4781897, -0.7680062), (-0.75208783, -0.49428657, -0.4359412), (-0.75208783, -0.49428657, -0.4359412), (-0.75208783, -0.49428657, -0.4359412), (-0.75208783, -0.49428657, -0.4359412), (0.37493297, 0.803497, -0.46240425), (0.37493297, 0.803497, -0.46240425), (0.37493297, 0.803497, -0.46240425), (0.37493297, 0.803497, -0.46240425), (-0.52680945, -0.4847822, 0.69818205), (-0.52680945, -0.4847822, 0.69818205), (-0.52680945, -0.4847822, 0.69818205), (-0.52680945, -0.4847822, 0.69818205), (0.38517368, 0.6066311, 0.69544214), (0.38517368, 0.6066311, 0.69544214), (0.38517368, 0.6066311, 0.69544214), (0.38517368, 0.6066311, 0.69544214), (0.77795935, -0.49504054, 0.38692915), (0.77795935, -0.49504054, 0.38692915), (0.77795935, -0.49504054, 0.38692915), (0.77795935, -0.49504054, 0.38692915), (-0.7348092, 0.5661463, 0.37354228), (-0.7348092, 0.5661463, 0.37354228), (-0.7348092, 0.5661463, 0.37354228), (-0.7348092, 0.5661463, 0.37354228), (-0.3901082, -0.49763325, -0.77471083), (-0.3901082, -0.49763325, -0.77471083), (-0.3901082, -0.49763325, -0.77471083), (-0.3901082, -0.49763325, -0.77471083), (0.5313473, -0.69491494, -0.48452365), (0.5313473, -0.69491494, -0.48452365), (0.5313473, -0.69491494, -0.48452365), (0.5313473, -0.69491494, -0.48452365), (-0.8315904, 0.27810836, -0.48074234), (-0.8315904, 0.27810836, -0.48074234), (-0.8315904, 0.27810836, -0.48074234), (-0.8315904, 0.27810836, -0.48074234), (0.5332173, -0.48673812, 0.69192857), (0.5332173, -0.48673812, 0.69192857), (0.5332173, -0.48673812, 0.69192857), (0.5332173, -0.48673812, 0.69192857), (-0.6348637, 0.3281947, 0.6994543), (-0.6348637, 0.3281947, 0.6994543), (-0.6348637, 0.3281947, 0.6994543), (-0.6348637, 0.3281947, 0.6994543), (0.43497664, 0.816315, 0.3800333), (0.43497664, 0.816315, 0.3800333), (0.43497664, 0.816315, 0.3800333), (0.43497664, 0.816315, 0.3800333), (-0.5093193, -0.77230203, 0.37966228), (-0.5093193, -0.77230203, 0.37966228), (-0.5093193, -0.77230203, 0.37966228), (-0.5093193, -0.77230203, 0.37966228), (0.5505807, -0.295144, -0.78086555), (0.5505807, -0.295144, -0.78086555), (0.5505807, -0.295144, -0.78086555), (0.5505807, -0.295144, -0.78086555), (0.64269155, 0.605324, -0.4696068), (0.64269155, 0.605324, -0.4696068), (0.64269155, 0.605324, -0.4696068), (0.64269155, 0.605324, -0.4696068), (-0.22819231, -0.8629658, -0.4507974), (-0.22819231, -0.8629658, -0.4507974), (-0.22819231, -0.8629658, -0.4507974), (-0.22819231, -0.8629658, -0.4507974), (0.4506442, 0.5642127, 0.69179755), (0.4506442, 0.5642127, 0.69179755), (0.4506442, 0.5642127, 0.69179755), (0.4506442, 0.5642127, 0.69179755), (-0.28162467, -0.66209716, 0.694489), (-0.28162467, -0.66209716, 0.694489), (-0.28162467, -0.66209716, 0.694489), (-0.28162467, -0.66209716, 0.694489), (-0.7994958, 0.47010982, 0.3739027), (-0.7994958, 0.47010982, 0.3739027), (-0.7994958, 0.47010982, 0.3739027), (-0.7994958, 0.47010982, 0.3739027), (0.75015306, -0.53661394, 0.38641438), (0.75015306, -0.53661394, 0.38641438), (0.75015306, -0.53661394, 0.38641438), (0.75015306, -0.53661394, 0.38641438), (0.342974, 0.5287909, -0.7763692), (0.342974, 0.5287909, -0.7763692), (0.342974, 0.5287909, -0.7763692), (0.342974, 0.5287909, -0.7763692), (-0.5653461, 0.67048174, -0.48045602), (-0.5653461, 0.67048174, -0.48045602), (-0.5653461, 0.67048174, -0.48045602), (-0.5653461, 0.67048174, -0.48045602), (0.84045875, -0.23676324, -0.48741376), (0.84045875, -0.23676324, -0.48741376), (0.84045875, -0.23676324, -0.48741376), (0.84045875, -0.23676324, -0.48741376), (-0.54265225, 0.46770054, 0.6976996), (-0.54265225, 0.46770054, 0.6976996), (-0.54265225, 0.46770054, 0.6976996), (-0.54265225, 0.46770054, 0.6976996), (0.6533488, -0.30901396, 0.69111913), (0.6533488, -0.30901396, 0.69111913), (0.6533488, -0.30901396, 0.69111913), (0.6533488, -0.30901396, 0.69111913), (-0.10543147, -0.9488459, 0.29761678), (-0.10543147, -0.9488459, 0.29761678), (-0.10543147, -0.9488459, 0.29761678), (-0.10543147, -0.9488459, 0.29761678), (0.14297576, 0.9457528, 0.2917357), (0.14297576, 0.9457528, 0.2917357), (0.14297576, 0.9457528, 0.2917357), (0.14297576, 0.9457528, 0.2917357), (-0.46039373, 0.12624308, -0.8786924), (-0.46039373, 0.12624308, -0.8786924), (-0.46039373, 0.12624308, -0.8786924), (-0.46039373, 0.12624308, -0.8786924), (-0.2941877, -0.8782183, -0.377076), (-0.2941877, -0.8782183, -0.377076), (-0.2941877, -0.8782183, -0.377076), (-0.2941877, -0.8782183, -0.377076), (-0.024518132, 0.9185408, -0.39456517), (-0.024518132, 0.9185408, -0.39456517), (-0.024518132, 0.9185408, -0.39456517), (-0.024518132, 0.9185408, -0.39456517), (-0.3496114, -0.7866427, 0.5088862), (-0.3496114, -0.7866427, 0.5088862), (-0.3496114, -0.7866427, 0.5088862), (-0.3496114, -0.7866427, 0.5088862), (-0.1518237, 0.8473358, 0.50889236), (-0.1518237, 0.8473358, 0.50889236), (-0.1518237, 0.8473358, 0.50889236), (-0.1518237, 0.8473358, 0.50889236), (0.9550564, -0.017926902, 0.2958813), (0.9550564, -0.017926902, 0.2958813), (0.9550564, -0.017926902, 0.2958813), (0.9550564, -0.017926902, 0.2958813), (-0.9542863, 0.054066524, 0.2939633), (-0.9542863, 0.054066524, 0.2939633), (-0.9542863, 0.054066524, 0.2939633), (-0.9542863, 0.054066524, 0.2939633), (-0.042349186, -0.4720567, -0.8805504), (-0.042349186, -0.4720567, -0.8805504), (-0.042349186, -0.4720567, -0.8805504), (-0.042349186, -0.4720567, -0.8805504), (0.8810859, -0.21382533, -0.42186078), (0.8810859, -0.21382533, -0.42186078), (0.8810859, -0.21382533, -0.42186078), (0.8810859, -0.21382533, -0.42186078), (-0.89430934, -0.13546139, -0.42645153), (-0.89430934, -0.13546139, -0.42645153), (-0.89430934, -0.13546139, -0.42645153), (-0.89430934, -0.13546139, -0.42645153), (0.81376916, -0.280747, 0.50888187), (0.81376916, -0.280747, 0.50888187), (0.81376916, -0.280747, 0.50888187), (0.81376916, -0.280747, 0.50888187), (-0.8311594, -0.22404382, 0.5088992), (-0.8311594, -0.22404382, 0.5088992), (-0.8311594, -0.22404382, 0.5088992), (-0.8311594, -0.22404382, 0.5088992), (-0.056536425, 0.9541608, 0.29390603), (-0.056536425, 0.9541608, 0.29390603), (-0.056536425, 0.9541608, 0.29390603), (-0.056536425, 0.9541608, 0.29390603), (0.019509977, -0.95509315, 0.2956625), (0.019509977, -0.95509315, 0.2956625), (0.019509977, -0.95509315, 0.2956625), (0.019509977, -0.95509315, 0.2956625), (0.47172382, 0.03939214, -0.88086605), (0.47172382, 0.03939214, -0.88086605), (0.47172382, 0.03939214, -0.88086605), (0.47172382, 0.03939214, -0.88086605), (0.12335304, 0.9076353, -0.40122586), (0.12335304, 0.9076353, -0.40122586), (0.12335304, 0.9076353, -0.40122586), (0.12335304, 0.9076353, -0.40122586), (0.20095329, -0.90173453, -0.3827436), (0.20095329, -0.90173453, -0.3827436), (0.20095329, -0.90173453, -0.3827436), (0.20095329, -0.90173453, -0.3827436), (0.2220551, 0.83169633, 0.50889367), (0.2220551, 0.83169633, 0.50889367), (0.2220551, 0.83169633, 0.50889367), (0.2220551, 0.83169633, 0.50889367), (0.2826904, -0.81309056, 0.5088908), (0.2826904, -0.81309056, 0.5088908), (0.2826904, -0.81309056, 0.5088908), (0.2826904, -0.81309056, 0.5088908), (-0.95534444, -0.017988209, 0.2949467), (-0.95534444, -0.017988209, 0.2949467), (-0.95534444, -0.017988209, 0.2949467), (-0.95534444, -0.017988209, 0.2949467), (0.95534927, -0.018077444, 0.2949256), (0.95534927, -0.018077444, 0.2949256), (0.95534927, -0.018077444, 0.2949256), (0.95534927, -0.018077444, 0.2949256), (-3.923089e-8, 0.4733843, -0.880856), (-3.923089e-8, 0.4733843, -0.880856), (-3.923089e-8, 0.4733843, -0.880856), (-3.923089e-8, 0.4733843, -0.880856), (-0.88709384, 0.17571028, -0.42683774), (-0.88709384, 0.17571028, -0.42683774), (-0.88709384, 0.17571028, -0.42683774), (-0.88709384, 0.17571028, -0.42683774), (0.8893848, 0.17409219, -0.4227134), (0.8893848, 0.17409219, -0.4227134), (0.8893848, 0.17409219, -0.4227134), (0.8893848, 0.17409219, -0.4227134), (-0.8229523, 0.2525533, 0.50888747), (-0.8229523, 0.2525533, 0.50888747), (-0.8229523, 0.2525533, 0.50888747), (-0.8229523, 0.2525533, 0.50888747), (0.8229526, 0.25253886, 0.508894), (0.8229526, 0.25253886, 0.508894), (0.8229526, 0.25253886, 0.508894), (0.8229526, 0.25253886, 0.508894)] (
                interpolation = "faceVarying"
            )
            point3f[] points = [(0.024231859, -0.002833324, -0.011545496), (0.043078933, 0.5945612, -0.011545496), (0.46130687, 0.49570236, -0.011545496), (0.5985977, 0.10112868, -0.0028690055), (0.5695713, -0.31768522, -0.011545496), (0.19921665, -0.5084034, -0.0028690055), (-0.21806398, -0.5945612, -0.011545496), (-0.5453395, -0.32037756, -0.011545496), (-0.5985977, 0.09574384, -0.011545496), (-0.3913037, 0.49300984, -0.0028690055), (0.024231859, -0.002833324, -0.026891349), (0.043078933, 0.5945612, -0.026891349), (0.46130687, 0.49570236, -0.026891349), (0.5985977, 0.10112868, -0.018214857), (0.5695713, -0.31768522, -0.026891349), (0.19921665, -0.5084034, -0.018214857), (-0.21806398, -0.5945612, -0.026891349), (-0.5453395, -0.32037756, -0.026891349), (-0.5985977, 0.09574384, -0.026891349), (-0.3913037, 0.49300984, -0.018214857), (0.11455448, 0.22228087, 0.13808668), (0.044320818, 0.25444776, 0.13700286), (0.12037025, 0.16061367, 0.041004553), (-0.006243181, 0.21860237, 0.03905071), (0.02360783, 0.03623592, 0.0019727803), (-0.029315462, 0.070935115, 0.0019727803), (0.0736278, 0.22736615, 0.18761915), (-0.121170916, 0.2218869, 0.13808668), (-0.18098897, 0.1730067, 0.13700286), (-0.063248195, 0.199941, 0.041004553), (-0.17108491, 0.11182241, 0.03905071), (0.0057820096, 0.05828078, 0.0019727803), (-0.04868345, 0.026056234, 0.0019727803), (-0.143766, 0.18738598, 0.18761915), (-0.22556998, 0.021995988, 0.13808668), (-0.21209401, -0.054068945, 0.13700286), (-0.17814957, 0.06184532, 0.041004553), (-0.15385583, -0.07528037, 0.03905071), (-0.020815289, 0.05297257, 0.0019727803), (-0.019265473, -0.010292786, 0.0019727803), (-0.20648128, -0.014561862, 0.18761915), (-0.09879391, -0.1682476, 0.13808668), (-0.025423314, -0.19241853, 0.13700286), (-0.11141983, -0.107607275, 0.041004553), (0.020848665, -0.15118125, 0.03905071), (-0.029063614, 0.026743922, 0.0019727803), (0.027384736, -0.0018653848, 0.0019727803), (-0.057555653, -0.16875789, 0.18761915), (0.10819313, -0.16418016, 0.13808668), (0.1694753, -0.117148556, 0.13700286), (0.050967257, -0.14047651, 0.041004553), (0.16144337, -0.055690456, 0.03905071), (-0.013706887, 0.0032247296, 0.0019727803), (0.041716788, 0.033771817, 0.0019727803), (0.1318308, -0.13038498, 0.18761915), (0.2161453, -0.005269826, 0.13808668), (0.21807143, 0.07195561, 0.13700286), (0.16174498, -0.03488856, 0.041004553), (0.16521733, 0.10432919, 0.03905071), (0.0093209045, 0.005107626, 0.0019727803), (0.020388372, 0.06741668, 0.0019727803), (0.20471121, 0.034354858, 0.18761915), (0.034893446, -0.04996785, 0.15683563), (0.079716794, 0.003699612, 0.15683563), (0.012626914, -0.08208909, 0.06440255), (0.10756023, 0.031575587, 0.06440255), (0.0026632517, -0.012621688, 0.0065311277), (0.04542969, 0.025479853, 0.0065311277), (0.052467775, -0.018916773, 0.19083104), (0.07042935, 0.073903196, 0.15683563), (0.013109854, 0.11395075, 0.15683563), (0.10473432, 0.05341778, 0.06440255), (-0.016665163, 0.13823621, 0.06440255), (0.035062164, 0.042912126, 0.0065311277), (-0.0031714158, 0.07288446, 0.0065311277), (0.0382852, 0.0882879, 0.19083104), (-0.054994605, 0.09942296, 0.15683563), (-0.090857744, 0.0393966, 0.15683563), (-0.036625333, 0.1340438, 0.06440255), (-0.11258143, 0.0069113267, 0.06440255), (-0.021870129, 0.071035996, 0.0065311277), (-0.048231974, 0.021858918, 0.0065311277), (-0.06675679, 0.06587944, 0.19083104), (-0.0771413, -0.019905694, 0.15683563), (-0.018476697, -0.0579556, 0.15683563), (-0.11075697, -0.001293014, 0.06440255), (0.013491366, -0.081880555, 0.06440255), (-0.043810427, 0.011282927, 0.0065311277), (-0.0031905917, -0.015063119, 0.0065311277), (-0.043796536, -0.033342868, 0.19083104), (0.05222417, -0.004950108, 0.121924944), (0.05851246, 0.04700342, 0.121924944), (0.04258065, -0.024941115, 0.05778618), (0.05391685, 0.06871788, 0.05778618), (0.016776586, 0.0053738304, 0.009433224), (0.028112777, 0.04671559, 0.009433224), (0.03157983, 0.023905942, 0.14736797), (0.024089262, 0.087302774, 0.121924944), (-0.028212417, 0.089104936, 0.121924944), (0.04483477, 0.079412155, 0.05778618), (-0.049451835, 0.082661, 0.05778618), (0.01450331, 0.053439222, 0.009433224), (-0.021710772, 0.056688063, 0.009433224), (-0.0028867517, 0.06425597, 0.14736797), (-0.065059476, 0.05224617, 0.121924944), (-0.06313177, -0.000051024133, 0.121924944), (-0.05866654, 0.073501006, 0.05778618), (-0.055191386, -0.020777522, 0.05778618), (-0.03269913, 0.047912043, 0.009433224), (-0.02922398, 0.0062968205, 0.009433224), (-0.04014978, 0.02698023, 0.14736797), (-0.030367266, -0.031701524, 0.121924944), (0.021965452, -0.031701528, 0.121924944), (-0.051372197, -0.02453, 0.05778618), (0.042970374, -0.024530008, 0.05778618), (-0.022140399, 0.0014567507, 0.009433224), (0.014095185, 0.0014567553, 0.009433224), (-0.0042009074, -0.0077394303, 0.14736797), (0.1207875, 0.23575908, 0.13417977), (0.050550718, 0.2679181, 0.13306364), (0.12447383, 0.16901164, 0.028821807), (-0.002131369, 0.22701922, 0.026884368), (0.0254893, 0.03956753, -0.012897977), (-0.027433995, 0.07426672, -0.012897977), (0.07978689, 0.24093795, 0.19131422), (-0.13052468, 0.2334202, 0.13417977), (-0.1903369, 0.18453366, 0.13306364), (-0.06897913, 0.20732425, 0.028821807), (-0.17682955, 0.1192218, 0.026884368), (0.0036204762, 0.06143751, -0.012897977), (-0.050844986, 0.029212963, -0.012897977), (-0.1532364, 0.19889367, 0.19131422), (-0.24020147, 0.019459555, 0.13417977), (-0.22671697, -0.05660364, 0.13306364), (-0.18739092, 0.060446363, 0.028821807), (-0.16311783, -0.076683745, 0.026884368), (-0.024625773, 0.052626144, -0.012897977), (-0.023075955, -0.010639208, -0.012897977), (-0.22114725, -0.017212987, 0.19131422), (-0.10349243, -0.18233424, 0.13417977), (-0.03011959, -0.20649692, 0.13306364), (-0.114566326, -0.11640857, 0.028821807), (0.017696058, -0.16000246, 0.026884368), (-0.030564247, 0.023224324, -0.012897977), (0.025884103, -0.0053849826, -0.012897977), (-0.06217004, -0.1829294, 0.19131422), (0.117190614, -0.17599373, 0.13417977), (0.17846711, -0.12895538, 0.13306364), (0.056470055, -0.14803152, 0.028821807), (0.16695924, -0.06326183, 0.026884368), (-0.011642773, 0.0000035985022, -0.012897977), (0.043780897, 0.030550687, -0.012897977), (0.14094585, -0.14217651, 0.19131422), (0.23098874, -0.0056948243, 0.13417977), (0.23290648, 0.07153034, 0.13306364), (0.17107998, -0.035355963, 0.028821807), (0.17457305, 0.103862, 0.026884368), (0.013123909, 0.0046887356, -0.012897977), (0.024191374, 0.06699779, -0.012897977), (0.21961139, 0.034034736, 0.19131422), (0.04664093, -0.059779275, 0.15806156), (0.09146428, -0.0061118095, 0.15806298), (0.023720758, -0.091670506, 0.059831146), (0.11865813, 0.021991765, 0.05984614), (0.011417283, -0.020563971, -0.0032700861), (0.054183718, 0.01753757, -0.0032700861), (0.06404874, -0.028589226, 0.19367884), (0.0791979, 0.08645358, 0.15801235), (0.02187842, 0.12650113, 0.15800908), (0.11321598, 0.06542034, 0.0599558), (-0.008184087, 0.1502375, 0.059950642), (0.042009354, 0.052573454, -0.0031730789), (0.0037757778, 0.082545795, -0.0031730789), (0.04691713, 0.10064329, 0.19376507), (-0.06814045, 0.10727681, 0.1579697), (-0.10400357, 0.047250446, 0.15796688), (-0.04926081, 0.14150518, 0.059879884), (-0.12520622, 0.014365708, 0.05983958), (-0.032242894, 0.0770555, -0.0030578002), (-0.058604732, 0.027878424, -0.0030578002), (-0.07965959, 0.07358786, 0.19397314), (-0.0854717, -0.032750085, 0.15801984), (-0.026807098, -0.07079999, 0.1580222), (-0.11875454, -0.013624253, 0.05995861), (0.005494378, -0.09421051, 0.05995299), (-0.0502975, 0.0012812802, -0.0031468386), (-0.00967766, -0.025064759, -0.0031468386), (-0.05198636, -0.045970373, 0.19387284), (0.06725838, -0.0067701056, 0.12446019), (0.07354668, 0.04518342, 0.12446019), (0.057136457, -0.027004033, 0.053353965), (0.06846912, 0.06665401, 0.053341784), (0.030097727, 0.003136341, 0.0021321054), (0.04143392, 0.044478107, 0.0021321054), (0.04267676, 0.022562806, 0.15789555), (0.02461104, 0.10243808, 0.12446019), (-0.027690638, 0.104240246, 0.12446019), (0.045439128, 0.094122045, 0.053424265), (-0.04884722, 0.09736922, 0.053418633), (0.015175824, 0.066945575, 0.0021602225), (-0.02103826, 0.070194416, 0.0021602225), (-0.0025015618, 0.075427264, 0.15789555), (-0.0801933, 0.051688183, 0.12446019), (-0.07826561, -0.0006090078, 0.12446019), (-0.07336319, 0.07286683, 0.053383023), (-0.06988299, -0.02141197, 0.05336709), (-0.04620858, 0.047221392, 0.002167721), (-0.042733423, 0.005606166, 0.002167721), (-0.051320463, 0.026568474, 0.15789555), (-0.030367529, -0.046845667, 0.12446019), (0.021965194, -0.046845667, 0.12446019), (-0.051372502, -0.039253328, 0.05342754), (0.042970423, -0.039251447, 0.05342098), (-0.022140753, -0.012068734, 0.0021644393), (0.014094833, -0.012068734, 0.0021644393), (-0.0042009335, -0.018917425, 0.15789555)]
            uniform token subdivisionScheme = "none"
            uniform token subsetFamily:materialBind:familyType = "nonOverlapping"
            custom string userProperties:blender:data_name = "Cylinder.016"

            def GeomSubset "Green" (
                prepend apiSchemas = ["MaterialBindingAPI"]
            )
            {
                uniform token elementType = "face"
                uniform token familyName = "materialBind"
                int[] indices = [0, 1, 2, 3, 4, 5, 6, 7, 8, 9, 10, 11, 12, 13, 14, 15, 16, 17, 18, 19, 20, 21, 22, 23, 24, 25]
                rel material:binding = </root/_materials/Green>
            }

            def GeomSubset "Pink" (
                prepend apiSchemas = ["MaterialBindingAPI"]
            )
            {
                uniform token elementType = "face"
                uniform token familyName = "materialBind"
                int[] indices = [26, 27, 28, 29, 30, 31, 32, 33, 34, 35, 36, 37, 38, 39, 40, 41, 42, 43, 44, 45, 46, 47, 48, 49, 50, 51, 52, 53, 54, 55, 56, 57, 58, 59, 60, 61, 62, 63, 64, 65, 66, 67, 68, 69, 70, 71, 72, 73, 74, 75, 76, 77, 78, 79, 80, 81, 82, 83, 84, 85, 86, 87, 88, 89, 90, 91, 92, 93, 94, 95, 96, 97, 98, 99, 100, 101, 102, 103, 104, 105, 106, 107, 108, 109, 110, 111, 112, 113, 114, 115, 116, 117, 118, 119, 120, 121, 122, 123, 124, 125, 126, 127, 128, 129, 130, 131, 132, 133, 134, 135, 136, 137, 138, 139, 140, 141, 142, 143, 144, 145, 146, 147, 148, 149, 150, 151, 152, 153, 154, 155, 156, 157, 158, 159, 160, 161, 162, 163, 164, 165, 166, 167, 168, 169, 170, 171, 172, 173, 174, 175, 176, 177, 178, 179, 180, 181, 182, 183, 184, 185, 186, 187, 188, 189, 190, 191, 192, 193, 194, 195, 196, 197, 198, 199, 200, 201, 202, 203, 204, 205, 206, 207]
                rel material:binding = </root/_materials/Pink>
            }
        }
    }

    def Scope "_materials"
    {
        def Material "Green"
        {
            token outputs:surface.connect = </root/_materials/Green/Principled_BSDF.outputs:surface>
            custom string userProperties:blender:data_name = "Green"

            def Shader "Principled_BSDF"
            {
                uniform token info:id = "UsdPreviewSurface"
                float inputs:clearcoat = 0
                float inputs:clearcoatRoughness = 0.03
                color3f inputs:diffuseColor = (0.08744194, 0.15232062, 0.059860136)
                float inputs:ior = 1.5
                float inputs:metallic = 0
                float inputs:opacity = 1
                float inputs:roughness = 0.6900348
                float inputs:specular = 0.5
                token outputs:surface
            }
        }

        def Material "Pink"
        {
            token outputs:surface.connect = </root/_materials/Pink/Principled_BSDF.outputs:surface>
            custom string userProperties:blender:data_name = "Pink"

            def Shader "Principled_BSDF"
            {
                uniform token info:id = "UsdPreviewSurface"
                float inputs:clearcoat = 0
                float inputs:clearcoatRoughness = 0.03
                color3f inputs:diffuseColor = (0.46719855, 0.1130579, 0.27700427)
                float inputs:ior = 1.5
                float inputs:metallic = 0
                float inputs:opacity = 1
                float inputs:roughness = 0.6900348
                float inputs:specular = 0.5
                token outputs:surface
            }
        }
    }
}

