#usda 1.0
(
    defaultPrim = "root"
    doc = "Blender v5.1.2"
    metersPerUnit = 1
    upAxis = "Y"
)

def Xform "root" (
    customData = {
        dictionary Blender = {
            bool generated = 1
        }
    }
)
{
    float3 xformOp:rotateXYZ = (-90, -0, 0)
    uniform token[] xformOpOrder = ["xformOp:rotateXYZ"]

    def Xform "Bars"
    {
        custom string userProperties:blender:object_name = "Bars"

        def Mesh "Cube_025" (
            active = true
            prepend apiSchemas = ["MaterialBindingAPI"]
        )
        {
            uniform bool doubleSided = 1
            float3[] extent = [(-0.06473382, -0.7753767, -0.013712577), (0.06473382, 0.7753739, 2.4105542)]
            int[] faceVertexCounts = [4, 4, 4, 4, 4, 4, 4, 4, 4, 4, 4, 4, 4, 4, 4, 4, 4, 4, 4, 4, 4, 4, 4, 4, 4, 4, 4, 4, 4, 4, 4, 4, 4, 4, 4, 4, 4, 4, 4, 4, 4, 4, 4, 4, 4, 4, 4, 4, 4, 4, 4, 4, 4, 4, 4, 4, 4, 4, 4, 4, 4, 4, 4, 4, 4, 4, 4, 4, 4, 4, 4, 4, 4, 4, 4, 4, 4, 4, 4, 4, 4, 4, 4, 4, 4, 4, 4, 4, 4, 4, 4, 4, 4, 4, 4, 4, 4, 4, 4, 4, 4, 4, 4, 4, 4, 4, 4, 4, 4, 4, 4, 4, 4, 4, 4, 4, 4, 4, 4, 4, 4, 4, 4, 4, 4, 4, 4, 4, 4, 4, 4, 4, 4, 4, 4, 4, 4, 4, 4, 4, 4, 4, 4, 4, 4, 4, 4, 4, 4, 4, 4, 4, 4, 4, 4, 4, 4, 4, 4, 4, 4, 4, 4, 4, 4, 4, 4, 4, 4, 4, 4, 4, 4, 4, 4, 4, 4, 4, 4, 4, 4, 4, 4, 4, 4, 4, 4, 4, 4, 4, 4, 4, 4, 4, 4, 4, 4, 4, 4, 4, 4, 4, 4, 4, 4, 4, 4, 4, 4, 4, 4, 4, 4, 4, 4, 4, 4, 4, 4, 4, 4, 4, 4, 4, 4, 4, 4, 4, 4, 4, 4, 4, 4, 4, 4, 4, 4, 4, 4, 4, 4, 4, 4, 4, 4, 4, 4, 4, 4, 4, 4, 4, 4, 4, 4, 4]
            int[] faceVertexIndices = [1, 3, 2, 0, 3, 7, 6, 2, 7, 5, 4, 6, 5, 1, 0, 4, 0, 2, 6, 4, 3, 1, 8, 9, 9, 8, 12, 13, 23, 27, 50, 48, 34, 30, 109, 111, 5, 7, 10, 11, 16, 12, 45, 47, 8, 11, 15, 12, 10, 9, 13, 14, 11, 10, 14, 15, 19, 18, 22, 23, 13, 17, 102, 100, 15, 14, 18, 19, 13, 12, 16, 17, 28, 31, 52, 53, 17, 16, 20, 21, 16, 19, 23, 20, 18, 17, 21, 22, 26, 25, 29, 30, 10, 7, 97, 99, 23, 22, 26, 27, 21, 20, 24, 25, 31, 30, 34, 35, 27, 26, 30, 31, 25, 24, 28, 29, 24, 27, 31, 28, 32, 35, 39, 36, 29, 28, 32, 33, 5, 11, 42, 40, 7, 3, 96, 97, 39, 38, 37, 36, 34, 33, 37, 38, 35, 34, 38, 39, 33, 32, 36, 37, 18, 14, 101, 103, 21, 25, 106, 104, 9, 10, 99, 98, 14, 13, 100, 101, 26, 22, 105, 107, 17, 18, 103, 102, 22, 21, 104, 105, 29, 33, 110, 108, 25, 26, 107, 106, 30, 29, 108, 109, 33, 34, 111, 110, 3, 9, 98, 96, 41, 40, 42, 43, 45, 44, 46, 47, 49, 48, 50, 51, 53, 52, 54, 55, 35, 32, 55, 54, 24, 20, 49, 51, 31, 35, 54, 52, 32, 28, 53, 55, 11, 8, 43, 42, 12, 15, 44, 45, 8, 1, 41, 43, 19, 16, 47, 46, 20, 23, 48, 49, 15, 19, 46, 44, 1, 5, 40, 41, 27, 24, 51, 50, 57, 56, 58, 59, 59, 58, 62, 63, 63, 62, 60, 61, 61, 60, 56, 57, 56, 60, 62, 58, 59, 65, 64, 57, 65, 69, 68, 64, 79, 232, 234, 83, 90, 111, 109, 86, 61, 67, 66, 63, 72, 231, 229, 68, 64, 68, 71, 67, 66, 70, 69, 65, 67, 71, 70, 66, 75, 79, 78, 74, 69, 100, 102, 73, 71, 75, 74, 70, 69, 73, 72, 68, 84, 237, 236, 87, 73, 77, 76, 72, 72, 76, 79, 75, 74, 78, 77, 73, 82, 86, 85, 81, 66, 99, 97, 63, 79, 83, 82, 78, 77, 81, 80, 76, 87, 91, 90, 86, 83, 87, 86, 82, 81, 85, 84, 80, 80, 84, 87, 83, 88, 92, 95, 91, 85, 89, 88, 84, 61, 224, 226, 67, 63, 97, 96, 59, 95, 92, 93, 94, 90, 94, 93, 89, 91, 95, 94, 90, 89, 93, 92, 88, 74, 103, 101, 70, 77, 104, 106, 81, 65, 98, 99, 66, 70, 101, 100, 69, 82, 107, 105, 78, 73, 102, 103, 74, 78, 105, 104, 77, 85, 108, 110, 89, 81, 106, 107, 82, 86, 109, 108, 85, 89, 110, 111, 90, 59, 96, 98, 65, 91, 238, 239, 88, 80, 235, 233, 76, 87, 236, 238, 91, 88, 239, 237, 84, 67, 226, 227, 64, 68, 229, 228, 71, 64, 227, 225, 57, 75, 230, 231, 72, 76, 233, 232, 79, 71, 228, 230, 75, 57, 225, 224, 61, 83, 234, 235, 80, 113, 112, 114, 115, 115, 114, 118, 119, 119, 118, 116, 117, 117, 116, 112, 113, 112, 116, 118, 114, 115, 121, 120, 113, 121, 125, 124, 120, 135, 160, 162, 139, 146, 223, 221, 142, 117, 123, 122, 119, 128, 159, 157, 124, 120, 124, 127, 123, 122, 126, 125, 121, 123, 127, 126, 122, 131, 135, 134, 130, 125, 212, 214, 129, 127, 131, 130, 126, 125, 129, 128, 124, 140, 165, 164, 143, 129, 133, 132, 128, 128, 132, 135, 131, 130, 134, 133, 129, 138, 142, 141, 137, 122, 211, 209, 119, 135, 139, 138, 134, 133, 137, 136, 132, 143, 147, 146, 142, 139, 143, 142, 138, 137, 141, 140, 136, 136, 140, 143, 139, 144, 148, 151, 147, 141, 145, 144, 140, 117, 152, 154, 123, 119, 209, 208, 115, 151, 148, 149, 150, 146, 150, 149, 145, 147, 151, 150, 146, 145, 149, 148, 144, 130, 215, 213, 126, 133, 216, 218, 137, 121, 210, 211, 122, 126, 213, 212, 125, 138, 219, 217, 134, 129, 214, 215, 130, 134, 217, 216, 133, 141, 220, 222, 145, 137, 218, 219, 138, 142, 221, 220, 141, 145, 222, 223, 146, 115, 208, 210, 121, 153, 155, 154, 152, 157, 159, 158, 156, 161, 163, 162, 160, 165, 167, 166, 164, 147, 166, 167, 144, 136, 163, 161, 132, 143, 164, 166, 147, 144, 167, 165, 140, 123, 154, 155, 120, 124, 157, 156, 127, 120, 155, 153, 113, 131, 158, 159, 128, 132, 161, 160, 135, 127, 156, 158, 131, 113, 153, 152, 117, 139, 162, 163, 136, 169, 171, 170, 168, 171, 175, 174, 170, 175, 173, 172, 174, 173, 169, 168, 172, 168, 170, 174, 172, 171, 169, 176, 177, 177, 176, 180, 181, 191, 195, 234, 232, 202, 198, 221, 223, 173, 175, 178, 179, 184, 180, 229, 231, 176, 179, 183, 180, 178, 177, 181, 182, 179, 178, 182, 183, 187, 186, 190, 191, 181, 185, 214, 212, 183, 182, 186, 187, 181, 180, 184, 185, 196, 199, 236, 237, 185, 184, 188, 189, 184, 187, 191, 188, 186, 185, 189, 190, 194, 193, 197, 198, 178, 175, 209, 211, 191, 190, 194, 195, 189, 188, 192, 193, 199, 198, 202, 203, 195, 194, 198, 199, 193, 192, 196, 197, 192, 195, 199, 196, 200, 203, 207, 204, 197, 196, 200, 201, 173, 179, 226, 224, 175, 171, 208, 209, 207, 206, 205, 204, 202, 201, 205, 206, 203, 202, 206, 207, 201, 200, 204, 205, 186, 182, 213, 215, 189, 193, 218, 216, 177, 178, 211, 210, 182, 181, 212, 213, 194, 190, 217, 219, 185, 186, 215, 214, 190, 189, 216, 217, 197, 201, 222, 220, 193, 194, 219, 218, 198, 197, 220, 221, 201, 202, 223, 222, 171, 177, 210, 208, 203, 200, 239, 238, 192, 188, 233, 235, 199, 203, 238, 236, 200, 196, 237, 239, 179, 176, 227, 226, 180, 183, 228, 229, 176, 169, 225, 227, 187, 184, 231, 230, 188, 191, 232, 233, 183, 187, 230, 228, 169, 173, 224, 225, 195, 192, 235, 234]
            rel material:binding = </root/_materials/Steel>
            normal3f[] normals = [(-1, 0, 0), (-1, 0, 0), (-1, 0, 0), (-1, 0, 0), (0, 1, 0), (0, 1, 0), (0, 1, 0), (0, 1, 0), (1, 0, 0), (1, 0, 0), (1, 0, 0), (1, 0, 0), (0, -1, 0), (0, -1, 0), (0, -1, 0), (0, -1, 0), (0, 0, -0.99999994), (0, 0, -0.99999994), (0, 0, -0.99999994), (0, 0, -0.99999994), (-1, 0, 0), (-1, 0, 0), (-1, 0, 0), (-1, 0, 0), (-1, 0, 0), (-1, 0, 0), (-1, 0, 0), (-1, 0, 0), (1, 0, 0), (1, 0, 0), (1, 0, 0), (1, 0, 0), (1, 0, 0), (1, 0, 0), (1, 0, 0), (1, 0, 0), (1, 0, 0), (1, 0, 0), (1, 0, 0), (1, 0, 0), (-1, 0, 0), (-1, 0, 0), (-1, 0, 0), (-1, 0, 0), (0, -1, 0), (0, -1, 0), (0, -1, 0), (0, -1, 0), (0, 1, 0), (0, 1, 0), (0, 1, 0), (0, 1, 0), (1, 0, 0), (1, 0, 0), (1, 0, 0), (1, 0, 0), (1, 0, 0), (1, 0, 0), (1, 0, 0), (1, 0, 0), (-1, 0, 0), (-1, 0, 0), (-1, 0, 0), (-1, 0, 0), (1, 0, 0), (1, 0, 0), (1, 0, 0), (1, 0, 0), (-1, 0, 0), (-1, 0, 0), (-1, 0, 0), (-1, 0, 0), (0, 0, -1), (0, 0, -1), (0, 0, -1), (0, 0, -1), (-1, 0, 0), (-1, 0, 0), (-1, 0, 0), (-1, 0, 0), (0, -0.99999994, 0), (0, -0.99999994, 0), (0, -0.99999994, 0), (0, -0.99999994, 0), (0, 0.99999994, 0), (0, 0.99999994, 0), (0, 0.99999994, 0), (0, 0.99999994, 0), (0, 1, 0), (0, 1, 0), (0, 1, 0), (0, 1, 0), (1, 0, 0), (1, 0, 0), (1, 0, 0), (1, 0, 0), (1, 0, 0), (1, 0, 0), (1, 0, 0), (1, 0, 0), (-1, 0, 0), (-1, 0, 0), (-1, 0, 0), (-1, 0, 0), (1, 0, 0), (1, 0, 0), (1, 0, 0), (1, 0, 0), (1, 0, 0), (1, 0, 0), (1, 0, 0), (1, 0, 0), (-1, 0, 0), (-1, 0, 0), (-1, 0, 0), (-1, 0, 0), (0, -1, 0), (0, -1, 0), (0, -1, 0), (0, -1, 0), (0, -1, 0), (0, -1, 0), (0, -1, 0), (0, -1, 0), (-1, 0, 0), (-1, 0, 0), (-1, 0, 0), (-1, 0, 0), (1, 0, 0), (1, 0, 0), (1, 0, 0), (1, 0, 0), (0, 0, -1), (0, 0, -1), (0, 0, -1), (0, 0, -1), (0, 0, 0.99999994), (0, 0, 0.99999994), (0, 0, 0.99999994), (0, 0, 0.99999994), (0, 1, 0), (0, 1, 0), (0, 1, 0), (0, 1, 0), (1, 0, 0), (1, 0, 0), (0.99999994, 0, 0), (0.99999994, 0, 0), (-1, 0, 0), (-1, 0, 0), (-0.99999994, 0, 0), (-0.99999994, 0, 0), (1, 0, 0), (1, 0, 0), (1, 0, 0), (1, 0, 0), (-1, 0, 0), (-1, 0, 0), (-1, 0, 0), (-1, 0, 0), (0, 0, 1), (0, 0, 1), (0, 0, 1), (0, 0, 1), (0, 0, -1), (0, 0, -1), (0, 0, -1), (0, 0, -1), (1, 0, 0), (1, 0, 0), (1, 0, 0), (1, 0, 0), (0, 0, 1), (0, 0, 1), (0, 0, 1), (0, 0, 1), (0, 0, -1), (0, 0, -1), (0, 0, -1), (0, 0, -1), (-1, 0, 0), (-1, 0, 0), (-1, 0, 0), (-1, 0, 0), (0, 0, 1), (0, 0, 1), (0, 0, 1), (0, 0, 1), (0, 0, -1), (0, 0, -1), (0, 0, -1), (0, 0, -1), (0, 0, 1), (0, 0, 1), (0, 0, 1), (0, 0, 1), (-1, 0, 0), (-1, 0, 0), (-1, 0, 0), (-1, 0, 0), (0, -1, 0), (0, -1, 0), (0, -1, 0), (0, -1, 0), (0, -0.99999994, 0), (0, -0.99999994, 0), (0, -0.99999994, 0), (0, -0.99999994, 0), (0, -0.99999994, 0), (0, -0.99999994, 0), (0, -0.99999994, 0), (0, -0.99999994, 0), (0, -1, 0), (0, -1, 0), (0, -1, 0), (0, -1, 0), (0, 0, 1), (0, 0, 1), (0, 0, 1), (0, 0, 1), (-1, 0, 0), (-1, 0, 0), (-1, 0, 0), (-1, 0, 0), (1, 0, 0), (1, 0, 0), (1, 0, 0), (1, 0, 0), (-1, 0, 0), (-1, 0, 0), (-1, 0, 0), (-1, 0, 0), (0, 0, 1), (0, 0, 1), (0, 0, 1), (0, 0, 1), (0, 0, -1), (0, 0, -1), (0, 0, -1), (0, 0, -1), (-1, 0, 0), (-1, 0, 0), (-1, 0, 0), (-1, 0, 0), (0, 0, 1), (0, 0, 1), (0, 0, 1), (0, 0, 1), (0, 0, -1), (0, 0, -1), (0, 0, -1), (0, 0, -1), (1, 0, 0), (1, 0, 0), (1, 0, 0), (1, 0, 0), (0, 0, -1), (0, 0, -1), (0, 0, -1), (0, 0, -1), (0, 0, 1), (0, 0, 1), (0, 0, 1), (0, 0, 1), (-1, 0, 0), (-1, 0, 0), (-1, 0, 0), (-1, 0, 0), (0, -1, 0), (0, -1, 0), (0, -1, 0), (0, -1, 0), (1, 0, 0), (1, 0, 0), (1, 0, 0), (1, 0, 0), (0, 1, 0), (0, 1, 0), (0, 1, 0), (0, 1, 0), (0, 0, -1), (0, 0, -1), (0, 0, -1), (0, 0, -1), (-1, 0, 0), (-1, 0, 0), (-1, 0, 0), (-1, 0, 0), (-1, 0, 0), (-1, 0, 0), (-1, 0, 0), (-1, 0, 0), (1, 0, 0), (1, 0, 0), (1, 0, 0), (1, 0, 0), (1, 0, 0), (1, 0, 0), (1, 0, 0), (1, 0, 0), (1, 0, 0), (1, 0, 0), (1, 0, 0), (1, 0, 0), (-1, 0, 0), (-1, 0, 0), (-1, 0, 0), (-1, 0, 0), (0, 1, 0), (0, 1, 0), (0, 1, 0), (0, 1, 0), (0, -1, 0), (0, -1, 0), (0, -1, 0), (0, -1, 0), (1, 0, 0), (1, 0, 0), (1, 0, 0), (1, 0, 0), (1, 0, 0), (1, 0, 0), (1, 0, 0), (1, 0, 0), (-1, 0, 0), (-1, 0, 0), (-1, 0, 0), (-1, 0, 0), (1, 0, 0), (1, 0, 0), (1, 0, 0), (1, 0, 0), (-1, 0, 0), (-1, 0, 0), (-1, 0, 0), (-1, 0, 0), (0, 0, -1), (0, 0, -1), (0, 0, -1), (0, 0, -1), (-1, 0, 0), (-1, 0, 0), (-1, 0, 0), (-1, 0, 0), (0, 0.99999994, 0), (0, 0.99999994, 0), (0, 0.99999994, 0), (0, 0.99999994, 0), (0, -0.99999994, 0), (0, -0.99999994, 0), (0, -0.99999994, 0), (0, -0.99999994, 0), (0, -1, 0), (0, -1, 0), (0, -1, 0), (0, -1, 0), (1, 0, 0), (1, 0, 0), (1, 0, 0), (1, 0, 0), (1, 0, 0), (1, 0, 0), (1, 0, 0), (1, 0, 0), (-1, 0, 0), (-1, 0, 0), (-1, 0, 0), (-1, 0, 0), (1, 0, 0), (1, 0, 0), (1, 0, 0), (1, 0, 0), (1, 0, 0), (1, 0, 0), (1, 0, 0), (1, 0, 0), (-1, 0, 0), (-1, 0, 0), (-1, 0, 0), (-1, 0, 0), (0, 1, 0), (0, 1, 0), (0, 1, 0), (0, 1, 0), (0, 1, 0), (0, 1, 0), (0, 1, 0), (0, 1, 0), (-1, 0, 0), (-1, 0, 0), (-1, 0, 0), (-1, 0, 0), (1, 0, 0), (1, 0, 0), (1, 0, 0), (1, 0, 0), (0, 0, -1), (0, 0, -1), (0, 0, -1), (0, 0, -1), (0, 0, 1), (0, 0, 1), (0, 0, 1), (0, 0, 1), (0, -1, 0), (0, -1, 0), (0, -1, 0), (0, -1, 0), (1, 0, 0), (0.99999994, 0, 0), (0.99999994, 0, 0), (1, 0, 0), (-1, 0, 0), (-0.99999994, 0, 0), (-0.99999994, 0, 0), (-1, 0, 0), (1, 0, 0), (1, 0, 0), (1, 0, 0), (1, 0, 0), (-1, 0, 0), (-1, 0, 0), (-1, 0, 0), (-1, 0, 0), (0, 0, 1), (0, 0, 1), (0, 0, 1), (0, 0, 1), (0, 0, -1), (0, 0, -1), (0, 0, -1), (0, 0, -1), (1, 0, 0), (1, 0, 0), (1, 0, 0), (1, 0, 0), (0, 0, 1), (0, 0, 1), (0, 0, 1), (0, 0, 1), (0, 0, -1), (0, 0, -1), (0, 0, -1), (0, 0, -1), (-1, 0, 0), (-1, 0, 0), (-1, 0, 0), (-1, 0, 0), (0, 0, 1), (0, 0, 1), (0, 0, 1), (0, 0, 1), (0, 0, -1), (0, 0, -1), (0, 0, -1), (0, 0, -1), (0, 0, 1), (0, 0, 1), (0, 0, 1), (0, 0, 1), (-1, 0, 0), (-1, 0, 0), (-1, 0, 0), (-1, 0, 0), (0, 0, 1), (0, 0, 1), (0, 0, 1), (0, 0, 1), (-1, 0, 0), (-1, 0, 0), (-1, 0, 0), (-1, 0, 0), (1, 0, 0), (1, 0, 0), (1, 0, 0), (1, 0, 0), (-1, 0, 0), (-1, 0, 0), (-1, 0, 0), (-1, 0, 0), (0, 0, 1), (0, 0, 1), (0, 0, 1), (0, 0, 1), (0, 0, -1), (0, 0, -1), (0, 0, -1), (0, 0, -1), (-1, 0, 0), (-1, 0, 0), (-1, 0, 0), (-1, 0, 0), (0, 0, 1), (0, 0, 1), (0, 0, 1), (0, 0, 1), (0, 0, -1), (0, 0, -1), (0, 0, -1), (0, 0, -1), (1, 0, 0), (1, 0, 0), (1, 0, 0), (1, 0, 0), (0, 0, -1), (0, 0, -1), (0, 0, -1), (0, 0, -1), (0, 0, 1), (0, 0, 1), (0, 0, 1), (0, 0, 1), (-1, 0, 0), (-1, 0, 0), (-1, 0, 0), (-1, 0, 0), (0, -1, 0), (0, -1, 0), (0, -1, 0), (0, -1, 0), (1, 0, 0), (1, 0, 0), (1, 0, 0), (1, 0, 0), (0, 1, 0), (0, 1, 0), (0, 1, 0), (0, 1, 0), (0, 0, -0.99999994), (0, 0, -0.99999994), (0, 0, -0.99999994), (0, 0, -0.99999994), (-1, 0, 0), (-1, 0, 0), (-1, 0, 0), (-1, 0, 0), (-1, 0, 0), (-1, 0, 0), (-1, 0, 0), (-1, 0, 0), (1, 0, 0), (1, 0, 0), (1, 0, 0), (1, 0, 0), (1, 0, 0), (1, 0, 0), (1, 0, 0), (1, 0, 0), (1, 0, 0), (1, 0, 0), (1, 0, 0), (1, 0, 0), (-1, 0, 0), (-1, 0, 0), (-1, 0, 0), (-1, 0, 0), (0, 1, 0), (0, 1, 0), (0, 1, 0), (0, 1, 0), (0, -1, 0), (0, -1, 0), (0, -1, 0), (0, -1, 0), (1, 0, 0), (1, 0, 0), (1, 0, 0), (1, 0, 0), (1, 0, 0), (1, 0, 0), (1, 0, 0), (1, 0, 0), (-1, 0, 0), (-1, 0, 0), (-1, 0, 0), (-1, 0, 0), (1, 0, 0), (1, 0, 0), (1, 0, 0), (1, 0, 0), (-1, 0, 0), (-1, 0, 0), (-1, 0, 0), (-1, 0, 0), (0, 0, -1), (0, 0, -1), (0, 0, -1), (0, 0, -1), (-1, 0, 0), (-1, 0, 0), (-1, 0, 0), (-1, 0, 0), (0, 0.99999994, 0), (0, 0.99999994, 0), (0, 0.99999994, 0), (0, 0.99999994, 0), (0, -0.99999994, 0), (0, -0.99999994, 0), (0, -0.99999994, 0), (0, -0.99999994, 0), (0, -1, 0), (0, -1, 0), (0, -1, 0), (0, -1, 0), (1, 0, 0), (1, 0, 0), (1, 0, 0), (1, 0, 0), (1, 0, 0), (1, 0, 0), (1, 0, 0), (1, 0, 0), (-1, 0, 0), (-1, 0, 0), (-1, 0, 0), (-1, 0, 0), (1, 0, 0), (1, 0, 0), (1, 0, 0), (1, 0, 0), (1, 0, 0), (1, 0, 0), (1, 0, 0), (1, 0, 0), (-1, 0, 0), (-1, 0, 0), (-1, 0, 0), (-1, 0, 0), (0, 1, 0), (0, 1, 0), (0, 1, 0), (0, 1, 0), (0, 1, 0), (0, 1, 0), (0, 1, 0), (0, 1, 0), (-1, 0, 0), (-1, 0, 0), (-1, 0, 0), (-1, 0, 0), (1, 0, 0), (1, 0, 0), (1, 0, 0), (1, 0, 0), (0, 0, -1), (0, 0, -1), (0, 0, -1), (0, 0, -1), (0, 0, 0.99999994), (0, 0, 0.99999994), (0, 0, 0.99999994), (0, 0, 0.99999994), (0, -1, 0), (0, -1, 0), (0, -1, 0), (0, -1, 0), (1, 0, 0), (0.99999994, 0, 0), (0.99999994, 0, 0), (1, 0, 0), (-1, 0, 0), (-0.99999994, 0, 0), (-0.99999994, 0, 0), (-1, 0, 0), (1, 0, 0), (1, 0, 0), (1, 0, 0), (1, 0, 0), (-1, 0, 0), (-1, 0, 0), (-1, 0, 0), (-1, 0, 0), (0, 0, 1), (0, 0, 1), (0, 0, 1), (0, 0, 1), (0, 0, -1), (0, 0, -1), (0, 0, -1), (0, 0, -1), (1, 0, 0), (1, 0, 0), (1, 0, 0), (1, 0, 0), (0, 0, 1), (0, 0, 1), (0, 0, 1), (0, 0, 1), (0, 0, -1), (0, 0, -1), (0, 0, -1), (0, 0, -1), (-1, 0, 0), (-1, 0, 0), (-1, 0, 0), (-1, 0, 0), (0, 0, 1), (0, 0, 1), (0, 0, 1), (0, 0, 1), (0, 0, -1), (0, 0, -1), (0, 0, -1), (0, 0, -1), (0, 0, 1), (0, 0, 1), (0, 0, 1), (0, 0, 1), (-1, 0, 0), (-1, 0, 0), (-1, 0, 0), (-1, 0, 0), (0, 1, 0), (0, 1, 0), (0, 1, 0), (0, 1, 0), (0, 0.99999994, 0), (0, 0.99999994, 0), (0, 0.99999994, 0), (0, 0.99999994, 0), (0, 0.99999994, 0), (0, 0.99999994, 0), (0, 0.99999994, 0), (0, 0.99999994, 0), (0, 1, 0), (0, 1, 0), (0, 1, 0), (0, 1, 0), (0, 0, 1), (0, 0, 1), (0, 0, 1), (0, 0, 1), (-1, 0, 0), (-1, 0, 0), (-1, 0, 0), (-1, 0, 0), (1, 0, 0), (1, 0, 0), (1, 0, 0), (1, 0, 0), (-1, 0, 0), (-1, 0, 0), (-1, 0, 0), (-1, 0, 0), (0, 0, 1), (0, 0, 1), (0, 0, 1), (0, 0, 1), (0, 0, -1), (0, 0, -1), (0, 0, -1), (0, 0, -1), (-1, 0, 0), (-1, 0, 0), (-1, 0, 0), (-1, 0, 0), (0, 0, 1), (0, 0, 1), (0, 0, 1), (0, 0, 1), (0, 0, -1), (0, 0, -1), (0, 0, -1), (0, 0, -1), (1, 0, 0), (1, 0, 0), (1, 0, 0), (1, 0, 0), (0, 0, -1), (0, 0, -1), (0, 0, -1), (0, 0, -1), (0, 0, 1), (0, 0, 1), (0, 0, 1), (0, 0, 1), (-1, 0, 0), (-1, 0, 0), (-1, 0, 0), (-1, 0, 0), (0, 1, 0), (0, 1, 0), (0, 1, 0), (0, 1, 0), (1, 0, 0), (1, 0, 0), (1, 0, 0), (1, 0, 0), (0, -1, 0), (0, -1, 0), (0, -1, 0), (0, -1, 0), (0, 0, -1), (0, 0, -1), (0, 0, -1), (0, 0, -1), (-1, 0, 0), (-1, 0, 0), (-1, 0, 0), (-1, 0, 0), (-1, 0, 0), (-1, 0, 0), (-1, 0, 0), (-1, 0, 0), (1, 0, 0), (1, 0, 0), (1, 0, 0), (1, 0, 0), (1, 0, 0), (1, 0, 0), (1, 0, 0), (1, 0, 0), (1, 0, 0), (1, 0, 0), (1, 0, 0), (1, 0, 0), (-1, 0, 0), (-1, 0, 0), (-1, 0, 0), (-1, 0, 0), (0, -1, 0), (0, -1, 0), (0, -1, 0), (0, -1, 0), (0, 1, 0), (0, 1, 0), (0, 1, 0), (0, 1, 0), (1, 0, 0), (1, 0, 0), (1, 0, 0), (1, 0, 0), (1, 0, 0), (1, 0, 0), (1, 0, 0), (1, 0, 0), (-1, 0, 0), (-1, 0, 0), (-1, 0, 0), (-1, 0, 0), (1, 0, 0), (1, 0, 0), (1, 0, 0), (1, 0, 0), (-1, 0, 0), (-1, 0, 0), (-1, 0, 0), (-1, 0, 0), (0, 0, -1), (0, 0, -1), (0, 0, -1), (0, 0, -1), (-1, 0, 0), (-1, 0, 0), (-1, 0, 0), (-1, 0, 0), (0, -0.99999994, 0), (0, -0.99999994, 0), (0, -0.99999994, 0), (0, -0.99999994, 0), (0, 0.99999994, 0), (0, 0.99999994, 0), (0, 0.99999994, 0), (0, 0.99999994, 0), (0, 1, 0), (0, 1, 0), (0, 1, 0), (0, 1, 0), (1, 0, 0), (1, 0, 0), (1, 0, 0), (1, 0, 0), (1, 0, 0), (1, 0, 0), (1, 0, 0), (1, 0, 0), (-1, 0, 0), (-1, 0, 0), (-1, 0, 0), (-1, 0, 0), (1, 0, 0), (1, 0, 0), (1, 0, 0), (1, 0, 0), (1, 0, 0), (1, 0, 0), (1, 0, 0), (1, 0, 0), (-1, 0, 0), (-1, 0, 0), (-1, 0, 0), (-1, 0, 0), (0, -1, 0), (0, -1, 0), (0, -1, 0), (0, -1, 0), (0, -1, 0), (0, -1, 0), (0, -1, 0), (0, -1, 0), (-1, 0, 0), (-1, 0, 0), (-1, 0, 0), (-1, 0, 0), (1, 0, 0), (1, 0, 0), (1, 0, 0), (1, 0, 0), (0, 0, -1), (0, 0, -1), (0, 0, -1), (0, 0, -1), (0, 0, 1), (0, 0, 1), (0, 0, 1), (0, 0, 1), (0, 1, 0), (0, 1, 0), (0, 1, 0), (0, 1, 0), (1, 0, 0), (1, 0, 0), (1, 0, 0), (1, 0, 0), (-1, 0, 0), (-1, 0, 0), (-1, 0, 0), (-1, 0, 0), (1, 0, 0), (1, 0, 0), (1, 0, 0), (1, 0, 0), (-1, 0, 0), (-1, 0, 0), (-1, 0, 0), (-1, 0, 0), (0, 0, 1), (0, 0, 1), (0, 0, 1), (0, 0, 1), (0, 0, -1), (0, 0, -1), (0, 0, -1), (0, 0, -1), (1, 0, 0), (1, 0, 0), (1, 0, 0), (1, 0, 0), (0, 0, 1), (0, 0, 1), (0, 0, 1), (0, 0, 1), (0, 0, -1), (0, 0, -1), (0, 0, -1), (0, 0, -1), (-1, 0, 0), (-1, 0, 0), (-1, 0, 0), (-1, 0, 0), (0, 0, 1), (0, 0, 1), (0, 0, 1), (0, 0, 1), (0, 0, -1), (0, 0, -1), (0, 0, -1), (0, 0, -1), (0, 0, 1), (0, 0, 1), (0, 0, 1), (0, 0, 1), (-1, 0, 0), (-1, 0, 0), (-1, 0, 0), (-1, 0, 0), (0, 0, 1), (0, 0, 1), (0, 0, 1), (0, 0, 1), (-1, 0, 0), (-1, 0, 0), (-1, 0, 0), (-1, 0, 0), (1, 0, 0), (1, 0, 0), (1, 0, 0), (1, 0, 0), (-1, 0, 0), (-1, 0, 0), (-1, 0, 0), (-1, 0, 0), (0, 0, 1), (0, 0, 1), (0, 0, 1), (0, 0, 1), (0, 0, -1), (0, 0, -1), (0, 0, -1), (0, 0, -1), (-1, 0, 0), (-1, 0, 0), (-1, 0, 0), (-1, 0, 0), (0, 0, 1), (0, 0, 1), (0, 0, 1), (0, 0, 1), (0, 0, -1), (0, 0, -1), (0, 0, -1), (0, 0, -1), (1, 0, 0), (1, 0, 0), (1, 0, 0), (1, 0, 0), (0, 0, -1), (0, 0, -1), (0, 0, -1), (0, 0, -1), (0, 0, 1), (0, 0, 1), (0, 0, 1), (0, 0, 1)] (
                interpolation = "faceVarying"
            )
            point3f[] points = [(-0.06473382, -0.61466503, -0.013712577), (-0.06473382, -0.61466503, 0.40033638), (-0.06473382, -0.5047549, -0.013712577), (-0.06473382, -0.5047549, 0.40033638), (0.06473382, -0.61466503, -0.013712577), (0.06473382, -0.61466503, 0.40033638), (0.06473382, -0.5047549, -0.013712577), (0.06473382, -0.5047549, 0.40033638), (-0.06473382, -0.61466503, 0.48409548), (-0.06473382, -0.5047549, 0.48409548), (0.06473382, -0.5047549, 0.48409548), (0.06473382, -0.61466503, 0.48409548), (-0.06473382, -0.61466503, 0.90289086), (-0.06473382, -0.5047549, 0.90289086), (0.06473382, -0.5047549, 0.90289086), (0.06473382, -0.61466503, 0.90289086), (-0.06473382, -0.61466503, 0.98664993), (-0.06473382, -0.5047549, 0.98664993), (0.06473382, -0.5047549, 0.98664993), (0.06473382, -0.61466503, 0.98664993), (-0.06473382, -0.61466503, 1.4054453), (-0.06473382, -0.5047549, 1.4054453), (0.06473382, -0.5047549, 1.4054453), (0.06473382, -0.61466503, 1.4054453), (-0.06473382, -0.61466503, 1.4892044), (-0.06473382, -0.5047549, 1.4892044), (0.06473382, -0.5047549, 1.4892044), (0.06473382, -0.61466503, 1.4892044), (-0.06473382, -0.61466503, 1.9079998), (-0.06473382, -0.5047549, 1.9079998), (0.06473382, -0.5047549, 1.9079998), (0.06473382, -0.61466503, 1.9079998), (-0.06473382, -0.61466503, 1.991759), (-0.06473382, -0.5047549, 1.991759), (0.06473382, -0.5047549, 1.991759), (0.06473382, -0.61466503, 1.991759), (-0.06473382, -0.61466503, 2.4105542), (-0.06473382, -0.5047549, 2.4105542), (0.06473382, -0.5047549, 2.4105542), (0.06473382, -0.61466503, 2.4105542), (0.06473382, -0.7753767, 0.40033638), (-0.06473382, -0.7753767, 0.40033638), (0.06473382, -0.7753767, 0.48409548), (-0.06473382, -0.7753767, 0.48409548), (0.06473382, -0.7753767, 0.90289086), (-0.06473382, -0.7753767, 0.90289086), (0.06473382, -0.7753767, 0.98664993), (-0.06473382, -0.7753767, 0.98664993), (0.06473382, -0.7753767, 1.4054453), (-0.06473382, -0.7753767, 1.4054453), (0.06473382, -0.7753767, 1.4892044), (-0.06473382, -0.7753767, 1.4892044), (0.06473382, -0.7753767, 1.9079998), (-0.06473382, -0.7753767, 1.9079998), (0.06473382, -0.7753767, 1.991759), (-0.06473382, -0.7753767, 1.991759), (-0.06473382, -0.12291902, -0.013712577), (-0.06473382, -0.12291902, 0.40033638), (-0.06473382, -0.23282912, -0.013712577), (-0.06473382, -0.23282912, 0.40033638), (0.06473382, -0.12291902, -0.013712577), (0.06473382, -0.12291902, 0.40033638), (0.06473382, -0.23282912, -0.013712577), (0.06473382, -0.23282912, 0.40033638), (-0.06473382, -0.12291902, 0.48409548), (-0.06473382, -0.23282912, 0.48409548), (0.06473382, -0.23282912, 0.48409548), (0.06473382, -0.12291902, 0.48409548), (-0.06473382, -0.12291902, 0.90289086), (-0.06473382, -0.23282912, 0.90289086), (0.06473382, -0.23282912, 0.90289086), (0.06473382, -0.12291902, 0.90289086), (-0.06473382, -0.12291902, 0.98664993), (-0.06473382, -0.23282912, 0.98664993), (0.06473382, -0.23282912, 0.98664993), (0.06473382, -0.12291902, 0.98664993), (-0.06473382, -0.12291902, 1.4054453), (-0.06473382, -0.23282912, 1.4054453), (0.06473382, -0.23282912, 1.4054453), (0.06473382, -0.12291902, 1.4054453), (-0.06473382, -0.12291902, 1.4892044), (-0.06473382, -0.23282912, 1.4892044), (0.06473382, -0.23282912, 1.4892044), (0.06473382, -0.12291902, 1.4892044), (-0.06473382, -0.12291902, 1.9079998), (-0.06473382, -0.23282912, 1.9079998), (0.06473382, -0.23282912, 1.9079998), (0.06473382, -0.12291902, 1.9079998), (-0.06473382, -0.12291902, 1.991759), (-0.06473382, -0.23282912, 1.991759), (0.06473382, -0.23282912, 1.991759), (0.06473382, -0.12291902, 1.991759), (-0.06473382, -0.12291902, 2.4105542), (-0.06473382, -0.23282912, 2.4105542), (0.06473382, -0.23282912, 2.4105542), (0.06473382, -0.12291902, 2.4105542), (-0.06473382, -0.36879203, 0.40033638), (0.06473382, -0.36879203, 0.40033638), (-0.06473382, -0.36879203, 0.48409548), (0.06473382, -0.36879203, 0.48409548), (-0.06473382, -0.36879203, 0.90289086), (0.06473382, -0.36879203, 0.90289086), (-0.06473382, -0.36879203, 0.98664993), (0.06473382, -0.36879203, 0.98664993), (-0.06473382, -0.36879203, 1.4054453), (0.06473382, -0.36879203, 1.4054453), (-0.06473382, -0.36879203, 1.4892044), (0.06473382, -0.36879203, 1.4892044), (-0.06473382, -0.36879203, 1.9079998), (0.06473382, -0.36879203, 1.9079998), (-0.06473382, -0.36879203, 1.991759), (0.06473382, -0.36879203, 1.991759), (-0.06473382, 0.61466223, -0.013712577), (-0.06473382, 0.61466223, 0.40033638), (-0.06473382, 0.5047521, -0.013712577), (-0.06473382, 0.5047521, 0.40033638), (0.06473382, 0.61466223, -0.013712577), (0.06473382, 0.61466223, 0.40033638), (0.06473382, 0.5047521, -0.013712577), (0.06473382, 0.5047521, 0.40033638), (-0.06473382, 0.61466223, 0.48409548), (-0.06473382, 0.5047521, 0.48409548), (0.06473382, 0.5047521, 0.48409548), (0.06473382, 0.61466223, 0.48409548), (-0.06473382, 0.61466223, 0.90289086), (-0.06473382, 0.5047521, 0.90289086), (0.06473382, 0.5047521, 0.90289086), (0.06473382, 0.61466223, 0.90289086), (-0.06473382, 0.61466223, 0.98664993), (-0.06473382, 0.5047521, 0.98664993), (0.06473382, 0.5047521, 0.98664993), (0.06473382, 0.61466223, 0.98664993), (-0.06473382, 0.61466223, 1.4054453), (-0.06473382, 0.5047521, 1.4054453), (0.06473382, 0.5047521, 1.4054453), (0.06473382, 0.61466223, 1.4054453), (-0.06473382, 0.61466223, 1.4892044), (-0.06473382, 0.5047521, 1.4892044), (0.06473382, 0.5047521, 1.4892044), (0.06473382, 0.61466223, 1.4892044), (-0.06473382, 0.61466223, 1.9079998), (-0.06473382, 0.5047521, 1.9079998), (0.06473382, 0.5047521, 1.9079998), (0.06473382, 0.61466223, 1.9079998), (-0.06473382, 0.61466223, 1.991759), (-0.06473382, 0.5047521, 1.991759), (0.06473382, 0.5047521, 1.991759), (0.06473382, 0.61466223, 1.991759), (-0.06473382, 0.61466223, 2.4105542), (-0.06473382, 0.5047521, 2.4105542), (0.06473382, 0.5047521, 2.4105542), (0.06473382, 0.61466223, 2.4105542), (0.06473382, 0.7753739, 0.40033638), (-0.06473382, 0.7753739, 0.40033638), (0.06473382, 0.7753739, 0.48409548), (-0.06473382, 0.7753739, 0.48409548), (0.06473382, 0.7753739, 0.90289086), (-0.06473382, 0.7753739, 0.90289086), (0.06473382, 0.7753739, 0.98664993), (-0.06473382, 0.7753739, 0.98664993), (0.06473382, 0.7753739, 1.4054453), (-0.06473382, 0.7753739, 1.4054453), (0.06473382, 0.7753739, 1.4892044), (-0.06473382, 0.7753739, 1.4892044), (0.06473382, 0.7753739, 1.9079998), (-0.06473382, 0.7753739, 1.9079998), (0.06473382, 0.7753739, 1.991759), (-0.06473382, 0.7753739, 1.991759), (-0.06473382, 0.12291614, -0.013712577), (-0.06473382, 0.12291614, 0.40033638), (-0.06473382, 0.23282623, -0.013712577), (-0.06473382, 0.23282623, 0.40033638), (0.06473382, 0.12291614, -0.013712577), (0.06473382, 0.12291614, 0.40033638), (0.06473382, 0.23282623, -0.013712577), (0.06473382, 0.23282623, 0.40033638), (-0.06473382, 0.12291614, 0.48409548), (-0.06473382, 0.23282623, 0.48409548), (0.06473382, 0.23282623, 0.48409548), (0.06473382, 0.12291614, 0.48409548), (-0.06473382, 0.12291614, 0.90289086), (-0.06473382, 0.23282623, 0.90289086), (0.06473382, 0.23282623, 0.90289086), (0.06473382, 0.12291614, 0.90289086), (-0.06473382, 0.12291614, 0.98664993), (-0.06473382, 0.23282623, 0.98664993), (0.06473382, 0.23282623, 0.98664993), (0.06473382, 0.12291614, 0.98664993), (-0.06473382, 0.12291614, 1.4054453), (-0.06473382, 0.23282623, 1.4054453), (0.06473382, 0.23282623, 1.4054453), (0.06473382, 0.12291614, 1.4054453), (-0.06473382, 0.12291614, 1.4892044), (-0.06473382, 0.23282623, 1.4892044), (0.06473382, 0.23282623, 1.4892044), (0.06473382, 0.12291614, 1.4892044), (-0.06473382, 0.12291614, 1.9079998), (-0.06473382, 0.23282623, 1.9079998), (0.06473382, 0.23282623, 1.9079998), (0.06473382, 0.12291614, 1.9079998), (-0.06473382, 0.12291614, 1.991759), (-0.06473382, 0.23282623, 1.991759), (0.06473382, 0.23282623, 1.991759), (0.06473382, 0.12291614, 1.991759), (-0.06473382, 0.12291614, 2.4105542), (-0.06473382, 0.23282623, 2.4105542), (0.06473382, 0.23282623, 2.4105542), (0.06473382, 0.12291614, 2.4105542), (-0.06473382, 0.36878926, 0.40033638), (0.06473382, 0.36878926, 0.40033638), (-0.06473382, 0.36878926, 0.48409548), (0.06473382, 0.36878926, 0.48409548), (-0.06473382, 0.36878926, 0.90289086), (0.06473382, 0.36878926, 0.90289086), (-0.06473382, 0.36878926, 0.98664993), (0.06473382, 0.36878926, 0.98664993), (-0.06473382, 0.36878926, 1.4054453), (0.06473382, 0.36878926, 1.4054453), (-0.06473382, 0.36878926, 1.4892044), (0.06473382, 0.36878926, 1.4892044), (-0.06473382, 0.36878926, 1.9079998), (0.06473382, 0.36878926, 1.9079998), (-0.06473382, 0.36878926, 1.991759), (0.06473382, 0.36878926, 1.991759), (0.06473382, -0.000001353905, 0.40033638), (-0.06473382, -0.000001353905, 0.40033638), (0.06473382, -0.000001353905, 0.48409548), (-0.06473382, -0.000001353905, 0.48409548), (0.06473382, -0.000001353905, 0.90289086), (-0.06473382, -0.000001353905, 0.90289086), (0.06473382, -0.000001353905, 0.98664993), (-0.06473382, -0.000001353905, 0.98664993), (0.06473382, -0.000001353905, 1.4054453), (-0.06473382, -0.000001353905, 1.4054453), (0.06473382, -0.000001353905, 1.4892044), (-0.06473382, -0.000001353905, 1.4892044), (0.06473382, -0.000001353905, 1.9079998), (-0.06473382, -0.000001353905, 1.9079998), (0.06473382, -0.000001353905, 1.991759), (-0.06473382, -0.000001353905, 1.991759)]
            uniform token subdivisionScheme = "none"
            custom string userProperties:blender:data_name = "Cube.025"
        }
    }

    def Scope "_materials"
    {
        def Material "Steel"
        {
            token outputs:surface.connect = </root/_materials/Steel/Principled_BSDF.outputs:surface>
            custom string userProperties:blender:data_name = "Steel"

            def Shader "Principled_BSDF"
            {
                uniform token info:id = "UsdPreviewSurface"
                float inputs:clearcoat = 0
                float inputs:clearcoatRoughness = 0.03
                color3f inputs:diffuseColor = (0.41093853, 0.41093853, 0.41093853)
                float inputs:ior = 1.5
                float inputs:metallic = 0
                float inputs:opacity = 1
                float inputs:roughness = 0.6900348
                float inputs:specular = 0.5
                token outputs:surface
            }
        }
    }
}

