#usda 1.0
(
    defaultPrim = "root"
    doc = "Blender v5.1.2"
    metersPerUnit = 1
    upAxis = "Y"
)

def Xform "root" (
    customData = {
        dictionary Blender = {
            bool generated = 1
        }
    }
)
{
    float3 xformOp:rotateXYZ = (-90, -0, 0)
    uniform token[] xformOpOrder = ["xformOp:rotateXYZ"]

    def Xform "Book_Open"
    {
        custom string userProperties:blender:object_name = "Book_Open"

        def Mesh "Cube_021" (
            active = true
            prepend apiSchemas = ["MaterialBindingAPI"]
        )
        {
            uniform bool doubleSided = 1
            float3[] extent = [(-0.48982656, -0.68610275, -0.0014948174), (0.7041313, 0.68610275, 0.16428024)]
            int[] faceVertexCounts = [4, 4, 4, 4, 4, 4, 4, 4, 4, 4, 4, 4, 4, 4, 4, 4, 4, 4, 4, 4, 4, 4, 4, 4, 4, 4, 4, 4, 4, 4, 4, 4, 4, 4, 4, 4, 4, 4, 4, 4, 4, 4, 4, 4, 4, 4, 4, 4, 4, 4, 4, 4, 4, 4, 4, 4, 4, 4, 4, 4, 4, 4, 4, 4, 4, 4, 4, 4, 4, 4, 4, 4, 4, 4, 4, 4, 4, 4, 4, 4, 4, 4, 4, 4, 4, 4, 4, 4, 4, 4, 4, 4, 4, 4, 4, 4, 4, 4, 4, 4, 4, 4, 4, 4, 4, 4, 4, 4, 4, 4, 4, 4, 4, 4, 4, 4, 4, 4, 4, 4, 4, 4, 4, 4, 4, 4, 4, 4, 4, 4, 4, 4, 4, 4, 4, 4, 4, 4, 4, 4, 4, 4, 4, 4, 4, 4, 4, 4, 4, 4, 4, 4, 4, 4, 4, 4, 4, 4, 4, 4, 4, 4, 4, 4, 4, 4, 4, 4, 4, 4, 4, 4, 4, 4, 4, 4, 4, 4, 4, 4, 4, 4, 4, 4, 4, 4, 4, 4, 4, 4, 4, 4, 4, 4, 4, 4, 4, 4, 4, 4, 4, 4, 4, 4, 4, 4, 4, 4, 4, 4, 4, 4, 4, 4, 4, 4, 4, 4, 4, 4, 4, 4, 4, 4, 4, 4, 4, 4, 4, 4, 4, 4, 4, 4, 4, 4, 4, 4, 4, 4, 4, 4, 4, 4, 4, 4, 4, 4, 4, 4, 4, 4, 4, 4, 4, 4, 4, 4, 4, 4, 4, 4, 4, 4, 4, 4, 4, 4, 4, 4, 4, 4, 4, 4, 4, 4, 4, 4, 4, 4, 4, 4, 4, 4, 4, 4, 4, 4, 4, 4, 4, 4, 4, 4, 4, 4, 4, 4, 4, 4, 4, 4, 4, 4, 4, 4, 4, 4, 4, 4, 4, 4, 4, 4, 4, 4, 4, 4, 4, 4, 4, 4, 4, 4, 4, 4, 4, 4, 4, 4, 4, 4, 4, 4, 4, 4, 4, 4, 4, 4, 4, 4, 4, 4, 4, 4, 4, 4, 4, 4, 4, 4, 4, 4, 4, 4, 4, 4, 4, 4, 4, 4, 4, 4, 4, 4, 4, 4, 4, 4, 4, 4, 4, 4, 4, 4, 4, 4, 4, 4, 4, 4, 4, 4, 4, 4, 4, 4, 4, 4, 4, 4, 4, 4, 4, 4, 4, 4, 4, 4, 4, 4, 4, 4, 4, 4, 4, 4, 4, 4, 4, 4, 4, 4, 4, 4, 4, 4, 4, 4, 4, 4, 4, 4, 4, 4, 4, 4, 4, 4, 4, 4, 4, 4, 4, 4, 4, 4, 4, 4, 4, 4, 4, 4]
            int[] faceVertexIndices = [73, 68, 233, 249, 7, 6, 21, 17, 201, 204, 0, 48, 38, 25, 3, 31, 57, 24, 2, 51, 71, 241, 212, 65, 31, 3, 14, 37, 65, 212, 232, 69, 49, 7, 17, 53, 56, 26, 7, 49, 26, 27, 6, 7, 70, 28, 11, 63, 28, 29, 10, 11, 203, 194, 4, 64, 194, 195, 5, 4, 58, 52, 16, 35, 11, 10, 23, 19, 55, 12, 13, 54, 37, 14, 15, 36, 69, 232, 233, 68, 53, 17, 16, 52, 17, 21, 20, 16, 67, 19, 18, 66, 19, 23, 22, 18, 35, 16, 20, 34, 63, 11, 19, 67, 51, 2, 12, 55, 4, 5, 29, 28, 64, 4, 28, 70, 8, 9, 27, 26, 50, 8, 26, 56, 62, 211, 241, 71, 48, 0, 24, 57, 30, 1, 25, 38, 46, 30, 38, 45, 47, 35, 34, 42, 44, 37, 36, 43, 60, 58, 35, 47, 9, 8, 33, 32, 62, 9, 32, 72, 39, 31, 37, 44, 45, 38, 31, 39, 50, 1, 30, 59, 74, 73, 249, 259, 87, 74, 259, 298, 82, 45, 39, 76, 76, 39, 44, 81, 85, 60, 47, 84, 81, 44, 43, 80, 84, 47, 42, 79, 83, 46, 45, 82, 32, 33, 41, 40, 72, 32, 40, 75, 59, 30, 46, 61, 33, 59, 61, 41, 80, 43, 60, 85, 8, 50, 59, 33, 43, 36, 58, 60, 5, 48, 57, 29, 1, 50, 56, 25, 10, 51, 55, 23, 14, 53, 52, 15, 23, 55, 54, 22, 36, 15, 52, 58, 25, 56, 49, 3, 3, 49, 53, 14, 29, 57, 51, 10, 195, 201, 48, 5, 248, 72, 75, 258, 79, 42, 74, 87, 42, 34, 73, 74, 211, 62, 72, 248, 9, 62, 71, 27, 210, 64, 70, 240, 213, 63, 67, 231, 231, 67, 66, 229, 21, 69, 68, 20, 432, 203, 64, 210, 240, 70, 63, 213, 6, 65, 69, 21, 27, 71, 65, 6, 34, 20, 68, 73, 258, 75, 88, 297, 92, 79, 87, 98, 41, 61, 86, 78, 93, 80, 85, 96, 100, 83, 82, 95, 101, 84, 79, 92, 94, 81, 80, 93, 96, 85, 84, 101, 89, 76, 81, 94, 95, 82, 76, 89, 98, 87, 298, 313, 40, 41, 78, 77, 75, 40, 77, 88, 61, 46, 83, 86, 111, 98, 313, 328, 108, 95, 89, 102, 102, 89, 94, 107, 109, 96, 101, 114, 107, 94, 93, 106, 114, 101, 92, 105, 113, 100, 95, 108, 106, 93, 96, 109, 105, 92, 98, 111, 297, 88, 99, 312, 78, 86, 97, 91, 77, 78, 91, 90, 88, 77, 90, 99, 86, 83, 100, 97, 118, 105, 111, 124, 119, 106, 109, 122, 126, 113, 108, 121, 127, 114, 105, 118, 120, 107, 106, 119, 122, 109, 114, 127, 115, 102, 107, 120, 121, 108, 102, 115, 124, 111, 328, 343, 312, 99, 112, 327, 91, 97, 110, 104, 90, 91, 104, 103, 99, 90, 103, 112, 97, 100, 113, 110, 137, 124, 343, 358, 134, 121, 115, 128, 128, 115, 120, 133, 135, 122, 127, 140, 133, 120, 119, 132, 140, 127, 118, 131, 139, 126, 121, 134, 132, 119, 122, 135, 131, 118, 124, 137, 327, 112, 125, 342, 104, 110, 123, 117, 103, 104, 117, 116, 112, 103, 116, 125, 110, 113, 126, 123, 144, 131, 137, 150, 145, 132, 135, 148, 152, 139, 134, 147, 153, 140, 131, 144, 146, 133, 132, 145, 148, 135, 140, 153, 141, 128, 133, 146, 147, 134, 128, 141, 150, 137, 358, 373, 342, 125, 138, 357, 117, 123, 136, 130, 116, 117, 130, 129, 125, 116, 129, 138, 123, 126, 139, 136, 163, 150, 373, 388, 160, 147, 141, 154, 154, 141, 146, 159, 161, 148, 153, 166, 159, 146, 145, 158, 166, 153, 144, 157, 165, 152, 147, 160, 158, 145, 148, 161, 157, 144, 150, 163, 357, 138, 151, 372, 130, 136, 149, 143, 129, 130, 143, 142, 138, 129, 142, 151, 136, 139, 152, 149, 170, 157, 163, 176, 171, 158, 161, 174, 178, 165, 160, 173, 179, 166, 157, 170, 172, 159, 158, 171, 174, 161, 166, 179, 167, 154, 159, 172, 173, 160, 154, 167, 176, 163, 388, 403, 372, 151, 164, 387, 143, 149, 162, 156, 142, 143, 156, 155, 151, 142, 155, 164, 149, 152, 165, 162, 189, 176, 403, 418, 186, 173, 167, 180, 180, 167, 172, 185, 187, 174, 179, 192, 185, 172, 171, 184, 192, 179, 170, 183, 191, 178, 173, 186, 184, 171, 174, 187, 183, 170, 176, 189, 387, 164, 177, 402, 156, 162, 175, 169, 155, 156, 169, 168, 164, 155, 168, 177, 162, 165, 178, 175, 196, 183, 189, 202, 197, 184, 187, 200, 204, 191, 186, 199, 205, 192, 183, 196, 198, 185, 184, 197, 200, 187, 192, 205, 193, 180, 185, 198, 199, 186, 180, 193, 202, 189, 418, 433, 402, 177, 190, 417, 169, 175, 188, 182, 168, 169, 182, 181, 177, 168, 181, 190, 175, 178, 191, 188, 66, 202, 433, 229, 24, 199, 193, 2, 2, 193, 198, 12, 54, 200, 205, 22, 12, 198, 197, 13, 22, 205, 196, 18, 0, 204, 199, 24, 13, 197, 200, 54, 18, 196, 202, 66, 417, 190, 203, 432, 182, 188, 201, 195, 181, 182, 195, 194, 190, 181, 194, 203, 188, 191, 204, 201, 293, 249, 233, 288, 217, 227, 235, 216, 441, 268, 206, 444, 256, 247, 209, 239, 277, 271, 208, 238, 291, 285, 212, 241, 247, 255, 224, 209, 285, 289, 232, 212, 269, 273, 227, 217, 276, 269, 217, 242, 242, 217, 216, 243, 290, 283, 221, 244, 244, 221, 220, 245, 443, 284, 214, 434, 434, 214, 215, 435, 278, 253, 226, 272, 221, 230, 237, 220, 275, 274, 223, 222, 255, 254, 225, 224, 289, 288, 233, 232, 273, 272, 226, 227, 227, 226, 234, 235, 287, 286, 228, 230, 230, 228, 236, 237, 253, 252, 234, 226, 283, 287, 230, 221, 271, 275, 222, 208, 214, 244, 245, 215, 284, 290, 244, 214, 218, 242, 243, 219, 270, 276, 242, 218, 282, 291, 241, 211, 268, 277, 238, 206, 246, 256, 239, 207, 266, 265, 256, 246, 267, 262, 252, 253, 264, 263, 254, 255, 280, 267, 253, 278, 219, 250, 251, 218, 282, 292, 250, 219, 257, 264, 255, 247, 265, 257, 247, 256, 270, 279, 246, 207, 294, 259, 249, 293, 309, 298, 259, 294, 304, 296, 257, 265, 296, 303, 264, 257, 307, 306, 267, 280, 303, 302, 263, 264, 306, 301, 262, 267, 305, 304, 265, 266, 250, 260, 261, 251, 292, 295, 260, 250, 279, 281, 266, 246, 251, 261, 281, 279, 302, 307, 280, 263, 218, 251, 279, 270, 263, 280, 278, 254, 215, 245, 277, 268, 207, 239, 276, 270, 220, 237, 275, 271, 224, 225, 272, 273, 237, 236, 274, 275, 254, 278, 272, 225, 239, 209, 269, 276, 209, 224, 273, 269, 245, 220, 271, 277, 435, 215, 268, 441, 248, 258, 295, 292, 301, 309, 294, 262, 262, 294, 293, 252, 211, 248, 292, 282, 219, 243, 291, 282, 210, 240, 290, 284, 213, 231, 287, 283, 231, 229, 286, 287, 235, 234, 288, 289, 432, 210, 284, 443, 240, 213, 283, 290, 216, 235, 289, 285, 243, 216, 285, 291, 252, 293, 288, 234, 258, 297, 310, 295, 316, 322, 309, 301, 261, 300, 308, 281, 317, 320, 307, 302, 324, 319, 304, 305, 325, 316, 301, 306, 318, 317, 302, 303, 320, 325, 306, 307, 311, 318, 303, 296, 319, 311, 296, 304, 322, 313, 298, 309, 260, 299, 300, 261, 295, 310, 299, 260, 281, 308, 305, 266, 337, 328, 313, 322, 334, 326, 311, 319, 326, 333, 318, 311, 335, 340, 325, 320, 333, 332, 317, 318, 340, 331, 316, 325, 339, 334, 319, 324, 332, 335, 320, 317, 331, 337, 322, 316, 297, 312, 323, 310, 300, 315, 321, 308, 299, 314, 315, 300, 310, 323, 314, 299, 308, 321, 324, 305, 346, 352, 337, 331, 347, 350, 335, 332, 354, 349, 334, 339, 355, 346, 331, 340, 348, 347, 332, 333, 350, 355, 340, 335, 341, 348, 333, 326, 349, 341, 326, 334, 352, 343, 328, 337, 312, 327, 338, 323, 315, 330, 336, 321, 314, 329, 330, 315, 323, 338, 329, 314, 321, 336, 339, 324, 367, 358, 343, 352, 364, 356, 341, 349, 356, 363, 348, 341, 365, 370, 355, 350, 363, 362, 347, 348, 370, 361, 346, 355, 369, 364, 349, 354, 362, 365, 350, 347, 361, 367, 352, 346, 327, 342, 353, 338, 330, 345, 351, 336, 329, 344, 345, 330, 338, 353, 344, 329, 336, 351, 354, 339, 376, 382, 367, 361, 377, 380, 365, 362, 384, 379, 364, 369, 385, 376, 361, 370, 378, 377, 362, 363, 380, 385, 370, 365, 371, 378, 363, 356, 379, 371, 356, 364, 382, 373, 358, 367, 342, 357, 368, 353, 345, 360, 366, 351, 344, 359, 360, 345, 353, 368, 359, 344, 351, 366, 369, 354, 397, 388, 373, 382, 394, 386, 371, 379, 386, 393, 378, 371, 395, 400, 385, 380, 393, 392, 377, 378, 400, 391, 376, 385, 399, 394, 379, 384, 392, 395, 380, 377, 391, 397, 382, 376, 357, 372, 383, 368, 360, 375, 381, 366, 359, 374, 375, 360, 368, 383, 374, 359, 366, 381, 384, 369, 406, 412, 397, 391, 407, 410, 395, 392, 414, 409, 394, 399, 415, 406, 391, 400, 408, 407, 392, 393, 410, 415, 400, 395, 401, 408, 393, 386, 409, 401, 386, 394, 412, 403, 388, 397, 372, 387, 398, 383, 375, 390, 396, 381, 374, 389, 390, 375, 383, 398, 389, 374, 381, 396, 399, 384, 427, 418, 403, 412, 424, 416, 401, 409, 416, 423, 408, 401, 425, 430, 415, 410, 423, 422, 407, 408, 430, 421, 406, 415, 429, 424, 409, 414, 422, 425, 410, 407, 421, 427, 412, 406, 387, 402, 413, 398, 390, 405, 411, 396, 389, 404, 405, 390, 398, 413, 404, 389, 396, 411, 414, 399, 436, 442, 427, 421, 437, 440, 425, 422, 444, 439, 424, 429, 445, 436, 421, 430, 438, 437, 422, 423, 440, 445, 430, 425, 431, 438, 423, 416, 439, 431, 416, 424, 442, 433, 418, 427, 402, 417, 428, 413, 405, 420, 426, 411, 404, 419, 420, 405, 413, 428, 419, 404, 411, 426, 429, 414, 286, 229, 433, 442, 238, 208, 431, 439, 208, 222, 438, 431, 274, 236, 445, 440, 222, 223, 437, 438, 236, 228, 436, 445, 206, 238, 439, 444, 223, 274, 440, 437, 228, 286, 442, 436, 417, 432, 443, 428, 420, 435, 441, 426, 419, 434, 435, 420, 428, 443, 434, 419, 426, 441, 444, 429]
            rel material:binding = </root/_materials/Cover>
            normal3f[] normals = [(0, 0, -1), (0, 0, -1), (0, 0, -1), (0, 0, -1), (-0.044333596, 0, 0.99901676), (-0.044333648, 0, 0.99901676), (-0.04433367, 0, 0.99901676), (-0.044333603, 0, 0.99901676), (0, 0, 1), (0, 0, 1), (0, 0, 1), (0, 0, 1), (0, 0.94487303, 0.3274369), (0, 0.94487303, 0.32743713), (0, 0.94487303, 0.32743713), (0, 0.94487303, 0.3274369), (-1, 0, 0), (-1, 0, 0), (-1, 0, 0), (-1, 0, 0), (1, 8.684469e-8, 0), (1, 0, 0), (1, 0, 0), (1, 0, 0), (0, -0.069765404, 0.9975634), (0, -0.069765344, 0.9975635), (0, -0.069765344, 0.9975635), (0, -0.06976536, 0.9975634), (-0.04433375, 0, 0.99901676), (-0.04433373, 0, 0.99901676), (-0.04433373, 0, 0.99901676), (-0.04433375, 0, 0.99901676), (-0.04433364, 0, 0.99901676), (-0.044333596, 0, 0.99901676), (-0.044333603, 0, 0.99901676), (-0.044333637, 0, 0.99901676), (1, 0, 0), (1, 2.8229754e-9, 0), (1, -8.067932e-8, 0), (1, 0, 0), (1, 2.8229754e-9, 0), (1, 1.019225e-7, 0), (1, -8.067936e-8, 0), (1, -8.067932e-8, 0), (-1, 9.426342e-8, 0), (-1, 8.842455e-9, 0), (-1, 8.0679314e-8, 0), (-1, 0, 0), (-1, 8.842455e-9, 0), (-1, 5.980374e-8, 0), (-1, 8.0679314e-8, 0), (-1, 8.0679314e-8, 0), (0, -0.28357258, 0.9589508), (0, -0.28357264, 0.9589508), (0, -0.28357264, 0.95895076), (0, -0.28357258, 0.9589508), (0, -0.10945741, 0.9939915), (0, -0.1094574, 0.9939915), (0, -0.10945742, 0.9939915), (0, -0.10945742, 0.9939915), (0, 0, -1), (0, 0, -1), (0, 0, -1), (0, 0, -1), (0.04433363, 0, 0.99901676), (0.04433367, 0, 0.99901676), (0.044333674, 0, 0.99901676), (0.04433363, 0, 0.99901676), (-1, 0, 0), (-1, 0, 0), (-1, 0, 0), (-1, 0, 0), (0, 1, 0), (0, 1, 0), (0, 1, 0), (0, 1, 0), (1, 0, 0), (1, 0, 0), (1, 0, 0), (1, 0, 0), (1, 0, 0), (1, 0, 0), (1, 0, 0), (1, 0, 0), (1, 0, 0), (1, 0, 0), (1, 0, 0), (1, 0, 0), (-1, 0, 0), (-1, 0, 0), (-1, 0, 0), (-1, 0, 0), (-1, 0, 0), (-1, 0, 0), (-1, 0, 0), (-1, 0, 0), (0, 0, -1), (0, 0, -1), (0, 0, -1), (0, 0, -1), (0.04433367, 0, 0.99901676), (0.04433363, 0, 0.99901676), (0.04433363, 0, 0.99901676), (0.044333678, 0, 0.99901676), (0.044333722, 0, 0.99901676), (0.044333737, 0, 0.99901676), (0.044333737, 0, 0.99901676), (0.04433373, 0, 0.99901676), (-1, -3.7210935e-8, 0), (-1, 3.888096e-8, 0), (-1, 5.980374e-8, 0), (-1, 8.842455e-9, 0), (-1, 9.240787e-8, 0), (-1, -3.7210935e-8, 0), (-1, 8.842455e-9, 0), (-1, 9.426342e-8, 0), (1, 7.776192e-8, 0), (1, 2.5740547e-7, 0), (1, 1.019225e-7, 0), (1, 2.8229754e-9, 0), (1, 0, 0), (1, 7.776192e-8, 0), (1, 2.8229754e-9, 0), (1, 0, 0), (1, 2.2666265e-7, 0), (1, 0, 0), (1, 0, 0), (1, 8.684469e-8, 0), (-1, 0, 0), (-1, 0, 0), (-1, 0, 0), (-1, 0, 0), (0, 0.94487303, -0.32743695), (0, 0.9448729, -0.32743725), (0, 0.9448729, -0.32743725), (0, 0.94487303, -0.32743695), (0, 0.94487303, -0.3274369), (0, 0.94487303, -0.32743695), (0, 0.94487303, -0.32743695), (0, 0.94487303, -0.3274369), (0, 0, -1), (0, 0, -1), (0, 0, -1), (0, 0, -1), (0, 1, 0), (0, 1, 0), (0, 1, 0), (0, 1, 0), (0, 0, -1), (0, 0, -1), (0, 0, -1), (0, 0, -1), (0, -0.10945741, 0.99399155), (0, -0.10945741, 0.99399155), (0, -0.10945737, 0.9939915), (0, -0.10945737, 0.9939915), (0, -0.28357264, 0.9589508), (0, -0.28357264, 0.95895076), (0, -0.28357264, 0.9589508), (0, -0.2835726, 0.9589508), (0, -0.069765426, 0.9975634), (0, -0.069765404, 0.9975634), (0, -0.06976536, 0.9975634), (0, -0.069765426, 0.9975634), (0, 0.94487303, 0.3274369), (0, 0.94487303, 0.3274369), (0, 0.94487303, 0.3274369), (0, 0.94487303, 0.3274369), (0, 0, 1), (0, 0, 1), (0, 0, 1), (0, 0, 1), (0, 0, -1), (0, 0, -1), (0, 0, -1), (0, 0, -1), (0, 0, -1), (0, 0, -1), (0, 0, -1), (0, 0, -1), (0, 0.9448729, 0.3274371), (0, 0.94487303, 0.3274369), (0, 0.94487303, 0.3274369), (0, 0.9448729, 0.3274371), (0, -0.06976539, 0.9975634), (0, -0.069765426, 0.9975634), (0, -0.069765426, 0.9975634), (0, -0.06976541, 0.9975634), (0, 0, -1), (0, 0, -1), (0, 0, -1), (0, 0, -1), (0, 1, 0), (0, 1, 0), (0, 1, 0), (0, 1, 0), (0, 0, -1), (0, 0, -1), (0, 0, -1), (0, 0, -1), (0, 0.9448729, -0.3274372), (0, 0.94487303, -0.3274369), (0, 0.94487303, -0.3274369), (0, 0.9448729, -0.3274372), (0, -0.10945737, 0.9939915), (0, -0.10945737, 0.9939915), (0, -0.10945738, 0.9939915), (0, -0.10945738, 0.9939915), (0, -0.2835726, 0.9589508), (0, -0.28357264, 0.9589508), (0, -0.28357264, 0.9589508), (0, -0.28357258, 0.9589508), (0, 0, 1), (0, 0, 1), (0, 0, 1), (0, 0, 1), (0, 0, 1), (0, 0, 1), (0, 0, 1), (0, 0, 1), (0, 0, -1), (0, 0, -1), (0, 0, -1), (0, 0, -1), (0, 0, 1), (0, 0, 1), (0, 0, 1), (0, 0, 1), (0, 0, -1), (0, 0, -1), (0, 0, -1), (0, 0, -1), (-1, 3.888096e-8, 0), (-1, 0, 0), (-1, 0, 0), (-1, 5.980374e-8, 0), (1, 0, 0), (1, 0, 0), (1, 0, 0), (1, 0, 0), (0.04433367, 0, 0.99901676), (0.044333722, 0, 0.99901676), (0.04433373, 0, 0.99901676), (0.044333674, 0, 0.99901676), (1, 0, 0), (1, 0, 0), (1, 0, 0), (1, 0, 0), (-1, 0, 0), (-1, 0, 0), (-1, 0, 0), (-1, 0, 0), (0, 0, -1), (0, 0, -0.99999994), (0, 0, -1), (0, 0, -1), (1, 0, 0), (1, 0, 0), (1, 0, 0), (1, 0, 0), (-0.044333626, 0, 0.99901676), (-0.04433364, 0, 0.99901676), (-0.044333637, 0, 0.99901676), (-0.044333626, 0, 0.99901676), (-1, 5.980374e-8, 0), (-1, 0, 0), (-1, 0, 0), (-1, 8.0679314e-8, 0), (0, 0, 1), (0, 0, 1), (0, 0, 1), (0, 0, 1), (0, -0.2835726, 0.9589508), (0, -0.2835726, 0.9589508), (0, -0.28357258, 0.9589508), (0, -0.28357255, 0.9589508), (0, 0, -1), (0, 0, -1), (0, 0, -1), (0, 0, -1), (0, 0, -1), (0, 0, -1), (0, 0, -1), (0, 0, -1), (0, -0.2835726, 0.9589507), (0, -0.28357264, 0.9589508), (0, -0.2835726, 0.9589508), (0, -0.2835726, 0.9589508), (1, 2.5740547e-7, 0), (1, 2.2666265e-7, 0), (1, 8.684469e-8, 0), (1, 1.019225e-7, 0), (-1, 3.0588186e-14, 0), (-1, 9.240787e-8, 0), (-1, 9.426342e-8, 0), (-1, 1.8093823e-14, 0), (0.04433373, 0, 0.99901676), (0.04433367, 0, 0.99901676), (0.044333678, 0, 0.99901676), (0.04433373, 0, 0.99901676), (-1, 0, 0), (-1, 0, 0), (-1, 0, 0), (-1, 0, 0), (1, 0, 0), (1, 0, 0), (1, 0, 0), (1, 0, 0), (0, -0.28357255, 0.9589508), (0, -0.28357258, 0.9589508), (0, -0.28357258, 0.9589508), (0, -0.28357255, 0.9589508), (-1, 1.8093823e-14, 0), (-1, 9.426342e-8, 0), (-1, 0, 0), (-1, 0, 0), (-0.044333648, 0, 0.99901676), (-0.04433375, 0, 0.99901676), (-0.04433375, 0, 0.99901676), (-0.04433367, 0, 0.99901676), (1, 1.019225e-7, 0), (1, 8.684469e-8, 0), (1, 0, 0), (1, -8.067936e-8, 0), (0, 0, -1), (0, 0, -1), (0, 0, -1), (0, 0, -1), (0, -0.28357255, 0.9589508), (0, -0.28357258, 0.9589508), (0, -0.28357258, 0.9589508), (0, -0.28357255, 0.9589509), (0, 0, -1), (0, 0, -1), (0, 0, -1), (0, 0, -1), (0, 0, 1), (0, 0, 1), (0, 0, 1), (0, 0, 1), (0, 0, -1), (0, 0, -1), (0, 0, -1), (0, 0, -1), (0, 0.9448729, -0.32743704), (0, 0.9448729, -0.3274372), (0, 0.9448729, -0.3274372), (0, 0.9448729, -0.32743704), (0, 0, -1), (0, 0, -1), (0, 0, -1), (0, 0, -1), (0, 1, 0), (0, 1, 0), (0, 1, 0), (0, 1, 0), (0, 0, -1), (0, 0, -1), (0, 0, -1), (0, 0, -1), (0, -0.069765195, 0.9975634), (0, -0.06976539, 0.9975634), (0, -0.06976541, 0.9975634), (0, -0.0697653, 0.9975634), (0, 0.9448729, 0.32743707), (0, 0.9448729, 0.3274371), (0, 0.9448729, 0.3274371), (0, 0.9448729, 0.32743707), (0, 0, -1), (0, 0, -1), (0, 0, -1), (0, 0, -1), (0, -0.10945738, 0.9939915), (0, -0.10945738, 0.9939915), (0, -0.1094574, 0.9939915), (0, -0.1094574, 0.9939915), (0, -0.28357258, 0.9589508), (0, -0.28357264, 0.9589508), (0, -0.2835726, 0.9589508), (0, -0.28357258, 0.9589508), (0, 0, 1), (0, 0, 1), (0, 0, 1), (0, 0, 1), (0, 0, -1), (0, 0, -1), (0, 0, -1), (0, 0, -1), (0, 0.94487303, 0.32743707), (0, 0.9448729, 0.32743707), (0, 0.9448729, 0.32743707), (0, 0.94487303, 0.32743707), (0, -0.069765374, 0.9975634), (0, -0.069765195, 0.9975634), (0, -0.0697653, 0.9975634), (0, -0.06976523, 0.9975634), (0, 0, -1), (0, 0, -1), (0, 0, -1), (0, 0, -1), (0, 1, 0), (0, 1, 0), (0, 1, 0), (0, 1, 0), (0, 0, -1), (0, 0, -1), (0, 0, -1), (0, 0, -1), (0, 0.9448729, -0.32743704), (0, 0.9448729, -0.32743704), (0, 0.9448729, -0.32743704), (0, 0.9448729, -0.32743704), (0, 0, -1), (0, 0, -1), (0, 0, -1), (0, 0, -1), (0, 0, -1), (0, 0, -1), (0, 0, -1), (0, 0, -1), (0, -0.28357255, 0.9589509), (0, -0.28357258, 0.9589508), (0, -0.28357258, 0.9589508), (0, -0.28357258, 0.9589508), (0, 0, 1), (0, 0, 1), (0, 0, 1), (0, 0, 1), (0, -0.1094574, 0.9939915), (0, -0.1094574, 0.9939915), (0, -0.10945738, 0.9939915), (0, -0.10945738, 0.9939915), (0, -0.28357258, 0.9589508), (0, -0.2835726, 0.9589508), (0, -0.28357258, 0.9589508), (0, -0.28357258, 0.9589508), (0, 0, 1), (0, 0, 1), (0, 0, 1), (0, 0, 1), (0, 0, -1), (0, 0, -1), (0, 0, -1), (0, 0, -1), (0, 0, -1), (0, 0, -1), (0, 0, -1), (0, 0, -1), (0, 0.94487303, -0.3274369), (0, 0.9448729, -0.32743704), (0, 0.9448729, -0.32743704), (0, 0.94487303, -0.3274369), (0, 0, -1), (0, 0, -1), (0, 0, -1), (0, 0, -1), (0, 1, 0), (0, 1, 0), (0, 1, 0), (0, 1, 0), (0, 0, -1), (0, 0, -1), (0, 0, -1), (0, 0, -1), (0, -0.06976532, 0.9975634), (0, -0.069765374, 0.9975634), (0, -0.06976523, 0.9975634), (0, -0.06976541, 0.9975634), (0, 0.9448731, 0.32743683), (0, 0.94487303, 0.32743707), (0, 0.94487303, 0.32743707), (0, 0.9448731, 0.32743683), (0, 0, -1), (0, 0, -1), (0, 0, -1), (0, 0, -1), (0, -0.28357258, 0.9589508), (0, -0.28357258, 0.9589508), (0, -0.2835726, 0.9589508), (0, -0.2835726, 0.9589508), (0, 0, 1), (0, 0, 1), (0, 0, 1), (0, 0, 1), (0, -0.10945738, 0.9939915), (0, -0.10945738, 0.9939915), (0, -0.1094574, 0.9939915), (0, -0.1094574, 0.9939915), (0, -0.28357258, 0.9589508), (0, -0.28357258, 0.9589508), (0, -0.2835726, 0.9589508), (0, -0.2835726, 0.9589508), (0, 0, 1), (0, 0, 1), (0, 0, 1), (0, 0, 1), (0, 0, -1), (0, 0, -1), (0, 0, -1), (0, 0, -1), (0, 0.9448731, 0.32743657), (0, 0.9448731, 0.32743683), (0, 0.9448731, 0.32743683), (0, 0.9448731, 0.32743657), (0, -0.06976529, 0.9975634), (0, -0.06976532, 0.9975634), (0, -0.06976541, 0.9975634), (0, -0.06976531, 0.9975634), (0, 0, -1), (0, 0, -1), (0, 0, -1), (0, 0, -1), (0, 1, 0), (0, 1, 0), (0, 1, 0), (0, 1, 0), (0, 0, -1), (0, 0, -1), (0, 0, -1), (0, 0, -1), (0, 0.9448731, -0.32743657), (0, 0.94487303, -0.3274369), (0, 0.94487303, -0.3274369), (0, 0.9448731, -0.32743657), (0, 0, -1), (0, 0, -1), (0, 0, -1), (0, 0, -1), (0, 0, -1), (0, 0, -1), (0, 0, -1), (0, 0, -1), (0, -0.2835726, 0.9589508), (0, -0.2835726, 0.9589508), (-1.5463785e-8, -0.28357258, 0.9589508), (-8.391201e-9, -0.28357258, 0.9589508), (0, 0, 1), (0, 0, 1), (0, 0, 1), (0, 0, 1), (0, -0.1094574, 0.9939915), (0, -0.1094574, 0.9939915), (0, -0.1094574, 0.9939915), (0, -0.1094574, 0.9939915), (0, -0.2835726, 0.9589508), (0, -0.2835726, 0.9589508), (-2.2536367e-8, -0.2835726, 0.9589508), (-1.5463785e-8, -0.28357258, 0.9589508), (0, 0, 1), (0, 0, 1), (0, 0, 1), (0, 0, 1), (0, 0, -1), (0, 0, -1), (0, 0, -1), (0, 0, -1), (0, 0, -1), (0, 0, -1), (0, 0, -1), (0, 0, -1), (0, 0.9448731, -0.32743675), (0, 0.9448731, -0.32743657), (0, 0.9448731, -0.32743657), (0, 0.9448731, -0.32743675), (0, 0, -1), (0, 0, -1), (0, 0, -1), (0, 0, -1), (0, 1, 0), (0, 1, 0), (0, 1, 0), (0, 1, 0), (0, 0, -1), (0, 0, -1), (0, 0, -1), (0, 0, -1), (0, -0.06976536, 0.9975634), (0, -0.06976529, 0.9975634), (0, -0.06976531, 0.9975634), (0, -0.06976535, 0.9975634), (0, 0.9448731, 0.32743666), (0, 0.9448731, 0.32743657), (0, 0.9448731, 0.32743657), (0, 0.9448731, 0.32743666), (0, 0, -1), (0, 0, -1), (0, 0, -1), (0, 0, -1), (-8.391201e-9, -0.28357258, 0.9589508), (-1.5463785e-8, -0.28357258, 0.9589508), (-1.5463785e-8, -0.28357258, 0.9589508), (-8.391201e-9, -0.28357255, 0.9589508), (0, 0, 1), (0, 0, 1), (0, 0, 1), (0, 0, 1), (0, -0.1094574, 0.9939915), (0, -0.1094574, 0.9939915), (0, -0.10945741, 0.9939915), (0, -0.10945741, 0.9939915), (-1.5463785e-8, -0.28357258, 0.9589508), (-2.2536367e-8, -0.2835726, 0.9589508), (-2.2536367e-8, -0.2835726, 0.9589508), (-1.5463785e-8, -0.28357258, 0.9589508), (0, 0, 1), (0, 0, 1), (0, 0, 1), (0, 0, 1), (0, 0, -1), (0, 0, -1), (0, 0, -1), (0, 0, -1), (0, 0.9448729, 0.32743707), (0, 0.9448731, 0.32743666), (0, 0.9448731, 0.32743666), (0, 0.9448729, 0.32743707), (0, -0.069765374, 0.9975634), (0, -0.06976536, 0.9975634), (0, -0.06976535, 0.9975634), (0, -0.06976541, 0.9975634), (0, 0, -1), (0, 0, -1), (0, 0, -1), (0, 0, -1), (0, 1, 0), (0, 1, 0), (0, 1, 0), (0, 1, 0), (0, 0, -1), (0, 0, -1), (0, 0, -1), (0, 0, -1), (0, 0.94487303, -0.32743698), (0, 0.9448731, -0.32743675), (0, 0.9448731, -0.32743675), (0, 0.94487303, -0.327437), (0, 0, -1), (0, 0, -1), (0, 0, -1), (0, 0, -1), (0, 0, -1), (0, 0, -1), (0, 0, -1), (0, 0, -1), (-8.391201e-9, -0.28357255, 0.9589508), (-1.5463785e-8, -0.28357258, 0.9589508), (0, -0.28357258, 0.9589508), (0, -0.28357255, 0.9589508), (0, 0, 1), (0, 0, 1), (0, 0, 1), (0, 0, 1), (0, -0.10945741, 0.9939915), (0, -0.10945741, 0.9939915), (0, -0.1094574, 0.9939915), (0, -0.1094574, 0.9939915), (-1.5463785e-8, -0.28357258, 0.9589508), (-2.2536367e-8, -0.2835726, 0.9589508), (0, -0.28357264, 0.9589508), (0, -0.28357258, 0.9589508), (0, 0, 1), (0, 0, 1), (0, 0, 1), (0, 0, 1), (0, 0, -1), (0, 0, -1), (0, 0, -1), (0, 0, -1), (0, 0, -1), (0, 0, -1), (0, 0, -1), (0, 0, -1), (0, 0.9448729, -0.32743734), (0, 0.94487303, -0.32743698), (0, 0.94487303, -0.327437), (0, 0.9448729, -0.3274373), (0, 0, -1), (0, 0, -1), (0, 0, -1), (0, 0, -1), (0, 1, 0), (0, 1, 0), (0, 1, 0), (0, 1, 0), (0, 0, -1), (0, 0, -1), (0, 0, -1), (0, 0, -1), (0, -0.069765516, 0.9975634), (0, -0.069765374, 0.9975634), (0, -0.06976541, 0.9975634), (0, -0.06976557, 0.9975634), (0, 0.94487286, 0.32743743), (0, 0.9448729, 0.32743707), (0, 0.9448729, 0.32743707), (0, 0.94487286, 0.32743743), (0, 0, -1), (0, 0, -1), (0, 0, -1), (0, 0, -1), (0, -0.28357255, 0.9589508), (0, -0.28357258, 0.9589508), (0, -0.28357258, 0.9589508), (0, -0.28357258, 0.9589508), (0, 0, 1), (0, 0, 1), (0, 0, 1), (0, 0, 1), (0, -0.1094574, 0.9939915), (0, -0.1094574, 0.9939915), (0, -0.10945738, 0.9939915), (0, -0.10945738, 0.9939915), (0, -0.28357258, 0.9589508), (0, -0.28357264, 0.9589508), (0, -0.28357264, 0.9589508), (0, -0.28357258, 0.9589508), (0, 0, 1), (0, 0, 1), (0, 0, 1), (0, 0, 1), (0, 0, -1), (0, 0, -1), (0, 0, -1), (0, 0, -1), (0, 0.9448729, 0.32743704), (0, 0.94487286, 0.32743743), (0, 0.94487286, 0.32743743), (0, 0.9448729, 0.32743704), (0, -0.069765545, 0.9975634), (0, -0.069765516, 0.9975634), (0, -0.06976557, 0.9975634), (0, -0.069765486, 0.9975634), (0, 0, -1), (0, 0, -1), (0, 0, -1), (0, 0, -1), (0, 1, 0), (0, 1, 0), (0, 1, 0), (0, 1, 0), (0, 0, -1), (0, 0, -1), (0, 0, -1), (0, 0, -1), (0, 0.9448729, -0.3274371), (0, 0.9448729, -0.32743734), (0, 0.9448729, -0.3274373), (0, 0.9448729, -0.3274371), (0, 0, -1), (0, 0, -1), (0, 0, -1), (0, 0, -1), (0, 0, -1), (0, 0, -1), (0, 0, -1), (0, 0, -1), (0, -0.28357258, 0.9589508), (0, -0.28357258, 0.9589508), (0, -0.28357258, 0.9589508), (0, -0.28357255, 0.9589508), (0, 0, 1), (0, 0, 1), (0, 0, 1), (0, 0, 1), (0, -0.10945738, 0.9939915), (0, -0.10945738, 0.9939915), (0, -0.109457396, 0.9939915), (0, -0.109457396, 0.9939915), (0, -0.28357258, 0.9589508), (0, -0.28357264, 0.9589508), (0, -0.28357264, 0.9589508), (0, -0.28357258, 0.9589508), (0, 0, 1), (0, 0, 1), (0, 0, 1), (0, 0, 1), (0, 0, -1), (0, 0, -1), (0, 0, -1), (0, 0, -1), (0, 0, -1), (0, 0, -1), (0, 0, -1), (0, 0, -1), (0, 0.94487303, -0.327437), (0, 0.9448729, -0.3274371), (0, 0.9448729, -0.3274371), (0, 0.94487303, -0.327437), (0, 0, -1), (0, 0, -1), (0, 0, -1), (0, 0, -1), (0, 1, 0), (0, 1, 0), (0, 1, 0), (0, 1, 0), (0, 0, -1), (0, 0, -1), (0, 0, -1), (0, 0, -1), (0, -0.0697654, 0.9975634), (0, -0.069765545, 0.9975634), (0, -0.069765486, 0.9975634), (0, -0.06976539, 0.9975634), (0, 0.94487303, 0.32743695), (0, 0.9448729, 0.32743704), (0, 0.9448729, 0.32743704), (0, 0.94487303, 0.32743695), (0, 0, -1), (0, 0, -1), (0, 0, -1), (0, 0, -1), (0, -0.28357255, 0.9589508), (0, -0.28357258, 0.9589508), (0, -0.28357258, 0.9589508), (0, -0.28357255, 0.9589508), (0, 0, 1), (0, 0, 1), (0, 0, 1), (0, 0, 1), (0, -0.109457396, 0.9939915), (0, -0.109457396, 0.9939915), (0, -0.1094574, 0.9939915), (0, -0.1094574, 0.9939915), (0, -0.28357258, 0.9589508), (0, -0.28357264, 0.9589508), (0, -0.28357258, 0.9589508), (0, -0.28357258, 0.9589508), (0, 0, 1), (0, 0, 1), (0, 0, 1), (0, 0, 1), (0, 0, -1), (0, 0, -1), (0, 0, -1), (0, 0, -1), (0, 0.9448729, 0.32743725), (0, 0.94487303, 0.32743695), (0, 0.94487303, 0.32743695), (0, 0.9448729, 0.32743725), (0, -0.06976537, 0.9975634), (0, -0.0697654, 0.9975634), (0, -0.06976539, 0.9975634), (0, -0.06976537, 0.9975634), (0, 0, -1), (0, 0, -1), (0, 0, -1), (0, 0, -1), (0, 1, 0), (0, 1, 0), (0, 1, 0), (0, 1, 0), (0, 0, -1), (0, 0, -1), (0, 0, -1), (0, 0, -1), (0, 0.9448729, -0.32743725), (0, 0.94487303, -0.327437), (0, 0.94487303, -0.327437), (0, 0.9448729, -0.32743725), (0, 0, -1), (0, 0, -1), (0, 0, -1), (0, 0, -1), (0, 0, -1), (0, 0, -1), (0, 0, -1), (0, 0, -1), (0, -0.28357255, 0.9589508), (0, -0.28357258, 0.9589508), (0, -0.28357258, 0.9589508), (0, -0.28357255, 0.9589508), (0, 0, 1), (0, 0, 1), (0, 0, 1), (0, 0, 1), (0, -0.1094574, 0.9939915), (0, -0.1094574, 0.9939915), (0, -0.1094574, 0.9939915), (0, -0.10945741, 0.9939915), (0, -0.28357258, 0.9589508), (0, -0.28357258, 0.9589508), (0, -0.28357264, 0.9589508), (0, -0.28357258, 0.9589508), (0, 0, 1), (0, 0, 1), (0, 0, 1), (0, 0, 1), (0, 0, -1), (0, 0, -1), (0, 0, -1), (0, 0, -1), (-0.04433363, 0, 0.99901676), (-0.044333637, 0, 0.99901676), (-0.04433368, 0, 0.99901676), (-0.044333663, 0, 0.99901676), (0, 0, 1), (0, 0, 1), (0, 0, 1), (0, 0, 1), (0, -0.94487303, 0.3274369), (0, -0.94487303, 0.3274369), (0, -0.94487303, 0.32743713), (0, -0.94487303, 0.32743713), (-1, 0, 0), (-1, 0, 0), (-1, 0, 0), (-1, 0, 0), (1, -8.684468e-8, 0), (1, 0, 0), (1, 0, 0), (1, 0, 0), (0, 0.06976541, 0.9975634), (0, 0.0697654, 0.9975634), (0, 0.0697654, 0.9975634), (0, 0.0697654, 0.9975634), (-0.044333737, 0, 0.99901676), (-0.044333737, 0, 0.99901676), (-0.04433373, 0, 0.99901676), (-0.04433373, 0, 0.99901676), (-0.04433366, 0, 0.99901676), (-0.044333644, 0, 0.99901676), (-0.044333637, 0, 0.99901676), (-0.04433363, 0, 0.99901676), (1, 0, 0), (1, 0, 0), (1, 8.067932e-8, 0), (1, -2.8229754e-9, 0), (1, -2.8229754e-9, 0), (1, 8.067932e-8, 0), (1, 8.067936e-8, 0), (1, -1.0192248e-7, 0), (-1, -1.3768572e-7, 0), (-1, 0, 0), (-1, -8.0679314e-8, 0), (-1, -4.175115e-8, 0), (-1, -4.175115e-8, 0), (-1, -8.0679314e-8, 0), (-1, -8.0679314e-8, 0), (-1, -3.8928164e-8, 0), (-5.5781015e-9, 0.28357258, 0.9589508), (-1.1156203e-8, 0.28357258, 0.9589508), (-2.2312404e-8, 0.28357264, 0.95895076), (-1.1156204e-8, 0.28357264, 0.9589508), (0, 0.10945741, 0.9939915), (0, 0.10945742, 0.9939915), (0, 0.10945742, 0.9939915), (0, 0.1094574, 0.9939915), (0, 0, -1), (0, 0, -1), (0, 0, -1), (0, 0, -1), (0.044333648, 0, 0.99901676), (0.04433364, 0, 0.99901676), (0.04433369, 0, 0.99901676), (0.044333685, 0, 0.99901676), (-1, 0, 0), (-1, 0, 0), (-1, 0, 0), (-1, 0, 0), (0, -1, 0), (0, -1, 0), (0, -1, 0), (0, -1, 0), (1, 0, 0), (1, 0, 0), (1, 0, 0), (1, 0, 0), (1, 0, 0), (1, 0, 0), (1, 0, 0), (1, 0, 0), (1, 0, 0), (1, 0, 0), (1, 0, 0), (1, 0, 0), (-1, 0, 0), (-1, 0, 0), (-1, 0, 0), (-1, 0, 0), (-1, 0, 0), (-1, 0, 0), (-1, 0, 0), (-1, 0, 0), (0, 0, -1), (0, 0, -1), (0, 0, -1), (0, 0, -1), (0.04433367, 0, 0.99901676), (0.04433368, 0, 0.99901676), (0.04433364, 0, 0.99901676), (0.044333648, 0, 0.99901676), (0.044333704, 0, 0.99901676), (0.044333693, 0, 0.99901676), (0.04433368, 0, 0.99901676), (0.04433368, 0, 0.99901676), (-1, 0, 0), (-1, -4.175115e-8, 0), (-1, -3.8928164e-8, 0), (-1, 0, 0), (-1, -2.057392e-7, 0), (-1, -1.3768572e-7, 0), (-1, -4.175115e-8, 0), (-1, 0, 0), (1, -7.776192e-8, 0), (1, -2.8229754e-9, 0), (1, -1.0192248e-7, 0), (1, -2.5740545e-7, 0), (1, 0, 0), (1, 0, 0), (1, -2.8229754e-9, 0), (1, -7.776192e-8, 0), (1, -2.2666262e-7, 0), (1, -8.684468e-8, 0), (1, 0, 0), (1, 0, 0), (-1, 0, 0), (-1, 0, 0), (-1, 0, 0), (-1, 0, 0), (0, -0.94487303, -0.32743695), (0, -0.94487303, -0.32743695), (0, -0.9448729, -0.32743725), (0, -0.9448729, -0.32743725), (0, -0.94487303, -0.3274369), (0, -0.94487303, -0.3274369), (0, -0.94487303, -0.32743695), (0, -0.94487303, -0.32743695), (0, 0, -1), (0, 0, -1), (0, 0, -1), (0, 0, -1), (0, -1, 0), (0, -1, 0), (0, -1, 0), (0, -1, 0), (0, 0, -1), (0, 0, -1), (0, 0, -1), (0, 0, -1), (0, 0.10945741, 0.99399155), (0, 0.10945737, 0.9939915), (0, 0.10945737, 0.9939915), (0, 0.10945741, 0.99399155), (0, 0.28357264, 0.9589508), (0, 0.28357264, 0.9589508), (0, 0.28357264, 0.9589508), (0, 0.28357264, 0.95895076), (0, 0.069765374, 0.9975634), (0, 0.069765404, 0.9975634), (0, 0.0697654, 0.9975634), (0, 0.06976541, 0.9975634), (0, -0.94487303, 0.3274369), (0, -0.94487303, 0.3274369), (0, -0.94487303, 0.3274369), (0, -0.94487303, 0.3274369), (0, 0, 1), (0, 0, 1), (0, 0, 1), (0, 0, 1), (0, 0, -1), (0, 0, -1), (0, 0, -1), (0, 0, -1), (0, 0, -1), (0, 0, -1), (0, 0, -1), (0, 0, -1), (0, -0.9448729, 0.3274371), (0, -0.9448729, 0.3274371), (0, -0.94487303, 0.3274369), (0, -0.94487303, 0.3274369), (0, 0.069765426, 0.9975634), (0, 0.06976539, 0.9975634), (0, 0.069765404, 0.9975634), (0, 0.069765374, 0.9975634), (0, 0, -1), (0, 0, -1), (0, 0, -1), (0, 0, -1), (0, -1, 0), (0, -1, 0), (0, -1, 0), (0, -1, 0), (0, 0, -1), (0, 0, -1), (0, 0, -1), (0, 0, -1), (0, -0.9448729, -0.3274372), (0, -0.9448729, -0.3274372), (0, -0.94487303, -0.3274369), (0, -0.94487303, -0.3274369), (0, 0.10945737, 0.9939915), (0, 0.10945738, 0.9939915), (0, 0.10945738, 0.9939915), (0, 0.10945737, 0.9939915), (0, 0.28357264, 0.9589508), (0, 0.28357258, 0.9589508), (0, 0.28357264, 0.9589508), (0, 0.28357264, 0.9589508), (0, 0, 1), (0, 0, 1), (0, 0, 1), (0, 0, 1), (0, 0, 1), (0, 0, 1), (0, 0, 1), (0, 0, 1), (0, 0, -1), (0, 0, -1), (0, 0, -1), (0, 0, -1), (0, 0, 1), (0, 0, 1), (0, 0, 1), (0, 0, 1), (0, 0, -1), (0, 0, -1), (0, 0, -1), (0, 0, -1), (-1, 0, 0), (-1, -3.8928164e-8, 0), (-1, 0, 0), (-1, 0, 0), (1, 0, 0), (1, 0, 0), (1, 0, 0), (1, 0, 0), (0.044333685, 0, 0.99901676), (0.04433369, 0, 0.99901676), (0.044333693, 0, 0.99901676), (0.044333704, 0, 0.99901676), (1, 0, 0), (1, 0, 0), (1, 0, 0), (1, 0, 0), (-1, 0, 0), (-1, 0, 0), (-1, 0, 0), (-1, 0, 0), (0, 0, -1), (0, 0, -1), (0, 0, -1), (0, 0, -0.99999994), (1, 0, 0), (1, 0, 0), (1, 0, 0), (1, 0, 0), (-0.044333626, 0, 0.99901676), (-0.044333626, 0, 0.99901676), (-0.044333644, 0, 0.99901676), (-0.04433366, 0, 0.99901676), (-1, -3.8928164e-8, 0), (-1, -8.0679314e-8, 0), (-1, 0, 0), (-1, 0, 0), (0, 0, 1), (0, 0, 1), (0, 0, 1), (0, 0, 1), (0, 0.2835726, 0.9589508), (0, 0.28357255, 0.9589508), (0, 0.28357258, 0.9589508), (0, 0.28357264, 0.9589508), (0, 0, -1), (0, 0, -1), (0, 0, -1), (0, 0, -1), (0, 0, -1), (0, 0, -1), (0, 0, -1), (0, 0, -1), (0, 0.2835726, 0.9589507), (0, 0.2835726, 0.9589508), (0, 0.28357264, 0.9589508), (0, 0.28357264, 0.9589508), (1, -2.5740545e-7, 0), (1, -1.0192248e-7, 0), (1, -8.684468e-8, 0), (1, -2.2666262e-7, 0), (-1, 3.0588186e-14, 0), (-1, 1.8093823e-14, 0), (-1, -1.3768572e-7, 0), (-1, -2.057392e-7, 0), (0.04433373, 0, 0.99901676), (0.04433373, 0, 0.99901676), (0.04433368, 0, 0.99901676), (0.04433367, 0, 0.99901676), (-1, 0, 0), (-1, 0, 0), (-1, 0, 0), (-1, 0, 0), (1, 0, 0), (1, 0, 0), (1, 0, 0), (1, 0, 0), (0, 0.28357255, 0.9589508), (0, 0.28357255, 0.9589508), (-1.1156203e-8, 0.28357258, 0.9589508), (-5.5781015e-9, 0.28357258, 0.9589508), (-1, 1.8093823e-14, 0), (-1, 0, 0), (-1, 0, 0), (-1, -1.3768572e-7, 0), (-0.044333663, 0, 0.99901676), (-0.04433368, 0, 0.99901676), (-0.044333737, 0, 0.99901676), (-0.044333737, 0, 0.99901676), (1, -1.0192248e-7, 0), (1, 8.067936e-8, 0), (1, 0, 0), (1, -8.684468e-8, 0), (0, 0, -1), (0, 0, -1), (0, 0, -1), (0, 0, -1), (0, 0.28357255, 0.9589508), (0, 0.28357255, 0.9589509), (0, 0.28357255, 0.9589508), (0, 0.28357258, 0.9589508), (0, 0, -1), (0, 0, -1), (0, 0, -1), (0, 0, -1), (0, 0, 1), (0, 0, 1), (0, 0, 1), (0, 0, 1), (0, 0, -1), (0, 0, -1), (0, 0, -1), (0, 0, -1), (0, -0.9448729, -0.32743704), (0, -0.9448729, -0.32743704), (0, -0.9448729, -0.3274372), (0, -0.9448729, -0.3274372), (0, 0, -1), (0, 0, -1), (0, 0, -1), (0, 0, -1), (0, -1, 0), (0, -1, 0), (0, -1, 0), (0, -1, 0), (0, 0, -1), (0, 0, -1), (0, 0, -1), (0, 0, -1), (0, 0.06976526, 0.9975634), (0, 0.06976538, 0.9975634), (0, 0.06976539, 0.9975634), (0, 0.069765426, 0.9975634), (0, -0.9448729, 0.32743707), (0, -0.9448729, 0.32743707), (0, -0.9448729, 0.3274371), (0, -0.9448729, 0.3274371), (0, 0, -1), (0, 0, -1), (0, 0, -1), (0, 0, -1), (0, 0.10945738, 0.9939915), (0, 0.1094574, 0.9939915), (0, 0.1094574, 0.9939915), (0, 0.10945738, 0.9939915), (0, 0.28357258, 0.9589508), (0, 0.28357255, 0.9589508), (0, 0.2835726, 0.9589508), (0, 0.28357264, 0.9589508), (0, 0, 1), (0, 0, 1), (0, 0, 1), (0, 0, 1), (0, 0, -1), (0, 0, -1), (0, 0, -1), (0, 0, -1), (0, -0.94487303, 0.32743707), (0, -0.94487303, 0.32743707), (0, -0.9448729, 0.32743707), (0, -0.9448729, 0.32743707), (0, 0.06976534, 0.9975634), (0, 0.069765255, 0.9975634), (0, 0.06976538, 0.9975634), (0, 0.06976526, 0.9975634), (0, 0, -1), (0, 0, -1), (0, 0, -1), (0, 0, -1), (0, -1, 0), (0, -1, 0), (0, -1, 0), (0, -1, 0), (0, 0, -1), (0, 0, -1), (0, 0, -1), (0, 0, -1), (0, -0.9448729, -0.32743704), (0, -0.9448729, -0.32743704), (0, -0.9448729, -0.32743704), (0, -0.9448729, -0.32743704), (0, 0, -1), (0, 0, -1), (0, 0, -1), (0, 0, -1), (0, 0, -1), (0, 0, -1), (0, 0, -1), (0, 0, -1), (0, 0.28357255, 0.9589509), (0, 0.28357258, 0.9589508), (0, 0.28357258, 0.9589508), (0, 0.28357255, 0.9589508), (0, 0, 1), (0, 0, 1), (0, 0, 1), (0, 0, 1), (0, 0.1094574, 0.9939915), (0, 0.10945738, 0.9939915), (0, 0.10945738, 0.9939915), (0, 0.1094574, 0.9939915), (0, 0.28357255, 0.9589508), (0, 0.28357258, 0.9589508), (0, 0.28357258, 0.9589508), (0, 0.2835726, 0.9589508), (0, 0, 1), (0, 0, 1), (0, 0, 1), (0, 0, 1), (0, 0, -1), (0, 0, -1), (0, 0, -1), (0, 0, -1), (0, 0, -1), (0, 0, -1), (0, 0, -1), (0, 0, -1), (0, -0.94487303, -0.3274369), (0, -0.94487303, -0.3274369), (0, -0.9448729, -0.32743704), (0, -0.9448729, -0.32743704), (0, 0, -1), (0, 0, -1), (0, 0, -1), (0, 0, -1), (0, -1, 0), (0, -1, 0), (0, -1, 0), (0, -1, 0), (0, 0, -1), (0, 0, -1), (0, 0, -1), (0, 0, -1), (0, 0.0697653, 0.9975634), (0, 0.06976536, 0.9975634), (0, 0.069765255, 0.9975634), (0, 0.06976534, 0.9975634), (0, -0.9448731, 0.32743683), (0, -0.9448731, 0.32743683), (0, -0.94487303, 0.32743707), (0, -0.94487303, 0.32743707), (0, 0, -1), (0, 0, -1), (0, 0, -1), (0, 0, -1), (0, 0.28357258, 0.9589508), (0, 0.2835726, 0.9589508), (0, 0.28357258, 0.9589508), (0, 0.28357258, 0.9589508), (0, 0, 1), (0, 0, 1), (0, 0, 1), (0, 0, 1), (0, 0.10945738, 0.9939915), (0, 0.1094574, 0.9939915), (0, 0.1094574, 0.9939915), (0, 0.10945738, 0.9939915), (0, 0.28357258, 0.9589508), (0, 0.28357258, 0.9589508), (0, 0.2835726, 0.9589508), (0, 0.28357258, 0.9589508), (0, 0, 1), (0, 0, 1), (0, 0, 1), (0, 0, 1), (0, 0, -1), (0, 0, -1), (0, 0, -1), (0, 0, -1), (0, -0.9448731, 0.32743657), (0, -0.9448731, 0.32743657), (0, -0.9448731, 0.32743683), (0, -0.9448731, 0.32743683), (0, 0.06976531, 0.9975634), (0, 0.06976532, 0.9975634), (0, 0.06976536, 0.9975634), (0, 0.0697653, 0.9975634), (0, 0, -1), (0, 0, -1), (0, 0, -1), (0, 0, -1), (0, -1, 0), (0, -1, 0), (0, -1, 0), (0, -1, 0), (0, 0, -1), (0, 0, -1), (0, 0, -1), (0, 0, -1), (0, -0.9448731, -0.32743657), (0, -0.9448731, -0.32743657), (0, -0.94487303, -0.3274369), (0, -0.94487303, -0.3274369), (0, 0, -1), (0, 0, -1), (0, 0, -1), (0, 0, -1), (0, 0, -1), (0, 0, -1), (0, 0, -1), (0, 0, -1), (0, 0.2835726, 0.9589508), (-5.253419e-9, 0.28357258, 0.9589508), (-1.3894893e-8, 0.28357258, 0.9589508), (0, 0.28357258, 0.9589508), (0, 0, 1), (0, 0, 1), (0, 0, 1), (0, 0, 1), (0, 0.1094574, 0.9939915), (0, 0.1094574, 0.9939915), (0, 0.1094574, 0.9939915), (0, 0.1094574, 0.9939915), (0, 0.28357258, 0.9589508), (-1.3894893e-8, 0.28357258, 0.9589508), (-2.2536367e-8, 0.2835726, 0.9589508), (0, 0.2835726, 0.9589508), (0, 0, 1), (0, 0, 1), (0, 0, 1), (0, 0, 1), (0, 0, -1), (0, 0, -1), (0, 0, -1), (0, 0, -1), (0, 0, -1), (0, 0, -1), (0, 0, -1), (0, 0, -1), (0, -0.9448731, -0.32743675), (0, -0.9448731, -0.32743675), (0, -0.9448731, -0.32743657), (0, -0.9448731, -0.32743657), (0, 0, -1), (0, 0, -1), (0, 0, -1), (0, 0, -1), (0, -1, 0), (0, -1, 0), (0, -1, 0), (0, -1, 0), (0, 0, -1), (0, 0, -1), (0, 0, -1), (0, 0, -1), (0, 0.06976536, 0.9975634), (0, 0.06976535, 0.9975634), (0, 0.06976532, 0.9975634), (0, 0.06976531, 0.9975634), (0, -0.9448731, 0.32743666), (0, -0.9448731, 0.32743666), (0, -0.9448731, 0.32743657), (0, -0.9448731, 0.32743657), (0, 0, -1), (0, 0, -1), (0, 0, -1), (0, 0, -1), (-5.253419e-9, 0.28357258, 0.9589508), (-5.253419e-9, 0.28357255, 0.9589508), (-1.3894893e-8, 0.28357258, 0.9589508), (-1.3894893e-8, 0.28357258, 0.9589508), (0, 0, 1), (0, 0, 1), (0, 0, 1), (0, 0, 1), (0, 0.1094574, 0.9939915), (0, 0.10945741, 0.9939915), (0, 0.10945741, 0.9939915), (0, 0.1094574, 0.9939915), (-1.3894893e-8, 0.28357258, 0.9589508), (-1.3894893e-8, 0.28357258, 0.9589508), (-2.2536367e-8, 0.2835726, 0.9589508), (-2.2536367e-8, 0.2835726, 0.9589508), (0, 0, 1), (0, 0, 1), (0, 0, 1), (0, 0, 1), (0, 0, -1), (0, 0, -1), (0, 0, -1), (0, 0, -1), (0, -0.9448729, 0.32743707), (0, -0.9448729, 0.32743707), (0, -0.9448731, 0.32743666), (0, -0.9448731, 0.32743666), (0, 0.06976536, 0.9975634), (0, 0.069765374, 0.9975634), (0, 0.06976535, 0.9975634), (0, 0.06976536, 0.9975634), (0, 0, -1), (0, 0, -1), (0, 0, -1), (0, 0, -1), (0, -1, 0), (0, -1, 0), (0, -1, 0), (0, -1, 0), (0, 0, -1), (0, 0, -1), (0, 0, -1), (0, 0, -1), (0, -0.9448729, -0.32743704), (0, -0.9448729, -0.32743704), (0, -0.9448731, -0.32743675), (0, -0.9448731, -0.32743675), (0, 0, -1), (0, 0, -1), (0, 0, -1), (0, 0, -1), (0, 0, -1), (0, 0, -1), (0, 0, -1), (0, 0, -1), (-5.253419e-9, 0.28357255, 0.9589508), (0, 0.28357255, 0.9589508), (0, 0.28357258, 0.9589508), (-1.3894893e-8, 0.28357258, 0.9589508), (0, 0, 1), (0, 0, 1), (0, 0, 1), (0, 0, 1), (0, 0.10945741, 0.9939915), (0, 0.1094574, 0.9939915), (0, 0.1094574, 0.9939915), (0, 0.10945741, 0.9939915), (-1.3894893e-8, 0.28357258, 0.9589508), (0, 0.28357258, 0.9589508), (0, 0.28357264, 0.9589508), (-2.2536367e-8, 0.2835726, 0.9589508), (0, 0, 1), (0, 0, 1), (0, 0, 1), (0, 0, 1), (0, 0, -1), (0, 0, -1), (0, 0, -1), (0, 0, -1), (0, 0, -1), (0, 0, -1), (0, 0, -1), (0, 0, -1), (0, -0.94487303, -0.32743716), (0, -0.9448729, -0.3274371), (0, -0.9448729, -0.32743704), (0, -0.9448729, -0.32743704), (0, 0, -1), (0, 0, -1), (0, 0, -1), (0, 0, -1), (0, -1, 0), (0, -1, 0), (0, -1, 0), (0, -1, 0), (0, 0, -1), (0, 0, -1), (0, 0, -1), (0, 0, -1), (0, 0.06976547, 0.9975634), (0, 0.06976551, 0.9975634), (0, 0.069765374, 0.9975634), (0, 0.06976536, 0.9975634), (0, -0.94487286, 0.32743743), (0, -0.94487286, 0.32743743), (0, -0.9448729, 0.32743707), (0, -0.9448729, 0.32743707), (0, 0, -1), (0, 0, -1), (0, 0, -1), (0, 0, -1), (0, 0.28357255, 0.9589508), (0, 0.28357258, 0.9589508), (0, 0.28357258, 0.9589508), (0, 0.28357258, 0.9589508), (0, 0, 1), (0, 0, 1), (0, 0, 1), (0, 0, 1), (0, 0.1094574, 0.9939915), (0, 0.10945738, 0.9939915), (0, 0.10945738, 0.9939915), (0, 0.1094574, 0.9939915), (0, 0.28357258, 0.9589508), (0, 0.28357258, 0.9589508), (0, 0.28357264, 0.9589508), (0, 0.28357264, 0.9589508), (0, 0, 1), (0, 0, 1), (0, 0, 1), (0, 0, 1), (0, 0, -1), (0, 0, -1), (0, 0, -1), (0, 0, -1), (0, -0.9448729, 0.32743704), (0, -0.9448729, 0.32743704), (0, -0.94487286, 0.32743743), (0, -0.94487286, 0.32743743), (0, 0.06976552, 0.9975634), (0, 0.06976547, 0.9975634), (0, 0.06976551, 0.9975634), (0, 0.06976547, 0.9975634), (0, 0, -1), (0, 0, -1), (0, 0, -1), (0, 0, -1), (0, -1, 0), (0, -1, 0), (0, -1, 0), (0, -1, 0), (0, 0, -1), (0, 0, -1), (0, 0, -1), (0, 0, -1), (0, -0.94487303, -0.32743695), (0, -0.94487303, -0.32743698), (0, -0.9448729, -0.3274371), (0, -0.94487303, -0.32743716), (0, 0, -1), (0, 0, -1), (0, 0, -1), (0, 0, -1), (0, 0, -1), (0, 0, -1), (0, 0, -1), (0, 0, -1), (0, 0.28357258, 0.9589508), (0, 0.28357255, 0.9589508), (0, 0.28357258, 0.9589508), (0, 0.28357258, 0.9589508), (0, 0, 1), (0, 0, 1), (0, 0, 1), (0, 0, 1), (0, 0.10945738, 0.9939915), (0, 0.109457396, 0.9939915), (0, 0.109457396, 0.9939915), (0, 0.10945738, 0.9939915), (0, 0.28357258, 0.9589508), (0, 0.28357258, 0.9589508), (0, 0.28357264, 0.9589508), (0, 0.28357264, 0.9589508), (0, 0, 1), (0, 0, 1), (0, 0, 1), (0, 0, 1), (0, 0, -1), (0, 0, -1), (0, 0, -1), (0, 0, -1), (0, 0, -1), (0, 0, -1), (0, 0, -1), (0, 0, -1), (0, -0.9448729, -0.32743704), (0, -0.9448729, -0.32743704), (0, -0.94487303, -0.32743698), (0, -0.94487303, -0.32743695), (0, 0, -1), (0, 0, -1), (0, 0, -1), (0, 0, -1), (0, -1, 0), (0, -1, 0), (0, -1, 0), (0, -1, 0), (0, 0, -1), (0, 0, -1), (0, 0, -1), (0, 0, -1), (0, 0.0697654, 0.9975634), (0, 0.069765374, 0.9975634), (0, 0.06976547, 0.9975634), (0, 0.06976552, 0.9975634), (0, -0.94487303, 0.32743695), (0, -0.94487303, 0.32743695), (0, -0.9448729, 0.32743704), (0, -0.9448729, 0.32743704), (0, 0, -1), (0, 0, -1), (0, 0, -1), (0, 0, -1), (0, 0.28357255, 0.9589508), (0, 0.28357255, 0.9589508), (0, 0.28357258, 0.9589508), (0, 0.28357258, 0.9589508), (0, 0, 1), (0, 0, 1), (0, 0, 1), (0, 0, 1), (0, 0.109457396, 0.9939915), (0, 0.1094574, 0.9939915), (0, 0.1094574, 0.9939915), (0, 0.109457396, 0.9939915), (0, 0.28357258, 0.9589508), (0, 0.28357258, 0.9589508), (0, 0.28357258, 0.9589508), (0, 0.28357264, 0.9589508), (0, 0, 1), (0, 0, 1), (0, 0, 1), (0, 0, 1), (0, 0, -1), (0, 0, -1), (0, 0, -1), (0, 0, -1), (0, -0.9448729, 0.32743725), (0, -0.9448729, 0.32743725), (0, -0.94487303, 0.32743695), (0, -0.94487303, 0.32743695), (0, 0.06976536, 0.9975634), (0, 0.06976536, 0.9975634), (0, 0.069765374, 0.9975634), (0, 0.0697654, 0.9975634), (0, 0, -1), (0, 0, -1), (0, 0, -1), (0, 0, -1), (0, -1, 0), (0, -1, 0), (0, -1, 0), (0, -1, 0), (0, 0, -1), (0, 0, -1), (0, 0, -1), (0, 0, -1), (0, -0.9448729, -0.32743725), (0, -0.9448729, -0.32743725), (0, -0.9448729, -0.32743704), (0, -0.9448729, -0.32743704), (0, 0, -1), (0, 0, -1), (0, 0, -1), (0, 0, -1), (0, 0, -1), (0, 0, -1), (0, 0, -1), (0, 0, -1), (0, 0.28357255, 0.9589508), (0, 0.28357255, 0.9589508), (-5.5781015e-9, 0.28357258, 0.9589508), (0, 0.28357258, 0.9589508), (0, 0, 1), (0, 0, 1), (0, 0, 1), (0, 0, 1), (0, 0.1094574, 0.9939915), (0, 0.10945741, 0.9939915), (0, 0.1094574, 0.9939915), (0, 0.1094574, 0.9939915), (0, 0.28357258, 0.9589508), (-5.5781015e-9, 0.28357258, 0.9589508), (-1.1156204e-8, 0.28357264, 0.9589508), (0, 0.28357258, 0.9589508), (0, 0, 1), (0, 0, 1), (0, 0, 1), (0, 0, 1)] (
                interpolation = "faceVarying"
            )
            point3f[] points = [(-0.44049495, 0.6547997, 0.16428024), (0.6547997, 0.6547997, 0.16428024), (-0.44049495, 0.6547997, 0.04648813), (0.6547997, 0.6547997, 0.04648813), (-0.44049495, 0.21826658, 0.14024493), (-0.44049495, 0.4365331, 0.16428024), (0.6547997, 0.21826658, 0.04648813), (0.6547997, 0.4365331, 0.04648813), (0.6547997, 0.4365331, 0.16428024), (0.6547997, 0.21826655, 0.14024493), (-0.44049495, 0.4365331, 0.04648813), (-0.44049495, 0.21826655, 0.04648813), (-0.48982656, 0.68610275, 0.048677333), (-0.48982656, 0.68610275, -0.0014948174), (0.7041313, 0.68610275, 0.048677333), (0.7041313, 0.68610275, -0.0014948174), (0.7041313, 0.44696745, -0.0014948174), (0.7041313, 0.44696745, 0.048677333), (-0.48982656, 0.2078322, -0.0014948174), (-0.48982656, 0.2078322, 0.048677333), (0.7041313, 0.2078322, -0.0014948174), (0.7041313, 0.2078322, 0.048677333), (-0.48982656, 0.44696745, -0.0014948174), (-0.48982656, 0.44696745, 0.048677333), (-0.44049495, 0.6343898, 0.105384186), (0.6547997, 0.6343898, 0.105384186), (0.6547997, 0.4365331, 0.105384186), (0.6547997, 0.21826655, 0.093366526), (-0.44049495, 0.21826655, 0.093366526), (-0.44049495, 0.4365331, 0.105384186), (0.5011687, 0.6547997, 0.16428024), (0.5011687, 0.6547997, 0.04648813), (0.5011687, 0.21826655, 0.14024493), (0.5011687, 0.4365331, 0.16428024), (0.538926, 0.2078322, -0.0014948174), (0.538926, 0.44696745, -0.0014948174), (0.538926, 0.68610275, -0.0014948174), (0.538926, 0.68610275, 0.048677333), (0.5011687, 0.6343898, 0.105384186), (0.45934233, 0.6547997, 0.04648813), (0.45934233, 0.21826655, 0.14024493), (0.45934233, 0.4365331, 0.16428024), (0.49394852, 0.2078322, -0.0014948174), (0.49394852, 0.68610275, -0.0014948174), (0.49394852, 0.68610275, 0.048677333), (0.45934233, 0.6343898, 0.105384186), (0.45934233, 0.6547997, 0.16428024), (0.49394852, 0.44696745, -0.0014948174), (-0.44049495, 0.57306904, 0.16428024), (0.6547997, 0.57306904, 0.04648813), (0.6547997, 0.57306904, 0.16428024), (-0.44049495, 0.57306904, 0.04648813), (0.7041313, 0.5965577, -0.0014948174), (0.7041313, 0.5965577, 0.048677333), (-0.48982656, 0.5965577, -0.0014948174), (-0.48982656, 0.5965577, 0.048677333), (0.6547997, 0.5603017, 0.105384186), (-0.44049495, 0.5603017, 0.105384186), (0.538926, 0.5965577, -0.0014948174), (0.5011687, 0.57306904, 0.16428024), (0.49394852, 0.5965577, -0.0014948174), (0.45934233, 0.57306904, 0.16428024), (0.6547997, 0.08767973, 0.10162893), (-0.44049495, 0.08767973, 0.04648813), (-0.44049495, 0.08767974, 0.10162893), (0.6547997, 0.08767974, 0.04648813), (-0.48982656, 0.08348815, -0.0014948174), (-0.48982656, 0.08348815, 0.048677333), (0.7041313, 0.08348815, -0.0014948174), (0.7041313, 0.08348815, 0.048677333), (-0.44049495, 0.08767972, 0.07405853), (0.6547997, 0.08767972, 0.07405853), (0.5011687, 0.08767973, 0.10162893), (0.538926, 0.08348815, -0.0014948174), (0.49394852, 0.08348815, -0.0014948174), (0.45934233, 0.08767973, 0.10162893), (0.3978574, 0.6547997, 0.04648813), (0.3978574, 0.21826655, 0.14024493), (0.3978574, 0.4365331, 0.16428024), (0.42783138, 0.2078322, -0.0014948174), (0.42783138, 0.68610275, -0.0014948174), (0.42783138, 0.68610275, 0.048677333), (0.3978574, 0.6343898, 0.105384186), (0.3978574, 0.6547997, 0.16428024), (0.42783138, 0.44696745, -0.0014948174), (0.42783138, 0.5965577, -0.0014948174), (0.3978574, 0.57306904, 0.16428024), (0.42783138, 0.08348815, -0.0014948174), (0.3978574, 0.08767973, 0.10162893), (0.34538493, 0.6547997, 0.04648813), (0.34538493, 0.21826655, 0.14024493), (0.34538493, 0.4365331, 0.16428024), (0.37140566, 0.2078322, -0.0014948174), (0.37140566, 0.68610275, -0.0014948174), (0.37140566, 0.68610275, 0.048677333), (0.34538493, 0.6343898, 0.105384186), (0.37140566, 0.5965577, -0.0014948174), (0.34538493, 0.57306904, 0.16428024), (0.37140566, 0.08348815, -0.0014948174), (0.34538493, 0.08767973, 0.10162893), (0.34538493, 0.6547997, 0.16428024), (0.37140566, 0.44696745, -0.0014948174), (0.29173678, 0.6547997, 0.04648813), (0.29173678, 0.21826655, 0.14024493), (0.29173678, 0.4365331, 0.16428024), (0.31371573, 0.2078322, -0.0014948174), (0.31371573, 0.68610275, -0.0014948174), (0.31371573, 0.68610275, 0.048677333), (0.29173678, 0.6343898, 0.105384186), (0.31371573, 0.5965577, -0.0014948174), (0.29173678, 0.57306904, 0.16428024), (0.31371573, 0.08348815, -0.0014948174), (0.29173678, 0.08767973, 0.10162893), (0.29173678, 0.6547997, 0.16428024), (0.31371573, 0.44696745, -0.0014948174), (0.24398482, 0.6547997, 0.04648813), (0.24398482, 0.21826655, 0.14024493), (0.24398482, 0.4365331, 0.16428024), (0.26236624, 0.2078322, -0.0014948174), (0.26236624, 0.68610275, -0.0014948174), (0.26236624, 0.68610275, 0.048677333), (0.24398482, 0.6343898, 0.105384186), (0.26236624, 0.5965577, -0.0014948174), (0.24398482, 0.57306904, 0.16428024), (0.26236624, 0.08348815, -0.0014948174), (0.24398482, 0.08767973, 0.10162893), (0.24398482, 0.6547997, 0.16428024), (0.26236624, 0.44696745, -0.0014948174), (-0.05948336, 0.6547997, 0.04648813), (-0.05948336, 0.21826655, 0.14024493), (-0.05948336, 0.4365331, 0.16428024), (-0.06396475, 0.2078322, -0.0014948174), (-0.06396475, 0.68610275, -0.0014948174), (-0.06396475, 0.68610275, 0.048677333), (-0.05948336, 0.6343898, 0.105384186), (-0.06396475, 0.5965577, -0.0014948174), (-0.05948336, 0.57306904, 0.16428024), (-0.06396475, 0.08348815, -0.0014948174), (-0.05948336, 0.08767974, 0.10162893), (-0.05948336, 0.6547997, 0.16428024), (-0.06396478, 0.44696745, -0.0014948174), (-0.098213054, 0.6547997, 0.04648813), (-0.098213054, 0.21826655, 0.14024493), (-0.098213054, 0.4365331, 0.16428024), (-0.105612285, 0.2078322, -0.0014948174), (-0.105612285, 0.68610275, -0.0014948174), (-0.105612285, 0.68610275, 0.048677333), (-0.098213054, 0.6343898, 0.105384186), (-0.105612285, 0.5965577, -0.0014948174), (-0.098213054, 0.57306904, 0.16428024), (-0.105612285, 0.08348815, -0.0014948174), (-0.098213054, 0.08767974, 0.10162893), (-0.098213054, 0.6547997, 0.16428024), (-0.10561231, 0.44696745, -0.0014948174), (-0.16600245, 0.6547997, 0.04648813), (-0.16600245, 0.21826655, 0.14024493), (-0.16600245, 0.4365331, 0.16428024), (-0.17850883, 0.2078322, -0.0014948174), (-0.17850883, 0.68610275, -0.0014948174), (-0.17850883, 0.68610275, 0.048677333), (-0.16600245, 0.6343898, 0.105384186), (-0.17850883, 0.5965577, -0.0014948174), (-0.16600245, 0.57306904, 0.16428024), (-0.17850883, 0.08348815, -0.0014948174), (-0.16600245, 0.08767974, 0.10162893), (-0.16600247, 0.6547997, 0.16428024), (-0.17850885, 0.44696745, -0.0014948174), (-0.20156161, 0.6547997, 0.04648813), (-0.20156161, 0.21826655, 0.14024493), (-0.20156161, 0.4365331, 0.16428024), (-0.21674697, 0.2078322, -0.0014948174), (-0.21674697, 0.68610275, -0.0014948174), (-0.21674697, 0.68610275, 0.048677333), (-0.20156161, 0.6343898, 0.105384186), (-0.21674697, 0.5965577, -0.0014948174), (-0.20156161, 0.57306904, 0.16428024), (-0.21674697, 0.08348815, -0.0014948174), (-0.20156161, 0.08767974, 0.10162893), (-0.20156163, 0.6547997, 0.16428024), (-0.21674697, 0.44696745, -0.0014948174), (-0.24943627, 0.6547997, 0.04648813), (-0.24943627, 0.21826655, 0.14024493), (-0.24943627, 0.4365331, 0.16428024), (-0.26822844, 0.2078322, -0.0014948174), (-0.26822844, 0.68610275, -0.0014948174), (-0.26822844, 0.68610275, 0.048677333), (-0.24943627, 0.6343898, 0.105384186), (-0.26822844, 0.5965577, -0.0014948174), (-0.24943627, 0.57306904, 0.16428024), (-0.26822844, 0.08348815, -0.0014948174), (-0.24943627, 0.08767974, 0.10162893), (-0.24943629, 0.6547997, 0.16428024), (-0.26822844, 0.44696745, -0.0014948174), (-0.2909657, 0.6547997, 0.04648813), (-0.2909657, 0.21826655, 0.14024493), (-0.2909657, 0.4365331, 0.16428024), (-0.31288666, 0.2078322, -0.0014948174), (-0.31288666, 0.68610275, -0.0014948174), (-0.31288666, 0.68610275, 0.048677333), (-0.2909657, 0.6343898, 0.105384186), (-0.31288666, 0.5965577, -0.0014948174), (-0.2909657, 0.57306904, 0.16428024), (-0.31288666, 0.08348815, -0.0014948174), (-0.2909657, 0.08767974, 0.10162893), (-0.2909657, 0.6547997, 0.16428024), (-0.31288666, 0.44696745, -0.0014948174), (-0.44049495, -0.6547997, 0.16428024), (0.6547997, -0.6547997, 0.16428024), (-0.44049495, -0.6547997, 0.04648813), (0.6547997, -0.6547997, 0.04648813), (-0.44049495, 0, 0.07570104), (0.6547997, 0, 0.07570104), (0.6547997, 0, 0.04648813), (-0.44049495, 0, 0.04648813), (-0.44049495, -0.21826658, 0.14024493), (-0.44049495, -0.4365331, 0.16428024), (0.6547997, -0.21826658, 0.04648813), (0.6547997, -0.4365331, 0.04648813), (0.6547997, -0.4365331, 0.16428024), (0.6547997, -0.21826655, 0.14024493), (-0.44049495, -0.4365331, 0.04648813), (-0.44049495, -0.21826655, 0.04648813), (-0.48982656, -0.68610275, 0.048677333), (-0.48982656, -0.68610275, -0.0014948174), (0.7041313, -0.68610275, 0.048677333), (0.7041313, -0.68610275, -0.0014948174), (0.7041313, -0.44696745, -0.0014948174), (0.7041313, -0.44696745, 0.048677333), (-0.48982656, -0.2078322, -0.0014948174), (-0.48982656, 0, -0.0014948174), (-0.48982656, -0.2078322, 0.048677333), (-0.48982656, 0, 0.048677333), (0.7041313, 0, 0.048677333), (0.7041313, 0, -0.0014948174), (0.7041313, -0.2078322, -0.0014948174), (0.7041313, -0.2078322, 0.048677333), (-0.48982656, -0.44696745, -0.0014948174), (-0.48982656, -0.44696745, 0.048677333), (-0.44049495, -0.6343898, 0.105384186), (0.6547997, -0.6343898, 0.105384186), (-0.44049495, 0, 0.061094586), (0.6547997, 0, 0.061094586), (0.6547997, -0.4365331, 0.105384186), (0.6547997, -0.21826655, 0.093366526), (-0.44049495, -0.21826655, 0.093366526), (-0.44049495, -0.4365331, 0.105384186), (0.5011687, -0.6547997, 0.16428024), (0.5011687, -0.6547997, 0.04648813), (0.5011687, 0, 0.07570104), (0.538926, 0, -0.0014948174), (0.5011687, -0.21826655, 0.14024493), (0.5011687, -0.4365331, 0.16428024), (0.538926, -0.2078322, -0.0014948174), (0.538926, -0.44696745, -0.0014948174), (0.538926, -0.68610275, -0.0014948174), (0.538926, -0.68610275, 0.048677333), (0.5011687, -0.6343898, 0.105384186), (0.45934233, -0.6547997, 0.04648813), (0.45934233, 0, 0.07570104), (0.49394852, 0, -0.0014948174), (0.45934233, -0.21826655, 0.14024493), (0.45934233, -0.4365331, 0.16428024), (0.49394852, -0.2078322, -0.0014948174), (0.49394852, -0.68610275, -0.0014948174), (0.49394852, -0.68610275, 0.048677333), (0.45934233, -0.6343898, 0.105384186), (0.45934233, -0.6547997, 0.16428024), (0.49394852, -0.44696745, -0.0014948174), (-0.44049495, -0.57306904, 0.16428024), (0.6547997, -0.57306904, 0.04648813), (0.6547997, -0.57306904, 0.16428024), (-0.44049495, -0.57306904, 0.04648813), (0.7041313, -0.5965577, -0.0014948174), (0.7041313, -0.5965577, 0.048677333), (-0.48982656, -0.5965577, -0.0014948174), (-0.48982656, -0.5965577, 0.048677333), (0.6547997, -0.5603017, 0.105384186), (-0.44049495, -0.5603017, 0.105384186), (0.538926, -0.5965577, -0.0014948174), (0.5011687, -0.57306904, 0.16428024), (0.49394852, -0.5965577, -0.0014948174), (0.45934233, -0.57306904, 0.16428024), (0.6547997, -0.08767973, 0.10162893), (-0.44049495, -0.08767973, 0.04648813), (-0.44049495, -0.08767974, 0.10162893), (0.6547997, -0.08767974, 0.04648813), (-0.48982656, -0.08348815, -0.0014948174), (-0.48982656, -0.08348815, 0.048677333), (0.7041313, -0.08348815, -0.0014948174), (0.7041313, -0.08348815, 0.048677333), (-0.44049495, -0.08767972, 0.07405853), (0.6547997, -0.08767972, 0.07405853), (0.5011687, -0.08767973, 0.10162893), (0.538926, -0.08348815, -0.0014948174), (0.49394852, -0.08348815, -0.0014948174), (0.45934233, -0.08767973, 0.10162893), (0.3978574, -0.6547997, 0.04648813), (0.3978574, 0, 0.07570104), (0.42783138, 0, -0.0014948174), (0.3978574, -0.21826655, 0.14024493), (0.3978574, -0.4365331, 0.16428024), (0.42783138, -0.2078322, -0.0014948174), (0.42783138, -0.68610275, -0.0014948174), (0.42783138, -0.68610275, 0.048677333), (0.3978574, -0.6343898, 0.105384186), (0.3978574, -0.6547997, 0.16428024), (0.42783138, -0.44696745, -0.0014948174), (0.42783138, -0.5965577, -0.0014948174), (0.3978574, -0.57306904, 0.16428024), (0.42783138, -0.08348815, -0.0014948174), (0.3978574, -0.08767973, 0.10162893), (0.34538493, -0.6547997, 0.04648813), (0.34538493, 0, 0.07570104), (0.37140566, 0, -0.0014948174), (0.34538493, -0.21826655, 0.14024493), (0.34538493, -0.4365331, 0.16428024), (0.37140566, -0.2078322, -0.0014948174), (0.37140566, -0.68610275, -0.0014948174), (0.37140566, -0.68610275, 0.048677333), (0.34538493, -0.6343898, 0.105384186), (0.37140566, -0.5965577, -0.0014948174), (0.34538493, -0.57306904, 0.16428024), (0.37140566, -0.08348815, -0.0014948174), (0.34538493, -0.08767973, 0.10162893), (0.34538493, -0.6547997, 0.16428024), (0.37140566, -0.44696745, -0.0014948174), (0.29173678, -0.6547997, 0.04648813), (0.29173678, 0, 0.07570104), (0.31371573, 0, -0.0014948174), (0.29173678, -0.21826655, 0.14024493), (0.29173678, -0.4365331, 0.16428024), (0.31371573, -0.2078322, -0.0014948174), (0.31371573, -0.68610275, -0.0014948174), (0.31371573, -0.68610275, 0.048677333), (0.29173678, -0.6343898, 0.105384186), (0.31371573, -0.5965577, -0.0014948174), (0.29173678, -0.57306904, 0.16428024), (0.31371573, -0.08348815, -0.0014948174), (0.29173678, -0.08767973, 0.10162893), (0.29173678, -0.6547997, 0.16428024), (0.31371573, -0.44696745, -0.0014948174), (0.24398482, -0.6547997, 0.04648813), (0.24398482, 0, 0.07570104), (0.26236624, 0, -0.0014948174), (0.24398482, -0.21826655, 0.14024493), (0.24398482, -0.4365331, 0.16428024), (0.26236624, -0.2078322, -0.0014948174), (0.26236624, -0.68610275, -0.0014948174), (0.26236624, -0.68610275, 0.048677333), (0.24398482, -0.6343898, 0.105384186), (0.26236624, -0.5965577, -0.0014948174), (0.24398482, -0.57306904, 0.16428024), (0.26236624, -0.08348815, -0.0014948174), (0.24398482, -0.08767973, 0.10162893), (0.24398482, -0.6547997, 0.16428024), (0.26236624, -0.44696745, -0.0014948174), (-0.05948336, -0.6547997, 0.04648813), (-0.05948336, 0, 0.07570104), (-0.06396475, 0, -0.0014948174), (-0.05948336, -0.21826655, 0.14024493), (-0.05948336, -0.4365331, 0.16428024), (-0.06396475, -0.2078322, -0.0014948174), (-0.06396475, -0.68610275, -0.0014948174), (-0.06396475, -0.68610275, 0.048677333), (-0.05948336, -0.6343898, 0.105384186), (-0.06396475, -0.5965577, -0.0014948174), (-0.05948336, -0.57306904, 0.16428024), (-0.06396475, -0.08348815, -0.0014948174), (-0.05948336, -0.08767974, 0.10162893), (-0.05948336, -0.6547997, 0.16428024), (-0.06396478, -0.44696745, -0.0014948174), (-0.098213054, -0.6547997, 0.04648813), (-0.098213054, 0, 0.07570104), (-0.105612285, 0, -0.0014948174), (-0.098213054, -0.21826655, 0.14024493), (-0.098213054, -0.4365331, 0.16428024), (-0.105612285, -0.2078322, -0.0014948174), (-0.105612285, -0.68610275, -0.0014948174), (-0.105612285, -0.68610275, 0.048677333), (-0.098213054, -0.6343898, 0.105384186), (-0.105612285, -0.5965577, -0.0014948174), (-0.098213054, -0.57306904, 0.16428024), (-0.105612285, -0.08348815, -0.0014948174), (-0.098213054, -0.08767974, 0.10162893), (-0.098213054, -0.6547997, 0.16428024), (-0.10561231, -0.44696745, -0.0014948174), (-0.16600245, -0.6547997, 0.04648813), (-0.16600245, 0, 0.07570104), (-0.17850883, 0, -0.0014948174), (-0.16600245, -0.21826655, 0.14024493), (-0.16600245, -0.4365331, 0.16428024), (-0.17850883, -0.2078322, -0.0014948174), (-0.17850883, -0.68610275, -0.0014948174), (-0.17850883, -0.68610275, 0.048677333), (-0.16600245, -0.6343898, 0.105384186), (-0.17850883, -0.5965577, -0.0014948174), (-0.16600245, -0.57306904, 0.16428024), (-0.17850883, -0.08348815, -0.0014948174), (-0.16600245, -0.08767974, 0.10162893), (-0.16600247, -0.6547997, 0.16428024), (-0.17850885, -0.44696745, -0.0014948174), (-0.20156161, -0.6547997, 0.04648813), (-0.20156161, 0, 0.07570104), (-0.21674697, 0, -0.0014948174), (-0.20156161, -0.21826655, 0.14024493), (-0.20156161, -0.4365331, 0.16428024), (-0.21674697, -0.2078322, -0.0014948174), (-0.21674697, -0.68610275, -0.0014948174), (-0.21674697, -0.68610275, 0.048677333), (-0.20156161, -0.6343898, 0.105384186), (-0.21674697, -0.5965577, -0.0014948174), (-0.20156161, -0.57306904, 0.16428024), (-0.21674697, -0.08348815, -0.0014948174), (-0.20156161, -0.08767974, 0.10162893), (-0.20156163, -0.6547997, 0.16428024), (-0.21674697, -0.44696745, -0.0014948174), (-0.24943627, -0.6547997, 0.04648813), (-0.24943627, 0, 0.07570104), (-0.26822844, 0, -0.0014948174), (-0.24943627, -0.21826655, 0.14024493), (-0.24943627, -0.4365331, 0.16428024), (-0.26822844, -0.2078322, -0.0014948174), (-0.26822844, -0.68610275, -0.0014948174), (-0.26822844, -0.68610275, 0.048677333), (-0.24943627, -0.6343898, 0.105384186), (-0.26822844, -0.5965577, -0.0014948174), (-0.24943627, -0.57306904, 0.16428024), (-0.26822844, -0.08348815, -0.0014948174), (-0.24943627, -0.08767974, 0.10162893), (-0.24943629, -0.6547997, 0.16428024), (-0.26822844, -0.44696745, -0.0014948174), (-0.2909657, -0.6547997, 0.04648813), (-0.2909657, 0, 0.07570104), (-0.31288666, 0, -0.0014948174), (-0.2909657, -0.21826655, 0.14024493), (-0.2909657, -0.4365331, 0.16428024), (-0.31288666, -0.2078322, -0.0014948174), (-0.31288666, -0.68610275, -0.0014948174), (-0.31288666, -0.68610275, 0.048677333), (-0.2909657, -0.6343898, 0.105384186), (-0.31288666, -0.5965577, -0.0014948174), (-0.2909657, -0.57306904, 0.16428024), (-0.31288666, -0.08348815, -0.0014948174), (-0.2909657, -0.08767974, 0.10162893), (-0.2909657, -0.6547997, 0.16428024), (-0.31288666, -0.44696745, -0.0014948174)]
            uniform token subdivisionScheme = "none"
            uniform token subsetFamily:materialBind:familyType = "nonOverlapping"
            custom string userProperties:blender:data_name = "Cube.021"

            def GeomSubset "Cover" (
                prepend apiSchemas = ["MaterialBindingAPI"]
            )
            {
                uniform token elementType = "face"
                uniform token familyName = "materialBind"
                int[] indices = [0, 1, 6, 7, 8, 15, 16, 17, 18, 19, 20, 21, 22, 23, 24, 25, 26, 35, 36, 37, 40, 43, 44, 46, 47, 48, 49, 55, 57, 60, 61, 62, 63, 65, 69, 70, 74, 75, 76, 79, 81, 83, 85, 87, 88, 89, 90, 92, 96, 98, 99, 100, 101, 103, 104, 110, 111, 113, 114, 115, 116, 118, 124, 126, 127, 128, 129, 131, 132, 138, 139, 141, 142, 143, 144, 146, 152, 154, 155, 156, 157, 159, 160, 166, 167, 169, 170, 171, 172, 174, 180, 182, 183, 184, 185, 187, 188, 194, 195, 197, 198, 199, 200, 202, 208, 210, 211, 212, 213, 215, 216, 222, 223, 228, 229, 230, 237, 238, 239, 240, 241, 242, 243, 244, 245, 246, 247, 248, 257, 258, 259, 262, 265, 266, 268, 269, 270, 271, 277, 279, 282, 283, 284, 285, 287, 291, 292, 296, 297, 298, 301, 303, 305, 307, 309, 310, 311, 312, 314, 318, 320, 321, 322, 323, 325, 326, 332, 333, 335, 336, 337, 338, 340, 346, 348, 349, 350, 351, 353, 354, 360, 361, 363, 364, 365, 366, 368, 374, 376, 377, 378, 379, 381, 382, 388, 389, 391, 392, 393, 394, 396, 402, 404, 405, 406, 407, 409, 410, 416, 417, 419, 420, 421, 422, 424, 430, 432, 433, 434, 435, 437, 438]
                rel material:binding = </root/_materials/Cover>
            }

            def GeomSubset "Paper" (
                prepend apiSchemas = ["MaterialBindingAPI"]
            )
            {
                uniform token elementType = "face"
                uniform token familyName = "materialBind"
                int[] indices = [2, 3, 4, 5, 9, 10, 11, 12, 13, 14, 27, 28, 29, 30, 31, 32, 33, 34, 38, 39, 41, 42, 45, 50, 53, 56, 58, 59, 64, 66, 67, 68, 71, 72, 73, 77, 78, 80, 82, 84, 86, 91, 93, 94, 95, 97, 102, 105, 108, 109, 112, 117, 119, 120, 121, 122, 123, 125, 130, 133, 137, 140, 145, 147, 148, 149, 150, 151, 153, 158, 161, 165, 168, 173, 175, 176, 177, 178, 179, 181, 186, 189, 192, 193, 196, 201, 203, 204, 205, 206, 207, 209, 214, 217, 221, 224, 225, 226, 227, 231, 232, 233, 234, 235, 236, 249, 250, 251, 252, 253, 254, 255, 256, 260, 261, 263, 264, 267, 272, 275, 278, 280, 281, 286, 288, 289, 290, 293, 294, 295, 299, 300, 302, 304, 306, 308, 313, 315, 316, 317, 319, 324, 327, 330, 331, 334, 339, 341, 342, 343, 344, 345, 347, 352, 355, 359, 362, 367, 369, 370, 371, 372, 373, 375, 380, 383, 387, 390, 395, 397, 398, 399, 400, 401, 403, 408, 411, 414, 415, 418, 423, 425, 426, 427, 428, 429, 431, 436, 439, 443]
                rel material:binding = </root/_materials/Paper>
            }

            def GeomSubset "Ink" (
                prepend apiSchemas = ["MaterialBindingAPI"]
            )
            {
                uniform token elementType = "face"
                uniform token familyName = "materialBind"
                int[] indices = [51, 52, 54, 106, 107, 134, 135, 136, 162, 163, 164, 190, 191, 218, 219, 220, 273, 274, 276, 328, 329, 356, 357, 358, 384, 385, 386, 412, 413, 440, 441, 442]
                rel material:binding = </root/_materials/Ink>
            }
        }
    }

    def Scope "_materials"
    {
        def Material "Cover"
        {
            token outputs:surface.connect = </root/_materials/Cover/Principled_BSDF.outputs:surface>
            custom string userProperties:blender:data_name = "Cover"

            def Shader "Principled_BSDF"
            {
                uniform token info:id = "UsdPreviewSurface"
                float inputs:clearcoat = 0
                float inputs:clearcoatRoughness = 0.03
                color3f inputs:diffuseColor = (0.49692413, 0.036507085, 0.061983198)
                float inputs:ior = 1.5
                float inputs:metallic = 0
                float inputs:opacity = 1
                float inputs:roughness = 0.6900348
                float inputs:specular = 0.5
                token outputs:surface
            }
        }

        def Material "Paper"
        {
            token outputs:surface.connect = </root/_materials/Paper/Principled_BSDF.outputs:surface>
            custom string userProperties:blender:data_name = "Paper"

            def Shader "Principled_BSDF"
            {
                uniform token info:id = "UsdPreviewSurface"
                float inputs:clearcoat = 0
                float inputs:clearcoatRoughness = 0.03
                color3f inputs:diffuseColor = (0.7230443, 0.645427, 0.48817536)
                float inputs:ior = 1.5
                float inputs:metallic = 0
                float inputs:opacity = 1
                float inputs:roughness = 0.6900348
                float inputs:specular = 0.5
                token outputs:surface
            }
        }

        def Material "Ink"
        {
            token outputs:surface.connect = </root/_materials/Ink/Principled_BSDF.outputs:surface>
            custom string userProperties:blender:data_name = "Ink"

            def Shader "Principled_BSDF"
            {
                uniform token info:id = "UsdPreviewSurface"
                float inputs:clearcoat = 0
                float inputs:clearcoatRoughness = 0.03
                color3f inputs:diffuseColor = (0.14731458, 0.10422985, 0.04723561)
                float inputs:ior = 1.5
                float inputs:metallic = 0
                float inputs:opacity = 1
                float inputs:roughness = 0.6900348
                float inputs:specular = 0.5
                token outputs:surface
            }
        }
    }
}

