#usda 1.0
(
    defaultPrim = "root"
    doc = "Blender v5.1.2"
    metersPerUnit = 1
    upAxis = "Y"
)

def Xform "root" (
    customData = {
        dictionary Blender = {
            bool generated = 1
        }
    }
)
{
    float3 xformOp:rotateXYZ = (-90, -0, 0)
    uniform token[] xformOpOrder = ["xformOp:rotateXYZ"]

    def Xform "Book3"
    {
        custom string userProperties:blender:object_name = "Book3"

        def Mesh "Cube_023" (
            active = true
            prepend apiSchemas = ["MaterialBindingAPI"]
        )
        {
            uniform bool doubleSided = 1
            float3[] extent = [(-0.48982656, -0.42159745, -0.0070821643), (0.7041313, 0.5841551, 0.6347004)]
            int[] faceVertexCounts = [4, 4, 4, 4, 4, 4, 4, 4, 4, 4, 4, 4, 4, 4, 4, 4, 4, 4, 4, 4, 4, 4, 4, 4, 4, 4, 4, 4, 4, 4, 4, 4, 4, 4, 4, 4, 4, 4, 4, 4, 4, 4, 4, 4, 4, 4, 4, 4, 4, 4, 4, 4, 4, 4, 4, 4, 4, 4, 4, 4, 4, 4, 4, 4, 4, 4, 4, 4, 4, 4, 4, 4, 4, 4, 4, 4, 4, 4, 4, 4, 4, 4, 4, 4, 4, 4, 4, 4, 4, 4, 4, 4, 4, 4, 4, 4, 4, 4, 4, 4, 4, 4, 4, 4, 4, 4, 4, 4, 4, 4, 4, 4, 4, 4, 4, 4, 4, 4, 4, 4, 4, 4, 4, 4, 4, 4, 4, 4, 4, 4, 4, 4, 4, 4, 4, 4, 4, 4, 4, 4, 4, 4, 4, 4, 4, 4, 4, 4, 4, 4, 4, 4, 4, 4, 4, 4, 4, 4, 4, 4, 4, 4, 4, 4, 4, 4, 4, 4, 4, 4, 4, 4, 4, 4, 4, 4, 4, 4, 4, 4, 4, 4, 4, 4, 4, 4, 4, 4, 4, 4, 4, 4, 4, 4, 4, 4, 4, 4, 4, 4, 4, 4, 4, 4, 4, 4, 4, 4, 4, 4, 4, 4, 4, 4, 4, 4, 4, 4, 4, 4, 4, 4, 4, 4, 4, 4, 4, 4, 4, 4, 4, 4, 4, 4, 4, 4, 4, 4, 4, 4, 4, 4, 4, 4, 4, 4, 4, 4, 4, 4, 4, 4, 4, 4, 4, 4, 4, 4, 4, 4, 4, 4, 4, 4, 4, 4, 4, 4, 4, 4, 4, 4, 4, 4, 4, 4, 4, 4, 4, 4, 4, 4, 4, 4, 4, 4, 4, 4, 4, 4, 4, 4, 4, 4, 4, 4, 4, 4, 4, 4, 4, 4, 4, 4, 4, 4, 4, 4, 4, 4, 4, 4, 4, 4, 4, 4, 4, 4, 4, 4, 4, 4, 4, 4, 4, 4, 4, 4, 4, 4, 4, 4, 4, 4, 4, 4, 4, 4, 4, 4, 4, 4, 4, 4, 4, 4, 4, 4, 4, 4, 4, 4, 4, 4, 4, 4, 4, 4, 4, 4, 4, 4, 4, 4, 4, 4, 4, 4, 4, 4, 4, 4, 4, 4, 4, 4, 4, 4, 4, 4, 4, 4, 4, 4, 4, 4, 4, 4, 4, 4, 4, 4, 4, 4, 4, 4, 4, 4, 4, 4, 4, 4, 4, 4, 4, 4, 4, 4, 4, 4, 4, 4, 4, 4, 4, 4, 4, 4, 4, 4, 4, 4, 4, 4, 4, 4, 4, 4, 4, 4, 4, 4, 4, 4, 4, 4, 4, 4, 4, 4, 4, 4, 4, 4]
            int[] faceVertexIndices = [73, 68, 233, 249, 7, 6, 21, 17, 201, 204, 0, 48, 38, 25, 3, 31, 57, 24, 2, 51, 71, 241, 212, 65, 31, 3, 14, 37, 65, 212, 232, 69, 49, 7, 17, 53, 56, 26, 7, 49, 26, 27, 6, 7, 70, 28, 11, 63, 28, 29, 10, 11, 203, 194, 4, 64, 194, 195, 5, 4, 58, 52, 16, 35, 11, 10, 23, 19, 55, 12, 13, 54, 37, 14, 15, 36, 69, 232, 233, 68, 53, 17, 16, 52, 17, 21, 20, 16, 67, 19, 18, 66, 19, 23, 22, 18, 35, 16, 20, 34, 63, 11, 19, 67, 51, 2, 12, 55, 4, 5, 29, 28, 64, 4, 28, 70, 8, 9, 27, 26, 50, 8, 26, 56, 62, 211, 241, 71, 48, 0, 24, 57, 30, 1, 25, 38, 46, 30, 38, 45, 47, 35, 34, 42, 44, 37, 36, 43, 60, 58, 35, 47, 9, 8, 33, 32, 62, 9, 32, 72, 39, 31, 37, 44, 45, 38, 31, 39, 50, 1, 30, 59, 74, 73, 249, 259, 87, 74, 259, 298, 82, 45, 39, 76, 76, 39, 44, 81, 85, 60, 47, 84, 81, 44, 43, 80, 84, 47, 42, 79, 83, 46, 45, 82, 32, 33, 41, 40, 72, 32, 40, 75, 59, 30, 46, 61, 33, 59, 61, 41, 80, 43, 60, 85, 8, 50, 59, 33, 43, 36, 58, 60, 5, 48, 57, 29, 1, 50, 56, 25, 10, 51, 55, 23, 14, 53, 52, 15, 23, 55, 54, 22, 36, 15, 52, 58, 25, 56, 49, 3, 3, 49, 53, 14, 29, 57, 51, 10, 195, 201, 48, 5, 248, 72, 75, 258, 79, 42, 74, 87, 42, 34, 73, 74, 211, 62, 72, 248, 9, 62, 71, 27, 210, 64, 70, 240, 213, 63, 67, 231, 231, 67, 66, 229, 21, 69, 68, 20, 432, 203, 64, 210, 240, 70, 63, 213, 6, 65, 69, 21, 27, 71, 65, 6, 34, 20, 68, 73, 258, 75, 88, 297, 92, 79, 87, 98, 41, 61, 86, 78, 93, 80, 85, 96, 100, 83, 82, 95, 101, 84, 79, 92, 94, 81, 80, 93, 96, 85, 84, 101, 89, 76, 81, 94, 95, 82, 76, 89, 98, 87, 298, 313, 40, 41, 78, 77, 75, 40, 77, 88, 61, 46, 83, 86, 111, 98, 313, 328, 108, 95, 89, 102, 102, 89, 94, 107, 109, 96, 101, 114, 107, 94, 93, 106, 114, 101, 92, 105, 113, 100, 95, 108, 106, 93, 96, 109, 105, 92, 98, 111, 297, 88, 99, 312, 78, 86, 97, 91, 77, 78, 91, 90, 88, 77, 90, 99, 86, 83, 100, 97, 118, 105, 111, 124, 119, 106, 109, 122, 126, 113, 108, 121, 127, 114, 105, 118, 120, 107, 106, 119, 122, 109, 114, 127, 115, 102, 107, 120, 121, 108, 102, 115, 124, 111, 328, 343, 312, 99, 112, 327, 91, 97, 110, 104, 90, 91, 104, 103, 99, 90, 103, 112, 97, 100, 113, 110, 137, 124, 343, 358, 134, 121, 115, 128, 128, 115, 120, 133, 135, 122, 127, 140, 133, 120, 119, 132, 140, 127, 118, 131, 139, 126, 121, 134, 132, 119, 122, 135, 131, 118, 124, 137, 327, 112, 125, 342, 104, 110, 123, 117, 103, 104, 117, 116, 112, 103, 116, 125, 110, 113, 126, 123, 144, 131, 137, 150, 145, 132, 135, 148, 152, 139, 134, 147, 153, 140, 131, 144, 146, 133, 132, 145, 148, 135, 140, 153, 141, 128, 133, 146, 147, 134, 128, 141, 150, 137, 358, 373, 342, 125, 138, 357, 117, 123, 136, 130, 116, 117, 130, 129, 125, 116, 129, 138, 123, 126, 139, 136, 163, 150, 373, 388, 160, 147, 141, 154, 154, 141, 146, 159, 161, 148, 153, 166, 159, 146, 145, 158, 166, 153, 144, 157, 165, 152, 147, 160, 158, 145, 148, 161, 157, 144, 150, 163, 357, 138, 151, 372, 130, 136, 149, 143, 129, 130, 143, 142, 138, 129, 142, 151, 136, 139, 152, 149, 170, 157, 163, 176, 171, 158, 161, 174, 178, 165, 160, 173, 179, 166, 157, 170, 172, 159, 158, 171, 174, 161, 166, 179, 167, 154, 159, 172, 173, 160, 154, 167, 176, 163, 388, 403, 372, 151, 164, 387, 143, 149, 162, 156, 142, 143, 156, 155, 151, 142, 155, 164, 149, 152, 165, 162, 189, 176, 403, 418, 186, 173, 167, 180, 180, 167, 172, 185, 187, 174, 179, 192, 185, 172, 171, 184, 192, 179, 170, 183, 191, 178, 173, 186, 184, 171, 174, 187, 183, 170, 176, 189, 387, 164, 177, 402, 156, 162, 175, 169, 155, 156, 169, 168, 164, 155, 168, 177, 162, 165, 178, 175, 196, 183, 189, 202, 197, 184, 187, 200, 204, 191, 186, 199, 205, 192, 183, 196, 198, 185, 184, 197, 200, 187, 192, 205, 193, 180, 185, 198, 199, 186, 180, 193, 202, 189, 418, 433, 402, 177, 190, 417, 169, 175, 188, 182, 168, 169, 182, 181, 177, 168, 181, 190, 175, 178, 191, 188, 66, 202, 433, 229, 24, 199, 193, 2, 2, 193, 198, 12, 54, 200, 205, 22, 12, 198, 197, 13, 22, 205, 196, 18, 0, 204, 199, 24, 13, 197, 200, 54, 18, 196, 202, 66, 417, 190, 203, 432, 182, 188, 201, 195, 181, 182, 195, 194, 190, 181, 194, 203, 188, 191, 204, 201, 293, 249, 233, 288, 217, 227, 235, 216, 441, 268, 206, 444, 256, 247, 209, 239, 277, 271, 208, 238, 291, 285, 212, 241, 247, 255, 224, 209, 285, 289, 232, 212, 269, 273, 227, 217, 276, 269, 217, 242, 242, 217, 216, 243, 290, 283, 221, 244, 244, 221, 220, 245, 443, 284, 214, 434, 434, 214, 215, 435, 278, 253, 226, 272, 221, 230, 237, 220, 275, 274, 223, 222, 255, 254, 225, 224, 289, 288, 233, 232, 273, 272, 226, 227, 227, 226, 234, 235, 287, 286, 228, 230, 230, 228, 236, 237, 253, 252, 234, 226, 283, 287, 230, 221, 271, 275, 222, 208, 214, 244, 245, 215, 284, 290, 244, 214, 218, 242, 243, 219, 270, 276, 242, 218, 282, 291, 241, 211, 268, 277, 238, 206, 246, 256, 239, 207, 266, 265, 256, 246, 267, 262, 252, 253, 264, 263, 254, 255, 280, 267, 253, 278, 219, 250, 251, 218, 282, 292, 250, 219, 257, 264, 255, 247, 265, 257, 247, 256, 270, 279, 246, 207, 294, 259, 249, 293, 309, 298, 259, 294, 304, 296, 257, 265, 296, 303, 264, 257, 307, 306, 267, 280, 303, 302, 263, 264, 306, 301, 262, 267, 305, 304, 265, 266, 250, 260, 261, 251, 292, 295, 260, 250, 279, 281, 266, 246, 251, 261, 281, 279, 302, 307, 280, 263, 218, 251, 279, 270, 263, 280, 278, 254, 215, 245, 277, 268, 207, 239, 276, 270, 220, 237, 275, 271, 224, 225, 272, 273, 237, 236, 274, 275, 254, 278, 272, 225, 239, 209, 269, 276, 209, 224, 273, 269, 245, 220, 271, 277, 435, 215, 268, 441, 248, 258, 295, 292, 301, 309, 294, 262, 262, 294, 293, 252, 211, 248, 292, 282, 219, 243, 291, 282, 210, 240, 290, 284, 213, 231, 287, 283, 231, 229, 286, 287, 235, 234, 288, 289, 432, 210, 284, 443, 240, 213, 283, 290, 216, 235, 289, 285, 243, 216, 285, 291, 252, 293, 288, 234, 258, 297, 310, 295, 316, 322, 309, 301, 261, 300, 308, 281, 317, 320, 307, 302, 324, 319, 304, 305, 325, 316, 301, 306, 318, 317, 302, 303, 320, 325, 306, 307, 311, 318, 303, 296, 319, 311, 296, 304, 322, 313, 298, 309, 260, 299, 300, 261, 295, 310, 299, 260, 281, 308, 305, 266, 337, 328, 313, 322, 334, 326, 311, 319, 326, 333, 318, 311, 335, 340, 325, 320, 333, 332, 317, 318, 340, 331, 316, 325, 339, 334, 319, 324, 332, 335, 320, 317, 331, 337, 322, 316, 297, 312, 323, 310, 300, 315, 321, 308, 299, 314, 315, 300, 310, 323, 314, 299, 308, 321, 324, 305, 346, 352, 337, 331, 347, 350, 335, 332, 354, 349, 334, 339, 355, 346, 331, 340, 348, 347, 332, 333, 350, 355, 340, 335, 341, 348, 333, 326, 349, 341, 326, 334, 352, 343, 328, 337, 312, 327, 338, 323, 315, 330, 336, 321, 314, 329, 330, 315, 323, 338, 329, 314, 321, 336, 339, 324, 367, 358, 343, 352, 364, 356, 341, 349, 356, 363, 348, 341, 365, 370, 355, 350, 363, 362, 347, 348, 370, 361, 346, 355, 369, 364, 349, 354, 362, 365, 350, 347, 361, 367, 352, 346, 327, 342, 353, 338, 330, 345, 351, 336, 329, 344, 345, 330, 338, 353, 344, 329, 336, 351, 354, 339, 376, 382, 367, 361, 377, 380, 365, 362, 384, 379, 364, 369, 385, 376, 361, 370, 378, 377, 362, 363, 380, 385, 370, 365, 371, 378, 363, 356, 379, 371, 356, 364, 382, 373, 358, 367, 342, 357, 368, 353, 345, 360, 366, 351, 344, 359, 360, 345, 353, 368, 359, 344, 351, 366, 369, 354, 397, 388, 373, 382, 394, 386, 371, 379, 386, 393, 378, 371, 395, 400, 385, 380, 393, 392, 377, 378, 400, 391, 376, 385, 399, 394, 379, 384, 392, 395, 380, 377, 391, 397, 382, 376, 357, 372, 383, 368, 360, 375, 381, 366, 359, 374, 375, 360, 368, 383, 374, 359, 366, 381, 384, 369, 406, 412, 397, 391, 407, 410, 395, 392, 414, 409, 394, 399, 415, 406, 391, 400, 408, 407, 392, 393, 410, 415, 400, 395, 401, 408, 393, 386, 409, 401, 386, 394, 412, 403, 388, 397, 372, 387, 398, 383, 375, 390, 396, 381, 374, 389, 390, 375, 383, 398, 389, 374, 381, 396, 399, 384, 427, 418, 403, 412, 424, 416, 401, 409, 416, 423, 408, 401, 425, 430, 415, 410, 423, 422, 407, 408, 430, 421, 406, 415, 429, 424, 409, 414, 422, 425, 410, 407, 421, 427, 412, 406, 387, 402, 413, 398, 390, 405, 411, 396, 389, 404, 405, 390, 398, 413, 404, 389, 396, 411, 414, 399, 436, 442, 427, 421, 437, 440, 425, 422, 444, 439, 424, 429, 445, 436, 421, 430, 438, 437, 422, 423, 440, 445, 430, 425, 431, 438, 423, 416, 439, 431, 416, 424, 442, 433, 418, 427, 402, 417, 428, 413, 405, 420, 426, 411, 404, 419, 420, 405, 413, 428, 419, 404, 411, 426, 429, 414, 286, 229, 433, 442, 238, 208, 431, 439, 208, 222, 438, 431, 274, 236, 445, 440, 222, 223, 437, 438, 236, 228, 436, 445, 206, 238, 439, 444, 223, 274, 440, 437, 228, 286, 442, 436, 417, 432, 443, 428, 420, 435, 441, 426, 419, 434, 435, 420, 428, 443, 434, 419, 426, 441, 444, 429]
            rel material:binding = </root/_materials/Cover>
            normal3f[] normals = [(3.5906044e-8, 0.09854755, -0.9951323), (7.181209e-8, 0.098547585, -0.9951324), (7.181209e-8, 0.098547585, -0.9951324), (3.5906044e-8, 0.09854754, -0.9951323), (-0.04433429, -0.66009617, 0.7498717), (-0.044334266, -0.6600961, 0.7498717), (-0.044334184, -0.6600961, 0.7498717), (-0.04433421, -0.66009617, 0.7498716), (0, -0.66074574, 0.7506097), (0, -0.660746, 0.75060964), (0, -0.6607458, 0.75060976), (0, -0.6607457, 0.75060976), (0, 0.4928787, 0.870098), (0, 0.49287868, 0.870098), (0, 0.49287868, 0.870098), (0, 0.4928787, 0.870098), (-1, 1.3800778e-7, 0), (-1, 0, 0), (-0.99999994, 0, 0), (-1, 0, 0), (1, -1.1139547e-7, 0), (1, 7.712707e-7, 0), (1, 7.716825e-7, 0), (1, -4.8991484e-7, 0), (-1.1328135e-8, -0.711502, 0.70268404), (-5.1320736e-8, -0.7115033, 0.7026826), (-5.1320736e-8, -0.7115033, 0.7026826), (-3.9992603e-8, -0.711503, 0.70268303), (-0.011783781, -0.021782111, 0.9996932), (-0.011783781, -0.021782111, 0.9996932), (-0.011783781, -0.021782111, 0.9996932), (-0.011783781, -0.021782111, 0.9996932), (-0.044333868, -0.6600962, 0.7498717), (-0.04433429, -0.66009617, 0.7498717), (-0.04433421, -0.66009617, 0.7498716), (-0.044333797, -0.6600962, 0.74987173), (1, 3.7374623e-8, 0), (1, -1.2149604e-7, 0), (1, -2.4299217e-7, 0), (1, 2.5113118e-7, 0), (1, -1.2149604e-7, 0), (1, -1.7368927e-7, 0), (1, -3.8318015e-7, 0), (1, -2.4299217e-7, 0), (-1, 1.970658e-7, 0), (-1, 2.0949088e-7, 0), (-1, 0, 0), (-1, 2.4346598e-8, 0), (-1, 2.0949088e-7, 0), (-1, 1.2149603e-7, 0), (-1, 0, 0), (-1, 0, 0), (-6.8606e-8, -0.8464749, 0.5324286), (-6.8606006e-8, -0.8464749, 0.5324286), (-1.37212e-7, -0.8464749, 0.5324286), (-1.37212e-7, -0.8464749, 0.5324286), (-5.6728275e-8, -0.73893535, 0.6737764), (-5.6728275e-8, -0.73893535, 0.6737763), (-1.1345656e-7, -0.7389353, 0.6737763), (-1.1345656e-7, -0.7389353, 0.6737763), (6.916319e-8, 0.6607457, -0.7506099), (1.3832639e-7, 0.6607457, -0.7506099), (1.2251868e-7, 0.6607457, -0.7506099), (6.1259335e-8, 0.6607456, -0.7506099), (0.044333745, -0.660096, 0.7498719), (0.044333693, -0.6600962, 0.7498716), (0.04433363, -0.6600963, 0.7498716), (0.044333704, -0.660096, 0.7498719), (-1, 0, 0), (-1, 0, 0), (-1, 0, 0), (-1, 0, 0), (5.6180227e-8, 0.75061, 0.66074544), (1.12360446e-7, 0.7506096, 0.6607459), (1.12360446e-7, 0.7506096, 0.6607459), (5.6180227e-8, 0.75061005, 0.66074556), (1, 2.9714508e-8, 0), (1, -6.218569e-7, 0), (1, -5.472326e-7, 0), (1, 2.3696832e-7, 0), (1, 4.963571e-7, 0), (1, 4.963568e-7, 0), (1, 4.963571e-7, 0), (1, 4.963569e-7, 0), (1, 4.963568e-7, 0), (1, 2.985673e-7, 0), (1, 2.9856741e-7, 0), (1, 4.963571e-7, 0), (-1, -1.3642384e-7, 0), (-1, 1.1926978e-8, 0), (-1, 1.1926869e-8, 0), (-1, -3.0470156e-7, 0), (-1, 1.1926978e-8, 0), (-1, 3.1049433e-7, 0), (-1, 3.104943e-7, 0), (-1, 1.1926869e-8, 0), (6.1259335e-8, 0.6607456, -0.7506099), (1.2251868e-7, 0.6607457, -0.7506099), (1.0165276e-7, 0.6607457, -0.7506099), (5.0826376e-8, 0.6607456, -0.75061), (0.04433356, -0.6600958, 0.749872), (0.044333745, -0.660096, 0.7498719), (0.044333704, -0.660096, 0.7498719), (0.04433356, -0.6600958, 0.749872), (0.044333532, -0.6600961, 0.74987173), (0.0443337, -0.6600957, 0.74987215), (0.0443337, -0.6600957, 0.74987215), (0.044333607, -0.6600959, 0.7498719), (-1, 3.3182715e-7, 0), (-1, 2.5177857e-7, 0), (-1, 1.2149603e-7, 0), (-1, 2.0949088e-7, 0), (-1, 3.6372182e-7, 0), (-1, 3.3182715e-7, 0), (-1, 2.0949088e-7, 0), (-1, 1.970658e-7, 0), (1, 0, 0), (1, 0, 0), (1, -1.7368927e-7, 0), (1, -1.2149604e-7, 0), (1, 0, 0), (1, 0, 0), (1, -1.2149604e-7, 0), (1, 3.7374623e-8, 0), (1, 3.354294e-7, 0), (1, -2.5743057e-7, 0), (1, 7.712707e-7, 0), (1, -1.1139547e-7, 0), (-1, 2.0996842e-7, 0), (-0.99999994, 0, 0), (-1, 0, 0), (-1, 1.3800778e-7, 0), (0, 0.9255834, 0.37854353), (0, 0.9255834, 0.3785437), (0, 0.9255834, 0.3785437), (0, 0.9255834, 0.37854353), (0, 0.9255835, 0.3785434), (0, 0.9255834, 0.37854353), (0, 0.9255834, 0.37854353), (0, 0.9255835, 0.3785434), (0, 0.6607455, -0.75060993), (6.1259335e-8, 0.6607456, -0.7506099), (5.0826376e-8, 0.6607456, -0.75061), (0, 0.66074556, -0.75061), (0, 0.7506103, 0.6607452), (5.6180227e-8, 0.75061, 0.66074544), (5.6180227e-8, 0.75061005, 0.66074556), (0, 0.7506103, 0.6607452), (0, 0.6607457, -0.7506099), (6.916319e-8, 0.6607457, -0.7506099), (6.1259335e-8, 0.6607456, -0.7506099), (0, 0.6607455, -0.75060993), (0, -0.7389354, 0.67377627), (0, -0.7389354, 0.67377627), (0, -0.73893553, 0.67377615), (0, -0.73893553, 0.67377615), (0, -0.8464748, 0.5324286), (0, -0.8464748, 0.5324286), (0, -0.84647477, 0.5324288), (0, -0.84647477, 0.5324288), (0, -0.7115023, 0.70268375), (-1.1328135e-8, -0.711502, 0.70268404), (-3.9992603e-8, -0.711503, 0.70268303), (0, -0.71150184, 0.7026842), (0, 0.49287865, 0.87009805), (0, 0.4928787, 0.870098), (0, 0.4928787, 0.870098), (0, 0.49287865, 0.87009805), (0, -0.66074586, 0.75060976), (0, -0.66074634, 0.7506093), (0, -0.66074616, 0.7506095), (0, -0.6607457, 0.7506099), (0, 0.09854751, -0.9951323), (3.5906044e-8, 0.09854755, -0.9951323), (3.5906044e-8, 0.09854754, -0.9951323), (0, 0.09854751, -0.9951323), (1.314088e-7, 0.098547444, -0.9951323), (0, 0.09854751, -0.9951323), (0, 0.09854751, -0.9951323), (1.314088e-7, 0.098547444, -0.9951323), (0, 0.49287874, 0.870098), (0, 0.49287865, 0.87009805), (0, 0.49287865, 0.87009805), (0, 0.49287874, 0.870098), (0, -0.7115019, 0.7026842), (0, -0.7115023, 0.70268375), (0, -0.71150184, 0.7026842), (0, -0.7115024, 0.70268375), (0, 0.6607456, -0.75061), (0, 0.6607457, -0.7506099), (0, 0.6607455, -0.75060993), (0, 0.6607457, -0.7506099), (0, 0.7506102, 0.6607453), (0, 0.7506103, 0.6607452), (0, 0.7506103, 0.6607452), (0, 0.7506102, 0.6607453), (0, 0.6607457, -0.7506099), (0, 0.6607455, -0.75060993), (0, 0.66074556, -0.75061), (4.9777075e-8, 0.6607457, -0.7506099), (0, 0.9255835, 0.3785435), (0, 0.9255835, 0.3785434), (0, 0.9255835, 0.3785434), (0, 0.9255835, 0.3785435), (0, -0.73893553, 0.67377615), (0, -0.73893553, 0.67377615), (0, -0.7389355, 0.67377615), (0, -0.7389355, 0.67377615), (0, -0.84647477, 0.5324288), (0, -0.84647477, 0.5324288), (0, -0.8464749, 0.5324287), (0, -0.8464748, 0.5324287), (0, -0.6607457, 0.7506099), (0, -0.66074616, 0.7506095), (0, -0.66074616, 0.7506095), (0, -0.6607457, 0.75060976), (0, -0.6607453, 0.7506102), (0, -0.6607457, 0.7506099), (0, -0.6607457, 0.75060976), (0, -0.6607453, 0.7506102), (0, 0.66074556, -0.75061005), (0, 0.6607456, -0.7506099), (0, 0.6607457, -0.7506099), (0, 0.6607456, -0.75061), (0, -0.6607454, 0.75061005), (0, -0.66074586, 0.75060976), (0, -0.6607457, 0.7506099), (0, -0.6607453, 0.7506102), (0, 0.6607456, -0.7506099), (6.295563e-8, 0.66074556, -0.75061), (6.916319e-8, 0.6607457, -0.7506099), (0, 0.6607457, -0.7506099), (-1, 2.5177857e-7, 0), (-1, 2.0996842e-7, 0), (-1, 1.3800778e-7, 0), (-1, 1.2149603e-7, 0), (0.99999994, 0, 0), (1, 0, 0), (1, 3.7374623e-8, 0), (1, 4.059323e-7, 0), (0.044333693, -0.6600962, 0.7498716), (0.044333532, -0.6600961, 0.74987173), (0.044333607, -0.6600959, 0.7498719), (0.04433363, -0.6600963, 0.7498716), (1, 0, 0), (1, 4.963571e-7, 0), (1, 4.963569e-7, 0), (1, 0, 0), (-1, 3.1049433e-7, 0), (-1, 0, 0), (-1, 0, 0), (-1, 3.104943e-7, 0), (6.295563e-8, 0.66074556, -0.75061), (1.2591124e-7, 0.6607457, -0.7506098), (1.3832639e-7, 0.6607457, -0.7506099), (6.916319e-8, 0.6607457, -0.7506099), (1, 4.059323e-7, 0), (1, 3.7374623e-8, 0), (1, 2.5113118e-7, 0), (1, 8.118646e-7, 0), (-0.0443337, -0.6600961, 0.74987173), (-0.044333868, -0.6600962, 0.7498717), (-0.044333797, -0.6600962, 0.74987173), (-0.0443337, -0.6600961, 0.74987173), (-1, 1.2149603e-7, 0), (-1, 1.3800778e-7, 0), (-1, 0, 0), (-1, 0, 0), (0, -0.6607457, 0.7506099), (0, -0.66074574, 0.7506097), (0, -0.6607457, 0.75060976), (0, -0.6607457, 0.7506099), (0, -0.2332893, 0.9724074), (0, -0.2332893, 0.9724074), (0, -0.23328917, 0.9724074), (0, -0.23328917, 0.9724074), (4.9777075e-8, 0.6607457, -0.7506099), (0, 0.66074556, -0.75061), (0, 0.6607456, -0.75060993), (9.955414e-8, 0.6607456, -0.7506099), (0, 0.66074556, -0.75061), (5.0826376e-8, 0.6607456, -0.75061), (5.4504824e-8, 0.6607456, -0.7506099), (0, 0.6607456, -0.75060993), (0, -0.23328942, 0.97240734), (0, -0.23328942, 0.97240734), (0, -0.2332893, 0.9724074), (0, -0.2332893, 0.9724074), (1, 0, 0), (1, 3.354294e-7, 0), (1, -1.1139547e-7, 0), (1, -1.7368927e-7, 0), (-1, 0, 0), (-1, 3.6372182e-7, 0), (-1, 1.970658e-7, 0), (-1, 1.8123437e-8, 0), (0.011783594, -0.021781696, 0.9996933), (0.011783594, -0.021781696, 0.9996933), (0.011783594, -0.021781696, 0.9996933), (0.011783594, -0.021781696, 0.9996933), (-1, -4.0690995e-8, 0), (-1, -1.3642384e-7, 0), (-1, -3.0470156e-7, 0), (-1, 2.2200958e-8, 0), (1, 2.985673e-7, 0), (1, 2.9714508e-8, 0), (1, 2.3696832e-7, 0), (1, 2.9856741e-7, 0), (0, -0.23328868, 0.97240746), (0, -0.23328868, 0.97240746), (0, -0.23328874, 0.9724076), (0, -0.23328874, 0.9724076), (-1, 1.8123437e-8, 0), (-1, 1.970658e-7, 0), (-1, 2.4346598e-8, 0), (-1, 4.1032354e-8, 0), (-0.044334266, -0.6600961, 0.7498717), (-0.044333912, -0.66009617, 0.7498717), (-0.044333912, -0.66009617, 0.7498717), (-0.044334184, -0.6600961, 0.7498717), (1, -1.7368927e-7, 0), (1, -1.1139547e-7, 0), (1, -4.8991484e-7, 0), (1, -3.8318015e-7, 0), (5.0826376e-8, 0.6607456, -0.75061), (1.0165276e-7, 0.6607457, -0.7506099), (1.0900966e-7, 0.6607456, -0.75060993), (5.4504824e-8, 0.6607456, -0.7506099), (0, -0.23328917, 0.9724074), (0, -0.23328917, 0.9724074), (0, -0.23328918, 0.9724074), (0, -0.23328918, 0.9724074), (4.9777068e-8, 0.66074574, -0.75060976), (4.9777075e-8, 0.6607457, -0.7506099), (9.955414e-8, 0.6607456, -0.7506099), (9.955412e-8, 0.6607458, -0.75060976), (0, -0.6607453, 0.7506102), (0, -0.6607457, 0.75060976), (0, -0.66074586, 0.75060976), (0, -0.66074556, 0.75061005), (0, 0.66074556, -0.75061005), (0, 0.66074556, -0.75061005), (0, 0.6607456, -0.75061), (0, 0.6607456, -0.7506099), (0, 0.9255834, 0.3785435), (0, 0.9255835, 0.3785435), (0, 0.9255835, 0.3785435), (0, 0.9255834, 0.3785435), (0, 0.6607457, -0.75060976), (0, 0.6607457, -0.7506099), (4.9777075e-8, 0.6607457, -0.7506099), (4.9777068e-8, 0.66074574, -0.75060976), (0, 0.7506102, 0.6607453), (0, 0.7506102, 0.6607453), (0, 0.7506102, 0.6607453), (0, 0.7506102, 0.6607453), (0, 0.6607456, -0.7506099), (0, 0.6607456, -0.75061), (0, 0.6607457, -0.7506099), (0, 0.6607457, -0.75060976), (0, -0.71150124, 0.70268476), (0, -0.7115019, 0.7026842), (0, -0.7115024, 0.70268375), (0, -0.71150154, 0.7026845), (0, 0.49287888, 0.87009794), (0, 0.49287874, 0.870098), (0, 0.49287874, 0.870098), (0, 0.49287888, 0.87009794), (1.314088e-7, 0.098547325, -0.9951323), (1.314088e-7, 0.098547444, -0.9951323), (1.314088e-7, 0.098547444, -0.9951323), (1.3140881e-7, 0.09854734, -0.99513245), (0, -0.7389355, 0.67377615), (0, -0.7389355, 0.67377615), (0, -0.7389354, 0.6737763), (0, -0.7389354, 0.6737763), (0, -0.8464748, 0.5324287), (0, -0.8464749, 0.5324287), (0, -0.84647495, 0.5324286), (0, -0.84647495, 0.53242856), (0, -0.6607457, 0.75060976), (0, -0.66074616, 0.7506095), (0, -0.6607462, 0.75060934), (0, -0.66074586, 0.75060976), (0, 0.098547325, -0.99513245), (1.314088e-7, 0.098547325, -0.9951323), (1.3140881e-7, 0.09854734, -0.99513245), (0, 0.098547325, -0.99513245), (-3.1289304e-7, 0.49287865, 0.87009805), (0, 0.49287888, 0.87009794), (0, 0.49287888, 0.87009794), (-3.1289306e-7, 0.49287865, 0.870098), (0, -0.7115018, 0.7026844), (0, -0.71150124, 0.70268476), (0, -0.71150154, 0.7026845), (0, -0.7115014, 0.70268476), (0, 0.6607456, -0.7506099), (0, 0.6607456, -0.7506099), (0, 0.6607457, -0.75060976), (0, 0.6607456, -0.7506099), (0, 0.7506104, 0.6607451), (0, 0.7506102, 0.6607453), (0, 0.7506102, 0.6607453), (0, 0.7506104, 0.6607451), (0, 0.6607456, -0.7506099), (0, 0.6607457, -0.75060976), (4.9777068e-8, 0.66074574, -0.75060976), (0, 0.66074574, -0.75060976), (-3.1289306e-7, 0.9255835, 0.37854367), (0, 0.9255834, 0.3785435), (0, 0.9255834, 0.3785435), (-3.1289326e-7, 0.92558336, 0.37854365), (0, 0.6607457, -0.7506099), (0, 0.66074556, -0.75061005), (0, 0.6607456, -0.7506099), (0, 0.6607456, -0.7506099), (0, 0.66074574, -0.75060976), (4.9777068e-8, 0.66074574, -0.75060976), (9.955412e-8, 0.6607458, -0.75060976), (0, 0.66074574, -0.7506097), (0, -0.23328918, 0.9724074), (0, -0.23328918, 0.9724074), (0, -0.23328917, 0.9724074), (0, -0.23328917, 0.9724074), (0, -0.66074556, 0.75061005), (0, -0.66074586, 0.75060976), (0, -0.66074574, 0.7506097), (0, -0.66074556, 0.75061005), (0, -0.7389354, 0.6737763), (0, -0.7389354, 0.6737763), (0, -0.73893553, 0.6737762), (0, -0.73893553, 0.6737762), (0, -0.84647495, 0.53242856), (0, -0.84647495, 0.5324286), (0, -0.84647495, 0.5324286), (0, -0.84647495, 0.5324286), (0, -0.66074586, 0.75060976), (0, -0.6607462, 0.75060934), (0, -0.66074616, 0.7506095), (0, -0.66074574, 0.7506097), (5.9671654e-9, 0.6607456, -0.7506099), (0, 0.66074574, -0.75060976), (0, 0.66074574, -0.7506097), (0, 0.6607457, -0.75060976), (0, 0.6607457, -0.7506099), (0, 0.6607457, -0.7506099), (0, 0.6607456, -0.7506099), (0, 0.6607457, -0.7506099), (-3.128933e-7, 0.92558336, 0.37854388), (-3.1289306e-7, 0.9255835, 0.37854367), (-3.1289326e-7, 0.92558336, 0.37854365), (-3.12893e-7, 0.9255833, 0.37854382), (5.967166e-9, 0.6607456, -0.75061), (0, 0.6607456, -0.7506099), (0, 0.66074574, -0.75060976), (5.9671654e-9, 0.6607456, -0.7506099), (0, 0.7506106, 0.66074485), (0, 0.7506104, 0.6607451), (0, 0.7506104, 0.6607451), (0, 0.7506106, 0.66074485), (0, 0.6607457, -0.7506099), (0, 0.6607456, -0.7506099), (0, 0.6607456, -0.7506099), (5.967166e-9, 0.6607456, -0.75061), (0, -0.71150166, 0.7026844), (0, -0.7115018, 0.7026844), (0, -0.7115014, 0.70268476), (0, -0.7115017, 0.70268434), (-3.1289312e-7, 0.49287838, 0.8700982), (-3.1289304e-7, 0.49287865, 0.87009805), (-3.1289306e-7, 0.49287865, 0.870098), (-3.1289312e-7, 0.49287847, 0.87009823), (0, 0.098547325, -0.99513245), (0, 0.098547325, -0.99513245), (0, 0.098547325, -0.99513245), (0, 0.098547325, -0.99513245), (0, -0.23328917, 0.9724074), (0, -0.23328917, 0.9724074), (-1.4188221e-7, -0.2332891, 0.97240746), (-1.4188223e-7, -0.23328906, 0.97240746), (0, -0.66074556, 0.75061005), (0, -0.66074574, 0.7506097), (-1.193147e-7, -0.6607457, 0.7506099), (0, -0.6607454, 0.7506101), (0, -0.73893553, 0.6737762), (0, -0.73893553, 0.6737762), (0, -0.7389354, 0.6737763), (0, -0.7389354, 0.6737763), (0, -0.84647495, 0.5324286), (0, -0.84647495, 0.5324286), (-7.161037e-8, -0.84647495, 0.5324286), (-7.161037e-8, -0.84647495, 0.53242856), (0, -0.66074574, 0.7506097), (0, -0.66074616, 0.7506095), (-2.3862933e-7, -0.660746, 0.7506096), (-1.193147e-7, -0.6607457, 0.7506099), (0, 0.0985473, -0.99513245), (0, 0.098547325, -0.99513245), (0, 0.098547325, -0.99513245), (0, 0.0985473, -0.99513245), (0, 0.49287823, 0.87009823), (-3.1289312e-7, 0.49287838, 0.8700982), (-3.1289312e-7, 0.49287847, 0.87009823), (0, 0.49287823, 0.87009823), (0, -0.71150154, 0.7026845), (0, -0.71150166, 0.7026844), (0, -0.7115017, 0.70268434), (0, -0.71150154, 0.7026845), (0, 0.66074586, -0.75060976), (0, 0.6607457, -0.7506099), (5.967166e-9, 0.6607456, -0.75061), (9.9479124e-8, 0.6607457, -0.7506099), (0, 0.75061053, 0.66074485), (0, 0.7506106, 0.66074485), (0, 0.7506106, 0.66074485), (0, 0.75061053, 0.66074485), (9.9479124e-8, 0.6607457, -0.7506099), (5.967166e-9, 0.6607456, -0.75061), (5.9671654e-9, 0.6607456, -0.7506099), (1.6691904e-7, 0.6607456, -0.7506099), (0, 0.9255834, 0.37854373), (-3.128933e-7, 0.92558336, 0.37854388), (-3.12893e-7, 0.9255833, 0.37854382), (0, 0.9255834, 0.37854373), (0, 0.66074586, -0.75060976), (0, 0.6607457, -0.7506099), (0, 0.6607457, -0.7506099), (0, 0.66074586, -0.75060976), (1.6691904e-7, 0.6607456, -0.7506099), (5.9671654e-9, 0.6607456, -0.7506099), (0, 0.6607457, -0.75060976), (1.3487984e-7, 0.6607457, -0.75060976), (-1.4188223e-7, -0.23328906, 0.97240746), (-1.4188221e-7, -0.2332891, 0.97240746), (-1.4188223e-7, -0.23328897, 0.97240746), (-1.4188221e-7, -0.23328896, 0.97240746), (0, -0.6607454, 0.7506101), (-1.193147e-7, -0.6607457, 0.7506099), (-1.193147e-7, -0.6607457, 0.7506099), (0, -0.6607454, 0.7506101), (0, -0.7389354, 0.6737763), (0, -0.7389354, 0.6737763), (0, -0.7389354, 0.6737762), (0, -0.7389355, 0.6737762), (-7.161037e-8, -0.84647495, 0.53242856), (-7.161037e-8, -0.84647495, 0.5324286), (-8.287856e-8, -0.84647495, 0.5324286), (-8.287855e-8, -0.84647495, 0.5324286), (-1.193147e-7, -0.6607457, 0.7506099), (-2.3862933e-7, -0.660746, 0.7506096), (-2.3862947e-7, -0.66074586, 0.75060976), (-1.193147e-7, -0.6607457, 0.7506099), (1.6095188e-7, 0.6607457, -0.7506099), (1.6691904e-7, 0.6607456, -0.7506099), (1.3487984e-7, 0.6607457, -0.75060976), (1.3487985e-7, 0.6607457, -0.7506099), (0, 0.660746, -0.75060964), (0, 0.66074586, -0.75060976), (0, 0.66074586, -0.75060976), (0, 0.66074586, -0.75060976), (0, 0.9255835, 0.37854367), (0, 0.9255834, 0.37854373), (0, 0.9255834, 0.37854373), (0, 0.9255835, 0.37854367), (9.351195e-8, 0.6607457, -0.7506099), (9.9479124e-8, 0.6607457, -0.7506099), (1.6691904e-7, 0.6607456, -0.7506099), (1.6095188e-7, 0.6607457, -0.7506099), (0, 0.7506104, 0.6607451), (0, 0.75061053, 0.66074485), (0, 0.75061053, 0.66074485), (0, 0.7506104, 0.6607451), (0, 0.66074586, -0.75060976), (0, 0.66074586, -0.75060976), (9.9479124e-8, 0.6607457, -0.7506099), (9.351195e-8, 0.6607457, -0.7506099), (0, -0.7115014, 0.70268476), (0, -0.71150154, 0.7026845), (0, -0.71150154, 0.7026845), (0, -0.7115014, 0.70268476), (0, 0.4928782, 0.8700983), (0, 0.49287823, 0.87009823), (0, 0.49287823, 0.87009823), (0, 0.4928782, 0.8700983), (0, 0.0985473, -0.99513245), (0, 0.0985473, -0.99513245), (0, 0.0985473, -0.99513245), (0, 0.0985473, -0.99513245), (-1.4188221e-7, -0.23328896, 0.97240746), (-1.4188223e-7, -0.23328897, 0.97240746), (0, -0.23328894, 0.97240746), (0, -0.23328894, 0.97240746), (0, -0.6607454, 0.7506101), (-1.193147e-7, -0.6607457, 0.7506099), (0, -0.66074556, 0.75061), (0, -0.6607453, 0.7506102), (0, -0.7389355, 0.6737762), (0, -0.7389354, 0.6737762), (0, -0.7389355, 0.6737762), (0, -0.7389355, 0.67377615), (-8.287855e-8, -0.84647495, 0.5324286), (-8.287856e-8, -0.84647495, 0.5324286), (-1.1268186e-8, -0.84647495, 0.53242856), (-1.1268186e-8, -0.84647495, 0.5324286), (-1.193147e-7, -0.6607457, 0.7506099), (-2.3862947e-7, -0.66074586, 0.75060976), (0, -0.66074586, 0.75060976), (0, -0.66074556, 0.75061), (0, 0.098547265, -0.99513245), (0, 0.0985473, -0.99513245), (0, 0.0985473, -0.99513245), (0, 0.09854727, -0.99513245), (0, 0.4928781, 0.87009835), (0, 0.4928782, 0.8700983), (0, 0.4928782, 0.8700983), (0, 0.4928781, 0.87009835), (0, -0.7115012, 0.7026849), (0, -0.7115014, 0.70268476), (0, -0.7115014, 0.70268476), (0, -0.71150124, 0.7026848), (0, 0.6607457, -0.75060976), (0, 0.66074586, -0.75060976), (9.351195e-8, 0.6607457, -0.7506099), (0, 0.66074556, -0.75061), (0, 0.75061035, 0.6607451), (0, 0.7506104, 0.6607451), (0, 0.7506104, 0.6607451), (0, 0.75061035, 0.6607451), (0, 0.66074556, -0.75061), (9.351195e-8, 0.6607457, -0.7506099), (1.6095188e-7, 0.6607457, -0.7506099), (0, 0.6607456, -0.75061), (0, 0.9255835, 0.3785434), (0, 0.9255835, 0.37854367), (0, 0.9255835, 0.37854367), (0, 0.9255835, 0.3785434), (0, 0.6607459, -0.75060964), (0, 0.660746, -0.75060964), (0, 0.66074586, -0.75060976), (0, 0.6607457, -0.75060976), (0, 0.6607456, -0.75061), (1.6095188e-7, 0.6607457, -0.7506099), (1.3487985e-7, 0.6607457, -0.7506099), (0, 0.6607455, -0.75060993), (0, -0.23328894, 0.97240746), (0, -0.23328894, 0.97240746), (0, -0.23328894, 0.97240746), (0, -0.23328894, 0.97240746), (0, -0.6607453, 0.7506102), (0, -0.66074556, 0.75061), (-1.00621584e-7, -0.6607457, 0.7506099), (-2.0124318e-7, -0.66074544, 0.75061005), (0, -0.7389355, 0.67377615), (0, -0.7389355, 0.6737762), (-1.2513065e-7, -0.7389354, 0.67377627), (-1.2513067e-7, -0.7389354, 0.6737762), (-1.1268186e-8, -0.84647495, 0.5324286), (-1.1268186e-8, -0.84647495, 0.53242856), (0, -0.8464749, 0.53242856), (0, -0.8464749, 0.53242856), (0, -0.66074556, 0.75061), (0, -0.66074586, 0.75060976), (0, -0.66074586, 0.75060976), (-1.00621584e-7, -0.6607457, 0.7506099), (0, 0.6607456, -0.7506099), (0, 0.6607456, -0.75061), (0, 0.6607455, -0.75060993), (0, 0.6607456, -0.7506099), (0, 0.6607459, -0.75060964), (0, 0.6607459, -0.75060964), (0, 0.6607457, -0.75060976), (0, 0.66074574, -0.75060976), (0, 0.92558354, 0.37854332), (0, 0.9255835, 0.3785434), (0, 0.9255835, 0.3785434), (0, 0.92558354, 0.37854332), (0, 0.6607456, -0.75061), (0, 0.66074556, -0.75061), (0, 0.6607456, -0.75061), (0, 0.6607456, -0.7506099), (0, 0.75061053, 0.660745), (0, 0.75061035, 0.6607451), (0, 0.75061035, 0.6607451), (0, 0.75061053, 0.660745), (0, 0.66074574, -0.75060976), (0, 0.6607457, -0.75060976), (0, 0.66074556, -0.75061), (0, 0.6607456, -0.75061), (0, -0.7115011, 0.70268506), (0, -0.7115012, 0.7026849), (0, -0.71150124, 0.7026848), (0, -0.711501, 0.7026852), (0, 0.49287805, 0.8700985), (0, 0.4928781, 0.87009835), (0, 0.4928781, 0.87009835), (0, 0.49287805, 0.8700985), (0, 0.098547295, -0.99513245), (0, 0.098547265, -0.99513245), (0, 0.09854727, -0.99513245), (0, 0.09854728, -0.99513245), (0, -0.23328894, 0.97240746), (0, -0.23328894, 0.97240746), (0, -0.23328888, 0.97240746), (0, -0.23328888, 0.97240746), (-2.0124318e-7, -0.66074544, 0.75061005), (-1.00621584e-7, -0.6607457, 0.7506099), (-1.0062157e-7, -0.6607457, 0.7506099), (-2.0124311e-7, -0.6607455, 0.75060993), (-1.2513067e-7, -0.7389354, 0.6737762), (-1.2513065e-7, -0.7389354, 0.67377627), (-1.2513071e-7, -0.73893535, 0.6737764), (-1.2513067e-7, -0.73893535, 0.6737763), (0, -0.8464749, 0.53242856), (0, -0.8464749, 0.53242856), (0, -0.84647495, 0.53242856), (0, -0.84647495, 0.53242856), (-1.00621584e-7, -0.6607457, 0.7506099), (0, -0.66074586, 0.75060976), (0, -0.66074586, 0.75060976), (-1.0062157e-7, -0.6607457, 0.7506099), (0, 0.098547325, -0.99513245), (0, 0.098547295, -0.99513245), (0, 0.09854728, -0.99513245), (0, 0.098547325, -0.99513245), (0, 0.49287802, 0.8700985), (0, 0.49287805, 0.8700985), (0, 0.49287805, 0.8700985), (0, 0.49287802, 0.8700985), (0, -0.71150136, 0.70268476), (0, -0.7115011, 0.70268506), (0, -0.711501, 0.7026852), (0, -0.71150196, 0.7026841), (0, 0.6607457, -0.75060976), (0, 0.66074574, -0.75060976), (0, 0.6607456, -0.75061), (0, 0.6607456, -0.7506099), (0, 0.7506103, 0.6607452), (0, 0.75061053, 0.660745), (0, 0.75061053, 0.660745), (0, 0.7506103, 0.6607452), (0, 0.6607456, -0.7506099), (0, 0.6607456, -0.75061), (0, 0.6607456, -0.7506099), (0, 0.6607457, -0.7506099), (0, 0.9255834, 0.37854362), (0, 0.92558354, 0.37854332), (0, 0.92558354, 0.37854332), (0, 0.9255835, 0.37854367), (0, 0.66074574, -0.7506097), (0, 0.6607459, -0.75060964), (0, 0.66074574, -0.75060976), (0, 0.6607457, -0.75060976), (0, 0.6607457, -0.7506099), (0, 0.6607456, -0.7506099), (0, 0.6607456, -0.7506099), (0, 0.6607457, -0.7506099), (0, -0.23328888, 0.97240746), (0, -0.23328888, 0.97240746), (0, -0.23328888, 0.9724076), (0, -0.23328888, 0.9724076), (-2.0124311e-7, -0.6607455, 0.75060993), (-1.0062157e-7, -0.6607457, 0.7506099), (0, -0.6607456, 0.7506099), (0, -0.6607456, 0.75060993), (-1.2513067e-7, -0.73893535, 0.6737763), (-1.2513071e-7, -0.73893535, 0.6737764), (0, -0.73893535, 0.6737763), (0, -0.73893535, 0.6737763), (0, -0.84647495, 0.53242856), (0, -0.84647495, 0.53242856), (0, -0.84647495, 0.5324286), (0, -0.8464749, 0.53242856), (-1.0062157e-7, -0.6607457, 0.7506099), (0, -0.66074586, 0.75060976), (0, -0.6607457, 0.75060976), (0, -0.6607456, 0.7506099), (1.9119708e-8, 0.6607457, -0.7506099), (0, 0.6607457, -0.7506099), (0, 0.6607457, -0.7506099), (3.1747593e-8, 0.6607457, -0.7506099), (5.8780408e-8, 0.6607457, -0.7506099), (0, 0.66074574, -0.7506097), (0, 0.6607457, -0.75060976), (2.9390208e-8, 0.6607457, -0.7506099), (0, 0.9255835, 0.37854367), (0, 0.9255834, 0.37854362), (0, 0.9255835, 0.37854367), (0, 0.9255835, 0.37854367), (3.245913e-9, 0.6607457, -0.7506099), (0, 0.6607456, -0.7506099), (0, 0.6607457, -0.7506099), (1.9119708e-8, 0.6607457, -0.7506099), (-5.2454386e-8, 0.7506104, 0.6607451), (0, 0.7506103, 0.6607452), (0, 0.7506103, 0.6607452), (-5.245439e-8, 0.7506104, 0.66074497), (2.9390208e-8, 0.6607457, -0.7506099), (0, 0.6607457, -0.75060976), (0, 0.6607456, -0.7506099), (3.245913e-9, 0.6607457, -0.7506099), (-5.5620085e-8, -0.7115024, 0.7026837), (0, -0.71150136, 0.70268476), (0, -0.71150196, 0.7026841), (-1.261997e-7, -0.71150225, 0.7026838), (-9.9921984e-8, 0.4928782, 0.8700983), (0, 0.49287802, 0.8700985), (0, 0.49287802, 0.8700985), (-9.992199e-8, 0.4928782, 0.8700983), (0, 0.098547295, -0.9951323), (0, 0.098547325, -0.99513245), (0, 0.098547325, -0.99513245), (0, 0.098547295, -0.9951323), (0, -0.23328888, 0.9724076), (0, -0.23328888, 0.9724076), (0, -0.23328876, 0.9724076), (0, -0.23328876, 0.9724076), (0, -0.6607456, 0.75060993), (0, -0.6607456, 0.7506099), (0, -0.66074574, 0.7506097), (0, -0.6607457, 0.75060976), (0, -0.73893535, 0.6737763), (0, -0.73893535, 0.6737763), (0, -0.73893535, 0.6737763), (0, -0.73893535, 0.6737763), (0, -0.8464749, 0.53242856), (0, -0.84647495, 0.5324286), (0, -0.8464749, 0.5324286), (0, -0.84647495, 0.5324286), (0, -0.6607456, 0.7506099), (0, -0.6607457, 0.75060976), (0, -0.660746, 0.75060964), (0, -0.66074574, 0.7506097), (0, 0.098547295, -0.99513245), (0, 0.098547295, -0.9951323), (0, 0.098547295, -0.9951323), (0, 0.098547295, -0.99513245), (-1.9984397e-7, 0.49287844, 0.87009823), (-9.9921984e-8, 0.4928782, 0.8700983), (-9.992199e-8, 0.4928782, 0.8700983), (-1.9984397e-7, 0.49287844, 0.87009823), (-1.8181977e-7, -0.71150213, 0.702684), (-5.5620085e-8, -0.7115024, 0.7026837), (-1.261997e-7, -0.71150225, 0.7026838), (-1.8181977e-7, -0.71150213, 0.702684), (5.8780415e-8, 0.6607457, -0.7506099), (2.9390208e-8, 0.6607457, -0.7506099), (3.245913e-9, 0.6607457, -0.7506099), (6.491826e-9, 0.6607457, -0.7506099), (-1.04908764e-7, 0.7506106, 0.6607448), (-5.2454386e-8, 0.7506104, 0.6607451), (-5.245439e-8, 0.7506104, 0.66074497), (-1.04908764e-7, 0.7506106, 0.6607448), (6.491826e-9, 0.6607457, -0.7506099), (3.245913e-9, 0.6607457, -0.7506099), (1.9119708e-8, 0.6607457, -0.7506099), (3.8239417e-8, 0.6607457, -0.7506099), (0, 0.9255834, 0.3785436), (0, 0.9255835, 0.37854367), (0, 0.9255835, 0.37854367), (0, 0.9255834, 0.3785436), (1.1756082e-7, 0.6607457, -0.7506099), (5.8780408e-8, 0.6607457, -0.7506099), (2.9390208e-8, 0.6607457, -0.7506099), (5.8780415e-8, 0.6607457, -0.7506099), (3.8239417e-8, 0.6607457, -0.7506099), (1.9119708e-8, 0.6607457, -0.7506099), (3.1747593e-8, 0.6607457, -0.7506099), (6.349518e-8, 0.6607456, -0.75060993), (0, -0.23328876, 0.9724076), (0, -0.23328876, 0.9724076), (0, -0.23328868, 0.97240746), (0, -0.23328868, 0.97240746), (0, -0.6607457, 0.75060976), (0, -0.66074574, 0.7506097), (0, -0.66074574, 0.7506097), (0, -0.6607457, 0.7506099), (0, -0.73893535, 0.6737763), (0, -0.73893535, 0.6737763), (-5.6728275e-8, -0.73893535, 0.6737763), (-5.6728275e-8, -0.73893535, 0.6737764), (0, -0.84647495, 0.5324286), (0, -0.8464749, 0.5324286), (-6.8606006e-8, -0.8464749, 0.5324286), (-6.8606e-8, -0.8464749, 0.5324286), (0, -0.66074574, 0.7506097), (0, -0.660746, 0.75060964), (0, -0.660746, 0.75060964), (0, -0.66074574, 0.7506097), (0, -0.51690304, -0.856044), (0, -0.51690304, -0.856044), (0, -0.5169031, -0.85604393), (0, -0.5169031, -0.85604393), (-0.044333514, 0.85580295, 0.5153987), (-0.04433344, 0.855803, 0.51539856), (-0.044333797, 0.8558032, 0.51539826), (-0.044333786, 0.85580313, 0.5153984), (4.5617057e-8, 0.85664535, 0.51590574), (9.123407e-8, 0.85664535, 0.5159058), (0, 0.85664535, 0.5159057), (0, 0.85664546, 0.51590556), (0, -0.20696792, 0.9783477), (0, -0.20696792, 0.9783477), (0, -0.20696788, 0.9783478), (0, -0.20696788, 0.9783478), (-1, 2.4762178e-7, 0), (-1, 2.8818764e-7, 0), (-0.99999994, 5.0741573e-7, 0), (-1, 2.537079e-7, 0), (1, 1.9091672e-7, 0), (1, 4.8589106e-7, 0), (1, 7.716825e-7, 0), (1, 7.712707e-7, 0), (0, 0.8905497, 0.454886), (0, 0.8905497, 0.45488584), (0, 0.8905498, 0.45488587), (0, 0.8905498, 0.45488587), (-0.019825201, 0.5410639, 0.8407477), (-0.019825201, 0.5410639, 0.8407477), (-0.019825201, 0.5410639, 0.8407477), (-0.019825201, 0.5410639, 0.8407477), (-0.0443332, 0.855803, 0.51539874), (-0.0443332, 0.85580283, 0.51539886), (-0.04433344, 0.855803, 0.51539856), (-0.044333514, 0.85580295, 0.5153987), (1, -1.8185332e-7, 0), (1, 3.0872254e-8, 0), (1, -2.0312957e-7, 0), (1, -1.6889327e-7, 0), (1, -1.6889327e-7, 0), (1, -2.0312957e-7, 0), (1, -1.260263e-7, 0), (1, -2.159219e-7, 0), (-1, 1.8263967e-7, 0), (-1, 1.1168196e-7, 0), (-1, -6.55635e-8, 0), (-1, 1.9489453e-7, 0), (-1, 1.9489453e-7, 0), (-1, -6.55635e-8, 0), (-1, -1.6135856e-7, 0), (-1, 1.2714196e-7, 0), (1.1434337e-8, 0.96777743, 0.25180712), (2.2868674e-8, 0.9677775, 0.25180715), (2.2868674e-8, 0.9677775, 0.25180715), (1.1434337e-8, 0.96777743, 0.25180715), (0, 0.9079679, 0.41903964), (0, 0.9079679, 0.4190396), (0, 0.9079679, 0.4190396), (0, 0.907968, 0.41903964), (-3.7685357e-8, -0.8566454, -0.51590556), (-3.7685364e-8, -0.85664535, -0.5159058), (-7.5370735e-8, -0.8566454, -0.51590574), (-7.5370735e-8, -0.8566454, -0.51590556), (0.044333875, 0.8558032, 0.51539826), (0.04433384, 0.8558032, 0.5153983), (0.044333864, 0.8558031, 0.51539844), (0.044333898, 0.8558032, 0.51539844), (-1, 8.248479e-8, 0), (-1, 8.2484796e-8, 0), (-1, -2.0729831e-7, 0), (-1, -2.0729831e-7, 0), (0, -0.515906, 0.85664517), (0, -0.515906, 0.85664517), (0, -0.51590586, 0.8566453), (0, -0.51590586, 0.8566453), (1, -2.0069892e-7, 0), (1, 1.9943101e-8, 0), (1, -5.472326e-7, 0), (1, -6.218569e-7, 0), (1, 6.6277477e-7, 0), (1, 6.6277465e-7, 0), (1, 6.36296e-7, 0), (1, 6.3629614e-7, 0), (1, 6.3629614e-7, 0), (1, 6.36296e-7, 0), (1, 6.866852e-7, 0), (1, 6.866852e-7, 0), (-1, -1.8011309e-7, 0), (-1, -1.7158719e-7, 0), (-1, 4.1793477e-8, 0), (-1, 4.1793516e-8, 0), (-1, 4.1793516e-8, 0), (-1, 4.1793477e-8, 0), (-1, 3.0256928e-7, 0), (-1, 3.0256933e-7, 0), (-3.7685364e-8, -0.85664535, -0.5159058), (0, -0.85664535, -0.51590574), (0, -0.85664535, -0.51590574), (-7.5370735e-8, -0.8566454, -0.51590574), (0.04433374, 0.8558032, 0.51539844), (0.04433374, 0.8558032, 0.51539844), (0.04433384, 0.8558032, 0.5153983), (0.044333875, 0.8558032, 0.51539826), (0.0443336, 0.8558031, 0.5153985), (0.044333458, 0.85580313, 0.51539844), (0.04433329, 0.85580325, 0.5153983), (0.04433329, 0.85580325, 0.5153983), (-1, 4.318539e-7, 0), (-1, 1.9489453e-7, 0), (-1, 1.2714196e-7, 0), (-1, 4.0730237e-7, 0), (-1, 3.1666892e-7, 0), (-1, 1.8263967e-7, 0), (-1, 1.9489453e-7, 0), (-1, 4.318539e-7, 0), (1, -1.0739619e-7, 0), (1, -1.6889327e-7, 0), (1, -2.159219e-7, 0), (1, -3.5743213e-7, 0), (1, -3.5611595e-7, 0), (1, -1.8185332e-7, 0), (1, -1.6889327e-7, 0), (1, -1.0739619e-7, 0), (1, -4.94771e-7, 0), (1, 1.9091672e-7, 0), (1, 7.712707e-7, 0), (1, -2.5743057e-7, 0), (-1, 2.099684e-7, 0), (-1, 2.4762178e-7, 0), (-1, 2.537079e-7, 0), (-1, 0, 0), (0, -0.76796263, 0.6404945), (0, -0.76796263, 0.6404945), (0, -0.7679627, 0.64049464), (0, -0.7679627, 0.64049464), (-2.430069e-7, -0.76796293, 0.6404943), (-2.430068e-7, -0.76796293, 0.6404943), (0, -0.76796263, 0.6404945), (0, -0.76796263, 0.6404945), (0, -0.85664535, -0.51590574), (0, -0.85664535, -0.51590574), (0, -0.85664535, -0.51590574), (-3.7685364e-8, -0.85664535, -0.5159058), (0, -0.51590586, 0.8566453), (0, -0.51590586, 0.8566453), (0, -0.515906, 0.85664517), (0, -0.515906, 0.85664517), (0, -0.8566454, -0.5159057), (0, -0.85664535, -0.51590574), (-3.7685364e-8, -0.85664535, -0.5159058), (-3.7685357e-8, -0.8566454, -0.51590556), (0, 0.907968, 0.41903967), (0, 0.9079679, 0.41903976), (0, 0.9079679, 0.41903976), (0, 0.907968, 0.41903967), (0, 0.9677775, 0.25180706), (0, 0.96777743, 0.25180706), (0, 0.96777743, 0.25180706), (0, 0.9677775, 0.25180706), (0, 0.8905495, 0.45488626), (0, 0.89054966, 0.4548861), (0, 0.8905497, 0.45488584), (0, 0.8905497, 0.454886), (0, -0.20696792, 0.9783477), (0, -0.20696792, 0.9783477), (0, -0.20696792, 0.9783477), (0, -0.20696792, 0.9783477), (0, 0.8566454, 0.5159057), (0, 0.8566454, 0.5159057), (0, 0.8566455, 0.5159055), (0, 0.85664546, 0.51590544), (0, -0.51690304, -0.856044), (0, -0.51690304, -0.856044), (0, -0.51690304, -0.856044), (0, -0.51690304, -0.856044), (0, -0.5169031, -0.8560439), (0, -0.5169031, -0.8560439), (0, -0.51690304, -0.856044), (0, -0.51690304, -0.856044), (0, -0.20696792, 0.9783477), (0, -0.20696792, 0.9783477), (0, -0.20696792, 0.9783477), (0, -0.20696792, 0.9783477), (0, 0.8905498, 0.4548858), (0, 0.8905496, 0.45488623), (0, 0.89054966, 0.4548861), (0, 0.8905495, 0.45488626), (0, -0.8566454, -0.51590574), (0, -0.8566454, -0.51590574), (0, -0.85664535, -0.51590574), (0, -0.8566454, -0.5159057), (0, -0.51590574, 0.8566454), (0, -0.51590574, 0.8566454), (0, -0.51590586, 0.8566453), (0, -0.51590586, 0.8566453), (0, -0.8566454, -0.51590574), (0, -0.8566454, -0.51590574), (0, -0.85664535, -0.51590574), (0, -0.85664535, -0.51590574), (-2.430067e-7, -0.7679629, 0.6404943), (-2.430068e-7, -0.76796293, 0.6404943), (-2.430068e-7, -0.76796293, 0.6404943), (-2.430069e-7, -0.76796293, 0.6404943), (0, 0.9079679, 0.41903976), (0, 0.9079679, 0.41903976), (0, 0.9079679, 0.41903976), (0, 0.9079679, 0.41903976), (0, 0.96777743, 0.25180706), (0, 0.96777743, 0.25180712), (0, 0.96777743, 0.25180712), (0, 0.96777743, 0.25180706), (0, 0.8566454, 0.5159057), (1.9971246e-7, 0.8566454, 0.5159057), (3.9942512e-7, 0.85664546, 0.5159056), (0, 0.8566455, 0.5159055), (0, 0.85664535, 0.5159059), (0, 0.8566454, 0.51590574), (1.9971246e-7, 0.8566454, 0.5159057), (0, 0.8566454, 0.5159057), (0, -0.85664535, -0.5159058), (0, -0.8566454, -0.51590574), (0, -0.8566454, -0.5159057), (0, -0.8566454, -0.51590556), (0, 0.8566453, 0.5159059), (0, 0.85664535, 0.5159059), (0, 0.8566454, 0.5159057), (0, 0.8566454, 0.5159057), (0, -0.8566454, -0.51590556), (0, -0.8566454, -0.5159057), (-3.7685357e-8, -0.8566454, -0.51590556), (0, -0.8566456, -0.51590544), (-1, 4.0730237e-7, 0), (-1, 1.2714196e-7, 0), (-1, 2.4762178e-7, 0), (-1, 2.099684e-7, 0), (0.99999994, -8.118652e-7, 0), (1, -1.01482996e-7, 0), (1, -1.8185332e-7, 0), (1, -3.5611595e-7, 0), (0.044333898, 0.8558032, 0.51539844), (0.044333864, 0.8558031, 0.51539844), (0.044333458, 0.85580313, 0.51539844), (0.0443336, 0.8558031, 0.5153985), (1, 8.291929e-7, 0), (1, 8.291929e-7, 0), (1, 6.6277465e-7, 0), (1, 6.6277477e-7, 0), (-1, 3.0256933e-7, 0), (-1, 3.0256928e-7, 0), (-1, 8.2484796e-8, 0), (-1, 8.248479e-8, 0), (0, -0.8566456, -0.51590544), (-3.7685357e-8, -0.8566454, -0.51590556), (-7.5370735e-8, -0.8566454, -0.51590556), (0, -0.8566456, -0.51590544), (1, -1.01482996e-7, 0), (1, 6.088992e-7, 0), (1, 3.0872254e-8, 0), (1, -1.8185332e-7, 0), (-0.04433322, 0.8558027, 0.5153992), (-0.04433322, 0.8558027, 0.5153992), (-0.0443332, 0.85580283, 0.51539886), (-0.0443332, 0.855803, 0.51539874), (-1, 1.2714196e-7, 0), (-1, -1.6135856e-7, 0), (-1, 2.8818764e-7, 0), (-1, 2.4762178e-7, 0), (9.123409e-8, 0.8566452, 0.515906), (1.8246818e-7, 0.8566452, 0.5159059), (9.123407e-8, 0.85664535, 0.5159058), (4.5617057e-8, 0.85664535, 0.51590574), (0, 0.88426626, 0.46698302), (0, 0.88426626, 0.46698314), (0, 0.88426626, 0.46698314), (0, 0.88426626, 0.46698302), (0, -0.8566454, -0.51590574), (0, -0.8566454, -0.51590574), (0, -0.8566454, -0.51590574), (0, -0.85664535, -0.51590574), (0, -0.85664535, -0.51590574), (0, -0.8566454, -0.51590574), (0, -0.85664535, -0.5159058), (0, -0.85664535, -0.51590574), (0, 0.8842663, 0.46698302), (0, 0.88426626, 0.46698302), (0, 0.88426626, 0.46698302), (0, 0.8842663, 0.46698302), (1, -3.5743213e-7, 0), (1, -2.159219e-7, 0), (1, 1.9091672e-7, 0), (1, -4.94771e-7, 0), (-1, 0, 0), (-1, 1.8123437e-8, 0), (-1, 1.8263967e-7, 0), (-1, 3.1666892e-7, 0), (0.01982496, 0.5410649, 0.8407472), (0.01982496, 0.5410649, 0.8407472), (0.01982496, 0.5410649, 0.8407472), (0.01982496, 0.5410649, 0.8407472), (-1, -4.0690995e-8, 0), (-1, 2.2200958e-8, 0), (-1, -1.7158719e-7, 0), (-1, -1.8011309e-7, 0), (1, 6.866852e-7, 0), (1, 6.866852e-7, 0), (1, 1.9943101e-8, 0), (1, -2.0069892e-7, 0), (0, 0.88426685, 0.4669821), (0, 0.8842668, 0.46698207), (0, 0.8842668, 0.46698207), (0, 0.88426685, 0.4669821), (-1, 1.8123437e-8, 0), (-1, 4.1032354e-8, 0), (-1, 1.1168196e-7, 0), (-1, 1.8263967e-7, 0), (-0.044333786, 0.85580313, 0.5153984), (-0.044333797, 0.8558032, 0.51539826), (-0.04433382, 0.8558035, 0.51539785), (-0.04433382, 0.8558035, 0.51539785), (1, -2.159219e-7, 0), (1, -1.260263e-7, 0), (1, 4.8589106e-7, 0), (1, 1.9091672e-7, 0), (0, -0.85664535, -0.51590574), (0, -0.85664535, -0.5159058), (0, -0.8566454, -0.51590574), (0, -0.85664535, -0.51590574), (0, 0.88426626, 0.46698314), (8.4482004e-8, 0.88426626, 0.46698302), (8.448201e-8, 0.88426626, 0.46698305), (0, 0.88426626, 0.46698314), (-1.460587e-7, -0.85664535, -0.5159057), (-2.9211736e-7, -0.8566454, -0.51590574), (0, -0.8566454, -0.51590574), (0, -0.8566454, -0.51590574), (0, 0.8566454, 0.51590574), (0, 0.8566454, 0.51590574), (1.997126e-7, 0.8566454, 0.51590556), (1.9971246e-7, 0.8566454, 0.5159057), (0, -0.85664535, -0.51590586), (0, -0.85664535, -0.51590574), (0, -0.8566454, -0.51590574), (0, -0.85664535, -0.5159058), (0, -0.7679629, 0.64049435), (0, -0.7679629, 0.64049435), (-2.430068e-7, -0.76796293, 0.6404943), (-2.430067e-7, -0.7679629, 0.6404943), (0, -0.8566454, -0.51590574), (-1.460587e-7, -0.85664535, -0.5159057), (0, -0.8566454, -0.51590574), (0, -0.8566454, -0.51590574), (0, -0.515906, 0.8566452), (0, -0.515906, 0.8566452), (0, -0.51590574, 0.8566454), (0, -0.51590574, 0.8566454), (0, -0.85664535, -0.51590574), (0, -0.8566454, -0.51590574), (0, -0.8566454, -0.51590574), (0, -0.8566454, -0.51590574), (0, 0.8905494, 0.4548865), (0, 0.8905497, 0.45488596), (0, 0.8905496, 0.45488623), (0, 0.8905498, 0.4548858), (0, -0.20696792, 0.9783477), (0, -0.20696792, 0.9783477), (0, -0.20696792, 0.9783477), (0, -0.20696792, 0.9783477), (-1.8724916e-7, -0.5169031, -0.8560439), (-1.8724917e-7, -0.5169031, -0.8560438), (0, -0.5169031, -0.8560439), (0, -0.5169031, -0.8560439), (0, 0.9079679, 0.41903976), (0, 0.907968, 0.41903973), (0, 0.907968, 0.41903973), (0, 0.9079679, 0.41903976), (0, 0.96777743, 0.25180712), (3.2584072e-8, 0.96777743, 0.25180706), (3.2584083e-8, 0.96777743, 0.2518071), (0, 0.96777743, 0.25180712), (1.9971246e-7, 0.8566454, 0.5159057), (1.997126e-7, 0.8566454, 0.51590556), (3.9942498e-7, 0.85664546, 0.5159055), (3.9942512e-7, 0.85664546, 0.5159056), (-1.872492e-7, -0.5169032, -0.8560439), (-1.8724919e-7, -0.5169032, -0.8560438), (-1.8724917e-7, -0.5169031, -0.8560438), (-1.8724916e-7, -0.5169031, -0.8560439), (0, -0.20696788, 0.9783477), (0, -0.20696788, 0.9783477), (0, -0.20696792, 0.9783477), (0, -0.20696792, 0.9783477), (0, 0.8905494, 0.4548865), (0, 0.89054924, 0.45488667), (0, 0.8905497, 0.45488596), (0, 0.8905494, 0.4548865), (0, -0.8566454, -0.51590574), (0, -0.85664535, -0.5159058), (0, -0.8566454, -0.51590574), (0, -0.85664535, -0.51590574), (0, -0.515906, 0.8566452), (0, -0.515906, 0.8566452), (0, -0.515906, 0.8566452), (0, -0.515906, 0.8566452), (0, -0.85664535, -0.5159058), (-1.4605865e-7, -0.85664535, -0.5159058), (-1.460587e-7, -0.85664535, -0.5159057), (0, -0.8566454, -0.51590574), (0, -0.76796293, 0.6404943), (0, -0.76796293, 0.6404943), (0, -0.7679629, 0.64049435), (0, -0.7679629, 0.64049435), (0, -0.8566454, -0.51590574), (0, -0.8566454, -0.51590574), (0, -0.85664535, -0.51590574), (0, -0.85664535, -0.51590586), (-1.4605865e-7, -0.85664535, -0.5159058), (-2.9211736e-7, -0.85664535, -0.5159057), (-2.9211736e-7, -0.8566454, -0.51590574), (-1.460587e-7, -0.85664535, -0.5159057), (8.4482004e-8, 0.88426626, 0.46698302), (2.1904836e-7, 0.8842664, 0.46698272), (2.1904842e-7, 0.88426644, 0.46698275), (8.448201e-8, 0.88426626, 0.46698305), (0, 0.8566454, 0.51590574), (2.5428963e-7, 0.8566453, 0.5159058), (1.271448e-7, 0.85664546, 0.51590556), (1.997126e-7, 0.8566454, 0.51590556), (0, 0.907968, 0.41903973), (2.1704015e-7, 0.9079679, 0.41903967), (2.1704012e-7, 0.90796787, 0.41903967), (0, 0.907968, 0.41903973), (3.2584072e-8, 0.96777743, 0.25180706), (1.9193416e-7, 0.96777743, 0.25180715), (1.919342e-7, 0.96777743, 0.25180715), (3.2584083e-8, 0.96777743, 0.2518071), (1.997126e-7, 0.8566454, 0.51590556), (1.271448e-7, 0.85664546, 0.51590556), (0, 0.8566457, 0.51590526), (3.9942498e-7, 0.85664546, 0.5159055), (-4.1540943e-8, -0.8566452, -0.5159059), (-1.14759e-8, -0.85664535, -0.51590586), (-2.9211736e-7, -0.85664535, -0.5159057), (-1.4605865e-7, -0.85664535, -0.5159058), (-3.1871316e-8, -0.8566453, -0.5159058), (-5.409216e-8, -0.85664535, -0.51590574), (0, -0.8566454, -0.51590574), (0, -0.8566454, -0.51590574), (9.846999e-8, -0.7679628, 0.64049447), (9.8469975e-8, -0.7679628, 0.6404944), (0, -0.76796293, 0.6404943), (0, -0.76796293, 0.6404943), (-7.39595e-8, -0.85664535, -0.51590574), (-4.1540943e-8, -0.8566452, -0.5159059), (-1.4605865e-7, -0.85664535, -0.5159058), (0, -0.85664535, -0.5159058), (0, -0.5159057, 0.8566454), (0, -0.5159057, 0.8566454), (0, -0.515906, 0.8566452), (0, -0.515906, 0.8566452), (-5.409216e-8, -0.85664535, -0.51590574), (-7.39595e-8, -0.85664535, -0.51590574), (0, -0.85664535, -0.5159058), (0, -0.8566454, -0.51590574), (0, 0.89054954, 0.45488638), (0, 0.8905495, 0.45488638), (0, 0.89054924, 0.45488667), (0, 0.8905494, 0.4548865), (0, -0.20696816, 0.9783477), (0, -0.20696817, 0.9783477), (0, -0.20696788, 0.9783477), (0, -0.20696788, 0.9783477), (0, -0.5169034, -0.8560438), (0, -0.5169034, -0.8560438), (-1.8724919e-7, -0.5169032, -0.8560438), (-1.872492e-7, -0.5169032, -0.8560439), (2.1904836e-7, 0.8842664, 0.46698272), (1.3456639e-7, 0.8842666, 0.4669824), (1.3456636e-7, 0.8842666, 0.46698236), (2.1904842e-7, 0.88426644, 0.46698275), (2.5428963e-7, 0.8566453, 0.5159058), (2.5428955e-7, 0.8566452, 0.51590586), (1.2714482e-7, 0.85664546, 0.5159056), (1.271448e-7, 0.85664546, 0.51590556), (2.1704015e-7, 0.9079679, 0.41903967), (2.1704014e-7, 0.907968, 0.41903958), (2.1704017e-7, 0.907968, 0.41903958), (2.1704012e-7, 0.90796787, 0.41903967), (1.9193416e-7, 0.96777743, 0.25180715), (1.5935015e-7, 0.9677774, 0.25180727), (1.5935012e-7, 0.96777743, 0.25180727), (1.919342e-7, 0.96777743, 0.25180715), (1.271448e-7, 0.85664546, 0.51590556), (1.2714482e-7, 0.85664546, 0.5159056), (0, 0.8566457, 0.51590526), (0, 0.8566457, 0.51590526), (0, -0.51690334, -0.85604376), (0, -0.51690334, -0.85604376), (0, -0.5169034, -0.8560438), (0, -0.5169034, -0.8560438), (0, -0.20696865, 0.9783476), (0, -0.20696864, 0.9783476), (0, -0.20696817, 0.9783477), (0, -0.20696816, 0.9783477), (0, 0.89054966, 0.45488608), (0, 0.8905497, 0.45488608), (0, 0.8905495, 0.45488638), (0, 0.89054954, 0.45488638), (-5.4092162e-8, -0.8566453, -0.51590586), (-7.39595e-8, -0.8566454, -0.51590574), (-7.39595e-8, -0.85664535, -0.51590574), (-5.409216e-8, -0.85664535, -0.51590574), (0, -0.51590574, 0.8566454), (0, -0.51590574, 0.8566454), (0, -0.5159057, 0.8566454), (0, -0.5159057, 0.8566454), (-7.39595e-8, -0.8566454, -0.51590574), (-4.154095e-8, -0.85664535, -0.51590574), (-4.1540943e-8, -0.8566452, -0.5159059), (-7.39595e-8, -0.85664535, -0.51590574), (9.846999e-8, -0.7679627, 0.64049464), (9.846999e-8, -0.76796263, 0.6404945), (9.8469975e-8, -0.7679628, 0.6404944), (9.846999e-8, -0.7679628, 0.64049447), (-3.1871316e-8, -0.85664517, -0.51590604), (-5.4092162e-8, -0.8566453, -0.51590586), (-5.409216e-8, -0.85664535, -0.51590574), (-3.1871316e-8, -0.8566453, -0.5159058), (-4.154095e-8, -0.85664535, -0.51590574), (-1.1475899e-8, -0.85664535, -0.51590574), (-1.14759e-8, -0.85664535, -0.51590586), (-4.1540943e-8, -0.8566452, -0.5159059), (1.3456639e-7, 0.8842666, 0.4669824), (0, 0.8842667, 0.46698225), (0, 0.8842667, 0.46698225), (1.3456636e-7, 0.8842666, 0.46698236), (2.5428955e-7, 0.8566452, 0.51590586), (5.658583e-8, 0.8566452, 0.5159059), (2.829292e-8, 0.85664546, 0.5159057), (1.2714482e-7, 0.85664546, 0.5159056), (2.1704014e-7, 0.907968, 0.41903958), (2.7951964e-8, 0.90796804, 0.4190395), (2.7951964e-8, 0.907968, 0.41903946), (2.1704017e-7, 0.907968, 0.41903958), (1.5935015e-7, 0.9677774, 0.25180727), (0, 0.9677774, 0.2518073), (0, 0.96777743, 0.2518073), (1.5935012e-7, 0.96777743, 0.25180727), (1.2714482e-7, 0.85664546, 0.5159056), (2.829292e-8, 0.85664546, 0.5159057), (0, 0.85664564, 0.51590526), (0, 0.8566457, 0.51590526), (0, -0.8566454, -0.51590574), (0, -0.8566454, -0.51590574), (-1.1475899e-8, -0.85664535, -0.51590574), (-4.154095e-8, -0.85664535, -0.51590574), (0, -0.85664517, -0.51590604), (0, -0.8566453, -0.5159059), (-5.4092162e-8, -0.8566453, -0.51590586), (-3.1871316e-8, -0.85664517, -0.51590604), (0, -0.7679625, 0.6404948), (0, -0.7679625, 0.6404948), (9.846999e-8, -0.76796263, 0.6404945), (9.846999e-8, -0.7679627, 0.64049464), (0, -0.85664535, -0.51590574), (0, -0.8566454, -0.51590574), (-4.154095e-8, -0.85664535, -0.51590574), (-7.39595e-8, -0.8566454, -0.51590574), (-2.546425e-7, -0.5159057, 0.85664546), (-2.546424e-7, -0.5159057, 0.8566454), (0, -0.51590574, 0.8566454), (0, -0.51590574, 0.8566454), (0, -0.8566453, -0.5159059), (0, -0.85664535, -0.51590574), (-7.39595e-8, -0.8566454, -0.51590574), (-5.4092162e-8, -0.8566453, -0.51590586), (1.7985974e-7, 0.8905497, 0.45488584), (2.4206292e-7, 0.8905498, 0.45488587), (0, 0.8905497, 0.45488608), (0, 0.89054966, 0.45488608), (0, -0.20696887, 0.97834754), (0, -0.20696887, 0.97834754), (0, -0.20696864, 0.9783476), (0, -0.20696865, 0.9783476), (0, -0.51690334, -0.85604376), (0, -0.51690334, -0.8560438), (0, -0.51690334, -0.85604376), (0, -0.51690334, -0.85604376), (0, 0.8842667, 0.46698225), (0, 0.88426673, 0.46698228), (0, 0.88426673, 0.46698228), (0, 0.8842667, 0.46698225), (5.658583e-8, 0.8566452, 0.5159059), (5.658584e-8, 0.8566451, 0.51590604), (2.8292915e-8, 0.85664535, 0.5159057), (2.829292e-8, 0.85664546, 0.5159057), (2.7951964e-8, 0.90796804, 0.4190395), (2.7951963e-8, 0.907968, 0.41903946), (2.7951963e-8, 0.90796804, 0.4190395), (2.7951964e-8, 0.907968, 0.41903946), (0, 0.9677774, 0.2518073), (0, 0.9677774, 0.25180727), (0, 0.96777743, 0.2518073), (0, 0.96777743, 0.2518073), (2.829292e-8, 0.85664546, 0.5159057), (2.8292915e-8, 0.85664535, 0.5159057), (0, 0.8566455, 0.5159054), (0, 0.85664564, 0.51590526), (0, -0.5169034, -0.85604376), (0, -0.5169034, -0.85604376), (0, -0.51690334, -0.8560438), (0, -0.51690334, -0.85604376), (0, -0.20696883, 0.97834754), (0, -0.20696883, 0.97834754), (0, -0.20696887, 0.97834754), (0, -0.20696887, 0.97834754), (2.6190247e-7, 0.8905502, 0.454885), (1.6002025e-7, 0.8905505, 0.45488447), (2.4206292e-7, 0.8905498, 0.45488587), (1.7985974e-7, 0.8905497, 0.45488584), (0, -0.85664535, -0.5159058), (0, -0.85664535, -0.5159058), (0, -0.85664535, -0.51590574), (0, -0.8566453, -0.5159059), (-2.546423e-7, -0.5159054, 0.8566456), (-2.546424e-7, -0.5159054, 0.85664564), (-2.546424e-7, -0.5159057, 0.8566454), (-2.546425e-7, -0.5159057, 0.85664546), (0, -0.85664535, -0.5159058), (0, -0.8566454, -0.51590574), (0, -0.8566454, -0.51590574), (0, -0.85664535, -0.51590574), (0, -0.7679625, 0.6404949), (0, -0.7679625, 0.6404949), (0, -0.7679625, 0.6404948), (0, -0.7679625, 0.6404948), (0, -0.85664535, -0.51590586), (0, -0.85664535, -0.5159058), (0, -0.8566453, -0.5159059), (0, -0.85664517, -0.51590604), (0, -0.8566454, -0.51590574), (0, -0.85664535, -0.51590574), (0, -0.8566454, -0.51590574), (0, -0.8566454, -0.51590574), (0, 0.88426673, 0.46698228), (0, 0.8842666, 0.46698228), (0, 0.8842666, 0.46698228), (0, 0.88426673, 0.46698228), (5.658584e-8, 0.8566451, 0.51590604), (0, 0.85664517, 0.51590604), (0, 0.8566454, 0.51590574), (2.8292915e-8, 0.85664535, 0.5159057), (2.7951963e-8, 0.907968, 0.41903946), (0, 0.90796804, 0.41903946), (0, 0.90796804, 0.41903946), (2.7951963e-8, 0.90796804, 0.4190395), (0, 0.9677774, 0.25180727), (0, 0.96777743, 0.2518073), (0, 0.96777743, 0.2518073), (0, 0.96777743, 0.2518073), (2.8292915e-8, 0.85664535, 0.5159057), (0, 0.8566454, 0.51590574), (0, 0.8566455, 0.51590544), (0, 0.8566455, 0.5159054), (0, -0.85664535, -0.5159058), (0, -0.85664535, -0.51590574), (0, -0.85664535, -0.51590574), (0, -0.8566454, -0.51590574), (-2.0202607e-7, -0.8566452, -0.515906), (-2.2194632e-7, -0.85664535, -0.51590586), (0, -0.85664535, -0.5159058), (0, -0.85664535, -0.51590586), (0, -0.7679625, 0.6404949), (0, -0.7679625, 0.6404949), (0, -0.7679625, 0.6404949), (0, -0.7679625, 0.6404949), (-1.2093328e-7, -0.85664535, -0.51590574), (0, -0.85664535, -0.5159058), (0, -0.8566454, -0.51590574), (0, -0.85664535, -0.5159058), (0, -0.51590514, 0.8566457), (0, -0.51590514, 0.8566457), (-2.546424e-7, -0.5159054, 0.85664564), (-2.546423e-7, -0.5159054, 0.8566456), (-2.2194632e-7, -0.85664535, -0.51590586), (-1.2093328e-7, -0.85664535, -0.51590574), (0, -0.85664535, -0.5159058), (0, -0.85664535, -0.5159058), (0, 0.8905507, 0.4548841), (0, 0.8905504, 0.45488456), (1.6002025e-7, 0.8905505, 0.45488447), (2.6190247e-7, 0.8905502, 0.454885), (0, -0.20696862, 0.9783476), (0, -0.20696865, 0.9783476), (0, -0.20696883, 0.97834754), (0, -0.20696883, 0.97834754), (0, -0.5169034, -0.85604376), (0, -0.5169034, -0.85604376), (0, -0.5169034, -0.85604376), (0, -0.5169034, -0.85604376), (0, 0.8842666, 0.46698228), (1.2466488e-7, 0.8842667, 0.46698225), (1.2466491e-7, 0.88426673, 0.46698228), (0, 0.8842666, 0.46698228), (0, 0.85664517, 0.51590604), (0, 0.8566451, 0.51590604), (0, 0.8566454, 0.51590574), (0, 0.8566454, 0.51590574), (0, 0.90796804, 0.41903946), (0, 0.907968, 0.4190395), (0, 0.907968, 0.4190395), (0, 0.90796804, 0.41903946), (0, 0.96777743, 0.2518073), (9.616472e-8, 0.9677774, 0.2518073), (9.6164754e-8, 0.96777743, 0.2518073), (0, 0.96777743, 0.2518073), (0, 0.8566454, 0.51590574), (0, 0.8566454, 0.51590574), (0, 0.8566455, 0.5159054), (0, 0.8566455, 0.51590544), (0, -0.5169034, -0.85604376), (0, -0.5169034, -0.85604376), (0, -0.5169034, -0.85604376), (0, -0.5169034, -0.85604376), (0, -0.20696823, 0.9783477), (0, -0.2069682, 0.9783476), (0, -0.20696865, 0.9783476), (0, -0.20696862, 0.9783476), (0, 0.89055014, 0.45488513), (0, 0.8905501, 0.45488515), (0, 0.8905504, 0.45488456), (0, 0.8905507, 0.4548841), (-2.219463e-7, -0.8566453, -0.51590586), (-1.2093327e-7, -0.85664535, -0.5159057), (-1.2093328e-7, -0.85664535, -0.51590574), (-2.2194632e-7, -0.85664535, -0.51590586), (0, -0.51590514, 0.85664564), (0, -0.51590514, 0.85664564), (0, -0.51590514, 0.8566457), (0, -0.51590514, 0.8566457), (-1.2093327e-7, -0.85664535, -0.5159057), (0, -0.85664535, -0.5159058), (0, -0.85664535, -0.5159058), (-1.2093328e-7, -0.85664535, -0.51590574), (0, -0.7679625, 0.6404948), (0, -0.7679625, 0.6404948), (0, -0.7679625, 0.6404949), (0, -0.7679625, 0.6404949), (-2.0202604e-7, -0.8566451, -0.51590616), (-2.219463e-7, -0.8566453, -0.51590586), (-2.2194632e-7, -0.85664535, -0.51590586), (-2.0202607e-7, -0.8566452, -0.515906), (0, -0.85664535, -0.5159058), (0, -0.85664535, -0.5159058), (0, -0.85664535, -0.51590574), (0, -0.85664535, -0.5159058), (1.2466488e-7, 0.8842667, 0.46698225), (1.2466484e-7, 0.8842668, 0.4669821), (1.2466488e-7, 0.88426673, 0.46698207), (1.2466491e-7, 0.88426673, 0.46698228), (0, 0.8566451, 0.51590604), (0, 0.85664517, 0.51590604), (0, 0.85664535, 0.5159057), (0, 0.8566454, 0.51590574), (0, 0.907968, 0.4190395), (1.7718205e-7, 0.907968, 0.41903952), (1.7718206e-7, 0.907968, 0.41903952), (0, 0.907968, 0.4190395), (9.616472e-8, 0.9677774, 0.2518073), (2.0047021e-7, 0.9677774, 0.25180727), (2.0047023e-7, 0.96777743, 0.25180727), (9.6164754e-8, 0.96777743, 0.2518073), (0, 0.8566454, 0.51590574), (0, 0.85664535, 0.5159057), (0, 0.8566456, 0.5159053), (0, 0.8566455, 0.5159054), (-1.5873786e-8, -0.85664535, -0.5159058), (-3.174757e-8, -0.85664535, -0.5159058), (0, -0.85664535, -0.5159058), (0, -0.85664535, -0.5159058), (0, -0.8566451, -0.5159061), (0, -0.8566453, -0.5159058), (-2.219463e-7, -0.8566453, -0.51590586), (-2.0202604e-7, -0.8566451, -0.51590616), (0, -0.7679625, 0.64049476), (0, -0.7679625, 0.64049476), (0, -0.7679625, 0.6404948), (0, -0.7679625, 0.6404948), (0, -0.85664535, -0.5159057), (-1.5873786e-8, -0.85664535, -0.5159058), (0, -0.85664535, -0.5159058), (-1.2093327e-7, -0.85664535, -0.5159057), (0, -0.51590526, 0.85664564), (0, -0.51590526, 0.85664564), (0, -0.51590514, 0.85664564), (0, -0.51590514, 0.85664564), (0, -0.8566453, -0.5159058), (0, -0.85664535, -0.5159057), (-1.2093327e-7, -0.85664535, -0.5159057), (-2.219463e-7, -0.8566453, -0.51590586), (0, 0.89055, 0.4548852), (0, 0.89055, 0.45488524), (0, 0.8905501, 0.45488515), (0, 0.89055014, 0.45488513), (0, -0.20696795, 0.9783477), (0, -0.20696795, 0.9783477), (0, -0.2069682, 0.9783476), (0, -0.20696823, 0.9783477), (-3.56132e-8, -0.5169034, -0.8560437), (-3.5613205e-8, -0.51690346, -0.85604376), (0, -0.5169034, -0.85604376), (0, -0.5169034, -0.85604376), (1.2466484e-7, 0.8842668, 0.4669821), (0, 0.88426685, 0.4669821), (0, 0.88426685, 0.46698207), (1.2466488e-7, 0.88426673, 0.46698207), (0, 0.85664517, 0.51590604), (0, 0.8566452, 0.515906), (0, 0.85664535, 0.5159057), (0, 0.85664535, 0.5159057), (1.7718205e-7, 0.907968, 0.41903952), (1.7718206e-7, 0.9079679, 0.41903952), (1.7718206e-7, 0.9079679, 0.41903958), (1.7718206e-7, 0.907968, 0.41903952), (2.0047021e-7, 0.9677774, 0.25180727), (1.0430548e-7, 0.96777743, 0.25180724), (1.0430546e-7, 0.96777743, 0.25180724), (2.0047023e-7, 0.96777743, 0.25180727), (0, 0.85664535, 0.5159057), (0, 0.85664535, 0.5159057), (0, 0.8566456, 0.5159054), (0, 0.8566456, 0.5159053), (-7.12264e-8, -0.5169035, -0.85604376), (-7.12264e-8, -0.5169035, -0.85604376), (-3.5613205e-8, -0.51690346, -0.85604376), (-3.56132e-8, -0.5169034, -0.8560437), (0, -0.20696793, 0.9783478), (0, -0.20696793, 0.9783478), (0, -0.20696795, 0.9783477), (0, -0.20696795, 0.9783477), (0, 0.8905501, 0.45488533), (0, 0.8905501, 0.45488533), (0, 0.89055, 0.45488524), (0, 0.89055, 0.4548852), (0, -0.8566453, -0.5159058), (0, -0.8566454, -0.51590574), (0, -0.85664535, -0.5159057), (0, -0.8566453, -0.5159058), (0, -0.5159053, 0.85664564), (0, -0.5159053, 0.85664564), (0, -0.51590526, 0.85664564), (0, -0.51590526, 0.85664564), (0, -0.8566454, -0.51590574), (-3.174757e-8, -0.85664535, -0.51590574), (-1.5873786e-8, -0.85664535, -0.5159058), (0, -0.85664535, -0.5159057), (0, -0.7679626, 0.64049464), (0, -0.7679626, 0.64049464), (0, -0.7679625, 0.64049476), (0, -0.7679625, 0.64049476), (0, -0.85664517, -0.5159061), (0, -0.8566453, -0.5159058), (0, -0.8566453, -0.5159058), (0, -0.8566451, -0.5159061), (-3.174757e-8, -0.85664535, -0.51590574), (-6.349514e-8, -0.85664535, -0.51590574), (-3.174757e-8, -0.85664535, -0.5159058), (-1.5873786e-8, -0.85664535, -0.5159058), (0, 0.88426685, 0.4669821), (0, 0.88426685, 0.4669821), (0, 0.88426685, 0.4669821), (0, 0.88426685, 0.46698207), (0, 0.8566452, 0.515906), (9.123409e-8, 0.8566452, 0.515906), (4.5617057e-8, 0.85664535, 0.51590574), (0, 0.85664535, 0.5159057), (1.7718206e-7, 0.9079679, 0.41903952), (0, 0.9079679, 0.41903964), (0, 0.907968, 0.41903964), (1.7718206e-7, 0.9079679, 0.41903958), (1.0430548e-7, 0.96777743, 0.25180724), (1.1434337e-8, 0.96777743, 0.25180712), (1.1434337e-8, 0.96777743, 0.25180715), (1.0430546e-7, 0.96777743, 0.25180724), (0, 0.85664535, 0.5159057), (4.5617057e-8, 0.85664535, 0.51590574), (0, 0.85664546, 0.51590556), (0, 0.8566456, 0.5159054)] (
                interpolation = "faceVarying"
            )
            point3f[] points = [(-0.44049495, 0.45112354, 0.50789654), (0.6547997, 0.45112354, 0.5078966), (-0.44049495, 0.5289542, 0.41948056), (0.6547997, 0.5289542, 0.41948062), (-0.44049495, 0.13933872, 0.20141804), (-0.44049495, 0.28729045, 0.3636778), (0.6547997, 0.20128807, 0.13104329), (0.6547997, 0.36512113, 0.27526194), (0.6547997, 0.28729045, 0.36367786), (0.6547997, 0.13933867, 0.20141804), (-0.44049495, 0.36512113, 0.27526188), (-0.44049495, 0.20128809, 0.13104324), (-0.48982656, 0.5510041, 0.4418072), (-0.48982656, 0.5841551, 0.40414745), (0.7041313, 0.55100405, 0.4418072), (0.7041313, 0.5841551, 0.4041475), (0.7041313, 0.40465778, 0.24613993), (0.7041313, 0.37150672, 0.28379965), (-0.48982656, 0.2251605, 0.088132285), (-0.48982656, 0.19200945, 0.12579203), (0.7041313, 0.22516048, 0.088132344), (0.7041313, 0.19200945, 0.12579209), (-0.48982656, 0.40465778, 0.24613988), (-0.48982656, 0.37150675, 0.2837996), (-0.44049495, 0.47471902, 0.45020282), (0.6547997, 0.47471902, 0.45020288), (0.6547997, 0.3262058, 0.3194699), (0.6547997, 0.17031339, 0.16623068), (-0.44049495, 0.1703134, 0.16623065), (-0.44049495, 0.3262058, 0.31946984), (0.5011687, 0.45112354, 0.5078966), (0.5011687, 0.5289542, 0.41948062), (0.5011687, 0.13933867, 0.20141804), (0.5011687, 0.28729045, 0.36367786), (0.538926, 0.22516048, 0.08813233), (0.538926, 0.40465778, 0.24613991), (0.538926, 0.5841551, 0.4041475), (0.538926, 0.5510041, 0.4418072), (0.5011687, 0.47471902, 0.45020288), (0.45934233, 0.5289542, 0.41948062), (0.45934233, 0.13933867, 0.20141804), (0.45934233, 0.28729045, 0.36367786), (0.49394852, 0.22516048, 0.08813233), (0.49394852, 0.5841551, 0.4041475), (0.49394852, 0.5510041, 0.4418072), (0.45934233, 0.47471902, 0.45020288), (0.45934233, 0.45112354, 0.5078966), (0.49394852, 0.40465778, 0.24613991), (-0.44049495, 0.38977572, 0.45389336), (0.6547997, 0.4676063, 0.36547744), (0.6547997, 0.38977572, 0.45389336), (-0.44049495, 0.4676063, 0.36547738), (0.7041313, 0.51694167, 0.344981), (0.7041313, 0.48379064, 0.38264072), (-0.48982656, 0.51694167, 0.34498096), (-0.48982656, 0.48379064, 0.38264066), (0.6547997, 0.41910774, 0.40124947), (-0.44049495, 0.41910774, 0.4012494), (0.538926, 0.51694167, 0.34498098), (0.5011687, 0.38977572, 0.45389336), (0.49394852, 0.51694167, 0.34498098), (0.45934233, 0.38977572, 0.45389336), (0.6547997, 0.06683427, 0.086147845), (-0.44049495, 0.1032683, 0.04475856), (-0.44049495, 0.06683427, 0.0861478), (0.6547997, 0.1032683, 0.044758588), (-0.48982656, 0.13182664, 0.005972542), (-0.48982656, 0.09867559, 0.04363224), (0.7041313, 0.13182662, 0.005972594), (0.7041313, 0.09867557, 0.04363229), (-0.44049495, 0.08505132, 0.06545319), (0.6547997, 0.0850513, 0.06545323), (0.5011687, 0.06683427, 0.086147845), (0.538926, 0.13182664, 0.0059725717), (0.49394852, 0.13182664, 0.0059725717), (0.45934233, 0.06683427, 0.086147845), (0.3978574, 0.5289542, 0.41948062), (0.3978574, 0.13933867, 0.20141804), (0.3978574, 0.28729045, 0.36367786), (0.42783138, 0.22516048, 0.08813233), (0.42783138, 0.5841551, 0.4041475), (0.42783138, 0.5510041, 0.4418072), (0.3978574, 0.47471902, 0.45020288), (0.3978574, 0.45112354, 0.5078966), (0.42783138, 0.40465778, 0.24613991), (0.42783138, 0.51694167, 0.34498098), (0.3978574, 0.38977572, 0.45389336), (0.42783138, 0.13182664, 0.0059725717), (0.3978574, 0.06683427, 0.08614783), (0.34538493, 0.5289542, 0.41948062), (0.34538493, 0.13933867, 0.20141804), (0.34538493, 0.28729045, 0.36367786), (0.37140566, 0.22516048, 0.08813233), (0.37140566, 0.5841551, 0.4041475), (0.37140566, 0.5510041, 0.4418072), (0.34538493, 0.47471902, 0.45020288), (0.37140566, 0.51694167, 0.34498098), (0.34538493, 0.38977572, 0.45389336), (0.37140566, 0.13182664, 0.005972542), (0.34538493, 0.06683427, 0.08614783), (0.34538493, 0.45112354, 0.5078966), (0.37140566, 0.40465778, 0.24613991), (0.29173678, 0.5289542, 0.41948062), (0.29173678, 0.13933867, 0.20141804), (0.29173678, 0.28729045, 0.36367786), (0.31371573, 0.22516048, 0.08813233), (0.31371573, 0.5841551, 0.4041475), (0.31371573, 0.5510041, 0.4418072), (0.29173678, 0.47471902, 0.45020288), (0.31371573, 0.51694167, 0.34498098), (0.29173678, 0.38977572, 0.45389336), (0.31371573, 0.13182664, 0.005972542), (0.29173678, 0.06683427, 0.08614783), (0.29173678, 0.45112354, 0.5078966), (0.31371573, 0.40465778, 0.24613991), (0.24398482, 0.5289542, 0.41948062), (0.24398482, 0.13933867, 0.20141804), (0.24398482, 0.28729045, 0.36367786), (0.26236624, 0.22516048, 0.08813233), (0.26236624, 0.5841551, 0.4041475), (0.26236624, 0.5510041, 0.4418072), (0.24398482, 0.47471902, 0.45020282), (0.26236624, 0.51694167, 0.34498098), (0.24398482, 0.38977572, 0.45389336), (0.26236624, 0.13182664, 0.005972542), (0.24398482, 0.06683427, 0.086147815), (0.24398482, 0.45112354, 0.50789654), (0.26236624, 0.40465778, 0.24613991), (-0.05948336, 0.5289542, 0.41948062), (-0.05948336, 0.13933867, 0.20141803), (-0.05948336, 0.28729045, 0.36367786), (-0.06396475, 0.22516048, 0.08813233), (-0.06396475, 0.5841551, 0.4041475), (-0.06396475, 0.5510041, 0.4418072), (-0.05948336, 0.47471902, 0.45020282), (-0.06396475, 0.51694167, 0.34498096), (-0.05948336, 0.38977572, 0.45389336), (-0.06396475, 0.13182664, 0.005972542), (-0.05948336, 0.06683427, 0.086147815), (-0.05948336, 0.45112354, 0.50789654), (-0.06396477, 0.40465778, 0.24613988), (-0.09821304, 0.5289542, 0.41948062), (-0.09821304, 0.13933867, 0.20141803), (-0.09821304, 0.28729045, 0.36367786), (-0.10561229, 0.22516048, 0.0881323), (-0.10561229, 0.5841551, 0.4041475), (-0.10561229, 0.5510041, 0.4418072), (-0.09821304, 0.47471902, 0.45020282), (-0.10561229, 0.51694167, 0.34498096), (-0.09821304, 0.38977572, 0.45389336), (-0.10561229, 0.13182664, 0.005972542), (-0.09821304, 0.06683427, 0.086147815), (-0.09821304, 0.45112354, 0.50789654), (-0.10561229, 0.40465778, 0.24613988), (-0.16600245, 0.5289542, 0.41948062), (-0.16600245, 0.13933867, 0.20141803), (-0.16600245, 0.28729045, 0.3636778), (-0.17850882, 0.22516048, 0.0881323), (-0.17850882, 0.5841551, 0.4041475), (-0.17850882, 0.5510041, 0.4418072), (-0.16600245, 0.47471902, 0.45020282), (-0.17850882, 0.51694167, 0.34498096), (-0.16600245, 0.38977572, 0.45389336), (-0.17850882, 0.13182664, 0.005972542), (-0.16600245, 0.06683427, 0.086147815), (-0.16600245, 0.45112354, 0.50789654), (-0.17850885, 0.40465778, 0.24613988), (-0.20156159, 0.5289542, 0.41948062), (-0.20156159, 0.13933867, 0.20141803), (-0.20156159, 0.28729045, 0.3636778), (-0.21674696, 0.22516048, 0.0881323), (-0.21674696, 0.5841551, 0.4041475), (-0.21674696, 0.5510041, 0.4418072), (-0.20156159, 0.47471902, 0.45020282), (-0.21674696, 0.51694167, 0.34498096), (-0.20156159, 0.38977572, 0.45389336), (-0.21674696, 0.13182664, 0.005972542), (-0.20156159, 0.06683427, 0.086147815), (-0.20156163, 0.45112354, 0.50789654), (-0.21674696, 0.40465778, 0.24613988), (-0.24943624, 0.5289542, 0.41948062), (-0.24943624, 0.13933867, 0.20141803), (-0.24943624, 0.28729045, 0.3636778), (-0.26822844, 0.22516048, 0.0881323), (-0.26822844, 0.5841551, 0.4041475), (-0.26822844, 0.5510041, 0.4418072), (-0.24943624, 0.47471902, 0.45020282), (-0.26822844, 0.51694167, 0.34498096), (-0.24943624, 0.38977572, 0.45389336), (-0.26822844, 0.13182664, 0.005972542), (-0.24943624, 0.06683427, 0.0861478), (-0.24943629, 0.45112354, 0.50789654), (-0.26822844, 0.40465778, 0.24613988), (-0.2909657, 0.5289542, 0.41948062), (-0.2909657, 0.13933867, 0.20141803), (-0.2909657, 0.28729045, 0.3636778), (-0.31288666, 0.22516048, 0.0881323), (-0.31288666, 0.5841551, 0.4041475), (-0.31288666, 0.5510041, 0.4418072), (-0.2909657, 0.47471902, 0.45020282), (-0.31288666, 0.51694167, 0.34498096), (-0.2909657, 0.38977572, 0.45389336), (-0.31288666, 0.13182664, 0.005972542), (-0.2909657, 0.06683427, 0.0861478), (-0.2909657, 0.45112354, 0.50789654), (-0.31288666, 0.40465778, 0.24613988), (-0.44049495, -0.26343754, 0.6347004), (0.6547997, -0.26343757, 0.63470036), (-0.44049495, -0.3643436, 0.5739308), (0.6547997, -0.3643436, 0.57393074), (-0.44049495, -7.2426873e-9, 0.070113696), (0.6547997, -7.2426873e-9, 0.070113696), (0.6547997, -1.2002076e-8, 0.04090078), (-0.44049495, -1.2002076e-8, 0.04090078), (-0.44049495, -0.058817323, 0.24834636), (-0.44049495, -0.15083255, 0.4477234), (0.6547997, -0.13913366, 0.19997662), (0.6547997, -0.25173867, 0.38695365), (0.6547997, -0.1508326, 0.44772333), (0.6547997, -0.058817346, 0.2483463), (-0.44049495, -0.25173867, 0.3869537), (-0.44049495, -0.13913365, 0.19997665), (-0.48982656, -0.37861764, 0.6018758), (-0.48982656, -0.42159745, 0.5759917), (0.7041313, -0.37861773, 0.6018758), (0.7041313, -0.42159745, 0.5759917), (0.7041313, -0.29822618, 0.3711375), (0.7041313, -0.2552464, 0.3970216), (-0.48982656, -0.17485487, 0.16628343), (-0.48982656, -1.981949e-8, -0.0070821643), (-0.48982656, -0.13187514, 0.19216754), (-0.48982656, -1.1645409e-8, 0.043089986), (0.7041313, -1.1645409e-8, 0.043089986), (0.7041313, -1.981949e-8, -0.0070821643), (0.7041313, -0.17485489, 0.16628337), (0.7041313, -0.13187514, 0.19216748), (-0.48982656, -0.29822615, 0.37113756), (-0.48982656, -0.2552464, 0.3970217), (-0.44049495, -0.30336103, 0.58683157), (0.6547997, -0.30336103, 0.5868315), (-0.44049495, -9.622381e-9, 0.05550724), (0.6547997, -9.622381e-9, 0.05550724), (0.6547997, -0.20128563, 0.4173385), (0.6547997, -0.09897549, 0.22416143), (-0.44049495, -0.09897549, 0.22416149), (-0.44049495, -0.20128562, 0.41733855), (0.5011687, -0.26343757, 0.63470036), (0.5011687, -0.3643436, 0.57393074), (0.5011687, -7.2426873e-9, 0.070113696), (0.538926, -1.981949e-8, -0.0070821643), (0.5011687, -0.058817346, 0.2483463), (0.5011687, -0.1508326, 0.44772333), (0.538926, -0.17485489, 0.16628337), (0.538926, -0.29822618, 0.3711375), (0.538926, -0.42159745, 0.5759917), (0.538926, -0.37861773, 0.6018758), (0.5011687, -0.30336103, 0.5868315), (0.45934233, -0.3643436, 0.57393074), (0.45934233, -7.2426873e-9, 0.070113696), (0.49394852, -1.981949e-8, -0.0070821643), (0.45934233, -0.058817346, 0.2483463), (0.45934233, -0.1508326, 0.44772333), (0.49394852, -0.17485489, 0.16628337), (0.49394852, -0.42159745, 0.5759917), (0.49394852, -0.37861773, 0.6018758), (0.45934233, -0.30336103, 0.5868315), (0.45934233, -0.26343757, 0.63470036), (0.49394852, -0.29822618, 0.3711375), (-0.44049495, -0.22127223, 0.56468624), (0.6547997, -0.32217827, 0.5039165), (0.6547997, -0.22127225, 0.5646861), (-0.44049495, -0.32217827, 0.50391656), (0.7041313, -0.37540066, 0.49928325), (0.7041313, -0.3324209, 0.5251674), (-0.48982656, -0.3754006, 0.49928337), (-0.48982656, -0.3324209, 0.52516747), (0.6547997, -0.26513854, 0.52336425), (-0.44049495, -0.26513854, 0.5233643), (0.538926, -0.37540063, 0.4992833), (0.5011687, -0.22127225, 0.5646861), (0.49394852, -0.37540063, 0.4992833), (0.45934233, -0.22127225, 0.5646861), (0.6547997, -0.02452706, 0.11655745), (-0.44049495, -0.07176314, 0.08811006), (-0.44049495, -0.02452704, 0.11655754), (0.6547997, -0.07176317, 0.08810997), (-0.48982656, -0.11070505, 0.059764683), (-0.48982656, -0.0677253, 0.08564879), (0.7041313, -0.110705085, 0.059764627), (0.7041313, -0.06772534, 0.08564873), (-0.44049495, -0.048145078, 0.1023338), (0.6547997, -0.048145097, 0.10233374), (0.5011687, -0.02452706, 0.11655745), (0.538926, -0.110705085, 0.059764627), (0.49394852, -0.110705085, 0.059764627), (0.45934233, -0.02452706, 0.11655745), (0.3978574, -0.3643436, 0.57393074), (0.3978574, -7.2426873e-9, 0.070113696), (0.42783138, -1.981949e-8, -0.0070821643), (0.3978574, -0.058817346, 0.2483463), (0.3978574, -0.1508326, 0.44772333), (0.42783138, -0.17485489, 0.16628337), (0.42783138, -0.42159745, 0.5759917), (0.42783138, -0.37861773, 0.6018758), (0.3978574, -0.30336103, 0.5868315), (0.3978574, -0.26343754, 0.6347004), (0.42783138, -0.29822618, 0.3711375), (0.42783138, -0.37540063, 0.4992833), (0.3978574, -0.22127225, 0.5646862), (0.42783138, -0.110705085, 0.059764627), (0.3978574, -0.02452706, 0.11655745), (0.34538493, -0.3643436, 0.57393074), (0.34538493, -7.2426873e-9, 0.070113696), (0.37140566, -1.981949e-8, -0.0070821643), (0.34538493, -0.058817346, 0.2483463), (0.34538493, -0.1508326, 0.44772333), (0.37140566, -0.17485489, 0.16628337), (0.37140566, -0.42159745, 0.5759917), (0.37140566, -0.37861773, 0.6018758), (0.34538493, -0.30336103, 0.5868315), (0.37140566, -0.37540063, 0.4992833), (0.34538493, -0.22127225, 0.5646862), (0.37140566, -0.110705085, 0.059764627), (0.34538493, -0.02452706, 0.11655748), (0.34538493, -0.26343754, 0.6347004), (0.37140566, -0.29822618, 0.3711375), (0.29173678, -0.3643436, 0.57393074), (0.29173678, -7.2426873e-9, 0.070113696), (0.31371573, -1.981949e-8, -0.0070821643), (0.29173678, -0.058817346, 0.2483463), (0.29173678, -0.15083255, 0.44772333), (0.31371573, -0.17485487, 0.1662834), (0.31371573, -0.42159745, 0.5759917), (0.31371573, -0.37861773, 0.6018758), (0.29173678, -0.30336103, 0.5868315), (0.31371573, -0.37540063, 0.4992833), (0.29173678, -0.22127225, 0.5646862), (0.31371573, -0.11070505, 0.059764653), (0.29173678, -0.02452704, 0.11655751), (0.29173678, -0.26343754, 0.6347004), (0.31371573, -0.29822618, 0.3711375), (0.24398482, -0.3643436, 0.57393074), (0.24398482, -7.2426873e-9, 0.070113696), (0.26236624, -1.981949e-8, -0.0070821643), (0.24398482, -0.058817346, 0.2483463), (0.24398482, -0.15083255, 0.44772333), (0.26236624, -0.17485487, 0.1662834), (0.26236624, -0.42159745, 0.5759917), (0.26236624, -0.37861773, 0.6018758), (0.24398482, -0.30336103, 0.5868315), (0.26236624, -0.37540063, 0.4992833), (0.24398482, -0.22127225, 0.5646862), (0.26236624, -0.11070505, 0.059764653), (0.24398482, -0.02452704, 0.11655751), (0.24398482, -0.26343754, 0.6347004), (0.26236624, -0.29822618, 0.3711375), (-0.059483375, -0.3643436, 0.57393074), (-0.05948336, -7.2426873e-9, 0.070113696), (-0.06396475, -1.981949e-8, -0.0070821643), (-0.059483375, -0.058817346, 0.24834631), (-0.059483375, -0.15083255, 0.4477234), (-0.063964754, -0.17485487, 0.16628343), (-0.063964754, -0.42159745, 0.5759917), (-0.063964754, -0.37861773, 0.6018758), (-0.059483375, -0.30336103, 0.58683157), (-0.063964754, -0.3754006, 0.4992833), (-0.059483375, -0.22127223, 0.5646862), (-0.063964754, -0.11070505, 0.059764653), (-0.059483375, -0.02452704, 0.11655751), (-0.059483375, -0.26343754, 0.6347004), (-0.06396478, -0.29822615, 0.37113756), (-0.098213054, -0.3643436, 0.57393074), (-0.098213054, -7.2426873e-9, 0.070113696), (-0.105612285, -1.981949e-8, -0.0070821643), (-0.098213054, -0.058817346, 0.24834631), (-0.098213054, -0.15083255, 0.4477234), (-0.10561231, -0.17485487, 0.16628343), (-0.10561231, -0.42159745, 0.5759917), (-0.10561231, -0.37861773, 0.6018758), (-0.098213054, -0.30336103, 0.58683157), (-0.10561231, -0.3754006, 0.4992833), (-0.098213054, -0.22127223, 0.5646862), (-0.10561231, -0.11070505, 0.059764653), (-0.098213054, -0.02452704, 0.11655751), (-0.098213054, -0.26343754, 0.6347004), (-0.10561231, -0.29822615, 0.37113756), (-0.16600245, -0.3643436, 0.57393074), (-0.16600245, -7.2426873e-9, 0.070113696), (-0.17850883, -1.981949e-8, -0.0070821643), (-0.16600245, -0.058817346, 0.24834631), (-0.16600245, -0.15083255, 0.4477234), (-0.17850882, -0.17485487, 0.16628343), (-0.17850882, -0.42159745, 0.5759917), (-0.17850882, -0.37861764, 0.6018758), (-0.16600245, -0.30336103, 0.58683157), (-0.17850882, -0.3754006, 0.4992833), (-0.16600245, -0.22127223, 0.5646862), (-0.17850882, -0.11070505, 0.059764653), (-0.16600245, -0.02452704, 0.11655751), (-0.16600245, -0.26343754, 0.6347004), (-0.17850885, -0.29822615, 0.37113756), (-0.20156159, -0.3643436, 0.57393074), (-0.20156161, -7.2426873e-9, 0.070113696), (-0.21674697, -1.981949e-8, -0.0070821643), (-0.20156159, -0.058817346, 0.24834631), (-0.20156159, -0.15083255, 0.4477234), (-0.21674696, -0.17485487, 0.16628343), (-0.21674696, -0.42159745, 0.5759917), (-0.21674696, -0.37861764, 0.6018758), (-0.20156159, -0.30336103, 0.58683157), (-0.21674696, -0.3754006, 0.4992833), (-0.20156159, -0.22127223, 0.5646862), (-0.21674696, -0.11070505, 0.059764653), (-0.20156159, -0.02452704, 0.11655754), (-0.20156163, -0.26343754, 0.6347004), (-0.21674696, -0.29822615, 0.37113756), (-0.24943624, -0.3643436, 0.5739308), (-0.24943627, -7.2426873e-9, 0.070113696), (-0.26822844, -1.981949e-8, -0.0070821643), (-0.24943624, -0.058817323, 0.24834634), (-0.24943624, -0.15083255, 0.4477234), (-0.26822844, -0.17485487, 0.16628343), (-0.26822844, -0.42159745, 0.5759917), (-0.26822844, -0.37861764, 0.6018758), (-0.24943624, -0.30336103, 0.58683157), (-0.26822844, -0.3754006, 0.49928337), (-0.24943624, -0.22127223, 0.5646862), (-0.26822844, -0.11070505, 0.059764653), (-0.24943624, -0.02452704, 0.11655754), (-0.24943629, -0.26343754, 0.6347004), (-0.26822844, -0.29822615, 0.37113756), (-0.2909657, -0.3643436, 0.5739308), (-0.2909657, -7.2426873e-9, 0.070113696), (-0.31288666, -1.981949e-8, -0.0070821643), (-0.2909657, -0.058817323, 0.24834634), (-0.2909657, -0.15083255, 0.4477234), (-0.31288666, -0.17485487, 0.16628343), (-0.31288666, -0.42159745, 0.5759917), (-0.31288666, -0.37861764, 0.6018758), (-0.2909657, -0.30336103, 0.58683157), (-0.31288666, -0.3754006, 0.49928337), (-0.2909657, -0.22127223, 0.5646862), (-0.31288666, -0.11070505, 0.059764653), (-0.2909657, -0.02452704, 0.11655754), (-0.2909657, -0.26343754, 0.6347004), (-0.31288666, -0.29822615, 0.37113756)]
            uniform token subdivisionScheme = "none"
            uniform token subsetFamily:materialBind:familyType = "nonOverlapping"
            custom string userProperties:blender:data_name = "Cube.023"

            def GeomSubset "Cover" (
                prepend apiSchemas = ["MaterialBindingAPI"]
            )
            {
                uniform token elementType = "face"
                uniform token familyName = "materialBind"
                int[] indices = [0, 1, 6, 7, 8, 15, 16, 17, 18, 19, 20, 21, 22, 23, 24, 25, 26, 35, 36, 37, 40, 43, 44, 46, 47, 48, 49, 55, 57, 60, 61, 62, 63, 65, 69, 70, 74, 75, 76, 79, 81, 83, 85, 87, 88, 89, 90, 92, 96, 98, 99, 100, 101, 103, 104, 110, 111, 113, 114, 115, 116, 118, 124, 126, 127, 128, 129, 131, 132, 138, 139, 141, 142, 143, 144, 146, 152, 154, 155, 156, 157, 159, 160, 166, 167, 169, 170, 171, 172, 174, 180, 182, 183, 184, 185, 187, 188, 194, 195, 197, 198, 199, 200, 202, 208, 210, 211, 212, 213, 215, 216, 222, 223, 228, 229, 230, 237, 238, 239, 240, 241, 242, 243, 244, 245, 246, 247, 248, 257, 258, 259, 262, 265, 266, 268, 269, 270, 271, 277, 279, 282, 283, 284, 285, 287, 291, 292, 296, 297, 298, 301, 303, 305, 307, 309, 310, 311, 312, 314, 318, 320, 321, 322, 323, 325, 326, 332, 333, 335, 336, 337, 338, 340, 346, 348, 349, 350, 351, 353, 354, 360, 361, 363, 364, 365, 366, 368, 374, 376, 377, 378, 379, 381, 382, 388, 389, 391, 392, 393, 394, 396, 402, 404, 405, 406, 407, 409, 410, 416, 417, 419, 420, 421, 422, 424, 430, 432, 433, 434, 435, 437, 438]
                rel material:binding = </root/_materials/Cover>
            }

            def GeomSubset "Paper" (
                prepend apiSchemas = ["MaterialBindingAPI"]
            )
            {
                uniform token elementType = "face"
                uniform token familyName = "materialBind"
                int[] indices = [2, 3, 4, 5, 9, 10, 11, 12, 13, 14, 27, 28, 29, 30, 31, 32, 33, 34, 38, 39, 41, 42, 45, 50, 53, 56, 58, 59, 64, 66, 67, 68, 71, 72, 73, 77, 78, 80, 82, 84, 86, 91, 93, 94, 95, 97, 102, 105, 108, 109, 112, 117, 119, 120, 121, 122, 123, 125, 130, 133, 137, 140, 145, 147, 148, 149, 150, 151, 153, 158, 161, 165, 168, 173, 175, 176, 177, 178, 179, 181, 186, 189, 192, 193, 196, 201, 203, 204, 205, 206, 207, 209, 214, 217, 221, 224, 225, 226, 227, 231, 232, 233, 234, 235, 236, 249, 250, 251, 252, 253, 254, 255, 256, 260, 261, 263, 264, 267, 272, 275, 278, 280, 281, 286, 288, 289, 290, 293, 294, 295, 299, 300, 302, 304, 306, 308, 313, 315, 316, 317, 319, 324, 327, 330, 331, 334, 339, 341, 342, 343, 344, 345, 347, 352, 355, 359, 362, 367, 369, 370, 371, 372, 373, 375, 380, 383, 387, 390, 395, 397, 398, 399, 400, 401, 403, 408, 411, 414, 415, 418, 423, 425, 426, 427, 428, 429, 431, 436, 439, 443]
                rel material:binding = </root/_materials/Paper>
            }

            def GeomSubset "Ink" (
                prepend apiSchemas = ["MaterialBindingAPI"]
            )
            {
                uniform token elementType = "face"
                uniform token familyName = "materialBind"
                int[] indices = [51, 52, 54, 106, 107, 134, 135, 136, 162, 163, 164, 190, 191, 218, 219, 220, 273, 274, 276, 328, 329, 356, 357, 358, 384, 385, 386, 412, 413, 440, 441, 442]
                rel material:binding = </root/_materials/Ink>
            }
        }
    }

    def Scope "_materials"
    {
        def Material "Cover"
        {
            token outputs:surface.connect = </root/_materials/Cover/Principled_BSDF.outputs:surface>
            custom string userProperties:blender:data_name = "Cover"

            def Shader "Principled_BSDF"
            {
                uniform token info:id = "UsdPreviewSurface"
                float inputs:clearcoat = 0
                float inputs:clearcoatRoughness = 0.03
                color3f inputs:diffuseColor = (0.49692413, 0.036507085, 0.061983198)
                float inputs:ior = 1.5
                float inputs:metallic = 0
                float inputs:opacity = 1
                float inputs:roughness = 0.6900348
                float inputs:specular = 0.5
                token outputs:surface
            }
        }

        def Material "Paper"
        {
            token outputs:surface.connect = </root/_materials/Paper/Principled_BSDF.outputs:surface>
            custom string userProperties:blender:data_name = "Paper"

            def Shader "Principled_BSDF"
            {
                uniform token info:id = "UsdPreviewSurface"
                float inputs:clearcoat = 0
                float inputs:clearcoatRoughness = 0.03
                color3f inputs:diffuseColor = (0.7230443, 0.645427, 0.48817536)
                float inputs:ior = 1.5
                float inputs:metallic = 0
                float inputs:opacity = 1
                float inputs:roughness = 0.6900348
                float inputs:specular = 0.5
                token outputs:surface
            }
        }

        def Material "Ink"
        {
            token outputs:surface.connect = </root/_materials/Ink/Principled_BSDF.outputs:surface>
            custom string userProperties:blender:data_name = "Ink"

            def Shader "Principled_BSDF"
            {
                uniform token info:id = "UsdPreviewSurface"
                float inputs:clearcoat = 0
                float inputs:clearcoatRoughness = 0.03
                color3f inputs:diffuseColor = (0.14731458, 0.10422985, 0.04723561)
                float inputs:ior = 1.5
                float inputs:metallic = 0
                float inputs:opacity = 1
                float inputs:roughness = 0.6900348
                float inputs:specular = 0.5
                token outputs:surface
            }
        }
    }
}

