#usda 1.0
(
    defaultPrim = "root"
    doc = "Blender v5.1.2"
    metersPerUnit = 1
    upAxis = "Y"
)

def Xform "root" (
    customData = {
        dictionary Blender = {
            bool generated = 1
        }
    }
)
{
    float3 xformOp:rotateXYZ = (-90, -0, 0)
    uniform token[] xformOpOrder = ["xformOp:rotateXYZ"]

    def Xform "Potion6"
    {
        custom string userProperties:blender:object_name = "Potion6"

        def Mesh "Cylinder_017" (
            active = true
            prepend apiSchemas = ["MaterialBindingAPI"]
        )
        {
            uniform bool doubleSided = 1
            float3[] extent = [(-0.3657897, -0.33804056, 0.0061696274), (0.36578974, 0.37519673, 0.99480915)]
            int[] faceVertexCounts = [4, 4, 4, 4, 4, 4, 4, 4, 4, 7, 4, 4, 4, 4, 4, 4, 4, 4, 4, 4, 4, 4, 4, 4, 4, 4, 4, 4, 4, 4, 4, 4, 4, 4, 4, 4, 4, 4, 4, 4, 4, 4, 4, 4, 4, 4, 4, 4, 4, 4, 4, 4, 4, 4, 4, 4, 4, 3, 3, 3, 3, 3, 3, 3, 4, 4, 4, 4, 4, 4, 4, 4, 4, 4, 4, 4, 4, 4, 4, 4, 4, 4, 4, 4, 4, 4, 4, 4, 4, 4, 4, 4, 4, 4, 4, 4, 4, 4, 4, 4, 4, 4, 4, 4, 4, 4, 4, 4, 4, 4, 4, 4, 4, 4, 4, 4, 4, 4, 4, 4, 4, 4, 4, 4, 4, 4, 4, 4, 4, 4, 4, 4, 4, 4, 4, 4, 4, 4, 4, 4, 4, 4, 4, 4, 4, 4, 4, 4]
            int[] faceVertexIndices = [3, 2, 65, 66, 2, 3, 72, 73, 5, 7, 79, 76, 9, 8, 82, 83, 9, 11, 87, 84, 7, 5, 23, 24, 0, 12, 71, 68, 11, 13, 91, 88, 122, 121, 14, 20, 14, 15, 16, 17, 18, 19, 20, 126, 125, 16, 15, 130, 129, 19, 18, 121, 126, 15, 14, 125, 133, 17, 16, 129, 122, 20, 19, 133, 130, 18, 17, 22, 27, 34, 29, 13, 11, 26, 27, 9, 7, 24, 25, 1, 13, 27, 22, 5, 3, 21, 23, 11, 9, 25, 26, 3, 1, 22, 21, 32, 31, 38, 39, 26, 25, 32, 33, 24, 23, 30, 31, 21, 22, 29, 28, 27, 26, 33, 34, 25, 24, 31, 32, 23, 21, 28, 30, 35, 36, 43, 42, 30, 28, 35, 37, 29, 34, 41, 36, 33, 32, 39, 40, 31, 30, 37, 38, 28, 29, 36, 35, 34, 33, 40, 41, 43, 48, 55, 50, 41, 40, 47, 48, 39, 38, 45, 46, 37, 35, 42, 44, 36, 41, 48, 43, 40, 39, 46, 47, 38, 37, 44, 45, 55, 54, 61, 62, 47, 46, 53, 54, 45, 44, 51, 52, 42, 43, 50, 49, 48, 47, 54, 55, 46, 45, 52, 53, 44, 42, 49, 51, 53, 52, 59, 60, 51, 49, 56, 58, 50, 55, 62, 57, 54, 53, 60, 61, 52, 51, 58, 59, 49, 50, 57, 56, 59, 58, 63, 56, 57, 63, 62, 61, 63, 60, 59, 63, 58, 56, 63, 57, 62, 63, 61, 60, 63, 66, 65, 109, 110, 1, 3, 66, 67, 0, 1, 67, 64, 2, 0, 64, 65, 71, 70, 114, 115, 1, 0, 68, 69, 13, 1, 69, 70, 12, 13, 70, 71, 72, 75, 107, 104, 5, 4, 74, 75, 4, 2, 73, 74, 3, 5, 75, 72, 79, 78, 102, 103, 4, 5, 76, 77, 7, 6, 78, 79, 6, 4, 77, 78, 80, 83, 99, 96, 8, 6, 81, 82, 7, 9, 83, 80, 6, 7, 80, 81, 84, 87, 95, 92, 8, 9, 84, 85, 11, 10, 86, 87, 10, 8, 85, 86, 91, 90, 118, 119, 10, 11, 88, 89, 13, 12, 90, 91, 12, 10, 89, 90, 93, 92, 95, 94, 85, 84, 92, 93, 87, 86, 94, 95, 86, 85, 93, 94, 97, 96, 99, 98, 81, 80, 96, 97, 83, 82, 98, 99, 82, 81, 97, 98, 101, 100, 103, 102, 78, 77, 101, 102, 76, 79, 103, 100, 77, 76, 100, 101, 105, 104, 107, 106, 73, 72, 104, 105, 75, 74, 106, 107, 74, 73, 105, 106, 108, 111, 110, 109, 67, 66, 110, 111, 64, 67, 111, 108, 65, 64, 108, 109, 115, 114, 113, 112, 68, 71, 115, 112, 69, 68, 112, 113, 70, 69, 113, 114, 117, 116, 119, 118, 90, 89, 117, 118, 88, 91, 119, 116, 89, 88, 116, 117, 6, 8, 131, 132, 131, 128, 142, 145, 10, 12, 123, 128, 132, 131, 145, 146, 4, 6, 132, 124, 126, 121, 135, 140, 0, 2, 127, 120, 120, 127, 141, 134, 8, 10, 128, 131, 121, 122, 136, 135, 2, 4, 124, 127, 133, 125, 139, 147, 12, 0, 120, 123, 123, 120, 134, 137, 146, 145, 144, 147, 142, 137, 136, 143, 138, 146, 147, 139, 134, 141, 140, 135, 145, 142, 143, 144, 141, 138, 139, 140, 137, 134, 135, 136, 130, 133, 147, 144, 129, 130, 144, 143, 128, 123, 137, 142, 127, 124, 138, 141, 122, 129, 143, 136, 125, 126, 140, 139, 124, 132, 146, 138]
            rel material:binding = </root/_materials/Cork>
            normal3f[] normals = [(0.39056528, 0.81101745, 0.43555653), (0.39056534, 0.8110175, 0.4355565), (0.3905652, 0.8110175, 0.4355564), (0.39056516, 0.81101745, 0.43555644), (0.8775924, 0.2003045, 0.43555677), (0.8775924, 0.20030478, 0.43555656), (0.87759256, 0.20030443, 0.43555647), (0.87759256, 0.20030434, 0.4355566), (0.7037742, -0.56124175, 0.43555656), (0.7037742, -0.56124175, 0.43555653), (0.7037745, -0.5612415, 0.43555647), (0.7037744, -0.5612417, 0.43555656), (0, -0.9001613, 0.43555665), (-7.718975e-8, -0.9001613, 0.4355566), (-4.060529e-8, -0.9001613, 0.43555665), (0, -0.9001614, 0.43555668), (-0.7037746, -0.56124145, 0.4355564), (-0.70377463, -0.5612414, 0.4355564), (-0.7037747, -0.5612413, 0.4355564), (-0.7037746, -0.56124145, 0.43555635), (0.7501503, -0.59822476, -0.28178287), (0.7501503, -0.59822476, -0.28178287), (0.7501503, -0.59822476, -0.28178287), (0.7501503, -0.59822476, -0.28178287), (-0.39056534, 0.81101733, 0.43555662), (-0.39056537, 0.81101733, 0.43555662), (-0.3905654, 0.81101733, 0.43555656), (-0.39056534, 0.8110174, 0.4355566), (-0.87759244, 0.20030482, 0.43555662), (-0.8775924, 0.20030475, 0.43555653), (-0.8775925, 0.20030446, 0.43555647), (-0.87759244, 0.20030473, 0.43555653), (-0.3856771, 0.80086654, -0.45811138), (-0.3856771, 0.80086654, -0.45811138), (-0.3856771, 0.80086654, -0.45811138), (-0.3856771, 0.80086654, -0.45811138), (4.7930193e-10, 0, -1), (4.7930193e-10, 0, -1), (4.7930193e-10, 0, -1), (4.7930193e-10, 0, -1), (4.7930193e-10, 0, -1), (4.7930193e-10, 0, -1), (4.7930193e-10, 0, -1), (0.8666086, 0.19779778, -0.458111), (0.8666086, 0.19779778, -0.458111), (0.8666086, 0.19779778, -0.458111), (0.8666086, 0.19779778, -0.458111), (-0.69496614, -0.554217, -0.45811102), (-0.69496614, -0.554217, -0.45811102), (-0.69496614, -0.554217, -0.45811102), (-0.69496614, -0.554217, -0.45811102), (0.38567695, 0.80086637, -0.45811185), (0.38567695, 0.80086637, -0.45811185), (0.38567695, 0.80086637, -0.45811185), (0.38567695, 0.80086637, -0.45811185), (0.694966, -0.5542172, -0.4581108), (0.694966, -0.5542172, -0.4581108), (0.694966, -0.5542172, -0.4581108), (0.694966, -0.5542172, -0.4581108), (-0.8666085, 0.19779763, -0.4581112), (-0.8666085, 0.19779763, -0.4581112), (-0.8666085, 0.19779763, -0.4581112), (-0.8666085, 0.19779763, -0.4581112), (-4.639038e-8, -0.88889456, -0.45811167), (-4.639038e-8, -0.88889456, -0.45811167), (-4.639038e-8, -0.88889456, -0.45811167), (-4.639038e-8, -0.88889456, -0.45811167), (-2.0265758e-13, 0, 1), (-3.4273054e-7, 0, 1), (-3.4273032e-7, 0, 1), (-1.4072711e-13, 0, 1), (-0.935422, 0.21350393, -0.28178304), (-0.935422, 0.21350393, -0.28178304), (-0.935422, 0.21350393, -0.28178304), (-0.935422, 0.21350393, -0.28178304), (0, -0.95947826, -0.2817829), (0, -0.95947826, -0.2817829), (0, -0.95947826, -0.2817829), (0, -0.95947826, -0.2817829), (-0.41630232, 0.86445975, -0.28178298), (-0.41630232, 0.86445975, -0.28178298), (-0.41630232, 0.86445975, -0.28178298), (-0.41630232, 0.86445975, -0.28178298), (0.935422, 0.21350393, -0.28178304), (0.935422, 0.21350393, -0.28178304), (0.935422, 0.21350393, -0.28178304), (0.935422, 0.21350393, -0.28178304), (-0.7501501, -0.59822506, -0.281783), (-0.7501501, -0.59822506, -0.281783), (-0.7501501, -0.59822506, -0.281783), (-0.7501501, -0.59822506, -0.281783), (0.41630232, 0.86445975, -0.2817829), (0.41630232, 0.86445975, -0.2817829), (0.41630232, 0.86445975, -0.2817829), (0.41630232, 0.86445975, -0.2817829), (0, 0.99999994, 0), (0, 0.99999994, 0), (0, 0.99999994, 0), (0, 0.99999994, 0), (-6.854607e-7, 0, 1), (0, 0, 1), (0, 0, 1), (-6.854607e-7, 0, 1), (-6.8546075e-7, 0, 1), (-6.854607e-7, 0, 1), (-6.854607e-7, 0, 1), (-6.8546063e-7, 0, 1), (-3.4273043e-7, 0, 1), (-2.0265758e-13, 0, 1), (-1.4072711e-13, 0, 1), (-3.4273043e-7, 0, 1), (-3.4273054e-7, 0, 1), (-6.854607e-7, 0, 1), (-6.854607e-7, 0, 1), (-3.4273032e-7, 0, 1), (0, 0, 1), (-6.8546075e-7, 0, 1), (-6.8546063e-7, 0, 1), (0, 0, 1), (-6.854607e-7, 0, 1), (-3.4273043e-7, 0, 1), (-3.4273043e-7, 0, 1), (-6.854607e-7, 0, 1), (2.270228e-7, 0, 1), (2.2702281e-7, 0, 1), (2.270228e-7, 0, 1), (2.270228e-7, 0, 1), (-0.9749279, -0.22252099, 0), (-0.9749279, -0.22252099, 0), (-0.9749279, -0.22252099, 0), (-0.9749279, -0.22252099, 0), (0.4338835, -0.90096897, 0), (0.4338835, -0.90096897, 0), (0.4338835, -0.90096897, 0), (0.4338835, -0.90096897, 0), (0.7818307, 0.62349063, 0), (0.7818307, 0.62349063, 0), (0.7818307, 0.62349063, 0), (0.7818307, 0.62349063, 0), (-0.78183156, 0.6234897, 0), (-0.78183156, 0.6234897, 0), (-0.78183156, 0.6234897, 0), (-0.78183156, 0.6234897, 0), (-0.43388352, -0.9009689, 0), (-0.43388352, -0.9009689, 0), (-0.43388352, -0.9009689, 0), (-0.43388352, -0.9009689, 0), (0.9749279, -0.22252099, 0), (0.9749279, -0.22252099, 0), (0.9749279, -0.22252099, 0), (0.9749279, -0.22252099, 0), (-0.4338841, 0.9009687, -1.7968213e-7), (-0.4338841, 0.9009687, -1.7968213e-7), (-0.4338841, 0.9009687, -1.7968213e-7), (-0.4338841, 0.9009687, -1.7968213e-7), (4.5404568e-7, 0, 1), (0.0000013621374, 0, 1), (0.0000013621373, 0, 1), (4.5404573e-7, 0, 1), (9.080916e-7, 0, 1), (0, 0, 1), (0, 0, 1), (9.0809147e-7, 0, 1), (0, 0, 1), (2.270228e-7, 0, 1), (2.270228e-7, 0, 1), (0, 0, 1), (2.2702281e-7, 0, 1), (4.5404568e-7, 0, 1), (4.5404573e-7, 0, 1), (2.270228e-7, 0, 1), (0.0000013621374, 0, 1), (9.080916e-7, 0, 1), (9.0809147e-7, 0, 1), (0.0000013621373, 0, 1), (0, 0, 1), (0, 0, 1), (0, 0, 1), (0, 0, 1), (-0.86604106, 0.19766814, -0.45923886), (-0.86604106, 0.19766814, -0.45923886), (-0.86604106, 0.19766814, -0.45923886), (-0.86604106, 0.19766814, -0.45923886), (-0.78183144, -0.6234898, -2.823577e-7), (-0.78183144, -0.6234898, -2.823577e-7), (-0.78183144, -0.6234898, -2.823577e-7), (-0.78183144, -0.6234898, -2.823577e-7), (0.78183144, -0.6234898, 2.823577e-7), (0.78183144, -0.6234898, 2.823577e-7), (0.78183144, -0.6234898, 2.823577e-7), (0.78183144, -0.6234898, 2.823577e-7), (0.43388385, 0.90096885, 1.796822e-7), (0.43388385, 0.90096885, 1.796822e-7), (0.43388385, 0.90096885, 1.796822e-7), (0.43388385, 0.90096885, 1.796822e-7), (-0.97492784, 0.22252102, -3.385086e-7), (-0.97492784, 0.22252102, -3.385086e-7), (-0.97492784, 0.22252102, -3.385086e-7), (-0.97492784, 0.22252102, -3.385086e-7), (0, -1, 0), (0, -1, 0), (0, -1, 0), (0, -1, 0), (0.97492796, 0.22252087, 3.3850839e-7), (0.97492796, 0.22252087, 3.3850839e-7), (0.97492796, 0.22252087, 3.3850839e-7), (0.97492796, 0.22252087, 3.3850839e-7), (0, -0.888313, -0.4592385), (0, -0.888313, -0.4592385), (0, -0.888313, -0.4592385), (0, -0.888313, -0.4592385), (0.8660412, 0.19766851, -0.45923835), (0.8660412, 0.19766851, -0.45923835), (0.8660412, 0.19766851, -0.45923835), (0.8660412, 0.19766851, -0.45923835), (-0.3854251, 0.80034196, -0.4592388), (-0.3854251, 0.80034196, -0.4592388), (-0.3854251, 0.80034196, -0.4592388), (-0.3854251, 0.80034196, -0.4592388), (-0.69451046, -0.5538542, -0.45923916), (-0.69451046, -0.5538542, -0.45923916), (-0.69451046, -0.5538542, -0.45923916), (-0.69451046, -0.5538542, -0.45923916), (0.6945112, -0.55385435, -0.45923808), (0.6945112, -0.55385435, -0.45923808), (0.6945112, -0.55385435, -0.45923808), (0.6945112, -0.55385435, -0.45923808), (0.3854249, 0.8003423, -0.45923835), (0.3854249, 0.8003423, -0.45923835), (0.3854249, 0.8003423, -0.45923835), (0.3854249, 0.8003423, -0.45923835), (0.45590377, -0.36357212, 0.81238365), (0.45590377, -0.36357212, 0.81238365), (0.45590377, -0.36357212, 0.81238365), (0.25301015, 0.52537626, 0.81238276), (0.25301015, 0.52537626, 0.81238276), (0.25301015, 0.52537626, 0.81238276), (-0.5685039, 0.12975737, 0.81238306), (-0.5685039, 0.12975737, 0.81238306), (-0.5685039, 0.12975737, 0.81238306), (0, -0.583124, 0.8123832), (0, -0.583124, 0.8123832), (0, -0.583124, 0.8123832), (0.56850463, 0.12975717, 0.8123827), (0.56850463, 0.12975717, 0.8123827), (0.56850463, 0.12975717, 0.8123827), (-0.25300908, 0.5253764, 0.812383), (-0.25300908, 0.5253764, 0.812383), (-0.25300908, 0.5253764, 0.812383), (-0.45590287, -0.36357236, 0.812384), (-0.45590287, -0.36357236, 0.812384), (-0.45590287, -0.36357236, 0.812384), (0.84298515, -0.50520176, 0.18479007), (0.84298515, -0.50520176, 0.18479007), (0.84298515, -0.50520176, 0.18479007), (0.84298515, -0.50520176, 0.18479007), (0.39056534, 0.81101733, 0.43555656), (0.39056528, 0.81101745, 0.43555653), (0.39056516, 0.81101745, 0.43555644), (0.39056528, 0.8110174, 0.43555656), (0.39056534, 0.8110174, 0.4355565), (0.39056534, 0.81101733, 0.43555656), (0.39056528, 0.8110174, 0.43555656), (0.3905653, 0.81101745, 0.4355565), (0.39056534, 0.8110175, 0.4355565), (0.39056534, 0.8110174, 0.4355565), (0.3905653, 0.81101745, 0.4355565), (0.3905652, 0.8110175, 0.4355564), (-0.8429854, -0.505201, 0.18479063), (-0.8429854, -0.505201, 0.18479063), (-0.8429854, -0.505201, 0.18479063), (-0.8429854, -0.505201, 0.18479063), (-0.39056545, 0.81101733, 0.43555644), (-0.39056534, 0.81101733, 0.43555662), (-0.39056534, 0.8110174, 0.4355566), (-0.39056537, 0.8110174, 0.43555647), (-0.39056545, 0.81101733, 0.43555644), (-0.39056545, 0.81101733, 0.43555644), (-0.39056537, 0.8110174, 0.43555647), (-0.39056545, 0.8110174, 0.43555653), (-0.39056537, 0.81101733, 0.43555662), (-0.39056545, 0.81101733, 0.43555644), (-0.39056545, 0.8110174, 0.43555653), (-0.3905654, 0.81101733, 0.43555656), (-0.42463458, -0.09692043, 0.9001623), (-0.42463458, -0.09692043, 0.9001623), (-0.42463458, -0.09692043, 0.9001623), (-0.42463458, -0.09692043, 0.9001623), (0.8775923, 0.20030504, 0.4355566), (0.8775924, 0.20030479, 0.43555674), (0.8775923, 0.20030516, 0.43555656), (0.87759244, 0.20030533, 0.43555644), (0.8775924, 0.20030479, 0.43555674), (0.8775924, 0.2003045, 0.43555677), (0.87759256, 0.20030434, 0.4355566), (0.8775923, 0.20030516, 0.43555656), (0.8775924, 0.20030478, 0.43555656), (0.8775923, 0.20030504, 0.4355566), (0.87759244, 0.20030533, 0.43555644), (0.87759256, 0.20030443, 0.43555647), (-0.6801167, -0.7094319, 0.18479054), (-0.6801167, -0.7094319, 0.18479054), (-0.6801167, -0.7094319, 0.18479054), (-0.6801167, -0.7094319, 0.18479054), (0.7037745, -0.56124145, 0.43555647), (0.7037742, -0.56124175, 0.43555656), (0.7037744, -0.5612417, 0.43555656), (0.70377445, -0.5612415, 0.4355565), (0.7037742, -0.56124175, 0.43555653), (0.7037746, -0.56124145, 0.4355565), (0.70377463, -0.5612414, 0.43555647), (0.7037745, -0.5612415, 0.43555647), (0.7037746, -0.56124145, 0.4355565), (0.7037745, -0.56124145, 0.43555647), (0.70377445, -0.5612415, 0.4355565), (0.70377463, -0.5612414, 0.43555647), (0, 0.43555588, 0.9001617), (0, 0.43555588, 0.9001617), (0, 0.43555588, 0.9001617), (0, 0.43555588, 0.9001617), (-7.718975e-8, -0.9001613, 0.4355566), (-7.718977e-8, -0.90016145, 0.4355566), (-4.0605286e-8, -0.9001614, 0.43555656), (-4.060529e-8, -0.9001613, 0.43555665), (0, -0.9001613, 0.43555665), (0, -0.9001613, 0.43555665), (0, -0.9001614, 0.43555668), (0, -0.9001614, 0.43555668), (-7.718977e-8, -0.90016145, 0.4355566), (0, -0.9001613, 0.43555665), (0, -0.9001614, 0.43555668), (-4.0605286e-8, -0.9001614, 0.43555656), (0.34053162, 0.27156478, 0.9001615), (0.34053162, 0.27156478, 0.9001615), (0.34053162, 0.27156478, 0.9001615), (0.34053162, 0.27156478, 0.9001615), (-0.7037745, -0.5612414, 0.4355566), (-0.7037746, -0.56124145, 0.4355564), (-0.7037746, -0.56124145, 0.43555635), (-0.7037745, -0.56124145, 0.43555647), (-0.70377463, -0.5612414, 0.4355564), (-0.7037746, -0.5612413, 0.43555656), (-0.70377463, -0.5612413, 0.4355565), (-0.7037747, -0.5612413, 0.4355564), (-0.7037746, -0.5612413, 0.43555656), (-0.7037745, -0.5612414, 0.4355566), (-0.7037745, -0.56124145, 0.43555647), (-0.70377463, -0.5612413, 0.4355565), (0.3049526, 0.9342679, 0.1847902), (0.3049526, 0.9342679, 0.1847902), (0.3049526, 0.9342679, 0.1847902), (0.3049526, 0.9342679, 0.1847902), (-0.8775925, 0.20030461, 0.4355565), (-0.87759244, 0.20030482, 0.43555662), (-0.87759244, 0.20030473, 0.43555653), (-0.8775925, 0.20030464, 0.4355565), (-0.8775924, 0.20030475, 0.43555653), (-0.8775925, 0.20030452, 0.4355565), (-0.87759256, 0.2003044, 0.43555647), (-0.8775925, 0.20030446, 0.43555647), (-0.8775925, 0.20030452, 0.4355565), (-0.8775925, 0.20030461, 0.4355565), (-0.8775925, 0.20030464, 0.4355565), (-0.87759256, 0.2003044, 0.43555647), (-0.7037746, -0.56124145, 0.4355565), (-0.7037746, -0.56124145, 0.4355565), (-0.7037746, -0.56124145, 0.4355565), (-0.7037746, -0.56124145, 0.4355565), (0.680117, -0.7094318, 0.1847904), (0.680117, -0.7094318, 0.1847904), (0.680117, -0.7094318, 0.1847904), (0.680117, -0.7094318, 0.1847904), (-0.54030454, 0.82092845, 0.18479034), (-0.54030454, 0.82092845, 0.18479034), (-0.54030454, 0.82092845, 0.18479034), (-0.54030454, 0.82092845, 0.18479034), (-0.3405322, -0.2715654, -0.9001611), (-0.3405322, -0.2715654, -0.9001611), (-0.3405322, -0.2715654, -0.9001611), (-0.3405322, -0.2715654, -0.9001611), (-1.2593381e-7, -0.9001614, 0.43555638), (-1.2593381e-7, -0.9001614, 0.43555638), (-1.2593381e-7, -0.9001614, 0.43555638), (-1.2593381e-7, -0.9001614, 0.43555638), (0.978702, 0.08941334, 0.18479063), (0.978702, 0.08941334, 0.18479063), (0.978702, 0.08941334, 0.18479063), (0.978702, 0.08941334, 0.18479063), (-0.9787021, 0.089413345, 0.18479024), (-0.9787021, 0.089413345, 0.18479024), (-0.9787021, 0.089413345, 0.18479024), (-0.9787021, 0.089413345, 0.18479024), (-8.750914e-8, -0.43555686, -0.9001612), (-8.750914e-8, -0.43555686, -0.9001612), (-8.750914e-8, -0.43555686, -0.9001612), (-8.750914e-8, -0.43555686, -0.9001612), (0.7037744, -0.5612416, 0.43555653), (0.7037744, -0.5612416, 0.43555653), (0.7037744, -0.5612416, 0.43555653), (0.7037744, -0.5612416, 0.43555653), (0.3405322, -0.27156544, -0.9001611), (0.3405322, -0.27156544, -0.9001611), (0.3405322, -0.27156544, -0.9001611), (0.3405322, -0.27156544, -0.9001611), (-0.3405313, 0.2715645, 0.90016174), (-0.3405313, 0.2715645, 0.90016174), (-0.3405313, 0.2715645, 0.90016174), (-0.3405313, 0.2715645, 0.90016174), (0.54030424, 0.82092863, 0.18479002), (0.54030424, 0.82092863, 0.18479002), (0.54030424, 0.82092863, 0.18479002), (0.54030424, 0.82092863, 0.18479002), (0.87759244, 0.20030478, 0.4355565), (0.87759244, 0.20030478, 0.4355565), (0.87759244, 0.20030478, 0.4355565), (0.87759244, 0.20030478, 0.4355565), (-0.30495283, 0.9342678, 0.18479015), (-0.30495283, 0.9342678, 0.18479015), (-0.30495283, 0.9342678, 0.18479015), (-0.30495283, 0.9342678, 0.18479015), (0.13060987, -0.97406036, 0.18479007), (0.13060987, -0.97406036, 0.18479007), (0.13060987, -0.97406036, 0.18479007), (0.13060987, -0.97406036, 0.18479007), (0.42463648, 0.09692048, -0.9001612), (0.42463648, 0.09692048, -0.9001612), (0.42463648, 0.09692048, -0.9001612), (0.42463648, 0.09692048, -0.9001612), (0.39056528, 0.8110174, 0.43555647), (0.39056528, 0.8110174, 0.43555647), (0.39056528, 0.8110174, 0.43555647), (0.39056528, 0.8110174, 0.43555647), (-0.18898134, -0.39242214, 0.9001616), (-0.18898134, -0.39242214, 0.9001616), (-0.18898134, -0.39242214, 0.9001616), (-0.18898134, -0.39242214, 0.9001616), (-0.9205752, 0.344084, 0.18479018), (-0.9205752, 0.344084, 0.18479018), (-0.9205752, 0.344084, 0.18479018), (-0.9205752, 0.344084, 0.18479018), (0.18898107, 0.3924234, -0.900161), (0.18898107, 0.3924234, -0.900161), (0.18898107, 0.3924234, -0.900161), (0.18898107, 0.3924234, -0.900161), (-0.39056554, 0.8110174, 0.43555647), (-0.39056554, 0.8110174, 0.43555647), (-0.39056554, 0.8110174, 0.43555647), (-0.39056554, 0.8110174, 0.43555647), (-0.18898055, 0.39242187, -0.90016186), (-0.18898055, 0.39242187, -0.90016186), (-0.18898055, 0.39242187, -0.90016186), (-0.18898055, 0.39242187, -0.90016186), (0.9205752, 0.34408426, 0.18479028), (0.9205752, 0.34408426, 0.18479028), (0.9205752, 0.34408426, 0.18479028), (0.9205752, 0.34408426, 0.18479028), (0.18898116, -0.39242178, 0.9001617), (0.18898116, -0.39242178, 0.9001617), (0.18898116, -0.39242178, 0.9001617), (0.18898116, -0.39242178, 0.9001617), (-0.87759244, 0.20030463, 0.43555644), (-0.87759244, 0.20030463, 0.43555644), (-0.87759244, 0.20030463, 0.43555644), (-0.87759244, 0.20030463, 0.43555644), (-0.42463648, 0.09692044, -0.9001612), (-0.42463648, 0.09692044, -0.9001612), (-0.42463648, 0.09692044, -0.9001612), (-0.42463648, 0.09692044, -0.9001612), (0.4246346, -0.09692044, 0.9001622), (0.4246346, -0.09692044, 0.9001622), (0.4246346, -0.09692044, 0.9001622), (0.4246346, -0.09692044, 0.9001622), (-0.13060987, -0.97406036, 0.18479013), (-0.13060987, -0.97406036, 0.18479013), (-0.13060987, -0.97406036, 0.18479013), (-0.13060987, -0.97406036, 0.18479013), (-8.420063e-8, -0.8888946, -0.4581118), (-8.420063e-8, -0.8888946, -0.4581118), (-8.420063e-8, -0.8888946, -0.4581118), (-8.420063e-8, -0.8888946, -0.4581118), (-0.04541865, -0.036220115, 0.9983113), (-0.04541865, -0.036220115, 0.9983113), (-0.04541865, -0.036220115, 0.9983113), (-0.04541865, -0.036220115, 0.9983113), (-0.86660874, 0.19779763, -0.45811078), (-0.86660874, 0.19779763, -0.45811078), (-0.86660874, 0.19779763, -0.45811078), (-0.86660874, 0.19779763, -0.45811078), (2.9817184e-9, -0.058092576, 0.9983112), (2.9817184e-9, -0.058092576, 0.9983112), (2.9817184e-9, -0.058092576, 0.9983112), (2.9817184e-9, -0.058092576, 0.9983112), (0.694966, -0.55421704, -0.45811096), (0.694966, -0.55421704, -0.45811096), (0.694966, -0.55421704, -0.45811096), (0.694966, -0.55421704, -0.45811096), (0.027195973, 0.056472942, -0.9980337), (0.027195973, 0.056472942, -0.9980337), (0.027195973, 0.056472942, -0.9980337), (0.027195973, 0.056472942, -0.9980337), (0.38567716, 0.80086696, -0.4581106), (0.38567716, 0.80086696, -0.4581106), (0.38567716, 0.80086696, -0.4581106), (0.38567716, 0.80086696, -0.4581106), (0.025205527, 0.052339666, 0.9983112), (0.025205527, 0.052339666, 0.9983112), (0.025205527, 0.052339666, 0.9983112), (0.025205527, 0.052339666, 0.9983112), (-0.6949661, -0.55421704, -0.45811105), (-0.6949661, -0.55421704, -0.45811105), (-0.6949661, -0.55421704, -0.45811105), (-0.6949661, -0.55421704, -0.45811105), (-0.02719594, 0.05647287, -0.99803364), (-0.02719594, 0.05647287, -0.99803364), (-0.02719594, 0.05647287, -0.99803364), (-0.02719594, 0.05647287, -0.99803364), (0.8666086, 0.19779766, -0.4581109), (0.8666086, 0.19779766, -0.4581109), (0.8666086, 0.19779766, -0.4581109), (0.8666086, 0.19779766, -0.4581109), (0.049005553, -0.039080452, -0.99803364), (0.049005553, -0.039080452, -0.99803364), (0.049005553, -0.039080452, -0.99803364), (0.049005553, -0.039080452, -0.99803364), (-0.38567728, 0.80086696, -0.4581106), (-0.38567728, 0.80086696, -0.4581106), (-0.38567728, 0.80086696, -0.4581106), (-0.38567728, 0.80086696, -0.4581106), (-0.0252055, 0.05233961, 0.9983112), (-0.0252055, 0.05233961, 0.9983112), (-0.0252055, 0.05233961, 0.9983112), (-0.0252055, 0.05233961, 0.9983112), (-3.796211e-8, -0.86145717, -0.50783026), (-3.796211e-8, -0.86145717, -0.50783026), (-3.796211e-8, -0.86145717, -0.50783026), (-3.796211e-8, -0.86145717, -0.50783026), (-0.8398587, 0.19169211, -0.5078301), (-0.8398587, 0.19169211, -0.5078301), (-0.8398587, 0.19169211, -0.5078301), (-0.8398587, 0.19169211, -0.5078301), (0.6735142, -0.5371098, -0.5078305), (0.6735142, -0.5371098, -0.5078305), (0.6735142, -0.5371098, -0.5078305), (0.6735142, -0.5371098, -0.5078305), (0.37377223, 0.77614594, -0.5078305), (0.37377223, 0.77614594, -0.5078305), (0.37377223, 0.77614594, -0.5078305), (0.37377223, 0.77614594, -0.5078305), (-0.6735143, -0.5371097, -0.50783044), (-0.6735143, -0.5371097, -0.50783044), (-0.6735143, -0.5371097, -0.50783044), (-0.6735143, -0.5371097, -0.50783044), (0.8398586, 0.19169223, -0.5078304), (0.8398586, 0.19169223, -0.5078304), (0.8398586, 0.19169223, -0.5078304), (0.8398586, 0.19169223, -0.5078304), (-0.3737723, 0.77614594, -0.5078305), (-0.3737723, 0.77614594, -0.5078305), (-0.3737723, 0.77614594, -0.5078305), (-0.3737723, 0.77614594, -0.5078305), (0, -0.06268014, -0.99803364), (0, -0.06268014, -0.99803364), (0, -0.06268014, -0.99803364), (0, -0.06268014, -0.99803364), (-0.049005277, -0.039080452, -0.9980337), (-0.049005277, -0.039080452, -0.9980337), (-0.049005277, -0.039080452, -0.9980337), (-0.049005277, -0.039080452, -0.9980337), (-0.056635857, 0.01292681, 0.9983112), (-0.056635857, 0.01292681, 0.9983112), (-0.056635857, 0.01292681, 0.9983112), (-0.056635857, 0.01292681, 0.9983112), (0.056636345, 0.0129268095, 0.99831116), (0.056636345, 0.0129268095, 0.99831116), (0.056636345, 0.0129268095, 0.99831116), (0.056636345, 0.0129268095, 0.99831116), (-0.061108682, 0.013947635, -0.99803364), (-0.061108682, 0.013947635, -0.99803364), (-0.061108682, 0.013947635, -0.99803364), (-0.061108682, 0.013947635, -0.99803364), (0.061108537, 0.013947635, -0.99803364), (0.061108537, 0.013947635, -0.99803364), (0.061108537, 0.013947635, -0.99803364), (0.061108537, 0.013947635, -0.99803364), (0.045418397, -0.036220126, 0.9983113), (0.045418397, -0.036220126, 0.9983113), (0.045418397, -0.036220126, 0.9983113), (0.045418397, -0.036220126, 0.9983113)] (
                interpolation = "faceVarying"
            )
            point3f[] points = [(4.9470588e-9, 0.37487426, 0.1406883), (-5.407282e-9, 0.077476345, 0.69445086), (0.29308853, 0.23373027, 0.1406883), (0.060573444, 0.048305713, 0.69445086), (0.3654754, -0.08341737, 0.1406883), (0.07553386, -0.017240116, 0.69445086), (0.16265179, -0.33775008, 0.1406883), (0.033615712, -0.06980378, 0.69445086), (-0.16265185, -0.33775005, 0.1406883), (-0.03361574, -0.06980378, 0.69445086), (-0.36547536, -0.08341739, 0.1406883), (-0.07553387, -0.017240122, 0.69445086), (-0.29308853, 0.23373024, 0.1406883), (-0.06057346, 0.048305705, 0.69445086), (3.128934e-9, 0.29792702, 0.0061696274), (0.23292874, 0.18575443, 0.0061696274), (0.2904574, -0.066295005, 0.0061696274), (0.12926565, -0.268423, 0.0061696274), (-0.1292657, -0.26842296, 0.0061696274), (-0.29045737, -0.06629502, 0.0061696274), (-0.23292874, 0.18575442, 0.0061696274), (0.091561265, 0.07301767, 0.8160437), (-3.4744845e-9, 0.117111266, 0.8160437), (0.11417503, -0.026059711, 0.8160437), (0.05081265, -0.10551359, 0.8160437), (-0.050812677, -0.10551359, 0.8160437), (-0.114175044, -0.026059719, 0.8160437), (-0.09156128, 0.07301766, 0.8160437), (0.0642995, 0.051277142, 0.8160437), (-4.477571e-9, 0.08224217, 0.8160437), (0.08018017, -0.018300604, 0.8160437), (0.035683516, -0.07409762, 0.8160437), (-0.03568354, -0.07409762, 0.8160437), (-0.08018018, -0.01830061, 0.8160437), (-0.06429952, 0.051277135, 0.8160437), (0.0642995, 0.051277142, 0.7910457), (-4.477571e-9, 0.08224217, 0.7910457), (0.08018017, -0.018300604, 0.7910457), (0.035683516, -0.07409762, 0.7910457), (-0.03568354, -0.07409762, 0.7910457), (-0.08018018, -0.01830061, 0.7910457), (-0.06429952, 0.051277135, 0.7910457), (0.030448245, 0.02428167, 0.7910457), (-6.7921735e-9, 0.03894478, 0.7910457), (0.03796834, -0.00866603, 0.7910457), (0.016897494, -0.03508803, 0.7910457), (-0.016897513, -0.03508803, 0.7910457), (-0.037968364, -0.008666032, 0.7910457), (-0.030448265, 0.024281666, 0.7910457), (0.03044822, 0.02428167, 0.8581454), (-3.2378562e-8, 0.03894478, 0.8581454), (0.03796832, -0.00866603, 0.8581454), (0.016897468, -0.03508803, 0.8581454), (-0.016897539, -0.03508803, 0.8581454), (-0.037968386, -0.008666032, 0.8581454), (-0.03044829, 0.024281666, 0.8581454), (0.066923544, 0.05336981, 0.9394517), (-9.230786e-8, 0.08559855, 0.9394517), (0.083452314, -0.019047469, 0.9394517), (0.037139714, -0.07712161, 0.9394517), (-0.037139907, -0.07712161, 0.9394517), (-0.08345251, -0.019047473, 0.9394517), (-0.06692373, 0.0533698, 0.9394517), (-9.3853e-8, 9.776353e-10, 0.99480915), (0.026524654, 0.31749097, 0.22375268), (0.2316866, 0.21869019, 0.22375268), (0.06892606, 0.088893, 0.6113865), (0.02652464, 0.10931244, 0.6113865), (-0.026524646, 0.31749097, 0.22375268), (-0.026524654, 0.10931244, 0.6113865), (-0.06892607, 0.08889298, 0.6113865), (-0.2316866, 0.21869016, 0.22375268), (0.10200175, 0.047417387, 0.6113865), (0.26476228, 0.17721456, 0.22375268), (0.31543308, -0.044788774, 0.22375268), (0.11247404, 0.0015353068, 0.6113865), (0.10066945, -0.05018393, 0.6113865), (0.30362853, -0.09650801, 0.22375268), (0.16165201, -0.2745409, 0.22375268), (0.071326755, -0.086978495, 0.6113865), (0.023530994, -0.10999573, 0.6113865), (0.11385625, -0.29755813, 0.22375268), (-0.11385629, -0.2975581, 0.22375268), (-0.023531022, -0.10999573, 0.6113865), (-0.07132678, -0.0869785, 0.6113865), (-0.16165204, -0.27454087, 0.22375268), (-0.30362853, -0.096508026, 0.22375268), (-0.100669466, -0.050183937, 0.6113865), (-0.112474054, 0.0015352966, 0.6113865), (-0.31543308, -0.044788793, 0.22375268), (-0.2647623, 0.17721455, 0.22375268), (-0.102001764, 0.047417376, 0.6113865), (-0.08643218, -0.09902466, 0.620735), (-0.17675745, -0.28658703, 0.23310122), (-0.31873393, -0.108554184, 0.23310122), (-0.11577486, -0.06223009, 0.620735), (0.023530992, -0.12931627, 0.620735), (0.11385625, -0.31687865, 0.23310119), (-0.11385629, -0.31687862, 0.23310119), (-0.023531023, -0.12931627, 0.620735), (0.11577486, -0.06223009, 0.620735), (0.31873393, -0.10855417, 0.23310122), (0.17675741, -0.28658706, 0.23310122), (0.08643216, -0.09902465, 0.620735), (0.12083788, 0.05171661, 0.620735), (0.28359842, 0.18151379, 0.23310122), (0.33426923, -0.04048955, 0.23310122), (0.13131018, 0.005834531, 0.620735), (0.03490752, 0.33489817, 0.23310122), (0.24006946, 0.2360974, 0.23310122), (0.07730892, 0.106300205, 0.620735), (0.03490751, 0.12671964, 0.620735), (-0.034907516, 0.33489817, 0.23310119), (-0.034907524, 0.12671964, 0.620735), (-0.077308945, 0.10630019, 0.620735), (-0.24006946, 0.23609737, 0.23310119), (-0.1313102, 0.0058345185, 0.620735), (-0.33426923, -0.04048957, 0.23310122), (-0.28359845, 0.18151377, 0.23310122), (-0.1208379, 0.051716596, 0.620735), (4.3410173e-9, 0.3492252, 0.09584873), (3.7349754e-9, 0.3235761, 0.05100918), (-0.25298202, 0.20174637, 0.05100918), (-0.27303526, 0.21773832, 0.09584873), (0.3404694, -0.07770991, 0.09584873), (0.31546336, -0.07200246, 0.05100918), (0.25298202, 0.20174639, 0.05100918), (0.27303526, 0.21773833, 0.09584873), (-0.34046936, -0.077709936, 0.09584873), (-0.31546336, -0.07200248, 0.05100918), (-0.14039442, -0.291532, 0.05100918), (-0.15152313, -0.314641, 0.09584873), (0.15152308, -0.31464103, 0.09584873), (0.14039436, -0.291532, 0.05100918), (4.3843866e-9, 0.37519673, 0.09448709), (3.7332737e-9, 0.34764013, 0.05237082), (-0.27179605, 0.21675006, 0.05237082), (-0.29334062, 0.23393127, 0.09448709), (0.36578974, -0.08348913, 0.09448709), (0.33892405, -0.07735721, 0.05237082), (0.27179605, 0.21675006, 0.05237082), (0.29334062, 0.2339313, 0.09448709), (-0.3657897, -0.08348914, 0.09448709), (-0.33892405, -0.07735723, 0.05237082), (-0.15083541, -0.31321293, 0.05237082), (-0.16279176, -0.33804053, 0.09448709), (0.16279168, -0.33804056, 0.09448709), (0.15083535, -0.31321293, 0.05237082)]
            uniform token subdivisionScheme = "none"
            uniform token subsetFamily:materialBind:familyType = "nonOverlapping"
            custom string userProperties:blender:data_name = "Cylinder.017"

            def GeomSubset "Cork" (
                prepend apiSchemas = ["MaterialBindingAPI"]
            )
            {
                uniform token elementType = "face"
                uniform token familyName = "materialBind"
                int[] indices = [37, 44, 45, 46, 47, 48, 49, 50, 51, 52, 53, 54, 55, 56, 57, 58, 59, 60, 61, 62, 63]
                rel material:binding = </root/_materials/Cork>
            }

            def GeomSubset "Yellow" (
                prepend apiSchemas = ["MaterialBindingAPI"]
            )
            {
                uniform token elementType = "face"
                uniform token familyName = "materialBind"
                int[] indices = [0, 1, 2, 3, 4, 5, 6, 7, 8, 9, 10, 11, 12, 13, 14, 15, 16, 17, 18, 19, 20, 21, 22, 23, 24, 25, 26, 27, 28, 29, 30, 31, 32, 33, 34, 35, 36, 38, 39, 40, 41, 42, 43, 64, 65, 66, 67, 68, 69, 70, 71, 72, 73, 74, 75, 76, 77, 78, 79, 80, 81, 82, 83, 84, 85, 86, 87, 88, 89, 90, 91, 92, 93, 94, 95, 96, 97, 98, 99, 100, 101, 102, 103, 104, 105, 106, 107, 108, 109, 110, 111, 112, 113, 114, 115, 116, 117, 118, 119, 120, 121, 122, 123, 124, 125, 126, 127, 128, 129, 130, 131, 132, 133, 134, 135, 136, 137, 138, 139, 140, 141, 142, 143, 144, 145, 146, 147]
                rel material:binding = </root/_materials/Yellow>
            }
        }
    }

    def Scope "_materials"
    {
        def Material "Cork"
        {
            token outputs:surface.connect = </root/_materials/Cork/Principled_BSDF.outputs:surface>
            custom string userProperties:blender:data_name = "Cork"

            def Shader "Principled_BSDF"
            {
                uniform token info:id = "UsdPreviewSurface"
                float inputs:clearcoat = 0
                float inputs:clearcoatRoughness = 0.03
                color3f inputs:diffuseColor = (0.13286366, 0.034686834, 0.011910414)
                float inputs:ior = 1.5
                float inputs:metallic = 0
                float inputs:opacity = 1
                float inputs:roughness = 0.6900348
                float inputs:specular = 0.5
                token outputs:surface
            }
        }

        def Material "Yellow"
        {
            token outputs:surface.connect = </root/_materials/Yellow/Principled_BSDF.outputs:surface>
            custom string userProperties:blender:data_name = "Yellow"

            def Shader "Principled_BSDF"
            {
                uniform token info:id = "UsdPreviewSurface"
                float inputs:clearcoat = 0
                float inputs:clearcoatRoughness = 0.03
                color3f inputs:diffuseColor = (0.80000174, 0.38703877, 0.10852453)
                float inputs:ior = 1.5
                float inputs:metallic = 0
                float inputs:opacity = 1
                float inputs:roughness = 0.6900348
                float inputs:specular = 0.5
                token outputs:surface
            }
        }
    }
}

