#usda 1.0
(
    defaultPrim = "root"
    doc = "Blender v5.1.2"
    metersPerUnit = 1
    upAxis = "Y"
)

def Xform "root" (
    customData = {
        dictionary Blender = {
            bool generated = 1
        }
    }
)
{
    float3 xformOp:rotateXYZ = (-90, -0, 0)
    uniform token[] xformOpOrder = ["xformOp:rotateXYZ"]

    def Xform "Well"
    {
        custom string userProperties:blender:object_name = "Well"

        def Mesh "Cylinder_076" (
            active = true
            prepend apiSchemas = ["MaterialBindingAPI"]
        )
        {
            uniform bool doubleSided = 1
            float3[] extent = [(-0.3015688, -0.32265115, 0.00026896596), (0.2916792, 0.322651, 0.74063873)]
            int[] faceVertexCounts = [4, 12, 4, 4, 4, 4, 4, 4, 4, 4, 4, 4, 4, 4, 4, 4, 4, 4, 5, 4, 4, 4, 4, 5, 4, 4, 4, 4, 4, 12, 4, 4, 4, 4, 4, 4, 4, 4, 4, 4, 4, 4, 4, 5, 5, 4, 4, 4, 4, 4, 16, 4, 4, 12, 4, 4]
            int[] faceVertexIndices = [0, 1, 2, 3, 0, 3, 4, 5, 6, 7, 8, 9, 10, 11, 12, 13, 13, 14, 1, 0, 2, 1, 15, 16, 3, 2, 17, 4, 4, 17, 18, 5, 5, 18, 19, 6, 6, 19, 20, 7, 7, 20, 21, 8, 8, 21, 22, 9, 9, 22, 23, 10, 10, 23, 24, 11, 11, 24, 25, 12, 12, 25, 14, 13, 1, 14, 26, 15, 17, 2, 16, 27, 16, 15, 28, 29, 30, 18, 17, 31, 19, 18, 30, 32, 33, 20, 19, 34, 35, 21, 20, 35, 36, 22, 21, 36, 37, 23, 22, 37, 38, 24, 23, 39, 40, 41, 42, 25, 24, 41, 14, 25, 43, 26, 15, 26, 44, 28, 31, 17, 27, 45, 27, 16, 29, 46, 29, 28, 44, 47, 48, 49, 50, 51, 52, 53, 54, 46, 55, 34, 19, 33, 35, 34, 53, 52, 36, 35, 52, 51, 37, 36, 51, 50, 39, 23, 38, 56, 38, 37, 50, 49, 57, 43, 25, 42, 26, 43, 47, 44, 45, 27, 58, 59, 58, 27, 46, 54, 43, 60, 48, 47, 60, 38, 49, 48, 34, 58, 54, 53, 58, 34, 55, 61, 59, 38, 60, 62, 63, 56, 62, 60, 43, 57, 64, 65, 66, 67, 68, 64, 67, 69, 70, 71, 65, 64, 65, 71, 72, 66, 67, 66, 72, 73, 32, 30, 31, 45, 59, 61, 63, 62, 57, 42, 41, 40, 74, 68, 69, 75, 74, 70, 64, 68, 69, 67, 40, 39, 56, 63, 61, 55, 33, 32, 73, 75, 71, 70, 73, 72, 70, 74, 75, 73]
            rel material:binding = </root/_materials/LightRock>
            normal3f[] normals = [(0.4999998, 0.8660254, 0), (0.4999998, 0.8660254, 0), (0.4999998, 0.8660254, 0), (0.4999998, 0.8660254, 0), (6.7253e-12, 0, -1), (6.7253e-12, 0, -1), (6.7253e-12, 0, -1), (6.7253e-12, 0, -1), (6.7253e-12, 0, -1), (6.7253e-12, 0, -1), (6.7253e-12, 0, -1), (6.7253e-12, 0, -1), (6.7253e-12, 0, -1), (6.7253e-12, 0, -1), (6.7253e-12, 0, -1), (6.7253e-12, 0, -1), (-0.49999902, 0.866026, 0), (-0.49999902, 0.866026, 0), (-0.49999902, 0.866026, 0), (-0.49999902, 0.866026, 0), (9.2359365e-8, 0, 1), (9.235943e-8, 0, 1), (9.235948e-8, 0, 1), (9.2359514e-8, 0, 1), (1, 0, 0), (1, 0, 0), (1, 0, 0), (1, 0, 0), (1, 0, 0), (1, 0, 0), (1, -2.1704812e-8, 0), (1, 0, 0), (1, 0, 0), (1, -2.1704812e-8, 0), (1, -2.8939748e-8, 0), (1, 0, 0), (1, 0, 0), (1, -2.8939748e-8, 0), (0.99999994, 0, 0), (0.99999994, 0, 0), (0.5000002, -0.8660253, 0), (0.5000002, -0.8660253, 0), (0.5000002, -0.8660253, 0), (0.5000002, -0.8660253, 0), (-0.49999937, -0.8660258, 0), (-0.49999937, -0.8660258, 0), (-0.49999937, -0.8660258, 0), (-0.49999937, -0.8660258, 0), (-1, 0, 0), (-1, 0, 0), (-1, 5.968823e-8, 0), (-1, 0, 0), (-1, 0, 0), (-1, 5.968823e-8, 0), (-1, 4.4766175e-8, 0), (-1, 0, 0), (-1, 0, 0), (-1, 4.4766175e-8, 0), (-1, 0, 0), (-1, 0, 0), (-1, 0, 0), (-1, 0, 0), (-1, 0, 0), (-1, 0, 0), (9.235943e-8, 0, 1), (0, 0, 1), (0, 0, 1), (9.235948e-8, 0, 1), (0, 0, 1), (9.2359365e-8, 0, 1), (9.2359514e-8, 0, 1), (0, 0, 1), (-0.50000006, -0.8660253, 0), (-0.50000006, -0.8660253, 0), (-0.50000006, -0.8660253, 0), (-0.50000006, -0.8660253, 0), (1, -5.53132e-8, 0), (1, -2.1704812e-8, 0), (1, 0, 0), (1, 0, 0), (1, -2.8939748e-8, 0), (1, -2.1704812e-8, 0), (1, -5.53132e-8, 0), (1, -8.681924e-8, 0), (1, -8.681924e-8, 0), (0, 0, 1), (0, 0, 1), (0, 0, 1), (0, 0, 1), (-9.235934e-8, 0, 1), (0, 0, 1), (0, 0, 1), (-9.235928e-8, 0, 1), (-3.3583885e-7, 0, 1), (-9.235934e-8, 0, 1), (-9.235928e-8, 0, 1), (-3.358378e-7, 0, 1), (-4.869577e-7, 0, 1), (-3.3583885e-7, 0, 1), (-3.358378e-7, 0, 1), (-4.869577e-7, 0, 1), (-1, 4.4766175e-8, 0), (-1, 5.968823e-8, 0), (-1, 1.7906468e-7, 0), (-1, 1.7906468e-7, 0), (-1, 1.1408348e-7, 0), (-1, 0, 0), (-1, 0, 0), (-1, 4.4766175e-8, 0), (-1, 1.1408348e-7, 0), (0, 0, 1), (0, 0, 1), (0, 0, 1), (0, 0, 1), (0.4999995, -0.8660257, 0), (0.4999995, -0.8660257, 0), (0.4999995, -0.8660257, 0), (0.4999995, -0.8660257, 0), (-0.13800418, 0.9904316, 0), (-0.13800418, 0.9904316, 0), (-0.13800418, 0.9904316, 0), (-0.13800418, 0.9904316, 0), (-1, 0, 0), (-1, 0, 0), (-1, 0, 0), (-1, 0, 0), (3.1155145e-9, 0, 1), (3.1155145e-9, 0, 1), (3.1155145e-9, 0, 1), (3.1155145e-9, 0, 1), (3.1155145e-9, 0, 1), (3.1155145e-9, 0, 1), (3.1155145e-9, 0, 1), (3.1155145e-9, 0, 1), (3.1155145e-9, 0, 1), (3.1155145e-9, 0, 1), (3.1155145e-9, 0, 1), (3.1155145e-9, 0, 1), (-0.13800418, -0.9904316, 0), (-0.13800418, -0.9904316, 0), (-0.13800418, -0.9904316, 0), (-0.13800418, -0.9904316, 0), (-1, 0, 0), (-1, 9.9544465e-8, 0), (-1, 0, 0), (-1, 0, 0), (-0.5000001, 0.8660253, 0), (-0.5000001, 0.8660253, 0), (-0.5000001, 0.8660253, 0), (-0.5000001, 0.8660253, 0), (0.49999955, 0.8660257, 0), (0.49999955, 0.8660257, 0), (0.49999955, 0.8660257, 0), (0.49999955, 0.8660257, 0), (0.13800365, -0.9904317, 0), (0.13800365, -0.9904317, 0), (0.13800365, -0.9904317, 0), (0.13800365, -0.9904317, 0), (1, -4.8263985e-8, 0), (1, 0, 0), (1, 0, 0), (1, 0, 0), (0.13800362, 0.9904317, 0), (0.13800362, 0.9904317, 0), (0.13800362, 0.9904317, 0), (0.13800362, 0.9904317, 0), (1, 0, 0), (1, 0, 0), (1, 0, 0), (1, 0, 0), (-1, 0, 0), (-1, 0, 0), (-1, 7.4658345e-8, 0), (-1, 1.902616e-7, 0), (-1, 7.4658345e-8, 0), (-1, 0, 0), (-1, 0, 0), (-1, 0, 0), (1, 0, 0), (1, -3.619799e-8, 0), (1, 0, 0), (1, 0, 0), (1, -3.619799e-8, 0), (1, -4.8263985e-8, 0), (1, 0, 0), (1, 0, 0), (-1, 9.9544465e-8, 0), (-1, 7.4658345e-8, 0), (-1, 0, 0), (-1, 0, 0), (-1, 7.4658345e-8, 0), (-1, 9.9544465e-8, 0), (-1, 2.9863338e-7, 0), (-1, 2.9863338e-7, 0), (-1, 1.902616e-7, 0), (1, -4.8263985e-8, 0), (1, -3.619799e-8, 0), (1, -9.224806e-8, 0), (1, -1.4479195e-7, 0), (1, -1.4479195e-7, 0), (1, -9.224806e-8, 0), (1, -3.619799e-8, 0), (1, 0, 0), (1, 0, 0), (-1, 0, 0), (-0.99999994, 0, 0), (-0.99999994, 0, 0), (-1, 0, 0), (-1, 0, 0), (-1, 0, 0), (-1, 0, 0), (-1, 0, 0), (0, 0.41750687, 0.9086738), (0, 0.41750687, 0.9086738), (0, 0.41750687, 0.9086738), (0, 0.41750687, 0.9086738), (0, 1, 0), (0, 1, 0), (0, 1, 0), (0, 1, 0), (-1.4505586e-9, -0.4175068, -0.9086738), (-1.4505586e-9, -0.4175068, -0.9086738), (-1.4505586e-9, -0.4175068, -0.9086738), (-1.4505586e-9, -0.4175068, -0.9086738), (-1.4505586e-9, -0.4175068, -0.9086738), (-1.4505586e-9, -0.4175068, -0.9086738), (-1.4505586e-9, -0.4175068, -0.9086738), (-1.4505586e-9, -0.4175068, -0.9086738), (-1.4505586e-9, -0.4175068, -0.9086738), (-1.4505586e-9, -0.4175068, -0.9086738), (-1.4505586e-9, -0.4175068, -0.9086738), (-1.4505586e-9, -0.4175068, -0.9086738), (-1.4505586e-9, -0.4175068, -0.9086738), (-1.4505586e-9, -0.4175068, -0.9086738), (-1.4505586e-9, -0.4175068, -0.9086738), (-1.4505586e-9, -0.4175068, -0.9086738), (0, -1, 0), (0, -1, 0), (0, -1, 0), (0, -1, 0), (0, -0.41750705, 0.90867364), (0, -0.41750705, 0.90867364), (0, -0.41750705, 0.90867364), (0, -0.41750705, 0.90867364), (0, 0.41750702, -0.9086737), (0, 0.41750702, -0.9086737), (0, 0.41750702, -0.9086737), (0, 0.41750702, -0.9086737), (0, 0.41750702, -0.9086737), (0, 0.41750702, -0.9086737), (0, 0.41750702, -0.9086737), (0, 0.41750702, -0.9086737), (0, 0.41750702, -0.9086737), (0, 0.41750702, -0.9086737), (0, 0.41750702, -0.9086737), (0, 0.41750702, -0.9086737), (0.99999994, 1.4179851e-7, 0), (1, 7.089926e-8, 0), (1, 7.0899254e-8, 0), (0.99999994, 1.4179851e-7, 0), (1, 7.089926e-8, 0), (1, 0, 0), (1, 0, 0), (1, 7.0899254e-8, 0)] (
                interpolation = "faceVarying"
            )
            point3f[] points = [(0, 0.322651, 0.00026896596), (0, 0.322651, 0.35397604), (0.27942395, 0.16132557, 0.35397604), (0.27942395, 0.16132557, 0.00026896596), (0.27942395, 0.08066263, 0.00026896596), (0.27942395, 0, 0.00026896596), (0.27942395, -0.08066294, 0.00026896596), (0.27942395, -0.16132557, 0.00026896596), (0, -0.32265115, 0.00026896596), (-0.27942458, -0.16132557, 0.00026896596), (-0.27942458, -0.08066279, 0.00026896596), (-0.27942458, 0, 0.00026896596), (-0.27942458, 0.08066263, 0.00026896596), (-0.27942458, 0.16132557, 0.00026896596), (-0.27942458, 0.16132557, 0.35397604), (0, 0.23985243, 0.35397604), (0.20771812, 0.119926296, 0.35397604), (0.27942395, 0.038934264, 0.35397604), (0.27942395, 0, 0.35397604), (0.27942395, -0.038934417, 0.35397604), (0.27942395, -0.16132557, 0.35397604), (0, -0.32265115, 0.35397604), (-0.27942458, -0.16132557, 0.35397604), (-0.27942458, -0.038934417, 0.35397604), (-0.27942458, 0, 0.35397604), (-0.27942458, 0.038934264, 0.35397604), (-0.20771843, 0.119926296, 0.35397604), (0.20771812, 0.028942956, 0.35397604), (0, 0.23985243, 0.036432594), (0.20771812, 0.119926296, 0.036432594), (0.27942395, 0, 0.63640773), (0.27942395, 0.038934264, 0.61851865), (0.27942395, -0.0022770104, 0.6374539), (0.27942395, -0.038934417, 0.62061095), (0.20771812, -0.02894311, 0.35397604), (0.20771812, -0.119926445, 0.35397604), (0, -0.23985259, 0.35397604), (-0.20771843, -0.119926445, 0.35397604), (-0.20771843, -0.02894311, 0.35397604), (-0.27942458, -0.038934417, 0.62061095), (-0.27942458, -0.0022770104, 0.6374539), (-0.27942458, 0, 0.63640773), (-0.27942458, 0.038934264, 0.61851865), (-0.20771843, 0.028942956, 0.35397604), (-0.20771843, 0.119926296, 0.036432594), (0.20771812, 0.028942956, 0.62310934), (0.20771812, 0.05996307, 0.036432594), (-0.20771843, 0.05996307, 0.036432594), (-0.20771843, 0, 0.036432594), (-0.20771843, -0.059963223, 0.036432594), (-0.20771843, -0.119926445, 0.036432594), (0, -0.23985259, 0.036432594), (0.20771812, -0.119926445, 0.036432594), (0.20771812, -0.059963223, 0.036432594), (0.20771812, 0, 0.036432594), (0.20771812, -0.02894311, 0.62520164), (-0.20771843, -0.02894311, 0.62520164), (-0.20771843, 0.028942956, 0.62310934), (0.20771812, 0, 0.35397604), (0.20771812, 0, 0.63640773), (-0.20771843, 0, 0.35397604), (0.20771812, -0.0022770104, 0.6374539), (-0.20771843, 0, 0.63640773), (-0.20771843, -0.0022770104, 0.6374539), (-0.3015688, -0.0022770104, 0.74063873), (-0.3015688, 0.25233138, 0.62365425), (-0.3015688, 0.25233138, 0.5204694), (-0.3015688, -0.0022770104, 0.6374539), (-0.3015688, -0.25688523, 0.62365425), (-0.3015688, -0.25688523, 0.5204694), (0.2916792, -0.0022770104, 0.74063873), (0.2916792, 0.25233138, 0.62365425), (0.2916792, 0.25233138, 0.5204694), (0.2916792, -0.0022770104, 0.6374539), (0.2916792, -0.25688523, 0.62365425), (0.2916792, -0.25688523, 0.5204694)]
            uniform token subdivisionScheme = "none"
            uniform token subsetFamily:materialBind:familyType = "nonOverlapping"
            custom string userProperties:blender:data_name = "Cylinder.076"

            def GeomSubset "LightRock" (
                prepend apiSchemas = ["MaterialBindingAPI"]
            )
            {
                uniform token elementType = "face"
                uniform token familyName = "materialBind"
                int[] indices = [0, 1, 2, 3, 4, 5, 6, 7, 8, 9, 10, 11, 12, 13, 14, 15, 16, 19, 20, 21, 22, 25, 26, 28, 29, 31, 32, 33, 35, 37, 39, 40, 41, 42]
                rel material:binding = </root/_materials/LightRock>
            }

            def GeomSubset "LightWood" (
                prepend apiSchemas = ["MaterialBindingAPI"]
            )
            {
                uniform token elementType = "face"
                uniform token familyName = "materialBind"
                int[] indices = [17, 18, 23, 24, 27, 30, 34, 36, 38, 43, 44, 45]
                rel material:binding = </root/_materials/LightWood>
            }

            def GeomSubset "Celing" (
                prepend apiSchemas = ["MaterialBindingAPI"]
            )
            {
                uniform token elementType = "face"
                uniform token familyName = "materialBind"
                int[] indices = [46, 47, 48, 49, 50, 51, 52, 53, 54, 55]
                rel material:binding = </root/_materials/Celing>
            }
        }
    }

    def Scope "_materials"
    {
        def Material "LightRock"
        {
            token outputs:surface.connect = </root/_materials/LightRock/Principled_BSDF.outputs:surface>
            custom string userProperties:blender:data_name = "LightRock"

            def Shader "Principled_BSDF"
            {
                uniform token info:id = "UsdPreviewSurface"
                float inputs:clearcoat = 0
                float inputs:clearcoatRoughness = 0.03
                color3f inputs:diffuseColor = (0.8, 0.8, 0.8)
                color3f inputs:emissiveColor = (0, 0, 0)
                float inputs:ior = 1.5
                float inputs:metallic = 0
                float inputs:opacity = 1
                float inputs:roughness = 0.5527864
                float inputs:specular = 1
                token outputs:surface
            }
        }

        def Material "LightWood"
        {
            token outputs:surface.connect = </root/_materials/LightWood/Principled_BSDF.outputs:surface>
            custom string userProperties:blender:data_name = "LightWood"

            def Shader "Principled_BSDF"
            {
                uniform token info:id = "UsdPreviewSurface"
                float inputs:clearcoat = 0
                float inputs:clearcoatRoughness = 0.03
                color3f inputs:diffuseColor = (0.8, 0.8, 0.8)
                color3f inputs:emissiveColor = (0, 0, 0)
                float inputs:ior = 1.5
                float inputs:metallic = 0
                float inputs:opacity = 1
                float inputs:roughness = 0.5527864
                float inputs:specular = 1
                token outputs:surface
            }
        }

        def Material "Celing"
        {
            token outputs:surface.connect = </root/_materials/Celing/Principled_BSDF.outputs:surface>
            custom string userProperties:blender:data_name = "Celing"

            def Shader "Principled_BSDF"
            {
                uniform token info:id = "UsdPreviewSurface"
                float inputs:clearcoat = 0
                float inputs:clearcoatRoughness = 0.03
                color3f inputs:diffuseColor = (0.8, 0.8, 0.8)
                color3f inputs:emissiveColor = (0, 0, 0)
                float inputs:ior = 1.5
                float inputs:metallic = 0
                float inputs:opacity = 1
                float inputs:roughness = 0.5527864
                float inputs:specular = 1
                token outputs:surface
            }
        }
    }
}

