#usda 1.0
(
    defaultPrim = "root"
    doc = "Blender v5.1.2"
    metersPerUnit = 1
    upAxis = "Y"
)

def Xform "root" (
    customData = {
        dictionary Blender = {
            bool generated = 1
        }
    }
)
{
    float3 xformOp:rotateXYZ = (-90, -0, 0)
    uniform token[] xformOpOrder = ["xformOp:rotateXYZ"]

    def Xform "DeadTree_8"
    {
        custom string userProperties:blender:object_name = "DeadTree_8"

        def Mesh "Cylinder_048" (
            active = true
            prepend apiSchemas = ["MaterialBindingAPI"]
        )
        {
            uniform bool doubleSided = 1
            float3[] extent = [(-2.0656855, -0.9207183, 0.011172616), (2.5263426, 0.2889916, 4.9597945)]
            int[] faceVertexCounts = [4, 4, 4, 4, 4, 4, 4, 4, 4, 4, 4, 4, 4, 4, 4, 4, 4, 4, 4, 4, 4, 4, 4, 4, 4, 4, 4, 4, 4, 4, 4, 4, 4, 4, 4, 4, 4, 4, 4, 10, 4, 4, 4, 4, 4, 4, 4, 4, 4, 4, 4, 4, 4, 4, 4, 4, 4, 4, 4, 4, 4, 4, 4, 4, 4, 4, 4, 4, 4, 4, 4, 4, 4, 4, 4, 4, 4, 10, 4, 4, 4, 4, 4, 4, 4, 4, 4, 4, 4, 4, 4, 4, 4, 4, 4, 4, 4, 4, 4, 4, 4, 4, 4, 4, 4, 4, 4, 4, 4, 4, 4, 4, 4, 4, 4, 4, 4, 10, 4, 4, 4, 4, 4, 4, 4, 4, 4, 4, 4, 4, 4, 4, 4, 4, 4, 4, 4, 4, 10, 4, 4, 4, 4, 4, 4, 4, 4, 4, 4, 4, 4, 4, 4, 4, 4, 4, 4, 4, 4, 4, 4, 4, 4, 4, 4, 4, 4, 4, 4, 4, 10, 4, 10, 4, 4, 4, 4, 4, 4, 4, 4, 4, 4, 4, 4, 4, 4, 4, 4, 4, 4, 4, 4, 4, 4, 4, 4, 4, 4, 4, 4, 4, 4, 4, 4, 4, 4, 4, 4, 4, 4, 4, 4, 4, 4, 4, 4, 4, 4, 4, 4, 4, 4, 4, 4, 4, 4, 4, 4, 4, 4, 4, 4, 4, 4, 4, 4, 4, 4, 4, 4, 4, 4, 4, 4, 4, 4, 4, 4, 4, 4, 4, 4, 4, 10, 4, 4, 4, 4, 4, 4, 4, 4, 4, 4, 4, 4, 4, 4, 4, 4, 4, 4, 4, 4, 10, 4, 4, 4, 4, 4, 4, 4, 4, 4, 4, 4, 4]
            int[] faceVertexIndices = [7, 6, 16, 17, 70, 68, 24, 25, 4, 3, 13, 14, 0, 1, 11, 10, 8, 7, 17, 18, 5, 4, 14, 15, 2, 0, 10, 12, 9, 8, 18, 19, 6, 5, 15, 16, 3, 2, 12, 13, 1, 9, 19, 11, 12, 10, 61, 65, 64, 60, 20, 22, 78, 76, 28, 29, 72, 70, 25, 26, 63, 78, 29, 21, 74, 72, 26, 27, 68, 66, 23, 24, 66, 64, 22, 23, 76, 74, 27, 28, 52, 50, 35, 36, 18, 17, 75, 77, 15, 14, 69, 71, 60, 63, 21, 20, 19, 18, 77, 79, 16, 15, 71, 73, 13, 12, 65, 67, 11, 19, 79, 62, 17, 16, 73, 75, 14, 13, 67, 69, 43, 58, 39, 31, 20, 21, 42, 41, 54, 52, 36, 37, 48, 46, 33, 34, 46, 44, 32, 33, 56, 54, 37, 38, 50, 48, 34, 35, 44, 40, 30, 32, 58, 56, 38, 39, 30, 31, 39, 38, 37, 36, 35, 34, 33, 32, 29, 28, 57, 59, 26, 25, 51, 53, 23, 22, 45, 47, 21, 29, 59, 42, 27, 26, 53, 55, 24, 23, 47, 49, 22, 20, 41, 45, 28, 27, 55, 57, 25, 24, 49, 51, 41, 42, 43, 40, 45, 41, 40, 44, 47, 45, 44, 46, 49, 47, 46, 48, 51, 49, 48, 50, 53, 51, 50, 52, 55, 53, 52, 54, 57, 55, 54, 56, 59, 57, 56, 58, 42, 59, 58, 43, 40, 43, 31, 30, 61, 62, 63, 60, 65, 61, 60, 64, 67, 65, 64, 66, 69, 67, 66, 68, 71, 69, 68, 70, 73, 71, 70, 72, 75, 73, 72, 74, 77, 75, 74, 76, 79, 77, 76, 78, 62, 79, 78, 63, 10, 11, 62, 61, 215, 214, 204, 205, 212, 211, 201, 202, 211, 210, 200, 201, 205, 206, 216, 215, 213, 212, 202, 203, 198, 197, 196, 199, 210, 211, 212, 213, 214, 215, 216, 217, 219, 218, 214, 213, 203, 204, 115, 114, 84, 85, 112, 110, 80, 82, 119, 118, 88, 89, 116, 115, 85, 86, 111, 119, 89, 81, 117, 116, 86, 87, 114, 113, 83, 84, 113, 112, 82, 83, 118, 117, 87, 88, 107, 106, 96, 97, 110, 111, 81, 80, 80, 81, 101, 100, 108, 107, 97, 98, 105, 104, 94, 95, 104, 103, 93, 94, 109, 108, 98, 99, 106, 105, 95, 96, 103, 102, 92, 93, 101, 109, 99, 91, 89, 88, 108, 109, 86, 85, 105, 106, 83, 82, 102, 103, 81, 89, 109, 101, 87, 86, 106, 107, 84, 83, 103, 104, 82, 80, 100, 102, 88, 87, 107, 108, 85, 84, 104, 105, 102, 100, 90, 92, 142, 140, 125, 126, 133, 148, 129, 121, 144, 142, 126, 127, 138, 136, 123, 124, 136, 134, 122, 123, 146, 144, 127, 128, 140, 138, 124, 125, 134, 130, 120, 122, 148, 146, 128, 129, 120, 121, 129, 128, 127, 126, 125, 124, 123, 122, 131, 132, 133, 130, 135, 131, 130, 134, 137, 135, 134, 136, 139, 137, 136, 138, 141, 139, 138, 140, 143, 141, 140, 142, 145, 143, 142, 144, 147, 145, 144, 146, 149, 147, 146, 148, 132, 149, 148, 133, 130, 133, 121, 120, 172, 170, 155, 156, 163, 178, 159, 151, 174, 172, 156, 157, 168, 166, 153, 154, 166, 164, 152, 153, 176, 174, 157, 158, 170, 168, 154, 155, 164, 160, 150, 152, 178, 176, 158, 159, 150, 151, 159, 158, 157, 156, 155, 154, 153, 152, 161, 162, 163, 160, 165, 161, 160, 164, 167, 165, 164, 166, 169, 167, 166, 168, 171, 169, 168, 170, 173, 171, 170, 172, 175, 173, 172, 174, 177, 175, 174, 176, 179, 177, 176, 178, 162, 179, 178, 163, 160, 163, 151, 150, 192, 194, 195, 193, 197, 180, 181, 196, 180, 182, 183, 181, 182, 184, 185, 183, 184, 186, 187, 185, 186, 188, 189, 187, 188, 190, 191, 189, 190, 192, 193, 191, 239, 238, 197, 198, 225, 226, 206, 205, 222, 223, 203, 202, 221, 222, 202, 201, 224, 225, 205, 204, 228, 220, 200, 208, 227, 229, 209, 207, 209, 208, 218, 219, 226, 227, 207, 206, 219, 217, 207, 209, 220, 221, 201, 200, 223, 224, 204, 203, 260, 262, 263, 264, 265, 266, 267, 268, 269, 261, 217, 216, 206, 207, 90, 91, 99, 98, 97, 96, 95, 94, 93, 92, 229, 228, 208, 209, 101, 91, 90, 100, 199, 196, 228, 229, 238, 230, 180, 197, 234, 235, 190, 188, 233, 234, 188, 186, 236, 237, 194, 192, 231, 232, 184, 182, 230, 231, 182, 180, 232, 233, 186, 184, 235, 236, 192, 190, 193, 195, 227, 226, 183, 185, 222, 221, 185, 187, 223, 222, 196, 181, 220, 228, 187, 189, 224, 223, 181, 183, 221, 220, 195, 199, 229, 227, 237, 239, 198, 194, 248, 240, 230, 238, 191, 193, 226, 225, 243, 244, 234, 233, 246, 247, 237, 236, 247, 249, 239, 237, 244, 245, 235, 234, 241, 242, 232, 231, 249, 248, 238, 239, 245, 246, 236, 235, 189, 191, 225, 224, 242, 243, 233, 232, 240, 241, 231, 230, 194, 198, 199, 195, 295, 255, 254, 294, 292, 252, 250, 290, 299, 259, 258, 298, 296, 256, 255, 295, 291, 251, 259, 299, 297, 257, 256, 296, 294, 254, 253, 293, 293, 253, 252, 292, 298, 258, 257, 297, 282, 266, 265, 280, 290, 250, 251, 291, 273, 261, 269, 288, 250, 271, 272, 251, 284, 267, 266, 282, 278, 264, 263, 276, 276, 263, 262, 274, 286, 268, 267, 284, 280, 265, 264, 278, 274, 262, 260, 270, 288, 269, 268, 286, 259, 289, 287, 258, 256, 283, 281, 255, 253, 277, 275, 252, 251, 272, 289, 259, 257, 285, 283, 256, 254, 279, 277, 253, 252, 275, 271, 250, 258, 287, 285, 257, 255, 281, 279, 254, 271, 270, 273, 272, 275, 274, 270, 271, 277, 276, 274, 275, 279, 278, 276, 277, 281, 280, 278, 279, 283, 282, 280, 281, 285, 284, 282, 283, 287, 286, 284, 285, 289, 288, 286, 287, 272, 273, 288, 289, 270, 260, 261, 273, 322, 306, 305, 320, 313, 301, 309, 328, 324, 307, 306, 322, 318, 304, 303, 316, 316, 303, 302, 314, 326, 308, 307, 324, 320, 305, 304, 318, 314, 302, 300, 310, 328, 309, 308, 326, 300, 302, 303, 304, 305, 306, 307, 308, 309, 301, 311, 310, 313, 312, 315, 314, 310, 311, 317, 316, 314, 315, 319, 318, 316, 317, 321, 320, 318, 319, 323, 322, 320, 321, 325, 324, 322, 323, 327, 326, 324, 325, 329, 328, 326, 327, 312, 313, 328, 329, 310, 300, 301, 313, 352, 336, 335, 350, 343, 331, 339, 358, 354, 337, 336, 352, 348, 334, 333, 346, 346, 333, 332, 344, 356, 338, 337, 354, 350, 335, 334, 348, 344, 332, 330, 340, 358, 339, 338, 356, 330, 332, 333, 334, 335, 336, 337, 338, 339, 331, 341, 340, 343, 342, 345, 344, 340, 341, 347, 346, 344, 345, 349, 348, 346, 347, 351, 350, 348, 349, 353, 352, 350, 351, 355, 354, 352, 353, 357, 356, 354, 355, 359, 358, 356, 357, 342, 343, 358, 359, 340, 330, 331, 343, 210, 218, 208, 200]
            rel material:binding = </root/_materials/Bark>
            normal3f[] normals = [(-0.2774653, 0.9605196, 0.020375734), (-0.78813756, 0.60831326, -0.09377709), (-0.795622, 0.5922942, -0.12717344), (-0.3053296, 0.9522132, 0.00798606), (-0.8818619, -0.012177283, -0.47135055), (-0.7189162, -0.5987618, -0.35304925), (-0.70607764, -0.58004075, -0.40621075), (-0.8364307, 0.0010272689, -0.54807174), (-0.794084, -0.58494955, -0.16512005), (-0.27992705, -0.95565027, -0.09150599), (-0.29764178, -0.94907594, -0.10326806), (-0.7914572, -0.58004236, -0.19273394), (0.8213087, -0.55506754, 0.13172694), (0.98124284, 0.009752531, 0.19252896), (0.9721188, -0.009361316, 0.23430227), (0.7968616, -0.583394, 0.15704498), (0.32823431, 0.9358074, 0.1285567), (-0.2774653, 0.9605196, 0.020375734), (-0.3053296, 0.9522132, 0.00798606), (0.29768893, 0.94361013, 0.1448488), (-0.98612005, 0.0119797755, -0.16560099), (-0.794084, -0.58494955, -0.16512005), (-0.7914572, -0.58004236, -0.19273394), (-0.9791309, 0.0051059867, -0.20316668), (0.35116762, -0.93597573, 0.0251129), (0.8213087, -0.55506754, 0.13172694), (0.7968616, -0.583394, 0.15704498), (0.31831214, -0.9475266, 0.029507775), (0.7991299, 0.56968355, 0.19196907), (0.32823431, 0.9358074, 0.1285567), (0.29768893, 0.94361013, 0.1448488), (0.7850475, 0.57445717, 0.23173113), (-0.78813756, 0.60831326, -0.09377709), (-0.98612005, 0.0119797755, -0.16560099), (-0.9791309, 0.0051059867, -0.20316668), (-0.795622, 0.5922942, -0.12717344), (-0.27992705, -0.95565027, -0.09150599), (0.35116762, -0.93597573, 0.0251129), (0.31831214, -0.9475266, 0.029507775), (-0.29764178, -0.94907594, -0.10326806), (0.98124284, 0.009752531, 0.19252896), (0.7991299, 0.56968355, 0.19196907), (0.7850475, 0.57445717, 0.23173113), (0.9721188, -0.009361316, 0.23430227), (0.31831214, -0.9475266, 0.029507775), (0.7968616, -0.583394, 0.15704498), (0.7627771, -0.58917594, 0.26653865), (0.30313084, -0.9477176, 0.09971499), (0.24943034, -0.9450576, 0.21130714), (0.6834518, -0.58377093, 0.438298), (0.6243041, -0.58004206, 0.5232547), (0.19909707, -0.9454223, 0.2579477), (0.72996306, 0.56091523, 0.39054823), (0.3148916, 0.93938494, 0.13564369), (0.2858124, 0.9471106, 0.1459202), (0.67681247, 0.5774234, 0.45662576), (-0.70519394, 0.5832909, -0.40307972), (-0.8818619, -0.012177283, -0.47135055), (-0.8364307, 0.0010272689, -0.54807174), (-0.6615761, 0.57742417, -0.4784333), (0.8639225, -0.01325658, 0.5034504), (0.72996306, 0.56091523, 0.39054823), (0.67681247, 0.5774234, 0.45662576), (0.8023488, 0.0010254945, 0.5968545), (-0.24583486, 0.955, -0.16595306), (-0.70519394, 0.5832909, -0.40307972), (-0.6615761, 0.57742417, -0.4784333), (-0.23533136, 0.94711083, -0.21817467), (-0.7189162, -0.5987618, -0.35304925), (-0.28573996, -0.95399344, -0.09082581), (-0.31069282, -0.94542265, -0.098214634), (-0.70607764, -0.58004075, -0.40621075), (-0.28573996, -0.95399344, -0.09082581), (0.24943034, -0.9450576, 0.21130714), (0.19909707, -0.9454223, 0.2579477), (-0.31069282, -0.94542265, -0.098214634), (0.3148916, 0.93938494, 0.13564369), (-0.24583486, 0.955, -0.16595306), (-0.23533136, 0.94711083, -0.21817467), (0.2858124, 0.9471106, 0.1459202), (-0.75556743, 0.5784061, -0.30751315), (-0.86987215, 0.006361485, -0.49323615), (-0.8874359, -0.017928677, -0.46058217), (-0.7945761, 0.5543874, -0.24759531), (0.29768893, 0.94361013, 0.1448488), (-0.3053296, 0.9522132, 0.00798606), (-0.29611483, 0.95385355, -0.049792666), (0.2981762, 0.94253176, 0.15074766), (-0.9791309, 0.0051059867, -0.20316668), (-0.7914572, -0.58004236, -0.19273394), (-0.75996286, -0.59278667, -0.26657167), (-0.94878566, -0.0059711784, -0.31586406), (0.6834518, -0.58377093, 0.438298), (0.8639225, -0.01325658, 0.5034504), (0.8023488, 0.0010254945, 0.5968545), (0.6243041, -0.58004206, 0.5232547), (0.7850475, 0.57445717, 0.23173113), (0.29768893, 0.94361013, 0.1448488), (0.2981762, 0.94253176, 0.15074766), (0.7692273, 0.56508225, 0.2982805), (-0.795622, 0.5922942, -0.12717344), (-0.9791309, 0.0051059867, -0.20316668), (-0.94878566, -0.0059711784, -0.31586406), (-0.77498144, 0.58693504, -0.23433106), (-0.29764178, -0.94907594, -0.10326806), (0.31831214, -0.9475266, 0.029507775), (0.30313084, -0.9477176, 0.09971499), (-0.28108, -0.9539554, -0.10470483), (0.9721188, -0.009361316, 0.23430227), (0.7850475, 0.57445717, 0.23173113), (0.7692273, 0.56508225, 0.2982805), (0.94034517, -0.01976353, 0.33964738), (-0.3053296, 0.9522132, 0.00798606), (-0.795622, 0.5922942, -0.12717344), (-0.77498144, 0.58693504, -0.23433106), (-0.29611483, 0.95385355, -0.049792666), (-0.7914572, -0.58004236, -0.19273394), (-0.29764178, -0.94907594, -0.10326806), (-0.28108, -0.9539554, -0.10470483), (-0.75996286, -0.59278667, -0.26657167), (0.76236314, 0.006355706, 0.64711833), (0.5486522, 0.578406, 0.6036781), (0.5058104, 0.5543845, 0.6609188), (0.73774236, -0.017932419, 0.67484415), (0.6243041, -0.58004206, 0.5232547), (0.8023488, 0.0010254945, 0.5968545), (0.7921093, 0.015449014, 0.6101837), (0.65356886, -0.5730855, 0.49438936), (-0.37921768, 0.9251799, 0.015367249), (-0.75556743, 0.5784061, -0.30751315), (-0.7945761, 0.5543874, -0.24759531), (-0.43030223, 0.89787334, 0.0930773), (-0.6669239, -0.5811341, -0.46636426), (-0.22092137, -0.94820833, -0.22824273), (-0.20783035, -0.9494492, -0.23527169), (-0.66054654, -0.59644336, -0.45599738), (-0.22092137, -0.94820833, -0.22824273), (0.29031092, -0.9482073, 0.12892789), (0.2924082, -0.9494481, 0.11421776), (-0.20783035, -0.9494492, -0.23527169), (0.11601347, 0.92518026, 0.36136192), (-0.37921768, 0.9251799, 0.015367249), (-0.43030223, 0.89787334, 0.0930773), (0.06061572, 0.8978738, 0.43606), (-0.86987215, 0.006361485, -0.49323615), (-0.6669239, -0.5811341, -0.46636426), (-0.66054654, -0.59644336, -0.45599738), (-0.8874359, -0.017928677, -0.46058217), (0.29031092, -0.9482073, 0.12892789), (0.6673184, -0.5811349, 0.46579868), (0.65538985, -0.5964436, 0.46337816), (0.2924082, -0.9494481, 0.11421776), (0.5486522, 0.578406, 0.6036781), (0.11601347, 0.92518026, 0.36136192), (0.06061572, 0.8978738, 0.43606), (0.5058104, 0.5543845, 0.6609188), (-0.5649637, -0.16401972, 0.8086493), (-0.5649637, -0.16401972, 0.8086493), (-0.5649637, -0.16401972, 0.8086493), (-0.5649637, -0.16401972, 0.8086493), (-0.5649637, -0.16401972, 0.8086493), (-0.5649637, -0.16401972, 0.8086493), (-0.5649637, -0.16401972, 0.8086493), (-0.5649637, -0.16401972, 0.8086493), (-0.5649637, -0.16401972, 0.8086493), (-0.5649637, -0.16401972, 0.8086493), (0.67681247, 0.5774234, 0.45662576), (0.2858124, 0.9471106, 0.1459202), (0.22164771, 0.9485573, 0.22607814), (0.628353, 0.58873117, 0.50849605), (-0.6615761, 0.57742417, -0.4784333), (-0.8364307, 0.0010272689, -0.54807174), (-0.84542423, 0.01545428, -0.5338717), (-0.6936122, 0.5887294, -0.41509017), (-0.31069282, -0.94542265, -0.098214634), (0.19909707, -0.9454223, 0.2579477), (0.24749537, -0.9486103, 0.19719157), (-0.27029142, -0.9486112, -0.16455783), (0.8023488, 0.0010254945, 0.5968545), (0.67681247, 0.5774234, 0.45662576), (0.628353, 0.58873117, 0.50849605), (0.7921093, 0.015449014, 0.6101837), (-0.23533136, 0.94711083, -0.21817467), (-0.6615761, 0.57742417, -0.4784333), (-0.6936122, 0.5887294, -0.41509017), (-0.28852645, 0.948557, -0.13035384), (-0.70607764, -0.58004075, -0.40621075), (-0.31069282, -0.94542265, -0.098214634), (-0.27029142, -0.9486112, -0.16455783), (-0.6890421, -0.5730825, -0.4436185), (0.19909707, -0.9454223, 0.2579477), (0.6243041, -0.58004206, 0.5232547), (0.65356886, -0.5730855, 0.49438936), (0.24749537, -0.9486103, 0.19719157), (0.2858124, 0.9471106, 0.1459202), (-0.23533136, 0.94711083, -0.21817467), (-0.28852645, 0.948557, -0.13035384), (0.22164771, 0.9485573, 0.22607814), (-0.8364307, 0.0010272689, -0.54807174), (-0.70607764, -0.58004075, -0.40621075), (-0.6890421, -0.5730825, -0.4436185), (-0.84542423, 0.01545428, -0.5338717), (0.65356886, -0.5730855, 0.49438936), (0.7921093, 0.015449014, 0.6101837), (0.76236314, 0.006355706, 0.64711833), (0.6673184, -0.5811349, 0.46579868), (0.24749537, -0.9486103, 0.19719157), (0.65356886, -0.5730855, 0.49438936), (0.6673184, -0.5811349, 0.46579868), (0.29031092, -0.9482073, 0.12892789), (-0.27029142, -0.9486112, -0.16455783), (0.24749537, -0.9486103, 0.19719157), (0.29031092, -0.9482073, 0.12892789), (-0.22092137, -0.94820833, -0.22824273), (-0.6890421, -0.5730825, -0.4436185), (-0.27029142, -0.9486112, -0.16455783), (-0.22092137, -0.94820833, -0.22824273), (-0.6669239, -0.5811341, -0.46636426), (-0.84542423, 0.01545428, -0.5338717), (-0.6890421, -0.5730825, -0.4436185), (-0.6669239, -0.5811341, -0.46636426), (-0.86987215, 0.006361485, -0.49323615), (-0.6936122, 0.5887294, -0.41509017), (-0.84542423, 0.01545428, -0.5338717), (-0.86987215, 0.006361485, -0.49323615), (-0.75556743, 0.5784061, -0.30751315), (-0.28852645, 0.948557, -0.13035384), (-0.6936122, 0.5887294, -0.41509017), (-0.75556743, 0.5784061, -0.30751315), (-0.37921768, 0.9251799, 0.015367249), (0.22164771, 0.9485573, 0.22607814), (-0.28852645, 0.948557, -0.13035384), (-0.37921768, 0.9251799, 0.015367249), (0.11601347, 0.92518026, 0.36136192), (0.628353, 0.58873117, 0.50849605), (0.22164771, 0.9485573, 0.22607814), (0.11601347, 0.92518026, 0.36136192), (0.5486522, 0.578406, 0.6036781), (0.7921093, 0.015449014, 0.6101837), (0.628353, 0.58873117, 0.50849605), (0.5486522, 0.578406, 0.6036781), (0.76236314, 0.006355706, 0.64711833), (0.6673184, -0.5811349, 0.46579868), (0.76236314, 0.006355706, 0.64711833), (0.73774236, -0.017932419, 0.67484415), (0.65538985, -0.5964436, 0.46337816), (0.7627771, -0.58917594, 0.26653865), (0.94034517, -0.01976353, 0.33964738), (0.8639225, -0.01325658, 0.5034504), (0.6834518, -0.58377093, 0.438298), (0.30313084, -0.9477176, 0.09971499), (0.7627771, -0.58917594, 0.26653865), (0.6834518, -0.58377093, 0.438298), (0.24943034, -0.9450576, 0.21130714), (-0.28108, -0.9539554, -0.10470483), (0.30313084, -0.9477176, 0.09971499), (0.24943034, -0.9450576, 0.21130714), (-0.28573996, -0.95399344, -0.09082581), (-0.75996286, -0.59278667, -0.26657167), (-0.28108, -0.9539554, -0.10470483), (-0.28573996, -0.95399344, -0.09082581), (-0.7189162, -0.5987618, -0.35304925), (-0.94878566, -0.0059711784, -0.31586406), (-0.75996286, -0.59278667, -0.26657167), (-0.7189162, -0.5987618, -0.35304925), (-0.8818619, -0.012177283, -0.47135055), (-0.77498144, 0.58693504, -0.23433106), (-0.94878566, -0.0059711784, -0.31586406), (-0.8818619, -0.012177283, -0.47135055), (-0.70519394, 0.5832909, -0.40307972), (-0.29611483, 0.95385355, -0.049792666), (-0.77498144, 0.58693504, -0.23433106), (-0.70519394, 0.5832909, -0.40307972), (-0.24583486, 0.955, -0.16595306), (0.2981762, 0.94253176, 0.15074766), (-0.29611483, 0.95385355, -0.049792666), (-0.24583486, 0.955, -0.16595306), (0.3148916, 0.93938494, 0.13564369), (0.7692273, 0.56508225, 0.2982805), (0.2981762, 0.94253176, 0.15074766), (0.3148916, 0.93938494, 0.13564369), (0.72996306, 0.56091523, 0.39054823), (0.94034517, -0.01976353, 0.33964738), (0.7692273, 0.56508225, 0.2982805), (0.72996306, 0.56091523, 0.39054823), (0.8639225, -0.01325658, 0.5034504), (0.7968616, -0.583394, 0.15704498), (0.9721188, -0.009361316, 0.23430227), (0.94034517, -0.01976353, 0.33964738), (0.7627771, -0.58917594, 0.26653865), (0.46687657, 0.58175904, -0.66602), (0.6411415, -0.008943426, -0.76737064), (0.62761456, -0.02155246, -0.77822584), (0.50286424, 0.5696729, -0.6500771), (0.34099627, -0.931445, -0.12701121), (-0.0063288864, -0.9314452, 0.36382675), (-0.10590097, -0.94732547, 0.3022572), (0.24980709, -0.9473254, -0.200427), (-0.0063288864, -0.9314452, 0.36382675), (-0.3294469, -0.5852065, 0.7409441), (-0.39502802, -0.59277976, 0.70182973), (-0.10590097, -0.94732547, 0.3022572), (0.50286424, 0.5696729, -0.6500771), (0.19592483, 0.94820917, -0.25002554), (0.13326304, 0.94868195, -0.28678158), (0.46687657, 0.58175904, -0.66602), (0.5891293, -0.58521456, -0.5571808), (0.34099627, -0.931445, -0.12701121), (0.24980709, -0.9473254, -0.200427), (0.5304253, -0.5927839, -0.6060166), (-0.6276067, 0.5891754, 0.5089029), (-0.76996565, 0.019761503, 0.63777924), (-0.6426279, 0.013254936, 0.76606375), (-0.49484503, 0.5837706, 0.64369273), (0.8052473, 0.16402431, 0.5698006), (0.8052473, 0.16402431, 0.5698006), (0.8052473, 0.16402431, 0.5698006), (0.8052473, 0.16402431, 0.5698006), (0.8052473, 0.16402431, 0.5698006), (0.8052473, 0.16402431, 0.5698006), (0.8052473, 0.16402431, 0.5698006), (0.8052473, 0.16402431, 0.5698006), (0.8052473, 0.16402431, 0.5698006), (0.8052473, 0.16402431, 0.5698006), (0.6411415, -0.008943426, -0.76737064), (0.5891293, -0.58521456, -0.5571808), (0.5304253, -0.5927839, -0.6060166), (0.62761456, -0.02155246, -0.77822584), (0.29563943, 0.0143344635, 0.955192), (0.19470139, 0.61620355, 0.7631412), (0.2364643, 0.59430534, 0.768691), (0.3307783, 0.012404739, 0.94362694), (-0.18934225, 0.92289233, -0.3352898), (-0.3093882, 0.5359074, -0.78554577), (-0.3439914, 0.56468135, -0.7502033), (-0.18487228, 0.9400696, -0.28651586), (-0.23018472, -0.57596856, -0.78439486), (-0.06230049, -0.94011873, -0.335105), (-0.08951941, -0.9481144, -0.30506605), (-0.28586423, -0.5800843, -0.7627476), (0.2664766, -0.5899766, 0.7621796), (0.29563943, 0.0143344635, 0.955192), (0.3307783, 0.012404739, 0.94362694), (0.2890581, -0.5693072, 0.7696329), (-0.32185528, -0.02340446, -0.9464996), (-0.23018472, -0.57596856, -0.78439486), (-0.28586423, -0.5800843, -0.7627476), (-0.38097915, -0.011962953, -0.92450625), (0.12570241, -0.95846343, 0.25602105), (0.2664766, -0.5899766, 0.7621796), (0.2890581, -0.5693072, 0.7696329), (0.12962547, -0.94626737, 0.296269), (0.19470139, 0.61620355, 0.7631412), (0.0038692746, 0.96576464, 0.25939098), (0.0376336, 0.95382446, 0.29799774), (0.2364643, 0.59430534, 0.768691), (0.0038692746, 0.96576464, 0.25939098), (-0.18934225, 0.92289233, -0.3352898), (-0.18487228, 0.9400696, -0.28651586), (0.0376336, 0.95382446, 0.29799774), (-0.06230049, -0.94011873, -0.335105), (0.12570241, -0.95846343, 0.25602105), (0.12962547, -0.94626737, 0.296269), (-0.08951941, -0.9481144, -0.30506605), (0.0939747, -0.9526362, 0.28922847), (0.37919608, -0.58473563, 0.7171434), (0.458012, -0.5795814, 0.6740255), (0.08340121, -0.95163715, 0.29568708), (-0.3093882, 0.5359074, -0.78554577), (-0.32185528, -0.02340446, -0.9464996), (-0.38097915, -0.011962953, -0.92450625), (-0.3439914, 0.56468135, -0.7502033), (-0.3439914, 0.56468135, -0.7502033), (-0.38097915, -0.011962953, -0.92450625), (-0.5623257, -0.034181084, -0.82620907), (-0.46891633, 0.54419863, -0.6956761), (-0.2254557, -0.9430686, -0.24452238), (0.0939747, -0.9526362, 0.28922847), (0.08340121, -0.95163715, 0.29568708), (-0.3185311, -0.9310849, -0.17781708), (0.50545657, 0.011096983, 0.8627807), (0.41619933, 0.6036474, 0.6799911), (0.5428234, 0.59403414, 0.59368867), (0.62803435, 0.016862018, 0.778003), (0.41619933, 0.6036474, 0.6799911), (0.14142917, 0.96144307, 0.23584948), (0.23170826, 0.9548687, 0.18584178), (0.5428234, 0.59403414, 0.59368867), (-0.46900457, -0.5884832, -0.65857583), (-0.2254557, -0.9430686, -0.24452238), (-0.3185311, -0.9310849, -0.17781708), (-0.5932339, -0.58847666, -0.5493349), (0.37919608, -0.58473563, 0.7171434), (0.50545657, 0.011096983, 0.8627807), (0.62803435, 0.016862018, 0.778003), (0.458012, -0.5795814, 0.6740255), (0.14142917, 0.96144307, 0.23584948), (-0.20224763, 0.93411136, -0.2941631), (-0.19628504, 0.932816, -0.3022028), (0.23170826, 0.9548687, 0.18584178), (-0.5623257, -0.034181084, -0.82620907), (-0.46900457, -0.5884832, -0.65857583), (-0.5932339, -0.58847666, -0.5493349), (-0.6828018, -0.056979414, -0.72837836), (-0.28586423, -0.5800843, -0.7627476), (-0.08951941, -0.9481144, -0.30506605), (-0.2254557, -0.9430686, -0.24452238), (-0.46900457, -0.5884832, -0.65857583), (0.2890581, -0.5693072, 0.7696329), (0.3307783, 0.012404739, 0.94362694), (0.50545657, 0.011096983, 0.8627807), (0.37919608, -0.58473563, 0.7171434), (0.0376336, 0.95382446, 0.29799774), (-0.18487228, 0.9400696, -0.28651586), (-0.20224763, 0.93411136, -0.2941631), (0.14142917, 0.96144307, 0.23584948), (-0.38097915, -0.011962953, -0.92450625), (-0.28586423, -0.5800843, -0.7627476), (-0.46900457, -0.5884832, -0.65857583), (-0.5623257, -0.034181084, -0.82620907), (0.12962547, -0.94626737, 0.296269), (0.2890581, -0.5693072, 0.7696329), (0.37919608, -0.58473563, 0.7171434), (0.0939747, -0.9526362, 0.28922847), (0.2364643, 0.59430534, 0.768691), (0.0376336, 0.95382446, 0.29799774), (0.14142917, 0.96144307, 0.23584948), (0.41619933, 0.6036474, 0.6799911), (-0.18487228, 0.9400696, -0.28651586), (-0.3439914, 0.56468135, -0.7502033), (-0.46891633, 0.54419863, -0.6956761), (-0.20224763, 0.93411136, -0.2941631), (-0.08951941, -0.9481144, -0.30506605), (0.12962547, -0.94626737, 0.296269), (0.0939747, -0.9526362, 0.28922847), (-0.2254557, -0.9430686, -0.24452238), (0.3307783, 0.012404739, 0.94362694), (0.2364643, 0.59430534, 0.768691), (0.41619933, 0.6036474, 0.6799911), (0.50545657, 0.011096983, 0.8627807), (-0.20224763, 0.93411136, -0.2941631), (-0.46891633, 0.54419863, -0.6956761), (-0.547667, 0.5249197, -0.65155214), (-0.19628504, 0.932816, -0.3022028), (0.72705525, -0.54293036, 0.42025846), (0.8848752, 0.029006796, 0.4649244), (0.834636, 0.01506348, 0.5505958), (0.6562504, -0.5830243, 0.47897598), (-0.90652543, -0.03244299, -0.42090267), (-0.74000686, -0.6003898, -0.30318645), (-0.7358261, -0.5750744, -0.35756052), (-0.87644064, -0.057051912, -0.47811806), (0.2790769, -0.933286, 0.22603853), (0.72705525, -0.54293036, 0.42025846), (0.6562504, -0.5830243, 0.47897598), (0.19462885, -0.95433336, 0.22664367), (0.7271764, 0.5835247, 0.36154324), (0.29703924, 0.9449431, 0.13729617), (0.22148961, 0.96696645, 0.12616791), (0.67436135, 0.6068951, 0.4206128), (0.29703924, 0.9449431, 0.13729617), (-0.27348033, 0.9509316, -0.14469859), (-0.3452737, 0.91346925, -0.2153139), (0.22148961, 0.96696645, 0.12616791), (-0.29378596, -0.9542432, -0.055764917), (0.2790769, -0.933286, 0.22603853), (0.19462885, -0.95433336, 0.22664367), (-0.34840253, -0.93202233, -0.099749856), (0.8848752, 0.029006796, 0.4649244), (0.7271764, 0.5835247, 0.36154324), (0.67436135, 0.6068951, 0.4206128), (0.834636, 0.01506348, 0.5505958), (-0.27348033, 0.9509316, -0.14469859), (-0.74136144, 0.56307757, -0.36513937), (-0.75157285, 0.49358737, -0.4376183), (-0.3452737, 0.91346925, -0.2153139), (-0.74000686, -0.6003898, -0.30318645), (-0.29378596, -0.9542432, -0.055764917), (-0.34840253, -0.93202233, -0.099749856), (-0.7358261, -0.5750744, -0.35756052), (-0.17676544, 0.16402572, 0.9704894), (-0.17676544, 0.16402572, 0.9704894), (-0.17676544, 0.16402572, 0.9704894), (-0.17676544, 0.16402572, 0.9704894), (-0.17676544, 0.16402572, 0.9704894), (-0.17676544, 0.16402572, 0.9704894), (-0.17676544, 0.16402572, 0.9704894), (-0.17676544, 0.16402572, 0.9704894), (-0.17676544, 0.16402572, 0.9704894), (-0.17676544, 0.16402572, 0.9704894), (-0.79679847, 0.5140184, -0.31764337), (-0.9343515, -0.060796145, -0.3511285), (-0.90652543, -0.03244299, -0.42090267), (-0.74136144, 0.56307757, -0.36513937), (-0.34501383, 0.92580926, -0.15441082), (-0.79679847, 0.5140184, -0.31764337), (-0.74136144, 0.56307757, -0.36513937), (-0.27348033, 0.9509316, -0.14469859), (0.2617256, 0.96157336, 0.082924075), (-0.34501383, 0.92580926, -0.15441082), (-0.27348033, 0.9509316, -0.14469859), (0.29703924, 0.9449431, 0.13729617), (0.75020874, 0.5941207, 0.29018503), (0.2617256, 0.96157336, 0.082924075), (0.29703924, 0.9449431, 0.13729617), (0.7271764, 0.5835247, 0.36154324), (0.9225085, -0.0068946118, 0.38591528), (0.75020874, 0.5941207, 0.29018503), (0.7271764, 0.5835247, 0.36154324), (0.8848752, 0.029006796, 0.4649244), (0.7192493, -0.60892034, 0.33450925), (0.9225085, -0.0068946118, 0.38591528), (0.8848752, 0.029006796, 0.4649244), (0.72705525, -0.54293036, 0.42025846), (0.21499544, -0.9652219, 0.14874017), (0.7192493, -0.60892034, 0.33450925), (0.72705525, -0.54293036, 0.42025846), (0.2790769, -0.933286, 0.22603853), (-0.34689566, -0.9344924, -0.079920486), (0.21499544, -0.9652219, 0.14874017), (0.2790769, -0.933286, 0.22603853), (-0.29378596, -0.9542432, -0.055764917), (-0.76299405, -0.59086955, -0.2621321), (-0.34689566, -0.9344924, -0.079920486), (-0.29378596, -0.9542432, -0.055764917), (-0.74000686, -0.6003898, -0.30318645), (-0.9343515, -0.060796145, -0.3511285), (-0.76299405, -0.59086955, -0.2621321), (-0.74000686, -0.6003898, -0.30318645), (-0.90652543, -0.03244299, -0.42090267), (-0.74136144, 0.56307757, -0.36513937), (-0.90652543, -0.03244299, -0.42090267), (-0.87644064, -0.057051912, -0.47811806), (-0.75157285, 0.49358737, -0.4376183), (-0.15635128, -0.6014866, 0.7834335), (-0.14706042, 0.0022550242, 0.98912495), (0.035679303, -0.04343564, 0.998419), (-0.009929612, -0.5934446, 0.8048136), (0.08668602, -0.004041048, -0.99622744), (0.04252591, -0.5674756, -0.82229125), (-0.1382078, -0.59851503, -0.7890997), (-0.12486263, -0.0032029499, -0.9921689), (-0.10992353, -0.9596047, 0.2589896), (-0.15635128, -0.6014866, 0.7834335), (-0.009929612, -0.5934446, 0.8048136), (-0.06720948, -0.9418812, 0.3291546), (-0.09625531, 0.6056134, 0.78991604), (-0.02203443, 0.96122676, 0.27487743), (0.032334663, 0.9335211, 0.35706136), (0.052959442, 0.5367269, 0.84209234), (-0.02203443, 0.96122676, 0.27487743), (0.052264135, 0.93952197, -0.33847734), (-0.019242316, 0.9604743, -0.27770257), (0.032334663, 0.9335211, 0.35706136), (-0.029656919, -0.9341055, -0.35576296), (-0.10992353, -0.9596047, 0.2589896), (-0.06720948, -0.9418812, 0.3291546), (-0.116057746, -0.9533142, -0.27878806), (-0.14706042, 0.0022550242, 0.98912495), (-0.09625531, 0.6056134, 0.78991604), (0.052959442, 0.5367269, 0.84209234), (0.035679303, -0.04343564, 0.998419), (0.052264135, 0.93952197, -0.33847734), (0.0932069, 0.56747365, -0.8180991), (-0.079698645, 0.5984816, -0.7971625), (-0.019242316, 0.9604743, -0.27770257), (0.04252591, -0.5674756, -0.82229125), (-0.029656919, -0.9341055, -0.35576296), (-0.116057746, -0.9533142, -0.27878806), (-0.1382078, -0.59851503, -0.7890997), (-0.97955436, 0.16402832, -0.11648157), (-0.97955436, 0.16402832, -0.11648157), (-0.97955436, 0.16402832, -0.11648157), (-0.97955436, 0.16402832, -0.11648157), (-0.97955436, 0.16402832, -0.11648157), (-0.97955436, 0.16402832, -0.11648157), (-0.97955436, 0.16402832, -0.11648157), (-0.97955436, 0.16402832, -0.11648157), (-0.97955436, 0.16402832, -0.11648157), (-0.97955436, 0.16402832, -0.11648157), (0.26782238, 0.5140235, -0.81489325), (0.29274714, -0.06080137, -0.95425487), (0.08668602, -0.004041048, -0.99622744), (0.0932069, 0.56747365, -0.8180991), (0.13280651, 0.92580974, -0.35389087), (0.26782238, 0.5140235, -0.81489325), (0.0932069, 0.56747365, -0.8180991), (0.052264135, 0.93952197, -0.33847734), (-0.06660019, 0.9615731, 0.2663485), (0.13280651, 0.92580974, -0.35389087), (0.052264135, 0.93952197, -0.33847734), (-0.02203443, 0.96122676, 0.27487743), (-0.24329342, 0.5941188, 0.7667015), (-0.06660019, 0.9615731, 0.2663485), (-0.02203443, 0.96122676, 0.27487743), (-0.09625531, 0.6056134, 0.78991604), (-0.32819864, -0.0069054128, 0.9445835), (-0.24329342, 0.5941188, 0.7667015), (-0.09625531, 0.6056134, 0.78991604), (-0.14706042, 0.0022550242, 0.98912495), (-0.28944522, -0.60892206, 0.738536), (-0.32819864, -0.0069054128, 0.9445835), (-0.14706042, 0.0022550242, 0.98912495), (-0.15635128, -0.6014866, 0.7834335), (-0.13517784, -0.9652209, 0.22377579), (-0.28944522, -0.60892206, 0.738536), (-0.15635128, -0.6014866, 0.7834335), (-0.10992353, -0.9596047, 0.2589896), (0.058342952, -0.9344908, -0.35117385), (-0.13517784, -0.9652209, 0.22377579), (-0.10992353, -0.9596047, 0.2589896), (-0.029656919, -0.9341055, -0.35576296), (0.21450341, -0.59087324, -0.7777257), (0.058342952, -0.9344908, -0.35117385), (-0.029656919, -0.9341055, -0.35576296), (0.04252591, -0.5674756, -0.82229125), (0.29274714, -0.06080137, -0.95425487), (0.21450341, -0.59087324, -0.7777257), (0.04252591, -0.5674756, -0.82229125), (0.08668602, -0.004041048, -0.99622744), (0.0932069, 0.56747365, -0.8180991), (0.08668602, -0.004041048, -0.99622744), (-0.12486263, -0.0032029499, -0.9921689), (-0.079698645, 0.5984816, -0.7971625), (0.22907549, 0.9539554, -0.1936322), (-0.2515137, 0.9477178, 0.19639727), (-0.16322358, 0.9450581, 0.28323707), (0.23815678, 0.95399326, -0.18214884), (-0.76996565, 0.019761503, 0.63777924), (-0.62293684, -0.5650815, 0.5409553), (-0.5547704, -0.56091404, 0.614496), (-0.6426279, 0.013254936, 0.76606375), (-0.62293684, -0.5650815, 0.5409553), (-0.22958632, -0.94253117, 0.24274506), (-0.25042662, -0.9393841, 0.2341881), (-0.5547704, -0.56091404, 0.614496), (-0.22958632, -0.94253117, 0.24274506), (0.26180345, -0.9538534, -0.14704591), (0.17518537, -0.95500004, -0.23934282), (-0.25042662, -0.9393841, 0.2341881), (0.26180345, -0.9538534, -0.14704591), (0.649988, -0.5869349, -0.48272455), (0.52722114, -0.58329076, -0.6179076), (0.17518537, -0.95500004, -0.23934282), (0.649988, -0.5869349, -0.48272455), (0.7859553, 0.0059720315, -0.61825454), (0.67037016, 0.012178915, -0.7419269), (0.52722114, -0.58329076, -0.6179076), (0.7859553, 0.0059720315, -0.61825454), (0.6249464, 0.59278744, -0.50798124), (0.5570613, 0.5987623, -0.57547057), (0.67037016, 0.012178915, -0.7419269), (0.6249464, 0.59278744, -0.50798124), (0.22907549, 0.9539554, -0.1936322), (0.23815678, 0.95399326, -0.18214884), (0.5570613, 0.5987623, -0.57547057), (-0.6960093, 0.5853209, 0.4158974), (-0.8359939, 0.008417343, 0.54867417), (-0.76996565, 0.019761503, 0.63777924), (-0.6276067, 0.5891754, 0.5089029), (0.5269925, 0.580042, -0.62115216), (0.25913763, 0.9454225, -0.19754495), (0.19592483, 0.94820917, -0.25002554), (0.50286424, 0.5696729, -0.6500771), (0.1476331, -0.94711065, -0.28493118), (0.46067965, -0.577425, -0.6740583), (0.5304253, -0.5927839, -0.6060166), (0.24980709, -0.9473254, -0.200427), (-0.21958372, -0.9471106, 0.234018), (0.1476331, -0.94711065, -0.28493118), (0.24980709, -0.9473254, -0.200427), (-0.10590097, -0.94732547, 0.3022572), (0.60165995, -0.0010285764, -0.7987518), (0.5269925, 0.580042, -0.62115216), (0.50286424, 0.5696729, -0.6500771), (0.62761456, -0.02155246, -0.77822584), (-0.5530827, -0.0010255933, 0.83312577), (-0.482397, -0.5774221, 0.6586933), (-0.39502802, -0.59277976, 0.70182973), (-0.5250909, -0.021545686, 0.85077333), (-0.10007714, 0.94542295, 0.31009674), (-0.41044077, 0.58004224, 0.7036259), (-0.44574544, 0.56967485, 0.6904937), (-0.17059712, 0.94821006, 0.26794454), (-0.44574544, 0.56967485, 0.6904937), (-0.5250909, -0.021545686, 0.85077333), (-0.51035446, -0.008932955, 0.8599177), (-0.4727514, 0.5817635, 0.66185904), (0.25913763, 0.9454225, -0.19754495), (-0.10007714, 0.94542295, 0.31009674), (-0.17059712, 0.94821006, 0.26794454), (0.19592483, 0.94820917, -0.25002554), (-0.4727514, 0.5817635, 0.66185904), (-0.2261122, 0.9486806, 0.22108473), (-0.17059712, 0.94821006, 0.26794454), (-0.44574544, 0.56967485, 0.6904937), (-0.482397, -0.5774221, 0.6586933), (-0.21958372, -0.9471106, 0.234018), (-0.10590097, -0.94732547, 0.3022572), (-0.39502802, -0.59277976, 0.70182973), (0.46067965, -0.577425, -0.6740583), (0.60165995, -0.0010285764, -0.7987518), (0.62761456, -0.02155246, -0.77822584), (0.5304253, -0.5927839, -0.6060166), (0.77114564, -0.37192824, 0.5167243), (0.77114564, -0.37192824, 0.5167243), (0.77114564, -0.37192824, 0.5167243), (0.77114564, -0.37192824, 0.5167243), (0.77114564, -0.37192824, 0.5167243), (0.77114564, -0.37192824, 0.5167243), (0.77114564, -0.37192824, 0.5167243), (0.77114564, -0.37192824, 0.5167243), (0.77114564, -0.37192824, 0.5167243), (0.77114564, -0.37192824, 0.5167243), (-0.2261122, 0.9486806, 0.22108473), (0.13326304, 0.94868195, -0.28678158), (0.19592483, 0.94820917, -0.25002554), (-0.17059712, 0.94821006, 0.26794454), (-0.6256706, 0.18907855, 0.75682604), (-0.6256706, 0.18907855, 0.75682604), (-0.6256706, 0.18907855, 0.75682604), (-0.6256706, 0.18907855, 0.75682604), (-0.6256706, 0.18907855, 0.75682604), (-0.6256706, 0.18907855, 0.75682604), (-0.6256706, 0.18907855, 0.75682604), (-0.6256706, 0.18907855, 0.75682604), (-0.6256706, 0.18907855, 0.75682604), (-0.6256706, 0.18907855, 0.75682604), (-0.41044077, 0.58004224, 0.7036259), (-0.5530827, -0.0010255933, 0.83312577), (-0.5250909, -0.021545686, 0.85077333), (-0.44574544, 0.56967485, 0.6904937), (-0.5623257, -0.034181084, -0.82620907), (-0.6828018, -0.056979414, -0.72837836), (-0.547667, 0.5249197, -0.65155214), (-0.46891633, 0.54419863, -0.6956761), (-0.49484503, 0.5837706, 0.64369273), (-0.6426279, 0.013254936, 0.76606375), (-0.5530827, -0.0010255933, 0.83312577), (-0.41044077, 0.58004224, 0.7036259), (-0.8359939, 0.008417343, 0.54867417), (-0.65852743, -0.57831573, 0.48155218), (-0.62293684, -0.5650815, 0.5409553), (-0.76996565, 0.019761503, 0.63777924), (0.85449135, -0.0049674553, -0.51944184), (0.6791278, 0.5838693, -0.44483933), (0.6249464, 0.59278744, -0.50798124), (0.7859553, 0.0059720315, -0.61825454), (0.7054934, -0.59404147, -0.38651493), (0.85449135, -0.0049674553, -0.51944184), (0.7859553, 0.0059720315, -0.61825454), (0.649988, -0.5869349, -0.48272455), (0.24213587, 0.9506671, -0.1939134), (-0.28941604, 0.94759923, 0.1352556), (-0.2515137, 0.9477178, 0.19639727), (0.22907549, 0.9539554, -0.1936322), (-0.22810909, -0.94508827, 0.23403926), (0.29020762, -0.9521361, -0.096002184), (0.26180345, -0.9538534, -0.14704591), (-0.22958632, -0.94253117, 0.24274506), (-0.65852743, -0.57831573, 0.48155218), (-0.22810909, -0.94508827, 0.23403926), (-0.22958632, -0.94253117, 0.24274506), (-0.62293684, -0.5650815, 0.5409553), (0.29020762, -0.9521361, -0.096002184), (0.7054934, -0.59404147, -0.38651493), (0.649988, -0.5869349, -0.48272455), (0.26180345, -0.9538534, -0.14704591), (0.6791278, 0.5838693, -0.44483933), (0.24213587, 0.9506671, -0.1939134), (0.22907549, 0.9539554, -0.1936322), (0.6249464, 0.59278744, -0.50798124), (0.23815678, 0.95399326, -0.18214884), (-0.16322358, 0.9450581, 0.28323707), (-0.10007714, 0.94542295, 0.31009674), (0.25913763, 0.9454225, -0.19754495), (-0.25042662, -0.9393841, 0.2341881), (0.17518537, -0.95500004, -0.23934282), (0.1476331, -0.94711065, -0.28493118), (-0.21958372, -0.9471106, 0.234018), (0.17518537, -0.95500004, -0.23934282), (0.52722114, -0.58329076, -0.6179076), (0.46067965, -0.577425, -0.6740583), (0.1476331, -0.94711065, -0.28493118), (-0.6426279, 0.013254936, 0.76606375), (-0.5547704, -0.56091404, 0.614496), (-0.482397, -0.5774221, 0.6586933), (-0.5530827, -0.0010255933, 0.83312577), (0.52722114, -0.58329076, -0.6179076), (0.67037016, 0.012178915, -0.7419269), (0.60165995, -0.0010285764, -0.7987518), (0.46067965, -0.577425, -0.6740583), (-0.5547704, -0.56091404, 0.614496), (-0.25042662, -0.9393841, 0.2341881), (-0.21958372, -0.9471106, 0.234018), (-0.482397, -0.5774221, 0.6586933), (-0.16322358, 0.9450581, 0.28323707), (-0.49484503, 0.5837706, 0.64369273), (-0.41044077, 0.58004224, 0.7036259), (-0.10007714, 0.94542295, 0.31009674), (-0.28941604, 0.94759923, 0.1352556), (-0.6960093, 0.5853209, 0.4158974), (-0.6276067, 0.5891754, 0.5089029), (-0.2515137, 0.9477178, 0.19639727), (-0.85920006, -0.0102437725, 0.5115371), (-0.6724502, -0.59413344, 0.44137993), (-0.65852743, -0.57831573, 0.48155218), (-0.8359939, 0.008417343, 0.54867417), (0.5570613, 0.5987623, -0.57547057), (0.23815678, 0.95399326, -0.18214884), (0.25913763, 0.9454225, -0.19754495), (0.5269925, 0.580042, -0.62115216), (0.7206316, -0.5941336, -0.35734475), (0.875523, -0.010242078, -0.48306802), (0.85449135, -0.0049674553, -0.51944184), (0.7054934, -0.59404147, -0.38651493), (0.25603965, 0.947814, -0.18997985), (-0.29330254, 0.9478144, 0.124985784), (-0.28941604, 0.94759923, 0.1352556), (0.24213587, 0.9506671, -0.1939134), (-0.29330254, 0.9478144, 0.124985784), (-0.7169773, 0.57635504, 0.39212024), (-0.6960093, 0.5853209, 0.4158974), (-0.28941604, 0.94759923, 0.1352556), (0.875523, -0.010242078, -0.48306802), (0.7006154, 0.57635516, -0.42065758), (0.6791278, 0.5838693, -0.44483933), (0.85449135, -0.0049674553, -0.51944184), (-0.23029515, -0.95019853, 0.20996878), (0.29754832, -0.9501984, -0.09267083), (0.29020762, -0.9521361, -0.096002184), (-0.22810909, -0.94508827, 0.23403926), (-0.7169773, 0.57635504, 0.39212024), (-0.85920006, -0.0102437725, 0.5115371), (-0.8359939, 0.008417343, 0.54867417), (-0.6960093, 0.5853209, 0.4158974), (0.7006154, 0.57635516, -0.42065758), (0.25603965, 0.947814, -0.18997985), (0.24213587, 0.9506671, -0.1939134), (0.6791278, 0.5838693, -0.44483933), (0.67037016, 0.012178915, -0.7419269), (0.5570613, 0.5987623, -0.57547057), (0.5269925, 0.580042, -0.62115216), (0.60165995, -0.0010285764, -0.7987518), (0.29754832, -0.9501984, -0.09267083), (0.7206316, -0.5941336, -0.35734475), (0.7054934, -0.59404147, -0.38651493), (0.29020762, -0.9521361, -0.096002184), (-0.6724502, -0.59413344, 0.44137993), (-0.23029515, -0.95019853, 0.20996878), (-0.22810909, -0.94508827, 0.23403926), (-0.65852743, -0.57831573, 0.48155218), (-0.2515137, 0.9477178, 0.19639727), (-0.6276067, 0.5891754, 0.5089029), (-0.49484503, 0.5837706, 0.64369273), (-0.16322358, 0.9450581, 0.28323707), (0.029018339, -0.0047693215, 0.99956745), (-0.0011313728, 0.016751908, 0.9998591), (0.3872677, 0.45134068, 0.80393744), (0.43047288, 0.44494838, 0.78531146), (0.63098764, 0.67733103, -0.37825552), (0.6505863, 0.68368846, -0.33061686), (0.41868064, 0.3884915, -0.8208415), (0.3662587, 0.39343005, -0.8432481), (-0.38444015, -0.4301574, -0.81680495), (-0.34030265, -0.47053492, -0.8141197), (-0.6003584, -0.7339319, -0.31766924), (-0.6230834, -0.70563304, -0.33741528), (-0.3739611, -0.45639563, 0.807376), (-0.37596673, -0.42838648, 0.8216654), (-0.0011313728, 0.016751908, 0.9998591), (0.029018339, -0.0047693215, 0.99956745), (-0.013052656, -0.019524029, -0.9997242), (0.04341223, -0.049828514, -0.9978139), (-0.34030265, -0.47053492, -0.8141197), (-0.38444015, -0.4301574, -0.81680495), (-0.6258108, -0.72690576, 0.2827879), (-0.6110439, -0.72306937, 0.32217392), (-0.37596673, -0.42838648, 0.8216654), (-0.3739611, -0.45639563, 0.807376), (0.43047288, 0.44494838, 0.78531146), (0.3872677, 0.45134068, 0.80393744), (0.6406083, 0.70920444, 0.2943638), (0.66340303, 0.7063263, 0.246981), (0.66340303, 0.7063263, 0.246981), (0.6406083, 0.70920444, 0.2943638), (0.6505863, 0.68368846, -0.33061686), (0.63098764, 0.67733103, -0.37825552), (-0.6230834, -0.70563304, -0.33741528), (-0.6003584, -0.7339319, -0.31766924), (-0.6110439, -0.72306937, 0.32217392), (-0.6258108, -0.72690576, 0.2827879), (-0.5159461, -0.32267436, 0.7935243), (-0.49108034, -0.3127894, 0.8130209), (-0.3100101, 0.26943693, 0.9117552), (-0.28504437, 0.23065919, 0.93034726), (0.3662587, 0.39343005, -0.8432481), (0.41868064, 0.3884915, -0.8208415), (0.04341223, -0.049828514, -0.9978139), (-0.013052656, -0.019524029, -0.9997242), (0.38578492, -0.33492085, -0.8596499), (0.5097369, -0.3740535, -0.7747594), (0.16483836, -0.82767755, -0.5364496), (0.0261936, -0.7622163, -0.64679223), (0.41868064, 0.3884915, -0.8208415), (0.5032293, 0.30326337, -0.8091919), (0.17548718, -0.17102535, -0.9695126), (0.04341223, -0.049828514, -0.9978139), (-0.5334312, -0.7645595, 0.36180094), (-0.44628316, -0.7827592, 0.43372732), (-0.49108034, -0.3127894, 0.8130209), (-0.5159461, -0.32267436, 0.7935243), (0.07917396, 0.68918437, 0.72024745), (0.03146266, 0.73351884, 0.6789405), (0.39704716, 0.8932541, 0.21083325), (0.44134983, 0.86623096, 0.23421009), (0.44134983, 0.86623096, 0.23421009), (0.39704716, 0.8932541, 0.21083325), (0.6493656, 0.6951883, -0.30828166), (0.6505108, 0.68203276, -0.33416608), (-0.32425228, -0.9265356, -0.19076721), (-0.19866066, -0.97713834, -0.07572714), (-0.44628316, -0.7827592, 0.43372732), (-0.5334312, -0.7645595, 0.36180094), (-0.28504437, 0.23065919, 0.93034726), (-0.3100101, 0.26943693, 0.9117552), (0.03146266, 0.73351884, 0.6789405), (0.07917396, 0.68918437, 0.72024745), (0.6505108, 0.68203276, -0.33416608), (0.6493656, 0.6951883, -0.30828166), (0.695229, 0.21248008, -0.68666494), (0.6252958, 0.21608567, -0.7498748), (0.0261936, -0.7622163, -0.64679223), (0.16483836, -0.82767755, -0.5364496), (-0.19866066, -0.97713834, -0.07572714), (-0.32425228, -0.9265356, -0.19076721), (-0.34030265, -0.47053492, -0.8141197), (-0.2008043, -0.58451605, -0.78614163), (-0.5017245, -0.8068332, -0.31191772), (-0.6003584, -0.7339319, -0.31766924), (-0.37596673, -0.42838648, 0.8216654), (-0.4689925, -0.36990887, 0.8020059), (-0.14585407, 0.13073066, 0.9806305), (-0.0011313728, 0.016751908, 0.9998591), (0.6406083, 0.70920444, 0.2943638), (0.5592638, 0.7827806, 0.27290744), (0.65614927, 0.67384255, -0.3397123), (0.6505863, 0.68368846, -0.33061686), (0.04341223, -0.049828514, -0.9978139), (0.17548718, -0.17102535, -0.9695126), (-0.2008043, -0.58451605, -0.78614163), (-0.34030265, -0.47053492, -0.8141197), (-0.6110439, -0.72306937, 0.32217392), (-0.6063222, -0.7347083, 0.30426496), (-0.4689925, -0.36990887, 0.8020059), (-0.37596673, -0.42838648, 0.8216654), (0.3872677, 0.45134068, 0.80393744), (0.24728206, 0.5735879, 0.780928), (0.5592638, 0.7827806, 0.27290744), (0.6406083, 0.70920444, 0.2943638), (0.6505863, 0.68368846, -0.33061686), (0.65614927, 0.67384255, -0.3397123), (0.5032293, 0.30326337, -0.8091919), (0.41868064, 0.3884915, -0.8208415), (-0.6003584, -0.7339319, -0.31766924), (-0.5017245, -0.8068332, -0.31191772), (-0.6063222, -0.7347083, 0.30426496), (-0.6110439, -0.72306937, 0.32217392), (-0.0011313728, 0.016751908, 0.9998591), (-0.14585407, 0.13073066, 0.9806305), (0.24728206, 0.5735879, 0.780928), (0.3872677, 0.45134068, 0.80393744), (0.5032293, 0.30326337, -0.8091919), (0.6252958, 0.21608567, -0.7498748), (0.38578492, -0.33492085, -0.8596499), (0.17548718, -0.17102535, -0.9695126), (0.65614927, 0.67384255, -0.3397123), (0.6505108, 0.68203276, -0.33416608), (0.6252958, 0.21608567, -0.7498748), (0.5032293, 0.30326337, -0.8091919), (0.5592638, 0.7827806, 0.27290744), (0.44134983, 0.86623096, 0.23421009), (0.6505108, 0.68203276, -0.33416608), (0.65614927, 0.67384255, -0.3397123), (0.24728206, 0.5735879, 0.780928), (0.07917396, 0.68918437, 0.72024745), (0.44134983, 0.86623096, 0.23421009), (0.5592638, 0.7827806, 0.27290744), (-0.14585407, 0.13073066, 0.9806305), (-0.28504437, 0.23065919, 0.93034726), (0.07917396, 0.68918437, 0.72024745), (0.24728206, 0.5735879, 0.780928), (-0.4689925, -0.36990887, 0.8020059), (-0.5159461, -0.32267436, 0.7935243), (-0.28504437, 0.23065919, 0.93034726), (-0.14585407, 0.13073066, 0.9806305), (-0.6063222, -0.7347083, 0.30426496), (-0.5334312, -0.7645595, 0.36180094), (-0.5159461, -0.32267436, 0.7935243), (-0.4689925, -0.36990887, 0.8020059), (-0.5017245, -0.8068332, -0.31191772), (-0.32425228, -0.9265356, -0.19076721), (-0.5334312, -0.7645595, 0.36180094), (-0.6063222, -0.7347083, 0.30426496), (-0.2008043, -0.58451605, -0.78614163), (0.0261936, -0.7622163, -0.64679223), (-0.32425228, -0.9265356, -0.19076721), (-0.5017245, -0.8068332, -0.31191772), (0.17548718, -0.17102535, -0.9695126), (0.38578492, -0.33492085, -0.8596499), (0.0261936, -0.7622163, -0.64679223), (-0.2008043, -0.58451605, -0.78614163), (0.6252958, 0.21608567, -0.7498748), (0.695229, 0.21248008, -0.68666494), (0.5097369, -0.3740535, -0.7747594), (0.38578492, -0.33492085, -0.8596499), (-0.85459495, -0.029857844, 0.5184361), (-0.8259541, -0.09587479, 0.5555248), (-0.5959849, 0.46669364, 0.6534516), (-0.61775887, 0.51800835, 0.591643), (0.6317031, -0.53395694, -0.5619974), (0.5918035, -0.52672, -0.61019224), (0.14432187, -0.8756627, -0.46085352), (0.16097988, -0.89223325, -0.4219068), (-0.76801175, -0.5880881, 0.25359488), (-0.7354925, -0.62751293, 0.2554963), (-0.8259541, -0.09587479, 0.5555248), (-0.85459495, -0.029857844, 0.5184361), (-0.15714179, 0.8719695, 0.46365467), (-0.1258803, 0.8504052, 0.5108475), (0.4091739, 0.89628994, 0.17100048), (0.37624338, 0.91024745, 0.17288905), (0.37624338, 0.91024745, 0.17288905), (0.4091739, 0.89628994, 0.17100048), (0.7875161, 0.56896925, -0.2368384), (0.782858, 0.5925835, -0.18967919), (-0.3726971, -0.9213135, -0.1108071), (-0.35941935, -0.92334306, -0.13511227), (-0.7354925, -0.62751293, 0.2554963), (-0.76801175, -0.5880881, 0.25359488), (-0.61775887, 0.51800835, 0.591643), (-0.5959849, 0.46669364, 0.6534516), (-0.1258803, 0.8504052, 0.5108475), (-0.15714179, 0.8719695, 0.46365467), (0.782858, 0.5925835, -0.18967919), (0.7875161, 0.56896925, -0.2368384), (0.84506786, 0.013069586, -0.5344992), (0.8783841, 0.030334253, -0.4769919), (0.16097988, -0.89223325, -0.4219068), (0.14432187, -0.8756627, -0.46085352), (-0.35941935, -0.92334306, -0.13511227), (-0.3726971, -0.9213135, -0.1108071), (0.51367676, -0.19909601, 0.834564), (0.51367676, -0.19909601, 0.834564), (0.51367676, -0.19909601, 0.834564), (0.51367676, -0.19909601, 0.834564), (0.51367676, -0.19909601, 0.834564), (0.51367676, -0.19909601, 0.834564), (0.51367676, -0.19909601, 0.834564), (0.51367676, -0.19909601, 0.834564), (0.51367676, -0.19909601, 0.834564), (0.51367676, -0.19909601, 0.834564), (0.8932644, -0.053851914, -0.4462943), (0.8783841, 0.030334253, -0.4769919), (0.6317031, -0.53395694, -0.5619974), (0.6371227, -0.58462, -0.5022889), (0.8224211, 0.5287483, -0.20987812), (0.782858, 0.5925835, -0.18967919), (0.8783841, 0.030334253, -0.4769919), (0.8932644, -0.053851914, -0.4462943), (0.4075986, 0.9044983, 0.12548365), (0.37624338, 0.91024745, 0.17288905), (0.782858, 0.5925835, -0.18967919), (0.8224211, 0.5287483, -0.20987812), (-0.17096694, 0.8952586, 0.41143936), (-0.15714179, 0.8719695, 0.46365467), (0.37624338, 0.91024745, 0.17288905), (0.4075986, 0.9044983, 0.12548365), (-0.6655879, 0.52075505, 0.53460914), (-0.61775887, 0.51800835, 0.591643), (-0.15714179, 0.8719695, 0.46365467), (-0.17096694, 0.8952586, 0.41143936), (-0.89031476, -0.069770664, 0.44996867), (-0.85459495, -0.029857844, 0.5184361), (-0.61775887, 0.51800835, 0.591643), (-0.6655879, 0.52075505, 0.53460914), (-0.7473913, -0.63880736, 0.18256904), (-0.76801175, -0.5880881, 0.25359488), (-0.85459495, -0.029857844, 0.5184361), (-0.89031476, -0.069770664, 0.44996867), (-0.32462835, -0.9359035, -0.13675189), (-0.3726971, -0.9213135, -0.1108071), (-0.76801175, -0.5880881, 0.25359488), (-0.7473913, -0.63880736, 0.18256904), (0.18652579, -0.90348005, -0.38591707), (0.16097988, -0.89223325, -0.4219068), (-0.3726971, -0.9213135, -0.1108071), (-0.32462835, -0.9359035, -0.13675189), (0.6371227, -0.58462, -0.5022889), (0.6317031, -0.53395694, -0.5619974), (0.16097988, -0.89223325, -0.4219068), (0.18652579, -0.90348005, -0.38591707), (0.8783841, 0.030334253, -0.4769919), (0.84506786, 0.013069586, -0.5344992), (0.5918035, -0.52672, -0.61019224), (0.6317031, -0.53395694, -0.5619974), (-0.16625617, -0.61951315, 0.7671782), (-0.28192458, -0.5618696, 0.7777024), (0.091415, -0.10041772, 0.9907369), (0.23161866, -0.16329576, 0.95900327), (-0.20133482, 0.1389401, -0.9696185), (-0.0945721, 0.027764456, -0.9951307), (-0.40940633, -0.4338807, -0.8025795), (-0.5001915, -0.34253687, -0.79528415), (-0.49517614, -0.82886183, 0.26036277), (-0.53305644, -0.8031783, 0.265999), (-0.28192458, -0.5618696, 0.7777024), (-0.16625617, -0.61951315, 0.7671782), (0.541889, 0.34636158, 0.76576096), (0.43899688, 0.40205213, 0.8035147), (0.6135378, 0.7358552, 0.2865107), (0.6447892, 0.7133133, 0.2746473), (0.6447892, 0.7133133, 0.2746473), (0.6135378, 0.7358552, 0.2865107), (0.5451168, 0.7650927, -0.3427548), (0.5030037, 0.80201244, -0.32212317), (-0.6173649, -0.71000415, -0.33875456), (-0.5754906, -0.74713665, -0.33256188), (-0.53305644, -0.8031783, 0.265999), (-0.49517614, -0.82886183, 0.26036277), (0.23161866, -0.16329576, 0.95900327), (0.091415, -0.10041772, 0.9907369), (0.43899688, 0.40205213, 0.8035147), (0.541889, 0.34636158, 0.76576096), (0.5030037, 0.80201244, -0.32212317), (0.5451168, 0.7650927, -0.3427548), (0.26941228, 0.48737264, -0.8305931), (0.17803295, 0.5781777, -0.7962505), (-0.5001915, -0.34253687, -0.79528415), (-0.40940633, -0.4338807, -0.8025795), (-0.5754906, -0.74713665, -0.33256188), (-0.6173649, -0.71000415, -0.33875456), (0.873094, -0.48506117, 0.049218502), (0.873094, -0.48506117, 0.049218502), (0.873094, -0.48506117, 0.049218502), (0.873094, -0.48506117, 0.049218502), (0.873094, -0.48506117, 0.049218502), (0.873094, -0.48506117, 0.049218502), (0.873094, -0.48506117, 0.049218502), (0.873094, -0.48506117, 0.049218502), (0.873094, -0.48506117, 0.049218502), (0.873094, -0.48506117, 0.049218502), (0.044236798, 0.62167394, -0.78202605), (0.17803295, 0.5781777, -0.7962505), (-0.20133482, 0.1389401, -0.9696185), (-0.34457353, 0.19645756, -0.91797245), (0.44380856, 0.8299843, -0.33787578), (0.5030037, 0.80201244, -0.32212317), (0.17803295, 0.5781777, -0.7962505), (0.044236798, 0.62167394, -0.78202605), (0.6725405, 0.693698, 0.2578227), (0.6447892, 0.7133133, 0.2746473), (0.5030037, 0.80201244, -0.32212317), (0.44380856, 0.8299843, -0.33787578), (0.6226285, 0.26383516, 0.73669857), (0.541889, 0.34636158, 0.76576096), (0.6447892, 0.7133133, 0.2746473), (0.6725405, 0.693698, 0.2578227), (0.32920766, -0.27074733, 0.9046094), (0.23161866, -0.16329576, 0.95900327), (0.541889, 0.34636158, 0.76576096), (0.6226285, 0.26383516, 0.73669857), (-0.092812136, -0.7042951, 0.703814), (-0.16625617, -0.61951315, 0.7671782), (0.23161866, -0.16329576, 0.95900327), (0.32920766, -0.27074733, 0.9046094), (-0.47726318, -0.853731, 0.20823845), (-0.49517614, -0.82886183, 0.26036277), (-0.16625617, -0.61951315, 0.7671782), (-0.092812136, -0.7042951, 0.703814), (-0.6562665, -0.67203933, -0.3430414), (-0.6173649, -0.71000415, -0.33875456), (-0.49517614, -0.82886183, 0.26036277), (-0.47726318, -0.853731, 0.20823845), (-0.5991175, -0.278398, -0.7507015), (-0.5001915, -0.34253687, -0.79528415), (-0.6173649, -0.71000415, -0.33875456), (-0.6562665, -0.67203933, -0.3430414), (-0.34457353, 0.19645756, -0.91797245), (-0.20133482, 0.1389401, -0.9696185), (-0.5001915, -0.34253687, -0.79528415), (-0.5991175, -0.278398, -0.7507015), (0.17803295, 0.5781777, -0.7962505), (0.26941228, 0.48737264, -0.8305931), (-0.0945721, 0.027764456, -0.9951307), (-0.20133482, 0.1389401, -0.9696185), (-0.3294469, -0.5852065, 0.7409441), (-0.51035446, -0.008932955, 0.8599177), (-0.5250909, -0.021545686, 0.85077333), (-0.39502802, -0.59277976, 0.70182973)] (
                interpolation = "faceVarying"
            )
            point3f[] points = [(0.13678986, 0.008207333, 0.011172616), (0.1708265, 0.114403576, 0.011172616), (0.04760751, -0.058551878, 0.011172616), (-0.063449904, -0.058551807, 0.011172616), (-0.15263225, 0.008207422, 0.011172616), (-0.18666887, 0.1144036, 0.011172616), (-0.15271415, 0.22023842, 0.011172616), (-0.06321365, 0.28574303, 0.011172616), (0.04737129, 0.28574303, 0.011172616), (0.13687192, 0.22023839, 0.011172616), (-0.16628681, -0.06751437, 1.5812837), (-0.1444297, 0.02218998, 1.624117), (-0.23711585, -0.124039374, 1.5377958), (-0.33305395, -0.12403932, 1.5207907), (-0.41451493, -0.06751432, 1.537284), (-0.44976264, 0.02218999, 1.5699952), (-0.4258822, 0.11215425, 1.6058046), (-0.3518861, 0.16747929, 1.632897), (-0.25796327, 0.16747929, 1.6495453), (-0.17916343, 0.1121542, 1.649537), (-1.1089042, -0.08378408, 3.9760802), (-1.0846686, -0.021256441, 3.9775085), (-1.1556115, -0.12286686, 3.948683), (-1.2104505, -0.12286686, 3.9103706), (-1.2522427, -0.08378405, 3.875938), (-1.2619203, -0.021256385, 3.853672), (-1.2341176, 0.041374967, 3.8480146), (-1.1778803, 0.08177926, 3.8618684), (-1.1212734, 0.08177927, 3.901417), (-1.0889202, 0.041374933, 3.9494567), (-1.8499227, -0.0492783, 4.950835), (-1.845309, -0.021299679, 4.9597945), (-1.8676977, -0.06631704, 4.934893), (-1.8915238, -0.06631704, 4.9182467), (-1.9126079, -0.0492783, 4.9070406), (-1.9226078, -0.021299623, 4.9057903), (-1.9173148, 0.006229169, 4.915026), (-1.8996054, 0.022503896, 4.9306045), (-1.8765216, 0.022503886, 4.9467316), (-1.8558019, 0.0062291436, 4.9580016), (-1.7714694, -0.032718193, 4.8612127), (-1.6342844, -0.01548416, 4.681776), (-1.6190572, 0.02901888, 4.6848783), (-1.7629961, 0.00498868, 4.8705225), (-1.7962202, -0.0555631, 4.841132), (-1.666787, -0.043220647, 4.662642), (-1.828073, -0.055563085, 4.818879), (-1.7049989, -0.04322063, 4.6359453), (-1.8554424, -0.032718144, 4.8025455), (-1.7341464, -0.015484065, 4.6120076), (-1.8670983, 0.004988742, 4.797792), (-1.7422969, 0.029018933, 4.598778), (-1.8579905, 0.04257846, 4.8060656), (-1.7265685, 0.073483385, 4.600276), (-1.8322965, 0.06576527, 4.8245306), (-1.6921707, 0.10217882, 4.616417), (-1.8000748, 0.065765254, 4.8470426), (-1.6528635, 0.102178834, 4.643879), (-1.7738979, 0.042578407, 4.8648167), (-1.6258745, 0.073483355, 4.670625), (-0.8279619, -0.13278776, 3.587944), (-0.5706163, -0.14200088, 3.0171025), (-0.54514647, -0.06875194, 3.014048), (-0.8039152, -0.06408446, 3.5934021), (-0.8786431, -0.17523019, 3.5574043), (-0.6329426, -0.18725598, 3.0087683), (-0.9383245, -0.17523019, 3.5157082), (-0.7095386, -0.18725595, 2.995191), (-0.9844345, -0.13278767, 3.4786253), (-0.77093214, -0.14200085, 2.9815958), (-0.9978314, -0.064084426, 3.4579237), (-0.7938004, -0.06875187, 2.9699728), (-0.9738245, 0.0049350043, 3.4619794), (-0.7692838, 0.0054043196, 2.9656723), (-0.9180965, 0.048302785, 3.4855866), (-0.7048585, 0.05196721, 2.964921), (-0.85731804, 0.04830275, 3.5280492), (-0.6269332, 0.051967196, 2.9787335), (-0.8159815, 0.004934983, 3.5722554), (-0.5666913, 0.005404242, 3.001583), (-0.89101636, 0.009504469, 2.42959), (-0.88909376, -0.045112737, 2.4096944), (-0.8751125, 0.043866016, 2.4733987), (-0.8519687, 0.044355046, 2.526584), (-0.8305228, 0.010782662, 2.5686066), (-0.8142874, -0.04353211, 2.5816023), (-0.8057337, -0.09839607, 2.5598953), (-0.8085142, -0.13425197, 2.5103366), (-0.832404, -0.13475679, 2.4554372), (-0.86701137, -0.099690884, 2.4190757), (-2.056676, 0.014871898, 3.1918323), (-2.0656855, -0.009249391, 3.1904664), (-2.0389693, 0.029506372, 3.202751), (-2.0195565, 0.029419508, 3.218821), (-2.0056014, 0.014643352, 3.2341123), (-2.0027049, -0.009531255, 3.242603), (-2.0120962, -0.033264067, 3.2407265), (-2.0294702, -0.047242835, 3.2297668), (-2.0482779, -0.04715869, 3.2141972), (-2.0622149, -0.033039786, 3.1992369), (-1.5819898, -0.03100299, 2.755718), (-1.5827413, -0.06981217, 2.7429173), (-1.5708553, -0.0066246507, 2.7862074), (-1.5547285, -0.0062839217, 2.823267), (-1.5398448, -0.030112538, 2.8525686), (-1.5307304, -0.06871319, 2.8624413), (-1.5300313, -0.1075189, 2.8494897), (-1.5383139, -0.1328017, 2.8179193), (-1.5549028, -0.13315223, 2.7797968), (-1.5725281, -0.10841683, 2.751832), (-0.4487367, 0.04098562, 2.2764275), (-0.4431248, -0.019046543, 2.2571785), (-0.44811872, 0.07866931, 2.327085), (-0.4439569, 0.07968755, 2.3900666), (-0.43782455, 0.0436552, 2.4415522), (-0.4296016, -0.015738113, 2.4618175), (-0.42297187, -0.07605219, 2.443232), (-0.4161982, -0.11468892, 2.3919568), (-0.42043683, -0.11572585, 2.3278172), (-0.43397966, -0.07874515, 2.2766614), (-1.1875095, -0.03431881, 3.0323102), (-1.1926281, -0.04922089, 3.0339234), (-1.174814, -0.025243571, 3.0330586), (-1.1595837, -0.025243565, 3.0358326), (-1.1474391, -0.034318805, 3.0396087), (-1.143217, -0.049220923, 3.0429232), (-1.1486957, -0.06388342, 3.0443833), (-1.161229, -0.07255173, 3.0435233), (-1.1759846, -0.07255173, 3.0408359), (-1.1880165, -0.06388342, 3.0372214), (-1.0904754, -0.039537083, 2.8601456), (-0.9715632, -0.04871635, 2.5465574), (-0.97562355, -0.07241973, 2.5393448), (-1.0971744, -0.05962067, 2.8604293), (-1.0735986, -0.027369332, 2.8619814), (-0.9565528, -0.033943225, 2.559908), (-1.0532378, -0.027369339, 2.86569), (-0.93677586, -0.033943232, 2.5749168), (-1.0367974, -0.039537102, 2.8699222), (-0.9198785, -0.04871638, 2.5857823), (-1.0306299, -0.059620697, 2.8725498), (-0.91184, -0.07241977, 2.5877528), (-1.0371743, -0.07964188, 2.872206), (-0.9151692, -0.0961026, 2.580024), (-1.0537934, -0.09199172, 2.8694067), (-0.9289716, -0.11138651, 2.5652235), (-1.0743899, -0.09199172, 2.8656554), (-0.94931567, -0.1113865, 2.5497842), (-1.0909275, -0.07964185, 2.8624146), (-0.96728474, -0.096102595, 2.540472), (-1.6598845, -0.028092118, 2.456025), (-1.6622267, -0.046212435, 2.4499342), (-1.6598389, -0.017056989, 2.4714894), (-1.662062, -0.017056989, 2.490182), (-1.6657321, -0.028092118, 2.505204), (-1.6694378, -0.046212483, 2.510577), (-1.6716214, -0.06404148, 2.5040374), (-1.6715193, -0.07458179, 2.488762), (-1.6693653, -0.07458179, 2.470652), (-1.6658827, -0.064041466, 2.4557788), (-1.4212109, -0.033711176, 2.427886), (-1.0316974, -0.044872787, 2.548651), (-1.0232495, -0.073695146, 2.5431812), (-1.422058, -0.05813201, 2.4197774), (-1.4221714, -0.018915702, 2.4485066), (-1.0467726, -0.026909268, 2.5678713), (-1.4251431, -0.01891571, 2.4734962), (-1.0635036, -0.026909275, 2.5930002), (-1.4290444, -0.033711214, 2.4937668), (-1.0754205, -0.044872835, 2.6143236), (-1.4317704, -0.05813204, 2.5014493), (-1.0772083, -0.073695175, 2.6242273), (-1.4318448, -0.082476996, 2.4934797), (-1.0680784, -0.102492526, 2.6196063), (-1.4296948, -0.0974939, 2.4731011), (-1.051153, -0.12107711, 2.6017432), (-1.4266902, -0.0974939, 2.447822), (-1.0339427, -0.12107714, 2.5758939), (-1.4239987, -0.082476966, 2.4275084), (-1.0239906, -0.102492526, 2.5533864), (1.0697073, 0.14284484, 2.5541685), (1.3941287, 0.14320078, 2.8975496), (1.1068451, 0.10752341, 2.5223958), (1.4122899, 0.11030315, 2.8553853), (1.1589257, 0.10752339, 2.4925354), (1.4447771, 0.11030312, 2.809474), (1.2051076, 0.14284475, 2.4765368), (1.4784986, 0.14320077, 2.7783186), (1.2237118, 0.19909765, 2.4733138), (1.4945946, 0.19555703, 2.7692618), (1.2103711, 0.25466233, 2.4874802), (1.4903448, 0.24767345, 2.7874784), (1.1700356, 0.2889916, 2.512942), (1.4669473, 0.2798692, 2.8257835), (1.1188438, 0.2889916, 2.5422935), (1.4350463, 0.2798692, 2.8708653), (1.390943, 0.19555707, 2.9157422), (1.0575271, 0.1990977, 2.568596), (1.0764923, 0.2546624, 2.5642395), (1.4067073, 0.24767351, 2.9056745), (2.2541668, 0.091201775, 3.4737341), (2.2665675, 0.069434166, 3.4477148), (2.287578, 0.06943417, 3.418023), (2.3079896, 0.091201745, 3.3976727), (2.3188326, 0.12493127, 3.3925657), (2.3164096, 0.15869007, 3.4041016), (2.301747, 0.17973025, 3.42867), (2.281322, 0.17973028, 3.4575338), (2.2529588, 0.12493133, 3.4856584), (2.2630327, 0.15869014, 3.4795363), (2.4920552, 0.14221899, 3.6198595), (2.5039525, 0.12987341, 3.606497), (2.5162916, 0.12987341, 3.5890603), (2.5249348, 0.14221898, 3.5733948), (2.5263426, 0.16310157, 3.5654423), (2.519525, 0.18432546, 3.5689018), (2.507351, 0.19725059, 3.5823123), (2.494616, 0.19725059, 3.6003108), (2.4850252, 0.16310164, 3.6238327), (2.4860191, 0.18432546, 3.6162531), (1.6857747, 0.115558386, 3.0967565), (1.6965394, 0.08490874, 3.0541596), (1.7267967, 0.08490875, 3.0113997), (1.7633849, 0.11555835, 2.9870768), (1.7846833, 0.16306883, 2.9839792), (1.7834902, 0.21050061, 3.0023572), (1.7624947, 0.24014777, 3.0376625), (1.7331827, 0.24014777, 3.0790868), (1.6899395, 0.16306888, 3.1178715), (1.7068729, 0.21050064, 3.1106315), (0.44605827, 0.0618672, 1.6884961), (0.50231063, 0.019899076, 1.6682777), (0.5650829, 0.019899074, 1.6322869), (0.61095005, 0.061867144, 1.5939556), (0.6188059, 0.1301116, 1.5622643), (0.585249, 0.19815889, 1.547961), (0.5228665, 0.24103718, 1.5570956), (0.45874724, 0.24103723, 1.5938581), (0.41473988, 0.13011163, 1.6792657), (0.41934848, 0.19815893, 1.64308), (-0.20513967, -0.020122536, 0.5859184), (-0.14532305, -0.06981256, 0.5516227), (-0.07141495, -0.069812566, 0.5092469), (-0.011598097, -0.020122575, 0.4749513), (0.0110949455, 0.060160868, 0.46194002), (-0.011652906, 0.14071846, 0.47498268), (-0.07125684, 0.19136022, 0.50915664), (-0.14548102, 0.19136025, 0.55171305), (-0.22783282, 0.06016091, 0.5989296), (-0.20508485, 0.14071855, 0.58588725), (1.0307091, -0.062218037, 1.853052), (0.9963637, -0.09420602, 1.8375567), (1.0481962, -0.03881464, 1.8926497), (1.0451956, -0.035896093, 1.9417658), (1.0228659, -0.054589543, 1.981433), (0.9866648, -0.08477272, 1.9963126), (0.9476253, -0.11329383, 1.9811629), (0.9198554, -0.1301387, 1.9405061), (0.9229529, -0.1331515, 1.8898066), (0.95557004, -0.121021144, 1.8511169), (1.9302098, -0.7720679, 2.1496468), (1.9228324, -0.7923942, 2.146096), (1.9291217, -0.7553092, 2.1632543), (1.9202659, -0.74835753, 2.1814735), (1.9069111, -0.75377876, 2.197581), (1.8941022, -0.7698413, 2.205205), (1.8870621, -0.7900138, 2.2011395), (1.8882787, -0.8061629, 2.1875892), (1.8968585, -0.81289786, 2.1699376), (1.9099247, -0.80796087, 2.1541011), (1.8673555, -0.7404429, 2.095782), (1.5140331, -0.49076143, 1.9276545), (1.4912472, -0.514779, 1.9171442), (1.855708, -0.7665643, 2.0894525), (1.8666902, -0.71856666, 2.1146493), (1.5264075, -0.47413194, 1.9552311), (1.8548508, -0.70927304, 2.1390061), (1.5243164, -0.47209826, 1.9894553), (1.8361439, -0.7159423, 2.1599956), (1.508569, -0.48544684, 2.0170958), (1.8170152, -0.7361911, 2.1690576), (1.484504, -0.50822026, 2.0275238), (1.8047884, -0.7617707, 2.1623034), (1.4607736, -0.5314828, 2.0172863), (1.8043188, -0.78311116, 2.1428125), (1.445894, -0.5471011, 1.9896154), (1.8162953, -0.79251236, 2.118173), (1.4480447, -0.54919297, 1.9544096), (1.836043, -0.7863052, 2.0979989), (1.4662839, -0.536842, 1.9271), (0.73611313, 0.20636305, 1.8500534), (0.69671595, 0.17251383, 1.8360827), (0.76644653, 0.22315325, 1.8910071), (0.77777064, 0.21524918, 1.9428468), (0.7658017, 0.18564084, 1.9859667), (0.7335091, 0.1468327, 2.0045195), (0.69346243, 0.1131939, 1.9913596), (0.65783626, 0.099579826, 1.9519198), (0.6463045, 0.107628964, 1.8991268), (0.663514, 0.13409752, 1.8542563), (1.5706867, -0.5355264, 2.3504748), (1.5663601, -0.5482677, 2.3501244), (1.5678405, -0.523406, 2.3550882), (1.5591304, -0.516476, 2.3621025), (1.5477713, -0.51729393, 2.3689287), (1.5381031, -0.5257854, 2.3728805), (1.5340877, -0.5385141, 2.3722954), (1.5370215, -0.5502622, 2.3676453), (1.5454599, -0.55697614, 2.3608496), (1.5565745, -0.5564055, 2.3541865), (1.4568131, -0.4545029, 2.1725185), (1.3391491, -0.3708534, 1.9266491), (1.3284681, -0.3880972, 1.9200292), (1.4506105, -0.47137874, 2.1718054), (1.4523895, -0.43776911, 2.1764529), (1.3386071, -0.35437843, 1.9399666), (1.4394516, -0.4274751, 2.182451), (1.3273072, -0.34538785, 1.95535), (1.4227041, -0.42736435, 2.1883311), (1.3096185, -0.34735778, 1.966853), (1.4083253, -0.43773505, 2.1914084), (1.2920252, -0.35910168, 1.9696455), (1.4019849, -0.45443338, 2.1901913), (1.2808183, -0.37590483, 1.9626969), (1.4060359, -0.4710686, 2.1854863), (1.2801368, -0.39196104, 1.9483362), (1.4191238, -0.48148182, 2.1794188), (1.2917606, -0.40120938, 1.9325114), (1.4361414, -0.4816097, 2.1743557), (1.3105949, -0.3995962, 1.9221578), (2.0219226, -0.8861522, 1.736317), (2.0145488, -0.8999643, 1.7315474), (2.0260093, -0.87741965, 1.7492671), (2.025385, -0.8769228, 1.7652447), (2.0202794, -0.8848448, 1.778353), (2.0125225, -0.89835197, 1.7833819), (2.0052485, -0.91192716, 1.7782136), (2.001306, -0.9202372, 1.7654011), (2.001911, -0.9207183, 1.7499214), (2.0068614, -0.91321015, 1.7369647), (1.6641351, -0.61312973, 1.7806294), (1.4091336, -0.4223617, 1.9176681), (1.387912, -0.43677843, 1.9138042), (1.6512041, -0.62936246, 1.7737011), (1.6740482, -0.6049488, 1.7979691), (1.4299581, -0.41942218, 1.9325564), (1.6777695, -0.60790986, 1.8188202), (1.4427886, -0.42963052, 1.9522897), (1.6739457, -0.6209354, 1.8356), (1.4426626, -0.44903895, 1.9692391), (1.6633669, -0.6390398, 1.8418475), (1.4292904, -0.46970072, 1.9774479), (1.6499743, -0.65482295, 1.8351061), (1.4076914, -0.4837896, 1.974363), (1.6391752, -0.6625389, 1.8180777), (1.3854098, -0.4862445, 1.9607874), (1.6354113, -0.6595442, 1.7969849), (1.3722117, -0.47574374, 1.9404883), (1.6401492, -0.6470057, 1.78006), (1.3738824, -0.4568898, 1.922362)]
            texCoord2f[] primvars:st = [(0.16635248, 0.052598894), (0.21247914, 0.047134817), (0.12087068, 0.061658323), (0.07565138, 0.07124263), (0.030004174, 0.07808524), (0.4826525, 0.079928696), (0.43717194, 0.07778603), (0.39258367, 0.07105285), (0.3483259, 0.061622083), (0.30390987, 0.05263549), (0.258557, 0.047134697), (0.17553505, 0.7109505), (0.21488556, 0.7192481), (0.13580355, 0.7038876), (0.09632054, 0.706879), (0.44967481, 0.7120216), (0.05801168, 0.7210763), (0.40946645, 0.72413343), (0.36960566, 0.7325821), (0.33069682, 0.73413956), (0.29227754, 0.73138475), (0.25382045, 0.7264031), (0.17852941, 1.7326655), (0.20524207, 1.7298955), (0.1518732, 1.7332569), (0.12523893, 1.7336645), (0.09834924, 1.733929), (0.36551204, 1.7446041), (0.33934763, 1.7380817), (0.3135657, 1.7293566), (0.2871528, 1.7207592), (0.25993326, 1.7188505), (0.23225579, 1.7245063), (1.2235785, 0.94006515), (0.18599936, 2.2248256), (1.2120813, 0.9436773), (0.19883338, 2.2241771), (0.17356732, 2.2260091), (1.2305819, 0.93046033), (0.16141257, 2.2276993), (1.2305819, 0.91868186), (0.1492888, 2.2300012), (0.27339366, 2.235163), (1.2235785, 0.9090769), (0.26143157, 2.2313159), (1.2120813, 0.90546477), (0.24912211, 2.2282531), (1.2007748, 0.9093667), (0.23684219, 2.226067), (1.1940941, 0.9188653), (0.22448382, 2.224691), (1.1940941, 0.9302765), (0.21179073, 2.2241504), (1.2007748, 0.9397752), (0.1835567, 2.1755228), (0.18085012, 2.0848362), (0.19932732, 2.081764), (0.1989741, 2.1738467), (0.16804108, 2.177178), (0.1620566, 2.087078), (0.15234587, 2.1789892), (0.1430569, 2.0883284), (0.13634357, 2.1811764), (0.2886484, 2.1866949), (0.12394205, 2.0885339), (0.3076994, 2.0948944), (0.2732512, 2.1816409), (0.28973296, 2.088857), (0.25838697, 2.1770258), (0.27209345, 2.0831792), (0.24377021, 2.1733584), (0.25422335, 2.079047), (0.22894447, 2.1719534), (0.23591027, 2.0774527), (0.2140604, 2.1724598), (0.21756263, 2.0788875), (0.18211392, 1.5457127), (0.18773344, 1.3025157), (0.21870556, 1.2978873), (0.21028708, 1.5449444), (0.15409306, 1.5450332), (0.15707687, 1.3078115), (0.12590197, 1.5427892), (0.12638232, 1.3132312), (0.096913606, 1.539785), (0.3862183, 1.5500944), (0.095320314, 1.3167421), (0.4081909, 1.3338361), (0.35711658, 1.5438799), (0.37695795, 1.3282652), (0.32719976, 1.5401838), (0.34575024, 1.3168496), (0.29705343, 1.5364037), (0.31496966, 1.3020253), (0.26746973, 1.5379577), (0.2828512, 1.2951123), (0.23859575, 1.5427784), (0.25039026, 1.2956879), (1.6600808, 0.068342), (1.6637597, 0.09145844), (1.6588519, 0.04500875), (1.6579329, 0.021861523), (1.6568635, -0.0017602742), (1.6618242, 0.23193249), (1.6665775, 0.20898291), (1.6729535, 0.18588427), (1.6789032, 0.16201773), (1.677786, 0.13790223), (1.6703477, 0.11447647), (1.1017556, 0.918422), (1.0966498, 0.10739866), (1.1117245, 0.91529036), (1.095683, 0.11823517), (1.0978861, 0.096900284), (1.0956831, 0.9267503), (1.0985765, 0.08660188), (1.095683, 0.93696296), (1.1006038, 0.18079808), (1.0980949, 0.07595727), (1.1017555, 0.9452914), (1.1009592, 0.17002115), (1.1117245, 0.9484234), (1.1000328, 0.15965363), (1.1215281, 0.9450401), (1.0984081, 0.14959282), (1.1273208, 0.93680406), (1.0967519, 0.13955688), (1.1273208, 0.9269097), (1.095683, 0.1291124), (1.1215281, 0.9186734), (1.3605773, 0.090192825), (1.3643535, 0.10576534), (1.3561906, 0.07480237), (1.3519013, 0.059074253), (1.3488382, 0.042738765), (1.3521705, 0.20221445), (1.3550209, 0.18561473), (1.3596631, 0.16963115), (1.3647159, 0.15394798), (1.3674036, 0.13783869), (1.3668526, 0.12161133), (1.8509213, 0.060462564), (1.8550702, 0.08671132), (1.8441631, 0.03490874), (1.8358816, 0.009939522), (1.832202, 0.24352011), (1.8285844, -0.015199214), (1.8326986, 0.21757773), (1.8372848, 0.19180384), (1.8463042, 0.16646382), (1.8531069, 0.14039117), (1.8551764, 0.11338508), (1.1582949, 0.95983803), (1.1437373, 0.9138882), (1.1563712, 0.95371425), (1.1500857, 0.9146044), (1.1375989, 0.91242504), (1.1634107, 0.9635681), (1.1314415, 0.91110885), (1.1696843, 0.9635681), (1.1250328, 0.9108145), (1.1867709, 0.9074502), (1.1748003, 0.9598378), (1.1803368, 0.90698636), (1.1767242, 0.95371425), (1.1739477, 0.9080838), (1.174646, 0.94769216), (1.1680295, 0.9101399), (1.1695868, 0.9441339), (1.1623391, 0.91235757), (1.1635088, 0.9441339), (1.1563997, 0.9140395), (1.1584493, 0.94769216), (1.1344842, 0.8329073), (1.1239958, 0.6971079), (1.1334751, 0.6939862), (1.1432341, 0.8331413), (1.1259785, 0.83155537), (1.1147972, 0.70083785), (1.1176254, 0.83020866), (1.1055005, 0.7043905), (1.1091578, 0.82975686), (1.1931543, 0.82517123), (1.095683, 0.7067584), (1.1934081, 0.70139253), (1.1846598, 0.82438254), (1.1831565, 0.7005873), (1.1762441, 0.8249335), (1.1732388, 0.6979346), (1.168045, 0.8266908), (1.1635445, 0.6944736), (1.1599689, 0.8292725), (1.1535326, 0.69217825), (1.151803, 0.8317617), (1.1433346, 0.6921787), (1.2358035, 0.90780354), (1.1015568, 0.61603284), (1.2432497, 0.90546477), (1.1014559, 0.62417865), (1.1003972, 0.6081855), (1.2312677, 0.91402435), (1.0982817, 0.6007391), (1.2312677, 0.9216528), (1.095683, 0.5932369), (1.096192, 0.6700442), (1.2358034, 0.9278735), (1.095683, 0.6622672), (1.2432497, 0.93021286), (1.0959449, 0.6545385), (1.2505722, 0.92768586), (1.0970309, 0.64707696), (1.2548989, 0.92153406), (1.0986313, 0.6397519), (1.254899, 0.9141433), (1.1003025, 0.6321827), (1.2505722, 0.90799177), (1.1963197, 0.61155474), (1.3584878, 0.60546136), (1.3619783, 0.61804783), (1.1964412, 0.6212661), (1.1960976, 0.6018971), (1.3541205, 0.5933595), (1.1953784, 0.5921174), (1.350002, 0.5814737), (1.1940941, 0.5819268), (1.1945636, 0.6819737), (1.3474394, 0.5693797), (1.3484199, 0.6914923), (1.1951451, 0.6712717), (1.3501271, 0.6794418), (1.195855, 0.66069674), (1.3540809, 0.6678332), (1.1964823, 0.650517), (1.3591089, 0.65629184), (1.1967148, 0.6406518), (1.3628207, 0.64384735), (1.1966112, 0.6309465), (1.363612, 0.6309612), (0.67542356, 1.0009607), (0.6709468, 1.1885345), (0.7000258, 0.99994606), (0.6927687, 1.1843069), (0.724499, 1.0046153), (0.7151649, 1.1827465), (0.7480934, 1.0153058), (0.73810184, 1.1849992), (0.7719493, 1.0233997), (0.760851, 1.1871996), (0.7957133, 1.02706), (0.5582377, 1.0196682), (0.56332064, 1.1887615), (0.7830188, 1.1913264), (0.58172095, 1.016461), (0.5853849, 1.1904881), (0.6048906, 1.0118116), (0.60682565, 1.191915), (0.64949846, 1.1907367), (0.6514385, 1.0031929), (0.6280389, 1.0072529), (0.62812155, 1.1918758), (0.6661759, 1.5940437), (0.6801066, 1.5929914), (0.6940248, 1.5945952), (0.7075325, 1.59799), (0.7208482, 1.6020855), (0.5957333, 1.604073), (0.73434556, 1.6068544), (0.6101611, 1.6035707), (0.6244523, 1.6018627), (0.65241987, 1.5967174), (0.6385561, 1.5996091), (1.1506176, 0.9182503), (0.6621985, 1.7071817), (0.67142993, 1.707817), (1.1556853, 0.9254556), (0.68050635, 1.7086948), (1.1556852, 0.93411183), (1.1506176, 0.9413172), (0.6897143, 1.7097927), (1.1420406, 0.9442774), (0.69903916, 1.7111933), (0.7082441, 1.7130158), (0.6167519, 1.7098079), (1.1333193, 0.9415374), (1.1280067, 0.9342512), (0.6255828, 1.7081709), (1.1280067, 0.92531645), (0.6344703, 1.7071315), (1.1420406, 0.91529036), (0.6528093, 1.7067325), (1.1333194, 0.9180304), (0.64350146, 1.7066758), (0.66972196, 1.3265473), (0.69063294, 1.3217144), (0.71147454, 1.3224881), (0.73172086, 1.3284923), (0.7515173, 1.3346055), (0.56834567, 1.3364366), (0.77153474, 1.3390268), (0.58873427, 1.3356667), (0.6090088, 1.3347691), (0.64934874, 1.3311598), (0.62917024, 1.333786), (0.6679019, 0.5694166), (0.69713855, 0.5724535), (0.72630715, 0.57381636), (0.7557758, 0.5718889), (0.78582716, 0.5647423), (0.8160971, 0.55489326), (0.5194279, 0.56897575), (0.54821086, 0.55754375), (0.5780874, 0.55461484), (0.6382699, 0.5647715), (0.6083109, 0.5592508), (0.6594453, 0.048614323), (0.69440174, 0.047134697), (0.72929275, 0.047134817), (0.76375544, 0.048579156), (0.7978633, 0.05102724), (0.8323041, 0.053815544), (0.48333842, 0.0601905), (0.5186512, 0.05906421), (0.5540183, 0.05709988), (0.62455416, 0.051266134), (0.5894187, 0.054335654), (1.2617892, 0.3148351), (1.2587414, 0.33453956), (1.2627432, 0.29494295), (1.263425, 0.27516207), (1.264219, 0.25499788), (1.2608349, 0.45428285), (1.2567242, 0.4346843), (1.251219, 0.4149756), (1.2460765, 0.39465317), (1.2469519, 0.3741267), (1.2532105, 0.35416254), (1.1615318, 0.9407865), (1.7386773, 0.34301028), (1.1700039, 0.94344795), (1.7381499, 0.35310635), (1.1563712, 0.9337088), (1.739352, 0.33323827), (1.1563714, 0.92502964), (1.7403936, 0.3237361), (1.1615318, 0.9179522), (1.7417576, 0.3142223), (1.7414348, 0.41182205), (1.1700039, 0.91529036), (1.7395283, 0.40196648), (1.1783353, 0.9181658), (1.7383337, 0.39215758), (1.183258, 0.92516506), (1.7378285, 0.3825046), (1.183258, 0.9335736), (1.737608, 0.3729824), (1.1783353, 0.94057286), (1.7377603, 0.36320874), (1.7017163, 0.34100053), (1.5192529, 0.33168295), (1.5164187, 0.34524474), (1.7007103, 0.35204586), (1.7020553, 0.3297628), (1.522452, 0.3183315), (1.7021763, 0.31827632), (1.5255458, 0.30484584), (1.702648, 0.30607262), (1.7015336, 0.4192818), (1.5277113, 0.29101053), (1.5255591, 0.42864743), (1.6990277, 0.40697035), (1.5234714, 0.4145452), (1.6973495, 0.39529613), (1.5199513, 0.40078261), (1.6968137, 0.38414153), (1.5160583, 0.38713416), (1.6975732, 0.37340334), (1.513986, 0.37309584), (1.6991185, 0.3627893), (1.5144737, 0.35903773), (1.0991237, 0.30874088), (1.095683, 0.33111277), (1.1047857, 0.2869508), (1.1117449, 0.26565066), (1.1156437, 0.4646332), (1.1178652, 0.24420604), (1.1151484, 0.4425228), (1.1111684, 0.42057535), (1.1034093, 0.3990179), (1.0975327, 0.3768303), (1.095683, 0.35383353), (1.2552063, 0.94656074), (1.25249, 0.90352833), (1.2604104, 0.94819546), (1.2471215, 0.9043281), (1.2577888, 0.90272284), (1.2520363, 0.9422132), (1.2631125, 0.9022685), (1.2520365, 0.9368818), (1.2685465, 0.90241146), (1.2150768, 0.9039656), (1.2552063, 0.932534), (1.2205485, 0.9037453), (1.2604105, 0.9308989), (1.2260377, 0.90401137), (1.2655282, 0.9326651), (1.2313335, 0.9044517), (1.2685522, 0.93696463), (1.2365087, 0.90477896), (1.2685522, 0.94212985), (1.2417535, 0.90477896), (1.2655282, 0.9464296), (1.2534368, 0.8105099), (1.252374, 0.69494), (1.2441282, 0.6929897), (1.2460697, 0.8113735), (1.2605188, 0.80874586), (1.2604259, 0.6974243), (1.2674794, 0.8069899), (1.2685387, 0.69974804), (1.2745992, 0.8059323), (1.2031091, 0.80814266), (1.2769895, 0.70102966), (1.1940941, 0.7035458), (1.2102754, 0.8070315), (1.20267, 0.70213974), (1.2174726, 0.80697215), (1.2108356, 0.69919527), (1.2245711, 0.80788064), (1.2187613, 0.6955787), (1.2316208, 0.8094393), (1.2270492, 0.69291663), (1.238726, 0.8108864), (1.2356611, 0.69217825), (1.2474958, 0.9328865), (1.4183395, 0.48646215), (1.2411678, 0.9308989), (1.4197826, 0.49311534), (1.4167542, 0.47997108), (1.2513504, 0.9381733), (1.4155769, 0.47354147), (1.2513504, 0.944656), (1.4151888, 0.46698663), (1.4189879, 0.53174317), (1.2474958, 0.9499426), (1.4187536, 0.52526915), (1.2411677, 0.95193064), (1.419245, 0.51883423), (1.2349447, 0.94978297), (1.4200066, 0.5125418), (1.2312677, 0.9445549), (1.4205734, 0.5062369), (1.2312678, 0.93827426), (1.4205735, 0.49979362), (1.2349447, 0.9330462), (1.2379403, 0.49230012), (1.0985906, 0.49647734), (1.0963583, 0.50724006), (1.2386756, 0.5008341), (1.2370901, 0.48389265), (1.1015751, 0.4860393), (1.2365818, 0.47546116), (1.1043593, 0.47574684), (1.2365849, 0.46676233), (1.2415081, 0.5529752), (1.1058135, 0.46531913), (1.1116688, 0.56869376), (1.2406864, 0.5440277), (1.1096089, 0.558512), (1.2399533, 0.53513205), (1.1056597, 0.548833), (1.2394139, 0.52644527), (1.1008083, 0.53929985), (1.2391806, 0.5178925), (1.097031, 0.5289941), (1.2390411, 0.5093764), (1.095683, 0.51817536)] (
                interpolation = "faceVarying"
            )
            int[] primvars:st:indices = [8, 7, 18, 19, 88, 85, 27, 28, 4, 3, 14, 16, 0, 1, 12, 11, 9, 8, 19, 20, 6, 5, 15, 17, 2, 0, 11, 13, 10, 9, 20, 21, 7, 6, 17, 18, 3, 2, 13, 14, 1, 10, 21, 12, 13, 11, 77, 81, 80, 76, 22, 24, 96, 94, 31, 32, 90, 88, 28, 29, 79, 96, 32, 23, 92, 90, 29, 30, 84, 82, 25, 26, 82, 80, 24, 25, 94, 92, 30, 31, 68, 66, 44, 46, 20, 19, 93, 95, 17, 15, 87, 89, 76, 79, 23, 22, 21, 20, 95, 97, 18, 17, 89, 91, 14, 13, 81, 83, 12, 21, 97, 78, 19, 18, 91, 93, 16, 14, 83, 86, 57, 74, 52, 36, 22, 23, 56, 55, 70, 68, 46, 48, 62, 60, 39, 41, 60, 58, 37, 39, 72, 70, 48, 50, 66, 63, 42, 44, 58, 54, 34, 37, 74, 72, 50, 52, 33, 35, 53, 51, 49, 47, 45, 43, 40, 38, 32, 31, 73, 75, 29, 28, 67, 69, 25, 24, 59, 61, 23, 32, 75, 56, 30, 29, 69, 71, 26, 25, 61, 64, 24, 22, 55, 59, 31, 30, 71, 73, 28, 27, 65, 67, 55, 56, 57, 54, 59, 55, 54, 58, 61, 59, 58, 60, 64, 61, 60, 62, 67, 65, 63, 66, 69, 67, 66, 68, 71, 69, 68, 70, 73, 71, 70, 72, 75, 73, 72, 74, 56, 75, 74, 57, 54, 57, 36, 34, 77, 78, 79, 76, 81, 77, 76, 80, 83, 81, 80, 82, 86, 83, 82, 84, 89, 87, 85, 88, 91, 89, 88, 90, 93, 91, 90, 92, 95, 93, 92, 94, 97, 95, 94, 96, 78, 97, 96, 79, 11, 12, 78, 77, 281, 280, 264, 266, 275, 273, 261, 262, 273, 272, 260, 261, 265, 267, 285, 282, 278, 275, 262, 263, 258, 257, 256, 259, 271, 274, 276, 277, 279, 283, 284, 286, 290, 288, 280, 278, 263, 264, 147, 145, 103, 104, 143, 141, 98, 100, 151, 150, 107, 108, 148, 147, 104, 105, 142, 151, 108, 99, 149, 148, 105, 106, 146, 144, 101, 102, 144, 143, 100, 101, 150, 149, 106, 107, 138, 137, 122, 124, 141, 142, 99, 98, 98, 99, 131, 130, 139, 138, 124, 126, 136, 135, 117, 120, 134, 133, 115, 118, 140, 139, 126, 128, 137, 136, 120, 122, 133, 132, 113, 115, 131, 140, 128, 112, 108, 107, 139, 140, 105, 104, 136, 137, 101, 100, 132, 133, 99, 108, 140, 131, 106, 105, 137, 138, 102, 101, 133, 134, 100, 98, 130, 132, 107, 106, 138, 139, 104, 103, 135, 136, 132, 130, 110, 113, 187, 185, 163, 165, 176, 193, 171, 155, 189, 187, 165, 167, 181, 179, 158, 160, 179, 177, 156, 158, 191, 189, 167, 169, 185, 182, 161, 163, 177, 173, 153, 156, 193, 191, 169, 171, 152, 154, 172, 170, 168, 166, 164, 162, 159, 157, 174, 175, 176, 173, 178, 174, 173, 177, 180, 178, 177, 179, 183, 180, 179, 181, 186, 184, 182, 185, 188, 186, 185, 187, 190, 188, 187, 189, 192, 190, 189, 191, 194, 192, 191, 193, 175, 194, 193, 176, 173, 176, 155, 153, 230, 228, 206, 208, 219, 236, 214, 198, 232, 230, 208, 210, 224, 222, 201, 203, 222, 220, 199, 201, 234, 232, 210, 212, 228, 225, 204, 206, 220, 216, 196, 199, 236, 234, 212, 214, 195, 197, 215, 213, 211, 209, 207, 205, 202, 200, 217, 218, 219, 216, 221, 217, 216, 220, 223, 221, 220, 222, 226, 223, 222, 224, 229, 227, 225, 228, 231, 229, 228, 230, 233, 231, 230, 232, 235, 233, 232, 234, 237, 235, 234, 236, 218, 237, 236, 219, 216, 219, 198, 196, 252, 254, 255, 253, 257, 238, 239, 256, 238, 240, 241, 239, 240, 242, 243, 241, 242, 244, 245, 243, 244, 246, 247, 245, 246, 248, 251, 247, 249, 252, 253, 250, 313, 312, 257, 258, 297, 299, 267, 265, 294, 295, 263, 262, 293, 294, 262, 261, 296, 298, 266, 264, 301, 292, 260, 269, 300, 302, 270, 268, 270, 269, 289, 291, 299, 300, 268, 267, 291, 287, 268, 270, 292, 293, 261, 260, 295, 296, 264, 263, 336, 340, 342, 344, 347, 349, 351, 353, 355, 338, 287, 285, 267, 268, 109, 111, 129, 127, 125, 123, 121, 119, 116, 114, 302, 301, 269, 270, 131, 112, 110, 130, 259, 256, 301, 302, 312, 303, 238, 257, 307, 308, 248, 246, 306, 307, 246, 244, 310, 311, 254, 252, 304, 305, 242, 240, 303, 304, 240, 238, 305, 306, 244, 242, 309, 310, 252, 249, 253, 255, 300, 299, 241, 243, 294, 293, 243, 245, 295, 294, 256, 239, 292, 301, 245, 247, 296, 295, 239, 241, 293, 292, 255, 259, 302, 300, 311, 313, 258, 254, 323, 314, 303, 312, 250, 253, 299, 297, 317, 318, 307, 306, 321, 322, 311, 310, 322, 324, 313, 311, 318, 319, 308, 307, 315, 316, 305, 304, 324, 323, 312, 313, 320, 321, 310, 309, 247, 251, 298, 296, 316, 317, 306, 305, 314, 315, 304, 303, 254, 258, 259, 255, 385, 331, 330, 383, 381, 327, 325, 379, 389, 335, 334, 388, 386, 332, 331, 385, 380, 326, 335, 389, 387, 333, 332, 386, 384, 329, 328, 382, 382, 328, 327, 381, 388, 334, 333, 387, 371, 350, 348, 369, 379, 325, 326, 380, 360, 339, 356, 377, 325, 358, 359, 326, 373, 352, 350, 371, 365, 345, 343, 363, 363, 343, 341, 361, 375, 354, 352, 373, 369, 348, 346, 366, 361, 341, 337, 357, 377, 356, 354, 375, 335, 378, 376, 334, 332, 372, 370, 331, 328, 364, 362, 327, 326, 359, 378, 335, 333, 374, 372, 332, 329, 367, 364, 328, 327, 362, 358, 325, 334, 376, 374, 333, 331, 370, 368, 330, 358, 357, 360, 359, 362, 361, 357, 358, 364, 363, 361, 362, 367, 365, 363, 364, 370, 369, 366, 368, 372, 371, 369, 370, 374, 373, 371, 372, 376, 375, 373, 374, 378, 377, 375, 376, 359, 360, 377, 378, 357, 337, 339, 360, 425, 403, 401, 423, 414, 393, 409, 431, 427, 405, 403, 425, 419, 398, 396, 417, 417, 396, 394, 415, 429, 407, 405, 427, 423, 401, 399, 420, 415, 394, 391, 411, 431, 409, 407, 429, 390, 395, 397, 400, 402, 404, 406, 408, 410, 392, 412, 411, 414, 413, 416, 415, 411, 412, 418, 417, 415, 416, 421, 419, 417, 418, 424, 423, 420, 422, 426, 425, 423, 424, 428, 427, 425, 426, 430, 429, 427, 428, 432, 431, 429, 430, 413, 414, 431, 432, 411, 391, 393, 414, 468, 446, 444, 466, 457, 436, 452, 474, 470, 448, 446, 468, 462, 441, 439, 460, 460, 439, 437, 458, 472, 450, 448, 470, 466, 444, 442, 463, 458, 437, 434, 454, 474, 452, 450, 472, 433, 438, 440, 443, 445, 447, 449, 451, 453, 435, 455, 454, 457, 456, 459, 458, 454, 455, 461, 460, 458, 459, 464, 462, 460, 461, 467, 466, 463, 465, 469, 468, 466, 467, 471, 470, 468, 469, 473, 472, 470, 471, 475, 474, 472, 473, 456, 457, 474, 475, 454, 434, 436, 457, 272, 289, 269, 260]
            uniform token subdivisionScheme = "none"
            custom string userProperties:blender:data_name = "Cylinder.048"
        }
    }

    def Scope "_materials"
    {
        def Material "Bark"
        {
            token outputs:surface.connect = </root/_materials/Bark/Principled_BSDF.outputs:surface>
            custom string userProperties:blender:data_name = "Bark"

            def Shader "Principled_BSDF"
            {
                uniform token info:id = "UsdPreviewSurface"
                float inputs:clearcoat = 0
                float inputs:clearcoatRoughness = 0.03
                color3f inputs:diffuseColor = (0.8, 0.8, 0.8)
                color3f inputs:emissiveColor = (0, 0, 0)
                float inputs:ior = 1.5
                float inputs:metallic = 0
                float inputs:opacity = 1
                float inputs:roughness = 0.5527864
                float inputs:specular = 1
                token outputs:surface
            }
        }
    }
}

