#usda 1.0
(
    defaultPrim = "root"
    doc = "Blender v5.1.2"
    metersPerUnit = 1
    upAxis = "Y"
)

def Xform "root" (
    customData = {
        dictionary Blender = {
            bool generated = 1
        }
    }
)
{
    float3 xformOp:rotateXYZ = (-90, -0, 0)
    uniform token[] xformOpOrder = ["xformOp:rotateXYZ"]

    def Xform "DeadBirch_2"
    {
        custom string userProperties:blender:object_name = "DeadBirch_2"

        def Mesh "Cylinder_051" (
            active = true
            prepend apiSchemas = ["MaterialBindingAPI"]
        )
        {
            uniform bool doubleSided = 1
            float3[] extent = [(-0.7471775, -0.43338257, -0.0016893353), (3.1102703, 1.4639632, 8.7419405)]
            int[] faceVertexCounts = [4, 4, 4, 4, 4, 4, 4, 4, 4, 4, 4, 4, 4, 4, 4, 10, 4, 4, 4, 4, 4, 4, 4, 4, 4, 4, 4, 4, 4, 4, 4, 4, 4, 4, 4, 4, 4, 4, 10, 4, 4, 4, 4, 4, 4, 4, 4, 4, 4, 4, 4, 4, 4, 4, 4, 4, 4, 4, 4, 4, 4, 4, 4, 4, 4, 4, 4, 4, 4, 4, 4, 4, 4, 4, 4, 4, 4, 4, 4, 4, 4, 4, 4, 4, 4, 4, 4, 4, 4, 4, 4, 4, 4, 4, 4, 4, 4, 4, 4, 4, 4, 4, 4, 4, 4, 4, 4, 4, 4, 4, 4, 4, 4, 4, 4, 4, 4, 4, 4, 4, 4, 10, 4, 4, 4, 4, 4, 4, 4, 4, 4, 4, 4, 4, 4, 4, 4, 4, 4, 4, 4, 4, 4, 4, 4, 4, 4, 4, 4, 4, 4, 4, 4, 4, 4, 4, 4, 4, 4, 4, 4, 4, 4, 4, 4, 4, 4, 4, 4, 4, 4, 4, 4, 4, 4, 4, 4, 4, 4, 4, 4, 4, 4, 4, 4, 4, 4, 4, 4, 4, 4, 4, 4, 4, 4, 4, 4, 4, 4, 4, 4, 4, 10, 10, 4, 4, 4, 4, 4, 4, 4, 4, 4, 4, 4, 4, 4, 4, 4, 4, 4, 4, 4, 4, 4, 4, 4, 4, 4, 4, 4, 4, 4, 4, 4, 4, 4, 10, 4, 4, 4, 4, 4, 4, 4, 4, 4, 4, 4, 4, 4, 4]
            int[] faceVertexIndices = [83, 80, 16, 17, 26, 16, 15, 25, 84, 81, 13, 14, 85, 82, 11, 10, 86, 83, 17, 18, 87, 84, 14, 15, 88, 85, 10, 12, 89, 86, 18, 19, 80, 87, 15, 16, 81, 88, 12, 13, 82, 89, 19, 11, 307, 63, 65, 306, 23, 13, 12, 22, 21, 11, 19, 29, 27, 17, 16, 26, 286, 61, 59, 57, 55, 52, 51, 284, 285, 287, 28, 18, 17, 27, 25, 15, 14, 24, 24, 14, 13, 23, 29, 19, 18, 28, 47, 46, 36, 37, 302, 53, 50, 303, 295, 64, 66, 285, 22, 12, 10, 20, 305, 62, 64, 295, 305, 67, 68, 62, 305, 67, 63, 307, 10, 11, 21, 20, 301, 54, 53, 302, 298, 60, 58, 299, 91, 92, 41, 40, 48, 47, 37, 38, 45, 44, 34, 35, 44, 43, 33, 34, 49, 48, 38, 39, 46, 45, 35, 36, 43, 42, 32, 33, 41, 49, 39, 31, 30, 31, 39, 38, 37, 36, 35, 34, 33, 32, 93, 99, 48, 49, 97, 96, 45, 46, 94, 90, 42, 43, 92, 93, 49, 41, 98, 97, 46, 47, 95, 94, 43, 44, 90, 91, 40, 42, 99, 98, 47, 48, 96, 95, 44, 45, 42, 40, 30, 32, 293, 294, 284, 51, 288, 289, 59, 61, 305, 307, 297, 295, 304, 69, 67, 305, 297, 296, 286, 287, 299, 58, 56, 300, 306, 65, 60, 298, 289, 290, 57, 59, 303, 50, 69, 304, 300, 56, 54, 301, 303, 304, 294, 293, 1, 9, 79, 74, 3, 2, 78, 72, 6, 5, 77, 70, 9, 8, 76, 79, 2, 0, 75, 78, 5, 4, 73, 77, 8, 7, 71, 76, 0, 1, 74, 75, 4, 3, 72, 73, 7, 6, 70, 71, 74, 79, 89, 82, 72, 78, 88, 81, 70, 77, 87, 80, 79, 76, 86, 89, 78, 75, 85, 88, 77, 73, 84, 87, 76, 71, 83, 86, 75, 74, 82, 85, 73, 72, 81, 84, 71, 70, 80, 83, 41, 31, 30, 40, 25, 24, 95, 96, 28, 27, 98, 99, 22, 20, 91, 90, 24, 23, 94, 95, 27, 26, 97, 98, 21, 29, 93, 92, 23, 22, 90, 94, 26, 25, 96, 97, 29, 28, 99, 93, 20, 21, 92, 91, 105, 104, 114, 115, 102, 100, 110, 112, 109, 108, 118, 119, 106, 105, 115, 116, 103, 102, 112, 113, 101, 109, 119, 111, 107, 106, 116, 117, 104, 103, 113, 114, 100, 101, 111, 110, 108, 107, 117, 118, 112, 110, 120, 122, 119, 118, 128, 129, 116, 115, 125, 126, 113, 112, 122, 123, 111, 119, 129, 121, 117, 116, 126, 127, 114, 113, 123, 124, 110, 111, 121, 120, 118, 117, 127, 128, 115, 114, 124, 125, 103, 133, 132, 102, 101, 131, 139, 109, 107, 137, 136, 106, 104, 134, 133, 103, 100, 130, 131, 101, 108, 138, 137, 107, 105, 135, 134, 104, 102, 132, 130, 100, 109, 139, 138, 108, 106, 136, 135, 105, 121, 129, 128, 127, 126, 125, 124, 123, 122, 120, 144, 154, 153, 143, 140, 150, 151, 141, 148, 158, 157, 147, 145, 155, 154, 144, 142, 152, 150, 140, 149, 159, 158, 148, 146, 156, 155, 145, 143, 153, 152, 142, 141, 151, 159, 149, 147, 157, 156, 146, 150, 160, 161, 151, 158, 168, 167, 157, 155, 165, 164, 154, 152, 162, 160, 150, 159, 169, 168, 158, 156, 166, 165, 155, 153, 163, 162, 152, 151, 161, 169, 159, 157, 167, 166, 156, 154, 164, 163, 153, 168, 178, 177, 167, 165, 175, 174, 164, 162, 172, 170, 160, 169, 179, 178, 168, 166, 176, 175, 165, 163, 173, 172, 162, 161, 171, 179, 169, 167, 177, 176, 166, 164, 174, 173, 163, 160, 170, 171, 161, 175, 185, 184, 174, 172, 182, 180, 170, 179, 189, 188, 178, 176, 186, 185, 175, 173, 183, 182, 172, 171, 181, 189, 179, 177, 187, 186, 176, 174, 184, 183, 173, 170, 180, 181, 171, 178, 188, 187, 177, 182, 192, 190, 180, 189, 199, 198, 188, 186, 196, 195, 185, 183, 193, 192, 182, 181, 191, 199, 189, 187, 197, 196, 186, 184, 194, 193, 183, 180, 190, 191, 181, 188, 198, 197, 187, 185, 195, 194, 184, 205, 204, 214, 215, 202, 200, 210, 212, 209, 208, 218, 219, 206, 205, 215, 216, 203, 202, 212, 213, 201, 209, 219, 211, 207, 206, 216, 217, 204, 203, 213, 214, 200, 201, 211, 210, 208, 207, 217, 218, 212, 210, 220, 222, 219, 218, 228, 229, 216, 215, 225, 226, 213, 212, 222, 223, 211, 219, 229, 221, 217, 216, 226, 227, 214, 213, 223, 224, 210, 211, 221, 220, 218, 217, 227, 228, 215, 214, 224, 225, 203, 233, 232, 202, 201, 231, 239, 209, 207, 237, 236, 206, 204, 234, 233, 203, 200, 230, 231, 201, 208, 238, 237, 207, 205, 235, 234, 204, 202, 232, 230, 200, 209, 239, 238, 208, 206, 236, 235, 205, 221, 229, 228, 227, 226, 225, 224, 223, 222, 220, 191, 190, 192, 193, 194, 195, 196, 197, 198, 199, 202, 232, 243, 240, 212, 241, 242, 222, 202, 240, 241, 212, 249, 259, 258, 248, 246, 256, 254, 244, 253, 263, 262, 252, 250, 260, 259, 249, 247, 257, 256, 246, 245, 255, 263, 253, 251, 261, 260, 250, 248, 258, 257, 247, 244, 254, 255, 245, 252, 262, 261, 251, 256, 266, 264, 254, 263, 273, 272, 262, 260, 270, 269, 259, 257, 267, 266, 256, 255, 265, 273, 263, 261, 271, 270, 260, 258, 268, 267, 257, 254, 264, 265, 255, 262, 272, 271, 261, 259, 269, 268, 258, 247, 246, 276, 277, 245, 253, 283, 275, 251, 250, 280, 281, 248, 247, 277, 278, 244, 245, 275, 274, 252, 251, 281, 282, 249, 248, 278, 279, 246, 244, 274, 276, 253, 252, 282, 283, 250, 249, 279, 280, 265, 264, 266, 267, 268, 269, 270, 271, 272, 273, 292, 293, 51, 52, 299, 300, 290, 289, 301, 302, 292, 291, 294, 295, 285, 284, 307, 306, 296, 297, 295, 297, 287, 285, 304, 305, 295, 294, 296, 288, 61, 286, 298, 299, 289, 288, 291, 292, 52, 55, 302, 303, 293, 292, 290, 291, 55, 57, 306, 298, 288, 296, 300, 301, 291, 290]
            rel material:binding = </root/_materials/Birch_Bark>
            normal3f[] normals = [(0.9953571, 0.035013925, -0.089656964), (0.7691299, 0.6215445, -0.14873342), (0.80944926, 0.584672, 0.0543204), (0.9994159, -0.021647677, 0.026442189), (0.83137554, 0.54836094, 0.09008318), (0.80944926, 0.584672, 0.0543204), (0.2949698, 0.95319515, 0.0664214), (0.339806, 0.9321031, 0.1253627), (-0.32094136, 0.9417229, -0.10076939), (-0.79616016, 0.6050859, 0.00015137512), (-0.80426896, 0.5917969, 0.0541086), (-0.31544882, 0.94679695, 0.06377709), (-0.7737518, -0.6042087, 0.19036782), (-0.24874929, -0.9530247, 0.17282322), (-0.301969, -0.95319504, -0.01529423), (-0.7987142, -0.60163516, 0.009525153), (0.8268651, -0.56233275, 0.008719001), (0.9953571, 0.035013925, -0.089656964), (0.9994159, -0.021647677, 0.026442189), (0.7933451, -0.60876346, -0.0032348705), (0.25836158, 0.95388013, -0.15284668), (-0.32094136, 0.9417229, -0.10076939), (-0.31544882, 0.94679695, 0.06377709), (0.2949698, 0.95319515, 0.0664214), (-0.9921391, 0.011444056, 0.12461531), (-0.7737518, -0.6042087, 0.19036782), (-0.7987142, -0.60163516, 0.009525153), (-0.9992694, -0.0043012165, 0.03797439), (0.35088688, -0.93061155, 0.10411751), (0.8268651, -0.56233275, 0.008719001), (0.7933451, -0.60876346, -0.0032348705), (0.29599735, -0.9549699, -0.020448882), (0.7691299, 0.6215445, -0.14873342), (0.25836158, 0.95388013, -0.15284668), (0.2949698, 0.95319515, 0.0664214), (0.80944926, 0.584672, 0.0543204), (-0.79616016, 0.6050859, 0.00015137512), (-0.9921391, 0.011444056, 0.12461531), (-0.9992694, -0.0043012165, 0.03797439), (-0.80426896, 0.5917969, 0.0541086), (-0.24874929, -0.9530247, 0.17282322), (0.35088688, -0.93061155, 0.10411751), (0.29599735, -0.9549699, -0.020448882), (-0.301969, -0.95319504, -0.01529423), (-0.51381284, 0.5002605, -0.69694746), (-0.43153873, 0.49062136, -0.7570106), (-0.42267275, -0.07206863, -0.90341234), (-0.5300251, -0.05516514, -0.8461856), (-0.79557484, 0.601321, 0.07398464), (-0.80426896, 0.5917969, 0.0541086), (-0.9992694, -0.0043012165, 0.03797439), (-0.9996364, 0.02570605, 0.008134098), (-0.35403863, -0.9312378, -0.086329274), (-0.301969, -0.95319504, -0.01529423), (0.29599735, -0.9549699, -0.020448882), (0.2587245, -0.96272737, -0.078851886), (0.99831206, -0.0492951, 0.03070984), (0.9994159, -0.021647677, 0.026442189), (0.80944926, 0.584672, 0.0543204), (0.83137554, 0.54836094, 0.09008318), (-0.22076352, -0.12414037, 0.96739477), (-0.22076352, -0.12414037, 0.96739477), (-0.22076352, -0.12414037, 0.96739477), (-0.22076352, -0.12414037, 0.96739477), (0.29742005, -0.40566152, 0.86428005), (0.3405493, -0.010352144, 0.9401697), (-0.22076352, -0.12414037, 0.96739477), (-0.22076352, -0.12414037, 0.96739477), (-0.22076352, -0.12414037, 0.96739477), (-0.22076352, -0.12414037, 0.96739477), (0.77819693, -0.62721145, -0.03186582), (0.7933451, -0.60876346, -0.0032348705), (0.9994159, -0.021647677, 0.026442189), (0.99831206, -0.0492951, 0.03070984), (0.339806, 0.9321031, 0.1253627), (0.2949698, 0.95319515, 0.0664214), (-0.31544882, 0.94679695, 0.06377709), (-0.28492495, 0.95104504, 0.119712554), (-0.28492495, 0.95104504, 0.119712554), (-0.31544882, 0.94679695, 0.06377709), (-0.80426896, 0.5917969, 0.0541086), (-0.79557484, 0.601321, 0.07398464), (0.2587245, -0.96272737, -0.078851886), (0.29599735, -0.9549699, -0.020448882), (0.7933451, -0.60876346, -0.0032348705), (0.77819693, -0.62721145, -0.03186582), (0.9758905, -0.076801464, 0.20430166), (0.7988963, 0.4791232, 0.3636009), (0.75503993, 0.50595635, 0.4170406), (0.95417, 0.0065245004, 0.29919407), (0.49828964, 0.06763371, 0.8643686), (0.42704406, 0.052766945, 0.90268993), (0.260534, 0.6449661, 0.7184294), (0.33073643, 0.6399314, 0.6936146), (0, 0, 1), (0, 0, 1), (0, 0, 1), (0, 0, 1), (-0.9996364, 0.02570605, 0.008134098), (-0.9992694, -0.0043012165, 0.03797439), (-0.7987142, -0.60163516, 0.009525153), (-0.82974327, -0.5556451, -0.05276763), (0, 0, 1), (0, 0, 1), (0, 0, 1), (0, 0, 1), (0, 0, 1), (0, 0, 1), (0, 0, 1), (0, 0, 1), (-0.4279383, 0.7407771, -0.5178012), (-0.3672154, 0.7518158, -0.54765475), (-0.43153873, 0.49062136, -0.7570106), (-0.51381284, 0.5002605, -0.69694746), (-0.7987142, -0.60163516, 0.009525153), (-0.301969, -0.95319504, -0.01529423), (-0.35403863, -0.9312378, -0.086329274), (-0.82974327, -0.5556451, -0.05276763), (0.48019746, -0.52535737, 0.7024315), (0.4170753, -0.55974853, 0.7160515), (0.42704406, 0.052766945, 0.90268993), (0.49828964, 0.06763371, 0.8643686), (-0.3645652, -0.5985895, -0.71329015), (-0.27108124, -0.60937935, -0.74509853), (-0.023134708, -0.9466997, -0.32128575), (-0.05468651, -0.9516517, -0.3022723), (-0.8287072, -0.5311545, -0.17640664), (-0.351072, -0.9066715, -0.23386985), (-0.33927777, -0.8843823, -0.32055983), (-0.8013461, -0.52357864, -0.28932658), (0.76875895, -0.63908064, -0.024198227), (0.9758905, -0.076801464, 0.20430166), (0.95417, 0.0065245004, 0.29919407), (0.8159853, -0.5733944, 0.073395915), (0.34465334, 0.84597754, 0.40686136), (-0.2512471, 0.91435874, 0.31752643), (-0.16251785, 0.9293351, 0.33154806), (0.35871455, 0.8296948, 0.42770362), (-0.2512471, 0.91435874, 0.31752643), (-0.7800637, 0.6159636, 0.10995176), (-0.698601, 0.70487535, 0.12291213), (-0.16251785, 0.9293351, 0.33154806), (0.24675128, -0.9425223, -0.22531183), (0.76875895, -0.63908064, -0.024198227), (0.8159853, -0.5733944, 0.073395915), (0.29242525, -0.9401091, -0.17516388), (0.7988963, 0.4791232, 0.3636009), (0.34465334, 0.84597754, 0.40686136), (0.35871455, 0.8296948, 0.42770362), (0.75503993, 0.50595635, 0.4170406), (-0.7800637, 0.6159636, 0.10995176), (-0.9903828, 0.046856113, -0.13017903), (-0.9806784, 0.14311957, -0.13336644), (-0.698601, 0.70487535, 0.12291213), (-0.33927777, -0.8843823, -0.32055983), (0.24675128, -0.9425223, -0.22531183), (0.29242525, -0.9401091, -0.17516388), (-0.4453244, -0.8922299, 0.074913815), (-0.76465625, -0.638678, 0.085972354), (-0.4453244, -0.8922299, 0.074913815), (-0.47076538, -0.66884685, 0.57534665), (-0.47076538, -0.66884685, 0.57534665), (-0.47076538, -0.66884685, 0.57534665), (-0.47076538, -0.66884685, 0.57534665), (-0.47076538, -0.66884685, 0.57534665), (-0.47076538, -0.66884685, 0.57534665), (-0.47076538, -0.66884685, 0.57534665), (-0.47076538, -0.66884685, 0.57534665), (0.26072317, -0.9457814, -0.19370334), (0.7867717, -0.61300594, -0.07220802), (0.76875895, -0.63908064, -0.024198227), (0.24675128, -0.9425223, -0.22531183), (0.82361746, 0.52731377, 0.20879292), (0.35386768, 0.8959352, 0.26847315), (0.34465334, 0.84597754, 0.40686136), (0.7988963, 0.4791232, 0.3636009), (-0.77747947, 0.6178535, 0.11739983), (-0.99781376, 0.052108906, -0.040651534), (-0.9903828, 0.046856113, -0.13017903), (-0.7800637, 0.6159636, 0.10995176), (-0.351072, -0.9066715, -0.23386985), (0.26072317, -0.9457814, -0.19370334), (0.24675128, -0.9425223, -0.22531183), (-0.33927777, -0.8843823, -0.32055983), (0.9960672, -0.039389122, 0.07936429), (0.82361746, 0.52731377, 0.20879292), (0.7988963, 0.4791232, 0.3636009), (0.9758905, -0.076801464, 0.20430166), (-0.25588092, 0.9376437, 0.23526411), (-0.77747947, 0.6178535, 0.11739983), (-0.7800637, 0.6159636, 0.10995176), (-0.2512471, 0.91435874, 0.31752643), (-0.99781376, 0.052108906, -0.040651534), (-0.8287072, -0.5311545, -0.17640664), (-0.8013461, -0.52357864, -0.28932658), (-0.9903828, 0.046856113, -0.13017903), (0.7867717, -0.61300594, -0.07220802), (0.9960672, -0.039389122, 0.07936429), (0.9758905, -0.076801464, 0.20430166), (0.76875895, -0.63908064, -0.024198227), (0.35386768, 0.8959352, 0.26847315), (-0.25588092, 0.9376437, 0.23526411), (-0.2512471, 0.91435874, 0.31752643), (0.34465334, 0.84597754, 0.40686136), (-0.9903828, 0.046856113, -0.13017903), (-0.8013461, -0.52357864, -0.28932658), (-0.76465625, -0.638678, 0.085972354), (-0.9806784, 0.14311957, -0.13336644), (0.45007482, 0.62918216, 0.63368946), (0.070750214, 0.9698674, 0.23313442), (0.0145332115, 0.98514307, 0.1711201), (0.4737308, 0.6649616, 0.5774124), (-0.5113052, -0.5943612, -0.6207267), (-0.11982361, -0.95706064, -0.26396447), (-0.23298258, -0.9241486, -0.30276814), (-0.60001606, -0.52750957, -0.6014269), (-0.4279383, 0.7407771, -0.5178012), (-0.51381284, 0.5002605, -0.69694746), (-0.6384516, 0.485598, -0.5971384), (-0.5195615, 0.72089845, -0.45865157), (0.018801747, 0.9701786, 0.24166043), (-0.017354663, 0.9717478, 0.23538285), (-0.14295322, 0.98956263, -0.018171085), (-0.14421946, 0.9893945, -0.017300466), (-0.6384516, 0.485598, -0.5971384), (-0.6876383, -0.056513958, -0.7238506), (-0.73934734, -0.039047793, -0.672191), (-0.69243157, 0.44323075, -0.56928456), (-0.05468651, -0.9516517, -0.3022723), (-0.023134708, -0.9466997, -0.32128575), (0.23955448, -0.9417518, 0.2360448), (0.27362415, -0.9270555, 0.25631586), (-0.5300251, -0.05516514, -0.8461856), (-0.42267275, -0.07206863, -0.90341234), (-0.27108124, -0.60937935, -0.74509853), (-0.3645652, -0.5985895, -0.71329015), (-0.11982361, -0.95706064, -0.26396447), (0.31483105, -0.9191633, 0.23668607), (0.28096932, -0.94106245, 0.18830204), (-0.23298258, -0.9241486, -0.30276814), (0.33073643, 0.6399314, 0.6936146), (0.260534, 0.6449661, 0.7184294), (-0.017354663, 0.9717478, 0.23538285), (0.018801747, 0.9701786, 0.24166043), (0.27362415, -0.9270555, 0.25631586), (0.23955448, -0.9417518, 0.2360448), (0.4170753, -0.55974853, 0.7160515), (0.48019746, -0.52535737, 0.7024315), (0.33073643, 0.6399314, 0.6936146), (0.018801747, 0.9701786, 0.24166043), (0.070750214, 0.9698674, 0.23313442), (0.45007482, 0.62918216, 0.63368946), (-0.2677237, -0.96177244, 0.057600513), (0.30308148, -0.9516081, 0.050829425), (0.315051, -0.9376138, 0.14704841), (-0.2514632, -0.94511324, 0.2086316), (-0.79725343, 0.6026808, 0.034099266), (-0.99919826, -0.031226195, 0.025053773), (-0.99249786, -0.06427079, 0.10400656), (-0.8328294, 0.5535279, 0.0014696831), (0.76554835, 0.6426216, 0.031195596), (0.25818852, 0.9646716, 0.05241534), (0.24103174, 0.9616367, -0.13099048), (0.77653426, 0.61423635, -0.14038616), (0.30308148, -0.9516081, 0.050829425), (0.80220574, -0.5964583, 0.026523244), (0.7955002, -0.605066, 0.032777797), (0.315051, -0.9376138, 0.14704841), (-0.99919826, -0.031226195, 0.025053773), (-0.76439154, -0.64345485, 0.040884104), (-0.74764663, -0.63581306, 0.19174576), (-0.99249786, -0.06427079, 0.10400656), (0.25818852, 0.9646716, 0.05241534), (-0.307768, 0.95001125, 0.052511208), (-0.35672593, 0.9308549, -0.07909353), (0.24103174, 0.9616367, -0.13099048), (0.80220574, -0.5964583, 0.026523244), (0.9993526, 0.03285117, 0.014670628), (0.9966883, -0.008044521, -0.08091802), (0.7955002, -0.605066, 0.032777797), (-0.76439154, -0.64345485, 0.040884104), (-0.2677237, -0.96177244, 0.057600513), (-0.2514632, -0.94511324, 0.2086316), (-0.74764663, -0.63581306, 0.19174576), (-0.307768, 0.95001125, 0.052511208), (-0.79725343, 0.6026808, 0.034099266), (-0.8328294, 0.5535279, 0.0014696831), (-0.35672593, 0.9308549, -0.07909353), (0.9993526, 0.03285117, 0.014670628), (0.76554835, 0.6426216, 0.031195596), (0.77653426, 0.61423635, -0.14038616), (0.9966883, -0.008044521, -0.08091802), (-0.2514632, -0.94511324, 0.2086316), (0.315051, -0.9376138, 0.14704841), (0.35088688, -0.93061155, 0.10411751), (-0.24874929, -0.9530247, 0.17282322), (-0.8328294, 0.5535279, 0.0014696831), (-0.99249786, -0.06427079, 0.10400656), (-0.9921391, 0.011444056, 0.12461531), (-0.79616016, 0.6050859, 0.00015137512), (0.77653426, 0.61423635, -0.14038616), (0.24103174, 0.9616367, -0.13099048), (0.25836158, 0.95388013, -0.15284668), (0.7691299, 0.6215445, -0.14873342), (0.315051, -0.9376138, 0.14704841), (0.7955002, -0.605066, 0.032777797), (0.8268651, -0.56233275, 0.008719001), (0.35088688, -0.93061155, 0.10411751), (-0.99249786, -0.06427079, 0.10400656), (-0.74764663, -0.63581306, 0.19174576), (-0.7737518, -0.6042087, 0.19036782), (-0.9921391, 0.011444056, 0.12461531), (0.24103174, 0.9616367, -0.13099048), (-0.35672593, 0.9308549, -0.07909353), (-0.32094136, 0.9417229, -0.10076939), (0.25836158, 0.95388013, -0.15284668), (0.7955002, -0.605066, 0.032777797), (0.9966883, -0.008044521, -0.08091802), (0.9953571, 0.035013925, -0.089656964), (0.8268651, -0.56233275, 0.008719001), (-0.74764663, -0.63581306, 0.19174576), (-0.2514632, -0.94511324, 0.2086316), (-0.24874929, -0.9530247, 0.17282322), (-0.7737518, -0.6042087, 0.19036782), (-0.35672593, 0.9308549, -0.07909353), (-0.8328294, 0.5535279, 0.0014696831), (-0.79616016, 0.6050859, 0.00015137512), (-0.32094136, 0.9417229, -0.10076939), (0.9966883, -0.008044521, -0.08091802), (0.77653426, 0.61423635, -0.14038616), (0.7691299, 0.6215445, -0.14873342), (0.9953571, 0.035013925, -0.089656964), (-0.33927777, -0.8843823, -0.32055983), (-0.4453244, -0.8922299, 0.074913815), (-0.76465625, -0.638678, 0.085972354), (-0.8013461, -0.52357864, -0.28932658), (0.339806, 0.9321031, 0.1253627), (-0.28492495, 0.95104504, 0.119712554), (-0.25588092, 0.9376437, 0.23526411), (0.35386768, 0.8959352, 0.26847315), (0.77819693, -0.62721145, -0.03186582), (0.99831206, -0.0492951, 0.03070984), (0.9960672, -0.039389122, 0.07936429), (0.7867717, -0.61300594, -0.07220802), (-0.9996364, 0.02570605, 0.008134098), (-0.82974327, -0.5556451, -0.05276763), (-0.8287072, -0.5311545, -0.17640664), (-0.99781376, 0.052108906, -0.040651534), (-0.28492495, 0.95104504, 0.119712554), (-0.79557484, 0.601321, 0.07398464), (-0.77747947, 0.6178535, 0.11739983), (-0.25588092, 0.9376437, 0.23526411), (0.99831206, -0.0492951, 0.03070984), (0.83137554, 0.54836094, 0.09008318), (0.82361746, 0.52731377, 0.20879292), (0.9960672, -0.039389122, 0.07936429), (-0.35403863, -0.9312378, -0.086329274), (0.2587245, -0.96272737, -0.078851886), (0.26072317, -0.9457814, -0.19370334), (-0.351072, -0.9066715, -0.23386985), (-0.79557484, 0.601321, 0.07398464), (-0.9996364, 0.02570605, 0.008134098), (-0.99781376, 0.052108906, -0.040651534), (-0.77747947, 0.6178535, 0.11739983), (0.83137554, 0.54836094, 0.09008318), (0.339806, 0.9321031, 0.1253627), (0.35386768, 0.8959352, 0.26847315), (0.82361746, 0.52731377, 0.20879292), (0.2587245, -0.96272737, -0.078851886), (0.77819693, -0.62721145, -0.03186582), (0.7867717, -0.61300594, -0.07220802), (0.26072317, -0.9457814, -0.19370334), (-0.82974327, -0.5556451, -0.05276763), (-0.35403863, -0.9312378, -0.086329274), (-0.351072, -0.9066715, -0.23386985), (-0.8287072, -0.5311545, -0.17640664), (-0.07413138, -0.9503632, 0.30218276), (0.4710725, -0.8819773, 0.014381746), (0.39193517, -0.9157457, -0.088298425), (-0.15579183, -0.97321355, 0.16906872), (0.8795066, 0.15844126, -0.4487366), (0.5863266, 0.6839007, -0.4341669), (0.65249777, 0.7004932, -0.2890604), (0.90812254, 0.16150582, -0.38630217), (-0.42158148, 0.906346, -0.028388465), (-0.81994444, 0.51484567, 0.25024983), (-0.78546226, 0.53254706, 0.31534526), (-0.32913145, 0.9372315, 0.11519446), (-0.5894507, -0.65851676, 0.46787122), (-0.07413138, -0.9503632, 0.30218276), (-0.15579183, -0.97321355, 0.16906872), (-0.64166737, -0.68101007, 0.35282886), (0.84530085, -0.45412052, -0.2814978), (0.8795066, 0.15844126, -0.4487366), (0.90812254, 0.16150582, -0.38630217), (0.8170786, -0.48230585, -0.31585377), (0.10362323, 0.9550729, -0.27766502), (-0.42158148, 0.906346, -0.028388465), (-0.32913145, 0.9372315, 0.11519446), (0.20126829, 0.97392505, -0.104694396), (-0.88724166, -0.09809219, 0.4507552), (-0.5894507, -0.65851676, 0.46787122), (-0.64166737, -0.68101007, 0.35282886), (-0.9046091, -0.11377503, 0.41077682), (0.4710725, -0.8819773, 0.014381746), (0.84530085, -0.45412052, -0.2814978), (0.8170786, -0.48230585, -0.31585377), (0.39193517, -0.9157457, -0.088298425), (0.5863266, 0.6839007, -0.4341669), (0.10362323, 0.9550729, -0.27766502), (0.20126829, 0.97392505, -0.104694396), (0.65249777, 0.7004932, -0.2890604), (-0.81994444, 0.51484567, 0.25024983), (-0.88724166, -0.09809219, 0.4507552), (-0.9046091, -0.11377503, 0.41077682), (-0.78546226, 0.53254706, 0.31534526), (0.90812254, 0.16150582, -0.38630217), (0.65249777, 0.7004932, -0.2890604), (0.64849913, 0.72853714, -0.22064117), (0.90525824, 0.25222927, -0.34188873), (-0.32913145, 0.9372315, 0.11519446), (-0.78546226, 0.53254706, 0.31534526), (-0.7050418, 0.6248967, 0.33529094), (-0.22421174, 0.9633796, 0.1470674), (-0.64166737, -0.68101007, 0.35282886), (-0.15579183, -0.97321355, 0.16906872), (-0.047915697, -0.8773834, 0.47739124), (-0.37082627, -0.6847434, 0.6273869), (0.8170786, -0.48230585, -0.31585377), (0.90812254, 0.16150582, -0.38630217), (0.90525824, 0.25222927, -0.34188873), (0.8499443, -0.40629014, -0.3354443), (0.20126829, 0.97392505, -0.104694396), (-0.32913145, 0.9372315, 0.11519446), (-0.22421174, 0.9633796, 0.1470674), (0.2501043, 0.96702856, -0.04799494), (-0.9046091, -0.11377503, 0.41077682), (-0.64166737, -0.68101007, 0.35282886), (-0.37082627, -0.6847434, 0.6273869), (-0.9126983, -0.05154096, 0.40537038), (0.39193517, -0.9157457, -0.088298425), (0.8170786, -0.48230585, -0.31585377), (0.8499443, -0.40629014, -0.3354443), (0.4018662, -0.9021352, -0.15702155), (0.65249777, 0.7004932, -0.2890604), (0.20126829, 0.97392505, -0.104694396), (0.2501043, 0.96702856, -0.04799494), (0.64849913, 0.72853714, -0.22064117), (-0.78546226, 0.53254706, 0.31534526), (-0.9046091, -0.11377503, 0.41077682), (-0.9126983, -0.05154096, 0.40537038), (-0.7050418, 0.6248967, 0.33529094), (-0.15579183, -0.97321355, 0.16906872), (0.39193517, -0.9157457, -0.088298425), (0.4018662, -0.9021352, -0.15702155), (-0.047915697, -0.8773834, 0.47739124), (0.84530085, -0.45412052, -0.2814978), (0.8643197, -0.42636347, -0.26676932), (0.85728693, 0.16701421, -0.48699614), (0.8795066, 0.15844126, -0.4487366), (0.10362323, 0.9550729, -0.27766502), (0.02583025, 0.92904216, -0.36907092), (-0.483396, 0.86999637, -0.097132325), (-0.42158148, 0.906346, -0.028388465), (-0.88724166, -0.09809219, 0.4507552), (-0.8850649, -0.057376824, 0.46191785), (-0.5840742, -0.6167531, 0.5277055), (-0.5894507, -0.65851676, 0.46787122), (0.4710725, -0.8819773, 0.014381746), (0.51503474, -0.85446393, 0.06804855), (0.8643197, -0.42636347, -0.26676932), (0.84530085, -0.45412052, -0.2814978), (0.5863266, 0.6839007, -0.4341669), (0.5271641, 0.67432135, -0.51709646), (0.02583025, 0.92904216, -0.36907092), (0.10362323, 0.9550729, -0.27766502), (-0.81994444, 0.51484567, 0.25024983), (-0.83474475, 0.50592834, 0.21734259), (-0.8850649, -0.057376824, 0.46191785), (-0.88724166, -0.09809219, 0.4507552), (-0.07413138, -0.9503632, 0.30218276), (-0.04450028, -0.9259827, 0.37493443), (0.51503474, -0.85446393, 0.06804855), (0.4710725, -0.8819773, 0.014381746), (0.8795066, 0.15844126, -0.4487366), (0.85728693, 0.16701421, -0.48699614), (0.5271641, 0.67432135, -0.51709646), (0.5863266, 0.6839007, -0.4341669), (-0.42158148, 0.906346, -0.028388465), (-0.483396, 0.86999637, -0.097132325), (-0.83474475, 0.50592834, 0.21734259), (-0.81994444, 0.51484567, 0.25024983), (-0.5894507, -0.65851676, 0.46787122), (-0.5840742, -0.6167531, 0.5277055), (-0.04450028, -0.9259827, 0.37493443), (-0.07413138, -0.9503632, 0.30218276), (0.14862286, -0.49459183, 0.85632366), (0.14862286, -0.49459183, 0.85632366), (0.14862286, -0.49459183, 0.85632366), (0.14862286, -0.49459183, 0.85632366), (-0.37082627, -0.6847434, 0.6273869), (-0.047915697, -0.8773834, 0.47739124), (0.14862286, -0.49459183, 0.85632366), (0.14862286, -0.49459183, 0.85632366), (0.14862286, -0.49459183, 0.85632366), (0.14862286, -0.49459183, 0.85632366), (0.62000936, 0.3105686, -0.72051054), (0.81183714, 0.32243893, -0.4867789), (0.80579036, -0.27273366, -0.5256598), (0.7187633, -0.29278916, -0.63059807), (0.11377081, -0.97716796, 0.17944065), (0.009287785, -0.99809813, -0.060941316), (-0.50368726, -0.8133904, 0.29102436), (-0.3262085, -0.76844233, 0.55053097), (-0.7411093, 0.32328495, 0.58842474), (-0.7786855, 0.35235423, 0.51912946), (-0.4528873, 0.8361371, 0.30946368), (-0.54264057, 0.8076242, 0.23083378), (0.29876497, 0.77379346, -0.5585546), (0.5242602, 0.8029181, -0.2836791), (0.81183714, 0.32243893, -0.4867789), (0.62000936, 0.3105686, -0.72051054), (0.524584, -0.80297226, -0.28292605), (0.50850374, -0.77724653, -0.37055612), (0.009287785, -0.99809813, -0.060941316), (0.11377081, -0.97716796, 0.17944065), (-0.64877117, -0.28198016, 0.70681196), (-0.80802464, -0.28386652, 0.51625174), (-0.7786855, 0.35235423, 0.51912946), (-0.7411093, 0.32328495, 0.58842474), (-0.13529927, 0.96825314, -0.21019001), (0.046586562, 0.99880546, 0.01474339), (0.5242602, 0.8029181, -0.2836791), (0.29876497, 0.77379346, -0.5585546), (0.7187633, -0.29278916, -0.63059807), (0.80579036, -0.27273366, -0.5256598), (0.50850374, -0.77724653, -0.37055612), (0.524584, -0.80297226, -0.28292605), (-0.3262085, -0.76844233, 0.55053097), (-0.50368726, -0.8133904, 0.29102436), (-0.80802464, -0.28386652, 0.51625174), (-0.64877117, -0.28198016, 0.70681196), (-0.54264057, 0.8076242, 0.23083378), (-0.4528873, 0.8361371, 0.30946368), (0.046586562, 0.99880546, 0.01474339), (-0.13529927, 0.96825314, -0.21019001), (0.009287785, -0.99809813, -0.060941316), (-0.1574713, -0.9675149, -0.1977821), (-0.6380364, -0.7675211, 0.061812155), (-0.50368726, -0.8133904, 0.29102436), (-0.7786855, 0.35235423, 0.51912946), (-0.84377325, 0.2814115, 0.4570058), (-0.43882686, 0.78986007, 0.42842978), (-0.4528873, 0.8361371, 0.30946368), (0.5242602, 0.8029181, -0.2836791), (0.6541975, 0.75431067, -0.055144295), (0.914451, 0.27061528, -0.30090985), (0.81183714, 0.32243893, -0.4867789), (0.50850374, -0.77724653, -0.37055612), (0.40994015, -0.8227643, -0.39371064), (-0.1574713, -0.9675149, -0.1977821), (0.009287785, -0.99809813, -0.060941316), (-0.80802464, -0.28386652, 0.51625174), (-0.8990826, -0.31161794, 0.3074811), (-0.84377325, 0.2814115, 0.4570058), (-0.7786855, 0.35235423, 0.51912946), (0.046586562, 0.99880546, 0.01474339), (0.15261996, 0.96378917, 0.21867245), (0.6541975, 0.75431067, -0.055144295), (0.5242602, 0.8029181, -0.2836791), (0.80579036, -0.27273366, -0.5256598), (0.8333984, -0.33967143, -0.4359707), (0.40994015, -0.8227643, -0.39371064), (0.50850374, -0.77724653, -0.37055612), (-0.50368726, -0.8133904, 0.29102436), (-0.6380364, -0.7675211, 0.061812155), (-0.8990826, -0.31161794, 0.3074811), (-0.80802464, -0.28386652, 0.51625174), (-0.4528873, 0.8361371, 0.30946368), (-0.43882686, 0.78986007, 0.42842978), (0.15261996, 0.96378917, 0.21867245), (0.046586562, 0.99880546, 0.01474339), (0.81183714, 0.32243893, -0.4867789), (0.914451, 0.27061528, -0.30090985), (0.8333984, -0.33967143, -0.4359707), (0.80579036, -0.27273366, -0.5256598), (-0.84377325, 0.2814115, 0.4570058), (-0.8194309, 0.24704044, 0.5172079), (-0.45391485, 0.7798923, 0.43096316), (-0.43882686, 0.78986007, 0.42842978), (0.6541975, 0.75431067, -0.055144295), (0.5745573, 0.80063725, -0.16989385), (0.8519756, 0.327612, -0.4084212), (0.914451, 0.27061528, -0.30090985), (0.40994015, -0.8227643, -0.39371064), (0.44027174, -0.82192135, -0.3613946), (-0.104552776, -0.9889931, -0.10469662), (-0.1574713, -0.9675149, -0.1977821), (-0.8990826, -0.31161794, 0.3074811), (-0.84316635, -0.35061362, 0.40760344), (-0.8194309, 0.24704044, 0.5172079), (-0.84377325, 0.2814115, 0.4570058), (0.15261996, 0.96378917, 0.21867245), (0.09310469, 0.9838862, 0.15264165), (0.5745573, 0.80063725, -0.16989385), (0.6541975, 0.75431067, -0.055144295), (0.8333984, -0.33967143, -0.4359707), (0.8208311, -0.302879, -0.48425254), (0.44027174, -0.82192135, -0.3613946), (0.40994015, -0.8227643, -0.39371064), (-0.6380364, -0.7675211, 0.061812155), (-0.5752063, -0.7987244, 0.17656991), (-0.84316635, -0.35061362, 0.40760344), (-0.8990826, -0.31161794, 0.3074811), (-0.43882686, 0.78986007, 0.42842978), (-0.45391485, 0.7798923, 0.43096316), (0.09310469, 0.9838862, 0.15264165), (0.15261996, 0.96378917, 0.21867245), (0.914451, 0.27061528, -0.30090985), (0.8519756, 0.327612, -0.4084212), (0.8208311, -0.302879, -0.48425254), (0.8333984, -0.33967143, -0.4359707), (-0.1574713, -0.9675149, -0.1977821), (-0.104552776, -0.9889931, -0.10469662), (-0.5752063, -0.7987244, 0.17656991), (-0.6380364, -0.7675211, 0.061812155), (0.5745573, 0.80063725, -0.16989385), (0.51751757, 0.84848154, -0.11070062), (0.85337526, 0.42401752, -0.30324867), (0.8519756, 0.327612, -0.4084212), (0.44027174, -0.82192135, -0.3613946), (0.5856319, -0.7529306, -0.3002179), (0.05710159, -0.99208343, -0.111847594), (-0.104552776, -0.9889931, -0.10469662), (-0.84316635, -0.35061362, 0.40760344), (-0.82335854, -0.47070143, 0.31705022), (-0.8765027, 0.18192133, 0.44569913), (-0.8194309, 0.24704044, 0.5172079), (0.09310469, 0.9838862, 0.15264165), (0.01739232, 0.98934346, 0.14455785), (0.51751757, 0.84848154, -0.11070062), (0.5745573, 0.80063725, -0.16989385), (0.8208311, -0.302879, -0.48425254), (0.90480584, -0.19346587, -0.37933818), (0.5856319, -0.7529306, -0.3002179), (0.44027174, -0.82192135, -0.3613946), (-0.5752063, -0.7987244, 0.17656991), (-0.45512003, -0.88365704, 0.10961707), (-0.82335854, -0.47070143, 0.31705022), (-0.84316635, -0.35061362, 0.40760344), (-0.45391485, 0.7798923, 0.43096316), (-0.52827346, 0.7615631, 0.3754314), (0.01739232, 0.98934346, 0.14455785), (0.09310469, 0.9838862, 0.15264165), (0.8519756, 0.327612, -0.4084212), (0.85337526, 0.42401752, -0.30324867), (0.90480584, -0.19346587, -0.37933818), (0.8208311, -0.302879, -0.48425254), (-0.104552776, -0.9889931, -0.10469662), (0.05710159, -0.99208343, -0.111847594), (-0.45512003, -0.88365704, 0.10961707), (-0.5752063, -0.7987244, 0.17656991), (-0.8194309, 0.24704044, 0.5172079), (-0.8765027, 0.18192133, 0.44569913), (-0.52827346, 0.7615631, 0.3754314), (-0.45391485, 0.7798923, 0.43096316), (0.5856319, -0.7529306, -0.3002179), (0.5513115, -0.80252284, -0.22806324), (0.04201589, -0.9921579, -0.1177172), (0.05710159, -0.99208343, -0.111847594), (-0.82335854, -0.47070143, 0.31705022), (-0.7984037, -0.58080924, 0.15878364), (-0.9604455, 0.0028035077, 0.27845404), (-0.8765027, 0.18192133, 0.44569913), (0.01739232, 0.98934346, 0.14455785), (0.117462486, 0.8238908, 0.55444247), (0.49710447, 0.7512868, 0.4341144), (0.51751757, 0.84848154, -0.11070062), (0.90480584, -0.19346587, -0.37933818), (0.93103325, -0.26226124, -0.2537638), (0.5513115, -0.80252284, -0.22806324), (0.5856319, -0.7529306, -0.3002179), (-0.45512003, -0.88365704, 0.10961707), (-0.4261637, -0.9044583, 0.018429894), (-0.7984037, -0.58080924, 0.15878364), (-0.82335854, -0.47070143, 0.31705022), (-0.52827346, 0.7615631, 0.3754314), (-0.6895893, 0.6599807, 0.2981476), (0.117462486, 0.8238908, 0.55444247), (0.01739232, 0.98934346, 0.14455785), (0.85337526, 0.42401752, -0.30324867), (0.8955722, 0.4201622, -0.14633587), (0.93103325, -0.26226124, -0.2537638), (0.90480584, -0.19346587, -0.37933818), (0.05710159, -0.99208343, -0.111847594), (0.04201589, -0.9921579, -0.1177172), (-0.4261637, -0.9044583, 0.018429894), (-0.45512003, -0.88365704, 0.10961707), (-0.8765027, 0.18192133, 0.44569913), (-0.9604455, 0.0028035077, 0.27845404), (-0.6895893, 0.6599807, 0.2981476), (-0.52827346, 0.7615631, 0.3754314), (0.51751757, 0.84848154, -0.11070062), (0.49710447, 0.7512868, 0.4341144), (0.8955722, 0.4201622, -0.14633587), (0.85337526, 0.42401752, -0.30324867), (-0.052052263, -0.41708642, 0.907375), (0.4454144, -0.64810544, 0.61770976), (0.35093948, -0.7352374, 0.57988566), (-0.15329643, -0.51849884, 0.84122473), (0.7037314, -0.13925801, -0.6966845), (0.53176564, 0.07567001, -0.8435042), (0.6193444, 0.18347819, -0.7633795), (0.757915, -0.05451813, -0.6500712), (-0.39797714, 0.648225, -0.64916754), (-0.75987226, 0.634646, -0.14077878), (-0.7155859, 0.6893621, -0.11276806), (-0.28429535, 0.7612925, -0.5827606), (-0.5291613, -0.03367163, 0.8478528), (-0.052052263, -0.41708642, 0.907375), (-0.15329643, -0.51849884, 0.84122473), (-0.5985855, -0.12550728, 0.7911658), (0.7817841, -0.61925614, 0.07304366), (0.8357342, -0.5083522, -0.20766897), (0.8426747, -0.5026315, -0.19303127), (0.7480237, -0.6596538, 0.07292061), (0.0849904, 0.43427202, -0.89676327), (-0.39797714, 0.648225, -0.64916754), (-0.28429535, 0.7612925, -0.5827606), (0.20790829, 0.5597643, -0.80214584), (-0.8118644, 0.37218416, 0.44983912), (-0.5291613, -0.03367163, 0.8478528), (-0.5985855, -0.12550728, 0.7911658), (-0.8354196, 0.3348398, 0.43583992), (0.4454144, -0.64810544, 0.61770976), (0.7817841, -0.61925614, 0.07304366), (0.7480237, -0.6596538, 0.07292061), (0.35093948, -0.7352374, 0.57988566), (0.53176564, 0.07567001, -0.8435042), (0.0849904, 0.43427202, -0.89676327), (0.20790829, 0.5597643, -0.80214584), (0.6193444, 0.18347819, -0.7633795), (-0.75987226, 0.634646, -0.14077878), (-0.8118644, 0.37218416, 0.44983912), (-0.8354196, 0.3348398, 0.43583992), (-0.7155859, 0.6893621, -0.11276806), (0.757915, -0.05451813, -0.6500712), (0.6193444, 0.18347819, -0.7633795), (0.62635154, 0.2525157, -0.7375091), (0.78740066, -0.0124173155, -0.61631656), (-0.28429535, 0.7612925, -0.5827606), (-0.7155859, 0.6893621, -0.11276806), (-0.6307733, 0.7562518, -0.17380501), (-0.17514233, 0.7887619, -0.5892196), (-0.5985855, -0.12550728, 0.7911658), (-0.15329643, -0.51849884, 0.84122473), (0.0019595593, -0.24415848, 0.9697334), (-0.28984088, 0.036132086, 0.9563926), (0.7480237, -0.6596538, 0.07292061), (0.8426747, -0.5026315, -0.19303127), (0.84598947, -0.49997434, -0.18527722), (0.7794943, -0.6264083, 0.0011970609), (0.20790829, 0.5597643, -0.80214584), (-0.28429535, 0.7612925, -0.5827606), (-0.17514233, 0.7887619, -0.5892196), (0.2645074, 0.5898841, -0.7629368), (-0.8354196, 0.3348398, 0.43583992), (-0.5985855, -0.12550728, 0.7911658), (-0.28984088, 0.036132086, 0.9563926), (-0.84264946, 0.374195, 0.38719508), (0.35093948, -0.7352374, 0.57988566), (0.7480237, -0.6596538, 0.07292061), (0.7794943, -0.6264083, 0.0011970609), (0.350796, -0.77696985, 0.52274287), (0.6193444, 0.18347819, -0.7633795), (0.20790829, 0.5597643, -0.80214584), (0.2645074, 0.5898841, -0.7629368), (0.62635154, 0.2525157, -0.7375091), (-0.7155859, 0.6893621, -0.11276806), (-0.8354196, 0.3348398, 0.43583992), (-0.84264946, 0.374195, 0.38719508), (-0.6307733, 0.7562518, -0.17380501), (-0.15329643, -0.51849884, 0.84122473), (0.35093948, -0.7352374, 0.57988566), (0.350796, -0.77696985, 0.52274287), (0.0019595593, -0.24415848, 0.9697334), (0.7817841, -0.61925614, 0.07304366), (0.803495, -0.5921759, 0.061020415), (0.8348959, -0.50945204, -0.20834486), (0.8357342, -0.5083522, -0.20766897), (0.0849904, 0.43427202, -0.89676327), (-0.0062578153, 0.36037627, -0.93278605), (-0.47029564, 0.5816905, -0.66367024), (-0.39797714, 0.648225, -0.64916754), (-0.8118644, 0.37218416, 0.44983912), (-0.807014, 0.40761855, 0.42728862), (-0.51382196, 0.0372639, 0.8570872), (-0.5291613, -0.03367163, 0.8478528), (0.4454144, -0.64810544, 0.61770976), (0.4976062, -0.5962017, 0.6300251), (0.803495, -0.5921759, 0.061020415), (0.7817841, -0.61925614, 0.07304366), (0.53176564, 0.07567001, -0.8435042), (0.4606098, 0.016710294, -0.88744545), (-0.0062578153, 0.36037627, -0.93278605), (0.0849904, 0.43427202, -0.89676327), (-0.75987226, 0.634646, -0.14077878), (-0.77965695, 0.6066725, -0.15518878), (-0.807014, 0.40761855, 0.42728862), (-0.8118644, 0.37218416, 0.44983912), (-0.052052263, -0.41708642, 0.907375), (-0.01123803, -0.35168383, 0.93605137), (0.4976062, -0.5962017, 0.6300251), (0.4454144, -0.64810544, 0.61770976), (0.7037314, -0.13925801, -0.6966845), (0.6683534, -0.19393636, -0.7181172), (0.4606098, 0.016710294, -0.88744545), (0.53176564, 0.07567001, -0.8435042), (-0.39797714, 0.648225, -0.64916754), (-0.47029564, 0.5816905, -0.66367024), (-0.77965695, 0.6066725, -0.15518878), (-0.75987226, 0.634646, -0.14077878), (-0.5291613, -0.03367163, 0.8478528), (-0.51382196, 0.0372639, 0.8570872), (-0.01123803, -0.35168383, 0.93605137), (-0.052052263, -0.41708642, 0.907375), (0.26270708, 0.26477805, 0.9278349), (0.26270708, 0.26477805, 0.9278349), (0.26270708, 0.26477805, 0.9278349), (0.26270708, 0.26477805, 0.9278349), (-0.28984088, 0.036132086, 0.9563926), (0.0019595593, -0.24415848, 0.9697334), (0.26270708, 0.26477805, 0.9278349), (0.26270708, 0.26477805, 0.9278349), (0.26270708, 0.26477805, 0.9278349), (0.26270708, 0.26477805, 0.9278349), (0.3787707, 0.37194014, 0.84746283), (0.3787707, 0.37194014, 0.84746283), (0.3787707, 0.37194014, 0.84746283), (0.3787707, 0.37194014, 0.84746283), (0.3787707, 0.37194014, 0.84746283), (0.49710447, 0.7512868, 0.4341144), (0.117462486, 0.8238908, 0.55444247), (0.3787707, 0.37194014, 0.84746283), (0.3787707, 0.37194014, 0.84746283), (0.3787707, 0.37194014, 0.84746283), (0, 0, 1), (0, 0, 1), (0, 0, 1), (0, 0, 1), (0, 0, 1), (0, 0, 1), (0, 0, 1), (0, 0, 1), (0, 0, 1), (0, 0, 1), (0, 0, 1), (0, 0, 1), (-0.40213767, 0.059654616, 0.9136337), (-0.50495136, -0.04829245, 0.8617957), (-0.7243976, 0.4219453, 0.54517), (-0.6363515, 0.5198472, 0.569926), (-0.33434275, 0.74267066, -0.58022004), (-0.2900025, 0.7843906, -0.5482973), (0.17276207, 0.52204037, -0.8352407), (0.06335341, 0.42602754, -0.90248924), (0.6361068, -0.47653177, -0.60686547), (0.75061995, -0.35627, -0.5564543), (0.68511695, -0.7274991, -0.036876276), (0.62980974, -0.774545, -0.05847737), (-0.021284522, -0.4231162, 0.9058253), (-0.11427384, -0.4983791, 0.859395), (-0.50495136, -0.04829245, 0.8617957), (-0.40213767, 0.059654616, 0.9136337), (-0.6154665, 0.78807664, -0.011673597), (-0.65596634, 0.754757, -0.0070761614), (-0.2900025, 0.7843906, -0.5482973), (-0.33434275, 0.74267066, -0.58022004), (0.41961005, -0.02576232, -0.90733886), (0.54703903, 0.10699846, -0.8302408), (0.75061995, -0.35627, -0.5564543), (0.6361068, -0.47653177, -0.60686547), (0.37702018, -0.75374734, 0.53825706), (0.33936477, -0.778623, 0.52780455), (-0.11427384, -0.4983791, 0.859395), (-0.021284522, -0.4231162, 0.9058253), (-0.6363515, 0.5198472, 0.569926), (-0.7243976, 0.4219453, 0.54517), (-0.65596634, 0.754757, -0.0070761614), (-0.6154665, 0.78807664, -0.011673597), (0.06335341, 0.42602754, -0.90248924), (0.17276207, 0.52204037, -0.8352407), (0.54703903, 0.10699846, -0.8302408), (0.41961005, -0.02576232, -0.90733886), (0.62980974, -0.774545, -0.05847737), (0.68511695, -0.7274991, -0.036876276), (0.33936477, -0.778623, 0.52780455), (0.37702018, -0.75374734, 0.53825706), (-0.2900025, 0.7843906, -0.5482973), (-0.19650687, 0.78559774, -0.58670366), (0.24223025, 0.5317531, -0.811519), (0.17276207, 0.52204037, -0.8352407), (0.75061995, -0.35627, -0.5564543), (0.7783151, -0.24884279, -0.5764572), (0.75125086, -0.6509963, -0.10874731), (0.68511695, -0.7274991, -0.036876276), (-0.11427384, -0.4983791, 0.859395), (0.051059388, -0.17285357, 0.9836232), (-0.22801729, 0.11988395, 0.9662484), (-0.50495136, -0.04829245, 0.8617957), (-0.65596634, 0.754757, -0.0070761614), (-0.62381816, 0.77719384, -0.082587264), (-0.19650687, 0.78559774, -0.58670366), (-0.2900025, 0.7843906, -0.5482973), (0.54703903, 0.10699846, -0.8302408), (0.5779687, 0.16775535, -0.79863024), (0.7783151, -0.24884279, -0.5764572), (0.75061995, -0.35627, -0.5564543), (0.33936477, -0.778623, 0.52780455), (0.37787145, -0.7918594, 0.47976223), (0.051059388, -0.17285357, 0.9836232), (-0.11427384, -0.4983791, 0.859395), (-0.7243976, 0.4219453, 0.54517), (-0.7670722, 0.41514325, 0.48913845), (-0.62381816, 0.77719384, -0.082587264), (-0.65596634, 0.754757, -0.0070761614), (0.17276207, 0.52204037, -0.8352407), (0.24223025, 0.5317531, -0.811519), (0.5779687, 0.16775535, -0.79863024), (0.54703903, 0.10699846, -0.8302408), (0.68511695, -0.7274991, -0.036876276), (0.75125086, -0.6509963, -0.10874731), (0.37787145, -0.7918594, 0.47976223), (0.33936477, -0.778623, 0.52780455), (-0.50495136, -0.04829245, 0.8617957), (-0.22801729, 0.11988395, 0.9662484), (-0.7670722, 0.41514325, 0.48913845), (-0.7243976, 0.4219453, 0.54517), (-0.6154665, 0.78807664, -0.011673597), (-0.33434275, 0.74267066, -0.58022004), (-0.35395586, 0.71185505, -0.6066116), (-0.5885236, 0.80804056, -0.026655583), (0.41961005, -0.02576232, -0.90733886), (0.6361068, -0.47653177, -0.60686547), (0.56910217, -0.5497303, -0.61148936), (0.3448244, -0.12030025, -0.9309263), (0.37702018, -0.75374734, 0.53825706), (-0.021284522, -0.4231162, 0.9058253), (0.04984274, -0.4071412, 0.9120043), (0.41208825, -0.7518296, 0.5147189), (-0.6363515, 0.5198472, 0.569926), (-0.6154665, 0.78807664, -0.011673597), (-0.5885236, 0.80804056, -0.026655583), (-0.58408576, 0.5728763, 0.5750275), (0.06335341, 0.42602754, -0.90248924), (0.41961005, -0.02576232, -0.90733886), (0.3448244, -0.12030025, -0.9309263), (0.0034390555, 0.3504158, -0.9365879), (0.62980974, -0.774545, -0.05847737), (0.37702018, -0.75374734, 0.53825706), (0.41208825, -0.7518296, 0.5147189), (0.6015355, -0.7957773, -0.0699544), (-0.40213767, 0.059654616, 0.9136337), (-0.6363515, 0.5198472, 0.569926), (-0.58408576, 0.5728763, 0.5750275), (-0.33614358, 0.10328282, 0.93613046), (-0.33434275, 0.74267066, -0.58022004), (0.06335341, 0.42602754, -0.90248924), (0.0034390555, 0.3504158, -0.9365879), (-0.35395586, 0.71185505, -0.6066116), (0.6361068, -0.47653177, -0.60686547), (0.62980974, -0.774545, -0.05847737), (0.6015355, -0.7957773, -0.0699544), (0.56910217, -0.5497303, -0.61148936), (-0.021284522, -0.4231162, 0.9058253), (-0.40213767, 0.059654616, 0.9136337), (-0.33614358, 0.10328282, 0.93613046), (0.04984274, -0.4071412, 0.9120043), (0.2809632, 0.3710697, 0.8850801), (0.2809632, 0.3710697, 0.8850801), (0.2809632, 0.3710697, 0.8850801), (0.2809632, 0.3710697, 0.8850801), (0.2809632, 0.3710697, 0.8850801), (-0.22801729, 0.11988395, 0.9662484), (0.051059388, -0.17285357, 0.9836232), (0.2809632, 0.3710697, 0.8850801), (0.2809632, 0.3710697, 0.8850801), (0.2809632, 0.3710697, 0.8850801), (0.62843084, 0.06551313, 0.7751017), (0.45007482, 0.62918216, 0.63368946), (0.4737308, 0.6649616, 0.5774124), (0.3405493, -0.010352144, 0.9401697), (-0.05468651, -0.9516517, -0.3022723), (0.27362415, -0.9270555, 0.25631586), (0.31483105, -0.9191633, 0.23668607), (-0.11982361, -0.95706064, -0.26396447), (0.48019746, -0.52535737, 0.7024315), (0.49828964, 0.06763371, 0.8643686), (0.62843084, 0.06551313, 0.7751017), (0.58503324, -0.51090235, 0.6298532), (0.070750214, 0.9698674, 0.23313442), (-0.15060465, 0.9885931, -0.0013703185), (-0.15347359, 0.98812807, 0.00697779), (0.0145332115, 0.98514307, 0.1711201), (-0.51381284, 0.5002605, -0.69694746), (-0.5300251, -0.05516514, -0.8461856), (-0.6876383, -0.056513958, -0.7238506), (-0.6384516, 0.485598, -0.5971384), (-0.5195615, 0.72089845, -0.45865157), (-0.6384516, 0.485598, -0.5971384), (-0.69243157, 0.44323075, -0.56928456), (-0.5649876, 0.7111679, -0.41836503), (0.018801747, 0.9701786, 0.24166043), (-0.14421946, 0.9893945, -0.017300466), (-0.15060465, 0.9885931, -0.0013703185), (0.070750214, 0.9698674, 0.23313442), (-0.6876383, -0.056513958, -0.7238506), (-0.5113052, -0.5943612, -0.6207267), (-0.60001606, -0.52750957, -0.6014269), (-0.73934734, -0.039047793, -0.672191), (-0.3645652, -0.5985895, -0.71329015), (-0.05468651, -0.9516517, -0.3022723), (-0.11982361, -0.95706064, -0.26396447), (-0.5113052, -0.5943612, -0.6207267), (0.58503324, -0.51090235, 0.6298532), (0.62843084, 0.06551313, 0.7751017), (0.3405493, -0.010352144, 0.9401697), (0.29742005, -0.40566152, 0.86428005), (0.49828964, 0.06763371, 0.8643686), (0.33073643, 0.6399314, 0.6936146), (0.45007482, 0.62918216, 0.63368946), (0.62843084, 0.06551313, 0.7751017), (0.31483105, -0.9191633, 0.23668607), (0.58503324, -0.51090235, 0.6298532), (0.29742005, -0.40566152, 0.86428005), (0.28096932, -0.94106245, 0.18830204), (-0.5300251, -0.05516514, -0.8461856), (-0.3645652, -0.5985895, -0.71329015), (-0.5113052, -0.5943612, -0.6207267), (-0.6876383, -0.056513958, -0.7238506), (0.27362415, -0.9270555, 0.25631586), (0.48019746, -0.52535737, 0.7024315), (0.58503324, -0.51090235, 0.6298532), (0.31483105, -0.9191633, 0.23668607)] (
                interpolation = "faceVarying"
            )
            point3f[] points = [(-0.046997286, -0.04379007, 0.0003975574), (0.0811596, -0.13332613, 0.0054991357), (-0.09979142, 0.1121552, -0.0016893353), (-0.04505732, 0.26614204, 0.0005132109), (0.08387719, 0.35263225, 0.0056675375), (0.23626551, 0.35173637, 0.011746738), (0.36339194, 0.2627757, 0.016807284), (0.41471553, 0.11174026, 0.01883611), (0.36415905, -0.041263696, 0.016800346), (0.23508094, -0.13296962, 0.011639642), (0.31468388, 0.38261884, 4.163036), (0.40314364, 0.31647637, 4.2118607), (0.2794059, 0.4945795, 4.1340995), (0.31727546, 0.60846317, 4.150538), (0.41003835, 0.673851, 4.1986213), (0.5206635, 0.67239267, 4.2517266), (0.6133412, 0.6028723, 4.290965), (0.6476919, 0.48769465, 4.301099), (0.6068196, 0.37718627, 4.287727), (0.51274943, 0.3142235, 4.2580576), (0.32419014, 0.32843012, 5.3683844), (0.39307424, 0.27403829, 5.3441415), (0.29840758, 0.41527343, 5.3826637), (0.3286303, 0.50295293, 5.3877225), (0.4056602, 0.55708754, 5.3804326), (0.49849197, 0.55468565, 5.3584332), (0.5686829, 0.49777004, 5.327331), (0.59063196, 0.4085022, 5.298134), (0.55513847, 0.32013825, 5.291286), (0.47938088, 0.27023104, 5.3142886), (0.056522977, -0.40197533, 8.625281), (0.084135994, -0.42420506, 8.6221075), (0.04335983, -0.37581605, 8.644842), (0.049300626, -0.3558691, 8.672894), (0.07212956, -0.34957772, 8.698962), (0.1033292, -0.35976303, 8.71273), (0.13015805, -0.3821894, 8.7085495), (0.1424043, -0.40747702, 8.689062), (0.1366859, -0.42667937, 8.662059), (0.11490885, -0.43338257, 8.636564), (0.23858485, -0.13132907, 7.6868014), (0.29523343, -0.17494597, 7.682305), (0.21853316, -0.062786825, 7.694487), (0.24330029, 0.003677417, 7.7039347), (0.30299905, 0.042320415, 7.7114825), (0.3741848, 0.03899418, 7.712689), (0.43044484, -0.0036263654, 7.7063484), (0.45191264, -0.07123806, 7.6947856), (0.42702478, -0.13924874, 7.685163), (0.36634383, -0.17811652, 7.6816087), (0.397695, 0.18716668, 7.149647), (-0.6293888, 0.042961802, 7.890167), (-0.6096128, 0.0032937196, 7.890525), (0.4122549, 0.13912468, 7.164946), (0.42004752, 0.08998911, 7.148494), (-0.6161026, -0.039969537, 7.8838167), (0.41991043, 0.058468204, 7.105639), (-0.64635897, -0.07057783, 7.8709073), (0.408095, 0.057321113, 7.0532093), (-0.69002277, -0.07592037, 7.859648), (0.38849777, 0.086795315, 7.0137343), (-0.72877645, -0.053816345, 7.855785), (-0.088551186, 0.1506595, 7.2797885), (0.3658538, 0.18104152, 7.0168085), (-0.35352257, 0.11523785, 7.4908934), (0.3732942, 0.13358025, 7.0005293), (-0.7106868, 0.05715403, 7.872858), (0.36943936, 0.21273611, 7.057373), (0.36943936, 0.21273611, 7.057373), (0.3816443, 0.21543519, 7.1082716), (0.34959567, 0.25572065, 0.5165869), (0.4084752, 0.12440879, 0.5630308), (-0.04819982, 0.23302773, 0.55047774), (0.07059699, 0.31881112, 0.510696), (0.10786041, -0.09672628, 0.68684316), (-0.02261869, -0.029754726, 0.66312253), (0.37020934, -0.008264528, 0.6229042), (0.21928985, 0.32792222, 0.4979403), (-0.08722222, 0.09625178, 0.60885024), (0.25514343, -0.08921187, 0.671604), (0.5896626, 0.6767901, 1.879382), (0.19558933, 0.65289605, 1.8523942), (0.3370931, 0.31291264, 1.9445502), (0.6422334, 0.5411311, 1.9039392), (0.31581205, 0.74180055, 1.8490045), (0.21182863, 0.38256305, 1.9155973), (0.5986776, 0.40438345, 1.9310983), (0.46332896, 0.7514644, 1.8593807), (0.15315473, 0.51218754, 1.8764026), (0.48224998, 0.32062814, 1.9499197), (0.29137674, 0.1744055, 7.029239), (0.3155886, 0.095137164, 7.0167093), (0.38154006, 0.044854507, 7.0078764), (0.4646384, 0.04108421, 7.0031085), (0.31920043, 0.25233787, 7.044892), (0.38946718, 0.29855314, 7.0573144), (0.4748248, 0.2948738, 7.0581603), (0.54198956, 0.24419829, 7.0450773), (0.566864, 0.16505167, 7.02276), (0.53664786, 0.086144365, 7.0055056), (0.5932553, 0.22282687, 7.7923036), (0.56292045, 0.23920849, 7.7996798), (0.6099885, 0.19110844, 7.791527), (0.6064468, 0.15563664, 7.799029), (0.5834808, 0.13040188, 7.8122025), (0.54980326, 0.12526354, 7.8252378), (0.5183586, 0.14194939, 7.832944), (0.5004493, 0.17425112, 7.8311596), (0.50476253, 0.21033673, 7.8224735), (0.52975345, 0.23502359, 7.811335), (0.69435155, 0.24740216, 8.021933), (0.66676176, 0.26469335, 8.034916), (0.7051643, 0.21698603, 8.006771), (0.69450754, 0.18403324, 7.9961615), (0.6660067, 0.16150376, 7.9945674), (0.6306355, 0.1585581, 8.00203), (0.6019777, 0.17620263, 8.015401), (0.5904894, 0.20855102, 8.028561), (0.6021705, 0.2424011, 8.038469), (0.6322489, 0.26308498, 8.041653), (0.8291342, 0.2308465, 8.364037), (0.80626154, 0.2452291, 8.376556), (0.83717895, 0.20664856, 8.347675), (0.826769, 0.18093476, 8.334364), (0.80151105, 0.16380903, 8.329573), (0.7711697, 0.16234085, 8.334729), (0.74739957, 0.1770316, 8.347593), (0.73893905, 0.20313594, 8.362507), (0.75028205, 0.2296333, 8.375366), (0.77673554, 0.24492607, 8.38129), (0.438892, 0.10463748, 7.48029), (0.40671217, 0.118413314, 7.4844985), (0.46031016, 0.077121295, 7.4886985), (0.4626506, 0.04632054, 7.50801), (0.4444655, 0.02443717, 7.530991), (0.41257304, 0.019752901, 7.5480633), (0.3792648, 0.0337777, 7.5525813), (0.35648587, 0.060792312, 7.5416875), (0.35476297, 0.0918536, 7.520991), (0.37511727, 0.114202544, 7.4999104), (0.5076143, 0.33348802, 4.478892), (0.4328446, 0.3624412, 4.535613), (0.5664729, 0.35883728, 4.4022193), (0.5882483, 0.4326186, 4.336033), (0.56344175, 0.5271236, 4.30715), (0.5003153, 0.6045281, 4.325842), (0.4230593, 0.63510674, 4.384072), (0.35787943, 0.6055592, 4.4581637), (0.33618835, 0.52755755, 4.5235896), (0.368713, 0.43506917, 4.5540433), (1.1519444, 0.52857137, 5.137074), (1.0560526, 0.5638374, 5.184799), (1.2501941, 0.5621418, 5.0882583), (1.3149729, 0.65484935, 5.060242), (1.3197716, 0.77163124, 5.065139), (1.2614222, 0.866758, 5.0991783), (1.1626332, 0.9040195, 5.148401), (1.0578974, 0.86911595, 5.1908226), (0.9926487, 0.77225757, 5.216232), (0.99577534, 0.65442836, 5.2161565), (1.4440095, 0.27626234, 5.9231296), (1.3562028, 0.3158697, 5.9511247), (1.5445662, 0.29253674, 5.9168143), (1.62039, 0.35976976, 5.93856), (1.6406993, 0.45262802, 5.98091), (1.5970249, 0.5355427, 6.0255103), (1.506688, 0.57708985, 6.0546913), (1.4024384, 0.5629533, 6.0540237), (1.3263564, 0.49312103, 6.0287557), (1.3110259, 0.3962425, 5.9916983), (1.9111061, 0.05222986, 6.9024563), (1.823421, 0.0931159, 6.9289546), (2.012211, 0.06597367, 6.9002566), (2.0889444, 0.13020828, 6.927264), (2.1101487, 0.22076008, 6.973943), (2.067092, 0.30304918, 7.020271), (1.9768891, 0.3458934, 7.0479536), (1.8723953, 0.33465782, 7.0431294), (1.7954655, 0.26797333, 7.0125012), (1.7789423, 0.17306285, 6.971112), (2.577088, -0.040918224, 7.947874), (2.5055206, -0.028800538, 7.970612), (2.639371, -0.008590933, 7.9152417), (2.6689603, 0.05851424, 7.8869753), (2.6532347, 0.13485384, 7.8746886), (2.597657, 0.19010365, 7.881906), (2.5237753, 0.20318724, 7.905251), (2.4579446, 0.16813911, 7.933571), (2.4289005, 0.09797944, 7.9606514), (2.449601, 0.022888316, 7.976595), (2.7785523, -0.12325847, 8.7163105), (2.718925, -0.112903476, 8.73895), (2.827744, -0.09773088, 8.68095), (2.8480248, -0.043594602, 8.647546), (2.830584, 0.018594142, 8.62962), (2.7815971, 0.06394577, 8.633217), (2.7200084, 0.07510388, 8.656412), (2.6676605, 0.046658043, 8.688716), (2.6478984, -0.010165926, 8.7214365), (2.6697292, -0.070702076, 8.7419405), (2.5171056, 0.6990676, 7.335908), (2.4649858, 0.7362586, 7.327635), (2.5457075, 0.6547217, 7.375028), (2.5397115, 0.6213928, 7.4325066), (2.5005894, 0.6128177, 7.486186), (2.442972, 0.6315344, 7.514329), (2.388947, 0.66979694, 7.5062194), (2.3575387, 0.7117509, 7.4633408), (2.3646386, 0.744098, 7.4034605), (2.4079578, 0.75421304, 7.3527117), (2.7642498, 1.0102371, 7.5709014), (2.718677, 1.0553476, 7.5679045), (2.778247, 0.9498324, 7.5914173), (2.7545185, 0.8973013, 7.6242356), (2.701449, 0.87381905, 7.6568995), (2.6393406, 0.8882719, 7.6754723), (2.5919576, 0.9345803, 7.672639), (2.5762794, 0.99489677, 7.64716), (2.6017106, 1.0473762, 7.612117), (2.6579828, 1.0703028, 7.5836525), (3.1013227, 1.4114171, 7.9948726), (3.0640266, 1.4512001, 7.994492), (3.1102703, 1.3577955, 8.005968), (3.0865822, 1.3106264, 8.025685), (3.038756, 1.2888724, 8.046651), (2.9851866, 1.3009361, 8.059618), (2.9463747, 1.3417671, 8.059386), (2.9363651, 1.3959372, 8.044004), (2.9616542, 1.4432641, 8.022531), (3.0118732, 1.4639632, 8.005249), (2.1465988, 0.17481849, 7.1331763), (2.0901475, 0.20500329, 7.124773), (2.186396, 0.14676741, 7.1772676), (2.1945033, 0.13351801, 7.242145), (2.166878, 0.14098504, 7.3026996), (2.1136234, 0.16519836, 7.3349433), (2.0552278, 0.19636711, 7.326756), (2.0122614, 0.22081617, 7.2804813), (2.0049057, 0.23241046, 7.213447), (2.0369968, 0.22753409, 7.154281), (2.5457075, 0.6547217, 7.375028), (2.778247, 0.9498324, 7.5914173), (3.1102703, 1.3577955, 8.005968), (2.186396, 0.14676741, 7.1772676), (1.9277799, 0.7054085, 6.212163), (1.9522163, 0.67034376, 6.2104797), (1.8988974, 0.7274869, 6.236077), (1.8774416, 0.7282389, 6.2747035), (1.8722677, 0.7068185, 6.313217), (1.8848528, 0.67110586, 6.3361177), (1.9099951, 0.6348002, 6.3346868), (1.9372485, 0.6105824, 6.308548), (1.9580299, 0.6103686, 6.268262), (1.9642644, 0.6347783, 6.231328), (2.1369967, 0.8856112, 6.343662), (2.1667461, 0.8552475, 6.3448453), (2.0972395, 0.89665693, 6.356676), (2.0627563, 0.88384837, 6.380709), (2.047449, 0.8516314, 6.406671), (2.0570953, 0.8122162, 6.4236827), (2.0876377, 0.7806717, 6.425105), (2.127277, 0.7681245, 6.4089594), (2.1617057, 0.7818752, 6.3833275), (2.1766977, 0.816535, 6.3598857), (2.4080982, 1.1397123, 6.5912943), (2.4343684, 1.1150187, 6.59359), (2.3727221, 1.1466645, 6.5984445), (2.341646, 1.1328187, 6.613802), (2.327364, 1.1031106, 6.631635), (2.3353868, 1.0688734, 6.6443014), (2.3623466, 1.0431904, 6.646814), (2.398039, 1.0351985, 6.6369205), (2.4292037, 1.0499536, 6.6202784), (2.4428303, 1.0815328, 6.604687), (1.5775213, 0.44737428, 6.113988), (1.5973048, 0.40947652, 6.1126423), (1.5595108, 0.47715735, 6.140105), (1.5514653, 0.4877051, 6.1822624), (1.5570182, 0.47434127, 6.2242045), (1.573297, 0.44180357, 6.249397), (1.5937297, 0.40264148, 6.2483397), (1.6093252, 0.370611, 6.2210755), (1.6162554, 0.36039162, 6.1774545), (1.6124405, 0.37679595, 6.1360464), (-0.66809964, 0.06360939, 7.883067), (-0.7106868, 0.05715403, 7.872858), (-0.7471775, -0.014944282, 7.8568506), (-0.74058807, 0.026877077, 7.8634105), (-0.37079224, -0.014896675, 7.464648), (-0.3264139, -0.04101263, 7.4759374), (-0.27786297, -0.035029996, 7.4974785), (-0.24531117, 0.00064236997, 7.51906), (-0.23924163, 0.05137552, 7.529241), (-0.26232007, 0.098069385, 7.5261145), (-0.30602622, 0.12255956, 7.5110426), (-0.35352257, 0.11523785, 7.4908934), (-0.39254183, 0.030822711, 7.4634204), (-0.3863218, 0.079861715, 7.473414), (-0.0864273, 0.022362415, 7.238997), (-0.053332925, -0.0053073145, 7.269822), (-0.02279836, -0.0016139735, 7.3139133), (-0.0068526254, 0.032081842, 7.3518653), (-0.00822797, 0.08211231, 7.367382), (-0.027729148, 0.12950385, 7.356075), (-0.05823844, 0.15581661, 7.322232), (-0.088551186, 0.1506595, 7.2797885), (-0.10573739, 0.0686164, 7.229937), (-0.10683914, 0.1169594, 7.2452464)]
            texCoord2f[] primvars:st = [(0.37098056, -1.5131143), (0.44181657, -1.5095648), (0.29586178, -1.5119182), (0.2229362, -1.506483), (0.15585466, -1.4993056), (0.09047218, -1.4914399), (0.024111465, -1.4846967), (0.65204096, -1.4791571), (-0.043909475, -1.4802889), (0.5806858, -1.4903957), (0.5106574, -1.5014337), (0.40344173, 0.42982954), (0.45514023, 0.45960996), (0.34762514, 0.4123631), (0.29001975, 0.42110154), (0.23547111, 0.44660217), (0.18275346, 0.47643885), (0.12741078, 0.501775), (0.07000889, 0.51475936), (0.6155789, 0.5027187), (0.5601297, 0.4982228), (0.5065649, 0.48500803), (0.41261834, 1.0378395), (0.45797426, 1.0263714), (0.36568278, 1.0421371), (0.3174402, 1.0416242), (0.268462, 1.0380363), (0.2194886, 1.0314772), (0.17060591, 1.0225204), (0.5961943, 0.99112266), (0.12098272, 1.0159565), (0.5472042, 0.9933479), (0.50175315, 1.0094568), (0.694818, -1.4631625), (0.4450099, 2.9223986), (0.67821944, -1.4580122), (0.46537226, 2.9210749), (0.7049804, -1.4770349), (0.42644083, 2.9305239), (0.40995187, 2.941838), (0.7049804, -1.4940909), (0.39318365, 2.9530191), (0.6948178, -1.5079645), (0.3739695, 2.9604824), (0.67821926, -1.5131143), (0.35346216, 2.9618902), (0.66198283, -1.5074493), (0.33384293, 2.9579525), (0.51653373, 2.9498281), (0.6524049, -1.4937729), (0.50125676, 2.9377987), (0.65240467, -1.4773537), (0.48471707, 2.9270563), (0.6619834, -1.463678), (0.44693196, 2.3499174), (0.48719144, 2.3497267), (0.4067859, 2.3433886), (0.36681402, 2.3332741), (0.32648027, 2.32557), (0.28590924, 2.3235056), (0.24566896, 2.3270373), (0.20620938, 2.33638), (0.60714704, 2.3294668), (0.56622803, 2.3354445), (0.52660215, 2.3440704), (0.31662625, 0.9574858), (0.42779747, 0.35290363), (0.7074515, 0.9460543), (0.41522524, 0.3487551), (0.7040128, 0.93360364), (0.31640735, 0.94192183), (0.31389025, 0.926551), (0.40751964, 0.33801404), (0.7047384, 0.9207171), (0.30943176, 0.91127264), (0.40757987, 0.32459366), (0.7088923, 0.9082122), (0.30575702, 0.8954412), (0.4157859, 0.3137959), (0.71571004, 0.8965926), (0.30473664, 0.879444), (0.4286755, 0.31022677), (0.72258365, 0.8851433), (0.58353454, 0.6985891), (0.30768362, 0.84858084), (0.5847037, 0.564538), (0.30532116, 0.86391807), (0.5858729, 0.43048647), (0.5811956, 0.8326198), (0.31087267, 0.83317626), (0.31119496, 0.9883974), (0.5835348, 0.8326608), (0.31451818, 0.97298324), (0.038667783, -1.2560813), (0.6215985, -1.2370536), (-0.028164849, -1.2400976), (0.24797715, -1.2614145), (0.17964841, -1.2699064), (0.43272448, -1.2234646), (0.3732744, -1.2331382), (0.5561175, -1.2258524), (0.10896589, -1.2662483), (0.3122748, -1.2470158), (0.4934429, -1.2197425), (0.021553949, -0.625762), (0.21681903, -0.6466201), (0.42378962, -0.6030144), (0.6275172, -0.5892721), (-0.043906316, -0.6177141), (0.15100522, -0.63526386), (0.35390675, -0.62871265), (0.56111807, -0.5874831), (0.086290434, -0.62686056), (0.2843879, -0.6482431), (0.49352467, -0.58953077), (0.39493704, 1.9415244), (0.44137132, 1.944349), (0.4881335, 1.9423457), (0.53446305, 1.9355537), (0.34924042, 1.9397976), (0.30357796, 1.9396504), (0.25783837, 1.9394594), (0.21228074, 1.9385445), (0.6285546, 1.9255449), (0.16612555, 1.9410338), (0.581121, 1.9275503), (0.32480595, 0.55843556), (0.33445004, 0.5577325), (0.314929, 0.5583287), (0.30473664, 0.5576669), (0.40629163, 0.5588716), (0.39588743, 0.5574394), (0.38538325, 0.55602753), (0.3749016, 0.5550463), (0.36443624, 0.5544148), (0.35408905, 0.5549851), (0.3440737, 0.55658394), (0.32524982, 0.6272825), (0.33483407, 0.6275653), (0.315774, 0.6245315), (0.30642873, 0.6204847), (0.4024547, 0.62145716), (0.3931916, 0.61673677), (0.38315699, 0.6140586), (0.37280992, 0.61426437), (0.36271718, 0.6168019), (0.35331535, 0.62111175), (0.3442315, 0.62543744), (0.32863107, 0.72873384), (0.40751964, 0.29992443), (0.33704183, 0.72918665), (0.40751973, 0.29154012), (0.32057935, 0.72582376), (0.41244164, 0.30689177), (0.3128955, 0.7218231), (0.39302292, 0.72257227), (0.4206329, 0.30971223), (0.38563988, 0.7180886), (0.428942, 0.30714354), (0.37746337, 0.71564794), (0.4341022, 0.30017015), (0.368952, 0.7159339), (0.4341652, 0.29150906), (0.360648, 0.71847445), (0.42905927, 0.2843497), (0.35288808, 0.72277164), (0.42058587, 0.28167322), (0.3452336, 0.7271), (0.41233844, 0.28463584), (0.32522586, 0.45517802), (0.33539674, 0.453661), (0.31501076, 0.45725933), (0.30473664, 0.4594225), (0.40769106, 0.4605458), (0.39739263, 0.46178004), (0.38706857, 0.46148762), (0.37688926, 0.4596919), (0.3667812, 0.45662737), (0.3562993, 0.45409817), (0.34569177, 0.453338), (0.21588497, -0.3722748), (0.26696497, -0.38246265), (0.16218941, -0.36770192), (0.7203658, -0.37226787), (0.66620463, -0.3928565), (0.6098463, -0.411513), (0.5494866, -0.42482814), (0.48849142, -0.4293594), (0.42848456, -0.42697594), (0.3718421, -0.4154357), (0.31778497, -0.39705423), (0.2785976, 0.0033513154), (0.32149285, -0.0059043323), (0.23815946, 0.012012586), (0.63843113, 0.003794774), (0.5995925, 0.0018904652), (0.5619, -0.00072361575), (0.52483743, -0.00477393), (0.48762542, -0.009472385), (0.44950956, -0.015626267), (0.4083007, -0.017962769), (0.36524874, -0.013192132), (0.3076473, 0.32382557), (0.34161097, 0.31552917), (0.27339488, 0.33613226), (0.63503647, 0.32794484), (0.59957796, 0.33887365), (0.562535, 0.34695566), (0.5241253, 0.3480154), (0.48619574, 0.34145737), (0.4496677, 0.3284489), (0.41340613, 0.31718585), (0.37671113, 0.31344435), (0.31989652, 0.71472394), (0.35448593, 0.7044566), (0.2875442, 0.73223317), (0.6348902, 0.7251601), (0.60135424, 0.74171114), (0.56617516, 0.7540987), (0.5293725, 0.75649244), (0.49358553, 0.7479072), (0.46054345, 0.73030573), (0.42679238, 0.7128277), (0.3905819, 0.7040933), (0.3637871, 1.1891035), (0.39015275, 1.1888298), (0.3379284, 1.181833), (0.5956846, 1.1787444), (0.572765, 1.1627007), (0.54769075, 1.1485386), (0.5195064, 1.1412354), (0.49064022, 1.1429523), (0.4633327, 1.1522945), (0.4391327, 1.1672549), (0.41551298, 1.1814349), (0.38685602, 1.458116), (0.11893536, 0.42298228), (0.40933502, 1.458116), (0.09926809, 0.42298192), (0.36501926, 1.451528), (0.57414466, 1.4459018), (0.13527854, 0.41143733), (0.5556106, 1.4330567), (0.14189504, 0.39222282), (0.536068, 1.4220601), (0.13587038, 0.3727307), (0.51454526, 1.4165215), (0.11951284, 0.3606278), (0.49231082, 1.4183147), (0.09919612, 0.36047882), (0.4708385, 1.4261183), (0.0824015, 0.3724558), (0.45078105, 1.4386654), (0.07612334, 0.3923321), (0.43089235, 1.4513643), (0.083073065, 0.41167912), (-0.13568132, 0.76126194), (-0.15490736, 0.75968117), (-0.31814027, 0.7620916), (-0.11601846, 0.76122034), (0.30140436, 0.7417478), (-0.2978384, 0.76004344), (-0.27712077, 0.7575338), (-0.25620735, 0.7550475), (-0.23534788, 0.753394), (-0.21452342, 0.75240856), (-0.19395389, 0.7538006), (-0.17405616, 0.7572052), (-0.13861437, 0.89880687), (-0.15776803, 0.8989937), (-0.11952533, 0.8936515), (-0.3096544, 0.89457804), (0.302921, 0.56786495), (-0.29205364, 0.8845369), (-0.2735346, 0.87544155), (-0.2534873, 0.87042505), (-0.23291175, 0.87115175), (-0.21292083, 0.87652856), (-0.1943611, 0.88544554), (-0.17643027, 0.8943942), (-0.15086655, 1.0996739), (0.1288196, 0.25723064), (-0.16742797, 1.1001), (0.119242474, 0.243674), (-0.1348706, 1.0944158), (-0.29078662, 1.0942218), (0.1288196, 0.27411786), (0.30443722, 0.3939819), (-0.27705336, 1.0844212), (0.118796214, 0.2880346), (-0.26243806, 1.0759238), (0.102426425, 0.29337257), (-0.24628787, 1.0714633), (0.08611852, 0.28799134), (-0.22957225, 1.0724044), (0.07612334, 0.27405873), (-0.21335165, 1.0777926), (0.076201424, 0.25665066), (-0.19827946, 1.0866362), (0.08684583, 0.24264447), (-0.1834281, 1.0955522), (0.10356538, 0.2380148), (-0.13600157, 0.5573697), (-0.15589605, 0.5543054), (-0.31736296, 0.5619245), (-0.11601968, 0.5615064), (0.30140495, 0.9156306), (-0.29736865, 0.5662352), (-0.27726632, 0.56896967), (-0.2570777, 0.5686856), (-0.2371396, 0.56542057), (-0.21732147, 0.55963737), (-0.19678588, 0.5548707), (-0.17603536, 0.5535471), (0.3044389, 0.74177426), (0.30595547, 0.56789154), (0.30747205, 0.3940082), (0.30443925, 0.91568375), (-0.22403084, 0.24818115), (-0.23642386, 0.24721925), (-0.21136935, 0.24811272), (-0.19836442, 0.24735858), (-0.18499838, 0.2463244), (-0.17143585, 0.24532251), (-0.15784295, 0.24486901), (-0.14422072, 0.24486001), (-0.27526152, 0.24270542), (-0.26179618, 0.24353687), (-0.24883433, 0.24567784), (-0.2235971, 0.33633253), (-0.23587324, 0.33700708), (-0.21157809, 0.3325121), (-0.19980381, 0.3270655), (-0.18747361, 0.32220003), (-0.17431916, 0.31998235), (-0.16107644, 0.32148823), (-0.14836578, 0.32599872), (-0.27214748, 0.32404616), (-0.25985223, 0.32930863), (-0.24801324, 0.33458444), (-0.22316869, 0.46634474), (0.09960164, 0.12673973), (-0.23392482, 0.4672941), (0.108408794, 0.12051876), (-0.21299435, 0.4622648), (0.08863182, 0.12673955), (-0.20334433, 0.4568052), (0.079591796, 0.12022944), (-0.19328897, 0.45226693), (0.07612334, 0.109595045), (-0.18250455, 0.45043322), (0.07961978, 0.09900127), (-0.17168535, 0.45212844), (0.08866961, 0.09250803), (-0.16143186, 0.45669523), (-0.26468372, 0.45459473), (0.09997885, 0.0925592), (-0.25453585, 0.4597629), (0.1090772, 0.0994726), (-0.24451874, 0.4649793), (0.112085, 0.11033453), (-0.22167633, 0.11535959), (-0.23473229, 0.11309688), (-0.20858608, 0.11835031), (-0.19542916, 0.121451065), (-0.18225522, 0.123551026), (-0.16897406, 0.12369327), (-0.15580647, 0.12189184), (-0.1426063, 0.11843242), (-0.27526152, 0.11593877), (-0.26167625, 0.11301316), (-0.24798618, 0.11236502), (0.44041735, 0.34878844), (0.7140024, 0.95732164), (0.4481447, 0.33805963), (0.5835332, 0.4304662), (0.72155815, 0.967909), (0.7217076, 0.84770894), (0.4407614, 0.3145896), (0.7260897, 0.87280834), (0.4481447, 0.3250408), (0.7257611, 0.86004066), (0.5675052, 0.87974846), (0.5606065, 0.89357185), (0.55373216, 0.90788007), (0.549587, 0.9232916), (0.5490267, 0.9391539), (0.55289406, 0.9546089), (0.55990595, 0.9688858), (0.5823643, 0.5645175), (0.5669327, 0.83587885), (0.567647, 0.9824547), (0.57105106, 0.8653612), (0.5709071, 0.8505951), (0.4617424, 0.8779182), (0.45911762, 0.8932579), (0.45804453, 0.90911555), (0.4588042, 0.9251697), (0.46007892, 0.94125086), (0.46199566, 0.9573736), (0.4639305, 0.9733454), (0.5811951, 0.69856864), (0.46483776, 0.8331753), (0.46550938, 0.9889967), (0.4636511, 0.86315584), (0.46486983, 0.84833395)] (
                interpolation = "faceVarying"
            )
            int[] primvars:st:indices = [108, 104, 17, 18, 28, 17, 16, 27, 109, 105, 14, 15, 110, 106, 12, 11, 111, 107, 19, 20, 112, 109, 15, 16, 113, 110, 11, 13, 114, 111, 20, 21, 104, 112, 16, 17, 105, 113, 13, 14, 106, 114, 21, 12, 405, 84, 86, 404, 25, 14, 13, 24, 23, 12, 21, 32, 30, 18, 17, 28, 378, 81, 78, 75, 72, 68, 66, 372, 374, 380, 31, 20, 19, 29, 27, 16, 15, 26, 26, 15, 14, 25, 32, 21, 20, 31, 61, 60, 45, 47, 398, 70, 65, 399, 389, 85, 87, 375, 24, 13, 11, 22, 401, 83, 85, 389, 401, 88, 91, 83, 402, 89, 84, 405, 11, 12, 23, 22, 397, 71, 70, 398, 394, 80, 77, 395, 116, 117, 55, 54, 63, 62, 48, 50, 59, 58, 41, 43, 58, 57, 39, 41, 64, 63, 50, 52, 60, 59, 43, 45, 57, 56, 38, 39, 55, 64, 52, 36, 33, 35, 53, 51, 49, 46, 44, 42, 40, 37, 118, 125, 63, 64, 122, 121, 59, 60, 119, 115, 56, 57, 117, 118, 64, 55, 124, 122, 60, 61, 120, 119, 57, 58, 115, 116, 54, 56, 125, 123, 62, 63, 121, 120, 58, 59, 56, 54, 34, 38, 387, 388, 373, 67, 382, 383, 79, 82, 402, 405, 393, 390, 400, 92, 90, 403, 393, 392, 379, 381, 395, 77, 74, 396, 404, 86, 80, 394, 383, 384, 76, 79, 399, 65, 92, 400, 396, 74, 71, 397, 399, 400, 388, 387, 1, 10, 103, 98, 3, 2, 102, 96, 6, 5, 101, 93, 10, 9, 100, 103, 2, 0, 99, 102, 5, 4, 97, 101, 9, 7, 94, 100, 0, 1, 98, 99, 4, 3, 96, 97, 8, 6, 93, 95, 98, 103, 114, 106, 96, 102, 113, 105, 93, 101, 112, 104, 103, 100, 111, 114, 102, 99, 110, 113, 101, 97, 109, 112, 100, 94, 107, 111, 99, 98, 106, 110, 97, 96, 105, 109, 95, 93, 104, 108, 55, 36, 34, 54, 27, 26, 120, 121, 31, 29, 123, 125, 24, 22, 116, 115, 26, 25, 119, 120, 30, 28, 122, 124, 23, 32, 118, 117, 25, 24, 115, 119, 28, 27, 121, 122, 32, 31, 125, 118, 22, 23, 117, 116, 132, 131, 142, 143, 128, 126, 137, 139, 136, 135, 146, 147, 133, 132, 143, 144, 129, 128, 139, 140, 127, 136, 147, 138, 134, 133, 144, 145, 131, 130, 141, 142, 126, 127, 138, 137, 135, 134, 145, 146, 139, 137, 148, 152, 147, 146, 165, 167, 144, 143, 159, 161, 140, 139, 152, 154, 138, 147, 167, 150, 145, 144, 161, 163, 142, 141, 155, 157, 137, 138, 150, 148, 146, 145, 163, 165, 143, 142, 157, 159, 129, 172, 171, 128, 127, 170, 179, 136, 134, 177, 176, 133, 131, 174, 173, 130, 126, 169, 170, 127, 135, 178, 177, 134, 132, 175, 174, 131, 128, 171, 169, 126, 136, 179, 178, 135, 133, 176, 175, 132, 151, 168, 166, 164, 162, 160, 158, 156, 153, 149, 185, 196, 195, 184, 180, 191, 192, 181, 189, 200, 199, 188, 186, 197, 196, 185, 182, 193, 191, 180, 190, 201, 200, 189, 187, 198, 197, 186, 184, 195, 194, 183, 181, 192, 201, 190, 188, 199, 198, 187, 191, 202, 203, 192, 200, 211, 210, 199, 197, 208, 207, 196, 193, 204, 202, 191, 201, 212, 211, 200, 198, 209, 208, 197, 195, 206, 205, 194, 192, 203, 212, 201, 199, 210, 209, 198, 196, 207, 206, 195, 211, 222, 221, 210, 208, 219, 218, 207, 204, 215, 213, 202, 212, 223, 222, 211, 209, 220, 219, 208, 206, 217, 216, 205, 203, 214, 223, 212, 210, 221, 220, 209, 207, 218, 217, 206, 202, 213, 214, 203, 219, 230, 229, 218, 215, 226, 224, 213, 223, 234, 233, 222, 220, 231, 230, 219, 217, 228, 227, 216, 214, 225, 234, 223, 221, 232, 231, 220, 218, 229, 228, 217, 213, 224, 225, 214, 222, 233, 232, 221, 226, 239, 235, 224, 234, 254, 252, 233, 231, 248, 246, 230, 228, 242, 240, 227, 225, 237, 254, 234, 232, 250, 248, 231, 229, 244, 242, 228, 224, 235, 237, 225, 233, 252, 250, 232, 230, 246, 244, 229, 263, 262, 274, 275, 259, 256, 268, 270, 267, 266, 278, 279, 264, 263, 275, 276, 261, 258, 271, 273, 257, 267, 279, 269, 265, 264, 276, 277, 262, 261, 273, 274, 256, 257, 269, 268, 266, 265, 277, 278, 270, 268, 280, 284, 279, 278, 298, 300, 276, 275, 292, 294, 273, 271, 285, 288, 269, 279, 300, 282, 277, 276, 294, 296, 274, 273, 288, 290, 268, 269, 282, 280, 278, 277, 296, 298, 275, 274, 290, 292, 261, 307, 304, 258, 257, 303, 313, 267, 265, 311, 310, 264, 262, 308, 307, 261, 256, 302, 303, 257, 266, 312, 311, 265, 263, 309, 308, 262, 259, 305, 302, 256, 267, 313, 312, 266, 264, 310, 309, 263, 283, 301, 299, 297, 295, 293, 291, 289, 286, 281, 238, 236, 241, 243, 245, 247, 249, 251, 253, 255, 260, 306, 317, 314, 272, 315, 316, 287, 260, 314, 315, 272, 323, 334, 333, 322, 320, 331, 329, 318, 328, 339, 338, 327, 324, 335, 334, 323, 321, 332, 331, 320, 319, 330, 339, 328, 325, 336, 335, 324, 322, 333, 332, 321, 318, 329, 330, 319, 327, 338, 337, 326, 331, 344, 340, 329, 339, 359, 357, 338, 335, 352, 350, 334, 332, 346, 344, 331, 330, 342, 359, 339, 336, 354, 352, 335, 333, 348, 346, 332, 329, 340, 342, 330, 338, 357, 355, 337, 334, 350, 348, 333, 321, 320, 363, 364, 319, 328, 371, 362, 325, 324, 367, 368, 322, 321, 364, 365, 318, 319, 362, 361, 327, 326, 369, 370, 323, 322, 365, 366, 320, 318, 361, 363, 328, 327, 370, 371, 324, 323, 366, 367, 343, 341, 345, 347, 349, 351, 353, 356, 358, 360, 386, 387, 67, 69, 395, 396, 384, 383, 397, 398, 386, 385, 388, 391, 376, 373, 405, 404, 392, 393, 390, 393, 381, 377, 400, 403, 391, 388, 392, 382, 82, 379, 394, 395, 383, 382, 385, 386, 69, 73, 398, 399, 387, 386, 384, 385, 73, 76, 404, 394, 382, 392, 396, 397, 385, 384]
            uniform token subdivisionScheme = "none"
            custom string userProperties:blender:data_name = "Cylinder.051"
        }
    }

    def Scope "_materials"
    {
        def Material "Birch_Bark"
        {
            token outputs:surface.connect = </root/_materials/Birch_Bark/Principled_BSDF.outputs:surface>
            custom string userProperties:blender:data_name = "Birch_Bark"

            def Shader "Principled_BSDF"
            {
                uniform token info:id = "UsdPreviewSurface"
                float inputs:clearcoat = 0
                float inputs:clearcoatRoughness = 0.03
                color3f inputs:diffuseColor = (0.8, 0.8, 0.8)
                color3f inputs:emissiveColor = (0, 0, 0)
                float inputs:ior = 1.5
                float inputs:metallic = 0
                float inputs:opacity = 1
                float inputs:roughness = 0.5527864
                float inputs:specular = 1
                token outputs:surface
            }
        }
    }
}

