#usda 1.0
(
    defaultPrim = "root"
    doc = "Blender v5.1.2"
    metersPerUnit = 1
    upAxis = "Y"
)

def Xform "root" (
    customData = {
        dictionary Blender = {
            bool generated = 1
        }
    }
)
{
    float3 xformOp:rotateXYZ = (-90, -0, 0)
    uniform token[] xformOpOrder = ["xformOp:rotateXYZ"]

    def Xform "CupcakeCherry"
    {
        custom string userProperties:blender:object_name = "CupcakeCherry"

        def Mesh "Cylinder_002" (
            active = true
            prepend apiSchemas = ["MaterialBindingAPI"]
        )
        {
            uniform bool doubleSided = 1
            float3[] extent = [(-0.31777897, -0.30647585, -0.1726858), (0.31777897, 0.31777894, 1.0916069)]
            int[] faceVertexCounts = [4, 4, 4, 4, 4, 4, 4, 4, 4, 4, 4, 4, 4, 4, 4, 4, 4, 4, 5, 4, 4, 5, 8, 3, 3, 4, 4, 5, 4, 4, 3, 6, 4, 4, 3, 4, 4, 3, 3, 6, 7, 3, 6, 4, 7, 3, 3, 3, 3, 4, 5, 3, 8, 3, 3, 3, 4, 4, 4, 3, 3, 4, 4, 4, 4, 4, 4, 4, 4, 4, 4, 3, 3, 4, 4, 3, 3, 4, 4, 4, 4, 8, 4, 5, 4, 4, 4, 4, 4, 4, 4, 4, 5, 4, 4, 3, 4, 4, 4, 4, 4, 4, 4, 4, 4, 4, 4, 4, 4, 4, 4, 4, 3, 3, 4, 4, 4, 3, 5]
            int[] faceVertexIndices = [117, 1, 2, 118, 119, 7, 1, 117, 110, 109, 8, 9, 118, 2, 15, 120, 119, 6, 21, 121, 109, 111, 14, 8, 112, 110, 9, 16, 9, 8, 17, 18, 108, 107, 41, 20, 111, 113, 22, 14, 8, 14, 23, 17, 114, 112, 16, 25, 16, 9, 18, 26, 27, 18, 17, 28, 120, 15, 24, 122, 121, 21, 42, 123, 113, 115, 31, 22, 14, 22, 32, 23, 17, 23, 45, 33, 40, 116, 114, 25, 35, 25, 16, 26, 36, 26, 18, 39, 50, 37, 33, 38, 51, 50, 39, 27, 28, 40, 39, 18, 27, 28, 17, 40, 115, 116, 35, 31, 22, 31, 43, 32, 23, 32, 64, 54, 44, 35, 25, 36, 47, 36, 26, 49, 48, 49, 26, 37, 123, 42, 55, 56, 46, 124, 31, 35, 47, 43, 52, 32, 43, 53, 45, 23, 44, 57, 47, 36, 58, 36, 48, 59, 58, 51, 38, 60, 55, 42, 41, 74, 62, 53, 43, 47, 70, 63, 65, 54, 64, 52, 53, 62, 64, 32, 52, 54, 65, 38, 33, 45, 44, 57, 67, 70, 47, 48, 49, 37, 50, 51, 66, 59, 51, 60, 68, 38, 69, 60, 38, 65, 69, 66, 51, 68, 68, 60, 71, 72, 69, 73, 81, 71, 60, 65, 63, 75, 62, 74, 67, 57, 58, 59, 66, 63, 65, 75, 69, 74, 70, 67, 66, 68, 76, 76, 68, 72, 77, 72, 71, 82, 78, 69, 75, 79, 73, 63, 76, 75, 63, 66, 76, 75, 76, 77, 79, 77, 72, 78, 80, 79, 77, 80, 84, 78, 82, 86, 87, 80, 78, 87, 88, 84, 83, 73, 79, 83, 85, 81, 73, 84, 80, 88, 89, 85, 82, 71, 81, 82, 85, 90, 86, 87, 86, 91, 88, 87, 91, 83, 84, 89, 92, 85, 83, 92, 90, 89, 88, 91, 86, 90, 91, 89, 91, 90, 92, 94, 95, 96, 93, 93, 97, 104, 94, 12, 94, 104, 11, 93, 96, 98, 99, 100, 101, 102, 97, 95, 103, 98, 96, 11, 6, 0, 4, 12, 41, 42, 21, 20, 99, 98, 103, 105, 100, 99, 105, 106, 101, 100, 106, 107, 102, 101, 107, 108, 97, 102, 108, 104, 20, 21, 6, 11, 104, 108, 20, 11, 95, 94, 12, 4, 5, 124, 61, 24, 34, 4, 0, 3, 5, 41, 107, 55, 107, 106, 56, 55, 30, 34, 116, 115, 34, 24, 114, 116, 13, 30, 115, 113, 24, 15, 112, 114, 7, 13, 113, 111, 15, 2, 110, 112, 1, 7, 111, 109, 2, 1, 109, 110, 13, 121, 123, 30, 10, 120, 122, 29, 7, 119, 121, 13, 3, 118, 120, 10, 6, 119, 117, 0, 0, 117, 118, 3, 30, 123, 124, 34, 106, 29, 56, 19, 10, 29, 3, 10, 19, 5, 103, 95, 5, 19, 105, 103, 19, 29, 106, 105, 29, 29, 61, 124, 46, 56]
            rel material:binding = </root/_materials/Material_003>
            normal3f[] normals = [(0.38057294, 0.91878426, -0.10487945), (0.38057294, 0.91878426, -0.10487945), (0.38057294, 0.91878426, -0.10487945), (0.38057294, 0.91878426, -0.10487945), (-0.37971538, 0.9167145, -0.12430078), (-0.37971538, 0.9167145, -0.12430078), (-0.37971538, 0.9167145, -0.12430078), (-0.37971538, 0.9167145, -0.12430078), (0.38265613, 0.92381275, -0.012015372), (0.38265613, 0.92381275, -0.012015372), (0.38265613, 0.92381275, -0.012015372), (0.38265613, 0.92381275, -0.012015372), (0.91429526, 0.39537337, -0.088000014), (0.91429526, 0.39537337, -0.088000014), (0.91429526, 0.39537337, -0.088000014), (0.91429526, 0.39537337, -0.088000014), (-0.80054927, 0.25955066, 0.54014283), (-0.80054927, 0.25955066, 0.54014283), (-0.80054927, 0.25955066, 0.54014283), (-0.80054927, 0.25955066, 0.54014283), (-0.38265613, 0.9238127, -0.012014922), (-0.38265613, 0.9238127, -0.012014922), (-0.38265613, 0.9238127, -0.012014922), (-0.38265613, 0.9238127, -0.012014922), (0.921354, 0.38771692, -0.027972994), (0.921354, 0.38771692, -0.027972994), (0.921354, 0.38771692, -0.027972994), (0.921354, 0.38771692, -0.027972994), (0.23296446, 0.56242573, 0.79335046), (0.23296446, 0.56242573, 0.79335046), (0.23296446, 0.56242573, 0.79335046), (0.23296446, 0.56242573, 0.79335046), (-0.9098054, -0.35978174, -0.20690872), (-0.9098054, -0.35978174, -0.20690872), (-0.9098054, -0.35978174, -0.20690872), (-0.9098054, -0.35978174, -0.20690872), (-0.9213541, 0.3877168, -0.0279728), (-0.9213541, 0.3877168, -0.0279728), (-0.9213541, 0.3877168, -0.0279728), (-0.9213541, 0.3877168, -0.0279728), (-0.23296449, 0.5624258, 0.7933504), (-0.23296449, 0.5624258, 0.7933504), (-0.23296449, 0.5624258, 0.7933504), (-0.23296449, 0.5624258, 0.7933504), (0.9250364, -0.3764509, -0.050914846), (0.9250364, -0.3764509, -0.050914846), (0.9250364, -0.3764509, -0.050914846), (0.9250364, -0.3764509, -0.050914846), (0.66404927, 0.11447088, 0.73887414), (0.66404927, 0.11447088, 0.73887414), (0.66404927, 0.11447088, 0.73887414), (0.66404927, 0.11447088, 0.73887414), (0.0940441, 0.22704035, 0.96933407), (0.0940441, 0.22704035, 0.96933407), (0.0940441, 0.22704035, 0.96933407), (0.0940441, 0.22704035, 0.96933407), (0.9240259, -0.37321466, -0.08298775), (0.9240259, -0.37321466, -0.08298775), (0.9240259, -0.37321466, -0.08298775), (0.9240259, -0.37321466, -0.08298775), (-0.7316501, -0.3503666, 0.58474904), (-0.7316501, -0.3503666, 0.58474904), (-0.7316501, -0.3503666, 0.58474904), (-0.7316501, -0.3503666, 0.58474904), (-0.92503625, -0.3764512, -0.050914615), (-0.92503625, -0.3764512, -0.050914615), (-0.92503625, -0.3764512, -0.050914615), (-0.92503625, -0.3764512, -0.050914615), (-0.6640489, 0.11447092, 0.73887444), (-0.6640489, 0.11447092, 0.73887444), (-0.6640489, 0.11447092, 0.73887444), (-0.6640489, 0.11447092, 0.73887444), (-0.11197974, 0.27034453, 0.9562292), (-0.11197974, 0.27034453, 0.9562292), (-0.11197974, 0.27034453, 0.9562292), (-0.11197974, 0.27034453, 0.9562292), (-0.11197974, 0.27034453, 0.9562292), (0.39290532, -0.9171086, -0.06735916), (0.39290532, -0.9171086, -0.06735916), (0.39290532, -0.9171086, -0.06735916), (0.39290532, -0.9171086, -0.06735916), (0.6412716, -0.35527715, 0.68010944), (0.6412716, -0.35527715, 0.68010944), (0.6412716, -0.35527715, 0.68010944), (0.6412716, -0.35527715, 0.68010944), (0.3778877, -0.044466663, 0.92478293), (0.3778877, -0.044466663, 0.92478293), (0.3778877, -0.044466663, 0.92478293), (0.3778877, -0.044466663, 0.92478293), (0.3778877, -0.044466663, 0.92478293), (0.18759833, 0.5773643, -0.7946428), (0.18759833, 0.5773643, -0.7946428), (0.18759833, 0.5773643, -0.7946428), (0.18759833, 0.5773643, -0.7946428), (0.18759833, 0.5773643, -0.7946428), (0.18759833, 0.5773643, -0.7946428), (0.18759833, 0.5773643, -0.7946428), (0.18759833, 0.5773643, -0.7946428), (0.07325192, 0.31073365, 0.94767016), (0.07325192, 0.31073365, 0.94767016), (0.07325192, 0.31073365, 0.94767016), (-0.037823454, 0.22788894, 0.9729523), (-0.037823454, 0.22788894, 0.9729523), (-0.037823454, 0.22788894, 0.9729523), (-0.39290547, -0.91710854, -0.06735873), (-0.39290547, -0.91710854, -0.06735873), (-0.39290547, -0.91710854, -0.06735873), (-0.39290547, -0.91710854, -0.06735873), (-0.64127177, -0.35527727, 0.68010926), (-0.64127177, -0.35527727, 0.68010926), (-0.64127177, -0.35527727, 0.68010926), (-0.64127177, -0.35527727, 0.68010926), (-0.46110052, -0.0018626356, 0.88734597), (-0.46110052, -0.0018626356, 0.88734597), (-0.46110052, -0.0018626356, 0.88734597), (-0.46110052, -0.0018626356, 0.88734597), (-0.46110052, -0.0018626356, 0.88734597), (0.19371931, -0.75829864, 0.6224597), (0.19371931, -0.75829864, 0.6224597), (0.19371931, -0.75829864, 0.6224597), (0.19371931, -0.75829864, 0.6224597), (0.42581782, -0.2893885, 0.85728264), (0.42581782, -0.2893885, 0.85728264), (0.42581782, -0.2893885, 0.85728264), (0.42581782, -0.2893885, 0.85728264), (0.46431082, 0.12217224, 0.8772055), (0.46431082, 0.12217224, 0.8772055), (0.46431082, 0.12217224, 0.8772055), (-0.2727877, -0.7588594, 0.59137064), (-0.2727877, -0.7588594, 0.59137064), (-0.2727877, -0.7588594, 0.59137064), (-0.2727877, -0.7588594, 0.59137064), (-0.2727877, -0.7588594, 0.59137064), (-0.2727877, -0.7588594, 0.59137064), (-0.19371967, -0.75829864, 0.6224595), (-0.19371967, -0.75829864, 0.6224595), (-0.19371967, -0.75829864, 0.6224595), (-0.19371967, -0.75829864, 0.6224595), (-0.4906786, -0.31056368, 0.8141159), (-0.4906786, -0.31056368, 0.8141159), (-0.4906786, -0.31056368, 0.8141159), (-0.4906786, -0.31056368, 0.8141159), (-0.30335432, 0.051220514, 0.95150024), (-0.30335432, 0.051220514, 0.95150024), (-0.30335432, 0.051220514, 0.95150024), (0.10882782, -0.6240104, 0.7738008), (0.10882782, -0.6240104, 0.7738008), (0.10882782, -0.6240104, 0.7738008), (0.10882782, -0.6240104, 0.7738008), (0.563516, -0.22545317, 0.79474574), (0.563516, -0.22545317, 0.79474574), (0.563516, -0.22545317, 0.79474574), (0.563516, -0.22545317, 0.79474574), (0.30353567, 0.9341715, -0.18758929), (0.30353567, 0.9341715, -0.18758929), (0.30353567, 0.9341715, -0.18758929), (-0.39059773, -0.87958425, -0.27159733), (-0.39059773, -0.87958425, -0.27159733), (-0.39059773, -0.87958425, -0.27159733), (-0.1320403, -0.633973, 0.7619998), (-0.1320403, -0.633973, 0.7619998), (-0.1320403, -0.633973, 0.7619998), (-0.1320403, -0.633973, 0.7619998), (-0.1320403, -0.633973, 0.7619998), (-0.1320403, -0.633973, 0.7619998), (-0.49112296, -0.356829, -0.7946517), (-0.49112296, -0.356829, -0.7946517), (-0.49112296, -0.356829, -0.7946517), (-0.49112296, -0.356829, -0.7946517), (-0.49112296, -0.356829, -0.7946517), (-0.49112296, -0.356829, -0.7946517), (-0.49112296, -0.356829, -0.7946517), (-0.44450846, -0.17595315, 0.8783238), (-0.44450846, -0.17595315, 0.8783238), (-0.44450846, -0.17595315, 0.8783238), (-0.49112022, 0.3568296, -0.7946531), (-0.49112022, 0.3568296, -0.7946531), (-0.49112022, 0.3568296, -0.7946531), (-0.49112022, 0.3568296, -0.7946531), (-0.49112022, 0.3568296, -0.7946531), (-0.49112022, 0.3568296, -0.7946531), (0.18077622, -0.64259964, 0.7445707), (0.18077622, -0.64259964, 0.7445707), (0.18077622, -0.64259964, 0.7445707), (0.18077622, -0.64259964, 0.7445707), (0.6070679, 1.1451881e-7, -0.79465), (0.6070679, 1.1451881e-7, -0.79465), (0.6070679, 1.1451881e-7, -0.79465), (0.6070679, 1.1451881e-7, -0.79465), (0.6070679, 1.1451881e-7, -0.79465), (0.6070679, 1.1451881e-7, -0.79465), (0.6070679, 1.1451881e-7, -0.79465), (0.7946493, 0.57735926, 0.18758687), (0.7946493, 0.57735926, 0.18758687), (0.7946493, 0.57735926, 0.18758687), (-0.30353564, 0.9341715, 0.18758905), (-0.30353564, 0.9341715, 0.18758905), (-0.30353564, 0.9341715, 0.18758905), (-0.7946491, 0.5773594, -0.18758713), (-0.7946491, 0.5773594, -0.18758713), (-0.7946491, 0.5773594, -0.18758713), (0.98224616, 0, -0.18759692), (0.98224616, 0, -0.18759692), (0.98224616, 0, -0.18759692), (0.4911222, 0.35682943, 0.794652), (0.4911222, 0.35682943, 0.794652), (0.4911222, 0.35682943, 0.794652), (0.4911222, 0.35682943, 0.794652), (-0.18759747, 0.57735395, 0.7946506), (-0.18759747, 0.57735395, 0.7946506), (-0.18759747, 0.57735395, 0.7946506), (-0.18759747, 0.57735395, 0.7946506), (-0.18759747, 0.57735395, 0.7946506), (-0.7946493, -0.5773592, -0.18758693), (-0.7946493, -0.5773592, -0.18758693), (-0.7946493, -0.5773592, -0.18758693), (0.1875982, -0.57735294, -0.79465115), (0.1875982, -0.57735294, -0.79465115), (0.1875982, -0.57735294, -0.79465115), (0.1875982, -0.57735294, -0.79465115), (0.1875982, -0.57735294, -0.79465115), (0.1875982, -0.57735294, -0.79465115), (0.1875982, -0.57735294, -0.79465115), (0.1875982, -0.57735294, -0.79465115), (-0.9822462, 0, 0.18759665), (-0.9822462, 0, 0.18759665), (-0.9822462, 0, 0.18759665), (0, -0.29382953, 0.9558578), (0, -0.29382953, 0.9558578), (0, -0.29382953, 0.9558578), (0.7946496, -0.57735884, 0.1875869), (0.7946496, -0.57735884, 0.1875869), (0.7946496, -0.57735884, 0.1875869), (0.491122, -0.35682902, 0.7946523), (0.491122, -0.35682902, 0.7946523), (0.491122, -0.35682902, 0.7946523), (0.491122, -0.35682902, 0.7946523), (0.86569417, 0.50016016, 0.020329205), (0.86569417, 0.50016016, 0.020329205), (0.86569417, 0.50016016, 0.020329205), (0.86569417, 0.50016016, 0.020329205), (-0.60706455, -5.779772e-7, 0.7946526), (-0.60706455, -5.779772e-7, 0.7946526), (-0.60706455, -5.779772e-7, 0.7946526), (-0.60706455, -5.779772e-7, 0.7946526), (-0.30353576, -0.93417144, 0.18758933), (-0.30353576, -0.93417144, 0.18758933), (-0.30353576, -0.93417144, 0.18758933), (0.3035355, -0.9341716, -0.18758908), (0.3035355, -0.9341716, -0.18758908), (0.3035355, -0.9341716, -0.18758908), (-0.18759595, -0.5773533, 0.79465145), (-0.18759595, -0.5773533, 0.79465145), (-0.18759595, -0.5773533, 0.79465145), (-0.18759595, -0.5773533, 0.79465145), (0.8598961, -0.5104337, 0.0060084467), (0.8598961, -0.5104337, 0.0060084467), (0.8598961, -0.5104337, 0.0060084467), (0.8598961, -0.5104337, 0.0060084467), (-0.44846594, -0.89378804, 0.004592338), (-0.44846594, -0.89378804, 0.004592338), (-0.44846594, -0.89378804, 0.004592338), (-0.44846594, -0.89378804, 0.004592338), (0.68209577, 0.36101976, -0.6359324), (0.68209577, 0.36101976, -0.6359324), (0.68209577, 0.36101976, -0.6359324), (0.68209577, 0.36101976, -0.6359324), (0.70795906, -0.62841547, -0.32231662), (0.70795906, -0.62841547, -0.32231662), (0.70795906, -0.62841547, -0.32231662), (0.70795906, -0.62841547, -0.32231662), (-0.92742383, -0.37394732, 0.006966542), (-0.92742383, -0.37394732, 0.006966542), (-0.92742383, -0.37394732, 0.006966542), (-0.92742383, -0.37394732, 0.006966542), (0.5180695, 0.85533756, -0.0012111546), (0.5180695, 0.85533756, -0.0012111546), (0.5180695, 0.85533756, -0.0012111546), (0.5180695, 0.85533756, -0.0012111546), (-0.2652797, -0.83543485, 0.4813265), (-0.2652797, -0.83543485, 0.4813265), (-0.2652797, -0.83543485, 0.4813265), (-0.2652797, -0.83543485, 0.4813265), (0.025952203, 0.99965227, 0.004665255), (0.025952203, 0.99965227, 0.004665255), (0.025952203, 0.99965227, 0.004665255), (0.025952203, 0.99965227, 0.004665255), (-0.04539703, 0.95660454, -0.28783152), (-0.04539703, 0.95660454, -0.28783152), (-0.04539703, 0.95660454, -0.28783152), (-0.04539703, 0.95660454, -0.28783152), (0.8529946, 0.46873325, 0.22954144), (0.8529946, 0.46873325, 0.22954144), (0.8529946, 0.46873325, 0.22954144), (0.86991936, -0.21119069, 0.4456891), (0.86991936, -0.21119069, 0.4456891), (0.86991936, -0.21119069, 0.4456891), (-0.76288146, -0.15532707, 0.62760293), (-0.76288146, -0.15532707, 0.62760293), (-0.76288146, -0.15532707, 0.62760293), (-0.76288146, -0.15532707, 0.62760293), (0.45534784, 0.68235624, -0.5718814), (0.45534784, 0.68235624, -0.5718814), (0.45534784, 0.68235624, -0.5718814), (0.45534784, 0.68235624, -0.5718814), (0.323167, -0.314169, 0.8926707), (0.323167, -0.314169, 0.8926707), (0.323167, -0.314169, 0.8926707), (0.2958151, 0.785953, 0.5429286), (0.2958151, 0.785953, 0.5429286), (0.2958151, 0.785953, 0.5429286), (-0.03160558, 0.30210215, 0.9527515), (-0.03160558, 0.30210215, 0.9527515), (-0.03160558, 0.30210215, 0.9527515), (-0.03160558, 0.30210215, 0.9527515), (0.3557547, 0.90584415, -0.22996727), (0.3557547, 0.90584415, -0.22996727), (0.3557547, 0.90584415, -0.22996727), (0.3557547, 0.90584415, -0.22996727), (-0.3557548, 0.9058441, -0.22996731), (-0.3557548, 0.9058441, -0.22996731), (-0.3557548, 0.9058441, -0.22996731), (-0.3557548, 0.9058441, -0.22996731), (-0.3810955, 0.91503257, -0.13221762), (-0.3810955, 0.91503257, -0.13221762), (-0.3810955, 0.91503257, -0.13221762), (-0.3810955, 0.91503257, -0.13221762), (0, 0, -1), (0, 0, -1), (0, 0, -1), (0, 0, -1), (0, 0, -1), (0, 0, -1), (0, 0, -1), (0, 0, -1), (0.9058442, 0.35575458, -0.22996718), (0.9058442, 0.35575458, -0.22996718), (0.9058442, 0.35575458, -0.22996718), (0.9058442, 0.35575458, -0.22996718), (-0.37930027, 0.89605075, -0.23070444), (-0.37930027, 0.89605075, -0.23070444), (-0.37930027, 0.89605075, -0.23070444), (-0.37930027, 0.89605075, -0.23070444), (-0.37930027, 0.89605075, -0.23070444), (-0.89809316, -0.3561878, -0.25799012), (-0.89809316, -0.3561878, -0.25799012), (-0.89809316, -0.3561878, -0.25799012), (-0.89809316, -0.3561878, -0.25799012), (0.9058442, -0.3557547, -0.22996709), (0.9058442, -0.3557547, -0.22996709), (0.9058442, -0.3557547, -0.22996709), (0.9058442, -0.3557547, -0.22996709), (0.3557547, -0.9058442, -0.22996698), (0.3557547, -0.9058442, -0.22996698), (0.3557547, -0.9058442, -0.22996698), (0.3557547, -0.9058442, -0.22996698), (-0.35575488, -0.90584415, -0.22996698), (-0.35575488, -0.90584415, -0.22996698), (-0.35575488, -0.90584415, -0.22996698), (-0.35575488, -0.90584415, -0.22996698), (-0.9058443, -0.35575455, -0.22996698), (-0.9058443, -0.35575455, -0.22996698), (-0.9058443, -0.35575455, -0.22996698), (-0.9058443, -0.35575455, -0.22996698), (-0.9058443, 0.35575452, -0.22996712), (-0.9058443, 0.35575452, -0.22996712), (-0.9058443, 0.35575452, -0.22996712), (-0.9058443, 0.35575452, -0.22996712), (-0.87955534, 0.39480332, -0.26554227), (-0.87955534, 0.39480332, -0.26554227), (-0.87955534, 0.39480332, -0.26554227), (-0.87955534, 0.39480332, -0.26554227), (-0.9094985, 0.38595903, -0.15442811), (-0.9094985, 0.38595903, -0.15442811), (-0.9094985, 0.38595903, -0.15442811), (-0.9094985, 0.38595903, -0.15442811), (0.3626864, 0.91625607, -0.17009835), (0.3626864, 0.91625607, -0.17009835), (0.3626864, 0.91625607, -0.17009835), (0.3626864, 0.91625607, -0.17009835), (0.3626864, 0.91625607, -0.17009835), (0.38367462, -0.8729546, -0.30123743), (0.38367462, -0.8729546, -0.30123743), (0.38367462, -0.8729546, -0.30123743), (0.38367462, -0.8729546, -0.30123743), (0.37427366, 0.91653544, -0.14100353), (0.37427366, 0.91653544, -0.14100353), (0.37427366, 0.91653544, -0.14100353), (0.37427366, 0.91653544, -0.14100353), (-0.41278258, -0.8928816, -0.17992489), (-0.41278258, -0.8928816, -0.17992489), (-0.41278258, -0.8928816, -0.17992489), (-0.32606956, -0.9181914, -0.22495192), (-0.32606956, -0.9181914, -0.22495192), (-0.32606956, -0.9181914, -0.22495192), (-0.32606956, -0.9181914, -0.22495192), (-0.19039686, -0.7534733, 0.6293068), (-0.19039686, -0.7534733, 0.6293068), (-0.19039686, -0.7534733, 0.6293068), (-0.19039686, -0.7534733, 0.6293068), (0.19039656, -0.7534732, 0.62930703), (0.19039656, -0.7534732, 0.62930703), (0.19039656, -0.7534732, 0.62930703), (0.19039656, -0.7534732, 0.62930703), (-0.64322484, -0.3558061, 0.67798513), (-0.64322484, -0.3558061, 0.67798513), (-0.64322484, -0.3558061, 0.67798513), (-0.64322484, -0.3558061, 0.67798513), (0.64322484, -0.35580623, 0.67798495), (0.64322484, -0.35580623, 0.67798495), (0.64322484, -0.35580623, 0.67798495), (0.64322484, -0.35580623, 0.67798495), (-0.6757622, 0.121910244, 0.7269686), (-0.6757622, 0.121910244, 0.7269686), (-0.6757622, 0.121910244, 0.7269686), (-0.6757622, 0.121910244, 0.7269686), (0.6757622, 0.12191039, 0.72696847), (0.6757622, 0.12191039, 0.72696847), (0.6757622, 0.12191039, 0.72696847), (0.6757622, 0.12191039, 0.72696847), (-0.24301867, 0.5866985, 0.7724809), (-0.24301867, 0.5866985, 0.7724809), (-0.24301867, 0.5866985, 0.7724809), (-0.24301867, 0.5866985, 0.7724809), (0.24301875, 0.5866986, 0.77248085), (0.24301875, 0.5866986, 0.77248085), (0.24301875, 0.5866986, 0.77248085), (0.24301875, 0.5866986, 0.77248085), (-0.9194322, -0.36365604, -0.14966139), (-0.9194322, -0.36365604, -0.14966139), (-0.9194322, -0.36365604, -0.14966139), (-0.9194322, -0.36365604, -0.14966139), (0.75536805, -0.35732368, 0.5493077), (0.75536805, -0.35732368, 0.5493077), (0.75536805, -0.35732368, 0.5493077), (0.75536805, -0.35732368, 0.5493077), (-0.9050193, 0.4014795, -0.14054987), (-0.9050193, 0.4014795, -0.14054987), (-0.9050193, 0.4014795, -0.14054987), (-0.9050193, 0.4014795, -0.14054987), (0.81930155, 0.27204424, 0.50471455), (0.81930155, 0.27204424, 0.50471455), (0.81930155, 0.27204424, 0.50471455), (0.81930155, 0.27204424, 0.50471455), (-0.32920444, 0.7947694, 0.5098685), (-0.32920444, 0.7947694, 0.5098685), (-0.32920444, 0.7947694, 0.5098685), (-0.32920444, 0.7947694, 0.5098685), (0.33227745, 0.80218846, 0.49606997), (0.33227745, 0.80218846, 0.49606997), (0.33227745, 0.80218846, 0.49606997), (0.33227745, 0.80218846, 0.49606997), (-0.38278407, -0.8560638, -0.34732002), (-0.38278407, -0.8560638, -0.34732002), (-0.38278407, -0.8560638, -0.34732002), (-0.38278407, -0.8560638, -0.34732002), (0.34058508, -0.9280536, -0.15072648), (0.34058508, -0.9280536, -0.15072648), (0.34058508, -0.9280536, -0.15072648), (0.9093599, -0.35522488, -0.21651773), (0.9051001, -0.35999158, -0.22627409), (0.90639114, -0.3585667, -0.22334939), (0.92704403, 0.36128452, 0.10031432), (0.92704403, 0.36128452, 0.10031432), (0.92704403, 0.36128452, 0.10031432), (0.92704403, 0.36128452, 0.10031432), (0.9075805, 0.33637822, -0.25129113), (0.9075805, 0.33637822, -0.25129113), (0.9075805, 0.33637822, -0.25129113), (0.9075805, 0.33637822, -0.25129113), (0.9095341, -0.35502595, -0.21611178), (0.9095341, -0.35502595, -0.21611178), (0.9093599, -0.35522488, -0.21651773), (0.90639114, -0.3585667, -0.22334939), (0.35164264, -0.9144829, -0.2001713), (0.35164264, -0.9144829, -0.2001713), (0.35164264, -0.9144829, -0.2001713), (0.2753886, -0.7634001, 0.5842784), (0.2753886, -0.7634001, 0.5842784), (0.2753886, -0.7634001, 0.5842784), (0.2753886, -0.7634001, 0.5842784), (0.2753886, -0.7634001, 0.5842784)] (
                interpolation = "faceVarying"
            )
            point3f[] points = [(1.5921453e-10, 0.31777894, 0.40974838), (-1.5962469e-10, 0.29249048, 0.5158995), (0.206822, 0.206822, 0.5158995), (0.22470367, 0.22470365, 0.4097484), (1.1226203e-10, 0.3114771, 0.37733987), (0.23528568, 0.21570732, 0.3708059), (-0.22470371, 0.22470364, 0.4097484), (-0.20682204, 0.206822, 0.5158995), (-1.8421613e-9, 0.24482664, 0.59639525), (0.1749559, 0.17235753, 0.59639525), (0.31777897, -3.4551967e-8, 0.38532984), (-0.21570739, 0.21570729, 0.36794806), (-3.448795e-8, 0.31147707, 0.37733987), (-0.29249048, -2.9483915e-9, 0.47094876), (-0.17495587, 0.1723575, 0.59639525), (0.29249048, -1.922147e-8, 0.47094876), (0.24742499, -0.0025983935, 0.5583703), (-4.7239377e-9, 0.15048249, 0.66327816), (0.11232819, 0.103954606, 0.66327816), (0.3157815, -3.305323e-8, 0.3773399), (-0.3157815, -1.5484325e-8, 0.3773399), (-0.31777897, -1.687193e-8, 0.38532984), (-0.24742502, -0.0025983786, 0.5583703), (-0.11232821, 0.1039546, 0.66327816), (0.206822, -0.20682201, 0.44368494), (0.1749559, -0.17755428, 0.53530717), (0.15885605, -0.0083736, 0.63886464), (0.025777638, 0.08573243, 0.6759432), (-6.010379e-9, 0.09466934, 0.67635095), (0.22470367, -0.2247037, 0.3705194), (-0.20682204, -0.20682198, 0.44368494), (-0.17495587, -0.17755423, 0.53530717), (-0.15885606, -0.008373591, 0.63886464), (-0.04054344, 0.10213017, 0.6722004), (-2.5729957e-8, -0.2924905, 0.40368742), (-2.3472742e-8, -0.2500234, 0.50147223), (0.11232819, -0.120701805, 0.6240573), (0.07976735, 0.042568814, 0.67363167), (-0.04381768, 0.11220742, 0.6787491), (0.075037755, 0.07109266, 0.6769358), (-0.030691942, 0.100968935, 0.67368233), (-0.21910149, -0.21910143, 0.34431934), (-0.22470371, -0.22470367, 0.3705194), (-0.11232821, -0.12070178, 0.6240573), (-0.092598975, 0.03311381, 0.67338157), (-0.07312023, 0.069402814, 0.6776382), (-2.6717967e-8, -0.30647585, 0.37733996), (-1.8611576e-8, -0.16722965, 0.602334), (0.083593026, -0.007467104, 0.6765543), (0.0847076, -0.0033047036, 0.6774058), (0.08071575, 0.06569725, 0.6743562), (0.086466014, 0.069875, 0.6787491), (-0.07451356, -0.053362276, 0.6725369), (-0.064259775, -0.06843402, 0.67296755), (-0.105065234, 0.0013812289, 0.666837), (-0.122884125, -0.26687872, 0.3606739), (-6.132531e-8, -0.30647582, 0.36626112), (0.053894408, -0.07000314, 0.67315996), (0.06352608, -0.067636244, 0.67371404), (0.07386869, -0.057960156, 0.66912556), (0.028200325, 0.112207435, 0.79528046), (0.20435457, -0.20430231, 0.40840578), (-0.03657081, -0.08714101, 0.66425496), (-0.04381768, -0.10944496, 0.6787491), (-0.10271881, -0.0045359684, 0.66804385), (-0.12433942, 0.0013812309, 0.6787491), (0.086466014, -0.067112535, 0.6787491), (0.009159328, -0.08347958, 0.67239046), (0.10872206, 0.0013812499, 0.79528046), (-0.10208337, 0.06987502, 0.79528046), (-1.3553701e-8, -0.087481834, 0.67116016), (-0.005458748, 0.008613723, 0.86260045), (-0.0010512131, 0.0013812609, 0.86312413), (-0.01733043, 0.008299137, 0.8600265), (-0.0028724263, -0.08622671, 0.671546), (-0.10208337, -0.06711252, 0.79528046), (0.028200325, -0.109444946, 0.7952805), (-0.005448563, -0.0058825477, 0.86258006), (-0.00236166, 0.00020173225, 0.93767524), (-0.013578252, -0.0028105313, 0.8628928), (-0.0060817786, -0.006165908, 0.94191897), (-0.017327433, 0.00829696, 0.86002874), (-0.0064219483, 0.0076520597, 0.9375497), (-0.01756556, 0.008557883, 0.9423101), (-0.012584019, -0.001874768, 0.94578344), (-0.017561737, 0.008555933, 0.9423108), (0.10354703, 0.05674763, 1.0833733), (0.10760731, 0.0492973, 1.0834987), (0.10388719, 0.042929657, 1.0877424), (0.09738497, 0.047220796, 1.0916069), (0.09240724, 0.0576515, 1.0881343), (0.104540385, 0.051448006, 1.0905039), (0.09240341, 0.057653446, 1.0881336), (-3.693636e-8, 0.17835413, -0.1726858), (-3.5289617e-8, 0.29583526, 0.30074495), (0.20918712, 0.2091871, 0.27237403), (0.12611544, 0.12611538, -0.1726858), (-0.12611553, 0.12611537, -0.1726858), (0.17835417, -1.115575e-7, -0.1726858), (0.12611544, -0.12611555, -0.1726858), (-5.252858e-8, -0.17835431, -0.1726858), (-0.12611553, -0.12611555, -0.1726858), (-0.17835426, -1.01634534e-7, -0.1726858), (0.29583523, -4.107192e-8, 0.300745), (-0.20918721, 0.20918708, 0.27237403), (0.20918712, -0.20918716, 0.2723741), (-6.115236e-8, -0.2958353, 0.30074504), (-0.20918721, -0.20918712, 0.2723741), (-0.29583526, -2.4612747e-8, 0.300745), (-1.3880207e-9, 0.24425615, 0.5525334), (0.17363384, 0.17233466, 0.5525334), (-0.17363384, 0.17233464, 0.5525334), (0.24555533, -0.0012992043, 0.5147957), (-0.24555534, -0.0012991902, 0.5147957), (0.17363384, -0.17493303, 0.49190688), (-0.17363384, -0.174933, 0.49190688), (-2.285515e-8, -0.24685454, 0.45832765), (0.0014259614, 0.28561145, 0.46081096), (0.2043551, 0.20155545, 0.46081096), (-0.20150323, 0.20155545, 0.46081096), (0.28841108, -0.0013737059, 0.42818934), (-0.28555918, -0.0013736904, 0.42818934), (0.2043551, -0.20430285, 0.40840352), (-0.20150323, -0.2043028, 0.40840352), (0.001425937, -0.28091875, 0.3968045)]
            texCoord2f[] primvars:st = [(0.1834005, 0.2083189), (0.17991292, 0.5076764), (0.16809823, 0.5076764), (0.17056435, 0.2083189), (0.47325358, 0.57580304), (0.18253145, 0.116923325), (0.16932368, 0.023801852), (0.4588218, 0.54625857), (0.17056435, 0.2083189), (0.16809823, 0.5076764), (0.17333955, 0.7346832), (0.1633452, 0.7346832), (0.13957508, 0.13945572), (0.16932368, 0.023801852), (0.4588218, 0.54625857), (0.18253145, 0.116923325), (0.4732535, 0.57580304), (0.13957508, 0.38091043), (0.1633452, 0.7346832), (0.13957508, 0.38091043), (0.13921669, 0.62744844), (0.16032837, 0.9232997), (0.15391165, 0.9232997), (0.13957508, 0.116923325), (0.42631665, 0.57580304), (0.13957508, 0.116923325), (0.42631665, 0.57580304), (0.13957508, 0.13945572), (0.13921669, 0.62744844), (0.15391165, 0.9232997), (0.11105187, 0.30402336), (0.11508824, 0.5624079), (0.13842025, 0.8544512), (0.6883279, 0.09917331), (0.15139857, 0.95901656), (0.6911999, 0.10103604), (0.15263107, 0.9601667), (0.10935839, 0.023801852), (0.39329994, 0.54625857), (0.10858577, 0.09768867), (0.11105187, 0.30402336), (0.11508824, 0.5624079), (0.13842025, 0.8544512), (0.15366003, 0.9484614), (0.6935976, 0.08207637), (0.099237174, 0.19122605), (0.105093904, 0.4669898), (0.122928865, 0.8126928), (0.14544581, 0.95249796), (0.67445666, 0.088614464), (0.69683605, 0.1119906), (0.68362325, 0.1037077), (0.1493796, 0.9618162), (0.69322443, 0.08884585), (0.15349984, 0.9526408), (0.10935839, 0.023801852), (0.39329994, 0.54625857), (0.10858577, 0.09768867), (0.122928865, 0.8126928), (0.14414181, 0.95179266), (0.6714182, 0.08747184), (0.14914651, 0.96379656), (0.6830802, 0.10691619), (0.09730844, 0.116923325), (0.116512135, 0.75143087), (0.13854526, 0.9607402), (0.6583769, 0.10196516), (0.13911931, 0.9631413), (0.6597145, 0.10585445), (0.14863549, 0.9545413), (0.68188936, 0.09192431), (0.6832319, 0.1119906), (0.64362776, 0.08361325), (0.13221577, 0.9494101), (0.1301372, 0.95062506), (0.6387843, 0.08558059), (0.13976555, 0.93333626), (0.66122043, 0.05757609), (0.10276936, 0.06992348), (0.3861003, 0.5608913), (0.09730844, 0.116923325), (0.38013342, 0.57580304), (0.10264055, 0.075716995), (0.1299208, 0.9511676), (0.63828, 0.08645967), (0.13024722, 0.95272994), (0.6390406, 0.08899054), (0.13158166, 0.93979), (0.64215016, 0.06803006), (0.69683605, 0.6443076), (0.11139938, 0.20453243), (0.12755728, 0.9260545), (0.6327725, 0.045781523), (0.62560475, 0.1119906), (0.6593189, 0.06308913), (0.1389495, 0.93673956), (0.66122043, 0.1119906), (0.639209, 0.1119906), (0.12806223, 0.9489974), (0.63394916, 0.08294436), (0, 0), (0.66122043, 0.6443076), (0.6832319, 0.6443076), (0.12751028, 0.94552803), (0, 0), (0.6635447, 0.9518261), (0.006263852, 0.982304), (0.66122043, 0.9542185), (0.006264592, 0.9823154), (0.6634436, 0.94006824), (0.0062485347, 0.9822753), (0.12768337, 0.94661593), (0.63306636, 0.07908666), (0, 0), (0.639209, 0.6443076), (0.62560475, 0.6443076), (0.6588861, 0.95173323), (0.006260817, 0.9822964), (0.006516022, 0.9839811), (0.65987337, 0.9531616), (0.006272215, 0.9823116), (0.0065183863, 0.98401624), (0.6634429, 0.9400784), (0.006332275, 0.98226154), (0.006534095, 0.9839662), (0.006382391, 0.9839762), (0.0065143257, 0.98406714), (0.006655036, 0.98394185), (0.007490091, 0.9927262), (0.007502917, 0.99276924), (0.0075213476, 0.9927856), (0.0075653032, 0.99283004), (0.007608204, 0.99264383), (0.0075319675, 0.99277085), (0.007405823, 0.992674), (0.45759776, 0.08278571), (0.47820258, 0.57580304), (0.46300557, 0.54625857), (0.44843578, 0.08278571), (0.44843578, 0.08278571), (0.42631665, 0.08278571), (0.4041975, 0.08278571), (0.39503542, 0.08278571), (0.4041975, 0.08278571), (0.42631665, 0.08278571), (0.42631665, 0.57580304), (0.46300557, 0.54625857), (0.38962772, 0.54625857), (0.37443072, 0.57580304), (0.38962772, 0.54625857), (0.42631665, 0.57580304), (0.17326088, 0.6109879), (0.16334201, 0.6109879), (0.16334201, 0.6109879), (0.1393959, 0.50456375), (0.1393959, 0.50456375), (0.115449734, 0.4400146), (0.115449734, 0.4400146), (0.10553092, 0.3453175), (0.17896426, 0.35232085), (0.16737194, 0.35232085), (0.16737194, 0.35232085), (0.13938563, 0.26032418), (0.13938563, 0.26032418), (0.1113993, 0.20452599), (0.1113993, 0.20452599), (0.10083306, 0.17181547)] (
                interpolation = "faceVarying"
            )
            int[] primvars:st:indices = [159, 1, 2, 160, 161, 9, 1, 159, 152, 151, 10, 11, 160, 2, 19, 162, 161, 8, 27, 163, 151, 153, 18, 10, 154, 152, 11, 20, 11, 10, 21, 22, 150, 149, 56, 26, 153, 155, 28, 18, 10, 18, 29, 21, 156, 154, 20, 31, 20, 11, 22, 32, 34, 22, 21, 36, 162, 19, 30, 164, 163, 27, 57, 165, 155, 157, 41, 28, 18, 28, 42, 29, 21, 29, 61, 43, 54, 158, 156, 31, 46, 31, 20, 32, 47, 32, 22, 52, 69, 48, 44, 50, 71, 70, 51, 33, 35, 53, 52, 22, 34, 36, 21, 54, 157, 158, 46, 41, 28, 41, 58, 42, 29, 42, 95, 76, 59, 46, 31, 47, 64, 47, 32, 67, 65, 67, 32, 48, 165, 57, 78, 80, 63, 166, 41, 46, 64, 58, 73, 42, 58, 74, 61, 29, 59, 83, 64, 47, 85, 47, 65, 87, 85, 71, 50, 89, 78, 57, 55, 111, 91, 74, 58, 64, 103, 93, 96, 77, 94, 72, 75, 92, 95, 42, 73, 77, 96, 50, 44, 62, 60, 83, 98, 103, 64, 66, 68, 49, 70, 71, 97, 88, 71, 89, 101, 50, 102, 89, 50, 96, 102, 97, 71, 101, 101, 89, 105, 107, 102, 109, 122, 105, 89, 96, 93, 114, 92, 112, 99, 84, 86, 88, 97, 93, 96, 114, 102, 113, 104, 100, 97, 101, 115, 115, 101, 107, 116, 108, 106, 124, 118, 102, 114, 119, 109, 93, 115, 114, 93, 97, 115, 114, 115, 116, 119, 117, 108, 118, 121, 120, 117, 121, 126, 118, 124, 128, 129, 121, 118, 129, 130, 126, 125, 110, 120, 125, 127, 123, 110, 126, 121, 130, 131, 127, 124, 106, 123, 124, 127, 132, 128, 129, 128, 133, 130, 129, 133, 125, 126, 131, 134, 127, 125, 134, 132, 131, 130, 133, 128, 132, 133, 131, 133, 132, 134, 136, 137, 138, 135, 135, 139, 146, 136, 16, 136, 146, 14, 135, 138, 140, 141, 142, 143, 144, 139, 137, 145, 140, 138, 13, 8, 0, 5, 15, 55, 57, 27, 25, 141, 140, 145, 147, 142, 141, 147, 148, 143, 142, 148, 149, 144, 143, 149, 150, 139, 144, 150, 146, 25, 27, 8, 13, 146, 150, 26, 14, 137, 136, 16, 4, 7, 166, 90, 30, 45, 5, 0, 3, 6, 56, 149, 79, 149, 148, 81, 79, 40, 45, 158, 157, 45, 30, 156, 158, 17, 40, 157, 155, 30, 19, 154, 156, 9, 17, 155, 153, 19, 2, 152, 154, 1, 9, 153, 151, 2, 1, 151, 152, 17, 163, 165, 40, 12, 162, 164, 39, 9, 161, 163, 17, 3, 160, 162, 12, 8, 161, 159, 0, 0, 159, 160, 3, 40, 165, 166, 45, 148, 38, 81, 23, 12, 37, 3, 12, 23, 6, 145, 137, 7, 24, 147, 145, 24, 38, 148, 147, 38, 39, 90, 166, 63, 82]
            uniform token subdivisionScheme = "none"
            custom string userProperties:blender:data_name = "Cylinder.002"
        }
    }

    def Scope "_materials"
    {
        def Material "Material_003"
        {
            token outputs:surface.connect = </root/_materials/Material_003/Principled_BSDF.outputs:surface>
            custom string userProperties:blender:data_name = "Material.003"

            def Shader "Principled_BSDF"
            {
                uniform token info:id = "UsdPreviewSurface"
                float inputs:clearcoat = 0
                float inputs:clearcoatRoughness = 0.03
                color3f inputs:diffuseColor = (0.8, 0.8, 0.8)
                color3f inputs:emissiveColor = (0, 0, 0)
                float inputs:ior = 1.5
                float inputs:metallic = 0
                float inputs:opacity = 1
                float inputs:roughness = 0.5527864
                float inputs:specular = 1
                token outputs:surface
            }
        }
    }
}

