#usda 1.0
(
    defaultPrim = "root"
    doc = "Blender v5.1.2"
    metersPerUnit = 1
    upAxis = "Y"
)

def Xform "root" (
    customData = {
        dictionary Blender = {
            bool generated = 1
        }
    }
)
{
    float3 xformOp:rotateXYZ = (-90, -0, 0)
    uniform token[] xformOpOrder = ["xformOp:rotateXYZ"]

    def Xform "Burger"
    {
        custom string userProperties:blender:object_name = "Burger"

        def Mesh "Cylinder" (
            active = true
            prepend apiSchemas = ["MaterialBindingAPI"]
        )
        {
            uniform bool doubleSided = 1
            float3[] extent = [(-0.33241346, -0.33241346, -0.21401814), (0.33241346, 0.33241346, 0.24433137)]
            int[] faceVertexCounts = [4, 4, 4, 4, 4, 4, 4, 4, 4, 4, 4, 4, 4, 4, 4, 4, 4, 4, 4, 4, 4, 4, 4, 4, 4, 4, 4, 4, 4, 4, 4, 4, 4, 4, 4, 4, 4, 4, 4, 4, 4, 4, 4, 4, 4, 4, 4, 10, 4, 4, 4, 4, 4, 4, 4, 6, 4, 4, 4, 4, 4, 4, 4, 4, 4, 4, 4, 4, 4, 4, 4, 4, 4, 4, 6, 4, 4, 4, 4, 4, 4, 4, 4, 4, 4, 6, 4, 4, 6, 4, 4, 4, 4, 4, 4, 4, 4, 4, 4, 4, 4, 4, 4, 4, 4, 4, 4, 4, 4, 4, 4, 4, 4, 10, 4, 4, 4, 4, 4, 4, 4, 4, 4, 4, 4, 4, 4, 4, 4, 4, 4, 4, 4, 4, 4, 4, 4, 4, 4, 4, 4, 4, 4, 4, 4, 4, 4, 4, 4, 4, 4, 4, 4, 4, 4, 4, 6, 4, 4, 4, 4, 4, 4, 4, 4, 4, 4, 4, 4, 4, 4, 4, 6, 4, 4, 6, 4, 4, 4, 4, 4, 6, 4, 4, 7, 4, 7, 4, 4, 4, 4, 4, 4, 6, 6, 4, 6, 4, 6, 4, 4, 4, 4, 4, 7, 7]
            int[] faceVertexIndices = [0, 1, 2, 3, 4, 0, 3, 5, 6, 7, 1, 0, 1, 8, 9, 2, 3, 2, 10, 11, 4, 5, 12, 13, 14, 6, 0, 4, 5, 3, 11, 15, 16, 17, 7, 6, 7, 18, 8, 1, 8, 19, 20, 9, 2, 9, 21, 10, 11, 10, 22, 23, 14, 4, 13, 24, 5, 15, 25, 12, 13, 12, 26, 27, 28, 16, 6, 14, 15, 11, 23, 29, 30, 31, 17, 16, 17, 32, 18, 7, 18, 33, 19, 8, 34, 35, 20, 19, 9, 20, 36, 21, 10, 21, 37, 22, 23, 22, 38, 39, 28, 14, 24, 40, 24, 13, 27, 41, 15, 29, 42, 25, 12, 25, 43, 26, 27, 26, 44, 45, 46, 30, 16, 28, 29, 23, 39, 47, 48, 49, 31, 30, 31, 50, 32, 17, 32, 51, 33, 18, 52, 34, 19, 33, 53, 35, 34, 54, 35, 55, 36, 20, 21, 36, 56, 37, 22, 37, 57, 38, 39, 38, 58, 59, 46, 28, 40, 60, 40, 24, 41, 61, 41, 27, 45, 62, 29, 47, 63, 42, 25, 42, 64, 43, 26, 43, 65, 44, 66, 62, 45, 44, 65, 67, 68, 69, 70, 71, 72, 48, 30, 46, 47, 39, 59, 73, 59, 58, 49, 48, 49, 74, 50, 31, 50, 75, 51, 32, 76, 52, 33, 51, 54, 34, 52, 77, 78, 55, 35, 53, 79, 80, 55, 81, 56, 36, 37, 56, 82, 57, 38, 57, 83, 58, 72, 46, 60, 84, 60, 40, 61, 85, 61, 41, 62, 66, 47, 73, 86, 63, 42, 63, 87, 64, 43, 64, 67, 65, 85, 61, 66, 71, 64, 87, 68, 67, 87, 88, 69, 68, 88, 89, 70, 69, 89, 85, 71, 70, 73, 59, 48, 72, 58, 83, 74, 49, 74, 90, 75, 50, 91, 76, 51, 75, 77, 52, 76, 92, 93, 94, 95, 81, 55, 78, 81, 96, 82, 56, 57, 82, 97, 83, 73, 72, 84, 86, 84, 60, 85, 89, 63, 86, 88, 87, 86, 84, 89, 88, 83, 97, 90, 74, 98, 91, 75, 90, 92, 76, 91, 99, 100, 96, 81, 95, 101, 102, 96, 103, 97, 82, 103, 98, 90, 97, 99, 91, 98, 104, 105, 106, 107, 103, 96, 100, 104, 98, 103, 107, 108, 109, 110, 111, 108, 111, 112, 113, 114, 115, 109, 108, 109, 116, 117, 110, 111, 110, 118, 119, 114, 108, 113, 120, 111, 119, 121, 112, 113, 112, 122, 123, 124, 125, 115, 114, 115, 126, 116, 109, 117, 116, 127, 128, 110, 117, 129, 118, 119, 118, 130, 131, 124, 114, 120, 132, 120, 113, 123, 133, 119, 131, 134, 121, 112, 121, 135, 122, 123, 122, 136, 137, 138, 139, 125, 124, 125, 140, 126, 115, 116, 126, 141, 127, 129, 117, 128, 142, 142, 128, 127, 141, 143, 144, 145, 146, 147, 148, 118, 129, 149, 130, 131, 130, 150, 151, 138, 124, 132, 152, 132, 120, 133, 153, 133, 123, 137, 154, 131, 151, 155, 134, 121, 134, 156, 135, 122, 135, 157, 136, 137, 136, 158, 159, 160, 161, 139, 138, 139, 162, 140, 125, 126, 140, 143, 141, 149, 129, 142, 148, 140, 162, 144, 143, 162, 163, 145, 144, 163, 164, 146, 145, 164, 165, 147, 146, 165, 149, 148, 147, 130, 149, 165, 150, 151, 150, 166, 167, 160, 138, 152, 168, 152, 132, 153, 169, 153, 133, 154, 170, 154, 137, 159, 171, 151, 167, 172, 155, 134, 155, 173, 156, 135, 156, 174, 157, 136, 157, 175, 158, 176, 177, 159, 158, 167, 166, 161, 160, 161, 163, 162, 139, 166, 164, 163, 161, 150, 165, 164, 166, 167, 160, 168, 172, 168, 152, 169, 178, 169, 153, 170, 179, 170, 154, 171, 180, 177, 181, 171, 159, 155, 172, 182, 173, 156, 173, 183, 174, 157, 174, 184, 175, 185, 176, 158, 175, 176, 186, 187, 188, 189, 177, 172, 168, 178, 182, 178, 169, 179, 190, 179, 170, 180, 191, 181, 192, 180, 171, 193, 181, 177, 189, 173, 182, 194, 183, 174, 183, 195, 184, 196, 185, 175, 184, 186, 176, 185, 197, 182, 178, 190, 194, 190, 179, 191, 198, 192, 199, 191, 180, 200, 192, 181, 193, 183, 194, 201, 195, 202, 196, 184, 195, 196, 203, 204, 205, 197, 185, 194, 190, 198, 201, 199, 206, 198, 191, 192, 200, 207, 208, 209, 199, 210, 202, 195, 201, 203, 196, 202, 211, 206, 210, 201, 198, 212, 206, 199, 209, 211, 202, 210, 213, 213, 210, 206, 212, 214, 215, 252, 253, 254, 255, 252, 255, 256, 257, 251, 253, 252, 242, 241, 247, 249, 258, 259, 254, 253, 224, 255, 254, 220, 216, 217, 218, 242, 252, 257, 243, 223, 256, 255, 224, 260, 257, 256, 261, 250, 258, 253, 251, 258, 262, 263, 259, 220, 254, 259, 221, 243, 257, 260, 235, 234, 239, 232, 261, 256, 223, 222, 226, 260, 261, 264, 265, 245, 262, 258, 250, 248, 246, 263, 262, 266, 267, 221, 259, 263, 228, 225, 219, 235, 260, 265, 236, 231, 264, 261, 232, 266, 265, 264, 267, 244, 266, 262, 245, 228, 263, 267, 229, 236, 265, 266, 244, 240, 238, 237, 229, 267, 264, 231, 230, 233, 227]
            rel material:binding = </root/_materials/Material>
            normal3f[] normals = [(0.8425335, -9.153767e-8, -0.53864396), (0.8425335, -9.153767e-8, -0.53864396), (0.8425335, -9.153767e-8, -0.53864396), (0.8425335, -9.153767e-8, -0.53864396), (0.7821748, 8.0083794e-8, 0.62305903), (0.7821748, 8.0083794e-8, 0.62305903), (0.7821748, 8.0083794e-8, 0.62305903), (0.7821748, 8.0083794e-8, 0.62305903), (0.6816241, 0.49522874, -0.5386437), (0.6816241, 0.49522874, -0.5386437), (0.6816241, 0.49522874, -0.5386437), (0.6816241, 0.49522874, -0.5386437), (0.989514, 0, -0.14443716), (0.989514, 0, -0.14443716), (0.989514, 0, -0.14443716), (0.989514, 0, -0.14443716), (0.681624, -0.49522886, -0.5386438), (0.681624, -0.49522886, -0.5386438), (0.681624, -0.49522886, -0.5386438), (0.681624, -0.49522886, -0.5386438), (0.943772, -3.3366597e-8, -0.33059704), (0.943772, -3.3366597e-8, -0.33059704), (0.943772, -3.3366597e-8, -0.33059704), (0.943772, -3.3366597e-8, -0.33059704), (0.6327923, 0.4597506, 0.6230596), (0.6327923, 0.4597506, 0.6230596), (0.6327923, 0.4597506, 0.6230596), (0.6327923, 0.4597506, 0.6230596), (0.63279235, -0.4597506, 0.62305945), (0.63279235, -0.4597506, 0.62305945), (0.63279235, -0.4597506, 0.62305945), (0.63279235, -0.4597506, 0.62305945), (0.2603575, 0.8012973, -0.5386434), (0.2603575, 0.8012973, -0.5386434), (0.2603575, 0.8012973, -0.5386434), (0.2603575, 0.8012973, -0.5386434), (0.8005335, 0.5816215, -0.14443892), (0.8005335, 0.5816215, -0.14443892), (0.8005335, 0.5816215, -0.14443892), (0.8005335, 0.5816215, -0.14443892), (0.96011126, 0, 0.27961838), (0.96011126, 0, 0.27961838), (0.96011126, 0, 0.27961838), (0.96011126, 0, 0.27961838), (0.80053335, -0.58162194, -0.14443775), (0.80053335, -0.58162194, -0.14443775), (0.80053335, -0.58162194, -0.14443775), (0.80053335, -0.58162194, -0.14443775), (0.26035726, -0.80129725, -0.5386436), (0.26035726, -0.80129725, -0.5386436), (0.26035726, -0.80129725, -0.5386436), (0.26035726, -0.80129725, -0.5386436), (0.76352763, 0.554735, -0.33059752), (0.76352763, 0.554735, -0.33059752), (0.76352763, 0.554735, -0.33059752), (0.76352763, 0.554735, -0.33059752), (0.7635276, -0.5547353, -0.33059698), (0.7635276, -0.5547353, -0.33059698), (0.7635276, -0.5547353, -0.33059698), (0.7635276, -0.5547353, -0.33059698), (0.6070158, -1.12658796e-7, -0.7946897), (0.6070158, -1.12658796e-7, -0.7946897), (0.6070158, -1.12658796e-7, -0.7946897), (0.6070158, -1.12658796e-7, -0.7946897), (0.24170512, 0.74389213, 0.62305945), (0.24170512, 0.74389213, 0.62305945), (0.24170512, 0.74389213, 0.62305945), (0.24170512, 0.74389213, 0.62305945), (0.24170522, -0.743892, 0.6230595), (0.24170522, -0.743892, 0.6230595), (0.24170522, -0.743892, 0.6230595), (0.24170522, -0.743892, 0.6230595), (-0.26035696, 0.8012968, -0.53864425), (-0.26035696, 0.8012968, -0.53864425), (-0.26035696, 0.8012968, -0.53864425), (-0.26035696, 0.8012968, -0.53864425), (0.30577672, 0.94108325, -0.14443964), (0.30577672, 0.94108325, -0.14443964), (0.30577672, 0.94108325, -0.14443964), (0.30577672, 0.94108325, -0.14443964), (0.77674633, 0.56433916, 0.27961853), (0.77674633, 0.56433916, 0.27961853), (0.77674633, 0.56433916, 0.27961853), (0.77674633, 0.56433916, 0.27961853), (0.6872454, 1.0781635e-7, 0.72642535), (0.6872454, 1.0781635e-7, 0.72642535), (0.6872454, 1.0781635e-7, 0.72642535), (0.6872454, 1.0781635e-7, 0.72642535), (0.77674603, -0.5643391, 0.2796191), (0.77674603, -0.5643391, 0.2796191), (0.77674603, -0.5643391, 0.2796191), (0.77674603, -0.5643391, 0.2796191), (0.3057766, -0.9410839, -0.1444368), (0.3057766, -0.9410839, -0.1444368), (0.3057766, -0.9410839, -0.1444368), (0.3057766, -0.9410839, -0.1444368), (-0.26035753, -0.8012976, -0.53864276), (-0.26035753, -0.8012976, -0.53864276), (-0.26035753, -0.8012976, -0.53864276), (-0.26035753, -0.8012976, -0.53864276), (0.29164156, 0.89758015, -0.33059806), (0.29164156, 0.89758015, -0.33059806), (0.29164156, 0.89758015, -0.33059806), (0.29164156, 0.89758015, -0.33059806), (0.49108624, 0.35679486, -0.7946898), (0.49108624, 0.35679486, -0.7946898), (0.49108624, 0.35679486, -0.7946898), (0.49108624, 0.35679486, -0.7946898), (0.29164156, -0.8975805, -0.3305973), (0.29164156, -0.8975805, -0.3305973), (0.29164156, -0.8975805, -0.3305973), (0.29164156, -0.8975805, -0.3305973), (0.49108624, -0.35679546, -0.79468936), (0.49108624, -0.35679546, -0.79468936), (0.49108624, -0.35679546, -0.79468936), (0.49108624, -0.35679546, -0.79468936), (0.35355777, -1.855266e-7, -0.93541265), (0.35355777, -1.855266e-7, -0.93541265), (0.35355777, -1.855266e-7, -0.93541265), (0.35355777, -1.855266e-7, -0.93541265), (-0.24170515, 0.7438924, 0.6230592), (-0.24170515, 0.7438924, 0.6230592), (-0.24170515, 0.7438924, 0.6230592), (-0.24170515, 0.7438924, 0.6230592), (-0.24170534, -0.7438921, 0.6230595), (-0.24170534, -0.7438921, 0.6230595), (-0.24170534, -0.7438921, 0.6230595), (-0.24170534, -0.7438921, 0.6230595), (-0.68162435, 0.49522874, -0.5386434), (-0.68162435, 0.49522874, -0.5386434), (-0.68162435, 0.49522874, -0.5386434), (-0.68162435, 0.49522874, -0.5386434), (-0.3057766, 0.9410835, -0.1444378), (-0.3057766, 0.9410835, -0.1444378), (-0.3057766, 0.9410835, -0.1444378), (-0.3057766, 0.9410835, -0.1444378), (0.29669055, 0.91311985, 0.27961946), (0.29669055, 0.91311985, 0.27961946), (0.29669055, 0.91311985, 0.27961946), (0.29669055, 0.91311985, 0.27961946), (0.55599326, 0.40395263, 0.72642535), (0.55599326, 0.40395263, 0.72642535), (0.55599326, 0.40395263, 0.72642535), (0.55599326, 0.40395263, 0.72642535), (0.999665, 0, 0.025879458), (0.999665, 0, 0.025879458), (0.999665, 0, 0.025879458), (0.999665, 0, 0.025879458), (0.55599356, -0.40395302, 0.72642493), (0.55599356, -0.40395302, 0.72642493), (0.55599356, -0.40395302, 0.72642493), (0.55599356, -0.40395302, 0.72642493), (0.29669058, -0.91311973, 0.27961954), (0.29669058, -0.91311973, 0.27961954), (0.29669058, -0.91311973, 0.27961954), (0.29669058, -0.91311973, 0.27961954), (-0.30577663, -0.9410834, -0.1444395), (-0.30577663, -0.9410834, -0.1444395), (-0.30577663, -0.9410834, -0.1444395), (-0.30577663, -0.9410834, -0.1444395), (-0.6816241, -0.49522862, -0.5386438), (-0.6816241, -0.49522862, -0.5386438), (-0.6816241, -0.49522862, -0.5386438), (-0.6816241, -0.49522862, -0.5386438), (-0.2916413, 0.8975806, -0.330597), (-0.2916413, 0.8975806, -0.330597), (-0.2916413, 0.8975806, -0.330597), (-0.2916413, 0.8975806, -0.330597), (0.18757822, 0.5773066, -0.79468966), (0.18757822, 0.5773066, -0.79468966), (0.18757822, 0.5773066, -0.79468966), (0.18757822, 0.5773066, -0.79468966), (0.2860347, 0.20781612, -0.9354126), (0.2860347, 0.20781612, -0.9354126), (0.2860347, 0.20781612, -0.9354126), (0.2860347, 0.20781612, -0.9354126), (-0.29164165, -0.8975804, -0.33059722), (-0.29164165, -0.8975804, -0.33059722), (-0.29164165, -0.8975804, -0.33059722), (-0.29164165, -0.8975804, -0.33059722), (0.18757811, -0.5773065, -0.79468966), (0.18757811, -0.5773065, -0.79468966), (0.18757811, -0.5773065, -0.79468966), (0.18757811, -0.5773065, -0.79468966), (0.28603458, -0.20781626, -0.9354126), (0.28603458, -0.20781626, -0.9354126), (0.28603458, -0.20781626, -0.9354126), (0.28603458, -0.20781626, -0.9354126), (3.484847e-8, -1.8295593e-7, -0.99999994), (3.484847e-8, -1.8295593e-7, -0.99999994), (3.484847e-8, -1.8295593e-7, -0.99999994), (3.484847e-8, -1.8295593e-7, -0.99999994), (3.484847e-8, -1.8295593e-7, -0.99999994), (3.484847e-8, -1.8295593e-7, -0.99999994), (3.484847e-8, -1.8295593e-7, -0.99999994), (3.484847e-8, -1.8295593e-7, -0.99999994), (3.484847e-8, -1.8295593e-7, -0.99999994), (3.484847e-8, -1.8295593e-7, -0.99999994), (-0.6327921, 0.4597507, 0.6230597), (-0.6327921, 0.4597507, 0.6230597), (-0.6327921, 0.4597507, 0.6230597), (-0.6327921, 0.4597507, 0.6230597), (-0.6327921, -0.45975024, 0.6230601), (-0.6327921, -0.45975024, 0.6230601), (-0.6327921, -0.45975024, 0.6230601), (-0.6327921, -0.45975024, 0.6230601), (-0.8425336, -9.153762e-8, -0.53864384), (-0.8425336, -9.153762e-8, -0.53864384), (-0.8425336, -9.153762e-8, -0.53864384), (-0.8425336, -9.153762e-8, -0.53864384), (-0.8005335, 0.5816217, -0.14443867), (-0.8005335, 0.5816217, -0.14443867), (-0.8005335, 0.5816217, -0.14443867), (-0.8005335, 0.5816217, -0.14443867), (-0.29669046, 0.91312003, 0.27961886), (-0.29669046, 0.91312003, 0.27961886), (-0.29669046, 0.91312003, 0.27961886), (-0.29669046, 0.91312003, 0.27961886), (0.21237041, 0.6536092, 0.72642535), (0.21237041, 0.6536092, 0.72642535), (0.21237041, 0.6536092, 0.72642535), (0.21237041, 0.6536092, 0.72642535), (0.808746, 0.5875883, 0.02588109), (0.808746, 0.5875883, 0.02588109), (0.808746, 0.5875883, 0.02588109), (0.808746, 0.5875883, 0.02588109), (0.8087458, -0.5875886, 0.02588085), (0.8087458, -0.5875886, 0.02588085), (0.8087458, -0.5875886, 0.02588085), (0.8087458, -0.5875886, 0.02588085), (0.8087458, -0.5875886, 0.02588085), (0.8087458, -0.5875886, 0.02588085), (0.21237057, -0.6536095, 0.726425), (0.21237057, -0.6536095, 0.726425), (0.21237057, -0.6536095, 0.726425), (0.21237057, -0.6536095, 0.726425), (-0.29669067, -0.9131196, 0.27961951), (-0.29669067, -0.9131196, 0.27961951), (-0.29669067, -0.9131196, 0.27961951), (-0.29669067, -0.9131196, 0.27961951), (-0.80053353, -0.5816215, -0.14443828), (-0.80053353, -0.5816215, -0.14443828), (-0.80053353, -0.5816215, -0.14443828), (-0.80053353, -0.5816215, -0.14443828), (-0.7635272, 0.55473536, -0.3305979), (-0.7635272, 0.55473536, -0.3305979), (-0.7635272, 0.55473536, -0.3305979), (-0.7635272, 0.55473536, -0.3305979), (-0.18757786, 0.5773064, -0.7946898), (-0.18757786, 0.5773064, -0.7946898), (-0.18757786, 0.5773064, -0.7946898), (-0.18757786, 0.5773064, -0.7946898), (0.10925554, 0.33625367, -0.9354125), (0.10925554, 0.33625367, -0.9354125), (0.10925554, 0.33625367, -0.9354125), (0.10925554, 0.33625367, -0.9354125), (-0.7635275, -0.55473506, -0.3305978), (-0.7635275, -0.55473506, -0.3305978), (-0.7635275, -0.55473506, -0.3305978), (-0.7635275, -0.55473506, -0.3305978), (-0.18757859, -0.5773072, -0.794689), (-0.18757859, -0.5773072, -0.794689), (-0.18757859, -0.5773072, -0.794689), (-0.18757859, -0.5773072, -0.794689), (0.109255135, -0.33625367, -0.9354126), (0.109255135, -0.33625367, -0.9354126), (0.109255135, -0.33625367, -0.9354126), (0.109255135, -0.33625367, -0.9354126), (-0.10925554, 0.33625367, -0.9354126), (-0.10925554, 0.33625367, -0.9354126), (-0.10925554, 0.33625367, -0.9354126), (-0.10925554, 0.33625367, -0.9354126), (-0.10925521, -0.33625355, -0.9354127), (-0.10925521, -0.33625355, -0.9354127), (-0.10925521, -0.33625355, -0.9354127), (-0.10925521, -0.33625355, -0.9354127), (-0.2860344, -0.20781611, -0.9354126), (-0.2860344, -0.20781611, -0.9354126), (-0.2860344, -0.20781611, -0.9354126), (-0.2860344, -0.20781611, -0.9354126), (-0.35355815, -1.8552663e-7, -0.93541265), (-0.35355815, -1.8552663e-7, -0.93541265), (-0.35355815, -1.8552663e-7, -0.93541265), (-0.35355815, -1.8552663e-7, -0.93541265), (-0.28603458, 0.20781611, -0.9354126), (-0.28603458, 0.20781611, -0.9354126), (-0.28603458, 0.20781611, -0.9354126), (-0.28603458, 0.20781611, -0.9354126), (-0.7821737, 8.008369e-8, 0.6230603), (-0.7821737, 8.008369e-8, 0.6230603), (-0.7821737, 8.008369e-8, 0.6230603), (-0.7821737, 8.008369e-8, 0.6230603), (-0.98951375, 0, -0.14443853), (-0.98951375, 0, -0.14443853), (-0.98951375, 0, -0.14443853), (-0.98951375, 0, -0.14443853), (-0.7767459, 0.56433934, 0.27961904), (-0.7767459, 0.56433934, 0.27961904), (-0.7767459, 0.56433934, 0.27961904), (-0.7767459, 0.56433934, 0.27961904), (-0.2123704, 0.6536095, 0.7264252), (-0.2123704, 0.6536095, 0.7264252), (-0.2123704, 0.6536095, 0.7264252), (-0.2123704, 0.6536095, 0.7264252), (0.30891323, 0.95073795, 0.025881851), (0.30891323, 0.95073795, 0.025881851), (0.30891323, 0.95073795, 0.025881851), (0.30891323, 0.95073795, 0.025881851), (0.30891323, 0.95073795, 0.025881851), (0.30891323, 0.95073795, 0.025881851), (0.3089133, -0.95073795, 0.025882183), (0.3089133, -0.95073795, 0.025882183), (0.3089133, -0.95073795, 0.025882183), (0.3089133, -0.95073795, 0.025882183), (-0.21237056, -0.65360904, 0.72642547), (-0.21237056, -0.65360904, 0.72642547), (-0.21237056, -0.65360904, 0.72642547), (-0.21237056, -0.65360904, 0.72642547), (-0.77674603, -0.56433916, 0.27961895), (-0.77674603, -0.56433916, 0.27961895), (-0.77674603, -0.56433916, 0.27961895), (-0.77674603, -0.56433916, 0.27961895), (-0.9437716, -3.3366792e-8, -0.33059824), (-0.9437716, -3.3366792e-8, -0.33059824), (-0.9437716, -3.3366792e-8, -0.33059824), (-0.9437716, -3.3366792e-8, -0.33059824), (-0.49108654, 0.35679486, -0.7946895), (-0.49108654, 0.35679486, -0.7946895), (-0.49108654, 0.35679486, -0.7946895), (-0.49108654, 0.35679486, -0.7946895), (-0.49108624, -0.3567953, -0.79468954), (-0.49108624, -0.3567953, -0.79468954), (-0.49108624, -0.3567953, -0.79468954), (-0.49108624, -0.3567953, -0.79468954), (-0.6070161, -1.12658974e-7, -0.79468966), (-0.6070161, -1.12658974e-7, -0.79468966), (-0.6070161, -1.12658974e-7, -0.79468966), (-0.6070161, -1.12658974e-7, -0.79468966), (-0.9601112, 0, 0.27961832), (-0.9601112, 0, 0.27961832), (-0.9601112, 0, 0.27961832), (-0.9601112, 0, 0.27961832), (-0.55599415, 0.40395355, 0.7264241), (-0.55599415, 0.40395355, 0.7264241), (-0.55599415, 0.40395355, 0.7264241), (-0.55599415, 0.40395355, 0.7264241), (-0.30891302, 0.950738, 0.025883894), (-0.30891302, 0.950738, 0.025883894), (-0.30891302, 0.950738, 0.025883894), (-0.30891302, 0.950738, 0.025883894), (-0.30891356, -0.9507379, 0.025881851), (-0.30891356, -0.9507379, 0.025881851), (-0.30891356, -0.9507379, 0.025881851), (-0.30891356, -0.9507379, 0.025881851), (-0.30891356, -0.9507379, 0.025881851), (-0.30891356, -0.9507379, 0.025881851), (-0.5559935, -0.40395278, 0.7264252), (-0.5559935, -0.40395278, 0.7264252), (-0.5559935, -0.40395278, 0.7264252), (-0.5559935, -0.40395278, 0.7264252), (-0.6872461, 1.07816184e-7, 0.72642475), (-0.6872461, 1.07816184e-7, 0.72642475), (-0.6872461, 1.07816184e-7, 0.72642475), (-0.6872461, 1.07816184e-7, 0.72642475), (-0.8087458, 0.5875884, 0.025882846), (-0.8087458, 0.5875884, 0.025882846), (-0.8087458, 0.5875884, 0.025882846), (-0.8087458, 0.5875884, 0.025882846), (-0.8087458, 0.5875884, 0.025882846), (-0.8087458, 0.5875884, 0.025882846), (-0.808746, -0.5875884, 0.025883097), (-0.808746, -0.5875884, 0.025883097), (-0.808746, -0.5875884, 0.025883097), (-0.808746, -0.5875884, 0.025883097), (-0.9996649, 1.2721479e-7, 0.025885029), (-0.9996649, 1.2721479e-7, 0.025885029), (-0.9996649, 1.2721479e-7, 0.025885029), (-0.9996649, 1.2721479e-7, 0.025885029), (-0.7711048, 0.5602406, 0.3025355), (-0.7711048, 0.5602406, 0.3025355), (-0.7711048, 0.5602406, 0.3025355), (-0.7711048, 0.5602406, 0.3025355), (-0.58824354, 0.4273838, -0.6865222), (-0.58824354, 0.4273838, -0.6865222), (-0.58824354, 0.4273838, -0.6865222), (-0.58824354, 0.4273838, -0.6865222), (-0.95313805, 1.2832318e-7, 0.3025357), (-0.95313805, 1.2832318e-7, 0.3025357), (-0.95313805, 1.2832318e-7, 0.3025357), (-0.95313805, 1.2832318e-7, 0.3025357), (-0.5193177, 0.37730673, 0.7667782), (-0.5193177, 0.37730673, 0.7667782), (-0.5193177, 0.37730673, 0.7667782), (-0.5193177, 0.37730673, 0.7667782), (-0.2945356, 0.9064884, 0.30253536), (-0.2945356, 0.9064884, 0.30253536), (-0.2945356, 0.9064884, 0.30253536), (-0.2945356, 0.9064884, 0.30253536), (-0.7271085, -9.14878e-8, -0.6865226), (-0.7271085, -9.14878e-8, -0.6865226), (-0.7271085, -9.14878e-8, -0.6865226), (-0.7271085, -9.14878e-8, -0.6865226), (-0.22468896, 0.69152194, -0.6865219), (-0.22468896, 0.69152194, -0.6865219), (-0.22468896, 0.69152194, -0.6865219), (-0.22468896, 0.69152194, -0.6865219), (-0.38306057, 0.27830985, -0.8807997), (-0.38306057, 0.27830985, -0.8807997), (-0.38306057, 0.27830985, -0.8807997), (-0.38306057, 0.27830985, -0.8807997), (-0.77110493, -0.5602404, 0.30253553), (-0.77110493, -0.5602404, 0.30253553), (-0.77110493, -0.5602404, 0.30253553), (-0.77110493, -0.5602404, 0.30253553), (-0.6419122, 1.3269519e-7, 0.7667781), (-0.6419122, 1.3269519e-7, 0.7667781), (-0.6419122, 1.3269519e-7, 0.7667781), (-0.6419122, 1.3269519e-7, 0.7667781), (-0.22799711, 0.16564986, 0.95946723), (-0.22799711, 0.16564986, 0.95946723), (-0.22799711, 0.16564986, 0.95946723), (-0.22799711, 0.16564986, 0.95946723), (-0.19836177, 0.61049473, 0.7667782), (-0.19836177, 0.61049473, 0.7667782), (-0.19836177, 0.61049473, 0.7667782), (-0.19836177, 0.61049473, 0.7667782), (0.29453576, 0.90648824, 0.30253538), (0.29453576, 0.90648824, 0.30253538), (0.29453576, 0.90648824, 0.30253538), (0.29453576, 0.90648824, 0.30253538), (-0.58824354, -0.42738393, -0.68652207), (-0.58824354, -0.42738393, -0.68652207), (-0.58824354, -0.42738393, -0.68652207), (-0.58824354, -0.42738393, -0.68652207), (-0.47348982, -1.2324159e-7, -0.8807993), (-0.47348982, -1.2324159e-7, -0.8807993), (-0.47348982, -1.2324159e-7, -0.8807993), (-0.47348982, -1.2324159e-7, -0.8807993), (0.22468908, 0.6915218, -0.68652195), (0.22468908, 0.6915218, -0.68652195), (0.22468908, 0.6915218, -0.68652195), (0.22468908, 0.6915218, -0.68652195), (-0.1463159, 0.45031467, -0.88079983), (-0.1463159, 0.45031467, -0.88079983), (-0.1463159, 0.45031467, -0.88079983), (-0.1463159, 0.45031467, -0.88079983), (0.02649132, -0.008607384, 0.999612), (0.016372498, -0.022534642, 0.999612), (0.016372496, -0.022534644, 0.99961203), (0.026491322, -0.008607388, 0.99961203), (-0.29453602, -0.90648824, 0.30253524), (-0.29453602, -0.90648824, 0.30253524), (-0.29453602, -0.90648824, 0.30253524), (-0.29453602, -0.90648824, 0.30253524), (-0.5193179, -0.37730643, 0.7667783), (-0.5193179, -0.37730643, 0.7667783), (-0.5193179, -0.37730643, 0.7667783), (-0.5193179, -0.37730643, 0.7667783), (-0.28182003, 1.3020075e-7, 0.95946723), (-0.28182003, 1.3020075e-7, 0.95946723), (-0.28182003, 1.3020075e-7, 0.95946723), (-0.28182003, 1.3020075e-7, 0.95946723), (-0.08708711, 0.26802686, 0.9594673), (-0.08708711, 0.26802686, 0.9594673), (-0.08708711, 0.26802686, 0.9594673), (-0.08708711, 0.26802686, 0.9594673), (-6.251416e-8, 1.5497935e-7, 1), (-6.251416e-8, 1.5497935e-7, 1), (-6.251416e-8, 1.5497935e-7, 1), (-6.251416e-8, 1.5497935e-7, 1), (-6.251416e-8, 1.5497935e-7, 1), (-6.251416e-8, 1.5497935e-7, 1), (-6.251416e-8, 1.5497935e-7, 1), (-6.251416e-8, 1.5497935e-7, 1), (-6.251416e-8, 1.5497935e-7, 1), (-6.251416e-8, 1.5497935e-7, 1), (0.1983618, 0.61049473, 0.7667781), (0.1983618, 0.61049473, 0.7667781), (0.1983618, 0.61049473, 0.7667781), (0.1983618, 0.61049473, 0.7667781), (0.77110505, 0.56024057, 0.3025352), (0.77110505, 0.56024057, 0.3025352), (0.77110505, 0.56024057, 0.3025352), (0.77110505, 0.56024057, 0.3025352), (-0.22468913, -0.6915219, -0.68652177), (-0.22468913, -0.6915219, -0.68652177), (-0.22468913, -0.6915219, -0.68652177), (-0.22468913, -0.6915219, -0.68652177), (-0.38306075, -0.27831006, -0.88079965), (-0.38306075, -0.27831006, -0.88079965), (-0.38306075, -0.27831006, -0.88079965), (-0.38306075, -0.27831006, -0.88079965), (0.026491214, 0.008607694, 0.999612), (0.02649132, -0.008607384, 0.999612), (0.026491322, -0.008607388, 0.99961203), (0.026491212, 0.008607698, 0.99961203), (0.58824366, 0.42738375, -0.68652207), (0.58824366, 0.42738375, -0.68652207), (0.58824366, 0.42738375, -0.68652207), (0.58824366, 0.42738375, -0.68652207), (0.14631584, 0.45031407, -0.8808002), (0.14631584, 0.45031407, -0.8808002), (0.14631584, 0.45031407, -0.8808002), (0.14631584, 0.45031407, -0.8808002), (0.016372498, -0.022534642, 0.999612), (-1.3835507e-8, -0.027854368, 0.999612), (-1.0745971e-8, -0.027854368, 0.99961203), (0.016372496, -0.022534644, 0.99961203), (-0.8086655, 0.58753, 0.029468678), (-0.8086655, 0.58753, 0.029468678), (-0.8086655, 0.58753, 0.029468678), (-0.8086655, 0.58753, 0.029468678), (0.29453596, -0.9064882, 0.30253562), (0.29453596, -0.9064882, 0.30253562), (0.29453596, -0.9064882, 0.30253562), (0.29453596, -0.9064882, 0.30253562), (-0.19836181, -0.61049455, 0.7667783), (-0.19836181, -0.61049455, 0.7667783), (-0.19836181, -0.61049455, 0.7667783), (-0.19836181, -0.61049455, 0.7667783), (-0.22799683, -0.16564941, 0.9594674), (-0.22799683, -0.16564941, 0.9594674), (-0.22799683, -0.16564941, 0.9594674), (-0.22799683, -0.16564941, 0.9594674), (0.08708728, 0.2680269, 0.95946723), (0.08708728, 0.2680269, 0.95946723), (0.08708728, 0.2680269, 0.95946723), (0.08708728, 0.2680269, 0.95946723), (-0.08708732, -0.26802644, 0.95946735), (-0.08708732, -0.26802644, 0.95946735), (-0.08708732, -0.26802644, 0.95946735), (-0.08708732, -0.26802644, 0.95946735), (0.08708732, -0.2680265, 0.95946735), (0.08708732, -0.2680265, 0.95946735), (0.08708732, -0.2680265, 0.95946735), (0.08708732, -0.2680265, 0.95946735), (0.22799698, -0.16564944, 0.95946735), (0.22799698, -0.16564944, 0.95946735), (0.22799698, -0.16564944, 0.95946735), (0.22799698, -0.16564944, 0.95946735), (0.28182012, 1.56241e-7, 0.95946723), (0.28182012, 1.56241e-7, 0.95946723), (0.28182012, 1.56241e-7, 0.95946723), (0.28182012, 1.56241e-7, 0.95946723), (0.22799718, 0.16564982, 0.95946723), (0.22799718, 0.16564982, 0.95946723), (0.22799718, 0.16564982, 0.95946723), (0.22799718, 0.16564982, 0.95946723), (0.5193177, 0.37730655, 0.7667783), (0.5193177, 0.37730655, 0.7667783), (0.5193177, 0.37730655, 0.7667783), (0.5193177, 0.37730655, 0.7667783), (0.95313823, 1.2832328e-7, 0.3025351), (0.95313823, 1.2832328e-7, 0.3025351), (0.95313823, 1.2832328e-7, 0.3025351), (0.95313823, 1.2832328e-7, 0.3025351), (0.22468923, -0.6915224, -0.68652123), (0.22468923, -0.6915224, -0.68652123), (0.22468923, -0.6915224, -0.68652123), (0.22468923, -0.6915224, -0.68652123), (-0.14631616, -0.45031494, -0.88079965), (-0.14631616, -0.45031494, -0.88079965), (-0.14631616, -0.45031494, -0.88079965), (-0.14631616, -0.45031494, -0.88079965), (0.01637243, 0.022534905, 0.999612), (0.026491214, 0.008607694, 0.999612), (0.026491212, 0.008607698, 0.99961203), (0.016372433, 0.022534907, 0.99961203), (-0.99956566, 4.9845447e-8, 0.029468587), (-0.99956566, 4.9845447e-8, 0.029468587), (-0.99956566, 4.9845447e-8, 0.029468587), (-0.99956566, 4.9845447e-8, 0.029468587), (0.7271094, -9.148767e-8, -0.6865217), (0.7271094, -9.148767e-8, -0.6865217), (0.7271094, -9.148767e-8, -0.6865217), (0.7271094, -9.148767e-8, -0.6865217), (0.38306051, 0.27830973, -0.8807999), (0.38306051, 0.27830973, -0.8807999), (0.38306051, 0.27830973, -0.8807999), (0.38306051, 0.27830973, -0.8807999), (-1.3835507e-8, -0.027854368, 0.999612), (-0.01637249, -0.022534646, 0.999612), (-0.01637249, -0.022534648, 0.99961203), (-1.0745971e-8, -0.027854368, 0.99961203), (-0.30888247, 0.95064366, 0.029468719), (-0.30888247, 0.95064366, 0.029468719), (-0.30888247, 0.95064366, 0.029468719), (-0.30888247, 0.95064366, 0.029468719), (0.042379644, -0.030790811, -0.99862695), (0.042379644, -0.030790811, -0.99862695), (0.042379644, -0.030790811, -0.99862695), (0.042379644, -0.030790811, -0.99862695), (0.7711049, -0.5602408, 0.30253536), (0.7711049, -0.5602408, 0.30253536), (0.7711049, -0.5602408, 0.30253536), (0.7711049, -0.5602408, 0.30253536), (0.19836187, -0.61049473, 0.76677805), (0.19836187, -0.61049473, 0.76677805), (0.19836187, -0.61049473, 0.76677805), (0.19836187, -0.61049473, 0.76677805), (0.5193179, -0.37730652, 0.7667782), (0.5193179, -0.37730652, 0.7667782), (0.5193179, -0.37730652, 0.7667782), (0.5193179, -0.37730652, 0.7667782), (0.64191204, 1.3269519e-7, 0.76677823), (0.64191204, 1.3269519e-7, 0.76677823), (0.64191204, 1.3269519e-7, 0.76677823), (0.64191204, 1.3269519e-7, 0.76677823), (0.58824366, -0.42738426, -0.6865216), (0.58824366, -0.42738426, -0.6865216), (0.58824366, -0.42738426, -0.6865216), (0.58824366, -0.42738426, -0.6865216), (0.14631577, -0.4503141, -0.88080007), (0.14631577, -0.4503141, -0.88080007), (0.14631577, -0.4503141, -0.88080007), (0.14631577, -0.4503141, -0.88080007), (2.8659263e-8, 0.02785457, 0.999612), (0.01637243, 0.022534905, 0.999612), (0.016372433, 0.022534907, 0.99961203), (2.8532405e-8, 0.02785457, 0.99961203), (-0.80866575, -0.5875297, 0.029468708), (-0.80866575, -0.5875297, 0.029468708), (-0.80866575, -0.5875297, 0.029468708), (-0.80866575, -0.5875297, 0.029468708), (0.052384257, -1.6040825e-7, -0.998627), (0.052384257, -1.6040825e-7, -0.998627), (0.052384257, -1.6040825e-7, -0.998627), (0.052384257, -1.6040825e-7, -0.998627), (0.47348943, -1.2324135e-7, -0.8807996), (0.47348943, -1.2324135e-7, -0.8807996), (0.47348943, -1.2324135e-7, -0.8807996), (0.47348943, -1.2324135e-7, -0.8807996), (-0.01637249, -0.022534646, 0.999612), (-0.026491284, -0.008607385, 0.999612), (-0.026491283, -0.008607388, 0.99961203), (-0.01637249, -0.022534648, 0.99961203), (0.30888274, 0.9506434, 0.02946959), (0.30888274, 0.9506434, 0.02946959), (0.30888274, 0.9506434, 0.02946959), (0.30888274, 0.9506434, 0.02946959), (0.016187575, -0.04982035, -0.998627), (0.016187575, -0.04982035, -0.998627), (0.016187575, -0.04982035, -0.998627), (0.016187575, -0.04982035, -0.998627), (-0.79464144, 0.57855874, 0.18388848), (-0.79464144, 0.57855874, 0.18388848), (-0.79464144, 0.57855874, 0.18388848), (-0.79464144, 0.57855874, 0.18388848), (-0.79464144, 0.57855874, 0.18388848), (-0.79464144, 0.57855874, 0.18388848), (0.38306057, -0.27831003, -0.8807998), (0.38306057, -0.27831003, -0.8807998), (0.38306057, -0.27831003, -0.8807998), (0.38306057, -0.27831003, -0.8807998), (-0.016372424, 0.022534909, 0.999612), (2.8659263e-8, 0.02785457, 0.999612), (2.8532405e-8, 0.02785457, 0.99961203), (-0.01637243, 0.022534907, 0.99961203), (-0.3088827, -0.9506434, 0.029468698), (-0.3088827, -0.9506434, 0.029468698), (-0.3088827, -0.9506434, 0.029468698), (-0.3088827, -0.9506434, 0.029468698), (0.04237959, 0.030790387, -0.998627), (0.04237959, 0.030790387, -0.998627), (0.04237959, 0.030790387, -0.998627), (0.04237959, 0.030790387, -0.998627), (-0.987003, -0.0010394813, 0.16069882), (-0.987003, -0.0010394813, 0.16069882), (-0.987003, -0.0010394813, 0.16069882), (-0.987003, -0.0010394813, 0.16069882), (-0.026491284, -0.008607385, 0.999612), (-0.026491217, 0.0086077, 0.999612), (-0.026491217, 0.008607702, 0.99961203), (-0.026491283, -0.008607388, 0.99961203), (0.8086655, 0.58753, 0.029470481), (0.8086655, 0.58753, 0.029470481), (0.8086655, 0.58753, 0.029470481), (0.8086655, 0.58753, 0.029470481), (-0.016187625, -0.049820386, -0.998627), (-0.016187625, -0.049820386, -0.998627), (-0.016187625, -0.049820386, -0.998627), (-0.016187625, -0.049820386, -0.998627), (-0.305619, 0.94035506, 0.14943029), (-0.305619, 0.94035506, 0.14943029), (-0.305619, 0.94035506, 0.14943029), (-0.305619, 0.94035506, 0.14943029), (-0.026491217, 0.0086077, 0.999612), (-0.016372424, 0.022534909, 0.999612), (-0.01637243, 0.022534907, 0.99961203), (-0.026491217, 0.008607702, 0.99961203), (0.30888253, -0.9506435, 0.029469604), (0.30888253, -0.9506435, 0.029469604), (0.30888253, -0.9506435, 0.029469604), (0.30888253, -0.9506435, 0.029469604), (0.01618754, 0.04981996, -0.998627), (0.01618754, 0.04981996, -0.998627), (0.01618754, 0.04981996, -0.998627), (0.01618754, 0.04981996, -0.998627), (-0.7994577, -0.57977927, 0.15723681), (-0.7994577, -0.57977927, 0.15723681), (-0.7994577, -0.57977927, 0.15723681), (-0.7994577, -0.57977927, 0.15723681), (0.99956566, 4.9845895e-8, 0.02946993), (0.99956566, 4.9845895e-8, 0.02946993), (0.99956566, 4.9845895e-8, 0.02946993), (0.99956566, 4.9845895e-8, 0.02946993), (-0.04237963, -0.030790767, -0.998627), (-0.04237963, -0.030790767, -0.998627), (-0.04237963, -0.030790767, -0.998627), (-0.04237963, -0.030790767, -0.998627), (0.30282766, 0.93433744, 0.18790668), (0.30282766, 0.93433744, 0.18790668), (0.30282766, 0.93433744, 0.18790668), (0.30282766, 0.93433744, 0.18790668), (0.30282766, 0.93433744, 0.18790668), (0.30282766, 0.93433744, 0.18790668), (0.8086655, -0.58753014, 0.029469585), (0.8086655, -0.58753014, 0.029469585), (0.8086655, -0.58753014, 0.029469585), (0.8086655, -0.58753014, 0.029469585), (-0.016187513, 0.04981988, -0.99862695), (-0.016187513, 0.04981988, -0.99862695), (-0.016187513, 0.04981988, -0.99862695), (-0.016187513, 0.04981988, -0.99862695), (-0.30282786, -0.93433774, 0.18790507), (-0.30282786, -0.93433774, 0.18790507), (-0.30282786, -0.93433774, 0.18790507), (-0.30282786, -0.93433774, 0.18790507), (-0.30282786, -0.93433774, 0.18790507), (-0.30282786, -0.93433774, 0.18790507), (-0.052384116, -1.604085e-7, -0.99862695), (-0.052384116, -1.604085e-7, -0.99862695), (-0.052384116, -1.604085e-7, -0.99862695), (-0.052384116, -1.604085e-7, -0.99862695), (0.7994574, 0.5797792, 0.15723884), (0.7994574, 0.5797792, 0.15723884), (0.7994574, 0.5797792, 0.15723884), (0.7994574, 0.5797792, 0.15723884), (-0.04237963, 0.030790363, -0.998627), (-0.04237963, 0.030790363, -0.998627), (-0.04237963, 0.030790363, -0.998627), (-0.04237963, 0.030790363, -0.998627), (0.30561915, -0.940355, 0.14943017), (0.30561915, -0.940355, 0.14943017), (0.30561915, -0.940355, 0.14943017), (0.30561915, -0.940355, 0.14943017), (0.9870029, 0.0010392984, 0.16069879), (0.9870029, 0.0010392984, 0.16069879), (0.9870029, 0.0010392984, 0.16069879), (0.9870029, 0.0010392984, 0.16069879), (0.7946416, -0.57855874, 0.18388717), (0.7946416, -0.57855874, 0.18388717), (0.7946416, -0.57855874, 0.18388717), (0.7946416, -0.57855874, 0.18388717), (0.7946416, -0.57855874, 0.18388717), (0.7946416, -0.57855874, 0.18388717), (0.9424806, 0.33426097, 0), (0.9424806, 0.33426097, 0), (0.9424806, 0.33426097, 0), (0.9424806, 0.33426097, 0), (0.43007645, 0.90279245, 0), (0.43007645, 0.90279245, 0), (0.43007645, 0.90279245, 0), (0.43007645, 0.90279245, 0), (0.045117293, 0.016001496, 0.99885356), (0.045117293, 0.016001496, 0.99885356), (0.045117293, 0.016001496, 0.99885356), (0.045117293, 0.016001496, 0.99885356), (0.045117293, 0.016001496, 0.99885356), (0.045117293, 0.016001496, 0.99885356), (0.045117293, 0.016001496, 0.99885356), (0.9027925, -0.43007642, 0), (0.9027925, -0.43007642, 0), (0.9027925, -0.43007642, 0), (0.9027925, -0.43007642, 0), (0.04511731, 0.016001169, -0.9988535), (0.04511731, 0.016001169, -0.9988535), (0.04511731, 0.016001169, -0.9988535), (0.04511731, 0.016001169, -0.9988535), (0.04511731, 0.016001169, -0.9988535), (0.04511731, 0.016001169, -0.9988535), (0.04511731, 0.016001169, -0.9988535), (0.02908269, 0.06104891, 0.99771094), (0.02908269, 0.06104891, 0.99771094), (0.02908269, 0.06104891, 0.99771094), (0.02908269, 0.06104891, 0.99771094), (0.029082688, 0.061048586, -0.997711), (0.029082688, 0.061048586, -0.997711), (0.029082688, 0.061048586, -0.997711), (0.029082688, 0.061048586, -0.997711), (-0.33426094, 0.9424805, 0), (-0.33426094, 0.9424805, 0), (-0.33426094, 0.9424805, 0), (-0.33426094, 0.9424805, 0), (0.06104874, -0.029082514, 0.997711), (0.06104874, -0.029082514, 0.997711), (0.06104874, -0.029082514, 0.997711), (0.06104874, -0.029082514, 0.997711), (0.33426094, -0.9424805, 0), (0.33426094, -0.9424805, 0), (0.33426094, -0.9424805, 0), (0.33426094, -0.9424805, 0), (0.061048694, -0.029082833, -0.99771094), (0.061048694, -0.029082833, -0.99771094), (0.061048694, -0.029082833, -0.99771094), (0.061048694, -0.029082833, -0.99771094), (-0.01600134, 0.045117453, 0.9988535), (-0.01600134, 0.045117453, 0.9988535), (-0.01600134, 0.045117453, 0.9988535), (-0.01600134, 0.045117453, 0.9988535), (-0.01600134, 0.045117453, 0.9988535), (-0.01600134, 0.045117453, 0.9988535), (-0.016001342, 0.045117136, -0.9988535), (-0.016001342, 0.045117136, -0.9988535), (-0.016001342, 0.045117136, -0.9988535), (-0.016001342, 0.045117136, -0.9988535), (-0.016001342, 0.045117136, -0.9988535), (-0.016001342, 0.045117136, -0.9988535), (-0.9027924, 0.43007642, 0), (-0.9027924, 0.43007642, 0), (-0.9027924, 0.43007642, 0), (-0.9027924, 0.43007642, 0), (0.016001344, -0.045117147, 0.9988535), (0.016001344, -0.045117147, 0.9988535), (0.016001344, -0.045117147, 0.9988535), (0.016001344, -0.045117147, 0.9988535), (0.016001344, -0.045117147, 0.9988535), (0.016001344, -0.045117147, 0.9988535), (-0.43007648, -0.90279245, 0), (-0.43007648, -0.90279245, 0), (-0.43007648, -0.90279245, 0), (-0.43007648, -0.90279245, 0), (0.01600135, -0.045117468, -0.9988535), (0.01600135, -0.045117468, -0.9988535), (0.01600135, -0.045117468, -0.9988535), (0.01600135, -0.045117468, -0.9988535), (0.01600135, -0.045117468, -0.9988535), (0.01600135, -0.045117468, -0.9988535), (-0.061048724, 0.029082837, 0.99771106), (-0.061048724, 0.029082837, 0.99771106), (-0.061048724, 0.029082837, 0.99771106), (-0.061048724, 0.029082837, 0.99771106), (-0.061048716, 0.029082494, -0.997711), (-0.061048716, 0.029082494, -0.997711), (-0.061048716, 0.029082494, -0.997711), (-0.061048716, 0.029082494, -0.997711), (-0.9424806, -0.33426097, 0), (-0.9424806, -0.33426097, 0), (-0.9424806, -0.33426097, 0), (-0.9424806, -0.33426097, 0), (-0.02908268, -0.0610486, 0.99771094), (-0.02908268, -0.0610486, 0.99771094), (-0.02908268, -0.0610486, 0.99771094), (-0.02908268, -0.0610486, 0.99771094), (-0.029082691, -0.06104892, -0.997711), (-0.029082691, -0.06104892, -0.997711), (-0.029082691, -0.06104892, -0.997711), (-0.029082691, -0.06104892, -0.997711), (-0.0451173, -0.016001176, 0.9988535), (-0.0451173, -0.016001176, 0.9988535), (-0.0451173, -0.016001176, 0.9988535), (-0.0451173, -0.016001176, 0.9988535), (-0.0451173, -0.016001176, 0.9988535), (-0.0451173, -0.016001176, 0.9988535), (-0.0451173, -0.016001176, 0.9988535), (-0.045117293, -0.016001502, -0.99885356), (-0.045117293, -0.016001502, -0.99885356), (-0.045117293, -0.016001502, -0.99885356), (-0.045117293, -0.016001502, -0.99885356), (-0.045117293, -0.016001502, -0.99885356), (-0.045117293, -0.016001502, -0.99885356), (-0.045117293, -0.016001502, -0.99885356)] (
                interpolation = "faceVarying"
            )
            point3f[] points = [(0.26657853, 0.08661659, -0.1009258), (0.2819528, 0.09161199, -0.07687774), (0.2819528, -0.09161203, -0.07687771), (0.26657853, -0.086616635, -0.10092577), (0.2867302, 0.093164265, -0.12622377), (0.2867302, -0.093164325, -0.12622374), (0.16475457, 0.2267652, -0.100925826), (0.17425638, 0.23984332, -0.076877765), (0.28511518, 0.09263954, -0.055212803), (0.28511518, -0.092639565, -0.055212773), (0.17425635, -0.2398434, -0.07687769), (0.16475454, -0.22676525, -0.10092575), (0.27248326, -0.08853522, -0.1668952), (0.27248326, 0.08853515, -0.16689523), (0.17720903, 0.24390726, -0.1262238), (0.17720897, -0.2439073, -0.12622371), (8.5751495e-10, 0.28029722, -0.10092583), (7.561233e-10, 0.2964627, -0.07687777), (0.1762109, 0.24253346, -0.05521283), (0.27880558, 0.09058941, -0.033547856), (0.27880558, -0.09058944, -0.033547826), (0.17621084, -0.24253349, -0.055212747), (-2.5161471e-8, -0.2964627, -0.07687768), (-2.364685e-8, -0.28029728, -0.10092574), (0.16840394, 0.23178805, -0.16689526), (0.16840388, -0.23178816, -0.16689517), (0.2395958, -0.07784944, -0.19201596), (0.2395958, 0.07784936, -0.19201599), (6.3155725e-10, 0.30148596, -0.1262238), (-2.5725186e-8, -0.30148602, -0.12622371), (-0.16475454, 0.22676528, -0.100925826), (-0.17425632, 0.2398434, -0.076877765), (7.1473893e-10, 0.29978785, -0.055212837), (0.17231135, 0.2371662, -0.03354788), (0.26379368, 0.085711755, -0.019345619), (0.26379368, -0.08571178, -0.019345593), (0.17231128, -0.2371662, -0.033547804), (-2.5493545e-8, -0.29978785, -0.05521274), (-0.17425644, -0.23984334, -0.07687769), (-0.16475461, -0.22676523, -0.10092575), (1.8674498e-9, 0.28650582, -0.16689526), (0.14807837, 0.20381232, -0.192016), (-2.317969e-8, -0.28650588, -0.16689517), (0.14807834, -0.20381245, -0.19201595), (0.18138452, -0.058935434, -0.21401809), (0.18138452, 0.058935363, -0.21401812), (-0.17720893, 0.24390733, -0.1262238), (-0.17720905, -0.24390727, -0.12622371), (-0.26657847, 0.086616635, -0.1009258), (-0.28195274, 0.09161203, -0.07687774), (-0.17621079, 0.24253352, -0.05521283), (7.77401e-10, 0.29315352, -0.03354789), (0.16303347, 0.22439632, -0.019345643), (0.26355273, -0.08563348, -0.010037128), (0.26348174, 0.0856104, -0.0072970837), (0.16303343, -0.22439632, -0.019345568), (-2.4850891e-8, -0.29315352, -0.033547793), (-0.17621091, -0.24253345, -0.055212747), (-0.28195274, -0.091612056, -0.07687771), (-0.26657847, -0.08661666, -0.10092577), (-0.16840383, 0.23178817, -0.16689526), (2.7985458e-9, 0.2519259, -0.19201602), (0.11210179, 0.15429486, -0.21401814), (-0.16840394, -0.23178811, -0.16689517), (-1.922552e-8, -0.25192595, -0.19201593), (0.11210177, -0.15429492, -0.21401808), (5.231887e-9, 0.19071895, -0.21401814), (-1.1441295e-8, -0.19071895, -0.21401808), (-0.11210178, -0.1542949, -0.21401808), (-0.18138447, -0.058935452, -0.21401809), (-0.18138447, 0.058935404, -0.21401812), (-0.11210174, 0.15429491, -0.21401814), (-0.2867302, 0.09316431, -0.12622377), (-0.2867302, -0.09316435, -0.12622374), (-0.28511515, 0.09263957, -0.055212803), (-0.17231123, 0.23716626, -0.03354788), (8.887409e-10, 0.27736908, -0.01934565), (0.16287787, 0.22418216, -0.009621413), (0.16284926, -0.22414286, -0.007836592), (0.25692043, -0.094781645, -0.010483249), (0.23179147, -0.12939195, -0.011011985), (-2.3359632e-8, -0.27736908, -0.019345561), (-0.17231135, -0.23716615, -0.033547804), (-0.28511515, -0.09263959, -0.055212773), (-0.2724832, 0.08853519, -0.16689523), (-0.14807828, 0.2038124, -0.192016), (-0.2724832, -0.08853524, -0.1668952), (-0.14807837, -0.2038124, -0.19201595), (-0.23959577, -0.077849455, -0.19201596), (-0.23959577, 0.07784942, -0.19201599), (-0.27880555, 0.09058945, -0.033547856), (-0.16303338, 0.2243964, -0.019345643), (9.165361e-10, 0.2770617, -0.008055173), (0.09901966, 0.24497095, -0.011090945), (0.13425088, 0.23351474, -0.010764966), (-2.3304967e-8, -0.2770617, -0.008055084), (-0.16303349, -0.22439627, -0.019345568), (-0.27880555, -0.09058946, -0.033547826), (-0.26379368, 0.085711814, -0.019345619), (-0.16284923, 0.22414292, -0.007836663), (-0.16287789, -0.22418211, -0.00962134), (-0.09901966, -0.24497092, -0.011090866), (-0.13425085, -0.23351474, -0.01076489), (-0.26379368, -0.08571179, -0.019345593), (-0.26355264, 0.08563351, -0.010037159), (-0.2569204, 0.09478165, -0.010483284), (-0.23179147, 0.12939194, -0.011012029), (-0.2634817, -0.08561044, -0.0072970567), (-0.2867302, 0.09316435, 0.0779492), (-0.26210478, 0.08516308, 0.15553153), (-0.16198961, 0.22295977, 0.15553151), (-0.17720893, 0.24390736, 0.07794918), (-0.16073197, 0.22122878, 0.049712747), (-0.26006988, 0.084501885, 0.04971277), (-0.2867302, -0.09316431, 0.07794923), (-0.26210478, -0.08516302, 0.15553156), (-0.18860796, 0.06128252, 0.21705978), (-0.11656608, 0.1604396, 0.21705976), (2.2358553e-9, 0.27559334, 0.1555315), (6.3155725e-10, 0.301486, 0.07794917), (-0.26006988, -0.08450186, 0.0497128), (1.2428121e-9, 0.2734537, 0.04971274), (-0.14840752, 0.20426561, 0.038992915), (-0.24012853, 0.07802254, 0.038992938), (-0.17720905, -0.24390724, 0.077949256), (-0.16198969, -0.22295965, 0.15553157), (-0.18860796, -0.061282426, 0.2170598), (-0.0957608, 0.031114642, 0.24433136), (-0.059183396, 0.08145908, 0.24433134), (4.8884288e-9, 0.19831419, 0.21705976), (0.16198969, 0.22295971, 0.15553151), (0.17720903, 0.24390729, 0.07794918), (-0.16073209, -0.22122867, 0.04971282), (-0.24012853, -0.07802251, 0.03899296), (0.16073206, 0.2212287, 0.049712747), (1.8240427e-9, 0.25248608, 0.03899292), (-0.17771421, 0.24460286, 0.040382266), (-0.28754777, 0.09343, 0.040382292), (-2.5725186e-8, -0.301486, 0.07794927), (-2.185728e-8, -0.27559328, 0.15553159), (-0.11656612, -0.16043948, 0.21705982), (-0.0957608, -0.03111454, 0.24433136), (9.479342e-9, 0.10068893, 0.24433134), (-0.059183426, -0.081458956, 0.24433137), (6.7684053e-10, -0.10068885, 0.24433137), (0.059183445, -0.08145898, 0.24433137), (0.09576083, -0.031114532, 0.24433136), (0.09576083, 0.031114617, 0.24433136), (0.059183452, 0.08145905, 0.24433134), (0.116566144, 0.16043955, 0.21705976), (0.26210484, 0.08516303, 0.15553153), (0.2867302, 0.0931643, 0.0779492), (-2.2663269e-8, -0.2734537, 0.04971283), (-0.14840762, -0.20426553, 0.038992994), (-0.28754777, -0.09342996, 0.040382322), (0.26006994, 0.08450184, 0.04971277), (0.14840761, 0.20426553, 0.038992915), (1.879033e-10, 0.30234563, 0.04038226), (-0.17811891, 0.24515986, 0.018171081), (-0.28820258, 0.09364276, 0.018171106), (0.17720897, -0.24390727, 0.077949256), (0.16198964, -0.22295965, 0.15553157), (-1.2448744e-8, -0.19831413, 0.21705982), (0.116566114, -0.16043949, 0.21705982), (0.18860798, -0.06128241, 0.2170598), (0.18860798, 0.061282475, 0.21705978), (0.26210484, -0.085163005, 0.15553156), (0.2867302, -0.09316429, 0.07794923), (0.16073206, -0.2212287, 0.04971282), (-2.0248988e-8, -0.25248608, 0.038993), (-0.17771435, -0.24460275, 0.040382348), (-0.28820258, -0.093642734, 0.018171135), (0.26006994, -0.08450184, 0.0497128), (0.24012858, 0.07802249, 0.038992938), (0.1777143, 0.24460275, 0.040382266), (1.2563875e-10, 0.30303416, 0.01817108), (-0.16174969, 0.22262955, 0.019560438), (-0.26171663, 0.08503693, 0.01956046), (0.14840758, -0.2042656, 0.038992994), (-2.6243994e-8, -0.30234563, 0.040382355), (-0.17811905, -0.24515979, 0.018171169), (-0.26171663, -0.085036926, 0.019560486), (0.24012858, -0.078022495, 0.03899296), (0.2875478, 0.09342994, 0.040382292), (0.17811905, 0.24515979, 0.018171081), (1.0862344e-9, 0.27518517, 0.019560432), (-0.16250679, 0.22367157, 0.011368555), (-0.23149228, 0.12854835, 0.014560074), (-0.25574163, 0.09519971, 0.014048382), (-0.26287153, 0.08541219, 0.0135695385), (0.17771429, -0.2446028, 0.040382348), (-2.636645e-8, -0.30303416, 0.01817118), (-0.16174981, -0.22262947, 0.019560512), (-0.2629588, -0.08544054, 0.010828616), (0.2875478, -0.093429945, 0.040382322), (0.28820264, 0.0936427, 0.018171106), (0.1617498, 0.22262947, 0.019560438), (9.704203e-10, 0.27646583, 0.011587187), (0.17811897, -0.24515985, 0.018171169), (-2.2971214e-8, -0.27518517, 0.019560521), (-0.16247176, -0.22362313, 0.013153901), (0.28820264, -0.09364272, 0.018171135), (0.26171666, 0.08503689, 0.01956046), (0.16247174, 0.22362317, 0.013153829), (0.13313057, 0.2331174, 0.014327047), (0.09933262, 0.24408853, 0.014640925), (0.16174975, -0.2226295, 0.019560512), (-0.13313055, -0.2331174, 0.014327125), (-0.09933262, -0.24408853, 0.014641006), (-2.3198991e-8, -0.27646583, 0.011587276), (0.26171666, -0.0850369, 0.019560486), (0.26295882, 0.085440494, 0.010828585), (0.16250682, -0.22367154, 0.0113686295), (0.26287156, -0.08541216, 0.013569565), (0.23149228, -0.12854838, 0.014560113), (0.25574166, -0.095199704, 0.014048412), (0.26355273, -0.08563348, -0.010037128), (0.26348174, 0.0856104, -0.0072970837), (0.16287787, 0.22418216, -0.009621413), (0.16284926, -0.22414286, -0.007836592), (0.25692043, -0.094781645, -0.010483249), (0.23179147, -0.12939195, -0.011011985), (9.165361e-10, 0.2770617, -0.008055173), (0.09901966, 0.24497095, -0.011090945), (0.13425088, 0.23351474, -0.010764966), (-2.3304967e-8, -0.2770617, -0.008055084), (-0.16284923, 0.22414292, -0.007836663), (-0.16287789, -0.22418211, -0.00962134), (-0.09901966, -0.24497092, -0.011090866), (-0.13425085, -0.23351474, -0.01076489), (-0.26355264, 0.08563351, -0.010037159), (-0.2569204, 0.09478165, -0.010483284), (-0.23179147, 0.12939194, -0.011012029), (-0.2634817, -0.08561044, -0.0072970567), (-0.16250679, 0.22367157, 0.011368555), (-0.23149228, 0.12854835, 0.014560074), (-0.25574163, 0.09519971, 0.014048382), (-0.26287153, 0.08541219, 0.0135695385), (-0.2629588, -0.08544054, 0.010828616), (9.704203e-10, 0.27646583, 0.011587187), (-0.16247176, -0.22362313, 0.013153901), (0.16247174, 0.22362317, 0.013153829), (0.13313057, 0.2331174, 0.014327047), (0.09933262, 0.24408853, 0.014640925), (-0.13313055, -0.2331174, 0.014327125), (-0.09933262, -0.24408853, 0.014641006), (-2.3198991e-8, -0.27646583, 0.011587276), (0.26295882, 0.085440494, 0.010828585), (0.16250682, -0.22367154, 0.0113686295), (0.26287156, -0.08541216, 0.013569565), (0.23149228, -0.12854838, 0.014560113), (0.25574166, -0.095199704, 0.014048412), (0.21528287, 0.2622536, 0.010149543), (0.33241346, -0.06800724, 0.010149597), (0.33241346, -0.06800724, -0.006644386), (0.21528287, 0.2622536, -0.00664444), (0.06800724, 0.33241346, -0.006644451), (0.06800724, 0.33241346, 0.010149532), (0.2622536, -0.21528287, 0.010149621), (0.2622536, -0.21528287, -0.006644362), (-0.2622536, 0.21528287, 0.010149551), (-0.2622536, 0.21528287, -0.006644432), (-0.06800724, -0.33241346, 0.01014964), (-0.06800724, -0.33241346, -0.006644343), (-0.33241346, 0.06800724, -0.006644408), (-0.33241346, 0.06800724, 0.010149575), (-0.21528287, -0.2622536, 0.010149629), (-0.21528287, -0.2622536, -0.006644354)]
            texCoord2f[] primvars:st = [(0.8965621, 0.07401711), (0.07649571, 0.93094254), (0.8965608, 0.07490956), (0.8900945, 0.077024736), (0.8895688, 0.07630297), (0.0875656, 0.93094254), (0.07697648, 0.93253154), (0.08702111, 0.93251085), (0.90355724, 0.076292135), (0.06753796, 0.9374455), (0.9030307, 0.07701257), (0.8965564, 0.07542639), (0.8903961, 0.07744487), (0.8861188, 0.082556635), (0.88527095, 0.08227984), (0.09652269, 0.9374466), (0.08652419, 0.9340699), (0.07749024, 0.9340851), (0.06886083, 0.93844855), (0.095160484, 0.9383955), (0.9078776, 0.082248375), (0.064117014, 0.94797194), (0.9070281, 0.08252191), (0.9027227, 0.077427685), (0.8965558, 0.07596019), (0.89071083, 0.07787641), (0.88660914, 0.08272057), (0.8860946, 0.08936819), (0.8852442, 0.089640245), (0.099945545, 0.94797254), (0.07018942, 0.9394034), (0.09384233, 0.9393648), (0.085932255, 0.93592334), (0.078099936, 0.9359329), (0.065776736, 0.94800526), (0.098285794, 0.9479392), (0.9078776, 0.08960921), (0.06753984, 0.9584979), (0.9070291, 0.089332044), (0.9065348, 0.08267686), (0.90240777, 0.07785879), (0.8965565, 0.076582566), (0.89021444, 0.97063863), (0.89107907, 0.07837853), (0.9096777, 0.95690304), (0.88711715, 0.08288631), (0.88658834, 0.089214176), (0.89009124, 0.09487398), (0.8895654, 0.095595025), (0.09652454, 0.9584989), (0.067412734, 0.9479962), (0.07176831, 0.94053954), (0.096649766, 0.9479483), (0.09227449, 0.94051635), (0.084971964, 0.93891656), (0.0790804, 0.93892014), (0.068902016, 0.957549), (0.09520167, 0.95749587), (0.9035585, 0.09556981), (0.0764969, 0.96500194), (0.9030342, 0.09484747), (0.90653867, 0.089168), (0.90602636, 0.08284066), (0.9020416, 0.078362346), (0.86736, 0.97063863), (0.90883476, 0.9564664), (0.8898831, 0.96961415), (0.8877107, 0.08307865), (0.9150554, 0.93856), (0.887097, 0.089051425), (0.89039874, 0.09445854), (0.89656514, 0.09696541), (0.8965648, 0.09785777), (0.08756679, 0.96500194), (0.07022014, 0.9565797), (0.06935781, 0.9479865), (0.07431549, 0.94237787), (0.09387308, 0.95654106), (0.09470475, 0.947958), (0.0897395, 0.9423733), (0.072499186, 0.9479749), (0.091563284, 0.94796956), (0.08974707, 0.9535666), (0.0849821, 0.9570243), (0.079090536, 0.9570279), (0.07432303, 0.95357114), (0.07704139, 0.9634336), (0.08708602, 0.9634129), (0.9027334, 0.094426885), (0.9060307, 0.08900224), (0.9054338, 0.08303302), (0.84960264, 0.957868), (0.86761194, 0.9699005), (0.91422784, 0.938617), (0.9095128, 0.9544974), (0.91167384, 0.94772834), (0.8876896, 0.088860385), (0.908066, 0.91951156), (0.89071316, 0.09402715), (0.89656895, 0.09644851), (0.07753831, 0.9618746), (0.07178807, 0.9554281), (0.08657229, 0.96185935), (0.092294216, 0.9554049), (0.085962534, 0.9600116), (0.078130275, 0.9600211), (0.90241945, 0.09399471), (0.9054378, 0.088810235), (0.8427571, 0.93888396), (0.85024786, 0.9573663), (0.8605551, 0.9649901), (0.86446667, 0.96776754), (0.90742075, 0.92001617), (0.89107853, 0.0935233), (0.89029235, 0.9067884), (0.8965689, 0.0959146), (0.90205216, 0.09349148), (0.8494441, 0.91917384), (0.8435841, 0.9388528), (0.89003956, 0.90751815), (0.8970951, 0.91241163), (0.8931808, 0.90964365), (0.8965674, 0.09529198), (0.8677788, 0.906649), (0.84999335, 0.91960126), (0.8494428, 0.92116565), (0.8473746, 0.9271462), (0.86807793, 0.90763885), (0.080652416, 0.96453637), (0.07888955, 0.95872194), (0.092621565, 0.9486867), (0.097465634, 0.9523545), (0.1011368, 0.954896), (0.082128406, 0.9687503), (0.05989009, 0.9645086), (0.06188163, 0.9587685), (0.07635665, 0.9507269), (0.08587241, 0.94370764), (0.09783214, 0.9324957), (0.10390723, 0.9326156), (0.05860731, 0.9687852), (0.10837126, 0.9325137), (0.103844106, 0.9569345), (0.08814549, 0.5052274), (0.083120346, 0.9719907), (0.0795196, 0.5114749), (0.04310885, 0.9522826), (0.048093826, 0.9488089), (0.06453216, 0.9508113), (0.07334018, 0.9417362), (0.07814604, 0.93820715), (0.08944476, 0.9324348), (0.09253025, 0.9163337), (0.09751558, 0.9128598), (0.039557546, 0.95498866), (0.05750516, 0.97198975), (0.06886897, 0.51145905), (0.101067245, 0.9101535), (0.11175978, 0.93257153), (0.09145182, 0.49510285), (0.09101765, 0.5073046), (0.08062226, 0.51484364), (0.036717147, 0.93252873), (0.042791843, 0.9326485), (0.05491516, 0.9439279), (0.06737825, 0.9417644), (0.07995963, 0.932526), (0.06253901, 0.93827873), (0.060662717, 0.93261635), (0.06247568, 0.9269366), (0.06728214, 0.9234089), (0.073245466, 0.92338055), (0.07808781, 0.9268627), (0.0857088, 0.9212142), (0.07874143, 0.9063744), (0.08073282, 0.9006339), (0.032253474, 0.9326308), (0.036782444, 0.9569335), (0.060261786, 0.5051859), (0.067780964, 0.5148325), (0.082015455, 0.89635694), (0.103842616, 0.9082085), (0.088175744, 0.48496848), (0.09499641, 0.49509513), (0.09186601, 0.507912), (0.0809516, 0.5158336), (0.04315725, 0.9127904), (0.04800132, 0.9164579), (0.051178753, 0.9327093), (0.054750293, 0.92143667), (0.064266145, 0.91441715), (0.07609135, 0.91433215), (0.06173283, 0.906422), (0.059969693, 0.90060747), (0.03948605, 0.91024923), (0.028865188, 0.9325731), (0.056985654, 0.49505156), (0.05739869, 0.5072756), (0.067465484, 0.51582706), (0.058493406, 0.8963936), (0.083117485, 0.8931521), (0.07956856, 0.47869533), (0.09103885, 0.48287883), (0.09603977, 0.49508786), (0.093796775, 0.5093036), (0, 0), (0.08169563, 0.51809436), (0, 0), (0.03677872, 0.9082109), (0.06029199, 0.48492703), (0.053441063, 0.49505925), (0.056558885, 0.50789475), (0.06673858, 0.51809335), (0, 0), (0.057501256, 0.8931532), (0.06891791, 0.47867948), (0.080656566, 0.4753219), (0.09187865, 0.4822597), (0.09841979, 0.49507886), (0, 0), (0, 0), (0, 0), (0, 0), (0, 0), (0.05741982, 0.4828498), (0.052397717, 0.49506652), (0.0546387, 0.50930095), (0, 0), (0, 0), (0.06781524, 0.4753108), (0.080972046, 0.47432736), (0.09379884, 0.48085347), (0, 0), (0, 0), (0.05657145, 0.48224244), (0.050017707, 0.49507555), (0, 0), (0, 0), (0.06748589, 0.47432077), (0.081698954, 0.47206104), (0, 0), (0, 0), (0, 0), (0, 0), (0.054640684, 0.4808508), (0, 0), (0, 0), (0, 0), (0, 0), (0.06674186, 0.47206), (0, 0), (0, 0), (0, 0), (0, 0), (0, 0), (0, 0), (0.9030495, 0.47536096), (0.90701145, 0.4867882), (0.9035064, 0.49836335), (0.8913458, 0.4690797), (0.9030692, 0.47431576), (0.90288347, 0.47001335), (0.8893431, 0.5042231), (0.90171546, 0.50586927), (0.90281993, 0.5017415), (0.880972, 0.46573296), (0.87794334, 0.50337297), (0.8641122, 0.46920383), (0.8673326, 0.46024612), (0.8654319, 0.46513072), (0.8627968, 0.4990294), (0.8628672, 0.50037766), (0.86355627, 0.5058687), (0.8586135, 0.48390284), (0.8786658, 0.49947745), (0.8736378, 0.4958273), (0.87200487, 0.4942215), (0.8716586, 0.49369833), (0.8741434, 0.4847514), (0.88878113, 0.4993738), (0.87315, 0.47569788), (0.8957104, 0.49375257), (0.89482874, 0.4948879), (0.8933439, 0.4961), (0.87425506, 0.474422), (0.87588394, 0.47326565), (0.88115025, 0.47059935), (0.8944841, 0.48625186), (0.89067173, 0.47257778), (0.8955169, 0.47899315), (0.89397246, 0.47685158), (0.89518094, 0.47850525), (0.8988722, 0.49461251), (0.89890665, 0.47954595), (0.8994186, 0.47941062), (0.8993898, 0.4948326), (0.8937193, 0.50193965), (0.8934445, 0.50131583), (0.8952744, 0.472398), (0.8956625, 0.4718936), (0.87314534, 0.50091267), (0.8728028, 0.5015523), (0.8766302, 0.4675773), (0.8764258, 0.46687523), (0.8671379, 0.49352625), (0.867774, 0.4933455), (0.8694116, 0.47438103), (0.86880195, 0.47405759)] (
                interpolation = "faceVarying"
            )
            int[] primvars:st:indices = [0, 2, 3, 4, 6, 1, 5, 7, 8, 10, 2, 0, 2, 11, 12, 3, 4, 3, 13, 14, 6, 7, 16, 17, 18, 9, 1, 6, 7, 5, 15, 19, 20, 22, 10, 8, 10, 23, 11, 2, 11, 24, 25, 12, 3, 12, 26, 13, 14, 13, 27, 28, 18, 6, 17, 30, 7, 19, 31, 16, 17, 16, 32, 33, 34, 21, 9, 18, 19, 15, 29, 35, 36, 38, 22, 20, 22, 39, 23, 10, 23, 40, 24, 11, 41, 43, 25, 24, 12, 25, 45, 26, 13, 26, 46, 27, 28, 27, 47, 48, 34, 18, 30, 50, 30, 17, 33, 51, 19, 35, 52, 31, 16, 31, 53, 32, 33, 32, 54, 55, 56, 37, 21, 34, 35, 29, 49, 57, 58, 60, 38, 36, 38, 61, 39, 22, 39, 62, 40, 23, 63, 41, 24, 40, 65, 44, 42, 66, 43, 67, 45, 25, 26, 45, 69, 46, 27, 46, 70, 47, 48, 47, 71, 72, 56, 34, 50, 74, 50, 30, 51, 75, 51, 33, 55, 76, 35, 57, 77, 52, 31, 52, 78, 53, 32, 53, 79, 54, 80, 76, 55, 54, 79, 81, 82, 83, 84, 85, 86, 59, 37, 56, 57, 49, 73, 87, 72, 71, 60, 58, 60, 88, 61, 38, 61, 89, 62, 39, 90, 63, 40, 62, 66, 42, 64, 92, 93, 68, 44, 65, 94, 95, 67, 96, 69, 45, 46, 69, 98, 70, 47, 70, 99, 71, 86, 56, 74, 100, 74, 50, 75, 101, 75, 51, 76, 80, 57, 87, 102, 77, 52, 77, 103, 78, 53, 78, 81, 79, 101, 75, 80, 85, 78, 103, 82, 81, 103, 104, 83, 82, 104, 105, 84, 83, 105, 101, 85, 84, 87, 73, 59, 86, 71, 99, 88, 60, 88, 106, 89, 61, 107, 90, 62, 89, 92, 64, 91, 109, 110, 111, 112, 97, 68, 93, 96, 113, 98, 69, 70, 98, 115, 99, 87, 86, 100, 102, 100, 74, 101, 105, 77, 102, 104, 103, 102, 100, 105, 104, 99, 115, 106, 88, 116, 107, 89, 106, 109, 91, 108, 118, 119, 114, 97, 112, 120, 121, 113, 122, 115, 98, 122, 116, 106, 115, 118, 108, 117, 124, 125, 126, 127, 123, 114, 119, 124, 117, 123, 127, 128, 129, 130, 131, 128, 131, 132, 133, 134, 135, 129, 128, 129, 136, 137, 130, 131, 130, 138, 139, 134, 128, 133, 140, 131, 139, 141, 132, 133, 132, 142, 144, 146, 147, 135, 134, 135, 148, 136, 129, 137, 136, 149, 150, 130, 137, 151, 138, 139, 138, 152, 153, 146, 134, 140, 154, 140, 133, 144, 155, 139, 153, 157, 141, 132, 141, 158, 142, 145, 143, 160, 161, 162, 163, 147, 146, 147, 164, 148, 135, 136, 148, 165, 149, 151, 137, 150, 166, 166, 150, 149, 165, 167, 168, 169, 170, 171, 172, 138, 151, 173, 152, 153, 152, 174, 175, 162, 146, 154, 176, 154, 140, 155, 177, 156, 145, 161, 179, 153, 175, 180, 157, 141, 157, 181, 158, 143, 159, 183, 160, 161, 160, 184, 185, 186, 187, 163, 162, 163, 188, 164, 147, 148, 164, 167, 165, 173, 151, 166, 172, 164, 188, 168, 167, 188, 189, 169, 168, 189, 190, 170, 169, 190, 191, 171, 170, 191, 173, 172, 171, 152, 173, 191, 174, 175, 174, 192, 193, 186, 162, 176, 194, 176, 154, 177, 195, 178, 156, 179, 197, 179, 161, 185, 198, 175, 193, 199, 180, 157, 180, 200, 181, 159, 182, 202, 183, 160, 183, 203, 184, 204, 206, 185, 184, 193, 192, 187, 186, 187, 189, 188, 163, 192, 190, 189, 187, 174, 191, 190, 192, 193, 186, 194, 199, 194, 176, 195, 208, 196, 178, 197, 210, 197, 179, 198, 211, 206, 212, 198, 185, 180, 199, 214, 200, 182, 201, 216, 202, 183, 202, 217, 203, 218, 204, 184, 203, 205, 220, 221, 222, 223, 207, 199, 194, 208, 214, 209, 196, 210, 224, 210, 197, 211, 225, 212, 226, 211, 198, 228, 213, 207, 223, 201, 215, 229, 216, 202, 216, 230, 217, 231, 218, 203, 217, 220, 205, 219, 233, 215, 209, 224, 229, 224, 210, 225, 234, 226, 235, 225, 211, 237, 227, 213, 228, 216, 229, 238, 230, 239, 231, 217, 230, 232, 241, 242, 243, 233, 219, 229, 224, 234, 238, 235, 244, 234, 225, 227, 237, 246, 247, 248, 236, 249, 239, 230, 238, 241, 232, 240, 251, 244, 249, 238, 234, 252, 245, 236, 248, 251, 240, 250, 253, 253, 250, 245, 252, 254, 255, 292, 293, 294, 295, 292, 295, 296, 297, 291, 293, 292, 282, 281, 287, 289, 298, 299, 294, 293, 264, 295, 294, 260, 256, 257, 258, 282, 292, 297, 283, 263, 296, 295, 264, 300, 297, 296, 301, 290, 298, 293, 291, 298, 302, 303, 299, 260, 294, 299, 261, 283, 297, 300, 275, 274, 279, 272, 301, 296, 263, 262, 266, 300, 301, 304, 305, 285, 302, 298, 290, 288, 286, 303, 302, 306, 307, 261, 299, 303, 268, 265, 259, 275, 300, 305, 276, 271, 304, 301, 272, 306, 305, 304, 307, 284, 306, 302, 285, 268, 303, 307, 269, 276, 305, 306, 284, 280, 278, 277, 269, 307, 304, 271, 270, 273, 267]
            uniform token subdivisionScheme = "none"
            custom string userProperties:blender:data_name = "Cylinder"
        }
    }

    def Scope "_materials"
    {
        def Material "Material"
        {
            token outputs:surface.connect = </root/_materials/Material/Principled_BSDF.outputs:surface>
            custom string userProperties:blender:data_name = "Material"

            def Shader "Principled_BSDF"
            {
                uniform token info:id = "UsdPreviewSurface"
                float inputs:clearcoat = 0
                float inputs:clearcoatRoughness = 0.03
                color3f inputs:diffuseColor = (0.8, 0.8, 0.8)
                color3f inputs:emissiveColor = (0, 0, 0)
                float inputs:ior = 1.5
                float inputs:metallic = 0
                float inputs:opacity = 1
                float inputs:roughness = 0.5527864
                float inputs:specular = 1
                token outputs:surface
            }
        }
    }
}

