#usda 1.0
(
    defaultPrim = "root"
    doc = "Blender v5.1.2"
    metersPerUnit = 1
    upAxis = "Y"
)

def Xform "root" (
    customData = {
        dictionary Blender = {
            bool generated = 1
        }
    }
)
{
    float3 xformOp:rotateXYZ = (-90, -0, 0)
    uniform token[] xformOpOrder = ["xformOp:rotateXYZ"]

    def Xform "Soda_can"
    {
        custom string userProperties:blender:object_name = "Soda can"

        def Mesh "Cylinder" (
            active = true
            prepend apiSchemas = ["MaterialBindingAPI"]
        )
        {
            uniform bool doubleSided = 1
            float3[] extent = [(-0.30946857, -0.29998633, -0.010438949), (0.3094685, 0.31265086, 0.9844024)]
            int[] faceVertexCounts = [4, 4, 4, 4, 4, 4, 4, 4, 4, 4, 4, 4, 4, 4, 4, 4, 4, 11, 4, 4, 4, 4, 4, 4, 4, 4, 4, 4, 4, 4, 4, 4, 4, 4, 4, 4, 4, 4, 4, 4, 4, 4, 4, 4, 4, 4, 4, 4, 4, 4, 4, 4, 4, 4, 4, 4, 4, 4, 4, 4, 4, 4, 4, 4, 4, 4, 4, 4, 4, 4, 4, 4, 4, 4, 4, 4, 4, 4, 4, 4, 8, 4, 4, 4, 4, 8, 4, 4, 4, 4, 4, 6, 4, 4, 4, 4, 4, 4, 6, 4, 4, 4, 4, 6, 3, 4, 4, 4, 6, 4, 4, 4, 4, 12, 4, 4, 4, 4, 4, 4, 4, 4, 4, 4, 4, 4, 4, 4, 4, 4, 4, 4, 4, 4, 3, 4, 4, 4, 4, 4, 4, 4, 4, 4, 4, 4, 3, 3, 4, 4, 4, 4, 4, 4, 4, 4, 4, 4, 4, 6, 3, 4, 4, 4, 4, 4, 4, 6, 4, 6, 4, 3, 5, 4, 4, 6, 4, 4, 4, 4, 4, 5, 3, 5, 6, 4, 5, 4, 4, 4, 4, 4, 4, 4, 4, 4, 4, 4]
            int[] faceVertexIndices = [0, 1, 2, 3, 0, 3, 4, 5, 6, 7, 1, 0, 2, 1, 8, 9, 3, 2, 10, 11, 6, 0, 5, 12, 3, 11, 13, 4, 5, 4, 14, 15, 16, 17, 7, 6, 1, 7, 18, 8, 10, 2, 9, 19, 9, 8, 20, 21, 11, 10, 22, 23, 16, 6, 12, 24, 12, 5, 15, 25, 11, 23, 26, 13, 4, 13, 27, 14, 15, 14, 27, 28, 29, 30, 31, 32, 33, 34, 25, 35, 36, 17, 16, 7, 17, 37, 18, 8, 18, 38, 20, 22, 10, 19, 39, 19, 9, 21, 40, 21, 20, 41, 42, 23, 22, 43, 44, 35, 16, 24, 45, 24, 12, 25, 34, 23, 44, 46, 26, 13, 26, 28, 27, 26, 46, 29, 28, 46, 47, 30, 29, 47, 48, 31, 30, 48, 49, 32, 31, 49, 45, 33, 32, 45, 24, 34, 33, 50, 51, 36, 35, 17, 36, 52, 37, 18, 37, 53, 38, 20, 38, 54, 41, 43, 22, 39, 55, 39, 19, 40, 56, 40, 21, 42, 57, 42, 41, 58, 59, 44, 43, 60, 61, 50, 35, 45, 49, 44, 61, 47, 46, 61, 62, 48, 47, 62, 50, 49, 48, 62, 63, 51, 50, 36, 51, 64, 52, 37, 52, 65, 53, 38, 53, 66, 54, 41, 54, 67, 58, 60, 43, 55, 68, 55, 39, 56, 69, 56, 40, 57, 70, 57, 42, 59, 71, 59, 58, 72, 73, 61, 60, 63, 62, 51, 63, 74, 64, 52, 64, 75, 65, 53, 65, 76, 66, 54, 66, 77, 67, 58, 67, 78, 72, 63, 60, 68, 74, 68, 55, 69, 79, 69, 56, 70, 80, 70, 57, 71, 81, 71, 59, 73, 82, 73, 72, 83, 84, 64, 74, 85, 75, 65, 75, 86, 76, 66, 76, 87, 77, 67, 77, 88, 78, 72, 78, 89, 83, 74, 68, 79, 85, 79, 69, 80, 90, 80, 70, 81, 91, 81, 71, 82, 92, 82, 73, 84, 93, 84, 83, 94, 95, 96, 97, 98, 99, 75, 85, 100, 86, 76, 86, 101, 87, 77, 87, 102, 88, 78, 88, 103, 89, 83, 89, 104, 105, 106, 107, 108, 94, 85, 79, 90, 100, 90, 80, 91, 109, 91, 81, 92, 110, 92, 82, 93, 111, 93, 84, 99, 112, 95, 94, 113, 114, 115, 116, 99, 98, 117, 118, 86, 100, 119, 101, 87, 101, 120, 102, 88, 102, 121, 103, 89, 103, 122, 104, 105, 104, 123, 124, 94, 108, 125, 126, 127, 113, 100, 90, 109, 119, 109, 91, 110, 128, 110, 92, 111, 129, 111, 93, 112, 130, 112, 99, 118, 131, 132, 133, 114, 113, 127, 101, 119, 134, 120, 102, 120, 135, 121, 103, 121, 136, 122, 104, 122, 137, 138, 139, 123, 119, 109, 128, 134, 128, 110, 129, 140, 129, 111, 130, 141, 130, 112, 133, 142, 138, 137, 143, 144, 145, 146, 147, 142, 133, 132, 148, 149, 120, 134, 150, 135, 121, 135, 151, 136, 122, 136, 143, 137, 134, 128, 140, 150, 140, 129, 141, 152, 141, 130, 142, 147, 136, 151, 144, 143, 151, 153, 145, 144, 153, 152, 146, 145, 152, 141, 147, 146, 135, 150, 153, 151, 150, 140, 152, 153, 154, 155, 156, 157, 158, 154, 157, 159, 155, 154, 160, 161, 155, 162, 163, 156, 164, 157, 156, 165, 166, 158, 159, 167, 154, 158, 168, 160, 157, 164, 169, 159, 155, 161, 170, 171, 172, 161, 160, 162, 155, 170, 173, 162, 174, 175, 163, 163, 176, 165, 156, 172, 171, 164, 165, 174, 166, 167, 175, 158, 166, 177, 178, 159, 169, 179, 167, 158, 180, 181, 168, 182, 171, 160, 168, 171, 182, 169, 164, 161, 172, 170, 162, 173, 183, 172, 184, 173, 170, 174, 162, 183, 185, 175, 186, 176, 163, 184, 172, 165, 176, 166, 174, 185, 187, 186, 175, 167, 179, 180, 158, 178, 188, 166, 189, 190, 177, 178, 177, 191, 192, 182, 193, 179, 169, 180, 194, 195, 181, 97, 182, 168, 181, 117, 98, 173, 184, 183, 184, 196, 185, 183, 196, 184, 176, 186, 189, 166, 187, 197, 196, 193, 187, 185, 193, 196, 186, 179, 194, 180, 188, 198, 116, 188, 178, 192, 96, 95, 189, 199, 200, 190, 190, 125, 108, 107, 191, 177, 193, 182, 192, 191, 194, 201, 195, 117, 181, 195, 131, 118, 96, 192, 182, 97, 199, 189, 197, 202, 193, 106, 105, 124, 197, 187, 199, 194, 198, 200, 115, 198, 188, 116, 125, 190, 200, 126, 106, 193, 191, 107, 194, 199, 203, 201, 201, 148, 132, 131, 195, 203, 199, 202, 139, 202, 197, 124, 123, 198, 115, 114, 127, 126, 200, 148, 201, 203, 149, 203, 202, 139, 138, 149, 44, 23, 209, 211, 62, 50, 212, 214, 35, 50, 212, 210, 23, 11, 207, 209, 6, 16, 208, 206, 11, 3, 205, 207, 61, 62, 214, 213, 61, 44, 211, 213, 0, 6, 206, 204, 16, 35, 210, 208, 3, 0, 204, 205]
            rel material:binding = </root/_materials/Material_001>
            normal3f[] normals = [(0.28173256, 0.95949304, 0), (0.28173256, 0.95949304, 0), (0.28173256, 0.95949304, 0), (0.28173256, 0.95949304, 0), (0.14487474, 0.4933984, -0.8576533), (0.14487474, 0.4933984, -0.8576533), (0.14487474, 0.4933984, -0.8576533), (0.14487474, 0.4933984, -0.8576533), (-0.28173268, 0.9594929, 0), (-0.28173268, 0.9594929, 0), (-0.28173268, 0.9594929, 0), (-0.28173268, 0.9594929, 0), (0.2633679, 0.89694846, 0.35513476), (0.2633679, 0.89694846, 0.35513476), (0.2633679, 0.89694846, 0.35513476), (0.2633679, 0.89694846, 0.35513476), (0.75574964, 0.6548607, 0), (0.75574964, 0.6548607, 0), (0.75574964, 0.6548607, 0), (0.75574964, 0.6548607, 0), (-0.14487489, 0.4933987, -0.8576532), (-0.14487489, 0.4933987, -0.8576532), (-0.14487489, 0.4933987, -0.8576532), (-0.14487489, 0.4933987, -0.8576532), (0.388628, 0.33674803, -0.8576532), (0.388628, 0.33674803, -0.8576532), (0.388628, 0.33674803, -0.8576532), (0.388628, 0.33674803, -0.8576532), (0.23342453, 0.79497164, -0.5599403), (0.23342453, 0.79497164, -0.5599403), (0.23342453, 0.79497164, -0.5599403), (0.23342453, 0.79497164, -0.5599403), (-0.7557494, 0.654861, 0), (-0.7557494, 0.654861, 0), (-0.7557494, 0.654861, 0), (-0.7557494, 0.654861, 0), (-0.263368, 0.89694875, 0.355134), (-0.263368, 0.89694875, 0.355134), (-0.263368, 0.89694875, 0.355134), (-0.263368, 0.89694875, 0.355134), (0.7064863, 0.61217356, 0.3551347), (0.7064863, 0.61217356, 0.3551347), (0.7064863, 0.61217356, 0.3551347), (0.7064863, 0.61217356, 0.3551347), (0.24732457, 0.8423095, 0.47889996), (0.24732457, 0.8423095, 0.47889996), (0.24732457, 0.8423095, 0.47889996), (0.24732457, 0.8423095, 0.47889996), (0.9898215, 0.14231485, 0), (0.9898215, 0.14231485, 0), (0.9898215, 0.14231485, 0), (0.9898215, 0.14231485, 0), (-0.388628, 0.33674818, -0.8576531), (-0.388628, 0.33674818, -0.8576531), (-0.388628, 0.33674818, -0.8576531), (-0.388628, 0.33674818, -0.8576531), (-0.23342451, 0.79497135, -0.5599407), (-0.23342451, 0.79497135, -0.5599407), (-0.23342451, 0.79497135, -0.5599407), (-0.23342451, 0.79497135, -0.5599407), (0.50899446, 0.07318231, -0.8576532), (0.50899446, 0.07318231, -0.8576532), (0.50899446, 0.07318231, -0.8576532), (0.50899446, 0.07318231, -0.8576532), (0.62616307, 0.5425733, -0.5599412), (0.62616307, 0.5425733, -0.5599412), (0.62616307, 0.5425733, -0.5599412), (0.62616307, 0.5425733, -0.5599412), (-3.4791752e-9, 0, -1), (-3.4791752e-9, 0, -1), (-3.4791752e-9, 0, -1), (-3.4791752e-9, 0, -1), (-3.4791752e-9, 0, -1), (-3.4791752e-9, 0, -1), (-3.4791752e-9, 0, -1), (-3.4791752e-9, 0, -1), (-3.4791752e-9, 0, -1), (-3.4791752e-9, 0, -1), (-3.4791752e-9, 0, -1), (-0.98982143, 0.14231502, 0), (-0.98982143, 0.14231502, 0), (-0.98982143, 0.14231502, 0), (-0.98982143, 0.14231502, 0), (-0.7064862, 0.61217386, 0.35513422), (-0.7064862, 0.61217386, 0.35513422), (-0.7064862, 0.61217386, 0.35513422), (-0.7064862, 0.61217386, 0.35513422), (-0.2473246, 0.8423095, 0.47890002), (-0.2473246, 0.8423095, 0.47890002), (-0.2473246, 0.8423095, 0.47890002), (-0.2473246, 0.8423095, 0.47890002), (0.9253004, 0.13303784, 0.35513404), (0.9253004, 0.13303784, 0.35513404), (0.9253004, 0.13303784, 0.35513404), (0.9253004, 0.13303784, 0.35513404), (0.6634496, 0.57488215, 0.47890002), (0.6634496, 0.57488215, 0.47890002), (0.6634496, 0.57488215, 0.47890002), (0.6634496, 0.57488215, 0.47890002), (0.22614785, 0.77019334, -0.59637195), (0.22614785, 0.77019334, -0.59637195), (0.22614785, 0.77019334, -0.59637195), (0.22614785, 0.77019334, -0.59637195), (0.90963197, -0.41541514, 0), (0.90963197, -0.41541514, 0), (0.90963197, -0.41541514, 0), (0.90963197, -0.41541514, 0), (-0.50899416, 0.07318239, -0.8576534), (-0.50899416, 0.07318239, -0.8576534), (-0.50899416, 0.07318239, -0.8576534), (-0.50899416, 0.07318239, -0.8576534), (-0.6261628, 0.54257303, -0.55994153), (-0.6261628, 0.54257303, -0.55994153), (-0.6261628, 0.54257303, -0.55994153), (-0.6261628, 0.54257303, -0.55994153), (0.46775877, -0.21361834, -0.85765326), (0.46775877, -0.21361834, -0.85765326), (0.46775877, -0.21361834, -0.85765326), (0.46775877, -0.21361834, -0.85765326), (0.8200991, 0.11791245, -0.559941), (0.8200991, 0.11791245, -0.559941), (0.8200991, 0.11791245, -0.559941), (0.8200991, 0.11791245, -0.559941), (0.7536596, -0.34418488, -0.55994093), (0.7536596, -0.34418488, -0.55994093), (0.7536596, -0.34418488, -0.55994093), (0.7536596, -0.34418488, -0.55994093), (0.44793802, -0.69700605, -0.5599411), (0.44793802, -0.69700605, -0.5599411), (0.44793802, -0.69700605, -0.5599411), (0.44793802, -0.69700605, -0.5599411), (-8.908375e-8, -0.8285327, -0.5599407), (-8.908375e-8, -0.8285327, -0.5599407), (-8.908375e-8, -0.8285327, -0.5599407), (-8.908375e-8, -0.8285327, -0.5599407), (-0.4479385, -0.6970057, -0.5599411), (-0.4479385, -0.6970057, -0.5599411), (-0.4479385, -0.6970057, -0.5599411), (-0.4479385, -0.6970057, -0.5599411), (-0.75365967, -0.3441845, -0.5599411), (-0.75365967, -0.3441845, -0.5599411), (-0.75365967, -0.3441845, -0.5599411), (-0.75365967, -0.3441845, -0.5599411), (-0.8200989, 0.117912546, -0.5599414), (-0.8200989, 0.117912546, -0.5599414), (-0.8200989, 0.117912546, -0.5599414), (-0.8200989, 0.117912546, -0.5599414), (-0.909632, -0.41541493, 0), (-0.909632, -0.41541493, 0), (-0.909632, -0.41541493, 0), (-0.909632, -0.41541493, 0), (-0.9253002, 0.13303806, 0.35513446), (-0.9253002, 0.13303806, 0.35513446), (-0.9253002, 0.13303806, 0.35513446), (-0.9253002, 0.13303806, 0.35513446), (-0.6634491, 0.57488257, 0.47890005), (-0.6634491, 0.57488257, 0.47890005), (-0.6634491, 0.57488257, 0.47890005), (-0.6634491, 0.57488257, 0.47890005), (-0.22614712, 0.77019083, -0.5963753), (-0.22614712, 0.77019083, -0.5963753), (-0.22614712, 0.77019083, -0.5963753), (-0.22614712, 0.77019083, -0.5963753), (0.8503379, -0.38833603, 0.35513452), (0.8503379, -0.38833603, 0.35513452), (0.8503379, -0.38833603, 0.35513452), (0.8503379, -0.38833603, 0.35513452), (0.8689339, 0.12493371, 0.4789003), (0.8689339, 0.12493371, 0.4789003), (0.8689339, 0.12493371, 0.4789003), (0.8689339, 0.12493371, 0.4789003), (0.6066433, 0.52566177, -0.59637547), (0.6066433, 0.52566177, -0.59637547), (0.6066433, 0.52566177, -0.59637547), (0.6066433, 0.52566177, -0.59637547), (0.2815438, 0.9588489, -0.036632046), (0.2815438, 0.9588489, -0.036632046), (0.2815438, 0.9588489, -0.036632046), (0.2815438, 0.9588489, -0.036632046), (0.5406407, -0.84125364, 0), (0.5406407, -0.84125364, 0), (0.5406407, -0.84125364, 0), (0.5406407, -0.84125364, 0), (-0.4677586, -0.21361811, -0.85765326), (-0.4677586, -0.21361811, -0.85765326), (-0.4677586, -0.21361811, -0.85765326), (-0.4677586, -0.21361811, -0.85765326), (0.27801278, -0.43259653, -0.8576533), (0.27801278, -0.43259653, -0.8576533), (0.27801278, -0.43259653, -0.8576533), (0.27801278, -0.43259653, -0.8576533), (-7.57534e-8, -0.5142282, -0.85765344), (-7.57534e-8, -0.5142282, -0.85765344), (-7.57534e-8, -0.5142282, -0.85765344), (-7.57534e-8, -0.5142282, -0.85765344), (-0.27801287, -0.4325962, -0.8576533), (-0.27801287, -0.4325962, -0.8576533), (-0.27801287, -0.4325962, -0.8576533), (-0.27801287, -0.4325962, -0.8576533), (-0.5406411, -0.84125334, 0), (-0.5406411, -0.84125334, 0), (-0.5406411, -0.84125334, 0), (-0.5406411, -0.84125334, 0), (-0.8503376, -0.38833648, 0.3551348), (-0.8503376, -0.38833648, 0.3551348), (-0.8503376, -0.38833648, 0.3551348), (-0.8503376, -0.38833648, 0.3551348), (-0.8689339, 0.12493394, 0.47890025), (-0.8689339, 0.12493394, 0.47890025), (-0.8689339, 0.12493394, 0.47890025), (-0.8689339, 0.12493394, 0.47890025), (-0.60664326, 0.5256619, -0.5963754), (-0.60664326, 0.5256619, -0.5963754), (-0.60664326, 0.5256619, -0.5963754), (-0.60664326, 0.5256619, -0.5963754), (-0.28154382, 0.95884883, -0.036632046), (-0.28154382, 0.95884883, -0.036632046), (-0.28154382, 0.95884883, -0.036632046), (-0.28154382, 0.95884883, -0.036632046), (0.505399, -0.78641653, 0.35513526), (0.505399, -0.78641653, 0.35513526), (0.505399, -0.78641653, 0.35513526), (0.505399, -0.78641653, 0.35513526), (0.79853857, -0.36467987, 0.4788994), (0.79853857, -0.36467987, 0.4788994), (0.79853857, -0.36467987, 0.4788994), (0.79853857, -0.36467987, 0.4788994), (0.79453313, 0.114237614, -0.596378), (0.79453313, 0.114237614, -0.596378), (0.79453313, 0.114237614, -0.596378), (0.79453313, 0.114237614, -0.596378), (0.7552424, 0.654421, -0.036632493), (0.7552424, 0.654421, -0.036632493), (0.7552424, 0.654421, -0.036632493), (0.7552424, 0.654421, -0.036632493), (-4.1140478e-7, 0, 1), (8.2280945e-7, 0, 1), (8.2280945e-7, 0, 1), (-4.1140322e-7, 0, 1), (-1.6917002e-7, -1, 0), (-1.6917002e-7, -1, 0), (-1.6917002e-7, -1, 0), (-1.6917002e-7, -1, 0), (-0.5053998, -0.78641623, 0.35513473), (-0.5053998, -0.78641623, 0.35513473), (-0.5053998, -0.78641623, 0.35513473), (-0.5053998, -0.78641623, 0.35513473), (-0.7985383, -0.36467993, 0.47890002), (-0.7985383, -0.36467993, 0.47890002), (-0.7985383, -0.36467993, 0.47890002), (-0.7985383, -0.36467993, 0.47890002), (-0.79454076, 0.114235826, -0.5963684), (-0.79454076, 0.114235826, -0.5963684), (-0.79454076, 0.114235826, -0.5963684), (-0.79454076, 0.114235826, -0.5963684), (-0.7552423, 0.6544212, -0.036632054), (-0.7552423, 0.6544212, -0.036632054), (-0.7552423, 0.6544212, -0.036632054), (-0.7552423, 0.6544212, -0.036632054), (8.2280945e-7, 0, 1), (-4.1140513e-7, 0, 1), (-4.1140407e-7, 0, 1), (8.2280945e-7, 0, 1), (0, -0.9348151, 0.35513484), (0, -0.9348151, 0.35513484), (0, -0.9348151, 0.35513484), (0, -0.9348151, 0.35513484), (0.4746128, -0.73851067, 0.4788995), (0.4746128, -0.73851067, 0.4788995), (0.4746128, -0.73851067, 0.4788995), (0.4746128, -0.73851067, 0.4788995), (0.73016566, -0.33345705, -0.5963762), (0.73016566, -0.33345705, -0.5963762), (0.73016566, -0.33345705, -0.5963762), (0.73016566, -0.33345705, -0.5963762), (0.9891571, 0.14221923, -0.036632206), (0.9891571, 0.14221923, -0.036632206), (0.9891571, 0.14221923, -0.036632206), (0.9891571, 0.14221923, -0.036632206), (-8.2280866e-7, 0, 1), (-4.1140478e-7, 0, 1), (-4.1140322e-7, 0, 1), (-8.2280883e-7, 0, 1), (-0.19796686, -0.6742095, 0.7115129), (-0.19796686, -0.6742095, 0.7115129), (-0.19796686, -0.6742095, 0.7115129), (-0.19796686, -0.6742095, 0.7115129), (-0.47461212, -0.7385109, 0.47889972), (-0.47461212, -0.7385109, 0.47889972), (-0.47461212, -0.7385109, 0.47889972), (-0.47461212, -0.7385109, 0.47889972), (-0.73017085, -0.33345467, -0.5963711), (-0.73017085, -0.33345467, -0.5963711), (-0.73017085, -0.33345467, -0.5963711), (-0.73017085, -0.33345467, -0.5963711), (-0.98915696, 0.14221993, -0.03663229), (-0.98915696, 0.14221993, -0.03663229), (-0.98915696, 0.14221993, -0.03663229), (-0.98915696, 0.14221993, -0.03663229), (-4.1140513e-7, 0, 1), (-8.22809e-7, 0, 1), (-8.2280894e-7, 0, 1), (-4.1140407e-7, 0, 1), (0.19796614, -0.67421, 0.71151274), (0.19796614, -0.67421, 0.71151274), (0.19796614, -0.67421, 0.71151274), (0.19796614, -0.67421, 0.71151274), (-1.7161877e-7, -0.8778698, 0.4788993), (-1.7161877e-7, -0.8778698, 0.4788993), (-1.7161877e-7, -0.8778698, 0.4788993), (-1.7161877e-7, -0.8778698, 0.4788993), (0.4339764, -0.6752808, -0.59637254), (0.4339764, -0.6752808, -0.59637254), (0.4339764, -0.6752808, -0.59637254), (0.4339764, -0.6752808, -0.59637254), (0.90902144, -0.41513604, -0.036632694), (0.90902144, -0.41513604, -0.036632694), (0.90902144, -0.41513604, -0.036632694), (0.90902144, -0.41513604, -0.036632694), (0, 0, 1), (-8.2280866e-7, 0, 1), (-8.2280883e-7, 0, 1), (0, 0, 1), (-0.53104454, -0.4601528, 0.7115132), (-0.53104454, -0.4601528, 0.7115132), (-0.53104454, -0.4601528, 0.7115132), (-0.53104454, -0.4601528, 0.7115132), (6.985225e-7, 3.1442303e-7, 1), (4.3146795e-8, 3.4330492e-7, 1), (4.3146695e-8, 3.433049e-7, 1), (6.328185e-7, 3.4330495e-7, 1), (6.328185e-7, 3.4330495e-7, 1), (6.328185e-7, 3.4330495e-7, 1), (6.328185e-7, 3.4330495e-7, 1), (7.2693643e-7, 3.019329e-7, 1), (-0.4339762, -0.6752801, -0.5963736), (-0.4339762, -0.6752801, -0.5963736), (-0.4339762, -0.6752801, -0.5963736), (-0.4339762, -0.6752801, -0.5963736), (-0.9090215, -0.41513595, -0.036632806), (-0.9090215, -0.41513595, -0.036632806), (-0.9090215, -0.41513595, -0.036632806), (-0.9090215, -0.41513595, -0.036632806), (-8.22809e-7, 0, 1), (8.228091e-7, 0, 1), (8.228092e-7, 0, 1), (-8.2280894e-7, 0, 1), (0.5310458, -0.46015257, 0.7115125), (0.5310458, -0.46015257, 0.7115125), (0.5310458, -0.46015257, 0.7115125), (0.5310458, -0.46015257, 0.7115125), (4.3146795e-8, 3.4330492e-7, 1), (-6.46594e-7, 3.14423e-7, 1), (-6.8986935e-7, 3.0193291e-7, 1), (-5.4652503e-7, 3.4330486e-7, 1), (-5.4652503e-7, 3.4330486e-7, 1), (-5.4652503e-7, 3.4330486e-7, 1), (-5.4652503e-7, 3.4330486e-7, 1), (4.3146695e-8, 3.433049e-7, 1), (-1.631245e-7, -0.8027084, -0.5963717), (-1.631245e-7, -0.8027084, -0.5963717), (-1.631245e-7, -0.8027084, -0.5963717), (-1.631245e-7, -0.8027084, -0.5963717), (0.5402773, -0.84068924, -0.03663466), (0.5402773, -0.84068924, -0.03663466), (0.5402773, -0.84068924, -0.03663466), (0.5402773, -0.84068924, -0.03663466), (0, 0, 1), (0, 0, 1), (0, 0, 1), (0, 0, 1), (-0.6955211, -0.100000784, 0.7115126), (-0.6955211, -0.100000784, 0.7115126), (-0.6955211, -0.100000784, 0.7115126), (-0.6955211, -0.100000784, 0.7115126), (5.598661e-7, 2.146388e-7, 1), (6.985225e-7, 3.1442303e-7, 1), (7.2693643e-7, 3.019329e-7, 1), (2.874632e-7, 1.5036612e-7, 1), (-0.07119826, -0.24248073, 0.9675402), (-0.07119826, -0.24248073, 0.9675402), (-0.07119826, -0.24248073, 0.9675402), (-0.07119826, -0.24248073, 0.9675402), (-0.07119826, -0.24248073, 0.9675402), (-0.07119826, -0.24248073, 0.9675402), (-0.07119307, -0.24248172, 0.96754026), (-0.07119307, -0.24248172, 0.96754026), (-0.07119307, -0.24248172, 0.96754026), (-0.07119307, -0.24248172, 0.96754026), (-0.5402787, -0.8406884, -0.036632475), (-0.5402787, -0.8406884, -0.036632475), (-0.5402787, -0.8406884, -0.036632475), (-0.5402787, -0.8406884, -0.036632475), (8.228091e-7, 0, 1), (8.2280894e-7, 0, 1), (8.228093e-7, 0, 1), (8.228092e-7, 0, 1), (0.6955214, -0.10000083, 0.7115124), (0.6955214, -0.10000083, 0.7115124), (0.6955214, -0.10000083, 0.7115124), (0.6955214, -0.10000083, 0.7115124), (-6.46594e-7, 3.14423e-7, 1), (-7.823625e-7, 2.1463886e-7, 1), (-7.6468194e-7, 1.5036628e-7, 1), (-6.8986935e-7, 3.0193291e-7, 1), (0.071196854, -0.2424815, 0.9675401), (0.071196854, -0.2424815, 0.9675401), (0.071196854, -0.2424815, 0.9675401), (0.071196854, -0.2424815, 0.9675401), (0.07119884, -0.24248073, 0.9675401), (0.07119884, -0.24248073, 0.9675401), (0.07119884, -0.24248073, 0.9675401), (0.07119884, -0.24248073, 0.9675401), (0.07119884, -0.24248073, 0.9675401), (0.07119884, -0.24248073, 0.9675401), (-1.9128184e-7, -0.9993287, -0.03663378), (-1.9128184e-7, -0.9993287, -0.03663378), (-1.9128184e-7, -0.9993287, -0.03663378), (-1.9128184e-7, -0.9993287, -0.03663378), (-6.5254284e-8, 0, 1), (0, 0, 1), (0, 0, 1), (-6.525429e-8, 0, 1), (-0.6391739, 0.29190075, 0.7115129), (-0.6391739, 0.29190075, 0.7115129), (-0.6391739, 0.29190075, 0.7115129), (-0.6391739, 0.29190075, 0.7115129), (4.049436e-7, -2.1428166e-8, 1), (5.598661e-7, 2.146388e-7, 1), (2.874632e-7, 1.5036612e-7, 1), (0.0000014049051, -2.7816566e-7, 1), (-0.1909928, -0.1654946, 0.9675398), (-0.1909928, -0.1654946, 0.9675398), (-0.1909928, -0.1654946, 0.9675398), (-0.1909928, -0.1654946, 0.9675398), (-0.1909928, -0.1654946, 0.9675398), (-0.1909928, -0.1654946, 0.9675398), (0, 0, 1), (0, 0, 1), (0, 0, 1), (8.2280894e-7, 0, 1), (-6.5254284e-8, 0, 1), (-6.5254284e-8, 0, 1), (8.228093e-7, 0, 1), (0.639173, 0.29190096, 0.71151376), (0.639173, 0.29190096, 0.71151376), (0.639173, 0.29190096, 0.71151376), (0.639173, 0.29190096, 0.71151376), (-7.823625e-7, 2.1463886e-7, 1), (-5.9434177e-7, -2.1428017e-8, 1), (-2.1978036e-7, -2.7816574e-7, 1), (-7.6468194e-7, 1.5036628e-7, 1), (0.19099174, -0.16549473, 0.9675399), (0.19099174, -0.16549473, 0.9675399), (0.19099174, -0.16549473, 0.9675399), (0.19099174, -0.16549473, 0.9675399), (0.19099174, -0.16549473, 0.9675399), (0.19099174, -0.16549473, 0.9675399), (-6.5254284e-8, 0, 1), (-6.5254284e-8, 0, 1), (-6.525429e-8, 0, 1), (-6.5254284e-8, 0, 1), (-0.37989348, 0.59112585, 0.71151334), (-0.37989348, 0.59112585, 0.71151334), (-0.37989348, 0.59112585, 0.71151334), (-0.37989348, 0.59112585, 0.71151334), (0.0000017435568, -6.4274053e-7, 1), (4.049436e-7, -2.1428166e-8, 1), (0.0000014049051, -2.7816566e-7, 1), (4.7818884e-7, -0.0000017338632, 1), (-0.25014573, -0.035965376, 0.96753997), (-0.25014573, -0.035965376, 0.96753997), (-0.25014573, -0.035965376, 0.96753997), (-0.25014573, -0.035965376, 0.96753997), (6.580404e-7, 0, 0.99999994), (6.580404e-7, 0, 0.99999994), (6.580404e-7, 0, 0.99999994), (6.580404e-7, 0, 0.99999994), (6.580404e-7, 0, 0.99999994), (6.580404e-7, 0, 0.99999994), (6.580404e-7, 0, 0.99999994), (6.580404e-7, 0, 0.99999994), (6.580404e-7, 0, 0.99999994), (6.580404e-7, 0, 0.99999994), (6.580404e-7, 0, 0.99999994), (6.580404e-7, 0, 0.99999994), (0.37989506, 0.59112537, 0.71151286), (0.37989506, 0.59112537, 0.71151286), (0.37989506, 0.59112537, 0.71151286), (0.37989506, 0.59112537, 0.71151286), (-5.9434177e-7, -2.1428017e-8, 1), (-2.0438695e-7, -6.427403e-7, 1), (-0.0000012468382, -0.0000017338613, 1), (-2.1978036e-7, -2.7816574e-7, 1), (0.25014573, -0.035965566, 0.96753997), (0.25014573, -0.035965566, 0.96753997), (0.25014573, -0.035965566, 0.96753997), (0.25014573, -0.035965566, 0.96753997), (1.7101778e-8, 0.7026721, 0.71151376), (1.7101778e-8, 0.7026721, 0.71151376), (1.7101778e-8, 0.7026721, 0.71151376), (1.7101778e-8, 0.7026721, 0.71151376), (0, -0.0000026573894, 1), (0.0000017435568, -6.4274053e-7, 1), (4.7818884e-7, -0.0000017338632, 1), (0, -0.0000047580065, 1), (-0.2298798, 0.10498258, 0.9675401), (-0.2298798, 0.10498258, 0.9675401), (-0.2298798, 0.10498258, 0.9675401), (-0.2298798, 0.10498258, 0.9675401), (0.22987995, 0.10498268, 0.96754014), (0.22987995, 0.10498268, 0.96754014), (0.22987995, 0.10498268, 0.96754014), (0.22987995, 0.10498268, 0.96754014), (0.13662827, 0.21259944, 0.96754026), (0.13662827, 0.21259944, 0.96754026), (0.13662827, 0.21259944, 0.96754026), (0.13662827, 0.21259944, 0.96754026), (0, 0.25271755, 0.96754014), (0, 0.25271755, 0.96754014), (0, 0.25271755, 0.96754014), (0, 0.25271755, 0.96754014), (-0.13662772, 0.21259956, 0.9675403), (-0.13662772, 0.21259956, 0.9675403), (-0.13662772, 0.21259956, 0.9675403), (-0.13662772, 0.21259956, 0.9675403), (-2.0438695e-7, -6.427403e-7, 1), (-0.0000014014827, -0.0000026573855, 1), (-4.1811273e-7, -0.000004758006, 1), (-0.0000012468382, -0.0000017338613, 1), (-0.0000014014827, -0.0000026573855, 1), (0, -0.0000026573894, 1), (0, -0.0000047580065, 1), (-4.1811273e-7, -0.000004758006, 1), (-0.38229308, -0.19567478, 0.90308553), (-0.38229325, -0.19507651, 0.90321493), (-0.38229325, -0.19507651, 0.90321493), (-0.382293, -0.1957936, 0.9030598), (-0.38229266, -0.19639888, 0.9029285), (-0.38229308, -0.19567478, 0.90308553), (-0.382293, -0.1957936, 0.9030598), (-0.38229266, -0.19639888, 0.9029285), (0.5495744, -0.21396981, 0.80757976), (0.5495744, -0.21396981, 0.80757976), (0.5495744, -0.21396981, 0.80757976), (0.5495744, -0.21396981, 0.80757976), (0, -0.54344743, 0.83944327), (0, -0.54344743, 0.83944327), (0, -0.54344743, 0.83944327), (0, -0.54344743, 0.83944327), (-0.9990682, 0.04218928, 0.009096352), (-0.9990682, 0.04218928, 0.009096352), (-0.9990682, 0.04218928, 0.009096352), (-0.9990682, 0.04218928, 0.009096352), (0, 0.049294036, 0.9987843), (0, 0.049294036, 0.9987843), (0, 0.049294036, 0.9987843), (0, 0.049294036, 0.9987843), (0.5394595, -0.36304048, 0.75972694), (0.5394595, -0.36304048, 0.75972694), (0.5394595, -0.36304048, 0.75972694), (0.5394595, -0.36304048, 0.75972694), (-0.97663754, 0.21006617, 0.045291763), (-0.97663754, 0.21006617, 0.045291763), (-0.97663754, 0.21006617, 0.045291763), (-0.97663754, 0.21006617, 0.045291763), (0.4819117, 0.3168533, 0.8169242), (0.4819117, 0.3168533, 0.8169242), (0.4819117, 0.3168533, 0.8169242), (0.50060594, 0.14638522, -0.8532088), (0.50060594, 0.14638522, -0.8532088), (0.50060594, 0.14638522, -0.8532088), (0.50060594, 0.14638522, -0.8532088), (0, 0.36161357, 0.9323281), (0, 0.36161357, 0.9323281), (0, 0.36161357, 0.9323281), (0, 0.36161357, 0.9323281), (0.38229313, -0.19507645, 0.90321493), (0.38229302, -0.19567478, 0.90308553), (0.382293, -0.19579363, 0.90305984), (0.38229313, -0.19507645, 0.90321493), (0, -0.977537, -0.21076398), (0, -0.977537, -0.21076398), (0, -0.977537, -0.21076398), (0, -0.977537, -0.21076398), (-0.38134202, 0.1951598, -0.9035989), (-0.38134527, 0.19575825, -0.903468), (-0.3813459, 0.1958763, -0.9034422), (-0.38134202, 0.1951598, -0.9035989), (0.38229302, -0.19567478, 0.90308553), (0.38229266, -0.19639896, 0.9029285), (0.38229266, -0.19639896, 0.9029285), (0.382293, -0.19579363, 0.90305984), (0, -0.456459, 0.8897445), (0, -0.456459, 0.8897445), (0, -0.456459, 0.8897445), (0, -0.456459, 0.8897445), (0, 0.97753704, 0.21076368), (0, 0.97753704, 0.21076368), (0, 0.97753704, 0.21076368), (0, 0.97753704, 0.21076368), (0.53876495, 0.024099601, 0.8421114), (0.53876495, 0.024099601, 0.8421114), (0.53876495, 0.024099601, 0.8421114), (0.53876495, 0.024099601, 0.8421114), (0.49239096, -0.00058068516, -0.870374), (0.49239096, -0.00058068516, -0.870374), (0.49239096, -0.00058068516, -0.870374), (0.49239096, -0.00058068516, -0.870374), (-0.38134527, 0.19575825, -0.903468), (-0.3813491, 0.19648172, -0.90330946), (-0.3813491, 0.19648172, -0.90330946), (-0.3813459, 0.1958763, -0.9034422), (0.44789246, 0.6009191, -0.66203374), (0.44789246, 0.6009191, -0.66203374), (0.44789246, 0.6009191, -0.66203374), (-0.4819117, 0.3168533, 0.8169242), (-0.4819117, 0.3168533, 0.8169242), (-0.4819117, 0.3168533, 0.8169242), (0, 0.67210346, -0.7404573), (0, 0.67210346, -0.7404573), (0, 0.67210346, -0.7404573), (0, 0.67210346, -0.7404573), (-0.54957443, -0.21396983, 0.80757964), (-0.54957443, -0.21396983, 0.80757964), (-0.54957443, -0.21396983, 0.80757964), (-0.54957443, -0.21396983, 0.80757964), (0.9990682, 0.04218928, 0.009096352), (0.9990682, 0.04218928, 0.009096352), (0.9990682, 0.04218928, 0.009096352), (0.9990682, 0.04218928, 0.009096352), (0, -0.147694, -0.98903304), (0, -0.147694, -0.98903304), (0, -0.147694, -0.98903304), (0, -0.147694, -0.98903304), (-0.5394595, -0.36304042, 0.75972694), (-0.5394595, -0.36304042, 0.75972694), (-0.5394595, -0.36304042, 0.75972694), (-0.5394595, -0.36304042, 0.75972694), (0.97663754, 0.210066, 0.045291763), (0.97663754, 0.210066, 0.045291763), (0.97663754, 0.210066, 0.045291763), (0.97663754, 0.210066, 0.045291763), (-0.38232616, -0.19384073, 0.90346694), (-0.3823305, -0.19305946, 0.90363234), (-0.3823305, -0.19305946, 0.90363234), (-0.3823269, -0.19371271, 0.9034941), (0.38233054, -0.1930595, 0.9036323), (0.38232633, -0.19384074, 0.9034668), (0.38232702, -0.19371273, 0.903494), (0.38233054, -0.1930595, 0.9036323), (0, -0.977537, -0.21076411), (0, -0.977537, -0.21076411), (0, -0.977537, -0.21076411), (0, -0.977537, -0.21076411), (0, 0.45884082, -0.8885185), (0, 0.45884082, -0.8885185), (0, 0.45884082, -0.8885185), (0, 0.45884082, -0.8885185), (0.5497078, -0.14436135, 0.82278866), (0.5497078, -0.14436135, 0.82278866), (0.5497078, -0.14436135, 0.82278866), (0.5497078, -0.14436135, 0.82278866), (0.49182203, 0.36479783, -0.7905906), (0.49182203, 0.36479783, -0.7905906), (0.49182203, 0.36479783, -0.7905906), (0.49182203, 0.36479783, -0.7905906), (0.49182203, 0.36479783, -0.7905906), (0.49182203, 0.36479783, -0.7905906), (-0.44789204, 0.6009193, -0.6620338), (-0.44789204, 0.6009193, -0.6620338), (-0.44789204, 0.6009193, -0.6620338), (-0.500606, 0.1463852, -0.85320866), (-0.500606, 0.1463852, -0.85320866), (-0.500606, 0.1463852, -0.85320866), (-0.500606, 0.1463852, -0.85320866), (0.38134533, 0.19575825, -0.90346795), (0.38134202, 0.1951598, -0.9035989), (0.38134202, 0.1951598, -0.9035989), (0.38134596, 0.1958763, -0.90344214), (-0.53876495, 0.024099601, 0.8421113), (-0.53876495, 0.024099601, 0.8421113), (-0.53876495, 0.024099601, 0.8421113), (-0.53876495, 0.024099601, 0.8421113), (-0.49239096, -0.00058068516, -0.870374), (-0.49239096, -0.00058068516, -0.870374), (-0.49239096, -0.00058068516, -0.870374), (-0.49239096, -0.00058068516, -0.870374), (0.3813491, 0.19648167, -0.9033093), (0.38134533, 0.19575825, -0.90346795), (0.38134596, 0.1958763, -0.90344214), (0.3813491, 0.19648167, -0.9033093), (-0.3823224, -0.19448559, 0.9033299), (-0.38232616, -0.19384073, 0.90346694), (-0.3823269, -0.19371271, 0.9034941), (-0.3823224, -0.19448559, 0.9033299), (-0.97510034, -0.21678276, -0.046739865), (-0.97510034, -0.21678276, -0.046739865), (-0.97510034, -0.21678276, -0.046739865), (-0.97510034, -0.21678276, -0.046739865), (-0.97510034, -0.21678276, -0.046739865), (-0.97510034, -0.21678276, -0.046739865), (0.38232633, -0.19384074, 0.9034668), (0.38232264, -0.19448559, 0.9033298), (0.38232264, -0.19448559, 0.9033298), (0.38232702, -0.19371273, 0.903494), (0.9751001, -0.2167836, -0.046740007), (0.9751001, -0.2167836, -0.046740007), (0.9751001, -0.2167836, -0.046740007), (0.9751001, -0.2167836, -0.046740007), (0.9751001, -0.2167836, -0.046740007), (0.9751001, -0.2167836, -0.046740007), (0, -0.0519689, -0.99864876), (0, -0.0519689, -0.99864876), (0, -0.0519689, -0.99864876), (0, -0.0519689, -0.99864876), (0.48191395, -0.62532425, 0.61378205), (0.48191395, -0.62532425, 0.61378205), (0.48191395, -0.62532425, 0.61378205), (0.50070876, 0.21209389, -0.83922994), (0.50070876, 0.21209389, -0.83922994), (0.50070876, 0.21209389, -0.83922994), (0.50070876, 0.21209389, -0.83922994), (0.50070876, 0.21209389, -0.83922994), (-0.38129708, 0.19315311, -0.9040489), (-0.38129708, 0.19315311, -0.9040489), (-0.38129708, 0.19315311, -0.9040489), (-0.38129708, 0.19315311, -0.9040489), (-0.5497078, -0.14436127, 0.82278866), (-0.5497078, -0.14436127, 0.82278866), (-0.5497078, -0.14436127, 0.82278866), (-0.5497078, -0.14436127, 0.82278866), (-0.49182218, 0.36479804, -0.7905905), (-0.49182218, 0.36479804, -0.7905905), (-0.49182218, 0.36479804, -0.7905905), (-0.49182218, 0.36479804, -0.7905905), (-0.49182218, 0.36479804, -0.7905905), (-0.49182218, 0.36479804, -0.7905905), (0, 0.14924352, 0.9888005), (0, 0.14924352, 0.9888005), (0, 0.14924352, 0.9888005), (0, 0.14924352, 0.9888005), (-0.9993595, -0.034979228, -0.0075417487), (-0.9993595, -0.034979228, -0.0075417487), (-0.9993595, -0.034979228, -0.0075417487), (-0.9993595, -0.034979228, -0.0075417487), (0.99935955, -0.03497924, -0.007541756), (0.99935955, -0.03497924, -0.007541756), (0.99935955, -0.03497924, -0.007541756), (0.99935955, -0.03497924, -0.007541756), (0.38129225, 0.1931535, -0.9040509), (0.38129225, 0.1931535, -0.9040509), (0.38129225, 0.1931535, -0.9040509), (0.38129225, 0.1931535, -0.9040509), (0, -0.71366245, 0.70048964), (0, -0.71366245, 0.70048964), (0, -0.71366245, 0.70048964), (0, -0.71366245, 0.70048964), (0.44788665, -0.27473563, -0.85083365), (0.44788665, -0.27473563, -0.85083365), (0.44788665, -0.27473563, -0.85083365), (0.44788665, -0.27473563, -0.85083365), (0.44788665, -0.27473563, -0.85083365), (-0.48191428, -0.6253242, 0.61378187), (-0.48191428, -0.6253242, 0.61378187), (-0.48191428, -0.6253242, 0.61378187), (-0.50070995, 0.21209352, -0.8392294), (-0.50070995, 0.21209352, -0.8392294), (-0.50070995, 0.21209352, -0.8392294), (-0.50070995, 0.21209352, -0.8392294), (-0.50070995, 0.21209352, -0.8392294), (0, 0.977537, 0.21076372), (0, 0.977537, 0.21076372), (0, 0.977537, 0.21076372), (0, 0.977537, 0.21076372), (0, 0.977537, 0.21076372), (0, 0.977537, 0.21076372), (0, -0.30727974, -0.95161927), (0, -0.30727974, -0.95161927), (0, -0.30727974, -0.95161927), (0, -0.30727974, -0.95161927), (-0.4478871, -0.27473515, -0.8508336), (-0.4478871, -0.27473515, -0.8508336), (-0.4478871, -0.27473515, -0.8508336), (-0.4478871, -0.27473515, -0.8508336), (-0.4478871, -0.27473515, -0.8508336), (0, 0, 1), (0, 0, 1), (0, 0, 1), (0, 0, 1), (0, 0, 1), (0, 0, 1), (0, 0, 1), (0, 0, 1), (0, 0, 1), (0, 0, 1), (0, 0, 1), (0, 0, 1), (0, 0, 1), (0, 0, 1), (0, 0, 1), (0, 0, 1), (0, 0, 1), (0, 0, 1), (0, 0, 1), (0, 0, 1), (0, 0, 1), (0, 0, 1), (0, 0, 1), (0, 0, 1), (0, 0, 1), (0, 0, 1), (0, 0, 1), (0, 0, 1), (0, 0, 1), (0, 0, 1), (0, 0, 1), (0, 0, 1), (0, 0, 1), (0, 0, 1), (0, 0, 1), (0, 0, 1), (0, 0, 1), (0, 0, 1), (0, 0, 1), (0, 0, 1), (0, 0, 1), (0, 0, 1), (0, 0, 1), (0, 0, 1)] (
                interpolation = "faceVarying"
            )
            point3f[] points = [(-7.5795095e-9, 0.31265086, 0.052322656), (-7.5795095e-9, 0.31265086, 0.8315761), (0.16903183, 0.26301864, 0.8315761), (0.16903183, 0.26301864, 0.052322656), (0.14063269, 0.21882875, 0.022103488), (-1.1652739e-8, 0.26012218, 0.022103488), (-0.16903183, 0.2630186, 0.052322656), (-0.16903183, 0.2630186, 0.8315761), (-7.626078e-9, 0.2947099, 0.8768889), (0.15933222, 0.24792573, 0.8768889), (0.2843972, 0.12987985, 0.8315761), (0.2843972, 0.12987985, 0.052322656), (-0.14063272, 0.21882874, 0.022103488), (0.2366155, 0.108058654, 0.022103488), (0.1282404, 0.19954605, -0.010438949), (-1.3795264e-8, 0.23720083, -0.010438949), (-0.28439724, 0.12987988, 0.052322656), (-0.28439724, 0.12987988, 0.8315761), (-0.15933222, 0.24792571, 0.8768889), (0.26807755, 0.12242691, 0.8768889), (-7.625936e-9, 0.26894706, 0.92220163), (0.14540377, 0.22625266, 0.92220163), (0.3094685, -0.04449489, 0.8315761), (0.3094685, -0.04449489, 0.052322656), (-0.23661548, 0.108058706, 0.022103488), (-0.12824044, 0.19954604, -0.010438949), (0.2574745, -0.037019275, 0.022103488), (0.21576543, 0.098536775, -0.010438949), (0.23478645, -0.033757214, -0.010438949), (0.1792644, -0.15533352, -0.010438949), (0.06682713, -0.22759247, -0.010438949), (-0.066827245, -0.22759245, -0.010438949), (-0.17926446, -0.15533343, -0.010438949), (-0.23478645, -0.03375711, -0.010438949), (-0.2157654, 0.098536804, -0.010438949), (-0.30946857, -0.04449476, 0.052322656), (-0.30946857, -0.04449476, 0.8315761), (-0.26807758, 0.12242695, 0.8768889), (-0.14540377, 0.22625265, 0.92220163), (0.29171014, -0.04194162, 0.8768889), (0.24464285, 0.11172464, 0.92220163), (-6.8887656e-9, 0.27465498, 0.9295732), (0.14848971, 0.23105448, 0.9295732), (0.23628573, -0.20474279, 0.8315761), (0.23628573, -0.20474279, 0.052322656), (-0.25747454, -0.037019167, 0.022103488), (0.19658723, -0.17034385, 0.022103488), (0.07328483, -0.2495854, 0.022103488), (-0.07328496, -0.24958539, 0.022103488), (-0.1965873, -0.17034376, 0.022103488), (-0.2362858, -0.2047427, 0.052322656), (-0.2362858, -0.2047427, 0.8315761), (-0.2917102, -0.041941505, 0.8768889), (-0.24464287, 0.111724675, 0.92220163), (-0.14848971, 0.23105447, 0.9295732), (0.22272685, -0.19299392, 0.8768889), (0.26620954, -0.038275186, 0.92220163), (0.24983497, 0.114095815, 0.9295732), (-7.40249e-9, 0.27571526, 0.95732665), (0.14906298, 0.23194647, 0.95732665), (0.08808385, -0.29998633, 0.8315761), (0.08808385, -0.29998633, 0.052322656), (-0.088084005, -0.2999863, 0.052322656), (-0.088084005, -0.2999863, 0.8315761), (-0.22272694, -0.19299386, 0.8768889), (-0.2662096, -0.038275078, 0.92220163), (-0.249835, 0.11409585, 0.9295732), (-0.14906296, 0.23194645, 0.95732665), (0.083029315, -0.28277206, 0.8768889), (0.20325659, -0.17612289, 0.92220163), (0.27185938, -0.039087508, 0.9295732), (0.25079945, 0.11453627, 0.95732665), (-1.0272911e-8, 0.24345468, 0.95732665), (0.13162154, 0.20480712, 0.95732665), (-0.08302944, -0.28277206, 0.8768889), (-0.20325667, -0.17612281, 0.92220163), (-0.27185944, -0.039087392, 0.9295732), (-0.25079948, 0.11453631, 0.95732665), (-0.13162154, 0.2048071, 0.95732665), (0.07577109, -0.25805286, 0.92220163), (0.20757037, -0.17986079, 0.9295732), (0.2729089, -0.0392384, 0.95732665), (0.22145416, 0.10113473, 0.95732665), (-7.909001e-9, 0.22003345, 0.93513334), (0.11895907, 0.18510391, 0.93513334), (-0.07577121, -0.25805283, 0.92220163), (-0.20757043, -0.17986071, 0.9295732), (-0.27290896, -0.039238296, 0.95732665), (-0.22145419, 0.101134755, 0.95732665), (-0.11895906, 0.1851039, 0.93513334), (0.07737919, -0.26352954, 0.9295732), (0.20837171, -0.18055515, 0.95732665), (0.24097665, -0.034647234, 0.95732665), (0.20014943, 0.0914052, 0.93513334), (-1.23437145e-8, 0.044166524, 0.9351334), (0.025567763, 0.036659148, 0.9351334), (0.024659924, 0.040742654, 0.9351334), (0.030724727, 0.05271555, 0.9351334), (0.04738597, 0.030252747, 0.9351334), (0.06752578, 0.024339164, 0.9351334), (-0.07737933, -0.2635295, 0.9295732), (-0.20837179, -0.18055506, 0.95732665), (-0.2409767, -0.03464714, 0.95732665), (-0.20014948, 0.09140522, 0.93513334), (-0.0675258, 0.024339149, 0.9351334), (-0.047385976, 0.030252738, 0.9351334), (-0.03072473, 0.05271555, 0.9351334), (-0.024659928, 0.040742654, 0.9351334), (-0.025567768, 0.036659148, 0.9351334), (0.07767793, -0.26454696, 0.95732665), (0.18399076, -0.15942894, 0.95732665), (0.21779379, -0.031314045, 0.93513334), (0.11361258, -0.028847856, 0.9351334), (-1.4444459e-8, -0.013119572, 0.9207766), (0.012353657, -0.016746935, 0.9207766), (0.031526458, -0.017035536, 0.92211515), (0.030292701, 0.01642451, 0.93040997), (0.052830923, 0.016085252, 0.9319835), (0.052889455, 0.0015646087, 0.92834866), (-0.07767805, -0.26454693, 0.95732665), (-0.18399084, -0.15942885, 0.95732665), (-0.21779385, -0.031313956, 0.93513334), (-0.11361261, -0.028847845, 0.9351334), (-0.052889463, 0.0015645771, 0.92834866), (-0.05283093, 0.016085252, 0.9319835), (-0.03029271, 0.01642451, 0.93040997), (-0.031526465, -0.017035536, 0.92211515), (-0.012353671, -0.016746935, 0.9207766), (0.06858906, -0.23359312, 0.95732665), (0.16629015, -0.1440913, 0.93513334), (0.12362819, -0.09850807, 0.9351334), (0.058878392, -0.02770908, 0.9245237), (0.046842597, -0.035725974, 0.9207766), (0.061503317, -0.052645355, 0.9207766), (-0.068589166, -0.23359309, 0.95732665), (-0.16629022, -0.14409117, 0.93513334), (-0.12362826, -0.09850802, 0.9351334), (-0.06150334, -0.05264535, 0.9207766), (-0.0468426, -0.035725962, 0.9207766), (-0.058878385, -0.02770908, 0.9245237), (0.06199054, -0.21112056, 0.93513334), (0.09439274, -0.1625248, 0.9351334), (0.06692519, -0.090355396, 0.9207766), (-0.06692524, -0.090355374, 0.9207766), (-0.051098846, -0.12501034, 0.9207766), (-0.019048933, -0.14560759, 0.9207766), (0.019048877, -0.14560759, 0.9207766), (0.051098797, -0.12501037, 0.9207766), (0.040608473, -0.04588919, 0.9207766), (-0.040608473, -0.04588919, 0.9207766), (-0.061990634, -0.21112053, 0.93513334), (-0.0943928, -0.16252474, 0.9351334), (0.03518823, -0.2005732, 0.9351334), (-0.035188302, -0.2005732, 0.9351334), (0.038691174, 0.09777616, 0.97425723), (0.040608473, 0.14099148, 0.9844024), (0.030210253, 0.13078965, 0.97779787), (0.028783899, 0.09864004, 0.9702505), (0.028925445, 0.05525887, 0.96087444), (0.021518786, 0.06700975, 0.9602945), (0.06452731, 0.101362124, 0.95762527), (0.06772487, 0.14475514, 0.96694636), (-0.040608473, 0.14099148, 0.9844024), (-0.030210253, 0.13078965, 0.97779787), (0.028783899, 0.10365254, 0.9470023), (0.030210253, 0.13605052, 0.95339763), (-0.028925449, 0.05525887, 0.96087444), (-0.021518787, 0.06700975, 0.9602945), (0.04824048, 0.057939738, 0.94844043), (0.021518786, 0.07075707, 0.9429141), (0.040608473, 0.17126244, 0.9726615), (0.038691174, 0.10451391, 0.9430071), (0.040608473, 0.14806312, 0.9516038), (-0.040608473, 0.17126244, 0.9726615), (-0.038691174, 0.09777616, 0.97425723), (-0.028783899, 0.09864004, 0.9702505), (-0.030210253, 0.13605052, 0.95339763), (-0.022456324, 0.046115942, 0.9561839), (0.02245632, 0.046115942, 0.9561839), (-0.021518787, 0.07075707, 0.9429141), (0.039019298, 0.010975254, 0.95568395), (0.06507453, 0.014591635, 0.93891096), (0.028925445, 0.060296007, 0.9375119), (-0.06772487, 0.14475514, 0.96694636), (-0.040608473, 0.14806312, 0.9516038), (-0.06452731, 0.101362124, 0.95762527), (-0.028783899, 0.10365254, 0.9470023), (-0.04824048, 0.057939738, 0.94844043), (0.030292701, 0.011736272, 0.9521544), (-0.0390193, 0.010975254, 0.95568395), (-0.03029271, 0.011736272, 0.9521544), (-0.022456324, 0.050026536, 0.93804634), (0.02245632, 0.050026536, 0.93804634), (-0.028925449, 0.060296007, 0.9375119), (0.040608473, -0.032551944, 0.94698524), (0.06772487, -0.028788276, 0.9295291), (-0.038691174, 0.10451391, 0.9430071), (-0.06507453, 0.014591635, 0.93891096), (0.031526458, -0.022056142, 0.9454011), (-0.040608473, -0.032551944, 0.94698524), (-0.031526465, -0.022056142, 0.9454011), (0.040608473, -0.055295557, 0.92381394), (-0.06772487, -0.028788276, 0.9295291), (-0.040608473, -0.055295557, 0.92381394), (-7.5795095e-9, 0.31265086, 0.052322656), (0.16903183, 0.26301864, 0.052322656), (-0.16903183, 0.2630186, 0.052322656), (0.2843972, 0.12987985, 0.052322656), (-0.28439724, 0.12987988, 0.052322656), (0.3094685, -0.04449489, 0.052322656), (-0.30946857, -0.04449476, 0.052322656), (0.23628573, -0.20474279, 0.052322656), (-0.2362858, -0.2047427, 0.052322656), (0.08808385, -0.29998633, 0.052322656), (-0.088084005, -0.2999863, 0.052322656)]
            texCoord2f[] primvars:st = [(0.29546523, 0.039936602), (0.29546523, 0.8938683), (0.27736586, 0.8938683), (0.27736586, 0.039936602), (0.2612511, 0.0068213046), (0.54408926, 0.748708), (0.2763096, 0.0068213046), (0.5526142, 0.748708), (0.27736586, 0.039936602), (0.27736586, 0.8938683), (0.28892267, 0.94352394), (0.27186197, 0.94352394), (0.22881418, 0.8938683), (0.22881418, 0.039936602), (0.2612511, 0.0068213046), (0.54408926, 0.748708), (0.22085659, 0.0068213046), (0.5212209, 0.748708), (0.5401084, 0.251292), (0.54788214, 0.251292), (0.22881418, 0.039936602), (0.22881418, 0.8938683), (0.27186197, 0.94352394), (0.22609632, 0.94352394), (0.27952784, 0.9931787), (0.5842006, 0.03995961), (0.2639584, 0.9931787), (0.5705507, 0.03995961), (0.16522488, 0.8938683), (0.16522488, 0.039936602), (0.22085659, 0.0068213046), (0.5212209, 0.748708), (0.5401083, 0.251292), (0.16795096, 0.0068213046), (0.49126977, 0.748708), (0.51925516, 0.251292), (0.49194327, 0.251292), (0.46684396, 0.251292), (0.4519262, 0.251292), (0.4519262, 0.251292), (0.46684396, 0.251292), (0.49194327, 0.251292), (0.51925516, 0.251292), (0.16522497, 0.039936602), (0.16522497, 0.8938683), (0.22609632, 0.94352394), (0.2639584, 0.9931787), (0.5705506, 0.03995961), (0.166156, 0.94352394), (0.22219345, 0.9931787), (0.53393453, 0.03995961), (0.58602554, 0.1515561), (0.57208586, 0.1515561), (0.10678724, 0.8938683), (0.10678724, 0.039936602), (0.49126983, 0.748708), (0.16795108, 0.0068213046), (0.46374512, 0.748708), (0.11933152, 0.0068213046), (0.44738582, 0.748708), (0.09043448, 0.0068213046), (0.44738582, 0.748708), (0.09043448, 0.0068213046), (0.46374512, 0.748708), (0.11933152, 0.0068213046), (0.1067873, 0.039936602), (0.1067873, 0.8938683), (0.166156, 0.94352394), (0.22219345, 0.9931787), (0.53393453, 0.03995961), (0.57208586, 0.1515561), (0.1110717, 0.94352394), (0.16749297, 0.9931787), (0.48597756, 0.03995961), (0.53469265, 0.1515561), (0.5863645, 0.5717155), (0.572371, 0.5717155), (0.07205479, 0.8938683), (0.07205479, 0.039936602), (0.07205479, 0.039936602), (0.07205479, 0.8938683), (0.1110717, 0.94352394), (0.16749309, 0.9931787), (0.48597762, 0.03995961), (0.53469265, 0.1515561), (0.572371, 0.5717155), (0.07833228, 0.94352394), (0.11722408, 0.9931787), (0.44190583, 0.03995961), (0.4857179, 0.1515561), (0.53483343, 0.5717155), (0.5760504, 0.5717155), (0.56369424, 0.5717155), (0.07833228, 0.94352394), (0.11722408, 0.9931787), (0.44190586, 0.03995961), (0.48571792, 0.1515561), (0.5348335, 0.5717155), (0.56369424, 0.5717155), (0.08734672, 0.9931787), (0.41571173, 0.03995961), (0.44071078, 0.1515561), (0.48566964, 0.5717155), (0.5305488, 0.5717155), (0.56856227, 0.23573115), (0.55739486, 0.23573115), (0.08734672, 0.9931787), (0.41571173, 0.03995961), (0.4407108, 0.1515561), (0.48566964, 0.5717155), (0.5305488, 0.5717155), (0.55739486, 0.23573115), (0.41396075, 0.1515561), (0.4404888, 0.5717155), (0.48713753, 0.5717155), (0.5274381, 0.23573115), (0.5123353, 0.23573303), (0.50993514, 0.23573303), (0.51124066, 0.23573303), (0.5150686, 0.23573303), (0.5078869, 0.23573303), (0.5059962, 0.23573303), (0.41396075, 0.1515561), (0.44048882, 0.5717155), (0.48713753, 0.5717155), (0.5274381, 0.23573115), (0.5059962, 0.23573303), (0.5078869, 0.23573303), (0.5150686, 0.23573303), (0.51124066, 0.23573303), (0.50993514, 0.23573303), (0.41363546, 0.5717155), (0.44724312, 0.5717155), (0.48820317, 0.23573115), (0.48899162, 0.23573303), (0.49402016, 0.018386513), (0.49286044, 0.018386513), (0.49276817, 0.038652033), (0.5034658, 0.16422603), (0.5033573, 0.18804792), (0.49871492, 0.13302088), (0.4136355, 0.5717155), (0.44724315, 0.5717155), (0.4882032, 0.23573115), (0.48899162, 0.23573303), (0.49871486, 0.13302088), (0.5033573, 0.18804792), (0.5034658, 0.16422603), (0.49276817, 0.038652033), (0.49286044, 0.018386513), (0.42353183, 0.5717155), (0.45214677, 0.23573115), (0.4667203, 0.23573303), (0.4893557, 0.07511377), (0.48679256, 0.018386513), (0.48138323, 0.018386513), (0.42353186, 0.5717155), (0.45214683, 0.23573115), (0.4667203, 0.23573303), (0.48138323, 0.018386513), (0.48679256, 0.018386513), (0.4893557, 0.07511377), (0.43071657, 0.23573115), (0.44625333, 0.23573303), (0.46932685, 0.018386513), (0.46932685, 0.018386513), (0.45824718, 0.018386513), (0.45166197, 0.018386513), (0.45166197, 0.018386513), (0.45824718, 0.018386513), (0.4835433, 0.018386513), (0.4835433, 0.018386513), (0.43071663, 0.23573115), (0.44625336, 0.23573303), (0.43408874, 0.23573303), (0.43408874, 0.23573303), (0.529475, 0.82802796), (0.5432915, 0.9816134), (0.5400298, 0.8816273), (0.52975124, 0.7673686), (0.51588166, 0.6254256), (0.5196386, 0.61664456), (0.53062147, 0.57623565), (0.5444948, 0.7173465), (0.5432915, 0.9816134), (0.5400298, 0.8816273), (0.5313538, 0.4154154), (0.5417118, 0.51223594), (0.51588166, 0.6254256), (0.5196386, 0.61664456), (0.5167388, 0.4371876), (0.52083665, 0.3535236), (0.5529696, 0.80386806), (0.53162915, 0.3549326), (0.54555243, 0.48507562), (0.5529696, 0.80386806), (0.529475, 0.82802796), (0.52975124, 0.7673686), (0.5417118, 0.51223594), (0.5129585, 0.5544164), (0.5129585, 0.5544164), (0.52083665, 0.3535236), (0.5017236, 0.54684526), (0.5028798, 0.29292244), (0.5174921, 0.27174014), (0.5444948, 0.7173465), (0.54555243, 0.48507562), (0.53062147, 0.57623565), (0.5313538, 0.4154154), (0.5167388, 0.4371876), (0.50196695, 0.49341327), (0.5017236, 0.54684526), (0.50196695, 0.49341327), (0.51420885, 0.27983356), (0.51420885, 0.27983356), (0.5174921, 0.27174014), (0.48780736, 0.415158), (0.48901066, 0.15088916), (0.53162915, 0.3549326), (0.5028798, 0.29292244), (0.49116302, 0.39117453), (0.48780736, 0.415158), (0.49116302, 0.39117453), (0.48053592, 0.06436953), (0.48901066, 0.15088916), (0.48053592, 0.06436953), (0.29546523, 0.039936602), (0.27736586, 0.039936602), (0.27736586, 0.039936602), (0.22881418, 0.039936602), (0.22881418, 0.039936602), (0.16522488, 0.039936602), (0.16522497, 0.039936602), (0.10678724, 0.039936602), (0.1067873, 0.039936602), (0.07205479, 0.039936602), (0.07205479, 0.039936602)] (
                interpolation = "faceVarying"
            )
            int[] primvars:st:indices = [0, 1, 2, 3, 0, 3, 4, 6, 8, 9, 1, 0, 2, 1, 10, 11, 3, 2, 12, 13, 8, 0, 6, 14, 3, 13, 16, 4, 7, 5, 18, 19, 20, 21, 9, 8, 1, 9, 22, 10, 12, 2, 11, 23, 11, 10, 24, 26, 13, 12, 28, 29, 20, 8, 14, 30, 15, 7, 19, 32, 13, 29, 33, 16, 5, 17, 35, 18, 19, 18, 35, 36, 37, 38, 39, 40, 41, 42, 32, 43, 44, 21, 20, 9, 21, 45, 22, 10, 22, 46, 24, 28, 12, 23, 48, 23, 11, 26, 49, 27, 25, 51, 52, 29, 28, 53, 54, 43, 20, 30, 56, 31, 15, 32, 42, 29, 54, 58, 33, 17, 34, 36, 35, 34, 57, 37, 36, 57, 59, 38, 37, 59, 61, 39, 38, 61, 63, 40, 39, 63, 55, 41, 40, 55, 31, 42, 41, 65, 66, 44, 43, 21, 44, 67, 45, 22, 45, 68, 46, 25, 47, 70, 51, 53, 28, 48, 71, 48, 23, 49, 72, 50, 27, 52, 74, 52, 51, 75, 76, 54, 53, 77, 78, 65, 43, 56, 64, 54, 78, 60, 58, 78, 79, 62, 60, 79, 65, 64, 62, 79, 80, 66, 65, 44, 66, 81, 67, 45, 67, 82, 68, 47, 69, 84, 70, 51, 70, 85, 75, 77, 53, 71, 86, 71, 48, 72, 87, 73, 50, 74, 89, 74, 52, 76, 90, 76, 75, 91, 92, 78, 77, 80, 79, 66, 80, 93, 81, 67, 81, 94, 82, 69, 83, 96, 84, 70, 84, 97, 85, 75, 85, 98, 91, 80, 77, 86, 93, 86, 71, 87, 99, 88, 73, 89, 101, 89, 74, 90, 102, 90, 76, 92, 103, 92, 91, 104, 105, 81, 93, 106, 94, 83, 95, 108, 96, 84, 96, 109, 97, 85, 97, 110, 98, 91, 98, 111, 104, 93, 86, 99, 106, 100, 88, 101, 112, 101, 89, 102, 113, 102, 90, 103, 114, 103, 92, 105, 115, 105, 104, 116, 117, 118, 119, 120, 121, 95, 107, 122, 108, 96, 108, 123, 109, 97, 109, 124, 110, 98, 110, 125, 111, 104, 111, 126, 127, 128, 129, 130, 116, 107, 100, 112, 122, 112, 101, 113, 131, 113, 102, 114, 132, 114, 103, 115, 133, 115, 105, 121, 134, 117, 116, 135, 136, 137, 138, 121, 120, 139, 140, 108, 122, 141, 123, 109, 123, 142, 124, 110, 124, 143, 125, 111, 125, 144, 126, 127, 126, 145, 146, 116, 130, 147, 148, 149, 135, 122, 112, 131, 141, 131, 113, 132, 150, 132, 114, 133, 151, 133, 115, 134, 152, 134, 121, 140, 153, 154, 155, 136, 135, 149, 123, 141, 156, 142, 124, 142, 157, 143, 125, 143, 158, 144, 126, 144, 159, 160, 161, 145, 141, 131, 150, 156, 150, 132, 151, 162, 151, 133, 152, 163, 152, 134, 155, 164, 160, 159, 165, 166, 167, 168, 169, 164, 155, 154, 170, 171, 142, 156, 172, 157, 143, 157, 173, 158, 144, 158, 165, 159, 156, 150, 162, 172, 162, 151, 163, 174, 163, 152, 164, 169, 158, 173, 166, 165, 173, 175, 167, 166, 175, 174, 168, 167, 174, 163, 169, 168, 157, 172, 175, 173, 172, 162, 174, 175, 176, 177, 178, 179, 180, 176, 179, 181, 177, 176, 182, 183, 177, 184, 185, 178, 186, 179, 178, 187, 188, 180, 181, 189, 176, 180, 190, 182, 179, 186, 191, 181, 177, 183, 192, 193, 194, 183, 182, 184, 177, 192, 195, 184, 196, 197, 185, 185, 198, 187, 178, 194, 193, 186, 187, 196, 188, 189, 197, 180, 188, 199, 200, 181, 191, 201, 189, 180, 202, 203, 190, 204, 193, 182, 190, 193, 204, 191, 186, 183, 194, 192, 184, 195, 205, 194, 206, 195, 192, 196, 184, 205, 207, 197, 208, 198, 185, 206, 194, 187, 198, 188, 196, 207, 209, 208, 197, 189, 201, 202, 180, 200, 210, 188, 211, 212, 199, 200, 199, 213, 214, 204, 215, 201, 191, 202, 216, 217, 203, 119, 204, 190, 203, 139, 120, 195, 206, 205, 206, 218, 207, 205, 218, 206, 198, 208, 211, 188, 209, 219, 218, 215, 209, 207, 215, 218, 208, 201, 216, 202, 210, 220, 138, 210, 200, 214, 118, 117, 211, 221, 222, 212, 212, 147, 130, 129, 213, 199, 215, 204, 214, 213, 216, 223, 217, 139, 203, 217, 153, 140, 118, 214, 204, 119, 221, 211, 219, 224, 215, 128, 127, 146, 219, 209, 221, 216, 220, 222, 137, 220, 210, 138, 147, 212, 222, 148, 128, 215, 213, 129, 216, 221, 225, 223, 223, 170, 154, 153, 217, 225, 221, 224, 161, 224, 219, 146, 145, 220, 137, 136, 149, 148, 222, 170, 223, 225, 171, 225, 224, 161, 160, 171, 54, 29, 231, 233, 79, 65, 234, 236, 43, 65, 234, 232, 29, 13, 229, 231, 8, 20, 230, 228, 13, 3, 227, 229, 78, 79, 236, 235, 78, 54, 233, 235, 0, 8, 228, 226, 20, 43, 232, 230, 3, 0, 226, 227]
            uniform token subdivisionScheme = "none"
            custom string userProperties:blender:data_name = "Cylinder"
        }
    }

    def Scope "_materials"
    {
        def Material "Material_001"
        {
            token outputs:surface.connect = </root/_materials/Material_001/Principled_BSDF.outputs:surface>
            custom string userProperties:blender:data_name = "Material.001"

            def Shader "Principled_BSDF"
            {
                uniform token info:id = "UsdPreviewSurface"
                float inputs:clearcoat = 0
                float inputs:clearcoatRoughness = 0.03
                color3f inputs:diffuseColor = (0.8, 0.8, 0.8)
                color3f inputs:emissiveColor = (0, 0, 0)
                float inputs:ior = 1.5
                float inputs:metallic = 0
                float inputs:opacity = 1
                float inputs:roughness = 0.5527864
                float inputs:specular = 1
                token outputs:surface
            }
        }
    }
}

