#usda 1.0
(
    defaultPrim = "root"
    doc = "Blender v5.1.2"
    metersPerUnit = 1
    upAxis = "Y"
)

def Xform "root" (
    customData = {
        dictionary Blender = {
            bool generated = 1
        }
    }
)
{
    float3 xformOp:rotateXYZ = (-90, -0, 0)
    uniform token[] xformOpOrder = ["xformOp:rotateXYZ"]

    def Xform "Bathroom_ToiletPaperPile"
    {
        custom string userProperties:blender:object_name = "Bathroom_ToiletPaperPile"

        def Mesh "Cylinder_010" (
            active = true
            prepend apiSchemas = ["MaterialBindingAPI"]
        )
        {
            uniform bool doubleSided = 1
            float3[] extent = [(-0.1672394, -0.17490582, 0.002004433), (0.16723943, 0.17490579, 0.37671223)]
            int[] faceVertexCounts = [4, 4, 4, 4, 4, 4, 4, 4, 4, 4, 4, 4, 4, 4, 4, 4, 4, 4, 4, 4, 4, 4, 4, 4, 4, 4, 4, 4, 4, 4, 4, 4, 4, 4, 4, 4, 4, 4, 4, 4, 4, 4, 4, 4, 4, 4, 4, 4, 4, 4, 4, 4, 4, 4, 4, 4, 4, 4, 4, 4, 4, 4, 4, 4, 4, 4, 4, 4, 4, 4, 4, 4, 4, 4, 4, 4, 4, 4, 4, 4, 4, 4, 4, 4, 4, 4, 4, 4, 4, 4, 4, 4, 4, 4, 4, 4, 4, 4, 4, 4, 4, 4, 4, 4, 4, 4, 4, 4, 4, 4, 4, 4, 4, 4, 4, 4, 4, 4, 4, 4, 4, 4, 4, 4, 4, 4, 4, 4, 4, 4, 4, 4, 4, 4, 4, 4, 4, 4, 4, 4, 4, 4, 4, 4, 4, 4, 4, 4, 4, 4, 4, 4, 4, 4, 4, 4, 4, 4, 4, 4, 4, 4, 4, 4, 4, 4, 4, 4, 4, 4, 4, 4, 4, 4, 4, 4, 4, 4, 4, 4, 4, 4, 4, 4, 4, 4, 4, 4, 4, 4, 4, 4]
            int[] faceVertexIndices = [0, 2, 3, 1, 2, 4, 5, 3, 4, 6, 7, 5, 8, 10, 11, 9, 10, 12, 13, 11, 12, 14, 15, 13, 14, 0, 1, 15, 16, 19, 18, 17, 17, 18, 21, 20, 20, 21, 23, 22, 24, 25, 27, 26, 26, 27, 29, 28, 28, 29, 31, 30, 30, 31, 19, 16, 33, 32, 29, 27, 6, 8, 9, 7, 41, 40, 22, 24, 43, 42, 17, 20, 45, 44, 28, 30, 37, 36, 21, 18, 32, 38, 31, 29, 46, 41, 24, 26, 34, 33, 27, 25, 40, 43, 20, 22, 47, 45, 30, 16, 42, 47, 16, 17, 36, 35, 23, 21, 38, 39, 19, 31, 39, 37, 18, 19, 44, 46, 26, 28, 1, 3, 37, 39, 15, 1, 39, 38, 5, 7, 35, 36, 9, 11, 33, 34, 13, 15, 38, 32, 3, 5, 36, 37, 35, 34, 25, 23, 11, 13, 32, 33, 12, 10, 46, 44, 2, 0, 47, 42, 0, 14, 45, 47, 6, 4, 43, 40, 10, 8, 41, 46, 14, 12, 44, 45, 4, 2, 42, 43, 7, 9, 34, 35, 22, 23, 25, 24, 8, 6, 40, 41, 48, 50, 51, 49, 50, 52, 53, 51, 52, 54, 55, 53, 56, 58, 59, 57, 58, 60, 61, 59, 60, 62, 63, 61, 62, 48, 49, 63, 64, 67, 66, 65, 65, 66, 69, 68, 68, 69, 71, 70, 72, 73, 75, 74, 74, 75, 77, 76, 76, 77, 79, 78, 78, 79, 67, 64, 81, 80, 77, 75, 54, 56, 57, 55, 89, 88, 70, 72, 91, 90, 65, 68, 93, 92, 76, 78, 85, 84, 69, 66, 80, 86, 79, 77, 94, 89, 72, 74, 82, 81, 75, 73, 88, 91, 68, 70, 95, 93, 78, 64, 90, 95, 64, 65, 84, 83, 71, 69, 86, 87, 67, 79, 87, 85, 66, 67, 92, 94, 74, 76, 49, 51, 85, 87, 63, 49, 87, 86, 53, 55, 83, 84, 57, 59, 81, 82, 61, 63, 86, 80, 51, 53, 84, 85, 83, 82, 73, 71, 59, 61, 80, 81, 60, 58, 94, 92, 50, 48, 95, 90, 48, 62, 93, 95, 54, 52, 91, 88, 58, 56, 89, 94, 62, 60, 92, 93, 52, 50, 90, 91, 55, 57, 82, 83, 70, 71, 73, 72, 56, 54, 88, 89, 96, 98, 99, 97, 98, 100, 101, 99, 100, 102, 103, 101, 104, 106, 107, 105, 106, 108, 109, 107, 108, 110, 111, 109, 110, 96, 97, 111, 112, 115, 114, 113, 113, 114, 117, 116, 116, 117, 119, 118, 120, 121, 123, 122, 122, 123, 125, 124, 124, 125, 127, 126, 126, 127, 115, 112, 129, 128, 125, 123, 102, 104, 105, 103, 137, 136, 118, 120, 139, 138, 113, 116, 141, 140, 124, 126, 133, 132, 117, 114, 128, 134, 127, 125, 142, 137, 120, 122, 130, 129, 123, 121, 136, 139, 116, 118, 143, 141, 126, 112, 138, 143, 112, 113, 132, 131, 119, 117, 134, 135, 115, 127, 135, 133, 114, 115, 140, 142, 122, 124, 97, 99, 133, 135, 111, 97, 135, 134, 101, 103, 131, 132, 105, 107, 129, 130, 109, 111, 134, 128, 99, 101, 132, 133, 131, 130, 121, 119, 107, 109, 128, 129, 108, 106, 142, 140, 98, 96, 143, 138, 96, 110, 141, 143, 102, 100, 139, 136, 106, 104, 137, 142, 110, 108, 140, 141, 100, 98, 138, 139, 103, 105, 130, 131, 118, 119, 121, 120, 104, 102, 136, 137, 144, 146, 147, 145, 146, 148, 149, 147, 148, 150, 151, 149, 152, 154, 155, 153, 154, 156, 157, 155, 156, 158, 159, 157, 158, 144, 145, 159, 160, 163, 162, 161, 161, 162, 165, 164, 164, 165, 167, 166, 168, 169, 171, 170, 170, 171, 173, 172, 172, 173, 175, 174, 174, 175, 163, 160, 177, 176, 173, 171, 150, 152, 153, 151, 185, 184, 166, 168, 187, 186, 161, 164, 189, 188, 172, 174, 181, 180, 165, 162, 176, 182, 175, 173, 190, 185, 168, 170, 178, 177, 171, 169, 184, 187, 164, 166, 191, 189, 174, 160, 186, 191, 160, 161, 180, 179, 167, 165, 182, 183, 163, 175, 183, 181, 162, 163, 188, 190, 170, 172, 145, 147, 181, 183, 159, 145, 183, 182, 149, 151, 179, 180, 153, 155, 177, 178, 157, 159, 182, 176, 147, 149, 180, 181, 179, 178, 169, 167, 155, 157, 176, 177, 156, 154, 190, 188, 146, 144, 191, 186, 144, 158, 189, 191, 150, 148, 187, 184, 154, 152, 185, 190, 158, 156, 188, 189, 148, 146, 186, 187, 151, 153, 178, 179, 166, 167, 169, 168, 152, 150, 184, 185]
            rel material:binding = </root/_materials/White>
            normal3f[] normals = [(1.0267974e-7, -1, -3.0798452e-7), (0.70710677, -0.70710677, -1.0266146e-7), (0.70710677, -0.7071068, -1.026615e-7), (1.8482358e-7, -1, -3.079845e-7), (0.70710677, -0.70710677, -1.0266146e-7), (1, 4.10719e-8, 1.9391632e-7), (1, -6.1607864e-8, 1.9391629e-7), (0.70710677, -0.7071068, -1.026615e-7), (1, 4.10719e-8, 1.9391632e-7), (0.70710665, 0.7071069, 3.650188e-7), (0.7071067, 0.7071069, 3.6501874e-7), (1, -6.1607864e-8, 1.9391629e-7), (-3.0803935e-7, 1, 3.6501868e-7), (-0.7071068, 0.70710677, 1.2547521e-7), (-0.7071069, 0.70710665, 1.2547515e-7), (-2.2589548e-7, 1, 3.650187e-7), (-0.7071068, 0.70710677, 1.2547521e-7), (-1, -8.2143835e-8, -1.9391634e-7), (-1, -2.0535956e-7, -1.9391636e-7), (-0.7071069, 0.70710665, 1.2547515e-7), (-1, -8.2143835e-8, -1.9391634e-7), (-0.70710653, -0.70710707, -3.3079837e-7), (-0.70710653, -0.707107, -3.3079834e-7), (-1, -2.0535956e-7, -1.9391636e-7), (-0.70710653, -0.70710707, -3.3079837e-7), (1.0267974e-7, -1, -3.0798452e-7), (1.8482358e-7, -1, -3.079845e-7), (-0.70710653, -0.707107, -3.3079834e-7), (-1.0267977e-7, 1, 4.364307e-7), (1.6428764e-7, 1, 4.364308e-7), (-0.70710677, 0.70710677, 1.5777673e-8), (-0.70710695, 0.70710665, 1.5777525e-8), (-0.70710695, 0.70710665, 1.5777525e-8), (-0.70710677, 0.70710677, 1.5777673e-8), (-1, -6.1607864e-8, -3.8804836e-7), (-1, -2.0535958e-7, -3.8804842e-7), (-1, -2.0535958e-7, -3.8804842e-7), (-1, -6.1607864e-8, -3.8804836e-7), (-0.7071067, -0.70710695, -5.1476667e-7), (-0.70710677, -0.70710677, -5.147666e-7), (2.4643145e-7, -1, -4.1109698e-7), (4.5179095e-7, -1, -4.1109695e-7), (0.707107, -0.70710653, -9.149538e-8), (0.70710677, -0.70710677, -9.149552e-8), (0.70710677, -0.70710677, -9.149552e-8), (0.707107, -0.70710653, -9.149538e-8), (1, 1.642876e-7, 3.1950037e-7), (1, 6.1607864e-8, 3.1950034e-7), (1, 6.1607864e-8, 3.1950034e-7), (1, 1.642876e-7, 3.1950037e-7), (0.70710665, 0.7071069, 5.4727013e-7), (0.7071066, 0.70710695, 5.4727013e-7), (0.7071066, 0.70710695, 5.4727013e-7), (0.70710665, 0.7071069, 5.4727013e-7), (1.6428764e-7, 1, 4.364308e-7), (-1.0267977e-7, 1, 4.364307e-7), (-3.59143e-8, 2.3273029e-7, -1), (1.08839814e-7, 1.4374093e-7, -1), (5.3154423e-8, 2.2998017e-7, -1), (-1.7844697e-7, 3.7203938e-7, -1), (0.70710665, 0.7071069, 3.650188e-7), (-3.0803935e-7, 1, 3.6501868e-7), (-2.2589548e-7, 1, 3.650187e-7), (0.7071067, 0.7071069, 3.6501874e-7), (6.1767245e-9, -1.987378e-7, 1), (1.8530951e-8, -4.5476803e-8, 1), (7.4469966e-7, 1.8810712e-7, 1), (2.4823316e-7, 2.0376368e-7, 1), (-2.979452e-7, -2.794589e-8, 1), (-7.757466e-8, -9.490107e-8, 1), (-1.2411681e-7, -2.813393e-8, 1), (9.6504015e-14, 7.8992144e-8, 1), (-8.3751544e-8, -1.414374e-7, 1), (4.407414e-7, -2.261745e-7, 1), (-2.482333e-7, -2.3816636e-7, 1), (-3.723501e-7, -1.9070379e-7, 1), (-6.991149e-7, 5.0920045e-7, -1), (-0.0000011753357, -1.324526e-7, -1), (-2.1261789e-7, 1.664566e-7, -1), (-6.065301e-7, 7.1037834e-7, -1), (1.08839814e-7, 1.4374093e-7, -1), (1.596959e-7, 1.6281344e-7, -1), (1.3668276e-7, 2.608162e-7, -1), (5.3154423e-8, 2.2998017e-7, -1), (1.4279549e-7, -3.2452476e-7, 1), (6.1767245e-9, -1.987378e-7, 1), (2.4823316e-7, 2.0376368e-7, 1), (-2.482335e-7, -1.7024513e-7, 1), (-3.6341686e-7, -1.6699964e-7, -1), (-3.59143e-8, 2.3273029e-7, -1), (-1.7844697e-7, 3.7203938e-7, -1), (-3.2652014e-7, 2.6103714e-7, -1), (1.8530951e-8, -4.5476803e-8, 1), (-2.979452e-7, -2.794589e-8, 1), (9.6504015e-14, 7.8992144e-8, 1), (7.4469966e-7, 1.8810712e-7, 1), (-1.4897263e-7, -1.5348182e-7, 1), (-8.3751544e-8, -1.414374e-7, 1), (-3.723501e-7, -1.9070379e-7, 1), (1.2063004e-13, -2.455651e-7, 1), (-7.757466e-8, -9.490107e-8, 1), (-1.4897263e-7, -1.5348182e-7, 1), (1.2063004e-13, -2.455651e-7, 1), (-1.2411681e-7, -2.813393e-8, 1), (-0.0000011753357, -1.324526e-7, -1), (-9.448057e-7, -5.5748285e-7, -1), (-9.871565e-8, 1.1897805e-7, -1), (-2.1261789e-7, 1.664566e-7, -1), (1.596959e-7, 1.6281344e-7, -1), (-9.02282e-8, 5.029725e-7, -1), (-2.6102595e-7, 8.047375e-7, -1), (1.3668276e-7, 2.608162e-7, -1), (-9.02282e-8, 5.029725e-7, -1), (-6.991149e-7, 5.0920045e-7, -1), (-6.065301e-7, 7.1037834e-7, -1), (-2.6102595e-7, 8.047375e-7, -1), (4.407414e-7, -2.261745e-7, 1), (1.4279549e-7, -3.2452476e-7, 1), (-2.482335e-7, -1.7024513e-7, 1), (-2.482333e-7, -2.3816636e-7, 1), (1.9445254e-7, -4.5233534e-16, -1), (-8.5343385e-7, 1.7388447e-7, -1), (-6.991149e-7, 5.0920045e-7, -1), (-9.02282e-8, 5.029725e-7, -1), (1.9805347e-7, -5.345055e-10, -1), (1.9445254e-7, -4.5233534e-16, -1), (-9.02282e-8, 5.029725e-7, -1), (1.596959e-7, 1.6281344e-7, -1), (-0.0000027799604, -6.306642e-7, -1), (-0.0000023550426, -0.0000016849858, -1), (-9.448057e-7, -5.5748285e-7, -1), (-0.0000011753357, -1.324526e-7, -1), (-4.2491493e-7, -8.804375e-7, -1), (2.0165453e-7, 5.34492e-10, -1), (-3.59143e-8, 2.3273029e-7, -1), (-3.6341686e-7, -1.6699964e-7, -1), (2.0165449e-7, 4.150176e-14, -1), (1.9805347e-7, -5.345055e-10, -1), (1.596959e-7, 1.6281344e-7, -1), (1.08839814e-7, 1.4374093e-7, -1), (-8.5343385e-7, 1.7388447e-7, -1), (-0.0000027799604, -6.306642e-7, -1), (-0.0000011753357, -1.324526e-7, -1), (-6.991149e-7, 5.0920045e-7, -1), (-9.448057e-7, -5.5748285e-7, -1), (-3.6341686e-7, -1.6699964e-7, -1), (-3.2652014e-7, 2.6103714e-7, -1), (-9.871565e-8, 1.1897805e-7, -1), (2.0165453e-7, 5.34492e-10, -1), (2.0165449e-7, 4.150176e-14, -1), (1.08839814e-7, 1.4374093e-7, -1), (-3.59143e-8, 2.3273029e-7, -1), (0.0000015891014, -2.061867e-7, 1), (7.945508e-7, -5.8167205e-7, 1), (1.4279549e-7, -3.2452476e-7, 1), (4.407414e-7, -2.261745e-7, 1), (0, -2.0618674e-7, 1), (-3.972749e-7, 0, 1), (-1.4897263e-7, -1.5348182e-7, 1), (-7.757466e-8, -9.490107e-8, 1), (-3.972749e-7, 0, 1), (3.9727703e-7, -5.932194e-8, 1), (-8.3751544e-8, -1.414374e-7, 1), (-1.4897263e-7, -1.5348182e-7, 1), (-0.0000011918249, -4.348063e-7, 1), (-7.9455043e-7, -2.0618657e-7, 1), (-2.979452e-7, -2.794589e-8, 1), (1.8530951e-8, -4.5476803e-8, 1), (7.945508e-7, -5.8167205e-7, 1), (-3.9727445e-7, -8.696141e-7, 1), (6.1767245e-9, -1.987378e-7, 1), (1.4279549e-7, -3.2452476e-7, 1), (3.9727703e-7, -5.932194e-8, 1), (0.0000015891014, -2.061867e-7, 1), (4.407414e-7, -2.261745e-7, 1), (-8.3751544e-8, -1.414374e-7, 1), (-7.9455043e-7, -2.0618657e-7, 1), (0, -2.0618674e-7, 1), (-7.757466e-8, -9.490107e-8, 1), (-2.979452e-7, -2.794589e-8, 1), (-0.0000023550426, -0.0000016849858, -1), (-4.2491493e-7, -8.804375e-7, -1), (-3.6341686e-7, -1.6699964e-7, -1), (-9.448057e-7, -5.5748285e-7, -1), (-0.70710677, -0.70710677, -5.147666e-7), (-0.7071067, -0.70710695, -5.1476667e-7), (4.5179095e-7, -1, -4.1109695e-7), (2.4643145e-7, -1, -4.1109698e-7), (-3.9727445e-7, -8.696141e-7, 1), (-0.0000011918249, -4.348063e-7, 1), (1.8530951e-8, -4.5476803e-8, 1), (6.1767245e-9, -1.987378e-7, 1), (-0.9836649, -0.18000941, -2.1672989e-7), (-0.5682703, -0.822842, -9.125463e-8), (-0.5682704, -0.8228419, -9.125466e-8), (-0.9836649, -0.18000951, -2.1672992e-7), (-0.5682703, -0.822842, -9.125463e-8), (0.18000907, -0.98366505, 1.8250948e-7), (0.18000896, -0.983665, 1.8250945e-7), (-0.5682704, -0.8228419, -9.125466e-8), (0.18000907, -0.98366505, 1.8250948e-7), (0.82284206, -0.5682702, 3.2509487e-7), (0.822842, -0.56827015, 3.2509485e-7), (0.18000896, -0.983665, 1.8250945e-7), (0.9836649, 0.18000945, 3.3650153e-7), (0.56827044, 0.8228418, 1.1406836e-7), (0.5682703, 0.822842, 1.1406823e-7), (0.9836649, 0.1800094, 3.3650153e-7), (0.56827044, 0.8228418, 1.1406836e-7), (-0.18000932, 0.9836649, -1.7110263e-7), (-0.18000929, 0.9836649, -1.7110261e-7), (0.5682703, 0.822842, 1.1406823e-7), (-0.18000932, 0.9836649, -1.7110263e-7), (-0.8228419, 0.5682703, -2.1672993e-7), (-0.8228418, 0.5682704, -2.1672992e-7), (-0.18000929, 0.9836649, -1.7110261e-7), (-0.8228419, 0.5682703, -2.1672993e-7), (-0.9836649, -0.18000941, -2.1672989e-7), (-0.9836649, -0.18000951, -2.1672992e-7), (-0.8228418, 0.5682704, -2.1672992e-7), (0.9836649, 0.18000923, 3.862107e-7), (0.98366493, 0.1800089, 3.8621084e-7), (0.5682702, 0.82284194, 4.9928293e-9), (0.56826997, 0.8228422, 4.9926654e-9), (0.56826997, 0.8228422, 4.9926654e-9), (0.5682702, 0.82284194, 4.9928293e-9), (-0.18000902, 0.983665, -2.9629498e-7), (-0.1800091, 0.9836649, -2.96295e-7), (-0.1800091, 0.9836649, -2.96295e-7), (-0.18000902, 0.983665, -2.9629498e-7), (-0.8228417, 0.5682706, -4.4493422e-7), (-0.8228417, 0.56827074, -4.4493422e-7), (-0.9836649, -0.18000932, -3.8155846e-7), (-0.9836649, -0.18000951, -3.815584e-7), (-0.56827027, -0.82284194, -4.882623e-8), (-0.5682705, -0.82284176, -4.8826344e-8), (-0.5682705, -0.82284176, -4.8826344e-8), (-0.56827027, -0.82284194, -4.882623e-8), (0.18000928, -0.9836649, 3.1647892e-7), (0.18000916, -0.9836649, 3.1647883e-7), (0.18000916, -0.9836649, 3.1647883e-7), (0.18000928, -0.9836649, 3.1647892e-7), (0.82284176, -0.5682705, 5.136036e-7), (0.8228419, -0.5682704, 5.1360365e-7), (0.8228419, -0.5682704, 5.1360365e-7), (0.82284176, -0.5682705, 5.136036e-7), (0.98366493, 0.1800089, 3.8621084e-7), (0.9836649, 0.18000923, 3.862107e-7), (1.9736764e-7, -9.87946e-10, -1), (1.961811e-7, -5.0400595e-9, -1), (1.9505778e-7, -8.2089935e-10, -1), (1.9695608e-7, 2.0601207e-10, -1), (0.82284206, -0.5682702, 3.2509487e-7), (0.9836649, 0.18000945, 3.3650153e-7), (0.9836649, 0.1800094, 3.3650153e-7), (0.822842, -0.56827015, 3.2509485e-7), (-7.386839e-7, -7.503442e-8, 1), (-3.6316482e-7, -2.502374e-7, 1), (3.7235e-7, -4.347084e-7, 1), (2.4823333e-7, -6.3124126e-8, 1), (1.10185226e-7, -2.7488943e-7, 1), (1.8775953e-7, 7.306558e-8, 1), (6.2058284e-8, 4.442129e-9, 1), (-6.2058334e-8, -3.6714192e-7, 1), (-7.139795e-8, -9.405075e-8, 1), (-3.755201e-7, -1.4770332e-7, 1), (-1.2411662e-7, -1.6364885e-7, 1), (1.2411675e-7, -7.780674e-8, 1), (4.3344147e-7, 8.297892e-7, -1), (-1.2259021e-7, 0.0000010102355, -1), (3.8394649e-7, -8.9105875e-8, -1), (5.908688e-7, 6.797488e-7, -1), (1.961811e-7, -5.0400595e-9, -1), (1.9782786e-7, -4.337569e-9, -1), (1.9553234e-7, -1.7999424e-9, -1), (1.9505778e-7, -8.2089935e-10, -1), (-4.4691782e-7, -8.085877e-8, 1), (-7.386839e-7, -7.503442e-8, 1), (2.4823333e-7, -6.3124126e-8, 1), (0, 3.4566e-8, 1), (-1.2490145e-7, 3.6486307e-7, -1), (1.9736764e-7, -9.87946e-10, -1), (1.9695608e-7, 2.0601207e-10, -1), (2.5817866e-7, 3.063434e-7, -1), (-3.6316482e-7, -2.502374e-7, 1), (1.10185226e-7, -2.7488943e-7, 1), (-6.2058334e-8, -3.6714192e-7, 1), (3.7235e-7, -4.347084e-7, 1), (3.102988e-7, 1.4554558e-7, 1), (-7.139795e-8, -9.405075e-8, 1), (1.2411675e-7, -7.780674e-8, 1), (4.964668e-7, 1.2040788e-7, 1), (1.8775953e-7, 7.306558e-8, 1), (3.102988e-7, 1.4554558e-7, 1), (4.964668e-7, 1.2040788e-7, 1), (6.2058284e-8, 4.442129e-9, 1), (-1.2259021e-7, 0.0000010102355, -1), (-5.626074e-7, 8.577607e-7, -1), (2.4489026e-7, 3.7404153e-8, -1), (3.8394649e-7, -8.9105875e-8, -1), (1.9782786e-7, -4.337569e-9, -1), (3.1733788e-7, 3.1216865e-7, -1), (3.9106448e-7, 4.9914144e-7, -1), (1.9553234e-7, -1.7999424e-9, -1), (3.1733788e-7, 3.1216865e-7, -1), (4.3344147e-7, 8.297892e-7, -1), (5.908688e-7, 6.797488e-7, -1), (3.9106448e-7, 4.9914144e-7, -1), (-3.755201e-7, -1.4770332e-7, 1), (-4.4691782e-7, -8.085877e-8, 1), (0, 3.4566e-8, 1), (-1.2411662e-7, -1.6364885e-7, 1), (1.944523e-7, 5.272241e-10, -1), (1.7104655e-7, 0.0000010798724, -1), (4.3344147e-7, 8.297892e-7, -1), (3.1733788e-7, 3.1216865e-7, -1), (2.0165393e-7, -8.567194e-9, -1), (1.944523e-7, 5.272241e-10, -1), (3.1733788e-7, 3.1216865e-7, -1), (1.9782786e-7, -4.337569e-9, -1), (-9.668618e-7, 0.000002842576, -1), (-0.0000019085194, 0.0000022251052, -1), (-5.626074e-7, 8.577607e-7, -1), (-1.2259021e-7, 0.0000010102355, -1), (-7.63407e-7, 4.6240123e-7, -1), (1.9805361e-7, -2.9780025e-9, -1), (1.9736764e-7, -9.87946e-10, -1), (-1.2490145e-7, 3.6486307e-7, -1), (1.9805337e-7, -1.2072416e-8, -1), (2.0165393e-7, -8.567194e-9, -1), (1.9782786e-7, -4.337569e-9, -1), (1.961811e-7, -5.0400595e-9, -1), (1.7104655e-7, 0.0000010798724, -1), (-9.668618e-7, 0.000002842576, -1), (-1.2259021e-7, 0.0000010102355, -1), (4.3344147e-7, 8.297892e-7, -1), (-5.626074e-7, 8.577607e-7, -1), (-1.2490145e-7, 3.6486307e-7, -1), (2.5817866e-7, 3.063434e-7, -1), (2.4489026e-7, 3.7404153e-8, -1), (1.9805361e-7, -2.9780025e-9, -1), (1.9805337e-7, -1.2072416e-8, -1), (1.961811e-7, -5.0400595e-9, -1), (1.9736764e-7, -9.87946e-10, -1), (-7.9455083e-7, -1.2112571e-7, 1), (-0.0000011918266, -2.7324498e-7, 1), (-4.4691782e-7, -8.085877e-8, 1), (-3.755201e-7, -1.4770332e-7, 1), (3.9727533e-7, 1.8744458e-7, 1), (0, 1.8744481e-7, 1), (3.102988e-7, 1.4554558e-7, 1), (1.8775953e-7, 7.306558e-8, 1), (0, 1.8744481e-7, 1), (-3.9727558e-7, -1.2112581e-7, 1), (-7.139795e-8, -9.405075e-8, 1), (3.102988e-7, 1.4554558e-7, 1), (-0.0000015890904, 5.7231514e-8, 1), (3.9727522e-7, -1.2112592e-7, 1), (1.10185226e-7, -2.7488943e-7, 1), (-3.6316482e-7, -2.502374e-7, 1), (-0.0000011918266, -2.7324498e-7, 1), (-0.0000023836444, -9.4886644e-8, 1), (-7.386839e-7, -7.503442e-8, 1), (-4.4691782e-7, -8.085877e-8, 1), (-3.9727558e-7, -1.2112581e-7, 1), (-7.9455083e-7, -1.2112571e-7, 1), (-3.755201e-7, -1.4770332e-7, 1), (-7.139795e-8, -9.405075e-8, 1), (3.9727522e-7, -1.2112592e-7, 1), (3.9727533e-7, 1.8744458e-7, 1), (1.8775953e-7, 7.306558e-8, 1), (1.10185226e-7, -2.7488943e-7, 1), (-0.0000019085194, 0.0000022251052, -1), (-7.63407e-7, 4.6240123e-7, -1), (-1.2490145e-7, 3.6486307e-7, -1), (-5.626074e-7, 8.577607e-7, -1), (-0.8228417, 0.56827074, -4.4493422e-7), (-0.8228417, 0.5682706, -4.4493422e-7), (-0.9836649, -0.18000951, -3.815584e-7), (-0.9836649, -0.18000932, -3.8155846e-7), (-0.0000023836444, -9.4886644e-8, 1), (-0.0000015890904, 5.7231514e-8, 1), (-3.6316482e-7, -2.502374e-7, 1), (-7.386839e-7, -7.503442e-8, 1), (-0.43289286, 0.9014453, -2.8517096e-7), (-0.94351953, 0.33131692, -8.0203996e-8), (-0.9435194, 0.33131722, -8.02042e-8), (-0.43289316, 0.9014452, -2.85171e-7), (-0.94351953, 0.33131692, -8.0203996e-8), (-0.90144557, -0.43289244, 2.9836016e-7), (-0.9014455, -0.43289253, 2.9836022e-7), (-0.9435194, 0.33131722, -8.02042e-8), (-0.90144557, -0.43289244, 2.9836016e-7), (-0.33131617, -0.9435198, 3.9282278e-7), (-0.33131608, -0.94351983, 3.9282278e-7), (-0.9014455, -0.43289253, 2.9836022e-7), (0.43289357, -0.9014451, 3.7526704e-7), (0.9435197, -0.3313165, 9.223509e-8), (0.9435198, -0.33131623, 9.223491e-8), (0.43289328, -0.90144515, 3.75267e-7), (0.9435197, -0.3313165, 9.223509e-8), (0.9014452, 0.43289328, -2.4596005e-7), (0.90144527, 0.43289307, -2.4596e-7), (0.9435198, -0.33131623, 9.223491e-8), (0.9014452, 0.43289328, -2.4596005e-7), (0.33131644, 0.9435197, -2.6235747e-7), (0.3313165, 0.94351965, -2.6235747e-7), (0.90144527, 0.43289307, -2.4596e-7), (0.33131644, 0.9435197, -2.6235747e-7), (-0.43289286, 0.9014453, -2.8517096e-7), (-0.43289316, 0.9014452, -2.85171e-7), (0.3313165, 0.94351965, -2.6235747e-7), (0.43289304, -0.90144527, 3.1828836e-7), (0.43289274, -0.90144545, 3.1828853e-7), (0.94351983, -0.33131608, -4.648966e-8), (0.9435199, -0.33131585, -4.648976e-8), (0.9435199, -0.33131585, -4.648976e-8), (0.94351983, -0.33131608, -4.648966e-8), (0.9014454, 0.4328929, -3.627077e-7), (0.90144527, 0.43289304, -3.627078e-7), (0.90144527, 0.43289304, -3.627078e-7), (0.9014454, 0.4328929, -3.627077e-7), (0.3313167, 0.9435196, -5.7015694e-7), (0.33131686, 0.9435196, -5.7015694e-7), (-0.4328931, 0.90144527, -4.3809945e-7), (-0.43289337, 0.90144515, -4.380993e-7), (-0.94351965, 0.33131662, -2.6911195e-8), (-0.9435196, 0.33131677, -2.6911279e-8), (-0.9435196, 0.33131677, -2.6911279e-8), (-0.94351965, 0.33131662, -2.6911195e-8), (-0.9014453, -0.432893, 3.658156e-7), (-0.9014453, -0.43289298, 3.6581554e-7), (-0.9014453, -0.43289298, 3.6581554e-7), (-0.9014453, -0.432893, 3.658156e-7), (-0.33131662, -0.94351965, 5.268542e-7), (-0.33131647, -0.9435197, 5.268542e-7), (-0.33131647, -0.9435197, 5.268542e-7), (-0.33131662, -0.94351965, 5.268542e-7), (0.43289274, -0.90144545, 3.1828853e-7), (0.43289304, -0.90144527, 3.1828836e-7), (1.0053432e-7, -2.6899852e-7, -1), (1.894157e-7, -3.97294e-7, -1), (-5.1256038e-8, -4.3910842e-7, -1), (3.9865746e-8, -4.3236057e-7, -1), (-0.33131617, -0.9435198, 3.9282278e-7), (0.43289357, -0.9014451, 3.7526704e-7), (0.43289328, -0.90144515, 3.75267e-7), (-0.33131608, -0.94351983, 3.9282278e-7), (-2.498917e-7, 6.2823887e-7, 1), (-4.1739418e-7, 3.8774016e-7, 1), (-3.1029225e-7, -5.107309e-7, 1), (4.344084e-7, -4.278728e-7, 1), (-7.510396e-7, -2.9045532e-7, 1), (-1.4279524e-7, -1.0809372e-7, 1), (2.482337e-7, 2.8655181e-8, 1), (-2.4823325e-7, -4.2095866e-7, 1), (-4.1507943e-7, 2.4903142e-7, 1), (-4.5309477e-7, 1.5679976e-7, 1), (-2.4823325e-7, 1.6154242e-7, 1), (-2.1720435e-7, 3.017488e-7, 1), (9.672618e-7, -2.8212037e-7, -1), (0.000001126027, 6.721928e-7, -1), (-3.113331e-7, -4.280232e-7, -1), (8.0870745e-7, -6.3534867e-7, -1), (1.894157e-7, -3.97294e-7, -1), (4.368927e-8, -4.4534852e-7, -1), (2.1831385e-8, -4.9825394e-7, -1), (-5.1256038e-8, -4.3910842e-7, -1), (-4.4074136e-7, 5.103116e-7, 1), (-2.498917e-7, 6.2823887e-7, 1), (4.344084e-7, -4.278728e-7, 1), (2.4823353e-7, 1.5722561e-7, 1), (4.888145e-7, 5.0855635e-7, -1), (1.0053432e-7, -2.6899852e-7, -1), (3.9865746e-8, -4.3236057e-7, -1), (7.39416e-7, -4.5522006e-7, -1), (-4.1739418e-7, 3.8774016e-7, 1), (-7.510396e-7, -2.9045532e-7, 1), (-2.4823325e-7, -4.2095866e-7, 1), (-3.1029225e-7, -5.107309e-7, 1), (3.8015216e-8, 5.4440613e-7, 1), (-4.1507943e-7, 2.4903142e-7, 1), (-2.1720435e-7, 3.017488e-7, 1), (3.102914e-8, 6.641877e-7, 1), (-1.4279524e-7, -1.0809372e-7, 1), (3.8015216e-8, 5.4440613e-7, 1), (3.102914e-8, 6.641877e-7, 1), (2.482337e-7, 2.8655181e-8, 1), (0.000001126027, 6.721928e-7, -1), (9.836853e-7, 0.0000014264335, -1), (1.5281927e-7, -3.0618287e-7, -1), (-3.113331e-7, -4.280232e-7, -1), (4.368927e-8, -4.4534852e-7, -1), (2.9091814e-7, -3.5348444e-7, -1), (6.463951e-7, -5.4979444e-7, -1), (2.1831385e-8, -4.9825394e-7, -1), (2.9091814e-7, -3.5348444e-7, -1), (9.672618e-7, -2.8212037e-7, -1), (8.0870745e-7, -6.3534867e-7, -1), (6.463951e-7, -5.4979444e-7, -1), (-4.5309477e-7, 1.5679976e-7, 1), (-4.4074136e-7, 5.103116e-7, 1), (2.4823353e-7, 1.5722561e-7, 1), (-2.4823325e-7, 1.6154242e-7, 1), (-3.0157992e-7, -2.6281128e-8, -1), (0.0000012315367, 3.0662903e-7, -1), (9.672618e-7, -2.8212037e-7, -1), (2.9091814e-7, -3.5348444e-7, -1), (8.01214e-8, -3.5716752e-7, -1), (-3.0157992e-7, -2.6281128e-8, -1), (2.9091814e-7, -3.5348444e-7, -1), (4.368927e-8, -4.4534852e-7, -1), (0.0000035217633, 0.000002505984, -1), (0.0000023685534, 0.000004314303, -1), (9.836853e-7, 0.0000014264335, -1), (0.000001126027, 6.721928e-7, -1), (7.111931e-8, 0.0000021149417, -1), (2.0165461e-7, 3.2882252e-9, -1), (1.0053432e-7, -2.6899852e-7, -1), (4.888145e-7, 5.0855635e-7, -1), (5.90558e-7, -3.275976e-7, -1), (8.01214e-8, -3.5716752e-7, -1), (4.368927e-8, -4.4534852e-7, -1), (1.894157e-7, -3.97294e-7, -1), (0.0000012315367, 3.0662903e-7, -1), (0.0000035217633, 0.000002505984, -1), (0.000001126027, 6.721928e-7, -1), (9.672618e-7, -2.8212037e-7, -1), (9.836853e-7, 0.0000014264335, -1), (4.888145e-7, 5.0855635e-7, -1), (7.39416e-7, -4.5522006e-7, -1), (1.5281927e-7, -3.0618287e-7, -1), (2.0165461e-7, 3.2882252e-9, -1), (5.90558e-7, -3.275976e-7, -1), (1.894157e-7, -3.97294e-7, -1), (1.0053432e-7, -2.6899852e-7, -1), (-7.945502e-7, 1.4889473e-7, 1), (-0.0000015891039, 0.0000010988255, 1), (-4.4074136e-7, 5.103116e-7, 1), (-4.5309477e-7, 1.5679976e-7, 1), (-7.945508e-7, -3.3602385e-7, 1), (4.9659427e-8, 3.4475806e-7, 1), (3.8015216e-8, 5.4440613e-7, 1), (-1.4279524e-7, -1.0809372e-7, 1), (4.9659427e-8, 3.4475806e-7, 1), (-7.448907e-7, 1.6116368e-7, 1), (-4.1507943e-7, 2.4903142e-7, 1), (3.8015216e-8, 5.4440613e-7, 1), (-5.95916e-7, 0.0000018852799, 1), (-0.0000015891011, -7.293806e-8, 1), (-7.510396e-7, -2.9045532e-7, 1), (-4.1739418e-7, 3.8774016e-7, 1), (-0.0000015891039, 0.0000010988255, 1), (-0.0000013904687, 0.0000023885304, 1), (-2.498917e-7, 6.2823887e-7, 1), (-4.4074136e-7, 5.103116e-7, 1), (-7.448907e-7, 1.6116368e-7, 1), (-7.945502e-7, 1.4889473e-7, 1), (-4.5309477e-7, 1.5679976e-7, 1), (-4.1507943e-7, 2.4903142e-7, 1), (-0.0000015891011, -7.293806e-8, 1), (-7.945508e-7, -3.3602385e-7, 1), (-1.4279524e-7, -1.0809372e-7, 1), (-7.510396e-7, -2.9045532e-7, 1), (0.0000023685534, 0.000004314303, -1), (7.111931e-8, 0.0000021149417, -1), (4.888145e-7, 5.0855635e-7, -1), (9.836853e-7, 0.0000014264335, -1), (0.33131686, 0.9435196, -5.7015694e-7), (0.3313167, 0.9435196, -5.7015694e-7), (-0.43289337, 0.90144515, -4.380993e-7), (-0.4328931, 0.90144527, -4.3809945e-7), (-0.0000013904687, 0.0000023885304, 1), (-5.95916e-7, 0.0000018852799, 1), (-4.1739418e-7, 3.8774016e-7, 1), (-2.498917e-7, 6.2823887e-7, 1), (-0.43289304, 0.90144527, -2.629429e-7), (-0.9435196, 0.3313167, -6.582288e-8), (-0.9435196, 0.33131695, -6.5823045e-8), (-0.4328934, 0.90144515, -2.6294296e-7), (-0.9435196, 0.3313167, -6.582288e-8), (-0.90144557, -0.43289247, 3.0901057e-7), (-0.90144557, -0.43289244, 3.0901055e-7), (-0.9435196, 0.33131695, -6.5823045e-8), (-0.90144557, -0.43289247, 3.0901057e-7), (-0.33131623, -0.9435198, 3.692389e-7), (-0.3313162, -0.9435198, 3.6923888e-7), (-0.90144557, -0.43289244, 3.0901055e-7), (0.43289357, -0.90144503, 3.2727982e-7), (0.9435197, -0.33131635, 8.6015994e-8), (0.9435198, -0.33131614, 8.601586e-8), (0.43289328, -0.90144515, 3.272798e-7), (0.9435197, -0.33131635, 8.6015994e-8), (0.9014451, 0.43289337, -2.2448053e-7), (0.9014452, 0.43289328, -2.2448054e-7), (0.9435198, -0.33131614, 8.601586e-8), (0.9014451, 0.43289337, -2.2448053e-7), (0.33131632, 0.9435197, -2.405649e-7), (0.3313164, 0.9435198, -2.4056493e-7), (0.9014452, 0.43289328, -2.2448054e-7), (0.33131632, 0.9435197, -2.405649e-7), (-0.43289304, 0.90144527, -2.629429e-7), (-0.4328934, 0.90144515, -2.6294296e-7), (0.3313164, 0.9435198, -2.4056493e-7), (0.43289313, -0.90144527, 3.6829974e-7), (0.43289274, -0.90144545, 3.6829994e-7), (0.9435198, -0.3313162, -4.0890658e-8), (0.94351983, -0.3313159, -4.0890782e-8), (0.94351983, -0.3313159, -4.0890782e-8), (0.9435198, -0.3313162, -4.0890658e-8), (0.9014454, 0.43289286, -3.7190037e-7), (0.9014453, 0.43289298, -3.7190046e-7), (0.9014453, 0.43289298, -3.7190046e-7), (0.9014454, 0.43289286, -3.7190037e-7), (0.3313167, 0.94351965, -5.7095554e-7), (0.33131674, 0.9435196, -5.709555e-7), (-0.43289298, 0.9014453, -4.287367e-7), (-0.43289316, 0.9014452, -4.2873663e-7), (-0.94351953, 0.33131668, -2.7885783e-8), (-0.9435195, 0.33131695, -2.7885914e-8), (-0.9435195, 0.33131695, -2.7885914e-8), (-0.94351953, 0.33131668, -2.7885783e-8), (-0.90144527, -0.4328931, 3.498186e-7), (-0.90144527, -0.43289304, 3.498186e-7), (-0.90144527, -0.43289304, 3.498186e-7), (-0.90144527, -0.4328931, 3.498186e-7), (-0.33131653, -0.94351965, 5.5721284e-7), (-0.3313164, -0.94351965, 5.5721284e-7), (-0.3313164, -0.94351965, 5.5721284e-7), (-0.33131653, -0.94351965, 5.5721284e-7), (0.43289274, -0.90144545, 3.6829994e-7), (0.43289313, -0.90144527, 3.6829974e-7), (-3.4568146e-7, -2.479952e-7, -1), (-6.913596e-7, -3.639203e-7, -1), (0, -4.0110893e-7, -1), (0, -3.9678324e-7, -1), (-0.33131623, -0.9435198, 3.692389e-7), (0.43289357, -0.90144503, 3.2727982e-7), (0.43289328, -0.90144515, 3.272798e-7), (-0.3313162, -0.9435198, 3.6923888e-7), (2.2809124e-7, 6.5962075e-7, 1), (-9.883936e-7, 2.802423e-7, 1), (-8.067592e-7, -9.4064904e-7, 1), (1.8617493e-7, -8.553401e-7, 1), (-9.061898e-7, -5.414234e-7, 1), (0.0000012164857, -1.757693e-7, 1), (9.929336e-7, -1.4541168e-7, 1), (-4.9646616e-7, -6.888045e-7, 1), (-2.5211773e-7, -3.6323705e-8, 1), (-9.0618954e-7, -5.0508067e-8, 1), (-4.9646644e-7, -8.081105e-8, 1), (-4.0337943e-7, -5.8116633e-8, 1), (0.0000016445381, -3.0995884e-7, -1), (0.0000017284088, 5.9734316e-7, -1), (3.8601603e-13, -4.235635e-7, -1), (9.71967e-7, -6.635138e-7, -1), (-6.913596e-7, -3.639203e-7, -1), (-1.1227533e-7, -3.9642643e-7, -1), (-7.593479e-8, -4.4565493e-7, -1), (0, -4.0110893e-7, -1), (-5.958906e-7, 5.1587915e-7, 1), (2.2809124e-7, 6.5962075e-7, 1), (1.8617493e-7, -8.553401e-7, 1), (0, -5.3618347e-8, 1), (7.806874e-7, 4.7604914e-7, -1), (-3.4568146e-7, -2.479952e-7, -1), (0, -3.9678324e-7, -1), (5.922918e-7, -4.0952483e-7, -1), (-9.883936e-7, 2.802423e-7, 1), (-9.061898e-7, -5.414234e-7, 1), (-4.9646616e-7, -6.888045e-7, 1), (-8.067592e-7, -9.4064904e-7, 1), (9.643675e-7, 5.163387e-7, 1), (-2.5211773e-7, -3.6323705e-8, 1), (-4.0337943e-7, -5.8116633e-8, 1), (5.8955425e-7, 4.2715976e-7, 1), (0.0000012164857, -1.757693e-7, 1), (9.643675e-7, 5.163387e-7, 1), (5.8955425e-7, 4.2715976e-7, 1), (9.929336e-7, -1.4541168e-7, 1), (0.0000017284088, 5.9734316e-7, -1), (8.2262216e-7, 0.0000013348263, -1), (1.06308676e-7, -2.472043e-7, -1), (3.8601603e-13, -4.235635e-7, -1), (-1.1227533e-7, -3.9642643e-7, -1), (1.9147116e-7, -3.2902125e-7, -1), (4.1004787e-7, -5.18959e-7, -1), (-7.593479e-8, -4.4565493e-7, -1), (1.9147116e-7, -3.2902125e-7, -1), (0.0000016445381, -3.0995884e-7, -1), (9.71967e-7, -6.635138e-7, -1), (4.1004787e-7, -5.18959e-7, -1), (-9.0618954e-7, -5.0508067e-8, 1), (-5.958906e-7, 5.1587915e-7, 1), (0, -5.3618347e-8, 1), (-4.9646644e-7, -8.081105e-8, 1), (-1.7284647e-7, -1.2438932e-8, -1), (0.0000027655565, 2.7933515e-7, -1), (0.0000016445381, -3.0995884e-7, -1), (1.9147116e-7, -3.2902125e-7, -1), (-1.728467e-7, -3.143736e-7, -1), (-1.7284647e-7, -1.2438932e-8, -1), (1.9147116e-7, -3.2902125e-7, -1), (-1.1227533e-7, -3.9642643e-7, -1), (0.0000046092673, 0.000002298944, -1), (0.000002016557, 0.000003971706, -1), (8.2262216e-7, 0.0000013348263, -1), (0.0000017284088, 5.9734316e-7, -1), (0.0000010946981, 0.000001952091, -1), (-9.218473e-7, 0, -1), (-3.4568146e-7, -2.479952e-7, -1), (7.806874e-7, 4.7604914e-7, -1), (-0.0000018437013, -3.019345e-7, -1), (-1.728467e-7, -3.143736e-7, -1), (-1.1227533e-7, -3.9642643e-7, -1), (-6.913596e-7, -3.639203e-7, -1), (0.0000027655565, 2.7933515e-7, -1), (0.0000046092673, 0.000002298944, -1), (0.0000017284088, 5.9734316e-7, -1), (0.0000016445381, -3.0995884e-7, -1), (8.2262216e-7, 0.0000013348263, -1), (7.806874e-7, 4.7604914e-7, -1), (5.922918e-7, -4.0952483e-7, -1), (1.06308676e-7, -2.472043e-7, -1), (-9.218473e-7, 0, -1), (-0.0000018437013, -3.019345e-7, -1), (-6.913596e-7, -3.639203e-7, -1), (-3.4568146e-7, -2.479952e-7, -1), (-0.0000015891004, 0, 1), (-0.0000015891005, 0.0000014650996, 1), (-5.958906e-7, 5.1587915e-7, 1), (-9.0618954e-7, -5.0508067e-8, 1), (0.0000015890913, -2.2637147e-7, 1), (0.0000015890907, 6.6497853e-7, 1), (9.643675e-7, 5.163387e-7, 1), (0.0000012164857, -1.757693e-7, 1), (0.0000015890907, 6.6497853e-7, 1), (0, 0, 1), (-2.5211773e-7, -3.6323705e-8, 1), (9.643675e-7, 5.163387e-7, 1), (-0.0000012911515, 0.00000231518, 1), (-0.0000015891006, -2.957762e-7, 1), (-9.061898e-7, -5.414234e-7, 1), (-9.883936e-7, 2.802423e-7, 1), (-0.0000015891005, 0.0000014650996, 1), (2.9795456e-7, 0.0000031847062, 1), (2.2809124e-7, 6.5962075e-7, 1), (-5.958906e-7, 5.1587915e-7, 1), (0, 0, 1), (-0.0000015891004, 0, 1), (-9.0618954e-7, -5.0508067e-8, 1), (-2.5211773e-7, -3.6323705e-8, 1), (-0.0000015891006, -2.957762e-7, 1), (0.0000015890913, -2.2637147e-7, 1), (0.0000012164857, -1.757693e-7, 1), (-9.061898e-7, -5.414234e-7, 1), (0.000002016557, 0.000003971706, -1), (0.0000010946981, 0.000001952091, -1), (7.806874e-7, 4.7604914e-7, -1), (8.2262216e-7, 0.0000013348263, -1), (0.33131674, 0.9435196, -5.709555e-7), (0.3313167, 0.94351965, -5.7095554e-7), (-0.43289316, 0.9014452, -4.2873663e-7), (-0.43289298, 0.9014453, -4.287367e-7), (2.9795456e-7, 0.0000031847062, 1), (-0.0000012911515, 0.00000231518, 1), (-9.883936e-7, 2.802423e-7, 1), (2.2809124e-7, 6.5962075e-7, 1)] (
                interpolation = "faceVarying"
            )
            point3f[] points = [(-0.079801135, -0.048598997, 0.18766993), (-0.07980114, -0.048598938, 0.0020044732), (-0.10728542, -0.059983343, 0.18766993), (-0.10728538, -0.059983287, 0.0020044679), (-0.11866975, -0.08746758, 0.18766992), (-0.11866971, -0.08746752, 0.0020044658), (-0.10728541, -0.11495181, 0.18766992), (-0.10728537, -0.11495175, 0.0020044679), (-0.07980113, -0.12633616, 0.18766992), (-0.079801135, -0.1263361, 0.0020044732), (-0.0523169, -0.114951804, 0.18766992), (-0.052316863, -0.11495174, 0.0020044786), (-0.04093256, -0.087467566, 0.18766993), (-0.04093252, -0.08746751, 0.002004481), (-0.052316908, -0.059983335, 0.18766993), (-0.05231687, -0.05998328, 0.0020044786), (-0.07980119, -0.00002934328, 0.18766995), (-0.14162935, -0.02563942, 0.18766992), (-0.14162928, -0.025639338, 0.002004526), (-0.079801105, -0.00002926234, 0.0020045056), (-0.1672394, -0.087467596, 0.18766995), (-0.16723932, -0.08746752, 0.0020044886), (-0.14162934, -0.14929575, 0.18766993), (-0.14162926, -0.14929569, 0.0020044937), (-0.07980112, -0.17490582, 0.18766992), (-0.07980108, -0.17490575, 0.0020044732), (-0.017972996, -0.14929573, 0.18766992), (-0.017972915, -0.14929566, 0.0020044527), (0.0076370994, -0.08746757, 0.18766993), (0.007637135, -0.08746749, 0.0020044902), (-0.017973013, -0.025639411, 0.18766995), (-0.017972931, -0.025639335, 0.0020044853), (-0.032629713, -0.08746751, 0.0020044826), (-0.046445895, -0.120822705, 0.0020044798), (-0.079801135, -0.1346389, 0.0020044732), (-0.11315634, -0.12082272, 0.002004499), (-0.12697248, -0.08746752, 0.0020044965), (-0.11315635, -0.05411231, 0.0020044667), (-0.046445902, -0.054112308, 0.0020044798), (-0.07980114, -0.040296134, 0.0020044732), (-0.11400346, -0.12166988, 0.18766992), (-0.07980112, -0.13583693, 0.1876699), (-0.114003465, -0.053265277, 0.18766993), (-0.1281705, -0.08746758, 0.18766992), (-0.03143181, -0.08746757, 0.18766995), (-0.04559886, -0.053265274, 0.18766993), (-0.04559885, -0.121669866, 0.18766992), (-0.079801135, -0.039098218, 0.18766993), (-0.018563574, 0.09589259, 0.18766995), (-0.018563537, 0.09589261, 0.002004485), (-0.03470941, 0.120878614, 0.18766993), (-0.03470933, 0.120878585, 0.002004482), (-0.06379395, 0.12712958, 0.18766993), (-0.06379387, 0.12712955, 0.0020044765), (-0.088779934, 0.11098379, 0.18766992), (-0.0887799, 0.11098376, 0.0020044716), (-0.095030904, 0.08189918, 0.18766993), (-0.09503083, 0.081899196, 0.0020044704), (-0.07888511, 0.0569132, 0.18766993), (-0.07888503, 0.056913167, 0.0020044735), (-0.049800526, 0.050662246, 0.18766993), (-0.04980049, 0.050662212, 0.002004479), (-0.024814537, 0.06680803, 0.18766995), (-0.024814501, 0.066808015, 0.002004484), (0.029212685, 0.104635626, 0.18766995), (-0.0071087107, 0.16084376, 0.18766993), (-0.007108588, 0.1608437, 0.0020045522), (0.029212764, 0.104635544, 0.0020044944), (-0.072536916, 0.17490579, 0.18766995), (-0.07253683, 0.17490576, 0.0020044746), (-0.1287451, 0.1385845, 0.18766993), (-0.128745, 0.13858443, 0.002004496), (-0.14280716, 0.07315619, 0.18766992), (-0.14280708, 0.07315618, 0.0020044611), (-0.106485814, 0.016948085, 0.18766992), (-0.10648573, 0.01694802, 0.002004468), (-0.041057557, 0.0028859654, 0.18766993), (-0.04105748, 0.0028859412, 0.002004481), (0.015150571, 0.039207365, 0.18766995), (0.015150651, 0.03920729, 0.0020044919), (-0.048305884, 0.04249502, 0.0020044795), (-0.08360326, 0.050081287, 0.0020044725), (-0.103198014, 0.08040461, 0.0020044688), (-0.09561178, 0.115701996, 0.0020045026), (-0.06528847, 0.13529669, 0.0020045084), (-0.029991094, 0.12771049, 0.002004483), (-0.017982585, 0.062089756, 0.0020044853), (-0.010396358, 0.09738719, 0.0020044867), (-0.096597604, 0.11638278, 0.18766992), (-0.10437648, 0.08018895, 0.1876699), (-0.029310385, 0.12869625, 0.18766993), (-0.06550418, 0.13647513, 0.18766993), (-0.048090294, 0.041316684, 0.18766993), (-0.016996918, 0.061409038, 0.18766995), (-0.08428409, 0.04909557, 0.18766993), (-0.009217996, 0.097602814, 0.18766995), (0.10156563, -0.059572253, 0.18766993), (0.10156567, -0.059572287, 0.002004476), (0.121412985, -0.037412103, 0.1876699), (0.121412985, -0.0374122, 0.00200448), (0.11977767, -0.0077083926, 0.18766995), (0.11977762, -0.0077084815, 0.0020044795), (0.09761755, 0.012138934, 0.18766989), (0.097617544, 0.012138885, 0.002004443), (0.06791376, 0.010503551, 0.18766993), (0.0679138, 0.010503477, 0.0020044695), (0.048066452, -0.011656538, 0.18766993), (0.048066445, -0.011656626, 0.0020044656), (0.049701855, -0.041360293, 0.18766993), (0.049701802, -0.04136034, 0.002004466), (0.07186193, -0.06120762, 0.18766995), (0.07186192, -0.06120766, 0.0020045028), (0.122591175, -0.103355125, 0.18766996), (0.16723943, -0.05350403, 0.1876699), (0.16723937, -0.05350417, 0.0020045538), (0.122591086, -0.10335522, 0.0020045128), (0.16356046, 0.013317037, 0.18766995), (0.16356046, 0.013316956, 0.0020044558), (0.11370949, 0.05796538, 0.18766993), (0.113709435, 0.057965264, 0.002004511), (0.046888307, 0.05428643, 0.18766992), (0.0468883, 0.054286335, 0.002004433), (0.0022400578, 0.004435401, 0.18766992), (0.0022400073, 0.0044353036, 0.0020044567), (0.005918922, -0.06238574, 0.18766993), (0.0059189145, -0.06238583, 0.00200449), (0.05577, -0.107034005, 0.18766995), (0.05576995, -0.1070341, 0.0020044998), (0.042217284, -0.044954594, 0.0020044644), (0.04023258, -0.008905778, 0.0020044642), (0.06431959, 0.017988, 0.0020044688), (0.10036837, 0.019972717, 0.0020045084), (0.1272621, -0.0041142385, 0.0020045135), (0.12924685, -0.040163048, 0.0020044814), (0.06911106, -0.06904156, 0.0020045023), (0.10515988, -0.06705681, 0.0020044767), (0.10076527, 0.021103123, 0.18766989), (0.06380097, 0.019067986, 0.18766989), (0.13037717, -0.040559888, 0.1876699), (0.12834206, -0.0035955848, 0.18766995), (0.041137435, -0.045473114, 0.18766993), (0.068714164, -0.07017177, 0.18766995), (0.03910231, -0.0085088005, 0.18766993), (0.10567847, -0.06813668, 0.18766993), (-0.012868468, -0.042507518, 0.37671223), (-0.01286843, -0.04250756, 0.18743308), (0.00697889, -0.02034737, 0.37671217), (0.006978883, -0.020347467, 0.18743308), (0.005343574, 0.009356343, 0.37671223), (0.0053435243, 0.009356245, 0.18743308), (-0.016816545, 0.02920367, 0.37671217), (-0.016816555, 0.029203622, 0.18743305), (-0.046520337, 0.027568279, 0.37671223), (-0.0465203, 0.027568214, 0.18743306), (-0.06636765, 0.00540819, 0.37671223), (-0.066367656, 0.005408109, 0.18743306), (-0.064732246, -0.024295565, 0.37671223), (-0.06473229, -0.024295613, 0.18743306), (-0.042572167, -0.044142894, 0.37671223), (-0.042572174, -0.044142935, 0.1874331), (0.008157079, -0.0862904, 0.37671223), (0.05280533, -0.0364393, 0.37671217), (0.05280528, -0.036439437, 0.18743317), (0.008156985, -0.08629049, 0.18743311), (0.049126375, 0.030381773, 0.37671223), (0.049126368, 0.030381693, 0.18743306), (-0.0007246129, 0.07503011, 0.37671223), (-0.0007246629, 0.07503, 0.18743311), (-0.067545794, 0.07135117, 0.37671223), (-0.0675458, 0.07135107, 0.18743303), (-0.11219405, 0.021500137, 0.3767122), (-0.1121941, 0.02150004, 0.18743306), (-0.10851518, -0.045321014, 0.3767122), (-0.10851519, -0.045321103, 0.1874331), (-0.058664102, -0.08996928, 0.37671223), (-0.058664154, -0.089969374, 0.1874331), (-0.072216816, -0.027889863, 0.18743306), (-0.07420152, 0.008158958, 0.18743306), (-0.050114512, 0.035052724, 0.18743306), (-0.01406573, 0.03703745, 0.18743311), (0.012828002, 0.012950489, 0.18743311), (0.014812747, -0.023098316, 0.18743308), (-0.045323044, -0.05197682, 0.1874331), (-0.009274217, -0.04999208, 0.18743308), (-0.013668827, 0.03816786, 0.37671217), (-0.050633132, 0.03613272, 0.37671217), (0.015943075, -0.023495156, 0.37671217), (0.013907953, 0.013469151, 0.37671223), (-0.073296666, -0.028408378, 0.37671223), (-0.045719933, -0.053107046, 0.37671223), (-0.07533179, 0.008555935, 0.37671223), (-0.008755626, -0.051071946, 0.37671223)]
            uniform token subdivisionScheme = "none"
            uniform token subsetFamily:materialBind:familyType = "nonOverlapping"
            custom string userProperties:blender:data_name = "Cylinder.010"

            def GeomSubset "White" (
                prepend apiSchemas = ["MaterialBindingAPI"]
            )
            {
                uniform token elementType = "face"
                uniform token familyName = "materialBind"
                int[] indices = [7, 8, 9, 10, 11, 12, 13, 14, 16, 17, 18, 19, 20, 21, 22, 23, 24, 25, 26, 27, 28, 29, 36, 46, 55, 56, 57, 58, 59, 60, 61, 62, 64, 65, 66, 67, 68, 69, 70, 71, 72, 73, 74, 75, 76, 77, 84, 94, 103, 104, 105, 106, 107, 108, 109, 110, 112, 113, 114, 115, 116, 117, 118, 119, 120, 121, 122, 123, 124, 125, 132, 142, 151, 152, 153, 154, 155, 156, 157, 158, 160, 161, 162, 163, 164, 165, 166, 167, 168, 169, 170, 171, 172, 173, 180, 190]
                rel material:binding = </root/_materials/White>
            }

            def GeomSubset "Brown" (
                prepend apiSchemas = ["MaterialBindingAPI"]
            )
            {
                uniform token elementType = "face"
                uniform token familyName = "materialBind"
                int[] indices = [0, 1, 2, 3, 4, 5, 6, 15, 30, 31, 32, 33, 34, 35, 37, 38, 39, 40, 41, 42, 43, 44, 45, 47, 48, 49, 50, 51, 52, 53, 54, 63, 78, 79, 80, 81, 82, 83, 85, 86, 87, 88, 89, 90, 91, 92, 93, 95, 96, 97, 98, 99, 100, 101, 102, 111, 126, 127, 128, 129, 130, 131, 133, 134, 135, 136, 137, 138, 139, 140, 141, 143, 144, 145, 146, 147, 148, 149, 150, 159, 174, 175, 176, 177, 178, 179, 181, 182, 183, 184, 185, 186, 187, 188, 189, 191]
                rel material:binding = </root/_materials/Brown>
            }
        }
    }

    def Scope "_materials"
    {
        def Material "White"
        {
            token outputs:surface.connect = </root/_materials/White/Principled_BSDF.outputs:surface>
            custom string userProperties:blender:data_name = "White"

            def Shader "Principled_BSDF"
            {
                uniform token info:id = "UsdPreviewSurface"
                float inputs:clearcoat = 0
                float inputs:clearcoatRoughness = 0.03
                color3f inputs:diffuseColor = (0.4479754, 0.44329065, 0.4294085)
                float inputs:ior = 1.5
                float inputs:metallic = 0
                float inputs:opacity = 1
                float inputs:roughness = 0.6900348
                float inputs:specular = 0.5
                token outputs:surface
            }
        }

        def Material "Brown"
        {
            token outputs:surface.connect = </root/_materials/Brown/Principled_BSDF.outputs:surface>
            custom string userProperties:blender:data_name = "Brown"

            def Shader "Principled_BSDF"
            {
                uniform token info:id = "UsdPreviewSurface"
                float inputs:clearcoat = 0
                float inputs:clearcoatRoughness = 0.03
                color3f inputs:diffuseColor = (0.114435375, 0.08865559, 0.056128494)
                float inputs:ior = 1.5
                float inputs:metallic = 0
                float inputs:opacity = 1
                float inputs:roughness = 0.6900348
                float inputs:specular = 0.5
                token outputs:surface
            }
        }
    }
}

