#usda 1.0
(
    defaultPrim = "root"
    doc = "Blender v5.1.2"
    metersPerUnit = 1
    upAxis = "Y"
)

def Xform "root" (
    customData = {
        dictionary Blender = {
            bool generated = 1
        }
    }
)
{
    float3 xformOp:rotateXYZ = (-90, -0, 0)
    uniform token[] xformOpOrder = ["xformOp:rotateXYZ"]

    def Xform "Couch_Medium2"
    {
        custom string userProperties:blender:object_name = "Couch_Medium2"

        def Mesh "Cube_047" (
            active = true
            prepend apiSchemas = ["MaterialBindingAPI"]
        )
        {
            uniform bool doubleSided = 1
            float3[] extent = [(-2.2593315, -1.0538627, 1.0594198e-7), (2.2593315, 0.9456151, 1.9593426)]
            int[] faceVertexCounts = [4, 4, 4, 4, 4, 4, 4, 4, 4, 4, 4, 4, 4, 4, 4, 4, 4, 4, 4, 4, 4, 4, 4, 4, 4, 4, 4, 4, 4, 4, 4, 4, 4, 4, 4, 4, 4, 4, 4, 4, 4, 4, 4, 4, 4, 4, 4, 4, 4, 4, 4, 4, 4, 4, 4, 4, 4, 4, 4, 4, 4, 4, 4, 4, 4, 4, 4, 4, 4, 4, 4, 4, 4, 4, 4, 4, 4, 4, 4, 4, 4, 4, 4, 4, 4, 4, 4, 4, 4, 4, 4, 4, 4, 4, 4, 4, 4, 4, 4, 4, 4, 4, 4, 4, 4, 4, 4, 4, 4, 4, 4, 4, 4, 4, 4, 4, 4, 4, 4, 4, 4, 4, 4, 4, 4, 4, 4, 4, 4, 4, 4, 4, 4, 4, 4, 4, 4, 4, 4, 4, 4, 4, 4, 4, 4, 4, 4, 4, 4, 4, 4, 4, 4, 4, 4, 4, 4, 4, 4, 4, 4, 4, 4, 4, 4, 4, 4, 4, 4, 4, 4, 4, 4, 4, 4, 4, 4, 4, 4, 4, 4, 4, 4, 4, 4, 4, 4, 4, 4, 4, 4, 4, 4, 4, 4, 4, 4, 4, 4, 4, 4, 4, 4, 4, 4, 4, 4, 4, 4, 4, 4, 4, 4, 4, 4, 4, 4, 4, 4, 4, 4, 4, 4, 4, 4, 4, 4, 4, 4, 4, 4, 4, 4, 4, 4, 4, 4, 4, 4, 4, 4, 4, 4, 4, 4, 4, 4, 4, 4, 4, 4, 4, 4, 4, 4, 4, 4, 4, 4, 4, 4, 4, 4, 4, 4, 4, 4, 4, 4, 4, 4, 4, 4, 4, 4, 4, 4, 4, 4, 4, 4, 4, 4, 4, 4, 4, 4, 4, 4, 4, 4, 4, 4, 4, 4, 4, 4, 4, 4, 4, 4, 4, 4, 4, 4, 4, 4, 4, 4, 4, 4, 4, 4, 4, 4, 4, 4, 4, 4, 4, 4, 4, 4, 4, 4, 4, 4, 4, 4, 4, 4, 4, 4, 4, 4, 4, 4, 4, 4, 4, 4, 4, 4, 4, 4, 4, 4, 4, 4, 4, 4, 4, 3, 3, 3, 3, 4, 4, 4, 4, 4, 4, 4, 4, 4, 4, 4, 4, 4, 4, 4, 4, 4, 4, 4, 4, 4, 4, 4, 4, 4, 4, 4, 4, 4, 4, 4, 4, 4, 4, 4, 4, 4, 4, 4, 4, 4, 4, 4, 4, 4, 4, 4, 4, 4, 4, 4, 4, 4, 4, 4, 4, 4, 4, 4, 4, 4, 4, 4, 4, 4, 4, 4, 4, 4, 4, 4, 3, 3, 3, 3, 4, 4, 4, 4, 4, 4, 4, 4, 4, 4, 4, 4, 4, 4, 4, 4, 4, 4, 4, 4, 4, 4, 4, 4, 4, 4, 4, 4, 4, 4, 4, 4, 4, 4, 4]
            int[] faceVertexIndices = [38, 18, 29, 51, 76, 30, 47, 0, 24, 41, 9, 68, 23, 35, 46, 31, 25, 69, 80, 33, 44, 20, 59, 15, 65, 11, 34, 22, 14, 17, 39, 36, 41, 43, 12, 9, 58, 21, 27, 71, 0, 47, 49, 3, 43, 44, 15, 12, 32, 81, 2, 52, 3, 49, 50, 6, 52, 2, 5, 54, 64, 23, 31, 77, 35, 37, 48, 46, 37, 38, 51, 48, 45, 42, 55, 56, 12, 15, 16, 13, 13, 16, 17, 14, 42, 40, 53, 55, 9, 12, 13, 10, 10, 13, 14, 11, 57, 8, 70, 26, 8, 7, 72, 70, 69, 66, 79, 80, 15, 59, 61, 16, 5, 4, 7, 8, 4, 3, 6, 7, 54, 5, 8, 57, 2, 1, 4, 5, 1, 0, 3, 4, 11, 14, 36, 34, 81, 78, 1, 2, 40, 25, 33, 53, 68, 9, 10, 67, 67, 10, 11, 65, 17, 62, 19, 39, 66, 64, 77, 79, 16, 61, 62, 17, 6, 50, 28, 75, 7, 6, 75, 72, 78, 76, 0, 1, 21, 45, 56, 27, 60, 58, 71, 73, 63, 60, 73, 74, 63, 18, 19, 62, 39, 19, 18, 38, 45, 21, 20, 44, 69, 25, 24, 68, 75, 28, 29, 74, 51, 29, 28, 50, 57, 26, 27, 56, 81, 32, 33, 80, 22, 34, 35, 23, 34, 36, 37, 35, 36, 39, 38, 37, 25, 40, 41, 24, 40, 42, 43, 41, 42, 45, 44, 43, 31, 46, 47, 30, 46, 48, 49, 47, 48, 51, 50, 49, 32, 52, 53, 33, 52, 54, 55, 53, 54, 57, 56, 55, 21, 58, 59, 20, 58, 60, 61, 59, 60, 63, 62, 61, 23, 64, 65, 22, 64, 66, 67, 65, 66, 69, 68, 67, 26, 70, 71, 27, 70, 72, 73, 71, 72, 75, 74, 73, 30, 76, 77, 31, 76, 78, 79, 77, 78, 81, 80, 79, 18, 63, 74, 29, 117, 96, 127, 91, 144, 106, 119, 82, 100, 115, 88, 136, 99, 111, 118, 107, 101, 137, 148, 109, 97, 116, 125, 103, 133, 90, 110, 98, 113, 94, 105, 120, 115, 117, 91, 88, 126, 97, 103, 139, 82, 119, 121, 85, 108, 149, 84, 122, 235, 293, 290, 236, 122, 84, 87, 124, 132, 99, 107, 145, 111, 113, 120, 118, 124, 87, 138, 102, 92, 129, 130, 93, 112, 95, 94, 113, 116, 114, 123, 125, 88, 91, 92, 89, 89, 92, 93, 90, 104, 143, 85, 121, 91, 127, 129, 92, 137, 134, 147, 148, 87, 86, 140, 138, 84, 83, 86, 87, 83, 82, 85, 86, 90, 93, 112, 110, 149, 146, 83, 84, 114, 101, 109, 123, 136, 88, 89, 135, 135, 89, 90, 133, 134, 132, 145, 147, 146, 144, 82, 83, 128, 126, 139, 141, 131, 128, 141, 142, 131, 94, 95, 130, 116, 97, 96, 117, 120, 105, 104, 121, 137, 101, 100, 136, 143, 104, 105, 142, 124, 102, 103, 125, 93, 130, 95, 112, 149, 108, 109, 148, 98, 110, 111, 99, 110, 112, 113, 111, 101, 114, 115, 100, 114, 116, 117, 115, 107, 118, 119, 106, 118, 120, 121, 119, 108, 122, 123, 109, 122, 124, 125, 123, 97, 126, 127, 96, 126, 128, 129, 127, 128, 131, 130, 129, 99, 132, 133, 98, 132, 134, 135, 133, 134, 137, 136, 135, 102, 138, 139, 103, 138, 140, 141, 139, 140, 143, 142, 141, 106, 144, 145, 107, 144, 146, 147, 145, 146, 149, 148, 147, 94, 131, 142, 105, 188, 168, 179, 201, 226, 180, 197, 150, 174, 191, 159, 218, 173, 185, 196, 181, 175, 219, 230, 183, 194, 170, 209, 165, 215, 161, 184, 172, 164, 167, 189, 186, 191, 193, 162, 159, 208, 171, 177, 221, 150, 197, 199, 153, 193, 194, 165, 162, 182, 231, 152, 202, 153, 199, 200, 156, 202, 152, 155, 204, 214, 173, 181, 227, 185, 187, 198, 196, 187, 188, 201, 198, 195, 192, 205, 206, 162, 165, 166, 163, 163, 166, 167, 164, 192, 190, 203, 205, 159, 162, 163, 160, 160, 163, 164, 161, 207, 158, 220, 176, 158, 157, 222, 220, 219, 216, 229, 230, 165, 209, 211, 166, 155, 154, 157, 158, 154, 153, 156, 157, 204, 155, 158, 207, 152, 151, 154, 155, 151, 150, 153, 154, 161, 164, 186, 184, 231, 228, 151, 152, 190, 175, 183, 203, 218, 159, 160, 217, 217, 160, 161, 215, 167, 212, 169, 189, 216, 214, 227, 229, 166, 211, 212, 167, 156, 200, 178, 225, 157, 156, 225, 222, 228, 226, 150, 151, 171, 195, 206, 177, 210, 208, 221, 223, 213, 210, 223, 224, 213, 168, 169, 212, 189, 169, 168, 188, 195, 171, 170, 194, 219, 175, 174, 218, 225, 178, 179, 224, 201, 179, 178, 200, 207, 176, 177, 206, 231, 182, 183, 230, 172, 184, 185, 173, 184, 186, 187, 185, 186, 189, 188, 187, 175, 190, 191, 174, 190, 192, 193, 191, 192, 195, 194, 193, 181, 196, 197, 180, 196, 198, 199, 197, 198, 201, 200, 199, 182, 202, 203, 183, 202, 204, 205, 203, 204, 207, 206, 205, 171, 208, 209, 170, 208, 210, 211, 209, 210, 213, 212, 211, 173, 214, 215, 172, 214, 216, 217, 215, 216, 219, 218, 217, 176, 220, 221, 177, 220, 222, 223, 221, 222, 225, 224, 223, 180, 226, 227, 181, 226, 228, 229, 227, 228, 231, 230, 229, 168, 213, 224, 179, 267, 246, 277, 241, 294, 256, 269, 232, 250, 265, 238, 286, 249, 261, 268, 257, 251, 287, 298, 259, 247, 266, 275, 253, 283, 240, 260, 248, 263, 244, 255, 270, 265, 267, 241, 238, 276, 247, 253, 289, 232, 269, 271, 235, 258, 299, 234, 272, 272, 234, 237, 274, 282, 249, 257, 295, 261, 263, 270, 268, 274, 237, 288, 252, 242, 279, 280, 243, 262, 245, 244, 263, 266, 264, 273, 275, 238, 241, 242, 239, 239, 242, 243, 240, 254, 293, 235, 271, 241, 277, 279, 242, 287, 284, 297, 298, 237, 236, 290, 288, 234, 233, 236, 237, 233, 232, 235, 236, 240, 243, 262, 260, 299, 296, 233, 234, 264, 251, 259, 273, 286, 238, 239, 285, 285, 239, 240, 283, 284, 282, 295, 297, 296, 294, 232, 233, 278, 276, 289, 291, 281, 278, 291, 292, 281, 244, 245, 280, 266, 247, 246, 267, 270, 255, 254, 271, 287, 251, 250, 286, 293, 254, 255, 292, 274, 252, 253, 275, 243, 280, 245, 262, 299, 258, 259, 298, 248, 260, 261, 249, 260, 262, 263, 261, 251, 264, 265, 250, 264, 266, 267, 265, 257, 268, 269, 256, 268, 270, 271, 269, 258, 272, 273, 259, 272, 274, 275, 273, 247, 276, 277, 246, 276, 278, 279, 277, 278, 281, 280, 279, 249, 282, 283, 248, 282, 284, 285, 283, 284, 287, 286, 285, 252, 288, 289, 253, 288, 290, 291, 289, 290, 293, 292, 291, 256, 294, 295, 257, 294, 296, 297, 295, 296, 299, 298, 297, 244, 281, 292, 255, 85, 143, 140, 86, 303, 301, 300, 302, 304, 307, 306, 305, 300, 306, 307, 302, 303, 304, 305, 301, 302, 307, 304, 303, 301, 305, 306, 300, 311, 309, 308, 310, 312, 315, 314, 313, 308, 314, 315, 310, 311, 312, 313, 309, 310, 315, 312, 311, 309, 313, 314, 308, 319, 318, 316, 317, 320, 321, 322, 323, 316, 318, 323, 322, 319, 317, 321, 320, 318, 319, 320, 323, 317, 316, 322, 321, 327, 326, 324, 325, 328, 329, 330, 331, 324, 326, 331, 330, 327, 325, 329, 328, 326, 327, 328, 331, 325, 324, 330, 329, 339, 355, 349, 336, 352, 355, 339, 338, 341, 340, 346, 347, 348, 340, 341, 349, 340, 348, 350, 342, 342, 350, 351, 343, 345, 344, 347, 346, 340, 342, 345, 346, 342, 343, 344, 345, 334, 335, 347, 344, 335, 332, 341, 347, 351, 337, 336, 349, 334, 344, 343, 333, 349, 355, 354, 348, 353, 354, 355, 352, 348, 354, 353, 350, 337, 351, 426, 425, 352, 338, 424, 428, 333, 343, 341, 332, 350, 353, 429, 427, 338, 337, 425, 424, 351, 350, 427, 426, 353, 352, 428, 429, 368, 393, 391, 365, 359, 388, 392, 383, 385, 389, 361, 356, 395, 474, 449, 380, 396, 386, 358, 372, 374, 381, 448, 447, 371, 444, 475, 394, 442, 445, 370, 377, 378, 369, 367, 362, 379, 364, 387, 399, 363, 366, 390, 384, 477, 397, 375, 446, 443, 376, 398, 476, 356, 357, 358, 359, 360, 361, 362, 363, 364, 365, 366, 367, 368, 369, 370, 371, 372, 373, 374, 375, 376, 377, 378, 379, 380, 381, 382, 383, 384, 385, 386, 387, 388, 389, 390, 391, 392, 393, 394, 395, 396, 397, 398, 399, 368, 365, 367, 369, 366, 363, 362, 367, 387, 364, 363, 384, 388, 359, 361, 389, 360, 357, 356, 361, 372, 358, 357, 373, 376, 443, 442, 377, 380, 449, 448, 381, 444, 371, 370, 445, 446, 375, 374, 447, 364, 379, 378, 362, 359, 383, 382, 360, 381, 374, 373, 382, 395, 380, 383, 392, 396, 372, 375, 397, 369, 378, 377, 370, 358, 386, 385, 356, 365, 391, 390, 366, 379, 399, 398, 376, 397, 477, 476, 398, 474, 395, 394, 475, 386, 396, 399, 387, 389, 385, 384, 390, 391, 393, 392, 388, 371, 394, 393, 368, 357, 360, 382, 373, 351, 349, 341, 343, 407, 404, 417, 423, 420, 406, 407, 423, 409, 415, 414, 408, 416, 417, 409, 408, 408, 410, 418, 416, 410, 411, 419, 418, 413, 414, 415, 412, 408, 414, 413, 410, 410, 413, 412, 411, 402, 412, 415, 403, 403, 415, 409, 400, 419, 417, 404, 405, 402, 401, 411, 412, 417, 416, 422, 423, 421, 420, 423, 422, 416, 418, 421, 422, 405, 425, 426, 419, 420, 428, 424, 406, 401, 400, 409, 411, 418, 427, 429, 421, 406, 424, 425, 405, 419, 426, 427, 418, 421, 429, 428, 420, 450, 439, 473, 479, 433, 465, 478, 470, 467, 430, 435, 471, 481, 462, 449, 474, 482, 454, 432, 468, 456, 447, 448, 463, 453, 480, 475, 444, 442, 459, 452, 445, 460, 436, 441, 451, 461, 485, 469, 438, 437, 466, 472, 440, 477, 446, 457, 483, 443, 476, 484, 458, 430, 432, 431, 433, 435, 434, 436, 438, 437, 439, 441, 440, 450, 453, 452, 451, 454, 457, 456, 455, 458, 461, 460, 459, 462, 465, 464, 463, 466, 469, 468, 467, 470, 473, 472, 471, 478, 481, 480, 479, 482, 485, 484, 483, 450, 451, 441, 439, 440, 441, 436, 437, 469, 466, 437, 438, 470, 471, 435, 433, 434, 435, 430, 431, 454, 455, 431, 432, 458, 459, 442, 443, 462, 463, 448, 449, 444, 445, 452, 453, 446, 447, 456, 457, 438, 436, 460, 461, 433, 434, 464, 465, 463, 464, 455, 456, 481, 478, 465, 462, 482, 483, 457, 454, 451, 452, 459, 460, 432, 430, 467, 468, 439, 440, 472, 473, 461, 458, 484, 485, 483, 484, 476, 477, 474, 475, 480, 481, 468, 469, 485, 482, 471, 472, 466, 467, 473, 470, 478, 479, 453, 450, 479, 480, 431, 455, 464, 434, 419, 411, 409, 417]
            rel material:binding = </root/_materials/Couch_Mustard>
            normal3f[] normals = [(-0.9132001, -0.034609254, -0.40603915), (-0.67424124, -0.64413196, -0.36123765), (-0.6742412, -0.64413184, 0.36123818), (-0.91319984, -0.034609266, 0.4060396), (-0.074991584, 0.5027514, 0.861172), (-0.3112128, 0.42565295, 0.84968597), (-0.42969373, 0.053300582, 0.9014002), (-0.097228244, 0.070846766, 0.99273735), (0.30692795, 0.42875326, -0.84968567), (0.42913783, 0.05760809, -0.9014001), (0.096512616, 0.07181864, -0.99273735), (0.069944955, 0.5034784, -0.861172), (-0.6806683, 0.63733655, -0.36123788), (-0.912661, 0.01807834, -0.4083173), (-0.91266096, 0.018078301, 0.40831748), (-0.6806682, 0.6373365, 0.36123824), (0.6742414, 0.64413166, -0.36123797), (0.017155813, 0.9552426, -0.29532582), (0.017155798, 0.9552426, 0.29532588), (0.6742413, 0.6441317, 0.36123836), (0.43006286, -0.06768584, -0.90025806), (0.31121308, -0.42565343, -0.84968555), (0.07499157, -0.5027518, -0.8611718), (0.09732359, -0.08958792, -0.9912125), (-0.07499156, 0.5027519, -0.86117184), (-0.09722817, 0.07084698, -0.99273735), (-0.42969403, 0.053300746, -0.9014001), (-0.31121314, 0.42565337, -0.8496856), (-0.1032158, -0.019556073, -0.9944667), (-0.096287504, -0.090902165, -0.991194), (-0.42881215, -0.07348134, -0.9004003), (-0.45125726, -0.017869761, -0.89221495), (0.42913783, 0.05760809, -0.9014001), (0.45094758, -0.011961125, -0.8924703), (0.10327963, -0.018207796, -0.9944857), (0.096512616, 0.07181864, -0.99273735), (0.026736427, -0.9550225, -0.29532546), (0.6806684, -0.6373364, -0.36123788), (0.68066835, -0.63733643, 0.36123794), (0.02673647, -0.95502245, 0.29532558), (-0.097228244, 0.070846766, 0.99273735), (-0.42969373, 0.053300582, 0.9014002), (-0.45125696, -0.017869722, 0.8922151), (-0.10321582, -0.019556046, 0.9944667), (0.45094758, -0.011961125, -0.8924703), (0.43006286, -0.06768584, -0.90025806), (0.09732359, -0.08958792, -0.9912125), (0.10327963, -0.018207796, -0.9944857), (0.3069277, 0.42875314, 0.8496859), (0.06994503, 0.5034783, 0.861172), (0.09651269, 0.07181859, 0.99273735), (0.42913732, 0.05760808, 0.9014003), (-0.10321582, -0.019556046, 0.9944667), (-0.45125696, -0.017869722, 0.8922151), (-0.42881173, -0.073481195, 0.9004005), (-0.096287526, -0.090901904, 0.991194), (0.42913732, 0.05760808, 0.9014003), (0.09651269, 0.07181859, 0.99273735), (0.10327952, -0.018207826, 0.9944857), (0.4509471, -0.011961109, 0.89247054), (-0.026736392, 0.9550225, -0.2953254), (-0.6806683, 0.63733655, -0.36123788), (-0.6806682, 0.6373365, 0.36123824), (-0.026736379, 0.9550224, 0.29532576), (-0.912661, 0.01807834, -0.4083173), (-0.9173516, -0.012375869, -0.3978854), (-0.91735154, -0.0123758465, 0.3978857), (-0.91266096, 0.018078301, 0.40831748), (-0.9173516, -0.012375869, -0.3978854), (-0.9132001, -0.034609254, -0.40603915), (-0.91319984, -0.034609266, 0.4060396), (-0.91735154, -0.0123758465, 0.3978857), (0.9136788, -0.022418518, -0.40581825), (0.91730535, -0.00028702826, -0.3981845), (0.9173051, -0.0002869721, 0.3981849), (0.9136788, -0.022418484, 0.40581828), (0.10327963, -0.018207796, -0.9944857), (0.09732359, -0.08958792, -0.9912125), (0.0005287986, -0.09728827, -0.99525607), (0.000060489165, -0.020148743, -0.9997969), (0.000060489165, -0.020148743, -0.9997969), (0.0005287986, -0.09728827, -0.99525607), (-0.096287504, -0.090902165, -0.991194), (-0.1032158, -0.019556073, -0.9944667), (0.91730535, -0.00028702826, -0.3981845), (0.9124338, 0.027231911, -0.4083173), (0.91243356, 0.027231907, 0.4083178), (0.9173051, -0.0002869721, 0.3981849), (0.096512616, 0.07181864, -0.99273735), (0.10327963, -0.018207796, -0.9944857), (0.000060489165, -0.020148743, -0.9997969), (-0.00038682425, 0.077128895, -0.997021), (-0.00038682425, 0.077128895, -0.997021), (0.000060489165, -0.020148743, -0.9997969), (-0.1032158, -0.019556073, -0.9944667), (-0.09722817, 0.07084698, -0.99273735), (0.43006265, -0.06768583, 0.9002582), (0.097323425, -0.0895879, 0.9912125), (0.07499153, -0.50275165, 0.8611719), (0.31121305, -0.42565322, 0.84968567), (0.097323425, -0.0895879, 0.9912125), (0.000528769, -0.09728813, 0.99525607), (0.0025928626, -0.51698434, 0.85599095), (0.07499153, -0.50275165, 0.8611719), (0.017155813, 0.9552426, -0.29532582), (-0.004810449, 0.9591458, -0.2828713), (-0.0048104534, 0.9591458, 0.28287145), (0.017155798, 0.9552426, 0.29532588), (0.09732359, -0.08958792, -0.9912125), (0.07499157, -0.5027518, -0.8611718), (0.0025928812, -0.5169846, -0.8559908), (0.0005287986, -0.09728827, -0.99525607), (0.10327952, -0.018207826, 0.9944857), (0.00006037755, -0.020148737, 0.9997969), (0.000528769, -0.09728813, 0.99525607), (0.097323425, -0.0895879, 0.9912125), (0.00006037755, -0.020148737, 0.9997969), (-0.10321582, -0.019556046, 0.9944667), (-0.096287526, -0.090901904, 0.991194), (0.000528769, -0.09728813, 0.99525607), (0.4509471, -0.011961109, 0.89247054), (0.10327952, -0.018207826, 0.9944857), (0.097323425, -0.0895879, 0.9912125), (0.43006265, -0.06768583, 0.9002582), (0.09651269, 0.07181859, 0.99273735), (-0.00038690085, 0.07712877, 0.9970211), (0.00006037755, -0.020148737, 0.9997969), (0.10327952, -0.018207826, 0.9944857), (-0.00038690085, 0.07712877, 0.9970211), (-0.097228244, 0.070846766, 0.99273735), (-0.10321582, -0.019556046, 0.9944667), (0.00006037755, -0.020148737, 0.9997969), (-0.09722817, 0.07084698, -0.99273735), (-0.1032158, -0.019556073, -0.9944667), (-0.45125726, -0.017869761, -0.89221495), (-0.42969403, 0.053300746, -0.9014001), (0.06994503, 0.5034783, 0.861172), (-0.002592891, 0.51698446, 0.8559908), (-0.00038690085, 0.07712877, 0.9970211), (0.09651269, 0.07181859, 0.99273735), (0.9124338, 0.027231911, -0.4083173), (0.6742414, 0.64413166, -0.36123797), (0.6742413, 0.6441317, 0.36123836), (0.91243356, 0.027231907, 0.4083178), (0.069944955, 0.5034784, -0.861172), (0.096512616, 0.07181864, -0.99273735), (-0.00038682425, 0.077128895, -0.997021), (-0.0025928575, 0.51698464, -0.8559907), (-0.0025928575, 0.51698464, -0.8559907), (-0.00038682425, 0.077128895, -0.997021), (-0.09722817, 0.07084698, -0.99273735), (-0.07499156, 0.5027519, -0.86117184), (-0.096287504, -0.090902165, -0.991194), (-0.06994493, -0.5034784, -0.86117196), (-0.3069284, -0.42875344, -0.8496855), (-0.42881215, -0.07348134, -0.9004003), (-0.004810449, 0.9591458, -0.2828713), (-0.026736392, 0.9550225, -0.2953254), (-0.026736379, 0.9550224, 0.29532576), (-0.0048104534, 0.9591458, 0.28287145), (0.0005287986, -0.09728827, -0.99525607), (0.0025928812, -0.5169846, -0.8559908), (-0.06994493, -0.5034784, -0.86117196), (-0.096287504, -0.090902165, -0.991194), (-0.096287526, -0.090901904, 0.991194), (-0.42881173, -0.073481195, 0.9004005), (-0.3069276, -0.42875323, 0.8496859), (-0.06994497, -0.50347817, 0.86117214), (0.000528769, -0.09728813, 0.99525607), (-0.096287526, -0.090901904, 0.991194), (-0.06994497, -0.50347817, 0.86117214), (0.0025928626, -0.51698434, 0.85599095), (-0.002592891, 0.51698446, 0.8559908), (-0.074991584, 0.5027514, 0.861172), (-0.097228244, 0.070846766, 0.99273735), (-0.00038690085, 0.07712877, 0.9970211), (0.6806684, -0.6373364, -0.36123788), (0.9136788, -0.022418518, -0.40581825), (0.9136788, -0.022418484, 0.40581828), (0.68066835, -0.63733643, 0.36123794), (0.0048104497, -0.9591458, -0.2828714), (0.026736427, -0.9550225, -0.29532546), (0.02673647, -0.95502245, 0.29532558), (0.004810434, -0.9591457, 0.28287157), (-0.017155796, -0.9552426, -0.2953257), (0.0048104497, -0.9591458, -0.2828714), (0.004810434, -0.9591457, 0.28287157), (-0.01715582, -0.9552425, 0.295326), (-0.017155796, -0.9552426, -0.2953257), (-0.67424124, -0.64413196, -0.36123765), (-0.3069284, -0.42875344, -0.8496855), (-0.06994493, -0.5034784, -0.86117196), (-0.42881215, -0.07348134, -0.9004003), (-0.3069284, -0.42875344, -0.8496855), (-0.67424124, -0.64413196, -0.36123765), (-0.9132001, -0.034609254, -0.40603915), (0.9136788, -0.022418518, -0.40581825), (0.6806684, -0.6373364, -0.36123788), (0.31121308, -0.42565343, -0.84968555), (0.43006286, -0.06768584, -0.90025806), (0.017155813, 0.9552426, -0.29532582), (0.6742414, 0.64413166, -0.36123797), (0.30692795, 0.42875326, -0.84968567), (0.069944955, 0.5034784, -0.861172), (-0.06994497, -0.50347817, 0.86117214), (-0.3069276, -0.42875323, 0.8496859), (-0.6742412, -0.64413184, 0.36123818), (-0.01715582, -0.9552425, 0.295326), (-0.91319984, -0.034609266, 0.4060396), (-0.6742412, -0.64413184, 0.36123818), (-0.3069276, -0.42875323, 0.8496859), (-0.42881173, -0.073481195, 0.9004005), (0.43006265, -0.06768583, 0.9002582), (0.31121305, -0.42565322, 0.84968567), (0.68066835, -0.63733643, 0.36123794), (0.9136788, -0.022418484, 0.40581828), (0.06994503, 0.5034783, 0.861172), (0.3069277, 0.42875314, 0.8496859), (0.6742413, 0.6441317, 0.36123836), (0.017155798, 0.9552426, 0.29532588), (-0.31121314, 0.42565337, -0.8496856), (-0.42969403, 0.053300746, -0.9014001), (-0.912661, 0.01807834, -0.4083173), (-0.6806683, 0.63733655, -0.36123788), (-0.42969403, 0.053300746, -0.9014001), (-0.45125726, -0.017869761, -0.89221495), (-0.9173516, -0.012375869, -0.3978854), (-0.912661, 0.01807834, -0.4083173), (-0.45125726, -0.017869761, -0.89221495), (-0.42881215, -0.07348134, -0.9004003), (-0.9132001, -0.034609254, -0.40603915), (-0.9173516, -0.012375869, -0.3978854), (0.6742414, 0.64413166, -0.36123797), (0.9124338, 0.027231911, -0.4083173), (0.42913783, 0.05760809, -0.9014001), (0.30692795, 0.42875326, -0.84968567), (0.9124338, 0.027231911, -0.4083173), (0.91730535, -0.00028702826, -0.3981845), (0.45094758, -0.011961125, -0.8924703), (0.42913783, 0.05760809, -0.9014001), (0.91730535, -0.00028702826, -0.3981845), (0.9136788, -0.022418518, -0.40581825), (0.43006286, -0.06768584, -0.90025806), (0.45094758, -0.011961125, -0.8924703), (-0.6806682, 0.6373365, 0.36123824), (-0.91266096, 0.018078301, 0.40831748), (-0.42969373, 0.053300582, 0.9014002), (-0.3112128, 0.42565295, 0.84968597), (-0.91266096, 0.018078301, 0.40831748), (-0.91735154, -0.0123758465, 0.3978857), (-0.45125696, -0.017869722, 0.8922151), (-0.42969373, 0.053300582, 0.9014002), (-0.91735154, -0.0123758465, 0.3978857), (-0.91319984, -0.034609266, 0.4060396), (-0.42881173, -0.073481195, 0.9004005), (-0.45125696, -0.017869722, 0.8922151), (0.3069277, 0.42875314, 0.8496859), (0.42913732, 0.05760808, 0.9014003), (0.91243356, 0.027231907, 0.4083178), (0.6742413, 0.6441317, 0.36123836), (0.42913732, 0.05760808, 0.9014003), (0.4509471, -0.011961109, 0.89247054), (0.9173051, -0.0002869721, 0.3981849), (0.91243356, 0.027231907, 0.4083178), (0.4509471, -0.011961109, 0.89247054), (0.43006265, -0.06768583, 0.9002582), (0.9136788, -0.022418484, 0.40581828), (0.9173051, -0.0002869721, 0.3981849), (0.6806684, -0.6373364, -0.36123788), (0.026736427, -0.9550225, -0.29532546), (0.07499157, -0.5027518, -0.8611718), (0.31121308, -0.42565343, -0.84968555), (0.026736427, -0.9550225, -0.29532546), (0.0048104497, -0.9591458, -0.2828714), (0.0025928812, -0.5169846, -0.8559908), (0.07499157, -0.5027518, -0.8611718), (0.0048104497, -0.9591458, -0.2828714), (-0.017155796, -0.9552426, -0.2953257), (-0.06994493, -0.5034784, -0.86117196), (0.0025928812, -0.5169846, -0.8559908), (-0.6806683, 0.63733655, -0.36123788), (-0.026736392, 0.9550225, -0.2953254), (-0.07499156, 0.5027519, -0.86117184), (-0.31121314, 0.42565337, -0.8496856), (-0.026736392, 0.9550225, -0.2953254), (-0.004810449, 0.9591458, -0.2828713), (-0.0025928575, 0.51698464, -0.8559907), (-0.07499156, 0.5027519, -0.86117184), (-0.004810449, 0.9591458, -0.2828713), (0.017155813, 0.9552426, -0.29532582), (0.069944955, 0.5034784, -0.861172), (-0.0025928575, 0.51698464, -0.8559907), (0.31121305, -0.42565322, 0.84968567), (0.07499153, -0.50275165, 0.8611719), (0.02673647, -0.95502245, 0.29532558), (0.68066835, -0.63733643, 0.36123794), (0.07499153, -0.50275165, 0.8611719), (0.0025928626, -0.51698434, 0.85599095), (0.004810434, -0.9591457, 0.28287157), (0.02673647, -0.95502245, 0.29532558), (0.0025928626, -0.51698434, 0.85599095), (-0.06994497, -0.50347817, 0.86117214), (-0.01715582, -0.9552425, 0.295326), (0.004810434, -0.9591457, 0.28287157), (-0.3112128, 0.42565295, 0.84968597), (-0.074991584, 0.5027514, 0.861172), (-0.026736379, 0.9550224, 0.29532576), (-0.6806682, 0.6373365, 0.36123824), (-0.074991584, 0.5027514, 0.861172), (-0.002592891, 0.51698446, 0.8559908), (-0.0048104534, 0.9591458, 0.28287145), (-0.026736379, 0.9550224, 0.29532576), (-0.002592891, 0.51698446, 0.8559908), (0.06994503, 0.5034783, 0.861172), (0.017155798, 0.9552426, 0.29532588), (-0.0048104534, 0.9591458, 0.28287145), (-0.67424124, -0.64413196, -0.36123765), (-0.017155796, -0.9552426, -0.2953257), (-0.01715582, -0.9552425, 0.295326), (-0.6742412, -0.64413184, 0.36123818), (0.41804123, -0.87228054, 0.25370905), (0.28027537, -0.7015677, 0.6551706), (0.058163133, -0.68724567, 0.7240929), (0.09439818, -0.9546215, 0.2824655), (-0.063058645, 0.77223635, -0.6321983), (-0.29731962, 0.77625495, -0.55590415), (-0.42556468, 0.88093024, -0.20701818), (-0.0933859, 0.966635, -0.23852855), (0.30904865, -0.89383, -0.32489502), (0.4272393, -0.90283287, 0.04857271), (0.096188724, -0.9948321, 0.03250681), (0.07698736, -0.9107462, -0.4057269), (-0.66748405, -0.43959144, -0.6010195), (-0.9112776, -0.41164201, 0.011135978), (-0.91045296, 0.4013728, -0.09987636), (-0.6662424, 0.2687278, -0.6956338), (0.68340534, -0.43959132, -0.5828521), (0.034148578, -0.41939703, -0.9071604), (0.035201993, 0.16603665, -0.9854911), (0.6847089, 0.268728, -0.6774651), (0.6617341, -0.22195898, 0.71613), (0.89436543, -0.42447102, 0.14119105), (0.9201387, 0.387974, -0.05311169), (0.67122513, 0.45317772, 0.58658904), (-0.06604856, -0.91074634, -0.4076503), (-0.09702813, -0.9948321, 0.029908264), (-0.4283906, -0.9028331, 0.037065588), (-0.30019963, -0.8938301, -0.33308834), (-0.89800495, -0.42763525, 0.10351471), (-0.6912879, -0.22442752, 0.68684304), (-0.696055, 0.4522174, 0.55767995), (-0.91768944, 0.38612297, -0.09356906), (0.4272393, -0.90283287, 0.04857271), (0.41804123, -0.87228054, 0.25370905), (0.09439818, -0.9546215, 0.2824655), (0.096188724, -0.9948321, 0.03250681), (0.008686705, -0.16603538, 0.98608154), (0.6617341, -0.22195898, 0.71613), (0.67122513, 0.45317772, 0.58658904), (0.009740171, 0.4193962, 0.907751), (-0.0933859, 0.966635, -0.23852855), (-0.42556468, 0.88093024, -0.20701818), (-0.44381568, 0.8791214, -0.17370437), (-0.09650352, 0.97948813, -0.17689012), (0.3121614, 0.77625465, -0.5477079), (0.08003729, 0.7722362, -0.63027394), (0.09976675, 0.966635, -0.23593098), (0.43097743, 0.8809306, -0.19549878), (-0.04216643, 0.9833571, -0.17672233), (-0.029420402, 0.9389587, 0.34276944), (0.04702786, 0.93072325, 0.36268812), (0.0570605, 0.9836944, -0.17055601), (0.43097743, 0.8809306, -0.19549878), (0.09976675, 0.966635, -0.23593098), (0.10193426, 0.9797156, -0.17253062), (0.4501614, 0.8796405, -0.1535815), (-0.00974038, -0.41939723, -0.90775055), (-0.66748405, -0.43959144, -0.6010195), (-0.6662424, 0.2687278, -0.6956338), (-0.008686815, 0.16603673, -0.9860813), (-0.9112776, -0.41164201, 0.011135978), (-0.89800495, -0.42763525, 0.10351471), (-0.91768944, 0.38612297, -0.09356906), (-0.91045296, 0.4013728, -0.09987636), (0.4501614, 0.8796405, -0.1535815), (0.10193426, 0.9797156, -0.17253062), (0.07175134, 0.9352591, 0.34661523), (0.31897742, 0.9068485, 0.27546194), (-0.003636808, -0.95827544, 0.28582346), (-0.010121497, -0.6766983, 0.7361908), (-0.07838321, -0.68852663, 0.7209627), (-0.10133737, -0.95508397, 0.27846956), (-0.42354065, -0.87434834, 0.23691386), (-0.30428094, -0.7054684, 0.6400995), (-0.6912879, -0.22442752, 0.68684304), (-0.89800495, -0.42763525, 0.10351471), (0.89436543, -0.42447102, 0.14119105), (0.9106487, -0.4116417, 0.03563856), (0.9128094, 0.4013734, -0.075355835), (0.9201387, 0.387974, -0.05311169), (0.096188724, -0.9948321, 0.03250681), (0.09439818, -0.9546215, 0.2824655), (-0.003636808, -0.95827544, 0.28582346), (-0.0003134669, -0.99972826, 0.023307214), (-0.0003134669, -0.99972826, 0.023307214), (-0.003636808, -0.95827544, 0.28582346), (-0.10133737, -0.95508397, 0.27846956), (-0.09702813, -0.9948321, 0.029908264), (-0.33239096, 0.90704566, 0.2584266), (-0.08193229, 0.9359003, 0.34260455), (-0.09650352, 0.97948813, -0.17689012), (-0.44381568, 0.8791214, -0.17370437), (0.09439818, -0.9546215, 0.2824655), (0.058163133, -0.68724567, 0.7240929), (-0.010121497, -0.6766983, 0.7361908), (-0.003636808, -0.95827544, 0.28582346), (0.034148578, -0.41939703, -0.9071604), (0.01227986, -0.4075853, -0.91308457), (0.01328895, 0.15316029, -0.98811203), (0.035201993, 0.16603665, -0.9854911), (0.10193426, 0.9797156, -0.17253062), (0.0025339318, 0.98534554, -0.17055103), (-0.005152752, 0.93189806, 0.36268356), (0.07175134, 0.9352591, 0.34661523), (0.09976675, 0.966635, -0.23593098), (0.0033104597, 0.96922547, -0.24615239), (0.0025339318, 0.98534554, -0.17055103), (0.10193426, 0.9797156, -0.17253062), (0.0033104597, 0.96922547, -0.24615239), (-0.0933859, 0.966635, -0.23852855), (-0.09650352, 0.97948813, -0.17689012), (0.0025339318, 0.98534554, -0.17055103), (-0.09702813, -0.9948321, 0.029908264), (-0.10133737, -0.95508397, 0.27846956), (-0.42354065, -0.87434834, 0.23691386), (-0.4283906, -0.9028331, 0.037065588), (0.08003729, 0.7722362, -0.63027394), (0.008683831, 0.7635474, -0.6456935), (0.0033104597, 0.96922547, -0.24615239), (0.09976675, 0.966635, -0.23593098), (0.9106487, -0.4116417, 0.03563856), (0.68340534, -0.43959132, -0.5828521), (0.6847089, 0.268728, -0.6774651), (0.9128094, 0.4013734, -0.075355835), (0.07698736, -0.9107462, -0.4057269), (0.096188724, -0.9948321, 0.03250681), (-0.0003134669, -0.99972826, 0.023307214), (0.00568767, -0.906151, -0.42291605), (0.00568767, -0.906151, -0.42291605), (-0.0003134669, -0.99972826, 0.023307214), (-0.09702813, -0.9948321, 0.029908264), (-0.06604856, -0.91074634, -0.4076503), (0.01227986, -0.4075853, -0.91308457), (-0.00974038, -0.41939723, -0.90775055), (-0.008686815, 0.16603673, -0.9860813), (0.01328895, 0.15316029, -0.98811203), (0.008683831, 0.7635474, -0.6456935), (-0.063058645, 0.77223635, -0.6321983), (-0.0933859, 0.966635, -0.23852855), (0.0033104597, 0.96922547, -0.24615239), (-0.013288556, -0.15315947, 0.98811215), (0.008686705, -0.16603538, 0.98608154), (0.009740171, 0.4193962, 0.907751), (-0.012279646, 0.40758458, 0.9130849), (-0.0352017, -0.16603583, 0.98549116), (-0.013288556, -0.15315947, 0.98811215), (-0.012279646, 0.40758458, 0.9130849), (-0.034148343, 0.41939682, 0.9071605), (-0.0352017, -0.16603583, 0.98549116), (-0.6912879, -0.22442752, 0.68684304), (-0.30428094, -0.7054684, 0.6400995), (-0.07838321, -0.68852663, 0.7209627), (0.89436543, -0.42447102, 0.14119105), (0.6617341, -0.22195898, 0.71613), (0.28027537, -0.7015677, 0.6551706), (0.41804123, -0.87228054, 0.25370905), (-0.91768944, 0.38612297, -0.09356906), (-0.696055, 0.4522174, 0.55767995), (-0.33239096, 0.90704566, 0.2584266), (-0.44381568, 0.8791214, -0.17370437), (0.034148578, -0.41939703, -0.9071604), (0.68340534, -0.43959132, -0.5828521), (0.30904865, -0.89383, -0.32489502), (0.07698736, -0.9107462, -0.4057269), (-0.08193229, 0.9359003, 0.34260455), (-0.33239096, 0.90704566, 0.2584266), (-0.696055, 0.4522174, 0.55767995), (-0.034148343, 0.41939682, 0.9071605), (0.4501614, 0.8796405, -0.1535815), (0.31897742, 0.9068485, 0.27546194), (0.67122513, 0.45317772, 0.58658904), (0.9201387, 0.387974, -0.05311169), (-0.10133737, -0.95508397, 0.27846956), (-0.07838321, -0.68852663, 0.7209627), (-0.30428094, -0.7054684, 0.6400995), (-0.42354065, -0.87434834, 0.23691386), (0.08003729, 0.7722362, -0.63027394), (0.3121614, 0.77625465, -0.5477079), (0.6847089, 0.268728, -0.6774651), (0.035201993, 0.16603665, -0.9854911), (-0.30019963, -0.8938301, -0.33308834), (-0.4283906, -0.9028331, 0.037065588), (-0.9112776, -0.41164201, 0.011135978), (-0.66748405, -0.43959144, -0.6010195), (-0.4283906, -0.9028331, 0.037065588), (-0.42354065, -0.87434834, 0.23691386), (-0.89800495, -0.42763525, 0.10351471), (-0.9112776, -0.41164201, 0.011135978), (0.68340534, -0.43959132, -0.5828521), (0.9106487, -0.4116417, 0.03563856), (0.4272393, -0.90283287, 0.04857271), (0.30904865, -0.89383, -0.32489502), (0.9106487, -0.4116417, 0.03563856), (0.89436543, -0.42447102, 0.14119105), (0.41804123, -0.87228054, 0.25370905), (0.4272393, -0.90283287, 0.04857271), (-0.6662424, 0.2687278, -0.6956338), (-0.91045296, 0.4013728, -0.09987636), (-0.42556468, 0.88093024, -0.20701818), (-0.29731962, 0.77625495, -0.55590415), (-0.91045296, 0.4013728, -0.09987636), (-0.91768944, 0.38612297, -0.09356906), (-0.44381568, 0.8791214, -0.17370437), (-0.42556468, 0.88093024, -0.20701818), (0.3121614, 0.77625465, -0.5477079), (0.43097743, 0.8809306, -0.19549878), (0.9128094, 0.4013734, -0.075355835), (0.6847089, 0.268728, -0.6774651), (0.43097743, 0.8809306, -0.19549878), (0.4501614, 0.8796405, -0.1535815), (0.9201387, 0.387974, -0.05311169), (0.9128094, 0.4013734, -0.075355835), (0.6617341, -0.22195898, 0.71613), (0.008686705, -0.16603538, 0.98608154), (0.058163133, -0.68724567, 0.7240929), (0.28027537, -0.7015677, 0.6551706), (0.008686705, -0.16603538, 0.98608154), (-0.013288556, -0.15315947, 0.98811215), (-0.010121497, -0.6766983, 0.7361908), (0.058163133, -0.68724567, 0.7240929), (-0.013288556, -0.15315947, 0.98811215), (-0.0352017, -0.16603583, 0.98549116), (-0.07838321, -0.68852663, 0.7209627), (-0.010121497, -0.6766983, 0.7361908), (-0.66748405, -0.43959144, -0.6010195), (-0.00974038, -0.41939723, -0.90775055), (-0.06604856, -0.91074634, -0.4076503), (-0.30019963, -0.8938301, -0.33308834), (-0.00974038, -0.41939723, -0.90775055), (0.01227986, -0.4075853, -0.91308457), (0.00568767, -0.906151, -0.42291605), (-0.06604856, -0.91074634, -0.4076503), (0.01227986, -0.4075853, -0.91308457), (0.034148578, -0.41939703, -0.9071604), (0.07698736, -0.9107462, -0.4057269), (0.00568767, -0.906151, -0.42291605), (0.31897742, 0.9068485, 0.27546194), (0.07175134, 0.9352591, 0.34661523), (0.009740171, 0.4193962, 0.907751), (0.67122513, 0.45317772, 0.58658904), (0.07175134, 0.9352591, 0.34661523), (-0.005152752, 0.93189806, 0.36268356), (-0.012279646, 0.40758458, 0.9130849), (0.009740171, 0.4193962, 0.907751), (-0.005152752, 0.93189806, 0.36268356), (-0.08193229, 0.9359003, 0.34260455), (-0.034148343, 0.41939682, 0.9071605), (-0.012279646, 0.40758458, 0.9130849), (-0.29731962, 0.77625495, -0.55590415), (-0.063058645, 0.77223635, -0.6321983), (-0.008686815, 0.16603673, -0.9860813), (-0.6662424, 0.2687278, -0.6956338), (-0.063058645, 0.77223635, -0.6321983), (0.008683831, 0.7635474, -0.6456935), (0.01328895, 0.15316029, -0.98811203), (-0.008686815, 0.16603673, -0.9860813), (0.008683831, 0.7635474, -0.6456935), (0.08003729, 0.7722362, -0.63027394), (0.035201993, 0.16603665, -0.9854911), (0.01328895, 0.15316029, -0.98811203), (-0.6912879, -0.22442752, 0.68684304), (-0.0352017, -0.16603583, 0.98549116), (-0.034148343, 0.41939682, 0.9071605), (-0.696055, 0.4522174, 0.55767995), (-0.9140911, -0.0042560794, -0.4054864), (-0.6901128, -0.6270977, -0.36123785), (-0.6901127, -0.6270975, 0.36123824), (-0.91409093, -0.004256184, 0.4054868), (-0.062416293, 0.50446707, 0.861172), (-0.3004888, 0.43329015, 0.8496858), (-0.42822906, 0.064011924, 0.9014002), (-0.09542899, 0.073252104, 0.99273735), (0.3175368, 0.42095688, -0.8496856), (0.43044254, 0.046876185, -0.9013999), (0.098275594, 0.06938668, -0.99273735), (0.08249323, 0.5015752, -0.861172), (-0.6645443, 0.65413153, -0.36123797), (-0.9119251, 0.04085863, -0.4083175), (-0.9119251, 0.040858634, 0.40831757), (-0.6645442, 0.6541315, 0.36123818), (0.69011307, 0.6270975, -0.3612378), (0.04099943, 0.9545165, -0.29532588), (0.04099944, 0.9545165, 0.295326), (0.6901129, 0.6270974, 0.36123818), (0.4268114, -0.08206106, -0.9006098), (0.30048904, -0.43329084, -0.8496855), (0.062416296, -0.5044676, -0.8611717), (0.09471423, -0.09282851, -0.991167), (-0.062416334, 0.50446725, -0.8611719), (-0.0954291, 0.07325232, -0.99273735), (-0.42822927, 0.06401204, -0.90140015), (-0.3004891, 0.43329036, -0.84968567), (-0.10334391, -0.016198441, -0.99451375), (-0.09883543, -0.08760043, -0.9912405), (-0.43178636, -0.05900659, -0.9000438), (-0.45034766, -0.003181383, -0.89284766), (0.43044254, 0.046876185, -0.9013999), (0.45157796, -0.026685644, -0.8918325), (0.103089616, -0.0215619, -0.99443835), (0.098275594, 0.06938668, -0.99273735), (0.0028845884, -0.95539236, -0.29532525), (0.66454446, -0.6541314, -0.36123776), (0.6645444, -0.6541314, 0.36123794), (0.0028846075, -0.9553923, 0.2953257), (-0.09542899, 0.073252104, 0.99273735), (-0.42822906, 0.064011924, 0.9014002), (-0.4503475, -0.0031814254, 0.89284766), (-0.10334384, -0.016198413, 0.99451375), (0.45157796, -0.026685644, -0.8918325), (0.4268114, -0.08206106, -0.9006098), (0.09471423, -0.09282851, -0.991167), (0.103089616, -0.0215619, -0.99443835), (0.31753644, 0.42095664, 0.8496859), (0.08249318, 0.50157493, 0.86117214), (0.09827548, 0.069386646, 0.99273735), (0.43044186, 0.046876118, 0.9014003), (-0.10334384, -0.016198413, 0.99451375), (-0.4503475, -0.0031814254, 0.89284766), (-0.43178588, -0.05900657, 0.90004396), (-0.09883536, -0.087600216, 0.9912405), (0.43044186, 0.046876118, 0.9014003), (0.09827548, 0.069386646, 0.99273735), (0.103089474, -0.021561956, 0.9944384), (0.45157757, -0.026685689, 0.8918327), (-0.0028846574, 0.9553923, -0.2953257), (-0.6645443, 0.65413153, -0.36123797), (-0.6645442, 0.6541315, 0.36123818), (-0.0028846725, 0.9553922, 0.29532582), (-0.9119251, 0.04085863, -0.4083175), (-0.91694254, 0.017718175, -0.3986256), (-0.91694254, 0.017718105, 0.3986259), (-0.9119251, 0.040858634, 0.40831757), (-0.91694254, 0.017718175, -0.3986256), (-0.9140911, -0.0042560794, -0.4054864), (-0.91409093, -0.004256184, 0.4054868), (-0.91694254, 0.017718105, 0.3986259), (0.91218615, -0.052750397, -0.40636656), (0.9171272, -0.030370623, -0.39743605), (0.917127, -0.030370641, 0.39743653), (0.9121862, -0.052750383, 0.40636647), (0.103089616, -0.0215619, -0.99443835), (0.09471423, -0.09282851, -0.991167), (-0.0021035098, -0.09725905, -0.9952569), (-0.00024060417, -0.020143747, -0.9997971), (-0.00024060417, -0.020143747, -0.9997971), (-0.0021035098, -0.09725905, -0.9952569), (-0.09883543, -0.08760043, -0.9912405), (-0.10334391, -0.016198441, -0.99451375), (0.9171272, -0.030370623, -0.39743605), (0.9128293, 0.0044433363, -0.40831712), (0.91282904, 0.004443242, 0.4083176), (0.917127, -0.030370641, 0.39743653), (0.098275594, 0.06938668, -0.99273735), (0.103089616, -0.0215619, -0.99443835), (-0.00024060417, -0.020143747, -0.9997971), (0.0015389085, 0.07711452, -0.997021), (0.0015389085, 0.07711452, -0.997021), (-0.00024060417, -0.020143747, -0.9997971), (-0.10334391, -0.016198441, -0.99451375), (-0.0954291, 0.07325232, -0.99273735), (0.42681128, -0.082061104, 0.9006098), (0.09471409, -0.09282852, 0.99116707), (0.0624162, -0.50446707, 0.86117196), (0.30048922, -0.43329012, 0.84968567), (0.09471409, -0.09282852, 0.99116707), (-0.0021034796, -0.09725889, 0.9952569), (-0.010315257, -0.5168879, 0.85599095), (0.0624162, -0.50446707, 0.86117196), (0.04099943, 0.9545165, -0.29532588), (0.019137524, 0.9589669, -0.2828715), (0.019137517, 0.9589668, 0.2828717), (0.04099944, 0.9545165, 0.295326), (0.09471423, -0.09282851, -0.991167), (0.062416296, -0.5044676, -0.8611717), (-0.010315225, -0.51688814, -0.8559908), (-0.0021035098, -0.09725905, -0.9952569), (0.103089474, -0.021561956, 0.9944384), (-0.00024060176, -0.020143745, 0.999797), (-0.0021034796, -0.09725889, 0.9952569), (0.09471409, -0.09282852, 0.99116707), (-0.00024060176, -0.020143745, 0.999797), (-0.10334384, -0.016198413, 0.99451375), (-0.09883536, -0.087600216, 0.9912405), (-0.0021034796, -0.09725889, 0.9952569), (0.45157757, -0.026685689, 0.8918327), (0.103089474, -0.021561956, 0.9944384), (0.09471409, -0.09282852, 0.99116707), (0.42681128, -0.082061104, 0.9006098), (0.09827548, 0.069386646, 0.99273735), (0.001538916, 0.077114366, 0.9970211), (-0.00024060176, -0.020143745, 0.999797), (0.103089474, -0.021561956, 0.9944384), (0.001538916, 0.077114366, 0.9970211), (-0.09542899, 0.073252104, 0.99273735), (-0.10334384, -0.016198413, 0.99451375), (-0.00024060176, -0.020143745, 0.999797), (-0.0954291, 0.07325232, -0.99273735), (-0.10334391, -0.016198441, -0.99451375), (-0.45034766, -0.003181383, -0.89284766), (-0.42822927, 0.06401204, -0.90140015), (0.08249318, 0.50157493, 0.86117214), (0.010315263, 0.5168878, 0.855991), (0.001538916, 0.077114366, 0.9970211), (0.09827548, 0.069386646, 0.99273735), (0.9128293, 0.0044433363, -0.40831712), (0.69011307, 0.6270975, -0.3612378), (0.6901129, 0.6270974, 0.36123818), (0.91282904, 0.004443242, 0.4083176), (0.08249323, 0.5015752, -0.861172), (0.098275594, 0.06938668, -0.99273735), (0.0015389085, 0.07711452, -0.997021), (0.010315207, 0.516888, -0.85599095), (0.010315207, 0.516888, -0.85599095), (0.0015389085, 0.07711452, -0.997021), (-0.0954291, 0.07325232, -0.99273735), (-0.062416334, 0.50446725, -0.8611719), (-0.09883543, -0.08760043, -0.9912405), (-0.08249321, -0.50157535, -0.86117196), (-0.3175367, -0.4209572, -0.8496855), (-0.43178636, -0.05900659, -0.9000438), (0.019137524, 0.9589669, -0.2828715), (-0.0028846574, 0.9553923, -0.2953257), (-0.0028846725, 0.9553922, 0.29532582), (0.019137517, 0.9589668, 0.2828717), (-0.0021035098, -0.09725905, -0.9952569), (-0.010315225, -0.51688814, -0.8559908), (-0.08249321, -0.50157535, -0.86117196), (-0.09883543, -0.08760043, -0.9912405), (-0.09883536, -0.087600216, 0.9912405), (-0.43178588, -0.05900657, 0.90004396), (-0.317536, -0.42095712, 0.8496858), (-0.08249314, -0.50157505, 0.86117214), (-0.0021034796, -0.09725889, 0.9952569), (-0.09883536, -0.087600216, 0.9912405), (-0.08249314, -0.50157505, 0.86117214), (-0.010315257, -0.5168879, 0.85599095), (0.010315263, 0.5168878, 0.855991), (-0.062416293, 0.50446707, 0.861172), (-0.09542899, 0.073252104, 0.99273735), (0.001538916, 0.077114366, 0.9970211), (0.66454446, -0.6541314, -0.36123776), (0.91218615, -0.052750397, -0.40636656), (0.9121862, -0.052750383, 0.40636647), (0.6645444, -0.6541314, 0.36123794), (-0.019137504, -0.9589669, -0.28287137), (0.0028845884, -0.95539236, -0.29532525), (0.0028846075, -0.9553923, 0.2953257), (-0.019137507, -0.95896685, 0.28287154), (-0.04099934, -0.95451653, -0.29532564), (-0.019137504, -0.9589669, -0.28287137), (-0.019137507, -0.95896685, 0.28287154), (-0.040999353, -0.9545165, 0.2953259), (-0.04099934, -0.95451653, -0.29532564), (-0.6901128, -0.6270977, -0.36123785), (-0.3175367, -0.4209572, -0.8496855), (-0.08249321, -0.50157535, -0.86117196), (-0.43178636, -0.05900659, -0.9000438), (-0.3175367, -0.4209572, -0.8496855), (-0.6901128, -0.6270977, -0.36123785), (-0.9140911, -0.0042560794, -0.4054864), (0.91218615, -0.052750397, -0.40636656), (0.66454446, -0.6541314, -0.36123776), (0.30048904, -0.43329084, -0.8496855), (0.4268114, -0.08206106, -0.9006098), (0.04099943, 0.9545165, -0.29532588), (0.69011307, 0.6270975, -0.3612378), (0.3175368, 0.42095688, -0.8496856), (0.08249323, 0.5015752, -0.861172), (-0.08249314, -0.50157505, 0.86117214), (-0.317536, -0.42095712, 0.8496858), (-0.6901127, -0.6270975, 0.36123824), (-0.040999353, -0.9545165, 0.2953259), (-0.91409093, -0.004256184, 0.4054868), (-0.6901127, -0.6270975, 0.36123824), (-0.317536, -0.42095712, 0.8496858), (-0.43178588, -0.05900657, 0.90004396), (0.42681128, -0.082061104, 0.9006098), (0.30048922, -0.43329012, 0.84968567), (0.6645444, -0.6541314, 0.36123794), (0.9121862, -0.052750383, 0.40636647), (0.08249318, 0.50157493, 0.86117214), (0.31753644, 0.42095664, 0.8496859), (0.6901129, 0.6270974, 0.36123818), (0.04099944, 0.9545165, 0.295326), (-0.3004891, 0.43329036, -0.84968567), (-0.42822927, 0.06401204, -0.90140015), (-0.9119251, 0.04085863, -0.4083175), (-0.6645443, 0.65413153, -0.36123797), (-0.42822927, 0.06401204, -0.90140015), (-0.45034766, -0.003181383, -0.89284766), (-0.91694254, 0.017718175, -0.3986256), (-0.9119251, 0.04085863, -0.4083175), (-0.45034766, -0.003181383, -0.89284766), (-0.43178636, -0.05900659, -0.9000438), (-0.9140911, -0.0042560794, -0.4054864), (-0.91694254, 0.017718175, -0.3986256), (0.69011307, 0.6270975, -0.3612378), (0.9128293, 0.0044433363, -0.40831712), (0.43044254, 0.046876185, -0.9013999), (0.3175368, 0.42095688, -0.8496856), (0.9128293, 0.0044433363, -0.40831712), (0.9171272, -0.030370623, -0.39743605), (0.45157796, -0.026685644, -0.8918325), (0.43044254, 0.046876185, -0.9013999), (0.9171272, -0.030370623, -0.39743605), (0.91218615, -0.052750397, -0.40636656), (0.4268114, -0.08206106, -0.9006098), (0.45157796, -0.026685644, -0.8918325), (-0.6645442, 0.6541315, 0.36123818), (-0.9119251, 0.040858634, 0.40831757), (-0.42822906, 0.064011924, 0.9014002), (-0.3004888, 0.43329015, 0.8496858), (-0.9119251, 0.040858634, 0.40831757), (-0.91694254, 0.017718105, 0.3986259), (-0.4503475, -0.0031814254, 0.89284766), (-0.42822906, 0.064011924, 0.9014002), (-0.91694254, 0.017718105, 0.3986259), (-0.91409093, -0.004256184, 0.4054868), (-0.43178588, -0.05900657, 0.90004396), (-0.4503475, -0.0031814254, 0.89284766), (0.31753644, 0.42095664, 0.8496859), (0.43044186, 0.046876118, 0.9014003), (0.91282904, 0.004443242, 0.4083176), (0.6901129, 0.6270974, 0.36123818), (0.43044186, 0.046876118, 0.9014003), (0.45157757, -0.026685689, 0.8918327), (0.917127, -0.030370641, 0.39743653), (0.91282904, 0.004443242, 0.4083176), (0.45157757, -0.026685689, 0.8918327), (0.42681128, -0.082061104, 0.9006098), (0.9121862, -0.052750383, 0.40636647), (0.917127, -0.030370641, 0.39743653), (0.66454446, -0.6541314, -0.36123776), (0.0028845884, -0.95539236, -0.29532525), (0.062416296, -0.5044676, -0.8611717), (0.30048904, -0.43329084, -0.8496855), (0.0028845884, -0.95539236, -0.29532525), (-0.019137504, -0.9589669, -0.28287137), (-0.010315225, -0.51688814, -0.8559908), (0.062416296, -0.5044676, -0.8611717), (-0.019137504, -0.9589669, -0.28287137), (-0.04099934, -0.95451653, -0.29532564), (-0.08249321, -0.50157535, -0.86117196), (-0.010315225, -0.51688814, -0.8559908), (-0.6645443, 0.65413153, -0.36123797), (-0.0028846574, 0.9553923, -0.2953257), (-0.062416334, 0.50446725, -0.8611719), (-0.3004891, 0.43329036, -0.84968567), (-0.0028846574, 0.9553923, -0.2953257), (0.019137524, 0.9589669, -0.2828715), (0.010315207, 0.516888, -0.85599095), (-0.062416334, 0.50446725, -0.8611719), (0.019137524, 0.9589669, -0.2828715), (0.04099943, 0.9545165, -0.29532588), (0.08249323, 0.5015752, -0.861172), (0.010315207, 0.516888, -0.85599095), (0.30048922, -0.43329012, 0.84968567), (0.0624162, -0.50446707, 0.86117196), (0.0028846075, -0.9553923, 0.2953257), (0.6645444, -0.6541314, 0.36123794), (0.0624162, -0.50446707, 0.86117196), (-0.010315257, -0.5168879, 0.85599095), (-0.019137507, -0.95896685, 0.28287154), (0.0028846075, -0.9553923, 0.2953257), (-0.010315257, -0.5168879, 0.85599095), (-0.08249314, -0.50157505, 0.86117214), (-0.040999353, -0.9545165, 0.2953259), (-0.019137507, -0.95896685, 0.28287154), (-0.3004888, 0.43329015, 0.8496858), (-0.062416293, 0.50446707, 0.861172), (-0.0028846725, 0.9553922, 0.29532582), (-0.6645442, 0.6541315, 0.36123818), (-0.062416293, 0.50446707, 0.861172), (0.010315263, 0.5168878, 0.855991), (0.019137517, 0.9589668, 0.2828717), (-0.0028846725, 0.9553922, 0.29532582), (0.010315263, 0.5168878, 0.855991), (0.08249318, 0.50157493, 0.86117214), (0.04099944, 0.9545165, 0.295326), (0.019137517, 0.9589668, 0.2828717), (-0.6901128, -0.6270977, -0.36123785), (-0.04099934, -0.95451653, -0.29532564), (-0.040999353, -0.9545165, 0.2953259), (-0.6901127, -0.6270975, 0.36123824), (0.3691704, -0.89424866, 0.25304636), (0.2418265, -0.71625733, 0.65459573), (0.02070262, -0.6895073, 0.7239828), (0.0415047, -0.958424, 0.28231353), (-0.020742511, 0.77458405, -0.6321308), (-0.25433666, 0.7916042, -0.5555858), (-0.37619683, 0.90322083, -0.20656244), (-0.039804064, 0.97034407, -0.23842853), (0.258575, -0.90959734, -0.3252254), (0.3764826, -0.92517334, 0.048115484), (0.040816166, -0.9986412, 0.032403834), (0.025846682, -0.9135926, -0.4058086), (-0.69151264, -0.401801, -0.600305), (-0.93272346, -0.36038905, 0.012111346), (-0.88685894, 0.4513311, -0.098901644), (-0.65103024, 0.30536127, -0.6949202), (0.6573098, -0.47683853, -0.5835828), (0.009830615, -0.42059284, -0.9071963), (0.04331721, 0.16388352, -0.9855282), (0.697854, 0.23032062, -0.6781978), (0.6495765, -0.25853562, 0.7149893), (0.8695732, -0.4736309, 0.13970074), (0.9402008, 0.33619648, -0.05472169), (0.6963695, 0.41510192, 0.585457), (-0.11697034, -0.90564734, -0.40757915), (-0.15210508, -0.98790866, 0.030012129), (-0.47783828, -0.877646, 0.037524074), (-0.3497406, -0.87575555, -0.33276686), (-0.92024916, -0.37697703, 0.105022825), (-0.7015312, -0.18564709, 0.6880328), (-0.66889703, 0.49016795, 0.558849), (-0.8949518, 0.43658283, -0.09195953), (0.3764826, -0.92517334, 0.048115484), (0.3691704, -0.89424866, 0.25304636), (0.0415047, -0.958424, 0.28231353), (0.040816166, -0.9986412, 0.032403834), (0.0005046957, -0.16632056, 0.98607165), (0.6495765, -0.25853562, 0.7149893), (0.6963695, 0.41510192, 0.585457), (0.033991087, 0.41815454, 0.90773976), (-0.039804064, 0.97034407, -0.23842853), (-0.37619683, 0.90322083, -0.20656244), (-0.39456666, 0.9024516, -0.1729114), (-0.04216643, 0.9833571, -0.17672233), (0.35421234, 0.7577497, -0.5480412), (0.12213469, 0.7666356, -0.63035935), (0.15305305, 0.95961505, -0.23603766), (0.47903505, 0.85564315, -0.19595997), (0.47903505, 0.85564315, -0.19595997), (0.15305305, 0.95961505, -0.23603766), (0.1559829, 0.97254336, -0.17270991), (0.4980904, 0.85326993, -0.15438996), (-0.03399131, -0.4181549, -0.9077395), (-0.69151264, -0.401801, -0.600305), (-0.65103024, 0.30536127, -0.6949202), (-0.000504794, 0.16632128, -0.9860715), (-0.93272346, -0.36038905, 0.012111346), (-0.92024916, -0.37697703, 0.105022825), (-0.8949518, 0.43658283, -0.09195953), (-0.88685894, 0.4513311, -0.098901644), (0.4980904, 0.85326993, -0.15438996), (0.1559829, 0.97254336, -0.17270991), (0.123999484, 0.929833, 0.34646037), (0.369402, 0.8877097, 0.27479777), (-0.056570258, -0.9566089, 0.28583091), (-0.046889164, -0.6751317, 0.7362056), (-0.115702726, -0.68309885, 0.7211026), (-0.15395789, -0.9479764, 0.27863553), (-0.47124243, -0.84940135, 0.23758781), (-0.34204212, -0.6873706, 0.6407252), (-0.7015312, -0.18564709, 0.6880328), (-0.92024916, -0.37697703, 0.105022825), (0.8695732, -0.4736309, 0.13970074), (0.8864153, -0.46159106, 0.03466394), (0.93361366, 0.35005537, -0.07633271), (0.9402008, 0.33619648, -0.05472169), (0.040816166, -0.9986412, 0.032403834), (0.0415047, -0.958424, 0.28231353), (-0.056570258, -0.9566089, 0.28583091), (-0.055818796, -0.99816877, 0.023307545), (-0.055818796, -0.99816877, 0.023307545), (-0.056570258, -0.9566089, 0.28583091), (-0.15395789, -0.9479764, 0.27863553), (-0.15210508, -0.98790866, 0.030012129), (-0.2809752, 0.92407304, 0.25911763), (-0.029420402, 0.9389587, 0.34276944), (-0.04216643, 0.9833571, -0.17672233), (-0.39456666, 0.9024516, -0.1729114), (0.0415047, -0.958424, 0.28231353), (0.02070262, -0.6895073, 0.7239828), (-0.046889164, -0.6751317, 0.7362056), (-0.056570258, -0.9566089, 0.28583091), (0.009830615, -0.42059284, -0.9071963), (-0.011354624, -0.4075842, -0.9130971), (0.020719698, 0.15224415, -0.98812574), (0.04331721, 0.16388352, -0.9855282), (0.1559829, 0.97254336, -0.17270991), (0.0570605, 0.9836944, -0.17055601), (0.04702786, 0.93072325, 0.36268812), (0.123999484, 0.929833, 0.34646037), (0.15305305, 0.95961505, -0.23603766), (0.05687877, 0.9675599, -0.24615572), (0.0570605, 0.9836944, -0.17055601), (0.1559829, 0.97254336, -0.17270991), (0.05687877, 0.9675599, -0.24615572), (-0.039804064, 0.97034407, -0.23842853), (-0.04216643, 0.9833571, -0.17672233), (0.0570605, 0.9836944, -0.17055601), (-0.15210508, -0.98790866, 0.030012129), (-0.15395789, -0.9479764, 0.27863553), (-0.47124243, -0.84940135, 0.23758781), (-0.47783828, -0.877646, 0.037524074), (0.12213469, 0.7666356, -0.63035935), (0.05039216, 0.7619245, -0.64570254), (0.05687877, 0.9675599, -0.24615572), (0.15305305, 0.95961505, -0.23603766), (0.8864153, -0.46159106, 0.03466394), (0.6573098, -0.47683853, -0.5835828), (0.697854, 0.23032062, -0.6781978), (0.93361366, 0.35005537, -0.07633271), (0.025846682, -0.9135926, -0.4058086), (0.040816166, -0.9986412, 0.032403834), (-0.055818796, -0.99816877, 0.023307545), (-0.045105994, -0.905043, -0.42292154), (-0.045105994, -0.905043, -0.42292154), (-0.055818796, -0.99816877, 0.023307545), (-0.15210508, -0.98790866, 0.030012129), (-0.11697034, -0.90564734, -0.40757915), (-0.011354624, -0.4075842, -0.9130971), (-0.03399131, -0.4181549, -0.9077395), (-0.000504794, 0.16632128, -0.9860715), (0.020719698, 0.15224415, -0.98812574), (0.05039216, 0.7619245, -0.64570254), (-0.020742511, 0.77458405, -0.6321308), (-0.039804064, 0.97034407, -0.23842853), (0.05687877, 0.9675599, -0.24615572), (-0.020719532, -0.15224312, 0.9881258), (0.0005046957, -0.16632056, 0.98607165), (0.033991087, 0.41815454, 0.90773976), (0.011354874, 0.40758333, 0.91309744), (-0.04331677, -0.16388212, 0.9855285), (-0.020719532, -0.15224312, 0.9881258), (0.011354874, 0.40758333, 0.91309744), (-0.009830396, 0.420592, 0.90719664), (-0.04331677, -0.16388212, 0.9855285), (-0.7015312, -0.18564709, 0.6880328), (-0.34204212, -0.6873706, 0.6407252), (-0.115702726, -0.68309885, 0.7211026), (0.8695732, -0.4736309, 0.13970074), (0.6495765, -0.25853562, 0.7149893), (0.2418265, -0.71625733, 0.65459573), (0.3691704, -0.89424866, 0.25304636), (-0.8949518, 0.43658283, -0.09195953), (-0.66889703, 0.49016795, 0.558849), (-0.2809752, 0.92407304, 0.25911763), (-0.39456666, 0.9024516, -0.1729114), (0.009830615, -0.42059284, -0.9071963), (0.6573098, -0.47683853, -0.5835828), (0.258575, -0.90959734, -0.3252254), (0.025846682, -0.9135926, -0.4058086), (-0.029420402, 0.9389587, 0.34276944), (-0.2809752, 0.92407304, 0.25911763), (-0.66889703, 0.49016795, 0.558849), (-0.009830396, 0.420592, 0.90719664), (0.4980904, 0.85326993, -0.15438996), (0.369402, 0.8877097, 0.27479777), (0.6963695, 0.41510192, 0.585457), (0.9402008, 0.33619648, -0.05472169), (-0.15395789, -0.9479764, 0.27863553), (-0.115702726, -0.68309885, 0.7211026), (-0.34204212, -0.6873706, 0.6407252), (-0.47124243, -0.84940135, 0.23758781), (0.12213469, 0.7666356, -0.63035935), (0.35421234, 0.7577497, -0.5480412), (0.697854, 0.23032062, -0.6781978), (0.04331721, 0.16388352, -0.9855282), (-0.3497406, -0.87575555, -0.33276686), (-0.47783828, -0.877646, 0.037524074), (-0.93272346, -0.36038905, 0.012111346), (-0.69151264, -0.401801, -0.600305), (-0.47783828, -0.877646, 0.037524074), (-0.47124243, -0.84940135, 0.23758781), (-0.92024916, -0.37697703, 0.105022825), (-0.93272346, -0.36038905, 0.012111346), (0.6573098, -0.47683853, -0.5835828), (0.8864153, -0.46159106, 0.03466394), (0.3764826, -0.92517334, 0.048115484), (0.258575, -0.90959734, -0.3252254), (0.8864153, -0.46159106, 0.03466394), (0.8695732, -0.4736309, 0.13970074), (0.3691704, -0.89424866, 0.25304636), (0.3764826, -0.92517334, 0.048115484), (-0.65103024, 0.30536127, -0.6949202), (-0.88685894, 0.4513311, -0.098901644), (-0.37619683, 0.90322083, -0.20656244), (-0.25433666, 0.7916042, -0.5555858), (-0.88685894, 0.4513311, -0.098901644), (-0.8949518, 0.43658283, -0.09195953), (-0.39456666, 0.9024516, -0.1729114), (-0.37619683, 0.90322083, -0.20656244), (0.35421234, 0.7577497, -0.5480412), (0.47903505, 0.85564315, -0.19595997), (0.93361366, 0.35005537, -0.07633271), (0.697854, 0.23032062, -0.6781978), (0.47903505, 0.85564315, -0.19595997), (0.4980904, 0.85326993, -0.15438996), (0.9402008, 0.33619648, -0.05472169), (0.93361366, 0.35005537, -0.07633271), (0.6495765, -0.25853562, 0.7149893), (0.0005046957, -0.16632056, 0.98607165), (0.02070262, -0.6895073, 0.7239828), (0.2418265, -0.71625733, 0.65459573), (0.0005046957, -0.16632056, 0.98607165), (-0.020719532, -0.15224312, 0.9881258), (-0.046889164, -0.6751317, 0.7362056), (0.02070262, -0.6895073, 0.7239828), (-0.020719532, -0.15224312, 0.9881258), (-0.04331677, -0.16388212, 0.9855285), (-0.115702726, -0.68309885, 0.7211026), (-0.046889164, -0.6751317, 0.7362056), (-0.69151264, -0.401801, -0.600305), (-0.03399131, -0.4181549, -0.9077395), (-0.11697034, -0.90564734, -0.40757915), (-0.3497406, -0.87575555, -0.33276686), (-0.03399131, -0.4181549, -0.9077395), (-0.011354624, -0.4075842, -0.9130971), (-0.045105994, -0.905043, -0.42292154), (-0.11697034, -0.90564734, -0.40757915), (-0.011354624, -0.4075842, -0.9130971), (0.009830615, -0.42059284, -0.9071963), (0.025846682, -0.9135926, -0.4058086), (-0.045105994, -0.905043, -0.42292154), (0.369402, 0.8877097, 0.27479777), (0.123999484, 0.929833, 0.34646037), (0.033991087, 0.41815454, 0.90773976), (0.6963695, 0.41510192, 0.585457), (0.123999484, 0.929833, 0.34646037), (0.04702786, 0.93072325, 0.36268812), (0.011354874, 0.40758333, 0.91309744), (0.033991087, 0.41815454, 0.90773976), (0.04702786, 0.93072325, 0.36268812), (-0.029420402, 0.9389587, 0.34276944), (-0.009830396, 0.420592, 0.90719664), (0.011354874, 0.40758333, 0.91309744), (-0.25433666, 0.7916042, -0.5555858), (-0.020742511, 0.77458405, -0.6321308), (-0.000504794, 0.16632128, -0.9860715), (-0.65103024, 0.30536127, -0.6949202), (-0.020742511, 0.77458405, -0.6321308), (0.05039216, 0.7619245, -0.64570254), (0.020719698, 0.15224415, -0.98812574), (-0.000504794, 0.16632128, -0.9860715), (0.05039216, 0.7619245, -0.64570254), (0.12213469, 0.7666356, -0.63035935), (0.04331721, 0.16388352, -0.9855282), (0.020719698, 0.15224415, -0.98812574), (-0.7015312, -0.18564709, 0.6880328), (-0.04331677, -0.16388212, 0.9855285), (-0.009830396, 0.420592, 0.90719664), (-0.66889703, 0.49016795, 0.558849), (-0.09650352, 0.97948813, -0.17689012), (-0.08193229, 0.9359003, 0.34260455), (-0.005152752, 0.93189806, 0.36268356), (0.0025339318, 0.98534554, -0.17055103), (0, 0, 1), (0, 0, 1), (0, 0, 1), (0, 0, 1), (0, 0, -1), (0, 0, -1), (0, 0, -1), (0, 0, -1), (-1, 0, 0), (-1, 0, 0), (-1, 0, 0), (-1, 0, 0), (1, 0, 0), (1, 0, 0), (1, 0, 0), (1, 0, 0), (0, -1, 0), (0, -1, 0), (0, -1, 0), (0, -1, 0), (0, 1, 0), (0, 1, 0), (0, 1, 0), (0, 1, 0), (0, 0, 1), (0, 0, 1), (0, 0, 1), (0, 0, 1), (0, 0, -1), (0, 0, -1), (0, 0, -1), (0, 0, -1), (-1, 0, 0), (-1, 0, 0), (-1, 0, 0), (-1, 0, 0), (1, 0, 0), (1, 0, 0), (1, 0, 0), (1, 0, 0), (0, -1, 0), (0, -1, 0), (0, -1, 0), (0, -1, 0), (0, 1, 0), (0, 1, 0), (0, 1, 0), (0, 1, 0), (0, 0, 1), (0, 0, 1), (0, 0, 1), (0, 0, 1), (0, 0, -1), (0, 0, -1), (0, 0, -1), (0, 0, -1), (1, 0, 0), (1, 0, 0), (1, 0, 0), (1, 0, 0), (-1, 0, 0), (-1, 0, 0), (-1, 0, 0), (-1, 0, 0), (0, -1, 0), (0, -1, 0), (0, -1, 0), (0, -1, 0), (0, 1, 0), (0, 1, 0), (0, 1, 0), (0, 1, 0), (0, 0, 1), (0, 0, 1), (0, 0, 1), (0, 0, 1), (0, 0, -1), (0, 0, -1), (0, 0, -1), (0, 0, -1), (1, 0, 0), (1, 0, 0), (1, 0, 0), (1, 0, 0), (-1, 0, 0), (-1, 0, 0), (-1, 0, 0), (-1, 0, 0), (0, -1, 0), (0, -1, 0), (0, -1, 0), (0, -1, 0), (0, 1, 0), (0, 1, 0), (0, 1, 0), (0, 1, 0), (1, 0, 0), (1, 0, 0), (1, -6.456745e-8, 0), (1, 0, 0), (0, 1, 1.5197175e-7), (0, 1, 1.6084653e-7), (0, 1, 3.2169305e-7), (0, 1, 3.2169305e-7), (1, -6.456745e-8, 0), (1, -9.685117e-8, 0), (1, 0, 0), (1, 0, 0), (1, -9.685117e-8, 0), (1, -9.685117e-8, 0), (1, -6.456745e-8, 0), (1, -6.456745e-8, 0), (0, 0, 1), (0, 0, 1), (0, 0, 1), (0, 0, 1), (-1, 9.685117e-8, 0), (-1, 1.9370235e-7, 0), (-1, 1.9370235e-7, 0), (-1, 6.456745e-8, 0), (0, -1, 0), (0, -1, 1.6084645e-7), (0, -1, 1.6084645e-7), (0, -1, 0), (0, 0, 1), (0, 0, 1), (0, 0, 1), (0, 0, 1), (-1, 9.685117e-8, 0), (-1, 6.456745e-8, 0), (-1, 0, 0), (-1, 0, 0), (0, -1, 3.216929e-7), (0, -1, 3.216929e-7), (0, -1, 1.6084645e-7), (0, -1, 1.6084645e-7), (1, 0, 0), (1, 0, 0), (1, -6.456745e-8, 0), (1, 0, 0), (0, -1, -1.35086e-7), (0, -1, -2.0262898e-7), (0, -1, -2.1446203e-7), (0, -1, -2.1446203e-7), (-1, 0, 0), (-1, 0, 0), (-1, 6.456745e-8, 0), (-1, 0, 0), (1, -6.456745e-8, 0), (1, 0, 0), (1, 0, 0), (1, -9.685117e-8, 0), (0, 1, 0), (0, 1, 0), (0, 1, 1.6084653e-7), (0, 1, 1.5197175e-7), (0, 0, 1), (0, 0, 1), (0, 0, 1), (0, 0, 1), (0, -1, -2.0262898e-7), (0, -1, -1.35086e-7), (0, -1, -9.539797e-8), (0, -1, -1.9079594e-7), (0, 1, 1.5197175e-7), (0, 1, 2.861939e-7), (0, 1, 2.861939e-7), (0, 1, 1.4309697e-7), (0, 1, -2.1446193e-7), (0, 1, -2.1446193e-7), (0, 1, -2.1446193e-7), (0, 1, -2.1446193e-7), (0, 0, 1), (0, 0, 1), (0, 0, 1), (0, 0, 1), (0, 0, -1), (0, 0, -1), (0, 0, -1), (0, 0, -1), (0, -1, -1.35086e-7), (0, -0.99999994, 0), (0, -1, 0), (0, -1, -9.539797e-8), (0, 1, 0), (0, 1, 1.5197175e-7), (0, 1, 1.4309697e-7), (0, 1, 0), (0, 0.18736555, 0.9822903), (0, 0, 1), (0.43881112, 0, 0.8985793), (0.37774915, 0.102160364, 0.9202548), (0.37775418, -0.102160685, 0.9202527), (0.43881565, 0, 0.8985771), (0, 0, 1), (0, -0.18736555, 0.9822902), (0.9456795, 0, -0.32510042), (0.9456795, 0, 0.3251004), (0.90746015, -0.29708257, 0.29708233), (0.90746015, -0.2970826, -0.29708228), (1.9677225e-8, 0, 1), (0, 0, 1), (0, -0.38268366, 0.92387944), (2.1977314e-8, -0.38268358, 0.92387944), (0, 0, 1), (0, 0, 1), (0, 0, 1), (0, 0, 1), (-4.8398334e-8, -0.9238796, -0.38268325), (1.1869466e-8, -0.9238796, 0.3826833), (0, -0.9238796, 0.38268325), (0, -0.9238796, -0.38268328), (1.9471761e-8, 0.38268346, 0.92387944), (6.1201916e-16, 0.38268355, 0.92387956), (0, 0, 1), (1.7362403e-8, 0, 1), (0, 0.92387956, -0.3826834), (0, 0.92387956, 0.3826833), (1.1869463e-8, 0.92387956, 0.38268337), (5.934731e-9, 0.92387956, -0.3826834), (0, 0, 0), (0, 0.5334021, 0.84586185), (0.43352517, 0.3380175, 0.8353443), (0, 0, 0), (0, 0, 1), (0, 0, 1), (0, 0, 1), (0, 0, 1), (0.9074583, 0.2970832, -0.29708758), (0.9074583, 0.29708314, 0.2970876), (0.9456779, 0, 0.32510522), (0.9456779, 0, -0.32510522), (0, 0, -1), (0, 0, -1), (-4.839836e-8, -0.38268355, -0.92387944), (0, -0.38268363, -0.92387944), (0, 0.38268346, -0.92387956), (5.934732e-9, 0.38268343, -0.92387956), (0, 0, -1), (0, 0, -1), (0.90746015, -0.2970826, -0.29708228), (0.77127266, -0.6013576, -0.20858479), (0.7712732, -0.20858489, -0.60135686), (0.37775418, -0.102160685, 0.9202527), (0.43352517, -0.3380175, 0.8353443), (0.90746015, -0.29708257, 0.29708233), (0.77127266, 0.6013576, -0.20858479), (0.9074583, 0.2970832, -0.29708758), (0.77126527, 0.20858489, -0.6013671), (0.37774915, 0.102160364, 0.9202548), (0.9074583, 0.29708314, 0.2970876), (0.43352517, 0.3380175, 0.8353443), (0, 0.18736555, 0.9822903), (0, 0.5334021, 0.84586185), (1.1869463e-8, 0.92387956, 0.38268337), (1.9471761e-8, 0.38268346, 0.92387944), (-1.0866618e-7, -0.38268343, -0.92387956), (-1.08666214e-7, -0.92387944, -0.38268355), (-4.8398334e-8, -0.9238796, -0.38268325), (-4.839836e-8, -0.38268355, -0.92387944), (5.934732e-9, 0.38268343, -0.92387956), (5.934731e-9, 0.92387956, -0.3826834), (-0.13285764, 0.9397027, -0.31513125), (-0.25307816, 0.6409606, -0.7246523), (2.1977314e-8, -0.38268358, 0.92387944), (1.1869466e-8, -0.9238796, 0.3826833), (0, -0.5334021, 0.84586185), (0, -0.18736555, 0.9822902), (0.9456779, 0, -0.32510522), (0.9456795, 0, -0.32510042), (0.78861946, 0, -0.61488163), (0.7886132, 0, -0.6148896), (0.43881565, 0, 0.8985771), (0.9456795, 0, 0.3251004), (0.9456779, 0, 0.32510522), (0.43881112, 0, 0.8985793), (0, 0, 1), (0, 0, 1), (1.7362403e-8, 0, 1), (1.9677225e-8, 0, 1), (0, 0, -1), (0, 0, -1), (0, 0, -1), (0, 0, -1), (0, 0.18736555, 0.9822903), (0.37774915, 0.102160364, 0.9202548), (0.43352517, 0.3380175, 0.8353443), (0, 0.5334021, 0.84586185), (0.9074583, 0.29708314, 0.2970876), (0.9074583, 0.2970832, -0.29708758), (0.77127266, 0.6013576, -0.20858479), (0.43352517, 0.3380175, 0.8353443), (0.7886132, 0, -0.6148896), (0.77126527, 0.20858489, -0.6013671), (0.9074583, 0.2970832, -0.29708758), (0.9456779, 0, -0.32510522), (0.43881565, 0, 0.8985771), (0.37775418, -0.102160685, 0.9202527), (0.90746015, -0.29708257, 0.29708233), (0.9456795, 0, 0.3251004), (0.43352517, -0.3380175, 0.8353443), (0.77127266, -0.6013576, -0.20858479), (0.90746015, -0.2970826, -0.29708228), (0.90746015, -0.29708257, 0.29708233), (0, 0, 1), (0, 0, 1), (0, 0, 0), (0, 0, 0), (5.934732e-9, 0.38268343, -0.92387956), (0, 0.38268346, -0.92387956), (0, 0.92387956, -0.3826834), (5.934731e-9, 0.92387956, -0.3826834), (2.1977314e-8, -0.38268358, 0.92387944), (0, -0.38268366, 0.92387944), (0, -0.9238796, 0.38268325), (1.1869466e-8, -0.9238796, 0.3826833), (6.1201916e-16, 0.38268355, 0.92387956), (1.9471761e-8, 0.38268346, 0.92387944), (1.1869463e-8, 0.92387956, 0.38268337), (0, 0.92387956, 0.3826833), (0, -0.38268363, -0.92387944), (-4.839836e-8, -0.38268355, -0.92387944), (-4.8398334e-8, -0.9238796, -0.38268325), (0, -0.9238796, -0.38268328), (-0.59619135, 0.8028424, 0), (-0.25307816, 0.6409606, -0.7246523), (-0.13285764, 0.9397027, -0.31513125), (-0.59619135, 0.8028424, 0), (0.37775418, -0.102160685, 0.9202527), (0, -0.18736555, 0.9822902), (0, -0.5334021, 0.84586185), (0.43352517, -0.3380175, 0.8353443), (1.1869466e-8, -0.9238796, 0.3826833), (-4.8398334e-8, -0.9238796, -0.38268325), (-1.08666214e-7, -0.92387944, -0.38268355), (0, -0.5334021, 0.84586185), (1.9677225e-8, 0, 1), (2.1977314e-8, -0.38268358, 0.92387944), (0, -0.18736555, 0.9822902), (0, 0, 1), (0, 0, -1), (-1.0866618e-7, -0.38268343, -0.92387956), (-4.839836e-8, -0.38268355, -0.92387944), (0, 0, -1), (0, 0.5334021, 0.84586185), (-0.13285764, 0.9397027, -0.31513125), (5.934731e-9, 0.92387956, -0.3826834), (1.1869463e-8, 0.92387956, 0.38268337), (0.7712732, -0.20858489, -0.60135686), (0.78861946, 0, -0.61488163), (0.9456795, 0, -0.32510042), (0.90746015, -0.2970826, -0.29708228), (0.37774915, 0.102160364, 0.9202548), (0.43881112, 0, 0.8985793), (0.9456779, 0, 0.32510522), (0.9074583, 0.29708314, 0.2970876), (-0.25307816, 0.6409606, -0.7246523), (0, 0, -1), (0, 0, -1), (5.934732e-9, 0.38268343, -0.92387956), (0, 0, -1), (0, 0, -1), (0, 0, -1), (0, 0, -1), (0, 0, 1), (1.9677225e-8, 0, 1), (1.7362403e-8, 0, 1), (0, 0, 1), (0, 0, 1), (0, 0, 1), (0, 0, 1), (0, 0, 1), (0.9456795, 0, 0.3251004), (0.9456795, 0, -0.32510042), (0.9456779, 0, -0.32510522), (0.9456779, 0, 0.32510522), (0.43881112, 0, 0.8985793), (0, 0, 1), (0, 0, 1), (0.43881565, 0, 0.8985771), (1.9471761e-8, 0.38268346, 0.92387944), (1.7362403e-8, 0, 1), (0, 0, 1), (0, 0.18736555, 0.9822903), (0, 0, 0), (0.43352517, -0.3380175, 0.8353443), (0, -0.5334021, 0.84586185), (0, 0, 0), (0, 0, -1), (0, 0, -1), (0, 0, -1), (0, 0, -1), (-1, 0, 0), (-1, 0, 0), (-1, -6.456745e-8, 0), (-1, 0, 0), (0, 1, 1.5197175e-7), (0, 1, 3.039435e-7), (0, 1, 3.2169305e-7), (0, 1, 1.6084653e-7), (-1, -6.456745e-8, 0), (-1, 0, 0), (-1, 0, 0), (-1, -9.685117e-8, 0), (-1, -9.685117e-8, 0), (-1, -6.456745e-8, 0), (-1, -6.456745e-8, 0), (-1, -9.685117e-8, 0), (0, 0, 1), (0, 0, 1), (0, 0, 1), (0, 0, 1), (1, 9.685117e-8, 0), (1, 6.456745e-8, 0), (1, 1.9370235e-7, 0), (1, 1.9370235e-7, 0), (0, -1, 0), (0, -1, 0), (0, -1, 1.6084645e-7), (0, -1, 1.6084645e-7), (0, 0, 1), (0, 0, 1), (0, 0, 1), (0, 0, 1), (1, 9.685117e-8, 0), (1, 0, 0), (1, 0, 0), (1, 6.456745e-8, 0), (0, -1, 3.216929e-7), (0, -1, 1.6084645e-7), (0, -1, 1.6084645e-7), (0, -1, 3.216929e-7), (-1, 0, 0), (-1, 0, 0), (-1, -6.456745e-8, 0), (-1, 0, 0), (0, -1, -2.1446203e-7), (0, -1, -2.1446203e-7), (0, -1, -2.1446203e-7), (0, -1, -2.1446203e-7), (1, 0, 0), (1, 0, 0), (1, 6.456745e-8, 0), (1, 0, 0), (-1, -6.456745e-8, 0), (-1, -9.685117e-8, 0), (-1, 0, 0), (-1, 0, 0), (0, 1, 0), (0, 1, 1.5197175e-7), (0, 1, 1.6084653e-7), (0, 1, 0), (0, 0, 1), (0, 0, 1), (0, 0, 1), (0, 0, 1), (0, -1, -1.9079594e-7), (0, -1, -1.9079594e-7), (0, -1, -9.539797e-8), (0, -1, -9.539798e-8), (0, 1, 1.5197175e-7), (0, 1, 1.4309697e-7), (0, 1, 2.861939e-7), (0, 1, 3.039435e-7), (0, 1, -2.1446193e-7), (0, 1, -2.1446193e-7), (0, 1, -2.1446193e-7), (0, 1, -2.1446193e-7), (0, 0, 1), (0, 0, 1), (0, 0, 1), (0, 0, 1), (0, 0, -1), (0, 0, -1), (0, 0, -1), (0, 0, -1), (0, -1, -9.539798e-8), (0, -1, -9.539797e-8), (0, -1, 0), (0, -0.99999994, 0), (0, 1, 0), (0, 1, 0), (0, 1, 1.4309697e-7), (0, 1, 1.5197175e-7), (0, 0.18736555, 0.9822903), (-0.37774915, 0.102160364, 0.9202548), (-0.43881115, 0, 0.8985793), (0, 0, 1), (-0.37775418, -0.102160685, 0.9202527), (0, -0.18736555, 0.9822902), (0, 0, 1), (-0.43881565, 0, 0.8985771), (-0.9456795, 0, -0.32510042), (-0.90746015, -0.2970826, -0.29708228), (-0.90746015, -0.29708257, 0.29708233), (-0.9456795, 0, 0.3251004), (-1.9677227e-8, 0, 1), (-2.1977314e-8, -0.38268358, 0.92387944), (0, -0.38268366, 0.92387944), (0, 0, 1), (0, 0, 1), (0, 0, 1), (0, 0, 1), (0, 0, 1), (4.839834e-8, -0.92387956, -0.38268328), (0, -0.9238796, -0.38268328), (0, -0.9238796, 0.38268325), (-1.1869466e-8, -0.9238796, 0.3826833), (-1.9471761e-8, 0.38268346, 0.92387944), (-1.7362403e-8, 0, 1), (0, 0, 1), (6.1201916e-16, 0.38268355, 0.92387956), (0, 0.92387956, -0.3826834), (-5.934731e-9, 0.92387956, -0.3826834), (-1.1869463e-8, 0.92387956, 0.38268337), (0, 0.92387956, 0.3826833), (0, 0, 0), (0, 0, 0), (-0.43352517, 0.3380175, 0.8353443), (0, 0.5334021, 0.84586185), (0, 0, 1), (0, 0, 1), (0, 0, 1), (0, 0, 1), (-0.9074583, 0.2970832, -0.29708758), (-0.9456779, 0, -0.32510522), (-0.9456779, 0, 0.32510522), (-0.9074583, 0.29708314, 0.2970876), (0, 0, -1), (0, -0.38268363, -0.92387944), (4.8398356e-8, -0.38268346, -0.92387944), (0, 0, -1), (0, 0.38268346, -0.92387956), (0, 0, -1), (0, 0, -1), (-5.934732e-9, 0.38268343, -0.92387956), (-0.90746015, -0.2970826, -0.29708228), (-0.7712732, -0.20858489, -0.60135686), (-0.77127266, -0.6013576, -0.20858479), (-0.37775418, -0.102160685, 0.9202527), (-0.90746015, -0.29708257, 0.29708233), (-0.43352517, -0.3380175, 0.8353443), (-0.77127266, 0.6013576, -0.20858479), (-0.77126527, 0.20858489, -0.6013671), (-0.9074583, 0.2970832, -0.29708758), (-0.37774915, 0.102160364, 0.9202548), (-0.43352517, 0.3380175, 0.8353443), (-0.9074583, 0.29708314, 0.2970876), (0, 0.18736555, 0.9822903), (-1.9471761e-8, 0.38268346, 0.92387944), (-1.1869463e-8, 0.92387956, 0.38268337), (0, 0.5334021, 0.84586185), (1.08666185e-7, -0.38268337, -0.92387956), (4.8398356e-8, -0.38268346, -0.92387944), (4.839834e-8, -0.92387956, -0.38268328), (1.0866623e-7, -0.92387944, -0.38268363), (-5.934732e-9, 0.38268343, -0.92387956), (0.14657673, 0.6860536, -0.71263295), (0.07653288, 0.94822747, -0.30823278), (-5.934731e-9, 0.92387956, -0.3826834), (-2.1977314e-8, -0.38268358, 0.92387944), (0, -0.18736555, 0.9822902), (0, -0.5334021, 0.84586185), (-1.1869466e-8, -0.9238796, 0.3826833), (-0.9456779, 0, -0.32510522), (-0.7886132, 0, -0.6148896), (-0.78861946, 0, -0.61488163), (-0.9456795, 0, -0.32510042), (-0.43881565, 0, 0.8985771), (-0.43881115, 0, 0.8985793), (-0.9456779, 0, 0.32510522), (-0.9456795, 0, 0.3251004), (0, 0, 1), (-1.9677227e-8, 0, 1), (-1.7362403e-8, 0, 1), (0, 0, 1), (0, 0, -1), (0, 0, -1), (0, 0, -1), (0, 0, -1), (0, 0.18736555, 0.9822903), (0, 0.5334021, 0.84586185), (-0.43352517, 0.3380175, 0.8353443), (-0.37774915, 0.102160364, 0.9202548), (-0.9074583, 0.29708314, 0.2970876), (-0.43352517, 0.3380175, 0.8353443), (-0.77127266, 0.6013576, -0.20858479), (-0.9074583, 0.2970832, -0.29708758), (-0.7886132, 0, -0.6148896), (-0.9456779, 0, -0.32510522), (-0.9074583, 0.2970832, -0.29708758), (-0.77126527, 0.20858489, -0.6013671), (-0.43881565, 0, 0.8985771), (-0.9456795, 0, 0.3251004), (-0.90746015, -0.29708257, 0.29708233), (-0.37775418, -0.102160685, 0.9202527), (-0.43352517, -0.3380175, 0.8353443), (-0.90746015, -0.29708257, 0.29708233), (-0.90746015, -0.2970826, -0.29708228), (-0.77127266, -0.6013576, -0.20858479), (0, 0, 1), (0, 0, 0), (0, 0, 0), (0, 0, 1), (-5.934732e-9, 0.38268343, -0.92387956), (-5.934731e-9, 0.92387956, -0.3826834), (0, 0.92387956, -0.3826834), (0, 0.38268346, -0.92387956), (-2.1977314e-8, -0.38268358, 0.92387944), (-1.1869466e-8, -0.9238796, 0.3826833), (0, -0.9238796, 0.38268325), (0, -0.38268366, 0.92387944), (6.1201916e-16, 0.38268355, 0.92387956), (0, 0.92387956, 0.3826833), (-1.1869463e-8, 0.92387956, 0.38268337), (-1.9471761e-8, 0.38268346, 0.92387944), (0, -0.38268363, -0.92387944), (0, -0.9238796, -0.38268328), (4.839834e-8, -0.92387956, -0.38268328), (4.8398356e-8, -0.38268346, -0.92387944), (0.35112345, 0.9363292, 0), (0.35112345, 0.9363292, 0), (0.07653288, 0.94822747, -0.30823278), (0.14657673, 0.6860536, -0.71263295), (-0.37775418, -0.102160685, 0.9202527), (-0.43352517, -0.3380175, 0.8353443), (0, -0.5334021, 0.84586185), (0, -0.18736555, 0.9822902), (-1.1869466e-8, -0.9238796, 0.3826833), (0, -0.5334021, 0.84586185), (1.0866623e-7, -0.92387944, -0.38268363), (4.839834e-8, -0.92387956, -0.38268328), (-1.9677227e-8, 0, 1), (0, 0, 1), (0, -0.18736555, 0.9822902), (-2.1977314e-8, -0.38268358, 0.92387944), (0, 0, -1), (0, 0, -1), (4.8398356e-8, -0.38268346, -0.92387944), (1.08666185e-7, -0.38268337, -0.92387956), (0, 0.5334021, 0.84586185), (-1.1869463e-8, 0.92387956, 0.38268337), (-5.934731e-9, 0.92387956, -0.3826834), (0.07653288, 0.94822747, -0.30823278), (-0.7712732, -0.20858489, -0.60135686), (-0.90746015, -0.2970826, -0.29708228), (-0.9456795, 0, -0.32510042), (-0.78861946, 0, -0.61488163), (-0.37774915, 0.102160364, 0.9202548), (-0.9074583, 0.29708314, 0.2970876), (-0.9456779, 0, 0.32510522), (-0.43881115, 0, 0.8985793), (0.14657673, 0.6860536, -0.71263295), (-5.934732e-9, 0.38268343, -0.92387956), (0, 0, -1), (0, 0, -1), (0, 0, -1), (0, 0, -1), (0, 0, -1), (0, 0, -1), (0, 0, 1), (0, 0, 1), (-1.7362403e-8, 0, 1), (-1.9677227e-8, 0, 1), (0, 0, 1), (0, 0, 1), (0, 0, 1), (0, 0, 1), (-0.9456795, 0, 0.3251004), (-0.9456779, 0, 0.32510522), (-0.9456779, 0, -0.32510522), (-0.9456795, 0, -0.32510042), (-0.43881115, 0, 0.8985793), (-0.43881565, 0, 0.8985771), (0, 0, 1), (0, 0, 1), (-1.9471761e-8, 0.38268346, 0.92387944), (0, 0.18736555, 0.9822903), (0, 0, 1), (-1.7362403e-8, 0, 1), (0, 0, 0), (0, 0, 0), (0, -0.5334021, 0.84586185), (-0.43352517, -0.3380175, 0.8353443), (0, 0, -1), (0, 0, -1), (0, 0, -1), (0, 0, -1)] (
                interpolation = "faceVarying"
            )
            point3f[] points = [(-1.3901495, 0.17333004, 0.9676692), (-0.9445066, 0.17556508, 0.98482877), (-0.4988639, 0.17780013, 0.9676692), (-1.3878212, -0.29090878, 0.99642587), (-0.9421783, -0.28867373, 1.0152403), (-0.49653557, -0.28643867, 0.99642605), (-1.3854928, -0.57424873, 0.9676692), (-0.93985, -0.5720137, 0.98482877), (-0.49420726, -0.5697786, 0.9676692), (-0.4988639, 0.17780013, 0.4586134), (-0.94450676, 0.17556508, 0.44145375), (-1.3901495, 0.17333004, 0.4586134), (-0.49653557, -0.28643867, 0.4298566), (-0.9421784, -0.28867373, 0.4110422), (-1.3878212, -0.29090878, 0.4298566), (-0.49420726, -0.5697786, 0.4586134), (-0.93985015, -0.5720137, 0.44145375), (-1.3854928, -0.57424873, 0.4586134), (-1.8288074, -1.0407225, 0.63147616), (-1.7082851, -0.9801022, 0.5370038), (-0.16736062, -0.9723739, 0.5370038), (-0.046236057, -1.0317823, 0.63147616), (-1.7169961, 0.57592535, 0.5370038), (-1.8381206, 0.6353338, 0.63147616), (-0.17607187, 0.5836536, 0.5370038), (-0.05554933, 0.64427394, 0.63147616), (-0.16736053, -0.9723739, 0.8892789), (-0.046236057, -1.0317823, 0.79480666), (-1.7082847, -0.9801022, 0.8892789), (-1.8288074, -1.0407225, 0.79480666), (-1.7169961, 0.57592535, 0.8892789), (-1.8381206, 0.6353338, 0.79480666), (-0.17607187, 0.5836536, 0.8892789), (-0.05554933, 0.64427394, 0.79480666), (-1.7265395, 0.17164294, 0.51275516), (-1.8357924, 0.17109498, 0.61199576), (-1.732162, -0.29263574, 0.49062207), (-1.8334639, -0.2931438, 0.59640884), (-1.8311357, -0.5764837, 0.61199576), (-1.7218829, -0.5759358, 0.51275516), (-0.053221013, 0.18003519, 0.61199576), (-0.16247383, 0.17948723, 0.51275516), (-0.050892696, -0.28420362, 0.59640884), (-0.15219484, -0.28471166, 0.49062207), (-0.1578172, -0.56809145, 0.51275516), (-0.04856438, -0.56754357, 0.61199576), (-1.8357924, 0.17109498, 0.81428695), (-1.7265395, 0.17164294, 0.9135275), (-1.8334639, -0.2931438, 0.829874), (-1.732162, -0.29263577, 0.9356605), (-1.7218829, -0.5759358, 0.9135275), (-1.8311357, -0.5764837, 0.81428695), (-0.162474, 0.17948723, 0.9135275), (-0.053221013, 0.18003519, 0.81428695), (-0.152195, -0.2847117, 0.9356607), (-0.050892696, -0.28420362, 0.829874), (-0.04856438, -0.56754357, 0.81428695), (-0.15781711, -0.56809145, 0.9135275), (-0.49187893, -1.0340173, 0.5864564), (-0.49217907, -0.9741737, 0.49439922), (-0.9375218, -1.0362524, 0.57568586), (-0.9378211, -0.97657436, 0.47934443), (-1.3834647, -0.97864383, 0.49439922), (-1.3831645, -1.0384874, 0.58645636), (-1.3924778, 0.6375688, 0.58645636), (-1.3921777, 0.57772523, 0.49439922), (-0.9468349, 0.6398038, 0.57568586), (-0.94653565, 0.58012587, 0.47934443), (-0.500892, 0.58219534, 0.49439922), (-0.5011922, 0.6420389, 0.58645636), (-0.49217907, -0.9741737, 0.93188345), (-0.49187893, -1.0340173, 0.8398264), (-0.9378211, -0.97657436, 0.9469382), (-0.9375218, -1.0362524, 0.85059685), (-1.3831645, -1.0384874, 0.8398264), (-1.3834647, -0.97864383, 0.93188345), (-1.3921777, 0.57772523, 0.93188345), (-1.3924778, 0.6375688, 0.8398264), (-0.94653565, 0.58012587, 0.9469382), (-0.9468349, 0.6398038, 0.85059685), (-0.5011922, 0.6420389, 0.8398264), (-0.500892, 0.58219534, 0.93188345), (-1.3814671, 0.6916942, 1.1721679), (-0.93582827, 0.70870215, 1.175885), (-0.49025074, 0.6916942, 1.1841538), (-1.3861622, 0.76985955, 1.521277), (-0.9405204, 0.7885076, 1.5247746), (-0.49494588, 0.76985955, 1.5332626), (-0.4913146, 0.100516975, 1.2632531), (-0.93695337, 0.083508864, 1.2595358), (-1.3825308, 0.100516975, 1.2512673), (-0.49611217, 0.12167694, 1.6199894), (-0.94175404, 0.1030288, 1.6164916), (-1.3873285, 0.12167694, 1.6080037), (-1.8436179, 0.43275043, 1.9353714), (-1.7221723, 0.3311529, 1.8900455), (-0.18136819, 0.3311529, 1.9107674), (-0.06118538, 0.43275043, 1.9593426), (-1.7037723, 0.14445154, 0.98275614), (-1.8236182, 0.2301296, 0.909123), (-0.16296813, 0.14445154, 1.0034779), (-0.041185617, 0.2301296, 0.93309444), (-0.18058397, 0.76693463, 1.8524599), (-0.06073818, 0.6812567, 1.926093), (-1.7213877, 0.76693463, 1.8317381), (-1.8431706, 0.6812567, 1.9021213), (-1.7029884, 0.58023334, 0.92444867), (-1.8231709, 0.47863594, 0.8758729), (-0.162184, 0.58023334, 0.94517046), (-0.04073842, 0.47863594, 0.89984447), (-1.7187978, 0.1541803, 1.2395635), (-1.8278654, 0.2525441, 1.2249333), (-1.7315339, 0.1819055, 1.5953145), (-1.8326396, 0.28675753, 1.5799229), (-0.045432802, 0.2525441, 1.2489046), (-0.15485413, 0.1541803, 1.2605965), (-0.05020702, 0.28675753, 1.6038944), (-0.15168999, 0.1819055, 1.6165613), (-1.8273487, 0.53966695, 1.1865164), (-1.7179275, 0.6380306, 1.1748245), (-1.8320673, 0.60477895, 1.5373718), (-1.7305844, 0.70963097, 1.5247049), (-0.15398371, 0.6380307, 1.1958576), (-0.044916146, 0.53966695, 1.2104878), (-0.1507406, 0.70963097, 1.5459518), (-0.04963476, 0.60477895, 1.5613432), (-0.50687385, 0.3881285, 1.9593202), (-0.50624037, 0.2889474, 1.9122183), (-0.95250124, 0.377453, 1.9547558), (-0.9518777, 0.27404758, 1.9083862), (-1.3974566, 0.2889474, 1.9002329), (-1.3980902, 0.3881283, 1.9473348), (-1.3780903, 0.18550745, 0.92108625), (-1.3790522, 0.1022008, 0.9926049), (-0.9325013, 0.17483209, 0.9285075), (-0.93346864, 0.087257065, 1.0004302), (-0.48783588, 0.1022008, 1.0045906), (-0.48687407, 0.18550745, 0.9330721), (-0.5053042, 0.8091854, 1.8426111), (-0.5062661, 0.72587883, 1.9141291), (-0.95088774, 0.824129, 1.8347858), (-0.9518551, 0.73655415, 1.9067081), (-1.3974823, 0.72587883, 1.9021437), (-1.3965204, 0.8091854, 1.8306253), (-1.378116, 0.62243885, 0.92299724), (-1.3774825, 0.523258, 0.8758953), (-0.93247867, 0.6373386, 0.9268296), (-0.93185514, 0.53393334, 0.88045996), (-0.48626626, 0.523258, 0.8878811), (-0.48689973, 0.62243885, 0.934983), (0.45759648, 0.18437025, 0.9676692), (0.9031563, 0.17547853, 0.98482877), (1.3487159, 0.1665868, 0.9676692), (0.4483337, -0.279782, 0.99642587), (0.89389354, -0.28867373, 1.0152403), (1.3394532, -0.29756546, 0.99642605), (0.43907094, -0.56303537, 0.9676692), (0.88463074, -0.5719271, 0.98482877), (1.3301904, -0.58081883, 0.9676692), (1.3487159, 0.1665868, 0.4586134), (0.90315616, 0.17547853, 0.44145375), (0.45759648, 0.18437025, 0.4586134), (1.3394532, -0.29756546, 0.4298566), (0.89389336, -0.28867373, 0.4110422), (0.4483337, -0.279782, 0.4298566), (1.3301904, -0.58081883, 0.4586134), (0.8846306, -0.5719271, 0.44145375), (0.43907094, -0.56303537, 0.4586134), (-0.01575164, -1.0182958, 0.63147616), (0.10624682, -0.9607034, 0.5370038), (1.6468836, -0.9914488, 0.5370038), (1.7664874, -1.0538627, 0.63147616), (0.1409031, 0.59500027, 0.5370038), (0.02129944, 0.6574142, 0.63147616), (1.6815399, 0.5642548, 0.5370038), (1.8035384, 0.6218473, 0.63147616), (1.646884, -0.9914488, 0.8892789), (1.7664874, -1.0538627, 0.79480666), (0.106247164, -0.9607034, 0.8892789), (-0.01575164, -1.0182958, 0.79480666), (0.1409031, 0.59500027, 0.8892789), (0.02129944, 0.6574142, 0.79480666), (1.6815399, 0.5642548, 0.8892789), (1.8035384, 0.6218473, 0.79480666), (0.121269256, 0.19108212, 0.51275516), (0.01203667, 0.19326198, 0.61199576), (0.10405725, -0.2729115, 0.49062207), (0.0027739, -0.27089027, 0.59640884), (-0.0064888704, -0.5541436, 0.61199576), (0.10274354, -0.5563235, 0.51275516), (1.7942755, 0.15769507, 0.61199576), (1.6850433, 0.15987495, 0.51275516), (1.785013, -0.3064572, 0.59640884), (1.6837296, -0.30443594, 0.49062207), (1.6665179, -0.5875307, 0.51275516), (1.7757499, -0.58971053, 0.61199576), (0.01203667, 0.19326198, 0.81428695), (0.121269085, 0.19108212, 0.9135275), (0.0027739, -0.27089027, 0.829874), (0.10405708, -0.2729115, 0.9356605), (0.10274354, -0.5563235, 0.9135275), (-0.0064888704, -0.5541436, 0.81428695), (1.685043, 0.15987495, 0.9135275), (1.7942755, 0.15769507, 0.81428695), (1.6837296, -0.30443594, 0.9356607), (1.785013, -0.3064572, 0.829874), (1.7757499, -0.58971053, 0.81428695), (1.6665179, -0.5875307, 0.9135275), (1.3209276, -1.044971, 0.5864564), (1.3221216, -0.9851386, 0.49439922), (0.8753678, -1.0360792, 0.57568586), (0.8765585, -0.9764123, 0.47934443), (0.43100217, -0.9673551, 0.49439922), (0.42980817, -1.0271875, 0.58645636), (0.46685925, 0.6485225, 0.58645636), (0.46566516, 0.5886901, 0.49439922), (0.9124191, 0.63963073, 0.57568586), (0.9112283, 0.5799638, 0.47934443), (1.3567846, 0.5709066, 0.49439922), (1.3579787, 0.630739, 0.58645636), (1.3221216, -0.9851386, 0.93188345), (1.3209276, -1.044971, 0.8398264), (0.8765585, -0.9764123, 0.9469382), (0.8753678, -1.0360792, 0.85059685), (0.42980817, -1.0271875, 0.8398264), (0.43100217, -0.9673551, 0.93188345), (0.46566516, 0.5886901, 0.93188345), (0.46685925, 0.6485225, 0.8398264), (0.9112283, 0.5799638, 0.9469382), (0.9124191, 0.63963073, 0.85059685), (1.3579787, 0.630739, 0.8398264), (1.3567846, 0.5709066, 0.93188345), (0.51708513, 0.6809578, 1.1726383), (0.9629846, 0.67318594, 1.1758784), (1.4069381, 0.6314537, 1.1836702), (0.5171122, 0.75924253, 1.5217521), (0.96310544, 0.7531081, 1.5247729), (1.4069651, 0.7097385, 1.5327839), (1.373123, 0.04124346, 1.2627707), (0.9272237, 0.049015224, 1.2595305), (0.48327014, 0.090747505, 1.2517389), (1.3698894, 0.06261607, 1.6195121), (0.92389625, 0.06875042, 1.6164911), (0.48003644, 0.1121201, 1.6084803), (0.04257278, 0.44801155, 1.9363359), (0.15813899, 0.33982775, 1.89088), (1.6965865, 0.25424126, 1.9099525), (1.822279, 0.34900346, 1.9583993), (0.16467786, 0.15247384, 0.9835716), (0.049697675, 0.24468099, 0.9100668), (1.7031251, 0.06688739, 1.0026441), (1.8294038, 0.14567286, 0.9321303), (1.7215129, 0.68931025, 1.8516442), (1.8364934, 0.59710324, 1.9251488), (0.18306574, 0.77489674, 1.8325716), (0.056787286, 0.6961113, 1.9030854), (0.18960436, 0.58754295, 0.92526335), (0.06391201, 0.49278095, 0.8768162), (1.7280519, 0.50195646, 0.9443359), (1.8436179, 0.39377278, 0.89887977), (0.1504903, 0.16300696, 1.2403948), (0.047039397, 0.26727802, 1.2258815), (0.1396943, 0.19137561, 1.5961595), (0.044552438, 0.30168268, 1.5808761), (1.8267455, 0.16826992, 1.247945), (1.7120419, 0.076135166, 1.2597538), (1.8242584, 0.20267464, 1.6029396), (1.7171215, 0.103620656, 1.6157151), (0.06346285, 0.55393124, 1.1874641), (0.17816605, 0.6460659, 1.1756551), (0.06274326, 0.619184, 1.5383244), (0.16987988, 0.71823794, 1.525549), (1.7397177, 0.55919415, 1.1950142), (1.8431686, 0.45492315, 1.2095276), (1.7473072, 0.630483, 1.5451047), (1.8424491, 0.5201759, 1.5603878), (1.3748001, 0.32920647, 1.9588541), (1.3698729, 0.23014615, 1.9117514), (0.92926276, 0.3433005, 1.9547664), (0.9240921, 0.24002282, 1.9083965), (0.48002005, 0.27965015, 1.9007199), (0.48494703, 0.3787104, 1.9478221), (0.49207175, 0.1753798, 0.92155313), (0.48656043, 0.09225093, 0.99307287), (0.93638766, 0.13996986, 0.9284973), (0.9306344, 0.052579455, 1.0004212), (1.3764133, 0.04274688, 1.0041046), (1.3819247, 0.12587573, 0.9325849), (1.3996302, 0.74953324, 1.8421428), (1.394119, 0.6664044, 1.9136622), (0.9555566, 0.78920454, 1.8347948), (0.9498032, 0.70181435, 1.9067183), (0.50426614, 0.7159084, 1.9026307), (0.50977737, 0.7990372, 1.8311113), (0.51631784, 0.611638, 0.923464), (0.5113909, 0.5125779, 0.87636155), (0.9620987, 0.6017613, 0.9268193), (0.9569281, 0.49848384, 0.8804491), (1.4012439, 0.46307388, 0.8873933), (1.4061708, 0.5621339, 0.93449575), (1.8055636, -0.61003625, 0.2424995), (2.0217123, -0.61003625, 0.2424995), (1.8055636, -0.8381942, 0.2424995), (2.0217123, -0.8381942, 0.2424995), (2.0217123, -0.8381942, 1.0594198e-7), (2.0217123, -0.61003625, 1.0594198e-7), (1.8055636, -0.61003625, 1.0594198e-7), (1.8055636, -0.8381942, 1.0594198e-7), (1.8055636, 0.83819723, 0.2424995), (2.0217123, 0.83819723, 0.2424995), (1.8055636, 0.61003923, 0.2424995), (2.0217123, 0.61003923, 0.2424995), (2.0217123, 0.61003923, 1.0594198e-7), (2.0217123, 0.83819723, 1.0594198e-7), (1.8055636, 0.83819723, 1.0594198e-7), (1.8055636, 0.61003923, 1.0594198e-7), (-1.8055636, -0.61003625, 0.2424995), (-2.0217123, -0.61003625, 0.2424995), (-1.8055636, -0.8381942, 0.2424995), (-2.0217123, -0.8381942, 0.2424995), (-2.0217123, -0.8381942, 1.0594198e-7), (-2.0217123, -0.61003625, 1.0594198e-7), (-1.8055636, -0.61003625, 1.0594198e-7), (-1.8055636, -0.8381942, 1.0594198e-7), (-1.8055636, 0.83819723, 0.2424995), (-2.0217123, 0.83819723, 0.2424995), (-1.8055636, 0.61003923, 0.2424995), (-2.0217123, 0.61003923, 0.2424995), (-2.0217123, 0.61003923, 1.0594198e-7), (-2.0217123, 0.83819723, 1.0594198e-7), (-1.8055636, 0.83819723, 1.0594198e-7), (-1.8055636, 0.61003923, 1.0594198e-7), (2.2145195, -0.9251726, 0.47717115), (1.8115978, -0.9251726, 0.47717115), (1.8115978, -0.9817552, 0.47717115), (2.2145195, -0.9817552, 0.47717115), (2.2145197, 0.8214919, 0.47717115), (1.8115982, 0.8214919, 0.47717115), (1.8115982, 0.87807447, 0.47717115), (2.2145197, 0.87807447, 0.47717115), (2.2145195, -0.92517245, 1.2109916), (2.2145195, -0.92517245, 1.1669488), (1.8115978, -0.92517245, 1.2109916), (1.8115978, -0.92517245, 1.1669488), (1.8115978, -0.981755, 1.1669488), (1.8115978, -0.981755, 1.2109916), (2.2145195, -0.981755, 1.2109916), (2.2145195, -0.981755, 1.1669488), (2.2145197, 0.8214917, 1.2109916), (2.2145197, 0.8214917, 1.1669488), (1.8115982, 0.8214917, 1.2109916), (1.8115982, 0.8214917, 1.1669488), (1.8115982, 0.8780743, 1.1669488), (1.8115982, 0.8780743, 1.2109916), (2.2145197, 0.8780743, 1.2109916), (2.2145197, 0.8780743, 1.1669488), (2.2593315, -0.9464379, 0.281917), (2.1881227, -1.037767, 0.281917), (2.1881227, -0.9464379, 0.19058792), (2.1881227, -0.9464379, 0.6177618), (2.1881227, -1.037767, 0.52643263), (2.2593315, -0.9464379, 0.5264327), (2.1881227, 0.9456151, 0.281917), (2.2593315, 0.85428596, 0.281917), (2.1881227, 0.85428596, 0.19058792), (2.1881227, 0.85428596, 0.6177618), (2.2593315, 0.85428596, 0.5264327), (2.1881227, 0.9456151, 0.52643263), (2.1881227, 0.85428596, 0.6177618), (2.1881227, 0.9456151, 0.52643263), (1.9726526, 0.9456151, 0.52643263), (1.9726526, 0.85428596, 0.6177618), (2.1881227, -0.9464379, 0.19058792), (2.1881227, -1.037767, 0.281917), (1.9726526, -1.037767, 0.28191712), (1.9726526, -0.9464379, 0.19058792), (1.9726526, 0.85428596, 0.19058792), (1.9726526, 0.9456151, 0.28191712), (2.1881227, 0.9456151, 0.28191712), (2.1881227, 0.85428596, 0.19058792), (1.9726526, -0.9464379, 0.6177618), (1.9726526, -1.037767, 0.52643263), (2.1881227, -1.037767, 0.52643263), (2.1881227, -0.9464379, 0.6177618), (2.2593315, 0.8540234, 0.281917), (2.2593315, 0.671365, 0.281917), (2.1881227, 0.671365, 0.19058792), (2.1881227, 0.8540234, 0.19058792), (2.1881227, 0.671365, 0.6177618), (2.2593315, 0.671365, 0.5264327), (2.2593315, 0.8540234, 0.5264327), (2.1881227, 0.8540234, 0.6177618), (2.1881227, 0.671365, 0.6177618), (2.1881227, 0.8540234, 0.6177618), (1.9726526, 0.8540234, 0.6177618), (1.9726526, 0.671365, 0.6177618), (2.1881227, 0.671365, 0.19058792), (1.9726526, 0.671365, 0.19058792), (1.9726526, 0.8540234, 0.19058792), (2.1881227, 0.8540234, 0.19058792), (-2.2145195, -0.9251726, 0.47717115), (-1.8115978, -0.9251726, 0.47717115), (-1.8115978, -0.9817552, 0.47717115), (-2.2145195, -0.9817552, 0.47717115), (-2.2145197, 0.8214919, 0.47717115), (-1.8115982, 0.8214919, 0.47717115), (-1.8115982, 0.87807447, 0.47717115), (-2.2145197, 0.87807447, 0.47717115), (-2.2145195, -0.92517245, 1.2109916), (-2.2145195, -0.92517245, 1.1669488), (-1.8115978, -0.92517245, 1.2109916), (-1.8115978, -0.92517245, 1.1669488), (-1.8115978, -0.981755, 1.1669488), (-1.8115978, -0.981755, 1.2109916), (-2.2145195, -0.981755, 1.2109916), (-2.2145195, -0.981755, 1.1669488), (-2.2145197, 0.8214917, 1.2109916), (-2.2145197, 0.8214917, 1.1669488), (-1.8115982, 0.8214917, 1.2109916), (-1.8115982, 0.8214917, 1.1669488), (-1.8115982, 0.8780743, 1.1669488), (-1.8115982, 0.8780743, 1.2109916), (-2.2145197, 0.8780743, 1.2109916), (-2.2145197, 0.8780743, 1.1669488), (0, 0.87807447, 0.47717115), (0, 0.8214919, 0.47717115), (0, 0.8214917, 1.1669488), (0, 0.8214917, 1.2109916), (0, 0.8780743, 1.1669488), (0, 0.8780743, 1.2109916), (-2.2593315, -0.9464379, 0.281917), (-2.1881227, -1.037767, 0.281917), (-2.1881227, -0.9464379, 0.19058792), (-2.1881227, -0.9464379, 0.6177618), (-2.1881227, -1.037767, 0.52643263), (-2.2593315, -0.9464379, 0.5264327), (-2.1881227, 0.9456151, 0.281917), (-2.2593315, 0.85428596, 0.281917), (-2.1881227, 0.85428596, 0.19058792), (-2.1881227, 0.85428596, 0.6177618), (-2.2593315, 0.85428596, 0.5264327), (-2.1881227, 0.9456151, 0.52643263), (0, 0.9456151, 0.281917), (0, 0.85428596, 0.19058792), (0, 0.85428596, 0.61776185), (0, 0.9456151, 0.5264327), (0, -0.9464379, 0.19058792), (0, -1.037767, 0.281917), (0, -1.037767, 0.5264327), (0, -0.9464379, 0.61776185), (-2.1881227, 0.85428596, 0.6177618), (-2.1881227, 0.9456151, 0.52643263), (-1.9726526, 0.9456151, 0.52643263), (-1.9726526, 0.85428596, 0.6177618), (-2.1881227, -0.9464379, 0.19058792), (-2.1881227, -1.037767, 0.281917), (-1.9726526, -1.037767, 0.28191712), (-1.9726526, -0.9464379, 0.19058792), (-1.9726526, 0.85428596, 0.19058792), (-1.9726526, 0.9456151, 0.28191712), (-2.1881227, 0.9456151, 0.28191712), (-2.1881227, 0.85428596, 0.19058792), (-1.9726526, -0.9464379, 0.6177618), (-1.9726526, -1.037767, 0.52643263), (-2.1881227, -1.037767, 0.52643263), (-2.1881227, -0.9464379, 0.6177618), (-2.2593315, 0.8540234, 0.281917), (-2.2593315, 0.671365, 0.281917), (-2.1881227, 0.671365, 0.19058792), (-2.1881227, 0.8540234, 0.19058792), (-2.1881227, 0.671365, 0.6177618), (-2.2593315, 0.671365, 0.5264327), (-2.2593315, 0.8540234, 0.5264327), (-2.1881227, 0.8540234, 0.6177618), (0, 0.671365, 0.61776185), (0, 0.8540234, 0.61776185), (0, 0.8540234, 0.19058792), (0, 0.671365, 0.19058792), (-2.1881227, 0.671365, 0.6177618), (-2.1881227, 0.8540234, 0.6177618), (-1.9726526, 0.8540234, 0.6177618), (-1.9726526, 0.671365, 0.6177618), (-2.1881227, 0.671365, 0.19058792), (-1.9726526, 0.671365, 0.19058792), (-1.9726526, 0.8540234, 0.19058792), (-2.1881227, 0.8540234, 0.19058792)]
            uniform token subdivisionScheme = "none"
            uniform token subsetFamily:materialBind:familyType = "nonOverlapping"
            custom string userProperties:blender:data_name = "Cube.047"

            def GeomSubset "Couch_Mustard" (
                prepend apiSchemas = ["MaterialBindingAPI"]
            )
            {
                uniform token elementType = "face"
                uniform token familyName = "materialBind"
                int[] indices = [0, 1, 2, 3, 4, 5, 6, 7, 8, 9, 10, 11, 12, 13, 14, 15, 16, 17, 18, 19, 20, 21, 22, 23, 24, 25, 26, 27, 28, 29, 30, 31, 32, 33, 34, 35, 36, 37, 38, 39, 40, 41, 42, 43, 44, 45, 46, 47, 48, 49, 50, 51, 52, 53, 54, 55, 56, 57, 58, 59, 60, 61, 62, 63, 64, 65, 66, 67, 68, 69, 70, 71, 72, 73, 74, 75, 76, 77, 78, 79, 80, 81, 82, 83, 84, 85, 86, 87, 88, 89, 90, 91, 92, 93, 94, 95, 96, 97, 98, 99, 100, 101, 102, 103, 104, 105, 106, 107, 108, 109, 110, 111, 112, 113, 114, 115, 116, 117, 118, 119, 120, 121, 122, 123, 124, 125, 126, 127, 128, 129, 130, 131, 132, 133, 134, 135, 136, 137, 138, 139, 140, 141, 142, 143, 144, 145, 146, 147, 148, 149, 150, 151, 152, 153, 154, 155, 156, 157, 158, 159, 160, 161, 162, 163, 164, 165, 166, 167, 168, 169, 170, 171, 172, 173, 174, 175, 176, 177, 178, 179, 180, 181, 182, 183, 184, 185, 186, 187, 188, 189, 190, 191, 192, 193, 194, 195, 196, 197, 198, 199, 200, 201, 202, 203, 204, 205, 206, 207, 208, 209, 210, 211, 212, 213, 214, 215, 216, 217, 218, 219, 220, 221, 222, 223, 224, 225, 226, 227, 228, 229, 230, 231, 232, 233, 234, 235, 236, 237, 238, 239, 240, 241, 242, 243, 244, 245, 246, 247, 248, 249, 250, 251, 252, 253, 254, 255, 256, 257, 258, 259, 260, 261, 262, 263, 264, 265, 266, 267, 268, 269, 270, 271, 272, 273, 274, 275, 276, 277, 278, 279, 280, 281, 282, 283, 284, 285, 286, 287, 288, 289, 290, 291, 339, 340, 341, 342, 343, 344, 345, 346, 347, 348, 349, 350, 351, 352, 353, 354, 355, 356, 357, 358, 359, 360, 361, 362, 363, 364, 365, 366, 367, 368, 369, 370, 371, 372, 373, 374, 375, 376, 377, 378, 379, 380, 381, 382, 383, 384, 385, 386, 387, 388, 389, 414, 415, 416, 417, 418, 419, 420, 421, 422, 423, 424, 425, 426, 427, 428, 429, 430, 431, 432, 433, 434, 435, 436, 437, 438, 439, 440, 441, 442, 443, 444, 445, 446, 447, 448, 449, 450, 451, 452, 453, 454, 455, 456, 457, 458, 459, 460, 461, 462, 463, 464]
                rel material:binding = </root/_materials/Couch_Mustard>
            }

            def GeomSubset "Wood" (
                prepend apiSchemas = ["MaterialBindingAPI"]
            )
            {
                uniform token elementType = "face"
                uniform token familyName = "materialBind"
                int[] indices = [292, 293, 294, 295, 296, 297, 298, 299, 300, 301, 302, 303, 304, 305, 306, 307, 308, 309, 310, 311, 312, 313, 314, 315, 316, 317, 318, 319, 320, 321, 322, 323, 324, 325, 326, 327, 328, 329, 330, 331, 332, 333, 334, 335, 336, 337, 338, 390, 391, 392, 393, 394, 395, 396, 397, 398, 399, 400, 401, 402, 403, 404, 405, 406, 407, 408, 409, 410, 411, 412, 413, 465]
                rel material:binding = </root/_materials/Wood>
            }
        }
    }

    def Scope "_materials"
    {
        def Material "Couch_Mustard"
        {
            token outputs:surface.connect = </root/_materials/Couch_Mustard/Principled_BSDF.outputs:surface>
            custom string userProperties:blender:data_name = "Couch_Mustard"

            def Shader "Principled_BSDF"
            {
                uniform token info:id = "UsdPreviewSurface"
                float inputs:clearcoat = 0
                float inputs:clearcoatRoughness = 0.03
                color3f inputs:diffuseColor = (0.15742953, 0.11244289, 0.041295685)
                float inputs:ior = 1.5
                float inputs:metallic = 0
                float inputs:opacity = 1
                float inputs:roughness = 0.6900348
                float inputs:specular = 0.5
                token outputs:surface
            }
        }

        def Material "Wood"
        {
            token outputs:surface.connect = </root/_materials/Wood/Principled_BSDF.outputs:surface>
            custom string userProperties:blender:data_name = "Wood"

            def Shader "Principled_BSDF"
            {
                uniform token info:id = "UsdPreviewSurface"
                float inputs:clearcoat = 0
                float inputs:clearcoatRoughness = 0.03
                color3f inputs:diffuseColor = (0.114435375, 0.08865559, 0.056128494)
                float inputs:ior = 1.5
                float inputs:metallic = 0
                float inputs:opacity = 1
                float inputs:roughness = 0.6900348
                float inputs:specular = 0.5
                token outputs:surface
            }
        }
    }
}

