#usda 1.0
(
    defaultPrim = "root"
    doc = "Blender v5.1.2"
    metersPerUnit = 1
    upAxis = "Y"
)

def Xform "root" (
    customData = {
        dictionary Blender = {
            bool generated = 1
        }
    }
)
{
    float3 xformOp:rotateXYZ = (-90, -0, 0)
    uniform token[] xformOpOrder = ["xformOp:rotateXYZ"]

    def Xform "Houseplant_2"
    {
        custom string userProperties:blender:object_name = "Houseplant_2"

        def Mesh "Cylinder_021" (
            active = true
            prepend apiSchemas = ["MaterialBindingAPI"]
        )
        {
            uniform bool doubleSided = 1
            float3[] extent = [(-0.12527533, -0.12527533, 0.001051454), (0.12527533, 0.12527533, 0.38594344)]
            int[] faceVertexCounts = [4, 4, 4, 4, 4, 4, 4, 4, 4, 4, 4, 4, 4, 4, 4, 4, 4, 4, 8, 4, 4, 4, 4, 4, 4, 4, 4, 4, 4, 4, 4, 4, 4, 4, 8, 4, 4, 4, 4, 4, 4, 4, 4, 4, 4, 4, 4, 4, 4, 4, 4, 4, 4, 4, 4, 4, 4, 4, 4, 4, 4, 4, 4, 4, 4, 4, 4, 4, 4, 4, 3, 3, 3, 3, 4, 3, 3, 3, 3, 4, 3, 3, 3, 3, 4, 3, 3, 3, 3, 4, 3, 3, 3, 3, 4, 3, 3, 3, 3, 4, 3, 3, 3, 3, 4, 3, 3, 3, 3, 4, 3, 3, 3, 3, 4, 3, 3, 3, 3, 4, 3, 3, 3, 3, 4, 3, 3, 3, 3, 4, 4, 4, 4, 4, 4, 4, 4, 4, 4, 4, 4, 4, 4, 4, 4, 4, 4, 4, 4, 4, 4, 4, 4, 4, 4, 4, 4, 4, 3, 3, 3, 3, 4, 3, 3, 3, 3, 4, 3, 3, 3, 3, 4, 3, 3, 3, 3, 4, 3, 3, 3, 3, 4, 3, 3, 3, 3, 4, 3, 3, 3, 3, 4, 3, 3, 3, 3, 4]
            int[] faceVertexIndices = [0, 1, 3, 2, 2, 3, 5, 4, 4, 5, 7, 6, 6, 7, 9, 8, 8, 9, 11, 10, 10, 11, 13, 12, 13, 11, 37, 38, 12, 13, 15, 14, 14, 15, 1, 0, 2, 4, 18, 17, 20, 21, 29, 28, 8, 10, 21, 20, 14, 0, 16, 23, 0, 2, 17, 16, 4, 6, 19, 18, 10, 12, 22, 21, 6, 8, 20, 19, 12, 14, 23, 22, 24, 25, 26, 27, 28, 29, 30, 31, 18, 19, 27, 26, 16, 17, 25, 24, 23, 16, 24, 31, 21, 22, 30, 29, 19, 20, 28, 27, 17, 18, 26, 25, 22, 23, 31, 30, 38, 37, 45, 46, 9, 7, 35, 36, 15, 13, 38, 39, 5, 3, 32, 34, 11, 9, 36, 37, 1, 15, 39, 33, 3, 1, 33, 32, 7, 5, 34, 35, 40, 41, 47, 46, 45, 44, 43, 42, 36, 35, 43, 44, 34, 32, 40, 42, 39, 38, 46, 47, 37, 36, 44, 45, 35, 34, 42, 43, 32, 33, 41, 40, 33, 39, 47, 41, 71, 55, 67, 78, 68, 54, 71, 78, 48, 62, 72, 55, 48, 55, 71, 61, 48, 61, 75, 59, 48, 59, 76, 62, 80, 69, 53, 66, 67, 55, 72, 79, 72, 56, 65, 79, 66, 53, 70, 77, 65, 56, 69, 80, 49, 59, 75, 58, 49, 58, 74, 57, 49, 57, 73, 60, 49, 60, 76, 59, 50, 64, 70, 53, 50, 53, 69, 63, 50, 63, 73, 57, 50, 57, 74, 64, 51, 63, 69, 56, 51, 56, 72, 62, 51, 62, 76, 60, 51, 60, 73, 63, 52, 61, 71, 54, 52, 54, 70, 64, 52, 64, 74, 58, 52, 58, 75, 61, 83, 84, 81, 82, 81, 84, 85, 83, 82, 85, 84, 83, 85, 82, 81, 85, 88, 89, 86, 87, 86, 89, 90, 88, 87, 90, 89, 88, 90, 87, 86, 90, 93, 94, 91, 92, 91, 94, 95, 93, 92, 95, 94, 93, 95, 92, 91, 95, 98, 99, 96, 97, 96, 99, 100, 98, 97, 100, 99, 98, 100, 97, 96, 100, 103, 104, 101, 102, 101, 104, 105, 103, 102, 105, 104, 103, 105, 102, 101, 105, 108, 109, 106, 107, 106, 109, 110, 108, 107, 110, 109, 108, 110, 107, 106, 110, 113, 114, 111, 112, 111, 114, 115, 113, 112, 115, 114, 113, 115, 112, 111, 115, 118, 119, 116, 117, 116, 119, 120, 118, 117, 120, 119, 118, 120, 117, 116, 120, 123, 124, 121, 122, 121, 124, 125, 123, 122, 125, 124, 123, 125, 122, 121, 125, 128, 129, 126, 127, 126, 129, 130, 128, 127, 130, 129, 128, 130, 127, 126, 130, 133, 134, 131, 132, 131, 134, 135, 133, 132, 135, 134, 133, 135, 132, 131, 135, 138, 139, 136, 137, 136, 139, 140, 138, 137, 140, 139, 138, 140, 137, 136, 140, 77, 70, 54, 68, 164, 148, 160, 171, 161, 147, 164, 171, 141, 155, 165, 148, 141, 148, 164, 154, 141, 154, 168, 152, 141, 152, 169, 155, 173, 162, 146, 159, 160, 148, 165, 172, 165, 149, 158, 172, 159, 146, 163, 170, 158, 149, 162, 173, 142, 152, 168, 151, 142, 151, 167, 150, 142, 150, 166, 153, 142, 153, 169, 152, 143, 157, 163, 146, 143, 146, 162, 156, 143, 156, 166, 150, 143, 150, 167, 157, 144, 156, 162, 149, 144, 149, 165, 155, 144, 155, 169, 153, 144, 153, 166, 156, 145, 154, 164, 147, 145, 147, 163, 157, 145, 157, 167, 151, 145, 151, 168, 154, 176, 177, 174, 175, 174, 177, 178, 176, 175, 178, 177, 176, 178, 175, 174, 178, 181, 182, 179, 180, 179, 182, 183, 181, 180, 183, 182, 181, 183, 180, 179, 183, 186, 187, 184, 185, 184, 187, 188, 186, 185, 188, 187, 186, 188, 185, 184, 188, 191, 192, 189, 190, 189, 192, 193, 191, 190, 193, 192, 191, 193, 190, 189, 193, 196, 197, 194, 195, 194, 197, 198, 196, 195, 198, 197, 196, 198, 195, 194, 198, 201, 202, 199, 200, 199, 202, 203, 201, 200, 203, 202, 201, 203, 200, 199, 203, 206, 207, 204, 205, 204, 207, 208, 206, 205, 208, 207, 206, 208, 205, 204, 208, 211, 212, 209, 210, 209, 212, 213, 211, 210, 213, 212, 211, 213, 210, 209, 213, 170, 163, 147, 161]
            rel material:binding = </root/_materials/Black>
            normal3f[] normals = [(0, 0.98992795, -0.14157219), (6.255562e-8, 0.9979856, -0.0634402), (0.7056824, 0.7056824, -0.063440174), (0.6999848, 0.6999847, -0.14157218), (0.6999848, 0.6999847, -0.14157218), (0.7056824, 0.7056824, -0.063440174), (0.9979856, -2.0851877e-8, -0.063440114), (0.98992795, -4.1951164e-8, -0.14157216), (0.98992795, -4.1951164e-8, -0.14157216), (0.9979856, -2.0851877e-8, -0.063440114), (0.70568234, -0.70568246, -0.06344009), (0.6999847, -0.6999847, -0.14157213), (0.6999847, -0.6999847, -0.14157213), (0.70568234, -0.70568246, -0.06344009), (-4.1703753e-8, -0.9979857, -0.06344012), (-7.341454e-8, -0.98992795, -0.14157213), (-7.341454e-8, -0.98992795, -0.14157213), (-4.1703753e-8, -0.9979857, -0.06344012), (-0.7056825, -0.70568234, -0.06344014), (-0.69998485, -0.6999846, -0.14157218), (-0.69998485, -0.6999846, -0.14157218), (-0.7056825, -0.70568234, -0.06344014), (-0.9979856, 2.0851873e-8, -0.0634401), (-0.98992795, 2.097558e-8, -0.14157219), (0.0000011078293, 0, 1), (0.0000011078292, 0, 1), (0.0000011078295, 0, 1), (0.0000011078293, 0, 1), (-0.98992795, 2.097558e-8, -0.14157219), (-0.9979856, 2.0851873e-8, -0.0634401), (-0.70568246, 0.70568246, -0.06344015), (-0.6999848, 0.6999847, -0.14157219), (-0.6999848, 0.6999847, -0.14157219), (-0.70568246, 0.70568246, -0.06344015), (6.255562e-8, 0.9979856, -0.0634402), (0, 0.98992795, -0.14157219), (0.6999848, 0.6999847, -0.14157218), (0.98992795, -4.1951164e-8, -0.14157216), (0.956141, -5.207901e-8, -0.29290697), (0.67609376, 0.6760937, -0.2929069), (-1.1457382e-7, -0.9561409, -0.292907), (-0.6760938, -0.67609364, -0.292907), (-0.6568744, -0.6568743, -0.37017855), (-1.3049606e-7, -0.9289606, -0.37017855), (-7.341454e-8, -0.98992795, -0.14157213), (-0.69998485, -0.6999846, -0.14157218), (-0.6760938, -0.67609364, -0.292907), (-1.1457382e-7, -0.9561409, -0.292907), (-0.6999848, 0.6999847, -0.14157219), (0, 0.98992795, -0.14157219), (-3.1247406e-8, 0.956141, -0.2929069), (-0.67609376, 0.6760937, -0.292907), (0, 0.98992795, -0.14157219), (0.6999848, 0.6999847, -0.14157218), (0.67609376, 0.6760937, -0.2929069), (-3.1247406e-8, 0.956141, -0.2929069), (0.98992795, -4.1951164e-8, -0.14157216), (0.6999847, -0.6999847, -0.14157213), (0.6760937, -0.6760938, -0.292907), (0.956141, -5.207901e-8, -0.29290697), (-0.69998485, -0.6999846, -0.14157218), (-0.98992795, 2.097558e-8, -0.14157219), (-0.9561409, -1.0415801e-8, -0.29290697), (-0.6760938, -0.67609364, -0.292907), (0.6999847, -0.6999847, -0.14157213), (-7.341454e-8, -0.98992795, -0.14157213), (-1.1457382e-7, -0.9561409, -0.292907), (0.6760937, -0.6760938, -0.292907), (-0.98992795, 2.097558e-8, -0.14157219), (-0.6999848, 0.6999847, -0.14157219), (-0.67609376, 0.6760937, -0.292907), (-0.9561409, -1.0415801e-8, -0.29290697), (0, 0, -1), (0, 0, -1), (0, 0, -1), (0, 0, -1), (0, 0, -1), (0, 0, -1), (0, 0, -1), (0, 0, -1), (0.956141, -5.207901e-8, -0.29290697), (0.6760937, -0.6760938, -0.292907), (0.65687436, -0.65687436, -0.3701785), (0.9289607, -3.7284593e-8, -0.37017852), (-3.1247406e-8, 0.956141, -0.2929069), (0.67609376, 0.6760937, -0.2929069), (0.6568744, 0.6568744, -0.37017837), (-1.8642297e-8, 0.9289607, -0.37017843), (-0.67609376, 0.6760937, -0.292907), (-3.1247406e-8, 0.956141, -0.2929069), (-1.8642297e-8, 0.9289607, -0.37017843), (-0.6568744, 0.6568744, -0.3701784), (-0.6760938, -0.67609364, -0.292907), (-0.9561409, -1.0415801e-8, -0.29290697), (-0.9289607, -1.8642297e-8, -0.37017843), (-0.6568744, -0.6568743, -0.37017855), (0.6760937, -0.6760938, -0.292907), (-1.1457382e-7, -0.9561409, -0.292907), (-1.3049606e-7, -0.9289606, -0.37017855), (0.65687436, -0.65687436, -0.3701785), (0.67609376, 0.6760937, -0.2929069), (0.956141, -5.207901e-8, -0.29290697), (0.9289607, -3.7284593e-8, -0.37017852), (0.6568744, 0.6568744, -0.37017837), (-0.9561409, -1.0415801e-8, -0.29290697), (-0.67609376, 0.6760937, -0.292907), (-0.6568744, 0.6568744, -0.3701784), (-0.9289607, -1.8642297e-8, -0.37017843), (0.9871868, 1.7061306e-7, 0.15956905), (0.6980464, 0.69804657, 0.1595691), (0.6980463, 0.6980466, 0.1595691), (0.98718673, 1.5784532e-7, 0.15956905), (0, 0, 1), (0, 0, 1), (0, 0, 1), (0, 0, 1), (-5.5391473e-7, 0, 1), (0.0000011078293, 0, 1), (0.0000011078293, 0, 1), (-5.5391473e-7, 0, 1), (0, 0, 1), (0, 0, 1), (0, 0, 1), (0, 0, 1), (0.0000011078292, 0, 1), (0, 0, 1), (0, 0, 1), (0.0000011078295, 0, 1), (-5.539148e-7, 0, 1), (-5.5391473e-7, 0, 1), (-5.5391473e-7, 0, 1), (-5.5391473e-7, 0, 1), (0, 0, 1), (-5.539148e-7, 0, 1), (-5.5391473e-7, 0, 1), (0, 0, 1), (0, 0, 1), (0, 0, 1), (0, 0, 1), (0, 0, 1), (5.338229e-8, 0, 1), (5.338229e-8, 0, 1), (5.338229e-8, 0, 1), (5.338229e-8, 0, 1), (5.338229e-8, 0, 1), (5.338229e-8, 0, 1), (5.338229e-8, 0, 1), (5.338229e-8, 0, 1), (-8.5306525e-8, 0.9871868, 0.15956897), (-0.6980465, 0.6980465, 0.15956894), (-0.6980464, 0.69804645, 0.15956892), (-7.892266e-8, 0.98718673, 0.15956898), (-0.9871868, 0, 0.15956901), (-0.6980465, -0.6980465, 0.15956892), (-0.69804645, -0.69804645, 0.15956892), (-0.98718673, 0, 0.15956901), (0.6980465, -0.6980464, 0.15956913), (0.9871868, 1.7061306e-7, 0.15956905), (0.98718673, 1.5784532e-7, 0.15956905), (0.6980465, -0.6980464, 0.15956913), (0.6980464, 0.69804657, 0.1595691), (-8.5306525e-8, 0.9871868, 0.15956897), (-7.892266e-8, 0.98718673, 0.15956898), (0.6980463, 0.6980466, 0.1595691), (-0.6980465, 0.6980465, 0.15956894), (-0.9871868, 0, 0.15956901), (-0.98718673, 0, 0.15956901), (-0.6980464, 0.69804645, 0.15956892), (-0.6980465, -0.6980465, 0.15956892), (-4.2653262e-8, -0.9871868, 0.15956907), (-3.946133e-8, -0.98718673, 0.15956907), (-0.69804645, -0.69804645, 0.15956892), (-4.2653262e-8, -0.9871868, 0.15956907), (0.6980465, -0.6980464, 0.15956913), (0.6980465, -0.6980464, 0.15956913), (-3.946133e-8, -0.98718673, 0.15956907), (-0.26397175, -0.96432257, 0.02002142), (-0.8667463, -0.4964789, -0.04753338), (-0.86880916, -0.49249372, -0.051193587), (-0.27014214, -0.9628087, 0.0047601764), (0.48816675, -0.8695073, 0.07516862), (0.48812935, -0.8672228, 0.09825655), (-0.26397175, -0.96432257, 0.02002142), (-0.27014214, -0.9628087, 0.0047601764), (-0.86550283, -0.48207986, 0.13602868), (-0.95824945, 0.2576712, 0.12394987), (-0.9631017, 0.26344675, -0.055054337), (-0.8667463, -0.4964789, -0.04753338), (-0.86550283, -0.48207986, 0.13602868), (-0.8667463, -0.4964789, -0.04753338), (-0.26397175, -0.96432257, 0.02002142), (-0.2814913, -0.9353273, 0.21430247), (-0.86550283, -0.48207986, 0.13602868), (-0.2814913, -0.9353273, 0.21430247), (-0.27647376, -0.75616574, 0.5931067), (-0.67788136, -0.34158313, 0.6509975), (-0.86550283, -0.48207986, 0.13602868), (-0.67788136, -0.34158313, 0.6509975), (-0.82695705, 0.2108653, 0.5212273), (-0.95824945, 0.2576712, 0.12394987), (0.25483835, 0.9647007, 0.066408195), (0.26127172, 0.9622111, 0.07672653), (0.8593236, 0.49237338, 0.1383159), (0.859706, 0.4967785, 0.11881428), (-0.86880916, -0.49249372, -0.051193587), (-0.8667463, -0.4964789, -0.04753338), (-0.9631017, 0.26344675, -0.055054337), (-0.962826, 0.26479518, -0.05338235), (-0.9631017, 0.26344675, -0.055054337), (-0.49504083, 0.8688379, -0.007424581), (-0.49785247, 0.867228, -0.0076456484), (-0.962826, 0.26479518, -0.05338235), (0.859706, 0.4967785, 0.11881428), (0.8593236, 0.49237338, 0.1383159), (0.9524087, -0.2648363, 0.15092869), (0.9564194, -0.26370582, 0.1253836), (-0.49785247, 0.867228, -0.0076456484), (-0.49504083, 0.8688379, -0.007424581), (0.26127172, 0.9622111, 0.07672653), (0.25483835, 0.9647007, 0.066408195), (-0.11345797, 0.0030231373, 0.9935382), (-0.67788136, -0.34158313, 0.6509975), (-0.27647376, -0.75616574, 0.5931067), (0.25630265, -0.5939773, 0.76256144), (-0.11345797, 0.0030231373, 0.9935382), (0.25630265, -0.5939773, 0.76256144), (0.6791951, -0.20517667, 0.704696), (0.51237315, 0.34083632, 0.7882287), (-0.11345797, 0.0030231373, 0.9935382), (0.51237315, 0.34083632, 0.7882287), (0.1375633, 0.7610531, 0.6339357), (-0.42083287, 0.6041118, 0.676719), (-0.11345797, 0.0030231373, 0.9935382), (-0.42083287, 0.6041118, 0.676719), (-0.82695705, 0.2108653, 0.5212273), (-0.67788136, -0.34158313, 0.6509975), (0.8112671, 0.4796507, 0.3343365), (0.89980954, -0.25562483, 0.35355163), (0.9524087, -0.2648363, 0.15092869), (0.8593236, 0.49237338, 0.1383159), (0.8112671, 0.4796507, 0.3343365), (0.8593236, 0.49237338, 0.1383159), (0.26127172, 0.9622111, 0.07672653), (0.22950521, 0.9367896, 0.2641075), (0.8112671, 0.4796507, 0.3343365), (0.22950521, 0.9367896, 0.2641075), (0.1375633, 0.7610531, 0.6339357), (0.51237315, 0.34083632, 0.7882287), (0.8112671, 0.4796507, 0.3343365), (0.51237315, 0.34083632, 0.7882287), (0.6791951, -0.20517667, 0.704696), (0.89980954, -0.25562483, 0.35355163), (-0.5034562, 0.84689903, 0.17115493), (0.22950521, 0.9367896, 0.2641075), (0.26127172, 0.9622111, 0.07672653), (-0.49504083, 0.8688379, -0.007424581), (-0.5034562, 0.84689903, 0.17115493), (-0.49504083, 0.8688379, -0.007424581), (-0.9631017, 0.26344675, -0.055054337), (-0.95824945, 0.2576712, 0.12394987), (-0.5034562, 0.84689903, 0.17115493), (-0.95824945, 0.2576712, 0.12394987), (-0.82695705, 0.2108653, 0.5212273), (-0.42083287, 0.6041118, 0.676719), (-0.5034562, 0.84689903, 0.17115493), (-0.42083287, 0.6041118, 0.676719), (0.1375633, 0.7610531, 0.6339357), (0.22950521, 0.9367896, 0.2641075), (0.44993362, -0.841451, 0.29919887), (-0.2814913, -0.9353273, 0.21430247), (-0.26397175, -0.96432257, 0.02002142), (0.48812935, -0.8672228, 0.09825655), (0.44993362, -0.841451, 0.29919887), (0.48812935, -0.8672228, 0.09825655), (0.9524087, -0.2648363, 0.15092869), (0.89980954, -0.25562483, 0.35355163), (0.44993362, -0.841451, 0.29919887), (0.89980954, -0.25562483, 0.35355163), (0.6791951, -0.20517667, 0.704696), (0.25630265, -0.5939773, 0.76256144), (0.44993362, -0.841451, 0.29919887), (0.25630265, -0.5939773, 0.76256144), (-0.27647376, -0.75616574, 0.5931067), (-0.2814913, -0.9353273, 0.21430247), (0.93274474, 0.34623453, 0.10054222), (0.93274474, 0.34623453, 0.10054222), (0.93274474, 0.34623453, 0.10054222), (0.93274474, 0.34623453, 0.10054222), (-0.3830765, 0.8894689, -0.24919362), (-0.3830765, 0.8894689, -0.24919362), (-0.3830765, 0.8894689, -0.24919362), (0.24428347, -0.94098973, 0.23423028), (0.24428347, -0.94098973, 0.23423028), (0.24428347, -0.94098973, 0.23423028), (0.10631768, -0.2196775, -0.969762), (0.10631768, -0.2196775, -0.969762), (0.10631768, -0.2196775, -0.969762), (-0.2451085, 0.16816145, 0.95480025), (-0.2451085, 0.16816145, 0.95480025), (-0.2451085, 0.16816145, 0.95480025), (0.8795402, -0.40136024, 0.25557584), (0.8795402, -0.40136024, 0.25557584), (0.8795402, -0.40136024, 0.25557584), (0.8795402, -0.40136024, 0.25557584), (0.369324, 0.92232394, -0.11365837), (0.369324, 0.92232394, -0.11365837), (0.369324, 0.92232394, -0.11365837), (-0.50020176, -0.86259985, 0.07562813), (-0.50020176, -0.86259985, 0.07562813), (-0.50020176, -0.86259985, 0.07562813), (0.12467032, -0.1645035, -0.97846615), (0.12467032, -0.1645035, -0.97846615), (0.12467032, -0.1645035, -0.97846615), (-0.2555355, 0.22423443, 0.94043636), (-0.2555355, 0.22423443, 0.94043636), (-0.2555355, 0.22423443, 0.94043636), (0.9349522, -0.2659466, -0.23481217), (0.9349522, -0.2659466, -0.23481217), (0.9349522, -0.2659466, -0.23481217), (0.9349522, -0.2659466, -0.23481217), (0.19939137, 0.97991943, 0.0009412922), (0.19939137, 0.97991943, 0.0009412922), (0.19939137, 0.97991943, 0.0009412922), (-0.33851823, -0.94034547, 0.03399704), (-0.33851823, -0.94034547, 0.03399704), (-0.33851823, -0.94034547, 0.03399704), (-0.2994117, 0.06747469, -0.9517351), (-0.2994117, 0.06747469, -0.9517351), (-0.2994117, 0.06747469, -0.9517351), (0.16029264, -0.027919041, 0.9866746), (0.16029264, -0.027919041, 0.9866746), (0.16029264, -0.027919041, 0.9866746), (0.50863194, -0.8592367, 0.05482481), (0.50863194, -0.8592367, 0.05482481), (0.50863194, -0.8592367, 0.05482481), (0.50863194, -0.8592367, 0.05482481), (0.8118639, 0.57399476, 0.106803), (0.8118639, 0.57399476, 0.106803), (0.8118639, 0.57399476, 0.106803), (-0.8875493, -0.44613987, -0.11495847), (-0.8875493, -0.44613987, -0.11495847), (-0.8875493, -0.44613987, -0.11495847), (0.085387856, 0.07372979, -0.993616), (0.085387856, 0.07372979, -0.993616), (0.085387856, 0.07372979, -0.993616), (-0.16107507, 0.05411843, 0.9854573), (-0.16107507, 0.05411843, 0.9854573), (-0.16107507, 0.05411843, 0.9854573), (0.289639, -0.9226636, -0.25456065), (0.289639, -0.9226636, -0.25456065), (0.289639, -0.9226636, -0.25456065), (0.289639, -0.9226636, -0.25456065), (0.92585385, 0.37725958, -0.021679897), (0.92585385, 0.37725958, -0.021679897), (0.92585385, 0.37725958, -0.021679897), (-0.96895075, -0.2399726, 0.0595612), (-0.96895075, -0.2399726, 0.0595612), (-0.96895075, -0.2399726, 0.0595612), (-0.1376069, 0.29804903, -0.9445798), (-0.1376069, 0.29804903, -0.9445798), (-0.1376069, 0.29804903, -0.9445798), (0.09448217, -0.16076301, 0.9824603), (0.09448217, -0.16076301, 0.9824603), (0.09448217, -0.16076301, 0.9824603), (-0.22689243, -0.97383875, -0.012563299), (-0.22689243, -0.97383875, -0.012563299), (-0.22689243, -0.97383875, -0.012563299), (-0.22689243, -0.97383875, -0.012563299), (0.98779345, -0.15404339, 0.023124289), (0.98779345, -0.15404339, 0.023124289), (0.98779345, -0.15404339, 0.023124289), (-0.9540323, 0.29894942, -0.021252705), (-0.9540323, 0.29894942, -0.021252705), (-0.9540323, 0.29894942, -0.021252705), (0.046076886, 0.08537455, -0.99528295), (0.046076886, 0.08537455, -0.99528295), (0.046076886, 0.08537455, -0.99528295), (-0.00929231, 0.07257019, 0.99732006), (-0.00929231, 0.07257019, 0.99732006), (-0.00929231, 0.07257019, 0.99732006), (-0.38442352, -0.8959202, -0.22258826), (-0.38442352, -0.8959202, -0.22258826), (-0.38442352, -0.8959202, -0.22258826), (-0.38442352, -0.8959202, -0.22258826), (0.90342945, -0.36176828, 0.23008469), (0.90342945, -0.36176828, 0.23008469), (0.90342945, -0.36176828, 0.23008469), (-0.8462279, 0.49508068, -0.19696067), (-0.8462279, 0.49508068, -0.19696067), (-0.8462279, 0.49508068, -0.19696067), (0.31525552, 0.1793017, -0.9319147), (0.31525552, 0.1793017, -0.9319147), (0.31525552, 0.1793017, -0.9319147), (-0.25805205, -0.04598765, 0.9650359), (-0.25805205, -0.04598765, 0.9650359), (-0.25805205, -0.04598765, 0.9650359), (-0.79174906, -0.60224617, 0.102141395), (-0.79174906, -0.60224617, 0.102141395), (-0.79174906, -0.60224617, 0.102141395), (-0.79174906, -0.60224617, 0.102141395), (0.6679879, -0.7360647, 0.10954969), (0.6679879, -0.7360647, 0.10954969), (0.6679879, -0.7360647, 0.10954969), (-0.5501758, 0.825679, -0.1247436), (-0.5501758, 0.825679, -0.1247436), (-0.5501758, 0.825679, -0.1247436), (0.049702585, -0.110172816, -0.9926689), (0.049702585, -0.110172816, -0.9926689), (0.049702585, -0.110172816, -0.9926689), (0.068114065, 0.19977438, 0.97747153), (0.068114065, 0.19977438, 0.97747153), (0.068114065, 0.19977438, 0.97747153), (-0.787013, -0.45149052, -0.42043635), (-0.787013, -0.45149052, -0.42043635), (-0.787013, -0.45149052, -0.42043635), (-0.787013, -0.45149052, -0.42043635), (0.55168945, -0.833141, 0.03891862), (0.55168945, -0.833141, 0.03891862), (0.55168945, -0.833141, 0.03891862), (-0.4345886, 0.9003187, 0.023643872), (-0.4345886, 0.9003187, 0.023643872), (-0.4345886, 0.9003187, 0.023643872), (0.4264053, 0.23490849, -0.8734968), (0.4264053, 0.23490849, -0.8734968), (0.4264053, 0.23490849, -0.8734968), (-0.30929404, -0.16773261, 0.9360571), (-0.30929404, -0.16773261, 0.9360571), (-0.30929404, -0.16773261, 0.9360571), (-0.8634468, 0.26589534, -0.4286717), (-0.8634468, 0.26589534, -0.4286717), (-0.8634468, 0.26589534, -0.4286717), (-0.8634468, 0.26589534, -0.4286717), (-0.19496511, -0.97992903, -0.04156554), (-0.19496511, -0.97992903, -0.04156554), (-0.19496511, -0.97992903, -0.04156554), (0.32344824, 0.9403628, 0.10535159), (0.32344824, 0.9403628, 0.10535159), (0.32344824, 0.9403628, 0.10535159), (0.4953554, -0.06747327, -0.86606604), (0.4953554, -0.06747327, -0.86606604), (0.4953554, -0.06747327, -0.86606604), (-0.36687985, 0.02790749, 0.9298496), (-0.36687985, 0.02790749, 0.9298496), (-0.36687985, 0.02790749, 0.9298496), (-0.5282443, 0.8490739, 0.0056192563), (-0.5282443, 0.8490739, 0.0056192563), (-0.5282443, 0.8490739, 0.0056192563), (-0.5282443, 0.8490739, 0.0056192563), (-0.8074056, -0.589975, 0.0050526047), (-0.8074056, -0.589975, 0.0050526047), (-0.8074056, -0.589975, 0.0050526047), (0.88601005, 0.46362868, -0.005891805), (0.88601005, 0.46362868, -0.005891805), (0.88601005, 0.46362868, -0.005891805), (0.03239534, -0.06873955, -0.9971086), (0.03239534, -0.06873955, -0.9971086), (0.03239534, -0.06873955, -0.9971086), (0.05328572, -0.06895721, 0.99619555), (0.05328572, -0.06895721, 0.99619555), (0.05328572, -0.06895721, 0.99619555), (0.24435253, 0.9693287, 0.026338076), (0.24435253, 0.9693287, 0.026338076), (0.24435253, 0.9693287, 0.026338076), (0.24435253, 0.9693287, 0.026338076), (-0.9811317, 0.17292678, -0.086469114), (-0.9811317, 0.17292678, -0.086469114), (-0.9811317, 0.17292678, -0.086469114), (0.9447725, -0.3171601, 0.082550205), (0.9447725, -0.3171601, 0.082550205), (0.9447725, -0.3171601, 0.082550205), (0.070198804, -0.06740504, -0.995253), (0.070198804, -0.06740504, -0.995253), (0.070198804, -0.06740504, -0.995253), (-0.106555894, -0.0768342, 0.9913336), (-0.106555894, -0.0768342, 0.9913336), (-0.106555894, -0.0768342, 0.9913336), (0.9564194, -0.26370582, 0.1253836), (0.9524087, -0.2648363, 0.15092869), (0.48812935, -0.8672228, 0.09825655), (0.48816675, -0.8695073, 0.07516862), (-0.101176195, -0.96432257, 0.24463324), (-0.43331024, -0.4964788, 0.75216424), (-0.4375075, -0.4924936, 0.7523544), (-0.11758031, -0.9628086, 0.24325795), (0.28724328, -0.8695075, -0.40180612), (0.3078336, -0.86722267, -0.39136085), (-0.101176195, -0.96432257, 0.24463324), (-0.11758031, -0.9628086, 0.24325795), (-0.26891342, -0.48207968, 0.8338373), (-0.32152125, 0.25767145, 0.9111693), (-0.4834769, 0.2634469, 0.8347729), (-0.43331024, -0.4964788, 0.75216424), (-0.26891342, -0.48207968, 0.8338373), (-0.43331024, -0.4964788, 0.75216424), (-0.101176195, -0.96432257, 0.24463324), (0.06432603, -0.9353273, 0.34788656), (-0.26891342, -0.48207968, 0.8338373), (0.06432603, -0.9353273, 0.34788656), (0.40468445, -0.7561656, 0.5142413), (0.2753271, -0.3415832, 0.89861894), (-0.26891342, -0.48207968, 0.8338373), (0.2753271, -0.3415832, 0.89861894), (0.09227262, 0.21086526, 0.9731504), (-0.32152125, 0.25767145, 0.9111693), (0.17419852, 0.9647007, -0.19750305), (0.18630897, 0.9622112, -0.19859158), (0.51098883, 0.49237332, -0.7045983), (0.49375585, 0.49677825, -0.71373427), (-0.4375075, -0.4924936, 0.7523544), (-0.43331024, -0.4964788, 0.75216424), (-0.4834769, 0.2634469, 0.8347729), (-0.48186025, 0.264795, 0.835281), (-0.4834769, 0.2634469, 0.8347729), (-0.22987977, 0.8688379, 0.4384929), (-0.23134495, 0.86722785, 0.44090277), (-0.48186025, 0.264795, 0.835281), (0.49375585, 0.49677825, -0.71373427), (0.51098883, 0.49237332, -0.7045983), (0.56422544, -0.26483652, -0.78199184), (0.5432345, -0.2637059, -0.7970919), (-0.23134495, 0.86722785, 0.44090277), (-0.22987977, 0.8688379, 0.4384929), (0.18630897, 0.9622112, -0.19859158), (0.17419852, 0.9647007, -0.19750305), (0.8355995, 0.0030229539, 0.5493308), (0.2753271, -0.3415832, 0.89861894), (0.40468445, -0.7561656, 0.5142413), (0.7961997, -0.593977, 0.11514041), (0.8355995, 0.0030229539, 0.5493308), (0.7961997, -0.593977, 0.11514041), (0.93526864, -0.2051765, -0.28840122), (0.93459094, 0.34083608, -0.10183593), (0.8355995, 0.0030229539, 0.5493308), (0.93459094, 0.34083608, -0.10183593), (0.6278478, 0.761053, 0.16311151), (0.41420794, 0.6041115, 0.6807944), (0.8355995, 0.0030229539, 0.5493308), (0.41420794, 0.6041115, 0.6807944), (0.09227262, 0.21086526, 0.9731504), (0.2753271, -0.3415832, 0.89861894), (0.6642713, 0.47965032, -0.5733055), (0.72135276, -0.25562483, -0.6436661), (0.56422544, -0.26483652, -0.78199184), (0.51098883, 0.49237332, -0.7045983), (0.6642713, 0.47965032, -0.5733055), (0.51098883, 0.49237332, -0.7045983), (0.18630897, 0.9622112, -0.19859158), (0.33922663, 0.9367897, -0.08573403), (0.6642713, 0.47965032, -0.5733055), (0.33922663, 0.9367897, -0.08573403), (0.6278478, 0.761053, 0.16311151), (0.93459094, 0.34083608, -0.10183593), (0.6642713, 0.47965032, -0.5733055), (0.93459094, 0.34083608, -0.10183593), (0.93526864, -0.2051765, -0.28840122), (0.72135276, -0.25562483, -0.6436661), (-0.07428633, 0.8468989, 0.5265394), (0.33922663, 0.9367897, -0.08573403), (0.18630897, 0.9622112, -0.19859158), (-0.22987977, 0.8688379, 0.4384929), (-0.07428633, 0.8468989, 0.5265394), (-0.22987977, 0.8688379, 0.4384929), (-0.4834769, 0.2634469, 0.8347729), (-0.32152125, 0.25767145, 0.9111693), (-0.07428633, 0.8468989, 0.5265394), (-0.32152125, 0.25767145, 0.9111693), (0.09227262, 0.21086526, 0.9731504), (0.41420794, 0.6041115, 0.6807944), (-0.07428633, 0.8468989, 0.5265394), (0.41420794, 0.6041115, 0.6807944), (0.6278478, 0.761053, 0.16311151), (0.33922663, 0.9367897, -0.08573403), (0.46995646, -0.8414507, -0.26664898), (0.06432603, -0.9353273, 0.34788656), (-0.101176195, -0.96432257, 0.24463324), (0.3078336, -0.86722267, -0.39136085), (0.46995646, -0.8414507, -0.26664898), (0.3078336, -0.86722267, -0.39136085), (0.56422544, -0.26483652, -0.78199184), (0.72135276, -0.25562483, -0.6436661), (0.46995646, -0.8414507, -0.26664898), (0.72135276, -0.25562483, -0.6436661), (0.93526864, -0.2051765, -0.28840122), (0.7961997, -0.593977, 0.11514041), (0.46995646, -0.8414507, -0.26664898), (0.7961997, -0.593977, 0.11514041), (0.40468445, -0.7561656, 0.5142413), (0.06432603, -0.9353273, 0.34788656), (0.5103906, 0.34623688, -0.7871604), (0.5103906, 0.34623688, -0.7871604), (0.5103906, 0.34623688, -0.7871604), (0.5103906, 0.34623688, -0.7871604), (-0.39517713, 0.88946813, 0.22952434), (-0.39517713, 0.88946813, 0.22952434), (-0.39517713, 0.88946813, 0.22952434), (0.31922647, -0.9409895, -0.11239759), (0.31922647, -0.9409895, -0.11239759), (0.31922647, -0.9409895, -0.11239759), (-0.8175996, -0.21968141, -0.53223205), (-0.8175996, -0.21968141, -0.53223205), (-0.8175996, -0.21968141, -0.53223205), (0.7416506, 0.16817145, 0.64936334), (0.7416506, 0.16817145, 0.64936334), (0.7416506, 0.16817145, 0.64936334), (0.6247592, -0.4013629, -0.6697639), (0.6247592, -0.4013629, -0.6697639), (0.6247592, -0.4013629, -0.6697639), (0.6247592, -0.4013629, -0.6697639), (0.06511314, 0.92232454, -0.38089067), (0.06511314, 0.92232454, -0.38089067), (0.06511314, 0.92232454, -0.38089067), (-0.15807977, -0.86260074, 0.48055255), (-0.15807977, -0.86260074, 0.48055255), (-0.15807977, -0.86260074, 0.48055255), (-0.8170913, -0.1645147, -0.55253655), (-0.8170913, -0.1645147, -0.55253655), (-0.8170913, -0.1645147, -0.55253655), (0.7241301, 0.22423282, 0.6521926), (0.7241301, 0.22423282, 0.6521926), (0.7241301, 0.22423282, 0.6521926), (0.21207257, -0.26594967, -0.9403701), (0.21207257, -0.26594967, -0.9403701), (0.21207257, -0.26594967, -0.9403701), (0.21207257, -0.26594967, -0.9403701), (0.09076093, 0.979919, -0.17754224), (0.09076093, 0.979919, -0.17754224), (0.09076093, 0.979919, -0.17754224), (-0.12232113, -0.9403466, 0.31746805), (-0.12232113, -0.9403466, 0.31746805), (-0.12232113, -0.9403466, 0.31746805), (-0.9844863, 0.0674696, -0.16197096), (-0.9844863, 0.0674696, -0.16197096), (-0.9844863, 0.0674696, -0.16197096), (0.9529291, -0.027919194, 0.30190504), (0.9529291, -0.027919194, 0.30190504), (0.9529291, -0.027919194, 0.30190504), (-0.096578, -0.9226621, -0.37331936), (-0.096578, -0.9226621, -0.37331936), (-0.096578, -0.9226621, -0.37331936), (-0.096578, -0.9226621, -0.37331936), (0.3981886, 0.37726155, -0.83613366), (0.3981886, 0.37726155, -0.83613366), (0.3981886, 0.37726155, -0.83613366), (-0.38383812, -0.23996688, 0.8916749), (-0.38383812, -0.23996688, 0.8916749), (-0.38383812, -0.23996688, 0.8916749), (-0.9051228, 0.29805395, -0.30317715), (-0.9051228, 0.29805395, -0.30317715), (-0.9051228, 0.29805395, -0.30317715), (0.9194865, -0.16076757, 0.35874552), (0.9194865, -0.16076757, 0.35874552), (0.9194865, -0.16076757, 0.35874552), (-0.37203184, -0.89592206, 0.24272619), (-0.37203184, -0.89592206, 0.24272619), (-0.37203184, -0.89592206, 0.24272619), (-0.37203184, -0.89592206, 0.24272619), (0.6127857, -0.36176825, -0.7025791), (0.6127857, -0.36176825, -0.7025791), (0.6127857, -0.36176825, -0.7025791), (-0.5574078, 0.49508485, 0.666474), (-0.5574078, 0.49508485, 0.666474), (-0.5574078, 0.49508485, 0.666474), (-0.68958837, 0.1793031, -0.70165396), (-0.68958837, 0.1793031, -0.70165396), (-0.68958837, 0.1793031, -0.70165396), (0.74493974, -0.045988165, 0.6655448), (0.74493974, -0.045988165, 0.6655448), (0.74493974, -0.045988165, 0.6655448), (-0.7301774, -0.45149446, 0.5128293), (-0.7301774, -0.45149446, 0.5128293), (-0.7301774, -0.45149446, 0.5128293), (-0.7301774, -0.45149446, 0.5128293), (0.28354496, -0.83313674, -0.47485307), (0.28354496, -0.83313674, -0.47485307), (0.28354496, -0.83313674, -0.47485307), (-0.17489113, 0.9003207, 0.39854214), (-0.17489113, 0.9003207, 0.39854214), (-0.17489113, 0.9003207, 0.39854214), (-0.58733165, 0.23490758, -0.7745062), (-0.58733165, 0.23490758, -0.7745062), (-0.58733165, 0.23490758, -0.7745062), (0.6959805, -0.1677464, 0.6981923), (0.6959805, -0.1677464, 0.6981923), (0.6959805, -0.1677464, 0.6981923), (-0.47266445, -0.06581584, 0.87878126), (-0.47266445, -0.06581584, 0.87878126), (-0.47266445, -0.06581584, 0.87878126), (-0.47266445, -0.06581584, 0.87878126), (0.12134266, -0.9882067, -0.09339949), (0.12134266, -0.9882067, -0.09339949), (0.12134266, -0.9882067, -0.09339949), (-0.051013086, 0.9979988, -0.03736303), (-0.051013086, 0.9979988, -0.03736303), (-0.051013086, 0.9979988, -0.03736303), (-0.83940434, -0.05756598, -0.5404503), (-0.83940434, -0.05756598, -0.5404503), (-0.83940434, -0.05756598, -0.5404503), (0.90973324, 0.06738393, 0.40968862), (0.90973324, 0.06738393, 0.40968862), (0.90973324, 0.06738393, 0.40968862), (-0.77200234, 0.26589167, 0.57733345), (-0.77200234, 0.26589167, 0.57733345), (-0.77200234, 0.26589167, 0.57733345), (-0.77200234, 0.26589167, 0.57733345), (-0.12502752, -0.9799285, 0.15526803), (-0.12502752, -0.9799285, 0.15526803), (-0.12502752, -0.9799285, 0.15526803), (0.2399004, 0.94036275, -0.24117559), (0.2399004, 0.94036275, -0.24117559), (0.2399004, 0.94036275, -0.24117559), (-0.54959136, -0.06745597, -0.8327058), (-0.54959136, -0.06745597, -0.8327058), (-0.54959136, -0.06745597, -0.8327058), (0.6644658, 0.027907262, 0.7467975), (0.6644658, 0.027907262, 0.7467975), (0.6644658, 0.027907262, 0.7467975), (0.5432345, -0.2637059, -0.7970919), (0.56422544, -0.26483652, -0.78199184), (0.3078336, -0.86722267, -0.39136085), (0.28724328, -0.8695075, -0.40180612)] (
                interpolation = "faceVarying"
            )
            point3f[] points = [(0, 0.11878671, 0.13595363), (0, 0.12527533, 0.23802711), (0.08399489, 0.08399489, 0.13595363), (0.08858304, 0.08858304, 0.23802711), (0.11878671, -4.8881192e-9, 0.13595363), (0.12527533, -5.3769313e-9, 0.23802711), (0.08399489, -0.08399489, 0.13595363), (0.08858304, -0.08858304, 0.23802711), (-9.7762385e-9, -0.11878671, 0.13595363), (-9.7762385e-9, -0.12527533, 0.23802711), (-0.083994895, -0.08399487, 0.13595363), (-0.08858305, -0.08858302, 0.23802711), (-0.118786715, 1.4664359e-9, 0.13595363), (-0.12527533, 1.4664359e-9, 0.23802711), (-0.083994895, 0.08399488, 0.13595363), (-0.08858305, 0.08858303, 0.23802711), (-1.9552477e-9, 0.09867786, 0.048564162), (0.06977578, 0.06977578, 0.048564162), (0.09867786, -3.9104955e-9, 0.048564162), (0.06977578, -0.06977578, 0.048564162), (-9.7762385e-9, -0.09867786, 0.048564162), (-0.06977578, -0.06977577, 0.048564162), (-0.09867786, 1.4664359e-9, 0.048564162), (-0.06977578, 0.069775775, 0.048564162), (-1.9552477e-9, 0.079744674, 0.001051454), (0.056388, 0.056388006, 0.001051454), (0.079744674, -3.4216836e-9, 0.001051454), (0.056388, -0.056388, 0.001051454), (-9.7762385e-9, -0.079744674, 0.001051454), (-0.056388006, -0.056387983, 0.001051454), (-0.079744674, 9.776239e-10, 0.001051454), (-0.056388006, 0.056388, 0.001051454), (0.08159695, 0.08159695, 0.23802711), (0, 0.115395516, 0.23802711), (0.115395516, -4.8881192e-9, 0.23802711), (0.08159695, -0.08159695, 0.23802711), (-9.7762385e-9, -0.115395516, 0.23802711), (-0.08159696, -0.08159693, 0.23802711), (-0.115395516, 1.4664359e-9, 0.23802711), (-0.08159696, 0.08159694, 0.23802711), (0.078537844, 0.078537844, 0.21126254), (0, 0.111069284, 0.21126254), (0.111069284, -4.8881192e-9, 0.21126254), (0.078537844, -0.078537844, 0.21126254), (-9.7762385e-9, -0.111069284, 0.21126254), (-0.07853786, -0.07853783, 0.21126254), (-0.111069284, 1.4664359e-9, 0.21126254), (-0.07853786, 0.07853784, 0.21126254), (-0.08106247, -0.029893558, 0.32396472), (-0.038128715, -0.0006313583, 0.3824655), (0.01890344, 0.027376855, 0.3347512), (-0.059549283, 0.049010403, 0.32628125), (-0.0026105256, -0.051535778, 0.33243448), (0.03179766, 0.029075136, 0.25969705), (0.0086566815, -0.05580047, 0.25720164), (-0.075735636, -0.0325296, 0.24811055), (-0.052593842, 0.052355237, 0.25060603), (0.0008200661, 0.02003283, 0.36981738), (-0.014917506, -0.037691068, 0.36812234), (-0.072305925, -0.021861143, 0.36192864), (-0.056568626, 0.03585923, 0.36362332), (-0.04724351, -0.06048677, 0.32768446), (-0.08997745, 0.014983718, 0.32306644), (-0.014946909, 0.057971876, 0.33116224), (0.027796697, -0.017499492, 0.3357814), (-0.048371177, 0.054300945, 0.19631805), (0.038537674, 0.030330956, 0.20568615), (-0.072202995, -0.033111464, 0.19374919), (0.0147058675, -0.05708121, 0.2031173), (-0.0046101008, 0.061936844, 0.25577718), (0.041323874, -0.019181665, 0.26072344), (-0.039323114, -0.06538691, 0.25203395), (-0.08526741, 0.015732516, 0.24708652), (-0.02260823, 0.043400798, 0.3585445), (0.009410951, -0.013134144, 0.36201665), (-0.04680185, -0.0453355, 0.35594314), (-0.078809604, 0.011198414, 0.3524713), (0.048349325, -0.019367691, 0.20674352), (-0.0347066, -0.06694982, 0.1977907), (-0.08201484, 0.016587364, 0.19269118), (0.001041361, 0.06416948, 0.20164397), (-0.07649553, -0.025605377, 0.3063163), (-0.0744941, -0.03144498, 0.30785856), (-0.073373, -0.03268227, 0.30171868), (-0.07537441, -0.026842674, 0.30017644), (-0.114708886, -0.04390821, 0.29973003), (-0.08088065, 0.014587389, 0.3066376), (-0.083373435, 0.009470266, 0.30718035), (-0.08228342, 0.00835588, 0.30167907), (-0.07979063, 0.0134729985, 0.30113637), (-0.11528599, 0.026851825, 0.29436457), (-0.079766355, 0.016137576, 0.33841217), (-0.08148243, 0.01001148, 0.3385176), (-0.08294899, 0.010315848, 0.33233356), (-0.08123292, 0.016441936, 0.332228), (-0.12122647, 0.024567226, 0.34538606), (-0.0478189, 0.047610775, 0.25026822), (-0.051236212, 0.045559425, 0.24982229), (-0.05074059, 0.045598887, 0.24584262), (-0.04732326, 0.04765024, 0.24628851), (-0.06295101, 0.06969985, 0.24658169), (-0.056976397, 0.043333977, 0.341158), (-0.062408514, 0.04156447, 0.34139088), (-0.06307387, 0.042879835, 0.3358663), (-0.057641745, 0.044649348, 0.33563328), (-0.07112425, 0.07846333, 0.348267), (-0.0116179865, 0.057206936, 0.31300065), (-0.016643852, 0.058379617, 0.31286854), (-0.016505808, 0.05842005, 0.30724066), (-0.01147993, 0.057247378, 0.3073727), (-0.0062119607, 0.09150604, 0.3105552), (-0.019623788, 0.045756284, 0.3471785), (-0.025205605, 0.048489824, 0.3458161), (-0.02337657, 0.049208555, 0.33976433), (-0.017794723, 0.04647501, 0.3411267), (-0.00510734, 0.08568678, 0.3529632), (0.02580805, 0.027782846, 0.25981733), (0.023358474, 0.030923307, 0.2593462), (0.02332144, 0.030300092, 0.25538445), (0.025771014, 0.027159614, 0.25585565), (0.04584587, 0.04522889, 0.2548554), (0.011095831, 0.020957021, 0.34827814), (0.008268314, 0.025926588, 0.34823436), (0.010377454, 0.027080905, 0.34304667), (0.013204973, 0.022111334, 0.34309047), (0.040895145, 0.041320056, 0.3617734), (0.013084749, -0.017385129, 0.34849253), (0.014570956, -0.011879935, 0.3489137), (0.017042862, -0.01215336, 0.3437651), (0.015556647, -0.017658547, 0.34334394), (0.048151117, -0.024958445, 0.36255553), (0.010068455, -0.04571115, 0.25953472), (0.013815753, -0.04337957, 0.2594957), (0.013779029, -0.043370556, 0.25468284), (0.01003175, -0.04570215, 0.25472176), (0.02754828, -0.06965517, 0.25694248), (-0.038282212, -0.05498858, 0.2512962), (-0.034409452, -0.055974074, 0.25163606), (-0.03405404, -0.055955123, 0.24764128), (-0.0379268, -0.05496963, 0.24730136), (-0.042735998, -0.081526004, 0.24876069), (0.058490407, -0.013562021, 0.36119092), (0.097421534, 0.0023540377, 0.35469812), (0.08824772, 0.017588036, 0.31530726), (0.06489203, 0.029354773, 0.35131535), (0.081845835, -0.025333477, 0.32518318), (0.054974817, 0.01851175, 0.29063743), (0.048087087, -0.027653094, 0.30125934), (0.022972886, -0.0149958, 0.33999845), (0.02986086, 0.031174064, 0.32937616), (0.10083524, 0.013593533, 0.33268756), (0.096152045, -0.017803174, 0.33991173), (0.07906828, -0.0091930935, 0.3662522), (0.08375124, 0.022201695, 0.3590281), (0.06859176, -0.030202026, 0.34568557), (0.055867527, 0.010847255, 0.36529842), (0.078202166, 0.03422903, 0.33085996), (0.09092931, -0.0068207355, 0.31124273), (0.0045420052, 0.032232355, 0.3140098), (0.030407965, 0.019194804, 0.2741169), (-0.0025508476, -0.015312284, 0.32494903), (0.023315134, -0.028349707, 0.28505623), (0.044141315, 0.03638562, 0.30735043), (0.05780979, -0.007735691, 0.2862646), (0.033809274, -0.032867268, 0.32328403), (0.020137671, 0.011254534, 0.34437454), (0.08961592, 0.026303643, 0.34129587), (0.09915559, -0.004446374, 0.3266036), (0.08241853, -0.021961072, 0.3524028), (0.07288181, 0.008788387, 0.3670897), (0.03332799, -0.0078368755, 0.26961312), (0.008608733, -0.033717357, 0.30773738), (-0.0054712445, 0.011719493, 0.32945278), (0.019248068, 0.037599977, 0.29132837), (0.049274314, -0.012449422, 0.35681486), (0.050513983, -0.015625654, 0.3562216), (0.04780832, -0.016298631, 0.35417122), (0.046568677, -0.013122403, 0.35476452), (0.036703497, -0.022404553, 0.37375033), (0.04821476, 0.011828588, 0.35991687), (0.04786679, 0.009045324, 0.36126015), (0.04546354, 0.008439195, 0.3593816), (0.045811526, 0.011222457, 0.35803828), (0.03381734, 0.018499352, 0.3736088), (0.06582199, 0.011474855, 0.36410555), (0.06545223, 0.008142797, 0.36496451), (0.0620904, 0.008308349, 0.36415958), (0.062460084, 0.0116404, 0.3633006), (0.059037685, 0.016059836, 0.38594344), (0.07274521, 0.026267298, 0.35371548), (0.07152578, 0.02530484, 0.3564097), (0.068680614, 0.026020285, 0.3553775), (0.069899976, 0.026982745, 0.35268334), (0.07272596, 0.045374565, 0.36232746), (0.084830225, 0.027584821, 0.33705905), (0.08279966, 0.029071623, 0.33943462), (0.08031043, 0.029462552, 0.33706227), (0.082341, 0.027975744, 0.33468667), (0.09119925, 0.049303483, 0.33143085), (0.09289937, 0.0140962135, 0.32241562), (0.09218456, 0.016799219, 0.3237776), (0.09018347, 0.017427063, 0.32148114), (0.09089833, 0.014724058, 0.32011923), (0.106760345, 0.025171908, 0.31125957), (0.08219086, -0.009306594, 0.30738372), (0.08192209, -0.0062094745, 0.3074711), (0.079194665, -0.0064043547, 0.30598953), (0.07946338, -0.009501467, 0.3059021), (0.090544246, -0.0064838445, 0.2883703), (0.09349133, -0.0067585343, 0.3215027), (0.09406034, -0.0037641935, 0.32088453), (0.09216725, -0.0039129127, 0.3184216), (0.091598205, -0.0069072493, 0.31903973), (0.10891986, -0.010877745, 0.30792892)]
            uniform token subdivisionScheme = "none"
            uniform token subsetFamily:materialBind:familyType = "nonOverlapping"
            custom string userProperties:blender:data_name = "Cylinder.021"

            def GeomSubset "Black" (
                prepend apiSchemas = ["MaterialBindingAPI"]
            )
            {
                uniform token elementType = "face"
                uniform token familyName = "materialBind"
                int[] indices = [0, 1, 2, 3, 4, 5, 6, 7, 8, 9, 10, 11, 12, 13, 14, 15, 16, 17, 18, 19, 20, 21, 22, 23, 24, 25, 26, 27, 28, 29, 30, 31, 32, 33, 35, 36, 37, 38, 39, 40, 41]
                rel material:binding = </root/_materials/Black>
            }

            def GeomSubset "Brown" (
                prepend apiSchemas = ["MaterialBindingAPI"]
            )
            {
                uniform token elementType = "face"
                uniform token familyName = "materialBind"
                int[] indices = [34]
                rel material:binding = </root/_materials/Brown>
            }

            def GeomSubset "DarkGreen" (
                prepend apiSchemas = ["MaterialBindingAPI"]
            )
            {
                uniform token elementType = "face"
                uniform token familyName = "materialBind"
                int[] indices = [42, 43, 44, 45, 46, 47, 48, 49, 50, 51, 52, 53, 54, 55, 56, 57, 58, 59, 60, 61, 62, 63, 64, 65, 66, 67, 68, 129, 130, 131, 132, 133, 134, 135, 136, 137, 138, 139, 140, 141, 142, 143, 144, 145, 146, 147, 148, 149, 150, 151, 152, 153, 154, 155, 156, 197]
                rel material:binding = </root/_materials/DarkGreen>
            }

            def GeomSubset "LightOrange" (
                prepend apiSchemas = ["MaterialBindingAPI"]
            )
            {
                uniform token elementType = "face"
                uniform token familyName = "materialBind"
                int[] indices = [69, 70, 71, 72, 73, 74, 75, 76, 77, 78, 79, 80, 81, 82, 83, 84, 85, 86, 87, 88, 89, 90, 91, 92, 93, 94, 95, 96, 97, 98, 99, 100, 101, 102, 103, 104, 105, 106, 107, 108, 109, 110, 111, 112, 113, 114, 115, 116, 117, 118, 119, 120, 121, 122, 123, 124, 125, 126, 127, 128, 157, 158, 159, 160, 161, 162, 163, 164, 165, 166, 167, 168, 169, 170, 171, 172, 173, 174, 175, 176, 177, 178, 179, 180, 181, 182, 183, 184, 185, 186, 187, 188, 189, 190, 191, 192, 193, 194, 195, 196]
                rel material:binding = </root/_materials/LightOrange>
            }
        }
    }

    def Scope "_materials"
    {
        def Material "Black"
        {
            token outputs:surface.connect = </root/_materials/Black/Principled_BSDF.outputs:surface>
            custom string userProperties:blender:data_name = "Black"

            def Shader "Principled_BSDF"
            {
                uniform token info:id = "UsdPreviewSurface"
                float inputs:clearcoat = 0
                float inputs:clearcoatRoughness = 0.03
                color3f inputs:diffuseColor = (0.035216685, 0.035216685, 0.035216685)
                float inputs:ior = 1.5
                float inputs:metallic = 0
                float inputs:opacity = 1
                float inputs:roughness = 0.6900348
                float inputs:specular = 0.5
                token outputs:surface
            }
        }

        def Material "Brown"
        {
            token outputs:surface.connect = </root/_materials/Brown/Principled_BSDF.outputs:surface>
            custom string userProperties:blender:data_name = "Brown"

            def Shader "Principled_BSDF"
            {
                uniform token info:id = "UsdPreviewSurface"
                float inputs:clearcoat = 0
                float inputs:clearcoatRoughness = 0.03
                color3f inputs:diffuseColor = (0.114435375, 0.08865559, 0.056128494)
                float inputs:ior = 1.5
                float inputs:metallic = 0
                float inputs:opacity = 1
                float inputs:roughness = 0.6900348
                float inputs:specular = 0.5
                token outputs:surface
            }
        }

        def Material "DarkGreen"
        {
            token outputs:surface.connect = </root/_materials/DarkGreen/Principled_BSDF.outputs:surface>
            custom string userProperties:blender:data_name = "DarkGreen"

            def Shader "Principled_BSDF"
            {
                uniform token info:id = "UsdPreviewSurface"
                float inputs:clearcoat = 0
                float inputs:clearcoatRoughness = 0.03
                color3f inputs:diffuseColor = (0.08744194, 0.15232062, 0.059860136)
                float inputs:ior = 1.5
                float inputs:metallic = 0
                float inputs:opacity = 1
                float inputs:roughness = 0.6900348
                float inputs:specular = 0.5
                token outputs:surface
            }
        }

        def Material "LightOrange"
        {
            token outputs:surface.connect = </root/_materials/LightOrange/Principled_BSDF.outputs:surface>
            custom string userProperties:blender:data_name = "LightOrange"

            def Shader "Principled_BSDF"
            {
                uniform token info:id = "UsdPreviewSurface"
                float inputs:clearcoat = 0
                float inputs:clearcoatRoughness = 0.03
                color3f inputs:diffuseColor = (0.5488475, 0.32919058, 0.105172455)
                float inputs:ior = 1.5
                float inputs:metallic = 0
                float inputs:opacity = 1
                float inputs:roughness = 0.6900348
                float inputs:specular = 0.5
                token outputs:surface
            }
        }
    }
}

