#usda 1.0
(
    defaultPrim = "root"
    doc = "Blender v5.1.2"
    metersPerUnit = 1
    upAxis = "Y"
)

def Xform "root" (
    customData = {
        dictionary Blender = {
            bool generated = 1
        }
    }
)
{
    float3 xformOp:rotateXYZ = (-90, -0, 0)
    uniform token[] xformOpOrder = ["xformOp:rotateXYZ"]

    def Xform "Houseplant_6"
    {
        custom string userProperties:blender:object_name = "Houseplant_6"

        def Mesh "Cylinder_015" (
            active = true
            prepend apiSchemas = ["MaterialBindingAPI"]
        )
        {
            uniform bool doubleSided = 1
            float3[] extent = [(-0.4748398, -0.47910714, 0.0014194967), (0.5650454, 0.5709969, 0.96002764)]
            int[] faceVertexCounts = [4, 4, 4, 4, 4, 4, 4, 4, 4, 4, 4, 4, 4, 4, 4, 4, 4, 4, 8, 4, 4, 4, 4, 4, 4, 4, 4, 4, 4, 4, 4, 4, 4, 4, 8, 4, 4, 4, 4, 4, 4, 4, 4, 4, 3, 4, 4, 4, 3, 4, 4, 4, 3, 4, 4, 4, 3, 4, 4, 3, 4, 4, 3, 4, 4, 4, 4, 4, 4, 4, 4, 4, 4, 4, 3, 4, 4, 3, 4, 4, 4, 4, 4, 3, 4, 4, 4, 4, 4, 3, 4, 4, 4, 4, 4, 4, 4, 4, 4, 4, 4, 4, 4, 4, 4, 4, 4, 4, 4, 4, 4, 4, 4, 4, 3, 4, 4, 4, 3, 4, 4, 4, 3, 4, 4, 4, 3, 4, 4, 3, 4, 4, 3, 4, 4, 4, 4, 4, 4, 4, 4, 4, 4, 4, 3, 4, 4, 3, 4, 4, 4, 4, 4, 3, 4, 4, 4, 4, 4, 3, 4, 4, 4, 4, 4, 4, 4, 4, 4, 4, 4, 4, 4, 4, 4, 4, 4, 4, 4, 4, 4, 4, 4, 4, 4, 4, 4, 4, 4, 4, 4, 4, 4, 4, 4, 4, 4, 4, 4, 4, 4, 4, 4, 4, 4, 4, 4, 4, 4, 4, 4, 4, 4, 4, 4, 4, 4, 4, 4, 4, 4, 4, 4, 4, 4, 4, 4, 4, 4, 4, 4, 4, 4, 4, 4, 4, 4, 4, 4, 4, 4, 4, 4, 4, 4, 4, 4, 4, 4, 4, 4, 4, 4, 4, 4, 4, 4, 4, 4, 4, 4, 4, 4, 4, 4, 4, 4, 4, 4, 4, 4, 4, 4, 4, 4, 4, 4, 4, 4, 4, 4, 4, 4, 4, 4, 4, 4, 4, 4, 4, 4, 4, 4, 4, 4, 4, 4, 4, 4, 4, 4, 4, 4, 4, 4, 4, 4, 4, 4, 4, 4, 4, 4, 4, 4, 4, 4, 4, 4, 4, 4, 4, 4, 4, 4, 4, 4, 4, 4, 4, 4, 4]
            int[] faceVertexIndices = [0, 1, 3, 2, 2, 3, 5, 4, 4, 5, 7, 6, 6, 7, 9, 8, 8, 9, 11, 10, 10, 11, 13, 12, 13, 11, 37, 38, 12, 13, 15, 14, 14, 15, 1, 0, 2, 4, 18, 17, 20, 21, 29, 28, 8, 10, 21, 20, 14, 0, 16, 23, 0, 2, 17, 16, 4, 6, 19, 18, 10, 12, 22, 21, 6, 8, 20, 19, 12, 14, 23, 22, 24, 25, 26, 27, 28, 29, 30, 31, 18, 19, 27, 26, 16, 17, 25, 24, 23, 16, 24, 31, 21, 22, 30, 29, 19, 20, 28, 27, 17, 18, 26, 25, 22, 23, 31, 30, 38, 37, 45, 46, 9, 7, 35, 36, 15, 13, 38, 39, 5, 3, 32, 34, 11, 9, 36, 37, 1, 15, 39, 33, 3, 1, 33, 32, 7, 5, 34, 35, 40, 41, 47, 46, 45, 44, 43, 42, 36, 35, 43, 44, 34, 32, 40, 42, 39, 38, 46, 47, 37, 36, 44, 45, 35, 34, 42, 43, 32, 33, 41, 40, 33, 39, 47, 41, 48, 50, 51, 49, 95, 96, 60, 59, 53, 54, 52, 49, 93, 90, 48, 55, 57, 58, 56, 99, 100, 67, 66, 60, 61, 59, 56, 97, 94, 55, 62, 64, 65, 63, 103, 104, 74, 73, 67, 68, 66, 63, 101, 98, 62, 69, 71, 72, 70, 107, 108, 88, 87, 74, 75, 73, 70, 105, 102, 69, 76, 78, 79, 77, 81, 82, 80, 77, 113, 110, 76, 83, 85, 86, 84, 88, 89, 87, 84, 109, 106, 83, 90, 93, 92, 91, 94, 97, 96, 95, 98, 101, 100, 99, 102, 105, 104, 103, 106, 109, 108, 107, 91, 92, 53, 52, 110, 113, 112, 111, 111, 112, 81, 80, 129, 130, 119, 118, 114, 116, 117, 115, 119, 120, 118, 115, 131, 128, 114, 121, 123, 124, 122, 126, 127, 125, 122, 135, 132, 121, 128, 131, 130, 129, 132, 135, 134, 133, 133, 134, 126, 125, 136, 138, 139, 137, 141, 142, 140, 137, 146, 143, 136, 143, 146, 145, 144, 144, 145, 141, 140, 155, 156, 152, 151, 147, 149, 150, 148, 152, 153, 151, 148, 157, 154, 147, 154, 157, 156, 155, 65, 64, 162, 163, 72, 71, 164, 165, 79, 78, 166, 167, 139, 138, 174, 175, 86, 85, 168, 169, 117, 116, 170, 171, 124, 123, 172, 173, 150, 149, 176, 177, 51, 50, 158, 159, 58, 57, 160, 161, 165, 164, 184, 185, 159, 158, 178, 179, 173, 172, 192, 193, 167, 166, 186, 187, 161, 160, 180, 181, 175, 174, 194, 195, 169, 168, 188, 189, 163, 162, 182, 183, 177, 176, 196, 197, 171, 170, 190, 191, 198, 199, 201, 200, 245, 209, 210, 246, 203, 202, 204, 199, 198, 240, 243, 205, 206, 208, 207, 249, 216, 217, 250, 210, 209, 211, 206, 205, 244, 247, 212, 213, 215, 214, 253, 223, 224, 254, 217, 216, 218, 213, 212, 248, 251, 219, 220, 222, 221, 257, 237, 238, 258, 224, 223, 225, 220, 219, 252, 255, 226, 227, 229, 228, 231, 230, 232, 227, 226, 260, 263, 233, 234, 236, 235, 238, 237, 239, 234, 233, 256, 259, 240, 241, 242, 243, 244, 245, 246, 247, 248, 249, 250, 251, 252, 253, 254, 255, 256, 257, 258, 259, 241, 202, 203, 242, 260, 261, 262, 263, 261, 230, 231, 262, 279, 268, 269, 280, 264, 265, 267, 266, 269, 268, 270, 265, 264, 278, 281, 271, 272, 274, 273, 276, 275, 277, 272, 271, 282, 285, 278, 279, 280, 281, 282, 283, 284, 285, 283, 275, 276, 284, 286, 287, 289, 288, 291, 290, 292, 287, 286, 293, 296, 293, 294, 295, 296, 294, 290, 291, 295, 305, 301, 302, 306, 297, 298, 300, 299, 302, 301, 303, 298, 297, 304, 307, 304, 305, 306, 307, 215, 313, 312, 214, 222, 315, 314, 221, 229, 317, 316, 228, 289, 325, 324, 288, 236, 319, 318, 235, 267, 321, 320, 266, 274, 323, 322, 273, 300, 327, 326, 299, 201, 309, 308, 200, 208, 311, 310, 207, 315, 335, 334, 314, 309, 329, 328, 308, 323, 343, 342, 322, 317, 337, 336, 316, 311, 331, 330, 310, 325, 345, 344, 324, 319, 339, 338, 318, 313, 333, 332, 312, 327, 347, 346, 326, 321, 341, 340, 320, 50, 48, 198, 200, 49, 51, 201, 199, 52, 54, 204, 202, 54, 53, 203, 204, 57, 55, 205, 207, 56, 58, 208, 206, 59, 61, 211, 209, 61, 60, 210, 211, 64, 62, 212, 214, 63, 65, 215, 213, 66, 68, 218, 216, 68, 67, 217, 218, 71, 69, 219, 221, 70, 72, 222, 220, 73, 75, 225, 223, 75, 74, 224, 225, 78, 76, 226, 228, 77, 79, 229, 227, 80, 82, 232, 230, 82, 81, 231, 232, 85, 83, 233, 235, 84, 86, 236, 234, 87, 89, 239, 237, 89, 88, 238, 239, 90, 91, 241, 240, 92, 93, 243, 242, 94, 95, 245, 244, 96, 97, 247, 246, 98, 99, 249, 248, 100, 101, 251, 250, 102, 103, 253, 252, 104, 105, 255, 254, 106, 107, 257, 256, 108, 109, 259, 258, 91, 52, 202, 241, 53, 92, 242, 203, 93, 49, 199, 243, 48, 90, 240, 198, 95, 59, 209, 245, 60, 96, 246, 210, 97, 56, 206, 247, 55, 94, 244, 205, 99, 66, 216, 249, 67, 100, 250, 217, 101, 63, 213, 251, 62, 98, 248, 212, 103, 73, 223, 253, 74, 104, 254, 224, 105, 70, 220, 255, 69, 102, 252, 219, 107, 87, 237, 257, 88, 108, 258, 238, 109, 84, 234, 259, 83, 106, 256, 233, 110, 111, 261, 260, 112, 113, 263, 262, 111, 80, 230, 261, 81, 112, 262, 231, 113, 77, 227, 263, 76, 110, 260, 226, 116, 114, 264, 266, 115, 117, 267, 265, 118, 120, 270, 268, 120, 119, 269, 270, 123, 121, 271, 273, 122, 124, 274, 272, 125, 127, 277, 275, 127, 126, 276, 277, 128, 129, 279, 278, 130, 131, 281, 280, 129, 118, 268, 279, 119, 130, 280, 269, 131, 115, 265, 281, 114, 128, 278, 264, 132, 133, 283, 282, 134, 135, 285, 284, 133, 125, 275, 283, 126, 134, 284, 276, 135, 122, 272, 285, 121, 132, 282, 271, 138, 136, 286, 288, 137, 139, 289, 287, 140, 142, 292, 290, 142, 141, 291, 292, 143, 144, 294, 293, 145, 146, 296, 295, 144, 140, 290, 294, 141, 145, 295, 291, 146, 137, 287, 296, 136, 143, 293, 286, 149, 147, 297, 299, 148, 150, 300, 298, 151, 153, 303, 301, 153, 152, 302, 303, 154, 155, 305, 304, 156, 157, 307, 306, 155, 151, 301, 305, 152, 156, 306, 302, 157, 148, 298, 307, 147, 154, 304, 297, 65, 163, 313, 215, 162, 64, 214, 312, 72, 165, 315, 222, 164, 71, 221, 314, 79, 167, 317, 229, 166, 78, 228, 316, 139, 175, 325, 289, 174, 138, 288, 324, 86, 169, 319, 236, 168, 85, 235, 318, 117, 171, 321, 267, 170, 116, 266, 320, 124, 173, 323, 274, 172, 123, 273, 322, 150, 177, 327, 300, 176, 149, 299, 326, 51, 159, 309, 201, 158, 50, 200, 308, 58, 161, 311, 208, 160, 57, 207, 310, 179, 178, 328, 329, 181, 180, 330, 331, 183, 182, 332, 333, 185, 184, 334, 335, 187, 186, 336, 337, 189, 188, 338, 339, 191, 190, 340, 341, 193, 192, 342, 343, 195, 194, 344, 345, 197, 196, 346, 347, 165, 185, 335, 315, 184, 164, 314, 334, 159, 179, 329, 309, 178, 158, 308, 328, 173, 193, 343, 323, 192, 172, 322, 342, 167, 187, 337, 317, 186, 166, 316, 336, 161, 181, 331, 311, 180, 160, 310, 330, 175, 195, 345, 325, 194, 174, 324, 344, 169, 189, 339, 319, 188, 168, 318, 338, 163, 183, 333, 313, 182, 162, 312, 332, 177, 197, 347, 327, 196, 176, 326, 346, 171, 191, 341, 321, 190, 170, 320, 340]
            rel material:binding = </root/_materials/Grey>
            normal3f[] normals = [(-2.097558e-8, 0.98992795, -0.14157219), (-4.1703753e-8, 0.9979856, -0.06344017), (0.7056824, 0.70568246, -0.063440114), (0.6999847, 0.6999847, -0.14157216), (0.6999847, 0.6999847, -0.14157216), (0.7056824, 0.70568246, -0.063440114), (0.9979856, 0, -0.06344017), (0.98992795, -3.1463372e-8, -0.14157215), (0.98992795, -3.1463372e-8, -0.14157215), (0.9979856, 0, -0.06344017), (0.70568246, -0.70568246, -0.06344009), (0.6999847, -0.6999847, -0.14157215), (0.6999847, -0.6999847, -0.14157215), (0.70568246, -0.70568246, -0.06344009), (-1.0425938e-7, -0.9979856, -0.063440084), (-1.1536571e-7, -0.98992795, -0.14157216), (-1.1536571e-7, -0.98992795, -0.14157216), (-1.0425938e-7, -0.9979856, -0.063440084), (-0.7056825, -0.70568234, -0.063440174), (-0.6999848, -0.69998467, -0.14157219), (-0.6999848, -0.69998467, -0.14157219), (-0.7056825, -0.70568234, -0.063440174), (-0.9979856, 2.0851877e-8, -0.06344022), (-0.98992795, 1.048779e-8, -0.1415722), (0.0000012156304, 0, 1), (0.0000015195374, 0, 1), (0.0000015195379, 0, 1), (0.0000012156304, 0, 1), (-0.98992795, 1.048779e-8, -0.1415722), (-0.9979856, 2.0851877e-8, -0.06344022), (-0.70568246, 0.70568234, -0.06344025), (-0.6999848, 0.6999848, -0.14157219), (-0.6999848, 0.6999848, -0.14157219), (-0.70568246, 0.70568234, -0.06344025), (-4.1703753e-8, 0.9979856, -0.06344017), (-2.097558e-8, 0.98992795, -0.14157219), (0.6999847, 0.6999847, -0.14157216), (0.98992795, -3.1463372e-8, -0.14157215), (0.956141, -5.207901e-8, -0.2929069), (0.67609376, 0.6760937, -0.2929069), (-1.1457384e-7, -0.956141, -0.2929069), (-0.67609376, -0.67609376, -0.29290688), (-0.6568746, -0.6568743, -0.37017828), (-1.4913839e-7, -0.92896074, -0.3701783), (-1.1536571e-7, -0.98992795, -0.14157216), (-0.6999848, -0.69998467, -0.14157219), (-0.67609376, -0.67609376, -0.29290688), (-1.1457384e-7, -0.956141, -0.2929069), (-0.6999848, 0.6999848, -0.14157219), (-2.097558e-8, 0.98992795, -0.14157219), (-3.1247406e-8, 0.956141, -0.29290688), (-0.67609376, 0.67609376, -0.2929069), (-2.097558e-8, 0.98992795, -0.14157219), (0.6999847, 0.6999847, -0.14157216), (0.67609376, 0.6760937, -0.2929069), (-3.1247406e-8, 0.956141, -0.29290688), (0.98992795, -3.1463372e-8, -0.14157215), (0.6999847, -0.6999847, -0.14157215), (0.6760937, -0.6760938, -0.2929069), (0.956141, -5.207901e-8, -0.2929069), (-0.6999848, -0.69998467, -0.14157219), (-0.98992795, 1.048779e-8, -0.1415722), (-0.956141, -3.1247406e-8, -0.2929069), (-0.67609376, -0.67609376, -0.29290688), (0.6999847, -0.6999847, -0.14157215), (-1.1536571e-7, -0.98992795, -0.14157216), (-1.1457384e-7, -0.956141, -0.2929069), (0.6760937, -0.6760938, -0.2929069), (-0.98992795, 1.048779e-8, -0.1415722), (-0.6999848, 0.6999848, -0.14157219), (-0.67609376, 0.67609376, -0.2929069), (-0.956141, -3.1247406e-8, -0.2929069), (2.2194262e-10, 0, -1), (2.2194262e-10, 0, -1), (2.2194262e-10, 0, -1), (2.2194262e-10, 0, -1), (2.2194262e-10, 0, -1), (2.2194262e-10, 0, -1), (2.2194262e-10, 0, -1), (2.2194262e-10, 0, -1), (0.956141, -5.207901e-8, -0.2929069), (0.6760937, -0.6760938, -0.2929069), (0.6568744, -0.6568744, -0.37017834), (0.9289607, 0, -0.37017837), (-3.1247406e-8, 0.956141, -0.29290688), (0.67609376, 0.6760937, -0.2929069), (0.6568745, 0.6568744, -0.3701783), (-3.7284597e-8, 0.92896074, -0.3701783), (-0.67609376, 0.67609376, -0.2929069), (-3.1247406e-8, 0.956141, -0.29290688), (-3.7284597e-8, 0.92896074, -0.3701783), (-0.65687454, 0.6568744, -0.37017828), (-0.67609376, -0.67609376, -0.29290688), (-0.956141, -3.1247406e-8, -0.2929069), (-0.92896074, -3.7284597e-8, -0.3701783), (-0.6568746, -0.6568743, -0.37017828), (0.6760937, -0.6760938, -0.2929069), (-1.1457384e-7, -0.956141, -0.2929069), (-1.4913839e-7, -0.92896074, -0.3701783), (0.6568744, -0.6568744, -0.37017834), (0.67609376, 0.6760937, -0.2929069), (0.956141, -5.207901e-8, -0.2929069), (0.9289607, 0, -0.37017837), (0.6568745, 0.6568744, -0.3701783), (-0.956141, -3.1247406e-8, -0.2929069), (-0.67609376, 0.67609376, -0.2929069), (-0.65687454, 0.6568744, -0.37017828), (-0.92896074, -3.7284597e-8, -0.3701783), (0.9871868, 8.530653e-8, 0.15956904), (0.6980464, 0.69804657, 0.1595691), (0.6980464, 0.69804645, 0.1595691), (0.98718673, 7.892266e-8, 0.15956903), (-1.6888207e-13, 0, 1), (-3.039076e-7, 0, 1), (-3.039076e-7, 0, 1), (-1.7369674e-13, 0, 1), (0, 0, 1), (0.0000012156304, 0, 1), (0.0000012156304, 0, 1), (0, 0, 1), (0, 0, 1), (-3.039076e-7, 0, 1), (-3.0390757e-7, 0, 1), (0, 0, 1), (0.0000015195374, 0, 1), (-1.6888207e-13, 0, 1), (-1.7369674e-13, 0, 1), (0.0000015195379, 0, 1), (-3.039076e-7, 0, 1), (0, 0, 1), (0, 0, 1), (-3.0390757e-7, 0, 1), (-3.039076e-7, 0, 1), (-3.039076e-7, 0, 1), (-3.0390757e-7, 0, 1), (-3.0390757e-7, 0, 1), (-3.039076e-7, 0, 1), (0, 0, 1), (0, 0, 1), (-3.039076e-7, 0, 1), (5.8576852e-8, 0, 1), (5.8576852e-8, 0, 1), (5.8576852e-8, 0, 1), (5.8576852e-8, 0, 1), (5.8576852e-8, 0, 1), (5.8576852e-8, 0, 1), (5.8576852e-8, 0, 1), (5.8576852e-8, 0, 1), (0, 0.9871868, 0.15956907), (-0.6980465, 0.6980465, 0.15956892), (-0.69804645, 0.69804645, 0.1595689), (0, 0.98718673, 0.15956905), (-0.9871868, 0, 0.1595689), (-0.6980464, -0.6980465, 0.15956894), (-0.6980464, -0.6980465, 0.15956892), (-0.98718685, 0, 0.15956889), (0.69804645, -0.69804657, 0.15956876), (0.9871868, 8.530653e-8, 0.15956904), (0.98718673, 7.892266e-8, 0.15956903), (0.6980465, -0.69804645, 0.15956876), (0.6980464, 0.69804657, 0.1595691), (0, 0.9871868, 0.15956907), (0, 0.98718673, 0.15956905), (0.6980464, 0.69804645, 0.1595691), (-0.6980465, 0.6980465, 0.15956892), (-0.9871868, 0, 0.1595689), (-0.98718685, 0, 0.15956889), (-0.69804645, 0.69804645, 0.1595689), (-0.6980464, -0.6980465, 0.15956894), (6.397989e-8, -0.9871868, 0.1595687), (5.919199e-8, -0.98718685, 0.15956871), (-0.6980464, -0.6980465, 0.15956892), (6.397989e-8, -0.9871868, 0.1595687), (0.69804645, -0.69804657, 0.15956876), (0.6980465, -0.69804645, 0.15956876), (5.919199e-8, -0.98718685, 0.15956871), (-0.13958247, 0.43133828, -0.8913272), (-0.029193847, 0.9280926, -0.37120324), (-0.03322097, 0.9241479, -0.38058782), (-0.1397047, 0.4028786, -0.90452826), (-0.76038617, -0.46002203, -0.4584677), (-0.78331167, -0.48779988, -0.3853234), (-0.7968139, -0.6024538, 0.04622725), (-0.79786974, -0.60124326, 0.043710172), (-0.27446216, -0.9552093, 0.110660695), (-0.31405008, -0.7750618, 0.54831713), (-0.25949684, -0.96549565, 0.02189922), (-0.1397047, 0.4028786, -0.90452826), (-0.13557352, -0.36276916, -0.9219644), (-0.13504322, -0.29038188, -0.947334), (-0.13958247, 0.43133828, -0.8913272), (0.24053846, 0.34614998, -0.90681934), (0.7423494, 0.57480496, -0.34426254), (0.7331844, 0.57695013, -0.359957), (0.2563672, 0.357898, -0.89787793), (-0.40638867, 0.6993608, -0.587999), (-0.419799, 0.7226197, -0.54917175), (-0.43447277, 0.8938867, 0.11045329), (-0.45300466, 0.89124596, 0.021617983), (-0.7968139, -0.6024538, 0.04622725), (-0.7510438, -0.6447436, 0.14226404), (-0.79786974, -0.60124326, 0.043710172), (0.2563672, 0.357898, -0.89787793), (-0.41979665, -0.15965042, -0.89346653), (-0.3832586, -0.13175277, -0.91419584), (0.24053846, 0.34614998, -0.90681934), (0.6624445, -0.5653433, -0.4914818), (0.6507779, -0.6807408, -0.336274), (0.64977884, -0.6849247, -0.3296446), (0.6624445, -0.5653433, -0.4914818), (0.7895873, 0.17760514, -0.587374), (0.81607294, 0.18369254, -0.54797995), (0.9825447, 0.14955816, 0.11062683), (0.98562133, 0.16755052, 0.02185184), (-0.43447277, 0.8938867, 0.11045329), (-0.28173319, 0.7873855, 0.548316), (-0.45300466, 0.89124596, 0.021617983), (0.07566921, 0.09895687, -0.9922105), (-0.14431709, 0.35630074, -0.9231589), (-0.09524428, 0.30089366, -0.9488896), (0.07566921, 0.09895687, -0.9922105), (-0.3729852, -0.3221578, -0.87011284), (-0.8508679, -0.41462368, -0.3226622), (-0.84002316, -0.4199619, -0.3435013), (-0.32296625, -0.29988915, -0.89764094), (0.091946475, 0.8839896, -0.45837572), (0.08373272, 0.9191501, -0.3849051), (0.00062596495, 0.99891067, 0.04665925), (0.0022468294, 0.99902225, 0.04415342), (0.9825447, 0.14955816, 0.11062683), (0.83541465, 0.037841972, 0.548316), (0.98562133, 0.16755052, 0.02185184), (-0.32296625, -0.29988915, -0.89764094), (0.38568753, 0.02892728, -0.9221758), (0.31944197, -0.00093754136, -0.9476053), (-0.3729852, -0.3221578, -0.87011284), (-0.86085004, -0.12103597, -0.49425447), (-0.93322647, -0.14344914, -0.32940963), (-0.9385414, -0.1453459, -0.31307277), (-0.86085004, -0.12103597, -0.49425447), (0.9966102, -0.06714806, 0.047530662), (0.98982424, -0.00300941, 0.14226411), (0.996612, -0.06881175, 0.04504754), (0.055056598, -0.121177725, -0.9911028), (0.42221814, -0.15221961, -0.89362246), (0.37553287, -0.14927949, -0.914708), (0.055056598, -0.121177725, -0.9911028), (0.0936339, -0.8934994, -0.4391942), (0.0071816393, -0.953762, -0.30047703), (0.0081578, -0.95324373, -0.30209222), (0.0936339, -0.8934994, -0.4391942), (0.00062596495, 0.99891067, 0.04665925), (-0.061422255, 0.987921, 0.14226453), (0.0022468294, 0.99902225, 0.04415342), (0.11882357, 0.06328539, -0.9908966), (0.12535462, 0.43117222, -0.8935193), (0.12553923, 0.38494423, -0.914362), (0.11882357, 0.06328539, -0.9908966), (-0.13504322, -0.29038188, -0.947334), (-0.13557352, -0.36276916, -0.9219644), (-0.1745308, -0.8182433, -0.547738), (-0.16900936, -0.7915656, -0.58724767), (-0.3832586, -0.13175277, -0.91419584), (-0.41979665, -0.15965042, -0.89346653), (-0.78331167, -0.48779988, -0.3853234), (-0.76038617, -0.46002203, -0.4584677), (-0.09524428, 0.30089366, -0.9488896), (-0.14431709, 0.35630074, -0.9231589), (-0.419799, 0.7226197, -0.54917175), (-0.40638867, 0.6993608, -0.587999), (0.31944197, -0.00093754136, -0.9476053), (0.38568753, 0.02892728, -0.9221758), (0.81607294, 0.18369254, -0.54797995), (0.7895873, 0.17760514, -0.587374), (0.12553923, 0.38494423, -0.914362), (0.12535462, 0.43117222, -0.8935193), (0.08373272, 0.9191501, -0.3849051), (0.091946475, 0.8839896, -0.45837572), (-0.16900936, -0.7915656, -0.58724767), (-0.1745308, -0.8182433, -0.547738), (-0.27446216, -0.9552093, 0.110660695), (-0.25949684, -0.96549565, 0.02189922), (0.37553287, -0.14927949, -0.914708), (0.42221814, -0.15221961, -0.89362246), (0.91194, -0.14446019, -0.384053), (0.8760859, -0.15009242, -0.4581984), (0.8760859, -0.15009242, -0.4581984), (0.91194, -0.14446019, -0.384053), (0.9966102, -0.06714806, 0.047530662), (0.996612, -0.06881175, 0.04504754), (0.60436213, -0.5382733, -0.587374), (0.62474024, -0.5562534, -0.5479798), (0.69398326, -0.7114416, 0.11062613), (0.71039885, -0.70346, 0.021852363), (-0.46060228, 0.092925996, -0.88272893), (-0.834725, 0.4335661, -0.33949178), (-0.834454, 0.4316938, -0.34253022), (-0.4413946, 0.082254454, -0.89353514), (0.69398326, -0.7114416, 0.11062613), (0.5174672, -0.6569454, 0.54831594), (0.71039885, -0.70346, 0.021852363), (-0.4413946, 0.082254454, -0.89353514), (0.24821188, -0.29661834, -0.92217594), (0.18534456, -0.2601757, -0.9476054), (-0.46060228, 0.092925996, -0.88272893), (-0.30892465, 0.25124562, -0.91730106), (-0.50316024, 0.7801673, -0.3717107), (-0.5033962, 0.7793701, -0.3730609), (-0.33493423, 0.29355806, -0.89534503), (0.526048, -0.84912574, 0.04753011), (0.5742241, -0.80624306, 0.14226356), (0.5246967, -0.8500965, 0.045046877), (-0.33493423, 0.29355806, -0.89534503), (0.12226577, -0.43184498, -0.8936224), (0.09745644, -0.39218795, -0.91470814), (-0.30892465, 0.25124562, -0.91730106), (0.18534456, -0.2601757, -0.9476054), (0.24821188, -0.29661834, -0.92217594), (0.62474024, -0.5562534, -0.5479798), (0.60436213, -0.5382733, -0.587374), (0.09745644, -0.39218795, -0.91470814), (0.12226577, -0.43184498, -0.8936224), (0.4138835, -0.8253509, -0.3840526), (0.3884173, -0.7994913, -0.45819825), (0.3884173, -0.7994913, -0.45819825), (0.4138835, -0.8253509, -0.3840526), (0.526048, -0.84912574, 0.04753011), (0.5246967, -0.8500965, 0.045046877), (-0.48200834, -0.021215523, 0.8759097), (-0.89879256, -0.2890829, 0.32954973), (-0.89704263, -0.28381518, 0.33876756), (-0.45337185, -0.010875114, 0.89125514), (0.8087243, 0.57768434, -0.11066067), (0.62569827, 0.5548423, -0.54831713), (0.82341766, 0.567013, -0.021899115), (-0.45337185, -0.010875114, 0.89125514), (0.29667306, 0.24893188, 0.9219643), (0.22861814, 0.2242594, 0.9473339), (-0.48200834, -0.021215523, 0.8759097), (0.22861814, 0.2242594, 0.9473339), (0.29667306, 0.24893188, 0.9219643), (0.7129915, 0.43775138, 0.5477379), (0.6896893, 0.42363837, 0.5872472), (0.6896893, 0.42363837, 0.5872472), (0.7129915, 0.43775138, 0.5477379), (0.8087243, 0.57768434, -0.11066067), (0.82341766, 0.567013, -0.021899115), (0.87725896, -0.14250793, 0.45837554), (0.9090464, -0.15963364, 0.38490477), (0.9642887, -0.2607109, -0.046659503), (0.9648204, -0.25917572, -0.044153713), (-0.7949215, 0.31471717, 0.5187031), (-0.9076766, 0.25205198, 0.3355488), (-0.90224904, 0.25613052, 0.34690613), (-0.7949215, 0.31471717, 0.5187031), (0.9642887, -0.2607109, -0.046659503), (0.93745035, -0.31772283, -0.14226387), (0.9648204, -0.25917572, -0.044153713), (0.092166424, 0.098129906, 0.9908966), (0.44895017, 0.008193997, 0.89351916), (0.40438032, 0.020465467, 0.91436195), (0.092166424, 0.098129906, 0.9908966), (0.40438032, 0.020465467, 0.91436195), (0.44895017, 0.008193997, 0.89351916), (0.9090464, -0.15963364, 0.38490477), (0.87725896, -0.14250793, 0.45837554), (0.64977884, -0.6849247, -0.3296446), (0.6507779, -0.6807408, -0.336274), (0.6111517, -0.7882772, -0.071503304), (0.61118966, -0.78832614, -0.0706334), (-0.84002316, -0.4199619, -0.3435013), (-0.8508679, -0.41462368, -0.3226622), (-0.93400985, -0.35279134, -0.05624829), (-0.93390894, -0.35275322, -0.05813165), (-0.9385414, -0.1453459, -0.31307277), (-0.93322647, -0.14344914, -0.32940963), (-0.9845732, -0.16512692, -0.057868898), (-0.98458296, -0.16512859, -0.05769626), (-0.89704263, -0.28381518, 0.33876756), (-0.89879256, -0.2890829, 0.32954973), (-0.9156578, -0.39750224, 0.059688535), (-0.9155946, -0.39747483, 0.06082986), (0.0081578, -0.95324373, -0.30209222), (0.0071816393, -0.953762, -0.30047703), (-0.08942566, -0.99359727, -0.06904764), (-0.08942739, -0.99361646, -0.06876779), (-0.834454, 0.4316938, -0.34253022), (-0.834725, 0.4335661, -0.33949178), (-0.8307947, 0.5535297, -0.05818192), (-0.83079654, 0.5535308, -0.05814375), (-0.5033962, 0.7793701, -0.3730609), (-0.50316024, 0.7801673, -0.3717107), (-0.44920066, 0.89086133, -0.0677115), (-0.4491912, 0.8908426, -0.06801953), (-0.90224904, 0.25613052, 0.34690613), (-0.9076766, 0.25205198, 0.3355488), (-0.9828251, 0.17369148, 0.06233822), (-0.98270077, 0.1736695, 0.06432774), (-0.03322097, 0.9241479, -0.38058782), (-0.029193847, 0.9280926, -0.37120324), (0.068882674, 0.9953816, -0.066863105), (0.0688815, 0.99536455, -0.06711755), (0.7331844, 0.57695013, -0.359957), (0.7423494, 0.57480496, -0.34426254), (0.84712905, 0.52819914, -0.05812065), (0.8470547, 0.5281528, -0.05960509), (-0.93390894, -0.35275322, -0.05813165), (-0.93400985, -0.35279134, -0.05624829), (-0.9354909, -0.35335073, 0), (-0.9354909, -0.35335073, 0), (0.0688815, 0.99536455, -0.06711755), (0.068882674, 0.9953816, -0.066863105), (0.06903713, 0.9976141, 0), (0.06903713, 0.9976141, 0), (-0.4491912, 0.8908426, -0.06801953), (-0.44920066, 0.89086133, -0.0677115), (-0.45023403, 0.89291066, 0), (-0.45023403, 0.89291066, 0), (-0.98458296, -0.16512859, -0.05769626), (-0.9845732, -0.16512692, -0.057868898), (-0.9862258, -0.16540416, 0), (-0.9862258, -0.16540416, 0), (0.8470547, 0.5281528, -0.05960509), (0.84712905, 0.52819914, -0.05812065), (0.8485635, 0.5290935, 0), (0.8485635, 0.5290935, 0), (-0.9155946, -0.39747483, 0.06082986), (-0.9156578, -0.39750224, 0.059688535), (-0.9172933, -0.39821228, 0), (-0.9172933, -0.39821228, 0), (-0.08942739, -0.99361646, -0.06876779), (-0.08942566, -0.99359727, -0.06904764), (-0.08963968, -0.9959742, 0), (-0.08963968, -0.9959742, 0), (0.61118966, -0.78832614, -0.0706334), (0.6111517, -0.7882772, -0.071503304), (0.6127201, -0.7903, 0), (0.6127201, -0.7903, 0), (-0.98270077, 0.1736695, 0.06432774), (-0.9828251, 0.17369148, 0.06233822), (-0.98474044, 0.17402986, 0), (-0.98474044, 0.17402986, 0), (-0.83079654, 0.5535308, -0.05814375), (-0.8307947, 0.5535297, -0.05818192), (-0.8322044, 0.5544689, 0), (-0.8322044, 0.5544689, 0), (0.13896418, -0.4319538, 0.8911256), (0.13908137, -0.4074579, 0.902571), (0.03275146, -0.9235913, 0.381977), (0.028923208, -0.9273708, 0.3730239), (0.75979346, 0.4588035, 0.46066615), (0.7989493, 0.60018235, -0.03822383), (0.7978501, 0.6014638, -0.040947642), (0.7832139, 0.48679858, 0.38678563), (0.2769305, 0.9546985, -0.10890527), (0.26151097, 0.9649528, -0.02186375), (0.31983227, 0.78077096, -0.53675324), (0.13908137, -0.4074579, 0.902571), (0.13896418, -0.4319538, 0.8911256), (0.1352302, 0.28785163, 0.9480792), (0.13579418, 0.3590106, 0.923402), (-0.2422092, -0.3470511, 0.90602994), (-0.2581114, -0.35888284, 0.8969847), (-0.7325994, -0.57666373, 0.3616035), (-0.74168646, -0.57455486, 0.34610394), (0.4067151, -0.6999377, 0.58708614), (0.4513768, -0.89207196, -0.02160181), (0.43258607, -0.8949931, -0.1088884), (0.41974097, -0.72242683, 0.54946977), (0.7978501, 0.6014638, -0.040947642), (0.7989493, 0.60018235, -0.03822383), (0.751254, 0.6446224, -0.14170134), (-0.2581114, -0.35888284, 0.8969847), (-0.2422092, -0.3470511, 0.90602994), (0.3804532, 0.13013159, 0.91559875), (0.4184317, 0.15909098, 0.89420635), (-0.6614417, 0.564007, 0.49435905), (-0.6614417, 0.564007, 0.49435905), (-0.64935994, 0.68460906, 0.33112255), (-0.6504315, 0.6800079, 0.33841997), (-0.7902971, -0.17777564, 0.5863671), (-0.98596257, -0.1655344, -0.021820387), (-0.9831002, -0.14715463, -0.108900934), (-0.81589824, -0.18371917, 0.548231), (0.43258607, -0.8949931, -0.1088884), (0.4513768, -0.89207196, -0.02160181), (0.2813105, -0.79438764, -0.5383426), (-0.07966542, -0.09382393, 0.99239635), (-0.07966542, -0.09382393, 0.99239635), (0.09348069, -0.29889318, 0.94969696), (0.14196311, -0.35375342, 0.92450255), (0.37411243, 0.32187396, 0.8697339), (0.32785463, 0.30136576, 0.8953714), (0.83974254, 0.41901204, 0.3453424), (0.85051715, 0.41379094, 0.32465), (-0.09253204, -0.8828399, 0.46046886), (-0.0036758266, -0.9992337, -0.038968526), (-0.001974539, -0.99912935, -0.0416713), (-0.08444363, -0.9185016, 0.3862951), (-0.9831002, -0.14715463, -0.108900934), (-0.98596257, -0.1655344, -0.021820387), (-0.8428465, -0.03503635, -0.5370124), (0.32785463, 0.30136576, 0.8953714), (0.37411243, 0.32187396, 0.8697339), (-0.3167094, 0.0026880966, 0.9485188), (-0.38199133, -0.026749803, 0.92377865), (0.8588216, 0.12200202, 0.49753487), (0.8588216, 0.12200202, 0.49753487), (0.93785655, 0.14606124, 0.31478736), (0.9323208, 0.14414729, 0.33166173), (-0.99674696, 0.06860393, -0.042296536), (-0.9967354, 0.070358254, -0.039600406), (-0.9899115, 0.0032565007, -0.14164957), (-0.049922194, 0.119869895, 0.99153364), (-0.049922194, 0.119869895, 0.99153364), (-0.37154537, 0.14841811, 0.91647476), (-0.42080078, 0.15157281, 0.8944006), (-0.094653286, 0.89152515, 0.4429713), (-0.094653286, 0.89152515, 0.4429713), (-0.0084933, 0.9525909, 0.30413568), (-0.0077717514, 0.95297927, 0.30293566), (-0.001974539, -0.99912935, -0.0416713), (-0.0036758266, -0.9992337, -0.038968526), (0.061205786, -0.98801297, -0.14171863), (-0.11801842, -0.05710872, 0.9913679), (-0.11801842, -0.05710872, 0.9913679), (-0.12508456, -0.38079473, 0.91616), (-0.124936044, -0.42890984, 0.894666), (0.1352302, 0.28785163, 0.9480792), (0.1691494, 0.7922963, 0.586221), (0.17443013, 0.81810313, 0.54797935), (0.13579418, 0.3590106, 0.923402), (0.3804532, 0.13013159, 0.91559875), (0.75979346, 0.4588035, 0.46066615), (0.7832139, 0.48679858, 0.38678563), (0.4184317, 0.15909098, 0.89420635), (0.09348069, -0.29889318, 0.94969696), (0.4067151, -0.6999377, 0.58708614), (0.41974097, -0.72242683, 0.54946977), (0.14196311, -0.35375342, 0.92450255), (-0.3167094, 0.0026880966, 0.9485188), (-0.7902971, -0.17777564, 0.5863671), (-0.81589824, -0.18371917, 0.548231), (-0.38199133, -0.026749803, 0.92377865), (-0.12508456, -0.38079473, 0.91616), (-0.09253204, -0.8828399, 0.46046886), (-0.08444363, -0.9185016, 0.3862951), (-0.124936044, -0.42890984, 0.894666), (0.1691494, 0.7922963, 0.586221), (0.26151097, 0.9649528, -0.02186375), (0.2769305, 0.9546985, -0.10890527), (0.17443013, 0.81810313, 0.54797935), (-0.37154537, 0.14841811, 0.91647476), (-0.874817, 0.15063864, 0.4604381), (-0.9111991, 0.14518994, 0.3855335), (-0.42080078, 0.15157281, 0.8944006), (-0.874817, 0.15063864, 0.4604381), (-0.9967354, 0.070358254, -0.039600406), (-0.99674696, 0.06860393, -0.042296536), (-0.9111991, 0.14518994, 0.3855335), (-0.6049237, 0.53875744, 0.58635116), (-0.70893836, 0.70493287, -0.021817172), (-0.6923291, 0.7133211, -0.10887384), (-0.6246599, 0.55609256, 0.54823446), (0.4611765, -0.09411286, 0.8823033), (0.44525972, -0.0852639, 0.8913327), (0.8337319, -0.43178448, 0.3441703), (0.83396184, -0.43331409, 0.34168187), (-0.6923291, 0.7133211, -0.10887384), (-0.70893836, 0.70493287, -0.021817172), (-0.51954836, 0.6647378, -0.5368362), (0.44525972, -0.0852639, 0.8913327), (0.4611765, -0.09411286, 0.8823033), (-0.18257703, 0.25878826, 0.94852215), (-0.24464512, 0.29482546, 0.9237027), (0.3094633, -0.2526721, 0.9167275), (0.33580288, -0.29529634, 0.89444757), (0.5034864, -0.7786522, 0.3744359), (0.50335115, -0.77911115, 0.37366223), (-0.5249265, 0.8500999, -0.042216167), (-0.5234926, 0.8511134, -0.03951651), (-0.57407045, 0.80646193, -0.14164096), (0.33580288, -0.29529634, 0.89444757), (0.3094633, -0.2526721, 0.9167275), (-0.0965085, 0.38934636, 0.91602165), (-0.122131296, 0.43041363, 0.89433104), (-0.18257703, 0.25878826, 0.94852215), (-0.6049237, 0.53875744, 0.58635116), (-0.6246599, 0.55609256, 0.54823446), (-0.24464512, 0.29482546, 0.9237027), (-0.0965085, 0.38934636, 0.91602165), (-0.38721493, 0.7987668, 0.46047384), (-0.4128423, 0.82517123, 0.38555628), (-0.122131296, 0.43041363, 0.89433104), (-0.38721493, 0.7987668, 0.46047384), (-0.5234926, 0.8511134, -0.03951651), (-0.5249265, 0.8500999, -0.042216167), (-0.4128423, 0.82517123, 0.38555628), (0.8435659, 0.17461027, -0.50784636), (0.8435659, 0.17461027, -0.50784636), (0.8977417, 0.2835879, -0.33710194), (0.89953816, 0.28909764, -0.32749596), (-0.8098814, -0.57571936, 0.11242542), (-0.8245231, -0.5654134, 0.021661293), (-0.62212306, -0.54782546, 0.55933017), (0.008823729, -0.13158573, -0.9912655), (0.008823729, -0.13158573, -0.9912655), (-0.23214813, -0.22517012, -0.9462588), (-0.30126587, -0.25020897, -0.9201274), (-0.23214813, -0.22517012, -0.9462588), (-0.689077, -0.4232683, -0.588232), (-0.71310765, -0.43788713, -0.54747814), (-0.30126587, -0.25020897, -0.9201274), (-0.689077, -0.4232683, -0.588232), (-0.8245231, -0.5654134, 0.021661293), (-0.8098814, -0.57571936, 0.11242542), (-0.71310765, -0.43788713, -0.54747814), (-0.8782655, 0.1434206, -0.45615825), (-0.96415514, 0.26059946, 0.049927257), (-0.96363986, 0.26205117, 0.05222385), (-0.9095363, 0.16054079, -0.38336712), (0.7968895, -0.3142813, -0.51594037), (0.7968895, -0.3142813, -0.51594037), (0.902926, -0.25602767, -0.3452166), (0.90848035, -0.25183076, -0.3335339), (-0.96363986, 0.26205117, 0.05222385), (-0.96415514, 0.26059946, 0.049927257), (-0.93730253, 0.31790793, 0.14282335), (-0.09760584, -0.09745444, -0.9904422), (-0.09760584, -0.09745444, -0.9904422), (-0.40816423, -0.019908285, -0.9126914), (-0.45097014, -0.00808264, -0.8925024), (-0.40816423, -0.019908285, -0.9126914), (-0.8782655, 0.1434206, -0.45615825), (-0.9095363, 0.16054079, -0.38336712), (-0.45097014, -0.00808264, -0.8925024), (-0.64935994, 0.68460906, 0.33112255), (-0.61122286, 0.7882712, 0.070958905), (-0.61117923, 0.7882136, 0.07196743), (-0.6504315, 0.6800079, 0.33841997), (0.83974254, 0.41901204, 0.3453424), (0.9339565, 0.35255796, 0.058551155), (0.9340517, 0.35260025, 0.056750465), (0.85051715, 0.41379094, 0.32465), (0.93785655, 0.14606124, 0.31478736), (0.98454005, 0.16525678, 0.058060184), (0.9845308, 0.16525562, 0.058220558), (0.9323208, 0.14414729, 0.33166173), (0.8977417, 0.2835879, -0.33710194), (0.91565263, 0.397405, -0.06041135), (0.91572016, 0.39743614, -0.059170227), (0.89953816, 0.28909764, -0.32749596), (-0.0084933, 0.9525909, 0.30413568), (0.089439206, 0.9935983, 0.06901475), (0.08943676, 0.99357027, 0.06942062), (-0.0077717514, 0.95297927, 0.30293566), (0.8337319, -0.43178448, 0.3441703), (0.83074945, -0.5535541, 0.058594357), (0.8307418, -0.55354923, 0.058747724), (0.83396184, -0.43331409, 0.34168187), (0.5034864, -0.7786522, 0.3744359), (0.44916236, -0.8908191, 0.06851664), (0.44916818, -0.89083034, 0.068332255), (0.50335115, -0.77911115, 0.37366223), (0.902926, -0.25602767, -0.3452166), (0.9827108, -0.17376928, -0.06390352), (0.98284084, -0.17378932, -0.06181549), (0.90848035, -0.25183076, -0.3335339), (0.03275146, -0.9235913, 0.381977), (-0.06898734, -0.9953225, 0.067629695), (-0.06898776, -0.99533176, 0.06749317), (0.028923208, -0.9273708, 0.3730239), (-0.7325994, -0.57666373, 0.3616035), (-0.8471218, -0.5279894, 0.060099244), (-0.8471898, -0.52803636, 0.05871079), (-0.74168646, -0.57455486, 0.34610394), (0.9339565, 0.35255796, 0.058551155), (0.9354935, 0.35334393, 0.00007809526), (0.9354935, 0.35334393, 0.00007809526), (0.9340517, 0.35260025, 0.056750465), (-0.06898734, -0.9953225, 0.067629695), (-0.06903714, -0.9976141, 0.00010555704), (-0.06903714, -0.9976141, 0.00010555704), (-0.06898776, -0.99533176, 0.06749317), (0.44916236, -0.8908191, 0.06851664), (0.4502339, -0.8929107, 0.00010968499), (0.4502339, -0.8929107, 0.00010968499), (0.44916818, -0.89083034, 0.068332255), (0.98454005, 0.16525678, 0.058060184), (0.98622596, 0.16540419, 0.00007893454), (0.98622596, 0.16540419, 0.00007893454), (0.9845308, 0.16525562, 0.058220558), (-0.8471218, -0.5279894, 0.060099244), (-0.84856725, -0.5290877, 0.000081618084), (-0.84856725, -0.5290877, 0.000081618084), (-0.8471898, -0.52803636, 0.05871079), (0.91565263, 0.397405, -0.06041135), (0.91729504, 0.39820838, 0.000085786596), (0.91729504, 0.39820838, 0.000085786596), (0.91572016, 0.39743614, -0.059170227), (0.089439206, 0.9935983, 0.06901475), (0.0896397, 0.99597424, 0.00011292477), (0.0896397, 0.99597424, 0.00011292477), (0.08943676, 0.99357027, 0.06942062), (-0.61122286, 0.7882712, 0.070958905), (-0.6127241, 0.7902969, 0.00011865157), (-0.6127241, 0.7902969, 0.00011865157), (-0.61117923, 0.7882136, 0.07196743), (0.9827108, -0.17376928, -0.06390352), (0.9847389, -0.17403816, 0.000094363284), (0.9847389, -0.17403816, 0.000094363284), (0.98284084, -0.17378932, -0.06181549), (0.83074945, -0.5535541, 0.058594357), (0.83220446, -0.5544687, 0.00008002136), (0.83220446, -0.5544687, 0.00008002136), (0.8307418, -0.55354923, 0.058747724), (0.9963062, -0.01730721, -0.08410987), (0.9888596, 0.050377905, -0.14006703), (0.9887258, 0.053097695, -0.1400067), (0.9964006, -0.017492745, -0.08294498), (-0.98431367, -0.17262411, 0.036435075), (-0.99509716, -0.088149205, -0.04484922), (-0.9945427, -0.09360844, -0.046067376), (-0.9842978, -0.17149052, 0.041816853), (0.8772504, -0.29351717, -0.37984136), (0.7790048, -0.41162655, -0.4729853), (0.7790048, -0.41162655, -0.4729853), (0.89028996, -0.27382717, -0.36387154), (-0.89818376, 0.14780612, -0.41402796), (-0.9490531, 0.20545447, -0.23892826), (-0.9501124, 0.20718253, -0.23315637), (-0.89818376, 0.14780612, -0.41402796), (0.5760682, -0.8146865, -0.066568315), (0.54649323, -0.8258127, -0.13920704), (0.5435312, -0.8277533, -0.13927819), (0.57598823, -0.81488967, -0.06474988), (-0.66969115, 0.7423015, 0.022410754), (-0.6660459, 0.7419483, -0.07678265), (-0.67059237, 0.7377291, -0.07785606), (-0.66797704, 0.7437684, 0.024801167), (0.46483135, -0.6111998, -0.64059854), (0.32876164, -0.52578497, -0.7845164), (0.32876164, -0.52578497, -0.7845164), (0.4645711, -0.61105186, -0.6409285), (-0.63055146, 0.7741431, -0.055742808), (-0.5970882, 0.800465, -0.052359086), (-0.5948627, 0.80213493, -0.052134555), (-0.63055146, 0.7741431, -0.055742808), (-0.77333945, -0.6181427, -0.14087477), (-0.7229507, -0.6665023, -0.18198088), (-0.7188646, -0.6717656, -0.17878635), (-0.7732711, -0.6184745, -0.13978945), (0.64203954, 0.7643504, 0.059613075), (0.70789176, 0.70627207, -0.008304406), (0.7059904, 0.708169, -0.008614965), (0.6416096, 0.76444274, 0.062963724), (-0.8479402, -0.3680664, -0.38147688), (-0.8535958, -0.21206492, -0.47581792), (-0.8535958, -0.21206492, -0.47581792), (-0.8444797, -0.39152902, -0.36545748), (0.7676267, 0.4892172, -0.41402397), (0.84300333, 0.48153704, -0.23972377), (0.84503585, 0.48096883, -0.23363078), (0.7676267, 0.4892172, -0.41402397), (-0.42282763, 0.9054046, -0.038199313), (-0.4783784, 0.87066, -0.114478014), (-0.4792918, 0.8700802, -0.1150646), (-0.4220598, 0.9058382, -0.036368307), (0.5829289, -0.81246525, 0.00970008), (0.5118833, -0.85384417, -0.09447529), (0.51779234, -0.8501232, -0.09582016), (0.58059895, -0.8139731, 0.018777272), (-0.09967607, 0.91955537, -0.38010868), (0.049051818, 0.87946063, -0.47343716), (0.049051818, 0.87946063, -0.47343716), (-0.12302767, 0.9231852, -0.36413363), (0.24054387, -0.8778986, -0.4140443), (0.20965092, -0.9480998, -0.23906761), (0.20852023, -0.9497983, -0.23324329), (0.24054387, -0.8778986, -0.4140443), (-0.07167787, 0.9883583, -0.13420168), (0.08554454, 0.9754388, -0.20298126), (0.09578409, 0.9756157, -0.19748303), (-0.06884539, 0.9880644, -0.13780054), (0.054877523, -0.9949426, 0.08412945), (0.18224312, -0.98319995, -0.010259997), (0.18222325, -0.9832036, -0.0102713425), (0.056126963, -0.99493176, 0.083429195), (0.04939867, 0.7662984, -0.6405829), (0.096103504, 0.6128412, -0.7843403), (0.096103504, 0.6128412, -0.7843403), (0.049472712, 0.7660885, -0.6408283), (-0.029930275, -0.99800783, -0.055537663), (-0.07291426, -0.9959585, -0.052442178), (-0.07564281, -0.9957655, -0.052242048), (-0.029930275, -0.99800783, -0.055537663), (-0.99298626, 0.04962323, -0.10731136), (-0.98484296, 0.0745355, -0.15661675), (-0.98485637, 0.0774057, -0.15513371), (-0.9931271, 0.049640268, -0.105992034), (0.99720466, 0.06869092, 0.029398216), (0.9970303, 0.05979334, -0.048531458), (0.99669015, 0.06409985, -0.050000254), (0.9972726, 0.066500165, 0.032015745), (-0.76773494, -0.0017559519, -0.6407652), (-0.61765766, 0.055193394, -0.7845079), (-0.61765766, 0.055193394, -0.7845079), (-0.7674994, -0.0016546557, -0.64104754), (0.997796, 0.035839867, -0.05584506), (0.9985881, -0.006905424, -0.052669566), (0.99857605, -0.00968518, -0.052459672), (0.997796, 0.035839867, -0.05584506), (0.97652054, 0.09513347, -0.19328026), (0.9659694, -0.03970251, -0.25559103), (0.96655244, -0.028046073, -0.25493103), (0.97655046, 0.095184244, -0.19310434), (-0.9844024, 0.16932437, 0.047760356), (-0.98884547, -0.034725588, 0.14484033), (-0.98887247, -0.03395465, 0.14483847), (-0.984217, 0.17086457, 0.046067506), (0.59875715, -0.7742997, -0.20481656), (0.6304587, -0.6815466, -0.37150508), (0.63315415, -0.68206495, -0.36592808), (0.6003227, -0.77276295, -0.20603386), (-0.53532845, 0.84462667, -0.005414547), (-0.5416468, 0.8356982, 0.09070401), (-0.5430605, 0.8345507, 0.0927928), (-0.53295565, 0.846142, -0.0014122765), (-0.663714, -0.7237898, -0.18871137), (-0.74442816, -0.61789167, -0.2530543), (-0.7372867, -0.6267619, -0.25214654), (-0.66369647, -0.72388405, -0.18841124), (0.84488875, 0.53310335, 0.044315327), (0.71321857, 0.6869642, 0.13928209), (0.71369123, 0.6864731, 0.13928245), (0.8456958, 0.53194636, 0.042797815), (-0.49419248, 0.84799343, -0.19152291), (-0.36762092, 0.89427936, -0.25518474), (-0.3784172, 0.8899657, -0.25448287), (-0.49423817, 0.8479987, -0.19138137), (0.25743207, -0.965143, 0.047198184), (0.44452628, -0.8842324, 0.143281), (0.4438394, -0.8845769, 0.14328384), (0.25597778, -0.9656096, 0.0455354), (-0.97850496, -0.010747678, -0.20594297), (-0.92382705, -0.09168635, -0.37166822), (-0.92587763, -0.0935466, -0.36605945), (-0.9782191, -0.012981234, -0.20716876), (0.99656135, -0.08266275, -0.0056879506), (0.9932264, -0.07191406, 0.09126664), (0.9931613, -0.07012889, 0.093340404), (0.99634266, -0.085431404, -0.0016758932), (0.9659694, -0.03970251, -0.25559103), (0.8772504, -0.29351717, -0.37984136), (0.89028996, -0.27382717, -0.36387154), (0.96655244, -0.028046073, -0.25493103), (-0.9490531, 0.20545447, -0.23892826), (-0.9844024, 0.16932437, 0.047760356), (-0.984217, 0.17086457, 0.046067506), (-0.9501124, 0.20718253, -0.23315637), (-0.98884547, -0.034725588, 0.14484033), (-0.98431367, -0.17262411, 0.036435075), (-0.9842978, -0.17149052, 0.041816853), (-0.98887247, -0.03395465, 0.14483847), (0.9888596, 0.050377905, -0.14006703), (0.97652054, 0.09513347, -0.19328026), (0.97655046, 0.095184244, -0.19310434), (0.9887258, 0.053097695, -0.1400067), (0.6304587, -0.6815466, -0.37150508), (0.46483135, -0.6111998, -0.64059854), (0.4645711, -0.61105186, -0.6409285), (0.63315415, -0.68206495, -0.36592808), (-0.5970882, 0.800465, -0.052359086), (-0.53532845, 0.84462667, -0.005414547), (-0.53295565, 0.846142, -0.0014122765), (-0.5948627, 0.80213493, -0.052134555), (-0.5416468, 0.8356982, 0.09070401), (-0.66969115, 0.7423015, 0.022410754), (-0.66797704, 0.7437684, 0.024801167), (-0.5430605, 0.8345507, 0.0927928), (0.54649323, -0.8258127, -0.13920704), (0.59875715, -0.7742997, -0.20481656), (0.6003227, -0.77276295, -0.20603386), (0.5435312, -0.8277533, -0.13927819), (-0.74442816, -0.61789167, -0.2530543), (-0.8479402, -0.3680664, -0.38147688), (-0.8444797, -0.39152902, -0.36545748), (-0.7372867, -0.6267619, -0.25214654), (0.84300333, 0.48153704, -0.23972377), (0.84488875, 0.53310335, 0.044315327), (0.8456958, 0.53194636, 0.042797815), (0.84503585, 0.48096883, -0.23363078), (0.71321857, 0.6869642, 0.13928209), (0.64203954, 0.7643504, 0.059613075), (0.6416096, 0.76444274, 0.062963724), (0.71369123, 0.6864731, 0.13928245), (-0.7229507, -0.6665023, -0.18198088), (-0.663714, -0.7237898, -0.18871137), (-0.66369647, -0.72388405, -0.18841124), (-0.7188646, -0.6717656, -0.17878635), (-0.36762092, 0.89427936, -0.25518474), (-0.09967607, 0.91955537, -0.38010868), (-0.12302767, 0.9231852, -0.36413363), (-0.3784172, 0.8899657, -0.25448287), (0.20965092, -0.9480998, -0.23906761), (0.25743207, -0.965143, 0.047198184), (0.25597778, -0.9656096, 0.0455354), (0.20852023, -0.9497983, -0.23324329), (0.44452628, -0.8842324, 0.143281), (0.5829289, -0.81246525, 0.00970008), (0.58059895, -0.8139731, 0.018777272), (0.4438394, -0.8845769, 0.14328384), (-0.4783784, 0.87066, -0.114478014), (-0.49419248, 0.84799343, -0.19152291), (-0.49423817, 0.8479987, -0.19138137), (-0.4792918, 0.8700802, -0.1150646), (-0.92382705, -0.09168635, -0.37166822), (-0.76773494, -0.0017559519, -0.6407652), (-0.7674994, -0.0016546557, -0.64104754), (-0.92587763, -0.0935466, -0.36605945), (0.9985881, -0.006905424, -0.052669566), (0.99656135, -0.08266275, -0.0056879506), (0.99634266, -0.085431404, -0.0016758932), (0.99857605, -0.00968518, -0.052459672), (0.9932264, -0.07191406, 0.09126664), (0.99720466, 0.06869092, 0.029398216), (0.9972726, 0.066500165, 0.032015745), (0.9931613, -0.07012889, 0.093340404), (-0.98484296, 0.0745355, -0.15661675), (-0.97850496, -0.010747678, -0.20594297), (-0.9782191, -0.012981234, -0.20716876), (-0.98485637, 0.0774057, -0.15513371), (0.052053653, 0.97533435, -0.21450698), (-0.030288858, 0.9280563, -0.37120616), (-0.032034036, 0.93022645, -0.36558524), (0.049968086, 0.9752274, -0.21548735), (-0.14790727, -0.9889863, -0.0054294853), (-0.13657466, -0.98532945, 0.1023387), (-0.13479365, -0.985309, 0.10486597), (-0.15054157, -0.98860264, -0.0014799979), (-0.030288858, 0.9280563, -0.37120616), (0.04939867, 0.7662984, -0.6405829), (0.049472712, 0.7660885, -0.6408283), (-0.032034036, 0.93022645, -0.36558524), (-0.07291426, -0.9959585, -0.052442178), (-0.14790727, -0.9889863, -0.0054294853), (-0.15054157, -0.98860264, -0.0014799979), (-0.07564281, -0.9957655, -0.052242048), (-0.13657466, -0.98532945, 0.1023387), (0.054877523, -0.9949426, 0.08412945), (0.056126963, -0.99493176, 0.083429195), (-0.13479365, -0.985309, 0.10486597), (0.08554454, 0.9754388, -0.20298126), (0.052053653, 0.97533435, -0.21450698), (0.049968086, 0.9752274, -0.21548735), (0.09578409, 0.9756157, -0.19748303), (0.5194046, 0.84728664, -0.11101464), (0.45849395, 0.87250185, -0.16889049), (0.45431778, 0.8750028, -0.1672285), (0.5193607, 0.84746397, -0.109860405), (-0.33567217, -0.9412794, 0.03629395), (-0.4146792, -0.9090957, -0.039827194), (-0.4102286, -0.91105, -0.04123499), (-0.336789, -0.9406411, 0.042043447), (0.68933654, 0.6168129, -0.37994325), (0.74341774, 0.47264528, -0.47321936), (0.74341774, 0.47264528, -0.47321936), (0.67868304, 0.63789254, -0.3639814), (-0.57342094, -0.7069865, -0.41395485), (-0.64844954, -0.7227585, -0.2390259), (-0.650485, -0.7228287, -0.23321249), (-0.57342094, -0.7069865, -0.41395485), (0.8753936, 0.47111833, -0.108321734), (0.8819022, 0.44173247, -0.16468439), (0.8828296, 0.44094583, -0.1617985), (0.8753801, 0.4714284, -0.10707432), (-0.8170493, -0.57406414, 0.0536725), (-0.8208669, -0.5704494, -0.02766054), (-0.8187804, -0.5734277, -0.027916158), (-0.8171063, -0.5739724, 0.05378686), (0.6516451, 0.40629414, -0.6405339), (0.5541027, 0.27893138, -0.78432614), (0.5541027, 0.27893138, -0.78432614), (0.6515169, 0.40611076, -0.64078057), (-0.8285911, -0.5570976, -0.055488743), (-0.8519618, -0.5209793, -0.052360963), (-0.85339296, -0.518652, -0.052158963), (-0.8285911, -0.5570976, -0.055488743), (0.40053973, 0.89539766, -0.19450192), (0.5127024, 0.81978744, -0.25511697), (0.5029121, 0.82604545, -0.25441757), (0.4005082, 0.8954494, -0.19432819), (-0.6344594, -0.77151525, 0.047174998), (-0.4595098, -0.87613696, 0.14572173), (-0.46020836, -0.8757725, 0.1457078), (-0.63568336, -0.7706069, 0.045515534), (0.5127024, 0.81978744, -0.25511697), (0.68933654, 0.6168129, -0.37994325), (0.67868304, 0.63789254, -0.3639814), (0.5029121, 0.82604545, -0.25441757), (-0.64844954, -0.7227585, -0.2390259), (-0.6344594, -0.77151525, 0.047174998), (-0.63568336, -0.7706069, 0.045515534), (-0.650485, -0.7228287, -0.23321249), (-0.4595098, -0.87613696, 0.14572173), (-0.33567217, -0.9412794, 0.03629395), (-0.336789, -0.9406411, 0.042043447), (-0.46020836, -0.8757725, 0.1457078), (0.45849395, 0.87250185, -0.16889049), (0.40053973, 0.89539766, -0.19450192), (0.4005082, 0.8954494, -0.19432819), (0.45431778, 0.8750028, -0.1672285), (0.8258607, 0.5262517, -0.20251727), (0.7366997, 0.5652751, -0.37113014), (0.7374459, 0.56795454, -0.36551493), (0.8245741, 0.5278216, -0.20367098), (-0.8899751, -0.4559778, -0.005345301), (-0.8811752, -0.46410576, 0.09020116), (-0.880171, -0.46560815, 0.09223849), (-0.8911962, -0.4536159, -0.0014031122), (0.7366997, 0.5652751, -0.37113014), (0.6516451, 0.40629414, -0.6405339), (0.6515169, 0.40611076, -0.64078057), (0.7374459, 0.56795454, -0.36551493), (-0.8519618, -0.5209793, -0.052360963), (-0.8899751, -0.4559778, -0.005345301), (-0.8911962, -0.4536159, -0.0014031122), (-0.85339296, -0.518652, -0.052158963), (-0.8811752, -0.46410576, 0.09020116), (-0.8170493, -0.57406414, 0.0536725), (-0.8171063, -0.5739724, 0.05378686), (-0.880171, -0.46560815, 0.09223849), (0.8819022, 0.44173247, -0.16468439), (0.8258607, 0.5262517, -0.20251727), (0.8245741, 0.5278216, -0.20367098), (0.8828296, 0.44094583, -0.1617985), (-0.35074982, 0.9331659, -0.07858701), (-0.27741727, 0.9494058, -0.1472017), (-0.28062287, 0.9483889, -0.14767975), (-0.35064903, 0.93305856, -0.08029315), (0.16095886, -0.9862922, 0.036331315), (0.24039114, -0.968348, -0.06718776), (0.2455778, -0.9670929, -0.06650528), (0.16002688, -0.9866562, 0.03001661), (-0.55227417, 0.7406601, -0.3826433), (-0.6445648, 0.57857877, -0.4997829), (-0.6445648, 0.57857877, -0.4997829), (-0.56692636, 0.71996677, -0.40030283), (0.4332195, -0.795366, -0.42392677), (0.51030886, -0.8266584, -0.23710926), (0.507904, -0.82613194, -0.24400723), (0.4332195, -0.795366, -0.42392677), (-0.22660871, 0.9542709, -0.19497545), (-0.34277552, 0.9019702, -0.26259232), (-0.35405648, 0.8973211, -0.26355043), (-0.22670445, 0.9541652, -0.19538136), (0.48858437, -0.8712163, 0.04761748), (0.29155582, -0.9454481, 0.1453376), (0.29136094, -0.94550854, 0.14533548), (0.48705128, -0.8719714, 0.049466327), (-0.34277552, 0.9019702, -0.26259232), (-0.55227417, 0.7406601, -0.3826433), (-0.56692636, 0.71996677, -0.40030283), (-0.35405648, 0.8973211, -0.26355043), (0.51030886, -0.8266584, -0.23710926), (0.48858437, -0.8712163, 0.04761748), (0.48705128, -0.8719714, 0.049466327), (0.507904, -0.82613194, -0.24400723), (0.29155582, -0.9454481, 0.1453376), (0.16095886, -0.9862922, 0.036331315), (0.16002688, -0.9866562, 0.03001661), (0.29136094, -0.94550854, 0.14533548), (-0.27741727, 0.9494058, -0.1472017), (-0.22660871, 0.9542709, -0.19497545), (-0.22670445, 0.9541652, -0.19538136), (-0.28062287, 0.9483889, -0.14767975), (0.22107993, 0.97293067, -0.06730251), (0.18180864, 0.97274226, -0.14393763), (0.18508214, 0.9720327, -0.14455788), (0.22102377, 0.97279584, -0.06940281), (-0.32384104, -0.9454155, 0.03628402), (-0.32850486, -0.941634, -0.07355261), (-0.3239954, -0.9431797, -0.07374982), (-0.3249297, -0.9450894, 0.035024248), (0.20251176, 0.7352142, -0.6468765), (0.107482746, 0.60845953, -0.7862724), (0.107482746, 0.60845953, -0.7862724), (0.20224386, 0.73488724, -0.6473315), (-0.29601535, -0.95320356, -0.061464015), (-0.25050345, -0.9660832, -0.06269871), (-0.25367782, -0.9652599, -0.062617615), (-0.29601535, -0.95320356, -0.061464015), (0.2671624, 0.94086623, -0.20831448), (0.33650905, 0.8638569, -0.37485054), (0.3338356, 0.86217153, -0.38106957), (0.2651522, 0.94169897, -0.2071168), (-0.17489958, -0.98453254, -0.010282578), (-0.18983127, -0.97768086, 0.09002442), (-0.18780869, -0.9782904, 0.08761178), (-0.17796992, -0.9839174, -0.015268077), (0.33650905, 0.8638569, -0.37485054), (0.20251176, 0.7352142, -0.6468765), (0.20224386, 0.73488724, -0.6473315), (0.3338356, 0.86217153, -0.38106957), (-0.25050345, -0.9660832, -0.06269871), (-0.17489958, -0.98453254, -0.010282578), (-0.17796992, -0.9839174, -0.015268077), (-0.25367782, -0.9652599, -0.062617615), (-0.18983127, -0.97768086, 0.09002442), (-0.32384104, -0.9454155, 0.03628402), (-0.3249297, -0.9450894, 0.035024248), (-0.18780869, -0.9782904, 0.08761178), (0.18180864, 0.97274226, -0.14393763), (0.2671624, 0.94086623, -0.20831448), (0.2651522, 0.94169897, -0.2071168), (0.18508214, 0.9720327, -0.14455788), (0.70789176, 0.70627207, -0.008304406), (0.77528024, 0.6316173, 0.00027641465), (0.77528095, 0.63161635, 0.00027640106), (0.7059904, 0.708169, -0.008614965), (-0.77801657, -0.627653, -0.027237842), (-0.77333945, -0.6181427, -0.14087477), (-0.7732711, -0.6184745, -0.13978945), (-0.7780029, -0.62766874, -0.02726714), (0.5118833, -0.85384417, -0.09447529), (0.38305897, -0.923024, -0.035951678), (0.38310447, -0.9230029, -0.036007542), (0.51779234, -0.8501232, -0.09582016), (-0.3759194, 0.92660564, 0.009300261), (-0.42282763, 0.9054046, -0.038199313), (-0.4220598, 0.9058382, -0.036368307), (-0.3758999, 0.9266137, 0.009292182), (0.18224312, -0.98319995, -0.010259997), (0.16434158, -0.9863473, -0.010521683), (0.16434133, -0.9863474, -0.010524246), (0.18222325, -0.9832036, -0.0102713425), (-0.15928346, 0.98712915, -0.014310325), (-0.07167787, 0.9883583, -0.13420168), (-0.06884539, 0.9880644, -0.13780054), (-0.15928072, 0.9871295, -0.014316718), (0.24039114, -0.968348, -0.06718776), (0.3698775, -0.9286952, -0.02675612), (0.36992788, -0.9286765, -0.026709054), (0.2455778, -0.9670929, -0.06650528), (-0.37631682, 0.92649066, -0.0008507187), (-0.35074982, 0.9331659, -0.07858701), (-0.35064903, 0.93305856, -0.08029315), (-0.37632093, 0.926489, -0.000850559), (0.9970303, 0.05979334, -0.048531458), (0.9979034, -0.06430085, -0.007354492), (0.9979041, -0.06429008, -0.007357615), (0.99669015, 0.06409985, -0.050000254), (-0.9973106, 0.07003, -0.021620141), (-0.99298626, 0.04962323, -0.10731136), (-0.9931271, 0.049640268, -0.105992034), (-0.9973113, 0.070014276, -0.021637436), (-0.4146792, -0.9090957, -0.039827194), (-0.53119534, -0.84723634, -0.004707718), (-0.5311938, -0.8472372, -0.004708019), (-0.4102286, -0.91105, -0.04123499), (0.53461766, 0.8449888, -0.013331878), (0.5194046, 0.84728664, -0.11101464), (0.5193607, 0.84746397, -0.109860405), (0.53461546, 0.84499025, -0.013333343), (-0.8208669, -0.5704494, -0.02766054), (-0.87985486, -0.47511902, -0.010830144), (-0.87984896, -0.47513005, -0.010834971), (-0.8187804, -0.5734277, -0.027916158), (0.8823785, 0.4703883, -0.011959696), (0.8753936, 0.47111833, -0.108321734), (0.8753801, 0.4714284, -0.10707432), (0.882378, 0.4703893, -0.011960287), (-0.32850486, -0.941634, -0.07355261), (-0.20611085, -0.97776425, -0.03866933), (-0.20603178, -0.9777847, -0.038573407), (-0.3239954, -0.9431797, -0.07374982), (0.19831942, 0.980112, 0.0070508476), (0.22107993, 0.97293067, -0.06730251), (0.22102377, 0.97279584, -0.06940281), (0.1983245, 0.980111, 0.007052331), (-0.99509716, -0.088149205, -0.04484922), (-0.99908733, 0.041267756, -0.011018884), (-0.99908775, 0.041255504, -0.011023739), (-0.9945427, -0.09360844, -0.046067376), (0.9987729, -0.047800463, -0.012950752), (0.9963062, -0.01730721, -0.08410987), (0.9964006, -0.017492745, -0.08294498), (0.99877304, -0.047798123, -0.012952177), (-0.6660459, 0.7419483, -0.07678265), (-0.55621743, 0.8305386, -0.028772859), (-0.55625033, 0.83051527, -0.028808355), (-0.67059237, 0.7377291, -0.07785606), (0.55037796, -0.83490825, 0.0035062616), (0.5760682, -0.8146865, -0.066568315), (0.57598823, -0.81488967, -0.06474988), (0.55036324, -0.834918, 0.003503811), (1.5402453e-7, 0, -1), (1.5402453e-7, 0, -1), (1.5402453e-7, 0, -1), (1.5402453e-7, 0, -1), (0, 0, -1), (0, 0, -1), (0, 0, -1), (0, 0, -1), (0, 0, -1), (0, 0, -1), (0, 0, -1), (0, 0, -1), (0, 0, -1), (0, 0, -1), (0, 0, -1), (0, 0, -1), (0.0000024277706, 0, -1), (0.0000024277706, 0, -1), (0.0000024277706, 0, -1), (0.0000024277706, 0, -1), (0, 0, -1), (0, 0, -1), (0, 0, -1), (0, 0, -1), (0.000001656609, 0, -1), (0.000001656609, 0, -1), (0.000001656609, 0, -1), (0.000001656609, 0, -1), (0, 0, -1), (0, 0, -1), (0, 0, -1), (0, 0, -1), (0, 0, -1), (0, 0, -1), (0, 0, -1), (0, 0, -1), (-0.000001936767, 0, -1), (-0.000001936767, 0, -1), (-0.000001936767, 0, -1), (-0.000001936767, 0, -1), (0.38305897, -0.923024, -0.035951678), (0.35334158, -0.9354944, -2.1603661e-7), (0.35334158, -0.9354944, -2.1603661e-7), (0.38310447, -0.9230029, -0.036007542), (-0.35333994, 0.935495, 3.2295938e-7), (-0.3759194, 0.92660564, 0.009300261), (-0.3758999, 0.9266137, 0.009292182), (-0.35333994, 0.935495, 3.2295938e-7), (-0.99908733, 0.041267756, -0.011018884), (-0.9976142, 0.06903555, -2.9952226e-8), (-0.9976142, 0.06903555, -2.9952226e-8), (-0.99908775, 0.041255504, -0.011023739), (0.9976142, -0.06903531, 2.4618426e-8), (0.9987729, -0.047800463, -0.012950752), (0.99877304, -0.047798123, -0.012952177), (0.9976142, -0.06903531, 2.4618426e-8), (-0.87985486, -0.47511902, -0.010830144), (-0.8929191, -0.45021728, 1.9892558e-7), (-0.8929191, -0.45021728, 1.9892558e-7), (-0.87984896, -0.47513005, -0.010834971), (0.8929192, 0.4502169, -1.715308e-7), (0.8823785, 0.4703883, -0.011959696), (0.882378, 0.4703893, -0.011960287), (0.8929192, 0.4502169, -1.715308e-7), (0.16434158, -0.9863473, -0.010521683), (0.16538475, -0.9862292, 2.9308746e-8), (0.16538475, -0.9862292, 2.9308746e-8), (0.16434133, -0.9863474, -0.010524246), (-0.16538438, 0.9862292, -4.3426354e-8), (-0.15928346, 0.98712915, -0.014310325), (-0.15928072, 0.9871295, -0.014316718), (-0.16538438, 0.9862292, -4.3426354e-8), (-0.55621743, 0.8305386, -0.028772859), (-0.5290832, 0.84856987, -2.7444992e-7), (-0.5290832, 0.84856987, -2.7444992e-7), (-0.55625033, 0.83051527, -0.028808355), (0.5290909, -0.8485652, -2.3405102e-7), (0.55037796, -0.83490825, 0.0035062616), (0.55036324, -0.834918, 0.003503811), (0.5290909, -0.8485652, -2.3405102e-7), (0.3698775, -0.9286952, -0.02675612), (0.39821562, -0.9172918, -6.973894e-8), (0.39821562, -0.9172918, -6.973894e-8), (0.36992788, -0.9286765, -0.026709054), (-0.39820382, 0.9172969, 6.3481014e-7), (-0.37631682, 0.92649066, -0.0008507187), (-0.37632093, 0.926489, -0.000850559), (-0.39820382, 0.9172969, 6.3481014e-7), (0.9979034, -0.06430085, -0.007354492), (0.99597484, -0.089633495, -1.36139136e-8), (0.99597484, -0.089633495, -1.36139136e-8), (0.9979041, -0.06429008, -0.007357615), (-0.99597484, 0.08963359, 5.8495253e-9), (-0.9973106, 0.07003, -0.021620141), (-0.9973113, 0.070014276, -0.021637436), (-0.99597484, 0.08963359, 5.8495253e-9), (0.77528024, 0.6316173, 0.00027641465), (0.790309, 0.61270845, -1.9207434e-7), (0.790309, 0.61270845, -1.9207434e-7), (0.77528095, 0.63161635, 0.00027640106), (-0.79030454, -0.61271423, -9.528087e-8), (-0.77801657, -0.627653, -0.027237842), (-0.7780029, -0.62766874, -0.02726714), (-0.79030454, -0.61271423, -9.528087e-8), (-0.20611085, -0.97776425, -0.03866933), (-0.17401738, -0.9847426, 2.0927837e-7), (-0.17401738, -0.9847426, 2.0927837e-7), (-0.20603178, -0.9777847, -0.038573407), (0.17402121, 0.9847419, -1.1669845e-8), (0.19831942, 0.980112, 0.0070508476), (0.1983245, 0.980111, 0.007052331), (0.17402121, 0.9847419, -1.1669845e-8), (-0.53119534, -0.84723634, -0.004707718), (-0.5544707, -0.83220327, 2.1065276e-7), (-0.5544707, -0.83220327, 2.1065276e-7), (-0.5311938, -0.8472372, -0.004708019), (0.5544706, 0.8322033, -2.1460829e-7), (0.53461766, 0.8449888, -0.013331878), (0.53461546, 0.84499025, -0.013333343), (0.5544706, 0.8322033, -2.1460829e-7)] (
                interpolation = "faceVarying"
            )
            point3f[] points = [(-1.2500667e-10, 0.16036825, 0.1835445), (-5.973966e-11, 0.16912824, 0.32134902), (0.11339748, 0.11339748, 0.1835445), (0.11959172, 0.11959172, 0.32134902), (0.16036825, -6.884912e-9, 0.1835445), (0.16912824, -7.33309e-9, 0.32134902), (0.11339748, -0.11339748, 0.1835445), (0.11959172, -0.11959172, 0.32134902), (-1.4144844e-8, -0.16036825, 0.1835445), (-1.48454e-8, -0.16912824, 0.32134902), (-0.11339749, -0.11339746, 0.1835445), (-0.11959174, -0.119591706, 0.32134902), (-0.16036825, 2.037379e-9, 0.1835445), (-0.16912824, 2.0765738e-9, 0.32134902), (-0.11339749, 0.113397464, 0.1835445), (-0.11959174, 0.11959171, 0.32134902), (-1.2757163e-9, 0.13322026, 0.065564156), (0.09420095, 0.09420095, 0.065564156), (0.13322026, -5.495967e-9, 0.065564156), (0.09420095, -0.09420095, 0.065564156), (-1.29222e-8, -0.13322026, 0.065564156), (-0.09420095, -0.09420093, 0.065564156), (-0.13322026, 1.9159108e-9, 0.065564156), (-0.09420095, 0.09420094, 0.065564156), (-3.0668454e-9, 0.107659474, 0.0014194967), (0.07612674, 0.07612675, 0.0014194967), (0.107659474, -4.4414636e-9, 0.0014194967), (0.07612674, -0.07612675, 0.0014194967), (-1.2478735e-8, -0.107659474, 0.0014194967), (-0.076126754, -0.076126724, 0.0014194967), (-0.107659474, 1.5483076e-9, 0.0014194967), (-0.076126754, 0.07612674, 0.0014194967), (0.110160135, 0.110160135, 0.32134902), (-3.672964e-10, 0.15578997, 0.32134902), (0.15578997, -6.754767e-9, 0.32134902), (0.110160135, -0.110160135, 0.32134902), (-1.3986887e-8, -0.15578997, 0.32134902), (-0.11016016, -0.11016011, 0.32134902), (-0.15578997, 1.912805e-9, 0.32134902), (-0.11016016, 0.11016013, 0.32134902), (0.10603019, 0.10603019, 0.28521544), (-6.504153e-10, 0.14994933, 0.28521544), (0.14994933, -6.4520465e-9, 0.28521544), (0.10603019, -0.10603019, 0.28521544), (-1.37594025e-8, -0.14994933, 0.28521544), (-0.10603021, -0.106030166, 0.28521544), (-0.14994933, 1.8905746e-9, 0.28521544), (-0.10603021, 0.10603017, 0.28521544), (0.07019119, 0.3540815, 0.9046598), (-0.07371818, 0.33558175, 0.9268906), (0.036057934, 0.17377436, 0.6747443), (-0.023970755, 0.17792849, 0.6747443), (0.0035600993, 0.53779876, 0.6931246), (-0.07052293, 0.56335527, 0.6868181), (-0.050912272, 0.5135461, 0.6276435), (0.2914569, 0.18631312, 0.9234082), (0.1750691, 0.31013143, 0.9494447), (0.110900566, 0.10282153, 0.65413254), (0.07788242, 0.15577625, 0.65413254), (0.38088122, 0.3438737, 0.7592343), (0.32735965, 0.41273597, 0.7887666), (0.32059792, 0.40023145, 0.6963993), (0.12139163, -0.33552906, 0.9234082), (0.23271976, -0.20714241, 0.9494447), (0.060510326, -0.15219991, 0.65413254), (0.112400234, -0.11196964, 0.65413254), (0.32287976, -0.44411036, 0.6756595), (0.4075458, -0.40867257, 0.66827327), (0.35156783, -0.38043964, 0.5989683), (-0.26551086, -0.11320324, 0.9073605), (-0.18677898, -0.23931625, 0.93013936), (-0.11462187, -0.062115263, 0.6717752), (-0.090964675, -0.12474733, 0.6717752), (-0.40812603, -0.2537716, 0.690609), (-0.40026474, -0.33368567, 0.68414676), (-0.3622598, -0.29413545, 0.6235129), (-0.2887386, 0.091924526, 0.91539323), (-0.28218296, -0.06389535, 0.93928856), (-0.13948716, 0.027947912, 0.6682622), (-0.12938432, -0.032290585, 0.6682622), (-0.44537064, 0.03613913, 0.76472056), (-0.44950926, -0.043797, 0.79182434), (-0.4373113, -0.039168548, 0.707053), (-0.11055212, -0.29804265, 0.92626643), (0.06336038, -0.2793308, 0.95306647), (-0.054989427, -0.14231722, 0.64909357), (0.015135491, -0.14862859, 0.64909357), (-0.03668381, -0.46927032, 0.7572778), (0.053081494, -0.4680668, 0.7876762), (0.047010962, -0.4547529, 0.6926), (0.06529592, 0.39857197, 0.90738887), (0.037051305, 0.5022849, 0.8329503), (-0.09010459, 0.51929367, 0.839705), (-0.08641888, 0.41252166, 0.9231462), (0.3526739, 0.22308628, 0.9224319), (0.40221104, 0.30451223, 0.8406641), (0.3282571, 0.41725627, 0.8463844), (0.2632166, 0.3749574, 0.93776613), (0.17105488, -0.38020837, 0.9274814), (0.26118246, -0.4387843, 0.85304266), (0.38898918, -0.35082003, 0.86091924), (0.31514847, -0.27360994, 0.9443602), (-0.30662873, -0.13784103, 0.91028315), (-0.38910922, -0.20676926, 0.83584446), (-0.35024536, -0.3330833, 0.842761), (-0.25474134, -0.2851998, 0.92620194), (-0.11861205, -0.37353814, 0.92522854), (-0.08352929, -0.46215707, 0.8434607), (0.056364957, -0.47175416, 0.8494059), (0.06184368, -0.39436266, 0.9407876), (-0.36001197, 0.10426857, 0.9144044), (-0.43578887, 0.079843156, 0.8461009), (-0.45327374, -0.046733025, 0.8515118), (-0.38906097, -0.05550767, 0.9278461), (-0.21568732, 0.23805434, 0.90571445), (-0.27141574, 0.102781184, 0.9281304), (-0.1007095, 0.11196831, 0.67388266), (-0.12552558, 0.07472176, 0.67388266), (-0.40987894, 0.27152953, 0.6924163), (-0.46928814, 0.219426, 0.6860572), (-0.41586658, 0.21170403, 0.6263893), (-0.09931396, 0.36195895, 0.91361916), (-0.22018196, 0.26738173, 0.9371338), (-0.053364363, 0.16873173, 0.6704257), (-0.103984684, 0.14320736, 0.6704257), (-0.23373128, 0.45525238, 0.76534724), (-0.3000378, 0.41273385, 0.79201907), (-0.28934264, 0.40563133, 0.70859843), (-0.25896648, 0.2568157, 0.9085906), (-0.36138326, 0.2832668, 0.8353379), (-0.44012946, 0.17976528, 0.8421442), (-0.34707776, 0.13083248, 0.92425567), (-0.13030314, 0.42604125, 0.91264623), (-0.19328293, 0.47264495, 0.845431), (-0.30454433, 0.41406143, 0.8507555), (-0.27474824, 0.35767275, 0.9258737), (0.28628695, 0.17019755, 0.92083615), (0.3212314, 0.008333681, 0.94620776), (0.13413899, 0.06886325, 0.65843713), (0.16086872, 0.007290545, 0.65843713), (0.5093185, 0.16853513, 0.6794144), (0.5650454, 0.09857879, 0.6722169), (0.5039883, 0.10069237, 0.6046818), (0.33601406, 0.18188733, 0.92395073), (0.45834976, 0.19102909, 0.8389951), (0.52510816, 0.060720928, 0.84670424), (0.4088414, 0.023993557, 0.9419342), (0.34153673, -0.033901647, 0.92626643), (0.27798074, -0.19686279, 0.95306647), (0.14461033, -0.032738417, 0.64909357), (0.13128568, -0.10813526, 0.64909357), (0.48747748, -0.1499909, 0.7572778), (0.46283326, -0.2363154, 0.7876762), (0.45157108, -0.22697331, 0.6926), (0.41651165, -0.045872092, 0.92522854), (0.4928668, -0.102915935, 0.8434607), (0.4655333, -0.24044915, 0.8494059), (0.38940355, -0.22549137, 0.9407876), (0.028811235, 0.13962829, 0.4164681), (-0.01831624, 0.14288962, 0.4164681), (0.08756887, 0.083924465, 0.4002862), (0.0616469, 0.12549828, 0.4002862), (0.048008375, -0.1162884, 0.4002862), (0.088746235, -0.08470432, 0.4002862), (-0.08948483, -0.04556452, 0.41413707), (-0.07091199, -0.09473585, 0.41413707), (-0.10900615, 0.025142496, 0.41137904), (-0.10107458, -0.022149693, 0.41137904), (-0.042668454, -0.108529665, 0.3963303), (0.012385392, -0.11348462, 0.3963303), (-0.07856248, 0.09110544, 0.41579175), (-0.098045155, 0.061863825, 0.41579175), (-0.04139264, 0.13566941, 0.41307756), (-0.081133775, 0.115630664, 0.41307756), (0.105812944, 0.057264414, 0.40366557), (0.12679799, 0.008924761, 0.40366557), (0.11403381, -0.022501277, 0.3963303), (0.10357287, -0.08169402, 0.3963303), (0.028811235, 0.13962829, 0.24769853), (-0.01831624, 0.14288962, 0.24769853), (0.08756887, 0.083924465, 0.23151661), (0.0616469, 0.12549828, 0.23151661), (0.048008375, -0.1162884, 0.23151661), (0.088746235, -0.08470432, 0.23151661), (-0.08948483, -0.04556452, 0.24536754), (-0.07091199, -0.09473585, 0.24536754), (-0.10900615, 0.025142496, 0.2426095), (-0.10107458, -0.022149693, 0.2426095), (-0.042668454, -0.108529665, 0.22756071), (0.012385392, -0.11348462, 0.22756071), (-0.07856248, 0.09110544, 0.2470222), (-0.098045155, 0.061863825, 0.2470222), (-0.04139264, 0.13566941, 0.24430802), (-0.081133775, 0.115630664, 0.24430802), (0.105812944, 0.057264414, 0.234896), (0.12679799, 0.008924761, 0.234896), (0.11403381, -0.022501277, 0.22756071), (0.10357287, -0.08169402, 0.22756071), (0.07130768, 0.35063097, 0.9117904), (-0.072600715, 0.33235875, 0.9341267), (0.03629134, 0.16634981, 0.6777139), (-0.023705121, 0.17053545, 0.67778885), (0.005635846, 0.54552263, 0.69294953), (-0.0683273, 0.5709969, 0.6859328), (-0.04839999, 0.5197465, 0.62325716), (0.28953278, 0.183544, 0.9306626), (0.17301823, 0.3072683, 0.95662755), (0.10496191, 0.09822324, 0.6568865), (0.07201701, 0.15116087, 0.65701205), (0.38726395, 0.34868342, 0.75888467), (0.3337341, 0.41755545, 0.78839695), (0.32660615, 0.4053893, 0.6952613), (0.11812933, -0.33355048, 0.9304394), (0.22945818, -0.20516457, 0.9564764), (0.055304114, -0.14675419, 0.65682256), (0.10720207, -0.10649046, 0.6567696), (0.32650366, -0.4512402, 0.6754866), (0.41102147, -0.41582343, 0.6673897), (0.35382158, -0.38673866, 0.59458196), (-0.26252714, -0.110626005, 0.9143214), (-0.1841954, -0.23691724, 0.93732023), (-0.10781502, -0.05879851, 0.67435634), (-0.0842445, -0.121387854, 0.6745231), (-0.4160108, -0.25511196, 0.69043416), (-0.40812504, -0.334882, 0.68326175), (-0.3689431, -0.29443794, 0.61912656), (-0.28539354, 0.09305737, 0.9225712), (-0.27852708, -0.062760554, 0.94631296), (-0.13202135, 0.029095408, 0.67089725), (-0.12187603, -0.03112795, 0.67076665), (-0.4533433, 0.03668944, 0.7643602), (-0.45748192, -0.043259874, 0.7914441), (-0.44522974, -0.03914462, 0.70591503), (-0.11158071, -0.29449248, 0.9333611), (0.062336665, -0.27552402, 0.96002764), (-0.0550468, -0.13468735, 0.6514972), (0.015070302, -0.14100288, 0.6515101), (-0.03670163, -0.47726223, 0.75692475), (0.05307661, -0.476058, 0.78730315), (0.047502186, -0.4626562, 0.69146204), (0.06637603, 0.4008948, 0.9149675), (0.038403153, 0.50861734, 0.8376482), (-0.08870854, 0.5258395, 0.84408665), (-0.085334376, 0.4154236, 0.93052167), (0.3557399, 0.22414027, 0.9297454), (0.408294, 0.30819228, 0.8443316), (0.3345234, 0.42115846, 0.849467), (0.26657486, 0.37623456, 0.9449138), (0.17181663, -0.38261542, 0.9350725), (0.26443353, -0.4443792, 0.8577464), (0.39234743, -0.35660094, 0.86531246), (0.3163028, -0.2764601, 0.9517454), (-0.30918422, -0.1378337, 0.9178639), (-0.39542583, -0.20818993, 0.8405433), (-0.35677385, -0.33455282, 0.84714466), (-0.25782663, -0.285431, 0.933579), (-0.11961623, -0.37661758, 0.9325432), (-0.084264666, -0.4692288, 0.8471275), (0.055695258, -0.47910714, 0.852485), (0.06084096, -0.39781198, 0.94793546), (-0.36301622, 0.1054627, 0.921722), (-0.4427974, 0.08104388, 0.84976625), (-0.4605691, -0.04557747, 0.85458416), (-0.3924385, -0.054290105, 0.934995), (-0.21200264, 0.23731115, 0.9127761), (-0.2678846, 0.10212321, 0.93527853), (-0.094031796, 0.108499944, 0.67659855), (-0.118850075, 0.07126829, 0.67662275), (-0.41556194, 0.27715713, 0.6922415), (-0.4748398, 0.22511734, 0.6851722), (-0.42000613, 0.21695957, 0.62200296), (-0.09684269, 0.3599491, 0.92095745), (-0.21750268, 0.26503327, 0.94429636), (-0.049339093, 0.16249058, 0.6733992), (-0.099957705, 0.13697255, 0.6734102), (-0.23792867, 0.46205312, 0.7649869), (-0.3042462, 0.41952676, 0.7916389), (-0.29393628, 0.41208124, 0.70746046), (-0.2604492, 0.25889707, 0.9161714), (-0.36621812, 0.28757286, 0.84003675), (-0.44512716, 0.18421513, 0.8465279), (-0.34906343, 0.13320535, 0.9316329), (-0.13108271, 0.4291785, 0.91996384), (-0.1963902, 0.4790409, 0.8490964), (-0.30785522, 0.42066416, 0.8538279), (-0.2757263, 0.36112744, 0.93302256), (0.29014277, 0.17036723, 0.91382885), (0.32485822, 0.008420598, 0.93907785), (0.14132914, 0.07117582, 0.6558008), (0.16804497, 0.009560877, 0.6557271), (0.5027314, 0.1639991, 0.67958945), (0.55857575, 0.093957305, 0.6731022), (0.49898276, 0.09625376, 0.60906816), (0.33418515, 0.18009333, 0.9163721), (0.45283225, 0.18764007, 0.8342972), (0.51940435, 0.05721911, 0.8423225), (0.40646803, 0.022002285, 0.93455875), (0.3444372, -0.035733, 0.9190394), (0.28113514, -0.19875786, 0.9459632), (0.15187153, -0.034754835, 0.6464094), (0.13850343, -0.11018415, 0.6463183), (0.47975895, -0.1479176, 0.7576308), (0.45511916, -0.23422989, 0.7880493), (0.4440716, -0.22443172, 0.693738), (0.4132767, -0.046035666, 0.91791385), (0.48584878, -0.101776004, 0.8397938), (0.4582611, -0.23917225, 0.8463267), (0.38581213, -0.22555679, 0.9336397), (0.028260194, 0.13166541, 0.4170028), (-0.01886728, 0.13492674, 0.417005), (0.080792055, 0.079698995, 0.40075102), (0.054870572, 0.12127329, 0.40076298), (0.04311931, -0.109982304, 0.40085799), (0.083856925, -0.07839773, 0.40085116), (-0.08201293, -0.042742413, 0.414587), (-0.063440815, -0.09191399, 0.41460192), (-0.10112968, 0.026463337, 0.41184193), (-0.09319811, -0.020828852, 0.41184047), (-0.0419531, -0.10058093, 0.39688256), (0.013100745, -0.10553589, 0.39688036), (-0.07191628, 0.08667733, 0.41625705), (-0.091398954, 0.057435706, 0.41625684), (-0.03779927, 0.12854272, 0.41361907), (-0.077540405, 0.10850398, 0.41362152), (0.11313811, 0.060444195, 0.40318826), (0.13412267, 0.012104545, 0.403179), (0.12189635, -0.023890723, 0.3958317), (0.11143444, -0.08308323, 0.39581588), (0.02825897, 0.13164759, 0.24769853), (-0.018868502, 0.13490891, 0.24769853), (0.08078058, 0.07969192, 0.23151661), (0.05485861, 0.12126573, 0.23151661), (0.043106858, -0.10996619, 0.23151661), (0.08384472, -0.078382105, 0.23151661), (-0.08200096, -0.042737775, 0.24536754), (-0.06342812, -0.09190911, 0.24536754), (-0.10111651, 0.026465533, 0.2426095), (-0.09318493, -0.020826655, 0.2426095), (-0.04195139, -0.100561894, 0.22756071), (0.013102453, -0.10551685, 0.22756071), (-0.071905054, 0.08666976, 0.2470222), (-0.09138773, 0.057428144, 0.2470222), (-0.03779097, 0.12852612, 0.24430802), (-0.077532105, 0.108487375, 0.24430802), (0.11315106, 0.060450055, 0.234896), (0.13413611, 0.012110405, 0.234896), (0.12191149, -0.023893407, 0.22756071), (0.11145055, -0.083086155, 0.22756071)]
            uniform token subdivisionScheme = "none"
            uniform token subsetFamily:materialBind:familyType = "nonOverlapping"
            custom string userProperties:blender:data_name = "Cylinder.015"

            def GeomSubset "Grey" (
                prepend apiSchemas = ["MaterialBindingAPI"]
            )
            {
                uniform token elementType = "face"
                uniform token familyName = "materialBind"
                int[] indices = [0, 1, 2, 3, 4, 5, 6, 7, 8, 9, 10, 11, 12, 13, 14, 15, 16, 17, 18, 19, 20, 21, 22, 23, 24, 25, 26, 27, 28, 29, 30, 31, 32, 33, 35, 36, 37, 38, 39, 40, 41]
                rel material:binding = </root/_materials/Grey>
            }

            def GeomSubset "Brown" (
                prepend apiSchemas = ["MaterialBindingAPI"]
            )
            {
                uniform token elementType = "face"
                uniform token familyName = "materialBind"
                int[] indices = [34]
                rel material:binding = </root/_materials/Brown>
            }

            def GeomSubset "Plant_Green" (
                prepend apiSchemas = ["MaterialBindingAPI"]
            )
            {
                uniform token elementType = "face"
                uniform token familyName = "materialBind"
                int[] indices = [42, 43, 44, 45, 46, 47, 48, 49, 50, 51, 52, 53, 54, 55, 56, 57, 58, 59, 60, 61, 62, 63, 64, 65, 66, 67, 68, 69, 70, 71, 72, 73, 74, 75, 76, 77, 78, 79, 80, 81, 82, 83, 84, 85, 86, 87, 88, 89, 90, 91, 92, 93, 94, 95, 96, 97, 98, 99, 100, 101, 102, 103, 104, 105, 106, 107, 108, 109, 110, 111, 112, 113, 114, 115, 116, 117, 118, 119, 120, 121, 122, 123, 124, 125, 126, 127, 128, 129, 130, 131, 132, 133, 134, 135, 136, 137, 138, 139, 140, 141, 142, 143, 144, 145, 146, 147, 148, 149, 150, 151, 152, 153, 154, 155, 156, 157, 158, 159, 160, 161, 162, 163, 164, 165, 166, 167, 168, 169, 170, 171, 172, 173, 174, 175, 176, 177, 178, 179, 180, 181, 182, 183, 184, 185, 186, 187, 188, 189, 190, 191, 192, 193, 194, 195, 196, 197, 198, 199, 200, 201, 202, 203, 204, 205, 206, 207, 208, 209, 210, 211, 212, 213, 214, 215, 216, 217, 218, 219, 220, 221, 222, 223, 224, 225, 226, 227, 228, 229, 230, 231, 232, 233, 234, 235, 236, 237, 238, 239, 240, 241, 242, 243, 244, 245, 246, 247, 248, 249, 250, 251, 252, 253, 254, 255, 256, 257, 258, 259, 260, 261, 262, 263, 264, 265, 266, 267, 268, 269, 270, 271, 272, 273, 274, 275, 276, 277, 278, 279, 280, 281, 282, 283, 284, 285, 286, 287, 288, 289, 290, 291, 292, 293, 294, 295, 296, 297, 298, 299, 300, 301, 302, 303, 304, 305, 306, 307, 308, 309, 310, 311, 312, 313, 314, 315, 316, 317, 318, 319, 320, 321, 322, 323, 324, 325, 326, 327, 328, 329, 330, 331]
                rel material:binding = </root/_materials/Plant_Green>
            }
        }
    }

    def Scope "_materials"
    {
        def Material "Grey"
        {
            token outputs:surface.connect = </root/_materials/Grey/Principled_BSDF.outputs:surface>
            custom string userProperties:blender:data_name = "Grey"

            def Shader "Principled_BSDF"
            {
                uniform token info:id = "UsdPreviewSurface"
                float inputs:clearcoat = 0
                float inputs:clearcoatRoughness = 0.03
                color3f inputs:diffuseColor = (0.2597949, 0.2571323, 0.24924028)
                float inputs:ior = 1.5
                float inputs:metallic = 0
                float inputs:opacity = 1
                float inputs:roughness = 0.6900348
                float inputs:specular = 0.5
                token outputs:surface
            }
        }

        def Material "Brown"
        {
            token outputs:surface.connect = </root/_materials/Brown/Principled_BSDF.outputs:surface>
            custom string userProperties:blender:data_name = "Brown"

            def Shader "Principled_BSDF"
            {
                uniform token info:id = "UsdPreviewSurface"
                float inputs:clearcoat = 0
                float inputs:clearcoatRoughness = 0.03
                color3f inputs:diffuseColor = (0.114435375, 0.08865559, 0.056128494)
                float inputs:ior = 1.5
                float inputs:metallic = 0
                float inputs:opacity = 1
                float inputs:roughness = 0.6900348
                float inputs:specular = 0.5
                token outputs:surface
            }
        }

        def Material "Plant_Green"
        {
            token outputs:surface.connect = </root/_materials/Plant_Green/Principled_BSDF.outputs:surface>
            custom string userProperties:blender:data_name = "Plant_Green"

            def Shader "Principled_BSDF"
            {
                uniform token info:id = "UsdPreviewSurface"
                float inputs:clearcoat = 0
                float inputs:clearcoatRoughness = 0.03
                color3f inputs:diffuseColor = (0.24706675, 0.39310935, 0.053374488)
                float inputs:ior = 1.5
                float inputs:metallic = 0
                float inputs:opacity = 1
                float inputs:roughness = 0.6900348
                float inputs:specular = 0.5
                token outputs:surface
            }
        }
    }
}

