#usda 1.0
(
    defaultPrim = "root"
    doc = "Blender v5.1.2"
    metersPerUnit = 1
    upAxis = "Y"
)

def Xform "root" (
    customData = {
        dictionary Blender = {
            bool generated = 1
        }
    }
)
{
    float3 xformOp:rotateXYZ = (-90, -0, 0)
    uniform token[] xformOpOrder = ["xformOp:rotateXYZ"]

    def Xform "Light_Floor4"
    {
        custom string userProperties:blender:object_name = "Light_Floor4"

        def Mesh "Cylinder_006" (
            active = true
            prepend apiSchemas = ["MaterialBindingAPI"]
        )
        {
            uniform bool doubleSided = 1
            float3[] extent = [(-0.17536421, -0.17536658, -3.6857525e-8), (0.17536893, 0.17536658, 0.76315004)]
            int[] faceVertexCounts = [4, 4, 4, 4, 4, 4, 4, 4, 4, 4, 4, 4, 4, 4, 4, 4, 4, 4, 4, 4, 4, 4, 4, 4, 4, 4, 4, 4, 4, 4, 4, 4, 4, 4, 4, 4, 4, 4, 4, 4, 4, 4, 4, 4, 4, 4, 4, 4, 4, 8, 4, 4, 4, 4, 4, 4, 4, 4, 4, 4, 4, 4, 4, 4, 4, 4, 4, 4, 4, 4, 4, 4, 4, 4, 4, 4, 4, 4, 4, 4, 4, 4, 4, 4, 4, 4, 4, 4, 4, 4, 4, 4, 4, 4, 4, 4, 4, 4, 8, 4, 4, 4, 4, 4, 4, 4, 4, 4, 4, 4, 4, 4, 4, 4, 4, 4, 4, 4]
            int[] faceVertexIndices = [0, 1, 3, 2, 2, 3, 5, 4, 4, 5, 7, 6, 6, 7, 9, 8, 8, 9, 11, 10, 10, 11, 13, 12, 12, 13, 15, 14, 14, 15, 17, 16, 21, 24, 25, 22, 16, 17, 19, 18, 18, 19, 1, 0, 20, 21, 22, 23, 24, 26, 27, 25, 26, 28, 29, 27, 28, 30, 31, 29, 30, 32, 33, 31, 32, 34, 35, 33, 34, 36, 37, 35, 36, 38, 39, 37, 38, 20, 23, 39, 15, 35, 37, 17, 1, 23, 22, 3, 12, 32, 30, 10, 11, 31, 33, 13, 8, 28, 26, 6, 18, 38, 36, 16, 7, 27, 29, 9, 17, 37, 39, 19, 4, 24, 21, 2, 14, 34, 32, 12, 3, 22, 25, 5, 13, 33, 35, 15, 10, 30, 28, 8, 0, 20, 38, 18, 9, 29, 31, 11, 19, 39, 23, 1, 6, 26, 24, 4, 16, 36, 34, 14, 2, 21, 20, 0, 5, 25, 27, 7, 40, 41, 43, 42, 42, 43, 45, 44, 44, 45, 47, 46, 46, 47, 49, 48, 48, 49, 51, 50, 50, 51, 53, 52, 49, 47, 59, 60, 52, 53, 55, 54, 54, 55, 41, 40, 40, 42, 44, 46, 48, 50, 52, 54, 59, 58, 66, 67, 55, 53, 62, 63, 45, 43, 56, 58, 51, 49, 60, 61, 41, 55, 63, 57, 43, 41, 57, 56, 47, 45, 58, 59, 53, 51, 61, 62, 71, 70, 78, 79, 56, 57, 65, 64, 57, 63, 71, 65, 62, 61, 69, 70, 60, 59, 67, 68, 58, 56, 64, 66, 63, 62, 70, 71, 61, 60, 68, 69, 76, 75, 83, 84, 69, 68, 76, 77, 67, 66, 74, 75, 64, 65, 73, 72, 65, 71, 79, 73, 70, 69, 77, 78, 68, 67, 75, 76, 66, 64, 72, 74, 81, 87, 95, 89, 74, 72, 80, 82, 79, 78, 86, 87, 77, 76, 84, 85, 75, 74, 82, 83, 72, 73, 81, 80, 73, 79, 87, 81, 78, 77, 85, 86, 93, 92, 100, 101, 86, 85, 93, 94, 84, 83, 91, 92, 82, 80, 88, 90, 87, 86, 94, 95, 85, 84, 92, 93, 83, 82, 90, 91, 80, 81, 89, 88, 103, 102, 110, 111, 91, 90, 98, 99, 88, 89, 97, 96, 89, 95, 103, 97, 94, 93, 101, 102, 92, 91, 99, 100, 90, 88, 96, 98, 95, 94, 102, 103, 104, 105, 111, 110, 109, 108, 107, 106, 101, 100, 108, 109, 99, 98, 106, 107, 96, 97, 105, 104, 97, 103, 111, 105, 102, 101, 109, 110, 100, 99, 107, 108, 98, 96, 104, 106, 112, 113, 115, 114, 114, 115, 119, 118, 118, 119, 117, 116, 116, 117, 113, 112, 114, 118, 116, 112, 119, 115, 113, 117, 120, 121, 123, 122, 122, 123, 127, 126, 126, 127, 125, 124, 124, 125, 121, 120, 122, 126, 124, 120, 127, 123, 121, 125]
            rel material:binding = </root/_materials/White>
            normal3f[] normals = [(1.7062445e-7, 0.9994953, 0.03176639), (1.6850758e-7, 0.9994953, 0.031766392), (0.5874886, 0.8086087, 0.031766362), (0.5874886, 0.8086087, 0.031766366), (0.5874886, 0.8086087, 0.031766366), (0.5874886, 0.8086087, 0.031766362), (0.95057654, 0.30886102, 0.03176636), (0.95057654, 0.30886105, 0.031766362), (0.95057654, 0.30886105, 0.031766362), (0.95057654, 0.30886102, 0.03176636), (0.95057654, -0.30886108, 0.031766366), (0.9505765, -0.30886105, 0.031766366), (0.9505765, -0.30886105, 0.031766366), (0.95057654, -0.30886108, 0.031766366), (0.58748853, -0.8086088, 0.031766385), (0.58748853, -0.8086087, 0.031766385), (0.58748853, -0.8086087, 0.031766385), (0.58748853, -0.8086088, 0.031766385), (-1.1894653e-7, -0.9994953, 0.031766355), (-1.2044079e-7, -0.9994953, 0.031766355), (-1.2044079e-7, -0.9994953, 0.031766355), (-1.1894653e-7, -0.9994953, 0.031766355), (-0.5874886, -0.8086087, 0.031766333), (-0.58748865, -0.8086087, 0.03176634), (-0.58748865, -0.8086087, 0.03176634), (-0.5874886, -0.8086087, 0.031766333), (-0.95057654, -0.30886108, 0.031766355), (-0.95057654, -0.30886108, 0.031766355), (-0.95057654, -0.30886108, 0.031766355), (-0.95057654, -0.30886108, 0.031766355), (-0.95057654, 0.30886108, 0.031766362), (-0.95057654, 0.3088611, 0.031766366), (-0.58754396, -0.8086848, -0.028652893), (-0.95066607, -0.3088901, -0.028652836), (-0.95066607, -0.3088901, -0.028652837), (-0.5875439, -0.8086848, -0.028652893), (-0.95057654, 0.3088611, 0.031766366), (-0.95057654, 0.30886108, 0.031766362), (-0.5874884, 0.8086088, 0.031766392), (-0.5874885, 0.80860883, 0.031766396), (-0.5874885, 0.80860883, 0.031766396), (-0.5874884, 0.8086088, 0.031766392), (1.6850758e-7, 0.9994953, 0.031766392), (1.7062445e-7, 0.9994953, 0.03176639), (-1.5045967e-7, -0.9995894, -0.028652888), (-0.58754396, -0.8086848, -0.028652893), (-0.5875439, -0.8086848, -0.028652893), (-1.3885663e-7, -0.99958944, -0.028652893), (-0.95066607, -0.3088901, -0.028652836), (-0.95066607, 0.30889016, -0.028652837), (-0.95066607, 0.30889016, -0.028652837), (-0.95066607, -0.3088901, -0.028652837), (-0.95066607, 0.30889016, -0.028652837), (-0.58754385, 0.80868495, -0.028652893), (-0.5875439, 0.80868495, -0.028652897), (-0.95066607, 0.30889016, -0.028652837), (-0.58754385, 0.80868495, -0.028652893), (1.1033711e-7, 0.9995894, -0.028652916), (1.1901998e-7, 0.99958944, -0.028652918), (-0.5875439, 0.80868495, -0.028652897), (1.1033711e-7, 0.9995894, -0.028652916), (0.5875441, 0.80868477, -0.02865288), (0.5875441, 0.8086848, -0.028652882), (1.1901998e-7, 0.99958944, -0.028652918), (0.5875441, 0.80868477, -0.02865288), (0.95066607, 0.30889004, -0.028652845), (0.95066607, 0.30889007, -0.028652845), (0.5875441, 0.8086848, -0.028652882), (0.95066607, 0.30889004, -0.028652845), (0.95066607, -0.30889016, -0.02865285), (0.95066607, -0.30889016, -0.02865285), (0.95066607, 0.30889007, -0.028652845), (0.95066607, -0.30889016, -0.02865285), (0.5875437, -0.80868495, -0.028652858), (0.58754385, -0.80868495, -0.028652862), (0.95066607, -0.30889016, -0.02865285), (0.5875437, -0.80868495, -0.028652858), (-1.5045967e-7, -0.9995894, -0.028652888), (-1.3885663e-7, -0.99958944, -0.028652893), (0.58754385, -0.80868495, -0.028652862), (-0.0589521, -0.019154511, 0.99807703), (-0.058952104, -0.019154508, 0.99807703), (-0.05895005, 0.019154523, 0.99807715), (-0.058950044, 0.019154526, 0.99807715), (3.4749496e-7, 0.061985318, 0.99807703), (3.4998988e-7, 0.061985318, 0.9980771), (0.03643516, 0.050147142, 0.99807703), (0.036435165, 0.050147146, 0.99807703), (-0.026790699, -0.036871754, -0.9989608), (-0.026790712, -0.036871754, -0.99896085), (-3.400196e-7, -0.045575976, -0.99896085), (-3.3864964e-7, -0.045575976, -0.9989609), (-3.7565022e-7, -0.06198524, 0.99807703), (-3.7470667e-7, -0.06198524, 0.9980771), (-0.03643553, -0.050147135, 0.99807703), (-0.03643552, -0.050147146, 0.998077), (0.02678897, -0.036871724, -0.9989609), (0.026788974, -0.036871716, -0.99896085), (0.043344796, -0.014083755, -0.9989609), (0.0433448, -0.014083748, -0.9989609), (-0.02678937, 0.036871742, -0.9989609), (-0.026789375, 0.036871735, -0.99896085), (-0.0433455, 0.014083747, -0.99896085), (-0.043345504, 0.014083745, -0.9989609), (0.058951955, -0.019154536, 0.99807703), (0.058951955, -0.019154524, 0.99807703), (0.036433127, -0.05014714, 0.9980771), (0.036433127, -0.050147142, 0.99807715), (-0.058950044, 0.019154526, 0.99807715), (-0.05895005, 0.019154523, 0.99807715), (-0.036433127, 0.05014721, 0.9980771), (-0.036433123, 0.05014721, 0.99807715), (0.043345865, 0.014083748, -0.9989609), (0.043345857, 0.014083754, -0.99896085), (0.02679005, 0.03687175, -0.99896085), (0.026790047, 0.036871746, -0.9989608), (-0.043346338, -0.014083747, -0.9989608), (-0.04334634, -0.014083746, -0.99896085), (-0.026790712, -0.036871754, -0.99896085), (-0.026790699, -0.036871754, -0.9989608), (0.036435165, 0.050147146, 0.99807703), (0.03643516, 0.050147142, 0.99807703), (0.058953606, 0.019154513, 0.998077), (0.058953606, 0.019154513, 0.998077), (-0.03643552, -0.050147146, 0.998077), (-0.03643553, -0.050147135, 0.99807703), (-0.058952104, -0.019154508, 0.99807703), (-0.0589521, -0.019154511, 0.99807703), (-3.3864964e-7, -0.045575976, -0.9989609), (-3.400196e-7, -0.045575976, -0.99896085), (0.026788974, -0.036871716, -0.99896085), (0.02678897, -0.036871724, -0.9989609), (1.5932095e-7, 0.045575988, -0.9989609), (1.6259659e-7, 0.04557598, -0.99896085), (-0.026789375, 0.036871735, -0.99896085), (-0.02678937, 0.036871742, -0.9989609), (0.036433127, -0.050147142, 0.99807715), (0.036433127, -0.05014714, 0.9980771), (-3.7470667e-7, -0.06198524, 0.9980771), (-3.7565022e-7, -0.06198524, 0.99807703), (-0.036433123, 0.05014721, 0.99807715), (-0.036433127, 0.05014721, 0.9980771), (3.4998988e-7, 0.061985318, 0.9980771), (3.4749496e-7, 0.061985318, 0.99807703), (0.0433448, -0.014083748, -0.9989609), (0.043344796, -0.014083755, -0.9989609), (0.043345857, 0.014083754, -0.99896085), (0.043345865, 0.014083748, -0.9989609), (-0.043345504, 0.014083745, -0.9989609), (-0.0433455, 0.014083747, -0.99896085), (-0.04334634, -0.014083746, -0.99896085), (-0.043346338, -0.014083747, -0.9989608), (0.026790047, 0.036871746, -0.9989608), (0.02679005, 0.03687175, -0.99896085), (1.6259659e-7, 0.04557598, -0.99896085), (1.5932095e-7, 0.045575988, -0.9989609), (0.058953606, 0.019154513, 0.998077), (0.058953606, 0.019154513, 0.998077), (0.058951955, -0.019154524, 0.99807703), (0.058951955, -0.019154536, 0.99807703), (4.1071907e-8, 1, 0), (4.1071907e-8, 1, 0), (0.7071068, 0.7071067, 0), (0.7071068, 0.7071067, 0), (0.7071068, 0.7071067, 0), (0.7071068, 0.7071067, 0), (1, 0, 0), (1, 0, 0), (1, 0, 0), (1, 0, 0), (0.70710677, -0.70710677, 0), (0.70710677, -0.70710677, 0), (0.70710677, -0.70710677, 0), (0.70710677, -0.70710677, 0), (-1.4375169e-7, -1, 0), (-1.4375169e-7, -1, 0), (-1.4375169e-7, -1, 0), (-1.4375169e-7, -1, 0), (-0.7071069, -0.70710665, 0), (-0.7071069, -0.70710665, 0), (-0.7071069, -0.70710665, 0), (-0.7071069, -0.70710665, 0), (-1, -6.160786e-8, 0), (-1, -6.160786e-8, 0), (-6.0691164e-8, -0.62857455, 0.77774936), (0.44446927, -0.44446927, 0.7777493), (0.37981623, -0.37981623, 0.8434923), (-5.003203e-8, -0.5371412, 0.84349227), (-1, -6.160786e-8, 0), (-1, -6.160786e-8, 0), (-0.7071068, 0.70710665, 0), (-0.7071068, 0.70710665, 0), (-0.7071068, 0.70710665, 0), (-0.7071068, 0.70710665, 0), (4.1071907e-8, 1, 0), (4.1071907e-8, 1, 0), (0, 0, -1), (0, 0, -1), (0, 0, -1), (0, 0, -1), (0, 0, -1), (0, 0, -1), (0, 0, -1), (0, 0, -1), (0.37981623, -0.37981623, 0.8434923), (0.5371412, -5.0032027e-9, 0.84349227), (0.3853788, -1.5622955e-8, 0.92275846), (0.272504, -0.27250403, 0.9227584), (-0.44446948, 0.44446942, 0.77774924), (-0.6285747, -2.4276462e-8, 0.7777492), (-0.5371413, -1.751121e-8, 0.8434922), (-0.37981626, 0.37981623, 0.84349227), (0.62857455, 0, 0.77774924), (0.44446933, 0.44446927, 0.77774936), (0.37981623, 0.37981617, 0.8434924), (0.5371412, -5.0032027e-9, 0.84349227), (-0.44446954, -0.44446933, 0.77774924), (-6.0691164e-8, -0.62857455, 0.77774936), (-5.003203e-8, -0.5371412, 0.84349227), (-0.37981635, -0.37981617, 0.84349227), (-4.8552927e-8, 0.62857455, 0.7777493), (-0.44446948, 0.44446942, 0.77774924), (-0.37981626, 0.37981623, 0.84349227), (-2.5016014e-8, 0.53714126, 0.84349227), (0.44446933, 0.44446927, 0.77774936), (-4.8552927e-8, 0.62857455, 0.7777493), (-2.5016014e-8, 0.53714126, 0.84349227), (0.37981623, 0.37981617, 0.8434924), (0.44446927, -0.44446927, 0.7777493), (0.62857455, 0, 0.77774924), (0.5371412, -5.0032027e-9, 0.84349227), (0.37981623, -0.37981623, 0.8434923), (-0.6285747, -2.4276462e-8, 0.7777492), (-0.44446954, -0.44446933, 0.77774924), (-0.37981635, -0.37981617, 0.84349227), (-0.5371413, -1.751121e-8, 0.8434922), (-0.53015953, 0.5301595, -0.6617113), (-0.7497589, -3.4164557e-8, -0.66171116), (-0.74975884, -3.5603126e-8, -0.66171116), (-0.53015953, 0.5301594, -0.6617113), (0.37981623, 0.37981617, 0.8434924), (-2.5016014e-8, 0.53714126, 0.84349227), (3.1245907e-8, 0.38537884, 0.9227584), (0.27250403, 0.272504, 0.9227584), (-2.5016014e-8, 0.53714126, 0.84349227), (-0.37981626, 0.37981623, 0.84349227), (-0.272504, 0.27250394, 0.92275846), (3.1245907e-8, 0.38537884, 0.9227584), (-0.5371413, -1.751121e-8, 0.8434922), (-0.37981635, -0.37981617, 0.84349227), (-0.272504, -0.2725039, 0.92275846), (-0.38537878, -1.5622957e-8, 0.92275846), (-5.003203e-8, -0.5371412, 0.84349227), (0.37981623, -0.37981623, 0.8434923), (0.272504, -0.27250403, 0.9227584), (0, -0.38537878, 0.92275846), (0.5371412, -5.0032027e-9, 0.84349227), (0.37981623, 0.37981617, 0.8434924), (0.27250403, 0.272504, 0.9227584), (0.3853788, -1.5622955e-8, 0.92275846), (-0.37981626, 0.37981623, 0.84349227), (-0.5371413, -1.751121e-8, 0.8434922), (-0.38537878, -1.5622957e-8, 0.92275846), (-0.272504, 0.27250394, 0.92275846), (-0.37981635, -0.37981617, 0.84349227), (-5.003203e-8, -0.5371412, 0.84349227), (0, -0.38537878, 0.92275846), (-0.272504, -0.2725039, 0.92275846), (4.77674e-8, -0.72055715, 0.6933955), (0.50951093, -0.50951093, 0.69339544), (0.3933984, -0.39339834, 0.8309485), (1.04686935e-8, -0.5563493, 0.83094853), (-0.5301597, -0.5301596, -0.6617111), (-1.1957594e-7, -0.7497588, -0.6617112), (-1.4241252e-7, -0.7497588, -0.6617112), (-0.5301597, -0.5301595, -0.66171104), (0.53015953, -0.53015953, -0.6617113), (0.7497588, 0, -0.6617113), (0.74975866, 0, -0.6617113), (0.5301595, -0.5301595, -0.6617113), (0.5301595, 0.5301595, -0.66171134), (1.7082277e-8, 0.7497587, -0.66171134), (0, 0.7497587, -0.66171134), (0.5301595, 0.5301595, -0.66171134), (1.7082277e-8, 0.7497587, -0.66171134), (-0.53015953, 0.5301595, -0.6617113), (-0.53015953, 0.5301594, -0.6617113), (0, 0.7497587, -0.66171134), (-0.7497589, -3.4164557e-8, -0.66171116), (-0.5301597, -0.5301596, -0.6617111), (-0.5301597, -0.5301595, -0.66171104), (-0.74975884, -3.5603126e-8, -0.66171116), (-1.1957594e-7, -0.7497588, -0.6617112), (0.53015953, -0.53015953, -0.6617113), (0.5301595, -0.5301595, -0.6617113), (-1.4241252e-7, -0.7497588, -0.6617112), (0.7497588, 0, -0.6617113), (0.5301595, 0.5301595, -0.66171134), (0.5301595, 0.5301595, -0.66171134), (0.74975866, 0, -0.6617113), (2.0937387e-8, 0.5563493, 0.83094853), (-0.39339843, 0.39339826, 0.8309486), (-0.26379886, 0.2637988, 0.92780405), (2.390722e-8, 0.3730679, 0.9278041), (0.72055715, -2.3883697e-8, 0.6933955), (0.509511, 0.5095109, 0.6933955), (0.39339834, 0.39339828, 0.83094853), (0.5563493, -2.0937387e-8, 0.8309486), (-0.50951093, 0.50951076, 0.69339556), (-0.72055715, -7.16511e-8, 0.69339556), (-0.5563493, -3.402325e-8, 0.83094853), (-0.39339843, 0.39339826, 0.8309486), (-0.5095109, -0.5095108, 0.6933956), (4.77674e-8, -0.72055715, 0.6933955), (1.04686935e-8, -0.5563493, 0.83094853), (-0.39339843, -0.39339826, 0.8309486), (0.50951093, -0.50951093, 0.69339544), (0.72055715, -2.3883697e-8, 0.6933955), (0.5563493, -2.0937387e-8, 0.8309486), (0.3933984, -0.39339834, 0.8309485), (0.509511, 0.5095109, 0.6933955), (1.194185e-8, 0.72055715, 0.6933955), (2.0937387e-8, 0.5563493, 0.83094853), (0.39339834, 0.39339828, 0.83094853), (1.194185e-8, 0.72055715, 0.6933955), (-0.50951093, 0.50951076, 0.69339556), (-0.39339843, 0.39339826, 0.8309486), (2.0937387e-8, 0.5563493, 0.83094853), (-0.72055715, -7.16511e-8, 0.69339556), (-0.5095109, -0.5095108, 0.6933956), (-0.39339843, -0.39339826, 0.8309486), (-0.5563493, -3.402325e-8, 0.83094853), (-0.26379886, -0.26379886, 0.92780405), (2.8688662e-8, -0.37306795, 0.92780405), (7.23128e-8, -0.53614354, 0.8441268), (-0.37911057, -0.37911075, 0.8441268), (-0.5563493, -3.402325e-8, 0.83094853), (-0.39339843, -0.39339826, 0.8309486), (-0.26379886, -0.26379886, 0.92780405), (-0.3730679, -1.9125775e-8, 0.92780405), (1.04686935e-8, -0.5563493, 0.83094853), (0.3933984, -0.39339834, 0.8309485), (0.26379892, -0.26379886, 0.927804), (2.8688662e-8, -0.37306795, 0.92780405), (0.5563493, -2.0937387e-8, 0.8309486), (0.39339834, 0.39339828, 0.83094853), (0.26379877, 0.26379883, 0.9278041), (0.3730679, 4.781444e-9, 0.9278041), (-0.39339843, 0.39339826, 0.8309486), (-0.5563493, -3.402325e-8, 0.83094853), (-0.3730679, -1.9125775e-8, 0.92780405), (-0.26379886, 0.2637988, 0.92780405), (-0.39339843, -0.39339826, 0.8309486), (1.04686935e-8, -0.5563493, 0.83094853), (2.8688662e-8, -0.37306795, 0.92780405), (-0.26379886, -0.26379886, 0.92780405), (0.3933984, -0.39339834, 0.8309485), (0.5563493, -2.0937387e-8, 0.8309486), (0.3730679, 4.781444e-9, 0.9278041), (0.26379892, -0.26379886, 0.927804), (0.39339834, 0.39339828, 0.83094853), (2.0937387e-8, 0.5563493, 0.83094853), (2.390722e-8, 0.3730679, 0.9278041), (0.26379877, 0.26379883, 0.9278041), (-0.7071068, 0.7071067, 0), (-1, -4.1071896e-8, 0), (-1, -4.1071896e-8, 0), (-0.7071068, 0.7071067, 0), (0.26379892, -0.26379886, 0.927804), (0.3730679, 4.781444e-9, 0.9278041), (0.5361434, 3.213902e-8, 0.84412694), (0.37911075, -0.37911075, 0.8441268), (0.26379877, 0.26379883, 0.9278041), (2.390722e-8, 0.3730679, 0.9278041), (2.4104269e-8, 0.5361434, 0.8441269), (0.37911054, 0.37911066, 0.84412694), (2.390722e-8, 0.3730679, 0.9278041), (-0.26379886, 0.2637988, 0.92780405), (-0.37911066, 0.3791107, 0.8441268), (2.4104269e-8, 0.5361434, 0.8441269), (-0.3730679, -1.9125775e-8, 0.92780405), (-0.26379886, -0.26379886, 0.92780405), (-0.37911057, -0.37911075, 0.8441268), (-0.53614336, -3.2139027e-8, 0.84412694), (2.8688662e-8, -0.37306795, 0.92780405), (0.26379892, -0.26379886, 0.927804), (0.37911075, -0.37911075, 0.8441268), (7.23128e-8, -0.53614354, 0.8441268), (0.3730679, 4.781444e-9, 0.9278041), (0.26379877, 0.26379883, 0.9278041), (0.37911054, 0.37911066, 0.84412694), (0.5361434, 3.213902e-8, 0.84412694), (-0.26379886, 0.2637988, 0.92780405), (-0.3730679, -1.9125775e-8, 0.92780405), (-0.53614336, -3.2139027e-8, 0.84412694), (-0.37911066, 0.3791107, 0.8441268), (9.2848916e-7, 0, 1), (9.2848916e-7, 0, 1), (9.2848916e-7, 0, 1), (9.2848916e-7, 0, 1), (9.2848916e-7, 0, 1), (9.2848916e-7, 0, 1), (9.2848916e-7, 0, 1), (9.2848916e-7, 0, 1), (-0.70710695, -0.70710665, 0), (-8.2143806e-8, -1, 0), (-8.2143806e-8, -1, 0), (-0.70710695, -0.70710665, 0), (0.70710665, -0.7071069, 0), (1, -4.1071907e-8, 0), (1, -4.1071907e-8, 0), (0.70710665, -0.7071069, 0), (0.70710665, 0.7071069, 0), (1.4375166e-7, 1, 0), (1.4375166e-7, 1, 0), (0.70710665, 0.7071069, 0), (1.4375166e-7, 1, 0), (-0.7071068, 0.7071067, 0), (-0.7071068, 0.7071067, 0), (1.4375166e-7, 1, 0), (-1, -4.1071896e-8, 0), (-0.70710695, -0.70710665, 0), (-0.70710695, -0.70710665, 0), (-1, -4.1071896e-8, 0), (-8.2143806e-8, -1, 0), (0.70710665, -0.7071069, 0), (0.70710665, -0.7071069, 0), (-8.2143806e-8, -1, 0), (1, -4.1071907e-8, 0), (0.70710665, 0.7071069, 0), (0.70710665, 0.7071069, 0), (1, -4.1071907e-8, 0), (0, 1, 0), (0, 1, 0), (0, 1, 0), (0, 1, 0), (1, -4.237144e-8, 0), (1, -4.237144e-8, 0), (1, -4.237144e-8, 0), (1, -4.237144e-8, 0), (0, -1, 0), (0, -1, 0), (0, -1, 0), (0, -1, 0), (-1, 4.327296e-8, 0), (-1, 4.327296e-8, 0), (-1, 4.327296e-8, 0), (-1, 4.327296e-8, 0), (0, 0, -1), (0, 0, -1), (0, 0, -1), (0, 0, -1), (0, 0, 1), (0, 0, 1), (0, 0, 1), (0, 0, 1), (-1, 0, 0), (-1, 0, 0), (-1, 0, 0), (-1, 0, 0), (0, 1, 0), (0, 1, 0), (0, 1, 0), (0, 1, 0), (1, 0, 0), (1, 0, 0), (1, 0, 0), (1, 0, 0), (0, -1, 0), (0, -1, 0), (0, -1, 0), (0, -1, 0), (0, 0, -1), (0, 0, -1), (0, 0, -1), (0, 0, -1), (0, 0, 1), (0, 0, 1), (0, 0, 1), (0, 0, 1)] (
                interpolation = "faceVarying"
            )
            point3f[] points = [(0.0000023575792, 0.16470538, 0.43494496), (0.0000023588816, 0.15459166, 0.75316256), (0.09681375, 0.13324945, 0.43494496), (0.09086906, 0.12506728, 0.75316256), (0.15664649, 0.05089676, 0.43494496), (0.14702778, 0.047771446, 0.75316256), (0.15664649, -0.050896768, 0.43494496), (0.14702776, -0.047771458, 0.75316256), (0.096813746, -0.13324948, 0.43494496), (0.09086905, -0.1250673, 0.75316256), (0.0000023431803, -0.16470538, 0.43494496), (0.0000023453667, -0.15459166, 0.75316256), (-0.09680905, -0.13324945, 0.43494496), (-0.09086436, -0.12506728, 0.75316256), (-0.15664177, -0.050896782, 0.43494496), (-0.14702305, -0.047771465, 0.75316256), (-0.15664177, 0.050896782, 0.43494496), (-0.14702305, 0.047771472, 0.75316256), (-0.096809, 0.1332495, 0.43494496), (-0.09086429, 0.12506732, 0.75316256), (0.000002357701, 0.14929582, 0.43424192), (0.08775625, 0.12078285, 0.43424192), (0.082367726, 0.113366194, 0.7540608), (0.0000023588816, 0.14012831, 0.7540608), (0.14199111, 0.046134945, 0.43424192), (0.13327232, 0.04330203, 0.7540608), (0.14199111, -0.046134952, 0.43424192), (0.13327232, -0.043302037, 0.7540608), (0.08775623, -0.12078287, 0.43424192), (0.08236771, -0.1133662, 0.7540608), (0.0000023446491, -0.14929582, 0.43424192), (0.0000023466312, -0.14012831, 0.7540608), (-0.08775154, -0.12078284, 0.43424192), (-0.082363024, -0.11336618, 0.7540608), (-0.14198638, -0.04613496, 0.43424192), (-0.1332676, -0.043302044, 0.7540608), (-0.14198638, 0.046134964, 0.43424192), (-0.1332676, 0.043302048, 0.7540608), (-0.087751485, 0.12078289, 0.43424192), (-0.08236296, 0.11336623, 0.7540608), (0.0000023588816, 0.17536658, -3.6857525e-8), (0.0000023588816, 0.17536658, 0.023782613), (0.12400525, 0.124002896, -3.6857525e-8), (0.12400525, 0.124002896, 0.023782613), (0.17536893, -7.665516e-9, -3.6857525e-8), (0.17536893, -7.665516e-9, 0.023782613), (0.12400525, -0.124002896, -3.6857525e-8), (0.12400525, -0.124002896, 0.023782613), (0.0000023435505, -0.17536658, -3.6857525e-8), (0.0000023435505, -0.17536658, 0.023782613), (-0.12400056, -0.12400287, -3.6857525e-8), (-0.12400056, -0.12400287, 0.023782613), (-0.17536421, 2.0912254e-9, -3.6857525e-8), (-0.17536421, 2.0912254e-9, 0.023782613), (-0.12400056, 0.12400289, -3.6857525e-8), (-0.12400056, 0.12400289, 0.023782613), (0.106948465, 0.10694611, 0.043277886), (0.0000023588816, 0.15124466, 0.043277886), (0.15124701, -6.611114e-9, 0.043277886), (0.106948465, -0.10694611, 0.043277886), (0.0000023456594, -0.15124466, 0.043277886), (-0.10694378, -0.106946096, 0.043277886), (-0.15124229, 1.8035744e-9, 0.043277886), (-0.10694378, 0.10694611, 0.043277886), (0.07394088, 0.07393852, 0.06277312), (0.0000023588816, 0.104564875, 0.06277312), (0.10456723, -4.5706754e-9, 0.06277312), (0.07394088, -0.07393852, 0.06277312), (0.0000023497403, -0.104564875, 0.06277312), (-0.07393618, -0.07393851, 0.06277312), (-0.10456251, 1.2469237e-9, 0.06277312), (-0.07393618, 0.07393852, 0.06277312), (0.08095996, 0.0809576, 0.074020416), (0.0000023588816, 0.11449134, 0.074020416), (0.1144937, -5.0045754e-9, 0.074020416), (0.08095996, -0.0809576, 0.074020416), (0.0000023488724, -0.11449134, 0.074020416), (-0.08095526, -0.080957584, 0.074020416), (-0.11448898, 1.3652957e-9, 0.074020416), (-0.08095526, 0.0809576, 0.074020416), (0.06922503, 0.06922267, 0.0912662), (0.0000023588816, 0.097895645, 0.0912662), (0.097898, -4.2791544e-9, 0.0912662), (0.06922503, -0.06922267, 0.0912662), (0.0000023503233, -0.097895645, 0.0912662), (-0.06922033, -0.06922265, 0.0912662), (-0.09789328, 1.1673938e-9, 0.0912662), (-0.06922033, 0.06922267, 0.0912662), (0.032518078, 0.03251572, 0.10551274), (0.0000023588816, 0.04598417, 0.10551274), (0.04598653, -2.0100317e-9, 0.10551274), (0.032518078, -0.03251572, 0.10551274), (0.0000023548616, -0.04598417, 0.10551274), (-0.032513365, -0.032515712, 0.10551274), (-0.045981813, 5.4835575e-10, 0.10551274), (-0.032513365, 0.03251572, 0.10551274), (0.013318367, 0.013316012, 0.12275852), (0.0000023583052, 0.018831681, 0.12275852), (0.018834041, -8.23159e-10, 0.12275852), (0.013318367, -0.013316012, 0.12275852), (0.0000023566588, -0.018831681, 0.12275852), (-0.013313658, -0.013316009, 0.12275852), (-0.018829323, 2.2456559e-10, 0.12275852), (-0.013313658, 0.013316012, 0.12275852), (0.013318367, 0.013316012, 0.76315004), (0.0000023583052, 0.018831681, 0.76315004), (0.018834041, -8.23159e-10, 0.76315004), (0.013318367, -0.013316012, 0.76315004), (0.0000023566588, -0.018831681, 0.76315004), (-0.013313658, -0.013316009, 0.76315004), (-0.018829323, 2.2456559e-10, 0.76315004), (-0.013313658, 0.013316012, 0.76315004), (-0.0034994679, 0.1440458, 0.743815), (-0.0034994679, 0.1440458, 0.7508186), (0.003504198, 0.1440458, 0.743815), (0.003504198, 0.1440458, 0.7508186), (-0.0034994804, -0.1440458, 0.743815), (-0.0034994804, -0.1440458, 0.7508186), (0.0035041857, -0.1440458, 0.743815), (0.0035041857, -0.1440458, 0.7508186), (-0.14404345, -0.003501833, 0.743815), (-0.14404345, -0.003501833, 0.7508186), (-0.14404345, 0.003501833, 0.743815), (-0.14404345, 0.003501833, 0.7508186), (0.14404817, -0.003501833, 0.743815), (0.14404817, -0.003501833, 0.7508186), (0.14404817, 0.003501833, 0.743815), (0.14404817, 0.003501833, 0.7508186)]
            uniform token subdivisionScheme = "none"
            uniform token subsetFamily:materialBind:familyType = "nonOverlapping"
            custom string userProperties:blender:data_name = "Cylinder.006"

            def GeomSubset "White" (
                prepend apiSchemas = ["MaterialBindingAPI"]
            )
            {
                uniform token elementType = "face"
                uniform token familyName = "materialBind"
                int[] indices = [0, 1, 2, 3, 4, 5, 6, 7, 8, 9, 10, 11, 12, 13, 14, 15, 16, 17, 18, 19, 20, 21, 22, 23, 24, 25, 26, 27, 28, 29, 30, 31, 32, 33, 34, 35, 36, 37, 38, 39]
                rel material:binding = </root/_materials/White>
            }

            def GeomSubset "LightMetal" (
                prepend apiSchemas = ["MaterialBindingAPI"]
            )
            {
                uniform token elementType = "face"
                uniform token familyName = "materialBind"
                int[] indices = [40, 41, 42, 43, 44, 45, 46, 47, 48, 49, 50, 51, 52, 53, 54, 55, 56, 57, 58, 59, 60, 61, 62, 63, 64, 65, 66, 67, 68, 69, 70, 71, 72, 73, 74, 75, 76, 77, 78, 79, 80, 81, 82, 83, 84, 85, 86, 87, 88, 89, 90, 91, 92, 93, 94, 95, 96, 97, 98, 99, 100, 101, 102, 103, 104, 105, 106, 107, 108, 109, 110, 111, 112, 113, 114, 115, 116, 117]
                rel material:binding = </root/_materials/LightMetal>
            }
        }
    }

    def Scope "_materials"
    {
        def Material "White"
        {
            token outputs:surface.connect = </root/_materials/White/Principled_BSDF.outputs:surface>
            custom string userProperties:blender:data_name = "White"

            def Shader "Principled_BSDF"
            {
                uniform token info:id = "UsdPreviewSurface"
                float inputs:clearcoat = 0
                float inputs:clearcoatRoughness = 0.03
                color3f inputs:diffuseColor = (0.4479754, 0.44329065, 0.4294085)
                float inputs:ior = 1.5
                float inputs:metallic = 0
                float inputs:opacity = 1
                float inputs:roughness = 0.6900348
                float inputs:specular = 0.5
                token outputs:surface
            }
        }

        def Material "LightMetal"
        {
            token outputs:surface.connect = </root/_materials/LightMetal/Principled_BSDF.outputs:surface>
            custom string userProperties:blender:data_name = "LightMetal"

            def Shader "Principled_BSDF"
            {
                uniform token info:id = "UsdPreviewSurface"
                float inputs:clearcoat = 0
                float inputs:clearcoatRoughness = 0.03
                color3f inputs:diffuseColor = (0.17335217, 0.17335217, 0.17335217)
                float inputs:ior = 1.5
                float inputs:metallic = 0
                float inputs:opacity = 1
                float inputs:roughness = 0.6900348
                float inputs:specular = 0.5
                token outputs:surface
            }
        }
    }
}

