#usda 1.0
(
    defaultPrim = "root"
    doc = "Blender v5.1.2"
    metersPerUnit = 1
    upAxis = "Y"
)

def Xform "root" (
    customData = {
        dictionary Blender = {
            bool generated = 1
        }
    }
)
{
    float3 xformOp:rotateXYZ = (-90, -0, 0)
    uniform token[] xformOpOrder = ["xformOp:rotateXYZ"]

    def Xform "Table_RoundLarge"
    {
        custom string userProperties:blender:object_name = "Table_RoundLarge"

        def Mesh "Cylinder_013" (
            active = true
            prepend apiSchemas = ["MaterialBindingAPI"]
        )
        {
            uniform bool doubleSided = 1
            float3[] extent = [(-1.8566839, -0.97049505, 0.005097603), (1.8566833, 0.9704929, 1.1262934)]
            int[] faceVertexCounts = [4, 4, 4, 4, 4, 4, 4, 4, 4, 4, 4, 4, 4, 4, 4, 4, 4, 4, 4, 4, 4, 4, 4, 4, 4, 4, 4, 4, 4, 4, 4, 4, 4, 4, 4, 4, 4, 4, 4, 4, 4, 4, 4, 4, 4, 4, 4, 4, 4, 4, 4, 4, 4, 4, 4, 4, 4, 4, 4, 4, 4, 4, 4, 4, 4, 4, 4, 4, 4, 4, 4, 4, 4, 4, 4, 4, 4, 4, 4, 4, 4, 4, 4, 4, 4, 4, 4, 4, 4, 4, 4, 4, 4, 4, 4, 4, 4, 4, 4, 4, 4, 4, 4, 4, 4, 4, 4, 4, 4, 4, 4, 4, 4, 4, 4, 4, 4, 4, 4, 4, 4, 4, 4, 4, 4, 4, 4, 4, 4, 4, 4, 4, 4, 4, 4, 4, 4, 4, 4, 4, 4, 4, 4, 4, 4, 4, 4, 4, 4, 4, 4, 4, 4, 4, 4, 4, 4, 4, 4, 4, 4, 4, 4, 4, 11, 4, 4, 4, 4, 4, 4, 4, 4, 4, 4, 4, 4, 4, 4, 4, 4, 4, 4, 4, 4, 4, 4, 4, 4, 4, 4, 4, 4, 4, 4, 4, 4, 4, 4, 4, 4, 4, 4, 4, 4, 11, 4, 4, 4, 4, 4, 4, 4, 4, 4, 4, 4, 4, 4, 4, 4, 4, 4, 4, 4, 4, 4, 4, 11, 4, 4, 4, 4, 4, 4, 4, 4, 4, 4, 4, 4, 4, 4, 4, 4, 4, 4, 4, 4, 4, 4, 4, 4, 4, 4, 4, 4, 4, 4, 4, 4, 4, 4, 4, 4, 4, 4, 4, 4, 11, 4, 4, 4, 4, 4, 4, 4, 4, 4, 4, 4, 4]
            int[] faceVertexIndices = [1, 0, 2, 3, 3, 2, 6, 7, 5, 4, 0, 1, 0, 4, 6, 2, 7, 6, 4, 5, 1, 10, 11, 5, 5, 11, 8, 7, 11, 10, 14, 15, 3, 9, 10, 1, 16, 19, 43, 45, 9, 8, 12, 13, 8, 11, 15, 12, 10, 9, 13, 14, 46, 44, 22, 23, 44, 42, 21, 22, 12, 15, 17, 18, 41, 46, 23, 20, 23, 22, 26, 27, 17, 16, 45, 47, 19, 18, 40, 43, 18, 17, 47, 40, 24, 27, 31, 28, 21, 20, 24, 25, 20, 23, 27, 24, 22, 21, 25, 26, 31, 30, 34, 35, 26, 25, 29, 30, 27, 26, 30, 31, 25, 24, 28, 29, 35, 34, 38, 39, 29, 28, 32, 33, 28, 31, 35, 32, 30, 29, 33, 34, 48, 49, 65, 64, 33, 32, 36, 37, 32, 35, 39, 36, 34, 33, 37, 38, 41, 42, 43, 40, 42, 44, 45, 43, 44, 46, 47, 45, 46, 41, 40, 47, 42, 41, 20, 21, 13, 12, 18, 19, 15, 14, 16, 17, 14, 13, 19, 16, 7, 8, 9, 3, 51, 50, 49, 48, 50, 51, 67, 66, 39, 51, 130, 128, 37, 49, 54, 52, 51, 48, 131, 130, 36, 39, 128, 129, 48, 36, 129, 131, 55, 53, 57, 59, 49, 50, 55, 54, 38, 37, 52, 53, 50, 38, 53, 55, 57, 56, 58, 59, 53, 52, 56, 57, 52, 54, 58, 56, 54, 55, 59, 58, 63, 62, 70, 71, 66, 67, 75, 74, 49, 37, 61, 65, 39, 38, 62, 63, 51, 39, 63, 67, 37, 36, 60, 61, 36, 48, 64, 60, 38, 50, 66, 62, 71, 70, 74, 75, 69, 68, 72, 73, 60, 64, 72, 68, 62, 66, 74, 70, 64, 65, 73, 72, 61, 60, 68, 69, 65, 61, 69, 73, 67, 63, 71, 75, 77, 79, 78, 76, 79, 83, 82, 78, 81, 77, 76, 80, 76, 78, 82, 80, 83, 81, 80, 82, 77, 81, 87, 86, 81, 83, 84, 87, 87, 91, 90, 86, 79, 77, 86, 85, 92, 121, 119, 95, 85, 89, 88, 84, 84, 88, 91, 87, 86, 90, 89, 85, 122, 99, 98, 120, 120, 98, 97, 118, 88, 94, 93, 91, 117, 96, 99, 122, 99, 103, 102, 98, 93, 123, 121, 92, 95, 119, 116, 94, 94, 116, 123, 93, 100, 104, 107, 103, 97, 101, 100, 96, 96, 100, 103, 99, 98, 102, 101, 97, 107, 111, 110, 106, 102, 106, 105, 101, 103, 107, 106, 102, 101, 105, 104, 100, 111, 115, 114, 110, 105, 109, 108, 104, 104, 108, 111, 107, 106, 110, 109, 105, 124, 144, 145, 125, 109, 113, 112, 108, 108, 112, 115, 111, 110, 114, 113, 109, 117, 116, 119, 118, 118, 119, 121, 120, 120, 121, 123, 122, 122, 123, 116, 117, 118, 97, 96, 117, 89, 95, 94, 88, 91, 93, 92, 90, 90, 92, 95, 89, 83, 79, 85, 84, 127, 124, 125, 126, 126, 146, 147, 127, 115, 128, 130, 127, 113, 132, 134, 125, 127, 130, 131, 124, 112, 129, 128, 115, 124, 131, 129, 112, 135, 139, 137, 133, 125, 134, 135, 126, 114, 133, 132, 113, 126, 135, 133, 114, 137, 139, 138, 136, 133, 137, 136, 132, 132, 136, 138, 134, 134, 138, 139, 135, 143, 151, 150, 142, 146, 154, 155, 147, 125, 145, 141, 113, 115, 143, 142, 114, 127, 147, 143, 115, 113, 141, 140, 112, 112, 140, 144, 124, 114, 142, 146, 126, 151, 155, 154, 150, 149, 153, 152, 148, 140, 148, 152, 144, 142, 150, 154, 146, 144, 152, 153, 145, 141, 149, 148, 140, 145, 153, 149, 141, 147, 155, 151, 143, 179, 157, 159, 180, 180, 159, 161, 182, 182, 161, 163, 184, 184, 163, 165, 186, 186, 165, 167, 188, 188, 167, 169, 190, 190, 169, 171, 192, 192, 171, 173, 194, 194, 173, 175, 196, 196, 175, 177, 198, 159, 157, 177, 175, 173, 171, 169, 167, 165, 163, 161, 197, 195, 217, 219, 182, 184, 206, 204, 196, 198, 220, 218, 185, 183, 205, 207, 199, 197, 219, 221, 184, 186, 208, 206, 174, 197, 199, 176, 187, 185, 207, 209, 172, 195, 197, 174, 170, 193, 195, 172, 168, 191, 193, 170, 186, 188, 210, 208, 166, 189, 191, 168, 164, 187, 189, 166, 162, 185, 187, 164, 189, 187, 209, 211, 160, 183, 185, 162, 158, 181, 183, 160, 156, 178, 181, 158, 188, 190, 212, 210, 219, 218, 220, 221, 217, 216, 218, 219, 215, 214, 216, 217, 213, 212, 214, 215, 211, 210, 212, 213, 209, 208, 210, 211, 207, 206, 208, 209, 205, 204, 206, 207, 203, 202, 204, 205, 200, 201, 202, 203, 183, 181, 203, 205, 194, 196, 218, 216, 180, 182, 204, 202, 195, 193, 215, 217, 181, 178, 200, 203, 192, 194, 216, 214, 179, 180, 202, 201, 193, 191, 213, 215, 190, 192, 214, 212, 191, 189, 211, 213, 176, 156, 158, 160, 162, 164, 166, 168, 170, 172, 174, 177, 157, 289, 291, 176, 199, 295, 290, 198, 177, 291, 294, 220, 198, 294, 298, 156, 176, 290, 288, 221, 220, 298, 299, 178, 156, 288, 292, 201, 200, 296, 297, 179, 201, 297, 293, 199, 221, 299, 295, 157, 179, 293, 289, 200, 178, 292, 296, 245, 246, 225, 223, 246, 248, 227, 225, 248, 250, 229, 227, 250, 252, 231, 229, 252, 254, 233, 231, 254, 256, 235, 233, 256, 258, 237, 235, 258, 260, 239, 237, 260, 262, 241, 239, 262, 264, 243, 241, 225, 227, 229, 231, 233, 235, 237, 239, 241, 243, 223, 263, 285, 283, 261, 248, 270, 272, 250, 262, 284, 286, 264, 251, 273, 271, 249, 265, 287, 285, 263, 250, 272, 274, 252, 240, 242, 265, 263, 253, 275, 273, 251, 238, 240, 263, 261, 236, 238, 261, 259, 234, 236, 259, 257, 252, 274, 276, 254, 232, 234, 257, 255, 230, 232, 255, 253, 228, 230, 253, 251, 255, 277, 275, 253, 226, 228, 251, 249, 224, 226, 249, 247, 222, 224, 247, 244, 254, 276, 278, 256, 285, 287, 286, 284, 283, 285, 284, 282, 281, 283, 282, 280, 279, 281, 280, 278, 277, 279, 278, 276, 275, 277, 276, 274, 273, 275, 274, 272, 271, 273, 272, 270, 269, 271, 270, 268, 266, 269, 268, 267, 249, 271, 269, 247, 260, 282, 284, 262, 246, 268, 270, 248, 261, 283, 281, 259, 247, 269, 266, 244, 258, 280, 282, 260, 245, 267, 268, 246, 259, 281, 279, 257, 256, 278, 280, 258, 257, 279, 277, 255, 242, 240, 238, 236, 234, 232, 230, 228, 226, 224, 222, 243, 291, 289, 223, 242, 290, 295, 265, 264, 294, 291, 243, 286, 298, 294, 264, 222, 288, 290, 242, 287, 299, 298, 286, 244, 292, 288, 222, 267, 297, 296, 266, 245, 293, 297, 267, 265, 295, 299, 287, 223, 289, 293, 245, 266, 296, 292, 244]
            rel material:binding = </root/_materials/Wood>
            normal3f[] normals = [(0.9089138, 0, 0.41698402), (0.9826052, 0, 0.18570678), (0.9826052, 0, 0.18570678), (0.9089138, 0, 0.41698402), (0, -0.90891385, 0.41698402), (0, -0.9826053, 0.18570653), (0, -0.9826053, 0.18570653), (0, -0.90891385, 0.41698402), (0, 0.90891385, 0.416984), (0, 0.9826053, 0.18570657), (0, 0.9826053, 0.18570657), (0, 0.90891385, 0.416984), (0, 0, 1), (0, 0, 1), (0, 0, 1), (0, 0, 1), (-0.9089139, 0, 0.4169838), (-0.9826052, 0, 0.18570678), (-0.9826052, 0, 0.18570678), (-0.9089139, 0, 0.4169838), (0, 0.90891385, 0.416984), (0, 0.83007765, 0.5576478), (0, 0.83007765, 0.5576478), (0, 0.90891385, 0.416984), (-0.9089139, 0, 0.4169838), (-0.8300779, 0, 0.55764747), (-0.8300779, 0, 0.55764747), (-0.9089139, 0, 0.4169838), (0, 0.7451809, -0.6668624), (0, 0.7451809, -0.6668624), (0, 0.7451809, -0.6668624), (0, 0.7451809, -0.6668624), (0.9089138, 0, 0.41698402), (0.83007765, 0, 0.5576478), (0.83007765, 0, 0.5576478), (0.9089138, 0, 0.41698402), (0.9885616, 4.2566407e-7, 0.15081747), (0.98856163, 4.256641e-7, 0.1508175), (0.89771026, 1.5801362e-7, 0.44058624), (0.8977103, 1.5801368e-7, 0.4405862), (0, -0.74518085, -0.6668624), (0, -0.74518085, -0.6668624), (0, -0.74518085, -0.6668624), (0, -0.74518085, -0.6668624), (-0.7451812, 0, -0.666862), (-0.7451812, 0, -0.666862), (-0.7451812, 0, -0.666862), (-0.7451812, 0, -0.666862), (0.7451812, 0, -0.666862), (0.7451812, 0, -0.666862), (0.7451812, 0, -0.666862), (0.7451812, 0, -0.666862), (0, 0.9841251, -0.1774762), (0, 0.9841251, -0.1774762), (0, 0.9841251, -0.1774762), (0, 0.9841251, -0.1774762), (0.9841255, 0, -0.17747447), (0.9841255, 0, -0.17747447), (0.9841255, 0, -0.17747447), (0.9841255, 0, -0.17747447), (-0.9980509, 0, 0.062404025), (-0.9980509, 0, 0.062404025), (-0.9885615, 0, 0.15081824), (-0.9885615, 0, 0.15081824), (-0.98412514, 0, -0.17747584), (-0.98412514, 0, -0.17747584), (-0.98412514, 0, -0.17747584), (-0.98412514, 0, -0.17747584), (-0.21588144, 0.21588165, 0.95225537), (0.21588118, 0.21588172, 0.9522555), (0.2158815, 0.21588139, 0.9522554), (-0.21588154, 0.21588154, 0.95225537), (0, 0.9885615, 0.15081824), (0, 0.9885616, 0.15081817), (0, 0.8977103, 0.4405862), (0, 0.8977103, 0.44058618), (0, -0.9885615, 0.15081833), (0, -0.9885615, 0.15081835), (0, -0.8977103, 0.4405863), (0, -0.8977103, 0.44058624), (-0.9885615, 0, 0.15081824), (-0.9885615, 0, 0.15081824), (-0.8977102, 0, 0.44058645), (-0.8977102, 0, 0.44058645), (-0.99615127, 0, -0.08765144), (-0.99615127, 0, -0.08765144), (-0.99615127, 0, -0.08765144), (-0.99615127, 0, -0.08765144), (0.21588118, -0.21588172, 0.9522555), (-0.21588144, -0.21588165, 0.95225537), (-0.21588154, -0.21588154, 0.95225537), (0.2158815, -0.21588139, 0.9522554), (-0.21588144, -0.21588165, 0.95225537), (-0.21588144, 0.21588165, 0.95225537), (-0.21588154, 0.21588154, 0.95225537), (-0.21588154, -0.21588154, 0.95225537), (0.21588118, 0.21588172, 0.9522555), (0.21588118, -0.21588172, 0.9522555), (0.2158815, -0.21588139, 0.9522554), (0.2158815, 0.21588139, 0.9522554), (-0.1591854, 0.15918519, -0.97433054), (0.1591853, 0.159185, -0.9743306), (0.15918486, 0.15918545, -0.9743306), (-0.15918519, 0.15918541, -0.9743306), (0.99615127, 0, -0.08765144), (0.99615127, 0, -0.08765144), (0.99615127, 0, -0.08765144), (0.99615127, 0, -0.08765144), (0, 0.99615127, -0.08765058), (0, 0.99615127, -0.08765058), (0, 0.99615127, -0.08765058), (0, 0.99615127, -0.08765058), (0, -0.99615127, -0.08765106), (0, -0.99615127, -0.08765106), (0, -0.99615127, -0.08765106), (0, -0.99615127, -0.08765106), (0, 1, 0), (0, 1, 0), (0, 1, 0), (0, 1, 0), (0.1591853, -0.159185, -0.9743306), (-0.1591854, -0.15918519, -0.97433054), (-0.15918519, -0.15918541, -0.9743306), (0.15918486, -0.15918545, -0.9743306), (-0.1591854, -0.15918519, -0.97433054), (-0.1591854, 0.15918519, -0.97433054), (-0.15918519, 0.15918541, -0.9743306), (-0.15918519, -0.15918541, -0.9743306), (0.1591853, 0.159185, -0.9743306), (0.1591853, -0.159185, -0.9743306), (0.15918486, -0.15918545, -0.9743306), (0.15918486, 0.15918545, -0.9743306), (0, 0, -1), (0, 0, -1), (0, 0, -1), (0, 0, -1), (0, -1, 0), (0, -1, 0), (0, -1, 0), (0, -1, 0), (-1, 0, 0), (-1, 0, 0), (-1, 0, 0), (-1, 0, 0), (1, 0, 0), (1, 0, 0), (1, 0, 0), (1, 0, 0), (0, -0.82294095, 0.5681269), (0, -0.82294095, 0.5681269), (0, -0.8977103, 0.44058624), (0, -0.8977103, 0.4405863), (0.8229407, 0, 0.5681272), (0.8229407, 0, 0.5681272), (0.8977103, 1.5801368e-7, 0.4405862), (0.89771026, 1.5801362e-7, 0.44058624), (0, 0.822941, 0.56812686), (0, 0.822941, 0.56812686), (0, 0.8977103, 0.44058618), (0, 0.8977103, 0.4405862), (-0.82294047, 0, 0.5681276), (-0.82294047, 0, 0.5681276), (-0.8977102, 0, 0.44058645), (-0.8977102, 0, 0.44058645), (0, -0.9841251, -0.1774762), (0, -0.9841251, -0.1774762), (0, -0.9841251, -0.1774762), (0, -0.9841251, -0.1774762), (0, -0.99805105, 0.062403303), (0, -0.99805105, 0.062403303), (0, -0.9885615, 0.15081835), (0, -0.9885615, 0.15081833), (0, 0.99805105, 0.062403213), (0, 0.99805105, 0.062403213), (0, 0.9885616, 0.15081817), (0, 0.9885615, 0.15081824), (0.998051, 4.5839056e-7, 0.062402297), (0.998051, 4.5839056e-7, 0.062402297), (0.98856163, 4.256641e-7, 0.1508175), (0.9885616, 4.2566407e-7, 0.15081747), (0, -0.90891385, 0.41698402), (0, -0.83007765, 0.5576479), (0, -0.83007765, 0.5576479), (0, -0.90891385, 0.41698402), (0, 0, -1), (0, 0, -1), (0, 0, -1), (0, 0, -1), (0, 0, -1), (0, 0, -1), (0, 0, -1), (0, 0, -1), (0, 1, 0), (0, 1, 0), (0, 1, 0), (0, 1, 0), (0, -1, 0), (0, -1, 0), (0, -1, 0), (0, -1, 0), (0, 0, -1), (0, 0, -1), (0, 0, -1), (0, 0, -1), (0, 0, 1), (0, 0, 1), (0, 0, 1), (0, 0, 1), (0, -1, 0), (0, -1, 0), (0, -1, 0), (0, -1, 0), (0, 1, 0), (0, 1, 0), (0, 1, 0), (0, 1, 0), (0, 0, -1), (0, 0, -1), (0, 0, -1), (0, 0, -1), (0.19318028, 0, 0.9811632), (0.19318028, 0, 0.9811632), (0.09704825, 0, 0.99527967), (0.09704825, 0, 0.99527967), (0, 1, 0), (0, 1, 0), (0, 1, 0), (0, 1, 0), (1, 0, 0), (1, 0, 0), (1, 0, 0), (1, 0, 0), (0.09704825, 0, 0.99527967), (0.09704825, 0, 0.99527967), (0, 0, 1), (0, 0, 1), (0, -1, 0), (0, -1, 0), (0, -1, 0), (0, -1, 0), (0, 0, -1), (0, 0, -1), (0, 0, -1), (0, 0, -1), (0, 0.14059898, 0.9900666), (0, 0.14059898, 0.9900666), (0, 0, 1), (0, 0, 1), (0, 0, -1), (0, 0, -1), (0, 0, -1), (0, 0, -1), (1, 3.7556626e-7, 0), (1, 3.7556626e-7, 0), (1, 2.0325896e-7, 0), (1, 1.8778314e-7, 0), (0, 0.27840474, 0.9604639), (0, 0.27840474, 0.9604639), (0, 0.14059898, 0.9900666), (0, 0.14059898, 0.9900666), (-1, 0, 0), (-1, 0, 0), (-1, 0, 0), (-1, 0, 0), (0, -0.27840474, 0.9604639), (0, -0.27840474, 0.9604639), (0, -0.14059898, 0.9900666), (0, -0.14059898, 0.9900666), (-1, 0, 0), (-1, 0, 0), (-1, 0, 0), (-1, 0, 0), (1, -3.7556626e-7, 0), (1, -3.7556626e-7, 0), (1, -1.8778313e-7, 0), (1, -2.0325895e-7, 0), (0, 1, 0), (0, 1, 0), (0, 1, 0), (0, 1, 0), (0, -1, 0), (0, -1, 0), (0, -1, 0), (0, -1, 0), (-1, 0, 0), (-1, 0, 0), (-0.99999994, 0, 0), (-0.99999994, 0, 0), (1, -2.0325895e-7, 0), (1, -1.8778313e-7, 0), (1, 0, 0), (1, 0, 0), (0, 0, -1), (0, 0, -1), (0, 0, -1), (0, 0, -1), (0, -0.14059898, 0.9900666), (0, -0.14059898, 0.9900666), (0, 0, 1), (0, 0, 1), (1, 1.8778314e-7, 0), (1, 2.0325896e-7, 0), (0.99999994, 0, 0), (0.99999994, 0, 0), (-1, 0, 0), (-1, 0, 0), (-1, 0, 0), (-1, 0, 0), (-0.9089138, 0, 0.41698396), (-0.9089138, 0, 0.41698396), (-0.98260516, 0, 0.18570673), (-0.98260516, 0, 0.18570673), (0, -0.90891385, 0.416984), (0, -0.90891385, 0.416984), (0, -0.9826053, 0.1857065), (0, -0.9826053, 0.1857065), (0, 0.90891385, 0.416984), (0, 0.90891385, 0.416984), (0, 0.9826053, 0.18570654), (0, 0.9826053, 0.18570654), (0, 0, 1), (0, 0, 1), (0, 0, 1), (0, 0, 1), (0.9089139, 0, 0.41698375), (0.9089139, 0, 0.41698375), (0.98260516, 0, 0.18570673), (0.98260516, 0, 0.18570673), (0, 0.90891385, 0.416984), (0, 0.90891385, 0.416984), (0, 0.83007765, 0.5576478), (0, 0.83007765, 0.5576478), (0.9089139, 0, 0.41698375), (0.9089139, 0, 0.41698375), (0.83007795, 0, 0.5576474), (0.83007795, 0, 0.5576474), (0, 0.7451809, -0.6668624), (0, 0.7451809, -0.6668624), (0, 0.7451809, -0.6668624), (0, 0.7451809, -0.6668624), (-0.9089138, 0, 0.41698396), (-0.9089138, 0, 0.41698396), (-0.83007777, 0, 0.55764776), (-0.83007777, 0, 0.55764776), (-0.9885616, 4.2566398e-7, 0.15081745), (-0.8977103, 1.5801365e-7, 0.4405862), (-0.89771026, 1.580136e-7, 0.44058624), (-0.98856163, 4.2566407e-7, 0.15081747), (0, -0.74518085, -0.66686237), (0, -0.74518085, -0.66686237), (0, -0.74518085, -0.66686237), (0, -0.74518085, -0.66686237), (0.74518114, 0, -0.66686213), (0.74518114, 0, -0.66686213), (0.74518114, 0, -0.66686213), (0.74518114, 0, -0.66686213), (-0.74518114, 0, -0.66686213), (-0.74518114, 0, -0.66686213), (-0.74518114, 0, -0.66686213), (-0.74518114, 0, -0.66686213), (0, 0.9841251, -0.17747614), (0, 0.9841251, -0.17747614), (0, 0.9841251, -0.17747614), (0, 0.9841251, -0.17747614), (-0.98412544, 0, -0.17747451), (-0.98412544, 0, -0.17747451), (-0.98412544, 0, -0.17747451), (-0.98412544, 0, -0.17747451), (0.9980509, 0, 0.062404018), (0.9885615, 0, 0.15081823), (0.9885615, 0, 0.15081823), (0.9980509, 0, 0.062404018), (0.98412514, 0, -0.17747587), (0.98412514, 0, -0.17747587), (0.98412514, 0, -0.17747587), (0.98412514, 0, -0.17747587), (0.2158815, 0.21588166, 0.95225537), (0.21588159, 0.21588153, 0.95225537), (-0.21588154, 0.21588139, 0.9522554), (-0.21588121, 0.2158817, 0.9522555), (0, 0.9885615, 0.15081829), (0, 0.8977103, 0.44058624), (0, 0.8977103, 0.4405862), (0, 0.9885615, 0.1508182), (0, -0.9885615, 0.15081829), (0, -0.8977103, 0.4405863), (0, -0.89771026, 0.44058636), (0, -0.9885615, 0.15081829), (0.9885615, 0, 0.15081823), (0.8977102, 0, 0.44058645), (0.8977102, 0, 0.44058645), (0.9885615, 0, 0.15081823), (0.99615127, 0, -0.08765143), (0.99615127, 0, -0.08765143), (0.99615127, 0, -0.08765143), (0.99615127, 0, -0.08765143), (-0.21588121, -0.21588172, 0.95225537), (-0.21588156, -0.2158814, 0.9522554), (0.2158816, -0.21588156, 0.95225537), (0.2158815, -0.21588168, 0.95225537), (0.2158815, -0.21588168, 0.95225537), (0.2158816, -0.21588156, 0.95225537), (0.21588159, 0.21588153, 0.95225537), (0.2158815, 0.21588166, 0.95225537), (-0.21588121, 0.2158817, 0.9522555), (-0.21588154, 0.21588139, 0.9522554), (-0.21588156, -0.2158814, 0.9522554), (-0.21588121, -0.21588172, 0.95225537), (0.1591854, 0.15918516, -0.97433054), (0.15918519, 0.15918538, -0.9743306), (-0.15918486, 0.15918542, -0.9743306), (-0.15918532, 0.159185, -0.9743306), (-0.99615127, 0, -0.08765144), (-0.99615127, 0, -0.08765144), (-0.99615127, 0, -0.08765144), (-0.99615127, 0, -0.08765144), (0, 0.99615127, -0.08765065), (0, 0.99615127, -0.08765065), (0, 0.99615127, -0.08765065), (0, 0.99615127, -0.08765065), (0, -0.99615127, -0.087651), (0, -0.99615127, -0.087651), (0, -0.99615127, -0.087651), (0, -0.99615127, -0.087651), (0, 1, 0), (0, 1, 0), (0, 1, 0), (0, 1, 0), (-0.1591853, -0.15918502, -0.9743306), (-0.15918486, -0.15918548, -0.9743306), (0.15918519, -0.15918542, -0.9743306), (0.1591854, -0.1591852, -0.97433054), (0.1591854, -0.1591852, -0.97433054), (0.15918519, -0.15918542, -0.9743306), (0.15918519, 0.15918538, -0.9743306), (0.1591854, 0.15918516, -0.97433054), (-0.15918532, 0.159185, -0.9743306), (-0.15918486, 0.15918542, -0.9743306), (-0.15918486, -0.15918548, -0.9743306), (-0.1591853, -0.15918502, -0.9743306), (0, 0, -1), (0, 0, -1), (0, 0, -1), (0, 0, -1), (0, -1, 0), (0, -1, 0), (0, -1, 0), (0, -1, 0), (1, 0, 0), (1, 0, 0), (1, 0, 0), (1, 0, 0), (-1, 0, 0), (-1, 0, 0), (-1, 0, 0), (-1, 0, 0), (0, -0.82294095, 0.56812704), (0, -0.89771026, 0.44058636), (0, -0.8977103, 0.4405863), (0, -0.82294095, 0.56812704), (-0.8229407, 0, 0.5681272), (-0.89771026, 1.580136e-7, 0.44058624), (-0.8977103, 1.5801365e-7, 0.4405862), (-0.8229407, 0, 0.5681272), (0, 0.82294095, 0.56812686), (0, 0.8977103, 0.4405862), (0, 0.8977103, 0.44058624), (0, 0.82294095, 0.56812686), (0.82294047, 0, 0.5681276), (0.8977102, 0, 0.44058645), (0.8977102, 0, 0.44058645), (0.82294047, 0, 0.5681276), (0, -0.9841251, -0.17747629), (0, -0.9841251, -0.17747629), (0, -0.9841251, -0.17747629), (0, -0.9841251, -0.17747629), (0, -0.99805105, 0.062403265), (0, -0.9885615, 0.15081829), (0, -0.9885615, 0.15081829), (0, -0.99805105, 0.062403265), (0, 0.99805105, 0.062403243), (0, 0.9885615, 0.15081829), (0, 0.9885615, 0.1508182), (0, 0.99805105, 0.062403243), (-0.99805105, 4.5839053e-7, 0.062402293), (-0.9885616, 4.2566398e-7, 0.15081745), (-0.98856163, 4.2566407e-7, 0.15081747), (-0.99805105, 4.5839053e-7, 0.062402293), (0, -0.90891385, 0.416984), (0, -0.90891385, 0.416984), (0, -0.83007765, 0.5576479), (0, -0.83007765, 0.5576479), (0, 0, -1), (0, 0, -1), (0, 0, -1), (0, 0, -1), (0, 0, -1), (0, 0, -1), (0, 0, -1), (0, 0, -1), (0, 1, 0), (0, 1, 0), (0, 1, 0), (0, 1, 0), (0, -1, 0), (0, -1, 0), (0, -1, 0), (0, -1, 0), (0, 0, -1), (0, 0, -1), (0, 0, -1), (0, 0, -1), (0, 0, 1), (0, 0, 1), (0, 0, 1), (0, 0, 1), (0, -1, 0), (0, -1, 0), (0, -1, 0), (0, -1, 0), (0, 1, 0), (0, 1, 0), (0, 1, 0), (0, 1, 0), (0, 0, -1), (0, 0, -1), (0, 0, -1), (0, 0, -1), (-0.19318028, 0, 0.9811632), (-0.09704825, 0, 0.99527967), (-0.09704825, 0, 0.99527967), (-0.19318028, 0, 0.9811632), (0, 1, 0), (0, 1, 0), (0, 1, 0), (0, 1, 0), (-1, 0, 0), (-1, 0, 0), (-1, 0, 0), (-1, 0, 0), (-0.09704825, 0, 0.99527967), (0, 0, 1), (0, 0, 1), (-0.09704825, 0, 0.99527967), (0, -1, 0), (0, -1, 0), (0, -1, 0), (0, -1, 0), (0, 0, -1), (0, 0, -1), (0, 0, -1), (0, 0, -1), (0, 0.14059898, 0.9900666), (0, 0, 1), (0, 0, 1), (0, 0.14059898, 0.9900666), (0, 0, -1), (0, 0, -1), (0, 0, -1), (0, 0, -1), (-1, 3.7556626e-7, 0), (-1, 1.8778314e-7, 0), (-1, 2.0325896e-7, 0), (-1, 3.7556626e-7, 0), (0, 0.27840474, 0.9604639), (0, 0.14059898, 0.9900666), (0, 0.14059898, 0.9900666), (0, 0.27840474, 0.9604639), (1, 0, 0), (1, 0, 0), (1, 0, 0), (1, 0, 0), (0, -0.27840474, 0.9604639), (0, -0.14059898, 0.9900666), (0, -0.14059898, 0.9900666), (0, -0.27840474, 0.9604639), (1, 0, 0), (1, 0, 0), (1, 0, 0), (1, 0, 0), (-1, -3.7556626e-7, 0), (-1, -2.0325895e-7, 0), (-1, -1.8778313e-7, 0), (-1, -3.7556626e-7, 0), (0, 1, 0), (0, 1, 0), (0, 1, 0), (0, 1, 0), (0, -1, 0), (0, -1, 0), (0, -1, 0), (0, -1, 0), (1, 0, 0), (0.99999994, 0, 0), (0.99999994, 0, 0), (1, 0, 0), (-1, -2.0325895e-7, 0), (-1, 0, 0), (-1, 0, 0), (-1, -1.8778313e-7, 0), (0, 0, -1), (0, 0, -1), (0, 0, -1), (0, 0, -1), (0, -0.14059898, 0.9900666), (0, 0, 1), (0, 0, 1), (0, -0.14059898, 0.9900666), (-1, 1.8778314e-7, 0), (-0.99999994, 0, 0), (-0.99999994, 0, 0), (-1, 2.0325896e-7, 0), (1, 0, 0), (1, 0, 0), (1, 0, 0), (1, 0, 0), (0.07845895, 0.99691737, 0), (0.07845895, 0.99691737, 0), (0.30901688, 0.95105654, 0), (0.30901688, 0.95105654, 0), (0.30901688, 0.95105654, 0), (0.30901688, 0.95105654, 0), (0.5877852, 0.809017, 0), (0.5877852, 0.809017, 0), (0.5877852, 0.809017, 0), (0.5877852, 0.809017, 0), (0.80901694, 0.5877853, 0), (0.80901694, 0.5877853, 0), (0.80901694, 0.5877853, 0), (0.80901694, 0.5877853, 0), (0.9510565, 0.30901712, 0), (0.9510565, 0.30901712, 0), (0.9510565, 0.30901712, 0), (0.9510565, 0.30901712, 0), (1, -4.4661496e-7, 0), (1, -4.4661496e-7, 0), (1, -4.4661496e-7, 0), (1, -4.4661496e-7, 0), (0.95105636, -0.30901757, 0), (0.95105636, -0.30901757, 0), (0.95105636, -0.30901757, 0), (0.95105636, -0.30901757, 0), (0.80901694, -0.5877853, 0), (0.80901694, -0.5877853, 0), (0.80901694, -0.5877853, 0), (0.80901694, -0.5877853, 0), (0.5877851, -0.8090171, 0), (0.5877851, -0.8090171, 0), (0.5877851, -0.8090171, 0), (0.5877851, -0.8090171, 0), (0.30901664, -0.9510566, 0), (0.30901664, -0.9510566, 0), (0.30901664, -0.9510566, 0), (0.30901664, -0.9510566, 0), (0.07845924, -0.9969173, 0), (0.07845924, -0.9969173, 0), (-1.4335413e-7, 0, 1), (5.0461746e-9, 0, 1), (5.0462257e-9, 0, 1), (-1.4335413e-7, 0, 1), (-1.4335413e-7, 0, 1), (-1.4335413e-7, 0, 1), (-1.4335413e-7, 0, 1), (-1.4335413e-7, 0, 1), (-1.4335413e-7, 0, 1), (-1.4335413e-7, 0, 1), (-1.4335413e-7, 0, 1), (0.0036846772, -0.011971019, 0.99992156), (0.007624166, -0.011105013, 0.9999093), (0.008471455, -0.010822943, 0.9999055), (0.004146939, -0.011908266, 0.99992055), (0.032651067, 0.03934259, -0.99869215), (0.03159375, 0.019780254, -0.99930507), (0.0330412, 0.028899143, -0.9990361), (0.030348264, 0.050205477, -0.99827766), (0.0036821887, -0.011964076, -0.9999217), (0.0008835749, -0.012149618, -0.9999258), (0.0010415369, -0.012157449, -0.99992555), (0.0041439906, -0.011901358, -0.9999206), (0.031610623, 0.019791722, 0.9993043), (0.03266788, 0.03936537, 0.9986907), (0.030364154, 0.05023451, 0.99827576), (0.033058338, 0.028915878, 0.99903506), (0.00088384846, -0.012156669, 0.99992573), (0.0036846772, -0.011971019, 0.99992156), (0.004146939, -0.011908266, 0.99992055), (0.0010418813, -0.012164502, 0.99992543), (0.03159375, 0.019780254, -0.99930507), (0.026899286, 0.0068477006, -0.9996147), (0.02943639, 0.012427757, -0.99948937), (0.0330412, 0.028899143, -0.9990361), (0.3090169, -0.95105654, 0), (0.3090169, -0.95105654, 0), (0.078459434, -0.99691737, 0), (0.078459434, -0.99691737, 0), (0.02692235, 0.0068516755, 0.99961406), (0.031610623, 0.019791722, 0.9993043), (0.033058338, 0.028915878, 0.99903506), (0.029455513, 0.012434966, 0.9994887), (0.58778495, -0.8090172, 0), (0.58778495, -0.8090172, 0), (0.3090169, -0.95105654, 0), (0.3090169, -0.95105654, 0), (0.80901766, -0.58778435, 0), (0.80901766, -0.58778435, 0), (0.58778495, -0.8090172, 0), (0.58778495, -0.8090172, 0), (0.9510568, -0.3090163, 0), (0.9510568, -0.3090163, 0), (0.80901766, -0.58778435, 0), (0.80901766, -0.58778435, 0), (0.026899286, 0.0068477006, -0.9996147), (0.02157297, -0.0012365492, -0.9997665), (0.023909153, 0.0018121401, -0.99971247), (0.02943639, 0.012427757, -0.99948937), (1, 0, 0), (1, 0, 0), (0.9510568, -0.3090163, 0), (0.9510568, -0.3090163, 0), (0.9510568, 0.3090163, 0), (0.9510568, 0.3090163, 0), (1, 0, 0), (1, 0, 0), (0.80901766, 0.58778435, 0), (0.80901766, 0.58778435, 0), (0.9510568, 0.3090163, 0), (0.9510568, 0.3090163, 0), (0.021579688, -0.0012372684, 0.99976635), (0.02692235, 0.0068516755, 0.99961406), (0.029455513, 0.012434966, 0.9994887), (0.023926416, 0.0018131919, 0.9997121), (0.5877852, 0.809017, 0), (0.5877852, 0.809017, 0), (0.80901766, 0.58778435, 0), (0.80901766, 0.58778435, 0), (0.3090169, 0.95105654, 0), (0.30901688, 0.95105654, 0), (0.5877852, 0.809017, 0), (0.5877852, 0.809017, 0), (0.07845885, 0.99691737, 0), (0.078458846, 0.99691737, 0), (0.30901688, 0.95105654, 0), (0.3090169, 0.95105654, 0), (0.02157297, -0.0012365492, -0.9997665), (0.016494118, -0.006247037, -0.99984443), (0.018318677, -0.004688023, -0.99982125), (0.023909153, 0.0018121401, -0.99971247), (0.30901712, -0.9510565, 0), (0.30901712, -0.9510565, 0), (0.07845937, -0.99691737, 0), (0.07845937, -0.99691737, 0), (0.5877852, -0.80901706, 0), (0.5877852, -0.80901706, 0), (0.30901712, -0.9510565, 0), (0.30901712, -0.9510565, 0), (0.80901706, -0.5877852, 0), (0.80901706, -0.5877852, 0), (0.5877852, -0.80901706, 0), (0.5877852, -0.80901706, 0), (0.95105666, -0.30901656, 0), (0.95105666, -0.30901656, 0), (0.80901706, -0.5877852, 0), (0.80901706, -0.5877852, 0), (1, 0, 0), (1, 0, 0), (0.95105666, -0.30901656, 0), (0.95105666, -0.30901656, 0), (0.9510566, 0.30901682, 0), (0.9510566, 0.30901682, 0), (1, 0, 0), (1, 0, 0), (0.8090168, 0.58778536, 0), (0.8090168, 0.58778536, 0), (0.9510566, 0.30901682, 0), (0.9510566, 0.30901682, 0), (0.587785, 0.8090172, 0), (0.587785, 0.8090172, 0), (0.8090168, 0.58778536, 0), (0.8090168, 0.58778536, 0), (0.30901682, 0.9510566, 0), (0.30901682, 0.9510566, 0), (0.587785, 0.8090172, 0), (0.587785, 0.8090172, 0), (0.07845897, 0.99691737, 0), (0.07845897, 0.99691737, 0), (0.30901682, 0.9510566, 0), (0.30901682, 0.9510566, 0), (0.03266788, 0.03936537, 0.9986907), (0.022831596, 0.062380128, 0.99779123), (0.01810173, 0.06664821, 0.99761236), (0.030364154, 0.05023451, 0.99827576), (0.007619916, -0.011098572, -0.99990934), (0.0036821887, -0.011964076, -0.9999217), (0.0041439906, -0.011901358, -0.9999206), (0.008467451, -0.010816666, -0.99990565), (0.02282011, 0.062347796, -0.99779356), (0.032651067, 0.03934259, -0.99869215), (0.030348264, 0.050205477, -0.99827766), (0.018093187, 0.06661628, -0.9976146), (0.007624166, -0.011105013, 0.9999093), (0.011863839, -0.009320846, 0.99988616), (0.013161887, -0.008591452, 0.9998765), (0.008471455, -0.010822943, 0.9999055), (0.022831596, 0.062380128, 0.99779123), (0.0043816147, 0.07058358, 0.9974963), (0.006986815, 0.07132269, 0.99742883), (0.01810173, 0.06664821, 0.99761236), (0.011858752, -0.00931544, -0.9998863), (0.007619916, -0.011098572, -0.99990934), (0.008467451, -0.010816666, -0.99990565), (0.013155527, -0.008586469, -0.99987656), (0.004379933, 0.070559226, -0.997498), (0.02282011, 0.062347796, -0.99779356), (0.018093187, 0.06661628, -0.9976146), (0.006984138, 0.071295775, -0.9974307), (0.011863839, -0.009320846, 0.99988616), (0.016499724, -0.006250664, 0.9998444), (0.018321432, -0.0046907463, 0.9998212), (0.013161887, -0.008591452, 0.9998765), (0.016494118, -0.006247037, -0.99984443), (0.011858752, -0.00931544, -0.9998863), (0.013155527, -0.008586469, -0.99987656), (0.018318677, -0.004688023, -0.99982125), (0.016499724, -0.006250664, 0.9998444), (0.021579688, -0.0012372684, 0.99976635), (0.023926416, 0.0018131919, 0.9997121), (0.018321432, -0.0046907463, 0.9998212), (9.70074e-9, 0, -1), (9.700744e-9, 0, -1), (2.0479161e-8, 0, -1), (2.0479161e-8, 0, -1), (2.0479161e-8, 0, -1), (2.0479161e-8, 0, -1), (2.0479161e-8, 0, -1), (2.0479161e-8, 0, -1), (2.0479161e-8, 0, -1), (2.0479161e-8, 0, -1), (2.0479161e-8, 0, -1), (5.0462257e-9, 0, 1), (5.0461746e-9, 0, 1), (2.8266978e-8, 0, 1), (2.8266928e-8, 0, 1), (0.078459434, -0.99691737, 0), (0.078459434, -0.99691737, 0), (3.026667e-7, -1, 0), (3.026667e-7, -1, 0), (0.07845924, -0.9969173, 0), (0.07845924, -0.9969173, 0), (3.0266742e-7, -1, 0), (3.0266742e-7, -1, 0), (0.0010415369, -0.012157449, -0.99992555), (0.0008835749, -0.012149618, -0.9999258), (-1.4895603e-9, -0.012105823, -0.9999267), (-1.4895015e-9, -0.012105823, -0.9999267), (9.700744e-9, 0, -1), (9.70074e-9, 0, -1), (7.6839035e-10, 0, -1), (7.6838996e-10, 0, -1), (0.07845937, -0.99691737, 0), (0.07845937, -0.99691737, 0), (3.0209424e-7, -1, 0), (3.0209424e-7, -1, 0), (0.078458846, 0.99691737, 0), (0.07845885, 0.99691737, 0), (-3.0266733e-7, 1, 0), (-3.0266733e-7, 1, 0), (0.07845897, 0.99691737, 0), (0.07845897, 0.99691737, 0), (-3.0209415e-7, 1, 0), (-3.0209415e-7, 1, 0), (0.004379933, 0.070559226, -0.997498), (0.006984138, 0.071295775, -0.9974307), (-2.2306006e-8, 0.069319695, -0.99759454), (-2.2305995e-8, 0.069319695, -0.99759454), (0.00088384846, -0.012156669, 0.99992573), (0.0010418813, -0.012164502, 0.99992543), (1.8775179e-8, -0.012112848, 0.9999267), (1.8775188e-8, -0.012112848, 0.9999267), (0.07845895, 0.99691737, 0), (0.07845895, 0.99691737, 0), (-3.0266733e-7, 1, 0), (-3.0266733e-7, 1, 0), (0.006986815, 0.07132269, 0.99742883), (0.0043816147, 0.07058358, 0.9974963), (7.2776216e-9, 0.069339715, 0.9975931), (7.277625e-9, 0.069339715, 0.9975931), (-0.07845961, 0.9969173, 0), (-0.30901724, 0.9510565, 0), (-0.30901724, 0.9510565, 0), (-0.07845961, 0.9969173, 0), (-0.30901724, 0.9510565, 0), (-0.58778507, 0.8090172, 0), (-0.58778507, 0.8090172, 0), (-0.30901724, 0.9510565, 0), (-0.58778507, 0.8090172, 0), (-0.8090176, 0.58778447, 0), (-0.8090176, 0.58778447, 0), (-0.58778507, 0.8090172, 0), (-0.8090176, 0.58778447, 0), (-0.9510567, 0.30901632, 0), (-0.9510567, 0.30901632, 0), (-0.8090176, 0.58778447, 0), (-0.9510567, 0.30901632, 0), (-1, 0, 0), (-1, 0, 0), (-0.9510567, 0.30901632, 0), (-1, 0, 0), (-0.95105636, -0.30901757, 0), (-0.95105636, -0.30901757, 0), (-1, 0, 0), (-0.95105636, -0.30901757, 0), (-0.8090168, -0.58778554, 0), (-0.8090168, -0.58778554, 0), (-0.95105636, -0.30901757, 0), (-0.8090168, -0.58778554, 0), (-0.58778495, -0.80901724, 0), (-0.58778495, -0.80901724, 0), (-0.8090168, -0.58778554, 0), (-0.58778495, -0.80901724, 0), (-0.30901673, -0.9510566, 0), (-0.30901673, -0.9510566, 0), (-0.58778495, -0.80901724, 0), (-0.30901673, -0.9510566, 0), (-0.07845895, -0.99691737, 0), (-0.07845895, -0.99691737, 0), (-0.30901673, -0.9510566, 0), (0, 0, 1), (0, 0, 1), (0, 0, 1), (0, 0, 1), (0, 0, 1), (0, 0, 1), (0, 0, 1), (0, 0, 1), (0, 0, 1), (-4.3196945e-8, 0, 1), (-4.3196955e-8, 0, 1), (-0.0036844213, -0.011971006, 0.99992156), (-0.0041466174, -0.01190826, 0.99992055), (-0.008471102, -0.010822962, 0.9999055), (-0.0076237284, -0.011105036, 0.9999093), (-0.032647077, 0.039342526, -0.99869233), (-0.030346036, 0.05020554, -0.9982777), (-0.033036053, 0.028898945, -0.9990363), (-0.031588063, 0.01978012, -0.99930525), (-0.003682503, -0.01196408, -0.9999217), (-0.0041444865, -0.01190137, -0.9999206), (-0.001041335, -0.012157436, -0.99992555), (-0.0008834048, -0.012149608, -0.9999258), (-0.031606942, 0.019791614, 0.99930435), (-0.033054456, 0.028915796, 0.9990352), (-0.030368797, 0.05023465, 0.99827564), (-0.032666773, 0.039365437, 0.9986908), (-0.0008838256, -0.012156651, 0.99992573), (-0.0010418603, -0.012164479, 0.99992543), (-0.0041466174, -0.01190826, 0.99992055), (-0.0036844213, -0.011971006, 0.99992156), (-0.031588063, 0.01978012, -0.99930525), (-0.033036053, 0.028898945, -0.9990363), (-0.029433899, 0.0124277035, -0.9994895), (-0.026902497, 0.0068476815, -0.9996146), (-0.30901635, -0.9510568, 0), (-0.078458436, -0.99691737, 0), (-0.078458436, -0.99691737, 0), (-0.30901635, -0.9510568, 0), (-0.026919713, 0.006851656, 0.99961406), (-0.029452287, 0.0124349035, 0.99948883), (-0.033054456, 0.028915796, 0.9990352), (-0.031606942, 0.019791614, 0.99930435), (-0.5877848, -0.8090173, 0), (-0.30901635, -0.9510568, 0), (-0.30901635, -0.9510568, 0), (-0.5877848, -0.8090173, 0), (-0.80901676, -0.5877856, 0), (-0.5877848, -0.8090173, 0), (-0.5877848, -0.8090173, 0), (-0.80901676, -0.5877856, 0), (-0.95105636, -0.3090175, 0), (-0.80901676, -0.5877856, 0), (-0.80901676, -0.5877856, 0), (-0.95105636, -0.3090175, 0), (-0.026902497, 0.0068476815, -0.9996146), (-0.029433899, 0.0124277035, -0.9994895), (-0.023912858, 0.0018121408, -0.99971235), (-0.02157347, -0.0012365503, -0.9997665), (-1, 0, 0), (-0.95105636, -0.3090175, 0), (-0.95105636, -0.3090175, 0), (-1, 0, 0), (-0.9510568, 0.3090163, 0), (-1, 0, 0), (-1, 0, 0), (-0.9510568, 0.3090163, 0), (-0.8090181, 0.58778375, 0), (-0.9510568, 0.3090163, 0), (-0.9510568, 0.3090163, 0), (-0.8090181, 0.58778375, 0), (-0.021582868, -0.0012372688, 0.9997663), (-0.023926416, 0.0018131934, 0.9997121), (-0.029452287, 0.0124349035, 0.99948883), (-0.026919713, 0.006851656, 0.99961406), (-0.5877858, 0.8090165, 0), (-0.8090181, 0.58778375, 0), (-0.8090181, 0.58778375, 0), (-0.5877858, 0.8090165, 0), (-0.30901694, 0.95105654, 0), (-0.5877858, 0.8090165, 0), (-0.5877858, 0.8090165, 0), (-0.30901694, 0.95105654, 0), (-0.07845916, 0.9969173, 0), (-0.30901694, 0.95105654, 0), (-0.30901694, 0.95105654, 0), (-0.07845915, 0.9969173, 0), (-0.02157347, -0.0012365503, -0.9997665), (-0.023912858, 0.0018121408, -0.99971235), (-0.018318515, -0.0046880166, -0.99982125), (-0.016495379, -0.0062470254, -0.99984443), (-0.3090167, -0.9510566, 0), (-0.07845889, -0.99691737, 0), (-0.07845889, -0.99691737, 0), (-0.3090167, -0.9510566, 0), (-0.58778495, -0.80901724, 0), (-0.3090167, -0.9510566, 0), (-0.3090167, -0.9510566, 0), (-0.58778495, -0.80901724, 0), (-0.80901706, -0.5877852, 0), (-0.58778495, -0.80901724, 0), (-0.58778495, -0.80901724, 0), (-0.80901706, -0.5877852, 0), (-0.9510565, -0.30901712, 0), (-0.80901706, -0.5877852, 0), (-0.80901706, -0.5877852, 0), (-0.9510565, -0.30901712, 0), (-1, 0, 0), (-0.9510565, -0.30901712, 0), (-0.9510565, -0.30901712, 0), (-1, 0, 0), (-0.9510565, 0.30901712, 0), (-1, 0, 0), (-1, 0, 0), (-0.9510565, 0.30901712, 0), (-0.8090172, 0.587785, 0), (-0.9510565, 0.30901712, 0), (-0.9510565, 0.30901712, 0), (-0.8090172, 0.587785, 0), (-0.5877852, 0.80901706, 0), (-0.8090172, 0.587785, 0), (-0.8090172, 0.587785, 0), (-0.5877852, 0.80901706, 0), (-0.309017, 0.9510565, 0), (-0.5877852, 0.80901706, 0), (-0.5877852, 0.80901706, 0), (-0.309017, 0.9510565, 0), (-0.078459494, 0.9969173, 0), (-0.309017, 0.9510565, 0), (-0.309017, 0.9510565, 0), (-0.078459494, 0.9969173, 0), (-0.032666773, 0.039365437, 0.9986908), (-0.030368797, 0.05023465, 0.99827564), (-0.018106477, 0.06664844, 0.99761224), (-0.022837631, 0.062380552, 0.9977911), (-0.0076194587, -0.011098609, -0.99990946), (-0.008466168, -0.010816696, -0.99990565), (-0.0041444865, -0.01190137, -0.9999206), (-0.003682503, -0.01196408, -0.9999217), (-0.022819128, 0.062348124, -0.99779356), (-0.01809268, 0.06661638, -0.9976146), (-0.030346036, 0.05020554, -0.9982777), (-0.032647077, 0.039342526, -0.99869233), (-0.0076237284, -0.011105036, 0.9999093), (-0.008471102, -0.010822962, 0.9999055), (-0.013165572, -0.0085914545, 0.9998764), (-0.0118658105, -0.00932085, 0.99988616), (-0.022837631, 0.062380552, 0.9977911), (-0.018106477, 0.06664844, 0.99761224), (-0.006988357, 0.07132319, 0.9974288), (-0.004382573, 0.070584185, 0.9974962), (-0.011857651, -0.009315449, -0.99988633), (-0.013155945, -0.008586473, -0.99987656), (-0.008466168, -0.010816696, -0.99990565), (-0.0076194587, -0.011098609, -0.99990946), (-0.004379861, 0.07055977, -0.997498), (-0.0069840006, 0.071296155, -0.9974307), (-0.01809268, 0.06661638, -0.9976146), (-0.022819128, 0.062348124, -0.99779356), (-0.0118658105, -0.00932085, 0.99988616), (-0.013165572, -0.0085914545, 0.9998764), (-0.01832692, -0.0046907407, 0.99982107), (-0.016505506, -0.0062506534, 0.99984425), (-0.016495379, -0.0062470254, -0.99984443), (-0.018318515, -0.0046880166, -0.99982125), (-0.013155945, -0.008586473, -0.99987656), (-0.011857651, -0.009315449, -0.99988633), (-0.016505506, -0.0062506534, 0.99984425), (-0.01832692, -0.0046907407, 0.99982107), (-0.023926416, 0.0018131934, 0.9997121), (-0.021582868, -0.0012372688, 0.9997663), (-5.7395646e-8, 0, -1), (-1.2287498e-7, 0, -1), (-1.2287498e-7, 0, -1), (-1.2287498e-7, 0, -1), (-1.2287498e-7, 0, -1), (-1.2287498e-7, 0, -1), (-1.2287498e-7, 0, -1), (-1.2287498e-7, 0, -1), (-1.2287498e-7, 0, -1), (-1.2287498e-7, 0, -1), (-5.739562e-8, 0, -1), (-4.3196945e-8, 0, 1), (2.8266928e-8, 0, 1), (2.8266978e-8, 0, 1), (-4.3196955e-8, 0, 1), (-0.078458436, -0.99691737, 0), (3.026667e-7, -1, 0), (3.026667e-7, -1, 0), (-0.078458436, -0.99691737, 0), (-0.07845895, -0.99691737, 0), (3.0266742e-7, -1, 0), (3.0266742e-7, -1, 0), (-0.07845895, -0.99691737, 0), (-0.001041335, -0.012157436, -0.99992555), (-1.4895015e-9, -0.012105823, -0.9999267), (-1.4895603e-9, -0.012105823, -0.9999267), (-0.0008834048, -0.012149608, -0.9999258), (-5.739562e-8, 0, -1), (7.6838996e-10, 0, -1), (7.6839035e-10, 0, -1), (-5.7395646e-8, 0, -1), (-0.07845889, -0.99691737, 0), (3.0209424e-7, -1, 0), (3.0209424e-7, -1, 0), (-0.07845889, -0.99691737, 0), (-0.07845915, 0.9969173, 0), (-3.0266733e-7, 1, 0), (-3.0266733e-7, 1, 0), (-0.07845916, 0.9969173, 0), (-0.078459494, 0.9969173, 0), (-3.0209415e-7, 1, 0), (-3.0209415e-7, 1, 0), (-0.078459494, 0.9969173, 0), (-0.004379861, 0.07055977, -0.997498), (-2.2305995e-8, 0.069319695, -0.99759454), (-2.2306006e-8, 0.069319695, -0.99759454), (-0.0069840006, 0.071296155, -0.9974307), (-0.0008838256, -0.012156651, 0.99992573), (1.8775188e-8, -0.012112848, 0.9999267), (1.8775179e-8, -0.012112848, 0.9999267), (-0.0010418603, -0.012164479, 0.99992543), (-0.07845961, 0.9969173, 0), (-3.0266733e-7, 1, 0), (-3.0266733e-7, 1, 0), (-0.07845961, 0.9969173, 0), (-0.006988357, 0.07132319, 0.9974288), (7.277625e-9, 0.069339715, 0.9975931), (7.2776216e-9, 0.069339715, 0.9975931), (-0.004382573, 0.070584185, 0.9974962)] (
                interpolation = "faceVarying"
            )
            point3f[] points = [(1.0581727, 0.10220993, 1.0544423), (1.0897677, 0.13380487, 0.887268), (1.0581727, -0.10531167, 1.0544423), (1.0897677, -0.13690661, 0.887268), (0.8506509, 0.10220993, 1.0544423), (0.8190559, 0.13380487, 0.887268), (0.8506509, -0.10531167, 1.0544423), (0.8190559, -0.13690661, 0.887268), (0.74732846, -0.20863411, 0.7804992), (1.1614952, -0.20863411, 0.7804992), (1.1614952, 0.20553237, 0.7804992), (0.74732846, 0.20553237, 0.7804992), (0.83830243, -0.11766009, 0.67884094), (1.0705212, -0.11766009, 0.67884094), (1.0705212, 0.114558354, 0.67884094), (0.83830243, 0.114558354, 0.67884094), (1.0748097, 0.118846975, 0.61025053), (0.83401376, 0.118846975, 0.61025053), (0.83401376, -0.12194871, 0.61025053), (1.0748099, -0.12194871, 0.61025053), (0.75564075, -0.2003217, 0.30321404), (1.1531829, -0.2003217, 0.30321404), (1.1531829, 0.19721997, 0.30321404), (0.75564075, 0.19721997, 0.30321404), (0.7073515, -0.24861091, 0.28131917), (1.2014722, -0.24861091, 0.28131917), (1.2014722, 0.24550918, 0.28131917), (0.7073515, 0.24550918, 0.28131917), (0.7129857, -0.24297675, 0.21728706), (1.195838, -0.24297675, 0.21728706), (1.195838, 0.23987503, 0.21728706), (0.7129857, 0.23987503, 0.21728706), (0.77619916, -0.17976339, 0.19663157), (1.1326244, -0.17976339, 0.19663157), (1.1326244, 0.17666167, 0.19663157), (0.77619916, 0.17666167, 0.19663157), (0.77619916, -0.17976339, 0.12607971), (1.1326244, -0.17976339, 0.12607971), (1.1326244, 0.17666167, 0.12607971), (0.77619916, 0.17666167, 0.12607971), (0.802925, -0.15303758, 0.4752055), (0.7408416, -0.21512084, 0.3852769), (1.1679819, -0.21512084, 0.3852769), (1.1058986, -0.15303758, 0.4752055), (1.1679819, 0.2120191, 0.3852769), (1.1058985, 0.14993584, 0.4752055), (0.7408416, 0.2120191, 0.3852769), (0.802925, 0.14993584, 0.4752055), (0.77619916, -0.17976339, 0.005097603), (1.1326244, -0.17976339, 0.005097603), (1.1326244, 0.17666167, 0.005097603), (0.77619916, 0.17666167, 0.005097603), (1.3830076, -0.17976339, 0.07678198), (1.3830076, 0.17666167, 0.07678198), (1.3830076, -0.17976339, 0.005097603), (1.3830076, 0.17666167, 0.005097603), (1.5612379, -0.17976339, 0.07678198), (1.5612379, 0.17666167, 0.07678198), (1.5612379, -0.17976339, 0.005097603), (1.5612379, 0.17666167, 0.005097603), (0.77619916, -0.40394893, 0.061096214), (1.1326244, -0.40394893, 0.061096214), (1.1326244, 0.4008472, 0.061096214), (0.77619916, 0.4008472, 0.061096214), (0.77619916, -0.40394893, 0.005097603), (1.1326244, -0.40394893, 0.005097603), (1.1326244, 0.4008472, 0.005097603), (0.77619916, 0.4008472, 0.005097603), (0.77619916, -0.61465836, 0.061096214), (1.1326244, -0.61465836, 0.061096214), (1.1326244, 0.6115566, 0.061096214), (0.77619916, 0.6115566, 0.061096214), (0.77619916, -0.61465836, 0.005097603), (1.1326244, -0.61465836, 0.005097603), (1.1326244, 0.6115566, 0.005097603), (0.77619916, 0.6115566, 0.005097603), (-1.0581727, 0.10220993, 1.0544423), (-1.0897677, 0.13380487, 0.887268), (-1.0581727, -0.10531167, 1.0544423), (-1.0897677, -0.13690661, 0.887268), (-0.8506509, 0.10220993, 1.0544423), (-0.8190559, 0.13380487, 0.887268), (-0.8506509, -0.10531167, 1.0544423), (-0.8190559, -0.13690661, 0.887268), (-0.74732846, -0.20863411, 0.7804992), (-1.1614952, -0.20863411, 0.7804992), (-1.1614952, 0.20553237, 0.7804992), (-0.74732846, 0.20553237, 0.7804992), (-0.83830243, -0.11766009, 0.67884094), (-1.0705212, -0.11766009, 0.67884094), (-1.0705212, 0.114558354, 0.67884094), (-0.83830243, 0.114558354, 0.67884094), (-1.0748097, 0.118846975, 0.61025053), (-0.83401376, 0.118846975, 0.61025053), (-0.83401376, -0.12194871, 0.61025053), (-1.0748099, -0.12194871, 0.61025053), (-0.75564075, -0.2003217, 0.30321404), (-1.1531829, -0.2003217, 0.30321404), (-1.1531829, 0.19721997, 0.30321404), (-0.75564075, 0.19721997, 0.30321404), (-0.7073515, -0.24861091, 0.28131917), (-1.2014722, -0.24861091, 0.28131917), (-1.2014722, 0.24550918, 0.28131917), (-0.7073515, 0.24550918, 0.28131917), (-0.7129857, -0.24297675, 0.21728706), (-1.195838, -0.24297675, 0.21728706), (-1.195838, 0.23987503, 0.21728706), (-0.7129857, 0.23987503, 0.21728706), (-0.77619916, -0.17976339, 0.19663157), (-1.1326244, -0.17976339, 0.19663157), (-1.1326244, 0.17666167, 0.19663157), (-0.77619916, 0.17666167, 0.19663157), (-0.77619916, -0.17976339, 0.12607971), (-1.1326244, -0.17976339, 0.12607971), (-1.1326244, 0.17666167, 0.12607971), (-0.77619916, 0.17666167, 0.12607971), (-0.802925, -0.15303758, 0.4752055), (-0.7408416, -0.21512084, 0.3852769), (-1.1679819, -0.21512084, 0.3852769), (-1.1058986, -0.15303758, 0.4752055), (-1.1679819, 0.2120191, 0.3852769), (-1.1058985, 0.14993584, 0.4752055), (-0.7408416, 0.2120191, 0.3852769), (-0.802925, 0.14993584, 0.4752055), (-0.77619916, -0.17976339, 0.005097603), (-1.1326244, -0.17976339, 0.005097603), (-1.1326244, 0.17666167, 0.005097603), (-0.77619916, 0.17666167, 0.005097603), (0, 0.17666167, 0.12607971), (0, -0.17976339, 0.12607971), (0, 0.17666167, 0.005097603), (0, -0.17976339, 0.005097603), (-1.3830076, -0.17976339, 0.07678198), (-1.3830076, 0.17666167, 0.07678198), (-1.3830076, -0.17976339, 0.005097603), (-1.3830076, 0.17666167, 0.005097603), (-1.5612379, -0.17976339, 0.07678198), (-1.5612379, 0.17666167, 0.07678198), (-1.5612379, -0.17976339, 0.005097603), (-1.5612379, 0.17666167, 0.005097603), (-0.77619916, -0.40394893, 0.061096214), (-1.1326244, -0.40394893, 0.061096214), (-1.1326244, 0.4008472, 0.061096214), (-0.77619916, 0.4008472, 0.061096214), (-0.77619916, -0.40394893, 0.005097603), (-1.1326244, -0.40394893, 0.005097603), (-1.1326244, 0.4008472, 0.005097603), (-0.77619916, 0.4008472, 0.005097603), (-0.77619916, -0.61465836, 0.061096214), (-1.1326244, -0.61465836, 0.061096214), (-1.1326244, 0.6115566, 0.061096214), (-0.77619916, 0.6115566, 0.061096214), (-0.77619916, -0.61465836, 0.005097603), (-1.1326244, -0.61465836, 0.005097603), (-1.1326244, 0.6115566, 0.005097603), (-0.77619916, 0.6115566, 0.005097603), (0.8861895, 0.9704929, 1.0110872), (0.8861895, 0.9704929, 1.1262934), (1.1860887, 0.92299354, 1.0110872), (1.1860887, 0.92299354, 1.1262934), (1.4566314, 0.7851452, 1.0110872), (1.4566314, 0.7851452, 1.1262934), (1.6713355, 0.57044125, 1.0110872), (1.6713355, 0.57044125, 1.1262934), (1.809184, 0.29989842, 1.0110872), (1.809184, 0.29989842, 1.1262934), (1.8566833, -5.933402e-7, 1.0110872), (1.8566833, -5.933402e-7, 1.1262934), (1.809184, -0.29989967, 1.0110872), (1.809184, -0.29989967, 1.1262934), (1.6713355, -0.5704425, 1.0110872), (1.6713355, -0.5704425, 1.1262934), (1.4566314, -0.7851466, 1.0110872), (1.4566314, -0.7851466, 1.1262934), (1.1860883, -0.92299515, 1.0110872), (1.1860883, -0.92299515, 1.1262934), (0.8861892, -0.9704945, 1.0110872), (0.8861892, -0.9704945, 1.1262934), (0.8861895, 0.9704929, 1.0283817), (0.8861895, 0.9704929, 1.1089989), (1.1860887, 0.92299354, 1.1089989), (1.1860887, 0.92299354, 1.0283816), (1.4566314, 0.7851452, 1.1089989), (1.4566314, 0.7851452, 1.0283816), (1.6713355, 0.57044125, 1.1089989), (1.6713355, 0.57044125, 1.0283816), (1.809184, 0.29989842, 1.1089989), (1.809184, 0.29989842, 1.0283816), (1.8566833, -5.933402e-7, 1.1089989), (1.8566833, -5.933402e-7, 1.0283816), (1.809184, -0.29989967, 1.1089989), (1.809184, -0.29989967, 1.0283816), (1.6713355, -0.5704425, 1.1089989), (1.6713355, -0.5704425, 1.0283816), (1.4566314, -0.7851466, 1.1089989), (1.4566314, -0.7851466, 1.0283816), (1.1860883, -0.92299515, 1.1089989), (1.1860883, -0.92299515, 1.0283816), (0.8861892, -0.9704945, 1.1089989), (0.8861892, -0.9704945, 1.0283816), (0.88787204, 0.9645811, 1.0287926), (0.88787204, 0.9645811, 1.1085881), (1.181615, 0.9180568, 1.1085881), (1.181615, 0.9180568, 1.0287926), (1.4466044, 0.7830382, 1.1085881), (1.4466044, 0.7830382, 1.0287926), (1.6569012, 0.5727414, 1.1085881), (1.6569012, 0.5727414, 1.0287926), (1.79192, 0.30775204, 1.1085881), (1.79192, 0.30775204, 1.0287926), (1.8384442, 0.014009124, 1.1085881), (1.8384442, 0.014009124, 1.0287926), (1.79192, -0.27973387, 1.1085881), (1.79192, -0.27973387, 1.0287926), (1.6569012, -0.54472315, 1.1085881), (1.6569012, -0.54472315, 1.0287926), (1.4466044, -0.75502, 1.1085881), (1.4466044, -0.75502, 1.0287926), (1.1816149, -0.8900389, 1.1085881), (1.1816149, -0.8900389, 1.0287926), (0.8878718, -0.9365633, 1.1085881), (0.8878718, -0.9365633, 1.0287926), (-0.88619006, 0.97049236, 1.0110872), (-0.88619006, 0.97049236, 1.1262934), (-1.1860892, 0.9229929, 1.0110872), (-1.1860892, 0.9229929, 1.1262934), (-1.4566319, 0.78514445, 1.0110872), (-1.4566319, 0.78514445, 1.1262934), (-1.671336, 0.5704403, 1.0110872), (-1.671336, 0.5704403, 1.1262934), (-1.8091844, 0.2998974, 1.0110872), (-1.8091844, 0.2998974, 1.1262934), (-1.8566839, -0.0000016412388, 1.0110872), (-1.8566839, -0.0000016412388, 1.1262934), (-1.8091844, -0.29990068, 1.0110872), (-1.8091844, -0.29990068, 1.1262934), (-1.671336, -0.5704434, 1.0110872), (-1.671336, -0.5704434, 1.1262934), (-1.4566319, -0.7851474, 1.0110872), (-1.4566319, -0.7851474, 1.1262934), (-1.1860889, -0.92299587, 1.0110872), (-1.1860889, -0.92299587, 1.1262934), (-0.88618976, -0.97049505, 1.0110872), (-0.88618976, -0.97049505, 1.1262934), (-0.88619006, 0.97049236, 1.0283817), (-0.88619006, 0.97049236, 1.1089989), (-1.1860892, 0.9229929, 1.1089989), (-1.1860892, 0.9229929, 1.0283816), (-1.4566319, 0.78514445, 1.1089989), (-1.4566319, 0.78514445, 1.0283816), (-1.671336, 0.5704403, 1.1089989), (-1.671336, 0.5704403, 1.0283816), (-1.8091844, 0.2998974, 1.1089989), (-1.8091844, 0.2998974, 1.0283816), (-1.8566839, -0.0000016412388, 1.1089989), (-1.8566839, -0.0000016412388, 1.0283816), (-1.8091844, -0.29990068, 1.1089989), (-1.8091844, -0.29990068, 1.0283816), (-1.671336, -0.5704434, 1.1089989), (-1.671336, -0.5704434, 1.0283816), (-1.4566319, -0.7851474, 1.1089989), (-1.4566319, -0.7851474, 1.0283816), (-1.1860889, -0.92299587, 1.1089989), (-1.1860889, -0.92299587, 1.0283816), (-0.88618976, -0.97049505, 1.1089989), (-0.88618976, -0.97049505, 1.0283816), (-0.8878726, 0.96458054, 1.0287926), (-0.8878726, 0.96458054, 1.1085881), (-1.1816156, 0.9180561, 1.1085881), (-1.1816156, 0.9180561, 1.0287926), (-1.446605, 0.78303736, 1.1085881), (-1.446605, 0.78303736, 1.0287926), (-1.6569017, 0.5727405, 1.1085881), (-1.6569017, 0.5727405, 1.0287926), (-1.7919204, 0.30775103, 1.1085881), (-1.7919204, 0.30775103, 1.0287926), (-1.8384448, 0.014008087, 1.1085881), (-1.8384448, 0.014008087, 1.0287926), (-1.7919204, -0.27973488, 1.1085881), (-1.7919204, -0.27973488, 1.0287926), (-1.6569017, -0.5447241, 1.1085881), (-1.6569017, -0.5447241, 1.0287926), (-1.446605, -0.7550208, 1.1085881), (-1.446605, -0.7550208, 1.0287926), (-1.1816155, -0.89003956, 1.1085881), (-1.1816155, -0.89003956, 1.0287926), (-0.88787234, -0.93656385, 1.1085881), (-0.88787234, -0.93656385, 1.0287926), (-2.5241772e-7, 0.97049266, 1.0110872), (-2.5241772e-7, 0.97049266, 1.1262934), (-2.8501623e-7, -0.9704948, 1.0110872), (-2.8501623e-7, -0.9704948, 1.1262934), (-2.5241772e-7, 0.97049266, 1.0283817), (-2.5241772e-7, 0.97049266, 1.1089989), (-2.8501623e-7, -0.9704948, 1.1089989), (-2.8501623e-7, -0.9704948, 1.0283816), (-2.52517e-7, 0.96458083, 1.0287926), (-2.52517e-7, 0.96458083, 1.1085881), (-2.8444634e-7, -0.93656355, 1.1085881), (-2.8444634e-7, -0.93656355, 1.0287926)]
            uniform token subdivisionScheme = "none"
            custom string userProperties:blender:data_name = "Cylinder.013"
        }
    }

    def Scope "_materials"
    {
        def Material "Wood"
        {
            token outputs:surface.connect = </root/_materials/Wood/Principled_BSDF.outputs:surface>
            custom string userProperties:blender:data_name = "Wood"

            def Shader "Principled_BSDF"
            {
                uniform token info:id = "UsdPreviewSurface"
                float inputs:clearcoat = 0
                float inputs:clearcoatRoughness = 0.03
                color3f inputs:diffuseColor = (0.114435375, 0.08865559, 0.056128494)
                float inputs:ior = 1.5
                float inputs:metallic = 0
                float inputs:opacity = 1
                float inputs:roughness = 0.6900348
                float inputs:specular = 0.5
                token outputs:surface
            }
        }
    }
}

