#usda 1.0
(
    defaultPrim = "root"
    doc = "Blender v5.1.2"
    metersPerUnit = 1
    upAxis = "Y"
)

def Xform "root" (
    customData = {
        dictionary Blender = {
            bool generated = 1
        }
    }
)
{
    float3 xformOp:rotateXYZ = (-90, -0, 0)
    uniform token[] xformOpOrder = ["xformOp:rotateXYZ"]

    def Xform "Banner_2_Cloth"
    {
        custom string userProperties:blender:object_name = "Banner_2_Cloth"

        def Mesh "Cube_225" (
            active = true
            prepend apiSchemas = ["MaterialBindingAPI"]
        )
        {
            uniform bool doubleSided = 1
            float3[] extent = [(-0.40787917, -0.023020193, -1.9312706), (0.40228844, 0.033735294, -5.9604645e-8)]
            int[] faceVertexCounts = [4, 4, 4, 4, 4, 4, 4, 4, 4, 4, 4, 4, 4, 5, 4, 4, 5, 3, 4, 4, 3, 3, 4, 4, 4, 4, 4, 4, 4, 4, 8, 4, 4, 4, 4, 4, 4, 4, 4, 4, 4, 4, 4, 4, 4, 4, 4, 8, 4, 4, 4, 4, 4, 4, 4, 4]
            int[] faceVertexIndices = [5, 18, 23, 8, 9, 14, 15, 4, 4, 15, 21, 6, 18, 5, 7, 12, 14, 9, 0, 11, 22, 26, 3, 19, 16, 24, 26, 22, 6, 21, 20, 2, 12, 7, 2, 20, 10, 23, 33, 32, 14, 11, 27, 25, 22, 19, 20, 21, 16, 22, 21, 15, 18, 12, 13, 31, 29, 12, 20, 19, 13, 23, 10, 1, 8, 25, 28, 16, 15, 14, 28, 24, 16, 3, 30, 13, 19, 29, 33, 23, 18, 30, 31, 13, 29, 31, 17, 50, 35, 37, 51, 51, 37, 39, 52, 52, 39, 41, 53, 53, 41, 43, 54, 54, 43, 45, 55, 55, 45, 47, 56, 56, 47, 49, 57, 57, 49, 35, 50, 34, 36, 38, 40, 42, 44, 46, 48, 48, 57, 50, 34, 46, 56, 57, 48, 44, 55, 56, 46, 42, 54, 55, 44, 40, 53, 54, 42, 38, 52, 53, 40, 36, 51, 52, 38, 34, 50, 51, 36, 74, 59, 61, 75, 75, 61, 63, 76, 76, 63, 65, 77, 77, 65, 67, 78, 78, 67, 69, 79, 79, 69, 71, 80, 80, 71, 73, 81, 81, 73, 59, 74, 58, 60, 62, 64, 66, 68, 70, 72, 72, 81, 74, 58, 70, 80, 81, 72, 68, 79, 80, 70, 66, 78, 79, 68, 64, 77, 78, 66, 62, 76, 77, 64, 60, 75, 76, 62, 58, 74, 75, 60]
            rel material:binding = </root/_materials/MI_Trim_Metal>
            normal3f[] normals = [(0, -1, -4.6456677e-8), (0, -1, -4.6456677e-8), (0, -1, -4.6456677e-8), (0, -1, -4.6456677e-8), (0, -1, -4.645669e-8), (0, -1, -4.645669e-8), (0, -1, -4.645669e-8), (0, -1, -4.645669e-8), (-3.9707217e-14, -1, -4.6456698e-8), (-3.9707217e-14, -1, -4.6456698e-8), (-3.9707217e-14, -1, -4.6456698e-8), (-3.9707217e-14, -1, -4.6456698e-8), (0, -1, -4.645668e-8), (0, -1, -4.645668e-8), (0, -1, -4.645668e-8), (0, -1, -4.645668e-8), (-1.2503546e-14, -0.99999994, -4.6456687e-8), (-1.2503546e-14, -0.99999994, -4.6456687e-8), (-1.2503546e-14, -0.99999994, -4.6456687e-8), (-1.2503546e-14, -0.99999994, -4.6456687e-8), (0, -1, -4.6456623e-8), (0, -1, -4.6456623e-8), (0, -1, -4.6456623e-8), (0, -1, -4.6456623e-8), (0, -1, -4.6456627e-8), (0, -1, -4.6456627e-8), (0, -1, -4.6456627e-8), (0, -1, -4.6456627e-8), (0, -1, -4.645667e-8), (0, -1, -4.645667e-8), (0, -1, -4.645667e-8), (0, -1, -4.645667e-8), (0, -1, -4.6456663e-8), (0, -1, -4.6456663e-8), (0, -1, -4.6456663e-8), (0, -1, -4.6456663e-8), (-5.756988e-14, -1, -4.6456684e-8), (-5.756988e-14, -1, -4.6456684e-8), (-5.756988e-14, -1, -4.6456684e-8), (-5.756988e-14, -1, -4.6456684e-8), (7.726159e-14, -1, -4.6456673e-8), (7.726159e-14, -1, -4.6456673e-8), (7.726159e-14, -1, -4.6456673e-8), (7.726159e-14, -1, -4.6456673e-8), (0, -1, -4.6456666e-8), (0, -1, -4.6456666e-8), (0, -1, -4.6456666e-8), (0, -1, -4.6456666e-8), (-4.1920125e-14, -1, -4.645666e-8), (-4.1920125e-14, -1, -4.645666e-8), (-4.1920125e-14, -1, -4.645666e-8), (-4.1920125e-14, -1, -4.645666e-8), (1.6944042e-14, -1, -4.6456666e-8), (1.6944042e-14, -1, -4.6456666e-8), (1.6944042e-14, -1, -4.6456666e-8), (1.6944042e-14, -1, -4.6456666e-8), (1.6944042e-14, -1, -4.6456666e-8), (0, -1, -4.6456673e-8), (0, -1, -4.6456673e-8), (0, -1, -4.6456673e-8), (0, -1, -4.6456673e-8), (-1.9857263e-14, -1, -4.645665e-8), (-1.9857263e-14, -1, -4.645665e-8), (-1.9857263e-14, -1, -4.645665e-8), (-1.9857263e-14, -1, -4.645665e-8), (-2.5895056e-14, -1, -4.645667e-8), (-2.5895056e-14, -1, -4.645667e-8), (-2.5895056e-14, -1, -4.645667e-8), (-2.5895056e-14, -1, -4.645667e-8), (-2.5895056e-14, -1, -4.645667e-8), (0, -1, -4.6460823e-8), (0, -1, -4.6460823e-8), (0, -1, -4.6460823e-8), (0, -1, -4.6456606e-8), (0, -1, -4.6456606e-8), (0, -1, -4.6456606e-8), (0, -1, -4.6456606e-8), (2.7790434e-14, -1, -4.6456673e-8), (2.7790434e-14, -1, -4.6456673e-8), (2.7790434e-14, -1, -4.6456673e-8), (2.7790434e-14, -1, -4.6456673e-8), (0, -1, -4.6456755e-8), (0, -1, -4.6456755e-8), (0, -1, -4.6456755e-8), (0, -1, -4.645612e-8), (0, -1, -4.645612e-8), (0, -1, -4.645612e-8), (0.0019290672, -0.17939873, -0.98377454), (0.0013348722, 0.011825901, -0.99992913), (0.7076693, 0.016083667, -0.70636064), (0.69717896, -0.17473996, -0.69527507), (0.69717896, -0.17473996, -0.69527507), (0.7076693, 0.016083667, -0.70636064), (0.9998408, 0.017845474, -6.562281e-7), (0.98495466, -0.17281333, -2.4078423e-7), (0.98495466, -0.17281333, -2.4078423e-7), (0.9998408, 0.017845474, -6.562281e-7), (0.70766747, 0.016082956, 0.7063625), (0.6971787, -0.17473713, 0.6952761), (0.6971787, -0.17473713, 0.6952761), (0.70766747, 0.016082956, 0.7063625), (0.0013310686, 0.011822348, 0.99992925), (0.0019265932, -0.17939362, 0.9837755), (0.0019265932, -0.17939362, 0.9837755), (0.0013310686, 0.011822348, 0.99992925), (-0.7064111, 0.007554766, 0.70776147), (-0.69404876, -0.18405548, 0.69600284), (-0.69404876, -0.18405548, 0.69600284), (-0.7064111, 0.007554766, 0.70776147), (-0.99998325, 0.0057846084, 5.520706e-7), (-0.9825507, -0.1859951, -1.5333721e-7), (-0.9825507, -0.1859951, -1.5333721e-7), (-0.99998325, 0.0057846084, 5.520706e-7), (-0.706411, 0.0075568925, -0.7077616), (-0.69404733, -0.18405646, -0.6960039), (-0.69404733, -0.18405646, -0.6960039), (-0.706411, 0.0075568925, -0.7077616), (0.0013348722, 0.011825901, -0.99992913), (0.0019290672, -0.17939873, -0.98377454), (0.008272439, -0.7695121, -0.63857865), (0.45925626, -0.7652943, -0.45100802), (0.6457468, -0.7635516, -8.5775974e-7), (0.45925683, -0.7652915, 0.45101216), (0.00827077, -0.76950747, 0.63858426), (-0.44378474, -0.77373743, 0.45209008), (-0.6313588, -0.7754908, -7.0764753e-7), (-0.4437844, -0.7737398, -0.45208633), (-0.4437844, -0.7737398, -0.45208633), (-0.69404733, -0.18405646, -0.6960039), (0.0019290672, -0.17939873, -0.98377454), (0.008272439, -0.7695121, -0.63857865), (-0.6313588, -0.7754908, -7.0764753e-7), (-0.9825507, -0.1859951, -1.5333721e-7), (-0.69404733, -0.18405646, -0.6960039), (-0.4437844, -0.7737398, -0.45208633), (-0.44378474, -0.77373743, 0.45209008), (-0.69404876, -0.18405548, 0.69600284), (-0.9825507, -0.1859951, -1.5333721e-7), (-0.6313588, -0.7754908, -7.0764753e-7), (0.00827077, -0.76950747, 0.63858426), (0.0019265932, -0.17939362, 0.9837755), (-0.69404876, -0.18405548, 0.69600284), (-0.44378474, -0.77373743, 0.45209008), (0.45925683, -0.7652915, 0.45101216), (0.6971787, -0.17473713, 0.6952761), (0.0019265932, -0.17939362, 0.9837755), (0.00827077, -0.76950747, 0.63858426), (0.6457468, -0.7635516, -8.5775974e-7), (0.98495466, -0.17281333, -2.4078423e-7), (0.6971787, -0.17473713, 0.6952761), (0.45925683, -0.7652915, 0.45101216), (0.45925626, -0.7652943, -0.45100802), (0.69717896, -0.17473996, -0.69527507), (0.98495466, -0.17281333, -2.4078423e-7), (0.6457468, -0.7635516, -8.5775974e-7), (0.008272439, -0.7695121, -0.63857865), (0.0019290672, -0.17939873, -0.98377454), (0.69717896, -0.17473996, -0.69527507), (0.45925626, -0.7652943, -0.45100802), (0.9447973, -0.17939958, -0.2741785), (0.96013653, 0.011827367, -0.27928102), (0.8765452, 0.016086048, 0.4810507), (0.86296207, -0.17474045, 0.47409105), (0.86296207, -0.17474045, 0.47409105), (0.8765452, 0.016086048, 0.4810507), (0.28053772, 0.017846527, 0.9596771), (0.27636048, -0.17281389, 0.9453889), (0.27636048, -0.17281389, 0.9453889), (0.28053772, 0.017846527, 0.9596771), (-0.4794293, 0.01608361, 0.8774332), (-0.47173154, -0.17473736, 0.8642547), (-0.47173154, -0.17473736, 0.8642547), (-0.4794293, 0.01608361, 0.8774332), (-0.9593888, 0.011822729, 0.28183898), (-0.94371706, -0.17939311, 0.2778782), (-0.94371706, -0.17939311, 0.2778782), (-0.9593888, 0.011822729, 0.28183898), (-0.87753713, 0.0075546727, -0.47944924), (-0.8627822, -0.18405494, -0.47088295), (-0.8627822, -0.18405494, -0.47088295), (-0.87753713, 0.0075546727, -0.47944924), (-0.28057867, 0.005784797, -0.95981354), (-0.27568707, -0.18599479, -0.9430814), (-0.27568707, -0.18599479, -0.9430814), (-0.28057867, 0.005784797, -0.95981354), (0.4811245, 0.00755704, -0.87661964), (0.47330752, -0.18405715, -0.8614539), (0.47330752, -0.18405715, -0.8614539), (0.4811245, 0.00755704, -0.87661964), (0.96013653, 0.011827367, -0.27928102), (0.9447973, -0.17939958, -0.2741785), (0.61524564, -0.7695138, -0.17123494), (0.5617495, -0.76529515, 0.31426245), (0.18118529, -0.76355255, 0.619806), (-0.30403554, -0.76529175, 0.56735426), (-0.6106118, -0.76950747, 0.18711355), (-0.5584487, -0.7737367, -0.29910943), (-0.17714755, -0.7754907, -0.6059975), (0.3094072, -0.77374023, -0.5528048), (0.3094072, -0.77374023, -0.5528048), (0.47330752, -0.18405715, -0.8614539), (0.9447973, -0.17939958, -0.2741785), (0.61524564, -0.7695138, -0.17123494), (-0.17714755, -0.7754907, -0.6059975), (-0.27568707, -0.18599479, -0.9430814), (0.47330752, -0.18405715, -0.8614539), (0.3094072, -0.77374023, -0.5528048), (-0.5584487, -0.7737367, -0.29910943), (-0.8627822, -0.18405494, -0.47088295), (-0.27568707, -0.18599479, -0.9430814), (-0.17714755, -0.7754907, -0.6059975), (-0.6106118, -0.76950747, 0.18711355), (-0.94371706, -0.17939311, 0.2778782), (-0.8627822, -0.18405494, -0.47088295), (-0.5584487, -0.7737367, -0.29910943), (-0.30403554, -0.76529175, 0.56735426), (-0.47173154, -0.17473736, 0.8642547), (-0.94371706, -0.17939311, 0.2778782), (-0.6106118, -0.76950747, 0.18711355), (0.18118529, -0.76355255, 0.619806), (0.27636048, -0.17281389, 0.9453889), (-0.47173154, -0.17473736, 0.8642547), (-0.30403554, -0.76529175, 0.56735426), (0.5617495, -0.76529515, 0.31426245), (0.86296207, -0.17474045, 0.47409105), (0.27636048, -0.17281389, 0.9453889), (0.18118529, -0.76355255, 0.619806), (0.61524564, -0.7695138, -0.17123494), (0.9447973, -0.17939958, -0.2741785), (0.86296207, -0.17474045, 0.47409105), (0.5617495, -0.76529515, 0.31426245)] (
                interpolation = "faceVarying"
            )
            point3f[] points = [(-0.40787917, 6.459538e-8, -5.9604645e-8), (0.40228844, 6.4595376e-8, -5.9604645e-8), (-0.0027953386, 6.4595376e-8, -5.9604645e-8), (-0.0027953386, 1.5431577e-7, -1.9312706), (-0.18122512, 6.4595376e-8, -5.9604645e-8), (0.18821216, 6.4595376e-8, -5.9604645e-8), (-0.09201026, 6.4595376e-8, -5.9604645e-8), (0.09270835, 6.4595376e-8, -5.9604645e-8), (0.2952503, 6.4595376e-8, -5.9604645e-8), (-0.29455215, 6.4595376e-8, -5.9604645e-8), (0.40228844, 7.915504e-8, -0.3134033), (-0.40787917, 7.915505e-8, -0.3134033), (0.09270835, 7.915505e-8, -0.31340337), (0.09270835, 1.397561e-7, -1.6178672), (-0.29455215, 7.915506e-8, -0.31340337), (-0.18122512, 7.915506e-8, -0.31340337), (-0.18122506, 1.397561e-7, -1.6178672), (0.18821216, 1.397561e-7, -1.6178672), (0.18821216, 7.915505e-8, -0.31340337), (-0.0027953386, 1.397561e-7, -1.6178672), (-0.0027953386, 7.915505e-8, -0.31340337), (-0.09201026, 7.915505e-8, -0.31340337), (-0.0920102, 1.397561e-7, -1.6178672), (0.2952503, 7.915505e-8, -0.31340337), (-0.18122506, 1.3995836e-7, -1.622221), (-0.29455215, 1.3083948e-7, -1.4259331), (-0.0920102, 1.4713706e-7, -1.7767458), (-0.40787917, 1.2172059e-7, -1.2296453), (-0.18373883, 1.397561e-7, -1.6178672), (0.18821216, 1.3894628e-7, -1.6004355), (0.09270835, 1.4663104e-7, -1.7658534), (0.17814815, 1.397561e-7, -1.6178672), (0.40228844, 1.2172057e-7, -1.2296448), (0.29525054, 1.303334e-7, -1.4150395), (-0.35085452, -0.022765737, -0.10695183), (-0.3511932, 0.033427488, -0.111403346), (-0.33593988, -0.022585958, -0.10077381), (-0.3331313, 0.033645198, -0.10392153), (-0.32976222, -0.02251162, -0.08585888), (-0.32564962, 0.033735294, -0.08585888), (-0.33593988, -0.022585958, -0.07094377), (-0.33313143, 0.03364503, -0.06779611), (-0.35085452, -0.022765737, -0.06476581), (-0.3511932, 0.033427488, -0.060314298), (-0.3657689, -0.02294577, -0.07094383), (-0.3692553, 0.03320928, -0.06779623), (-0.3719467, -0.023020193, -0.08585888), (-0.37673688, 0.033119433, -0.08585888), (-0.3657689, -0.02294577, -0.10077381), (-0.3692553, 0.03320928, -0.10392153), (-0.35092747, -0.0106569035, -0.11192435), (-0.332497, -0.010434561, -0.10428989), (-0.32486308, -0.010342694, -0.08585888), (-0.332497, -0.010434561, -0.067427814), (-0.35092747, -0.0106569035, -0.059793532), (-0.36935782, -0.010878992, -0.06742787), (-0.37699187, -0.010971367, -0.08585888), (-0.36935782, -0.010878824, -0.10429001), (0.34831142, -0.022765737, -0.09164584), (0.3524891, 0.033427488, -0.09321992), (0.34656644, -0.022585958, -0.075596884), (0.35037565, 0.033645198, -0.07378433), (0.33398396, -0.02251162, -0.06548251), (0.33513784, 0.033735294, -0.061535113), (0.31793463, -0.022585958, -0.067227095), (0.31570143, 0.03364503, -0.06364828), (0.30782008, -0.022765737, -0.07980918), (0.30345237, 0.033427488, -0.078885235), (0.3095652, -0.02294577, -0.09585791), (0.30556583, 0.03320928, -0.098321095), (0.32214773, -0.023020193, -0.10597243), (0.3208037, 0.033119433, -0.11057019), (0.33819687, -0.02294577, -0.10422768), (0.34024, 0.03320928, -0.108457215), (0.35306382, -0.0106569035, -0.09311106), (0.35090733, -0.010434561, -0.07327885), (0.33535856, -0.010342694, -0.060780164), (0.3155259, -0.010434561, -0.062936), (0.30302703, -0.0106569035, -0.07848407), (0.30518353, -0.010878992, -0.09831614), (0.32073212, -0.010971367, -0.110814944), (0.34056485, -0.010878824, -0.10865901)]
            color4f[] primvars:Attribute = [(0.051269468, 0.12477184, 0.39157256, 1), (0.051269468, 0.12477184, 0.39157256, 1), (0.051269468, 0.12477184, 0.39157256, 1), (0.051269468, 0.12477184, 0.39157256, 1), (0.051269468, 0.12477184, 0.39157256, 1), (0.051269468, 0.12477184, 0.39157256, 1), (0.051269468, 0.12477184, 0.39157256, 1), (0.051269468, 0.12477184, 0.39157256, 1), (0.051269468, 0.12477184, 0.39157256, 1), (0.051269468, 0.12477184, 0.39157256, 1), (0.051269468, 0.12477184, 0.39157256, 1), (0.051269468, 0.12477184, 0.39157256, 1), (0.051269468, 0.12477184, 0.39157256, 1), (0.051269468, 0.12477184, 0.39157256, 1), (0.051269468, 0.12477184, 0.39157256, 1), (0.051269468, 0.12477184, 0.39157256, 1), (0.051269468, 0.12477184, 0.39157256, 1), (0.051269468, 0.12477184, 0.39157256, 1), (0.051269468, 0.12477184, 0.39157256, 1), (0.051269468, 0.12477184, 0.39157256, 1), (0.051269468, 0.12477184, 0.39157256, 1), (0.051269468, 0.12477184, 0.39157256, 1), (0.051269468, 0.12477184, 0.39157256, 1), (0.051269468, 0.12477184, 0.39157256, 1), (0.051269468, 0.12477184, 0.39157256, 1), (0.051269468, 0.12477184, 0.39157256, 1), (0.051269468, 0.12477184, 0.39157256, 1), (0.051269468, 0.12477184, 0.39157256, 1), (0.051269468, 0.12477184, 0.39157256, 1), (0.051269468, 0.12477184, 0.39157256, 1), (0.051269468, 0.12477184, 0.39157256, 1), (0.051269468, 0.12477184, 0.39157256, 1), (0.051269468, 0.12477184, 0.39157256, 1), (0.051269468, 0.12477184, 0.39157256, 1), (0.051269468, 0.12477184, 0.39157256, 1), (0.051269468, 0.12477184, 0.39157256, 1), (0.051269468, 0.12477184, 0.39157256, 1), (0.051269468, 0.12477184, 0.39157256, 1), (0.051269468, 0.12477184, 0.39157256, 1), (0.051269468, 0.12477184, 0.39157256, 1), (0.051269468, 0.12477184, 0.39157256, 1), (0.051269468, 0.12477184, 0.39157256, 1), (0.051269468, 0.12477184, 0.39157256, 1), (0.051269468, 0.12477184, 0.39157256, 1), (0.051269468, 0.12477184, 0.39157256, 1), (0.051269468, 0.12477184, 0.39157256, 1), (0.051269468, 0.12477184, 0.39157256, 1), (0.051269468, 0.12477184, 0.39157256, 1), (0.051269468, 0.12477184, 0.39157256, 1), (0.051269468, 0.12477184, 0.39157256, 1), (0.051269468, 0.12477184, 0.39157256, 1), (0.051269468, 0.12477184, 0.39157256, 1), (0.051269468, 0.12477184, 0.39157256, 1), (0.051269468, 0.12477184, 0.39157256, 1), (0.051269468, 0.12477184, 0.39157256, 1), (0.051269468, 0.12477184, 0.39157256, 1), (0.051269468, 0.12477184, 0.39157256, 1), (0.051269468, 0.12477184, 0.39157256, 1), (0.051269468, 0.12477184, 0.39157256, 1), (0.051269468, 0.12477184, 0.39157256, 1), (0.051269468, 0.12477184, 0.39157256, 1), (0.051269468, 0.12477184, 0.39157256, 1), (0.051269468, 0.12477184, 0.39157256, 1), (0.051269468, 0.12477184, 0.39157256, 1), (0.051269468, 0.12477184, 0.39157256, 1), (0.051269468, 0.12477184, 0.39157256, 1), (0.051269468, 0.12477184, 0.39157256, 1), (0.051269468, 0.12477184, 0.39157256, 1), (0.051269468, 0.12477184, 0.39157256, 1), (0.051269468, 0.12477184, 0.39157256, 1), (0.051269468, 0.12477184, 0.39157256, 1), (0.051269468, 0.12477184, 0.39157256, 1), (0.051269468, 0.12477184, 0.39157256, 1), (0.051269468, 0.12477184, 0.39157256, 1), (0.051269468, 0.12477184, 0.39157256, 1), (0.051269468, 0.12477184, 0.39157256, 1), (0.051269468, 0.12477184, 0.39157256, 1), (0.051269468, 0.12477184, 0.39157256, 1), (0.051269468, 0.12477184, 0.39157256, 1), (0.051269468, 0.12477184, 0.39157256, 1), (0.051269468, 0.12477184, 0.39157256, 1), (0.051269468, 0.12477184, 0.39157256, 1), (0.051269468, 0.12477184, 0.39157256, 1), (0.051269468, 0.12477184, 0.39157256, 1), (0.051269468, 0.12477184, 0.39157256, 1), (0.051269468, 0.12477184, 0.39157256, 1), (0.051269468, 0.12477184, 0.39157256, 1), (1, 1, 1, 1), (1, 1, 1, 1), (1, 1, 1, 1), (1, 1, 1, 1), (1, 1, 1, 1), (1, 1, 1, 1), (1, 1, 1, 1), (1, 1, 1, 1), (1, 1, 1, 1), (1, 1, 1, 1), (1, 1, 1, 1), (1, 1, 1, 1), (1, 1, 1, 1), (1, 1, 1, 1), (1, 1, 1, 1), (1, 1, 1, 1), (1, 1, 1, 1), (1, 1, 1, 1), (1, 1, 1, 1), (1, 1, 1, 1), (1, 1, 1, 1), (1, 1, 1, 1), (1, 1, 1, 1), (1, 1, 1, 1), (1, 1, 1, 1), (1, 1, 1, 1), (1, 1, 1, 1), (1, 1, 1, 1), (1, 1, 1, 1), (1, 1, 1, 1), (1, 1, 1, 1), (1, 1, 1, 1), (1, 1, 1, 1), (1, 1, 1, 1), (1, 1, 1, 1), (1, 1, 1, 1), (1, 1, 1, 1), (1, 1, 1, 1), (1, 1, 1, 1), (1, 1, 1, 1), (1, 1, 1, 1), (1, 1, 1, 1), (1, 1, 1, 1), (1, 1, 1, 1), (1, 1, 1, 1), (1, 1, 1, 1), (1, 1, 1, 1), (1, 1, 1, 1), (1, 1, 1, 1), (1, 1, 1, 1), (1, 1, 1, 1), (1, 1, 1, 1), (1, 1, 1, 1), (1, 1, 1, 1), (1, 1, 1, 1), (1, 1, 1, 1), (1, 1, 1, 1), (1, 1, 1, 1), (1, 1, 1, 1), (1, 1, 1, 1), (1, 1, 1, 1), (1, 1, 1, 1), (1, 1, 1, 1), (1, 1, 1, 1), (1, 1, 1, 1), (1, 1, 1, 1), (1, 1, 1, 1), (1, 1, 1, 1), (1, 1, 1, 1), (1, 1, 1, 1), (1, 1, 1, 1), (1, 1, 1, 1), (1, 1, 1, 1), (1, 1, 1, 1), (1, 1, 1, 1), (1, 1, 1, 1), (1, 1, 1, 1), (1, 1, 1, 1), (1, 1, 1, 1), (1, 1, 1, 1), (1, 1, 1, 1), (1, 1, 1, 1), (1, 1, 1, 1), (1, 1, 1, 1), (1, 1, 1, 1), (1, 1, 1, 1), (1, 1, 1, 1), (1, 1, 1, 1), (1, 1, 1, 1), (1, 1, 1, 1), (1, 1, 1, 1), (1, 1, 1, 1), (1, 1, 1, 1), (1, 1, 1, 1), (1, 1, 1, 1), (1, 1, 1, 1), (1, 1, 1, 1), (1, 1, 1, 1), (1, 1, 1, 1), (1, 1, 1, 1), (1, 1, 1, 1), (1, 1, 1, 1), (1, 1, 1, 1), (1, 1, 1, 1), (1, 1, 1, 1), (1, 1, 1, 1), (1, 1, 1, 1), (1, 1, 1, 1), (1, 1, 1, 1), (1, 1, 1, 1), (1, 1, 1, 1), (1, 1, 1, 1), (1, 1, 1, 1), (1, 1, 1, 1), (1, 1, 1, 1), (1, 1, 1, 1), (1, 1, 1, 1), (1, 1, 1, 1), (1, 1, 1, 1), (1, 1, 1, 1), (1, 1, 1, 1), (1, 1, 1, 1), (1, 1, 1, 1), (1, 1, 1, 1), (1, 1, 1, 1), (1, 1, 1, 1), (1, 1, 1, 1), (1, 1, 1, 1), (1, 1, 1, 1), (1, 1, 1, 1), (1, 1, 1, 1), (1, 1, 1, 1), (1, 1, 1, 1), (1, 1, 1, 1), (1, 1, 1, 1), (1, 1, 1, 1), (1, 1, 1, 1), (1, 1, 1, 1), (1, 1, 1, 1), (1, 1, 1, 1), (1, 1, 1, 1), (1, 1, 1, 1), (1, 1, 1, 1), (1, 1, 1, 1)] (
                interpolation = "faceVarying"
            )
            texCoord2f[] primvars:st = [(0.018447615, 0.99709326), (0.22748187, 0.99709326), (0.122964725, 0.9970932), (0.12296474, 0.6725384), (0.07692743, 0.9970932), (0.17224726, 0.9970932), (0.09994608, 0.9970932), (0.14760599, 0.9970932), (0.19986457, 0.9970932), (0.047687523, 0.9970932), (0.22748187, 0.9444251), (0.018447615, 0.94442505), (0.14760599, 0.944425), (0.14760602, 0.7252066), (0.047687523, 0.944425), (0.07692743, 0.944425), (0.076927446, 0.7252066), (0.17224728, 0.7252066), (0.17224726, 0.944425), (0.12296474, 0.7252066), (0.122964725, 0.944425), (0.09994608, 0.944425), (0.0999461, 0.7252066), (0.19986457, 0.944425), (0.076927446, 0.72447497), (0.047687523, 0.7574616), (0.0999461, 0.69850665), (0.018447615, 0.7904483), (0.07627886, 0.7252066), (0.17224728, 0.7281361), (0.14760602, 0.7003372), (0.16965063, 0.7252066), (0.22748187, 0.79044837), (0.19986463, 0.75929224), (0.9013667, 0.79943067), (0.9175265, 0.79250205), (0.9012262, 0.81134444), (0.9187784, 0.81800383), (0.89375573, 0.8205601), (0.90066046, 0.83762485), (0.88146013, 0.82137257), (0.87491506, 0.8384029), (0.87251246, 0.81286204), (0.85479796, 0.8205626), (0.8721339, 0.8007781), (0.85479796, 0.79274607), (0.8801062, 0.79168284), (0.8741277, 0.77419716), (0.8922882, 0.7913303), (0.89996034, 0.77499485), (0.9094466, 0.7959664), (0.91000235, 0.81467414), (0.8972081, 0.8290925), (0.87818754, 0.82988775), (0.8636552, 0.8167123), (0.8634659, 0.7967621), (0.8771169, 0.78294003), (0.8961242, 0.78316253), (0.9013667, 0.79943067), (0.9175265, 0.79250205), (0.9012262, 0.81134444), (0.9187784, 0.81800383), (0.89375573, 0.8205601), (0.90066046, 0.83762485), (0.88146013, 0.82137257), (0.87491506, 0.8384029), (0.87251246, 0.81286204), (0.85479796, 0.8205626), (0.8721339, 0.8007781), (0.85479796, 0.79274607), (0.8801062, 0.79168284), (0.8741277, 0.77419716), (0.8922882, 0.7913303), (0.89996034, 0.77499485), (0.9094466, 0.7959664), (0.91000235, 0.81467414), (0.8972081, 0.8290925), (0.87818754, 0.82988775), (0.8636552, 0.8167123), (0.8634659, 0.7967621), (0.8771169, 0.78294003), (0.8961242, 0.78316253)] (
                interpolation = "faceVarying"
            )
            int[] primvars:st:indices = [5, 18, 23, 8, 9, 14, 15, 4, 4, 15, 21, 6, 18, 5, 7, 12, 14, 9, 0, 11, 22, 26, 3, 19, 16, 24, 26, 22, 6, 21, 20, 2, 12, 7, 2, 20, 10, 23, 33, 32, 14, 11, 27, 25, 22, 19, 20, 21, 16, 22, 21, 15, 18, 12, 13, 31, 29, 12, 20, 19, 13, 23, 10, 1, 8, 25, 28, 16, 15, 14, 28, 24, 16, 3, 30, 13, 19, 29, 33, 23, 18, 30, 31, 13, 29, 31, 17, 50, 35, 37, 51, 51, 37, 39, 52, 52, 39, 41, 53, 53, 41, 43, 54, 54, 43, 45, 55, 55, 45, 47, 56, 56, 47, 49, 57, 57, 49, 35, 50, 34, 36, 38, 40, 42, 44, 46, 48, 48, 57, 50, 34, 46, 56, 57, 48, 44, 55, 56, 46, 42, 54, 55, 44, 40, 53, 54, 42, 38, 52, 53, 40, 36, 51, 52, 38, 34, 50, 51, 36, 74, 59, 61, 75, 75, 61, 63, 76, 76, 63, 65, 77, 77, 65, 67, 78, 78, 67, 69, 79, 79, 69, 71, 80, 80, 71, 73, 81, 81, 73, 59, 74, 58, 60, 62, 64, 66, 68, 70, 72, 72, 81, 74, 58, 70, 80, 81, 72, 68, 79, 80, 70, 66, 78, 79, 68, 64, 77, 78, 66, 62, 76, 77, 64, 60, 75, 76, 62, 58, 74, 75, 60]
            texCoord2f[] primvars:UV2 = [(0.64599353, 0.46064442), (0.64599353, 0.3343094), (0.64599353, 0.39747688), (0.39181995, 0.39747694), (0.64599353, 0.4253007), (0.64599353, 0.3676918), (0.64599353, 0.41138878), (0.64599353, 0.38258436), (0.64599353, 0.35100058), (0.64599353, 0.44297257), (0.64410514, 0.3343094), (0.64410514, 0.46064442), (0.64410514, 0.38258436), (0.44069114, 0.38258436), (0.64410514, 0.44297257), (0.64410514, 0.4253007), (0.44069114, 0.4253007), (0.44069114, 0.3676918), (0.64410514, 0.3676918), (0.44069114, 0.39747694), (0.64410514, 0.39747688), (0.64410514, 0.41138878), (0.44069114, 0.41138884), (0.64410514, 0.35100058), (0.4400122, 0.4253007), (0.47062075, 0.44297257), (0.4159161, 0.41138884), (0.5012293, 0.46064448), (0.44069114, 0.4256927), (0.44340932, 0.3676918), (0.4176146, 0.38258436), (0.44069114, 0.36926115), (0.5012293, 0.3343094), (0.47231942, 0.35100052), (0.9013667, 0.79943067), (0.9175265, 0.79250205), (0.9012262, 0.81134444), (0.9187784, 0.81800383), (0.89375573, 0.8205601), (0.90066046, 0.83762485), (0.88146013, 0.82137257), (0.87491506, 0.8384029), (0.87251246, 0.81286204), (0.85479796, 0.8205626), (0.8721339, 0.8007781), (0.85479796, 0.79274607), (0.8801062, 0.79168284), (0.8741277, 0.77419716), (0.8922882, 0.7913303), (0.89996034, 0.77499485), (0.9094466, 0.7959664), (0.91000235, 0.81467414), (0.8972081, 0.8290925), (0.87818754, 0.82988775), (0.8636552, 0.8167123), (0.8634659, 0.7967621), (0.8771169, 0.78294003), (0.8961242, 0.78316253), (0.9013667, 0.79943067), (0.9175265, 0.79250205), (0.9012262, 0.81134444), (0.9187784, 0.81800383), (0.89375573, 0.8205601), (0.90066046, 0.83762485), (0.88146013, 0.82137257), (0.87491506, 0.8384029), (0.87251246, 0.81286204), (0.85479796, 0.8205626), (0.8721339, 0.8007781), (0.85479796, 0.79274607), (0.8801062, 0.79168284), (0.8741277, 0.77419716), (0.8922882, 0.7913303), (0.89996034, 0.77499485), (0.9094466, 0.7959664), (0.91000235, 0.81467414), (0.8972081, 0.8290925), (0.87818754, 0.82988775), (0.8636552, 0.8167123), (0.8634659, 0.7967621), (0.8771169, 0.78294003), (0.8961242, 0.78316253)] (
                interpolation = "faceVarying"
            )
            int[] primvars:UV2:indices = [5, 18, 23, 8, 9, 14, 15, 4, 4, 15, 21, 6, 18, 5, 7, 12, 14, 9, 0, 11, 22, 26, 3, 19, 16, 24, 26, 22, 6, 21, 20, 2, 12, 7, 2, 20, 10, 23, 33, 32, 14, 11, 27, 25, 22, 19, 20, 21, 16, 22, 21, 15, 18, 12, 13, 31, 29, 12, 20, 19, 13, 23, 10, 1, 8, 25, 28, 16, 15, 14, 28, 24, 16, 3, 30, 13, 19, 29, 33, 23, 18, 30, 31, 13, 29, 31, 17, 50, 35, 37, 51, 51, 37, 39, 52, 52, 39, 41, 53, 53, 41, 43, 54, 54, 43, 45, 55, 55, 45, 47, 56, 56, 47, 49, 57, 57, 49, 35, 50, 34, 36, 38, 40, 42, 44, 46, 48, 48, 57, 50, 34, 46, 56, 57, 48, 44, 55, 56, 46, 42, 54, 55, 44, 40, 53, 54, 42, 38, 52, 53, 40, 36, 51, 52, 38, 34, 50, 51, 36, 74, 59, 61, 75, 75, 61, 63, 76, 76, 63, 65, 77, 77, 65, 67, 78, 78, 67, 69, 79, 79, 69, 71, 80, 80, 71, 73, 81, 81, 73, 59, 74, 58, 60, 62, 64, 66, 68, 70, 72, 72, 81, 74, 58, 70, 80, 81, 72, 68, 79, 80, 70, 66, 78, 79, 68, 64, 77, 78, 66, 62, 76, 77, 64, 60, 75, 76, 62, 58, 74, 75, 60]
            uniform token subdivisionScheme = "none"
            uniform token subsetFamily:materialBind:familyType = "nonOverlapping"
            custom string userProperties:blender:data_name = "Cube.225"

            def GeomSubset "MI_Trim_Metal" (
                prepend apiSchemas = ["MaterialBindingAPI"]
            )
            {
                uniform token elementType = "face"
                uniform token familyName = "materialBind"
                int[] indices = [22, 23, 24, 25, 26, 27, 28, 29, 30, 31, 32, 33, 34, 35, 36, 37, 38, 39, 40, 41, 42, 43, 44, 45, 46, 47, 48, 49, 50, 51, 52, 53, 54, 55]
                rel material:binding = </root/_materials/MI_Trim_Metal>
            }

            def GeomSubset "MI_Banner" (
                prepend apiSchemas = ["MaterialBindingAPI"]
            )
            {
                uniform token elementType = "face"
                uniform token familyName = "materialBind"
                int[] indices = [0, 1, 2, 3, 4, 5, 6, 7, 8, 9, 10, 11, 12, 13, 14, 15, 16, 17, 18, 19, 20, 21]
                rel material:binding = </root/_materials/MI_Banner>
            }
        }
    }

    def Scope "_materials"
    {
        def Material "MI_Trim_Metal"
        {
            token outputs:surface.connect = </root/_materials/MI_Trim_Metal/Principled_BSDF.outputs:surface>
            custom string userProperties:blender:data_name = "MI_Trim_Metal"

            def Shader "Principled_BSDF"
            {
                uniform token info:id = "UsdPreviewSurface"
                float inputs:clearcoat = 0
                float inputs:clearcoatRoughness = 0.03
                color3f inputs:diffuseColor.connect = </root/_materials/MI_Trim_Metal/Image_Texture.outputs:rgb>
                float inputs:ior = 1.5
                float inputs:metallic = 0
                normal3f inputs:normal.connect = </root/_materials/MI_Trim_Metal/Image_Texture_001.outputs:rgb>
                float inputs:opacity = 1
                float inputs:roughness = 0.8727273
                float inputs:specular = 0.5
                token outputs:surface
            }

            def Shader "Image_Texture"
            {
                uniform token info:id = "UsdUVTexture"
                token inputs:sourceColorSpace = "sRGB"
                float2 inputs:st.connect = </root/_materials/MI_Trim_Metal/uvmap.outputs:result>
                token inputs:wrapS = "repeat"
                token inputs:wrapT = "repeat"
                float3 outputs:rgb
            }

            def Shader "uvmap"
            {
                uniform token info:id = "UsdPrimvarReader_float2"
                string inputs:varname = "st"
                float2 outputs:result
            }

            def Shader "Image_Texture_001"
            {
                uniform token info:id = "UsdUVTexture"
                float4 inputs:bias = (-1, -1, -1, -1)
                float4 inputs:scale = (2, 2, 2, 2)
                token inputs:sourceColorSpace = "raw"
                float2 inputs:st.connect = </root/_materials/MI_Trim_Metal/uvmap.outputs:result>
                token inputs:wrapS = "repeat"
                token inputs:wrapT = "repeat"
                float3 outputs:rgb
            }
        }

        def Material "MI_Banner"
        {
            token outputs:surface.connect = </root/_materials/MI_Banner/Principled_BSDF.outputs:surface>
            custom string userProperties:blender:data_name = "MI_Banner"

            def Shader "Principled_BSDF"
            {
                uniform token info:id = "UsdPreviewSurface"
                float inputs:clearcoat = 0
                float inputs:clearcoatRoughness = 0.03
                color3f inputs:diffuseColor.connect = </root/_materials/MI_Banner/Image_Texture.outputs:rgb>
                float inputs:ior = 1.5
                float inputs:metallic = 0
                normal3f inputs:normal.connect = </root/_materials/MI_Banner/Image_Texture_001.outputs:rgb>
                float inputs:opacity = 1
                float inputs:roughness = 0.5
                float inputs:specular = 0.5
                token outputs:surface
            }

            def Shader "Image_Texture"
            {
                uniform token info:id = "UsdUVTexture"
                token inputs:sourceColorSpace = "sRGB"
                float2 inputs:st.connect = </root/_materials/MI_Banner/uvmap.outputs:result>
                token inputs:wrapS = "repeat"
                token inputs:wrapT = "repeat"
                float3 outputs:rgb
            }

            def Shader "uvmap"
            {
                uniform token info:id = "UsdPrimvarReader_float2"
                string inputs:varname = "st"
                float2 outputs:result
            }

            def Shader "Image_Texture_001"
            {
                uniform token info:id = "UsdUVTexture"
                float4 inputs:bias = (-1, -1, -1, -1)
                float4 inputs:scale = (2, 2, 2, 2)
                token inputs:sourceColorSpace = "raw"
                float2 inputs:st.connect = </root/_materials/MI_Banner/uvmap.outputs:result>
                token inputs:wrapS = "repeat"
                token inputs:wrapT = "repeat"
                float3 outputs:rgb
            }
        }
    }
}

