#usda 1.0
(
    defaultPrim = "root"
    doc = "Blender v5.1.2"
    metersPerUnit = 1
    upAxis = "Y"
)

def Xform "root" (
    customData = {
        dictionary Blender = {
            bool generated = 1
        }
    }
)
{
    float3 xformOp:rotateXYZ = (-90, -0, 0)
    uniform token[] xformOpOrder = ["xformOp:rotateXYZ"]

    def Xform "BookGroup_Small_1"
    {
        custom string userProperties:blender:object_name = "BookGroup_Small_1"

        def Mesh "Cube_146" (
            active = true
            prepend apiSchemas = ["MaterialBindingAPI"]
        )
        {
            uniform bool doubleSided = 1
            float3[] extent = [(-0.17293853, -0.104730666, -0.0045157843), (0.11639434, 0.1208561, 0.29374447)]
            int[] faceVertexCounts = [4, 4, 4, 4, 4, 4, 4, 4, 4, 4, 4, 4, 4, 4, 4, 4, 4, 4, 4, 4, 4, 4, 4, 4, 4, 4, 4, 4, 4, 4, 4, 4, 4, 4, 4, 4, 4, 4, 4, 4, 4, 4, 4, 4, 4, 4, 4, 4, 4, 4, 4, 4]
            int[] faceVertexIndices = [7, 4, 10, 8, 9, 11, 5, 6, 0, 7, 8, 2, 3, 9, 6, 1, 6, 14, 16, 1, 6, 5, 12, 14, 15, 7, 0, 17, 2, 18, 17, 0, 19, 3, 1, 16, 15, 14, 12, 13, 17, 16, 14, 15, 16, 17, 18, 19, 15, 13, 4, 7, 27, 24, 30, 28, 29, 31, 25, 26, 20, 27, 28, 22, 23, 29, 26, 21, 26, 34, 36, 21, 26, 25, 32, 34, 35, 27, 20, 37, 22, 38, 37, 20, 39, 23, 21, 36, 35, 34, 32, 33, 37, 36, 34, 35, 36, 37, 38, 39, 35, 33, 24, 27, 47, 44, 50, 48, 49, 51, 45, 46, 40, 47, 48, 42, 43, 49, 46, 41, 46, 54, 56, 41, 46, 45, 52, 54, 55, 47, 40, 57, 42, 58, 57, 40, 59, 43, 41, 56, 55, 54, 52, 53, 57, 56, 54, 55, 56, 57, 58, 59, 55, 53, 44, 47, 67, 64, 70, 68, 69, 71, 65, 66, 60, 67, 68, 62, 63, 69, 66, 61, 66, 74, 76, 61, 66, 65, 72, 74, 75, 67, 60, 77, 62, 78, 77, 60, 79, 63, 61, 76, 75, 74, 72, 73, 77, 76, 74, 75, 76, 77, 78, 79, 75, 73, 64, 67]
            rel material:binding = </root/_materials/MI_Trim_Props_Vertex>
            normal3f[] normals = [(0.99998593, 0.0041015223, -0.0033725463), (0.99998593, 0.0041015223, -0.0033725463), (0.99998593, 0.0041015223, -0.0033725463), (0.99998593, 0.0041015223, -0.0033725463), (-0.9999859, -0.0041015632, 0.0033736809), (-0.9999859, -0.0041015632, 0.0033736809), (-0.9999859, -0.0041015632, 0.0033736809), (-0.9999859, -0.0041015632, 0.0033736809), (0.0025575967, 0.0009761205, 0.9999962), (0.002469309, 0.0007947308, 0.9999967), (0.0028607755, 0.0010818834, 0.9999954), (0.0026288494, 0.0010709192, 0.999996), (0.003107406, 0.0010729638, 0.99999464), (0.00286504, 0.001082022, 0.9999953), (0.0032692312, 0.00079474575, 0.9999944), (0.0031795292, 0.0009779786, 0.9999944), (0.0032692312, 0.00079474575, 0.9999944), (0.0030756567, 0.00068820216, 0.99999505), (0.003142181, 0.0008238824, 0.9999947), (0.0031795292, 0.0009779786, 0.9999944), (-0.6253224, -0.7803588, 0.0034884582), (-0.6253224, -0.7803588, 0.0034884582), (-0.32892105, -0.94435316, 0.0028324833), (-0.32940397, -0.9441848, 0.0028337366), (0.002668032, 0.0006880768, 0.99999624), (0.002469309, 0.0007947308, 0.9999967), (0.0025575967, 0.0009761205, 0.9999962), (0.0025987334, 0.0008233837, 0.9999963), (0.0026288494, 0.0010709192, 0.999996), (0.0026312573, 0.0010512226, 0.999996), (0.0025987334, 0.0008233837, 0.9999963), (0.0025575967, 0.0009761205, 0.9999962), (0.0031077012, 0.0010531947, 0.99999464), (0.003107406, 0.0010729638, 0.99999464), (0.0031795292, 0.0009779786, 0.9999944), (0.003142181, 0.0008238824, 0.9999947), (0.33681783, -0.9415696, 0.0005859503), (-0.32940397, -0.9441848, 0.0028337366), (-0.32892105, -0.94435316, 0.0028324833), (0.33670416, -0.9416104, 0.00058642274), (0.0025987334, 0.0008233837, 0.9999963), (0.003142181, 0.0008238824, 0.9999947), (0.0030756567, 0.00068820216, 0.99999505), (0.002668032, 0.0006880768, 0.99999624), (0.003142181, 0.0008238824, 0.9999947), (0.0025987334, 0.0008233837, 0.9999963), (0.0026312573, 0.0010512226, 0.999996), (0.0031077012, 0.0010531947, 0.99999464), (0.33681783, -0.9415696, 0.0005859503), (0.33670416, -0.9416104, 0.00058642274), (0.6305326, -0.7761623, -0.00074732315), (0.6305326, -0.7761623, -0.00074732315), (0.9999854, 0.0041013006, -0.0035042826), (0.9999854, 0.0041013006, -0.0035042826), (0.9999854, 0.0041013006, -0.0035042826), (0.9999854, 0.0041013006, -0.0035042826), (-0.9999855, -0.0041013523, 0.003505533), (-0.9999855, -0.0041013523, 0.003505533), (-0.9999855, -0.0041013523, 0.003505533), (-0.9999855, -0.0041013523, 0.003505533), (0.0025578234, 0.000976373, 0.9999962), (0.0024682689, 0.0007953394, 0.9999966), (0.0028646227, 0.0010820364, 0.9999953), (0.0026300254, 0.0010709964, 0.999996), (0.0031046732, 0.0010729654, 0.99999464), (0.0028624577, 0.0010820404, 0.9999954), (0.0032695718, 0.0007957685, 0.9999944), (0.0031778275, 0.0009783258, 0.99999446), (0.0032695718, 0.0007957685, 0.9999944), (0.003075843, 0.0006879793, 0.99999505), (0.0031425525, 0.0008241405, 0.9999947), (0.0031778275, 0.0009783258, 0.99999446), (-0.6253228, -0.7803578, 0.0036249242), (-0.6253228, -0.7803578, 0.0036249242), (-0.3289403, -0.94434613, 0.002943303), (-0.32938522, -0.94419104, 0.0029445032), (0.0026665444, 0.0006876203, 0.99999624), (0.0024682689, 0.0007953394, 0.9999966), (0.0025578234, 0.000976373, 0.9999962), (0.0025975823, 0.00082340813, 0.9999963), (0.0026300254, 0.0010709964, 0.999996), (0.0026311665, 0.001051262, 0.999996), (0.0025975823, 0.00082340813, 0.9999963), (0.0025578234, 0.000976373, 0.9999962), (0.0031069238, 0.0010532264, 0.99999464), (0.0031046732, 0.0010729654, 0.99999464), (0.0031778275, 0.0009783258, 0.99999446), (0.0031425525, 0.0008241405, 0.9999947), (0.33684868, -0.94155866, 0.0006087367), (-0.32938522, -0.94419104, 0.0029445032), (-0.3289403, -0.94434613, 0.002943303), (0.33667386, -0.9416211, 0.0006094914), (0.0025975823, 0.00082340813, 0.9999963), (0.0031425525, 0.0008241405, 0.9999947), (0.003075843, 0.0006879793, 0.99999505), (0.0026665444, 0.0006876203, 0.99999624), (0.0031425525, 0.0008241405, 0.9999947), (0.0025975823, 0.00082340813, 0.9999963), (0.0026311665, 0.001051262, 0.999996), (0.0031069238, 0.0010532264, 0.99999464), (0.33684868, -0.94155866, 0.0006087367), (0.33667386, -0.9416211, 0.0006094914), (0.6305327, -0.7761623, -0.0007764939), (0.6305327, -0.7761623, -0.0007764939), (0.99997115, 0.0057055987, -0.0050319703), (0.99997115, 0.0057055987, -0.0050319703), (0.99997115, 0.0057055987, -0.0050319703), (0.99997115, 0.0057055987, -0.0050319703), (-0.99997103, -0.0057057184, 0.005034048), (-0.99997103, -0.0057057184, 0.005034048), (-0.99997103, -0.0057057184, 0.005034048), (-0.99997103, -0.0057057184, 0.005034048), (0.0018277748, 0.0009557574, 0.99999785), (0.0018178452, 0.0008352815, 0.999998), (0.002062764, 0.0010818843, 0.9999973), (0.0018905713, 0.0010708983, 0.9999977), (0.0022313558, 0.0010729085, 0.99999696), (0.0020579805, 0.001081956, 0.99999726), (0.0023087868, 0.000836331, 0.99999696), (0.002296845, 0.00095793064, 0.9999969), (0.0023087868, 0.000836331, 0.99999696), (0.0022253876, 0.000687316, 0.99999726), (0.0022573036, 0.00083394384, 0.99999714), (0.002296845, 0.00095793064, 0.9999969), (-0.49909872, -0.8665351, 0.004154802), (-0.49909872, -0.8665351, 0.004154802), (-0.2569428, -0.9664214, 0.003181653), (-0.2564737, -0.966546, 0.0031796296), (0.0019025462, 0.0006865791, 0.9999979), (0.0018178452, 0.0008352815, 0.999998), (0.0018277748, 0.0009557574, 0.99999785), (0.0018694192, 0.0008327853, 0.99999785), (0.0018905713, 0.0010708983, 0.9999977), (0.0018905455, 0.0010512468, 0.9999977), (0.0018694192, 0.0008327853, 0.99999785), (0.0018277748, 0.0009557574, 0.99999785), (0.0022337604, 0.0010532155, 0.99999696), (0.0022313558, 0.0010729085, 0.99999696), (0.002296845, 0.00095793064, 0.9999969), (0.0022573036, 0.00083394384, 0.99999714), (0.26325285, -0.9647267, 0.00056480756), (-0.2564737, -0.966546, 0.0031796296), (-0.2569428, -0.9664214, 0.003181653), (0.26233414, -0.9649769, 0.00057008874), (0.0018694192, 0.0008327853, 0.99999785), (0.0022573036, 0.00083394384, 0.99999714), (0.0022253876, 0.000687316, 0.99999726), (0.0019025462, 0.0006865791, 0.9999979), (0.0022573036, 0.00083394384, 0.99999714), (0.0018694192, 0.0008327853, 0.99999785), (0.0018905455, 0.0010512468, 0.9999977), (0.0022337604, 0.0010532155, 0.99999696), (0.26325285, -0.9647267, 0.00056480756), (0.26233414, -0.9649769, 0.00057008874), (0.5042412, -0.8635624, -0.00089175947), (0.5042412, -0.8635624, -0.00089175947), (0.9885868, 0.0048559955, -0.15057439), (0.9885868, 0.0048559955, -0.15057439), (0.9885868, 0.0048559955, -0.15057439), (0.9885868, 0.0048559955, -0.15057439), (-0.9885866, -0.0048556062, 0.15057565), (-0.9885866, -0.0048556062, 0.15057565), (-0.9885866, -0.0048556062, 0.15057565), (-0.9885866, -0.0048556062, 0.15057565), (0.14841667, 0.0009661437, 0.98892444), (0.14837407, 0.00081614533, 0.98893094), (0.148682, 0.0010818929, 0.98888445), (0.14848322, 0.001070869, 0.9889144), (0.14887978, 0.0010729427, 0.9888547), (0.14868248, 0.0010819783, 0.98888445), (0.14899164, 0.00081483537, 0.98883814), (0.1489471, 0.0009674214, 0.9888447), (0.14899164, 0.00081483537, 0.98883814), (0.14886267, 0.0006868282, 0.9888576), (0.148908, 0.0008286374, 0.9888507), (0.1489471, 0.0009674214, 0.9888447), (-0.5538608, -0.82815915, 0.08596897), (-0.5538608, -0.82815915, 0.08596897), (-0.28768027, -0.9566339, 0.045733888), (-0.28758436, -0.9566634, 0.045719363), (0.14850508, 0.00068748335, 0.9889114), (0.14837407, 0.00081614533, 0.98893094), (0.14841667, 0.0009661437, 0.98892444), (0.14845797, 0.00082877435, 0.98891836), (0.14848322, 0.001070869, 0.9889144), (0.14848378, 0.0010511874, 0.9889143), (0.14845797, 0.00082877435, 0.98891836), (0.14841667, 0.0009661437, 0.98892444), (0.14888015, 0.0010532142, 0.98885465), (0.14887978, 0.0010729427, 0.9888547), (0.1489471, 0.0009674214, 0.9888447), (0.148908, 0.0008286374, 0.9888507), (0.2952417, -0.9544521, -0.043052804), (-0.28758436, -0.9566634, 0.045719363), (-0.28768027, -0.9566339, 0.045733888), (0.29461086, -0.95465136, -0.04295621), (0.14845797, 0.00082877435, 0.98891836), (0.148908, 0.0008286374, 0.9888507), (0.14886267, 0.0006868282, 0.9888576), (0.14850508, 0.00068748335, 0.9889114), (0.148908, 0.0008286374, 0.9888507), (0.14845797, 0.00082877435, 0.98891836), (0.14848378, 0.0010511874, 0.9889143), (0.14888015, 0.0010532142, 0.98885465), (0.2952417, -0.9544521, -0.043052804), (0.29461086, -0.95465136, -0.04295621), (0.5595371, -0.8245768, -0.083614826), (0.5595371, -0.8245768, -0.083614826)] (
                interpolation = "faceVarying"
            )
            point3f[] points = [(0.10987208, -0.068881944, 0.29359978), (0.06910066, -0.06911631, 0.293717), (0.10909309, 0.120818846, 0.29339677), (0.06832171, 0.12058446, 0.29351395), (0.11540348, -0.077661306, -0.0007776297), (0.061655678, -0.07797024, -0.00051702035), (0.06264653, -0.07744621, 0.29374447), (0.11639434, -0.07713728, 0.29359), (0.115581326, 0.1208561, 0.29337814), (0.061833482, 0.12054717, 0.29353258), (0.11459043, 0.12033211, -0.0011350594), (0.060842626, 0.12002315, -0.0008744329), (0.07625251, -0.08966481, -0.0005877934), (0.10075459, -0.0895592, -0.0007065996), (0.07720478, -0.08911489, 0.29370263), (0.101783834, -0.08900899, 0.293632), (0.07709541, -0.076234415, 0.293694), (0.10182565, -0.076126315, 0.2936229), (0.101102084, 0.120772906, 0.29341975), (0.076322906, 0.120630465, 0.29349095), (0.054320365, -0.068881944, 0.2825297), (0.013548946, -0.06911631, 0.2826469), (0.05354138, 0.120818846, 0.2823267), (0.012769997, 0.12058446, 0.28244388), (0.05985177, -0.077661306, -0.0007776297), (0.0061039627, -0.07797024, -0.00051702035), (0.007094854, -0.07744621, 0.28267443), (0.060842626, -0.07713728, 0.28251997), (0.06002961, 0.1208561, 0.28230804), (0.0062817694, 0.12054717, 0.2824625), (0.059038717, 0.12033211, -0.0011350594), (0.0052909465, 0.12002315, -0.0008744329), (0.020700762, -0.08966481, -0.0005877934), (0.04520291, -0.0895592, -0.0007065996), (0.021653062, -0.08911489, 0.28263256), (0.04623212, -0.08900899, 0.28256193), (0.021543732, -0.076234415, 0.28262395), (0.04627393, -0.076126315, 0.28255284), (0.045550365, 0.120772906, 0.28234968), (0.020771226, 0.120630465, 0.28242087), (0.00046631394, -0.068881944, 0.273697), (-0.056257423, -0.06911631, 0.2738142), (-0.00061745645, 0.12081883, 0.273494), (-0.057341125, 0.12058446, 0.2736112), (0.008162037, -0.077661306, -0.0007776297), (-0.06661538, -0.077970244, -0.00051702035), (-0.06523679, -0.07744621, 0.2738417), (0.009540551, -0.07713728, 0.27368724), (0.008409416, 0.1208561, 0.27347535), (-0.066368, 0.12054717, 0.2736298), (0.007030901, 0.12033209, -0.0011350594), (-0.06774651, 0.12002314, -0.0008744329), (-0.04630738, -0.08966481, -0.0005877934), (-0.012218481, -0.0895592, -0.0007065996), (-0.044982467, -0.08911489, 0.27379987), (-0.010786501, -0.08900899, 0.2737292), (-0.04513457, -0.076234415, 0.27379122), (-0.010728374, -0.076126315, 0.27372015), (-0.01173503, 0.12077289, 0.27351695), (-0.04620936, 0.12063045, 0.27358818), (-0.07585234, -0.0839478, 0.2647437), (-0.1235904, -0.084182166, 0.27192155), (-0.07679439, 0.105752975, 0.26467782), (-0.12453256, 0.1055186, 0.27185562), (-0.10901773, -0.09272716, -0.0043030367), (-0.17193392, -0.09303611, 0.005264282), (-0.13114615, -0.09251206, 0.27306667), (-0.0682143, -0.09220313, 0.26360437), (-0.06919762, 0.10579025, 0.26353556), (-0.13212937, 0.10548131, 0.2729979), (-0.110022396, 0.105266236, -0.0045157843), (-0.17293853, 0.10495728, 0.0050515174), (-0.15484722, -0.104730666, 0.0026660024), (-0.12616545, -0.10462505, -0.0016954861), (-0.11410016, -0.104180746, 0.27050364), (-0.08532126, -0.10407484, 0.26617652), (-0.114229575, -0.09130027, 0.27051407), (-0.08527369, -0.09119217, 0.2661603), (-0.08615087, 0.105707034, 0.26608464), (-0.11516412, 0.105564594, 0.27044702)]
            color4f[] primvars:Attribute = [(0.06480328, 0.10461649, 0.00091058103, 1), (0.06480328, 0.10461649, 0.00091058103, 1), (0.06480328, 0.10461649, 0.00091058103, 1), (0.06480328, 0.10461649, 0.00091058103, 1), (0.06480328, 0.10461649, 0.00091058103, 1), (0.06480328, 0.10461649, 0.00091058103, 1), (0.06480328, 0.10461649, 0.00091058103, 1), (0.06480328, 0.10461649, 0.00091058103, 1), (0.06480328, 0.10461649, 0.00091058103, 1), (0.06480328, 0.10461649, 0.00091058103, 1), (0.06480328, 0.10461649, 0.00091058103, 1), (0.06480328, 0.10461649, 0.00091058103, 1), (0.06480328, 0.10461649, 0.00091058103, 1), (0.06480328, 0.10461649, 0.00091058103, 1), (0.06480328, 0.10461649, 0.00091058103, 1), (0.06480328, 0.10461649, 0.00091058103, 1), (0.06480328, 0.10461649, 0.00091058103, 1), (0.06480328, 0.10461649, 0.00091058103, 1), (0.06480328, 0.10461649, 0.00091058103, 1), (0.06480328, 0.10461649, 0.00091058103, 1), (0.06480328, 0.10461649, 0.00091058103, 1), (0.06480328, 0.10461649, 0.00091058103, 1), (0.06480328, 0.10461649, 0.00091058103, 1), (0.06480328, 0.10461649, 0.00091058103, 1), (0.06480328, 0.10461649, 0.00091058103, 1), (0.06480328, 0.10461649, 0.00091058103, 1), (0.06480328, 0.10461649, 0.00091058103, 1), (0.06480328, 0.10461649, 0.00091058103, 1), (0.2831488, 0.1811643, 0.028426038, 1), (0.2831488, 0.1811643, 0.028426038, 1), (0.2831488, 0.1811643, 0.028426038, 1), (0.2831488, 0.1811643, 0.028426038, 1), (0.2831488, 0.1811643, 0.028426038, 1), (0.2831488, 0.1811643, 0.028426038, 1), (0.2831488, 0.1811643, 0.028426038, 1), (0.2831488, 0.1811643, 0.028426038, 1), (0.06480328, 0.10461649, 0.00091058103, 1), (0.06480328, 0.10461649, 0.00091058103, 1), (0.06480328, 0.10461649, 0.00091058103, 1), (0.06480328, 0.10461649, 0.00091058103, 1), (0.06480328, 0.10461649, 0.00091058103, 1), (0.06480328, 0.10461649, 0.00091058103, 1), (0.06480328, 0.10461649, 0.00091058103, 1), (0.06480328, 0.10461649, 0.00091058103, 1), (0.2831488, 0.1811643, 0.028426038, 1), (0.2831488, 0.1811643, 0.028426038, 1), (0.2831488, 0.1811643, 0.028426038, 1), (0.2831488, 0.1811643, 0.028426038, 1), (0.06480328, 0.10461649, 0.00091058103, 1), (0.06480328, 0.10461649, 0.00091058103, 1), (0.06480328, 0.10461649, 0.00091058103, 1), (0.06480328, 0.10461649, 0.00091058103, 1), (0.02121901, 0.0409152, 0.07421358, 1), (0.02121901, 0.0409152, 0.07421358, 1), (0.02121901, 0.0409152, 0.07421358, 1), (0.02121901, 0.0409152, 0.07421358, 1), (0.02121901, 0.0409152, 0.07421358, 1), (0.02121901, 0.0409152, 0.07421358, 1), (0.02121901, 0.0409152, 0.07421358, 1), (0.02121901, 0.0409152, 0.07421358, 1), (0.02121901, 0.0409152, 0.07421358, 1), (0.02121901, 0.0409152, 0.07421358, 1), (0.02121901, 0.0409152, 0.07421358, 1), (0.02121901, 0.0409152, 0.07421358, 1), (0.02121901, 0.0409152, 0.07421358, 1), (0.02121901, 0.0409152, 0.07421358, 1), (0.02121901, 0.0409152, 0.07421358, 1), (0.02121901, 0.0409152, 0.07421358, 1), (0.02121901, 0.0409152, 0.07421358, 1), (0.02121901, 0.0409152, 0.07421358, 1), (0.02121901, 0.0409152, 0.07421358, 1), (0.02121901, 0.0409152, 0.07421358, 1), (0.02121901, 0.0409152, 0.07421358, 1), (0.02121901, 0.0409152, 0.07421358, 1), (0.02121901, 0.0409152, 0.07421358, 1), (0.02121901, 0.0409152, 0.07421358, 1), (0.02121901, 0.0409152, 0.07421358, 1), (0.02121901, 0.0409152, 0.07421358, 1), (0.02121901, 0.0409152, 0.07421358, 1), (0.02121901, 0.0409152, 0.07421358, 1), (0.082282715, 0.03189604, 0.033104774, 1), (0.082282715, 0.03189604, 0.033104774, 1), (0.082282715, 0.03189604, 0.033104774, 1), (0.082282715, 0.03189604, 0.033104774, 1), (0.082282715, 0.03189604, 0.033104774, 1), (0.082282715, 0.03189604, 0.033104774, 1), (0.082282715, 0.03189604, 0.033104774, 1), (0.082282715, 0.03189604, 0.033104774, 1), (0.02121901, 0.0409152, 0.07421358, 1), (0.02121901, 0.0409152, 0.07421358, 1), (0.02121901, 0.0409152, 0.07421358, 1), (0.02121901, 0.0409152, 0.07421358, 1), (0.02121901, 0.0409152, 0.07421358, 1), (0.02121901, 0.0409152, 0.07421358, 1), (0.02121901, 0.0409152, 0.07421358, 1), (0.02121901, 0.0409152, 0.07421358, 1), (0.082282715, 0.03189604, 0.033104774, 1), (0.082282715, 0.03189604, 0.033104774, 1), (0.082282715, 0.03189604, 0.033104774, 1), (0.082282715, 0.03189604, 0.033104774, 1), (0.02121901, 0.0409152, 0.07421358, 1), (0.02121901, 0.0409152, 0.07421358, 1), (0.02121901, 0.0409152, 0.07421358, 1), (0.02121901, 0.0409152, 0.07421358, 1), (0.10461649, 0.011612245, 0.003676507, 1), (0.10461649, 0.011612245, 0.003676507, 1), (0.10461649, 0.011612245, 0.003676507, 1), (0.10461649, 0.011612245, 0.003676507, 1), (0.10461649, 0.011612245, 0.003676507, 1), (0.10461649, 0.011612245, 0.003676507, 1), (0.10461649, 0.011612245, 0.003676507, 1), (0.10461649, 0.011612245, 0.003676507, 1), (0.10461649, 0.011612245, 0.003676507, 1), (0.10461649, 0.011612245, 0.003676507, 1), (0.10461649, 0.011612245, 0.003676507, 1), (0.10461649, 0.011612245, 0.003676507, 1), (0.10461649, 0.011612245, 0.003676507, 1), (0.10461649, 0.011612245, 0.003676507, 1), (0.10461649, 0.011612245, 0.003676507, 1), (0.10461649, 0.011612245, 0.003676507, 1), (0.10461649, 0.011612245, 0.003676507, 1), (0.10461649, 0.011612245, 0.003676507, 1), (0.10461649, 0.011612245, 0.003676507, 1), (0.10461649, 0.011612245, 0.003676507, 1), (0.10461649, 0.011612245, 0.003676507, 1), (0.10461649, 0.011612245, 0.003676507, 1), (0.10461649, 0.011612245, 0.003676507, 1), (0.10461649, 0.011612245, 0.003676507, 1), (0.10461649, 0.011612245, 0.003676507, 1), (0.10461649, 0.011612245, 0.003676507, 1), (0.10461649, 0.011612245, 0.003676507, 1), (0.10461649, 0.011612245, 0.003676507, 1), (0.13563336, 0.116970696, 0.056128494, 1), (0.13563336, 0.116970696, 0.056128494, 1), (0.13563336, 0.116970696, 0.056128494, 1), (0.13563336, 0.116970696, 0.056128494, 1), (0.13563336, 0.116970696, 0.056128494, 1), (0.13563336, 0.116970696, 0.056128494, 1), (0.13563336, 0.116970696, 0.056128494, 1), (0.13563336, 0.116970696, 0.056128494, 1), (0.10461649, 0.011612245, 0.003676507, 1), (0.10461649, 0.011612245, 0.003676507, 1), (0.10461649, 0.011612245, 0.003676507, 1), (0.10461649, 0.011612245, 0.003676507, 1), (0.10461649, 0.011612245, 0.003676507, 1), (0.10461649, 0.011612245, 0.003676507, 1), (0.10461649, 0.011612245, 0.003676507, 1), (0.10461649, 0.011612245, 0.003676507, 1), (0.13563336, 0.116970696, 0.056128494, 1), (0.13563336, 0.116970696, 0.056128494, 1), (0.13563336, 0.116970696, 0.056128494, 1), (0.13563336, 0.116970696, 0.056128494, 1), (0.10461649, 0.011612245, 0.003676507, 1), (0.10461649, 0.011612245, 0.003676507, 1), (0.10461649, 0.011612245, 0.003676507, 1), (0.10461649, 0.011612245, 0.003676507, 1), (0.03189604, 0.07421358, 0.023153365, 1), (0.03189604, 0.07421358, 0.023153365, 1), (0.03189604, 0.07421358, 0.023153365, 1), (0.03189604, 0.07421358, 0.023153365, 1), (0.03189604, 0.07421358, 0.023153365, 1), (0.03189604, 0.07421358, 0.023153365, 1), (0.03189604, 0.07421358, 0.023153365, 1), (0.03189604, 0.07421358, 0.023153365, 1), (0.03189604, 0.07421358, 0.023153365, 1), (0.03189604, 0.07421358, 0.023153365, 1), (0.03189604, 0.07421358, 0.023153365, 1), (0.03189604, 0.07421358, 0.023153365, 1), (0.03189604, 0.07421358, 0.023153365, 1), (0.03189604, 0.07421358, 0.023153365, 1), (0.03189604, 0.07421358, 0.023153365, 1), (0.03189604, 0.07421358, 0.023153365, 1), (0.03189604, 0.07421358, 0.023153365, 1), (0.03189604, 0.07421358, 0.023153365, 1), (0.03189604, 0.07421358, 0.023153365, 1), (0.03189604, 0.07421358, 0.023153365, 1), (0.03189604, 0.07421358, 0.023153365, 1), (0.03189604, 0.07421358, 0.023153365, 1), (0.03189604, 0.07421358, 0.023153365, 1), (0.03189604, 0.07421358, 0.023153365, 1), (0.03189604, 0.07421358, 0.023153365, 1), (0.03189604, 0.07421358, 0.023153365, 1), (0.03189604, 0.07421358, 0.023153365, 1), (0.03189604, 0.07421358, 0.023153365, 1), (0.13563336, 0.116970696, 0.056128494, 1), (0.13563336, 0.116970696, 0.056128494, 1), (0.13563336, 0.116970696, 0.056128494, 1), (0.13563336, 0.116970696, 0.056128494, 1), (0.13563336, 0.116970696, 0.056128494, 1), (0.13563336, 0.116970696, 0.056128494, 1), (0.13563336, 0.116970696, 0.056128494, 1), (0.13563336, 0.116970696, 0.056128494, 1), (0.03189604, 0.07421358, 0.023153365, 1), (0.03189604, 0.07421358, 0.023153365, 1), (0.03189604, 0.07421358, 0.023153365, 1), (0.03189604, 0.07421358, 0.023153365, 1), (0.03189604, 0.07421358, 0.023153365, 1), (0.03189604, 0.07421358, 0.023153365, 1), (0.03189604, 0.07421358, 0.023153365, 1), (0.03189604, 0.07421358, 0.023153365, 1), (0.13563336, 0.116970696, 0.056128494, 1), (0.13563336, 0.116970696, 0.056128494, 1), (0.13563336, 0.116970696, 0.056128494, 1), (0.13563336, 0.116970696, 0.056128494, 1), (0.03189604, 0.07421358, 0.023153365, 1), (0.03189604, 0.07421358, 0.023153365, 1), (0.03189604, 0.07421358, 0.023153365, 1), (0.03189604, 0.07421358, 0.023153365, 1)] (
                interpolation = "faceVarying"
            )
            texCoord2f[] primvars:st = [(0.62106407, 0.56862175), (0.6043261, 0.9122334), (0.48298052, 0.56862175), (0.6043261, 1.0007172), (0.9550519, 0.56862175), (0.2899563, 0.9122334), (0.14899266, 0.56862175), (0.2899563, 1.0007172), (0.25110248, 0.59551793), (0.24924508, 0.8162879), (0.25110248, 0.59551793), (0.20153013, 0.8162879), (0.25110248, 0.81632644), (0.48298052, 0.59125495), (0.20153013, 0.59558827), (0.25110248, 0.81632644), (0.62106407, 0.59125495), (0.24924496, 0.59558827), (0.3964599, 0.81632644), (0.9550519, 0.59125495), (0.3964599, 0.81632644), (0.14899266, 0.59125495), (0.3964599, 0.59551793), (0.3964599, 0.59551793), (0.21448848, 0.8162879), (0.23624042, 0.8162879), (0.21445426, 0.59558827), (0.5203821, 0.59125495), (0.58352816, 0.59125495), (0.23627445, 0.59558827), (0.5100569, 0.56862175), (0.6043261, 0.9833666), (0.5938125, 0.56862175), (0.6043261, 0.9296962), (0.2899563, 0.9295758), (0.2899563, 0.9833526), (0.62106407, 0.56862175), (0.6043261, 0.9122334), (0.48298052, 0.56862175), (0.6043261, 1.0007172), (0.9550519, 0.56862175), (0.2899563, 0.9122334), (0.14899266, 0.56862175), (0.2899563, 1.0007172), (0.65064573, 0.59551793), (0.64878833, 0.8162879), (0.65064573, 0.59551793), (0.6010734, 0.8162879), (0.65064573, 0.81632644), (0.48298052, 0.59125495), (0.6010734, 0.59558827), (0.65064573, 0.81632644), (0.62106407, 0.59125495), (0.6487882, 0.59558827), (0.79600316, 0.81632644), (0.9550519, 0.59125495), (0.79600316, 0.81632644), (0.14899266, 0.59125495), (0.79600316, 0.59551793), (0.79600316, 0.59551793), (0.61403173, 0.8162879), (0.6357837, 0.8162879), (0.6139975, 0.59558827), (0.5203821, 0.59125495), (0.58352816, 0.59125495), (0.6358177, 0.59558827), (0.5100569, 0.56862175), (0.6043261, 0.9833666), (0.5938125, 0.56862175), (0.6043261, 0.9296962), (0.2899563, 0.9295758), (0.2899563, 0.9833526), (0.62106407, 0.56862175), (0.6043261, 0.9122334), (0.48298052, 0.56862175), (0.6043261, 1.0007172), (0.9550519, 0.56862175), (0.2899563, 0.9122334), (0.14899266, 0.56862175), (0.2899563, 1.0007172), (0.050963968, 0.59551793), (0.049106568, 0.8162879), (0.050963968, 0.59551793), (0.0013916194, 0.8162879), (0.050963968, 0.81632644), (0.48298052, 0.59125495), (0.0013916194, 0.59558827), (0.050963968, 0.81632644), (0.62106407, 0.59125495), (0.04910645, 0.59558827), (0.1963214, 0.81632644), (0.9550519, 0.59125495), (0.1963214, 0.81632644), (0.14899266, 0.59125495), (0.1963214, 0.59551793), (0.1963214, 0.59551793), (0.014349967, 0.8162879), (0.036101907, 0.8162879), (0.014315754, 0.59558827), (0.5203821, 0.59125495), (0.58352816, 0.59125495), (0.03613594, 0.59558827), (0.5100569, 0.56862175), (0.6043261, 0.9833666), (0.5938125, 0.56862175), (0.6043261, 0.9296962), (0.2899563, 0.9295758), (0.2899563, 0.9833526), (0.62106407, 0.56862175), (0.6043261, 0.9122334), (0.48298052, 0.56862175), (0.6043261, 1.0007172), (0.9550519, 0.56862175), (0.2899563, 0.9122334), (0.14899266, 0.56862175), (0.2899563, 1.0007172), (0.25110248, 0.59551793), (0.24924508, 0.8162879), (0.25110248, 0.59551793), (0.20153013, 0.8162879), (0.25110248, 0.81632644), (0.48298052, 0.59125495), (0.20153013, 0.59558827), (0.25110248, 0.81632644), (0.62106407, 0.59125495), (0.24924496, 0.59558827), (0.3964599, 0.81632644), (0.9550519, 0.59125495), (0.3964599, 0.81632644), (0.14899266, 0.59125495), (0.3964599, 0.59551793), (0.3964599, 0.59551793), (0.21448848, 0.8162879), (0.23624042, 0.8162879), (0.21445426, 0.59558827), (0.5203821, 0.59125495), (0.58352816, 0.59125495), (0.23627445, 0.59558827), (0.5100569, 0.56862175), (0.6043261, 0.9833666), (0.5938125, 0.56862175), (0.6043261, 0.9296962), (0.2899563, 0.9295758), (0.2899563, 0.9833526)] (
                interpolation = "faceVarying"
            )
            int[] primvars:st:indices = [15, 8, 22, 18, 20, 23, 10, 12, 0, 16, 19, 4, 6, 21, 13, 2, 13, 27, 30, 2, 14, 11, 24, 26, 28, 16, 0, 32, 5, 34, 33, 1, 35, 7, 3, 31, 29, 26, 24, 25, 32, 30, 27, 28, 31, 33, 34, 35, 29, 25, 9, 17, 51, 44, 58, 54, 56, 59, 46, 48, 36, 52, 55, 40, 42, 57, 49, 38, 49, 63, 66, 38, 50, 47, 60, 62, 64, 52, 36, 68, 41, 70, 69, 37, 71, 43, 39, 67, 65, 62, 60, 61, 68, 66, 63, 64, 67, 69, 70, 71, 65, 61, 45, 53, 87, 80, 94, 90, 92, 95, 82, 84, 72, 88, 91, 76, 78, 93, 85, 74, 85, 99, 102, 74, 86, 83, 96, 98, 100, 88, 72, 104, 77, 106, 105, 73, 107, 79, 75, 103, 101, 98, 96, 97, 104, 102, 99, 100, 103, 105, 106, 107, 101, 97, 81, 89, 123, 116, 130, 126, 128, 131, 118, 120, 108, 124, 127, 112, 114, 129, 121, 110, 121, 135, 138, 110, 122, 119, 132, 134, 136, 124, 108, 140, 113, 142, 141, 109, 143, 115, 111, 139, 137, 134, 132, 133, 140, 138, 135, 136, 139, 141, 142, 143, 137, 133, 117, 125]
            uniform token subdivisionScheme = "none"
            custom string userProperties:blender:data_name = "Cube.146"
        }
    }

    def Scope "_materials"
    {
        def Material "MI_Trim_Props_Vertex"
        {
            token outputs:surface.connect = </root/_materials/MI_Trim_Props_Vertex/Principled_BSDF.outputs:surface>
            custom string userProperties:blender:data_name = "MI_Trim_Props_Vertex"

            def Shader "Principled_BSDF"
            {
                uniform token info:id = "UsdPreviewSurface"
                float inputs:clearcoat = 0
                float inputs:clearcoatRoughness = 0.03
                color3f inputs:diffuseColor.connect = </root/_materials/MI_Trim_Props_Vertex/Image_Texture.outputs:rgb>
                float inputs:ior = 1.5
                float inputs:metallic = 0
                normal3f inputs:normal.connect = </root/_materials/MI_Trim_Props_Vertex/Image_Texture_001.outputs:rgb>
                float inputs:opacity = 1
                float inputs:roughness = 0.8727273
                float inputs:specular = 0.5
                token outputs:surface
            }

            def Shader "Image_Texture"
            {
                uniform token info:id = "UsdUVTexture"
                token inputs:sourceColorSpace = "sRGB"
                float2 inputs:st.connect = </root/_materials/MI_Trim_Props_Vertex/uvmap.outputs:result>
                token inputs:wrapS = "repeat"
                token inputs:wrapT = "repeat"
                float3 outputs:rgb
            }

            def Shader "uvmap"
            {
                uniform token info:id = "UsdPrimvarReader_float2"
                string inputs:varname = "st"
                float2 outputs:result
            }

            def Shader "Image_Texture_001"
            {
                uniform token info:id = "UsdUVTexture"
                float4 inputs:bias = (-1, -1, -1, -1)
                float4 inputs:scale = (2, 2, 2, 2)
                token inputs:sourceColorSpace = "raw"
                float2 inputs:st.connect = </root/_materials/MI_Trim_Props_Vertex/uvmap.outputs:result>
                token inputs:wrapS = "repeat"
                token inputs:wrapT = "repeat"
                float3 outputs:rgb
            }
        }
    }
}

