#usda 1.0
(
    defaultPrim = "root"
    doc = "Blender v5.1.2"
    metersPerUnit = 1
    upAxis = "Y"
)

def Xform "root" (
    customData = {
        dictionary Blender = {
            bool generated = 1
        }
    }
)
{
    float3 xformOp:rotateXYZ = (-90, -0, 0)
    uniform token[] xformOpOrder = ["xformOp:rotateXYZ"]

    def Xform "Mug"
    {
        custom string userProperties:blender:object_name = "Mug"

        def Mesh "Cylinder_068" (
            active = true
            prepend apiSchemas = ["MaterialBindingAPI"]
        )
        {
            uniform bool doubleSided = 1
            float3[] extent = [(-0.07037084, -0.07205369, -0.0046427944), (0.12171174, 0.07473407, 0.17924015)]
            int[] faceVertexCounts = [4, 4, 4, 4, 4, 4, 4, 4, 4, 4, 4, 4, 4, 4, 4, 4, 4, 4, 4, 4, 4, 4, 4, 4, 4, 4, 4, 4, 4, 4, 4, 4, 4, 4, 4, 4, 12, 12, 4, 4, 4, 4, 4, 4, 4, 4, 4, 4, 4, 4, 4, 4, 4, 4, 4, 4, 4, 4, 4, 4, 4, 4, 4, 4, 4, 4, 4, 4, 4, 4, 4, 4, 4, 4, 4, 4, 4, 4, 4, 4, 4, 4, 4, 4, 4, 4, 8, 6, 5, 5, 4, 4, 4, 4, 4, 4, 4, 4, 4, 4, 4, 4, 4, 4, 4, 4, 4, 4, 4, 4, 4, 4, 4, 4, 4, 4, 4, 4, 4, 4, 4, 4]
            int[] faceVertexIndices = [2, 1, 9, 31, 7, 22, 28, 6, 0, 20, 23, 8, 5, 27, 26, 4, 3, 25, 24, 2, 2, 24, 21, 1, 1, 21, 20, 0, 5, 4, 12, 13, 3, 2, 31, 11, 27, 5, 6, 28, 4, 29, 30, 12, 1, 0, 10, 9, 7, 6, 14, 15, 6, 5, 13, 14, 29, 3, 11, 30, 8, 23, 35, 33, 127, 126, 34, 37, 121, 125, 30, 11, 26, 32, 29, 4, 0, 8, 16, 10, 37, 15, 17, 127, 36, 38, 22, 7, 122, 12, 30, 125, 16, 34, 126, 119, 123, 124, 14, 13, 9, 10, 19, 18, 31, 9, 18, 120, 11, 31, 120, 121, 13, 12, 122, 123, 10, 16, 119, 19, 36, 7, 15, 37, 25, 3, 29, 32, 38, 36, 33, 35, 15, 14, 124, 17, 33, 36, 37, 34, 8, 33, 34, 16, 40, 43, 44, 48, 45, 46, 47, 41, 50, 49, 42, 39, 51, 52, 60, 62, 59, 57, 58, 55, 56, 61, 53, 54, 42, 60, 52, 39, 47, 58, 57, 41, 50, 59, 62, 49, 43, 54, 53, 44, 48, 61, 56, 45, 41, 57, 59, 50, 45, 56, 55, 46, 44, 53, 61, 48, 46, 55, 58, 47, 40, 51, 54, 43, 49, 62, 60, 42, 39, 52, 51, 40, 66, 84, 76, 63, 71, 82, 81, 65, 74, 83, 86, 73, 67, 78, 77, 68, 72, 85, 80, 69, 65, 81, 83, 74, 69, 80, 79, 70, 68, 77, 85, 72, 70, 79, 82, 71, 64, 75, 78, 67, 73, 86, 84, 66, 63, 76, 75, 64, 71, 95, 94, 70, 77, 101, 109, 85, 80, 104, 103, 79, 63, 87, 90, 66, 86, 110, 108, 84, 64, 88, 87, 63, 75, 99, 102, 78, 69, 93, 96, 72, 83, 107, 110, 86, 68, 92, 91, 67, 82, 106, 105, 81, 72, 96, 92, 68, 70, 94, 93, 69, 81, 105, 107, 83, 66, 90, 97, 73, 67, 91, 88, 64, 79, 103, 106, 82, 73, 97, 98, 74, 65, 89, 95, 71, 84, 108, 100, 76, 76, 100, 99, 75, 74, 98, 89, 65, 85, 109, 104, 80, 78, 102, 101, 77, 111, 112, 113, 114, 115, 116, 117, 118, 122, 18, 19, 119, 124, 123, 124, 119, 126, 127, 17, 18, 122, 125, 121, 120, 137, 146, 134, 132, 146, 152, 135, 134, 152, 141, 133, 135, 136, 142, 158, 157, 158, 142, 151, 163, 141, 137, 132, 133, 136, 157, 160, 147, 147, 160, 163, 151, 159, 162, 130, 128, 162, 161, 131, 130, 137, 141, 143, 140, 140, 143, 144, 139, 139, 144, 145, 138, 138, 145, 142, 136, 147, 151, 153, 150, 150, 153, 154, 149, 149, 154, 155, 148, 148, 155, 152, 146, 141, 152, 155, 143, 143, 155, 154, 144, 144, 154, 153, 145, 145, 153, 151, 142, 146, 137, 140, 148, 148, 140, 139, 149, 149, 139, 138, 150, 150, 138, 136, 147, 161, 156, 129, 131, 159, 156, 157, 158, 163, 160, 161, 162, 162, 159, 158, 163, 160, 157, 156, 161, 156, 159, 128, 129]
            rel material:binding = </root/_materials/MI_Trim_Metal>
            normal3f[] normals = [(-0.05515306, 0.033759527, 0.99790704), (-0.054271705, 0.03349424, 0.99796426), (-0.05229726, 0.032339945, 0.99810773), (-0.055392385, 0.033900537, 0.997889), (-0.7241863, -0.6896044, 0.000084857194), (-0.7218585, -0.6920406, 0.00027614186), (-0.276332, -0.9608961, 0.01787053), (-0.25746098, -0.9661198, 0.018066617), (-0.2767656, 0.96079755, 0.01639964), (-0.2668608, 0.96359354, 0.01651547), (-0.7168416, 0.6972357, 0.00061534985), (-0.7314897, 0.6818523, -0.00042062398), (0.23707525, -0.9712574, 0.021317784), (0.2384654, -0.97091687, 0.021321988), (0.6866167, -0.7269587, 0.009412333), (0.678927, -0.73413914, 0.0098882), (0.96164834, 0.27425608, -0.0040001837), (0.9616763, 0.27415833, -0.004002331), (0.71038914, 0.70378655, 0.00564169), (0.72068465, 0.6932421, 0.0053969137), (0.72068465, 0.6932421, 0.0053969137), (0.71038914, 0.70378655, 0.00564169), (0.26314318, 0.9646424, 0.014852908), (0.27673045, 0.96083665, 0.014602083), (0.27673045, 0.96083665, 0.014602083), (0.26314318, 0.9646424, 0.014852908), (-0.2668608, 0.96359354, 0.01651547), (-0.2767656, 0.96079755, 0.01639964), (-0.05935569, 0.047823824, 0.99709064), (0.0802374, 0.05009139, 0.99551636), (0.08794535, 0.053659715, 0.994679), (-0.049378432, 0.049668755, 0.9975444), (-0.00031589257, -0.010658561, 0.9999432), (-0.05515306, 0.033759527, 0.99790704), (-0.055392385, 0.033900537, 0.997889), (-0.00035300074, -0.010035808, 0.99994963), (0.2384654, -0.97091687, 0.021321988), (0.23707525, -0.9712574, 0.021317784), (-0.25746098, -0.9661198, 0.018066617), (-0.276332, -0.9608961, 0.01787053), (0.0802374, 0.05009139, 0.99551636), (0.0046144915, -0.0030956876, 0.9999846), (0.0047635413, -0.002413271, 0.9999857), (0.08794535, 0.053659715, 0.994679), (-0.054271705, 0.03349424, 0.99796426), (0.05658965, 0.029483944, 0.9979621), (0.058418, 0.030496856, 0.9978263), (-0.05229726, 0.032339945, 0.99810773), (-0.0059028673, 0.010549934, 0.9999269), (-0.13653022, 0.0043385886, 0.9906264), (-0.13148938, 0.0041784034, 0.9913088), (-0.005811632, 0.010386874, 0.9999292), (-0.13653022, 0.0043385886, 0.9906264), (-0.05935569, 0.047823824, 0.99709064), (-0.049378432, 0.049668755, 0.9975444), (-0.13148938, 0.0041784034, 0.9913088), (0.0046144915, -0.0030956876, 0.9999846), (-0.00031589257, -0.010658561, 0.9999432), (-0.00035300074, -0.010035808, 0.99994963), (0.0047635413, -0.002413271, 0.9999857), (-0.7314897, 0.6818523, -0.00042062398), (-0.7168416, 0.6972357, 0.00061534985), (-0.96502334, 0.2611673, -0.022838939), (-0.9654868, 0.25944212, -0.022913385), (0.9688079, 0.24598852, 0.030017262), (0.9646619, -0.2619925, 0.028061206), (0.96517074, -0.26010105, 0.028156769), (0.9719671, 0.23312387, 0.030546568), (-0.9624292, -0.27152127, 0.0024717534), (-0.96855766, 0.24873964, 0.004966596), (-0.9698685, 0.24357747, 0.0050177034), (-0.9623477, -0.27181032, 0.0024653513), (0.6866167, -0.7269587, 0.009412333), (0.968568, -0.2486641, -0.006493228), (0.9698234, -0.2437204, -0.006542685), (0.678927, -0.73413914, 0.0098882), (0.05658965, 0.029483944, 0.9979621), (0.078599095, 0.06896227, 0.99451816), (0.07840273, 0.069013916, 0.9945301), (0.058418, 0.030496856, 0.9978263), (0.9719671, 0.23312387, 0.030546568), (0.724188, 0.6895987, 0.0023085908), (0.72144765, 0.69246596, 0.0020476466), (0.9688079, 0.24598852, 0.030017262), (-0.9714864, -0.23582493, -0.0245114), (-0.96889013, -0.24631271, -0.024125706), (-0.7218585, -0.6920406, 0.00027614186), (-0.7241863, -0.6896044, 0.000084857194), (-0.68698287, 0.72657704, -0.01185282), (-0.6762035, 0.7366078, -0.012567644), (-0.9698685, 0.24357747, 0.0050177034), (-0.96855766, 0.24873964, 0.004966596), (0.7351533, -0.677898, 0.002019588), (0.96517074, -0.26010105, 0.028156769), (0.9646619, -0.2619925, 0.028061206), (0.7163442, -0.69774693, 0.0004408018), (-0.23929344, 0.9706525, -0.023924181), (0.27634823, 0.96087426, -0.018772766), (0.2536303, 0.96711296, -0.019086165), (-0.23792726, 0.97098845, -0.023915794), (-0.27655455, -0.9608343, -0.017750947), (0.27962333, -0.9599244, -0.01886702), (0.26620945, -0.96372616, -0.019089138), (-0.2609305, -0.96518826, -0.01808013), (-0.7234514, -0.69033587, -0.0073844623), (-0.27655455, -0.9608343, -0.017750947), (-0.2609305, -0.96518826, -0.01808013), (-0.7104751, -0.7036799, -0.0077254423), (-0.9623477, -0.27181032, 0.0024653513), (-0.7234514, -0.69033587, -0.0073844623), (-0.7104751, -0.7036799, -0.0077254423), (-0.9624292, -0.27152127, 0.0024717534), (-0.23792726, 0.97098845, -0.023915794), (-0.6762035, 0.7366078, -0.012567644), (-0.68698287, 0.72657704, -0.01185282), (-0.23929344, 0.9706525, -0.023924181), (0.27962333, -0.9599244, -0.01886702), (0.7351533, -0.677898, 0.002019588), (0.7163442, -0.69774693, 0.0004408018), (0.26620945, -0.96372616, -0.019089138), (-0.005938304, -0.05884119, 0.99824965), (-0.0059028673, 0.010549934, 0.9999269), (-0.005811632, 0.010386874, 0.9999292), (-0.006286904, -0.054041617, 0.9985189), (0.9616763, 0.27415833, -0.004002331), (0.96164834, 0.27425608, -0.0040001837), (0.9698234, -0.2437204, -0.006542685), (0.968568, -0.2486641, -0.006493228), (-0.96889013, -0.24631271, -0.024125706), (-0.9714864, -0.23582493, -0.0245114), (-0.9654868, 0.25944212, -0.022913385), (-0.96502334, 0.2611673, -0.022838939), (0.724188, 0.6895987, 0.0023085908), (0.2536303, 0.96711296, -0.019086165), (0.27634823, 0.96087426, -0.018772766), (0.72144765, 0.69246596, 0.0020476466), (0.02149427, -0.03145215, 0.99927413), (-0.005938304, -0.05884119, 0.99824965), (-0.006286904, -0.054041617, 0.9985189), (0.022925321, -0.024838364, 0.9994286), (0.078599095, 0.06896227, 0.99451816), (0.02149427, -0.03145215, 0.99927413), (0.022925321, -0.024838364, 0.9994286), (0.07840273, 0.069013916, 0.9945301), (4.084919e-9, 0, -1), (4.084919e-9, 0, -1), (4.084919e-9, 0, -1), (4.084919e-9, 0, -1), (4.084919e-9, 0, -1), (4.084919e-9, 0, -1), (4.084919e-9, 0, -1), (4.084919e-9, 0, -1), (4.084919e-9, 0, -1), (4.084919e-9, 0, -1), (4.084919e-9, 0, -1), (4.084919e-9, 0, -1), (7.262078e-9, 0, 1), (7.262078e-9, 0, 1), (7.262078e-9, 0, 1), (7.262078e-9, 0, 1), (7.262078e-9, 0, 1), (7.262078e-9, 0, 1), (7.262078e-9, 0, 1), (7.262078e-9, 0, 1), (7.262078e-9, 0, 1), (7.262078e-9, 0, 1), (7.262078e-9, 0, 1), (7.262078e-9, 0, 1), (-0.746118, 0.6658137, 0), (-0.746118, 0.6658137, 0), (-0.28036734, 0.95989275, 0), (-0.28036734, 0.95989275, 0), (-0.28869855, -0.95742, 0), (-0.28869855, -0.95742, 0), (-0.7557683, -0.6548391, 0), (-0.7557683, -0.6548391, 0), (-0.97649336, -0.21554732, 0), (-0.97649336, -0.21554732, 0), (-0.97331154, 0.22948782, 0), (-0.97331154, 0.22948782, 0), (0.71432465, 0.69981456, 0), (0.71432465, 0.69981456, 0), (0.9669751, 0.25487077, 0), (0.9669751, 0.25487077, 0), (0.9675887, -0.25253144, 0), (0.9675887, -0.25253144, 0), (0.7158032, -0.6983021, 0), (0.7158032, -0.6983021, 0), (-0.7557683, -0.6548391, 0), (-0.7557683, -0.6548391, 0), (-0.97649336, -0.21554732, 0), (-0.97649336, -0.21554732, 0), (0.7158032, -0.6983021, 0), (0.7158032, -0.6983021, 0), (0.26044613, -0.96548843, 0), (0.26044613, -0.96548843, 0), (0.9669751, 0.25487077, 0), (0.9669751, 0.25487077, 0), (0.9675887, -0.25253144, 0), (0.9675887, -0.25253144, 0), (0.26044613, -0.96548843, 0), (0.26044613, -0.96548843, 0), (-0.28869855, -0.95742, 0), (-0.28869855, -0.95742, 0), (0.26881602, 0.9631915, 0), (0.26881602, 0.9631915, 0), (0.71432465, 0.69981456, 0), (0.71432465, 0.69981456, 0), (-0.97331154, 0.22948782, 0), (-0.97331154, 0.22948782, 0), (-0.746118, 0.6658137, 0), (-0.746118, 0.6658137, 0), (-0.28036734, 0.95989275, 0), (-0.28036734, 0.95989275, 0), (0.26881602, 0.9631915, 0), (0.26881602, 0.9631915, 0), (-0.7080245, 0.70618796, 0), (-0.7080245, 0.70618796, 0), (-0.26231125, 0.96498334, 0), (-0.26231125, 0.96498334, 0), (-0.26379487, -0.96457875, 0), (-0.26379487, -0.96457875, 0), (-0.72115916, -0.6927694, 0), (-0.72115916, -0.6927694, 0), (-0.9748866, -0.22270165, 0), (-0.9748866, -0.22270165, 0), (-0.95924515, 0.28257543, 0), (-0.95924515, 0.28257543, 0), (0.7013298, 0.7128369, 0), (0.7013298, 0.7128369, 0), (0.9646156, 0.26366034, 0), (0.9646156, 0.26366034, 0), (0.96524113, -0.26136094, 0), (0.96524113, -0.26136094, 0), (0.7026717, -0.7115142, 0), (0.7026717, -0.7115142, 0), (-0.72115916, -0.6927694, 0), (-0.72115916, -0.6927694, 0), (-0.9748866, -0.22270165, 0), (-0.9748866, -0.22270165, 0), (0.7026717, -0.7115142, 0), (0.7026717, -0.7115142, 0), (0.2513395, -0.96789896, 0), (0.2513395, -0.96789896, 0), (0.9646156, 0.26366034, 0), (0.9646156, 0.26366034, 0), (0.96524113, -0.26136094, 0), (0.96524113, -0.26136094, 0), (0.2513395, -0.96789896, 0), (0.2513395, -0.96789896, 0), (-0.26379487, -0.96457875, 0), (-0.26379487, -0.96457875, 0), (0.2598432, 0.9656508, 0), (0.2598432, 0.9656508, 0), (0.7013298, 0.7128369, 0), (0.7013298, 0.7128369, 0), (-0.95924515, 0.28257543, 0), (-0.95924515, 0.28257543, 0), (-0.7080245, 0.70618796, 0), (-0.7080245, 0.70618796, 0), (-0.26231125, 0.96498334, 0), (-0.26231125, 0.96498334, 0), (0.2598432, 0.9656508, 0), (0.2598432, 0.9656508, 0), (-0.13666067, -0.49756753, -0.85659236), (-0.13528909, -0.49795258, -0.85658634), (0.13095494, -0.50141937, -0.8552365), (0.1297882, -0.5017151, -0.8552408), (0.49766663, 0.13513802, 0.85677636), (0.49711132, 0.1372528, 0.85676247), (0.4988978, -0.13694078, 0.85577345), (0.49963248, -0.13406669, 0.85579985), (0.36414105, -0.36892608, 0.8551579), (0.36439884, -0.36867228, 0.85515743), (0.13095494, -0.5014197, 0.85523623), (0.1297882, -0.5017155, 0.8552407), (-0.13558592, 0.50197923, -0.85418576), (-0.13764337, 0.5014413, -0.85417265), (-0.3730111, 0.3696136, -0.85102785), (-0.3709548, 0.37161866, -0.85105354), (-0.50330925, 0.146107, 0.8516646), (-0.5019836, 0.15107284, 0.85158056), (-0.3730111, 0.36961403, 0.8510277), (-0.37095478, 0.37161908, 0.85105336), (0.13485938, 0.50245225, -0.85402256), (0.13566554, 0.5022388, -0.8540205), (-0.13764337, 0.5014413, -0.85417265), (-0.13558592, 0.50197923, -0.85418576), (0.13485974, 0.50245297, 0.8540222), (0.13566586, 0.50223947, 0.85402006), (0.36386386, 0.37136558, 0.8542193), (0.36512718, 0.37010103, 0.85422915), (0.36414024, -0.36892575, -0.85515827), (0.36439806, -0.36867198, -0.8551579), (0.4988965, -0.1369407, -0.8557743), (0.49963117, -0.13406663, -0.8558007), (-0.50495803, -0.115822926, 0.8553376), (-0.5052229, -0.11469167, 0.8553336), (-0.5019836, 0.15107284, 0.85158056), (-0.50330925, 0.146107, 0.8516646), (0.4976656, 0.13513796, -0.85677695), (0.49711028, 0.13725273, -0.8567632), (0.3638631, 0.37136516, -0.8542199), (0.3651264, 0.3701006, -0.85422957), (-0.13666056, -0.49756798, 0.8565921), (-0.13528901, -0.49795306, 0.85658604), (-0.37216452, -0.35594073, 0.8572047), (-0.37086293, -0.35727304, 0.85721445), (0.49963117, -0.13406663, -0.8558007), (0.4988965, -0.1369407, -0.8557743), (0.49711028, 0.13725273, -0.8567632), (0.4976656, 0.13513796, -0.85677695), (0.1297882, -0.5017151, -0.8552408), (0.13095494, -0.50141937, -0.8552365), (0.36439806, -0.36867198, -0.8551579), (0.36414024, -0.36892575, -0.85515827), (-0.37086293, -0.35727304, 0.85721445), (-0.37216452, -0.35594073, 0.8572047), (-0.5052229, -0.11469167, 0.8553336), (-0.50495803, -0.115822926, 0.8553376), (-0.3709548, 0.37161866, -0.85105354), (-0.3730111, 0.3696136, -0.85102785), (-0.5019832, 0.15107267, -0.85158086), (-0.5033088, 0.14610682, -0.8516649), (0.3651264, 0.3701006, -0.85422957), (0.3638631, 0.37136516, -0.8542199), (0.13566554, 0.5022388, -0.8540205), (0.13485938, 0.50245225, -0.85402256), (0.1297882, -0.5017155, 0.8552407), (0.13095494, -0.5014197, 0.85523623), (-0.13528901, -0.49795306, 0.85658604), (-0.13666056, -0.49756798, 0.8565921), (-0.5033088, 0.14610682, -0.8516649), (-0.5019832, 0.15107267, -0.85158086), (-0.50522316, -0.114691384, -0.85533357), (-0.5049582, -0.115822636, -0.8553375), (-0.37086362, -0.3572725, -0.8572144), (-0.3721652, -0.35594022, -0.85720456), (-0.13528909, -0.49795258, -0.85658634), (-0.13666067, -0.49756753, -0.85659236), (-0.37095478, 0.37161908, 0.85105336), (-0.3730111, 0.36961403, 0.8510277), (-0.13764313, 0.50144196, 0.85417235), (-0.13558568, 0.5019798, 0.8541855), (-0.13558568, 0.5019798, 0.8541855), (-0.13764313, 0.50144196, 0.85417235), (0.13566586, 0.50223947, 0.85402006), (0.13485974, 0.50245297, 0.8540222), (-0.5049582, -0.115822636, -0.8553375), (-0.50522316, -0.114691384, -0.85533357), (-0.3721652, -0.35594022, -0.85720456), (-0.37086362, -0.3572725, -0.8572144), (0.49963248, -0.13406669, 0.85579985), (0.4988978, -0.13694078, 0.85577345), (0.36439884, -0.36867228, 0.85515743), (0.36414105, -0.36892608, 0.8551579), (0.36512718, 0.37010103, 0.85422915), (0.36386386, 0.37136558, 0.8542193), (0.49711132, 0.1372528, 0.85676247), (0.49766663, 0.13513802, 0.85677636), (-0.00048921886, -0.0000019564177, -0.9999998), (-0.00048921886, -0.0000019564177, -0.9999998), (-0.00048921886, -0.0000019564177, -0.9999998), (-0.00048921886, -0.0000019564177, -0.9999998), (-0.00048921886, -0.0000019564177, -0.9999998), (-0.00048921886, -0.0000019564177, -0.9999998), (-0.00048921886, -0.0000019564177, -0.9999998), (-0.00048921886, -0.0000019564177, -0.9999998), (-9.609245e-8, 0, 1), (-9.9889974e-8, 0, 1), (2.650755e-8, 0, 0.99999994), (9.771591e-8, 0, 1), (1.06442606e-7, 0, 1), (2.650755e-8, 0, 0.99999994), (1.06442606e-7, 0, 1), (9.771591e-8, 0, 1), (2.9596927e-7, 0, 1), (2.9596927e-7, 0, 1), (2.9596927e-7, 0, 1), (-9.9889974e-8, 0, 1), (-9.609245e-8, 0, 1), (-3.957628e-7, 0, 1), (-3.957628e-7, 0, 1), (-3.957628e-7, 0, 1), (0.00015238259, 0.99999994, 0.00028675963), (0.00038128352, 0.9999997, 0.0007171638), (-9.569746e-8, 1, 5.351944e-8), (-9.569746e-8, 1, 5.351944e-8), (0.38637465, -0.000013446219, -0.9223419), (0.3863487, -0.000013441518, -0.9223528), (0.31107816, 0, -0.9503843), (0.31107816, 0, -0.9503843), (0.0008999259, -0.99999815, 0.0016929627), (0.00035985996, -0.9999997, 0.00067687785), (3.125116e-8, -1, -1.0703892e-7), (3.125116e-8, -1, -1.0703892e-7), (-0.98835415, 0.0029678282, 0.15214221), (-0.98827744, 0.0029612114, 0.15264016), (-0.9988416, 0.004325152, 0.047924567), (-0.9988416, 0.004325152, 0.047924567), (-0.003457634, -0.9999669, 0.0073675183), (-0.001816937, -0.9999393, 0.010862999), (-0.000038565337, -0.99993837, 0.011098609), (-0.0026917623, -0.9999828, 0.005219801), (-0.3071119, 0.00001683342, 0.9516735), (-0.3071445, 0.000016840791, 0.95166284), (-0.23156635, -6.9759494e-8, 0.97281915), (-0.23156635, -6.9759494e-8, 0.97281915), (-0.00076453324, 0.9999891, 0.0046032583), (-0.0032234478, 0.99998343, 0.0047684903), (-0.004107585, 0.999979, 0.0049870503), (-0.0000123889495, 0.999989, 0.00470155), (0.9875643, -0.002506162, -0.15719576), (0.9971908, -0.0038252424, -0.074805275), (0.9971908, -0.0038252424, -0.074805275), (0.98751515, -0.0025011618, -0.15750399), (0.0025567529, -0.99999666, -0.00033729195), (0.0005314322, -0.9999993, 0.0010805944), (0.0053968173, -0.9999828, -0.0023255786), (0.0053968173, -0.9999828, -0.0023255786), (0.0014646156, -0.019686187, 0.9998052), (0.0014646156, -0.019686187, 0.9998052), (0.0014646156, -0.019686187, 0.9998052), (0.0014646156, -0.019686187, 0.9998052), (-0.3071445, 0.000016840791, 0.95166284), (-0.3071119, 0.00001683342, 0.9516735), (-0.50996655, 0.00014274256, 0.86019427), (-0.5101916, 0.00014293821, 0.86006075), (-0.5101916, 0.00014293821, 0.86006075), (-0.50996655, 0.00014274256, 0.86019427), (-0.7352703, 0.00051976996, 0.6777738), (-0.7356235, 0.0005207207, 0.6773904), (-0.7356235, 0.0005207207, 0.6773904), (-0.7352703, 0.00051976996, 0.6777738), (-0.90960366, 0.0011987536, 0.4154755), (-0.9099506, 0.0012007405, 0.41471508), (-0.9099506, 0.0012007405, 0.41471508), (-0.90960366, 0.0011987536, 0.4154755), (-0.98827744, 0.0029612114, 0.15264016), (-0.98835415, 0.0029678282, 0.15214221), (0.9875643, -0.002506162, -0.15719576), (0.98751515, -0.0025011618, -0.15750399), (0.92381525, -0.0008891992, -0.38283753), (0.92403084, -0.0008903035, -0.3823168), (0.92403084, -0.0008903035, -0.3823168), (0.92381525, -0.0008891992, -0.38283753), (0.77852213, -0.0003911786, -0.62761706), (0.7787504, -0.00039171244, -0.6273337), (0.7787504, -0.00039171244, -0.6273337), (0.77852213, -0.0003911786, -0.62761706), (0.57897735, -0.00011026308, -0.8153436), (0.57913876, -0.00011037961, -0.81522906), (0.57913876, -0.00011037961, -0.81522906), (0.57897735, -0.00011026308, -0.8153436), (0.3863487, -0.000013441518, -0.9223528), (0.38637465, -0.000013446219, -0.9223419), (0.00035985996, -0.9999997, 0.00067687785), (0.0008999259, -0.99999815, 0.0016929627), (0.002142603, -0.99998707, 0.0046176724), (0.0017538122, -0.9999919, 0.0036258278), (0.0017538122, -0.9999919, 0.0036258278), (0.002142603, -0.99998707, 0.0046176724), (0.0028089425, -0.9999681, 0.0074679432), (0.0027748726, -0.9999705, 0.0071617025), (0.0027748726, -0.9999705, 0.0071617025), (0.0028089425, -0.9999681, 0.0074679432), (0.0028093322, -0.9999462, 0.009984347), (0.00278029, -0.999944, 0.0102162985), (0.00278029, -0.999944, 0.0102162985), (0.0028093322, -0.9999462, 0.009984347), (-0.000038565337, -0.99993837, 0.011098609), (-0.001816937, -0.9999393, 0.010862999), (0.00038128352, 0.9999997, 0.0007171638), (0.00015238259, 0.99999994, 0.00028675963), (0.0007432493, 0.99999857, 0.0015352468), (0.000908267, 0.9999977, 0.0019553252), (0.000908267, 0.9999977, 0.0019553252), (0.0007432493, 0.99999857, 0.0015352468), (0.0011772467, 0.9999947, 0.003031561), (0.0011919705, 0.9999943, 0.0031617237), (0.0011919705, 0.9999943, 0.0031617237), (0.0011772467, 0.9999947, 0.003031561), (0.0011829552, 0.9999899, 0.0043252697), (0.0011948145, 0.99999034, 0.0042277263), (0.0011948145, 0.99999034, 0.0042277263), (0.0011829552, 0.9999899, 0.0043252697), (-0.00076453324, 0.9999891, 0.0046032583), (-0.0000123889495, 0.999989, 0.00470155), (-0.0052119116, 0.9999772, 0.004296546), (-0.0052758325, 0.99998003, 0.0034690883), (-0.0053649805, 0.999983, 0.0023149885), (-0.0053649805, 0.999983, 0.0023149885), (-0.7105016, 0.02162105, -0.70336336), (-0.7105016, 0.02162105, -0.70336336), (-0.7105016, 0.02162105, -0.70336336), (-0.7105016, 0.02162105, -0.70336336), (0.7195954, -0.021737324, 0.69405335), (0.7195954, -0.021737324, 0.69405335), (0.7195954, -0.021737324, 0.69405335), (0.7195954, -0.021737324, 0.69405335), (0.0005314322, -0.9999993, 0.0010805944), (0.0025567529, -0.99999666, -0.00033729195), (-0.003457634, -0.9999669, 0.0073675183), (-0.0026917623, -0.9999828, 0.005219801), (-0.004107585, 0.999979, 0.0049870503), (-0.0032234478, 0.99998343, 0.0047684903), (-0.0052758325, 0.99998003, 0.0034690883), (-0.0052119116, 0.9999772, 0.004296546), (-0.014988981, 0.01950376, -0.9996975), (-0.014988981, 0.01950376, -0.9996975), (-0.014988981, 0.01950376, -0.9996975), (-0.014988981, 0.01950376, -0.9996975)] (
                interpolation = "faceVarying"
            )
            point3f[] points = [(-0.016173854, 0.068010405, 0.16825669), (0.019424774, 0.06786695, 0.16815576), (0.05018236, 0.04994341, 0.17224643), (0.067857444, 0.019042369, 0.17231499), (0.04979046, -0.04731385, 0.17231499), (0.01159422, -0.06495953, 0.17924015), (-0.01670921, -0.064845495, 0.17231499), (-0.047466803, -0.04692194, 0.17231499), (-0.047074888, 0.05033532, 0.17231499), (0.015061142, 0.05322968, 0.16815576), (-0.012724645, 0.053341635, 0.16825669), (0.05286429, 0.015120624, 0.17231499), (0.038762465, -0.036672387, 0.17231499), (0.008949168, -0.05044537, 0.17924015), (-0.013142505, -0.05035636, 0.17231499), (-0.037149735, -0.036366493, 0.17231499), (-0.03684383, 0.039545707, 0.17231499), (-0.035861738, -0.038299553, 0.054452375), (0.014037013, 0.055806644, 0.054452375), (-0.0130056, 0.055924233, 0.054452375), (-0.016927311, 0.071188, 0.00078591495), (0.01771421, 0.07103737, 0.00078591495), (-0.046205968, -0.049512442, 0.00078591495), (-0.04571528, 0.052625883, 0.00078591495), (0.049117357, 0.052214302, 0.00078591495), (0.06767471, 0.019762425, 0.00078591495), (0.048704382, -0.049924027, 0.00078591495), (0.017118992, -0.06848616, 0.00078591495), (-0.017562818, -0.06833552, 0.00078591495), (0.070387036, -0.014302148, 0.17164758), (0.054838303, -0.010905868, 0.17164758), (0.03938301, 0.03933982, 0.17224643), (0.06753061, -0.015993895, 0.00078591495), (-0.06767056, 0.01782348, 0.1754024), (-0.052919783, 0.014169137, 0.1754024), (-0.062227163, 0.019221013, 0.00078591495), (-0.06817832, -0.014915555, 0.1715032), (-0.053316075, -0.011384657, 0.1715032), (-0.062365275, -0.015056942, 0.00078591495), (-0.01786096, 0.07473407, -0.0046427944), (0.01854485, 0.07457576, -0.0046427944), (-0.048630774, -0.05211364, -0.0046427944), (-0.0481151, 0.055226583, -0.0046427944), (0.051547352, 0.054794032, -0.0046427944), (0.07104984, 0.020689385, -0.0046427944), (0.05111336, -0.052546192, -0.0046427944), (0.01791932, -0.07205369, -0.0046427944), (-0.018528832, -0.071895376, -0.0046427944), (0.0708984, -0.016887998, -0.0046427944), (-0.065467924, 0.020120403, -0.0046427944), (-0.065613076, -0.015903326, -0.0046427944), (0.01854485, 0.07457576, 0.033221815), (-0.01786096, 0.07473407, 0.033221815), (0.07104984, 0.020689385, 0.033221815), (0.051547352, 0.054794032, 0.033221815), (0.01791932, -0.07205369, 0.033221815), (0.05111336, -0.052546192, 0.033221815), (-0.048630774, -0.05211364, 0.033221815), (-0.018528832, -0.071895376, 0.033221815), (-0.065613076, -0.015903326, 0.033221815), (-0.0481151, 0.055226583, 0.033221815), (0.0708984, -0.016887998, 0.033221815), (-0.065467924, 0.020120403, 0.033221815), (-0.017842377, 0.07136924, 0.09159293), (0.01846142, 0.071218215, 0.09159293), (-0.051956836, -0.04964538, 0.09159293), (-0.049244765, 0.052758805, 0.09159293), (0.051303282, 0.052346144, 0.09159293), (0.07071083, 0.019809797, 0.09159293), (0.0508714, -0.050058044, 0.09159293), (0.01776798, -0.06866849, 0.09159293), (-0.019738633, -0.068517454, 0.09159293), (0.07056013, -0.016039591, 0.09159293), (-0.068976134, 0.01926698, 0.09159293), (-0.07037084, -0.015100197, 0.09159293), (0.01846142, 0.071218215, 0.12927324), (-0.017842377, 0.07136924, 0.12927324), (0.07071083, 0.019809797, 0.12927324), (0.051303282, 0.052346144, 0.12927324), (0.01776798, -0.06866849, 0.12927324), (0.0508714, -0.050058044, 0.12927324), (-0.051956836, -0.04964538, 0.12927324), (-0.019738633, -0.068517454, 0.12927324), (-0.07037084, -0.015100197, 0.12927324), (-0.049244765, 0.052758805, 0.12927324), (0.07056013, -0.016039591, 0.12927324), (-0.068976134, 0.01926698, 0.12927324), (-0.015665786, 0.06291444, 0.08627881), (0.016241053, 0.062781714, 0.08627881), (-0.045648452, -0.043443404, 0.08627881), (-0.043264855, 0.04655803, 0.08627881), (0.04510525, 0.046195347, 0.08627881), (0.06216224, 0.017599665, 0.08627881), (0.04472568, -0.04380609, 0.08627881), (0.015631597, -0.06016252, 0.08627881), (-0.017332379, -0.06002977, 0.08627881), (0.062029786, -0.013907802, 0.08627881), (-0.060606446, 0.017122589, 0.08627881), (-0.061832234, -0.013082187, 0.08627881), (0.016241053, 0.062781714, 0.13458736), (-0.015665786, 0.06291444, 0.13458736), (0.06216224, 0.017599665, 0.13458736), (0.04510525, 0.046195347, 0.13458736), (0.015631597, -0.06016252, 0.13458736), (0.04472568, -0.04380609, 0.13458736), (-0.045648452, -0.043443404, 0.13458736), (-0.017332379, -0.06002977, 0.13458736), (-0.061832234, -0.013082187, 0.13458736), (-0.043264855, 0.04655803, 0.13458736), (0.062029786, -0.013907802, 0.13458736), (-0.060606446, 0.017122589, 0.13458736), (0.068888195, -0.008646959, -0.0034827674), (0.07216746, -0.009912599, -0.0034831078), (0.07355025, -0.012982389, -0.0034819872), (0.07220757, -0.016052177, -0.0034831364), (0.06894406, -0.01731782, -0.0034827674), (0.06566016, -0.016056333, -0.0034796607), (0.06427296, -0.012982387, -0.0034778167), (0.06562113, -0.009908443, -0.0034796607), (-0.035478685, 0.041433875, 0.054452375), (0.038551617, 0.041112576, 0.054452375), (0.053038266, 0.015779288, 0.054452375), (0.038229235, -0.038620856, 0.054452375), (0.013572364, -0.05311123, 0.054452375), (-0.013501703, -0.05299364, 0.054452375), (0.052925773, -0.012133582, 0.054452375), (-0.048368547, 0.015356642, 0.054452375), (-0.048476364, -0.011402157, 0.054452375), (0.05942553, -0.009323128, 0.14985988), (0.059233982, 0.013306603, 0.15024342), (0.058165915, -0.009323124, 0.1687833), (0.057974372, 0.0133066075, 0.16916685), (0.060095366, 0.014083419, 0.04937092), (0.060095377, -0.0101831155, 0.04937092), (0.06587382, 0.014083423, 0.032546416), (0.06587382, -0.010183114, 0.032546416), (0.09829096, 0.013926527, 0.08355178), (0.06845797, 0.014083421, 0.051361516), (0.09559126, 0.01398657, 0.073308036), (0.08897369, 0.014037469, 0.06359338), (0.07944576, 0.0140714785, 0.05588679), (0.06845797, -0.0101831155, 0.051361516), (0.09824358, -0.009812602, 0.083555534), (0.07944216, -0.010154912, 0.05588708), (0.08895982, -0.010074594, 0.063594475), (0.095562, -0.00995439, 0.073310345), (0.087666586, 0.014083423, 0.039679587), (0.11496362, 0.013964106, 0.07346912), (0.0976478, 0.0140743395, 0.044838574), (0.10634035, 0.014048476, 0.05307162), (0.11242085, 0.014009768, 0.06312533), (0.11492799, -0.00990171, 0.07347005), (0.087666586, -0.010183114, 0.039679587), (0.11239886, -0.010009398, 0.06312591), (0.10632991, -0.010100692, 0.0530719), (0.0976451, -0.010161692, 0.044838637), (0.09489776, 0.013549598, 0.14977427), (0.10121641, 0.013626284, 0.14340006), (0.101037584, -0.009109528, 0.14287561), (0.09470975, -0.00908053, 0.14927475), (0.12171174, 0.013619647, 0.1626979), (0.1154841, 0.01356462, 0.16915001), (0.115292996, -0.009065297, 0.16864239), (0.121529356, -0.009093762, 0.16217265)]
            texCoord2f[] primvars:st = [(0.0021318793, 0.9499137), (0.0052537294, 0.20854786), (0.026806219, 0.25206798), (0.99799836, 0.93301916), (0.0021318793, 0.93301916), (0.0052537294, 0.25206798), (0.99799836, 0.95090955), (0.026806219, 0.2079265), (0.99799836, 0.9677973), (0.026806219, 0.16460806), (0.026806219, 0.25206798), (0.0021318793, 0.9677973), (0.99799836, 0.93301916), (0.026806219, 0.25206798), (0.026806219, 0.16460806), (0.0021318793, 0.93301916), (0.99799836, 0.9544229), (0.026806217, 0.2002458), (0.0021318793, 0.9677973), (0.99799836, 0.9677973), (0.026806219, 0.25206798), (0.026806219, 0.16460806), (0.0021318793, 0.9511403), (0.026806219, 0.20842238), (0.0021318793, 0.9677973), (0.99799836, 0.9677973), (0.0052537294, 0.16460806), (0.026806219, 0.16460806), (0.0052537294, 0.25206798), (0.026806219, 0.25206798), (0.0021318793, 0.93301916), (0.99799836, 0.93301916), (0.026806219, 0.20854786), (0.0021318793, 0.9499137), (0.0052537294, 0.16460806), (0.0052537294, 0.25206798), (0.0021318793, 0.9677973), (0.99799836, 0.9677973), (0.0052537294, 0.25206798), (0.0052537294, 0.16460806), (0.0021318793, 0.93301916), (0.99799836, 0.93301916), (0.0052537294, 0.20024583), (0.99799836, 0.9544229), (0.0052537294, 0.25206798), (0.0052537294, 0.16460806), (0.99799836, 0.9677973), (0.0021318793, 0.9677973), (0.0052537294, 0.20842238), (0.0021318793, 0.9511403), (0.026806219, 0.16460806), (0.99799836, 0.9677973), (0.0021318793, 0.9677973), (0.0052537294, 0.16460806), (0.27623242, 0.9517886), (0.77092147, 0.42706215), (0.276295, 0.93301916), (0.72337186, 0.93301916), (0.79153293, 0.40323052), (0.7994837, 0.44395012), (0.27675837, 0.94977605), (0.7994838, 0.42404085), (0.27675837, 0.94977605), (0.72337186, 0.93301916), (0.276295, 0.93301916), (0.27623242, 0.9517886), (0.27640527, 0.9677973), (0.72337186, 0.9677973), (0.7235117, 0.95003587), (0.7238531, 0.9677973), (0.27673823, 0.9677973), (0.7248502, 0.93301916), (0.27675837, 0.93301916), (0.7237414, 0.95142287), (0.27675837, 0.9677973), (0.72337186, 0.9677973), (0.026806219, 0.21057124), (0.0021318793, 0.95264226), (0.0052537294, 0.21057124), (0.0021318793, 0.95264226), (0.0052537294, 0.2079265), (0.99799836, 0.95090955), (0.27645826, 0.9515077), (0.99799836, 0.94934726), (0.026806219, 0.21216473), (0.99799836, 0.94934726), (0.0052537294, 0.21216473), (0.7245248, 0.9500678), (0.0021318793, 0.93301916), (0.026806219, 0.16460806), (0.99799836, 0.93301916), (0.026806219, 0.25206798), (0.99799836, 0.93301916), (0.0021318793, 0.93301916), (0.0052537294, 0.16460806), (0.0052537294, 0.25206798), (0.27547705, 0.93301916), (0.72450274, 0.93301916), (0.8317951, 0.24880259), (0.108823374, 0.70998925), (0.88926077, 0.24857157), (0.13871166, 0.70998925), (0.7832258, 0.06369071), (0.35798517, 0.70998925), (0.7840398, 0.22033481), (0.07927019, 0.7099893), (0.94135433, 0.2197036), (0.17030007, 0.70998925), (0.9721385, 0.16993389), (0.20255351, 0.70998925), (0.94066924, 0.06305948), (0.26688215, 0.70998925), (0.88827336, 0.034591712), (0.29849082, 0.70998925), (0.8307409, 0.03482277), (0.3284139, 0.70998925), (0.9718994, 0.115096316), (0.23340358, 0.70998925), (0.75664884, 0.16910353), (0.42039418, 0.70998925), (0.047120485, 0.7099893), (0.75641966, 0.11653328), (0.39081967, 0.70998925), (0.88926077, 0.24857157), (0.13871168, 0.7534502), (0.8317951, 0.24880259), (0.10882339, 0.7534502), (0.9721385, 0.16993389), (0.20255351, 0.7534502), (0.94135433, 0.2197036), (0.17030007, 0.7534502), (0.88827336, 0.034591712), (0.29849082, 0.7534502), (0.94066924, 0.06305948), (0.26688215, 0.7534502), (0.7832258, 0.06369071), (0.35798517, 0.7534502), (0.8307409, 0.03482277), (0.3284139, 0.7534502), (0.75641966, 0.11653328), (0.39081964, 0.75345016), (0.7840398, 0.22033481), (0.07927019, 0.7534502), (0.9718994, 0.115096316), (0.23340358, 0.7534502), (0.75664884, 0.16910353), (0.42039418, 0.75345016), (0.047120485, 0.7534502), (0.29322314, 0.64005023), (0.33010387, 0.951081), (0.3393734, 0.64005023), (0.25247008, 0.951081), (0.67795175, 0.64005023), (0.6485521, 0.951081), (0.24759033, 0.6400503), (0.4081627, 0.951081), (0.38814875, 0.64005023), (0.17147058, 0.951081), (0.43795103, 0.64005023), (0.090456426, 0.95108104), (0.5372804, 0.64005023), (0.8898133, 0.9510809), (0.586087, 0.64005023), (0.808604, 0.9510809), (0.63229096, 0.64005023), (0.728398, 0.951081), (0.48558637, 0.64005023), (0.97386473, 0.9510809), (0.013794243, 0.95108104), (0.77431697, 0.64005023), (0.19794825, 0.6400503), (0.49128777, 0.951081), (0.72865117, 0.64005023), (0.5648401, 0.951081), (0.3393734, 0.695167), (0.73475313, 0.9507967), (0.2932232, 0.695167), (0.6571193, 0.9507968), (0.43795103, 0.695167), (0.89676684, 0.95079666), (0.38814875, 0.695167), (0.8157526, 0.9507967), (0.586087, 0.695167), (0.1786192, 0.9507968), (0.5372804, 0.695167), (0.097409844, 0.95079684), (0.67795175, 0.695167), (0.33867103, 0.9507968), (0.63229096, 0.695167), (0.25882512, 0.9507968), (0.72865117, 0.69516695), (0.422383, 0.9507968), (0.24759033, 0.695167), (0.57906044, 0.9507968), (0.48558637, 0.695167), (0.97342896, 0.95079666), (0.013358235, 0.95079684), (0.77431697, 0.69516695), (0.19794825, 0.695167), (0.4959354, 0.9507968), (0.33010387, 0.9751252), (0.25247008, 0.9751252), (0.6485521, 0.9751252), (0.4081627, 0.9751252), (0.17147058, 0.9751252), (0.090456426, 0.97512525), (0.8898133, 0.97512513), (0.808604, 0.9751252), (0.728398, 0.9751252), (0.97386485, 0.97512513), (0.013794243, 0.97512525), (0.49128777, 0.9751252), (0.5648401, 0.9751252), (0.73475313, 0.9749981), (0.6571193, 0.9749981), (0.8967669, 0.97499806), (0.8157526, 0.9749981), (0.1786192, 0.9749981), (0.097409844, 0.9749982), (0.33867103, 0.9749981), (0.25882512, 0.9749981), (0.422383, 0.9749981), (0.57906044, 0.9749981), (0.97342896, 0.974998), (0.013358235, 0.9749982), (0.4959354, 0.9749981), (0.81417704, 0.7189297), (0.8107295, 0.7225862), (0.81086755, 0.7274652), (0.81453276, 0.7306885), (0.81954837, 0.7303724), (0.823001, 0.72672015), (0.8228638, 0.7218341), (0.81919265, 0.71860695), (0.72337186, 0.9677973), (0.27640527, 0.9677973), (0.78800046, 0.44395012), (0.6565982, 0.44395012), (0.7235117, 0.95003587), (0.7697003, 0.42564756), (0.27673823, 0.9677973), (0.7238531, 0.9677973), (0.72845745, 0.41859442), (0.27675837, 0.93301916), (0.7248502, 0.93301916), (0.66745126, 0.4015241), (0.6565982, 0.44395012), (0.7237414, 0.95142287), (0.6565982, 0.42311558), (0.72337186, 0.9677973), (0.27675837, 0.9677973), (0.6645582, 0.44395015), (0.7994837, 0.44395012), (0.27645826, 0.9515077), (0.6888629, 0.4250014), (0.7245248, 0.9500678), (0.68972385, 0.42704532), (0.72450274, 0.93301916), (0.27547705, 0.93301916), (0.72809803, 0.42139617), (0.84222704, 0.4439619), (0.5172623, 0.44224447), (0.8367843, 0.396145), (0.5172623, 0.3938474), (0.84222704, 0.39445367), (0.5172623, 0.3957876), (0.5172623, 0.4422444), (0.8367843, 0.44364142), (0.51850206, 0.39614502), (0.76958513, 0.3938474), (0.520178, 0.4439619), (0.76958513, 0.4422444), (0.51850206, 0.44364142), (0.7695427, 0.4422444), (0.7695427, 0.39578754), (0.520178, 0.39445367), (0.6740407, 0.39384735), (0.61834496, 0.39614502), (0.75686294, 0.3938474), (0.54341584, 0.39614502), (0.6901418, 0.3938709), (0.60065764, 0.39614502), (0.71360517, 0.39393902), (0.5813574, 0.39614502), (0.7394123, 0.39387122), (0.56179124, 0.39614502), (0.7568629, 0.4422444), (0.5453866, 0.4439619), (0.6738376, 0.4422444), (0.6212024, 0.4439619), (0.7394172, 0.44218814), (0.56397945, 0.4439619), (0.71360517, 0.442028), (0.5837771, 0.4439619), (0.69002134, 0.44224203), (0.60330576, 0.4439619), (0.74296534, 0.4422444), (0.54341584, 0.44364142), (0.6803413, 0.4422444), (0.61834496, 0.44364142), (0.7300314, 0.442227), (0.56179124, 0.44364142), (0.7115247, 0.44217753), (0.5813574, 0.44364142), (0.69318813, 0.44222417), (0.60065764, 0.44364142), (0.68022174, 0.39578754), (0.6212024, 0.39445367), (0.74296534, 0.39578754), (0.5453866, 0.39445367), (0.6931178, 0.39579004), (0.60330576, 0.39445367), (0.7115247, 0.39594534), (0.5837771, 0.39445367), (0.73003435, 0.39582857), (0.56397945, 0.39445367), (0.76643795, 0.396145), (0.57891953, 0.39384735), (0.5983284, 0.39384735), (0.7405325, 0.396145), (0.5983755, 0.4422444), (0.7447274, 0.4439619), (0.7711647, 0.4439619), (0.57881856, 0.4422444), (0.5903159, 0.4422444), (0.7442658, 0.44364142), (0.5768501, 0.4422444), (0.7620904, 0.44364142), (0.5768073, 0.3957876), (0.7667035, 0.3944537), (0.59034663, 0.39578757), (0.74855864, 0.39445367)] (
                interpolation = "faceVarying"
            )
            int[] primvars:st:indices = [7, 2, 28, 80, 22, 65, 74, 18, 0, 62, 66, 24, 16, 73, 71, 12, 8, 69, 68, 6, 6, 68, 63, 3, 4, 64, 62, 0, 17, 13, 38, 42, 9, 7, 80, 34, 73, 16, 19, 75, 14, 76, 78, 39, 5, 1, 32, 29, 23, 20, 44, 48, 21, 17, 42, 45, 76, 10, 35, 78, 25, 67, 87, 83, 257, 255, 85, 92, 240, 253, 79, 36, 72, 82, 77, 15, 1, 26, 50, 32, 93, 49, 54, 258, 88, 96, 65, 22, 243, 40, 79, 253, 51, 85, 255, 234, 247, 249, 46, 43, 30, 33, 60, 56, 81, 31, 57, 238, 37, 81, 238, 241, 43, 41, 244, 247, 33, 52, 235, 60, 89, 23, 48, 94, 70, 11, 77, 82, 97, 90, 83, 87, 49, 47, 250, 54, 84, 91, 95, 86, 27, 84, 86, 53, 100, 106, 108, 116, 110, 112, 114, 102, 121, 118, 104, 98, 123, 125, 141, 145, 139, 135, 137, 131, 133, 143, 127, 129, 105, 142, 126, 99, 115, 138, 136, 103, 122, 140, 146, 119, 107, 130, 128, 109, 117, 144, 134, 111, 103, 136, 140, 122, 111, 134, 132, 113, 109, 128, 144, 117, 113, 132, 138, 115, 101, 124, 130, 107, 120, 147, 142, 105, 99, 126, 124, 101, 154, 192, 176, 148, 164, 188, 186, 152, 172, 190, 197, 169, 156, 180, 178, 158, 166, 194, 184, 160, 152, 186, 190, 172, 160, 184, 182, 162, 158, 178, 194, 166, 162, 182, 188, 164, 150, 174, 180, 156, 170, 198, 192, 154, 148, 176, 174, 150, 165, 208, 207, 163, 179, 215, 223, 195, 185, 218, 217, 183, 149, 200, 203, 155, 199, 225, 222, 193, 151, 201, 200, 149, 175, 213, 216, 181, 161, 206, 209, 167, 191, 221, 225, 199, 159, 205, 204, 157, 189, 220, 219, 187, 168, 210, 205, 159, 163, 207, 206, 161, 187, 219, 221, 191, 155, 203, 211, 171, 157, 204, 201, 151, 183, 217, 220, 189, 171, 211, 212, 173, 153, 202, 208, 165, 193, 222, 214, 177, 177, 214, 213, 175, 173, 212, 202, 153, 196, 224, 218, 185, 181, 216, 215, 179, 226, 227, 228, 229, 230, 231, 232, 233, 245, 58, 61, 236, 251, 248, 252, 237, 256, 259, 55, 59, 246, 254, 242, 239, 279, 297, 272, 268, 296, 308, 274, 273, 309, 287, 270, 275, 276, 288, 320, 318, 321, 289, 307, 331, 286, 278, 269, 271, 277, 319, 325, 299, 298, 324, 330, 306, 322, 329, 264, 260, 328, 326, 266, 265, 278, 286, 290, 284, 284, 290, 292, 282, 282, 292, 294, 280, 280, 294, 288, 276, 298, 306, 310, 304, 304, 310, 312, 302, 302, 312, 314, 300, 300, 314, 308, 296, 287, 309, 315, 291, 291, 315, 313, 293, 293, 313, 311, 295, 295, 311, 307, 289, 297, 279, 285, 301, 301, 285, 283, 303, 303, 283, 281, 305, 305, 281, 277, 299, 327, 316, 262, 267, 323, 317, 318, 320, 330, 324, 326, 328, 329, 322, 321, 331, 325, 319, 316, 327, 317, 323, 261, 263]
            uniform token subdivisionScheme = "none"
            uniform token subsetFamily:materialBind:familyType = "nonOverlapping"
            custom string userProperties:blender:data_name = "Cylinder.068"

            def GeomSubset "MI_Trim_Metal" (
                prepend apiSchemas = ["MaterialBindingAPI"]
            )
            {
                uniform token elementType = "face"
                uniform token familyName = "materialBind"
                int[] indices = [36, 37, 38, 39, 40, 41, 42, 43, 44, 45, 46, 47, 48, 49, 50, 51, 52, 53, 54, 55, 56, 57, 58, 59, 60, 61, 62, 63, 64, 65, 66, 67, 68, 69, 70, 71, 72, 73, 74, 75, 76, 77, 78, 79, 80, 81, 82, 83, 84, 85, 86]
                rel material:binding = </root/_materials/MI_Trim_Metal>
            }

            def GeomSubset "MI_Trim_Furniture" (
                prepend apiSchemas = ["MaterialBindingAPI"]
            )
            {
                uniform token elementType = "face"
                uniform token familyName = "materialBind"
                int[] indices = [0, 1, 2, 3, 4, 5, 6, 7, 8, 9, 10, 11, 12, 13, 14, 15, 16, 17, 18, 19, 20, 21, 22, 23, 24, 25, 26, 27, 28, 29, 30, 31, 32, 33, 34, 35, 87, 88, 89, 90, 91, 92, 93, 94, 95, 96, 97, 98, 99, 100, 101, 102, 103, 104, 105, 106, 107, 108, 109, 110, 111, 112, 113, 114, 115, 116, 117, 118, 119, 120, 121]
                rel material:binding = </root/_materials/MI_Trim_Furniture>
            }
        }
    }

    def Scope "_materials"
    {
        def Material "MI_Trim_Metal"
        {
            token outputs:surface.connect = </root/_materials/MI_Trim_Metal/Principled_BSDF.outputs:surface>
            custom string userProperties:blender:data_name = "MI_Trim_Metal"

            def Shader "Principled_BSDF"
            {
                uniform token info:id = "UsdPreviewSurface"
                float inputs:clearcoat = 0
                float inputs:clearcoatRoughness = 0.03
                color3f inputs:diffuseColor.connect = </root/_materials/MI_Trim_Metal/Image_Texture.outputs:rgb>
                float inputs:ior = 1.5
                float inputs:metallic = 0
                normal3f inputs:normal.connect = </root/_materials/MI_Trim_Metal/Image_Texture_001.outputs:rgb>
                float inputs:opacity = 1
                float inputs:roughness = 0.8727273
                float inputs:specular = 0.5
                token outputs:surface
            }

            def Shader "Image_Texture"
            {
                uniform token info:id = "UsdUVTexture"
                token inputs:sourceColorSpace = "sRGB"
                float2 inputs:st.connect = </root/_materials/MI_Trim_Metal/uvmap.outputs:result>
                token inputs:wrapS = "repeat"
                token inputs:wrapT = "repeat"
                float3 outputs:rgb
            }

            def Shader "uvmap"
            {
                uniform token info:id = "UsdPrimvarReader_float2"
                string inputs:varname = "st"
                float2 outputs:result
            }

            def Shader "Image_Texture_001"
            {
                uniform token info:id = "UsdUVTexture"
                float4 inputs:bias = (-1, -1, -1, -1)
                float4 inputs:scale = (2, 2, 2, 2)
                token inputs:sourceColorSpace = "raw"
                float2 inputs:st.connect = </root/_materials/MI_Trim_Metal/uvmap.outputs:result>
                token inputs:wrapS = "repeat"
                token inputs:wrapT = "repeat"
                float3 outputs:rgb
            }
        }

        def Material "MI_Trim_Furniture"
        {
            token outputs:surface.connect = </root/_materials/MI_Trim_Furniture/Principled_BSDF.outputs:surface>
            custom string userProperties:blender:data_name = "MI_Trim_Furniture"

            def Shader "Principled_BSDF"
            {
                uniform token info:id = "UsdPreviewSurface"
                float inputs:clearcoat = 0
                float inputs:clearcoatRoughness = 0.03
                color3f inputs:diffuseColor.connect = </root/_materials/MI_Trim_Furniture/Image_Texture.outputs:rgb>
                float inputs:ior = 1.5
                float inputs:metallic = 0
                normal3f inputs:normal.connect = </root/_materials/MI_Trim_Furniture/Image_Texture_001.outputs:rgb>
                float inputs:opacity = 1
                float inputs:roughness = 0.8727273
                float inputs:specular = 0.5
                token outputs:surface
            }

            def Shader "Image_Texture"
            {
                uniform token info:id = "UsdUVTexture"
                token inputs:sourceColorSpace = "sRGB"
                float2 inputs:st.connect = </root/_materials/MI_Trim_Furniture/uvmap.outputs:result>
                token inputs:wrapS = "repeat"
                token inputs:wrapT = "repeat"
                float3 outputs:rgb
            }

            def Shader "uvmap"
            {
                uniform token info:id = "UsdPrimvarReader_float2"
                string inputs:varname = "st"
                float2 outputs:result
            }

            def Shader "Image_Texture_001"
            {
                uniform token info:id = "UsdUVTexture"
                float4 inputs:bias = (-1, -1, -1, -1)
                float4 inputs:scale = (2, 2, 2, 2)
                token inputs:sourceColorSpace = "raw"
                float2 inputs:st.connect = </root/_materials/MI_Trim_Furniture/uvmap.outputs:result>
                token inputs:wrapS = "repeat"
                token inputs:wrapT = "repeat"
                float3 outputs:rgb
            }
        }
    }
}

