#usda 1.0
(
    defaultPrim = "root"
    doc = "Blender v5.1.2"
    metersPerUnit = 1
    upAxis = "Y"
)

def Xform "root" (
    customData = {
        dictionary Blender = {
            bool generated = 1
        }
    }
)
{
    float3 xformOp:rotateXYZ = (-90, -0, 0)
    uniform token[] xformOpOrder = ["xformOp:rotateXYZ"]

    def Xform "Table_Knife"
    {
        custom string userProperties:blender:object_name = "Table_Knife"

        def Mesh "Cube_147" (
            active = true
            prepend apiSchemas = ["MaterialBindingAPI"]
        )
        {
            uniform bool doubleSided = 1
            float3[] extent = [(-0.028310535, -0.082467034, -0.0030798565), (0.013348837, 0.20411071, 0.0030798565)]
            int[] faceVertexCounts = [4, 3, 4, 4, 4, 4, 4, 4, 4, 4, 4, 4, 4, 3, 4, 4, 4, 4, 4, 4, 4, 4, 4, 4, 4, 4, 4, 4]
            int[] faceVertexIndices = [7, 3, 19, 24, 13, 12, 9, 1, 0, 25, 26, 18, 19, 3, 2, 6, 7, 24, 21, 23, 20, 1, 5, 17, 22, 4, 0, 22, 23, 5, 4, 2, 6, 21, 18, 12, 14, 8, 9, 15, 13, 9, 8, 14, 2, 10, 16, 15, 8, 11, 16, 2, 3, 10, 3, 15, 16, 10, 8, 14, 16, 11, 3, 7, 13, 15, 6, 2, 14, 12, 7, 6, 12, 13, 20, 23, 24, 19, 22, 17, 18, 21, 23, 22, 21, 24, 19, 18, 17, 20, 0, 1, 20, 17, 28, 27, 26, 25, 0, 4, 28, 25, 5, 1, 26, 27, 4, 5, 27, 28]
            rel material:binding = </root/_materials/MI_Trim_Metal>
            normal3f[] normals = [(-5.3007767e-9, 0, 1), (-0.041819878, -0.0039013198, 0.99911755), (0, 0, 1), (0, 0, 1), (1, 5.4592646e-9, 0), (1, 5.4592646e-9, 0), (1, 1.102012e-8, 0), (-0.8851816, -0.46524566, 0), (-0.8851816, -0.46524566, 0), (-0.432881, -0.9014511, 0), (-0.432881, -0.9014511, 0), (-0.9997868, 0.020651482, 0), (-0.9997868, 0.020651482, 0), (-0.83275706, -0.5536386, 0), (-0.83275706, -0.5536386, 0), (0.9992902, 0.037672017, 0), (0.9992902, 0.037672017, 0), (0.9997868, 0.020651482, 0), (0.9997868, 0.020651482, 0), (0, 0, 1), (0, 0, 1), (0, 0, 1), (0, 0, 1), (0, 0, -1), (0, 0, -1), (0, 0, -1), (0, 0, -1), (0.9867078, -0.1625043, 0), (0.9867078, -0.1625043, 0), (0.8851816, -0.46524566, 0), (0.8851816, -0.46524566, 0), (-0.041819885, -0.0039013203, -0.99911755), (-5.3007767e-9, 0, -1), (0, 0, -1), (0, 0, -1), (-0.00502872, 0.015840972, -0.99986184), (-0.06194813, 0.011872133, -0.9980088), (-0.030510705, 0.02727043, -0.9991624), (-0.009314815, 0.029342627, -0.999526), (-0.06194813, 0.011872132, 0.9980088), (-0.00502872, 0.015840972, 0.99986184), (-0.009314815, 0.029342627, 0.999526), (-0.030510705, 0.02727043, 0.9991624), (-0.06194813, 0.011872133, -0.9980088), (-0.041819885, -0.0039013203, -0.99911755), (-0.14288864, -0.013329888, -0.989649), (-0.13319877, -0.00361784, -0.99108267), (-0.06194813, 0.011872132, 0.9980088), (-0.030510705, 0.02727043, 0.9991624), (-0.11017654, 0.019358747, 0.99372345), (-0.13319877, -0.00361784, 0.99108267), (-0.83275706, -0.5536386, 0), (-0.83275706, -0.5536386, 0), (-0.2311104, -0.9729275, 0), (-0.041819878, -0.0039013198, 0.99911755), (-0.06194813, 0.011872132, 0.9980088), (-0.13319877, -0.00361784, 0.99108267), (-0.14288864, -0.013329888, 0.989649), (-0.030510705, 0.02727043, -0.9991624), (-0.06194813, 0.011872133, -0.9980088), (-0.13319877, -0.00361784, -0.99108267), (-0.11017654, 0.019358747, -0.99372345), (-0.041819878, -0.0039013198, 0.99911755), (-5.3007767e-9, 0, 1), (-0.00502872, 0.015840972, 0.99986184), (-0.06194813, 0.011872132, 0.9980088), (-5.3007767e-9, 0, -1), (-0.041819885, -0.0039013203, -0.99911755), (-0.06194813, 0.011872133, -0.9980088), (-0.00502872, 0.015840972, -0.99986184), (0.9992902, 0.037672017, 0), (0.9992902, 0.037672017, 0), (1, 5.4592646e-9, 0), (1, 5.4592646e-9, 0), (0, 0, 1), (0, 0, 1), (0, 0, 1), (0, 0, 1), (0, 0, -1), (0, 0, -1), (0, 0, -1), (0, 0, -1), (0.9867078, -0.1625043, 0), (0.9867078, -0.1625043, 0), (0.9997868, 0.020651482, 0), (0.9997868, 0.020651482, 0), (-0.9997868, 0.020651482, 0), (-0.9997868, 0.020651482, 0), (-0.9867078, -0.1625043, 0), (-0.9867078, -0.1625043, 0), (-0.8851816, -0.46524566, 0), (-0.8851816, -0.46524566, 0), (-0.9867078, -0.1625043, 0), (-0.9867078, -0.1625043, 0), (0.432881, -0.9014511, 0), (0.432881, -0.9014511, 0), (-0.432881, -0.9014511, 0), (-0.432881, -0.9014511, 0), (0, 0, -1), (0, 0, -1), (0, 0, -1), (0, 0, -1), (0, 0, 1), (0, 0, 1), (0, 0, 1), (0, 0, 1), (0.8851816, -0.46524566, 0), (0.8851816, -0.46524566, 0), (0.432881, -0.9014511, 0), (0.432881, -0.9014511, 0)] (
                interpolation = "faceVarying"
            )
            point3f[] points = [(-0.006804619, -0.077737756, -0.0030798565), (-0.006804619, -0.077737756, 0.0030798565), (-0.005784109, 0.064013995, -0.0030798565), (-0.005784109, 0.064013995, 0.0030798565), (0.006804619, -0.077737756, -0.0030798565), (0.006804619, -0.077737756, 0.0030798565), (0.005784109, 0.064013995, -0.0030798565), (0.005784109, 0.064013995, 0.0030798565), (-0.0070622317, 0.19775744, 0), (0.005784108, 0.20411071, 0), (-0.024908423, 0.06855681, 0), (-0.019706957, 0.17599578, 0), (0.005784109, 0.09692341, -0.0030798565), (0.005784109, 0.09692341, 0.0030798565), (-0.0060843457, 0.09543098, -0.0030798565), (-0.0060843457, 0.09543098, 0.0030798565), (-0.028310535, 0.07682686, 0), (-0.0125872735, -0.058528114, -0.0030798565), (-0.013348837, -0.036174636, -0.0030798565), (-0.013348837, -0.036174636, 0.0030798565), (-0.0125872735, -0.058528114, 0.0030798565), (0.013348837, -0.036174636, -0.0030798565), (0.0125872735, -0.058528114, -0.0030798565), (0.0125872735, -0.058528114, 0.0030798565), (0.013348837, -0.036174636, 0.0030798565), (-0.003015897, -0.082467034, -0.0030798565), (-0.003015897, -0.082467034, 0.0030798565), (0.003015897, -0.082467034, 0.0030798565), (0.003015897, -0.082467034, -0.0030798565)]
            texCoord2f[] primvars:st = [(0.6443616, 0.9832042), (0.029033542, 0.74330866), (0.6443616, 0.96992064), (0.029033542, 0.74330866), (0.9525331, 0.9832042), (0.25130197, 0.73954815), (0.9525332, 0.9699205), (0.25130197, 0.73954815), (0.029033542, 0.7114477), (0.60521775, 0.98320425), (0.029033542, 0.7114477), (0.6052178, 0.96992064), (0.25130197, 0.7114477), (0.29704624, 0.98320425), (0.25130197, 0.7114477), (0.29704624, 0.96992064), (0.47791642, 0.74155223), (-0.005076945, 0.9765625), (0.47791642, 0.7114477), (0.994923, 0.9765624), (0.24541405, 0.7510724), (0.47791642, 0.7510724), (0.30290428, 0.7114477), (0.22607604, 0.98320425), (0.30290428, 0.7114477), (0.22607604, 0.96992064), (0.30056414, 0.74001896), (0.30056414, 0.74001896), (0.26038462, 0.7510724), (0.05915445, 0.74330866), (0.6876241, 0.9832042), (0.09420502, 0.74330866), (0.73585814, 0.9832042), (0.09420502, 0.74330866), (0.7358581, 0.9699206), (0.05915445, 0.74330866), (0.6876241, 0.9699206), (0.09420502, 0.7114477), (0.5137213, 0.98320425), (0.05915445, 0.7114477), (0.5619553, 0.98320425), (0.05915445, 0.7114477), (0.5619553, 0.96992064), (0.09420502, 0.7114477), (0.5137213, 0.96992064), (0.6312936, 0.9832042), (0.021617979, 0.74330866), (0.6312936, 0.96992064), (0.021617979, 0.74330866), (0.021617979, 0.7114477), (0.61828583, 0.96992064), (0.021617979, 0.7114477), (0.61828583, 0.9832042)] (
                interpolation = "faceVarying"
            )
            int[] primvars:st:indices = [14, 7, 33, 43, 25, 23, 17, 2, 0, 45, 47, 32, 34, 6, 4, 13, 15, 44, 38, 41, 35, 3, 10, 29, 39, 8, 1, 40, 42, 11, 9, 5, 12, 37, 31, 22, 26, 16, 18, 27, 24, 18, 16, 26, 5, 20, 28, 27, 16, 21, 28, 4, 6, 19, 7, 27, 28, 20, 16, 26, 28, 21, 7, 14, 24, 27, 12, 5, 26, 22, 15, 13, 23, 25, 35, 41, 43, 33, 39, 29, 31, 37, 42, 40, 38, 44, 34, 32, 30, 36, 0, 2, 36, 30, 52, 50, 47, 45, 1, 8, 51, 46, 10, 3, 48, 49, 9, 11, 50, 52]
            uniform token subdivisionScheme = "none"
            custom string userProperties:blender:data_name = "Cube.147"
        }
    }

    def Scope "_materials"
    {
        def Material "MI_Trim_Metal"
        {
            token outputs:surface.connect = </root/_materials/MI_Trim_Metal/Principled_BSDF.outputs:surface>
            custom string userProperties:blender:data_name = "MI_Trim_Metal"

            def Shader "Principled_BSDF"
            {
                uniform token info:id = "UsdPreviewSurface"
                float inputs:clearcoat = 0
                float inputs:clearcoatRoughness = 0.03
                color3f inputs:diffuseColor.connect = </root/_materials/MI_Trim_Metal/Image_Texture.outputs:rgb>
                float inputs:ior = 1.5
                float inputs:metallic = 0
                normal3f inputs:normal.connect = </root/_materials/MI_Trim_Metal/Image_Texture_001.outputs:rgb>
                float inputs:opacity = 1
                float inputs:roughness = 0.8727273
                float inputs:specular = 0.5
                token outputs:surface
            }

            def Shader "Image_Texture"
            {
                uniform token info:id = "UsdUVTexture"
                asset inputs:file = @./textures/T_TrimMetal_D.png@
                token inputs:sourceColorSpace = "sRGB"
                float2 inputs:st.connect = </root/_materials/MI_Trim_Metal/uvmap.outputs:result>
                token inputs:wrapS = "repeat"
                token inputs:wrapT = "repeat"
                float3 outputs:rgb
            }

            def Shader "uvmap"
            {
                uniform token info:id = "UsdPrimvarReader_float2"
                string inputs:varname = "st"
                float2 outputs:result
            }

            def Shader "Image_Texture_001"
            {
                uniform token info:id = "UsdUVTexture"
                float4 inputs:bias = (-1, -1, -1, -1)
                asset inputs:file = @./textures/T_TrimMetal_N.png@
                float4 inputs:scale = (2, 2, 2, 2)
                token inputs:sourceColorSpace = "raw"
                float2 inputs:st.connect = </root/_materials/MI_Trim_Metal/uvmap.outputs:result>
                token inputs:wrapS = "repeat"
                token inputs:wrapT = "repeat"
                float3 outputs:rgb
            }
        }
    }
}

