#usda 1.0
(
    defaultPrim = "root"
    doc = "Blender v5.1.2"
    metersPerUnit = 1
    upAxis = "Y"
)

def Xform "root" (
    customData = {
        dictionary Blender = {
            bool generated = 1
        }
    }
)
{
    float3 xformOp:rotateXYZ = (-90, -0, 0)
    uniform token[] xformOpOrder = ["xformOp:rotateXYZ"]

    def Xform "Shelf_Simple"
    {
        custom string userProperties:blender:object_name = "Shelf_Simple"

        def Mesh "Cube_103" (
            active = true
            prepend apiSchemas = ["MaterialBindingAPI"]
        )
        {
            uniform bool doubleSided = 1
            float3[] extent = [(-0.59250474, -0.3358173, -0.20106927), (0.5913491, -0.04353133, 0.10765185)]
            int[] faceVertexCounts = [4, 4, 4, 4, 4, 4, 4, 4, 4, 4, 4, 4, 4, 4, 4, 4, 4, 4, 4, 4, 4, 4, 4, 4, 4, 4, 4, 4, 4, 4, 4, 4, 4, 4, 4, 4, 4, 4, 4, 4, 4, 4, 4, 4, 4, 4, 4, 4, 4, 4, 5, 4, 4, 4, 4, 4, 4, 4, 4, 4, 4, 4, 4, 4, 4, 4, 4, 4, 4, 4, 4, 4, 4, 4, 4, 4, 4, 4, 4, 4, 4, 4, 4, 4, 4, 4, 4, 4, 4, 4, 4, 4, 4, 4, 4, 4, 4, 4, 4, 4, 4, 4, 4, 4, 4, 4, 4, 4, 4, 4, 4, 4, 4, 4, 4, 4, 4, 4, 4, 4, 4, 4, 4, 4, 4, 4, 4, 4, 4, 4, 3, 4, 4, 4, 4, 4, 4, 4, 4, 4, 4, 4, 4, 4, 4, 4, 4, 4, 4, 4, 4, 4, 4, 4, 4, 4, 4, 4, 5, 4, 4, 4, 4, 4, 4, 4, 4, 4, 4, 4, 4, 4, 4, 4, 4, 4, 4, 4, 4, 4, 4, 4, 4, 4, 4, 4, 4, 4, 4, 4, 4, 4, 4, 4, 4, 4, 4, 4, 4, 4, 4, 4, 4, 4, 4, 4, 4, 4, 4, 4, 4, 4, 4, 4, 4, 4, 4, 4, 4, 4, 4, 4, 4, 4, 4, 4, 4, 4, 4, 4, 4, 4, 4, 4, 4, 4, 4, 4, 3, 4]
            int[] faceVertexIndices = [0, 1, 2, 3, 4, 7, 6, 5, 2, 1, 5, 6, 3, 2, 6, 7, 0, 3, 7, 4, 1, 0, 4, 5, 8, 11, 10, 9, 12, 13, 14, 15, 10, 14, 13, 9, 11, 15, 14, 10, 8, 12, 15, 11, 9, 13, 12, 8, 16, 17, 19, 18, 18, 19, 23, 22, 22, 23, 21, 20, 20, 21, 17, 16, 18, 22, 20, 16, 23, 19, 17, 21, 24, 25, 27, 26, 26, 27, 31, 30, 30, 31, 29, 28, 28, 29, 25, 24, 26, 30, 28, 24, 31, 27, 25, 29, 65, 54, 55, 69, 69, 122, 121, 70, 51, 111, 113, 56, 32, 35, 38, 36, 40, 32, 36, 41, 34, 33, 37, 99, 69, 55, 115, 122, 52, 108, 111, 51, 53, 48, 51, 56, 58, 112, 110, 49, 38, 101, 132, 81, 59, 118, 117, 60, 47, 33, 34, 52, 59, 70, 121, 118, 42, 103, 104, 106, 72, 40, 41, 74, 79, 129, 127, 77, 117, 141, 96, 60, 32, 40, 39, 35, 95, 71, 75, 97, 41, 100, 126, 74, 36, 38, 81, 84, 45, 107, 105, 46, 41, 36, 84, 88, 89, 85, 43, 44, 85, 80, 42, 43, 43, 42, 106, 107, 45, 48, 53, 58, 49, 100, 41, 88, 133, 62, 66, 70, 59, 66, 62, 63, 67, 119, 63, 64, 116, 63, 119, 120, 67, 95, 61, 60, 96, 48, 49, 50, 47, 109, 50, 49, 110, 56, 113, 138, 94, 47, 52, 51, 48, 33, 47, 50, 37, 92, 93, 58, 53, 68, 123, 114, 57, 94, 138, 115, 55, 92, 94, 55, 54, 62, 59, 60, 61, 97, 140, 116, 64, 99, 108, 52, 34, 61, 64, 63, 62, 66, 67, 68, 65, 65, 69, 70, 66, 127, 101, 39, 77, 123, 68, 67, 120, 54, 65, 68, 57, 72, 74, 76, 73, 73, 76, 75, 71, 125, 75, 76, 128, 89, 130, 135, 91, 75, 125, 140, 97, 78, 124, 129, 79, 71, 78, 79, 73, 73, 79, 77, 72, 40, 72, 77, 39, 131, 80, 82, 134, 134, 82, 83, 136, 91, 135, 137, 90, 136, 83, 81, 132, 90, 137, 133, 88, 85, 89, 91, 87, 87, 91, 90, 86, 86, 90, 88, 84, 80, 85, 87, 82, 82, 87, 86, 83, 83, 86, 84, 81, 46, 105, 102, 44, 46, 44, 43, 45, 130, 89, 44, 102, 80, 131, 103, 42, 53, 56, 94, 92, 139, 93, 57, 114, 112, 58, 93, 139, 54, 57, 93, 92, 71, 95, 96, 78, 128, 76, 74, 126, 101, 38, 35, 39, 61, 95, 97, 64, 105, 107, 106, 104, 109, 110, 111, 108, 108, 99, 98, 109, 139, 114, 115, 138, 117, 118, 119, 116, 121, 122, 123, 120, 110, 112, 113, 111, 114, 123, 122, 115, 120, 119, 118, 121, 125, 128, 129, 124, 128, 126, 127, 129, 101, 127, 126, 100, 141, 117, 116, 140, 131, 134, 135, 130, 134, 136, 137, 135, 136, 132, 133, 137, 130, 102, 103, 131, 100, 133, 132, 101, 102, 105, 104, 103, 112, 139, 138, 113, 124, 141, 140, 125, 50, 109, 98, 37, 99, 37, 98, 96, 141, 124, 78, 175, 179, 165, 164, 179, 180, 231, 232, 161, 166, 223, 221, 142, 146, 148, 145, 150, 151, 146, 142, 144, 209, 147, 143, 179, 232, 225, 165, 162, 161, 221, 218, 163, 166, 161, 158, 168, 159, 220, 222, 148, 191, 242, 211, 169, 170, 227, 228, 157, 162, 144, 143, 169, 228, 231, 180, 152, 216, 214, 213, 182, 184, 151, 150, 189, 187, 237, 239, 227, 170, 206, 251, 142, 145, 149, 150, 205, 207, 185, 181, 151, 184, 236, 210, 146, 194, 191, 148, 155, 156, 215, 217, 151, 198, 194, 146, 199, 154, 153, 195, 195, 153, 152, 190, 153, 155, 217, 216, 152, 158, 159, 168, 163, 210, 243, 198, 151, 172, 169, 180, 176, 176, 177, 173, 172, 229, 226, 174, 173, 173, 177, 230, 229, 205, 206, 170, 171, 158, 157, 160, 159, 219, 220, 159, 160, 166, 204, 248, 223, 157, 158, 161, 162, 143, 147, 160, 157, 202, 163, 168, 203, 178, 167, 224, 233, 204, 165, 225, 248, 202, 164, 165, 204, 172, 171, 170, 169, 207, 174, 226, 250, 209, 144, 162, 218, 171, 172, 173, 174, 176, 175, 178, 177, 175, 176, 180, 179, 237, 187, 149, 211, 233, 230, 177, 178, 164, 167, 178, 175, 182, 183, 186, 184, 183, 181, 185, 186, 235, 238, 186, 185, 199, 201, 245, 240, 185, 207, 250, 235, 188, 189, 239, 234, 181, 183, 189, 188, 183, 182, 187, 189, 150, 149, 187, 182, 241, 244, 192, 190, 244, 246, 193, 192, 201, 200, 247, 245, 246, 242, 191, 193, 200, 198, 243, 247, 195, 197, 201, 199, 197, 196, 200, 201, 196, 194, 198, 200, 190, 192, 197, 195, 192, 193, 196, 197, 193, 191, 194, 196, 156, 154, 212, 215, 156, 155, 153, 154, 240, 212, 154, 199, 190, 152, 213, 241, 163, 202, 204, 166, 249, 224, 167, 203, 222, 249, 203, 168, 164, 202, 203, 167, 181, 188, 206, 205, 238, 236, 184, 186, 211, 149, 145, 148, 171, 174, 207, 205, 215, 214, 216, 217, 219, 218, 221, 220, 218, 219, 208, 209, 249, 248, 225, 224, 227, 226, 229, 228, 231, 230, 233, 232, 220, 221, 223, 222, 224, 225, 232, 233, 230, 231, 228, 229, 235, 234, 239, 238, 238, 239, 237, 236, 211, 210, 236, 237, 251, 250, 226, 227, 241, 240, 245, 244, 244, 245, 247, 246, 246, 247, 243, 242, 240, 241, 213, 212, 210, 211, 242, 243, 212, 213, 214, 215, 222, 223, 248, 249, 234, 235, 250, 251, 160, 147, 208, 219, 209, 208, 147, 206, 188, 234, 251]
            rel material:binding = </root/_materials/MI_Trim_Furniture>
            normal3f[] normals = [(0, 0, 1), (0, 0, 1), (0, 0, 1), (0, 0, 1), (-4.9453592e-9, 0, -1), (-4.9453592e-9, 0, -1), (-4.9453592e-9, 0, -1), (-4.9453592e-9, 0, -1), (-0.0020066323, -0.99999803, 0), (-0.0020066323, -0.99999803, 0), (-0.0020066323, -0.99999803, 0), (-0.0020066323, -0.99999803, 0), (1, -0.000104890736, 0), (1, -0.000104890736, 0), (1, -0.000104890736, 0), (1, -0.000104890736, 0), (0, 1, 0), (0, 1, 0), (0, 1, 0), (0, 1, 0), (-1, 0, 0), (-1, 0, 0), (-1, 0, 0), (-1, 0, 0), (-1.5180103e-8, 0, 1), (-1.5180103e-8, 0, 1), (-1.5180103e-8, 0, 1), (-1.5180103e-8, 0, 1), (0, 0, -1), (0, 0, -1), (0, 0, -1), (0, 0, -1), (0.0020066323, -0.99999803, 0), (0.0020066323, -0.99999803, 0), (0.0020066323, -0.99999803, 0), (0.0020066323, -0.99999803, 0), (-1, -0.000104890736, 0), (-1, -0.000104890736, 0), (-1, -0.000104890736, 0), (-1, -0.000104890736, 0), (0, 1, 0), (0, 1, 0), (0, 1, 0), (0, 1, 0), (1, 0, 0), (1, 0, 0), (1, 0, 0), (1, 0, 0), (-1, 2.361271e-7, 0), (-1, 2.361271e-7, 0), (-1, 2.361271e-7, 0), (-1, 2.361271e-7, 0), (0.0002807067, 0.9999068, -0.013651174), (0.0002807067, 0.9999068, -0.013651174), (0.0002807067, 0.9999068, -0.013651174), (0.0002807067, 0.9999068, -0.013651174), (1, 0, -0.0000011984023), (1, 0, -0.0000011984023), (1, 0, -0.0000011984023), (1, 0, -0.0000011984023), (-0.00028285934, -0.99984807, 0.017427951), (-0.00028285934, -0.99984807, 0.017427951), (-0.00028285934, -0.99984807, 0.017427951), (-0.00028285934, -0.99984807, 0.017427951), (0.0005716982, 0, -0.9999998), (0.0005716982, 0, -0.9999998), (0.0005716982, 0, -0.9999998), (0.0005716982, 0, -0.9999998), (-0.0005729454, 0.040022027, 0.9991987), (-0.0005729454, 0.040022027, 0.9991987), (-0.0005729454, 0.040022027, 0.9991987), (-0.0005729454, 0.040022027, 0.9991987), (0.99999994, 0, 0), (0.99999994, 0, 0), (0.99999994, 0, 0), (0.99999994, 0, 0), (-0.0002397645, -0.99518937, 0.09796966), (-0.0002397645, -0.99518937, 0.09796966), (-0.0002397645, -0.99518937, 0.09796966), (-0.0002397645, -0.99518937, 0.09796966), (-1, 0, 0), (-1, 0, 0), (-1, 0, 0), (-1, 0, 0), (0.00035174633, 0.99518937, 0.09796953), (0.00035174633, 0.99518937, 0.09796953), (0.00035174633, 0.99518937, 0.09796953), (0.00035174633, 0.99518937, 0.09796953), (-0.00057170045, 0, -0.9999998), (-0.00057170045, 0, -0.9999998), (-0.00057170045, 0, -0.9999998), (-0.00057170045, 0, -0.9999998), (0.0005717092, 0, 0.99999976), (0.0005717092, 0, 0.99999976), (0.0005717092, 0, 0.99999976), (0.0005717092, 0, 0.99999976), (-5.878349e-9, 0, 1), (-1.2601683e-9, 0, 1), (-1.2618893e-9, 0, 1), (-5.872421e-9, 0, 1), (1, -0.00010501138, 7.850934e-9), (1, -0.00010455044, 7.743121e-9), (1, -0.00013115734, 6.130656e-9), (1, -0.00013232559, 7.683365e-9), (1, -0.00017556816, -0.000010062368), (1, -0.00015254505, -0.000009858068), (1, -0.00019833176, -0.000008336914), (1, -0.00016945033, -0.00000581777), (0, 1, 0), (0, 1, 0), (0, 1, 0), (0, 1, 0), (-1, -1.318353e-8, 0), (-1, 1.8049226e-7, 0), (-1, 3.6915102e-7, 0), (-1, 1.4392326e-7, 0), (-0.0023200554, -0.9999973, 0), (-0.0023200554, -0.9999973, 0), (-0.0023200675, -0.99999726, 6.308792e-7), (-0.0023201236, -0.9999973, 0.0000034810303), (1, -0.00010501138, 7.850934e-9), (1, -0.00009028195, -8.453035e-9), (1, -0.00009453779, -1.0406407e-8), (1, -0.00010455044, 7.743121e-9), (1, -0.00014976546, -0.000008342822), (1, -0.00014076922, -0.000009039672), (1, -0.00015254505, -0.000009858068), (1, -0.00017556816, -0.000010062368), (2.0191925e-8, 0, 1), (9.94964e-9, 0, 1), (9.968723e-9, 0, 1), (2.016467e-8, 0, 1), (0.0010774599, 0.8354651, -0.5495425), (0.2768073, 0.83135116, -0.48190546), (0.14614917, 0.93078583, -0.33507922), (0.0012905922, 0.9412643, -0.33766857), (1, -0.000057320223, -0.0000074479935), (1, -0.000046897014, -0.0000029326818), (1, -0.000059962138, -0.000013545108), (1, -0.00006054438, -0.000013292606), (1, -0.00013721245, -3.6033843e-8), (1, -0.0001409909, -4.8466557e-8), (1, -0.00008557372, -5.749761e-7), (1, -0.00010610712, -4.0971162e-7), (9.9702575e-9, 0, 1), (0, 0, 1), (0, 0, 1), (9.950177e-9, 0, 1), (1, -0.00013721245, -3.6033843e-8), (1, -0.00013232559, 7.683365e-9), (1, -0.00013115734, 6.130656e-9), (1, -0.0001409909, -4.8466557e-8), (0.99996024, -0.0043219947, -0.007798766), (0.9999753, -0.0034120784, -0.0061321743), (0.9998469, -0.008435601, -0.015333198), (0.9998469, -0.008435601, -0.015333198), (-1, -0.0000020888574, 0), (-1, -1.318353e-8, 0), (-1, 1.4392326e-7, 0), (-1, -0.0000014326401, 0), (1, -0.00005860528, 2.0396035e-7), (1, -0.000050921473, 2.2753625e-7), (1, -0.000033481636, 4.4898127e-7), (1, -0.000036905858, 3.9449048e-7), (1, -0.00008557372, -5.749761e-7), (1, -0.000046474062, -5.4019426e-7), (1, -0.00005405635, -6.265229e-7), (1, -0.00010610712, -4.0971162e-7), (0, 0, 1), (0, 0, 1), (0, 0, 1), (0, 0, 1), (-1, -0.0000031128134, 0), (-1, 0.0000025564827, 0), (-1, 0.000004674948, 0), (-1, -8.254981e-7, 0), (-0.00009230648, -0.24443687, -0.9696652), (-0.00009230648, -0.24443687, -0.9696652), (-0.00019798678, -0.45307064, -0.89147455), (-0.00019793483, -0.4529689, -0.8915263), (0, 1, 0), (0, 1, 0), (0, 1, 0), (0, 1, 0), (-0.000008431871, -0.04926471, -0.9987858), (-0.000008431871, -0.04926471, -0.9987858), (-0.000008431871, -0.04926471, -0.9987858), (-0.000008431871, -0.04926471, -0.9987858), (-1, 1.4392326e-7, 0), (-1, 3.6915102e-7, 0), (-1, -8.416804e-8, 6.851362e-7), (-1, 1.1966418e-7, 4.6535231e-7), (-1, -3.967626e-8, -6.133605e-7), (-1, -5.5684904e-8, -6.648557e-7), (-0.9999374, 0.005609021, 0.009674971), (-0.99996126, 0.00441622, 0.007617459), (0, 1, 0), (0, 1, 0), (0, 1, 0), (0, 1, 0), (0, 1, 0), (0, 1, 0), (0, 1, 0), (0, 1, 0), (0, 1, 0), (-1, 8.9061894e-7, 0), (-1, 9.357667e-7, 0), (-1, 0.0000014459603, 0), (-1, 4.0885732e-7, 0), (-0.00029776484, -0.85440964, -0.5196), (-0.00029776484, -0.85440964, -0.5196), (-0.00031062844, -0.8915257, -0.45297003), (-0.00031062603, -0.8915186, -0.45298392), (-8.66576e-9, 0, 1), (-5.8720646e-9, 0, 1), (-5.877816e-9, 0, 1), (-8.660266e-9, 0, 1), (-1, 0, 0), (-1, 0, 0), (-1, 0, 0), (-1, 0, 0), (-0.00035104912, -0.5555151, -0.8315064), (-0.00035105733, -0.5555551, -0.83147967), (-0.00043123148, -0.7872407, -0.6166457), (-0.00043121033, -0.78718823, -0.6167126), (-0.00035105733, -0.5555551, -0.83147967), (-0.00035104912, -0.5555151, -0.8315064), (-0.00023059706, -0.3364767, -0.94169176), (-0.00023069492, -0.3366088, -0.94164455), (-1.9369775e-8, 0, 1), (-8.659584e-9, 0, 1), (-8.6651095e-9, 0, 1), (-1.9357755e-8, 0, 1), (-1, 8.9061894e-7, 0), (-1, 4.0885732e-7, 0), (-1, -3.6659142e-7, 0), (-1, -7.632859e-7, 0), (-4.6034263e-8, 0, -1), (-4.6034263e-8, 0, -1), (-4.6034263e-8, 0, -1), (-4.6034263e-8, 0, -1), (1, -0.00016945033, -0.00000581777), (1, -0.00019833176, -0.000008336914), (1, -0.00011372825, -7.997163e-7), (1, -0.00011236754, -5.815179e-7), (9.9702575e-9, 0, 1), (9.950177e-9, 0, 1), (9.968723e-9, 0, 1), (9.94964e-9, 0, 1), (-1, -0.0000014528526, 0), (-1, -7.632859e-7, 0), (-1, -3.6659142e-7, 0), (-1, -0.0000014528526, 0), (-1, -0.000001927156, 0), (-1, -0.0000011677666, 0), (-1, 0.0000014459603, 0), (-1, 9.357667e-7, 0), (0.00005840846, 0.025880134, -0.999665), (0.000058591133, 0.026099375, -0.99965936), (0.0004173342, 0.3920764, -0.91993254), (0.0004171127, 0.3918917, -0.9200113), (1, -0.00011236754, -5.815179e-7), (1, -0.00011372825, -7.997163e-7), (1, -0.00009453779, -1.0406407e-8), (1, -0.00009028195, -8.453035e-9), (1.890093e-8, 0, 1), (1.8930177e-8, 0, 1), (-1.2618893e-9, 0, 1), (-1.2601683e-9, 0, 1), (-8.66576e-9, 0, 1), (-8.660266e-9, 0, 1), (-8.6651095e-9, 0, 1), (-8.659584e-9, 0, 1), (-0.00048534686, -0.9389763, -0.3439815), (0.19382146, -0.9290304, -0.31517595), (-0.00043121033, -0.78718823, -0.6167126), (-0.00043123148, -0.7872407, -0.6166457), (1, -0.00016536527, -0.00000713446), (1, -0.00014076922, -0.000009039672), (1, -0.00014976546, -0.000008342822), (1, -0.00016536527, -0.00000713446), (-1, -0.0000031243153, 0), (-1, -0.0000046731006, 0), (-1, 0, 0), (-1, 0, 0), (-1, 0, 0), (-1, 0, 0), (-1, 3.155376e-7, 0), (-1, 3.1113612e-7, 0), (-5.878349e-9, 0, 1), (-5.872421e-9, 0, 1), (-5.877816e-9, 0, 1), (-5.8720646e-9, 0, 1), (1, -0.000033481636, 4.4898127e-7), (1, -0.000046897014, -0.0000029326818), (1, -0.00004133931, 4.267554e-7), (1, -0.000036905858, 3.9449048e-7), (0.000058591133, 0.026099375, -0.99965936), (0.00005840846, 0.025880134, -0.999665), (-0.00023069492, -0.3366088, -0.94164455), (-0.00023059706, -0.3364767, -0.94169176), (-1, -0.0000016163392, 0), (-1, 3.1113612e-7, 0), (-1, 3.155376e-7, 0), (-1, -0.0000021384108, 0), (-1, -0.0000020888574, 0), (-1, -0.0000014326401, 0), (-1, -0.0000022959946, 0), (-1, 5.5168755e-7, 0), (-1, 5.5168755e-7, 0), (-1, -0.0000022959946, 0), (-1, 0.000004674948, 0), (-1, 0.0000025564827, 0), (0.25535592, -0.88788414, -0.3826947), (-0.00046314317, -0.9284757, -0.37139297), (-0.00036767163, -0.7721515, -0.63543826), (-0.00036769616, -0.77219504, -0.63538545), (-0.0003415585, -0.98047227, 0.19665703), (-0.00034155804, -0.9804708, 0.19666441), (-0.00034821875, -0.9997416, -0.022728533), (-0.00034821875, -0.9997416, -0.022726359), (-0.00046314317, -0.9284757, -0.37139297), (0.25535592, -0.88788414, -0.3826947), (0.19382146, -0.9290304, -0.31517595), (-0.00048534686, -0.9389763, -0.3439815), (1, -0.00005718374, -1.7174605e-7), (1, -0.00006840604, 1.07121274e-7), (1, -0.000050921473, 2.2753625e-7), (1, -0.00005860528, 2.0396035e-7), (-1.7438497e-8, 0, 1), (-1.7450718e-8, 0, 1), (-5.0335283e-9, 0, 1), (-5.038547e-9, 0, 1), (-5.038547e-9, 0, 1), (-5.0335283e-9, 0, 1), (-6.956217e-9, 0, 1), (-6.952264e-9, 0, 1), (0, 0, 1), (-6.952264e-9, 0, 1), (-6.956217e-9, 0, 1), (0, 0, 1), (1, -0.00006232539, 0.00000590265), (1, -0.000062541774, 0.0000057322563), (1, -0.000065277876, -8.1396405e-7), (1, -0.00006526778, -0.0000010157084), (1, -0.00006526778, -0.0000010157084), (1, -0.000065277876, -8.1396405e-7), (1, -0.000063714346, -0.000008756728), (1, -0.00006341574, -0.000009549039), (-0.00034821875, -0.9997416, -0.022726359), (-0.00034821875, -0.9997416, -0.022728533), (-0.00033540712, -0.962946, -0.2696941), (-0.00033540852, -0.96295005, -0.26967967), (1, -0.00006341574, -0.000009549039), (1, -0.000063714346, -0.000008756728), (1, -0.00006054438, -0.000013292606), (1, -0.000059962138, -0.000013545108), (-0.00033540852, -0.96295005, -0.26967967), (-0.00033540712, -0.962946, -0.2696941), (-0.00031062603, -0.8915186, -0.45298392), (-0.00031062844, -0.8915257, -0.45297003), (-1, -5.5684904e-8, -6.648557e-7), (-1, -3.967626e-8, -6.133605e-7), (-1, -4.7862994e-7, -6.8069664e-7), (-1, -4.6917683e-7, -7.117448e-7), (-1, -4.6917683e-7, -7.117448e-7), (-1, -4.7862994e-7, -6.8069664e-7), (-1, -6.849174e-7, 7.8044764e-7), (-1, -6.8284817e-7, 6.3054307e-7), (-1, -6.8284817e-7, 6.3054307e-7), (-1, -6.849174e-7, 7.8044764e-7), (-1, 1.1966418e-7, 4.6535231e-7), (-1, -8.416804e-8, 6.851362e-7), (0, 1, 0), (0, 1, 0), (0, 1, 0), (0, 1, 0), (0, 1, 0), (0, 1, 0), (0, 1, 0), (0, 1, 0), (0, 1, 0), (0, 1, 0), (0, 1, 0), (0, 1, 0), (-0.0002736202, -0.7851915, -0.619253), (-0.0002736202, -0.7851915, -0.619253), (-0.0002736202, -0.7851915, -0.619253), (-0.0002736202, -0.7851915, -0.619253), (-0.9997585, 0.011021959, 0.019011969), (-0.99996126, 0.00441622, 0.007617459), (-0.9999374, 0.005609021, 0.009674971), (-0.9997585, 0.011021959, 0.019011969), (-0.00034155804, -0.9804708, 0.19666441), (-0.0003415585, -0.98047227, 0.19665703), (-0.00033393386, -0.9585163, 0.28503752), (-0.00033393386, -0.9585163, 0.28503752), (1, -0.000062541774, 0.0000057322563), (1, -0.00006232539, 0.00000590265), (0.9999753, -0.0034120784, -0.0061321743), (0.99996024, -0.0043219947, -0.007798766), (2.0191925e-8, 0, 1), (2.016467e-8, 0, 1), (1.8930177e-8, 0, 1), (1.890093e-8, 0, 1), (0.0006988572, 0.6108451, -0.79174984), (0.00069874007, 0.61076427, -0.7918122), (0.0004171127, 0.3918917, -0.9200113), (0.0004173342, 0.3920764, -0.91993254), (0.2768073, 0.83135116, -0.48190546), (0.0010774599, 0.8354651, -0.5495425), (0.00069874007, 0.61076427, -0.7918122), (0.0006988572, 0.6108451, -0.79174984), (-1, -0.0000016163392, 0), (-1, -0.0000021384108, 0), (-1, -0.0000011677666, 0), (-1, -0.000001927156, 0), (-1.7438497e-8, 0, 1), (-1.9369775e-8, 0, 1), (-1.9357755e-8, 0, 1), (-1.7450718e-8, 0, 1), (-0.00036769616, -0.77219504, -0.63538545), (-0.00036767163, -0.7721515, -0.63543826), (-0.00019793483, -0.4529689, -0.8915263), (-0.00019798678, -0.45307064, -0.89147455), (1, -0.000046897014, -0.0000029326818), (1, -0.000057320223, -0.0000074479935), (1, -0.000055683424, 3.0323116e-7), (1, -0.00004133931, 4.267554e-7), (-1, -0.0000031243153, 0), (-1, -0.0000031128134, 0), (-1, -8.254981e-7, 0), (-1, -0.0000046731006, 0), (0.6965422, -0.0526386, -0.7155823), (0.6965422, -0.0526386, -0.7155823), (0.6965422, -0.0526386, -0.7155823), (0.6965422, -0.0526386, -0.7155823), (0.75656503, -0.0008266742, -0.65391797), (0.75656503, -0.0008266742, -0.65391797), (0.75656503, -0.0008266742, -0.65391797), (0.75656503, -0.0008266742, -0.65391797), (0.5279092, -0.68309647, -0.5046692), (0.5279092, -0.68309647, -0.5046692), (0.5279092, -0.68309647, -0.5046692), (0.5279092, -0.68309647, -0.5046692), (0.7030668, 0.4484491, -0.55189717), (0.74924815, 0.27779996, -0.6012107), (0.7568932, 0.23691957, -0.6090827), (0.7164056, 0.4068692, -0.56676316), (0.66237044, -0.5459575, -0.51302606), (0.7298721, -0.36192384, -0.57991195), (0.71997225, -0.3983101, -0.5683213), (0.5763011, -0.6902491, -0.43753088), (0.7623228, -0.2018767, -0.6149064), (0.77701813, 0.0146415485, -0.6293079), (0.77698135, 0.01802123, -0.62926567), (0.75721693, -0.23465924, -0.60955524), (0.14614917, 0.93078583, -0.33507922), (0.2768073, 0.83135116, -0.48190546), (0.63350016, 0.5999078, -0.48865956), (0.41846076, 0.85381365, -0.3096657), (0.74924815, 0.27779996, -0.6012107), (0.77698135, 0.01802123, -0.62926567), (0.77701813, 0.0146415485, -0.6293079), (0.7568932, 0.23691957, -0.6090827), (0.75721693, -0.23465924, -0.60955524), (0.71997225, -0.3983101, -0.5683213), (0.7298721, -0.36192384, -0.57991195), (0.7623228, -0.2018767, -0.6149064), (0.25535592, -0.88788414, -0.3826947), (0.671301, -0.5401098, -0.507579), (0.6022757, -0.660927, -0.44770458), (0.38826716, -0.8772368, -0.28231955), (0.671301, -0.5401098, -0.507579), (0.76283246, -0.2680566, -0.58841515), (0.74577653, -0.33970243, -0.5730791), (0.6022757, -0.660927, -0.44770458), (0.7808215, -0.15313858, -0.60569507), (0.74577653, -0.33970243, -0.5730791), (0.76283246, -0.2680566, -0.58841515), (0.7808215, -0.15313858, -0.60569507), (0.46793818, -0.81281155, -0.3469457), (0.66237044, -0.5459575, -0.51302606), (0.5763011, -0.6902491, -0.43753088), (0.19382146, -0.9290304, -0.31517595), (0.73138964, -0.6695861, 0.12931961), (0.7347407, -0.67821485, -0.013446074), (0.734643, -0.6782264, -0.017566584), (0.7307355, -0.66841924, 0.138713), (0.7347407, -0.67821485, -0.013446074), (0.72141296, -0.67003644, -0.17496951), (0.7175844, -0.66716594, -0.19990559), (0.734643, -0.6782264, -0.017566584), (0.72141296, -0.67003644, -0.17496951), (0.6939612, -0.64769936, -0.3144891), (0.687264, -0.6417716, -0.34029013), (0.7175844, -0.66716594, -0.19990559), (0.7307355, -0.66841924, 0.138713), (0.72531295, -0.6599879, 0.19579864), (0.72531295, -0.6599879, 0.19579864), (0.73138964, -0.6695861, 0.12931961), (0.6749032, -0.6307751, -0.38292086), (0.687264, -0.6417716, -0.34029013), (0.6939612, -0.64769936, -0.3144891), (0.6749032, -0.6307751, -0.38292086), (0.63213235, -0.5999149, -0.49041897), (0.63213235, -0.5999149, -0.49041897), (0.63213235, -0.5999149, -0.49041897), (0.63213235, -0.5999149, -0.49041897), (0.2768073, 0.83135116, -0.48190546), (0.7030668, 0.4484491, -0.55189717), (0.7164056, 0.4068692, -0.56676316), (0.63350016, 0.5999078, -0.48865956), (0.38826716, -0.8772368, -0.28231955), (0.46793818, -0.81281155, -0.3469457), (0.19382146, -0.9290304, -0.31517595), (0.25535592, -0.88788414, -0.3826947), (-0.0016623093, -0.80382955, -0.59485734), (-0.0016623093, -0.80382955, -0.59485734), (-0.0016623093, -0.80382955, -0.59485734), (-0.0016623093, -0.80382955, -0.59485734), (-0.0023201236, -0.9999973, 0.0000034810303), (-0.0023200675, -0.99999726, 6.308792e-7), (-0.002320279, -0.9999973, 0.00001140425), (1, -0.00005405635, -6.265229e-7), (1, -0.000046474062, -5.4019426e-7), (1, -0.00006840604, 1.07121274e-7), (1, -0.00005718374, -1.7174605e-7), (-7.5345385e-10, 0, 1), (-7.5421464e-10, 0, 1), (-7.533671e-10, 0, 1), (-7.543959e-10, 0, 1), (-1, -0.000104259874, 7.850934e-9), (-1, -0.00013256646, 7.683365e-9), (-1, -0.00013156573, 6.130656e-9), (-1, -0.000103797094, 7.743121e-9), (-1, -0.00017504852, -0.000010062354), (-1, -0.00016943483, -0.0000058177557), (-1, -0.00019778722, -0.000008336891), (-1, -0.00015225657, -0.00000985806), (0, 1, 0), (0, 1, 0), (0, 1, 0), (0, 1, 0), (1, 0, 0), (1, 1.4017412e-7, 0), (1, 2.8050363e-7, 0), (1, 0, 0), (0.0023200542, -0.99999726, 0), (0.0023201227, -0.9999973, 0.0000034810303), (0.0023200666, -0.99999726, 6.3087924e-7), (0.0023200542, -0.99999726, 0), (-1, -0.000104259874, 7.850934e-9), (-1, -0.000103797094, 7.743121e-9), (-1, -0.000094530944, -1.0406407e-8), (-1, -0.0000901112, -8.453035e-9), (-1, -0.00014972406, -0.000008342816), (-1, -0.00017504852, -0.000010062354), (-1, -0.00015225657, -0.00000985806), (-1, -0.00014070395, -0.000009039667), (-4.1724235e-8, 0, 1), (-4.1707903e-8, 0, 1), (-3.4736352e-8, 0, 1), (-3.472656e-8, 0, 1), (-0.0010774579, 0.8354651, -0.5495425), (-0.0012905906, 0.9412642, -0.33766857), (-0.14614879, 0.9307861, -0.33507892), (-0.27680692, 0.8313516, -0.4819052), (-1, -0.000057320223, -0.000007447999), (-1, -0.00006054438, -0.00001329261), (-1, -0.000059962138, -0.000013545114), (-1, -0.000046897014, -0.0000029326843), (-1, -0.00013860309, -3.6021007e-8), (-1, -0.000106945205, -4.0969883e-7), (-1, -0.00008599863, -5.7496965e-7), (-1, -0.00014248304, -4.844926e-8), (-2.6766815e-8, 0, 1), (-2.6740432e-8, 0, 1), (-1.3667099e-8, 0, 1), (-1.3667099e-8, 0, 1), (-1, -0.00013860309, -3.6021007e-8), (-1, -0.00014248304, -4.844926e-8), (-1, -0.00013156573, 6.130656e-9), (-1, -0.00013256646, 7.683365e-9), (-0.99996024, -0.004321628, -0.0077987644), (-0.9998469, -0.008435168, -0.015333195), (-0.9998469, -0.008435168, -0.015333195), (-0.9999753, -0.0034117259, -0.006132173), (1, -0.0000012408846, 0), (1, -8.0821155e-7, 0), (1, 1.4017412e-7, 0), (1, 0, 0), (-1, -0.000058483798, 2.0396035e-7), (-1, -0.000036112393, 3.944897e-7), (-1, -0.000032969798, 4.4898022e-7), (-1, -0.000049865394, 2.2753623e-7), (-1, -0.00008599863, -5.7496965e-7), (-1, -0.000106945205, -4.0969883e-7), (-1, -0.00005405635, -6.265229e-7), (-1, -0.000046474062, -5.4019426e-7), (1.8652388e-8, 0, 1), (1.8652388e-8, 0, 1), (1.5063658e-9, 0, 1), (1.5135172e-9, 0, 1), (1, -0.0000041504177, 0), (1, -0.0000011006641, 0), (1, 0.0000035062108, 0), (1, 0.0000019173617, 0), (0.000092357244, -0.2444369, -0.96966517), (0.00019796613, -0.45296887, -0.8915263), (0.00019801807, -0.45307064, -0.89147455), (0.000092357244, -0.2444369, -0.96966517), (0, 1, 0), (0, 1, -4.4720974e-8), (0, 1, -4.4720906e-8), (0, 1, 0), (0.000008375811, -0.04926471, -0.9987858), (0.000008375811, -0.04926471, -0.9987858), (0.000008375811, -0.04926471, -0.9987858), (0.000008375811, -0.04926471, -0.9987858), (1, 1.4017412e-7, 0), (1, 1.1966414e-7, 4.653524e-7), (1, -8.4168114e-8, 6.851363e-7), (1, 2.8050363e-7, 0), (1, 0, -6.1336056e-7), (0.99996126, 0.004416072, 0.007617459), (0.9999374, 0.0056088734, 0.009674971), (1, 0, -6.6485575e-7), (0, 1, 4.472092e-8), (0, 1, -1.2078532e-8), (0, 1, -1.2078532e-8), (0, 1, 4.4720895e-8), (0, 1, -1.2078532e-8), (0, 1, -2.4157064e-8), (0, 1, -2.4157064e-8), (0, 1, -2.4157064e-8), (0, 1, -1.2078532e-8), (1, 0, 0), (1, 0, 0), (1, 1.9597782e-7, 0), (1, 4.3173975e-7, 0), (0.00029776426, -0.8544096, -0.5196), (0.00031062585, -0.8915186, -0.45298392), (0.0003106283, -0.8915257, -0.45297006), (0.00029776426, -0.8544096, -0.5196), (-1.1365652e-8, 0, 1), (-1.1372862e-8, 0, 1), (-1.1364668e-8, 0, 1), (-1.13758e-8, 0, 1), (1, 4.061129e-7, 0), (1, 3.2542033e-7, 0), (1, 0, 0), (1, 0, 0), (0.00035104877, -0.55551505, -0.83150643), (0.0004312099, -0.78718805, -0.61671287), (0.00043123102, -0.78724056, -0.6166459), (0.0003510569, -0.555555, -0.83147967), (0.0003510569, -0.555555, -0.83147967), (0.00023069554, -0.3366088, -0.94164455), (0.0002305977, -0.3364767, -0.94169176), (0.00035104877, -0.55551505, -0.83150643), (2.0728764e-8, 0, 1), (2.0721533e-8, 0, 1), (4.537038e-9, 0, 1), (4.539933e-9, 0, 1), (1, 0, 0), (1, 0, 0), (1, 0, 0), (1, 0, 0), (8.86073e-8, 0, -1), (8.86073e-8, 0, -1), (8.86073e-8, 0, -1), (8.86073e-8, 0, -1), (-1, -0.00016943483, -0.0000058177557), (-1, -0.00011312259, -5.815179e-7), (-1, -0.00011456477, -7.997163e-7), (-1, -0.00019778722, -0.000008336891), (-2.6766815e-8, 0, 1), (-3.472656e-8, 0, 1), (-3.4736352e-8, 0, 1), (-2.6740432e-8, 0, 1), (1, 0, 0), (1, 0, 0), (1, 0, 0), (1, 0, 0), (1, -5.3134363e-7, 0), (1, 4.3173975e-7, 0), (1, 1.9597782e-7, 0), (1, 1.8550102e-8, 0), (-0.000058406626, 0.025880063, -0.999665), (-0.00041711394, 0.39189163, -0.9200113), (-0.0004173355, 0.3920764, -0.91993254), (-0.000058589303, 0.026099306, -0.99965936), (-1, -0.00011312259, -5.815179e-7), (-1, -0.0000901112, -8.453035e-9), (-1, -0.000094530944, -1.0406407e-8), (-1, -0.00011456477, -7.997163e-7), (-2.6883889e-8, 0, 1), (-7.543959e-10, 0, 1), (-7.533671e-10, 0, 1), (-2.6920594e-8, 0, 1), (-1.1365652e-8, 0, 1), (4.539933e-9, 0, 1), (4.537038e-9, 0, 1), (-1.1372862e-8, 0, 1), (0.00048534482, -0.9389763, -0.34398165), (0.00043123102, -0.78724056, -0.6166459), (0.0004312099, -0.78718805, -0.61671287), (-0.19382165, -0.92903024, -0.3151762), (-1, -0.00016536527, -0.0000071344475), (-1, -0.00016536527, -0.0000071344475), (-1, -0.00014972406, -0.000008342816), (-1, -0.00014070395, -0.000009039667), (1, -0.000004165753, 0), (1, 0, 0), (1, 0, 0), (1, -0.0000062308004, 0), (1, 4.061129e-7, 0), (1, 4.0616496e-7, 0), (1, 4.004168e-7, 0), (1, 3.2542033e-7, 0), (-7.5345385e-10, 0, 1), (-1.13758e-8, 0, 1), (-1.1364668e-8, 0, 1), (-7.5421464e-10, 0, 1), (-1, -0.000032969798, 4.4898022e-7), (-1, -0.000036112393, 3.944897e-7), (-1, -0.00004133931, 4.2675458e-7), (-1, -0.000046897014, -0.0000029326843), (-0.000058589303, 0.026099306, -0.99965936), (0.0002305977, -0.3364767, -0.94169176), (0.00023069554, -0.3366088, -0.94164455), (-0.000058406626, 0.025880063, -0.999665), (1, -9.637356e-7, 0), (1, -0.0000011885033, 0), (1, 4.004168e-7, 0), (1, 4.0616496e-7, 0), (1, -0.0000012408846, 0), (1, 6.63432e-7, 0), (1, -0.0000013169775, 0), (1, -8.0821155e-7, 0), (1, 6.63432e-7, 0), (1, 0.0000019173617, 0), (1, 0.0000035062108, 0), (1, -0.0000013169775, 0), (-0.25535646, -0.8878837, -0.38269514), (0.00036769983, -0.77219504, -0.6353855), (0.0003676753, -0.7721515, -0.6354384), (0.0004631379, -0.9284757, -0.37139302), (0.0003415678, -0.98047227, 0.1966569), (0.00034821997, -0.9997416, -0.022726575), (0.00034821997, -0.9997416, -0.022728754), (0.00034156727, -0.9804708, 0.19666427), (0.0004631379, -0.9284757, -0.37139302), (0.00048534482, -0.9389763, -0.34398165), (-0.19382165, -0.92903024, -0.3151762), (-0.25535646, -0.8878837, -0.38269514), (-1, -0.000057862464, -1.7174605e-7), (-1, -0.000058483798, 2.0396035e-7), (-1, -0.000049865394, 2.2753623e-7), (-1, -0.00006964759, 1.07121274e-7), (1.6181684e-8, 0, 1), (0, 0, 1), (0, 0, 1), (1.6190981e-8, 0, 1), (0, 0, 1), (-7.818798e-9, 0, 1), (-7.8143545e-9, 0, 1), (0, 0, 1), (1.5135172e-9, 0, 1), (1.5063658e-9, 0, 1), (-7.8143545e-9, 0, 1), (-7.818798e-9, 0, 1), (-1, -0.00006220677, 0.0000059026465), (-1, -0.00006531629, -0.0000010157084), (-1, -0.00006532874, -8.1396405e-7), (-1, -0.00006243811, 0.0000057322536), (-1, -0.00006531629, -0.0000010157084), (-1, -0.00006341574, -0.000009549039), (-1, -0.000063714346, -0.000008756728), (-1, -0.00006532874, -8.1396405e-7), (0.00034821997, -0.9997416, -0.022726575), (0.00033540456, -0.96295, -0.26967978), (0.0003354031, -0.96294594, -0.26969415), (0.00034821997, -0.9997416, -0.022728754), (-1, -0.00006341574, -0.000009549039), (-1, -0.000059962138, -0.000013545114), (-1, -0.00006054438, -0.00001329261), (-1, -0.000063714346, -0.000008756728), (0.00033540456, -0.96295, -0.26967978), (0.0003106283, -0.8915257, -0.45297006), (0.00031062585, -0.8915186, -0.45298392), (0.0003354031, -0.96294594, -0.26969415), (1, 0, -6.6485575e-7), (1, -3.309006e-7, -7.1174486e-7), (1, -3.4674846e-7, -6.806967e-7), (1, 0, -6.1336056e-7), (1, -3.309006e-7, -7.1174486e-7), (1, -6.828484e-7, 6.305431e-7), (1, -6.8491755e-7, 7.8044775e-7), (1, -3.4674846e-7, -6.806967e-7), (1, -6.828484e-7, 6.305431e-7), (1, -8.4168114e-8, 6.851363e-7), (1, 1.1966414e-7, 4.653524e-7), (1, -6.8491755e-7, 7.8044775e-7), (0, 1, 4.4720895e-8), (0, 1, 4.4720892e-8), (0, 1, 4.4720853e-8), (0, 1, 4.472092e-8), (0, 1, 4.4720892e-8), (0, 1, -4.4720935e-8), (0, 1, -4.4720867e-8), (0, 1, 4.4720853e-8), (0, 1, -4.4720935e-8), (0, 1, -4.4720906e-8), (0, 1, -4.4720974e-8), (0, 1, -4.4720867e-8), (0.00027369734, -0.7851915, -0.619253), (0.00027369734, -0.7851915, -0.619253), (0.00027369734, -0.7851915, -0.619253), (0.00027369734, -0.7851915, -0.619253), (0.9997585, 0.011021813, 0.019011969), (0.9997585, 0.011021813, 0.019011969), (0.9999374, 0.0056088734, 0.009674971), (0.99996126, 0.004416072, 0.007617459), (0.00034156727, -0.9804708, 0.19666427), (0.0003339417, -0.9585163, 0.28503752), (0.0003339417, -0.9585163, 0.28503752), (0.0003415678, -0.98047227, 0.1966569), (-1, -0.00006243811, 0.0000057322536), (-0.99996024, -0.004321628, -0.0077987644), (-0.9999753, -0.0034117259, -0.006132173), (-1, -0.00006220677, 0.0000059026465), (-4.1724235e-8, 0, 1), (-2.6883889e-8, 0, 1), (-2.6920594e-8, 0, 1), (-4.1707903e-8, 0, 1), (-0.0006988602, 0.61084515, -0.7917498), (-0.0004173355, 0.3920764, -0.91993254), (-0.00041711394, 0.39189163, -0.9200113), (-0.0006987432, 0.6107643, -0.7918122), (-0.27680692, 0.8313516, -0.4819052), (-0.0006988602, 0.61084515, -0.7917498), (-0.0006987432, 0.6107643, -0.7918122), (-0.0010774579, 0.8354651, -0.5495425), (1, -9.637356e-7, 0), (1, -5.3134363e-7, 0), (1, 1.8550102e-8, 0), (1, -0.0000011885033, 0), (1.6181684e-8, 0, 1), (1.6190981e-8, 0, 1), (2.0721533e-8, 0, 1), (2.0728764e-8, 0, 1), (0.00036769983, -0.77219504, -0.6353855), (0.00019801807, -0.45307064, -0.89147455), (0.00019796613, -0.45296887, -0.8915263), (0.0003676753, -0.7721515, -0.6354384), (-1, -0.000046897014, -0.0000029326843), (-1, -0.00004133931, 4.2675458e-7), (-1, -0.000055683424, 3.0323116e-7), (-1, -0.000057320223, -0.000007447999), (1, -0.000004165753, 0), (1, -0.0000062308004, 0), (1, -0.0000011006641, 0), (1, -0.0000041504177, 0), (-0.6965422, -0.0526386, -0.7155823), (-0.6965422, -0.0526386, -0.7155823), (-0.6965422, -0.0526386, -0.7155823), (-0.6965422, -0.0526386, -0.7155823), (-0.75656503, -0.0008270282, -0.65391785), (-0.75656503, -0.0008270282, -0.65391785), (-0.75656503, -0.0008270282, -0.65391785), (-0.75656503, -0.0008270282, -0.65391785), (-0.5279092, -0.68309647, -0.5046693), (-0.5279092, -0.68309647, -0.5046693), (-0.5279092, -0.68309647, -0.5046693), (-0.5279092, -0.68309647, -0.5046693), (-0.7030667, 0.44844905, -0.5518973), (-0.7164057, 0.4068692, -0.5667631), (-0.7568933, 0.23691964, -0.6090827), (-0.7492482, 0.27780002, -0.60121065), (-0.66237044, -0.5459575, -0.5130262), (-0.5763011, -0.6902491, -0.43753088), (-0.71997213, -0.39831004, -0.56832147), (-0.72987187, -0.36192378, -0.5799122), (-0.76232255, -0.20187712, -0.61490655), (-0.7572167, -0.23465951, -0.60955536), (-0.7769813, 0.018020822, -0.62926567), (-0.7770181, 0.014641129, -0.6293079), (-0.14614879, 0.9307861, -0.33507892), (-0.41845968, 0.8538144, -0.30966485), (-0.6334999, 0.59990805, -0.48865965), (-0.27680692, 0.8313516, -0.4819052), (-0.7492482, 0.27780002, -0.60121065), (-0.7568933, 0.23691964, -0.6090827), (-0.7770181, 0.014641129, -0.6293079), (-0.7769813, 0.018020822, -0.62926567), (-0.7572167, -0.23465951, -0.60955536), (-0.76232255, -0.20187712, -0.61490655), (-0.72987187, -0.36192378, -0.5799122), (-0.71997213, -0.39831004, -0.56832147), (-0.25535646, -0.8878837, -0.38269514), (-0.3882678, -0.8772363, -0.28232008), (-0.60227644, -0.66092604, -0.44770515), (-0.6713012, -0.5401092, -0.50757927), (-0.6713012, -0.5401092, -0.50757927), (-0.60227644, -0.66092604, -0.44770515), (-0.7457764, -0.33970234, -0.57307917), (-0.7628324, -0.2680565, -0.58841515), (-0.7808214, -0.15313858, -0.60569507), (-0.7808214, -0.15313858, -0.60569507), (-0.7628324, -0.2680565, -0.58841515), (-0.7457764, -0.33970234, -0.57307917), (-0.4679383, -0.8128115, -0.34694576), (-0.19382165, -0.92903024, -0.3151762), (-0.5763011, -0.6902491, -0.43753088), (-0.66237044, -0.5459575, -0.5130262), (-0.73138916, -0.66958666, 0.12931952), (-0.730735, -0.66841984, 0.13871293), (-0.7346422, -0.6782272, -0.017566688), (-0.7347399, -0.6782157, -0.013446183), (-0.7347399, -0.6782157, -0.013446183), (-0.7346422, -0.6782272, -0.017566688), (-0.71758467, -0.66716564, -0.19990593), (-0.72141296, -0.6700365, -0.17496979), (-0.72141296, -0.6700365, -0.17496979), (-0.71758467, -0.66716564, -0.19990593), (-0.6872637, -0.64177215, -0.34028983), (-0.69396144, -0.6476991, -0.3144891), (-0.730735, -0.66841984, 0.13871293), (-0.73138916, -0.66958666, 0.12931952), (-0.72531253, -0.6599884, 0.19579859), (-0.72531253, -0.6599884, 0.19579859), (-0.67490196, -0.6307769, -0.38292006), (-0.67490196, -0.6307769, -0.38292006), (-0.69396144, -0.6476991, -0.3144891), (-0.6872637, -0.64177215, -0.34028983), (-0.6321325, -0.59991515, -0.49041855), (-0.6321325, -0.59991515, -0.49041855), (-0.6321325, -0.59991515, -0.49041855), (-0.6321325, -0.59991515, -0.49041855), (-0.27680692, 0.8313516, -0.4819052), (-0.6334999, 0.59990805, -0.48865965), (-0.7164057, 0.4068692, -0.5667631), (-0.7030667, 0.44844905, -0.5518973), (-0.3882678, -0.8772363, -0.28232008), (-0.25535646, -0.8878837, -0.38269514), (-0.19382165, -0.92903024, -0.3151762), (-0.4679383, -0.8128115, -0.34694576), (0.001662323, -0.8038298, -0.5948571), (0.001662323, -0.8038298, -0.5948571), (0.001662323, -0.8038298, -0.5948571), (0.001662323, -0.8038298, -0.5948571), (0.0023201227, -0.9999973, 0.0000034810303), (0.002320279, -0.9999973, 0.00001140425), (0.0023200666, -0.99999726, 6.3087924e-7), (-1, -0.00005405635, -6.265229e-7), (-1, -0.000057862464, -1.7174605e-7), (-1, -0.00006964759, 1.07121274e-7), (-1, -0.000046474062, -5.4019426e-7)] (
                interpolation = "faceVarying"
            )
            point3f[] points = [(0.45595726, -0.04353133, 0.06985634), (0.45595726, -0.31022656, 0.06985634), (0.53522176, -0.3103856, 0.06985634), (0.53524977, -0.04353133, 0.06985634), (0.45595726, -0.04353133, 0.02686793), (0.45595726, -0.31022656, 0.02686793), (0.53522176, -0.3103856, 0.02686793), (0.53524977, -0.04353133, 0.02686793), (-0.45595726, -0.04353133, 0.06985634), (-0.45595726, -0.31022656, 0.06985634), (-0.53522176, -0.3103856, 0.06985634), (-0.53524977, -0.04353133, 0.06985634), (-0.45595726, -0.04353133, 0.02686793), (-0.45595726, -0.31022656, 0.02686793), (-0.53522176, -0.3103856, 0.02686793), (-0.53524977, -0.04353133, 0.02686793), (-0.59250474, -0.33546537, 0.054080047), (-0.59250474, -0.33457243, 0.10696126), (-0.59250474, -0.17667308, 0.054080047), (-0.59250474, -0.17606664, 0.10061244), (0.59134907, -0.3358173, 0.054756857), (0.5913491, -0.3348665, 0.10765185), (0.59134907, -0.17702502, 0.054756857), (0.5913491, -0.17636073, 0.10130305), (0.5913491, -0.045276895, 0.054080047), (0.5913491, -0.050219193, 0.10428482), (0.5913491, -0.17558295, 0.054080047), (0.5913491, -0.17064062, 0.10428482), (-0.5925047, -0.04492508, 0.054756857), (-0.5925047, -0.049867406, 0.10496164), (-0.5925047, -0.1752311, 0.054756857), (-0.5925047, -0.17028877, 0.10496164), (0.46363774, -0.05256272, 0.038794834), (0.46363774, -0.30120057, 0.038794834), (0.527544, -0.30134884, 0.038794834), (0.5275666, -0.05256272, 0.038794834), (0.46363774, -0.05256272, -0.09363122), (0.46363774, -0.30120057, -0.024737787), (0.5275666, -0.05256272, -0.09363122), (0.52756274, -0.12126898, 0.038794834), (0.46363774, -0.12124671, 0.038794834), (0.46363774, -0.12124671, -0.09171753), (0.5275666, -0.05256272, -0.16316256), (0.46363774, -0.05256272, -0.16316256), (0.46363774, -0.12124671, -0.16124885), (0.46363774, -0.05256272, -0.20106927), (0.46252564, -0.09135062, -0.19915555), (0.46363774, -0.28768465, 0.038794834), (0.46363774, -0.26482588, 0.038794834), (0.46363774, -0.2579658, -0.05292724), (0.46363774, -0.28035438, -0.05292724), (0.5275498, -0.26492733, 0.038794834), (0.5275467, -0.2877913, 0.038794834), (0.46363774, -0.24946927, 0.038794834), (0.46363774, -0.23254427, 0.038794834), (0.5275545, -0.23261581, 0.038794834), (0.52755266, -0.24954182, 0.038794834), (0.46363774, -0.23256092, -0.015806874), (0.46363774, -0.2493853, -0.028977161), (0.52755886, -0.19364703, 0.038794834), (0.52756035, -0.18358639, 0.038794834), (0.46363774, -0.18355098, 0.038794834), (0.46363774, -0.19361076, 0.038794834), (0.46363774, -0.19358212, -0.020035122), (0.46363774, -0.183967, -0.02785657), (0.46363774, -0.21839659, 0.038794834), (0.46363774, -0.20204934, 0.038794834), (0.46363774, -0.20207797, -0.015444417), (0.46363774, -0.21837993, -0.012288496), (0.5275555, -0.21845067, 0.038794834), (0.5275578, -0.2021028, 0.038794834), (0.46363774, -0.17179686, 0.038794834), (0.46363774, -0.15696454, 0.038794834), (0.46363774, -0.1643807, 0.038794834), (0.46363774, -0.15698744, -0.082707435), (0.46363774, -0.17131223, -0.06492272), (0.46363774, -0.1654396, -0.07568295), (0.52756184, -0.15699442, 0.038794834), (0.527561, -0.17182744, 0.038794834), (0.5275614, -0.16441093, 0.038794834), (0.5275666, -0.05256272, -0.13338502), (0.5275666, -0.05256272, -0.10016139), (0.5275666, -0.05256272, -0.122310475), (0.5275666, -0.05256272, -0.11123593), (0.46363774, -0.05256272, -0.10016142), (0.46363774, -0.05256272, -0.13338503), (0.4636377, -0.05256272, -0.11123596), (0.4636377, -0.05256272, -0.122310475), (0.46363774, -0.11745494, -0.09795256), (0.46363774, -0.11233757, -0.13128942), (0.46363774, -0.11307443, -0.108494624), (0.46363774, -0.111201346, -0.12069675), (0.46363774, -0.24100676, 0.038794834), (0.46363774, -0.24097311, -0.021110475), (0.52755356, -0.24107882, 0.038794834), (0.46363774, -0.17767392, 0.038794834), (0.5275607, -0.17770691, 0.038794834), (0.46363774, -0.1776396, -0.041263476), (0.5222974, -0.30133668, -0.024737787), (0.527544, -0.30134884, -0.019169103), (0.522316, -0.121267155, -0.09171753), (0.5275629, -0.119459316, -0.08543652), (0.5223155, -0.121267155, -0.16124885), (0.52756304, -0.11552675, -0.16140878), (0.5267797, -0.089799725, -0.1939882), (0.5212033, -0.09137107, -0.19915555), (0.5275666, -0.05256272, -0.19581626), (0.52231914, -0.05256272, -0.20106927), (0.5275468, -0.28095695, -0.046831533), (0.5223002, -0.2804609, -0.05292724), (0.52230316, -0.25805756, -0.05292724), (0.5275498, -0.25851804, -0.046881303), (0.5223059, -0.24945341, -0.028974364), (0.52755255, -0.24946779, -0.02214974), (0.5223079, -0.23262611, -0.015808899), (0.5275545, -0.23263001, -0.00930089), (0.5223136, -0.18399854, -0.027856119), (0.5275603, -0.18395923, -0.021090329), (0.52755886, -0.1936223, -0.013420729), (0.52231216, -0.19361614, -0.020037528), (0.52231115, -0.20212631, -0.015442013), (0.5275578, -0.2021273, -0.008951001), (0.5275555, -0.21843657, -0.0058301245), (0.5223089, -0.21843004, -0.012286471), (0.527561, -0.1713784, -0.057541117), (0.5223143, -0.17134139, -0.06492323), (0.5223151, -0.15701465, -0.082706586), (0.52756184, -0.15701582, -0.0759166), (0.5223147, -0.16546752, -0.07568284), (0.5275614, -0.1654061, -0.068774186), (0.5223156, -0.11235801, -0.13128944), (0.5275631, -0.10667109, -0.1314888), (0.5275631, -0.11174974, -0.098147474), (0.5223159, -0.11747537, -0.09795259), (0.5275631, -0.1055417, -0.12085306), (0.52231574, -0.11122178, -0.12069675), (0.5275631, -0.10737951, -0.10875353), (0.52231586, -0.11309487, -0.108494624), (0.52755356, -0.24104938, -0.014467971), (0.5223069, -0.24103975, -0.02111009), (0.52231395, -0.17766997, -0.041263502), (0.52756065, -0.17767578, -0.03400619), (-0.46363774, -0.05256272, 0.038794834), (-0.46363774, -0.30120057, 0.038794834), (-0.527544, -0.30134884, 0.038794834), (-0.5275666, -0.05256272, 0.038794834), (-0.46363774, -0.05256272, -0.09363122), (-0.46363774, -0.30120057, -0.024737787), (-0.5275666, -0.05256272, -0.09363122), (-0.52756274, -0.12126898, 0.038794834), (-0.46363774, -0.12124671, 0.038794834), (-0.46363774, -0.12124671, -0.09171753), (-0.5275666, -0.05256272, -0.16316256), (-0.46363774, -0.05256272, -0.16316256), (-0.46363774, -0.12124671, -0.16124885), (-0.46363774, -0.05256272, -0.20106927), (-0.46252564, -0.09135062, -0.19915555), (-0.46363774, -0.28768465, 0.038794834), (-0.46363774, -0.26482588, 0.038794834), (-0.46363774, -0.2579658, -0.05292724), (-0.46363774, -0.28035438, -0.05292724), (-0.5275498, -0.26492733, 0.038794834), (-0.5275467, -0.2877913, 0.038794834), (-0.46363774, -0.24946927, 0.038794834), (-0.46363774, -0.23254427, 0.038794834), (-0.5275545, -0.23261581, 0.038794834), (-0.52755266, -0.24954182, 0.038794834), (-0.46363774, -0.23256092, -0.015806874), (-0.46363774, -0.2493853, -0.028977161), (-0.52755886, -0.19364703, 0.038794834), (-0.52756035, -0.18358639, 0.038794834), (-0.46363774, -0.18355098, 0.038794834), (-0.46363774, -0.19361076, 0.038794834), (-0.46363774, -0.19358212, -0.020035122), (-0.46363774, -0.183967, -0.02785657), (-0.46363774, -0.21839659, 0.038794834), (-0.46363774, -0.20204934, 0.038794834), (-0.46363774, -0.20207797, -0.015444417), (-0.46363774, -0.21837993, -0.012288496), (-0.5275555, -0.21845067, 0.038794834), (-0.5275578, -0.2021028, 0.038794834), (-0.46363774, -0.17179686, 0.038794834), (-0.46363774, -0.15696454, 0.038794834), (-0.46363774, -0.1643807, 0.038794834), (-0.46363774, -0.15698744, -0.082707435), (-0.46363774, -0.17131223, -0.06492272), (-0.46363774, -0.1654396, -0.07568295), (-0.52756184, -0.15699442, 0.038794834), (-0.527561, -0.17182744, 0.038794834), (-0.5275614, -0.16441093, 0.038794834), (-0.5275666, -0.05256272, -0.13338502), (-0.5275666, -0.05256272, -0.10016139), (-0.5275666, -0.05256272, -0.122310475), (-0.5275666, -0.05256272, -0.11123593), (-0.46363774, -0.05256272, -0.10016142), (-0.46363774, -0.05256272, -0.13338503), (-0.4636377, -0.05256272, -0.11123596), (-0.4636377, -0.05256272, -0.122310475), (-0.46363774, -0.11745494, -0.09795256), (-0.46363774, -0.11233757, -0.13128942), (-0.46363774, -0.11307443, -0.108494624), (-0.46363774, -0.111201346, -0.12069675), (-0.46363774, -0.24100676, 0.038794834), (-0.46363774, -0.24097311, -0.021110475), (-0.52755356, -0.24107882, 0.038794834), (-0.46363774, -0.17767392, 0.038794834), (-0.5275607, -0.17770691, 0.038794834), (-0.46363774, -0.1776396, -0.041263476), (-0.5222974, -0.30133668, -0.024737787), (-0.527544, -0.30134884, -0.019169103), (-0.522316, -0.121267155, -0.09171753), (-0.5275629, -0.119459316, -0.08543652), (-0.5223155, -0.121267155, -0.16124885), (-0.52756304, -0.11552675, -0.16140878), (-0.5267797, -0.089799725, -0.1939882), (-0.5212033, -0.09137107, -0.19915555), (-0.5275666, -0.05256272, -0.19581626), (-0.52231914, -0.05256272, -0.20106927), (-0.5275468, -0.28095695, -0.046831533), (-0.5223002, -0.2804609, -0.05292724), (-0.52230316, -0.25805756, -0.05292724), (-0.5275498, -0.25851804, -0.046881303), (-0.5223059, -0.24945341, -0.028974364), (-0.52755255, -0.24946779, -0.02214974), (-0.5223079, -0.23262611, -0.015808899), (-0.5275545, -0.23263001, -0.00930089), (-0.5223136, -0.18399854, -0.027856119), (-0.5275603, -0.18395923, -0.021090329), (-0.52755886, -0.1936223, -0.013420729), (-0.52231216, -0.19361614, -0.020037528), (-0.52231115, -0.20212631, -0.015442013), (-0.5275578, -0.2021273, -0.008951001), (-0.5275555, -0.21843657, -0.0058301245), (-0.5223089, -0.21843004, -0.012286471), (-0.527561, -0.1713784, -0.057541117), (-0.5223143, -0.17134139, -0.06492323), (-0.5223151, -0.15701465, -0.082706586), (-0.52756184, -0.15701582, -0.0759166), (-0.5223147, -0.16546752, -0.07568284), (-0.5275614, -0.1654061, -0.068774186), (-0.5223156, -0.11235801, -0.13128944), (-0.5275631, -0.10667109, -0.1314888), (-0.5275631, -0.11174974, -0.098147474), (-0.5223159, -0.11747537, -0.09795259), (-0.5275631, -0.1055417, -0.12085306), (-0.52231574, -0.11122178, -0.12069675), (-0.5275631, -0.10737951, -0.10875353), (-0.52231586, -0.11309487, -0.108494624), (-0.52755356, -0.24104938, -0.014467971), (-0.5223069, -0.24103975, -0.02111009), (-0.52231395, -0.17766997, -0.041263502), (-0.52756065, -0.17767578, -0.03400619)]
            texCoord2f[] primvars:st = [(0.95201373, 0.4441129), (0.027888557, 0.25584167), (0.51759654, 0.4441129), (0.51759654, 0.4441129), (0.027888574, 0.25584167), (0.95201373, 0.4441129), (0.51759654, 0.39681327), (0.027888574, 0.16077565), (0.95201373, 0.4441129), (0.95201373, 0.39681327), (0.51759654, 0.4441129), (0.027888557, 0.1607422), (0.95201373, 0.4441129), (0.0027683899, 0.25584167), (0.51759654, 0.39681327), (0.51759654, 0.4441129), (0.0027684104, 0.25584167), (0.95201373, 0.39681327), (0.51759654, 0.39681327), (0.0027684104, 0.16077565), (0.95201373, 0.39681327), (0.95201373, 0.39681327), (0.51759654, 0.39681327), (0.0027683899, 0.1607422), (0.95201373, 0.4441129), (0.027888557, 0.25584167), (0.51759654, 0.4441129), (0.51759654, 0.4441129), (0.027888574, 0.25584167), (0.95201373, 0.4441129), (0.51759654, 0.39681327), (0.027888574, 0.16077565), (0.95201373, 0.4441129), (0.95201373, 0.39681327), (0.51759654, 0.4441129), (0.027888557, 0.1607422), (0.95201373, 0.4441129), (0.0027683899, 0.25584167), (0.51759654, 0.39681327), (0.51759654, 0.4441129), (0.0027684104, 0.25584167), (0.95201373, 0.39681327), (0.51759654, 0.39681327), (0.0027684104, 0.16077565), (0.95201373, 0.39681327), (0.95201373, 0.39681327), (0.51759654, 0.39681327), (0.0027683899, 0.1607422), (0.003539022, 0.25533602), (0.51442945, 0.39311373), (0.994172, 0.8261814), (0.025959987, 0.2551213), (0.51442945, 0.44491214), (0.9941722, 0.9183229), (0.003539022, 0.16445477), (0.0055535436, 0.83083653), (0.994172, 0.9183229), (0.025959987, 0.16424), (0.0055535436, 0.9126417), (0.9941722, 0.8261814), (0.003539022, 0.25533602), (0.9525323, 0.39311367), (0, 0.8261814), (0.026240353, 0.25533602), (0.95253235, 0.44491208), (0, 0.9183229), (0.9947894, 0.8318527), (0.003539022, 0.16445477), (0, 0.9183229), (0.9947894, 0.91365784), (0.026240353, 0.16445477), (0, 0.8261814), (0.026240349, 0.16424), (0.51442945, 0.39311373), (0.994172, 0.8261814), (0.0038193837, 0.16445473), (0.51442945, 0.44491214), (0.9941722, 0.9183229), (0.026240356, 0.25512123), (0.9947894, 0.83083653), (0.994172, 0.9183229), (0.0038193911, 0.25533602), (0.9947894, 0.9126417), (0.9941722, 0.8261814), (0.026240349, 0.16424), (0.9525323, 0.39311367), (0, 0.8261814), (0.0035390183, 0.16424), (0.95253235, 0.44491208), (0, 0.9183229), (0.005553782, 0.8318527), (0.026240356, 0.25512123), (0, 0.9183229), (0.005553782, 0.91365784), (0.0035390258, 0.25512123), (0, 0.8261814), (0.53539425, 0.27339184), (0.9969487, 0.5711663), (0.95201373, 0.4441129), (0.35645443, 0.26566756), (0.51759654, 0.4441129), (0.9969487, 0.9213307), (0.3564188, 0.38472268), (0.51759654, 0.39681327), (0.9969487, 0.92153955), (0.53539425, 0.37661225), (0.95201373, 0.39681327), (0.9969487, 0.5711663), (0.3867091, 0.27339184), (0.8477813, 0.5711663), (0.9253843, 0.9213307), (0.47481325, 0.26570308), (0.3867091, 0.37661225), (0.8477813, 0.5711663), (0.87691367, 0.39681327), (0.9969487, 0.6679274), (0.9969487, 0.66789615), (0.87691367, 0.4441129), (0.84993696, 0.66789615), (0.14493036, 0.3734764), (0.26456422, 0.37661225), (0.7694598, 0.5711663), (0.26456422, 0.27339184), (0.7694598, 0.5711663), (0.012002617, 0.27339184), (0.7716155, 0.66789615), (0.012781575, 0.3734764), (0.19067964, 0.27339184), (0.726761, 0.5711663), (0.085887134, 0.27339184), (0.72891665, 0.62579244), (0.5700414, 0.44411293), (0.9969487, 0.90229577), (0.9969487, 0.87010306), (0.6293393, 0.4441129), (0.89363104, 0.86044174), (0.49530786, 0.37341917), (0.53585476, 0.3733948), (0.89363104, 0.8919724), (0.5401287, 0.2656325), (0.9969487, 0.87024593), (0.6293298, 0.39681324), (0.5700986, 0.39681327), (0.9969487, 0.90244603), (0.9969487, 0.8484759), (0.68382335, 0.4441129), (0.7195364, 0.4441129), (0.9969487, 0.8246399), (0.9969487, 0.8247407), (0.719522, 0.39681327), (0.9969487, 0.8485781), (0.68382883, 0.39681327), (0.41202882, 0.37342137), (0.9354443, 0.82466334), (0.92060894, 0.8483576), (0.44488636, 0.3734156), (0.9969487, 0.76985973), (0.8034638, 0.39681327), (0.9969487, 0.75569093), (0.8314489, 0.39681327), (0.8314512, 0.44411293), (0.9969487, 0.75564116), (0.80344987, 0.4441129), (0.9969487, 0.7698086), (0.34709644, 0.37344056), (0.93068147, 0.7697683), (0.31141573, 0.37344468), (0.9218713, 0.756227), (0.7395187, 0.44411287), (0.9969487, 0.8047152), (0.9969487, 0.7816929), (0.78274024, 0.4441129), (0.9358525, 0.7817333), (0.36254334, 0.37343645), (0.38816908, 0.37342793), (0.9394074, 0.8046918), (0.9969487, 0.80479145), (0.7395333, 0.39681327), (0.9969487, 0.7817682), (0.7827264, 0.39681327), (0.9969487, 0.73908746), (0.84361047, 0.44411293), (0.9969487, 0.71819866), (0.8594296, 0.4441129), (0.9969487, 0.728643), (0.85089624, 0.44411293), (0.86008614, 0.7182309), (0.21168384, 0.37345666), (0.8801192, 0.7384049), (0.2537883, 0.3734501), (0.8679986, 0.73013437), (0.23158753, 0.3734523), (0.9969487, 0.71824074), (0.85942763, 0.39681327), (0.84361315, 0.39681327), (0.9969487, 0.7391305), (0.9969487, 0.72868556), (0.85089636, 0.3968138), (0.31687984, 0.37661225), (0.8030019, 0.5711663), (0.8404256, 0.5711663), (0.37485653, 0.37661225), (0.8154765, 0.5711663), (0.33550423, 0.37661225), (0.827951, 0.5711663), (0.35557857, 0.37661225), (0.84042555, 0.5711663), (0.37485653, 0.27339184), (0.8030019, 0.5711663), (0.31687984, 0.27339184), (0.82795095, 0.5711663), (0.35557857, 0.27339184), (0.8154765, 0.5711663), (0.33550423, 0.27339184), (0.13171427, 0.37347847), (0.8429137, 0.662556), (0.80536234, 0.65534914), (0.06938787, 0.37348133), (0.11103937, 0.37348092), (0.8310389, 0.6563868), (0.08868182, 0.37348193), (0.8172941, 0.6537489), (0.7016799, 0.4441129), (0.9969487, 0.8365579), (0.42845756, 0.37341845), (0.9294701, 0.8365106), (0.9969487, 0.8366594), (0.7016754, 0.3968133), (0.83753085, 0.4441129), (0.9969487, 0.7473643), (0.8375311, 0.39681327), (0.9969487, 0.7474108), (0.282602, 0.37344742), (0.9067694, 0.74731594), (0.9960575, 0.9220956), (0.4747804, 0.37498373), (0.93165696, 0.92153955), (0.9960575, 0.8997683), (0.46440327, 0.38475502), (0.14493044, 0.28053245), (0.4481207, 0.9220958), (0.85701203, 0.66537875), (0.4481207, 0.89976835), (0.012002617, 0.3681395), (0.012781575, 0.28053325), (0.2713703, 0.9220958), (0.7714354, 0.65984046), (0.2713703, 0.89976835), (0.73473716, 0.62360823), (0.17045748, 0.8997684), (0.085887134, 0.3681393), (0.17045748, 0.92209584), (0.73267806, 0.5711663), (0.20091835, 0.37661225), (0.03028977, 0.8997684), (0.19067964, 0.3681396), (0.03028977, 0.92209584), (0.90049744, 0.892821), (0.93242395, 0.8997683), (0.5359747, 0.28047583), (0.93242395, 0.9220956), (0.5401287, 0.3749184), (0.49540126, 0.28049543), (0.8777972, 0.9220956), (0.90044147, 0.8612195), (0.87779725, 0.8997683), (0.44494373, 0.28048763), (0.8255808, 0.92209566), (0.92829955, 0.8484738), (0.8255808, 0.89976835), (0.41208816, 0.2804903), (0.7781622, 0.92209566), (0.9427727, 0.8247607), (0.7781622, 0.89976835), (0.31142762, 0.28050452), (0.65350854, 0.9220958), (0.92949283, 0.75621605), (0.6604438, 0.89976835), (0.65350854, 0.89976835), (0.93813205, 0.7698249), (0.6811942, 0.89976835), (0.34710598, 0.28050262), (0.6811942, 0.9220958), (0.362576, 0.28050014), (0.703359, 0.9220958), (0.94316685, 0.7818027), (0.703359, 0.89976835), (0.9466823, 0.8047716), (0.7432631, 0.89976835), (0.38820422, 0.2804952), (0.7432631, 0.9220958), (0.5853798, 0.89976835), (0.88843393, 0.73849815), (0.2538008, 0.28050882), (0.5853798, 0.9220958), (0.21169615, 0.28051415), (0.5370645, 0.9220958), (0.86773545, 0.71827084), (0.53706443, 0.89976835), (0.23159994, 0.28051037), (0.5601968, 0.9220958), (0.87578076, 0.7300871), (0.5601968, 0.89976835), (0.06938787, 0.28053796), (0.345495, 0.9220958), (0.80513775, 0.6473689), (0.345495, 0.89976835), (0.84269416, 0.6545212), (0.4275564, 0.89976835), (0.13171421, 0.28053463), (0.4275564, 0.9220958), (0.8171181, 0.64577824), (0.37168378, 0.89976835), (0.08868182, 0.28053838), (0.37168378, 0.9220958), (0.83074725, 0.6483665), (0.40025496, 0.89976835), (0.11103937, 0.2805372), (0.40025496, 0.9220958), (0.9369524, 0.8366179), (0.80074394, 0.89976835), (0.4285159, 0.28048894), (0.8007439, 0.92209566), (0.2826142, 0.28050667), (0.6265367, 0.9220958), (0.6265367, 0.89976835), (0.91494423, 0.7473669), (0.53539425, 0.27339184), (0.9969487, 0.5711663), (0.95201373, 0.4441129), (0.35645443, 0.26566756), (0.51759654, 0.4441129), (0.9969487, 0.9213307), (0.3564188, 0.38472268), (0.51759654, 0.39681327), (0.9969487, 0.92153955), (0.53539425, 0.37661225), (0.95201373, 0.39681327), (0.9969487, 0.5711663), (0.3867091, 0.27339184), (0.8477813, 0.5711663), (0.9253843, 0.9213307), (0.47481325, 0.26570308), (0.3867091, 0.37661225), (0.8477813, 0.5711663), (0.87691367, 0.39681327), (0.9969487, 0.6679274), (0.9969487, 0.66789615), (0.87691367, 0.4441129), (0.84993696, 0.66789615), (0.14493036, 0.3734764), (0.26456422, 0.37661225), (0.7694598, 0.5711663), (0.26456422, 0.27339184), (0.7694598, 0.5711663), (0.012002617, 0.27339184), (0.7716155, 0.66789615), (0.012781575, 0.3734764), (0.19067964, 0.27339184), (0.726761, 0.5711663), (0.085887134, 0.27339184), (0.72891665, 0.62579244), (0.5700414, 0.44411293), (0.9969487, 0.90229577), (0.9969487, 0.87010306), (0.6293393, 0.4441129), (0.89363104, 0.86044174), (0.49530786, 0.37341917), (0.53585476, 0.3733948), (0.89363104, 0.8919724), (0.5401287, 0.2656325), (0.9969487, 0.87024593), (0.6293298, 0.39681324), (0.5700986, 0.39681327), (0.9969487, 0.90244603), (0.9969487, 0.8484759), (0.68382335, 0.4441129), (0.7195364, 0.4441129), (0.9969487, 0.8246399), (0.9969487, 0.8247407), (0.719522, 0.39681327), (0.9969487, 0.8485781), (0.68382883, 0.39681327), (0.41202882, 0.37342137), (0.9354443, 0.82466334), (0.92060894, 0.8483576), (0.44488636, 0.3734156), (0.9969487, 0.76985973), (0.8034638, 0.39681327), (0.9969487, 0.75569093), (0.8314489, 0.39681327), (0.8314512, 0.44411293), (0.9969487, 0.75564116), (0.80344987, 0.4441129), (0.9969487, 0.7698086), (0.34709644, 0.37344056), (0.93068147, 0.7697683), (0.31141573, 0.37344468), (0.9218713, 0.756227), (0.7395187, 0.44411287), (0.9969487, 0.8047152), (0.9969487, 0.7816929), (0.78274024, 0.4441129), (0.9358525, 0.7817333), (0.36254334, 0.37343645), (0.38816908, 0.37342793), (0.9394074, 0.8046918), (0.9969487, 0.80479145), (0.7395333, 0.39681327), (0.9969487, 0.7817682), (0.7827264, 0.39681327), (0.9969487, 0.73908746), (0.84361047, 0.44411293), (0.9969487, 0.71819866), (0.8594296, 0.4441129), (0.9969487, 0.728643), (0.85089624, 0.44411293), (0.86008614, 0.7182309), (0.21168384, 0.37345666), (0.8801192, 0.7384049), (0.2537883, 0.3734501), (0.8679986, 0.73013437), (0.23158753, 0.3734523), (0.9969487, 0.71824074), (0.85942763, 0.39681327), (0.84361315, 0.39681327), (0.9969487, 0.7391305), (0.9969487, 0.72868556), (0.85089636, 0.3968138), (0.31687984, 0.37661225), (0.8030019, 0.5711663), (0.8404256, 0.5711663), (0.37485653, 0.37661225), (0.8154765, 0.5711663), (0.33550423, 0.37661225), (0.827951, 0.5711663), (0.35557857, 0.37661225), (0.84042555, 0.5711663), (0.37485653, 0.27339184), (0.8030019, 0.5711663), (0.31687984, 0.27339184), (0.82795095, 0.5711663), (0.35557857, 0.27339184), (0.8154765, 0.5711663), (0.33550423, 0.27339184), (0.13171427, 0.37347847), (0.8429137, 0.662556), (0.80536234, 0.65534914), (0.06938787, 0.37348133), (0.11103937, 0.37348092), (0.8310389, 0.6563868), (0.08868182, 0.37348193), (0.8172941, 0.6537489), (0.7016799, 0.4441129), (0.9969487, 0.8365579), (0.42845756, 0.37341845), (0.9294701, 0.8365106), (0.9969487, 0.8366594), (0.7016754, 0.3968133), (0.83753085, 0.4441129), (0.9969487, 0.7473643), (0.8375311, 0.39681327), (0.9969487, 0.7474108), (0.282602, 0.37344742), (0.9067694, 0.74731594), (0.9960575, 0.9220956), (0.4747804, 0.37498373), (0.93165696, 0.92153955), (0.9960575, 0.8997683), (0.46440327, 0.38475502), (0.14493044, 0.28053245), (0.4481207, 0.9220958), (0.85701203, 0.66537875), (0.4481207, 0.89976835), (0.012002617, 0.3681395), (0.012781575, 0.28053325), (0.2713703, 0.9220958), (0.7714354, 0.65984046), (0.2713703, 0.89976835), (0.73473716, 0.62360823), (0.17045748, 0.8997684), (0.085887134, 0.3681393), (0.17045748, 0.92209584), (0.73267806, 0.5711663), (0.20091835, 0.37661225), (0.03028977, 0.8997684), (0.19067964, 0.3681396), (0.03028977, 0.92209584), (0.90049744, 0.892821), (0.93242395, 0.8997683), (0.5359747, 0.28047583), (0.93242395, 0.9220956), (0.5401287, 0.3749184), (0.49540126, 0.28049543), (0.8777972, 0.9220956), (0.90044147, 0.8612195), (0.87779725, 0.8997683), (0.44494373, 0.28048763), (0.8255808, 0.92209566), (0.92829955, 0.8484738), (0.8255808, 0.89976835), (0.41208816, 0.2804903), (0.7781622, 0.92209566), (0.9427727, 0.8247607), (0.7781622, 0.89976835), (0.31142762, 0.28050452), (0.65350854, 0.9220958), (0.92949283, 0.75621605), (0.6604438, 0.89976835), (0.65350854, 0.89976835), (0.93813205, 0.7698249), (0.6811942, 0.89976835), (0.34710598, 0.28050262), (0.6811942, 0.9220958), (0.362576, 0.28050014), (0.703359, 0.9220958), (0.94316685, 0.7818027), (0.703359, 0.89976835), (0.9466823, 0.8047716), (0.7432631, 0.89976835), (0.38820422, 0.2804952), (0.7432631, 0.9220958), (0.5853798, 0.89976835), (0.88843393, 0.73849815), (0.2538008, 0.28050882), (0.5853798, 0.9220958), (0.21169615, 0.28051415), (0.5370645, 0.9220958), (0.86773545, 0.71827084), (0.53706443, 0.89976835), (0.23159994, 0.28051037), (0.5601968, 0.9220958), (0.87578076, 0.7300871), (0.5601968, 0.89976835), (0.06938787, 0.28053796), (0.345495, 0.9220958), (0.80513775, 0.6473689), (0.345495, 0.89976835), (0.84269416, 0.6545212), (0.4275564, 0.89976835), (0.13171421, 0.28053463), (0.4275564, 0.9220958), (0.8171181, 0.64577824), (0.37168378, 0.89976835), (0.08868182, 0.28053838), (0.37168378, 0.9220958), (0.83074725, 0.6483665), (0.40025496, 0.89976835), (0.11103937, 0.2805372), (0.40025496, 0.9220958), (0.9369524, 0.8366179), (0.80074394, 0.89976835), (0.4285159, 0.28048894), (0.8007439, 0.92209566), (0.2826142, 0.28050667), (0.6265367, 0.9220958), (0.6265367, 0.89976835), (0.91494423, 0.7473669)] (
                interpolation = "faceVarying"
            )
            int[] primvars:st:indices = [0, 3, 6, 9, 12, 21, 18, 15, 7, 4, 16, 19, 10, 8, 20, 22, 1, 11, 23, 13, 5, 2, 14, 17, 24, 33, 30, 27, 36, 39, 42, 45, 31, 43, 40, 28, 34, 46, 44, 32, 25, 37, 47, 35, 29, 41, 38, 26, 48, 51, 57, 54, 55, 58, 69, 66, 67, 70, 63, 60, 61, 64, 52, 49, 56, 68, 62, 50, 71, 59, 53, 65, 72, 75, 81, 78, 79, 82, 93, 90, 91, 94, 87, 84, 85, 88, 76, 73, 80, 92, 86, 74, 95, 83, 77, 89, 168, 146, 149, 177, 176, 287, 285, 178, 140, 264, 268, 150, 96, 105, 112, 108, 116, 97, 109, 118, 102, 99, 111, 238, 176, 148, 272, 287, 143, 257, 264, 140, 145, 134, 141, 151, 155, 266, 262, 136, 113, 241, 307, 200, 156, 279, 276, 158, 131, 100, 103, 142, 156, 178, 285, 279, 121, 246, 248, 252, 182, 116, 118, 186, 196, 301, 297, 192, 276, 326, 231, 158, 98, 117, 114, 106, 229, 180, 188, 233, 119, 239, 295, 187, 108, 112, 201, 207, 127, 255, 250, 129, 118, 109, 206, 215, 216, 208, 123, 125, 209, 198, 120, 122, 122, 120, 253, 255, 127, 133, 144, 154, 135, 239, 119, 214, 309, 162, 171, 179, 157, 170, 163, 165, 172, 281, 164, 166, 274, 164, 281, 283, 173, 228, 160, 159, 230, 133, 135, 138, 132, 259, 137, 136, 262, 150, 268, 319, 226, 131, 142, 141, 134, 101, 132, 138, 110, 223, 225, 154, 144, 174, 289, 270, 152, 226, 319, 272, 148, 222, 227, 149, 146, 162, 157, 159, 160, 232, 323, 274, 166, 236, 257, 143, 104, 161, 167, 165, 163, 170, 172, 175, 169, 168, 177, 179, 171, 297, 241, 115, 192, 289, 174, 173, 283, 147, 169, 175, 153, 182, 186, 190, 184, 184, 190, 188, 180, 293, 189, 191, 299, 217, 303, 313, 220, 189, 293, 323, 232, 195, 292, 301, 196, 181, 194, 197, 185, 185, 197, 193, 183, 117, 183, 193, 114, 305, 199, 202, 311, 311, 202, 204, 315, 220, 313, 317, 218, 315, 204, 200, 307, 218, 317, 309, 214, 208, 216, 221, 212, 212, 221, 219, 210, 210, 219, 215, 206, 198, 209, 213, 203, 203, 213, 211, 205, 205, 211, 207, 201, 129, 250, 243, 124, 130, 125, 123, 128, 303, 217, 126, 244, 199, 305, 246, 121, 145, 151, 227, 222, 321, 224, 152, 270, 266, 155, 224, 321, 147, 153, 225, 223, 181, 228, 230, 194, 299, 191, 187, 295, 241, 113, 107, 115, 161, 229, 233, 167, 251, 256, 254, 249, 260, 263, 265, 258, 258, 237, 234, 260, 322, 271, 273, 320, 277, 280, 282, 275, 286, 288, 290, 284, 263, 267, 269, 265, 271, 290, 288, 273, 284, 282, 280, 286, 294, 300, 302, 291, 300, 296, 298, 302, 242, 298, 296, 240, 325, 278, 275, 324, 306, 312, 314, 304, 312, 316, 318, 314, 316, 308, 310, 318, 304, 245, 247, 306, 240, 310, 308, 242, 245, 251, 249, 247, 267, 322, 320, 269, 291, 325, 324, 294, 139, 261, 235, 111, 238, 111, 235, 231, 326, 292, 195, 399, 408, 380, 377, 407, 409, 516, 518, 371, 381, 499, 495, 327, 339, 343, 336, 347, 349, 340, 328, 333, 469, 342, 330, 407, 518, 503, 379, 374, 371, 495, 488, 376, 382, 372, 365, 386, 367, 493, 497, 344, 431, 538, 472, 387, 389, 507, 510, 362, 373, 334, 331, 387, 510, 516, 409, 352, 483, 479, 477, 413, 417, 349, 347, 427, 423, 528, 532, 507, 389, 462, 557, 329, 337, 345, 348, 460, 464, 419, 411, 350, 418, 526, 470, 339, 438, 432, 343, 358, 360, 481, 486, 349, 446, 437, 340, 447, 356, 354, 439, 440, 353, 351, 429, 353, 358, 486, 484, 351, 364, 366, 385, 375, 470, 540, 445, 350, 393, 388, 410, 402, 401, 403, 396, 394, 512, 505, 397, 395, 395, 404, 514, 512, 459, 461, 390, 391, 364, 363, 369, 366, 490, 493, 367, 368, 381, 457, 550, 499, 362, 365, 372, 373, 332, 341, 369, 363, 454, 375, 385, 456, 405, 383, 501, 520, 457, 379, 503, 550, 453, 377, 380, 458, 393, 391, 390, 388, 463, 397, 505, 554, 467, 335, 374, 488, 392, 394, 396, 398, 401, 400, 406, 403, 399, 402, 410, 408, 528, 423, 346, 472, 520, 514, 404, 405, 378, 384, 406, 400, 413, 415, 421, 417, 415, 411, 419, 421, 524, 530, 422, 420, 448, 451, 544, 534, 420, 463, 554, 524, 426, 427, 532, 523, 412, 416, 428, 425, 416, 414, 424, 428, 348, 345, 424, 414, 536, 542, 433, 430, 542, 546, 435, 433, 451, 449, 548, 544, 546, 538, 431, 435, 449, 445, 540, 548, 439, 443, 452, 447, 443, 441, 450, 452, 441, 437, 446, 450, 429, 434, 444, 440, 434, 436, 442, 444, 436, 432, 438, 442, 360, 355, 474, 481, 361, 359, 354, 356, 534, 475, 357, 448, 430, 352, 477, 536, 376, 453, 458, 382, 552, 501, 383, 455, 497, 552, 455, 386, 378, 454, 456, 384, 412, 425, 461, 459, 530, 526, 418, 422, 472, 346, 338, 344, 392, 398, 464, 460, 482, 480, 485, 487, 491, 489, 496, 494, 489, 491, 465, 468, 553, 551, 504, 502, 508, 506, 513, 511, 517, 515, 521, 519, 494, 496, 500, 498, 502, 504, 519, 521, 515, 517, 511, 513, 525, 522, 533, 531, 531, 533, 529, 527, 473, 471, 527, 529, 556, 555, 506, 509, 537, 535, 545, 543, 543, 545, 549, 547, 547, 549, 541, 539, 535, 537, 478, 476, 471, 473, 539, 541, 476, 478, 480, 482, 498, 500, 551, 553, 522, 525, 555, 556, 370, 342, 466, 492, 469, 466, 342, 462, 426, 523, 557]
            uniform token subdivisionScheme = "none"
            custom string userProperties:blender:data_name = "Cube.103"
        }
    }

    def Scope "_materials"
    {
        def Material "MI_Trim_Furniture"
        {
            token outputs:surface.connect = </root/_materials/MI_Trim_Furniture/Principled_BSDF.outputs:surface>
            custom string userProperties:blender:data_name = "MI_Trim_Furniture"

            def Shader "Principled_BSDF"
            {
                uniform token info:id = "UsdPreviewSurface"
                float inputs:clearcoat = 0
                float inputs:clearcoatRoughness = 0.03
                color3f inputs:diffuseColor.connect = </root/_materials/MI_Trim_Furniture/Image_Texture.outputs:rgb>
                float inputs:ior = 1.5
                float inputs:metallic = 0
                normal3f inputs:normal.connect = </root/_materials/MI_Trim_Furniture/Image_Texture_001.outputs:rgb>
                float inputs:opacity = 1
                float inputs:roughness = 0.8727273
                float inputs:specular = 0.5
                token outputs:surface
            }

            def Shader "Image_Texture"
            {
                uniform token info:id = "UsdUVTexture"
                token inputs:sourceColorSpace = "sRGB"
                float2 inputs:st.connect = </root/_materials/MI_Trim_Furniture/uvmap.outputs:result>
                token inputs:wrapS = "repeat"
                token inputs:wrapT = "repeat"
                float3 outputs:rgb
            }

            def Shader "uvmap"
            {
                uniform token info:id = "UsdPrimvarReader_float2"
                string inputs:varname = "st"
                float2 outputs:result
            }

            def Shader "Image_Texture_001"
            {
                uniform token info:id = "UsdUVTexture"
                float4 inputs:bias = (-1, -1, -1, -1)
                float4 inputs:scale = (2, 2, 2, 2)
                token inputs:sourceColorSpace = "raw"
                float2 inputs:st.connect = </root/_materials/MI_Trim_Furniture/uvmap.outputs:result>
                token inputs:wrapS = "repeat"
                token inputs:wrapT = "repeat"
                float3 outputs:rgb
            }
        }
    }
}

