#usda 1.0
(
    defaultPrim = "root"
    doc = "Blender v5.1.2"
    metersPerUnit = 1
    upAxis = "Y"
)

def Xform "root" (
    customData = {
        dictionary Blender = {
            bool generated = 1
        }
    }
)
{
    float3 xformOp:rotateXYZ = (-90, -0, 0)
    uniform token[] xformOpOrder = ["xformOp:rotateXYZ"]

    def Xform "Sword"
    {
        custom string userProperties:blender:object_name = "Sword"

        def Mesh "Cylinder" (
            active = true
            prepend apiSchemas = ["MaterialBindingAPI"]
        )
        {
            uniform bool doubleSided = 1
            float3[] extent = [(-0.5711975, -0.13057208, -0.818768), (0.5711975, 0.13057208, 4.6340075)]
            int[] faceVertexCounts = [4, 4, 4, 4, 4, 4, 4, 4, 4, 4, 4, 4, 4, 4, 4, 4, 4, 4, 4, 4, 4, 4, 4, 4, 4, 4, 4, 4, 4, 4, 4, 4, 4, 4, 4, 4, 4, 4, 4, 4, 4, 4, 4, 4, 4, 4, 4, 4, 4, 4, 4, 4, 4, 4, 4, 4, 4, 4, 4, 4, 4, 4, 4, 3, 4, 4, 4, 4, 4, 4, 4, 4, 3, 4, 4, 4, 4, 4, 4, 4, 4, 4, 4, 4, 4, 4, 4, 4, 4, 4, 4, 4, 4, 3, 4, 4, 4, 4, 4, 4, 4, 4, 4, 4, 4, 4, 4, 4, 4, 4, 4, 4, 4, 4, 4, 4, 4, 4, 4, 4, 4, 4, 4, 4, 4, 4, 4, 4, 4, 4, 4, 4, 4, 4, 4, 4, 4, 4, 4, 4, 4, 4, 4, 4, 4, 4, 4, 4, 4, 4, 3, 3, 4, 4, 4, 4, 4, 4, 4, 4, 4, 4, 4, 4, 4, 4, 4, 4, 4, 4, 4, 4, 4, 4, 4, 4, 4, 4, 4, 4, 4, 4, 4, 4, 4, 4, 4, 4, 4, 4, 4, 4, 4, 4, 4, 4, 4, 4, 4, 4, 4, 4, 4, 4, 4, 4, 4, 4, 4, 4, 4, 4, 4, 4, 4, 4, 4, 4, 4, 4, 4, 4, 4, 4, 4, 4, 4, 4, 4, 4, 4, 4, 4, 4, 4, 4, 4, 4, 4, 4, 4, 4, 4, 4, 4, 4, 4, 4, 4, 4, 4, 4, 4, 3, 4, 4, 4, 4, 4, 4, 4, 4, 3, 4, 4, 4, 4, 4, 4, 4, 4, 4, 4, 4, 4, 4, 4, 4, 4, 4, 4, 4, 4, 3, 4, 4, 4, 4, 4, 4, 4, 4, 4, 4, 4, 4, 4, 4, 4, 4, 4, 4, 4, 4, 4, 4, 4, 4, 4, 4, 4, 4, 4, 4, 4, 4, 4, 4, 4, 4, 4, 4, 4, 4, 4, 4, 4, 4, 4, 4, 4, 4, 4, 4, 4, 4, 4, 4, 4, 4, 3, 3, 4, 4, 4, 4, 4, 4, 4, 4, 4, 4, 4, 4, 4, 4, 4, 4, 4, 4, 4, 4, 4, 4, 4, 4, 4, 4, 4, 4, 4, 4, 4, 4, 4, 4, 4, 4, 4, 4, 4, 4, 4, 4, 4, 4, 4, 4, 4, 4, 4, 4, 4, 4, 4, 4, 4, 4, 4, 4, 4, 4, 4, 4, 4, 4, 4, 4, 4, 4, 4, 4, 4, 4, 4, 4, 4, 4, 4, 4, 4, 4, 4, 4, 4, 4, 4, 4, 4, 4, 4, 4, 4, 4, 4, 4, 3, 3, 3, 3, 3, 3, 4, 4]
            int[] faceVertexIndices = [155, 156, 1, 0, 0, 1, 3, 2, 2, 3, 5, 4, 4, 5, 164, 163, 59, 13, 14, 57, 76, 75, 10, 11, 397, 398, 169, 8, 395, 396, 7, 6, 394, 395, 6, 165, 396, 397, 8, 7, 399, 184, 22, 408, 23, 34, 40, 39, 58, 12, 13, 59, 57, 14, 178, 249, 196, 17, 42, 228, 183, 182, 24, 23, 181, 180, 26, 25, 179, 173, 28, 27, 246, 175, 12, 58, 32, 18, 43, 46, 20, 193, 240, 52, 33, 24, 44, 47, 198, 15, 36, 218, 27, 30, 55, 54, 406, 15, 198, 401, 34, 16, 37, 40, 16, 17, 196, 197, 17, 33, 47, 42, 18, 19, 194, 195, 20, 21, 192, 193, 408, 22, 35, 403, 35, 22, 38, 41, 23, 24, 33, 34, 181, 25, 45, 223, 25, 26, 31, 32, 27, 28, 29, 30, 194, 19, 51, 241, 403, 35, 15, 406, 15, 35, 41, 36, 34, 33, 17, 16, 32, 31, 19, 18, 30, 20, 52, 55, 30, 29, 21, 20, 214, 213, 39, 38, 36, 37, 217, 218, 38, 39, 40, 41, 41, 40, 37, 36, 16, 197, 217, 37, 22, 184, 214, 38, 183, 23, 39, 213, 224, 223, 45, 44, 42, 43, 227, 228, 44, 45, 46, 47, 47, 46, 43, 42, 25, 32, 46, 45, 18, 195, 227, 43, 24, 182, 224, 44, 234, 233, 54, 53, 51, 52, 240, 241, 53, 54, 55, 56, 56, 55, 52, 51, 26, 180, 234, 53, 65, 68, 48, 49, 68, 69, 48, 179, 27, 54, 233, 19, 31, 56, 51, 61, 60, 50, 49, 31, 26, 53, 56, 246, 58, 71, 251, 192, 21, 67, 256, 59, 57, 70, 62, 29, 28, 64, 63, 60, 66, 50, 21, 29, 63, 67, 58, 59, 62, 71, 252, 251, 71, 64, 159, 431, 393, 161, 82, 9, 66, 60, 67, 70, 255, 256, 64, 71, 62, 63, 11, 10, 68, 65, 63, 62, 70, 67, 68, 10, 81, 69, 66, 65, 49, 50, 77, 78, 75, 76, 28, 173, 252, 64, 69, 81, 80, 61, 78, 81, 10, 75, 57, 249, 255, 70, 73, 82, 88, 85, 14, 13, 77, 79, 12, 175, 268, 72, 79, 77, 76, 74, 169, 433, 8, 178, 14, 73, 270, 80, 81, 87, 86, 74, 76, 11, 9, 11, 65, 66, 9, 82, 79, 74, 9, 12, 72, 81, 78, 72, 268, 282, 83, 73, 14, 79, 82, 13, 12, 78, 77, 82, 80, 86, 88, 270, 73, 85, 280, 81, 72, 83, 87, 91, 94, 100, 96, 93, 91, 96, 97, 95, 92, 99, 98, 294, 93, 97, 303, 94, 95, 98, 100, 92, 293, 299, 99, 385, 293, 92, 381, 386, 93, 294, 382, 384, 91, 93, 386, 383, 94, 91, 384, 387, 95, 94, 383, 387, 381, 92, 95, 97, 96, 90, 89, 98, 99, 101, 84, 303, 97, 89, 306, 100, 98, 84, 102, 99, 299, 289, 101, 96, 100, 102, 90, 102, 84, 111, 114, 101, 289, 321, 113, 90, 102, 114, 105, 89, 90, 105, 112, 84, 101, 113, 111, 306, 89, 112, 323, 136, 143, 106, 107, 136, 107, 104, 149, 149, 104, 109, 142, 142, 109, 110, 130, 106, 310, 308, 120, 323, 112, 117, 330, 114, 111, 116, 119, 113, 321, 328, 118, 105, 114, 119, 115, 112, 105, 115, 117, 111, 113, 118, 116, 119, 116, 121, 124, 118, 328, 335, 123, 115, 119, 124, 108, 117, 115, 108, 122, 116, 118, 123, 121, 330, 117, 122, 337, 106, 120, 103, 107, 120, 110, 109, 103, 120, 308, 309, 110, 107, 103, 104, 103, 109, 104, 130, 110, 309, 369, 335, 339, 148, 123, 339, 340, 147, 148, 340, 341, 146, 147, 341, 342, 145, 146, 342, 343, 144, 145, 343, 344, 143, 144, 122, 125, 374, 337, 125, 126, 373, 374, 126, 127, 372, 373, 127, 128, 371, 372, 128, 129, 370, 371, 129, 130, 369, 370, 108, 137, 125, 122, 137, 138, 126, 125, 138, 139, 127, 126, 139, 140, 128, 127, 140, 141, 129, 128, 141, 142, 130, 129, 124, 154, 137, 108, 154, 153, 138, 137, 153, 152, 139, 138, 152, 151, 140, 139, 151, 150, 141, 140, 150, 149, 142, 141, 121, 131, 154, 124, 131, 132, 153, 154, 132, 133, 152, 153, 133, 134, 151, 152, 134, 135, 150, 151, 135, 136, 149, 150, 121, 123, 148, 131, 131, 148, 147, 132, 132, 147, 146, 133, 133, 146, 145, 134, 134, 145, 144, 135, 135, 144, 143, 136, 344, 310, 106, 143, 155, 157, 158, 156, 157, 159, 160, 158, 159, 161, 162, 160, 161, 163, 164, 162, 250, 247, 177, 176, 273, 172, 171, 272, 393, 168, 169, 398, 432, 166, 167, 431, 394, 165, 166, 432, 431, 167, 168, 393, 399, 414, 199, 184, 200, 220, 221, 211, 248, 250, 176, 174, 247, 249, 178, 177, 196, 228, 225, 187, 183, 200, 201, 182, 181, 202, 203, 180, 179, 204, 205, 173, 246, 248, 174, 175, 209, 231, 226, 188, 190, 239, 240, 193, 210, 232, 229, 201, 198, 218, 215, 185, 204, 243, 244, 207, 412, 401, 198, 185, 211, 221, 216, 186, 186, 197, 196, 187, 187, 225, 232, 210, 188, 195, 194, 189, 190, 193, 192, 191, 414, 409, 212, 199, 212, 222, 219, 199, 200, 211, 210, 201, 181, 223, 230, 202, 202, 209, 208, 203, 204, 207, 206, 205, 194, 241, 238, 189, 409, 412, 185, 212, 185, 215, 222, 212, 211, 186, 187, 210, 209, 188, 189, 208, 207, 244, 239, 190, 207, 190, 191, 206, 214, 219, 220, 213, 215, 218, 217, 216, 219, 222, 221, 220, 222, 215, 216, 221, 186, 216, 217, 197, 199, 219, 214, 184, 183, 213, 220, 200, 224, 229, 230, 223, 225, 228, 227, 226, 229, 232, 231, 230, 232, 225, 226, 231, 202, 230, 231, 209, 188, 226, 227, 195, 201, 229, 224, 182, 234, 242, 243, 233, 238, 241, 240, 239, 242, 245, 244, 243, 245, 238, 239, 244, 203, 242, 234, 180, 260, 236, 235, 263, 263, 235, 264, 179, 233, 243, 204, 189, 238, 245, 208, 254, 236, 237, 253, 208, 245, 242, 203, 246, 251, 266, 248, 192, 256, 262, 191, 250, 257, 265, 247, 206, 258, 259, 205, 253, 237, 261, 191, 262, 258, 206, 248, 266, 257, 250, 252, 259, 266, 251, 279, 253, 261, 170, 172, 260, 263, 171, 262, 256, 255, 265, 259, 258, 257, 266, 171, 263, 264, 278, 258, 262, 265, 257, 278, 264, 254, 277, 261, 237, 236, 260, 274, 273, 272, 275, 205, 259, 252, 173, 170, 261, 260, 172, 275, 272, 171, 278, 247, 265, 255, 249, 269, 284, 287, 279, 177, 276, 274, 176, 174, 267, 268, 175, 276, 271, 273, 274, 169, 168, 433, 178, 270, 269, 177, 277, 285, 286, 278, 271, 170, 172, 273, 277, 254, 253, 279, 279, 170, 271, 276, 174, 275, 278, 267, 267, 281, 282, 268, 269, 279, 276, 177, 176, 274, 275, 174, 279, 287, 285, 277, 270, 280, 284, 269, 278, 286, 281, 267, 291, 298, 304, 296, 295, 300, 298, 291, 297, 301, 302, 292, 294, 303, 300, 295, 296, 304, 301, 297, 292, 302, 299, 293, 385, 388, 292, 293, 391, 382, 294, 295, 390, 391, 295, 291, 389, 390, 291, 296, 392, 389, 296, 297, 392, 297, 292, 388, 300, 288, 290, 298, 301, 283, 305, 302, 303, 306, 288, 300, 304, 307, 283, 301, 302, 305, 289, 299, 298, 290, 307, 304, 307, 324, 319, 283, 305, 322, 321, 289, 290, 313, 324, 307, 288, 320, 313, 290, 283, 319, 322, 305, 306, 323, 320, 288, 356, 315, 314, 363, 356, 375, 312, 315, 375, 362, 317, 312, 362, 350, 318, 317, 314, 332, 308, 310, 323, 330, 327, 320, 324, 331, 326, 319, 322, 329, 328, 321, 313, 325, 331, 324, 320, 327, 325, 313, 319, 326, 329, 322, 331, 338, 333, 326, 329, 336, 335, 328, 325, 316, 338, 331, 327, 334, 316, 325, 326, 333, 336, 329, 330, 337, 334, 327, 314, 315, 311, 332, 332, 311, 317, 318, 332, 318, 309, 308, 315, 312, 311, 311, 312, 317, 350, 369, 309, 318, 335, 336, 368, 339, 339, 368, 367, 340, 340, 367, 366, 341, 341, 366, 365, 342, 342, 365, 364, 343, 343, 364, 363, 344, 334, 337, 374, 345, 345, 374, 373, 346, 346, 373, 372, 347, 347, 372, 371, 348, 348, 371, 370, 349, 349, 370, 369, 350, 316, 334, 345, 357, 357, 345, 346, 358, 358, 346, 347, 359, 359, 347, 348, 360, 360, 348, 349, 361, 361, 349, 350, 362, 338, 316, 357, 380, 380, 357, 358, 379, 379, 358, 359, 378, 378, 359, 360, 377, 377, 360, 361, 376, 376, 361, 362, 375, 333, 338, 380, 351, 351, 380, 379, 352, 352, 379, 378, 353, 353, 378, 377, 354, 354, 377, 376, 355, 355, 376, 375, 356, 333, 351, 368, 336, 351, 352, 367, 368, 352, 353, 366, 367, 353, 354, 365, 366, 354, 355, 364, 365, 355, 356, 363, 364, 344, 363, 314, 310, 286, 392, 388, 281, 286, 285, 389, 392, 285, 287, 390, 389, 287, 284, 391, 390, 284, 280, 382, 391, 282, 281, 388, 385, 87, 83, 381, 387, 87, 387, 383, 86, 86, 383, 384, 88, 88, 384, 386, 85, 85, 386, 382, 280, 282, 385, 381, 83, 61, 49, 48, 69, 264, 235, 236, 254, 155, 0, 395, 394, 2, 4, 397, 396, 161, 393, 398, 163, 157, 432, 431, 159, 155, 394, 432, 157, 0, 2, 396, 395, 160, 162, 411, 410, 409, 414, 430, 425, 158, 160, 410, 413, 404, 407, 423, 420, 162, 164, 402, 411, 413, 410, 426, 429, 156, 158, 413, 400, 403, 406, 422, 419, 3, 404, 405, 5, 412, 409, 425, 428, 1, 407, 404, 3, 405, 404, 420, 421, 5, 405, 402, 164, 399, 408, 424, 415, 156, 400, 407, 1, 410, 411, 427, 426, 426, 427, 428, 425, 429, 426, 425, 430, 427, 418, 417, 428, 416, 429, 430, 415, 420, 419, 422, 421, 423, 424, 419, 420, 421, 422, 417, 418, 416, 415, 424, 423, 408, 403, 419, 424, 411, 402, 418, 427, 402, 405, 421, 418, 401, 412, 428, 417, 406, 401, 417, 422, 400, 413, 429, 416, 407, 400, 416, 423, 414, 399, 415, 430, 82, 60, 61, 80, 4, 163, 398, 397, 433, 168, 436, 434, 434, 436, 166, 435, 435, 166, 165, 166, 436, 167, 167, 436, 168, 8, 437, 7, 7, 437, 6, 6, 435, 165, 435, 6, 437, 434, 434, 437, 8, 433]
            rel material:binding = </root/_materials/Steel>
            normal3f[] normals = [(0.24237208, 0.82397115, 0.5121792), (0.24237208, 0.82397115, 0.5121792), (0.24237208, 0.82397115, 0.5121792), (0.24237208, 0.82397115, 0.5121792), (0.59785306, 0.2476387, 0.76239544), (0.59785306, 0.2476387, 0.76239544), (0.59785306, 0.2476387, 0.76239544), (0.59785306, 0.2476387, 0.76239544), (0.5978529, -0.24763875, 0.76239544), (0.5978529, -0.24763875, 0.76239544), (0.5978529, -0.24763875, 0.76239544), (0.5978529, -0.24763875, 0.76239544), (0.2423722, -0.8239709, 0.51217914), (0.2423722, -0.8239709, 0.51217914), (0.2423722, -0.8239709, 0.51217914), (0.2423722, -0.8239709, 0.51217914), (0.92381465, -0.38265637, -0.011857153), (0.92381465, -0.38265637, -0.011857153), (0.92381465, -0.38265637, -0.011857153), (0.92381465, -0.38265637, -0.011857153), (0.99663293, 0, 0.08199324), (0.9966329, 0, 0.08199326), (0.9966329, 0, 0.08199326), (0.99663293, 0, 0.08199324), (0.16450189, -0.5465201, -0.8211302), (0.16450189, -0.5465201, -0.8211302), (0.16450189, -0.5465201, -0.8211302), (0.16450189, -0.5465201, -0.8211302), (0.40523222, 0.16785282, -0.8986725), (0.40523222, 0.16785282, -0.8986725), (0.40523222, 0.16785282, -0.8986725), (0.40523222, 0.16785282, -0.8986725), (0.1645023, 0.5465201, -0.8211302), (0.1645023, 0.5465201, -0.8211302), (0.1645023, 0.5465201, -0.8211302), (0.1645023, 0.5465201, -0.8211302), (0.40523294, -0.16785279, -0.8986722), (0.40523294, -0.16785279, -0.8986722), (0.40523294, -0.16785279, -0.8986722), (0.40523294, -0.16785279, -0.8986722), (0.38579452, 0.9225841, 0.0010675065), (0.38579452, 0.9225841, 0.0010675065), (0.38579452, 0.9225841, 0.0010675065), (0.38579452, 0.9225841, 0.0010675065), (0.6753797, 0.2640072, 0.6885946), (0.6753797, 0.2640072, 0.6885946), (0.6753797, 0.2640072, 0.6885946), (0.6753797, 0.2640072, 0.6885946), (0.9238152, 0.3826552, -0.0118571045), (0.9238152, 0.3826552, -0.0118571045), (0.9238152, 0.3826552, -0.0118571045), (0.9238152, 0.3826552, -0.0118571045), (0.38346812, -0.92352873, -0.0068541146), (0.3830769, -0.92371017, -0.0034217183), (0.3830773, -0.92371, -0.0034249015), (0.38346812, -0.92352873, -0.0068541146), (0.35273805, -0.64812833, -0.67491156), (0.35273805, -0.64812833, -0.67491156), (0.35273805, -0.64812833, -0.67491156), (0.35273805, -0.64812833, -0.67491156), (0.39253905, 0.9150494, -0.092724375), (0.39253905, 0.9150494, -0.092724375), (0.39253905, 0.9150494, -0.092724375), (0.39253905, 0.9150494, -0.092724375), (0.40503594, 0.9142971, 0.0026006366), (0.40503594, 0.9142971, 0.0026006366), (0.40503594, 0.9142971, 0.0026006366), (0.40503594, 0.9142971, 0.0026006366), (0.3812656, 0.924204, -0.021986349), (0.3812656, 0.924204, -0.021986349), (0.3812656, 0.924204, -0.021986349), (0.3812656, 0.924204, -0.021986349), (0.38346785, 0.9235288, -0.0068540284), (0.38307717, 0.92371005, -0.0034248582), (0.3830768, 0.92371017, -0.0034216752), (0.38346785, 0.9235288, -0.0068540284), (0.83500046, -0.22238949, 0.50330627), (0.83500046, -0.22238949, 0.50330627), (0.83500046, -0.22238949, 0.50330627), (0.83500046, -0.22238949, 0.50330627), (0.23174912, -0.78308266, 0.5771256), (0.23174912, -0.78308266, 0.5771256), (0.23174912, -0.78308266, 0.5771256), (0.23174912, -0.78308266, 0.5771256), (0.7281261, 0.31352597, -0.6095357), (0.7281261, 0.31352597, -0.6095357), (0.7281261, 0.31352597, -0.6095357), (0.7281261, 0.31352597, -0.6095357), (0.4160455, -0.5002914, -0.7593515), (0.4160455, -0.5002914, -0.7593515), (0.4160455, -0.5002914, -0.7593515), (0.4160455, -0.5002914, -0.7593515), (0.80926496, 0.38723192, 0.4417484), (0.80926496, 0.38723192, 0.4417484), (0.80926496, 0.38723192, 0.4417484), (0.80926496, 0.38723192, 0.4417484), (0.38579446, -0.9225842, 0.0010681107), (0.38579446, -0.9225842, 0.0010681107), (0.38579446, -0.9225842, 0.0010681107), (0.38579446, -0.9225842, 0.0010681107), (0.6753795, -0.26400727, 0.6885947), (0.6753795, -0.26400727, 0.6885947), (0.6753795, -0.26400727, 0.6885947), (0.6753795, -0.26400727, 0.6885947), (0.39253923, -0.9150493, -0.0927245), (0.39253923, -0.9150493, -0.0927245), (0.39253923, -0.9150493, -0.0927245), (0.39253923, -0.9150493, -0.0927245), (0.728126, -0.31352606, -0.6095358), (0.728126, -0.31352606, -0.6095358), (0.728126, -0.31352606, -0.6095358), (0.728126, -0.31352606, -0.6095358), (0.40456635, -0.91450715, 0.0016639364), (0.40456635, -0.91450715, 0.0016639364), (0.40456635, -0.91450715, 0.0016639364), (0.40456635, -0.91450715, 0.0016639364), (0.38126564, -0.9242041, -0.021986416), (0.38126564, -0.9242041, -0.021986416), (0.38126564, -0.9242041, -0.021986416), (0.38126564, -0.9242041, -0.021986416), (0.9219412, 0.37832728, 0.08302377), (0.9219412, 0.37832728, 0.08302377), (0.9219412, 0.37832728, 0.08302377), (0.9219412, 0.37832728, 0.08302377), (0.7879439, 0.18022995, -0.58877975), (0.7879439, 0.18022995, -0.58877975), (0.7879439, 0.18022995, -0.58877975), (0.7879439, 0.18022995, -0.58877975), (0.89987177, 0.3641929, -0.23998806), (0.89987177, 0.3641929, -0.23998806), (0.89987177, 0.3641929, -0.23998806), (0.89987177, 0.3641929, -0.23998806), (0.39019287, 0.65406954, 0.64802986), (0.39019287, 0.65406954, 0.64802986), (0.39019287, 0.65406954, 0.64802986), (0.39019287, 0.65406954, 0.64802986), (0.90843135, 0.3939929, 0.13972086), (0.90843135, 0.3939929, 0.13972086), (0.90843135, 0.3939929, 0.13972086), (0.90843135, 0.3939929, 0.13972086), (0.92162466, 0.38550767, 0.04462842), (0.92162466, 0.38550767, 0.04462842), (0.92162466, 0.38550767, 0.04462842), (0.92162466, 0.38550767, 0.04462842), (0.35359564, -0.5382711, -0.765006), (0.35359564, -0.5382711, -0.765006), (0.35359564, -0.5382711, -0.765006), (0.35359564, -0.5382711, -0.765006), (0.9219409, -0.37832782, 0.08302419), (0.9219409, -0.37832782, 0.08302419), (0.9219409, -0.37832782, 0.08302419), (0.9219409, -0.37832782, 0.08302419), (0.78794426, -0.18022986, -0.58877933), (0.78794426, -0.18022986, -0.58877933), (0.78794426, -0.18022986, -0.58877933), (0.78794426, -0.18022986, -0.58877933), (0.89987177, -0.3641931, -0.23998806), (0.89987177, -0.3641931, -0.23998806), (0.89987177, -0.3641931, -0.23998806), (0.89987177, -0.3641931, -0.23998806), (0.90933776, -0.39268833, 0.13748002), (0.90933776, -0.39268833, 0.13748002), (0.90933776, -0.39268833, 0.13748002), (0.90933776, -0.39268833, 0.13748002), (0.8092648, -0.3872321, 0.44174847), (0.8092648, -0.3872321, 0.44174847), (0.8092648, -0.3872321, 0.44174847), (0.8092648, -0.3872321, 0.44174847), (0.92162496, -0.38550726, 0.044628527), (0.92162496, -0.38550726, 0.044628527), (0.92162496, -0.38550726, 0.044628527), (0.92162496, -0.38550726, 0.044628527), (0.39159295, 0.92012036, -0.0057925503), (0.39159295, 0.92012036, -0.0057925503), (0.39159295, 0.92012036, -0.0057925503), (0.39159295, 0.92012036, -0.0057925503), (0.3915929, -0.92012036, -0.0057924394), (0.3915929, -0.92012036, -0.0057924394), (0.3915929, -0.92012036, -0.0057924394), (0.3915929, -0.92012036, -0.0057924394), (0.9455449, 0.3245477, -0.02477274), (0.9455449, 0.3245477, -0.02477274), (0.9455449, 0.3245477, -0.02477274), (0.9455449, 0.3245477, -0.02477274), (0.9455449, -0.32454774, -0.024772746), (0.9455449, -0.32454774, -0.024772746), (0.9455449, -0.32454774, -0.024772746), (0.9455449, -0.32454774, -0.024772746), (0.14718762, -0.6491212, 0.7463092), (0.14718762, -0.6491212, 0.7463092), (0.14718762, -0.6491212, 0.7463092), (0.14718762, -0.6491212, 0.7463092), (0.4160453, 0.5002916, -0.7593515), (0.4160453, 0.5002916, -0.7593515), (0.4160453, 0.5002916, -0.7593515), (0.4160453, 0.5002916, -0.7593515), (0.14718762, 0.64912117, 0.7463092), (0.14718762, 0.64912117, 0.7463092), (0.14718762, 0.64912117, 0.7463092), (0.14718762, 0.64912117, 0.7463092), (0.38919628, 0.92115486, 0.00017152925), (0.38919628, 0.92115486, 0.00017152925), (0.38919628, 0.92115486, 0.00017152925), (0.38919628, 0.92115486, 0.00017152925), (0.3891963, -0.92115486, 0.00017157939), (0.3891963, -0.92115486, 0.00017157939), (0.3891963, -0.92115486, 0.00017157939), (0.3891963, -0.92115486, 0.00017157939), (0.93605, 0.35176298, 0.008553605), (0.93605, 0.35176298, 0.008553605), (0.93605, 0.35176298, 0.008553605), (0.93605, 0.35176298, 0.008553605), (0.93605, -0.35176298, 0.008553606), (0.93605, -0.35176298, 0.008553606), (0.93605, -0.35176298, 0.008553606), (0.93605, -0.35176298, 0.008553606), (0.8350004, 0.2223895, 0.5033062), (0.8350004, 0.2223895, 0.5033062), (0.8350004, 0.2223895, 0.5033062), (0.8350004, 0.2223895, 0.5033062), (0.39019302, -0.6540696, 0.6480296), (0.39019302, -0.6540696, 0.6480296), (0.39019302, -0.6540696, 0.6480296), (0.39019302, -0.6540696, 0.6480296), (0.35273805, 0.6481283, -0.67491156), (0.35273805, 0.6481283, -0.67491156), (0.35273805, 0.6481283, -0.67491156), (0.35273805, 0.6481283, -0.67491156), (0.43424022, 0.9006583, -0.015811622), (0.43424022, 0.9006583, -0.015811622), (0.43424022, 0.9006583, -0.015811622), (0.43424022, 0.9006583, -0.015811622), (0.4342402, -0.90065837, -0.015811678), (0.4342402, -0.90065837, -0.015811678), (0.4342402, -0.90065837, -0.015811678), (0.4342402, -0.90065837, -0.015811678), (0.9216929, 0.38223106, -0.06619292), (0.9216929, 0.38223106, -0.06619292), (0.9216929, 0.38223106, -0.06619292), (0.9216929, 0.38223106, -0.06619292), (0.92169297, -0.38223112, -0.0661929), (0.92169297, -0.38223112, -0.0661929), (0.92169297, -0.38223112, -0.0661929), (0.92169297, -0.38223112, -0.0661929), (0.35266498, 0.54457194, -0.76096576), (0.35266498, 0.54457194, -0.76096576), (0.35266498, 0.54457194, -0.76096576), (0.35266498, 0.54457194, -0.76096576), (0.9378405, 0, 0.34706667), (0.9378404, 0, 0.3470667), (0.9378404, 0, 0.3470667), (0.9378405, 0, 0.34706667), (6.149888e-9, 1, 1.7132676e-8), (1.0233632e-8, 1, 2.850938e-8), (0, 1, 0), (0.2317491, 0.78308266, 0.57712555), (0.2317491, 0.78308266, 0.57712555), (0.2317491, 0.78308266, 0.57712555), (0.2317491, 0.78308266, 0.57712555), (0.7936091, -0.2361515, -0.5607291), (0.7936091, -0.2361515, -0.5607291), (0.7936091, -0.2361515, -0.5607291), (0.7936091, -0.2361515, -0.5607291), (-0.6574581, 0, 0.75349116), (-0.6574582, 0, 0.753491), (-0.6574582, 0, 0.753491), (-0.6574581, 0, 0.75349116), (0.79568845, 0.23576139, -0.55793935), (0.79568845, 0.23576139, -0.55793935), (0.79568845, 0.23576139, -0.55793935), (0.79568845, 0.23576139, -0.55793935), (0.14009334, 0.7240047, 0.67541915), (0.14009334, 0.7240047, 0.67541915), (0.14009334, 0.7240047, 0.67541915), (0.14009334, 0.7240047, 0.67541915), (0.39819303, -0.75040376, -0.5275761), (0.39819303, -0.75040376, -0.5275761), (0.39819303, -0.75040376, -0.5275761), (0.39819303, -0.75040376, -0.5275761), (0.67490256, -0.27955413, 0.68290275), (0.67490256, -0.27955413, 0.68290275), (0.67490256, -0.27955413, 0.68290275), (0.67490256, -0.27955413, 0.68290275), (0.83540195, 0.28008434, -0.47292322), (0.83540195, 0.28008434, -0.47292322), (0.83540195, 0.28008434, -0.47292322), (0.83540195, 0.28008434, -0.47292322), (-2.0467262e-8, -1, -2.0111424e-8), (-1.22997745e-8, -1, -3.3763052e-9), (0, -1, 2.1825842e-8), (0.8354019, -0.2800844, -0.47292343), (0.8354019, -0.2800844, -0.47292343), (0.8354019, -0.2800844, -0.47292343), (0.8354019, -0.2800844, -0.47292343), (0.6749032, 0.2795539, 0.68290216), (0.6749032, 0.2795539, 0.68290216), (0.6749032, 0.2795539, 0.68290216), (0.6749032, 0.2795539, 0.68290216), (0.38403386, 0.92327523, -0.008996084), (0.38403386, 0.92327523, -0.008996084), (0.38403386, 0.92327523, -0.008996084), (0.38403386, 0.92327523, -0.008996084), (-0.9204334, -0.38125598, -0.08629101), (-0.9204334, -0.38125598, -0.08629101), (-0.9204334, -0.38125598, -0.08629101), (-0.9204334, -0.38125598, -0.08629101), (-1.2921058e-7, -1, 1.2415758e-7), (-8.7899714e-8, -1, 5.3730535e-8), (-1.22997745e-8, -1, -3.3763052e-9), (-2.0467262e-8, -1, -2.0111424e-8), (0.38403386, -0.92327523, -0.008996106), (0.38403386, -0.92327523, -0.008996106), (0.38403386, -0.92327523, -0.008996106), (0.38403386, -0.92327523, -0.008996106), (0.9241719, 0.38185915, -0.009476787), (0.9241719, 0.38185915, -0.009476787), (0.9241719, 0.38185915, -0.009476787), (0.9241719, 0.38185915, -0.009476787), (0.9547229, 0, -0.29749665), (0.9547229, 0, -0.29749668), (0.9547229, 0, -0.29749668), (0.9547229, 0, -0.29749665), (0.92417204, -0.381859, -0.009476793), (0.92417204, -0.381859, -0.009476793), (0.92417204, -0.381859, -0.009476793), (0.92417204, -0.381859, -0.009476793), (6.149888e-9, 1, 1.7132676e-8), (6.491761e-8, 1, -4.711836e-8), (9.886944e-8, 1, -1.1164224e-7), (1.0233632e-8, 1, 2.850938e-8), (0.9378405, 0, 0.34706664), (0.9378405, 0, 0.34706667), (0.9378405, 0, 0.34706667), (0.9378405, 0, 0.34706664), (0.50581026, 0, -0.86264473), (0.50581044, 0, -0.8626447), (0.50581044, 0, -0.8626447), (0.50581026, 0, -0.86264473), (0.39819303, 0.75040376, -0.5275761), (0.39819303, 0.75040376, -0.5275761), (0.39819303, 0.75040376, -0.5275761), (0.39819303, 0.75040376, -0.5275761), (-0.9887808, 0, 0.14937414), (-0.9887808, 0, 0.14937414), (-0.98878074, 0, 0.14937413), (-0.98878074, 0, 0.14937411), (5.064591e-8, 1, -5.0626692e-8), (9.886944e-8, 1, -1.1164224e-7), (6.491761e-8, 1, -4.711836e-8), (1.6890995e-7, 1, -2.1811111e-7), (0.14009334, -0.7240047, 0.67541915), (0.14009334, -0.7240047, 0.67541915), (0.14009334, -0.7240047, 0.67541915), (0.14009334, -0.7240047, 0.67541915), (-0.004952949, 0.014845367, 0.9998775), (-0.0067266743, 0.012947519, 0.99989355), (-0.01062249, 0.0087781465, 0.99990505), (-0.004952949, 0.014845367, 0.9998775), (0.37064964, -0.07676407, -0.925595), (0.37064964, -0.07676407, -0.925595), (0.37064964, -0.07676407, -0.925595), (0.37064964, -0.07676407, -0.925595), (0.3830768, 0.92371017, -0.0034216752), (0.38307717, 0.92371005, -0.0034248582), (0.38268232, 0.9238799, 0), (0.38268232, 0.9238799, 0), (0.50581014, 0, -0.86264485), (0.50581026, 0, -0.86264473), (0.50581026, 0, -0.86264473), (0.50581014, 0, -0.86264485), (0, 0, -1), (2.3313675e-8, 0, -1), (0.0000021860023, 0, -1), (0.3830773, -0.92371, -0.0034249015), (0.3830769, -0.92371017, -0.0034217183), (0.38268232, -0.9238799, 0), (0.38268232, -0.9238799, 0), (-0.01224207, 0, 0.9999251), (-0.006727123, -0.012947518, 0.99989355), (-0.010623033, -0.008778559, 0.99990505), (-0.012242071, 0, 0.9999251), (0.9966329, 0, 0.0819932), (0.99663293, 0, 0.08199324), (0.99663293, 0, 0.08199324), (0.9966329, 0, 0.0819932), (0.9547229, 0, -0.29749665), (0.9547229, 0, -0.29749665), (0.9547229, 0, -0.29749662), (0.9547229, 0, -0.29749662), (-1.2921058e-7, -1, 1.2415758e-7), (-7.4323076e-8, -1, 6.986342e-8), (-2.111375e-7, -1, 2.2966667e-7), (-8.7899714e-8, -1, 5.3730535e-8), (1.8659996e-8, 0.99999994, -5.328547e-9), (1.8659996e-8, 0.99999994, -5.328547e-9), (9.886944e-8, 1, -1.1164224e-7), (5.064591e-8, 1, -5.0626692e-8), (0.6166924, 0.08197502, 0.7829243), (0.6166924, 0.08197502, 0.7829243), (0.6166924, 0.08197502, 0.7829243), (0.6166924, 0.08197502, 0.7829243), (-3.7319992e-8, -0.99999994, 2.6642734e-8), (-3.7319992e-8, -0.99999994, 2.6642734e-8), (-7.4323076e-8, -1, 6.986342e-8), (-1.2921058e-7, -1, 1.2415758e-7), (0.37064913, 0.07676407, -0.9255952), (0.37064913, 0.07676407, -0.9255952), (0.37064913, 0.07676407, -0.9255952), (0.37064913, 0.07676407, -0.9255952), (-0.0067266743, 0.012947519, 0.99989355), (-0.01224207, 0, 0.9999251), (-0.012242071, 0, 0.9999251), (-0.01062249, 0.0087781465, 0.99990505), (0.61669225, -0.08197505, 0.78292453), (0.61669225, -0.08197505, 0.78292453), (0.61669225, -0.08197505, 0.78292453), (0.61669225, -0.08197505, 0.78292453), (-0.006727123, -0.012947518, 0.99989355), (-0.004952949, -0.014845367, 0.9998775), (-0.004952949, -0.014845367, 0.9998775), (-0.010623033, -0.008778559, 0.99990505), (0.42406943, -0.68563735, 0.59166425), (0.42406943, -0.68563735, 0.59166425), (0.42406943, -0.68563735, 0.59166425), (0.42406943, -0.68563735, 0.59166425), (3.7982693e-9, -1, -7.0455525e-10), (5.4392126e-9, -1, -1.7710412e-9), (3.484287e-9, -1, -1.4771547e-8), (-2.4656435e-9, -1, -1.2353681e-8), (-1.08784235e-8, 1, -6.2821615e-9), (-7.596538e-9, 1, -3.8547263e-9), (-7.657974e-9, 1, -2.2142268e-9), (-2.2021808e-8, 1, -7.982525e-9), (0, -1, 0), (3.7982693e-9, -1, -7.0455525e-10), (-2.4656435e-9, -1, -1.2353681e-8), (0, -1, 0), (0.42406943, 0.68563735, 0.5916642), (0.42406943, 0.68563735, 0.5916642), (0.42406943, 0.68563735, 0.5916642), (0.42406943, 0.68563735, 0.5916642), (-7.596538e-9, 1, -3.8547263e-9), (0, 1, 0), (0, 1, 0), (-7.657974e-9, 1, -2.2142268e-9), (0, 1, 0), (0, 1, 0), (-7.596538e-9, 1, -3.8547263e-9), (0, 1, -1.611163e-11), (0, -1, -1.611163e-11), (3.7982693e-9, -1, -7.0455525e-10), (0, -1, 0), (0, -1, 0), (0, -1, -3.261528e-11), (5.4392126e-9, -1, -1.7710412e-9), (3.7982693e-9, -1, -7.0455525e-10), (0, -1, -1.611163e-11), (0.45322737, -0.8913277, -0.010949932), (0.45322737, -0.8913277, -0.010949932), (0.45322737, -0.8913277, -0.010949932), (0.45322737, -0.8913277, -0.010949932), (0.45322752, 0.8913276, -0.010949933), (0.45322752, 0.8913276, -0.010949933), (0.45322752, 0.8913276, -0.010949933), (0.45322752, 0.8913276, -0.010949933), (0, 1, -3.261528e-11), (0, 1, -1.611163e-11), (-7.596538e-9, 1, -3.8547263e-9), (-1.08784235e-8, 1, -6.2821615e-9), (-2.4656435e-9, -1, -1.2353681e-8), (3.484287e-9, -1, -1.4771547e-8), (-2.8212535e-8, -1, -2.735621e-8), (-1.4040156e-8, -1, -1.3728383e-8), (-2.2021808e-8, 1, -7.982525e-9), (-7.657974e-9, 1, -2.2142268e-9), (3.4512928e-9, 1, 9.41078e-9), (7.0473334e-9, 1, 1.9018081e-8), (0, -1, 0), (-2.4656435e-9, -1, -1.2353681e-8), (-1.4040156e-8, -1, -1.3728383e-8), (0, -1, 0), (0.39894652, 0.7433497, -0.53691053), (0.39894652, 0.7433497, -0.53691053), (0.39894652, 0.7433497, -0.53691053), (0.39894652, 0.7433497, -0.53691053), (-7.657974e-9, 1, -2.2142268e-9), (0, 1, 0), (0, 1, 0), (3.4512928e-9, 1, 9.41078e-9), (0.39894652, -0.7433497, -0.53691053), (0.39894652, -0.7433497, -0.53691053), (0.39894652, -0.7433497, -0.53691053), (0.39894652, -0.7433497, -0.53691053), (0.47141093, 0.7744849, 0.42183512), (0.47141093, 0.7744849, 0.42183512), (0.47141093, 0.7744849, 0.42183512), (0.47141093, 0.7744849, 0.42183512), (3.4512928e-9, 1, 9.41078e-9), (0, 1, 0), (0, 1, 0), (1.019187e-8, 1, -1.0964449e-9), (0.47141102, -0.7744848, 0.42183515), (0.47141102, -0.7744848, 0.42183515), (0.47141102, -0.7744848, 0.42183515), (0.47141102, -0.7744848, 0.42183515), (-1.4040156e-8, -1, -1.3728383e-8), (-2.8212535e-8, -1, -2.735621e-8), (-4.1141863e-8, -1, -7.511569e-9), (-2.038374e-8, -1, -5.665032e-9), (7.0473334e-9, 1, 1.9018081e-8), (3.4512928e-9, 1, 9.41078e-9), (1.019187e-8, 1, -1.0964449e-9), (2.0570932e-8, 1, -2.3388285e-8), (0, -1, 0), (-1.4040156e-8, -1, -1.3728383e-8), (-2.038374e-8, -1, -5.665032e-9), (0, -1, 0), (0, 1, 0), (0, 1, 0), (0, 1, 0), (0, 1, 0), (0.39413717, 0.9189536, 0.013419526), (0.39413717, 0.9189536, 0.013419526), (0.39413717, 0.9189536, 0.013419526), (0.39413717, 0.9189536, 0.013419526), (0.39413723, -0.9189536, 0.0134195285), (0.39413723, -0.9189536, 0.0134195285), (0.39413723, -0.9189536, 0.0134195285), (0.39413723, -0.9189536, 0.0134195285), (0, -1, 0), (0, -1, 0), (0, -1, 0), (0, -1, 0), (0.30353388, 0.914019, 0.26914012), (0.30353388, 0.914019, 0.26914012), (0.30353388, 0.914019, 0.26914012), (0.30353388, 0.914019, 0.26914012), (0, -1, 0), (-2.038374e-8, -1, -5.665032e-9), (-1.5064558e-8, -1, 5.8360587e-9), (0, -1, 0), (0.46169803, 0.6584898, -0.5943283), (0.46169803, 0.6584898, -0.5943283), (0.46169803, 0.6584898, -0.5943283), (0.46169803, 0.6584898, -0.5943283), (1.019187e-8, 1, -1.0964449e-9), (0, 1, 0), (0, 1, 0), (7.532278e-9, 1, -1.7655982e-8), (0.461698, -0.65848994, -0.59432817), (0.461698, -0.65848994, -0.59432817), (0.461698, -0.65848994, -0.59432817), (0.461698, -0.65848994, -0.59432817), (-2.038374e-8, -1, -5.665032e-9), (-4.1141863e-8, -1, -7.511569e-9), (-2.526361e-8, -1, 1.6505691e-8), (-1.5064558e-8, -1, 5.8360587e-9), (2.0570932e-8, 1, -2.3388285e-8), (1.019187e-8, 1, -1.0964449e-9), (7.532278e-9, 1, -1.7655982e-8), (1.2631805e-8, 1, -2.298343e-8), (0.4700303, 0.79195815, 0.38970995), (0.4700303, 0.79195815, 0.38970995), (0.4700303, 0.79195815, 0.38970995), (0.4700303, 0.79195815, 0.38970995), (7.532278e-9, 1, -1.7655982e-8), (0, 1, 0), (0, 1, 0), (2.0241389e-9, 1, 0), (0.4700321, -0.7919573, 0.38970956), (0.4700321, -0.7919573, 0.38970956), (0.4700321, -0.7919573, 0.38970956), (0.4700321, -0.7919573, 0.38970956), (-1.5064558e-8, -1, 5.8360587e-9), (-2.526361e-8, -1, 1.6505691e-8), (-9.681017e-9, -1, 1.5255084e-8), (-4.0482777e-9, -1, 6.379166e-9), (1.2631805e-8, 1, -2.298343e-8), (7.532278e-9, 1, -1.7655982e-8), (2.0241389e-9, 1, 0), (4.8405084e-9, 1, 0), (0, -1, 0), (-1.5064558e-8, -1, 5.8360587e-9), (-4.0482777e-9, -1, 6.379166e-9), (0, -1, 0), (0.4375319, 0.8683862, 0.23339047), (0.4375319, 0.8683862, 0.23339047), (0.4375319, 0.8683862, 0.23339047), (0.4375319, 0.8683862, 0.23339047), (0.43753132, -0.86838657, 0.23339051), (0.43753132, -0.86838657, 0.23339051), (0.43753132, -0.86838657, 0.23339051), (0.43753132, -0.86838657, 0.23339051), (0.30362213, -0.91524744, 0.26483157), (0.30362213, -0.91524744, 0.26483157), (0.30362213, -0.91524744, 0.26483157), (0.30362213, -0.91524744, 0.26483157), (0.4376822, 0.8763571, 0.20107877), (0.4376822, 0.8763571, 0.20107877), (0.4376822, 0.8763571, 0.20107877), (0.4376822, -0.8763571, 0.20107871), (0.4376822, -0.8763571, 0.20107871), (0.4376822, -0.8763571, 0.20107871), (0, -1, 0), (0, -1, 0), (0, -1, 0), (0, -1, 0), (0, 1, 0), (0, 1, 0), (0, 1, 0), (2.0241389e-9, 1, 0), (0, 1, 0), (0, 1, 0), (0, 1, 0), (0, 1, 0), (0, 1, 0), (0, 1, 0), (0, 1, 4.5004627e-9), (0, 1, 0), (0, 1, 0), (0, 1, 0), (0, 1, -4.500418e-9), (0, 1, 4.5004627e-9), (0, 1, 0), (0, 1, 0), (0, 1, -9.000882e-9), (0, 1, -4.500418e-9), (0, 1, 0), (0, 1, 0), (0, 1, 0), (0, 1, -9.000882e-9), (-4.0482777e-9, -1, 6.379166e-9), (0, -1, 0), (0, -1, 0), (0, -1, 0), (0, -1, 0), (0, -1, 0), (0, -1, 0), (0, -1, 0), (0, -1, 0), (0, -1, 4.5004627e-9), (0, -1, 0), (0, -1, 0), (0, -1, 4.5004627e-9), (0, -1, -4.500418e-9), (0, -1, 0), (0, -1, 0), (0, -1, -4.500418e-9), (0, -1, -9.000881e-9), (0, -1, 0), (0, -1, 0), (0, -1, -9.000881e-9), (0, -1, 0), (0, -1, 0), (0, -1, 0), (-9.681017e-9, -1, 1.5255084e-8), (0, -1, 0), (0, -1, 0), (-4.0482777e-9, -1, 6.379166e-9), (0, -1, 0), (0, -1, 0), (0, -1, 0), (0, -1, 0), (0, -1, 0), (0, -1, 7.499072e-9), (0, -1, 4.5004627e-9), (0, -1, 0), (0, -1, 7.499072e-9), (0, -1, -9.000821e-9), (0, -1, -4.500418e-9), (0, -1, 4.5004627e-9), (0, -1, -9.000821e-9), (0, -1, -1.3628513e-8), (0, -1, -9.000881e-9), (0, -1, -4.500418e-9), (0, -1, -1.3628513e-8), (0, -1, 0), (0, -1, 0), (0, -1, -9.000881e-9), (0.453255, -0.89138097, 0), (0.453255, -0.89138097, 0), (0.453255, -0.89138097, 0), (0.453255, -0.89138097, 0), (0.45302427, -0.890928, 0.031878226), (0.45302427, -0.890928, 0.031878226), (0.45302427, -0.890928, 0.031878226), (0.45302427, -0.890928, 0.031878226), (0.4507055, -0.8863678, -0.10590927), (0.4507055, -0.8863678, -0.10590927), (0.4507055, -0.8863678, -0.10590927), (0.4507055, -0.8863678, -0.10590927), (0.43174922, -0.84909016, 0.30436558), (0.43174922, -0.84909016, 0.30436558), (0.43174922, -0.84909016, 0.30436558), (0.43174922, -0.84909016, 0.30436558), (0.43175066, -0.84909004, -0.304364), (0.43175066, -0.84909004, -0.304364), (0.43175066, -0.84909004, -0.304364), (0.43175066, -0.84909004, -0.304364), (0.45325455, -0.8913811, 0), (0.45325455, -0.8913811, 0), (0.45325455, -0.8913811, 0), (0.45325455, -0.8913811, 0), (0.45325434, 0.8913812, 0), (0.45325434, 0.8913812, 0), (0.45325434, 0.8913812, 0), (0.45325434, 0.8913812, 0), (0.45302427, 0.890928, 0.03187823), (0.45302427, 0.890928, 0.03187823), (0.45302427, 0.890928, 0.03187823), (0.45302427, 0.890928, 0.03187823), (0.4507055, 0.8863678, -0.105909295), (0.4507055, 0.8863678, -0.105909295), (0.4507055, 0.8863678, -0.105909295), (0.4507055, 0.8863678, -0.105909295), (0.43175024, 0.84908974, 0.30436546), (0.43175024, 0.84908974, 0.30436546), (0.43175024, 0.84908974, 0.30436546), (0.43175024, 0.84908974, 0.30436546), (0.43175066, 0.84909004, -0.30436403), (0.43175066, 0.84909004, -0.30436403), (0.43175066, 0.84909004, -0.30436403), (0.43175066, 0.84909004, -0.30436403), (0.45325455, 0.8913811, 0), (0.45325455, 0.8913811, 0), (0.45325455, 0.8913811, 0), (0.45325455, 0.8913811, 0), (4.8405084e-9, 1, 0), (2.0241389e-9, 1, 0), (0, 1, 0), (0, 1, 0), (0, 1, 0), (0, 1, 0), (0, 1, 0), (0, 1, 0), (0, 1, 0), (0, 1, 0), (0, 1, 4.5004627e-9), (0, 1, 7.499072e-9), (0, 1, 7.499072e-9), (0, 1, 4.5004627e-9), (0, 1, -4.500418e-9), (0, 1, -9.000821e-9), (0, 1, -9.000821e-9), (0, 1, -4.500418e-9), (0, 1, -9.000882e-9), (0, 1, -1.3628513e-8), (0, 1, -1.3628513e-8), (0, 1, -9.000882e-9), (0, 1, 0), (0, 1, 0), (0, 1, 0), (0, 1, 0), (0, 1, 0), (0, 1, 0), (-0.24237207, 0.82397103, 0.5121792), (-0.24237207, 0.82397103, 0.5121792), (-0.24237207, 0.82397103, 0.5121792), (-0.24237207, 0.82397103, 0.5121792), (-0.59785306, 0.24763869, 0.7623954), (-0.59785306, 0.24763869, 0.7623954), (-0.59785306, 0.24763869, 0.7623954), (-0.59785306, 0.24763869, 0.7623954), (-0.5978529, -0.24763875, 0.76239544), (-0.5978529, -0.24763875, 0.76239544), (-0.5978529, -0.24763875, 0.76239544), (-0.5978529, -0.24763875, 0.76239544), (-0.2423722, -0.8239709, 0.51217914), (-0.2423722, -0.8239709, 0.51217914), (-0.2423722, -0.8239709, 0.51217914), (-0.2423722, -0.8239709, 0.51217914), (-0.8529344, -0.33832234, 0.3975436), (-0.8529344, -0.33832234, 0.3975436), (-0.8529344, -0.33832234, 0.3975436), (-0.8529344, -0.33832234, 0.3975436), (-1, 0, 0), (-1, 0, 0), (-1, 0, 0), (-1, 0, 0), (-0.16450179, -0.5465201, -0.8211302), (-0.16450179, -0.5465201, -0.8211302), (-0.16450179, -0.5465201, -0.8211302), (-0.16450179, -0.5465201, -0.8211302), (-0.40523213, 0.16785282, -0.8986725), (-0.40523213, 0.16785282, -0.8986725), (-0.40523213, 0.16785282, -0.8986725), (-0.40523213, 0.16785282, -0.8986725), (-0.16450219, 0.5465201, -0.82113016), (-0.16450219, 0.5465201, -0.82113016), (-0.16450219, 0.5465201, -0.82113016), (-0.16450219, 0.5465201, -0.82113016), (-0.40523273, -0.16785279, -0.8986722), (-0.40523273, -0.16785279, -0.8986722), (-0.40523273, -0.16785279, -0.8986722), (-0.40523273, -0.16785279, -0.8986722), (-0.3903715, 0.9206201, 0.008290554), (-0.3903715, 0.9206201, 0.008290554), (-0.3903715, 0.9206201, 0.008290554), (-0.3903715, 0.9206201, 0.008290554), (-0.8211166, 0.21366715, 0.52925783), (-0.8211166, 0.21366715, 0.52925783), (-0.8211166, 0.21366715, 0.52925783), (-0.8211166, 0.21366715, 0.52925783), (-0.85430676, 0.34103388, 0.3922448), (-0.85430676, 0.34103388, 0.3922448), (-0.85430676, 0.34103388, 0.3922448), (-0.85430676, 0.34103388, 0.3922448), (-0.35338104, -0.9330446, 0.06745093), (-0.35338104, -0.9330446, 0.06745093), (-0.35338104, -0.9330446, 0.06745093), (-0.35338104, -0.9330446, 0.06745093), (-0.41808847, -0.6338544, -0.65071553), (-0.41808847, -0.6338544, -0.65071553), (-0.41808847, -0.6338544, -0.65071553), (-0.41808847, -0.6338544, -0.65071553), (-0.3836444, 0.9234032, -0.011973774), (-0.3836444, 0.9234032, -0.011973774), (-0.3836444, 0.9234032, -0.011973774), (-0.3836444, 0.9234032, -0.011973774), (-0.39201277, 0.9194912, 0.029358337), (-0.39201277, 0.9194912, 0.029358337), (-0.39201277, 0.9194912, 0.029358337), (-0.39201277, 0.9194912, 0.029358337), (-0.37201068, 0.9274628, -0.03769369), (-0.37201068, 0.9274628, -0.03769369), (-0.37201068, 0.9274628, -0.03769369), (-0.37201068, 0.9274628, -0.03769369), (-0.35372347, 0.9329733, 0.06663804), (-0.35372347, 0.9329733, 0.06663804), (-0.35372347, 0.9329733, 0.06663804), (-0.35372347, 0.9329733, 0.06663804), (-0.74101543, -0.2363649, 0.62851226), (-0.74101543, -0.2363649, 0.62851226), (-0.74101543, -0.2363649, 0.62851226), (-0.74101543, -0.2363649, 0.62851226), (-0.4398132, -0.6604491, 0.6085815), (-0.4398132, -0.6604491, 0.6085815), (-0.4398132, -0.6604491, 0.6085815), (-0.4398132, -0.6604491, 0.6085815), (-0.85393476, 0.206414, -0.47769108), (-0.85393476, 0.206414, -0.47769108), (-0.85393476, 0.206414, -0.47769108), (-0.85393476, 0.206414, -0.47769108), (-0.18357345, -0.6709809, -0.7183908), (-0.18357345, -0.6709809, -0.7183908), (-0.18357345, -0.6709809, -0.7183908), (-0.18357345, -0.6709809, -0.7183908), (-0.78539723, 0.28160468, 0.551226), (-0.78539723, 0.28160468, 0.551226), (-0.78539723, 0.28160468, 0.551226), (-0.78539723, 0.28160468, 0.551226), (-0.39037198, -0.9206199, 0.008291154), (-0.39037198, -0.9206199, 0.008291154), (-0.39037198, -0.9206199, 0.008291154), (-0.39037198, -0.9206199, 0.008291154), (-0.82111657, -0.21366706, 0.52925783), (-0.82111657, -0.21366706, 0.52925783), (-0.82111657, -0.21366706, 0.52925783), (-0.82111657, -0.21366706, 0.52925783), (-0.3836444, -0.9234032, -0.011973973), (-0.3836444, -0.9234032, -0.011973973), (-0.3836444, -0.9234032, -0.011973973), (-0.3836444, -0.9234032, -0.011973973), (-0.85393465, -0.2064141, -0.4776913), (-0.85393465, -0.2064141, -0.4776913), (-0.85393465, -0.2064141, -0.4776913), (-0.85393465, -0.2064141, -0.4776913), (-0.39214662, -0.91942, 0.02979303), (-0.39214662, -0.91942, 0.02979303), (-0.39214662, -0.91942, 0.02979303), (-0.39214662, -0.91942, 0.02979303), (-0.3630582, -0.93030924, -0.052090522), (-0.3630582, -0.93030924, -0.052090522), (-0.3630582, -0.93030924, -0.052090522), (-0.3630582, -0.93030924, -0.052090522), (-0.91942257, 0.36555138, 0.1450324), (-0.91942257, 0.36555138, 0.1450324), (-0.91942257, 0.36555138, 0.1450324), (-0.91942257, 0.36555138, 0.1450324), (-0.7471584, 0.32173243, -0.58158636), (-0.7471584, 0.32173243, -0.58158636), (-0.7471584, 0.32173243, -0.58158636), (-0.7471584, 0.32173243, -0.58158636), (-0.9273334, 0.37422928, -0.0022685812), (-0.9273334, 0.37422928, -0.0022685812), (-0.9273334, 0.37422928, -0.0022685812), (-0.9273334, 0.37422928, -0.0022685812), (-0.26659784, 0.6616059, 0.700859), (-0.26659784, 0.6616059, 0.700859), (-0.26659784, 0.6616059, 0.700859), (-0.26659784, 0.6616059, 0.700859), (-0.92048556, 0.37274957, 0.11732065), (-0.92048556, 0.37274957, 0.11732065), (-0.92048556, 0.37274957, 0.11732065), (-0.92048556, 0.37274957, 0.11732065), (-0.9222711, 0.38401815, -0.044114288), (-0.9222711, 0.38401815, -0.044114288), (-0.9222711, 0.38401815, -0.044114288), (-0.9222711, 0.38401815, -0.044114288), (-0.26908305, -0.5543576, -0.78757983), (-0.26908305, -0.5543576, -0.78757983), (-0.26908305, -0.5543576, -0.78757983), (-0.26908305, -0.5543576, -0.78757983), (-0.91942316, -0.3655499, 0.14503215), (-0.91942316, -0.3655499, 0.14503215), (-0.91942316, -0.3655499, 0.14503215), (-0.91942316, -0.3655499, 0.14503215), (-0.7471579, -0.32173264, -0.58158696), (-0.7471579, -0.32173264, -0.58158696), (-0.7471579, -0.32173264, -0.58158696), (-0.7471579, -0.32173264, -0.58158696), (-0.9273334, -0.37422934, -0.0022686643), (-0.9273334, -0.37422934, -0.0022686643), (-0.9273334, -0.37422934, -0.0022686643), (-0.9273334, -0.37422934, -0.0022686643), (-0.92010486, -0.3731485, 0.11902669), (-0.92010486, -0.3731485, 0.11902669), (-0.92010486, -0.3731485, 0.11902669), (-0.92010486, -0.3731485, 0.11902669), (-0.7853971, -0.28160474, 0.5512259), (-0.7853971, -0.28160474, 0.5512259), (-0.7853971, -0.28160474, 0.5512259), (-0.7853971, -0.28160474, 0.5512259), (-0.9238833, -0.37266243, -0.086962186), (-0.9238833, -0.37266243, -0.086962186), (-0.9238833, -0.37266243, -0.086962186), (-0.9238833, -0.37266243, -0.086962186), (-0.38889453, 0.9211273, -0.016899355), (-0.38889453, 0.9211273, -0.016899355), (-0.38889453, 0.9211273, -0.016899355), (-0.38889453, 0.9211273, -0.016899355), (-0.38889456, -0.92112726, -0.016899439), (-0.38889456, -0.92112726, -0.016899439), (-0.38889456, -0.92112726, -0.016899439), (-0.38889456, -0.92112726, -0.016899439), (-0.944635, 0.32618222, -0.035635326), (-0.944635, 0.32618222, -0.035635326), (-0.944635, 0.32618222, -0.035635326), (-0.944635, 0.32618222, -0.035635326), (-0.944635, -0.3261821, -0.035635266), (-0.944635, -0.3261821, -0.035635266), (-0.944635, -0.3261821, -0.035635266), (-0.944635, -0.3261821, -0.035635266), (-0.37338102, -0.6088063, 0.6999582), (-0.37338102, -0.6088063, 0.6999582), (-0.37338102, -0.6088063, 0.6999582), (-0.37338102, -0.6088063, 0.6999582), (-0.18357383, 0.67098075, -0.718391), (-0.18357383, 0.67098075, -0.718391), (-0.18357383, 0.67098075, -0.718391), (-0.18357383, 0.67098075, -0.718391), (-0.3733812, 0.6088063, 0.69995815), (-0.3733812, 0.6088063, 0.69995815), (-0.3733812, 0.6088063, 0.69995815), (-0.3733812, 0.6088063, 0.69995815), (-0.39014408, 0.9204467, -0.023782764), (-0.39014408, 0.9204467, -0.023782764), (-0.39014408, 0.9204467, -0.023782764), (-0.39014408, 0.9204467, -0.023782764), (-0.39014402, -0.9204467, -0.02378284), (-0.39014402, -0.9204467, -0.02378284), (-0.39014402, -0.9204467, -0.02378284), (-0.39014402, -0.9204467, -0.02378284), (-0.9424103, 0.32817897, -0.064509295), (-0.9424103, 0.32817897, -0.064509295), (-0.9424103, 0.32817897, -0.064509295), (-0.9424103, 0.32817897, -0.064509295), (-0.9424103, -0.328179, -0.06450928), (-0.9424103, -0.328179, -0.06450928), (-0.9424103, -0.328179, -0.06450928), (-0.9424103, -0.328179, -0.06450928), (-0.7410155, 0.23636496, 0.6285122), (-0.7410155, 0.23636496, 0.6285122), (-0.7410155, 0.23636496, 0.6285122), (-0.7410155, 0.23636496, 0.6285122), (-0.26659757, -0.6616057, 0.7008592), (-0.26659757, -0.6616057, 0.7008592), (-0.26659757, -0.6616057, 0.7008592), (-0.26659757, -0.6616057, 0.7008592), (-0.41808856, 0.6338543, -0.6507155), (-0.41808856, 0.6338543, -0.6507155), (-0.41808856, 0.6338543, -0.6507155), (-0.41808856, 0.6338543, -0.6507155), (-0.3799127, 0.9249539, -0.011254343), (-0.3799127, 0.9249539, -0.011254343), (-0.3799127, 0.9249539, -0.011254343), (-0.3799127, 0.9249539, -0.011254343), (-0.37999585, -0.9249188, -0.01132405), (-0.37999585, -0.9249188, -0.01132405), (-0.37999585, -0.9249188, -0.01132405), (-0.37999585, -0.9249188, -0.01132405), (-0.9161971, 0.40068853, 0.0056093554), (-0.9161971, 0.40068853, 0.0056093554), (-0.9161971, 0.40068853, 0.0056093554), (-0.9161971, 0.40068853, 0.0056093554), (-0.9162169, -0.40064272, 0.0056507443), (-0.9162169, -0.40064272, 0.0056507443), (-0.9162169, -0.40064272, 0.0056507443), (-0.9162169, -0.40064272, 0.0056507443), (-0.25701886, 0.53490937, -0.8048686), (-0.25701886, 0.53490937, -0.8048686), (-0.25701886, 0.53490937, -0.8048686), (-0.25701886, 0.53490937, -0.8048686), (-0.9378405, 0, 0.34706667), (-0.9378405, 0, 0.34706667), (-0.9378404, 0, 0.3470667), (-0.9378404, 0, 0.3470667), (-6.149888e-9, 1, 1.7132676e-8), (0, 1, 0), (-1.0233632e-8, 1, 2.850938e-8), (-0.43981326, 0.660449, 0.60858154), (-0.43981326, 0.660449, 0.60858154), (-0.43981326, 0.660449, 0.60858154), (-0.43981326, 0.660449, 0.60858154), (-0.61927533, -0.2946178, -0.7278038), (-0.61927533, -0.2946178, -0.7278038), (-0.61927533, -0.2946178, -0.7278038), (-0.61927533, -0.2946178, -0.7278038), (0.6574581, 0, 0.75349116), (0.6574581, 0, 0.75349116), (0.6574582, 0, 0.753491), (0.6574582, 0, 0.753491), (-0.60587335, 0.28473008, -0.7428635), (-0.60587335, 0.28473008, -0.7428635), (-0.60587335, 0.28473008, -0.7428635), (-0.60587335, 0.28473008, -0.7428635), (-0.2370111, 0.7508607, 0.61646897), (-0.2370111, 0.7508607, 0.61646897), (-0.2370111, 0.7508607, 0.61646897), (-0.2370111, 0.7508607, 0.61646897), (-0.15945083, -0.8217127, -0.5471414), (-0.15945083, -0.8217127, -0.5471414), (-0.15945083, -0.8217127, -0.5471414), (-0.15945083, -0.8217127, -0.5471414), (-0.8354339, -0.26359984, 0.48225027), (-0.8354339, -0.26359984, 0.48225027), (-0.8354339, -0.26359984, 0.48225027), (-0.8354339, -0.26359984, 0.48225027), (-0.7588928, 0.33621758, -0.5577091), (-0.7588928, 0.33621758, -0.5577091), (-0.7588928, 0.33621758, -0.5577091), (-0.7588928, 0.33621758, -0.5577091), (2.0467262e-8, -1, -2.6446841e-8), (0, -1, 2.1825842e-8), (1.22997745e-8, -1, -7.1835653e-9), (-0.77116126, -0.3306806, -0.5440225), (-0.77116126, -0.3306806, -0.5440225), (-0.77116126, -0.3306806, -0.5440225), (-0.77116126, -0.3306806, -0.5440225), (-0.8336148, 0.2644872, 0.48490494), (-0.8336148, 0.2644872, 0.48490494), (-0.8336148, 0.2644872, 0.48490494), (-0.8336148, 0.2644872, 0.48490494), (-0.3607981, 0.9323594, -0.023036493), (-0.3607981, 0.9323594, -0.023036493), (-0.3607981, 0.9323594, -0.023036493), (-0.3607981, 0.9323594, -0.023036493), (1.356168e-7, -1, 1.5529471e-7), (2.0467262e-8, -1, -2.6446841e-8), (1.22997745e-8, -1, -7.1835653e-9), (8.869405e-8, -1, 6.3751095e-8), (-0.9547229, 0, -0.29749665), (-0.9547229, 0, -0.29749665), (-0.9547229, 0, -0.29749668), (-0.9547229, 0, -0.29749668), (-0.360798, -0.9323594, -0.023036571), (-0.360798, -0.9323594, -0.023036571), (-0.360798, -0.9323594, -0.023036571), (-0.360798, -0.9323594, -0.023036571), (-0.91722876, 0.38993585, -0.081494376), (-0.91722876, 0.38993585, -0.081494376), (-0.91722876, 0.38993585, -0.081494376), (-0.91722876, 0.38993585, -0.081494376), (-6.5424345e-8, 1, -3.5842834e-8), (-6.149888e-9, 1, 1.7132676e-8), (-1.0233632e-8, 1, 2.850938e-8), (-1.0399445e-7, 1, -9.7928286e-8), (-0.91722876, -0.389936, -0.08149445), (-0.91722876, -0.389936, -0.08149445), (-0.91722876, -0.389936, -0.08149445), (-0.91722876, -0.389936, -0.08149445), (0.9887808, 0, 0.14937414), (0.9887808, 0, 0.14937414), (0.98878074, 0, 0.14937411), (0.98878074, 0, 0.14937413), (-0.9378405, 0, 0.34706664), (-0.9378405, 0, 0.34706664), (-0.9378405, 0, 0.34706667), (-0.9378405, 0, 0.34706667), (-0.52272004, 0, -0.8525044), (-0.52272004, 0, -0.8525044), (-0.5227203, 0, -0.8525043), (-0.5227203, 0, -0.8525043), (-0.15974149, 0.81969565, -0.5500743), (-0.15974149, 0.81969565, -0.5500743), (-0.15974149, 0.81969565, -0.5500743), (-0.15974149, 0.81969565, -0.5500743), (-0.9547229, 0, -0.29749662), (-0.9547229, 0, -0.29749662), (-0.9547229, 0, -0.29749665), (-0.9547229, 0, -0.29749665), (-5.182287e-8, 1, -4.054088e-8), (-1.7838411e-7, 1, -1.9525922e-7), (-6.5424345e-8, 1, -3.5842834e-8), (-1.0399445e-7, 1, -9.7928286e-8), (-0.23616236, -0.75428575, 0.6126013), (-0.23616236, -0.75428575, 0.6126013), (-0.23616236, -0.75428575, 0.6126013), (-0.23616236, -0.75428575, 0.6126013), (0.004952949, 0.014845367, 0.9998775), (0.004952949, 0.014845367, 0.9998775), (0.010622941, 0.00877856, 0.99990505), (0.0067267106, 0.012947518, 0.99989355), (-0.37064958, -0.07676407, -0.925595), (-0.37064958, -0.07676407, -0.925595), (-0.37064958, -0.07676407, -0.925595), (-0.37064958, -0.07676407, -0.925595), (-0.38268232, 0.9238799, 0), (-0.38268232, 0.9238799, 0), (-0.38268232, 0.9238799, 0), (-0.38268232, 0.9238799, 0), (-0.52271986, 0, -0.85250455), (-0.52271986, 0, -0.85250455), (-0.52272004, 0, -0.8525044), (-0.52272004, 0, -0.8525044), (0, 0, -1), (-0.0000019947163, 0, -1), (2.3313675e-8, 0, -1), (-0.38268232, -0.9238799, 0), (-0.38268232, -0.9238799, 0), (-0.38268232, -0.9238799, 0), (-0.38268232, -0.9238799, 0), (0.012242092, 5.929131e-10, 0.9999251), (0.012242091, 3.4869604e-10, 0.999925), (0.010622589, -0.008778146, 0.99990505), (0.0067264284, -0.01294687, 0.99989355), (-1, 0, 0), (-1, 0, 0), (-1, 0, 0), (-1, 0, 0), (0.98878074, 0, 0.14937413), (0.98878074, 0, 0.14937411), (0.98878074, 0, 0.14937413), (0.98878074, 0, 0.14937413), (1.356168e-7, -1, 1.5529471e-7), (8.869405e-8, -1, 6.3751095e-8), (2.2298015e-7, -1, 2.9288884e-7), (7.586786e-8, -1, 7.7700136e-8), (-1.8659996e-8, 0.99999994, 0), (-5.182287e-8, 1, -4.054088e-8), (-1.0399445e-7, 1, -9.7928286e-8), (-1.8659996e-8, 0.99999994, 0), (-0.6166924, 0.08197502, 0.7829243), (-0.6166924, 0.08197502, 0.7829243), (-0.6166924, 0.08197502, 0.7829243), (-0.6166924, 0.08197502, 0.7829243), (3.7319992e-8, -0.99999994, 2.1314188e-8), (1.356168e-7, -1, 1.5529471e-7), (7.586786e-8, -1, 7.7700136e-8), (3.7319992e-8, -0.99999994, 2.1314188e-8), (-0.37064916, 0.07676407, -0.9255952), (-0.37064916, 0.07676407, -0.9255952), (-0.37064916, 0.07676407, -0.9255952), (-0.37064916, 0.07676407, -0.9255952), (0.0067267106, 0.012947518, 0.99989355), (0.010622941, 0.00877856, 0.99990505), (0.012242091, 3.4869604e-10, 0.999925), (0.012242092, 5.929131e-10, 0.9999251), (-0.61669225, -0.08197505, 0.7829245), (-0.61669225, -0.08197505, 0.7829245), (-0.61669225, -0.08197505, 0.7829245), (-0.61669225, -0.08197505, 0.7829245), (0.0067264284, -0.01294687, 0.99989355), (0.010622589, -0.008778146, 0.99990505), (0.004952949, -0.014845367, 0.9998775), (0.004952949, -0.014845367, 0.9998775), (-0.44742972, -0.87992704, 0.15979753), (-0.44748935, -0.8800449, 0.1589789), (-0.448066, -0.8811758, 0.15088414), (-0.44742972, -0.87992704, 0.15979753), (0, -1, -6.0632344e-9), (0, -1, -1.4533207e-9), (0, -1, -7.405293e-9), (0, -1, -1.0698016e-8), (0, 1, -1.0698016e-8), (0, 1, -1.4682076e-8), (0, 1, -6.0632344e-9), (0, 1, -6.0632344e-9), (0, -1, 0), (0, -1, 0), (0, -1, -1.4533207e-9), (0, -1, -6.0632344e-9), (-0.44743085, 0.8799263, 0.15979743), (-0.4480652, 0.8811762, 0.15088417), (-0.44749022, 0.88004434, 0.15897897), (-0.44743085, 0.8799263, 0.15979743), (0, 1, -6.0632344e-9), (0, 1, -6.0632344e-9), (0, 1, 0), (0, 1, 0), (0, 1, 0), (0, 1, 5.373585e-10), (0, 1, -6.0632344e-9), (0, 1, 0), (0, -1, 5.373585e-10), (0, -1, 0), (0, -1, 0), (0, -1, -6.0632344e-9), (0, -1, 1.0644585e-9), (0, -1, 5.373585e-10), (0, -1, -6.0632344e-9), (0, -1, -1.0698016e-8), (-0.4532441, -0.8913606, -0.0068057086), (-0.4532441, -0.8913605, -0.0068040984), (-0.45324376, -0.89135987, -0.006899528), (-0.45324376, -0.89135987, -0.006899528), (-0.45324415, 0.8913605, -0.0068040993), (-0.45324412, 0.89136046, -0.00680571), (-0.45324382, 0.89135987, -0.0068995296), (-0.45324382, 0.89135987, -0.0068995296), (0, 1, 1.0644585e-9), (0, 1, -1.0698016e-8), (0, 1, -6.0632344e-9), (0, 1, 5.373585e-10), (0, -1, -1.4533207e-9), (0, -1, -1.2473265e-9), (0, -1, -2.9231262e-9), (0, -1, -7.405293e-9), (0, 1, -1.4682076e-8), (0, 1, -2.3908493e-8), (0, 1, -1.1714481e-8), (0, 1, -6.0632344e-9), (0, -1, 0), (0, -1, 0), (0, -1, -1.2473265e-9), (0, -1, -1.4533207e-9), (-0.4480652, 0.8811762, 0.15088417), (-0.44812053, 0.88128626, 0.15007472), (-0.44812053, 0.88128626, 0.15007472), (-0.44749022, 0.88004434, 0.15897897), (0, 1, -6.0632344e-9), (0, 1, -1.1714481e-8), (0, 1, 0), (0, 1, 0), (-0.44748935, -0.8800449, 0.1589789), (-0.44812194, -0.8812856, 0.15007457), (-0.44812194, -0.8812856, 0.15007457), (-0.448066, -0.8811758, 0.15088414), (-0.44505316, 0.8752512, -0.1893754), (-0.44505316, 0.8752512, -0.1893754), (-0.44505316, 0.8752512, -0.1893754), (-0.44505316, 0.8752512, -0.1893754), (0, 1, -1.1714481e-8), (0, 1, -1.1714481e-8), (0, 1, 0), (0, 1, 0), (-0.44505316, -0.8752512, -0.18937537), (-0.44505316, -0.8752512, -0.18937537), (-0.44505316, -0.8752512, -0.18937537), (-0.44505316, -0.8752512, -0.18937537), (0, -1, -1.2473265e-9), (0, -1, -5.8572405e-9), (0, -1, -9.9938235e-9), (0, -1, -2.9231262e-9), (0, 1, -2.3908493e-8), (0, 1, -1.9987647e-8), (0, 1, -1.1714481e-8), (0, 1, -1.1714481e-8), (0, -1, 0), (0, -1, 0), (0, -1, -5.8572405e-9), (0, -1, -1.2473265e-9), (0, 1, 0), (0, 1, 0), (0, 1, 0), (0, 1, 0), (-0.3941372, 0.9189536, 0.013419528), (-0.3941372, 0.9189536, 0.013419528), (-0.3941372, 0.9189536, 0.013419528), (-0.3941372, 0.9189536, 0.013419528), (-0.3941372, -0.9189536, 0.013419528), (-0.3941372, -0.9189536, 0.013419528), (-0.3941372, -0.9189536, 0.013419528), (-0.3941372, -0.9189536, 0.013419528), (0, -1, 0), (0, -1, 0), (0, -1, 0), (0, -1, 0), (-0.30353367, 0.9140191, 0.26914018), (-0.30353367, 0.9140191, 0.26914018), (-0.30353367, 0.9140191, 0.26914018), (-0.30353367, 0.9140191, 0.26914018), (0, -1, 0), (0, -1, 0), (0, -1, 0), (0, -1, -5.8572405e-9), (-0.45325553, 0.89138067, 0), (-0.45325494, 0.8913809, 0), (-0.45325494, 0.8913809, 0), (-0.45325553, 0.89138067, 0), (0, 1, -1.1714481e-8), (0, 1, 0), (0, 1, 0), (0, 1, 0), (-0.45325425, -0.89138126, 0), (-0.45325434, -0.89138126, 0), (-0.45325434, -0.89138126, 0), (-0.45325425, -0.89138126, 0), (0, -1, -5.8572405e-9), (0, -1, 0), (0, -1, 0), (0, -1, -9.9938235e-9), (0, 1, -1.9987647e-8), (0, 1, 0), (0, 1, 0), (0, 1, -1.1714481e-8), (-0.45325494, 0.8913809, 0), (-0.4532544, 0.8913812, 0), (-0.4532544, 0.8913812, 0), (-0.45325494, 0.8913809, 0), (0, 1, 0), (0, 1, 0), (0, 1, 0), (0, 1, 0), (-0.45325434, -0.89138126, 0), (-0.4532544, -0.8913812, 0), (-0.4532544, -0.8913812, 0), (-0.45325434, -0.89138126, 0), (0, -1, 0), (0, -1, 0), (0, -1, 0), (0, -1, 0), (0, 1, 0), (0, 1, 0), (0, 1, 0), (0, 1, 0), (0, -1, 0), (0, -1, 0), (0, -1, 0), (0, -1, 0), (-0.4375319, 0.8683862, 0.23339047), (-0.4375319, 0.8683862, 0.23339047), (-0.4375319, 0.8683862, 0.23339047), (-0.4375319, 0.8683862, 0.23339047), (-0.43753132, -0.86838657, 0.23339051), (-0.43753132, -0.86838657, 0.23339051), (-0.43753132, -0.86838657, 0.23339051), (-0.43753132, -0.86838657, 0.23339051), (-0.30362213, -0.91524744, 0.26483157), (-0.30362213, -0.91524744, 0.26483157), (-0.30362213, -0.91524744, 0.26483157), (-0.30362213, -0.91524744, 0.26483157), (-0.4376822, 0.8763571, 0.20107877), (-0.4376822, 0.8763571, 0.20107877), (-0.4376822, 0.8763571, 0.20107877), (-0.4376822, -0.8763571, 0.20107871), (-0.4376822, -0.8763571, 0.20107871), (-0.4376822, -0.8763571, 0.20107871), (0, -1, 0), (0, -1, 0), (0, -1, 0), (0, -1, 0), (0, 1, 0), (0, 1, 0), (0, 1, 0), (0, 1, 0), (0, 1, 0), (0, 1, 0), (0, 1, 3.6501713e-9), (0, 1, 0), (0, 1, 0), (0, 1, 3.6501713e-9), (0, 1, 9.8132205e-9), (0, 1, 0), (0, 1, 0), (0, 1, 9.8132205e-9), (0, 1, 6.163049e-9), (0, 1, 0), (0, 1, 0), (0, 1, 6.163049e-9), (0, 1, 0), (0, 1, 0), (0, 1, 0), (0, 1, 0), (0, 1, 0), (0, 1, 0), (0, -1, 0), (0, -1, 0), (0, -1, 0), (0, -1, 0), (0, -1, 0), (0, -1, 0), (0, -1, 0), (0, -1, 3.6501713e-9), (0, -1, 3.6501713e-9), (0, -1, 0), (0, -1, 0), (0, -1, 9.8132205e-9), (0, -1, 9.8132205e-9), (0, -1, 0), (0, -1, 0), (0, -1, 6.163049e-9), (0, -1, 6.163049e-9), (0, -1, 0), (0, -1, 0), (0, -1, 0), (0, -1, 0), (0, -1, 0), (0, -1, 0), (0, -1, 0), (0, -1, 0), (0, -1, 0), (0, -1, 0), (0, -1, 0), (0, -1, 0), (0, -1, 0), (0, -1, 3.6501713e-9), (0, -1, 6.2338468e-9), (0, -1, 6.2338468e-9), (0, -1, 3.6501713e-9), (0, -1, 9.8132205e-9), (0, -1, 1.9911038e-8), (0, -1, 1.9911038e-8), (0, -1, 9.8132205e-9), (0, -1, 6.163049e-9), (0, -1, 1.13958345e-8), (0, -1, 1.13958345e-8), (0, -1, 6.163049e-9), (0, -1, 0), (0, -1, 0), (0, -1, 0), (0, -1, 0), (0, -1, 0), (0, -1, 0), (-0.45304677, -0.8909713, -0.030313378), (-0.45304677, -0.8909713, -0.030313378), (-0.45304677, -0.8909713, -0.030313378), (-0.45304677, -0.8909713, -0.030313378), (-0.45320237, -0.89127827, 0.01518625), (-0.45320237, -0.89127827, 0.01518625), (-0.45320237, -0.89127827, 0.01518625), (-0.45320237, -0.89127827, 0.01518625), (-0.52962, -0.8027989, 0.27389118), (-0.52962, -0.8027989, 0.27389118), (-0.52962, -0.8027989, 0.27389118), (-0.52962, -0.8027989, 0.27389118), (-0.50181, -0.7606463, -0.41183007), (-0.50181, -0.7606463, -0.41183007), (-0.50181, -0.7606463, -0.41183007), (-0.50181, -0.7606463, -0.41183007), (-0.5054104, -0.8107175, 0.29546136), (-0.5054104, -0.8107175, 0.29546136), (-0.5054104, -0.8107175, 0.29546136), (-0.5054104, -0.8107175, 0.29546136), (-0.523276, -0.83937615, -0.14707151), (-0.523276, -0.83937615, -0.14707151), (-0.523276, -0.83937615, -0.14707151), (-0.523276, -0.83937615, -0.14707151), (-0.45304614, 0.89097154, -0.03031339), (-0.45304614, 0.89097154, -0.03031339), (-0.45304614, 0.89097154, -0.03031339), (-0.45304614, 0.89097154, -0.03031339), (-0.45320237, 0.89127827, 0.01518625), (-0.45320237, 0.89127827, 0.01518625), (-0.45320237, 0.89127827, 0.01518625), (-0.45320237, 0.89127827, 0.01518625), (-0.52962, 0.8027989, 0.2738912), (-0.52962, 0.8027989, 0.2738912), (-0.52962, 0.8027989, 0.2738912), (-0.52962, 0.8027989, 0.2738912), (-0.501811, 0.7606457, -0.41182983), (-0.501811, 0.7606457, -0.41182983), (-0.501811, 0.7606457, -0.41182983), (-0.501811, 0.7606457, -0.41182983), (-0.5054104, 0.81071746, 0.2954614), (-0.5054104, 0.81071746, 0.2954614), (-0.5054104, 0.81071746, 0.2954614), (-0.5054104, 0.81071746, 0.2954614), (-0.523276, 0.83937615, -0.14707153), (-0.523276, 0.83937615, -0.14707153), (-0.523276, 0.83937615, -0.14707153), (-0.523276, 0.83937615, -0.14707153), (0, 1, 0), (0, 1, 0), (0, 1, 0), (0, 1, 0), (0, 1, 0), (0, 1, 6.2338468e-9), (0, 1, 3.6501713e-9), (0, 1, 0), (0, 1, 6.2338468e-9), (0, 1, 1.9911038e-8), (0, 1, 9.8132205e-9), (0, 1, 3.6501713e-9), (0, 1, 1.9911038e-8), (0, 1, 1.13958345e-8), (0, 1, 6.163049e-9), (0, 1, 9.8132205e-9), (0, 1, 1.13958345e-8), (0, 1, 0), (0, 1, 0), (0, 1, 6.163049e-9), (0, 1, 0), (0, 1, 0), (0, 1, 0), (0, 1, 0), (0, 1, 0), (0, 1, 0), (0, 1, 0), (0, 1, 0), (0, 1, 2.149434e-9), (0, 1, 1.0644585e-9), (0, 1, 5.373585e-10), (0, 1, 1.3344659e-9), (-0.45324442, 0.89136106, -0.0067102797), (-0.45324442, 0.89136106, -0.0067102797), (-0.45324412, 0.89136046, -0.00680571), (-0.45324415, 0.8913605, -0.0068040993), (-0.45324436, -0.89136106, -0.0067102783), (-0.45324436, -0.89136106, -0.0067102783), (-0.4532441, -0.8913605, -0.0068040984), (-0.4532441, -0.8913606, -0.0068057086), (0, -1, 2.149434e-9), (0, -1, 1.3344659e-9), (0, -1, 5.373585e-10), (0, -1, 1.0644585e-9), (0, -1, 1.3344659e-9), (0, -1, 0), (0, -1, 0), (0, -1, 5.373585e-10), (0, 1, 0), (0, 1, 1.3344659e-9), (0, 1, 5.373585e-10), (0, 1, 0), (0, 1, 2.6191207e-9), (0, 1, 1.6260687e-9), (0, 1, -1.611163e-11), (0, 1, -3.261528e-11), (0.45322844, 0.89132965, 0.010736038), (0.45322844, 0.89132965, 0.010736038), (0.45322844, 0.89132965, 0.010736038), (0.45322844, 0.89132965, 0.010736038), (0.45322847, -0.89132977, 0.010736037), (0.45322847, -0.89132977, 0.010736037), (0.45322847, -0.89132977, 0.010736037), (0.45322847, -0.89132977, 0.010736037), (0, -1, 2.6191207e-9), (0, -1, -3.261528e-11), (0, -1, -1.611163e-11), (0, -1, 1.6260687e-9), (0, -1, 1.6260687e-9), (0, -1, -1.611163e-11), (0, -1, 0), (0, -1, 0), (0, 1, 0), (0, 1, 0), (0, 1, -1.611163e-11), (0, 1, 1.6260687e-9), (-0.6574581, 0, 0.75349116), (-0.6574581, 0, 0.75349116), (-0.6574579, 0, 0.7534913), (-0.6574579, 0, 0.7534913), (0.65745795, 0, 0.75349116), (0.65745795, 0, 0.75349116), (0.6574581, 0, 0.75349116), (0.6574581, 0, 0.75349116), (0.25236312, 0.96762955, 0.0024270748), (0.25236312, 0.96762955, 0.0024270748), (0.25236312, 0.96762955, 0.0024270748), (0.25236312, 0.96762955, 0.0024270748), (0.9204334, -0.38125604, -0.08629101), (0.9204334, -0.38125604, -0.08629101), (0.9204334, -0.38125604, -0.08629101), (0.9204334, -0.38125604, -0.08629101), (-0.25236312, -0.96762955, 0.0024270748), (-0.25236312, -0.96762955, 0.0024270748), (-0.25236312, -0.96762955, 0.0024270748), (-0.25236312, -0.96762955, 0.0024270748), (-0.9204335, 0.38125584, -0.086290985), (-0.9204335, 0.38125584, -0.086290985), (-0.9204335, 0.38125584, -0.086290985), (-0.9204335, 0.38125584, -0.086290985), (-0.25236318, 0.96762955, 0.0024270571), (-0.25236318, 0.96762955, 0.0024270571), (-0.25236318, 0.96762955, 0.0024270571), (-0.25236318, 0.96762955, 0.0024270571), (0.9204335, 0.38125584, -0.08629098), (0.9204335, 0.38125584, -0.08629098), (0.9204335, 0.38125584, -0.08629098), (0.9204335, 0.38125584, -0.08629098), (-0.9148729, -0.37912333, -0.13882758), (-0.9148729, -0.37912333, -0.13882758), (-0.9148729, -0.37912333, -0.13882758), (-0.9148729, -0.37912333, -0.13882758), (-0.6957928, 0.28370503, 0.65983635), (-0.6957928, 0.28370503, 0.65983635), (-0.6957928, 0.28370503, 0.65983635), (-0.6957928, 0.28370503, 0.65983635), (-0.9148723, 0.37912458, -0.13882832), (-0.9148723, 0.37912458, -0.13882832), (-0.9148723, 0.37912458, -0.13882832), (-0.9148723, 0.37912458, -0.13882832), (0.63798666, 0.29413632, -0.7116579), (0.63798666, 0.29413632, -0.7116579), (0.63798666, 0.29413632, -0.7116579), (0.63798666, 0.29413632, -0.7116579), (-0.38141492, -0.9220042, -0.06656414), (-0.38141492, -0.9220042, -0.06656414), (-0.38141492, -0.9220042, -0.06656414), (-0.38141492, -0.9220042, -0.06656414), (-0.76162785, 0.32716623, -0.5593614), (-0.76162785, 0.32716623, -0.5593614), (-0.76162785, 0.32716623, -0.5593614), (-0.76162785, 0.32716623, -0.5593614), (-0.3814156, 0.9220039, -0.066564895), (-0.3814156, 0.9220039, -0.066564895), (-0.3814156, 0.9220039, -0.066564895), (-0.3814156, 0.9220039, -0.066564895), (0.7834177, -0.30720678, 0.54025996), (0.7834177, -0.30720678, 0.54025996), (0.7834177, -0.30720678, 0.54025996), (0.7834177, -0.30720678, 0.54025996), (0.92419773, -0.37930363, 0.04457892), (0.92419773, -0.37930363, 0.04457892), (0.92419773, -0.37930363, 0.04457892), (0.92419773, -0.37930363, 0.04457892), (-0.6957934, -0.28370485, 0.65983564), (-0.6957934, -0.28370485, 0.65983564), (-0.6957934, -0.28370485, 0.65983564), (-0.6957934, -0.28370485, 0.65983564), (0.92419773, 0.37930357, 0.044578917), (0.92419773, 0.37930357, 0.044578917), (0.92419773, 0.37930357, 0.044578917), (0.92419773, 0.37930357, 0.044578917), (0.6379855, -0.2941367, -0.7116587), (0.6379855, -0.2941367, -0.7116587), (0.6379855, -0.2941367, -0.7116587), (0.6379855, -0.2941367, -0.7116587), (0.37777928, -0.9256836, 0.019816041), (0.37777928, -0.9256836, 0.019816041), (0.37777928, -0.9256836, 0.019816041), (0.37777928, -0.9256836, 0.019816041), (0.082041815, 0.7121276, 0.6972399), (0.082041815, 0.7121276, 0.6972399), (0.082041815, 0.7121276, 0.6972399), (0.082041815, 0.7121276, 0.6972399), (0.37777954, 0.9256835, 0.019815955), (0.37777954, 0.9256835, 0.019815955), (0.37777954, 0.9256835, 0.019815955), (0.37777954, 0.9256835, 0.019815955), (-0.761628, -0.32716626, -0.55936134), (-0.761628, -0.32716626, -0.55936134), (-0.761628, -0.32716626, -0.55936134), (-0.761628, -0.32716626, -0.55936134), (-0.9169597, -0.39877552, 0.012765772), (-0.9169597, -0.39877552, 0.012765772), (-0.9169597, -0.39877552, 0.012765772), (-0.9169597, -0.39877552, 0.012765772), (-0.9169597, 0.39877552, 0.012765833), (-0.9169597, 0.39877552, 0.012765833), (-0.9169597, 0.39877552, 0.012765833), (-0.9169597, 0.39877552, 0.012765833), (-0.37308285, -0.927622, 0.018075544), (-0.37308285, -0.927622, 0.018075544), (-0.37308285, -0.927622, 0.018075544), (-0.37308285, -0.927622, 0.018075544), (-0.3645197, 0.930896, 0.023624042), (-0.3645197, 0.930896, 0.023624042), (-0.3645197, 0.930896, 0.023624042), (-0.3645197, 0.930896, 0.023624042), (0.918175, -0.39589995, -0.014763553), (0.918175, -0.39589995, -0.014763553), (0.918175, -0.39589995, -0.014763553), (0.918175, -0.39589995, -0.014763553), (0.91817486, 0.39590025, -0.014763486), (0.91817486, 0.39590025, -0.014763486), (0.91817486, 0.39590025, -0.014763486), (0.91817486, 0.39590025, -0.014763486), (0.3914755, -0.91999435, -0.018900495), (0.3914755, -0.91999435, -0.018900495), (0.3914755, -0.91999435, -0.018900495), (0.3914755, -0.91999435, -0.018900495), (0.40299314, 0.91483027, -0.026119007), (0.40299314, 0.91483027, -0.026119007), (0.40299314, 0.91483027, -0.026119007), (0.40299314, 0.91483027, -0.026119007), (0.7834183, 0.30720633, 0.5402592), (0.7834183, 0.30720633, 0.5402592), (0.7834183, 0.30720633, 0.5402592), (0.7834183, 0.30720633, 0.5402592), (-0.2852913, -0.77042055, -0.5701412), (-0.2852913, -0.77042055, -0.5701412), (-0.2852913, -0.77042055, -0.5701412), (-0.2852913, -0.77042055, -0.5701412), (0.4521447, -0.6400863, -0.6211721), (0.4521447, -0.6400863, -0.6211721), (0.4521447, -0.6400863, -0.6211721), (0.4521447, -0.6400863, -0.6211721), (-0.279473, -0.6867816, 0.6709887), (-0.279473, -0.6867816, 0.6709887), (-0.279473, -0.6867816, 0.6709887), (-0.279473, -0.6867816, 0.6709887), (0.09430462, -0.75877225, 0.6444929), (0.09430462, -0.75877225, 0.6444929), (0.09430462, -0.75877225, 0.6444929), (0.09430462, -0.75877225, 0.6444929), (-0.28529167, 0.7704201, -0.5701416), (-0.28529167, 0.7704201, -0.5701416), (-0.28529167, 0.7704201, -0.5701416), (-0.28529167, 0.7704201, -0.5701416), (0.45214507, 0.64008623, -0.6211719), (0.45214507, 0.64008623, -0.6211719), (0.45214507, 0.64008623, -0.6211719), (0.45214507, 0.64008623, -0.6211719), (-0.28047976, 0.65498793, 0.7016565), (-0.28047976, 0.65498793, 0.7016565), (-0.28047976, 0.65498793, 0.7016565), (-0.28047976, 0.65498793, 0.7016565), (-0.9887808, 0, 0.14937413), (-0.9887808, 0, 0.14937413), (-0.98878074, 0, 0.14937411), (-0.98878074, 0, 0.14937413), (0.25236312, -0.96762955, 0.0024270748), (0.25236312, -0.96762955, 0.0024270748), (0.25236312, -0.96762955, 0.0024270748), (0.25236312, -0.96762955, 0.0024270748), (2.3313675e-8, 0, -1), (-0.0000019947163, 0, -1), (-4.3539916e-7, 0, -1), (7.5187666e-7, 0, -1), (7.5187666e-7, 0, -1), (-4.3539916e-7, 0, -1), (0.0000011425296, 0, -1), (7.2893204e-7, 0, -1), (7.2893204e-7, 0, -1), (0.0000011425296, 0, -1), (0, 0, -1), (0.0000011425296, 0, -1), (-4.3539916e-7, 0, -1), (-0.0000010640944, 0, -1), (-0.0000010640944, 0, -1), (-4.3539916e-7, 0, -1), (-0.0000019947163, 0, -1), (0.0000021860023, 0, -1), (-0.0000014761031, 0, -1), (-0.000004265945, 0, -1), (-0.000004265945, 0, -1), (-0.0000014761031, 0, -1), (-0.0000011046126, 0, -1), (-0.0000011046126, 0, -1), (7.2893204e-7, 0, -1), (0, 0, -1), (7.2893204e-7, 0, -1), (-0.0000011046126, 0, -1), (-0.0000014761031, 0, -1), (7.5187666e-7, 0, -1), (7.5187666e-7, 0, -1), (-0.0000014761031, 0, -1), (0.0000021860023, 0, -1), (2.3313675e-8, 0, -1)] (
                interpolation = "faceVarying"
            )
            point3f[] points = [(0.15184177, 0.09063932, -0.6265908), (0.059306182, 0.059306182, -0.543849), (0.1893858, -5.6030727e-9, -0.6265908), (0.08387161, -3.6661445e-9, -0.543849), (0.15184177, -0.09063932, -0.6265908), (0.059306182, -0.059306182, -0.543849), (0.031089557, 0.031089557, -0.818768), (0.043967273, -1.9218704e-9, -0.818768), (0.031089557, -0.031089557, -0.818768), (0.53177345, -0.064918, 0.8204884), (0.53177345, 0.064917974, 0.8204884), (0.53177345, -1.6059689e-8, 0.8204884), (0.06491823, 0.06491798, 0.5060207), (0.09180814, -4.0130477e-9, 0.5060207), (0.06491823, -0.06491798, 0.5060207), (0.05985152, -0.060007658, -0.3174246), (0.059869148, -0.06070913, -0.14834696), (0.06447187, -0.061410606, -0.12671226), (0.05886307, -0.062112078, 0.056555685), (0.050679497, -0.06281355, 0.09213035), (0.06555283, -0.06351503, 0.28889784), (0.06421672, -0.06421651, 0.31197587), (0.05985152, 0.060007658, -0.3174246), (0.059869148, 0.06070913, -0.14834696), (0.06447187, 0.061410606, -0.12671226), (0.05886307, 0.062112078, 0.056555685), (0.050551884, 0.06281356, 0.09149949), (0.06555282, 0.06351503, 0.28889784), (0.06421672, 0.06421651, 0.31197587), (0.09081607, -3.969685e-9, 0.31583774), (0.0918733, -4.971546e-9, 0.2955503), (0.07898863, 3.870004e-9, 0.10085132), (0.084007114, -2.4129478e-9, 0.051106863), (0.08987886, -2.4326963e-9, -0.12794985), (0.08466774, -5.6652247e-9, -0.14417817), (0.08387499, -8.005656e-9, -0.3110455), (0.077250846, -0.07800996, -0.29603094), (0.077829875, -0.07892188, -0.16773018), (0.07725085, 0.07800995, -0.29603094), (0.077829875, 0.07892188, -0.16773018), (0.107287474, -6.119475e-9, -0.17157936), (0.10199335, -1.1117183e-8, -0.27939633), (0.0760912, -0.07983379, -0.10335601), (0.07757884, -0.08074571, 0.026093498), (0.0760912, 0.07983379, -0.10335601), (0.07757884, 0.08074571, 0.026093498), (0.105080955, -1.2454219e-9, 0.0073234565), (0.10912029, -3.2762506e-9, -0.104964815), (0.53177345, 0.064917974, 1.053539), (0.53177345, -1.6059689e-8, 1.053539), (0.53177345, -0.064918, 1.053539), (0.0683586, -0.08165762, 0.120196626), (0.074685015, -0.08256955, 0.25465894), (0.068358585, 0.081657626, 0.120196626), (0.074685015, 0.08256955, 0.25465894), (0.11219944, -5.5335105e-9, 0.25911978), (0.100409694, 3.5251704e-9, 0.13606037), (0.064808615, -0.064808376, 0.4939435), (0.064808615, 0.064808376, 0.4939435), (0.09165313, -6.3754353e-9, 0.4939435), (0.38038486, -0.064918, 0.921445), (0.38038486, -1.3902143e-8, 0.921445), (0.11914901, -7.577317e-9, 0.46676973), (0.118060835, -5.1605906e-9, 0.36905786), (0.08348167, 0.08348147, 0.3523229), (0.5711975, -1.6059689e-8, 0.94700766), (0.5711975, -0.064918, 0.94700766), (0.08348167, -0.08348147, 0.3523229), (0.5711975, 0.064917974, 0.94700766), (0.38038486, 0.064917974, 0.921445), (0.08425113, -0.0842509, 0.46676973), (0.08425113, 0.0842509, 0.46676973), (0.06491823, 0.06491798, 0.7229762), (0.06491823, -0.06491798, 0.7229762), (0.53872484, -0.06491802, 0.7359938), (0.53872484, 0.06491795, 0.7359938), (0.53872484, -3.3856995e-8, 0.7359938), (0.29330873, -1.5577827e-8, 0.5920945), (0.29330873, 0.064917974, 0.5920945), (0.29330873, -0.064918, 0.5920945), (0.35069135, -5.0841793e-9, 0.72488904), (0.35069135, 0.06491798, 0.72488904), (0.35069135, -0.06491798, 0.72488904), (0.07861104, 0.026857961, 0.7229762), (0.20820642, 0.02685796, 2.8539019), (0.07861104, -0.026857961, 0.7229762), (0.2318156, -2.094203e-9, 0.7229762), (0.17899612, 0.026857961, 0.7229762), (0.17899612, -0.026857961, 0.7229762), (0.07861104, -0.026857961, 2.8593748), (0.20820642, -0.026857965, 2.8539019), (0.17899612, -0.026857961, 2.7126231), (0.07861104, 0.026857961, 2.70469), (0.07861104, -0.026857961, 2.70469), (0.2318156, -2.094203e-9, 2.7126231), (0.17899612, 0.026857961, 2.7126231), (0.10212688, -0.02685796, 2.7744524), (0.07861104, -0.026857961, 2.7879817), (0.10212688, 0.026857965, 2.7744524), (0.07861104, 0.026857961, 2.7879817), (0.1438772, 4.4989762e-10, 2.768918), (0.07861104, 0.026857961, 2.8593748), (0.24949554, -5.317784e-9, 2.8467684), (0.17899252, -2.094203e-9, 4.364363), (0.2318156, -2.094203e-9, 4.249385), (0.12697093, -0.026857965, 2.9343815), (0.07861104, 0.026857961, 4.4526143), (0.15790094, 0.026857961, 4.293218), (0.17899612, -0.026857961, 3.074216), (0.15790094, -0.026857961, 4.293218), (0.07861104, -0.026857961, 4.4526143), (0.12697093, 0.02685796, 2.9343815), (0.07861104, -0.026857961, 2.9155643), (0.07861104, 0.026857961, 2.9155643), (0.17536275, -5.570614e-9, 2.9399164), (0.2348954, -0.026857965, 3.0159214), (0.2348954, 0.02685796, 3.0159214), (0.07861104, -0.026857961, 2.99489), (0.07861104, 0.026857961, 2.99489), (0.27166456, -4.938539e-9, 3.0170283), (0.086105004, -2.094203e-9, 4.527744), (0.17899612, 0.026857961, 3.074216), (0.07861104, -0.026857961, 3.074216), (0.07861104, 0.026857961, 3.074216), (0.2318156, -2.094203e-9, 3.074216), (0.07861104, -0.026857961, 3.238878), (0.07861104, -0.026857961, 3.5676744), (0.07861104, -0.026857961, 3.666134), (0.07861104, -0.026857961, 3.764594), (0.07861104, -0.026857961, 3.8630545), (0.07861104, -0.026857961, 3.9615142), (0.17899612, 0.026857961, 3.238878), (0.1558595, 0.026857961, 3.5676744), (0.17899612, 0.026857961, 3.666134), (0.10958604, 0.026857961, 3.764594), (0.17899612, 0.026857961, 3.8630545), (0.17899612, 0.026857961, 3.9615142), (0.17899612, -0.026857961, 3.238878), (0.1558595, -0.026857961, 3.5676744), (0.17899612, -0.026857961, 3.666134), (0.10958604, -0.026857961, 3.764594), (0.17899612, -0.026857961, 3.8630545), (0.17899612, -0.026857961, 3.9615142), (0.07861104, 0.026857961, 3.9615142), (0.07861104, 0.026857961, 3.8630545), (0.07861104, 0.026857961, 3.764594), (0.07861104, 0.026857961, 3.666134), (0.07861104, 0.026857961, 3.5676744), (0.07861104, 0.026857961, 3.238878), (0.2318156, -2.094203e-9, 3.9615142), (0.2318156, -2.094203e-9, 3.8630545), (0.16240552, -2.094203e-9, 3.764594), (0.2318156, -2.094203e-9, 3.666134), (0.208679, -2.094203e-9, 3.5676744), (0.2318156, -2.094203e-9, 3.238878), (0, 0.12818335, -0.6265908), (0, 0.08387161, -0.543849), (-0.15184177, 0.09063932, -0.6265908), (-0.059306182, 0.059306182, -0.543849), (-0.1893858, -5.6030727e-9, -0.6265908), (-0.08387161, -3.6661445e-9, -0.543849), (-0.15184177, -0.09063932, -0.6265908), (-0.059306182, -0.059306182, -0.543849), (0, -0.12818335, -0.6265908), (0, -0.08387161, -0.543849), (0, 0.043967273, -0.818768), (-0.031089557, 0.031089557, -0.818768), (-0.043967273, -1.9218704e-9, -0.818768), (-0.031089557, -0.031089557, -0.818768), (0, -0.043967273, -0.818768), (-0.53177345, -0.064918, 0.8204884), (-0.53177345, 0.064917974, 0.8204884), (-0.53177345, -1.6059689e-8, 0.8204884), (0, 0.090815865, 0.29974645), (-0.06491823, 0.06491798, 0.5060207), (0, 0.0918079, 0.5060207), (-0.09180814, -4.0130477e-9, 0.5060207), (-0.06491823, -0.06491798, 0.5060207), (0, -0.0918079, 0.5060207), (0, 0.08982383, 0.2748062), (-0.0016851656, 0.0888318, 0.09286934), (-0.0057966975, 0.087839745, 0.06913559), (0.002010248, 0.086847715, -0.13533834), (8.542423e-9, 0.08585568, -0.15841138), (0.0018537265, 0.08486364, -0.3328252), (-0.056144077, -0.060007658, -0.3482258), (-0.059869148, -0.06070913, -0.16847573), (-0.060012113, -0.06141061, -0.1207754), (-0.06617376, -0.062112086, 0.06862384), (-0.06281371, -0.06281355, 0.09097134), (-0.06351521, -0.06351503, 0.25485307), (-0.06614768, -0.06421651, 0.27850595), (0, -0.090815865, 0.29974645), (0, -0.08982383, 0.2748062), (-0.0016851656, -0.088831775, 0.09286934), (-0.005796688, -0.087839745, 0.06913559), (0.0020102472, -0.086847715, -0.13533834), (4.7177156e-9, -0.08585568, -0.15841138), (0.0018537205, -0.08486364, -0.3328252), (-0.056144077, 0.060007658, -0.3482258), (-0.059869148, 0.06070913, -0.16847573), (-0.060012113, 0.061410602, -0.1207754), (-0.06617377, 0.062112074, 0.06862384), (-0.06281371, 0.06281355, 0.09161499), (-0.06351521, 0.06351503, 0.25485307), (-0.06421672, 0.06421651, 0.27850595), (-0.09081607, -3.969685e-9, 0.27271312), (-0.089824006, -3.926322e-9, 0.25485298), (-0.08883193, -3.882959e-9, 0.088191986), (-0.09129269, -7.387752e-9, 0.06774231), (-0.08450208, -6.686676e-9, -0.11389883), (-0.08466772, -1.8405152e-9, -0.17264454), (-0.08016754, -2.1530564e-9, -0.354605), (9.116129e-9, 0.11161239, -0.18081392), (0.0018537273, 0.110322736, -0.31605172), (-0.073543414, -0.07800995, -0.31996), (-0.077829875, -0.07892188, -0.19389759), (4.144009e-9, -0.11161239, -0.18081392), (0.0018537196, -0.110322736, -0.31605172), (-0.0735434, 0.07800996, -0.31996), (-0.077829875, 0.07892188, -0.19389759), (-0.10450687, -5.2469457e-10, -0.21321994), (-0.10013961, -5.003185e-9, -0.3249013), (-0.005291862, 0.11419168, 0.04261977), (0.0015308752, 0.112902045, -0.11015992), (-0.07822868, -0.0798338, -0.090616524), (-0.083861664, -0.08074571, 0.0461374), (-0.0052918526, -0.11419168, 0.04261977), (0.0015308746, -0.112902045, -0.11015992), (-0.07822868, 0.07983379, -0.090616524), (-0.083861664, 0.080745704, 0.0461374), (-0.11461891, -6.819692e-9, 0.034865584), (-0.104137644, -1.0550967e-8, -0.06843132), (0, 0.116770975, 0.24295984), (0.0010181431, 0.11548134, 0.106234156), (-0.53177345, 0.064917974, 1.053539), (-0.53177345, -1.6059689e-8, 1.053539), (-0.53177345, -0.064918, 1.053539), (-0.08165776, -0.081657626, 0.115142934), (-0.082569726, -0.08256955, 0.22300673), (0, -0.116770975, 0.24295984), (0.0010181532, -0.11548132, 0.106234156), (-0.08165776, 0.081657626, 0.11363912), (-0.082569726, 0.08256955, 0.22300673), (-0.116771154, -5.1042184e-9, 0.21142088), (-0.11935013, -8.423304e-9, 0.113649994), (0, 0.0916529, 0.47631037), (-0.07488467, -0.06480838, 0.48717636), (-0.07488467, 0.064808376, 0.48653272), (0, -0.0916529, 0.47631037), (-0.10172919, -1.1019448e-8, 0.48228934), (0, 0.119148776, 0.44913658), (0, 0.11806063, 0.3400935), (-0.38038486, -0.064918, 0.921445), (-0.38038486, -1.3902143e-8, 0.921445), (0, -0.119148776, 0.44913658), (0, -0.11806063, 0.3400935), (-0.12922506, -1.2221329e-8, 0.4284636), (-0.118060835, -5.1605906e-9, 0.31306016), (-0.08348167, 0.08348147, 0.31306016), (-0.5711975, -1.6059689e-8, 0.94700766), (-0.5711975, -0.064918, 0.94700766), (-0.08348167, -0.08348147, 0.31306016), (-0.5711975, 0.064917974, 0.94700766), (-0.38038486, 0.064917974, 0.921445), (-0.09432719, -0.084250905, 0.44906044), (-0.09432719, 0.08425088, 0.44906044), (-0.06491823, 0.06491798, 0.7229762), (0, 0.0918079, 0.77809584), (-0.06491823, -0.06491798, 0.7229762), (0, -0.0918079, 0.77809584), (-0.53177345, -0.06491802, 0.73831105), (-0.53177345, 0.06491795, 0.73831105), (-0.53177345, -3.4168327e-8, 0.73831105), (-0.29330873, -1.5577827e-8, 0.5920945), (-0.29330873, 0.064917974, 0.5920945), (-0.29330873, -0.064918, 0.5920945), (-0.35069135, -5.0841793e-9, 0.72488904), (-0.35069135, 0.06491798, 0.72488904), (-0.35069135, -0.06491798, 0.72488904), (0, -0.026857961, 0.77809584), (-0.07861104, 0.026857961, 0.7229762), (0, 0.026857961, 0.77809584), (-0.15508679, 0.026857961, 2.8593748), (-0.07861104, -0.026857961, 0.7229762), (-0.2318156, -2.094203e-9, 0.7229762), (-0.17899612, 0.026857961, 0.7229762), (-0.17899612, -0.026857961, 0.7229762), (-0.07861104, -0.026857961, 2.8593748), (0, 0.026857961, 2.8593748), (-0.15508679, -0.026857961, 2.8593748), (-0.20874336, -0.026857961, 2.70469), (-0.07861104, 0.026857961, 2.70469), (0, 0.026857961, 2.70469), (0, -0.026857961, 2.70469), (-0.07861104, -0.026857961, 2.70469), (-0.26156285, -2.094203e-9, 2.70469), (-0.20874336, 0.026857961, 2.70469), (-0.17899612, -0.026857961, 2.7879817), (0, 0.026857961, 2.7879817), (-0.07861104, -0.026857961, 2.7879817), (-0.17899612, 0.026857961, 2.7879817), (-0.07861104, 0.026857961, 2.7879817), (0, -0.026857961, 2.7879817), (-0.2318156, -2.094203e-9, 2.7879817), (-0.07861104, 0.026857961, 2.8593748), (0, -0.026857961, 2.8593748), (-0.20790628, -2.094203e-9, 2.8593748), (0, -0.0004490671, 4.6340075), (0, -0.026857961, 4.5336404), (0, 0.026857961, 4.5336404), (-0.17899252, -2.094203e-9, 4.364363), (-0.2318156, -2.094203e-9, 4.249385), (-0.17899612, -0.026857961, 2.9155643), (-0.07861104, 0.026857961, 4.4526143), (-0.15790094, 0.026857961, 4.293218), (-0.17899612, -0.026857961, 3.074216), (-0.15790094, -0.026857961, 4.293218), (-0.07861104, -0.026857961, 4.4526143), (-0.17899612, 0.026857961, 2.9155643), (-0.07861104, -0.026857961, 2.9155643), (0, 0.026857961, 2.9155643), (-0.07861104, 0.026857961, 2.9155643), (0, -0.026857961, 2.9155643), (-0.2318156, -2.094203e-9, 2.9155643), (-0.17899612, -0.026857961, 2.99489), (-0.17899612, 0.026857961, 2.99489), (-0.07861104, -0.026857961, 2.99489), (0, 0.026857961, 2.99489), (-0.07861104, 0.026857961, 2.99489), (0, -0.026857961, 2.99489), (-0.2318156, -2.094203e-9, 2.99489), (-0.086105004, -2.094203e-9, 4.527744), (-0.17899612, 0.026857961, 3.074216), (-0.07861104, -0.026857961, 3.074216), (0, 0.026857961, 3.074216), (-0.07861104, 0.026857961, 3.074216), (0, -0.026857961, 3.074216), (-0.2318156, -2.094203e-9, 3.074216), (0, 0.026857961, 3.238878), (0, 0.026857961, 3.5676744), (0, 0.026857961, 3.666134), (0, 0.026857961, 3.764594), (0, 0.026857961, 3.8630545), (0, 0.026857961, 3.9615142), (-0.07861104, -0.026857961, 3.238878), (-0.07861104, -0.026857961, 3.5676744), (-0.07861104, -0.026857961, 3.666134), (-0.07861104, -0.026857961, 3.764594), (-0.07861104, -0.026857961, 3.8630545), (-0.07861104, -0.026857961, 3.9615142), (-0.19001368, 0.026857961, 3.238878), (-0.17899612, 0.026857961, 3.5676744), (-0.14018616, 0.026857961, 3.666134), (-0.20888284, 0.026857961, 3.764594), (-0.16106029, 0.026857961, 3.8630545), (-0.17899612, 0.026857961, 3.9615142), (-0.19001368, -0.026857961, 3.238878), (-0.17899612, -0.026857961, 3.5676744), (-0.14018616, -0.026857961, 3.666134), (-0.20888284, -0.026857961, 3.764594), (-0.16106029, -0.026857961, 3.8630545), (-0.17899612, -0.026857961, 3.9615142), (-0.07861104, 0.026857961, 3.9615142), (-0.07861104, 0.026857961, 3.8630545), (-0.07861104, 0.026857961, 3.764594), (-0.07861104, 0.026857961, 3.666134), (-0.07861104, 0.026857961, 3.5676744), (-0.07861104, 0.026857961, 3.238878), (0, -0.026857961, 3.9615142), (0, -0.026857961, 3.8630545), (0, -0.026857961, 3.764594), (0, -0.026857961, 3.666134), (0, -0.026857961, 3.5676744), (0, -0.026857961, 3.238878), (-0.2318156, -2.094203e-9, 3.9615142), (-0.19440542, -2.094203e-9, 3.8630545), (-0.26170233, -2.094203e-9, 3.764594), (-0.16878934, -2.094203e-9, 3.666134), (-0.2318156, -2.094203e-9, 3.5676744), (-0.24283317, -2.094203e-9, 3.238878), (0.07861104, 0.026857961, 1.727613), (0, -0.026857961, 1.727613), (0.20801786, -2.094203e-9, 1.727613), (0.15519837, -0.026857961, 1.727613), (0, 0.026857961, 1.727613), (0.07861104, -0.026857961, 1.727613), (0.15519837, 0.026857961, 1.727613), (-0.07861104, 0.026857961, 1.727613), (-0.24668925, -2.094203e-9, 1.727613), (-0.19386975, -0.026857961, 1.727613), (-0.07861104, -0.026857961, 1.727613), (-0.19386975, 0.026857961, 1.727613), (-0.13874897, -0.092328414, -0.75878376), (0, 0.13057208, -0.75878376), (0.13874897, 0.092328414, -0.75878376), (0.17699267, -5.7074874e-9, -0.75878376), (0.13874897, -0.092328414, -0.75878376), (0, -0.13057208, -0.75878376), (0.0013342678, 0.084532954, -0.36518204), (-0.0028032488, 0.084202304, -0.52276814), (0.0013342681, -0.084532976, -0.36518204), (-0.002803244, -0.08420228, -0.52276814), (0.086444445, -1.4019993e-8, -0.33928022), (0.081659116, -2.9631855e-9, -0.50265247), (0.057322197, -0.059540007, -0.5000347), (0.061870396, -0.059773844, -0.33907548), (0.057322197, 0.059540007, -0.5000347), (0.061870396, 0.05977382, -0.33907548), (-0.082566775, -1.0633782e-8, -0.364483), (-0.08614647, 5.675728e-10, -0.5289311), (-0.06173581, -0.059540004, -0.52712595), (-0.05799273, -0.059773836, -0.36468768), (-0.06173581, 0.059540015, -0.52712595), (-0.05799273, 0.05977383, -0.36468768), (0.011772664, 0.10096114, -0.3752475), (-0.0025208625, 0.10056623, -0.50131845), (0.007421318, -0.10096116, -0.37959883), (-0.0025208576, -0.10056621, -0.50131845), (0.1051462, -1.27330555e-8, -0.3678397), (0.101635374, -3.4837575e-9, -0.4849176), (0.072659604, -0.071111046, -0.4813293), (0.07285895, -0.07139032, -0.36017472), (0.072659604, 0.071111046, -0.4813293), (0.07285895, 0.0713903, -0.36017472), (-0.10214849, -1.078889e-8, -0.3855491), (-0.102039896, -7.5267084e-11, -0.50707215), (-0.072891444, -0.07111104, -0.5053869), (-0.06923961, -0.071390316, -0.38112476), (-0.072891444, 0.07111105, -0.5053869), (-0.06923961, 0.07139031, -0.38112476), (-0.17699267, -5.7074874e-9, -0.75878376), (-0.13874897, 0.092328414, -0.75878376), (0, -0.031086916, -0.818768), (0, -0.000006596362, -0.818768), (0, 0.03108084, -0.818768), (-0.031089557, 0.0000051991033, -0.818768), (0.031089557, -0.000005111618, -0.818768)]
            uniform token subdivisionScheme = "none"
            uniform token subsetFamily:materialBind:familyType = "nonOverlapping"
            custom string userProperties:blender:data_name = "Cylinder"

            def GeomSubset "Steel" (
                prepend apiSchemas = ["MaterialBindingAPI"]
            )
            {
                uniform token elementType = "face"
                uniform token familyName = "materialBind"
                int[] indices = [107, 108, 109, 111, 112, 113, 114, 117, 118, 119, 120, 122, 125, 127, 128, 129, 130, 133, 135, 137, 139, 140, 142, 144, 145, 146, 152, 153, 154, 155, 156, 157, 158, 159, 160, 161, 162, 163, 164, 165, 166, 167, 168, 169, 170, 183, 184, 185, 186, 187, 188, 189, 297, 298, 299, 301, 302, 303, 304, 307, 308, 309, 310, 312, 315, 317, 318, 319, 320, 323, 325, 327, 329, 330, 332, 334, 335, 336, 342, 343, 344, 345, 346, 347, 348, 349, 350, 351, 352, 353, 354, 355, 356, 357, 358, 359, 360, 373, 374, 375, 376, 377, 378, 379, 380, 383, 384, 385, 386, 389, 390, 391]
                rel material:binding = </root/_materials/Steel>
            }

            def GeomSubset "LightWood" (
                prepend apiSchemas = ["MaterialBindingAPI"]
            )
            {
                uniform token elementType = "face"
                uniform token familyName = "materialBind"
                int[] indices = [11, 14, 19, 20, 21, 22, 23, 25, 27, 31, 33, 36, 38, 41, 43, 44, 45, 46, 47, 48, 49, 50, 51, 52, 53, 54, 55, 56, 57, 58, 59, 60, 61, 64, 65, 67, 68, 69, 70, 71, 73, 74, 75, 78, 79, 81, 85, 88, 201, 204, 209, 210, 211, 212, 213, 215, 217, 221, 223, 226, 228, 231, 233, 234, 235, 236, 237, 238, 239, 240, 241, 242, 243, 244, 245, 246, 247, 248, 249, 250, 251, 254, 255, 257, 258, 259, 260, 261, 263, 264, 265, 268, 269, 271, 275, 278, 401, 403, 405, 407, 409, 411, 413, 415, 416, 417, 418, 419, 420, 421, 422, 423, 424, 425, 426, 427, 428, 429, 430, 431]
                rel material:binding = </root/_materials/LightWood>
            }

            def GeomSubset "DarkWood" (
                prepend apiSchemas = ["MaterialBindingAPI"]
            )
            {
                uniform token elementType = "face"
                uniform token familyName = "materialBind"
                int[] indices = [4, 10, 12, 13, 15, 16, 17, 18, 24, 26, 28, 29, 30, 32, 34, 35, 37, 39, 40, 42, 194, 200, 202, 203, 205, 206, 207, 208, 214, 216, 218, 219, 220, 222, 224, 225, 227, 229, 230, 232, 400, 402, 404, 406, 408, 410, 412, 414]
                rel material:binding = </root/_materials/DarkWood>
            }

            def GeomSubset "LightSteel" (
                prepend apiSchemas = ["MaterialBindingAPI"]
            )
            {
                uniform token elementType = "face"
                uniform token familyName = "materialBind"
                int[] indices = [106, 110, 115, 116, 121, 123, 124, 126, 131, 132, 134, 136, 138, 141, 143, 147, 148, 149, 150, 151, 171, 172, 173, 174, 175, 176, 177, 178, 179, 180, 181, 182, 296, 300, 305, 306, 311, 313, 314, 316, 321, 322, 324, 326, 328, 331, 333, 337, 338, 339, 340, 341, 361, 362, 363, 364, 365, 366, 367, 368, 369, 370, 371, 372, 381, 382, 387, 388]
                rel material:binding = </root/_materials/LightSteel>
            }

            def GeomSubset "DarkSteel" (
                prepend apiSchemas = ["MaterialBindingAPI"]
            )
            {
                uniform token elementType = "face"
                uniform token familyName = "materialBind"
                int[] indices = [0, 1, 2, 3, 5, 6, 7, 8, 9, 62, 63, 66, 72, 76, 77, 80, 82, 83, 84, 86, 87, 89, 90, 91, 92, 93, 94, 95, 96, 97, 98, 99, 100, 101, 102, 103, 104, 105, 190, 191, 192, 193, 195, 196, 197, 198, 199, 252, 253, 256, 262, 266, 267, 270, 272, 273, 274, 276, 277, 279, 280, 281, 282, 283, 284, 285, 286, 287, 288, 289, 290, 291, 292, 293, 294, 295, 392, 393, 394, 395, 396, 397, 398, 399, 432, 433, 434, 435, 436, 437, 438, 439, 440, 441, 442, 443]
                rel material:binding = </root/_materials/DarkSteel>
            }
        }
    }

    def Scope "_materials"
    {
        def Material "Steel"
        {
            token outputs:surface.connect = </root/_materials/Steel/Principled_BSDF.outputs:surface>
            custom string userProperties:blender:data_name = "Steel"

            def Shader "Principled_BSDF"
            {
                uniform token info:id = "UsdPreviewSurface"
                float inputs:clearcoat = 0
                float inputs:clearcoatRoughness = 0.03
                color3f inputs:diffuseColor = (0.37626213, 0.40197787, 0.43965715)
                float inputs:ior = 1.5
                float inputs:metallic = 0
                float inputs:opacity = 1
                float inputs:roughness = 0.6900348
                float inputs:specular = 0.5
                token outputs:surface
            }
        }

        def Material "LightWood"
        {
            token outputs:surface.connect = </root/_materials/LightWood/Principled_BSDF.outputs:surface>
            custom string userProperties:blender:data_name = "LightWood"

            def Shader "Principled_BSDF"
            {
                uniform token info:id = "UsdPreviewSurface"
                float inputs:clearcoat = 0
                float inputs:clearcoatRoughness = 0.03
                color3f inputs:diffuseColor = (0.23839758, 0.1046165, 0.05126946)
                float inputs:ior = 1.5
                float inputs:metallic = 0
                float inputs:opacity = 1
                float inputs:roughness = 0.6900348
                float inputs:specular = 0.5
                token outputs:surface
            }
        }

        def Material "DarkWood"
        {
            token outputs:surface.connect = </root/_materials/DarkWood/Principled_BSDF.outputs:surface>
            custom string userProperties:blender:data_name = "DarkWood"

            def Shader "Principled_BSDF"
            {
                uniform token info:id = "UsdPreviewSurface"
                float inputs:clearcoat = 0
                float inputs:clearcoatRoughness = 0.03
                color3f inputs:diffuseColor = (0.16263776, 0.072640516, 0.0363446)
                float inputs:ior = 1.5
                float inputs:metallic = 0
                float inputs:opacity = 1
                float inputs:roughness = 0.6900348
                float inputs:specular = 0.5
                token outputs:surface
            }
        }

        def Material "LightSteel"
        {
            token outputs:surface.connect = </root/_materials/LightSteel/Principled_BSDF.outputs:surface>
            custom string userProperties:blender:data_name = "LightSteel"

            def Shader "Principled_BSDF"
            {
                uniform token info:id = "UsdPreviewSurface"
                float inputs:clearcoat = 0
                float inputs:clearcoatRoughness = 0.03
                color3f inputs:diffuseColor = (0.46207702, 0.49102083, 0.5394797)
                float inputs:ior = 1.5
                float inputs:metallic = 0
                float inputs:opacity = 1
                float inputs:roughness = 0.6900348
                float inputs:specular = 0.5
                token outputs:surface
            }
        }

        def Material "DarkSteel"
        {
            token outputs:surface.connect = </root/_materials/DarkSteel/Principled_BSDF.outputs:surface>
            custom string userProperties:blender:data_name = "DarkSteel"

            def Shader "Principled_BSDF"
            {
                uniform token info:id = "UsdPreviewSurface"
                float inputs:clearcoat = 0
                float inputs:clearcoatRoughness = 0.03
                color3f inputs:diffuseColor = (0.26635563, 0.26635563, 0.22322801)
                float inputs:ior = 1.5
                float inputs:metallic = 0
                float inputs:opacity = 1
                float inputs:roughness = 0.6900348
                float inputs:specular = 0.5
                token outputs:surface
            }
        }
    }
}

