#usda 1.0
(
    defaultPrim = "root"
    doc = "Blender v5.1.2"
    metersPerUnit = 1
    upAxis = "Y"
)

def Xform "root" (
    customData = {
        dictionary Blender = {
            bool generated = 1
        }
    }
)
{
    float3 xformOp:rotateXYZ = (-90, -0, 0)
    uniform token[] xformOpOrder = ["xformOp:rotateXYZ"]

    def Xform "Parking"
    {
        custom string userProperties:blender:object_name = "Parking"

        def Mesh "Cylinder_002" (
            active = true
            prepend apiSchemas = ["MaterialBindingAPI"]
        )
        {
            uniform bool doubleSided = 1
            float3[] extent = [(-0.007605005, -0.06950149, 0.000039218627), (0.01928015, 0.06989335, 0.53887504)]
            int[] faceVertexCounts = [3, 3, 3, 3, 3, 3, 3, 3, 3, 3, 3, 3, 3, 3, 3, 3, 3, 3, 3, 3, 3, 3, 3, 3, 3, 3, 4, 4, 4, 4, 4, 4, 4, 4, 4, 4, 4, 4, 4, 4, 4, 4, 4, 4, 4, 4, 4, 4, 4, 4, 4, 4, 4, 4, 4, 4, 4, 4, 4, 4, 4, 4, 4, 4, 4, 4, 4, 4, 4, 4, 4, 4, 4, 4, 4, 4, 4, 4, 4, 4, 4, 4, 4, 4, 4, 4, 4, 4, 4, 4, 4, 4, 4, 4, 4, 4, 4, 4, 4, 4, 5, 4, 4, 5, 4, 4, 4, 4, 4, 4, 4, 4, 4, 8, 4, 4, 4, 4, 4, 4, 4, 4, 8, 4, 4, 4, 4, 4, 4, 4]
            int[] faceVertexIndices = [0, 7, 9, 9, 7, 6, 9, 6, 5, 9, 5, 10, 0, 9, 8, 11, 10, 5, 11, 5, 4, 12, 11, 4, 0, 8, 2, 2, 8, 12, 2, 12, 4, 2, 4, 3, 0, 2, 1, 18, 14, 24, 14, 15, 24, 14, 13, 15, 14, 20, 13, 18, 17, 14, 25, 13, 20, 25, 21, 13, 23, 21, 25, 18, 16, 17, 16, 23, 17, 16, 21, 23, 16, 22, 21, 18, 19, 16, 11, 12, 23, 25, 5, 6, 15, 13, 0, 1, 19, 18, 2, 3, 22, 16, 8, 9, 14, 17, 3, 4, 21, 22, 9, 10, 20, 14, 12, 8, 17, 23, 4, 5, 13, 21, 1, 2, 16, 19, 7, 0, 18, 24, 10, 11, 25, 20, 6, 7, 24, 15, 75, 76, 29, 28, 28, 29, 31, 30, 30, 31, 33, 32, 32, 33, 35, 34, 34, 35, 37, 36, 67, 68, 39, 38, 38, 39, 41, 40, 40, 41, 43, 42, 44, 45, 27, 26, 42, 43, 45, 44, 27, 45, 55, 46, 45, 43, 54, 55, 43, 41, 53, 54, 41, 39, 52, 53, 69, 37, 51, 71, 37, 35, 50, 51, 35, 33, 49, 50, 77, 27, 46, 79, 33, 31, 48, 49, 31, 29, 47, 48, 38, 40, 63, 62, 67, 38, 62, 73, 34, 36, 61, 60, 32, 34, 60, 59, 75, 28, 57, 81, 30, 32, 59, 58, 28, 30, 58, 57, 44, 26, 56, 65, 42, 44, 65, 64, 40, 42, 64, 63, 36, 66, 72, 61, 66, 67, 73, 72, 39, 68, 70, 52, 68, 69, 71, 70, 36, 37, 69, 66, 66, 69, 68, 67, 26, 74, 80, 56, 74, 75, 81, 80, 29, 76, 78, 47, 76, 77, 79, 78, 26, 27, 77, 74, 74, 77, 76, 75, 70, 71, 78, 79, 72, 73, 80, 81, 71, 51, 61, 72, 78, 71, 72, 81, 81, 57, 47, 78, 48, 47, 57, 58, 49, 48, 58, 59, 50, 49, 59, 60, 51, 50, 60, 61, 79, 80, 73, 70, 73, 62, 52, 70, 53, 52, 62, 63, 54, 53, 63, 64, 55, 54, 64, 65, 46, 55, 65, 56, 79, 46, 56, 80, 82, 83, 85, 84, 84, 85, 87, 86, 86, 87, 89, 88, 85, 83, 91, 89, 87, 90, 91, 83, 82, 88, 89, 91, 90, 82, 84, 86, 88, 90, 92, 97, 104, 101, 100, 101, 114, 115, 102, 107, 98, 95, 103, 94, 93, 100, 99, 106, 105, 96, 98, 107, 106, 99, 104, 97, 96, 105, 102, 95, 94, 103, 92, 101, 100, 93, 94, 95, 98, 99, 96, 97, 92, 93, 115, 114, 122, 123, 105, 106, 109, 110, 103, 100, 115, 112, 102, 103, 112, 113, 104, 105, 110, 111, 106, 107, 108, 109, 107, 102, 113, 108, 101, 104, 111, 114, 117, 116, 121, 120, 123, 122, 119, 118, 111, 110, 118, 119, 108, 113, 121, 116, 114, 111, 119, 122, 113, 112, 120, 121, 109, 108, 116, 117, 110, 109, 117, 118, 112, 115, 123, 120]
            rel material:binding = </root/_materials/Pole_002>
            normal3f[] normals = [(-1, -4.104077e-8, 2.5507408e-8), (-1, -7.776298e-8, 7.06827e-8), (-1, -5.6799898e-8, 6.175378e-8), (-1, -5.6799898e-8, 6.175378e-8), (-1, -7.776298e-8, 7.06827e-8), (-1, -2.5630862e-9, 1.5436788e-8), (-1, -5.6799898e-8, 6.175378e-8), (-1, -2.5630862e-9, 1.5436788e-8), (-1, -2.4301254e-8, 2.8111945e-8), (-1, -5.6799898e-8, 6.175378e-8), (-1, -2.4301254e-8, 2.8111945e-8), (-1, 3.777909e-9, 0), (-1, -4.104077e-8, 2.5507408e-8), (-1, -5.6799898e-8, 6.175378e-8), (-1, 3.4664993e-8, 1.02167206e-7), (-1, -2.8768872e-8, 1.0308317e-7), (-1, 3.777909e-9, 0), (-1, -2.4301254e-8, 2.8111945e-8), (-1, -2.8768872e-8, 1.0308317e-7), (-1, -2.4301254e-8, 2.8111945e-8), (-1, 2.7590397e-9, 1.0018458e-7), (-1, 3.315015e-8, 1.1279413e-7), (-1, -2.8768872e-8, 1.0308317e-7), (-1, 2.7590397e-9, 1.0018458e-7), (-1, -4.104077e-8, 2.5507408e-8), (-1, 3.4664993e-8, 1.02167206e-7), (-1, -3.499911e-7, 2.0308174e-7), (-1, -3.499911e-7, 2.0308174e-7), (-1, 3.4664993e-8, 1.02167206e-7), (-1, 3.315015e-8, 1.1279413e-7), (-1, -3.499911e-7, 2.0308174e-7), (-1, 3.315015e-8, 1.1279413e-7), (-1, 2.7590397e-9, 1.0018458e-7), (-1, -3.499911e-7, 2.0308174e-7), (-1, 2.7590397e-9, 1.0018458e-7), (-1, -5.115437e-8, 0), (-1, -4.104077e-8, 2.5507408e-8), (-1, -3.499911e-7, 2.0308174e-7), (-1, 0, 0), (1, 7.107038e-8, -3.4009876e-8), (1, 8.7097966e-8, -8.233838e-8), (1, 9.578406e-8, -9.424361e-8), (1, 8.7097966e-8, -8.233838e-8), (1, -4.27181e-9, -2.058238e-8), (1, 9.578406e-8, -9.424361e-8), (1, 8.7097966e-8, -8.233838e-8), (1, 0, -3.748259e-8), (1, -4.27181e-9, -2.058238e-8), (1, 8.7097966e-8, -8.233838e-8), (1, 0, 0), (1, 0, -3.748259e-8), (1, 7.107038e-8, -3.4009876e-8), (1, 1.9845542e-7, -1.3622292e-7), (1, 8.7097966e-8, -8.233838e-8), (1, -8.2873825e-8, -1.3744425e-7), (1, 0, -3.748259e-8), (1, 0, 0), (1, -8.2873825e-8, -1.3744425e-7), (1, -8.713416e-8, -1.3357948e-7), (1, 0, -3.748259e-8), (1, -5.542948e-8, -1.5039221e-7), (1, -8.713416e-8, -1.3357948e-7), (1, -8.2873825e-8, -1.3744425e-7), (1, 7.107038e-8, -3.4009876e-8), (1, 2.9308165e-7, -2.7077556e-7), (1, 1.9845542e-7, -1.3622292e-7), (1, 2.9308165e-7, -2.7077556e-7), (1, -5.542948e-8, -1.5039221e-7), (1, 1.9845542e-7, -1.3622292e-7), (1, 2.9308165e-7, -2.7077556e-7), (1, -8.713416e-8, -1.3357948e-7), (1, -5.542948e-8, -1.5039221e-7), (1, 2.9308165e-7, -2.7077556e-7), (1, 0, 0), (1, -8.713416e-8, -1.3357948e-7), (1, 7.107038e-8, -3.4009876e-8), (1, 0, 0), (1, 2.9308165e-7, -2.7077556e-7), (0, -0.96618176, 0.257862), (0, -0.96618176, 0.257862), (0, -0.96618176, 0.257862), (0, -0.96618176, 0.257862), (0, 0.6896549, 0.72413826), (0, 0.6896549, 0.72413826), (0, 0.6896549, 0.72413826), (0, 0.6896549, 0.72413826), (0, 0, -1), (0, 0, -1), (0, 0, -1), (0, 0, -1), (0, 0.013162809, -0.9999134), (0, 0.013162809, -0.9999134), (0, 0.013162809, -0.9999134), (0, 0.013162809, -0.9999134), (0, 1, 0), (0, 1, 0), (0, 1, 0), (0, 1, 0), (0, 0.51979953, -0.85428816), (0, 0.51979953, -0.85428816), (0, 0.51979953, -0.85428816), (0, 0.51979953, -0.85428816), (0, -0.026760403, -0.9996419), (0, -0.026760403, -0.9996419), (0, -0.026760403, -0.9996419), (0, -0.026760403, -0.9996419), (0, -0.026761882, 0.9996418), (0, -0.026761882, 0.9996418), (0, -0.026761882, 0.9996418), (0, -0.026761882, 0.9996418), (0, 0.9997225, -0.023557298), (0, 0.9997225, -0.023557298), (0, 0.9997225, -0.023557298), (0, 0.9997225, -0.023557298), (0, 1, 0), (0, 1, 0), (0, 1, 0), (0, 1, 0), (0, -1, 2.0667927e-9), (0, -1, 2.0667927e-9), (0, -1, 2.0667927e-9), (0, -1, 2.0667927e-9), (0, -0.9661811, -0.25786456), (0, -0.9661811, -0.25786456), (0, -0.9661811, -0.25786456), (0, -0.9661811, -0.25786456), (0, 0.019260785, 0.99981445), (0, 0.019260785, 0.99981445), (0, 0.019260785, 0.99981445), (0, 0.019260785, 0.99981445), (8.5826633e-7, 0.59961563, -0.80028814), (8.5826656e-7, 0.59961563, -0.8002882), (0, 0.59961545, -0.8002883), (0, 0.59961545, -0.8002883), (0, 0.955497, -0.29500064), (0, 0.955497, -0.29500064), (0, 0.955497, -0.29500064), (0, 0.955497, -0.29500064), (0, 0.9464104, 0.3229663), (0, 0.9464104, 0.3229663), (0, 0.9464104, 0.3229663), (0, 0.9464104, 0.3229663), (0, 0.5758273, 0.81757134), (0, 0.5758273, 0.81757134), (0, 0.5758273, 0.81757134), (0, 0.5758273, 0.81757134), (0, -0.01470208, 0.9998919), (0, -0.01470208, 0.9998919), (0, -0.01470208, 0.9998919), (0, -0.01470208, 0.9998919), (0, -0.5996173, 0.80028695), (0, -0.59961724, 0.80028695), (0, -0.5996187, 0.8002858), (0, -0.5996187, 0.8002858), (0, -0.95549685, 0.2950014), (0, -0.95549685, 0.2950014), (0, -0.95549685, 0.2950014), (0, -0.95549685, 0.2950014), (0, -0.94641054, -0.32296613), (0, -0.94641054, -0.32296613), (0, -0.94641054, -0.32296613), (0, -0.94641054, -0.32296613), (0, 0.014701263, -0.999892), (0, 0.014701263, -0.999892), (0, 0.014701263, -0.999892), (0, 0.014701263, -0.999892), (0, -0.5758266, -0.81757194), (0, -0.5758266, -0.81757194), (0, -0.5758266, -0.81757194), (0, -0.5758266, -0.81757194), (-1, -8.161803e-9, 8.4370015e-8), (-1, -3.3274805e-8, 6.4705674e-8), (-1, -3.327482e-8, 6.4705695e-8), (-1, -8.161776e-9, 8.4370015e-8), (-1, -3.3274805e-8, 6.4705674e-8), (-1, -1.0045206e-8, 5.682719e-8), (-1, -1.0045208e-8, 5.6827187e-8), (-1, -3.327482e-8, 6.4705695e-8), (-1, -1.0045206e-8, 5.682719e-8), (-1, 0, 7.420812e-8), (-1, 0, 7.4208096e-8), (-1, -1.0045208e-8, 5.6827187e-8), (-1, 0, 7.420812e-8), (-1, 3.0135457e-8, 7.3686586e-8), (-1, 3.0135514e-8, 7.368658e-8), (-1, 0, 7.4208096e-8), (-1, -4.8306784e-8, 4.551812e-8), (-1, -4.8656428e-8, 6.1016166e-8), (-1, -4.865634e-8, 6.1016166e-8), (-1, -4.643047e-8, 4.8516995e-8), (-1, -4.8656428e-8, 6.1016166e-8), (-1, -3.453015e-9, 5.4298216e-8), (-1, -3.4530134e-9, 5.429821e-8), (-1, -4.865634e-8, 6.1016166e-8), (-1, -3.453015e-9, 5.4298216e-8), (-1, -2.009045e-8, 6.359847e-8), (-1, -2.0090392e-8, 6.3598414e-8), (-1, -3.4530134e-9, 5.429821e-8), (-1, 3.013562e-8, 5.9353354e-8), (-1, -8.161803e-9, 8.4370015e-8), (-1, -8.161776e-9, 8.4370015e-8), (-1, 1.7265664e-9, 5.655538e-8), (-1, -2.009045e-8, 6.359847e-8), (-1, -4.018082e-8, 7.447517e-8), (-1, -4.018082e-8, 7.447515e-8), (-1, -2.0090392e-8, 6.3598414e-8), (-1, -4.018082e-8, 7.447517e-8), (-1, -3.515816e-8, 5.0515446e-8), (-1, -3.5158177e-8, 5.0515506e-8), (-1, -4.018082e-8, 7.447515e-8), (1, 8.036181e-8, -9.2989914e-8), (1, 1.6072333e-7, -8.018499e-8), (1, 1.6072333e-7, -8.0185025e-8), (1, 8.036166e-8, -9.2989985e-8), (1, 5.6133217e-8, -1.2673215e-7), (1, 8.036181e-8, -9.2989914e-8), (1, 8.036166e-8, -9.2989985e-8), (1, 5.4240125e-8, -1.2261775e-7), (1, 7.533831e-9, -1.6479085e-8), (1, 7.533824e-9, 0), (1, 7.533829e-9, 0), (1, 7.533828e-9, -1.6479094e-8), (1, -8.03618e-8, -7.0648035e-8), (1, 7.533831e-9, -1.6479085e-8), (1, 7.533828e-9, -1.6479094e-8), (1, -8.0361566e-8, -7.064793e-8), (1, 0, 0), (1, 0, -2.7344408e-8), (1, 0, -2.7344507e-8), (1, 1.1300853e-8, -3.883884e-8), (1, -8.036172e-8, -8.1513356e-8), (1, -8.03618e-8, -7.0648035e-8), (1, -8.0361566e-8, -7.064793e-8), (1, -8.036161e-8, -8.151332e-8), (1, 0, -2.7344408e-8), (1, -8.036172e-8, -8.1513356e-8), (1, -8.036161e-8, -8.151332e-8), (1, 0, -2.7344507e-8), (1, 3.7669437e-8, -1.647903e-8), (1, -3.2646998e-8, 0), (1, -3.2647012e-8, 0), (1, 3.7669402e-8, -1.6479015e-8), (1, 1.205423e-7, -7.0647864e-8), (1, 3.7669437e-8, -1.647903e-8), (1, 3.7669402e-8, -1.6479015e-8), (1, 1.205423e-7, -7.064786e-8), (1, 1.6072333e-7, -8.018499e-8), (1, 1.205423e-7, -7.0647864e-8), (1, 1.205423e-7, -7.064786e-8), (1, 1.6072333e-7, -8.0185025e-8), (1, 7.533824e-9, 0), (1, 5.6133096e-8, -5.5160275e-8), (1, 5.4240246e-8, -8.103404e-8), (1, 7.533829e-9, 0), (1, 5.6133096e-8, -5.5160275e-8), (1, 5.6133217e-8, -1.2673215e-7), (1, 5.4240125e-8, -1.2261775e-7), (1, 5.4240246e-8, -8.103404e-8), (-1, 3.0135457e-8, 7.3686586e-8), (-1, 3.2204387e-8, 4.941255e-8), (-1, 3.4705772e-10, 5.0779768e-8), (-1, 3.0135514e-8, 7.368658e-8), (-1, 3.2204387e-8, 4.941255e-8), (-1, -4.8306784e-8, 4.551812e-8), (-1, -4.643047e-8, 4.8516995e-8), (-1, 3.4705772e-10, 5.0779768e-8), (0, -0.59961575, 0.8002881), (0, -0.59961575, 0.8002881), (0, -0.5996157, 0.800288), (0, -0.5996157, 0.800288), (0, -0.5996157, 0.800288), (0, -0.5996157, 0.800288), (0, -0.59961724, 0.80028695), (0, -0.5996173, 0.80028695), (1, -3.2646998e-8, 0), (1, -3.220469e-8, 0), (1, -7.4103257e-9, -3.8838774e-8), (1, -3.2647012e-8, 0), (1, -3.220469e-8, 0), (1, 0, 0), (1, 1.1300853e-8, -3.883884e-8), (1, -7.4103257e-9, -3.8838774e-8), (-1, -3.515816e-8, 5.0515446e-8), (-1, -2.068956e-9, 3.1601374e-8), (-1, -1.698457e-8, 4.04313e-8), (-1, -3.5158177e-8, 5.0515506e-8), (-1, -2.068956e-9, 3.1601374e-8), (-1, 3.013562e-8, 5.9353354e-8), (-1, 1.7265664e-9, 5.655538e-8), (-1, -1.698457e-8, 4.04313e-8), (9.446918e-7, 0.5996172, -0.80028695), (9.446918e-7, 0.5996172, -0.80028695), (0.0000013306122, 0.5996165, -0.8002875), (0.0000013306125, 0.59961647, -0.8002875), (0.0000013306125, 0.59961647, -0.8002875), (0.0000013306122, 0.5996165, -0.8002875), (8.5826656e-7, 0.59961563, -0.8002882), (8.5826633e-7, 0.59961563, -0.80028814), (-1, 3.4705772e-10, 5.0779768e-8), (-1, -4.643047e-8, 4.8516995e-8), (-1, -1.698457e-8, 4.04313e-8), (-1, 1.7265664e-9, 5.655538e-8), (1, 5.4240246e-8, -8.103404e-8), (1, 5.4240125e-8, -1.2261775e-7), (1, -7.4103257e-9, -3.8838774e-8), (1, 1.1300853e-8, -3.883884e-8), (0, 0.5996153, -0.80028844), (0, 0.5996153, -0.80028844), (0, 0.5996153, -0.80028844), (0, 0.5996153, -0.80028844), (-0.000001618997, 0.8002878, 0.599616), (-0.000001618997, 0.8002878, 0.599616), (-0.000001618997, 0.8002878, 0.599616), (-0.000001618997, 0.8002878, 0.599616), (0.0000018685329, -0.599617, 0.8002871), (0.0000018685329, -0.599617, 0.8002871), (0.0000018685329, -0.599617, 0.8002871), (0.0000018685329, -0.599617, 0.8002871), (0, -0.9554971, 0.29500076), (0, -0.9554971, 0.29500076), (0, -0.9554971, 0.29500076), (0, -0.9554971, 0.29500076), (0, -0.9464106, -0.3229658), (0, -0.9464106, -0.3229658), (0, -0.9464106, -0.3229658), (0, -0.9464106, -0.3229658), (0, -0.5758266, -0.8175719), (0, -0.5758266, -0.8175719), (0, -0.5758266, -0.8175719), (0, -0.5758266, -0.8175719), (0, 0.014701669, -0.99989194), (0, 0.014701669, -0.99989194), (0, 0.014701669, -0.99989194), (0, 0.014701669, -0.99989194), (0, -0.8002877, -0.5996161), (0, -0.8002877, -0.5996161), (0, -0.8002877, -0.5996161), (0, -0.8002877, -0.5996161), (0, 0.5996152, -0.80028844), (0, 0.5996152, -0.80028844), (0, 0.5996152, -0.80028844), (0, 0.5996152, -0.80028844), (0, 0.95549685, -0.2950011), (0, 0.95549685, -0.2950011), (0, 0.95549685, -0.2950011), (0, 0.95549685, -0.2950011), (0, 0.9464106, 0.32296595), (0, 0.9464106, 0.32296595), (0, 0.9464106, 0.32296595), (0, 0.9464106, 0.32296595), (0, 0.57582706, 0.81757146), (0, 0.57582706, 0.81757146), (0, 0.57582706, 0.81757146), (0, 0.57582706, 0.81757146), (0, -0.014702705, 0.9998919), (0, -0.014702705, 0.9998919), (0, -0.014702705, 0.9998919), (0, -0.014702705, 0.9998919), (-0.000001868537, -0.5996153, 0.80028844), (-0.000001868537, -0.5996153, 0.80028844), (-0.000001868537, -0.5996153, 0.80028844), (-0.000001868537, -0.5996153, 0.80028844), (-0.80901706, 0.5877851, 0), (-0.80901706, 0.5877851, 0), (-0.80901706, 0.5877851, 0), (-0.80901706, 0.5877851, 0), (0.309017, 0.95105654, 0), (0.309017, 0.95105654, 0), (0.309017, 0.95105654, 0), (0.309017, 0.95105654, 0), (1, 2.2127993e-7, 0), (1, 2.2127993e-7, 0), (1, 2.2127993e-7, 0), (1, 2.2127993e-7, 0), (0, 0, 1), (0, 0, 1), (0, 0, 1), (0, 0, 1), (0, 0, 1), (-0.8090168, -0.5877853, 0), (-0.8090168, -0.5877853, 0), (-0.8090168, -0.5877853, 0), (-0.8090168, -0.5877853, 0), (0.30901697, -0.95105654, 0), (0.30901697, -0.95105654, 0), (0.30901697, -0.95105654, 0), (0.30901697, -0.95105654, 0), (1.550123e-10, 0, -1), (1.550123e-10, 0, -1), (1.550123e-10, 0, -1), (1.550123e-10, 0, -1), (1.550123e-10, 0, -1), (0, 0, -1), (0, 0, -1), (0, 0, -1), (0, 0, -1), (1, 3.932569e-8, 0), (1, 0, 0), (1, 0, 0), (1, 6.267723e-8, 0), (0, 0, 1), (0, 0, 1), (0, 0, 1), (0, 0, 1), (0, -1, 0), (0, -1, 0), (0, -1, 0), (0, -1, 0), (0, 1, 0), (0, 1, 0), (0, 1, 0), (0, 1, 0), (0, 0.70710856, 0.7071049), (0, 0.70710856, 0.7071049), (0, 0.70710856, 0.7071049), (0, 0.70710856, 0.7071049), (0, 0.7071064, -0.7071071), (0, 0.7071064, -0.7071071), (0, 0.7071064, -0.7071071), (0, 0.7071064, -0.7071071), (0, -0.7071088, 0.7071048), (0, -0.7071088, 0.7071048), (0, -0.7071088, 0.7071048), (0, -0.7071088, 0.7071048), (0, -0.70710653, -0.70710695), (0, -0.70710653, -0.70710695), (0, -0.70710653, -0.70710695), (0, -0.70710653, -0.70710695), (-1, 0, 0), (-1, 0, 0), (-1, 0, 0), (-1, 0, 0), (-1, 0, 0), (-1, 0, 0), (-1, 0, 0), (-1, 0, 0), (0, 0.70710856, 0.7071051), (0, 0.70710856, 0.7071051), (0, 0.70710856, 0.7071051), (0, 0.70710856, 0.7071051), (1, 0, 0), (1, 0, 0), (1, 0, 0), (1, 0, 0), (1, 3.93258e-8, 0), (1, 3.932569e-8, 0), (1, 6.267723e-8, 0), (1, 6.2677074e-8, 0), (1, 0, 0), (1, 3.93258e-8, 0), (1, 6.2677074e-8, 0), (1, 0, 0), (1, 0, 0), (1, 0, 0), (1, 0, 0), (1, 0, 0), (1, 0, 0), (1, 0, 0), (1, 0, 0), (1, 0, 0), (1, 0, 0), (1, 0, 0), (1, 0, 0), (1, 0, 0), (1, 0, 0), (1, 0, 0), (1, 0, 0), (1, 0, 0), (0.99999994, 0, 0), (0.99999994, 0, 0), (0.99999994, 0, 0), (0.99999994, 0, 0), (0.99999994, 0, 0), (0.99999994, 0, 0), (0.99999994, 0, 0), (0.99999994, 0, 0), (0, -0.70710856, 0.7071051), (0, -0.70710856, 0.7071051), (0, -0.70710856, 0.7071051), (0, -0.70710856, 0.7071051), (0, 0, -1), (0, 0, -1), (0, 0, -1), (0, 0, -1), (0, 0, 1), (0, 0, 1), (0, 0, 1), (0, 0, 1), (0, 0.707106, -0.70710754), (0, 0.707106, -0.70710754), (0, 0.707106, -0.70710754), (0, 0.707106, -0.70710754), (0, -0.707106, -0.70710754), (0, -0.707106, -0.70710754), (0, -0.707106, -0.70710754), (0, -0.707106, -0.70710754), (0, -1, 0), (0, -1, 0), (0, -1, 0), (0, -1, 0), (0, 1, 0), (0, 1, 0), (0, 1, 0), (0, 1, 0)] (
                interpolation = "faceVarying"
            )
            point3f[] points = [(0.0069205365, -0.018504089, 0.43128702), (0.0069205365, -0.006402556, 0.43128702), (0.0069205365, -0.006402556, 0.45819378), (0.0069205365, 0.014473186, 0.4584686), (0.0069205365, 0.025918681, 0.4654327), (0.0069205393, 0.026595198, 0.49414274), (0.0069205393, 0.01712375, 0.50316316), (0.0069205407, -0.018504089, 0.5038495), (0.0069205393, -0.006402556, 0.46919516), (0.0069205393, -0.006402556, 0.49284816), (0.0069205393, 0.013172131, 0.49232414), (0.0069205393, 0.016188653, 0.48102167), (0.0069205365, 0.013172165, 0.4697192), (0.0171641, 0.026595198, 0.49414274), (0.0171641, -0.006402556, 0.49284816), (0.0171641, 0.01712375, 0.50316316), (0.017164096, -0.006402556, 0.45819378), (0.0171641, -0.006402556, 0.46919516), (0.017164096, -0.018504089, 0.43128702), (0.017164096, -0.006402556, 0.43128702), (0.0171641, 0.013172131, 0.49232414), (0.017164096, 0.025918681, 0.4654327), (0.017164096, 0.014473186, 0.4584686), (0.017164096, 0.013172165, 0.4697192), (0.017164102, -0.018504089, 0.5038495), (0.0171641, 0.016188653, 0.48102167), (0.019280143, 0.019485092, 0.413776), (0.0063574626, 0.019485092, 0.413776), (0.019280143, 0.04842277, 0.4354576), (0.006357464, 0.04842277, 0.4354576), (0.019280145, 0.05908973, 0.4700075), (0.0063574663, 0.05908973, 0.4700075), (0.019280149, 0.047411565, 0.50422883), (0.006357469, 0.047411565, 0.50422883), (0.01928015, 0.017848924, 0.5250502), (0.006357471, 0.017848924, 0.5250502), (0.01928015, -0.018306253, 0.5245186), (0.0063574715, -0.018306253, 0.5245186), (0.01928015, -0.04724393, 0.502837), (0.0063574705, -0.04724393, 0.502837), (0.019280149, -0.057910893, 0.46828717), (0.0063574677, -0.057910893, 0.46828717), (0.019280145, -0.04623272, 0.4340658), (0.0063574654, -0.04623272, 0.4340658), (0.019280143, -0.01667007, 0.41324443), (0.0063574635, -0.01667007, 0.41324443), (0.006357464, 0.015705958, 0.42485029), (0.0063574645, 0.038856104, 0.44219556), (0.0063574663, 0.047389667, 0.46983546), (0.006357469, 0.03804714, 0.49721256), (0.0063574705, 0.014397027, 0.51386964), (0.0063574705, -0.014527118, 0.51344436), (0.0063574696, -0.03767726, 0.49609908), (0.0063574677, -0.046210825, 0.4684592), (0.0063574654, -0.036868293, 0.4410821), (0.006357464, -0.013218172, 0.42442498), (0.019280143, 0.015705958, 0.42485029), (0.019280143, 0.038856104, 0.44219556), (0.019280145, 0.047389667, 0.46983546), (0.019280149, 0.03804714, 0.49721256), (0.01928015, 0.014397027, 0.51386964), (0.01928015, -0.014527118, 0.51344436), (0.019280149, -0.03767726, 0.49609908), (0.019280149, -0.046210825, 0.4684592), (0.019280145, -0.036868293, 0.4410821), (0.019280143, -0.013218172, 0.42442498), (0.01928015, -0.027952144, 0.5172914), (0.01928015, -0.037598036, 0.51006424), (0.0063574705, -0.037598036, 0.51006424), (0.006357471, -0.027952144, 0.5172914), (0.0063574705, -0.029960543, 0.5018808), (0.0063574705, -0.022243831, 0.50766265), (0.01928015, -0.02224383, 0.5076626), (0.019280149, -0.029960543, 0.5018808), (0.019280143, 0.029130986, 0.42100322), (0.019280143, 0.03877688, 0.4282304), (0.006357464, 0.038776875, 0.4282304), (0.0063574635, 0.029130984, 0.42100322), (0.006357464, 0.031139385, 0.4364138), (0.006357464, 0.023422671, 0.43063203), (0.019280143, 0.023422673, 0.43063203), (0.019280143, 0.031139387, 0.4364138), (-0.007605005, -4.0978665e-10, 0.000039218627), (-0.007605005, -4.0978665e-10, 0.4708104), (-0.0023500763, 0.0072327903, 0.000039218627), (-0.0023500763, 0.0072327903, 0.4708104), (0.0061525768, 0.004470111, 0.000039218627), (0.0061525768, 0.004470111, 0.4708104), (0.0061525786, -0.004470109, 0.000039218627), (0.0061525786, -0.004470109, 0.4708104), (-0.002350075, -0.0072327885, 0.000039218627), (-0.002350075, -0.0072327885, 0.4708104), (0.0038915505, -0.059902396, 0.3994802), (0.0038915505, -0.06950149, 0.40907928), (0.0038915505, -0.06950149, 0.5292759), (0.0038915505, -0.059902396, 0.53887504), (0.0038915505, 0.06989335, 0.40907928), (0.0038915505, 0.060294256, 0.3994802), (0.0038915505, 0.060294256, 0.53887504), (0.0038915505, 0.06989335, 0.5292759), (0.018573603, -0.06950149, 0.40907928), (0.018573603, -0.059902396, 0.3994802), (0.018573603, -0.059902396, 0.53887504), (0.018573603, -0.06950149, 0.5292759), (0.018573603, 0.060294256, 0.3994802), (0.018573603, 0.06989335, 0.40907928), (0.018573603, 0.06989335, 0.5292759), (0.018573603, 0.060294256, 0.53887504), (0.018573603, 0.051973987, 0.5292258), (0.018573603, 0.06024415, 0.5209557), (0.018573603, 0.06024415, 0.41739956), (0.018573603, 0.051973987, 0.40912935), (0.018573603, -0.05985229, 0.5209557), (0.018573603, -0.051582128, 0.5292258), (0.018573603, -0.051582128, 0.40912935), (0.018573603, -0.05985229, 0.41739956), (0.014216265, 0.051973987, 0.5292258), (0.014216265, 0.06024415, 0.5209557), (0.014216265, 0.06024415, 0.41739956), (0.014216265, 0.051973987, 0.40912935), (0.014216265, -0.05985229, 0.5209557), (0.014216265, -0.051582128, 0.5292258), (0.014216265, -0.051582128, 0.40912935), (0.014216265, -0.05985229, 0.41739956)]
            uniform token subdivisionScheme = "none"
            uniform token subsetFamily:materialBind:familyType = "nonOverlapping"
            custom string userProperties:blender:data_name = "Cylinder.002"

            def GeomSubset "Pole_002" (
                prepend apiSchemas = ["MaterialBindingAPI"]
            )
            {
                uniform token elementType = "face"
                uniform token familyName = "materialBind"
                int[] indices = [97, 98, 99, 100, 101, 102, 103, 104, 105, 106, 107, 108, 109, 110, 111, 112, 113, 114, 115, 116, 117, 118, 119, 120, 121, 123, 124, 125, 126, 127, 128, 129]
                rel material:binding = </root/_materials/Pole_002>
            }

            def GeomSubset "White_002" (
                prepend apiSchemas = ["MaterialBindingAPI"]
            )
            {
                uniform token elementType = "face"
                uniform token familyName = "materialBind"
                int[] indices = [122]
                rel material:binding = </root/_materials/White_002>
            }

            def GeomSubset "Red_001" (
                prepend apiSchemas = ["MaterialBindingAPI"]
            )
            {
                uniform token elementType = "face"
                uniform token familyName = "materialBind"
                int[] indices = [39, 40, 41, 42, 43, 44, 45, 46, 47, 48, 49, 50, 51, 52, 53, 54, 55, 56, 57, 58, 59, 60, 61, 62, 63, 64, 65, 66, 67, 68, 69, 70, 71, 72, 73, 74, 75, 76, 77, 78, 79, 80, 81, 82, 83, 84, 85, 86, 87, 88, 89, 90, 91, 92, 93, 94, 95, 96]
                rel material:binding = </root/_materials/Red_001>
            }

            def GeomSubset "Black" (
                prepend apiSchemas = ["MaterialBindingAPI"]
            )
            {
                uniform token elementType = "face"
                uniform token familyName = "materialBind"
                int[] indices = [0, 1, 2, 3, 4, 5, 6, 7, 8, 9, 10, 11, 12, 13, 14, 15, 16, 17, 18, 19, 20, 21, 22, 23, 24, 25, 26, 27, 28, 29, 30, 31, 32, 33, 34, 35, 36, 37, 38]
                rel material:binding = </root/_materials/Black>
            }
        }
    }

    def Scope "_materials"
    {
        def Material "Pole_002"
        {
            token outputs:surface.connect = </root/_materials/Pole_002/Principled_BSDF.outputs:surface>
            custom string userProperties:blender:data_name = "Pole.002"

            def Shader "Principled_BSDF"
            {
                uniform token info:id = "UsdPreviewSurface"
                float inputs:clearcoat = 0
                float inputs:clearcoatRoughness = 0.03
                color3f inputs:diffuseColor = (0.39311457, 0.39311457, 0.39311457)
                float inputs:ior = 1.5
                float inputs:metallic = 0
                float inputs:opacity = 1
                float inputs:roughness = 0.6900348
                float inputs:specular = 0.5
                token outputs:surface
            }
        }

        def Material "White_002"
        {
            token outputs:surface.connect = </root/_materials/White_002/Principled_BSDF.outputs:surface>
            custom string userProperties:blender:data_name = "White.002"

            def Shader "Principled_BSDF"
            {
                uniform token info:id = "UsdPreviewSurface"
                float inputs:clearcoat = 0
                float inputs:clearcoatRoughness = 0.03
                color3f inputs:diffuseColor = (0.8, 0.8, 0.8)
                float inputs:ior = 1.5
                float inputs:metallic = 0
                float inputs:opacity = 1
                float inputs:roughness = 0.6900348
                float inputs:specular = 0.5
                token outputs:surface
            }
        }

        def Material "Red_001"
        {
            token outputs:surface.connect = </root/_materials/Red_001/Principled_BSDF.outputs:surface>
            custom string userProperties:blender:data_name = "Red.001"

            def Shader "Principled_BSDF"
            {
                uniform token info:id = "UsdPreviewSurface"
                float inputs:clearcoat = 0
                float inputs:clearcoatRoughness = 0.03
                color3f inputs:diffuseColor = (0.8000009, 0.04173816, 0.02711656)
                float inputs:ior = 1.5
                float inputs:metallic = 0
                float inputs:opacity = 1
                float inputs:roughness = 0.6900348
                float inputs:specular = 0.5
                token outputs:surface
            }
        }

        def Material "Black"
        {
            token outputs:surface.connect = </root/_materials/Black/Principled_BSDF.outputs:surface>
            custom string userProperties:blender:data_name = "Black"

            def Shader "Principled_BSDF"
            {
                uniform token info:id = "UsdPreviewSurface"
                float inputs:clearcoat = 0
                float inputs:clearcoatRoughness = 0.03
                color3f inputs:diffuseColor = (0.031063542, 0.031063542, 0.031063542)
                float inputs:ior = 1.5
                float inputs:metallic = 0
                float inputs:opacity = 1
                float inputs:roughness = 0.6900348
                float inputs:specular = 0.5
                token outputs:surface
            }
        }
    }
}

