#usda 1.0
(
    defaultPrim = "root"
    doc = "Blender v5.1.2"
    metersPerUnit = 1
    upAxis = "Y"
)

def Xform "root" (
    customData = {
        dictionary Blender = {
            bool generated = 1
        }
    }
)
{
    float3 xformOp:rotateXYZ = (-90, -0, 0)
    uniform token[] xformOpOrder = ["xformOp:rotateXYZ"]

    def Xform "Door4"
    {
        custom string userProperties:blender:object_name = "Door4"

        def Mesh "Cube_169" (
            active = true
            prepend apiSchemas = ["MaterialBindingAPI"]
        )
        {
            uniform bool doubleSided = 1
            float3[] extent = [(-0.22184443, -0.038584664, -0.0114443125), (0.22184443, 0.01154858, 0.9047533)]
            int[] faceVertexCounts = [4, 4, 4, 4, 4, 4, 4, 4, 4, 4, 4, 4, 4, 4, 4, 4, 4, 4, 4, 4, 4, 4, 4, 4, 4, 4, 4, 4, 4, 4, 4, 4, 4, 4, 4, 4, 4, 4, 4, 4, 4, 4, 4, 4, 4, 4, 4, 4, 4, 4, 4, 4, 4, 4, 4, 4, 4]
            int[] faceVertexIndices = [0, 1, 3, 2, 7, 5, 1, 0, 6, 3, 1, 5, 9, 21, 23, 11, 2, 4, 7, 0, 8, 6, 5, 11, 9, 11, 5, 7, 24, 28, 29, 25, 22, 21, 9, 10, 4, 10, 9, 7, 12, 14, 15, 13, 19, 12, 13, 17, 18, 17, 13, 15, 14, 12, 19, 16, 20, 23, 17, 18, 21, 19, 17, 23, 16, 19, 21, 22, 25, 29, 31, 27, 25, 27, 26, 24, 28, 24, 26, 30, 32, 36, 37, 33, 29, 28, 30, 31, 33, 37, 39, 35, 33, 35, 34, 32, 36, 32, 34, 38, 40, 44, 45, 41, 37, 36, 38, 39, 41, 45, 47, 43, 41, 43, 42, 40, 44, 40, 42, 46, 48, 52, 53, 49, 45, 44, 46, 47, 49, 53, 55, 51, 49, 51, 50, 48, 52, 48, 50, 54, 56, 60, 61, 57, 53, 52, 54, 55, 57, 61, 63, 59, 57, 59, 58, 56, 60, 56, 58, 62, 64, 68, 69, 65, 61, 60, 62, 63, 65, 69, 71, 67, 65, 67, 66, 64, 68, 64, 66, 70, 72, 76, 77, 73, 69, 68, 70, 71, 73, 77, 79, 75, 73, 75, 74, 72, 76, 72, 74, 78, 80, 84, 85, 81, 77, 76, 78, 79, 81, 85, 87, 83, 81, 83, 82, 80, 84, 80, 82, 86, 85, 84, 86, 87, 11, 23, 20, 8]
            rel material:binding = </root/_materials/Texture>
            normal3f[] normals = [(-1, 0, 0), (-1, 0, 0), (-1, 0, 0), (-1, 0, 0), (0, -1, 0), (0, -1, 0), (0, -1, 0), (0, -1, 0), (0, 0, 1), (0, 0, 1), (0, 0, 1), (0, 0, 1), (0, -1, 0), (0, -1, 0), (0, -1, 0), (0, -1, 0), (0, 0, -1), (5.829456e-8, 0, -1), (1.7358603e-8, 0, -1), (0, 0, -1), (0, 0, 1), (0, 0, 1), (0, 0, 1), (0, 0, 1), (0.962472, -0.27138084, 0), (0.962472, -0.27138084, 0), (0.962472, -0.27138084, 0), (0.962472, -0.27138084, 0), (0, -1, 0), (0, -1, 0), (0, -1, 0), (0, -1, 0), (-5.829456e-8, 0, -1), (-7.531963e-8, 0, -1), (7.531963e-8, 0, -1), (5.829456e-8, 0, -1), (5.829456e-8, 0, -1), (5.829456e-8, 0, -1), (7.531963e-8, 0, -1), (1.7358603e-8, 0, -1), (1, 0, 0), (1, 0, 0), (1, 0, 0), (1, 0, 0), (0, -1, 0), (0, -1, 0), (0, -1, 0), (0, -1, 0), (0, 0, 1), (0, 0, 1), (0, 0, 1), (0, 0, 1), (0, 0, -1), (0, 0, -1), (-1.7358603e-8, 0, -1), (-5.829456e-8, 0, -1), (0, 0, 1), (0, 0, 1), (0, 0, 1), (0, 0, 1), (-0.962472, -0.27138084, 0), (-0.962472, -0.27138084, 0), (-0.962472, -0.27138084, 0), (-0.962472, -0.27138084, 0), (-5.829456e-8, 0, -1), (-1.7358603e-8, 0, -1), (-7.531963e-8, 0, -1), (-5.829456e-8, 0, -1), (0, -0.5454975, 0.83811253), (0, -0.5454975, 0.83811253), (0, -0.5454975, 0.83811253), (0, -0.5454975, 0.83811253), (-1, 2.5915782e-7, 0), (-1, 2.5915782e-7, 0), (-1, 2.5915782e-7, 0), (-1, 2.5915782e-7, 0), (0, -0.5454992, -0.83811134), (0, -0.5454992, -0.83811134), (0, -0.5454992, -0.83811134), (0, -0.5454992, -0.83811134), (0, -1, 0), (0, -1, 0), (0, -1, 0), (0, -1, 0), (1, 0, 0), (1, 0, 0), (1, 0, 0), (1, 0, 0), (0, -0.5454975, 0.83811253), (0, -0.5454975, 0.83811253), (0, -0.5454975, 0.83811253), (0, -0.5454975, 0.83811253), (-1, 2.5915782e-7, 0), (-1, 2.5915782e-7, 0), (-1, 2.5915782e-7, 0), (-1, 2.5915782e-7, 0), (0, -0.5454992, -0.83811134), (0, -0.5454992, -0.83811134), (0, -0.5454992, -0.83811134), (0, -0.5454992, -0.83811134), (0, -1, 0), (0, -1, 0), (0, -1, 0), (0, -1, 0), (1, 0, 0), (1, 0, 0), (1, 0, 0), (1, 0, 0), (0, -0.5454975, 0.83811253), (0, -0.5454975, 0.83811253), (0, -0.5454975, 0.83811253), (0, -0.5454975, 0.83811253), (-1, 2.591577e-7, 0), (-1, 2.591577e-7, 0), (-1, 2.591577e-7, 0), (-1, 2.591577e-7, 0), (0, -0.5454992, -0.83811134), (0, -0.5454992, -0.83811134), (0, -0.5454992, -0.83811134), (0, -0.5454992, -0.83811134), (0, -1, 0), (0, -1, 0), (0, -1, 0), (0, -1, 0), (1, 0, 0), (1, 0, 0), (1, 0, 0), (1, 0, 0), (0, -0.5454975, 0.83811253), (0, -0.5454975, 0.83811253), (0, -0.5454975, 0.83811253), (0, -0.5454975, 0.83811253), (-1, 5.1831563e-8, 0), (-1, 5.1831563e-8, 0), (-1, 5.1831563e-8, 0), (-1, 5.1831563e-8, 0), (0, -0.5454983, -0.83811194), (0, -0.5454983, -0.83811194), (0, -0.5454983, -0.83811194), (0, -0.5454983, -0.83811194), (0, -1, 0), (0, -1, 0), (0, -1, 0), (0, -1, 0), (1, 0, 0), (1, 0, 0), (1, 0, 0), (1, 0, 0), (0, -0.5454992, 0.83811134), (0, -0.5454992, 0.83811134), (0, -0.5454992, 0.83811134), (0, -0.5454992, 0.83811134), (-1, 5.1831563e-8, 0), (-1, 5.1831563e-8, 0), (-1, 5.1831563e-8, 0), (-1, 5.1831563e-8, 0), (0, -0.5454983, -0.83811194), (0, -0.5454983, -0.83811194), (0, -0.5454983, -0.83811194), (0, -0.5454983, -0.83811194), (0, -1, 0), (0, -1, 0), (0, -1, 0), (0, -1, 0), (1, 0, 0), (1, 0, 0), (1, 0, 0), (1, 0, 0), (0, -0.5454983, 0.83811194), (0, -0.5454983, 0.83811194), (0, -0.5454983, 0.83811194), (0, -0.5454983, 0.83811194), (-1, -2.5915793e-7, 0), (-1, -2.5915793e-7, 0), (-1, -2.5915793e-7, 0), (-1, -2.5915793e-7, 0), (0, -0.5454988, -0.83811164), (0, -0.5454988, -0.83811164), (0, -0.5454988, -0.83811164), (0, -0.5454988, -0.83811164), (0, -1, 0), (0, -1, 0), (0, -1, 0), (0, -1, 0), (1, 0, 0), (1, 0, 0), (1, 0, 0), (1, 0, 0), (0, -0.5454988, 0.83811164), (0, -0.5454988, 0.83811164), (0, -0.5454988, 0.83811164), (0, -0.5454988, 0.83811164), (-1, -2.5915787e-7, 0), (-1, -2.5915787e-7, 0), (-1, -2.5915787e-7, 0), (-1, -2.5915787e-7, 0), (0, -0.5454988, -0.83811164), (0, -0.5454988, -0.83811164), (0, -0.5454988, -0.83811164), (0, -0.5454988, -0.83811164), (0, -1, 0), (0, -1, 0), (0, -1, 0), (0, -1, 0), (1, 0, 0), (1, 0, 0), (1, 0, 0), (1, 0, 0), (0, -0.5454988, 0.83811164), (0, -0.5454988, 0.83811164), (0, -0.5454988, 0.83811164), (0, -0.5454988, 0.83811164), (-1, -5.7014734e-7, 0), (-1, -5.7014734e-7, 0), (-1, -5.7014734e-7, 0), (-1, -5.7014734e-7, 0), (0, -0.54549885, -0.83811164), (0, -0.54549885, -0.83811164), (0, -0.54549885, -0.83811164), (0, -0.54549885, -0.83811164), (1, -8.2930524e-7, 0), (1, -8.2930524e-7, 0), (1, -8.2930524e-7, 0), (1, -8.2930524e-7, 0), (0, 0, 1), (0, 0, 1), (0, 0, 1), (0, 0, 1)] (
                interpolation = "faceVarying"
            )
            point3f[] points = [(-0.22184443, -0.038584664, -0.0114443125), (-0.22184443, -0.038584664, 0.9047533), (-0.22184443, 0.01154858, -0.0114443125), (-0.22184443, 0.01154858, 0.9047533), (-0.13760403, 0.01154858, -0.0114443125), (-0.13760403, -0.038584664, 0.9047533), (-0.13760403, 0.01154858, 0.9047533), (-0.13760403, -0.038584664, -0.0114443125), (-0.13115253, 0.01154858, 0.9047533), (-0.13115253, -0.015703969, -0.0114443125), (-0.13115253, 0.01154858, -0.0114443125), (-0.13115253, -0.015703969, 0.9047533), (0.22184443, -0.038584664, -0.0114443125), (0.22184443, -0.038584664, 0.9047533), (0.22184443, 0.01154858, -0.0114443125), (0.22184443, 0.01154858, 0.9047533), (0.13760403, 0.01154858, -0.0114443125), (0.13760403, -0.038584664, 0.9047533), (0.13760403, 0.01154858, 0.9047533), (0.13760403, -0.038584664, -0.0114443125), (0.13115253, 0.01154858, 0.9047533), (0.13115253, -0.015703969, -0.0114443125), (0.13115253, 0.01154858, -0.0114443125), (0.13115253, -0.015703969, 0.9047533), (-0.13962027, -0.03166154, 0.7886425), (-0.13962027, -0.03166154, 0.8873751), (-0.13962027, -0.01157315, 0.77556765), (-0.13962027, -0.01157315, 0.90044993), (0.13962027, -0.03166154, 0.7886425), (0.13962027, -0.03166154, 0.8873751), (0.13962027, -0.01157315, 0.77556765), (0.13962027, -0.01157315, 0.90044993), (-0.13962027, -0.03166154, 0.6762485), (-0.13962027, -0.03166154, 0.7749811), (-0.13962027, -0.01157315, 0.6631736), (-0.13962027, -0.01157315, 0.7880559), (0.13962027, -0.03166154, 0.6762485), (0.13962027, -0.03166154, 0.7749811), (0.13962027, -0.01157315, 0.6631736), (0.13962027, -0.01157315, 0.7880559), (-0.13962027, -0.03166154, 0.56385446), (-0.13962027, -0.03166154, 0.66258705), (-0.13962027, -0.01157315, 0.5507796), (-0.13962027, -0.01157315, 0.67566186), (0.13962027, -0.03166154, 0.56385446), (0.13962027, -0.03166154, 0.66258705), (0.13962027, -0.01157315, 0.5507796), (0.13962027, -0.01157315, 0.67566186), (-0.13962027, -0.03166154, 0.45146036), (-0.13962027, -0.03166154, 0.55019295), (-0.13962027, -0.01157315, 0.43838552), (-0.13962027, -0.01157315, 0.56326777), (0.13962027, -0.03166154, 0.45146036), (0.13962027, -0.03166154, 0.55019295), (0.13962027, -0.01157315, 0.43838552), (0.13962027, -0.01157315, 0.56326777), (-0.13962027, -0.03166154, 0.33906633), (-0.13962027, -0.03166154, 0.4377989), (-0.13962027, -0.01157315, 0.32599148), (-0.13962027, -0.01157315, 0.45087376), (0.13962027, -0.03166154, 0.33906633), (0.13962027, -0.03166154, 0.4377989), (0.13962027, -0.01157315, 0.32599148), (0.13962027, -0.01157315, 0.45087376), (-0.13962027, -0.03166154, 0.22667229), (-0.13962027, -0.03166154, 0.32540485), (-0.13962027, -0.01157315, 0.21359743), (-0.13962027, -0.01157315, 0.3384797), (0.13962027, -0.03166154, 0.22667229), (0.13962027, -0.03166154, 0.32540485), (0.13962027, -0.01157315, 0.21359743), (0.13962027, -0.01157315, 0.3384797), (-0.13962027, -0.03166154, 0.11427826), (-0.13962027, -0.03166154, 0.21301082), (-0.13962027, -0.01157315, 0.1012034), (-0.13962027, -0.01157315, 0.22608568), (0.13962027, -0.03166154, 0.11427826), (0.13962027, -0.03166154, 0.21301082), (0.13962027, -0.01157315, 0.1012034), (0.13962027, -0.01157315, 0.22608568), (-0.13962027, -0.03166154, 0.0018842188), (-0.13962027, -0.03166154, 0.100616775), (-0.13962027, -0.01157315, -0.011190643), (-0.13962027, -0.01157315, 0.113691635), (0.13962027, -0.03166154, 0.0018842188), (0.13962027, -0.03166154, 0.100616775), (0.13962027, -0.01157315, -0.011190643), (0.13962027, -0.01157315, 0.113691635)]
            texCoord2f[] primvars:st = [(0.40205944, 0.6724233), (0.3949294, 0.6724233), (0.45846337, 0.60232085), (0.40205944, 0.5364942), (0.3949294, 0.5364942), (0.45846337, 0.60232085), (0.40918946, 0.6724233), (0.45133072, 0.60232085), (0.40918946, 0.5364942), (0.45133072, 0.60232085), (0.45133072, 0.58982277), (0.38294417, 0.5364942), (0.45846337, 0.61481893), (0.45846337, 0.6724233), (0.45133072, 0.61481893), (0.38294417, 0.6724233), (0.45846337, 0.5364942), (0.45846337, 0.58982277), (0.45133072, 0.6157761), (0.37095898, 0.6724233), (0.46174246, 0.5364942), (0.45520806, 0.58886564), (0.45133072, 0.58886564), (0.37095892, 0.5364942), (0.46174252, 0.6724233), (0.455208, 0.6157761), (0.3949294, 0.5364942), (0.37095898, 0.6724233), (0.45846337, 0.5364942), (0.3949294, 0.6724233), (0.37095898, 0.5364942), (0.45846337, 0.6681475), (0.40205944, 0.5364942), (0.45133072, 0.5364942), (0.40205944, 0.6724233), (0.45133072, 0.6681475), (0.45133072, 0.5489923), (0.38294417, 0.5364942), (0.45846337, 0.6556494), (0.4650216, 0.6724233), (0.45133072, 0.6556494), (0.38294417, 0.6724233), (0.4650216, 0.5364942), (0.45846337, 0.5489923), (0.45133072, 0.65469223), (0.3336398, 0.6724233), (0.46174252, 0.5364942), (0.45520806, 0.54994947), (0.45133072, 0.54994947), (0.3336398, 0.5364942), (0.46174252, 0.6724233), (0.455208, 0.65469223), (0.40918946, 0.66078043), (0.43728364, 0.67736846), (0.4735958, 0.66078043), (0.42323655, 0.66078043), (0.4678797, 0.57792294), (0.43728364, 0.66272026), (0.4401406, 0.67930824), (0.47073776, 0.66078043), (0.47073776, 0.57792294), (0.4401406, 0.66078043), (0.40918946, 0.6193517), (0.4735958, 0.6193517), (0.41490346, 0.66272026), (0.42323655, 0.6193517), (0.4678797, 0.5364942), (0.41490346, 0.67736846), (0.47073776, 0.6193517), (0.4177605, 0.66078043), (0.47073776, 0.5364942), (0.4177605, 0.67930824), (0.40918946, 0.57792294), (0.47073776, 0.6773684), (0.44871587, 0.66078043), (0.42323655, 0.57792294), (0.46502167, 0.66078043), (0.47073776, 0.66272026), (0.47359473, 0.67930824), (0.44585782, 0.66078043), (0.4678797, 0.66078043), (0.47359473, 0.66078043), (0.40918946, 0.5364942), (0.44871587, 0.6193517), (0.4735958, 0.66272026), (0.42323655, 0.5364942), (0.4650216, 0.6193517), (0.4735958, 0.6773684), (0.44585782, 0.6193517), (0.47645277, 0.66078043), (0.4678797, 0.6193517), (0.47645277, 0.67930824), (0.40918946, 0.6193517), (0.43180752, 0.66272026), (0.44014168, 0.66078043), (0.42323655, 0.6193517), (0.46502167, 0.6193517), (0.43180752, 0.67736846), (0.42895055, 0.66078043), (0.43728364, 0.66078043), (0.4678797, 0.6193517), (0.42895055, 0.67930824), (0.40918946, 0.57792294), (0.44014168, 0.6193517), (0.4344266, 0.66272026), (0.42323655, 0.57792294), (0.4650216, 0.57792294), (0.4344266, 0.67736846), (0.43728364, 0.6193517), (0.43728364, 0.66078043), (0.4678797, 0.57792294), (0.43728364, 0.67930824), (0.43728364, 0.6193517), (0.44585782, 0.67736846), (0.47645384, 0.66078043), (0.45133072, 0.6193517), (0.4678797, 0.6193517), (0.44585782, 0.66272026), (0.4487148, 0.67930824), (0.4735958, 0.66078043), (0.47073776, 0.6193517), (0.4487148, 0.66078043), (0.43728364, 0.57792294), (0.47645384, 0.6193517), (0.40918946, 0.66272026), (0.45133072, 0.57792294), (0.4678797, 0.57792294), (0.40918946, 0.67736846), (0.4735958, 0.6193517), (0.41204643, 0.66078043), (0.47073776, 0.57792294), (0.4120465, 0.67930824), (0.42323655, 0.66078043), (0.4678797, 0.6773684), (0.4678797, 0.57792294), (0.43728358, 0.66078043), (0.47073776, 0.6193517), (0.4678797, 0.66272026), (0.47073668, 0.67930824), (0.46502167, 0.57792294), (0.4735958, 0.6193517), (0.47073668, 0.66078043), (0.42323655, 0.6193517), (0.4678797, 0.5364942), (0.42323655, 0.66272026), (0.43728358, 0.6193517), (0.47073776, 0.57792294), (0.42323655, 0.67736846), (0.4650216, 0.5364942), (0.42609352, 0.66078043), (0.4735958, 0.57792294), (0.42609352, 0.67930824), (0.42323655, 0.57792294), (0.4650216, 0.6773684), (0.44299978, 0.66078043), (0.43728364, 0.57792294), (0.4735958, 0.57792294), (0.4650216, 0.66272026), (0.46787864, 0.67930824), (0.44014168, 0.66078043), (0.47645384, 0.57792294), (0.46787864, 0.66078043), (0.42323655, 0.5364942), (0.44299972, 0.6193517), (0.4177605, 0.66272026), (0.43728364, 0.5364942), (0.4735958, 0.5364942), (0.4177605, 0.67736846), (0.44014168, 0.6193517), (0.42061746, 0.66078043), (0.47645384, 0.5364942), (0.42061746, 0.67930824), (0.42323655, 0.6193517), (0.44014168, 0.67736846), (0.47645384, 0.6193517), (0.43728364, 0.6193517), (0.47073776, 0.57792294), (0.44014168, 0.66272026), (0.4429987, 0.67930824), (0.4735958, 0.6193517), (0.4735958, 0.57792294), (0.44299865, 0.66078043), (0.42323655, 0.57792294), (0.47645384, 0.57792294), (0.42609352, 0.66272026), (0.43728364, 0.57792294), (0.47073776, 0.5364942), (0.42609358, 0.67736846), (0.4735958, 0.57792294), (0.42895055, 0.66078043), (0.4735958, 0.5364942), (0.42895055, 0.67930824), (0.43728364, 0.57792294), (0.44299865, 0.67736846), (0.44585782, 0.66078043), (0.45133072, 0.57792294), (0.4678797, 0.66078043), (0.44299865, 0.66272026), (0.44585568, 0.67930824), (0.44299978, 0.66078043), (0.47073776, 0.66078043), (0.44585568, 0.66078043), (0.43728364, 0.5364942), (0.44585782, 0.6193517), (0.4120465, 0.66272026), (0.45133072, 0.5364942), (0.4678797, 0.6193517), (0.4120465, 0.67736846), (0.44299978, 0.6193517), (0.41490346, 0.66078043), (0.47073776, 0.6193517), (0.41490346, 0.67930824)] (
                interpolation = "faceVarying"
            )
            int[] primvars:st:indices = [0, 3, 8, 6, 15, 11, 4, 1, 14, 9, 5, 12, 19, 45, 49, 23, 7, 10, 17, 2, 18, 14, 12, 25, 20, 24, 13, 16, 52, 62, 65, 55, 48, 47, 21, 22, 10, 22, 21, 17, 26, 32, 34, 29, 41, 27, 30, 37, 40, 38, 31, 35, 33, 28, 43, 36, 44, 51, 38, 40, 46, 42, 39, 50, 36, 43, 47, 48, 56, 66, 70, 60, 57, 61, 58, 53, 63, 54, 59, 68, 72, 82, 85, 75, 67, 64, 69, 71, 76, 86, 90, 80, 77, 81, 78, 73, 83, 74, 79, 88, 92, 102, 105, 95, 87, 84, 89, 91, 96, 106, 110, 100, 97, 101, 98, 93, 103, 94, 99, 108, 112, 122, 125, 115, 107, 104, 109, 111, 116, 126, 130, 120, 117, 121, 118, 113, 123, 114, 119, 128, 132, 142, 145, 135, 127, 124, 129, 131, 136, 146, 150, 140, 137, 141, 138, 133, 143, 134, 139, 148, 152, 162, 165, 155, 147, 144, 149, 151, 156, 166, 170, 160, 157, 161, 158, 153, 163, 154, 159, 168, 172, 182, 185, 175, 167, 164, 169, 171, 176, 186, 190, 180, 177, 181, 178, 173, 183, 174, 179, 188, 192, 202, 205, 195, 187, 184, 189, 191, 196, 206, 210, 200, 197, 201, 198, 193, 203, 194, 199, 208, 207, 204, 209, 211, 25, 51, 44, 18]
            uniform token subdivisionScheme = "none"
            custom string userProperties:blender:data_name = "Cube.169"
        }
    }

    def Scope "_materials"
    {
        def Material "Texture"
        {
            token outputs:surface.connect = </root/_materials/Texture/Principled_BSDF.outputs:surface>
            custom string userProperties:blender:data_name = "Texture"

            def Shader "Principled_BSDF"
            {
                uniform token info:id = "UsdPreviewSurface"
                float inputs:clearcoat = 0
                float inputs:clearcoatRoughness = 0.03
                color3f inputs:diffuseColor = (0.8, 0.8, 0.8)
                color3f inputs:emissiveColor = (0, 0, 0)
                float inputs:ior = 1.5
                float inputs:metallic = 0
                float inputs:opacity = 1
                float inputs:roughness = 0.5527864
                float inputs:specular = 1
                token outputs:surface
            }
        }
    }
}

