#usda 1.0
(
    defaultPrim = "root"
    doc = "Blender v5.1.2"
    metersPerUnit = 1
    upAxis = "Y"
)

def Xform "root" (
    customData = {
        dictionary Blender = {
            bool generated = 1
        }
    }
)
{
    float3 xformOp:rotateXYZ = (-90, -0, 0)
    uniform token[] xformOpOrder = ["xformOp:rotateXYZ"]

    def Xform "Door2"
    {
        custom string userProperties:blender:object_name = "Door2"

        def Mesh "Cube_071" (
            active = true
            prepend apiSchemas = ["MaterialBindingAPI"]
        )
        {
            uniform bool doubleSided = 1
            float3[] extent = [(-0.1988355, -0.01269172, -0.0114348885), (0.1988355, 0.0126917865, 0.90675837)]
            int[] faceVertexCounts = [4, 4, 4, 4, 4, 4, 4, 4, 4, 4, 4, 4, 4, 4, 4, 4, 4, 4, 4, 4, 4, 4, 4, 4, 4, 4, 4, 4, 4, 4, 4, 4, 4, 4, 4, 4, 4, 4, 4, 4, 4, 4, 4, 4, 4, 4, 4, 4, 4, 4, 4, 4, 4, 4, 4, 4, 4, 4, 4, 4, 4, 4, 4, 4, 4, 4, 4, 4, 4, 4, 4, 4, 4, 4, 4, 4, 4, 4, 4, 4, 4, 4, 4, 4, 4, 4, 4, 4, 4, 4, 4, 4, 4, 4, 4, 4, 4]
            int[] faceVertexIndices = [8, 9, 1, 0, 24, 25, 7, 2, 1, 5, 4, 0, 9, 11, 5, 1, 2, 7, 6, 3, 16, 17, 11, 9, 0, 4, 10, 8, 18, 16, 9, 8, 13, 21, 20, 12, 20, 22, 14, 12, 18, 19, 13, 12, 8, 10, 19, 18, 12, 14, 16, 18, 14, 15, 17, 16, 24, 26, 22, 20, 26, 27, 23, 22, 3, 6, 27, 26, 2, 3, 26, 24, 20, 21, 25, 24, 48, 49, 35, 30, 29, 33, 32, 28, 32, 43, 42, 28, 30, 35, 34, 31, 42, 40, 29, 28, 37, 45, 44, 36, 44, 46, 38, 36, 42, 43, 37, 36, 36, 38, 40, 42, 38, 39, 41, 40, 48, 50, 46, 44, 50, 51, 47, 46, 31, 34, 51, 50, 30, 31, 50, 48, 44, 45, 49, 48, 60, 128, 126, 58, 52, 120, 124, 56, 56, 57, 54, 52, 120, 52, 54, 122, 60, 61, 57, 56, 58, 126, 130, 62, 62, 130, 132, 64, 62, 63, 59, 58, 56, 124, 128, 60, 58, 59, 61, 60, 64, 65, 63, 62, 64, 132, 134, 66, 66, 67, 65, 64, 53, 55, 67, 66, 53, 121, 123, 55, 40, 41, 33, 29, 22, 23, 15, 14, 46, 47, 39, 38, 76, 68, 69, 77, 92, 70, 75, 93, 69, 68, 72, 73, 77, 69, 73, 79, 70, 71, 74, 75, 84, 77, 79, 85, 68, 76, 78, 72, 86, 76, 77, 84, 81, 80, 88, 89, 88, 80, 82, 90, 86, 80, 81, 87, 76, 86, 87, 78, 80, 86, 84, 82, 82, 84, 85, 83, 92, 88, 90, 94, 94, 90, 91, 95, 71, 94, 95, 74, 70, 92, 94, 71, 88, 92, 93, 89, 116, 98, 103, 117, 97, 96, 100, 101, 100, 96, 110, 111, 98, 99, 102, 103, 110, 96, 97, 108, 105, 104, 112, 113, 112, 104, 106, 114, 110, 104, 105, 111, 104, 110, 108, 106, 106, 108, 109, 107, 116, 112, 114, 118, 118, 114, 115, 119, 99, 118, 119, 102, 98, 116, 118, 99, 112, 116, 117, 113, 124, 120, 122, 125, 128, 124, 125, 129, 130, 126, 127, 131, 126, 128, 129, 127, 132, 130, 131, 133, 134, 132, 133, 135, 121, 134, 135, 123, 108, 97, 101, 109, 90, 82, 83, 91, 114, 106, 107, 115, 66, 134, 121, 53]
            rel material:binding = </root/_materials/Texture>
            normal3f[] normals = [(-0.034939468, -0.9993884, -0.0014669428), (-0.03492214, -0.99938893, -0.0014658767), (-0.035677824, -0.9993622, -0.0015123724), (-0.035677824, -0.9993622, -0.0015123724), (0.9999959, 0, 0.002879539), (0.9999959, 0, 0.0028795388), (0.99999565, 0, 0.0029353816), (0.99999565, 0, 0.0029353816), (0, 0, -1), (0, 0, -1), (0, 0, -1), (0, 0, -1), (-0.99999714, 0, 0.0023820796), (-0.99999714, 0, 0.0023860687), (-0.99999136, 0, 0.0041679023), (-0.99999136, 0, 0.0041679023), (0, 0, 1), (0, 0, 1), (0, 0, 1), (0, 0, 1), (-0.99999714, -1.7281687e-7, 0.0023865337), (-0.9999972, -1.7243113e-7, 0.0023825467), (-0.99999714, 0, 0.0023860687), (-0.99999714, 0, 0.0023820796), (0.999996, -5.0382574e-9, 0.002823635), (0.999996, -5.0382574e-9, 0.002823635), (0.999996, -5.0382574e-9, 0.002823635), (0.999996, -5.0382574e-9, 0.002823635), (-0.034121253, -0.9994173, -0.0008958441), (-0.034128603, -0.99941695, -0.0009819942), (-0.03492214, -0.99938893, -0.0014658767), (-0.034939468, -0.9993884, -0.0014669428), (0.9999922, 0, 0.003941862), (0.99999434, 0, 0.0033827797), (0.99999434, 0, 0.0033827797), (0.9999922, 0, 0.003941862), (-0.02120435, -0.9997751, 0.00028576303), (-0.018015021, -0.99983454, 0.0025264428), (-0.024631672, -0.99969435, -0.0021225375), (-0.024631672, -0.99969435, -0.0021225375), (0.85210484, 0.0000035932549, -0.5233712), (0.85210484, 0.0000035932549, -0.5233712), (0.85210484, 0.0000035932549, -0.5233712), (0.85210484, 0.0000035932549, -0.5233712), (0.99738485, -1.2255478e-7, 0.07227377), (0.99738485, -1.2255478e-7, 0.07227377), (0.99738485, -1.2255478e-7, 0.07227377), (0.99738485, -1.2255478e-7, 0.07227377), (-0.033017144, -0.99937516, 0.012612593), (-0.033017144, -0.99937516, 0.012612593), (-0.034128603, -0.99941695, -0.0009819942), (-0.034121253, -0.9994173, -0.0008958441), (-0.99998754, -9.1320665e-8, 0.004995596), (-0.99998754, -9.25064e-8, 0.0049917353), (-0.9999972, -1.7243113e-7, 0.0023825467), (-0.99999714, -1.7281687e-7, 0.0023865337), (-0.010770392, -0.99994135, -0.0012017265), (-0.016949525, -0.99985373, 0.002250589), (-0.018015021, -0.99983454, 0.0025264428), (-0.02120435, -0.9997751, 0.00028576303), (-0.9735078, 0.0000011318042, 0.22865346), (-0.9735078, 0.0000011318042, 0.22865346), (-0.9735078, 0.0000011318042, 0.22865346), (-0.9735078, 0.0000011318042, 0.22865346), (-0.9997182, -4.909898e-7, -0.023739632), (-0.9997182, -4.909898e-7, -0.023739632), (-0.9997182, -4.909898e-7, -0.023739632), (-0.9997182, -4.909898e-7, -0.023739632), (-0.009711388, -0.99995124, -0.0017929692), (-0.009711388, -0.99995124, -0.0017929692), (-0.016949525, -0.99985373, 0.002250589), (-0.010770392, -0.99994135, -0.0012017265), (0.99999434, 0, 0.0033827797), (0.99999434, 0, 0.0033827797), (0.9999959, 0, 0.0028795388), (0.9999959, 0, 0.002879539), (0.9999836, 0, -0.005730895), (0.9999836, 0, -0.005730895), (0.9999836, 0, -0.005730895), (0.9999836, 0, -0.005730895), (0, 0, -1), (0, 0, -1), (0, 0, -1), (0, 0, -1), (0.99999607, 2.3293751e-7, 0.002823638), (0.999996, 1.1666981e-7, 0.0028234867), (0.999996, 1.166707e-7, 0.0028234867), (0.99999607, 2.3293751e-7, 0.002823638), (0, 0, 1), (0, 0, 1), (0, 0, 1), (0, 0, 1), (-0.030428909, -0.9994966, 0.008974392), (-0.030126086, -0.99950004, 0.009588054), (-0.03555463, -0.99936664, -0.0014296861), (-0.03555463, -0.99936664, -0.0014296861), (0.999996, -1.1714234e-7, 0.0028234734), (0.999996, -2.3468681e-7, 0.002823612), (0.999996, -2.3468681e-7, 0.002823612), (0.999996, -1.1714146e-7, 0.0028234737), (-0.026312362, -0.9996525, -0.001566064), (-0.022001998, -0.9997562, -0.0018411871), (-0.026752625, -0.9996412, -0.0013634856), (-0.02698801, -0.99963564, -0.0005498441), (0.999996, 1.166707e-7, 0.0028234867), (0.999996, 1.1666981e-7, 0.0028234867), (0.999996, -1.1714234e-7, 0.0028234734), (0.999996, -1.1714146e-7, 0.0028234737), (-0.02698801, -0.99963564, -0.0005498441), (-0.026752625, -0.9996412, -0.0013634856), (-0.030126086, -0.99950004, 0.009588054), (-0.030428909, -0.9994966, 0.008974392), (-0.7819397, -0.0000020108255, 0.6233541), (-0.7819397, -0.0000020108255, 0.6233541), (-0.7819397, -0.0000020108255, 0.6233541), (-0.7819397, -0.0000020108255, 0.6233541), (-0.015689515, -0.9998748, -0.0020682688), (-0.009565223, -0.99995273, -0.0017568453), (-0.022001998, -0.9997562, -0.0018411871), (-0.026312362, -0.9996525, -0.001566064), (-0.9612574, -0.0000016780741, -0.27565256), (-0.9612574, -0.0000016780741, -0.27565256), (-0.9612574, -0.0000016780741, -0.27565256), (-0.9612574, -0.0000016780741, -0.27565256), (-0.99999064, -6.18609e-8, 0.0043328824), (-0.99999064, -6.18609e-8, 0.0043328824), (-0.99999064, -6.18609e-8, 0.0043328824), (-0.99999064, -6.18609e-8, 0.0043328824), (-0.008131619, -0.99996555, -0.0016837158), (-0.008131619, -0.99996555, -0.0016837158), (-0.009565223, -0.99995273, -0.0017568453), (-0.015689515, -0.9998748, -0.0020682688), (0.9989716, 0, 0.045341194), (0.9989716, 0, 0.045341194), (0.9989716, 0, 0.045341194), (0.9989716, 0, 0.045341194), (0, -0.9999958, -0.0028811747), (0, -0.9999958, -0.0028811747), (0, -0.99999624, -0.0027383424), (0, -0.99999624, -0.0027383424), (0, -0.9999953, -0.0030746614), (0, -0.9999953, -0.0030746614), (0, -0.99999464, -0.003294284), (0, -0.99999464, -0.003294284), (-0.99999136, 0, 0.0041679023), (-0.99999136, 0, 0.0041679023), (-0.99999136, 0, 0.0041679023), (-0.99999136, 0, 0.0041679023), (0, 0, -0.99999994), (0, 0, -0.99999994), (0, 0, -0.99999994), (0, 0, -0.99999994), (-0.9503697, -5.087382e-7, 0.31112298), (-0.9503697, -5.087382e-7, 0.31112298), (-0.9503697, -5.087382e-7, 0.31112298), (-0.9503697, -5.087382e-7, 0.31112298), (0, -0.99999624, -0.0027383424), (0, -0.99999624, -0.0027383424), (0, -0.9999953, -0.003075076), (0, -0.9999953, -0.003075076), (0, -0.9999953, -0.003075076), (0, -0.9999953, -0.003075076), (0, -0.99999744, -0.0022521939), (0, -0.99999744, -0.0022521939), (-0.9999913, 4.998238e-8, 0.004167999), (-0.9999913, 5.0178212e-8, 0.0041679987), (-0.9999913, 1.0016059e-7, 0.004167882), (-0.9999913, 1.0016059e-7, 0.004167882), (0, -0.99999464, -0.003294284), (0, -0.99999464, -0.003294284), (0, -0.9999958, -0.0028811747), (0, -0.9999958, -0.0028811747), (-0.8820555, 0.0000015306249, -0.47114527), (-0.8820555, 0.0000015306249, -0.47114527), (-0.8820555, 0.0000015306249, -0.47114527), (-0.8820555, 0.0000015306249, -0.47114527), (-0.9999913, 0, 0.004168116), (-0.9999913, 0, 0.004168116), (-0.9999913, 5.0178212e-8, 0.0041679987), (-0.9999913, 4.998238e-8, 0.004167999), (0, -0.99999744, -0.0022521939), (0, -0.99999744, -0.0022521939), (0, -0.99999744, -0.002239746), (0, -0.99999744, -0.002239746), (-0.97356766, 9.843551e-7, 0.2283989), (-0.97356766, 9.843551e-7, 0.2283989), (-0.97356766, 9.843551e-7, 0.2283989), (-0.97356766, 9.843551e-7, 0.2283989), (-0.99993056, 1.0030312e-8, -0.011785396), (-0.99993056, 1.0030312e-8, -0.011785396), (-0.99993056, 1.0030312e-8, -0.011785396), (-0.99993056, 1.0030312e-8, -0.011785396), (0, 0, 1), (0, 0, 1), (0, 0, 1), (0, 0, 1), (-0.999993, 4.1752847e-7, 0.0037353132), (-0.999993, 4.1752847e-7, 0.0037353132), (-0.999993, 4.1752847e-7, 0.0037353132), (-0.999993, 4.1752847e-7, 0.0037353132), (-0.9999831, 1.6142126e-7, 0.005818495), (-0.9999831, 1.6142126e-7, 0.005818495), (-0.99998754, -9.25064e-8, 0.0049917353), (-0.99998754, -9.1320665e-8, 0.004995596), (-0.99996734, -6.4764396e-7, 0.008087784), (-0.99996734, -6.4764396e-7, 0.008087784), (-0.99996734, -6.4764396e-7, 0.008087784), (-0.99996734, -6.4764396e-7, 0.008087784), (0.034939468, -0.9993884, -0.001466944), (0.035677824, -0.9993622, -0.0015123741), (0.035677824, -0.9993622, -0.0015123741), (0.034922145, -0.99938893, -0.0014658781), (-0.9999959, 0, 0.002879539), (-0.99999565, 0, 0.0029353816), (-0.99999565, 0, 0.0029353816), (-0.9999959, 0, 0.0028795388), (0, 0, -1), (0, 0, -1), (0, 0, -1), (0, 0, -1), (0.99999714, 0, 0.0023820796), (0.99999136, 0, 0.0041679023), (0.99999136, 0, 0.0041679023), (0.99999714, 0, 0.0023860687), (0, 0, 1), (0, 0, 1), (0, 0, 1), (0, 0, 1), (0.99999714, 0, 0.0023865367), (0.99999714, 0, 0.0023820796), (0.99999714, 0, 0.0023860687), (0.99999714, 0, 0.0023825495), (-0.999996, 0, 0.002823635), (-0.999996, 0, 0.002823635), (-0.999996, 0, 0.002823635), (-0.999996, 0, 0.002823635), (0.034121443, -0.99941725, -0.00089580775), (0.034939468, -0.9993884, -0.001466944), (0.034922145, -0.99938893, -0.0014658781), (0.034128062, -0.999417, -0.0009820178), (-0.9999922, 0, 0.003941862), (-0.9999922, 0, 0.003941862), (-0.99999434, 0, 0.0033827797), (-0.99999434, 0, 0.0033827797), (0.02120436, -0.9997751, 0.00028575675), (0.024631672, -0.99969435, -0.0021225377), (0.024631672, -0.99969435, -0.0021225377), (0.018014925, -0.99983454, 0.0025262854), (-0.85210484, 0.0000037555646, -0.5233712), (-0.85210484, 0.0000037555646, -0.5233712), (-0.85210484, 0.0000037555646, -0.5233712), (-0.85210484, 0.0000037555646, -0.5233712), (-0.99738485, 0, 0.07227377), (-0.99738485, 0, 0.07227377), (-0.99738485, 0, 0.07227377), (-0.99738485, 0, 0.07227377), (0.033017147, -0.99937516, 0.0126126325), (0.034121443, -0.99941725, -0.00089580775), (0.034128062, -0.999417, -0.0009820178), (0.033017147, -0.99937516, 0.0126126325), (0.99998754, 0, 0.0049955994), (0.99999714, 0, 0.0023865367), (0.99999714, 0, 0.0023825495), (0.99998754, 0, 0.004991738), (0.010770212, -0.99994135, -0.0012013987), (0.02120436, -0.9997751, 0.00028575675), (0.018014925, -0.99983454, 0.0025262854), (0.01699117, -0.999853, 0.002274079), (0.9735079, 9.7171e-7, 0.22865345), (0.9735079, 9.7171e-7, 0.22865345), (0.9735079, 9.7171e-7, 0.22865345), (0.9735079, 9.7171e-7, 0.22865345), (0.9997182, -9.721215e-7, -0.023739632), (0.9997182, -9.721215e-7, -0.023739632), (0.9997182, -9.721215e-7, -0.023739632), (0.9997182, -9.721215e-7, -0.023739632), (0.009711388, -0.99995124, -0.0017929699), (0.010770212, -0.99994135, -0.0012013987), (0.01699117, -0.999853, 0.002274079), (0.009711388, -0.99995124, -0.0017929699), (-0.99999434, 0, 0.0033827797), (-0.9999959, 0, 0.002879539), (-0.9999959, 0, 0.0028795388), (-0.99999434, 0, 0.0033827797), (-0.9999836, 0, -0.005730895), (-0.9999836, 0, -0.005730895), (-0.9999836, 0, -0.005730895), (-0.9999836, 0, -0.005730895), (0, 0, -1), (0, 0, -1), (0, 0, -1), (0, 0, -1), (-0.99999607, 1.17085655e-7, 0.002823638), (-0.99999607, 1.17085655e-7, 0.002823638), (-0.999996, 5.8543048e-8, 0.0028234867), (-0.999996, 5.8542604e-8, 0.0028234867), (0, 0, 1), (0, 0, 1), (0, 0, 1), (0, 0, 1), (0.03042892, -0.9994966, 0.008974375), (0.03555463, -0.99936664, -0.0014296854), (0.03555463, -0.99936664, -0.0014296854), (0.030126303, -0.99950004, 0.0095881345), (-0.999996, -1.17343845e-7, 0.0028234732), (-0.999996, -1.1734298e-7, 0.0028234734), (-0.99999607, -2.3468684e-7, 0.0028236122), (-0.99999607, -2.3468684e-7, 0.0028236122), (0.026312355, -0.9996525, -0.0015660117), (0.026988028, -0.99963564, -0.0005498711), (0.026752839, -0.9996412, -0.0013635689), (0.022001997, -0.9997562, -0.0018411896), (-0.999996, 5.8543048e-8, 0.0028234867), (-0.999996, -1.1734298e-7, 0.0028234734), (-0.999996, -1.17343845e-7, 0.0028234732), (-0.999996, 5.8542604e-8, 0.0028234867), (0.026988028, -0.99963564, -0.0005498711), (0.03042892, -0.9994966, 0.008974375), (0.030126303, -0.99950004, 0.0095881345), (0.026752839, -0.9996412, -0.0013635689), (0.78193927, -0.0000020574848, 0.6233545), (0.78193927, -0.0000020574848, 0.6233545), (0.78193927, -0.0000020574848, 0.6233545), (0.78193927, -0.0000020574848, 0.6233545), (0.015689509, -0.9998748, -0.0020683382), (0.026312355, -0.9996525, -0.0015660117), (0.022001997, -0.9997562, -0.0018411896), (0.009565206, -0.99995273, -0.001757066), (0.96125734, -0.0000014819574, -0.2756524), (0.96125734, -0.0000014819574, -0.2756524), (0.96125734, -0.0000014819574, -0.2756524), (0.96125734, -0.0000014819574, -0.2756524), (0.99999064, 0, 0.0043328824), (0.99999064, 0, 0.0043328824), (0.99999064, 0, 0.0043328824), (0.99999064, 0, 0.0043328824), (0.008131619, -0.99996555, -0.0016837155), (0.015689509, -0.9998748, -0.0020683382), (0.009565206, -0.99995273, -0.001757066), (0.008131619, -0.99996555, -0.0016837155), (-0.9989716, 0, 0.045341194), (-0.9989716, 0, 0.045341194), (-0.9989716, 0, 0.045341194), (-0.9989716, 0, 0.045341194), (0.99999136, 0, 0.0041679023), (0.99999136, 0, 0.0041679023), (0.99999136, 0, 0.0041679023), (0.99999136, 0, 0.0041679023), (0.95036966, -5.087382e-7, 0.31112298), (0.95036966, -5.087382e-7, 0.31112298), (0.95036966, -5.087382e-7, 0.31112298), (0.95036966, -5.087382e-7, 0.31112298), (0.9999913, 6.203492e-8, 0.0041679977), (0.99999136, 1.243129e-7, 0.0041678823), (0.99999136, 1.243129e-7, 0.0041678823), (0.9999913, 6.227798e-8, 0.0041679973), (0.8820555, 0.000001572849, -0.47114545), (0.8820555, 0.000001572849, -0.47114545), (0.8820555, 0.000001572849, -0.47114545), (0.8820555, 0.000001572849, -0.47114545), (0.99999136, 0, 0.0041681137), (0.9999913, 6.203492e-8, 0.0041679977), (0.9999913, 6.227798e-8, 0.0041679973), (0.99999136, 0, 0.0041681137), (0.97356766, 0.000001008067, 0.22839871), (0.97356766, 0.000001008067, 0.22839871), (0.97356766, 0.000001008067, 0.22839871), (0.97356766, 0.000001008067, 0.22839871), (0.99993056, 0, -0.011785398), (0.99993056, 0, -0.011785398), (0.99993056, 0, -0.011785398), (0.99993056, 0, -0.011785398), (0.999993, 4.1752847e-7, 0.0037353132), (0.999993, 4.1752847e-7, 0.0037353132), (0.999993, 4.1752847e-7, 0.0037353132), (0.999993, 4.1752847e-7, 0.0037353132), (0.9999831, 0, 0.005818495), (0.99998754, 0, 0.0049955994), (0.99998754, 0, 0.004991738), (0.9999831, 0, 0.005818495), (0.99996734, -5.126775e-7, 0.008087784), (0.99996734, -5.126775e-7, 0.008087784), (0.99996734, -5.126775e-7, 0.008087784), (0.99996734, -5.126775e-7, 0.008087784), (0, -0.99999744, -0.002239746), (0, -0.99999744, -0.002239746), (0, -0.9999944, -0.0033266183), (0, -0.9999944, -0.0033266183)] (
                interpolation = "faceVarying"
            )
            point3f[] points = [(-0.12485203, -0.012691654, -0.0114348885), (-0.1988355, -0.009823333, -0.0114348885), (-0.12748617, -0.01269172, 0.90675837), (-0.19494727, -0.01269172, 0.90675837), (-0.12485203, 0.009823465, -0.0114348885), (-0.1988355, 0.0126917865, -0.0114348885), (-0.19494727, 0.009823399, 0.90675837), (-0.12748617, 0.009823399, 0.90675837), (-0.12530594, -0.012691654, 0.1493162), (-0.1981655, -0.010317591, 0.14931627), (-0.12530594, 0.009823465, 0.14931627), (-0.1981655, 0.012197528, 0.14931627), (-0.12537141, -0.012691654, 0.2725062), (-0.12537141, 0.009823465, 0.27250636), (-0.19806886, -0.010388894, 0.27250627), (-0.19806886, 0.012126225, 0.27250636), (-0.19809538, -0.010369316, 0.26614386), (-0.19809538, 0.012145803, 0.26614392), (-0.13329758, -0.012691654, 0.25960156), (-0.13329758, 0.009823465, 0.2596017), (-0.12636675, -0.012691687, 0.52500886), (-0.12636675, 0.009823431, 0.52500886), (-0.19659965, -0.011472758, 0.525009), (-0.19659965, 0.011042361, 0.52500886), (-0.12639621, -0.012691687, 0.5354418), (-0.12639621, 0.009823431, 0.5354418), (-0.1868662, -0.011504837, 0.5664498), (-0.1868662, 0.011010281, 0.56644976), (-0.044619083, -0.012691654, -0.0114348885), (-0.11860256, -0.009823333, -0.0114348885), (-0.047253225, -0.01269172, 0.90675837), (-0.11471433, -0.01269172, 0.90675837), (-0.044619083, 0.009823465, -0.0114348885), (-0.11860256, 0.0126917865, -0.0114348885), (-0.11471433, 0.009823399, 0.90675837), (-0.047253225, 0.009823399, 0.90675837), (-0.04513846, -0.012691654, 0.17250368), (-0.04513846, 0.009823465, 0.17250381), (-0.113162905, -0.010388894, 0.19259773), (-0.113162905, 0.012126225, 0.1925978), (-0.11786245, -0.010369316, 0.18670261), (-0.11786245, 0.012145803, 0.18670268), (-0.045120496, -0.012691654, 0.16614124), (-0.045120496, 0.009823465, 0.16614138), (-0.0461338, -0.012691687, 0.52500886), (-0.0461338, 0.009823431, 0.52500886), (-0.11055272, -0.011472758, 0.515319), (-0.11055272, 0.011042361, 0.5153189), (-0.04907025, -0.012691687, 0.58970565), (-0.04907025, 0.009823431, 0.58970565), (-0.11632322, -0.011504837, 0.5354419), (-0.11632322, 0.011010281, 0.5354418), (-0.040695217, -0.009823333, -0.0114348885), (-0.036806993, -0.01269172, 0.90675837), (-0.040695217, 0.0126917865, -0.0114348885), (-0.036806993, 0.009823399, 0.90675837), (-0.040025216, -0.010317591, 0.14931627), (-0.040025216, 0.012197528, 0.14931627), (-0.039928578, -0.010388894, 0.17250374), (-0.039928578, 0.012126225, 0.17250381), (-0.035282087, -0.010369316, 0.16380478), (-0.035282087, 0.012145803, 0.16380486), (-0.03854174, -0.011411972, 0.5052445), (-0.03854174, 0.011103147, 0.5052445), (-0.03845936, -0.011472758, 0.525009), (-0.03845936, 0.011042361, 0.52500886), (-0.03260189, -0.011504837, 0.5499768), (-0.03260189, 0.011010281, 0.54997677), (0.12485203, -0.012691654, -0.0114348885), (0.1988355, -0.009823333, -0.0114348885), (0.12748617, -0.01269172, 0.90675837), (0.19494727, -0.01269172, 0.90675837), (0.12485203, 0.009823465, -0.0114348885), (0.1988355, 0.0126917865, -0.0114348885), (0.19494727, 0.009823399, 0.90675837), (0.12748617, 0.009823399, 0.90675837), (0.12530594, -0.012691654, 0.1493162), (0.1981655, -0.010317591, 0.14931627), (0.12530594, 0.009823465, 0.14931627), (0.1981655, 0.012197528, 0.14931627), (0.12537141, -0.012691654, 0.2725062), (0.12537141, 0.009823465, 0.27250636), (0.19806886, -0.010388894, 0.27250627), (0.19806886, 0.012126225, 0.27250636), (0.19809538, -0.010369316, 0.26614386), (0.19809538, 0.012145803, 0.26614392), (0.13329758, -0.012691654, 0.25960156), (0.13329758, 0.009823465, 0.2596017), (0.12636675, -0.012691687, 0.52500886), (0.12636675, 0.009823431, 0.52500886), (0.19659965, -0.011472758, 0.525009), (0.19659965, 0.011042361, 0.52500886), (0.12639621, -0.012691687, 0.5354418), (0.12639621, 0.009823431, 0.5354418), (0.1868662, -0.011504837, 0.5664498), (0.1868662, 0.011010281, 0.56644976), (0.044619083, -0.012691654, -0.0114348885), (0.11860256, -0.009823333, -0.0114348885), (0.047253225, -0.01269172, 0.90675837), (0.11471433, -0.01269172, 0.90675837), (0.044619083, 0.009823465, -0.0114348885), (0.11860256, 0.0126917865, -0.0114348885), (0.11471433, 0.009823399, 0.90675837), (0.047253225, 0.009823399, 0.90675837), (0.04513846, -0.012691654, 0.17250368), (0.04513846, 0.009823465, 0.17250381), (0.113162905, -0.010388894, 0.19259773), (0.113162905, 0.012126225, 0.1925978), (0.11786245, -0.010369316, 0.18670261), (0.11786245, 0.012145803, 0.18670268), (0.045120496, -0.012691654, 0.16614124), (0.045120496, 0.009823465, 0.16614138), (0.0461338, -0.012691687, 0.52500886), (0.0461338, 0.009823431, 0.52500886), (0.11055272, -0.011472758, 0.515319), (0.11055272, 0.011042361, 0.5153189), (0.04907025, -0.012691687, 0.58970565), (0.04907025, 0.009823431, 0.58970565), (0.11632322, -0.011504837, 0.5354419), (0.11632322, 0.011010281, 0.5354418), (0.040695217, -0.009823333, -0.0114348885), (0.036806993, -0.01269172, 0.90675837), (0.040695217, 0.0126917865, -0.0114348885), (0.036806993, 0.009823399, 0.90675837), (0.040025216, -0.010317591, 0.14931627), (0.040025216, 0.012197528, 0.14931627), (0.039928578, -0.010388894, 0.17250374), (0.039928578, 0.012126225, 0.17250381), (0.035282087, -0.010369316, 0.16380478), (0.035282087, 0.012145803, 0.16380486), (0.03854174, -0.011411972, 0.5052445), (0.03854174, 0.011103147, 0.5052445), (0.03845936, -0.011472758, 0.525009), (0.03845936, 0.011042361, 0.52500886), (0.03260189, -0.011504837, 0.5499768), (0.03260189, 0.011010281, 0.54997677)]
            texCoord2f[] primvars:st = [(0.37171173, 0.7071984), (0.45332873, 0.58444655), (0.44763625, 0.70717824), (0.39043105, 0.7071984), (0.45332873, 0.59767604), (0.39620942, 0.54314494), (0.44763625, 0.5431324), (0.45332873, 0.5697298), (0.3723792, 0.5431324), (0.45332873, 0.5817839), (0.39620942, 0.7071887), (0.3894482, 0.54313254), (0.44763625, 0.58460224), (0.44193932, 0.70717824), (0.44763625, 0.5978319), (0.3905125, 0.5431324), (0.45902547, 0.5817839), (0.3905125, 0.7071762), (0.44193932, 0.5431324), (0.45902547, 0.5697298), (0.37182668, 0.67847514), (0.44763625, 0.67845845), (0.39620703, 0.57186455), (0.39026168, 0.67847514), (0.44193932, 0.67845845), (0.39051065, 0.57185215), (0.44763625, 0.65644825), (0.37184337, 0.65646267), (0.44193932, 0.65644825), (0.39023742, 0.65646267), (0.396128, 0.5938746), (0.39043105, 0.5938622), (0.3902441, 0.6576), (0.396128, 0.5927378), (0.39043105, 0.5927253), (0.44763625, 0.6587725), (0.3738489, 0.6587687), (0.44193932, 0.6587725), (0.37209544, 0.61134475), (0.44763625, 0.61133647), (0.44193932, 0.61133647), (0.3898658, 0.61134475), (0.39620274, 0.6389858), (0.39050603, 0.638973), (0.37210304, 0.6094806), (0.44763625, 0.6094726), (0.44193932, 0.6094726), (0.39617816, 0.64636713), (0.38740322, 0.6039401), (0.3904814, 0.6463547), (0.45332873, 0.5978319), (0.44193932, 0.70717824), (0.33427277, 0.7071984), (0.45332873, 0.6110614), (0.3529923, 0.7071984), (0.40770307, 0.54314494), (0.44193932, 0.5431324), (0.44763625, 0.62437105), (0.33494025, 0.5431324), (0.44763625, 0.6364252), (0.40770122, 0.7071887), (0.3520096, 0.54313254), (0.44763625, 0.5979878), (0.43624255, 0.70717824), (0.44763625, 0.61121726), (0.4020063, 0.5431324), (0.453333, 0.6364252), (0.4020043, 0.7071762), (0.43624255, 0.5431324), (0.453333, 0.62437105), (0.44193932, 0.6743156), (0.3344042, 0.6743315), (0.43624255, 0.6743156), (0.35161605, 0.67074114), (0.4076844, 0.5795867), (0.40198764, 0.57957405), (0.35280514, 0.6717946), (0.407684, 0.5785444), (0.40198722, 0.57853174), (0.44193932, 0.6754525), (0.33439976, 0.6754687), (0.43624255, 0.6754525), (0.33465648, 0.61134475), (0.44193932, 0.61133647), (0.43624255, 0.61133647), (0.3509558, 0.6130764), (0.40770307, 0.6372409), (0.4020063, 0.6372285), (0.33539963, 0.59978473), (0.44193932, 0.59978396), (0.43624255, 0.59978396), (0.4076953, 0.64084953), (0.35241607, 0.6094806), (0.40199852, 0.64083713), (0.31555328, 0.7071984), (0.41913375, 0.54314494), (0.453333, 0.5576755), (0.41913375, 0.7071887), (0.44763625, 0.62437105), (0.3145693, 0.5431324), (0.41343704, 0.5431324), (0.44763625, 0.5576755), (0.41343704, 0.7071762), (0.453333, 0.62437105), (0.41913173, 0.57186455), (0.31538355, 0.6784747), (0.41343498, 0.57185215), (0.31535932, 0.6743315), (0.41913137, 0.5760075), (0.4134346, 0.57599485), (0.31418356, 0.675886), (0.4191334, 0.57444227), (0.41343647, 0.57442963), (0.31500816, 0.6148763), (0.4191275, 0.63545465), (0.41343072, 0.63544214), (0.31498748, 0.61134475), (0.4191271, 0.6389858), (0.41343036, 0.638973), (0.41911545, 0.64343274), (0.3135054, 0.6068836), (0.41341868, 0.64342034), (0.33427277, 0.7071984), (0.45332873, 0.57106084), (0.43624255, 0.5431324), (0.31555328, 0.7071984), (0.45332873, 0.55783135), (0.40198722, 0.7071762), (0.43624255, 0.70717824), (0.44763625, 0.64847946), (0.3336051, 0.5431324), (0.44763625, 0.6364252), (0.40198722, 0.5431324), (0.31653598, 0.54313254), (0.44763625, 0.5709052), (0.4305458, 0.5431324), (0.44763625, 0.5576755), (0.39629087, 0.7071887), (0.453333, 0.6364252), (0.39629087, 0.54314494), (0.4305458, 0.70717824), (0.453333, 0.64847946), (0.33415765, 0.67847514), (0.43624255, 0.57185256), (0.4019852, 0.67845637), (0.31572247, 0.67847514), (0.4305458, 0.57185256), (0.39628848, 0.67846876), (0.43624255, 0.5938625), (0.3341408, 0.65646267), (0.4305458, 0.5938627), (0.3157469, 0.65646267), (0.4019062, 0.6564468), (0.39620942, 0.6564592), (0.31574008, 0.6576), (0.4019062, 0.6575831), (0.39620942, 0.65759605), (0.43624255, 0.5915384), (0.33213547, 0.6587687), (0.4305458, 0.5915384), (0.3338889, 0.61134475), (0.43624255, 0.6389745), (0.4305458, 0.6389745), (0.3161184, 0.61134475), (0.40198058, 0.6113355), (0.39628386, 0.61134815), (0.33388147, 0.6094806), (0.43624255, 0.64083827), (0.4305458, 0.64083827), (0.401956, 0.603954), (0.3185811, 0.6039401), (0.39625922, 0.60396665), (0.45332873, 0.58444655), (0.4305458, 0.5431324), (0.37171173, 0.7071984), (0.45332873, 0.57121676), (0.3529923, 0.7071984), (0.41341868, 0.7071762), (0.4305458, 0.70717824), (0.45332873, 0.5697298), (0.37104413, 0.5431324), (0.45332873, 0.5576755), (0.41341704, 0.5431324), (0.35397494, 0.54313254), (0.44763625, 0.58429074), (0.42484888, 0.5431324), (0.44763625, 0.57106084), (0.40772176, 0.7071887), (0.45902547, 0.5576755), (0.40772027, 0.54314494), (0.42484888, 0.70717824), (0.45902547, 0.5697298), (0.4305458, 0.5759952), (0.37157997, 0.6743315), (0.42484888, 0.5759952), (0.35436827, 0.67074114), (0.41340038, 0.67073447), (0.40770346, 0.6707471), (0.35317922, 0.6717946), (0.41340002, 0.6717768), (0.40770307, 0.6717895), (0.4305458, 0.5748585), (0.37158442, 0.6754687), (0.42484888, 0.5748585), (0.37132767, 0.61134475), (0.4305458, 0.6389745), (0.42484888, 0.6389745), (0.35502833, 0.6130764), (0.41341868, 0.6130805), (0.40772176, 0.613093), (0.3705847, 0.59978473), (0.4305458, 0.65052664), (0.42484888, 0.65052664), (0.41341093, 0.6094716), (0.3535683, 0.6094806), (0.407714, 0.6094842), (0.29495952, 0.7071984), (0.453333, 0.5431324), (0.42484888, 0.7071762), (0.44763625, 0.61121726), (0.42484888, 0.5431324), (0.2959433, 0.5431324), (0.44763625, 0.5431324), (0.4191521, 0.7071887), (0.453333, 0.61121726), (0.4191521, 0.54314494), (0.29512924, 0.6784747), (0.424847, 0.67845637), (0.41915008, 0.67846876), (0.2951535, 0.6743315), (0.42484665, 0.67431355), (0.4191497, 0.6743265), (0.29632923, 0.675886), (0.4248485, 0.6758789), (0.41915172, 0.6758915), (0.29550427, 0.6148763), (0.4248422, 0.6148667), (0.41914544, 0.6148791), (0.29552516, 0.61134475), (0.4248422, 0.6113355), (0.41914544, 0.61134815), (0.42483053, 0.6068882), (0.29700723, 0.6068836), (0.41913375, 0.606901)] (
                interpolation = "faceVarying"
            )
            int[] primvars:st:indices = [20, 23, 3, 0, 45, 46, 18, 6, 4, 14, 12, 1, 22, 25, 15, 5, 7, 19, 16, 9, 33, 34, 25, 22, 2, 13, 24, 21, 36, 32, 23, 20, 28, 40, 39, 26, 38, 41, 29, 27, 35, 37, 28, 26, 21, 24, 37, 35, 27, 29, 32, 36, 30, 31, 34, 33, 44, 48, 41, 38, 47, 49, 43, 42, 10, 17, 49, 47, 8, 11, 48, 44, 39, 40, 46, 45, 89, 90, 68, 56, 53, 64, 62, 50, 63, 81, 79, 51, 57, 69, 66, 59, 80, 76, 54, 52, 72, 84, 83, 70, 82, 85, 73, 71, 79, 81, 72, 70, 71, 73, 76, 80, 74, 75, 78, 77, 88, 92, 85, 82, 91, 93, 87, 86, 60, 67, 93, 91, 58, 61, 92, 88, 83, 84, 90, 89, 110, 232, 229, 107, 94, 216, 226, 105, 104, 106, 100, 95, 217, 96, 101, 222, 111, 112, 106, 104, 107, 229, 235, 113, 113, 235, 238, 116, 114, 115, 109, 108, 105, 226, 232, 110, 108, 109, 112, 111, 117, 118, 115, 114, 116, 238, 242, 120, 119, 121, 118, 117, 97, 102, 121, 119, 98, 219, 224, 103, 77, 78, 65, 55, 42, 43, 31, 30, 86, 87, 75, 74, 142, 122, 125, 145, 167, 128, 140, 168, 126, 123, 134, 136, 144, 127, 137, 147, 129, 131, 138, 141, 155, 144, 147, 156, 124, 143, 146, 135, 158, 142, 145, 154, 150, 148, 161, 162, 160, 149, 151, 163, 157, 148, 150, 159, 143, 157, 159, 146, 149, 158, 154, 151, 152, 155, 156, 153, 166, 160, 163, 170, 169, 164, 165, 171, 132, 169, 171, 139, 130, 166, 170, 133, 161, 167, 168, 162, 211, 178, 190, 212, 175, 172, 184, 186, 185, 173, 201, 203, 179, 181, 188, 191, 202, 174, 176, 198, 194, 192, 205, 206, 204, 193, 195, 207, 201, 192, 194, 203, 193, 202, 198, 195, 196, 199, 200, 197, 210, 204, 207, 214, 213, 208, 209, 215, 182, 213, 215, 189, 180, 210, 214, 183, 205, 211, 212, 206, 227, 218, 223, 228, 233, 227, 228, 234, 236, 230, 231, 237, 230, 233, 234, 231, 239, 236, 237, 240, 241, 239, 240, 243, 220, 241, 243, 225, 199, 177, 187, 200, 164, 152, 153, 165, 208, 196, 197, 209, 120, 242, 221, 99]
            uniform token subdivisionScheme = "none"
            custom string userProperties:blender:data_name = "Cube.071"
        }
    }

    def Scope "_materials"
    {
        def Material "Texture"
        {
            token outputs:surface.connect = </root/_materials/Texture/Principled_BSDF.outputs:surface>
            custom string userProperties:blender:data_name = "Texture"

            def Shader "Principled_BSDF"
            {
                uniform token info:id = "UsdPreviewSurface"
                float inputs:clearcoat = 0
                float inputs:clearcoatRoughness = 0.03
                color3f inputs:diffuseColor = (0.8, 0.8, 0.8)
                color3f inputs:emissiveColor = (0, 0, 0)
                float inputs:ior = 1.5
                float inputs:metallic = 0
                float inputs:opacity = 1
                float inputs:roughness = 0.5527864
                float inputs:specular = 1
                token outputs:surface
            }
        }
    }
}

