#usda 1.0
(
    defaultPrim = "root"
    doc = "Blender v5.1.2"
    metersPerUnit = 1
    upAxis = "Y"
)

def Xform "root" (
    customData = {
        dictionary Blender = {
            bool generated = 1
        }
    }
)
{
    float3 xformOp:rotateXYZ = (-90, -0, 0)
    uniform token[] xformOpOrder = ["xformOp:rotateXYZ"]

    def Xform "Door_Window2"
    {
        custom string userProperties:blender:object_name = "Door_Window2"

        def Mesh "Cube_173" (
            active = true
            prepend apiSchemas = ["MaterialBindingAPI"]
        )
        {
            uniform bool doubleSided = 1
            float3[] extent = [(-0.22186257, -0.056457795, -0.008412863), (0.22186257, -0.0068910904, 0.8981816)]
            int[] faceVertexCounts = [4, 4, 4, 4, 4, 4, 4, 4, 4, 4, 4, 4, 4, 4, 4, 4, 4, 4, 4, 4, 4, 4, 4, 4, 4, 4, 4, 4, 4, 4, 4, 4, 4, 4, 4, 4, 4, 4, 4, 4, 4, 4, 4, 4, 4, 4, 4, 4, 4, 4, 4, 4, 4, 4, 4, 4, 4]
            int[] faceVertexIndices = [0, 1, 3, 2, 6, 7, 5, 4, 10, 11, 1, 0, 14, 6, 4, 13, 9, 3, 1, 11, 12, 9, 11, 15, 2, 8, 10, 0, 11, 10, 18, 17, 4, 5, 15, 13, 7, 12, 15, 5, 8, 14, 13, 10, 19, 16, 20, 23, 13, 15, 16, 19, 15, 11, 17, 16, 10, 13, 19, 18, 22, 23, 27, 26, 17, 18, 22, 21, 18, 19, 23, 22, 16, 17, 21, 20, 27, 24, 28, 31, 20, 21, 25, 24, 23, 20, 24, 27, 21, 22, 26, 25, 31, 28, 29, 30, 25, 26, 30, 29, 26, 27, 31, 30, 24, 25, 29, 28, 34, 33, 32, 35, 39, 38, 36, 37, 33, 37, 36, 32, 35, 38, 39, 34, 32, 36, 38, 35, 42, 41, 40, 43, 47, 46, 44, 45, 41, 45, 44, 40, 43, 46, 47, 42, 40, 44, 46, 43, 50, 49, 48, 51, 55, 54, 52, 53, 49, 53, 52, 48, 51, 54, 55, 50, 48, 52, 54, 51, 58, 57, 56, 59, 63, 62, 60, 61, 57, 61, 60, 56, 59, 62, 63, 58, 56, 60, 62, 59, 66, 65, 64, 67, 71, 70, 68, 69, 65, 69, 68, 64, 67, 70, 71, 66, 64, 68, 70, 67, 74, 73, 72, 75, 79, 78, 76, 77, 73, 77, 76, 72, 75, 78, 79, 74, 72, 76, 78, 75]
            rel material:binding = </root/_materials/Texture>
            normal3f[] normals = [(-1, 0, 0), (-1, 0, 0), (-1, 0, 0), (-1, 0, 0), (1, 0, 0), (1, 0, 0), (1, 0, 0), (1, 0, 0), (0, -1, 0), (0, -1, 0), (0, -1, 0), (0, -1, 0), (0, 0, -1), (0, 0, -1), (0, 0, -1), (0, 0, -1), (0, 0, 1), (0, 0, 1), (0, 0, 1), (0, 0, 1), (0, 0, 1), (0, 0, 1), (0, 0, 1), (0, 0, 1), (0, 0, -1), (0, 0, -1), (0, 0, -1), (0, 0, -1), (0, -1, 0), (0, -1, 0), (0, -1, 0), (0, -1, 0), (0, -1, 0), (0, -1, 0), (0, -1, 0), (0, -1, 0), (0, 0, 1), (0, 0, 1), (0, 0, 1), (0, 0, 1), (0, 0, -1), (0, 0, -1), (0, 0, -1), (0, 0, -1), (1, 0, 0), (1, 0, 0), (1, 0, 0), (1, 0, 0), (0, -1, 0), (0, -1, 0), (0, -1, 0), (0, -1, 0), (0, -1, 0), (0, -1, 0), (0, -1, 0), (0, -1, 0), (0, -1, 0), (0, -1, 0), (0, -1, 0), (0, -1, 0), (0, -1, 1.363506e-7), (0, -1, 1.363506e-7), (0, -1, 1.297269e-7), (0, -1, 1.297269e-7), (-1, 0, 0), (-1, 0, 0), (-1, 0, 0), (-1, 0, 0), (0, 0, -1), (0, 0, -1), (0, 0, -1), (0, 0, -1), (0, 0, 1), (0, 0, 1), (0, 0, 1), (0, 0, 1), (-1, 0, 0), (-1, 0, 0), (-1, 0, 0), (-1, 0, 0), (0, -1, -1.3635088e-7), (0, -1, -1.3635088e-7), (0, -1, -1.2972768e-7), (0, -1, -1.2972768e-7), (0, -1, 1.363506e-7), (0, -1, -1.3635088e-7), (0, -1, -1.2972768e-7), (0, -1, 1.297269e-7), (0, -1, -1.3635088e-7), (0, -1, 1.363506e-7), (0, -1, 1.297269e-7), (0, -1, -1.2972768e-7), (0, -0.99999994, 0), (0, -0.99999994, 0), (0, -0.99999994, 0), (0, -0.99999994, 0), (1, 0, 0), (1, 0, 0), (1, 0, 0), (1, 0, 0), (0, 0, 0.99999994), (0, 0, 0.99999994), (0, 0, 0.99999994), (0, 0, 0.99999994), (0, 0, -0.99999994), (0, 0, -0.99999994), (0, 0, -0.99999994), (0, 0, -0.99999994), (0, 0, 0.99999994), (0, 0, 0.99999994), (0, 0, 0.99999994), (0, 0, 0.99999994), (0, 0, -0.99999994), (0, 0, -0.99999994), (0, 0, -0.99999994), (0, 0, -0.99999994), (-0.99999994, 0, 0), (-0.99999994, 0, 0), (-0.99999994, 0, 0), (-0.99999994, 0, 0), (0.99999994, 0, 0), (0.99999994, 0, 0), (0.99999994, 0, 0), (0.99999994, 0, 0), (0, -1, 0), (0, -1, 0), (0, -1, 0), (0, -1, 0), (0, 0, 0.99999994), (0, 0, 0.99999994), (0, 0, 0.99999994), (0, 0, 0.99999994), (0, 0, -0.99999994), (0, 0, -0.99999994), (0, 0, -0.99999994), (0, 0, -0.99999994), (-0.99999994, 0, 0), (-0.99999994, 0, 0), (-0.99999994, 0, 0), (-0.99999994, 0, 0), (0.99999994, 0, 0), (0.99999994, 0, 0), (0.99999994, 0, 0), (0.99999994, 0, 0), (0, -1, 0), (0, -1, 0), (0, -1, 0), (0, -1, 0), (0, 0, 0.99999994), (0, 0, 0.99999994), (0, 0, 0.99999994), (0, 0, 0.99999994), (0, 0, -0.99999994), (0, 0, -0.99999994), (0, 0, -0.99999994), (0, 0, -0.99999994), (-1, 0, 0), (-1, 0, 0), (-1, 0, 0), (-1, 0, 0), (1, 0, 0), (1, 0, 0), (1, 0, 0), (1, 0, 0), (0, -0.99999994, 0), (0, -0.99999994, 0), (0, -0.99999994, 0), (0, -0.99999994, 0), (0, 0, 0.99999994), (0, 0, 0.99999994), (0, 0, 0.99999994), (0, 0, 0.99999994), (0, 0, -0.99999994), (0, 0, -0.99999994), (0, 0, -0.99999994), (0, 0, -0.99999994), (-0.99999994, 0, 0), (-0.99999994, 0, 0), (-0.99999994, 0, 0), (-0.99999994, 0, 0), (0.99999994, 0, 0), (0.99999994, 0, 0), (0.99999994, 0, 0), (0.99999994, 0, 0), (0, -1, 0), (0, -1, 0), (0, -1, 0), (0, -1, 0), (0, 0, 0.99999994), (0, 0, 0.99999994), (0, 0, 0.99999994), (0, 0, 0.99999994), (0, 0, -0.99999994), (0, 0, -0.99999994), (0, 0, -0.99999994), (0, 0, -0.99999994), (-0.99999994, 0, 0), (-0.99999994, 0, 0), (-0.99999994, 0, 0), (-0.99999994, 0, 0), (0.99999994, 0, 0), (0.99999994, 0, 0), (0.99999994, 0, 0), (0.99999994, 0, 0), (0, -1, 0), (0, -1, 0), (0, -1, 0), (0, -1, 0), (0, 0, 0.99999994), (0, 0, 0.99999994), (0, 0, 0.99999994), (0, 0, 0.99999994), (0, 0, -0.99999994), (0, 0, -0.99999994), (0, 0, -0.99999994), (0, 0, -0.99999994), (-0.99999994, 0, 0), (-0.99999994, 0, 0), (-0.99999994, 0, 0), (-0.99999994, 0, 0), (0.99999994, 0, 0), (0.99999994, 0, 0), (0.99999994, 0, 0), (0.99999994, 0, 0), (0, -1, 0), (0, -1, 0), (0, -1, 0), (0, -1, 0)] (
                interpolation = "faceVarying"
            )
            point3f[] points = [(-0.22186257, -0.04510721, -0.008412863), (-0.22186257, -0.04510721, 0.8981816), (-0.22186257, -0.0068910904, -0.008412863), (-0.22186257, -0.0068910904, 0.8981816), (0.22186257, -0.04510721, -0.008412863), (0.22186257, -0.04510721, 0.8981816), (0.22186257, -0.0068910904, -0.008412863), (0.22186257, -0.0068910904, 0.8981816), (0.056894023, -0.0068910904, -0.008412863), (0.056894023, -0.0068910904, 0.8981816), (0.056894023, -0.04510721, -0.008412863), (0.056894023, -0.04510721, 0.8981816), (0.17895883, -0.0068910904, 0.8981816), (0.17895883, -0.04510721, -0.008412863), (0.17895883, -0.0068910904, -0.008412863), (0.17895883, -0.04510721, 0.8981816), (0.16223396, -0.04510721, 0.8372294), (0.073618874, -0.04510721, 0.8372294), (0.073618874, -0.04510721, 0.05253945), (0.16223396, -0.04510721, 0.05253945), (0.16223396, -0.056457795, 0.8372294), (0.073618874, -0.056457795, 0.8372294), (0.073618874, -0.056457795, 0.05253945), (0.16223396, -0.056457795, 0.05253945), (0.15151526, -0.056457795, 0.82585436), (0.08433758, -0.056457795, 0.82585436), (0.08433758, -0.056457795, 0.063914515), (0.15151526, -0.056457795, 0.063914515), (0.15151526, -0.048644282, 0.82585436), (0.08433758, -0.048644282, 0.82585436), (0.08433758, -0.048644282, 0.063914515), (0.15151526, -0.048644282, 0.063914515), (-0.19823797, -0.04944084, 0.81877047), (-0.19823797, -0.042978, 0.81877047), (0.08172369, -0.042978, 0.81877047), (0.08172369, -0.04944084, 0.81877047), (-0.19823797, -0.04944084, 0.8098886), (-0.19823797, -0.042978, 0.8098886), (0.08172369, -0.04944084, 0.8098886), (0.08172369, -0.042978, 0.8098886), (-0.19823797, -0.04944084, 0.67133147), (-0.19823797, -0.042978, 0.67133147), (0.08172369, -0.042978, 0.67133147), (0.08172369, -0.04944084, 0.67133147), (-0.19823797, -0.04944084, 0.6624496), (-0.19823797, -0.042978, 0.6624496), (0.08172369, -0.04944084, 0.6624496), (0.08172369, -0.042978, 0.6624496), (-0.19823797, -0.04944084, 0.52389234), (-0.19823797, -0.042978, 0.52389234), (0.08172369, -0.042978, 0.52389234), (0.08172369, -0.04944084, 0.52389234), (-0.19823797, -0.04944084, 0.51501054), (-0.19823797, -0.042978, 0.51501054), (0.08172369, -0.04944084, 0.51501054), (0.08172369, -0.042978, 0.51501054), (-0.19823797, -0.04944084, 0.37645328), (-0.19823797, -0.042978, 0.37645328), (0.08172369, -0.042978, 0.37645328), (0.08172369, -0.04944084, 0.37645328), (-0.19823797, -0.04944084, 0.3675714), (-0.19823797, -0.042978, 0.3675714), (0.08172369, -0.04944084, 0.3675714), (0.08172369, -0.042978, 0.3675714), (-0.19823797, -0.04944084, 0.22901423), (-0.19823797, -0.042978, 0.22901423), (0.08172369, -0.042978, 0.22901423), (0.08172369, -0.04944084, 0.22901423), (-0.19823797, -0.04944084, 0.22013235), (-0.19823797, -0.042978, 0.22013235), (0.08172369, -0.04944084, 0.22013235), (0.08172369, -0.042978, 0.22013235), (-0.19823797, -0.04944084, 0.08157517), (-0.19823797, -0.042978, 0.08157517), (0.08172369, -0.042978, 0.08157517), (0.08172369, -0.04944084, 0.08157517), (-0.19823797, -0.04944084, 0.0726933), (-0.19823797, -0.042978, 0.0726933), (0.08172369, -0.04944084, 0.0726933), (0.08172369, -0.042978, 0.0726933)]
            texCoord2f[] primvars:st = [(0.43438444, 0.5192038), (0.39256775, 0.69659865), (0.45085862, 0.6060282), (0.43438444, 0.69659865), (0.3925677, 0.5192038), (0.45085862, 0.6060282), (0.42614734, 0.5192038), (0.44262153, 0.6060282), (0.42614734, 0.69659865), (0.45909578, 0.6060282), (0.43438444, 0.5192038), (0.45085862, 0.5192038), (0.29692724, 0.69659865), (0.43438444, 0.69659865), (0.2969272, 0.5192038), (0.45085862, 0.5192038), (0.44262153, 0.5192038), (0.44262153, 0.69659865), (0.45909572, 0.5192038), (0.44262153, 0.5514835), (0.45909572, 0.5514835), (0.45085862, 0.5514835), (0.3324845, 0.69659865), (0.45085862, 0.5514835), (0.3324845, 0.5192038), (0.45909572, 0.52759886), (0.45085862, 0.52759886), (0.30617476, 0.69659865), (0.44262153, 0.52759886), (0.45085862, 0.52759886), (0.3061747, 0.5192038), (0.46398872, 0.67274535), (0.30977952, 0.53113043), (0.46980357, 0.6287649), (0.32887962, 0.53113043), (0.46154228, 0.5192038), (0.46980357, 0.6461044), (0.32887968, 0.6846721), (0.46154228, 0.67274535), (0.467357, 0.6634438), (0.46398872, 0.5192038), (0.30977958, 0.6846721), (0.467357, 0.6461044), (0.46154228, 0.67274535), (0.467357, 0.6287649), (0.39256775, 0.5192038), (0.45909578, 0.5192038), (0.467357, 0.6461044), (0.41166782, 0.5192038), (0.45909578, 0.67274535), (0.46980357, 0.6634438), (0.41166782, 0.67274535), (0.46154228, 0.5192038), (0.46980357, 0.6461044), (0.39256775, 0.67274535), (0.46398872, 0.5192038), (0.394878, 0.52142966), (0.44598976, 0.6608088), (0.4093575, 0.52142966), (0.4656729, 0.6682939), (0.44598976, 0.6739536), (0.4093575, 0.67051965), (0.4656729, 0.5192038), (0.44262153, 0.6739536), (0.46398878, 0.6682939), (0.39487806, 0.67051965), (0.44262153, 0.6608088), (0.46567285, 0.5192038), (0.36568213, 0.020857304), (0.44430563, 0.6608088), (0.38373148, 0.020857304), (0.467357, 0.6682939), (0.44430563, 0.6739536), (0.38373148, 0.20670506), (0.467357, 0.5192038), (0.44430563, 0.6739536), (0.4656729, 0.6682939), (0.36568213, 0.20670506), (0.44430563, 0.6608088), (0.4729291, 0.5739843), (0.44877574, 0.6608088), (0.45277303, 0.6608088), (0.47432205, 0.5739843), (0.4501688, 0.6608088), (0.47432205, 0.5192038), (0.44598976, 0.6608088), (0.47292906, 0.5192038), (0.4473828, 0.6608088), (0.45277303, 0.6060282), (0.46875006, 0.6287649), (0.44877574, 0.66254675), (0.45085862, 0.6608088), (0.467357, 0.6287649), (0.4501688, 0.66254675), (0.46875, 0.5739843), (0.4473828, 0.66254675), (0.45085862, 0.6060282), (0.467357, 0.5739843), (0.44598976, 0.66254675), (0.46875006, 0.6287649), (0.4473828, 0.6608088), (0.4470298, 0.6608088), (0.47014305, 0.6287649), (0.44877574, 0.6608088), (0.47014305, 0.5739843), (0.45156178, 0.66254675), (0.46875, 0.5739843), (0.45295477, 0.66254675), (0.4470298, 0.6060282), (0.46875006, 0.5739843), (0.4473828, 0.66254675), (0.4451154, 0.6608088), (0.467357, 0.5739843), (0.44877574, 0.66254675), (0.46875, 0.5192038), (0.45295477, 0.66428465), (0.4451154, 0.6060282), (0.467357, 0.5192038), (0.45156178, 0.66428465), (0.47014305, 0.5739843), (0.44877574, 0.66254675), (0.45468742, 0.6608088), (0.47153604, 0.5739843), (0.4501688, 0.66254675), (0.47153604, 0.5192038), (0.4543478, 0.66254675), (0.47014305, 0.5192038), (0.45574078, 0.66254675), (0.45468742, 0.6060282), (0.47014305, 0.5739843), (0.44877574, 0.66428465), (0.45277303, 0.6608088), (0.46875006, 0.5739843), (0.4501688, 0.66428465), (0.47014305, 0.5192038), (0.45574078, 0.66428465), (0.45277303, 0.6060282), (0.46875, 0.5192038), (0.4543478, 0.66428465), (0.47014305, 0.6287649), (0.4543478, 0.6608088), (0.44453594, 0.6608088), (0.47153604, 0.6287649), (0.45574078, 0.6608088), (0.47153604, 0.5739843), (0.4501688, 0.66254675), (0.47014305, 0.5739843), (0.45156178, 0.66254675), (0.44453594, 0.6060282), (0.45886648, 0.6608088), (0.4543478, 0.66254675), (0.44262153, 0.6608088), (0.45747346, 0.6608088), (0.45574078, 0.66254675), (0.45886642, 0.6060282), (0.45156178, 0.66428465), (0.44262153, 0.6060282), (0.45747343, 0.6060282), (0.4501688, 0.66428465), (0.47153604, 0.6287649), (0.45295474, 0.66254675), (0.45085862, 0.6608088), (0.47292906, 0.6287649), (0.45434773, 0.66254675), (0.47292906, 0.5739843), (0.4501688, 0.6608088), (0.47153604, 0.5739843), (0.45156178, 0.6608088), (0.45085862, 0.6060282), (0.45608044, 0.6608088), (0.45295474, 0.66428465), (0.44894427, 0.6608088), (0.45468742, 0.6608088), (0.45434773, 0.66428465), (0.45608044, 0.6060282), (0.45156178, 0.66254675), (0.44894427, 0.6060282), (0.45468742, 0.6060282), (0.4501688, 0.66254675), (0.47153604, 0.5739843), (0.45156178, 0.6608088), (0.44894427, 0.6608088), (0.47292906, 0.5739843), (0.45295477, 0.6608088), (0.47292906, 0.5192038), (0.45295474, 0.6608088), (0.47153604, 0.5192038), (0.45434773, 0.6608088), (0.44894415, 0.6060282), (0.45747343, 0.6608088), (0.45156178, 0.66254675), (0.4470298, 0.6608088), (0.45608047, 0.6608088), (0.45295477, 0.66254675), (0.45747343, 0.6060282), (0.45434773, 0.66254675), (0.4470298, 0.6060282), (0.45608044, 0.6060282), (0.45295474, 0.66254675)] (
                interpolation = "faceVarying"
            )
            int[] primvars:st:indices = [0, 3, 8, 6, 16, 17, 13, 10, 22, 24, 4, 1, 28, 16, 11, 26, 20, 9, 5, 23, 25, 20, 23, 29, 7, 19, 21, 2, 24, 22, 37, 34, 12, 14, 30, 27, 18, 25, 29, 15, 19, 28, 26, 21, 40, 31, 43, 52, 27, 30, 32, 41, 30, 24, 34, 32, 22, 27, 41, 37, 51, 54, 65, 61, 35, 38, 49, 46, 39, 42, 53, 50, 33, 36, 47, 44, 64, 55, 67, 76, 45, 48, 58, 56, 54, 45, 56, 65, 48, 51, 61, 58, 77, 68, 70, 73, 59, 62, 74, 71, 63, 66, 78, 75, 57, 60, 72, 69, 84, 82, 79, 86, 97, 94, 89, 92, 83, 93, 90, 80, 87, 95, 98, 85, 81, 91, 96, 88, 104, 102, 99, 106, 117, 114, 109, 112, 103, 113, 110, 100, 107, 115, 118, 105, 101, 111, 116, 108, 124, 122, 119, 126, 137, 134, 129, 132, 123, 133, 130, 120, 127, 135, 138, 125, 121, 131, 136, 128, 144, 142, 139, 146, 157, 154, 149, 152, 143, 153, 150, 140, 147, 155, 158, 145, 141, 151, 156, 148, 164, 162, 159, 166, 177, 174, 169, 172, 163, 173, 170, 160, 167, 175, 178, 165, 161, 171, 176, 168, 184, 182, 179, 186, 197, 194, 189, 192, 183, 193, 190, 180, 187, 195, 198, 185, 181, 191, 196, 188]
            uniform token subdivisionScheme = "none"
            custom string userProperties:blender:data_name = "Cube.173"
        }
    }

    def Scope "_materials"
    {
        def Material "Texture"
        {
            token outputs:surface.connect = </root/_materials/Texture/Principled_BSDF.outputs:surface>
            custom string userProperties:blender:data_name = "Texture"

            def Shader "Principled_BSDF"
            {
                uniform token info:id = "UsdPreviewSurface"
                float inputs:clearcoat = 0
                float inputs:clearcoatRoughness = 0.03
                color3f inputs:diffuseColor = (0.8, 0.8, 0.8)
                color3f inputs:emissiveColor = (0, 0, 0)
                float inputs:ior = 1.5
                float inputs:metallic = 0
                float inputs:opacity = 1
                float inputs:roughness = 0.5527864
                float inputs:specular = 1
                token outputs:surface
            }
        }
    }
}

