#usda 1.0
(
    defaultPrim = "root"
    doc = "Blender v5.1.2"
    metersPerUnit = 1
    upAxis = "Y"
)

def Xform "root" (
    customData = {
        dictionary Blender = {
            bool generated = 1
        }
    }
)
{
    float3 xformOp:rotateXYZ = (-90, -0, 0)
    uniform token[] xformOpOrder = ["xformOp:rotateXYZ"]

    def Xform "Spaceship"
    {
        custom string userProperties:blender:object_name = "Spaceship"

        def Mesh "Cube" (
            active = true
            prepend apiSchemas = ["MaterialBindingAPI"]
        )
        {
            uniform bool doubleSided = 1
            float3[] extent = [(-1.6836493, -4.056996, -0.0025176131), (1.6836493, 3.2247396, 1.064508)]
            int[] faceVertexCounts = [3, 4, 4, 4, 4, 4, 4, 4, 4, 4, 4, 4, 4, 4, 4, 3, 3, 4, 4, 4, 4, 4, 4, 4, 4, 4, 4, 4, 3, 3, 4, 4, 4, 4, 4, 4, 4, 4, 4, 4, 4, 4, 4, 4, 4, 4, 4, 4, 4, 4, 4, 4, 4, 4, 4, 4, 4, 5, 4, 4, 4, 4, 4, 4, 4, 4, 4, 4, 4, 4, 4, 4, 3, 4, 4, 4, 4, 4, 3, 4, 4, 3, 4, 4, 4, 4, 4, 4, 4, 4, 4, 4, 4, 4, 5, 4, 3, 4, 4, 4, 4, 4, 4, 4, 4, 4, 3, 4, 4, 4, 4, 4, 4, 4, 4, 4, 4, 4, 4, 4, 4, 4, 4, 4, 4, 5, 4, 6, 4, 4, 4, 4, 4, 4, 4, 4, 4, 4, 4, 4, 4, 3, 4, 4, 4, 4, 4, 3, 4, 4, 4, 4, 4, 4, 4, 4, 3, 3, 4, 4, 4, 4, 4, 4, 3, 3, 4, 4, 4, 4, 4, 4, 4, 4, 4, 4, 4, 4, 4, 4, 4, 4, 4, 4, 4, 4, 4, 4, 4, 4, 4, 4, 5, 4, 4, 4, 4, 4, 4, 4, 4, 4, 4, 4, 4, 4, 4, 3, 4, 4, 4, 4, 4, 3, 4, 4, 3, 4, 4, 4, 4, 4, 4, 4, 4, 4, 4, 4, 5, 4, 3, 4, 4, 4, 4, 4, 4, 4, 3, 4, 4, 4, 4, 4, 4, 4, 4, 4, 4, 4, 4, 4, 4, 5, 4, 6, 4, 4, 4, 4, 4, 4, 4, 4, 4, 4, 4, 4, 4, 3, 4, 4, 4, 4, 4, 4]
            int[] faceVertexIndices = [14, 12, 4, 13, 15, 10, 3, 3, 139, 140, 4, 103, 239, 228, 92, 0, 1, 2, 5, 140, 226, 90, 4, 2, 8, 94, 92, 14, 4, 90, 93, 7, 0, 11, 9, 13, 7, 9, 15, 2, 1, 6, 8, 237, 158, 22, 101, 100, 102, 20, 23, 92, 228, 138, 2, 23, 159, 236, 100, 15, 16, 10, 15, 9, 16, 100, 236, 152, 16, 152, 146, 10, 16, 27, 32, 65, 61, 8, 6, 12, 14, 141, 237, 101, 5, 102, 99, 19, 20, 99, 101, 22, 19, 3, 4, 12, 13, 19, 18, 21, 20, 157, 159, 23, 21, 158, 154, 18, 22, 20, 21, 23, 19, 22, 18, 226, 153, 17, 90, 33, 31, 40, 41, 24, 25, 30, 29, 7, 13, 36, 35, 1, 0, 25, 24, 30, 25, 37, 38, 32, 59, 67, 65, 31, 30, 38, 40, 34, 35, 42, 26, 40, 38, 46, 48, 39, 41, 49, 47, 35, 36, 43, 42, 0, 7, 35, 34, 25, 0, 34, 37, 28, 33, 41, 39, 13, 28, 39, 36, 45, 47, 49, 48, 42, 43, 47, 45, 26, 42, 45, 44, 44, 45, 48, 46, 41, 40, 48, 49, 37, 34, 26, 44, 36, 39, 47, 43, 38, 37, 44, 46, 113, 6, 54, 50, 1, 24, 53, 55, 56, 113, 50, 51, 57, 31, 33, 115, 114, 12, 27, 61, 60, 62, 60, 61, 63, 63, 61, 65, 64, 64, 65, 67, 66, 58, 33, 97, 98, 13, 12, 60, 62, 66, 67, 71, 70, 28, 13, 62, 63, 69, 68, 70, 71, 67, 59, 69, 71, 59, 58, 68, 69, 84, 83, 76, 85, 74, 77, 78, 79, 28, 63, 75, 72, 77, 95, 78, 70, 68, 79, 78, 98, 97, 73, 74, 96, 95, 77, 76, 80, 83, 88, 86, 82, 81, 84, 85, 74, 73, 82, 77, 74, 82, 85, 72, 75, 83, 80, 76, 77, 85, 58, 98, 79, 68, 33, 28, 72, 97, 87, 86, 88, 89, 83, 84, 89, 88, 81, 80, 86, 87, 84, 81, 87, 89, 94, 93, 104, 105, 93, 90, 17, 104, 92, 94, 105, 103, 8, 14, 93, 94, 10, 146, 139, 3, 81, 82, 73, 80, 29, 30, 31, 57, 56, 64, 66, 95, 96, 98, 74, 79, 63, 64, 96, 75, 66, 70, 78, 95, 76, 83, 75, 96, 72, 80, 73, 97, 104, 17, 108, 107, 9, 11, 99, 102, 154, 157, 21, 18, 91, 227, 239, 103, 16, 9, 102, 100, 0, 5, 11, 105, 104, 107, 106, 11, 5, 101, 99, 106, 242, 227, 91, 153, 244, 108, 17, 108, 244, 243, 107, 107, 243, 242, 106, 103, 105, 106, 91, 29, 56, 51, 52, 57, 110, 109, 56, 110, 112, 111, 109, 112, 58, 59, 111, 53, 52, 119, 120, 6, 1, 55, 54, 110, 57, 123, 126, 57, 114, 122, 123, 114, 115, 128, 122, 32, 27, 113, 56, 27, 12, 6, 113, 59, 32, 56, 109, 111, 24, 29, 52, 53, 116, 121, 120, 119, 118, 117, 54, 55, 121, 116, 55, 53, 120, 121, 51, 50, 117, 118, 52, 51, 118, 119, 50, 54, 116, 117, 123, 122, 129, 130, 126, 123, 130, 133, 125, 127, 134, 132, 58, 112, 127, 125, 33, 58, 125, 124, 112, 110, 126, 127, 115, 33, 124, 128, 134, 133, 129, 135, 133, 130, 129, 131, 132, 134, 135, 128, 124, 131, 135, 127, 126, 133, 134, 124, 125, 132, 131, 122, 128, 135, 129, 150, 140, 148, 149, 139, 146, 151, 136, 141, 138, 137, 138, 228, 230, 144, 150, 229, 226, 140, 143, 145, 147, 136, 149, 151, 145, 143, 138, 144, 142, 137, 236, 159, 156, 238, 151, 146, 152, 151, 152, 145, 163, 197, 201, 168, 144, 150, 148, 142, 238, 156, 155, 235, 235, 155, 158, 237, 139, 149, 148, 140, 155, 156, 157, 154, 156, 159, 157, 155, 154, 158, 169, 177, 176, 167, 160, 165, 166, 161, 143, 171, 172, 149, 137, 160, 161, 136, 166, 174, 173, 161, 168, 201, 203, 195, 167, 176, 174, 166, 170, 162, 178, 171, 176, 184, 182, 174, 175, 183, 185, 177, 171, 178, 179, 172, 136, 170, 171, 143, 161, 173, 170, 136, 164, 175, 177, 169, 149, 172, 175, 164, 181, 184, 185, 183, 178, 181, 183, 179, 162, 180, 181, 178, 180, 182, 184, 181, 177, 185, 184, 176, 173, 180, 162, 170, 172, 179, 183, 175, 174, 182, 180, 173, 249, 186, 190, 142, 137, 191, 189, 160, 192, 187, 186, 249, 193, 250, 251, 169, 167, 148, 196, 197, 163, 198, 199, 197, 196, 199, 200, 201, 197, 200, 202, 203, 201, 194, 234, 233, 169, 149, 198, 196, 148, 202, 206, 207, 203, 164, 199, 198, 149, 205, 207, 206, 204, 203, 207, 205, 195, 195, 205, 204, 194, 220, 221, 212, 219, 210, 215, 214, 213, 164, 208, 211, 199, 213, 214, 231, 206, 214, 215, 204, 234, 210, 209, 233, 232, 212, 213, 231, 216, 222, 224, 219, 218, 221, 220, 217, 210, 218, 209, 213, 221, 218, 210, 208, 216, 219, 211, 212, 221, 213, 194, 204, 215, 234, 169, 233, 208, 164, 223, 225, 224, 222, 219, 224, 225, 220, 217, 223, 222, 216, 220, 225, 223, 217, 230, 241, 240, 229, 229, 240, 153, 226, 228, 239, 241, 230, 144, 230, 229, 150, 217, 216, 209, 218, 165, 192, 193, 167, 166, 200, 232, 231, 202, 234, 215, 210, 199, 211, 232, 200, 202, 231, 214, 206, 212, 232, 211, 219, 208, 233, 209, 216, 240, 243, 244, 153, 145, 238, 235, 147, 152, 236, 238, 145, 136, 147, 141, 241, 242, 243, 240, 147, 235, 237, 141, 239, 227, 242, 241, 165, 188, 187, 192, 193, 192, 245, 246, 246, 245, 247, 248, 248, 247, 195, 194, 189, 256, 255, 188, 142, 190, 191, 137, 246, 262, 259, 193, 193, 259, 258, 250, 250, 258, 264, 251, 168, 192, 249, 163, 163, 249, 142, 148, 195, 247, 245, 192, 168, 160, 189, 188, 165, 252, 253, 254, 255, 256, 257, 190, 252, 257, 191, 191, 257, 256, 189, 187, 254, 253, 186, 188, 255, 254, 187, 186, 253, 252, 190, 259, 266, 265, 258, 262, 269, 266, 259, 261, 268, 270, 263, 194, 261, 263, 248, 169, 260, 261, 194, 248, 263, 262, 246, 251, 264, 260, 169, 270, 271, 265, 269, 269, 265, 266, 267, 271, 270, 268, 264, 271, 267, 260, 263, 270, 269, 262, 260, 267, 268, 261, 258, 265, 271, 264, 141, 5, 2, 138]
            rel material:binding = </root/_materials/Black>
            normal3f[] normals = [(0, 1, 1.1734152e-7), (0, 1, 2.6836182e-7), (0, 1, 0), (0.8902528, -0.027062899, -0.45466188), (0.8902528, -0.027062899, -0.45466188), (0.8902528, -0.027062899, -0.45466188), (0.8902528, -0.027062899, -0.45466188), (0, 0, -1), (0, 0, -1), (0, 0, -1), (0, 0, -1), (0, 1, -0.0000016397724), (0, 1, -0.0000016397724), (0, 1, -0.000002796633), (0, 1, -0.000002796633), (0.7580024, 0.00046601667, 0.6522516), (0.76005536, -0.00039629883, 0.64985824), (0.76005536, -0.00039629883, 0.64985824), (0.7588704, 0.00010174581, 0.65124166), (0, 0, -1), (0, 0, -1), (0, 0, -1), (0, 0, -1), (1, 0, 0), (1, 0, 0), (1, 0, 0), (1, 0, 0), (1, 0, 0), (1, 0, 0), (1, 0, 0), (1, 0, 0), (0.9943156, -0.034466166, 0.10073997), (0.9943156, -0.034466166, 0.10073997), (0.9943156, -0.034466166, 0.10073997), (0.9943156, -0.034466166, 0.10073997), (0.9903664, -0.056004062, -0.1266411), (0.9903664, -0.056004062, -0.1266411), (0.9903664, -0.056004062, -0.1266411), (0.9903664, -0.056004062, -0.1266411), (0, 1, -3.6050116e-7), (0, 1, -3.6050116e-7), (0, 1, -9.5175645e-9), (0, 1, -1.0196665e-8), (0, -0.8291255, -0.55906236), (0, -0.8291255, -0.55906236), (0, -0.8291255, -0.55906236), (0, -0.8291255, -0.55906236), (-0.9497826, 0.27565962, 0.14807059), (-0.9497826, 0.27565962, 0.14807059), (-0.9497826, 0.27565962, 0.14807059), (-0.9497826, 0.27565962, 0.14807059), (0, 0, 1), (0, 0, 1), (0, -0.0005950997, 0.99999976), (0, -0.0005950997, 0.99999976), (0, 0.71421134, 0.69993), (0, 0.71421134, 0.69993), (0, 0.71421134, 0.69993), (0, 0.71421134, 0.69993), (0.8528525, -0.52175635, -0.020319669), (0.8528525, -0.52175635, -0.020319669), (0.8528525, -0.52175635, -0.020319669), (0.86969316, -0.46647805, 0.16134451), (0.86969316, -0.46647805, 0.16134451), (0.86969316, -0.46647805, 0.16134451), (0, -0.5165759, 0.85624135), (0, -0.5165759, 0.85624135), (0, -0.5165759, 0.85624135), (0, -0.5165759, 0.85624135), (0, -1, 1.5158251e-7), (0, -1, 1.5158251e-7), (0, -1, 1.5158251e-7), (0, -1, 1.5158251e-7), (0.010594161, 0.99992955, -0.0053480617), (-0.0007793603, 0.9999995, 0.00072342437), (0, 1, 2.1125524e-7), (0, 1, 0), (0, 1, -1.0196665e-8), (0, 1, -9.5175645e-9), (0, 1, 2.6836182e-7), (0, 1, 1.1734152e-7), (0, -0.80746394, 0.58991706), (0, -0.80746394, 0.58991706), (0, -0.80746394, 0.58991706), (0, -0.80746394, 0.58991706), (-0.998909, 0.027824199, -0.037504975), (-0.998909, 0.027824199, -0.037504975), (-0.998909, 0.027824199, -0.037504975), (-0.998909, 0.027824199, -0.037504975), (-0.8976356, -0.4037175, -0.17681248), (-0.8976356, -0.4037175, -0.17681248), (-0.8976356, -0.4037175, -0.17681248), (-0.8976356, -0.4037175, -0.17681248), (0.8553895, -1.7026768e-8, -0.5179855), (0.8553895, -1.7026768e-8, -0.5179855), (0.8553895, -1.7026768e-8, -0.5179855), (0.8553895, -1.7026768e-8, -0.5179855), (0.6788295, -0.41406554, 0.6064158), (0.6788295, -0.41406554, 0.6064158), (0.6788295, -0.41406554, 0.6064158), (0.6788295, -0.41406554, 0.6064158), (0, -0.8423769, 0.5388889), (0, -0.8423769, 0.5388889), (0, -0.8423769, 0.5388889), (0, -0.8423769, 0.5388889), (0, -0.09212552, 0.99574745), (0, -0.09212552, 0.99574745), (0, -0.09212552, 0.99574745), (0, -0.09212552, 0.99574745), (0.765209, -0.5423069, 0.34692705), (0.765209, -0.5423069, 0.34692705), (0.765209, -0.5423069, 0.34692705), (0.7059086, -0.06525277, 0.70529073), (0.7059086, -0.06525277, 0.70529073), (0.7059086, -0.06525277, 0.70529073), (0, 1, -0.0000015746684), (0, 1, -0.000001026145), (0, 1, -0.000001026145), (0, 1, -0.0000015746684), (-0.000002037754, -1, 0.00000277252), (-0.000004418878, -1, -2.460793e-7), (-0.0000044338017, -1, -9.4116366e-8), (-0.000002746848, -1, 0.0000024084502), (-0.020991666, -0.0005412605, 0.9997795), (-0.021607509, 0, 0.99976647), (-0.021607509, 0, 0.99976647), (-0.021012422, -0.0005230178, 0.99977905), (0.0000010283948, -1, -1.301052e-8), (0.003868026, -0.99998987, 0.0023102618), (0.0063935975, -0.9999745, -0.0031607358), (0.0000010272652, -1, -3.7236067e-8), (-0.49219242, 1.2846979e-8, 0.8704864), (-0.49219242, 1.2846979e-8, 0.8704864), (-0.49219242, 1.2846979e-8, 0.8704864), (-0.49219242, 1.2846979e-8, 0.8704864), (-0.0000019799136, -1, -0.000003013094), (0.006522998, -0.9999725, 0.0035213693), (0.0002969266, -0.99999994, 0.00015655928), (-0.0000023231812, -1, -0.000002826616), (-0.0007793603, 0.9999995, 0.00072342437), (-6.2718875e-8, 1, 2.6049003e-9), (0, 1, 8.3697564e-8), (0, 1, 2.1125524e-7), (-0.000004418878, -1, -2.460793e-7), (-0.0000019799136, -1, -0.000003013094), (-0.0000023231812, -1, -0.000002826616), (-0.0000044338017, -1, -9.4116366e-8), (0.9880094, 0, 0.15439412), (0.9880094, 0, 0.15439412), (0.9880094, 0, 0.15439412), (0.9880094, 0, 0.15439412), (-0.92574626, 0, -0.3781453), (-0.92574626, 0, -0.3781453), (-0.92574626, 0, -0.3781453), (-0.92574626, 0, -0.3781453), (-0.18895234, 0, 0.9819862), (-0.18895234, 0, 0.9819862), (-0.18895234, 0, 0.9819862), (-0.18895234, 0, 0.9819862), (0.9929008, 0, -0.11894521), (0.9929008, 0, -0.11894521), (0.9929008, 0, -0.11894521), (0.9929008, 0, -0.11894521), (0.00055012666, -0.9999998, 0.0002962398), (0.0000010283948, -1, -1.301052e-8), (0.0000010272652, -1, -3.7236067e-8), (0.006848088, -0.9999696, 0.0037088345), (0.006522998, -0.9999725, 0.0035213693), (0.00055012666, -0.9999998, 0.0002962398), (0.006848088, -0.9999696, 0.0037088345), (0.0002969266, -0.99999994, 0.00015655928), (0.0031551805, -0.99998665, -0.0041026296), (-0.000002037754, -1, 0.00000277252), (-0.000002746848, -1, 0.0000024084502), (0.00029982853, -0.9999999, -0.00014493684), (0.003868026, -0.99998987, 0.0023102618), (0.0031551805, -0.99998665, -0.0041026296), (0.00029982853, -0.9999999, -0.00014493684), (0.0063935975, -0.9999745, -0.0031607358), (0, -1, 0), (0, -1, 0), (0, -1, 0), (0, -1, 0), (0.5043962, -0.863211, -0.021246806), (0.5043962, -0.863211, -0.021246806), (0.5043962, -0.863211, -0.021246806), (0.5043962, -0.863211, -0.021246806), (0.50488704, -0.8627395, 0.02774244), (0.50488704, -0.8627395, 0.02774244), (0.50488704, -0.8627395, 0.02774244), (0.50488704, -0.8627395, 0.02774244), (0, -1, 0), (0, -1, 0), (0, -1, 0), (0, -1, 0), (-0.9538196, 0, 0.30038008), (-0.9538196, 0, 0.30038008), (-0.9538196, 0, 0.30038008), (-0.9538196, 0, 0.30038008), (0.47733638, 0, -0.87872064), (0.47733638, 0, -0.87872064), (0.47733638, 0, -0.87872064), (0.47733638, 0, -0.87872064), (0.5965816, 0, 0.8025525), (0.5965816, 0, 0.8025525), (0.5965816, 0, 0.8025525), (0.5965816, 0, 0.8025525), (-0.09332441, 0, -0.9956358), (-0.09332441, 0, -0.9956358), (-0.09332441, 0, -0.9956358), (-0.09332441, 0, -0.9956358), (0.014459861, 0.21101683, -0.97737545), (0.014461324, 0.21122313, -0.97733086), (0.014461324, 0.21122313, -0.97733086), (0.014459853, 0.2110157, -0.9773757), (-0.47054857, -0.008493659, 0.8823333), (-0.47054857, -0.008493659, 0.8823333), (-0.47054857, -0.008493659, 0.8823333), (-0.47054857, -0.008493659, 0.8823333), (0.014458384, 0.21080883, -0.97742033), (0.014459861, 0.21101683, -0.97737545), (0.014459853, 0.2110157, -0.9773757), (0.014458384, 0.21080883, -0.97742033), (0.9614573, 0, -0.27495435), (0.9614573, 0, -0.27495435), (0.9614573, 0, -0.27495435), (0.9614573, 0, -0.27495435), (0.9614573, 0, -0.27495435), (0.024262797, 0.99970555, 0.00028339264), (0.024262797, 0.99970555, 0.00028339264), (0.024262797, 0.99970555, 0.00028339264), (0.024262797, 0.99970555, 0.00028339264), (-0.72316885, 1.2835342e-8, -0.6906714), (-0.72316885, 1.2835342e-8, -0.6906714), (-0.72316885, 1.2835342e-8, -0.6906714), (-0.72316885, 1.2835342e-8, -0.6906714), (-0.0026183245, 0.0018917149, -0.9999948), (-0.003523566, 0.00001770506, -0.99999374), (-0.003523566, 0.00001770506, -0.99999374), (-0.0025825077, 0.0019658606, -0.9999947), (-0.052945916, 0.00074624206, -0.99859715), (-0.0550851, 0.00027678694, -0.99848163), (-0.0550851, 0.00027678694, -0.99848163), (-0.05298101, 0.0007385394, -0.99859524), (0.028296642, -0.014750687, 0.9994908), (0.028296642, -0.014750687, 0.9994908), (0.028296642, -0.014750687, 0.9994908), (0.028296642, -0.014750687, 0.9994908), (-0.9765411, 2.7438785e-8, -0.21533103), (-0.9765411, 2.7438785e-8, -0.21533103), (-0.9765411, 2.7438785e-8, -0.21533103), (-0.9765411, 2.7438785e-8, -0.21533103), (-0.017083233, 0.000398074, -0.99985397), (-0.016850686, 0.00039474346, -0.99985784), (-0.016850686, 0.00039474346, -0.99985784), (-0.0241823, 0.0004932956, -0.9997075), (0.0031551805, -0.99998665, -0.0041026296), (0.003868026, -0.99998987, 0.0023102618), (0.008800114, -0.9999613, 0.000102897146), (0.008800114, -0.9999613, 0.000102897146), (0.9805663, -0.046212193, -0.19066788), (0.9805663, -0.046212193, -0.19066788), (0.9805663, -0.046212193, -0.19066788), (0.9805663, -0.046212193, -0.19066788), (0, 1, 8.3697564e-8), (-6.2718875e-8, 1, 2.6049003e-9), (0, 1, -3.4030566e-7), (0, 1, -3.4030566e-7), (0.21338736, -0.0049988264, 0.976955), (0.21338736, -0.0049988264, 0.976955), (0.21338736, -0.0049988264, 0.976955), (0.21338736, -0.0049988264, 0.976955), (-0.009856409, 0.009319397, -0.999908), (-0.010163762, 0.0082153985, -0.99991465), (-0.012505821, -0.0002011526, -0.9999218), (-0.009856409, 0.009319397, -0.999908), (0.9544946, -0.23343726, -0.18559921), (0.9544946, -0.23343726, -0.18559921), (0.9544946, -0.23343726, -0.18559921), (0.9544946, -0.23343726, -0.18559921), (-0.9812604, -0.11420711, 0.15519296), (-0.9812604, -0.11420711, 0.15519296), (-0.9812604, -0.11420711, 0.15519296), (-0.9812604, -0.11420711, 0.15519296), (-0.0308797, -0.0009960037, -0.99952257), (-0.030666184, -0.00094575965, -0.9995293), (-0.027685987, -0.00024429287, -0.9996166), (0.97785026, -0.08749739, -0.19013976), (0.97785026, -0.08749739, -0.19013976), (0.97785026, -0.08749739, -0.19013976), (0.97785026, -0.08749739, -0.19013976), (0.11937491, -0.017280772, 0.99269885), (0.11937491, -0.017280772, 0.99269885), (0.11937491, -0.017280772, 0.99269885), (0.11937491, -0.017280772, 0.99269885), (-0.041761655, 0.0009081063, -0.9991271), (-0.050422765, 0.0012028948, -0.9987272), (-0.03938824, 0.0017024102, -0.9992225), (-0.03115457, 0.005219965, -0.999501), (-0.81613004, 0.5661758, 0.11565816), (-0.81613004, 0.5661758, 0.11565816), (-0.81613004, 0.5661758, 0.11565816), (-0.81613004, 0.5661758, 0.11565816), (0.8232442, -0.5419199, -0.16909122), (0.8232442, -0.5419199, -0.16909122), (0.8232442, -0.5419199, -0.16909122), (0.8232442, -0.5419199, -0.16909122), (0.15306863, -0.06709672, 0.98593503), (0.15306863, -0.06709672, 0.98593503), (0.15306863, -0.06709672, 0.98593503), (0.8840973, -0.43453252, -0.17191124), (0.8840973, -0.43453252, -0.17191124), (0.8840973, -0.43453252, -0.17191124), (0.8840973, -0.43453252, -0.17191124), (-0.97963244, 0.1055259, 0.17083527), (-0.97963244, 0.1055259, 0.17083527), (-0.97963244, 0.1055259, 0.17083527), (-0.97963244, 0.1055259, 0.17083527), (-0.03115457, 0.005219965, -0.999501), (-0.03938824, 0.0017024102, -0.9992225), (-0.028932802, 0.006168342, -0.9995623), (0.21663603, -0.02834211, 0.9758409), (0.21663603, -0.02834211, 0.9758409), (0.21663603, -0.02834211, 0.9758409), (0.21663603, -0.02834211, 0.9758409), (-0.044942494, -0.0029776525, 0.9989851), (-0.044942494, -0.0029776525, 0.9989851), (-0.044942494, -0.0029776525, 0.9989851), (-0.044942494, -0.0029776525, 0.9989851), (-0.9994178, 0.004811537, 0.033778623), (-0.9994178, 0.004811537, 0.033778623), (-0.9994178, 0.004811537, 0.033778623), (-0.9994178, 0.004811537, 0.033778623), (0.025423296, 0.002365361, -0.999674), (0.025423296, 0.002365361, -0.999674), (0.025423296, 0.002365361, -0.999674), (0.025423296, 0.002365361, -0.999674), (-0.0460783, -0.0024746982, 0.9989347), (-0.0460783, -0.0024746982, 0.9989347), (-0.0460783, -0.0024746982, 0.9989347), (-0.0460783, -0.0024746982, 0.9989347), (0.7686997, -0.6296255, -0.11257168), (0.7686997, -0.6296255, -0.11257168), (0.7686997, -0.6296255, -0.11257168), (0.7686997, -0.6296255, -0.11257168), (0, 1, 0), (0, 1, 0), (0, 1, 0), (0, 1, 0), (0, 1, 0), (0, 1, -0.0000015746684), (0, 1, -0.000001026145), (0, 1, 0), (0, 1, -0.000002796633), (0, 1, 0), (0, 1, 0), (0, 1, -0.0000016397724), (1, 0, 0), (1, 0, 0), (1, 0, 0), (1, 0, 0), (0, 0, -1), (0, 0, -1), (0, 0, -1), (0, 0, -1), (-0.052909724, -0.032292116, 0.99807703), (-0.052909724, -0.032292116, 0.99807703), (-0.052909724, -0.032292116, 0.99807703), (-0.052909724, -0.032292116, 0.99807703), (0.9277423, -0.008614219, 0.37312183), (0.9277423, -0.008614219, 0.37312183), (0.9277423, -0.008614219, 0.37312183), (0.9277423, -0.008614219, 0.37312183), (0.9277423, -0.008614219, 0.37312183), (-0.052945916, 0.00074624206, -0.99859715), (-0.05298101, 0.0007385394, -0.99859524), (-0.050422765, 0.0012028948, -0.9987272), (-0.041761655, 0.0009081063, -0.9991271), (0.18437402, -0.036437236, 0.98218054), (0.18437402, -0.036437236, 0.98218054), (0.18437402, -0.036437236, 0.98218054), (-0.0026183245, 0.0018917149, -0.9999948), (-0.0025825077, 0.0019658606, -0.9999947), (-0.0021246625, 0.0036877976, -0.99999094), (-0.012379815, -0.001127263, -0.9999227), (-0.017083233, 0.000398074, -0.99985397), (-0.0241823, 0.0004932956, -0.9997075), (-0.027685987, -0.00024429287, -0.9996166), (-0.030666184, -0.00094575965, -0.9995293), (-0.012505821, -0.0002011526, -0.9999218), (-0.010163762, 0.0082153985, -0.99991465), (-0.012379815, -0.001127263, -0.9999227), (-0.0021246625, 0.0036877976, -0.99999094), (-0.09732725, -0.009606999, 0.99520606), (-0.09732725, -0.009606999, 0.99520606), (-0.09732725, -0.009606999, 0.99520606), (-0.09732725, -0.009606999, 0.99520606), (-1, 0, 0), (-1, 0, 0), (-1, 0, 0), (-1, 0, 0), (-0.3820235, -0.55062455, 0.74220663), (-0.3820235, -0.55062455, 0.74220663), (-0.3820235, -0.55062455, 0.74220663), (-0.3820235, -0.55062455, 0.74220663), (0, -0.5418201, 0.8404946), (0, -0.5418201, 0.8404946), (0, -0.5418201, 0.8404946), (0, -0.5418201, 0.8404946), (0, 0, -1), (0, 0, -1), (0, 0, -1), (0, 0, -1), (-0.1507704, -0.47970006, 0.8643819), (-0.1507704, -0.47970006, 0.8643819), (-0.1507704, -0.47970006, 0.8643819), (-0.1507704, -0.47970006, 0.8643819), (0.7580024, 0.00046601667, 0.6522516), (0.7588704, 0.00010174581, 0.65124166), (0.7577241, 0.00058251765, 0.6525748), (-1, 0, 0), (-1, 0, 0), (-1, 0, 0), (-1, 0, 0), (-0.35800076, -0.65707916, 0.66338706), (-0.35800076, -0.65707916, 0.66338706), (-0.35800076, -0.65707916, 0.66338706), (-0.35800076, -0.65707916, 0.66338706), (0, 1, 0), (0, 1, 0), (0, 1, 0), (0, 1, 0), (0, 0, 1), (0, 0, 1), (0, 0, 1), (0, 0, 1), (0, 1, 0), (0, 1, 0), (0, 1, 0), (0, 1, 0), (0, 1, 0), (0, 1, 0), (0, 1, 0), (0, 1, 0), (-1, 0, 0), (-1, 0, 0), (-1, 0, 0), (-1, 0, 0), (0.89682096, 0.089720815, 0.43320006), (0.89682096, 0.089720815, 0.43320006), (0.89682096, 0.089720815, 0.43320006), (0.89682096, 0.089720815, 0.43320006), (0.42903513, -0.0040310104, 0.9032788), (0.42903513, -0.0040310104, 0.9032788), (0.42903513, -0.0040310104, 0.9032788), (0.42903513, -0.0040310104, 0.9032788), (0.9931468, -0.0023603688, 0.116850585), (0.9931468, -0.0023603688, 0.116850585), (0.9931468, -0.0023603688, 0.116850585), (0.9931468, -0.0023603688, 0.116850585), (0.9978864, -0.00093416276, -0.06497564), (0.9978864, -0.00093416276, -0.06497564), (0.9978864, -0.00093416276, -0.06497564), (0.9978864, -0.00093416276, -0.06497564), (-0.021646326, -0.0011703252, 0.999765), (-0.021560103, -0.0011646785, 0.9997668), (-0.022942577, -0.0012552165, 0.9997361), (-0.022942577, -0.0012552165, 0.9997361), (-0.97371715, 0.16070166, -0.16139966), (-0.97371715, 0.16070166, -0.16139966), (-0.97371715, 0.16070166, -0.16139966), (-0.97371715, 0.16070166, -0.16139966), (0.01781965, -0.7298765, 0.6833466), (0.0159892, -0.7302002, 0.68304616), (0.016676327, -0.73007894, 0.68315923), (0.01781965, -0.7298765, 0.6833466), (0.0159892, -0.7302002, 0.68304616), (0.015685668, -0.73025376, 0.68299586), (0.01568607, -0.73025405, 0.6829956), (0.016676327, -0.73007894, 0.68315923), (0.015685668, -0.73025376, 0.68299586), (0.01568609, -0.73025435, 0.68299514), (0.015686164, -0.7302543, 0.6829953), (0.01568607, -0.73025405, 0.6829956), (-0.0007793603, 0.9999995, 0.00072342437), (0.010594161, 0.99992955, -0.0053480617), (0.009141541, 0.9999439, -0.0053365245), (0.00014959084, 0.99999994, -0.00013952272), (0.010594161, 0.99992955, -0.0053480617), (0.013348102, 0.9998927, -0.006040254), (0.013348102, 0.9998927, -0.006040254), (0.009141541, 0.9999439, -0.0053365245), (-6.2718875e-8, 1, 2.6049003e-9), (-0.0007793603, 0.9999995, 0.00072342437), (0.00014959084, 0.99999994, -0.00013952272), (-1.7527007e-7, 1, -7.676035e-8), (-1.7527007e-7, 1, -7.676035e-8), (-0.020991666, -0.0005412605, 0.9997795), (-0.021012422, -0.0005230178, 0.99977905), (-0.021560103, -0.0011646785, 0.9997668), (-0.021646326, -0.0011703252, 0.999765), (0.01916027, 0.9997449, 0.011962209), (0.01916027, 0.9997449, 0.011962209), (0.01916027, 0.9997449, 0.011962209), (0.01916027, 0.9997449, 0.011962209), (0.01916027, 0.9997449, 0.011962209), (0.01916027, 0.9997449, 0.011962209), (-0.97877806, 0.14575557, -0.1440443), (-0.97877806, 0.14575557, -0.1440443), (-0.97877806, 0.14575557, -0.1440443), (-0.97877806, 0.14575557, -0.1440443), (-0.51303667, 0.043490972, 0.85726416), (-0.51303667, 0.043490972, 0.85726416), (-0.51303667, 0.043490972, 0.85726416), (-0.51303667, 0.043490972, 0.85726416), (0.014113556, 0.001329538, -0.9998995), (0.01409425, 0.00011879409, -0.99990064), (0.01409417, 0.00011381017, -0.99990064), (0.014113556, 0.001329538, -0.9998995), (0.90899175, 0.14750996, 0.38983932), (0.90899175, 0.14750996, 0.38983932), (0.90899175, 0.14750996, 0.38983932), (0.90899175, 0.14750996, 0.38983932), (0.01409425, 0.00011879409, -0.99990064), (0.01407494, -0.001090923, -0.99990034), (0.01407494, -0.001090923, -0.99990034), (0.01409417, 0.00011381017, -0.99990064), (0.9614569, 0, -0.2749558), (0.9614573, 0, -0.2749542), (0.961457, 0, -0.2749552), (0.9614569, 0, -0.2749558), (-0.4040463, 0, -0.9147385), (-0.4040463, 0, -0.9147385), (-0.4040463, 0, -0.9147385), (-0.4040463, 0, -0.9147385), (-0.9983099, 0, 0.058116395), (-0.9983099, 0, 0.058116395), (-0.9983099, 0, 0.058116395), (-0.9983099, 0, 0.058116395), (0.052404817, -0.6999001, 0.7123156), (0.052404817, -0.6999001, 0.7123156), (0.052404817, -0.6999001, 0.7123156), (0.052404817, -0.6999001, 0.7123156), (0, -0.7229328, 0.6909183), (0, -0.7229328, 0.6909183), (0, -0.7229328, 0.6909183), (0, -0.7229328, 0.6909183), (0.04105665, -0.74492794, 0.6658805), (0.04105665, -0.74492794, 0.6658805), (0.04105665, -0.74492794, 0.6658805), (0.04105665, -0.74492794, 0.6658805), (0.01568609, -0.73025435, 0.68299514), (0.015685983, -0.7302545, 0.682995), (0.015685983, -0.7302545, 0.682995), (0.015686164, -0.7302543, 0.6829953), (0.025421733, -0.73909235, 0.67312425), (0.025421733, -0.73909235, 0.67312425), (0.025421733, -0.73909235, 0.67312425), (0.025421733, -0.73909235, 0.67312425), (0.017316433, -0.730466, 0.6827295), (0.017316433, -0.730466, 0.6827295), (0.017316433, -0.730466, 0.6827295), (0.01520239, -0.7152478, 0.6987055), (0.01520239, -0.7152478, 0.6987055), (0.01520239, -0.7152478, 0.6987055), (0.01520239, -0.7152478, 0.6987055), (0.9614574, 0, -0.27495417), (0.96145725, 0, -0.27495438), (0.96145725, 0, -0.27495438), (0.96145743, 0, -0.27495378), (-0.9927646, 0, -0.12007708), (-0.9927646, 0, -0.12007708), (-0.9927646, 0, -0.12007708), (-0.9927646, 0, -0.12007708), (0, 0, 1), (0, 0, 1), (0, 0, 1), (0, 0, 1), (0.9614573, 0, -0.2749542), (0.9614574, 0, -0.27495417), (0.96145743, 0, -0.27495378), (0.961457, 0, -0.2749552), (0, 1, 5.867076e-8), (0, 1, 0), (0, 1, 1.3418091e-7), (-0.8902528, -0.027062899, -0.45466188), (-0.8902528, -0.027062899, -0.45466188), (-0.8902528, -0.027062899, -0.45466188), (-0.8902528, -0.027062899, -0.45466188), (-0.7580024, 0.00046599383, 0.65225166), (-0.7588704, 0.000101746235, 0.65124166), (-0.76005536, -0.00039629795, 0.64985824), (-0.76005536, -0.00039629795, 0.64985824), (-1, 0, 0), (-1, 0, 0), (-1, 0, 0), (-1, 0, 0), (-1, 0, 0), (-1, 0, 0), (-1, 0, 0), (-1, 0, 0), (-0.9943156, -0.03446615, 0.10073997), (-0.9943156, -0.03446615, 0.10073997), (-0.9943156, -0.03446615, 0.10073997), (-0.9943156, -0.03446615, 0.10073997), (-0.9903664, -0.056004047, -0.1266411), (-0.9903664, -0.056004047, -0.1266411), (-0.9903664, -0.056004047, -0.1266411), (-0.9903664, -0.056004047, -0.1266411), (0, 0.99999994, -1.8025055e-7), (0, 1, -5.0983147e-9), (0, 1, -4.7587627e-9), (0, 0.99999994, -1.8025055e-7), (0.94978255, 0.27565944, 0.1480708), (0.94978255, 0.27565944, 0.1480708), (0.94978255, 0.27565944, 0.1480708), (0.94978255, 0.27565944, 0.1480708), (-0.8528525, -0.52175635, -0.020319669), (-0.8528525, -0.52175635, -0.020319669), (-0.8528525, -0.52175635, -0.020319669), (-0.86969316, -0.46647805, 0.16134451), (-0.86969316, -0.46647805, 0.16134451), (-0.86969316, -0.46647805, 0.16134451), (-0.0048234253, 0.99997836, -0.0044805855), (0, 1, 2.0737842e-7), (0, 1, 2.6972577e-7), (0.00077885046, 0.9999995, 0.0007240429), (0, 1, -5.0983147e-9), (0, 1, 5.867076e-8), (0, 1, 1.3418091e-7), (0, 1, -4.7587627e-9), (0.99890894, 0.027824186, -0.037504956), (0.99890894, 0.027824186, -0.037504956), (0.99890894, 0.027824186, -0.037504956), (0.99890894, 0.027824186, -0.037504956), (0.8976355, -0.40371743, -0.17681272), (0.8976355, -0.40371743, -0.17681272), (0.8976355, -0.40371743, -0.17681272), (0.8976355, -0.40371743, -0.17681272), (-0.8553895, -1.7026768e-8, -0.5179855), (-0.8553895, -1.7026768e-8, -0.5179855), (-0.8553895, -1.7026768e-8, -0.5179855), (-0.8553895, -1.7026768e-8, -0.5179855), (-0.67882943, -0.41406554, 0.60641587), (-0.67882943, -0.41406554, 0.60641587), (-0.67882943, -0.41406554, 0.60641587), (-0.67882943, -0.41406554, 0.60641587), (-0.765209, -0.5423069, 0.34692705), (-0.765209, -0.5423069, 0.34692705), (-0.765209, -0.5423069, 0.34692705), (-0.7059086, -0.06525277, 0.70529073), (-0.7059086, -0.06525277, 0.70529073), (-0.7059086, -0.06525277, 0.70529073), (0.0000020377538, -1, 0.0000028030238), (0.0000027468477, -1, 0.0000024304684), (0.0000044338008, -1, -7.1680326e-8), (0.0000044188773, -1, -2.2145473e-7), (0.020991666, -0.0005412609, 0.9997795), (0.021012422, -0.0005230181, 0.99977905), (0.021607509, 0, 0.99976647), (0.021607509, 0, 0.99976647), (-0.0000010283948, -1, 4.2925343e-8), (-0.0000010272652, -1, 1.7810402e-8), (-0.006393628, -0.9999745, -0.003160642), (-0.003868178, -0.99998987, 0.0023103384), (0.49219242, 1.2846979e-8, 0.8704864), (0.49219242, 1.2846979e-8, 0.8704864), (0.49219242, 1.2846979e-8, 0.8704864), (0.49219242, 1.2846979e-8, 0.8704864), (0.0000019799136, -1, -0.0000029882965), (0.0000023231812, -1, -0.0000027985543), (-0.00030103163, -0.99999994, 0.00014898635), (-0.006523013, -0.9999725, 0.003521347), (0.00077885046, 0.9999995, 0.0007240429), (0, 1, 2.6972577e-7), (0, 1, -3.0025785e-8), (6.271888e-8, 1, -2.0964999e-8), (0.0000044188773, -1, -2.2145473e-7), (0.0000044338008, -1, -7.1680326e-8), (0.0000023231812, -1, -0.0000027985543), (0.0000019799136, -1, -0.0000029882965), (-0.9880094, 0, 0.15439412), (-0.9880094, 0, 0.15439412), (-0.9880094, 0, 0.15439412), (-0.9880094, 0, 0.15439412), (0.92574626, 0, -0.3781453), (0.92574626, 0, -0.3781453), (0.92574626, 0, -0.3781453), (0.92574626, 0, -0.3781453), (0.18895234, 0, 0.9819862), (0.18895234, 0, 0.9819862), (0.18895234, 0, 0.9819862), (0.18895234, 0, 0.9819862), (-0.9929008, 0, -0.11894521), (-0.9929008, 0, -0.11894521), (-0.9929008, 0, -0.11894521), (-0.9929008, 0, -0.11894521), (-0.000550043, -0.9999998, 0.00029642324), (-0.00685283, -0.9999696, 0.0037001139), (-0.0000010272652, -1, 1.7810402e-8), (-0.0000010283948, -1, 4.2925343e-8), (-0.006523013, -0.9999725, 0.003521347), (-0.00030103163, -0.99999994, 0.00014898635), (-0.00685283, -0.9999696, 0.0037001139), (-0.000550043, -0.9999998, 0.00029642324), (-0.0031551626, -0.99998665, -0.0041025984), (-0.0002998967, -0.9999999, -0.0001447713), (0.0000027468477, -1, 0.0000024304684), (0.0000020377538, -1, 0.0000028030238), (-0.003868178, -0.99998987, 0.0023103384), (-0.006393628, -0.9999745, -0.003160642), (-0.0002998967, -0.9999999, -0.0001447713), (-0.0031551626, -0.99998665, -0.0041025984), (0, -1, 0), (0, -1, 0), (0, -0.99999994, 0), (0, -0.99999994, 0), (-0.5043961, -0.8632109, -0.0212468), (-0.5043961, -0.8632109, -0.0212468), (-0.5043961, -0.8632109, -0.0212468), (-0.5043961, -0.8632109, -0.0212468), (-0.50488704, -0.8627395, 0.02774244), (-0.50488704, -0.8627395, 0.02774244), (-0.50488704, -0.8627395, 0.02774244), (-0.50488704, -0.8627395, 0.02774244), (0, -1, 0), (0, -1, 0), (0, -1, 0), (0, -1, 0), (0.9538196, 0, 0.30038008), (0.9538196, 0, 0.30038008), (0.9538196, 0, 0.30038008), (0.9538196, 0, 0.30038008), (-0.47733632, 0, -0.87872064), (-0.47733632, 0, -0.87872064), (-0.47733632, 0, -0.87872064), (-0.47733632, 0, -0.87872064), (-0.5965815, 0, 0.8025525), (-0.5965815, 0, 0.8025525), (-0.5965815, 0, 0.8025525), (-0.5965815, 0, 0.8025525), (0.09332441, 0, -0.9956358), (0.09332441, 0, -0.9956358), (0.09332441, 0, -0.9956358), (0.09332441, 0, -0.9956358), (-0.014459771, 0.21101683, -0.97737545), (-0.014459763, 0.2110157, -0.9773757), (-0.014461179, 0.21122316, -0.97733086), (-0.014461179, 0.21122316, -0.97733086), (0.47054848, -0.0084936675, 0.88233334), (0.47054848, -0.0084936675, 0.88233334), (0.47054848, -0.0084936675, 0.88233334), (0.47054848, -0.0084936675, 0.88233334), (-0.01445835, 0.21080883, -0.97742033), (-0.01445835, 0.21080883, -0.97742033), (-0.014459763, 0.2110157, -0.9773757), (-0.014459771, 0.21101683, -0.97737545), (-0.9614573, 0, -0.27495435), (-0.9614573, 0, -0.27495435), (-0.9614573, 0, -0.27495435), (-0.9614573, 0, -0.27495435), (-0.9614573, 0, -0.27495435), (-0.02223218, 0.9997525, -0.00089296617), (-0.024262791, 0.99970555, 0.0002835585), (-0.024262791, 0.99970555, 0.0002835585), (-0.01500799, 0.9998745, -0.0050787483), (0.72316885, 1.2835342e-8, -0.6906714), (0.72316885, 1.2835342e-8, -0.6906714), (0.72316885, 1.2835342e-8, -0.6906714), (0.72316885, 1.2835342e-8, -0.6906714), (0.0026183252, 0.0018917149, -0.9999948), (0.0025825086, 0.0019658606, -0.9999947), (0.003523566, 0.00001770506, -0.99999374), (0.003523566, 0.00001770506, -0.99999374), (0.052945916, 0.00074624247, -0.99859715), (0.05298101, 0.00073853985, -0.99859524), (0.0550851, 0.00027678694, -0.99848163), (0.0550851, 0.00027678694, -0.99848163), (-0.028296657, -0.014750687, 0.9994908), (-0.028296657, -0.014750687, 0.9994908), (-0.028296657, -0.014750687, 0.9994908), (-0.028296657, -0.014750687, 0.9994908), (0.9765411, 2.8982631e-8, -0.21533103), (0.9765411, 2.8982631e-8, -0.21533103), (0.9765411, 2.8982631e-8, -0.21533103), (0.9765411, 2.8982631e-8, -0.21533103), (0.01708324, 0.0003976465, -0.99985397), (0.024182303, 0.0004932481, -0.9997075), (0.01685069, 0.00039474352, -0.9998579), (0.01685069, 0.00039474352, -0.9998579), (-0.0031551626, -0.99998665, -0.0041025984), (-0.008800113, -0.9999613, 0.00010289714), (-0.008800113, -0.9999613, 0.00010289714), (-0.003868178, -0.99998987, 0.0023103384), (-0.9805663, -0.046212193, -0.19066788), (-0.9805663, -0.046212193, -0.19066788), (-0.9805663, -0.046212193, -0.19066788), (-0.9805663, -0.046212193, -0.19066788), (0, 1, -3.0025785e-8), (0, 1, -4.5374088e-7), (0, 1, -4.5374088e-7), (6.271888e-8, 1, -2.0964999e-8), (-0.21338737, -0.0049988264, 0.976955), (-0.21338737, -0.0049988264, 0.976955), (-0.21338737, -0.0049988264, 0.976955), (-0.21338737, -0.0049988264, 0.976955), (0.009856408, 0.009319396, -0.9999081), (0.009856408, 0.009319396, -0.9999081), (0.012505771, -0.00020116725, -0.9999218), (0.010163929, 0.008215443, -0.9999146), (-0.9544946, -0.23343726, -0.18559913), (-0.9544946, -0.23343726, -0.18559913), (-0.9544946, -0.23343726, -0.18559913), (-0.9544946, -0.23343726, -0.18559913), (0.9812604, -0.114207126, 0.15519296), (0.9812604, -0.114207126, 0.15519296), (0.9812604, -0.114207126, 0.15519296), (0.9812604, -0.114207126, 0.15519296), (0.0308797, -0.0009960037, -0.99952257), (0.027685987, -0.00024429287, -0.9996166), (0.030666184, -0.00094575994, -0.9995293), (-0.97785026, -0.08749739, -0.19013976), (-0.97785026, -0.08749739, -0.19013976), (-0.97785026, -0.08749739, -0.19013976), (-0.97785026, -0.08749739, -0.19013976), (-0.1193749, -0.017280772, 0.99269885), (-0.1193749, -0.017280772, 0.99269885), (-0.1193749, -0.017280772, 0.99269885), (-0.1193749, -0.017280772, 0.99269885), (0.041761655, 0.00090806285, -0.9991271), (0.03115455, 0.005219923, -0.999501), (0.039387923, 0.0017016688, -0.9992225), (0.050422765, 0.0012028959, -0.9987272), (0.81613004, 0.5661758, 0.11565833), (0.81613004, 0.5661758, 0.11565833), (0.81613004, 0.5661758, 0.11565833), (0.81613004, 0.5661758, 0.11565833), (-0.82324415, -0.5419199, -0.16909163), (-0.82324415, -0.5419199, -0.16909163), (-0.82324415, -0.5419199, -0.16909163), (-0.82324415, -0.5419199, -0.16909163), (-0.15306863, -0.06709672, 0.98593503), (-0.15306863, -0.06709672, 0.98593503), (-0.15306863, -0.06709672, 0.98593503), (-0.8840973, -0.43453252, -0.17191131), (-0.8840973, -0.43453252, -0.17191131), (-0.8840973, -0.43453252, -0.17191131), (-0.8840973, -0.43453252, -0.17191131), (0.97963244, 0.1055259, 0.17083524), (0.97963244, 0.1055259, 0.17083524), (0.97963244, 0.1055259, 0.17083524), (0.97963244, 0.1055259, 0.17083524), (0.03115455, 0.005219923, -0.999501), (0.028932802, 0.006168342, -0.9995623), (0.039387923, 0.0017016688, -0.9992225), (-0.21663605, -0.02834211, 0.9758409), (-0.21663605, -0.02834211, 0.9758409), (-0.21663605, -0.02834211, 0.9758409), (-0.21663605, -0.02834211, 0.9758409), (0.04494249, -0.0029776525, 0.9989851), (0.04494249, -0.0029776525, 0.9989851), (0.04494249, -0.0029776525, 0.9989851), (0.04494249, -0.0029776525, 0.9989851), (0.9994178, 0.0048115407, 0.03377862), (0.9994178, 0.0048115407, 0.03377862), (0.9994178, 0.0048115407, 0.03377862), (0.9994178, 0.0048115407, 0.03377862), (-0.025423296, 0.002365361, -0.999674), (-0.025423296, 0.002365361, -0.999674), (-0.025423296, 0.002365361, -0.999674), (-0.025423296, 0.002365361, -0.999674), (0.046078287, -0.0024746982, 0.9989347), (0.046078287, -0.0024746982, 0.9989347), (0.046078287, -0.0024746982, 0.9989347), (0.046078287, -0.0024746982, 0.9989347), (-0.7686997, -0.62962556, -0.11257121), (-0.7686997, -0.62962556, -0.11257121), (-0.7686997, -0.62962556, -0.11257121), (-0.7686997, -0.62962556, -0.11257121), (0, 1, 0), (0, 1, 0), (0, 1, 0), (0, 1, 0), (0, 1, 0), (0, 1, 0), (0, 1, -0.000001026145), (0, 1, -0.0000015746684), (0, 1, -0.000002796633), (0, 1, -0.0000016397724), (0, 1, 0), (0, 1, 0), (-1, 0, 0), (-1, 0, 0), (-1, 0, 0), (-1, 0, 0), (0.052909706, -0.032292124, 0.998077), (0.052909706, -0.032292124, 0.998077), (0.052909706, -0.032292124, 0.998077), (0.052909706, -0.032292124, 0.998077), (-0.9277423, -0.008614219, 0.37312183), (-0.9277423, -0.008614219, 0.37312183), (-0.9277423, -0.008614219, 0.37312183), (-0.9277423, -0.008614219, 0.37312183), (-0.9277423, -0.008614219, 0.37312183), (0.052945916, 0.00074624247, -0.99859715), (0.041761655, 0.00090806285, -0.9991271), (0.050422765, 0.0012028959, -0.9987272), (0.05298101, 0.00073853985, -0.99859524), (-0.18437402, -0.036437236, 0.98218054), (-0.18437402, -0.036437236, 0.98218054), (-0.18437402, -0.036437236, 0.98218054), (0.0026183252, 0.0018917149, -0.9999948), (0.012379933, -0.0011270149, -0.9999227), (0.002124689, 0.0036878493, -0.99999094), (0.0025825086, 0.0019658606, -0.9999947), (0.01708324, 0.0003976465, -0.99985397), (0.030666184, -0.00094575994, -0.9995293), (0.027685987, -0.00024429287, -0.9996166), (0.024182303, 0.0004932481, -0.9997075), (0.012505771, -0.00020116725, -0.9999218), (0.002124689, 0.0036878493, -0.99999094), (0.012379933, -0.0011270149, -0.9999227), (0.010163929, 0.008215443, -0.9999146), (0.09732724, -0.009606999, 0.99520606), (0.09732724, -0.009606999, 0.99520606), (0.09732724, -0.009606999, 0.99520606), (0.09732724, -0.009606999, 0.99520606), (1, 0, 0), (1, 0, 0), (1, 0, 0), (1, 0, 0), (0.38202396, -0.5506245, 0.74220645), (0.38202396, -0.5506245, 0.74220645), (0.38202396, -0.5506245, 0.74220645), (0.38202396, -0.5506245, 0.74220645), (0.15077032, -0.47970024, 0.8643819), (0.15077032, -0.47970024, 0.8643819), (0.15077032, -0.47970024, 0.8643819), (0.15077032, -0.47970024, 0.8643819), (-0.7580024, 0.00046599383, 0.65225166), (-0.7577241, 0.00058251765, 0.6525748), (-0.7588704, 0.000101746235, 0.65124166), (1, 0, 0), (1, 0, 0), (1, 0, 0), (1, 0, 0), (0.35800067, -0.65707916, 0.6633871), (0.35800067, -0.65707916, 0.6633871), (0.35800067, -0.65707916, 0.6633871), (0.35800067, -0.65707916, 0.6633871), (1, 0, 0), (1, 0, 0), (1, 0, 0), (1, 0, 0), (-0.89682096, 0.089720815, 0.43320006), (-0.89682096, 0.089720815, 0.43320006), (-0.89682096, 0.089720815, 0.43320006), (-0.89682096, 0.089720815, 0.43320006), (-0.42903513, -0.0040310184, 0.9032788), (-0.42903513, -0.0040310184, 0.9032788), (-0.42903513, -0.0040310184, 0.9032788), (-0.42903513, -0.0040310184, 0.9032788), (-0.9931468, -0.002360386, 0.11685059), (-0.9931468, -0.002360386, 0.11685059), (-0.9931468, -0.002360386, 0.11685059), (-0.9931468, -0.002360386, 0.11685059), (-0.9978864, -0.0009341628, -0.06497565), (-0.9978864, -0.0009341628, -0.06497565), (-0.9978864, -0.0009341628, -0.06497565), (-0.9978864, -0.0009341628, -0.06497565), (0.021646326, -0.0011703254, 0.999765), (0.022942577, -0.0012552165, 0.9997361), (0.022942577, -0.0012552165, 0.9997361), (0.021560103, -0.001164679, 0.9997668), (0.97371715, 0.16070166, -0.16139966), (0.97371715, 0.16070166, -0.16139966), (0.97371715, 0.16070166, -0.16139966), (0.97371715, 0.16070166, -0.16139966), (-0.017819656, -0.72987646, 0.68334675), (-0.017819656, -0.72987646, 0.68334675), (-0.016676206, -0.73007894, 0.68315923), (-0.015895987, -0.73021674, 0.6830306), (-0.015895987, -0.73021674, 0.6830306), (-0.016676206, -0.73007894, 0.68315923), (-0.01568605, -0.730254, 0.6829956), (-0.015685504, -0.73025376, 0.682996), (-0.015685504, -0.73025376, 0.682996), (-0.01568605, -0.730254, 0.6829956), (-0.01568624, -0.7302543, 0.6829953), (-0.015686188, -0.7302544, 0.6829952), (0.00077885046, 0.9999995, 0.0007240429), (-0.00014982643, 0.99999994, -0.00013915985), (-0.0049983617, 0.99997675, -0.004643248), (-0.0048234253, 0.99997836, -0.0044805855), (-0.01500799, 0.9998745, -0.0050787483), (-0.013348102, 0.9998927, -0.0060403226), (-0.013348102, 0.9998927, -0.0060403226), (-0.02223218, 0.9997525, -0.00089296617), (6.271888e-8, 1, -2.0964999e-8), (1.7527009e-7, 1, 6.140829e-8), (1.7527009e-7, 1, 6.140829e-8), (-0.00014982643, 0.99999994, -0.00013915985), (0.00077885046, 0.9999995, 0.0007240429), (0.020991666, -0.0005412609, 0.9997795), (0.021646326, -0.0011703254, 0.999765), (0.021560103, -0.001164679, 0.9997668), (0.021012422, -0.0005230181, 0.99977905), (-0.019160263, 0.99974495, 0.011962725), (-0.019160263, 0.99974495, 0.011962725), (-0.019160263, 0.99974495, 0.011962725), (-0.019160263, 0.99974495, 0.011962725), (-0.019160263, 0.99974495, 0.011962725), (-0.019160263, 0.99974495, 0.011962725), (0.97877806, 0.14575557, -0.14404434), (0.97877806, 0.14575557, -0.14404434), (0.97877806, 0.14575557, -0.14404434), (0.97877806, 0.14575557, -0.14404434), (0.5130365, 0.043490976, 0.85726434), (0.5130365, 0.043490976, 0.85726434), (0.5130365, 0.043490976, 0.85726434), (0.5130365, 0.043490976, 0.85726434), (-0.014113623, 0.001329538, -0.9998995), (-0.014113623, 0.001329538, -0.9998995), (-0.014094121, 0.00011381017, -0.99990064), (-0.014094202, 0.00011879409, -0.99990064), (-0.90899175, 0.14750996, 0.38983932), (-0.90899175, 0.14750996, 0.38983932), (-0.90899175, 0.14750996, 0.38983932), (-0.90899175, 0.14750996, 0.38983932), (-0.014094202, 0.00011879409, -0.99990064), (-0.014094121, 0.00011381017, -0.99990064), (-0.014074775, -0.001090923, -0.99990034), (-0.014074775, -0.001090923, -0.99990034), (-0.9614569, 0, -0.2749558), (-0.9614569, 0, -0.2749558), (-0.961457, 0, -0.2749552), (-0.9614573, 0, -0.2749542), (0.40404624, 0, -0.9147386), (0.40404624, 0, -0.9147386), (0.40404624, 0, -0.9147386), (0.40404624, 0, -0.9147386), (0.9983099, 0, 0.058116395), (0.9983099, 0, 0.058116395), (0.9983099, 0, 0.058116395), (0.9983099, 0, 0.058116395), (-0.052404795, -0.6999, 0.7123156), (-0.052404795, -0.6999, 0.7123156), (-0.052404795, -0.6999, 0.7123156), (-0.052404795, -0.6999, 0.7123156), (0, -0.7229328, 0.69091827), (0, -0.7229328, 0.69091827), (0, -0.7229328, 0.69091827), (0, -0.7229328, 0.69091827), (-0.04105665, -0.74492794, 0.6658805), (-0.04105665, -0.74492794, 0.6658805), (-0.04105665, -0.74492794, 0.6658805), (-0.04105665, -0.74492794, 0.6658805), (-0.015686188, -0.7302544, 0.6829952), (-0.01568624, -0.7302543, 0.6829953), (-0.015686113, -0.7302546, 0.682995), (-0.015686113, -0.7302546, 0.682995), (-0.02542176, -0.7390922, 0.6731244), (-0.02542176, -0.7390922, 0.6731244), (-0.02542176, -0.7390922, 0.6731244), (-0.02542176, -0.7390922, 0.6731244), (-0.017316433, -0.730466, 0.6827295), (-0.017316433, -0.730466, 0.6827295), (-0.017316433, -0.730466, 0.6827295), (-0.015202358, -0.7152478, 0.6987056), (-0.015202358, -0.7152478, 0.6987056), (-0.015202358, -0.7152478, 0.6987056), (-0.015202358, -0.7152478, 0.6987056), (-0.9614574, 0, -0.27495417), (-0.96145743, 0, -0.27495378), (-0.96145725, 0, -0.27495438), (-0.96145725, 0, -0.27495438), (0.99276453, 0, -0.12007708), (0.99276453, 0, -0.12007708), (0.99276453, 0, -0.12007708), (0.99276453, 0, -0.12007708), (0, 0, 1), (0, 0, 1), (0, 0, 1), (0, 0, 1), (-0.9614573, 0, -0.2749542), (-0.961457, 0, -0.2749552), (-0.96145743, 0, -0.27495378), (-0.9614574, 0, -0.27495417), (0, -0.0011901992, 0.9999993), (0, -0.0011901992, 0.9999993), (0, -0.0005950997, 0.99999976), (0, -0.0005950997, 0.99999976)] (
                interpolation = "faceVarying"
            )
            point3f[] points = [(0.32854074, -0.37539497, 0.8869303), (0.32854077, 1.2948366, 0.8869303), (0.19283482, 1.2948366, 1.0466665), (0.19283482, -0.37539497, 0.2002936), (0.19283482, 1.2948366, 0.2002936), (0.19283482, -0.45994973, 1.044578), (0.35990587, 1.2948366, 0.6862167), (0.35990587, -0.37539497, 0.6862167), (0.19283482, 1.2948366, 0.68489665), (0.32854074, -0.9650954, 0.6851763), (0.18627055, -1.2905198, 0.2002936), (0.32854074, -0.69276226, 0.8872135), (0.32854077, 1.2948366, 0.4243953), (0.32854074, -0.37539497, 0.4243953), (0.19283482, 1.2948366, 0.3545028), (0.28281528, -1.141347, 0.42207214), (0.19283482, -1.2905198, 0.47580525), (0.15144074, 3.2247396, 0.27470887), (0.17078614, -0.6770878, 0.9580509), (0.2935901, -0.6770878, 0.8351394), (0.2935901, -0.9235294, 0.6523104), (0.17078614, -1.05852, 0.7121628), (0.17078614, -0.46640953, 0.97754264), (0.17078614, -1.2180147, 0.46284485), (0.63160384, 1.2883052, 1.0582889), (0.63160384, -0.3730266, 1.0582889), (0.425075, 0.39539474, 0.8204449), (0.63160384, 1.2883052, 0.20540561), (0.63160384, -0.3730266, 0.20540561), (0.91935456, 1.2883052, 1.064508), (0.91935456, -0.3730266, 1.064508), (1.0563767, -0.3730266, 0.69587046), (1.011179, 1.2883052, 0.21673286), (0.91935456, -0.3730266, 0.21673286), (0.425075, -0.37539488, 0.8204449), (0.44700778, -0.37539488, 0.68009114), (0.425075, -0.37539488, 0.4970062), (0.63723594, -0.37302604, 0.9356944), (0.8384525, -0.37302604, 0.91683364), (0.63723594, -0.37302604, 0.33929527), (0.9342684, -0.37302604, 0.68226457), (0.8384525, -0.37302604, 0.37801307), (0.44700778, 0.39539474, 0.68009114), (0.425075, 0.39539474, 0.4970062), (0.63723594, 0.5149381, 0.9356944), (0.63723594, 0.5149381, 0.6768915), (0.8384525, 0.5149381, 0.91683364), (0.63723594, 0.5149381, 0.33929527), (0.9342684, 0.5149381, 0.68226457), (0.8384525, 0.5149381, 0.37801307), (0.63959956, 1.9762204, 0.83761764), (0.9587784, 1.9721235, 0.84126496), (0.84133106, 1.9721235, 1.0633055), (0.6400155, 1.9721235, 1.0595597), (0.44993076, 1.9786549, 0.83545023), (0.42798716, 1.9786549, 0.9563456), (1.0872282, 1.2883052, 0.69587046), (1.0563767, 0.07804647, 0.69587046), (1.3290653, -0.3730266, 0.21673286), (1.3290653, 1.2883052, 0.21673286), (0.36168304, 1.2948366, 0.27409282), (0.60236084, 1.2883052, 0.022090584), (0.361683, -0.37539497, 0.2740928), (0.60236084, -0.3730266, 0.022090584), (0.9654603, -0.3730266, 0.020781757), (0.9821559, 1.2883052, 0.020781757), (1.2996477, -0.3730266, 0.002805557), (1.2996477, 1.2883052, 0.002805557), (1.6062657, -0.3536807, 0.1477849), (1.6836493, 1.2883052, 0.1477849), (1.5770398, -0.3536807, -0.0025176131), (1.6544235, 1.2883052, -0.0025176131), (0.715436, -1.0954589, 0.20540561), (0.9460463, -2.258331, 0.21673286), (1.2219259, -2.4844148, 0.15851606), (0.6861122, -1.0954589, 0.018412415), (0.95332044, -2.258331, 0.01653772), (1.1926998, -2.4844148, 0.008213598), (1.499335, -1.2220917, -0.0025176131), (1.5285609, -1.2220917, 0.1477849), (0.60476005, -2.1044645, 0.17517765), (0.62614757, -3.5335371, 0.15851606), (0.9480275, -3.0434582, 0.16299431), (0.57585496, -2.0989766, 0.024875177), (0.5972425, -3.5280492, 0.008213598), (0.91880155, -3.0434582, 0.012691832), (0.19119176, -2.6770952, 0.14057435), (0.18489993, -4.056996, 0.15097348), (0.18646002, -2.6716073, -0.00020679737), (0.18016818, -4.0515075, 0.010192287), (0.19283482, 3.2247396, 0.2002936), (0.15144074, 2.6606324, 0.9569139), (0.19283482, 3.2247396, 1.0466665), (0.19283482, 3.2247396, 0.3545028), (0.19283482, 3.2247396, 0.68489665), (1.258539, -1.1846021, 0.004884289), (0.97293526, -1.1353923, 0.018498205), (0.9336444, -1.1315727, 0.21673286), (1.287764, -1.1869498, 0.19429077), (0.2919063, -0.68908644, 0.87108433), (0.17400263, -1.2529367, 0.49847937), (0.17400263, -0.48681507, 1.0078053), (0.2919063, -0.9256941, 0.69555086), (0.15144074, 3.2247396, 0.9569139), (0.15144074, 3.2247396, 0.39900666), (0.15144074, 3.2247396, 0.6653152), (0.15144074, 2.6606324, 0.6653152), (0.15144074, 2.6606324, 0.39900666), (0.15144074, 2.6606324, 0.27470887), (1.3253729, 1.2883052, 0.5735049), (1.3207036, -0.02481219, 0.5791154), (1.343389, 1.2883053, 0.41283026), (1.3405899, -0.17068434, 0.41470045), (0.6310093, 1.2924021, 0.68981504), (1.023006, -0.03180882, 0.57918024), (0.9793293, -0.17559147, 0.42645186), (0.52927136, 2.5393224, 0.83545023), (0.6471703, 2.5368876, 0.83761764), (0.8455732, 2.5327907, 0.84126496), (0.7725675, 2.5327907, 1.0633055), (0.6474289, 2.5327907, 1.0595597), (0.5156312, 2.5393224, 0.9563456), (1.0703572, -0.08155632, 0.52490306), (1.0900282, -0.016800424, 0.5936879), (1.0092583, -0.28269246, 0.31125274), (1.2507687, -0.28269246, 0.31125274), (1.2458397, -0.07743205, 0.52486485), (1.257562, -0.16341865, 0.42794785), (1.0446113, -0.16631125, 0.43487492), (1.0703572, 1.0182751, 0.52490306), (1.0900282, 1.083031, 0.5936879), (1.0092583, 0.81713897, 0.31125274), (1.2507687, 0.81713897, 0.31125274), (1.2458397, 1.0223994, 0.52486485), (1.257562, 0.9364128, 0.42794785), (1.0446113, 0.9335202, 0.43487492), (-0.32854074, -0.37539497, 0.8869303), (-0.32854077, 1.2948366, 0.8869303), (-0.19283482, 1.2948366, 1.0466665), (-0.19283482, -0.37539497, 0.2002936), (-0.19283482, 1.2948366, 0.2002936), (-0.19283482, -0.45994973, 1.044578), (-0.35990587, 1.2948366, 0.6862167), (-0.35990587, -0.37539497, 0.6862167), (-0.19283482, 1.2948366, 0.68489665), (-0.32854074, -0.9650954, 0.6851763), (-0.18627055, -1.2905198, 0.2002936), (-0.32854074, -0.69276226, 0.8872135), (-0.32854077, 1.2948366, 0.4243953), (-0.32854074, -0.37539497, 0.4243953), (-0.19283482, 1.2948366, 0.3545028), (-0.28281528, -1.141347, 0.42207214), (-0.19283482, -1.2905198, 0.47580525), (-0.15144074, 3.2247396, 0.27470887), (-0.17078614, -0.6770878, 0.9580509), (-0.2935901, -0.6770878, 0.8351394), (-0.2935901, -0.9235294, 0.6523104), (-0.17078614, -1.05852, 0.7121628), (-0.17078614, -0.46640953, 0.97754264), (-0.17078614, -1.2180147, 0.46284485), (-0.63160384, 1.2883052, 1.0582889), (-0.63160384, -0.3730266, 1.0582889), (-0.425075, 0.39539474, 0.8204449), (-0.63160384, 1.2883052, 0.20540561), (-0.63160384, -0.3730266, 0.20540561), (-0.91935456, 1.2883052, 1.064508), (-0.91935456, -0.3730266, 1.064508), (-1.0563767, -0.3730266, 0.69587046), (-1.011179, 1.2883052, 0.21673286), (-0.91935456, -0.3730266, 0.21673286), (-0.425075, -0.37539488, 0.8204449), (-0.44700778, -0.37539488, 0.68009114), (-0.425075, -0.37539488, 0.4970062), (-0.63723594, -0.37302604, 0.9356944), (-0.8384525, -0.37302604, 0.91683364), (-0.63723594, -0.37302604, 0.33929527), (-0.9342684, -0.37302604, 0.68226457), (-0.8384525, -0.37302604, 0.37801307), (-0.44700778, 0.39539474, 0.68009114), (-0.425075, 0.39539474, 0.4970062), (-0.63723594, 0.5149381, 0.9356944), (-0.63723594, 0.5149381, 0.6768915), (-0.8384525, 0.5149381, 0.91683364), (-0.63723594, 0.5149381, 0.33929527), (-0.9342684, 0.5149381, 0.68226457), (-0.8384525, 0.5149381, 0.37801307), (-0.63959956, 1.9762204, 0.83761764), (-0.9587784, 1.9721235, 0.84126496), (-0.84133106, 1.9721235, 1.0633055), (-0.6400155, 1.9721235, 1.0595597), (-0.44993076, 1.9786549, 0.83545023), (-0.42798716, 1.9786549, 0.9563456), (-1.0872282, 1.2883052, 0.69587046), (-1.0563767, 0.07804647, 0.69587046), (-1.3290653, -0.3730266, 0.21673286), (-1.3290653, 1.2883052, 0.21673286), (-0.36168304, 1.2948366, 0.27409282), (-0.60236084, 1.2883052, 0.022090584), (-0.361683, -0.37539497, 0.2740928), (-0.60236084, -0.3730266, 0.022090584), (-0.9654603, -0.3730266, 0.020781757), (-0.9821559, 1.2883052, 0.020781757), (-1.2996477, -0.3730266, 0.002805557), (-1.2996477, 1.2883052, 0.002805557), (-1.6062657, -0.3536807, 0.1477849), (-1.6836493, 1.2883052, 0.1477849), (-1.5770398, -0.3536807, -0.0025176131), (-1.6544235, 1.2883052, -0.0025176131), (-0.715436, -1.0954589, 0.20540561), (-0.9460463, -2.258331, 0.21673286), (-1.2219259, -2.4844148, 0.15851606), (-0.6861122, -1.0954589, 0.018412415), (-0.95332044, -2.258331, 0.01653772), (-1.1926998, -2.4844148, 0.008213598), (-1.499335, -1.2220917, -0.0025176131), (-1.5285609, -1.2220917, 0.1477849), (-0.60476005, -2.1044645, 0.17517765), (-0.62614757, -3.5335371, 0.15851606), (-0.9480275, -3.0434582, 0.16299431), (-0.57585496, -2.0989766, 0.024875177), (-0.5972425, -3.5280492, 0.008213598), (-0.91880155, -3.0434582, 0.012691832), (-0.19119176, -2.6770952, 0.14057435), (-0.18489993, -4.056996, 0.15097348), (-0.18646002, -2.6716073, -0.00020679737), (-0.18016818, -4.0515075, 0.010192287), (-0.19283482, 3.2247396, 0.2002936), (-0.15144074, 2.6606324, 0.9569139), (-0.19283482, 3.2247396, 1.0466665), (-0.19283482, 3.2247396, 0.3545028), (-0.19283482, 3.2247396, 0.68489665), (-1.258539, -1.1846021, 0.004884289), (-0.97293526, -1.1353923, 0.018498205), (-0.9336444, -1.1315727, 0.21673286), (-1.287764, -1.1869498, 0.19429077), (-0.2919063, -0.68908644, 0.87108433), (-0.17400263, -1.2529367, 0.49847937), (-0.17400263, -0.48681507, 1.0078053), (-0.2919063, -0.9256941, 0.69555086), (-0.15144074, 3.2247396, 0.9569139), (-0.15144074, 3.2247396, 0.39900666), (-0.15144074, 3.2247396, 0.6653152), (-0.15144074, 2.6606324, 0.6653152), (-0.15144074, 2.6606324, 0.39900666), (-0.15144074, 2.6606324, 0.27470887), (-1.3253729, 1.2883052, 0.5735049), (-1.3207036, -0.02481219, 0.5791154), (-1.343389, 1.2883053, 0.41283026), (-1.3405899, -0.17068434, 0.41470045), (-0.6310093, 1.2924021, 0.68981504), (-1.023006, -0.03180882, 0.57918024), (-0.9793293, -0.17559147, 0.42645186), (-0.52927136, 2.5393224, 0.83545023), (-0.6471703, 2.5368876, 0.83761764), (-0.8455732, 2.5327907, 0.84126496), (-0.7725675, 2.5327907, 1.0633055), (-0.6474289, 2.5327907, 1.0595597), (-0.5156312, 2.5393224, 0.9563456), (-1.0703572, -0.08155632, 0.52490306), (-1.0900282, -0.016800424, 0.5936879), (-1.0092583, -0.28269246, 0.31125274), (-1.2507687, -0.28269246, 0.31125274), (-1.2458397, -0.07743205, 0.52486485), (-1.257562, -0.16341865, 0.42794785), (-1.0446113, -0.16631125, 0.43487492), (-1.0703572, 1.0182751, 0.52490306), (-1.0900282, 1.083031, 0.5936879), (-1.0092583, 0.81713897, 0.31125274), (-1.2507687, 0.81713897, 0.31125274), (-1.2458397, 1.0223994, 0.52486485), (-1.257562, 0.9364128, 0.42794785), (-1.0446113, 0.9335202, 0.43487492)]
            uniform token subdivisionScheme = "none"
            uniform token subsetFamily:materialBind:familyType = "nonOverlapping"
            custom string userProperties:blender:data_name = "Cube"

            def GeomSubset "Black" (
                prepend apiSchemas = ["MaterialBindingAPI"]
            )
            {
                uniform token elementType = "face"
                uniform token familyName = "materialBind"
                int[] indices = [25, 26, 27, 28, 29, 103, 163, 164, 165]
                rel material:binding = </root/_materials/Black>
            }

            def GeomSubset "White" (
                prepend apiSchemas = ["MaterialBindingAPI"]
            )
            {
                uniform token elementType = "face"
                uniform token familyName = "materialBind"
                int[] indices = [0, 1, 2, 3, 4, 5, 6, 7, 8, 9, 10, 11, 12, 13, 14, 15, 16, 17, 18, 19, 20, 21, 22, 23, 24, 30, 31, 32, 33, 34, 35, 36, 37, 38, 39, 40, 41, 42, 43, 44, 45, 46, 47, 48, 49, 50, 51, 52, 53, 54, 55, 56, 57, 58, 59, 60, 61, 62, 63, 64, 65, 66, 67, 68, 69, 70, 71, 72, 73, 74, 75, 76, 77, 78, 79, 80, 81, 82, 83, 84, 85, 86, 87, 88, 89, 90, 91, 92, 93, 94, 95, 96, 97, 98, 99, 100, 101, 102, 104, 105, 106, 107, 108, 109, 110, 111, 112, 113, 114, 115, 116, 117, 118, 119, 120, 121, 122, 123, 124, 125, 126, 127, 128, 129, 130, 131, 132, 133, 134, 135, 136, 137, 138, 139, 140, 141, 142, 143, 144, 145, 146, 147, 148, 149, 150, 151, 152, 153, 154, 155, 156, 157, 158, 159, 160, 161, 162, 166, 167, 168, 169, 170, 171, 172, 173, 174, 175, 176, 177, 178, 179, 180, 181, 182, 183, 184, 185, 186, 187, 188, 189, 190, 191, 192, 193, 194, 195, 196, 197, 198, 199, 200, 201, 202, 203, 204, 205, 206, 207, 208, 209, 210, 211, 212, 213, 214, 215, 216, 217, 218, 219, 220, 221, 222, 223, 224, 225, 226, 227, 228, 229, 230, 231, 232, 233, 234, 235, 236, 237, 238, 239, 240, 241, 242, 243, 244, 245, 246, 247, 248, 249, 250, 251, 252, 253, 254, 255, 256, 257, 258, 259, 260, 261, 262, 263, 264, 265, 266, 267, 268, 269, 270, 271, 272, 273, 274, 275]
                rel material:binding = </root/_materials/White>
            }
        }
    }

    def Scope "_materials"
    {
        def Material "Black"
        {
            token outputs:surface.connect = </root/_materials/Black/Principled_BSDF.outputs:surface>
            custom string userProperties:blender:data_name = "Black"

            def Shader "Principled_BSDF"
            {
                uniform token info:id = "UsdPreviewSurface"
                float inputs:clearcoat = 0
                float inputs:clearcoatRoughness = 0.03
                color3f inputs:diffuseColor = (0.020378947, 0.020378947, 0.020378947)
                float inputs:ior = 1.5
                float inputs:metallic = 0
                float inputs:opacity = 1
                float inputs:roughness = 0.6900348
                float inputs:specular = 0.5
                token outputs:surface
            }
        }

        def Material "White"
        {
            token outputs:surface.connect = </root/_materials/White/Principled_BSDF.outputs:surface>
            custom string userProperties:blender:data_name = "White"

            def Shader "Principled_BSDF"
            {
                uniform token info:id = "UsdPreviewSurface"
                float inputs:clearcoat = 0
                float inputs:clearcoatRoughness = 0.03
                color3f inputs:diffuseColor = (0.8, 0.8, 0.8)
                float inputs:ior = 1.5
                float inputs:metallic = 0
                float inputs:opacity = 1
                float inputs:roughness = 0.6900348
                float inputs:specular = 0.5
                token outputs:surface
            }
        }
    }
}

