#usda 1.0
(
    defaultPrim = "root"
    doc = "Blender v5.1.2"
    metersPerUnit = 1
    upAxis = "Y"
)

def Xform "root" (
    customData = {
        dictionary Blender = {
            bool generated = 1
        }
    }
)
{
    float3 xformOp:rotateXYZ = (-90, -0, 0)
    uniform token[] xformOpOrder = ["xformOp:rotateXYZ"]

    def Xform "Resource_Rock_1"
    {
        custom string userProperties:blender:object_name = "Resource_Rock_1"

        def Mesh "Cube_008" (
            active = true
            prepend apiSchemas = ["MaterialBindingAPI"]
        )
        {
            uniform bool doubleSided = 1
            float3[] extent = [(-0.2616572, -0.37036836, -0.01777299), (0.35721293, 0.3273831, 0.5485637)]
            int[] faceVertexCounts = [4, 3, 4, 4, 4, 3, 4, 4, 4, 5, 4, 4, 3, 4, 4, 4, 4, 4, 4, 4, 4, 4, 3, 4, 4, 4, 4, 4, 4, 4, 4, 4, 4, 4, 4, 4, 4, 4, 4, 4, 4, 4, 4, 4, 4, 4, 4, 4, 4, 4, 4, 4, 4, 4, 4, 4, 4, 4, 4, 4, 4, 4, 4, 4, 4, 4, 4, 4, 4, 5, 4, 4, 4, 4, 4, 4, 4, 4, 4, 4, 4, 4, 4, 5, 5, 4, 4, 4, 4, 4, 4, 4, 4, 4, 4, 4, 4, 4, 4, 4, 4, 4, 4, 4, 4, 4, 4, 4, 4, 4, 4, 4, 4, 4, 4, 4, 4, 5, 4, 4, 4, 4, 5, 4, 4, 4, 4, 4, 4, 4, 3, 4, 4, 4, 4, 4, 4, 4, 4, 3, 4, 4, 4, 4, 4, 4, 4, 4, 5, 4, 4, 4, 3, 3, 4, 4, 4, 4, 5, 4, 4, 4, 4, 6, 4, 4, 3, 4, 4, 4, 3, 4, 4, 4, 4, 5, 4, 4, 3, 6, 4, 4, 4, 4, 4, 4, 4, 4, 4, 3, 4, 4, 4, 4, 4, 4, 4, 4, 4, 4, 4, 4, 4, 4, 4, 4, 4, 4, 4, 4, 4, 4, 4, 4, 4, 4, 4, 4, 4, 4, 4, 4, 4, 4, 4, 4, 4, 4, 5, 4, 4, 4, 4, 4, 4, 4, 4, 4, 4, 4, 4, 4, 5, 5, 4, 5, 5, 4, 3, 4, 4, 4, 5, 4, 3, 4, 4, 4, 5, 4, 4, 4, 4, 4, 4, 4, 4, 4, 4, 4, 3, 4, 4, 4, 5, 4, 3, 4, 4, 4, 5, 4, 4, 4, 4, 4, 4, 4, 4, 4, 4, 4, 3, 4, 4, 4, 5, 4, 3, 4, 4, 4, 5, 4, 4, 4, 4, 4, 4, 4, 4, 4, 4]
            int[] faceVertexIndices = [72, 70, 3, 15, 19, 5, 16, 62, 59, 1, 14, 13, 11, 4, 7, 60, 10, 1, 59, 5, 12, 8, 9, 13, 7, 0, 16, 5, 8, 17, 23, 26, 5, 19, 15, 3, 29, 28, 18, 27, 29, 60, 12, 14, 1, 10, 20, 89, 31, 80, 78, 14, 20, 85, 81, 15, 18, 83, 63, 44, 57, 58, 78, 77, 30, 14, 84, 19, 16, 82, 86, 23, 19, 84, 26, 27, 12, 5, 88, 72, 15, 81, 42, 22, 21, 43, 27, 28, 29, 27, 26, 25, 28, 18, 28, 25, 24, 25, 26, 23, 24, 78, 45, 44, 77, 17, 62, 61, 31, 4, 32, 33, 7, 33, 34, 58, 55, 87, 61, 30, 77, 83, 18, 24, 79, 41, 57, 44, 45, 49, 82, 89, 54, 6, 38, 43, 21, 53, 42, 43, 46, 36, 2, 64, 66, 22, 42, 39, 11, 11, 39, 37, 4, 2, 36, 38, 6, 0, 41, 40, 9, 32, 35, 34, 33, 86, 53, 46, 79, 38, 50, 46, 43, 0, 56, 57, 41, 48, 36, 66, 68, 42, 53, 51, 39, 39, 51, 49, 37, 36, 48, 50, 38, 41, 45, 52, 40, 35, 54, 47, 34, 80, 31, 61, 87, 55, 58, 57, 56, 4, 37, 35, 32, 12, 60, 59, 8, 17, 8, 59, 62, 34, 47, 63, 58, 74, 75, 66, 64, 75, 76, 68, 66, 71, 9, 65, 74, 9, 40, 67, 65, 73, 48, 68, 76, 40, 52, 69, 67, 52, 73, 76, 69, 2, 71, 74, 64, 67, 69, 76, 75, 65, 67, 75, 74, 85, 20, 72, 88, 20, 10, 70, 72, 60, 29, 3, 70, 10, 30, 61, 62, 14, 52, 85, 88, 73, 47, 80, 87, 63, 37, 49, 54, 35, 23, 86, 79, 24, 50, 83, 79, 46, 63, 87, 77, 44, 73, 88, 81, 48, 53, 86, 84, 51, 51, 84, 82, 49, 48, 81, 83, 50, 45, 78, 85, 52, 54, 89, 80, 47, 7, 33, 55, 56, 0, 31, 89, 82, 16, 17, 127, 120, 94, 101, 149, 148, 100, 93, 119, 121, 95, 93, 125, 109, 92, 99, 122, 126, 100, 96, 94, 91, 105, 152, 135, 137, 118, 123, 118, 125, 99, 90, 160, 164, 113, 112, 123, 118, 90, 97, 142, 158, 110, 111, 117, 116, 115, 114, 131, 132, 120, 127, 93, 95, 153, 149, 99, 92, 111, 141, 136, 134, 122, 124, 93, 100, 126, 119, 120, 104, 91, 94, 137, 138, 125, 118, 172, 163, 132, 131, 107, 103, 132, 163, 150, 161, 133, 130, 172, 131, 115, 116, 170, 166, 134, 136, 101, 158, 142, 102, 130, 133, 121, 119, 121, 123, 97, 95, 96, 100, 148, 154, 119, 126, 129, 130, 134, 129, 126, 122, 91, 98, 157, 105, 149, 153, 167, 146, 112, 162, 108, 169, 143, 146, 167, 160, 145, 107, 170, 136, 103, 155, 110, 113, 164, 104, 124, 98, 91, 141, 155, 156, 97, 90, 131, 127, 128, 115, 98, 96, 154, 157, 154, 148, 147, 144, 155, 141, 111, 110, 145, 144, 147, 146, 147, 148, 149, 146, 101, 102, 128, 127, 145, 143, 144, 139, 117, 114, 138, 166, 151, 129, 134, 112, 113, 171, 162, 109, 128, 102, 92, 152, 105, 108, 162, 170, 107, 106, 166, 92, 102, 142, 111, 159, 165, 168, 161, 153, 156, 167, 103, 136, 124, 104, 132, 103, 104, 120, 158, 152, 162, 171, 130, 129, 151, 150, 163, 172, 165, 159, 105, 157, 169, 108, 110, 158, 171, 113, 140, 139, 138, 137, 165, 172, 116, 117, 139, 138, 114, 109, 125, 124, 122, 96, 98, 168, 140, 137, 135, 167, 164, 160, 90, 99, 141, 168, 165, 139, 140, 161, 168, 135, 133, 101, 94, 152, 158, 95, 97, 156, 153, 157, 154, 144, 143, 169, 156, 155, 164, 167, 107, 163, 159, 106, 145, 160, 112, 143, 109, 114, 115, 128, 166, 106, 159, 161, 150, 151, 133, 135, 123, 121, 240, 188, 176, 237, 192, 189, 178, 235, 187, 174, 232, 186, 180, 177, 184, 233, 232, 174, 183, 178, 181, 185, 182, 173, 180, 186, 189, 190, 181, 178, 238, 182, 186, 239, 196, 192, 178, 199, 188, 191, 201, 202, 176, 200, 185, 233, 202, 187, 193, 183, 174, 255, 246, 204, 179, 239, 186, 184, 195, 194, 244, 251, 193, 187, 247, 249, 191, 188, 236, 231, 230, 217, 244, 187, 203, 243, 250, 248, 189, 192, 252, 250, 192, 196, 199, 178, 185, 200, 254, 247, 188, 240, 215, 216, 194, 195, 200, 202, 201, 200, 201, 198, 199, 191, 197, 198, 201, 198, 197, 196, 199, 244, 243, 217, 218, 190, 204, 234, 235, 177, 180, 206, 205, 206, 228, 231, 207, 253, 243, 203, 234, 249, 245, 197, 191, 214, 218, 217, 230, 222, 227, 255, 248, 179, 194, 216, 211, 226, 219, 216, 215, 238, 242, 213, 182, 195, 184, 212, 215, 184, 177, 210, 212, 175, 179, 211, 209, 173, 182, 213, 214, 205, 206, 207, 208, 252, 245, 219, 226, 211, 216, 219, 223, 173, 214, 230, 229, 215, 212, 224, 226, 212, 210, 222, 224, 209, 211, 223, 221, 214, 213, 225, 218, 208, 207, 220, 227, 246, 253, 234, 204, 228, 229, 230, 231, 177, 205, 208, 210, 185, 181, 232, 233, 190, 235, 232, 181, 207, 231, 236, 220, 213, 242, 241, 225, 242, 209, 221, 241, 251, 254, 240, 193, 175, 238, 239, 179, 193, 240, 237, 183, 233, 183, 237, 176, 202, 203, 187, 235, 234, 225, 241, 254, 251, 220, 236, 253, 246, 210, 208, 227, 222, 196, 197, 245, 252, 223, 219, 245, 249, 236, 217, 243, 253, 241, 221, 247, 254, 226, 224, 250, 252, 224, 222, 248, 250, 221, 223, 249, 247, 218, 225, 251, 244, 227, 220, 246, 255, 180, 173, 229, 228, 206, 204, 190, 189, 248, 255, 238, 175, 209, 242, 13, 6, 21, 22, 11, 9, 71, 2, 6, 13, 266, 265, 256, 260, 258, 259, 261, 263, 261, 266, 264, 262, 258, 261, 263, 261, 259, 265, 266, 266, 260, 267, 257, 264, 272, 273, 270, 271, 274, 276, 275, 279, 278, 272, 276, 277, 279, 276, 274, 276, 272, 271, 275, 272, 278, 268, 269, 273, 258, 274, 275, 259, 257, 268, 278, 264, 260, 273, 269, 267, 264, 278, 279, 263, 256, 270, 273, 260, 267, 269, 268, 257, 263, 279, 277, 262, 265, 271, 270, 256, 262, 277, 274, 258, 259, 275, 271, 265, 290, 289, 280, 284, 282, 283, 285, 287, 285, 290, 288, 286, 282, 285, 287, 285, 283, 289, 290, 290, 284, 291, 281, 288, 296, 297, 294, 295, 298, 300, 299, 303, 302, 296, 300, 301, 303, 300, 298, 300, 296, 295, 299, 296, 302, 292, 293, 297, 282, 298, 299, 283, 281, 292, 302, 288, 284, 297, 293, 291, 288, 302, 303, 287, 280, 294, 297, 284, 291, 293, 292, 281, 287, 303, 301, 286, 289, 295, 294, 280, 286, 301, 298, 282, 283, 299, 295, 289, 314, 313, 304, 308, 306, 307, 309, 311, 309, 314, 312, 310, 306, 309, 311, 309, 307, 313, 314, 314, 308, 315, 305, 312, 320, 321, 318, 319, 322, 324, 323, 327, 326, 320, 324, 325, 327, 324, 322, 324, 320, 319, 323, 320, 326, 316, 317, 321, 306, 322, 323, 307, 305, 316, 326, 312, 308, 321, 317, 315, 312, 326, 327, 311, 304, 318, 321, 308, 315, 317, 316, 305, 311, 327, 325, 310, 313, 319, 318, 304, 310, 325, 322, 306, 307, 323, 319, 313]
            rel material:binding = </root/_materials/Stone>
            normal3f[] normals = [(-0.67257684, -0.7400212, 0.0030060187), (-0.67908615, -0.7340568, -0.0016682136), (-0.6850165, -0.7284311, 0.011850598), (-0.6889607, -0.7246215, 0.01603172), (0.35244122, 0.887711, 0.29623356), (0.33780754, 0.90133166, 0.27108544), (0.3923124, 0.8687003, 0.3024084), (0.7641772, -0.6339682, 0.11881734), (0.784575, -0.61070913, 0.10712825), (0.8227787, -0.56220835, 0.08340905), (0.8227787, -0.56220835, 0.08340905), (-1.9018194e-9, 3.5944927e-9, -1), (7.1279764e-9, 1.212596e-9, -1), (8.280862e-9, 2.8031313e-9, -1), (9.0921715e-9, -5.2645155e-10, -1), (0.1555896, -0.4306543, 0.8890044), (0.09685207, -0.42175967, 0.9015201), (0.20350847, -0.3893095, 0.8983442), (0.2815017, -0.41774872, 0.86385345), (0.45924658, 0.15902168, 0.8739592), (0.45803395, 0.15663001, 0.8750268), (0.45128566, 0.14343224, 0.8807771), (1.1461097e-9, 1.0639711e-9, -1), (-1.9018194e-9, 3.5944927e-9, -1), (9.0921715e-9, -5.2645155e-10, -1), (4.808402e-9, -7.535673e-9, -1), (0.81000936, 0.40841278, 0.4208134), (0.81000936, 0.40841278, 0.4208134), (0.81000936, 0.40841278, 0.4208134), (0.81000936, 0.40841278, 0.4208134), (0.33118868, 0.89862955, 0.2877133), (0.33181337, 0.904489, 0.2679545), (0.33780754, 0.90133166, 0.27108544), (0.35244122, 0.887711, 0.29623356), (-0.91639936, 0.32972178, 0.22692652), (-0.9376502, 0.29543093, 0.18311924), (-0.9376502, 0.29543093, 0.18311924), (-0.934196, 0.3048361, 0.18534535), (-0.8711128, 0.41349807, 0.26491845), (0.01786956, -0.4543849, 0.89062625), (0.014063132, -0.44922116, 0.8933099), (0.1555896, -0.4306543, 0.8890044), (0.01786956, -0.4543849, 0.89062625), (-0.72727364, -0.686345, 0.0018920191), (-0.6895195, -0.7241523, 0.012893127), (-0.67731905, -0.73564, -0.008526511), (-0.67721295, -0.73577774, 0.0037021346), (0.8472598, 0.41143468, 0.33596486), (0.73952496, 0.46330902, 0.48831087), (0.79632914, 0.4398258, 0.41522673), (-0.74586046, -0.66597885, 0.012819484), (-0.72727364, -0.686345, 0.0018920191), (-0.67721295, -0.73577774, 0.0037021346), (-0.6847555, -0.72868377, 0.011396043), (-0.84114015, 0.42454723, 0.33502674), (-0.91639936, 0.32972178, 0.22692652), (-0.8711128, 0.41349807, 0.26491845), (-0.8677832, 0.4201566, 0.26536936), (0.35591763, -0.93433607, 0.018405842), (0.24581213, -0.95901155, 0.14097276), (0.29861975, -0.95269495, 0.056555644), (0.34599307, -0.9370368, 0.047443397), (0.19829062, -0.9272064, 0.31775647), (0.20056838, -0.9265264, 0.31830963), (0.2470812, -0.9113424, 0.32925063), (0.2470812, -0.9113424, 0.32925063), (0.3620076, 0.8808366, 0.30508593), (0.35244122, 0.887711, 0.29623356), (0.3923124, 0.8687003, 0.3024084), (0.38950768, 0.8777014, 0.2791489), (0.3300209, 0.88955855, 0.31586674), (0.33118868, 0.89862955, 0.2877133), (0.35244122, 0.887711, 0.29623356), (0.3620076, 0.8808366, 0.30508593), (0.4639076, 0.16827303, 0.86975515), (0.4639076, 0.16827303, 0.86975515), (0.45803395, 0.15663001, 0.8750268), (0.45924658, 0.15902168, 0.8739592), (-0.66701096, -0.74490297, 0.014698829), (-0.67257684, -0.7400212, 0.0030060187), (-0.6889607, -0.7246215, 0.01603172), (-0.71373904, -0.7002197, 0.01639973), (-0.6263521, 0.75793624, 0.18225192), (-0.6094041, 0.79280615, -0.009222768), (-0.6094041, 0.79280615, -0.009222768), (-0.63125956, 0.7702682, 0.09054367), (-0.41165382, 0.54089826, 0.73346454), (-0.415671, 0.5348164, 0.7356556), (-0.39467192, 0.5658834, 0.7238853), (-0.41165382, 0.54089826, 0.73346454), (-0.42513683, 0.52021384, 0.74069977), (-0.42513683, 0.52021384, 0.74069977), (-0.415671, 0.5348164, 0.7356556), (-0.8711128, 0.41349807, 0.26491845), (-0.934196, 0.3048361, 0.18534535), (-0.92457896, 0.3295726, 0.19114274), (-0.905067, 0.37904015, 0.192827), (-0.40286258, 0.82316947, 0.4001174), (-0.40286258, 0.82316947, 0.4001174), (-0.40286258, 0.82316947, 0.4001174), (-0.40286258, 0.82316947, 0.4001174), (0.19829062, -0.9272064, 0.31775647), (0.20878528, -0.9654372, 0.15601209), (0.24581213, -0.95901155, 0.14097276), (0.20056838, -0.9265264, 0.31830963), (0.23333819, 0.015916446, 0.9722654), (0.23333819, 0.015916446, 0.9722654), (0.23333819, 0.015916446, 0.9722654), (0.23333819, 0.015916446, 0.9722654), (8.280862e-9, 2.8031313e-9, -1), (1.3852082e-8, 1.0489254e-8, -1), (1.0263326e-8, -6.4821064e-9, -1), (9.0921715e-9, -5.2645155e-10, -1), (0.85803896, -0.46583775, 0.21625084), (0.88462734, -0.41285646, 0.21675798), (0.8927455, -0.3949954, 0.21675804), (0.85803896, -0.46583775, 0.21625084), (0.67539525, -0.40804487, 0.6142805), (0.66228414, -0.41366974, 0.6247057), (0.6660469, -0.399452, 0.6299362), (0.67281353, -0.40124208, 0.6215519), (-0.8677832, 0.4201566, 0.26536936), (-0.8711128, 0.41349807, 0.26491845), (-0.905067, 0.37904015, 0.192827), (-0.8659212, 0.46084085, 0.19443825), (0.25981754, -0.9632784, 0.067745484), (0.29861975, -0.95269495, 0.056555644), (0.24581213, -0.95901155, 0.14097276), (0.20878528, -0.9654372, 0.15601209), (0.6487745, 0.7352083, 0.19636804), (0.6407552, 0.7356137, 0.21978451), (0.6407552, 0.7356137, 0.21978451), (0.6463063, 0.7353836, 0.20371313), (-0.3823716, 0.25560084, -0.8879528), (-0.7304725, 0.5005438, -0.46461365), (-0.8413221, 0.3768046, -0.38755068), (-0.35091975, 0.1571671, -0.9231218), (-0.5351634, 0.81952834, 0.20487428), (-0.6263521, 0.75793624, 0.18225192), (-0.63125956, 0.7702682, 0.09054367), (-0.6405605, 0.739852, 0.20567268), (-0.6383102, 0.50659525, -0.57958734), (-0.6330042, 0.5216281, -0.5720226), (-0.6716549, 0.38920268, -0.63039744), (-0.6716549, 0.38920268, -0.63039744), (0.20543271, 0.6788068, -0.7049957), (0.3194307, 0.9166324, 0.2403103), (0.3491417, 0.9155279, 0.19977175), (0.3227403, 0.86777604, -0.37789348), (0.3227403, 0.86777604, -0.37789348), (0.3491417, 0.9155279, 0.19977175), (0.3986668, 0.89974606, 0.17754348), (0.40217876, 0.90400314, 0.14501974), (-0.6330042, 0.5216281, -0.5720226), (-0.6383102, 0.50659525, -0.57958734), (-0.7304725, 0.5005438, -0.46461365), (-0.3823716, 0.25560084, -0.8879528), (-0.9252165, -0.31200942, -0.21592721), (-0.9252165, -0.31200942, -0.21592721), (-0.9252165, -0.31200942, -0.21592721), (-0.9252165, -0.31200942, -0.21592721), (0.90180016, 0.4170657, 0.11319338), (0.8916457, 0.42118907, 0.16603482), (0.8835372, 0.42323554, 0.20058332), (0.90180016, 0.4170657, 0.11319338), (-0.35972783, 0.90970665, 0.2074359), (-0.5351634, 0.81952834, 0.20487428), (-0.6405605, 0.739852, 0.20567268), (-0.42932466, 0.8808743, 0.19935104), (-0.6569851, 0.72236717, 0.21576907), (-0.67244655, 0.7106508, 0.20685992), (-0.6405605, 0.739852, 0.20567268), (-0.63125956, 0.7702682, 0.09054367), (0.27817333, -0.9567159, 0.08552425), (0.30936077, -0.9476022, 0.07966027), (0.29861975, -0.95269495, 0.056555644), (0.25981754, -0.9632784, 0.067745484), (-0.89942795, 0.38274103, 0.21104206), (-0.9102421, 0.37183255, 0.18220879), (-0.91367453, 0.36527848, 0.17824271), (-0.91367453, 0.36527848, 0.17824271), (0.3194307, 0.9166324, 0.2403103), (0.33174318, 0.89449793, 0.29969966), (0.3609995, 0.89131624, 0.2742895), (0.3491417, 0.9155279, 0.19977175), (0.3491417, 0.9155279, 0.19977175), (0.3609995, 0.89131624, 0.2742895), (0.39066052, 0.8882085, 0.24180578), (0.3986668, 0.89974606, 0.17754348), (-0.9102421, 0.37183255, 0.18220879), (-0.89942795, 0.38274103, 0.21104206), (-0.8947774, 0.3887661, 0.219623), (-0.9036483, 0.38402325, 0.18959393), (-0.766427, -0.6387762, 0.06748848), (-0.7577696, -0.65118414, 0.041767996), (-0.7322951, -0.67967016, 0.042337313), (-0.766427, -0.6387762, 0.06748848), (0.8916457, 0.42118907, 0.16603482), (0.86435676, 0.41957033, 0.277215), (0.8607954, 0.41203764, 0.29875794), (0.8835372, 0.42323554, 0.20058332), (0.67372024, -0.41664273, 0.6103359), (0.65960133, -0.4233941, 0.6210182), (0.66228414, -0.41366974, 0.6247057), (0.67539525, -0.40804487, 0.6142805), (0.33645648, -0.93875206, 0.07444185), (0.34599307, -0.9370368, 0.047443397), (0.29861975, -0.95269495, 0.056555644), (0.30936077, -0.9476022, 0.07966027), (0.67209655, 0.7370838, 0.07066576), (0.66458184, 0.7372127, 0.12185383), (0.66427714, 0.73718053, 0.123696454), (0.67209655, 0.7370838, 0.07066576), (0.33987638, -0.43730524, 0.8326152), (0.1555896, -0.4306543, 0.8890044), (0.2815017, -0.41774872, 0.86385345), (0.33987638, -0.43730524, 0.8326152), (0.7188641, -0.68032163, 0.14281832), (0.7188641, -0.68032163, 0.14281832), (0.784575, -0.61070913, 0.10712825), (0.7641772, -0.6339682, 0.11881734), (0.88462734, -0.41285646, 0.21675798), (0.91611797, -0.33761072, 0.21621048), (0.91611797, -0.33761072, 0.21621048), (0.8927455, -0.3949954, 0.21675804), (-0.6064357, -0.6947974, -0.38664246), (-0.6237153, -0.70424753, -0.3391382), (-0.5498831, -0.65879786, -0.5134335), (-0.5498831, -0.65879786, -0.5134335), (-0.75996625, -0.54147094, 0.35952812), (-0.7502047, -0.5568889, 0.35646564), (-0.7918419, -0.48649058, 0.36920634), (-0.7918419, -0.48649058, 0.36920634), (-6.295215e-10, 6.652184e-9, -1), (1.1461097e-9, 1.0639711e-9, -1), (2.4460865e-8, -2.3203965e-8, -0.99999994), (3.4822036e-9, 4.025971e-9, -1), (0.69597924, -0.70018697, -0.15921988), (0.69843036, -0.69946164, -0.1514876), (0.69808215, -0.69956833, -0.15259548), (0.69597924, -0.70018697, -0.15921988), (-0.59098834, -0.0958544, 0.80096495), (-0.59098834, -0.0958544, 0.80096495), (-0.59098834, -0.0958544, 0.80096495), (-0.59098834, -0.0958544, 0.80096495), (0.69843036, -0.69946164, -0.1514876), (0.7011718, -0.69857687, -0.14264819), (0.7011718, -0.69857687, -0.14264819), (0.69808215, -0.69956833, -0.15259548), (0.19869898, -0.6210757, 0.7581449), (0.19869898, -0.6210757, 0.7581449), (0.19869898, -0.6210757, 0.7581449), (0.19869898, -0.6210757, 0.7581449), (-1.8193928e-8, 3.022911e-8, -1), (-6.295215e-10, 6.652184e-9, -1), (3.4822036e-9, 4.025971e-9, -1), (-2.17676e-8, 3.6799772e-8, -1), (-0.6838947, -0.6482605, 0.3347331), (-0.6838947, -0.6482605, 0.3347331), (-0.7502047, -0.5568889, 0.35646564), (-0.75996625, -0.54147094, 0.35952812), (-0.6556587, -0.71838266, -0.23246065), (-0.6556587, -0.71838266, -0.23246065), (-0.6237153, -0.70424753, -0.3391382), (-0.6064357, -0.6947974, -0.38664246), (-0.6847555, -0.72868377, 0.011396043), (-0.67721295, -0.73577774, 0.0037021346), (-0.67257684, -0.7400212, 0.0030060187), (-0.66701096, -0.74490297, 0.014698829), (-0.67721295, -0.73577774, 0.0037021346), (-0.67731905, -0.73564, -0.008526511), (-0.67908615, -0.7340568, -0.0016682136), (-0.67257684, -0.7400212, 0.0030060187), (0.1555896, -0.4306543, 0.8890044), (0.014063132, -0.44922116, 0.8933099), (0.010258773, -0.44403946, 0.8959485), (0.010258773, -0.44403946, 0.8959485), (0.09685207, -0.42175967, 0.9015201), (-0.0061609824, -0.39650884, 0.91801023), (-0.0061609824, -0.39650884, 0.91801023), (-0.0061609824, -0.39650884, 0.91801023), (-0.0061609824, -0.39650884, 0.91801023), (-0.7322951, -0.67967016, 0.042337313), (-0.6847555, -0.72868377, 0.011396043), (-0.66701096, -0.74490297, 0.014698829), (-0.67432076, -0.738198, 0.01884957), (0.6887611, -0.4091506, 0.59850144), (0.67372024, -0.41664273, 0.6103359), (0.67539525, -0.40804487, 0.6142805), (0.68433285, -0.4060538, 0.60564744), (0.66458184, 0.7372127, 0.12185383), (0.6487745, 0.7352083, 0.19636804), (0.6463063, 0.7353836, 0.20371313), (0.66427714, 0.73718053, 0.123696454), (-0.30099922, 0.9294894, 0.21318789), (-0.35972783, 0.90970665, 0.2074359), (-0.42932466, 0.8808743, 0.19935104), (-0.30099922, 0.9294894, 0.21318789), (-0.67244655, 0.7106508, 0.20685992), (-0.712172, 0.6778288, 0.18264517), (-0.712172, 0.6778288, 0.18264517), (-0.6405605, 0.739852, 0.20567268), (0.68433285, -0.4060538, 0.60564744), (0.67539525, -0.40804487, 0.6142805), (0.67281353, -0.40124208, 0.6215519), (0.68019176, -0.40316302, 0.612208), (-0.67432076, -0.738198, 0.01884957), (-0.66701096, -0.74490297, 0.014698829), (-0.71373904, -0.7002197, 0.01639973), (-0.7228446, -0.69083756, 0.015467531), (0.33174318, 0.89449793, 0.29969966), (0.3300209, 0.88955855, 0.31586674), (0.3620076, 0.8808366, 0.30508593), (0.3609995, 0.89131624, 0.2742895), (0.3609995, 0.89131624, 0.2742895), (0.3620076, 0.8808366, 0.30508593), (0.38950768, 0.8777014, 0.2791489), (0.39066052, 0.8882085, 0.24180578), (-0.89942795, 0.38274103, 0.21104206), (-0.84114015, 0.42454723, 0.33502674), (-0.8677832, 0.4201566, 0.26536936), (-0.8947774, 0.3887661, 0.219623), (-0.7577696, -0.65118414, 0.041767996), (-0.74586046, -0.66597885, 0.012819484), (-0.6847555, -0.72868377, 0.011396043), (-0.7322951, -0.67967016, 0.042337313), (0.86435676, 0.41957033, 0.277215), (0.8472598, 0.41143468, 0.33596486), (0.79632914, 0.4398258, 0.41522673), (0.8607954, 0.41203764, 0.29875794), (9.0921715e-9, -5.2645155e-10, -1), (1.0263326e-8, -6.4821064e-9, -1), (8.635841e-9, -1.4178549e-8, -1), (8.635841e-9, -1.4178549e-8, -1), (4.808402e-9, -7.535673e-9, -1), (0.24027495, 0.6724191, 0.7000861), (0.24027495, 0.6724191, 0.7000861), (0.24027495, 0.6724191, 0.7000861), (0.24027495, 0.6724191, 0.7000861), (0.24027495, 0.6724191, 0.7000861), (0.7927982, -0.59788656, 0.11833262), (0.7731097, -0.626255, 0.10052894), (0.7489219, -0.6485711, 0.13591008), (0.7702599, -0.62312216, 0.13571478), (0.24392709, 0.8722118, 0.42396483), (0.27547562, 0.8774333, 0.39271352), (0.31134683, 0.8909329, 0.33060795), (0.30928493, 0.88629395, 0.3447113), (-0.5076645, 0.83666736, 0.20558344), (-0.5275543, 0.8273766, 0.19270304), (-0.5408541, 0.8144633, 0.21006292), (-0.5075797, 0.83480614, 0.21321717), (-0.6723208, -0.5991755, 0.4347108), (-0.62374157, -0.64230996, 0.44540375), (-0.60936564, -0.62262976, 0.4909233), (-0.6414409, -0.58608985, 0.49502754), (0.7696998, 0.542426, 0.33665454), (0.7100391, 0.62185186, 0.33037058), (0.7094547, 0.6167821, 0.34096012), (0.7847135, 0.50874114, 0.35412863), (0.7489219, -0.6485711, 0.13591008), (0.77565795, -0.6117522, 0.15528682), (0.754176, -0.62484115, 0.20197053), (0.70864433, -0.6778353, 0.19586334), (-0.7872633, 0.6159342, 0.02901051), (-0.7881118, 0.6151464, 0.021787176), (-0.7725438, 0.62425107, 0.11613252), (-0.7731105, 0.6238955, 0.1142564), (-0.9554277, 0.25036496, 0.15644558), (-0.9548434, 0.24315213, 0.17073701), (-0.92823213, 0.24923344, 0.2761663), (-0.9455598, 0.23915449, 0.22073029), (-0.13946751, -0.6000842, 0.7876851), (-0.31974417, -0.6150072, 0.7207841), (-0.2311657, -0.6261991, 0.7446053), (-0.09817707, -0.6039061, 0.79098594), (-0.7731105, 0.6238955, 0.1142564), (-0.7725438, 0.62425107, 0.11613252), (-0.76956373, 0.62605023, 0.12582809), (-0.76956373, 0.62605023, 0.12582809), (0.14626886, -0.4427472, 0.8846357), (0.14626886, -0.4427472, 0.8846357), (0.14626886, -0.4427472, 0.8846357), (0.14626886, -0.4427472, 0.8846357), (-0.09674953, -0.9888562, -0.11315046), (-0.046251275, -0.9944246, -0.09476584), (-0.037814002, -0.99792206, -0.05216844), (-0.12477241, -0.98955256, -0.07223329), (0.7994981, -0.5886566, 0.11952465), (0.7719022, -0.63119584, 0.07588656), (0.7731097, -0.626255, 0.10052894), (0.7927982, -0.59788656, 0.11833262), (-0.5075797, 0.83480614, 0.21321717), (-0.5408541, 0.8144633, 0.21006292), (-0.55923414, 0.79737234, 0.22683612), (-0.5245418, 0.8190026, 0.23257363), (-0.6414409, -0.58608985, 0.49502754), (-0.60936564, -0.62262976, 0.4909233), (-0.59096825, -0.5958554, 0.5437948), (-0.61276907, -0.5727619, 0.5444795), (0.81504184, 0.4696903, 0.33926064), (0.7696071, 0.5477471, 0.3281432), (0.7696998, 0.542426, 0.33665454), (0.8252834, 0.4421041, 0.3513564), (0.30928493, 0.88629395, 0.3447113), (0.31134683, 0.8909329, 0.33060795), (0.35413662, 0.8868856, 0.2966838), (0.33589533, 0.8909526, 0.30557787), (0.7731097, -0.626255, 0.10052894), (0.7784867, -0.61811936, 0.10902723), (0.77565795, -0.6117522, 0.15528682), (0.7489219, -0.6485711, 0.13591008), (-0.9579225, 0.28611112, 0.022908635), (-0.95867586, 0.27947104, 0.05325905), (-0.9548434, 0.24315213, 0.17073701), (-0.9554277, 0.25036496, 0.15644558), (0.9531381, -0.26423812, -0.14732994), (0.9531381, -0.26423812, -0.14732994), (0.9531381, -0.26423812, -0.14732994), (0.9531381, -0.26423812, -0.14732994), (0.52054036, -0.8103201, -0.269108), (0.49401462, -0.8150089, -0.30283687), (0.4134778, -0.8200217, -0.39572778), (0.4134778, -0.8200217, -0.39572778), (-0.45629278, 0.8836684, 0.10453266), (-0.4868654, 0.8687418, 0.09082795), (-0.50889724, 0.8494763, 0.13933307), (-0.49092114, 0.85491496, 0.16768079), (0.005065497, -0.99710625, -0.07585112), (0.030585034, -0.9987676, -0.039085533), (-0.037814002, -0.99792206, -0.05216844), (-0.046251275, -0.9944246, -0.09476584), (0.6291089, 0.75323904, -0.1919712), (0.78624314, 0.5908355, -0.18092853), (0.78954744, 0.58653027, -0.1805465), (0.6291089, 0.75323904, -0.1919712), (0.03359008, -0.96936834, 0.24330343), (-0.018482381, -0.9696754, 0.24369644), (-0.018482381, -0.9696754, 0.24369644), (0.026570916, -0.9695632, 0.24339497), (-0.49092114, 0.85491496, 0.16768079), (-0.50889724, 0.8494763, 0.13933307), (-0.5275543, 0.8273766, 0.19270304), (-0.5076645, 0.83666736, 0.20558344), (-0.5275543, 0.8273766, 0.19270304), (-0.55001384, 0.81538904, 0.18062532), (-0.5553861, 0.8090383, 0.19236235), (-0.5408541, 0.8144633, 0.21006292), (0.7847135, 0.50874114, 0.35412863), (0.7094547, 0.6167821, 0.34096012), (0.7047571, 0.61816525, 0.3481224), (0.7938365, 0.48676008, 0.36453855), (0.33589533, 0.8909526, 0.30557787), (0.35413662, 0.8868856, 0.2966838), (0.4480184, 0.88898534, 0.09478705), (0.39784905, 0.88854104, 0.22849716), (0.7696071, 0.5477471, 0.3281432), (0.7039616, 0.63879216, 0.31045526), (0.7100391, 0.62185186, 0.33037058), (0.7696998, 0.542426, 0.33665454), (0.77565795, -0.6117522, 0.15528682), (0.81543034, -0.5558602, 0.1615328), (0.7859166, -0.584942, 0.20044436), (0.754176, -0.62484115, 0.20197053), (-0.5245418, 0.8190026, 0.23257363), (-0.55923414, 0.79737234, 0.22683612), (-0.5504961, 0.79899037, 0.24200936), (-0.53651565, 0.80765593, 0.24462803), (-0.09817707, -0.6039061, 0.79098594), (-0.020596744, -0.5920834, 0.8056135), (0.062477536, -0.55378157, 0.8303147), (0.062477536, -0.55378157, 0.8303147), (0.054822925, -0.5580141, 0.82801855), (-0.5965581, 0.030855719, 0.80197644), (-0.5956308, 0.010711443, 0.8031868), (-0.5953132, 0.0048083984, 0.8034793), (-0.5965581, 0.030855719, 0.80197644), (0.52054036, -0.8103201, -0.269108), (0.6102991, -0.77973914, -0.13979216), (0.6102991, -0.77973914, -0.13979216), (0.49401462, -0.8150089, -0.30283687), (-0.68434954, -0.72911465, -0.0075764735), (-0.63572955, -0.7698974, -0.055731237), (-0.632472, -0.7723475, -0.058809176), (-0.68434954, -0.72911465, -0.0075764735), (0.7784867, -0.61811936, 0.10902723), (0.80467844, -0.5791474, 0.13069351), (0.81543034, -0.5558602, 0.1615328), (0.77565795, -0.6117522, 0.15528682), (-0.4556915, 0.55929804, 0.69248176), (-0.4556915, 0.55929804, 0.69248176), (-0.4556915, 0.55929804, 0.69248176), (-0.4556915, 0.55929804, 0.69248176), (-0.4556915, 0.55929804, 0.69248176), (0.030585034, -0.9987676, -0.039085533), (0.061024617, -0.99291235, 0.101986), (-0.005371707, -0.99630886, 0.08567339), (-0.037814002, -0.99792206, -0.05216844), (0.8475232, 0.38853696, 0.36158448), (0.7847135, 0.50874114, 0.35412863), (0.7938365, 0.48676008, 0.36453855), (0.8608806, 0.33936998, 0.3790942), (0.7938365, 0.48676008, 0.36453855), (0.7047571, 0.61816525, 0.3481224), (0.70148766, 0.6188624, 0.35344648), (0.8190652, 0.4270528, 0.38309014), (-0.12795015, 0.007671272, 0.991751), (-0.12795015, 0.007671272, 0.991751), (-0.12795015, 0.007671272, 0.991751), (-0.12795015, 0.007671272, 0.991751), (0.13890141, 0.48955193, 0.8608399), (0.13859718, 0.49365416, 0.85854316), (0.13768084, 0.5057034, 0.8516502), (0.13768084, 0.5057034, 0.8516502), (0.21225877, 0.86533576, 0.4540267), (0.27547562, 0.8774333, 0.39271352), (0.24392709, 0.8722118, 0.42396483), (0.21225877, 0.86533576, 0.4540267), (0.03359008, -0.96936834, 0.24330343), (0.026570916, -0.9695632, 0.24339497), (-0.005371707, -0.99630886, 0.08567339), (0.061024617, -0.99291235, 0.101986), (0.13890141, 0.48955193, 0.8608399), (0.14068046, 0.46444052, 0.87435925), (0.13859718, 0.49365416, 0.85854316), (-0.766107, -0.6416872, 0.036297295), (-0.766107, -0.6416872, 0.036297295), (-0.8102636, -0.584996, 0.03539236), (-0.8039849, -0.59358686, 0.035537988), (0.78624314, 0.5908355, -0.18092853), (0.8964916, 0.41226202, -0.16230468), (0.8964916, 0.41226202, -0.16230468), (0.78954744, 0.58653027, -0.1805465), (-0.09817707, -0.6039061, 0.79098594), (-0.2311657, -0.6261991, 0.7446053), (-0.12429609, -0.6325205, 0.7645052), (-0.020596744, -0.5920834, 0.8056135), (-0.62374157, -0.64230996, 0.44540375), (-0.5737327, -0.6817156, 0.45397654), (-0.56598926, -0.6570296, 0.49796402), (-0.60936564, -0.62262976, 0.4909233), (0.70864433, -0.6778353, 0.19586334), (0.754176, -0.62484115, 0.20197053), (0.74283147, -0.6303932, 0.22540182), (0.7001434, -0.67712414, 0.22650006), (-0.00023359423, 0.01309361, -0.9999143), (-0.0008465943, 0.01289, -0.9999166), (-0.0011548614, 0.012815939, -0.99991715), (-0.00023381936, 0.012989057, -0.99991554), (-0.60936564, -0.62262976, 0.4909233), (-0.56598926, -0.6570296, 0.49796402), (-0.55652606, -0.6299605, 0.5416904), (-0.59096825, -0.5958554, 0.5437948), (-0.0006081015, 0.010073027, -0.9999491), (-0.0053933063, 0.006381869, -0.999965), (-0.009392492, 0.0071533117, -0.99993026), (-0.0049412595, 0.0077742497, -0.99995756), (-0.55923414, 0.79737234, 0.22683612), (-0.5871574, 0.7792671, 0.21906394), (-0.5504961, 0.79899037, 0.24200936), (0.7768211, -0.62320036, 0.09038936), (0.7889294, -0.60379887, 0.11409349), (0.80467844, -0.5791474, 0.13069351), (0.7784867, -0.61811936, 0.10902723), (0.7719022, -0.63119584, 0.07588656), (0.7768211, -0.62320036, 0.09038936), (0.7784867, -0.61811936, 0.10902723), (0.7731097, -0.626255, 0.10052894), (0.7216875, -0.6676413, 0.18281718), (0.70864433, -0.6778353, 0.19586334), (0.7001434, -0.67712414, 0.22650006), (0.66552454, -0.71114993, 0.22658975), (0.39784905, 0.88854104, 0.22849716), (0.4480184, 0.88898534, 0.09478705), (0.46440947, 0.8845084, 0.04437087), (0.46440947, 0.8845084, 0.04437087), (-0.002001741, 0.012261815, -0.99992275), (-0.005957626, 0.0067041665, -0.99995977), (-0.0053933063, 0.006381869, -0.999965), (-0.0006081015, 0.010073027, -0.9999491), (0.754176, -0.62484115, 0.20197053), (0.7859166, -0.584942, 0.20044436), (0.7619244, -0.6075068, 0.22451429), (0.74283147, -0.6303932, 0.22540182), (-0.63572955, -0.7698974, -0.055731237), (-0.5803059, -0.80747885, -0.105939396), (-0.5803059, -0.80747885, -0.105939396), (-0.632472, -0.7723475, -0.058809176), (-0.9517985, 0.30181012, -0.054682776), (-0.9517985, 0.30181012, -0.054682776), (-0.95867586, 0.27947104, 0.05325905), (-0.9579225, 0.28611112, 0.022908635), (-0.0053933063, 0.006381869, -0.999965), (-0.005957626, 0.0067041665, -0.99995977), (-0.0059732413, 0.006915366, -0.9999582), (-0.0059732413, 0.006915366, -0.9999582), (-0.0075248973, 0.0069387164, -0.9999476), (-0.8039849, -0.59358686, 0.035537988), (-0.8102636, -0.584996, 0.03539236), (-0.8462687, -0.53164285, 0.034426454), (-0.8462687, -0.53164285, 0.034426454), (0.8252834, 0.4421041, 0.3513564), (0.7696998, 0.542426, 0.33665454), (0.7847135, 0.50874114, 0.35412863), (0.8475232, 0.38853696, 0.36158448), (-0.7941142, 0.60589427, -0.04769629), (-0.7941142, 0.60589427, -0.04769629), (-0.7881118, 0.6151464, 0.021787176), (-0.7872633, 0.6159342, 0.02901051), (-0.5956308, 0.010711443, 0.8031868), (-0.5935124, -0.023326477, 0.8044867), (-0.5953132, 0.0048083984, 0.8034793), (-0.9455598, 0.23915449, 0.22073029), (-0.92823213, 0.24923344, 0.2761663), (-0.8907791, 0.26457304, 0.36947763), (-0.009392492, 0.0071533117, -0.99993026), (-0.0053933063, 0.006381869, -0.999965), (-0.0075248973, 0.0069387164, -0.9999476), (-0.010461834, 0.0069828676, -0.9999209), (-0.4868654, 0.8687418, 0.09082795), (-0.5243277, 0.84834313, 0.07344591), (-0.53489196, 0.83749115, 0.111799575), (-0.50889724, 0.8494763, 0.13933307), (0.7702599, -0.62312216, 0.13571478), (0.7489219, -0.6485711, 0.13591008), (0.70864433, -0.6778353, 0.19586334), (0.7216875, -0.6676413, 0.18281718), (-0.5408541, 0.8144633, 0.21006292), (-0.5553861, 0.8090383, 0.19236235), (-0.5871574, 0.7792671, 0.21906394), (-0.55923414, 0.79737234, 0.22683612), (0.8608806, 0.33936998, 0.3790942), (0.7938365, 0.48676008, 0.36453855), (0.8190652, 0.4270528, 0.38309014), (0.86248237, 0.32181308, 0.39059016), (0.86248237, 0.32181308, 0.39059016), (-0.9412397, 0.23091984, 0.24646267), (-0.9412397, 0.23091984, 0.24646267), (-0.9412397, 0.23091984, 0.24646267), (-0.9412397, 0.23091984, 0.24646267), (-0.0008465943, 0.01289, -0.9999166), (-0.002001741, 0.012261815, -0.99992275), (-0.0006081015, 0.010073027, -0.9999491), (-0.0011548614, 0.012815939, -0.99991715), (0.045981072, -0.5628432, 0.8252837), (-0.13946751, -0.6000842, 0.7876851), (-0.09817707, -0.6039061, 0.79098594), (0.054822925, -0.5580141, 0.82801855), (-0.15338418, -0.98771715, -0.029799515), (-0.12477241, -0.98955256, -0.07223329), (-0.037814002, -0.99792206, -0.05216844), (-0.005371707, -0.99630886, 0.08567339), (-0.00023381936, 0.012989057, -0.99991554), (-0.0011548614, 0.012815939, -0.99991715), (-0.0006081015, 0.010073027, -0.9999491), (-0.0049412595, 0.0077742497, -0.99995756), (-0.00025156137, 0.0072627976, -0.9999736), (-0.00025156137, 0.0072627976, -0.9999736), (-0.50889724, 0.8494763, 0.13933307), (-0.53489196, 0.83749115, 0.111799575), (-0.55001384, 0.81538904, 0.18062532), (-0.5275543, 0.8273766, 0.19270304), (0.22111802, -0.94721067, 0.23216112), (0.2669498, -0.93549454, 0.23149003), (0.23934165, -0.94087684, 0.23972152), (0.21228844, -0.9469077, 0.24145293), (0.021331014, 0.98780495, 0.15422797), (-0.015634278, 0.98961776, 0.14287123), (0.028268429, 0.9838123, 0.17695856), (-0.9506452, -0.31011412, -0.010144409), (-0.93071216, -0.3591801, -0.06902481), (-0.93071216, -0.3591801, -0.06902481), (-0.95318365, -0.30239013, -0.0010769736), (0.000099836536, -0.004277742, -0.9999908), (-0.00013916328, -0.0041351314, -0.9999914), (-0.0009101278, -0.003753151, -0.99999255), (0.00031425504, -0.0035682092, -0.9999936), (-0.41668615, -0.44804996, 0.7909639), (-0.525765, -0.40202022, 0.74963385), (-0.4543816, -0.46072528, 0.7624104), (-0.3556948, -0.4781933, 0.80300206), (-0.45935512, 0.31989372, 0.82865006), (-0.48166212, 0.28434518, 0.82894474), (-0.46415433, 0.3124005, 0.8288346), (0.000012772167, -0.0050228164, -0.9999873), (-0.00167951, -0.0048964014, -0.9999866), (-0.00013916328, -0.0041351314, -0.9999914), (0.000099836536, -0.004277742, -0.9999908), (-0.61578816, 0.7508843, 0.23870027), (-0.61578816, 0.7508843, 0.23870027), (-0.61578816, 0.7508843, 0.23870027), (-0.61578816, 0.7508843, 0.23870027), (0.0006709437, -0.005142896, -0.9999865), (0.000012772167, -0.0050228164, -0.9999873), (0.000099836536, -0.004277742, -0.9999908), (0.00053799234, -0.0052643656, -0.999986), (0.069071464, 0.9845683, 0.16079284), (0.021331014, 0.98780495, 0.15422797), (0.028268429, 0.9838123, 0.17695856), (0.050617233, 0.982062, 0.18163712), (0.87637234, -0.2706575, 0.3983919), (0.91572803, -0.11295381, 0.38559514), (0.9012337, -0.15832439, 0.40337482), (0.8682048, -0.2767209, 0.411881), (0.8682048, -0.2767209, 0.411881), (-0.28616607, -0.48670048, 0.8253677), (-0.44059056, -0.42412952, 0.79119784), (-0.41668615, -0.44804996, 0.7909639), (-0.27949724, -0.4874864, 0.827187), (0.16976732, -0.95797235, 0.23123167), (0.15269502, -0.9597966, 0.2355304), (0.15292875, -0.9565501, 0.24824312), (0.105072595, -0.96063924, 0.25716132), (-0.62130916, 0.7518716, 0.22059926), (-0.60621214, 0.74936587, 0.26637885), (-0.56465286, 0.73639125, 0.37268633), (0.0011869348, -0.0048659407, -0.9999875), (0.00053799234, -0.0052643656, -0.999986), (0.000099836536, -0.004277742, -0.9999908), (0.00031425504, -0.0035682092, -0.9999936), (0.00072101445, -0.0036306442, -0.99999315), (0.00072101445, -0.0036306442, -0.99999315), (0.22446309, -0.95318705, 0.20260982), (0.19057088, -0.9602745, 0.20385195), (0.15269502, -0.9597966, 0.2355304), (0.16976732, -0.95797235, 0.23123167), (0.8943062, -0.25121626, 0.37027946), (0.9230722, -0.10612768, 0.36969543), (0.91572803, -0.11295381, 0.38559514), (0.87637234, -0.2706575, 0.3983919), (-0.6591073, -0.7513875, 0.03153276), (-0.64187706, -0.7667158, -0.01186122), (-0.5692012, -0.82219124, 0.0034046725), (-0.5509491, -0.8234307, 0.13570896), (-0.5015372, -0.82535386, 0.2593289), (-0.5424194, -0.7985582, 0.26093283), (-0.5424194, -0.7985582, 0.26093283), (-0.51165897, -0.8189749, 0.259779), (0.047503456, 0.9902861, 0.1306783), (0.027503226, 0.992974, 0.115091905), (-0.015634278, 0.98961776, 0.14287123), (0.021331014, 0.98780495, 0.15422797), (0.089883685, 0.98705614, 0.13282031), (0.047503456, 0.9902861, 0.1306783), (0.021331014, 0.98780495, 0.15422797), (0.069071464, 0.9845683, 0.16079284), (-0.44620356, 0.34001657, 0.827823), (-0.45935512, 0.31989372, 0.82865006), (-0.46415433, 0.3124005, 0.8288346), (-0.44620356, 0.34001657, 0.827823), (0.2402717, -0.946903, 0.21364512), (0.30619663, -0.9263316, 0.21943869), (0.2669498, -0.93549454, 0.23149003), (0.22111802, -0.94721067, 0.23216112), (0.8443595, 0.49034402, 0.21591596), (0.8887108, 0.4529448, 0.07095142), (0.8980563, 0.43912816, 0.025713814), (0.8980563, 0.43912816, 0.025713814), (0.39722234, 0.28761476, 0.8714885), (0.38259017, 0.27479705, 0.8821062), (0.39915198, 0.28930733, 0.8700454), (0.39722234, 0.28761476, 0.8714885), (0.39915198, 0.28930733, 0.8700454), (0.4061585, 0.29545757, 0.8647197), (0.4061585, 0.29545757, 0.8647197), (0.91572803, -0.11295381, 0.38559514), (0.92768985, 0.052944463, 0.36957872), (0.9259957, 0.0588328, 0.37292174), (0.9012337, -0.15832439, 0.40337482), (0.687379, 0.57095605, 0.44890893), (0.74614877, 0.54712677, 0.37936053), (0.7138695, 0.5611426, 0.41893816), (0.687379, 0.57095605, 0.44890893), (-0.5015372, -0.82535386, 0.2593289), (-0.51165897, -0.8189749, 0.259779), (-0.5509491, -0.8234307, 0.13570896), (-0.49487188, -0.8569653, 0.14391746), (-0.10868051, -0.02446496, 0.99377567), (-0.10868051, -0.02446496, 0.99377567), (-0.10868051, -0.02446496, 0.99377567), (-0.10868051, -0.02446496, 0.99377567), (-0.0009101278, -0.003753151, -0.99999255), (-0.00013916328, -0.0041351314, -0.9999914), (-0.0016049608, -0.0044085877, -0.999989), (-0.0012337799, -0.0038754288, -0.9999917), (-0.9603264, -0.2760975, 0.039285585), (-0.9603264, -0.2760975, 0.039285585), (-0.977804, -0.20472564, 0.044573173), (-0.97917414, -0.19795936, 0.04505779), (-0.8303654, -0.2952566, 0.472564), (-0.8138404, -0.35043818, 0.4635266), (-0.7908919, -0.32484484, 0.5186192), (-0.79944456, -0.2687635, 0.53726584), (0.9230722, -0.10612768, 0.36969543), (0.93066186, 0.044108875, 0.3632119), (0.92768985, 0.052944463, 0.36957872), (0.91572803, -0.11295381, 0.38559514), (-0.51402134, -0.85767424, 0.013302232), (-0.49487188, -0.8569653, 0.14391746), (-0.5509491, -0.8234307, 0.13570896), (-0.5692012, -0.82219124, 0.0034046725), (-0.23084469, 0.97081876, 0.06497378), (-0.23053658, 0.9708588, 0.06546889), (-0.22574066, 0.97143674, 0.0731561), (-0.22574066, 0.97143674, 0.0731561), (0.9783082, -0.05900621, -0.19857317), (0.9481585, -0.27964154, -0.15098363), (0.9481585, -0.27964154, -0.15098363), (0.97584695, -0.11050267, -0.18844597), (0.7958043, 0.53224325, 0.28881237), (0.81083065, 0.51457065, 0.2788741), (0.8887108, 0.4529448, 0.07095142), (0.8443595, 0.49034402, 0.21591596), (-0.0024270474, -0.9823132, -0.1872294), (-0.03514364, -0.9752651, -0.218227), (-0.13088991, -0.9427608, -0.30670783), (-0.13088991, -0.9427608, -0.30670783), (0.12815529, 0.9901643, 0.05613293), (0.103303984, 0.9934742, 0.04834536), (0.08181862, 0.99332714, 0.081282765), (0.10060951, 0.9900672, 0.09820785), (0.103303984, 0.9934742, 0.04834536), (0.07224201, 0.9966401, 0.03859618), (0.059954204, 0.9961303, 0.06426492), (0.08181862, 0.99332714, 0.081282765), (0.9595331, 0.15576889, -0.23458959), (0.9783082, -0.05900621, -0.19857317), (0.97584695, -0.11050267, -0.18844597), (0.9595331, 0.15576889, -0.23458959), (0.5578745, -0.82365054, -0.101862125), (0.5578745, -0.82365054, -0.101862125), (0.5578745, -0.82365054, -0.101862125), (0.5578745, -0.82365054, -0.101862125), (-0.59943753, 0.7959542, -0.08444714), (-0.59943753, 0.7959542, -0.08444714), (-0.62111276, 0.78350335, 0.018477794), (-0.6171778, 0.7868183, -0.002918121), (0.77444655, 0.53904366, 0.33115637), (0.778986, 0.5439398, 0.31194592), (0.81083065, 0.51457065, 0.2788741), (0.7958043, 0.53224325, 0.28881237), (0.93798536, -0.11499518, 0.32704672), (0.94458675, 0.04533529, 0.32511607), (0.9355749, 0.040784765, 0.35076508), (0.93490404, -0.093226284, 0.34243742), (-0.52410024, -0.85090035, -0.035882395), (-0.51402134, -0.85767424, 0.013302232), (-0.5692012, -0.82219124, 0.0034046725), (-0.5713957, -0.8192018, -0.049144655), (0.10060951, 0.9900672, 0.09820785), (0.08181862, 0.99332714, 0.081282765), (0.06307834, 0.991287, 0.11563338), (0.08701701, 0.98823434, 0.12578154), (0.08181862, 0.99332714, 0.081282765), (0.059954204, 0.9961303, 0.06426492), (0.038896356, 0.9933545, 0.108323194), (0.06307834, 0.991287, 0.11563338), (0.91888183, -0.22603549, 0.32336387), (0.93798536, -0.11499518, 0.32704672), (0.93490404, -0.093226284, 0.34243742), (0.91095847, -0.23259714, 0.34066594), (0.25781307, -0.9488595, 0.18220344), (0.21461351, -0.9648092, 0.15193512), (0.2178365, -0.9603936, 0.17375627), (0.24985692, -0.9500517, 0.18701118), (-0.6171778, 0.7868183, -0.002918121), (-0.62111276, 0.78350335, 0.018477794), (-0.6340642, 0.75848275, 0.15055372), (-0.63424164, 0.76139915, 0.13419719), (-0.83460796, -0.24445207, 0.4936323), (-0.8303654, -0.2952566, 0.472564), (-0.79944456, -0.2687635, 0.53726584), (-0.802922, -0.2376298, 0.54667026), (-0.6195371, -0.78243035, -0.063060485), (-0.5713957, -0.8192018, -0.049144655), (-0.5692012, -0.82219124, 0.0034046725), (-0.64187706, -0.7667158, -0.01186122), (-0.27450165, 0.95882016, -0.07288876), (-0.27450165, 0.95882016, -0.07288876), (-0.25798506, 0.96601385, -0.016153771), (-0.25477892, 0.9669838, -0.005484612), (-0.44059056, -0.42412952, 0.79119784), (-0.583985, -0.3482582, 0.7332651), (-0.525765, -0.40202022, 0.74963385), (-0.41668615, -0.44804996, 0.7909639), (-0.9665657, -0.24933939, 0.059838276), (-0.9506452, -0.31011412, -0.010144409), (-0.95318365, -0.30239013, -0.0010769736), (-0.9665657, -0.24933939, 0.059838276), (-0.97917414, -0.19795936, 0.04505779), (-0.977804, -0.20472564, 0.044573173), (-0.99178886, -0.11744623, 0.050609894), (-0.99178886, -0.11744623, 0.050609894), (0.21461351, -0.9648092, 0.15193512), (0.25012562, -0.9553465, 0.15732199), (0.24332637, -0.95299566, 0.18053147), (0.2178365, -0.9603936, 0.17375627), (0.25012562, -0.9553465, 0.15732199), (0.29257923, -0.9404376, 0.1731318), (0.30514106, -0.9321601, 0.19485013), (0.24332637, -0.95299566, 0.18053147), (0.19057088, -0.9602745, 0.20385195), (0.2402717, -0.946903, 0.21364512), (0.22111802, -0.94721067, 0.23216112), (0.15269502, -0.9597966, 0.2355304), (0.0012563014, -0.0050497446, -0.9999865), (0.0006709437, -0.005142896, -0.9999865), (0.00053799234, -0.0052643656, -0.999986), (0.0011869348, -0.0048659407, -0.9999875), (0.15269502, -0.9597966, 0.2355304), (0.22111802, -0.94721067, 0.23216112), (0.21228844, -0.9469077, 0.24145293), (0.15292875, -0.9565501, 0.24824312), (-0.41668615, -0.44804996, 0.7909639), (-0.3556948, -0.4781933, 0.80300206), (-0.27369586, -0.4881497, 0.8287343), (-0.27369586, -0.4881497, 0.8287343), (-0.27949724, -0.4874864, 0.827187), (-0.15846193, -0.5422717, 0.82512486), (-0.15846193, -0.5422717, 0.82512486), (-0.15846193, -0.5422717, 0.82512486), (-0.15846193, -0.5422717, 0.82512486), (0.2178365, -0.9603936, 0.17375627), (0.24332637, -0.95299566, 0.18053147), (0.2402717, -0.946903, 0.21364512), (0.19057088, -0.9602745, 0.20385195), (-0.87109756, -0.25193235, 0.42156738), (-0.85073745, -0.31655678, 0.41956842), (-0.8303654, -0.2952566, 0.472564), (-0.83460796, -0.24445207, 0.4936323), (-0.25477892, 0.9669838, -0.005484612), (-0.25798506, 0.96601385, -0.016153771), (-0.23053658, 0.9708588, 0.06546889), (-0.23084469, 0.97081876, 0.06497378), (0.7138695, 0.5611426, 0.41893816), (0.74614877, 0.54712677, 0.37936053), (0.778986, 0.5439398, 0.31194592), (0.77444655, 0.53904366, 0.33115637), (0.93490404, -0.093226284, 0.34243742), (0.9355749, 0.040784765, 0.35076508), (0.93066186, 0.044108875, 0.3632119), (0.9230722, -0.10612768, 0.36969543), (-0.85073745, -0.31655678, 0.41956842), (-0.8302743, -0.370549, 0.41633865), (-0.8138404, -0.35043818, 0.4635266), (-0.8303654, -0.2952566, 0.472564), (0.24332637, -0.95299566, 0.18053147), (0.30514106, -0.9321601, 0.19485013), (0.30619663, -0.9263316, 0.21943869), (0.2402717, -0.946903, 0.21364512), (0.08701701, 0.98823434, 0.12578154), (0.06307834, 0.991287, 0.11563338), (0.047503456, 0.9902861, 0.1306783), (0.089883685, 0.98705614, 0.13282031), (0.06307834, 0.991287, 0.11563338), (0.038896356, 0.9933545, 0.108323194), (0.027503226, 0.992974, 0.115091905), (0.047503456, 0.9902861, 0.1306783), (0.91095847, -0.23259714, 0.34066594), (0.93490404, -0.093226284, 0.34243742), (0.9230722, -0.10612768, 0.36969543), (0.8943062, -0.25121626, 0.37027946), (0.24985692, -0.9500517, 0.18701118), (0.2178365, -0.9603936, 0.17375627), (0.19057088, -0.9602745, 0.20385195), (0.22446309, -0.95318705, 0.20260982), (-0.63424164, 0.76139915, 0.13419719), (-0.6340642, 0.75848275, 0.15055372), (-0.60621214, 0.74936587, 0.26637885), (-0.62130916, 0.7518716, 0.22059926), (-0.00013916328, -0.0041351314, -0.9999914), (-0.00167951, -0.0048964014, -0.9999866), (-0.001954225, -0.0049102656, -0.999986), (-0.001954225, -0.0049102656, -0.999986), (-0.0016049608, -0.0044085877, -0.999989), (-0.032058794, 0.7334919, 0.6789417), (-0.032058794, 0.7334919, 0.6789417), (-0.032058794, 0.7334919, 0.6789417), (-0.032058794, 0.7334919, 0.6789417), (-0.032058794, 0.7334919, 0.6789417), (-0.0024270474, -0.9823132, -0.1872294), (0.11523466, -0.9906849, -0.07255548), (0.11523466, -0.9906849, -0.07255548), (-0.03514364, -0.9752651, -0.218227), (-1.9018194e-9, 3.5944927e-9, -1), (-0.3823716, 0.25560084, -0.8879528), (-0.35091975, 0.1571671, -0.9231218), (0.20543271, 0.6788068, -0.7049957), (0.3227403, 0.86777604, -0.37789348), (1.1461097e-9, 1.0639711e-9, -1), (-6.295215e-10, 6.652184e-9, -1), (-1.8193928e-8, 3.022911e-8, -1), (-0.3823716, 0.25560084, -0.8879528), (-1.9018194e-9, 3.5944927e-9, -1), (0.08562884, -0.6215973, 0.7786428), (-0.054112736, -0.6775768, 0.73345864), (0.05169383, -0.66640645, 0.7437945), (0.15503205, -0.6011137, 0.7839818), (-0.5804741, 0.019691715, 0.8140406), (-0.57275784, -0.031107433, 0.8191342), (-0.58029455, 0.018382382, 0.8141992), (0.23883058, -0.5391332, 0.8076481), (0.05398256, -0.6211249, 0.7818502), (0.08562884, -0.6215973, 0.7786428), (0.24574904, -0.53379244, 0.80911875), (-0.5849891, 0.055516716, 0.8091389), (-0.5804741, 0.019691715, 0.8140406), (-0.58029455, 0.018382382, 0.8141992), (-0.5849891, 0.055516716, 0.8091389), (0.05398256, -0.6211249, 0.7818502), (-0.1498305, -0.6810147, 0.7167773), (-0.054112736, -0.6775768, 0.73345864), (0.08562884, -0.6215973, 0.7786428), (0.08562884, -0.6215973, 0.7786428), (0.15503205, -0.6011137, 0.7839818), (0.2525455, -0.52849025, 0.8105053), (0.2525455, -0.52849025, 0.8105053), (0.24574904, -0.53379244, 0.80911875), (1.4553632e-7, -6.959816e-8, -1), (1.4700065e-7, -7.007313e-8, -1), (1.4117707e-7, -6.9898086e-8, -1), (1.4353729e-7, -6.861041e-8, -1), (1.4872042e-7, -7.039946e-8, -1), (1.475097e-7, -6.939562e-8, -1), (1.4879518e-7, -6.805513e-8, -1), (1.4663765e-7, -7.09871e-8, -1), (1.493688e-7, -7.0366255e-8, -1), (1.4553632e-7, -6.959816e-8, -1), (1.475097e-7, -6.939562e-8, -1), (1.4640612e-7, -7.1460285e-8, -1), (1.4663765e-7, -7.09871e-8, -1), (1.475097e-7, -6.939562e-8, -1), (1.4872042e-7, -7.039946e-8, -1), (1.475097e-7, -6.939562e-8, -1), (1.4553632e-7, -6.959816e-8, -1), (1.4353729e-7, -6.861041e-8, -1), (1.4879518e-7, -6.805513e-8, -1), (1.4553632e-7, -6.959816e-8, -1), (1.493688e-7, -7.0366255e-8, -1), (1.5144848e-7, -7.020683e-8, -1), (1.5144848e-7, -7.020683e-8, -1), (1.4700065e-7, -7.007313e-8, -1), (-0.84677136, 0.52386, 0.092460446), (-0.8831238, 0.4599326, 0.09249019), (-0.99389535, 0.071799435, 0.08376687), (-0.99389535, 0.071799435, 0.08376687), (0.9430105, 0.32475135, 0.072579116), (0.98365897, 0.16612355, 0.06941183), (0.40666664, 0.9103081, 0.07720969), (0.27798057, 0.95756704, 0.076106735), (0.8842378, -0.4609923, 0.074896514), (0.87772095, -0.47217482, 0.08158962), (0.9021394, -0.4282741, 0.05220828), (0.9034766, -0.42572573, 0.04987647), (0.27798057, 0.95756704, 0.076106735), (0.40666664, 0.9103081, 0.07720969), (0.012038981, 0.99748766, 0.06980989), (0.012038981, 0.99748766, 0.06980989), (0.32366377, -0.93361413, 0.153644), (0.28245887, -0.9467431, 0.15457848), (0.87772095, -0.47217482, 0.08158962), (0.8842378, -0.4609923, 0.074896514), (0.9034766, -0.42572573, 0.04987647), (0.9021394, -0.4282741, 0.05220828), (0.98365897, 0.16612355, 0.06941183), (0.9430105, 0.32475135, 0.072579116), (0.71990925, 0.6933009, 0.032627422), (0.71990925, 0.6933009, 0.032627422), (0.04435499, 0.99573845, 0.08085499), (0.3363555, 0.93940794, 0.06616394), (-0.5252002, -0.8430512, 0.11588549), (-0.5087348, -0.85279375, 0.11803267), (0.28245887, -0.9467431, 0.15457848), (0.32366377, -0.93361413, 0.153644), (0.3363555, 0.93940794, 0.06616394), (0.04435499, 0.99573845, 0.08085499), (-0.8831238, 0.4599326, 0.09249019), (-0.84677136, 0.52386, 0.092460446), (-0.575471, -0.810541, 0.108888045), (-0.575471, -0.810541, 0.108888045), (-0.5087348, -0.85279375, 0.11803267), (-0.5252002, -0.8430512, 0.11588549), (0.46313167, -0.4233488, 0.77864295), (0.39143276, -0.55571455, 0.7334587), (0.4656713, -0.47950053, 0.7437939), (0.50341976, -0.36323753, 0.78398156), (-0.45903304, -0.35584697, 0.81404024), (-0.42063165, -0.38998517, 0.81913406), (-0.45805812, -0.35673928, 0.81419885), (0.5282553, -0.26201054, 0.8076491), (0.4384896, -0.44321084, 0.7818511), (0.46313167, -0.4233488, 0.77864295), (0.5301637, -0.25348118, 0.8091191), (-0.48540202, -0.3311795, 0.8091384), (-0.45903304, -0.35584697, 0.81404024), (-0.45805812, -0.35673928, 0.81419885), (-0.48540202, -0.3311795, 0.8091384), (0.4384896, -0.44321084, 0.7818511), (0.3200117, -0.61953354, 0.7167779), (0.39143276, -0.55571455, 0.7334587), (0.46313167, -0.4233488, 0.77864295), (0.46313167, -0.4233488, 0.77864295), (0.50341976, -0.36323753, 0.78398156), (0.5320031, -0.24505948, 0.81050515), (0.5320031, -0.24505948, 0.81050515), (0.5301637, -0.25348118, 0.8091191), (1.3672111e-7, 6.1038094e-8, -1), (2.1969598e-7, 6.346561e-8, -1), (1.4910727e-7, 5.684417e-8, -1), (1.10756496e-7, 6.357779e-8, -1), (1.8126097e-7, 7.902175e-8, -1), (1.1551104e-7, 6.890684e-8, -1), (1.3255023e-7, 7.48769e-8, -1), (1.1107031e-7, 6.453846e-8, -1), (1.736842e-7, 6.150987e-8, -1), (1.3672111e-7, 6.1038094e-8, -1), (1.1551104e-7, 6.890684e-8, -1), (1.7589224e-7, 7.730399e-8, -1), (1.1107031e-7, 6.453846e-8, -1), (1.1551104e-7, 6.890684e-8, -1), (1.8126097e-7, 7.902175e-8, -1), (1.1551104e-7, 6.890684e-8, -1), (1.3672111e-7, 6.1038094e-8, -1), (1.10756496e-7, 6.357779e-8, -1), (1.3255023e-7, 7.48769e-8, -1), (1.3672111e-7, 6.1038094e-8, -1), (1.736842e-7, 6.150987e-8, -1), (2.7360875e-7, 6.8522795e-8, -0.99999994), (2.7360875e-7, 6.8522795e-8, -0.99999994), (2.1969598e-7, 6.346561e-8, -1), (-0.9860675, -0.13828225, 0.092460595), (-0.97316915, -0.21068314, 0.09249032), (-0.81030107, -0.5799961, 0.08376691), (-0.81030107, -0.5799961, 0.08376691), (0.517722, 0.8524648, 0.07257871), (0.6503671, 0.7564422, 0.069411464), (-0.26902473, 0.9600336, 0.07720952), (-0.39820197, 0.9141351, 0.076106645), (0.9747032, 0.21058035, 0.07489654), (0.97683805, 0.19781451, 0.0815896), (0.96756065, 0.2471855, 0.0522082), (0.9669604, 0.25, 0.049876355), (-0.39820197, 0.9141351, 0.076106645), (-0.26902473, 0.9600336, 0.07720952), (-0.62825364, 0.7748702, 0.06981), (-0.62825364, 0.7748702, 0.06981), (0.84562254, -0.5111908, 0.15364389), (0.82232237, -0.5476234, 0.15457836), (0.97683805, 0.19781451, 0.0815896), (0.9747032, 0.21058035, 0.07489654), (0.9669604, 0.25, 0.049876355), (0.96756065, 0.2471855, 0.0522082), (0.6503671, 0.7564422, 0.069411464), (0.517722, 0.8524648, 0.07257871), (0.11058506, 0.99333096, 0.032627285), (0.11058506, 0.99333096, 0.032627285), (-0.6022817, 0.7941783, 0.08085496), (-0.3417002, 0.9374771, 0.06616385), (0.13487317, -0.98406285, 0.115885526), (0.15376362, -0.98103267, 0.11803272), (0.82232237, -0.5476234, 0.15457836), (0.84562254, -0.5111908, 0.15364389), (-0.3417002, 0.9374771, 0.06616385), (-0.6022817, 0.7941783, 0.08085496), (-0.97316915, -0.21068314, 0.09249032), (-0.9860675, -0.13828225, 0.092460595), (0.075431176, -0.99118793, 0.1088881), (0.075431176, -0.99118793, 0.1088881), (0.15376362, -0.98103267, 0.11803272), (0.13487317, -0.98406285, 0.115885526), (-0.33731627, -0.52908695, 0.7786429), (-0.4800473, -0.4812408, 0.73345894), (-0.3921924, -0.54125303, 0.7437945), (-0.27116758, -0.5584268, 0.78398186), (-0.4295455, 0.39093348, 0.81404036), (-0.45656466, 0.3472292, 0.81913406), (-0.43025658, 0.3898195, 0.8141989), (-0.16717649, -0.5654701, 0.80764824), (-0.36112306, -0.50823206, 0.7818506), (-0.33731627, -0.52908695, 0.7786429), (-0.15844612, -0.5658812, 0.8091188), (-0.40978462, 0.42115477, 0.8091386), (-0.4295455, 0.39093348, 0.81404036), (-0.43025658, 0.3898195, 0.8141989), (-0.40978462, 0.42115477, 0.8091386), (-0.36112306, -0.50823206, 0.7818506), (-0.55520713, -0.42187053, 0.7167777), (-0.4800473, -0.4812408, 0.73345894), (-0.33731627, -0.52908695, 0.7786429), (-0.33731627, -0.52908695, 0.7786429), (-0.27116758, -0.5584268, 0.78398186), (-0.14983371, -0.56624275, 0.8105054), (-0.14983371, -0.56624275, 0.8105054), (-0.15844612, -0.5658812, 0.8091188), (5.613297e-8, -1.7627315e-7, -1), (5.2637223e-8, -1.0556307e-7, -1), (0, -9.986509e-8, -1), (2.3251836e-8, -2.2415004e-7, -1), (6.952309e-8, -7.4501465e-8, -1), (7.619163e-8, -1.8591018e-7, -1), (6.4031845e-8, -1.9781291e-7, -1), (9.031915e-8, -1.4715442e-7, -1), (1.0512551e-7, -1.5309615e-7, -1), (5.613297e-8, -1.7627315e-7, -1), (7.619163e-8, -1.8591018e-7, -1), (5.7439152e-8, -8.2616545e-8, -1), (9.031915e-8, -1.4715442e-7, -1), (7.619163e-8, -1.8591018e-7, -1), (6.952309e-8, -7.4501465e-8, -1), (7.619163e-8, -1.8591018e-7, -1), (5.613297e-8, -1.7627315e-7, -1), (2.3251836e-8, -2.2415004e-7, -1), (6.4031845e-8, -1.9781291e-7, -1), (5.613297e-8, -1.7627315e-7, -1), (1.0512551e-7, -1.5309615e-7, -1), (9.283935e-8, -1.0991494e-7, -0.99999994), (9.283935e-8, -1.0991494e-7, -0.99999994), (5.2637223e-8, -1.0556307e-7, -1), (-0.30594122, 0.94754994, 0.09246057), (-0.3750413, 0.92238253, 0.09249035), (-0.71080947, 0.69837886, 0.08376723), (-0.71080947, 0.69837886, 0.08376723), (0.92885333, -0.36326817, 0.072578765), (0.8570949, -0.510461, 0.06941148), (0.8994012, 0.43025148, 0.07720963), (0.8319537, 0.54960054, 0.076106764), (0.37520397, -0.92391145, 0.0748965), (0.36299622, -0.9282116, 0.08158952), (0.41003382, -0.91057485, 0.052208208), (0.41270313, -0.90949905, 0.049876332), (0.8319537, 0.54960054, 0.076106764), (0.8994012, 0.43025148, 0.07720963), (0.65517086, 0.75224847, 0.06981013), (0.65517086, 0.75224847, 0.06981013), (-0.3580124, -0.9209889, 0.15364379), (-0.39791155, -0.9043074, 0.15457824), (0.36299622, -0.9282116, 0.08158952), (0.37520397, -0.92391145, 0.0748965), (0.41270313, -0.90949905, 0.049876332), (0.41003382, -0.91057485, 0.052208208), (0.8570949, -0.510461, 0.06941148), (0.92885333, -0.36326817, 0.072578765), (0.99754035, 0.062039025, 0.03262706), (0.99754035, 0.062039025, 0.03262706), (0.6786604, 0.729988, 0.0808546), (0.86467206, 0.49796045, 0.066163525), (-0.9461617, -0.30223906, 0.11588572), (-0.9399254, -0.32032585, 0.11803289), (-0.39791155, -0.9043074, 0.15457824), (-0.3580124, -0.9209889, 0.15364379), (0.86467206, 0.49796045, 0.066163525), (0.6786604, 0.729988, 0.0808546), (-0.3750413, 0.92238253, 0.09249035), (-0.30594122, 0.94754994, 0.09246057), (-0.9634115, -0.24491137, 0.108888395), (-0.9634115, -0.24491137, 0.108888395), (-0.9399254, -0.32032585, 0.11803289), (-0.9461617, -0.30223906, 0.11588572)] (
                interpolation = "faceVarying"
            )
            point3f[] points = [(0.15396106, -0.15493499, -0.003220078), (0.15067783, -0.121892266, 0.31149977), (0.014128333, 0.008356027, -0.0032200762), (0.040208932, -0.019720258, 0.36494792), (0.24514833, 0.117422335, -0.0032200778), (0.17006092, 0.061061878, 0.3330706), (0.0709607, 0.08701142, -0.0032200757), (0.28675002, -0.0035973194, -0.0032200767), (0.21322429, -0.026079793, 0.32514566), (0.14462666, -0.016802922, -0.0032200771), (0.09417505, -0.07150072, 0.33930254), (0.19353874, 0.14232515, -0.0032200774), (0.14292632, -0.024081811, 0.36083907), (0.1802901, 0.043741375, -0.0032200785), (0.15490742, -0.13160579, 0.21139948), (0.029101111, -0.011197795, 0.2969954), (0.24427882, 0.08809463, 0.15455998), (0.2539315, -0.014186105, 0.24466157), (0.040945116, 0.07003622, 0.22751264), (0.17528784, 0.09015074, 0.23683661), (0.105355136, -0.07925547, 0.282388), (0.0779857, 0.13024233, -0.0032200778), (0.10124039, 0.17035279, -0.0032200771), (0.09189049, 0.10415715, 0.28440112), (0.05920506, 0.1034764, 0.25623313), (0.06160666, 0.059986092, 0.3447835), (0.10943147, 0.07814095, 0.35892725), (0.085601814, 0.021131618, 0.38584453), (0.056796774, 0.038558844, 0.35651624), (0.04960541, 0.005991439, 0.37805435), (0.22820687, -0.10047749, 0.22988464), (0.27946815, -0.011250025, 0.23508322), (0.31176224, 0.054979727, -0.0032200757), (0.35721293, -0.04013288, -0.003220078), (0.32861573, -0.015063136, 0.12058551), (0.30126897, 0.0582852, 0.079854734), (-0.02817854, 0.02112881, 0.033859286), (0.24866836, 0.104656495, 0.07870402), (0.017599205, 0.09982321, 0.09829548), (0.18745409, 0.12475251, 0.11108772), (0.10368791, -0.08071727, 0.10495033), (0.15616587, -0.14170931, 0.12782265), (0.09171777, 0.14286156, 0.17419097), (0.04770459, 0.13027824, 0.08933301), (0.24899355, -0.11561407, 0.198068), (0.1558438, -0.13621402, 0.17197914), (0.06344181, 0.10904698, 0.20699948), (0.30361733, -0.019905366, 0.20015128), (-0.0009571026, 0.020010132, 0.17151354), (0.24768068, 0.096152455, 0.11915218), (0.029554116, 0.089535885, 0.17046764), (0.1816927, 0.10830265, 0.17791522), (0.11092329, -0.08439464, 0.15651092), (0.091203295, 0.12319406, 0.23227027), (0.2892303, 0.05336162, 0.13994999), (0.31220815, -0.102757655, -0.0032200755), (0.25960946, -0.12334657, -0.0032200757), (0.24203975, -0.11676158, 0.13732451), (0.28791937, -0.10195865, 0.13854031), (0.18543282, -0.07099127, 0.31885004), (0.12447495, -0.05238328, 0.34755835), (0.2425313, -0.04832932, 0.24795647), (0.20782237, -0.046962027, 0.25286233), (0.28677595, -0.099143945, 0.16657558), (-0.028782688, -0.039971787, -0.0032200778), (0.033407938, -0.12597737, -0.0032200774), (-0.059615474, -0.059381347, 0.033529475), (0.03728335, -0.14497021, 0.0911924), (-0.019777602, -0.02057918, 0.16239612), (0.050647628, -0.1388066, 0.12871161), (0.07198595, -0.05067803, 0.34916332), (0.08010903, -0.0051449537, -0.003220079), (0.06663605, -0.04560086, 0.30172664), (0.050917033, -0.036211945, 0.212687), (0.0013960754, -0.08166552, -0.0032200792), (-0.015439916, -0.10289745, 0.06323123), (0.024229268, -0.08672404, 0.17732392), (0.23856565, -0.10783464, 0.2144163), (0.15543681, -0.13379698, 0.19226786), (0.061262146, 0.106184505, 0.23231794), (0.29145032, -0.013912364, 0.21946277), (0.012099575, 0.005022982, 0.24033566), (0.24456285, 0.09053615, 0.14575014), (0.034219347, 0.08018733, 0.20015827), (0.17849879, 0.099237494, 0.20830433), (0.10827901, -0.080697596, 0.2253536), (0.09155781, 0.11334846, 0.25887012), (0.26440197, -0.071895644, 0.2097388), (0.059343766, -0.0411076, 0.25980952), (0.27823564, 0.052380305, 0.17657728), (-0.20928228, 0.12527336, 0.2479524), (0.10267111, 0.02706259, 0.35383463), (-0.16844872, -0.0592066, 0.27176228), (0.0053307, 0.25215513, 0.38405716), (0.06496592, -0.0245449, 0.30209884), (-0.09812868, 0.21057795, 0.30040386), (0.11719611, 0.19742581, 0.34067294), (-0.16389447, 0.18646558, 0.21468036), (0.15628932, 0.104806565, 0.34708625), (-0.22712815, 0.014878449, 0.28397837), (0.072633006, 0.24055362, 0.35504866), (0.013866011, -0.09913223, 0.25255314), (-0.12224489, -0.09810003, 0.27268705), (0.13936947, 0.04285838, 0.13899273), (0.12919238, 0.038383167, 0.2523618), (0.08497253, 0.022182, 0.4041557), (0.04282785, 0.18652596, -0.006228476), (0.12746838, 0.090091124, -0.0076082745), (0.054476842, 0.015222114, 0.48048654), (-0.18438014, -0.096401066, 0.19671217), (-0.11053291, -0.025678134, 0.33318815), (-0.14365919, -0.022585182, 0.33850643), (-0.02503772, 0.0026229806, 0.47684842), (-0.09848239, -0.04357848, 0.41416994), (-0.17703275, -0.10043666, 0.15825169), (-0.104496546, -0.10786549, 0.16552801), (-0.10599591, -0.088374585, -0.007902673), (-0.18397716, -0.08033834, -0.0070801442), (-0.22028902, 0.12299185, 0.1855814), (0.010105267, 0.26325634, 0.35272548), (0.07644178, -0.022963572, 0.22667535), (-0.0966916, 0.22016749, 0.26432094), (0.13152716, 0.21299052, 0.2810517), (-0.16554654, 0.19297849, 0.17857711), (0.18176678, 0.12408369, 0.27568117), (-0.2386838, 0.0036236893, 0.24973808), (0.082464226, 0.24573632, 0.32581088), (0.017637372, -0.100583464, 0.22634263), (-0.1290735, -0.11048702, 0.24451898), (0.12122032, 0.27097932, 0.18510495), (0.019547166, 0.28546625, 0.28538808), (0.026724659, -0.101441346, 0.17273068), (0.09367167, -0.009912249, 0.16430467), (-0.09338735, 0.23978944, 0.18779069), (0.15425232, 0.23039123, 0.19460434), (-0.16141216, 0.20541604, 0.13244693), (0.23428175, 0.15075116, 0.12036097), (-0.2239594, 0.1315233, 0.11186895), (-0.25604212, 0.014165859, 0.14259072), (-0.2616572, -0.008684598, -0.0058177547), (-0.21089947, 0.12969524, -0.0055140792), (-0.20789506, 0.029044505, 0.3202038), (-0.10927655, -0.08389484, 0.3038438), (0.06475011, 0.1070844, 0.5395758), (0.06338532, 0.16286846, 0.51016414), (-0.00011968484, 0.10981305, 0.5485637), (-0.036535546, 0.1897943, 0.51032937), (0.049101997, 0.18764913, 0.4943879), (0.06716159, 0.23061809, 0.384044), (0.0006367102, 0.24089247, 0.41556838), (0.031994216, 0.3273831, -0.0053838207), (0.107118696, 0.25408238, -0.0055620284), (0.05362303, -0.024044434, 0.3688841), (-0.09941352, 0.20116034, 0.33490026), (0.10613327, 0.18671043, 0.3828411), (-0.17821336, 0.032094233, 0.33362553), (-0.16350168, 0.18005918, 0.234921), (0.13237086, 0.08890374, 0.41551408), (0.0052626696, -0.09990204, 0.2751872), (-0.029225538, 0.14392224, -0.0066404487), (-0.06184466, 0.03498771, 0.49745905), (-0.07219336, 0.27249148, -0.0053838096), (0.034281097, -0.013710926, 0.4604663), (0.045316126, 0.066246115, -0.0077430005), (-0.15345192, 0.013607524, 0.42925563), (-0.1506023, 0.05792895, -0.006646122), (0.10836856, 0.22374728, -0.0058536204), (-0.116073176, 0.14967045, 0.4607771), (-0.14668165, 0.22357583, -0.005398732), (0.09266789, 0.07213815, 0.5132152), (0.21501963, 0.12824887, -0.007031826), (-0.029265204, -0.09251318, 0.3974493), (0.043738987, -0.09390524, -0.008087911), (-0.00803341, -0.30459926, -0.0018225095), (-0.03496268, -0.27772403, 0.16919716), (0.09750226, -0.2763005, -0.0018973162), (0.04830602, -0.25220802, 0.21848175), (-0.0046389285, -0.15517238, -0.0024437464), (-0.0049123163, -0.17594385, 0.200417), (0.091518, -0.22224396, -0.0021670333), (-0.044982143, -0.2206156, -0.002215859), (-0.052232727, -0.21239991, 0.18542646), (0.02672787, -0.26366723, -0.001999561), (0.006658227, -0.26670718, 0.19608377), (0.038433228, -0.1576827, -0.002452732), (-0.014039511, -0.22630678, 0.21238914), (0.019672804, -0.22200683, -0.0022156844), (-0.023714038, -0.29231757, 0.112824485), (0.06606431, -0.2573262, 0.17759845), (-0.020098751, -0.16202869, 0.10987049), (-0.059293285, -0.20380254, 0.14776313), (0.08208623, -0.22038697, 0.16647731), (0.012013033, -0.16708986, 0.15110727), (0.010516747, -0.2761507, 0.1564921), (0.10075308, -0.20971224, -0.002200214), (0.094698876, -0.16486506, -0.002388711), (0.0591866, -0.17600678, 0.18289463), (0.07993715, -0.19673337, 0.1687392), (0.06261252, -0.20309724, 0.21210451), (0.033640224, -0.18083812, 0.21941334), (0.026179653, -0.21596096, 0.23361231), (0.061249446, -0.21449105, 0.21794382), (0.04763257, -0.23323204, 0.22968803), (-0.060139477, -0.2594176, 0.12836644), (-0.07107019, -0.19757283, 0.14226912), (-0.055002123, -0.17298879, -0.0023880722), (-0.1027419, -0.2053891, -0.0021280944), (-0.09591259, -0.19667567, 0.064749815), (-0.058862023, -0.16644855, 0.053429194), (0.112152375, -0.27029037, 0.050329883), (-0.014596062, -0.15639943, 0.06366718), (0.110732935, -0.22400497, 0.086944096), (0.0221715, -0.16065313, 0.08889925), (0.025895623, -0.2898842, 0.065013595), (-0.015678914, -0.30103198, 0.06787735), (0.07768178, -0.17029767, 0.13046345), (0.11096342, -0.20322885, 0.08472955), (-0.07187937, -0.26564258, 0.101501375), (-0.019062644, -0.2971584, 0.09074657), (0.08947466, -0.19747032, 0.14500742), (-0.08984184, -0.20020439, 0.11169979), (0.09063132, -0.26231223, 0.11728826), (-0.018759115, -0.15863487, 0.08490833), (0.09814435, -0.22116497, 0.12447492), (0.01675776, -0.16403058, 0.12216123), (0.01780718, -0.2874486, 0.09123333), (0.068286695, -0.17313062, 0.15812217), (-0.057858165, -0.16829322, 0.08724125), (-0.082735494, -0.2520031, -0.0019785445), (-0.055023607, -0.2738547, -0.0019228779), (-0.06027714, -0.2752979, 0.06641242), (-0.08569441, -0.25502416, 0.06576007), (-0.046929203, -0.24459304, 0.17751029), (-0.00953757, -0.24638155, 0.20329033), (-0.059115943, -0.22975211, 0.14714369), (-0.047802176, -0.23956965, 0.14377983), (-0.08871545, -0.24966335, 0.08282615), (0.020872407, -0.26194736, 0.20458119), (0.058803678, -0.2726667, -0.0019535078), (0.05686207, -0.22286099, -0.0022182327), (0.032939937, -0.26783115, 0.17250472), (0.049888894, -0.2798471, 0.10363906), (0.052059047, -0.28576082, 0.055101626), (-0.06737609, -0.26220414, 0.114220195), (-0.020340748, -0.294917, 0.102456495), (0.08453621, -0.19579504, 0.15710689), (-0.08231509, -0.19833018, 0.1267286), (0.07807927, -0.25960734, 0.14876643), (-0.019044068, -0.16031308, 0.101043515), (0.08882354, -0.2209088, 0.14928143), (0.014313495, -0.16557215, 0.13715148), (0.014025841, -0.281743, 0.12541756), (0.06370223, -0.17453799, 0.17057678), (-0.07625654, -0.23865043, 0.116795816), (0.039908893, -0.27199134, 0.15040648), (-0.051190596, -0.1684214, 0.11478818), (0.21314304, -0.25265, 0.04040776), (0.2349788, -0.21351066, 0.06371537), (0.1843816, -0.20340806, 0.055207223), (0.18142065, -0.23275238, 0.05202249), (0.22486202, -0.23355597, 0.05372704), (0.20195067, -0.22390416, 0.06671357), (0.20103928, -0.19173089, 0.06384719), (0.21317334, -0.20592393, 0.07619562), (0.2276219, -0.20588242, 0.07115245), (0.19590992, -0.24355401, 0.046781417), (0.21121883, -0.23058173, 0.060313653), (0.22843067, -0.2267195, 0.057751995), (0.23882109, -0.21033031, -0.0017737501), (0.23192939, -0.2268815, -0.0017737498), (0.21567485, -0.2603029, -0.00177375), (0.19484043, -0.24950719, -0.0017737538), (0.21185388, -0.23174798, -0.0017737525), (0.2281735, -0.23559292, -0.0017737498), (0.17911023, -0.20197167, -0.0017737594), (0.17716902, -0.23677117, -0.0017737573), (0.20049089, -0.22342548, -0.0017737547), (0.19788548, -0.18638009, -0.0017737577), (0.22963062, -0.2006658, -0.001773752), (0.21255147, -0.20059672, -0.0017737546), (0.21204217, -0.35391256, 0.046622835), (0.19949229, -0.28665197, 0.082205065), (0.13022657, -0.32415777, 0.06921624), (0.15538125, -0.36150134, 0.0643543), (0.20717193, -0.3200591, 0.066956535), (0.1708533, -0.3310811, 0.08678223), (0.13839172, -0.29419413, 0.08240632), (0.16648702, -0.29901963, 0.101257876), (0.18341129, -0.28487343, 0.09355879), (0.18293294, -0.36004692, 0.056353096), (0.18825082, -0.32987863, 0.0770119), (0.2046917, -0.30855012, 0.07310118), (0.20090061, -0.27916884, -0.017772976), (0.20895776, -0.30532664, -0.017772973), (0.22248182, -0.36042792, -0.017772978), (0.18748572, -0.36808032, -0.017772982), (0.19013435, -0.33062834, -0.01777298), (0.21304753, -0.31921977, -0.017772976), (0.122635685, -0.32761455, -0.01777299), (0.15431038, -0.37036836, -0.017772987), (0.16867225, -0.33194333, -0.017772982), (0.1294679, -0.29098868, -0.017772986), (0.18067995, -0.27678844, -0.017772978), (0.16055913, -0.29337147, -0.01777298), (-0.23878159, -0.24813336, 0.04367938), (-0.1851567, -0.22810496, 0.07344835), (-0.226041, -0.17642124, 0.06258157), (-0.253195, -0.2025297, 0.058513958), (-0.21158293, -0.2392447, 0.060691044), (-0.2258965, -0.21090029, 0.077277735), (-0.20017101, -0.17883568, 0.07361673), (-0.20010217, -0.202685, 0.0893884), (-0.18600662, -0.21459587, 0.08294716), (-0.24802889, -0.22502665, 0.051819954), (-0.22240026, -0.22506508, 0.06910362), (-0.20245515, -0.23554334, 0.0658318), (-0.17878677, -0.22818804, -0.010195753), (-0.19918421, -0.238595, -0.010195749), (-0.24264781, -0.2576753, -0.01019575), (-0.25399393, -0.22993562, -0.010195754), (-0.22274688, -0.22672534, -0.010195754), (-0.21004513, -0.24396613, -0.010195754), (-0.22998293, -0.17066307, -0.010195761), (-0.2606569, -0.20292397, -0.010195764), (-0.2269212, -0.20922695, -0.010195758), (-0.19881432, -0.17101964, -0.01019576), (-0.1797368, -0.21118061, -0.010195754), (-0.19630091, -0.19698623, -0.010195757)]
            texCoord2f[] primvars:st = [(0.33951315, 0.7788404), (0.7133477, 0.6855006), (0.3333613, 0.8581928), (0.666021, 0.6468768), (0.13352957, 0.48103675), (0.09249795, 0.5947479), (0.30304936, 0.87234694), (0.110187866, 0.44130436), (0.28786403, 0.7563479), (0.054736674, 0.5823496), (0.68880427, 0.72168726), (0.3167203, 0.8089481), (0.6901216, 0.66837895), (0.15381603, 0.4862663), (0.06761569, 0.61744225), (0.67125213, 0.6908669), (0.15468863, 0.44841692), (0.29183796, 0.8083739), (0.7541832, 0.68335587), (0.69160837, 0.62846285), (0.10490692, 0.5208595), (0.72274536, 0.73938787), (0.059652355, 0.54217625), (0.69546705, 0.591563), (0.11395931, 0.5600837), (0.7179448, 0.6612958), (0.19671176, 0.5064371), (0.2921748, 0.887077), (0.17967574, 0.5102258), (0.1363849, 0.5951064), (0.6717134, 0.5889418), (0.15497866, 0.5943917), (0.6485516, 0.62403303), (0.12796395, 0.6276558), (0.11201614, 0.6156289), (0.6485516, 0.664767), (0.10051934, 0.6372586), (0.12216761, 0.6369012), (0.65042853, 0.6332088), (0.11265893, 0.64970165), (0.6544574, 0.6488843), (0.74913335, 0.7152622), (0.72694445, 0.7494752), (0.05631947, 0.53073895), (0.1061561, 0.4665296), (0.07472727, 0.44831097), (0.2934919, 0.72187454), (0.31949306, 0.69402486), (0.065762326, 0.48339385), (0.76753163, 0.7697822), (0.09596783, 0.48718038), (0.34394488, 0.87708837), (0.76522183, 0.5663242), (0.11860321, 0.5004538), (0.32411966, 0.9076105), (0.20375134, 0.549681), (0.7289217, 0.5609282), (0.13572048, 0.5207739), (0.36598855, 0.7995383), (0.7827732, 0.6525416), (0.37114307, 0.7753708), (0.78177494, 0.6797229), (0.16004571, 0.55756444), (0.30871585, 0.91127396), (0.192219, 0.53939104), (0.76221555, 0.7191991), (0.7678735, 0.6809864), (0.16739488, 0.5752407), (0.7423182, 0.75646853), (0.054736674, 0.5128821), (0.73272854, 0.5955188), (0.11114611, 0.510784), (0.18920143, 0.5698991), (0.71152216, 0.57643074), (0.12488608, 0.540452), (0.76668614, 0.6547852), (0.14899613, 0.5771234), (0.08773411, 0.50458944), (0.3187515, 0.7357022), (0.3291235, 0.7517275), (0.7818272, 0.7136351), (0.35970095, 0.74108326), (0.3496053, 0.72119087), (0.7785375, 0.73556364), (0.70164394, 0.7046436), (0.6830887, 0.68178254), (0.73186255, 0.7290685), (0.72595406, 0.7172042), (0.7687012, 0.7343247), (0.3507403, 0.85848993), (0.3566061, 0.83053666), (0.36403263, 0.8685801), (0.78495425, 0.5833811), (0.7879917, 0.62965304), (0.38221574, 0.8247514), (0.7476758, 0.59926575), (0.77795434, 0.63370955), (0.6804783, 0.659271), (0.32640797, 0.8337232), (0.7002739, 0.64712524), (0.73482597, 0.6283215), (0.35424855, 0.84488904), (0.78722465, 0.60516495), (0.3763646, 0.84845865), (0.756713, 0.62289697), (0.755662, 0.71710557), (0.7610184, 0.681997), (0.68016905, 0.5821523), (0.16113123, 0.5845498), (0.73373973, 0.753474), (0.05573674, 0.52252924), (0.71177936, 0.61194414), (0.10676122, 0.51843244), (0.18346916, 0.5797214), (0.7034936, 0.58386356), (0.11944323, 0.5502705), (0.7416189, 0.65788054), (0.14283893, 0.5864423), (0.75012445, 0.7320392), (0.7177299, 0.6375749), (0.08407169, 0.5172091), (0.071328096, 0.9384042), (0.8154435, 0.14674118), (0.037665382, 0.95252687), (0.081113815, 0.87301517), (0.7592138, 0.155684), (0.8368249, 0.15053838), (0.08122887, 0.90442777), (0.78279245, 0.16481672), (0.08522869, 0.92945844), (0.80090004, 0.15818948), (0.053131968, 0.94349325), (0.76982576, 0.16342793), (0.002850051, 0.958062), (0.8575598, 0.15300135), (0.027197374, 0.95548666), (0.83451307, 0.1917237), (0.82482827, 0.17198862), (0.81151867, 0.13279605), (0.78626674, 0.2410864), (0.84225744, 0.2130015), (0.81074494, 0.2411148), (0.0044927225, 0.87489074), (0.8064613, 0.116427764), (0.039067756, 0.96596533), (0.028209299, 0.932523), (0.03631861, 0.9385887), (0.0127226375, 0.88925767), (0.018384263, 0.9118716), (0.039908916, 0.9729688), (0.025415406, 0.9747701), (0.031329393, 0.9980469), (0.80370325, 0.29910865), (0.05036029, 0.9955579), (0.7910935, 0.30837044), (0.07775641, 0.94535756), (0.08852136, 0.87675554), (0.75988424, 0.16404027), (0.8446974, 0.16710702), (0.088394634, 0.908847), (0.7851264, 0.17922446), (0.091011375, 0.9332323), (0.8050737, 0.17690028), (0.055023905, 0.9493042), (0.7717527, 0.17054558), (0.85955054, 0.15770382), (0.0021558886, 0.9640262), (0.028556457, 0.9604999), (0.7787785, 0.19885729), (0.1029504, 0.8846009), (0.76099944, 0.18056409), (0.86361843, 0.16703404), (0.001953125, 0.9759038), (0.84723866, 0.17875949), (0.1028937, 0.9176573), (0.78918815, 0.1958967), (0.09985269, 0.93777937), (0.8136441, 0.2066245), (0.088212915, 0.95493484), (0.06613591, 0.9653773), (0.07521198, 0.98713464), (0.7695559, 0.31110144), (0.1006027, 0.9670882), (0.7567888, 0.2864406), (0.05118047, 0.9385778), (0.026217436, 0.9504406), (0.78150773, 0.11351793), (0.017291358, 0.8549473), (0.7740206, 0.12226628), (0.7695561, 0.10854517), (0.027890688, 0.86145824), (0.04854069, 0.86431706), (0.7541187, 0.12168329), (0.76934826, 0.12684722), (0.7691507, 0.15607129), (0.07360858, 0.86932254), (0.7586421, 0.14719293), (0.13089971, 0.9023211), (0.76306593, 0.21370785), (0.7826766, 0.21891703), (0.829088, 0.13397129), (0.07412249, 0.900077), (0.7807704, 0.15395062), (0.045809966, 0.9330879), (0.08310996, 0.92836845), (0.79673886, 0.13965334), (0.0035686134, 0.9520284), (0.85560936, 0.14825112), (0.78347814, 0.25584877), (0.023577783, 0.8872649), (0.1326498, 0.9346151), (0.7570217, 0.24422418), (0.001953125, 0.8862435), (0.8172394, 0.116582714), (0.858274, 0.20971411), (0.804185, 0.2567115), (0.032009557, 0.9087506), (0.776091, 0.28907564), (0.7907259, 0.22720425), (0.048309904, 0.8867493), (0.7541187, 0.2614575), (0.11801639, 0.9454777), (0.008120347, 0.85805994), (0.79030937, 0.11626263), (0.82611525, 0.21684079), (0.8163866, 0.22401288), (0.84327877, 0.11813672), (0.0021857452, 0.9160372), (0.8757003, 0.18378387), (0.0023498344, 0.99754995), (0.82355654, 0.28145427), (0.8757003, 0.18378387), (0.0023498344, 0.99754995), (0.82355654, 0.28145427), (0.0021857452, 0.9160372), (0.84327877, 0.11813672), (0.8163866, 0.22401288), (0.82611525, 0.21684079), (0.79030937, 0.11626263), (0.008120347, 0.85805994), (0.7541187, 0.2614575), (0.11801639, 0.9454777), (0.048309904, 0.8867493), (0.7907259, 0.22720425), (0.776091, 0.28907564), (0.032009557, 0.9087506), (0.804185, 0.2567115), (0.858274, 0.20971411), (0.8172394, 0.116582714), (0.001953125, 0.8862435), (0.7570217, 0.24422418), (0.1326498, 0.9346151), (0.023577783, 0.8872649), (0.78347814, 0.25584877), (0.85560936, 0.14825112), (0.0035686134, 0.9520284), (0.79673886, 0.13965334), (0.08310996, 0.92836845), (0.045809966, 0.9330879), (0.7807704, 0.15395062), (0.07412249, 0.900077), (0.829088, 0.13397129), (0.7826766, 0.21891703), (0.76306593, 0.21370785), (0.13089971, 0.9023211), (0.07360858, 0.86932254), (0.7586421, 0.14719293), (0.7691507, 0.15607129), (0.76934826, 0.12684722), (0.04854069, 0.86431706), (0.7541187, 0.12168329), (0.027890688, 0.86145824), (0.7695561, 0.10854517), (0.7740206, 0.12226628), (0.78150773, 0.11351793), (0.017291358, 0.8549473), (0.026217436, 0.9504406), (0.05118047, 0.9385778), (0.7567888, 0.2864406), (0.1006027, 0.9670882), (0.07521198, 0.98713464), (0.7695559, 0.31110144), (0.06613591, 0.9653773), (0.088212915, 0.95493484), (0.8136441, 0.2066245), (0.09985269, 0.93777937), (0.78918815, 0.1958967), (0.1028937, 0.9176573), (0.84723866, 0.17875949), (0.001953125, 0.9759038), (0.86361843, 0.16703404), (0.76099944, 0.18056409), (0.1029504, 0.8846009), (0.7787785, 0.19885729), (0.028556457, 0.9604999), (0.0021558886, 0.9640262), (0.85955054, 0.15770382), (0.7717527, 0.17054558), (0.055023905, 0.9493042), (0.8050737, 0.17690028), (0.091011375, 0.9332323), (0.7851264, 0.17922446), (0.088394634, 0.908847), (0.8446974, 0.16710702), (0.75988424, 0.16404027), (0.08852136, 0.87675554), (0.07775641, 0.94535756), (0.05036029, 0.9955579), (0.7910935, 0.30837044), (0.031329393, 0.9980469), (0.80370325, 0.29910865), (0.025415406, 0.9747701), (0.039908916, 0.9729688), (0.018384263, 0.9118716), (0.0127226375, 0.88925767), (0.03631861, 0.9385887), (0.028209299, 0.932523), (0.039067756, 0.96596533), (0.8064613, 0.116427764), (0.0044927225, 0.87489074), (0.81074494, 0.2411148), (0.84225744, 0.2130015), (0.78626674, 0.2410864), (0.81151867, 0.13279605), (0.82482827, 0.17198862), (0.83451307, 0.1917237), (0.027197374, 0.95548666), (0.002850051, 0.958062), (0.8575598, 0.15300135), (0.76982576, 0.16342793), (0.053131968, 0.94349325), (0.80090004, 0.15818948), (0.08522869, 0.92945844), (0.78279245, 0.16481672), (0.08122887, 0.90442777), (0.8368249, 0.15053838), (0.7592138, 0.155684), (0.081113815, 0.87301517), (0.037665382, 0.95252687), (0.8154435, 0.14674118), (0.071328096, 0.9384042), (0.0021857452, 0.9160372), (0.008120347, 0.85805994), (0.048309904, 0.8867493), (0.032009557, 0.9087506), (0.001953125, 0.8862435), (0.023577783, 0.8872649), (0.04854069, 0.86431706), (0.027890688, 0.86145824), (0.017291358, 0.8549473), (0.018384263, 0.9118716), (0.0127226375, 0.88925767), (0.0044927225, 0.87489074), (0.008120347, 0.85805994), (0.0044927225, 0.87489074), (0.0021857452, 0.9160372), (0.018384263, 0.9118716), (0.0127226375, 0.88925767), (0.001953125, 0.8862435), (0.048309904, 0.8867493), (0.032009557, 0.9087506), (0.023577783, 0.8872649), (0.04854069, 0.86431706), (0.017291358, 0.8549473), (0.027890688, 0.86145824), (0.0021857452, 0.9160372), (0.008120347, 0.85805994), (0.048309904, 0.8867493), (0.032009557, 0.9087506), (0.001953125, 0.8862435), (0.023577783, 0.8872649), (0.04854069, 0.86431706), (0.027890688, 0.86145824), (0.017291358, 0.8549473), (0.018384263, 0.9118716), (0.0127226375, 0.88925767), (0.0044927225, 0.87489074), (0.008120347, 0.85805994), (0.0044927225, 0.87489074), (0.0021857452, 0.9160372), (0.018384263, 0.9118716), (0.0127226375, 0.88925767), (0.001953125, 0.8862435), (0.048309904, 0.8867493), (0.032009557, 0.9087506), (0.023577783, 0.8872649), (0.04854069, 0.86431706), (0.017291358, 0.8549473), (0.027890688, 0.86145824), (0.0021857452, 0.9160372), (0.008120347, 0.85805994), (0.048309904, 0.8867493), (0.032009557, 0.9087506), (0.001953125, 0.8862435), (0.023577783, 0.8872649), (0.04854069, 0.86431706), (0.027890688, 0.86145824), (0.017291358, 0.8549473), (0.018384263, 0.9118716), (0.0127226375, 0.88925767), (0.0044927225, 0.87489074), (0.008120347, 0.85805994), (0.0044927225, 0.87489074), (0.0021857452, 0.9160372), (0.018384263, 0.9118716), (0.0127226375, 0.88925767), (0.001953125, 0.8862435), (0.048309904, 0.8867493), (0.032009557, 0.9087506), (0.023577783, 0.8872649), (0.04854069, 0.86431706), (0.017291358, 0.8549473), (0.027890688, 0.86145824)] (
                interpolation = "faceVarying"
            )
            int[] primvars:st:indices = [99, 97, 3, 19, 24, 5, 20, 87, 84, 1, 18, 16, 13, 4, 7, 85, 12, 1, 84, 5, 14, 9, 11, 17, 8, 0, 20, 5, 9, 22, 29, 34, 5, 24, 19, 3, 40, 38, 23, 35, 40, 85, 15, 18, 1, 12, 25, 120, 43, 110, 106, 18, 25, 116, 111, 19, 23, 114, 88, 65, 80, 83, 106, 105, 41, 18, 115, 24, 20, 112, 117, 29, 24, 115, 34, 36, 14, 5, 119, 99, 19, 111, 62, 28, 26, 64, 36, 37, 39, 36, 34, 33, 37, 23, 38, 32, 30, 33, 34, 29, 31, 106, 66, 65, 105, 21, 87, 86, 42, 4, 44, 45, 7, 46, 47, 82, 78, 118, 86, 41, 105, 114, 23, 30, 107, 61, 80, 65, 66, 71, 112, 120, 77, 6, 54, 63, 27, 76, 62, 64, 67, 51, 2, 89, 91, 28, 62, 57, 13, 13, 57, 53, 4, 2, 51, 54, 6, 0, 60, 58, 11, 44, 50, 48, 45, 117, 76, 67, 108, 55, 72, 67, 64, 0, 79, 81, 60, 70, 52, 92, 95, 62, 76, 74, 57, 57, 74, 71, 53, 52, 70, 73, 56, 61, 66, 75, 59, 50, 77, 69, 48, 109, 42, 86, 118, 78, 82, 81, 79, 4, 53, 50, 44, 15, 85, 84, 10, 21, 10, 84, 87, 49, 68, 88, 83, 101, 103, 91, 89, 102, 104, 95, 92, 98, 11, 90, 101, 11, 58, 94, 90, 100, 70, 95, 104, 59, 75, 96, 93, 75, 100, 104, 96, 2, 98, 101, 89, 93, 96, 104, 102, 90, 94, 103, 101, 116, 25, 99, 119, 25, 12, 97, 99, 85, 40, 3, 97, 12, 41, 86, 87, 18, 75, 116, 119, 100, 68, 109, 118, 88, 53, 71, 77, 50, 29, 117, 108, 31, 72, 113, 108, 67, 88, 118, 105, 65, 100, 119, 111, 70, 76, 117, 115, 74, 74, 115, 112, 71, 70, 111, 114, 73, 66, 106, 116, 75, 77, 120, 110, 69, 8, 46, 78, 79, 0, 43, 120, 112, 20, 22, 165, 158, 126, 134, 196, 194, 132, 125, 156, 159, 127, 124, 163, 144, 123, 131, 160, 164, 132, 128, 126, 122, 138, 200, 176, 178, 155, 161, 155, 163, 131, 121, 209, 216, 148, 147, 161, 155, 121, 129, 185, 206, 145, 146, 153, 151, 150, 149, 171, 173, 158, 165, 124, 127, 201, 195, 131, 123, 146, 184, 177, 175, 160, 162, 125, 132, 164, 157, 158, 137, 122, 126, 178, 179, 163, 155, 228, 214, 173, 171, 140, 136, 173, 214, 197, 210, 174, 169, 229, 172, 150, 151, 225, 218, 175, 177, 133, 206, 185, 135, 169, 174, 159, 156, 159, 161, 129, 127, 128, 132, 194, 202, 157, 164, 168, 170, 175, 168, 164, 160, 122, 130, 205, 138, 195, 201, 219, 191, 147, 212, 142, 222, 187, 191, 219, 209, 190, 140, 224, 177, 136, 203, 145, 148, 216, 137, 162, 130, 122, 184, 203, 204, 129, 121, 172, 166, 167, 150, 130, 128, 202, 205, 202, 194, 193, 188, 203, 184, 146, 145, 189, 188, 193, 192, 193, 194, 196, 192, 133, 135, 167, 166, 189, 186, 188, 180, 153, 149, 179, 218, 199, 168, 175, 147, 148, 227, 212, 144, 167, 135, 123, 200, 138, 143, 213, 225, 141, 139, 218, 123, 135, 185, 146, 208, 217, 220, 211, 201, 204, 219, 136, 177, 162, 137, 173, 136, 137, 158, 207, 200, 213, 226, 170, 168, 199, 198, 215, 230, 217, 208, 138, 205, 223, 143, 145, 206, 227, 148, 182, 180, 179, 178, 217, 230, 152, 154, 181, 179, 149, 144, 163, 162, 160, 128, 130, 221, 182, 178, 176, 219, 216, 209, 121, 131, 184, 220, 217, 181, 183, 210, 221, 176, 174, 134, 126, 200, 207, 127, 129, 204, 201, 205, 202, 188, 186, 223, 204, 203, 216, 219, 141, 215, 208, 139, 190, 209, 147, 187, 144, 149, 150, 167, 218, 139, 208, 211, 198, 199, 174, 176, 161, 159, 323, 256, 238, 318, 260, 257, 242, 316, 255, 234, 313, 253, 244, 240, 250, 314, 313, 234, 249, 242, 245, 252, 246, 233, 244, 253, 257, 258, 245, 242, 320, 246, 253, 322, 265, 260, 242, 269, 256, 259, 273, 274, 238, 271, 252, 314, 275, 254, 261, 248, 235, 340, 330, 277, 243, 322, 253, 250, 263, 262, 328, 335, 261, 254, 331, 333, 259, 256, 317, 312, 311, 294, 327, 255, 276, 326, 334, 332, 257, 260, 337, 334, 260, 265, 269, 242, 252, 271, 339, 331, 256, 323, 291, 293, 262, 263, 272, 274, 273, 272, 273, 268, 270, 259, 267, 268, 273, 268, 267, 266, 270, 327, 326, 294, 295, 258, 277, 315, 316, 240, 244, 281, 278, 280, 307, 312, 282, 338, 326, 276, 315, 333, 329, 267, 259, 289, 295, 294, 311, 300, 306, 340, 332, 243, 262, 293, 286, 304, 297, 293, 291, 321, 325, 288, 247, 264, 251, 287, 292, 251, 241, 285, 287, 236, 243, 286, 284, 231, 247, 288, 290, 279, 280, 282, 283, 336, 329, 297, 304, 286, 293, 297, 301, 232, 289, 311, 309, 292, 287, 302, 305, 287, 285, 300, 302, 284, 286, 301, 299, 290, 288, 303, 296, 283, 282, 298, 306, 330, 338, 315, 277, 307, 309, 311, 312, 241, 279, 283, 285, 252, 245, 313, 314, 258, 316, 313, 245, 282, 312, 317, 298, 288, 325, 324, 303, 325, 284, 299, 324, 335, 339, 323, 261, 236, 320, 322, 243, 261, 323, 318, 248, 314, 249, 319, 239, 275, 276, 255, 316, 315, 303, 324, 339, 335, 298, 317, 338, 330, 285, 283, 306, 300, 266, 267, 329, 336, 301, 297, 329, 333, 317, 294, 326, 338, 324, 299, 331, 339, 305, 302, 334, 337, 302, 300, 332, 334, 299, 301, 333, 331, 296, 303, 335, 328, 306, 298, 330, 340, 244, 233, 310, 308, 281, 277, 258, 257, 332, 340, 321, 237, 284, 325, 17, 6, 27, 28, 13, 11, 98, 2, 6, 17, 351, 350, 341, 345, 343, 344, 346, 348, 346, 351, 349, 347, 343, 346, 348, 346, 344, 350, 351, 351, 345, 352, 342, 349, 357, 358, 355, 356, 359, 361, 360, 364, 363, 357, 361, 362, 364, 361, 359, 361, 357, 356, 360, 357, 363, 353, 354, 358, 343, 359, 360, 344, 342, 353, 363, 349, 345, 358, 354, 352, 349, 363, 364, 348, 341, 355, 358, 345, 352, 354, 353, 342, 348, 364, 362, 347, 350, 356, 355, 341, 347, 362, 359, 343, 344, 360, 356, 350, 375, 374, 365, 369, 367, 368, 370, 372, 370, 375, 373, 371, 367, 370, 372, 370, 368, 374, 375, 375, 369, 376, 366, 373, 381, 382, 379, 380, 383, 385, 384, 388, 387, 381, 385, 386, 388, 385, 383, 385, 381, 380, 384, 381, 387, 377, 378, 382, 367, 383, 384, 368, 366, 377, 387, 373, 369, 382, 378, 376, 373, 387, 388, 372, 365, 379, 382, 369, 376, 378, 377, 366, 372, 388, 386, 371, 374, 380, 379, 365, 371, 386, 383, 367, 368, 384, 380, 374, 399, 398, 389, 393, 391, 392, 394, 396, 394, 399, 397, 395, 391, 394, 396, 394, 392, 398, 399, 399, 393, 400, 390, 397, 405, 406, 403, 404, 407, 409, 408, 412, 411, 405, 409, 410, 412, 409, 407, 409, 405, 404, 408, 405, 411, 401, 402, 406, 391, 407, 408, 392, 390, 401, 411, 397, 393, 406, 402, 400, 397, 411, 412, 396, 389, 403, 406, 393, 400, 402, 401, 390, 396, 412, 410, 395, 398, 404, 403, 389, 395, 410, 407, 391, 392, 408, 404, 398]
            uniform token subdivisionScheme = "none"
            custom string userProperties:blender:data_name = "Cube.008"
        }
    }

    def Scope "_materials"
    {
        def Material "Stone"
        {
            token outputs:surface.connect = </root/_materials/Stone/Principled_BSDF.outputs:surface>
            custom string userProperties:blender:data_name = "Stone"

            def Shader "Principled_BSDF"
            {
                uniform token info:id = "UsdPreviewSurface"
                float inputs:clearcoat = 0
                float inputs:clearcoatRoughness = 0.03
                color3f inputs:diffuseColor = (0.2443643, 0.24618882, 0.21545054)
                color3f inputs:emissiveColor = (0, 0, 0)
                float inputs:ior = 1.5
                float inputs:metallic = 0
                float inputs:opacity = 1
                float inputs:roughness = 0.5
                float inputs:specular = 0.5
                token outputs:surface
            }
        }
    }
}

