#usda 1.0
(
    defaultPrim = "root"
    doc = "Blender v5.1.2"
    metersPerUnit = 1
    upAxis = "Y"
)

def Xform "root" (
    customData = {
        dictionary Blender = {
            bool generated = 1
        }
    }
)
{
    float3 xformOp:rotateXYZ = (-90, -0, 0)
    uniform token[] xformOpOrder = ["xformOp:rotateXYZ"]

    def Xform "BottomSimple_Corner_Round_Inner"
    {
        custom string userProperties:blender:object_name = "BottomSimple_Corner_Round_Inner"

        def Mesh "Plane_163" (
            active = true
            prepend apiSchemas = ["MaterialBindingAPI"]
        )
        {
            uniform bool doubleSided = 1
            float3[] extent = [(-3.999997, 0.000019133946, -3.0199158e-7), (0.0000013052523, 4, 0.02)]
            int[] faceVertexCounts = [4, 4, 4, 4, 4, 4, 4, 4, 4, 4, 4, 4, 4, 4, 4, 4, 4, 4, 4, 4, 4, 4, 4, 4, 4, 4, 4, 4, 4, 4, 4, 4, 4, 4, 4, 4, 4, 4, 4, 4, 4, 4, 4, 4, 4, 4, 4, 4, 4, 4, 4, 4, 4, 4, 4, 4, 4, 4, 4, 4, 4, 4, 4, 4]
            int[] faceVertexIndices = [16, 0, 6, 22, 11, 14, 7, 4, 36, 22, 6, 3, 10, 2, 7, 14, 0, 8, 12, 6, 8, 9, 13, 12, 9, 10, 14, 13, 3, 6, 12, 40, 40, 12, 13, 41, 41, 13, 14, 11, 28, 5, 20, 18, 18, 20, 21, 19, 19, 21, 22, 36, 1, 17, 20, 5, 17, 15, 21, 20, 15, 16, 22, 21, 35, 36, 3, 26, 44, 11, 4, 29, 37, 23, 26, 42, 32, 24, 27, 33, 23, 31, 35, 26, 31, 30, 34, 35, 30, 32, 33, 34, 27, 28, 18, 33, 33, 18, 19, 34, 34, 19, 36, 35, 25, 39, 44, 29, 39, 38, 43, 44, 38, 37, 42, 43, 26, 3, 40, 42, 42, 40, 41, 43, 43, 41, 11, 44, 62, 45, 50, 67, 56, 59, 5, 28, 64, 67, 50, 48, 52, 1, 5, 59, 45, 51, 57, 50, 51, 53, 58, 57, 53, 52, 59, 58, 48, 50, 57, 54, 54, 57, 58, 55, 55, 58, 59, 56, 47, 49, 65, 78, 78, 65, 66, 63, 63, 66, 67, 64, 46, 60, 65, 49, 60, 61, 66, 65, 61, 62, 67, 66, 77, 64, 48, 70, 84, 56, 28, 27, 79, 68, 70, 82, 72, 69, 71, 75, 68, 74, 77, 70, 74, 73, 76, 77, 73, 72, 75, 76, 71, 47, 78, 75, 75, 78, 63, 76, 76, 63, 64, 77, 24, 80, 84, 27, 80, 81, 83, 84, 81, 79, 82, 83, 70, 48, 54, 82, 82, 54, 55, 83, 83, 55, 56, 84]
            rel material:binding = </root/_materials/MI_Trim_01>
            normal3f[] normals = [(0.48081502, -0.876822, 0), (0.3853727, -0.922761, 0), (0.26684007, -0.6389381, 0.7214946), (0.33518857, -0.6112553, 0.7169488), (2.8967447e-8, 6.9359444e-8, 1), (0.07693751, -0.69362926, 0.7162116), (0.048685662, -0.6897206, 0.722437), (5.365303e-8, 4.7390312e-8, 1), (3.9552956e-9, 7.175013e-8, 1), (0.33518857, -0.6112553, 0.7169488), (0.26684007, -0.6389381, 0.7214946), (-1.6041863e-9, 6.852376e-8, 1), (0.11024391, -0.9939046, 0), (0.07041221, -0.99751806, 0), (0.048685662, -0.6897206, 0.722437), (0.07693751, -0.69362926, 0.7162116), (0.3853727, -0.922761, 0), (0.27998894, -0.96000326, 0), (0.19479677, -0.66790324, 0.7183032), (0.26684007, -0.6389381, 0.7214946), (0.27998894, -0.96000326, 0), (0.19140993, -0.9815101, 0), (0.13348514, -0.68448377, 0.7167033), (0.19479677, -0.66790324, 0.7183032), (0.19140993, -0.9815101, 0), (0.11024391, -0.9939046, 0), (0.07693751, -0.69362926, 0.7162116), (0.13348514, -0.68448377, 0.7167033), (-1.6041863e-9, 6.852376e-8, 1), (0.26684007, -0.6389381, 0.7214946), (0.19479677, -0.66790324, 0.7183032), (-9.642578e-9, 7.521801e-8, 1), (-9.642578e-9, 7.521801e-8, 1), (0.19479677, -0.66790324, 0.7183032), (0.13348514, -0.68448377, 0.7167033), (-8.016528e-9, 8.5351196e-8, 1), (-8.016528e-9, 8.5351196e-8, 1), (0.13348514, -0.68448377, 0.7167033), (0.07693751, -0.69362926, 0.7162116), (2.8967447e-8, 6.9359444e-8, 1), (2.45554e-8, 5.5275326e-8, 1), (0.4890242, -0.4890274, 0.7222933), (0.43586287, -0.5439272, 0.71705425), (-2.1892307e-8, 4.582816e-8, 1), (-2.1892307e-8, 4.582816e-8, 1), (0.43586287, -0.5439272, 0.71705425), (0.38684267, -0.57984215, 0.7170326), (3.923988e-9, 8.645278e-8, 1), (3.923988e-9, 8.645278e-8, 1), (0.38684267, -0.57984215, 0.7170326), (0.33518857, -0.6112553, 0.7169488), (3.9552956e-9, 7.175013e-8, 1), (0.7071044, -0.7071091, 0), (0.6253256, -0.78036386, 0), (0.43586287, -0.5439272, 0.71705425), (0.4890242, -0.4890274, 0.7222933), (0.6253256, -0.78036386, 0), (0.55497944, -0.83186406, 0), (0.38684267, -0.57984215, 0.7170326), (0.43586287, -0.5439272, 0.71705425), (0.55497944, -0.83186406, 0), (0.48081502, -0.876822, 0), (0.33518857, -0.6112553, 0.7169488), (0.38684267, -0.57984215, 0.7170326), (6.054974e-9, 6.017881e-8, 1), (3.9552956e-9, 7.175013e-8, 1), (-1.6041863e-9, 6.852376e-8, 1), (4.5815978e-9, 5.8086354e-8, 1), (6.136999e-9, 6.5787056e-8, 1), (2.8967447e-8, 6.9359444e-8, 1), (5.365303e-8, 4.7390312e-8, 1), (1.2182419e-8, 5.6535228e-8, 1), (-0.28145254, 0.9595751, 0), (-0.38497007, 0.92292905, 0), (-0.38497016, 0.92292905, 0), (-0.28145254, 0.9595751, 0), (-0.62673163, 0.7792351, 0), (-0.70710397, 0.70710963, 0), (-0.70710385, 0.70710963, 0), (-0.6267317, 0.7792351, 0), (-0.38497007, 0.92292905, 0), (-0.47945955, 0.877564, 0), (-0.47945952, 0.877564, 0), (-0.38497016, 0.92292905, 0), (-0.47945955, 0.877564, 0), (-0.5551387, 0.8317578, 0), (-0.55513877, 0.8317577, 0), (-0.47945952, 0.877564, 0), (-0.5551387, 0.8317578, 0), (-0.62673163, 0.7792351, 0), (-0.6267317, 0.7792351, 0), (-0.55513877, 0.8317577, 0), (3.19832e-8, 5.162931e-8, 1), (2.45554e-8, 5.5275326e-8, 1), (-2.1892307e-8, 4.582816e-8, 1), (6.133201e-9, 4.641587e-8, 1), (6.133201e-9, 4.641587e-8, 1), (-2.1892307e-8, 4.582816e-8, 1), (3.923988e-9, 8.645278e-8, 1), (7.6250855e-9, 6.6681665e-8, 1), (7.6250855e-9, 6.6681665e-8, 1), (3.923988e-9, 8.645278e-8, 1), (3.9552956e-9, 7.175013e-8, 1), (6.054974e-9, 6.017881e-8, 1), (-0.06716208, 0.9977422, 0), (-0.10829373, 0.9941189, 0), (-0.10829373, 0.9941189, 0), (-0.06716208, 0.9977422, 0), (-0.10829373, 0.9941189, 0), (-0.1918025, 0.9814336, 0), (-0.1918025, 0.9814336, 0), (-0.10829373, 0.9941189, 0), (-0.1918025, 0.9814336, 0), (-0.28145254, 0.9595751, 0), (-0.28145254, 0.9595751, 0), (-0.1918025, 0.9814336, 0), (4.5815978e-9, 5.8086354e-8, 1), (-1.6041863e-9, 6.852376e-8, 1), (-9.642578e-9, 7.521801e-8, 1), (3.0928946e-9, 5.425384e-8, 1), (3.0928946e-9, 5.425384e-8, 1), (-9.642578e-9, 7.521801e-8, 1), (-8.016528e-9, 8.5351196e-8, 1), (-3.05609e-9, 6.141756e-8, 1), (-3.05609e-9, 6.141756e-8, 1), (-8.016528e-9, 8.5351196e-8, 1), (2.8967447e-8, 6.9359444e-8, 1), (6.136999e-9, 6.5787056e-8, 1), (0.96000254, -0.2799913, -0.000006168519), (0.9227595, -0.38537645, 0), (0.63893634, -0.266842, 0.7214955), (0.6679054, -0.194799, 0.7183005), (3.5991025e-8, 8.543692e-8, 1), (0.54392296, -0.43586406, 0.71705675), (0.4890242, -0.4890274, 0.7222933), (2.45554e-8, 5.5275326e-8, 1), (4.958937e-8, 5.1517333e-8, 1), (0.6679054, -0.194799, 0.7183005), (0.63893634, -0.266842, 0.7214955), (3.6062758e-8, 4.6929078e-8, 1), (0.7803606, -0.6253298, 0.000006718229), (0.7071044, -0.7071091, 0), (0.4890242, -0.4890274, 0.7222933), (0.54392296, -0.43586406, 0.71705675), (0.9227595, -0.38537645, 0), (0.87681836, -0.48082176, 0.00000448258), (0.61125135, -0.3351925, 0.7169503), (0.63893634, -0.266842, 0.7214955), (0.87681836, -0.48082176, 0.00000448258), (0.8318605, -0.5549849, 0.000011200871), (0.5798368, -0.3868439, 0.7170363), (0.61125135, -0.3351925, 0.7169503), (0.8318605, -0.5549849, 0.000011200871), (0.7803606, -0.6253298, 0.000006718229), (0.54392296, -0.43586406, 0.71705675), (0.5798368, -0.3868439, 0.7170363), (3.6062758e-8, 4.6929078e-8, 1), (0.63893634, -0.266842, 0.7214955), (0.61125135, -0.3351925, 0.7169503), (3.1425607e-8, 6.266656e-8, 1), (3.1425607e-8, 6.266656e-8, 1), (0.61125135, -0.3351925, 0.7169503), (0.5798368, -0.3868439, 0.7170363), (8.108011e-11, 4.1109523e-8, 1), (8.108011e-11, 4.1109523e-8, 1), (0.5798368, -0.3868439, 0.7170363), (0.54392296, -0.43586406, 0.71705675), (3.5991025e-8, 8.543692e-8, 1), (4.6344873e-8, -5.6603784e-9, 1), (0.68972266, -0.048683167, 0.7224351), (0.6936296, -0.0769394, 0.7162111), (3.1494615e-8, 4.611575e-8, 1), (3.1494615e-8, 4.611575e-8, 1), (0.6936296, -0.0769394, 0.7162111), (0.684488, -0.13349067, 0.7166983), (4.463869e-8, 1.0440032e-7, 1), (4.463869e-8, 1.0440032e-7, 1), (0.684488, -0.13349067, 0.7166983), (0.6679054, -0.194799, 0.7183005), (4.958937e-8, 5.1517333e-8, 1), (0.9975182, -0.07040844, 0), (0.9939042, -0.11024675, -0.0000058812275), (0.6936296, -0.0769394, 0.7162111), (0.68972266, -0.048683167, 0.7224351), (0.9939042, -0.11024675, -0.0000058812275), (0.9815089, -0.19141638, -0.000012048323), (0.684488, -0.13349067, 0.7166983), (0.6936296, -0.0769394, 0.7162111), (0.9815089, -0.19141638, -0.000012048323), (0.96000254, -0.2799913, -0.000006168519), (0.6679054, -0.194799, 0.7183005), (0.684488, -0.13349067, 0.7166983), (3.733751e-8, 6.2130894e-8, 1), (4.958937e-8, 5.1517333e-8, 1), (3.6062758e-8, 4.6929078e-8, 1), (5.6352846e-8, 5.7398754e-8, 1), (1.3943121e-8, 9.13845e-8, 1), (3.5991025e-8, 8.543692e-8, 1), (2.45554e-8, 5.5275326e-8, 1), (3.19832e-8, 5.162931e-8, 1), (-0.8775613, 0.47946447, 0), (-0.922928, 0.38497257, 0), (-0.922928, 0.38497257, 0), (-0.8775613, 0.47946447, 0), (-0.9941187, 0.10829605, 0), (-0.997742, 0.06716288, 0), (-0.997742, 0.06716288, 0), (-0.9941187, 0.10829604, 0), (-0.922928, 0.38497257, 0), (-0.9595743, 0.28145537, 0), (-0.9595744, 0.28145537, 0), (-0.922928, 0.38497257, 0), (-0.9595743, 0.28145537, 0), (-0.9814325, 0.19180807, 0), (-0.9814325, 0.19180807, 0), (-0.9595744, 0.28145537, 0), (-0.9814325, 0.19180807, 0), (-0.9941187, 0.10829605, 0), (-0.9941187, 0.10829604, 0), (-0.9814325, 0.19180807, 0), (7.9947595e-9, 5.0100134e-8, 1), (4.6344873e-8, -5.6603784e-9, 1), (3.1494615e-8, 4.611575e-8, 1), (-5.1721866e-10, 6.888075e-8, 1), (-5.1721866e-10, 6.888075e-8, 1), (3.1494615e-8, 4.611575e-8, 1), (4.463869e-8, 1.0440032e-7, 1), (1.6055743e-8, 8.674784e-8, 1), (1.6055743e-8, 8.674784e-8, 1), (4.463869e-8, 1.0440032e-7, 1), (4.958937e-8, 5.1517333e-8, 1), (3.733751e-8, 6.2130894e-8, 1), (-0.70710397, 0.70710963, 0), (-0.7792305, 0.6267375, 0), (-0.7792305, 0.62673736, 0), (-0.70710385, 0.70710963, 0), (-0.7792305, 0.6267375, 0), (-0.8317547, 0.5551433, 0), (-0.83175474, 0.5551433, 0), (-0.7792305, 0.62673736, 0), (-0.8317547, 0.5551433, 0), (-0.8775613, 0.47946447, 0), (-0.8775613, 0.47946447, 0), (-0.83175474, 0.5551433, 0), (5.6352846e-8, 5.7398754e-8, 1), (3.6062758e-8, 4.6929078e-8, 1), (3.1425607e-8, 6.266656e-8, 1), (4.5925134e-8, 4.6314785e-8, 1), (4.5925134e-8, 4.6314785e-8, 1), (3.1425607e-8, 6.266656e-8, 1), (8.108011e-11, 4.1109523e-8, 1), (-6.1147096e-9, 6.045757e-8, 1), (-6.1147096e-9, 6.045757e-8, 1), (8.108011e-11, 4.1109523e-8, 1), (3.5991025e-8, 8.543692e-8, 1), (1.3943121e-8, 9.13845e-8, 1)] (
                interpolation = "faceVarying"
            )
            point3f[] points = [(-1.3007635, 3.1403964, -2.2964275e-7), (-2.4039161, 2.4039283, -2.4482148e-7), (0.0000012568723, 3.3999999, -2.8649518e-7), (-1.4538676, 3.509935, 0.019999737), (0.0000013052523, 3.7999997, 0.019999705), (-2.4039161, 2.4039283, 0.01999976), (-1.3007635, 3.140396, 0.019999757), (0.0000012568723, 3.3999999, 0.019999694), (-0.9859456, 3.2492273, -2.4530982e-7), (-0.66250944, 3.3265734, -2.3624813e-7), (-0.33345583, 3.376462, -2.4001463e-7), (-0.3721979, 3.7745814, 0.019999716), (-0.9859456, 3.2492273, 0.019999763), (-0.66250944, 3.3265734, 0.019999767), (-0.3334559, 3.376462, 0.019999754), (-1.8840306, 2.8205724, -2.2039788e-7), (-1.5994614, 2.9930055, -2.3341622e-7), (-2.1527476, 2.623865, -1.8319513e-7), (-2.4066434, 2.9329555, 0.019999776), (-2.1064756, 3.1530151, 0.019999763), (-2.1527476, 2.623865, 0.019999828), (-1.8840306, 2.8205724, 0.01999979), (-1.5994614, 2.9930055, 0.019999776), (-1.5304197, 3.6947048, -2.7894245e-7), (-2.8281786, 2.8281932, -2.1352277e-7), (0.0000013033654, 4, -3.0199158e-7), (-1.5304197, 3.6947048, 0.019999722), (-2.8281786, 2.8281932, 0.019999787), (-2.6867578, 2.6867719, 0.01999978), (0.000001305228, 4, 0.0199997), (-2.2176976, 3.3192363, -2.5059535e-7), (-1.8825864, 3.5220048, -2.6590396e-7), (-2.533591, 3.0875008, -2.3309983e-7), (-2.533591, 3.0875008, 0.019999767), (-2.2176976, 3.3192363, 0.01999975), (-1.8825864, 3.5220048, 0.019999735), (-1.7882113, 3.3456717, 0.01999974), (-1.1597077, 3.823516, -2.8866742e-7), (-0.77879614, 3.9151971, -2.9558916e-7), (-0.39156812, 3.9736419, -3.000016e-7), (-1.1017869, 3.632086, 0.019999718), (-0.74003386, 3.718989, 0.019999718), (-1.1597077, 3.823516, 0.019999713), (-0.77879614, 3.9151971, 0.019999705), (-0.39156812, 3.9736419, 0.0199997), (-3.14039, 1.3007823, -1.0006897e-7), (-3.3999972, 0.000019133946, -8.940664e-8), (-3.7999969, 0.000021204083, 0.019999988), (-3.5099282, 1.4538887, 0.019999892), (-3.3999972, 0.000019135518, 0.019999921), (-3.14039, 1.3007823, 0.019999899), (-2.9929974, 1.5994788, -1.6546078e-7), (-2.6238544, 2.1527615, -1.5135309e-7), (-2.8205626, 1.8840455, -1.5341735e-7), (-3.345662, 1.788231, 0.019999841), (-3.1530046, 2.106492, 0.01999985), (-2.9329436, 2.406659, 0.019999824), (-2.9929974, 1.5994788, 0.019999865), (-2.820563, 1.8840455, 0.019999828), (-2.6238544, 2.1527615, 0.019999852), (-3.3764606, 0.33347595, -2.9134855e-8), (-3.3265696, 0.6625272, -6.3057925e-8), (-3.2492218, 0.9859625, -1.4521862e-7), (-3.7189844, 0.7400538, 0.019999944), (-3.6320794, 1.1018059, 0.0199999), (-3.3764606, 0.33347595, 0.019999975), (-3.326569, 0.6625272, 0.019999927), (-3.2492218, 0.98596245, 0.01999986), (-3.6946974, 1.5304419, -1.1554514e-7), (-3.999997, 0.000022236793, -1.8493564e-12), (-3.6946974, 1.5304419, 0.019999886), (-3.999997, 0.000022238362, 0.02), (-3.9736388, 0.3915896, -2.9564177e-8), (-3.9151921, 0.77881706, -5.8799024e-8), (-3.8235085, 1.1597277, -8.7557076e-8), (-3.9736388, 0.3915896, 0.019999972), (-3.9151921, 0.77881706, 0.01999994), (-3.8235085, 1.1597277, 0.019999912), (-3.7745793, 0.37221834, 0.019999977), (-3.5219948, 1.8826072, -1.4213292e-7), (-3.0874884, 2.5336077, -1.9128206e-7), (-3.3192258, 2.217716, -1.6743289e-7), (-3.5219948, 1.8826072, 0.01999986), (-3.3192258, 2.217716, 0.019999834), (-3.0874884, 2.5336077, 0.019999808)]
            texCoord2f[] primvars:st = [(0.5070363, 0.3574123), (0.24201462, 0.35741228), (0.77206707, 0.35741228), (0.77207893, 0.3574123), (0.5070363, 0.43405145), (0.5044561, 0.2684779), (0.77207893, 0.43405145), (0.79325986, 0.26847786), (0.24201462, 0.36106175), (0.77206707, 0.36106175), (0.5070363, 0.36106175), (0.77207893, 0.3610618), (0.5733257, 0.3574123), (0.6395048, 0.35741228), (0.7056887, 0.3574123), (0.7056887, 0.43405145), (0.72105885, 0.26847786), (0.5733257, 0.36106175), (0.6395048, 0.36106175), (0.7056887, 0.36106175), (0.37458575, 0.35741228), (0.44076952, 0.3574123), (0.30836833, 0.35741228), (0.30836833, 0.43405145), (0.28785345, 0.2684779), (0.37458575, 0.43405145), (0.36005428, 0.2684779), (0.30836833, 0.36106175), (0.37458575, 0.36106175), (0.44076952, 0.36106175), (0.53450906, 0.026097596), (0.32746783, 0.026097555), (0.7415503, 0.02609758), (0.7415503, 0.02609758), (0.53450906, 0.026097596), (0.5044561, 0.3088009), (0.32746783, 0.026097555), (0.21565247, 0.30880088), (0.79325986, 0.3088009), (0.7415503, 0.02609758), (0.24201462, 0.43405145), (0.21565247, 0.2684779), (0.77206707, 0.43405145), (0.79325986, 0.26847786), (0.79325986, 0.3088009), (0.7415503, 0.02609758), (0.43098843, 0.026097575), (0.48274875, 0.026097585), (0.37922814, 0.026097566), (0.37922814, 0.026097568), (0.28785345, 0.30880088), (0.43098846, 0.026097577), (0.36005437, 0.30880088), (0.48274878, 0.026097585), (0.4322553, 0.3088009), (0.44076952, 0.43405145), (0.43225515, 0.2684779), (0.5862694, 0.026097592), (0.6380297, 0.026097586), (0.68979, 0.026097585), (0.5733257, 0.43405145), (0.576657, 0.26847786), (0.6395048, 0.43405145), (0.64885795, 0.26847786), (0.58626944, 0.026097594), (0.5766571, 0.3088009), (0.63802975, 0.026097588), (0.64885795, 0.3088009), (0.68979007, 0.026097586), (0.72105885, 0.3088009), (0.50704587, 0.35741228), (0.24200279, 0.35741228), (0.24200287, 0.43405136), (0.21565247, 0.2684779), (0.50704587, 0.43405136), (0.5044561, 0.2684779), (0.24200287, 0.3610617), (0.50704587, 0.36106172), (0.5733125, 0.35741228), (0.7057134, 0.35741228), (0.639496, 0.35741228), (0.5733125, 0.43405145), (0.576657, 0.26847786), (0.639496, 0.43405145), (0.64885795, 0.26847786), (0.7057134, 0.43405145), (0.72105885, 0.26847786), (0.5733125, 0.36106172), (0.639496, 0.36106172), (0.7057134, 0.36106172), (0.30839312, 0.35741228), (0.37457693, 0.35741228), (0.44075596, 0.35741228), (0.37457693, 0.43405136), (0.36005428, 0.2684779), (0.44075596, 0.43405136), (0.43225515, 0.2684779), (0.30839312, 0.36106172), (0.37457693, 0.36106172), (0.44075596, 0.36106172), (0.53450906, 0.026097596), (0.32746783, 0.026097555), (0.53450906, 0.026097596), (0.5044561, 0.3088009), (0.32746783, 0.026097555), (0.21565247, 0.30880088), (0.37922814, 0.026097566), (0.43098843, 0.026097575), (0.48274875, 0.026097585), (0.37922814, 0.026097568), (0.28785345, 0.30880088), (0.43098846, 0.026097577), (0.36005437, 0.30880088), (0.48274878, 0.026097585), (0.4322553, 0.3088009), (0.30839315, 0.43405136), (0.28785345, 0.2684779), (0.5862694, 0.026097592), (0.68979, 0.026097585), (0.6380297, 0.026097586), (0.58626944, 0.026097594), (0.5766571, 0.3088009), (0.63802975, 0.026097588), (0.64885795, 0.3088009), (0.68979007, 0.026097586), (0.72105885, 0.3088009)] (
                interpolation = "faceVarying"
            )
            int[] primvars:st:indices = [21, 0, 10, 29, 15, 19, 11, 6, 55, 29, 10, 4, 14, 3, 11, 19, 0, 12, 17, 10, 12, 13, 18, 17, 13, 14, 19, 18, 4, 10, 17, 60, 60, 17, 18, 62, 62, 18, 19, 15, 40, 8, 27, 23, 23, 27, 28, 25, 25, 28, 29, 55, 1, 22, 27, 8, 22, 20, 28, 27, 20, 21, 29, 28, 54, 56, 5, 35, 69, 16, 7, 44, 57, 30, 34, 64, 48, 31, 36, 49, 30, 47, 53, 34, 47, 46, 51, 53, 46, 48, 49, 51, 37, 41, 24, 50, 50, 24, 26, 52, 52, 26, 56, 54, 33, 59, 68, 45, 59, 58, 66, 68, 58, 57, 64, 66, 35, 5, 61, 65, 65, 61, 63, 67, 67, 63, 16, 69, 92, 70, 77, 99, 85, 89, 9, 42, 95, 99, 77, 74, 79, 2, 9, 89, 70, 78, 87, 77, 78, 80, 88, 87, 80, 79, 89, 88, 74, 77, 87, 81, 81, 87, 88, 83, 83, 88, 89, 85, 72, 76, 97, 115, 115, 97, 98, 93, 93, 98, 99, 95, 71, 90, 97, 76, 90, 91, 98, 97, 91, 92, 99, 98, 114, 96, 75, 103, 125, 86, 43, 38, 117, 100, 102, 120, 106, 101, 104, 109, 100, 108, 113, 102, 108, 107, 111, 113, 107, 106, 109, 111, 105, 73, 116, 110, 110, 116, 94, 112, 112, 94, 96, 114, 32, 118, 124, 39, 118, 119, 122, 124, 119, 117, 120, 122, 103, 75, 82, 121, 121, 82, 84, 123, 123, 84, 86, 125]
            uniform token subdivisionScheme = "none"
            uniform token subsetFamily:materialBind:familyType = "nonOverlapping"
            custom string userProperties:blender:data_name = "Plane.163"

            def GeomSubset "MI_Trim_01" (
                prepend apiSchemas = ["MaterialBindingAPI"]
            )
            {
                uniform token elementType = "face"
                uniform token familyName = "materialBind"
                int[] indices = [18, 19, 20, 21, 22, 26, 27, 28, 50, 51, 52, 53, 54, 58, 59, 60]
                rel material:binding = </root/_materials/MI_Trim_01>
            }

            def GeomSubset "MI_Trim_03_Dark" (
                prepend apiSchemas = ["MaterialBindingAPI"]
            )
            {
                uniform token elementType = "face"
                uniform token familyName = "materialBind"
                int[] indices = [0, 1, 2, 3, 4, 5, 6, 7, 8, 9, 10, 11, 12, 13, 14, 15, 16, 17, 23, 24, 25, 29, 30, 31, 32, 33, 34, 35, 36, 37, 38, 39, 40, 41, 42, 43, 44, 45, 46, 47, 48, 49, 55, 56, 57, 61, 62, 63]
                rel material:binding = </root/_materials/MI_Trim_03_Dark>
            }
        }
    }

    def Scope "_materials"
    {
        def Material "MI_Trim_01"
        {
            token outputs:surface.connect = </root/_materials/MI_Trim_01/Principled_BSDF.outputs:surface>
            custom string userProperties:blender:data_name = "MI_Trim_01"

            def Shader "Principled_BSDF"
            {
                uniform token info:id = "UsdPreviewSurface"
                float inputs:clearcoat = 0
                float inputs:clearcoatRoughness = 0.03
                color3f inputs:diffuseColor.connect = </root/_materials/MI_Trim_01/Image_Texture.outputs:rgb>
                float inputs:ior = 1.5
                float inputs:metallic = 0
                normal3f inputs:normal.connect = </root/_materials/MI_Trim_01/Image_Texture_001.outputs:rgb>
                float inputs:opacity = 1
                float inputs:roughness = 0.5
                float inputs:specular = 0.5
                token outputs:surface
            }

            def Shader "Image_Texture"
            {
                uniform token info:id = "UsdUVTexture"
                token inputs:sourceColorSpace = "sRGB"
                float2 inputs:st.connect = </root/_materials/MI_Trim_01/uvmap.outputs:result>
                token inputs:wrapS = "repeat"
                token inputs:wrapT = "repeat"
                float3 outputs:rgb
            }

            def Shader "uvmap"
            {
                uniform token info:id = "UsdPrimvarReader_float2"
                string inputs:varname = "st"
                float2 outputs:result
            }

            def Shader "Image_Texture_001"
            {
                uniform token info:id = "UsdUVTexture"
                float4 inputs:bias = (-1, -1, -1, -1)
                float4 inputs:scale = (2, 2, 2, 2)
                token inputs:sourceColorSpace = "raw"
                float2 inputs:st.connect = </root/_materials/MI_Trim_01/uvmap.outputs:result>
                token inputs:wrapS = "repeat"
                token inputs:wrapT = "repeat"
                float3 outputs:rgb
            }
        }

        def Material "MI_Trim_03_Dark"
        {
            token outputs:surface.connect = </root/_materials/MI_Trim_03_Dark/Principled_BSDF.outputs:surface>
            custom string userProperties:blender:data_name = "MI_Trim_03_Dark"

            def Shader "Principled_BSDF"
            {
                uniform token info:id = "UsdPreviewSurface"
                float inputs:clearcoat = 0
                float inputs:clearcoatRoughness = 0.03
                color3f inputs:diffuseColor.connect = </root/_materials/MI_Trim_03_Dark/Image_Texture.outputs:rgb>
                float inputs:ior = 1.5
                float inputs:metallic = 0
                float inputs:opacity = 1
                float inputs:roughness = 0.5
                float inputs:specular = 0.5
                token outputs:surface
            }

            def Shader "Image_Texture"
            {
                uniform token info:id = "UsdUVTexture"
                token inputs:sourceColorSpace = "sRGB"
                float2 inputs:st.connect = </root/_materials/MI_Trim_03_Dark/uvmap.outputs:result>
                token inputs:wrapS = "repeat"
                token inputs:wrapT = "repeat"
                float3 outputs:rgb
            }

            def Shader "uvmap"
            {
                uniform token info:id = "UsdPrimvarReader_float2"
                string inputs:varname = "st"
                float2 outputs:result
            }
        }
    }
}

