#usda 1.0
(
    defaultPrim = "root"
    doc = "Blender v5.1.2"
    metersPerUnit = 1
    upAxis = "Y"
)

def Xform "root" (
    customData = {
        dictionary Blender = {
            bool generated = 1
        }
    }
)
{
    float3 xformOp:rotateXYZ = (-90, -0, 0)
    uniform token[] xformOpOrder = ["xformOp:rotateXYZ"]

    def Xform "BottomMetal_Corner_Square_Outer_2"
    {
        custom string userProperties:blender:object_name = "BottomMetal_Corner_Square_Outer_2"

        def Mesh "Plane_125" (
            active = true
            prepend apiSchemas = ["MaterialBindingAPI"]
        )
        {
            uniform bool doubleSided = 1
            float3[] extent = [(-4.6, 3.9999995, 2.5145712e-7), (-4, 4.5999994, 0.020000326)]
            int[] faceVertexCounts = [4, 4, 3, 4, 4, 3]
            int[] faceVertexIndices = [0, 6, 7, 2, 1, 2, 7, 8, 5, 3, 4, 0, 2, 11, 10, 1, 12, 11, 2, 9, 4, 3]
            rel material:binding = </root/_materials/MI_Trim_01>
            normal3f[] normals = [(-0.70710707, 0.70710653, 0), (-1, 0, 0), (-1, 0, 0), (-0.70710707, 0.70710653, 0), (6.9854295e-10, -2.9108067e-9, 1), (6.9879325e-10, -2.9105551e-9, 1), (-1.2223639e-7, -1.2805725e-7, 1), (-1.2223639e-7, -1.2805725e-7, 1), (-1.3969894e-7, -1.3969787e-7, 1), (4.2518075e-13, 9.589183e-13, 1), (1.9449786e-13, 7.282362e-13, 1), (-0.70710707, 0.70710653, 0), (-0.70710707, 0.70710653, 0), (-7.94729e-7, 1, 0), (-7.94729e-7, 1, 0), (6.9854295e-10, -2.9108067e-9, 1), (1.2363367e-7, 1.2223583e-7, 0.99999994), (1.2363367e-7, 1.2223583e-7, 0.99999994), (6.9879325e-10, -2.9105551e-9, 1), (1.3969935e-7, 1.3969935e-7, 1), (1.9449786e-13, 7.282362e-13, 1), (4.2518075e-13, 9.589183e-13, 1)] (
                interpolation = "faceVarying"
            )
            point3f[] points = [(-4.6, 4.599999, 3.2596296e-7), (-4.2000003, 4.199999, 0.020000326), (-4.6, 4.599999, 0.020000326), (-4.0000005, 3.9999995, 0.020000326), (-4.2000003, 4.199999, 0.020000326), (-4.2, 3.9999995, 0.020000298), (-4.6, 3.9999995, 2.5145715e-7), (-4.6, 3.9999995, 0.020000251), (-4.2, 3.9999995, 0.020000298), (-4.0000005, 4.199999, 0.020000298), (-4, 4.5999994, 2.5145712e-7), (-4, 4.5999994, 0.020000251), (-4.0000005, 4.199999, 0.020000298)]
            texCoord2f[] primvars:st = [(0.24699794, 0.9381383), (0.22456342, 0.99985), (0.24699794, 0.9381383), (0.19994116, 0.9381383), (0.32461828, 0.026097555), (0.32461828, 0.000558286), (0.3336378, 0.0005582849), (0.30538306, 0.93813837), (0.30538303, 0.9381383), (0.24691479, 0.9381383), (0.24691479, 0.99985), (0.3336378, 0.0005582849), (0.30538306, 0.93813837), (0.30538303, 0.9381383), (0.18090661, 0.9381383), (0.18090661, 0.99985)] (
                interpolation = "faceVarying"
            )
            int[] primvars:st:indices = [0, 7, 8, 2, 1, 3, 9, 10, 6, 4, 5, 0, 2, 13, 12, 1, 15, 14, 3, 11, 5, 4]
            uniform token subdivisionScheme = "none"
            uniform token subsetFamily:materialBind:familyType = "nonOverlapping"
            custom string userProperties:blender:data_name = "Plane.125"

            def GeomSubset "MI_Trim_01" (
                prepend apiSchemas = ["MaterialBindingAPI"]
            )
            {
                uniform token elementType = "face"
                uniform token familyName = "materialBind"
                int[] indices = [2, 5]
                rel material:binding = </root/_materials/MI_Trim_01>
            }

            def GeomSubset "MI_Trim_02" (
                prepend apiSchemas = ["MaterialBindingAPI"]
            )
            {
                uniform token elementType = "face"
                uniform token familyName = "materialBind"
                int[] indices = [0, 1, 3, 4]
                rel material:binding = </root/_materials/MI_Trim_02>
            }
        }
    }

    def Scope "_materials"
    {
        def Material "MI_Trim_01"
        {
            token outputs:surface.connect = </root/_materials/MI_Trim_01/Principled_BSDF.outputs:surface>
            custom string userProperties:blender:data_name = "MI_Trim_01"

            def Shader "Principled_BSDF"
            {
                uniform token info:id = "UsdPreviewSurface"
                float inputs:clearcoat = 0
                float inputs:clearcoatRoughness = 0.03
                color3f inputs:diffuseColor.connect = </root/_materials/MI_Trim_01/Image_Texture.outputs:rgb>
                float inputs:ior = 1.5
                float inputs:metallic = 0
                normal3f inputs:normal.connect = </root/_materials/MI_Trim_01/Image_Texture_001.outputs:rgb>
                float inputs:opacity = 1
                float inputs:roughness = 0.5
                float inputs:specular = 0.5
                token outputs:surface
            }

            def Shader "Image_Texture"
            {
                uniform token info:id = "UsdUVTexture"
                asset inputs:file = @./textures/T_Trim01Red_D.png@
                token inputs:sourceColorSpace = "sRGB"
                float2 inputs:st.connect = </root/_materials/MI_Trim_01/uvmap.outputs:result>
                token inputs:wrapS = "repeat"
                token inputs:wrapT = "repeat"
                float3 outputs:rgb
            }

            def Shader "uvmap"
            {
                uniform token info:id = "UsdPrimvarReader_float2"
                string inputs:varname = "st"
                float2 outputs:result
            }

            def Shader "Image_Texture_001"
            {
                uniform token info:id = "UsdUVTexture"
                float4 inputs:bias = (-1, -1, -1, -1)
                asset inputs:file = @./textures/T_Trim01_N.png@
                float4 inputs:scale = (2, 2, 2, 2)
                token inputs:sourceColorSpace = "raw"
                float2 inputs:st.connect = </root/_materials/MI_Trim_01/uvmap.outputs:result>
                token inputs:wrapS = "repeat"
                token inputs:wrapT = "repeat"
                float3 outputs:rgb
            }
        }

        def Material "MI_Trim_02"
        {
            token outputs:surface.connect = </root/_materials/MI_Trim_02/Principled_BSDF.outputs:surface>
            custom string userProperties:blender:data_name = "MI_Trim_02"

            def Shader "Principled_BSDF"
            {
                uniform token info:id = "UsdPreviewSurface"
                float inputs:clearcoat = 0
                float inputs:clearcoatRoughness = 0.03
                color3f inputs:diffuseColor.connect = </root/_materials/MI_Trim_02/Image_Texture.outputs:rgb>
                float inputs:ior = 1.5
                float inputs:metallic = 0
                float inputs:opacity = 1
                float inputs:roughness = 0.5
                float inputs:specular = 0.5
                token outputs:surface
            }

            def Shader "Image_Texture"
            {
                uniform token info:id = "UsdUVTexture"
                asset inputs:file = @./textures/T_Trim02Red_D.png@
                token inputs:sourceColorSpace = "sRGB"
                float2 inputs:st.connect = </root/_materials/MI_Trim_02/uvmap.outputs:result>
                token inputs:wrapS = "repeat"
                token inputs:wrapT = "repeat"
                float3 outputs:rgb
            }

            def Shader "uvmap"
            {
                uniform token info:id = "UsdPrimvarReader_float2"
                string inputs:varname = "st"
                float2 outputs:result
            }
        }
    }
}

