#usda 1.0
(
    defaultPrim = "root"
    doc = "Blender v5.1.2"
    metersPerUnit = 1
    upAxis = "Y"
)

def Xform "root" (
    customData = {
        dictionary Blender = {
            bool generated = 1
        }
    }
)
{
    float3 xformOp:rotateXYZ = (-90, -0, 0)
    uniform token[] xformOpOrder = ["xformOp:rotateXYZ"]

    def Xform "Door_Frame_SquareTall"
    {
        custom string userProperties:blender:object_name = "Door_Frame_SquareTall"

        def Mesh "Cube_002" (
            active = true
            prepend apiSchemas = ["MaterialBindingAPI"]
        )
        {
            uniform bool doubleSided = 1
            float3[] extent = [(-2.4218736, -0.25342464, -0.013425212), (2.4218736, 0.25342464, 5)]
            int[] faceVertexCounts = [4, 4, 4, 4, 4, 4, 4, 4, 4, 4, 4, 4, 4, 4, 4, 4, 4, 4, 4, 4, 4, 4, 4, 4, 4, 4, 4, 4, 4, 4, 4, 4, 4, 4, 4, 4, 4, 4, 4, 4, 4, 4, 4, 4, 4, 4, 4, 4, 4, 4, 4, 4, 4, 4, 4, 4, 4, 4, 4, 4, 4, 4, 4, 4, 4, 4, 4, 4, 4, 4, 4, 4, 4, 4, 4, 4, 4, 4, 4, 4, 4, 4, 4, 4, 4, 4, 4, 4, 4, 4, 4, 4, 4, 4, 4, 4, 4, 4, 4, 4, 4, 4, 4, 4, 4, 4, 4, 4, 4, 4, 4, 4, 4, 4, 4, 4, 4, 4, 4, 4, 4, 4, 4, 4, 4, 4, 4, 4, 4, 4, 4, 4, 4, 4, 4, 4]
            int[] faceVertexIndices = [28, 13, 1, 24, 29, 20, 6, 25, 20, 21, 5, 6, 16, 7, 1, 13, 11, 7, 0, 9, 21, 11, 9, 19, 1, 7, 11, 10, 24, 1, 10, 26, 6, 5, 15, 23, 5, 3, 22, 15, 0, 7, 16, 12, 25, 6, 23, 27, 5, 21, 19, 3, 10, 11, 21, 20, 26, 10, 20, 29, 8, 26, 29, 18, 4, 25, 27, 17, 2, 24, 26, 8, 18, 29, 25, 4, 14, 28, 24, 2, 31, 33, 32, 30, 34, 35, 36, 37, 30, 35, 34, 31, 33, 37, 36, 32, 32, 36, 35, 30, 31, 34, 37, 33, 38, 40, 41, 39, 43, 42, 44, 45, 40, 38, 43, 45, 38, 39, 42, 43, 41, 40, 45, 44, 46, 48, 49, 47, 51, 50, 52, 53, 46, 51, 53, 48, 76, 72, 55, 64, 77, 73, 58, 68, 68, 58, 57, 69, 66, 64, 55, 59, 62, 60, 54, 59, 69, 67, 60, 62, 55, 61, 62, 59, 72, 74, 61, 55, 58, 71, 65, 57, 57, 65, 70, 56, 54, 63, 66, 59, 73, 75, 71, 58, 57, 56, 67, 69, 61, 68, 69, 62, 74, 77, 68, 61, 8, 18, 77, 74, 4, 17, 75, 73, 2, 8, 74, 72, 18, 4, 73, 77, 14, 2, 72, 76, 79, 78, 80, 81, 82, 85, 84, 83, 78, 79, 82, 83, 81, 80, 84, 85, 80, 78, 83, 84, 79, 81, 85, 82, 86, 87, 89, 88, 91, 93, 92, 90, 88, 93, 91, 86, 86, 91, 90, 87, 89, 92, 93, 88, 46, 47, 95, 94, 51, 97, 96, 50, 46, 94, 97, 51, 28, 114, 99, 13, 117, 115, 104, 112, 112, 104, 103, 113, 16, 13, 99, 105, 109, 107, 98, 105, 113, 111, 107, 109, 99, 108, 109, 105, 114, 116, 108, 99, 104, 23, 15, 103, 103, 15, 22, 101, 98, 12, 16, 105, 115, 27, 23, 104, 103, 101, 111, 113, 108, 112, 113, 109, 116, 117, 112, 108, 106, 110, 117, 116, 102, 17, 27, 115, 100, 106, 116, 114, 110, 102, 115, 117, 14, 100, 114, 28, 119, 118, 120, 121, 122, 125, 124, 123, 118, 119, 122, 123, 121, 120, 124, 125, 120, 118, 123, 124, 119, 121, 125, 122, 126, 39, 41, 127, 128, 129, 44, 42, 127, 129, 128, 126, 126, 128, 42, 39, 41, 44, 129, 127, 130, 47, 49, 131, 132, 133, 52, 50, 130, 131, 133, 132, 76, 64, 135, 146, 149, 144, 138, 147, 144, 145, 137, 138, 66, 139, 135, 64, 142, 139, 134, 140, 145, 142, 140, 143, 135, 139, 142, 141, 146, 135, 141, 148, 138, 137, 65, 71, 137, 136, 70, 65, 134, 139, 66, 63, 147, 138, 71, 75, 137, 145, 143, 136, 141, 142, 145, 144, 148, 141, 144, 149, 106, 148, 149, 110, 102, 147, 75, 17, 100, 146, 148, 106, 110, 149, 147, 102, 14, 76, 146, 100, 151, 153, 152, 150, 154, 155, 156, 157, 150, 155, 154, 151, 153, 157, 156, 152, 152, 156, 155, 150, 151, 154, 157, 153, 158, 159, 89, 87, 160, 90, 92, 161, 159, 158, 160, 161, 158, 87, 90, 160, 89, 159, 161, 92, 130, 162, 95, 47, 132, 50, 96, 163, 130, 132, 163, 162]
            rel material:binding = </root/_materials/MI_Trim_01>
            normal3f[] normals = [(0, 0, 1), (0, 0, 1), (0, 0, 1), (0, 0, 1), (0, -1, -2.6891371e-8), (0, -1, -2.102076e-8), (0, -1, -3.0477565e-8), (0, -1, -2.6891371e-8), (0, -1, -2.102076e-8), (0, -1, 0), (0, -1, 0), (0, -1, -3.0477565e-8), (-1, 4.4939128e-8, 0), (-1, 0, 0), (-1, 0, 0), (-1, 0, 0), (0, -1, -6.2797154e-9), (0, -1, -7.527436e-9), (0, -1, 0), (0, -1, 0), (0.8798297, -0.47528908, 0), (0.8798297, -0.47528908, 0), (0.8798297, -0.47528908, 0), (0.8798297, -0.47528908, 0), (0, -1, 3.144419e-8), (0, -1, -7.527436e-9), (0, -1, -6.2797154e-9), (0, -1, 1.3151634e-7), (0, -1, 1.620205e-7), (0, -1, 3.144419e-8), (0, -1, 1.3151634e-7), (0, -1, 2.8257668e-8), (0.70710665, 0, -0.7071068), (0.70710665, 0, -0.7071068), (0.70710665, 0, -0.7071069), (0.70710665, 0, -0.7071069), (1, 0, 0), (1, 0, 0), (1, 0, 0), (1, 0, 0), (-1, 0, 0), (-1, 0, 0), (-1, 4.4939128e-8, 0), (-1, 8.987815e-8, 0), (0, 0, -1), (0, 0, -1), (0, 0, -1), (0, 0, -1), (0, -1, 0), (0, -1, 0), (0, -1, 0), (0, -1, 0), (0.66267294, -0.38609585, -0.6417121), (0.66267294, -0.38609585, -0.6417121), (0.66267294, -0.38609585, -0.6417121), (0.66267294, -0.38609585, -0.6417121), (0, -0.4213033, -0.90691984), (0, -0.42130327, -0.90691984), (0, -0.42130327, -0.90691984), (0, -0.4213033, -0.9069198), (0, -0.4213033, -0.90691984), (0, -0.4213033, -0.90691984), (0, -0.4213033, -0.9069198), (0, -0.4213033, -0.90691984), (0, 0, -1), (0, 0, -1), (0, 0, -1), (0, 0, -1), (0, -1, 0), (0, -1, 1.620205e-7), (0, -1, 2.8257668e-8), (0, -1, 0), (0, -1, 0), (0, -1, -2.6891371e-8), (0, -1, -2.6891371e-8), (0, -1, 0), (0, 0, 1), (0, 0, 1), (0, 0, 1), (0, 0, 1), (0, -0.9635312, -0.26759568), (0, -0.9635312, -0.26759568), (0, -0.9635312, -0.26759568), (0, -0.9635312, -0.26759568), (0, 1, 2.368782e-7), (0, 1, 2.368782e-7), (0, 1, 2.368782e-7), (0, 1, 2.368782e-7), (-1, 0, 0), (-1, 0, 0), (-1, 0, 0), (-1, 0, 0), (1, 0, 0), (1, 0, 0), (1, 0, 0), (1, 0, 0), (0, 0, 1), (0, 0, 1), (0, 0, 1), (0, 0, 1), (0, 0, -1), (0, 0, -1), (0, 0, -1), (0, 0, -1), (0, 0, -1), (0, 0, -1), (0, 0, -1), (0, 0, -1), (0.7420572, 0, 0.6703366), (0.74205714, 0, 0.67033654), (0.74205714, 0, 0.67033654), (0.7420572, 0, 0.6703366), (0, -1, 0), (0, -1, 0), (0, -1, 0), (0, -1, 0), (1, 0, 0), (1, 0, 0), (1, 0, 0), (1, 0, 0), (-1, 0, 0), (-1, 0, 0), (-1, 0, 0), (-1, 0, 0), (0, 0, -1), (0, 0, -1), (0, 0, -1), (0, 0, -1), (0, 0, 1), (0, 0, 1), (0, 0, 1), (0, 0, 0.99999994), (0, -0.9428706, 0.33315918), (0, -0.9428706, 0.33315918), (0, -0.9428707, 0.3331592), (0, -0.9428707, 0.3331592), (0, 0, 1), (0, 0, 1), (0, 0, 1), (0, 0, 1), (0, -1, -2.6891371e-8), (0, -1, -2.6891371e-8), (0, -1, -3.0477565e-8), (0, -1, -2.102076e-8), (0, -1, -2.102076e-8), (0, -1, -3.0477565e-8), (0, -1, 0), (0, -1, 0), (1, -4.4939128e-8, 0), (1, 0, 0), (1, 0, 0), (1, -8.9878036e-8, 0), (0, -1, -1.2559431e-8), (0, -1, 0), (0, -1, 0), (0, -1, -1.5054871e-8), (-0.8798297, -0.4752891, 0), (-0.8798297, -0.4752891, 0), (-0.8798297, -0.4752891, 0), (-0.8798297, -0.4752891, 0), (0, -1, 2.1776472e-8), (0, -1, 1.2793969e-7), (0, -1, -1.2559431e-8), (0, -1, -1.5054871e-8), (0, -1, 1.620205e-7), (0, -1, 2.8257668e-8), (0, -1, 1.2793969e-7), (0, -1, 2.1776472e-8), (-0.70710665, 0, -0.7071068), (-0.70710665, 0, -0.7071069), (-0.70710665, 0, -0.7071069), (-0.70710665, 0, -0.7071068), (-1, 0, 0), (-1, 0, 0), (-1, 0, 0), (-1, 0, 0), (1, -1.797563e-7, 0), (1, -8.987815e-8, 0), (1, -4.4939128e-8, 0), (1, -8.9878036e-8, 0), (0, 0, -1), (0, 0, -1), (0, 0, -1), (0, 0, -1), (0, -1, 0), (0, -1, 0), (0, -1, 0), (0, -1, 0), (-0.66267294, -0.38609585, -0.6417121), (-0.66267294, -0.38609585, -0.6417121), (-0.66267294, -0.38609585, -0.6417121), (-0.66267294, -0.38609585, -0.6417121), (0, -0.42130336, -0.9069198), (0, -0.4213033, -0.9069198), (0, -0.42130333, -0.90691984), (0, -0.42130333, -0.90691984), (0, -0.4213033, -0.90691984), (0, -0.4213033, -0.90691984), (0, -0.4213033, -0.9069198), (0, -0.42130336, -0.9069198), (0, 0, -1), (0, 0, -1), (0, 0, -1), (0, 0, -1), (0, -1, 0), (0, -1, 0), (0, -1, 2.8257668e-8), (0, -1, 1.620205e-7), (0, -1, 0), (0, -1, 0), (0, -1, -2.6891371e-8), (0, -1, -2.6891371e-8), (0, 0, 1), (0, 0, 1), (0, 0, 1), (0, 0, 1), (0, -0.9635312, -0.26759568), (0, -0.9635312, -0.26759568), (0, -0.9635312, -0.26759568), (0, -0.9635312, -0.26759568), (0, 1, 2.368782e-7), (0, 1, 2.368782e-7), (0, 1, 2.368782e-7), (0, 1, 2.368782e-7), (1, 0, 0), (1, 0, 0), (1, 0, 0), (1, 0, 0), (-1, 0, 0), (-1, 0, 0), (-1, 0, 0), (-1, 0, 0), (0, 0, 1), (0, 0, 1), (0, 0, 1), (0, 0, 1), (0, 0, -1), (0, 0, -1), (0, 0, -1), (0, 0, -1), (0, 0, -1), (0, 0, -1), (0, 0, -1), (0, 0, -1), (-0.7420572, 0, 0.6703366), (-0.7420572, 0, 0.6703366), (-0.74205714, 0, 0.67033654), (-0.74205714, 0, 0.67033654), (0, -1, 0), (0, -1, 0), (0, -1, 0), (0, -1, 0), (-1, 0, 0), (-1, 0, 0), (-1, 0, 0), (-1, 0, 0), (1, 0, 0), (1, 0, 0), (1, 0, 0), (1, 0, 0), (0, 0, -1), (0, 0, -1), (0, 0, -1), (0, 0, -1), (0, 0, 1), (0, 0, 0.99999994), (0, 0, 1), (0, 0, 1), (0, -0.9428706, 0.33315918), (0, -0.9428707, 0.3331592), (0, -0.9428707, 0.3331592), (0, -0.9428706, 0.33315918), (0, 0, 1), (0, 0, 1), (0, 0, 1), (0, 0, 1), (0, 1, -2.6891371e-8), (0, 1, -2.6891371e-8), (0, 1, -3.0477565e-8), (0, 1, -2.102076e-8), (0, 1, -2.102076e-8), (0, 1, -3.0477565e-8), (0, 1, 0), (0, 1, 0), (-1, 4.4939128e-8, 0), (-1, 0, 0), (-1, 0, 0), (-1, 8.9878036e-8, 0), (0, 1, -1.2559431e-8), (0, 1, 0), (0, 1, 0), (0, 1, -1.5054871e-8), (0.8798297, 0.4752891, 0), (0.8798297, 0.4752891, 0), (0.8798297, 0.4752891, 0), (0.8798297, 0.4752891, 0), (0, 1, 2.1776472e-8), (0, 1, 1.2793969e-7), (0, 1, -1.2559431e-8), (0, 1, -1.5054871e-8), (0, 1, 1.620205e-7), (0, 1, 2.8257668e-8), (0, 1, 1.2793969e-7), (0, 1, 2.1776472e-8), (0.70710665, 0, -0.7071068), (0.70710665, 0, -0.7071069), (0.70710665, 0, -0.7071069), (0.70710665, 0, -0.7071068), (1, 0, 0), (1, 0, 0), (1, 0, 0), (1, 0, 0), (-1, 1.797563e-7, 0), (-1, 8.987815e-8, 0), (-1, 4.4939128e-8, 0), (-1, 8.9878036e-8, 0), (0, 0, -1), (0, 0, -1), (0, 0, -1), (0, 0, -1), (0, 1, 0), (0, 1, 0), (0, 1, 0), (0, 1, 0), (0.66267294, 0.38609585, -0.6417121), (0.66267294, 0.38609585, -0.6417121), (0.66267294, 0.38609585, -0.6417121), (0.66267294, 0.38609585, -0.6417121), (0, 0.42130336, -0.9069198), (0, 0.4213033, -0.9069198), (0, 0.42130333, -0.90691984), (0, 0.42130333, -0.90691984), (0, 0.4213033, -0.90691984), (0, 0.4213033, -0.90691984), (0, 0.4213033, -0.9069198), (0, 0.42130336, -0.9069198), (0, 0, -1), (0, 0, -1), (0, 0, -1), (0, 0, -1), (0, 1, 0), (0, 1, 0), (0, 1, 2.8257668e-8), (0, 1, 1.620205e-7), (0, 1, 0), (0, 1, 0), (0, 1, -2.6891371e-8), (0, 1, -2.6891371e-8), (0, 0, 1), (0, 0, 1), (0, 0, 1), (0, 0, 1), (0, 0.9635312, -0.26759568), (0, 0.9635312, -0.26759568), (0, 0.9635312, -0.26759568), (0, 0.9635312, -0.26759568), (0, -1, 2.368782e-7), (0, -1, 2.368782e-7), (0, -1, 2.368782e-7), (0, -1, 2.368782e-7), (-1, 0, 0), (-1, 0, 0), (-1, 0, 0), (-1, 0, 0), (1, 0, 0), (1, 0, 0), (1, 0, 0), (1, 0, 0), (0, 0, 1), (0, 0, 1), (0, 0, 1), (0, 0, 1), (0, 0, -1), (0, 0, -1), (0, 0, -1), (0, 0, -1), (0, 0, -1), (0, 0, -1), (0, 0, -1), (0, 0, -1), (0.7420572, 0, 0.6703366), (0.7420572, 0, 0.6703366), (0.74205714, 0, 0.67033654), (0.74205714, 0, 0.67033654), (0, 1, 0), (0, 1, 0), (0, 1, 0), (0, 1, 0), (1, 0, 0), (1, 0, 0), (1, 0, 0), (1, 0, 0), (-1, 0, 0), (-1, 0, 0), (-1, 0, 0), (-1, 0, 0), (0, 0, -1), (0, 0, -1), (0, 0, -1), (0, 0, -1), (0, 0, 1), (0, 0, 0.99999994), (0, 0, 1), (0, 0, 1), (0, 0.9428706, 0.33315918), (0, 0.9428707, 0.3331592), (0, 0.9428707, 0.3331592), (0, 0.9428706, 0.33315918), (0, 0, 1), (0, 0, 1), (0, 0, 1), (0, 0, 1), (0, 1, -2.6891371e-8), (0, 1, -2.102076e-8), (0, 1, -3.0477565e-8), (0, 1, -2.6891371e-8), (0, 1, -2.102076e-8), (0, 1, 0), (0, 1, 0), (0, 1, -3.0477565e-8), (1, -4.4939128e-8, 0), (1, 0, 0), (1, 0, 0), (1, 0, 0), (0, 1, -6.2797154e-9), (0, 1, -7.527436e-9), (0, 1, 0), (0, 1, 0), (-0.8798297, 0.47528908, 0), (-0.8798297, 0.47528908, 0), (-0.8798297, 0.47528908, 0), (-0.8798297, 0.47528908, 0), (0, 1, 3.144419e-8), (0, 1, -7.527436e-9), (0, 1, -6.2797154e-9), (0, 1, 1.3151634e-7), (0, 1, 1.620205e-7), (0, 1, 3.144419e-8), (0, 1, 1.3151634e-7), (0, 1, 2.8257668e-8), (-0.70710665, 0, -0.7071068), (-0.70710665, 0, -0.7071068), (-0.70710665, 0, -0.7071069), (-0.70710665, 0, -0.7071069), (-1, 0, 0), (-1, 0, 0), (-1, 0, 0), (-1, 0, 0), (1, 0, 0), (1, 0, 0), (1, -4.4939128e-8, 0), (1, -8.987815e-8, 0), (0, 0, -1), (0, 0, -1), (0, 0, -1), (0, 0, -1), (0, 1, 0), (0, 1, 0), (0, 1, 0), (0, 1, 0), (-0.66267294, 0.38609585, -0.6417121), (-0.66267294, 0.38609585, -0.6417121), (-0.66267294, 0.38609585, -0.6417121), (-0.66267294, 0.38609585, -0.6417121), (0, 0.4213033, -0.90691984), (0, 0.42130327, -0.90691984), (0, 0.42130327, -0.90691984), (0, 0.4213033, -0.9069198), (0, 0.4213033, -0.90691984), (0, 0.4213033, -0.90691984), (0, 0.4213033, -0.9069198), (0, 0.4213033, -0.90691984), (0, 0, -1), (0, 0, -1), (0, 0, -1), (0, 0, -1), (0, 1, 0), (0, 1, 1.620205e-7), (0, 1, 2.8257668e-8), (0, 1, 0), (0, 1, 0), (0, 1, -2.6891371e-8), (0, 1, -2.6891371e-8), (0, 1, 0), (0, 0, 1), (0, 0, 1), (0, 0, 1), (0, 0, 1), (0, 0.9635312, -0.26759568), (0, 0.9635312, -0.26759568), (0, 0.9635312, -0.26759568), (0, 0.9635312, -0.26759568), (0, -1, 2.368782e-7), (0, -1, 2.368782e-7), (0, -1, 2.368782e-7), (0, -1, 2.368782e-7), (1, 0, 0), (1, 0, 0), (1, 0, 0), (1, 0, 0), (-1, 0, 0), (-1, 0, 0), (-1, 0, 0), (-1, 0, 0), (0, 0, 1), (0, 0, 1), (0, 0, 1), (0, 0, 1), (0, 0, -1), (0, 0, -1), (0, 0, -1), (0, 0, -1), (0, 0, -1), (0, 0, -1), (0, 0, -1), (0, 0, -1), (-0.7420572, 0, 0.6703366), (-0.74205714, 0, 0.67033654), (-0.74205714, 0, 0.67033654), (-0.7420572, 0, 0.6703366), (0, 1, 0), (0, 1, 0), (0, 1, 0), (0, 1, 0), (-1, 0, 0), (-1, 0, 0), (-1, 0, 0), (-1, 0, 0), (1, 0, 0), (1, 0, 0), (1, 0, 0), (1, 0, 0), (0, 0, -1), (0, 0, -1), (0, 0, -1), (0, 0, -1), (0, 0, 1), (0, 0, 1), (0, 0, 1), (0, 0, 0.99999994), (0, 0.9428706, 0.33315918), (0, 0.9428706, 0.33315918), (0, 0.9428707, 0.3331592), (0, 0.9428707, 0.3331592)] (
                interpolation = "faceVarying"
            )
            point3f[] points = [(-2.4218736, -0.25342464, 0), (-2.4218736, -0.25342464, 5), (0, -0.25342464, 5), (-1.3661025, -0.17586601, 9.313226e-9), (0, -0.17586601, 4.3382945), (-1.3661025, -0.17586601, 3.996935), (-1.0247427, -0.17586601, 4.3382945), (-2.4218736, -0.25342464, 4.4159026), (0, -0.25342464, 4.5624876), (-1.6066447, -0.25342464, 0), (-1.1827266, -0.25342464, 4.5624876), (-1.6066447, -0.25342464, 4.1213245), (-2.4218736, 0, 0), (-2.4218736, 0, 5), (0, 0, 5), (-1.3661025, 0, 3.996935), (-2.4218736, 0, 4.415902), (0, 0, 4.3382945), (0, -0.17586601, 4.5264583), (-1.5647471, -0.17586601, 9.313226e-9), (-1.1691378, -0.17586601, 4.5264583), (-1.5647471, -0.17586601, 4.1213245), (-1.3661025, 0, 9.313226e-9), (-1.0247427, 0, 4.3382945), (-1.8786517, -0.25342464, 5), (-0.91288376, -0.17586601, 4.3382945), (-1.0099688, -0.25342464, 4.5624876), (-0.91288376, 0, 4.3382945), (-1.8786517, 0, 5), (-0.91288376, -0.17586601, 4.5264583), (-0.8598254, -0.24495015, 4.581341), (-0.8598254, -0.20336926, 4.4316206), (-0.6497454, -0.24495015, 4.581341), (-0.6497454, -0.20336926, 4.4316206), (-0.8598254, -0.17045127, 4.4316206), (-0.8598254, -0.1704513, 4.581341), (-0.6497454, -0.1704513, 4.581341), (-0.6497454, -0.17045127, 4.4316206), (-1.2251207, -0.22211921, 9.313226e-9), (-1.2251207, 0, 9.313226e-9), (-1.5946803, -0.22211921, 9.313226e-9), (-1.5946803, 0, 9.313226e-9), (-1.2251207, 0, 0.2518845), (-1.2251207, -0.22211921, 0.2518845), (-1.5946803, 0, 0.66098404), (-1.5946803, -0.22211921, 0.66098404), (0, -0.20121615, -0.013425212), (0, 0, -0.013425212), (-1.2961733, -0.20121615, -0.013425212), (-1.2961733, 0, -0.013425212), (0, 0, 0.057455525), (0, -0.17617075, 0.057455525), (-1.2961733, 0, 0.057455525), (-1.2961733, -0.17617075, 0.057455525), (2.4218736, -0.25342464, 0), (2.4218736, -0.25342464, 5), (1.3661025, -0.17586601, 9.313226e-9), (1.3661025, -0.17586601, 3.996935), (1.0247427, -0.17586601, 4.3382945), (2.4218736, -0.25342464, 4.4159026), (1.6066447, -0.25342464, 0), (1.1827266, -0.25342464, 4.5624876), (1.6066447, -0.25342464, 4.1213245), (2.4218736, 0, 0), (2.4218736, 0, 5), (1.3661025, 0, 3.996935), (2.4218736, 0, 4.415902), (1.5647471, -0.17586601, 9.313226e-9), (1.1691378, -0.17586601, 4.5264583), (1.5647471, -0.17586601, 4.1213245), (1.3661025, 0, 9.313226e-9), (1.0247427, 0, 4.3382945), (1.8786517, -0.25342464, 5), (0.91288376, -0.17586601, 4.3382945), (1.0099688, -0.25342464, 4.5624876), (0.91288376, 0, 4.3382945), (1.8786517, 0, 5), (0.91288376, -0.17586601, 4.5264583), (0.8598254, -0.24495015, 4.581341), (0.8598254, -0.20336926, 4.4316206), (0.6497454, -0.24495015, 4.581341), (0.6497454, -0.20336926, 4.4316206), (0.8598254, -0.17045127, 4.4316206), (0.8598254, -0.1704513, 4.581341), (0.6497454, -0.1704513, 4.581341), (0.6497454, -0.17045127, 4.4316206), (1.2251207, -0.22211921, 9.313226e-9), (1.2251207, 0, 9.313226e-9), (1.5946803, -0.22211921, 9.313226e-9), (1.5946803, 0, 9.313226e-9), (1.2251207, 0, 0.2518845), (1.2251207, -0.22211921, 0.2518845), (1.5946803, 0, 0.66098404), (1.5946803, -0.22211921, 0.66098404), (1.2961733, -0.20121615, -0.013425212), (1.2961733, 0, -0.013425212), (1.2961733, 0, 0.057455525), (1.2961733, -0.17617075, 0.057455525), (-2.4218736, 0.25342464, 0), (-2.4218736, 0.25342464, 5), (0, 0.25342464, 5), (-1.3661025, 0.17586601, 9.313226e-9), (0, 0.17586601, 4.3382945), (-1.3661025, 0.17586601, 3.996935), (-1.0247427, 0.17586601, 4.3382945), (-2.4218736, 0.25342464, 4.4159026), (0, 0.25342464, 4.5624876), (-1.6066447, 0.25342464, 0), (-1.1827266, 0.25342464, 4.5624876), (-1.6066447, 0.25342464, 4.1213245), (0, 0.17586601, 4.5264583), (-1.5647471, 0.17586601, 9.313226e-9), (-1.1691378, 0.17586601, 4.5264583), (-1.5647471, 0.17586601, 4.1213245), (-1.8786517, 0.25342464, 5), (-0.91288376, 0.17586601, 4.3382945), (-1.0099688, 0.25342464, 4.5624876), (-0.91288376, 0.17586601, 4.5264583), (-0.8598254, 0.24495015, 4.581341), (-0.8598254, 0.20336926, 4.4316206), (-0.6497454, 0.24495015, 4.581341), (-0.6497454, 0.20336926, 4.4316206), (-0.8598254, 0.17045127, 4.4316206), (-0.8598254, 0.1704513, 4.581341), (-0.6497454, 0.1704513, 4.581341), (-0.6497454, 0.17045127, 4.4316206), (-1.2251207, 0.22211921, 9.313226e-9), (-1.5946803, 0.22211921, 9.313226e-9), (-1.2251207, 0.22211921, 0.2518845), (-1.5946803, 0.22211921, 0.66098404), (0, 0.20121615, -0.013425212), (-1.2961733, 0.20121615, -0.013425212), (0, 0.17617075, 0.057455525), (-1.2961733, 0.17617075, 0.057455525), (2.4218736, 0.25342464, 0), (2.4218736, 0.25342464, 5), (1.3661025, 0.17586601, 9.313226e-9), (1.3661025, 0.17586601, 3.996935), (1.0247427, 0.17586601, 4.3382945), (2.4218736, 0.25342464, 4.4159026), (1.6066447, 0.25342464, 0), (1.1827266, 0.25342464, 4.5624876), (1.6066447, 0.25342464, 4.1213245), (1.5647471, 0.17586601, 9.313226e-9), (1.1691378, 0.17586601, 4.5264583), (1.5647471, 0.17586601, 4.1213245), (1.8786517, 0.25342464, 5), (0.91288376, 0.17586601, 4.3382945), (1.0099688, 0.25342464, 4.5624876), (0.91288376, 0.17586601, 4.5264583), (0.8598254, 0.24495015, 4.581341), (0.8598254, 0.20336926, 4.4316206), (0.6497454, 0.24495015, 4.581341), (0.6497454, 0.20336926, 4.4316206), (0.8598254, 0.17045127, 4.4316206), (0.8598254, 0.1704513, 4.581341), (0.6497454, 0.1704513, 4.581341), (0.6497454, 0.17045127, 4.4316206), (1.2251207, 0.22211921, 9.313226e-9), (1.5946803, 0.22211921, 9.313226e-9), (1.2251207, 0.22211921, 0.2518845), (1.5946803, 0.22211921, 0.66098404), (1.2961733, 0.20121615, -0.013425212), (1.2961733, 0.17617075, 0.057455525)]
            texCoord2f[] primvars:st = [(0.24606192, 0.48079294), (0.3119033, 0.0016992539), (0.99917334, 0.0016992504), (0.68700236, 0.0016992539), (0.76508236, 0.48079282), (0.76508224, 0.2691959), (0.3540198, 0.0016992504), (0.15506262, 0.5500522), (-0.26891565, 0.65833867), (1.1550624, 0.5500524), (0.62868786, 0.65833867), (0.88119274, 0.55005234), (0.3362627, 0.65833867), (0.41621298, 0.65833867), (0.96889573, 0.55005234), (0.7140503, 0.48079282), (0.6431834, 0.0016992539), (2.1660042, 0.99820477), (0.72685724, 0.2691959), (0.24606192, 0.40956706), (-0.46860445, 0.9982049), (0.72685724, 0.3725297), (1.5423567, 0.9982049), (0.68831325, 0.40956703), (1.3076898, 0.9982049), (0.3119033, 0.12669925), (0.99917334, 0.12669925), (0.68700236, 0.12669925), (0.3540198, 0.12669925), (0.8811928, 0.51104385), (0.64318335, 0.12669925), (1.1550627, 0.5110439), (2.1660042, 0.965688), (0.62868786, 0.70527226), (-0.46860445, 0.96568817), (-0.26891565, 0.7052724), (0.41621298, 0.70527226), (1.5423567, 0.965688), (0.3362627, 0.70527226), (1.3076898, 0.965688), (0.15506262, 0.5110438), (0.96889573, 0.51104385), (0.76508236, 0.43333206), (0.90493774, 0.0016992504), (0.9960886, 0.55005234), (0.4472487, 0.65833867), (1.6341481, 0.9982049), (0.72685724, 0.357436), (0.9960886, 0.5110439), (0.9049374, 0.12669925), (1.6341481, 0.965688), (0.4472487, 0.70527226), (0.5652069, 0.08574928), (0.5652069, 0.13268287), (0.43462664, 0.08574928), (0.43462664, 0.13268287), (0.5652069, 0.13268287), (0.5652069, 0.08574928), (0.43462664, 0.08574928), (0.43462664, 0.13268287), (0, 0), (0.4337564, 0.21616083), (0, 0), (0.47930658, 0.21616082), (0.3579705, 0.21616083), (0, 0), (0, 0), (0.024033207, 0.18136205), (0.47930658, 0.26781496), (0.052943397, 0.18136205), (0.4337564, 0.26781496), (0.024033193, 0.36895806), (0, 0), (0.052943397, 0.3689581), (0.35797054, 0.35170934), (0, 0), (0, 0), (0.2746056, 0.10101873), (0, 0), (0, 0), (0.7261995, 0.10101869), (0, 0), (0.76319396, 0.5083526), (0.76319396, 0.536348), (0.2746056, 0.088914104), (0.2369777, 0.5083526), (0.23697764, 0.536348), (0.7261995, 0.08891407), (0.24606192, 0.48079294), (0.3119033, 0.0016992539), (0.99917334, 0.0016992504), (0.68700236, 0.0016992539), (0.76508236, 0.48079282), (0.15506262, 0.5500522), (-0.26891565, 0.65833867), (0.88119274, 0.55005234), (0.3362627, 0.65833867), (0.41621298, 0.65833867), (0.96889573, 0.55005234), (0.7140503, 0.48079282), (0.6431834, 0.0016992539), (0.24606192, 0.40956706), (-0.46860445, 0.9982049), (0.72685724, 0.3725297), (1.5423567, 0.9982049), (0.68831325, 0.40956703), (1.3076898, 0.9982049), (0.3119033, 0.12669925), (0.99917334, 0.12669925), (0.68700236, 0.12669925), (0.8811928, 0.51104385), (0.64318335, 0.12669925), (-0.46860445, 0.96568817), (-0.26891565, 0.7052724), (0.41621298, 0.70527226), (1.5423567, 0.965688), (0.3362627, 0.70527226), (1.3076898, 0.965688), (0.15506262, 0.5110438), (0.96889573, 0.51104385), (0.76508236, 0.43333206), (0.90493774, 0.0016992504), (0.9960886, 0.55005234), (0.4472487, 0.65833867), (1.6341481, 0.9982049), (0.72685724, 0.357436), (0.9960886, 0.5110439), (0.9049374, 0.12669925), (1.6341481, 0.965688), (0.4472487, 0.70527226), (0.5652069, 0.08574928), (0.5652069, 0.13268287), (0.43462664, 0.08574928), (0.43462664, 0.13268287), (0.5652069, 0.13268287), (0.5652069, 0.08574928), (0.43462664, 0.08574928), (0.43462664, 0.13268287), (0, 0), (0.4337564, 0.21616083), (0, 0), (0.47930658, 0.21616082), (0.3579705, 0.21616083), (0, 0), (0, 0), (0.024033207, 0.18136205), (0.47930658, 0.26781496), (0.052943397, 0.18136205), (0.4337564, 0.26781496), (0.024033193, 0.36895806), (0, 0), (0.052943397, 0.3689581), (0.35797054, 0.35170934), (0, 0), (0, 0), (0.7261995, 0.10101869), (0, 0), (0.2369777, 0.5083526), (0.23697764, 0.536348), (0.7261995, 0.08891407), (0.24606192, 0.48079294), (0.3119033, 0.0016992539), (0.99917334, 0.0016992504), (0.68700236, 0.0016992539), (0.76508236, 0.48079282), (0.76508224, 0.2691959), (0.3540198, 0.0016992504), (0.15506262, 0.5500522), (-0.26891565, 0.65833867), (1.1550624, 0.5500524), (0.62868786, 0.65833867), (0.88119274, 0.55005234), (0.3362627, 0.65833867), (0.41621298, 0.65833867), (0.96889573, 0.55005234), (0.7140503, 0.48079282), (0.6431834, 0.0016992539), (2.1660042, 0.99820477), (0.72685724, 0.2691959), (0.24606192, 0.40956706), (-0.46860445, 0.9982049), (0.72685724, 0.3725297), (1.5423567, 0.9982049), (0.68831325, 0.40956703), (1.3076898, 0.9982049), (2.1660042, 0.965688), (0.62868786, 0.70527226), (-0.46860445, 0.96568817), (-0.26891565, 0.7052724), (0.41621298, 0.70527226), (1.5423567, 0.965688), (0.3362627, 0.70527226), (1.3076898, 0.965688), (0.76508236, 0.43333206), (0.90493774, 0.0016992504), (0.9960886, 0.55005234), (0.4472487, 0.65833867), (1.6341481, 0.9982049), (0.72685724, 0.357436), (1.6341481, 0.965688), (0.4472487, 0.70527226), (0.5652069, 0.08574928), (0.5652069, 0.13268287), (0.43462664, 0.08574928), (0.43462664, 0.13268287), (0.5652069, 0.13268287), (0.5652069, 0.08574928), (0.43462664, 0.08574928), (0.43462664, 0.13268287), (0, 0), (0.4337564, 0.21616083), (0.3579705, 0.21616083), (0, 0), (0.052943397, 0.18136205), (0.4337564, 0.26781496), (0.052943397, 0.3689581), (0.35797054, 0.35170934), (0, 0), (0, 0), (0.2746056, 0.10101873), (0, 0), (0.7261995, 0.10101869), (0.76319396, 0.536348), (0.2746056, 0.088914104), (0.23697764, 0.536348), (0.7261995, 0.08891407), (0.24606192, 0.48079294), (0.3119033, 0.0016992539), (0.99917334, 0.0016992504), (0.68700236, 0.0016992539), (0.76508236, 0.48079282), (0.15506262, 0.5500522), (-0.26891565, 0.65833867), (0.88119274, 0.55005234), (0.3362627, 0.65833867), (0.41621298, 0.65833867), (0.96889573, 0.55005234), (0.7140503, 0.48079282), (0.6431834, 0.0016992539), (0.24606192, 0.40956706), (-0.46860445, 0.9982049), (0.72685724, 0.3725297), (1.5423567, 0.9982049), (0.68831325, 0.40956703), (1.3076898, 0.9982049), (-0.46860445, 0.96568817), (-0.26891565, 0.7052724), (0.41621298, 0.70527226), (1.5423567, 0.965688), (0.3362627, 0.70527226), (1.3076898, 0.965688), (0.76508236, 0.43333206), (0.90493774, 0.0016992504), (0.9960886, 0.55005234), (0.4472487, 0.65833867), (1.6341481, 0.9982049), (0.72685724, 0.357436), (1.6341481, 0.965688), (0.4472487, 0.70527226), (0.5652069, 0.08574928), (0.5652069, 0.13268287), (0.43462664, 0.08574928), (0.43462664, 0.13268287), (0.5652069, 0.13268287), (0.5652069, 0.08574928), (0.43462664, 0.08574928), (0.43462664, 0.13268287), (0, 0), (0.4337564, 0.21616083), (0.3579705, 0.21616083), (0, 0), (0.052943397, 0.18136205), (0.4337564, 0.26781496), (0.052943397, 0.3689581), (0.35797054, 0.35170934), (0, 0), (0, 0), (0.7261995, 0.10101869), (0.23697764, 0.536348), (0.7261995, 0.08891407)] (
                interpolation = "faceVarying"
            )
            int[] primvars:st:indices = [49, 26, 2, 43, 51, 36, 13, 45, 36, 38, 12, 13, 30, 16, 3, 27, 23, 15, 0, 19, 39, 24, 20, 34, 4, 15, 23, 21, 42, 4, 21, 47, 14, 11, 29, 41, 11, 7, 40, 29, 1, 16, 30, 25, 44, 14, 41, 48, 12, 38, 35, 8, 22, 24, 39, 37, 46, 22, 37, 50, 17, 46, 50, 32, 9, 44, 48, 31, 5, 42, 47, 18, 33, 51, 45, 10, 28, 49, 43, 6, 53, 55, 54, 52, 56, 57, 58, 59, 52, 57, 56, 53, 55, 59, 58, 54, 54, 58, 57, 52, 53, 56, 59, 55, 60, 65, 66, 62, 69, 67, 71, 73, 64, 61, 70, 74, 61, 63, 68, 70, 66, 65, 75, 72, 76, 79, 81, 78, 83, 82, 85, 86, 77, 84, 87, 80, 127, 121, 90, 108, 129, 123, 97, 114, 114, 97, 96, 116, 111, 109, 91, 100, 105, 101, 88, 99, 117, 112, 102, 106, 92, 103, 105, 99, 120, 125, 103, 92, 98, 119, 110, 95, 95, 110, 118, 93, 89, 107, 111, 100, 122, 126, 119, 98, 96, 94, 113, 116, 104, 115, 117, 106, 124, 128, 115, 104, 17, 32, 128, 124, 9, 31, 126, 122, 5, 18, 125, 120, 33, 10, 123, 129, 28, 6, 121, 127, 131, 130, 132, 133, 134, 137, 136, 135, 130, 131, 134, 135, 133, 132, 136, 137, 132, 130, 135, 136, 131, 133, 137, 134, 138, 140, 144, 143, 147, 151, 149, 145, 142, 152, 148, 139, 139, 148, 146, 141, 144, 150, 153, 143, 76, 78, 156, 154, 83, 158, 157, 82, 77, 155, 159, 84, 49, 194, 162, 26, 200, 196, 173, 189, 189, 173, 172, 191, 30, 27, 163, 176, 183, 179, 160, 175, 192, 187, 180, 184, 164, 181, 183, 175, 193, 198, 181, 164, 174, 41, 29, 171, 171, 29, 40, 167, 161, 25, 30, 176, 195, 48, 41, 174, 172, 168, 188, 191, 182, 190, 192, 184, 197, 199, 190, 182, 177, 185, 199, 197, 169, 31, 48, 195, 165, 178, 198, 193, 186, 170, 196, 200, 28, 166, 194, 49, 202, 201, 203, 204, 205, 208, 207, 206, 201, 202, 205, 206, 204, 203, 207, 208, 203, 201, 206, 207, 202, 204, 208, 205, 209, 62, 66, 212, 213, 215, 71, 67, 211, 216, 214, 210, 210, 214, 68, 63, 66, 72, 217, 212, 218, 78, 81, 220, 222, 224, 85, 82, 219, 221, 225, 223, 127, 108, 228, 252, 258, 247, 235, 254, 247, 249, 234, 235, 111, 238, 229, 109, 243, 237, 226, 239, 250, 244, 240, 245, 230, 237, 243, 241, 251, 230, 241, 256, 236, 233, 110, 119, 233, 231, 118, 110, 227, 238, 111, 107, 253, 236, 119, 126, 234, 249, 246, 232, 242, 244, 250, 248, 255, 242, 248, 257, 177, 255, 257, 185, 169, 253, 126, 31, 165, 251, 256, 178, 186, 258, 254, 170, 28, 127, 252, 166, 260, 262, 261, 259, 263, 264, 265, 266, 259, 264, 263, 260, 262, 266, 265, 261, 261, 265, 264, 259, 260, 263, 266, 262, 267, 270, 144, 140, 271, 145, 149, 273, 269, 268, 272, 274, 268, 141, 146, 272, 144, 270, 275, 150, 218, 276, 156, 78, 222, 82, 157, 278, 219, 223, 279, 277]
            uniform token subdivisionScheme = "none"
            custom string userProperties:blender:data_name = "Cube.002"
        }
    }

    def Scope "_materials"
    {
        def Material "MI_Trim_01"
        {
            token outputs:surface.connect = </root/_materials/MI_Trim_01/Principled_BSDF.outputs:surface>
            custom string userProperties:blender:data_name = "MI_Trim_01"

            def Shader "Principled_BSDF"
            {
                uniform token info:id = "UsdPreviewSurface"
                float inputs:clearcoat = 0
                float inputs:clearcoatRoughness = 0.03
                color3f inputs:diffuseColor.connect = </root/_materials/MI_Trim_01/Image_Texture.outputs:rgb>
                float inputs:ior = 1.5
                float inputs:metallic = 0
                normal3f inputs:normal.connect = </root/_materials/MI_Trim_01/Image_Texture_001.outputs:rgb>
                float inputs:opacity = 1
                float inputs:roughness = 0.5
                float inputs:specular = 0.5
                token outputs:surface
            }

            def Shader "Image_Texture"
            {
                uniform token info:id = "UsdUVTexture"
                asset inputs:file = @./textures/T_Trim01Red_D.png@
                token inputs:sourceColorSpace = "sRGB"
                float2 inputs:st.connect = </root/_materials/MI_Trim_01/uvmap.outputs:result>
                token inputs:wrapS = "repeat"
                token inputs:wrapT = "repeat"
                float3 outputs:rgb
            }

            def Shader "uvmap"
            {
                uniform token info:id = "UsdPrimvarReader_float2"
                string inputs:varname = "st"
                float2 outputs:result
            }

            def Shader "Image_Texture_001"
            {
                uniform token info:id = "UsdUVTexture"
                float4 inputs:bias = (-1, -1, -1, -1)
                asset inputs:file = @./textures/T_Trim01_N.png@
                float4 inputs:scale = (2, 2, 2, 2)
                token inputs:sourceColorSpace = "raw"
                float2 inputs:st.connect = </root/_materials/MI_Trim_01/uvmap.outputs:result>
                token inputs:wrapS = "repeat"
                token inputs:wrapT = "repeat"
                float3 outputs:rgb
            }
        }
    }
}

