#usda 1.0
(
    defaultPrim = "root"
    doc = "Blender v5.1.2"
    metersPerUnit = 1
    upAxis = "Y"
)

def Xform "root" (
    customData = {
        dictionary Blender = {
            bool generated = 1
        }
    }
)
{
    float3 xformOp:rotateXYZ = (-90, -0, 0)
    uniform token[] xformOpOrder = ["xformOp:rotateXYZ"]

    def Xform "Prop_Rail_Incline_Short_L"
    {
        custom string userProperties:blender:object_name = "Prop_Rail_Incline_Short_L"

        def Mesh "Cylinder_046" (
            active = true
            prepend apiSchemas = ["MaterialBindingAPI"]
        )
        {
            uniform bool doubleSided = 1
            float3[] extent = [(-0.22624469, -1.9347994, 0.0029671192), (0.028294818, -0.04379666, 1.7013636)]
            int[] faceVertexCounts = [4, 4, 4, 4, 4, 4, 4, 4, 4, 4, 4, 4, 4, 4, 4, 4, 4, 4, 4, 4, 4, 4, 4, 4, 4, 4, 4, 4, 4, 4, 4, 4, 4, 4, 4, 4, 4, 4, 4, 4, 4, 4, 4, 4, 4, 4, 4, 4, 4, 4, 4, 4, 4, 4, 4, 4, 4, 4, 4, 4, 4, 4, 4, 4, 4, 4, 4, 4, 4, 4, 4, 4, 14, 4, 4, 4, 4, 4, 4, 4, 4, 4, 4, 4, 4, 4, 4, 4, 4, 4, 4, 4, 4, 4, 4, 4, 4, 4, 4, 4, 4, 4, 4, 4, 4, 4, 4, 4, 4, 4, 4, 4, 4, 4, 4, 4, 4, 4, 4, 4, 4, 4, 4, 4, 4, 4, 4, 4, 4, 4, 4, 4, 4, 4, 4, 4, 4, 4, 4, 4, 4, 4, 4, 14, 4, 4, 4, 4, 4, 4, 4, 4, 4, 4, 4, 4, 4, 4, 4, 4, 4, 4, 4, 4, 4, 4, 4, 4, 4, 4, 4, 4, 4, 4, 4, 4, 4, 4, 4, 4, 4, 4, 4, 4, 4, 4, 4, 4, 4, 4, 4, 4, 4, 4, 4, 4, 4, 4, 4, 4, 4, 4, 4, 4, 4, 4, 4, 4, 4, 4, 4, 4, 4, 4, 4, 4, 4, 4, 4, 4, 4, 4, 4, 4, 4, 4, 4, 4, 4, 4, 4, 4, 4, 4, 4, 4, 4, 4, 4, 4, 4, 4, 4, 4, 4, 4, 4, 4, 4, 4, 4, 4, 4, 4, 4, 4, 4, 4, 4, 4, 4, 4, 4, 4, 4, 4, 4, 4, 4, 4, 4, 4, 4, 4, 4, 4, 4, 4, 4, 4, 4, 4, 4, 4, 4, 4, 4, 4, 4, 4, 4, 4, 4, 4, 4, 4]
            int[] faceVertexIndices = [0, 2, 3, 1, 2, 4, 5, 3, 4, 6, 7, 5, 6, 8, 9, 7, 8, 10, 11, 9, 10, 12, 13, 11, 12, 14, 15, 13, 14, 16, 17, 15, 16, 18, 19, 17, 18, 20, 21, 19, 20, 22, 23, 21, 22, 24, 25, 23, 3, 182, 183, 1, 24, 26, 27, 25, 26, 0, 1, 27, 0, 28, 29, 2, 38, 52, 53, 39, 24, 40, 41, 26, 10, 33, 34, 12, 20, 38, 39, 22, 6, 31, 32, 8, 16, 36, 37, 18, 26, 41, 28, 0, 2, 29, 30, 4, 12, 34, 35, 14, 22, 39, 40, 24, 8, 32, 33, 10, 18, 37, 38, 20, 4, 30, 31, 6, 14, 35, 36, 16, 46, 60, 61, 47, 31, 45, 46, 32, 39, 53, 54, 40, 32, 46, 47, 33, 40, 54, 55, 41, 33, 47, 48, 34, 41, 55, 42, 28, 34, 48, 49, 35, 35, 49, 50, 36, 28, 42, 43, 29, 36, 50, 51, 37, 29, 43, 44, 30, 37, 51, 52, 38, 30, 44, 45, 31, 69, 83, 70, 56, 54, 68, 69, 55, 47, 61, 62, 48, 55, 69, 56, 42, 48, 62, 63, 49, 49, 63, 64, 50, 42, 56, 57, 43, 50, 64, 65, 51, 43, 57, 58, 44, 51, 65, 66, 52, 44, 58, 59, 45, 52, 66, 67, 53, 45, 59, 60, 46, 53, 67, 68, 54, 211, 88, 89, 210, 62, 76, 77, 63, 63, 77, 78, 64, 56, 70, 71, 57, 64, 78, 79, 65, 57, 71, 72, 58, 65, 79, 80, 66, 58, 72, 73, 59, 66, 80, 81, 67, 59, 73, 74, 60, 67, 81, 82, 68, 60, 74, 75, 61, 68, 82, 83, 69, 61, 75, 76, 62, 84, 97, 96, 95, 94, 93, 92, 91, 90, 89, 88, 87, 86, 85, 213, 96, 97, 212, 210, 89, 90, 214, 212, 97, 84, 215, 214, 90, 91, 216, 216, 91, 92, 217, 215, 84, 85, 218, 217, 92, 93, 219, 218, 85, 86, 220, 219, 93, 94, 221, 220, 86, 87, 222, 221, 94, 95, 223, 222, 87, 88, 211, 223, 95, 96, 213, 98, 99, 113, 112, 122, 123, 137, 136, 110, 111, 125, 124, 103, 104, 118, 117, 108, 109, 123, 122, 101, 102, 116, 115, 106, 107, 121, 120, 111, 98, 112, 125, 99, 100, 114, 113, 104, 105, 119, 118, 109, 110, 124, 123, 102, 103, 117, 116, 107, 108, 122, 121, 100, 101, 115, 114, 105, 106, 120, 119, 130, 131, 145, 144, 115, 116, 130, 129, 123, 124, 138, 137, 116, 117, 131, 130, 124, 125, 139, 138, 117, 118, 132, 131, 125, 112, 126, 139, 118, 119, 133, 132, 119, 120, 134, 133, 112, 113, 127, 126, 120, 121, 135, 134, 113, 114, 128, 127, 121, 122, 136, 135, 114, 115, 129, 128, 153, 140, 154, 167, 138, 139, 153, 152, 131, 132, 146, 145, 139, 126, 140, 153, 132, 133, 147, 146, 133, 134, 148, 147, 126, 127, 141, 140, 134, 135, 149, 148, 127, 128, 142, 141, 135, 136, 150, 149, 128, 129, 143, 142, 136, 137, 151, 150, 129, 130, 144, 143, 137, 138, 152, 151, 225, 224, 173, 172, 146, 147, 161, 160, 147, 148, 162, 161, 140, 141, 155, 154, 148, 149, 163, 162, 141, 142, 156, 155, 149, 150, 164, 163, 142, 143, 157, 156, 150, 151, 165, 164, 143, 144, 158, 157, 151, 152, 166, 165, 144, 145, 159, 158, 152, 153, 167, 166, 145, 146, 160, 159, 168, 169, 170, 171, 172, 173, 174, 175, 176, 177, 178, 179, 180, 181, 227, 226, 181, 180, 224, 228, 174, 173, 226, 229, 168, 181, 228, 230, 175, 174, 230, 231, 176, 175, 229, 232, 169, 168, 231, 233, 177, 176, 232, 234, 170, 169, 233, 235, 178, 177, 234, 236, 171, 170, 235, 237, 179, 178, 236, 225, 172, 171, 237, 227, 180, 179, 183, 197, 209, 195, 27, 195, 194, 25, 13, 188, 187, 11, 23, 193, 192, 21, 9, 186, 185, 7, 19, 191, 190, 17, 1, 183, 195, 27, 5, 184, 182, 3, 15, 189, 188, 13, 25, 194, 193, 23, 11, 187, 186, 9, 21, 192, 191, 19, 7, 185, 184, 5, 17, 190, 189, 15, 189, 203, 202, 188, 190, 204, 203, 189, 182, 196, 197, 183, 191, 205, 204, 190, 184, 198, 196, 182, 192, 206, 205, 191, 185, 199, 198, 184, 193, 207, 206, 192, 186, 200, 199, 185, 194, 208, 207, 193, 187, 201, 200, 186, 195, 209, 208, 194, 188, 202, 201, 187, 197, 98, 111, 209, 209, 111, 110, 208, 208, 110, 109, 207, 207, 109, 108, 206, 206, 108, 107, 205, 205, 107, 106, 204, 204, 106, 105, 203, 203, 105, 104, 202, 202, 104, 103, 201, 201, 103, 102, 200, 200, 102, 101, 199, 199, 101, 100, 198, 198, 100, 99, 196, 196, 99, 98, 197, 81, 223, 213, 82, 73, 222, 211, 74, 80, 221, 223, 81, 72, 220, 222, 73, 79, 219, 221, 80, 71, 218, 220, 72, 78, 217, 219, 79, 70, 215, 218, 71, 77, 216, 217, 78, 76, 214, 216, 77, 83, 212, 215, 70, 75, 210, 214, 76, 82, 213, 212, 83, 74, 211, 210, 75, 165, 166, 227, 237, 157, 158, 225, 236, 164, 165, 237, 235, 156, 157, 236, 234, 163, 164, 235, 233, 155, 156, 234, 232, 162, 163, 233, 231, 154, 155, 232, 229, 161, 162, 231, 230, 160, 161, 230, 228, 167, 154, 229, 226, 159, 160, 228, 224, 166, 167, 226, 227, 158, 159, 224, 225, 279, 267, 255, 239, 267, 276, 264, 255, 289, 279, 239, 249, 285, 273, 261, 245, 273, 289, 249, 261, 281, 269, 257, 241, 269, 285, 245, 257, 291, 281, 241, 251, 287, 275, 263, 247, 275, 291, 251, 263, 283, 271, 259, 243, 271, 287, 247, 259, 293, 283, 243, 253, 265, 264, 253, 252, 252, 253, 243, 242, 242, 243, 259, 258, 258, 259, 247, 246, 246, 247, 263, 262, 262, 263, 251, 250, 250, 251, 241, 240, 240, 241, 257, 256, 256, 257, 245, 244, 244, 245, 261, 260, 260, 261, 249, 248, 248, 249, 239, 238, 238, 239, 255, 254, 254, 255, 264, 265, 267, 266, 277, 276, 279, 278, 266, 267, 289, 288, 278, 279, 273, 272, 288, 289, 285, 284, 272, 273, 269, 268, 284, 285, 281, 280, 268, 269, 291, 290, 280, 281, 275, 274, 290, 291, 287, 286, 274, 275, 271, 270, 286, 287, 283, 282, 270, 271, 293, 292, 282, 283, 276, 277, 292, 293, 295, 277, 266, 307, 303, 282, 292, 305, 294, 286, 270, 306, 302, 290, 274, 300, 306, 270, 282, 303, 300, 274, 286, 294, 304, 278, 288, 298, 307, 266, 278, 304, 296, 272, 284, 301, 305, 292, 277, 295, 297, 280, 290, 302, 301, 284, 268, 299, 298, 288, 272, 296, 299, 268, 280, 297, 276, 293, 253, 264, 248, 238, 308, 320, 254, 265, 321, 309, 238, 254, 309, 308, 250, 240, 310, 319, 262, 250, 319, 317, 244, 260, 315, 314, 258, 246, 316, 313, 240, 256, 311, 310, 252, 242, 312, 318, 265, 252, 318, 321, 246, 262, 317, 316, 260, 248, 320, 315, 242, 258, 313, 312, 256, 244, 314, 311]
            rel material:binding = </root/_materials/MI_Trim_02_Rails>
            normal3f[] normals = [(0.32788524, 0.64570624, -0.6896047), (-0.13228248, 0.64634013, -0.75149566), (-0.11428795, 0.4014602, -0.9087178), (0.3185734, 0.3755466, -0.8703308), (-0.13228248, 0.64634013, -0.75149566), (-0.5596341, 0.50842613, -0.654456), (-0.5327054, 0.34987766, -0.770591), (-0.11428795, 0.4014602, -0.9087178), (-0.5596341, 0.50842613, -0.654456), (-0.86477906, 0.27142036, -0.4224786), (-0.85178286, 0.23101583, -0.47021016), (-0.5327054, 0.34987766, -0.770591), (-0.86477906, 0.27142036, -0.4224786), (-0.9942663, -0.010230961, -0.10644237), (-0.9954046, 0.06634489, -0.06905206), (-0.85178286, 0.23101583, -0.47021016), (-0.9942663, -0.010230961, -0.10644237), (-0.931135, -0.2828299, 0.23020598), (-0.9339727, -0.10966616, 0.34010053), (-0.9954046, 0.06634489, -0.06905206), (-0.931135, -0.2828299, 0.23020598), (-0.6912301, -0.49933875, 0.5223617), (-0.6922787, -0.2601177, 0.67311877), (-0.9339727, -0.10966616, 0.34010053), (-0.6912301, -0.49933875, 0.5223617), (-0.32050994, -0.62265944, 0.7138408), (-0.3262816, -0.35753325, 0.8750487), (-0.6922787, -0.2601177, 0.67311877), (-0.32050994, -0.62265944, 0.7138408), (0.11099174, -0.6304645, 0.7682417), (0.098080724, -0.38706705, 0.9168202), (-0.3262816, -0.35753325, 0.8750487), (0.11099174, -0.6304645, 0.7682417), (0.52161753, -0.51991194, 0.6764662), (0.5108574, -0.344082, 0.78780216), (0.098080724, -0.38706705, 0.9168202), (0.52161753, -0.51991194, 0.6764662), (0.8338882, -0.30873796, 0.45750555), (0.83501124, -0.23278983, 0.49856302), (0.5108574, -0.344082, 0.78780216), (0.8338882, -0.30873796, 0.45750555), (0.987713, -0.0328285, 0.15279238), (0.99281174, -0.069738835, 0.09726957), (0.83501124, -0.23278983, 0.49856302), (0.987713, -0.0328285, 0.15279238), (0.9489471, 0.25772387, -0.18187353), (0.93924654, 0.11258157, -0.3242552), (0.99281174, -0.069738835, 0.09726957), (-0.11428795, 0.4014602, -0.9087178), (-0.11966095, 0.22920352, -0.9659954), (0.30433387, 0.17914185, -0.9355689), (0.3185734, 0.3755466, -0.8703308), (0.9489471, 0.25772387, -0.18187353), (0.71594846, 0.5035423, -0.4835938), (0.6931938, 0.27291268, -0.66708404), (0.93924654, 0.11258157, -0.3242552), (0.71594846, 0.5035423, -0.4835938), (0.32788524, 0.64570624, -0.6896047), (0.3185734, 0.3755466, -0.8703308), (0.6931938, 0.27291268, -0.66708404), (0.32788524, 0.64570624, -0.6896047), (0.27529207, 0.89048004, -0.3622976), (-0.16897732, 0.87756866, -0.44868696), (-0.13228248, 0.64634013, -0.75149566), (0.8458578, -0.39253905, 0.3611614), (0.86492836, -0.4094265, 0.29029095), (0.9692382, 0.023856409, 0.2449657), (0.981843, -0.0027855167, 0.18967494), (0.9489471, 0.25772387, -0.18187353), (0.91809344, 0.39614666, -0.013118973), (0.6644275, 0.71777415, -0.20817374), (0.71594846, 0.5035423, -0.4835938), (-0.931135, -0.2828299, 0.23020598), (-0.90690607, -0.41868678, 0.047146864), (-0.6566357, -0.7108346, 0.2520787), (-0.6912301, -0.49933875, 0.5223617), (0.8338882, -0.30873796, 0.45750555), (0.8458578, -0.39253905, 0.3611614), (0.981843, -0.0027855167, 0.18967494), (0.987713, -0.0328285, 0.15279238), (-0.86477906, 0.27142036, -0.4224786), (-0.87007135, 0.35229233, -0.34476957), (-0.98504627, -0.041486353, -0.16722074), (-0.9942663, -0.010230961, -0.10644237), (0.11099174, -0.6304645, 0.7682417), (0.14261007, -0.86407757, 0.48273426), (0.54485667, -0.6970442, 0.46611217), (0.52161753, -0.51991194, 0.6764662), (0.71594846, 0.5035423, -0.4835938), (0.6644275, 0.71777415, -0.20817374), (0.27529207, 0.89048004, -0.3622976), (0.32788524, 0.64570624, -0.6896047), (-0.13228248, 0.64634013, -0.75149566), (-0.16897732, 0.87756866, -0.44868696), (-0.57889766, 0.68317515, -0.4451396), (-0.5596341, 0.50842613, -0.654456), (-0.6912301, -0.49933875, 0.5223617), (-0.6566357, -0.7108346, 0.2520787), (-0.28389925, -0.86823416, 0.40690383), (-0.32050994, -0.62265944, 0.7138408), (0.987713, -0.0328285, 0.15279238), (0.981843, -0.0027855167, 0.18967494), (0.91809344, 0.39614666, -0.013118973), (0.9489471, 0.25772387, -0.18187353), (-0.9942663, -0.010230961, -0.10644237), (-0.98504627, -0.041486353, -0.16722074), (-0.90690607, -0.41868678, 0.047146864), (-0.931135, -0.2828299, 0.23020598), (0.52161753, -0.51991194, 0.6764662), (0.54485667, -0.6970442, 0.46611217), (0.8458578, -0.39253905, 0.3611614), (0.8338882, -0.30873796, 0.45750555), (-0.5596341, 0.50842613, -0.654456), (-0.57889766, 0.68317515, -0.4451396), (-0.87007135, 0.35229233, -0.34476957), (-0.86477906, 0.27142036, -0.4224786), (-0.32050994, -0.62265944, 0.7138408), (-0.28389925, -0.86823416, 0.40690383), (0.14261007, -0.86407757, 0.48273426), (0.11099174, -0.6304645, 0.7682417), (-0.96929044, -0.057737377, -0.23904507), (-0.9618707, -0.04570719, -0.26965818), (-0.8495881, -0.47774252, -0.22352226), (-0.8679775, -0.47706875, -0.13791469), (-0.87007135, 0.35229233, -0.34476957), (-0.87953836, 0.37833726, -0.28857076), (-0.96929044, -0.057737377, -0.23904507), (-0.98504627, -0.041486353, -0.16722074), (0.981843, -0.0027855167, 0.18967494), (0.9692382, 0.023856409, 0.2449657), (0.876253, 0.4558823, 0.15605146), (0.91809344, 0.39614666, -0.013118973), (-0.98504627, -0.041486353, -0.16722074), (-0.96929044, -0.057737377, -0.23904507), (-0.8679775, -0.47706875, -0.13791469), (-0.90690607, -0.41868678, 0.047146864), (0.91809344, 0.39614666, -0.013118973), (0.876253, 0.4558823, 0.15605146), (0.60443354, 0.7956938, 0.039135464), (0.6644275, 0.71777415, -0.20817374), (-0.90690607, -0.41868678, 0.047146864), (-0.8679775, -0.47706875, -0.13791469), (-0.60040617, -0.79963845, -0.00952045), (-0.6566357, -0.7108346, 0.2520787), (0.6644275, 0.71777415, -0.20817374), (0.60443354, 0.7956938, 0.039135464), (0.21171059, 0.9734667, -0.086840026), (0.27529207, 0.89048004, -0.3622976), (-0.6566357, -0.7108346, 0.2520787), (-0.60040617, -0.79963845, -0.00952045), (-0.21992366, -0.9682624, 0.11874987), (-0.28389925, -0.86823416, 0.40690383), (-0.28389925, -0.86823416, 0.40690383), (-0.21992366, -0.9682624, 0.11874987), (0.20283218, -0.95364904, 0.2222895), (0.14261007, -0.86407757, 0.48273426), (0.27529207, 0.89048004, -0.3622976), (0.21171059, 0.9734667, -0.086840026), (-0.22261293, 0.9542678, -0.19954051), (-0.16897732, 0.87756866, -0.44868696), (0.14261007, -0.86407757, 0.48273426), (0.20283218, -0.95364904, 0.2222895), (0.589652, -0.7565494, 0.28274295), (0.54485667, -0.6970442, 0.46611217), (-0.16897732, 0.87756866, -0.44868696), (-0.22261293, 0.9542678, -0.19954051), (-0.6127554, 0.74137706, -0.27366173), (-0.57889766, 0.68317515, -0.4451396), (0.54485667, -0.6970442, 0.46611217), (0.589652, -0.7565494, 0.28274295), (0.86492836, -0.4094265, 0.29029095), (0.8458578, -0.39253905, 0.3611614), (-0.57889766, 0.68317515, -0.4451396), (-0.6127554, 0.74137706, -0.27366173), (-0.87953836, 0.37833726, -0.28857076), (-0.87007135, 0.35229233, -0.34476957), (0.57040894, 0.8104004, 0.13373408), (0.5377277, 0.8340512, 0.12331878), (0.13956206, 0.9901974, 0.005608581), (0.1830083, 0.9829295, 0.018905932), (0.876253, 0.4558823, 0.15605146), (0.8497853, 0.47745448, 0.22338769), (0.57040894, 0.8104004, 0.13373408), (0.60443354, 0.7956938, 0.039135464), (-0.8679775, -0.47706875, -0.13791469), (-0.8495881, -0.47774252, -0.22352226), (-0.57033813, -0.81039685, -0.13405715), (-0.60040617, -0.79963845, -0.00952045), (0.60443354, 0.7956938, 0.039135464), (0.57040894, 0.8104004, 0.13373408), (0.1830083, 0.9829295, 0.018905932), (0.21171059, 0.9734667, -0.086840026), (-0.60040617, -0.79963845, -0.00952045), (-0.57033813, -0.81039685, -0.13405715), (-0.18291438, -0.98294044, -0.019246005), (-0.21992366, -0.9682624, 0.11874987), (-0.21992366, -0.9682624, 0.11874987), (-0.18291438, -0.98294044, -0.019246005), (0.23969969, -0.9657132, 0.09970971), (0.20283218, -0.95364904, 0.2222895), (0.21171059, 0.9734667, -0.086840026), (0.1830083, 0.9829295, 0.018905932), (-0.23959385, 0.965707, -0.10002372), (-0.22261293, 0.9542678, -0.19954051), (0.20283218, -0.95364904, 0.2222895), (0.23969969, -0.9657132, 0.09970971), (0.61908823, -0.7593425, 0.20032156), (0.589652, -0.7565494, 0.28274295), (-0.22261293, 0.9542678, -0.19954051), (-0.23959385, 0.965707, -0.10002372), (-0.6192769, 0.75912404, -0.20056619), (-0.6127554, 0.74137706, -0.27366173), (0.589652, -0.7565494, 0.28274295), (0.61908823, -0.7593425, 0.20032156), (0.8789927, -0.39867222, 0.2615957), (0.86492836, -0.4094265, 0.29029095), (-0.6127554, 0.74137706, -0.27366173), (-0.6192769, 0.75912404, -0.20056619), (-0.8792923, 0.39797828, -0.26164553), (-0.87953836, 0.37833726, -0.28857076), (0.86492836, -0.4094265, 0.29029095), (0.8789927, -0.39867222, 0.2615957), (0.9618944, 0.044953592, 0.26970023), (0.9692382, 0.023856409, 0.2449657), (-0.87953836, 0.37833726, -0.28857076), (-0.8792923, 0.39797828, -0.26164553), (-0.9618707, -0.04570719, -0.26965818), (-0.96929044, -0.057737377, -0.23904507), (0.9692382, 0.023856409, 0.2449657), (0.9618944, 0.044953592, 0.26970023), (0.8497853, 0.47745448, 0.22338769), (0.876253, 0.4558823, 0.15605146), (-0.9794892, -0.14687575, -0.13794321), (-0.7422022, -0.1488707, -0.65343195), (-0.62579626, -0.41758147, -0.6587903), (-0.84454346, -0.5226274, -0.116649054), (-0.57033813, -0.81039685, -0.13405715), (-0.57214004, -0.80729216, -0.14468946), (-0.18176842, -0.9829038, -0.029332478), (-0.18291438, -0.98294044, -0.019246005), (-0.18291438, -0.98294044, -0.019246005), (-0.18176842, -0.9829038, -0.029332478), (0.24546129, -0.9650584, 0.09171217), (0.23969969, -0.9657132, 0.09970971), (0.1830083, 0.9829295, 0.018905932), (0.13956206, 0.9901974, 0.005608581), (-0.28524768, 0.9517694, -0.1129987), (-0.23959385, 0.965707, -0.10002372), (0.23969969, -0.9657132, 0.09970971), (0.24546129, -0.9650584, 0.09171217), (0.62552637, -0.7556349, 0.19424914), (0.61908823, -0.7593425, 0.20032156), (-0.23959385, 0.965707, -0.10002372), (-0.28524768, 0.9517694, -0.1129987), (-0.6526434, 0.72819203, -0.20926774), (-0.6192769, 0.75912404, -0.20056619), (0.61908823, -0.7593425, 0.20032156), (0.62552637, -0.7556349, 0.19424914), (0.88424546, -0.38976198, 0.2572849), (0.8789927, -0.39867222, 0.2615957), (-0.6192769, 0.75912404, -0.20056619), (-0.6526434, 0.72819203, -0.20926774), (-0.89616287, 0.35505906, -0.26612997), (-0.8792923, 0.39797828, -0.26164553), (0.8789927, -0.39867222, 0.2615957), (0.88424546, -0.38976198, 0.2572849), (0.96115965, 0.072190106, 0.26638463), (0.9618944, 0.044953592, 0.26970023), (-0.8792923, 0.39797828, -0.26164553), (-0.89616287, 0.35505906, -0.26612997), (-0.9596589, -0.06787183, -0.27285165), (-0.9618707, -0.04570719, -0.26965818), (0.9618944, 0.044953592, 0.26970023), (0.96115965, 0.072190106, 0.26638463), (0.8295626, 0.5147491, 0.21646969), (0.8497853, 0.47745448, 0.22338769), (-0.9618707, -0.04570719, -0.26965818), (-0.9596589, -0.06787183, -0.27285165), (-0.84994066, -0.47301176, -0.23207907), (-0.8495881, -0.47774252, -0.22352226), (0.8497853, 0.47745448, 0.22338769), (0.8295626, 0.5147491, 0.21646969), (0.5377277, 0.8340512, 0.12331878), (0.57040894, 0.8104004, 0.13373408), (-0.8495881, -0.47774252, -0.22352226), (-0.84994066, -0.47301176, -0.23207907), (-0.57214004, -0.80729216, -0.14468946), (-0.57033813, -0.81039685, -0.13405715), (-0.0011206988, 0.74899817, -0.66257113), (0.32147202, 0.6782349, -0.66079736), (0.5810429, 0.4761971, -0.66001946), (0.73589665, 0.14061269, -0.66233236), (0.7167186, -0.23047921, -0.6581746), (0.5411206, -0.5216825, -0.6595724), (0.26075938, -0.7033112, -0.66133034), (-0.06768864, -0.74654865, -0.6618786), (-0.38281962, -0.64559764, -0.6607971), (-0.62579626, -0.41758147, -0.6587903), (-0.7422022, -0.1488707, -0.65343195), (-0.7337569, 0.16026151, -0.6602403), (-0.58104503, 0.47619432, -0.6600194), (-0.32258677, 0.6778019, -0.66069824), (0.80140966, 0.58848256, 0.10691501), (0.5810429, 0.4761971, -0.66001946), (0.32147202, 0.6782349, -0.66079736), (0.4792667, 0.87540203, 0.06304463), (-0.84454346, -0.5226274, -0.116649054), (-0.62579626, -0.41758147, -0.6587903), (-0.38281962, -0.64559764, -0.6607971), (-0.53380376, -0.84284574, -0.0682976), (0.4792667, 0.87540203, 0.06304463), (0.32147202, 0.6782349, -0.66079736), (-0.0011206988, 0.74899817, -0.66257113), (0.062066384, 0.9980608, 0.00471868), (-0.53380376, -0.84284574, -0.0682976), (-0.38281962, -0.64559764, -0.6607971), (-0.06768864, -0.74654865, -0.6618786), (-0.121099725, -0.992609, -0.0078906715), (-0.121099725, -0.992609, -0.0078906715), (-0.06768864, -0.74654865, -0.6618786), (0.26075938, -0.7033112, -0.66133034), (0.31308317, -0.94832134, 0.051628422), (0.062066384, 0.9980608, 0.00471868), (-0.0011206988, 0.74899817, -0.66257113), (-0.32258677, 0.6778019, -0.66069824), (-0.36883262, 0.927734, -0.057202015), (0.31308317, -0.94832134, 0.051628422), (0.26075938, -0.7033112, -0.66133034), (0.5411206, -0.5216825, -0.6595724), (0.6869283, -0.7198996, 0.0993681), (-0.36883262, 0.927734, -0.057202015), (-0.32258677, 0.6778019, -0.66069824), (-0.58104503, 0.47619432, -0.6600194), (-0.7282576, 0.6766591, -0.10850516), (0.6869283, -0.7198996, 0.0993681), (0.5411206, -0.5216825, -0.6595724), (0.7167186, -0.23047921, -0.6581746), (0.93054175, -0.34318212, 0.12774228), (-0.7282576, 0.6766591, -0.10850516), (-0.58104503, 0.47619432, -0.6600194), (-0.7337569, 0.16026151, -0.6602403), (-0.95384216, 0.26598108, -0.13942446), (0.93054175, -0.34318212, 0.12774228), (0.7167186, -0.23047921, -0.6581746), (0.73589665, 0.14061269, -0.66233236), (0.980931, 0.14375515, 0.130801), (-0.95384216, 0.26598108, -0.13942446), (-0.7337569, 0.16026151, -0.6602403), (-0.7422022, -0.1488707, -0.65343195), (-0.9794892, -0.14687575, -0.13794321), (0.980931, 0.14375515, 0.130801), (0.73589665, 0.14061269, -0.66233236), (0.5810429, 0.4761971, -0.66001946), (0.80140966, 0.58848256, 0.10691501), (0.054297883, -0.73465645, -0.67626303), (-0.36810827, -0.5770809, -0.72902256), (-0.46636736, -0.73622423, -0.4903828), (-0.056658953, -0.91084427, -0.40884274), (0.9268386, 0.04690685, 0.37251836), (0.9166344, -0.3566356, 0.18053366), (0.8948573, -0.37976652, 0.23453751), (0.9513267, 0.05940724, 0.3024039), (0.78388107, -0.5872459, -0.20167486), (0.46730143, -0.7372609, -0.48793006), (0.36703575, -0.8960191, -0.24986894), (0.7168281, -0.6960235, -0.041336305), (-0.769179, 0.59504527, 0.23299092), (-0.46139836, 0.7205137, 0.51765966), (-0.3626308, 0.88457406, 0.2933047), (-0.6986572, 0.7113716, 0.07634517), (0.90212935, 0.0005260782, 0.43146536), (0.9383301, -0.32180852, 0.12639576), (0.9166344, -0.3566356, 0.18053366), (0.9268386, 0.04690685, 0.37251836), (-0.91250134, 0.03307243, -0.4077347), (-0.93090755, 0.35199222, -0.097533055), (-0.9040647, 0.39796048, -0.15586673), (-0.93527853, -0.0015442047, -0.35390902), (0.34241825, 0.56638944, 0.7496351), (0.6879559, 0.31565797, 0.653511), (0.75310487, 0.43301243, 0.4953113), (0.43661094, 0.7313252, 0.52396005), (0.46730143, -0.7372609, -0.48793006), (0.054297883, -0.73465645, -0.67626303), (-0.056658953, -0.91084427, -0.40884274), (0.36703575, -0.8960191, -0.24986894), (-0.36810827, -0.5770809, -0.72902256), (-0.7129778, -0.30024263, -0.6336537), (-0.7801655, -0.4089921, -0.47335753), (-0.46636736, -0.73622423, -0.4903828), (-0.46139836, 0.7205137, 0.51765966), (-0.06635087, 0.70964897, 0.70142424), (0.040279783, 0.8909273, 0.4523562), (-0.3626308, 0.88457406, 0.2933047), (0.9383301, -0.32180852, 0.12639576), (0.78388107, -0.5872459, -0.20167486), (0.7168281, -0.6960235, -0.041336305), (0.9166344, -0.3566356, 0.18053366), (-0.93090755, 0.35199222, -0.097533055), (-0.769179, 0.59504527, 0.23299092), (-0.6986572, 0.7113716, 0.07634517), (-0.9040647, 0.39796048, -0.15586673), (0.6879559, 0.31565797, 0.653511), (0.90212935, 0.0005260782, 0.43146536), (0.9268386, 0.04690685, 0.37251836), (0.75310487, 0.43301243, 0.4953113), (-0.7129778, -0.30024263, -0.6336537), (-0.91250134, 0.03307243, -0.4077347), (-0.93527853, -0.0015442047, -0.35390902), (-0.7801655, -0.4089921, -0.47335753), (-0.06635087, 0.70964897, 0.70142424), (0.34241825, 0.56638944, 0.7496351), (0.43661094, 0.7313252, 0.52396005), (0.040279783, 0.8909273, 0.4523562), (-0.8828921, 0.41109976, -0.22693302), (-0.63978714, 0.76121795, -0.105922885), (-0.6215776, 0.7595709, -0.1915551), (-0.8799617, 0.39876506, -0.2581738), (-0.93527853, -0.0015442047, -0.35390902), (-0.9040647, 0.39796048, -0.15586673), (-0.8828921, 0.41109976, -0.22693302), (-0.9539185, -0.02528155, -0.2989988), (0.9166344, -0.3566356, 0.18053366), (0.7168281, -0.6960235, -0.041336305), (0.65489715, -0.7453061, 0.12501398), (0.8948573, -0.37976652, 0.23453751), (-0.9040647, 0.39796048, -0.15586673), (-0.6986572, 0.7113716, 0.07634517), (-0.63978714, 0.76121795, -0.105922885), (-0.8828921, 0.41109976, -0.22693302), (0.7168281, -0.6960235, -0.041336305), (0.36703575, -0.8960191, -0.24986894), (0.28094867, -0.9597026, -0.0062209223), (0.65489715, -0.7453061, 0.12501398), (-0.6986572, 0.7113716, 0.07634517), (-0.3626308, 0.88457406, 0.2933047), (-0.27604428, 0.9604719, 0.03596054), (-0.63978714, 0.76121795, -0.105922885), (0.36703575, -0.8960191, -0.24986894), (-0.056658953, -0.91084427, -0.40884274), (-0.1481632, -0.9793864, -0.1372953), (0.28094867, -0.9597026, -0.0062209223), (-0.3626308, 0.88457406, 0.2933047), (0.040279783, 0.8909273, 0.4523562), (0.13834552, 0.9758615, 0.1689818), (-0.27604428, 0.9604719, 0.03596054), (0.040279783, 0.8909273, 0.4523562), (0.43661094, 0.7313252, 0.52396005), (0.52718186, 0.8064628, 0.26776284), (0.13834552, 0.9758615, 0.1689818), (-0.056658953, -0.91084427, -0.40884274), (-0.46636736, -0.73622423, -0.4903828), (-0.5460993, -0.801125, -0.24489675), (-0.1481632, -0.9793864, -0.1372953), (0.43661094, 0.7313252, 0.52396005), (0.75310487, 0.43301243, 0.4953113), (0.8178453, 0.4817365, 0.3147364), (0.52718186, 0.8064628, 0.26776284), (-0.46636736, -0.73622423, -0.4903828), (-0.7801655, -0.4089921, -0.47335753), (-0.83410966, -0.45980486, -0.3046975), (-0.5460993, -0.801125, -0.24489675), (0.75310487, 0.43301243, 0.4953113), (0.9268386, 0.04690685, 0.37251836), (0.9513267, 0.05940724, 0.3024039), (0.8178453, 0.4817365, 0.3147364), (-0.7801655, -0.4089921, -0.47335753), (-0.93527853, -0.0015442047, -0.35390902), (-0.9539185, -0.02528155, -0.2989988), (-0.83410966, -0.45980486, -0.3046975), (0.24305089, -0.96602833, 0.08783824), (-0.17932235, -0.98327327, -0.03189227), (-0.17908357, -0.98328894, -0.032742202), (0.24117364, -0.96655893, 0.08717274), (0.65489715, -0.7453061, 0.12501398), (0.28094867, -0.9597026, -0.0062209223), (0.24305089, -0.96602833, 0.08783824), (0.6218633, -0.75936764, 0.1914337), (-0.63978714, 0.76121795, -0.105922885), (-0.27604428, 0.9604719, 0.03596054), (-0.24297057, 0.9660191, -0.08816106), (-0.6215776, 0.7595709, -0.1915551), (0.28094867, -0.9597026, -0.0062209223), (-0.1481632, -0.9793864, -0.1372953), (-0.17932235, -0.98327327, -0.03189227), (0.24305089, -0.96602833, 0.08783824), (-0.27604428, 0.9604719, 0.03596054), (0.13834552, 0.9758615, 0.1689818), (0.17942685, 0.98326516, 0.031553566), (-0.24297057, 0.9660191, -0.08816106), (0.13834552, 0.9758615, 0.1689818), (0.52718186, 0.8064628, 0.26776284), (0.5670557, 0.81070787, 0.14560416), (0.17942685, 0.98326516, 0.031553566), (-0.1481632, -0.9793864, -0.1372953), (-0.5460993, -0.801125, -0.24489675), (-0.56696075, -0.8107172, -0.14592162), (-0.17932235, -0.98327327, -0.03189227), (0.52718186, 0.8064628, 0.26776284), (0.8178453, 0.4817365, 0.3147364), (0.84710234, 0.47797412, 0.23228931), (0.5670557, 0.81070787, 0.14560416), (-0.5460993, -0.801125, -0.24489675), (-0.83410966, -0.45980486, -0.3046975), (-0.84719884, -0.47769034, -0.23252119), (-0.56696075, -0.8107172, -0.14592162), (0.8178453, 0.4817365, 0.3147364), (0.9513267, 0.05940724, 0.3024039), (0.96090096, 0.045797795, 0.2730786), (0.84710234, 0.47797412, 0.23228931), (-0.83410966, -0.45980486, -0.3046975), (-0.9539185, -0.02528155, -0.2989988), (-0.96093297, -0.04504333, -0.27309132), (-0.84719884, -0.47769034, -0.23252119), (0.9513267, 0.05940724, 0.3024039), (0.8948573, -0.37976652, 0.23453751), (0.88025373, -0.3980677, 0.2582547), (0.96090096, 0.045797795, 0.2730786), (-0.9539185, -0.02528155, -0.2989988), (-0.8828921, 0.41109976, -0.22693302), (-0.8799617, 0.39876506, -0.2581738), (-0.96093297, -0.04504333, -0.27309132), (0.8948573, -0.37976652, 0.23453751), (0.65489715, -0.7453061, 0.12501398), (0.6218633, -0.75936764, 0.1914337), (0.88025373, -0.3980677, 0.2582547), (-0.92794245, 0.3307145, -0.17190291), (-0.7280142, 0.6768897, -0.10869981), (-0.581038, 0.47619778, -0.6600231), (-0.7328937, 0.16710903, -0.65950084), (-0.24297057, 0.9660191, -0.08816106), (0.17942685, 0.98326516, 0.031553566), (0.13902187, 0.9902424, 0.009640448), (-0.28356177, 0.95275086, -0.10889655), (0.17942685, 0.98326516, 0.031553566), (0.5670557, 0.81070787, 0.14560416), (0.53472525, 0.83546495, 0.12675625), (0.13902187, 0.9902424, 0.009640448), (-0.17932235, -0.98327327, -0.03189227), (-0.56696075, -0.8107172, -0.14592162), (-0.5653247, -0.8119211, -0.14557476), (-0.17908357, -0.98328894, -0.032742202), (0.5670557, 0.81070787, 0.14560416), (0.84710234, 0.47797412, 0.23228931), (0.8282999, 0.5154111, 0.21970607), (0.53472525, 0.83546495, 0.12675625), (-0.56696075, -0.8107172, -0.14592162), (-0.84719884, -0.47769034, -0.23252119), (-0.8462685, -0.48001006, -0.23112799), (-0.5653247, -0.8119211, -0.14557476), (0.84710234, 0.47797412, 0.23228931), (0.96090096, 0.045797795, 0.2730786), (0.9593299, 0.08725595, 0.26846308), (0.8282999, 0.5154111, 0.21970607), (-0.84719884, -0.47769034, -0.23252119), (-0.96093297, -0.04504333, -0.27309132), (-0.96126527, -0.03857226, -0.27291265), (-0.8462685, -0.48001006, -0.23112799), (0.96090096, 0.045797795, 0.2730786), (0.88025373, -0.3980677, 0.2582547), (0.8875795, -0.38038042, 0.25983337), (0.9593299, 0.08725595, 0.26846308), (-0.96093297, -0.04504333, -0.27309132), (-0.8799617, 0.39876506, -0.2581738), (-0.8850181, 0.38464537, -0.26228014), (-0.96126527, -0.03857226, -0.27291265), (0.88025373, -0.3980677, 0.2582547), (0.6218633, -0.75936764, 0.1914337), (0.6196183, -0.76108027, 0.19191153), (0.8875795, -0.38038042, 0.25983337), (-0.8799617, 0.39876506, -0.2581738), (-0.6215776, 0.7595709, -0.1915551), (-0.65331924, 0.7282831, -0.20682779), (-0.8850181, 0.38464537, -0.26228014), (0.6218633, -0.75936764, 0.1914337), (0.24305089, -0.96602833, 0.08783824), (0.24117364, -0.96655893, 0.08717274), (0.6196183, -0.76108027, 0.19191153), (-0.6215776, 0.7595709, -0.1915551), (-0.24297057, 0.9660191, -0.08816106), (-0.28356177, 0.95275086, -0.10889655), (-0.65331924, 0.7282831, -0.20682779), (-0.06637054, -0.74665695, -0.66189), (-0.38178575, -0.6461675, -0.66083825), (-0.6252799, -0.4185734, -0.6586513), (-0.7428242, -0.1429959, -0.6540371), (-0.7328937, 0.16710903, -0.65950084), (-0.581038, 0.47619778, -0.6600231), (-0.31835204, 0.679438, -0.6610718), (7.796268e-7, 0.74991006, -0.66153973), (0.31835145, 0.67943805, -0.6610721), (0.5810369, 0.47620004, -0.6600223), (0.7367193, 0.13670622, -0.6622357), (0.7170405, -0.23376924, -0.656662), (0.5424029, -0.5213866, -0.6587527), (0.26206207, -0.7031343, -0.6610035), (0.6790551, -0.72705376, 0.10137495), (0.30683228, -0.9505784, 0.04748487), (0.26206207, -0.7031343, -0.6610035), (0.5424029, -0.5213866, -0.6587527), (-0.7280142, 0.6768897, -0.10869981), (-0.36267012, 0.9302151, -0.05630543), (-0.31835204, 0.679438, -0.6610718), (-0.581038, 0.47619778, -0.6600231), (0.30683228, -0.9505784, 0.04748487), (-0.11992257, -0.99270374, -0.012565512), (-0.06637054, -0.74665695, -0.66189), (0.26206207, -0.7031343, -0.6610035), (-0.36267012, 0.9302151, -0.05630543), (0.06419664, 0.9979247, 0.0050043254), (7.796268e-7, 0.74991006, -0.66153973), (-0.31835204, 0.679438, -0.6610718), (0.06419664, 0.9979247, 0.0050043254), (0.47602758, 0.87717074, 0.06300315), (0.31835145, 0.67943805, -0.6610721), (7.796268e-7, 0.74991006, -0.66153973), (-0.11992257, -0.99270374, -0.012565512), (-0.52751875, -0.8468009, -0.06820648), (-0.38178575, -0.6461675, -0.66083825), (-0.06637054, -0.74665695, -0.66189), (0.47602758, 0.87717074, 0.06300315), (0.8015045, 0.5882154, 0.10767165), (0.5810369, 0.47620004, -0.6600223), (0.31835145, 0.67943805, -0.6610721), (-0.52751875, -0.8468009, -0.06820648), (-0.84083366, -0.5298795, -0.11057374), (-0.6252799, -0.4185734, -0.6586513), (-0.38178575, -0.6461675, -0.66083825), (0.8015045, 0.5882154, 0.10767165), (0.9812308, 0.15457913, 0.11528907), (0.7367193, 0.13670622, -0.6622357), (0.5810369, 0.47620004, -0.6600223), (-0.84083366, -0.5298795, -0.11057374), (-0.9852006, -0.14202325, -0.09596427), (-0.7428242, -0.1429959, -0.6540371), (-0.6252799, -0.4185734, -0.6586513), (0.9812308, 0.15457913, 0.11528907), (0.927875, -0.33903554, 0.15525122), (0.7170405, -0.23376924, -0.656662), (0.7367193, 0.13670622, -0.6622357), (-0.9852006, -0.14202325, -0.09596427), (-0.92794245, 0.3307145, -0.17190291), (-0.7328937, 0.16710903, -0.65950084), (-0.7428242, -0.1429959, -0.6540371), (0.927875, -0.33903554, 0.15525122), (0.6790551, -0.72705376, 0.10137495), (0.5424029, -0.5213866, -0.6587527), (0.7170405, -0.23376924, -0.656662), (0.30433387, 0.17914185, -0.9355689), (0.21263957, -0.29366207, -0.93195873), (0.61992663, -0.3502718, -0.70214003), (0.6702741, 0.07774652, -0.7380299), (0.6931938, 0.27291268, -0.66708404), (0.6702741, 0.07774652, -0.7380299), (0.92072326, -0.04917873, -0.38710484), (0.93924654, 0.11258157, -0.3242552), (-0.6922787, -0.2601177, 0.67311877), (-0.6511944, 0.011995785, 0.7588161), (-0.904797, 0.0835955, 0.41755736), (-0.9339727, -0.10966616, 0.34010053), (0.99281174, -0.069738835, 0.09726957), (0.98577577, -0.15484016, 0.065349914), (0.8378053, -0.2029865, 0.5068321), (0.83501124, -0.23278983, 0.49856302), (-0.9954046, 0.06634489, -0.06905206), (-0.98888874, 0.14725956, -0.020338912), (-0.8611494, 0.19928364, -0.46766192), (-0.85178286, 0.23101583, -0.47021016), (0.5108574, -0.344082, 0.78780216), (0.52429396, -0.19041067, 0.82997566), (0.124686345, -0.13677038, 0.9827244), (0.098080724, -0.38706705, 0.9168202), (0.3185734, 0.3755466, -0.8703308), (0.30433387, 0.17914185, -0.9355689), (0.6702741, 0.07774652, -0.7380299), (0.6931938, 0.27291268, -0.66708404), (-0.5327054, 0.34987766, -0.770591), (-0.5407056, 0.23102866, -0.80886537), (-0.11966095, 0.22920352, -0.9659954), (-0.11428795, 0.4014602, -0.9087178), (-0.3262816, -0.35753325, 0.8750487), (-0.28803587, -0.06415957, 0.95546794), (-0.6511944, 0.011995785, 0.7588161), (-0.6922787, -0.2601177, 0.67311877), (0.93924654, 0.11258157, -0.3242552), (0.92072326, -0.04917873, -0.38710484), (0.98577577, -0.15484016, 0.065349914), (0.99281174, -0.069738835, 0.09726957), (-0.9339727, -0.10966616, 0.34010053), (-0.904797, 0.0835955, 0.41755736), (-0.98888874, 0.14725956, -0.020338912), (-0.9954046, 0.06634489, -0.06905206), (0.83501124, -0.23278983, 0.49856302), (0.8378053, -0.2029865, 0.5068321), (0.52429396, -0.19041067, 0.82997566), (0.5108574, -0.344082, 0.78780216), (-0.85178286, 0.23101583, -0.47021016), (-0.8611494, 0.19928364, -0.46766192), (-0.5407056, 0.23102866, -0.80886537), (-0.5327054, 0.34987766, -0.770591), (0.098080724, -0.38706705, 0.9168202), (0.124686345, -0.13677038, 0.9827244), (-0.28803587, -0.06415957, 0.95546794), (-0.3262816, -0.35753325, 0.8750487), (-0.28803587, -0.06415957, 0.95546794), (-0.18723695, 0.38416544, 0.9040792), (-0.5709154, 0.4209111, 0.7049038), (-0.6511944, 0.011995785, 0.7588161), (0.124686345, -0.13677038, 0.9827244), (0.22939809, 0.267463, 0.93586326), (-0.18723695, 0.38416544, 0.9040792), (-0.28803587, -0.06415957, 0.95546794), (-0.11966095, 0.22920352, -0.9659954), (-0.24514163, -0.1844066, -0.9517877), (0.21263957, -0.29366207, -0.93195873), (0.30433387, 0.17914185, -0.9355689), (0.52429396, -0.19041067, 0.82997566), (0.6002589, 0.09648872, 0.7939642), (0.22939809, 0.267463, 0.93586326), (0.124686345, -0.13677038, 0.9827244), (-0.5407056, 0.23102866, -0.80886537), (-0.643, -0.04308242, -0.7646534), (-0.24514163, -0.1844066, -0.9517877), (-0.11966095, 0.22920352, -0.9659954), (0.8378053, -0.2029865, 0.5068321), (0.8600578, -0.08850154, 0.5024621), (0.6002589, 0.09648872, 0.7939642), (0.52429396, -0.19041067, 0.82997566), (-0.8611494, 0.19928364, -0.46766192), (-0.896175, 0.11258553, -0.42917925), (-0.643, -0.04308242, -0.7646534), (-0.5407056, 0.23102866, -0.80886537), (0.98577577, -0.15484016, 0.065349914), (0.96377885, -0.24403904, 0.10758842), (0.8600578, -0.08850154, 0.5024621), (0.8378053, -0.2029865, 0.5068321), (-0.98888874, 0.14725956, -0.020338912), (-0.96492165, 0.26141945, -0.024207678), (-0.896175, 0.11258553, -0.42917925), (-0.8611494, 0.19928364, -0.46766192), (0.92072326, -0.04917873, -0.38710484), (0.88445604, -0.33595046, -0.32384375), (0.96377885, -0.24403904, 0.10758842), (0.98577577, -0.15484016, 0.065349914), (-0.904797, 0.0835955, 0.41755736), (-0.8476985, 0.37411225, 0.37609488), (-0.96492165, 0.26141945, -0.024207678), (-0.98888874, 0.14725956, -0.020338912), (0.6702741, 0.07774652, -0.7380299), (0.61992663, -0.3502718, -0.70214003), (0.88445604, -0.33595046, -0.32384375), (0.92072326, -0.04917873, -0.38710484), (-0.6511944, 0.011995785, 0.7588161), (-0.5709154, 0.4209111, 0.7049038), (-0.8476985, 0.37411225, 0.37609488), (-0.904797, 0.0835955, 0.41755736), (0.21263957, -0.29366207, -0.93195873), (0.054297883, -0.73465645, -0.67626303), (0.46730143, -0.7372609, -0.48793006), (0.61992663, -0.3502718, -0.70214003), (0.61992663, -0.3502718, -0.70214003), (0.46730143, -0.7372609, -0.48793006), (0.78388107, -0.5872459, -0.20167486), (0.88445604, -0.33595046, -0.32384375), (0.88445604, -0.33595046, -0.32384375), (0.78388107, -0.5872459, -0.20167486), (0.9383301, -0.32180852, 0.12639576), (0.96377885, -0.24403904, 0.10758842), (0.96377885, -0.24403904, 0.10758842), (0.9383301, -0.32180852, 0.12639576), (0.90212935, 0.0005260782, 0.43146536), (0.8600578, -0.08850154, 0.5024621), (0.8600578, -0.08850154, 0.5024621), (0.90212935, 0.0005260782, 0.43146536), (0.6879559, 0.31565797, 0.653511), (0.6002589, 0.09648872, 0.7939642), (0.6002589, 0.09648872, 0.7939642), (0.6879559, 0.31565797, 0.653511), (0.34241825, 0.56638944, 0.7496351), (0.22939809, 0.267463, 0.93586326), (0.22939809, 0.267463, 0.93586326), (0.34241825, 0.56638944, 0.7496351), (-0.06635087, 0.70964897, 0.70142424), (-0.18723695, 0.38416544, 0.9040792), (-0.18723695, 0.38416544, 0.9040792), (-0.06635087, 0.70964897, 0.70142424), (-0.46139836, 0.7205137, 0.51765966), (-0.5709154, 0.4209111, 0.7049038), (-0.5709154, 0.4209111, 0.7049038), (-0.46139836, 0.7205137, 0.51765966), (-0.769179, 0.59504527, 0.23299092), (-0.8476985, 0.37411225, 0.37609488), (-0.8476985, 0.37411225, 0.37609488), (-0.769179, 0.59504527, 0.23299092), (-0.93090755, 0.35199222, -0.097533055), (-0.96492165, 0.26141945, -0.024207678), (-0.96492165, 0.26141945, -0.024207678), (-0.93090755, 0.35199222, -0.097533055), (-0.91250134, 0.03307243, -0.4077347), (-0.896175, 0.11258553, -0.42917925), (-0.896175, 0.11258553, -0.42917925), (-0.91250134, 0.03307243, -0.4077347), (-0.7129778, -0.30024263, -0.6336537), (-0.643, -0.04308242, -0.7646534), (-0.643, -0.04308242, -0.7646534), (-0.7129778, -0.30024263, -0.6336537), (-0.36810827, -0.5770809, -0.72902256), (-0.24514163, -0.1844066, -0.9517877), (-0.24514163, -0.1844066, -0.9517877), (-0.36810827, -0.5770809, -0.72902256), (0.054297883, -0.73465645, -0.67626303), (0.21263957, -0.29366207, -0.93195873), (0.96115965, 0.072190106, 0.26638463), (0.980931, 0.14375515, 0.130801), (0.80140966, 0.58848256, 0.10691501), (0.8295626, 0.5147491, 0.21646969), (-0.89616287, 0.35505906, -0.26612997), (-0.95384216, 0.26598108, -0.13942446), (-0.9794892, -0.14687575, -0.13794321), (-0.9596589, -0.06787183, -0.27285165), (0.88424546, -0.38976198, 0.2572849), (0.93054175, -0.34318212, 0.12774228), (0.980931, 0.14375515, 0.130801), (0.96115965, 0.072190106, 0.26638463), (-0.6526434, 0.72819203, -0.20926774), (-0.7282576, 0.6766591, -0.10850516), (-0.95384216, 0.26598108, -0.13942446), (-0.89616287, 0.35505906, -0.26612997), (0.62552637, -0.7556349, 0.19424914), (0.6869283, -0.7198996, 0.0993681), (0.93054175, -0.34318212, 0.12774228), (0.88424546, -0.38976198, 0.2572849), (-0.28524768, 0.9517694, -0.1129987), (-0.36883262, 0.927734, -0.057202015), (-0.7282576, 0.6766591, -0.10850516), (-0.6526434, 0.72819203, -0.20926774), (0.24546129, -0.9650584, 0.09171217), (0.31308317, -0.94832134, 0.051628422), (0.6869283, -0.7198996, 0.0993681), (0.62552637, -0.7556349, 0.19424914), (0.13956206, 0.9901974, 0.005608581), (0.062066384, 0.9980608, 0.00471868), (-0.36883262, 0.927734, -0.057202015), (-0.28524768, 0.9517694, -0.1129987), (-0.18176842, -0.9829038, -0.029332478), (-0.121099725, -0.992609, -0.0078906715), (0.31308317, -0.94832134, 0.051628422), (0.24546129, -0.9650584, 0.09171217), (-0.57214004, -0.80729216, -0.14468946), (-0.53380376, -0.84284574, -0.0682976), (-0.121099725, -0.992609, -0.0078906715), (-0.18176842, -0.9829038, -0.029332478), (0.5377277, 0.8340512, 0.12331878), (0.4792667, 0.87540203, 0.06304463), (0.062066384, 0.9980608, 0.00471868), (0.13956206, 0.9901974, 0.005608581), (-0.84994066, -0.47301176, -0.23207907), (-0.84454346, -0.5226274, -0.116649054), (-0.53380376, -0.84284574, -0.0682976), (-0.57214004, -0.80729216, -0.14468946), (0.8295626, 0.5147491, 0.21646969), (0.80140966, 0.58848256, 0.10691501), (0.4792667, 0.87540203, 0.06304463), (0.5377277, 0.8340512, 0.12331878), (-0.9596589, -0.06787183, -0.27285165), (-0.9794892, -0.14687575, -0.13794321), (-0.84454346, -0.5226274, -0.116649054), (-0.84994066, -0.47301176, -0.23207907), (0.8875795, -0.38038042, 0.25983337), (0.6196183, -0.76108027, 0.19191153), (0.6790551, -0.72705376, 0.10137495), (0.927875, -0.33903554, 0.15525122), (-0.96126527, -0.03857226, -0.27291265), (-0.8850181, 0.38464537, -0.26228014), (-0.92794245, 0.3307145, -0.17190291), (-0.9852006, -0.14202325, -0.09596427), (0.9593299, 0.08725595, 0.26846308), (0.8875795, -0.38038042, 0.25983337), (0.927875, -0.33903554, 0.15525122), (0.9812308, 0.15457913, 0.11528907), (-0.8462685, -0.48001006, -0.23112799), (-0.96126527, -0.03857226, -0.27291265), (-0.9852006, -0.14202325, -0.09596427), (-0.84083366, -0.5298795, -0.11057374), (0.8282999, 0.5154111, 0.21970607), (0.9593299, 0.08725595, 0.26846308), (0.9812308, 0.15457913, 0.11528907), (0.8015045, 0.5882154, 0.10767165), (-0.5653247, -0.8119211, -0.14557476), (-0.8462685, -0.48001006, -0.23112799), (-0.84083366, -0.5298795, -0.11057374), (-0.52751875, -0.8468009, -0.06820648), (0.53472525, 0.83546495, 0.12675625), (0.8282999, 0.5154111, 0.21970607), (0.8015045, 0.5882154, 0.10767165), (0.47602758, 0.87717074, 0.06300315), (-0.17908357, -0.98328894, -0.032742202), (-0.5653247, -0.8119211, -0.14557476), (-0.52751875, -0.8468009, -0.06820648), (-0.11992257, -0.99270374, -0.012565512), (0.13902187, 0.9902424, 0.009640448), (0.53472525, 0.83546495, 0.12675625), (0.47602758, 0.87717074, 0.06300315), (0.06419664, 0.9979247, 0.0050043254), (-0.28356177, 0.95275086, -0.10889655), (0.13902187, 0.9902424, 0.009640448), (0.06419664, 0.9979247, 0.0050043254), (-0.36267012, 0.9302151, -0.05630543), (0.24117364, -0.96655893, 0.08717274), (-0.17908357, -0.98328894, -0.032742202), (-0.11992257, -0.99270374, -0.012565512), (0.30683228, -0.9505784, 0.04748487), (-0.65331924, 0.7282831, -0.20682779), (-0.28356177, 0.95275086, -0.10889655), (-0.36267012, 0.9302151, -0.05630543), (-0.7280142, 0.6768897, -0.10869981), (0.6196183, -0.76108027, 0.19191153), (0.24117364, -0.96655893, 0.08717274), (0.30683228, -0.9505784, 0.04748487), (0.6790551, -0.72705376, 0.10137495), (-0.8850181, 0.38464537, -0.26228014), (-0.65331924, 0.7282831, -0.20682779), (-0.7280142, 0.6768897, -0.10869981), (-0.92794245, 0.3307145, -0.17190291), (-0.5074622, 0.6027994, -0.61572313), (-0.11716505, 0.68668956, -0.71744674), (-0.114637844, 0.13927588, -0.9835956), (-0.52542555, 0.104832456, -0.84435666), (-0.11716505, 0.68668956, -0.71744674), (0.29591337, 0.66726357, -0.6835164), (0.3219271, 0.14269209, -0.93594974), (-0.114637844, 0.13927588, -0.9835956), (-0.8178284, 0.40959558, -0.40421304), (-0.5074622, 0.6027994, -0.61572313), (-0.52542555, 0.104832456, -0.84435666), (-0.8336267, 0.058859516, -0.5491831), (-0.9486026, -0.23507698, 0.21187714), (-0.98741823, 0.112494506, -0.11113104), (-0.988391, 0.0051267757, -0.15184496), (-0.9578763, -0.053654697, 0.2821243), (-0.98741823, 0.112494506, -0.11113104), (-0.8178284, 0.40959558, -0.40421304), (-0.8336267, 0.058859516, -0.5491831), (-0.988391, 0.0051267757, -0.15184496), (-0.3150027, -0.6789384, 0.6631862), (-0.6976472, -0.52251947, 0.4901651), (-0.7323416, -0.10909042, 0.67214215), (-0.345258, -0.14652477, 0.9269991), (-0.6976472, -0.52251947, 0.4901651), (-0.9486026, -0.23507698, 0.21187714), (-0.9578763, -0.053654697, 0.2821243), (-0.7323416, -0.10909042, 0.67214215), (0.11608291, -0.7054133, 0.69922596), (-0.3150027, -0.6789384, 0.6631862), (-0.345258, -0.14652477, 0.9269991), (0.12029979, -0.14410788, 0.98222244), (0.85792506, -0.35741192, 0.3690817), (0.53292096, -0.60102886, 0.5956169), (0.56058294, -0.10450176, 0.821478), (0.87215525, -0.047313776, 0.48693606), (0.53292096, -0.60102886, 0.5956169), (0.11608291, -0.7054133, 0.69922596), (0.12029979, -0.14410788, 0.98222244), (0.56058294, -0.10450176, 0.821478), (0.91527873, 0.3113829, -0.25554922), (0.9979733, -0.017201178, 0.06126482), (0.99777734, 0.013394367, 0.0652753), (0.93130165, 0.067379676, -0.35796273), (0.9979733, -0.017201178, 0.06126482), (0.85792506, -0.35741192, 0.3690817), (0.87215525, -0.047313776, 0.48693606), (0.99777734, 0.013394367, 0.0652753), (0.659944, 0.54499245, -0.5171627), (0.91527873, 0.3113829, -0.25554922), (0.93130165, 0.067379676, -0.35796273), (0.69322, 0.1117394, -0.7120116), (0.3300525, 0.16662419, -0.9291403), (0.3219271, 0.14269209, -0.93594974), (0.69322, 0.1117394, -0.7120116), (0.715856, 0.1239641, -0.6871557), (0.715856, 0.1239641, -0.6871557), (0.69322, 0.1117394, -0.7120116), (0.93130165, 0.067379676, -0.35796273), (0.95477635, 0.05427078, -0.29232997), (0.95477635, 0.05427078, -0.29232997), (0.93130165, 0.067379676, -0.35796273), (0.99777734, 0.013394367, 0.0652753), (0.98790854, -0.018318895, 0.15395147), (0.98790854, -0.018318895, 0.15395147), (0.99777734, 0.013394367, 0.0652753), (0.87215525, -0.047313776, 0.48693606), (0.82919395, -0.07470404, 0.55394644), (0.82919395, -0.07470404, 0.55394644), (0.87215525, -0.047313776, 0.48693606), (0.56058294, -0.10450176, 0.821478), (0.5232163, -0.11537517, 0.8443538), (0.5232163, -0.11537517, 0.8443538), (0.56058294, -0.10450176, 0.821478), (0.12029979, -0.14410788, 0.98222244), (0.119418375, -0.1451736, 0.982173), (0.119418375, -0.1451736, 0.982173), (0.12029979, -0.14410788, 0.98222244), (-0.345258, -0.14652477, 0.9269991), (-0.3130851, -0.14843802, 0.93805325), (-0.3130851, -0.14843802, 0.93805325), (-0.345258, -0.14652477, 0.9269991), (-0.7323416, -0.10909042, 0.67214215), (-0.6846258, -0.11993759, 0.71895933), (-0.6846258, -0.11993759, 0.71895933), (-0.7323416, -0.10909042, 0.67214215), (-0.9578763, -0.053654697, 0.2821243), (-0.92694557, -0.07528738, 0.36756447), (-0.92694557, -0.07528738, 0.36756447), (-0.9578763, -0.053654697, 0.2821243), (-0.988391, 0.0051267757, -0.15184496), (-0.9979682, -0.012128214, -0.062549874), (-0.9979682, -0.012128214, -0.062549874), (-0.988391, 0.0051267757, -0.15184496), (-0.8336267, 0.058859516, -0.5491831), (-0.86615956, 0.06335579, -0.49573556), (-0.86615956, 0.06335579, -0.49573556), (-0.8336267, 0.058859516, -0.5491831), (-0.52542555, 0.104832456, -0.84435666), (-0.54338557, 0.12864782, -0.82956725), (-0.54338557, 0.12864782, -0.82956725), (-0.52542555, 0.104832456, -0.84435666), (-0.114637844, 0.13927588, -0.9835956), (-0.11170926, 0.16681033, -0.9796405), (-0.11170926, 0.16681033, -0.9796405), (-0.114637844, 0.13927588, -0.9835956), (0.3219271, 0.14269209, -0.93594974), (0.3300525, 0.16662419, -0.9291403), (-0.11716505, 0.68668956, -0.71744674), (-0.12055686, 0.71457565, -0.68909186), (0.3217543, 0.6852741, -0.65335566), (0.29591337, 0.66726357, -0.6835164), (-0.5074622, 0.6027994, -0.61572313), (-0.5403116, 0.6081809, -0.581532), (-0.12055686, 0.71457565, -0.68909186), (-0.11716505, 0.68668956, -0.71744674), (-0.8178284, 0.40959558, -0.40421304), (-0.8598072, 0.3640576, -0.35804138), (-0.5403116, 0.6081809, -0.581532), (-0.5074622, 0.6027994, -0.61572313), (-0.98741823, 0.112494506, -0.11113104), (-0.99790835, 0.024138775, -0.059969537), (-0.8598072, 0.3640576, -0.35804138), (-0.8178284, 0.40959558, -0.40421304), (-0.9486026, -0.23507698, 0.21187714), (-0.9185458, -0.3072465, 0.24874343), (-0.99790835, 0.024138775, -0.059969537), (-0.98741823, 0.112494506, -0.11113104), (-0.6976472, -0.52251947, 0.4901651), (-0.66571426, -0.5468035, 0.50777), (-0.9185458, -0.3072465, 0.24874343), (-0.9486026, -0.23507698, 0.21187714), (-0.3150027, -0.6789384, 0.6631862), (-0.30171943, -0.67474633, 0.6735597), (-0.66571426, -0.5468035, 0.50777), (-0.6976472, -0.52251947, 0.4901651), (0.11608291, -0.7054133, 0.69922596), (0.11265227, -0.69757694, 0.7075987), (-0.30171943, -0.67474633, 0.6735597), (-0.3150027, -0.6789384, 0.6631862), (0.53292096, -0.60102886, 0.5956169), (0.5069131, -0.6134793, 0.60554284), (0.11265227, -0.69757694, 0.7075987), (0.11608291, -0.7054133, 0.69922596), (0.85792506, -0.35741192, 0.3690817), (0.8187663, -0.4173865, 0.39422098), (0.5069131, -0.6134793, 0.60554284), (0.53292096, -0.60102886, 0.5956169), (0.9979733, -0.017201178, 0.06126482), (0.9872016, -0.118123695, 0.10714407), (0.8187663, -0.4173865, 0.39422098), (0.85792506, -0.35741192, 0.3690817), (0.91527873, 0.3113829, -0.25554922), (0.95095336, 0.23086275, -0.20588866), (0.9872016, -0.118123695, 0.10714407), (0.9979733, -0.017201178, 0.06126482), (0.659944, 0.54499245, -0.5171627), (0.7060514, 0.522074, -0.47846648), (0.95095336, 0.23086275, -0.20588866), (0.91527873, 0.3113829, -0.25554922), (0.29591337, 0.66726357, -0.6835164), (0.3217543, 0.6852741, -0.65335566), (0.7060514, 0.522074, -0.47846648), (0.659944, 0.54499245, -0.5171627), (0.33258995, 0.44661415, -0.83061403), (0.3217543, 0.6852741, -0.65335566), (-0.12055686, 0.71457565, -0.68909186), (-0.114478916, 0.46493834, -0.87791055), (0.94903743, 0.15913138, -0.27203885), (0.95095336, 0.23086275, -0.20588866), (0.7060514, 0.522074, -0.47846648), (0.7129941, 0.3375866, -0.6145524), (0.834673, -0.24858071, 0.49145553), (0.8187663, -0.4173865, 0.39422098), (0.9872016, -0.118123695, 0.10714407), (0.99096894, -0.05082838, 0.124084994), (0.10817179, -0.4655323, 0.87839544), (0.11265227, -0.69757694, 0.7075987), (0.5069131, -0.6134793, 0.60554284), (0.517754, -0.39553097, 0.758608), (0.99096894, -0.05082838, 0.124084994), (0.9872016, -0.118123695, 0.10714407), (0.95095336, 0.23086275, -0.20588866), (0.94903743, 0.15913138, -0.27203885), (0.517754, -0.39553097, 0.758608), (0.5069131, -0.6134793, 0.60554284), (0.8187663, -0.4173865, 0.39422098), (0.834673, -0.24858071, 0.49145553), (-0.5412974, 0.38823792, -0.74583405), (-0.5403116, 0.6081809, -0.581532), (-0.8598072, 0.3640576, -0.35804138), (-0.8578132, 0.23099884, -0.4591253), (-0.114478916, 0.46493834, -0.87791055), (-0.12055686, 0.71457565, -0.68909186), (-0.5403116, 0.6081809, -0.581532), (-0.5412974, 0.38823792, -0.74583405), (-0.99643797, 0.02720064, -0.07982195), (-0.99790835, 0.024138775, -0.059969537), (-0.9185458, -0.3072465, 0.24874343), (-0.9330108, -0.17999603, 0.31159636), (0.7129941, 0.3375866, -0.6145524), (0.7060514, 0.522074, -0.47846648), (0.3217543, 0.6852741, -0.65335566), (0.33258995, 0.44661415, -0.83061403), (-0.3169337, -0.44915456, 0.8353521), (-0.30171943, -0.67474633, 0.6735597), (0.11265227, -0.69757694, 0.7075987), (0.10817179, -0.4655323, 0.87839544), (-0.9330108, -0.17999603, 0.31159636), (-0.9185458, -0.3072465, 0.24874343), (-0.66571426, -0.5468035, 0.50777), (-0.68766236, -0.34910515, 0.6365894), (-0.8578132, 0.23099884, -0.4591253), (-0.8598072, 0.3640576, -0.35804138), (-0.99790835, 0.024138775, -0.059969537), (-0.99643797, 0.02720064, -0.07982195), (-0.68766236, -0.34910515, 0.6365894), (-0.66571426, -0.5468035, 0.50777), (-0.30171943, -0.67474633, 0.6735597), (-0.3169337, -0.44915456, 0.8353521), (0.29591337, 0.66726357, -0.6835164), (0.659944, 0.54499245, -0.5171627), (0.69322, 0.1117394, -0.7120116), (0.3219271, 0.14269209, -0.93594974), (-0.86615956, 0.06335579, -0.49573556), (-0.54338557, 0.12864782, -0.82956725), (-0.43941444, 0.41821295, -0.79499245), (-0.7752654, 0.2878239, -0.5622463), (-0.11170926, 0.16681033, -0.9796405), (0.3300525, 0.16662419, -0.9291403), (0.25847036, 0.45905527, -0.8499773), (-0.08364129, 0.46932825, -0.87905353), (-0.54338557, 0.12864782, -0.82956725), (-0.11170926, 0.16681033, -0.9796405), (-0.08364129, 0.46932825, -0.87905353), (-0.43941444, 0.41821295, -0.79499245), (0.119418375, -0.1451736, 0.982173), (-0.3130851, -0.14843802, 0.93805325), (-0.31795713, -0.44689375, 0.83617544), (0.13092081, -0.46148154, 0.87743634), (0.5232163, -0.11537517, 0.8443538), (0.119418375, -0.1451736, 0.982173), (0.13092081, -0.46148154, 0.87743634), (0.5454361, -0.38493723, 0.74452865), (-0.92694557, -0.07528738, 0.36756447), (-0.9979682, -0.012128214, -0.062549874), (-0.98044336, 0.08031138, -0.17966904), (-0.95374715, -0.15227236, 0.25919038), (0.98790854, -0.018318895, 0.15395147), (0.82919395, -0.07470404, 0.55394644), (0.86229, -0.22626133, 0.4530582), (0.99943113, -0.0020318206, 0.033665664), (-0.3130851, -0.14843802, 0.93805325), (-0.6846258, -0.11993759, 0.71895933), (-0.7067042, -0.33947933, 0.62074393), (-0.31795713, -0.44689375, 0.83617544), (0.715856, 0.1239641, -0.6871557), (0.95477635, 0.05427078, -0.29232997), (0.8894089, 0.22584835, -0.39742216), (0.5984197, 0.38493237, -0.7026528), (0.3300525, 0.16662419, -0.9291403), (0.715856, 0.1239641, -0.6871557), (0.5984197, 0.38493237, -0.7026528), (0.25847036, 0.45905527, -0.8499773), (0.82919395, -0.07470404, 0.55394644), (0.5232163, -0.11537517, 0.8443538), (0.5454361, -0.38493723, 0.74452865), (0.86229, -0.22626133, 0.4530582), (-0.9979682, -0.012128214, -0.062549874), (-0.86615956, 0.06335579, -0.49573556), (-0.7752654, 0.2878239, -0.5622463), (-0.98044336, 0.08031138, -0.17966904), (0.95477635, 0.05427078, -0.29232997), (0.98790854, -0.018318895, 0.15395147), (0.99943113, -0.0020318206, 0.033665664), (0.8894089, 0.22584835, -0.39742216), (-0.6846258, -0.11993759, 0.71895933), (-0.92694557, -0.07528738, 0.36756447), (-0.95374715, -0.15227236, 0.25919038), (-0.7067042, -0.33947933, 0.62074393)] (
                interpolation = "faceVarying"
            )
            point3f[] points = [(-0.12400497, -1.8325496, 0.7828468), (-0.18572143, -0.20847964, 1.6352608), (-0.1375754, -1.8318522, 0.7815206), (-0.19929187, -0.20778215, 1.6339346), (-0.15044473, -1.8347204, 0.7850638), (-0.21216132, -0.21065038, 1.6374778), (-0.160064, -1.8405864, 0.79277486), (-0.22178058, -0.21651661, 1.6451888), (-0.1645281, -1.8482887, 0.8031262), (-0.22624469, -0.2242189, 1.6555401), (-0.1629528, -1.8563013, 0.8140678), (-0.22466938, -0.23223144, 1.6664817), (-0.1556501, -1.8630373, 0.82343245), (-0.21736668, -0.23896742, 1.6758465), (-0.14406642, -1.867163, 0.82936555), (-0.20578289, -0.24309301, 1.6817796), (-0.13049598, -1.8678604, 0.83069175), (-0.19221245, -0.24379069, 1.6831057), (-0.11762653, -1.8649921, 0.8271483), (-0.17934312, -0.2409221, 1.6795621), (-0.108007155, -1.859126, 0.81943756), (-0.16972373, -0.23505604, 1.6718515), (-0.10354305, -1.8514237, 0.80908614), (-0.16525963, -0.22735387, 1.6615002), (-0.10511846, -1.843411, 0.7981445), (-0.16683494, -0.21934092, 1.6505582), (-0.11242118, -1.8366749, 0.7887798), (-0.17413776, -0.21260488, 1.6411936), (-0.11935958, -1.8534911, 0.7528374), (-0.13282774, -1.8536271, 0.750603), (-0.1454107, -1.8588307, 0.75160176), (-0.15461592, -1.8680716, 0.7556355), (-0.15862034, -1.8795195, 0.7619058), (-0.15663089, -1.8909067, 0.76917034), (-0.14904158, -1.8999784, 0.77599025), (-0.1373555, -1.9049369, 0.7810154), (-0.12388735, -1.9048012, 0.78324944), (-0.111304626, -1.8995974, 0.7822509), (-0.102099285, -1.8903567, 0.778217), (-0.09809486, -1.8789088, 0.77194685), (-0.10008432, -1.8675214, 0.7646824), (-0.10767351, -1.85845, 0.75786227), (-0.110101, -1.8641207, 0.71369284), (-0.12339479, -1.8646085, 0.71062005), (-0.1354887, -1.8707986, 0.70926976), (-0.14398754, -1.8814647, 0.70990914), (-0.147208, -1.894494, 0.71241164), (-0.1445123, -1.9073064, 0.7162819), (-0.13643415, -1.917364, 0.7207528), (-0.124573715, -1.9226749, 0.7249394), (-0.11127993, -1.9221871, 0.7280121), (-0.09918591, -1.915997, 0.7293626), (-0.09068706, -1.9053311, 0.72872305), (-0.0874666, -1.8923018, 0.7262206), (-0.090162314, -1.8794892, 0.7223505), (-0.09824056, -1.8694315, 0.7178795), (-0.09927063, -1.8650361, 0.67555624), (-0.11233188, -1.8656085, 0.6716213), (-0.123774186, -1.8720345, 0.66785616), (-0.13133131, -1.8830425, 0.6650055), (-0.13350673, -1.8964508, 0.6636346), (-0.1298693, -1.9096049, 0.6640151), (-0.12113956, -1.9198987, 0.6660708), (-0.109046474, -1.9252942, 0.6693957), (-0.09598534, -1.924722, 0.67333), (-0.084542915, -1.9182957, 0.67709565), (-0.07698567, -1.9072881, 0.6799459), (-0.07481037, -1.8938795, 0.68131685), (-0.078447804, -1.8807254, 0.6809367), (-0.08717766, -1.8704314, 0.67888075), (-0.07971333, -1.8680029, 0.60581625), (-0.092824325, -1.8684888, 0.60211164), (-0.104406476, -1.8746736, 0.5989912), (-0.112165704, -1.8853321, 0.5970728), (-0.11456534, -1.8983536, 0.5967365), (-0.1111299, -1.9111583, 0.59804845), (-0.10254013, -1.9212108, 0.6007495), (-0.09049689, -1.9265196, 0.6043045), (-0.0773859, -1.9260337, 0.60800886), (-0.06580363, -1.919849, 0.61112916), (-0.0580444, -1.9091907, 0.61304784), (-0.05564476, -1.8961692, 0.6133841), (-0.059080206, -1.8833642, 0.61207193), (-0.06767009, -1.8733118, 0.609371), (-0.0016139763, -1.875278, 0.0029671192), (-0.014924615, -1.8782251, 0.0029671192), (-0.02559887, -1.8864832, 0.0029672384), (-0.031522594, -1.8984163, 0.0029671788), (-0.031522594, -1.9116613, 0.0029671788), (-0.02559887, -1.9235942, 0.0029671788), (-0.014924615, -1.9318522, 0.0029671788), (-0.0016139763, -1.9347994, 0.0029671788), (0.011696662, -1.9318522, 0.0029671788), (0.022371035, -1.9235942, 0.0029671788), (0.028294818, -1.9116613, 0.0029671788), (0.028294818, -1.8984163, 0.0029671788), (0.022371035, -1.8864832, 0.0029672384), (0.011696662, -1.8782251, 0.0029671192), (-0.16825986, -0.13098425, 1.6262414), (-0.18117575, -0.12673461, 1.6250072), (-0.19221105, -0.11965078, 1.6288072), (-0.19918023, -0.11113572, 1.63689), (-0.20070274, -0.10287565, 1.6476539), (-0.19647726, -0.09650749, 1.6589668), (-0.18734062, -0.09329122, 1.6685886), (-0.1751023, -0.09386456, 1.6746137), (-0.16218638, -0.09811437, 1.6758478), (-0.15115099, -0.105198264, 1.6720476), (-0.1441818, -0.11371291, 1.6639652), (-0.14265929, -0.12197286, 1.6532013), (-0.14688477, -0.12834156, 1.6418881), (-0.15602154, -0.13155782, 1.6322663), (-0.15618326, -0.11160058, 1.5972741), (-0.16869836, -0.106564164, 1.595173), (-0.17861076, -0.09727645, 1.5965462), (-0.1839569, -0.08557618, 1.6011211), (-0.18367815, -0.07378119, 1.6079918), (-0.17782985, -0.06422776, 1.6157975), (-0.16756986, -0.05880773, 1.6229922), (-0.15493073, -0.058594823, 1.6281508), (-0.14241563, -0.06363076, 1.6302516), (-0.13250346, -0.07291871, 1.6288784), (-0.12715708, -0.08461857, 1.6243036), (-0.12743585, -0.09641355, 1.6174328), (-0.13328438, -0.10596722, 1.609627), (-0.14354412, -0.11138737, 1.6024323), (-0.14338566, -0.1030252, 1.5586257), (-0.15560468, -0.097681105, 1.5557038), (-0.16468726, -0.08752966, 1.5547755), (-0.16883457, -0.07458204, 1.556025), (-0.16722511, -0.06140262, 1.5592048), (-0.16017786, -0.050601125, 1.5636852), (-0.14908828, -0.044317544, 1.5685782), (-0.13615318, -0.04379666, 1.5729156), (-0.123934165, -0.049140632, 1.5758376), (-0.114851475, -0.059292078, 1.576766), (-0.110704154, -0.072239876, 1.5755162), (-0.11231351, -0.0854193, 1.5723363), (-0.11936087, -0.09622061, 1.5678562), (-0.13045046, -0.102504134, 1.562963), (-0.13258924, -0.1041249, 1.5204842), (-0.1445529, -0.09874141, 1.5167035), (-0.1529202, -0.08848113, 1.5133691), (-0.15603381, -0.075375736, 1.5111413), (-0.15327725, -0.062021255, 1.510462), (-0.1451963, -0.051062644, 1.5114658), (-0.13339145, -0.044669807, 1.5139525), (-0.120201126, -0.04411, 1.5174311), (-0.10823723, -0.049493015, 1.5212116), (-0.09986992, -0.05975312, 1.5245461), (-0.09675619, -0.07285833, 1.5267735), (-0.099512875, -0.086212814, 1.5274528), (-0.10759382, -0.0971719, 1.52645), (-0.11939867, -0.10356414, 1.5239625), (-0.112617075, -0.1048401, 1.4508024), (-0.1246602, -0.09953141, 1.4472476), (-0.13325009, -0.08947837, 1.4445465), (-0.13668542, -0.07667357, 1.4432344), (-0.1342859, -0.06365228, 1.4435709), (-0.12652665, -0.052993834, 1.4454893), (-0.11494451, -0.046809256, 1.4486098), (-0.1018334, -0.04632342, 1.4523145), (-0.089790285, -0.051632226, 1.4558692), (-0.08120027, -0.061684787, 1.4585701), (-0.07776483, -0.07448977, 1.4598824), (-0.08016447, -0.08751106, 1.4595459), (-0.087923706, -0.09816933, 1.4576273), (-0.09950597, -0.1043545, 1.454507), (-0.0016139763, -0.11518043, 0.89159447), (-0.014924615, -0.11223325, 0.89159447), (-0.02559887, -0.10397503, 0.89159447), (-0.031522594, -0.09204203, 0.8915945), (-0.031522594, -0.0787971, 0.8915945), (-0.02559887, -0.06686407, 0.8915945), (-0.014924615, -0.05860594, 0.89159465), (-0.0016139763, -0.055658966, 0.8915945), (0.011696662, -0.05860594, 0.89159465), (0.022371035, -0.06686407, 0.8915945), (0.028294818, -0.0787971, 0.8915945), (0.028294818, -0.09204203, 0.8915945), (0.022371035, -0.10397503, 0.89159447), (0.011696662, -0.11223325, 0.89159447), (-0.19758785, -0.18814999, 1.6410731), (-0.18424292, -0.190943, 1.6417882), (-0.20982523, -0.1851452, 1.6463286), (-0.21853144, -0.18252498, 1.6565138), (-0.22198209, -0.18080765, 1.6696115), (-0.21949364, -0.18033409, 1.6830275), (-0.21155898, -0.18119735, 1.6941044), (-0.1997498, -0.18322653, 1.7006485), (-0.18640487, -0.18602055, 1.7013636), (-0.17416736, -0.18902457, 1.6961081), (-0.16546115, -0.1916449, 1.6859227), (-0.1620105, -0.19336212, 1.6728253), (-0.16449896, -0.19383615, 1.6594094), (-0.17243361, -0.19297272, 1.6483321), (-0.19168746, -0.15287566, 1.6440635), (-0.17868835, -0.15690404, 1.6451563), (-0.20295598, -0.14640975, 1.6482612), (-0.21026197, -0.13878804, 1.6569176), (-0.21215852, -0.13151938, 1.6683183), (-0.20826982, -0.12604445, 1.6802055), (-0.1993663, -0.12344664, 1.6902245), (-0.18721119, -0.1242407, 1.6963909), (-0.17421207, -0.12826961, 1.6974833), (-0.16294356, -0.13473493, 1.693286), (-0.15563744, -0.1423567, 1.6846296), (-0.15374103, -0.14962536, 1.6732289), (-0.1576296, -0.15510076, 1.661342), (-0.16653323, -0.15769869, 1.6513228), (-0.027443098, -1.9189539, 0.3096379), (-0.030878363, -1.9061489, 0.30963778), (0.011696662, -1.878225, 0.3096379), (0.022371035, -1.8864834, 0.30963784), (-0.018853206, -1.9290063, 0.3096379), (-0.0018054323, -1.8749855, 0.30941248), (-0.00680997, -1.9343154, 0.30963784), (0.0063010203, -1.9338293, 0.30963778), (-0.014924615, -1.878225, 0.3096379), (0.017883288, -1.9276445, 0.30963784), (-0.02559887, -1.8864834, 0.30963784), (0.025642522, -1.916986, 0.30963784), (-0.031522594, -1.8984165, 0.30963778), (0.028294818, -1.8984165, 0.30963778), (-0.02559887, -0.066863894, 1.0797822), (-0.031522594, -0.07879692, 1.0797822), (0.0059096823, -0.11417404, 1.0827031), (0.01749195, -0.10798913, 1.0858237), (-0.014924615, -0.05860594, 1.0797822), (-0.007201425, -0.114660114, 1.0789986), (-0.0016139763, -0.055658787, 1.0797822), (0.011696662, -0.05860594, 1.0797822), (-0.019244544, -0.10935107, 1.0754437), (0.022371035, -0.066863894, 1.0797822), (-0.027834436, -0.09929824, 1.0727429), (0.028294818, -0.07879692, 1.0797822), (-0.03126982, -0.08649331, 1.0714307), (0.025251184, -0.09733063, 1.087742), (-0.07113046, -1.678057, 0.5872856), (-0.07301787, -1.5399668, 0.56197256), (-0.06578526, -1.6782563, 0.63318497), (-0.06770099, -1.5422089, 0.60782135), (-0.03325553, -1.676776, 0.60038143), (-0.035126556, -1.5407462, 0.575061), (-0.081592664, -1.6773602, 0.617494), (-0.08346369, -1.5427287, 0.59206843), (-0.035671785, -1.6764172, 0.62249696), (-0.03753883, -1.542445, 0.5971147), (-0.07918039, -1.6774709, 0.59537554), (-0.08104744, -1.5412763, 0.5699977), (-0.05444547, -1.6779313, 0.63441944), (-0.05635699, -1.5422304, 0.6090611), (-0.03934748, -1.6776912, 0.5907512), (-0.041241445, -1.5394855, 0.56548446), (-0.06036235, -1.6786628, 0.58348656), (-0.062273867, -1.5387921, 0.5582392), (-0.07547778, -1.677834, 0.62714154), (-0.07737174, -1.5426047, 0.6017415), (-0.031943776, -1.6763065, 0.6117111), (-0.033804737, -1.5418185, 0.58634853), (-0.08291449, -1.6772152, 0.60615677), (-0.08477545, -1.542269, 0.58073837), (-0.04370135, -1.6770662, 0.6306023), (-0.045588758, -1.5425239, 0.60522527), (-0.05093408, -1.5385695, 0.5594961), (-0.04901835, -1.6785829, 0.58472407), (-0.095223844, -0.3310212, 1.256636), (-0.09331232, -0.39750433, 1.125127), (-0.11032183, -0.3524925, 1.294662), (-0.10842787, -0.4180353, 1.163662), (-0.06675471, -0.3454075, 1.2809739), (-0.06489375, -0.40918827, 1.1509273), (-0.117725305, -0.34349692, 1.2756796), (-0.115864344, -0.407278, 1.145633), (-0.07853873, -0.35386053, 1.2978668), (-0.07665132, -0.4190499, 1.1670583), (-0.0819682, -0.39803678, 1.1262469), (-0.08388393, -0.33133873, 1.2578721), (-0.10596796, -0.33363548, 1.2595487), (-0.10408055, -0.39882484, 1.12874), (-0.10065108, -0.35464832, 1.30036), (-0.09873535, -0.42134658, 1.1687349), (-0.0680763, -0.33976132, 1.2711413), (-0.06620527, -0.40408254, 1.1408024), (-0.11641378, -0.34860295, 1.2858045), (-0.11454276, -0.41292387, 1.1554656), (-0.0704888, -0.3504332, 1.2905155), (-0.068621755, -0.4145365, 1.1602945), (-0.113997295, -0.33814877, 1.2663126), (-0.11213025, -0.4022523, 1.1360915), (-0.08930696, -0.35518095, 1.3014798), (-0.087395445, -0.42166412, 1.169971), (-0.07419142, -0.33464998, 1.2629452), (-0.072297454, -0.40019268, 1.1319453), (-0.07465754, -0.07834846, 1.4352146), (-0.087927915, -0.06590915, 1.3989692), (-0.12184722, -0.07391274, 1.4190252), (-0.1048486, -0.08102077, 1.445894), (-0.11808422, -0.07043469, 1.4086461), (-0.114504255, -0.079672396, 1.4397589), (-0.082730636, -0.08053976, 1.4432348), (-0.12056976, -0.077200055, 1.4301345), (-0.09350823, -0.08136183, 1.4471173), (-0.07217469, -0.07142764, 1.41381), (-0.11002587, -0.06746787, 1.4010451), (-0.078256816, -0.06808251, 1.4046581), (-0.07089009, -0.0751006, 1.4247106), (-0.09926537, -0.06572163, 1.3976628), (-0.06769479, -1.8941809, 0.47170395), (-0.056919303, -1.8947442, 0.46773607), (-0.062463336, -1.8931663, 0.5196058), (-0.0721397, -1.8929949, 0.5133018), (-0.029847825, -1.8928618, 0.48537618), (-0.028562225, -1.8922126, 0.49719882), (-0.078229316, -1.8928757, 0.5032369), (-0.07952281, -1.8930527, 0.49140608), (-0.03231709, -1.8920238, 0.50845075), (-0.040368658, -1.892317, 0.5169062), (-0.03591918, -1.893811, 0.47532296), (-0.051125184, -1.8928852, 0.5208911), (-0.07576285, -1.8935239, 0.48015207), (-0.045578226, -1.8946509, 0.46902877)]
            texCoord2f[] primvars:st = [(0.03565524, 0.7197846), (0.45749044, 0.7197846), (0.03565524, 0.50886714), (0.45749044, 0.508867), (0.06578638, 0.7197846), (0.06578638, 0.50886714), (0.09591751, 0.7197846), (0.09591751, 0.508867), (0.1260486, 0.7197846), (0.1260486, 0.508867), (0.15617973, 0.7197846), (0.1561796, 0.508867), (0.18631071, 0.7197846), (0.18631071, 0.508867), (0.21644187, 0.7197846), (0.21644187, 0.508867), (0.24657285, 0.7197846), (0.24657285, 0.508867), (0.27670398, 0.7197846), (0.27670398, 0.508867), (0.3068351, 0.7197846), (0.3068351, 0.508867), (0.33696622, 0.7197846), (0.33696622, 0.508867), (0.3670972, 0.7197846), (0.3670972, 0.508867), (0.39722833, 0.7197846), (0.39722833, 0.508867), (0.42735934, 0.7197846), (0.42735934, 0.508867), (0.45749044, 0.7197846), (0.03565524, 0.7197846), (0.06578638, 0.7197846), (0.09591751, 0.7197846), (0.1260486, 0.7197846), (0.15617973, 0.7197846), (0.18631071, 0.7197846), (0.21644187, 0.7197846), (0.24657285, 0.7197846), (0.27670398, 0.7197846), (0.3068351, 0.7197846), (0.33696622, 0.7197846), (0.3670972, 0.7197846), (0.39722833, 0.7197846), (0.42735934, 0.7197846), (0.45749044, 0.7197846), (0.03565524, 0.7197846), (0.06578638, 0.7197846), (0.09591751, 0.7197846), (0.1260486, 0.7197846), (0.15617973, 0.7197846), (0.18631071, 0.7197846), (0.21644187, 0.7197846), (0.24657285, 0.7197846), (0.27670398, 0.7197846), (0.3068351, 0.7197846), (0.33696622, 0.7197846), (0.3670972, 0.7197846), (0.39722833, 0.7197846), (0.42735934, 0.7197846), (0.45749044, 0.7197846), (0.03565524, 0.7197846), (0.06578638, 0.7197846), (0.09591751, 0.7197846), (0.1260486, 0.7197846), (0.15617973, 0.7197846), (0.18631071, 0.7197846), (0.21644187, 0.7197846), (0.24657285, 0.7197846), (0.27670398, 0.7197846), (0.3068351, 0.7197846), (0.33696622, 0.7197846), (0.3670972, 0.7197846), (0.39722833, 0.7197846), (0.42735934, 0.7197846), (0.03565524, 0.7197846), (0.45749044, 0.7197846), (0.06578638, 0.7197846), (0.09591751, 0.7197846), (0.1260486, 0.7197846), (0.15617973, 0.7197846), (0.18631071, 0.7197846), (0.21644187, 0.7197846), (0.24657285, 0.7197846), (0.27670398, 0.7197846), (0.3068351, 0.7197846), (0.33696622, 0.7197846), (0.3670972, 0.7197846), (0.39722833, 0.7197846), (0.42735934, 0.7197846), (0.7276754, 0.6529894), (0.45749044, 0.7197846), (0.03565524, 0.7197846), (0.73770136, 0.60906297), (0.06578638, 0.7197846), (0.7276754, 0.5651363), (0.09591751, 0.7197846), (0.6995835, 0.52991), (0.1260486, 0.7197846), (0.65898925, 0.5103608), (0.15617973, 0.7197846), (0.61393285, 0.5103608), (0.18631071, 0.7197846), (0.57333857, 0.52991), (0.21644187, 0.7197846), (0.5452464, 0.5651364), (0.24657285, 0.7197846), (0.53522056, 0.60906297), (0.27670398, 0.7197846), (0.5452464, 0.6529896), (0.3068351, 0.7197846), (0.57333857, 0.6882158), (0.33696622, 0.7197846), (0.61393285, 0.707765), (0.3670972, 0.7197846), (0.65898925, 0.707765), (0.39722833, 0.7197846), (0.6995835, 0.6882158), (0.42735934, 0.7197846), (0.45749044, 0.7197846), (0.03565524, 0.7197846), (0.06578638, 0.7197846), (0.09591751, 0.7197846), (0.1260486, 0.7197846), (0.15617973, 0.7197846), (0.18631071, 0.7197846), (0.21644187, 0.7197846), (0.24657285, 0.7197846), (0.27670398, 0.7197846), (0.3068351, 0.7197846), (0.33696622, 0.7197846), (0.3670972, 0.7197846), (0.39722833, 0.7197846), (0.42735934, 0.7197846), (0.45749044, 0.7197846), (0.03565524, 0.7197846), (0.06578638, 0.7197846), (0.09591751, 0.7197846), (0.1260486, 0.7197846), (0.15617973, 0.7197846), (0.18631071, 0.7197846), (0.21644187, 0.7197846), (0.24657285, 0.7197846), (0.27670398, 0.7197846), (0.3068351, 0.7197846), (0.33696622, 0.7197846), (0.3670972, 0.7197846), (0.39722833, 0.7197846), (0.42735934, 0.7197846), (0.45749044, 0.7197846), (0.03565524, 0.7197846), (0.06578638, 0.7197846), (0.09591751, 0.7197846), (0.1260486, 0.7197846), (0.15617973, 0.7197846), (0.18631071, 0.7197846), (0.21644187, 0.7197846), (0.24657285, 0.7197846), (0.27670398, 0.7197846), (0.3068351, 0.7197846), (0.33696622, 0.7197846), (0.3670972, 0.7197846), (0.39722833, 0.7197846), (0.42735934, 0.7197846), (0.45749044, 0.7197846), (0.03565524, 0.7197846), (0.06578638, 0.7197846), (0.09591751, 0.7197846), (0.1260486, 0.7197846), (0.15617973, 0.7197846), (0.18631071, 0.7197846), (0.21644187, 0.7197846), (0.24657285, 0.7197846), (0.27670398, 0.7197846), (0.3068351, 0.7197846), (0.33696622, 0.7197846), (0.3670972, 0.7197846), (0.39722833, 0.7197846), (0.42735934, 0.7197846), (0.03565524, 0.7197846), (0.45749044, 0.7197846), (0.06578638, 0.7197846), (0.09591751, 0.7197846), (0.1260486, 0.7197846), (0.15617973, 0.7197846), (0.18631071, 0.7197846), (0.21644187, 0.7197846), (0.24657285, 0.7197846), (0.27670398, 0.7197846), (0.3068351, 0.7197846), (0.33696622, 0.7197846), (0.3670972, 0.7197846), (0.39722833, 0.7197846), (0.42735934, 0.7197846), (0.93015635, 0.6529894), (0.45749044, 0.7197846), (0.03565524, 0.7197846), (0.94018227, 0.60906297), (0.06578638, 0.7197846), (0.93015635, 0.5651364), (0.09591751, 0.7197846), (0.9020642, 0.52991), (0.1260486, 0.7197846), (0.86147, 0.5103608), (0.15617973, 0.7197846), (0.8164137, 0.5103608), (0.18631071, 0.7197846), (0.7758196, 0.52991), (0.21644187, 0.7197846), (0.74772733, 0.5651364), (0.24657285, 0.7197846), (0.73770136, 0.60906297), (0.27670398, 0.7197846), (0.74772733, 0.6529896), (0.3068351, 0.7197846), (0.7758196, 0.6882158), (0.33696622, 0.7197846), (0.8164137, 0.707765), (0.3670972, 0.7197846), (0.8614701, 0.707765), (0.39722833, 0.7197846), (0.9020642, 0.6882158), (0.42735934, 0.7197846), (0.06578638, 0.50886714), (0.45749044, 0.508867), (0.03565524, 0.50886714), (0.09591751, 0.508867), (0.1260486, 0.508867), (0.1561796, 0.508867), (0.18631071, 0.508867), (0.21644187, 0.508867), (0.24657285, 0.508867), (0.27670398, 0.508867), (0.3068351, 0.508867), (0.33696622, 0.508867), (0.3670972, 0.508867), (0.39722833, 0.508867), (0.42735934, 0.508867), (0.06578638, 0.50886714), (0.45749044, 0.508867), (0.03565524, 0.50886714), (0.09591751, 0.508867), (0.1260486, 0.508867), (0.1561796, 0.508867), (0.18631071, 0.508867), (0.21644187, 0.508867), (0.24657285, 0.508867), (0.27670398, 0.508867), (0.3068351, 0.508867), (0.33696622, 0.508867), (0.3670972, 0.508867), (0.39722833, 0.508867), (0.42735934, 0.508867), (0.18631071, 0.7197846), (0.15617974, 0.7197847), (0.42735934, 0.7197846), (0.39722833, 0.7197846), (0.21644184, 0.71978456), (0.03565524, 0.7197846), (0.45749044, 0.7197846), (0.24657282, 0.7197845), (0.27670395, 0.7197846), (0.06578637, 0.7197846), (0.30683506, 0.7197846), (0.09591751, 0.7197846), (0.33696622, 0.7197847), (0.12604861, 0.7197847), (0.3670972, 0.7197846), (0.18631071, 0.71978456), (0.15617973, 0.71978456), (0.42735937, 0.7197846), (0.3972283, 0.71978456), (0.21644187, 0.7197846), (0.035655238, 0.7197846), (0.45749044, 0.7197846), (0.24657284, 0.7197846), (0.27670395, 0.7197846), (0.06578638, 0.7197846), (0.3068351, 0.71978456), (0.09591751, 0.7197846), (0.33696622, 0.7197846), (0.1260486, 0.7197846), (0.3670972, 0.7197847), (0.09591751, 0.67007565), (0.09591751, 0.66403484), (0.2465733, 0.67012084), (0.24657285, 0.66398954), (0.39722848, 0.6700494), (0.39722833, 0.664061), (0.18631072, 0.6700494), (0.18631071, 0.66406083), (0.33696622, 0.67004305), (0.33696622, 0.6640675), (0.1260486, 0.67004305), (0.1260486, 0.6640675), (0.27670398, 0.6701143), (0.276704, 0.6639961), (0.42735958, 0.67008626), (0.42735934, 0.66402435), (0.06578638, 0.67011434), (0.065786205, 0.663996), (0.21644187, 0.6700862), (0.21644187, 0.6640243), (0.3670972, 0.67003334), (0.36709723, 0.66407704), (0.1561797, 0.67003334), (0.1561797, 0.6640769), (0.30683506, 0.67007565), (0.30683503, 0.6640347), (0.035655245, 0.6639898), (0.45749065, 0.66398966), (0.035654824, 0.67012084), (0.4574904, 0.6701209), (0.065786056, 0.5585374), (0.06578638, 0.56465566), (0.21644187, 0.5585655), (0.21644187, 0.5646274), (0.3670972, 0.55861837), (0.3670972, 0.56457454), (0.15617964, 0.55861825), (0.15617964, 0.5645744), (0.30683476, 0.55857605), (0.30683506, 0.5646167), (0.035655238, 0.56466216), (0.45749044, 0.5646622), (0.035655662, 0.558531), (0.45749044, 0.5585308), (0.09591752, 0.5585761), (0.09591712, 0.5646166), (0.24657287, 0.5585307), (0.24657285, 0.5646619), (0.39722836, 0.5586023), (0.39722836, 0.56459075), (0.18631071, 0.5586022), (0.18631071, 0.5645907), (0.33696625, 0.55860865), (0.33696628, 0.56458426), (0.1260486, 0.5586087), (0.1260486, 0.5645843), (0.27670398, 0.5585373), (0.2767036, 0.5646555), (0.42735916, 0.5585654), (0.42735922, 0.5646272), (0.3369662, 0.5452663), (0.03565555, 0.54558754), (0.45749044, 0.5455876), (0.15617964, 0.545426), (0.24657327, 0.545096), (0.12604877, 0.5455284), (0.21644187, 0.5451791), (0.306835, 0.54515964), (0.18631071, 0.5453008), (0.27670407, 0.54509103), (0.39722842, 0.54548496), (0.09591752, 0.54558855), (0.42735904, 0.54555404), (0.36709717, 0.5453826), (0.06578626, 0.54560184), (0.09591742, 0.68107176), (0.06578621, 0.68113387), (0.24657309, 0.6807531), (0.21644196, 0.6807701), (0.39722833, 0.68095607), (0.3670972, 0.68085605), (0.18610287, 0.68077743), (0.15617968, 0.6808886), (0.33696622, 0.6807802), (0.3068351, 0.68074214), (0.42735964, 0.6810589), (0.27670395, 0.68074095), (0.1260486, 0.68098116), (0.035654917, 0.68113136), (0.45749044, 0.68113136)] (
                interpolation = "faceVarying"
            )
            int[] primvars:st:indices = [0, 4, 5, 2, 4, 6, 7, 5, 6, 8, 9, 7, 8, 10, 11, 9, 10, 12, 13, 11, 12, 14, 15, 13, 14, 16, 17, 15, 16, 18, 19, 17, 18, 20, 21, 19, 20, 22, 23, 21, 22, 24, 25, 23, 24, 26, 27, 25, 5, 223, 225, 2, 26, 28, 29, 27, 28, 1, 3, 29, 0, 31, 32, 4, 41, 56, 57, 42, 26, 43, 44, 28, 12, 36, 37, 14, 22, 41, 42, 24, 8, 34, 35, 10, 18, 39, 40, 20, 28, 44, 30, 1, 4, 32, 33, 6, 14, 37, 38, 16, 24, 42, 43, 26, 10, 35, 36, 12, 20, 40, 41, 22, 6, 33, 34, 8, 16, 38, 39, 18, 50, 65, 66, 51, 34, 49, 50, 35, 42, 57, 58, 43, 35, 50, 51, 36, 43, 58, 59, 44, 36, 51, 52, 37, 44, 59, 45, 30, 37, 52, 53, 38, 38, 53, 54, 39, 31, 46, 47, 32, 39, 54, 55, 40, 32, 47, 48, 33, 40, 55, 56, 41, 33, 48, 49, 34, 74, 89, 76, 60, 58, 73, 74, 59, 51, 66, 67, 52, 59, 74, 60, 45, 52, 67, 68, 53, 53, 68, 69, 54, 46, 61, 62, 47, 54, 69, 70, 55, 47, 62, 63, 48, 55, 70, 71, 56, 48, 63, 64, 49, 56, 71, 72, 57, 49, 64, 65, 50, 57, 72, 73, 58, 254, 100, 102, 253, 67, 82, 83, 68, 68, 83, 84, 69, 61, 75, 77, 62, 69, 84, 85, 70, 62, 77, 78, 63, 70, 85, 86, 71, 63, 78, 79, 64, 71, 86, 87, 72, 64, 79, 80, 65, 72, 87, 88, 73, 65, 80, 81, 66, 73, 88, 89, 74, 66, 81, 82, 67, 90, 117, 115, 113, 111, 109, 107, 105, 103, 101, 99, 97, 95, 93, 256, 116, 118, 255, 253, 102, 104, 257, 255, 118, 91, 259, 257, 104, 106, 260, 260, 106, 108, 261, 258, 92, 94, 262, 261, 108, 110, 263, 262, 94, 96, 264, 263, 110, 112, 265, 264, 96, 98, 266, 265, 112, 114, 267, 266, 98, 100, 254, 267, 114, 116, 256, 120, 121, 136, 135, 145, 146, 161, 160, 132, 133, 148, 147, 125, 126, 141, 140, 130, 131, 146, 145, 123, 124, 139, 138, 128, 129, 144, 143, 133, 119, 134, 148, 121, 122, 137, 136, 126, 127, 142, 141, 131, 132, 147, 146, 124, 125, 140, 139, 129, 130, 145, 144, 122, 123, 138, 137, 127, 128, 143, 142, 154, 155, 170, 169, 138, 139, 154, 153, 146, 147, 162, 161, 139, 140, 155, 154, 147, 148, 163, 162, 140, 141, 156, 155, 148, 134, 149, 163, 141, 142, 157, 156, 142, 143, 158, 157, 135, 136, 151, 150, 143, 144, 159, 158, 136, 137, 152, 151, 144, 145, 160, 159, 137, 138, 153, 152, 178, 164, 180, 193, 162, 163, 178, 177, 155, 156, 171, 170, 163, 149, 164, 178, 156, 157, 172, 171, 157, 158, 173, 172, 150, 151, 166, 165, 158, 159, 174, 173, 151, 152, 167, 166, 159, 160, 175, 174, 152, 153, 168, 167, 160, 161, 176, 175, 153, 154, 169, 168, 161, 162, 177, 176, 269, 268, 206, 204, 171, 172, 187, 186, 172, 173, 188, 187, 165, 166, 181, 179, 173, 174, 189, 188, 166, 167, 182, 181, 174, 175, 190, 189, 167, 168, 183, 182, 175, 176, 191, 190, 168, 169, 184, 183, 176, 177, 192, 191, 169, 170, 185, 184, 177, 178, 193, 192, 170, 171, 186, 185, 194, 197, 199, 201, 203, 205, 207, 209, 211, 213, 215, 217, 219, 221, 271, 270, 222, 220, 268, 272, 208, 206, 270, 274, 195, 222, 272, 275, 210, 208, 275, 276, 212, 210, 273, 277, 198, 196, 276, 278, 214, 212, 277, 279, 200, 198, 278, 280, 216, 214, 279, 281, 202, 200, 280, 282, 218, 216, 281, 269, 204, 202, 282, 271, 220, 218, 224, 239, 252, 237, 29, 237, 236, 27, 15, 230, 229, 13, 25, 235, 234, 23, 11, 228, 227, 9, 21, 233, 232, 19, 3, 224, 237, 29, 7, 226, 223, 5, 17, 231, 230, 15, 27, 236, 235, 25, 13, 229, 228, 11, 23, 234, 233, 21, 9, 227, 226, 7, 19, 232, 231, 17, 231, 246, 245, 230, 232, 247, 246, 231, 223, 238, 240, 225, 233, 248, 247, 232, 226, 241, 238, 223, 234, 249, 248, 233, 227, 242, 241, 226, 235, 250, 249, 234, 228, 243, 242, 227, 236, 251, 250, 235, 229, 244, 243, 228, 237, 252, 251, 236, 230, 245, 244, 229, 239, 119, 133, 252, 252, 133, 132, 251, 251, 132, 131, 250, 250, 131, 130, 249, 249, 130, 129, 248, 248, 129, 128, 247, 247, 128, 127, 246, 246, 127, 126, 245, 245, 126, 125, 244, 244, 125, 124, 243, 243, 124, 123, 242, 242, 123, 122, 241, 241, 122, 121, 238, 238, 121, 120, 240, 87, 267, 256, 88, 79, 266, 254, 80, 86, 265, 267, 87, 78, 264, 266, 79, 85, 263, 265, 86, 77, 262, 264, 78, 84, 261, 263, 85, 75, 258, 262, 77, 83, 260, 261, 84, 82, 257, 260, 83, 89, 255, 259, 76, 81, 253, 257, 82, 88, 256, 255, 89, 80, 254, 253, 81, 191, 192, 271, 282, 183, 184, 269, 281, 190, 191, 282, 280, 182, 183, 281, 279, 189, 190, 280, 278, 181, 182, 279, 277, 188, 189, 278, 276, 179, 181, 277, 273, 187, 188, 276, 275, 186, 187, 275, 272, 193, 180, 274, 270, 185, 186, 272, 268, 192, 193, 270, 271, 184, 185, 268, 269, 328, 314, 300, 284, 314, 323, 309, 300, 338, 328, 284, 294, 334, 320, 306, 290, 320, 338, 294, 306, 330, 316, 302, 286, 316, 334, 290, 302, 340, 330, 286, 296, 336, 322, 308, 292, 322, 340, 296, 308, 332, 318, 304, 288, 318, 336, 292, 304, 342, 332, 288, 298, 312, 310, 298, 297, 297, 298, 288, 287, 287, 288, 304, 303, 303, 304, 292, 291, 291, 292, 308, 307, 307, 308, 296, 295, 295, 296, 286, 285, 285, 286, 302, 301, 301, 302, 290, 289, 289, 290, 306, 305, 305, 306, 294, 293, 293, 294, 284, 283, 283, 284, 300, 299, 299, 300, 309, 311, 314, 313, 325, 323, 328, 327, 313, 314, 338, 337, 327, 328, 320, 319, 337, 338, 334, 333, 319, 320, 316, 315, 333, 334, 330, 329, 315, 316, 340, 339, 329, 330, 322, 321, 339, 340, 336, 335, 321, 322, 318, 317, 335, 336, 332, 331, 317, 318, 342, 341, 331, 332, 324, 326, 341, 342, 344, 325, 313, 357, 353, 331, 341, 355, 343, 335, 317, 356, 352, 339, 321, 350, 356, 317, 331, 353, 350, 321, 335, 343, 354, 327, 337, 348, 357, 313, 327, 354, 346, 319, 333, 351, 355, 341, 326, 345, 347, 329, 339, 352, 351, 333, 315, 349, 348, 337, 319, 346, 349, 315, 329, 347, 324, 342, 298, 310, 293, 283, 358, 370, 299, 311, 371, 359, 283, 299, 359, 358, 295, 285, 360, 369, 307, 295, 369, 367, 289, 305, 365, 364, 303, 291, 366, 363, 285, 301, 361, 360, 297, 287, 362, 368, 312, 297, 368, 372, 291, 307, 367, 366, 305, 293, 370, 365, 287, 303, 363, 362, 301, 289, 364, 361]
            uniform token subdivisionScheme = "none"
            custom string userProperties:blender:data_name = "Cylinder.046"
        }
    }

    def Scope "_materials"
    {
        def Material "MI_Trim_02_Rails"
        {
            token outputs:surface.connect = </root/_materials/MI_Trim_02_Rails/Principled_BSDF.outputs:surface>
            custom string userProperties:blender:data_name = "MI_Trim_02_Rails"

            def Shader "Principled_BSDF"
            {
                uniform token info:id = "UsdPreviewSurface"
                float inputs:clearcoat = 0
                float inputs:clearcoatRoughness = 0.03
                color3f inputs:diffuseColor.connect = </root/_materials/MI_Trim_02_Rails/Image_Texture.outputs:rgb>
                float inputs:ior = 1.5
                float inputs:metallic = 0
                float inputs:opacity = 1
                float inputs:roughness = 0.5
                float inputs:specular = 0.5
                token outputs:surface
            }

            def Shader "Image_Texture"
            {
                uniform token info:id = "UsdUVTexture"
                token inputs:sourceColorSpace = "sRGB"
                float2 inputs:st.connect = </root/_materials/MI_Trim_02_Rails/uvmap.outputs:result>
                token inputs:wrapS = "repeat"
                token inputs:wrapT = "repeat"
                float3 outputs:rgb
            }

            def Shader "uvmap"
            {
                uniform token info:id = "UsdPrimvarReader_float2"
                string inputs:varname = "st"
                float2 outputs:result
            }
        }
    }
}

