#usda 1.0
(
    defaultPrim = "root"
    doc = "Blender v5.1.2"
    metersPerUnit = 1
    upAxis = "Y"
)

def Xform "root" (
    customData = {
        dictionary Blender = {
            bool generated = 1
        }
    }
)
{
    float3 xformOp:rotateXYZ = (-90, -0, 0)
    uniform token[] xformOpOrder = ["xformOp:rotateXYZ"]

    def Xform "Broccoli"
    {
        custom string userProperties:blender:object_name = "Broccoli"

        def Mesh "Cube_010" (
            active = true
            prepend apiSchemas = ["MaterialBindingAPI"]
        )
        {
            uniform bool doubleSided = 1
            float3[] extent = [(-0.3788284, -0.3249567, -0.0032932418), (0.3726341, 0.31944892, 0.89633614)]
            int[] faceVertexCounts = [4, 4, 4, 4, 4, 4, 4, 4, 4, 5, 5, 4, 4, 4, 4, 4, 4, 4, 4, 4, 4, 4, 4, 4, 4, 4, 5, 4, 4, 5, 4, 4, 4, 4, 4, 4, 4, 4, 4, 4, 4, 4, 4, 4, 4, 4, 4, 4, 4, 4, 4, 4, 4, 4, 4, 4, 4, 4, 4, 4, 4, 3, 3, 3, 3, 3, 3, 3, 3, 3, 3, 3, 3, 3, 3, 3, 3, 3, 3, 3, 3, 3, 3, 3, 3, 3, 3, 3, 3, 3, 3, 3, 3, 3, 3, 3, 3, 3, 3, 3, 3, 3, 3, 3, 3, 3, 3, 3, 3, 3, 3, 3, 3, 3, 3, 3, 3, 3, 3, 3, 3, 3, 3, 3, 3, 3, 3, 3, 3, 3, 3, 3, 3, 3, 3, 3, 3, 3, 3, 3, 3, 3, 3, 3, 3, 3, 3, 3, 3, 3, 3, 3, 3, 3, 3, 3, 3, 3, 3, 3, 3, 3, 3, 3, 3, 3, 3, 3, 3, 3, 3, 3, 3, 3, 3, 3, 3, 3, 3, 3, 3, 3, 3, 3, 3, 3, 3, 3, 3, 3, 3, 3, 3, 3, 3, 3, 3, 3, 3, 3, 3, 3, 3, 3, 3]
            int[] faceVertexIndices = [47, 3, 11, 51, 6, 1, 5, 7, 7, 5, 3, 8, 49, 48, 1, 6, 2, 8, 50, 45, 3, 5, 10, 11, 8, 3, 47, 50, 4, 7, 8, 2, 0, 6, 7, 4, 0, 4, 2, 45, 46, 13, 12, 53, 54, 14, 9, 52, 53, 12, 1, 48, 52, 9, 5, 1, 9, 10, 10, 9, 12, 13, 11, 10, 13, 14, 51, 11, 14, 54, 57, 18, 31, 66, 21, 16, 20, 22, 22, 20, 18, 23, 59, 58, 16, 21, 17, 23, 60, 55, 31, 30, 25, 26, 23, 18, 57, 60, 19, 22, 23, 17, 15, 21, 22, 19, 15, 19, 17, 55, 56, 66, 31, 26, 61, 61, 26, 29, 64, 28, 27, 63, 64, 29, 30, 32, 24, 25, 25, 24, 27, 28, 26, 25, 28, 29, 32, 65, 62, 24, 20, 16, 32, 30, 16, 58, 65, 32, 24, 62, 63, 27, 42, 41, 34, 35, 36, 35, 39, 40, 44, 43, 36, 33, 43, 42, 35, 36, 41, 44, 33, 34, 38, 37, 40, 39, 35, 34, 38, 39, 33, 36, 40, 37, 34, 33, 37, 38, 18, 20, 44, 41, 30, 31, 42, 43, 20, 30, 43, 44, 31, 18, 41, 42, 50, 47, 48, 49, 45, 50, 49, 46, 47, 51, 52, 48, 53, 52, 51, 54, 46, 49, 6, 0, 60, 57, 58, 59, 55, 60, 59, 56, 66, 61, 62, 65, 63, 62, 61, 64, 57, 66, 65, 58, 56, 59, 21, 15, 67, 69, 76, 75, 68, 78, 75, 76, 68, 67, 79, 69, 68, 72, 78, 69, 82, 68, 68, 82, 72, 69, 79, 82, 70, 74, 73, 71, 84, 70, 72, 84, 71, 83, 74, 85, 85, 74, 84, 85, 84, 72, 84, 74, 70, 74, 83, 73, 79, 73, 83, 79, 83, 82, 82, 83, 85, 82, 85, 72, 81, 72, 71, 80, 71, 70, 67, 70, 73, 67, 73, 79, 72, 81, 78, 78, 81, 77, 81, 71, 80, 81, 80, 77, 80, 70, 67, 76, 69, 68, 78, 77, 75, 75, 77, 80, 75, 80, 67, 75, 67, 76, 86, 90, 93, 92, 93, 94, 86, 95, 90, 87, 96, 86, 88, 98, 87, 89, 100, 88, 90, 99, 89, 86, 96, 95, 87, 97, 96, 90, 95, 99, 105, 91, 103, 103, 91, 102, 91, 106, 102, 102, 106, 101, 101, 106, 97, 106, 91, 104, 106, 104, 97, 104, 91, 105, 95, 103, 99, 99, 103, 102, 100, 102, 101, 98, 101, 97, 96, 97, 104, 96, 104, 105, 96, 105, 95, 95, 105, 103, 99, 102, 100, 99, 100, 89, 100, 101, 98, 100, 98, 88, 98, 97, 87, 93, 90, 89, 93, 89, 94, 94, 89, 88, 94, 88, 87, 94, 87, 92, 92, 87, 86, 92, 86, 93, 119, 108, 117, 107, 111, 117, 119, 118, 108, 107, 120, 111, 108, 121, 107, 109, 122, 118, 110, 124, 109, 111, 123, 110, 111, 120, 123, 112, 116, 115, 113, 126, 112, 114, 126, 113, 125, 116, 127, 127, 116, 126, 127, 126, 114, 126, 116, 112, 116, 125, 115, 120, 115, 125, 120, 125, 123, 123, 125, 127, 124, 127, 114, 122, 114, 113, 121, 113, 112, 107, 112, 115, 107, 115, 120, 123, 127, 124, 123, 124, 110, 124, 114, 122, 124, 122, 109, 122, 113, 121, 122, 121, 118, 118, 121, 108, 121, 112, 107, 117, 111, 110, 117, 110, 119, 119, 110, 109, 119, 109, 118, 108, 107, 117, 136, 129, 134, 128, 131, 134, 136, 137, 129, 128, 138, 131, 129, 139, 128, 130, 132, 137, 131, 142, 130, 128, 139, 138, 129, 140, 139, 130, 142, 132, 131, 138, 142, 140, 146, 144, 132, 146, 140, 142, 133, 132, 145, 133, 143, 143, 133, 142, 133, 146, 132, 146, 133, 144, 144, 133, 145, 138, 143, 142, 141, 132, 140, 140, 144, 139, 139, 144, 145, 139, 145, 138, 138, 145, 143, 132, 141, 137, 137, 141, 135, 141, 140, 135, 135, 140, 129, 134, 131, 130, 134, 130, 136, 136, 130, 137, 137, 135, 129, 129, 128, 134]
            rel material:binding = </root/_materials/LightGreen>
            normal3f[] normals = [(-2.663721e-8, -0.99998915, 0.0046677752), (1.09837856e-7, -1, 0.00014476675), (-5.24868e-8, -1, 4.2047407e-8), (-5.24868e-8, -1, 4.2047407e-8), (0, 0.99995506, 0.00947734), (3.667823e-8, 0.99998915, 0.0046676532), (-3.9173756e-8, 1, 0.00014464052), (0, 0.99995506, 0.00947734), (0.9943967, 0, -0.10571297), (0.9943967, 0, -0.10571297), (0.9943967, 0, -0.10571297), (0.9943967, 0, -0.10571297), (-0.9922455, 0, 0.124293044), (-0.9922455, 0, 0.124293044), (-0.9922455, 0, 0.124293044), (-0.9922455, 0, 0.124293044), (0, -0.98040724, 0.19698149), (0, -0.98040724, 0.19698149), (0, -0.98040724, 0.19698149), (0, -0.98040724, 0.19698149), (0.98174965, -2.33722e-8, 0.19017749), (0.98174965, -2.33722e-8, 0.19017749), (0.98174965, -2.33722e-8, 0.19017749), (0.98174965, -2.33722e-8, 0.19017749), (0, -0.9999551, 0.009477517), (1.09837856e-7, -1, 0.00014476675), (-2.663721e-8, -0.99998915, 0.0046677752), (0, -0.9999551, 0.009477517), (0.98040724, 0, 0.19698143), (0.98040724, 0, 0.19698143), (0.98040724, 0, 0.19698143), (0.98040724, 0, 0.19698143), (0, 0.98040724, 0.19698142), (0, 0.98040724, 0.19698142), (0, 0.98040724, 0.19698142), (0, 0.98040724, 0.19698142), (-4.8889853e-10, 0, -1), (-4.8889853e-10, 0, -1), (-4.8889853e-10, 0, -1), (-4.8889853e-10, 0, -1), (-4.8889853e-10, 0, -1), (-0.80090845, -8.625838e-8, 0.5987868), (-0.80090845, -8.625838e-8, 0.5987868), (-0.80090845, -8.625838e-8, 0.5987868), (-0.80090845, -8.625838e-8, 0.5987868), (-0.80090845, -8.625838e-8, 0.5987868), (-0.6648733, 1.6562369e-7, -0.7469561), (-0.6648733, 1.6562369e-7, -0.7469561), (-0.6648733, 1.6562369e-7, -0.7469561), (-0.6648733, 1.6562369e-7, -0.7469561), (-0.9845161, 1.0998196e-7, -0.1752946), (-0.9845161, 1.0998196e-7, -0.1752946), (-0.9845161, 1.0998196e-7, -0.1752946), (-0.9845161, 1.0998196e-7, -0.1752946), (-3.9173756e-8, 1, 0.00014464052), (3.667823e-8, 0.99998915, 0.0046676532), (7.2271945e-8, 0.99999994, -2.8948687e-8), (7.2271945e-8, 0.99999994, -2.8948687e-8), (-0.029240841, 0.9988804, 0.03718696), (-0.029240841, 0.9988804, 0.03718696), (-0.029240841, 0.9988804, 0.03718696), (-0.029240841, 0.9988804, 0.03718696), (0.6384536, -7.4786755e-8, 0.76966023), (0.6384536, -7.4786755e-8, 0.76966023), (0.6384536, -7.4786755e-8, 0.76966023), (0.6384536, -7.4786755e-8, 0.76966023), (-0.027480502, -0.9989985, 0.03530771), (-0.027480502, -0.9989985, 0.03530771), (-0.027480502, -0.9989985, 0.03530771), (-0.027480502, -0.9989985, 0.03530771), (0.83149046, 0.55548644, -0.007654489), (0.83149046, 0.55548644, -0.007654489), (0.83149046, 0.55548644, -0.007654489), (0.83149046, 0.55548644, -0.007654489), (-0.8300106, -0.557667, 0.009477216), (-0.8308609, -0.5564247, 0.0078579355), (-0.83083326, -0.55646515, 0.007910633), (-0.8300106, -0.557667, 0.009477216), (-0.55456716, 0.82539696, -0.10571283), (-0.55456716, 0.82539696, -0.10571283), (-0.55456716, 0.82539696, -0.10571283), (-0.55456716, 0.82539696, -0.10571283), (0.55336756, -0.8236114, 0.12429295), (0.55336756, -0.8236114, 0.12429295), (0.55336756, -0.8236114, 0.12429295), (0.55336756, -0.8236114, 0.12429295), (0.8137851, 0.5467652, 0.19698137), (0.8137851, 0.5467652, 0.19698137), (0.8137851, 0.5467652, 0.19698137), (0.8137851, 0.5467652, 0.19698137), (-0.5278786, 0.7856752, 0.3225816), (-0.5278786, 0.7856752, 0.3225816), (-0.5278786, 0.7856752, 0.3225816), (-0.5278786, 0.7856752, 0.3225816), (0.83001065, 0.55766696, 0.0094775995), (0.83001065, 0.55766696, 0.0094775995), (0.83001065, 0.55766696, 0.0094775995), (0.83001065, 0.55766696, 0.0094775995), (-0.5467653, 0.813785, 0.19698131), (-0.5467653, 0.813785, 0.19698131), (-0.5467653, 0.813785, 0.19698131), (-0.5467653, 0.813785, 0.19698131), (-0.813785, -0.5467653, 0.19698167), (-0.813785, -0.5467653, 0.19698167), (-0.813785, -0.5467653, 0.19698167), (-0.813785, -0.5467653, 0.19698167), (0, 0, -1), (0, 0, -1), (0, 0, -1), (0, 0, -1), (0, 0, -1), (0.8381313, 0.5450963, 0.020149112), (0.8381313, 0.5450963, 0.020149112), (0.8381313, 0.5450963, 0.020149112), (0.8381313, 0.5450963, 0.020149112), (0.8443872, 0.5345873, 0.035025775), (0.8443872, 0.5345873, 0.035025775), (0.8443872, 0.5345873, 0.035025775), (0.8443872, 0.5345873, 0.035025775), (0.4466602, -0.6647927, 0.5987865), (0.4466602, -0.6647927, 0.5987865), (0.4466602, -0.6647927, 0.5987865), (0.4466602, -0.6647927, 0.5987865), (0.4466602, -0.6647927, 0.5987865), (-0.83635294, -0.5480262, -0.013453149), (-0.83635294, -0.5480262, -0.013453149), (-0.83635294, -0.5480262, -0.013453149), (-0.83635294, -0.5480262, -0.013453149), (-0.8128114, -0.58133876, 0.03718703), (-0.8128114, -0.58133876, 0.03718703), (-0.8128114, -0.58133876, 0.03718703), (-0.8128114, -0.58133876, 0.03718703), (-0.3560606, 0.5299472, 0.7696602), (-0.3560606, 0.5299472, 0.7696602), (-0.3560606, 0.5299472, 0.7696602), (-0.3560606, 0.5299472, 0.7696602), (0.5490568, -0.8171955, -0.1752946), (0.5490568, -0.8171955, -0.1752946), (0.5490566, -0.8171955, -0.17529476), (0.5490566, -0.8171955, -0.17529476), (-0.83083326, -0.55646515, 0.007910633), (-0.8308609, -0.5564247, 0.0078579355), (-0.83168215, -0.5552165, 0.006286463), (-0.83168215, -0.5552165, 0.006286463), (0.549057, -0.81719536, -0.17529441), (0.549057, -0.81719536, -0.17529441), (0.5490568, -0.8171955, -0.1752946), (0.5490568, -0.8171955, -0.1752946), (0.37079465, -0.5518765, -0.7469563), (0.37079465, -0.5518765, -0.7469563), (0.37079465, -0.5518765, -0.7469563), (0.37079465, -0.5518765, -0.7469563), (0.90778744, 0.40656474, 0.10308787), (0.90778744, 0.40656474, 0.10308787), (0.90778744, 0.40656474, 0.10308787), (0.90778744, 0.40656474, 0.10308787), (0.30031487, -0.9114532, 0.28118312), (0.30031487, -0.9114532, 0.28118312), (0.30031487, -0.9114532, 0.28118312), (0.30031487, -0.9114532, 0.28118312), (-0.9286826, -0.3688808, -0.03841251), (-0.9286826, -0.3688808, -0.03841251), (-0.9286826, -0.3688808, -0.03841251), (-0.9286826, -0.3688808, -0.03841251), (0.25014612, -0.6662427, 0.70252943), (0.25014612, -0.6662427, 0.70252943), (0.25014612, -0.6662427, 0.70252943), (0.25014612, -0.6662427, 0.70252943), (-0.33052164, 0.7958782, -0.5072805), (-0.33052164, 0.7958782, -0.5072805), (-0.33052164, 0.7958782, -0.5072805), (-0.33052164, 0.7958782, -0.5072805), (0.037591208, -0.24712811, 0.9682534), (0.037591208, -0.24712811, 0.9682534), (0.037591208, -0.24712811, 0.9682534), (0.037591208, -0.24712811, 0.9682534), (0.89488965, 0.29387903, 0.33586845), (0.89488965, 0.29387903, 0.33586845), (0.89488965, 0.29387903, 0.33586845), (0.89488965, 0.29387903, 0.33586845), (-0.92008656, -0.3363304, 0.20080455), (-0.92008656, -0.3363304, 0.20080455), (-0.92008656, -0.3363304, 0.20080455), (-0.92008656, -0.3363304, 0.20080455), (-0.33493388, 0.92559016, 0.17635788), (-0.33493388, 0.92559016, 0.17635788), (-0.33493388, 0.92559016, 0.17635788), (-0.33493388, 0.92559016, 0.17635788), (-0.25365713, 0.47272182, -0.8439148), (-0.25365713, 0.47272182, -0.8439148), (-0.25365713, 0.47272182, -0.8439148), (-0.25365713, 0.47272182, -0.8439148), (0.15682074, -0.3290977, 0.9311831), (0.15682074, -0.3290977, 0.9311831), (0.15682074, -0.3290977, 0.9311831), (0.15682074, -0.3290977, 0.9311831), (-0.9592951, -0.27600396, 0.059789073), (-0.9592951, -0.27600396, 0.059789073), (-0.9592951, -0.27600396, 0.059789073), (-0.9592951, -0.27600396, 0.059789073), (0.93465316, 0.35412726, -0.031897496), (0.93465316, 0.35412726, -0.031897496), (0.93465316, 0.35412726, -0.031897496), (0.93465316, 0.35412726, -0.031897496), (-0.6998386, -0.70803905, 0.094375625), (-0.6998386, -0.70803905, 0.094375625), (-0.6998386, -0.70803905, 0.094375625), (-0.6998386, -0.70803905, 0.094375625), (-0.6762096, -0.68413323, 0.27331728), (-0.6762096, -0.68413323, 0.27331728), (-0.6762096, -0.68413323, 0.27331728), (-0.6762096, -0.68413323, 0.27331728), (-0.6975334, -0.7057069, -0.12419693), (-0.6975334, -0.7057069, -0.12419693), (-0.6975334, -0.7057069, -0.12419693), (-0.6975334, -0.7057069, -0.12419693), (-0.50666195, -0.6910518, -0.5155009), (-0.50666195, -0.6910518, -0.5155009), (-0.50666195, -0.6910518, -0.5155009), (-0.50666195, -0.6910518, -0.5155009), (-0.98040724, 0, 0.19698143), (-0.98040724, 0, 0.19698143), (-0.98040724, 0, 0.19698143), (-0.98040724, 0, 0.19698143), (0.9780007, -0.18603197, 0.09437558), (0.9780007, -0.18603197, 0.09437558), (0.9780007, -0.18603197, 0.09437558), (0.9780007, -0.18603197, 0.09437558), (0.94498, -0.1797509, 0.2733174), (0.94498, -0.1797509, 0.2733174), (0.94498, -0.1797509, 0.2733174), (0.94498, -0.1797509, 0.2733174), (0.97418123, -0.18726851, -0.12610011), (0.97456586, -0.1890423, -0.1203517), (0.97456586, -0.1890423, -0.1203517), (0.9745413, -0.18892422, -0.1207343), (0.8559994, -0.034951296, -0.51579416), (0.8559994, -0.034951296, -0.51579416), (0.8559994, -0.034951296, -0.51579416), (0.8559994, -0.034951296, -0.51579416), (0.97415555, -0.18715446, -0.12646806), (0.97418123, -0.18726851, -0.12610011), (0.9745413, -0.18892422, -0.1207343), (0.97415555, -0.18715446, -0.12646806), (0.5467654, -0.81378484, 0.19698155), (0.5467654, -0.81378484, 0.19698155), (0.5467654, -0.81378484, 0.19698155), (0.5467654, -0.81378484, 0.19698155), (-0.67953, 0.53232956, 0.50484073), (-0.67953, 0.53232956, 0.50484073), (-0.67953, 0.53232956, 0.50484073), (0.38067964, 0.30239236, 0.87386614), (0.38067964, 0.30239236, 0.87386614), (0.38067964, 0.30239236, 0.87386614), (0.30255038, 0.3049479, 0.90303385), (0.30255038, 0.3049479, 0.90303385), (0.30255038, 0.3049479, 0.90303385), (-0.80027616, 0.44324842, 0.40384275), (-0.80027616, 0.44324842, 0.40384275), (-0.80027616, 0.44324842, 0.40384275), (0.7639144, -0.41912025, 0.49068633), (0.7639144, -0.41912025, 0.49068633), (0.7639144, -0.41912025, 0.49068633), (-0.2827016, -0.3663083, 0.8865089), (-0.2827016, -0.3663083, 0.8865089), (-0.2827016, -0.3663083, 0.8865089), (0.41522422, -0.72070485, 0.5551337), (0.41522422, -0.72070485, 0.5551337), (0.41522422, -0.72070485, 0.5551337), (-0.6930523, -0.51345825, 0.506003), (-0.6930523, -0.51345825, 0.506003), (-0.6930523, -0.51345825, 0.506003), (-0.6348079, 0.08180942, -0.7683268), (-0.6348079, 0.08180942, -0.7683268), (-0.6348079, 0.08180942, -0.7683268), (0.15769245, 0.04663786, -0.98638636), (0.15769245, 0.04663786, -0.98638636), (0.15769245, 0.04663786, -0.98638636), (0.67952967, -0.5323298, -0.50484097), (0.67952967, -0.5323298, -0.50484097), (0.67952967, -0.5323298, -0.50484097), (-0.3235777, -0.74575204, -0.5823671), (-0.3235777, -0.74575204, -0.5823671), (-0.3235777, -0.74575204, -0.5823671), (-0.2089522, -0.76556015, -0.6084871), (-0.2089522, -0.76556015, -0.6084871), (-0.2089522, -0.76556015, -0.6084871), (0.21104302, -0.8828125, -0.4196461), (0.21104302, -0.8828125, -0.4196461), (0.21104302, -0.8828125, -0.4196461), (0.105600044, 0.021113798, -0.9941845), (0.105600044, 0.021113798, -0.9941845), (0.105600044, 0.021113798, -0.9941845), (-0.6855283, -0.32617748, -0.65089107), (-0.6855283, -0.32617748, -0.65089107), (-0.6855283, -0.32617748, -0.65089107), (-0.9406922, -0.33071086, -0.075687215), (-0.9406922, -0.33071086, -0.075687215), (-0.9406922, -0.33071086, -0.075687215), (-0.7139121, -0.60477716, 0.3529505), (-0.7139121, -0.60477716, 0.3529505), (-0.7139121, -0.60477716, 0.3529505), (-0.5947701, -0.77226233, 0.22329226), (-0.5947701, -0.77226233, 0.22329226), (-0.5947701, -0.77226233, 0.22329226), (0.14776967, -0.9725643, 0.17967397), (0.14776967, -0.9725643, 0.17967397), (0.14776967, -0.9725643, 0.17967397), (0.8002767, -0.44324785, -0.4038422), (0.8002767, -0.44324785, -0.4038422), (0.8002767, -0.44324785, -0.4038422), (0.3413892, 0.43708265, -0.832113), (0.3413892, 0.43708265, -0.832113), (0.3413892, 0.43708265, -0.832113), (-0.7247592, 0.46104276, -0.51201916), (-0.7247592, 0.46104276, -0.51201916), (-0.7247592, 0.46104276, -0.51201916), (-0.91925925, 0.37646207, -0.11506038), (-0.91925925, 0.37646207, -0.11506038), (-0.91925925, 0.37646207, -0.11506038), (0.90344113, -0.33442295, 0.26824486), (0.90344113, -0.33442295, 0.26824486), (0.90344113, -0.33442295, 0.26824486), (0.9671529, 0.19269697, 0.1657808), (0.9671529, 0.19269697, 0.1657808), (0.9671529, 0.19269697, 0.1657808), (0.691682, 0.5157238, -0.5055738), (0.691682, 0.5157238, -0.5055738), (0.691682, 0.5157238, -0.5055738), (0.68679583, 0.5058604, -0.5219355), (0.68679583, 0.5058604, -0.5219355), (0.68679583, 0.5058604, -0.5219355), (-0.36852187, 0.78153545, -0.50338244), (-0.36852187, 0.78153545, -0.50338244), (-0.36852187, 0.78153545, -0.50338244), (-0.1882823, -0.017358925, 0.98196155), (-0.1882823, -0.017358925, 0.98196155), (-0.1882823, -0.017358925, 0.98196155), (0.6252031, 0.64082706, 0.44549045), (0.6252031, 0.64082706, 0.44549045), (0.6252031, 0.64082706, 0.44549045), (0.4174843, 0.904005, 0.09209636), (0.4174843, 0.904005, 0.09209636), (0.4174843, 0.904005, 0.09209636), (-0.018914765, 0.9927114, 0.11902171), (-0.018914765, 0.9927114, 0.11902171), (-0.018914765, 0.9927114, 0.11902171), (-0.26170188, 0.861579, 0.43496385), (-0.26170188, 0.861579, 0.43496385), (-0.26170188, 0.861579, 0.43496385), (-0.51416916, -0.53086, 0.6736599), (-0.51416916, -0.53086, 0.6736599), (-0.51416916, -0.53086, 0.6736599), (0.37310052, -0.6760826, 0.6353805), (0.37310052, -0.6760826, 0.6353805), (0.37310052, -0.6760826, 0.6353805), (-0.6734969, -0.44768238, 0.5882027), (-0.6734969, -0.44768238, 0.5882027), (-0.6734969, -0.44768238, 0.5882027), (-0.04991891, 0.33865532, 0.9395854), (-0.04991891, 0.33865532, 0.9395854), (-0.04991891, 0.33865532, 0.9395854), (0.86449254, 0.2305318, 0.446663), (0.86449254, 0.2305318, 0.446663), (0.86449254, 0.2305318, 0.446663), (0.8095533, -0.54851663, -0.20917195), (0.8095533, -0.54851663, -0.20917195), (0.8095533, -0.54851663, -0.20917195), (-0.11930217, -0.98477614, -0.12642372), (-0.11930217, -0.98477614, -0.12642372), (-0.11930217, -0.98477614, -0.12642372), (-0.86374223, 0.04817835, 0.5016255), (-0.86374223, 0.04817835, 0.5016255), (-0.86374223, 0.04817835, 0.5016255), (0.03032474, 0.68617225, 0.72680676), (0.03032474, 0.68617225, 0.72680676), (0.03032474, 0.68617225, 0.72680676), (-0.64518785, -0.7353992, -0.20717327), (-0.64518785, -0.7353992, -0.20717327), (-0.64518785, -0.7353992, -0.20717327), (-0.7355839, 0.16219053, -0.6577314), (-0.7355839, 0.16219053, -0.6577314), (-0.7355839, 0.16219053, -0.6577314), (-0.5107111, -0.14843203, -0.8468424), (-0.5107111, -0.14843203, -0.8468424), (-0.5107111, -0.14843203, -0.8468424), (0.13967827, 0.26168567, -0.9549925), (0.13967827, 0.26168567, -0.9549925), (0.13967827, 0.26168567, -0.9549925), (0.1973695, 0.25864643, -0.9455936), (0.1973695, 0.25864643, -0.9455936), (0.1973695, 0.25864643, -0.9455936), (0.40313458, 0.8671903, -0.29234138), (0.40313458, 0.8671903, -0.29234138), (0.40313458, 0.8671903, -0.29234138), (-0.49524295, 0.7340013, -0.4647328), (-0.49524295, 0.7340013, -0.4647328), (-0.49524295, 0.7340013, -0.4647328), (-0.17307216, 0.9640044, -0.20184511), (-0.17307216, 0.9640044, -0.20184511), (-0.17307216, 0.9640044, -0.20184511), (-0.591154, 0.66344815, -0.45866498), (-0.591154, 0.66344815, -0.45866498), (-0.591154, 0.66344815, -0.45866498), (-0.6902316, -0.65641785, -0.30445996), (-0.6902316, -0.65641785, -0.30445996), (-0.6902316, -0.65641785, -0.30445996), (-0.48151222, -0.41110417, -0.7740409), (-0.48151222, -0.41110417, -0.7740409), (-0.48151222, -0.41110417, -0.7740409), (0.4809862, 0.00041931594, -0.8767281), (0.4809862, 0.00041931594, -0.8767281), (0.4809862, 0.00041931594, -0.8767281), (0.546743, 0.81401634, -0.19608542), (0.546743, 0.81401634, -0.19608542), (0.546743, 0.81401634, -0.19608542), (-0.28994784, 0.8742572, 0.38936427), (-0.28994784, 0.8742572, 0.38936427), (-0.28994784, 0.8742572, 0.38936427), (-0.87593865, 0.38375717, 0.2923386), (-0.87593865, 0.38375717, 0.2923386), (-0.87593865, 0.38375717, 0.2923386), (-0.9162902, 0.15658402, 0.3686375), (-0.9162902, 0.15658402, 0.3686375), (-0.9162902, 0.15658402, 0.3686375), (-0.98829406, -0.07534367, -0.1326574), (-0.98829406, -0.07534367, -0.1326574), (-0.98829406, -0.07534367, -0.1326574), (0.028750924, -0.6967802, -0.7167082), (0.028750924, -0.6967802, -0.7167082), (0.028750924, -0.6967802, -0.7167082), (0.072093934, -0.77971524, -0.62196994), (0.072093934, -0.77971524, -0.62196994), (0.072093934, -0.77971524, -0.62196994), (0.8637417, -0.048176702, -0.5016266), (0.8637417, -0.048176702, -0.5016266), (0.8637417, -0.048176702, -0.5016266), (0.8579291, -0.038787954, -0.5123018), (0.8579291, -0.038787954, -0.5123018), (0.8579291, -0.038787954, -0.5123018), (0.6657077, 0.6534254, 0.36037284), (0.6657077, 0.6534254, 0.36037284), (0.6657077, 0.6534254, 0.36037284), (0.054340497, -0.98406065, 0.16932711), (0.054340497, -0.98406065, 0.16932711), (0.054340497, -0.98406065, 0.16932711), (0.29512006, -0.9187138, 0.26242912), (0.29512006, -0.9187138, 0.26242912), (0.29512006, -0.9187138, 0.26242912), (0.8006369, -0.59105563, -0.09815261), (0.8006369, -0.59105563, -0.09815261), (0.8006369, -0.59105563, -0.09815261), (0.80487907, -0.03762376, 0.592245), (0.80487907, -0.03762376, 0.592245), (0.80487907, -0.03762376, 0.592245), (0.7709912, -0.06085859, 0.6339311), (0.7709912, -0.06085859, 0.6339311), (0.7709912, -0.06085859, 0.6339311), (0.09314761, 0.05635008, 0.9940564), (0.09314761, 0.05635008, 0.9940564), (0.09314761, 0.05635008, 0.9940564), (-0.06230031, -0.33814445, 0.9390298), (-0.06230031, -0.33814445, 0.9390298), (-0.06230031, -0.33814445, 0.9390298), (0.018472912, -0.18808414, 0.98197913), (0.018472912, -0.18808414, 0.98197913), (0.018472912, -0.18808414, 0.98197913), (-0.7262613, 0.24227925, 0.643308), (-0.7262613, 0.24227925, 0.643308), (-0.7262613, 0.24227925, 0.643308), (0.12479779, -0.23859161, 0.96306777), (0.12479779, -0.23859161, 0.96306777), (0.12479779, -0.23859161, 0.96306777), (-0.79504824, 0.33617595, 0.50486034), (-0.79504824, 0.33617595, 0.50486034), (-0.79504824, 0.33617595, 0.50486034), (0.14748032, 0.6577578, 0.7386503), (0.14748032, 0.6577578, 0.7386503), (0.14748032, 0.6577578, 0.7386503), (0.8212184, -0.39238575, 0.41428712), (0.8212184, -0.39238575, 0.41428712), (0.8212184, -0.39238575, 0.41428712), (0.21388334, -0.9662831, 0.14335625), (0.21388334, -0.9662831, 0.14335625), (0.21388334, -0.9662831, 0.14335625), (-0.7615325, -0.6383796, 0.11198174), (-0.7615325, -0.6383796, 0.11198174), (-0.7615325, -0.6383796, 0.11198174), (-0.9747047, -0.16057289, -0.15545788), (-0.9747047, -0.16057289, -0.15545788), (-0.9747047, -0.16057289, -0.15545788), (-0.13992444, 0.9189345, -0.36875543), (-0.13992444, 0.9189345, -0.36875543), (-0.13992444, 0.9189345, -0.36875543), (0.6330009, 0.6438143, -0.4298989), (0.6330009, 0.6438143, -0.4298989), (0.6330009, 0.6438143, -0.4298989), (0.734931, -0.20832172, -0.64535147), (0.734931, -0.20832172, -0.64535147), (0.734931, -0.20832172, -0.64535147), (-0.12479839, 0.23859142, -0.96306777), (-0.12479839, 0.23859142, -0.96306777), (-0.12479839, 0.23859142, -0.96306777), (-0.018472375, 0.18808386, -0.9819793), (-0.018472375, 0.18808386, -0.9819793), (-0.018472375, 0.18808386, -0.9819793), (0.16733862, -0.12583408, -0.9778361), (0.16733862, -0.12583408, -0.9778361), (0.16733862, -0.12583408, -0.9778361), (0.5879607, 0.66476786, -0.4608535), (0.5879607, 0.66476786, -0.4608535), (0.5879607, 0.66476786, -0.4608535), (-0.31815732, 0.6719161, -0.6688084), (-0.31815732, 0.6719161, -0.6688084), (-0.31815732, 0.6719161, -0.6688084), (-0.8212185, 0.39238566, -0.41428703), (-0.8212185, 0.39238566, -0.41428703), (-0.8212185, 0.39238566, -0.41428703), (-0.902223, -0.047892835, -0.42860246), (-0.902223, -0.047892835, -0.42860246), (-0.902223, -0.047892835, -0.42860246), (-0.74063325, -0.18771698, -0.6451548), (-0.74063325, -0.18771698, -0.6451548), (-0.74063325, -0.18771698, -0.6451548), (-0.11772608, -0.6460297, -0.7541791), (-0.11772608, -0.6460297, -0.7541791), (-0.11772608, -0.6460297, -0.7541791), (0.7945944, -0.33654428, -0.50532943), (0.7945944, -0.33654428, -0.50532943), (0.7945944, -0.33654428, -0.50532943), (0.7724515, 0.63161266, -0.066213004), (0.7724515, 0.63161266, -0.066213004), (0.7724515, 0.63161266, -0.066213004), (-0.27214828, 0.95918745, 0.076777615), (-0.27214828, 0.95918745, 0.076777615), (-0.27214828, 0.95918745, 0.076777615), (-0.6502523, 0.73804194, 0.1801833), (-0.6502523, 0.73804194, 0.1801833), (-0.6502523, 0.73804194, 0.1801833), (-0.42211857, -0.6755642, -0.604507), (-0.42211857, -0.6755642, -0.604507), (-0.42211857, -0.6755642, -0.604507), (-0.48404554, -0.79804134, -0.3589287), (-0.48404554, -0.79804134, -0.3589287), (-0.48404554, -0.79804134, -0.3589287), (0.59438574, -0.76486397, -0.24837238), (0.59438574, -0.76486397, -0.24837238), (0.59438574, -0.76486397, -0.24837238), (0.5965213, -0.758555, -0.26221487), (0.5965213, -0.758555, -0.26221487), (0.5965213, -0.758555, -0.26221487), (0.93531454, 0.23762998, 0.2621425), (0.93531454, 0.23762998, 0.2621425), (0.93531454, 0.23762998, 0.2621425), (0.8940464, 0.15983614, 0.41848937), (0.8940464, 0.15983614, 0.41848937), (0.8940464, 0.15983614, 0.41848937), (0.7602137, 0.20739517, 0.61568046), (0.7602137, 0.20739517, 0.61568046), (0.7602137, 0.20739517, 0.61568046), (0.07546884, 0.9199035, 0.38481402), (0.07546884, 0.9199035, 0.38481402), (0.07546884, 0.9199035, 0.38481402), (-0.63300157, -0.64381397, 0.42989832), (-0.63300157, -0.64381397, 0.42989832), (-0.63300157, -0.64381397, 0.42989832), (-0.5879606, -0.66476804, 0.46085346), (-0.5879606, -0.66476804, 0.46085346), (-0.5879606, -0.66476804, 0.46085346), (0.13992396, -0.9189347, 0.36875504), (0.13992396, -0.9189347, 0.36875504), (0.13992396, -0.9189347, 0.36875504), (0.31815752, -0.671916, 0.6688084), (0.31815752, -0.671916, 0.6688084), (0.31815752, -0.671916, 0.6688084), (-0.22114313, 0.22101097, 0.9498684), (-0.22114313, 0.22101097, 0.9498684), (-0.22114313, 0.22101097, 0.9498684), (0.20895228, 0.76556003, 0.6084874), (0.20895228, 0.76556003, 0.6084874), (0.20895228, 0.76556003, 0.6084874), (-0.6689112, 0.5166778, 0.53441715), (-0.6689112, 0.5166778, 0.53441715), (-0.6689112, 0.5166778, 0.53441715), (0.49848357, 0.691488, 0.52283674), (0.49848357, 0.691488, 0.52283674), (0.49848357, 0.691488, 0.52283674), (-0.8000392, 0.44391063, 0.40358487), (-0.8000392, 0.44391063, 0.40358487), (-0.8000392, 0.44391063, 0.40358487), (-0.16532986, 0.97494066, -0.14885157), (-0.16532986, 0.97494066, -0.14885157), (-0.16532986, 0.97494066, -0.14885157), (0.75043714, -0.42444548, 0.506646), (0.75043714, -0.42444548, 0.506646), (0.75043714, -0.42444548, 0.506646), (-0.3413892, -0.43708318, 0.8321128), (-0.3413892, -0.43708318, 0.8321128), (-0.3413892, -0.43708318, 0.8321128), (-0.87939066, 0.45844617, -0.12844881), (-0.87939066, 0.45844617, -0.12844881), (-0.87939066, 0.45844617, -0.12844881), (0.22563432, 0.8060294, -0.5471799), (0.22563432, 0.8060294, -0.5471799), (0.22563432, 0.8060294, -0.5471799), (0.36852112, -0.78153604, 0.5033822), (0.36852112, -0.78153604, 0.5033822), (0.36852112, -0.78153604, 0.5033822), (-0.691682, -0.5157236, 0.50557417), (-0.691682, -0.5157236, 0.50557417), (-0.691682, -0.5157236, 0.50557417), (0.17165594, 0.005787873, -0.9851399), (0.17165594, 0.005787873, -0.9851399), (0.17165594, 0.005787873, -0.9851399), (0.7604736, -0.41557863, -0.4989731), (0.7604736, -0.41557863, -0.4989731), (0.7604736, -0.41557863, -0.4989731), (0.018914662, -0.99271137, -0.11902193), (0.018914662, -0.99271137, -0.11902193), (0.018914662, -0.99271137, -0.11902193), (-0.62520266, -0.640828, -0.44548967), (-0.62520266, -0.640828, -0.44548967), (-0.62520266, -0.640828, -0.44548967), (-0.41748405, -0.9040051, -0.09209657), (-0.41748405, -0.9040051, -0.09209657), (-0.41748405, -0.9040051, -0.09209657), (0.26170158, -0.8615793, -0.4349636), (0.26170158, -0.8615793, -0.4349636), (0.26170158, -0.8615793, -0.4349636), (-0.30255002, -0.30494806, -0.9030338), (-0.30255002, -0.30494806, -0.9030338), (-0.30255002, -0.30494806, -0.9030338), (-0.38067886, -0.3023924, -0.87386644), (-0.38067886, -0.3023924, -0.87386644), (-0.38067886, -0.3023924, -0.87386644), (-0.6867964, -0.50586075, 0.52193457), (-0.6867964, -0.50586075, 0.52193457), (-0.6867964, -0.50586075, 0.52193457), (0.7210402, -0.43885896, -0.5361938), (0.7210402, -0.43885896, -0.5361938), (0.7210402, -0.43885896, -0.5361938), (0.13972211, 0.6958882, -0.704427), (0.13972211, 0.6958882, -0.704427), (0.13972211, 0.6958882, -0.704427), (-0.7407238, 0.30781776, -0.59714025), (-0.7407238, 0.30781776, -0.59714025), (-0.7407238, 0.30781776, -0.59714025), (-0.89694977, 0.34991375, -0.27026203), (-0.89694977, 0.34991375, -0.27026203), (-0.89694977, 0.34991375, -0.27026203), (-0.9671526, -0.19269805, -0.16578083), (-0.9671526, -0.19269805, -0.16578083), (-0.9671526, -0.19269805, -0.16578083), (0.90344137, -0.33442256, 0.26824507), (0.90344137, -0.33442256, 0.26824507), (0.90344137, -0.33442256, 0.26824507), (0.96715266, 0.19269761, 0.16578074), (0.96715266, 0.19269761, 0.16578074), (0.96715266, 0.19269761, 0.16578074), (0.8483472, 0.4306158, -0.30802137), (0.8483472, 0.4306158, -0.30802137), (0.8483472, 0.4306158, -0.30802137), (0.52598524, 0.7702028, -0.3607314), (0.52598524, 0.7702028, -0.3607314), (0.52598524, 0.7702028, -0.3607314), (-0.15769139, -0.046637017, 0.98638654), (-0.15769139, -0.046637017, 0.98638654), (-0.15769139, -0.046637017, 0.98638654), (-0.10560074, -0.02111334, 0.9941845), (-0.10560074, -0.02111334, 0.9941845), (-0.10560074, -0.02111334, 0.9941845), (0.55518734, -0.076383606, 0.8282104), (0.55518734, -0.076383606, 0.8282104), (0.55518734, -0.076383606, 0.8282104), (0.5358256, 0.69599766, 0.47799394), (0.5358256, 0.69599766, 0.47799394), (0.5358256, 0.69599766, 0.47799394), (-0.11299385, 0.8728995, 0.4746356), (-0.11299385, 0.8728995, 0.4746356), (-0.11299385, 0.8728995, 0.4746356)] (
                interpolation = "faceVarying"
            )
            point3f[] points = [(-0.14253095, 0.08767653, -0.0032932418), (-0.0905917, 0.06267877, 0.34283054), (0.032822113, -0.08767653, -0.0032932418), (0.034765784, -0.062678725, 0.34283054), (0.032822113, 0.08767653, -0.0032932418), (0.034765784, 0.06267877, 0.34283054), (-0.11973849, 0.064884074, 0.11014837), (0.010029655, 0.064884074, 0.11014837), (0.010029655, -0.064884074, 0.11014837), (-0.10886042, 0.062678784, 0.4454341), (0.004539881, 0.06267877, 0.49886513), (0.0045398735, -0.062678725, 0.49886513), (-0.22439083, 0.054137904, 0.54826885), (-0.15955682, 0.05413789, 0.6349878), (-0.15955685, -0.054137845, 0.6349878), (0.043542508, -0.153135, -0.0032932418), (0.035325747, -0.096081875, 0.34283054), (0.091300964, 0.09020948, -0.0032932418), (0.069467604, 0.077881716, 0.34283054), (-0.054250505, -0.0075835297, -0.0032932418), (-0.03458512, 0.007970841, 0.34283054), (0.049750183, -0.121504955, 0.11014837), (-0.022620488, -0.013791171, 0.11014837), (0.08509329, 0.05857949, 0.11014837), (0.045514066, -0.11124579, 0.4454341), (-0.01772838, -0.01711807, 0.49886513), (0.086324334, 0.052792814, 0.49886513), (0.11703378, -0.2023784, 0.54826885), (0.080876395, -0.14856304, 0.6349878), (0.17075042, -0.08817856, 0.6349878), (-0.022455912, -0.008097941, 0.4691596), (0.08159681, 0.06181294, 0.4691596), (0.041737746, -0.10562524, 0.4074039), (-0.09582939, 0.1975707, 0.53431), (0.0046943016, 0.23273142, 0.5416736), (0.03251065, 0.15233153, 0.54584473), (-0.06801296, 0.11717079, 0.53848106), (-0.07473732, 0.18789649, 0.62612957), (-0.01700702, 0.20804566, 0.62903094), (-0.0008678362, 0.16353072, 0.6170428), (-0.058598164, 0.14338158, 0.6141414), (0.036083404, 0.17718253, 0.4163741), (0.056283716, 0.12716866, 0.5037048), (-0.042404573, 0.06747153, 0.4920426), (-0.062604904, 0.11748535, 0.4047119), (-0.097909585, -0.08767653, -0.0032932418), (-0.14253095, -0.04357197, -0.0032932418), (-0.04597033, -0.062678725, 0.34283054), (-0.0905917, -0.018574158, 0.34283054), (-0.11973849, -0.02077951, 0.11014837), (-0.075117126, -0.064884074, 0.11014837), (-0.067692734, -0.06267872, 0.4648311), (-0.108860426, -0.01857415, 0.4454341), (-0.22439083, -0.010033273, 0.54826885), (-0.1992274, -0.054137837, 0.5819263), (0.15988836, -0.0118734585, -0.0032932418), (0.14612886, -0.08420934, -0.0032932418), (0.11017287, 0.017297532, 0.34283054), (0.09641339, -0.05503835, 0.34283054), (0.11449885, -0.078001656, 0.11014837), (0.12825835, -0.005665764, 0.11014837), (0.12262167, -0.0012307966, 0.46819893), (0.1066017, -0.07020226, 0.4454341), (0.16394272, -0.17086124, 0.54826885), (0.19043781, -0.11748052, 0.5877701), (0.10282537, -0.06458172, 0.4074039), (0.119476154, 0.0042641005, 0.43271884), (0.020030823, 0.16844083, 0.6906975), (0.22141981, -0.07240824, 0.89633614), (0.008337196, -0.0039075054, 0.8566903), (0.10214172, 0.08239212, 0.49698845), (0.2995194, -0.021006422, 0.5236541), (0.2878257, -0.19335482, 0.6896469), (-0.052380912, -0.032292955, 0.6124469), (0.08690083, -0.08432756, 0.49182892), (0.20248783, 0.15573882, 0.8256355), (0.10500109, 0.10016387, 0.8770645), (0.3417696, 0.10370434, 0.7050173), (0.3375554, 0.03608403, 0.80820173), (-0.06477759, -0.025090912, 0.73505247), (0.19357961, 0.18407118, 0.58791125), (0.3726341, 0.0001769548, 0.645292), (0.118543476, -0.19641818, 0.8122883), (-0.012998518, -0.14810386, 0.6290044), (0.2028555, -0.12507783, 0.5032799), (0.101879835, -0.22614089, 0.6651057), (-0.10636863, 0.117859006, 0.8178046), (0.070486605, 0.20335358, 0.7963859), (0.16914432, 0.105245784, 0.6560746), (0.05326273, -0.040882684, 0.59077716), (-0.11701327, -0.033086322, 0.6907316), (-0.09776467, 0.20407562, 0.47717184), (0.05065502, 0.057560522, 0.8065088), (-0.02577368, -0.01339534, 0.77588695), (0.11282064, 0.017168105, 0.7270248), (-0.20357251, 0.05243818, 0.65671355), (-0.12494564, 0.23511395, 0.7745553), (0.0146042, 0.31944892, 0.68911284), (0.15646288, 0.20919797, 0.626967), (-0.08762696, -0.018041952, 0.54581267), (0.07783607, 0.026522214, 0.50912523), (0.094151005, 0.22484282, 0.5181707), (-0.022873592, 0.07917181, 0.45389953), (-0.19260456, 0.08823421, 0.55467194), (-0.1448106, 0.28307366, 0.65207624), (-0.20553721, 0.18876196, 0.5939246), (-0.021335986, 0.27503148, 0.5077936), (-0.14359117, 0.049486734, 0.77456164), (0.012634326, -0.053223252, 0.83483124), (0.082696706, -0.26825133, 0.7039409), (-0.13384667, -0.3249567, 0.644799), (-0.27249837, -0.14919692, 0.7038593), (0.010834586, 0.10666713, 0.6075856), (0.14948636, -0.06909279, 0.5485252), (0.018636305, -0.23442318, 0.45288137), (-0.20570877, 0.04996171, 0.54844373), (-0.032237798, 0.03873502, 0.45464334), (-0.17827791, -0.16646516, 0.81673276), (0.07929917, -0.17925201, 0.79497004), (-0.09077424, -0.2570246, 0.7977413), (-0.2780633, -0.030253308, 0.61589366), (0.06783719, 0.04998637, 0.7319026), (0.15505132, -0.1880363, 0.6364909), (-0.23615211, -0.2197471, 0.5488436), (-0.05926809, -0.32376373, 0.5415712), (-0.20231128, -0.039037667, 0.4574146), (0.05526587, -0.051824484, 0.4356519), (-0.13564636, -0.16506626, 0.41755345), (-0.29320735, 0.24501549, 0.59372663), (-0.15940374, 0.26652858, 0.58601594), (-0.159616, 0.01648736, 0.7222616), (-0.3195747, 0.100283556, 0.70065117), (-0.09307176, -0.053248167, 0.5652759), (-0.24093847, -0.042954195, 0.4559196), (-0.24123642, 0.18462507, 0.7171627), (-0.04935467, 0.18749438, 0.5777323), (-0.14726453, 0.15160017, 0.72644293), (-0.052769903, 0.13269357, 0.6613551), (-0.3788284, 0.083116196, 0.6020735), (-0.2848318, 0.22889873, 0.47886354), (-0.07775424, 0.13755861, 0.4297042), (-0.0243414, 0.10359371, 0.5293298), (-0.23371908, -0.06591532, 0.6485759), (-0.35381505, -0.0007844941, 0.5536709), (-0.25628138, 0.14194064, 0.39862242), (-0.35039985, 0.05401632, 0.47004816), (-0.16193332, 0.0020848236, 0.41424045)]
            uniform token subdivisionScheme = "none"
            uniform token subsetFamily:materialBind:familyType = "nonOverlapping"
            custom string userProperties:blender:data_name = "Cube.010"

            def GeomSubset "LightGreen" (
                prepend apiSchemas = ["MaterialBindingAPI"]
            )
            {
                uniform token elementType = "face"
                uniform token familyName = "materialBind"
                int[] indices = [0, 1, 2, 3, 4, 5, 6, 7, 8, 9, 10, 11, 12, 13, 14, 15, 16, 17, 18, 19, 20, 21, 22, 23, 24, 25, 26, 27, 28, 29, 30, 31, 32, 33, 34, 35, 36, 37, 38, 39, 40, 41, 42, 43, 44, 45, 46, 47, 48, 49, 50, 51, 52, 53, 54, 55, 56, 57, 58, 59, 60]
                rel material:binding = </root/_materials/LightGreen>
            }

            def GeomSubset "DarkGreen" (
                prepend apiSchemas = ["MaterialBindingAPI"]
            )
            {
                uniform token elementType = "face"
                uniform token familyName = "materialBind"
                int[] indices = [61, 62, 63, 64, 65, 66, 67, 68, 69, 70, 71, 72, 73, 74, 75, 76, 77, 78, 79, 80, 81, 82, 83, 84, 85, 86, 87, 88, 89, 90, 91, 92, 93, 94, 95, 96, 97, 98, 99, 100, 101, 102, 103, 104, 105, 106, 107, 108, 109, 110, 111, 112, 113, 114, 115, 116, 117, 118, 119, 120, 121, 122, 123, 124, 125, 126, 127, 128, 129, 130, 131, 132, 133, 134, 135, 136, 137, 138, 139, 140, 141, 142, 143, 144, 145, 146, 147, 148, 149, 150, 151, 152, 153, 154, 155, 156, 157, 158, 159, 160, 161, 162, 163, 164, 165, 166, 167, 168, 169, 170, 171, 172, 173, 174, 175, 176, 177, 178, 179, 180, 181, 182, 183, 184, 185, 186, 187, 188, 189, 190, 191, 192, 193, 194, 195, 196, 197, 198, 199, 200, 201, 202, 203, 204]
                rel material:binding = </root/_materials/DarkGreen>
            }
        }
    }

    def Scope "_materials"
    {
        def Material "LightGreen"
        {
            token outputs:surface.connect = </root/_materials/LightGreen/Principled_BSDF.outputs:surface>
            custom string userProperties:blender:data_name = "LightGreen"

            def Shader "Principled_BSDF"
            {
                uniform token info:id = "UsdPreviewSurface"
                float inputs:clearcoat = 0
                float inputs:clearcoatRoughness = 0.03
                color3f inputs:diffuseColor = (0.13563336, 0.35640022, 0.06847818)
                float inputs:ior = 1.5
                float inputs:metallic = 0
                float inputs:opacity = 1
                float inputs:roughness = 0.6900348
                float inputs:specular = 0.5
                token outputs:surface
            }
        }

        def Material "DarkGreen"
        {
            token outputs:surface.connect = </root/_materials/DarkGreen/Principled_BSDF.outputs:surface>
            custom string userProperties:blender:data_name = "DarkGreen"

            def Shader "Principled_BSDF"
            {
                uniform token info:id = "UsdPreviewSurface"
                float inputs:clearcoat = 0
                float inputs:clearcoatRoughness = 0.03
                color3f inputs:diffuseColor = (0.030614575, 0.06071611, 0.027748836)
                float inputs:ior = 1.5
                float inputs:metallic = 0
                float inputs:opacity = 1
                float inputs:roughness = 0.6900348
                float inputs:specular = 0.5
                token outputs:surface
            }
        }
    }
}

