#usda 1.0
(
    defaultPrim = "root"
    doc = "Blender v5.1.2"
    metersPerUnit = 1
    upAxis = "Y"
)

def Xform "root" (
    customData = {
        dictionary Blender = {
            bool generated = 1
        }
    }
)
{
    float3 xformOp:rotateXYZ = (-90, -0, 0)
    uniform token[] xformOpOrder = ["xformOp:rotateXYZ"]

    def Xform "Pancake"
    {
        custom string userProperties:blender:object_name = "Pancake"

        def Mesh "Cylinder_034" (
            active = true
            prepend apiSchemas = ["MaterialBindingAPI"]
        )
        {
            uniform bool doubleSided = 1
            float3[] extent = [(-0.7107496, -0.7363419, -0.137659), (0.7315101, 0.70591736, 0.11765464)]
            int[] faceVertexCounts = [4, 4, 4, 4, 4, 4, 4, 4, 4, 8, 4, 4, 4, 4, 4, 4, 4, 4, 4, 4, 4, 4, 4, 4, 4, 4, 8, 4, 4, 4, 4, 4, 4, 4, 4, 4, 4, 4, 4, 3, 3, 3, 3, 3, 3, 3, 3, 4, 4, 4, 4, 4, 4, 4, 4, 4, 4, 4, 4, 4, 4, 4, 4, 4, 4, 4, 4, 4, 4, 4, 4, 4, 4, 4, 4, 4, 4, 4, 4, 4, 4, 4, 4, 4, 4, 4, 4, 4, 4, 4, 4, 4, 4, 4, 4, 4, 4, 4, 4, 4, 4, 4, 4, 4, 4, 4, 4, 4, 4, 4, 4, 4, 4, 4, 4, 4, 4, 4, 4, 4, 4, 4, 4, 4, 4, 4, 4, 4, 4, 4, 4, 4, 4, 4, 4, 4, 4, 4, 4, 4, 4, 4, 4, 4, 4, 4, 4, 4, 4, 4, 4, 4, 4, 4, 4, 4, 4, 4, 4, 4, 4, 4, 4, 4, 4, 4, 4, 4, 4, 4, 4, 4, 4, 4, 4, 4, 4, 4, 4, 4, 4, 4, 4, 4, 3, 4, 4, 4, 4, 3]
            int[] faceVertexIndices = [16, 17, 3, 1, 17, 18, 5, 3, 18, 19, 7, 5, 19, 20, 9, 7, 20, 21, 11, 9, 21, 22, 13, 11, 1, 25, 31, 15, 22, 23, 15, 13, 23, 16, 1, 15, 0, 14, 12, 10, 8, 6, 4, 2, 14, 0, 16, 23, 12, 14, 23, 22, 10, 12, 22, 21, 8, 10, 21, 20, 6, 8, 20, 19, 4, 6, 19, 18, 2, 4, 18, 17, 0, 2, 17, 16, 30, 38, 37, 29, 3, 24, 25, 1, 7, 27, 26, 5, 13, 30, 29, 11, 9, 28, 27, 7, 15, 31, 30, 13, 5, 26, 24, 3, 11, 29, 28, 9, 32, 34, 35, 36, 37, 38, 39, 33, 28, 36, 35, 27, 26, 34, 32, 24, 31, 39, 38, 30, 29, 37, 36, 28, 27, 35, 34, 26, 24, 32, 33, 25, 25, 33, 39, 31, 54, 41, 43, 56, 60, 53, 57, 62, 61, 55, 44, 49, 42, 47, 51, 45, 48, 59, 63, 50, 40, 42, 41, 43, 45, 44, 46, 48, 47, 49, 51, 50, 52, 54, 53, 55, 57, 56, 58, 60, 59, 61, 63, 62, 46, 47, 42, 40, 41, 42, 45, 43, 44, 45, 51, 49, 50, 51, 47, 48, 58, 59, 48, 46, 49, 50, 63, 61, 62, 63, 59, 60, 52, 53, 60, 58, 61, 62, 57, 55, 56, 57, 53, 54, 40, 41, 54, 52, 55, 56, 43, 44, 46, 40, 52, 58, 64, 99, 163, 98, 64, 100, 164, 99, 64, 101, 166, 100, 64, 98, 165, 101, 65, 98, 163, 103, 65, 104, 165, 98, 65, 102, 168, 104, 65, 103, 167, 102, 66, 102, 167, 106, 66, 107, 168, 102, 66, 105, 170, 107, 66, 106, 169, 105, 67, 101, 165, 109, 67, 110, 166, 101, 67, 108, 172, 110, 67, 109, 171, 108, 68, 108, 171, 112, 68, 113, 172, 108, 68, 111, 174, 113, 68, 112, 173, 111, 69, 100, 166, 115, 69, 116, 164, 100, 69, 114, 175, 116, 69, 115, 176, 114, 70, 99, 164, 118, 70, 119, 163, 99, 70, 117, 177, 119, 70, 118, 178, 117, 71, 118, 164, 120, 71, 121, 178, 118, 72, 116, 175, 122, 72, 120, 164, 116, 73, 123, 179, 124, 73, 126, 181, 123, 73, 125, 182, 126, 73, 124, 180, 125, 74, 128, 179, 123, 74, 127, 183, 128, 74, 129, 184, 127, 74, 123, 181, 129, 75, 131, 183, 127, 75, 130, 185, 131, 75, 132, 186, 130, 75, 127, 184, 132, 76, 134, 181, 126, 76, 133, 187, 134, 76, 135, 188, 133, 76, 126, 182, 135, 77, 137, 187, 133, 77, 136, 189, 137, 77, 138, 190, 136, 77, 133, 188, 138, 78, 140, 182, 125, 78, 139, 192, 140, 78, 141, 191, 139, 78, 125, 180, 141, 79, 143, 180, 124, 79, 142, 194, 143, 79, 144, 193, 142, 79, 124, 179, 144, 80, 145, 180, 143, 80, 143, 194, 146, 81, 147, 191, 141, 81, 141, 180, 145, 82, 103, 163, 148, 82, 151, 167, 103, 82, 128, 183, 151, 82, 148, 179, 128, 83, 104, 168, 152, 83, 149, 165, 104, 83, 129, 181, 149, 83, 152, 184, 129, 84, 105, 169, 153, 84, 154, 170, 105, 84, 130, 186, 154, 84, 153, 185, 130, 85, 106, 167, 151, 85, 153, 169, 106, 85, 131, 185, 153, 85, 151, 183, 131, 86, 107, 170, 154, 86, 152, 168, 107, 86, 132, 184, 152, 86, 154, 186, 132, 87, 109, 165, 149, 87, 155, 171, 109, 87, 134, 187, 155, 87, 149, 181, 134, 88, 110, 172, 156, 88, 150, 166, 110, 88, 135, 182, 150, 88, 156, 188, 135, 89, 111, 173, 157, 89, 158, 174, 111, 89, 136, 190, 158, 89, 157, 189, 136, 90, 112, 171, 155, 90, 157, 173, 112, 90, 137, 189, 157, 90, 155, 187, 137, 91, 113, 174, 158, 91, 156, 172, 113, 91, 138, 188, 156, 91, 158, 190, 138, 92, 114, 176, 160, 92, 159, 175, 114, 92, 139, 191, 159, 92, 160, 192, 139, 93, 115, 166, 150, 93, 160, 176, 115, 93, 140, 192, 160, 93, 150, 182, 140, 94, 117, 178, 162, 94, 161, 177, 117, 94, 142, 193, 161, 94, 162, 194, 142, 95, 119, 177, 161, 95, 148, 163, 119, 95, 144, 179, 148, 95, 161, 193, 144, 96, 162, 178, 121, 96, 146, 194, 162, 97, 122, 175, 159, 97, 159, 191, 147, 122, 97, 147, 122, 147, 81, 72, 120, 72, 81, 145, 120, 145, 80, 71, 121, 71, 80, 146, 121, 146, 96]
            rel material:binding = </root/_materials/LightBeige>
            normal3f[] normals = [(0.17057846, 0.956186, 0.23793153), (0.17057846, 0.956186, 0.23793153), (0.17057846, 0.956186, 0.23793153), (0.17057846, 0.956186, 0.23793153), (-0.5555082, 0.796743, 0.23793098), (-0.5555082, 0.796743, 0.23793098), (-0.5555082, 0.796743, 0.23793098), (-0.5555082, 0.796743, 0.23793098), (-0.9561857, 0.17057888, 0.2379321), (-0.9561857, 0.17057888, 0.2379321), (-0.9561857, 0.17057888, 0.2379321), (-0.9561857, 0.17057888, 0.2379321), (-0.7967427, -0.55550814, 0.237932), (-0.7967427, -0.55550814, 0.237932), (-0.7967427, -0.55550814, 0.237932), (-0.7967427, -0.55550814, 0.237932), (-0.17057866, -0.95618594, 0.23793152), (-0.17057866, -0.95618594, 0.23793152), (-0.17057866, -0.95618594, 0.23793152), (-0.17057866, -0.95618594, 0.23793152), (0.5555082, -0.79674304, 0.23793103), (0.5555082, -0.79674304, 0.23793103), (0.5555082, -0.79674304, 0.23793103), (0.5555082, -0.79674304, 0.23793103), (8.335885e-9, 0, 1), (8.335876e-9, 0, 1), (1.8338941e-8, 0, 1), (1.8338948e-8, 0, 1), (0.9561859, -0.17057881, 0.23793173), (0.9561859, -0.17057881, 0.23793173), (0.9561859, -0.17057881, 0.23793173), (0.9561859, -0.17057881, 0.23793173), (0.7967427, 0.55550796, 0.23793265), (0.7967427, 0.55550796, 0.23793265), (0.7967427, 0.55550796, 0.23793265), (0.7967427, 0.55550796, 0.23793265), (2.5864921e-9, 0, -1), (2.5864921e-9, 0, -1), (2.5864921e-9, 0, -1), (2.5864921e-9, 0, -1), (2.5864921e-9, 0, -1), (2.5864921e-9, 0, -1), (2.5864921e-9, 0, -1), (2.5864921e-9, 0, -1), (0.7967428, 0.55550796, -0.2379325), (0.7967428, 0.55550796, -0.2379325), (0.7967428, 0.55550796, -0.2379325), (0.7967428, 0.55550796, -0.2379325), (0.9561858, -0.17057878, -0.23793168), (0.9561858, -0.17057878, -0.23793168), (0.9561858, -0.17057878, -0.23793168), (0.9561858, -0.17057878, -0.23793168), (0.5555082, -0.79674304, -0.23793103), (0.5555082, -0.79674304, -0.23793103), (0.5555082, -0.79674304, -0.23793103), (0.5555082, -0.79674304, -0.23793103), (-0.17057866, -0.95618594, -0.23793152), (-0.17057866, -0.95618594, -0.23793152), (-0.17057866, -0.95618594, -0.23793152), (-0.17057866, -0.95618594, -0.23793152), (-0.7967428, -0.55550826, -0.23793162), (-0.7967428, -0.55550826, -0.23793162), (-0.7967428, -0.55550826, -0.23793162), (-0.7967428, -0.55550826, -0.23793162), (-0.95618576, 0.17057887, -0.23793206), (-0.95618576, 0.17057887, -0.23793206), (-0.95618576, 0.17057887, -0.23793206), (-0.95618576, 0.17057887, -0.23793206), (-0.55550826, 0.796743, -0.23793098), (-0.55550826, 0.796743, -0.23793098), (-0.55550826, 0.796743, -0.23793098), (-0.55550826, 0.796743, -0.23793098), (0.17057846, 0.956186, -0.23793153), (0.17057846, 0.956186, -0.23793153), (0.17057846, 0.956186, -0.23793153), (0.17057846, 0.956186, -0.23793153), (-0.43415076, 0.622685, 0.65098125), (-0.43415076, 0.622685, 0.65098125), (-0.43415076, 0.622685, 0.65098125), (-0.43415076, 0.622685, 0.65098125), (-5.277564e-15, 0, 1), (-5.8803585e-15, 0, 1), (8.335876e-9, 0, 1), (8.335885e-9, 0, 1), (-3.0009147e-8, 0, 1), (-3.0009147e-8, 0, 1), (-7.0111983e-15, 0, 1), (4.9005947e-15, 0, 1), (1.0003059e-8, 0, 1), (1.0003058e-8, 0, 1), (6.6687007e-9, 0, 1), (6.668701e-9, 0, 1), (-2.3340464e-8, 0, 1), (-2.3340435e-8, 0, 1), (-3.0009147e-8, 0, 1), (-3.0009147e-8, 0, 1), (1.8338948e-8, 0, 1), (1.8338941e-8, 0, 1), (1.0003058e-8, 0, 1), (1.0003059e-8, 0, 1), (4.9005947e-15, 0, 1), (-7.0111983e-15, 0, 1), (-5.8803585e-15, 0, 1), (-5.277564e-15, 0, 1), (6.668701e-9, 0, 1), (6.6687007e-9, 0, 1), (-2.3340435e-8, 0, 1), (-2.3340464e-8, 0, 1), (0, 0, 1), (0, 0, 1), (0, 0, 1), (0, 0, 1), (0, 0, 1), (0, 0, 1), (0, 0, 1), (0, 0, 1), (0.6226833, 0.43414974, 0.6509835), (0.6226833, 0.43414974, 0.6509835), (0.6226833, 0.43414974, 0.6509835), (0.6226833, 0.43414974, 0.6509835), (0.4341495, -0.6226827, 0.65098417), (0.4341495, -0.6226827, 0.65098417), (0.4341495, -0.6226827, 0.65098417), (0.4341495, -0.6226827, 0.65098417), (-0.7472947, 0.13331388, 0.65098226), (-0.7472947, 0.13331388, 0.65098226), (-0.7472947, 0.13331388, 0.65098226), (-0.7472947, 0.13331388, 0.65098226), (0.13331333, 0.7472936, 0.65098375), (0.13331333, 0.7472936, 0.65098375), (0.13331333, 0.7472936, 0.65098375), (0.13331333, 0.7472936, 0.65098375), (0.7472943, -0.1333137, 0.65098286), (0.7472943, -0.1333137, 0.65098286), (0.7472943, -0.1333137, 0.65098286), (0.7472943, -0.1333137, 0.65098286), (-0.13331328, -0.7472935, 0.650984), (-0.13331328, -0.7472935, 0.650984), (-0.13331328, -0.7472935, 0.650984), (-0.13331328, -0.7472935, 0.650984), (-0.62268394, -0.43415025, 0.65098256), (-0.62268394, -0.43415025, 0.65098256), (-0.62268394, -0.43415025, 0.65098256), (-0.62268394, -0.43415025, 0.65098256), (-0.8964572, -0.44313034, 0), (-0.8964572, -0.44313034, 0), (-0.8964572, -0.44313034, 0), (-0.8964572, -0.44313034, 0), (-0.4431303, 0.8964572, 0), (-0.4431303, 0.8964572, 0), (-0.4431303, 0.8964572, 0), (-0.4431303, 0.8964572, 0), (0, 0, 1), (0, 0, 1), (0, 0, 1), (0, 0, 1), (0.44313037, -0.8964572, 0), (0.44313037, -0.8964572, 0), (0.44313037, -0.8964572, 0), (0.44313037, -0.8964572, 0), (0.8964572, 0.4431303, 0), (0.8964572, 0.4431303, 0), (0.8964572, 0.4431303, 0), (0.8964572, 0.4431303, 0), (-0.26172575, -0.7734129, -0.5773493), (-0.26172575, -0.7734129, -0.5773493), (-0.26172575, -0.7734129, -0.5773493), (-0.26172614, -0.77341264, 0.57734936), (-0.26172614, -0.77341264, 0.57734936), (-0.26172614, -0.77341264, 0.57734936), (0.7734111, -0.2617329, -0.5773483), (0.7734111, -0.2617329, -0.5773483), (0.7734111, -0.2617329, -0.5773483), (0.7734116, -0.26173273, 0.5773479), (0.7734116, -0.26173273, 0.5773479), (0.7734116, -0.26173273, 0.5773479), (-0.7734111, 0.26173583, -0.577347), (-0.7734111, 0.26173583, -0.577347), (-0.7734111, 0.26173583, -0.577347), (-0.7734114, 0.26173452, 0.57734716), (-0.7734114, 0.26173452, 0.57734716), (-0.7734114, 0.26173452, 0.57734716), (0.2617231, 0.773416, -0.5773463), (0.2617231, 0.773416, -0.5773463), (0.2617231, 0.773416, -0.5773463), (0.26172274, 0.7734155, 0.577347), (0.26172274, 0.7734155, 0.577347), (0.26172274, 0.7734155, 0.577347), (0.3133421, -0.6338944, -0.7071031), (0.3133421, -0.6338944, -0.7071031), (0.3133421, -0.6338944, -0.7071031), (0.3133421, -0.6338944, -0.7071031), (-0.3205468, -0.94723266, 0), (-0.3205468, -0.94723266, 0), (-0.3205468, -0.94723266, 0), (-0.3205468, -0.94723266, 0), (0.3133421, -0.6338944, 0.7071031), (0.3133421, -0.6338944, 0.7071031), (0.3133421, -0.6338944, 0.7071031), (0.3133421, -0.6338944, 0.7071031), (0.94722974, -0.32055566, 0), (0.94722974, -0.32055566, 0), (0.94722974, -0.32055566, 0), (0.94722974, -0.32055566, 0), (0.6338908, 0.31334037, -0.70710695), (0.6338908, 0.31334037, -0.70710695), (0.6338908, 0.31334037, -0.70710695), (0.6338908, 0.31334037, -0.70710695), (0.63389015, 0.31334054, 0.7071075), (0.63389015, 0.31334054, 0.7071075), (0.63389015, 0.31334054, 0.7071075), (0.63389015, 0.31334054, 0.7071075), (0.32054317, 0.9472339, 0), (0.32054317, 0.9472339, 0), (0.32054317, 0.9472339, 0), (0.32054317, 0.9472339, 0), (-0.31334293, 0.6338961, -0.70710117), (-0.31334293, 0.6338961, -0.70710117), (-0.31334293, 0.6338961, -0.70710117), (-0.31334293, 0.6338961, -0.70710117), (-0.31334308, 0.6338959, 0.70710117), (-0.31334308, 0.6338959, 0.70710117), (-0.31334308, 0.6338959, 0.70710117), (-0.31334308, 0.6338959, 0.70710117), (-0.9472289, 0.32055795, 0), (-0.9472289, 0.32055795, 0), (-0.9472289, 0.32055795, 0), (-0.9472289, 0.32055795, 0), (-0.63389105, -0.31334043, -0.70710665), (-0.63389105, -0.31334043, -0.70710665), (-0.63389105, -0.31334043, -0.70710665), (-0.63389105, -0.31334043, -0.70710665), (-0.6338907, -0.31334046, 0.707107), (-0.6338907, -0.31334046, 0.707107), (-0.6338907, -0.31334046, 0.707107), (-0.6338907, -0.31334046, 0.707107), (5.3032445e-9, 0, -1), (5.3032445e-9, 0, -1), (5.3032445e-9, 0, -1), (5.3032445e-9, 0, -1), (0.008530173, 0.0039157975, 0.999956), (0.0037027197, 0.0015971493, 0.99999183), (0.010865448, 0.004685152, 0.9999301), (0.010865448, 0.004685152, 0.9999301), (0.008530173, 0.0039157975, 0.999956), (0.0013956083, 0.00042460766, 0.9999989), (-1.953102e-7, 4.0311397e-7, 1), (0.0037027197, 0.0015971493, 0.99999183), (0.008530173, 0.0039157975, 0.999956), (-0.011897339, -0.003615185, 0.99992263), (-0.011897339, -0.003615185, 0.99992263), (0.0013956083, 0.00042460766, 0.9999989), (-0.005151745, 0.012037837, 0.99991417), (-0.005151745, 0.012037837, 0.99991417), (-0.005151745, 0.012037837, 0.99991417), (-0.005151745, 0.012037837, 0.99991417), (0.032616023, 0.0077194725, 0.9994381), (0.032616023, 0.0077194725, 0.9994381), (0.032616023, 0.0077194725, 0.9994381), (0.032616023, 0.0077194725, 0.9994381), (-0.01590015, 0.03392702, 0.99929786), (-0.01590015, 0.03392702, 0.99929786), (-0.01590015, 0.03392702, 0.99929786), (-0.01590015, 0.03392702, 0.99929786), (-0.032980293, 0.052443895, 0.99807906), (-0.032980293, 0.052443895, 0.99807906), (-0.032980293, 0.052443895, 0.99807906), (-0.032980293, 0.052443895, 0.99807906), (0.050661955, -0.01444921, 0.99861133), (0.050661955, -0.01444921, 0.99861133), (0.050661955, -0.01444921, 0.99861133), (0.050661955, -0.01444921, 0.99861133), (0.077790424, -0.00672328, 0.996947), (0.077790424, -0.00672328, 0.996947), (0.077790424, -0.00672328, 0.996947), (0.077790424, -0.00672328, 0.996947), (-0.04892539, 0.06739427, 0.9965261), (-0.04892539, 0.06739427, 0.9965261), (-0.04892539, 0.06739427, 0.9965261), (-0.04892539, 0.06739427, 0.9965261), (0.05947928, 0.3747279, 0.925225), (0.05947928, 0.3747279, 0.925225), (0.05947928, 0.3747279, 0.925225), (0.05947928, 0.3747279, 0.925225), (0.25823262, 0.28887743, 0.9218816), (0.25823262, 0.28887743, 0.9218816), (0.25823262, 0.28887743, 0.9218816), (0.25823262, 0.28887743, 0.9218816), (-0.0054666665, 0.029454567, 0.9995512), (-0.0054666665, 0.029454567, 0.9995512), (-0.0054666665, 0.029454567, 0.9995512), (-0.0054666665, 0.029454567, 0.9995512), (-0.02792619, -0.013345824, 0.9995209), (-0.02792619, -0.013345824, 0.9995209), (-0.02792619, -0.013345824, 0.9995209), (-0.02792619, -0.013345824, 0.9995209), (-0.03236613, -0.029194526, 0.9990496), (-0.03236613, -0.029194526, 0.9990496), (-0.03236613, -0.029194526, 0.9990496), (-0.03236613, -0.029194526, 0.9990496), (0.008733668, 0.039318886, 0.9991885), (0.008733668, 0.039318886, 0.9991885), (0.008733668, 0.039318886, 0.9991885), (0.008733668, 0.039318886, 0.9991885), (0.008454776, 0.053946853, 0.998508), (0.008454776, 0.053946853, 0.998508), (0.008454776, 0.053946853, 0.998508), (0.008454776, 0.053946853, 0.998508), (-0.055817127, -0.034605455, 0.99784106), (-0.055817127, -0.034605455, 0.99784106), (-0.055817127, -0.034605455, 0.99784106), (-0.055817127, -0.034605455, 0.99784106), (-0.29994088, 0.030396719, 0.9534733), (-0.29994088, 0.030396719, 0.9534733), (-0.29994088, 0.030396719, 0.9534733), (-0.29994088, 0.030396719, 0.9534733), (-0.19228685, 0.16779575, 0.96688694), (-0.19228685, 0.16779575, 0.96688694), (-0.19228685, 0.16779575, 0.96688694), (-0.19228685, 0.16779575, 0.96688694), (-0.03237417, -0.0045475485, 0.99946547), (-0.03237417, -0.0045475485, 0.99946547), (-0.03237417, -0.0045475485, 0.99946547), (-0.03237417, -0.0045475485, 0.99946547), (-1.3558305e-7, 4.37969e-7, 1), (-8.846942e-8, 2.6210654e-7, 1), (-1.953102e-7, 4.0311397e-7, 1), (0.0013956083, 0.00042460766, 0.9999989), (-0.0020497558, -0.07845541, 0.9969156), (-0.0020497558, -0.07845541, 0.9969156), (-0.0020497558, -0.07845541, 0.9969156), (-0.0020497558, -0.07845541, 0.9969156), (-0.060564257, -0.06344576, 0.9961459), (-0.060564257, -0.06344576, 0.9961459), (-0.060564257, -0.06344576, 0.9961459), (-0.060564257, -0.06344576, 0.9961459), (-2.3469703e-7, 3.6467728e-7, 1), (0.0037027197, 0.0015971493, 0.99999183), (-1.953102e-7, 4.0311397e-7, 1), (-1.4872653e-7, 2.3109446e-7, 1), (0.013484226, 0.021596448, 0.9996758), (0.013484226, 0.021596448, 0.9996758), (0.013484226, 0.021596448, 0.9996758), (0.013484226, 0.021596448, 0.9996758), (0.055443577, 0.012027487, 0.9983894), (0.055443577, 0.012027487, 0.9983894), (0.055443577, 0.012027487, 0.9983894), (0.055443577, 0.012027487, 0.9983894), (0.048051707, -0.035789482, 0.9982035), (0.048051707, -0.035789482, 0.9982035), (0.048051707, -0.035789482, 0.9982035), (0.048051707, -0.035789482, 0.9982035), (0, 0, 1), (-1.4872653e-7, 2.3109446e-7, 1), (-1.953102e-7, 4.0311397e-7, 1), (-8.6548555e-9, 0, 1), (0.07726526, -0.026691306, 0.99665326), (0.07726526, -0.026691306, 0.99665326), (0.07726526, -0.026691306, 0.99665326), (0.07726526, -0.026691306, 0.99665326), (-0.06548781, -0.10005773, 0.99282414), (-0.06548781, -0.10005773, 0.99282414), (-0.06548781, -0.10005773, 0.99282414), (-0.06548781, -0.10005773, 0.99282414), (-1.8250956e-8, 0, 1), (-8.6548555e-9, 0, 1), (-1.953102e-7, 4.0311397e-7, 1), (-8.846942e-8, 2.6210654e-7, 1), (0.010866893, 0.0046837386, -0.9999301), (0.010866893, 0.0046837386, -0.9999301), (0.010866893, 0.0046837386, -0.9999301), (0.010866893, 0.0046837386, -0.9999301), (-0.0051510385, 0.012035371, -0.9999143), (-0.0051510385, 0.012035371, -0.9999143), (-0.0051510385, 0.012035371, -0.9999143), (-0.0051510385, 0.012035371, -0.9999143), (-0.0058723204, -0.0017851582, -0.99998116), (0.0013956125, 0.00042411732, -0.99999887), (-0.011897453, -0.00361677, -0.9999227), (-0.011897453, -0.00361677, -0.9999227), (-0.0058723204, -0.0017851582, -0.99998116), (-4.020011e-9, 0, -1), (-1.0136284e-9, 0, -1), (0.0013956125, 0.00042411732, -0.99999887), (0.032618754, 0.0077182576, -0.99943805), (0.032618754, 0.0077182576, -0.99943805), (0.032618754, 0.0077182576, -0.99943805), (0.032618754, 0.0077182576, -0.99943805), (0.05066521, -0.014451679, -0.9986111), (0.05066521, -0.014451679, -0.9986111), (0.05066521, -0.014451679, -0.9986111), (0.05066521, -0.014451679, -0.9986111), (-0.032976754, 0.05244078, -0.9980794), (-0.032976754, 0.05244078, -0.9980794), (-0.032976754, 0.05244078, -0.9980794), (-0.032976754, 0.05244078, -0.9980794), (-0.015898451, 0.033923164, -0.999298), (-0.015898451, 0.033923164, -0.999298), (-0.015898451, 0.033923164, -0.999298), (-0.015898451, 0.033923164, -0.999298), (0.07778969, -0.006729719, -0.996947), (0.07778969, -0.006729719, -0.996947), (0.07778969, -0.006729719, -0.996947), (0.07778969, -0.006729719, -0.996947), (0.25822914, 0.28887355, -0.9218839), (0.25822914, 0.28887355, -0.9218839), (0.25822914, 0.28887355, -0.9218839), (0.25822914, 0.28887355, -0.9218839), (0.059479173, 0.37473184, -0.9252234), (0.059479173, 0.37473184, -0.9252234), (0.059479173, 0.37473184, -0.9252234), (0.059479173, 0.37473184, -0.9252234), (-0.048920743, 0.06739721, -0.99652606), (-0.048920743, 0.06739721, -0.99652606), (-0.048920743, 0.06739721, -0.99652606), (-0.048920743, 0.06739721, -0.99652606), (-0.0054698256, 0.029453477, -0.99955124), (-0.0054698256, 0.029453477, -0.99955124), (-0.0054698256, 0.029453477, -0.99955124), (-0.0054698256, 0.029453477, -0.99955124), (0.008727241, 0.0393202, -0.99918854), (0.008727241, 0.0393202, -0.99918854), (0.008727241, 0.0393202, -0.99918854), (0.008727241, 0.0393202, -0.99918854), (-0.032370094, -0.029194085, -0.9990495), (-0.032370094, -0.029194085, -0.9990495), (-0.032370094, -0.029194085, -0.9990495), (-0.032370094, -0.029194085, -0.9990495), (-0.027928306, -0.013346733, -0.9995208), (-0.027928306, -0.013346733, -0.9995208), (-0.027928306, -0.013346733, -0.9995208), (-0.027928306, -0.013346733, -0.9995208), (0.008451521, 0.05394795, -0.998508), (0.008451521, 0.05394795, -0.998508), (0.008451521, 0.05394795, -0.998508), (0.008451521, 0.05394795, -0.998508), (-0.19228677, 0.16779566, -0.96688694), (-0.19228677, 0.16779566, -0.96688694), (-0.19228677, 0.16779566, -0.96688694), (-0.19228677, 0.16779566, -0.96688694), (-0.29994103, 0.030396817, -0.9534733), (-0.29994103, 0.030396817, -0.9534733), (-0.29994103, 0.030396817, -0.9534733), (-0.29994103, 0.030396817, -0.9534733), (-0.05581917, -0.03460525, -0.997841), (-0.05581917, -0.03460525, -0.997841), (-0.05581917, -0.03460525, -0.997841), (-0.05581917, -0.03460525, -0.997841), (-0.03237445, -0.0045481483, -0.99946547), (-0.03237445, -0.0045481483, -0.99946547), (-0.03237445, -0.0045481483, -0.99946547), (-0.03237445, -0.0045481483, -0.99946547), (-0.060564242, -0.063445754, -0.9961459), (-0.060564242, -0.063445754, -0.9961459), (-0.060564242, -0.063445754, -0.9961459), (-0.060564242, -0.063445754, -0.9961459), (-0.0020497679, -0.078455955, -0.99691546), (-0.0020497679, -0.078455955, -0.99691546), (-0.0020497679, -0.078455955, -0.99691546), (-0.0020497679, -0.078455955, -0.99691546), (3.0814329e-9, 0, -1), (0.0013956125, 0.00042411732, -0.99999887), (-1.0136284e-9, 0, -1), (1.8441115e-9, 0, -1), (-8.7737195e-9, 0, -1), (-6.4952e-9, 0, -1), (-1.0136284e-9, 0, -1), (-4.020011e-9, 0, -1), (0.04805203, -0.03578973, -0.99820346), (0.04805203, -0.03578973, -0.99820346), (0.04805203, -0.03578973, -0.99820346), (0.04805203, -0.03578973, -0.99820346), (0.055443577, 0.012027467, -0.9983894), (0.055443577, 0.012027467, -0.9983894), (0.055443577, 0.012027467, -0.9983894), (0.055443577, 0.012027467, -0.9983894), (0.01348477, 0.021596259, -0.9996758), (0.01348477, 0.021596259, -0.9996758), (0.01348477, 0.021596259, -0.9996758), (0.01348477, 0.021596259, -0.9996758), (-2.5534261e-9, 0, -1), (-1.3425562e-9, 0, -1), (-1.0136284e-9, 0, -1), (-6.4952e-9, 0, -1), (0.07726579, -0.026691496, -0.99665314), (0.07726579, -0.026691496, -0.99665314), (0.07726579, -0.026691496, -0.99665314), (0.07726579, -0.026691496, -0.99665314), (-0.0654883, -0.10005843, -0.9928241), (-0.0654883, -0.10005843, -0.9928241), (-0.0654883, -0.10005843, -0.9928241), (-0.0654883, -0.10005843, -0.9928241), (0, 0, -1), (1.8441115e-9, 0, -1), (-1.0136284e-9, 0, -1), (-1.3425562e-9, 0, -1), (0.32579008, 0.19724153, 0.92463857), (0.32579008, 0.19724153, 0.92463857), (0.32579008, 0.19724153, 0.92463857), (0.32579008, 0.19724153, 0.92463857), (0.49149087, 0.094140425, 0.8657796), (0.49149087, 0.094140425, 0.8657796), (0.49149087, 0.094140425, 0.8657796), (0.49149087, 0.094140425, 0.8657796), (0.49149325, 0.09413821, -0.86577857), (0.49149325, 0.09413821, -0.86577857), (0.49149325, 0.09413821, -0.86577857), (0.49149325, 0.09413821, -0.86577857), (0.3257921, 0.19724214, -0.92463773), (0.3257921, 0.19724214, -0.92463773), (0.3257921, 0.19724214, -0.92463773), (0.3257921, 0.19724214, -0.92463773), (-0.1590112, 0.56146497, 0.81207913), (-0.1590112, 0.56146497, 0.81207913), (-0.1590112, 0.56146497, 0.81207913), (-0.1590112, 0.56146497, 0.81207913), (-0.1271769, 0.39134526, 0.91141367), (-0.1271769, 0.39134526, 0.91141367), (-0.1271769, 0.39134526, 0.91141367), (-0.1271769, 0.39134526, 0.91141367), (-0.127178, 0.39134264, -0.9114146), (-0.127178, 0.39134264, -0.9114146), (-0.127178, 0.39134264, -0.9114146), (-0.127178, 0.39134264, -0.9114146), (-0.15900902, 0.5614665, -0.8120784), (-0.15900902, 0.5614665, -0.8120784), (-0.15900902, 0.5614665, -0.8120784), (-0.15900902, 0.5614665, -0.8120784), (0.5198751, 0.7693249, 0.37130722), (0.5198751, 0.7693249, 0.37130722), (0.5198751, 0.7693249, 0.37130722), (0.5198751, 0.7693249, 0.37130722), (0.27197683, 0.8859863, 0.37557513), (0.27197683, 0.8859863, 0.37557513), (0.27197683, 0.8859863, 0.37557513), (0.27197683, 0.8859863, 0.37557513), (0.2719751, 0.88598776, -0.3755732), (0.2719751, 0.88598776, -0.3755732), (0.2719751, 0.88598776, -0.3755732), (0.2719751, 0.88598776, -0.3755732), (0.51987326, 0.7693257, -0.3713083), (0.51987326, 0.7693257, -0.3713083), (0.51987326, 0.7693257, -0.3713083), (0.51987326, 0.7693257, -0.3713083), (0.64307535, 0.22883539, 0.7308135), (0.64307535, 0.22883539, 0.7308135), (0.64307535, 0.22883539, 0.7308135), (0.64307535, 0.22883539, 0.7308135), (0.6795857, 0.55451626, 0.48028636), (0.6795857, 0.55451626, 0.48028636), (0.6795857, 0.55451626, 0.48028636), (0.6795857, 0.55451626, 0.48028636), (0.67958623, 0.55451274, -0.48028976), (0.67958623, 0.55451274, -0.48028976), (0.67958623, 0.55451274, -0.48028976), (0.67958623, 0.55451274, -0.48028976), (0.6430757, 0.22882707, -0.73081577), (0.6430757, 0.22882707, -0.73081577), (0.6430757, 0.22882707, -0.73081577), (0.6430757, 0.22882707, -0.73081577), (-0.008134523, 0.8697288, 0.49346292), (-0.008134523, 0.8697288, 0.49346292), (-0.008134523, 0.8697288, 0.49346292), (-0.008134523, 0.8697288, 0.49346292), (-0.1921245, 0.6817191, 0.70593715), (-0.1921245, 0.6817191, 0.70593715), (-0.1921245, 0.6817191, 0.70593715), (-0.1921245, 0.6817191, 0.70593715), (-0.19211783, 0.68172354, -0.7059347), (-0.19211783, 0.68172354, -0.7059347), (-0.19211783, 0.68172354, -0.7059347), (-0.19211783, 0.68172354, -0.7059347), (-0.00813266, 0.8697293, -0.4934621), (-0.00813266, 0.8697293, -0.4934621), (-0.00813266, 0.8697293, -0.4934621), (-0.00813266, 0.8697293, -0.4934621), (-0.046587124, 0.34687755, 0.9367527), (-0.046587124, 0.34687755, 0.9367527), (-0.046587124, 0.34687755, 0.9367527), (-0.046587124, 0.34687755, 0.9367527), (-0.045658194, 0.37813345, 0.9246245), (-0.045658194, 0.37813345, 0.9246245), (-0.045658194, 0.37813345, 0.9246245), (-0.045658194, 0.37813345, 0.9246245), (-0.045665536, 0.37813577, -0.9246232), (-0.045665536, 0.37813577, -0.9246232), (-0.045665536, 0.37813577, -0.9246232), (-0.045665536, 0.37813577, -0.9246232), (-0.04659176, 0.3468764, -0.9367529), (-0.04659176, 0.3468764, -0.9367529), (-0.04659176, 0.3468764, -0.9367529), (-0.04659176, 0.3468764, -0.9367529), (-0.40388092, -0.17532001, 0.8978546), (-0.40388092, -0.17532001, 0.8978546), (-0.40388092, -0.17532001, 0.8978546), (-0.40388092, -0.17532001, 0.8978546), (-0.33025563, -0.13074955, 0.9347918), (-0.33025563, -0.13074955, 0.9347918), (-0.33025563, -0.13074955, 0.9347918), (-0.33025563, -0.13074955, 0.9347918), (-0.3302569, -0.13075018, -0.93479127), (-0.3302569, -0.13075018, -0.93479127), (-0.3302569, -0.13075018, -0.93479127), (-0.3302569, -0.13075018, -0.93479127), (-0.40388232, -0.1753199, -0.8978541), (-0.40388232, -0.1753199, -0.8978541), (-0.40388232, -0.1753199, -0.8978541), (-0.40388232, -0.1753199, -0.8978541), (-0.723845, 0.45408455, 0.5194765), (-0.723845, 0.45408455, 0.5194765), (-0.723845, 0.45408455, 0.5194765), (-0.723845, 0.45408455, 0.5194765), (-0.85623884, 0.190532, 0.48015893), (-0.85623884, 0.190532, 0.48015893), (-0.85623884, 0.190532, 0.48015893), (-0.85623884, 0.190532, 0.48015893), (-0.8562386, 0.19053197, -0.4801594), (-0.8562386, 0.19053197, -0.4801594), (-0.8562386, 0.19053197, -0.4801594), (-0.8562386, 0.19053197, -0.4801594), (-0.72384477, 0.45408443, -0.51947683), (-0.72384477, 0.45408443, -0.51947683), (-0.72384477, 0.45408443, -0.51947683), (-0.72384477, 0.45408443, -0.51947683), (-0.16624546, 0.50567806, 0.8465531), (-0.16624546, 0.50567806, 0.8465531), (-0.16624546, 0.50567806, 0.8465531), (-0.16624546, 0.50567806, 0.8465531), (-0.48578763, 0.5983747, 0.63714844), (-0.48578763, 0.5983747, 0.63714844), (-0.48578763, 0.5983747, 0.63714844), (-0.48578763, 0.5983747, 0.63714844), (-0.48578715, 0.5983744, -0.6371491), (-0.48578715, 0.5983744, -0.6371491), (-0.48578715, 0.5983744, -0.6371491), (-0.48578715, 0.5983744, -0.6371491), (-0.16624838, 0.50567836, -0.8465523), (-0.16624838, 0.50567836, -0.8465523), (-0.16624838, 0.50567836, -0.8465523), (-0.16624838, 0.50567836, -0.8465523), (-0.8391638, -0.00909129, 0.54380274), (-0.8391638, -0.00909129, 0.54380274), (-0.8391638, -0.00909129, 0.54380274), (-0.8391638, -0.00909129, 0.54380274), (-0.61854565, -0.14718902, 0.77183974), (-0.61854565, -0.14718902, 0.77183974), (-0.61854565, -0.14718902, 0.77183974), (-0.61854565, -0.14718902, 0.77183974), (-0.61854553, -0.14718924, -0.77183986), (-0.61854553, -0.14718924, -0.77183986), (-0.61854553, -0.14718924, -0.77183986), (-0.61854553, -0.14718924, -0.77183986), (-0.83916384, -0.009090402, -0.5438026), (-0.83916384, -0.009090402, -0.5438026), (-0.83916384, -0.009090402, -0.5438026), (-0.83916384, -0.009090402, -0.5438026), (-0.06671169, -0.36266816, 0.9295275), (-0.06671169, -0.36266816, 0.9295275), (-0.06671169, -0.36266816, 0.9295275), (-0.06671169, -0.36266816, 0.9295275), (0.1425824, -0.607426, 0.78147537), (0.1425824, -0.607426, 0.78147537), (0.1425824, -0.607426, 0.78147537), (0.1425824, -0.607426, 0.78147537), (0.1425821, -0.60742486, -0.7814763), (0.1425821, -0.60742486, -0.7814763), (0.1425821, -0.60742486, -0.7814763), (0.1425821, -0.60742486, -0.7814763), (-0.06671137, -0.3626677, -0.92952764), (-0.06671137, -0.3626677, -0.92952764), (-0.06671137, -0.3626677, -0.92952764), (-0.06671137, -0.3626677, -0.92952764), (-0.36586085, -0.062895834, 0.92854184), (-0.36586085, -0.062895834, 0.92854184), (-0.36586085, -0.062895834, 0.92854184), (-0.36586085, -0.062895834, 0.92854184), (-0.36023322, -0.15918078, 0.9191809), (-0.36023322, -0.15918078, 0.9191809), (-0.36023322, -0.15918078, 0.9191809), (-0.36023322, -0.15918078, 0.9191809), (-0.36023286, -0.15918049, -0.9191811), (-0.36023286, -0.15918049, -0.9191811), (-0.36023286, -0.15918049, -0.9191811), (-0.36023286, -0.15918049, -0.9191811), (-0.3658612, -0.06289611, -0.92854166), (-0.3658612, -0.06289611, -0.92854166), (-0.3658612, -0.06289611, -0.92854166), (-0.3658612, -0.06289611, -0.92854166), (0.37014136, -0.35124534, 0.8600129), (0.37014136, -0.35124534, 0.8600129), (0.37014136, -0.35124534, 0.8600129), (0.37014136, -0.35124534, 0.8600129), (0.2877994, -0.11834208, 0.95035094), (0.2877994, -0.11834208, 0.95035094), (0.2877994, -0.11834208, 0.95035094), (0.2877994, -0.11834208, 0.95035094), (0.28779897, -0.11834206, -0.95035094), (0.28779897, -0.11834206, -0.95035094), (0.28779897, -0.11834206, -0.95035094), (0.28779897, -0.11834206, -0.95035094), (0.37014058, -0.3512447, -0.8600134), (0.37014058, -0.3512447, -0.8600134), (0.37014058, -0.3512447, -0.8600134), (0.37014058, -0.3512447, -0.8600134), (0.17587952, 0.19538054, 0.9648279), (0.17587952, 0.19538054, 0.9648279), (0.17587952, 0.19538054, 0.9648279), (0.17587952, 0.19538054, 0.9648279), (0.15070955, 0.3091393, 0.93899924), (0.15070955, 0.3091393, 0.93899924), (0.15070955, 0.3091393, 0.93899924), (0.15070955, 0.3091393, 0.93899924), (0.15070996, 0.30913934, -0.9389991), (0.15070996, 0.30913934, -0.9389991), (0.15070996, 0.30913934, -0.9389991), (0.15070996, 0.30913934, -0.9389991), (0.17587918, 0.19538042, -0.964828), (0.17587918, 0.19538042, -0.964828), (0.17587918, 0.19538042, -0.964828), (0.17587918, 0.19538042, -0.964828), (0.44131914, -0.26045877, 0.8587193), (0.44131914, -0.26045877, 0.8587193), (0.44131914, -0.26045877, 0.8587193), (0.44131914, -0.26045877, 0.8587193), (0.4413182, -0.26045802, -0.8587199), (0.4413182, -0.26045802, -0.8587199), (0.4413182, -0.26045802, -0.8587199), (0.4413182, -0.26045802, -0.8587199), (-0.276491, -0.7161658, 0.6408272), (-0.276491, -0.7161658, 0.6408272), (-0.276491, -0.7161658, 0.6408272), (-0.276491, -0.7161658, 0.6408272), (-0.2764905, -0.7161646, -0.64082855), (-0.2764905, -0.7161646, -0.64082855), (-0.2764905, -0.7161646, -0.64082855), (-0.2764905, -0.7161646, -0.64082855), (-0.032472003, -0.9994726, 0), (-0.032472003, -0.9994726, 0), (-0.032472003, -0.9994726, 0), (0.094198905, -0.9955533, 0), (0.094198905, -0.9955533, 0), (0.094198905, -0.9955533, 0), (0.094198905, -0.9955533, 0), (0.18885453, -0.9820052, 0), (0.18885453, -0.9820052, 0), (0.18885453, -0.9820052, 0), (0.18885453, -0.9820052, 0), (0.4828608, -0.87569714, 0), (0.4828608, -0.87569714, 0), (0.4828608, -0.87569714, 0), (0.4828608, -0.87569714, 0), (0.55668366, -0.8307246, 0), (0.55668366, -0.8307246, 0), (0.55668366, -0.8307246, 0), (0.55668366, -0.8307246, 0), (0.5701933, -0.82151055, 0), (0.5701933, -0.82151055, 0), (0.5701933, -0.82151055, 0)] (
                interpolation = "faceVarying"
            )
            point3f[] points = [(0.39500058, 0.585858, -0.137659), (0.39500058, 0.585858, 0.048774585), (-0.14267299, 0.68177617, -0.137659), (-0.14267299, 0.68177617, 0.048774585), (-0.59069, 0.36940798, -0.137659), (-0.59069, 0.36940798, 0.048774585), (-0.6866083, -0.16826552, -0.137659), (-0.6866083, -0.16826552, 0.048774585), (-0.3742401, -0.6162825, -0.137659), (-0.3742401, -0.6162825, 0.048774585), (0.16343352, -0.71220076, -0.137659), (0.16343352, -0.71220076, 0.048774585), (0.61145055, -0.3998326, -0.137659), (0.61145055, -0.3998326, 0.048774585), (0.70736873, 0.13784093, -0.137659), (0.70736873, 0.13784093, 0.048774585), (0.40832242, 0.6066771, -0.044442207), (-0.14797416, 0.70591736, -0.044442207), (-0.61150897, 0.38272992, -0.044442207), (-0.7107496, -0.1735667, -0.044442207), (-0.38756198, -0.6371015, -0.044442207), (0.1687347, -0.7363419, -0.044442207), (0.6322694, -0.41315454, -0.044442207), (0.7315101, 0.1431422, -0.044442207), (-0.1270333, 0.6105547, 0.048774585), (0.35569826, 0.52443784, 0.048774585), (-0.5292698, 0.33010554, 0.048774585), (-0.6153867, -0.15262581, 0.048774585), (-0.33493775, -0.5548624, 0.048774585), (0.14779381, -0.6409791, 0.048774585), (0.55003035, -0.36053032, 0.048774585), (0.6361473, 0.12220116, 0.048774585), (-0.12161088, 0.58586204, 0.02153925), (0.34207213, 0.5031434, 0.02153925), (-0.5079754, 0.31647938, 0.02153925), (-0.5906942, -0.14720349, 0.02153925), (-0.3213116, -0.5335679, 0.02153925), (0.14237158, -0.6162867, 0.02153925), (0.52873594, -0.34690416, 0.02153925), (0.61145484, 0.116778806, 0.02153925), (0.035720874, -0.21480964, -0.02783045), (0.029481106, -0.21789403, -0.020869974), (0.038805243, -0.22104935, -0.020869974), (0.029481106, -0.21789403, 0.11069416), (0.035720874, -0.21480964, 0.11765464), (0.038805243, -0.22104935, 0.11069416), (0.18814975, -0.13946208, -0.02783045), (0.19123411, -0.1457018, -0.020869974), (0.19438952, -0.13637768, -0.020869974), (0.18814975, -0.13946208, 0.11765464), (0.19438952, -0.13637768, 0.11069416), (0.19123411, -0.1457018, 0.11069416), (-0.07869658, 0.016658036, -0.02783045), (-0.081780925, 0.022897704, -0.020869974), (-0.08493634, 0.013573639, -0.020869974), (-0.07869658, 0.016658036, 0.11765464), (-0.08493634, 0.013573639, 0.11069416), (-0.081780925, 0.022897704, 0.11069416), (0.0737323, 0.092005596, -0.02783045), (0.07997207, 0.09508999, -0.020869974), (0.070647955, 0.09824526, -0.020869974), (0.0737323, 0.092005596, 0.11765464), (0.070647955, 0.09824526, 0.11069416), (0.07997207, 0.09508999, 0.11069416), (-0.028920531, 0.03753329, 0.030426772), (0.09782175, 0.27807772, 0.030426467), (0.13757244, 0.3338606, 0.030426467), (-0.26063114, 0.14008518, 0.030426772), (-0.33396435, 0.18723458, 0.030427082), (-0.13996163, -0.28004563, 0.030427082), (0.30828035, -0.059677266, 0.030427082), (0.20217282, -0.33578366, 0.030427082), (0.07801164, -0.3832818, 0.030427082), (-0.028920531, 0.03753329, -0.011107166), (0.09782175, 0.27807772, -0.011107166), (0.13757248, 0.33386064, -0.011107166), (-0.26063114, 0.14008518, -0.011107166), (-0.33396435, 0.18723458, -0.011107166), (-0.13996166, -0.28004563, -0.011107166), (0.30828035, -0.059677266, -0.011107166), (0.20217282, -0.33578366, -0.011107166), (0.07801164, -0.3832818, -0.011107166), (0.23782119, 0.21378312, 0.009659956), (-0.042177647, 0.3423723, 0.009659342), (0.14643864, 0.35473645, 0.009659648), (0.20705718, 0.30054846, 0.009659648), (0.06808776, 0.36717275, 0.009659648), (-0.18198977, 0.31866845, 0.009659648), (-0.33927247, -0.038498044, 0.009659956), (-0.36104858, 0.2093561, 0.009659956), (-0.29468977, 0.28540042, 0.009659956), (-0.37323874, 0.08906861, 0.009659956), (-0.15514497, -0.39198697, 0.009659956), (-0.28253606, -0.27038163, 0.009659956), (0.4600195, -0.07936351, 0.009659956), (0.4204863, 0.102874614, 0.009659956), (0.3048122, -0.2657891, 0.009659956), (0.009734571, -0.38688144, 0.009659956), (0.050693877, 0.2004882, 0.030426541), (0.14811055, -0.025531437, 0.030427001), (-0.10460963, -0.14468023, 0.030427001), (-0.17957902, 0.10193327, 0.030426618), (0.123201676, 0.30947703, 0.030426467), (0.20282131, 0.22985685, 0.025235124), (-0.0071777627, 0.3262986, 0.025234357), (0.144222, 0.34951755, 0.02523474), (0.18968597, 0.3088765, 0.02523474), (0.08545889, 0.35884482, 0.02523474), (-0.3020889, 0.16438642, 0.030427001), (-0.20165013, 0.2740226, 0.025234817), (-0.31961218, 0.0061477423, 0.025235202), (-0.35427755, 0.20382583, 0.025235318), (-0.3045085, 0.26085907, 0.025235318), (-0.36342022, 0.113610156, 0.025235318), (-0.15134913, -0.36400163, 0.025235318), (-0.2468925, -0.27279752, 0.025235318), (-0.020705111, -0.3014443, 0.030427082), (0.4220847, -0.07444197, 0.025235318), (0.22320402, -0.19665991, 0.030427082), (0.39243478, 0.062236615, 0.025235318), (0.13639462, -0.37205386, 0.030427082), (0.25414371, -0.30095702, 0.025235318), (0.032240555, -0.38761264, 0.025235318), (0.050693877, 0.2004882, -0.011107166), (0.14811055, -0.025531437, -0.011107166), (-0.104609646, -0.14468023, -0.011107166), (-0.17957902, 0.10193327, -0.011107166), (0.123201676, 0.30947703, -0.011107166), (0.20282131, 0.22985685, -0.005915366), (-0.007177837, 0.32629874, -0.005915558), (0.144222, 0.34951755, -0.0059154825), (0.18968597, 0.3088765, -0.0059154825), (0.08545895, 0.3588447, -0.0059154825), (-0.3020889, 0.16438642, -0.011107166), (-0.20165013, 0.2740226, -0.0059154825), (-0.31961218, 0.0061477423, -0.005915366), (-0.35427755, 0.20382583, -0.005915366), (-0.3045085, 0.26085907, -0.005915366), (-0.36342025, 0.11361014, -0.005915366), (-0.15134913, -0.36400163, -0.005915366), (-0.2468925, -0.27279752, -0.005915366), (-0.020705111, -0.3014443, -0.011107166), (0.4220847, -0.07444197, -0.005915366), (0.22320402, -0.19665991, -0.011107166), (0.39243478, 0.062236615, -0.005915366), (0.13639462, -0.37205386, -0.011107166), (0.25414371, -0.30095702, -0.005915366), (0.032240555, -0.38761264, -0.005915366), (0.28947648, 0.15973975, 0.009659956), (-0.1140043, 0.32785565, 0.009659418), (-0.31187195, -0.12475786, 0.009659956), (0.22414103, 0.26179087, 0.00965988), (0.02226232, 0.3571632, 0.009659418), (0.18250956, 0.3311618, 0.009659494), (0.10593459, 0.3678732, 0.009659803), (-0.24319726, 0.3070903, 0.00965988), (-0.3609805, 0.021682635, 0.009659956), (-0.33459702, 0.25301647, 0.009659956), (-0.37395793, 0.1546348, 0.009659956), (-0.06538133, -0.36386052, 0.009659956), (-0.23553653, -0.38843566, 0.009659956), (0.5157131, 0.028176993, 0.009659956), (0.352107, -0.18632, 0.009659956), (0.2318661, 0.14184304, 0.027104268), (0.06662499, -0.21575539, 0.030427082), (-0.10200885, 0.2823027, 0.02710346), (-0.26909345, -0.09104283, 0.027104268), (0.19890621, 0.27371234, 0.025235048), (0.047497123, 0.34524173, 0.025234433), (0.17495584, 0.32989758, 0.021196675), (0.11004032, 0.3610192, 0.021196825), (-0.2579202, 0.27141437, 0.025235165), (-0.34625766, 0.057358593, 0.02523528), (-0.33153665, 0.24320158, 0.02119725), (-0.36648566, 0.1558471, 0.02119725), (-0.054212287, -0.34825653, 0.025235318), (-0.21749665, -0.3509472, 0.02119725), (0.45912713, 0.011117056, 0.02119725), (0.31988126, -0.18890502, 0.025235318), (0.2318661, 0.14184304, -0.0077844327), (0.06662499, -0.21575539, -0.011107166), (-0.10200885, 0.2823027, -0.0077845105), (-0.26909345, -0.09104283, -0.0077844327), (0.19890621, 0.27371234, -0.0059154043), (0.047497123, 0.34524173, -0.0059155193), (0.17495584, 0.32989758, -0.0018775302), (0.11004032, 0.3610192, -0.0018774152), (-0.2579202, 0.27141434, -0.0059154043), (-0.34625766, 0.057358593, -0.005915366), (-0.33153665, 0.24320158, -0.0018773385), (-0.36648566, 0.1558471, -0.0018773385), (-0.054212287, -0.34825653, -0.005915366), (-0.21749665, -0.3509472, -0.0018773385), (0.45912713, 0.011117056, -0.0018773385), (0.31988126, -0.18890502, -0.005915366)]
            uniform token subdivisionScheme = "none"
            uniform token subsetFamily:materialBind:familyType = "nonOverlapping"
            custom string userProperties:blender:data_name = "Cylinder.034"

            def GeomSubset "LightBeige" (
                prepend apiSchemas = ["MaterialBindingAPI"]
            )
            {
                uniform token elementType = "face"
                uniform token familyName = "materialBind"
                int[] indices = [0, 1, 2, 3, 4, 5, 6, 7, 8, 9, 10, 11, 12, 13, 14, 15, 16, 17, 18, 19, 20, 21, 22, 23, 24, 25, 27, 28, 29, 30, 31, 32, 33]
                rel material:binding = </root/_materials/LightBeige>
            }

            def GeomSubset "Light" (
                prepend apiSchemas = ["MaterialBindingAPI"]
            )
            {
                uniform token elementType = "face"
                uniform token familyName = "materialBind"
                int[] indices = [26]
                rel material:binding = </root/_materials/Light>
            }

            def GeomSubset "Yellow" (
                prepend apiSchemas = ["MaterialBindingAPI"]
            )
            {
                uniform token elementType = "face"
                uniform token familyName = "materialBind"
                int[] indices = [34, 35, 36, 37, 38, 39, 40, 41, 42, 43, 44, 45, 46, 47, 48, 49, 50, 51, 52, 53, 54, 55, 56, 57, 58, 59]
                rel material:binding = </root/_materials/Yellow>
            }

            def GeomSubset "Syrup" (
                prepend apiSchemas = ["MaterialBindingAPI"]
            )
            {
                uniform token elementType = "face"
                uniform token familyName = "materialBind"
                int[] indices = [60, 61, 62, 63, 64, 65, 66, 67, 68, 69, 70, 71, 72, 73, 74, 75, 76, 77, 78, 79, 80, 81, 82, 83, 84, 85, 86, 87, 88, 89, 90, 91, 92, 93, 94, 95, 96, 97, 98, 99, 100, 101, 102, 103, 104, 105, 106, 107, 108, 109, 110, 111, 112, 113, 114, 115, 116, 117, 118, 119, 120, 121, 122, 123, 124, 125, 126, 127, 128, 129, 130, 131, 132, 133, 134, 135, 136, 137, 138, 139, 140, 141, 142, 143, 144, 145, 146, 147, 148, 149, 150, 151, 152, 153, 154, 155, 156, 157, 158, 159, 160, 161, 162, 163, 164, 165, 166, 167, 168, 169, 170, 171, 172, 173, 174, 175, 176, 177, 178, 179, 180, 181, 182, 183, 184, 185, 186, 187, 188, 189]
                rel material:binding = </root/_materials/Syrup>
            }
        }
    }

    def Scope "_materials"
    {
        def Material "LightBeige"
        {
            token outputs:surface.connect = </root/_materials/LightBeige/Principled_BSDF.outputs:surface>
            custom string userProperties:blender:data_name = "LightBeige"

            def Shader "Principled_BSDF"
            {
                uniform token info:id = "UsdPreviewSurface"
                float inputs:clearcoat = 0
                float inputs:clearcoatRoughness = 0.03
                color3f inputs:diffuseColor = (0.5088813, 0.3988342, 0.15773083)
                float inputs:ior = 1.5
                float inputs:metallic = 0
                float inputs:opacity = 1
                float inputs:roughness = 0.6900348
                float inputs:specular = 0.5
                token outputs:surface
            }
        }

        def Material "Light"
        {
            token outputs:surface.connect = </root/_materials/Light/Principled_BSDF.outputs:surface>
            custom string userProperties:blender:data_name = "Light"

            def Shader "Principled_BSDF"
            {
                uniform token info:id = "UsdPreviewSurface"
                float inputs:clearcoat = 0
                float inputs:clearcoatRoughness = 0.03
                color3f inputs:diffuseColor = (0.3672283, 0.2665834, 0.1561517)
                float inputs:ior = 1.5
                float inputs:metallic = 0
                float inputs:opacity = 1
                float inputs:roughness = 0.6900348
                float inputs:specular = 0.5
                token outputs:surface
            }
        }

        def Material "Yellow"
        {
            token outputs:surface.connect = </root/_materials/Yellow/Principled_BSDF.outputs:surface>
            custom string userProperties:blender:data_name = "Yellow"

            def Shader "Principled_BSDF"
            {
                uniform token info:id = "UsdPreviewSurface"
                float inputs:clearcoat = 0
                float inputs:clearcoatRoughness = 0.03
                color3f inputs:diffuseColor = (0.52771497, 0.34981963, 0.07252213)
                float inputs:ior = 1.5
                float inputs:metallic = 0
                float inputs:opacity = 1
                float inputs:roughness = 0.6900348
                float inputs:specular = 0.5
                token outputs:surface
            }
        }

        def Material "Syrup"
        {
            token outputs:surface.connect = </root/_materials/Syrup/Principled_BSDF.outputs:surface>
            custom string userProperties:blender:data_name = "Syrup"

            def Shader "Principled_BSDF"
            {
                uniform token info:id = "UsdPreviewSurface"
                float inputs:clearcoat = 0
                float inputs:clearcoatRoughness = 0.03
                color3f inputs:diffuseColor = (0.4200142, 0.19000444, 0.061023857)
                float inputs:ior = 1.5
                float inputs:metallic = 0
                float inputs:opacity = 1
                float inputs:roughness = 0.6900348
                float inputs:specular = 0.5
                token outputs:surface
            }
        }
    }
}

