#usda 1.0
(
    defaultPrim = "root"
    doc = "Blender v5.1.2"
    metersPerUnit = 1
    upAxis = "Y"
)

def Xform "root" (
    customData = {
        dictionary Blender = {
            bool generated = 1
        }
    }
)
{
    float3 xformOp:rotateXYZ = (-90, -0, 0)
    uniform token[] xformOpOrder = ["xformOp:rotateXYZ"]

    def Xform "Salmon2"
    {
        custom string userProperties:blender:object_name = "Salmon2"

        def Mesh "Cube_016" (
            active = true
            prepend apiSchemas = ["MaterialBindingAPI"]
        )
        {
            uniform bool doubleSided = 1
            float3[] extent = [(-0.33124956, -0.13959727, 0.08339493), (0.2663509, 0.13197736, 0.23514745)]
            int[] faceVertexCounts = [4, 4, 4, 4, 4, 4, 4, 4, 4, 4, 4, 4, 4, 4, 4, 4, 4, 4, 4, 4, 4, 4, 4, 4, 4, 4, 4, 4, 4, 4, 4, 4, 4, 4, 4, 4, 4, 4, 4, 4, 4, 4, 4, 4, 4, 4, 4, 4, 4, 4, 4, 4, 4, 4, 4, 4, 4, 4, 4, 4, 4, 4, 4, 4, 4, 4, 4, 4, 4, 4, 4, 4, 4, 4, 4, 4, 4, 4, 4, 4]
            int[] faceVertexIndices = [73, 64, 9, 30, 77, 62, 5, 42, 81, 54, 0, 60, 62, 63, 7, 5, 32, 19, 29, 34, 65, 16, 26, 70, 66, 18, 28, 71, 39, 13, 23, 41, 43, 3, 12, 45, 37, 2, 13, 39, 64, 8, 18, 66, 63, 6, 16, 65, 30, 9, 19, 32, 57, 1, 11, 58, 5, 7, 17, 15, 42, 5, 15, 44, 31, 0, 10, 33, 6, 4, 14, 16, 72, 34, 29, 71, 76, 46, 25, 69, 80, 67, 20, 56, 69, 25, 27, 70, 58, 11, 21, 59, 15, 17, 27, 25, 44, 15, 25, 46, 33, 10, 20, 35, 16, 14, 24, 26, 45, 12, 22, 47, 18, 33, 35, 28, 67, 21, 34, 72, 8, 31, 33, 18, 1, 30, 32, 11, 11, 32, 34, 21, 60, 73, 30, 1, 12, 38, 40, 22, 68, 74, 41, 23, 3, 36, 38, 12, 48, 37, 39, 49, 49, 39, 41, 50, 61, 2, 37, 75, 14, 45, 47, 24, 13, 44, 46, 23, 68, 23, 46, 76, 2, 42, 44, 13, 4, 43, 45, 14, 61, 77, 42, 2, 55, 49, 50, 56, 54, 48, 49, 55, 38, 52, 53, 40, 74, 78, 50, 41, 36, 51, 52, 38, 75, 37, 48, 79, 0, 54, 55, 10, 10, 55, 56, 20, 52, 58, 59, 53, 78, 80, 56, 50, 51, 57, 58, 52, 79, 48, 54, 81, 51, 79, 81, 57, 53, 59, 80, 78, 36, 75, 79, 51, 40, 53, 78, 74, 3, 43, 77, 61, 22, 68, 76, 47, 3, 61, 75, 36, 22, 40, 74, 68, 0, 31, 73, 60, 20, 67, 72, 35, 24, 69, 70, 26, 59, 21, 67, 80, 47, 76, 69, 24, 35, 72, 71, 28, 7, 63, 65, 17, 9, 64, 66, 19, 19, 66, 71, 29, 17, 65, 70, 27, 4, 6, 63, 62, 57, 81, 60, 1, 43, 4, 62, 77, 31, 8, 64, 73]
            rel material:binding = </root/_materials/White>
            normal3f[] normals = [(2.2542707e-8, 0, -1), (8.278667e-9, 0, -1), (0, 0, -1), (-3.066875e-8, 0, -1), (5.653135e-8, 0, -1), (3.2055567e-8, 0, -1), (5.9004925e-8, 0, -1), (6.600068e-8, 0, -1), (-5.3137303e-9, 0, -1), (9.405569e-8, 0, -1), (8.713248e-9, 0, -1), (1.9484329e-8, 0, -1), (3.2055567e-8, 0, -1), (-5.1940503e-8, 0, -1), (-1.2268691e-7, 0, -1), (5.9004925e-8, 0, -1), (-0.5374864, 0.57198846, 0.619627), (-0.5374864, 0.57198846, 0.619627), (-0.5374864, 0.57198846, 0.619627), (-0.5374864, 0.57198846, 0.619627), (0.7559787, 0.079753265, 0.64971966), (0.7559787, 0.079753265, 0.64971966), (0.7559787, 0.079753265, 0.64971966), (0.7559787, 0.079753265, 0.64971966), (-0.9381465, 0, 0.34623855), (-0.9398259, 2.142042e-8, 0.34165362), (-0.9403611, 0, 0.3401779), (-0.94036114, 0, 0.34017792), (0.0034238696, -0.66053635, 0.7507862), (0.009533978, -0.65329444, 0.7570439), (0.009533978, -0.65329444, 0.7570439), (0.009292419, -0.6535832, 0.75679755), (0.071808994, 0.9821849, 0.17365552), (0.071808994, 0.9821849, 0.17365552), (0.071808994, 0.9821849, 0.17365552), (0.071808994, 0.9821849, 0.17365552), (0.050906498, -0.9882595, 0.14405459), (0.05364461, -0.9882677, 0.1430006), (0.05364461, -0.9882677, 0.1430006), (0.048291974, -0.98824364, 0.14505969), (-0.9358928, 0, 0.35228476), (-0.9358929, 0, 0.3522848), (-0.9398259, 2.142042e-8, 0.34165362), (-0.9381465, 0, 0.34623855), (0.8574841, 0.058287036, 0.5111983), (0.8574841, 0.058287036, 0.5111983), (0.8574841, 0.058287036, 0.5111983), (0.8574841, 0.058287036, 0.5111983), (-0.4120603, 0.878662, 0.24116278), (-0.4120603, 0.878662, 0.24116278), (-0.4120603, 0.878662, 0.24116278), (-0.4120603, 0.878662, 0.24116278), (-0.069170065, 0.9860186, 0.15160052), (-0.069170065, 0.9860186, 0.15160052), (-0.069170065, 0.9860186, 0.15160052), (-0.069170065, 0.9860186, 0.15160052), (0.5064556, -0.7918311, 0.34133014), (0.5064556, -0.7918311, 0.34133014), (0.5064556, -0.7918311, 0.34133014), (0.5064556, -0.7918311, 0.34133014), (0.31801552, -0.90958, 0.26745173), (0.31801552, -0.90958, 0.26745173), (0.31801552, -0.90958, 0.26745173), (0.31801552, -0.90958, 0.26745173), (-0.31041846, -0.9365395, 0.16289328), (-0.31041846, -0.9365395, 0.16289328), (-0.31041846, -0.9365395, 0.16289328), (-0.31041846, -0.9365395, 0.16289328), (0.36207217, 0.8736757, 0.32495305), (0.36207217, 0.8736757, 0.32495305), (0.36207217, 0.8736757, 0.32495305), (0.36207217, 0.8736757, 0.32495305), (-0.5798449, 0.20122294, 0.7894867), (-0.5798449, 0.20122294, 0.7894867), (-0.5798449, 0.20122294, 0.7894867), (-0.5798449, 0.20122294, 0.7894867), (0.2150562, 0.119052805, 0.96931785), (0.21204455, 0.114603765, 0.9705169), (0.21550836, 0.11972068, 0.9691352), (0.21550836, 0.11972068, 0.9691352), (-0.21426012, -0.11911348, 0.9694868), (-0.21426012, -0.11911348, 0.9694868), (-0.21426012, -0.11911348, 0.9694868), (-0.21426012, -0.11911348, 0.9694868), (0.3692111, 0.15853089, 0.91572434), (0.3692111, 0.15853089, 0.91572434), (0.3692111, 0.15853089, 0.91572434), (0.3692111, 0.15853089, 0.91572434), (-0.14334683, 0.6327714, 0.76095474), (-0.14334683, 0.6327714, 0.76095474), (-0.14334683, 0.6327714, 0.76095474), (-0.14334683, 0.6327714, 0.76095474), (0.5146856, -0.39729458, 0.75977355), (0.5146856, -0.39729458, 0.75977355), (0.5146856, -0.39729458, 0.75977355), (0.5146856, -0.39729458, 0.75977355), (0.26271614, -0.529557, 0.8065666), (0.26271614, -0.529557, 0.8065666), (0.26271614, -0.529557, 0.8065666), (0.26271614, -0.529557, 0.8065666), (-0.38027826, -0.55541235, 0.7395306), (-0.38027826, -0.55541235, 0.7395306), (-0.38027826, -0.55541235, 0.7395306), (-0.38027826, -0.55541235, 0.7395306), (0.46546286, 0.42116138, 0.77843904), (0.46546286, 0.42116138, 0.77843904), (0.46546286, 0.42116138, 0.77843904), (0.46546286, 0.42116138, 0.77843904), (0.22477992, 0.60363466, 0.76491773), (0.22477992, 0.60363466, 0.76491773), (0.22477992, 0.60363466, 0.76491773), (0.22477992, 0.60363466, 0.76491773), (-0.5374699, -0.57185775, 0.61976194), (-0.5374699, -0.57185775, 0.61976194), (-0.5374699, -0.57185775, 0.61976194), (-0.5374699, -0.57185775, 0.61976194), (-0.29993728, 0.17073509, 0.9385559), (-0.29993728, 0.17073509, 0.9385559), (-0.29993728, 0.17073509, 0.9385559), (-0.29993728, 0.17073509, 0.9385559), (-0.4121292, -0.8786405, 0.24112332), (-0.4121292, -0.8786405, 0.24112332), (-0.4121292, -0.8786405, 0.24112332), (-0.4121292, -0.8786405, 0.24112332), (-0.3101446, 0.93663746, 0.16285162), (-0.3101446, 0.93663746, 0.16285162), (-0.3101446, 0.93663746, 0.16285162), (-0.3101446, 0.93663746, 0.16285162), (-0.38060242, 0.55572504, 0.7391289), (-0.38060242, 0.55572504, 0.7391289), (-0.38060242, 0.55572504, 0.7391289), (-0.38060242, 0.55572504, 0.7391289), (1.9484329e-8, 0, -1), (2.2542707e-8, 0, -1), (-3.066875e-8, 0, -1), (2.2299215e-8, 0, -1), (0.047433592, 0.6815201, 0.73026043), (0.048853382, 0.68064225, 0.7309852), (0.048980307, 0.68056375, 0.7310499), (0.047433592, 0.6815201, 0.73026043), (0.01207518, -0.005100353, 0.9999141), (0.012120346, 0.006104047, 0.9999079), (0.0121213645, 0.0064199343, 0.99990594), (0.0121213645, 0.0064199343, 0.99990594), (0.11985344, 0.9844465, 0.12845327), (0.123542204, 0.98362106, 0.13125177), (0.12698124, 0.9828313, 0.1338601), (0.11985344, 0.9844465, 0.12845327), (0.048194364, -0.988243, 0.14509718), (0.050906498, -0.9882595, 0.14405459), (0.048291974, -0.98824364, 0.14505969), (0.048194364, -0.988243, 0.14509718), (0.0032428761, -0.6607498, 0.75059927), (0.0034238696, -0.66053635, 0.7507862), (0.009292419, -0.6535832, 0.75679755), (0.0032428761, -0.6607498, 0.75059927), (-3.7826724e-9, 0, -1), (-4.6857846e-9, 0, -1), (0, 0, -1), (2.151148e-8, 0, -1), (0.20553945, 0.5669153, 0.7977222), (0.20553945, 0.5669153, 0.7977222), (0.20553945, 0.5669153, 0.7977222), (0.20553945, 0.5669153, 0.7977222), (0.28761488, -0.5508041, 0.783513), (0.28761488, -0.5508041, 0.783513), (0.28761488, -0.5508041, 0.783513), (0.28761488, -0.5508041, 0.783513), (0.21171986, 0.114124514, 0.9706443), (0.21171986, 0.114124514, 0.9706443), (0.21204455, 0.114603765, 0.9705169), (0.2150562, 0.119052805, 0.96931785), (0.21091868, -0.95830196, 0.19279663), (0.21091868, -0.95830196, 0.19279663), (0.21091868, -0.95830196, 0.19279663), (0.21091868, -0.95830196, 0.19279663), (0.19805212, 0.9487592, 0.24623434), (0.19805212, 0.9487592, 0.24623434), (0.19805212, 0.9487592, 0.24623434), (0.19805212, 0.9487592, 0.24623434), (-3.7826724e-9, 0, -1), (5.653135e-8, 0, -1), (6.600068e-8, 0, -1), (-4.6857846e-9, 0, -1), (-0.07761505, -0.6636296, 0.74402404), (-0.07761505, -0.6636296, 0.74402404), (-0.07761505, -0.6636296, 0.74402404), (-0.07761505, -0.6636296, 0.74402404), (-0.06770436, -0.9869389, 0.1461775), (-0.06770436, -0.9869389, 0.1461775), (-0.06770436, -0.9869389, 0.1461775), (-0.06770436, -0.9869389, 0.1461775), (0.048853382, 0.68064225, 0.7309852), (0.050340094, 0.6797206, 0.73174167), (0.050340094, 0.6797206, 0.73174167), (0.048980307, 0.68056375, 0.7310499), (-0.027733015, -0.014866368, 0.99950486), (-0.027733015, -0.014866368, 0.99950486), (-0.027733015, -0.014866368, 0.99950486), (-0.027733015, -0.014866368, 0.99950486), (0.123542204, 0.98362106, 0.13125177), (0.12715004, 0.982792, 0.13398807), (0.12715004, 0.982792, 0.13398807), (0.12698124, 0.9828313, 0.1338601), (2.151148e-8, 0, -1), (0, 0, -1), (1.2075172e-7, 0, -1), (2.6998979e-8, 0, -1), (-0.12539463, -0.9803501, 0.15228228), (-0.12539463, -0.9803501, 0.15228228), (-0.12539463, -0.9803501, 0.15228228), (-0.12539463, -0.9803501, 0.15228228), (-0.16964985, -0.6222701, 0.7641982), (-0.16964985, -0.6222701, 0.7641982), (-0.16964985, -0.6222701, 0.7641982), (-0.16964985, -0.6222701, 0.7641982), (-0.041306525, 0.67951614, 0.73249686), (-0.041306525, 0.67951614, 0.73249686), (-0.041306525, 0.67951614, 0.73249686), (-0.041306525, 0.67951614, 0.73249686), (-0.057495717, -0.031272788, 0.99785584), (-0.057495717, -0.031272788, 0.99785584), (-0.057495717, -0.031272788, 0.99785584), (-0.057495717, -0.031272788, 0.99785584), (-0.00008628613, 0.9899431, 0.1414666), (-0.00008628613, 0.9899431, 0.1414666), (-0.00008628613, 0.9899431, 0.1414666), (-0.00008628613, 0.9899431, 0.1414666), (2.6998979e-8, 0, -1), (1.2075172e-7, 0, -1), (9.405569e-8, 0, -1), (-5.3137303e-9, 0, -1), (-8.7613856e-8, 0, -1), (2.6998979e-8, 0, -1), (-5.3137303e-9, 0, -1), (-8.535359e-8, 0, -1), (-0.056792412, 0.028679034, 0.99797404), (-0.056792412, 0.028679034, 0.99797404), (-0.056792412, 0.028679034, 0.99797404), (-0.056792412, 0.028679034, 0.99797404), (4.9006157e-8, 0, -1), (2.151148e-8, 0, -1), (2.6998979e-8, 0, -1), (-8.7613856e-8, 0, -1), (-0.027399106, 0.012996174, 0.9995401), (-0.027399106, 0.012996174, 0.9995401), (-0.027399106, 0.012996174, 0.9995401), (-0.027399106, 0.012996174, 0.9995401), (-2.39034e-9, 0, -1), (2.9753835e-8, 0, -1), (5.653135e-8, 0, -1), (-3.7826724e-9, 0, -1), (0.23528025, -0.09177395, 0.9675849), (0.23528025, -0.09177395, 0.9675849), (0.23528025, -0.09177395, 0.9675849), (0.23528025, -0.09177395, 0.9675849), (-2.39034e-9, 0, -1), (-3.7826724e-9, 0, -1), (2.151148e-8, 0, -1), (4.9006157e-8, 0, -1), (0.012074424, -0.0053110635, 0.99991304), (0.012074424, -0.0053110635, 0.99991304), (0.012120346, 0.006104047, 0.9999079), (0.01207518, -0.005100353, 0.9999141), (8.713248e-9, 0, -1), (8.196163e-8, 0, -1), (2.2542707e-8, 0, -1), (1.9484329e-8, 0, -1), (-0.29974765, -0.17068449, 0.9386257), (-0.29974765, -0.17068449, 0.9386257), (-0.29974765, -0.17068449, 0.9386257), (-0.29974765, -0.17068449, 0.9386257), (0.38872954, -0.04466835, 0.92026854), (0.38872954, -0.04466835, 0.92026854), (0.38872954, -0.04466835, 0.92026854), (0.38872954, -0.04466835, 0.92026854), (-0.2127238, 0.11451217, 0.9703791), (-0.2127238, 0.11451217, 0.9703791), (-0.2127238, 0.11451217, 0.9703791), (-0.2127238, 0.11451217, 0.9703791), (0.2337468, -0.07592324, 0.96932876), (0.2337468, -0.07592324, 0.96932876), (0.2337468, -0.07592324, 0.96932876), (0.2337468, -0.07592324, 0.96932876), (-0.5798035, -0.20124319, 0.7895119), (-0.5798035, -0.20124319, 0.7895119), (-0.5798035, -0.20124319, 0.7895119), (-0.5798035, -0.20124319, 0.7895119), (0.8669193, 0.058694087, 0.49498084), (0.8669193, 0.058694087, 0.49498084), (0.8669193, 0.058694087, 0.49498084), (0.8669193, 0.058694087, 0.49498084), (-0.9358929, 0, 0.3522848), (-0.9358928, 0, 0.35228476), (-0.9381465, 0, 0.34623855), (-0.9398259, 2.8056093e-7, 0.3416536), (-0.9398259, 2.8056093e-7, 0.3416536), (-0.9381465, 0, 0.34623855), (-0.94036114, 0, 0.34017792), (-0.9403611, 0, 0.3401779), (0.7760287, 0.0806683, 0.62551737), (0.7760287, 0.0806683, 0.62551737), (0.7760287, 0.0806683, 0.62551737), (0.7760287, 0.0806683, 0.62551737), (5.118369e-8, 0, -1), (1.5302584e-8, 0, -1), (-5.1940503e-8, 0, -1), (3.2055567e-8, 0, -1), (-8.535359e-8, 0, -1), (-5.3137303e-9, 0, -1), (1.9484329e-8, 0, -1), (2.2299215e-8, 0, -1), (2.9753835e-8, 0, -1), (5.118369e-8, 0, -1), (3.2055567e-8, 0, -1), (5.653135e-8, 0, -1), (8.196163e-8, 0, -1), (1.6556674e-8, 0, -1), (8.278667e-9, 0, -1), (2.2542707e-8, 0, -1)] (
                interpolation = "faceVarying"
            )
            point3f[] points = [(-0.20199828, -0.12667581, 0.08339493), (-0.20199828, 0.12664951, 0.08339493), (0.033862945, -0.13351874, 0.08339493), (0.027515205, 0.116854236, 0.08339493), (0.163679, 0.10557758, 0.08339493), (0.17654939, -0.10199798, 0.08339493), (0.2593371, 0.070140295, 0.08339493), (0.2663509, -0.048110187, 0.08339493), (-0.33124956, -0.07806505, 0.08339493), (-0.33124956, 0.07806505, 0.08339493), (-0.20199828, -0.111366704, 0.17693052), (-0.20199828, 0.11135645, 0.17693052), (0.027515205, 0.10296444, 0.19073136), (0.033862945, -0.11801984, 0.19073136), (0.13008727, 0.08888002, 0.17702486), (0.14295766, -0.08667202, 0.17702486), (0.23628491, 0.061039507, 0.12224133), (0.24288511, -0.041801456, 0.124614246), (-0.31964466, -0.0678922, 0.114224955), (-0.31964466, 0.0678922, 0.114224955), (-0.19869384, -0.062080547, 0.21307449), (-0.19869384, 0.062142245, 0.21307449), (0.012788735, 0.056241788, 0.2347479), (0.018798962, -0.066160515, 0.2347479), (0.09613337, 0.04818491, 0.21299888), (0.10831945, -0.047104083, 0.21299888), (0.2025926, 0.03372569, 0.16351104), (0.20884188, -0.022867335, 0.1657578), (-0.30152863, -0.037360843, 0.16430348), (-0.30152863, 0.037360843, 0.16430348), (-0.23033965, 0.11823477, 0.08339493), (-0.23033965, -0.11824162, 0.08339493), (-0.2284519, 0.10340067, 0.1667303), (-0.2284519, -0.10341309, 0.1667303), (-0.22601025, 0.057390593, 0.205141), (-0.22601025, -0.05736403, 0.205141), (-0.007276911, 0.12120583, 0.08339493), (-0.0018914242, -0.13549204, 0.08339493), (-0.0072769127, 0.107400894, 0.18830669), (-0.0018914359, -0.120278984, 0.18830669), (-0.018634612, 0.05858385, 0.23514745), (-0.013535467, -0.06724175, 0.23514745), (0.13214791, -0.11798225, 0.08339493), (0.12077696, 0.11512359, 0.08339493), (0.106278345, -0.09810946, 0.18017575), (0.09490742, 0.09481572, 0.18017575), (0.07671807, -0.053005796, 0.22070435), (0.06595172, 0.050670203, 0.22070435), (-0.08216535, -0.13959727, 0.08339493), (-0.08216536, -0.124480456, 0.18505692), (-0.085341625, -0.0697959, 0.23310733), (-0.08539042, 0.13180996, 0.08339493), (-0.085390426, 0.11745189, 0.18505692), (-0.08839524, 0.065179124, 0.23310733), (-0.11058989, -0.13758789, 0.08339493), (-0.11058989, -0.12287547, 0.18312933), (-0.11170377, -0.06883525, 0.23160808), (-0.11304997, 0.13197736, 0.08339493), (-0.11304997, 0.117555134, 0.18312933), (-0.11403306, 0.06553009, 0.23160808), (-0.20199828, 0.000024807321, 0.08339493), (0.030689076, -0.008622721, 0.08339493), (0.17011419, 0.0017898001, 0.08339493), (0.262844, 0.011015051, 0.08339493), (-0.33124956, 0, 0.08339493), (0.239585, 0.0096190255, 0.123427786), (-0.31964466, 0, 0.114224955), (-0.2338429, 0.000019071464, 0.21307449), (-0.013527606, -0.0050274064, 0.2347479), (0.081622995, 0.00054041, 0.21299888), (0.20571724, 0.0054291785, 0.16463442), (-0.30152863, 0, 0.16430348), (-0.25888994, 0.000005099162, 0.205141), (-0.23033965, 0.000006307737, 0.08339493), (-0.046925366, -0.004298435, 0.23514745), (-0.004584174, -0.007582085, 0.08339493), (0.04814922, -0.0011677985, 0.22070435), (0.12646244, -0.0014293364, 0.08339493), (-0.12190832, -0.0022361223, 0.23310733), (-0.08377789, -0.0044774776, 0.08339493), (-0.14845935, -0.0015935643, 0.23160808), (-0.11181994, -0.0032889335, 0.08339493)]
            uniform token subdivisionScheme = "none"
            uniform token subsetFamily:materialBind:familyType = "nonOverlapping"
            custom string userProperties:blender:data_name = "Cube.016"

            def GeomSubset "PalePink" (
                prepend apiSchemas = ["MaterialBindingAPI"]
            )
            {
                uniform token elementType = "face"
                uniform token familyName = "materialBind"
                int[] indices = [0, 2, 3, 4, 5, 6, 8, 10, 11, 12, 13, 14, 17, 18, 20, 21, 22, 23, 26, 27, 28, 30, 37, 38, 41, 42, 43, 45, 48, 49, 50, 51, 52, 53, 60, 61, 62, 63, 68, 69, 71, 72, 73, 74, 75, 76, 77, 79]
                rel material:binding = </root/_materials/PalePink>
            }

            def GeomSubset "PalePink2" (
                prepend apiSchemas = ["MaterialBindingAPI"]
            )
            {
                uniform token elementType = "face"
                uniform token familyName = "materialBind"
                int[] indices = [1, 7, 9, 15, 16, 19, 24, 25, 29, 31, 32, 33, 34, 35, 36, 39, 40, 44, 46, 47, 54, 55, 56, 57, 58, 59, 64, 65, 66, 67, 70, 78]
                rel material:binding = </root/_materials/PalePink2>
            }
        }
    }

    def Scope "_materials"
    {
        def Material "White"
        {
            token outputs:surface.connect = </root/_materials/White/Principled_BSDF.outputs:surface>
            custom string userProperties:blender:data_name = "White"

            def Shader "Principled_BSDF"
            {
                uniform token info:id = "UsdPreviewSurface"
                float inputs:clearcoat = 0
                float inputs:clearcoatRoughness = 0.03
                color3f inputs:diffuseColor = (0.45752272, 0.45752272, 0.45752272)
                float inputs:ior = 1.5
                float inputs:metallic = 0
                float inputs:opacity = 1
                float inputs:roughness = 0.6900348
                float inputs:specular = 0.5
                token outputs:surface
            }
        }

        def Material "PalePink"
        {
            token outputs:surface.connect = </root/_materials/PalePink/Principled_BSDF.outputs:surface>
            custom string userProperties:blender:data_name = "PalePink"

            def Shader "Principled_BSDF"
            {
                uniform token info:id = "UsdPreviewSurface"
                float inputs:clearcoat = 0
                float inputs:clearcoatRoughness = 0.03
                color3f inputs:diffuseColor = (0.5070592, 0.1656823, 0.30907908)
                float inputs:ior = 1.5
                float inputs:metallic = 0
                float inputs:opacity = 1
                float inputs:roughness = 0.6900348
                float inputs:specular = 0.5
                token outputs:surface
            }
        }

        def Material "PalePink2"
        {
            token outputs:surface.connect = </root/_materials/PalePink2/Principled_BSDF.outputs:surface>
            custom string userProperties:blender:data_name = "PalePink2"

            def Shader "Principled_BSDF"
            {
                uniform token info:id = "UsdPreviewSurface"
                float inputs:clearcoat = 0
                float inputs:clearcoatRoughness = 0.03
                color3f inputs:diffuseColor = (0.3136651, 0.11170271, 0.33431622)
                float inputs:ior = 1.5
                float inputs:metallic = 0
                float inputs:opacity = 1
                float inputs:roughness = 0.6900348
                float inputs:specular = 0.5
                token outputs:surface
            }
        }
    }
}

