#usda 1.0
(
    defaultPrim = "root"
    doc = "Blender v5.1.2"
    metersPerUnit = 1
    upAxis = "Y"
)

def Xform "root" (
    customData = {
        dictionary Blender = {
            bool generated = 1
        }
    }
)
{
    float3 xformOp:rotateXYZ = (-90, -0, 0)
    uniform token[] xformOpOrder = ["xformOp:rotateXYZ"]

    def Xform "Bush_Large_Flowers"
    {
        custom string userProperties:blender:object_name = "Bush_Large_Flowers"

        def Mesh "Plane_029" (
            active = true
            prepend apiSchemas = ["MaterialBindingAPI"]
        )
        {
            uniform bool doubleSided = 1
            float3[] extent = [(-0.9562571, -0.36056316, -0.1797151), (0.97363925, 0.40116858, 1.0779942)]
            int[] faceVertexCounts = [4, 4, 4, 4, 4, 4, 4, 4, 4, 4, 4, 4, 4, 4, 4, 4, 4, 4, 4, 4, 4, 4, 4, 4, 4, 4, 4, 4, 4, 4, 4, 4, 4, 4, 4, 4, 4, 4, 4, 4, 4, 4, 4, 4, 4, 4, 4, 4, 4, 4, 4, 4, 4, 4, 4, 4, 4, 4, 4, 4, 4, 4, 4, 4, 4, 4, 4, 4, 4, 4, 4, 4, 4, 4, 4, 4, 4, 4, 4, 4, 4, 4, 4, 4, 4, 4, 4, 4, 4, 4, 4, 4, 4, 4, 4, 4, 4, 4, 4, 4, 4, 4, 4, 4, 4, 4, 4, 4, 4, 4, 4, 4, 4, 4, 4, 4, 4, 4, 4, 4, 4, 4, 4, 4, 4, 4, 4, 4, 4, 4, 4, 4, 4, 4, 4, 4, 4, 4, 3, 3, 3, 3, 3, 3, 3, 3, 3, 3, 3, 3, 3, 3, 3, 3, 3, 3, 3, 3, 3, 3, 3, 3, 3, 3, 3, 3, 3, 3, 3, 3, 3, 3, 3, 3, 3, 3, 3, 3, 3, 3, 3, 3, 3, 3, 3, 3, 3, 3, 3, 3, 3, 3, 3, 3, 3, 3, 3, 3, 3, 3, 3, 3, 3, 3, 3, 3, 3, 3, 3, 3, 3, 3, 3, 3, 3, 3, 3, 3, 3, 3, 3, 3, 3, 3, 3, 3, 3, 3, 3, 3, 3, 3, 3, 3, 3, 3, 3, 3, 3, 3, 3, 3, 3, 3, 3, 3, 3, 3, 3, 3, 3, 3, 3, 3, 3, 3, 3, 3, 3, 3, 3, 3, 3, 3]
            int[] faceVertexIndices = [1, 3, 2, 0, 5, 7, 6, 4, 9, 11, 10, 8, 13, 15, 14, 12, 17, 19, 18, 16, 21, 23, 22, 20, 25, 27, 26, 24, 29, 31, 30, 28, 33, 35, 34, 32, 37, 39, 38, 36, 41, 43, 42, 40, 46, 48, 47, 45, 50, 52, 51, 49, 54, 56, 55, 53, 58, 60, 59, 57, 62, 64, 63, 61, 66, 68, 67, 65, 70, 72, 71, 69, 74, 76, 75, 73, 78, 80, 79, 77, 82, 84, 83, 81, 86, 88, 87, 85, 90, 92, 91, 89, 94, 96, 95, 93, 98, 100, 99, 97, 102, 104, 103, 101, 106, 108, 107, 105, 110, 112, 111, 109, 114, 116, 115, 113, 118, 120, 119, 117, 122, 124, 123, 121, 126, 128, 127, 125, 130, 132, 131, 129, 134, 136, 135, 133, 138, 140, 139, 137, 142, 144, 143, 141, 146, 148, 147, 145, 150, 152, 151, 149, 154, 156, 155, 153, 158, 160, 159, 157, 162, 164, 163, 161, 166, 168, 167, 165, 170, 172, 171, 169, 174, 176, 175, 173, 178, 180, 179, 177, 182, 184, 183, 181, 186, 188, 187, 185, 190, 192, 191, 189, 194, 196, 195, 193, 198, 200, 199, 197, 202, 204, 203, 201, 206, 208, 207, 205, 210, 212, 211, 209, 214, 216, 215, 213, 218, 220, 219, 217, 222, 224, 223, 221, 226, 228, 227, 225, 230, 232, 231, 229, 234, 236, 235, 233, 238, 240, 239, 237, 242, 244, 243, 241, 246, 248, 247, 245, 250, 252, 251, 249, 254, 256, 255, 253, 258, 260, 259, 257, 262, 264, 263, 261, 266, 268, 267, 265, 270, 272, 271, 269, 274, 276, 275, 273, 278, 280, 279, 277, 282, 284, 283, 281, 286, 288, 287, 285, 290, 292, 291, 289, 294, 296, 295, 293, 298, 300, 299, 297, 302, 304, 303, 301, 306, 308, 307, 305, 310, 312, 311, 309, 314, 316, 315, 313, 318, 320, 319, 317, 322, 324, 323, 321, 326, 328, 327, 325, 330, 332, 331, 329, 334, 336, 335, 333, 338, 340, 339, 337, 342, 344, 343, 341, 346, 348, 347, 345, 350, 352, 351, 349, 354, 356, 355, 353, 358, 360, 359, 357, 362, 364, 363, 361, 366, 368, 367, 365, 370, 372, 371, 369, 374, 376, 375, 373, 378, 380, 379, 377, 382, 384, 383, 381, 386, 388, 387, 385, 390, 392, 391, 389, 394, 396, 395, 393, 398, 400, 399, 397, 402, 404, 403, 401, 406, 408, 407, 405, 410, 412, 411, 409, 414, 416, 415, 413, 418, 420, 419, 417, 422, 424, 423, 421, 426, 428, 427, 425, 430, 432, 431, 429, 434, 436, 435, 433, 438, 440, 439, 437, 442, 444, 443, 441, 446, 448, 447, 445, 450, 452, 451, 449, 454, 456, 455, 453, 458, 460, 459, 457, 462, 464, 463, 461, 466, 468, 467, 465, 470, 472, 471, 469, 474, 476, 475, 473, 478, 480, 479, 477, 482, 484, 483, 481, 486, 488, 487, 485, 490, 492, 491, 489, 494, 496, 495, 493, 498, 500, 499, 497, 502, 504, 503, 501, 506, 508, 507, 505, 510, 512, 511, 509, 514, 516, 515, 513, 518, 520, 519, 517, 522, 524, 523, 521, 526, 528, 527, 525, 530, 532, 531, 529, 534, 536, 535, 533, 538, 540, 539, 537, 542, 544, 543, 541, 546, 548, 547, 545, 550, 552, 551, 549, 553, 555, 554, 553, 556, 555, 553, 557, 556, 553, 558, 557, 553, 559, 558, 553, 554, 559, 560, 562, 561, 560, 563, 562, 560, 564, 563, 560, 565, 564, 560, 566, 565, 560, 561, 566, 567, 569, 568, 567, 570, 569, 567, 571, 570, 567, 572, 571, 567, 573, 572, 567, 568, 573, 574, 576, 575, 574, 577, 576, 574, 578, 577, 574, 579, 578, 574, 580, 579, 574, 575, 580, 581, 583, 582, 581, 584, 583, 581, 585, 584, 581, 586, 585, 581, 587, 586, 581, 582, 587, 588, 590, 589, 588, 591, 590, 588, 592, 591, 588, 593, 592, 588, 594, 593, 588, 589, 594, 595, 597, 596, 595, 598, 597, 595, 599, 598, 595, 600, 599, 595, 601, 600, 595, 596, 601, 602, 604, 603, 602, 605, 604, 602, 606, 605, 602, 607, 606, 602, 608, 607, 602, 603, 608, 609, 611, 610, 609, 612, 611, 609, 613, 612, 609, 614, 613, 609, 615, 614, 609, 610, 615, 616, 618, 617, 616, 619, 618, 616, 620, 619, 616, 621, 620, 616, 622, 621, 616, 617, 622, 623, 625, 624, 623, 626, 625, 623, 627, 626, 623, 628, 627, 623, 629, 628, 623, 624, 629, 630, 632, 631, 630, 633, 632, 630, 634, 633, 630, 635, 634, 630, 636, 635, 630, 631, 636, 637, 639, 638, 637, 640, 639, 637, 641, 640, 637, 642, 641, 637, 643, 642, 637, 638, 643, 644, 646, 645, 644, 647, 646, 644, 648, 647, 644, 649, 648, 644, 650, 649, 644, 645, 650, 651, 653, 652, 651, 654, 653, 651, 655, 654, 651, 656, 655, 651, 657, 656, 651, 652, 657, 658, 660, 659, 658, 661, 660, 658, 662, 661, 658, 663, 662, 658, 664, 663, 658, 659, 664, 665, 667, 666, 665, 668, 667, 665, 669, 668, 665, 670, 669, 665, 671, 670, 665, 666, 671, 672, 674, 673, 672, 675, 674, 672, 676, 675, 672, 677, 676, 672, 678, 677, 672, 673, 678, 679, 681, 680, 679, 682, 681, 679, 683, 682, 679, 684, 683, 679, 685, 684, 679, 680, 685, 686, 688, 687, 686, 689, 688, 686, 690, 689, 686, 691, 690, 686, 692, 691, 686, 687, 692, 693, 695, 694, 693, 696, 695, 693, 697, 696, 693, 698, 697, 693, 699, 698, 693, 694, 699]
            rel material:binding = </root/_materials/Bush_Leaves>
            normal3f[] normals = [(-0.55253774, -0.73159367, -0.3993404), (-0.76426035, -0.488735, 0.42076612), (-0.9600132, -0.27995476, 0.00014868379), (-0.8481968, -0.35977104, -0.38875067), (-0.8358868, -0.49082464, -0.24573255), (-0.3761776, -0.89776224, -0.22915818), (-0.38318437, -0.7135347, 0.5865475), (-0.8812797, -0.42878005, 0.19873033), (-0.014246151, -0.59777844, 0.80153483), (-0.83863, -0.30042842, 0.45435932), (-0.91038483, -0.38884246, -0.14142501), (-0.46461833, -0.81653434, -0.34263897), (0.25099418, -0.69023377, 0.6786599), (-0.31172264, 0.06642568, 0.94784844), (-0.9060514, -0.22537883, 0.35815543), (-0.6725353, -0.7400586, -0.0030959863), (-0.75096047, -0.65679103, 0.0684383), (-0.6248922, -0.3787007, 0.68271184), (-0.8924734, -0.2285338, 0.38892606), (-0.9215903, -0.38785964, 0.015369028), (-0.6280718, -0.37560084, 0.68150556), (-0.8638385, -0.17698513, 0.471656), (-0.94489044, -0.31730515, 0.08062023), (-0.8226692, -0.56708056, 0.040437534), (0.14346598, -0.94930923, 0.27969548), (0.08465153, 0.004897535, 0.99639857), (-0.834345, -0.08742158, 0.54426646), (-0.7880478, -0.6155719, -0.007213205), (0.014034674, 0.019476205, 0.9997119), (-0.8034075, -0.14282572, 0.5780461), (-0.7190874, -0.68684775, 0.105610095), (0.26015332, -0.79424185, 0.5490904), (0.75172555, -0.6592712, -0.016434446), (0.39341313, -0.4242345, 0.8156293), (-0.81489396, -0.49892008, 0.29500258), (-0.5036865, -0.72688794, -0.46683386), (-0.9470149, 0.22234963, 0.23178315), (-0.94263744, -0.015646, 0.33345136), (-0.8382275, 0.090458974, 0.5377657), (-0.8398891, 0.4013986, 0.36532927), (-0.7366735, 0.12927255, 0.66377777), (-0.9232665, 0.07176496, 0.37739745), (-0.9362189, -0.2976389, 0.18682966), (-0.80028653, -0.46339652, 0.3805327), (-0.9103537, -0.19099161, 0.36712158), (-0.8388216, 0.22663924, 0.49498767), (-0.92928135, 0.19992676, 0.31058893), (-0.97043395, -0.09500989, 0.22188097), (-0.90498775, -0.3039803, 0.29764593), (-0.85593015, 0.197775, 0.4777746), (-0.95643854, 0.17510858, 0.23358561), (-0.9791605, -0.16150732, 0.123126686), (-0.88016236, 0.3064253, 0.36251596), (-0.60462964, 0.5341439, 0.59085804), (-0.8767791, 0.4769618, -0.061367363), (-0.96681625, 0.25475168, -0.01918301), (-0.9674076, 0.21445762, 0.13464978), (-0.77794766, 0.39384297, 0.4895767), (-0.8108947, 0.57273865, 0.120084226), (-0.95579803, 0.24558158, -0.16167876), (-0.9267736, 0.28892976, 0.24002168), (-0.740719, 0.33755916, 0.5808522), (-0.6255578, 0.5813828, 0.520261), (-0.894509, 0.43920267, 0.083394796), (-0.9685216, 0.24623509, -0.03652569), (-0.9492608, 0.19571383, 0.24617097), (-0.7934205, 0.3646082, 0.48738578), (-0.88233227, 0.4685952, 0.043684483), (-0.96870434, 0.09886564, 0.22767876), (-0.8765913, 0.3514357, 0.32875624), (-0.94250214, 0.3330947, 0.02716136), (-0.99495256, 0.10014981, -0.006282255), (-0.99715686, 0.072621614, 0.020108849), (-0.96219736, 0.090432316, 0.2569015), (-0.8828896, 0.33567834, 0.32836848), (-0.9571959, 0.28800797, 0.028766215), (-0.90062046, 0.3288328, 0.28416872), (-0.8374424, 0.5348791, 0.11222556), (-0.94613075, 0.23052813, -0.22736174), (-0.98845726, 0.15004528, -0.020940334), (0.20199475, 0.74689794, 0.6335153), (0.5567083, 0.3844133, 0.7364118), (0.8252609, 0.35790038, 0.4368659), (0.7438116, 0.6301893, 0.22272365), (0.47878772, 0.3695705, 0.7963542), (0.8177471, 0.2965207, 0.49332058), (0.8323855, 0.5086121, 0.22010963), (0.24271497, 0.7948665, 0.5561265), (0.2207107, 0.2860455, 0.9324509), (0.7813174, 0.242708, 0.5750095), (0.7286637, 0.61999094, 0.29096466), (-0.080298916, 0.88458115, 0.4594215), (-0.075069405, 0.82444644, 0.56093925), (0.20385772, 0.2944536, 0.9336698), (0.7378171, 0.265222, 0.6207119), (0.68049115, 0.6299588, 0.37427738), (-0.2769087, 0.6150183, 0.73829126), (0.48719472, 0.3737606, 0.78926826), (0.78577113, 0.4547239, 0.41927323), (0.24118915, 0.94338006, 0.22773206), (0.21354389, 0.6748013, 0.7064292), (0.79920864, 0.41068017, 0.4388705), (0.8910814, 0.4484246, -0.06992334), (-0.091838494, 0.97504514, -0.20212048), (-0.048182756, -0.10554618, 0.99324644), (0.7279645, 0.1297436, 0.6732267), (0.48039103, 0.7048553, 0.5219228), (-0.40451622, 0.65754974, 0.635606), (0.17819287, 0.26243156, 0.9483549), (0.6740241, 0.19663009, 0.7120591), (0.6104828, 0.5547348, 0.56531405), (0.13064751, 0.7205882, 0.68094325), (0.07349047, 0.7276631, 0.68198645), (0.22564456, -0.081838846, 0.9707662), (0.7956137, 0.018011406, 0.60553646), (0.7187508, 0.50680673, 0.47596684), (-0.007234916, -0.44051668, 0.8977152), (0.75808924, 0.008631647, 0.6520937), (0.4451742, 0.6307875, 0.6355525), (-0.43076476, 0.4899181, 0.7579063), (0.060689367, 0.6417784, 0.76448506), (0.080495484, -0.06276119, 0.9947771), (0.72853744, -0.017168552, 0.68479097), (0.63094425, 0.47770575, 0.6113155), (0.86943257, 0.050396323, 0.49147457), (0.5710373, 0.3528069, 0.7412447), (0.33318412, -0.3414799, 0.8788513), (0.79447335, -0.47638458, 0.37665597), (0.7896879, -0.27980286, 0.54598856), (0.44496545, 0.38303763, 0.80949867), (-0.5403137, 0.090976425, 0.83653116), (-0.094963476, -0.89655715, 0.43262827), (0.7389203, -0.57413703, -0.35265195), (0.9539223, -0.29506087, -0.054509014), (0.9190837, -0.2397776, 0.31271675), (0.75502914, -0.5601209, 0.34087473), (0.9066473, -0.15234232, 0.39342415), (0.79469365, -0.26686224, 0.54520315), (0.8785645, -0.46995404, 0.08525051), (0.960251, -0.25645557, 0.11022049), (0.9338118, -0.13280347, 0.33220276), (0.80224276, 0.073985815, 0.5923958), (0.724513, -0.24938133, 0.6425651), (0.86580145, -0.4668736, 0.18004698), (0.87056047, 0.06047903, 0.4883305), (0.74577916, -0.0035231188, 0.666184), (0.8510311, -0.43723446, 0.29081267), (0.94690406, -0.19790794, 0.2533872), (0.9079593, -0.013774626, 0.41883194), (0.85716593, -0.08797337, 0.50747144), (0.9021238, -0.34590548, 0.2579186), (0.94977003, -0.19770326, 0.2425913), (0.9427195, 0.09646413, 0.31933442), (0.83175075, 0.07205838, 0.5504528), (0.85818386, -0.39146495, 0.3320778), (0.9679551, -0.22378701, 0.11393878), (0.9380199, 0.08006489, 0.33720648), (0.86186826, -0.05822237, 0.50377905), (0.9064717, -0.37014806, 0.20322263), (0.9882758, -0.11755058, 0.097430766), (0.97900665, -0.11858678, 0.16578044), (0.8922178, -0.027459057, 0.45076984), (0.82672185, -0.35071483, 0.43992084), (0.90646595, -0.42156678, -0.024519145), (0.88592696, -0.4371014, -0.15516372), (0.99760664, -0.06346646, -0.027442267), (0.96027166, -0.004716172, 0.27902701), (0.8918983, -0.32563215, 0.31381708), (0.89380264, -0.39322022, 0.21562657), (0.4977162, -0.3641774, 0.78718054), (-0.59477204, -0.7702407, 0.23016386), (0.3104782, -0.8458789, -0.43369585), (0.870743, -0.2848577, 0.40082756), (0.68324184, -0.024923608, 0.7297668), (0.28629637, -0.47508538, 0.8320627), (0.6190973, -0.74910736, 0.23570505), (0.9149665, -0.37546465, 0.14785975), (0.8027523, -0.11062762, 0.5859609), (0.29065147, -0.33719793, 0.89544356), (0.40615222, -0.913404, -0.02708298), (0.7355231, -0.60914487, -0.29656088), (0.9320436, -0.3512581, -0.08895278), (0.9255458, -0.29079798, 0.24249035), (0.7887949, -0.5517528, 0.27087173), (0.51060146, 0.6745182, 0.5332084), (-0.040174283, 0.9406815, -0.33690387), (-0.8539975, 0.5202711, 0.0024883747), (-0.37213254, 0.64480084, 0.66764444), (-0.7388663, 0.67289704, 0.035862483), (-0.4561969, 0.59847915, 0.6585645), (0.41944167, 0.5902885, 0.6896581), (0.4518693, 0.8805399, 0.14305148), (-0.65518713, 0.65355206, 0.3789454), (0.19571583, 0.8373774, 0.5103865), (-0.04606219, 0.94767433, -0.3158981), (-0.81885606, 0.5360244, -0.20531122), (-0.7574029, 0.4925412, 0.42865378), (-0.19482383, 0.6207706, 0.7593995), (-0.03474848, 0.88499606, 0.46429986), (-0.794152, 0.60370237, 0.06975728), (-0.604663, 0.6658027, 0.4371379), (-0.31996185, 0.2768222, 0.90608716), (0.48474166, 0.376355, 0.7895458), (0.33066177, 0.81440693, 0.47686914), (-0.75421536, 0.60624874, 0.25223356), (-0.56505096, 0.4387635, 0.6987159), (0.19307905, 0.50370824, 0.84202045), (0.1341246, 0.87710184, 0.4611973), (-0.9089341, 0.3249827, 0.2611991), (-0.6683968, 0.19119683, 0.7188113), (-0.11336001, 0.6231743, 0.77382386), (-0.6796208, 0.7118248, 0.17725968), (-0.51960975, 0.29362294, 0.8023661), (0.10994835, -0.23129126, 0.9666518), (0.5827504, 0.2723107, 0.765669), (0.07951696, 0.68017155, 0.7287276), (-0.59396243, -0.37407818, 0.7122319), (0.4035238, 0.00793311, 0.91493475), (-0.04468341, 0.69890606, 0.71381634), (-0.7794839, 0.3218141, 0.53743905), (-0.56017363, 0.54501164, 0.6238333), (-0.67456865, -0.11588059, 0.72906023), (0.29095396, -0.09219151, 0.95228493), (0.21821119, 0.61480916, 0.7578876), (-0.7893485, 0.26395532, 0.55430746), (-0.6529739, -0.340013, 0.6767692), (0.18283927, -0.07874272, 0.97998446), (-0.15860225, 0.60641545, 0.7791699), (0.13180166, -0.6133575, 0.7787303), (-0.008063383, 0.26736975, 0.9635602), (-0.754666, 0.083231255, 0.65080863), (-0.72025484, -0.5739186, 0.38967997), (-0.26931852, 0.27132922, 0.92403895), (-0.8319495, 0.0938786, 0.546852), (-0.8291721, -0.46183568, 0.31493092), (-0.24878561, -0.61413145, 0.74896485), (-0.31728533, -0.5639657, 0.7624125), (-0.49167874, 0.2377559, 0.8376898), (-0.9012115, -0.03186716, 0.43220645), (-0.8032644, -0.5369787, 0.25772145), (-0.1915145, 0.4970552, 0.8463205), (-0.740996, 0.3068039, 0.5973244), (-0.7911272, -0.23464881, 0.564852), (-0.14808404, -0.18377312, 0.97175026), (0.6918008, 0.36196345, 0.6248152), (0.8238941, -0.19487146, 0.5321876), (0.9258106, 0.008109212, 0.37790078), (0.83714503, 0.36219418, 0.40988237), (0.8295685, 0.33957905, 0.44328552), (0.8607245, 0.013632616, 0.50888854), (0.9479666, -0.07050423, 0.31046528), (0.93921953, 0.19674352, 0.28135166), (0.8404006, 0.20951694, 0.49982962), (0.83044076, -0.11363432, 0.5453947), (0.93097985, -0.25517994, 0.26107398), (0.95315015, 0.05171621, 0.29804406), (0.83872104, 0.14573693, 0.52469784), (0.7286773, 0.07388806, 0.6808597), (0.8161687, -0.36713278, 0.44618618), (0.9115941, -0.14982207, 0.38281798), (0.92317444, -0.16318674, 0.3480215), (0.87289, 0.09587753, 0.47840422), (0.795904, 0.018602341, 0.605137), (0.8475147, -0.3427392, 0.40527594), (0.89853674, 0.1090664, 0.42513102), (0.7887399, 0.20043477, 0.5811329), (0.8454925, -0.21759713, 0.4876413), (0.9272977, -0.18822181, 0.32356066), (0.92185843, -0.050397485, 0.38423568), (0.855845, 0.23700368, 0.4597375), (0.7666883, 0.20390882, 0.60877776), (0.84971267, -0.20942806, 0.48386806), (0.9041554, 0.38015074, 0.1949064), (0.8780836, 0.267321, 0.39687383), (0.96284914, 0.087837785, 0.25535464), (0.9873247, 0.14450872, 0.065628156), (0.6719887, 0.2552635, 0.69517744), (0.869822, 0.15455984, 0.4685306), (0.89344597, 0.3717325, 0.2521298), (0.69184446, 0.6416993, 0.33101857), (0.67110103, 0.523683, 0.52476615), (0.77170384, 0.2888372, 0.5666095), (0.90014505, 0.284194, 0.33011034), (0.8719959, 0.45535854, 0.17964354), (0.5994173, 0.6094804, 0.51887614), (0.68743783, 0.3072868, 0.6580304), (0.87607896, 0.26761353, 0.4010844), (0.8802633, 0.43428192, 0.1911433), (0.6954329, 0.46598563, 0.5470197), (0.82878906, 0.26442114, 0.4931432), (0.92279166, 0.2976234, 0.2446957), (0.8559307, 0.49743, 0.14123096), (0.73955804, 0.3229308, 0.59056723), (0.8556611, 0.14295813, 0.4974004), (0.9112948, 0.2659597, 0.31433597), (0.8219168, 0.47514087, 0.31415612), (0.9091095, 0.29756653, 0.29150313), (0.96592593, 0.25555357, 0.04098162), (0.9103123, 0.40707278, -0.07498893), (0.8265415, 0.46599302, 0.31572086), (-0.9891305, -0.113646, 0.09330244), (-0.9084217, 0.23891634, 0.34305817), (-0.92188036, 0.38334855, 0.05639354), (-0.9881896, -0.007895827, -0.15303232), (-0.9903537, -0.027535673, 0.13579819), (-0.9528393, 0.29605865, 0.06667994), (-0.9693589, 0.08419306, -0.23076987), (-0.96531093, -0.20972525, -0.15553135), (-0.9694046, -0.014513947, 0.24503857), (-0.8838696, 0.24918151, 0.39583242), (-0.93263704, 0.3212149, 0.16434485), (-0.99562573, 0.072864324, 0.05848267), (-0.94745964, -0.20950258, 0.24172074), (-0.8862388, 0.22289263, 0.4060784), (-0.9706383, 0.23130253, 0.066033244), (-0.9920482, -0.12041128, -0.03662622), (-0.8995367, -0.1392238, 0.41406575), (-0.950155, 0.16912088, 0.2619227), (-0.9979176, -0.056843564, -0.030486852), (-0.93156177, -0.36339784, 0.01161335), (-0.96930027, -0.046287842, -0.24148378), (-0.89131856, -0.3616531, -0.27341974), (-0.948847, -0.3144374, 0.028610233), (-0.999377, 0.023333967, 0.026476242), (-0.95975536, -0.2750352, 0.05679147), (-0.97871244, -0.01789257, 0.20445487), (-0.9973693, 0.0707255, 0.015888363), (-0.9802443, -0.1501672, -0.1287289), (-0.89332926, -0.29753643, -0.33680093), (-0.8498148, -0.52380073, -0.058716), (-0.9526597, -0.22160691, 0.2081582), (-0.9851202, -0.1443541, -0.09327394), (-0.91675097, -0.29846472, 0.265493), (-0.98772824, -0.11741169, 0.10299245), (-0.9616178, -0.19993708, -0.18792605), (-0.8859966, -0.41896546, -0.1986906), (-0.8994956, -0.11663726, 0.42107433), (-0.9795978, 0.025570989, 0.19933414), (-0.9759364, -0.21473628, -0.03789845), (-0.89629734, -0.436799, 0.076535106), (-0.91171473, -0.32509413, 0.2511772), (-0.96437865, -0.027560353, 0.26308602), (-0.99591684, -0.08911964, -0.014404267), (-0.9355796, -0.33940768, -0.09743333), (-0.6789761, -0.3060577, 0.667323), (-0.91014653, -0.16671377, 0.3792621), (-0.9450613, -0.32689303, -0.0001924783), (-0.81532264, -0.57882637, 0.014459051), (-0.8309038, -0.34426162, 0.4371301), (-0.9507512, -0.10745916, 0.29073137), (-0.9665504, -0.24187948, -0.08529207), (-0.85554206, -0.47473532, -0.20657748), (-0.84696865, -0.5226545, -0.09734725), (-0.80209553, -0.24641296, 0.5439884), (-0.9587685, -0.1166567, 0.2591416), (-0.9551022, -0.2793032, -0.09884115), (-0.87108463, -0.463388, 0.16273704), (-0.95242107, -0.24033381, 0.18743987), (-0.95969737, -0.2585931, -0.110048264), (-0.8746491, -0.41629907, -0.24836251), (0.9181152, 0.28839487, 0.27183256), (0.87732387, 0.11614926, 0.4656311), (0.9400468, -0.2266171, 0.2548666), (0.99808985, -0.015979126, 0.059678808), (0.8819466, 0.27538627, 0.3825341), (0.88016564, 0.0764788, 0.4684648), (0.9516573, -0.07065663, 0.29892448), (0.96554863, 0.121372014, 0.23018356), (0.9498599, 0.10487783, 0.29456195), (0.998111, -0.05479288, 0.02778858), (0.96743447, 0.24284846, -0.071379855), (0.87890625, 0.41203487, 0.24031445), (-0.8658489, 0.23127568, 0.44364092), (-0.65832317, -0.16576475, 0.73425645), (-0.053398013, 0.08700371, 0.9947758), (-0.5855609, 0.5659909, 0.580321), (0.55253774, 0.7315936, -0.3993404), (0.7642603, 0.48873505, 0.42076623), (0.96001315, 0.27995458, 0.000148803), (0.84819674, 0.35977122, -0.38875046), (0.014246389, 0.5977782, 0.80153495), (0.83862996, 0.30042836, 0.45435938), (0.91038495, 0.3888423, -0.14142486), (0.46461836, 0.8165344, -0.34263888), (-0.7517258, 0.659271, -0.016434416), (-0.3934132, 0.4242346, 0.81562924), (0.814894, 0.49892008, 0.2950027), (0.5036864, 0.72688806, -0.4668337), (0.96740764, -0.21445753, 0.13464972), (0.7779478, -0.39384288, 0.48957667), (0.81089485, -0.5727385, 0.12008412), (0.95579803, -0.24558148, -0.16167878), (0.90062034, -0.3288331, 0.28416887), (0.8374424, -0.5348791, 0.11222577), (0.94613075, -0.23052822, -0.22736186), (0.98845744, -0.15004511, -0.020940244), (-0.21354389, -0.6748013, 0.70642924), (-0.79920864, -0.41068003, 0.43887064), (-0.8910815, -0.4484245, -0.06992317), (0.091838375, -0.97504514, -0.20212041), (-0.7389204, 0.57413715, -0.3526516), (-0.95392245, 0.29506058, -0.054508865), (-0.9190838, 0.23977764, 0.31271663), (-0.7550292, 0.56012064, 0.3408748), (-0.88592684, 0.43710154, -0.15516381), (-0.99760664, 0.06346625, -0.02744203), (-0.96027166, 0.0047164103, 0.27902713), (-0.8918983, 0.3256321, 0.31381696), (-0.8938025, 0.3932203, 0.21562678), (-0.49771637, 0.36417735, 0.7871806), (0.59477216, 0.7702408, 0.23016383), (-0.31047818, 0.8458791, -0.43369573), (-0.6404248, 0.70845455, -0.29656106), (-0.87194157, 0.4814616, -0.08895309), (-0.87419355, 0.42069486, 0.24249008), (-0.7013861, 0.65930754, 0.2708714), (-0.5106016, -0.67451835, 0.5332083), (0.04017427, -0.9406815, -0.33690402), (0.85399747, -0.52027124, 0.0024883747), (0.37213242, -0.644801, 0.6676445), (0.6551871, -0.65355223, 0.37894517), (-0.1957158, -0.83737755, 0.51038635), (0.04606206, -0.9476743, -0.31589833), (0.818856, -0.5360243, -0.20531142), (0.5778759, -0.6018197, 0.55124635), (0.5069084, -0.8554443, -0.10610807), (0.9013033, -0.30183202, -0.3107248), (0.94045043, -0.322417, 0.10770449), (-0.9041555, -0.38015044, 0.19490646), (-0.8780837, -0.26732063, 0.39687374), (-0.96284926, -0.08783725, 0.25535488), (-0.9873248, -0.14450832, 0.06562826), (-0.9091094, -0.29756653, 0.29150355), (-0.9659259, -0.25555345, 0.04098162), (-0.9103123, -0.4070727, -0.07498859), (-0.8265414, -0.46599287, 0.31572127), (0.98913056, 0.11364621, 0.093302414), (0.90842175, -0.23891622, 0.34305817), (0.92188054, -0.3833484, 0.05639361), (0.98818976, 0.007895887, -0.15303239), (0.9903538, 0.02753565, 0.13579813), (0.95283943, -0.29605868, 0.06667982), (0.969359, -0.084193125, -0.23077002), (0.96531105, 0.209725, -0.15553147), (0.9693004, 0.046287555, -0.24148378), (0.8913187, 0.36165276, -0.27341983), (0.9488471, 0.3144371, 0.02861021), (0.999377, -0.023334444, 0.026476093), (0.89332926, 0.29753637, -0.336801), (0.8498149, 0.5238007, -0.05871594), (0.95265967, 0.22160688, 0.20815831), (0.9851203, 0.14435402, -0.09327379), (0.91675097, 0.2984645, 0.26549298), (0.9877282, 0.11741185, 0.102992654), (0.9616178, 0.19993696, -0.1879263), (0.8859966, 0.41896558, -0.1986906), (0.8710846, 0.46338797, 0.1627371), (0.9524212, 0.2403335, 0.18744004), (0.9596973, 0.2585931, -0.110048294), (0.87464917, 0.41629902, -0.24836278), (-0.9498599, -0.10487774, 0.2945618), (-0.998111, 0.054792594, 0.02778846), (-0.9674344, -0.24284855, -0.071379706), (-0.87890613, -0.41203493, 0.24031448), (-0.55253786, -0.73159367, -0.39934033), (-0.76426035, -0.48873502, 0.42076612), (-0.9600132, -0.27995455, 0.000148803), (-0.8481967, -0.3597712, -0.38875085), (-0.0142463595, -0.59777844, 0.8015348), (-0.8386303, -0.30042812, 0.45435923), (-0.91038483, -0.38884246, -0.14142495), (-0.46461853, -0.8165343, -0.34263894), (0.75172555, -0.6592712, -0.016434297), (0.39341307, -0.42423457, 0.81562936), (-0.81489384, -0.49892005, 0.29500288), (-0.50368667, -0.72688794, -0.46683368), (-0.94289076, 0.29962495, 0.14554045), (-0.7166765, 0.5502341, 0.4285059), (-0.77385426, 0.632696, 0.029075593), (-0.9554221, 0.2548861, -0.14900233), (-0.90062034, 0.32883304, 0.28416863), (-0.8374423, 0.5348794, 0.11222556), (-0.94613075, 0.23052818, -0.22736189), (-0.9884573, 0.15004542, -0.020940274), (0.213544, 0.67480123, 0.70642924), (0.7992087, 0.41068, 0.4388705), (0.8910815, 0.4484245, -0.06992311), (-0.09183832, 0.9750452, -0.2021204), (0.7389203, -0.5741372, -0.3526518), (0.95392233, -0.29506087, -0.054508716), (0.91908365, -0.23977779, 0.31271684), (0.7550291, -0.56012094, 0.34087467), (0.88592684, -0.43710166, -0.15516381), (0.99760664, -0.06346616, -0.027442262), (0.9602717, -0.0047163125, 0.27902707), (0.8918984, -0.32563213, 0.31381696), (0.89200807, -0.39307973, 0.2231816), (0.48875654, -0.37019005, 0.78998506), (-0.59570146, -0.7737035, 0.21569107), (0.31793812, -0.84115, -0.4374723), (0.7355232, -0.6091448, -0.29656082), (0.9320435, -0.35125837, -0.08895283), (0.9255458, -0.29079795, 0.24249002), (0.7887949, -0.55175316, 0.27087095), (0.5106016, 0.67451817, 0.53320843), (-0.04017409, 0.9406815, -0.336904), (-0.85399747, 0.5202712, 0.0024884343), (-0.37213242, 0.6448011, 0.6676444), (-0.65518713, 0.653552, 0.3789454), (0.19571584, 0.8373775, 0.5103864), (-0.04606208, 0.94767433, -0.31589818), (-0.81885594, 0.5360245, -0.20531124), (-0.5778756, 0.6018197, 0.55124664), (-0.5069084, 0.8554443, -0.106108144), (-0.9013032, 0.30183205, -0.3107249), (-0.9404504, 0.322417, 0.10770467), (0.90415555, 0.38015026, 0.19490647), (0.87808365, 0.2673206, 0.3968737), (0.9628492, 0.08783725, 0.25535482), (0.98732483, 0.14450827, 0.06562835), (0.9091095, 0.29756618, 0.29150355), (0.96592593, 0.25555342, 0.040981904), (0.91031235, 0.40707254, -0.074988425), (0.82654154, 0.46599272, 0.3157211), (-0.98913056, -0.1136458, 0.09330258), (-0.9084218, 0.23891638, 0.34305823), (-0.9218805, 0.38334852, 0.056393564), (-0.98818976, -0.007895857, -0.15303227), (-0.9903539, -0.027535573, 0.1357979), (-0.9528395, 0.29605874, 0.0666796), (-0.9693589, 0.08419309, -0.23077016), (-0.965311, -0.20972517, -0.15553162), (-0.96930027, -0.046287593, -0.24148388), (-0.89131856, -0.3616527, -0.27342004), (-0.9488471, -0.3144371, 0.028610121), (-0.999377, 0.023334444, 0.02647601), (-0.8933294, -0.2975362, -0.33680087), (-0.849815, -0.5238005, -0.05871603), (-0.95265985, -0.22160669, 0.20815805), (-0.98512036, -0.14435384, -0.09327376), (-0.9167509, -0.2984649, 0.26549307), (-0.98772824, -0.11741191, 0.102992505), (-0.9616178, -0.19993694, -0.18792653), (-0.8859965, -0.41896558, -0.19869092), (-0.8710847, -0.46338788, 0.16273679), (-0.9524214, -0.24033332, 0.18743914), (-0.9596972, -0.2585931, -0.11004889), (-0.8746493, -0.4162987, -0.24836263), (0.94986, 0.10487753, 0.29456177), (0.998111, -0.05479324, 0.02778855), (0.9674345, 0.24284807, -0.07137974), (0.87890637, 0.41203457, 0.2403144), (-0.13688758, 0.92569524, 0.3526331), (-0.5559739, 0.7652786, 0.32440996), (-0.31287357, 0.6672344, 0.67595005), (-0.13688758, 0.92569524, 0.3526331), (-0.3664603, 0.92979723, -0.034408327), (-0.5559739, 0.7652786, 0.32440996), (-0.13688758, 0.92569524, 0.3526331), (0.066431135, 0.99690753, -0.041980553), (-0.3664603, 0.92979723, -0.034408327), (-0.13688758, 0.92569524, 0.3526331), (0.30998206, 0.89897656, 0.3094388), (0.066431135, 0.99690753, -0.041980553), (-0.13688758, 0.92569524, 0.3526331), (0.12009011, 0.7341509, 0.66828203), (0.30998206, 0.89897656, 0.3094388), (-0.13688758, 0.92569524, 0.3526331), (-0.31287357, 0.6672344, 0.67595005), (0.12009011, 0.7341509, 0.66828203), (0.040611867, -0.71957237, 0.69322884), (-0.11690063, -0.9360171, 0.33197322), (0.31524462, -0.87313753, 0.37182218), (0.040611867, -0.71957237, 0.69322884), (-0.39555055, -0.709828, 0.5828241), (-0.11690063, -0.9360171, 0.33197322), (0.040611867, -0.71957237, 0.69322884), (-0.24235068, -0.42073005, 0.87421525), (-0.39555055, -0.709828, 0.5828241), (0.040611867, -0.71957237, 0.69322884), (0.1898437, -0.35751912, 0.91440666), (-0.24235068, -0.42073005, 0.87421525), (0.040611867, -0.71957237, 0.69322884), (0.46843404, -0.58384717, 0.6630928), (0.1898437, -0.35751912, 0.91440666), (0.040611867, -0.71957237, 0.69322884), (0.31524462, -0.87313753, 0.37182218), (0.46843404, -0.58384717, 0.6630928), (-0.47819626, 0.82357734, 0.3050388), (-0.67322, 0.73393875, -0.09004854), (-0.80969244, 0.5217643, 0.26862633), (-0.47819626, 0.82357734, 0.3050388), (-0.2936338, 0.9521548, -0.08473734), (-0.67322, 0.73393875, -0.09004854), (-0.47819626, 0.82357734, 0.3050388), (-0.050200596, 0.9588393, 0.2794763), (-0.2936338, 0.9521548, -0.08473734), (-0.47819626, 0.82357734, 0.3050388), (-0.18633328, 0.7467408, 0.6384811), (-0.050200596, 0.9588393, 0.2794763), (-0.47819626, 0.82357734, 0.3050388), (-0.5661171, 0.52827597, 0.63280004), (-0.18633328, 0.7467408, 0.6384811), (-0.47819626, 0.82357734, 0.3050388), (-0.80969244, 0.5217643, 0.26862633), (-0.5661171, 0.52827597, 0.63280004), (0.3477906, 0.6071489, 0.7144311), (0.46524325, 0.8190684, 0.33567193), (0.058285717, 0.86912936, 0.4911385), (0.3477906, 0.6071489, 0.7144311), (0.7194229, 0.4959099, 0.4863167), (0.46524325, 0.8190684, 0.33567193), (0.3477906, 0.6071489, 0.7144311), (0.56708324, 0.2226149, 0.7930064), (0.7194229, 0.4959099, 0.4863167), (0.3477906, 0.6071489, 0.7144311), (0.16006957, 0.27232778, 0.9487967), (0.56708324, 0.2226149, 0.7930064), (0.3477906, 0.6071489, 0.7144311), (-0.09413138, 0.5956635, 0.79769933), (0.16006957, 0.27232778, 0.9487967), (0.3477906, 0.6071489, 0.7144311), (0.058285717, 0.86912936, 0.4911385), (-0.09413138, 0.5956635, 0.79769933), (0.8655854, -0.34004876, 0.3675989), (0.94039696, -0.33155152, -0.075677834), (0.98703134, 0.037823193, 0.15600796), (0.8655854, -0.34004876, 0.3675989), (0.73145527, -0.67476046, 0.098343305), (0.94039696, -0.33155152, -0.075677834), (0.8655854, -0.34004876, 0.3675989), (0.569235, -0.6491712, 0.5045277), (0.73145527, -0.67476046, 0.098343305), (0.8655854, -0.34004876, 0.3675989), (0.61565727, -0.27988324, 0.7366353), (0.569235, -0.6491712, 0.5045277), (0.8655854, -0.34004876, 0.3675989), (0.8245962, 0.06347432, 0.5621495), (0.61565727, -0.27988324, 0.7366353), (0.8655854, -0.34004876, 0.3675989), (0.98703134, 0.037823193, 0.15600796), (0.8245962, 0.06347432, 0.5621495), (0.03286838, -0.86875015, 0.4941585), (0.04758799, -0.99685174, 0.06341866), (0.4177591, -0.8701343, 0.26142633), (0.03286838, -0.86875015, 0.4941585), (-0.34037736, -0.9076029, 0.24576421), (0.04758799, -0.99685174, 0.06341866), (0.03286838, -0.86875015, 0.4941585), (-0.35864812, -0.69186264, 0.62665594), (-0.34037736, -0.9076029, 0.24576421), (0.03286838, -0.86875015, 0.4941585), (0.011383193, -0.5649224, 0.82506555), (-0.35864812, -0.69186264, 0.62665594), (0.03286838, -0.86875015, 0.4941585), (0.39946237, -0.6541794, 0.6422455), (0.011383193, -0.5649224, 0.82506555), (0.03286838, -0.86875015, 0.4941585), (0.4177591, -0.8701343, 0.26142633), (0.39946237, -0.6541794, 0.6422455), (-0.038229927, -0.975093, 0.21847689), (0.27380666, -0.95607036, -0.10468626), (0.3890695, -0.867805, 0.3090944), (-0.038229927, -0.975093, 0.21847689), (-0.14919086, -0.96458507, -0.21752633), (0.27380666, -0.95607036, -0.10468626), (-0.038229927, -0.975093, 0.21847689), (-0.45754507, -0.8852628, 0.083440855), (-0.14919086, -0.96458507, -0.21752633), (-0.038229927, -0.975093, 0.21847689), (-0.342696, -0.79692906, 0.4974572), (-0.45754507, -0.8852628, 0.083440855), (-0.038229927, -0.975093, 0.21847689), (0.08067976, -0.78825974, 0.61003065), (-0.342696, -0.79692906, 0.4974572), (-0.038229927, -0.975093, 0.21847689), (0.3890695, -0.867805, 0.3090944), (0.08067976, -0.78825974, 0.61003065), (-0.0056265406, -0.98955065, 0.14407599), (0.009229665, -0.9526941, -0.3037905), (0.38160187, -0.9213322, -0.07434327), (-0.0056265406, -0.98955065, 0.14407599), (-0.37717572, -0.92069197, -0.10032382), (0.009229665, -0.9526941, -0.3037905), (-0.0056265406, -0.98955065, 0.14407599), (-0.39169928, -0.85771525, 0.33301103), (-0.37717572, -0.92069197, -0.10032382), (-0.0056265406, -0.98955065, 0.14407599), (-0.019463366, -0.82628614, 0.56291413), (-0.39169928, -0.85771525, 0.33301103), (-0.0056265406, -0.98955065, 0.14407599), (0.3670605, -0.85812813, 0.35900226), (-0.019463366, -0.82628614, 0.56291413), (-0.0056265406, -0.98955065, 0.14407599), (0.38160187, -0.9213322, -0.07434327), (0.3670605, -0.85812813, 0.35900226), (-0.5214115, -0.18853287, 0.83221716), (-0.7250103, -0.44593585, 0.52488214), (-0.36078757, -0.5932887, 0.7196116), (-0.5214115, -0.18853287, 0.83221716), (-0.83286184, -0.022487132, 0.5530239), (-0.7250103, -0.44593585, 0.52488214), (-0.5214115, -0.18853287, 0.83221716), (-0.57679874, 0.25411984, 0.77635455), (-0.83286184, -0.022487132, 0.5530239), (-0.5214115, -0.18853287, 0.83221716), (-0.21238, 0.10715185, 0.9712946), (-0.57679874, 0.25411984, 0.77635455), (-0.5214115, -0.18853287, 0.83221716), (-0.10459439, -0.31659847, 0.9427754), (-0.21238, 0.10715185, 0.9712946), (-0.5214115, -0.18853287, 0.83221716), (-0.36078757, -0.5932887, 0.7196116), (-0.10459439, -0.31659847, 0.9427754), (-0.07538484, 0.73027015, 0.6789865), (-0.38971227, 0.8402819, 0.376896), (-0.48450333, 0.54349065, 0.68547386), (-0.07538484, 0.73027015, 0.6789865), (0.02661494, 0.9530842, 0.30153313), (-0.38971227, 0.8402819, 0.376896), (-0.07538484, 0.73027015, 0.6789865), (0.3487139, 0.7695204, 0.53501105), (0.02661494, 0.9530842, 0.30153313), (-0.07538484, 0.73027015, 0.6789865), (0.25434586, 0.47260052, 0.84377533), (0.3487139, 0.7695204, 0.53501105), (-0.07538484, 0.73027015, 0.6789865), (-0.16234288, 0.3597557, 0.9188147), (0.25434586, 0.47260052, 0.84377533), (-0.07538484, 0.73027015, 0.6789865), (-0.48450333, 0.54349065, 0.68547386), (-0.16234288, 0.3597557, 0.9188147), (-0.017662277, 0.8255306, 0.5640809), (-0.35221356, 0.89553684, 0.2719548), (-0.4271028, 0.6506277, 0.62790674), (-0.017662277, 0.8255306, 0.5640809), (0.058582895, 0.9868077, 0.15092555), (-0.35221356, 0.89553684, 0.2719548), (-0.017662277, 0.8255306, 0.5640809), (0.39507487, 0.8336173, 0.3860027), (0.058582895, 0.9868077, 0.15092555), (-0.017662277, 0.8255306, 0.5640809), (0.32061908, 0.5885998, 0.7421279), (0.39507487, 0.8336173, 0.3860027), (-0.017662277, 0.8255306, 0.5640809), (-0.090561986, 0.49724552, 0.86287045), (0.32061908, 0.5885998, 0.7421279), (-0.017662277, 0.8255306, 0.5640809), (-0.4271028, 0.6506277, 0.62790674), (-0.090561986, 0.49724552, 0.86287045), (0.26995835, 0.87624896, 0.39913693), (0.09332635, 0.99563015, 0.0032675522), (-0.17389053, 0.9229947, 0.3432823), (0.26995835, 0.87624896, 0.39913693), (0.50947845, 0.8602849, 0.018483624), (0.09332635, 0.99563015, 0.0032675522), (0.26995835, 0.87624896, 0.39913693), (0.6590909, 0.6524779, 0.37399444), (0.50947845, 0.8602849, 0.018483624), (0.26995835, 0.87624896, 0.39913693), (0.3921413, 0.57961273, 0.7143348), (0.6590909, 0.6524779, 0.37399444), (0.26995835, 0.87624896, 0.39913693), (-0.02430774, 0.71496993, 0.69873244), (0.3921413, 0.57961273, 0.7143348), (0.26995835, 0.87624896, 0.39913693), (-0.17389053, 0.9229947, 0.3432823), (-0.02430774, 0.71496993, 0.69873244), (0.036360182, 0.33208668, 0.94254786), (-0.11177597, 0.6903434, 0.7147952), (-0.39769667, 0.38034672, 0.8349693), (0.036360182, 0.33208668, 0.94254786), (0.31824836, 0.6086861, 0.7267869), (-0.11177597, 0.6903434, 0.7147952), (0.036360182, 0.33208668, 0.94254786), (0.46294147, 0.21698698, 0.85941947), (0.31824836, 0.6086861, 0.7267869), (0.036360182, 0.33208668, 0.94254786), (0.17728916, -0.09338852, 0.97971785), (0.46294147, 0.21698698, 0.85941947), (0.036360182, 0.33208668, 0.94254786), (-0.25298008, -0.011460721, 0.9674036), (0.17728916, -0.09338852, 0.97971785), (0.036360182, 0.33208668, 0.94254786), (-0.39769667, 0.38034672, 0.8349693), (-0.25298008, -0.011460721, 0.9674036), (-0.18504196, 0.106403984, 0.9769533), (-0.38427484, 0.4668266, 0.79649585), (-0.597005, 0.08337633, 0.7978931), (-0.18504196, 0.106403984, 0.9769533), (0.04605312, 0.47925553, 0.87646633), (-0.38427484, 0.4668266, 0.79649585), (-0.18504196, 0.106403984, 0.9769533), (0.264159, 0.10821063, 0.95838946), (0.04605312, 0.47925553, 0.87646633), (-0.18504196, 0.106403984, 0.9769533), (0.051762328, -0.27556995, 0.9598864), (0.264159, 0.10821063, 0.95838946), (-0.18504196, 0.106403984, 0.9769533), (-0.37882173, -0.28771994, 0.8796087), (0.051762328, -0.27556995, 0.9598864), (-0.18504196, 0.106403984, 0.9769533), (-0.597005, 0.08337633, 0.7978931), (-0.37882173, -0.28771994, 0.8796087), (0.017737918, 0.98833233, -0.15127677), (-0.22241615, 0.83699554, -0.49996945), (-0.42164427, 0.89952016, -0.11436675), (0.017737918, 0.98833233, -0.15127677), (0.21476784, 0.8256386, -0.52172387), (-0.22241615, 0.83699554, -0.49996945), (0.017737918, 0.98833233, -0.15127677), (0.45333576, 0.877245, -0.15788594), (0.21476784, 0.8256386, -0.52172387), (0.017737918, 0.98833233, -0.15127677), (0.2544619, 0.9398127, 0.2280375), (0.45333576, 0.877245, -0.15788594), (0.017737918, 0.98833233, -0.15127677), (-0.18304192, 0.95090973, 0.24953221), (0.2544619, 0.9398127, 0.2280375), (0.017737918, 0.98833233, -0.15127677), (-0.42164427, 0.89952016, -0.11436675), (-0.18304192, 0.95090973, 0.24953221), (-0.04221533, 0.98833233, -0.1463459), (-0.39864236, 0.83699566, -0.37486327), (-0.433039, 0.89952, 0.057800807), (-0.04221533, 0.98833233, -0.1463459), (-0.003977682, 0.82563865, -0.5641852), (-0.39864236, 0.83699566, -0.37486327), (-0.04221533, 0.98833233, -0.1463459), (0.3568506, 0.877245, -0.32109016), (-0.003977682, 0.82563865, -0.5641852), (-0.04221533, 0.98833233, -0.1463459), (0.32290524, 0.9398127, 0.11173253), (0.3568506, 0.877245, -0.32109016), (-0.04221533, 0.98833233, -0.1463459), (-0.0721551, 0.95090973, 0.30093914), (0.32290524, 0.9398127, 0.11173253), (-0.04221533, 0.98833233, -0.1463459), (-0.433039, 0.89952, 0.057800807), (-0.0721551, 0.95090973, 0.30093914), (-0.944959, 0.3271732, 0.0032048514), (-0.99152917, -0.116811305, 0.056788936), (-0.90390915, 0.13261037, 0.4066481), (-0.944959, 0.3271732, 0.0032048514), (-0.9369318, 0.044283703, -0.3466954), (-0.99152917, -0.116811305, 0.056788936), (-0.944959, 0.3271732, 0.0032048514), (-0.79503506, 0.45524663, -0.4008361), (-0.9369318, 0.044283703, -0.3466954), (-0.944959, 0.3271732, 0.0032048514), (-0.70727104, 0.70508933, -0.051153805), (-0.79503506, 0.45524663, -0.4008361), (-0.944959, 0.3271732, 0.0032048514), (-0.76178974, 0.5435366, 0.35248324), (-0.70727104, 0.70508933, -0.051153805), (-0.944959, 0.3271732, 0.0032048514), (-0.90390915, 0.13261037, 0.4066481), (-0.76178974, 0.5435366, 0.35248324), (0.017738072, 0.9883322, -0.15127674), (-0.22241592, 0.83699596, -0.499969), (-0.42164427, 0.8995201, -0.114366345), (0.017738072, 0.9883322, -0.15127674), (0.21476813, 0.8256385, -0.5217238), (-0.22241592, 0.83699596, -0.499969), (0.017738072, 0.9883322, -0.15127674), (0.453336, 0.87724483, -0.15788609), (0.21476813, 0.8256385, -0.5217238), (0.017738072, 0.9883322, -0.15127674), (0.25446165, 0.9398127, 0.22803752), (0.453336, 0.87724483, -0.15788609), (0.017738072, 0.9883322, -0.15127674), (-0.18304214, 0.95090973, 0.2495321), (0.25446165, 0.9398127, 0.22803752), (0.017738072, 0.9883322, -0.15127674), (-0.42164427, 0.8995201, -0.114366345), (-0.18304214, 0.95090973, 0.2495321), (0.017737946, 0.9883322, -0.1512768), (-0.22241598, 0.83699566, -0.49996924), (-0.42164418, 0.89952016, -0.11436648), (0.017737946, 0.9883322, -0.1512768), (0.21476787, 0.8256385, -0.5217239), (-0.22241598, 0.83699566, -0.49996924), (0.017737946, 0.9883322, -0.1512768), (0.45333558, 0.87724495, -0.15788607), (0.21476787, 0.8256385, -0.5217239), (0.017737946, 0.9883322, -0.1512768), (0.25446165, 0.93981284, 0.22803766), (0.45333558, 0.87724495, -0.15788607), (0.017737946, 0.9883322, -0.1512768), (-0.18304193, 0.95090973, 0.24953215), (0.25446165, 0.93981284, 0.22803766), (0.017737946, 0.9883322, -0.1512768), (-0.42164418, 0.89952016, -0.11436648), (-0.18304193, 0.95090973, 0.24953215), (0.0013682399, -0.9998054, -0.019681027), (0.032826606, -0.8900999, -0.4545818), (0.3957528, -0.89437574, -0.20849885), (0.0013682399, -0.9998054, -0.019681027), (-0.36142966, -0.89421, -0.26411593), (0.032826606, -0.8900999, -0.4545818), (0.0013682399, -0.9998054, -0.019681027), (-0.3932612, -0.90304923, 0.17276491), (-0.36142966, -0.89421, -0.26411593), (0.0013682399, -0.9998054, -0.019681027), (-0.030489529, -0.9073346, 0.41930217), (-0.3932612, -0.90304923, 0.17276491), (0.0013682399, -0.9998054, -0.019681027), (0.36390045, -0.90299326, 0.22842853), (-0.030489529, -0.9073346, 0.41930217), (0.0013682399, -0.9998054, -0.019681027), (0.3957528, -0.89437574, -0.20849885), (0.36390045, -0.90299326, 0.22842853), (-0.18084736, -0.98226106, -0.049571905), (-0.49498954, -0.8078745, -0.31988144), (-0.090954356, -0.8742681, -0.4768465), (-0.18084736, -0.98226106, -0.049571905), (-0.5666829, -0.8162883, 0.11199951), (-0.49498954, -0.8078745, -0.31988144), (-0.18084736, -0.98226106, -0.049571905), (-0.23443408, -0.891563, 0.38749984), (-0.5666829, -0.8162883, 0.11199951), (-0.18084736, -0.98226106, -0.049571905), (0.16987813, -0.9580276, 0.2309212), (-0.23443408, -0.891563, 0.38749984), (-0.18084736, -0.98226106, -0.049571905), (0.2413571, -0.9493299, -0.20129424), (0.16987813, -0.9580276, 0.2309212), (-0.18084736, -0.98226106, -0.049571905), (-0.090954356, -0.8742681, -0.4768465), (0.2413571, -0.9493299, -0.20129424)] (
                interpolation = "faceVarying"
            )
            point3f[] points = [(-0.52224076, -0.23142128, 0.24176854), (-0.13517419, -0.23142132, 0.3836211), (-0.66409343, -0.2314212, 0.6288352), (-0.27702683, -0.23142126, 0.7706878), (-0.38700706, -0.22906864, 0.72574675), (-0.3513432, -0.22906864, 0.45127535), (-0.11253566, -0.22906868, 0.76141065), (-0.076871805, -0.2290687, 0.48693928), (-0.11289435, -0.24436975, 0.43602505), (-0.032755584, -0.2116908, 0.822725), (-0.50097275, -0.23762143, 0.5158793), (-0.42083395, -0.20494248, 0.90257925), (-0.26663443, -0.34403896, 0.6082072), (0.035580873, -0.22465947, 0.76516885), (-0.46383595, -0.16108745, 0.8487541), (-0.16162068, -0.041707963, 1.0057158), (-0.4977255, -0.24400237, 0.63936466), (-0.2429364, -0.24968074, 0.619953), (-0.47750038, -0.17246786, 0.88390565), (-0.22271132, -0.17814626, 0.864494), (-0.31030056, -0.25084376, 0.6211954), (-0.22595188, -0.17877255, 0.86757153), (-0.56700176, -0.22716199, 0.7021513), (-0.48265302, -0.15509078, 0.9485276), (-0.3667434, -0.33447075, 0.6190063), (0.027524821, -0.30434588, 0.6586149), (-0.41650635, -0.09579328, 0.93282235), (-0.022238158, -0.06566842, 0.972431), (0.043576155, -0.2527404, 0.7304544), (-0.04591933, -0.061001584, 0.98255485), (-0.2731548, -0.30691805, 0.6592208), (-0.36265025, -0.11517924, 0.91132134), (-0.1426768, -0.25036573, 0.35712224), (0.23326537, -0.23774052, 0.5065213), (-0.29260835, -0.2187087, 0.7317293), (0.083333865, -0.20608349, 0.88112843), (-0.51236105, 0.2272425, 0.8359555), (-0.765858, 0.1691426, 0.84662735), (-0.45539737, -0.0007354021, 0.94789946), (-0.70889425, -0.058835268, 0.95857126), (-0.34793338, -0.25081038, 0.8212381), (-0.34826607, 0.0070703924, 0.9433012), (-0.6332437, -0.25111097, 0.8210958), (-0.6335763, 0.0067697465, 0.943159), (-0.45462376, -0.07577184, 0.90409654), (-0.7733582, -0.117108494, 0.8857567), (-0.52355665, -0.1598961, 0.8939147), (-0.7320709, 0.13061348, 0.920791), (-0.48226938, 0.087825865, 0.928949), (-0.882139, -0.18505129, 0.82837677), (-0.5634626, -0.24507493, 0.88429606), (-0.83153355, 0.1353285, 0.88387793), (-0.5128571, 0.075304836, 0.93979716), (-0.73592675, 0.23451307, 0.558646), (-0.6616299, 0.20317382, 0.92949915), (-0.36375183, 0.24076866, 0.484613), (-0.28945497, 0.20942941, 0.85546607), (-0.6751187, 0.23638588, 0.40623844), (-0.84261656, 0.19446647, 0.76248735), (-0.31752884, 0.24787447, 0.57571864), (-0.48502672, 0.20595512, 0.9319676), (-0.4696769, 0.2589713, 0.5934114), (-0.65409684, 0.19874108, 0.79930913), (-0.25515056, 0.20719355, 0.77041364), (-0.4395705, 0.1469633, 0.97631145), (-0.44663465, 0.27263662, 0.55792505), (-0.8028755, 0.25082132, 0.5440587), (-0.45379722, 0.17184362, 0.9005112), (-0.8100381, 0.15002832, 0.88664484), (-0.88874835, 0.110908926, 0.61705536), (-0.8174162, 0.06002766, 0.88096845), (-0.6646606, 0.2729328, 0.58772486), (-0.59332836, 0.2220515, 0.85163796), (-0.70091605, 0.24485308, 0.60097396), (-0.9142151, 0.07895869, 0.6600181), (-0.60490614, 0.21303299, 0.8584099), (-0.81820524, 0.04713857, 0.917454), (-0.86546534, 0.16281447, 0.58625424), (-0.632907, 0.22121605, 0.83023393), (-0.6288332, 0.22223908, 0.3464747), (-0.3962747, 0.28064066, 0.59045446), (0.28113896, 0.2735913, 0.5382144), (0.029683888, 0.21915573, 0.724303), (0.47502598, 0.20299299, 0.77955556), (0.22357085, 0.14855741, 0.9656441), (0.043853343, 0.23336542, 0.68094504), (0.18029617, 0.13426134, 1.0197326), (0.3968386, 0.2716732, 0.5499902), (0.5332815, 0.1725691, 0.8887777), (-0.04966876, 0.2994397, 0.6650655), (0.028907344, 0.05313191, 0.98891383), (0.3572038, 0.34700722, 0.6025232), (0.4357799, 0.10069947, 0.9263716), (0.29413283, 0.31127387, 0.65349376), (-0.052084953, 0.26623508, 0.71271133), (0.36853176, 0.101684466, 0.92906433), (0.022313967, 0.05664572, 0.98828185), (0.05256769, 0.27613178, 0.53258264), (-0.13041338, 0.18790533, 0.83418584), (0.36681038, 0.22475797, 0.7082039), (0.18382926, 0.13653152, 1.0098071), (-0.012816697, 0.22906862, 0.4136476), (0.036113203, 0.22906862, 0.811991), (0.38552666, 0.22906864, 0.36471766), (0.43445653, 0.2290686, 0.76306105), (-0.19012125, 0.24024776, 0.8262377), (-0.06582969, -0.10854943, 0.99133444), (0.19577567, 0.35259008, 0.7730625), (0.32006723, 0.0037929267, 0.93815935), (0.008193359, 0.2619638, 0.81355035), (0.009878144, 0.03460124, 0.9211685), (0.25973934, 0.26348662, 0.8128296), (0.2614241, 0.03612405, 0.92044765), (0.3949406, 0.3010236, 0.7995662), (-0.01324147, 0.26492286, 0.8166539), (0.43488118, -0.06791629, 0.97419727), (0.026699126, -0.10401702, 0.99128485), (-0.20006715, 0.15195778, 0.89488226), (-0.044576053, -0.219435, 0.9437133), (0.17452209, 0.30612206, 0.8746126), (0.33001316, -0.06527073, 0.9234437), (0.2904154, 0.23275019, 0.88345677), (-0.023520619, 0.23005076, 0.8838118), (0.2931381, -0.07850705, 0.9243812), (-0.020797923, -0.08120656, 0.92473626), (0.38828874, -0.3364898, 0.78277916), (0.5818534, -0.035472605, 0.9252601), (0.0552539, -0.1615342, 0.86559117), (0.2488186, 0.13948303, 1.0080721), (-0.049531683, -0.36056316, 0.7700605), (0.32562512, -0.20524544, 0.84357727), (-0.22136974, -0.021473527, 0.93056244), (0.15378708, 0.13384417, 1.0040792), (0.21943274, -0.233589, 0.62764), (0.29983085, -0.23358904, 0.28437862), (0.5626942, -0.23358908, 0.7080382), (0.6430923, -0.23358911, 0.3647766), (0.6755415, -0.2348789, 0.55431503), (0.6640651, -0.2080972, 0.8712327), (0.35749426, -0.2358453, 0.5428794), (0.34601784, -0.20906354, 0.8597972), (0.46815604, -0.3278616, 0.63297063), (0.7350975, -0.1912631, 0.812572), (0.24251075, -0.16626358, 0.8454415), (0.5094523, -0.029665086, 1.0250428), (0.7554937, -0.2408205, 0.72649384), (0.70437247, -0.03178525, 1.0063672), (0.4069686, -0.290421, 0.6998793), (0.35584745, -0.08138578, 0.9797528), (0.76925457, -0.2418798, 0.7158193), (0.72836643, -0.09368877, 0.91474235), (0.5217683, -0.2798881, 0.69326395), (0.48088014, -0.13169697, 0.892187), (0.853091, -0.26102456, 0.56409025), (0.9510894, 0.043680638, 0.82573247), (0.5067011, -0.33320296, 0.77788925), (0.60469955, -0.028497737, 1.0395315), (0.8882413, -0.14910328, 0.5201564), (0.94954133, 0.019404575, 0.86016107), (0.5683314, -0.31139642, 0.65826684), (0.62963146, -0.14288856, 0.9982716), (0.5701598, -0.308261, 0.4527419), (0.9068465, -0.16991232, 0.6166575), (0.37878636, -0.25229323, 0.7985895), (0.71547306, -0.11394453, 0.96250504), (0.556535, -0.2957264, 0.739878), (0.55814487, -0.29468173, 0.3217433), (0.9072783, -0.0680953, 0.7417971), (0.9088881, -0.067050606, 0.3236624), (0.10576956, -0.24964601, 0.3681378), (0.38590574, -0.22814982, 0.6225095), (-0.14950886, -0.22605652, 0.64727914), (0.13062732, -0.20456032, 0.9016509), (0.199179, -0.31536627, 0.6441251), (0.42082748, -0.21895206, 0.77089185), (0.039913453, -0.18118729, 0.8205454), (0.26156193, -0.084773004, 0.947312), (0.107396066, -0.27549148, 0.5300465), (0.4853556, -0.25796962, 0.5899456), (0.044986803, -0.1693758, 0.8928039), (0.4229463, -0.15185389, 0.95270294), (0.24319617, -0.22906874, 0.63275987), (0.27425432, -0.22906873, 0.3612823), (0.5146739, -0.22906873, 0.6638182), (0.545732, -0.22906876, 0.39234054), (-0.17743577, 0.22906864, 0.83850586), (0.1440642, 0.22906865, 0.69568014), (-0.32026142, 0.22906865, 0.5170058), (0.0012385547, 0.22906867, 0.3741801), (0.10185222, 0.23927386, 0.4963242), (-0.22675455, 0.23770918, 0.51484025), (0.12043418, 0.21160309, 0.82376397), (-0.20817263, 0.21003842, 0.84228003), (-0.26570395, 0.23502879, 0.40640756), (-0.23560458, 0.23502879, 0.6741356), (0.0020241141, 0.2350288, 0.37630817), (0.03212352, 0.23502877, 0.64403623), (-0.2739616, 0.23607066, 0.5402099), (-0.36193162, 0.21527916, 0.7862447), (-0.027049825, 0.22866322, 0.62786734), (-0.11501983, 0.2078717, 0.87390226), (0.09154664, 0.30852556, 0.6783077), (-0.2320319, 0.23750916, 0.7096414), (0.15866476, 0.1200175, 0.9441801), (-0.1649138, 0.049001038, 0.97551376), (0.015539214, 0.2477907, 0.631632), (-0.2956886, 0.24552396, 0.6393811), (0.023613065, 0.16041067, 0.93034166), (-0.28761473, 0.15814394, 0.9380908), (-0.32275698, 0.3632672, 0.6042), (-0.6161721, 0.21449628, 0.79980606), (-0.07700409, 0.18564299, 0.83774257), (-0.3704192, 0.03687209, 1.0333486), (-0.01495038, 0.2647425, 0.8795836), (-0.21717992, 0.060390264, 0.906452), (0.19116068, 0.06423862, 0.905946), (-0.011068895, -0.14011368, 0.9328144), (-0.4053879, 0.12623623, 0.8985214), (-0.2536257, -0.21080258, 0.94283557), (-0.065448344, 0.27670348, 0.8787378), (0.08631387, -0.060335323, 0.9230519), (0.03946635, 0.22510152, 0.8847957), (-0.28355676, 0.21979412, 0.8854934), (0.044819362, -0.09516533, 0.92690456), (-0.27820373, -0.10047263, 0.92760235), (-0.10445908, 0.20319808, 0.8892001), (-0.3987004, 0.08999437, 0.9040841), (0.009718932, -0.08853251, 0.92755693), (-0.28452238, -0.20173617, 0.94244105), (-0.29205424, -0.28152758, 0.8066987), (0.0040634386, -0.23016237, 0.8310114), (-0.34888285, -0.0138783455, 0.93338567), (-0.052765206, 0.03748685, 0.9576983), (-0.09367765, -0.22699165, 0.833284), (-0.1411454, 0.04317707, 0.9611636), (-0.39258283, -0.26989594, 0.812976), (-0.44005066, 0.00027278066, 0.9408556), (-0.38926688, -0.3140821, 0.7898807), (-0.11199579, -0.21219146, 0.83810884), (-0.5019951, -0.06346741, 0.9085046), (-0.22472398, 0.03842321, 0.95673263), (-0.07929006, -0.11148016, 0.9012592), (-0.12023693, 0.1506159, 0.9357198), (-0.34364185, -0.15207762, 0.8959214), (-0.38458872, 0.11001837, 0.93038195), (0.7042117, 0.3044512, 0.86441475), (0.3247282, 0.15834591, 0.9046301), (0.85410434, -0.07339148, 0.9061144), (0.4746208, -0.21949682, 0.9463298), (0.92818713, 0.17255339, 0.73919034), (0.6337391, 0.25060683, 0.8794127), (0.8817353, -0.14936271, 0.8208393), (0.5872873, -0.07130933, 0.9610618), (0.91976714, -0.0071101785, 0.78710693), (0.6792177, 0.12138505, 1.0005897), (0.7287201, -0.292716, 0.74374396), (0.48817074, -0.1642207, 0.95722675), (0.64839613, -0.19769178, 0.84715265), (0.56929576, 0.04246856, 0.9608281), (0.38269123, -0.2691875, 0.81331134), (0.3035909, -0.029027201, 0.9269869), (0.45049697, -0.28065664, 0.8106891), (0.6965189, -0.21499084, 0.8255164), (0.38493106, -0.05966306, 0.91987497), (0.6309529, 0.0060027186, 0.93470234), (0.7325666, -0.24422956, 0.8131568), (0.7893907, 0.03219541, 0.94051784), (0.42877677, -0.20060256, 0.8540089), (0.48560065, 0.075822294, 0.98137003), (0.48053217, -0.21704786, 0.8886605), (0.76297367, -0.1275862, 0.8849336), (0.39246196, 0.06274386, 0.9305019), (0.67490333, 0.15220553, 0.926775), (0.84958386, 0.13047843, 0.43187678), (0.6056633, 0.27726626, 0.5523287), (0.9381255, 0.044939503, 0.7154189), (0.69420487, 0.1917274, 0.8358708), (0.31035662, 0.33027217, 0.62452656), (0.29569966, 0.07873978, 0.9552445), (0.72585964, 0.32139927, 0.6361926), (0.7112027, 0.069866896, 0.9669105), (0.47511744, 0.27687806, 0.5253062), (0.25087023, 0.21342666, 0.7422156), (0.70111686, 0.21391848, 0.7405339), (0.47686967, 0.15046707, 0.9574432), (0.502661, 0.2745574, 0.53796434), (0.19301787, 0.22504096, 0.7072367), (0.6790272, 0.18762222, 0.835153), (0.3693841, 0.13810578, 1.0044254), (0.4327983, 0.2852319, 0.4915645), (0.28459188, 0.19983348, 0.78349954), (0.7369677, 0.24362151, 0.63380986), (0.5887612, 0.15822306, 0.9257449), (0.49553263, 0.31238955, 0.65588516), (0.36805382, 0.1426272, 0.89266205), (0.78610456, 0.21947905, 0.7457125), (0.6586258, 0.049716752, 0.98248947), (0.39036602, 0.23909631, 0.6252971), (0.6691323, 0.21899343, 0.6792932), (0.4442223, 0.23521258, 0.345807), (0.7229885, 0.21510968, 0.39980313), (-0.87031025, 0.025433123, 0.44498593), (-0.92763644, -0.13581887, 0.7951507), (-0.68889153, 0.32651404, 0.61333513), (-0.7462177, 0.16526204, 0.96349984), (-0.8480808, -0.18798223, 0.45569396), (-0.8262256, -0.04512486, 0.77798307), (-0.7993421, 0.13060036, 0.3111745), (-0.7774869, 0.27345768, 0.6334637), (-0.87460256, 0.0684945, 0.7011547), (-0.7855129, -0.048828274, 0.90368706), (-0.7183825, 0.2596745, 0.7431833), (-0.6292927, 0.1423518, 0.94571555), (-0.9521084, -0.1233111, 0.62728935), (-0.7603828, -0.22445273, 0.9252846), (-0.84460294, 0.22569174, 0.67657584), (-0.65287733, 0.124550134, 0.97457105), (-0.7176902, -0.32564214, 0.6889675), (-0.59298515, -0.15045696, 0.98111284), (-0.9463873, -0.052016377, 0.6225091), (-0.8216822, 0.123168826, 0.9146544), (-0.8660929, 0.023750246, 0.648631), (-0.8538202, 0.0014668703, 0.3095394), (-0.70250607, -0.27327234, 0.6740706), (-0.69023323, -0.29555574, 0.33497903), (-0.81193197, -0.12130731, 0.5027398), (-0.7234554, -0.24562621, 0.7222071), (-0.907841, 0.07721937, 0.6538617), (-0.8193645, -0.04709953, 0.87332904), (-0.93540025, -0.13919634, 0.53085893), (-0.64762086, -0.21146557, 0.2615838), (-0.67423433, -0.20478222, 0.8275739), (-0.38645497, -0.2770514, 0.55829877), (-0.5084889, -0.26463112, 0.46824867), (-0.5392906, -0.22542259, 0.83956593), (-0.8706125, -0.17696783, 0.42895284), (-0.9014143, -0.13775933, 0.8002702), (-0.57404965, -0.33103326, 0.72278476), (-0.5642225, -0.12841377, 0.96082526), (-0.84574026, -0.20771003, 0.6290287), (-0.8359132, -0.0050905347, 0.86706924), (-0.6781941, -0.27442417, 0.5609686), (-0.5561531, -0.25085154, 0.8431969), (-0.9086765, -0.08756974, 0.6450269), (-0.7866355, -0.06399703, 0.92725515), (-0.30623782, -0.25419417, 0.60757655), (-0.26758975, -0.16931996, 0.89771974), (-0.6085402, -0.24334332, 0.6446702), (-0.56989205, -0.15846908, 0.9348133), (-0.47939777, -0.29641935, 0.46629387), (-0.35815194, -0.19559576, 0.84084785), (-0.8662538, -0.23639712, 0.57536507), (-0.74500793, -0.13557354, 0.949919), (-0.7779205, -0.24940652, 0.5579847), (-0.39372513, -0.27862066, 0.5535094), (-0.7654491, -0.14205545, 0.9278495), (-0.38125372, -0.17126954, 0.923374), (-0.48054528, -0.24801543, 0.42653894), (-0.3652031, -0.23353308, 0.6980471), (-0.75161934, -0.21900153, 0.5401492), (-0.6362772, -0.20451918, 0.81165725), (0.89367425, -0.033192277, 0.4498462), (0.8755077, 0.27592966, 0.7012624), (0.772854, -0.27729422, 0.74124503), (0.75468737, 0.031827733, 0.9926611), (0.88684785, 0.08455095, 0.66059804), (0.7364244, 0.21298458, 0.8325695), (0.8416738, -0.13968869, 0.7885532), (0.6912503, -0.011255082, 0.96052486), (0.6706466, 0.33968943, 0.58857113), (0.8306206, 0.051282406, 0.7248421), (0.73674613, 0.22052303, 0.2587677), (0.8967201, -0.06788397, 0.3950387), (-0.35292402, 0.3015909, 0.7996429), (-0.6688545, 0.10635844, 0.89215803), (-0.13942933, -0.005639732, 0.8803664), (-0.45535988, -0.20087224, 0.9728815), (0.5328797, 0.22586659, 0.031331517), (0.14581314, 0.22586669, 0.17318423), (0.6747324, 0.22586656, 0.41839832), (0.28766578, 0.2258666, 0.5602509), (0.114269026, 0.24095389, 0.20375058), (0.03525041, 0.20873168, 0.58504516), (0.49692273, 0.23429987, 0.28248852), (0.41790408, 0.20207764, 0.6637831), (0.14363517, 0.24686603, 0.12595068), (-0.227052, 0.23441729, 0.27326137), (0.29147094, 0.21565148, 0.49532142), (-0.079216294, 0.20320268, 0.6426321), (0.6686345, -0.23308167, 0.17438029), (0.833791, -0.19174823, 0.5256495), (0.31604302, -0.24440971, 0.34149155), (0.48119956, -0.20307632, 0.69276077), (0.8563204, -0.16053867, 0.35187978), (0.6270126, -0.21812388, 0.59244907), (0.622996, -0.2191326, 0.11545208), (0.3936882, -0.27671784, 0.35602137), (0.015590273, -0.2258667, 0.181686), (-0.03265574, -0.22586672, 0.5744612), (-0.377185, -0.22586669, 0.13343999), (-0.42543086, -0.22586662, 0.5262153), (-0.21514511, 0.2258667, 0.4272229), (-0.2955432, 0.22586681, 0.08396143), (-0.5584066, 0.2258667, 0.50762105), (-0.6388047, 0.22586685, 0.1643595), (-0.55062956, 0.29572645, 0.52727914), (-0.5522393, 0.2946817, 0.10914435), (-0.90137273, 0.068095356, 0.5291982), (-0.9029827, 0.06705055, 0.11106345), (-0.10133837, 0.24615636, 0.13681224), (-0.3775587, 0.22496065, 0.38762838), (0.15037173, 0.2228966, 0.41205168), (-0.12584871, 0.20170091, 0.6628678), (-0.21922973, 0.23168343, 0.63682914), (-0.24953638, 0.23608115, 0.36914614), (-0.48413825, 0.2701235, 0.66745317), (-0.5144448, 0.2745212, 0.3997702), (0.18184811, -0.2319417, 0.6016827), (-0.13515784, -0.23194164, 0.4608535), (0.32267734, -0.23194166, 0.28467667), (0.0056714043, -0.23194167, 0.14384748), (0.26748496, -0.22586673, 0.17863771), (0.23780629, -0.22586673, 0.4426234), (0.0034992546, -0.2258667, 0.14895909), (-0.026179412, -0.2258667, 0.4129448), (0.6042776, -0.22586675, 0.42053822), (0.25676817, -0.2258668, 0.565314), (0.45950207, -0.22586668, 0.073028564), (0.111992404, -0.22586676, 0.2178043), (-0.83475554, -0.12865451, 0.19966042), (-0.59424454, -0.2733906, 0.3184286), (-0.9220594, -0.044311315, 0.4792391), (-0.6815485, -0.18904737, 0.5980073), (-0.38195673, -0.23575419, 0.39037704), (-0.6568262, -0.21593228, 0.44361848), (-0.43506017, -0.23192477, 0.11479363), (-0.7099297, -0.21210283, 0.168035), (0.8610975, -0.0250777, 0.21258613), (0.91762245, 0.1339203, 0.5578562), (0.6822148, -0.32195002, 0.37858218), (0.73873955, -0.16295208, 0.7238522), (0.85398626, 0.1879821, 0.24309495), (0.8321312, 0.045124814, 0.5653842), (0.80524766, -0.13060051, 0.09857552), (0.78339237, -0.27345783, 0.4208647), (0.8719984, -0.02375035, 0.4360321), (0.8597256, -0.0014669597, 0.09694045), (0.7084116, 0.27327222, 0.46147162), (0.6961388, 0.29555565, 0.12237997), (0.9413058, 0.13919626, 0.31826), (0.6535264, 0.2114655, 0.04898477), (0.68013984, 0.20478219, 0.6149749), (0.3923605, 0.27705133, 0.34569973), (0.5043338, 0.26093197, 0.23552363), (0.534705, 0.2222715, 0.6016506), (0.8613957, 0.17449406, 0.19677716), (0.89176685, 0.13583358, 0.5629041), (0.47678092, 0.24454859, 0.19439712), (0.363051, 0.23026866, 0.46211004), (0.7440658, 0.21594019, 0.3064192), (0.63033587, 0.20166029, 0.5741321), (-0.6647411, -0.3396894, 0.37597242), (-0.82471514, -0.051282287, 0.5122433), (-0.7308407, -0.22052301, 0.046168797), (-0.89081454, 0.06788397, 0.18243973), (-0.5331023, -0.24121408, -0.1797151), (-0.14054853, -0.24121422, -0.035851482), (-0.6769659, -0.24121405, 0.2128389), (-0.2844121, -0.2412141, 0.35670248), (-0.1085572, -0.2565153, -0.0048517846), (-0.028418422, -0.22383633, 0.38184825), (-0.4966356, -0.24976689, 0.07500245), (-0.4164968, -0.21708797, 0.46170244), (-0.13833973, -0.2625113, -0.08375463), (0.23760252, -0.24988605, 0.06564443), (-0.2882712, -0.23085415, 0.29085255), (0.08767102, -0.21822894, 0.44025153), (-0.5690588, 0.21770257, -0.048627704), (-0.6930327, 0.27049723, 0.28059414), (-0.23573864, 0.24626267, 0.07230957), (-0.35971254, 0.29905736, 0.40153146), (-0.8611282, 0.15066904, 0.14537735), (-0.6285697, 0.20907062, 0.38935703), (-0.62449604, 0.21009363, -0.094402105), (-0.39193746, 0.2684952, 0.14957759), (-0.008479476, 0.21692312, -0.027229302), (0.04045041, 0.2169231, 0.3711142), (0.389864, 0.21692309, -0.07615925), (0.4387938, 0.21692301, 0.3221842), (0.22552684, -0.24121425, 0.22178861), (0.3070647, -0.24121432, -0.12633917), (0.5736545, -0.24121435, 0.30332643), (0.6551925, -0.24121442, -0.044801325), (0.5657672, -0.3120644, 0.32326326), (0.5673999, -0.31100476, -0.100799225), (0.9214827, -0.08120632, 0.3252095), (0.9231155, -0.08014679, -0.09885302), (0.11278485, -0.27451912, -0.079907276), (0.3896742, -0.25469255, 0.17812869), (-0.14601114, -0.25408, 0.19622749), (0.13087827, -0.23425347, 0.45426342), (0.24753332, -0.24121428, 0.19188312), (0.27859154, -0.24121428, -0.07959464), (0.519011, -0.24121438, 0.22294122), (0.55006915, -0.2412143, -0.048536323), (-0.16852558, 0.2239983, 0.39883214), (0.15297437, 0.22399825, 0.2560065), (-0.31135124, 0.22399837, 0.077332124), (0.010148719, 0.22399831, -0.0654936), (-0.26394513, 0.21692316, -0.030320749), (-0.23384577, 0.21692319, 0.23740736), (0.0037829578, 0.21692318, -0.060420167), (0.033882335, 0.21692312, 0.20730796), (-0.6055124, 0.2169232, 0.21500911), (-0.25307646, 0.21692322, 0.36183724), (-0.45868433, 0.21692313, -0.13742712), (-0.106248274, 0.21692322, 0.009401068), (0.85392106, 0.118332684, -0.00900007), (0.61000055, 0.26512066, 0.11145184), (0.94246256, 0.03279379, 0.274542), (0.698542, 0.17958172, 0.39499402), (0.39470327, 0.22695073, 0.18442026), (0.6734694, 0.20684782, 0.23841636), (0.44855958, 0.22306708, -0.09507006), (0.72732574, 0.20296407, -0.04107385), (-0.86597306, 0.013287723, 0.0041090026), (-0.9232992, -0.14796424, 0.35427392), (-0.68455446, 0.31436858, 0.17245823), (-0.74188054, 0.1531167, 0.522623), (-0.858761, -0.20279242, 0.035050504), (-0.8365961, -0.057909966, 0.3619085), (-0.8093313, 0.12030643, -0.11151792), (-0.78716636, 0.26518893, 0.21534021), (-0.87702847, 0.011941552, 0.23072265), (-0.8645816, -0.010657698, -0.1131761), (-0.7111226, -0.28929177, 0.2565228), (-0.6986758, -0.3118911, -0.087375835), (-0.94731826, -0.15331504, 0.111281075), (-0.6554593, -0.22660878, -0.16181159), (-0.68245006, -0.21983074, 0.41220236), (-0.39059103, -0.29312447, 0.13910975), (-0.5041517, -0.27677658, 0.02737169), (-0.53495353, -0.2375681, 0.398689), (-0.8662755, -0.18911329, -0.01192411), (-0.8970773, -0.14990479, 0.35939336), (-0.4762082, -0.26016095, -0.014337841), (-0.36086604, -0.24567859, 0.25717032), (-0.74728215, -0.23114692, 0.099272326), (-0.63194025, -0.21666467, 0.37078044), (0.6814966, 0.33235943, 0.1698113), (0.84373826, 0.03986372, 0.30801404), (0.74853307, 0.21150355, -0.16466776), (0.91077477, -0.08099204, -0.02646479), (-0.06485024, 0.24669439, 0.77699304), (-0.016843617, 0.35501766, 0.6922871), (0.05578494, 0.3257631, 0.7972156), (-0.00080661476, 0.27665612, 0.904546), (-0.13031976, 0.25652027, 0.9067266), (-0.20294829, 0.28577477, 0.80179787), (-0.14621024, 0.33502355, 0.6945781), (-0.11203886, -0.19437179, 0.8589537), (-0.1926772, -0.17266905, 0.9782857), (-0.06366455, -0.15385601, 0.99022466), (0.019700289, -0.22149426, 0.91532946), (-0.02619601, -0.30791894, 0.82810473), (-0.1552087, -0.3267318, 0.8161656), (-0.23844934, -0.25910693, 0.8912562), (-0.7868784, 0.20484042, 0.7395453), (-0.7039245, 0.3226709, 0.7607178), (-0.74462223, 0.2593407, 0.86783326), (-0.85812306, 0.19415426, 0.8663486), (-0.9308774, 0.19211948, 0.7573232), (-0.8901795, 0.25544953, 0.65020776), (-0.77670306, 0.32072538, 0.65190506), (0.7943218, 0.16418912, 0.8204698), (0.89246124, 0.10632892, 0.91121393), (0.7709665, 0.121229485, 0.9576655), (0.69495165, 0.21786013, 0.91274136), (0.74055433, 0.29954964, 0.82092035), (0.86204904, 0.28464893, 0.7744688), (0.9380025, 0.18803862, 0.8196156), (0.8559671, -0.13989064, 0.70045024), (0.84878063, -0.26417565, 0.77604955), (0.86267537, -0.15391856, 0.8452669), (0.9251954, -0.05130665, 0.7933445), (0.97363925, -0.05899042, 0.6717797), (0.95974433, -0.16924746, 0.60256225), (0.8973152, -0.2718401, 0.6546972), (0.44544125, -0.20277426, 0.8617029), (0.33159333, -0.23154572, 0.9478686), (0.4420813, -0.19368914, 1.0070295), (0.55809903, -0.2204045, 0.95262295), (0.5635034, -0.28488418, 0.8386184), (0.4530154, -0.32274067, 0.7794574), (0.33706027, -0.2960715, 0.83408254), (0.099438876, -0.24255188, 0.65949917), (-0.029498259, -0.3073702, 0.63981545), (0.0048585506, -0.28101197, 0.7633695), (0.13128434, -0.27852988, 0.7971964), (0.22350453, -0.30218932, 0.70708793), (0.18914767, -0.32854736, 0.58353394), (0.06264621, -0.33113784, 0.5498976), (-0.5011648, -0.251211, 0.61700755), (-0.61700493, -0.30484885, 0.68713397), (-0.50585926, -0.295478, 0.7556873), (-0.3903103, -0.3051169, 0.6949465), (-0.38602376, -0.32387695, 0.5652795), (-0.49716946, -0.33324775, 0.49672616), (-0.6126601, -0.32373372, 0.5576533), (-0.7325227, -0.06998879, 0.92955387), (-0.7979964, 0.044587493, 0.99119097), (-0.6892416, 0.00064736605, 1.0493492), (-0.65697753, -0.12593889, 1.0410509), (-0.73358464, -0.20863882, 0.9741484), (-0.84233946, -0.1646986, 0.91598994), (-0.87454534, -0.0380854, 0.92451113), (-0.35683537, 0.2144283, 0.851084), (-0.2371464, 0.29474407, 0.8720021), (-0.26539066, 0.2061277, 0.96414423), (-0.38982826, 0.17241618, 0.98678774), (-0.48615354, 0.22730953, 0.9168448), (-0.45790923, 0.31592572, 0.8247026), (-0.3334056, 0.34964305, 0.8022813), (0.3361465, 0.21418244, 0.8463973), (0.4578742, 0.29415756, 0.84632766), (0.4355724, 0.22103195, 0.9526104), (0.31279662, 0.19377366, 0.988901), (0.21215814, 0.23956564, 0.9184818), (0.23446003, 0.3126911, 0.812199), (0.35731804, 0.33998716, 0.776122), (0.6733222, 0.28309166, 0.6630808), (0.81497526, 0.29856843, 0.69322276), (0.7352377, 0.27685577, 0.7947669), (0.6108444, 0.31735837, 0.7903262), (0.56611156, 0.379456, 0.6838991), (0.645849, 0.40116858, 0.58235466), (0.77028096, 0.36072484, 0.58701664), (0.5724657, 0.032573096, 0.97826856), (0.7033393, 0.029280834, 1.0421034), (0.61801845, -0.06330922, 1.0779942), (0.48945612, -0.038946595, 1.0745151), (0.44621742, 0.078239426, 1.0347446), (0.53153837, 0.17082946, 0.9988536), (0.66009945, 0.1463502, 1.0025331), (-0.12139486, -0.007193953, 0.9468447), (-0.0045550466, 0.003218785, 1.0331794), (-0.068018585, -0.11129293, 1.0336089), (-0.19667459, -0.11508052, 1.009793), (-0.26186562, -0.004042268, 0.9852065), (-0.19840202, 0.1104694, 0.98477685), (-0.06974667, 0.114099994, 1.0087633), (0.22847903, 0.23635945, 0.45955762), (0.36032802, 0.29611987, 0.4434893), (0.30089784, 0.31479043, 0.55864227), (0.17021295, 0.31828004, 0.5652133), (0.09888224, 0.3027513, 0.45633423), (0.15831247, 0.28408062, 0.34118128), (0.28903526, 0.280765, 0.33475876), (0.64414185, 0.23635942, 0.35961202), (0.7594865, 0.29611984, 0.293749), (0.74927515, 0.3147904, 0.42293057), (0.6313266, 0.31828, 0.47958636), (0.52340454, 0.3027513, 0.406816), (0.53361595, 0.2840806, 0.2776344), (0.6516569, 0.28076497, 0.22110087), (-0.8534876, 0.081594706, 0.56180143), (-0.89750296, 0.15075004, 0.44141096), (-0.87132764, 0.2252621, 0.5458309), (-0.8877029, 0.17720252, 0.66647923), (-0.930082, 0.054208994, 0.68261904), (-0.9562571, -0.02030313, 0.578199), (-0.9399677, 0.027967274, 0.45759484), (-0.38262895, 0.25210536, 0.5126348), (-0.25077993, 0.31186575, 0.4965664), (-0.31021008, 0.33053634, 0.6117195), (-0.44089502, 0.33402592, 0.6182905), (-0.5122257, 0.31849718, 0.5094114), (-0.45279545, 0.2998265, 0.39425838), (-0.32207265, 0.29651093, 0.38783586), (-0.1968156, 0.22247396, 0.22520924), (-0.06496659, 0.28223437, 0.20914082), (-0.12439675, 0.30090493, 0.3242939), (-0.25508168, 0.30439454, 0.33086497), (-0.32641235, 0.2888658, 0.22198588), (-0.26698214, 0.27019513, 0.10683279), (-0.13625932, 0.26687953, 0.10041031), (0.30287558, -0.23186794, 0.42333198), (0.18513149, -0.2969722, 0.47911212), (0.29345503, -0.29824972, 0.55263144), (0.41134864, -0.2971058, 0.49576592), (0.42081302, -0.29437774, 0.36504924), (0.31248942, -0.29310012, 0.2915298), (0.19464862, -0.29439735, 0.3485612), (-0.18951029, -0.23082592, 0.3749145), (-0.22240031, -0.29611343, 0.5008885), (-0.10175039, -0.3159425, 0.45407897), (-0.08025461, -0.3135243, 0.3249822), (-0.17968515, -0.29091582, 0.24260329), (-0.30033514, -0.27108663, 0.2894128), (-0.3216927, -0.27368546, 0.41855544)]
            texCoord2f[] primvars:st = [(0.0001000396, 0.00009998001), (0.99990004, 0.00009998001), (0.00009998001, 0.99990004), (0.99990004, 0.99990004), (0.0001000396, 0.00009998001), (0.99990004, 0.00009998001), (0.00009998001, 0.99990004), (0.99990004, 0.99990004), (0.0001000396, 0.00009998001), (0.99990004, 0.00009998001), (0.00009998001, 0.99990004), (0.99990004, 0.99990004), (0.0001000396, 0.00009998001), (0.99990004, 0.00009998001), (0.00009998001, 0.99990004), (0.99990004, 0.99990004), (0.0001000396, 0.00009998001), (0.99990004, 0.00009998001), (0.00009998001, 0.99990004), (0.99990004, 0.99990004), (0.0001000396, 0.00009998001), (0.99990004, 0.00009998001), (0.00009998001, 0.99990004), (0.99990004, 0.99990004), (0.0001000396, 0.00009998001), (0.99990004, 0.00009998001), (0.00009998001, 0.99990004), (0.99990004, 0.99990004), (0.0001000396, 0.00009998001), (0.99990004, 0.00009998001), (0.00009998001, 0.99990004), (0.99990004, 0.99990004), (0.0001000396, 0.00009998001), (0.99990004, 0.00009998001), (0.00009998001, 0.99990004), (0.99990004, 0.99990004), (0.0001000396, 0.00009998001), (0.99990004, 0.00009998001), (0.00009998001, 0.99990004), (0.99990004, 0.99990004), (0.0001000396, 0.00009998001), (0.99990004, 0.00009998001), (0.00009998001, 0.99990004), (0.99990004, 0.99990004), (0.0001000396, 0.00009998001), (0.99990004, 0.00009998001), (0.00009998001, 0.99990004), (0.99990004, 0.99990004), (0.0001000396, 0.00009998001), (0.99990004, 0.00009998001), (0.00009998001, 0.99990004), (0.99990004, 0.99990004), (0.0001000396, 0.00009998001), (0.99990004, 0.00009998001), (0.00009998001, 0.99990004), (0.99990004, 0.99990004), (0.0001000396, 0.00009998001), (0.99990004, 0.00009998001), (0.00009998001, 0.99990004), (0.99990004, 0.99990004), (0.0001000396, 0.00009998001), (0.99990004, 0.00009998001), (0.00009998001, 0.99990004), (0.99990004, 0.99990004), (0.0001000396, 0.00009998001), (0.99990004, 0.00009998001), (0.00009998001, 0.99990004), (0.99990004, 0.99990004), (0.0001000396, 0.00009998001), (0.99990004, 0.00009998001), (0.00009998001, 0.99990004), (0.99990004, 0.99990004), (0.0001000396, 0.00009998001), (0.99990004, 0.00009998001), (0.00009998001, 0.99990004), (0.99990004, 0.99990004), (0.0001000396, 0.00009998001), (0.99990004, 0.00009998001), (0.00009998001, 0.99990004), (0.99990004, 0.99990004), (0.0001000396, 0.00009998001), (0.99990004, 0.00009998001), (0.00009998001, 0.99990004), (0.99990004, 0.99990004), (0.0001000396, 0.00009998001), (0.99990004, 0.00009998001), (0.00009998001, 0.99990004), (0.99990004, 0.99990004), (0.0001000396, 0.00009998001), (0.99990004, 0.00009998001), (0.00009998001, 0.99990004), (0.99990004, 0.99990004), (0.0001000396, 0.00009998001), (0.99990004, 0.00009998001), (0.00009998001, 0.99990004), (0.99990004, 0.99990004), (0.0001000396, 0.00009998001), (0.99990004, 0.00009998001), (0.00009998001, 0.99990004), (0.99990004, 0.99990004), (0.0001000396, 0.00009998001), (0.99990004, 0.00009998001), (0.00009998001, 0.99990004), (0.99990004, 0.99990004), (0.0001000396, 0.00009998001), (0.99990004, 0.00009998001), (0.00009998001, 0.99990004), (0.99990004, 0.99990004), (0.0001000396, 0.00009998001), (0.99990004, 0.00009998001), (0.00009998001, 0.99990004), (0.99990004, 0.99990004), (0.0001000396, 0.00009998001), (0.99990004, 0.00009998001), (0.00009998001, 0.99990004), (0.99990004, 0.99990004), (0.0001000396, 0.00009998001), (0.99990004, 0.00009998001), (0.00009998001, 0.99990004), (0.99990004, 0.99990004), (0.0001000396, 0.00009998001), (0.99990004, 0.00009998001), (0.00009998001, 0.99990004), (0.99990004, 0.99990004), (0.0001000396, 0.00009998001), (0.99990004, 0.00009998001), (0.00009998001, 0.99990004), (0.99990004, 0.99990004), (0.0001000396, 0.00009998001), (0.99990004, 0.00009998001), (0.00009998001, 0.99990004), (0.99990004, 0.99990004), (0.0001000396, 0.00009998001), (0.99990004, 0.00009998001), (0.00009998001, 0.99990004), (0.99990004, 0.99990004), (0.0001000396, 0.00009998001), (0.99990004, 0.00009998001), (0.00009998001, 0.99990004), (0.99990004, 0.99990004), (0.0001000396, 0.00009998001), (0.99990004, 0.00009998001), (0.00009998001, 0.99990004), (0.99990004, 0.99990004), (0.0001000396, 0.00009998001), (0.99990004, 0.00009998001), (0.00009998001, 0.99990004), (0.99990004, 0.99990004), (0.0001000396, 0.00009998001), (0.99990004, 0.00009998001), (0.00009998001, 0.99990004), (0.99990004, 0.99990004), (0.0001000396, 0.00009998001), (0.99990004, 0.00009998001), (0.00009998001, 0.99990004), (0.99990004, 0.99990004), (0.0001000396, 0.00009998001), (0.99990004, 0.00009998001), (0.00009998001, 0.99990004), (0.99990004, 0.99990004), (0.0001000396, 0.00009998001), (0.99990004, 0.00009998001), (0.00009998001, 0.99990004), (0.99990004, 0.99990004), (0.0001000396, 0.00009998001), (0.99990004, 0.00009998001), (0.00009998001, 0.99990004), (0.99990004, 0.99990004), (0.0001000396, 0.00009998001), (0.99990004, 0.00009998001), (0.00009998001, 0.99990004), (0.99990004, 0.99990004), (0.0001000396, 0.00009998001), (0.99990004, 0.00009998001), (0.00009998001, 0.99990004), (0.99990004, 0.99990004), (0.0001000396, 0.00009998001), (0.99990004, 0.00009998001), (0.00009998001, 0.99990004), (0.99990004, 0.99990004), (0.0001000396, 0.00009998001), (0.99990004, 0.00009998001), (0.00009998001, 0.99990004), (0.99990004, 0.99990004), (0.0001000396, 0.00009998001), (0.99990004, 0.00009998001), (0.00009998001, 0.99990004), (0.99990004, 0.99990004), (0.0001000396, 0.00009998001), (0.99990004, 0.00009998001), (0.00009998001, 0.99990004), (0.99990004, 0.99990004), (0.0001000396, 0.00009998001), (0.99990004, 0.00009998001), (0.00009998001, 0.99990004), (0.99990004, 0.99990004), (0.0001000396, 0.00009998001), (0.99990004, 0.00009998001), (0.00009998001, 0.99990004), (0.99990004, 0.99990004), (0.0001000396, 0.00009998001), (0.99990004, 0.00009998001), (0.00009998001, 0.99990004), (0.99990004, 0.99990004), (0.0001000396, 0.00009998001), (0.99990004, 0.00009998001), (0.00009998001, 0.99990004), (0.99990004, 0.99990004), (0.0001000396, 0.00009998001), (0.99990004, 0.00009998001), (0.00009998001, 0.99990004), (0.99990004, 0.99990004), (0.0001000396, 0.00009998001), (0.99990004, 0.00009998001), (0.00009998001, 0.99990004), (0.99990004, 0.99990004), (0.0001000396, 0.00009998001), (0.99990004, 0.00009998001), (0.00009998001, 0.99990004), (0.99990004, 0.99990004), (0.0001000396, 0.00009998001), (0.99990004, 0.00009998001), (0.00009998001, 0.99990004), (0.99990004, 0.99990004), (0.0001000396, 0.00009998001), (0.99990004, 0.00009998001), (0.00009998001, 0.99990004), (0.99990004, 0.99990004), (0.0001000396, 0.00009998001), (0.99990004, 0.00009998001), (0.00009998001, 0.99990004), (0.99990004, 0.99990004), (0.0001000396, 0.00009998001), (0.99990004, 0.00009998001), (0.00009998001, 0.99990004), (0.99990004, 0.99990004), (0.0001000396, 0.00009998001), (0.99990004, 0.00009998001), (0.00009998001, 0.99990004), (0.99990004, 0.99990004), (0.0001000396, 0.00009998001), (0.99990004, 0.00009998001), (0.00009998001, 0.99990004), (0.99990004, 0.99990004), (0.0001000396, 0.00009998001), (0.99990004, 0.00009998001), (0.00009998001, 0.99990004), (0.99990004, 0.99990004), (0.0001000396, 0.00009998001), (0.99990004, 0.00009998001), (0.00009998001, 0.99990004), (0.99990004, 0.99990004), (0.0001000396, 0.00009998001), (0.99990004, 0.00009998001), (0.00009998001, 0.99990004), (0.99990004, 0.99990004), (0.0001000396, 0.00009998001), (0.99990004, 0.00009998001), (0.00009998001, 0.99990004), (0.99990004, 0.99990004), (0.0001000396, 0.00009998001), (0.99990004, 0.00009998001), (0.00009998001, 0.99990004), (0.99990004, 0.99990004), (0.0001000396, 0.00009998001), (0.99990004, 0.00009998001), (0.00009998001, 0.99990004), (0.99990004, 0.99990004), (0.0001000396, 0.00009998001), (0.99990004, 0.00009998001), (0.00009998001, 0.99990004), (0.99990004, 0.99990004), (0.0001000396, 0.00009998001), (0.99990004, 0.00009998001), (0.00009998001, 0.99990004), (0.99990004, 0.99990004), (0.0001000396, 0.00009998001), (0.99990004, 0.00009998001), (0.00009998001, 0.99990004), (0.99990004, 0.99990004), (0.0001000396, 0.00009998001), (0.99990004, 0.00009998001), (0.00009998001, 0.99990004), (0.99990004, 0.99990004), (0.0001000396, 0.00009998001), (0.99990004, 0.00009998001), (0.00009998001, 0.99990004), (0.99990004, 0.99990004), (0.0001000396, 0.00009998001), (0.99990004, 0.00009998001), (0.00009998001, 0.99990004), (0.99990004, 0.99990004), (0.0001000396, 0.00009998001), (0.99990004, 0.00009998001), (0.00009998001, 0.99990004), (0.99990004, 0.99990004), (0.0001000396, 0.00009998001), (0.99990004, 0.00009998001), (0.00009998001, 0.99990004), (0.99990004, 0.99990004), (0.0001000396, 0.00009998001), (0.99990004, 0.00009998001), (0.00009998001, 0.99990004), (0.99990004, 0.99990004), (0.0001000396, 0.00009998001), (0.99990004, 0.00009998001), (0.00009998001, 0.99990004), (0.99990004, 0.99990004), (0.0001000396, 0.00009998001), (0.99990004, 0.00009998001), (0.00009998001, 0.99990004), (0.99990004, 0.99990004), (0.0001000396, 0.00009998001), (0.99990004, 0.00009998001), (0.00009998001, 0.99990004), (0.99990004, 0.99990004), (0.0001000396, 0.00009998001), (0.99990004, 0.00009998001), (0.00009998001, 0.99990004), (0.99990004, 0.99990004), (0.0001000396, 0.00009998001), (0.99990004, 0.00009998001), (0.00009998001, 0.99990004), (0.99990004, 0.99990004), (0.0001000396, 0.00009998001), (0.99990004, 0.00009998001), (0.00009998001, 0.99990004), (0.99990004, 0.99990004), (0.0001000396, 0.00009998001), (0.99990004, 0.00009998001), (0.00009998001, 0.99990004), (0.99990004, 0.99990004), (0.0001000396, 0.00009998001), (0.99990004, 0.00009998001), (0.00009998001, 0.99990004), (0.99990004, 0.99990004), (0.0001000396, 0.00009998001), (0.99990004, 0.00009998001), (0.00009998001, 0.99990004), (0.99990004, 0.99990004), (0.0001000396, 0.00009998001), (0.99990004, 0.00009998001), (0.00009998001, 0.99990004), (0.99990004, 0.99990004), (0.0001000396, 0.00009998001), (0.99990004, 0.00009998001), (0.00009998001, 0.99990004), (0.99990004, 0.99990004), (0.0001000396, 0.00009998001), (0.99990004, 0.00009998001), (0.00009998001, 0.99990004), (0.99990004, 0.99990004), (0.0001000396, 0.00009998001), (0.99990004, 0.00009998001), (0.00009998001, 0.99990004), (0.99990004, 0.99990004), (0.0001000396, 0.00009998001), (0.99990004, 0.00009998001), (0.00009998001, 0.99990004), (0.99990004, 0.99990004), (0.0001000396, 0.00009998001), (0.99990004, 0.00009998001), (0.00009998001, 0.99990004), (0.99990004, 0.99990004), (0.0001000396, 0.00009998001), (0.99990004, 0.00009998001), (0.00009998001, 0.99990004), (0.99990004, 0.99990004), (0.0001000396, 0.00009998001), (0.99990004, 0.00009998001), (0.00009998001, 0.99990004), (0.99990004, 0.99990004), (0.0001000396, 0.00009998001), (0.99990004, 0.00009998001), (0.00009998001, 0.99990004), (0.99990004, 0.99990004), (0.0001000396, 0.00009998001), (0.99990004, 0.00009998001), (0.00009998001, 0.99990004), (0.99990004, 0.99990004), (0.0001000396, 0.00009998001), (0.99990004, 0.00009998001), (0.00009998001, 0.99990004), (0.99990004, 0.99990004), (0.0001000396, 0.00009998001), (0.99990004, 0.00009998001), (0.00009998001, 0.99990004), (0.99990004, 0.99990004), (0.0001000396, 0.00009998001), (0.99990004, 0.00009998001), (0.00009998001, 0.99990004), (0.99990004, 0.99990004), (0.0001000396, 0.00009998001), (0.99990004, 0.00009998001), (0.00009998001, 0.99990004), (0.99990004, 0.99990004), (0.0001000396, 0.00009998001), (0.99990004, 0.00009998001), (0.00009998001, 0.99990004), (0.99990004, 0.99990004), (0.0001000396, 0.00009998001), (0.99990004, 0.00009998001), (0.00009998001, 0.99990004), (0.99990004, 0.99990004), (0.0001000396, 0.00009998001), (0.99990004, 0.00009998001), (0.00009998001, 0.99990004), (0.99990004, 0.99990004), (0.0001000396, 0.00009998001), (0.99990004, 0.00009998001), (0.00009998001, 0.99990004), (0.99990004, 0.99990004), (0.0001000396, 0.00009998001), (0.99990004, 0.00009998001), (0.00009998001, 0.99990004), (0.99990004, 0.99990004), (0.0001000396, 0.00009998001), (0.99990004, 0.00009998001), (0.00009998001, 0.99990004), (0.99990004, 0.99990004), (0.0001000396, 0.00009998001), (0.99990004, 0.00009998001), (0.00009998001, 0.99990004), (0.99990004, 0.99990004), (0.0001000396, 0.00009998001), (0.99990004, 0.00009998001), (0.00009998001, 0.99990004), (0.99990004, 0.99990004), (0.0001000396, 0.00009998001), (0.99990004, 0.00009998001), (0.00009998001, 0.99990004), (0.99990004, 0.99990004), (0.0001000396, 0.00009998001), (0.99990004, 0.00009998001), (0.00009998001, 0.99990004), (0.99990004, 0.99990004), (0.0001000396, 0.00009998001), (0.99990004, 0.00009998001), (0.00009998001, 0.99990004), (0.99990004, 0.99990004), (0.0001000396, 0.00009998001), (0.99990004, 0.00009998001), (0.00009998001, 0.99990004), (0.99990004, 0.99990004), (0.0001000396, 0.00009998001), (0.99990004, 0.00009998001), (0.00009998001, 0.99990004), (0.99990004, 0.99990004), (0.0001000396, 0.00009998001), (0.99990004, 0.00009998001), (0.00009998001, 0.99990004), (0.99990004, 0.99990004), (0.0001000396, 0.00009998001), (0.99990004, 0.00009998001), (0.00009998001, 0.99990004), (0.99990004, 0.99990004), (0.0001000396, 0.00009998001), (0.99990004, 0.00009998001), (0.00009998001, 0.99990004), (0.99990004, 0.99990004), (0.0001000396, 0.00009998001), (0.99990004, 0.00009998001), (0.00009998001, 0.99990004), (0.99990004, 0.99990004), (0.0001000396, 0.00009998001), (0.99990004, 0.00009998001), (0.00009998001, 0.99990004), (0.99990004, 0.99990004), (0.0001000396, 0.00009998001), (0.99990004, 0.00009998001), (0.00009998001, 0.99990004), (0.99990004, 0.99990004), (0.0001000396, 0.00009998001), (0.99990004, 0.00009998001), (0.00009998001, 0.99990004), (0.99990004, 0.99990004), (0.0001000396, 0.00009998001), (0.99990004, 0.00009998001), (0.00009998001, 0.99990004), (0.99990004, 0.99990004), (0.0001000396, 0.00009998001), (0.99990004, 0.00009998001), (0.00009998001, 0.99990004), (0.99990004, 0.99990004), (0.0001000396, 0.00009998001), (0.99990004, 0.00009998001), (0.00009998001, 0.99990004), (0.99990004, 0.99990004), (0.0001000396, 0.00009998001), (0.99990004, 0.00009998001), (0.00009998001, 0.99990004), (0.99990004, 0.99990004), (0.0001000396, 0.00009998001), (0.99990004, 0.00009998001), (0.00009998001, 0.99990004), (0.99990004, 0.99990004), (0.0001000396, 0.00009998001), (0.99990004, 0.00009998001), (0.00009998001, 0.99990004), (0.99990004, 0.99990004), (0.0001000396, 0.00009998001), (0.99990004, 0.00009998001), (0.00009998001, 0.99990004), (0.99990004, 0.99990004), (0.0001000396, 0.00009998001), (0.99990004, 0.00009998001), (0.00009998001, 0.99990004), (0.99990004, 0.99990004), (0.0001000396, 0.00009998001), (0.99990004, 0.00009998001), (0.00009998001, 0.99990004), (0.99990004, 0.99990004), (0.0001000396, 0.00009998001), (0.99990004, 0.00009998001), (0.00009998001, 0.99990004), (0.99990004, 0.99990004), (0.0001000396, 0.00009998001), (0.99990004, 0.00009998001), (0.00009998001, 0.99990004), (0.99990004, 0.99990004), (0.0001000396, 0.00009998001), (0.99990004, 0.00009998001), (0.00009998001, 0.99990004), (0.99990004, 0.99990004), (0.0001000396, 0.00009998001), (0.99990004, 0.00009998001), (0.00009998001, 0.99990004), (0.99990004, 0.99990004), (0.0001000396, 0.00009998001), (0.99990004, 0.00009998001), (0.00009998001, 0.99990004), (0.99990004, 0.99990004), (0.0001000396, 0.00009998001), (0.99990004, 0.00009998001), (0.00009998001, 0.99990004), (0.99990004, 0.99990004), (0.0001000396, 0.00009998001), (0.99990004, 0.00009998001), (0.00009998001, 0.99990004), (0.99990004, 0.99990004), (0.0001000396, 0.00009998001), (0.99990004, 0.00009998001), (0.00009998001, 0.99990004), (0.99990004, 0.99990004), (0.0001000396, 0.00009998001), (0.99990004, 0.00009998001), (0.00009998001, 0.99990004), (0.99990004, 0.99990004), (0.0001000396, 0.00009998001), (0.99990004, 0.00009998001), (0.00009998001, 0.99990004), (0.99990004, 0.99990004), (0.19550931, 0.8015416), (0.2985573, 0.62305725), (0.092461325, 0.62305725), (-0.010586711, 0.8015416), (0.09246131, 0.980026), (0.2985573, 0.980026), (0.4016053, 0.80154175), (0.19550931, 0.8015416), (0.2985573, 0.62305725), (0.092461325, 0.62305725), (-0.010586711, 0.8015416), (0.09246131, 0.980026), (0.2985573, 0.980026), (0.4016053, 0.80154175), (0.19550931, 0.8015416), (0.2985573, 0.62305725), (0.092461325, 0.62305725), (-0.010586711, 0.8015416), (0.09246131, 0.980026), (0.2985573, 0.980026), (0.4016053, 0.80154175), (0.19550931, 0.8015416), (0.2985573, 0.62305725), (0.092461325, 0.62305725), (-0.010586711, 0.8015416), (0.09246131, 0.980026), (0.2985573, 0.980026), (0.4016053, 0.80154175), (0.19550931, 0.8015416), (0.2985573, 0.62305725), (0.092461325, 0.62305725), (-0.010586711, 0.8015416), (0.09246131, 0.980026), (0.2985573, 0.980026), (0.4016053, 0.80154175), (0.19550931, 0.8015416), (0.2985573, 0.62305725), (0.092461325, 0.62305725), (-0.010586711, 0.8015416), (0.09246131, 0.980026), (0.2985573, 0.980026), (0.4016053, 0.80154175), (0.19550931, 0.8015416), (0.2985573, 0.62305725), (0.092461325, 0.62305725), (-0.010586711, 0.8015416), (0.09246131, 0.980026), (0.2985573, 0.980026), (0.4016053, 0.80154175), (0.19550931, 0.8015416), (0.2985573, 0.62305725), (0.092461325, 0.62305725), (-0.010586711, 0.8015416), (0.09246131, 0.980026), (0.2985573, 0.980026), (0.4016053, 0.80154175), (0.19550931, 0.8015416), (0.2985573, 0.62305725), (0.092461325, 0.62305725), (-0.010586711, 0.8015416), (0.09246131, 0.980026), (0.2985573, 0.980026), (0.4016053, 0.80154175), (0.19550931, 0.8015416), (0.2985573, 0.62305725), (0.092461325, 0.62305725), (-0.010586711, 0.8015416), (0.09246131, 0.980026), (0.2985573, 0.980026), (0.4016053, 0.80154175), (0.19550931, 0.8015416), (0.2985573, 0.62305725), (0.092461325, 0.62305725), (-0.010586711, 0.8015416), (0.09246131, 0.980026), (0.2985573, 0.980026), (0.4016053, 0.80154175), (0.19550931, 0.8015416), (0.2985573, 0.62305725), (0.092461325, 0.62305725), (-0.010586711, 0.8015416), (0.09246131, 0.980026), (0.2985573, 0.980026), (0.4016053, 0.80154175), (0.19550931, 0.8015416), (0.2985573, 0.62305725), (0.092461325, 0.62305725), (-0.010586711, 0.8015416), (0.09246131, 0.980026), (0.2985573, 0.980026), (0.4016053, 0.80154175), (0.19550931, 0.8015416), (0.2985573, 0.62305725), (0.092461325, 0.62305725), (-0.010586711, 0.8015416), (0.09246131, 0.980026), (0.2985573, 0.980026), (0.4016053, 0.80154175), (0.19550931, 0.8015416), (0.2985573, 0.62305725), (0.092461325, 0.62305725), (-0.010586711, 0.8015416), (0.09246131, 0.980026), (0.2985573, 0.980026), (0.4016053, 0.80154175), (0.19550931, 0.8015416), (0.2985573, 0.62305725), (0.092461325, 0.62305725), (-0.010586711, 0.8015416), (0.09246131, 0.980026), (0.2985573, 0.980026), (0.4016053, 0.80154175), (0.19550931, 0.8015416), (0.2985573, 0.62305725), (0.092461325, 0.62305725), (-0.010586711, 0.8015416), (0.09246131, 0.980026), (0.2985573, 0.980026), (0.4016053, 0.80154175), (0.19550931, 0.8015416), (0.2985573, 0.62305725), (0.092461325, 0.62305725), (-0.010586711, 0.8015416), (0.09246131, 0.980026), (0.2985573, 0.980026), (0.4016053, 0.80154175), (0.19550931, 0.8015416), (0.2985573, 0.62305725), (0.092461325, 0.62305725), (-0.010586711, 0.8015416), (0.09246131, 0.980026), (0.2985573, 0.980026), (0.4016053, 0.80154175), (0.19550931, 0.8015416), (0.2985573, 0.62305725), (0.092461325, 0.62305725), (-0.010586711, 0.8015416), (0.09246131, 0.980026), (0.2985573, 0.980026), (0.4016053, 0.80154175), (0.19550931, 0.8015416), (0.2985573, 0.62305725), (0.092461325, 0.62305725), (-0.010586711, 0.8015416), (0.09246131, 0.980026), (0.2985573, 0.980026), (0.4016053, 0.80154175)] (
                interpolation = "faceVarying"
            )
            int[] primvars:st:indices = [1, 3, 2, 0, 5, 7, 6, 4, 9, 11, 10, 8, 13, 15, 14, 12, 17, 19, 18, 16, 21, 23, 22, 20, 25, 27, 26, 24, 29, 31, 30, 28, 33, 35, 34, 32, 37, 39, 38, 36, 41, 43, 42, 40, 45, 47, 46, 44, 49, 51, 50, 48, 53, 55, 54, 52, 57, 59, 58, 56, 61, 63, 62, 60, 65, 67, 66, 64, 69, 71, 70, 68, 73, 75, 74, 72, 77, 79, 78, 76, 81, 83, 82, 80, 85, 87, 86, 84, 89, 91, 90, 88, 93, 95, 94, 92, 97, 99, 98, 96, 101, 103, 102, 100, 105, 107, 106, 104, 109, 111, 110, 108, 113, 115, 114, 112, 117, 119, 118, 116, 121, 123, 122, 120, 125, 127, 126, 124, 129, 131, 130, 128, 133, 135, 134, 132, 137, 139, 138, 136, 141, 143, 142, 140, 145, 147, 146, 144, 149, 151, 150, 148, 153, 155, 154, 152, 157, 159, 158, 156, 161, 163, 162, 160, 165, 167, 166, 164, 169, 171, 170, 168, 173, 175, 174, 172, 177, 179, 178, 176, 181, 183, 182, 180, 185, 187, 186, 184, 189, 191, 190, 188, 193, 195, 194, 192, 197, 199, 198, 196, 201, 203, 202, 200, 205, 207, 206, 204, 209, 211, 210, 208, 213, 215, 214, 212, 217, 219, 218, 216, 221, 223, 222, 220, 225, 227, 226, 224, 229, 231, 230, 228, 233, 235, 234, 232, 237, 239, 238, 236, 241, 243, 242, 240, 245, 247, 246, 244, 249, 251, 250, 248, 253, 255, 254, 252, 257, 259, 258, 256, 261, 263, 262, 260, 265, 267, 266, 264, 269, 271, 270, 268, 273, 275, 274, 272, 277, 279, 278, 276, 281, 283, 282, 280, 285, 287, 286, 284, 289, 291, 290, 288, 293, 295, 294, 292, 297, 299, 298, 296, 301, 303, 302, 300, 305, 307, 306, 304, 309, 311, 310, 308, 313, 315, 314, 312, 317, 319, 318, 316, 321, 323, 322, 320, 325, 327, 326, 324, 329, 331, 330, 328, 333, 335, 334, 332, 337, 339, 338, 336, 341, 343, 342, 340, 345, 347, 346, 344, 349, 351, 350, 348, 353, 355, 354, 352, 357, 359, 358, 356, 361, 363, 362, 360, 365, 367, 366, 364, 369, 371, 370, 368, 373, 375, 374, 372, 377, 379, 378, 376, 381, 383, 382, 380, 385, 387, 386, 384, 389, 391, 390, 388, 393, 395, 394, 392, 397, 399, 398, 396, 401, 403, 402, 400, 405, 407, 406, 404, 409, 411, 410, 408, 413, 415, 414, 412, 417, 419, 418, 416, 421, 423, 422, 420, 425, 427, 426, 424, 429, 431, 430, 428, 433, 435, 434, 432, 437, 439, 438, 436, 441, 443, 442, 440, 445, 447, 446, 444, 449, 451, 450, 448, 453, 455, 454, 452, 457, 459, 458, 456, 461, 463, 462, 460, 465, 467, 466, 464, 469, 471, 470, 468, 473, 475, 474, 472, 477, 479, 478, 476, 481, 483, 482, 480, 485, 487, 486, 484, 489, 491, 490, 488, 493, 495, 494, 492, 497, 499, 498, 496, 501, 503, 502, 500, 505, 507, 506, 504, 509, 511, 510, 508, 513, 515, 514, 512, 517, 519, 518, 516, 521, 523, 522, 520, 525, 527, 526, 524, 529, 531, 530, 528, 533, 535, 534, 532, 537, 539, 538, 536, 541, 543, 542, 540, 545, 547, 546, 544, 549, 551, 550, 548, 552, 554, 553, 552, 555, 554, 552, 556, 555, 552, 557, 556, 552, 558, 557, 552, 553, 558, 559, 561, 560, 559, 562, 561, 559, 563, 562, 559, 564, 563, 559, 565, 564, 559, 560, 565, 566, 568, 567, 566, 569, 568, 566, 570, 569, 566, 571, 570, 566, 572, 571, 566, 567, 572, 573, 575, 574, 573, 576, 575, 573, 577, 576, 573, 578, 577, 573, 579, 578, 573, 574, 579, 580, 582, 581, 580, 583, 582, 580, 584, 583, 580, 585, 584, 580, 586, 585, 580, 581, 586, 587, 589, 588, 587, 590, 589, 587, 591, 590, 587, 592, 591, 587, 593, 592, 587, 588, 593, 594, 596, 595, 594, 597, 596, 594, 598, 597, 594, 599, 598, 594, 600, 599, 594, 595, 600, 601, 603, 602, 601, 604, 603, 601, 605, 604, 601, 606, 605, 601, 607, 606, 601, 602, 607, 608, 610, 609, 608, 611, 610, 608, 612, 611, 608, 613, 612, 608, 614, 613, 608, 609, 614, 615, 617, 616, 615, 618, 617, 615, 619, 618, 615, 620, 619, 615, 621, 620, 615, 616, 621, 622, 624, 623, 622, 625, 624, 622, 626, 625, 622, 627, 626, 622, 628, 627, 622, 623, 628, 629, 631, 630, 629, 632, 631, 629, 633, 632, 629, 634, 633, 629, 635, 634, 629, 630, 635, 636, 638, 637, 636, 639, 638, 636, 640, 639, 636, 641, 640, 636, 642, 641, 636, 637, 642, 643, 645, 644, 643, 646, 645, 643, 647, 646, 643, 648, 647, 643, 649, 648, 643, 644, 649, 650, 652, 651, 650, 653, 652, 650, 654, 653, 650, 655, 654, 650, 656, 655, 650, 651, 656, 657, 659, 658, 657, 660, 659, 657, 661, 660, 657, 662, 661, 657, 663, 662, 657, 658, 663, 664, 666, 665, 664, 667, 666, 664, 668, 667, 664, 669, 668, 664, 670, 669, 664, 665, 670, 671, 673, 672, 671, 674, 673, 671, 675, 674, 671, 676, 675, 671, 677, 676, 671, 672, 677, 678, 680, 679, 678, 681, 680, 678, 682, 681, 678, 683, 682, 678, 684, 683, 678, 679, 684, 685, 687, 686, 685, 688, 687, 685, 689, 688, 685, 690, 689, 685, 691, 690, 685, 686, 691, 692, 694, 693, 692, 695, 694, 692, 696, 695, 692, 697, 696, 692, 698, 697, 692, 693, 698]
            uniform token subdivisionScheme = "none"
            uniform token subsetFamily:materialBind:familyType = "nonOverlapping"
            custom string userProperties:blender:data_name = "Plane.029"

            def GeomSubset "Bush_Leaves" (
                prepend apiSchemas = ["MaterialBindingAPI"]
            )
            {
                uniform token elementType = "face"
                uniform token familyName = "materialBind"
                int[] indices = [0, 1, 2, 3, 4, 5, 6, 7, 8, 9, 10, 11, 12, 13, 14, 15, 16, 17, 18, 19, 20, 21, 22, 23, 24, 25, 26, 27, 28, 29, 30, 31, 32, 33, 34, 35, 36, 37, 38, 39, 40, 41, 42, 43, 44, 45, 46, 47, 48, 49, 50, 51, 52, 53, 54, 55, 56, 57, 58, 59, 60, 61, 62, 63, 64, 65, 66, 67, 68, 69, 70, 71, 72, 73, 74, 75, 76, 77, 78, 79, 80, 81, 82, 83, 84, 85, 86, 87, 88, 89, 90, 91, 92, 93, 94, 95, 96, 97, 98, 99, 100, 101, 102, 103, 104, 105, 106, 107, 108, 109, 110, 111, 112, 113, 114, 115, 116, 117, 118, 119, 120, 121, 122, 123, 124, 125, 126, 127, 128, 129, 130, 131, 132, 133, 134, 135, 136, 137]
                rel material:binding = </root/_materials/Bush_Leaves>
            }

            def GeomSubset "Flowers" (
                prepend apiSchemas = ["MaterialBindingAPI"]
            )
            {
                uniform token elementType = "face"
                uniform token familyName = "materialBind"
                int[] indices = [138, 139, 140, 141, 142, 143, 144, 145, 146, 147, 148, 149, 150, 151, 152, 153, 154, 155, 156, 157, 158, 159, 160, 161, 162, 163, 164, 165, 166, 167, 168, 169, 170, 171, 172, 173, 174, 175, 176, 177, 178, 179, 180, 181, 182, 183, 184, 185, 186, 187, 188, 189, 190, 191, 192, 193, 194, 195, 196, 197, 198, 199, 200, 201, 202, 203, 204, 205, 206, 207, 208, 209, 210, 211, 212, 213, 214, 215, 216, 217, 218, 219, 220, 221, 222, 223, 224, 225, 226, 227, 228, 229, 230, 231, 232, 233, 234, 235, 236, 237, 238, 239, 240, 241, 242, 243, 244, 245, 246, 247, 248, 249, 250, 251, 252, 253, 254, 255, 256, 257, 258, 259, 260, 261, 262, 263]
                rel material:binding = </root/_materials/Flowers>
            }
        }
    }

    def Scope "_materials"
    {
        def Material "Bush_Leaves"
        {
            token outputs:surface.connect = </root/_materials/Bush_Leaves/Principled_BSDF.outputs:surface>
            custom string userProperties:blender:data_name = "Bush_Leaves"

            def Shader "Principled_BSDF"
            {
                uniform token info:id = "UsdPreviewSurface"
                float inputs:clearcoat = 0
                float inputs:clearcoatRoughness = 0.03
                color3f inputs:diffuseColor = (0.8, 0.8, 0.8)
                color3f inputs:emissiveColor = (0, 0, 0)
                float inputs:ior = 1.5
                float inputs:metallic = 0
                float inputs:opacity = 1
                float inputs:roughness = 0.5527864
                float inputs:specular = 1
                token outputs:surface
            }
        }

        def Material "Flowers"
        {
            token outputs:surface.connect = </root/_materials/Flowers/Principled_BSDF.outputs:surface>
            custom string userProperties:blender:data_name = "Flowers"

            def Shader "Principled_BSDF"
            {
                uniform token info:id = "UsdPreviewSurface"
                float inputs:clearcoat = 0
                float inputs:clearcoatRoughness = 0.03
                color3f inputs:diffuseColor = (0.8, 0.8, 0.8)
                color3f inputs:emissiveColor = (0, 0, 0)
                float inputs:ior = 1.5
                float inputs:metallic = 0
                float inputs:opacity = 1
                float inputs:roughness = 0.5527864
                float inputs:specular = 1
                token outputs:surface
            }
        }
    }
}

