#usda 1.0
(
    defaultPrim = "root"
    doc = "Blender v5.1.2"
    metersPerUnit = 1
    upAxis = "Y"
)

def Xform "root" (
    customData = {
        dictionary Blender = {
            bool generated = 1
        }
    }
)
{
    float3 xformOp:rotateXYZ = (-90, -0, 0)
    uniform token[] xformOpOrder = ["xformOp:rotateXYZ"]

    def Xform "Gun_Sniper_Ammo"
    {
        custom string userProperties:blender:object_name = "Gun_Sniper_Ammo"

        def Mesh "Cube_414" (
            active = true
            prepend apiSchemas = ["MaterialBindingAPI"]
        )
        {
            uniform bool doubleSided = 1
            float3[] extent = [(-0.07680373, -0.0137645975, -0.07703465), (0.061582115, 0.013764581, 0.077568255)]
            int[] faceVertexCounts = [4, 4, 4, 4, 4, 4, 4, 4, 4, 4, 4, 4, 4, 4, 4, 4, 4, 4, 4, 4, 4, 4, 4, 4, 4, 10, 4, 4, 4, 4, 4, 4, 4, 4, 4, 4, 4, 4, 4, 4, 4, 4, 4, 4, 4, 4, 4, 4, 4, 4, 4, 4, 4, 4, 4, 4, 4, 4, 4, 4, 4, 4, 4, 4, 4, 6, 4, 4, 4, 4, 4, 4, 4, 4, 4, 7, 4, 4, 4, 4, 4, 4, 4, 4, 4, 4, 4, 4, 4, 4, 4, 4, 4, 4, 4, 4, 4, 4, 4, 4, 4, 4, 4, 4, 4, 4, 10, 4, 4, 4, 4, 4, 4, 4, 4, 4, 4, 4, 4, 4, 4, 4, 4, 4, 4, 4, 4, 4, 4, 4, 4, 4, 4, 4, 4, 4, 4, 4, 4, 4, 4, 4, 4, 4, 4, 4, 6, 4, 4, 4, 4, 4, 4, 4, 4, 4, 7, 4, 4, 4, 4, 4, 4, 4, 4, 4, 4, 4, 4, 4, 4, 4, 4, 4, 4, 4, 4, 4, 4, 4, 4, 4, 4, 4, 4, 4, 4, 4, 4, 4, 4, 4, 4, 4, 4, 4, 4, 4, 4, 4, 4, 4, 4, 4, 4, 4, 4, 4, 4, 4, 3, 3, 3, 3, 3, 3, 3, 3, 3, 3, 3, 3, 4, 4, 4, 4, 4, 4, 4, 4, 4, 4, 4, 4, 4, 4, 4, 4, 4, 4, 4, 4, 4, 4, 4, 4, 4, 4, 4, 4, 4, 4, 4, 4, 4, 4, 4, 4]
            int[] faceVertexIndices = [43, 14, 4, 40, 10, 11, 7, 8, 12, 13, 2, 5, 18, 46, 42, 9, 13, 15, 3, 2, 16, 9, 0, 6, 17, 10, 8, 1, 11, 16, 6, 7, 15, 17, 1, 3, 24, 21, 17, 15, 17, 16, 11, 10, 20, 18, 9, 16, 22, 24, 15, 13, 23, 45, 52, 37, 19, 22, 13, 12, 21, 20, 16, 17, 45, 23, 14, 43, 20, 21, 35, 34, 24, 22, 36, 38, 54, 63, 51, 32, 46, 18, 32, 51, 21, 24, 38, 35, 22, 19, 33, 36, 18, 20, 34, 32, 61, 59, 37, 52, 26, 28, 27, 30, 29, 31, 48, 50, 49, 25, 57, 56, 34, 35, 55, 58, 36, 33, 58, 60, 38, 36, 56, 54, 32, 34, 60, 57, 35, 38, 43, 40, 41, 44, 44, 41, 39, 42, 46, 51, 53, 47, 47, 53, 52, 45, 45, 43, 44, 47, 47, 44, 42, 46, 61, 52, 53, 62, 62, 53, 51, 63, 9, 42, 39, 0, 50, 62, 63, 49, 48, 61, 62, 50, 27, 28, 57, 60, 26, 25, 54, 56, 60, 58, 68, 69, 29, 30, 65, 64, 28, 26, 56, 57, 48, 31, 59, 61, 25, 49, 63, 54, 65, 66, 69, 68, 64, 65, 68, 67, 30, 27, 66, 65, 27, 60, 69, 66, 58, 55, 67, 68, 1, 8, 7, 6, 1, 6, 76, 71, 5, 2, 72, 75, 40, 4, 74, 78, 39, 41, 79, 77, 2, 3, 73, 72, 41, 40, 78, 79, 6, 0, 70, 76, 0, 39, 77, 70, 3, 1, 71, 73, 76, 70, 80, 81, 80, 88, 87, 86, 89, 90, 71, 76, 81, 83, 73, 71, 83, 82, 75, 72, 85, 84, 72, 73, 82, 85, 79, 78, 86, 87, 77, 79, 87, 88, 70, 77, 88, 80, 78, 74, 89, 86, 83, 81, 92, 94, 97, 95, 96, 93, 94, 92, 91, 84, 85, 96, 95, 80, 90, 97, 91, 85, 82, 93, 96, 81, 80, 91, 92, 82, 83, 94, 93, 131, 128, 4, 14, 106, 104, 103, 107, 12, 5, 100, 108, 112, 105, 130, 134, 108, 100, 101, 109, 110, 102, 98, 105, 111, 99, 104, 106, 107, 103, 102, 110, 109, 101, 99, 111, 116, 109, 111, 114, 111, 106, 107, 110, 113, 110, 105, 112, 115, 108, 109, 116, 23, 37, 140, 133, 19, 12, 108, 115, 114, 111, 110, 113, 133, 131, 14, 23, 113, 123, 124, 114, 116, 126, 125, 115, 142, 122, 139, 149, 134, 139, 122, 112, 114, 124, 126, 116, 115, 125, 33, 19, 112, 122, 123, 113, 147, 140, 37, 59, 118, 117, 137, 138, 136, 31, 29, 121, 119, 120, 144, 124, 123, 143, 55, 33, 125, 145, 145, 125, 126, 146, 143, 123, 122, 142, 146, 126, 124, 144, 131, 132, 129, 128, 132, 130, 127, 129, 134, 135, 141, 139, 135, 133, 140, 141, 133, 135, 132, 131, 135, 134, 130, 132, 147, 148, 141, 140, 148, 149, 139, 141, 105, 98, 127, 130, 138, 137, 149, 148, 136, 138, 148, 147, 119, 146, 144, 120, 118, 143, 142, 117, 146, 153, 152, 145, 29, 64, 150, 121, 120, 144, 143, 118, 136, 147, 59, 31, 117, 142, 149, 137, 150, 152, 153, 151, 64, 67, 152, 150, 121, 150, 151, 119, 119, 151, 153, 146, 145, 152, 67, 55, 99, 102, 103, 104, 99, 155, 158, 102, 5, 75, 156, 100, 128, 160, 74, 4, 127, 159, 161, 129, 100, 156, 157, 101, 129, 161, 160, 128, 102, 158, 154, 98, 98, 154, 159, 127, 101, 157, 155, 99, 158, 163, 162, 154, 162, 90, 89, 167, 168, 169, 155, 165, 163, 158, 157, 164, 165, 155, 75, 84, 166, 156, 156, 166, 164, 157, 161, 168, 167, 160, 159, 169, 168, 161, 154, 162, 169, 159, 160, 167, 89, 74, 165, 173, 171, 163, 97, 170, 171, 173, 172, 174, 95, 84, 95, 174, 166, 162, 170, 97, 90, 166, 174, 172, 164, 163, 171, 170, 162, 164, 172, 173, 165, 186, 220, 187, 175, 177, 193, 196, 178, 178, 196, 199, 179, 179, 199, 202, 180, 180, 202, 205, 181, 181, 205, 208, 182, 182, 208, 211, 183, 183, 211, 214, 184, 184, 214, 217, 185, 185, 217, 220, 186, 175, 187, 190, 176, 176, 190, 193, 177, 190, 187, 189, 192, 192, 189, 188, 191, 191, 188, 235, 234, 193, 190, 192, 195, 195, 192, 191, 194, 221, 218, 225, 224, 196, 193, 195, 198, 198, 195, 194, 197, 188, 221, 224, 235, 199, 196, 198, 201, 201, 198, 197, 200, 194, 191, 234, 233, 202, 199, 201, 204, 204, 201, 200, 203, 200, 197, 232, 231, 205, 202, 204, 207, 207, 204, 203, 206, 206, 203, 230, 229, 208, 205, 207, 210, 210, 207, 206, 209, 212, 209, 228, 227, 211, 208, 210, 213, 213, 210, 209, 212, 218, 215, 226, 225, 214, 211, 213, 216, 216, 213, 212, 215, 197, 194, 233, 232, 217, 214, 216, 219, 219, 216, 215, 218, 203, 200, 231, 230, 220, 217, 219, 222, 222, 219, 218, 221, 209, 206, 229, 228, 187, 220, 222, 189, 189, 222, 221, 188, 215, 212, 227, 226, 234, 235, 223, 233, 234, 223, 232, 233, 223, 231, 232, 223, 230, 231, 223, 229, 230, 223, 228, 229, 223, 227, 228, 223, 226, 227, 223, 225, 226, 223, 224, 225, 223, 235, 224, 223, 184, 185, 246, 245, 176, 177, 238, 237, 183, 184, 245, 244, 182, 183, 244, 243, 181, 182, 243, 242, 175, 176, 237, 236, 180, 181, 242, 241, 185, 186, 247, 246, 179, 180, 241, 240, 186, 175, 236, 247, 178, 179, 240, 239, 177, 178, 239, 238, 241, 242, 254, 253, 256, 257, 269, 268, 237, 238, 250, 259, 238, 239, 251, 250, 245, 246, 258, 257, 242, 243, 255, 254, 239, 240, 252, 251, 246, 247, 248, 258, 243, 244, 256, 255, 240, 241, 253, 252, 236, 237, 259, 249, 247, 236, 249, 248, 244, 245, 257, 256, 253, 254, 266, 265, 259, 250, 262, 271, 250, 251, 263, 262, 257, 258, 270, 269, 254, 255, 267, 266, 251, 252, 264, 263, 258, 248, 260, 270, 255, 256, 268, 267, 252, 253, 265, 264, 249, 259, 271, 261, 248, 249, 261, 260]
            rel material:binding = </root/_materials/MI_Guns_Batch2>
            normal3f[] normals = [(0.980075, -0.19862725, 0.00037041897), (0.99999994, 0, 0.000482087), (0.99999994, 0, 0.0004827756), (0.98011774, -0.19841646, 0.00047056997), (-1.0809638e-10, -0.99999994, 2.2371171e-7), (-1.0809638e-10, -0.99999994, 2.2371171e-7), (-1.0809638e-10, -0.99999994, 2.2371171e-7), (-1.0809638e-10, -0.99999994, 2.2371171e-7), (-0.99999994, -1.8093823e-14, -0.0004805866), (-0.99999994, 5.128763e-7, -0.0004805866), (-0.99999994, 0, -0.00048243866), (-0.99999994, 0, -0.00048243854), (-1.1698978e-7, -1, 2.1090207e-7), (0.19136992, -0.981518, -0.00012953432), (0.19172716, -0.9814483, -0.000021225846), (-1.3981652e-7, -1, 2.1943403e-7), (-0.5678802, -0.8231111, -0.00027270353), (-0.5678802, -0.8231111, -0.00027270353), (-0.5678801, -0.82311124, -0.0002731411), (-0.5678801, -0.8231112, -0.00027314108), (1.4468321e-8, -1, 2.0275456e-7), (-1.3981652e-7, -1, 2.1943403e-7), (-1.2023663e-7, -1, 1.3098168e-7), (-1.647578e-7, -1, 5.197727e-7), (0.80593354, -0.592006, 0.00038846934), (0.80593354, -0.592006, 0.00038846934), (0.80593354, -0.592006, 0.00038846934), (0.80593354, -0.592006, 0.00038846934), (-0.80592823, -0.59201324, -0.00038829542), (-0.80592823, -0.59201324, -0.00038829542), (-0.80592823, -0.59201324, -0.00038829542), (-0.80592823, -0.59201324, -0.00038829542), (2.5566052e-7, -1, 3.0003577e-7), (1.6981963e-7, -1, 2.424241e-7), (-5.0249753e-8, -1, 3.6212015e-7), (2.0452441e-7, -1, 2.7440015e-7), (4.091135e-7, -1, 3.4615795e-7), (1.6085903e-7, -1, 2.1389442e-7), (1.6981963e-7, -1, 2.424241e-7), (2.5566052e-7, -1, 3.0003577e-7), (-0.00041683266, -0.5018195, 0.86497223), (-0.00041683266, -0.5018195, 0.86497223), (-0.00041683266, -0.5018195, 0.86497223), (-0.00041683266, -0.5018195, 0.86497223), (1.165169e-8, -1, 2.1004084e-7), (-1.1698978e-7, -1, 2.1090207e-7), (-1.3981652e-7, -1, 2.1943403e-7), (1.4468321e-8, -1, 2.0275456e-7), (-0.5678802, -0.8231111, -0.00027179168), (-0.5678802, -0.8231111, -0.00027179168), (-0.5678802, -0.8231111, -0.00027270353), (-0.5678802, -0.8231111, -0.00027270353), (0.49975517, 0, 0.8661667), (0.4611009, -0.063869156, 0.8850461), (0.43229586, -0.108534545, 0.8951763), (0.4997552, 0, 0.8661667), (-0.99999994, 1.0856293e-13, -0.00047908415), (-0.99999994, 0.0000010257525, -0.00047908415), (-0.99999994, 5.128763e-7, -0.0004805866), (-0.99999994, -1.8093823e-14, -0.0004805866), (1.6085903e-7, -1, 2.1389442e-7), (1.165169e-8, -1, 2.1004084e-7), (1.4468321e-8, -1, 2.0275456e-7), (1.6981963e-7, -1, 2.424241e-7), (0.9800797, -0.19860424, 0.00027353043), (0.99999994, 0, 0.00048232765), (0.99999994, 0, 0.000482087), (0.980075, -0.19862725, 0.00037041897), (0.65515363, -0.45259005, 0.60492647), (0.65515363, -0.45259005, 0.60492647), (0.65515363, -0.45259005, 0.60492647), (0.65515363, -0.45259005, 0.60492647), (-0.095171414, -0.36737144, 0.92519224), (-0.29313186, -0.15506266, 0.9434137), (-0.29394567, -0.15348627, 0.9434182), (-0.121996835, -0.353376, 0.9274924), (-1.4539671e-7, -1, 1.4642713e-7), (0.1910727, -0.9815759, 0.00015049899), (0.19099651, -0.9815907, 0.00015014443), (-1.1089389e-7, -1, 2.6882287e-7), (0.05547572, -0.5476398, 0.8348731), (-0.00038719102, -0.5956684, 0.8032304), (-0.0003871477, -0.59566844, 0.80323035), (0.12735076, -0.48014575, 0.86789507), (-0.0004385772, -0.413757, 0.9103873), (-0.095171414, -0.36737144, 0.92519224), (-0.121996835, -0.353376, 0.9274924), (-0.0004385772, -0.413757, 0.9103873), (-0.29313186, -0.15506266, 0.9434137), (-0.3676826, 2.4765194e-8, 0.9299513), (-0.3676826, 2.4765253e-8, 0.9299513), (-0.29394567, -0.15348627, 0.9434182), (-0.00038719102, -0.5956684, 0.8032304), (-0.00038724818, -0.5956683, 0.80323035), (-0.00038724818, -0.5956683, 0.80323035), (-0.0003871477, -0.59566844, 0.80323035), (0.9799642, -0.19917294, 0.0005241489), (0.99999994, 0, 0.00048174497), (0.99999994, 0, 0.0004821281), (0.97996163, -0.19918561, 0.0005240163), (0.00048195175, -0.0000010178406, -0.9999999), (0.00048195175, -0.0000010178406, -0.9999999), (0.00048199078, -8.773479e-7, -0.99999994), (0.000482037, -2.3662663e-7, -0.99999994), (0.00048188976, 3.8901716e-12, -0.99999994), (0.00048196077, 7.780343e-12, -0.99999994), (0.00048195175, -0.0000010178406, -0.9999999), (0.00048195175, -0.0000010178406, -0.9999999), (0.00048195175, -0.0000010178406, -0.9999999), (0.00048195175, -0.0000010178406, -0.9999999), (1.3612342e-7, -1, 2.0928009e-7), (2.6319357e-8, -1, 1.073232e-7), (7.970765e-8, -1, 3.7083595e-7), (1.6929216e-7, -1, 3.4247836e-7), (-0.99999994, 1.6538482e-7, -0.00048461225), (-0.9999999, 3.3076958e-7, -0.00048461196), (-0.9999999, 3.3076958e-7, -0.00048461196), (-0.99999994, 1.6538479e-7, -0.00048461222), (-0.5678803, -0.8231112, -0.00027444), (-0.5678803, -0.8231112, -0.00027444), (-0.5678803, -0.8231112, -0.00027444), (-0.5678803, -0.8231112, -0.00027444), (2.6319357e-8, -1, 1.073232e-7), (-1.4539671e-7, -1, 1.4642713e-7), (-1.1089389e-7, -1, 2.6882287e-7), (7.970765e-8, -1, 3.7083595e-7), (-0.07628402, -0.9970861, -0.000036697926), (1.3612342e-7, -1, 2.0928009e-7), (1.6929216e-7, -1, 3.4247836e-7), (1.8977522e-7, -0.99999994, 3.1581922e-7), (0.980075, -0.19862725, 0.00037041897), (0.98011774, -0.19841646, 0.00047056997), (0.9212627, -0.38894075, 0.0004396528), (0.92113394, -0.38924572, 0.00024411242), (0.37619773, -0.9265395, -0.000041736883), (0.3764918, -0.92642, 0.00017632927), (0.19180898, -0.9814323, 0.000089890535), (0.19172716, -0.9814483, -0.000021225846), (0.05547572, -0.5476398, 0.8348731), (0.12735076, -0.48014575, 0.86789507), (0.2986032, -0.29079178, 0.9089974), (0.28112677, -0.3121361, 0.90749043), (0.28112677, -0.3121361, 0.90749043), (0.2986032, -0.29079178, 0.9089974), (0.43229586, -0.108534545, 0.8951763), (0.4611009, -0.063869156, 0.8850461), (0.9800797, -0.19860424, 0.00027353043), (0.980075, -0.19862725, 0.00037041897), (0.92113394, -0.38924572, 0.00024411242), (0.9210308, -0.38948968, 0.00005360184), (0.37596127, -0.9266354, -0.00025465296), (0.37619773, -0.9265395, -0.000041736883), (0.19172716, -0.9814483, -0.000021225846), (0.19136992, -0.981518, -0.00012953432), (0.9799642, -0.19917294, 0.0005241489), (0.97996163, -0.19918561, 0.0005240163), (0.9206295, -0.3904369, 0.0005449064), (0.92066014, -0.39036477, 0.00054554973), (0.37510508, -0.92698216, 0.00029523633), (0.37503448, -0.92701083, 0.00029460914), (0.19099651, -0.9815907, 0.00015014443), (0.1910727, -0.9815759, 0.00015049899), (-1.3981652e-7, -1, 2.1943403e-7), (0.19172716, -0.9814483, -0.000021225846), (0.19180898, -0.9814323, 0.000089890535), (-1.2023663e-7, -1, 1.3098168e-7), (0.37517574, -0.9269537, 0.0002958635), (0.37510508, -0.92698216, 0.00029523633), (0.1910727, -0.9815759, 0.00015049899), (0.1911493, -0.981561, 0.0001508541), (0.97996676, -0.19916, 0.00052428164), (0.9799642, -0.19917294, 0.0005241489), (0.92066014, -0.39036477, 0.00054554973), (0.9206907, -0.39029267, 0.00054619304), (-0.1426739, -0.98976976, -0.00006885395), (9.490959e-8, -1, 0), (1.3612342e-7, -1, 2.0928009e-7), (-0.07628402, -0.9970861, -0.000036697926), (4.521185e-9, -1, -8.756094e-8), (-1.7990016e-7, -1, 2.403185e-8), (-1.4539671e-7, -1, 1.4642713e-7), (2.6319357e-8, -1, 1.073232e-7), (-0.5617237, -0.6406585, 0.52347213), (-0.5617237, -0.6406585, 0.52347213), (-0.5617237, -0.6406585, 0.52347213), (-0.5617237, -0.6406585, 0.52347213), (0.00048188976, 3.8901716e-12, -0.99999994), (0.000482037, -2.3662663e-7, -0.99999994), (0.0004816655, 4.7691184e-8, -0.9999999), (0.0004818188, 0, -0.99999994), (9.490959e-8, -1, 0), (4.521185e-9, -1, -8.756094e-8), (2.6319357e-8, -1, 1.073232e-7), (1.3612342e-7, -1, 2.0928009e-7), (0.97996676, -0.19916, 0.00052428164), (0.99999994, 0, 0.00048136179), (0.99999994, 0, 0.00048174497), (0.9799642, -0.19917294, 0.0005241489), (-1.7990016e-7, -1, 2.403185e-8), (0.1911493, -0.981561, 0.0001508541), (0.1910727, -0.9815759, 0.00015049899), (-1.4539671e-7, -1, 1.4642713e-7), (-0.78708786, -0.6168407, -0.0003800354), (-0.78708786, -0.6168407, -0.0003800354), (-0.78708786, -0.6168407, -0.0003800354), (-0.78708786, -0.6168407, -0.0003800354), (-0.99999994, 0, -0.0004803666), (-0.99999994, 0, -0.0004803665), (-0.99999994, 0, -0.0004803665), (-0.99999994, 0, -0.0004803666), (0.000482037, -2.3662663e-7, -0.99999994), (0.00048199078, -8.773479e-7, -0.99999994), (0.0004823028, 2.4533466e-7, -0.99999994), (0.0004816655, 4.7691184e-8, -0.9999999), (-0.1426739, -0.98976976, -0.00006885395), (-0.07628402, -0.9970861, -0.000036697926), (-0.28242856, -0.9592883, -0.000136299), (-0.28242856, -0.9592883, -0.000136299), (-0.738342, 0, 0.6744264), (-0.7383421, 0, 0.67442644), (-0.7383421, 0, 0.67442644), (-0.738342, 0, 0.6744264), (0.00048351224, 5.098288e-9, -0.9999999), (0.00048351224, 5.098288e-9, -0.9999999), (0.00048351224, 5.098288e-9, -0.9999999), (0.00048351224, 5.098288e-9, -0.9999999), (-5.0249753e-8, -1, 3.6212015e-7), (-1.647578e-7, -1, 5.197727e-7), (-2.6067528e-7, -1, 6.6382285e-7), (-1.2647645e-7, -1, 4.1622278e-7), (-0.99999994, 0, -0.00048243854), (-0.99999994, 0, -0.00048243866), (-0.9999998, 0, -0.00048278816), (-0.99999994, 0, -0.00048278796), (0.98011774, -0.19841646, 0.00047056997), (0.99999994, 0, 0.0004827756), (0.99999994, 0, 0.00048370482), (0.9801244, -0.19838324, 0.00047361318), (0.19180898, -0.9814323, 0.000089890535), (0.3764918, -0.92642, 0.00017632927), (0.37654954, -0.9263965, 0.00018152244), (0.19181225, -0.9814316, 0.000092466544), (-0.5678801, -0.8231112, -0.00027314108), (-0.5678801, -0.82311124, -0.0002731411), (-0.56788, -0.82311136, -0.0002726668), (-0.56788, -0.82311136, -0.0002726668), (0.9212627, -0.38894075, 0.0004396528), (0.98011774, -0.19841646, 0.00047056997), (0.9801244, -0.19838324, 0.00047361318), (0.9212884, -0.38887975, 0.0004446948), (-1.647578e-7, -1, 5.197727e-7), (-1.2023663e-7, -1, 1.3098168e-7), (3.310908e-8, -1, 7.5612763e-7), (-2.6067528e-7, -1, 6.6382285e-7), (-1.2023663e-7, -1, 1.3098168e-7), (0.19180898, -0.9814323, 0.000089890535), (0.19181225, -0.9814316, 0.000092466544), (3.310908e-8, -1, 7.5612763e-7), (2.0452441e-7, -1, 2.7440015e-7), (-5.0249753e-8, -1, 3.6212015e-7), (-1.2647645e-7, -1, 4.1622278e-7), (3.0684143e-7, -1, 2.9488672e-7), (-0.00064831245, 0.000035434725, 0.9999998), (-0.00037287435, 0.00042547454, 0.9999998), (-0.0006171613, 0.0001565839, 0.9999998), (-0.0010310189, 0.00011453312, 0.99999946), (-0.0006171613, 0.0001565839, 0.9999998), (-0.00013358312, 0.00019443153, 0.99999994), (-0.00032790966, -0.000012082053, 0.99999994), (-0.00030459568, -0.000013904158, 0.99999994), (-0.0002765253, -1.1580045e-12, 0.99999994), (-0.00007262148, -2.3160356e-12, 1), (-0.00048304745, 0.0000030534216, 0.99999994), (-0.00064831245, 0.000035434725, 0.9999998), (-0.0010310189, 0.00011453312, 0.99999946), (-0.00048109307, 0.0000013781805, 0.99999994), (-0.00048148682, 0.000002472538, 0.9999999), (-0.00048304745, 0.0000030534216, 0.99999994), (-0.00048109307, 0.0000013781805, 0.99999994), (-0.0004828003, 0.0000031729653, 0.9999999), (-0.0004788909, 0, 0.99999994), (-0.00047975668, 8.613588e-7, 0.9999999), (-0.00047995566, 0.0000011172001, 0.9999999), (-0.0004788909, 0, 0.99999994), (-0.00047975668, 8.613588e-7, 0.9999999), (-0.00048148682, 0.000002472538, 0.9999999), (-0.0004828003, 0.0000031729653, 0.9999999), (-0.00047995566, 0.0000011172001, 0.9999999), (-0.00047997833, 0.00000312957, 0.9999999), (-0.00047671952, 0.0000037628877, 0.99999994), (-0.00030459568, -0.000013904158, 0.99999994), (-0.00032790966, -0.000012082053, 0.99999994), (-0.00038874766, 0.00012247817, 0.99999994), (-0.00047997833, 0.00000312957, 0.9999999), (-0.00032790966, -0.000012082053, 0.99999994), (-0.00013358312, 0.00019443153, 0.99999994), (-0.00037287435, 0.00042547454, 0.9999998), (-0.00038874766, 0.00012247817, 0.99999994), (-0.00013358312, 0.00019443153, 0.99999994), (-0.0006171613, 0.0001565839, 0.9999998), (-0.00047671952, 0.0000037628877, 0.99999994), (-0.00048042915, 0, 0.99999994), (-0.0002765253, -1.1580045e-12, 0.99999994), (-0.00030459568, -0.000013904158, 0.99999994), (-0.000029130793, 0.99817765, 0.060343914), (-0.000051385676, 0.9981777, 0.06034335), (-0.000052141455, 0.99817765, 0.06034333), (-0.000029115672, 0.99817765, 0.06034391), (-0.0010242758, -1.8527884e-11, 0.99999946), (-0.0010242759, -1.8528077e-11, 0.99999946), (-0.0010242757, -0.0004492476, 0.99999934), (-0.0010242757, -0.0004492476, 0.99999934), (-0.0010242757, -0.0004492476, 0.99999934), (-0.0010242757, -0.0004492476, 0.99999934), (-0.0010242757, -0.0004492476, 0.99999934), (0.9920293, 0, 0.12600768), (0.9920292, 0, 0.12600785), (0.9920292, 0, 0.12600785), (0.9920293, 0, 0.12600768), (-0.98151004, -0.000016801177, 0.19141033), (-0.9815101, -2.3160042e-12, 0.19141027), (-0.9815101, -4.632028e-12, 0.19141029), (-0.98151004, -0.000016801177, 0.19141033), (0.5107174, 0.855005, 0.090190224), (0.5107174, 0.855005, 0.090190224), (0.5107174, 0.855005, 0.090190224), (0.5107174, 0.855005, 0.090190224), (-0.000051385676, 0.9981777, 0.06034335), (-0.00007464407, 0.9981777, 0.06034276), (-0.00007464407, 0.9981777, 0.06034276), (-0.000052141455, 0.99817765, 0.06034333), (-0.000029363639, 0.99817765, 0.060343906), (-0.000029130793, 0.99817765, 0.060343914), (-0.000029115672, 0.99817765, 0.06034391), (-0.000029363639, 0.99817765, 0.060343906), (0.9800751, 0.19862697, 0.00037038742), (0.98011786, 0.1984157, 0.0004705351), (0.99999994, 0, 0.0004827756), (0.99999994, 0, 0.000482087), (-3.3566747e-11, 0.99999994, 6.408404e-8), (-3.3566747e-11, 0.99999994, 6.408404e-8), (-3.3566747e-11, 0.99999994, 6.408404e-8), (-3.3566747e-11, 0.99999994, 6.408404e-8), (-0.99999994, -1.8093823e-14, -0.0004805866), (-0.99999994, 0, -0.00048243854), (-0.99999994, 0, -0.00048243842), (-0.99999994, -5.128762e-7, -0.00048058658), (-7.101107e-8, 1, 4.461884e-9), (-8.245452e-8, 1, 5.159481e-8), (0.19172743, 0.98144823, -0.000021392952), (0.1913704, 0.98151785, -0.00012973911), (-0.5678804, 0.82311106, -0.00027290668), (-0.5678803, 0.8231111, -0.00027327045), (-0.5678803, 0.8231111, -0.00027327045), (-0.5678804, 0.823111, -0.00027290665), (-4.1963393e-8, 1, 6.951525e-8), (-1.3410157e-7, 1, 3.9531116e-7), (-8.032339e-8, 1, 1.1944202e-8), (-8.245452e-8, 1, 5.159481e-8), (0.8059334, 0.59200615, 0.00038838084), (0.8059334, 0.59200615, 0.00038838084), (0.8059334, 0.59200615, 0.00038838084), (0.8059334, 0.59200615, 0.00038838084), (-0.80592763, 0.59201413, -0.0003883748), (-0.80592763, 0.59201413, -0.0003883748), (-0.80592763, 0.59201413, -0.0003883748), (-0.80592763, 0.59201413, -0.0003883748), (2.046534e-7, 1, -8.296787e-9), (2.0455923e-7, 1, 2.1581648e-7), (-1.2910285e-8, 1, 3.0822557e-7), (8.6900215e-8, 1, 2.9125784e-8), (3.0702975e-7, 0.99999994, -1.1628738e-7), (2.046534e-7, 1, -8.296787e-9), (8.6900215e-8, 1, 2.9125784e-8), (3.1797804e-8, 1, 1.6762169e-8), (-0.00041683277, 0.50181943, 0.8649723), (-0.00041683277, 0.50181943, 0.8649723), (-0.00041683277, 0.50181943, 0.8649723), (-0.00041683277, 0.50181943, 0.8649723), (-4.1637236e-8, 1, 3.6305803e-8), (-4.1963393e-8, 1, 6.951525e-8), (-8.245452e-8, 1, 5.159481e-8), (-7.101107e-8, 1, 4.461884e-9), (-0.5678803, 0.8231111, -0.0002720705), (-0.5678804, 0.82311106, -0.00027290668), (-0.5678804, 0.823111, -0.00027290665), (-0.5678803, 0.8231111, -0.0002720705), (0.49975517, 0, 0.8661667), (0.4997552, 0, 0.8661667), (0.43229535, 0.108534336, 0.89517653), (0.46110055, 0.06386902, 0.8850464), (-0.99999994, 1.0856293e-13, -0.00047908415), (-0.99999994, -1.8093823e-14, -0.0004805866), (-0.99999994, -5.128762e-7, -0.00048058658), (-0.99999994, -0.0000010257523, -0.00047908412), (3.1797804e-8, 1, 1.6762169e-8), (8.6900215e-8, 1, 2.9125784e-8), (-4.1963393e-8, 1, 6.951525e-8), (-4.1637236e-8, 1, 3.6305803e-8), (0.9800797, 0.19860432, 0.0002734958), (0.9800751, 0.19862697, 0.00037038742), (0.99999994, 0, 0.000482087), (0.99999994, 0, 0.00048232765), (0.6551534, 0.45259184, 0.60492545), (0.6551534, 0.45259184, 0.60492545), (0.6551534, 0.45259184, 0.60492545), (0.6551534, 0.45259184, 0.60492545), (-0.09517164, 0.36737177, 0.92519206), (-0.12199715, 0.3533763, 0.92749226), (-0.2939457, 0.15348637, 0.9434182), (-0.29313195, 0.15506274, 0.9434136), (-1.9958341e-7, 1, 5.169175e-8), (-1.5462615e-7, 1, 1.2840611e-7), (0.19099575, 0.9815908, 0.00015003543), (0.19107214, 0.98157597, 0.0001503739), (0.055475075, 0.54764056, 0.8348726), (0.12734914, 0.48014602, 0.8678951), (-0.0003870595, 0.5956694, 0.80322963), (-0.00038714395, 0.5956692, 0.80322975), (-0.00043864574, 0.41375747, 0.91038704), (-0.00043864574, 0.41375747, 0.91038704), (-0.12199715, 0.3533763, 0.92749226), (-0.09517164, 0.36737177, 0.92519206), (-0.29313195, 0.15506274, 0.9434136), (-0.2939457, 0.15348637, 0.9434182), (-0.3676826, 2.4765253e-8, 0.9299513), (-0.3676826, 2.4765194e-8, 0.9299513), (-0.00038714395, 0.5956692, 0.80322975), (-0.0003870595, 0.5956694, 0.80322963), (-0.0003872555, 0.595669, 0.8032299), (-0.0003872555, 0.595669, 0.8032299), (0.97996426, 0.19917245, 0.0005241256), (0.9799619, 0.19918466, 0.0005239433), (0.99999994, 0, 0.0004821281), (0.99999994, 0, 0.00048174497), (0.00048196982, 0.0000010178562, -1), (0.00048196982, 0.0000010178562, -1), (0.00048196982, 0.0000010178562, -1), (0.00048196982, 0.0000010178562, -1), (0.00048196982, 0.0000010178562, -1), (0.00048196077, 7.780343e-12, -0.99999994), (0.00048188976, 3.8901716e-12, -0.99999994), (0.00048215516, 2.368897e-7, -0.99999994), (0.00048200676, 8.7742217e-7, -0.99999994), (0.00048196982, 0.0000010178562, -1), (1.2980783e-7, 1, 9.410679e-8), (2.0413847e-7, 1, 1.6603914e-7), (2.5975362e-8, 1, 1.1901881e-7), (1.3812441e-8, 1, 4.646569e-8), (-0.99999994, 1.6538482e-7, -0.00048461225), (-0.99999994, 1.6538479e-7, -0.00048461222), (-0.9999999, 0, -0.00048461242), (-0.9999999, 0, -0.00048461242), (-0.5678801, 0.8231112, -0.00027454938), (-0.5678801, 0.8231112, -0.00027454938), (-0.5678801, 0.8231112, -0.00027454938), (-0.5678801, 0.8231112, -0.00027454938), (1.3812441e-8, 1, 4.646569e-8), (2.5975362e-8, 1, 1.1901881e-7), (-1.5462615e-7, 1, 1.2840611e-7), (-1.9958341e-7, 1, 5.169175e-8), (-0.07628393, 0.9970861, -0.00003676776), (2.8478206e-7, 0.99999994, 1.9553653e-7), (2.0413847e-7, 1, 1.6603914e-7), (1.2980783e-7, 1, 9.410679e-8), (0.9800751, 0.19862697, 0.00037038742), (0.9211341, 0.38924518, 0.0002440508), (0.9212633, 0.3889393, 0.00043958492), (0.98011786, 0.1984157, 0.0004705351), (0.37619814, 0.92653924, -0.000041917436), (0.19172743, 0.98144823, -0.000021392952), (0.19180885, 0.9814324, 0.00008972055), (0.37649143, 0.92642003, 0.00017611156), (0.055475075, 0.54764056, 0.8348726), (0.2811254, 0.31213593, 0.9074909), (0.29860184, 0.29079175, 0.9089979), (0.12734914, 0.48014602, 0.8678951), (0.2811254, 0.31213593, 0.9074909), (0.46110055, 0.06386902, 0.8850464), (0.43229535, 0.108534336, 0.89517653), (0.29860184, 0.29079175, 0.9089979), (0.9800797, 0.19860432, 0.0002734958), (0.92103076, 0.38948986, 0.000053533848), (0.9211341, 0.38924518, 0.0002440508), (0.9800751, 0.19862697, 0.00037038742), (0.37596208, 0.9266349, -0.00025488724), (0.1913704, 0.98151785, -0.00012973911), (0.19172743, 0.98144823, -0.000021392952), (0.37619814, 0.92653924, -0.000041917436), (0.97996426, 0.19917245, 0.0005241256), (0.9206605, 0.39036393, 0.0005455042), (0.9206302, 0.39043507, 0.00054476364), (0.9799619, 0.19918466, 0.0005239433), (0.37510413, 0.92698264, 0.000295116), (0.19107214, 0.98157597, 0.0001503739), (0.19099575, 0.9815908, 0.00015003543), (0.3750332, 0.9270114, 0.00029448982), (-8.245452e-8, 1, 5.159481e-8), (-8.032339e-8, 1, 1.1944202e-8), (0.19180885, 0.9814324, 0.00008972055), (0.19172743, 0.98144823, -0.000021392952), (0.375175, 0.926954, 0.00029574215), (0.19114885, 0.98156106, 0.0001507129), (0.19107214, 0.98157597, 0.0001503739), (0.37510413, 0.92698264, 0.000295116), (0.97996676, 0.19916008, 0.00052430824), (0.92069066, 0.39029276, 0.0005462447), (0.9206605, 0.39036393, 0.0005455042), (0.97996426, 0.19917245, 0.0005241256), (-0.14267379, 0.9897698, -0.00006890115), (-0.07628393, 0.9970861, -0.00003676776), (1.2980783e-7, 1, 9.410679e-8), (9.490956e-8, 1, 3.3035942e-8), (9.04237e-9, 1, -2.4591296e-8), (1.3812441e-8, 1, 4.646569e-8), (-1.9958341e-7, 1, 5.169175e-8), (-2.4454152e-7, 1, -2.502231e-8), (-0.56172395, 0.64065814, 0.5234723), (-0.56172395, 0.64065814, 0.5234723), (-0.56172395, 0.64065814, 0.5234723), (-0.56172395, 0.64065814, 0.5234723), (0.00048188976, 3.8901716e-12, -0.99999994), (0.0004818188, 0, -0.99999994), (0.00048216025, -4.7584965e-8, -0.9999999), (0.00048215516, 2.368897e-7, -0.99999994), (9.490956e-8, 1, 3.3035942e-8), (1.2980783e-7, 1, 9.410679e-8), (1.3812441e-8, 1, 4.646569e-8), (9.04237e-9, 1, -2.4591296e-8), (0.97996676, 0.19916008, 0.00052430824), (0.97996426, 0.19917245, 0.0005241256), (0.99999994, 0, 0.00048174497), (0.99999994, 0, 0.00048136179), (-2.4454152e-7, 1, -2.502231e-8), (-1.9958341e-7, 1, 5.169175e-8), (0.19107214, 0.98157597, 0.0001503739), (0.19114885, 0.98156106, 0.0001507129), (-0.7870876, 0.61684114, -0.00038010086), (-0.7870876, 0.61684114, -0.00038010086), (-0.7870876, 0.61684114, -0.00038010086), (-0.7870876, 0.61684114, -0.00038010086), (-0.99999994, 0, -0.0004803666), (-0.99999994, 0, -0.0004803666), (-0.9999999, 0, -0.00048036673), (-0.9999999, 0, -0.00048036673), (0.00048215516, 2.368897e-7, -0.99999994), (0.00048216025, -4.7584965e-8, -0.9999999), (0.00048230257, -2.4478814e-7, -0.9999998), (0.00048200676, 8.7742217e-7, -0.99999994), (-0.14267379, 0.9897698, -0.00006890115), (-0.28242835, 0.95928836, -0.0001363903), (-0.28242835, 0.95928836, -0.0001363903), (-0.07628393, 0.9970861, -0.00003676776), (-0.73834217, 0, 0.6744263), (-0.73834217, 0, 0.6744263), (-0.7383421, 0, 0.67442644), (-0.7383421, 0, 0.67442644), (0.00048351235, -4.7061133e-9, -0.9999999), (0.00048351235, -4.7061133e-9, -0.9999999), (0.00048351235, -4.7061133e-9, -0.9999999), (0.00048351235, -4.7061133e-9, -0.9999999), (-1.2910285e-8, 1, 3.0822557e-7), (-7.050222e-8, 1, 4.124911e-7), (-2.0790685e-7, 1, 5.427941e-7), (-1.3410157e-7, 1, 3.9531116e-7), (-0.99999994, 0, -0.00048243854), (-0.99999994, 0, -0.00048278796), (-0.9999998, 0, -0.00048278776), (-0.99999994, 0, -0.00048243842), (0.98011786, 0.1984157, 0.0004705351), (0.98012453, 0.19838238, 0.00047357168), (0.99999994, 0, 0.00048370482), (0.99999994, 0, 0.0004827756), (0.19180885, 0.9814324, 0.00008972055), (0.19181184, 0.9814317, 0.000092255934), (0.37654877, 0.9263968, 0.00018121387), (0.37649143, 0.92642003, 0.00017611156), (-0.5678803, 0.8231111, -0.00027327045), (-0.5678801, 0.8231113, -0.00027279803), (-0.5678801, 0.8231113, -0.00027279803), (-0.5678803, 0.8231111, -0.00027327045), (0.9212633, 0.3889393, 0.00043958492), (0.921289, 0.38887814, 0.00044461427), (0.98012453, 0.19838238, 0.00047357168), (0.98011786, 0.1984157, 0.0004705351), (-1.3410157e-7, 1, 3.9531116e-7), (-2.0790685e-7, 1, 5.427941e-7), (2.7506115e-8, 1, 5.625961e-7), (-8.032339e-8, 1, 1.1944202e-8), (-8.032339e-8, 1, 1.1944202e-8), (2.7506115e-8, 1, 5.625961e-7), (0.19181184, 0.9814317, 0.000092255934), (0.19180885, 0.9814324, 0.00008972055), (2.0455923e-7, 1, 2.1581648e-7), (3.0684163e-7, 0.99999994, 3.3193973e-7), (-7.050222e-8, 1, 4.124911e-7), (-1.2910285e-8, 1, 3.0822557e-7), (-0.00064962066, -0.000035434794, 0.99999976), (-0.0010314103, -0.00011453323, 0.99999946), (-0.0006171349, -0.00015658389, 0.9999998), (-0.00037287516, -0.00042547382, 0.9999998), (-0.0006171349, -0.00015658389, 0.9999998), (-0.00007262148, -2.3160356e-12, 1), (-0.0002765253, -1.1580045e-12, 0.99999994), (-0.0003049253, 0.000013904247, 0.99999994), (-0.000328596, 0.000012082153, 0.99999994), (-0.00013368618, -0.00019443112, 0.99999994), (-0.00048220667, -0.000003053416, 0.99999994), (-0.00048207864, -0.0000013781788, 0.99999994), (-0.0010314103, -0.00011453323, 0.99999946), (-0.00064962066, -0.000035434794, 0.99999976), (-0.0004823921, -0.000002472376, 0.9999999), (-0.00048231642, -0.0000031728907, 0.9999999), (-0.00048207864, -0.0000013781788, 0.99999994), (-0.00048220667, -0.000003053416, 0.99999994), (-0.0004788909, 0, 0.99999994), (-0.0004788909, 0, 0.99999994), (-0.00048074737, -0.0000011170812, 0.9999999), (-0.00048027743, -8.6126715e-7, 0.9999999), (-0.00048027743, -8.6126715e-7, 0.9999999), (-0.00048074737, -0.0000011170812, 0.9999999), (-0.00048231642, -0.0000031728907, 0.9999999), (-0.0004823921, -0.000002472376, 0.9999999), (-0.0004812123, -0.0000031293484, 0.9999999), (-0.000328596, 0.000012082153, 0.99999994), (-0.0003049253, 0.000013904247, 0.99999994), (-0.0004776778, -0.0000037626487, 0.99999994), (-0.0003893901, -0.00012247806, 0.99999994), (-0.00013368618, -0.00019443112, 0.99999994), (-0.000328596, 0.000012082153, 0.99999994), (-0.0004812123, -0.0000031293484, 0.9999999), (-0.00037287516, -0.00042547382, 0.9999998), (-0.0006171349, -0.00015658389, 0.9999998), (-0.00013368618, -0.00019443112, 0.99999994), (-0.0003893901, -0.00012247806, 0.99999994), (-0.0004776778, -0.0000037626487, 0.99999994), (-0.0003049253, 0.000013904247, 0.99999994), (-0.0002765253, -1.1580045e-12, 0.99999994), (-0.00048042915, 0, 0.99999994), (-0.000029127943, -0.9981777, 0.06034347), (-0.000029099396, -0.99817765, 0.060343474), (-0.000052043604, -0.9981777, 0.060342878), (-0.000051283758, -0.9981777, 0.0603429), (-0.0010242758, -1.8527884e-11, 0.99999946), (-0.0010242757, 0.00044924757, 0.99999934), (-0.0010242757, 0.00044924757, 0.99999934), (-0.0010242757, 0.00044924757, 0.99999934), (-0.0010242757, 0.00044924757, 0.99999934), (-0.0010242757, 0.00044924757, 0.99999934), (-0.0010242759, -1.8528077e-11, 0.99999946), (0.9920293, 0, 0.12600768), (0.9920293, 0, 0.12600768), (0.9920293, 0, 0.1260075), (0.9920293, 0, 0.1260075), (-0.9815101, 0.00001680117, 0.19141023), (-0.9815101, 0.00001680117, 0.19141023), (-0.9815101, -4.632028e-12, 0.19141029), (-0.9815101, -2.3160042e-12, 0.19141027), (0.51071763, -0.8550048, 0.090189956), (0.51071763, -0.8550048, 0.090189956), (0.51071763, -0.8550048, 0.090189956), (0.51071763, -0.8550048, 0.090189956), (-0.000051283758, -0.9981777, 0.0603429), (-0.000052043604, -0.9981777, 0.060342878), (-0.00007466735, -0.9981777, 0.060342222), (-0.00007466735, -0.9981777, 0.060342222), (-0.000029567549, -0.9981776, 0.060343377), (-0.000029567549, -0.9981776, 0.060343377), (-0.000029099396, -0.99817765, 0.060343474), (-0.000029127943, -0.9981777, 0.06034347), (-0.07792022, 0.8647346, -0.4961478), (-0.14640912, 0.85941696, -0.48986414), (-0.123164624, 0.9923694, 0.0057766214), (-0.054533564, 0.99850863, 0.0025600423), (-0.014027168, 0.49925104, 0.8663438), (-0.08290837, 0.49618345, 0.86425), (-0.07667977, 9.890338e-8, 0.99705577), (-0.0077586737, 8.389314e-8, 0.9999699), (-0.0077586737, 8.389314e-8, 0.9999699), (-0.07667977, 9.890338e-8, 0.99705577), (-0.082909144, -0.49618345, 0.86425), (-0.014027393, -0.4992509, 0.8663439), (-0.014027393, -0.4992509, 0.8663439), (-0.082909144, -0.49618345, 0.86425), (-0.099924296, -0.85941774, 0.5014143), (-0.031149434, -0.86473304, 0.50126487), (-0.031149434, -0.86473304, 0.50126487), (-0.099924296, -0.85941774, 0.5014143), (-0.12316538, -0.99236935, 0.00577726), (-0.054533962, -0.9985086, 0.0025605462), (-0.054533962, -0.9985086, 0.0025605462), (-0.12316538, -0.99236935, 0.00577726), (-0.14641003, -0.85941696, -0.48986402), (-0.07792079, -0.8647346, -0.4961476), (-0.07792079, -0.8647346, -0.4961476), (-0.14641003, -0.85941696, -0.48986402), (-0.16342494, -0.4961813, -0.8526995), (-0.0950432, -0.4992498, -0.86122966), (-0.0950432, -0.4992498, -0.86122966), (-0.16342494, -0.4961813, -0.8526995), (-0.16965286, 9.890312e-8, -0.9855039), (-0.1013099, -1.9739582e-8, -0.9948549), (-0.1013099, -1.9739582e-8, -0.9948549), (-0.16965286, 9.890312e-8, -0.9855039), (-0.16342455, 0.49618143, -0.85269946), (-0.095042914, 0.4992497, -0.8612296), (-0.095042914, 0.4992497, -0.8612296), (-0.16342455, 0.49618143, -0.85269946), (-0.14640912, 0.85941696, -0.48986414), (-0.07792022, 0.8647346, -0.4961478), (-0.054533564, 0.99850863, 0.0025600423), (-0.123164624, 0.9923694, 0.0057766214), (-0.09992358, 0.859418, 0.50141394), (-0.031148924, 0.86473334, 0.50126445), (-0.031148924, 0.86473334, 0.50126445), (-0.09992358, 0.859418, 0.50141394), (-0.08290837, 0.49618345, 0.86425), (-0.014027168, 0.49925104, 0.8663438), (-0.09992358, 0.859418, 0.50141394), (-0.123164624, 0.9923694, 0.0057766214), (-0.2377799, 0.97125506, 0.011153329), (-0.21503183, 0.8411304, 0.49624696), (-0.21503183, 0.8411304, 0.49624696), (-0.2377799, 0.97125506, 0.011153329), (-0.50660306, 0.8618521, 0.023756608), (-0.4864148, 0.7463877, 0.45420924), (-0.4864148, 0.7463877, 0.45420924), (-0.50660306, 0.8618521, 0.023756608), (-0.82295454, 0.56679434, 0.038599964), (-0.8096785, 0.49086, 0.32167867), (-0.08290837, 0.49618345, 0.86425), (-0.09992358, 0.859418, 0.50141394), (-0.21503183, 0.8411304, 0.49624696), (-0.1983786, 0.48562744, 0.85135883), (-0.1983786, 0.48562744, 0.85135883), (-0.21503183, 0.8411304, 0.49624696), (-0.4864148, 0.7463877, 0.45420924), (-0.47163308, 0.43092936, 0.7693258), (-0.52678895, 0.74638414, -0.406699), (-0.54156315, 0.43092906, -0.7218099), (-0.84594953, 0.2833974, -0.45172486), (-0.8362338, 0.490851, -0.24449608), (-0.07667977, 9.890338e-8, 0.99705577), (-0.08290837, 0.49618345, 0.86425), (-0.1983786, 0.48562744, 0.85135883), (-0.1922841, 3.483943e-8, 0.9813393), (-0.1922841, 3.483943e-8, 0.9813393), (-0.1983786, 0.48562744, 0.85135883), (-0.47163308, 0.43092936, 0.7693258), (-0.46622813, 3.3026913e-7, 0.8846645), (-0.50660306, 0.8618521, 0.023756608), (-0.52678895, 0.74638414, -0.406699), (-0.8362338, 0.490851, -0.24449608), (-0.82295454, 0.56679434, 0.038599964), (-0.082909144, -0.49618345, 0.86425), (-0.07667977, 9.890338e-8, 0.99705577), (-0.1922841, 3.483943e-8, 0.9813393), (-0.19837943, -0.4856274, 0.8513587), (-0.19837943, -0.4856274, 0.8513587), (-0.1922841, 3.483943e-8, 0.9813393), (-0.46622813, 3.3026913e-7, 0.8846645), (-0.47163352, -0.43092886, 0.76932585), (-0.47163308, 0.43092936, 0.7693258), (-0.4864148, 0.7463877, 0.45420924), (-0.8096785, 0.49086, 0.32167867), (-0.79995686, 0.28340477, 0.5289148), (-0.099924296, -0.85941774, 0.5014143), (-0.082909144, -0.49618345, 0.86425), (-0.19837943, -0.4856274, 0.8513587), (-0.21503165, -0.84112996, 0.49624777), (-0.21503165, -0.84112996, 0.49624777), (-0.19837943, -0.4856274, 0.8513587), (-0.47163352, -0.43092886, 0.76932585), (-0.48641413, -0.74638784, 0.4542098), (-0.47163352, -0.43092886, 0.76932585), (-0.46622813, 3.3026913e-7, 0.8846645), (-0.79640114, 2.7695282e-7, 0.6047687), (-0.7999567, -0.28340426, 0.52891517), (-0.12316538, -0.99236935, 0.00577726), (-0.099924296, -0.85941774, 0.5014143), (-0.21503165, -0.84112996, 0.49624777), (-0.23778026, -0.971255, 0.011154275), (-0.23778026, -0.971255, 0.011154275), (-0.21503165, -0.84112996, 0.49624777), (-0.48641413, -0.74638784, 0.4542098), (-0.5066018, -0.86185265, 0.023760747), (-0.5066018, -0.86185265, 0.023760747), (-0.48641413, -0.74638784, 0.4542098), (-0.80967826, -0.4908605, 0.32167858), (-0.8229538, -0.56679535, 0.038599875), (-0.14641003, -0.85941696, -0.48986402), (-0.12316538, -0.99236935, 0.00577726), (-0.23778026, -0.971255, 0.011154275), (-0.2605299, -0.8411298, -0.473946), (-0.2605299, -0.8411298, -0.473946), (-0.23778026, -0.971255, 0.011154275), (-0.5066018, -0.86185265, 0.023760747), (-0.52678996, -0.746384, -0.4066979), (-0.5415651, -0.43092787, -0.721809), (-0.52678996, -0.746384, -0.4066979), (-0.8362344, -0.49085045, -0.24449508), (-0.84595084, -0.28339502, -0.45172387), (-0.16342494, -0.4961813, -0.8526995), (-0.14641003, -0.85941696, -0.48986402), (-0.2605299, -0.8411298, -0.473946), (-0.27717867, -0.48562753, -0.8290584), (-0.27717867, -0.48562753, -0.8290584), (-0.2605299, -0.8411298, -0.473946), (-0.52678996, -0.746384, -0.4066979), (-0.5415651, -0.43092787, -0.721809), (-0.54156315, 0.43092906, -0.7218099), (-0.5469764, 3.199504e-7, -0.8371481), (-0.8495091, 0.0000016554563, -0.52757394), (-0.84594953, 0.2833974, -0.45172486), (-0.16965286, 9.890312e-8, -0.9855039), (-0.16342494, -0.4961813, -0.8526995), (-0.27717867, -0.48562753, -0.8290584), (-0.2832731, 2.6378544e-7, -0.95903933), (-0.2832731, 2.6378544e-7, -0.95903933), (-0.27717867, -0.48562753, -0.8290584), (-0.5415651, -0.43092787, -0.721809), (-0.5469764, 3.199504e-7, -0.8371481), (-0.46622813, 3.3026913e-7, 0.8846645), (-0.47163308, 0.43092936, 0.7693258), (-0.79995686, 0.28340477, 0.5289148), (-0.79640114, 2.7695282e-7, 0.6047687), (-0.16342455, 0.49618143, -0.85269946), (-0.16965286, 9.890312e-8, -0.9855039), (-0.2832731, 2.6378544e-7, -0.95903933), (-0.2771777, 0.48562798, -0.82905847), (-0.2771777, 0.48562798, -0.82905847), (-0.2832731, 2.6378544e-7, -0.95903933), (-0.5469764, 3.199504e-7, -0.8371481), (-0.54156315, 0.43092906, -0.7218099), (-0.48641413, -0.74638784, 0.4542098), (-0.47163352, -0.43092886, 0.76932585), (-0.7999567, -0.28340426, 0.52891517), (-0.80967826, -0.4908605, 0.32167858), (-0.14640912, 0.85941696, -0.48986414), (-0.16342455, 0.49618143, -0.85269946), (-0.2771777, 0.48562798, -0.82905847), (-0.26052895, 0.84112984, -0.4739465), (-0.26052895, 0.84112984, -0.4739465), (-0.2771777, 0.48562798, -0.82905847), (-0.54156315, 0.43092906, -0.7218099), (-0.52678895, 0.74638414, -0.406699), (-0.52678996, -0.746384, -0.4066979), (-0.5066018, -0.86185265, 0.023760747), (-0.8229538, -0.56679535, 0.038599875), (-0.8362344, -0.49085045, -0.24449508), (-0.123164624, 0.9923694, 0.0057766214), (-0.14640912, 0.85941696, -0.48986414), (-0.26052895, 0.84112984, -0.4739465), (-0.2377799, 0.97125506, 0.011153329), (-0.2377799, 0.97125506, 0.011153329), (-0.26052895, 0.84112984, -0.4739465), (-0.52678895, 0.74638414, -0.406699), (-0.50660306, 0.8618521, 0.023756608), (-0.5469764, 3.199504e-7, -0.8371481), (-0.5415651, -0.43092787, -0.721809), (-0.84595084, -0.28339502, -0.45172387), (-0.8495091, 0.0000016554563, -0.52757394), (-0.8096785, 0.49086, 0.32167867), (-0.82295454, 0.56679434, 0.038599964), (-0.99890196, 6.883915e-7, 0.04684978), (-0.79995686, 0.28340477, 0.5289148), (-0.8096785, 0.49086, 0.32167867), (-0.99890196, 6.883915e-7, 0.04684978), (-0.79640114, 2.7695282e-7, 0.6047687), (-0.79995686, 0.28340477, 0.5289148), (-0.99890196, 6.883915e-7, 0.04684978), (-0.7999567, -0.28340426, 0.52891517), (-0.79640114, 2.7695282e-7, 0.6047687), (-0.99890196, 6.883915e-7, 0.04684978), (-0.80967826, -0.4908605, 0.32167858), (-0.7999567, -0.28340426, 0.52891517), (-0.99890196, 6.883915e-7, 0.04684978), (-0.8229538, -0.56679535, 0.038599875), (-0.80967826, -0.4908605, 0.32167858), (-0.99890196, 6.883915e-7, 0.04684978), (-0.8362344, -0.49085045, -0.24449508), (-0.8229538, -0.56679535, 0.038599875), (-0.99890196, 6.883915e-7, 0.04684978), (-0.84595084, -0.28339502, -0.45172387), (-0.8362344, -0.49085045, -0.24449508), (-0.99890196, 6.883915e-7, 0.04684978), (-0.8495091, 0.0000016554563, -0.52757394), (-0.84595084, -0.28339502, -0.45172387), (-0.99890196, 6.883915e-7, 0.04684978), (-0.84594953, 0.2833974, -0.45172486), (-0.8495091, 0.0000016554563, -0.52757394), (-0.99890196, 6.883915e-7, 0.04684978), (-0.8362338, 0.490851, -0.24449608), (-0.84594953, 0.2833974, -0.45172486), (-0.99890196, 6.883915e-7, 0.04684978), (-0.82295454, 0.56679434, 0.038599964), (-0.8362338, 0.490851, -0.24449608), (-0.99890196, 6.883915e-7, 0.04684978), (-0.1013099, -1.9739582e-8, -0.9948549), (-0.095042914, 0.4992497, -0.8612296), (-0.06698668, 0.49982047, -0.8635347), (-0.07326032, -7.891028e-8, -0.9973128), (-0.031148924, 0.86473334, 0.50126445), (-0.014027168, 0.49925104, 0.8663438), (0.01411881, 0.49982163, 0.8660133), (-0.0030208498, 0.86572236, 0.50051546), (-0.0950432, -0.4992498, -0.86122966), (-0.1013099, -1.9739582e-8, -0.9948549), (-0.07326032, -7.891028e-8, -0.9973128), (-0.066986516, -0.49982065, -0.8635347), (-0.07792079, -0.8647346, -0.4961476), (-0.0950432, -0.4992498, -0.86122966), (-0.066986516, -0.49982065, -0.8635347), (-0.04984654, -0.8657249, -0.49803185), (-0.054533962, -0.9985086, 0.0025605462), (-0.07792079, -0.8647346, -0.4961476), (-0.04984654, -0.8657249, -0.49803185), (-0.026434068, -0.9996498, 0.001243538), (-0.054533564, 0.99850863, 0.0025600423), (-0.031148924, 0.86473334, 0.50126445), (-0.0030208498, 0.86572236, 0.50051546), (-0.026434021, 0.9996498, 0.0012430841), (-0.031149434, -0.86473304, 0.50126487), (-0.054533962, -0.9985086, 0.0025605462), (-0.026434068, -0.9996498, 0.001243538), (-0.0030208037, -0.86572206, 0.50051594), (-0.095042914, 0.4992497, -0.8612296), (-0.07792022, 0.8647346, -0.4961478), (-0.049846448, 0.86572486, -0.49803188), (-0.06698668, 0.49982047, -0.8635347), (-0.014027393, -0.4992509, 0.8663439), (-0.031149434, -0.86473304, 0.50126487), (-0.0030208037, -0.86572206, 0.50051594), (0.014118806, -0.4998215, 0.86601347), (-0.07792022, 0.8647346, -0.4961478), (-0.054533564, 0.99850863, 0.0025600423), (-0.026434021, 0.9996498, 0.0012430841), (-0.049846448, 0.86572486, -0.49803188), (-0.0077586737, 8.389314e-8, 0.9999699), (-0.014027393, -0.4992509, 0.8663439), (0.014118806, -0.4998215, 0.86601347), (0.020391759, 4.9317983e-8, 0.9997921), (-0.014027168, 0.49925104, 0.8663438), (-0.0077586737, 8.389314e-8, 0.9999699), (0.020391759, 4.9317983e-8, 0.9997921), (0.01411881, 0.49982163, 0.8660133), (-0.6443352, -0.64862734, 0.4051107), (-0.6618733, -0.7489727, 0.031042175), (-0.6618732, -0.74897265, 0.03104401), (-0.64433527, -0.6486279, 0.40510967), (-0.06373076, -0.49986374, -0.8637561), (-0.07000468, -1.9566755e-8, -0.9975466), (-0.07000468, -1.971713e-8, -0.9975466), (-0.06373083, -0.49986148, -0.8637575), (-0.6443335, 0.64862853, 0.40511164), (-0.63148975, 0.37448704, 0.6789552), (-0.6314898, 0.37448806, 0.6789546), (-0.6443335, 0.6486299, 0.40510935), (-0.63148975, 0.37448704, 0.6789552), (-0.62679064, 0, 0.7791877), (-0.6267907, 2.1735497e-8, 0.7791877), (-0.6314898, 0.37448806, 0.6789546), (-0.6969539, 0, -0.7171159), (-0.6922594, 0.37447926, -0.6168811), (-0.6922594, 0.37447828, -0.61688167), (-0.6969539, -3.2603346e-8, -0.71711594), (-0.6618733, -0.7489727, 0.031042175), (-0.67941856, -0.6486313, -0.3430276), (-0.67941844, -0.6486315, -0.34302723), (-0.6618732, -0.74897265, 0.03104401), (-0.62679064, 0, 0.7791877), (-0.6314918, -0.37448555, 0.6789541), (-0.6314918, -0.3744866, 0.67895347), (-0.6267907, 2.1735497e-8, 0.7791877), (-0.6922594, 0.37447926, -0.6168811), (-0.67941856, 0.64863133, -0.3430274), (-0.67941856, 0.6486315, -0.34302709), (-0.6922594, 0.37447828, -0.61688167), (-0.67941856, -0.6486313, -0.3430276), (-0.6922595, -0.374479, -0.61688113), (-0.6922595, -0.37447798, -0.6168817), (-0.67941844, -0.6486315, -0.34302723), (-0.6314918, -0.37448555, 0.6789541), (-0.6443352, -0.64862734, 0.4051107), (-0.64433527, -0.6486279, 0.40510967), (-0.6314918, -0.3744866, 0.67895347), (-0.66187316, 0.74897283, 0.031042377), (-0.6443335, 0.64862853, 0.40511164), (-0.6443335, 0.6486299, 0.40510935), (-0.66187304, 0.7489728, 0.03104426), (-0.67941856, 0.64863133, -0.3430274), (-0.66187316, 0.74897283, 0.031042377), (-0.66187304, 0.7489728, 0.03104426), (-0.67941856, 0.6486315, -0.34302709), (-0.6922595, -0.374479, -0.61688113), (-0.6969539, 0, -0.7171159), (-0.6969539, -3.2603346e-8, -0.71711594), (-0.6922595, -0.37447798, -0.6168817), (0.00023974304, -0.86579096, 0.50040585), (-0.023174748, -0.99973077, 0.0010913253), (-0.023174677, -0.9997308, 0.001092842), (0.00023967758, -0.8657918, 0.5004044), (0.00023953861, 0.86579174, 0.5004045), (0.017380252, 0.49986494, 0.8659289), (0.017380228, 0.4998659, 0.8659285), (0.00023947474, 0.8657925, 0.5004031), (0.017380252, 0.49986494, 0.8659289), (0.023654329, 0, 0.9997202), (0.02365433, 0, 0.99972016), (0.017380228, 0.4998659, 0.8659285), (-0.07000468, -1.9566755e-8, -0.9975466), (-0.063730754, 0.49986368, -0.86375624), (-0.06373081, 0.4998614, -0.8637575), (-0.07000468, -1.971713e-8, -0.9975466), (-0.023174748, -0.99973077, 0.0010913253), (-0.046589684, -0.86579376, -0.49822754), (-0.04658955, -0.86579543, -0.4982246), (-0.023174677, -0.9997308, 0.001092842), (0.023654329, 0, 0.9997202), (0.017380202, -0.49986318, 0.86592996), (0.017380178, -0.49986407, 0.8659294), (0.02365433, 0, 0.99972016), (-0.063730754, 0.49986368, -0.86375624), (-0.04658968, 0.8657935, -0.49822792), (-0.04658953, 0.8657952, -0.49822494), (-0.06373081, 0.4998614, -0.8637575), (-0.046589684, -0.86579376, -0.49822754), (-0.06373076, -0.49986374, -0.8637561), (-0.06373083, -0.49986148, -0.8637575), (-0.04658955, -0.86579543, -0.4982246), (0.017380202, -0.49986318, 0.86592996), (0.00023974304, -0.86579096, 0.50040585), (0.00023967758, -0.8657918, 0.5004044), (0.017380178, -0.49986407, 0.8659294), (-0.023174874, 0.9997308, 0.0010914335), (0.00023953861, 0.86579174, 0.5004045), (0.00023947474, 0.8657925, 0.5004031), (-0.023174806, 0.9997309, 0.0010929804), (-0.04658968, 0.8657935, -0.49822792), (-0.023174874, 0.9997308, 0.0010914335), (-0.023174806, 0.9997309, 0.0010929804), (-0.04658953, 0.8657952, -0.49822494)] (
                interpolation = "faceVarying"
            )
            point3f[] points = [(0.04877605, -0.012541251, 0.06918947), (-0.057670992, -0.012541252, 0.069138154), (-0.071495846, -0.006142871, 0.0691315), (-0.062221758, -0.012541252, 0.06913596), (0.05994116, 1.4070412e-9, 0.069194846), (-0.071495846, 1.4022588e-9, 0.0691315), (-0.053510375, -0.012541254, 0.069140166), (-0.054590467, -0.011070898, 0.069139645), (-0.05659093, -0.011070898, 0.069138676), (0.048835218, -0.012541279, -0.05359876), (-0.056532178, -0.011070925, -0.052796505), (-0.054531693, -0.011070925, -0.052795522), (-0.07143665, -7.867994e-9, -0.053656723), (-0.07143665, -0.0061428994, -0.053656723), (0.060000326, -7.863211e-9, -0.05359337), (-0.06216254, -0.012541283, -0.053652234), (-0.053451203, -0.012541282, -0.053648055), (-0.057611827, -0.012541282, -0.053650048), (0.048839636, -0.012541283, -0.062727995), (-0.07143443, -8.216708e-9, -0.05827558), (-0.053446814, -0.012541284, -0.06277732), (-0.0576096, -0.012541283, -0.058268905), (-0.071434446, -0.0061429, -0.05827558), (0.06000473, -8.552451e-9, -0.06272263), (-0.06216032, -0.012541286, -0.058271125), (0.049547713, -0.013764593, -0.07697373), (-0.053447817, -0.013764594, -0.07702339), (-0.062837414, -0.013764596, -0.07702792), (-0.05793238, -0.013764594, -0.07702554), (-0.072833575, -9.632834e-9, -0.07703274), (-0.072833575, -0.006868046, -0.07703274), (0.061582115, -9.627943e-9, -0.076967955), (0.049541287, -0.013764591, -0.06363486), (-0.07284237, -8.258736e-9, -0.058832254), (-0.053454265, -0.013764592, -0.06368451), (-0.057941154, -0.013764591, -0.05882506), (-0.07284237, -0.006868042, -0.05883223), (0.06157569, -8.620883e-9, -0.06362903), (-0.06284619, -0.013764593, -0.058827408), (0.05802829, -0.012541254, 0.06919393), (0.05994116, -0.010664165, 0.069194846), (0.059380893, -0.011991465, 0.06919458), (0.058083557, -0.012541283, -0.05359431), (0.060000326, -0.010661704, -0.05359337), (0.059438918, -0.011990766, -0.053593624), (0.06000473, -0.010654037, -0.06272263), (0.05807586, -0.012541284, -0.062723555), (0.059439767, -0.011988525, -0.06272288), (0.061582115, -0.011876963, -0.076967955), (0.059650704, -0.0137645975, -0.07696891), (0.061016414, -0.0132117225, -0.0769682), (0.059639614, -0.013764593, -0.06362999), (0.06157569, -0.011874047, -0.06362903), (0.061008632, -0.0132108675, -0.063629285), (0.049544595, -0.013764593, -0.070519395), (-0.072837815, -8.96794e-9, -0.06822595), (-0.05345093, -0.013764594, -0.070569046), (-0.05793662, -0.013764594, -0.0682188), (-0.072837815, -0.0068680444, -0.06822595), (0.061579008, -9.140651e-9, -0.070513576), (-0.06284166, -0.013764594, -0.068221174), (0.061579008, -0.011875551, -0.070513576), (0.061012637, -0.013211309, -0.07051387), (0.059645336, -0.013764596, -0.07051449), (-0.07680158, -9.632979e-9, -0.07703465), (-0.07680158, -0.0050742393, -0.07703465), (-0.07213656, -0.01102679, -0.0770324), (-0.07680373, -9.295734e-9, -0.072567716), (-0.07680373, -0.005074239, -0.072567716), (-0.07213873, -0.01102679, -0.07256551), (-0.0112168, -0.012541248, 0.07732235), (-0.057674944, -0.012541248, 0.07727105), (-0.07149977, -0.0061428687, 0.077264376), (-0.062225647, -0.012541251, 0.07726885), (0.059937228, 2.0210558e-9, 0.07732771), (-0.07149977, 2.0162734e-9, 0.077264376), (-0.05351431, -0.012541251, 0.07727304), (0.058024373, -0.012541252, 0.077326804), (0.059937228, -0.010664163, 0.07732771), (0.059376977, -0.011991463, 0.07732745), (-0.0131322285, -0.010332742, 0.077321135), (-0.051067736, -0.010332743, 0.07727423), (-0.05935687, -0.010332743, 0.07727023), (-0.055026703, -0.010332742, 0.07727231), (-0.06818148, 2.0163937e-9, 0.07726596), (-0.06818148, -0.0050611123, 0.07726596), (0.056884985, -0.008786209, 0.077326246), (0.056351893, -0.0098797735, 0.077326), (0.055064835, -0.010332743, 0.077325374), (0.056884985, 2.0209443e-9, 0.077326246), (-0.013132413, 2.0205584e-9, 0.077321135), (-0.013944363, -0.010081054, 0.073156744), (-0.050955817, -0.010081054, 0.07311097), (-0.05904303, -0.010081054, 0.07310706), (-0.05481835, -0.010081054, 0.07310912), (-0.06765269, 1.7020922e-9, 0.07310292), (-0.06765269, -0.0049378346, 0.07310292), (-0.013944529, 1.7061557e-9, 0.073156744), (0.04877605, 0.012541257, 0.06918947), (-0.057670992, 0.012541258, 0.069138154), (-0.071495846, 0.0061428733, 0.0691315), (-0.062221758, 0.012541258, 0.06913596), (-0.053510375, 0.012541259, 0.069140166), (-0.054590467, 0.011070904, 0.069139645), (-0.05659093, 0.011070904, 0.069138676), (0.048835218, 0.012541269, -0.05359876), (-0.056532178, 0.011070913, -0.052796505), (-0.054531693, 0.011070913, -0.052795522), (-0.07143665, 0.006142883, -0.053656723), (-0.06216254, 0.012541271, -0.053652234), (-0.053451203, 0.01254127, -0.053648055), (-0.057611827, 0.01254127, -0.053650048), (0.048839636, 0.012541269, -0.062727995), (-0.053446814, 0.01254127, -0.06277732), (-0.0576096, 0.012541269, -0.058268905), (-0.071434446, 0.0061428836, -0.05827558), (-0.06216032, 0.012541271, -0.058271125), (0.049547713, 0.013764574, -0.07697373), (-0.053447817, 0.013764576, -0.07702339), (-0.062837414, 0.013764578, -0.07702792), (-0.05793238, 0.013764576, -0.07702554), (-0.072833575, 0.006868027, -0.07703274), (0.049541287, 0.013764574, -0.06363486), (-0.053454265, 0.013764575, -0.06368451), (-0.057941154, 0.013764574, -0.05882506), (-0.07284237, 0.006868026, -0.05883223), (-0.06284619, 0.013764577, -0.058827408), (0.05802829, 0.012541259, 0.06919393), (0.05994116, 0.010664168, 0.069194846), (0.059380893, 0.01199147, 0.06919458), (0.058083557, 0.012541271, -0.05359431), (0.060000326, 0.010661689, -0.05359337), (0.059438918, 0.011990753, -0.053593624), (0.06000473, 0.01065402, -0.06272263), (0.05807586, 0.01254127, -0.062723555), (0.059439767, 0.011988509, -0.06272288), (0.061582115, 0.011876948, -0.076967955), (0.059650704, 0.013764581, -0.07696891), (0.061016414, 0.013211707, -0.0769682), (0.059639614, 0.013764577, -0.06362999), (0.06157569, 0.01187403, -0.06362903), (0.061008632, 0.0132108545, -0.063629285), (0.049544595, 0.013764574, -0.070519395), (-0.05345093, 0.013764576, -0.070569046), (-0.05793662, 0.013764576, -0.0682188), (-0.072837815, 0.006868026, -0.06822595), (-0.06284166, 0.013764576, -0.068221174), (0.061579008, 0.011875535, -0.070513576), (0.061012637, 0.013211293, -0.07051387), (0.059645336, 0.013764578, -0.07051449), (-0.07680158, 0.0050742207, -0.07703465), (-0.07213656, 0.0110267745, -0.0770324), (-0.07680373, 0.00507422, -0.072567716), (-0.07213873, 0.0110267745, -0.07256551), (-0.0112168, 0.012541254, 0.07732235), (-0.057674944, 0.012541254, 0.07727105), (-0.07149977, 0.0061428724, 0.077264376), (-0.062225647, 0.012541257, 0.07726885), (-0.05351431, 0.012541257, 0.07727304), (0.058024373, 0.012541258, 0.077326804), (0.059937228, 0.010664167, 0.07732771), (0.059376977, 0.011991469, 0.07732745), (-0.0131322285, 0.010332745, 0.077321135), (-0.051067736, 0.0103327455, 0.07727423), (-0.05935687, 0.0103327455, 0.07727023), (-0.055026703, 0.010332745, 0.07727231), (-0.06818148, 0.005061116, 0.07726596), (0.056884985, 0.008786213, 0.077326246), (0.056351893, 0.009879777, 0.077326), (0.055064835, 0.0103327455, 0.077325374), (-0.013944363, 0.0100810565, 0.073156744), (-0.050955817, 0.010081058, 0.07311097), (-0.05904303, 0.010081058, 0.07310706), (-0.05481835, 0.0100810565, 0.07310912), (-0.06765269, 0.004937838, 0.07310292), (-0.0540271, 0.0051145465, 0.071002476), (-0.053907316, 0.0044293245, 0.07355695), (-0.053819623, 0.002557271, 0.07542695), (-0.053787563, -5.316845e-9, 0.07611137), (-0.053819623, -0.0025572828, 0.07542695), (-0.053907316, -0.0044293376, 0.07355695), (-0.0540271, -0.0051145605, 0.071002476), (-0.05414691, -0.0044293385, 0.068447955), (-0.054234613, -0.0025572842, 0.066577956), (-0.054266673, -7.754475e-9, 0.06589352), (-0.054234613, 0.0025572693, 0.066577956), (-0.05414691, 0.0044293236, 0.068447955), (-0.057217818, 0.004847903, 0.07115208), (-0.06433838, 0.0031577807, 0.07148597), (-0.06132887, 0.0041600186, 0.07134488), (-0.057104297, 0.0041984054, 0.07357336), (-0.0642644, 0.002734715, 0.07306313), (-0.06123142, 0.0036026817, 0.073422626), (-0.057021152, 0.0024239493, 0.07534589), (-0.06421023, 0.0015788871, 0.07421774), (-0.06116011, 0.0020800107, 0.074943595), (-0.056990717, -4.4199178e-9, 0.075994685), (-0.06419043, -2.6727265e-9, 0.074640326), (-0.06113404, -3.3365577e-9, 0.0755003), (-0.057021152, -0.0024239589, 0.07534589), (-0.06421023, -0.0015788925, 0.07421774), (-0.06116011, -0.0020800172, 0.074943595), (-0.057104297, -0.0041984147, 0.07357336), (-0.0642644, -0.0027347214, 0.07306313), (-0.06123142, -0.0036026891, 0.073422626), (-0.057217818, -0.0048479144, 0.07115208), (-0.06433838, -0.0031577875, 0.071485996), (-0.06132887, -0.0041600284, 0.07134488), (-0.057331394, -0.004198416, 0.06873078), (-0.06441233, -0.0027347216, 0.069908835), (-0.06142632, -0.0036026905, 0.06926712), (-0.05741448, -0.0024239605, 0.06695828), (-0.06446647, -0.0015788937, 0.06875427), (-0.06149761, -0.0020800186, 0.06774614), (-0.057444915, -6.7304757e-9, 0.066309504), (-0.06448629, -4.1777635e-9, 0.06833165), (-0.061523747, -5.3192624e-9, 0.0671894), (-0.05741448, 0.002423948, 0.06695828), (-0.06446647, 0.0015788861, 0.06875427), (-0.06149761, 0.0020800089, 0.06774614), (-0.057331394, 0.0041984036, 0.06873078), (-0.06441233, 0.0027347147, 0.069908835), (-0.06142632, 0.0036026805, 0.06926712), (-0.066235095, -2.8444966e-9, 0.07157498), (-0.06553037, 0.0017526827, 0.07052886), (-0.06556504, 0.0010119126, 0.06978893), (-0.065577745, -3.5315924e-9, 0.069518045), (-0.06556504, -0.0010119193, 0.06978893), (-0.06553037, -0.0017526891, 0.07052886), (-0.065482944, -0.002023831, 0.07153969), (-0.06543556, -0.0017526885, 0.072550446), (-0.06540084, -0.0010119185, 0.07329044), (-0.065388136, -2.5670062e-9, 0.073561296), (-0.06540084, 0.0010119134, 0.07329044), (-0.06543556, 0.001752683, 0.072550446), (-0.065482944, 0.0020238252, 0.07153969), (-0.038552906, 0.0055246404, 0.07027685), (-0.038423564, 0.004784477, 0.073036104), (-0.03832882, 0.0027623181, 0.075056046), (-0.038294204, -5.2962266e-9, 0.07579539), (-0.03832882, -0.0027623302, 0.075056046), (-0.038423564, -0.004784489, 0.073036104), (-0.038552906, -0.0055246563, 0.07027685), (-0.038682368, -0.004784491, 0.06751752), (-0.038777094, -0.0027623319, 0.06549756), (-0.038811732, -7.929316e-9, 0.064758234), (-0.038777094, 0.0027623165, 0.06549756), (-0.038682368, 0.0047844755, 0.06751752), (-0.036610138, 0.0064075533, 0.066482216), (-0.036436763, 0.007398811, 0.07017764), (-0.036136664, 0.0036994042, 0.0765781), (-0.03609026, -4.8454414e-9, 0.077568255), (-0.036136664, -0.0036994144, 0.0765781), (-0.036263533, -0.0064075664, 0.07387293), (-0.036436763, -0.007398825, 0.07017764), (-0.036610138, -0.0064075696, 0.066482216), (-0.036736984, -0.003699417, 0.06377702), (-0.036783364, -8.3717655e-9, 0.0627869), (-0.036736984, 0.0036994016, 0.06377702), (-0.036263533, 0.0064075547, 0.07387291), (-0.0062013213, 0.007019702, 0.06470243), (-0.0060113957, 0.008105662, 0.068750896), (-0.005682609, 0.004052829, 0.07576285), (-0.0056317947, -4.8060387e-9, 0.076847576), (-0.005682609, -0.0040528392, 0.07576285), (-0.0058215954, -0.007019715, 0.072799206), (-0.0060113957, -0.008105674, 0.068750896), (-0.0062013213, -0.007019718, 0.06470243), (-0.0063403086, -0.004052842, 0.061738785), (-0.0063911006, -8.669259e-9, 0.060654055), (-0.0063403086, 0.0040528253, 0.061738785), (-0.0058215954, 0.0070197047, 0.07279918)]
            texCoord2f[] primvars:st = [(0.6274677, 0.6264365), (0.99576896, 0.48442993), (0.62746763, 0.55232835), (0.62746763, 0.54131603), (0.62746763, 0.5491601), (0.6274679, 0.64232165), (0.62746763, 0.5370394), (0.09964152, 0.7364934), (0.9940766, 0.48207912), (0.6274676, 0.5552249), (0.6676989, 0.2423364), (0.09837148, 0.736476), (0.9936852, 0.48328745), (0.66909164, 0.24233638), (0.99449885, 0.48441774), (0.71295154, 0.6264361), (0.6690938, 0.32722658), (0.99368477, 0.56930435), (0.09837152, 0.65082896), (0.66770107, 0.3272266), (0.09953564, 0.6515935), (0.71295244, 0.5370399), (0.71295244, 0.5413165), (0.7129521, 0.6423201), (0.7129524, 0.5491606), (0.100813806, 0.6510171), (0.71295244, 0.55522543), (0.99494916, 0.5699104), (0.09839268, 0.649427), (0.7129524, 0.55232877), (0.7193073, 0.6264366), (0.37268454, 0.81829095), (0.71616805, 0.5370399), (0.3760428, 0.90742683), (0.71930814, 0.55522555), (0.3709749, 0.8897147), (0.71616805, 0.5523288), (0.37379804, 0.8927207), (0.71616805, 0.5413165), (0.37422317, 0.9035383), (0.37604263, 0.8030531), (0.7193082, 0.6423186), (0.71616805, 0.54916066), (0.37374708, 0.89602023), (0.9619454, 0.112414144), (0.36231545, 0.81756246), (0.9619454, 0.18411882), (0.36055598, 0.8894091), (0.9619454, 0.1906558), (0.3601647, 0.8961513), (0.9619454, 0.18724094), (0.3603279, 0.89259386), (0.95236266, 0.19761504), (0.9571441, 0.19761504), (0.95236266, 0.104035884), (0.3656629, 0.79938066), (0.37163028, 0.8178279), (0.37507692, 0.9079718), (0.36990884, 0.88979435), (0.37290823, 0.8930582), (0.37319523, 0.90384495), (0.37489355, 0.8024863), (0.37274334, 0.8961753), (0.6274677, 0.6328778), (0.62746775, 0.63489735), (0.6274677, 0.6338943), (0.71295124, 0.63287467), (0.7129513, 0.63489753), (0.7129512, 0.6338931), (0.37330875, 0.8096187), (0.7193068, 0.634901), (0.37273592, 0.8119913), (0.7193067, 0.63286734), (0.37293413, 0.8107407), (0.7193066, 0.633892), (0.96063125, 0.104035884), (0.36316687, 0.807782), (0.9619454, 0.10538051), (0.36273205, 0.81004936), (0.96156055, 0.10442972), (0.36293906, 0.8089025), (0.37169594, 0.81115794), (0.37194115, 0.80955964), (0.3716982, 0.81034994), (0.36681986, 0.81772417), (0.36880302, 0.9098761), (0.36506742, 0.88953763), (0.36643773, 0.892784), (0.36702695, 0.9052013), (0.3701383, 0.80063164), (0.36623842, 0.8962922), (0.3674909, 0.80860984), (0.36728892, 0.8096332), (0.3671256, 0.8106898), (0.95236266, 0.20037754), (0.36178753, 0.9121061), (0.36081907, 0.9086332), (0.95589525, 0.20037754), (0.9600394, 0.19712979), (0.36007845, 0.9031712), (0.3648436, 0.91134), (0.36381918, 0.90803874), (0.36323732, 0.9030542), (0.6217854, 0.58467245), (0.89726657, 0.060556732), (0.6218055, 0.5523283), (0.89726645, 0.09290062), (0.62180555, 0.54131603), (0.90172094, 0.10252538), (0.62180555, 0.5491601), (0.89726645, 0.096068785), (0.62180585, 0.64232177), (0.9059979, 0.011019781), (0.62180555, 0.5370394), (0.9059976, 0.1025254), (0.6218055, 0.5552249), (0.89726645, 0.090004005), (0.62180567, 0.6328779), (0.8972667, 0.012351475), (0.62180567, 0.6348974), (0.8985735, 0.011019758), (0.62180567, 0.6338944), (0.89764947, 0.0114098005), (0.89880407, 0.061890244), (0.13051094, 0.18638219), (0.898804, 0.08830072), (0.13100982, 0.21278794), (0.898804, 0.09407157), (0.13111447, 0.21855782), (0.898804, 0.09105693), (0.1310598, 0.21554369), (0.9059976, 0.10021523), (0.13217779, 0.22916694), (0.90247405, 0.10021521), (0.13154083, 0.22570148), (0.89988095, 0.013144715), (0.8991196, 0.013515847), (0.89880425, 0.014411891), (0.9059978, 0.013144734), (0.9059977, 0.061890397), (0.13217792, 0.17938441), (0.9890934, 0.1258644), (0.13342497, 0.18689622), (0.9890934, 0.15163158), (0.13391171, 0.21265876), (0.9890934, 0.15726185), (0.13401383, 0.2182881), (0.9890934, 0.15432066), (0.13396047, 0.2153474), (0.9961118, 0.16325584), (0.13505124, 0.2286388), (0.9926741, 0.16325584), (0.13442978, 0.22525775), (0.9961118, 0.12586452), (0.13505134, 0.18006891), (0.6274677, 0.6264365), (0.99576896, 0.48442993), (0.62746763, 0.55232835), (0.62746763, 0.54131603), (0.62746763, 0.5491601), (0.09964152, 0.7364934), (0.9940766, 0.48207912), (0.6274676, 0.5552249), (0.6676989, 0.2423364), (0.09837148, 0.736476), (0.9936852, 0.48328745), (0.66909164, 0.24233638), (0.99449885, 0.48441774), (0.71295154, 0.6264361), (0.6690938, 0.32722658), (0.99368477, 0.56930435), (0.09837152, 0.65082896), (0.66770107, 0.3272266), (0.09953564, 0.6515935), (0.71295244, 0.5413165), (0.7129524, 0.5491606), (0.100813806, 0.6510171), (0.71295244, 0.55522543), (0.99494916, 0.5699104), (0.09839268, 0.649427), (0.7129524, 0.55232877), (0.7193073, 0.6264366), (0.37268454, 0.81829095), (0.71930814, 0.55522555), (0.3709749, 0.8897147), (0.71616805, 0.5523288), (0.37379804, 0.8927207), (0.71616805, 0.5413165), (0.37422317, 0.9035383), (0.71616805, 0.54916066), (0.37374708, 0.89602023), (0.9619454, 0.112414144), (0.36231545, 0.81756246), (0.9619454, 0.18411882), (0.36055598, 0.8894091), (0.9619454, 0.1906558), (0.3601647, 0.8961513), (0.9619454, 0.18724094), (0.3603279, 0.89259386), (0.9571441, 0.19761504), (0.37163028, 0.8178279), (0.36990884, 0.88979435), (0.37290823, 0.8930582), (0.37319523, 0.90384495), (0.37274334, 0.8961753), (0.6274677, 0.6328778), (0.62746775, 0.63489735), (0.6274677, 0.6338943), (0.71295124, 0.63287467), (0.7129513, 0.63489753), (0.7129512, 0.6338931), (0.37330875, 0.8096187), (0.7193068, 0.634901), (0.37273592, 0.8119913), (0.7193067, 0.63286734), (0.37293413, 0.8107407), (0.7193066, 0.633892), (0.96063125, 0.104035884), (0.36316687, 0.807782), (0.9619454, 0.10538051), (0.36273205, 0.81004936), (0.96156055, 0.10442972), (0.36293906, 0.8089025), (0.37169594, 0.81115794), (0.37194115, 0.80955964), (0.3716982, 0.81034994), (0.36681986, 0.81772417), (0.36506742, 0.88953763), (0.36643773, 0.892784), (0.36702695, 0.9052013), (0.36623842, 0.8962922), (0.3674909, 0.80860984), (0.36728892, 0.8096332), (0.3671256, 0.8106898), (0.36081907, 0.9086332), (0.95589525, 0.20037754), (0.9600394, 0.19712979), (0.36007845, 0.9031712), (0.36381918, 0.90803874), (0.36323732, 0.9030542), (0.6217854, 0.58467245), (0.89726657, 0.060556732), (0.6218055, 0.5523283), (0.89726645, 0.09290062), (0.62180555, 0.54131603), (0.90172094, 0.10252538), (0.62180555, 0.5491601), (0.89726645, 0.096068785), (0.6218055, 0.5552249), (0.89726645, 0.090004005), (0.62180567, 0.6328779), (0.8972667, 0.012351475), (0.62180567, 0.6348974), (0.8985735, 0.011019758), (0.62180567, 0.6338944), (0.89764947, 0.0114098005), (0.89880407, 0.061890244), (0.13051094, 0.18638219), (0.898804, 0.08830072), (0.13100982, 0.21278794), (0.898804, 0.09407157), (0.13111447, 0.21855782), (0.898804, 0.09105693), (0.1310598, 0.21554369), (0.90247405, 0.10021521), (0.13154083, 0.22570148), (0.89988095, 0.013144715), (0.8991196, 0.013515847), (0.89880425, 0.014411891), (0.9890934, 0.1258644), (0.13342497, 0.18689622), (0.9890934, 0.15163158), (0.13391171, 0.21265876), (0.9890934, 0.15726185), (0.13401383, 0.2182881), (0.9890934, 0.15432066), (0.13396047, 0.2153474), (0.9926741, 0.16325584), (0.13442978, 0.22525775), (0.11673987, 0.21371163), (0.1149092, 0.21345848), (0.11305757, 0.21338537), (0.111206196, 0.2135128), (0.10937954, 0.21384536), (0.10760014, 0.21437356), (0.10588341, 0.2150745), (0.104231976, 0.21591231), (0.102628805, 0.21683753), (0.12208573, 0.21499518), (0.10102751, 0.21778393), (0.12030732, 0.2145715), (0.11853751, 0.21410511), (0.11640993, 0.21578701), (0.114606395, 0.22026503), (0.11563028, 0.21842183), (0.11476651, 0.21543095), (0.11378668, 0.2198616), (0.114375435, 0.21797334), (0.11309586, 0.21529475), (0.11290044, 0.21966405), (0.11306928, 0.2177676), (0.11142493, 0.21539146), (0.111993745, 0.21967317), (0.1117521, 0.21780959), (0.109785296, 0.21572219), (0.111110084, 0.21988603), (0.110465884, 0.21809714), (0.108207345, 0.21627618), (0.11029202, 0.22029643), (0.10925146, 0.21862093), (0.106714964, 0.21703134), (0.109582424, 0.2208944), (0.108145125, 0.21936464), (0.105319984, 0.21795543), (0.10902463, 0.22166659), (0.10717346, 0.22030593), (0.104017675, 0.21900873), (0.1086596, 0.22259802), (0.10634389, 0.22141908), (0.10278919, 0.2201531), (0.1211406, 0.21791126), (0.11614933, 0.22264977), (0.10851486, 0.22368257), (0.105627045, 0.22268094), (0.118797, 0.2210856), (0.11957559, 0.2170555), (0.11584095, 0.2216679), (0.11785691, 0.21999481), (0.118010975, 0.21633896), (0.11530942, 0.22086985), (0.11679888, 0.2191013), (0.11228752, 0.2222138), (0.114288345, 0.22155114), (0.11454408, 0.22212201), (0.110204495, 0.22344232), (0.11453131, 0.2227773), (0.11004331, 0.2227535), (0.1101678, 0.22210443), (0.110489696, 0.22154996), (0.1109483, 0.22111715), (0.111497626, 0.22082002), (0.112099364, 0.2206667), (0.112718195, 0.22066225), (0.11331797, 0.22080937), (0.11385791, 0.22110768), (0.11683649, 0.2029205), (0.114492774, 0.20298107), (0.11213352, 0.20314229), (0.10977531, 0.20341109), (0.10743227, 0.20378888), (0.10511815, 0.20427155), (0.102848575, 0.20484966), (0.100645624, 0.20551124), (0.0985475, 0.2062476), (0.123459175, 0.20331852), (0.096625544, 0.20706767), (0.12137318, 0.20307049), (0.1191422, 0.20295116), (0.119377, 0.20096587), (0.11689863, 0.20097148), (0.1119954, 0.20125218), (0.109560795, 0.20153569), (0.107138894, 0.20191774), (0.10473077, 0.20239635), (0.10233335, 0.2029669), (0.099935524, 0.20362666), (0.09751465, 0.20438567), (0.0950406, 0.20530228), (0.12449843, 0.20127182), (0.12189738, 0.20105462), (0.11444098, 0.20106566), (0.11854399, 0.17951412), (0.11555921, 0.17966835), (0.10959789, 0.18019381), (0.10662891, 0.18057296), (0.10367281, 0.18103075), (0.10073301, 0.181565), (0.09781228, 0.18217072), (0.09491251, 0.18284006), (0.09203613, 0.1835597), (0.089188784, 0.18430032), (0.12449848, 0.17938076), (0.12152589, 0.17942242), (0.11257599, 0.17989321)] (
                interpolation = "faceVarying"
            )
            int[] primvars:st:indices = [67, 23, 5, 64, 16, 19, 10, 13, 21, 22, 3, 6, 30, 72, 66, 15, 22, 24, 4, 3, 26, 15, 0, 9, 27, 17, 14, 1, 20, 25, 7, 11, 24, 29, 2, 4, 42, 36, 29, 24, 28, 25, 20, 18, 34, 30, 15, 26, 38, 42, 24, 22, 40, 69, 82, 61, 32, 38, 22, 21, 36, 34, 26, 29, 70, 41, 23, 67, 35, 37, 59, 58, 43, 39, 60, 62, 84, 93, 81, 56, 71, 31, 56, 81, 37, 43, 62, 59, 39, 33, 57, 60, 31, 35, 58, 56, 91, 89, 61, 82, 46, 50, 48, 53, 52, 54, 75, 79, 77, 44, 87, 86, 58, 59, 85, 88, 60, 57, 88, 90, 62, 60, 86, 84, 56, 58, 90, 87, 59, 62, 67, 64, 65, 68, 68, 65, 63, 66, 71, 81, 83, 73, 73, 83, 82, 69, 70, 67, 68, 74, 74, 68, 66, 72, 91, 82, 83, 92, 92, 83, 81, 93, 15, 66, 63, 0, 80, 92, 93, 78, 76, 91, 92, 80, 49, 51, 87, 90, 47, 45, 84, 86, 90, 88, 101, 102, 52, 53, 97, 94, 51, 47, 86, 87, 76, 55, 89, 91, 45, 78, 93, 84, 96, 99, 102, 101, 95, 96, 101, 100, 53, 48, 98, 97, 49, 90, 102, 99, 88, 85, 100, 101, 1, 14, 12, 8, 2, 9, 115, 105, 6, 3, 107, 113, 64, 5, 111, 119, 63, 65, 121, 117, 3, 4, 109, 107, 65, 64, 119, 121, 9, 0, 103, 115, 0, 63, 117, 103, 4, 2, 105, 109, 116, 104, 123, 125, 123, 137, 136, 135, 138, 139, 106, 116, 125, 129, 110, 106, 129, 127, 114, 108, 133, 131, 108, 110, 127, 133, 122, 120, 135, 136, 118, 122, 136, 137, 104, 118, 137, 123, 120, 112, 138, 135, 130, 126, 144, 148, 153, 149, 151, 145, 147, 143, 141, 132, 134, 152, 150, 124, 140, 154, 142, 134, 128, 146, 152, 126, 124, 142, 144, 128, 130, 148, 146, 209, 206, 5, 23, 169, 166, 163, 172, 21, 6, 158, 174, 181, 168, 208, 214, 174, 158, 159, 175, 177, 162, 155, 168, 178, 156, 167, 170, 173, 164, 160, 176, 175, 159, 157, 180, 189, 175, 180, 185, 179, 171, 173, 176, 183, 177, 168, 181, 187, 174, 175, 189, 40, 61, 224, 211, 32, 21, 174, 187, 185, 180, 177, 183, 212, 209, 23, 41, 184, 201, 202, 186, 190, 204, 203, 188, 226, 200, 223, 233, 213, 223, 200, 182, 186, 202, 204, 190, 188, 203, 57, 33, 182, 200, 201, 184, 231, 224, 61, 89, 193, 191, 219, 221, 217, 54, 52, 199, 195, 197, 228, 202, 201, 227, 85, 57, 203, 229, 229, 203, 204, 230, 227, 201, 200, 226, 230, 204, 202, 228, 209, 210, 207, 206, 210, 208, 205, 207, 213, 215, 225, 223, 215, 211, 224, 225, 212, 216, 210, 209, 216, 214, 208, 210, 231, 232, 225, 224, 232, 233, 223, 225, 168, 155, 205, 208, 222, 220, 233, 232, 218, 222, 232, 231, 196, 230, 228, 198, 194, 227, 226, 192, 230, 239, 238, 229, 52, 94, 235, 199, 198, 228, 227, 194, 218, 231, 89, 55, 192, 226, 233, 220, 234, 238, 239, 237, 95, 100, 238, 234, 199, 235, 236, 195, 196, 237, 239, 230, 229, 238, 100, 85, 156, 161, 165, 167, 157, 242, 248, 162, 6, 113, 244, 158, 206, 252, 111, 5, 205, 250, 254, 207, 158, 244, 246, 159, 207, 254, 252, 206, 162, 248, 240, 155, 155, 240, 250, 205, 159, 246, 242, 157, 249, 258, 256, 241, 256, 139, 138, 266, 267, 268, 243, 262, 258, 249, 247, 260, 262, 243, 114, 131, 264, 245, 245, 264, 260, 247, 255, 267, 266, 253, 251, 268, 267, 255, 241, 256, 268, 251, 253, 266, 138, 112, 263, 276, 272, 259, 153, 269, 271, 275, 273, 277, 149, 132, 150, 278, 265, 257, 270, 154, 140, 265, 278, 274, 261, 259, 272, 270, 257, 261, 274, 276, 263, 291, 328, 292, 279, 281, 298, 301, 282, 282, 301, 304, 283, 283, 304, 307, 284, 284, 307, 310, 285, 285, 310, 313, 286, 286, 313, 316, 287, 287, 316, 319, 289, 288, 320, 325, 290, 290, 325, 328, 291, 279, 292, 295, 280, 280, 295, 298, 281, 295, 292, 294, 297, 297, 294, 293, 296, 296, 293, 344, 343, 298, 295, 297, 300, 300, 297, 296, 299, 329, 326, 333, 332, 301, 298, 300, 303, 303, 300, 299, 302, 293, 329, 332, 344, 304, 301, 303, 306, 306, 303, 302, 305, 299, 296, 343, 342, 307, 304, 306, 309, 309, 306, 305, 308, 305, 302, 341, 340, 310, 307, 309, 312, 312, 309, 308, 311, 311, 308, 339, 338, 313, 310, 312, 315, 315, 312, 311, 314, 317, 314, 337, 336, 316, 313, 315, 318, 318, 315, 314, 317, 326, 321, 335, 333, 319, 316, 318, 323, 323, 318, 317, 322, 302, 299, 342, 341, 325, 320, 324, 327, 327, 324, 321, 326, 308, 305, 340, 339, 328, 325, 327, 330, 330, 327, 326, 329, 314, 311, 338, 337, 292, 328, 330, 294, 294, 330, 329, 293, 322, 317, 336, 334, 343, 344, 331, 342, 343, 331, 341, 342, 331, 340, 341, 331, 339, 340, 331, 338, 339, 331, 337, 338, 331, 336, 337, 331, 334, 336, 331, 333, 335, 331, 332, 333, 331, 344, 332, 331, 288, 290, 356, 354, 280, 281, 347, 346, 287, 289, 355, 353, 286, 287, 353, 352, 285, 286, 352, 351, 279, 280, 346, 345, 284, 285, 351, 350, 290, 291, 357, 356, 283, 284, 350, 349, 291, 279, 345, 357, 282, 283, 349, 348, 281, 282, 348, 347, 350, 351, 364, 363, 366, 367, 380, 379, 346, 347, 360, 370, 347, 348, 361, 360, 354, 356, 369, 368, 351, 352, 365, 364, 348, 349, 362, 361, 356, 357, 358, 369, 352, 353, 366, 365, 349, 350, 363, 362, 345, 346, 370, 359, 357, 345, 359, 358, 353, 355, 367, 366, 363, 364, 377, 376, 370, 360, 373, 383, 360, 361, 374, 373, 368, 369, 382, 381, 364, 365, 378, 377, 361, 362, 375, 374, 369, 358, 371, 382, 365, 366, 379, 378, 362, 363, 376, 375, 359, 370, 383, 372, 358, 359, 372, 371]
            uniform token subdivisionScheme = "none"
            custom string userProperties:blender:data_name = "Cube.414"
        }
    }

    def Scope "_materials"
    {
        def Material "MI_Guns_Batch2"
        {
            token outputs:surface.connect = </root/_materials/MI_Guns_Batch2/Principled_BSDF.outputs:surface>
            custom string userProperties:blender:data_name = "MI_Guns_Batch2"

            def Shader "Principled_BSDF"
            {
                uniform token info:id = "UsdPreviewSurface"
                float inputs:clearcoat = 0
                float inputs:clearcoatRoughness = 0.03
                color3f inputs:diffuseColor.connect = </root/_materials/MI_Guns_Batch2/Image_Texture.outputs:rgb>
                float inputs:ior = 1.5
                float inputs:metallic = 0
                normal3f inputs:normal.connect = </root/_materials/MI_Guns_Batch2/Image_Texture_001.outputs:rgb>
                float inputs:opacity = 1
                float inputs:roughness = 0.5
                float inputs:specular = 0.5
                token outputs:surface
            }

            def Shader "Image_Texture"
            {
                uniform token info:id = "UsdUVTexture"
                token inputs:sourceColorSpace = "sRGB"
                float2 inputs:st.connect = </root/_materials/MI_Guns_Batch2/uvmap.outputs:result>
                token inputs:wrapS = "repeat"
                token inputs:wrapT = "repeat"
                float3 outputs:rgb
            }

            def Shader "uvmap"
            {
                uniform token info:id = "UsdPrimvarReader_float2"
                string inputs:varname = "st"
                float2 outputs:result
            }

            def Shader "Image_Texture_001"
            {
                uniform token info:id = "UsdUVTexture"
                float4 inputs:bias = (-1, -1, -1, -1)
                float4 inputs:scale = (2, 2, 2, 2)
                token inputs:sourceColorSpace = "raw"
                float2 inputs:st.connect = </root/_materials/MI_Guns_Batch2/uvmap.outputs:result>
                token inputs:wrapS = "repeat"
                token inputs:wrapT = "repeat"
                float3 outputs:rgb
            }
        }
    }
}

