#usda 1.0
(
    defaultPrim = "root"
    doc = "Blender v5.1.2"
    metersPerUnit = 1
    upAxis = "Y"
)

def Xform "root" (
    customData = {
        dictionary Blender = {
            bool generated = 1
        }
    }
)
{
    float3 xformOp:rotateXYZ = (-90, -0, 0)
    uniform token[] xformOpOrder = ["xformOp:rotateXYZ"]

    def Xform "Prop_Desk_Small"
    {
        custom string userProperties:blender:object_name = "Prop_Desk_Small"

        def Mesh "Cube_093" (
            active = true
            prepend apiSchemas = ["MaterialBindingAPI"]
        )
        {
            uniform bool doubleSided = 1
            float3[] extent = [(-1.0317345, -0.5, 0), (1.0317345, 0.52888024, 0.93960357)]
            int[] faceVertexCounts = [4, 4, 4, 12, 4, 4, 4, 4, 4, 4, 12, 4, 4, 44, 4, 4, 4, 4, 4, 4, 4, 4, 4, 4, 4, 4, 4, 4, 4, 4, 4, 4, 4, 4, 4, 4, 4, 4, 4, 4, 4, 4, 4, 4, 4, 4, 4, 4, 4, 4, 4, 4, 4, 4, 4, 4, 4, 4, 4, 4, 4, 4, 4, 4, 4, 4, 4, 4, 4, 4, 4, 4, 4, 4, 4, 4, 4, 4, 4, 4, 4, 4, 4, 4, 4, 4, 4, 4, 4, 4, 4, 4, 4, 4, 4, 4, 4, 4, 4, 4, 4, 4, 4, 4, 4, 4, 4, 4, 4, 4, 4, 4, 4, 4, 4, 4, 4, 4, 4, 4, 4, 4, 4, 4, 4, 4, 4, 4, 4, 4, 4, 4, 4, 4, 4, 4, 4, 4, 4, 4, 4, 4, 4, 4, 4, 4, 4, 4, 4, 4, 4, 4, 4, 4, 4, 4, 4, 4, 4, 4, 4, 4, 4, 4, 4, 4, 4, 4, 4, 4, 4, 4, 4, 4, 4, 4, 4, 4, 4, 4, 4, 4, 4, 4, 4, 4, 4, 4, 4, 4, 4, 4, 4, 4, 4, 3, 3, 3, 3, 3, 3, 3, 3, 3, 3, 3, 3, 3, 3, 3, 3, 4, 4, 4, 4, 4, 4, 4, 4, 4, 4, 4, 4, 4, 4, 4, 4, 4]
            int[] faceVertexIndices = [39, 7, 53, 77, 10, 11, 59, 58, 40, 47, 69, 70, 21, 23, 24, 25, 26, 27, 28, 29, 22, 4, 254, 1, 284, 268, 259, 253, 11, 284, 253, 4, 13, 20, 85, 86, 249, 263, 274, 278, 44, 43, 74, 73, 3, 1, 254, 258, 5, 12, 14, 15, 16, 17, 18, 19, 20, 13, 0, 248, 264, 248, 0, 2, 1, 3, 51, 50, 3, 258, 260, 261, 262, 259, 268, 270, 271, 272, 269, 273, 275, 276, 277, 274, 263, 265, 266, 267, 264, 2, 30, 32, 33, 34, 35, 36, 37, 38, 31, 6, 8, 9, 7, 39, 41, 42, 43, 44, 45, 46, 47, 40, 28, 27, 92, 93, 269, 283, 279, 273, 283, 11, 10, 279, 3, 40, 70, 51, 36, 35, 64, 63, 14, 12, 79, 78, 20, 19, 84, 85, 9, 8, 56, 57, 27, 26, 91, 92, 32, 30, 68, 67, 0, 13, 86, 49, 45, 44, 73, 72, 2, 0, 49, 48, 12, 5, 55, 79, 19, 18, 83, 84, 37, 36, 63, 62, 26, 25, 90, 91, 41, 39, 77, 76, 6, 31, 61, 54, 61, 79, 55, 54, 48, 49, 86, 68, 53, 52, 95, 77, 70, 88, 50, 51, 52, 53, 57, 59, 58, 56, 54, 55, 56, 58, 59, 57, 79, 61, 60, 78, 78, 60, 62, 80, 80, 62, 63, 81, 81, 63, 64, 82, 82, 64, 65, 83, 83, 65, 66, 84, 84, 66, 67, 85, 85, 67, 68, 86, 88, 70, 69, 87, 87, 69, 71, 89, 89, 71, 72, 90, 90, 72, 73, 91, 91, 73, 74, 92, 92, 74, 75, 93, 93, 75, 76, 94, 94, 76, 77, 95, 15, 14, 78, 80, 7, 9, 57, 53, 29, 28, 93, 94, 35, 34, 65, 64, 23, 21, 88, 87, 31, 38, 60, 61, 21, 1, 50, 88, 43, 42, 75, 74, 4, 22, 95, 52, 16, 15, 80, 81, 8, 6, 54, 56, 22, 29, 94, 95, 47, 46, 71, 69, 34, 33, 66, 65, 24, 23, 87, 89, 17, 16, 81, 82, 11, 4, 52, 59, 42, 41, 76, 75, 38, 37, 62, 60, 5, 10, 58, 55, 30, 2, 48, 68, 25, 24, 89, 90, 46, 45, 72, 71, 18, 17, 82, 83, 33, 32, 67, 66, 224, 229, 157, 102, 155, 107, 143, 179, 162, 135, 106, 156, 209, 239, 187, 96, 239, 228, 153, 187, 171, 144, 99, 152, 152, 99, 219, 234, 191, 110, 100, 188, 182, 101, 111, 184, 190, 112, 105, 189, 158, 108, 109, 159, 160, 115, 114, 161, 181, 104, 113, 183, 185, 117, 124, 192, 192, 124, 123, 193, 193, 123, 122, 194, 194, 122, 121, 195, 195, 121, 120, 196, 196, 120, 119, 197, 197, 119, 118, 198, 198, 118, 116, 199, 186, 126, 133, 200, 200, 133, 132, 201, 201, 132, 131, 202, 202, 131, 130, 203, 203, 130, 129, 204, 204, 129, 128, 205, 205, 128, 127, 206, 206, 127, 125, 207, 153, 98, 134, 170, 187, 153, 170, 199, 145, 178, 179, 143, 146, 177, 178, 145, 147, 176, 177, 146, 148, 175, 176, 147, 149, 174, 175, 148, 150, 173, 174, 149, 151, 172, 173, 150, 144, 171, 172, 151, 136, 169, 170, 134, 137, 168, 169, 136, 138, 167, 168, 137, 139, 166, 167, 138, 140, 165, 166, 139, 141, 164, 165, 140, 142, 163, 164, 141, 135, 162, 163, 142, 107, 155, 159, 109, 191, 160, 161, 184, 190, 158, 159, 183, 108, 158, 156, 106, 102, 157, 161, 114, 115, 160, 154, 103, 186, 171, 152, 180, 229, 238, 182, 157, 228, 223, 98, 153, 185, 162, 156, 189, 181, 155, 179, 207, 243, 233, 154, 188, 233, 218, 103, 154, 104, 181, 207, 125, 117, 185, 189, 105, 214, 243, 188, 100, 126, 186, 180, 97, 97, 180, 244, 213, 112, 190, 183, 113, 110, 191, 184, 111, 96, 187, 199, 116, 178, 206, 207, 179, 177, 205, 206, 178, 176, 204, 205, 177, 175, 203, 204, 176, 174, 202, 203, 175, 173, 201, 202, 174, 172, 200, 201, 173, 171, 186, 200, 172, 169, 198, 199, 170, 168, 197, 198, 169, 167, 196, 197, 168, 166, 195, 196, 167, 165, 194, 195, 166, 164, 193, 194, 165, 163, 192, 193, 164, 162, 185, 192, 163, 155, 181, 183, 159, 158, 190, 189, 156, 157, 182, 184, 161, 160, 191, 188, 154, 180, 152, 234, 244, 239, 209, 212, 242, 242, 212, 211, 241, 241, 211, 210, 240, 240, 210, 208, 238, 234, 219, 222, 237, 237, 222, 221, 236, 236, 221, 220, 235, 235, 220, 218, 233, 223, 228, 230, 225, 225, 230, 231, 226, 226, 231, 232, 227, 227, 232, 229, 224, 244, 234, 237, 247, 247, 237, 236, 246, 246, 236, 235, 245, 245, 235, 233, 243, 228, 239, 242, 230, 230, 242, 241, 231, 231, 241, 240, 232, 232, 240, 238, 229, 213, 244, 247, 215, 215, 247, 246, 216, 216, 246, 245, 217, 217, 245, 243, 214, 238, 208, 101, 182, 248, 250, 5, 250, 251, 5, 251, 252, 5, 252, 249, 5, 253, 255, 4, 255, 256, 4, 256, 257, 4, 257, 254, 4, 278, 280, 10, 280, 281, 10, 281, 282, 10, 282, 279, 10, 283, 285, 11, 285, 286, 11, 286, 287, 11, 287, 284, 11, 248, 264, 267, 250, 250, 267, 266, 251, 251, 266, 265, 252, 252, 265, 263, 249, 258, 254, 257, 260, 260, 257, 256, 261, 261, 256, 255, 262, 262, 255, 253, 259, 268, 284, 287, 270, 270, 287, 286, 271, 271, 286, 285, 272, 272, 285, 283, 269, 278, 274, 277, 280, 280, 277, 276, 281, 281, 276, 275, 282, 282, 275, 273, 279, 5, 249, 278, 10]
            rel material:binding = </root/_materials/MI_Trim_03_Dark>
            normal3f[] normals = [(0.02303236, 0.67557126, -0.73693484), (0, 0.6849915, -0.7285511), (0, 0.6849915, -0.7285511), (0.042103168, 0.6674135, -0.7434962), (5.260423e-8, 0, 1), (-1.1518707e-9, 0, 1), (0, 0, 1), (0, 0, 1), (0.6416658, 0.023184408, -0.76663387), (0.60591173, 0.1070376, -0.7882981), (0.59466505, 0.13016954, -0.7933659), (0.63563067, 0.03903051, -0.771006), (-0.0000010909607, 0, 1), (-4.421772e-7, 0, 1), (-2.1172399e-7, 0, 1), (7.891233e-8, 0, 1), (9.4126864e-7, 0, 1), (4.931679e-7, 0, 1), (1.351327e-7, 0, 1), (2.9840135e-7, 0, 1), (2.172215e-7, 0, 1), (7.807454e-8, 0, 1), (1.7623911e-7, 0, 1), (-0.0000012154518, 0, 1), (-0.47423896, -0.8803961, 2.8189183e-7), (-0.47423905, -0.8803961, 2.8189191e-7), (-0.47423896, -0.8803961, 2.8189183e-7), (-0.47423905, -0.8803961, 2.8189191e-7), (-1.1518707e-9, 0, 1), (0, 0, 1), (0.0000030406882, 0, 1), (7.807454e-8, 0, 1), (7.8024254e-7, 0, 1), (-1.3513336e-7, 0, 1), (0, 0, 1), (9.078668e-7, 0, 1), (0.47423893, -0.8803962, -2.8189186e-7), (0.47423893, -0.8803962, -2.8189191e-7), (0.47423893, -0.8803962, -2.8189186e-7), (0.47423893, -0.8803962, -2.8189191e-7), (0.4037314, 0.40646362, -0.8196269), (0.31877875, 0.48907512, -0.8119025), (0.3275845, 0.48127428, -0.813058), (0.40564522, 0.4043947, -0.81970537), (0, -1, 0), (0, -1, 0), (-0.043365054, -0.99905926, 0), (-0.043365054, -0.99905926, 0), (1.7115418e-8, 0, 1), (-6.205409e-8, 0, 1), (2.8132847e-8, 0, 1), (3.263352e-8, 0, 1), (-2.5745885e-7, 0, 1), (-9.4126887e-7, 0, 1), (-7.891247e-8, 0, 1), (2.11724e-7, 0, 1), (-1.3513336e-7, 0, 1), (7.8024254e-7, 0, 1), (0.0000012154518, 0, 1), (-1.7623906e-7, 0, 1), (0.043365054, -0.99905926, 0), (0.043365054, -0.99905926, 0), (0, -1, 0), (0, -1, 0), (0, -1, 0), (0, -1, 0), (0, -1, 0), (0, -1, 0), (2.2495819e-9, 0, -1), (2.2495819e-9, 0, -1), (2.2495819e-9, 0, -1), (2.2495819e-9, 0, -1), (2.2495819e-9, 0, -1), (2.2495819e-9, 0, -1), (2.2495819e-9, 0, -1), (2.2495819e-9, 0, -1), (2.2495819e-9, 0, -1), (2.2495819e-9, 0, -1), (2.2495819e-9, 0, -1), (2.2495819e-9, 0, -1), (2.2495819e-9, 0, -1), (2.2495819e-9, 0, -1), (2.2495819e-9, 0, -1), (2.2495819e-9, 0, -1), (2.2495819e-9, 0, -1), (2.2495819e-9, 0, -1), (2.2495819e-9, 0, -1), (2.2495819e-9, 0, -1), (2.2495819e-9, 0, -1), (2.2495819e-9, 0, -1), (2.2495819e-9, 0, -1), (2.2495819e-9, 0, -1), (2.2495819e-9, 0, -1), (2.2495819e-9, 0, -1), (2.2495819e-9, 0, -1), (2.2495819e-9, 0, -1), (2.2495819e-9, 0, -1), (2.2495819e-9, 0, -1), (2.2495819e-9, 0, -1), (2.2495819e-9, 0, -1), (2.2495819e-9, 0, -1), (2.2495819e-9, 0, -1), (2.2495819e-9, 0, -1), (2.2495819e-9, 0, -1), (2.2495819e-9, 0, -1), (2.2495819e-9, 0, -1), (2.2495819e-9, 0, -1), (2.2495819e-9, 0, -1), (2.2495819e-9, 0, -1), (2.2495819e-9, 0, -1), (2.2495819e-9, 0, -1), (2.2495819e-9, 0, -1), (1.351327e-7, 0, 1), (4.931679e-7, 0, 1), (8.643989e-7, 0, 1), (0, 0, 1), (-0.04336503, -0.99905926, 2.8983592e-7), (-0.04336503, -0.99905926, 2.8983592e-7), (0.04336507, -0.99905926, -2.8983592e-7), (0.04336507, -0.99905926, -2.8983592e-7), (-0.0000020995872, 0, 1), (-1.1518707e-9, 0, 1), (5.260423e-8, 0, 1), (0, 0, 1), (0.65013677, 0, -0.7598173), (0.6416658, 0.023184408, -0.76663387), (0.63563067, 0.03903051, -0.771006), (0.65013677, 0, -0.7598173), (-0.31877914, 0.4890748, -0.8119025), (-0.40373147, 0.4064636, -0.81962687), (-0.40564525, 0.40439475, -0.81970537), (-0.3275848, 0.48127395, -0.8130581), (2.8132847e-8, 0, 1), (-6.205409e-8, 0, 1), (3.2998796e-7, 0, 1), (1.5811379e-7, 0, 1), (-1.3513336e-7, 0, 1), (2.11724e-7, 0, 1), (8.9800284e-7, 0, 1), (0, 0, 1), (0, 0.6849915, -0.72855103), (0, 0.6849915, -0.72855103), (0, 0.6849915, -0.7285511), (0, 0.6849915, -0.7285511), (4.931679e-7, 0, 1), (9.4126864e-7, 0, 1), (0.0000015169272, 0, 1), (8.643989e-7, 0, 1), (-0.6059121, 0.10703753, -0.78829783), (-0.6416658, 0.023184408, -0.76663387), (-0.63563067, 0.03903051, -0.771006), (-0.5946656, 0.13016945, -0.79336554), (0.0000012154518, 0, 1), (7.8024254e-7, 0, 1), (9.078668e-7, 0, 1), (0.0000027191854, 0, 1), (0.47898233, 0.31667686, -0.8187135), (0.4037314, 0.40646362, -0.8196269), (0.40564522, 0.4043947, -0.81970537), (0.47538802, 0.32140517, -0.8189658), (0, -1, 0), (0, -1, 0), (0, -1, 0), (0, -1, 0), (-6.205409e-8, 0, 1), (1.7115418e-8, 0, 1), (0, 0, 1), (3.2998796e-7, 0, 1), (2.11724e-7, 0, 1), (-7.891247e-8, 0, 1), (-8.9367404e-8, 0, 1), (8.9800284e-7, 0, 1), (-0.22157295, 0.56528646, -0.7945795), (-0.31877914, 0.4890748, -0.8119025), (-0.3275848, 0.48127395, -0.8130581), (-0.23913002, 0.5527584, -0.7982951), (9.4126864e-7, 0, 1), (7.891233e-8, 0, 1), (8.936747e-8, 0, 1), (0.0000015169272, 0, 1), (0.10883845, 0.6344452, -0.76526695), (0.02303236, 0.67557126, -0.73693484), (0.042103168, 0.6674135, -0.7434962), (0.13758235, 0.61854243, -0.77361256), (0, 0.6849915, -0.7285511), (-0.02303237, 0.6755711, -0.736935), (-0.04210319, 0.6674132, -0.7434965), (0, 0.6849915, -0.7285511), (-0.048932526, 0.99880207, 0), (-0.048932526, 0.99880207, 0), (0, 1, 0), (0, 1, 0), (-1, 0, 0), (-1, 0, 0), (-0.9987888, 0.049202915, 0), (-0.9987888, 0.049202915, 0), (0, 1, 0), (0, 1, 0), (0.048932478, 0.99880207, 0), (0.048932478, 0.99880207, 0), (0.9987888, 0.049202915, 0), (0.9987888, 0.049202915, 0), (1, 0, 0), (1, 0, 0), (0, 1, 0), (0, 1, 0), (0, 1, 0), (0, 1, 0), (0, 1, 0), (0, 1, 0), (0, 1, 0), (0, 1, 0), (0, 1, 0), (0, 1, 0), (0, 1, 0), (0, 1, 0), (-0.048932526, 0.99880207, 0), (-0.048932526, 0.99880207, 0), (-0.19458173, 0.98088634, 0), (-0.19458173, 0.98088634, 0), (-0.19458173, 0.98088634, 0), (-0.19458173, 0.98088634, 0), (-0.38179746, 0.924246, 0), (-0.38179746, 0.924246, 0), (-0.38179746, 0.924246, 0), (-0.38179746, 0.924246, 0), (-0.5545271, 0.83216566, 0), (-0.5545271, 0.83216566, 0), (-0.5545271, 0.83216566, 0), (-0.5545271, 0.83216566, 0), (-0.7061453, 0.708067, 0), (-0.7061453, 0.708067, 0), (-0.7061453, 0.708067, 0), (-0.7061453, 0.708067, 0), (-0.83077127, 0.556614, 0), (-0.83077127, 0.556614, 0), (-0.83077127, 0.556614, 0), (-0.83077127, 0.556614, 0), (-0.9235114, 0.3835711, 0), (-0.9235114, 0.3835711, 0), (-0.9235114, 0.3835711, 0), (-0.9235114, 0.3835711, 0), (-0.98068357, 0.19560124, 0), (-0.98068357, 0.19560124, 0), (-0.98068357, 0.19560124, 0), (-0.98068357, 0.19560124, 0), (-0.9987888, 0.049202915, 0), (-0.9987888, 0.049202915, 0), (0.9987888, 0.049202915, 0), (0.9987888, 0.049202915, 0), (0.98068357, 0.19560124, 0), (0.98068357, 0.19560124, 0), (0.98068357, 0.19560124, 0), (0.98068357, 0.19560124, 0), (0.9235114, 0.3835711, 0), (0.9235114, 0.3835711, 0), (0.9235114, 0.3835711, 0), (0.9235114, 0.3835711, 0), (0.83077145, 0.5566137, 0), (0.83077145, 0.5566137, 0), (0.83077145, 0.5566137, 0), (0.83077145, 0.5566137, 0), (0.7061453, 0.70806694, 0), (0.7061453, 0.70806694, 0), (0.7061453, 0.70806694, 0), (0.7061453, 0.70806694, 0), (0.55452675, 0.83216596, 0), (0.55452675, 0.83216596, 0), (0.55452675, 0.83216596, 0), (0.55452675, 0.83216596, 0), (0.3817975, 0.92424595, 0), (0.3817975, 0.92424595, 0), (0.3817975, 0.92424595, 0), (0.3817975, 0.92424595, 0), (0.19458196, 0.9808863, 0), (0.19458196, 0.9808863, 0), (0.19458196, 0.9808863, 0), (0.19458196, 0.9808863, 0), (0.048932478, 0.99880207, 0), (0.048932478, 0.99880207, 0), (3.263352e-8, 0, 1), (2.8132847e-8, 0, 1), (1.5811379e-7, 0, 1), (4.9002045e-7, 0, 1), (0, 0.6849915, -0.7285511), (0, 0.6849915, -0.72855103), (0, 0.6849915, -0.7285511), (0, 0.6849915, -0.7285511), (2.9840135e-7, 0, 1), (1.351327e-7, 0, 1), (0, 0, 1), (1.5811362e-7, 0, 1), (-0.40373147, 0.4064636, -0.81962687), (-0.4789823, 0.31667712, -0.8187133), (-0.47538802, 0.3214055, -0.8189656), (-0.40564525, 0.40439475, -0.81970537), (-4.421772e-7, 0, 1), (-0.0000010909607, 0, 1), (-0.0000020750654, 0, 1), (-6.3770005e-7, 0, 1), (-0.02303237, 0.6755711, -0.736935), (-0.10883845, 0.63444495, -0.7652672), (-0.13758223, 0.6185424, -0.77361256), (-0.04210319, 0.6674132, -0.7434965), (-0.0000010909607, 0, 1), (-0.0000012154518, 0, 1), (-0.0000027191854, 0, 1), (-0.0000020750654, 0, 1), (0.31877875, 0.48907512, -0.8119025), (0.22157285, 0.5652864, -0.7945796), (0.23912968, 0.5527584, -0.79829514), (0.3275845, 0.48127428, -0.813058), (7.807454e-8, 0, 1), (2.172215e-7, 0, 1), (3.2998798e-7, 0, 1), (0, 0, 1), (-2.5745885e-7, 0, 1), (3.263352e-8, 0, 1), (4.9002045e-7, 0, 1), (-5.199048e-7, 0, 1), (0, 0.6849915, -0.72855103), (0, 0.6849915, -0.7285511), (0, 0.6849915, -0.7285511), (0, 0.6849915, -0.7285511), (2.172215e-7, 0, 1), (2.9840135e-7, 0, 1), (1.5811362e-7, 0, 1), (3.2998798e-7, 0, 1), (0.60591173, 0.1070376, -0.7882981), (0.5461953, 0.21782751, -0.80883974), (0.53820425, 0.23076607, -0.8106068), (0.59466505, 0.13016954, -0.7933659), (-0.4789823, 0.31667712, -0.8187133), (-0.54619586, 0.21782744, -0.8088395), (-0.5382046, 0.23076601, -0.81060654), (-0.47538802, 0.3214055, -0.8189656), (-2.1172399e-7, 0, 1), (-4.421772e-7, 0, 1), (-6.3770005e-7, 0, 1), (-8.9800284e-7, 0, 1), (-9.4126887e-7, 0, 1), (-2.5745885e-7, 0, 1), (-5.199048e-7, 0, 1), (-0.0000015169276, 0, 1), (-1.1518707e-9, 0, 1), (7.807454e-8, 0, 1), (0, 0, 1), (0, 0, 1), (0.22157285, 0.5652864, -0.7945796), (0.10883845, 0.6344452, -0.76526695), (0.13758235, 0.61854243, -0.77361256), (0.23912968, 0.5527584, -0.79829514), (-0.10883845, 0.63444495, -0.7652672), (-0.22157295, 0.56528646, -0.7945795), (-0.23913002, 0.5527584, -0.7982951), (-0.13758223, 0.6185424, -0.77361256), (1.7115418e-8, 0, 1), (5.260423e-8, 0, 1), (0, 0, 1), (0, 0, 1), (-0.6416658, 0.023184408, -0.76663387), (-0.65013677, 0, -0.7598173), (-0.65013677, 0, -0.7598173), (-0.63563067, 0.03903051, -0.771006), (7.891233e-8, 0, 1), (-2.1172399e-7, 0, 1), (-8.9800284e-7, 0, 1), (8.936747e-8, 0, 1), (0.5461953, 0.21782751, -0.80883974), (0.47898233, 0.31667686, -0.8187135), (0.47538802, 0.32140517, -0.8189658), (0.53820425, 0.23076607, -0.8106068), (-7.891247e-8, 0, 1), (-9.4126887e-7, 0, 1), (-0.0000015169276, 0, 1), (-8.9367404e-8, 0, 1), (-0.54619586, 0.21782744, -0.8088395), (-0.6059121, 0.10703753, -0.78829783), (-0.5946656, 0.13016945, -0.79336554), (-0.5382046, 0.23076601, -0.81060654), (0.9948164, -0.101686984, -0.000007971624), (0.9948172, -0.1016795, -0.000007971036), (1, 0, 0), (1, 0, 0), (0, 0.9737662, 0.22755094), (0, 1, 0), (0.049067903, 0.99879545, 0), (0.040022258, 0.97052777, 0.23764278), (-0.040022157, 0.97052765, 0.23764312), (-0.04906779, 0.99879545, 0), (0, 1, 0), (0, 0.9737661, 0.22755149), (0.0945784, -0.9955174, 0.00014436431), (0.10615432, -0.9591141, 0.26235756), (0, -0.9872992, 0.158872), (0, -0.99999994, 0), (0.10615432, -0.9591141, 0.26235756), (0.074233465, -0.96561086, 0.24916893), (0, -0.96287006, 0.26996535), (0, -0.9872992, 0.158872), (0.99879545, 0.04906785, 0), (0.99879545, 0.04906785, 0), (1, 0, 0), (1, 0, 0), (0, -0.96287006, 0.26996532), (0, -1, 3.7840184e-8), (-0.09448567, -0.9955262, -0.0000139581025), (-0.07423341, -0.9656107, 0.24916922), (0, -1, 0), (0, -1, 0), (0, -1, 0), (0, -1, 0), (0, -1, 0), (0, -1, 0), (0, -1, 0), (0, -1, 0), (0, 0.9737662, 0.227551), (0, 1, 0), (0, 1, 0), (0, 0.9737661, 0.22755143), (0, 0.97376627, 0.22755066), (0, 1, 0), (0, 1, 0), (0, 0.97376627, 0.2275504), (0, -1, 4.243477e-8), (0, -1, 4.243477e-8), (0, -1, 1.9305077e-8), (0, -1, 1.9305077e-8), (0, 0.9737662, 0.22755082), (0, 1, 0), (0, 1, 0), (0, 0.9737662, 0.22755067), (-0.05478156, 0.9686865, 0.24216783), (-0.04906785, 0.99879545, 0), (-0.19509041, 0.98078525, 0), (-0.1997877, 0.9400697, 0.2763221), (-0.1997877, 0.9400697, 0.2763221), (-0.19509041, 0.98078525, 0), (-0.38268298, 0.92387974, 0), (-0.38268298, 0.92387974, 0), (-0.38268298, 0.92387974, 0), (-0.38268298, 0.92387974, 0), (-0.5555702, 0.8314696, 0), (-0.5555702, 0.8314696, 0), (-0.5555702, 0.8314696, 0), (-0.5555702, 0.8314696, 0), (-0.70710707, 0.7071065, 0), (-0.70710707, 0.7071065, 0), (-0.70710707, 0.7071065, 0), (-0.70710707, 0.7071065, 0), (-0.83146995, 0.55556977, 0), (-0.83146995, 0.55556977, 0), (-0.83146995, 0.55556977, 0), (-0.83146995, 0.55556977, 0), (-0.9238793, 0.38268387, 0), (-0.9238793, 0.38268387, 0), (-0.9238793, 0.38268387, 0), (-0.9238793, 0.38268387, 0), (-0.98078513, 0.19509088, 0), (-0.98078513, 0.19509088, 0), (-0.98078513, 0.19509088, 0), (-0.98078513, 0.19509088, 0), (-0.9987955, 0.049067255, 0), (-0.9987955, 0.049067255, 0), (0.9987955, 0.049067285, 0), (0.9987955, 0.049067285, 0), (0.98078513, 0.19509096, 0), (0.98078513, 0.19509096, 0), (0.98078513, 0.19509096, 0), (0.98078513, 0.19509096, 0), (0.9238793, 0.38268387, 0), (0.9238793, 0.38268387, 0), (0.9238793, 0.38268387, 0), (0.9238793, 0.38268387, 0), (0.83147, 0.5555697, 0), (0.83147, 0.5555697, 0), (0.83147, 0.5555697, 0), (0.83147, 0.5555697, 0), (0.70710695, 0.70710665, 0), (0.70710695, 0.70710665, 0), (0.70710695, 0.70710665, 0), (0.70710695, 0.70710665, 0), (0.55557, 0.8314698, 0), (0.55557, 0.8314698, 0), (0.55557, 0.8314698, 0), (0.55557, 0.8314698, 0), (0.3826832, 0.9238797, 0), (0.3826832, 0.9238797, 0), (0.3826832, 0.9238797, 0), (0.3826832, 0.9238797, 0), (0.19509064, 0.98078525, 0), (0.19978788, 0.9400696, 0.2763221), (0.19978788, 0.9400696, 0.2763221), (0.19509064, 0.98078525, 0), (0.04906785, 0.99879545, 0), (0.05478165, 0.9686866, 0.24216774), (-1, 0, 0), (-1, 0, 0), (-0.99879545, 0.04906784, -1.2102443e-9), (-0.99879545, 0.04906783, -1.2102442e-9), (-0.7111085, 0, 0.7030823), (-0.7111085, 0, 0.7030823), (-0.7078012, 0.032667838, 0.70565593), (-0.7073371, 0.036721155, 0.705922), (0.19509059, 0.9807853, 0), (0.1735497, 0.9464905, 0.27209604), (0.040022258, 0.97052777, 0.23764278), (0.049067903, 0.99879545, 0), (0.38268346, 0.9238795, 0), (0.38268346, 0.9238795, 0), (0.1735497, 0.9464905, 0.27209604), (0.19509059, 0.9807853, 0), (0.5555702, 0.83146966, 0), (0.5555702, 0.83146966, 0), (0.38268346, 0.9238795, 0), (0.38268346, 0.9238795, 0), (0.7071066, 0.70710695, 0), (0.7071066, 0.70710695, 0), (0.5555702, 0.83146966, 0), (0.5555702, 0.83146966, 0), (0.83146966, 0.5555702, 0), (0.83146966, 0.5555702, 0), (0.7071066, 0.70710695, 0), (0.7071066, 0.70710695, 0), (0.9238796, 0.3826832, 0), (0.9238796, 0.3826832, 0), (0.83146966, 0.5555702, 0), (0.83146966, 0.5555702, 0), (0.98078525, 0.19509046, 0), (0.98078525, 0.19509046, 0), (0.9238796, 0.3826832, 0), (0.9238796, 0.3826832, 0), (0.99879545, 0.04906785, 0), (0.99879545, 0.04906785, 0), (0.98078525, 0.19509046, 0), (0.98078525, 0.19509046, 0), (-0.98078525, 0.19509041, 3.6439054e-9), (-0.98078525, 0.19509041, 3.6439054e-9), (-0.99879545, 0.04906783, -1.2102442e-9), (-0.99879545, 0.04906784, -1.2102443e-9), (-0.9238796, 0.38268322, 1.4575622e-8), (-0.9238796, 0.38268325, 1.4575622e-8), (-0.98078525, 0.19509041, 3.6439054e-9), (-0.98078525, 0.19509041, 3.6439054e-9), (-0.8314696, 0.55557024, 9.717082e-9), (-0.8314696, 0.55557024, 9.717082e-9), (-0.9238796, 0.38268325, 1.4575622e-8), (-0.9238796, 0.38268322, 1.4575622e-8), (-0.7071067, 0.7071068, 1.9434157e-8), (-0.7071067, 0.7071068, 1.9434157e-8), (-0.8314696, 0.55557024, 9.717082e-9), (-0.8314696, 0.55557024, 9.717082e-9), (-0.55557024, 0.8314696, 1.9434157e-8), (-0.55557024, 0.8314696, 1.9434157e-8), (-0.7071067, 0.7071068, 1.9434157e-8), (-0.7071067, 0.7071068, 1.9434157e-8), (-0.38268346, 0.9238795, 1.9434149e-8), (-0.38268346, 0.9238795, 1.9434149e-8), (-0.55557024, 0.8314696, 1.9434157e-8), (-0.55557024, 0.8314696, 1.9434157e-8), (-0.19509044, 0.98078525, 1.9434147e-8), (-0.1735495, 0.9464905, 0.27209592), (-0.38268346, 0.9238795, 1.9434149e-8), (-0.38268346, 0.9238795, 1.9434149e-8), (-0.04906779, 0.99879545, 0), (-0.040022157, 0.97052765, 0.23764312), (-0.1735495, 0.9464905, 0.27209592), (-0.19509044, 0.98078525, 1.9434147e-8), (0, 1, 0), (0, 0.9737662, 0.22755094), (0, 0.97376627, 0.2275504), (0, 1, 0), (0, -0.6779125, 0.7351426), (0, -0.67791253, 0.73514265), (0, -0.6779122, 0.735143), (0, -0.6779122, 0.7351429), (0, 0.9737662, 0.227551), (0, 0.97376627, 0.22755066), (0, 0.97376627, 0.2275504), (0, 0.9737662, 0.22755067), (0, 1, 0), (0, 0.97376627, 0.22755066), (0, 0.9737661, 0.22755149), (0, 1, 0), (0, -1, 0), (0, -1, 0), (0, -1, 1.9305077e-8), (0, -1, 1.9305077e-8), (0, -1, 4.243477e-8), (0, -1, 4.243477e-8), (0, -1, 4.625939e-8), (0, -1, 4.625939e-8), (0.70733696, 0.036721174, 0.70592207), (0.70780116, 0.032667857, 0.705656), (0.7111082, 0, 0.7030825), (0.7111082, 0, 0.7030825), (0.75017875, -0.061272305, 0.65839016), (0.74147505, -0.089384384, 0.66500026), (0.76673603, 0, 0.6419625), (0.76673603, 0, 0.6419625), (0.074233465, -0.96561086, 0.24916893), (0.09448567, -0.9955262, -0.000013949775), (0, -1, 5.442184e-8), (0, -0.96287006, 0.26996535), (-0.05478156, 0.9686865, 0.24216783), (-0.040022157, 0.97052765, 0.23764312), (0, 0.9737661, 0.22755149), (0, 0.9737661, 0.22755143), (0, 0.9737662, 0.22755082), (0, 0.9737662, 0.22755094), (0.040022258, 0.97052777, 0.23764278), (0.05478165, 0.9686866, 0.24216774), (-0.7414753, -0.08938445, 0.6649999), (-0.75017893, -0.061272345, 0.65838987), (-0.76673603, 0, 0.6419625), (-0.76673603, 0, 0.6419625), (-0.9948172, -0.1016795, -0.000007971036), (-0.9948164, -0.101686984, -0.000007971624), (-1, 0, 0), (-1, 0, 0), (0, 1, 0), (0, 0.9737662, 0.22755082), (0.05478165, 0.9686866, 0.24216774), (0.04906785, 0.99879545, 0), (-0.04906785, 0.99879545, 0), (-0.05478156, 0.9686865, 0.24216783), (0, 0.9737661, 0.22755143), (0, 1, 0), (-0.99481297, -0.10172106, 0.00008257424), (-0.99482095, -0.10164358, 0.00008251134), (-1, 0, 0), (-1, 0, 0), (0.9987955, 0.049067285, 0), (0.9987955, 0.049067285, 0), (1, 0, 0), (1, 0, 0), (0, -0.99999994, -1.2828328e-7), (0, -0.9872992, 0.1588719), (-0.10615421, -0.95911384, 0.26235816), (-0.0945784, -0.9955174, 0.00014429995), (0, 1, 0), (0, 0.9737662, 0.227551), (0, 0.9737662, 0.22755067), (0, 1, 0), (0, -1, 0), (0, -1, 0), (0, -1, 0), (0, -1, 0), (-1, 0, 0), (-1, 0, 0), (-0.9987955, 0.049067255, 0), (-0.9987955, 0.049067255, 0), (0.1735497, 0.9464905, 0.27209604), (0.19978788, 0.9400696, 0.2763221), (0.05478165, 0.9686866, 0.24216774), (0.040022258, 0.97052777, 0.23764278), (0.2893627, 0.7570361, 0.5858034), (0.3240998, 0.73062104, 0.60095936), (0.19978788, 0.9400696, 0.2763221), (0.1735497, 0.9464905, 0.27209604), (0.4134909, 0.6499844, 0.63760924), (0.43648592, 0.62577575, 0.6464401), (0.3240998, 0.73062104, 0.60095936), (0.2893627, 0.7570361, 0.5858034), (0.5136268, 0.531136, 0.67385614), (0.52722454, 0.5118273, 0.6782825), (0.43648592, 0.62577575, 0.6464401), (0.4134909, 0.6499844, 0.63760924), (0.5918958, 0.4046851, 0.6970576), (0.5985321, 0.39185175, 0.69872147), (0.52722454, 0.5118273, 0.6782825), (0.5136268, 0.531136, 0.67385614), (0.65030915, 0.27267882, 0.70904464), (0.65226364, 0.26726833, 0.7093093), (0.5985321, 0.39185175, 0.69872147), (0.5918958, 0.4046851, 0.6970576), (0.69014364, 0.13579465, 0.7108175), (0.68955165, 0.13846281, 0.7108773), (0.65226364, 0.26726833, 0.7093093), (0.65030915, 0.27267882, 0.70904464), (0.70780116, 0.032667857, 0.705656), (0.70733696, 0.036721174, 0.70592207), (0.68955165, 0.13846281, 0.7108773), (0.69014364, 0.13579465, 0.7108175), (-0.69014347, 0.13579455, 0.7108177), (-0.6895515, 0.13846272, 0.71087754), (-0.7073371, 0.036721155, 0.705922), (-0.7078012, 0.032667838, 0.70565593), (-0.6503088, 0.27267882, 0.709045), (-0.6522633, 0.26726833, 0.70930964), (-0.6895515, 0.13846272, 0.71087754), (-0.69014347, 0.13579455, 0.7108177), (-0.5918955, 0.4046852, 0.69705784), (-0.5985317, 0.39185184, 0.6987216), (-0.6522633, 0.26726833, 0.70930964), (-0.6503088, 0.27267882, 0.709045), (-0.5136272, 0.5311363, 0.67385566), (-0.5272248, 0.51182747, 0.67828214), (-0.5985317, 0.39185184, 0.6987216), (-0.5918955, 0.4046852, 0.69705784), (-0.41349095, 0.64998424, 0.63760936), (-0.43648618, 0.62577575, 0.64643985), (-0.5272248, 0.51182747, 0.67828214), (-0.5136272, 0.5311363, 0.67385566), (-0.28936258, 0.75703585, 0.5858037), (-0.32409957, 0.73062074, 0.60095984), (-0.43648618, 0.62577575, 0.64643985), (-0.41349095, 0.64998424, 0.63760936), (-0.1735495, 0.9464905, 0.27209592), (-0.1997877, 0.9400697, 0.2763221), (-0.32409957, 0.73062074, 0.60095984), (-0.28936258, 0.75703585, 0.5858037), (-0.040022157, 0.97052765, 0.23764312), (-0.05478156, 0.9686865, 0.24216783), (-0.1997877, 0.9400697, 0.2763221), (-0.1735495, 0.9464905, 0.27209592), (0, 0.9737662, 0.22755094), (0, 0.9737662, 0.22755082), (0, 0.9737662, 0.22755067), (0, 0.97376627, 0.2275504), (0, 0.97376627, 0.22755066), (0, 0.9737662, 0.227551), (0, 0.9737661, 0.22755143), (0, 0.9737661, 0.22755149), (0, -0.67791194, 0.7351431), (0, -0.67791194, 0.7351431), (0, -0.6779122, 0.7351429), (0, -0.6779122, 0.735143), (0, -0.67791253, 0.73514265), (0, -0.6779125, 0.7351426), (0, -0.67791265, 0.73514247), (0, -0.67791265, 0.73514247), (0, -0.9872992, 0.1588719), (0, -0.96287006, 0.26996532), (-0.07423341, -0.9656107, 0.24916922), (-0.10615421, -0.95911384, 0.26235816), (0.10615432, -0.9591141, 0.26235756), (0.0945784, -0.9955174, 0.00014436431), (0.37146178, -0.92844814, 0.0004124742), (0.37124163, -0.92853624, 0.00041232732), (0.37124163, -0.92853624, 0.00041232732), (0.37146178, -0.92844814, 0.0004124742), (0.69466144, -0.7193368, 0.00048102354), (0.6946179, -0.71937877, 0.0004810393), (0.6946179, -0.71937877, 0.0004810393), (0.69466144, -0.7193368, 0.00048102354), (0.9190144, -0.394224, 0.0002986942), (0.91904354, -0.39415592, 0.00029864672), (0.91904354, -0.39415592, 0.00029864672), (0.9190144, -0.394224, 0.0002986942), (0.99481297, -0.10172106, 0.000082610364), (0.99482095, -0.10164358, 0.000082547434), (-0.07423341, -0.9656107, 0.24916922), (-0.09448567, -0.9955262, -0.0000139581025), (-0.3713618, -0.92848825, -0.00003990293), (-0.37134054, -0.9284968, -0.000039901566), (-0.37134054, -0.9284968, -0.000039901566), (-0.3713618, -0.92848825, -0.00003990293), (-0.694641, -0.7193566, -0.000046486755), (-0.69463676, -0.71936065, -0.0000464869), (-0.69463676, -0.71936065, -0.0000464869), (-0.694641, -0.7193566, -0.000046486755), (-0.9190274, -0.39419365, -0.00002884666), (-0.9190302, -0.39418712, -0.000028846222), (-0.9190302, -0.39418712, -0.000028846222), (-0.9190274, -0.39419365, -0.00002884666), (-0.9948164, -0.101686984, -0.000007971624), (-0.9948172, -0.1016795, -0.000007971036), (0.09448567, -0.9955262, -0.000013949775), (0.074233465, -0.96561086, 0.24916893), (0.37134057, -0.9284968, -0.000039901566), (0.3713618, -0.92848825, -0.000039902934), (0.3713618, -0.92848825, -0.000039902934), (0.37134057, -0.9284968, -0.000039901566), (0.6946368, -0.71936065, -0.0000464869), (0.69464093, -0.7193566, -0.000046486748), (0.69464093, -0.7193566, -0.000046486748), (0.6946368, -0.71936065, -0.0000464869), (0.9190302, -0.39418712, -0.000028846222), (0.9190274, -0.39419365, -0.00002884666), (0.9190274, -0.39419365, -0.00002884666), (0.9190302, -0.39418712, -0.000028846222), (0.9948172, -0.1016795, -0.000007971036), (0.9948164, -0.101686984, -0.000007971624), (-0.10615421, -0.95911384, 0.26235816), (-0.07423341, -0.9656107, 0.24916922), (-0.25432768, -0.7653128, 0.5912814), (-0.32472476, -0.7112163, 0.6234783), (-0.32472476, -0.7112163, 0.6234783), (-0.25432768, -0.7653128, 0.5912814), (-0.49436966, -0.5402348, 0.68098825), (-0.51608884, -0.51316804, 0.6857921), (-0.51608884, -0.51316804, 0.6857921), (-0.49436966, -0.5402348, 0.68098825), (-0.66567737, -0.2754759, 0.69353205), (-0.6581792, -0.2903639, 0.6946142), (-0.6581792, -0.2903639, 0.6946142), (-0.66567737, -0.2754759, 0.69353205), (-0.75017893, -0.061272345, 0.65838987), (-0.7414753, -0.08938445, 0.6649999), (0.074233465, -0.96561086, 0.24916893), (0.10615432, -0.9591141, 0.26235756), (0.3247249, -0.7112167, 0.6234778), (0.25432792, -0.76531357, 0.5912804), (0.25432792, -0.76531357, 0.5912804), (0.3247249, -0.7112167, 0.6234778), (0.51608896, -0.5131679, 0.685792), (0.49436975, -0.5402348, 0.6809882), (0.49436975, -0.5402348, 0.6809882), (0.51608896, -0.5131679, 0.685792), (0.6581791, -0.29036382, 0.69461435), (0.66567713, -0.27547574, 0.6935322), (0.66567713, -0.27547574, 0.6935322), (0.6581791, -0.29036382, 0.69461435), (0.74147505, -0.089384384, 0.66500026), (0.75017875, -0.061272305, 0.65839016), (-0.0945784, -0.9955174, 0.00014429995), (-0.10615421, -0.95911384, 0.26235816), (-0.37124163, -0.92853624, 0.00041232732), (-0.37146178, -0.92844814, 0.0004124742), (-0.37146178, -0.92844814, 0.0004124742), (-0.37124163, -0.92853624, 0.00041232732), (-0.6946179, -0.71937877, 0.0004810393), (-0.69466144, -0.7193368, 0.00048102354), (-0.69466144, -0.7193368, 0.00048102354), (-0.6946179, -0.71937877, 0.0004810393), (-0.91904354, -0.39415592, 0.00029861002), (-0.9190144, -0.394224, 0.00029865754), (-0.9190144, -0.394224, 0.00029865754), (-0.91904354, -0.39415592, 0.00029861002), (-0.99482095, -0.10164358, 0.00008251134), (-0.99481297, -0.10172106, 0.00008257424), (0.99482095, -0.10164358, 0.000082547434), (0.99481297, -0.10172106, 0.000082610364), (1, 0, 0), (1, 0, 0), (-1.7623906e-7, 0, 1), (0.0000011475842, 0, 1), (1.7115418e-8, 0, 1), (0.0000011475842, 0, 1), (9.751831e-7, 0, 1), (1.7115418e-8, 0, 1), (9.751831e-7, 0, 1), (-0.0000036350195, 0, 1), (1.7115418e-8, 0, 1), (-0.0000036350195, 0, 1), (-0.0000029419955, 0, 1), (1.7115418e-8, 0, 1), (0.0000030406882, 0, 1), (0.000001305316, 0, 1), (7.807454e-8, 0, 1), (0.000001305316, 0, 1), (0, 0, 1), (7.807454e-8, 0, 1), (0, 0, 1), (0, 0, 1), (7.807454e-8, 0, 1), (0, 0, 1), (1.7623911e-7, 0, 1), (7.807454e-8, 0, 1), (2.356441e-7, 0, 1), (-0.0000028760617, 0, 1), (5.260423e-8, 0, 1), (-0.0000028760617, 0, 1), (-0.000002956958, 0, 1), (5.260423e-8, 0, 1), (-0.000002956958, 0, 1), (0.000002006985, 0, 1), (5.260423e-8, 0, 1), (0.000002006985, 0, 1), (0, 0, 1), (5.260423e-8, 0, 1), (-0.0000020995872, 0, 1), (-0.0000020522218, 0, 1), (-1.1518707e-9, 0, 1), (-0.0000020522218, 0, 1), (0.000002272741, 0, 1), (-1.1518707e-9, 0, 1), (0.000002272741, 0, 1), (0.0000014380311, 0, 1), (-1.1518707e-9, 0, 1), (0.0000014380311, 0, 1), (0, 0, 1), (-1.1518707e-9, 0, 1), (0.043365054, -0.99905926, 0), (0.043365054, -0.99905926, 0), (0.14981875, -0.9887135, -4.9946544e-7), (0.14981873, -0.98871344, -4.994654e-7), (0.14981873, -0.98871344, -4.994654e-7), (0.14981875, -0.9887135, -4.9946544e-7), (0.26551595, -0.96410644, -4.9920203e-7), (0.26551595, -0.96410644, -4.992021e-7), (0.26551595, -0.96410644, -4.992021e-7), (0.26551595, -0.96410644, -4.9920203e-7), (0.37749815, -0.9260104, 0), (0.37749815, -0.9260104, 0), (0.37749815, -0.9260104, 0), (0.37749815, -0.9260104, 0), (0.47423893, -0.8803962, -2.8189191e-7), (0.47423893, -0.8803962, -2.8189186e-7), (-0.043365054, -0.99905926, 0), (-0.043365054, -0.99905926, 0), (-0.14981878, -0.9887135, 4.9946544e-7), (-0.14981875, -0.98871344, 4.994654e-7), (-0.14981875, -0.98871344, 4.994654e-7), (-0.14981878, -0.9887135, 4.9946544e-7), (-0.26551607, -0.96410644, 4.9920203e-7), (-0.26551607, -0.96410644, 4.992021e-7), (-0.26551607, -0.96410644, 4.992021e-7), (-0.26551607, -0.96410644, 4.9920203e-7), (-0.37749827, -0.92601025, 0), (-0.3774983, -0.92601025, 0), (-0.3774983, -0.92601025, 0), (-0.37749827, -0.92601025, 0), (-0.47423905, -0.8803961, 2.8189191e-7), (-0.47423896, -0.8803961, 2.8189183e-7), (-0.47423905, -0.8803961, 2.8189191e-7), (-0.47423896, -0.8803961, 2.8189183e-7), (-0.37749818, -0.9260103, 2.4973326e-7), (-0.37749815, -0.9260103, 2.497332e-7), (-0.37749815, -0.9260103, 2.497332e-7), (-0.37749818, -0.9260103, 2.4973326e-7), (-0.26551598, -0.96410644, 6.2400346e-7), (-0.265516, -0.96410644, 6.2400346e-7), (-0.265516, -0.96410644, 6.2400346e-7), (-0.26551598, -0.96410644, 6.2400346e-7), (-0.14981885, -0.98871344, 6.6474985e-7), (-0.14981885, -0.9887135, 6.647499e-7), (-0.14981885, -0.9887135, 6.647499e-7), (-0.14981885, -0.98871344, 6.6474985e-7), (-0.04336503, -0.99905926, 2.8983592e-7), (-0.04336503, -0.99905926, 2.8983592e-7), (0.47423893, -0.8803962, -2.8189191e-7), (0.47423893, -0.8803962, -2.8189186e-7), (0.377498, -0.9260104, -2.4973326e-7), (0.377498, -0.9260104, -2.4973323e-7), (0.377498, -0.9260104, -2.4973323e-7), (0.377498, -0.9260104, -2.4973326e-7), (0.2655159, -0.9641065, -6.240035e-7), (0.26551592, -0.9641065, -6.240035e-7), (0.26551592, -0.9641065, -6.240035e-7), (0.2655159, -0.9641065, -6.240035e-7), (0.14981885, -0.98871344, -6.6474985e-7), (0.14981887, -0.9887135, -6.647499e-7), (0.14981887, -0.9887135, -6.647499e-7), (0.14981885, -0.98871344, -6.6474985e-7), (0.04336507, -0.99905926, -2.8983592e-7), (0.04336507, -0.99905926, -2.8983592e-7), (1.7115418e-8, 0, 1), (-0.0000029419955, 0, 1), (2.356441e-7, 0, 1), (5.260423e-8, 0, 1)] (
                interpolation = "faceVarying"
            )
            point3f[] points = [(-1, -0.5, 0.93960357), (1, -0.5, 0.93960357), (-1, -0.5, 0.8485513), (1, -0.5, 0.8485513), (0.6180072, 0.5, 0.93960357), (-0.6180072, 0.5, 0.93960357), (-0.6180072, 0.5, 0.8485513), (0.6180072, 0.5, 0.8485513), (-0.46069348, 0.5, 0.8485513), (0.46069348, 0.5, 0.8485513), (-0.46069348, 0.5, 0.93960357), (0.46069348, 0.5, 0.93960357), (-0.68090045, 0.5, 0.93960357), (-1, 0.18090048, 0.93960357), (-0.7431537, 0.49386856, 0.93960357), (-0.8030146, 0.47570994, 0.93960357), (-0.85818267, 0.446222, 0.93960357), (-0.9065379, 0.4065379, 0.93960357), (-0.94622207, 0.35818267, 0.93960357), (-0.97571, 0.30301455, 0.93960357), (-0.9938686, 0.24315369, 0.93960357), (1, 0.18090048, 0.93960357), (0.68090045, 0.5, 0.93960357), (0.9938686, 0.24315369, 0.93960357), (0.97571, 0.30301455, 0.93960357), (0.94622207, 0.35818267, 0.93960357), (0.9065379, 0.4065379, 0.93960357), (0.85818267, 0.446222, 0.93960357), (0.8030146, 0.47570994, 0.93960357), (0.7431537, 0.49386856, 0.93960357), (-1, 0.18090048, 0.8485513), (-0.68090045, 0.5, 0.8485513), (-0.9938686, 0.24315369, 0.8485513), (-0.97571, 0.30301455, 0.8485513), (-0.94622207, 0.35818267, 0.8485513), (-0.9065379, 0.4065379, 0.8485513), (-0.85818267, 0.446222, 0.8485513), (-0.8030146, 0.47570994, 0.8485513), (-0.7431537, 0.49386856, 0.8485513), (0.68090045, 0.5, 0.8485513), (1, 0.18090048, 0.8485513), (0.7431537, 0.49386856, 0.8485513), (0.8030146, 0.47570994, 0.8485513), (0.85818267, 0.446222, 0.8485513), (0.9065379, 0.4065379, 0.8485513), (0.94622207, 0.35818267, 0.8485513), (0.97571, 0.30301455, 0.8485513), (0.9938686, 0.24315369, 0.8485513), (-1.0317345, -0.5, 0.87570477), (-1.0317345, -0.5, 0.93960357), (1.0317345, -0.5, 0.93960357), (1.0317345, -0.5, 0.87570477), (0.6376193, 0.52888024, 0.93960357), (0.6376193, 0.52888024, 0.87570477), (-0.63761926, 0.52888024, 0.87570477), (-0.63761926, 0.52888024, 0.93960357), (-0.4753133, 0.52888024, 0.87570477), (0.47531334, 0.52888024, 0.87570477), (-0.4753133, 0.52888024, 0.93960357), (0.47531334, 0.52888024, 0.93960357), (-0.7667372, 0.5225718, 0.87570477), (-0.70250845, 0.52888024, 0.87570477), (-0.8284979, 0.5038886, 0.87570477), (-0.8854166, 0.47354913, 0.87570477), (-0.9353063, 0.43271893, 0.87570477), (-0.97624993, 0.38296717, 0.87570477), (-1.0066736, 0.3262058, 0.87570477), (-1.0254085, 0.26461613, 0.87570477), (-1.0317345, 0.20056504, 0.87570477), (1.0254085, 0.26461613, 0.87570477), (1.0317345, 0.20056504, 0.87570477), (1.0066736, 0.3262058, 0.87570477), (0.97624993, 0.38296717, 0.87570477), (0.9353064, 0.43271893, 0.87570477), (0.8854166, 0.47354913, 0.87570477), (0.8284978, 0.5038886, 0.87570477), (0.7667373, 0.5225718, 0.87570477), (0.70250845, 0.52888024, 0.87570477), (-0.7667372, 0.5225718, 0.93960357), (-0.70250845, 0.52888024, 0.93960357), (-0.8284979, 0.5038886, 0.93960357), (-0.8854166, 0.47354913, 0.93960357), (-0.9353063, 0.43271893, 0.93960357), (-0.97624993, 0.38296717, 0.93960357), (-1.0066736, 0.3262058, 0.93960357), (-1.0254085, 0.26461613, 0.93960357), (-1.0317345, 0.20056504, 0.93960357), (1.0254085, 0.26461613, 0.93960357), (1.0317345, 0.20056504, 0.93960357), (1.0066736, 0.3262058, 0.93960357), (0.97624993, 0.38296717, 0.93960357), (0.9353064, 0.43271893, 0.93960357), (0.8854166, 0.47354913, 0.93960357), (0.8284978, 0.5038886, 0.93960357), (0.7667373, 0.5225718, 0.93960357), (0.70250845, 0.52888024, 0.93960357), (-1.0144136, -0.4873712, 0), (1.0144136, -0.4873712, 0), (-1, -0.4801644, 0.85867614), (1, -0.4801644, 0.85867614), (0.9076043, 0.3158622, 0), (-0.9076043, 0.3158622, 0), (-0.91981006, 0.33167106, 0.85867614), (0.91981006, 0.33167106, 0.85867614), (0.62691486, 0.5072068, 0), (-0.62691486, 0.5072068, 0), (-0.6180072, 0.5, 0.85867614), (0.6180072, 0.5, 0.85867614), (-0.46069348, 0.5, 0.85867614), (0.46069348, 0.5, 0.85867614), (0.49470314, 0.3158622, 0), (-0.4947031, 0.3158622, 0), (-0.46733376, 0.5072068, 0), (0.46733373, 0.5072068, 0), (-0.501356, 0.33167106, 0.85867614), (0.501356, 0.33167106, 0.85867614), (-1.0144136, 0.18350787, 0), (-0.69071466, 0.5072068, 0), (-1.0081939, 0.24665841, 0), (-0.98977345, 0.3073821, 0), (-0.9598605, 0.36334535, 0), (-0.91960436, 0.41239756, 0), (-0.8705522, 0.4526537, 0), (-0.8145889, 0.48256665, 0), (-0.7538652, 0.500987, 0), (0.69071466, 0.5072068, 0), (1.0144136, 0.1835079, 0), (0.7538652, 0.500987, 0), (0.8145889, 0.48256662, 0), (0.8705522, 0.45265368, 0), (0.91960436, 0.41239756, 0), (0.9598605, 0.36334535, 0), (0.98977345, 0.30738208, 0), (1.0081939, 0.24665841, 0), (-1, 0.18090048, 0.85867614), (-0.68090045, 0.5, 0.85867614), (-0.9938686, 0.24315369, 0.85867614), (-0.97571, 0.30301455, 0.85867614), (-0.94622207, 0.35818267, 0.85867614), (-0.9065379, 0.4065379, 0.85867614), (-0.85818267, 0.446222, 0.85867614), (-0.8030146, 0.47570994, 0.85867614), (-0.7431537, 0.49386856, 0.85867614), (0.68090045, 0.5, 0.85867614), (1, 0.18090048, 0.85867614), (0.7431537, 0.49386856, 0.85867614), (0.8030146, 0.47570994, 0.85867614), (0.85818267, 0.446222, 0.85867614), (0.9065379, 0.4065379, 0.85867614), (0.94622207, 0.35818267, 0.85867614), (0.97571, 0.30301455, 0.85867614), (0.9938686, 0.24315369, 0.85867614), (1, -0.4801644, 0.0888859), (-1, -0.4801644, 0.0888859), (0.91981006, 0.33167106, 0.0888859), (0.6180072, 0.5, 0.0888859), (-0.6180072, 0.5, 0.0888859), (-0.91981006, 0.33167106, 0.0888859), (-0.4606935, 0.5, 0.0888859), (0.46069348, 0.5, 0.0888859), (0.50135607, 0.33167106, 0.0888859), (-0.501356, 0.33167106, 0.0888859), (-0.68090045, 0.5, 0.0888859), (-0.7431537, 0.4938686, 0.0888859), (-0.8030146, 0.47570997, 0.0888859), (-0.85818267, 0.44622204, 0.0888859), (-0.9065379, 0.4065379, 0.0888859), (-0.94622207, 0.35818267, 0.0888859), (-0.97571, 0.30301458, 0.0888859), (-0.9938686, 0.24315369, 0.0888859), (-1, 0.18090045, 0.0888859), (1, 0.18090048, 0.0888859), (0.9938686, 0.24315369, 0.0888859), (0.97571, 0.30301455, 0.0888859), (0.94622207, 0.35818267, 0.0888859), (0.9065379, 0.4065379, 0.0888859), (0.85818267, 0.446222, 0.0888859), (0.8030146, 0.47570994, 0.0888859), (0.7431537, 0.49386856, 0.0888859), (0.68090045, 0.5, 0.0888859), (1.0144136, -0.4873712, 0.07430777), (0.62691486, 0.5072068, 0.07430777), (-0.9076043, 0.3158622, 0.07430777), (0.46733373, 0.5072068, 0.07430777), (-0.4947031, 0.3158622, 0.07430777), (-0.69071466, 0.5072068, 0.07430777), (1.0144136, 0.1835079, 0.07430777), (-1.0144136, -0.4873712, 0.07430777), (0.9076043, 0.3158622, 0.07430777), (-0.62691486, 0.5072068, 0.07430777), (-0.46733376, 0.5072068, 0.07430777), (0.49470314, 0.3158622, 0.07430777), (-0.7538652, 0.500987, 0.07430777), (-0.8145889, 0.48256665, 0.07430777), (-0.8705522, 0.4526537, 0.07430777), (-0.91960436, 0.41239756, 0.07430777), (-0.9598605, 0.36334535, 0.07430777), (-0.98977345, 0.3073821, 0.07430777), (-1.0081939, 0.24665841, 0.07430777), (-1.0144136, 0.18350787, 0.07430777), (1.0081939, 0.24665841, 0.07430777), (0.98977345, 0.30738208, 0.07430777), (0.9598605, 0.36334535, 0.07430777), (0.91960436, 0.41239756, 0.07430777), (0.8705522, 0.45265368, 0.07430777), (0.8145889, 0.48256662, 0.07430777), (0.7538652, 0.500987, 0.07430777), (0.69071466, 0.5072068, 0.07430777), (-0.9076043, -0.4315871, 0), (-0.96549875, -0.4873712, 0), (-0.9120112, -0.45293474, 0), (-0.9245612, -0.4710324, 0), (-0.9433435, -0.4831249, 0), (0.96549875, -0.4873712, 0), (0.9076043, -0.4315871, 0), (0.9433435, -0.4831249, 0), (0.9245612, -0.4710324, 0), (0.9120112, -0.45293474, 0), (0.91981006, -0.4243803, 0.85867614), (0.9777045, -0.4801644, 0.85867614), (0.924217, -0.44572794, 0.85867614), (0.936767, -0.46382564, 0.85867614), (0.9555493, -0.4759181, 0.85867614), (-0.9777045, -0.4801644, 0.85867614), (-0.91981006, -0.4243803, 0.85867614), (-0.9555493, -0.4759181, 0.85867614), (-0.936767, -0.46382564, 0.85867614), (-0.924217, -0.44572794, 0.85867614), (-0.977834, -0.4801644, 0.0888859), (-0.91981006, -0.4243353, 0.0888859), (-0.95562917, -0.47591466, 0.0888859), (-0.9368049, -0.46381244, 0.0888859), (-0.9242269, -0.44570017, 0.0888859), (0.91981006, -0.4243353, 0.0888859), (0.977834, -0.4801644, 0.0888859), (0.9242269, -0.44570017, 0.0888859), (0.9368049, -0.46381244, 0.0888859), (0.95562917, -0.47591466, 0.0888859), (-0.9076043, -0.4315421, 0.07430777), (-0.9656282, -0.4873712, 0.07430777), (-0.9120211, -0.45290697, 0.07430777), (-0.9245991, -0.47101924, 0.07430777), (-0.9434234, -0.4831215, 0.07430777), (0.9076043, -0.4315421, 0.07430777), (0.9656282, -0.4873712, 0.07430777), (0.9120211, -0.45290697, 0.07430777), (0.9245991, -0.47101924, 0.07430777), (0.9434234, -0.4831215, 0.07430777), (-0.92374724, -0.5, 0.93960357), (-0.777744, -0.45979056, 0.93960357), (-0.8885564, -0.49693927, 0.93960357), (-0.84845215, -0.48822296, 0.93960357), (-0.80954003, -0.47517806, 0.93960357), (0.777744, -0.45979053, 0.93960357), (0.92374724, -0.5, 0.93960357), (0.80954003, -0.47517803, 0.93960357), (0.84845215, -0.48822293, 0.93960357), (0.8885564, -0.49693924, 0.93960357), (0.92374724, -0.5, 0.8485513), (0.777744, -0.45979056, 0.8485513), (0.8885564, -0.49693927, 0.8485513), (0.84845215, -0.48822296, 0.8485513), (0.80954003, -0.47517806, 0.8485513), (-0.777744, -0.45979053, 0.8485513), (-0.92374724, -0.5, 0.8485513), (-0.80954003, -0.47517803, 0.8485513), (-0.84845215, -0.48822293, 0.8485513), (-0.8885564, -0.49693924, 0.8485513), (0.52815825, -0.31103575, 0.8485513), (0.382155, -0.27082628, 0.8485513), (0.4963622, -0.29564825, 0.8485513), (0.45745006, -0.28260335, 0.8485513), (0.41734582, -0.27388704, 0.8485513), (-0.382155, -0.27082628, 0.8485513), (-0.52815825, -0.31103572, 0.8485513), (-0.41734582, -0.273887, 0.8485513), (-0.45745006, -0.28260332, 0.8485513), (-0.4963622, -0.29564822, 0.8485513), (-0.52815825, -0.31103575, 0.93960357), (-0.382155, -0.27082628, 0.93960357), (-0.4963622, -0.29564825, 0.93960357), (-0.45745006, -0.28260335, 0.93960357), (-0.41734582, -0.27388704, 0.93960357), (0.382155, -0.27082628, 0.93960357), (0.52815825, -0.31103572, 0.93960357), (0.41734582, -0.273887, 0.93960357), (0.45745006, -0.28260332, 0.93960357), (0.4963622, -0.29564822, 0.93960357)]
            texCoord2f[] primvars:st = [(0.83149, 0.28460556), (1.1968602, 0.9326738), (1.2635386, 0.035991237), (0.016027927, 0.98615974), (0.2148748, 0.28460556), (-0.30183372, 0.932674), (1.0448537, 0.98615974), (-0.23395245, 0.035991296), (1.1968602, 0.996853), (0.81686604, 0.0058965534), (0.016027927, 0.9501458), (1.2938418, 0.020832285), (-0.30183372, 0.996853), (1.0448537, 0.9501458), (0.30846116, 0.0058965236), (-0.2039134, 0.020832345), (0.23886587, 0.03599128), (0.33264607, 0.024733692), (0.79072136, 0.035991266), (0.7137187, 0.024733633), (0.71938086, 0.2594376), (0.8209402, 0.020832285), (0.40594628, 0.25943768), (0.26898724, 0.0208323), (0.67948854, 0.2594376), (0.718762, 0.02083227), (0.44583863, 0.25943768), (0.3711655, 0.020832285), (0.6885611, 0.035991266), (0.6652177, 0.024733633), (0.3410261, 0.03599128), (0.3811471, 0.024733692), (0.7331091, 0.024733633), (0.8146357, 0.035991237), (0.83149004, 0.11839041), (1.0048432, 0.035991237), (0.7523023, 0.026533216), (0.8384209, 0.035991237), (0.77075785, 0.031862825), (0.86220485, 0.035991237), (0.78776664, 0.040517658), (0.88598603, 0.035991237), (0.80267483, 0.05216506), (0.9097639, 0.035991237), (0.8149098, 0.06635746), (0.9335379, 0.035991237), (0.8240012, 0.08254954), (0.9573086, 0.035991237), (0.8295996, 0.100118905), (0.98107666, 0.035991237), (0.21487474, 0.11839047), (0.024743572, 0.035991266), (0.3132556, 0.024733692), (0.21495153, 0.03599128), (0.2167651, 0.100119025), (0.04851021, 0.035991266), (0.22236359, 0.08254966), (0.072278276, 0.03599128), (0.23145485, 0.06635758), (0.096048966, 0.03599128), (0.2436898, 0.05216518), (0.11982311, 0.03599128), (0.25859812, 0.040517718), (0.14360096, 0.03599128), (0.27560684, 0.031862885), (0.16738226, 0.03599128), (0.29406244, 0.026533276), (0.19116618, 0.03599128), (0.81628424, 0.17856163), (1.0351002, 0.020832285), (0.7353296, 0.25944468), (0.8448588, 0.020832285), (0.8147224, 0.19434746), (1.0113294, 0.020832285), (0.81011105, 0.20952523), (0.9875571, 0.020832285), (0.80262715, 0.2235117), (0.96378225, 0.020832285), (0.79255843, 0.23576939), (0.94000393, 0.020832285), (0.7802918, 0.24582727), (0.9162219, 0.020832285), (0.7662987, 0.25329882), (0.89243644, 0.020832285), (0.7511169, 0.2578968), (0.86864835, 0.020832285), (0.38999748, 0.25944468), (0.24506865, 0.020832315), (0.30904284, 0.17856169), (0.054827526, 0.020832315), (0.37421027, 0.25789687), (0.22127913, 0.020832315), (0.35902843, 0.25329882), (0.197491, 0.020832285), (0.3450353, 0.24582735), (0.17370556, 0.020832285), (0.33276874, 0.23576945), (0.14992358, 0.0208323), (0.32270002, 0.22351176), (0.12614526, 0.0208323), (0.31521615, 0.20952529), (0.102370456, 0.020832315), (0.3106047, 0.19434746), (0.078598276, 0.020832315), (-0.0075116754, 0.9501458), (2.2299047, 0.9407185), (1.2938418, 0.036703214), (1.2635386, 0.021195933), (-0.0075116754, 0.98615974), (2.2299047, 0.99669796), (1.0683932, 0.98615974), (-1.3234149, 0.9966982), (-0.23395245, 0.021195993), (1.0683932, 0.9501458), (-0.20391335, 0.036703274), (-1.3234149, 0.94071853), (-0.20148855, 0.9966982), (0.23886587, 0.021195978), (-0.20148855, 0.9407185), (0.2689872, 0.03670329), (1.1079834, 0.9407185), (0.8209402, 0.036703274), (1.1079834, 0.9966982), (0.79072136, 0.021195963), (0.8655722, 0.9407185), (0.718762, 0.03670326), (0.04092262, 0.9407185), (0.3711655, 0.036703274), (0.8655722, 0.9966982), (0.6885611, 0.021195963), (0.04092262, 0.9966982), (0.3410261, 0.021195978), (1.2211676, 0.9407185), (0.86864835, 0.036703274), (1.1647285, 0.9407185), (0.8448588, 0.036703274), (1.2776034, 0.9407185), (0.89243644, 0.036703274), (0.9162219, 0.036703274), (1.3340323, 0.9407185), (1.3904536, 0.9407185), (0.94000393, 0.036703274), (1.4468657, 0.9407185), (0.96378225, 0.036703274), (1.5032698, 0.9407185), (0.9875571, 0.036703274), (1.5596673, 0.9407185), (1.0113294, 0.036703274), (1.6160618, 0.9407185), (1.0351002, 0.036703214), (-0.6531739, 0.9407185), (0.078598276, 0.036703303), (0.054827526, 0.036703303), (-0.7095686, 0.9407185), (-0.5967759, 0.9407185), (0.102370456, 0.036703303), (-0.54037166, 0.9407185), (0.12614526, 0.03670329), (0.14992358, 0.03670329), (-0.48395926, 0.9407185), (-0.42753786, 0.9407185), (0.17370556, 0.036703274), (-0.3711086, 0.9407185), (0.197491, 0.036703274), (-0.314673, 0.9407185), (0.22127913, 0.036703303), (0.24506865, 0.036703303), (-0.25823373, 0.9407185), (1.2211676, 0.9966982), (0.8384209, 0.021195933), (0.8146357, 0.021195933), (1.1647285, 0.9966982), (1.2776034, 0.9966982), (0.86220485, 0.021195933), (1.3340323, 0.9966982), (0.88598603, 0.021195933), (1.3904536, 0.9966982), (0.9097639, 0.021195933), (1.4468657, 0.9966982), (0.9335379, 0.021195933), (0.9573086, 0.021195933), (1.5032698, 0.9966982), (0.98107666, 0.021195933), (1.5596673, 0.9966982), (1.0048432, 0.021195933), (1.6160618, 0.9966982), (-0.6531739, 0.9966982), (0.04851021, 0.021195963), (-0.7095686, 0.9966982), (0.024743572, 0.021195963), (-0.5967759, 0.9966982), (0.072278276, 0.021195978), (-0.54037166, 0.9966982), (0.096048966, 0.021195978), (0.11982311, 0.021195978), (-0.48395926, 0.9966982), (0.14360096, 0.021195978), (-0.42753786, 0.9966982), (-0.3711086, 0.9966982), (0.16738226, 0.021195978), (-0.314673, 0.9966982), (0.19116618, 0.021195978), (-0.25823373, 0.9966982), (0.21495153, 0.021195978), (0.85114413, 0.528027), (-1.308984, 0.5280271), (0.31111228, 0.528027), (1.3591654, 0.70897365), (0.9964659, 0.7178613), (-0.37072843, 0.70897406), (0.0027877688, 0.7178613), (0.35290825, 0.528027), (0.8093477, 0.528027), (0.728889, 0.7178613), (0.27036476, 0.7178613), (-0.27071613, 0.5280271), (-0.727156, 0.5280271), (0.7812624, 0.7089738), (0.20717478, 0.70897394), (0.7081954, 0.7089738), (0.28024176, 0.70897394), (0.45673347, 0.528027), (0.7055226, 0.528027), (-0.62333065, 0.5280271), (-0.37454146, 0.5280271), (0.6245895, 0.7178613), (0.3746642, 0.7178613), (-0.94127613, 0.5280271), (-0.73403746, 0.5280271), (-0.90765744, 0.5280271), (-0.8753306, 0.5280271), (-0.8455381, 0.5280271), (-0.7689522, 0.5280271), (-0.7534352, 0.5280271), (-0.7473988, 0.5280271), (-0.7408491, 0.5280271), (-0.2638347, 0.5280271), (-0.056595996, 0.528027), (-0.25702327, 0.5280271), (-0.25047332, 0.5280271), (-0.24443711, 0.5280271), (-0.22892, 0.5280271), (-0.15233417, 0.528027), (-0.12254162, 0.528027), (-0.090214744, 0.528027), (1.0429099, 0.70897377), (0.81047416, 0.7089738), (1.0138555, 0.70897377), (0.98480093, 0.70897377), (0.9557465, 0.70897377), (0.9266921, 0.70897377), (0.8976376, 0.7089738), (0.86858314, 0.7089738), (0.8395287, 0.70897377), (0.17796296, 0.70897394), (-0.05447274, 0.70897406), (0.14890844, 0.70897394), (0.11985397, 0.70897394), (0.0907996, 0.70897394), (0.061745048, 0.70897394), (0.032690585, 0.70897394), (0.0036360621, 0.70897394), (-0.025418218, 0.70897394), (-0.37072843, 0.3561346), (0.0027878284, 0.9276026), (0.766059, 0.81406444), (1.0160589, 0.8140644), (1.3591654, 0.35613436), (0.016058914, 0.81406444), (0.9964659, 0.9276025), (0.2703648, 0.9276025), (0.7854079, 0.81406444), (0.20717478, 0.35613453), (0.49671003, 0.81406444), (0.7812623, 0.3561344), (0.28540787, 0.81406444), (0.728889, 0.9276025), (0.99671006, 0.8140644), (0.7081954, 0.3561344), (0.33347228, 0.8140644), (0.28024173, 0.35613453), (0.44864565, 0.8140644), (0.3746642, 0.9276025), (0.8334723, 0.8140644), (0.6245895, 0.9276025), (0.9486457, 0.8140644), (0.81047416, 0.3561344), (0.28222218, 0.8140644), (0.8395287, 0.3561344), (0.27906886, 0.81406444), (0.8685831, 0.3561344), (0.27603677, 0.8140644), (0.8976376, 0.35613436), (0.27324235, 0.8140644), (0.9266921, 0.3561344), (0.26605895, 0.8140644), (0.9557465, 0.35613436), (0.23060462, 0.8140644), (0.9848009, 0.35613436), (0.21681258, 0.8140644), (1.0138555, 0.35613436), (0.20184737, 0.81406444), (1.0429099, 0.35613436), (0.18628407, 0.8140644), (-0.05447274, 0.3561346), (0.59583384, 0.81406444), (-0.025418337, 0.3561346), (0.5802706, 0.81406444), (0.0036360621, 0.3561346), (0.5653054, 0.8140644), (0.032690585, 0.3561346), (0.55151325, 0.81406444), (0.06174496, 0.3561346), (0.5160589, 0.8140644), (0.09079948, 0.35613453), (0.50887555, 0.8140644), (0.119853884, 0.35613453), (0.5060811, 0.8140644), (0.1489084, 0.35613453), (0.503049, 0.81406444), (0.17796284, 0.35613453), (0.49989575, 0.8140644), (0.31111228, 0.50207597), (0.76605904, 0.82126415), (-0.27071613, 0.5020761), (0.49671003, 0.8212642), (0.99671, 0.8212642), (0.8093477, 0.5020761), (-0.37454146, 0.50207597), (0.44864562, 0.82126415), (0.7055226, 0.50207597), (0.94864565, 0.82126415), (-0.73403746, 0.50207597), (0.28222218, 0.82126415), (-0.056595996, 0.5020761), (0.59583384, 0.82126415), (0.85114413, 0.50207597), (1.0160589, 0.82126415), (0.016058944, 0.8212642), (-1.308984, 0.5020761), (0.35290825, 0.5020761), (0.78540784, 0.8212642), (-0.727156, 0.5020761), (0.28540787, 0.8212642), (-0.62333065, 0.50207597), (0.33347228, 0.82126415), (0.45673347, 0.50207597), (0.8334723, 0.82126415), (-0.7408491, 0.5020761), (0.27906886, 0.8212642), (-0.7473988, 0.50207597), (0.27603677, 0.82126415), (-0.7534352, 0.50207597), (0.27324235, 0.82126415), (-0.7689522, 0.5020761), (0.26605895, 0.8212642), (-0.8455381, 0.50207597), (0.23060462, 0.82126415), (-0.8753306, 0.5020761), (0.21681258, 0.8212642), (-0.90765744, 0.5020761), (0.20184737, 0.8212642), (-0.94127613, 0.50207597), (0.18628407, 0.82126415), (-0.090214744, 0.5020761), (0.5802706, 0.82126415), (-0.12254144, 0.50207597), (0.5653054, 0.82126415), (-0.15233423, 0.5020761), (0.5515132, 0.8212642), (-0.22892, 0.5020761), (0.5160589, 0.8212642), (-0.24443711, 0.50207597), (0.5088755, 0.82126415), (-0.25047332, 0.50207597), (0.5060811, 0.82126415), (-0.25702298, 0.5020761), (0.503049, 0.8212642), (-0.26383448, 0.5020761), (0.49989578, 0.8212642), (0.8093477, 0.528027), (0.8320028, 0.528027), (0.8093476, 0.528027), (0.8093477, 0.528027), (0.82333314, 0.528027), (0.33025336, 0.528027), (0.35290825, 0.528027), (0.33892298, 0.528027), (0.35290825, 0.528027), (0.35290825, 0.528027), (0.059906185, 0.7178613), (0.014461563, 0.7178613), (0.05411566, 0.71825904), (0.0447748, 0.7193919), (0.026061919, 0.7178613), (0.9847921, 0.7178613), (0.9393475, 0.7178613), (0.9731918, 0.7178613), (0.95447886, 0.7193919), (0.94513804, 0.71825904), (0.98485994, 0.9276025), (1.0107105, 0.8140644), (0.93933535, 0.9276025), (0.99671006, 0.8140644), (0.9732336, 0.9276025), (1.0053484, 0.81323063), (0.954479, 0.9276025), (0.99671006, 0.8140644), (0.9451305, 0.9276025), (0.99670994, 0.8129906), (0.05991838, 0.9276025), (0.78540784, 0.81406444), (0.0143938195, 0.9276026), (0.77140737, 0.8140644), (0.054123197, 0.9276025), (0.78540784, 0.81299067), (0.0447748, 0.9276025), (0.78540784, 0.81406444), (0.026020126, 0.9276025), (0.77676946, 0.81323063), (0.99670994, 0.82126415), (0.8093477, 0.5020761), (0.83205354, 0.502076), (1.0072212, 0.82126415), (0.8093477, 0.5020761), (0.99670994, 0.8201905), (0.8093477, 0.5020761), (0.99671006, 0.8155996), (0.8233644, 0.502076), (1.0031142, 0.8204303), (0.78540784, 0.8212642), (0.35290825, 0.5020761), (0.7748966, 0.82126415), (0.3302027, 0.502076), (0.7854079, 0.82019055), (0.35290825, 0.5020761), (0.78540784, 0.8155997), (0.35290825, 0.5020761), (0.7790035, 0.8204303), (0.33889174, 0.502076), (0.80798066, 0.28460556), (1.1431127, 0.9326738), (1.0323954, 0.9326738), (0.76296675, 0.28460556), (0.797131, 0.28460556), (1.1183081, 0.9326738), (0.7847667, 0.28460556), (1.087754, 0.9326738), (0.7727697, 0.28460556), (1.0572, 0.9326738), (0.28339803, 0.28460556), (-0.13736886, 0.932674), (0.23838407, 0.28460556), (-0.24808618, 0.93267405), (0.27359504, 0.28460556), (-0.1621735, 0.93267405), (0.2615981, 0.28460556), (-0.19272752, 0.932674), (0.24923363, 0.28460556), (-0.22328156, 0.93267405), (0.32809287, 0.0058303927), (-0.24808618, 0.996853), (0.3654243, 0.015953386), (-0.1373689, 0.996853), (0.3371501, 0.006577161), (-0.22328156, 0.996853), (0.34745422, 0.008758135), (-0.19272752, 0.996853), (0.3573548, 0.012055502), (-0.1621735, 0.996853), (0.75990295, 0.015953382), (1.0323954, 0.996853), (0.79723436, 0.0058304076), (1.1431127, 0.996853), (0.76797247, 0.012055506), (1.0572, 0.996853), (0.77787304, 0.008758145), (1.087754, 0.996853), (0.7881772, 0.006577176), (1.1183081, 0.996853), (0.42872736, 0.053655367), (0.067430265, 0.996853), (0.4657548, 0.06384648), (0.17814751, 0.996853), (0.43679297, 0.05755388), (0.09223487, 0.996853), (0.44666395, 0.06085713), (0.12278889, 0.996853), (0.45683178, 0.06306934), (0.1533429, 0.996853), (0.65957236, 0.063846454), (0.71687895, 0.996853), (0.69659984, 0.053655345), (0.8275962, 0.996853), (0.6684954, 0.0630693), (0.7416836, 0.99685305), (0.6786633, 0.06085709), (0.7722376, 0.996853), (0.68853414, 0.057553854), (0.80279166, 0.996853), (0.8275962, 0.9326738), (0.6860176, 0.28460556), (0.64100367, 0.28460556), (0.71687895, 0.9326738), (0.67621464, 0.28460556), (0.80279166, 0.9326738), (0.6642177, 0.28460556), (0.7722376, 0.9326738), (0.65185326, 0.28460556), (0.7416836, 0.9326738), (0.40536112, 0.28460556), (0.17814751, 0.932674), (0.36034718, 0.28460556), (0.067430265, 0.932674), (0.39451152, 0.28460556), (0.15334292, 0.93267405), (0.38214707, 0.28460556), (0.12278889, 0.932674), (0.3701502, 0.28460556), (0.09223488, 0.932674)] (
                interpolation = "faceVarying"
            )
            int[] primvars:st:indices = [87, 23, 119, 166, 28, 30, 131, 129, 89, 103, 151, 152, 50, 54, 56, 58, 60, 62, 64, 66, 52, 17, 452, 4, 513, 481, 463, 451, 31, 512, 450, 17, 35, 49, 182, 184, 442, 471, 493, 500, 97, 95, 161, 158, 12, 5, 453, 461, 19, 32, 36, 38, 40, 42, 44, 46, 48, 34, 0, 440, 473, 441, 1, 8, 6, 13, 113, 110, 14, 460, 464, 466, 468, 462, 480, 484, 486, 488, 482, 490, 494, 496, 498, 492, 470, 474, 476, 478, 472, 9, 68, 72, 74, 76, 78, 80, 82, 84, 70, 20, 24, 26, 22, 86, 90, 92, 94, 96, 98, 100, 102, 88, 65, 63, 196, 199, 483, 511, 503, 491, 510, 31, 29, 502, 15, 89, 152, 114, 81, 79, 141, 138, 37, 33, 170, 169, 49, 47, 180, 182, 27, 25, 125, 127, 63, 61, 194, 196, 73, 69, 149, 147, 2, 35, 184, 107, 99, 97, 158, 157, 10, 3, 108, 104, 33, 18, 123, 170, 47, 45, 179, 180, 83, 81, 138, 137, 61, 59, 193, 194, 91, 87, 166, 165, 21, 71, 135, 121, 134, 171, 122, 120, 105, 109, 185, 148, 118, 116, 202, 167, 153, 188, 111, 115, 116, 118, 126, 130, 128, 124, 120, 122, 124, 128, 130, 126, 171, 134, 132, 168, 168, 132, 136, 172, 172, 136, 139, 174, 174, 139, 140, 176, 176, 140, 142, 178, 178, 142, 144, 181, 181, 144, 146, 183, 183, 146, 148, 185, 188, 153, 150, 186, 186, 150, 154, 190, 190, 154, 156, 192, 192, 156, 159, 195, 195, 159, 160, 197, 197, 160, 162, 198, 198, 162, 164, 200, 200, 164, 167, 202, 39, 37, 169, 173, 23, 27, 127, 119, 67, 65, 199, 201, 79, 77, 143, 141, 55, 51, 189, 187, 71, 85, 133, 135, 51, 7, 112, 189, 95, 93, 163, 161, 16, 53, 203, 117, 41, 39, 173, 175, 25, 21, 121, 125, 53, 67, 201, 203, 103, 101, 155, 151, 77, 75, 145, 143, 57, 55, 187, 191, 43, 41, 175, 177, 30, 16, 117, 131, 93, 91, 165, 163, 85, 83, 137, 133, 18, 28, 129, 123, 69, 11, 106, 149, 59, 57, 191, 193, 101, 99, 157, 155, 45, 43, 177, 179, 75, 73, 147, 145, 396, 402, 276, 213, 272, 218, 254, 320, 286, 246, 217, 274, 381, 422, 336, 204, 423, 401, 266, 337, 304, 255, 209, 263, 264, 210, 391, 412, 346, 221, 211, 340, 327, 212, 222, 330, 344, 223, 216, 342, 278, 219, 220, 280, 282, 226, 225, 284, 324, 215, 224, 328, 332, 228, 235, 348, 348, 235, 234, 350, 350, 234, 233, 352, 352, 233, 232, 354, 354, 232, 231, 356, 356, 231, 230, 358, 358, 230, 229, 360, 360, 229, 227, 362, 334, 237, 244, 364, 364, 244, 243, 366, 366, 243, 242, 368, 368, 242, 241, 370, 370, 241, 240, 372, 372, 240, 239, 374, 374, 239, 238, 376, 376, 238, 236, 378, 267, 207, 245, 302, 338, 268, 303, 363, 256, 318, 320, 254, 257, 316, 318, 256, 258, 314, 316, 257, 259, 312, 314, 258, 260, 310, 312, 259, 261, 308, 310, 260, 262, 306, 308, 261, 255, 304, 306, 262, 247, 300, 302, 245, 248, 298, 300, 247, 249, 296, 298, 248, 250, 294, 296, 249, 251, 292, 294, 250, 252, 290, 292, 251, 253, 288, 290, 252, 246, 286, 288, 253, 218, 272, 280, 220, 347, 283, 285, 331, 345, 279, 281, 329, 219, 278, 274, 217, 213, 276, 284, 225, 226, 282, 270, 214, 335, 305, 265, 323, 403, 420, 326, 277, 400, 395, 208, 269, 333, 287, 275, 343, 325, 273, 321, 379, 430, 411, 271, 341, 410, 390, 214, 270, 215, 324, 378, 236, 228, 332, 342, 216, 386, 431, 340, 211, 237, 334, 322, 206, 206, 322, 433, 385, 223, 344, 328, 224, 221, 346, 330, 222, 205, 339, 362, 227, 319, 377, 379, 321, 317, 375, 377, 319, 315, 373, 375, 317, 313, 371, 373, 315, 311, 369, 371, 313, 309, 367, 369, 311, 307, 365, 367, 309, 305, 335, 365, 307, 301, 361, 363, 303, 299, 359, 361, 301, 297, 357, 359, 299, 295, 355, 357, 297, 293, 353, 355, 295, 291, 351, 353, 293, 289, 349, 351, 291, 287, 333, 349, 289, 273, 325, 329, 281, 279, 345, 343, 275, 277, 326, 331, 285, 283, 347, 341, 271, 323, 265, 413, 432, 422, 381, 384, 428, 428, 384, 383, 426, 426, 383, 382, 424, 424, 382, 380, 421, 412, 391, 394, 418, 418, 394, 393, 416, 416, 393, 392, 414, 414, 392, 390, 410, 395, 400, 404, 397, 397, 404, 406, 398, 398, 406, 408, 399, 399, 408, 402, 396, 432, 413, 419, 438, 438, 419, 417, 436, 436, 417, 415, 434, 434, 415, 411, 430, 401, 423, 429, 405, 405, 429, 427, 407, 407, 427, 425, 409, 409, 425, 420, 403, 385, 433, 439, 387, 387, 439, 437, 388, 388, 437, 435, 389, 389, 435, 431, 386, 421, 380, 212, 327, 440, 444, 19, 444, 446, 19, 446, 448, 19, 448, 443, 19, 450, 454, 17, 454, 456, 17, 456, 458, 17, 458, 452, 17, 501, 504, 29, 504, 506, 29, 506, 508, 29, 508, 502, 29, 510, 514, 31, 514, 516, 31, 516, 518, 31, 518, 512, 31, 441, 473, 479, 445, 445, 479, 477, 447, 447, 477, 475, 449, 449, 475, 471, 442, 461, 453, 459, 465, 465, 459, 457, 467, 467, 457, 455, 469, 469, 455, 451, 463, 481, 513, 519, 485, 485, 519, 517, 487, 487, 517, 515, 489, 489, 515, 511, 483, 500, 493, 499, 505, 505, 499, 497, 507, 507, 497, 495, 509, 509, 495, 491, 503, 19, 443, 501, 29]
            uniform token subdivisionScheme = "none"
            uniform token subsetFamily:materialBind:familyType = "nonOverlapping"
            custom string userProperties:blender:data_name = "Cube.093"

            def GeomSubset "MI_Trim_03_Dark" (
                prepend apiSchemas = ["MaterialBindingAPI"]
            )
            {
                uniform token elementType = "face"
                uniform token familyName = "materialBind"
                int[] indices = [0, 1, 2, 4, 6, 7, 8, 9, 11, 12, 13, 14, 15, 17, 18, 19, 20, 21, 22, 23, 24, 25, 26, 27, 28, 29, 30, 31, 32, 33, 34, 35, 36, 37, 38, 39, 40, 41, 42, 43, 44, 45, 46, 47, 48, 49, 50, 51, 52, 53, 54, 55, 56, 57, 58, 59, 60, 61, 62, 63, 64, 65, 66, 67, 68, 69, 70, 71, 72, 73, 74, 75, 76, 77, 78, 79, 80, 81, 87, 92, 132, 133, 136, 140, 174, 175, 176, 177, 178, 179, 180, 181, 211, 212, 213, 214, 215, 216, 217, 218, 219, 220, 221, 222, 223, 224, 225, 226]
                rel material:binding = </root/_materials/MI_Trim_03_Dark>
            }

            def GeomSubset "MI_Trim_03" (
                prepend apiSchemas = ["MaterialBindingAPI"]
            )
            {
                uniform token elementType = "face"
                uniform token familyName = "materialBind"
                int[] indices = [3, 5, 10, 16, 82, 83, 86, 91, 110, 112, 113, 114, 115, 116, 117, 118, 119, 120, 121, 122, 123, 124, 125, 126, 127, 128, 131, 195, 196, 197, 198, 199, 200, 201, 202, 203, 204, 205, 206, 207, 208, 209, 210, 227]
                rel material:binding = </root/_materials/MI_Trim_03>
            }

            def GeomSubset "MI_Trim_01" (
                prepend apiSchemas = ["MaterialBindingAPI"]
            )
            {
                uniform token elementType = "face"
                uniform token familyName = "materialBind"
                int[] indices = [84, 85, 88, 89, 90, 93, 94, 95, 96, 97, 98, 99, 100, 101, 102, 103, 104, 105, 106, 107, 108, 109, 111, 129, 130, 134, 135, 137, 138, 139, 141, 142, 143, 144, 145, 146, 147, 148, 149, 150, 151, 152, 153, 154, 155, 156, 157, 158, 159, 160, 161, 162, 163, 164, 165, 166, 167, 168, 169, 170, 171, 172, 173, 182, 183, 184, 185, 186, 187, 188, 189, 190, 191, 192, 193, 194]
                rel material:binding = </root/_materials/MI_Trim_01>
            }
        }
    }

    def Scope "_materials"
    {
        def Material "MI_Trim_03_Dark"
        {
            token outputs:surface.connect = </root/_materials/MI_Trim_03_Dark/Principled_BSDF.outputs:surface>
            custom string userProperties:blender:data_name = "MI_Trim_03_Dark"

            def Shader "Principled_BSDF"
            {
                uniform token info:id = "UsdPreviewSurface"
                float inputs:clearcoat = 0
                float inputs:clearcoatRoughness = 0.03
                color3f inputs:diffuseColor.connect = </root/_materials/MI_Trim_03_Dark/Image_Texture.outputs:rgb>
                float inputs:ior = 1.5
                float inputs:metallic = 0
                normal3f inputs:normal.connect = </root/_materials/MI_Trim_03_Dark/Image_Texture_001.outputs:rgb>
                float inputs:opacity = 1
                float inputs:roughness = 0.5
                float inputs:specular = 0.5
                token outputs:surface
            }

            def Shader "Image_Texture"
            {
                uniform token info:id = "UsdUVTexture"
                token inputs:sourceColorSpace = "sRGB"
                float2 inputs:st.connect = </root/_materials/MI_Trim_03_Dark/uvmap.outputs:result>
                token inputs:wrapS = "repeat"
                token inputs:wrapT = "repeat"
                float3 outputs:rgb
            }

            def Shader "uvmap"
            {
                uniform token info:id = "UsdPrimvarReader_float2"
                string inputs:varname = "st"
                float2 outputs:result
            }

            def Shader "Image_Texture_001"
            {
                uniform token info:id = "UsdUVTexture"
                float4 inputs:bias = (-1, -1, -1, -1)
                float4 inputs:scale = (2, 2, 2, 2)
                token inputs:sourceColorSpace = "raw"
                float2 inputs:st.connect = </root/_materials/MI_Trim_03_Dark/uvmap.outputs:result>
                token inputs:wrapS = "repeat"
                token inputs:wrapT = "repeat"
                float3 outputs:rgb
            }
        }

        def Material "MI_Trim_03"
        {
            token outputs:surface.connect = </root/_materials/MI_Trim_03/Principled_BSDF.outputs:surface>
            custom string userProperties:blender:data_name = "MI_Trim_03"

            def Shader "Principled_BSDF"
            {
                uniform token info:id = "UsdPreviewSurface"
                float inputs:clearcoat = 0
                float inputs:clearcoatRoughness = 0.03
                color3f inputs:diffuseColor.connect = </root/_materials/MI_Trim_03/Image_Texture.outputs:rgb>
                float inputs:ior = 1.5
                float inputs:metallic = 0
                normal3f inputs:normal.connect = </root/_materials/MI_Trim_03/Image_Texture_001.outputs:rgb>
                float inputs:opacity = 1
                float inputs:roughness = 0.5
                float inputs:specular = 0.5
                token outputs:surface
            }

            def Shader "Image_Texture"
            {
                uniform token info:id = "UsdUVTexture"
                token inputs:sourceColorSpace = "sRGB"
                float2 inputs:st.connect = </root/_materials/MI_Trim_03/uvmap.outputs:result>
                token inputs:wrapS = "repeat"
                token inputs:wrapT = "repeat"
                float3 outputs:rgb
            }

            def Shader "uvmap"
            {
                uniform token info:id = "UsdPrimvarReader_float2"
                string inputs:varname = "st"
                float2 outputs:result
            }

            def Shader "Image_Texture_001"
            {
                uniform token info:id = "UsdUVTexture"
                float4 inputs:bias = (-1, -1, -1, -1)
                float4 inputs:scale = (2, 2, 2, 2)
                token inputs:sourceColorSpace = "raw"
                float2 inputs:st.connect = </root/_materials/MI_Trim_03/uvmap.outputs:result>
                token inputs:wrapS = "repeat"
                token inputs:wrapT = "repeat"
                float3 outputs:rgb
            }
        }

        def Material "MI_Trim_01"
        {
            token outputs:surface.connect = </root/_materials/MI_Trim_01/Principled_BSDF.outputs:surface>
            custom string userProperties:blender:data_name = "MI_Trim_01"

            def Shader "Principled_BSDF"
            {
                uniform token info:id = "UsdPreviewSurface"
                float inputs:clearcoat = 0
                float inputs:clearcoatRoughness = 0.03
                color3f inputs:diffuseColor.connect = </root/_materials/MI_Trim_01/Image_Texture.outputs:rgb>
                float inputs:ior = 1.5
                float inputs:metallic = 0
                normal3f inputs:normal.connect = </root/_materials/MI_Trim_01/Image_Texture_001.outputs:rgb>
                float inputs:opacity = 1
                float inputs:roughness = 0.5
                float inputs:specular = 0.5
                token outputs:surface
            }

            def Shader "Image_Texture"
            {
                uniform token info:id = "UsdUVTexture"
                token inputs:sourceColorSpace = "sRGB"
                float2 inputs:st.connect = </root/_materials/MI_Trim_01/uvmap.outputs:result>
                token inputs:wrapS = "repeat"
                token inputs:wrapT = "repeat"
                float3 outputs:rgb
            }

            def Shader "uvmap"
            {
                uniform token info:id = "UsdPrimvarReader_float2"
                string inputs:varname = "st"
                float2 outputs:result
            }

            def Shader "Image_Texture_001"
            {
                uniform token info:id = "UsdUVTexture"
                float4 inputs:bias = (-1, -1, -1, -1)
                float4 inputs:scale = (2, 2, 2, 2)
                token inputs:sourceColorSpace = "raw"
                float2 inputs:st.connect = </root/_materials/MI_Trim_01/uvmap.outputs:result>
                token inputs:wrapS = "repeat"
                token inputs:wrapT = "repeat"
                float3 outputs:rgb
            }
        }
    }
}

