#usda 1.0
(
    defaultPrim = "root"
    doc = "Blender v5.1.2"
    metersPerUnit = 1
    upAxis = "Y"
)

def Xform "root" (
    customData = {
        dictionary Blender = {
            bool generated = 1
        }
    }
)
{
    float3 xformOp:rotateXYZ = (-90, -0, 0)
    uniform token[] xformOpOrder = ["xformOp:rotateXYZ"]

    def Xform "Floor_Standard_Half"
    {
        custom string userProperties:blender:object_name = "Floor_Standard_Half"

        def Mesh "Cube_041" (
            active = true
            prepend apiSchemas = ["MaterialBindingAPI"]
        )
        {
            uniform bool doubleSided = 1
            float3[] extent = [(-0.99507475, -1.005195, -0.082068846), (1.0010757, 0.9934678, 0.03416345)]
            int[] faceVertexCounts = [3, 4, 4, 4, 4, 4, 3, 4, 4, 4, 4, 4, 4, 4, 5, 4, 4, 4, 5, 3, 4, 4, 4, 4, 5, 4, 4, 5, 4, 4, 3, 4, 5, 4, 4, 4, 4, 4, 5, 3, 4, 4, 5, 4, 4, 4, 4, 4, 4, 4, 4, 4, 4, 4, 4, 5, 4, 4, 3, 4, 4, 4, 4, 4, 4, 4, 4, 4, 4, 4, 4, 4, 4, 4, 4, 4, 4, 4, 4, 5, 4, 4, 5, 4, 4, 3, 4, 5, 4, 4, 4, 4, 4, 5, 4, 4, 5, 4, 4, 5, 4, 4, 3, 4, 5, 4, 4, 4, 4, 4, 5, 4, 4, 3, 4, 4, 5, 4, 5, 4, 4, 4, 4, 3, 4, 4, 4, 4, 4, 4, 4, 4, 4, 4, 4, 4, 5, 4, 4, 3, 4, 5, 4, 4, 4, 4, 4, 4, 3, 4, 4, 4, 4, 4, 4, 4, 4, 4, 4, 4, 4, 4, 4, 4, 4, 4, 4, 3, 4, 4, 4, 4, 4, 4, 4, 4, 4, 4, 4, 4, 4, 4, 4, 4, 4, 4, 4, 4, 5, 4, 4, 5, 4, 4, 3, 4, 5, 4, 4, 4, 4, 4, 5, 4, 4, 4, 4, 4, 4, 4, 4, 4, 4, 4, 4, 4, 4, 4, 4, 4, 4, 5, 4, 4, 4, 4, 5, 4, 4, 5, 4, 4, 3, 4, 5, 4, 4, 4, 4, 4, 5, 4, 4, 3, 4, 4, 4, 4, 4, 4, 4, 4, 3, 4, 4, 5, 4, 4, 4, 4, 4, 4, 4, 4, 4, 4, 4, 4, 3, 4, 4, 4, 4, 4, 3, 4, 4, 4, 4, 4, 4, 4, 5, 4, 4, 4, 5, 3, 4, 4, 4, 4, 5, 4, 4, 5, 4, 4, 3, 4, 5, 4, 4, 4, 4, 4, 5, 4, 4, 3, 4, 4, 5, 4, 5, 4, 4, 4, 4, 3, 4, 4, 4, 4, 4, 4, 4, 4, 4, 5, 4, 4, 5, 4, 4, 3, 4, 5, 4, 4, 4, 4, 4, 5, 3, 4, 4, 5, 4, 4, 4, 4, 4, 4, 4, 4, 4, 4, 4, 4, 5, 4, 4, 3, 4, 4, 4, 4, 4, 4, 4, 4, 4, 4, 4, 4, 4, 4, 4, 4, 4, 4, 4, 4, 5, 4, 4, 5, 4, 4, 3, 4, 5, 4, 4, 4, 4, 4, 5, 4]
            int[] faceVertexIndices = [1, 0, 4, 6, 3, 22, 13, 25, 26, 16, 15, 10, 27, 2, 26, 8, 7, 6, 4, 9, 25, 24, 23, 0, 8, 4, 5, 27, 10, 9, 11, 20, 21, 15, 25, 15, 21, 24, 16, 12, 11, 15, 13, 11, 12, 14, 9, 19, 17, 5, 27, 8, 0, 2, 2, 0, 1, 14, 12, 7, 18, 3, 6, 9, 10, 26, 25, 18, 7, 5, 17, 4, 6, 13, 14, 1, 19, 9, 23, 7, 8, 27, 5, 22, 20, 11, 13, 26, 2, 12, 16, 32, 28, 40, 42, 30, 28, 29, 70, 31, 41, 40, 28, 30, 34, 38, 45, 43, 33, 39, 35, 72, 73, 29, 71, 72, 70, 32, 46, 45, 38, 42, 46, 32, 30, 36, 44, 41, 28, 32, 33, 73, 29, 36, 37, 35, 34, 39, 38, 34, 35, 31, 37, 36, 30, 32, 38, 39, 33, 44, 36, 34, 43, 67, 66, 50, 68, 69, 55, 65, 51, 47, 68, 49, 48, 52, 54, 63, 61, 50, 66, 60, 62, 48, 66, 67, 61, 60, 68, 50, 48, 49, 61, 63, 62, 60, 47, 48, 62, 58, 65, 59, 53, 51, 58, 62, 63, 59, 65, 55, 57, 69, 69, 68, 47, 65, 63, 54, 53, 59, 56, 67, 69, 57, 67, 56, 52, 61, 65, 47, 58, 59, 70, 72, 35, 37, 31, 73, 72, 71, 29, 94, 93, 74, 96, 82, 92, 78, 94, 83, 98, 95, 79, 81, 90, 88, 99, 97, 87, 89, 97, 95, 88, 87, 92, 91, 75, 76, 88, 90, 89, 87, 75, 99, 89, 85, 76, 86, 80, 77, 85, 89, 90, 86, 92, 82, 84, 96, 96, 74, 91, 92, 90, 81, 80, 86, 83, 94, 96, 84, 95, 98, 79, 88, 76, 75, 85, 86, 92, 76, 77, 78, 91, 74, 99, 75, 93, 94, 95, 97, 74, 93, 97, 99, 104, 114, 112, 100, 102, 103, 119, 101, 100, 113, 102, 100, 112, 106, 115, 117, 110, 105, 122, 121, 107, 111, 101, 119, 121, 120, 104, 110, 117, 118, 114, 104, 118, 102, 113, 116, 108, 100, 101, 122, 105, 104, 108, 106, 107, 109, 111, 107, 106, 110, 103, 102, 108, 109, 104, 105, 111, 110, 116, 115, 106, 108, 119, 103, 109, 107, 121, 122, 101, 120, 121, 127, 123, 135, 137, 125, 123, 124, 142, 126, 136, 135, 123, 125, 129, 133, 140, 138, 128, 134, 130, 144, 145, 124, 143, 144, 142, 127, 141, 140, 133, 137, 141, 127, 125, 131, 139, 136, 123, 127, 128, 145, 124, 131, 132, 130, 129, 134, 133, 129, 130, 126, 132, 131, 125, 127, 133, 134, 128, 139, 131, 129, 138, 142, 144, 130, 132, 126, 145, 144, 143, 124, 149, 153, 155, 148, 150, 157, 147, 152, 154, 155, 153, 158, 159, 155, 154, 156, 146, 158, 154, 152, 157, 153, 149, 147, 156, 157, 159, 158, 146, 159, 151, 148, 155, 157, 156, 152, 153, 151, 159, 157, 150, 64, 160, 168, 166, 164, 170, 161, 165, 171, 170, 164, 166, 168, 169, 167, 163, 167, 169, 162, 160, 171, 169, 168, 170, 167, 163, 161, 160, 64, 170, 171, 171, 165, 162, 169, 170, 64, 166, 167, 176, 186, 184, 172, 174, 175, 173, 172, 185, 174, 172, 184, 178, 187, 189, 182, 177, 214, 213, 179, 183, 173, 175, 213, 212, 176, 182, 189, 190, 186, 176, 190, 174, 185, 188, 180, 172, 173, 214, 177, 176, 180, 178, 179, 181, 183, 179, 178, 182, 175, 174, 180, 181, 176, 177, 183, 182, 188, 187, 178, 180, 209, 211, 210, 194, 199, 195, 208, 191, 192, 193, 210, 196, 205, 207, 198, 194, 192, 206, 204, 194, 204, 205, 209, 210, 193, 192, 194, 205, 204, 206, 207, 191, 202, 206, 192, 208, 195, 197, 203, 202, 203, 207, 206, 208, 211, 201, 199, 211, 208, 191, 210, 207, 203, 197, 198, 200, 201, 211, 209, 209, 205, 196, 200, 208, 203, 202, 191, 175, 181, 179, 213, 214, 173, 212, 213, 235, 237, 215, 234, 223, 219, 233, 235, 236, 239, 224, 220, 229, 231, 222, 240, 230, 228, 238, 238, 228, 229, 236, 233, 217, 216, 232, 229, 228, 230, 231, 216, 226, 230, 240, 217, 218, 221, 227, 226, 227, 231, 230, 233, 237, 225, 223, 237, 233, 232, 215, 231, 227, 221, 222, 224, 225, 237, 235, 236, 229, 220, 239, 217, 227, 226, 216, 233, 219, 218, 217, 232, 216, 240, 215, 234, 238, 236, 235, 215, 240, 238, 234, 245, 241, 253, 255, 243, 241, 242, 260, 244, 254, 253, 241, 243, 247, 251, 258, 256, 246, 252, 248, 262, 263, 242, 261, 262, 260, 245, 259, 258, 251, 255, 259, 245, 243, 249, 257, 254, 241, 245, 246, 263, 242, 249, 250, 248, 247, 252, 251, 247, 248, 244, 250, 249, 243, 245, 251, 252, 246, 257, 249, 247, 256, 260, 262, 248, 250, 244, 263, 262, 261, 242, 268, 266, 284, 275, 287, 288, 278, 277, 272, 289, 265, 288, 270, 269, 268, 264, 271, 287, 286, 281, 267, 289, 272, 271, 273, 282, 283, 277, 287, 277, 283, 286, 278, 274, 273, 277, 275, 273, 274, 276, 271, 281, 279, 267, 289, 270, 264, 265, 265, 264, 276, 274, 269, 280, 266, 268, 271, 272, 288, 287, 280, 269, 267, 279, 264, 268, 275, 276, 344, 343, 328, 345, 346, 269, 270, 289, 267, 284, 282, 273, 275, 288, 265, 274, 278, 294, 304, 302, 290, 292, 293, 309, 291, 290, 303, 292, 290, 302, 296, 305, 307, 300, 295, 312, 311, 297, 301, 291, 309, 311, 310, 294, 300, 307, 308, 304, 294, 308, 292, 303, 306, 298, 290, 291, 312, 295, 294, 298, 296, 297, 299, 301, 297, 296, 300, 293, 292, 298, 299, 294, 295, 301, 300, 306, 305, 296, 298, 309, 293, 299, 297, 311, 312, 291, 310, 311, 316, 320, 322, 315, 317, 324, 314, 319, 321, 322, 320, 313, 325, 322, 321, 323, 313, 321, 319, 324, 320, 316, 314, 323, 324, 325, 313, 325, 318, 315, 322, 324, 323, 319, 320, 318, 325, 324, 317, 333, 342, 329, 285, 345, 327, 326, 330, 332, 341, 339, 328, 343, 338, 340, 326, 343, 344, 339, 338, 345, 328, 326, 327, 339, 341, 340, 338, 285, 326, 340, 336, 342, 337, 331, 329, 336, 340, 341, 337, 342, 333, 335, 346, 346, 345, 285, 342, 341, 332, 331, 337, 334, 344, 346, 335, 344, 334, 330, 339, 342, 285, 336, 337, 348, 347, 351, 353, 350, 369, 360, 372, 373, 363, 362, 357, 374, 349, 373, 355, 354, 353, 351, 356, 372, 371, 370, 347, 355, 351, 352, 374, 357, 356, 358, 367, 368, 362, 372, 362, 368, 371, 363, 359, 358, 362, 360, 358, 359, 361, 356, 366, 364, 352, 374, 355, 347, 349, 349, 347, 348, 361, 359, 354, 365, 350, 353, 356, 357, 373, 372, 365, 354, 352, 364, 351, 353, 360, 361, 348, 366, 356, 370, 354, 355, 374, 352, 369, 367, 358, 360, 373, 349, 359, 363, 380, 390, 388, 376, 378, 379, 395, 377, 376, 389, 378, 376, 388, 382, 391, 393, 386, 381, 398, 397, 383, 387, 377, 395, 397, 396, 380, 386, 393, 394, 390, 380, 394, 378, 389, 392, 384, 376, 377, 398, 381, 380, 384, 382, 383, 385, 387, 383, 382, 386, 379, 378, 384, 385, 380, 381, 387, 386, 392, 391, 382, 384, 395, 379, 385, 383, 397, 398, 377, 396, 397, 402, 406, 408, 401, 403, 410, 400, 405, 407, 408, 406, 411, 412, 408, 407, 409, 399, 411, 407, 405, 410, 406, 402, 400, 409, 410, 412, 411, 399, 412, 404, 401, 408, 410, 409, 405, 406, 404, 412, 410, 403, 375, 413, 421, 419, 417, 423, 414, 418, 424, 423, 417, 419, 421, 422, 420, 416, 420, 422, 415, 413, 424, 422, 421, 423, 420, 416, 414, 413, 375, 423, 424, 424, 418, 415, 422, 423, 375, 419, 420, 429, 439, 437, 425, 427, 428, 466, 426, 425, 438, 427, 425, 437, 431, 440, 442, 435, 430, 469, 468, 432, 436, 426, 466, 468, 467, 429, 435, 442, 443, 439, 429, 443, 427, 438, 441, 433, 425, 426, 469, 430, 429, 433, 431, 432, 434, 436, 432, 431, 435, 428, 427, 433, 434, 429, 430, 436, 435, 441, 440, 431, 433, 463, 465, 464, 447, 462, 452, 448, 461, 444, 445, 446, 464, 449, 458, 460, 451, 447, 445, 459, 457, 462, 462, 457, 458, 463, 464, 446, 445, 447, 458, 457, 459, 460, 444, 455, 459, 445, 461, 448, 450, 456, 455, 456, 460, 459, 461, 465, 454, 452, 465, 461, 444, 464, 460, 456, 450, 451, 453, 454, 465, 463, 463, 458, 449, 453, 461, 456, 455, 444, 466, 428, 434, 432, 468, 469, 426, 467, 468, 490, 492, 470, 489, 478, 474, 488, 490, 491, 494, 479, 475, 484, 486, 477, 495, 485, 483, 493, 493, 483, 484, 491, 488, 472, 471, 487, 484, 483, 485, 486, 471, 481, 485, 495, 472, 473, 476, 482, 481, 482, 486, 485, 488, 492, 480, 478, 492, 488, 487, 470, 486, 482, 476, 477, 479, 480, 492, 490, 491, 484, 475, 494, 472, 482, 481, 471, 488, 474, 473, 472, 487, 471, 495, 470, 489, 493, 491, 490, 470, 495, 493, 489, 500, 496, 508, 510, 498, 496, 497, 515, 499, 509, 508, 496, 498, 502, 506, 513, 511, 501, 507, 503, 517, 518, 497, 516, 517, 515, 500, 514, 513, 506, 510, 514, 500, 498, 504, 512, 509, 496, 500, 501, 518, 497, 504, 505, 503, 502, 507, 506, 502, 503, 499, 505, 504, 498, 500, 506, 507, 501, 512, 504, 502, 511, 515, 517, 503, 505, 499, 518, 517, 516, 497]
            rel material:binding = </root/_materials/Main>
            normal3f[] normals = [(0.02110782, 0.6018366, 0.79834026), (0.02110782, 0.6018366, 0.79834026), (0.02110782, 0.6018366, 0.79834026), (0.010728357, 0.99704236, 0.0761021), (0.009364451, 0.9972112, 0.07404179), (0.0083937915, 0.9959102, 0.08995688), (0.0083937915, 0.9959102, 0.08995688), (0.018008275, -0.8727148, 0.48789802), (0.018008275, -0.8727148, 0.48789802), (0.018008275, -0.8727148, 0.48789802), (0.018008275, -0.8727148, 0.48789802), (0, 1.6610086e-7, 1), (1.4891476e-8, 1.6525743e-7, 1), (6.622031e-9, 1.6397163e-7, 1), (0, 1.6440016e-7, 1), (-0.009269376, 0.94292265, 0.33288282), (-0.009269376, 0.94292265, 0.33288282), (-0.009269376, 0.94292265, 0.33288282), (-0.009269376, 0.94292265, 0.33288282), (0.0076151076, -0.99970746, -0.02295964), (0.008755643, -0.9998998, 0.011119874), (0.006957572, -0.99973834, 0.021788666), (0.0076151076, -0.99970746, -0.02295964), (-0.14267129, 0.6188457, 0.7724473), (-0.14267129, 0.6188457, 0.7724473), (-0.14267129, 0.6188457, 0.7724473), (0.9905583, 0.0039793663, 0.13703398), (0.98246795, -0.0012457182, 0.1864274), (0.9830679, -0.00340331, 0.18321021), (0.9904145, -0.0025635376, 0.1381031), (-0.9996509, -0.0043424023, 0.026060449), (-0.99966335, -0.007289456, 0.024900813), (-0.9997254, -0.0043864194, 0.023018643), (-0.9997254, -0.0043864194, 0.023018643), (0.008755643, -0.9998998, 0.011119874), (0.0064297277, -0.99835277, 0.057012383), (0.0064297277, -0.99835277, 0.057012383), (0.006957572, -0.99973834, 0.021788666), (-0.8014492, -0.0632813, 0.5947056), (-0.8014492, -0.0632813, 0.5947056), (-0.8014492, -0.0632813, 0.5947056), (-0.8014492, -0.0632813, 0.5947056), (-0.4513825, 0.043627348, 0.8912634), (-0.4513825, 0.043627348, 0.8912634), (-0.4513825, 0.043627348, 0.8912634), (-0.4513825, 0.043627348, 0.8912634), (0.9904145, -0.0025635376, 0.1381031), (0.99551183, -0.010239001, 0.09408103), (0.99551183, -0.010239001, 0.09408103), (0.9905583, 0.0039793663, 0.13703398), (1.4891476e-8, 1.6525743e-7, 1), (2.9699674e-8, 1.6441874e-7, 1), (9.6536565e-9, 1.6316557e-7, 1), (6.622031e-9, 1.6397163e-7, 1), (6.622031e-9, 1.6397163e-7, 1), (9.6536565e-9, 1.6316557e-7, 1), (-8.049928e-9, 1.6205883e-7, 0.99999994), (-8.049928e-9, 1.6205883e-7, 0.99999994), (-3.8794736e-9, 1.6240753e-7, 1), (0.010269829, 0.99819654, 0.059144367), (0.010269829, 0.99819654, 0.059144367), (0.009364451, 0.9972112, 0.07404179), (0.010728357, 0.99704236, 0.0761021), (-0.12827706, -0.9162284, 0.37956598), (-0.12827706, -0.9162284, 0.37956598), (-0.12827706, -0.9162284, 0.37956598), (-0.12827706, -0.9162284, 0.37956598), (0.99569076, 0.012750812, 0.09185559), (0.9912994, 0.0014064019, 0.13161825), (0.9905583, 0.0039793663, 0.13703398), (0.99569076, 0.012750812, 0.09185559), (0.023222141, 0.8014287, 0.5976394), (0.023222141, 0.8014287, 0.5976394), (0.023222141, 0.8014287, 0.5976394), (0.023222141, 0.8014287, 0.5976394), (0.023222141, 0.8014287, 0.5976394), (0.7322307, -0.662087, -0.15962131), (0.7322307, -0.662087, -0.15962131), (0.7322307, -0.662087, -0.15962131), (0.9912994, 0.0014064019, 0.13161825), (0.98146814, 0.0022356138, 0.19161232), (0.98246795, -0.0012457182, 0.1864274), (0.9905583, 0.0039793663, 0.13703398), (-0.9995926, -0.010075252, 0.026706744), (-0.99966335, -0.007289456, 0.024900813), (-0.9996509, -0.0043424023, 0.026060449), (-0.9995926, -0.010075252, 0.026706744), (0, 1.6440016e-7, 1), (6.622031e-9, 1.6397163e-7, 1), (-3.8794736e-9, 1.6240753e-7, 1), (0, 1.6273188e-7, 1), (-0.0009194866, -0.986416, 0.1642641), (0.005016634, -0.9828783, 0.18418746), (0.005616156, -0.98925906, 0.14606504), (0.005616156, -0.98925906, 0.14606504), (0.0064396714, -0.9757952, 0.21859163), (0.005016634, -0.9828783, 0.18418746), (0.0014495634, -0.9805684, 0.1961725), (0.0064396714, -0.9757952, 0.21859163), (0.0064396714, -0.9757952, 0.21859163), (-0.017291589, -0.989379, 0.14432634), (-0.017291589, -0.989379, 0.14432634), (-0.017291589, -0.989379, 0.14432634), (-0.017291589, -0.989379, 0.14432634), (0.006082006, 0.98105556, 0.1936311), (0.006082006, 0.98105556, 0.1936311), (0.006082006, 0.98105556, 0.1936311), (0.006082006, 0.98105556, 0.1936311), (-0.0009224934, -0.05275353, 0.99860716), (-0.0009224934, -0.05275353, 0.99860716), (-0.0009224934, -0.05275353, 0.99860716), (-0.0009224934, -0.05275353, 0.99860716), (-0.0009224934, -0.05275353, 0.99860716), (0.18787058, -0.66570324, 0.7221799), (0.18787058, -0.66570324, 0.7221799), (0.18787058, -0.66570324, 0.7221799), (0.18787058, -0.66570324, 0.7221799), (0.942562, -0.009822212, 0.33388683), (0.95271486, -0.01899521, 0.30327132), (0.95271486, -0.01899521, 0.30327132), (0.9457381, -0.019547975, 0.3243415), (0.65177584, -0.7513139, 0.10351684), (0.65177584, -0.7513139, 0.10351684), (0.65177584, -0.7513139, 0.10351684), (-0.97135216, -0.00065478677, 0.2376438), (-0.97135216, -0.00065478677, 0.2376438), (-0.97135216, -0.00065478677, 0.2376438), (-0.97135216, -0.00065478677, 0.2376438), (0.005016634, -0.9828783, 0.18418746), (-0.0009194866, -0.986416, 0.1642641), (-0.0007855542, -0.9825311, 0.18609688), (-0.0007855542, -0.9825311, 0.18609688), (0.0014495634, -0.9805684, 0.1961725), (-0.09372341, 0.8019712, 0.5899647), (-0.09372341, 0.8019712, 0.5899647), (-0.09372341, 0.8019712, 0.5899647), (-0.09372341, 0.8019712, 0.5899647), (0.03041097, 0.9164888, 0.39890274), (0.03041097, 0.9164888, 0.39890274), (0.03041097, 0.9164888, 0.39890274), (0.03041097, 0.9164888, 0.39890274), (-0.89122254, -0.01800654, 0.4532087), (-0.89122254, -0.01800654, 0.4532087), (-0.89122254, -0.01800654, 0.4532087), (-0.89122254, -0.01800654, 0.4532087), (0.942562, -0.009822212, 0.33388683), (0.9457381, -0.019547975, 0.3243415), (0.9321695, -0.010288721, 0.36187604), (0.9321695, -0.010288721, 0.36187604), (-0.022755342, 0.97863096, 0.2043614), (-0.022755342, 0.97863096, 0.2043614), (-0.022755342, 0.97863096, 0.2043614), (-0.022755342, 0.97863096, 0.2043614), (0.006015054, 0.9768473, 0.21385309), (0.006015054, 0.9768473, 0.21385309), (0.006015054, 0.9768473, 0.21385309), (-0.0028635326, 0.9718521, 0.23557462), (0.00039137335, 0.9738857, 0.22703792), (0.6469406, 0.7457293, -0.15923439), (0.6469406, 0.7457293, -0.15923439), (0.6469406, 0.7457293, -0.15923439), (-0.081522144, 0.67551863, 0.7328224), (-0.081522144, 0.67551863, 0.7328224), (-0.081522144, 0.67551863, 0.7328224), (-0.081522144, 0.67551863, 0.7328224), (0.017936317, -0.9869914, 0.15976939), (0.013671411, -0.98771447, 0.15567005), (0.009036838, -0.9875141, 0.15727122), (0.017936317, -0.9869914, 0.15976939), (0.002382069, 0.05251088, 0.9986176), (0.002382069, 0.05251088, 0.9986176), (0.002382069, 0.05251088, 0.9986176), (0.002382069, 0.05251088, 0.9986176), (0.002382069, 0.05251088, 0.9986176), (-0.9237599, 0.036918037, 0.38118872), (-0.9237599, 0.036918037, 0.38118872), (-0.9237599, 0.036918037, 0.38118872), (-0.9237599, 0.036918037, 0.38118872), (0.18787155, 0.66570663, 0.72217643), (0.18787155, 0.66570663, 0.72217643), (0.18787155, 0.66570663, 0.72217643), (0.18787155, 0.66570663, 0.72217643), (-0.04872197, -0.8260551, 0.5614793), (-0.04872197, -0.8260551, 0.5614793), (-0.04872197, -0.8260551, 0.5614793), (-0.04872197, -0.8260551, 0.5614793), (-0.002195512, 0.05280287, 0.9986025), (-0.002195512, 0.05280287, 0.9986025), (-0.002195512, 0.05280287, 0.9986025), (-0.002195512, 0.05280287, 0.9986025), (0.99877656, 0.012960109, 0.047723465), (0.99877656, 0.012960109, 0.047723465), (0.99877656, 0.012960109, 0.047723465), (0.99877656, 0.012960109, 0.047723465), (0.06615721, -0.91429174, 0.39961708), (0.06615721, -0.91429174, 0.39961708), (0.06615721, -0.91429174, 0.39961708), (0.06615721, -0.91429174, 0.39961708), (0.008590374, 0.99568605, 0.09238785), (0.008590374, 0.99568605, 0.09238785), (0.008590374, 0.99568605, 0.09238785), (0.008590374, 0.99568605, 0.09238785), (0.00039137335, 0.9738857, 0.22703792), (-0.0028635326, 0.9718521, 0.23557462), (-0.0019074547, 0.96883225, 0.24771021), (-0.0019074547, 0.96883225, 0.24771021), (0.009036838, -0.9875141, 0.15727122), (0.013671411, -0.98771447, 0.15567005), (0.009210066, -0.98843324, 0.1513765), (0.009210066, -0.98843324, 0.1513765), (-0.011927158, 0.9959123, 0.08953475), (-0.011927158, 0.9959123, 0.08953475), (-0.011927158, 0.9959123, 0.08953475), (-0.011927158, 0.9959123, 0.08953475), (-0.99985737, 0.0063815787, -0.015634118), (-0.99985737, 0.0063815787, -0.015634118), (-0.99985737, 0.0063815787, -0.015634118), (-0.99985737, 0.0063815787, -0.015634118), (0.9321696, 0.010288801, 0.36187577), (0.9321696, 0.010288801, 0.36187577), (0.9321696, 0.010288801, 0.36187577), (0.9321696, 0.010288801, 0.36187577), (0.0039496557, -0.053086724, 0.99858207), (0.0039496557, -0.053086724, 0.99858207), (0.0039496557, -0.053086724, 0.99858207), (0.0039496557, -0.053086724, 0.99858207), (0.0039496557, -0.053086724, 0.99858207), (-0.10151435, -0.6742724, 0.73147213), (-0.10151435, -0.6742724, 0.73147213), (-0.10151435, -0.6742724, 0.73147213), (-0.10151435, -0.6742724, 0.73147213), (0.95427126, 0.055991136, 0.29365188), (0.95427126, 0.055991136, 0.29365188), (0.95427126, 0.055991136, 0.29365188), (0.95427126, 0.055991136, 0.29365188), (0.73223156, -0.66208583, -0.15962277), (0.73223156, -0.66208583, -0.15962277), (0.73223156, -0.66208583, -0.15962277), (0.010269798, 0.99819666, 0.05914335), (0.010269798, 0.99819666, 0.05914335), (0.010944736, 0.9972383, 0.07345816), (0.011370097, 0.99718773, 0.07407595), (-0.98659766, -0.018969093, 0.16206565), (-0.9872666, -0.015011749, 0.15836477), (-0.9870616, -0.01071237, 0.15998301), (-0.98659766, -0.018969093, 0.16206565), (0.0148813585, -0.027573615, 0.999509), (0.0148813585, -0.027573615, 0.999509), (0.0148813585, -0.027573615, 0.999509), (0.0148813585, -0.027573615, 0.999509), (0.04892478, 0.8381981, 0.5431669), (0.04892478, 0.8381981, 0.5431669), (0.04892478, 0.8381981, 0.5431669), (0.04892478, 0.8381981, 0.5431669), (0.06700363, -0.8978879, 0.43509528), (0.06700363, -0.8978879, 0.43509528), (0.06700363, -0.8978879, 0.43509528), (0.06700363, -0.8978879, 0.43509528), (-0.83797073, 0.03966152, 0.544272), (-0.83797073, 0.03966152, 0.544272), (-0.83797073, 0.03966152, 0.544272), (-0.83797073, 0.03966152, 0.544272), (0.0154110035, 0.021388657, 0.9996524), (0.0154110035, 0.021388657, 0.9996524), (0.0154110035, 0.021388657, 0.9996524), (0.0154110035, 0.021388657, 0.9996524), (0.008806663, -0.99990946, 0.010173656), (0.0090140635, -0.99839365, 0.05593504), (0.0090140635, -0.99839365, 0.05593504), (0.008403816, -0.99974024, 0.021186609), (-0.9174121, -0.06579956, 0.39246073), (-0.9174121, -0.06579956, 0.39246073), (-0.9174121, -0.06579956, 0.39246073), (-0.9174121, -0.06579956, 0.39246073), (0.9955119, -0.010238638, 0.094081104), (0.9955119, -0.010238638, 0.094081104), (0.9955119, -0.010238638, 0.094081104), (0.9955119, -0.010238638, 0.094081104), (0.9580021, -0.048293874, 0.28266516), (0.9580021, -0.048293874, 0.28266516), (0.9580021, -0.048293874, 0.28266516), (0.9580021, -0.048293874, 0.28266516), (-0.9870616, -0.01071237, 0.15998301), (-0.9872666, -0.015011749, 0.15836477), (-0.98793423, -0.010875162, 0.15449163), (-0.98793423, -0.010875162, 0.15449163), (0.9956907, 0.012750292, 0.09185559), (0.9956907, 0.012750292, 0.09185559), (0.9956907, 0.012750292, 0.09185559), (0.9956907, 0.012750292, 0.09185559), (0.011370097, 0.99718773, 0.07407595), (0.010944736, 0.9972383, 0.07345816), (0.011663993, 0.99598575, 0.088749126), (0.011663993, 0.99598575, 0.088749126), (0.014921457, -0.9248312, 0.3800849), (0.014921457, -0.9248312, 0.3800849), (0.014921457, -0.9248312, 0.3800849), (0.014921457, -0.9248312, 0.3800849), (0.0076146154, -0.99970746, -0.02295495), (0.008806663, -0.99990946, 0.010173656), (0.008403816, -0.99974024, 0.021186609), (0.0076146154, -0.99970746, -0.02295495), (0.008157169, 0.048204973, 0.99880415), (0.008157169, 0.048204973, 0.99880415), (0.008157169, 0.048204973, 0.99880415), (0.008157169, 0.048204973, 0.99880415), (-0.032669067, 0.8975023, 0.43979803), (-0.032669067, 0.8975023, 0.43979803), (-0.032669067, 0.8975023, 0.43979803), (-0.032669067, 0.8975023, 0.43979803), (0.013235517, -0.061305296, 0.9980313), (0.013235517, -0.061305296, 0.9980313), (0.013235517, -0.061305296, 0.9980313), (0.013235517, -0.061305296, 0.9980313), (-0.0014059441, 0.9856097, 0.16903152), (0.006738187, 0.98936695, 0.14528464), (0.006738187, 0.98936695, 0.14528464), (0.0065287505, 0.98267454, 0.18522471), (0.0064398507, 0.9757948, 0.21859324), (0.0064398507, 0.9757948, 0.21859324), (0.0064398507, 0.9757948, 0.21859324), (0.0013309602, 0.97959393, 0.20098233), (0.0065287505, 0.98267454, 0.18522471), (-0.017291399, 0.9893791, 0.14432545), (-0.017291399, 0.9893791, 0.14432545), (-0.017291399, 0.9893791, 0.14432545), (-0.017291399, 0.9893791, 0.14432545), (0.0072761416, -0.98116237, 0.19304764), (0.0072761416, -0.98116237, 0.19304764), (0.0072761416, -0.98116237, 0.19304764), (0.0072761416, -0.98116237, 0.19304764), (-0.0011259005, 0.052759934, 0.9986066), (-0.0011259005, 0.052759934, 0.9986066), (-0.0011259005, 0.052759934, 0.9986066), (-0.0011259005, 0.052759934, 0.9986066), (-0.0011259005, 0.052759934, 0.9986066), (0.18787067, 0.6657029, 0.72218025), (0.18787067, 0.6657029, 0.72218025), (0.18787067, 0.6657029, 0.72218025), (0.18787067, 0.6657029, 0.72218025), (0.99751717, 0.008316645, 0.06993124), (0.99751717, 0.008316645, 0.06993124), (0.99751717, 0.008316645, 0.06993124), (0.99751717, 0.008316645, 0.06993124), (0.65214777, 0.75522995, -0.06581025), (0.65214777, 0.75522995, -0.06581025), (0.65214777, 0.75522995, -0.06581025), (-0.9713522, 0.0006549756, 0.23764378), (-0.9713522, 0.0006549756, 0.23764378), (-0.9713522, 0.0006549756, 0.23764378), (-0.9713522, 0.0006549756, 0.23764378), (0.0065287505, 0.98267454, 0.18522471), (0.0013309602, 0.97959393, 0.20098233), (-0.00095724466, 0.98118407, 0.1930723), (-0.00095724466, 0.98118407, 0.1930723), (-0.0014059441, 0.9856097, 0.16903152), (-0.09372324, -0.8019716, 0.5899641), (-0.09372324, -0.8019716, 0.5899641), (-0.09372324, -0.8019716, 0.5899641), (-0.09372324, -0.8019716, 0.5899641), (0.036579367, -0.91601145, 0.39948088), (0.036579367, -0.91601145, 0.39948088), (0.036579367, -0.91601145, 0.39948088), (0.036579367, -0.91601145, 0.39948088), (-0.89122236, 0.018006533, 0.453209), (-0.89122236, 0.018006533, 0.453209), (-0.89122236, 0.018006533, 0.453209), (-0.89122236, 0.018006533, 0.453209), (0.9263006, 0.011122168, 0.3766211), (0.9263006, 0.011122168, 0.3766211), (0.9263006, 0.011122168, 0.3766211), (0.9263006, 0.011122168, 0.3766211), (-0.02275508, -0.97863114, 0.20436095), (-0.02275508, -0.97863114, 0.20436095), (-0.02275508, -0.97863114, 0.20436095), (-0.02275508, -0.97863114, 0.20436095), (0.0039496827, 0.05308706, 0.9985821), (0.0039496827, 0.05308706, 0.9985821), (0.0039496827, 0.05308706, 0.9985821), (0.0039496827, 0.05308706, 0.9985821), (0.0039496827, 0.05308706, 0.9985821), (-0.10151411, 0.6742717, 0.73147297), (-0.10151411, 0.6742717, 0.73147297), (-0.10151411, 0.6742717, 0.73147297), (-0.10151411, 0.6742717, 0.73147297), (-0.0012322548, -0.98585576, 0.16759098), (0.0066962815, -0.98259664, 0.18563099), (0.00685142, -0.98927563, 0.14589961), (0.00685142, -0.98927563, 0.14589961), (0.0064398553, -0.975795, 0.2185926), (0.0066962815, -0.98259664, 0.18563099), (0.0013120848, -0.979452, 0.20167299), (0.0064398553, -0.975795, 0.2185926), (0.0064398553, -0.975795, 0.2185926), (-0.017291397, -0.9893791, 0.14432627), (-0.017291397, -0.9893791, 0.14432627), (-0.017291397, -0.9893791, 0.14432627), (-0.017291397, -0.9893791, 0.14432627), (0.0073692715, 0.9810347, 0.19369256), (0.0073692715, 0.9810347, 0.19369256), (0.0073692715, 0.9810347, 0.19369256), (0.0073692715, 0.9810347, 0.19369256), (-0.0012644337, -0.054675978, 0.99850345), (-0.0012644337, -0.054675978, 0.99850345), (-0.0012644337, -0.054675978, 0.99850345), (-0.0012644337, -0.054675978, 0.99850345), (-0.0012644337, -0.054675978, 0.99850345), (0.18787064, -0.6657029, 0.7221801), (0.18787064, -0.6657029, 0.7221801), (0.18787064, -0.6657029, 0.7221801), (0.18787064, -0.6657029, 0.7221801), (0.9431593, -0.010319659, 0.33218083), (0.9521342, -0.019336527, 0.30506825), (0.9521342, -0.019336527, 0.30506825), (0.9453441, -0.019890862, 0.32546744), (0.19017366, -0.96298975, 0.19100924), (0.19017366, -0.96298975, 0.19100924), (0.19017366, -0.96298975, 0.19100924), (-0.97135264, -0.0006756289, 0.23764181), (-0.97135264, -0.0006756289, 0.23764181), (-0.97135264, -0.0006756289, 0.23764181), (-0.97135264, -0.0006756289, 0.23764181), (0.0066962815, -0.98259664, 0.18563099), (-0.0012322548, -0.98585576, 0.16759098), (-0.0009845626, -0.9809864, 0.19407411), (-0.0009845626, -0.9809864, 0.19407411), (0.0013120848, -0.979452, 0.20167299), (-0.0937231, 0.80197024, 0.58996576), (-0.0937231, 0.80197024, 0.58996576), (-0.0937231, 0.80197024, 0.58996576), (-0.0937231, 0.80197024, 0.58996576), (0.03754436, 0.9161442, 0.39908656), (0.03754436, 0.9161442, 0.39908656), (0.03754436, 0.9161442, 0.39908656), (0.03754436, 0.9161442, 0.39908656), (-0.8912566, -0.01862935, 0.45311657), (-0.8912566, -0.01862935, 0.45311657), (-0.8912566, -0.01862935, 0.45311657), (-0.8912566, -0.01862935, 0.45311657), (0.9431593, -0.010319659, 0.33218083), (0.9453441, -0.019890862, 0.32546744), (0.93218476, -0.010642021, 0.3618263), (0.93218476, -0.010642021, 0.3618263), (-0.022754857, 0.97863114, 0.20436089), (-0.022754857, 0.97863114, 0.20436089), (-0.022754857, 0.97863114, 0.20436089), (-0.022754857, 0.97863114, 0.20436089), (0.0042840787, -0.055044644, 0.99847466), (0.0042840787, -0.055044644, 0.99847466), (0.0042840787, -0.055044644, 0.99847466), (0.0042840787, -0.055044644, 0.99847466), (0.0042840787, -0.055044644, 0.99847466), (-0.101514, -0.6742702, 0.7314742), (-0.101514, -0.6742702, 0.7314742), (-0.101514, -0.6742702, 0.7314742), (-0.101514, -0.6742702, 0.7314742), (-0.9807304, -0.015638033, 0.19473916), (-0.9807304, -0.015638033, 0.19473916), (-0.9807304, -0.015638033, 0.19473916), (-0.9807304, -0.015638033, 0.19473916), (0.73223126, -0.6620852, -0.15962619), (0.73223126, -0.6620852, -0.15962619), (0.73223126, -0.6620852, -0.15962619), (-0.88809264, -0.015204857, 0.45941302), (-0.88809264, -0.015204857, 0.45941302), (-0.88809264, -0.015204857, 0.45941302), (-0.88809264, -0.015204857, 0.45941302), (0.017851492, 0.9238915, 0.38223794), (0.017851492, 0.9238915, 0.38223794), (0.017851492, 0.9238915, 0.38223794), (0.017851492, 0.9238915, 0.38223794), (0.028534913, -0.00052829, 0.99959266), (0.028534913, -0.00052829, 0.99959266), (0.028534913, -0.00052829, 0.99959266), (0.028534913, -0.00052829, 0.99959266), (0.028534913, -0.00052829, 0.99959266), (0.012435199, -0.9988293, 0.046748556), (0.012435199, -0.9988293, 0.046748556), (0.012435199, -0.9988293, 0.046748556), (0.012435199, -0.9988293, 0.046748556), (0.9548871, -0.02226606, 0.29613304), (0.9548871, -0.02226606, 0.29613304), (0.9548871, -0.02226606, 0.29613304), (0.9548871, -0.02226606, 0.29613304), (0.9548871, -0.02226606, 0.29613304), (0.0165304, 0.99648976, 0.082065806), (0.0165304, 0.99648976, 0.082065806), (0.0165304, 0.99648976, 0.082065806), (0.0165304, 0.99648976, 0.082065806), (0.0059094685, -0.93300784, 0.35980737), (0.0059094685, -0.93300784, 0.35980737), (0.0059094685, -0.93300784, 0.35980737), (0.0059094685, -0.93300784, 0.35980737), (0.990799, -0.001032663, 0.13533708), (0.990799, -0.001032663, 0.13533708), (0.990799, -0.001032663, 0.13533708), (0.990799, -0.001032663, 0.13533708), (-0.00067220663, -0.05650039, 0.99840236), (-0.00067220663, -0.05650039, 0.99840236), (-0.00067220663, -0.05650039, 0.99840236), (-0.00067220663, -0.05650039, 0.99840236), (-0.6469416, -0.7457281, -0.15923592), (-0.6469416, -0.7457281, -0.15923592), (-0.6469416, -0.7457281, -0.15923592), (-0.00070609496, -0.99115217, 0.1327285), (-0.00070609496, -0.99115217, 0.1327285), (-0.00070609496, -0.99115217, 0.1327285), (-0.00070609496, -0.99115217, 0.1327285), (-0.018935567, 0.8789773, 0.4764874), (-0.018935567, 0.8789773, 0.4764874), (-0.018935567, 0.8789773, 0.4764874), (-0.018935567, 0.8789773, 0.4764874), (-0.010872435, 0.9813762, 0.19178797), (-0.010872435, 0.9813762, 0.19178797), (-0.010872435, 0.9813762, 0.19178797), (-0.010872435, 0.9813762, 0.19178797), (0.82435036, -0.053592216, 0.5635373), (0.82435036, -0.053592216, 0.5635373), (0.82435036, -0.053592216, 0.5635373), (0.82435036, -0.053592216, 0.5635373), (-0.9987765, -0.012959988, 0.04772349), (-0.9987765, -0.012959988, 0.04772349), (-0.9987765, -0.012959988, 0.04772349), (-0.9987765, -0.012959988, 0.04772349), (-0.015052116, -0.94469404, 0.3276071), (-0.015052116, -0.94469404, 0.3276071), (-0.015052116, -0.94469404, 0.3276071), (-0.015052116, -0.94469404, 0.3276071), (0.9995908, -0.0040766513, -0.028311564), (0.9995908, -0.0040766513, -0.028311564), (0.9995908, -0.0040766513, -0.028311564), (0.9995908, -0.0040766513, -0.028311564), (-0.93158764, -0.0107285, 0.3633584), (-0.93158764, -0.0107285, 0.3633584), (-0.93158764, -0.0107285, 0.3633584), (-0.93158764, -0.0107285, 0.3633584), (0.0009195132, -0.98641604, 0.16426402), (-0.0056161857, -0.9892588, 0.14606614), (-0.0056161857, -0.9892588, 0.14606614), (-0.004677306, -0.97928584, 0.20242892), (-0.006883029, -0.96601784, 0.25838357), (-0.006883029, -0.96601784, 0.25838357), (-0.001511845, -0.9781563, 0.20786503), (-0.004677306, -0.97928584, 0.20242892), (0.017291553, -0.98937917, 0.14432597), (0.017291553, -0.98937917, 0.14432597), (0.017291553, -0.98937917, 0.14432597), (0.017291553, -0.98937917, 0.14432597), (-0.006081994, 0.98105556, 0.19363104), (-0.006081994, 0.98105556, 0.19363104), (-0.006081994, 0.98105556, 0.19363104), (-0.006081994, 0.98105556, 0.19363104), (0.0009224809, -0.05275352, 0.99860716), (0.0009224809, -0.05275352, 0.99860716), (0.0009224809, -0.05275352, 0.99860716), (0.0009224809, -0.05275352, 0.99860716), (0.0009224809, -0.05275352, 0.99860716), (-0.12079562, -0.67281187, 0.7298854), (-0.12079562, -0.67281187, 0.7298854), (-0.12079562, -0.67281187, 0.7298854), (-0.12079562, -0.67281187, 0.7298854), (-0.9425621, -0.009822128, 0.33388665), (-0.94573796, -0.019548105, 0.32434168), (-0.9527148, -0.01899522, 0.30327135), (-0.9527148, -0.01899522, 0.30327135), (-0.65177655, -0.75131315, 0.10351726), (-0.65177655, -0.75131315, 0.10351726), (-0.65177655, -0.75131315, 0.10351726), (0.97135216, -0.0006549756, 0.2376438), (0.97135216, -0.0006549756, 0.2376438), (0.97135216, -0.0006549756, 0.2376438), (0.97135216, -0.0006549756, 0.2376438), (-0.004677306, -0.97928584, 0.20242892), (-0.001511845, -0.9781563, 0.20786503), (0.0007855543, -0.9825313, 0.18609574), (0.0007855543, -0.9825313, 0.18609574), (0.0009195132, -0.98641604, 0.16426402), (0.09372319, 0.8019712, 0.5899645), (0.09372319, 0.8019712, 0.5899645), (0.09372319, 0.8019712, 0.5899645), (0.09372319, 0.8019712, 0.5899645), (-0.030410971, 0.9164885, 0.39890334), (-0.030410971, 0.9164885, 0.39890334), (-0.030410971, 0.9164885, 0.39890334), (-0.030410971, 0.9164885, 0.39890334), (0.8912225, -0.018006278, 0.45320874), (0.8912225, -0.018006278, 0.45320874), (0.8912225, -0.018006278, 0.45320874), (0.8912225, -0.018006278, 0.45320874), (-0.9425621, -0.009822128, 0.33388665), (-0.9321694, -0.010288725, 0.361876), (-0.9321694, -0.010288725, 0.361876), (-0.94573796, -0.019548105, 0.32434168), (0.022755293, 0.97863114, 0.20436065), (0.022755293, 0.97863114, 0.20436065), (0.022755293, 0.97863114, 0.20436065), (0.022755293, 0.97863114, 0.20436065), (0.0015060045, 0.9582317, 0.2859892), (0.0016255463, 0.96153927, 0.2746626), (0.0011093299, 0.9657491, 0.25947517), (0.0015060045, 0.9582317, 0.2859892), (-0.6469393, 0.7457302, -0.1592357), (-0.6469393, 0.7457302, -0.1592357), (-0.6469393, 0.7457302, -0.1592357), (0.08152208, 0.6755167, 0.73282415), (0.08152208, 0.6755167, 0.73282415), (0.08152208, 0.6755167, 0.73282415), (0.08152208, 0.6755167, 0.73282415), (-0.017972281, -0.9869948, 0.15974447), (-0.017972281, -0.9869948, 0.15974447), (-0.009056605, -0.9875152, 0.15726288), (-0.013689727, -0.98771626, 0.155657), (0.04344119, 0.067810595, 0.99675196), (0.04344119, 0.067810595, 0.99675196), (0.04344119, 0.067810595, 0.99675196), (0.04344119, 0.067810595, 0.99675196), (0.94361806, 0.04455259, 0.32802445), (0.94361806, 0.04455259, 0.32802445), (0.94361806, 0.04455259, 0.32802445), (0.94361806, 0.04455259, 0.32802445), (-0.05868409, 0.6766057, 0.73400337), (-0.05868409, 0.6766057, 0.73400337), (-0.05868409, 0.6766057, 0.73400337), (-0.05868409, 0.6766057, 0.73400337), (0.040553782, -0.85011876, 0.5250273), (0.040553782, -0.85011876, 0.5250273), (0.040553782, -0.85011876, 0.5250273), (0.040553782, -0.85011876, 0.5250273), (0.0021955064, 0.05280285, 0.99860257), (0.0021955064, 0.05280285, 0.99860257), (0.0021955064, 0.05280285, 0.99860257), (0.0021955064, 0.05280285, 0.99860257), (-0.9987765, 0.012960307, 0.04772349), (-0.9987765, 0.012960307, 0.04772349), (-0.9987765, 0.012960307, 0.04772349), (-0.9987765, 0.012960307, 0.04772349), (-0.06615714, -0.9142926, 0.3996153), (-0.06615714, -0.9142926, 0.3996153), (-0.06615714, -0.9142926, 0.3996153), (-0.06615714, -0.9142926, 0.3996153), (-0.008590353, 0.9956862, 0.0923856), (-0.008590353, 0.9956862, 0.0923856), (-0.008590353, 0.9956862, 0.0923856), (-0.008590353, 0.9956862, 0.0923856), (0.0016255463, 0.96153927, 0.2746626), (0.0019074741, 0.9688319, 0.24771234), (0.0019074741, 0.9688319, 0.24771234), (0.0011093299, 0.9657491, 0.25947517), (-0.009056605, -0.9875152, 0.15726288), (-0.009209907, -0.9884333, 0.15137582), (-0.009209907, -0.9884333, 0.15137582), (-0.013689727, -0.98771626, 0.155657), (0.0121659925, 0.99587965, 0.08986441), (0.0121659925, 0.99587965, 0.08986441), (0.0121659925, 0.99587965, 0.08986441), (0.0121659925, 0.99587965, 0.08986441), (0.99986184, 0.014154508, 0.008711357), (0.99986184, 0.014154508, 0.008711357), (0.99986184, 0.014154508, 0.008711357), (0.99986184, 0.014154508, 0.008711357), (-0.93216956, 0.010288656, 0.36187586), (-0.93216956, 0.010288656, 0.36187586), (-0.93216956, 0.010288656, 0.36187586), (-0.93216956, 0.010288656, 0.36187586), (-0.0040137414, -0.0531134, 0.99858046), (-0.0040137414, -0.0531134, 0.99858046), (-0.0040137414, -0.0531134, 0.99858046), (-0.0040137414, -0.0531134, 0.99858046), (0.101514466, -0.67427194, 0.7314726), (0.101514466, -0.67427194, 0.7314726), (0.101514466, -0.67427194, 0.7314726), (0.101514466, -0.67427194, 0.7314726), (-0.98768073, -0.0060112826, 0.15636718), (-0.99109113, -0.00995867, 0.13281241), (-0.9881598, -0.00074251054, 0.15342665), (-0.98768073, -0.0060112826, 0.15636718), (-0.7322268, -0.662091, -0.15962292), (-0.7322268, -0.662091, -0.15962292), (-0.7322268, -0.662091, -0.15962292), (-0.010269938, 0.99819654, 0.059144378), (-0.011024843, 0.9971278, 0.074931294), (-0.0101074455, 0.99724025, 0.07355049), (-0.010269938, 0.99819654, 0.059144378), (0.98659754, -0.018969094, 0.1620657), (0.98659754, -0.018969094, 0.1620657), (0.9870616, -0.010712446, 0.15998323), (0.9872666, -0.015011749, 0.15836479), (-0.012499063, -0.027474636, 0.9995444), (-0.012499063, -0.027474636, 0.9995444), (-0.012499063, -0.027474636, 0.9995444), (-0.012499063, -0.027474636, 0.9995444), (-0.04099968, 0.8390949, 0.5424378), (-0.04099968, 0.8390949, 0.5424378), (-0.04099968, 0.8390949, 0.5424378), (-0.04099968, 0.8390949, 0.5424378), (0.13149975, -0.9308104, 0.34102747), (0.13149975, -0.9308104, 0.34102747), (0.13149975, -0.9308104, 0.34102747), (0.13149975, -0.9308104, 0.34102747), (0.86398035, 0.054177925, 0.5006023), (0.86398035, 0.054177925, 0.5006023), (0.86398035, 0.054177925, 0.5006023), (0.86398035, 0.054177925, 0.5006023), (-0.012506722, 0.022522591, 0.99966806), (-0.012506722, 0.022522591, 0.99966806), (-0.012506722, 0.022522591, 0.99966806), (-0.012506722, 0.022522591, 0.99966806), (-0.008779448, -0.999906, 0.010526892), (-0.0076411697, -0.9997432, 0.021331782), (-0.007651145, -0.9983905, 0.056196347), (-0.007651145, -0.9983905, 0.056196347), (0.9350037, -0.073774, 0.3468798), (0.9350037, -0.073774, 0.3468798), (0.9350037, -0.073774, 0.3468798), (0.9350037, -0.073774, 0.3468798), (-0.99236816, 0.0036328242, 0.12325686), (-0.99109113, -0.00995867, 0.13281241), (-0.9955117, -0.010239638, 0.09408184), (-0.9955117, -0.010239638, 0.09408184), (-0.99109113, -0.00995867, 0.13281241), (-0.99236816, 0.0036328242, 0.12325686), (-0.9884371, 0.0025054552, 0.15161116), (-0.9881598, -0.00074251054, 0.15342665), (0.9870616, -0.010712446, 0.15998323), (0.98793423, -0.010875164, 0.15449163), (0.98793423, -0.010875164, 0.15449163), (0.9872666, -0.015011749, 0.15836479), (-0.9956907, 0.01275121, 0.091855615), (-0.9956907, 0.01275121, 0.091855615), (-0.9956907, 0.01275121, 0.091855615), (-0.9956907, 0.01275121, 0.091855615), (-0.011024843, 0.9971278, 0.074931294), (-0.009931336, 0.9959875, 0.088940285), (-0.009931336, 0.9959875, 0.088940285), (-0.0101074455, 0.99724025, 0.07355049), (-0.022803098, -0.90052015, 0.43421593), (-0.022803098, -0.90052015, 0.43421593), (-0.022803098, -0.90052015, 0.43421593), (-0.022803098, -0.90052015, 0.43421593), (-0.0076151113, -0.99970746, -0.02295842), (-0.0076151113, -0.99970746, -0.02295842), (-0.0076411697, -0.9997432, 0.021331782), (-0.008779448, -0.999906, 0.010526892), (-0.016935864, 0.04661754, 0.9987692), (-0.016935864, 0.04661754, 0.9987692), (-0.016935864, 0.04661754, 0.9987692), (-0.016935864, 0.04661754, 0.9987692), (0.1050348, 0.92708725, 0.3598292), (0.1050348, 0.92708725, 0.3598292), (0.1050348, 0.92708725, 0.3598292), (0.1050348, 0.92708725, 0.3598292), (-0.016448207, -0.058832895, 0.9981323), (-0.016448207, -0.058832895, 0.9981323), (-0.016448207, -0.058832895, 0.9981323), (-0.016448207, -0.058832895, 0.9981323), (0.0016026869, 0.9851932, 0.17143995), (-0.008124761, 0.9822688, 0.18730164), (-0.008164343, 0.9893028, 0.14564753), (-0.008164343, 0.9893028, 0.14564753), (-0.0064397785, 0.9757948, 0.21859343), (-0.008124761, 0.9822688, 0.18730164), (-0.0011581461, 0.9781617, 0.20784205), (-0.0064397785, 0.9757948, 0.21859343), (-0.0064397785, 0.9757948, 0.21859343), (0.017291563, 0.9893791, 0.14432578), (0.017291563, 0.9893791, 0.14432578), (0.017291563, 0.9893791, 0.14432578), (0.017291563, 0.9893791, 0.14432578), (-0.008838596, -0.98115695, 0.1930102), (-0.008838596, -0.98115695, 0.1930102), (-0.008838596, -0.98115695, 0.1930102), (-0.008838596, -0.98115695, 0.1930102), (0.0014198681, 0.052768685, 0.99860567), (0.0014198681, 0.052768685, 0.99860567), (0.0014198681, 0.052768685, 0.99860567), (0.0014198681, 0.052768685, 0.99860567), (0.0014198681, 0.052768685, 0.99860567), (-0.18787116, 0.6657045, 0.7221786), (-0.18787116, 0.6657045, 0.7221786), (-0.18787116, 0.6657045, 0.7221786), (-0.18787116, 0.6657045, 0.7221786), (-0.99620605, 0.007696539, 0.08668452), (-0.99620605, 0.007696539, 0.08668452), (-0.99620605, 0.007696539, 0.08668452), (-0.99620605, 0.007696539, 0.08668452), (-0.88126326, 0.47262576, -0.00022368786), (-0.88126326, 0.47262576, -0.00022368786), (-0.88126326, 0.47262576, -0.00022368786), (0.9713522, 0.0006549124, 0.23764338), (0.9713522, 0.0006549124, 0.23764338), (0.9713522, 0.0006549124, 0.23764338), (0.9713522, 0.0006549124, 0.23764338), (-0.008124761, 0.9822688, 0.18730164), (0.0016026869, 0.9851932, 0.17143995), (0.0012073339, 0.97917444, 0.2030169), (0.0012073339, 0.97917444, 0.2030169), (-0.0011581461, 0.9781617, 0.20784205), (0.093723156, -0.801971, 0.58996475), (0.093723156, -0.801971, 0.58996475), (0.093723156, -0.801971, 0.58996475), (0.093723156, -0.801971, 0.58996475), (-0.045280855, -0.9156703, 0.3993715), (-0.045280855, -0.9156703, 0.3993715), (-0.045280855, -0.9156703, 0.3993715), (-0.045280855, -0.9156703, 0.3993715), (0.89122206, 0.018006526, 0.4532098), (0.89122206, 0.018006526, 0.4532098), (0.89122206, 0.018006526, 0.4532098), (0.89122206, 0.018006526, 0.4532098), (-0.9309457, 0.010465426, 0.36500758), (-0.9309457, 0.010465426, 0.36500758), (-0.9309457, 0.010465426, 0.36500758), (-0.9309457, 0.010465426, 0.36500758), (0.02275471, -0.9786311, 0.20436108), (0.02275471, -0.9786311, 0.20436108), (0.02275471, -0.9786311, 0.20436108), (0.02275471, -0.9786311, 0.20436108), (-0.003949681, 0.053087015, 0.99858207), (-0.003949681, 0.053087015, 0.99858207), (-0.003949681, 0.053087015, 0.99858207), (-0.003949681, 0.053087015, 0.99858207), (-0.003949681, 0.053087015, 0.99858207), (0.10151428, 0.6742724, 0.73147213), (0.10151428, 0.6742724, 0.73147213), (0.10151428, 0.6742724, 0.73147213), (0.10151428, 0.6742724, 0.73147213), (-0.011350439, -0.997138, 0.074744985), (-0.010836068, -0.9972001, 0.073991105), (-0.011438798, -0.9958897, 0.08984905), (-0.011438798, -0.9958897, 0.08984905), (-0.025141533, 0.8730019, 0.4870682), (-0.025141533, 0.8730019, 0.4870682), (-0.025141533, 0.8730019, 0.4870682), (-0.025141533, 0.8730019, 0.4870682), (2.6423528e-8, 1.645602e-7, 1), (2.6423528e-8, 1.645602e-7, 1), (1.4285601e-8, 1.6350454e-7, 1), (1.2641855e-8, 1.6336159e-7, 1), (0.009269381, -0.9429228, 0.33288231), (0.009269381, -0.9429228, 0.33288231), (0.009269381, -0.9429228, 0.33288231), (0.009269381, -0.9429228, 0.33288231), (-0.06387772, 0.99108046, -0.11695784), (-0.06387772, 0.99108046, -0.11695784), (-0.06387772, 0.99108046, -0.11695784), (-0.06387772, 0.99108046, -0.11695784), (-0.9619376, 0.038771436, 0.27050474), (-0.9619376, 0.038771436, 0.27050474), (-0.9619376, 0.038771436, 0.27050474), (-0.9619376, 0.038771436, 0.27050474), (0.99957114, -0.0003775625, 0.029279254), (0.9996186, 0.0059684343, 0.026960408), (0.9998265, -0.00021227893, 0.018627403), (0.9998265, -0.00021227893, 0.018627403), (-0.0087923715, 0.99834275, 0.056872204), (-0.0087923715, 0.99834275, 0.056872204), (-0.0087923715, 0.99834275, 0.056872204), (-0.0087923715, 0.99834275, 0.056872204), (0.74705064, 0.06691195, 0.661391), (0.74705064, 0.06691195, 0.661391), (0.74705064, 0.06691195, 0.661391), (0.74705064, 0.06691195, 0.661391), (0.41216755, -0.042066947, 0.9101364), (0.41216755, -0.042066947, 0.9101364), (0.41216755, -0.042066947, 0.9101364), (0.41216755, -0.042066947, 0.9101364), (-0.9991977, 0.022726063, 0.03297531), (-0.9991977, 0.022726063, 0.03297531), (-0.9991977, 0.022726063, 0.03297531), (-0.9991977, 0.022726063, 0.03297531), (0.119707786, -0.05882833, 0.9910647), (0.119707786, -0.05882833, 0.9910647), (0.119707786, -0.05882833, 0.9910647), (0.119707786, -0.05882833, 0.9910647), (-0.021765707, -0.065745525, 0.99759907), (-0.021765707, -0.065745525, 0.99759907), (-0.021765707, -0.065745525, 0.99759907), (-0.021765707, -0.065745525, 0.99759907), (-0.01026995, -0.99819666, 0.059144866), (-0.01026995, -0.99819666, 0.059144866), (-0.010836068, -0.9972001, 0.073991105), (-0.011350439, -0.997138, 0.074744985), (0.06631328, 0.8939589, 0.44321546), (0.06631328, 0.8939589, 0.44321546), (0.06631328, 0.8939589, 0.44321546), (0.06631328, 0.8939589, 0.44321546), (-0.99569064, -0.012750572, 0.091856025), (-0.99129957, -0.0014059995, 0.13161775), (-0.9885828, -0.013966331, 0.15002994), (-0.99569064, -0.012750572, 0.091856025), (-0.033416044, -0.841714, 0.5388885), (-0.033416044, -0.841714, 0.5388885), (-0.033416044, -0.841714, 0.5388885), (-0.033416044, -0.841714, 0.5388885), (0.0072365194, 0.9757895, 0.21859215), (0.0072365194, 0.9757895, 0.21859215), (0.0072365194, 0.9757895, 0.21859215), (-0.0029345548, 0.9717308, 0.23607366), (0.00030142692, 0.9729092, 0.23118745), (-0.99129957, -0.0014059995, 0.13161775), (-0.98146814, -0.0022355234, 0.19161192), (-0.98146814, -0.0022355234, 0.19161192), (-0.9885828, -0.013966331, 0.15002994), (0.9993182, 0.011898449, 0.0349535), (0.9996186, 0.0059684343, 0.026960408), (0.99957114, -0.0003775625, 0.029279254), (0.9993182, 0.011898449, 0.0349535), (1.2641855e-8, 1.6336159e-7, 1), (1.4285601e-8, 1.6350454e-7, 1), (0, 1.6226208e-7, 0.99999994), (0, 1.6226208e-7, 0.99999994), (0.0012322615, -0.98585576, 0.16759162), (-0.0068513956, -0.9892756, 0.14590028), (-0.0068513956, -0.9892756, 0.14590028), (-0.006696858, -0.98259646, 0.18563208), (-0.0064401003, -0.9757947, 0.21859391), (-0.0064401003, -0.9757947, 0.21859391), (-0.0064401003, -0.9757947, 0.21859391), (-0.0013121316, -0.9794519, 0.20167364), (-0.006696858, -0.98259646, 0.18563208), (0.017291287, -0.98937905, 0.14432591), (0.017291287, -0.98937905, 0.14432591), (0.017291287, -0.98937905, 0.14432591), (0.017291287, -0.98937905, 0.14432591), (-0.0073692654, 0.98103476, 0.19369225), (-0.0073692654, 0.98103476, 0.19369225), (-0.0073692654, 0.98103476, 0.19369225), (-0.0073692654, 0.98103476, 0.19369225), (0.0012644457, -0.054675944, 0.9985033), (0.0012644457, -0.054675944, 0.9985033), (0.0012644457, -0.054675944, 0.9985033), (0.0012644457, -0.054675944, 0.9985033), (0.0012644457, -0.054675944, 0.9985033), (-0.18787108, -0.6657045, 0.7221786), (-0.18787108, -0.6657045, 0.7221786), (-0.18787108, -0.6657045, 0.7221786), (-0.18787108, -0.6657045, 0.7221786), (-0.9431592, -0.010319604, 0.3321807), (-0.94535345, -0.019928347, 0.3254377), (-0.9521342, -0.019336496, 0.30506808), (-0.9521342, -0.019336496, 0.30506808), (-0.19017433, -0.9629904, 0.19100595), (-0.19017433, -0.9629904, 0.19100595), (-0.19017433, -0.9629904, 0.19100595), (0.9713525, -0.00067586044, 0.23764214), (0.9713525, -0.00067586044, 0.23764214), (0.9713525, -0.00067586044, 0.23764214), (0.9713525, -0.00067586044, 0.23764214), (-0.006696858, -0.98259646, 0.18563208), (-0.0013121316, -0.9794519, 0.20167364), (0.0009846049, -0.9809863, 0.19407445), (0.0009846049, -0.9809863, 0.19407445), (0.0012322615, -0.98585576, 0.16759162), (0.09372335, 0.8019713, 0.5899644), (0.09372335, 0.8019713, 0.5899644), (0.09372335, 0.8019713, 0.5899644), (0.09372335, 0.8019713, 0.5899644), (-0.037544418, 0.91614485, 0.39908537), (-0.037544418, 0.91614485, 0.39908537), (-0.037544418, 0.91614485, 0.39908537), (-0.037544418, 0.91614485, 0.39908537), (0.89125645, -0.018629426, 0.45311677), (0.89125645, -0.018629426, 0.45311677), (0.89125645, -0.018629426, 0.45311677), (0.89125645, -0.018629426, 0.45311677), (-0.9431592, -0.010319604, 0.3321807), (-0.9321848, -0.010641918, 0.3618263), (-0.9321848, -0.010641918, 0.3618263), (-0.94535345, -0.019928347, 0.3254377), (0.022754898, 0.9786311, 0.20436095), (0.022754898, 0.9786311, 0.20436095), (0.022754898, 0.9786311, 0.20436095), (0.022754898, 0.9786311, 0.20436095), (-0.004284074, -0.055044662, 0.9984747), (-0.004284074, -0.055044662, 0.9984747), (-0.004284074, -0.055044662, 0.9984747), (-0.004284074, -0.055044662, 0.9984747), (-0.004284074, -0.055044662, 0.9984747), (0.10151433, -0.6742724, 0.73147225), (0.10151433, -0.6742724, 0.73147225), (0.10151433, -0.6742724, 0.73147225), (0.10151433, -0.6742724, 0.73147225), (0.9807274, 0.015843686, 0.19473776), (0.9807274, 0.015843686, 0.19473776), (0.9807274, 0.015843686, 0.19473776), (0.9807274, 0.015843686, 0.19473776), (-0.04258107, 0.9269785, -0.37268963), (-0.04258107, 0.9269785, -0.37268963), (-0.04258107, 0.9269785, -0.37268963), (0.8880884, 0.015426137, 0.45941392), (0.8880884, 0.015426137, 0.45941392), (0.8880884, 0.015426137, 0.45941392), (0.8880884, 0.015426137, 0.45941392), (-0.009073919, -0.9231822, 0.3842556), (-0.009073919, -0.9231822, 0.3842556), (-0.009073919, -0.9231822, 0.3842556), (-0.009073919, -0.9231822, 0.3842556), (-0.013518954, 0.00001825105, 0.9999086), (-0.013518954, 0.00001825105, 0.9999086), (-0.013518954, 0.00001825105, 0.9999086), (-0.013518954, 0.00001825105, 0.9999086), (-0.008024759, 0.9997335, 0.021645555), (-0.008024759, 0.9997335, 0.021645555), (-0.008024759, 0.9997335, 0.021645555), (-0.008024759, 0.9997335, 0.021645555), (-0.9652143, 0.0075100265, 0.26135203), (-0.9652143, 0.0075100265, 0.26135203), (-0.9652143, 0.0075100265, 0.26135203), (-0.9652143, 0.0075100265, 0.26135203), (-0.00868204, -0.99658495, 0.08211656), (-0.00868204, -0.99658495, 0.08211656), (-0.00868204, -0.99658495, 0.08211656), (-0.00868204, -0.99658495, 0.08211656), (-0.002919187, 0.9329808, 0.35991436), (-0.002919187, 0.9329808, 0.35991436), (-0.002919187, 0.9329808, 0.35991436), (-0.002919187, 0.9329808, 0.35991436), (-0.99997646, 0.00006521315, -0.006871589), (-0.99997646, 0.00006521315, -0.006871589), (-0.99997646, 0.00006521315, -0.006871589), (-0.99997646, 0.00006521315, -0.006871589), (0.69002396, 0.70782995, -0.15114139), (0.69002396, 0.70782995, -0.15114139), (0.69002396, 0.70782995, -0.15114139), (-0.091527544, 0.67492783, 0.7321852), (-0.091527544, 0.67492783, 0.7321852), (-0.091527544, 0.67492783, 0.7321852), (-0.091527544, 0.67492783, 0.7321852), (0.02046148, -0.9870948, 0.1588242), (0.015508465, -0.9877647, 0.15517835), (0.010280894, -0.9874923, 0.15733162), (0.02046148, -0.9870948, 0.1588242), (0.0028904974, 0.052513503, 0.99861604), (0.0028904974, 0.052513503, 0.99861604), (0.0028904974, 0.052513503, 0.99861604), (0.0028904974, 0.052513503, 0.99861604), (0.0028904974, 0.052513503, 0.99861604), (-0.91181237, 0.03765719, 0.40887657), (-0.91181237, 0.03765719, 0.40887657), (-0.91181237, 0.03765719, 0.40887657), (-0.91181237, 0.03765719, 0.40887657), (0.2101415, 0.6626396, 0.71885276), (0.2101415, 0.6626396, 0.71885276), (0.2101415, 0.6626396, 0.71885276), (0.2101415, 0.6626396, 0.71885276), (-0.05826876, -0.8228195, 0.56530774), (-0.05826876, -0.8228195, 0.56530774), (-0.05826876, -0.8228195, 0.56530774), (-0.05826876, -0.8228195, 0.56530774), (-0.0024671222, 0.05280283, 0.9986019), (-0.0024671222, 0.05280283, 0.9986019), (-0.0024671222, 0.05280283, 0.9986019), (-0.0024671222, 0.05280283, 0.9986019), (0.99903065, 0.011536216, 0.042480767), (0.99903065, 0.011536216, 0.042480767), (0.99903065, 0.011536216, 0.042480767), (0.99903065, 0.011536216, 0.042480767), (0.074298896, -0.91376734, 0.39938578), (0.074298896, -0.91376734, 0.39938578), (0.074298896, -0.91376734, 0.39938578), (0.074298896, -0.91376734, 0.39938578), (0.009653031, 0.9956766, 0.09238535), (0.009653031, 0.9956766, 0.09238535), (0.009653031, 0.9956766, 0.09238535), (0.009653031, 0.9956766, 0.09238535), (0.00030142692, 0.9729092, 0.23118745), (-0.0029345548, 0.9717308, 0.23607366), (-0.002143498, 0.96883124, 0.24771236), (-0.002143498, 0.96883124, 0.24771236), (0.010280894, -0.9874923, 0.15733162), (0.015508465, -0.9877647, 0.15517835), (0.010349192, -0.98842216, 0.15137482), (0.010349192, -0.98842216, 0.15137482), (-0.013748914, 0.9958479, 0.08998771), (-0.013748914, 0.9958479, 0.08998771), (-0.013748914, 0.9958479, 0.08998771), (-0.013748914, 0.9958479, 0.08998771), (-0.9968476, 0.01490616, 0.07792678), (-0.9968476, 0.01490616, 0.07792678), (-0.9968476, 0.01490616, 0.07792678), (-0.9968476, 0.01490616, 0.07792678), (0.9451452, 0.009283435, 0.3265185), (0.9451452, 0.009283435, 0.3265185), (0.9451452, 0.009283435, 0.3265185), (0.9451452, 0.009283435, 0.3265185), (-0.021107849, -0.6018359, 0.7983408), (-0.021107849, -0.6018359, 0.7983408), (-0.021107849, -0.6018359, 0.7983408), (-0.010794361, -0.9970442, 0.076067775), (-0.00937971, -0.9972131, 0.07401388), (-0.008424768, -0.9959154, 0.08989829), (-0.008424768, -0.9959154, 0.08989829), (-0.01803444, 0.8726781, 0.4879629), (-0.01803444, 0.8726781, 0.4879629), (-0.01803444, 0.8726781, 0.4879629), (-0.01803444, 0.8726781, 0.4879629), (0, 1.5917551e-7, 1), (-1.4891496e-8, 1.6180454e-7, 1), (-7.4984445e-9, 1.6384872e-7, 1), (0, 1.6097073e-7, 1), (0.009269301, -0.942923, 0.33288184), (0.009269301, -0.942923, 0.33288184), (0.009269301, -0.942923, 0.33288184), (0.009269301, -0.942923, 0.33288184), (-0.0076161055, 0.99970746, -0.022959659), (-0.008788968, 0.9998996, 0.011109735), (-0.006969016, 0.9997374, 0.021828672), (-0.0076161055, 0.99970746, -0.022959659), (0.142671, -0.6188429, 0.7724496), (0.142671, -0.6188429, 0.7724496), (0.142671, -0.6188429, 0.7724496), (-0.9905583, -0.003979322, 0.13703403), (-0.9824679, 0.0012458334, 0.18642744), (-0.9830679, 0.0034035053, 0.18321022), (-0.9904145, 0.0025635231, 0.1381031), (0.9995765, -0.00038496894, 0.029095259), (0.9996237, 0.0059608645, 0.026776318), (0.9998302, -0.00023152347, 0.018424781), (0.9998302, -0.00023152347, 0.018424781), (-0.008788968, 0.9998996, 0.011109735), (-0.0064493683, 0.99834865, 0.057083823), (-0.0064493683, 0.99834865, 0.057083823), (-0.006969016, 0.9997374, 0.021828672), (0.8180898, 0.056845758, 0.572274), (0.8180898, 0.056845758, 0.572274), (0.8180898, 0.056845758, 0.572274), (0.8180898, 0.056845758, 0.572274), (0.47696614, -0.044559553, 0.87779135), (0.47696614, -0.044559553, 0.87779135), (0.47696614, -0.044559553, 0.87779135), (0.47696614, -0.044559553, 0.87779135), (-0.9904145, 0.0025635231, 0.1381031), (-0.99551183, 0.010238812, 0.094081044), (-0.99551183, 0.010238812, 0.094081044), (-0.9905583, -0.003979322, 0.13703403), (-1.4891496e-8, 1.6180454e-7, 1), (-2.9699713e-8, 1.6441884e-7, 1), (-1.1788915e-8, 1.6742716e-7, 1), (-7.4984445e-9, 1.6384872e-7, 1), (-7.4984445e-9, 1.6384872e-7, 1), (-1.1788915e-8, 1.6742716e-7, 1), (4.028954e-9, 1.7008396e-7, 1), (4.028954e-9, 1.7008396e-7, 1), (1.9416597e-9, 1.6627496e-7, 1), (-0.010270398, -0.99819654, 0.059145216), (-0.010270398, -0.99819654, 0.059145216), (-0.00937971, -0.9972131, 0.07401388), (-0.010794361, -0.9970442, 0.076067775), (0.12827645, 0.9162275, 0.37956846), (0.12827645, 0.9162275, 0.37956846), (0.12827645, 0.9162275, 0.37956846), (0.12827645, 0.9162275, 0.37956846), (-0.9956907, -0.0127505595, 0.09185562), (-0.9912995, -0.0014062431, 0.13161837), (-0.9905583, -0.003979322, 0.13703403), (-0.9956907, -0.0127505595, 0.09185562), (-0.023307988, -0.80097413, 0.5982451), (-0.023307988, -0.80097413, 0.5982451), (-0.023307988, -0.80097413, 0.5982451), (-0.023307988, -0.80097413, 0.5982451), (-0.023307988, -0.80097413, 0.5982451), (-0.7322276, 0.66208935, -0.15962605), (-0.7322276, 0.66208935, -0.15962605), (-0.7322276, 0.66208935, -0.15962605), (-0.9912995, -0.0014062431, 0.13161837), (-0.9814682, -0.0022356147, 0.19161247), (-0.9824679, 0.0012458334, 0.18642744), (-0.9905583, -0.003979322, 0.13703403), (0.99932384, 0.011902093, 0.034787215), (0.9996237, 0.0059608645, 0.026776318), (0.9995765, -0.00038496894, 0.029095259), (0.99932384, 0.011902093, 0.034787215), (0, 1.6097073e-7, 1), (-7.4984445e-9, 1.6384872e-7, 1), (1.9416597e-9, 1.6627496e-7, 1), (0, 1.6273172e-7, 0.99999994), (0.0012321931, -0.98585564, 0.16759218), (-0.0068514193, -0.9892755, 0.14590089), (-0.0068514193, -0.9892755, 0.14590089), (-0.006696481, -0.9825966, 0.18563192), (-0.006439239, -0.97579485, 0.21859291), (-0.006439239, -0.97579485, 0.21859291), (-0.006439239, -0.97579485, 0.21859291), (-0.0013119535, -0.9794519, 0.20167367), (-0.006696481, -0.9825966, 0.18563192), (0.017291961, -0.9893788, 0.14432767), (0.017291961, -0.9893788, 0.14432767), (0.017291961, -0.9893788, 0.14432767), (0.017291961, -0.9893788, 0.14432767), (-0.0073691257, 0.9810345, 0.19369285), (-0.0073691257, 0.9810345, 0.19369285), (-0.0073691257, 0.9810345, 0.19369285), (-0.0073691257, 0.9810345, 0.19369285), (0.0012644352, -0.054675978, 0.9985034), (0.0012644352, -0.054675978, 0.9985034), (0.0012644352, -0.054675978, 0.9985034), (0.0012644352, -0.054675978, 0.9985034), (0.0012644352, -0.054675978, 0.9985034), (-0.18787114, -0.6657047, 0.7221785), (-0.18787114, -0.6657047, 0.7221785), (-0.18787114, -0.6657047, 0.7221785), (-0.18787114, -0.6657047, 0.7221785), (-0.9431592, -0.010319694, 0.3321808), (-0.9453534, -0.019928435, 0.32543775), (-0.9521342, -0.019336574, 0.30506825), (-0.9521342, -0.019336574, 0.30506825), (-0.19017737, -0.96299, 0.19100475), (-0.19017737, -0.96299, 0.19100475), (-0.19017737, -0.96299, 0.19100475), (0.97135264, -0.0006755606, 0.23764186), (0.97135264, -0.0006755606, 0.23764186), (0.97135264, -0.0006755606, 0.23764186), (0.97135264, -0.0006755606, 0.23764186), (-0.006696481, -0.9825966, 0.18563192), (-0.0013119535, -0.9794519, 0.20167367), (0.0009844777, -0.9809862, 0.19407494), (0.0009844777, -0.9809862, 0.19407494), (0.0012321931, -0.98585564, 0.16759218), (0.093723014, 0.80197155, 0.5899641), (0.093723014, 0.80197155, 0.5899641), (0.093723014, 0.80197155, 0.5899641), (0.093723014, 0.80197155, 0.5899641), (-0.037544373, 0.9161445, 0.3990859), (-0.037544373, 0.9161445, 0.3990859), (-0.037544373, 0.9161445, 0.3990859), (-0.037544373, 0.9161445, 0.3990859), (0.8912565, -0.01862935, 0.4531165), (0.8912565, -0.01862935, 0.4531165), (0.8912565, -0.01862935, 0.4531165), (0.8912565, -0.01862935, 0.4531165), (-0.9431592, -0.010319694, 0.3321808), (-0.9321848, -0.010642022, 0.3618262), (-0.9321848, -0.010642022, 0.3618262), (-0.9453534, -0.019928435, 0.32543775), (0.02275412, 0.97863114, 0.20436086), (0.02275412, 0.97863114, 0.20436086), (0.02275412, 0.97863114, 0.20436086), (0.02275412, 0.97863114, 0.20436086), (-0.004284064, -0.055044636, 0.9984747), (-0.004284064, -0.055044636, 0.9984747), (-0.004284064, -0.055044636, 0.9984747), (-0.004284064, -0.055044636, 0.9984747), (-0.004284064, -0.055044636, 0.9984747), (0.10151417, -0.67427135, 0.73147327), (0.10151417, -0.67427135, 0.73147327), (0.10151417, -0.67427135, 0.73147327), (0.10151417, -0.67427135, 0.73147327), (0.98071766, 0.016501637, 0.19473195), (0.98071766, 0.016501637, 0.19473195), (0.98071766, 0.016501637, 0.19473195), (0.98071766, 0.016501637, 0.19473195), (-0.7322288, 0.6620886, -0.15962344), (-0.7322288, 0.6620886, -0.15962344), (-0.7322288, 0.6620886, -0.15962344), (0.8880761, 0.016138114, 0.459413), (0.8880761, 0.016138114, 0.459413), (0.8880761, 0.016138114, 0.459413), (0.8880761, 0.016138114, 0.459413), (-0.017851511, -0.92389166, 0.38223758), (-0.017851511, -0.92389166, 0.38223758), (-0.017851511, -0.92389166, 0.38223758), (-0.017851511, -0.92389166, 0.38223758), (-0.02857631, 0.0005645231, 0.9995914), (-0.02857631, 0.0005645231, 0.9995914), (-0.02857631, 0.0005645231, 0.9995914), (-0.02857631, 0.0005645231, 0.9995914), (-0.02857631, 0.0005645231, 0.9995914), (-0.012435169, 0.9988293, 0.04674761), (-0.012435169, 0.9988293, 0.04674761), (-0.012435169, 0.9988293, 0.04674761), (-0.012435169, 0.9988293, 0.04674761), (-0.9533493, 0.023582524, 0.30094665), (-0.9533493, 0.023582524, 0.30094665), (-0.9533493, 0.023582524, 0.30094665), (-0.9533493, 0.023582524, 0.30094665), (-0.9533493, 0.023582524, 0.30094665), (-0.016530447, -0.99648976, 0.08206529), (-0.016530447, -0.99648976, 0.08206529), (-0.016530447, -0.99648976, 0.08206529), (-0.016530447, -0.99648976, 0.08206529), (-0.0059093577, 0.93300754, 0.35980824), (-0.0059093577, 0.93300754, 0.35980824), (-0.0059093577, 0.93300754, 0.35980824), (-0.0059093577, 0.93300754, 0.35980824), (-0.9908007, 0.0010927428, 0.13532494), (-0.9908007, 0.0010927428, 0.13532494), (-0.9908007, 0.0010927428, 0.13532494), (-0.9908007, 0.0010927428, 0.13532494), (0.0006290208, 0.056501, 0.99840236), (0.0006290208, 0.056501, 0.99840236), (0.0006290208, 0.056501, 0.99840236), (0.0006290208, 0.056501, 0.99840236), (0.6469425, 0.7457284, -0.15923114), (0.6469425, 0.7457284, -0.15923114), (0.6469425, 0.7457284, -0.15923114), (0.00068058725, 0.9911533, 0.13271983), (0.00068058725, 0.9911533, 0.13271983), (0.00068058725, 0.9911533, 0.13271983), (0.00068058725, 0.9911533, 0.13271983), (0.018045528, -0.87805617, 0.4782173), (0.018045528, -0.87805617, 0.4782173), (0.018045528, -0.87805617, 0.4782173), (0.018045528, -0.87805617, 0.4782173), (0.0104786465, -0.98138005, 0.1917901), (0.0104786465, -0.98138005, 0.1917901), (0.0104786465, -0.98138005, 0.1917901), (0.0104786465, -0.98138005, 0.1917901), (-0.9224499, 0.037684005, 0.3842735), (-0.9224499, 0.037684005, 0.3842735), (-0.9224499, 0.037684005, 0.3842735), (-0.9224499, 0.037684005, 0.3842735), (0.99877656, 0.012960055, 0.047723476), (0.99877656, 0.012960055, 0.047723476), (0.99877656, 0.012960055, 0.047723476), (0.99877656, 0.012960055, 0.047723476), (0.0143283205, 0.9442292, 0.3289771), (0.0143283205, 0.9442292, 0.3289771), (0.0143283205, 0.9442292, 0.3289771), (0.0143283205, 0.9442292, 0.3289771), (-0.99985737, 0.0063819215, -0.01563412), (-0.99985737, 0.0063819215, -0.01563412), (-0.99985737, 0.0063819215, -0.01563412), (-0.99985737, 0.0063819215, -0.01563412), (0.9315877, 0.010728895, 0.3633583), (0.9315877, 0.010728895, 0.3633583), (0.9315877, 0.010728895, 0.3633583), (0.9315877, 0.010728895, 0.3633583), (-0.00091951387, 0.98641616, 0.16426346), (0.005616186, 0.9892589, 0.1460665), (0.005616186, 0.9892589, 0.1460665), (0.005017196, 0.98287797, 0.18418948), (0.0064398567, 0.9757942, 0.21859585), (0.0064398567, 0.9757942, 0.21859585), (0.0064398567, 0.9757942, 0.21859585), (0.0014496165, 0.98056847, 0.19617182), (0.005017196, 0.98287797, 0.18418948), (-0.017291393, 0.98937935, 0.14432414), (-0.017291393, 0.98937935, 0.14432414), (-0.017291393, 0.98937935, 0.14432414), (-0.017291393, 0.98937935, 0.14432414), (0.00608199, -0.98105556, 0.19363092), (0.00608199, -0.98105556, 0.19363092), (0.00608199, -0.98105556, 0.19363092), (0.00608199, -0.98105556, 0.19363092), (-0.00092249515, 0.05275385, 0.9986071), (-0.00092249515, 0.05275385, 0.9986071), (-0.00092249515, 0.05275385, 0.9986071), (-0.00092249515, 0.05275385, 0.9986071), (-0.00092249515, 0.05275385, 0.9986071), (0.18787059, 0.6657033, 0.7221799), (0.18787059, 0.6657033, 0.7221799), (0.18787059, 0.6657033, 0.7221799), (0.18787059, 0.6657033, 0.7221799), (0.9425621, 0.009822232, 0.3338867), (0.94573796, 0.019548206, 0.32434174), (0.9527148, 0.01899531, 0.30327138), (0.9527148, 0.01899531, 0.30327138), (0.65177727, 0.7513123, 0.10351893), (0.65177727, 0.7513123, 0.10351893), (0.65177727, 0.7513123, 0.10351893), (-0.9713522, 0.0006549756, 0.2376438), (-0.9713522, 0.0006549756, 0.2376438), (-0.9713522, 0.0006549756, 0.2376438), (-0.9713522, 0.0006549756, 0.2376438), (0.005017196, 0.98287797, 0.18418948), (0.0014496165, 0.98056847, 0.19617182), (-0.0007855549, 0.9825316, 0.18609402), (-0.0007855549, 0.9825316, 0.18609402), (-0.00091951387, 0.98641616, 0.16426346), (-0.09372297, -0.8019714, 0.58996433), (-0.09372297, -0.8019714, 0.58996433), (-0.09372297, -0.8019714, 0.58996433), (-0.09372297, -0.8019714, 0.58996433), (0.030410975, -0.9164882, 0.39890432), (0.030410975, -0.9164882, 0.39890432), (0.030410975, -0.9164882, 0.39890432), (0.030410975, -0.9164882, 0.39890432), (-0.89122254, 0.018006796, 0.4532087), (-0.89122254, 0.018006796, 0.4532087), (-0.89122254, 0.018006796, 0.4532087), (-0.89122254, 0.018006796, 0.4532087), (0.9425621, 0.009822232, 0.3338867), (0.93216944, 0.010288844, 0.36187613), (0.93216944, 0.010288844, 0.36187613), (0.94573796, 0.019548206, 0.32434174), (-0.022755215, -0.97863114, 0.20436089), (-0.022755215, -0.97863114, 0.20436089), (-0.022755215, -0.97863114, 0.20436089), (-0.022755215, -0.97863114, 0.20436089), (0.005972072, -0.9768128, 0.214012), (0.00039782605, -0.97386664, 0.22712044), (-0.002877294, -0.9718395, 0.2356266), (0.005972072, -0.9768128, 0.214012), (0.005972072, -0.9768128, 0.214012), (0.6469322, -0.74573654, -0.15923513), (0.6469322, -0.74573654, -0.15923513), (0.6469322, -0.74573654, -0.15923513), (-0.08152182, -0.6755176, 0.73282343), (-0.08152182, -0.6755176, 0.73282343), (-0.08152182, -0.6755176, 0.73282343), (-0.08152182, -0.6755176, 0.73282343), (0.017613295, 0.98699623, 0.15977609), (0.017613295, 0.98699623, 0.15977609), (0.009001299, 0.9875256, 0.1572009), (0.013506056, 0.98771626, 0.15567291), (0.002382043, -0.05251048, 0.99861753), (0.002382043, -0.05251048, 0.99861753), (0.002382043, -0.05251048, 0.99861753), (0.002382043, -0.05251048, 0.99861753), (0.002382043, -0.05251048, 0.99861753), (-0.90526724, -0.041064285, 0.42285326), (-0.90526724, -0.041064285, 0.42285326), (-0.90526724, -0.041064285, 0.42285326), (-0.90526724, -0.041064285, 0.42285326), (0.18787086, -0.665705, 0.7221783), (0.18787086, -0.665705, 0.7221783), (0.18787086, -0.665705, 0.7221783), (0.18787086, -0.665705, 0.7221783), (-0.0482789, 0.8251748, 0.56281054), (-0.0482789, 0.8251748, 0.56281054), (-0.0482789, 0.8251748, 0.56281054), (-0.0482789, 0.8251748, 0.56281054), (-0.0021955068, -0.05280254, 0.9986026), (-0.0021955068, -0.05280254, 0.9986026), (-0.0021955068, -0.05280254, 0.9986026), (-0.0021955068, -0.05280254, 0.9986026), (0.9987765, -0.0129603045, 0.047723487), (0.9987765, -0.0129603045, 0.047723487), (0.9987765, -0.0129603045, 0.047723487), (0.9987765, -0.0129603045, 0.047723487), (0.0661569, 0.91429234, 0.3996157), (0.0661569, 0.91429234, 0.3996157), (0.0661569, 0.91429234, 0.3996157), (0.0661569, 0.91429234, 0.3996157), (0.0085903425, -0.9956862, 0.092385285), (0.0085903425, -0.9956862, 0.092385285), (0.0085903425, -0.9956862, 0.092385285), (0.0085903425, -0.9956862, 0.092385285), (0.00039782605, -0.97386664, 0.22712044), (-0.0019074309, -0.9688316, 0.24771336), (-0.0019074309, -0.9688316, 0.24771336), (-0.002877294, -0.9718395, 0.2356266), (0.009001299, 0.9875256, 0.1572009), (0.009209909, 0.9884333, 0.15137582), (0.009209909, 0.9884333, 0.15137582), (0.013506056, 0.98771626, 0.15567291), (-0.01171876, -0.9959149, 0.08953345), (-0.01171876, -0.9959149, 0.08953345), (-0.01171876, -0.9959149, 0.08953345), (-0.01171876, -0.9959149, 0.08953345), (-0.9998575, -0.0063809208, -0.015633672), (-0.9998575, -0.0063809208, -0.015633672), (-0.9998575, -0.0063809208, -0.015633672), (-0.9998575, -0.0063809208, -0.015633672), (0.9321695, -0.010288937, 0.3618758), (0.9321695, -0.010288937, 0.3618758), (0.9321695, -0.010288937, 0.3618758), (0.9321695, -0.010288937, 0.3618758), (0.0039496534, 0.053087, 0.99858207), (0.0039496534, 0.053087, 0.99858207), (0.0039496534, 0.053087, 0.99858207), (0.0039496534, 0.053087, 0.99858207), (0.0039496534, 0.053087, 0.99858207), (-0.10151429, 0.6742721, 0.7314724), (-0.10151429, 0.6742721, 0.7314724), (-0.10151429, 0.6742721, 0.7314724), (-0.10151429, 0.6742721, 0.7314724), (0.9876807, 0.0060095987, 0.15636718), (0.99109113, 0.009957821, 0.1328124), (0.9881598, 0.00074195745, 0.15342665), (0.9876807, 0.0060095987, 0.15636718), (0.7322292, 0.6620884, -0.15962225), (0.7322292, 0.6620884, -0.15962225), (0.7322292, 0.6620884, -0.15962225), (0.010269832, -0.99819654, 0.05914458), (0.011024756, -0.9971278, 0.07493149), (0.010107399, -0.99724025, 0.07355077), (0.010269832, -0.99819654, 0.05914458), (-0.98659754, 0.018969148, 0.1620657), (-0.98659754, 0.018969148, 0.1620657), (-0.9870616, 0.010712496, 0.15998323), (-0.9872666, 0.015011801, 0.15836479), (0.012499067, 0.02747497, 0.9995444), (0.012499067, 0.02747497, 0.9995444), (0.012499067, 0.02747497, 0.9995444), (0.012499067, 0.02747497, 0.9995444), (0.04099963, -0.83909464, 0.5424382), (0.04099963, -0.83909464, 0.5424382), (0.04099963, -0.83909464, 0.5424382), (0.04099963, -0.83909464, 0.5424382), (-0.13149953, 0.93080986, 0.34102914), (-0.13149953, 0.93080986, 0.34102914), (-0.13149953, 0.93080986, 0.34102914), (-0.13149953, 0.93080986, 0.34102914), (-0.8639804, -0.05417775, 0.5006021), (-0.8639804, -0.05417775, 0.5006021), (-0.8639804, -0.05417775, 0.5006021), (-0.8639804, -0.05417775, 0.5006021), (0.012506725, -0.022522278, 0.999668), (0.012506725, -0.022522278, 0.999668), (0.012506725, -0.022522278, 0.999668), (0.012506725, -0.022522278, 0.999668), (0.008779445, 0.99990594, 0.010527316), (0.0076411613, 0.9997433, 0.021332202), (0.007651122, 0.99839044, 0.056196887), (0.007651122, 0.99839044, 0.056196887), (-0.93500376, 0.073774114, 0.34687954), (-0.93500376, 0.073774114, 0.34687954), (-0.93500376, 0.073774114, 0.34687954), (-0.93500376, 0.073774114, 0.34687954), (0.99236816, -0.00363303, 0.12325682), (0.99109113, 0.009957821, 0.1328124), (0.9955118, 0.010239121, 0.09408181), (0.9955118, 0.010239121, 0.09408181), (0.99109113, 0.009957821, 0.1328124), (0.99236816, -0.00363303, 0.12325682), (0.98843706, -0.0025053124, 0.15161113), (0.9881598, 0.00074195745, 0.15342665), (-0.9870616, 0.010712496, 0.15998323), (-0.9879343, 0.01087521, 0.15449163), (-0.9879343, 0.01087521, 0.15449163), (-0.9872666, 0.015011801, 0.15836479), (0.99569064, -0.012750682, 0.091855615), (0.99569064, -0.012750682, 0.091855615), (0.99569064, -0.012750682, 0.091855615), (0.99569064, -0.012750682, 0.091855615), (0.011024756, -0.9971278, 0.07493149), (0.009931353, -0.9959875, 0.08894064), (0.009931353, -0.9959875, 0.08894064), (0.010107399, -0.99724025, 0.07355077), (0.022803092, 0.9005204, 0.43421552), (0.022803092, 0.9005204, 0.43421552), (0.022803092, 0.9005204, 0.43421552), (0.022803092, 0.9005204, 0.43421552), (0.007615121, 0.99970746, -0.022958126), (0.007615121, 0.99970746, -0.022958126), (0.0076411613, 0.9997433, 0.021332202), (0.008779445, 0.99990594, 0.010527316), (0.016935874, -0.04661727, 0.9987692), (0.016935874, -0.04661727, 0.9987692), (0.016935874, -0.04661727, 0.9987692), (0.016935874, -0.04661727, 0.9987692), (-0.105034724, -0.9270869, 0.3598301), (-0.105034724, -0.9270869, 0.3598301), (-0.105034724, -0.9270869, 0.3598301), (-0.105034724, -0.9270869, 0.3598301), (0.016448203, 0.058833215, 0.9981323), (0.016448203, 0.058833215, 0.9981323), (0.016448203, 0.058833215, 0.9981323), (0.016448203, 0.058833215, 0.9981323), (-0.0017937436, -0.98484236, 0.17344207), (0.008193518, -0.9822971, 0.18715048), (0.008273887, -0.98938495, 0.1450829), (0.008273887, -0.98938495, 0.1450829), (0.0064397547, -0.9757947, 0.21859388), (0.008193518, -0.9822971, 0.18715048), (0.0011554527, -0.97815555, 0.20787127), (0.0064397547, -0.9757947, 0.21859388), (0.0064397547, -0.9757947, 0.21859388), (-0.017291538, -0.9893791, 0.1443257), (-0.017291538, -0.9893791, 0.1443257), (-0.017291538, -0.9893791, 0.1443257), (-0.017291538, -0.9893791, 0.1443257), (0.008885465, 0.9811621, 0.19298212), (0.008885465, 0.9811621, 0.19298212), (0.008885465, 0.9811621, 0.19298212), (0.008885465, 0.9811621, 0.19298212), (-0.0014224802, -0.05276844, 0.9986058), (-0.0014224802, -0.05276844, 0.9986058), (-0.0014224802, -0.05276844, 0.9986058), (-0.0014224802, -0.05276844, 0.9986058), (-0.0014224802, -0.05276844, 0.9986058), (0.18787111, -0.6657047, 0.7221784), (0.18787111, -0.6657047, 0.7221784), (0.18787111, -0.6657047, 0.7221784), (0.18787111, -0.6657047, 0.7221784), (0.99751735, -0.0083161825, 0.06992998), (0.99751735, -0.0083161825, 0.06992998), (0.99751735, -0.0083161825, 0.06992998), (0.99751735, -0.0083161825, 0.06992998), (0.70326877, -0.7084943, -0.058726937), (0.70326877, -0.7084943, -0.058726937), (0.70326877, -0.7084943, -0.058726937), (-0.9713522, -0.0006549007, 0.23764335), (-0.9713522, -0.0006549007, 0.23764335), (-0.9713522, -0.0006549007, 0.23764335), (-0.9713522, -0.0006549007, 0.23764335), (0.008193518, -0.9822971, 0.18715048), (-0.0017937436, -0.98484236, 0.17344207), (-0.0012112212, -0.97916573, 0.20305908), (-0.0012112212, -0.97916573, 0.20305908), (0.0011554527, -0.97815555, 0.20787127), (-0.09372346, 0.801972, 0.5899635), (-0.09372346, 0.801972, 0.5899635), (-0.09372346, 0.801972, 0.5899635), (-0.09372346, 0.801972, 0.5899635), (0.045412, 0.9158825, 0.39886966), (0.045412, 0.9158825, 0.39886966), (0.045412, 0.9158825, 0.39886966), (0.045412, 0.9158825, 0.39886966), (-0.891222, -0.018006137, 0.45320973), (-0.891222, -0.018006137, 0.45320973), (-0.891222, -0.018006137, 0.45320973), (-0.891222, -0.018006137, 0.45320973), (0.9365165, -0.009646743, 0.3504907), (0.9365165, -0.009646743, 0.3504907), (0.9365165, -0.009646743, 0.3504907), (0.9365165, -0.009646743, 0.3504907), (-0.022754828, 0.97863096, 0.20436142), (-0.022754828, 0.97863096, 0.20436142), (-0.022754828, 0.97863096, 0.20436142), (-0.022754828, 0.97863096, 0.20436142), (0.003949681, -0.053086743, 0.99858207), (0.003949681, -0.053086743, 0.99858207), (0.003949681, -0.053086743, 0.99858207), (0.003949681, -0.053086743, 0.99858207), (0.003949681, -0.053086743, 0.99858207), (-0.10151427, -0.6742724, 0.7314722), (-0.10151427, -0.6742724, 0.7314722), (-0.10151427, -0.6742724, 0.7314722), (-0.10151427, -0.6742724, 0.7314722)] (
                interpolation = "faceVarying"
            )
            point3f[] points = [(-0.4549045, -0.37609237, 0.02599675), (-0.56999815, -0.37205577, 0.02599675), (-0.43365833, -0.4801904, 0.025996767), (-0.42160264, -0.33382475, -0.08189841), (-0.45016152, -0.35491422, 0.009905974), (-0.36527577, -0.4642521, -0.013599349), (-0.4242357, -0.33695903, -0.032948285), (-0.36622223, -0.33695903, -0.038616486), (-0.37324986, -0.35726735, 0.025996746), (-0.36636668, -0.656349, -0.042436305), (-0.3732499, -0.6360407, 0.025996793), (-0.9912621, -0.45805013, 0.011634932), (-0.9656506, -0.48019037, 0.025996767), (-0.9913619, -0.33695903, 0.0059640775), (-0.9534178, -0.35989797, 0.025996746), (-0.99034965, -0.656349, -0.02603348), (-0.9669924, -0.6304507, 0.025996791), (-0.36063382, -0.46155244, -0.08189839), (-0.36063382, -0.33471304, -0.08189841), (-0.36063382, -0.6404948, -0.08189836), (-0.9925192, -0.4550322, -0.08189839), (-0.9925192, -0.6623797, -0.08189836), (-0.99507475, -0.32772633, -0.08189841), (-0.37375695, -0.65500826, -0.08189836), (-0.43235883, -0.6559455, -0.08189836), (-0.4245157, -0.656349, -0.040350772), (-0.45111454, -0.61613405, 0.02599679), (-0.3785104, -0.4801904, 0.025996767), (-0.49099895, -0.98689586, -0.0135992635), (-0.4747272, -0.9739325, 0.002488479), (-0.6209556, -0.98596877, -0.03861638), (-0.60022235, -0.9790852, 0.0185121), (-0.025684861, -0.9858273, -0.042436253), (-0.04641813, -0.9790852, 0.018512042), (-0.4973307, -0.668784, 0.011634966), (-0.47472727, -0.67861307, 0.03398946), (-0.6127647, -0.67412835, 0.0059641325), (-0.5898914, -0.6960462, 0.03398946), (-0.025684861, -0.66738814, -0.026033478), (-0.052125067, -0.69328666, 0.033989415), (-0.502149, -0.9943589, -0.0818983), (-0.6340446, -0.9943589, -0.0818983), (-0.029251872, -0.9943589, -0.0818983), (-0.50892913, -0.6533662, -0.08189836), (-0.63176954, -0.6523781, -0.08189836), (-0.00649455, -0.6533662, -0.08189836), (-0.014159886, -0.9812664, -0.08189831), (-0.65389234, -0.67739004, 0.018511992), (-0.8405925, -0.7012595, 0.01974157), (-0.8405925, -0.7012548, 0.019741328), (-0.9204298, -0.67739004, 0.01851205), (-0.6345279, -0.67788666, -0.081898354), (-0.99323434, -1.005195, -0.0818983), (-0.62700224, -0.9998148, -0.0818983), (-0.8662771, -0.9998148, -0.0818983), (-0.64934504, -0.66503257, -0.081898354), (-0.9899158, -0.66503257, -0.081898354), (-0.85962045, -0.66503257, -0.081898354), (-0.6595993, -0.9631885, 0.03398946), (-0.6331591, -0.98908705, -0.026033424), (-0.97362286, -0.96598345, 0.033989504), (-0.9933504, -0.98790133, 0.0059641837), (-0.84059256, -0.9778621, 0.033989508), (-0.863196, -0.98769116, 0.0116350185), (0.535593, -0.62979984, 0.018511984), (-0.6331591, -0.6706479, -0.042436305), (-0.97576296, -0.67739004, 0.01851205), (-0.9917749, -0.6705064, -0.038616434), (-0.8405925, -0.68254274, 0.0024884318), (-0.8568643, -0.6695794, -0.013599316), (-0.55456454, -0.9790852, 0.0185121), (-0.47472724, -0.95522046, 0.019741371), (-0.47472724, -0.9552157, 0.019741613), (-0.32507205, -0.9790852, 0.018512085), (0.44829118, -0.81287634, 0.023429884), (0.37722218, -0.9595819, 0.031090701), (0.4006918, -0.98912066, -0.04035072), (0.39284867, -0.98871714, -0.0818983), (0.45145056, -0.98778, -0.0818983), (-0.014948184, -0.66049814, -0.08189836), (-0.009455347, -0.9951514, -0.0818983), (-0.0094553325, -0.78780395, -0.08189834), (0.46457368, -0.97326654, -0.08189831), (0.46457368, -0.6674848, -0.081898354), (0.46457368, -0.79432416, -0.08189834), (0.024805754, -0.9647834, 0.03362404), (0.0014968272, -0.98912066, -0.026033424), (0.021921277, -0.6907255, 0.033592526), (0.0027074274, -0.6697308, 0.0059641316), (0.013995436, -0.8085427, 0.033458684), (0.0029219892, -0.7908219, 0.011634986), (0.43896893, -0.9516775, 0.031024566), (0.45884082, -0.98912066, -0.042436253), (0.44048598, -0.69964075, 0.031024538), (0.45898527, -0.6697308, -0.038616434), (0.4009718, -0.6697308, -0.032948233), (0.45993173, -0.79702383, -0.013599295), (0.3667323, -0.70720387, 0.031002553), (0.40360487, -0.66659653, -0.081898354), (0.39252165, -0.81287634, 0.024704985), (0.6004969, -0.66746235, -0.013599316), (0.61676866, -0.6804257, 0.0024884313), (0.47054026, -0.6683894, -0.038616434), (0.4912735, -0.675273, 0.01851205), (0.9911837, -0.6685309, -0.042436305), (0.9693296, -0.675273, 0.018511992), (0.59416515, -0.9855742, 0.011635018), (0.6167686, -0.97574514, 0.033989508), (0.47873113, -0.9802299, 0.0059641823), (0.5016045, -0.95831203, 0.033989504), (0.9911837, -0.98697007, -0.026033426), (0.96362257, -0.96107155, 0.03398946), (0.5893469, -0.65999925, -0.08189836), (0.45745125, -0.65999925, -0.08189836), (0.9773212, -0.65999925, -0.08189836), (0.58256674, -1.000992, -0.0818983), (0.4597263, -1.0019801, -0.0818983), (0.9967219, -1.000992, -0.0818983), (0.9924833, -0.6730918, -0.081898354), (0.53693134, -0.675273, 0.01851205), (0.6167686, -0.69913775, 0.019741328), (0.6167686, -0.6991425, 0.01974157), (0.7664238, -0.675273, 0.018512035), (-0.22271156, -0.6516841, -0.013599318), (-0.2064398, -0.63872075, 0.0024884245), (-0.3526682, -0.6507571, -0.038616437), (-0.33193496, -0.64387345, 0.018512044), (0.1576798, -0.6506156, -0.04243631), (0.13694656, -0.64387345, 0.018511986), (-0.2290433, -0.34368438, 0.011634913), (-0.20643985, -0.35351342, 0.033989403), (-0.34447733, -0.34902865, 0.0059640794), (-0.32160395, -0.37094653, 0.033989407), (0.1576798, -0.34228843, -0.02603353), (0.13123953, -0.368187, 0.033989362), (-0.23386157, -0.6591472, -0.08189836), (-0.3657572, -0.6591472, -0.08189836), (0.1541127, -0.6591472, -0.08189836), (-0.24064171, -0.32826656, -0.08189841), (-0.36348215, -0.32727838, -0.08189841), (0.17687011, -0.32826656, -0.08189841), (0.16920471, -0.6561668, -0.08189836), (-0.28627712, -0.64387345, 0.018512044), (-0.20643985, -0.6200087, 0.019741315), (-0.20643985, -0.62000394, 0.019741558), (-0.05678463, -0.64387345, 0.01851203), (0.48349282, -0.3775684, 0.021619488), (0.49628142, -0.65761065, -0.08189836), (0.1621243, -0.32328802, -0.08189841), (0.16761729, -0.66498214, -0.081898354), (0.50940454, -0.6430972, -0.08189836), (0.5094046, -0.3302747, -0.08189841), (0.20500988, -0.6330531, 0.029624946), (0.1785694, -0.65895146, -0.026033478), (0.20215648, -0.35492525, 0.029624932), (0.17482522, -0.32992977, -0.018692821), (0.48349276, -0.6386431, 0.021619515), (0.50367177, -0.6589514, -0.042436305), (0.49678853, -0.352829, 0.021619484), (0.5038162, -0.3325207, -0.038616486), (0.9549446, -0.6424779, 0.018512044), (0.51622856, -0.6493632, -0.08189836), (0.98336846, -0.3220549, -0.08189841), (0.5087029, -0.32743514, -0.08189841), (0.5310457, -0.66221744, -0.08189836), (0.97942424, -0.66221744, -0.08189836), (0.54129994, -0.3640614, 0.033989362), (0.51485974, -0.3381629, -0.02603353), (0.9528045, -0.36126646, 0.033989407), (0.98322946, -0.33934867, 0.005964078), (0.51485974, -0.656602, -0.042436305), (0.98322946, -0.6567436, -0.038616434), (0.4943373, -0.32352647, -0.013599372), (0.47806552, -0.31056312, 0.002488371), (0.6242939, -0.3225994, -0.03861649), (0.6035607, -0.31571582, 0.018511992), (0.0290232, -0.32245794, -0.04243636), (0.049756467, -0.31571582, 0.018511934), (0.50066906, -0.0054145874, 0.011634858), (0.47806558, -0.015243662, 0.03398935), (0.61610305, -0.010758916, 0.0059640245), (0.5932297, -0.032676715, 0.03398935), (0.0290232, -0.004018716, -0.026033586), (0.055463403, -0.029917242, 0.033989307), (0.5054873, -0.33098957, -0.08189841), (0.6373829, -0.33098957, -0.08189841), (0.03259021, -0.33098957, -0.08189841), (0.5122675, 0.010003186, -0.081898466), (0.6351079, 0.010991319, -0.081898466), (0.009832889, 0.010003186, -0.081898466), (0.017498225, -0.31789702, -0.08189841), (0.6572307, -0.014020598, 0.018511884), (0.84393084, -0.037890088, 0.019741463), (0.84393084, -0.037885357, 0.01974122), (0.98105925, -0.012691442, 0.0074809627), (0.63786626, -0.014517278, -0.081898466), (0.996449, -0.3418257, -0.08189841), (0.6303406, -0.33644542, -0.08189841), (0.86961544, -0.33644542, -0.08189841), (0.6526834, -0.001663146, -0.081898466), (0.9925049, -0.0016631469, -0.081898466), (0.8629588, -0.001663146, -0.081898466), (0.66293764, -0.29981917, 0.03398935), (0.63649744, -0.32571772, -0.026033534), (0.98089886, -0.30627012, 0.032030325), (0.99631006, -0.32453194, 0.0059640757), (0.8439309, -0.31449276, 0.0339894), (0.86653435, -0.32432178, 0.0116349105), (0.63649744, -0.0072784782, -0.042436413), (0.9913339, -0.0071370145, -0.03861654), (0.84393084, -0.019173313, 0.0024883235), (0.8602026, -0.006209945, -0.013599424), (0.47806552, -0.29185104, 0.019741263), (0.47806552, -0.29184633, 0.019741505), (0.32841036, -0.31571582, 0.018511977), (-0.51658094, -0.14950699, 0.023429776), (-0.44309312, -0.28694034, 0.031090591), (-0.46898156, -0.32575133, -0.04035083), (-0.46113843, -0.32534778, -0.08189841), (-0.5197402, -0.32441056, -0.08189841), (0.018286519, 0.0028712924, -0.081898466), (0.0127936825, -0.331782, -0.08189841), (0.012793668, -0.124434575, -0.08189844), (-0.53286344, -0.30989712, -0.08189841), (-0.53286344, -0.004115408, -0.081898466), (-0.53286344, -0.13095479, -0.08189844), (-0.021467408, -0.30141395, 0.033623934), (0.0018415079, -0.32575133, -0.026033534), (-0.018582938, -0.027356094, 0.033592418), (0.0006309077, -0.0063613895, 0.0059640235), (-0.0063235443, -0.14950693, 0.03345858), (0.0004163459, -0.1274525, 0.011634878), (-0.5218164, -0.30706522, 0.031024462), (-0.5271305, -0.32575133, -0.04243636), (-0.5218165, -0.02523685, 0.031024428), (-0.527275, -0.006361397, -0.03861654), (-0.46926156, -0.006361396, -0.03294834), (-0.5282215, -0.13365448, -0.013599403), (-0.43502206, -0.043834414, 0.031002445), (-0.47189462, -0.0032271084, -0.081898466), (-0.4608114, -0.14950699, 0.024704877), (-0.66878664, -0.0040929182, -0.013599424), (-0.68505836, -0.017056286, 0.0024883233), (-0.5388299, -0.005019987, -0.03861654), (-0.55956316, -0.011903569, 0.018511942), (-0.9874615, -0.005161449, -0.042436413), (-0.966492, -0.011903569, 0.018511884), (-0.66245484, -0.3222048, 0.01163491), (-0.68505836, -0.31237578, 0.0339894), (-0.5470208, -0.31686053, 0.0059640743), (-0.56989425, -0.29494268, 0.033989396), (-0.9874615, -0.32360074, -0.026033534), (-0.960785, -0.29770213, 0.03398935), (-0.65763664, 0.003370172, -0.081898466), (-0.525741, 0.003370172, -0.081898466), (-0.98287594, 0.0033701712, -0.081898466), (-0.6508565, -0.33762258, -0.08189841), (-0.528016, -0.3386108, -0.08189841), (-0.9934639, -0.33762258, -0.08189841), (-0.98989755, -0.009722399, -0.081898466), (-0.60522103, -0.011903569, 0.018511942), (-0.68505836, -0.03576833, 0.01974122), (-0.68505836, -0.035773057, 0.019741463), (-0.8347136, -0.011903569, 0.018511927), (0.5989339, 0.024967806, 0.01000849), (0.58238167, 0.15061638, 0.02614706), (0.57029015, 0.0038156349, -0.082068786), (0.51379585, 0.13463072, -0.01356675), (0.572931, 0.0069592623, -0.032973155), (0.5147451, 0.0069592614, -0.0386582), (0.5217936, 0.027327929, 0.02614708), (0.51488996, 0.32729858, -0.042489484), (0.5315242, 0.29739875, 0.026147036), (0.98867327, 0.12841028, 0.01174254), (0.9590873, 0.1506163, 0.02614706), (0.98879224, 0.006959223, 0.006054878), (0.9468181, 0.029966343, 0.026147079), (0.98946357, 0.32729858, -0.026037898), (0.96043307, 0.30132326, 0.026147036), (0.5091401, 0.131923, -0.08206881), (0.5091401, 0.004706575, -0.082068786), (0.51572114, 0.31867555, -0.08206884), (0.99046457, 0.12538333, -0.08206881), (0.99046457, 0.33334717, -0.08206884), (0.99351084, -0.002300924, -0.082068786), (0.48757812, 0.32452726, 0.01851183), (0.58107835, 0.32689384, -0.08206884), (0.5732119, 0.32729858, -0.04039775), (0.5998897, 0.2869641, 0.026147038), (0.5270698, 0.15061638, 0.02614706), (0.047946297, 0.0101811355, -0.01356673), (0.031626154, 0.02318304, 0.0025688338), (0.1782892, 0.011110911, -0.03865821), (0.15749437, 0.018014975, 0.018640073), (-0.33357576, 0.011252822, -0.04248943), (-0.3127809, 0.018015005, 0.01864003), (0.054296903, 0.31909636, 0.011742508), (0.031626243, 0.30923814, 0.034163445), (0.17007402, 0.3137362, 0.0060548275), (0.1471326, 0.29175317, 0.03416345), (-0.33357573, 0.32049644, -0.026037896), (-0.30705687, 0.29452088, 0.034163404), (0.05912944, 0.002695835, -0.08206879), (0.19141713, 0.0026958052, -0.08206879), (-0.32999805, 0.002695835, -0.08206879), (0.065929785, 0.33455998, -0.082068846), (0.18913537, 0.33555108, -0.082068846), (-0.35282308, 0.33455998, -0.082068846), (-0.3451349, 0.0056851157, -0.08206879), (0.11170075, 0.018015005, 0.018640073), (0.031626213, 0.041950684, 0.019873004), (0.031626213, 0.04195543, 0.019873247), (-0.118473865, 0.018015005, 0.018640073), (-0.974012, 0.02724583, 0.021756802), (-0.6719098, 0.32856408, -0.08206884), (-0.33675933, -0.0023830247, -0.082068786), (-0.3422686, 0.33595738, -0.08206884), (-0.9888023, 0.31400752, -0.08206884), (-0.9888024, 0.004624465, -0.082068786), (-0.37977242, 0.30393353, 0.029785985), (-0.35325325, 0.32990876, -0.026037898), (-0.37691057, 0.029348275, 0.029786045), (-0.34949803, 0.004278471, -0.018675324), (-0.9704071, 0.3095401, 0.021756742), (-0.9890532, 0.32990876, -0.042489484), (-0.9891206, 0.006877155, -0.0386582), (0.32143247, 0.30065775, 0.019741409), (0.32143247, 0.3006625, 0.019741166), (0.25038475, 0.32452726, 0.018511888), (0.5048107, 0.32403058, -0.08189852), (0.18291476, -0.0032778282, -0.081898466), (0.5115078, 0.0021024595, -0.081898466), (0.2985756, 0.0021024595, -0.081898466), (0.4916248, 0.33688474, -0.08189852), (0.18926236, 0.33688474, -0.08189852), (0.3044994, 0.33688474, -0.08189852), (0.48249945, 0.03872871, 0.033989295), (0.5060288, 0.012830172, -0.026033588), (0.21165803, 0.035933804, 0.03398934), (0.19130293, 0.014015937, 0.0059640203), (0.32143244, 0.024055136, 0.033989344), (0.30131748, 0.014226115, 0.0116348555), (0.5060288, 0.33126938, -0.042436466), (0.20975354, 0.32452726, 0.018511888), (0.19130293, 0.33141086, -0.038616594), (0.32143247, 0.31937453, 0.0024882685), (0.30695212, 0.33233792, -0.013599479), (0.46265447, 0.70457816, 0.025996573), (0.5777481, 0.70054156, 0.025996575), (0.4414083, 0.80867606, 0.025996557), (0.4293526, 0.6623105, -0.08189857), (0.4579115, 0.6834, 0.009905805), (0.37302575, 0.7927379, -0.013599554), (0.43198568, 0.66544485, -0.03294845), (0.3739722, 0.66544485, -0.03861665), (0.38099983, 0.6857531, 0.025996577), (0.37411666, 0.98483485, -0.042436574), (0.38099986, 0.96452636, 0.025996532), (0.9962676, 0.78653586, 0.011634729), (0.97289985, 0.80867606, 0.025996557), (0.99638623, 0.66544485, 0.005963914), (0.960667, 0.68838376, 0.025996577), (0.99705565, 0.98483485, -0.026033746), (0.9742416, 0.9589365, 0.025996532), (0.3683838, 0.7900381, -0.08189859), (0.3683838, 0.6631988, -0.08189858), (0.3683838, 0.9689806, -0.08189862), (0.99803853, 0.7835179, -0.08189859), (0.99803853, 0.99086547, -0.08189863), (1.0010757, 0.65621215, -0.08189857), (0.38150692, 0.983494, -0.08189863), (0.4401088, 0.9844313, -0.08189863), (0.43226567, 0.98483485, -0.04035104), (0.4588645, 0.9446198, 0.025996534), (0.38626036, 0.80867606, 0.025996557), (-0.527843, 0.9582856, 0.018511726), (0.23046154, 0.66865706, -0.013599534), (0.21418977, 0.6816204, 0.0024882094), (0.36041817, 0.6695842, -0.03861665), (0.33968493, 0.6764678, 0.01851183), (-0.14992982, 0.6697256, -0.04243652), (-0.12919658, 0.6764678, 0.018511772), (0.23679328, 0.97665673, 0.011634698), (0.21418983, 0.9668278, 0.03398919), (0.3522273, 0.9713126, 0.0059638643), (0.32935393, 0.94939464, 0.03398919), (-0.14992982, 0.9780528, -0.026033746), (-0.123489566, 0.9521541, 0.033989146), (0.24161154, 0.66119397, -0.08189857), (0.37350717, 0.66119397, -0.08189857), (-0.14636272, 0.66119397, -0.08189857), (0.24839169, 0.9920746, -0.08189863), (0.37123212, 0.99306285, -0.08189863), (-0.16912013, 0.9920746, -0.08189863), (-0.16145474, 0.66417444, -0.08189858), (0.2940271, 0.6764678, 0.01851183), (0.21418983, 0.7003325, 0.019741101), (0.21418983, 0.70033723, 0.019741343), (0.06453462, 0.6764678, 0.018511815), (-0.47574285, 0.7060542, 0.02161931), (-0.48853144, 0.9860964, -0.08189863), (-0.15437436, 0.6693287, -0.08189858), (-0.15986732, 0.9934678, -0.08189863), (-0.50165457, 0.97158307, -0.08189862), (-0.5016546, 0.6763154, -0.08189858), (-0.19725993, 0.96153885, 0.029624688), (-0.17081943, 0.98743725, -0.026033746), (-0.19440654, 0.7009659, 0.02962476), (-0.16707525, 0.6759705, -0.018692985), (-0.4757428, 0.96712893, 0.021619253), (-0.49592176, 0.9874371, -0.042436574), (-0.48903856, 0.6988697, 0.021619312), (-0.49606618, 0.6785614, -0.038616654), (-0.9757195, 0.9709638, 0.018511781), (-0.5084786, 0.97784895, -0.08189862), (-0.99321413, 0.6505407, -0.08189857), (-0.5009529, 0.6559209, -0.08189857), (-0.5232957, 0.99070334, -0.08189863), (-0.9898955, 0.9907034, -0.08189863), (-0.53354996, 0.69254714, 0.03398919), (-0.50710976, 0.6666487, -0.026033694), (-0.9735794, 0.6897523, 0.033989236), (-0.9933302, 0.66783446, 0.0059639136), (-0.50710976, 0.9850877, -0.042436574), (-0.99175465, 0.9852293, -0.038616702), (-0.48658732, 0.6520122, -0.013599531), (-0.47031552, 0.6390489, 0.0024882164), (-0.61654395, 0.6510852, -0.038616646), (-0.5958107, 0.6442016, 0.018511835), (-0.021273216, 0.6509437, -0.042436518), (-0.042006493, 0.6442016, 0.018511778), (-0.49291906, 0.33390036, 0.011634803), (-0.47031552, 0.34372944, 0.03398929), (-0.6083531, 0.3392447, 0.005963967), (-0.58547974, 0.36116245, 0.033989288), (-0.021273216, 0.33250448, -0.02603364), (-0.04771343, 0.35840303, 0.033989243), (-0.49773732, 0.6594753, -0.08189857), (-0.62963295, 0.6594753, -0.08189857), (-0.024840226, 0.6594753, -0.08189857), (-0.5045175, 0.31848258, -0.08189852), (-0.6273579, 0.31749442, -0.08189852), (-0.0020829048, 0.31848258, -0.08189852), (-0.009748241, 0.64638275, -0.08189857), (-0.6494807, 0.34250638, 0.018511826), (-0.83618087, 0.36637583, 0.019741397), (-0.83618087, 0.3663711, 0.019741155), (-0.9160182, 0.34250638, 0.018511884), (-0.6301163, 0.34300303, -0.081898525), (-0.9911818, 0.67031145, -0.08189858), (-0.6225906, 0.6649312, -0.08189858), (-0.86186546, 0.6649312, -0.08189858), (-0.6449334, 0.3301489, -0.08189852), (-0.9878633, 0.3301489, -0.08189852), (-0.8552088, 0.3301489, -0.08189852), (-0.65518767, 0.62830496, 0.033989202), (-0.62874746, 0.6542035, -0.026033692), (-0.9692112, 0.6310998, 0.033989243), (-0.99129784, 0.6530177, 0.0059639164), (-0.8361809, 0.6429785, 0.033989243), (-0.8587844, 0.65280753, 0.011634751), (-0.62874746, 0.33576423, -0.04243647), (-0.9713514, 0.34250638, 0.018511884), (-0.9897224, 0.3356228, -0.038616598), (-0.83618087, 0.34765908, 0.0024882639), (-0.85245264, 0.3346957, -0.01359948), (-0.5501529, 0.6442016, 0.018511835), (-0.47031558, 0.62033683, 0.019741114), (-0.47031558, 0.62033206, 0.019741356), (-0.32066038, 0.6442016, 0.01851182), (0.5243309, 0.47799277, 0.023429673), (0.4508431, 0.6154261, 0.031090444), (0.4767315, 0.6542371, -0.04035099), (0.4688884, 0.65383357, -0.08189857), (0.5274902, 0.65289634, -0.08189857), (-0.010536535, 0.32561445, -0.08189852), (-0.0050436985, 0.6602678, -0.08189857), (-0.0050436836, 0.45292032, -0.08189854), (0.5406134, 0.6383829, -0.08189857), (0.5406134, 0.33260116, -0.08189852), (0.5406134, 0.45944053, -0.08189854), (0.029217392, 0.62989974, 0.03362378), (0.005908478, 0.6542371, -0.026033692), (0.026332922, 0.35584188, 0.033592355), (0.007119078, 0.33484715, 0.005963968), (0.014073528, 0.4779927, 0.033458475), (0.00733364, 0.45593828, 0.011634783), (0.52956635, 0.635551, 0.031024307), (0.53488046, 0.6542371, -0.04243652), (0.52956647, 0.35372263, 0.031024367), (0.535025, 0.33484715, -0.038616598), (0.47701153, 0.33484715, -0.032948397), (0.53597146, 0.46214026, -0.0135995), (0.44277203, 0.37232015, 0.031002376), (0.47964457, 0.33171287, -0.08189852), (0.46856138, 0.47799277, 0.024704775), (0.6765366, 0.3325787, -0.013599479), (0.69280833, 0.34554204, 0.002488264), (0.5465799, 0.33350575, -0.038616598), (0.56731313, 0.34038934, 0.018511884), (0.9936231, 0.33364722, -0.04243647), (0.97374123, 0.34038934, 0.018511826), (0.6702048, 0.65069056, 0.011634751), (0.69280833, 0.6408616, 0.033989243), (0.55477077, 0.6453463, 0.0059639174), (0.5776442, 0.6234284, 0.033989247), (0.9936231, 0.6520865, -0.026033692), (0.9680342, 0.6261879, 0.033989202), (0.6653866, 0.3251156, -0.08189852), (0.53349096, 0.3251156, -0.08189852), (0.98173267, 0.3251156, -0.08189852), (0.65860647, 0.66610837, -0.08189858), (0.53576595, 0.66709656, -0.08189858), (0.99916124, 0.66610837, -0.08189858), (0.99492264, 0.33820814, -0.08189852), (0.612971, 0.34038934, 0.018511884), (0.69280833, 0.3642541, 0.019741155), (0.69280833, 0.3642588, 0.019741397), (0.84246355, 0.34038934, 0.018511869)]
            uniform token subdivisionScheme = "none"
            uniform token subsetFamily:materialBind:familyType = "nonOverlapping"
            custom string userProperties:blender:data_name = "Cube.041"

            def GeomSubset "Main" (
                prepend apiSchemas = ["MaterialBindingAPI"]
            )
            {
                uniform token elementType = "face"
                uniform token familyName = "materialBind"
                int[] indices = [1, 2, 3, 4, 5, 7, 8, 9, 10, 11, 12, 13, 14, 15, 16, 17, 18, 20, 21, 22, 23, 24, 25, 26, 27, 28, 29, 31, 32, 33, 34, 35, 36, 37, 38, 41, 42, 43, 45, 46, 47, 48, 49, 50, 51, 52, 53, 54, 55, 56, 57, 59, 60, 61, 62, 63, 64, 65, 66, 67, 68, 69, 70, 71, 72, 73, 74, 75, 76, 77, 78, 79, 80, 81, 82, 84, 86, 87, 88, 89, 90, 91, 92, 93, 95, 96, 97, 98, 99, 101, 103, 104, 105, 106, 107, 108, 109, 110, 112, 114, 115, 116, 117, 118, 119, 120, 121, 122, 124, 125, 126, 127, 128, 129, 130, 131, 132, 133, 134, 135, 136, 137, 138, 140, 141, 142, 143, 144, 145, 146, 147, 150, 151, 152, 154, 155, 156, 157, 158, 159, 160, 161, 162, 163, 164, 165, 166, 168, 169, 170, 171, 172, 173, 174, 175, 176, 177, 178, 179, 180, 181, 182, 183, 184, 185, 186, 187, 188, 189, 190, 191, 193, 195, 196, 197, 198, 199, 200, 201, 202, 204, 205, 206, 207, 208, 209, 210, 211, 212, 213, 214, 215, 216, 217, 218, 219, 220, 221, 222, 223, 224, 225, 226, 227, 228, 229, 231, 233, 234, 235, 236, 237, 238, 239, 240, 242, 244, 245, 246, 247, 248, 249, 250, 251, 254, 255, 256, 258, 259, 260, 261, 262, 263, 264, 265, 266, 267, 269, 270, 271, 272, 273, 275, 276, 277, 278, 279, 280, 281, 282, 283, 284, 285, 286, 288, 289, 290, 291, 292, 293, 294, 295, 297, 299, 300, 301, 302, 303, 304, 305, 306, 308, 310, 311, 312, 313, 314, 315, 316, 317, 318, 320, 321, 322, 323, 324, 325, 326, 327, 328, 329, 330, 331, 332, 333, 334, 336, 337, 338, 339, 340, 341, 342, 343, 346, 347, 348, 350, 351, 352, 353, 354, 355, 356, 357, 358, 359, 360, 361, 362, 364, 365, 366, 367, 368, 369, 370, 371, 372, 373, 374, 375, 376, 377, 378, 379, 380, 381, 382, 383, 384, 385, 386, 387, 389, 391, 392, 393, 394, 395, 396, 397, 398]
                rel material:binding = </root/_materials/Main>
            }

            def GeomSubset "Highlights" (
                prepend apiSchemas = ["MaterialBindingAPI"]
            )
            {
                uniform token elementType = "face"
                uniform token familyName = "materialBind"
                int[] indices = [0, 6, 19, 30, 39, 40, 44, 58, 83, 85, 94, 100, 102, 111, 113, 123, 139, 148, 149, 153, 167, 192, 194, 203, 230, 232, 241, 243, 252, 253, 257, 268, 274, 287, 296, 298, 307, 309, 319, 335, 344, 345, 349, 363, 388, 390, 399]
                rel material:binding = </root/_materials/Highlights>
            }
        }
    }

    def Scope "_materials"
    {
        def Material "Main"
        {
            token outputs:surface.connect = </root/_materials/Main/Principled_BSDF.outputs:surface>
            custom string userProperties:blender:data_name = "Main"

            def Shader "Principled_BSDF"
            {
                uniform token info:id = "UsdPreviewSurface"
                float inputs:clearcoat = 0
                float inputs:clearcoatRoughness = 0.03
                color3f inputs:diffuseColor = (0.15896088, 0.1620294, 0.12477183)
                float inputs:ior = 1.5
                float inputs:metallic = 0
                float inputs:opacity = 1
                float inputs:roughness = 0.6900348
                float inputs:specular = 0.5
                token outputs:surface
            }
        }

        def Material "Highlights"
        {
            token outputs:surface.connect = </root/_materials/Highlights/Principled_BSDF.outputs:surface>
            custom string userProperties:blender:data_name = "Highlights"

            def Shader "Principled_BSDF"
            {
                uniform token info:id = "UsdPreviewSurface"
                float inputs:clearcoat = 0
                float inputs:clearcoatRoughness = 0.03
                color3f inputs:diffuseColor = (0.28993252, 0.2956869, 0.22595453)
                float inputs:ior = 1.5
                float inputs:metallic = 0
                float inputs:opacity = 1
                float inputs:roughness = 0.6900348
                float inputs:specular = 0.5
                token outputs:surface
            }
        }
    }
}

