#usda 1.0
(
    defaultPrim = "root"
    doc = "Blender v5.1.2"
    metersPerUnit = 1
    upAxis = "Y"
)

def Xform "root" (
    customData = {
        dictionary Blender = {
            bool generated = 1
        }
    }
)
{
    float3 xformOp:rotateXYZ = (-90, -0, 0)
    uniform token[] xformOpOrder = ["xformOp:rotateXYZ"]

    def Xform "Wall_Hole"
    {
        custom string userProperties:blender:object_name = "Wall_Hole"

        def Mesh "Cube_055" (
            active = true
            prepend apiSchemas = ["MaterialBindingAPI"]
        )
        {
            uniform bool doubleSided = 1
            float3[] extent = [(-0.9990782, -0.032819442, 0.03458023), (0.9993464, 0.25277558, 2.03542)]
            int[] faceVertexCounts = [3, 4, 4, 4, 4, 4, 3, 4, 4, 4, 4, 4, 4, 4, 5, 4, 4, 5, 4, 4, 4, 4, 4, 5, 4, 5, 4, 4, 4, 4, 5, 4, 4, 4, 4, 4, 5, 4, 4, 4, 5, 4, 4, 4, 4, 4, 4, 4, 4, 4, 4, 4, 5, 4, 4, 4, 4, 4, 4, 4, 4, 4, 4, 4, 4, 4, 4, 4, 4, 4, 4, 4, 4, 4, 4, 5, 4, 5, 4, 4, 4, 4, 5, 4, 4, 4, 4, 5, 4, 4, 4, 4, 4, 4, 4, 4, 4, 4, 4, 4, 4, 4, 4, 4, 4, 4, 4, 4, 4, 4, 4, 4, 4, 4, 4, 4, 5, 4, 5, 4, 4, 4, 4, 5, 4, 4, 4, 4, 4, 5, 4, 4, 4, 4, 4, 4, 4, 4, 4, 4, 4, 4, 4, 4, 4, 4, 4, 4, 4, 4, 4, 4, 4, 4, 4, 4, 4, 4, 4, 4, 3, 4, 4, 4, 4, 4, 3, 4, 4, 4, 4, 4, 4, 4, 5, 4, 4, 5, 4, 4, 4, 4, 4, 5, 4, 5, 4, 4, 4, 4, 5, 4, 4, 4, 4, 4, 5, 4, 4, 4, 4, 4, 4, 4, 4, 4, 4, 4, 4, 4, 4, 4, 4, 4, 4, 4, 4, 5, 4, 4, 4, 5, 4, 4, 4, 4, 4, 4, 4, 4, 4, 4, 4, 4, 4, 4, 4, 4, 3, 5, 4, 4, 4, 4, 4, 4, 4, 4, 4, 5, 4, 3, 4, 4, 4, 3, 4, 4, 4, 4, 5, 4, 5, 4, 4, 5, 5, 4, 5, 4, 4, 4, 4, 5, 4, 5, 4, 4, 4, 4, 4, 4, 4, 5, 4, 4, 4, 4, 4, 4, 4, 4, 4, 4, 4, 4, 4, 5, 5, 4, 5, 4, 4, 4, 4, 5, 4, 4, 4, 4, 4, 4, 4, 4, 4, 4, 4, 4, 4, 4, 4, 4, 5, 5, 4, 5, 4, 4, 4, 4, 5, 4, 4, 4, 4, 4, 4, 4, 4, 4, 4, 4, 4, 4, 4, 4, 4, 4, 4, 3, 4, 4, 4, 3, 4, 4, 4, 4, 5, 4, 5, 4, 4, 5, 5, 4, 5, 4, 4, 4, 4, 5, 4, 4, 4, 4, 4, 4, 4, 4, 4, 4, 4, 4, 4, 4, 4, 4, 4, 4, 4, 5, 4, 5, 4, 4, 4, 4, 4, 4, 4, 4, 4, 4, 4, 4, 4, 4, 4, 4, 4, 4, 4, 4, 4, 4, 4, 4, 4, 3, 4, 4, 4, 4, 3, 4, 3, 4, 4, 4, 4, 5, 4, 5, 4, 4]
            int[] faceVertexIndices = [1, 3, 0, 4, 6, 234, 232, 16, 14, 15, 17, 9, 17, 2, 18, 7, 3, 5, 6, 236, 8, 4, 232, 0, 3, 7, 4, 8, 9, 18, 233, 5, 12, 240, 253, 257, 29, 25, 15, 14, 10, 11, 12, 13, 11, 10, 244, 242, 14, 16, 18, 2, 0, 7, 2, 11, 13, 1, 0, 8, 16, 17, 9, 236, 244, 16, 8, 3, 1, 13, 12, 5, 238, 10, 14, 242, 6, 4, 18, 7, 234, 6, 5, 233, 17, 15, 11, 2, 251, 23, 29, 257, 21, 22, 47, 20, 19, 251, 247, 19, 23, 24, 50, 49, 26, 30, 20, 47, 49, 48, 270, 264, 36, 42, 249, 255, 27, 21, 21, 19, 247, 249, 19, 20, 50, 24, 23, 27, 25, 26, 28, 30, 26, 25, 29, 22, 21, 27, 28, 23, 24, 30, 29, 291, 63, 64, 292, 44, 46, 45, 34, 43, 38, 40, 268, 266, 31, 32, 33, 45, 272, 44, 38, 266, 34, 32, 39, 37, 43, 43, 37, 38, 44, 45, 33, 32, 34, 38, 37, 39, 40, 31, 35, 39, 32, 46, 44, 272, 274, 35, 36, 40, 39, 46, 42, 31, 45, 317, 314, 86, 89, 268, 40, 36, 264, 25, 27, 255, 253, 42, 36, 35, 31, 47, 22, 28, 26, 49, 50, 20, 48, 49, 63, 65, 51, 62, 57, 59, 287, 285, 289, 281, 53, 61, 292, 64, 57, 285, 67, 58, 56, 66, 66, 56, 57, 64, 61, 53, 52, 60, 57, 56, 58, 59, 52, 54, 58, 67, 289, 61, 65, 293, 54, 55, 59, 58, 65, 61, 60, 51, 281, 283, 55, 53, 287, 59, 55, 283, 302, 74, 78, 306, 53, 55, 54, 52, 65, 63, 291, 293, 60, 52, 67, 51, 62, 66, 64, 63, 51, 67, 66, 62, 300, 306, 78, 72, 70, 68, 69, 80, 71, 300, 72, 68, 296, 73, 79, 75, 82, 83, 69, 81, 82, 80, 76, 74, 302, 304, 298, 70, 76, 304, 68, 70, 298, 296, 68, 72, 73, 83, 69, 76, 77, 75, 74, 79, 78, 74, 75, 71, 77, 76, 70, 72, 78, 79, 73, 80, 82, 75, 77, 71, 83, 82, 81, 69, 89, 90, 318, 317, 41, 85, 87, 84, 88, 86, 314, 316, 85, 86, 88, 87, 318, 90, 88, 316, 84, 87, 88, 90, 270, 42, 46, 274, 84, 90, 89, 41, 89, 86, 85, 41, 329, 101, 96, 324, 102, 94, 103, 104, 100, 98, 326, 328, 91, 103, 93, 92, 330, 326, 98, 102, 94, 97, 99, 92, 94, 102, 98, 97, 103, 94, 92, 93, 98, 100, 99, 97, 91, 92, 99, 95, 102, 104, 332, 330, 95, 99, 100, 96, 104, 103, 91, 101, 329, 332, 104, 101, 328, 324, 96, 100, 101, 91, 95, 96, 339, 343, 115, 111, 337, 109, 115, 343, 107, 108, 117, 106, 105, 337, 333, 105, 109, 110, 120, 119, 112, 116, 106, 117, 119, 118, 111, 113, 341, 339, 335, 341, 113, 107, 107, 105, 333, 335, 105, 106, 120, 110, 109, 113, 111, 112, 114, 116, 112, 111, 115, 108, 107, 113, 114, 109, 110, 116, 115, 131, 129, 357, 359, 117, 108, 114, 112, 119, 120, 106, 118, 119, 123, 125, 353, 351, 135, 133, 134, 136, 128, 136, 122, 137, 126, 121, 124, 125, 123, 127, 128, 137, 352, 124, 131, 359, 134, 133, 129, 130, 131, 132, 130, 129, 363, 361, 133, 135, 137, 122, 121, 126, 122, 130, 132, 121, 127, 135, 136, 128, 355, 127, 123, 351, 121, 132, 131, 124, 125, 123, 137, 126, 353, 125, 124, 352, 136, 134, 130, 122, 372, 368, 140, 144, 373, 145, 142, 370, 142, 140, 368, 370, 139, 140, 142, 141, 138, 141, 142, 145, 143, 139, 141, 138, 144, 145, 373, 372, 143, 138, 145, 144, 355, 363, 135, 127, 144, 140, 139, 143, 357, 129, 133, 361, 158, 156, 384, 386, 147, 149, 146, 150, 152, 380, 378, 162, 160, 161, 163, 155, 163, 148, 164, 153, 149, 151, 152, 382, 154, 150, 378, 146, 149, 153, 150, 154, 155, 164, 379, 151, 158, 386, 423, 420, 192, 195, 161, 160, 156, 157, 158, 159, 157, 156, 390, 388, 160, 162, 164, 148, 146, 153, 148, 157, 159, 147, 146, 154, 162, 163, 155, 382, 390, 162, 154, 149, 147, 159, 158, 151, 384, 156, 160, 388, 152, 150, 164, 153, 380, 152, 151, 379, 163, 161, 157, 148, 398, 404, 176, 170, 168, 166, 167, 178, 169, 398, 170, 166, 394, 171, 177, 173, 180, 181, 167, 179, 180, 178, 174, 172, 400, 402, 396, 168, 174, 402, 166, 168, 396, 394, 166, 170, 171, 181, 167, 174, 175, 173, 172, 177, 176, 172, 173, 169, 175, 174, 168, 170, 176, 177, 171, 416, 412, 184, 188, 178, 180, 173, 175, 169, 181, 180, 179, 167, 417, 189, 186, 414, 186, 184, 412, 414, 183, 184, 186, 185, 182, 185, 186, 189, 187, 183, 185, 182, 188, 189, 417, 416, 187, 182, 189, 188, 195, 196, 424, 423, 188, 184, 183, 187, 165, 191, 193, 190, 194, 192, 420, 422, 191, 192, 194, 193, 424, 196, 194, 422, 190, 193, 194, 196, 400, 172, 176, 404, 190, 196, 195, 165, 195, 192, 191, 165, 442, 207, 202, 437, 449, 448, 429, 430, 209, 208, 200, 210, 211, 206, 204, 439, 441, 197, 210, 199, 198, 444, 439, 204, 209, 200, 208, 203, 205, 198, 208, 209, 204, 203, 210, 200, 198, 199, 204, 206, 205, 203, 197, 198, 205, 201, 209, 211, 446, 444, 201, 205, 206, 202, 211, 210, 197, 207, 442, 446, 211, 207, 441, 437, 202, 206, 207, 197, 201, 202, 428, 448, 449, 453, 468, 469, 473, 472, 453, 449, 430, 452, 425, 428, 453, 426, 475, 227, 226, 474, 215, 489, 222, 488, 223, 224, 221, 481, 472, 470, 482, 483, 218, 477, 478, 219, 487, 485, 469, 227, 214, 473, 469, 485, 217, 218, 219, 221, 487, 488, 486, 485, 225, 481, 483, 476, 471, 470, 472, 473, 477, 479, 225, 476, 216, 487, 227, 475, 480, 482, 470, 471, 478, 226, 468, 472, 481, 229, 228, 231, 244, 245, 243, 242, 237, 246, 230, 245, 235, 234, 233, 231, 228, 235, 231, 232, 246, 237, 236, 243, 239, 238, 242, 240, 238, 239, 241, 246, 235, 228, 230, 230, 228, 229, 241, 239, 236, 237, 245, 244, 231, 233, 240, 241, 229, 234, 235, 246, 232, 245, 230, 239, 243, 249, 247, 248, 275, 250, 252, 258, 254, 277, 278, 248, 276, 277, 275, 247, 251, 252, 278, 248, 255, 256, 254, 253, 258, 257, 253, 254, 250, 256, 255, 249, 251, 257, 258, 252, 272, 271, 262, 273, 274, 259, 273, 261, 260, 262, 271, 265, 267, 260, 271, 272, 266, 265, 273, 262, 260, 261, 266, 268, 267, 265, 259, 260, 267, 263, 263, 267, 268, 264, 274, 273, 259, 270, 270, 259, 263, 264, 275, 277, 254, 256, 250, 278, 277, 276, 248, 291, 290, 279, 293, 295, 294, 284, 286, 294, 292, 285, 284, 289, 288, 280, 281, 285, 287, 286, 284, 280, 295, 286, 282, 282, 286, 287, 283, 293, 279, 288, 289, 281, 280, 282, 283, 288, 279, 295, 280, 290, 291, 292, 294, 279, 290, 294, 295, 298, 299, 308, 297, 296, 301, 311, 310, 303, 307, 297, 308, 310, 309, 296, 297, 311, 301, 300, 304, 302, 303, 305, 307, 303, 302, 306, 299, 298, 304, 305, 300, 301, 307, 306, 308, 299, 305, 303, 310, 311, 297, 309, 310, 269, 312, 315, 313, 313, 315, 316, 314, 312, 318, 316, 315, 312, 269, 317, 318, 317, 269, 313, 314, 330, 332, 331, 322, 319, 320, 321, 331, 322, 320, 327, 325, 322, 325, 326, 330, 331, 321, 320, 322, 326, 325, 327, 328, 319, 323, 327, 320, 323, 324, 328, 327, 332, 329, 319, 331, 329, 324, 323, 319, 335, 333, 334, 345, 336, 338, 344, 340, 347, 348, 334, 346, 347, 345, 333, 337, 338, 348, 334, 341, 342, 340, 339, 344, 343, 339, 340, 336, 342, 341, 335, 337, 343, 344, 338, 345, 347, 340, 342, 336, 348, 347, 346, 334, 363, 364, 362, 361, 356, 365, 350, 364, 354, 353, 352, 349, 351, 365, 356, 355, 362, 358, 357, 361, 359, 357, 358, 360, 365, 354, 349, 350, 350, 349, 360, 358, 355, 356, 364, 363, 349, 352, 359, 360, 353, 354, 365, 351, 364, 350, 358, 362, 367, 369, 370, 368, 366, 373, 370, 369, 371, 366, 369, 367, 371, 372, 373, 366, 372, 371, 367, 368, 375, 374, 377, 390, 391, 389, 388, 383, 392, 376, 391, 381, 380, 379, 377, 374, 381, 377, 378, 392, 383, 382, 389, 385, 384, 388, 386, 384, 385, 387, 392, 381, 374, 376, 376, 374, 375, 387, 385, 382, 383, 391, 390, 377, 379, 386, 387, 375, 380, 381, 392, 378, 391, 376, 385, 389, 396, 397, 406, 395, 394, 399, 409, 408, 401, 405, 395, 406, 408, 407, 394, 395, 409, 399, 398, 402, 400, 401, 403, 405, 401, 400, 404, 397, 396, 402, 403, 398, 399, 405, 404, 406, 397, 403, 401, 408, 409, 395, 407, 408, 411, 413, 414, 412, 410, 417, 414, 413, 415, 410, 413, 411, 415, 416, 417, 410, 416, 415, 411, 412, 393, 418, 421, 419, 419, 421, 422, 420, 418, 424, 422, 421, 418, 393, 423, 424, 423, 393, 419, 420, 431, 447, 430, 429, 429, 448, 462, 458, 450, 452, 430, 447, 426, 451, 452, 450, 428, 425, 454, 457, 454, 455, 467, 457, 453, 452, 451, 426, 457, 467, 463, 462, 444, 446, 445, 435, 443, 432, 433, 434, 445, 435, 433, 440, 438, 443, 443, 438, 439, 444, 445, 434, 433, 435, 439, 438, 440, 441, 432, 436, 440, 433, 436, 437, 441, 440, 446, 442, 432, 445, 442, 437, 436, 432, 427, 425, 426, 450, 450, 447, 431, 427, 460, 458, 459, 461, 458, 460, 431, 429, 467, 455, 465, 466, 464, 456, 460, 461, 456, 464, 455, 454, 464, 461, 459, 466, 427, 431, 460, 456, 456, 454, 425, 427, 455, 464, 466, 465, 463, 459, 458, 462, 428, 457, 462, 448, 467, 466, 459, 463, 219, 478, 471, 212, 479, 477, 218, 220, 216, 475, 479, 220, 479, 475, 474, 225, 482, 480, 483, 471, 473, 214, 212, 476, 480, 478, 477, 227, 469, 468, 226, 474, 226, 481, 225, 483, 480, 476, 12, 10, 238, 240, 224, 217, 221, 220, 489, 215, 216, 486, 213, 214, 485, 212, 214, 213, 484, 489, 217, 224, 222, 222, 224, 223, 484, 213, 216, 215, 488, 487, 221, 219, 212, 484, 223, 218, 217, 489, 220, 488, 222, 213, 486]
            rel material:binding = </root/_materials/Main>
            normal3f[] normals = [(0.021107858, 0.79834205, 0.60183424), (0.021107858, 0.79834205, 0.60183424), (0.021107858, 0.79834205, 0.60183424), (0.9999732, -5.4598786e-7, 0.007309917), (0.99997234, 0, 0.0074350922), (0.99997234, 0, 0.0074350922), (0.9999732, -4.0844316e-7, 0.0073099174), (0.017800944, 0.48789537, -0.8727206), (0.017800944, 0.48789537, -0.8727206), (0.017800944, 0.48789537, -0.8727206), (0.017800944, 0.48789537, -0.8727206), (0, 1, 0), (0, 1, 0), (0, 1, 6.9319426e-9), (0, 1, 0), (-0.009269063, 0.332883, 0.94292253), (-0.009269063, 0.332883, 0.94292253), (-0.009269063, 0.332883, 0.94292253), (-0.009269063, 0.332883, 0.94292253), (0.9999838, 0, -0.00567889), (0.9999838, 0, -0.00567889), (0.9999732, -5.4598786e-7, 0.007309917), (0.9999732, -4.0844316e-7, 0.0073099174), (-0.1426707, 0.7724505, 0.6188419), (-0.1426707, 0.7724505, 0.6188419), (-0.1426707, 0.7724505, 0.6188419), (0.9829143, 0.18404195, -0.0028454852), (0.9830678, 0.18321015, -0.0034035048), (0.9830678, 0.18321015, -0.0034035048), (0.9816436, 0.19071704, 0.001634357), (3.4457494e-7, 0, 1), (3.4457491e-7, 0, 1), (-1.3631609e-7, 0, 1), (-1.3631609e-7, 0, 1), (-0.00278049, 0, 0.9999962), (-0.00278049, 0, 0.9999962), (-0.00278049, 0, 0.9999962), (-0.00278049, 0, 0.9999962), (-0.8014486, 0.5947063, -0.06328234), (-0.8014486, 0.5947063, -0.06328234), (-0.8014486, 0.5947063, -0.06328234), (-0.8014486, 0.5947063, -0.06328234), (-0.4513813, 0.8912641, 0.043627173), (-0.4513813, 0.8912641, 0.043627173), (-0.4513813, 0.8912641, 0.043627173), (-0.4513813, 0.8912641, 0.043627173), (4.8940154e-7, 0, -1), (-7.5345525e-8, 0, -0.99999994), (-7.5345525e-8, 0, -0.99999994), (4.894016e-7, 0, -1), (0, 1, 0), (0, 1, 6.9319426e-9), (0, 1, 1.6888814e-8), (0, 1, 0), (0, 1, 6.9319426e-9), (0, 1, 1.5327247e-8), (0, 1, 3.180412e-8), (0, 1, 3.180412e-8), (0, 1, 1.6888814e-8), (-0.12827715, 0.37956554, -0.9162287), (-0.12827715, 0.37956554, -0.9162287), (-0.12827715, 0.37956554, -0.9162287), (-0.12827715, 0.37956554, -0.9162287), (0.0000010765218, 0, -1), (4.8940154e-7, 0, -1), (4.894016e-7, 0, -1), (0.0000010765218, 0, -1), (0.022939557, 0.59757507, 0.80148476), (0.022939557, 0.59757507, 0.80148476), (0.022939557, 0.59757507, 0.80148476), (0.022939557, 0.59757507, 0.80148476), (0.022939557, 0.59757507, 0.80148476), (-0.99999654, 0, -0.0026210458), (-0.99999654, 0, -0.002621046), (-0.9999895, 0, -0.00460123), (-0.9999895, 0, -0.00460123), (0.9814682, 0.19161229, 0.002235923), (0.9829143, 0.18404195, -0.0028454852), (0.9816436, 0.19071704, 0.001634357), (0.9814682, 0.19161229, 0.002235923), (8.7933813e-7, 0, 1), (8.7933813e-7, 0, 1), (3.4457491e-7, 0, 1), (3.4457494e-7, 0, 1), (0, 1, 0), (0, 1, 0), (0, 1, 1.5327247e-8), (0, 1, 6.9319426e-9), (1, 0, 0), (1, 0, 0), (1, 0, 0), (1, 0, 0), (0.00644014, 0.21859293, -0.9757949), (0.00644014, 0.21859293, -0.9757949), (0.00644014, 0.21859293, -0.9757949), (0.00644014, 0.21859293, -0.9757949), (0.00644014, 0.21859293, -0.9757949), (0.0021556248, 0, -0.9999977), (-0.0069355858, 1.329463e-7, -0.999976), (-0.006935585, 7.552444e-8, -0.999976), (0.0021556248, 0, -0.9999977), (-0.00069852633, 0.99880385, -0.048892662), (-0.00069852633, 0.99880385, -0.048892662), (0.0013612596, 0.99879706, -0.049016334), (0.0012089021, 0.9987977, -0.049007196), (-0.00069852633, 0.99880385, -0.048892662), (0.18787064, 0.7221787, -0.6657045), (0.18787064, 0.7221787, -0.6657045), (0.18787064, 0.7221787, -0.6657045), (0.18787064, 0.7221787, -0.6657045), (1, 0, 0), (1, 0, 0), (1, 0, 0), (1, 0, 0), (-0.9997008, 0, 0.024463024), (-0.9997008, 0, 0.024463024), (-0.9997008, 0, 0.024463024), (-0.9997008, 0, 0.024463024), (-0.0071327444, 0, -0.9999745), (-0.006935585, 7.552444e-8, -0.999976), (-0.0069355858, 1.329463e-7, -0.999976), (-0.0071327444, 0, -0.9999745), (-0.00073268334, 0.1839712, -0.9829313), (-0.00073268334, 0.1839712, -0.9829313), (-0.00073268334, 0.1839712, -0.9829313), (-0.00073268334, 0.1839712, -0.9829313), (-0.00073268334, 0.1839712, -0.9829313), (-0.09372301, 0.5899646, 0.80197114), (-0.09372301, 0.5899646, 0.80197114), (-0.09372301, 0.5899646, 0.80197114), (-0.09372301, 0.5899646, 0.80197114), (0.02847693, 0.39884934, 0.9165742), (0.02847693, 0.39884934, 0.9165742), (0.02847693, 0.39884934, 0.9165742), (0.02847693, 0.39884934, 0.9165742), (-0.89115214, 0.45339558, -0.01673964), (-0.89115214, 0.45339558, -0.01673964), (-0.89115214, 0.45339558, -0.01673964), (-0.89115214, 0.45339558, -0.01673964), (0.93213767, 0.36197758, -0.009569509), (0.93213767, 0.36197758, -0.009569509), (0.93213767, 0.36197758, -0.009569509), (0.93213767, 0.36197758, -0.009569509), (3.526436e-7, 0, 1), (3.526436e-7, 0, 1), (1.6653094e-7, 0, 1), (1.6653095e-7, 0, 1), (0.0057417694, 0.21153016, 0.9773546), (0.0057417694, 0.21153016, 0.9773546), (0.0057417694, 0.21153016, 0.9773546), (0.0057417694, 0.21153016, 0.9773546), (0.0057417694, 0.21153016, 0.9773546), (0.0015466587, 0, -0.9999988), (-0.0055062757, 1.9668369e-7, -0.99998486), (-0.0055062748, -4.7817593e-8, -0.99998486), (0.0015466587, 0, -0.9999988), (-0.07469236, 0.73321515, 0.6758819), (-0.07469236, 0.73321515, 0.6758819), (-0.07469236, 0.73321515, 0.6758819), (-0.07469236, 0.73321515, 0.6758819), (-0.99998957, 0, 0.0045820526), (-0.99998957, 0, 0.0045820526), (-0.99998957, 0, 0.0045820526), (-0.99998957, 0, 0.0045820526), (0.0017210506, 0.99884105, 0.048100796), (0.0001550274, 0.9988386, 0.04818162), (0.000067833265, 0.99883837, 0.048186116), (0.0017210506, 0.99884105, 0.048100796), (0.0017210506, 0.99884105, 0.048100796), (-0.9236739, 0.38166815, 0.033999078), (-0.9236739, 0.38166815, 0.033999078), (-0.9236739, 0.38166815, 0.033999078), (-0.9236739, 0.38166815, 0.033999078), (0.18787181, 0.72217625, 0.66570675), (0.18787181, 0.72217625, 0.66570675), (0.18787181, 0.72217625, 0.66570675), (0.18787181, 0.72217625, 0.66570675), (-0.046704195, 0.56034285, -0.826943), (-0.046704195, 0.56034285, -0.826943), (-0.046704195, 0.56034285, -0.826943), (-0.046704195, 0.56034285, -0.826943), (-0.0015727094, 0.998833, 0.048270658), (-0.0015727094, 0.998833, 0.048270658), (0.000067833265, 0.99883837, 0.048186116), (0.0001550274, 0.9988386, 0.04818162), (-0.0064456416, -2.447632e-7, 0.9999792), (-0.006592005, 0, 0.9999783), (-0.006592005, 0, 0.9999783), (-0.006445642, 4.2491592e-9, 0.99997926), (0.0610586, 0.39954552, -0.9146776), (0.0610586, 0.39954552, -0.9146776), (0.0610586, 0.39954552, -0.9146776), (0.0610586, 0.39954552, -0.9146776), (-0.0017599013, 0.24772273, 0.9688294), (-0.0017599013, 0.24772273, 0.9688294), (-0.0017599013, 0.24772273, 0.9688294), (-0.0017599013, 0.24772273, 0.9688294), (-1, 0, 0), (-1, 0, 0), (-1, 0, 0), (-1, 0, 0), (-0.0055062748, -4.7817593e-8, -0.99998486), (-0.0055062757, 1.9668369e-7, -0.99998486), (-0.0056464993, 0, -0.9999841), (-0.0056464993, 0, -0.9999841), (-0.046247445, 0, 0.99893004), (-0.046247445, 0, 0.99893004), (-0.046247445, 0, 0.99893004), (-0.046247445, 0, 0.99893004), (0.9321335, 0.3619911, 0.00946684), (0.9321335, 0.3619911, 0.00946684), (0.9321335, 0.3619911, 0.00946684), (0.9321335, 0.3619911, 0.00946684), (0.0032743705, 0.99878705, -0.049131017), (0.0032743705, 0.99878705, -0.049131017), (0.0032743705, 0.99878705, -0.049131017), (0.0012089021, 0.9987977, -0.049007196), (0.0013612596, 0.99879706, -0.049016334), (-0.10151411, 0.731474, -0.6742705), (-0.10151411, 0.731474, -0.6742705), (-0.10151411, 0.731474, -0.6742705), (-0.10151411, 0.731474, -0.6742705), (0.9552042, 0.2915933, 0.050577685), (0.9552042, 0.2915933, 0.050577685), (0.9552042, 0.2915933, 0.050577685), (0.9552042, 0.2915933, 0.050577685), (-0.9999987, 0, -0.0016049126), (-0.999978, 1.5692785e-7, 0.006632858), (-0.999978, 2.5742338e-8, 0.006632858), (-0.9999987, 0, -0.0016049126), (7.29796e-8, 0, -1), (3.1313903e-8, 0, -1), (3.1313903e-8, 0, -1), (7.29796e-8, 0, -1), (1.6653095e-7, 0, 1), (1.6653094e-7, 0, 1), (0, 0, 1), (0, 0, 1), (0.014963014, 0.9995811, -0.024775613), (0.014963014, 0.9995811, -0.024775613), (0.014963014, 0.9995811, -0.024775613), (0.014963014, 0.9995811, -0.024775613), (0.048924807, 0.54316735, 0.8381978), (0.048924807, 0.54316735, 0.8381978), (0.048924807, 0.54316735, 0.8381978), (0.048924807, 0.54316735, 0.8381978), (0.054163553, 0.43228275, -0.90011), (0.054163553, 0.43228275, -0.90011), (0.054163553, 0.43228275, -0.90011), (0.054163553, 0.43228275, -0.90011), (-0.83946615, 0.54222625, 0.03587816), (-0.83946615, 0.54222625, 0.03587816), (-0.83946615, 0.54222625, 0.03587816), (-0.83946615, 0.54222625, 0.03587816), (0.015413053, 0.99967974, 0.02007135), (0.015413053, 0.99967974, 0.02007135), (0.015413053, 0.99967974, 0.02007135), (0.015413053, 0.99967974, 0.02007135), (0.9999854, 0, -0.005399424), (0.9999854, 0, -0.005399424), (0.9999998, 0, 0.0006071946), (0.9999998, 0, 0.000607195), (-0.9177222, 0.39230734, -0.062297445), (-0.9177222, 0.39230734, -0.062297445), (-0.9177222, 0.39230734, -0.062297445), (-0.9177222, 0.39230734, -0.062297445), (0.95827305, 0.28220412, -0.045536056), (0.95827305, 0.28220412, -0.045536056), (0.95827305, 0.28220412, -0.045536056), (0.95827305, 0.28220412, -0.045536056), (3.1313903e-8, 0, -1), (-8.6775005e-9, 0, -1), (-8.6775005e-9, 0, -1), (3.1313903e-8, 0, -1), (-0.999978, 2.5742338e-8, 0.006632858), (-0.999978, 1.5692785e-7, 0.006632858), (-0.9999766, 0, 0.0068436307), (-0.9999766, 0, 0.0068436307), (-0.0034677293, 0, -0.999994), (-0.0034677293, 0, -0.999994), (-0.0034677293, 0, -0.999994), (-0.0034677293, 0, -0.999994), (0.014921626, 0.38008544, -0.924831), (0.014921626, 0.38008544, -0.924831), (0.014921626, 0.38008544, -0.924831), (0.014921626, 0.38008544, -0.924831), (0.9999998, 0, 0.0006071946), (0.9999771, 0, 0.0067654913), (0.9999771, 0, 0.0067654913), (0.9999998, 0, 0.000607195), (0.006723522, 0.99895585, 0.04518862), (0.006723522, 0.99895585, 0.04518862), (0.006723522, 0.99895585, 0.04518862), (0.006723522, 0.99895585, 0.04518862), (-0.026732458, 0.44175643, 0.8967367), (-0.026732458, 0.44175643, 0.8967367), (-0.026732458, 0.44175643, 0.8967367), (-0.026732458, 0.44175643, 0.8967367), (0.01055844, 0.9984102, -0.05536723), (0.01055844, 0.9984102, -0.05536723), (0.01055844, 0.9984102, -0.05536723), (0.01055844, 0.9984102, -0.05536723), (1, 0, 0), (1, 0, 0), (1, 0, 0), (1, 0, 0), (0.0064402088, 0.21859306, 0.97579485), (0.0064402088, 0.21859306, 0.97579485), (0.0064402088, 0.21859306, 0.97579485), (0.0064402088, 0.21859306, 0.97579485), (0.0064402088, 0.21859306, 0.97579485), (0.002697145, 0, 0.99999636), (0.002697145, 0, 0.99999636), (-0.0069169663, -2.1536835e-7, 0.99997616), (-0.0069650025, -6.8102963e-9, 0.9999757), (-0.00087846915, 0.99882305, 0.048493754), (-0.00087846915, 0.99882305, 0.048493754), (0.0010886646, 0.99881727, 0.04860829), (0.0012391744, 0.99881667, 0.048617046), (-0.00087846915, 0.99882305, 0.048493754), (0.18787095, 0.72217983, 0.66570324), (0.18787095, 0.72217983, 0.66570324), (0.18787095, 0.72217983, 0.66570324), (0.18787095, 0.72217983, 0.66570324), (-0.04624869, 0, -0.99893), (-0.04624869, 0, -0.99893), (-0.04624869, 0, -0.99893), (-0.04624869, 0, -0.99893), (-0.9997052, 0, -0.024280353), (-0.9997052, 0, -0.024280353), (-0.9997052, 0, -0.024280353), (-0.9997052, 0, -0.024280353), (-0.0069169663, -2.1536835e-7, 0.99997616), (-0.0071329433, 0, 0.9999745), (-0.0071329433, 0, 0.9999745), (-0.0069650025, -6.8102963e-9, 0.9999757), (-0.0009421975, 0.19246766, 0.9813029), (-0.0009421975, 0.19246766, 0.9813029), (-0.0009421975, 0.19246766, 0.9813029), (-0.0009421975, 0.19246766, 0.9813029), (-0.0009421975, 0.19246766, 0.9813029), (-0.09372384, 0.58996475, -0.80197096), (-0.09372384, 0.58996475, -0.80197096), (-0.09372384, 0.58996475, -0.80197096), (-0.09372384, 0.58996475, -0.80197096), (0.03604643, 0.39946228, -0.91604066), (0.03604643, 0.39946228, -0.91604066), (0.03604643, 0.39946228, -0.91604066), (0.03604643, 0.39946228, -0.91604066), (-0.8911449, 0.45341492, 0.016610974), (-0.8911449, 0.45341492, 0.016610974), (-0.8911449, 0.45341492, 0.016610974), (-0.8911449, 0.45341492, 0.016610974), (0.9262619, 0.37674055, 0.010265493), (0.9262619, 0.37674055, 0.010265493), (0.9262619, 0.37674055, 0.010265493), (0.9262619, 0.37674055, 0.010265493), (0.0032060225, 0.9988067, 0.048731357), (0.0012391744, 0.99881667, 0.048617046), (0.0010886646, 0.99881727, 0.04860829), (0.0032060225, 0.9988067, 0.048731357), (0.0032060225, 0.9988067, 0.048731357), (-0.10151395, 0.73147404, 0.6742705), (-0.10151395, 0.73147404, 0.6742705), (-0.10151395, 0.73147404, 0.6742705), (-0.10151395, 0.73147404, 0.6742705), (-0.0002932105, 0, -0.9999999), (-0.0002932105, 0, -0.9999999), (-0.0002932105, 0, -0.9999999), (-0.0002932105, 0, -0.9999999), (-0.0011056584, 0.998443, -0.055770107), (-0.0011056584, 0.998443, -0.055770107), (-0.0011056584, 0.998443, -0.055770107), (-0.0011056584, 0.998443, -0.055770107), (0.017280897, 0, 0.9998507), (0.017280897, 0, 0.9998507), (0.017280897, 0, 0.9998507), (0.017280897, 0, 0.9998507), (-0.0045077205, 0.47707328, 0.87885183), (-0.0045077205, 0.47707328, 0.87885183), (-0.0045077205, 0.47707328, 0.87885183), (-0.0045077205, 0.47707328, 0.87885183), (1, 0, 0), (1, 0, 0), (1, 0, 0), (1, 0, 0), (0.82435054, 0.56353694, -0.053592354), (0.82435054, 0.56353694, -0.053592354), (0.82435054, 0.56353694, -0.053592354), (0.82435054, 0.56353694, -0.053592354), (0.004435366, 0, 0.99999017), (0.004435366, 0, 0.99999017), (-0.0064456416, -2.447632e-7, 0.9999792), (-0.006445642, 4.2491592e-9, 0.99997926), (-0.014578151, 0.32763627, -0.9446914), (-0.014578151, 0.32763627, -0.9446914), (-0.014578151, 0.32763627, -0.9446914), (-0.014578151, 0.32763627, -0.9446914), (-0.93159115, 0.36335713, -0.010471886), (-0.93159115, 0.36335713, -0.010471886), (-0.93159115, 0.36335713, -0.010471886), (-0.93159115, 0.36335713, -0.010471886), (-0.99999994, 0, 0), (-0.99999994, 0, 0), (-0.99999994, 0, 0), (-0.99999994, 0, 0), (0.0015061024, 0.28598836, 0.95823187), (0.0015061024, 0.28598836, 0.95823187), (0.0015061024, 0.28598836, 0.95823187), (0.0015061024, 0.28598836, 0.95823187), (0.0054356204, -5.372567e-8, -0.9999853), (-0.0016192681, 0, -0.99999875), (-0.0016192681, 0, -0.99999875), (0.00543562, -9.336509e-8, -0.9999853), (0.07343889, 0.73328674, 0.6759417), (0.07343889, 0.73328674, 0.6759417), (0.07343889, 0.73328674, 0.6759417), (0.07343889, 0.73328674, 0.6759417), (0.999885, 0, 0.01516563), (0.999885, 0, 0.01516563), (0.999885, 0, 0.01516563), (0.999885, 0, 0.01516563), (0.043746524, 0.9969017, 0.06537003), (0.043746524, 0.9969017, 0.06537003), (0.043746524, 0.9969017, 0.06537003), (0.043746524, 0.9969017, 0.06537003), (0.94359875, 0.3282774, 0.043074276), (0.94359875, 0.3282774, 0.043074276), (0.94359875, 0.3282774, 0.043074276), (0.94359875, 0.3282774, 0.043074276), (-0.058684736, 0.7340047, 0.67660415), (-0.058684736, 0.7340047, 0.67660415), (-0.058684736, 0.7340047, 0.67660415), (-0.058684736, 0.7340047, 0.67660415), (0.04055375, 0.5250262, -0.8501193), (0.04055375, 0.5250262, -0.8501193), (0.04055375, 0.5250262, -0.8501193), (0.04055375, 0.5250262, -0.8501193), (0.0017911633, 0.9987037, 0.050870597), (0.0017911633, 0.9987037, 0.050870597), (0.0017911633, 0.9987037, 0.050870597), (0.0017911633, 0.9987037, 0.050870597), (0.0070699104, 0, 0.999975), (0.006924007, 4.1769817e-7, 0.999976), (0.0069240076, 4.331814e-7, 0.999976), (0.0070699104, 0, 0.999975), (-0.060114235, 0.39953032, -0.91474694), (-0.060114235, 0.39953032, -0.91474694), (-0.060114235, 0.39953032, -0.91474694), (-0.060114235, 0.39953032, -0.91474694), (0.0017330545, 0.24772121, 0.9688299), (0.0017330545, 0.24772121, 0.9688299), (0.0017330545, 0.24772121, 0.9688299), (0.0017330545, 0.24772121, 0.9688299), (-0.004371658, 0, 0.99999046), (0.0069240076, 4.331814e-7, 0.999976), (0.006924007, 4.1769817e-7, 0.999976), (-0.004371658, 0, 0.99999046), (0.00543562, -9.336509e-8, -0.9999853), (0.005567705, 0, -0.9999845), (0.005567705, 0, -0.9999845), (0.0054356204, -5.372567e-8, -0.9999853), (-0.93215424, 0.36192483, 0.009939831), (-0.93215424, 0.36192483, 0.009939831), (-0.93215424, 0.36192483, 0.009939831), (-0.93215424, 0.36192483, 0.009939831), (0.006322084, 0, -0.99998003), (0.0041558165, 0, -0.99999136), (0.0041558165, 0, -0.99999136), (0.006322084, 0, -0.99998003), (-1, 0, 0), (-1, 0, 0), (-1, 0, 0), (-1, 0, 0), (-0.0064404802, 0.21859245, 0.9757949), (-0.0064404802, 0.21859245, 0.9757949), (-0.0064404802, 0.21859245, 0.9757949), (-0.0064404802, 0.21859245, 0.9757949), (-0.0064404802, 0.21859245, 0.9757949), (-0.003242221, 0, 0.99999475), (0.0069477987, 3.228779e-7, 0.9999758), (0.006947798, -9.0920366e-8, 0.9999758), (-0.003242221, 0, 0.99999475), (0.0011656521, 0.998761, 0.049749438), (0.0011656521, 0.998761, 0.049749438), (-0.00072082964, 0.9987642, 0.049693536), (-0.0006159794, 0.9987641, 0.049696643), (0.0011656521, 0.998761, 0.049749438), (-0.18787368, 0.72217774, 0.6657048), (-0.18787368, 0.72217774, 0.6657048), (-0.18787368, 0.72217774, 0.6657048), (-0.18787368, 0.72217774, 0.6657048), (0.006322084, 0, -0.99998003), (0.008399221, 0, -0.99996465), (0.008399221, 0, -0.99996465), (0.006322084, 0, -0.99998003), (0.9996989, 0, -0.02454085), (0.9996989, 0, -0.02454085), (0.9996989, 0, -0.02454085), (0.9996989, 0, -0.02454085), (0.007133545, 0, 0.99997455), (0.006947798, -9.0920366e-8, 0.9999758), (0.0069477987, 3.228779e-7, 0.9999758), (0.007133545, 0, 0.99997455), (0.0011611903, 0.20116757, 0.97955614), (0.0011611903, 0.20116757, 0.97955614), (0.0011611903, 0.20116757, 0.97955614), (0.0011611903, 0.20116757, 0.97955614), (0.0011611903, 0.20116757, 0.97955614), (0.06380204, 0.5726332, -0.81732523), (0.06380204, 0.5726332, -0.81732523), (0.06380204, 0.5726332, -0.81732523), (0.06380204, 0.5726332, -0.81732523), (-0.043697484, 0.39933452, -0.9157633), (-0.043697484, 0.39933452, -0.9157633), (-0.043697484, 0.39933452, -0.9157633), (-0.043697484, 0.39933452, -0.9157633), (0.89115435, 0.45338944, 0.016794477), (0.89115435, 0.45338944, 0.016794477), (0.89115435, 0.45338944, 0.016794477), (0.89115435, 0.45338944, 0.016794477), (-0.9309203, 0.3650884, 0.0098982025), (-0.9309203, 0.3650884, 0.0098982025), (-0.9309203, 0.3650884, 0.0098982025), (-0.9309203, 0.3650884, 0.0098982025), (0.9999995, 0, 0.000979578), (0.99999934, 0, -0.001175972), (0.99999934, 0, -0.001175972), (0.9999995, 0, 0.000979578), (-0.0024729786, 0.99876404, 0.04964146), (-0.0024729786, 0.99876404, 0.04964146), (-0.0024729786, 0.99876404, 0.04964146), (-0.0006159794, 0.9987641, 0.049696643), (-0.00072082964, 0.9987642, 0.049693536), (0.101514995, 0.731472, 0.6742724), (0.101514995, 0.731472, 0.6742724), (0.101514995, 0.731472, 0.6742724), (0.101514995, 0.731472, 0.6742724), (-0.9999998, 0, -0.00058662525), (-0.99997777, 0, -0.00667792), (-0.99997777, 0, -0.00667792), (-0.9999998, 0, -0.00058662466), (-0.024562739, 0.487083, 0.8730102), (-0.024562739, 0.487083, 0.8730102), (-0.024562739, 0.487083, 0.8730102), (-0.024562739, 0.487083, 0.8730102), (0, 1, 0), (0, 1, 0), (0, 1, 0), (0, 1, 0), (0.0092697395, 0.33288115, -0.9429231), (0.0092697395, 0.33288115, -0.9429231), (0.0092697395, 0.33288115, -0.9429231), (0.0092697395, 0.33288115, -0.9429231), (-0.9621097, 0.27023527, 0.03630159), (-0.9621097, 0.27023527, 0.03630159), (-0.9621097, 0.27023527, 0.03630159), (-0.9621097, 0.27023527, 0.03630159), (-9.746123e-8, 0, -1), (-9.746123e-8, 0, -1), (-1.8384868e-7, 0, -0.99999994), (-1.8384868e-7, 0, -0.99999994), (0.747701, 0.6614739, 0.0582724), (0.747701, 0.6614739, 0.0582724), (0.747701, 0.6614739, 0.0582724), (0.747701, 0.6614739, 0.0582724), (0.41216794, 0.91013616, -0.042067114), (0.41216794, 0.91013616, -0.042067114), (0.41216794, 0.91013616, -0.042067114), (0.41216794, 0.91013616, -0.042067114), (-2.3305476e-7, 0, 1), (-1.1584613e-7, 0, 1), (-1.1584613e-7, 0, 1), (-2.3305476e-7, 0, 1), (0.11985653, 0.99139076, -0.052712653), (0.11985653, 0.99139076, -0.052712653), (0.11985653, 0.99139076, -0.052712653), (0.11985653, 0.99139076, -0.052712653), (-0.022468258, 0.9978157, -0.062121402), (-0.022468258, 0.9978157, -0.062121402), (-0.022468258, 0.9978157, -0.062121402), (-0.022468258, 0.9978157, -0.062121402), (0.06631273, 0.44321528, 0.893959), (0.06631273, 0.44321528, 0.893959), (0.06631273, 0.44321528, 0.893959), (0.06631273, 0.44321528, 0.893959), (-0.9999857, 0, 0.005359974), (-0.9999857, 0, 0.005359974), (-0.9999998, 0, -0.00058662525), (-0.9999998, 0, -0.00058662466), (-0.032644134, 0.53904027, -0.84164715), (-0.032644134, 0.53904027, -0.84164715), (-0.032644134, 0.53904027, -0.84164715), (-0.032644134, 0.53904027, -0.84164715), (-0.9814843, 0.19153257, -0.0019970497), (-0.9814843, 0.19153257, -0.0019970497), (-0.9814843, 0.19153257, -0.0019970497), (-0.9814843, 0.19153257, -0.0019970497), (0, 0, -1), (0, 0, -1), (-9.746123e-8, 0, -1), (-9.746123e-8, 0, -1), (0, 1, 0), (0, 0.99999994, 0), (0, 0.99999994, 0), (0, 1, 0), (3.7606448e-8, 0, 1), (3.7606448e-8, 0, 1), (3.7606448e-8, 0, 1), (3.7606448e-8, 0, 1), (-0.0038890704, 0, -0.9999924), (-0.0038890704, 0, -0.9999924), (-0.0038890704, 0, -0.9999924), (-0.0038890704, 0, -0.9999924), (0.99994105, 0, 0.010857838), (0.99994105, 0, 0.010857838), (0.99994105, 0, 0.010857838), (0.99994105, 0, 0.010857838), (0.8881046, 0.45941404, 0.014453423), (0.8881046, 0.45941404, 0.014453423), (0.8881046, 0.45941404, 0.014453423), (0.8881046, 0.45941404, 0.014453423), (-0.008673394, 0.38429406, -0.9231699), (-0.008673394, 0.38429406, -0.9231699), (-0.008673394, 0.38429406, -0.9231699), (-0.008673394, 0.38429406, -0.9231699), (-0.012897246, 0.9999169, 0.000016189813), (-0.012897246, 0.9999169, 0.000016189813), (-0.012897246, 0.9999169, 0.000016189813), (-0.012897246, 0.9999169, 0.000016189813), (-0.99999994, 0, 0.000196579), (-0.99999994, 0, 0.000196579), (-0.99999994, 0, 0.000196579), (-0.99999994, 0, 0.000196579), (-0.96521807, 0.2613514, 0.0070400103), (-0.96521807, 0.2613514, 0.0070400103), (-0.96521807, 0.2613514, 0.0070400103), (-0.96521807, 0.2613514, 0.0070400103), (-3.555724e-7, 0, 1), (-2.3305476e-7, 0, 1), (-2.3305476e-7, 0, 1), (-3.555724e-7, 0, 1), (-0.0027891444, 0.35992154, 0.9329784), (-0.0027891444, 0.35992154, 0.9329784), (-0.0027891444, 0.35992154, 0.9329784), (-0.0027891444, 0.35992154, 0.9329784), (0.99999934, 0, -0.001175972), (0.99999934, 0, -0.001175972), (0.99999374, 0, -0.0035152705), (0.99999374, 0, -0.0035152705), (0.9999995, 0, 0.0009795383), (0.9999935, 1.0363874e-7, -0.003598164), (0.9999938, -1.6152626e-9, -0.0035502736), (0.9999995, 0, 0.0009795383), (-0.021107266, 0.79834193, -0.6018345), (-0.021107266, 0.79834193, -0.6018345), (-0.021107266, 0.79834193, -0.6018345), (-0.9999733, -3.6228448e-7, -0.0073076775), (-0.9999724, 0, -0.00743509), (-0.9999724, 0, -0.00743509), (-0.9999733, 1.0296935e-7, -0.007307677), (-0.017958077, 0.48796266, 0.8726797), (-0.017958077, 0.48796266, 0.8726797), (-0.017958077, 0.48796266, 0.8726797), (-0.017958077, 0.48796266, 0.8726797), (0, 1, 0), (0, 1, -9.0879e-8), (0, 1, 6.023596e-8), (0, 1, 9.384565e-8), (0.0072928728, 0.3334252, -0.94274837), (0.0072928728, 0.3334252, -0.94274837), (0.0072928728, 0.3334252, -0.94274837), (0.0072928728, 0.3334252, -0.94274837), (-0.99998623, 0, 0.005255833), (-0.99998623, 0, 0.005255833), (-0.9999733, -3.6228448e-7, -0.0073076775), (-0.9999733, 1.0296935e-7, -0.007307677), (0.11578845, 0.77822965, -0.6172128), (0.11578845, 0.77822965, -0.6172128), (0.11578845, 0.77822965, -0.6172128), (-0.9829094, 0.18407229, 0.0025685553), (-0.983071, 0.18319835, 0.0031248562), (-0.983071, 0.18319835, 0.0031248562), (-0.9816393, 0.19073902, -0.0016788424), (0.0000012697934, 0, -1), (0.0000012697932, 0, -1), (0, 0, -0.99999994), (0, 0, -0.99999994), (1, 0, 0), (1, 0, 0), (1, 0, 0), (1, 0, 0), (0.81841946, 0.5722446, 0.05220867), (0.81841946, 0.5722446, 0.05220867), (0.81841946, 0.5722446, 0.05220867), (0.81841946, 0.5722446, 0.05220867), (0.47696483, 0.8777921, -0.04455917), (0.47696483, 0.8777921, -0.04455917), (0.47696483, 0.8777921, -0.04455917), (0.47696483, 0.8777921, -0.04455917), (-4.4091905e-8, 0, 1), (-2.6062952e-7, 0, 1), (-2.6062952e-7, 0, 1), (-4.4091895e-8, 0, 1), (0, 1, 9.384565e-8), (0, 1, 6.023596e-8), (0, 1, 2.0720829e-7), (0, 1, 1.8698957e-7), (0, 1, 6.023596e-8), (0, 1, 1.5613809e-8), (0, 1, 2.246046e-7), (0, 1, 2.246046e-7), (0, 1, 2.0720829e-7), (0.10059146, 0.38666573, 0.9167175), (0.10059146, 0.38666573, 0.9167175), (0.10059146, 0.38666573, 0.9167175), (0.10059146, 0.38666573, 0.9167175), (1.797852e-7, 0, 1), (-4.4091905e-8, 0, 1), (-4.4091895e-8, 0, 1), (1.797852e-7, 0, 1), (-0.023203397, 0.5982189, -0.80099666), (-0.023203397, 0.5982189, -0.80099666), (-0.023203397, 0.5982189, -0.80099666), (-0.023203397, 0.5982189, -0.80099666), (-0.023203397, 0.5982189, -0.80099666), (0.9999938, -1.6152626e-9, -0.0035502736), (0.9999935, 1.0363874e-7, -0.003598164), (0.99999326, 0, -0.0036864707), (0.99999326, 0, -0.0036864707), (-0.9814682, 0.19161233, -0.0022359416), (-0.9829094, 0.18407229, 0.0025685553), (-0.9816393, 0.19073902, -0.0016788424), (-0.9814682, 0.19161233, -0.0022359416), (0.000002660224, 0, -1), (0.000002660224, 0, -1), (0.0000012697932, 0, -1), (0.0000012697934, 0, -1), (0, 1, -9.0879e-8), (0, 0.99999994, -1.7889774e-7), (0, 1, 1.5613809e-8), (0, 1, 6.023596e-8), (-1, 0, 0), (-1, 0, 0), (-1, 0, 0), (-1, 0, 0), (-0.0064375503, 0.21859275, -0.9757949), (-0.0064375503, 0.21859275, -0.9757949), (-0.0064375503, 0.21859275, -0.9757949), (-0.0064375503, 0.21859275, -0.9757949), (-0.0064375503, 0.21859275, -0.9757949), (-0.002809362, 0, -0.99999607), (-0.002809362, 0, -0.99999607), (0.006912119, -4.163594e-7, -0.99997616), (0.00691212, -3.206951e-7, -0.99997616), (0.0010330796, 0.9987205, -0.050559316), (0.0010330796, 0.9987205, -0.050559316), (-0.00050353626, 0.99872863, -0.050407093), (-0.0005870002, 0.998729, -0.050398823), (0.0010330796, 0.9987205, -0.050559316), (-0.18787137, 0.7221791, -0.66570395), (-0.18787137, 0.7221791, -0.66570395), (-0.18787137, 0.7221791, -0.66570395), (-0.18787137, 0.7221791, -0.66570395), (-0.011582658, 0, 0.99993294), (-0.011582658, 0, 0.99993294), (-0.011582658, 0, 0.99993294), (-0.011582658, 0, 0.99993294), (0.9996941, 0, 0.024731643), (0.9996941, 0, 0.024731643), (0.9996941, 0, 0.024731643), (0.9996941, 0, 0.024731643), (0.006912119, -4.163594e-7, -0.99997616), (0.0071338103, 0, -0.9999745), (0.0071338103, 0, -0.9999745), (0.00691212, -3.206951e-7, -0.99997616), (0.0009847407, 0.19407415, -0.9809864), (0.0009847407, 0.19407415, -0.9809864), (0.0009847407, 0.19407415, -0.9809864), (0.0009847407, 0.19407415, -0.9809864), (0.0009847407, 0.19407415, -0.9809864), (0.047531556, 0.56288517, 0.82516724), (0.047531556, 0.56288517, 0.82516724), (0.047531556, 0.56288517, 0.82516724), (0.047531556, 0.56288517, 0.82516724), (-0.037544426, 0.39908776, 0.9161437), (-0.037544426, 0.39908776, 0.9161437), (-0.037544426, 0.39908776, 0.9161437), (-0.037544426, 0.39908776, 0.9161437), (0.89116234, 0.45336875, -0.01692901), (0.89116234, 0.45336875, -0.01692901), (0.89116234, 0.45336875, -0.01692901), (0.89116234, 0.45336875, -0.01692901), (-0.93215144, 0.36193362, -0.009880847), (-0.93215144, 0.36193362, -0.009880847), (-0.93215144, 0.36193362, -0.009880847), (-0.93215144, 0.36193362, -0.009880847), (-9.774686e-7, 0, 1), (-9.774686e-7, 0, 1), (-9.774686e-7, 0, 1), (-9.774686e-7, 0, 1), (-0.002091718, 0.9987345, -0.050249636), (-0.0005870002, 0.998729, -0.050398823), (-0.00050353626, 0.99872863, -0.050407093), (-0.002091718, 0.9987345, -0.050249636), (-0.002091718, 0.9987345, -0.050249636), (0.101514444, 0.7314739, -0.6742705), (0.101514444, 0.7314739, -0.6742705), (0.101514444, 0.7314739, -0.6742705), (0.101514444, 0.7314739, -0.6742705), (-0.00716402, 0, -0.9999744), (-0.00716402, 0, -0.9999744), (-0.00716402, 0, -0.9999744), (-0.00716402, 0, -0.9999744), (0.99993664, 0, 0.011261416), (0.99993664, 0, 0.011261416), (0.99993664, 0, 0.011261416), (0.99993664, 0, 0.011261416), (0.8880952, 0.4594135, 0.015034811), (0.8880952, 0.4594135, 0.015034811), (0.8880952, 0.4594135, 0.015034811), (0.8880952, 0.4594135, 0.015034811), (-0.016170997, 0.38251728, -0.92380685), (-0.016170997, 0.38251728, -0.92380685), (-0.016170997, 0.38251728, -0.92380685), (-0.016170997, 0.38251728, -0.92380685), (-0.025069317, 0.99968565, 0.00045877567), (-0.025069317, 0.99968565, 0.00045877567), (-0.025069317, 0.99968565, 0.00045877567), (-0.025069317, 0.99968565, 0.00045877567), (-0.9999999, 0, 0.00043800005), (-0.9999999, 0, 0.00043800005), (-0.9999999, 0, 0.00043800005), (-0.9999999, 0, 0.00043800005), (-0.97662336, 0.21377487, 0.022520255), (-0.97662336, 0.21377487, 0.022520255), (-0.97662336, 0.21377487, 0.022520255), (-0.97662336, 0.21377487, 0.022520255), (0.00028901728, 0, 0.9999999), (0.00028901728, 0, 0.9999999), (0.00028901728, 0, 0.9999999), (0.00028901728, 0, 0.9999999), (-0.0053336783, 0.35983598, 0.9330004), (-0.0053336783, 0.35983598, 0.9330004), (-0.0053336783, 0.35983598, 0.9330004), (-0.0053336783, 0.35983598, 0.9330004), (0.00059743214, 0.9985253, 0.054283943), (0.00059743214, 0.9985253, 0.054283943), (0.00059743214, 0.9985253, 0.054283943), (0.00059743214, 0.9985253, 0.054283943), (-0.0024131022, 0, -0.99999714), (-0.0024131022, 0, -0.99999714), (-0.0024131022, 0, -0.99999714), (-0.0024131022, 0, -0.99999714), (0.017846622, 0.4782067, -0.878066), (0.017846622, 0.4782067, -0.878066), (0.017846622, 0.4782067, -0.878066), (0.017846622, 0.4782067, -0.878066), (-0.99998856, 0, 0.004794444), (-0.99998856, 0, 0.004794444), (-0.99998856, 0, 0.004794444), (-0.99998856, 0, 0.004794444), (-0.92245257, 0.38439694, 0.03633603), (-0.92245257, 0.38439694, 0.03633603), (-0.92245257, 0.38439694, 0.03633603), (-0.92245257, 0.38439694, 0.03633603), (0.0036097523, 0, 0.99999344), (0.0036097523, 0, 0.99999344), (0.0036097523, 0, 0.99999344), (0.0036097523, 0, 0.99999344), (0.014171517, 0.32897204, 0.94423336), (0.014171517, 0.32897204, 0.94423336), (0.014171517, 0.32897204, 0.94423336), (0.014171517, 0.32897204, 0.94423336), (0.93159235, 0.36335796, 0.010332169), (0.93159235, 0.36335796, 0.010332169), (0.93159235, 0.36335796, 0.010332169), (0.93159235, 0.36335796, 0.010332169), (1, 0, 0), (1, 0, 0), (1, 0, 0), (1, 0, 0), (-0.06011441, -0.3995303, -0.9147468), (-0.06011441, -0.3995303, -0.9147468), (-0.06011441, -0.3995303, -0.9147468), (-0.06011441, -0.3995303, -0.9147468), (0.0056526666, 0.21126175, -0.97741324), (0.0056526666, 0.21126175, -0.97741324), (0.0056526666, 0.21126175, -0.97741324), (0.0056526666, 0.21126175, -0.97741324), (0.0056526666, 0.21126175, -0.97741324), (-0.005557765, -1.7299317e-7, 0.99998456), (0.0015081527, 0, 0.99999887), (0.0015081527, 0, 0.99999887), (-0.0055577643, 2.3923349e-8, 0.9999846), (-0.07586182, 0.73315156, -0.6758208), (-0.07586182, 0.73315156, -0.6758208), (-0.07586182, 0.73315156, -0.6758208), (-0.07586182, 0.73315156, -0.6758208), (-0.999989, 0, -0.0046824883), (-0.999989, 0, -0.0046824883), (-0.999989, 0, -0.0046824883), (-0.999989, 0, -0.0046824883), (0.0018525973, 0.99878454, -0.04925479), (0.0018525973, 0.99878454, -0.04925479), (0.0018525973, 0.99878454, -0.04925479), (0.00006381162, 0.9987813, -0.04935517), (0.00015612831, 0.9987815, -0.04934999), (-0.90519124, 0.42324153, -0.038670093), (-0.90519124, 0.42324153, -0.038670093), (-0.90519124, 0.42324153, -0.038670093), (-0.90519124, 0.42324153, -0.038670093), (0.1878711, 0.72217727, -0.665706), (0.1878711, 0.72217727, -0.665706), (0.1878711, 0.72217727, -0.665706), (0.1878711, 0.72217727, -0.665706), (-0.045919526, 0.5614053, 0.82626593), (-0.045919526, 0.5614053, 0.82626593), (-0.045919526, 0.5614053, 0.82626593), (-0.045919526, 0.5614053, 0.82626593), (-0.0017135069, 0.9987749, -0.049454745), (0.00015612831, 0.9987815, -0.04934999), (0.00006381162, 0.9987813, -0.04935517), (-0.0017135069, 0.9987749, -0.049454745), (-0.006432099, 0, -0.99997926), (-0.0008703504, 0, -0.99999964), (-0.00087035063, 0, -0.99999964), (-0.006432099, 0, -0.99997926), (0.06193736, 0.39955705, 0.91461354), (0.06193736, 0.39955705, 0.91461354), (0.06193736, 0.39955705, 0.91461354), (0.06193736, 0.39955705, 0.91461354), (-0.0017853848, 0.24772112, -0.96882975), (-0.0017853848, 0.24772112, -0.96882975), (-0.0017853848, 0.24772112, -0.96882975), (-0.0017853848, 0.24772112, -0.96882975), (0.0044952407, 0, -0.9999899), (-0.00087035063, 0, -0.99999964), (-0.0008703504, 0, -0.99999964), (0.0044952407, 0, -0.9999899), (-0.0055577643, 2.3923349e-8, 0.9999846), (-0.0057196906, 0, 0.9999836), (-0.0057196906, 0, 0.9999836), (-0.005557765, -1.7299317e-7, 0.99998456), (0.9321427, 0.36196157, -0.009682596), (0.9321427, 0.36196157, -0.009682596), (0.9321427, 0.36196157, -0.009682596), (0.9321427, 0.36196157, -0.009682596), (-0.9321545, -0.3619243, 0.009939821), (-0.9321545, -0.3619243, 0.009939821), (-0.9321545, -0.3619243, 0.009939821), (-0.9321545, -0.3619243, 0.009939821), (0.81841975, 0.57224417, 0.052208625), (0.81841975, 0.57224417, 0.052208625), (0.81841975, 0.57224417, 0.052208625), (0.81841975, 0.57224417, 0.052208625), (0.0017911337, -0.99870366, 0.050870366), (0.0017911337, -0.99870366, 0.050870366), (0.0017911337, -0.99870366, 0.050870366), (0.0017911337, -0.99870366, 0.050870366), (0.0017326392, -0.24772125, 0.9688298), (0.0017326392, -0.24772125, 0.9688298), (0.0017326392, -0.24772125, 0.9688298), (0.0017326392, -0.24772125, 0.9688298), (0.10059377, 0.38666573, 0.9167172), (0.10059377, 0.38666573, 0.9167172), (0.10059377, 0.38666573, 0.9167172), (0.10059377, 0.38666573, 0.9167172), (0, -1, -8.430825e-9), (7.0666006e-9, -1, -6.578583e-8), (3.586875e-9, -1, -6.5210315e-8), (0, -1, -8.9527825e-9), (-0.021108447, -0.79834145, -0.6018349), (-0.021108447, -0.79834145, -0.6018349), (-0.021108447, -0.79834145, -0.6018349), (0, 1, 3.5190702e-8), (0, 1, -3.963652e-8), (0, 1, 8.1675964e-8), (0, 1, 8.1675964e-8), (0, 1, 1.3038172e-7), (0.000002660224, 0, -1), (0.000002660224, 0, -1), (0.0000011496807, 0, -1), (0.0000011496808, 0, -1), (-2.1812278e-7, 0, 1), (-3.7445755e-8, 0, 0.99999994), (-3.7445755e-8, 0, 0.99999994), (-2.1812278e-7, 0, 1), (0.9999938, -1.6152626e-9, -0.003550275), (0.9999938, 1.0151416e-7, -0.0035502748), (0.99999326, 0, -0.0036864732), (0.99999326, 0, -0.0036864732), (0.007292495, -0.33342507, -0.94274837), (0.007292495, -0.33342507, -0.94274837), (0.007292495, -0.33342507, -0.94274837), (0.007292495, -0.33342507, -0.94274837), (-0.015384529, -0.48792088, 0.8727523), (-0.015384529, -0.48792088, 0.8727523), (-0.015384529, -0.48792088, 0.8727523), (-0.015384529, -0.48792088, 0.8727523), (0, 1, 9.384568e-8), (0, 1, 3.5190702e-8), (0, 1, 1.3038172e-7), (0, 1, 1.8698962e-7), (0.4769652, 0.87779194, -0.04455916), (0.4769652, 0.87779194, -0.04455916), (0.4769652, 0.87779194, -0.04455916), (0.4769652, 0.87779194, -0.04455916), (-0.9814682, 0.19161223, -0.0022359404), (-0.9829094, 0.18407245, 0.0025685546), (-0.9816393, 0.1907391, -0.0016792674), (-0.9814682, 0.19161223, -0.0022359404), (-4.045167e-7, 0, 1), (-2.1812278e-7, 0, 1), (-2.1812278e-7, 0, 1), (-4.045167e-7, 0, 1), (-0.019708604, 0.59732765, -0.80175513), (-0.019708604, 0.59732765, -0.80175513), (-0.019708604, 0.59732765, -0.80175513), (-0.019708604, 0.59732765, -0.80175513), (-0.019708604, 0.59732765, -0.80175513), (0, 1, -7.73997e-8), (0, 1, -1.5254426e-7), (0, 1, -3.963652e-8), (0, 1, 3.5190702e-8), (0.021107843, -0.7983415, 0.60183495), (0.021107843, -0.7983415, 0.60183495), (0.021107843, -0.7983415, 0.60183495), (0.017800936, -0.48789516, -0.8727207), (0.017800936, -0.48789516, -0.8727207), (0.017800936, -0.48789516, -0.8727207), (0.017800936, -0.48789516, -0.8727207), (0, -1, 0), (0, -1, 7.4457422e-9), (0, -1, 3.320116e-9), (0, -1, -5.7164646e-9), (-0.00926895, -0.33288315, 0.94292253), (-0.00926895, -0.33288315, 0.94292253), (-0.00926895, -0.33288315, 0.94292253), (-0.00926895, -0.33288315, 0.94292253), (-0.14267063, -0.7724501, 0.6188424), (-0.14267063, -0.7724501, 0.6188424), (-0.14267063, -0.7724501, 0.6188424), (0.9829142, -0.18404214, -0.0028460359), (0.9816363, -0.19075453, 0.0016595921), (0.9830679, -0.18321003, -0.0034035298), (0.9830679, -0.18321003, -0.0034035298), (-0.8014489, -0.59470576, -0.06328223), (-0.8014489, -0.59470576, -0.06328223), (-0.8014489, -0.59470576, -0.06328223), (-0.8014489, -0.59470576, -0.06328223), (-0.45138127, -0.891264, 0.043626964), (-0.45138127, -0.891264, 0.043626964), (-0.45138127, -0.891264, 0.043626964), (-0.45138127, -0.891264, 0.043626964), (0, -1, 7.4457422e-9), (0, -1, 1.4849846e-8), (0, -1, 1.1186396e-8), (0, -1, 3.320116e-9), (0, -1, 3.320116e-9), (0, -1, 1.1186396e-8), (0, -0.99999994, 7.95103e-9), (0, -0.99999994, 7.95103e-9), (0, -1, -2.0354403e-9), (-0.12827754, -0.3795654, -0.91622865), (-0.12827754, -0.3795654, -0.91622865), (-0.12827754, -0.3795654, -0.91622865), (-0.12827754, -0.3795654, -0.91622865), (0.022939568, -0.59757537, 0.8014846), (0.022939568, -0.59757537, 0.8014846), (0.022939568, -0.59757537, 0.8014846), (0.022939568, -0.59757537, 0.8014846), (0.022939568, -0.59757537, 0.8014846), (0.98146826, -0.19161214, 0.0022359442), (0.98146826, -0.19161214, 0.0022359442), (0.9816363, -0.19075453, 0.0016595921), (0.9829142, -0.18404214, -0.0028460359), (0, -1, -5.7164646e-9), (0, -1, 3.320116e-9), (0, -1, -2.0354403e-9), (0, -1, -1.1325135e-8), (0.0064401063, -0.21859291, -0.975795), (0.0064401063, -0.21859291, -0.975795), (0.0064401063, -0.21859291, -0.975795), (0.0064401063, -0.21859291, -0.975795), (0.0064401063, -0.21859291, -0.975795), (-0.00069849787, -0.99880385, -0.04889277), (-0.00069849787, -0.99880385, -0.04889277), (0.001208835, -0.9987977, -0.049007297), (0.0013611851, -0.99879706, -0.04901644), (-0.00069849787, -0.99880385, -0.04889277), (0.18787096, -0.7221787, -0.6657044), (0.18787096, -0.7221787, -0.6657044), (0.18787096, -0.7221787, -0.6657044), (0.18787096, -0.7221787, -0.6657044), (-0.00073268084, -0.18397127, -0.9829314), (-0.00073268084, -0.18397127, -0.9829314), (-0.00073268084, -0.18397127, -0.9829314), (-0.00073268084, -0.18397127, -0.9829314), (-0.00073268084, -0.18397127, -0.9829314), (-0.09372298, -0.58996445, 0.8019714), (-0.09372298, -0.58996445, 0.8019714), (-0.09372298, -0.58996445, 0.8019714), (-0.09372298, -0.58996445, 0.8019714), (0.028476838, -0.39884928, 0.9165742), (0.028476838, -0.39884928, 0.9165742), (0.028476838, -0.39884928, 0.9165742), (0.028476838, -0.39884928, 0.9165742), (-0.89115196, -0.45339593, -0.016739672), (-0.89115196, -0.45339593, -0.016739672), (-0.89115196, -0.45339593, -0.016739672), (-0.89115196, -0.45339593, -0.016739672), (0.93213767, -0.36197755, -0.009569544), (0.93213767, -0.36197755, -0.009569544), (0.93213767, -0.36197755, -0.009569544), (0.93213767, -0.36197755, -0.009569544), (0.0057417713, -0.21153021, 0.9773546), (0.0057417713, -0.21153021, 0.9773546), (0.0057417713, -0.21153021, 0.9773546), (0.0057417713, -0.21153021, 0.9773546), (0.0057417713, -0.21153021, 0.9773546), (-0.07469237, -0.7332154, 0.67588186), (-0.07469237, -0.7332154, 0.67588186), (-0.07469237, -0.7332154, 0.67588186), (-0.07469237, -0.7332154, 0.67588186), (0.0017209223, -0.99884105, 0.048100602), (0.0017209223, -0.99884105, 0.048100602), (0.0017209223, -0.99884105, 0.048100602), (0.00006778003, -0.99883837, 0.04818592), (0.0001549702, -0.9988386, 0.048181426), (-0.9236738, -0.3816686, 0.03399901), (-0.9236738, -0.3816686, 0.03399901), (-0.9236738, -0.3816686, 0.03399901), (-0.9236738, -0.3816686, 0.03399901), (0.18787193, -0.7221763, 0.66570675), (0.18787193, -0.7221763, 0.66570675), (0.18787193, -0.7221763, 0.66570675), (0.18787193, -0.7221763, 0.66570675), (-0.046704177, -0.5603431, -0.8269428), (-0.046704177, -0.5603431, -0.8269428), (-0.046704177, -0.5603431, -0.8269428), (-0.046704177, -0.5603431, -0.8269428), (-0.0015726881, -0.998833, 0.04827046), (0.0001549702, -0.9988386, 0.048181426), (0.00006778003, -0.99883837, 0.04818592), (-0.0015726881, -0.998833, 0.04827046), (0.061058566, -0.39954552, -0.91467774), (0.061058566, -0.39954552, -0.91467774), (0.061058566, -0.39954552, -0.91467774), (0.061058566, -0.39954552, -0.91467774), (-0.0017597417, -0.24772252, 0.9688294), (-0.0017597417, -0.24772252, 0.9688294), (-0.0017597417, -0.24772252, 0.9688294), (-0.0017597417, -0.24772252, 0.9688294), (0.93213344, -0.36199105, 0.009466785), (0.93213344, -0.36199105, 0.009466785), (0.93213344, -0.36199105, 0.009466785), (0.93213344, -0.36199105, 0.009466785), (0.0032742, -0.998787, -0.049131118), (0.0013611851, -0.99879706, -0.04901644), (0.001208835, -0.9987977, -0.049007297), (0.0032742, -0.998787, -0.049131118), (0.0032742, -0.998787, -0.049131118), (-0.10151409, -0.731473, -0.6742716), (-0.10151409, -0.731473, -0.6742716), (-0.10151409, -0.731473, -0.6742716), (-0.10151409, -0.731473, -0.6742716), (0.9552043, -0.29159328, 0.050577734), (0.9552043, -0.29159328, 0.050577734), (0.9552043, -0.29159328, 0.050577734), (0.9552043, -0.29159328, 0.050577734), (0.01496301, -0.9995811, -0.024775881), (0.01496301, -0.9995811, -0.024775881), (0.01496301, -0.9995811, -0.024775881), (0.01496301, -0.9995811, -0.024775881), (0.048924726, -0.543167, 0.838198), (0.048924726, -0.543167, 0.838198), (0.048924726, -0.543167, 0.838198), (0.048924726, -0.543167, 0.838198), (0.054163627, -0.4322827, -0.90011), (0.054163627, -0.4322827, -0.90011), (0.054163627, -0.4322827, -0.90011), (0.054163627, -0.4322827, -0.90011), (-0.83946633, -0.542226, 0.035878036), (-0.83946633, -0.542226, 0.035878036), (-0.83946633, -0.542226, 0.035878036), (-0.83946633, -0.542226, 0.035878036), (0.015412993, -0.99967974, 0.02007153), (0.015412993, -0.99967974, 0.02007153), (0.015412993, -0.99967974, 0.02007153), (0.015412993, -0.99967974, 0.02007153), (-0.91772217, -0.39230734, -0.06229743), (-0.91772217, -0.39230734, -0.06229743), (-0.91772217, -0.39230734, -0.06229743), (-0.91772217, -0.39230734, -0.06229743), (0.958273, -0.2822041, -0.045536112), (0.958273, -0.2822041, -0.045536112), (0.958273, -0.2822041, -0.045536112), (0.958273, -0.2822041, -0.045536112), (0.014921618, -0.3800852, -0.92483115), (0.014921618, -0.3800852, -0.92483115), (0.014921618, -0.3800852, -0.92483115), (0.014921618, -0.3800852, -0.92483115), (0.006723536, -0.9989559, 0.045188382), (0.006723536, -0.9989559, 0.045188382), (0.006723536, -0.9989559, 0.045188382), (0.006723536, -0.9989559, 0.045188382), (-0.026732577, -0.44175643, 0.8967366), (-0.026732577, -0.44175643, 0.8967366), (-0.026732577, -0.44175643, 0.8967366), (-0.026732577, -0.44175643, 0.8967366), (0.010558251, -0.9984103, -0.05536707), (0.010558251, -0.9984103, -0.05536707), (0.010558251, -0.9984103, -0.05536707), (0.010558251, -0.9984103, -0.05536707), (0.0064402088, -0.21859302, 0.97579485), (0.0064402088, -0.21859302, 0.97579485), (0.0064402088, -0.21859302, 0.97579485), (0.0064402088, -0.21859302, 0.97579485), (0.0064402088, -0.21859302, 0.97579485), (-0.0008784592, -0.99882305, 0.048493505), (-0.0008784592, -0.99882305, 0.048493505), (0.0012390981, -0.9988167, 0.048616838), (0.0010885947, -0.99881727, 0.048608076), (-0.0008784592, -0.99882305, 0.048493505), (0.18787082, -0.72217923, 0.6657039), (0.18787082, -0.72217923, 0.6657039), (0.18787082, -0.72217923, 0.6657039), (0.18787082, -0.72217923, 0.6657039), (-0.0009422824, -0.19246769, 0.9813029), (-0.0009422824, -0.19246769, 0.9813029), (-0.0009422824, -0.19246769, 0.9813029), (-0.0009422824, -0.19246769, 0.9813029), (-0.0009422824, -0.19246769, 0.9813029), (-0.09372381, -0.5899649, -0.80197084), (-0.09372381, -0.5899649, -0.80197084), (-0.09372381, -0.5899649, -0.80197084), (-0.09372381, -0.5899649, -0.80197084), (0.03604641, -0.39946234, -0.9160406), (0.03604641, -0.39946234, -0.9160406), (0.03604641, -0.39946234, -0.9160406), (0.03604641, -0.39946234, -0.9160406), (-0.89114475, -0.45341507, 0.016610961), (-0.89114475, -0.45341507, 0.016610961), (-0.89114475, -0.45341507, 0.016610961), (-0.89114475, -0.45341507, 0.016610961), (0.9262619, -0.37674052, 0.010265462), (0.9262619, -0.37674052, 0.010265462), (0.9262619, -0.37674052, 0.010265462), (0.9262619, -0.37674052, 0.010265462), (0.0032058666, -0.99880683, 0.048731185), (0.0032058666, -0.99880683, 0.048731185), (0.0032058666, -0.99880683, 0.048731185), (0.0010885947, -0.99881727, 0.048608076), (0.0012390981, -0.9988167, 0.048616838), (-0.10151406, -0.73147327, 0.6742713), (-0.10151406, -0.73147327, 0.6742713), (-0.10151406, -0.73147327, 0.6742713), (-0.10151406, -0.73147327, 0.6742713), (-0.0011056085, -0.998443, -0.05577012), (-0.0011056085, -0.998443, -0.05577012), (-0.0011056085, -0.998443, -0.05577012), (-0.0011056085, -0.998443, -0.05577012), (-0.0045078034, -0.4770734, 0.87885195), (-0.0045078034, -0.4770734, 0.87885195), (-0.0045078034, -0.4770734, 0.87885195), (-0.0045078034, -0.4770734, 0.87885195), (0.82435036, -0.56353724, -0.053592358), (0.82435036, -0.56353724, -0.053592358), (0.82435036, -0.56353724, -0.053592358), (0.82435036, -0.56353724, -0.053592358), (-0.014578153, -0.32763627, -0.9446915), (-0.014578153, -0.32763627, -0.9446915), (-0.014578153, -0.32763627, -0.9446915), (-0.014578153, -0.32763627, -0.9446915), (-0.93159103, -0.36335725, -0.010471907), (-0.93159103, -0.36335725, -0.010471907), (-0.93159103, -0.36335725, -0.010471907), (-0.93159103, -0.36335725, -0.010471907), (0.0015063233, -0.28598836, 0.958232), (0.0015063233, -0.28598836, 0.958232), (0.0015063233, -0.28598836, 0.958232), (0.0015063233, -0.28598836, 0.958232), (0.073438525, -0.7332863, 0.67594224), (0.073438525, -0.7332863, 0.67594224), (0.073438525, -0.7332863, 0.67594224), (0.073438525, -0.7332863, 0.67594224), (0.043746535, -0.9969018, 0.06536974), (0.043746535, -0.9969018, 0.06536974), (0.043746535, -0.9969018, 0.06536974), (0.043746535, -0.9969018, 0.06536974), (0.94359857, -0.328278, 0.043074224), (0.94359857, -0.328278, 0.043074224), (0.94359857, -0.328278, 0.043074224), (0.94359857, -0.328278, 0.043074224), (-0.058685243, -0.7340042, 0.6766046), (-0.058685243, -0.7340042, 0.6766046), (-0.058685243, -0.7340042, 0.6766046), (-0.058685243, -0.7340042, 0.6766046), (0.040553592, -0.5250265, -0.8501191), (0.040553592, -0.5250265, -0.8501191), (0.040553592, -0.5250265, -0.8501191), (0.040553592, -0.5250265, -0.8501191), (0.0017911498, -0.9987037, 0.05087038), (0.0017911498, -0.9987037, 0.05087038), (0.0017911498, -0.9987037, 0.05087038), (0.0017911498, -0.9987037, 0.05087038), (-0.060114235, -0.39953032, -0.91474694), (-0.060114235, -0.39953032, -0.91474694), (-0.060114235, -0.39953032, -0.91474694), (-0.060114235, -0.39953032, -0.91474694), (0.001732847, -0.24772125, 0.9688298), (0.001732847, -0.24772125, 0.9688298), (0.001732847, -0.24772125, 0.9688298), (0.001732847, -0.24772125, 0.9688298), (-0.93215424, -0.36192483, 0.009939817), (-0.93215424, -0.36192483, 0.009939817), (-0.93215424, -0.36192483, 0.009939817), (-0.93215424, -0.36192483, 0.009939817), (-0.0064404802, -0.21859245, 0.9757949), (-0.0064404802, -0.21859245, 0.9757949), (-0.0064404802, -0.21859245, 0.9757949), (-0.0064404802, -0.21859245, 0.9757949), (-0.0064404802, -0.21859245, 0.9757949), (0.0011656422, -0.998761, 0.049749266), (0.0011656422, -0.998761, 0.049749266), (-0.0006159471, -0.9987641, 0.049696453), (-0.0007207948, -0.9987642, 0.049693346), (0.0011656422, -0.998761, 0.049749266), (-0.18787377, -0.7221769, 0.6657055), (-0.18787377, -0.7221769, 0.6657055), (-0.18787377, -0.7221769, 0.6657055), (-0.18787377, -0.7221769, 0.6657055), (0.0011613301, -0.20116767, 0.9795562), (0.0011613301, -0.20116767, 0.9795562), (0.0011613301, -0.20116767, 0.9795562), (0.0011613301, -0.20116767, 0.9795562), (0.0011613301, -0.20116767, 0.9795562), (0.063802056, -0.5726333, -0.8173252), (0.063802056, -0.5726333, -0.8173252), (0.063802056, -0.5726333, -0.8173252), (0.063802056, -0.5726333, -0.8173252), (-0.04369776, -0.39933464, -0.91576326), (-0.04369776, -0.39933464, -0.91576326), (-0.04369776, -0.39933464, -0.91576326), (-0.04369776, -0.39933464, -0.91576326), (0.89115447, -0.45338908, 0.016794404), (0.89115447, -0.45338908, 0.016794404), (0.89115447, -0.45338908, 0.016794404), (0.89115447, -0.45338908, 0.016794404), (-0.93092036, -0.3650881, 0.009898188), (-0.93092036, -0.3650881, 0.009898188), (-0.93092036, -0.3650881, 0.009898188), (-0.93092036, -0.3650881, 0.009898188), (-0.0024729022, -0.99876404, 0.049641244), (-0.0007207948, -0.9987642, 0.049693346), (-0.0006159471, -0.9987641, 0.049696453), (-0.0024729022, -0.99876404, 0.049641244), (-0.0024729022, -0.99876404, 0.049641244), (0.101515636, -0.7314708, 0.6742737), (0.101515636, -0.7314708, 0.6742737), (0.101515636, -0.7314708, 0.6742737), (0.101515636, -0.7314708, 0.6742737), (-0.024562744, -0.4870831, 0.8730101), (-0.024562744, -0.4870831, 0.8730101), (-0.024562744, -0.4870831, 0.8730101), (-0.024562744, -0.4870831, 0.8730101), (0, -1, 6.1143925e-9), (0, -1, 6.1143925e-9), (0, -1, -5.685654e-9), (0, -1, -6.9356565e-9), (0.009269619, -0.33288103, -0.9429233), (0.009269619, -0.33288103, -0.9429233), (0.009269619, -0.33288103, -0.9429233), (0.009269619, -0.33288103, -0.9429233), (-0.9621097, -0.27023527, 0.036301576), (-0.9621097, -0.27023527, 0.036301576), (-0.9621097, -0.27023527, 0.036301576), (-0.9621097, -0.27023527, 0.036301576), (0.7477011, -0.6614737, 0.058272395), (0.7477011, -0.6614737, 0.058272395), (0.7477011, -0.6614737, 0.058272395), (0.7477011, -0.6614737, 0.058272395), (0.41216862, -0.910136, -0.042067338), (0.41216862, -0.910136, -0.042067338), (0.41216862, -0.910136, -0.042067338), (0.41216862, -0.910136, -0.042067338), (0.119856305, -0.9913908, -0.052712683), (0.119856305, -0.9913908, -0.052712683), (0.119856305, -0.9913908, -0.052712683), (0.119856305, -0.9913908, -0.052712683), (-0.02246826, -0.9978157, -0.062121324), (-0.02246826, -0.9978157, -0.062121324), (-0.02246826, -0.9978157, -0.062121324), (-0.02246826, -0.9978157, -0.062121324), (0.06631277, -0.4432153, 0.89395905), (0.06631277, -0.4432153, 0.89395905), (0.06631277, -0.4432153, 0.89395905), (0.06631277, -0.4432153, 0.89395905), (-0.03264374, -0.5390399, -0.8416474), (-0.03264374, -0.5390399, -0.8416474), (-0.03264374, -0.5390399, -0.8416474), (-0.03264374, -0.5390399, -0.8416474), (-0.98148423, -0.19153246, -0.0019970848), (-0.98148423, -0.19153246, -0.0019970848), (-0.98148423, -0.19153246, -0.0019970848), (-0.98148423, -0.19153246, -0.0019970848), (0, -1, -6.9356565e-9), (0, -1, -5.685654e-9), (0, -0.99999994, -1.9055163e-8), (0, -0.99999994, -1.9055163e-8), (0.8881047, -0.45941404, 0.0144533375), (0.8881047, -0.45941404, 0.0144533375), (0.8881047, -0.45941404, 0.0144533375), (0.8881047, -0.45941404, 0.0144533375), (-0.008673198, -0.38429403, -0.92317), (-0.008673198, -0.38429403, -0.92317), (-0.008673198, -0.38429403, -0.92317), (-0.008673198, -0.38429403, -0.92317), (-0.01289719, -0.99991685, 0.00001604337), (-0.01289719, -0.99991685, 0.00001604337), (-0.01289719, -0.99991685, 0.00001604337), (-0.01289719, -0.99991685, 0.00001604337), (-0.965218, -0.26135173, 0.0070399875), (-0.965218, -0.26135173, 0.0070399875), (-0.965218, -0.26135173, 0.0070399875), (-0.965218, -0.26135173, 0.0070399875), (-0.0027891889, -0.35992146, 0.9329785), (-0.0027891889, -0.35992146, 0.9329785), (-0.0027891889, -0.35992146, 0.9329785), (-0.0027891889, -0.35992146, 0.9329785), (-0.02110846, -0.7983413, -0.6018352), (-0.02110846, -0.7983413, -0.6018352), (-0.02110846, -0.7983413, -0.6018352), (-0.017958077, -0.48796263, 0.87267977), (-0.017958077, -0.48796263, 0.87267977), (-0.017958077, -0.48796263, 0.87267977), (-0.017958077, -0.48796263, 0.87267977), (0, -1, -8.4308205e-9), (7.0665975e-9, -1, -6.5785805e-8), (3.5182415e-9, -1, -6.676071e-8), (0, -1, -9.783577e-9), (0.0072917505, -0.333425, -0.94274837), (0.0072917505, -0.333425, -0.94274837), (0.0072917505, -0.333425, -0.94274837), (0.0072917505, -0.333425, -0.94274837), (0.11578839, -0.7782293, -0.61721325), (0.11578839, -0.7782293, -0.61721325), (0.11578839, -0.7782293, -0.61721325), (-0.9829171, -0.18403096, 0.002595232), (-0.98163927, -0.19073911, -0.0016788382), (-0.9830709, -0.18319823, 0.0031248555), (-0.9830709, -0.18319823, 0.0031248555), (0.8184195, -0.5722444, 0.05220858), (0.8184195, -0.5722444, 0.05220858), (0.8184195, -0.5722444, 0.05220858), (0.8184195, -0.5722444, 0.05220858), (0.47696626, -0.8777913, -0.044559404), (0.47696626, -0.8777913, -0.044559404), (0.47696626, -0.8777913, -0.044559404), (0.47696626, -0.8777913, -0.044559404), (7.0665975e-9, -1, -6.5785805e-8), (1.4080355e-8, -1, -1.2271191e-7), (5.3947096e-9, -1, -1.2412315e-7), (3.5182415e-9, -1, -6.676071e-8), (3.5182415e-9, -1, -6.676071e-8), (5.3947096e-9, -1, -1.2412315e-7), (-2.078471e-9, -1, -1.253374e-7), (-2.078471e-9, -1, -1.253374e-7), (-1.0019436e-9, -1, -6.6165825e-8), (0.10059145, -0.38666567, 0.9167175), (0.10059145, -0.38666567, 0.9167175), (0.10059145, -0.38666567, 0.9167175), (0.10059145, -0.38666567, 0.9167175), (-0.02320339, -0.59821874, -0.80099684), (-0.02320339, -0.59821874, -0.80099684), (-0.02320339, -0.59821874, -0.80099684), (-0.02320339, -0.59821874, -0.80099684), (-0.02320339, -0.59821874, -0.80099684), (-0.9814681, -0.19161269, -0.0022359623), (-0.9814681, -0.19161269, -0.0022359623), (-0.98163927, -0.19073911, -0.0016788382), (-0.9829171, -0.18403096, 0.002595232), (0, -1, -9.783577e-9), (3.5182415e-9, -1, -6.676071e-8), (-1.0019436e-9, -1, -6.6165825e-8), (0, -0.99999994, -1.1093756e-8), (-0.0064371843, -0.21859278, -0.9757949), (-0.0064371843, -0.21859278, -0.9757949), (-0.0064371843, -0.21859278, -0.9757949), (-0.0064371843, -0.21859278, -0.9757949), (-0.0064371843, -0.21859278, -0.9757949), (0.0010330861, -0.9987205, -0.050559316), (0.0010330861, -0.9987205, -0.050559316), (-0.00058691687, -0.998729, -0.050398823), (-0.0005034568, -0.99872863, -0.050407093), (0.0010330861, -0.9987205, -0.050559316), (-0.18787044, -0.7221794, -0.6657038), (-0.18787044, -0.7221794, -0.6657038), (-0.18787044, -0.7221794, -0.6657038), (-0.18787044, -0.7221794, -0.6657038), (0.0009846227, -0.19407418, -0.98098636), (0.0009846227, -0.19407418, -0.98098636), (0.0009846227, -0.19407418, -0.98098636), (0.0009846227, -0.19407418, -0.98098636), (0.0009846227, -0.19407418, -0.98098636), (0.04753159, -0.5628856, 0.825167), (0.04753159, -0.5628856, 0.825167), (0.04753159, -0.5628856, 0.825167), (0.04753159, -0.5628856, 0.825167), (-0.03754442, -0.3990877, 0.91614383), (-0.03754442, -0.3990877, 0.91614383), (-0.03754442, -0.3990877, 0.91614383), (-0.03754442, -0.3990877, 0.91614383), (0.89116234, -0.45336863, -0.016928995), (0.89116234, -0.45336863, -0.016928995), (0.89116234, -0.45336863, -0.016928995), (0.89116234, -0.45336863, -0.016928995), (-0.9321515, -0.36193365, -0.009880886), (-0.9321515, -0.36193365, -0.009880886), (-0.9321515, -0.36193365, -0.009880886), (-0.9321515, -0.36193365, -0.009880886), (-0.002091563, -0.9987345, -0.050249632), (-0.002091563, -0.9987345, -0.050249632), (-0.002091563, -0.9987345, -0.050249632), (-0.0005034568, -0.99872863, -0.050407093), (-0.00058691687, -0.998729, -0.050398823), (0.10151437, -0.73147315, -0.67427146), (0.10151437, -0.73147315, -0.67427146), (0.10151437, -0.73147315, -0.67427146), (0.10151437, -0.73147315, -0.67427146), (0.88809526, -0.4594135, 0.015034811), (0.88809526, -0.4594135, 0.015034811), (0.88809526, -0.4594135, 0.015034811), (0.88809526, -0.4594135, 0.015034811), (-0.016170625, -0.38251707, -0.92380697), (-0.016170625, -0.38251707, -0.92380697), (-0.016170625, -0.38251707, -0.92380697), (-0.016170625, -0.38251707, -0.92380697), (-0.025069335, -0.9996856, 0.00045864857), (-0.025069335, -0.9996856, 0.00045864857), (-0.025069335, -0.9996856, 0.00045864857), (-0.025069335, -0.9996856, 0.00045864857), (-0.97662324, -0.21377507, 0.022520222), (-0.97662324, -0.21377507, 0.022520222), (-0.97662324, -0.21377507, 0.022520222), (-0.97662324, -0.21377507, 0.022520222), (-0.0053336765, -0.35983583, 0.9330004), (-0.0053336765, -0.35983583, 0.9330004), (-0.0053336765, -0.35983583, 0.9330004), (-0.0053336765, -0.35983583, 0.9330004), (0.00059741, -0.9985253, 0.054283895), (0.00059741, -0.9985253, 0.054283895), (0.00059741, -0.9985253, 0.054283895), (0.00059741, -0.9985253, 0.054283895), (0.017846458, -0.47820655, -0.878066), (0.017846458, -0.47820655, -0.878066), (0.017846458, -0.47820655, -0.878066), (0.017846458, -0.47820655, -0.878066), (-0.9224526, -0.38439667, 0.03633603), (-0.9224526, -0.38439667, 0.03633603), (-0.9224526, -0.38439667, 0.03633603), (-0.9224526, -0.38439667, 0.03633603), (0.014171601, -0.32897216, 0.9442333), (0.014171601, -0.32897216, 0.9442333), (0.014171601, -0.32897216, 0.9442333), (0.014171601, -0.32897216, 0.9442333), (0.9315924, -0.36335766, 0.010332149), (0.9315924, -0.36335766, 0.010332149), (0.9315924, -0.36335766, 0.010332149), (0.9315924, -0.36335766, 0.010332149), (0.040552583, -0.52502674, -0.850119), (0.040552583, -0.52502674, -0.850119), (0.040552583, -0.52502674, -0.850119), (0.040552583, -0.52502674, -0.850119), (0.005435537, -9.336509e-8, -0.9999853), (0.0055676317, 0, -0.9999845), (0.0055676317, 0, -0.9999845), (0.0054355375, -5.372567e-8, -0.9999853), (0.04374657, -0.9969017, 0.06536976), (0.04374657, -0.9969017, 0.06536976), (0.04374657, -0.9969017, 0.06536976), (0.04374657, -0.9969017, 0.06536976), (-0.05868258, -0.7340045, 0.6766046), (-0.05868258, -0.7340045, 0.6766046), (-0.05868258, -0.7340045, 0.6766046), (-0.05868258, -0.7340045, 0.6766046), (-0.0043721297, 0, 0.99999046), (0.0069238488, 4.331814e-7, 0.999976), (0.0069238488, 4.1769817e-7, 0.999976), (-0.0043721297, 0, 0.99999046), (0.0017326387, 0.2477212, 0.9688299), (0.0017326387, 0.2477212, 0.9688299), (0.0017326387, 0.2477212, 0.9688299), (0.0017326387, 0.2477212, 0.9688299), (0.073437855, -0.7332861, 0.67594254), (0.073437855, -0.7332861, 0.67594254), (0.073437855, -0.7332861, 0.67594254), (0.073437855, -0.7332861, 0.67594254), (-0.9321545, 0.36192447, 0.009939858), (-0.9321545, 0.36192447, 0.009939858), (-0.9321545, 0.36192447, 0.009939858), (-0.9321545, 0.36192447, 0.009939858), (0.00565299, -0.2112618, -0.9774132), (0.00565299, -0.2112618, -0.9774132), (0.00565299, -0.2112618, -0.9774132), (0.00565299, -0.2112618, -0.9774132), (0.00565299, -0.2112618, -0.9774132), (-0.07586257, -0.7331509, -0.6758215), (-0.07586257, -0.7331509, -0.6758215), (-0.07586257, -0.7331509, -0.6758215), (-0.07586257, -0.7331509, -0.6758215), (0.0018523393, -0.99878454, -0.049254816), (0.00015608202, -0.9987815, -0.049349964), (0.00006377703, -0.9987813, -0.04935514), (0.0018523393, -0.99878454, -0.049254816), (0.0018523393, -0.99878454, -0.049254816), (-0.9051907, -0.4232426, -0.038670123), (-0.9051907, -0.4232426, -0.038670123), (-0.9051907, -0.4232426, -0.038670123), (-0.9051907, -0.4232426, -0.038670123), (0.18787098, -0.72217655, -0.6657068), (0.18787098, -0.72217655, -0.6657068), (0.18787098, -0.72217655, -0.6657068), (0.18787098, -0.72217655, -0.6657068), (-0.045919947, -0.56140524, 0.826266), (-0.045919947, -0.56140524, 0.826266), (-0.045919947, -0.56140524, 0.826266), (-0.045919947, -0.56140524, 0.826266), (-0.0017133196, -0.9987748, -0.049454655), (-0.0017133196, -0.9987748, -0.049454655), (0.00006377703, -0.9987813, -0.04935514), (0.00015608202, -0.9987815, -0.049349964), (0.06193664, -0.3995573, 0.9146134), (0.06193664, -0.3995573, 0.9146134), (0.06193664, -0.3995573, 0.9146134), (0.06193664, -0.3995573, 0.9146134), (-0.0017849564, -0.24772109, -0.96882975), (-0.0017849564, -0.24772109, -0.96882975), (-0.0017849564, -0.24772109, -0.96882975), (-0.0017849564, -0.24772109, -0.96882975), (0.9321427, -0.36196175, -0.0096825985), (0.9321427, -0.36196175, -0.0096825985), (0.9321427, -0.36196175, -0.0096825985), (0.9321427, -0.36196175, -0.0096825985), (0.0015065442, -0.28598854, 0.95823187), (0.0015065442, -0.28598854, 0.95823187), (0.0015065442, -0.28598854, 0.95823187), (0.0015065442, -0.28598854, 0.95823187), (0.94359845, -0.32827836, 0.043074198), (0.94359845, -0.32827836, 0.043074198), (0.94359845, -0.32827836, 0.043074198), (0.94359845, -0.32827836, 0.043074198), (0.040552933, 0.5250264, -0.8501193), (0.040552933, 0.5250264, -0.8501193), (0.040552933, 0.5250264, -0.8501193), (0.040552933, 0.5250264, -0.8501193), (0.0054355375, -5.372567e-8, -0.9999853), (-0.0016193596, 0, -0.99999875), (-0.0016193596, 0, -0.99999875), (0.005435537, -9.336509e-8, -0.9999853), (0.073438324, 0.7332866, 0.67594206), (0.073438324, 0.7332866, 0.67594206), (0.073438324, 0.7332866, 0.67594206), (0.073438324, 0.7332866, 0.67594206), (0.94359845, 0.32827818, 0.043074243), (0.94359845, 0.32827818, 0.043074243), (0.94359845, 0.32827818, 0.043074243), (0.94359845, 0.32827818, 0.043074243), (0.0015069867, 0.28598863, 0.95823187), (0.0015069867, 0.28598863, 0.95823187), (0.0015069867, 0.28598863, 0.95823187), (0.0015069867, 0.28598863, 0.95823187), (0.04374656, 0.99690175, 0.065370075), (0.04374656, 0.99690175, 0.065370075), (0.04374656, 0.99690175, 0.065370075), (0.04374656, 0.99690175, 0.065370075), (0.99988496, 0, 0.015165627), (0.99988496, 0, 0.015165627), (0.99988496, 0, 0.015165627), (0.99988496, 0, 0.015165627), (0.0070700813, 0, 0.999975), (0.0069238488, 4.1769817e-7, 0.999976), (0.0069238488, 4.331814e-7, 0.999976), (0.0070700813, 0, 0.999975), (-0.058683265, 0.7340051, 0.67660385), (-0.058683265, 0.7340051, 0.67660385), (-0.058683265, 0.7340051, 0.67660385), (-0.058683265, 0.7340051, 0.67660385), (-0.06011404, 0.3995303, -0.9147468), (-0.06011404, 0.3995303, -0.9147468), (-0.06011404, 0.3995303, -0.9147468), (-0.06011404, 0.3995303, -0.9147468), (-1, 0, 0), (-1, 0, 0), (-1, 0, 0), (-1, 0, 0), (0.001791146, 0.99870366, 0.050870515), (0.001791146, 0.99870366, 0.050870515), (0.001791146, 0.99870366, 0.050870515), (0.001791146, 0.99870366, 0.050870515), (0.0000011496808, 0, -1), (0.0000011496807, 0, -1), (-2.3779197e-7, 0, -1), (-2.3779197e-7, 0, -1), (-0.9999733, -3.6228448e-7, -0.0073076794), (-0.99997234, 0, -0.007435088), (-0.99997234, 0, -0.007435088), (-0.9999733, 1.0296935e-7, -0.0073076785), (-0.99998623, 0, 0.005255828), (-0.99998623, 0, 0.005255828), (-0.9999733, -3.6228448e-7, -0.0073076794), (-0.9999733, 1.0296935e-7, -0.0073076785), (-0.9829094, 0.18407245, 0.0025685546), (-0.98307085, 0.18319888, 0.0031248531), (-0.98307085, 0.18319888, 0.0031248531), (-0.9816393, 0.1907391, -0.0016792674), (-0.021108465, 0.7983421, -0.6018341), (-0.021108465, 0.7983421, -0.6018341), (-0.021108465, 0.7983421, -0.6018341), (0.9999996, 0, 0.0009795375), (0.9999938, 1.0151416e-7, -0.0035502748), (0.9999938, -1.6152626e-9, -0.003550275), (0.9999996, 0, 0.0009795375), (0.0072936174, 0.33342528, -0.94274837), (0.0072936174, 0.33342528, -0.94274837), (0.0072936174, 0.33342528, -0.94274837), (0.0072936174, 0.33342528, -0.94274837), (-0.015384699, 0.4879208, 0.8727523), (-0.015384699, 0.4879208, 0.8727523), (-0.015384699, 0.4879208, 0.8727523), (-0.015384699, 0.4879208, 0.8727523), (0, 1, 0), (0, 1, -7.73997e-8), (0, 1, 3.5190702e-8), (0, 1, 9.384568e-8), (0.115789846, 0.7782296, -0.61721265), (0.115789846, 0.7782296, -0.61721265), (0.115789846, 0.7782296, -0.61721265), (-0.9999997, 0, -0.00082399184), (-0.99999654, 0, -0.002621046), (-0.99999654, 0, -0.0026210458), (-0.9999997, 0, -0.00082399184), (0.11578978, -0.7782292, -0.6172131), (0.11578978, -0.7782292, -0.6172131), (0.11578978, -0.7782292, -0.6172131), (-0.98290926, -0.1840729, 0.0025691043), (-0.9816392, -0.19073923, -0.0016792574), (-0.9830709, -0.18319912, 0.0031248599), (-0.9830709, -0.18319912, 0.0031248599), (0.8184199, -0.572244, 0.052208543), (0.8184199, -0.572244, 0.052208543), (0.8184199, -0.572244, 0.052208543), (0.8184199, -0.572244, 0.052208543), (0.4769658, -0.8777915, -0.04455942), (0.4769658, -0.8777915, -0.04455942), (0.4769658, -0.8777915, -0.04455942), (0.4769658, -0.8777915, -0.04455942), (7.0666006e-9, -1, -6.578583e-8), (1.408036e-8, -1, -1.2271195e-7), (5.5639684e-9, -1, -1.2123358e-7), (3.586875e-9, -1, -6.5210315e-8), (3.586875e-9, -1, -6.5210315e-8), (5.5639684e-9, -1, -1.2123358e-7), (-1.763585e-9, -1, -1.1996158e-7), (-1.763585e-9, -1, -1.1996158e-7), (-8.501503e-10, -1, -6.2727935e-8), (0.10059145, -0.38666582, 0.9167175), (0.10059145, -0.38666582, 0.9167175), (0.10059145, -0.38666582, 0.9167175), (0.10059145, -0.38666582, 0.9167175), (-0.019708661, -0.5973274, -0.80175525), (-0.019708661, -0.5973274, -0.80175525), (-0.019708661, -0.5973274, -0.80175525), (-0.019708661, -0.5973274, -0.80175525), (-0.019708661, -0.5973274, -0.80175525), (-0.9814681, -0.19161227, -0.0022359584), (-0.9814681, -0.19161227, -0.0022359584), (-0.9816392, -0.19073923, -0.0016792574), (-0.98290926, -0.1840729, 0.0025691043), (0, -1, -8.9527825e-9), (3.586875e-9, -1, -6.5210315e-8), (-8.501503e-10, -1, -6.2727935e-8), (0, -1, -9.459532e-9)] (
                interpolation = "faceVarying"
            )
            point3f[] points = [(-0.4549045, 0.24478287, 0.65826416), (-0.56999815, 0.24478287, 0.6623008), (-0.43365833, 0.24478287, 0.5541662), (-0.45016152, 0.2286921, 0.6794424), (-0.36527577, 0.20518674, 0.5701045), (-0.4242357, 0.18583784, 0.6973976), (-0.36622223, 0.18016963, 0.6973976), (-0.37324986, 0.24478287, 0.6770892), (-0.36636668, 0.17634979, 0.37800765), (-0.3732499, 0.24478287, 0.3983159), (-0.9975621, 0.23042105, 0.57630646), (-0.9719506, 0.24478287, 0.5541662), (-0.9976619, 0.2247502, 0.6973976), (-0.95971775, 0.24478287, 0.6744586), (-0.9966497, 0.19275261, 0.37800765), (-0.97329235, 0.24478287, 0.40390587), (-0.4245157, 0.17843531, 0.37800765), (-0.45111454, 0.24478287, 0.41822255), (-0.3785104, 0.24478287, 0.5541662), (-0.49099898, 0.20518677, 0.0354563), (-0.4747272, 0.22127452, 0.048419595), (-0.6209556, 0.18016966, 0.03638327), (-0.60022235, 0.23729816, 0.043266892), (0.0046686847, 0.1763498, 0.036524773), (-0.016064582, 0.2372981, 0.043266892), (-0.49733073, 0.23042107, 0.37645388), (-0.47472727, 0.25277555, 0.36662483), (-0.6127647, 0.22475022, 0.3711096), (-0.5898914, 0.25277555, 0.34919178), (0.0046686847, 0.19275261, 0.3778497), (-0.021771519, 0.2527755, 0.35195124), (-0.63671094, 0.23729807, 0.3734603), (-0.8405925, 0.23852763, 0.3495909), (-0.8405925, 0.23852739, 0.34959555), (-0.9204298, 0.23729813, 0.3734603), (-0.6424179, 0.25277552, 0.061225295), (-0.6159777, 0.19275263, 0.03532672), (-0.9793506, 0.25277558, 0.058430433), (-0.9990782, 0.22475024, 0.036512494), (-0.84059256, 0.25277558, 0.046551704), (-0.863196, 0.23042108, 0.03672266), (0.535593, 0.23729807, 0.40455675), (-0.6159777, 0.17634979, 0.38020253), (-0.9814908, 0.23729813, 0.3734603), (-0.99750274, 0.18016964, 0.3803439), (-0.8405925, 0.22127451, 0.3683076), (-0.8568643, 0.20518675, 0.381271), (-0.55456454, 0.23729816, 0.043266892), (-0.47472724, 0.23852742, 0.06713164), (-0.47472724, 0.23852763, 0.06713641), (-0.32507205, 0.23729813, 0.043266892), (0.46260774, 0.24221593, 0.22148025), (0.37722218, 0.24987674, 0.06483197), (0.4006918, 0.17843533, 0.035293102), (0.024805754, 0.25241008, 0.059630394), (0.0014968272, 0.19275263, 0.035293102), (0.021921277, 0.25237858, 0.35623038), (0.0027074274, 0.22475022, 0.37722516), (0.013995436, 0.25224477, 0.22581387), (0.0029219892, 0.23042107, 0.24353468), (0.4532855, 0.2498106, 0.07273626), (0.47315738, 0.1763498, 0.035293102), (0.45480254, 0.2498106, 0.3473152), (0.47330183, 0.18016964, 0.37722516), (0.4009718, 0.18583785, 0.37722516), (0.4742483, 0.20518675, 0.23733282), (0.3667323, 0.24978864, 0.33975208), (0.39252165, 0.24349102, 0.22148025), (0.6004969, 0.20518675, 0.3794936), (0.61676866, 0.22127451, 0.3665303), (0.47054026, 0.18016964, 0.37856662), (0.4912735, 0.23729813, 0.371683), (0.9966807, 0.17634979, 0.378425), (0.9748266, 0.23729807, 0.371683), (0.59416515, 0.23042108, 0.035976052), (0.6167686, 0.25277558, 0.045805097), (0.47873113, 0.22475024, 0.041320443), (0.5016045, 0.25277558, 0.06323826), (0.9966807, 0.19275263, 0.03458023), (0.96911955, 0.25277552, 0.060478806), (0.53693134, 0.23729813, 0.371683), (0.6167686, 0.23852739, 0.34781826), (0.6167686, 0.23852763, 0.3478135), (0.7664238, 0.2372981, 0.371683), (0.9693775, 0.23729813, 0.3918786), (0.54129994, 0.2527755, 0.677454), (0.51485974, 0.1927526, 0.70335245), (0.9672374, 0.25277555, 0.6730901), (0.99766237, 0.2247502, 0.6950079), (0.51485974, 0.17634979, 0.37775457), (0.99766237, 0.18016964, 0.37761307), (0.6365493, 0.23729804, 1.020336), (0.84393084, 0.2385276, 0.9964665), (0.84393084, 0.23852736, 0.99647117), (0.98105925, 0.22626711, 1.0216651), (0.64225626, 0.2527755, 0.7238494), (0.61581606, 0.1927526, 0.69795096), (0.98089886, 0.25081646, 0.7173985), (0.99631006, 0.2247502, 0.69913673), (0.8439309, 0.25277555, 0.70917594), (0.86653435, 0.23042105, 0.6993469), (0.61581606, 0.17634976, 1.0270782), (0.9913339, 0.18016961, 1.0272195), (0.84393084, 0.22127448, 1.0151833), (0.8602026, 0.20518672, 1.0281466), (-0.66878664, 0.20518672, 1.0302637), (-0.68505836, 0.22127448, 1.0173002), (-0.5388299, 0.18016961, 1.0293366), (-0.55956316, 0.2372981, 1.0224531), (-0.99834293, 0.17634976, 1.0291952), (-0.9773734, 0.23729804, 1.0224531), (-0.66245484, 0.23042105, 0.69470274), (-0.68505836, 0.25277555, 0.7045318), (-0.5470208, 0.2247502, 0.6956723), (-0.56989425, 0.25277555, 0.7175902), (-0.99834293, 0.1927526, 0.6933068), (-0.9716664, 0.2527755, 0.7192055), (-0.60522103, 0.2372981, 1.0224531), (-0.68505836, 0.23852736, 0.9985882), (-0.68505836, 0.2385276, 0.99858356), (-0.8347136, 0.23729807, 1.0224531), (0.5989339, 0.22879465, 1.0448494), (0.58238167, 0.24493325, 1.184973), (0.51379585, 0.20521942, 1.1689873), (0.572931, 0.18581302, 1.0268409), (0.5147451, 0.18012796, 1.0268409), (0.5217936, 0.24493325, 1.0472095), (0.51488996, 0.17629671, 1.3731091), (0.5315242, 0.24493325, 1.3432093), (0.9978362, 0.23052871, 1.148292), (0.9682502, 0.24493325, 1.1704979), (0.99795514, 0.22484106, 1.0268409), (0.955981, 0.24493325, 1.0498481), (0.9986265, 0.19274831, 1.3731091), (0.96959597, 0.24493325, 1.3471339), (0.5732119, 0.17838845, 1.3731091), (0.5998897, 0.24493325, 1.3327746), (0.5270698, 0.24493325, 1.184973), (-0.9820306, 0.24054295, 1.0471275), (-0.3591559, 0.24857217, 1.344017), (-0.3326367, 0.19274831, 1.3699923), (-0.35629404, 0.24857223, 1.0492299), (-0.3288815, 0.20011084, 1.0241601), (-0.9784257, 0.24054292, 1.3496237), (-0.9970717, 0.17629671, 1.3699923), (-0.99713916, 0.18012796, 1.0267589), (0.46265447, 0.2447828, 1.7389348), (0.5777481, 0.2447828, 1.7348981), (0.4414083, 0.2447828, 1.8430326), (0.4579115, 0.22869205, 1.7177565), (0.35433373, 0.2051867, 1.8270946), (0.43198568, 0.18583779, 1.6998014), (0.3552802, 0.18016958, 1.6998014), (0.36230782, 0.2447828, 1.7201097), (0.35542464, 0.17634971, 2.0346544), (0.36230785, 0.2447828, 2.014346), (0.99855834, 0.230421, 1.8208925), (0.9751906, 0.2447828, 1.8430326), (0.99867696, 0.22475016, 1.6998014), (0.96295774, 0.2447828, 1.7227404), (0.9993464, 0.19275254, 2.0346544), (0.97653234, 0.2447828, 2.008756), (0.43226567, 0.17843524, 2.0346544), (0.4588645, 0.2447828, 1.9944392), (0.36756834, 0.2447828, 1.8430326), (-0.527843, 0.23729801, 2.0084763), (0.23046154, 0.2051867, 1.7030137), (0.21418977, 0.22127445, 1.715977), (0.36041817, 0.18016958, 1.7039409), (0.33968493, 0.23729807, 1.7108244), (-0.14992982, 0.17634973, 1.7040823), (-0.12919658, 0.23729801, 1.7108244), (0.23679328, 0.23042099, 2.0336924), (0.21418983, 0.2527755, 2.0238633), (0.3522273, 0.22475015, 2.0350294), (0.32935393, 0.2527755, 2.0131116), (-0.14992982, 0.19275254, 2.0350883), (-0.123489566, 0.25277543, 2.0091896), (0.2940271, 0.23729807, 1.7108244), (0.21418983, 0.23852733, 1.7346891), (0.21418983, 0.23852757, 1.7346938), (0.06453462, 0.23729804, 1.7108244), (-0.5010644, 0.24040556, 1.7241108), (-0.1766434, 0.24841097, 2.007771), (-0.1502029, 0.19275254, 2.0336695), (-0.17379001, 0.24841097, 1.726207), (-0.14645872, 0.20009325, 1.7012116), (-0.48776865, 0.2404055, 2.013361), (-0.50794756, 0.17634971, 2.0336692), (-0.50809205, 0.18016958, 1.7038025), (-0.98087317, 0.23729807, 2.0211544), (-0.53354996, 0.25277543, 1.731533), (-0.50710976, 0.19275256, 1.7056346), (-0.9787331, 0.2527755, 1.7287382), (-0.99848384, 0.22475016, 1.7068204), (-0.50710976, 0.17634971, 2.0352783), (-0.99690837, 0.18016957, 2.03542), (-0.6354617, 0.23729804, 1.376863), (-0.83618087, 0.23852757, 1.4007324), (-0.83618087, 0.23852736, 1.4007277), (-0.9160182, 0.2372981, 1.376863), (-0.64116865, 0.25277546, 1.6817229), (-0.61472845, 0.19275256, 1.7076213), (-0.9760834, 0.25277552, 1.6845177), (-0.9981701, 0.22475016, 1.7064356), (-0.8361809, 0.2527755, 1.6963964), (-0.8587844, 0.230421, 1.7062254), (-0.61472845, 0.17634974, 1.3701208), (-0.97822356, 0.2372981, 1.376863), (-0.9965946, 0.1801696, 1.3699794), (-0.83618087, 0.22127447, 1.3820157), (-0.85245264, 0.20518671, 1.3690523), (0.99867696, -0.0047940835, 1.3765136), (0.9751906, -0.024826758, 1.5197448), (0.99855834, -0.010464922, 1.4976046), (0.27155715, -0.024826758, 1.691058), (0.26467395, 0.04360634, 1.7113665), (0.27155712, -0.024826743, 1.3968219), (0.2645295, 0.03978648, 1.3765136), (0.34123498, 0.034118287, 1.3765136), (0.26358303, 0.01476936, 1.5038067), (0.3671608, -0.008735977, 1.3944687), (0.3506576, -0.024826758, 1.5197448), (0.48699743, -0.024826743, 1.4116102), (0.37190378, -0.024826743, 1.4156469), (0.27681765, 0.2447828, 1.5197448), (0.36811382, 0.2447828, 1.6711514), (0.34151497, 0.17843524, 1.7113665), (-0.4549045, -0.024826698, 0.65826416), (-0.56999815, -0.024826698, 0.6623008), (-0.43365833, -0.024826698, 0.5541662), (-0.45016152, -0.008735932, 0.6794424), (-0.36527577, 0.014769413, 0.5701045), (-0.4242357, 0.034118332, 0.6973976), (-0.36622223, 0.039786525, 0.6973976), (-0.37324986, -0.024826698, 0.6770892), (-0.36636668, 0.043606408, 0.37800765), (-0.3732499, -0.024826698, 0.3983159), (-0.9975621, -0.010464869, 0.57630646), (-0.9719506, -0.024826698, 0.5541662), (-0.9976619, -0.004794039, 0.6973976), (-0.95971775, -0.024826698, 0.6744586), (-0.9966497, 0.027203582, 0.37800765), (-0.97329235, -0.024826698, 0.40390587), (-0.4245157, 0.04152087, 0.37800765), (-0.45111454, -0.024826698, 0.41822255), (-0.3785104, -0.024826698, 0.5541662), (-0.49099898, 0.014769442, 0.0354563), (-0.4747272, -0.0013183057, 0.048419595), (-0.6209556, 0.039786555, 0.03638327), (-0.60022235, -0.017341934, 0.043266892), (0.0046686847, 0.043606423, 0.036524773), (-0.016064582, -0.017341875, 0.043266892), (-0.49733073, -0.010464855, 0.37645388), (-0.47472727, -0.032819353, 0.36662483), (-0.6127647, -0.004794024, 0.3711096), (-0.5898914, -0.032819353, 0.34919178), (0.0046686847, 0.027203582, 0.3778497), (-0.021771519, -0.03281931, 0.35195124), (-0.63671094, -0.01734189, 0.3734603), (-0.8405925, -0.018571459, 0.3495909), (-0.8405925, -0.01857122, 0.34959555), (-0.9204298, -0.017341934, 0.3734603), (-0.6424179, -0.032819293, 0.061225295), (-0.6159777, 0.027203597, 0.03532672), (-0.9793506, -0.03281934, 0.058430433), (-0.9990782, -0.004794009, 0.036512494), (-0.84059256, -0.03281934, 0.046551704), (-0.863196, -0.010464847, 0.03672266), (0.535593, -0.01734189, 0.40455675), (-0.6159777, 0.043606408, 0.38020253), (-0.9814908, -0.017341934, 0.3734603), (-0.99750274, 0.03978654, 0.3803439), (-0.8405925, -0.0013183206, 0.3683076), (-0.8568643, 0.0147694275, 0.381271), (-0.55456454, -0.017341934, 0.043266892), (-0.47472724, -0.018571205, 0.06713164), (-0.47472724, -0.018571444, 0.06713641), (-0.32507205, -0.017341904, 0.043266892), (0.46260774, -0.02225975, 0.22148025), (0.37722218, -0.029920526, 0.06483197), (0.4006918, 0.041520886, 0.035293102), (0.024805754, -0.032453872, 0.059630394), (0.0014968272, 0.027203597, 0.035293102), (0.021921277, -0.032422416, 0.35623038), (0.0027074274, -0.004794024, 0.37722516), (0.013995436, -0.032288544, 0.22581387), (0.0029219892, -0.010464855, 0.24353468), (0.4532855, -0.029854394, 0.07273626), (0.47315738, 0.043606423, 0.035293102), (0.45480254, -0.029854424, 0.3473152), (0.47330183, 0.03978654, 0.37722516), (0.4009718, 0.03411834, 0.37722516), (0.4742483, 0.0147694275, 0.23733282), (0.3667323, -0.02983243, 0.33975208), (0.39252165, -0.023534842, 0.22148025), (0.6004969, 0.0147694275, 0.3794936), (0.61676866, -0.0013183206, 0.3665303), (0.47054026, 0.03978654, 0.37856662), (0.4912735, -0.017341934, 0.371683), (0.9966807, 0.043606408, 0.378425), (0.9748266, -0.01734189, 0.371683), (0.59416515, -0.010464847, 0.035976052), (0.6167686, -0.03281934, 0.045805097), (0.47873113, -0.004794009, 0.041320443), (0.5016045, -0.03281934, 0.06323826), (0.9966807, 0.027203597, 0.03458023), (0.96911955, -0.032819293, 0.060478806), (0.53693134, -0.017341934, 0.371683), (0.6167686, -0.01857122, 0.34781826), (0.6167686, -0.018571459, 0.3478135), (0.7664238, -0.017341934, 0.371683), (0.9693775, -0.017341934, 0.3918786), (0.54129994, -0.032819323, 0.677454), (0.51485974, 0.027203567, 0.70335245), (0.9672374, -0.032819353, 0.6730901), (0.99766237, -0.004794039, 0.6950079), (0.51485974, 0.043606408, 0.37775457), (0.99766237, 0.03978654, 0.37761307), (0.6365493, -0.017341904, 1.020336), (0.84393084, -0.018571489, 0.9964665), (0.84393084, -0.01857125, 0.99647117), (0.98105925, -0.006310992, 1.0216651), (0.64225626, -0.032819323, 0.7238494), (0.61581606, 0.027203567, 0.69795096), (0.98089886, -0.030860297, 0.7173985), (0.99631006, -0.004794039, 0.69913673), (0.8439309, -0.032819353, 0.70917594), (0.86653435, -0.010464877, 0.6993469), (0.61581606, 0.043606386, 1.0270782), (0.9913339, 0.03978651, 1.0272195), (0.84393084, -0.0013183504, 1.0151833), (0.8602026, 0.014769398, 1.0281466), (-0.66878664, 0.014769398, 1.0302637), (-0.68505836, -0.0013183504, 1.0173002), (-0.5388299, 0.03978651, 1.0293366), (-0.55956316, -0.017341964, 1.0224531), (-0.99834293, 0.043606386, 1.0291952), (-0.9773734, -0.017341904, 1.0224531), (-0.66245484, -0.010464877, 0.69470274), (-0.68505836, -0.032819353, 0.7045318), (-0.5470208, -0.004794039, 0.6956723), (-0.56989425, -0.032819368, 0.7175902), (-0.99834293, 0.027203567, 0.6933068), (-0.9716664, -0.032819323, 0.7192055), (-0.60522103, -0.017341964, 1.0224531), (-0.68505836, -0.01857125, 0.9985882), (-0.68505836, -0.018571489, 0.99858356), (-0.8347136, -0.017341949, 1.0224531), (0.5989339, -0.008838527, 1.0448494), (0.58238167, -0.024977125, 1.184973), (0.51379585, 0.01473669, 1.1689873), (0.572931, 0.034143128, 1.0268409), (0.5147451, 0.039828174, 1.0268409), (0.5217936, -0.02497711, 1.0472095), (0.51488996, 0.04365939, 1.3731091), (0.5315242, -0.024977125, 1.3432093), (0.9978362, -0.010572597, 1.148292), (0.9682502, -0.024977125, 1.1704979), (0.99795514, -0.004884906, 1.0268409), (0.955981, -0.02497711, 1.0498481), (0.9986265, 0.0272078, 1.3731091), (0.96959597, -0.024977125, 1.3471339), (0.5732119, 0.041567653, 1.3731091), (0.5998897, -0.024977125, 1.3327746), (0.5270698, -0.024977125, 1.184973), (-0.9820306, -0.02058684, 1.0471275), (-0.3591559, -0.028616078, 1.344017), (-0.3326367, 0.0272078, 1.3699923), (-0.35629404, -0.028616078, 1.0492299), (-0.3288815, 0.019845292, 1.0241601), (-0.9784257, -0.02058684, 1.3496237), (-0.9970717, 0.04365939, 1.3699923), (-0.99713916, 0.039828174, 1.0267589), (0.46265447, -0.024826743, 1.7389348), (0.5777481, -0.024826743, 1.7348981), (0.4414083, -0.024826758, 1.8430326), (0.4579115, -0.008735977, 1.7177565), (0.35433373, 0.01476936, 1.8270946), (0.43198568, 0.034118287, 1.6998014), (0.3552802, 0.03978648, 1.6998014), (0.36230782, -0.024826743, 1.7201097), (0.35542464, 0.04360634, 2.0346544), (0.36230785, -0.024826758, 2.014346), (0.99855834, -0.010464922, 1.8208925), (0.9751906, -0.024826758, 1.8430326), (0.99867696, -0.0047940835, 1.6998014), (0.96295774, -0.024826743, 1.7227404), (0.9993464, 0.027203515, 2.0346544), (0.97653234, -0.024826758, 2.008756), (0.43226567, 0.041520804, 2.0346544), (0.4588645, -0.024826758, 1.9944392), (0.36756834, -0.024826758, 1.8430326), (-0.527843, -0.017341949, 2.0084763), (0.23046154, 0.014769368, 1.7030137), (0.21418977, -0.0013183802, 1.715977), (0.36041817, 0.03978648, 1.7039409), (0.33968493, -0.017341994, 1.7108244), (-0.14992982, 0.043606356, 1.7040823), (-0.12919658, -0.017341934, 1.7108244), (0.23679328, -0.010464929, 2.0336924), (0.21418983, -0.032819413, 2.0238633), (0.3522273, -0.0047940984, 2.0350294), (0.32935393, -0.032819413, 2.0131116), (-0.14992982, 0.027203515, 2.0350883), (-0.123489566, -0.032819383, 2.0091896), (0.2940271, -0.017341994, 1.7108244), (0.21418983, -0.01857128, 1.7346891), (0.21418983, -0.018571518, 1.7346938), (0.06453462, -0.017341979, 1.7108244), (-0.5010644, -0.020449482, 1.7241108), (-0.1766434, -0.028454922, 2.007771), (-0.1502029, 0.027203515, 2.0336695), (-0.17379001, -0.028454937, 1.726207), (-0.14645872, 0.019862816, 1.7012116), (-0.48776865, -0.020449482, 2.013361), (-0.50794756, 0.04360634, 2.0336692), (-0.50809205, 0.03978648, 1.7038025), (-0.98087317, -0.017342009, 2.0211544), (-0.53354996, -0.032819368, 1.731533), (-0.50710976, 0.02720353, 1.7056346), (-0.9787331, -0.032819413, 1.7287382), (-0.99848384, -0.0047940835, 1.7068204), (-0.50710976, 0.04360634, 2.0352783), (-0.99690837, 0.039786465, 2.03542), (-0.35993212, 0.014769308, 1.6989172), (-0.3762039, -0.0013184396, 1.6859539), (-0.22880083, 0.03978642, 1.6979901), (-0.6043187, 0.043606296, 1.6978487), (-0.35360038, -0.010464966, 1.3701174), (-0.37620384, -0.032819442, 1.3799465), (-0.22382468, -0.004794128, 1.3699073), (-0.6354617, -0.017341934, 1.376863), (-0.83618087, -0.018571503, 1.4007324), (-0.83618087, -0.018571265, 1.4007277), (-0.9160182, -0.017341994, 1.376863), (-0.64116865, -0.032819368, 1.6817229), (-0.61472845, 0.02720353, 1.7076213), (-0.9760834, -0.032819413, 1.6845177), (-0.9981701, -0.0047940835, 1.7064356), (-0.8361809, -0.032819413, 1.6963964), (-0.8587844, -0.010464914, 1.7062254), (-0.61472845, 0.04360637, 1.3701208), (-0.97822356, -0.017341994, 1.376863), (-0.9965946, 0.039786495, 1.3699794), (-0.83618087, -0.0013183653, 1.3820157), (-0.85245264, 0.014769383, 1.3690523), (-0.23923588, -0.030860387, 1.388169), (-0.6043187, 0.027203478, 1.3687215), (-0.5778785, -0.032819413, 1.39462), (-0.23907548, -0.006311081, 1.6924356), (-0.3762039, -0.01857134, 1.6672417), (-0.3762039, -0.018571578, 1.667237), (-0.58358544, -0.017341994, 1.6911066), (-0.35993212, 0.20518664, 1.6989172), (-0.3762039, 0.22127439, 1.6859539), (-0.22880083, 0.18016952, 1.6979901), (-0.6043187, 0.17634967, 1.6978487), (-0.35360038, 0.23042096, 1.3701174), (-0.37620384, 0.25277546, 1.3799465), (-0.22382468, 0.22475012, 1.3699073), (-0.23923588, 0.25081638, 1.388169), (-0.6043187, 0.19275251, 1.3687215), (-0.5778785, 0.2527754, 1.39462), (-0.23907548, 0.22626702, 1.6924356), (-0.3762039, 0.23852727, 1.6672417), (-0.3762039, 0.2385275, 1.667237), (-0.58358544, 0.23729795, 1.6911066), (0.97653234, 0.2447828, 1.6854681), (0.9993464, 0.19275254, 1.7113665), (0.96295774, 0.2447828, 1.3994526), (0.99867696, 0.22475016, 1.3765136), (0.9751906, 0.2447828, 1.5197448), (0.99855834, 0.230421, 1.4976046), (0.27155715, 0.2447828, 1.691058), (0.26467395, 0.17634971, 1.7113665), (0.27155712, 0.2447828, 1.3968219), (0.2645295, 0.18016958, 1.3765136), (0.34123498, 0.18583779, 1.3765136), (0.26358303, 0.2051867, 1.5038067), (0.3671608, 0.22869205, 1.3944687), (0.3506576, 0.2447828, 1.5197448), (0.48699743, 0.2447828, 1.4116102), (0.37190378, 0.2447828, 1.4156469), (0.96295774, -0.024826743, 1.3994526), (0.9993464, 0.027203515, 1.7113665), (0.97653234, -0.024826758, 1.6854681), (0.34151497, 0.041520804, 1.7113665), (0.36811382, -0.024826758, 1.6711514), (0.27681765, -0.024826758, 1.5197448)]
            uniform token subdivisionScheme = "none"
            uniform token subsetFamily:materialBind:familyType = "nonOverlapping"
            custom string userProperties:blender:data_name = "Cube.055"

            def GeomSubset "Main" (
                prepend apiSchemas = ["MaterialBindingAPI"]
            )
            {
                uniform token elementType = "face"
                uniform token familyName = "materialBind"
                int[] indices = [1, 2, 3, 4, 5, 7, 8, 9, 10, 11, 12, 13, 14, 15, 16, 17, 18, 19, 20, 21, 22, 23, 24, 25, 26, 27, 28, 29, 30, 31, 32, 33, 34, 35, 36, 37, 39, 40, 41, 43, 44, 45, 46, 47, 48, 49, 50, 51, 52, 53, 54, 55, 56, 57, 58, 59, 60, 61, 62, 63, 64, 65, 66, 67, 68, 69, 70, 71, 72, 73, 74, 75, 76, 77, 79, 80, 81, 82, 83, 84, 85, 86, 87, 89, 90, 91, 92, 93, 94, 95, 96, 97, 98, 99, 100, 102, 103, 104, 106, 107, 108, 109, 110, 111, 112, 113, 114, 115, 116, 117, 118, 120, 121, 122, 123, 124, 125, 126, 127, 128, 129, 131, 132, 133, 134, 135, 136, 137, 138, 139, 140, 141, 142, 143, 144, 145, 146, 147, 148, 149, 150, 151, 152, 153, 154, 155, 156, 157, 158, 159, 161, 162, 163, 164, 165, 167, 168, 169, 170, 171, 172, 173, 174, 175, 176, 177, 178, 179, 180, 181, 182, 183, 184, 185, 187, 188, 189, 190, 191, 192, 193, 194, 195, 196, 198, 199, 200, 201, 202, 203, 204, 205, 206, 207, 208, 209, 210, 211, 212, 213, 214, 215, 216, 217, 218, 220, 221, 222, 224, 225, 226, 227, 228, 229, 230, 231, 232, 233, 234, 235, 236, 237, 239, 240, 241, 242, 243, 244, 245, 246, 247, 248, 249, 250, 252, 253, 254, 256, 257, 258, 259, 260, 261, 262, 263, 264, 265, 266, 267, 268, 269, 270, 271, 272, 273, 275, 276, 278, 279, 280, 281, 282, 283, 284, 285, 286, 287, 288, 289, 290, 291, 292, 293, 294, 295, 296, 297, 298, 300, 301, 302, 303, 304, 305, 307, 308, 309, 310, 311, 312, 314, 315, 317, 318, 319, 320, 321, 322, 323, 325, 326, 327, 328, 329, 330, 332, 333, 334, 335, 336, 337, 338, 339, 340, 341, 342, 343, 344, 345, 346, 347, 348, 350, 351, 352, 354, 355, 356, 357, 358, 359, 360, 361, 362, 363, 364, 366, 367, 368, 369, 370, 371, 373, 374, 375, 376, 377, 378, 379, 380, 381, 382, 383, 384, 385, 387, 388, 390, 391, 393, 394, 396, 397, 398, 399, 400, 401, 402, 403, 404, 406, 407, 408, 409, 410, 412, 413, 414, 415, 416, 417, 418, 420, 421, 422, 423, 425, 427, 428, 429, 430, 431, 432, 433, 434, 435]
                rel material:binding = </root/_materials/Main>
            }

            def GeomSubset "Highlights" (
                prepend apiSchemas = ["MaterialBindingAPI"]
            )
            {
                uniform token elementType = "face"
                uniform token familyName = "materialBind"
                int[] indices = [0, 6, 38, 42, 78, 88, 101, 105, 119, 130, 160, 166, 186, 197, 219, 223, 238, 251, 255, 274, 277, 299, 306, 313, 316, 324, 331, 349, 353, 365, 372, 386, 389, 392, 395, 405, 411, 419, 424, 426]
                rel material:binding = </root/_materials/Highlights>
            }
        }
    }

    def Scope "_materials"
    {
        def Material "Main"
        {
            token outputs:surface.connect = </root/_materials/Main/Principled_BSDF.outputs:surface>
            custom string userProperties:blender:data_name = "Main"

            def Shader "Principled_BSDF"
            {
                uniform token info:id = "UsdPreviewSurface"
                float inputs:clearcoat = 0
                float inputs:clearcoatRoughness = 0.03
                color3f inputs:diffuseColor = (0.15896088, 0.1620294, 0.12477183)
                float inputs:ior = 1.5
                float inputs:metallic = 0
                float inputs:opacity = 1
                float inputs:roughness = 0.6900348
                float inputs:specular = 0.5
                token outputs:surface
            }
        }

        def Material "Highlights"
        {
            token outputs:surface.connect = </root/_materials/Highlights/Principled_BSDF.outputs:surface>
            custom string userProperties:blender:data_name = "Highlights"

            def Shader "Principled_BSDF"
            {
                uniform token info:id = "UsdPreviewSurface"
                float inputs:clearcoat = 0
                float inputs:clearcoatRoughness = 0.03
                color3f inputs:diffuseColor = (0.28993252, 0.2956869, 0.22595453)
                float inputs:ior = 1.5
                float inputs:metallic = 0
                float inputs:opacity = 1
                float inputs:roughness = 0.6900348
                float inputs:specular = 0.5
                token outputs:surface
            }
        }
    }
}

