#usda 1.0
(
    defaultPrim = "root"
    doc = "Blender v5.1.2"
    metersPerUnit = 1
    upAxis = "Y"
)

def Xform "root" (
    customData = {
        dictionary Blender = {
            bool generated = 1
        }
    }
)
{
    float3 xformOp:rotateXYZ = (-90, -0, 0)
    uniform token[] xformOpOrder = ["xformOp:rotateXYZ"]

    def Xform "Pallet"
    {
        custom string userProperties:blender:object_name = "Pallet"

        def Mesh "Cube_001" (
            active = true
            prepend apiSchemas = ["MaterialBindingAPI"]
        )
        {
            uniform bool doubleSided = 1
            float3[] extent = [(-0.84801, -0.728292, -0.0061771055), (0.84801, 0.728292, 0.18704487)]
            int[] faceVertexCounts = [4, 4, 4, 4, 4, 4, 4, 4, 4, 4, 4, 4, 4, 4, 4, 4, 4, 4, 4, 4, 4, 4, 4, 4, 4, 4, 4, 4, 4, 4, 4, 4, 4, 4, 4, 4, 4, 4, 4, 4, 4, 4, 4, 4, 4, 4, 4, 4, 4, 4, 4, 4, 4, 4, 4, 4, 4, 4, 4, 4, 4, 4, 4, 4, 4, 4, 4, 4, 4, 4, 4, 4, 4, 4, 4, 4, 4, 4, 4, 4, 4, 4, 4, 4, 4, 4, 4, 4]
            int[] faceVertexIndices = [0, 1, 3, 2, 2, 3, 7, 6, 6, 7, 5, 4, 4, 5, 1, 0, 2, 6, 4, 0, 7, 3, 1, 5, 8, 9, 11, 10, 10, 11, 15, 14, 14, 15, 13, 12, 12, 13, 9, 8, 10, 14, 12, 8, 15, 11, 9, 13, 16, 18, 19, 17, 18, 22, 23, 19, 22, 20, 21, 23, 20, 16, 17, 21, 18, 16, 20, 22, 23, 21, 17, 19, 24, 30, 31, 25, 27, 26, 34, 35, 30, 24, 27, 35, 24, 25, 26, 27, 25, 31, 34, 26, 28, 29, 31, 30, 33, 35, 34, 32, 30, 35, 33, 28, 28, 33, 32, 29, 29, 32, 34, 31, 36, 42, 43, 37, 39, 38, 46, 47, 42, 36, 39, 47, 36, 37, 38, 39, 37, 43, 46, 38, 40, 41, 43, 42, 45, 47, 46, 44, 42, 47, 45, 40, 40, 45, 44, 41, 41, 44, 46, 43, 48, 54, 55, 49, 51, 50, 58, 59, 54, 48, 51, 59, 48, 49, 50, 51, 49, 55, 58, 50, 52, 53, 55, 54, 57, 59, 58, 56, 54, 59, 57, 52, 52, 57, 56, 53, 53, 56, 58, 55, 60, 66, 67, 61, 63, 62, 70, 71, 66, 60, 63, 71, 60, 61, 62, 63, 61, 67, 70, 62, 64, 65, 67, 66, 69, 71, 70, 68, 66, 71, 69, 64, 64, 69, 68, 65, 65, 68, 70, 67, 72, 78, 79, 73, 75, 74, 82, 83, 78, 72, 75, 83, 72, 73, 74, 75, 73, 79, 82, 74, 76, 77, 79, 78, 81, 83, 82, 80, 78, 83, 81, 76, 76, 81, 80, 77, 77, 80, 82, 79, 84, 90, 91, 85, 87, 86, 94, 95, 90, 84, 87, 95, 84, 85, 86, 87, 85, 91, 94, 86, 88, 89, 91, 90, 93, 95, 94, 92, 90, 95, 93, 88, 88, 93, 92, 89, 89, 92, 94, 91, 96, 102, 103, 97, 99, 98, 106, 107, 102, 96, 99, 107, 96, 97, 98, 99, 97, 103, 106, 98, 100, 101, 103, 102, 105, 107, 106, 104, 102, 107, 105, 100, 100, 105, 104, 101, 101, 104, 106, 103]
            rel material:binding = </root/_materials/Wood>
            normal3f[] normals = [(-1, 0, 0), (-1, 0, 0), (-1, 0, 0), (-1, 0, 0), (0, 0.99999994, 0), (0, 0.99999994, 0), (0, 0.99999994, 0), (0, 0.99999994, 0), (1, 0, 0), (1, 0, 0), (1, 0, 0), (1, 0, 0), (0, -0.99999994, 0), (0, -0.99999994, 0), (0, -0.99999994, 0), (0, -0.99999994, 0), (0, -1.6304399e-7, -1), (0, -1.6304399e-7, -1), (0, -1.6304399e-7, -1), (0, -1.6304399e-7, -1), (0, 1.6368338e-7, 1), (0, 1.6368338e-7, 1), (0, 1.6368338e-7, 1), (0, 1.6368338e-7, 1), (-1, 0, 0), (-1, 0, 0), (-1, 0, 0), (-1, 0, 0), (0, 1, 0), (0, 1, 0), (0, 1, 0), (0, 1, 0), (1, 0, 0), (1, 0, 0), (1, 0, 0), (1, 0, 0), (0, -1, 0), (0, -1, 0), (0, -1, 0), (0, -1, 0), (0, -1.6304399e-7, -0.99999994), (0, -1.6304399e-7, -0.99999994), (0, -1.6304399e-7, -0.99999994), (0, -1.6304399e-7, -0.99999994), (0, 1.6368337e-7, 0.99999994), (0, 1.6368337e-7, 0.99999994), (0, 1.6368337e-7, 0.99999994), (0, 1.6368337e-7, 0.99999994), (1, -2.9126783e-8, 0), (1, -2.9126783e-8, 0), (1, -2.9126783e-8, 0), (1, -2.9126783e-8, 0), (0, 1, 0), (0, 1, 0), (0, 1, 0), (0, 1, 0), (-1, -4.8580476e-11, 0), (-1, -4.8580476e-11, 0), (-1, -4.8580476e-11, 0), (-1, -4.8580476e-11, 0), (0, -1, 0), (0, -1, 0), (0, -1, 0), (0, -1, 0), (0, -1.6304399e-7, -0.99999994), (0, -1.6304399e-7, -0.99999994), (0, -1.6304399e-7, -0.99999994), (0, -1.6304399e-7, -0.99999994), (0, 1.6368337e-7, 0.99999994), (0, 1.6368337e-7, 0.99999994), (0, 1.6368337e-7, 0.99999994), (0, 1.6368337e-7, 0.99999994), (0, -1.5943262e-7, -1), (0, -1.5943263e-7, -1), (0, -1.5943263e-7, -1), (0, -1.5943262e-7, -1), (0, 1.5943262e-7, 1), (0, 1.5943262e-7, 1), (0, 1.5943263e-7, 1), (0, 1.5943263e-7, 1), (0, 1, -0.000002200751), (0, 1, -0.000002200751), (0, 1, -0.000002200751), (0, 1, -0.000002200751), (-0.99999994, 1.5232717e-7, 0), (-0.99999994, 1.5232717e-7, 0), (-0.99999994, 1.5232717e-7, 0), (-0.99999994, 1.5232717e-7, 0), (0, -1, 0.000002200751), (0, -1, 0.000002200751), (0, -1, 0.000002200751), (0, -1, 0.000002200751), (0, -1.5943262e-7, -1), (0, -1.5943262e-7, -1), (0, -1.5943263e-7, -1), (0, -1.5943263e-7, -1), (0, 1.5943262e-7, 1), (0, 1.5943263e-7, 1), (0, 1.5943263e-7, 1), (0, 1.5943262e-7, 1), (0, 1, -0.000002200751), (0, 1, -0.000002200751), (0, 1, -0.000002200751), (0, 1, -0.000002200751), (1, 0, 0), (1, 0, 0), (1, 0, 0), (1, 0, 0), (0, -1, 0.000002200751), (0, -1, 0.000002200751), (0, -1, 0.000002200751), (0, -1, 0.000002200751), (0, -1.5943264e-7, -0.99999994), (0, -1.5943266e-7, -1), (0, -1.5943266e-7, -1), (0, -1.5943264e-7, -0.99999994), (0, 1.5943264e-7, 0.99999994), (0, 1.5943264e-7, 0.99999994), (0, 1.5943266e-7, 1), (0, 1.5943266e-7, 1), (0, 1, 0), (0, 1, 0), (0, 1, 0), (0, 1, 0), (-0.99999994, 1.5232717e-7, 0), (-0.99999994, 1.5232717e-7, 0), (-0.99999994, 1.5232717e-7, 0), (-0.99999994, 1.5232717e-7, 0), (0, -1, 0), (0, -1, 0), (0, -1, 0), (0, -1, 0), (0, -1.5943264e-7, -0.99999994), (0, -1.5943264e-7, -0.99999994), (0, -1.5943266e-7, -1), (0, -1.5943266e-7, -1), (0, 1.5943264e-7, 0.99999994), (0, 1.5943266e-7, 1), (0, 1.5943266e-7, 1), (0, 1.5943264e-7, 0.99999994), (0, 1, 0), (0, 1, 0), (0, 1, 0), (0, 1, 0), (0.99999994, 0, 0), (0.99999994, 0, 0), (0.99999994, 0, 0), (0.99999994, 0, 0), (0, -1, 0), (0, -1, 0), (0, -1, 0), (0, -1, 0), (-5.9006946e-9, -1.5922694e-7, -0.99999994), (2.9503486e-9, -1.5967505e-7, -1), (2.9503486e-9, -1.5967505e-7, -1), (-5.9006946e-9, -1.5922694e-7, -0.99999994), (0, 1.5922694e-7, 0.99999994), (0, 1.5922694e-7, 0.99999994), (8.851043e-9, 1.5967505e-7, 1), (8.851043e-9, 1.5967505e-7, 1), (-0.050780848, 0.99870986, -4.1264084e-7), (-0.050780833, 0.99870986, -2.7509387e-7), (-0.050780833, 0.99870986, -2.7509387e-7), (-0.050780848, 0.99870986, -4.1264084e-7), (-0.99870974, -0.05078128, 9.707832e-9), (-0.99870974, -0.05078128, 9.707832e-9), (-0.99870974, -0.05078128, 9.707832e-9), (-0.99870974, -0.05078128, 9.707832e-9), (0.050780848, -0.9987098, 5.5018774e-7), (0.050780848, -0.99870986, 2.750939e-7), (0.050780848, -0.99870986, 2.750939e-7), (0.050780848, -0.9987098, 5.5018774e-7), (1.1801391e-8, -1.6012315e-7, -1), (1.1801391e-8, -1.6012315e-7, -1), (2.9503486e-9, -1.5967505e-7, -1), (2.9503486e-9, -1.5967505e-7, -1), (1.7702083e-8, 1.6012312e-7, 0.99999994), (8.851043e-9, 1.5967505e-7, 1), (8.851043e-9, 1.5967505e-7, 1), (1.7702083e-8, 1.6012312e-7, 0.99999994), (-0.050780848, 0.99870986, -4.1264084e-7), (-0.050780848, 0.99870986, -4.1264084e-7), (-0.050780848, 0.9987098, -5.5018774e-7), (-0.050780848, 0.9987098, -5.5018774e-7), (0.99870974, 0.050781153, -9.707837e-9), (0.99870974, 0.050781153, -9.707837e-9), (0.99870974, 0.050781153, -9.707837e-9), (0.99870974, 0.050781153, -9.707837e-9), (0.050780844, -0.99870986, 0), (0.050780844, -0.99870986, 0), (0.050780848, -0.99870986, 2.750939e-7), (0.050780848, -0.99870986, 2.750939e-7), (4.425521e-9, -1.5936725e-7, -0.99999994), (2.2127606e-9, -1.5961999e-7, -1), (2.2127606e-9, -1.5961999e-7, -1), (4.425521e-9, -1.5936725e-7, -0.99999994), (0, 1.5936725e-7, 0.99999994), (0, 1.5936725e-7, 0.99999994), (-1.475174e-9, 1.5961999e-7, 1), (-1.475174e-9, 1.5961999e-7, 1), (0.02863988, 0.9995898, 0), (0.028639885, 0.9995898, 0), (0.028639885, 0.9995898, 0), (0.02863988, 0.9995898, 0), (-0.9995898, 0.028639974, 0), (-0.9995898, 0.028639974, 0), (-0.9995898, 0.028639974, 0), (-0.9995898, 0.028639974, 0), (-0.028639877, -0.99958974, 0), (-0.02863988, -0.9995898, 0), (-0.02863988, -0.9995898, 0), (-0.028639877, -0.99958974, 0), (0, -1.598727e-7, -1), (0, -1.598727e-7, -1), (2.2127606e-9, -1.5961999e-7, -1), (2.2127606e-9, -1.5961999e-7, -1), (-2.9503477e-9, 1.598727e-7, 1), (-1.475174e-9, 1.5961999e-7, 1), (-1.475174e-9, 1.5961999e-7, 1), (-2.9503477e-9, 1.598727e-7, 1), (0.02863988, 0.9995898, 0), (0.02863988, 0.9995898, 0), (0.028639877, 0.99958974, 0), (0.028639877, 0.99958974, 0), (0.9995898, -0.028639821, 0), (0.9995898, -0.028639821, 0), (0.9995898, -0.028639821, 0), (0.9995898, -0.028639821, 0), (-0.028639885, -0.9995898, 0), (-0.028639885, -0.9995898, 0), (-0.02863988, -0.9995898, 0), (-0.02863988, -0.9995898, 0), (0, -1.5943267e-7, -1), (0, -1.5943267e-7, -1), (0, -1.5943267e-7, -1), (0, -1.5943267e-7, -1), (0, 1.594327e-7, 1), (0, 1.594327e-7, 1), (0, 1.594327e-7, 1), (0, 1.594327e-7, 1), (0, 1, -0.0000011003755), (0, 1, -0.0000011003755), (0, 1, -0.0000011003755), (0, 1, -0.0000011003755), (-0.99999994, 1.5232717e-7, 0), (-0.99999994, 1.5232717e-7, 0), (-0.99999994, 1.5232717e-7, 0), (-0.99999994, 1.5232717e-7, 0), (0, -1, 0.000002200751), (0, -1, 0.000002200751), (0, -1, 0.000002200751), (0, -1, 0.000002200751), (0, -1.5943267e-7, -1), (0, -1.5943267e-7, -1), (0, -1.5943267e-7, -1), (0, -1.5943267e-7, -1), (0, 1.594327e-7, 1), (0, 1.594327e-7, 1), (0, 1.594327e-7, 1), (0, 1.594327e-7, 1), (0, 1, -0.0000011003755), (0, 1, -0.0000011003755), (0, 1, -0.0000011003755), (0, 1, -0.0000011003755), (1, 0, 0), (1, 0, 0), (1, 0, 0), (1, 0, 0), (0, -1, 0.000002200751), (0, -1, 0.000002200751), (0, -1, 0.000002200751), (0, -1, 0.000002200751), (0, -1.6335386e-7, -1), (0, -1.6335386e-7, -1), (0, -1.6335386e-7, -1), (0, -1.6335386e-7, -1), (0, 1.6335386e-7, 1), (0, 1.6335386e-7, 1), (0, 1.6335386e-7, 1), (0, 1.6335386e-7, 1), (0, 1, 0), (0, 1, 0), (0, 1, 0), (0, 1, 0), (-0.99999994, 6.284856e-8, 0), (-0.99999994, 6.284856e-8, 0), (-0.99999994, 6.284856e-8, 0), (-0.99999994, 6.284856e-8, 0), (0, -1, 0), (0, -1, 0), (0, -1, 0), (0, -1, 0), (0, -1.6335386e-7, -1), (0, -1.6335386e-7, -1), (0, -1.6335386e-7, -1), (0, -1.6335386e-7, -1), (0, 1.6335386e-7, 1), (0, 1.6335386e-7, 1), (0, 1.6335386e-7, 1), (0, 1.6335386e-7, 1), (0, 1, 0), (0, 1, 0), (0, 1, 0), (0, 1, 0), (0.99999994, 0, 0), (0.99999994, 0, 0), (0.99999994, 0, 0), (0.99999994, 0, 0), (0, -1, 0), (0, -1, 0), (0, -1, 0), (0, -1, 0), (0, -1.616523e-7, -1), (0, -1.616523e-7, -1), (0, -1.616523e-7, -1), (0, -1.616523e-7, -1), (0, 1.633539e-7, 1), (0, 1.633539e-7, 1), (0, 1.633539e-7, 1), (0, 1.633539e-7, 1), (0, 1, 0), (0, 1, 0), (0, 1, 0), (0, 1, 0), (-0.99999994, 6.284858e-8, 0), (-0.99999994, 6.284858e-8, 0), (-0.99999994, 6.284858e-8, 0), (-0.99999994, 6.284858e-8, 0), (0, -1, 0), (0, -1, 0), (0, -1, 0), (0, -1, 0), (0, -1.616523e-7, -1), (0, -1.616523e-7, -1), (0, -1.616523e-7, -1), (0, -1.616523e-7, -1), (0, 1.633539e-7, 1), (0, 1.633539e-7, 1), (0, 1.633539e-7, 1), (0, 1.633539e-7, 1), (0, 1, 0), (0, 1, 0), (0, 1, 0), (0, 1, 0), (0.99999994, 0, 0), (0.99999994, 0, 0), (0.99999994, 0, 0), (0.99999994, 0, 0), (0, -1, 0), (0, -1, 0), (0, -1, 0), (0, -1, 0)] (
                interpolation = "faceVarying"
            )
            point3f[] points = [(-0.07653203, -0.728292, -0.006176868), (-0.07653203, -0.728292, 0.15127179), (-0.07653203, 0.728292, -0.0061771055), (-0.07653203, 0.728292, 0.15127155), (0.07653203, -0.728292, -0.006176868), (0.07653203, -0.728292, 0.15127179), (0.07653203, 0.728292, -0.0061771055), (0.07653203, 0.728292, 0.15127155), (-0.84051734, -0.728292, -0.006176868), (-0.84051734, -0.728292, 0.15127179), (-0.84051734, 0.728292, -0.0061771055), (-0.84051734, 0.728292, 0.15127155), (-0.68745327, -0.728292, -0.006176868), (-0.68745327, -0.728292, 0.15127179), (-0.68745327, 0.728292, -0.0061771055), (-0.68745327, 0.728292, 0.15127155), (0.84051734, -0.728292, -0.006176868), (0.84051734, -0.728292, 0.15127179), (0.84051734, 0.728292, -0.0061771055), (0.84051734, 0.728292, 0.15127155), (0.68745327, -0.728292, -0.006176868), (0.68745327, -0.728292, 0.15127179), (0.68745327, 0.728292, -0.0061771055), (0.68745327, 0.728292, 0.15127155), (-0.8443532, 0.7174502, 0.15496828), (-0.8443532, 0.5305228, 0.1549683), (-0.8443532, 0.5305229, 0.18704467), (-0.8443532, 0.71745026, 0.18704464), (0.8443532, 0.7174502, 0.15496828), (0.8443532, 0.5305228, 0.1549683), (0, 0.7174502, 0.15496828), (0, 0.5305228, 0.1549683), (0.8443532, 0.5305229, 0.18704467), (0.8443532, 0.71745026, 0.18704464), (0, 0.5305229, 0.18704467), (0, 0.71745026, 0.18704464), (-0.8443532, 0.40902013, 0.15496834), (-0.8443532, 0.22209278, 0.15496837), (-0.8443532, 0.22209278, 0.18704472), (-0.8443532, 0.40902013, 0.1870447), (0.8443532, 0.40902013, 0.15496834), (0.8443532, 0.22209278, 0.15496837), (0, 0.40902013, 0.15496834), (0, 0.22209278, 0.15496837), (0.8443532, 0.22209278, 0.18704472), (0.8443532, 0.40902013, 0.1870447), (0, 0.22209278, 0.18704472), (0, 0.40902013, 0.1870447), (-0.84801, 0.07182901, 0.15496838), (-0.8385176, -0.11485716, 0.15496841), (-0.8385176, -0.11485715, 0.18704477), (-0.84801, 0.07182902, 0.18704474), (0.8385176, 0.15758297, 0.15496837), (0.84801, -0.029103199, 0.1549684), (-0.0047461637, 0.11470599, 0.15496838), (0.0047461637, -0.07198018, 0.15496841), (0.84801, -0.029103195, 0.18704475), (0.8385176, 0.15758297, 0.18704472), (0.0047461637, -0.07198017, 0.18704477), (-0.0047461637, 0.114705995, 0.18704474), (-0.84133005, -0.18369627, 0.15496843), (-0.8466836, -0.37054694, 0.15496846), (-0.8466836, -0.37054694, 0.18704481), (-0.84133005, -0.18369627, 0.18704478), (0.8466836, -0.23206063, 0.15496844), (0.84133005, -0.41891128, 0.15496847), (0.0026767887, -0.20787846, 0.15496843), (-0.0026767887, -0.3947291, 0.15496846), (0.84133005, -0.41891128, 0.18704483), (0.8466836, -0.23206063, 0.1870448), (-0.0026767887, -0.3947291, 0.18704481), (0.0026767887, -0.20787846, 0.18704478), (-0.8443532, -0.5162702, 0.15496849), (-0.8443532, -0.70319754, 0.15496852), (-0.8443532, -0.7031975, 0.18704487), (-0.8443532, -0.51627016, 0.18704484), (0.8443532, -0.5162702, 0.15496849), (0.8443532, -0.70319754, 0.15496852), (0, -0.5162702, 0.15496849), (0, -0.70319754, 0.15496852), (0.8443532, -0.7031975, 0.18704487), (0.8443532, -0.51627016, 0.18704484), (0, -0.7031975, 0.18704487), (0, -0.51627016, 0.18704484), (-0.8160529, -0.5413188, -0.0038905016), (-0.8160529, -0.678149, -0.0038904792), (-0.8160529, -0.678149, 0.041024204), (-0.8160529, -0.5413188, 0.041024182), (0.8160529, -0.5413188, -0.0038905016), (0.8160529, -0.678149, -0.0038904792), (0, -0.5413188, -0.0038905016), (0, -0.678149, -0.0038904792), (0.8160529, -0.678149, 0.041024204), (0.8160529, -0.5413188, 0.041024182), (0, -0.678149, 0.041024204), (0, -0.5413188, 0.041024182), (-0.8160529, 0.66492724, -0.003890698), (-0.8160529, 0.5280971, -0.003890676), (-0.8160529, 0.5280971, 0.041024007), (-0.8160529, 0.66492724, 0.041023985), (0.8160529, 0.66492724, -0.003890698), (0.8160529, 0.5280971, -0.003890676), (0, 0.66492724, -0.003890698), (0, 0.5280971, -0.003890676), (0.8160529, 0.5280971, 0.041024007), (0.8160529, 0.66492724, 0.041023985), (0, 0.5280971, 0.041024007), (0, 0.66492724, 0.041023985)]
            uniform token subdivisionScheme = "none"
            custom string userProperties:blender:data_name = "Cube.001"
        }
    }

    def Scope "_materials"
    {
        def Material "Wood"
        {
            token outputs:surface.connect = </root/_materials/Wood/Principled_BSDF.outputs:surface>
            custom string userProperties:blender:data_name = "Wood"

            def Shader "Principled_BSDF"
            {
                uniform token info:id = "UsdPreviewSurface"
                float inputs:clearcoat = 0
                float inputs:clearcoatRoughness = 0.03
                color3f inputs:diffuseColor = (0.3757453, 0.20292167, 0.058710486)
                float inputs:ior = 1.5
                float inputs:metallic = 0
                float inputs:opacity = 1
                float inputs:roughness = 0.6900348
                float inputs:specular = 0.5
                token outputs:surface
            }
        }
    }
}

