#usda 1.0
(
    defaultPrim = "root"
    doc = "Blender v5.1.2"
    metersPerUnit = 1
    upAxis = "Y"
)

def Xform "root" (
    customData = {
        dictionary Blender = {
            bool generated = 1
        }
    }
)
{
    float3 xformOp:rotateXYZ = (-90, -0, 0)
    uniform token[] xformOpOrder = ["xformOp:rotateXYZ"]

    def Xform "Fence_End"
    {
        custom string userProperties:blender:object_name = "Fence_End"

        def Mesh "Cube_040" (
            active = true
            prepend apiSchemas = ["MaterialBindingAPI"]
        )
        {
            uniform bool doubleSided = 1
            float3[] extent = [(-1, -0.2906043, -0.99999994), (0.2906043, 0.2906043, 1)]
            int[] faceVertexCounts = [4, 4, 4, 4, 3, 3, 3, 3, 4, 4, 4, 4, 4, 4, 4, 4, 8, 4, 4, 4, 8, 4, 4, 4, 4, 4, 4, 4, 4, 8, 4, 4, 4, 4, 4, 4, 4]
            int[] faceVertexIndices = [11, 13, 2, 0, 17, 7, 3, 12, 1, 4, 9, 5, 6, 8, 19, 15, 2, 3, 4, 7, 8, 9, 12, 13, 14, 17, 18, 19, 0, 2, 4, 1, 3, 7, 9, 4, 8, 6, 5, 9, 7, 17, 19, 8, 18, 16, 15, 19, 17, 12, 14, 18, 13, 11, 10, 14, 12, 3, 2, 13, 5, 6, 15, 16, 10, 11, 0, 1, 30, 31, 29, 28, 38, 24, 21, 32, 36, 26, 25, 39, 26, 27, 22, 23, 20, 21, 24, 25, 33, 20, 23, 35, 34, 22, 27, 37, 32, 21, 20, 33, 24, 38, 39, 25, 26, 36, 37, 27, 22, 34, 35, 23, 54, 44, 41, 48, 52, 46, 45, 55, 46, 47, 42, 43, 40, 41, 44, 45, 49, 40, 43, 51, 50, 42, 47, 53, 48, 41, 40, 49, 44, 54, 55, 45, 46, 52, 53, 47, 42, 50, 51, 43, 18, 14, 10, 16]
            rel material:binding = </root/_materials/Atlas>
            normal3f[] normals = [(-0.99999994, 0, 0), (-0.99999994, 0, 0), (-0.99999994, 0, 0), (-0.99999994, 0, 0), (0, 0, 1), (0, 0, 1), (0, 0, 1), (0, 0, 1), (0, 0.99999994, 0), (0, 0.99999994, 0), (0, 0.99999994, 0), (0, 0.99999994, 0), (0.99999994, 0, 0), (0.99999994, 0, 0), (0.99999994, 0, 0), (0.99999994, 0, 0), (-0.6368061, 0.22223796, 0.738301), (-0.42464876, 0.4246489, 0.7995916), (-0.22223786, 0.6368061, 0.738301), (0.42464903, 0.4246487, 0.7995916), (0.6368063, 0.22223774, 0.73830086), (0.2222381, 0.636806, 0.738301), (-0.42464903, -0.4246487, 0.7995916), (-0.6368063, -0.22223774, 0.73830086), (-0.2222381, -0.636806, 0.738301), (0.42464876, -0.4246489, 0.7995916), (0.22223786, -0.6368061, 0.738301), (0.6368061, -0.22223796, 0.738301), (-0.7071067, 0.7071068, 0), (-0.7071067, 0.7071068, 0), (-0.7071067, 0.7071068, 0), (-0.7071067, 0.7071068, 0), (-0.42464876, 0.4246489, 0.7995916), (0.42464903, 0.4246487, 0.7995916), (0.2222381, 0.636806, 0.738301), (-0.22223786, 0.6368061, 0.738301), (0.7071069, 0.7071066, 0), (0.7071069, 0.7071066, 0), (0.7071069, 0.7071066, 0), (0.7071069, 0.7071066, 0), (0.42464903, 0.4246487, 0.7995916), (0.42464876, -0.4246489, 0.7995916), (0.6368061, -0.22223796, 0.738301), (0.6368063, 0.22223774, 0.73830086), (0.7071067, -0.7071068, 0), (0.7071067, -0.7071068, 0), (0.7071067, -0.7071068, 0), (0.7071067, -0.7071068, 0), (0.42464876, -0.4246489, 0.7995916), (-0.42464903, -0.4246487, 0.7995916), (-0.2222381, -0.636806, 0.738301), (0.22223786, -0.6368061, 0.738301), (-0.7071069, -0.7071066, 0), (-0.7071069, -0.7071066, 0), (-0.7071069, -0.7071066, 0), (-0.7071069, -0.7071066, 0), (-0.42464903, -0.4246487, 0.7995916), (-0.42464876, 0.4246489, 0.7995916), (-0.6368061, 0.22223796, 0.738301), (-0.6368063, -0.22223774, 0.73830086), (6.982181e-8, 0, -1), (6.982181e-8, 0, -1), (6.982181e-8, 0, -1), (6.982181e-8, 0, -1), (6.982181e-8, 0, -1), (6.982181e-8, 0, -1), (6.982181e-8, 0, -1), (6.982181e-8, 0, -1), (-0.99999994, 0, 0), (-0.99999994, 0, 0), (-0.99999994, 0, 0), (-0.99999994, 0, 0), (-1.1920929e-7, 1, -9.273637e-8), (-1.1920929e-7, 1, -9.273637e-8), (-1.1920929e-7, 1, -9.273637e-8), (-1.1920929e-7, 1, -9.273637e-8), (7.379617e-8, -2.3184099e-7, -1), (7.379617e-8, -2.3184099e-7, -1), (7.379617e-8, -2.3184099e-7, -1), (7.379617e-8, -2.3184099e-7, -1), (-1, -1.13196606e-7, -6.054353e-8), (-1, -1.13196606e-7, -6.054353e-8), (-1, -1.13196606e-7, -6.054353e-8), (-1, -1.13196606e-7, -6.054353e-8), (-1, -1.13196606e-7, -6.054353e-8), (-1, -1.13196606e-7, -6.054353e-8), (-1, -1.13196606e-7, -6.054353e-8), (-1, -1.13196606e-7, -6.054353e-8), (-1.547002e-7, 1.854728e-7, 0.99999994), (-1.547002e-7, 1.854728e-7, 0.99999994), (-1.547002e-7, 1.854728e-7, 0.99999994), (-1.547002e-7, 1.854728e-7, 0.99999994), (1.3411044e-7, -1, 9.2736386e-8), (1.3411044e-7, -1, 9.2736386e-8), (1.3411044e-7, -1, 9.2736386e-8), (1.3411044e-7, -1, 9.2736386e-8), (-1.374446e-7, 0.707107, 0.7071064), (-1.374446e-7, 0.707107, 0.7071064), (-1.374446e-7, 0.707107, 0.7071064), (-1.374446e-7, 0.707107, 0.7071064), (-5.949842e-9, 0.70710665, -0.70710695), (-5.949842e-9, 0.70710665, -0.70710695), (-5.949842e-9, 0.70710665, -0.70710695), (-5.949842e-9, 0.70710665, -0.70710695), (1.2012852e-7, -0.70710707, -0.7071066), (1.2012852e-7, -0.70710707, -0.7071066), (1.2012852e-7, -0.70710707, -0.7071066), (1.2012852e-7, -0.70710707, -0.7071066), (-1.6154727e-8, -0.7071066, 0.70710695), (-1.6154727e-8, -0.7071066, 0.70710695), (-1.6154727e-8, -0.7071066, 0.70710695), (-1.6154727e-8, -0.7071066, 0.70710695), (-2.9802322e-8, 1, -6.601054e-8), (-2.9802322e-8, 1, -6.601054e-8), (-2.9802322e-8, 1, -6.601054e-8), (-2.9802322e-8, 1, -6.601054e-8), (-2.3619414e-8, -3.960634e-7, -1), (-2.3619414e-8, -3.960634e-7, -1), (-2.3619414e-8, -3.960634e-7, -1), (-2.3619414e-8, -3.960634e-7, -1), (-1, 0, -8.619079e-8), (-1, 0, -8.619079e-8), (-1, 0, -8.619079e-8), (-1, 0, -8.619079e-8), (-1, 0, -8.619079e-8), (-1, 0, -8.619079e-8), (-1, 0, -8.619079e-8), (-1, 0, -8.619079e-8), (-2.8889533e-8, 1.3202113e-7, 1), (-2.8889533e-8, 1.3202113e-7, 1), (-2.8889533e-8, 1.3202113e-7, 1), (-2.8889533e-8, 1.3202113e-7, 1), (4.4703466e-8, -1, 1.320211e-7), (4.4703466e-8, -1, 1.320211e-7), (4.4703466e-8, -1, 1.320211e-7), (4.4703466e-8, -1, 1.320211e-7), (-3.955462e-8, 0.707107, 0.7071066), (-3.955462e-8, 0.707107, 0.7071066), (-3.955462e-8, 0.707107, 0.7071066), (-3.955462e-8, 0.707107, 0.7071066), (1.5150492e-8, 0.70710665, -0.7071068), (1.5150492e-8, 0.70710665, -0.7071068), (1.5150492e-8, 0.70710665, -0.7071068), (1.5150492e-8, 0.70710665, -0.7071068), (5.936141e-8, -0.7071069, -0.7071066), (5.936141e-8, -0.7071069, -0.7071066), (5.936141e-8, -0.7071069, -0.7071066), (5.936141e-8, -0.7071069, -0.7071066), (-8.761786e-9, -0.7071066, 0.70710695), (-8.761786e-9, -0.7071066, 0.70710695), (-8.761786e-9, -0.7071066, 0.70710695), (-8.761786e-9, -0.7071066, 0.70710695), (0, -0.99999994, 0), (0, -0.99999994, 0), (0, -0.99999994, 0), (0, -0.99999994, 0)] (
                interpolation = "faceVarying"
            )
            point3f[] points = [(-0.2906043, 0.1965886, -0.99999994), (-0.19658858, 0.2906043, -0.99999994), (-0.2906043, 0.1965886, 0.9189087), (-0.19658858, 0.1965886, 1), (-0.19658858, 0.2906043, 0.9189087), (0.1965886, 0.2906043, -0.99999994), (0.2906043, 0.19658858, -0.99999994), (0.1965886, 0.19658858, 1), (0.2906043, 0.19658858, 0.9189087), (0.1965886, 0.2906043, 0.9189087), (-0.1965886, -0.2906043, -0.99999994), (-0.2906043, -0.19658858, -0.99999994), (-0.1965886, -0.19658858, 1), (-0.2906043, -0.19658858, 0.9189087), (-0.1965886, -0.2906043, 0.9189087), (0.2906043, -0.1965886, -0.99999994), (0.19658858, -0.2906043, -0.99999994), (0.19658858, -0.1965886, 1), (0.19658858, -0.2906043, 0.9189087), (0.2906043, -0.1965886, 0.9189087), (-1, 0.16068293, 0.556057), (-1, 0.2674263, 0.44931352), (-1, -0.26742652, 0.4493136), (-1, -0.16068304, 0.55605704), (-1, 0.26742628, 0.12794742), (-1, 0.16068286, 0.021204025), (-0.99999994, -0.16068313, 0.021204114), (-0.99999994, -0.26742658, 0.1279476), (-0.2906043, 0.19658862, -0.99999994), (-0.2906043, 0.19658862, 0.9189087), (-0.2906043, -0.19658856, -0.99999994), (-0.2906043, -0.19658856, 0.9189087), (-3.6225487e-8, 0.26742643, 0.44931358), (1.4047357e-8, 0.16068304, 0.55605704), (-2.3379158e-8, -0.2674264, 0.4493137), (-1.4047349e-8, -0.16068295, 0.5560571), (4.5557286e-8, -0.16068304, 0.021204174), (-2.3379162e-8, -0.26742643, 0.12794764), (2.3379158e-8, 0.2674264, 0.12794751), (1.4047349e-8, 0.16068295, 0.021204114), (-1, 0.11286951, -0.28117496), (-1, 0.18784992, -0.35615543), (-1, -0.18784997, -0.35615537), (-1, -0.11286952, -0.28117496), (-1, 0.18784991, -0.5818945), (-1, 0.11286946, -0.656875), (-0.99999994, -0.11286959, -0.6568749), (-0.99999994, -0.18785001, -0.58189446), (-4.3182283e-8, 0.18784995, -0.3561554), (9.86737e-9, 0.11286955, -0.28117496), (-1.6422364e-8, -0.18784994, -0.3561553), (-9.867365e-9, -0.11286949, -0.2811749), (4.9737274e-8, -0.11286955, -0.65687484), (-1.6422364e-8, -0.18784995, -0.5818944), (1.6422364e-8, 0.18784994, -0.5818945), (9.867365e-9, 0.11286949, -0.6568749)]
            texCoord2f[] primvars:st = [(0.043467216, 0.82631624), (0.043467216, 0.82631624), (0.043467216, 0.82631624), (0.043467216, 0.82631624), (0.043467216, 0.82631624), (0.043467216, 0.82631624), (0.043467216, 0.82631624), (0.043467216, 0.82631624), (0.043467216, 0.82631624), (0.043467216, 0.82631624), (0.043467216, 0.82631624), (0.043467216, 0.82631624), (0.043467216, 0.82631624), (0.043467216, 0.82631624), (0.043467216, 0.82631624), (0.043467216, 0.82631624), (0.043467216, 0.82631624), (0.043467216, 0.82631624), (0.043467216, 0.82631624), (0.043467216, 0.82631624), (0.043467216, 0.82631624), (0.043467216, 0.82631624), (0.043467216, 0.82631624), (0.043467216, 0.82631624), (0.043467216, 0.82631624), (0.043467216, 0.82631624), (0.043467216, 0.82631624), (0.043467216, 0.82631624), (0.043467216, 0.82631624), (0.043467216, 0.82631624), (0.043467216, 0.82631624), (0.043467216, 0.82631624), (0.043467216, 0.82631624), (0.043467216, 0.82631624), (0.043467216, 0.82631624), (0.043467216, 0.82631624), (0.043467216, 0.82631624), (0.043467216, 0.82631624), (0.043467216, 0.82631624), (0.043467216, 0.82631624), (0.043467216, 0.82631624), (0.043467216, 0.82631624), (0.043467216, 0.82631624), (0.043467216, 0.82631624), (0.043467216, 0.82631624), (0.043467216, 0.82631624), (0.043467216, 0.82631624), (0.043467216, 0.82631624), (0.043467216, 0.82631624), (0.043467216, 0.82631624), (0.043467216, 0.82631624), (0.043467216, 0.82631624), (0.043467216, 0.82631624), (0.043467216, 0.82631624), (0.043467216, 0.82631624), (0.043467216, 0.82631624)] (
                interpolation = "faceVarying"
            )
            int[] primvars:st:indices = [11, 13, 2, 0, 17, 7, 3, 12, 1, 4, 9, 5, 6, 8, 19, 15, 2, 3, 4, 7, 8, 9, 12, 13, 14, 17, 18, 19, 0, 2, 4, 1, 3, 7, 9, 4, 8, 6, 5, 9, 7, 17, 19, 8, 18, 16, 15, 19, 17, 12, 14, 18, 13, 11, 10, 14, 12, 3, 2, 13, 5, 6, 15, 16, 10, 11, 0, 1, 30, 31, 29, 28, 38, 24, 21, 32, 36, 26, 25, 39, 26, 27, 22, 23, 20, 21, 24, 25, 33, 20, 23, 35, 34, 22, 27, 37, 32, 21, 20, 33, 24, 38, 39, 25, 26, 36, 37, 27, 22, 34, 35, 23, 54, 44, 41, 48, 52, 46, 45, 55, 46, 47, 42, 43, 40, 41, 44, 45, 49, 40, 43, 51, 50, 42, 47, 53, 48, 41, 40, 49, 44, 54, 55, 45, 46, 52, 53, 47, 42, 50, 51, 43, 18, 14, 10, 16]
            uniform token subdivisionScheme = "none"
            custom string userProperties:blender:data_name = "Cube.040"
        }
    }

    def Scope "_materials"
    {
        def Material "Atlas"
        {
            token outputs:surface.connect = </root/_materials/Atlas/Principled_BSDF.outputs:surface>
            custom string userProperties:blender:data_name = "Atlas"

            def Shader "Principled_BSDF"
            {
                uniform token info:id = "UsdPreviewSurface"
                float inputs:clearcoat = 0
                float inputs:clearcoatRoughness = 0.03
                color3f inputs:diffuseColor.connect = </root/_materials/Atlas/Image_Texture.outputs:rgb>
                color3f inputs:emissiveColor = (0, 0, 0)
                float inputs:ior = 1.5
                float inputs:metallic = 0
                float inputs:opacity = 1
                float inputs:roughness = 0.5
                float inputs:specular = 0.5
                token outputs:surface
            }

            def Shader "Image_Texture"
            {
                uniform token info:id = "UsdUVTexture"
                token inputs:sourceColorSpace = "sRGB"
                float2 inputs:st.connect = </root/_materials/Atlas/uvmap.outputs:result>
                token inputs:wrapS = "repeat"
                token inputs:wrapT = "repeat"
                float3 outputs:rgb
            }

            def Shader "uvmap"
            {
                uniform token info:id = "UsdPrimvarReader_float2"
                string inputs:varname = "st"
                float2 outputs:result
            }
        }
    }
}

