#usda 1.0
(
    defaultPrim = "root"
    doc = "Blender v5.1.2"
    metersPerUnit = 1
    upAxis = "Y"
)

def Xform "root" (
    customData = {
        dictionary Blender = {
            bool generated = 1
        }
    }
)
{
    float3 xformOp:rotateXYZ = (-90, -0, 0)
    uniform token[] xformOpOrder = ["xformOp:rotateXYZ"]

    def Xform "Fence_Center"
    {
        custom string userProperties:blender:object_name = "Fence_Center"

        def Mesh "Cube_568" (
            active = true
            prepend apiSchemas = ["MaterialBindingAPI"]
        )
        {
            uniform bool doubleSided = 1
            float3[] extent = [(-1, -0.2906043, -0.99999994), (1, 0.2906043, 1)]
            int[] faceVertexCounts = [4, 4, 4, 4, 4, 4, 4, 4, 4, 4, 4, 4, 4, 3, 3, 3, 3, 4, 4, 4, 4, 4, 4, 4, 4, 8, 4, 4, 4, 4, 4, 4, 4, 4, 4, 4, 4, 4, 4, 4, 4, 4, 4, 4, 4, 4, 4, 4, 4, 4]
            int[] faceVertexIndices = [27, 29, 18, 16, 32, 34, 30, 26, 33, 23, 19, 28, 17, 20, 25, 21, 22, 24, 35, 31, 42, 10, 3, 36, 40, 14, 11, 43, 37, 2, 7, 39, 38, 6, 15, 41, 36, 3, 2, 37, 38, 5, 4, 39, 40, 13, 12, 41, 42, 9, 8, 43, 18, 19, 20, 23, 24, 25, 28, 29, 30, 33, 34, 35, 16, 18, 20, 17, 19, 23, 25, 20, 24, 22, 21, 25, 23, 33, 35, 24, 34, 32, 31, 35, 33, 28, 30, 34, 29, 27, 26, 30, 28, 19, 18, 29, 21, 22, 31, 32, 26, 27, 16, 17, 10, 42, 43, 11, 14, 40, 41, 15, 6, 38, 39, 7, 0, 36, 37, 1, 5, 38, 41, 12, 1, 37, 39, 4, 13, 40, 43, 8, 9, 42, 36, 0, 66, 54, 47, 60, 64, 58, 55, 67, 61, 46, 51, 63, 62, 50, 59, 65, 60, 47, 46, 61, 62, 49, 48, 63, 64, 57, 56, 65, 66, 53, 52, 67, 54, 66, 67, 55, 58, 64, 65, 59, 50, 62, 63, 51, 44, 60, 61, 45, 49, 62, 65, 56, 45, 61, 63, 48, 57, 64, 67, 52, 53, 66, 60, 44]
            rel material:binding = </root/_materials/Atlas>
            normal3f[] normals = [(0, -0.99999994, 0), (0, -0.99999994, 0), (0, -0.99999994, 0), (0, -0.99999994, 0), (0.99999994, 0, 0), (0.99999994, 0, 0), (0.99999994, 0, 0), (0.99999994, 0, 0), (0, 0, 1), (0, 0, 1), (0, 0, 1), (0, 0, 1), (-0.99999994, 0, 0), (-0.99999994, 0, 0), (-0.99999994, 0, 0), (-0.99999994, 0, 0), (0, 0.99999994, 0), (0, 0.99999994, 0), (0, 0.99999994, 0), (0, 0.99999994, 0), (1.862645e-7, -1, -1.3910456e-7), (1.7881393e-7, -1, -9.273637e-8), (1.7881393e-7, -1, -9.273637e-8), (1.8626451e-7, -1, -1.3910456e-7), (-6.644798e-8, 2.0865691e-7, -1), (-7.369302e-8, 2.3184099e-7, -1), (-7.369302e-8, 2.3184099e-7, -1), (-6.644798e-8, 2.0865691e-7, -1), (1.0074351e-7, -2.3184103e-7, 1), (1.7029579e-7, -1.8547279e-7, 1), (1.7029579e-7, -1.8547279e-7, 1), (1.0074352e-7, -2.31841e-7, 1), (-1.862645e-7, 1, 1.3910456e-7), (-1.9371507e-7, 1, 1.8547276e-7), (-1.9371507e-7, 1, 1.8547276e-7), (-1.862645e-7, 1, 1.3910456e-7), (1.802173e-7, -0.707107, 0.7071066), (1.7064512e-7, -0.707107, 0.7071064), (1.7064512e-7, -0.707107, 0.7071064), (1.802173e-7, -0.70710707, 0.7071066), (-5.406236e-8, 0.70710665, 0.7071069), (-9.107888e-8, 0.7071067, 0.7071069), (-9.107888e-8, 0.7071067, 0.7071069), (-5.4062372e-8, 0.70710665, 0.70710695), (-1.7344145e-7, 0.70710707, -0.7071066), (-1.762352e-7, 0.707107, -0.7071066), (-1.762352e-7, 0.707107, -0.7071066), (-1.7344142e-7, 0.70710695, -0.7071066), (7.050908e-8, -0.70710665, -0.70710695), (7.3593746e-8, -0.7071067, -0.707107), (7.3593746e-8, -0.7071067, -0.707107), (7.0509074e-8, -0.70710665, -0.70710695), (-0.22223786, -0.63680613, 0.738301), (-0.42464882, -0.42464882, 0.79959166), (-0.6368061, -0.22223786, 0.7383011), (-0.42464882, 0.42464882, 0.79959166), (-0.22223786, 0.63680613, 0.738301), (-0.6368061, 0.22223786, 0.7383011), (0.42464882, -0.42464882, 0.79959166), (0.22223786, -0.63680613, 0.738301), (0.6368061, -0.22223786, 0.7383011), (0.42464882, 0.42464882, 0.79959166), (0.6368061, 0.22223786, 0.7383011), (0.22223786, 0.63680613, 0.738301), (-0.7071068, -0.7071067, 0), (-0.7071068, -0.7071067, 0), (-0.7071068, -0.7071067, 0), (-0.7071068, -0.7071067, 0), (-0.42464882, -0.42464882, 0.79959166), (-0.42464882, 0.42464882, 0.79959166), (-0.6368061, 0.22223786, 0.7383011), (-0.6368061, -0.22223786, 0.7383011), (-0.7071068, 0.7071067, 0), (-0.7071068, 0.7071067, 0), (-0.7071068, 0.7071067, 0), (-0.7071068, 0.7071067, 0), (-0.42464882, 0.42464882, 0.79959166), (0.42464882, 0.42464882, 0.79959166), (0.22223786, 0.63680613, 0.738301), (-0.22223786, 0.63680613, 0.738301), (0.7071068, 0.7071067, 0), (0.7071068, 0.7071067, 0), (0.7071068, 0.7071067, 0), (0.7071068, 0.7071067, 0), (0.42464882, 0.42464882, 0.79959166), (0.42464882, -0.42464882, 0.79959166), (0.6368061, -0.22223786, 0.7383011), (0.6368061, 0.22223786, 0.7383011), (0.7071068, -0.7071067, 0), (0.7071068, -0.7071067, 0), (0.7071068, -0.7071067, 0), (0.7071068, -0.7071067, 0), (0.42464882, -0.42464882, 0.79959166), (-0.42464882, -0.42464882, 0.79959166), (-0.22223786, -0.63680613, 0.738301), (0.22223786, -0.63680613, 0.738301), (0, 0, -1), (0, 0, -1), (0, 0, -1), (0, 0, -1), (0, 0, -1), (0, 0, -1), (0, 0, -1), (0, 0, -1), (6.742442e-8, -0.7071066, -0.707107), (7.050908e-8, -0.70710665, -0.70710695), (7.0509074e-8, -0.70710665, -0.70710695), (6.742442e-8, -0.7071066, -0.707107), (-1.7064765e-7, 0.70710695, -0.7071066), (-1.7344145e-7, 0.70710707, -0.7071066), (-1.7344142e-7, 0.70710695, -0.7071066), (-1.7064765e-7, 0.70710695, -0.7071066), (-1.7045862e-8, 0.7071067, 0.707107), (-5.406236e-8, 0.70710665, 0.7071069), (-5.4062372e-8, 0.70710665, 0.70710695), (-1.7045862e-8, 0.7071067, 0.707107), (1.8978945e-7, -0.7071069, 0.7071067), (1.802173e-7, -0.707107, 0.7071066), (1.802173e-7, -0.70710707, 0.7071066), (1.8978945e-7, -0.7071069, 0.7071067), (-1.7881393e-7, 1, 9.273637e-8), (-1.862645e-7, 1, 1.3910456e-7), (-1.862645e-7, 1, 1.3910456e-7), (-1.7881393e-7, 1, 9.273637e-8), (3.119122e-8, -2.782092e-7, 0.99999994), (1.0074351e-7, -2.3184103e-7, 1), (1.0074352e-7, -2.31841e-7, 1), (3.119122e-8, -2.782092e-7, 0.99999994), (-5.920293e-8, 1.854728e-7, -0.99999994), (-6.644798e-8, 2.0865691e-7, -1), (-6.644798e-8, 2.0865691e-7, -1), (-5.920293e-8, 1.854728e-7, -0.99999994), (1.9371507e-7, -1, -1.8547274e-7), (1.862645e-7, -1, -1.3910456e-7), (1.8626451e-7, -1, -1.3910456e-7), (1.9371507e-7, -1, -1.8547274e-7), (1.2665987e-7, -1, -9.9015814e-8), (1.1920929e-7, -1, -6.601054e-8), (1.1920929e-7, -1, -6.601054e-8), (1.2665987e-7, -1, -9.901581e-8), (-2.7672822e-8, 2.6404226e-7, -1), (2.7497562e-8, 3.960634e-7, -1), (2.7497562e-8, 3.960634e-7, -1), (-2.7672817e-8, 2.6404228e-7, -1), (6.141011e-8, -2.3103696e-7, 1), (1.6542286e-8, -1.3202113e-7, 1), (1.6542286e-8, -1.3202113e-7, 1), (6.1410105e-8, -2.3103696e-7, 1), (-1.2665987e-7, 1, 9.9015814e-8), (-1.3411044e-7, 1, 1.320211e-7), (-1.3411044e-7, 1, 1.320211e-7), (-1.2665986e-7, 1, 9.9015814e-8), (1.1097622e-7, -0.70710707, 0.7071066), (1.010981e-7, -0.707107, 0.7071066), (1.010981e-7, -0.707107, 0.7071066), (1.1097624e-7, -0.70710707, 0.7071066), (-5.1686545e-8, 0.70710665, 0.7071069), (-5.0591368e-8, 0.70710665, 0.7071068), (-5.0591368e-8, 0.70710665, 0.7071068), (-5.1686534e-8, 0.70710665, 0.7071069), (-8.964874e-8, 0.707107, -0.70710665), (-8.359126e-8, 0.7071069, -0.7071066), (-8.359126e-8, 0.7071069, -0.7071066), (-8.964875e-8, 0.70710695, -0.70710665), (4.1345334e-8, -0.7071066, -0.70710695), (3.5834066e-8, -0.70710653, -0.7071072), (3.5834066e-8, -0.70710653, -0.7071072), (4.1345334e-8, -0.7071066, -0.70710695), (4.6856606e-8, -0.70710665, -0.7071068), (4.1345334e-8, -0.7071066, -0.70710695), (4.1345334e-8, -0.7071066, -0.70710695), (4.6856606e-8, -0.70710665, -0.7071068), (-9.5706206e-8, 0.7071069, -0.7071066), (-8.964874e-8, 0.707107, -0.70710665), (-8.964875e-8, 0.70710695, -0.70710665), (-9.5706206e-8, 0.7071069, -0.7071066), (-5.278171e-8, 0.7071066, 0.70710695), (-5.1686545e-8, 0.70710665, 0.7071069), (-5.1686534e-8, 0.70710665, 0.7071069), (-5.278171e-8, 0.7071066, 0.70710695), (1.2085434e-7, -0.70710695, 0.70710653), (1.1097622e-7, -0.70710707, 0.7071066), (1.1097624e-7, -0.70710707, 0.7071066), (1.2085434e-7, -0.70710695, 0.70710653), (-1.1920929e-7, 1, 6.601054e-8), (-1.2665987e-7, 1, 9.9015814e-8), (-1.2665986e-7, 1, 9.9015814e-8), (-1.1920929e-7, 1, 6.601054e-8), (1.0627793e-7, -3.300528e-7, 1), (6.141011e-8, -2.3103696e-7, 1), (6.1410105e-8, -2.3103696e-7, 1), (1.0627793e-7, -3.300528e-7, 1), (-8.28432e-8, 1.3202111e-7, -1), (-2.7672822e-8, 2.6404226e-7, -1), (-2.7672817e-8, 2.6404228e-7, -1), (-8.28432e-8, 1.3202111e-7, -1), (1.3411045e-7, -1, -1.3202109e-7), (1.2665987e-7, -1, -9.9015814e-8), (1.2665987e-7, -1, -9.901581e-8), (1.3411045e-7, -1, -1.3202109e-7)] (
                interpolation = "faceVarying"
            )
            point3f[] points = [(-0.99999994, -0.26742664, 0.4493136), (-0.99999994, -0.16068321, 0.5560571), (1, -0.16068284, 0.556057), (1, -0.26742625, 0.44931352), (-1, 0.16068277, 0.5560572), (-1, 0.26742622, 0.44931376), (1, 0.26742658, 0.4493136), (1, 0.16068313, 0.55605704), (-1, -0.16068313, 0.021204174), (-1, -0.26742658, 0.1279476), (1, -0.26742622, 0.12794742), (1, -0.16068277, 0.021204025), (-1, 0.26742625, 0.12794769), (-1, 0.16068284, 0.021204233), (0.99999994, 0.16068321, 0.021204114), (0.99999994, 0.26742664, 0.1279476), (-0.19658859, -0.2906043, -0.99999994), (-0.2906043, -0.19658859, -0.99999994), (-0.19658859, -0.2906043, 0.9189087), (-0.19658859, -0.19658859, 1), (-0.2906043, -0.19658859, 0.9189087), (-0.2906043, 0.19658859, -0.99999994), (-0.19658859, 0.2906043, -0.99999994), (-0.19658859, 0.19658859, 1), (-0.19658859, 0.2906043, 0.9189087), (-0.2906043, 0.19658859, 0.9189087), (0.2906043, -0.19658859, -0.99999994), (0.19658859, -0.2906043, -0.99999994), (0.19658859, -0.19658859, 1), (0.19658859, -0.2906043, 0.9189087), (0.2906043, -0.19658859, 0.9189087), (0.19658859, 0.2906043, -0.99999994), (0.2906043, 0.19658859, -0.99999994), (0.19658859, 0.19658859, 1), (0.2906043, 0.19658859, 0.9189087), (0.19658859, 0.2906043, 0.9189087), (5.9604645e-8, -0.26742643, 0.44931358), (0, -0.16068304, 0.55605704), (0, 0.2674264, 0.4493137), (0, 0.16068295, 0.5560571), (-5.9604645e-8, 0.16068304, 0.021204174), (0, 0.26742643, 0.12794764), (0, -0.2674264, 0.12794751), (0, -0.16068295, 0.021204114), (-0.99999994, -0.1878501, -0.35615537), (-0.99999994, -0.11286968, -0.2811749), (1, -0.11286942, -0.28117496), (1, -0.18784983, -0.35615543), (-1, 0.11286937, -0.2811748), (-1, 0.18784982, -0.35615528), (1, 0.18785006, -0.35615537), (1, 0.11286961, -0.28117496), (-1, -0.11286961, -0.65687484), (-1, -0.18785006, -0.58189446), (1, -0.18784982, -0.5818945), (1, -0.11286937, -0.656875), (-1, 0.18784983, -0.5818944), (-1, 0.11286942, -0.65687484), (0.99999994, 0.11286968, -0.6568749), (0.99999994, 0.1878501, -0.58189446), (5.9604645e-8, -0.18784995, -0.3561554), (0, -0.11286955, -0.28117496), (0, 0.18784994, -0.3561553), (0, 0.11286949, -0.2811749), (-5.9604645e-8, 0.11286955, -0.65687484), (0, 0.18784995, -0.5818944), (0, -0.18784994, -0.5818945), (0, -0.11286949, -0.6568749)]
            texCoord2f[] primvars:st = [(0.04594922, 0.82679015), (0.04594922, 0.82679015), (0.04594922, 0.82679015), (0.04594922, 0.82679015), (0.04594922, 0.82679015), (0.04594922, 0.82679015), (0.04594922, 0.82679015), (0.04594922, 0.82679015), (0.04594922, 0.82679015), (0.04594922, 0.82679015), (0.04594922, 0.82679015), (0.04594922, 0.82679015), (0.04594922, 0.82679015), (0.04594922, 0.82679015), (0.04594922, 0.82679015), (0.04594922, 0.82679015), (0.04594922, 0.82679015), (0.04594922, 0.82679015), (0.04594922, 0.82679015), (0.04594922, 0.82679015), (0.04594922, 0.82679015), (0.04594922, 0.82679015), (0.04594922, 0.82679015), (0.04594922, 0.82679015), (0.04594922, 0.82679015), (0.04594922, 0.82679015), (0.04594922, 0.82679015), (0.04594922, 0.82679015), (0.04594922, 0.82679015), (0.04594922, 0.82679015), (0.04594922, 0.82679015), (0.04594922, 0.82679015), (0.04594922, 0.82679015), (0.04594922, 0.82679015), (0.04594922, 0.82679015), (0.04594922, 0.82679015), (0.04594922, 0.82679015), (0.04594922, 0.82679015), (0.04594922, 0.82679015), (0.04594922, 0.82679015), (0.04594922, 0.82679015), (0.04594922, 0.82679015), (0.04594922, 0.82679015), (0.04594922, 0.82679015), (0.04594922, 0.82679015), (0.04594922, 0.82679015), (0.04594922, 0.82679015), (0.04594922, 0.82679015), (0.04594922, 0.82679015), (0.04594922, 0.82679015), (0.04594922, 0.82679015), (0.04594922, 0.82679015), (0.04594922, 0.82679015), (0.04594922, 0.82679015), (0.04594922, 0.82679015), (0.04594922, 0.82679015), (0.04594922, 0.82679015), (0.04594922, 0.82679015), (0.04594922, 0.82679015), (0.04594922, 0.82679015), (0.04594922, 0.82679015), (0.04594922, 0.82679015), (0.04594922, 0.82679015), (0.04594922, 0.82679015), (0.04594922, 0.82679015), (0.04594922, 0.82679015), (0.04594922, 0.82679015), (0.04594922, 0.82679015)] (
                interpolation = "faceVarying"
            )
            int[] primvars:st:indices = [27, 29, 18, 16, 32, 34, 30, 26, 33, 23, 19, 28, 17, 20, 25, 21, 22, 24, 35, 31, 42, 10, 3, 36, 40, 14, 11, 43, 37, 2, 7, 39, 38, 6, 15, 41, 36, 3, 2, 37, 38, 5, 4, 39, 40, 13, 12, 41, 42, 9, 8, 43, 18, 19, 20, 23, 24, 25, 28, 29, 30, 33, 34, 35, 16, 18, 20, 17, 19, 23, 25, 20, 24, 22, 21, 25, 23, 33, 35, 24, 34, 32, 31, 35, 33, 28, 30, 34, 29, 27, 26, 30, 28, 19, 18, 29, 21, 22, 31, 32, 26, 27, 16, 17, 10, 42, 43, 11, 14, 40, 41, 15, 6, 38, 39, 7, 0, 36, 37, 1, 5, 38, 41, 12, 1, 37, 39, 4, 13, 40, 43, 8, 9, 42, 36, 0, 66, 54, 47, 60, 64, 58, 55, 67, 61, 46, 51, 63, 62, 50, 59, 65, 60, 47, 46, 61, 62, 49, 48, 63, 64, 57, 56, 65, 66, 53, 52, 67, 54, 66, 67, 55, 58, 64, 65, 59, 50, 62, 63, 51, 44, 60, 61, 45, 49, 62, 65, 56, 45, 61, 63, 48, 57, 64, 67, 52, 53, 66, 60, 44]
            uniform token subdivisionScheme = "none"
            custom string userProperties:blender:data_name = "Cube.568"
        }
    }

    def Scope "_materials"
    {
        def Material "Atlas"
        {
            token outputs:surface.connect = </root/_materials/Atlas/Principled_BSDF.outputs:surface>
            custom string userProperties:blender:data_name = "Atlas"

            def Shader "Principled_BSDF"
            {
                uniform token info:id = "UsdPreviewSurface"
                float inputs:clearcoat = 0
                float inputs:clearcoatRoughness = 0.03
                color3f inputs:diffuseColor.connect = </root/_materials/Atlas/Image_Texture.outputs:rgb>
                color3f inputs:emissiveColor = (0, 0, 0)
                float inputs:ior = 1.5
                float inputs:metallic = 0
                float inputs:opacity = 1
                float inputs:roughness = 0.5
                float inputs:specular = 0.5
                token outputs:surface
            }

            def Shader "Image_Texture"
            {
                uniform token info:id = "UsdUVTexture"
                token inputs:sourceColorSpace = "sRGB"
                float2 inputs:st.connect = </root/_materials/Atlas/uvmap.outputs:result>
                token inputs:wrapS = "repeat"
                token inputs:wrapT = "repeat"
                float3 outputs:rgb
            }

            def Shader "uvmap"
            {
                uniform token info:id = "UsdPrimvarReader_float2"
                string inputs:varname = "st"
                float2 outputs:result
            }
        }
    }
}

