#usda 1.0
(
    defaultPrim = "root"
    doc = "Blender v5.1.2"
    metersPerUnit = 1
    upAxis = "Y"
)

def Xform "root" (
    customData = {
        dictionary Blender = {
            bool generated = 1
        }
    }
)
{
    float3 xformOp:rotateXYZ = (-90, -0, 0)
    uniform token[] xformOpOrder = ["xformOp:rotateXYZ"]

    def Xform "Props_Vessel_Short"
    {
        custom string userProperties:blender:object_name = "Props_Vessel_Short"

        def Mesh "Cube_034" (
            active = true
            prepend apiSchemas = ["MaterialBindingAPI"]
        )
        {
            uniform bool doubleSided = 1
            float3[] extent = [(-0.14365497, -0.14365491, -0.006814629), (0.14365499, 0.1436549, 0.53121245)]
            int[] faceVertexCounts = [4, 4, 4, 4, 4, 4, 4, 4, 4, 4, 4, 4, 4, 4, 4, 4, 4, 4, 4, 4, 4, 4, 4, 4, 4, 8, 4, 4, 4, 4, 4, 4, 4, 4, 4, 4, 4, 4, 4, 4, 4, 4, 4, 4, 4, 4, 4, 4, 4, 4, 4, 4, 4, 4, 4, 4, 4, 4, 4, 4, 4, 4, 4, 4, 4, 4, 4, 4, 4, 4, 4, 4, 4, 4, 4, 4, 4, 4, 4, 4, 4, 4, 4, 8, 4, 4, 4, 4, 4, 4, 4, 4, 4, 4, 4, 4, 4, 4, 4, 4, 4, 4, 4, 4, 4, 4, 4, 4, 4, 4, 4, 4, 4, 4, 4, 4, 4, 4, 4, 4, 4, 4]
            int[] faceVertexIndices = [32, 0, 1, 33, 33, 1, 2, 34, 34, 2, 3, 35, 35, 3, 4, 36, 36, 4, 5, 37, 37, 5, 6, 38, 6, 5, 13, 14, 38, 6, 7, 39, 39, 7, 0, 32, 13, 12, 20, 21, 4, 3, 11, 12, 7, 6, 14, 15, 2, 1, 8, 10, 5, 4, 12, 13, 0, 7, 15, 9, 1, 0, 9, 8, 3, 2, 10, 11, 23, 22, 30, 31, 11, 10, 18, 19, 8, 9, 17, 16, 9, 15, 23, 17, 14, 13, 21, 22, 12, 11, 19, 20, 10, 8, 16, 18, 15, 14, 22, 23, 24, 25, 31, 30, 29, 28, 27, 26, 21, 20, 28, 29, 19, 18, 26, 27, 16, 17, 25, 24, 17, 23, 31, 25, 22, 21, 29, 30, 20, 19, 27, 28, 18, 16, 24, 26, 45, 44, 61, 62, 33, 34, 55, 56, 44, 43, 60, 61, 34, 35, 54, 55, 43, 42, 59, 60, 35, 36, 53, 54, 42, 41, 58, 59, 36, 37, 52, 53, 47, 111, 110, 46, 63, 50, 49, 48, 62, 51, 50, 63, 61, 52, 51, 62, 60, 53, 52, 61, 59, 54, 53, 60, 58, 55, 54, 59, 57, 56, 55, 58, 48, 49, 56, 57, 32, 33, 56, 49, 46, 45, 62, 63, 39, 32, 49, 50, 47, 46, 63, 48, 38, 39, 50, 51, 40, 47, 48, 57, 37, 38, 51, 52, 41, 40, 57, 58, 96, 97, 65, 64, 97, 98, 66, 65, 98, 99, 67, 66, 99, 100, 68, 67, 100, 101, 69, 68, 101, 102, 70, 69, 70, 78, 77, 69, 102, 103, 71, 70, 103, 96, 64, 71, 77, 85, 84, 76, 68, 76, 75, 67, 71, 79, 78, 70, 66, 74, 72, 65, 69, 77, 76, 68, 64, 73, 79, 71, 65, 72, 73, 64, 67, 75, 74, 66, 87, 95, 94, 86, 75, 83, 82, 74, 72, 80, 81, 73, 73, 81, 87, 79, 78, 86, 85, 77, 76, 84, 83, 75, 74, 82, 80, 72, 79, 87, 86, 78, 88, 90, 91, 92, 93, 94, 95, 89, 85, 93, 92, 84, 83, 91, 90, 82, 80, 88, 89, 81, 81, 89, 95, 87, 86, 94, 93, 85, 84, 92, 91, 83, 82, 90, 88, 80, 109, 126, 125, 108, 97, 120, 119, 98, 108, 125, 124, 107, 98, 119, 118, 99, 107, 124, 123, 106, 99, 118, 117, 100, 106, 123, 122, 105, 100, 117, 116, 101, 40, 104, 111, 47, 41, 105, 104, 40, 42, 106, 105, 41, 43, 107, 106, 42, 44, 108, 107, 43, 45, 109, 108, 44, 46, 110, 109, 45, 127, 112, 113, 114, 126, 127, 114, 115, 125, 126, 115, 116, 124, 125, 116, 117, 123, 124, 117, 118, 122, 123, 118, 119, 121, 122, 119, 120, 112, 121, 120, 113, 96, 113, 120, 97, 110, 127, 126, 109, 103, 114, 113, 96, 111, 112, 127, 110, 102, 115, 114, 103, 104, 121, 112, 111, 101, 116, 115, 102, 105, 122, 121, 104]
            rel material:binding = </root/_materials/Main>
            normal3f[] normals = [(0.707107, 0.70710653, -5.5258647e-7), (0.707107, 0.70710653, -5.5258647e-7), (0.707107, 0.70710653, -5.5258647e-7), (0.707107, 0.70710653, -5.5258647e-7), (1, 1.3182706e-7, -0.0000010040592), (1, 1.3182706e-7, -0.0000010040592), (1, 1.3182706e-7, -0.0000010040592), (1, 1.3182706e-7, -0.0000010040592), (0.7071064, -0.70710725, -3.8169662e-7), (0.7071064, -0.70710725, -3.8169662e-7), (0.7071064, -0.70710725, -3.8169662e-7), (0.7071064, -0.70710725, -3.8169662e-7), (1.2521178e-7, -0.99999994, 1.456113e-7), (1.2521178e-7, -0.99999994, 1.456113e-7), (1.2521178e-7, -0.99999994, 1.456113e-7), (1.2521178e-7, -0.99999994, 1.456113e-7), (-0.7071072, -0.7071064, 2.6365393e-7), (-0.7071072, -0.7071064, 2.6365393e-7), (-0.7071072, -0.7071064, 2.6365393e-7), (-0.7071072, -0.7071064, 2.6365393e-7), (-1, 0, 0), (-1, 0, 0), (-1, 0, 0), (-1, 0, 0), (-0.8475037, 0, 0.53078943), (-0.8475037, 0, 0.53078943), (-0.8475037, 0, 0.53078943), (-0.8475037, 0, 0.53078943), (-0.7071064, 0.70710707, 2.6954328e-7), (-0.7071064, 0.70710707, 2.6954328e-7), (-0.7071064, 0.70710707, 2.6954328e-7), (-0.7071064, 0.70710707, 2.6954328e-7), (-1.2521181e-7, 0.99999994, 5.8892264e-9), (-1.2521181e-7, 0.99999994, 5.8892264e-9), (-1.2521181e-7, 0.99999994, 5.8892264e-9), (-1.2521181e-7, 0.99999994, 5.8892264e-9), (-0.3725393, -0.37254032, 0.8499577), (-0.3725393, -0.37254032, 0.8499577), (-0.3725393, -0.37254032, 0.8499577), (-0.3725393, -0.37254032, 0.8499577), (-1.1251504e-8, -0.847503, 0.53079057), (-1.1251504e-8, -0.847503, 0.53079057), (-1.1251504e-8, -0.847503, 0.53079057), (-1.1251504e-8, -0.847503, 0.53079057), (-0.5992747, 0.5992761, 0.53079003), (-0.5992747, 0.5992761, 0.53079003), (-0.5992747, 0.5992761, 0.53079003), (-0.5992747, 0.5992761, 0.53079003), (0.8475033, 0, 0.53079015), (0.8475033, 0, 0.53079015), (0.8475033, 0, 0.53079015), (0.8475033, 0, 0.53079015), (-0.5992756, -0.5992751, 0.53079015), (-0.5992756, -0.5992751, 0.53079015), (-0.5992756, -0.5992751, 0.53079015), (-0.5992756, -0.5992751, 0.53079015), (0, 0.8475032, 0.5307904), (0, 0.8475032, 0.5307904), (0, 0.8475032, 0.5307904), (0, 0.8475032, 0.5307904), (0.59927505, 0.5992753, 0.53079045), (0.59927505, 0.5992753, 0.53079045), (0.59927505, 0.5992753, 0.53079045), (0.59927505, 0.5992753, 0.53079045), (0.59927535, -0.59927535, 0.53079015), (0.59927535, -0.59927535, 0.53079015), (0.59927535, -0.59927535, 0.53079015), (0.59927535, -0.59927535, 0.53079015), (0.64281106, -0.64280885, 0.41664225), (0.64281106, -0.64280885, 0.41664225), (0.64281106, -0.64280885, 0.41664225), (0.64281106, -0.64280885, 0.41664225), (0.3725402, -0.37253922, 0.8499577), (0.3725402, -0.37253922, 0.8499577), (0.3725402, -0.37253922, 0.8499577), (0.3725402, -0.37253922, 0.8499577), (0.3725398, 0.37253955, 0.84995794), (0.3725398, 0.37253955, 0.84995794), (0.3725398, 0.37253955, 0.84995794), (0.3725398, 0.37253955, 0.84995794), (-5.044374e-7, 0.5268511, 0.84995764), (-5.044374e-7, 0.5268511, 0.84995764), (-5.044374e-7, 0.5268511, 0.84995764), (-5.044374e-7, 0.5268511, 0.84995764), (-0.52685, 1.2610946e-7, 0.8499583), (-0.52685, 1.2610946e-7, 0.8499583), (-0.52685, 1.2610946e-7, 0.8499583), (-0.52685, 1.2610946e-7, 0.8499583), (-5.0443737e-7, -0.52685106, 0.84995764), (-5.0443737e-7, -0.52685106, 0.84995764), (-5.0443737e-7, -0.52685106, 0.84995764), (-5.0443737e-7, -0.52685106, 0.84995764), (0.5268504, -6.305471e-8, 0.8499581), (0.5268504, -6.305471e-8, 0.8499581), (0.5268504, -6.305471e-8, 0.8499581), (0.5268504, -6.305471e-8, 0.8499581), (-0.3725402, 0.37253988, 0.84995747), (-0.3725402, 0.37253988, 0.84995747), (-0.3725402, 0.37253988, 0.84995747), (-0.3725402, 0.37253988, 0.84995747), (0, 0, 1), (0, 0, 1), (0, 0, 1), (0, 0, 1), (0, 0, 1), (0, 0, 1), (0, 0, 1), (0, 0, 1), (0.6428088, 0.64281034, 0.41664323), (0.6428088, 0.64281034, 0.41664323), (0.6428088, 0.64281034, 0.41664323), (0.6428088, 0.64281034, 0.41664323), (-0.64281064, 0.64281, 0.4166412), (-0.64281064, 0.64281, 0.4166412), (-0.64281064, 0.64281, 0.4166412), (-0.64281064, 0.64281, 0.4166412), (-0.64281017, -0.6428101, 0.41664183), (-0.64281017, -0.6428101, 0.41664183), (-0.64281017, -0.6428101, 0.41664183), (-0.64281017, -0.6428101, 0.41664183), (-3.8813607e-8, -0.9090708, 0.41664174), (-3.8813607e-8, -0.9090708, 0.41664174), (-3.8813607e-8, -0.9090708, 0.41664174), (-3.8813607e-8, -0.9090708, 0.41664174), (0.90907073, -1.03027006e-7, 0.41664195), (0.90907073, -1.03027006e-7, 0.41664195), (0.90907073, -1.03027006e-7, 0.41664195), (0.90907073, -1.03027006e-7, 0.41664195), (3.8813614e-8, 0.9090709, 0.4166414), (3.8813614e-8, 0.9090709, 0.4166414), (3.8813614e-8, 0.9090709, 0.4166414), (3.8813614e-8, 0.9090709, 0.4166414), (-0.90907043, 2.060547e-7, 0.4166424), (-0.90907043, 2.060547e-7, 0.4166424), (-0.90907043, 2.060547e-7, 0.4166424), (-0.90907043, 2.060547e-7, 0.4166424), (-0.13744134, 1.4288229e-8, 0.99050987), (-0.13744134, 1.4288229e-8, 0.99050987), (-0.13744134, 1.4288229e-8, 0.99050987), (-0.13744134, 1.4288229e-8, 0.99050987), (0.1374413, 1.4288226e-8, -0.99050987), (0.1374413, 1.4288226e-8, -0.99050987), (0.1374413, 1.4288226e-8, -0.99050987), (0.1374413, 1.4288226e-8, -0.99050987), (-0.09718917, -0.09718787, 0.9905094), (-0.09718917, -0.09718787, 0.9905094), (-0.09718917, -0.09718787, 0.9905094), (-0.09718917, -0.09718787, 0.9905094), (0.097187325, -0.09718662, -0.9905097), (0.097187325, -0.09718662, -0.9905097), (0.097187325, -0.09718662, -0.9905097), (0.097187325, -0.09718662, -0.9905097), (1.2942665e-7, -0.13744558, 0.9905093), (1.2942665e-7, -0.13744558, 0.9905093), (1.2942665e-7, -0.13744558, 0.9905093), (1.2942665e-7, -0.13744558, 0.9905093), (2.3721387e-7, -0.13744558, -0.9905093), (2.3721387e-7, -0.13744558, -0.9905093), (2.3721387e-7, -0.13744558, -0.9905093), (2.3721387e-7, -0.13744558, -0.9905093), (0.09718546, -0.0971877, 0.99050975), (0.09718546, -0.0971877, 0.99050975), (0.09718546, -0.0971877, 0.99050975), (0.09718546, -0.0971877, 0.99050975), (-0.09718725, -0.09718996, -0.99050933), (-0.09718725, -0.09718996, -0.99050933), (-0.09718725, -0.09718996, -0.99050933), (-0.09718725, -0.09718996, -0.99050933), (-1.2521181e-7, 0.99999994, -6.794627e-9), (-1.2521181e-7, 0.99999994, -6.794627e-9), (-1.2521181e-7, 0.99999994, -6.794627e-9), (-1.2521181e-7, 0.99999994, -6.794627e-9), (-1.3332588e-7, 1, 1.02455644e-7), (-1.3332588e-7, 1, 1.02455644e-7), (-1.3332588e-7, 1, 1.02455644e-7), (-1.3332588e-7, 1, 1.02455644e-7), (-0.7071067, 0.7071068, 2.1373572e-7), (-0.7071067, 0.7071068, 2.1373572e-7), (-0.7071067, 0.7071068, 2.1373572e-7), (-0.7071067, 0.7071068, 2.1373572e-7), (-1, 2.2255992e-7, 3.979901e-7), (-1, 2.2255992e-7, 3.979901e-7), (-1, 2.2255992e-7, 3.979901e-7), (-1, 2.2255992e-7, 3.979901e-7), (-0.70710725, -0.7071063, 1.3484481e-7), (-0.70710725, -0.7071063, 1.3484481e-7), (-0.70710725, -0.7071063, 1.3484481e-7), (-0.70710725, -0.7071063, 1.3484481e-7), (1.3332584e-7, -1, -1.02455594e-7), (1.3332584e-7, -1, -1.02455594e-7), (1.3332584e-7, -1, -1.02455594e-7), (1.3332584e-7, -1, -1.02455594e-7), (0.7071068, -0.7071068, 8.8242045e-9), (0.7071068, -0.7071068, 8.8242045e-9), (0.7071068, -0.7071068, 8.8242045e-9), (0.7071068, -0.7071068, 8.8242045e-9), (1, 2.2255972e-7, 3.9798988e-7), (1, 2.2255972e-7, 3.9798988e-7), (1, 2.2255972e-7, 3.9798988e-7), (1, 2.2255972e-7, 3.9798988e-7), (0.7071072, 0.7071064, 2.3564793e-8), (0.7071072, 0.7071064, 2.3564793e-8), (0.7071072, 0.7071064, 2.3564793e-8), (0.7071072, 0.7071064, 2.3564793e-8), (0.09718366, 0.097186565, -0.99051), (0.09718366, 0.097186565, -0.99051), (0.09718366, 0.097186565, -0.99051), (0.09718366, 0.097186565, -0.99051), (-0.09718912, 0.09718786, 0.9905093), (-0.09718912, 0.09718786, 0.9905093), (-0.09718912, 0.09718786, 0.9905093), (-0.09718912, 0.09718786, 0.9905093), (2.2000876e-7, 0.13744569, -0.9905093), (2.2000876e-7, 0.13744569, -0.9905093), (2.2000876e-7, 0.13744569, -0.9905093), (2.2000876e-7, 0.13744569, -0.9905093), (-1.2942677e-7, 0.13744567, 0.9905093), (-1.2942677e-7, 0.13744567, 0.9905093), (-1.2942677e-7, 0.13744567, 0.9905093), (-1.2942677e-7, 0.13744567, 0.9905093), (-0.09719096, 0.09719006, -0.990509), (-0.09719096, 0.09719006, -0.990509), (-0.09719096, 0.09719006, -0.990509), (-0.09719096, 0.09719006, -0.990509), (0.09718369, 0.09718771, 0.99050987), (0.09718369, 0.09718771, 0.99050987), (0.09718369, 0.09718771, 0.99050987), (0.09718369, 0.09718771, 0.99050987), (-0.13744493, 1.4288222e-8, -0.9905094), (-0.13744493, 1.4288222e-8, -0.9905094), (-0.13744493, 1.4288222e-8, -0.9905094), (-0.13744493, 1.4288222e-8, -0.9905094), (0.1374449, 1.42882195e-8, 0.99050945), (0.1374449, 1.42882195e-8, 0.99050945), (0.1374449, 1.42882195e-8, 0.99050945), (0.1374449, 1.42882195e-8, 0.99050945), (0.70710695, 0.70710665, 0.0000010546157), (0.70710695, 0.70710665, 0.0000010546157), (0.70710695, 0.70710665, 0.0000010546157), (0.70710695, 0.70710665, 0.0000010546157), (0.99999994, 1.3182695e-7, 0.0000010040583), (0.99999994, 1.3182695e-7, 0.0000010040583), (0.99999994, 1.3182695e-7, 0.0000010040583), (0.99999994, 1.3182695e-7, 0.0000010040583), (0.70710653, -0.707107, 5.2730786e-7), (0.70710653, -0.707107, 5.2730786e-7), (0.70710653, -0.707107, 5.2730786e-7), (0.70710653, -0.707107, 5.2730786e-7), (1.2521178e-7, -1, 0), (1.2521178e-7, -1, 0), (1.2521178e-7, -1, 0), (1.2521178e-7, -1, 0), (-0.7071071, -0.7071064, -2.636539e-7), (-0.7071071, -0.7071064, -2.636539e-7), (-0.7071071, -0.7071064, -2.636539e-7), (-0.7071071, -0.7071064, -2.636539e-7), (-1, 1.3182702e-7, 0), (-1, 1.3182702e-7, 0), (-1, 1.3182702e-7, 0), (-1, 1.3182702e-7, 0), (-0.8475035, 0, -0.5307898), (-0.8475035, 0, -0.5307898), (-0.8475035, 0, -0.5307898), (-0.8475035, 0, -0.5307898), (-0.70710677, 0.7071067, -5.2730786e-7), (-0.70710677, 0.7071067, -5.2730786e-7), (-0.70710677, 0.7071067, -5.2730786e-7), (-0.70710677, 0.7071067, -5.2730786e-7), (-1.2521183e-7, 1, 0), (-1.2521183e-7, 1, 0), (-1.2521183e-7, 1, 0), (-1.2521183e-7, 1, 0), (-0.3725398, -0.37254032, -0.84995747), (-0.3725398, -0.37254032, -0.84995747), (-0.3725398, -0.37254032, -0.84995747), (-0.3725398, -0.37254032, -0.84995747), (1.2426923e-7, -0.8475031, -0.5307903), (1.2426923e-7, -0.8475031, -0.5307903), (1.2426923e-7, -0.8475031, -0.5307903), (1.2426923e-7, -0.8475031, -0.5307903), (-0.5992751, 0.5992757, -0.53078985), (-0.5992751, 0.5992757, -0.53078985), (-0.5992751, 0.5992757, -0.53078985), (-0.5992751, 0.5992757, -0.53078985), (0.84750354, 7.101095e-8, -0.53078973), (0.84750354, 7.101095e-8, -0.53078973), (0.84750354, 7.101095e-8, -0.53078973), (0.84750354, 7.101095e-8, -0.53078973), (-0.5992751, -0.59927523, -0.5307905), (-0.5992751, -0.59927523, -0.5307905), (-0.5992751, -0.59927523, -0.5307905), (-0.5992751, -0.59927523, -0.5307905), (8.876377e-8, 0.84750324, -0.53079015), (8.876377e-8, 0.84750324, -0.53079015), (8.876377e-8, 0.84750324, -0.53079015), (8.876377e-8, 0.84750324, -0.53079015), (0.59927565, 0.59927523, -0.53079), (0.59927565, 0.59927523, -0.53079), (0.59927565, 0.59927523, -0.53079), (0.59927565, 0.59927523, -0.53079), (0.59927565, -0.5992754, -0.53078973), (0.59927565, -0.5992754, -0.53078973), (0.59927565, -0.5992754, -0.53078973), (0.59927565, -0.5992754, -0.53078973), (0.64281064, -0.64281005, -0.41664112), (0.64281064, -0.64281005, -0.41664112), (0.64281064, -0.64281005, -0.41664112), (0.64281064, -0.64281005, -0.41664112), (0.3725405, -0.37253973, -0.8499574), (0.3725405, -0.37253973, -0.8499574), (0.3725405, -0.37253973, -0.8499574), (0.3725405, -0.37253973, -0.8499574), (0.37254047, 0.3725401, -0.8499574), (0.37254047, 0.3725401, -0.8499574), (0.37254047, 0.3725401, -0.8499574), (0.37254047, 0.3725401, -0.8499574), (1.6551846e-7, 0.5268517, -0.8499572), (1.6551846e-7, 0.5268517, -0.8499572), (1.6551846e-7, 0.5268517, -0.8499572), (1.6551846e-7, 0.5268517, -0.8499572), (-0.5268502, 1.2610937e-7, -0.8499581), (-0.5268502, 1.2610937e-7, -0.8499581), (-0.5268502, 1.2610937e-7, -0.8499581), (-0.5268502, 1.2610937e-7, -0.8499581), (1.1822747e-7, -0.5268517, -0.8499572), (1.1822747e-7, -0.5268517, -0.8499572), (1.1822747e-7, -0.5268517, -0.8499572), (1.1822747e-7, -0.5268517, -0.8499572), (0.5268512, -1.261094e-7, -0.8499575), (0.5268512, -1.261094e-7, -0.8499575), (0.5268512, -1.261094e-7, -0.8499575), (0.5268512, -1.261094e-7, -0.8499575), (-0.37253967, 0.37254, -0.8499577), (-0.37253967, 0.37254, -0.8499577), (-0.37253967, 0.37254, -0.8499577), (-0.37253967, 0.37254, -0.8499577), (2.2551869e-7, 3.807247e-14, -0.99999994), (2.2551869e-7, 3.807247e-14, -0.99999994), (2.2551869e-7, 3.807247e-14, -0.99999994), (2.2551869e-7, 3.807247e-14, -0.99999994), (2.2551869e-7, 3.807247e-14, -0.99999994), (2.2551869e-7, 3.807247e-14, -0.99999994), (2.2551869e-7, 3.807247e-14, -0.99999994), (2.2551869e-7, 3.807247e-14, -0.99999994), (0.64281034, 0.64281017, -0.41664147), (0.64281034, 0.64281017, -0.41664147), (0.64281034, 0.64281017, -0.41664147), (0.64281034, 0.64281017, -0.41664147), (-0.64281046, 0.6428106, -0.41664055), (-0.64281046, 0.6428106, -0.41664055), (-0.64281046, 0.6428106, -0.41664055), (-0.64281046, 0.6428106, -0.41664055), (-0.64281, -0.6428105, -0.41664127), (-0.64281, -0.6428105, -0.41664127), (-0.64281, -0.6428105, -0.41664127), (-0.64281, -0.6428105, -0.41664127), (3.2195878e-8, -0.9090713, -0.41664037), (3.2195878e-8, -0.9090713, -0.41664037), (3.2195878e-8, -0.9090713, -0.41664037), (3.2195878e-8, -0.9090713, -0.41664037), (0.90907115, -1.030269e-7, -0.41664082), (0.90907115, -1.030269e-7, -0.41664082), (0.90907115, -1.030269e-7, -0.41664082), (0.90907115, -1.030269e-7, -0.41664082), (-3.2195885e-8, 0.90907156, -0.4166401), (-3.2195885e-8, 0.90907156, -0.4166401), (-3.2195885e-8, 0.90907156, -0.4166401), (-3.2195885e-8, 0.90907156, -0.4166401), (-0.90907085, 1.03027006e-7, -0.4166417), (-0.90907085, 1.03027006e-7, -0.4166417), (-0.90907085, 1.03027006e-7, -0.4166417), (-0.90907085, 1.03027006e-7, -0.4166417), (-0.13744336, 1.4288226e-8, -0.9905096), (-0.13744336, 1.4288226e-8, -0.9905096), (-0.13744336, 1.4288226e-8, -0.9905096), (-0.13744336, 1.4288226e-8, -0.9905096), (0.13744304, 1.4288222e-8, 0.9905096), (0.13744304, 1.4288222e-8, 0.9905096), (0.13744304, 1.4288222e-8, 0.9905096), (0.13744304, 1.4288222e-8, 0.9905096), (-0.09718682, -0.09718756, -0.9905097), (-0.09718682, -0.09718756, -0.9905097), (-0.09718682, -0.09718756, -0.9905097), (-0.09718682, -0.09718756, -0.9905097), (0.09718763, -0.09718803, 0.9905095), (0.09718763, -0.09718803, 0.9905095), (0.09718763, -0.09718803, 0.9905095), (0.09718763, -0.09718803, 0.9905095), (1.14305585e-7, -0.13744387, -0.99050957), (1.14305585e-7, -0.13744387, -0.99050957), (1.14305585e-7, -0.13744387, -0.99050957), (1.14305585e-7, -0.13744387, -0.99050957), (-2.857641e-7, -0.13744563, 0.99050933), (-2.857641e-7, -0.13744563, 0.99050933), (-2.857641e-7, -0.13744563, 0.99050933), (-2.857641e-7, -0.13744563, 0.99050933), (0.097187094, -0.09718804, -0.9905095), (0.097187094, -0.09718804, -0.9905095), (0.097187094, -0.09718804, -0.9905095), (0.097187094, -0.09718804, -0.9905095), (-0.09718906, -0.09718867, 0.9905093), (-0.09718906, -0.09718867, 0.9905093), (-0.09718906, -0.09718867, 0.9905093), (-0.09718906, -0.09718867, 0.9905093), (0.7071069, 0.70710665, 2.5312366e-7), (0.7071069, 0.70710665, 2.5312366e-7), (0.7071069, 0.70710665, 2.5312366e-7), (0.7071069, 0.70710665, 2.5312366e-7), (1, 1.299591e-7, 3.7118699e-7), (1, 1.299591e-7, 3.7118699e-7), (1, 1.299591e-7, 3.7118699e-7), (1, 1.299591e-7, 3.7118699e-7), (0.70710665, -0.70710695, 2.6926335e-7), (0.70710665, -0.70710695, 2.6926335e-7), (0.70710665, -0.70710695, 2.6926335e-7), (0.70710665, -0.70710695, 2.6926335e-7), (1.2521178e-7, -1, 6.7945636e-9), (1.2521178e-7, -1, 6.7945636e-9), (1.2521178e-7, -1, 6.7945636e-9), (1.2521178e-7, -1, 6.7945636e-9), (-0.70710707, -0.7071065, -2.5312363e-7), (-0.70710707, -0.7071065, -2.5312363e-7), (-0.70710707, -0.7071065, -2.5312363e-7), (-0.70710707, -0.7071065, -2.5312363e-7), (-0.99999994, 1.2995906e-7, -3.7118676e-7), (-0.99999994, 1.2995906e-7, -3.7118676e-7), (-0.99999994, 1.2995906e-7, -3.7118676e-7), (-0.99999994, 1.2995906e-7, -3.7118676e-7), (-0.7071067, 0.70710695, -2.6926338e-7), (-0.7071067, 0.70710695, -2.6926338e-7), (-0.7071067, 0.70710695, -2.6926338e-7), (-0.7071067, 0.70710695, -2.6926338e-7), (-1.3332595e-7, 1, 0), (-1.3332595e-7, 1, 0), (-1.3332595e-7, 1, 0), (-1.3332595e-7, 1, 0), (-0.7071067, 0.7071068, -6.6767956e-7), (-0.7071067, 0.7071068, -6.6767956e-7), (-0.7071067, 0.7071068, -6.6767956e-7), (-0.7071067, 0.7071068, -6.6767956e-7), (-1, 0, -0.0000011939712), (-1, 0, -0.0000011939712), (-1, 0, -0.0000011939712), (-1, 0, -0.0000011939712), (-0.7071072, -0.70710635, -5.5639947e-7), (-0.7071072, -0.70710635, -5.5639947e-7), (-0.7071072, -0.70710635, -5.5639947e-7), (-0.7071072, -0.70710635, -5.5639947e-7), (1.3332591e-7, -1, 0), (1.3332591e-7, -1, 0), (1.3332591e-7, -1, 0), (1.3332591e-7, -1, 0), (0.7071067, -0.7071069, 3.3383978e-7), (0.7071067, -0.7071069, 3.3383978e-7), (0.7071067, -0.7071069, 3.3383978e-7), (0.7071067, -0.7071069, 3.3383978e-7), (1, 0, 3.9799008e-7), (1, 0, 3.9799008e-7), (1, 0, 3.9799008e-7), (1, 0, 3.9799008e-7), (0.7071068, 0.7071067, 3.3383972e-7), (0.7071068, 0.7071067, 3.3383972e-7), (0.7071068, 0.7071067, 3.3383972e-7), (0.7071068, 0.7071067, 3.3383972e-7), (0.097186446, 0.09718804, 0.9905097), (0.097186446, 0.09718804, 0.9905097), (0.097186446, 0.09718804, 0.9905097), (0.097186446, 0.09718804, 0.9905097), (-0.0971867, 0.09718753, -0.9905097), (-0.0971867, 0.09718753, -0.9905097), (-0.0971867, 0.09718753, -0.9905097), (-0.0971867, 0.09718753, -0.9905097), (-2.8576432e-7, 0.13744569, 0.99050933), (-2.8576432e-7, 0.13744569, 0.99050933), (-2.8576432e-7, 0.13744569, 0.99050933), (-2.8576432e-7, 0.13744569, 0.99050933), (1.14305685e-7, 0.13744396, -0.9905095), (1.14305685e-7, 0.13744396, -0.9905095), (1.14305685e-7, 0.13744396, -0.9905095), (1.14305685e-7, 0.13744396, -0.9905095), (-0.09718826, 0.09718872, 0.9905094), (-0.09718826, 0.09718872, 0.9905094), (-0.09718826, 0.09718872, 0.9905094), (-0.09718826, 0.09718872, 0.9905094), (0.097188435, 0.097188026, -0.9905094), (0.097188435, 0.097188026, -0.9905094), (0.097188435, 0.097188026, -0.9905094), (0.097188435, 0.097188026, -0.9905094), (-0.1374454, 1.4288222e-8, 0.9905094), (-0.1374454, 1.4288222e-8, 0.9905094), (-0.1374454, 1.4288222e-8, 0.9905094), (-0.1374454, 1.4288222e-8, 0.9905094), (0.13744287, 1.4288222e-8, -0.9905096), (0.13744287, 1.4288222e-8, -0.9905096), (0.13744287, 1.4288222e-8, -0.9905096), (0.13744287, 1.4288222e-8, -0.9905096)] (
                interpolation = "faceVarying"
            )
            point3f[] points = [(0.05950378, 0.1436549, 0.45218205), (0.14365485, 0.0595038, 0.45218202), (0.14365487, -0.05950382, 0.45218202), (0.059503756, -0.1436549, 0.45218205), (-0.05950389, -0.14365491, 0.45218205), (-0.14365496, -0.059503775, 0.45218202), (-0.14365494, 0.059503812, 0.45218202), (-0.05950384, 0.14365488, 0.45218205), (0.110605374, 0.045814276, 0.50495154), (0.045814224, 0.11060543, 0.50495154), (0.11060538, -0.045814276, 0.50495154), (0.045814253, -0.11060545, 0.50495154), (-0.045814298, -0.11060543, 0.5049515), (-0.110605516, -0.04581425, 0.5049516), (-0.11060552, 0.045814272, 0.5049516), (-0.045814328, 0.11060543, 0.5049515), (0.06823916, 0.028265605, 0.53121245), (0.028265545, 0.06823921, 0.53121245), (0.06823914, -0.028265612, 0.53121245), (0.028265564, -0.06823921, 0.53121245), (-0.028265687, -0.06823921, 0.53121245), (-0.06823929, -0.028265597, 0.53121245), (-0.068239264, 0.028265605, 0.53121245), (-0.028265705, 0.06823921, 0.53121245), (0.059329677, 0.024575181, 0.5117729), (0.02457513, 0.059329744, 0.5117729), (0.059329685, -0.024575189, 0.5117729), (0.024575144, -0.059329744, 0.5117729), (-0.024575204, -0.05932975, 0.5117729), (-0.05932978, -0.024575181, 0.5117729), (-0.05932979, 0.024575178, 0.5117729), (-0.024575219, 0.05932974, 0.5117729), (0.059503753, 0.1436549, 0.4225002), (0.14365482, 0.0595038, 0.42250016), (0.14365484, -0.05950382, 0.42250016), (0.059503734, -0.1436549, 0.4225002), (-0.059503913, -0.14365491, 0.4225002), (-0.14365496, -0.059503775, 0.42250016), (-0.14365494, 0.059503812, 0.42250016), (-0.059503864, 0.14365488, 0.4225002), (0.14365484, 0.0595038, 0.38263285), (0.14365485, -0.05950382, 0.38263285), (0.059503738, -0.1436549, 0.38263282), (-0.05950391, -0.14365491, 0.3826328), (-0.14365497, -0.059503775, 0.38263285), (-0.14365496, 0.059503812, 0.38263285), (-0.059503857, 0.14365488, 0.3826328), (0.05950376, 0.1436549, 0.38263282), (0.055882405, 0.13491218, 0.38384598), (0.0558824, 0.13491218, 0.42128706), (-0.05588251, 0.13491216, 0.421287), (-0.13491222, 0.055882458, 0.421287), (-0.13491224, -0.055882424, 0.421287), (-0.055882555, -0.1349122, 0.421287), (0.055882383, -0.13491218, 0.42128706), (0.13491212, -0.055882465, 0.42128703), (0.1349121, 0.05588245, 0.42128703), (0.13491212, 0.05588245, 0.38384598), (0.13491213, -0.055882465, 0.38384598), (0.055882387, -0.13491218, 0.38384598), (-0.05588255, -0.1349122, 0.38384596), (-0.13491225, -0.055882424, 0.38384598), (-0.13491224, 0.055882458, 0.38384598), (-0.055882506, 0.13491216, 0.38384596), (0.059503898, 0.1436549, 0.072215855), (0.14365497, 0.0595038, 0.07221593), (0.14365499, -0.05950382, 0.07221593), (0.059503876, -0.1436549, 0.072215855), (-0.05950377, -0.14365491, 0.072215825), (-0.14365484, -0.059503775, 0.07221581), (-0.14365482, 0.059503812, 0.07221581), (-0.05950372, 0.14365488, 0.072215825), (0.110605516, 0.045814276, 0.019446373), (0.045814365, 0.11060543, 0.019446373), (0.11060552, -0.045814276, 0.019446373), (0.045814395, -0.11060545, 0.019446373), (-0.045814157, -0.11060543, 0.019446343), (-0.110605374, -0.04581425, 0.019446284), (-0.11060538, 0.045814272, 0.019446284), (-0.045814186, 0.11060543, 0.019446343), (0.06823932, 0.028265605, -0.0068145692), (0.028265694, 0.06823921, -0.006814629), (0.068239294, -0.028265612, -0.0068145692), (0.028265713, -0.06823921, -0.006814629), (-0.028265538, -0.06823921, -0.006814629), (-0.06823913, -0.028265597, -0.006814629), (-0.06823911, 0.028265605, -0.006814629), (-0.028265556, 0.06823921, -0.006814629), (0.05932982, 0.024575181, 0.012625039), (0.02457527, 0.059329744, 0.012625024), (0.059329826, -0.024575189, 0.012625039), (0.024575286, -0.059329744, 0.012625024), (-0.024575062, -0.05932975, 0.012625024), (-0.05932964, -0.024575181, 0.012625009), (-0.059329648, 0.024575178, 0.012625009), (-0.024575077, 0.05932974, 0.012625024), (0.05950386, 0.1436549, 0.10189772), (0.14365494, 0.0595038, 0.10189779), (0.14365496, -0.05950382, 0.10189779), (0.059503842, -0.1436549, 0.10189772), (-0.059503805, -0.14365491, 0.10189769), (-0.14365484, -0.059503775, 0.10189767), (-0.14365482, 0.059503812, 0.10189767), (-0.059503756, 0.14365488, 0.10189769), (0.14365493, 0.0595038, 0.1417651), (0.14365494, -0.05950382, 0.1417651), (0.059503827, -0.1436549, 0.14176509), (-0.05950382, -0.14365491, 0.14176506), (-0.14365488, -0.059503775, 0.14176498), (-0.14365487, 0.059503812, 0.14176498), (-0.059503768, 0.14365488, 0.14176506), (0.05950385, 0.1436549, 0.14176509), (0.055882495, 0.13491218, 0.14055192), (0.055882506, 0.13491218, 0.10311088), (-0.055882405, 0.13491216, 0.10311085), (-0.1349121, 0.055882458, 0.103110835), (-0.13491212, -0.055882424, 0.103110835), (-0.05588245, -0.1349122, 0.10311085), (0.055882487, -0.13491218, 0.10311088), (0.13491224, -0.055882465, 0.103110924), (0.13491222, 0.05588245, 0.103110924), (0.13491221, 0.05588245, 0.14055195), (0.13491222, -0.055882465, 0.14055195), (0.055882476, -0.13491218, 0.14055192), (-0.05588246, -0.1349122, 0.14055192), (-0.13491216, -0.055882424, 0.14055184), (-0.13491215, 0.055882458, 0.14055184), (-0.055882417, 0.13491216, 0.14055192)]
            uniform token subdivisionScheme = "none"
            uniform token subsetFamily:materialBind:familyType = "nonOverlapping"
            custom string userProperties:blender:data_name = "Cube.034"

            def GeomSubset "Main" (
                prepend apiSchemas = ["MaterialBindingAPI"]
            )
            {
                uniform token elementType = "face"
                uniform token familyName = "materialBind"
                int[] indices = [0, 1, 2, 3, 4, 5, 6, 7, 8, 9, 10, 11, 12, 13, 14, 15, 16, 17, 18, 19, 20, 21, 22, 23, 24, 26, 27, 28, 29, 30, 31, 32, 33, 34, 35, 36, 37, 38, 39, 40, 41, 50, 51, 52, 53, 54, 55, 56, 57, 58, 59, 60, 61, 62, 63, 64, 65, 66, 67, 68, 69, 70, 71, 72, 73, 74, 75, 76, 77, 78, 79, 80, 81, 82, 84, 85, 86, 87, 88, 89, 90, 91, 92, 93, 94, 95, 96, 97, 98, 99, 100, 101, 102, 103, 104, 105, 114, 115, 116, 117, 118, 119, 120, 121]
                rel material:binding = </root/_materials/Main>
            }

            def GeomSubset "Accent" (
                prepend apiSchemas = ["MaterialBindingAPI"]
            )
            {
                uniform token elementType = "face"
                uniform token familyName = "materialBind"
                int[] indices = [42, 43, 44, 45, 46, 47, 48, 49, 106, 107, 108, 109, 110, 111, 112, 113]
                rel material:binding = </root/_materials/Accent>
            }

            def GeomSubset "DarkGrey" (
                prepend apiSchemas = ["MaterialBindingAPI"]
            )
            {
                uniform token elementType = "face"
                uniform token familyName = "materialBind"
                int[] indices = [25, 83]
                rel material:binding = </root/_materials/DarkGrey>
            }
        }
    }

    def Scope "_materials"
    {
        def Material "Main"
        {
            token outputs:surface.connect = </root/_materials/Main/Principled_BSDF.outputs:surface>
            custom string userProperties:blender:data_name = "Main"

            def Shader "Principled_BSDF"
            {
                uniform token info:id = "UsdPreviewSurface"
                float inputs:clearcoat = 0
                float inputs:clearcoatRoughness = 0.03
                color3f inputs:diffuseColor = (0.40196332, 0.40196332, 0.40196332)
                float inputs:ior = 1.5
                float inputs:metallic = 0
                float inputs:opacity = 1
                float inputs:roughness = 0.6900348
                float inputs:specular = 0.5
                token outputs:surface
            }
        }

        def Material "Accent"
        {
            token outputs:surface.connect = </root/_materials/Accent/Principled_BSDF.outputs:surface>
            custom string userProperties:blender:data_name = "Accent"

            def Shader "Principled_BSDF"
            {
                uniform token info:id = "UsdPreviewSurface"
                float inputs:clearcoat = 0
                float inputs:clearcoatRoughness = 0.03
                color3f inputs:diffuseColor = (0.5595926, 0.29767245, 0.06678983)
                float inputs:ior = 1.5
                float inputs:metallic = 0
                float inputs:opacity = 1
                float inputs:roughness = 0.6900348
                float inputs:specular = 0.5
                token outputs:surface
            }
        }

        def Material "DarkGrey"
        {
            token outputs:surface.connect = </root/_materials/DarkGrey/Principled_BSDF.outputs:surface>
            custom string userProperties:blender:data_name = "DarkGrey"

            def Shader "Principled_BSDF"
            {
                uniform token info:id = "UsdPreviewSurface"
                float inputs:clearcoat = 0
                float inputs:clearcoatRoughness = 0.03
                color3f inputs:diffuseColor = (0.23954731, 0.23954731, 0.23954731)
                float inputs:ior = 1.5
                float inputs:metallic = 0
                float inputs:opacity = 1
                float inputs:roughness = 0.6900348
                float inputs:specular = 0.5
                token outputs:surface
            }
        }
    }
}

