#usda 1.0
(
    defaultPrim = "root"
    doc = "Blender v5.1.2"
    metersPerUnit = 1
    upAxis = "Y"
)

def Xform "root" (
    customData = {
        dictionary Blender = {
            bool generated = 1
        }
    }
)
{
    float3 xformOp:rotateXYZ = (-90, -0, 0)
    uniform token[] xformOpOrder = ["xformOp:rotateXYZ"]

    def Xform "Props_Teleporter_1"
    {
        custom string userProperties:blender:object_name = "Props_Teleporter_1"

        def Mesh "Cylinder_011" (
            active = true
            prepend apiSchemas = ["MaterialBindingAPI"]
        )
        {
            uniform bool doubleSided = 1
            float3[] extent = [(-0.6028939, -0.6028948, -0.0041480064), (0.60289574, 0.6028949, 0.90038395)]
            int[] faceVertexCounts = [4, 4, 4, 4, 4, 4, 4, 4, 4, 4, 4, 4, 4, 4, 4, 4, 4, 4, 4, 4, 4, 4, 4, 4, 4, 4, 4, 4, 4, 4, 4, 4, 4, 4, 4, 4, 4, 4, 4, 4, 4, 4, 4, 4, 4, 4, 4, 4, 4, 4, 4, 4, 4, 4, 4, 4, 4, 4, 4, 4, 4, 4, 4, 4, 4, 4, 4, 4, 4, 4, 4, 4, 4, 4, 4, 4, 4, 4, 4, 4, 4, 4, 4, 4, 4, 4, 4, 4, 4, 4, 4, 4, 4, 4, 4, 4, 4, 4, 4, 4, 4, 4, 4, 4, 4, 4, 4, 4, 4, 4, 4, 4, 4, 4, 4, 4, 4, 4, 4, 4, 4, 4, 4, 4, 4, 4, 4, 4, 4, 4, 4, 4, 4, 4, 4, 4, 4, 4, 4, 4, 4, 4, 4, 4, 4, 4, 4, 4, 4, 4, 4, 4, 4, 4, 4, 4, 4, 4, 4, 4, 4, 4, 4, 4, 4, 4, 4, 4, 4, 4, 4, 4, 4, 4, 4, 4, 4, 4, 4, 4, 4, 4, 4, 4, 4, 4, 4, 4, 12, 4, 4, 4, 4, 4, 4, 4, 4, 4, 4, 4, 4, 4, 4, 4, 4, 4, 4, 4, 4, 4, 4, 4, 4, 4, 4, 4, 4, 4, 4, 4, 4, 4, 4, 4, 4, 4, 4, 4, 4, 4, 4, 4, 4, 4, 4, 4, 4, 4, 4, 4, 4, 4, 4, 4, 4, 4, 4, 4, 4, 4, 4, 4, 4, 4, 4, 4, 4, 4, 4, 4, 4, 4, 4, 4, 10, 12, 4, 4, 4, 4, 4, 4, 4, 4, 4, 4, 4, 4, 4, 4, 4, 4, 4, 4, 4, 4, 4, 4, 4, 4, 4, 4, 4, 4, 4, 4, 4, 4, 4, 4, 4, 4, 4, 4, 4, 4, 4, 4, 4, 4, 4, 4, 4, 4, 4, 4, 4, 4, 4, 4, 10, 4, 4, 4, 4, 4, 4, 4, 4, 4]
            int[] faceVertexIndices = [4, 5, 3, 1, 0, 2, 5, 4, 8, 9, 10, 11, 7, 8, 11, 6, 1, 3, 10, 9, 2, 0, 7, 6, 3, 5, 11, 10, 5, 2, 6, 11, 4, 1, 9, 8, 0, 4, 8, 7, 16, 17, 15, 13, 12, 14, 17, 16, 20, 21, 22, 23, 19, 20, 23, 18, 13, 15, 22, 21, 14, 12, 19, 18, 15, 17, 23, 22, 17, 14, 18, 23, 16, 13, 21, 20, 12, 16, 20, 19, 28, 29, 27, 25, 24, 26, 29, 28, 32, 33, 34, 35, 31, 32, 35, 30, 25, 27, 34, 33, 26, 24, 31, 30, 27, 29, 35, 34, 29, 26, 30, 35, 28, 25, 33, 32, 24, 28, 32, 31, 40, 41, 39, 37, 36, 38, 41, 40, 44, 45, 46, 47, 43, 44, 47, 42, 37, 39, 46, 45, 38, 36, 43, 42, 39, 41, 47, 46, 41, 38, 42, 47, 40, 37, 45, 44, 36, 40, 44, 43, 52, 53, 51, 49, 48, 50, 53, 52, 56, 57, 58, 59, 55, 56, 59, 54, 49, 51, 58, 57, 50, 48, 55, 54, 51, 53, 59, 58, 53, 50, 54, 59, 52, 49, 57, 56, 48, 52, 56, 55, 64, 65, 63, 61, 60, 62, 65, 64, 68, 69, 70, 71, 67, 68, 71, 66, 61, 63, 70, 69, 62, 60, 67, 66, 63, 65, 71, 70, 65, 62, 66, 71, 64, 61, 69, 68, 60, 64, 68, 67, 76, 77, 75, 73, 72, 74, 77, 76, 80, 81, 82, 83, 79, 80, 83, 78, 73, 75, 82, 81, 74, 72, 79, 78, 75, 77, 83, 82, 77, 74, 78, 83, 76, 73, 81, 80, 72, 76, 80, 79, 88, 89, 87, 85, 84, 86, 89, 88, 92, 93, 94, 95, 91, 92, 95, 90, 85, 87, 94, 93, 86, 84, 91, 90, 87, 89, 95, 94, 89, 86, 90, 95, 88, 85, 93, 92, 84, 88, 92, 91, 100, 101, 99, 97, 96, 98, 101, 100, 104, 105, 106, 107, 103, 104, 107, 102, 97, 99, 106, 105, 98, 96, 103, 102, 99, 101, 107, 106, 101, 98, 102, 107, 100, 97, 105, 104, 96, 100, 104, 103, 112, 113, 111, 109, 108, 110, 113, 112, 116, 117, 118, 119, 115, 116, 119, 114, 109, 111, 118, 117, 110, 108, 115, 114, 111, 113, 119, 118, 113, 110, 114, 119, 112, 109, 117, 116, 108, 112, 116, 115, 124, 125, 123, 121, 120, 122, 125, 124, 128, 129, 130, 131, 127, 128, 131, 126, 121, 123, 130, 129, 122, 120, 127, 126, 123, 125, 131, 130, 125, 122, 126, 131, 124, 121, 129, 128, 120, 124, 128, 127, 136, 137, 135, 133, 132, 134, 137, 136, 140, 141, 142, 143, 139, 140, 143, 138, 133, 135, 142, 141, 134, 132, 139, 138, 135, 137, 143, 142, 137, 134, 138, 143, 136, 133, 141, 140, 132, 136, 140, 139, 148, 149, 147, 145, 144, 146, 149, 148, 152, 153, 154, 155, 151, 152, 155, 150, 145, 147, 154, 153, 146, 144, 151, 150, 147, 149, 155, 154, 149, 146, 150, 155, 148, 145, 153, 152, 144, 148, 152, 151, 160, 161, 159, 157, 156, 158, 161, 160, 164, 165, 166, 167, 163, 164, 167, 162, 157, 159, 166, 165, 158, 156, 163, 162, 159, 161, 167, 166, 161, 158, 162, 167, 160, 157, 165, 164, 156, 160, 164, 163, 172, 173, 171, 169, 168, 170, 173, 172, 176, 177, 178, 179, 175, 176, 179, 174, 169, 171, 178, 177, 170, 168, 175, 174, 171, 173, 179, 178, 173, 170, 174, 179, 172, 169, 177, 176, 168, 172, 176, 175, 184, 185, 183, 181, 180, 182, 185, 184, 188, 189, 190, 191, 187, 188, 191, 186, 181, 183, 190, 189, 182, 180, 187, 186, 183, 185, 191, 190, 185, 182, 186, 191, 184, 181, 189, 188, 180, 184, 188, 187, 259, 258, 200, 201, 261, 262, 204, 203, 262, 263, 205, 204, 263, 264, 206, 205, 257, 259, 201, 199, 268, 260, 202, 258, 267, 269, 259, 257, 264, 265, 207, 206, 202, 203, 193, 192, 193, 194, 327, 328, 266, 267, 257, 256, 205, 206, 196, 195, 260, 261, 203, 202, 269, 268, 258, 259, 203, 204, 194, 193, 206, 207, 197, 196, 208, 209, 211, 210, 227, 229, 253, 250, 212, 213, 215, 214, 222, 223, 246, 247, 216, 217, 219, 218, 213, 212, 236, 237, 220, 221, 223, 222, 228, 226, 251, 252, 224, 225, 227, 226, 231, 209, 233, 254, 228, 229, 231, 230, 211, 213, 237, 234, 208, 210, 212, 214, 216, 218, 220, 222, 224, 226, 228, 230, 235, 234, 237, 236, 239, 238, 241, 240, 243, 242, 245, 244, 247, 246, 249, 248, 251, 250, 253, 252, 255, 254, 233, 232, 224, 222, 247, 248, 218, 219, 242, 243, 229, 228, 252, 253, 223, 225, 249, 246, 220, 218, 243, 244, 214, 215, 238, 239, 225, 224, 248, 249, 209, 208, 232, 233, 219, 221, 245, 242, 216, 214, 239, 240, 210, 211, 234, 235, 221, 220, 244, 245, 230, 231, 254, 255, 215, 217, 241, 238, 212, 210, 235, 236, 208, 230, 255, 232, 217, 216, 240, 241, 226, 227, 250, 251, 270, 271, 261, 260, 271, 272, 262, 261, 275, 276, 266, 265, 273, 274, 264, 263, 278, 270, 260, 268, 277, 279, 269, 267, 283, 284, 274, 273, 287, 289, 279, 277, 280, 281, 271, 270, 265, 266, 256, 207, 274, 275, 265, 264, 279, 278, 268, 269, 276, 277, 267, 266, 285, 286, 276, 275, 272, 273, 263, 262, 295, 296, 286, 285, 289, 288, 278, 279, 284, 285, 275, 274, 282, 283, 273, 272, 298, 290, 280, 288, 293, 294, 284, 283, 296, 297, 287, 286, 292, 293, 283, 282, 288, 280, 270, 278, 299, 298, 288, 289, 281, 282, 272, 271, 286, 287, 277, 276, 318, 300, 290, 298, 312, 314, 297, 296, 294, 295, 285, 284, 290, 291, 281, 280, 302, 304, 292, 291, 310, 312, 296, 295, 306, 308, 294, 293, 308, 310, 295, 294, 316, 318, 298, 299, 300, 302, 291, 290, 314, 316, 299, 297, 297, 299, 289, 287, 303, 302, 300, 301, 307, 306, 304, 305, 311, 310, 308, 309, 301, 300, 318, 319, 291, 292, 282, 281, 304, 306, 293, 292, 315, 314, 312, 313, 319, 318, 316, 317, 317, 316, 314, 315, 313, 312, 310, 311, 305, 304, 302, 303, 309, 308, 306, 307, 319, 317, 315, 313, 311, 309, 307, 305, 303, 301, 211, 209, 231, 229, 227, 225, 223, 221, 219, 217, 215, 213, 256, 257, 199, 198, 258, 202, 192, 200, 204, 205, 195, 194, 207, 256, 198, 197, 325, 324, 334, 335, 196, 197, 324, 325, 199, 201, 320, 322, 192, 193, 328, 329, 195, 196, 325, 326, 198, 199, 322, 323, 200, 192, 329, 321, 194, 195, 326, 327, 197, 198, 323, 324, 201, 200, 321, 320, 337, 336, 346, 347, 322, 320, 330, 332, 329, 328, 338, 339, 326, 325, 335, 336, 323, 322, 332, 333, 321, 329, 339, 331, 327, 326, 336, 337, 324, 323, 333, 334, 320, 321, 331, 330, 328, 327, 337, 338, 344, 343, 353, 354, 334, 333, 343, 344, 330, 331, 341, 340, 338, 337, 347, 348, 335, 334, 344, 345, 332, 330, 340, 342, 339, 338, 348, 349, 336, 335, 345, 346, 333, 332, 342, 343, 331, 339, 349, 341, 353, 352, 362, 363, 340, 341, 351, 350, 348, 347, 357, 358, 345, 344, 354, 355, 342, 340, 350, 352, 349, 348, 358, 359, 346, 345, 355, 356, 343, 342, 352, 353, 341, 349, 359, 351, 347, 346, 356, 357, 361, 369, 379, 371, 351, 359, 369, 361, 357, 356, 366, 367, 354, 353, 363, 364, 350, 351, 361, 360, 358, 357, 367, 368, 355, 354, 364, 365, 352, 350, 360, 362, 359, 358, 368, 369, 356, 355, 365, 366, 370, 371, 379, 378, 377, 376, 375, 374, 373, 372, 367, 366, 376, 377, 364, 363, 373, 374, 360, 361, 371, 370, 368, 367, 377, 378, 365, 364, 374, 375, 362, 360, 370, 372, 369, 368, 378, 379, 366, 365, 375, 376, 363, 362, 372, 373]
            rel material:binding = </root/_materials/Main>
            normal3f[] normals = [(0.6181939, 0.61819285, -0.48546258), (0.6181939, 0.61819285, -0.48546258), (0.6181939, 0.61819285, -0.48546258), (0.6181939, 0.61819285, -0.48546258), (0.5498607, 0.5498598, -0.62873477), (0.5498607, 0.5498598, -0.62873477), (0.5498607, 0.5498598, -0.62873477), (0.5498607, 0.5498598, -0.62873477), (-0.60546017, -0.6054591, 0.5165629), (-0.60546017, -0.6054591, 0.5165629), (-0.60546017, -0.6054591, 0.5165629), (-0.60546017, -0.6054591, 0.5165629), (-0.5498607, -0.54986, 0.62873465), (-0.5498607, -0.54986, 0.62873465), (-0.5498607, -0.54986, 0.62873465), (-0.5498607, -0.54986, 0.62873465), (0.44951767, 0.4495191, 0.77192384), (0.44951767, 0.4495191, 0.77192384), (0.44951767, 0.4495191, 0.77192384), (0.44951767, 0.4495191, 0.77192384), (-0.4495194, -0.44951856, -0.7719232), (-0.4495194, -0.44951856, -0.7719232), (-0.4495194, -0.44951856, -0.7719232), (-0.4495194, -0.44951856, -0.7719232), (-0.41758463, 0.8349781, 0.35837778), (-0.41758463, 0.8349781, 0.35837778), (-0.41758463, 0.8349781, 0.35837778), (-0.41758463, 0.8349781, 0.35837778), (-0.8129859, 0.5286218, -0.24415801), (-0.8129859, 0.5286218, -0.24415801), (-0.8129859, 0.5286218, -0.24415801), (-0.8129859, 0.5286218, -0.24415801), (0.83497787, -0.41758522, 0.35837746), (0.83497787, -0.41758522, 0.35837746), (0.83497787, -0.41758522, 0.35837746), (0.83497787, -0.41758522, 0.35837746), (0.5286219, -0.8129855, -0.24415888), (0.5286219, -0.8129855, -0.24415888), (0.5286219, -0.8129855, -0.24415888), (0.5286219, -0.8129855, -0.24415888), (0, 0.8742574, -0.48546273), (0, 0.8742574, -0.48546273), (0, 0.8742574, -0.48546273), (0, 0.8742574, -0.48546273), (2.3400347e-7, 0.7776198, -0.6287348), (2.3400347e-7, 0.7776198, -0.6287348), (2.3400347e-7, 0.7776198, -0.6287348), (2.3400347e-7, 0.7776198, -0.6287348), (-4.3471476e-7, -0.8562492, 0.51656294), (-4.3471476e-7, -0.8562492, 0.51656294), (-4.3471476e-7, -0.8562492, 0.51656294), (-4.3471476e-7, -0.8562492, 0.51656294), (-2.790981e-7, -0.77761954, 0.6287351), (-2.790981e-7, -0.77761954, 0.6287351), (-2.790981e-7, -0.77761954, 0.6287351), (-2.790981e-7, -0.77761954, 0.6287351), (0, 0.635715, 0.77192384), (0, 0.635715, 0.77192384), (0, 0.635715, 0.77192384), (0, 0.635715, 0.77192384), (-3.2949973e-8, -0.6357158, -0.77192324), (-3.2949973e-8, -0.6357158, -0.77192324), (-3.2949973e-8, -0.6357158, -0.77192324), (-3.2949973e-8, -0.6357158, -0.77192324), (-0.8856953, 0.29514208, 0.35837847), (-0.8856953, 0.29514208, 0.35837847), (-0.8856953, 0.29514208, 0.35837847), (-0.8856953, 0.29514208, 0.35837847), (-0.94865984, -0.20107508, -0.24415877), (-0.94865984, -0.20107508, -0.24415877), (-0.94865984, -0.20107508, -0.24415877), (-0.94865984, -0.20107508, -0.24415877), (0.88569605, 0.2951397, 0.3583783), (0.88569605, 0.2951397, 0.3583783), (0.88569605, 0.2951397, 0.3583783), (0.88569605, 0.2951397, 0.3583783), (0.9486597, -0.20107622, -0.24415803), (0.9486597, -0.20107622, -0.24415803), (0.9486597, -0.20107622, -0.24415803), (0.9486597, -0.20107622, -0.24415803), (-0.618193, 0.6181935, -0.48546293), (-0.618193, 0.6181935, -0.48546293), (-0.618193, 0.6181935, -0.48546293), (-0.618193, 0.6181935, -0.48546293), (-0.5498603, 0.54986054, -0.6287345), (-0.5498603, 0.54986054, -0.6287345), (-0.5498603, 0.54986054, -0.6287345), (-0.5498603, 0.54986054, -0.6287345), (0.6054597, -0.6054594, 0.5165631), (0.6054597, -0.6054594, 0.5165631), (0.6054597, -0.6054594, 0.5165631), (0.6054597, -0.6054594, 0.5165631), (0.54986024, -0.5498601, 0.62873477), (0.54986024, -0.5498601, 0.62873477), (0.54986024, -0.5498601, 0.62873477), (0.54986024, -0.5498601, 0.62873477), (-0.44951677, 0.44952032, 0.77192366), (-0.44951677, 0.44952032, 0.77192366), (-0.44951677, 0.44952032, 0.77192366), (-0.44951677, 0.44952032, 0.77192366), (0.4495195, -0.4495194, -0.77192265), (0.4495195, -0.4495194, -0.77192265), (0.4495195, -0.4495194, -0.77192265), (0.4495195, -0.4495194, -0.77192265), (-0.8349777, -0.41758513, 0.3583781), (-0.8349777, -0.41758513, 0.3583781), (-0.8349777, -0.41758513, 0.3583781), (-0.8349777, -0.41758513, 0.3583781), (-0.5286211, -0.8129862, -0.24415793), (-0.5286211, -0.8129862, -0.24415793), (-0.5286211, -0.8129862, -0.24415793), (-0.5286211, -0.8129862, -0.24415793), (0.4175873, 0.8349758, 0.3583801), (0.4175873, 0.8349758, 0.3583801), (0.4175873, 0.8349758, 0.3583801), (0.4175873, 0.8349758, 0.3583801), (0.8129851, 0.52862227, -0.24415906), (0.8129851, 0.52862227, -0.24415906), (0.8129851, 0.52862227, -0.24415906), (0.8129851, 0.52862227, -0.24415906), (-0.87425745, 4.3213527e-7, -0.4854627), (-0.87425745, 4.3213527e-7, -0.4854627), (-0.87425745, 4.3213527e-7, -0.4854627), (-0.87425745, 4.3213527e-7, -0.4854627), (-0.77761996, 2.7909806e-7, -0.6287346), (-0.77761996, 2.7909806e-7, -0.6287346), (-0.77761996, 2.7909806e-7, -0.6287346), (-0.77761996, 2.7909806e-7, -0.6287346), (0.8562493, -5.7961927e-7, 0.5165628), (0.8562493, -5.7961927e-7, 0.5165628), (0.8562493, -5.7961927e-7, 0.5165628), (0.8562493, -5.7961927e-7, 0.5165628), (0.7776197, -2.0932356e-7, 0.6287349), (0.7776197, -2.0932356e-7, 0.6287349), (0.7776197, -2.0932356e-7, 0.6287349), (0.7776197, -2.0932356e-7, 0.6287349), (-0.6357105, 9.452157e-7, 0.7719276), (-0.6357105, 9.452157e-7, 0.7719276), (-0.6357105, 9.452157e-7, 0.7719276), (-0.6357105, 9.452157e-7, 0.7719276), (0.6357155, -6.30133e-7, -0.77192336), (0.6357155, -6.30133e-7, -0.77192336), (0.6357155, -6.30133e-7, -0.77192336), (0.6357155, -6.30133e-7, -0.77192336), (-0.29514137, -0.8856955, 0.3583782), (-0.29514137, -0.8856955, 0.3583782), (-0.29514137, -0.8856955, 0.3583782), (-0.29514137, -0.8856955, 0.3583782), (0.20107687, -0.94865966, -0.24415742), (0.20107687, -0.94865966, -0.24415742), (0.20107687, -0.94865966, -0.24415742), (0.20107687, -0.94865966, -0.24415742), (-0.29514122, 0.8856959, 0.35837764), (-0.29514122, 0.8856959, 0.35837764), (-0.29514122, 0.8856959, 0.35837764), (-0.29514122, 0.8856959, 0.35837764), (0.20107554, 0.94865966, -0.24415895), (0.20107554, 0.94865966, -0.24415895), (0.20107554, 0.94865966, -0.24415895), (0.20107554, 0.94865966, -0.24415895), (-0.6181934, -0.6181931, -0.48546275), (-0.6181934, -0.6181931, -0.48546275), (-0.6181934, -0.6181931, -0.48546275), (-0.6181934, -0.6181931, -0.48546275), (-0.5498603, -0.54986036, -0.62873465), (-0.5498603, -0.54986036, -0.62873465), (-0.5498603, -0.54986036, -0.62873465), (-0.5498603, -0.54986036, -0.62873465), (0.60545975, 0.6054595, 0.51656306), (0.60545975, 0.6054595, 0.51656306), (0.60545975, 0.6054595, 0.51656306), (0.60545975, 0.6054595, 0.51656306), (0.54986, 0.54986036, 0.6287348), (0.54986, 0.54986036, 0.6287348), (0.54986, 0.54986036, 0.6287348), (0.54986, 0.54986036, 0.6287348), (-0.4495176, -0.4495176, 0.7719247), (-0.4495176, -0.4495176, 0.7719247), (-0.4495176, -0.4495176, 0.7719247), (-0.4495176, -0.4495176, 0.7719247), (0.4495197, 0.4495193, -0.7719225), (0.4495197, 0.4495193, -0.7719225), (0.4495197, 0.4495193, -0.7719225), (0.4495197, 0.4495193, -0.7719225), (0.4175858, -0.83497685, 0.35837936), (0.4175858, -0.83497685, 0.35837936), (0.4175858, -0.83497685, 0.35837936), (0.4175858, -0.83497685, 0.35837936), (0.8129856, -0.528622, -0.24415831), (0.8129856, -0.528622, -0.24415831), (0.8129856, -0.528622, -0.24415831), (0.8129856, -0.528622, -0.24415831), (-0.834977, 0.41758636, 0.35837823), (-0.834977, 0.41758636, 0.35837823), (-0.834977, 0.41758636, 0.35837823), (-0.834977, 0.41758636, 0.35837823), (-0.5286219, 0.8129855, -0.24415864), (-0.5286219, 0.8129855, -0.24415864), (-0.5286219, 0.8129855, -0.24415864), (-0.5286219, 0.8129855, -0.24415864), (-1.3109796e-7, -0.8742574, -0.48546275), (-1.3109796e-7, -0.8742574, -0.48546275), (-1.3109796e-7, -0.8742574, -0.48546275), (-1.3109796e-7, -0.8742574, -0.48546275), (2.6264456e-7, -0.7776197, -0.6287349), (2.6264456e-7, -0.7776197, -0.6287349), (2.6264456e-7, -0.7776197, -0.6287349), (2.6264456e-7, -0.7776197, -0.6287349), (4.3471465e-7, 0.85624933, 0.5165628), (4.3471465e-7, 0.85624933, 0.5165628), (4.3471465e-7, 0.85624933, 0.5165628), (4.3471465e-7, 0.85624933, 0.5165628), (0, 0.77761984, 0.62873477), (0, 0.77761984, 0.62873477), (0, 0.77761984, 0.62873477), (0, 0.77761984, 0.62873477), (9.4521397e-7, -0.63571703, 0.77192223), (9.4521397e-7, -0.63571703, 0.77192223), (9.4521397e-7, -0.63571703, 0.77192223), (9.4521397e-7, -0.63571703, 0.77192223), (3.704547e-7, 0.63571745, -0.7719219), (3.704547e-7, 0.63571745, -0.7719219), (3.704547e-7, 0.63571745, -0.7719219), (3.704547e-7, 0.63571745, -0.7719219), (0.8856957, -0.29514045, 0.35837847), (0.8856957, -0.29514045, 0.35837847), (0.8856957, -0.29514045, 0.35837847), (0.8856957, -0.29514045, 0.35837847), (0.9486597, 0.2010767, -0.24415757), (0.9486597, 0.2010767, -0.24415757), (0.9486597, 0.2010767, -0.24415757), (0.9486597, 0.2010767, -0.24415757), (-0.88569504, -0.29514349, 0.35837758), (-0.88569504, -0.29514349, 0.35837758), (-0.88569504, -0.29514349, 0.35837758), (-0.88569504, -0.29514349, 0.35837758), (-0.94865966, 0.20107606, -0.24415801), (-0.94865966, 0.20107606, -0.24415801), (-0.94865966, 0.20107606, -0.24415801), (-0.94865966, 0.20107606, -0.24415801), (0.61819345, -0.6181933, -0.4854625), (0.61819345, -0.6181933, -0.4854625), (0.61819345, -0.6181933, -0.4854625), (0.61819345, -0.6181933, -0.4854625), (0.54986054, -0.54986006, -0.62873477), (0.54986054, -0.54986006, -0.62873477), (0.54986054, -0.54986006, -0.62873477), (0.54986054, -0.54986006, -0.62873477), (-0.60545975, 0.6054597, 0.5165627), (-0.60545975, 0.6054597, 0.5165627), (-0.60545975, 0.6054597, 0.5165627), (-0.60545975, 0.6054597, 0.5165627), (-0.5498604, 0.54986024, 0.62873465), (-0.5498604, 0.54986024, 0.62873465), (-0.5498604, 0.54986024, 0.62873465), (-0.5498604, 0.54986024, 0.62873465), (0.44952023, -0.4495186, 0.77192265), (0.44952023, -0.4495186, 0.77192265), (0.44952023, -0.4495186, 0.77192265), (0.44952023, -0.4495186, 0.77192265), (-0.44951877, 0.44951838, -0.7719236), (-0.44951877, 0.44951838, -0.7719236), (-0.44951877, 0.44951838, -0.7719236), (-0.44951877, 0.44951838, -0.7719236), (0.83497715, 0.41758567, 0.35837874), (0.83497715, 0.41758567, 0.35837874), (0.83497715, 0.41758567, 0.35837874), (0.83497715, 0.41758567, 0.35837874), (0.5286217, 0.8129859, -0.24415787), (0.5286217, 0.8129859, -0.24415787), (0.5286217, 0.8129859, -0.24415787), (0.5286217, 0.8129859, -0.24415787), (-0.41758448, -0.83497894, 0.358376), (-0.41758448, -0.83497894, 0.358376), (-0.41758448, -0.83497894, 0.358376), (-0.41758448, -0.83497894, 0.358376), (-0.8129855, -0.52862215, -0.24415828), (-0.8129855, -0.52862215, -0.24415828), (-0.8129855, -0.52862215, -0.24415828), (-0.8129855, -0.52862215, -0.24415828), (0.87425727, -2.737355e-7, -0.4854629), (0.87425727, -2.737355e-7, -0.4854629), (0.87425727, -2.737355e-7, -0.4854629), (0.87425727, -2.737355e-7, -0.4854629), (0.77761996, -2.0371252e-7, -0.6287346), (0.77761996, -2.0371252e-7, -0.6287346), (0.77761996, -2.0371252e-7, -0.6287346), (0.77761996, -2.0371252e-7, -0.6287346), (-0.8562492, 4.3471482e-7, 0.516563), (-0.8562492, 4.3471482e-7, 0.516563), (-0.8562492, 4.3471482e-7, 0.516563), (-0.8562492, 4.3471482e-7, 0.516563), (-0.77761996, 2.0932346e-7, 0.6287345), (-0.77761996, 2.0932346e-7, 0.6287345), (-0.77761996, 2.0932346e-7, 0.6287345), (-0.77761996, 2.0932346e-7, 0.6287345), (0.6357125, 0.0000015076854, 0.7719259), (0.6357125, 0.0000015076854, 0.7719259), (0.6357125, 0.0000015076854, 0.7719259), (0.6357125, 0.0000015076854, 0.7719259), (-0.63571507, 1.8522735e-7, -0.77192384), (-0.63571507, 1.8522735e-7, -0.77192384), (-0.63571507, 1.8522735e-7, -0.77192384), (-0.63571507, 1.8522735e-7, -0.77192384), (0.29514468, 0.88569504, 0.35837683), (0.29514468, 0.88569504, 0.35837683), (0.29514468, 0.88569504, 0.35837683), (0.29514468, 0.88569504, 0.35837683), (-0.20107631, 0.94865966, -0.24415801), (-0.20107631, 0.94865966, -0.24415801), (-0.20107631, 0.94865966, -0.24415801), (-0.20107631, 0.94865966, -0.24415801), (0.29513964, -0.8856959, 0.35837892), (0.29513964, -0.8856959, 0.35837892), (0.29513964, -0.8856959, 0.35837892), (0.29513964, -0.8856959, 0.35837892), (-0.20107606, -0.9486599, -0.24415772), (-0.20107606, -0.9486599, -0.24415772), (-0.20107606, -0.9486599, -0.24415772), (-0.20107606, -0.9486599, -0.24415772), (0.73670405, 0.30515197, -0.603448), (0.73670405, 0.30515197, -0.603448), (0.73670405, 0.30515197, -0.603448), (0.73670405, 0.30515197, -0.603448), (0.843791, 0.34950888, -0.40725932), (0.843791, 0.34950888, -0.40725932), (0.843791, 0.34950888, -0.40725932), (0.843791, 0.34950888, -0.40725932), (-0.6893059, -0.28551918, 0.6658349), (-0.6893059, -0.28551918, 0.6658349), (-0.6893059, -0.28551918, 0.6658349), (-0.6893059, -0.28551918, 0.6658349), (-0.84379095, -0.349509, 0.4072595), (-0.84379095, -0.349509, 0.4072595), (-0.84379095, -0.349509, 0.4072595), (-0.84379095, -0.349509, 0.4072595), (0.566897, 0.23481508, 0.78961354), (0.566897, 0.23481508, 0.78961354), (0.566897, 0.23481508, 0.78961354), (0.566897, 0.23481508, 0.78961354), (-0.76764756, -0.31796914, -0.5564286), (-0.76764756, -0.31796914, -0.5564286), (-0.76764756, -0.31796914, -0.5564286), (-0.76764756, -0.31796914, -0.5564286), (-0.01664602, 0.95454466, 0.2976027), (-0.01664602, 0.95454466, 0.2976027), (-0.01664602, 0.95454466, 0.2976027), (-0.01664602, 0.95454466, 0.2976027), (-0.5605551, 0.8166157, -0.13753806), (-0.5605551, 0.8166157, -0.13753806), (-0.5605551, 0.8166157, -0.13753806), (-0.5605551, 0.8166157, -0.13753806), (0.66319233, -0.6867377, 0.2976025), (0.66319233, -0.6867377, 0.2976025), (0.66319233, -0.6867377, 0.2976025), (0.66319233, -0.6867377, 0.2976025), (0.18106122, -0.9738069, -0.137538), (0.18106122, -0.9738069, -0.137538), (0.18106122, -0.9738069, -0.137538), (0.18106122, -0.9738069, -0.137538), (0.3051537, 0.7367037, -0.60344756), (0.3051537, 0.7367037, -0.60344756), (0.3051537, 0.7367037, -0.60344756), (0.3051537, 0.7367037, -0.60344756), (0.3495102, 0.84379053, -0.40725952), (0.3495102, 0.84379053, -0.40725952), (0.3495102, 0.84379053, -0.40725952), (0.3495102, 0.84379053, -0.40725952), (-0.28551972, -0.6893057, 0.6658349), (-0.28551972, -0.6893057, 0.6658349), (-0.28551972, -0.6893057, 0.6658349), (-0.28551972, -0.6893057, 0.6658349), (-0.3495098, -0.84379065, 0.40725946), (-0.3495098, -0.84379065, 0.40725946), (-0.3495098, -0.84379065, 0.40725946), (-0.3495098, -0.84379065, 0.40725946), (0.23481637, 0.5668902, 0.78961813), (0.23481637, 0.5668902, 0.78961813), (0.23481637, 0.5668902, 0.78961813), (0.23481637, 0.5668902, 0.78961813), (-0.31797078, -0.7676478, -0.55642736), (-0.31797078, -0.7676478, -0.55642736), (-0.31797078, -0.7676478, -0.55642736), (-0.31797078, -0.7676478, -0.55642736), (-0.686736, 0.6631935, 0.29760408), (-0.686736, 0.6631935, 0.29760408), (-0.686736, 0.6631935, 0.29760408), (-0.686736, 0.6631935, 0.29760408), (-0.9738072, 0.181061, -0.13753735), (-0.9738072, 0.181061, -0.13753735), (-0.9738072, 0.181061, -0.13753735), (-0.9738072, 0.181061, -0.13753735), (0.95454365, -0.016650358, 0.2976054), (0.95454365, -0.016650358, 0.2976054), (0.95454365, -0.016650358, 0.2976054), (0.95454365, -0.016650358, 0.2976054), (0.8166151, -0.56055623, -0.13753779), (0.8166151, -0.56055623, -0.13753779), (0.8166151, -0.56055623, -0.13753779), (0.8166151, -0.56055623, -0.13753779), (-0.3051528, 0.7367049, -0.6034465), (-0.3051528, 0.7367049, -0.6034465), (-0.3051528, 0.7367049, -0.6034465), (-0.3051528, 0.7367049, -0.6034465), (-0.34950915, 0.84379107, -0.40725926), (-0.34950915, 0.84379107, -0.40725926), (-0.34950915, 0.84379107, -0.40725926), (-0.34950915, 0.84379107, -0.40725926), (0.2855191, -0.68930596, 0.66583496), (0.2855191, -0.68930596, 0.66583496), (0.2855191, -0.68930596, 0.66583496), (0.2855191, -0.68930596, 0.66583496), (0.34950918, -0.84379107, 0.40725923), (0.34950918, -0.84379107, 0.40725923), (0.34950918, -0.84379107, 0.40725923), (0.34950918, -0.84379107, 0.40725923), (-0.2348122, 0.5668901, 0.7896193), (-0.2348122, 0.5668901, 0.7896193), (-0.2348122, 0.5668901, 0.7896193), (-0.2348122, 0.5668901, 0.7896193), (0.3179698, -0.76764786, -0.556428), (0.3179698, -0.76764786, -0.556428), (0.3179698, -0.76764786, -0.556428), (0.3179698, -0.76764786, -0.556428), (-0.954544, -0.016647192, 0.2976047), (-0.954544, -0.016647192, 0.2976047), (-0.954544, -0.016647192, 0.2976047), (-0.954544, -0.016647192, 0.2976047), (-0.816614, -0.56055796, -0.13753681), (-0.816614, -0.56055796, -0.13753681), (-0.816614, -0.56055796, -0.13753681), (-0.816614, -0.56055796, -0.13753681), (0.6867374, 0.6631922, 0.29760352), (0.6867374, 0.6631922, 0.29760352), (0.6867374, 0.6631922, 0.29760352), (0.6867374, 0.6631922, 0.29760352), (0.97380686, 0.18106158, -0.13753843), (0.97380686, 0.18106158, -0.13753843), (0.97380686, 0.18106158, -0.13753843), (0.97380686, 0.18106158, -0.13753843), (-0.73670465, 0.30515376, -0.6034463), (-0.73670465, 0.30515376, -0.6034463), (-0.73670465, 0.30515376, -0.6034463), (-0.73670465, 0.30515376, -0.6034463), (-0.8437906, 0.34950984, -0.40725946), (-0.8437906, 0.34950984, -0.40725946), (-0.8437906, 0.34950984, -0.40725946), (-0.8437906, 0.34950984, -0.40725946), (0.6893059, -0.28552037, 0.66583437), (0.6893059, -0.28552037, 0.66583437), (0.6893059, -0.28552037, 0.66583437), (0.6893059, -0.28552037, 0.66583437), (0.8437909, -0.3495097, 0.40725917), (0.8437909, -0.3495097, 0.40725917), (0.8437909, -0.3495097, 0.40725917), (0.8437909, -0.3495097, 0.40725917), (-0.56689197, 0.23481606, 0.7896169), (-0.56689197, 0.23481606, 0.7896169), (-0.56689197, 0.23481606, 0.7896169), (-0.56689197, 0.23481606, 0.7896169), (0.76764745, -0.31797132, -0.5564276), (0.76764745, -0.31797132, -0.5564276), (0.76764745, -0.31797132, -0.5564276), (0.76764745, -0.31797132, -0.5564276), (-0.6631925, -0.6867371, 0.2976037), (-0.6631925, -0.6867371, 0.2976037), (-0.6631925, -0.6867371, 0.2976037), (-0.6631925, -0.6867371, 0.2976037), (-0.1810615, -0.9738069, -0.13753761), (-0.1810615, -0.9738069, -0.13753761), (-0.1810615, -0.9738069, -0.13753761), (-0.1810615, -0.9738069, -0.13753761), (0.016646815, 0.9545448, 0.29760224), (0.016646815, 0.9545448, 0.29760224), (0.016646815, 0.9545448, 0.29760224), (0.016646815, 0.9545448, 0.29760224), (0.56055516, 0.8166157, -0.13753831), (0.56055516, 0.8166157, -0.13753831), (0.56055516, 0.8166157, -0.13753831), (0.56055516, 0.8166157, -0.13753831), (-0.73670447, -0.30515262, -0.603447), (-0.73670447, -0.30515262, -0.603447), (-0.73670447, -0.30515262, -0.603447), (-0.73670447, -0.30515262, -0.603447), (-0.8437909, -0.34950936, -0.40725914), (-0.8437909, -0.34950936, -0.40725914), (-0.8437909, -0.34950936, -0.40725914), (-0.8437909, -0.34950936, -0.40725914), (0.68930596, 0.28551987, 0.66583455), (0.68930596, 0.28551987, 0.66583455), (0.68930596, 0.28551987, 0.66583455), (0.68930596, 0.28551987, 0.66583455), (0.8437909, 0.34950954, 0.40725905), (0.8437909, 0.34950954, 0.40725905), (0.8437909, 0.34950954, 0.40725905), (0.8437909, 0.34950954, 0.40725905), (-0.5668931, -0.23481447, 0.7896167), (-0.5668931, -0.23481447, 0.7896167), (-0.5668931, -0.23481447, 0.7896167), (-0.5668931, -0.23481447, 0.7896167), (0.7676479, 0.31797, -0.55642754), (0.7676479, 0.31797, -0.55642754), (0.7676479, 0.31797, -0.55642754), (0.7676479, 0.31797, -0.55642754), (0.016649166, -0.9545438, 0.29760516), (0.016649166, -0.9545438, 0.29760516), (0.016649166, -0.9545438, 0.29760516), (0.016649166, -0.9545438, 0.29760516), (0.56055576, -0.8166153, -0.13753799), (0.56055576, -0.8166153, -0.13753799), (0.56055576, -0.8166153, -0.13753799), (0.56055576, -0.8166153, -0.13753799), (-0.66319144, 0.68673766, 0.2976046), (-0.66319144, 0.68673766, 0.2976046), (-0.66319144, 0.68673766, 0.2976046), (-0.66319144, 0.68673766, 0.2976046), (-0.18106143, 0.9738069, -0.13753808), (-0.18106143, 0.9738069, -0.13753808), (-0.18106143, 0.9738069, -0.13753808), (-0.18106143, 0.9738069, -0.13753808), (-0.3051533, -0.7367043, -0.603447), (-0.3051533, -0.7367043, -0.603447), (-0.3051533, -0.7367043, -0.603447), (-0.3051533, -0.7367043, -0.603447), (-0.34950995, -0.84379065, -0.40725914), (-0.34950995, -0.84379065, -0.40725914), (-0.34950995, -0.84379065, -0.40725914), (-0.34950995, -0.84379065, -0.40725914), (0.28552, 0.6893057, 0.6658348), (0.28552, 0.6893057, 0.6658348), (0.28552, 0.6893057, 0.6658348), (0.28552, 0.6893057, 0.6658348), (0.34950963, 0.84379077, 0.40725926), (0.34950963, 0.84379077, 0.40725926), (0.34950963, 0.84379077, 0.40725926), (0.34950963, 0.84379077, 0.40725926), (-0.23481493, -0.5668908, 0.78961813), (-0.23481493, -0.5668908, 0.78961813), (-0.23481493, -0.5668908, 0.78961813), (-0.23481493, -0.5668908, 0.78961813), (0.31797054, 0.7676482, -0.55642694), (0.31797054, 0.7676482, -0.55642694), (0.31797054, 0.7676482, -0.55642694), (0.31797054, 0.7676482, -0.55642694), (0.6867356, -0.66319424, 0.29760337), (0.6867356, -0.66319424, 0.29760337), (0.6867356, -0.66319424, 0.29760337), (0.6867356, -0.66319424, 0.29760337), (0.9738068, -0.18106228, -0.13753834), (0.9738068, -0.18106228, -0.13753834), (0.9738068, -0.18106228, -0.13753834), (0.9738068, -0.18106228, -0.13753834), (-0.9545453, 0.016644487, 0.29760084), (-0.9545453, 0.016644487, 0.29760084), (-0.9545453, 0.016644487, 0.29760084), (-0.9545453, 0.016644487, 0.29760084), (-0.8166162, 0.56055427, -0.13753872), (-0.8166162, 0.56055427, -0.13753872), (-0.8166162, 0.56055427, -0.13753872), (-0.8166162, 0.56055427, -0.13753872), (0.30515307, -0.73670477, -0.60344636), (0.30515307, -0.73670477, -0.60344636), (0.30515307, -0.73670477, -0.60344636), (0.30515307, -0.73670477, -0.60344636), (0.34950978, -0.84379053, -0.40725958), (0.34950978, -0.84379053, -0.40725958), (0.34950978, -0.84379053, -0.40725958), (0.34950978, -0.84379053, -0.40725958), (-0.28551933, 0.6893065, 0.66583425), (-0.28551933, 0.6893065, 0.66583425), (-0.28551933, 0.6893065, 0.66583425), (-0.28551933, 0.6893065, 0.66583425), (-0.3495097, 0.8437907, 0.4072595), (-0.3495097, 0.8437907, 0.4072595), (-0.3495097, 0.8437907, 0.4072595), (-0.3495097, 0.8437907, 0.4072595), (0.23481424, -0.56689143, 0.7896179), (0.23481424, -0.56689143, 0.7896179), (0.23481424, -0.56689143, 0.7896179), (0.23481424, -0.56689143, 0.7896179), (-0.31797025, 0.7676476, -0.5564279), (-0.31797025, 0.7676476, -0.5564279), (-0.31797025, 0.7676476, -0.5564279), (-0.31797025, 0.7676476, -0.5564279), (0.9545445, 0.016647644, 0.2976031), (0.9545445, 0.016647644, 0.2976031), (0.9545445, 0.016647644, 0.2976031), (0.9545445, 0.016647644, 0.2976031), (0.8166153, 0.56055576, -0.13753782), (0.8166153, 0.56055576, -0.13753782), (0.8166153, 0.56055576, -0.13753782), (0.8166153, 0.56055576, -0.13753782), (-0.6867364, -0.66319317, 0.29760382), (-0.6867364, -0.66319317, 0.29760382), (-0.6867364, -0.66319317, 0.29760382), (-0.6867364, -0.66319317, 0.29760382), (-0.9738068, -0.18106258, -0.13753834), (-0.9738068, -0.18106258, -0.13753834), (-0.9738068, -0.18106258, -0.13753834), (-0.9738068, -0.18106258, -0.13753834), (0.73670447, -0.30515265, -0.6034471), (0.73670447, -0.30515265, -0.6034471), (0.73670447, -0.30515265, -0.6034471), (0.73670447, -0.30515265, -0.6034471), (0.8437907, -0.3495096, -0.40725955), (0.8437907, -0.3495096, -0.40725955), (0.8437907, -0.3495096, -0.40725955), (0.8437907, -0.3495096, -0.40725955), (-0.68930537, 0.28552002, 0.6658352), (-0.68930537, 0.28552002, 0.6658352), (-0.68930537, 0.28552002, 0.6658352), (-0.68930537, 0.28552002, 0.6658352), (-0.84379077, 0.34950966, 0.40725937), (-0.84379077, 0.34950966, 0.40725937), (-0.84379077, 0.34950966, 0.40725937), (-0.84379077, 0.34950966, 0.40725937), (0.5668919, -0.23481262, 0.78961796), (0.5668919, -0.23481262, 0.78961796), (0.5668919, -0.23481262, 0.78961796), (0.5668919, -0.23481262, 0.78961796), (-0.7676469, 0.31797004, -0.55642915), (-0.7676469, 0.31797004, -0.55642915), (-0.7676469, 0.31797004, -0.55642915), (-0.7676469, 0.31797004, -0.55642915), (0.66319424, 0.6867358, 0.29760274), (0.66319424, 0.6867358, 0.29760274), (0.66319424, 0.6867358, 0.29760274), (0.66319424, 0.6867358, 0.29760274), (0.18106128, 0.973807, -0.13753785), (0.18106128, 0.973807, -0.13753785), (0.18106128, 0.973807, -0.13753785), (0.18106128, 0.973807, -0.13753785), (-0.016648347, -0.95454395, 0.29760486), (-0.016648347, -0.95454395, 0.29760486), (-0.016648347, -0.95454395, 0.29760486), (-0.016648347, -0.95454395, 0.29760486), (-0.5605562, -0.8166151, -0.13753769), (-0.5605562, -0.8166151, -0.13753769), (-0.5605562, -0.8166151, -0.13753769), (-0.5605562, -0.8166151, -0.13753769), (0.30901694, 0.95105654, 0), (0.30901694, 0.95105654, 0), (0.30901694, 0.95105654, 0), (0.30901694, 0.95105654, 0), (-6.68912e-8, 0, -1), (-6.689123e-8, 0, -1), (-6.6891225e-8, 0, -1), (-6.68912e-8, 0, -1), (-6.689123e-8, 0, -1), (-6.689123e-8, 0, -1), (-6.6891225e-8, 0, -1), (-6.6891225e-8, 0, -1), (-6.689123e-8, 0, -1), (3.3445613e-8, 0, -1), (3.344561e-8, 0, -1), (-6.6891225e-8, 0, -1), (0.8090172, 0.58778507, 0), (0.8090172, 0.58778507, 0), (0.8090172, 0.58778507, 0), (0.8090172, 0.58778507, 0), (3.3445637e-8, 0, -1), (-3.3445563e-8, 0, -1), (-3.3445556e-8, 0, -1), (3.3445644e-8, 0, -1), (0, 0, -1), (0, 0, -1), (0, 0, -1), (0, 0, -1), (3.3445613e-8, 0, -1), (1.0033685e-7, 0, -1), (1.0033685e-7, 0, -1), (3.344561e-8, 0, -1), (-0.80901676, 0.58778554, 0), (-0.80901676, 0.58778554, 0), (-0.80901676, 0.58778554, 0), (-0.80901676, 0.58778554, 0), (-0.0413689, 0, -0.9991439), (-0.0413689, 0, -0.9991439), (-0.0413689, 0, -0.9991439), (-0.0413689, 0, -0.9991439), (6.689123e-8, 0, -1), (0, 0, -1), (0, 0, -1), (6.6891246e-8, 0, -1), (-0.3090171, -0.9510565, 0), (-0.3090171, -0.9510565, 0), (-0.3090171, -0.9510565, 0), (-0.3090171, -0.9510565, 0), (-3.3445563e-8, 0, -1), (-6.68912e-8, 0, -1), (-6.68912e-8, 0, -1), (-3.3445556e-8, 0, -1), (0, 0, -1), (3.3445637e-8, 0, -1), (3.3445644e-8, 0, -1), (0, 0, -1), (-1, 0, 0), (-1, 0, 0), (-1, 0, 0), (-1, 0, 0), (0.30901706, -0.9510565, 0), (0.30901706, -0.9510565, 0), (0.30901706, -0.9510565, 0), (0.30901706, -0.9510565, 0), (0.25881943, 0.9659257, 0), (0.25881943, 0.9659257, 0), (0.25881943, 0.9659257, 0), (0.25881943, 0.9659257, 0), (-0.7194318, 0.19277078, 0.6672761), (-0.7194318, 0.19277078, 0.6672761), (-0.7194318, 0.19277078, 0.6672761), (-0.7194318, 0.19277078, 0.6672761), (0.9659258, 0.25881922, 2.1500313e-8), (0.9659258, 0.25881922, 2.1500313e-8), (0.9659258, 0.25881922, 2.1500313e-8), (0.9659258, 0.25881922, 2.1500313e-8), (0.5407792, -0.8411645, 0), (0.5407792, -0.8411645, 0), (0.5407792, -0.8411645, 0), (0.5407792, -0.8411645, 0), (0.70710677, -0.7071067, -1.720026e-7), (0.70710677, -0.7071067, -1.720026e-7), (0.70710677, -0.7071067, -1.720026e-7), (0.70710677, -0.7071067, -1.720026e-7), (0.84116405, -0.54077995, -9.459904e-8), (0.84116405, -0.54077995, -9.459904e-8), (0.84116405, -0.54077995, -9.459904e-8), (0.84116405, -0.54077995, -9.459904e-8), (-0.2588186, -0.96592593, -3.4400514e-7), (-0.2588186, -0.96592593, -3.4400514e-7), (-0.2588186, -0.96592593, -3.4400514e-7), (-0.2588186, -0.96592593, -3.4400514e-7), (3.7186723e-10, 0, -1), (3.7186731e-10, 0, -1), (0, 0, -1), (0, 0, -1), (-0.9659257, -0.2588196, -2.1500318e-8), (-0.9659257, -0.2588196, -2.1500318e-8), (-0.9659257, -0.2588196, -2.1500318e-8), (-0.9659257, -0.2588196, -2.1500318e-8), (-0.19277138, 0.7194315, 0.6672762), (-0.19277138, 0.7194315, 0.6672762), (-0.19277138, 0.7194315, 0.6672762), (-0.19277138, 0.7194315, 0.6672762), (-0.70710725, 0.70710623, 1.7200254e-7), (-0.70710725, 0.70710623, 1.7200254e-7), (-0.70710725, 0.70710623, 1.7200254e-7), (-0.70710725, 0.70710623, 1.7200254e-7), (0.5266603, 0.52666044, 0.6672764), (0.5266603, 0.52666044, 0.6672764), (0.5266603, 0.52666044, 0.6672764), (0.5266603, 0.52666044, 0.6672764), (3.7186731e-10, 0, -1), (3.718673e-10, 0, -1), (3.7186718e-10, 0, -1), (3.7186731e-10, 0, -1), (3.7186731e-10, 0, -1), (8.271909e-10, 0, -1), (8.2719087e-10, 0, -1), (3.7186723e-10, 0, -1), (3.7186726e-10, 0, -1), (3.7186731e-10, 0, -1), (3.7186723e-10, 0, -1), (3.7186734e-10, 0, -1), (0.7071067, 0.7071069, 0), (0.7071067, 0.7071069, 0), (0.7071067, 0.7071069, 0), (0.7071067, 0.7071069, 0), (0.965926, -0.25881872, 0), (0.965926, -0.25881872, 0), (0.965926, -0.25881872, 0), (0.965926, -0.25881872, 0), (0.258819, -0.9659258, 0), (0.258819, -0.9659258, 0), (0.258819, -0.9659258, 0), (0.258819, -0.9659258, 0), (-0.7071069, -0.70710677, 0), (-0.7071069, -0.70710677, 0), (-0.7071069, -0.70710677, 0), (-0.7071069, -0.70710677, 0), (-0.96592605, 0.2588185, 6.30085e-8), (-0.96592605, 0.2588185, 6.30085e-8), (-0.96592605, 0.2588185, 6.30085e-8), (-0.96592605, 0.2588185, 6.30085e-8), (-0.2588192, 0.9659258, 0), (-0.2588192, 0.9659258, 0), (-0.2588192, 0.9659258, 0), (-0.2588192, 0.9659258, 0), (3.7186726e-10, 0, -1), (3.7186723e-10, 0, -1), (0, 0, -1), (0, 0, -1), (0.9988595, 0.04774542, 0), (0.9988595, 0.04774542, 0), (0.9988595, 0.04774542, 0), (0.9988595, 0.04774542, 0), (0.047745418, 0.9988595, 1.8919822e-7), (0.047745418, 0.9988595, 1.8919822e-7), (0.047745418, 0.9988595, 1.8919822e-7), (0.047745418, 0.9988595, 1.8919822e-7), (-0.52666026, -0.52666044, 0.66727626), (-0.52666026, -0.52666044, 0.66727626), (-0.52666026, -0.52666044, 0.66727626), (-0.52666026, -0.52666044, 0.66727626), (8.2719087e-10, 0, -1), (8.271909e-10, 0, -1), (1.3339136e-9, 0, -1), (1.3339136e-9, 0, -1), (0.4580817, 0.88891006, 0), (0.4580817, 0.88891006, 0), (0.4580817, 0.88891006, 0), (0.4580817, 0.88891006, 0), (-0.84116507, 0.5407783, 1.8919816e-7), (-0.84116507, 0.5407783, 1.8919816e-7), (-0.84116507, 0.5407783, 1.8919816e-7), (-0.84116507, 0.5407783, 1.8919816e-7), (0.88891, 0.458082, 0), (0.88891, 0.458082, 0), (0.88891, 0.458082, 0), (0.88891, 0.458082, 0), (0.19277106, -0.7194316, 0.66727614), (0.19277106, -0.7194316, 0.66727614), (0.19277106, -0.7194316, 0.66727614), (0.19277106, -0.7194316, 0.66727614), (3.7186731e-10, 0, -1), (3.7186731e-10, 0, -1), (0, 0, -1), (0, 0, -1), (-0.54077876, 0.8411648, 0), (-0.54077876, 0.8411648, 0), (-0.54077876, 0.8411648, 0), (-0.54077876, 0.8411648, 0), (-0.88891053, -0.45808077, 0), (-0.88891053, -0.45808077, 0), (-0.88891053, -0.45808077, 0), (-0.88891053, -0.45808077, 0), (-0.9988595, -0.047745444, 0), (-0.9988595, -0.047745444, 0), (-0.9988595, -0.047745444, 0), (-0.9988595, -0.047745444, 0), (0.7194316, -0.1927712, 0.6672762), (0.7194316, -0.1927712, 0.6672762), (0.7194316, -0.1927712, 0.6672762), (0.7194316, -0.1927712, 0.6672762), (3.7186718e-10, 0, -1), (3.718673e-10, 0, -1), (0, 0, -1), (0, 0, -1), (3.7186731e-10, 0, -1), (3.7186734e-10, 0, -1), (0, 0, -0.99999994), (0, 0, -0.99999994), (-0.047745623, -0.9988595, 0), (-0.047745623, -0.9988595, 0), (-0.047745623, -0.9988595, 0), (-0.047745623, -0.9988595, 0), (-0.458081, -0.8889104, 0), (-0.458081, -0.8889104, 0), (-0.458081, -0.8889104, 0), (-0.458081, -0.8889104, 0), (-0.8090168, 0.5877855, 0), (-0.8090168, 0.5877855, 0), (-0.8090168, 0.5877855, 0), (-0.8090168, 0.5877855, 0), (-1, 0, 0), (-1, 0, 0), (-1, 0, 0), (-1, 0, 0), (0.809017, -0.5877853, 0), (0.809017, -0.5877853, 0), (0.809017, -0.5877853, 0), (0.809017, -0.5877853, 0), (-0.3090169, -0.95105654, 0), (-0.3090169, -0.95105654, 0), (-0.3090169, -0.95105654, 0), (-0.3090169, -0.95105654, 0), (-0.3090169, 0.9510566, 0), (-0.3090169, 0.9510566, 0), (-0.3090169, 0.9510566, 0), (-0.3090169, 0.9510566, 0), (0.8090172, 0.58778495, 0), (0.8090172, 0.58778495, 0), (0.8090172, 0.58778495, 0), (0.8090172, 0.58778495, 0), (-7.026107e-8, 0, 1), (-3.5130537e-8, 0, 1), (-3.5130537e-8, 0, 1), (-7.026107e-8, 0, 1), (-7.0261066e-8, 0, 1), (-3.5130526e-8, 0, 1), (-3.513054e-8, 0, 1), (-7.0261045e-8, 0, 1), (0, 0, 1), (7.026103e-8, 0, 1), (7.026102e-8, 0, 1), (0, 0, 1), (1.0033685e-7, 0, -1), (6.689123e-8, 0, -1), (6.6891246e-8, 0, -1), (1.0033685e-7, 0, -1), (0.30901682, -0.9510566, 0), (0.30901682, -0.9510566, 0), (0.30901682, -0.9510566, 0), (0.30901682, -0.9510566, 0), (0.30901703, 0.95105654, 0), (0.30901703, 0.95105654, 0), (0.30901703, 0.95105654, 0), (0.30901703, 0.95105654, 0), (1, 0, 0), (1, 0, 0), (1, 0, 0), (1, 0, 0), (0, 0, 1), (0, 0, 1), (0, 0, 1), (0, 0, 1), (-0.8090169, -0.58778536, 0), (-0.8090169, -0.58778536, 0), (-0.8090169, -0.58778536, 0), (-0.8090169, -0.58778536, 0), (0.7227508, -0.5251091, 0.44932345), (0.7227508, -0.5251091, 0.44932345), (0.7227508, -0.5251091, 0.44932345), (0.7227508, -0.5251091, 0.44932345), (-3.5130526e-8, 0, 1), (3.5130522e-8, 0, 1), (3.5130526e-8, 0, 1), (-3.513054e-8, 0, 1), (-3.5130537e-8, 0, 1), (0, 0, 1), (0, 0, 1), (-3.5130537e-8, 0, 1), (3.5130487e-8, 0, 1), (-7.026107e-8, 0, 1), (-7.026107e-8, 0, 1), (3.5130483e-8, 0, 1), (-0.2760661, 0.8496447, 0.44932336), (-0.2760661, 0.8496447, 0.44932336), (-0.2760661, 0.8496447, 0.44932336), (-0.2760661, 0.8496447, 0.44932336), (-0.27606627, -0.84964424, 0.4493241), (-0.27606627, -0.84964424, 0.4493241), (-0.27606627, -0.84964424, 0.4493241), (-0.27606627, -0.84964424, 0.4493241), (0.8933691, 0, 0.44932362), (0.8933691, 0, 0.44932362), (0.8933691, 0, 0.44932362), (0.8933691, 0, 0.44932362), (-0.7227509, -0.52510905, 0.44932353), (-0.7227509, -0.52510905, 0.44932353), (-0.7227509, -0.52510905, 0.44932353), (-0.7227509, -0.52510905, 0.44932353), (3.5130522e-8, 0, 1), (0, 0, 1), (0, 0, 1), (3.5130526e-8, 0, 1), (0.27606612, 0.8496447, 0.44932315), (0.27606612, 0.8496447, 0.44932315), (0.27606612, 0.8496447, 0.44932315), (0.27606612, 0.8496447, 0.44932315), (7.026103e-8, 0, 1), (3.5130487e-8, 0, 1), (3.5130483e-8, 0, 1), (7.026102e-8, 0, 1), (0, 0, 1), (-7.0261066e-8, 0, 1), (-7.0261045e-8, 0, 1), (0, 0, 1), (-0.0770475, 0.23712783, 0.96841836), (-0.0770475, 0.23712783, 0.96841836), (-0.0770475, 0.23712783, 0.96841836), (-0.0770475, 0.23712783, 0.96841836), (0.24933086, 0, 0.9684183), (0.24933086, 0, 0.9684183), (0.24933086, 0, 0.9684183), (0.24933086, 0, 0.9684183), (0.27606624, -0.8496444, 0.4493236), (0.27606624, -0.8496444, 0.4493236), (0.27606624, -0.8496444, 0.4493236), (0.27606624, -0.8496444, 0.4493236), (-0.72275084, 0.5251095, 0.44932306), (-0.72275084, 0.5251095, 0.44932306), (-0.72275084, 0.5251095, 0.44932306), (-0.72275084, 0.5251095, 0.44932306), (-0.24933112, 0, 0.96841836), (-0.24933112, 0, 0.96841836), (-0.24933112, 0, 0.96841836), (-0.24933112, 0, 0.96841836), (0.20171282, -0.14655302, 0.96841836), (0.20171282, -0.14655302, 0.96841836), (0.20171282, -0.14655302, 0.96841836), (0.20171282, -0.14655302, 0.96841836), (-0.07704747, -0.23712793, 0.96841836), (-0.07704747, -0.23712793, 0.96841836), (-0.07704747, -0.23712793, 0.96841836), (-0.07704747, -0.23712793, 0.96841836), (0.07704747, -0.23712774, 0.96841836), (0.07704747, -0.23712774, 0.96841836), (0.07704747, -0.23712774, 0.96841836), (0.07704747, -0.23712774, 0.96841836), (0.07704757, 0.23712789, 0.9684183), (0.07704757, 0.23712789, 0.9684183), (0.07704757, 0.23712789, 0.9684183), (0.07704757, 0.23712789, 0.9684183), (-0.20171297, 0.14655311, 0.96841836), (-0.20171297, 0.14655311, 0.96841836), (-0.20171297, 0.14655311, 0.96841836), (-0.20171297, 0.14655311, 0.96841836), (0.20171286, 0.14655298, 0.96841836), (0.20171286, 0.14655298, 0.96841836), (0.20171286, 0.14655298, 0.96841836), (0.20171286, 0.14655298, 0.96841836), (0.72275114, 0.52510893, 0.4493232), (0.72275114, 0.52510893, 0.4493232), (0.72275114, 0.52510893, 0.4493232), (0.72275114, 0.52510893, 0.4493232), (-0.79238796, 0.5757039, -0.20170835), (-0.79238796, 0.5757039, -0.20170835), (-0.79238796, 0.5757039, -0.20170835), (-0.79238796, 0.5757039, -0.20170835), (-0.7923883, -0.5757038, -0.20170729), (-0.7923883, -0.5757038, -0.20170729), (-0.7923883, -0.5757038, -0.20170729), (-0.7923883, -0.5757038, -0.20170729), (0.30266517, -0.9315081, -0.20170857), (0.30266517, -0.9315081, -0.20170857), (0.30266517, -0.9315081, -0.20170857), (0.30266517, -0.9315081, -0.20170857), (-0.30266508, 0.9315084, -0.20170763), (-0.30266508, 0.9315084, -0.20170763), (-0.30266508, 0.9315084, -0.20170763), (-0.30266508, 0.9315084, -0.20170763), (-0.8933694, 0, 0.44932318), (-0.8933694, 0, 0.44932318), (-0.8933694, 0, 0.44932318), (-0.8933694, 0, 0.44932318), (-0.2017129, -0.14655311, 0.9684183), (-0.2017129, -0.14655311, 0.9684183), (-0.2017129, -0.14655311, 0.9684183), (-0.2017129, -0.14655311, 0.9684183), (0.9794457, 0, -0.20170806), (0.9794457, 0, -0.20170806), (0.9794457, 0, -0.20170806), (0.9794457, 0, -0.20170806), (0.30266535, 0.9315082, -0.20170827), (0.30266535, 0.9315082, -0.20170827), (0.30266535, 0.9315082, -0.20170827), (0.30266535, 0.9315082, -0.20170827), (0.7923882, 0.5757036, -0.20170869), (0.7923882, 0.5757036, -0.20170869), (0.7923882, 0.5757036, -0.20170869), (0.7923882, 0.5757036, -0.20170869), (0.79238814, -0.57570386, -0.20170811), (0.79238814, -0.57570386, -0.20170811), (0.79238814, -0.57570386, -0.20170811), (0.79238814, -0.57570386, -0.20170811), (-0.9794458, 0, -0.20170741), (-0.9794458, 0, -0.20170741), (-0.9794458, 0, -0.20170741), (-0.9794458, 0, -0.20170741), (-0.30266538, -0.93150806, -0.20170853), (-0.30266538, -0.93150806, -0.20170853), (-0.30266538, -0.93150806, -0.20170853), (-0.30266538, -0.93150806, -0.20170853), (-1.0431014e-8, 0, -1), (-1.0431014e-8, 0, -1), (-1.0431014e-8, 0, -1), (-1.0431014e-8, 0, -1), (-1.0431014e-8, 0, -1), (-1.0431014e-8, 0, -1), (-1.0431014e-8, 0, -1), (-1.0431014e-8, 0, -1), (-1.0431014e-8, 0, -1), (-1.0431014e-8, 0, -1), (-4.5166804e-9, 0, 0.99999994), (-4.5166804e-9, 0, 0.99999994), (-4.5166804e-9, 0, 0.99999994), (-4.5166804e-9, 0, 0.99999994), (-4.5166804e-9, 0, 0.99999994), (-4.5166804e-9, 0, 0.99999994), (-4.5166804e-9, 0, 0.99999994), (-4.5166804e-9, 0, 0.99999994), (-4.5166804e-9, 0, 0.99999994), (-4.5166804e-9, 0, 0.99999994), (-4.5166804e-9, 0, 0.99999994), (-4.5166804e-9, 0, 0.99999994), (1, 0, 0), (1, 0, 0), (1, 0, 0), (1, 0, 0), (-0.30901673, 0.95105654, 0), (-0.30901673, 0.95105654, 0), (-0.30901673, 0.95105654, 0), (-0.30901673, 0.95105654, 0), (-0.80901694, -0.5877854, 0), (-0.80901694, -0.5877854, 0), (-0.80901694, -0.5877854, 0), (-0.80901694, -0.5877854, 0), (0.80901706, -0.5877852, 0), (0.80901706, -0.5877852, 0), (0.80901706, -0.5877852, 0), (0.80901706, -0.5877852, 0), (0.3090169, -0.9510566, 0), (0.3090169, -0.9510566, 0), (0.3090169, -0.9510566, 0), (0.3090169, -0.9510566, 0), (0.012783906, -0.039344426, -0.9991439), (0.012783906, -0.039344426, -0.9991439), (0.012783906, -0.039344426, -0.9991439), (0.012783906, -0.039344426, -0.9991439), (0.033468544, 0.02431618, -0.999144), (0.033468544, 0.02431618, -0.999144), (0.033468544, 0.02431618, -0.999144), (0.033468544, 0.02431618, -0.999144), (-0.03346855, 0.02431622, -0.9991439), (-0.03346855, 0.02431622, -0.9991439), (-0.03346855, 0.02431622, -0.9991439), (-0.03346855, 0.02431622, -0.9991439), (-0.01278372, -0.039344437, -0.9991439), (-0.01278372, -0.039344437, -0.9991439), (-0.01278372, -0.039344437, -0.9991439), (-0.01278372, -0.039344437, -0.9991439), (0.04136926, 0, -0.9991439), (0.04136926, 0, -0.9991439), (0.04136926, 0, -0.9991439), (0.04136926, 0, -0.9991439), (-0.0127837155, 0.0393444, -0.9991439), (-0.0127837155, 0.0393444, -0.9991439), (-0.0127837155, 0.0393444, -0.9991439), (-0.0127837155, 0.0393444, -0.9991439), (-0.033468176, -0.0243162, -0.999144), (-0.033468176, -0.0243162, -0.999144), (-0.033468176, -0.0243162, -0.999144), (-0.033468176, -0.0243162, -0.999144), (0.033468544, -0.024316192, -0.99914396), (0.033468544, -0.024316192, -0.99914396), (0.033468544, -0.024316192, -0.99914396), (0.033468544, -0.024316192, -0.99914396), (0.012783901, 0.039344415, -0.9991439), (0.012783901, 0.039344415, -0.9991439), (0.012783901, 0.039344415, -0.9991439), (0.012783901, 0.039344415, -0.9991439), (-6.1228144e-7, 0, 1), (-1.5307036e-7, 0, 1), (-1.530705e-7, 0, 1), (-6.122818e-7, 0, 1), (0.80901706, 0.5877852, 0), (0.80901706, 0.5877852, 0), (0.80901706, 0.5877852, 0), (0.80901706, 0.5877852, 0), (-0.80901694, 0.58778536, 0), (-0.80901694, 0.58778536, 0), (-0.80901694, 0.58778536, 0), (-0.80901694, 0.58778536, 0), (-0.30901685, -0.95105654, 0), (-0.30901685, -0.95105654, 0), (-0.30901685, -0.95105654, 0), (-0.30901685, -0.95105654, 0), (1, 0, 0), (1, 0, 0), (1, 0, 0), (1, 0, 0), (-0.30901673, 0.95105666, 0), (-0.30901673, 0.95105666, 0), (-0.30901673, 0.95105666, 0), (-0.30901673, 0.95105666, 0), (-0.8090172, -0.587785, 0), (-0.8090172, -0.587785, 0), (-0.8090172, -0.587785, 0), (-0.8090172, -0.587785, 0), (0.8090169, -0.58778536, 0), (0.8090169, -0.58778536, 0), (0.8090169, -0.58778536, 0), (0.8090169, -0.58778536, 0), (0.30901685, 0.9510566, 0), (0.30901685, 0.9510566, 0), (0.30901685, 0.9510566, 0), (0.30901685, 0.9510566, 0), (-1, 0, 0), (-1, 0, 0), (-1, 0, 0), (-1, 0, 0), (-0.8090173, 0.5877847, 0), (-0.8090173, 0.5877847, 0), (-0.8090173, 0.5877847, 0), (-0.8090173, 0.5877847, 0), (3.0614078e-7, 0, 1), (3.0614075e-7, 0, 1), (3.061408e-7, 0, 1), (3.0614078e-7, 0, 1), (6.1228144e-7, 0, 1), (3.0614083e-7, 0, 1), (3.061409e-7, 0, 1), (6.122815e-7, 0, 1), (-3.061403e-7, 0, 1), (-6.1228144e-7, 0, 1), (-6.122818e-7, 0, 1), (-3.0614112e-7, 0, 1), (-1.5307046e-7, 0, 1), (3.0614078e-7, 0, 1), (3.0614078e-7, 0, 1), (-1.5307043e-7, 0, 1), (3.0614058e-7, 0, 1), (6.1228144e-7, 0, 1), (6.122815e-7, 0, 1), (3.0614063e-7, 0, 1), (3.0614052e-7, 0, 1), (-3.061403e-7, 0, 1), (-3.0614112e-7, 0, 1), (3.0614115e-7, 0, 1), (-1.5307036e-7, 0, 1), (-1.5307046e-7, 0, 1), (-1.5307043e-7, 0, 1), (-1.530705e-7, 0, 1), (3.0614075e-7, 0, 1), (3.0614058e-7, 0, 1), (3.0614063e-7, 0, 1), (3.061408e-7, 0, 1), (3.0614083e-7, 0, 1), (3.0614052e-7, 0, 1), (3.0614115e-7, 0, 1), (3.061409e-7, 0, 1), (0.044107363, 0, 0.99902683), (0.044107363, 0, 0.99902683), (0.044107363, 0, 0.99902683), (0.044107363, 0, 0.99902683), (-0.30901715, -0.9510564, 0), (-0.30901715, -0.9510564, 0), (-0.30901715, -0.9510564, 0), (-0.30901715, -0.9510564, 0), (1, 0, 0), (1, 0, 0), (1, 0, 0), (1, 0, 0), (-0.30901715, 0.9510564, 0), (-0.30901715, 0.9510564, 0), (-0.30901715, 0.9510564, 0), (-0.30901715, 0.9510564, 0), (-0.8090174, -0.58778465, 0), (-0.8090174, -0.58778465, 0), (-0.8090174, -0.58778465, 0), (-0.8090174, -0.58778465, 0), (0.8090164, -0.58778614, 0), (0.8090164, -0.58778614, 0), (0.8090164, -0.58778614, 0), (0.8090164, -0.58778614, 0), (0.30901718, 0.9510565, 0), (0.30901718, 0.9510565, 0), (0.30901718, 0.9510565, 0), (0.30901718, 0.9510565, 0), (-1, 0, 0), (-1, 0, 0), (-1, 0, 0), (-1, 0, 0), (0.30901632, -0.9510568, 0), (0.30901632, -0.9510568, 0), (0.30901632, -0.9510568, 0), (0.30901632, -0.9510568, 0), (0.80901664, 0.5877858, 0), (0.80901664, 0.5877858, 0), (0.80901664, 0.5877858, 0), (0.80901664, 0.5877858, 0), (0.22440514, -0.69064915, 0.68749267), (0.22440514, -0.69064915, 0.68749267), (0.22440514, -0.69064915, 0.68749267), (0.22440514, -0.69064915, 0.68749267), (-0.013629731, 0.041948363, 0.99902683), (-0.013629731, 0.041948363, 0.99902683), (-0.013629731, 0.041948363, 0.99902683), (-0.013629731, 0.041948363, 0.99902683), (-0.03568391, -0.02592551, 0.9990267), (-0.03568391, -0.02592551, 0.9990267), (-0.03568391, -0.02592551, 0.9990267), (-0.03568391, -0.02592551, 0.9990267), (0.035683572, -0.0259255, 0.99902683), (0.035683572, -0.0259255, 0.99902683), (0.035683572, -0.0259255, 0.99902683), (0.035683572, -0.0259255, 0.99902683), (0.013629888, 0.04194836, 0.9990267), (0.013629888, 0.04194836, 0.9990267), (0.013629888, 0.04194836, 0.9990267), (0.013629888, 0.04194836, 0.9990267), (-0.044107024, 0, 0.99902683), (-0.044107024, 0, 0.99902683), (-0.044107024, 0, 0.99902683), (-0.044107024, 0, 0.99902683), (0.01362989, -0.041948367, 0.9990267), (0.01362989, -0.041948367, 0.9990267), (0.01362989, -0.041948367, 0.9990267), (0.01362989, -0.041948367, 0.9990267), (0.035683587, 0.025925506, 0.99902683), (0.035683587, 0.025925506, 0.99902683), (0.035683587, 0.025925506, 0.99902683), (0.035683587, 0.025925506, 0.99902683), (-0.035683885, 0.025925511, 0.9990267), (-0.035683885, 0.025925511, 0.9990267), (-0.035683885, 0.025925511, 0.9990267), (-0.035683885, 0.025925511, 0.9990267), (-0.013629886, -0.041948352, 0.99902683), (-0.013629886, -0.041948352, 0.99902683), (-0.013629886, -0.041948352, 0.99902683), (-0.013629886, -0.041948352, 0.99902683), (-3.7614367e-8, 0, 1), (-3.7614367e-8, 0, 1), (-3.7614367e-8, 0, 1), (-3.7614367e-8, 0, 1), (-3.7614367e-8, 0, 1), (-3.7614367e-8, 0, 1), (-3.7614367e-8, 0, 1), (-3.7614367e-8, 0, 1), (-3.7614367e-8, 0, 1), (-3.7614367e-8, 0, 1), (0.58750224, 0.42684436, 0.6874919), (0.58750224, 0.42684436, 0.6874919), (0.58750224, 0.42684436, 0.6874919), (0.58750224, 0.42684436, 0.6874919), (-0.58750147, 0.42684418, 0.6874926), (-0.58750147, 0.42684418, 0.6874926), (-0.58750147, 0.42684418, 0.6874926), (-0.58750147, 0.42684418, 0.6874926), (-0.22440514, -0.6906489, 0.68749285), (-0.22440514, -0.6906489, 0.68749285), (-0.22440514, -0.6906489, 0.68749285), (-0.22440514, -0.6906489, 0.68749285), (0.7261915, 0, 0.6874925), (0.7261915, 0, 0.6874925), (0.7261915, 0, 0.6874925), (0.7261915, 0, 0.6874925), (-0.22440538, 0.69064903, 0.68749255), (-0.22440538, 0.69064903, 0.68749255), (-0.22440538, 0.69064903, 0.68749255), (-0.22440538, 0.69064903, 0.68749255), (-0.58750135, -0.42684403, 0.6874928), (-0.58750135, -0.42684403, 0.6874928), (-0.58750135, -0.42684403, 0.6874928), (-0.58750135, -0.42684403, 0.6874928), (0.58750135, -0.42684484, 0.6874923), (0.58750135, -0.42684484, 0.6874923), (0.58750135, -0.42684484, 0.6874923), (0.58750135, -0.42684484, 0.6874923), (0.22440535, 0.6906495, 0.68749225), (0.22440535, 0.6906495, 0.68749225), (0.22440535, 0.6906495, 0.68749225), (0.22440535, 0.6906495, 0.68749225), (-0.726191, 0, 0.68749297), (-0.726191, 0, 0.68749297), (-0.726191, 0, 0.68749297), (-0.726191, 0, 0.68749297)] (
                interpolation = "faceVarying"
            )
            point3f[] points = [(0.31189966, 0.16990893, 0.48446172), (0.44230348, 0.39298132, 0.86376464), (0.16991018, 0.31189862, 0.48446172), (0.3929828, 0.44230214, 0.8637645), (0.44774973, 0.2116086, 0.63973796), (0.21161002, 0.44774866, 0.63973796), (0.14940923, 0.29139772, 0.5083386), (0.29139876, 0.14940801, 0.5083386), (0.4272488, 0.19110766, 0.66361487), (0.42688242, 0.37756026, 0.8817251), (0.37756175, 0.42688107, 0.8817251), (0.1911091, 0.42724773, 0.66361487), (0.100402795, 0.34068963, 0.48446167), (0.034876067, 0.5906351, 0.8637644), (-0.100400835, 0.34068966, 0.48446167), (-0.03487397, 0.5906351, 0.8637645), (0.16697715, 0.46623635, 0.63973796), (-0.16697511, 0.46623644, 0.63973796), (-0.100400835, 0.31169698, 0.5083386), (0.10040281, 0.31169695, 0.5083386), (0.16697708, 0.43724358, 0.66361475), (0.034876045, 0.56882644, 0.88172495), (-0.034874003, 0.56882644, 0.88172495), (-0.16697517, 0.43724376, 0.66361475), (-0.16990815, 0.31189877, 0.48446167), (-0.39298066, 0.4423026, 0.8637645), (-0.3118978, 0.16990922, 0.48446167), (-0.44230145, 0.3929819, 0.8637645), (-0.21160784, 0.44774887, 0.63973796), (-0.44774786, 0.21160899, 0.63973796), (-0.29139686, 0.1494083, 0.5083386), (-0.14940716, 0.29139796, 0.5083386), (-0.19110696, 0.42724794, 0.66361475), (-0.37755966, 0.42688143, 0.88172495), (-0.42688036, 0.37756085, 0.8817251), (-0.42724696, 0.19110806, 0.66361487), (-0.34068865, 0.100401916, 0.48446172), (-0.59063405, 0.0348753, 0.86376464), (-0.34068874, -0.10040172, 0.48446172), (-0.59063417, -0.034874827, 0.86376464), (-0.46623528, 0.16697629, 0.63973796), (-0.46623534, -0.166976, 0.63973796), (-0.31169602, -0.10040169, 0.5083387), (-0.31169587, 0.10040195, 0.5083386), (-0.43724254, 0.16697632, 0.66361487), (-0.5688253, 0.034875337, 0.8817251), (-0.5688254, -0.034874827, 0.8817251), (-0.43724266, -0.166976, 0.66361487), (-0.3118978, -0.16990899, 0.48446172), (-0.4423016, -0.39298153, 0.86376464), (-0.16990818, -0.3118986, 0.48446172), (-0.39298084, -0.44230226, 0.86376464), (-0.44774786, -0.21160874, 0.6397381), (-0.21160796, -0.4477487, 0.6397381), (-0.14940728, -0.2913977, 0.5083387), (-0.2913969, -0.14940804, 0.5083386), (-0.42724696, -0.19110778, 0.66361487), (-0.42688048, -0.37756038, 0.8817251), (-0.37755978, -0.42688116, 0.8817251), (-0.19110702, -0.4272477, 0.66361487), (-0.10040098, -0.34068945, 0.48446172), (-0.03487422, -0.59063494, 0.86376464), (0.10040266, -0.34068945, 0.4844618), (0.034875724, -0.590635, 0.86376464), (-0.16697533, -0.4662361, 0.63973796), (0.16697697, -0.46623617, 0.6397381), (0.10040263, -0.3116968, 0.50833875), (-0.10040102, -0.3116968, 0.5083387), (-0.16697535, -0.43724346, 0.663615), (-0.034874257, -0.56882626, 0.8817253), (0.0348758, -0.56882626, 0.8817251), (0.1669769, -0.43724346, 0.66361487), (0.1699099, -0.31189865, 0.48446172), (0.39298242, -0.44230226, 0.86376464), (0.31189954, -0.16990894, 0.48446172), (0.44230315, -0.39298156, 0.86376464), (0.2116097, -0.4477487, 0.63973796), (0.44774958, -0.21160868, 0.63973796), (0.2913986, -0.14940801, 0.5083386), (0.149409, -0.29139766, 0.5083386), (0.1911087, -0.42724773, 0.66361475), (0.3775613, -0.4268812, 0.8817253), (0.42688206, -0.37756053, 0.8817251), (0.4272486, -0.19110772, 0.66361487), (0.34069034, -0.100401655, 0.48446172), (0.59063584, -0.03487486, 0.86376464), (0.3406904, 0.100402035, 0.48446172), (0.5906358, 0.034875102, 0.8637644), (0.46623698, -0.166976, 0.63973796), (0.46623698, 0.16697629, 0.63973784), (0.31169766, 0.100401975, 0.5083386), (0.31169763, -0.10040168, 0.5083386), (0.43724427, -0.16697595, 0.66361487), (0.56882703, -0.03487484, 0.8817251), (0.5688271, 0.034875154, 0.88172495), (0.43724436, 0.16697636, 0.66361487), (0.32366547, 0.034473374, 0.4332179), (0.54243046, 0.18805312, 0.8839395), (0.253243, 0.20448877, 0.4332179), (0.51653063, 0.25058112, 0.8839395), (0.45331052, 0.022136232, 0.69123876), (0.33619237, 0.3048852, 0.69123876), (0.22869559, 0.1943209, 0.47289377), (0.29911813, 0.02430554, 0.47289377), (0.42876327, 0.011968415, 0.7309146), (0.52287984, 0.17995504, 0.90038395), (0.49698004, 0.24248303, 0.90038395), (0.311645, 0.2947174, 0.7309146), (0.20448992, 0.25324193, 0.4332177), (0.2505828, 0.5165293, 0.8839395), (0.034474675, 0.32366464, 0.43321767), (0.18805507, 0.5424293, 0.8839395), (0.3048866, 0.33619118, 0.69123864), (0.02213772, 0.45330974, 0.6912385), (0.024306845, 0.29911724, 0.4728937), (0.19432212, 0.2286946, 0.4728936), (0.29471862, 0.31164378, 0.73091435), (0.24248466, 0.49697873, 0.9003836), (0.17995691, 0.5228787, 0.90038383), (0.011969893, 0.4287624, 0.7309145), (-0.03447245, 0.32366464, 0.43321767), (-0.18805194, 0.5424293, 0.8839395), (-0.2044878, 0.2532421, 0.4332176), (-0.25057986, 0.5165295, 0.8839395), (-0.02213529, 0.4533097, 0.6912384), (-0.30488428, 0.33619136, 0.6912384), (-0.19431987, 0.2286947, 0.4728936), (-0.024304574, 0.29911724, 0.4728937), (-0.011967357, 0.42876235, 0.7309145), (-0.17995398, 0.5228787, 0.9003836), (-0.24248178, 0.49697894, 0.9003836), (-0.29471633, 0.311644, 0.7309145), (-0.2532407, 0.20448905, 0.43321767), (-0.51652765, 0.2505818, 0.8839394), (-0.3236635, 0.03447378, 0.4332177), (-0.54242784, 0.18805389, 0.8839394), (-0.33619, 0.30488566, 0.6912384), (-0.45330834, 0.022136811, 0.69123816), (-0.2991161, 0.02430592, 0.47289377), (-0.22869338, 0.19432122, 0.4728936), (-0.31164253, 0.29471785, 0.73091435), (-0.4969771, 0.24248375, 0.9003836), (-0.52287716, 0.17995578, 0.9003836), (-0.428761, 0.01196895, 0.73091435), (-0.32366338, -0.034473322, 0.4332177), (-0.5424279, -0.18805309, 0.8839394), (-0.25324076, -0.2044887, 0.4332178), (-0.51652795, -0.250581, 0.8839394), (-0.4533084, -0.022136215, 0.69123864), (-0.33619007, -0.30488518, 0.6912385), (-0.2286934, -0.19432084, 0.4728937), (-0.29911608, -0.0243055, 0.4728937), (-0.428761, -0.011968354, 0.73091435), (-0.5228773, -0.17995495, 0.9003836), (-0.49697742, -0.24248286, 0.9003836), (-0.31164256, -0.29471722, 0.73091424), (-0.20448785, -0.25324163, 0.4332178), (-0.25058025, -0.51652884, 0.8839395), (-0.034472577, -0.32366437, 0.4332178), (-0.18805255, -0.54242885, 0.8839394), (-0.3048842, -0.33619085, 0.6912384), (-0.022135539, -0.45330942, 0.69123864), (-0.024304718, -0.29911703, 0.4728938), (-0.19432007, -0.22869429, 0.47289377), (-0.29471657, -0.31164354, 0.7309146), (-0.24248217, -0.49697828, 0.9003836), (-0.1799543, -0.5228783, 0.9003836), (-0.011967606, -0.428762, 0.7309145), (0.034474548, -0.32366437, 0.4332177), (0.18805453, -0.54242873, 0.8839395), (0.20448983, -0.25324163, 0.4332178), (0.2505824, -0.5165289, 0.8839395), (0.022137506, -0.45330942, 0.6912385), (0.30488637, -0.33619097, 0.6912385), (0.19432198, -0.22869429, 0.4728937), (0.02430665, -0.29911703, 0.4728936), (0.011969608, -0.428762, 0.73091435), (0.17995645, -0.52287817, 0.90038383), (0.24248436, -0.49697834, 0.9003836), (0.29471853, -0.31164363, 0.7309145), (0.2532428, -0.2044887, 0.4332178), (0.51653033, -0.25058112, 0.8839395), (0.32366547, -0.034473367, 0.4332178), (0.54243, -0.18805322, 0.8839394), (0.33619204, -0.30488524, 0.6912384), (0.4533106, -0.022136323, 0.69123864), (0.29911807, -0.024305541, 0.4728937), (0.2286954, -0.19432087, 0.4728936), (0.31164473, -0.2947173, 0.7309145), (0.49697965, -0.24248298, 0.9003836), (0.5228796, -0.17995512, 0.9003836), (0.4287632, -0.011968469, 0.7309145), (-0.22018749, 0.30306363, 0.4309297), (-0.3562716, 0.11576007, 0.4309297), (-0.3562716, -0.11575995, 0.4309297), (-0.22018759, -0.30306345, 0.4309297), (9.1371214e-7, -0.37460706, 0.4309297), (0.22018945, -0.30306345, 0.4309297), (0.3562734, -0.11575992, 0.4309297), (0.3562734, 0.11576, 0.4309297), (9.464614e-7, 0.37460712, 0.4309297), (0.2201895, 0.30306354, 0.4309297), (-0.22018749, 0.30306363, 0.305254), (-0.3562716, 0.11576007, 0.305254), (-0.3562716, -0.11575995, 0.305254), (-0.22018759, -0.30306345, 0.305254), (9.1371214e-7, -0.37460706, 0.305254), (0.22018945, -0.30306345, 0.305254), (9.4836446e-7, 0.5243362, -0.0041480064), (9.4836446e-7, 0.5243362, 0.155447), (0.262169, 0.4540884, -0.0041480064), (0.262169, 0.4540884, 0.155447), (0.45408928, 0.26216817, -0.0041480064), (0.45408928, 0.26216814, 0.155447), (0.52433705, 5.828933e-8, -0.0041480064), (0.52433705, 5.8289334e-8, 0.155447), (0.45408925, -0.262168, -0.0041480064), (0.45408925, -0.262168, 0.155447), (0.26216903, -0.4540882, -0.0041480064), (0.26216903, -0.45408824, 0.155447), (0.000001027537, -0.5243359, -0.0041480064), (0.000001027537, -0.5243359, 0.155447), (-0.26216698, -0.45408833, -0.0041480064), (-0.26216698, -0.45408836, 0.155447), (-0.4540873, -0.2621681, -0.0041480064), (-0.4540873, -0.26216814, 0.155447), (-0.52433515, -1.6256148e-7, -0.0041480064), (-0.52433515, -1.6256148e-7, 0.155447), (-0.4540876, 0.2621678, -0.0041480064), (-0.4540876, 0.2621678, 0.155447), (-0.26216742, 0.45408827, -0.0041480064), (-0.26216742, 0.45408824, 0.155447), (-0.0404827, 0.6028949, -0.0041480064), (-0.0404827, 0.6028949, 0.059052557), (0.3365082, 0.5018805, 0.059052557), (0.3365082, 0.5018805, -0.0041480064), (0.5018815, 0.33650732, -0.0041480064), (0.5018815, 0.3365073, 0.059052557), (0.60289574, -0.040483568, 0.059052557), (0.60289574, -0.040483568, -0.0041480064), (0.542365, -0.26638758, -0.0041480064), (0.542365, -0.26638758, 0.059052557), (0.2663886, -0.542364, 0.059052557), (0.2663886, -0.542364, -0.0041480064), (0.040484633, -0.6028948, -0.0041480064), (0.040484633, -0.6028948, 0.059052557), (-0.3365062, -0.5018805, 0.059052557), (-0.3365062, -0.5018805, -0.0041480064), (-0.5018794, -0.33650732, -0.0041480064), (-0.5018794, -0.33650732, 0.059052557), (-0.6028939, 0.04048339, 0.059052557), (-0.6028939, 0.04048339, -0.0041480064), (-0.5423632, 0.2663874, -0.0041480064), (-0.5423632, 0.26638737, 0.059052557), (-0.266387, 0.542364, 0.059052557), (-0.266387, 0.542364, -0.0041480064), (0.3562734, -0.11575992, 0.305254), (0.3562734, 0.11576, 0.305254), (9.464614e-7, 0.37460712, 0.305254), (0.2201895, 0.30306354, 0.305254), (-0.1254908, 0.17272474, 0.305254), (-0.20304905, 0.065975025, 0.305254), (-0.20304905, -0.06597492, 0.305254), (-0.12549087, -0.17272457, 0.305254), (9.2677794e-7, -0.21349932, 0.305254), (0.12549272, -0.1727246, 0.305254), (0.20305093, -0.06597489, 0.305254), (0.20305093, 0.06597499, 0.305254), (9.454427e-7, 0.21349946, 0.305254), (0.12549275, 0.1727247, 0.305254), (-0.1254908, 0.17272474, 0.25520316), (-0.20304905, 0.065975025, 0.25520316), (-0.20304905, -0.06597492, 0.25520316), (-0.12549087, -0.17272457, 0.25520316), (9.2677794e-7, -0.21349932, 0.25520316), (0.12549272, -0.1727246, 0.25520316), (0.20305093, -0.06597489, 0.25520316), (0.20305093, 0.06597499, 0.25520316), (9.454427e-7, 0.21349946, 0.25520316), (0.12549275, 0.1727247, 0.25520316), (-0.21659298, 0.2981163, 0.25520316), (-0.35045558, 0.113870315, 0.25520316), (-0.35045558, -0.11387021, 0.25520316), (-0.21659312, -0.29811603, 0.25520316), (9.142081e-7, -0.36849174, 0.25520316), (0.21659495, -0.29811606, 0.25520316), (0.35045743, -0.11387018, 0.25520316), (0.35045743, 0.11387027, 0.25520316), (9.4642263e-7, 0.36849183, 0.25520316), (0.21659501, 0.2981162, 0.25520316), (-0.2315363, 0.31868392, 0.20712963), (-0.37463433, 0.12172648, 0.20712963), (-0.37463433, -0.12172636, 0.20712963), (-0.23153642, -0.31868377, 0.20712963), (9.1214633e-7, -0.39391482, 0.20712963), (0.23153825, -0.31868377, 0.20712963), (0.3746362, -0.12172635, 0.20712963), (0.3746362, 0.12172643, 0.20712963), (9.465834e-7, 0.3939149, 0.20712963), (0.2315383, 0.3186839, 0.20712963), (-0.2951304, 0.40621388, 0.18063742), (-0.28977072, 0.39883682, 0.13852727), (-0.47753182, 0.15515995, 0.18063742), (-0.46885964, 0.15234214, 0.13852727), (-0.47753182, -0.1551598, 0.18063742), (-0.46885964, -0.15234205, 0.13852727), (-0.29513058, -0.4062136, 0.18063742), (-0.2897709, -0.39883658, 0.13852727), (8.994633e-7, -0.5021077, 0.18063742), (9.0053226e-7, -0.4929891, 0.13852727), (0.2951324, -0.40621367, 0.18063742), (0.28977266, -0.39883664, 0.13852727), (0.47753382, -0.1551598, 0.18063742), (0.4688616, -0.15234202, 0.13852727), (0.47753382, 0.15515988, 0.18063742), (0.4688616, 0.15234208, 0.13852727), (0.2951325, 0.40621373, 0.18063742), (0.2897727, 0.3988367, 0.13852727), (9.4335905e-7, 0.50210774, 0.18063742), (9.4363077e-7, 0.49298927, 0.13852727), (0.26722974, 0.36780885, 0.4340811), (9.4696736e-7, 0.45463672, 0.4340811), (0.4323861, 0.1404905, 0.4340811), (0.4323861, -0.14049041, 0.4340811), (0.26722965, -0.36780876, 0.4340811), (9.0722176e-7, -0.45463663, 0.4340811), (-0.26722786, -0.36780876, 0.4340811), (-0.4323842, -0.14049049, 0.4340811), (-0.4323842, 0.14049059, 0.4340811), (-0.26722762, 0.367809, 0.4340811), (0.26722974, 0.36780885, 0.5649011), (9.4696736e-7, 0.45463672, 0.5649011), (0.4323861, 0.1404905, 0.5649011), (0.4323861, -0.14049041, 0.5649011), (0.26722965, -0.36780876, 0.5649011), (9.0722176e-7, -0.45463663, 0.5649011), (-0.26722786, -0.36780876, 0.5649011), (-0.4323842, -0.14049049, 0.5649011), (-0.4323842, 0.14049059, 0.5649011), (-0.26722762, 0.367809, 0.5649011), (0.23897, 0.32891273, 0.5649011), (9.4666336e-7, 0.40655848, 0.5649011), (0.38666093, 0.12563351, 0.5649011), (0.38666093, -0.12563342, 0.5649011), (0.23896997, -0.32891265, 0.5649011), (9.111209e-7, -0.40655836, 0.5649011), (-0.23896813, -0.32891265, 0.5649011), (-0.3866591, -0.12563348, 0.5649011), (-0.3866591, 0.12563357, 0.5649011), (-0.238968, 0.32891282, 0.5649011), (0.23897, 0.32891273, 0.55127335), (9.4666336e-7, 0.40655848, 0.55127335), (0.38666093, 0.12563351, 0.55127335), (0.38666093, -0.12563342, 0.55127335), (0.23896997, -0.32891265, 0.55127335), (9.111209e-7, -0.40655836, 0.55127335), (-0.23896813, -0.32891265, 0.55127335), (-0.3866591, -0.12563348, 0.55127335), (-0.3866591, 0.12563357, 0.55127335), (-0.238968, 0.32891282, 0.55127335), (0.17512119, 0.24103238, 0.5558345), (9.5141644e-7, 0.29793236, 0.5558345), (0.28335133, 0.09206619, 0.5558345), (0.28335133, -0.09206608, 0.5558345), (0.17512114, -0.24103226, 0.5558345), (9.253702e-7, -0.29793224, 0.5558345), (-0.1751193, -0.24103226, 0.5558345), (-0.2833495, -0.09206613, 0.5558345), (-0.2833495, 0.09206625, 0.5558345), (-0.17511916, 0.24103244, 0.5558345), (0.15259673, 0.21003017, 0.5173377), (9.2585486e-7, 0.25961152, 0.5173377), (0.24690598, 0.0802244, 0.5173377), (0.24690598, -0.08022429, 0.5173377), (0.15259673, -0.21003006, 0.5173377), (9.0315893e-7, -0.2596114, 0.5173377), (-0.15259488, -0.21003006, 0.5173377), (-0.24690424, -0.08022432, 0.5173377), (-0.24690424, 0.08022446, 0.5173377), (-0.15259477, 0.2100302, 0.5173377)]
            uniform token subdivisionScheme = "none"
            uniform token subsetFamily:materialBind:familyType = "nonOverlapping"
            custom string userProperties:blender:data_name = "Cylinder.011"

            def GeomSubset "Main" (
                prepend apiSchemas = ["MaterialBindingAPI"]
            )
            {
                uniform token elementType = "face"
                uniform token familyName = "materialBind"
                int[] indices = [169, 176, 177, 178, 179, 180, 181, 182, 183, 184, 185, 186, 187, 188, 189, 190, 191, 192, 193, 194, 195, 196, 197, 198, 199, 200, 201, 202, 203, 204, 205, 206, 207, 208, 209, 210, 211, 212, 213, 214, 215, 216, 217, 218, 223, 224, 225, 227, 265, 270, 271, 272, 273, 274, 275, 276, 277, 278, 279, 280, 281, 282, 283, 284, 285, 286, 287, 288, 289, 291, 292, 293, 294, 295, 296, 297, 298, 299, 300, 310, 311, 312, 313, 314, 315, 316, 317, 318, 319, 321, 322, 323, 324, 325, 326, 327, 328, 329]
                rel material:binding = </root/_materials/Main>
            }

            def GeomSubset "DarkGrey" (
                prepend apiSchemas = ["MaterialBindingAPI"]
            )
            {
                uniform token elementType = "face"
                uniform token familyName = "materialBind"
                int[] indices = [0, 1, 2, 3, 4, 5, 6, 7, 8, 9, 10, 11, 12, 13, 14, 15, 16, 17, 18, 19, 20, 21, 22, 23, 24, 25, 26, 27, 28, 29, 30, 31, 32, 33, 34, 35, 36, 37, 38, 39, 40, 41, 42, 43, 44, 45, 46, 47, 48, 49, 50, 51, 52, 53, 54, 55, 56, 57, 58, 59, 60, 61, 62, 63, 64, 65, 66, 67, 68, 69, 70, 71, 72, 73, 74, 75, 76, 77, 78, 79, 160, 161, 162, 163, 164, 165, 166, 167, 168, 170, 171, 172, 173, 174, 175, 222, 240, 241, 244, 245, 246, 247, 248, 249, 250, 252, 253, 254, 255, 257, 258, 259, 260, 261, 262, 263, 264, 266, 267, 268, 269, 290, 301, 302, 303, 304, 305, 306, 307, 308, 309, 320]
                rel material:binding = </root/_materials/DarkGrey>
            }

            def GeomSubset "Accent" (
                prepend apiSchemas = ["MaterialBindingAPI"]
            )
            {
                uniform token elementType = "face"
                uniform token familyName = "materialBind"
                int[] indices = [80, 81, 82, 83, 84, 85, 86, 87, 88, 89, 90, 91, 92, 93, 94, 95, 96, 97, 98, 99, 100, 101, 102, 103, 104, 105, 106, 107, 108, 109, 110, 111, 112, 113, 114, 115, 116, 117, 118, 119, 120, 121, 122, 123, 124, 125, 126, 127, 128, 129, 130, 131, 132, 133, 134, 135, 136, 137, 138, 139, 140, 141, 142, 143, 144, 145, 146, 147, 148, 149, 150, 151, 152, 153, 154, 155, 156, 157, 158, 159, 219, 220, 221, 226, 228, 229, 230, 231, 232, 233, 234, 235, 236, 237, 238, 239, 242, 243, 251, 256]
                rel material:binding = </root/_materials/Accent>
            }
        }
    }

    def Scope "_materials"
    {
        def Material "Main"
        {
            token outputs:surface.connect = </root/_materials/Main/Principled_BSDF.outputs:surface>
            custom string userProperties:blender:data_name = "Main"

            def Shader "Principled_BSDF"
            {
                uniform token info:id = "UsdPreviewSurface"
                float inputs:clearcoat = 0
                float inputs:clearcoatRoughness = 0.03
                color3f inputs:diffuseColor = (0.40196332, 0.40196332, 0.40196332)
                float inputs:ior = 1.5
                float inputs:metallic = 0
                float inputs:opacity = 1
                float inputs:roughness = 0.6900348
                float inputs:specular = 0.5
                token outputs:surface
            }
        }

        def Material "DarkGrey"
        {
            token outputs:surface.connect = </root/_materials/DarkGrey/Principled_BSDF.outputs:surface>
            custom string userProperties:blender:data_name = "DarkGrey"

            def Shader "Principled_BSDF"
            {
                uniform token info:id = "UsdPreviewSurface"
                float inputs:clearcoat = 0
                float inputs:clearcoatRoughness = 0.03
                color3f inputs:diffuseColor = (0.23954731, 0.23954731, 0.23954731)
                float inputs:ior = 1.5
                float inputs:metallic = 0
                float inputs:opacity = 1
                float inputs:roughness = 0.6900348
                float inputs:specular = 0.5
                token outputs:surface
            }
        }

        def Material "Accent"
        {
            token outputs:surface.connect = </root/_materials/Accent/Principled_BSDF.outputs:surface>
            custom string userProperties:blender:data_name = "Accent"

            def Shader "Principled_BSDF"
            {
                uniform token info:id = "UsdPreviewSurface"
                float inputs:clearcoat = 0
                float inputs:clearcoatRoughness = 0.03
                color3f inputs:diffuseColor = (0.5595926, 0.29767245, 0.06678983)
                float inputs:ior = 1.5
                float inputs:metallic = 0
                float inputs:opacity = 1
                float inputs:roughness = 0.6900348
                float inputs:specular = 0.5
                token outputs:surface
            }
        }
    }
}

