#usda 1.0
(
    defaultPrim = "root"
    doc = "Blender v5.1.2"
    metersPerUnit = 1
    upAxis = "Y"
)

def Xform "root" (
    customData = {
        dictionary Blender = {
            bool generated = 1
        }
    }
)
{
    float3 xformOp:rotateXYZ = (-90, -0, 0)
    uniform token[] xformOpOrder = ["xformOp:rotateXYZ"]

    def Xform "Crystal5"
    {
        custom string userProperties:blender:object_name = "Crystal5"

        def Mesh "Cylinder_004" (
            active = true
            prepend apiSchemas = ["MaterialBindingAPI"]
        )
        {
            uniform bool doubleSided = 1
            float3[] extent = [(-0.31458026, -0.28229302, -0.2169453), (0.3145803, 0.28229296, 0.21388665)]
            int[] faceVertexCounts = [4, 4, 4, 4, 6, 4, 4, 3, 3, 3, 3, 3, 3]
            int[] faceVertexIndices = [0, 1, 3, 2, 2, 3, 5, 4, 4, 5, 7, 6, 6, 7, 9, 8, 3, 1, 11, 9, 7, 5, 8, 9, 11, 10, 10, 11, 1, 0, 2, 4, 12, 8, 10, 12, 0, 2, 12, 4, 6, 12, 10, 0, 12, 6, 8, 12]
            rel material:binding = </root/_materials/Cyan>
            normal3f[] normals = [(0.7531972, 0.39923826, 0.5227837), (0.7531972, 0.39923826, 0.5227837), (0.7531972, 0.39923826, 0.5227837), (0.7531972, 0.39923826, 0.5227837), (0.6942528, -0.47133794, 0.54392415), (0.6942528, -0.47133794, 0.54392415), (0.6942528, -0.47133794, 0.54392415), (0.6942528, -0.47133794, 0.54392415), (-0.06760296, -0.85671175, 0.51134616), (-0.06760296, -0.85671175, 0.51134616), (-0.06760296, -0.85671175, 0.51134616), (-0.06760296, -0.85671175, 0.51134616), (-0.7633872, -0.3946711, 0.511346), (-0.7633872, -0.3946711, 0.511346), (-0.7633872, -0.3946711, 0.511346), (-0.7633872, -0.3946711, 0.511346), (1.4943028e-8, 0, 1), (1.4943028e-8, 0, 1), (1.4943028e-8, 0, 1), (1.4943028e-8, 0, 1), (1.4943028e-8, 0, 1), (1.4943028e-8, 0, 1), (-0.70559597, 0.46855614, 0.53159153), (-0.70559597, 0.46855614, 0.53159153), (-0.70559597, 0.46855614, 0.53159153), (-0.70559597, 0.46855614, 0.53159153), (0.06765669, 0.85675275, 0.51127046), (0.06765669, 0.85675275, 0.51127046), (0.06765669, 0.85675275, 0.51127046), (0.06765669, 0.85675275, 0.51127046), (0.62817097, -0.39560786, -0.6699968), (0.62817097, -0.39560786, -0.6699968), (0.62817097, -0.39560786, -0.6699968), (-0.61442703, 0.4080147, -0.6752802), (-0.61442703, 0.4080147, -0.6752802), (-0.61442703, 0.4080147, -0.6752802), (0.6786547, 0.28183866, -0.6782293), (0.6786547, 0.28183866, -0.6782293), (0.6786547, 0.28183866, -0.6782293), (-0.014189819, -0.7293975, -0.683943), (-0.014189819, -0.7293975, -0.683943), (-0.014189819, -0.7293975, -0.683943), (0.014065276, 0.7293697, -0.6839752), (0.014065276, 0.7293697, -0.6839752), (0.014065276, 0.7293697, -0.6839752), (-0.6667659, -0.29604942, -0.683943), (-0.6667659, -0.29604942, -0.683943), (-0.6667659, -0.29604942, -0.683943)] (
                interpolation = "faceVarying"
            )
            point3f[] points = [(0.17436552, 0.26257604, 0.06664325), (0.12117068, 0.18247023, 0.21388665), (0.3145803, -0.019716978, 0.08963888), (0.21860921, -0.013701789, 0.21388665), (0.14021474, -0.28229302, 0.08119972), (0.097438514, -0.196172, 0.21388665), (-0.17436555, -0.262576, 0.066698946), (-0.12117069, -0.18247022, 0.21388665), (-0.31458026, 0.019716993, 0.08119972), (-0.21860921, 0.0137017965, 0.21388665), (-0.14021479, 0.28229296, 0.08119972), (-0.097438544, 0.196172, 0.21388665), (-6.9490835e-9, 8.5587293e-10, -0.2169453)]
            uniform token subdivisionScheme = "none"
            custom string userProperties:blender:data_name = "Cylinder.004"
        }
    }

    def Scope "_materials"
    {
        def Material "Cyan"
        {
            token outputs:surface.connect = </root/_materials/Cyan/Principled_BSDF.outputs:surface>
            custom string userProperties:blender:data_name = "Cyan"

            def Shader "Principled_BSDF"
            {
                uniform token info:id = "UsdPreviewSurface"
                float inputs:clearcoat = 0
                float inputs:clearcoatRoughness = 0.03
                color3f inputs:diffuseColor = (0.15355077, 0.8000001, 0.5667157)
                float inputs:ior = 1.5
                float inputs:metallic = 0
                float inputs:opacity = 1
                float inputs:roughness = 0.6900348
                float inputs:specular = 0.5
                token outputs:surface
            }
        }
    }
}

