#usda 1.0
(
    defaultPrim = "root"
    doc = "Blender v5.1.2"
    metersPerUnit = 1
    upAxis = "Y"
)

def Xform "root" (
    customData = {
        dictionary Blender = {
            bool generated = 1
        }
    }
)
{
    float3 xformOp:rotateXYZ = (-90, -0, 0)
    uniform token[] xformOpOrder = ["xformOp:rotateXYZ"]

    def Xform "Heart_Broken"
    {
        custom string userProperties:blender:object_name = "Heart_Broken"

        def Mesh "Cube_002" (
            active = true
            prepend apiSchemas = ["MaterialBindingAPI"]
        )
        {
            uniform bool doubleSided = 1
            float3[] extent = [(-0.41884482, -0.19637433, -0.305742), (0.41884482, 0.19637433, 0.3464512)]
            int[] faceVertexCounts = [4, 4, 4, 4, 4, 4, 4, 4, 4, 4, 4, 4, 4, 4, 4, 4, 4, 4, 4, 4, 4, 4, 4, 4, 4, 4, 4, 4, 4, 4, 4, 4, 4, 4, 4, 4, 4, 4, 4, 4, 4, 4, 4, 4, 4, 4, 4, 4, 4, 4, 4, 4, 4, 4, 4, 4, 4, 4, 4, 4, 4, 4, 4, 4, 4, 4, 4, 4, 4, 4, 4, 4, 4, 4, 4, 4, 4, 4, 4, 4, 4, 4, 4, 4, 4, 4, 4, 4, 4, 4, 4, 4, 4, 4, 4, 4, 4, 4, 4, 4, 4, 4, 4, 4, 4, 4, 4, 4, 4, 4, 4, 4, 4, 4, 4, 4, 4, 4, 4, 4, 4, 4, 4, 4, 4, 4, 4, 4, 4, 4, 4, 4, 4, 4, 4, 4, 4, 4, 4, 4, 4, 4, 4, 4, 4, 4, 4, 3, 4, 4, 4, 4, 4, 4, 4, 4, 3, 4, 4, 3, 4, 4, 4, 4, 4, 4, 4, 3, 4, 4, 4, 4, 4, 4, 4, 4, 4, 4, 4, 4, 4, 4, 4, 4, 4, 4, 4, 4, 4, 4, 4, 4, 4, 4, 4, 4, 4, 4, 4, 4, 4, 4, 4, 4, 4, 4, 4, 4, 4, 4, 4, 4, 4, 4, 4, 4, 4, 4, 4, 4, 4, 4, 4, 4, 4, 4, 4, 4, 4, 4, 4, 4, 4, 4, 4, 4, 4, 4, 4, 4, 4, 4, 4, 4, 4, 4, 4, 4, 4, 4, 4, 4, 4, 4, 4, 4, 4, 4, 4, 4, 4, 4, 4, 4, 4, 4, 4, 4, 4, 4, 4, 4, 4, 4, 4, 4, 4, 4, 4, 4, 4, 4, 4, 4, 4, 4, 4, 4, 4, 4, 4, 4, 4, 4, 4, 4, 4, 4, 4, 4, 4, 4, 4, 4, 4, 4, 4, 4, 4, 4, 4, 4, 4, 4, 4, 3, 4, 4, 4, 4, 4, 4, 4, 4, 3, 4, 4, 3, 4, 4, 4, 4, 4, 4, 4, 3]
            int[] faceVertexIndices = [0, 3, 4, 1, 1, 4, 144, 143, 3, 110, 111, 4, 4, 111, 151, 144, 0, 1, 5, 2, 2, 5, 82, 83, 1, 143, 142, 5, 5, 142, 155, 82, 0, 2, 6, 3, 3, 6, 109, 110, 2, 83, 84, 6, 6, 84, 146, 109, 7, 11, 12, 8, 8, 12, 111, 110, 11, 122, 121, 12, 12, 121, 151, 111, 7, 8, 13, 9, 9, 13, 85, 86, 8, 110, 109, 13, 13, 109, 146, 85, 7, 9, 14, 10, 10, 14, 112, 113, 9, 86, 87, 14, 14, 87, 145, 112, 7, 10, 15, 11, 11, 15, 123, 122, 10, 113, 114, 15, 15, 114, 152, 123, 16, 20, 21, 17, 17, 21, 126, 125, 20, 134, 133, 21, 21, 133, 155, 126, 16, 17, 22, 18, 18, 22, 97, 98, 17, 125, 124, 22, 22, 124, 148, 97, 16, 18, 23, 19, 19, 23, 96, 95, 18, 98, 99, 23, 23, 99, 150, 96, 16, 19, 24, 20, 20, 24, 135, 134, 19, 95, 94, 24, 24, 94, 156, 135, 25, 29, 30, 26, 26, 30, 132, 131, 29, 137, 136, 30, 30, 136, 152, 132, 25, 26, 31, 27, 27, 31, 94, 95, 26, 131, 130, 31, 31, 130, 156, 94, 25, 27, 32, 28, 28, 32, 115, 116, 27, 95, 96, 32, 32, 96, 150, 115, 25, 28, 33, 29, 29, 33, 138, 137, 28, 116, 117, 33, 33, 117, 153, 138, 34, 37, 38, 35, 35, 38, 136, 137, 37, 89, 90, 38, 38, 90, 152, 136, 34, 35, 39, 36, 36, 39, 103, 104, 35, 137, 138, 39, 39, 138, 153, 103, 34, 36, 40, 37, 37, 40, 88, 89, 36, 104, 105, 40, 40, 105, 149, 88, 41, 44, 45, 42, 42, 45, 108, 107, 44, 92, 93, 45, 45, 93, 147, 108, 41, 42, 46, 43, 43, 46, 139, 140, 42, 107, 106, 46, 46, 106, 154, 139, 41, 43, 47, 44, 44, 47, 91, 92, 43, 140, 141, 47, 47, 141, 151, 91, 48, 52, 53, 49, 49, 53, 93, 92, 52, 101, 100, 53, 53, 100, 147, 93, 48, 49, 54, 50, 50, 54, 121, 122, 49, 92, 91, 54, 54, 91, 151, 121, 48, 50, 55, 51, 51, 55, 90, 89, 50, 122, 123, 55, 55, 123, 152, 90, 48, 51, 56, 52, 52, 56, 102, 101, 51, 89, 88, 56, 56, 88, 149, 102, 57, 60, 61, 58, 58, 61, 114, 113, 60, 131, 132, 61, 61, 132, 152, 114, 57, 58, 62, 59, 59, 62, 127, 128, 58, 113, 112, 62, 62, 112, 145, 127, 57, 59, 63, 60, 60, 63, 130, 131, 59, 128, 129, 63, 63, 129, 156, 130, 64, 68, 69, 65, 65, 69, 84, 83, 68, 86, 85, 69, 69, 85, 146, 84, 64, 65, 70, 66, 66, 70, 133, 134, 65, 83, 82, 70, 70, 82, 155, 133, 64, 66, 71, 67, 67, 71, 129, 128, 66, 134, 135, 71, 71, 135, 156, 129, 64, 67, 72, 68, 68, 72, 87, 86, 67, 128, 127, 72, 72, 127, 145, 87, 73, 77, 78, 74, 74, 78, 120, 119, 77, 140, 139, 78, 78, 139, 154, 120, 73, 74, 79, 75, 75, 79, 124, 125, 74, 119, 118, 79, 79, 118, 148, 124, 73, 75, 80, 76, 76, 80, 142, 143, 75, 125, 126, 80, 80, 126, 155, 142, 73, 76, 81, 77, 77, 81, 141, 140, 76, 143, 144, 81, 81, 144, 151, 141, 120, 154, 167, 164, 104, 103, 159, 160, 115, 150, 166, 162, 99, 98, 157, 105, 104, 160, 161, 116, 115, 162, 163, 150, 99, 157, 166, 149, 105, 161, 165, 117, 116, 163, 164, 147, 100, 158, 165, 154, 106, 159, 167, 153, 117, 164, 167, 100, 101, 158, 106, 107, 160, 159, 148, 118, 162, 166, 101, 102, 158, 107, 108, 161, 160, 118, 119, 163, 162, 102, 149, 165, 158, 97, 148, 166, 157, 108, 147, 165, 161, 119, 120, 164, 163, 103, 153, 167, 159, 98, 97, 157, 168, 169, 172, 171, 169, 311, 312, 172, 171, 172, 279, 278, 172, 312, 319, 279, 168, 170, 173, 169, 170, 251, 250, 173, 169, 173, 310, 311, 173, 250, 323, 310, 168, 171, 174, 170, 171, 278, 277, 174, 170, 174, 252, 251, 174, 277, 314, 252, 175, 176, 180, 179, 176, 278, 279, 180, 179, 180, 289, 290, 180, 279, 319, 289, 175, 177, 181, 176, 177, 254, 253, 181, 176, 181, 277, 278, 181, 253, 314, 277, 175, 178, 182, 177, 178, 281, 280, 182, 177, 182, 255, 254, 182, 280, 313, 255, 175, 179, 183, 178, 179, 290, 291, 183, 178, 183, 282, 281, 183, 291, 320, 282, 184, 185, 189, 188, 185, 293, 294, 189, 188, 189, 301, 302, 189, 294, 323, 301, 184, 186, 190, 185, 186, 266, 265, 190, 185, 190, 292, 293, 190, 265, 316, 292, 184, 187, 191, 186, 187, 263, 264, 191, 186, 191, 267, 266, 191, 264, 318, 267, 184, 188, 192, 187, 188, 302, 303, 192, 187, 192, 262, 263, 192, 303, 324, 262, 193, 194, 198, 197, 194, 299, 300, 198, 197, 198, 304, 305, 198, 300, 320, 304, 193, 195, 199, 194, 195, 263, 262, 199, 194, 199, 298, 299, 199, 262, 324, 298, 193, 196, 200, 195, 196, 284, 283, 200, 195, 200, 264, 263, 200, 283, 318, 264, 193, 197, 201, 196, 197, 305, 306, 201, 196, 201, 285, 284, 201, 306, 321, 285, 202, 203, 206, 205, 203, 305, 304, 206, 205, 206, 258, 257, 206, 304, 320, 258, 202, 204, 207, 203, 204, 272, 271, 207, 203, 207, 306, 305, 207, 271, 321, 306, 202, 205, 208, 204, 205, 257, 256, 208, 204, 208, 273, 272, 208, 256, 317, 273, 209, 210, 213, 212, 210, 275, 276, 213, 212, 213, 261, 260, 213, 276, 315, 261, 209, 211, 214, 210, 211, 308, 307, 214, 210, 214, 274, 275, 214, 307, 322, 274, 209, 212, 215, 211, 212, 260, 259, 215, 211, 215, 309, 308, 215, 259, 319, 309, 216, 217, 221, 220, 217, 260, 261, 221, 220, 221, 268, 269, 221, 261, 315, 268, 216, 218, 222, 217, 218, 290, 289, 222, 217, 222, 259, 260, 222, 289, 319, 259, 216, 219, 223, 218, 219, 257, 258, 223, 218, 223, 291, 290, 223, 258, 320, 291, 216, 220, 224, 219, 220, 269, 270, 224, 219, 224, 256, 257, 224, 270, 317, 256, 225, 226, 229, 228, 226, 281, 282, 229, 228, 229, 300, 299, 229, 282, 320, 300, 225, 227, 230, 226, 227, 296, 295, 230, 226, 230, 280, 281, 230, 295, 313, 280, 225, 228, 231, 227, 228, 299, 298, 231, 227, 231, 297, 296, 231, 298, 324, 297, 232, 233, 237, 236, 233, 251, 252, 237, 236, 237, 253, 254, 237, 252, 314, 253, 232, 234, 238, 233, 234, 302, 301, 238, 233, 238, 250, 251, 238, 301, 323, 250, 232, 235, 239, 234, 235, 296, 297, 239, 234, 239, 303, 302, 239, 297, 324, 303, 232, 236, 240, 235, 236, 254, 255, 240, 235, 240, 295, 296, 240, 255, 313, 295, 241, 242, 246, 245, 242, 287, 288, 246, 245, 246, 307, 308, 246, 288, 322, 307, 241, 243, 247, 242, 243, 293, 292, 247, 242, 247, 286, 287, 247, 292, 316, 286, 241, 244, 248, 243, 244, 311, 310, 248, 243, 248, 294, 293, 248, 310, 323, 294, 241, 245, 249, 244, 245, 308, 309, 249, 244, 249, 312, 311, 249, 309, 319, 312, 288, 332, 335, 322, 272, 328, 327, 271, 283, 330, 334, 318, 267, 325, 266, 273, 329, 328, 272, 284, 331, 330, 283, 318, 334, 325, 267, 317, 333, 329, 273, 285, 332, 331, 284, 315, 333, 326, 268, 322, 335, 327, 274, 321, 335, 332, 285, 268, 326, 269, 274, 327, 328, 275, 316, 334, 330, 286, 269, 326, 270, 275, 328, 329, 276, 286, 330, 331, 287, 270, 326, 333, 317, 265, 325, 334, 316, 276, 329, 333, 315, 287, 331, 332, 288, 271, 327, 335, 321, 266, 325, 265]
            rel material:binding = </root/_materials/Red>
            normal3f[] normals = [(0.25025806, 0.9681791, 0.00015680578), (0.25025806, 0.9681791, 0.00015680578), (0.25025806, 0.9681791, 0.00015680578), (0.25025806, 0.9681791, 0.00015680578), (0.11275455, 0.9887393, -0.098392114), (0.11275455, 0.9887393, -0.098392114), (0.11275455, 0.9887393, -0.098392114), (0.11275455, 0.9887393, -0.098392114), (0.6057675, 0.78226954, -0.14525877), (0.6057675, 0.78226954, -0.14525877), (0.6057675, 0.78226954, -0.14525877), (0.6057675, 0.78226954, -0.14525877), (0.4269442, 0.87391317, -0.23236713), (0.4269442, 0.87391317, -0.23236713), (0.4269442, 0.87391317, -0.23236713), (0.4269442, 0.87391317, -0.23236713), (0.053984325, 0.97818977, 0.20057516), (0.053984325, 0.97818977, 0.20057516), (0.053984325, 0.97818977, 0.20057516), (0.053984325, 0.97818977, 0.20057516), (-0.084297195, 0.8117894, 0.57783383), (-0.084297195, 0.8117894, 0.57783383), (-0.084297195, 0.8117894, 0.57783383), (-0.084297195, 0.8117894, 0.57783383), (-0.09066118, 0.9881077, 0.124192044), (-0.09066118, 0.9881077, 0.124192044), (-0.09066118, 0.9881077, 0.124192044), (-0.09066118, 0.9881077, 0.124192044), (-0.23455985, 0.84883934, 0.4737651), (-0.23455985, 0.84883934, 0.4737651), (-0.23455985, 0.84883934, 0.4737651), (-0.23455985, 0.84883934, 0.4737651), (0.3538192, 0.89948565, 0.25639328), (0.3538192, 0.89948565, 0.25639328), (0.3538192, 0.89948565, 0.25639328), (0.3538192, 0.89948565, 0.25639328), (0.70431304, 0.68383217, 0.1905691), (0.70431304, 0.68383217, 0.1905691), (0.70431304, 0.68383217, 0.1905691), (0.70431304, 0.68383217, 0.1905691), (0.3193766, 0.7113847, 0.6260433), (0.3193766, 0.7113847, 0.6260433), (0.3193766, 0.7113847, 0.6260433), (0.3193766, 0.7113847, 0.6260433), (0.63810265, 0.5603342, 0.5280629), (0.63810265, 0.5603342, 0.5280629), (0.63810265, 0.5603342, 0.5280629), (0.63810265, 0.5603342, 0.5280629), (0.9640773, 0.113647394, -0.24008185), (0.9640773, 0.113647394, -0.24008185), (0.9640773, 0.113647394, -0.24008185), (0.9640773, 0.113647394, -0.24008185), (0.8899839, 0.39871752, -0.22125337), (0.8899839, 0.39871752, -0.22125337), (0.8899839, 0.39871752, -0.22125337), (0.8899839, 0.39871752, -0.22125337), (0.89394635, 0.11875604, -0.43215382), (0.89394635, 0.11875604, -0.43215382), (0.89394635, 0.11875604, -0.43215382), (0.89394635, 0.11875604, -0.43215382), (0.8078274, 0.43470395, -0.39805445), (0.8078274, 0.43470395, -0.39805445), (0.8078274, 0.43470395, -0.39805445), (0.8078274, 0.43470395, -0.39805445), (0.99254674, 0.118198544, 0.029668303), (0.99254674, 0.118198544, 0.029668303), (0.99254674, 0.118198544, 0.029668303), (0.99254674, 0.118198544, 0.029668303), (0.8982636, 0.15042864, 0.41290912), (0.8982636, 0.15042864, 0.41290912), (0.8982636, 0.15042864, 0.41290912), (0.8982636, 0.15042864, 0.41290912), (0.9226474, 0.37612334, 0.08516401), (0.9226474, 0.37612334, 0.08516401), (0.9226474, 0.37612334, 0.08516401), (0.9226474, 0.37612334, 0.08516401), (0.80672836, 0.39315516, 0.44115558), (0.80672836, 0.39315516, 0.44115558), (0.80672836, 0.39315516, 0.44115558), (0.80672836, 0.39315516, 0.44115558), (0.9925466, -0.11819852, 0.029668288), (0.9925466, -0.11819852, 0.029668288), (0.9925466, -0.11819852, 0.029668288), (0.9925466, -0.11819852, 0.029668288), (0.9226474, -0.37612352, 0.0851638), (0.9226474, -0.37612352, 0.0851638), (0.9226474, -0.37612352, 0.0851638), (0.9226474, -0.37612352, 0.0851638), (0.8982633, -0.1504289, 0.41290945), (0.8982633, -0.1504289, 0.41290945), (0.8982633, -0.1504289, 0.41290945), (0.8982633, -0.1504289, 0.41290945), (0.80672854, -0.3931547, 0.44115576), (0.80672854, -0.3931547, 0.44115576), (0.80672854, -0.3931547, 0.44115576), (0.80672854, -0.3931547, 0.44115576), (0.96407735, -0.11364732, -0.24008183), (0.96407735, -0.11364732, -0.24008183), (0.96407735, -0.11364732, -0.24008183), (0.96407735, -0.11364732, -0.24008183), (0.8939463, -0.11875596, -0.43215385), (0.8939463, -0.11875596, -0.43215385), (0.8939463, -0.11875596, -0.43215385), (0.8939463, -0.11875596, -0.43215385), (0.8899838, -0.39871764, -0.22125332), (0.8899838, -0.39871764, -0.22125332), (0.8899838, -0.39871764, -0.22125332), (0.8899838, -0.39871764, -0.22125332), (0.80782735, -0.43470395, -0.39805454), (0.80782735, -0.43470395, -0.39805454), (0.80782735, -0.43470395, -0.39805454), (0.80782735, -0.43470395, -0.39805454), (-0.7249757, 0.13619906, 0.67517406), (-0.7249757, 0.13619906, 0.67517406), (-0.7249757, 0.13619906, 0.67517406), (-0.7249757, 0.13619906, 0.67517406), (-0.60118157, 0.45612916, 0.6561455), (-0.60118157, 0.45612916, 0.6561455), (-0.60118157, 0.45612916, 0.6561455), (-0.60118157, 0.45612916, 0.6561455), (-0.526203, 0.15405715, 0.83628756), (-0.526203, 0.15405715, 0.83628756), (-0.526203, 0.15405715, 0.83628756), (-0.526203, 0.15405715, 0.83628756), (-0.45287865, 0.49470118, 0.74173564), (-0.45287865, 0.49470118, 0.74173564), (-0.45287865, 0.49470118, 0.74173564), (-0.45287865, 0.49470118, 0.74173564), (-0.86831564, 0.09533258, 0.48676434), (-0.86831564, 0.09533258, 0.48676434), (-0.86831564, 0.09533258, 0.48676434), (-0.86831564, 0.09533258, 0.48676434), (-0.9299499, 0.048530173, 0.3644694), (-0.9299499, 0.048530173, 0.3644694), (-0.9299499, 0.048530173, 0.3644694), (-0.9299499, 0.048530173, 0.3644694), (-0.7427138, 0.35744157, 0.56622577), (-0.7427138, 0.35744157, 0.56622577), (-0.7427138, 0.35744157, 0.56622577), (-0.7427138, 0.35744157, 0.56622577), (-0.83430505, 0.21769752, 0.50650054), (-0.83430505, 0.21769752, 0.50650054), (-0.83430505, 0.21769752, 0.50650054), (-0.83430505, 0.21769752, 0.50650054), (-0.8683157, -0.095332615, 0.48676446), (-0.8683157, -0.095332615, 0.48676446), (-0.8683157, -0.095332615, 0.48676446), (-0.8683157, -0.095332615, 0.48676446), (-0.7427137, -0.35744163, 0.566226), (-0.7427137, -0.35744163, 0.566226), (-0.7427137, -0.35744163, 0.566226), (-0.7427137, -0.35744163, 0.566226), (-0.9299499, -0.048530176, 0.3644694), (-0.9299499, -0.048530176, 0.3644694), (-0.9299499, -0.048530176, 0.3644694), (-0.9299499, -0.048530176, 0.3644694), (-0.83430505, -0.21769753, 0.5065005), (-0.83430505, -0.21769753, 0.5065005), (-0.83430505, -0.21769753, 0.5065005), (-0.83430505, -0.21769753, 0.5065005), (-0.7249755, -0.13619912, 0.6751742), (-0.7249755, -0.13619912, 0.6751742), (-0.7249755, -0.13619912, 0.6751742), (-0.7249755, -0.13619912, 0.6751742), (-0.52620316, -0.1540574, 0.83628744), (-0.52620316, -0.1540574, 0.83628744), (-0.52620316, -0.1540574, 0.83628744), (-0.52620316, -0.1540574, 0.83628744), (-0.60118157, -0.4561292, 0.65614545), (-0.60118157, -0.4561292, 0.65614545), (-0.60118157, -0.4561292, 0.65614545), (-0.60118157, -0.4561292, 0.65614545), (-0.45287797, -0.49470124, 0.74173594), (-0.45287797, -0.49470124, 0.74173594), (-0.45287797, -0.49470124, 0.74173594), (-0.45287797, -0.49470124, 0.74173594), (0.056266047, -0.99781036, -0.034763675), (0.056266047, -0.99781036, -0.034763675), (0.056266047, -0.99781036, -0.034763675), (0.056266047, -0.99781036, -0.034763675), (0.08318769, -0.99444485, -0.06449297), (0.08318769, -0.99444485, -0.06449297), (0.08318769, -0.99444485, -0.06449297), (0.08318769, -0.99444485, -0.06449297), (0.11578055, -0.9784344, -0.17105894), (0.11578055, -0.9784344, -0.17105894), (0.11578055, -0.9784344, -0.17105894), (0.11578055, -0.9784344, -0.17105894), (0.25917313, -0.9424457, -0.21124679), (0.25917313, -0.9424457, -0.21124679), (0.25917313, -0.9424457, -0.21124679), (0.25917313, -0.9424457, -0.21124679), (-0.06771238, -0.98184496, 0.17718771), (-0.06771238, -0.98184496, 0.17718771), (-0.06771238, -0.98184496, 0.17718771), (-0.06771238, -0.98184496, 0.17718771), (-0.30507362, -0.83952165, 0.4495925), (-0.30507362, -0.83952165, 0.4495925), (-0.30507362, -0.83952165, 0.4495925), (-0.30507362, -0.83952165, 0.4495925), (-0.06940833, -0.98743284, 0.14198242), (-0.06940833, -0.98743284, 0.14198242), (-0.06940833, -0.98743284, 0.14198242), (-0.06940833, -0.98743284, 0.14198242), (-0.25785714, -0.8587409, 0.44280207), (-0.25785714, -0.8587409, 0.44280207), (-0.25785714, -0.8587409, 0.44280207), (-0.25785714, -0.8587409, 0.44280207), (-0.08375956, -0.97222096, 0.21856515), (-0.08375956, -0.97222096, 0.21856515), (-0.08375956, -0.97222096, 0.21856515), (-0.08375956, -0.97222096, 0.21856515), (-0.14782979, -0.96746486, 0.20532402), (-0.14782979, -0.96746486, 0.20532402), (-0.14782979, -0.96746486, 0.20532402), (-0.14782979, -0.96746486, 0.20532402), (-0.3804906, -0.7815167, 0.49442762), (-0.3804906, -0.7815167, 0.49442762), (-0.3804906, -0.7815167, 0.49442762), (-0.3804906, -0.7815167, 0.49442762), (-0.48311156, -0.6530501, 0.58320576), (-0.48311156, -0.6530501, 0.58320576), (-0.48311156, -0.6530501, 0.58320576), (-0.48311156, -0.6530501, 0.58320576), (0.013533255, -0.99952394, -0.027727108), (0.013533255, -0.99952394, -0.027727108), (0.013533255, -0.99952394, -0.027727108), (0.013533255, -0.99952394, -0.027727108), (0.027101984, -0.98418355, -0.17506595), (0.027101984, -0.98418355, -0.17506595), (0.027101984, -0.98418355, -0.17506595), (0.027101984, -0.98418355, -0.17506595), (-0.011212411, -0.9994141, -0.032337245), (-0.011212411, -0.9994141, -0.032337245), (-0.011212411, -0.9994141, -0.032337245), (-0.011212411, -0.9994141, -0.032337245), (-0.007913331, -0.9818215, -0.18964191), (-0.007913331, -0.9818215, -0.18964191), (-0.007913331, -0.9818215, -0.18964191), (-0.007913331, -0.9818215, -0.18964191), (0.16017914, -0.8975635, -0.41075814), (0.16017914, -0.8975635, -0.41075814), (0.16017914, -0.8975635, -0.41075814), (0.16017914, -0.8975635, -0.41075814), (0.15662277, -0.94848883, -0.27538738), (0.15662277, -0.94848883, -0.27538738), (0.15662277, -0.94848883, -0.27538738), (0.15662277, -0.94848883, -0.27538738), (0.4059434, -0.70045286, -0.5870058), (0.4059434, -0.70045286, -0.5870058), (0.4059434, -0.70045286, -0.5870058), (0.4059434, -0.70045286, -0.5870058), (0.38920242, -0.82311046, -0.41353425), (0.38920242, -0.82311046, -0.41353425), (0.38920242, -0.82311046, -0.41353425), (0.38920242, -0.82311046, -0.41353425), (0.0394233, -0.93713325, -0.34673786), (0.0394233, -0.93713325, -0.34673786), (0.0394233, -0.93713325, -0.34673786), (0.0394233, -0.93713325, -0.34673786), (-0.070729315, -0.92480093, -0.373819), (-0.070729315, -0.92480093, -0.373819), (-0.070729315, -0.92480093, -0.373819), (-0.070729315, -0.92480093, -0.373819), (0.023848886, -0.970935, -0.23815237), (0.023848886, -0.970935, -0.23815237), (0.023848886, -0.970935, -0.23815237), (0.023848886, -0.970935, -0.23815237), (-0.021848317, -0.96453243, -0.26305875), (-0.021848317, -0.96453243, -0.26305875), (-0.021848317, -0.96453243, -0.26305875), (-0.021848317, -0.96453243, -0.26305875), (0.10311427, -0.8788417, -0.46583766), (0.10311427, -0.8788417, -0.46583766), (0.10311427, -0.8788417, -0.46583766), (0.10311427, -0.8788417, -0.46583766), (0.28645745, -0.6929979, -0.6615859), (0.28645745, -0.6929979, -0.6615859), (0.28645745, -0.6929979, -0.6615859), (0.28645745, -0.6929979, -0.6615859), (-0.02258115, -0.9128996, -0.40755916), (-0.02258115, -0.9128996, -0.40755916), (-0.02258115, -0.9128996, -0.40755916), (-0.02258115, -0.9128996, -0.40755916), (0.1686188, -0.73012877, -0.66217804), (0.1686188, -0.73012877, -0.66217804), (0.1686188, -0.73012877, -0.66217804), (0.1686188, -0.73012877, -0.66217804), (0.10311416, 0.87884176, -0.46583754), (0.10311416, 0.87884176, -0.46583754), (0.10311416, 0.87884176, -0.46583754), (0.10311416, 0.87884176, -0.46583754), (-0.022581017, 0.9128996, -0.40755898), (-0.022581017, 0.9128996, -0.40755898), (-0.022581017, 0.9128996, -0.40755898), (-0.022581017, 0.9128996, -0.40755898), (0.28645742, 0.692998, -0.6615858), (0.28645742, 0.692998, -0.6615858), (0.28645742, 0.692998, -0.6615858), (0.28645742, 0.692998, -0.6615858), (0.16861872, 0.7301287, -0.66217804), (0.16861872, 0.7301287, -0.66217804), (0.16861872, 0.7301287, -0.66217804), (0.16861872, 0.7301287, -0.66217804), (0.03942335, 0.937133, -0.3467385), (0.03942335, 0.937133, -0.3467385), (0.03942335, 0.937133, -0.3467385), (0.03942335, 0.937133, -0.3467385), (0.023848975, 0.9709349, -0.23815224), (0.023848975, 0.9709349, -0.23815224), (0.023848975, 0.9709349, -0.23815224), (0.023848975, 0.9709349, -0.23815224), (-0.07072933, 0.92480075, -0.37381935), (-0.07072933, 0.92480075, -0.37381935), (-0.07072933, 0.92480075, -0.37381935), (-0.07072933, 0.92480075, -0.37381935), (-0.02184842, 0.9645325, -0.26305854), (-0.02184842, 0.9645325, -0.26305854), (-0.02184842, 0.9645325, -0.26305854), (-0.02184842, 0.9645325, -0.26305854), (0.16017917, 0.8975634, -0.41075844), (0.16017917, 0.8975634, -0.41075844), (0.16017917, 0.8975634, -0.41075844), (0.16017917, 0.8975634, -0.41075844), (0.40594336, 0.700453, -0.5870057), (0.40594336, 0.700453, -0.5870057), (0.40594336, 0.700453, -0.5870057), (0.40594336, 0.700453, -0.5870057), (0.15662256, 0.94848883, -0.27538753), (0.15662256, 0.94848883, -0.27538753), (0.15662256, 0.94848883, -0.27538753), (0.15662256, 0.94848883, -0.27538753), (0.38920248, 0.82311034, -0.41353467), (0.38920248, 0.82311034, -0.41353467), (0.38920248, 0.82311034, -0.41353467), (0.38920248, 0.82311034, -0.41353467), (0.5539301, 0.11983445, -0.82389396), (0.5539301, 0.11983445, -0.82389396), (0.5539301, 0.11983445, -0.82389396), (0.5539301, 0.11983445, -0.82389396), (0.47615156, 0.38171363, -0.792196), (0.47615156, 0.38171363, -0.792196), (0.47615156, 0.38171363, -0.792196), (0.47615156, 0.38171363, -0.792196), (0.4965517, 0.1626714, -0.85262793), (0.4965517, 0.1626714, -0.85262793), (0.4965517, 0.1626714, -0.85262793), (0.4965517, 0.1626714, -0.85262793), (0.3630199, 0.5130938, -0.7777862), (0.3630199, 0.5130938, -0.7777862), (0.3630199, 0.5130938, -0.7777862), (0.3630199, 0.5130938, -0.7777862), (0.6580398, 0.10914046, -0.74503154), (0.6580398, 0.10914046, -0.74503154), (0.6580398, 0.10914046, -0.74503154), (0.6580398, 0.10914046, -0.74503154), (0.7781544, 0.11599673, -0.6172686), (0.7781544, 0.11599673, -0.6172686), (0.7781544, 0.11599673, -0.6172686), (0.7781544, 0.11599673, -0.6172686), (0.6002859, 0.35745072, -0.7154619), (0.6002859, 0.35745072, -0.7154619), (0.6002859, 0.35745072, -0.7154619), (0.6002859, 0.35745072, -0.7154619), (0.7093509, 0.41316032, -0.57106906), (0.7093509, 0.41316032, -0.57106906), (0.7093509, 0.41316032, -0.57106906), (0.7093509, 0.41316032, -0.57106906), (0.6580396, -0.10914047, -0.74503165), (0.6580396, -0.10914047, -0.74503165), (0.6580396, -0.10914047, -0.74503165), (0.6580396, -0.10914047, -0.74503165), (0.6002856, -0.35745084, -0.71546215), (0.6002856, -0.35745084, -0.71546215), (0.6002856, -0.35745084, -0.71546215), (0.6002856, -0.35745084, -0.71546215), (0.7781543, -0.11599681, -0.6172687), (0.7781543, -0.11599681, -0.6172687), (0.7781543, -0.11599681, -0.6172687), (0.7781543, -0.11599681, -0.6172687), (0.709351, -0.4131602, -0.571069), (0.709351, -0.4131602, -0.571069), (0.709351, -0.4131602, -0.571069), (0.709351, -0.4131602, -0.571069), (0.5539304, -0.11983459, -0.82389367), (0.5539304, -0.11983459, -0.82389367), (0.5539304, -0.11983459, -0.82389367), (0.5539304, -0.11983459, -0.82389367), (0.4965517, -0.1626714, -0.85262793), (0.4965517, -0.1626714, -0.85262793), (0.4965517, -0.1626714, -0.85262793), (0.4965517, -0.1626714, -0.85262793), (0.47615176, -0.38171354, -0.79219586), (0.47615176, -0.38171354, -0.79219586), (0.47615176, -0.38171354, -0.79219586), (0.47615176, -0.38171354, -0.79219586), (0.36301988, -0.5130937, -0.77778614), (0.36301988, -0.5130937, -0.77778614), (0.36301988, -0.5130937, -0.77778614), (0.36301988, -0.5130937, -0.77778614), (0.2502586, -0.96817905, 0.00015708993), (0.2502586, -0.96817905, 0.00015708993), (0.2502586, -0.96817905, 0.00015708993), (0.2502586, -0.96817905, 0.00015708993), (0.60576713, -0.7822699, -0.14525843), (0.60576713, -0.7822699, -0.14525843), (0.60576713, -0.7822699, -0.14525843), (0.60576713, -0.7822699, -0.14525843), (0.11275476, -0.9887393, -0.098392114), (0.11275476, -0.9887393, -0.098392114), (0.11275476, -0.9887393, -0.098392114), (0.11275476, -0.9887393, -0.098392114), (0.42694435, -0.873913, -0.23236722), (0.42694435, -0.873913, -0.23236722), (0.42694435, -0.873913, -0.23236722), (0.42694435, -0.873913, -0.23236722), (0.353819, -0.8994857, 0.25639355), (0.353819, -0.8994857, 0.25639355), (0.353819, -0.8994857, 0.25639355), (0.353819, -0.8994857, 0.25639355), (0.31937683, -0.7113851, 0.6260429), (0.31937683, -0.7113851, 0.6260429), (0.31937683, -0.7113851, 0.6260429), (0.31937683, -0.7113851, 0.6260429), (0.7043134, -0.68383217, 0.19056849), (0.7043134, -0.68383217, 0.19056849), (0.7043134, -0.68383217, 0.19056849), (0.7043134, -0.68383217, 0.19056849), (0.6381019, -0.5603351, 0.52806306), (0.6381019, -0.5603351, 0.52806306), (0.6381019, -0.5603351, 0.52806306), (0.6381019, -0.5603351, 0.52806306), (0.05398438, -0.9781897, 0.2005757), (0.05398438, -0.9781897, 0.2005757), (0.05398438, -0.9781897, 0.2005757), (0.05398438, -0.9781897, 0.2005757), (-0.09066135, -0.9881077, 0.124191895), (-0.09066135, -0.9881077, 0.124191895), (-0.09066135, -0.9881077, 0.124191895), (-0.09066135, -0.9881077, 0.124191895), (-0.084297255, -0.81178945, 0.5778337), (-0.084297255, -0.81178945, 0.5778337), (-0.084297255, -0.81178945, 0.5778337), (-0.084297255, -0.81178945, 0.5778337), (-0.23456012, -0.8488392, 0.47376537), (-0.23456012, -0.8488392, 0.47376537), (-0.23456012, -0.8488392, 0.47376537), (-0.23456012, -0.8488392, 0.47376537), (0.13413402, 0.13136838, 0.98221713), (0.13413402, 0.13136838, 0.98221713), (0.13413402, 0.13136838, 0.98221713), (0.13413402, 0.13136838, 0.98221713), (0.20701304, 0.4074698, 0.8894458), (0.20701304, 0.4074698, 0.8894458), (0.20701304, 0.4074698, 0.8894458), (0.20701304, 0.4074698, 0.8894458), (0.5312758, 0.15937029, 0.83207405), (0.5312758, 0.15937029, 0.83207405), (0.5312758, 0.15937029, 0.83207405), (0.5312758, 0.15937029, 0.83207405), (0.5593304, 0.40833724, 0.7213946), (0.5593304, 0.40833724, 0.7213946), (0.5593304, 0.40833724, 0.7213946), (0.5593304, 0.40833724, 0.7213946), (-0.15555865, 0.13012956, 0.9792179), (-0.15555865, 0.13012956, 0.9792179), (-0.15555865, 0.13012956, 0.9792179), (-0.15555865, 0.13012956, 0.9792179), (-0.34017935, 0.14676073, 0.9288376), (-0.34017935, 0.14676073, 0.9288376), (-0.34017935, 0.14676073, 0.9288376), (-0.34017935, 0.14676073, 0.9288376), (-0.14784215, 0.43254223, 0.88940996), (-0.14784215, 0.43254223, 0.88940996), (-0.14784215, 0.43254223, 0.88940996), (-0.14784215, 0.43254223, 0.88940996), (-0.32773292, 0.47768465, 0.81511253), (-0.32773292, 0.47768465, 0.81511253), (-0.32773292, 0.47768465, 0.81511253), (-0.32773292, 0.47768465, 0.81511253), (-0.15555876, -0.13012955, 0.9792179), (-0.15555876, -0.13012955, 0.9792179), (-0.15555876, -0.13012955, 0.9792179), (-0.15555876, -0.13012955, 0.9792179), (-0.14784227, -0.4325423, 0.88940984), (-0.14784227, -0.4325423, 0.88940984), (-0.14784227, -0.4325423, 0.88940984), (-0.14784227, -0.4325423, 0.88940984), (-0.3401793, -0.14676093, 0.9288376), (-0.3401793, -0.14676093, 0.9288376), (-0.3401793, -0.14676093, 0.9288376), (-0.3401793, -0.14676093, 0.9288376), (-0.32773325, -0.47768465, 0.81511235), (-0.32773325, -0.47768465, 0.81511235), (-0.32773325, -0.47768465, 0.81511235), (-0.32773325, -0.47768465, 0.81511235), (0.13413434, -0.1313686, 0.9822171), (0.13413434, -0.1313686, 0.9822171), (0.13413434, -0.1313686, 0.9822171), (0.13413434, -0.1313686, 0.9822171), (0.5312754, -0.15937048, 0.8320742), (0.5312754, -0.15937048, 0.8320742), (0.5312754, -0.15937048, 0.8320742), (0.5312754, -0.15937048, 0.8320742), (0.20701356, -0.4074697, 0.8894459), (0.20701356, -0.4074697, 0.8894459), (0.20701356, -0.4074697, 0.8894459), (0.20701356, -0.4074697, 0.8894459), (0.55933017, -0.40833697, 0.72139496), (0.55933017, -0.40833697, 0.72139496), (0.55933017, -0.40833697, 0.72139496), (0.55933017, -0.40833697, 0.72139496), (0.013533258, 0.99952394, -0.027727231), (0.013533258, 0.99952394, -0.027727231), (0.013533258, 0.99952394, -0.027727231), (0.013533258, 0.99952394, -0.027727231), (-0.01121241, 0.99941415, -0.03233725), (-0.01121241, 0.99941415, -0.03233725), (-0.01121241, 0.99941415, -0.03233725), (-0.01121241, 0.99941415, -0.03233725), (0.02710198, 0.98418355, -0.17506604), (0.02710198, 0.98418355, -0.17506604), (0.02710198, 0.98418355, -0.17506604), (0.02710198, 0.98418355, -0.17506604), (-0.007913331, 0.9818215, -0.18964182), (-0.007913331, 0.9818215, -0.18964182), (-0.007913331, 0.9818215, -0.18964182), (-0.007913331, 0.9818215, -0.18964182), (-0.0837594, 0.97222096, 0.21856537), (-0.0837594, 0.97222096, 0.21856537), (-0.0837594, 0.97222096, 0.21856537), (-0.0837594, 0.97222096, 0.21856537), (-0.38049054, 0.7815168, 0.49442747), (-0.38049054, 0.7815168, 0.49442747), (-0.38049054, 0.7815168, 0.49442747), (-0.38049054, 0.7815168, 0.49442747), (-0.14782989, 0.967465, 0.20532376), (-0.14782989, 0.967465, 0.20532376), (-0.14782989, 0.967465, 0.20532376), (-0.14782989, 0.967465, 0.20532376), (-0.4831117, 0.65305, 0.58320546), (-0.4831117, 0.65305, 0.58320546), (-0.4831117, 0.65305, 0.58320546), (-0.4831117, 0.65305, 0.58320546), (-0.06771256, 0.98184496, 0.17718723), (-0.06771256, 0.98184496, 0.17718723), (-0.06771256, 0.98184496, 0.17718723), (-0.06771256, 0.98184496, 0.17718723), (-0.069408394, 0.9874328, 0.14198194), (-0.069408394, 0.9874328, 0.14198194), (-0.069408394, 0.9874328, 0.14198194), (-0.069408394, 0.9874328, 0.14198194), (-0.30507338, 0.8395219, 0.44959232), (-0.30507338, 0.8395219, 0.44959232), (-0.30507338, 0.8395219, 0.44959232), (-0.30507338, 0.8395219, 0.44959232), (-0.25785747, 0.858741, 0.4428019), (-0.25785747, 0.858741, 0.4428019), (-0.25785747, 0.858741, 0.4428019), (-0.25785747, 0.858741, 0.4428019), (0.056265842, 0.99781036, -0.034764092), (0.056265842, 0.99781036, -0.034764092), (0.056265842, 0.99781036, -0.034764092), (0.056265842, 0.99781036, -0.034764092), (0.11578025, 0.9784343, -0.171059), (0.11578025, 0.9784343, -0.171059), (0.11578025, 0.9784343, -0.171059), (0.11578025, 0.9784343, -0.171059), (0.083187915, 0.9944448, -0.06449278), (0.083187915, 0.9944448, -0.06449278), (0.083187915, 0.9944448, -0.06449278), (0.083187915, 0.9944448, -0.06449278), (0.25917327, 0.9424457, -0.21124679), (0.25917327, 0.9424457, -0.21124679), (0.25917327, 0.9424457, -0.21124679), (0.25917327, 0.9424457, -0.21124679), (-0.86830163, -0.0070147426, 0.49598697), (-0.86830163, -0.0070147426, 0.49598697), (-0.86832297, 0, 0.49599916), (-0.86832297, 0, 0.4959992), (-0.8500788, 0.009767436, -0.5265649), (-0.8500788, 0.009767436, -0.5265649), (-0.8500788, 0.009767436, -0.5265649), (-0.8500788, 0.009767436, -0.5265649), (-1, 0, 0), (-1, 1.4945353e-9, 3.810879e-9), (-1, -2.824961e-9, 1.44065995e-8), (-1, 0, 0), (-1, 1.4167599e-8, 2.0269207e-8), (-1, -4.762102e-15, -1.2984366e-7), (-1, -3.1331588e-9, -4.4780865e-8), (-0.9050617, -0.018373484, 0.42488307), (-0.9050617, -0.018373484, 0.42488307), (-0.9050617, -0.018373484, 0.42488307), (-0.9050617, -0.018373484, 0.42488307), (-0.6543297, -0.028071003, -0.75568825), (-0.6543297, -0.028071003, -0.75568825), (-0.6543297, -0.028071003, -0.75568825), (-0.6543297, -0.028071003, -0.75568825), (-1, 1.4945353e-9, 3.810879e-9), (-1, 1.4167599e-8, 2.0269207e-8), (-1, -3.1331588e-9, -4.4780865e-8), (-1, -2.824961e-9, 1.44065995e-8), (-0.6555082, 0.060472116, -0.752763), (-0.6555082, 0.060472116, -0.752763), (-0.6555082, 0.060472116, -0.752763), (-0.6555082, 0.060472116, -0.752763), (-0.75908923, 0.016749311, 0.65077114), (-0.75908923, 0.016749311, 0.65077114), (-0.75908923, 0.016749311, 0.65077114), (-0.75908923, 0.016749311, 0.65077114), (-0.8335352, 0.07089499, 0.54789877), (-0.8335352, 0.07089499, 0.54789877), (-0.8335352, 0.07089499, 0.54789877), (-0.8335352, 0.07089499, 0.54789877), (-0.8615631, -0.000054096494, -0.50765055), (-0.8615631, -0.000054096494, -0.50765055), (-0.861563, 0, -0.50765055), (-0.8615631, 0, -0.50765055), (-0.86830163, 0.0070147426, 0.49598697), (-0.86830163, 0.0070147426, 0.49598697), (-0.86832297, 0, 0.4959992), (-0.86832297, 0, 0.49599916), (-0.99999994, -8.636945e-8, 1.1414622e-7), (-1, -2.3729365e-14, 1.1414618e-7), (-1, -2.529747e-14, 1.141462e-7), (-0.8500789, -0.009767423, -0.5265649), (-0.8500789, -0.009767423, -0.5265649), (-0.8500789, -0.009767423, -0.5265649), (-0.8500789, -0.009767423, -0.5265649), (-1, -2.9890705e-9, 3.810879e-9), (-1, 0, 0), (-1, 0, 0), (-1, -2.824961e-9, 1.44065995e-8), (-1, -2.3729365e-14, 1.1414618e-7), (-1, 8.636939e-8, 1.1414614e-7), (-1, -2.529747e-14, 1.141462e-7), (-0.9050617, 0.018373484, 0.42488307), (-0.9050617, 0.018373484, 0.42488307), (-0.9050617, 0.018373484, 0.42488307), (-0.9050617, 0.018373484, 0.42488307), (-0.6543298, 0.028071001, -0.7556882), (-0.6543298, 0.028071001, -0.7556882), (-0.6543298, 0.028071001, -0.7556882), (-0.6543298, 0.028071001, -0.7556882), (-0.83353496, -0.07089497, 0.5478989), (-0.83353496, -0.07089497, 0.5478989), (-0.83353496, -0.07089497, 0.5478989), (-0.83353496, -0.07089497, 0.5478989), (-1, -2.5225946e-8, 2.0269205e-8), (-1, -2.9890705e-9, 3.810879e-9), (-1, -2.824961e-9, 1.44065995e-8), (-1, -3.1331588e-9, -4.4780865e-8), (-0.65550786, -0.06047213, -0.75276333), (-0.65550786, -0.06047213, -0.75276333), (-0.65550786, -0.06047213, -0.75276333), (-0.65550786, -0.06047213, -0.75276333), (-0.75908923, -0.016749313, 0.6507712), (-0.75908923, -0.016749313, 0.6507712), (-0.75908923, -0.016749313, 0.6507712), (-0.75908923, -0.016749313, 0.6507712), (-0.861563, 0.000054096494, -0.50765055), (-0.861563, 0.000054096494, -0.50765055), (-0.8615631, 0, -0.50765055), (-0.861563, 0, -0.50765055), (-1, -4.762102e-15, -1.2984366e-7), (-1, -2.5225946e-8, 2.0269205e-8), (-1, -3.1331588e-9, -4.4780865e-8), (-0.25025806, 0.9681791, 0.00015680578), (-0.25025806, 0.9681791, 0.00015680578), (-0.25025806, 0.9681791, 0.00015680578), (-0.25025806, 0.9681791, 0.00015680578), (-0.11275456, 0.9887393, -0.098392114), (-0.11275456, 0.9887393, -0.098392114), (-0.11275456, 0.9887393, -0.098392114), (-0.11275456, 0.9887393, -0.098392114), (-0.6057674, 0.78226954, -0.14525877), (-0.6057674, 0.78226954, -0.14525877), (-0.6057674, 0.78226954, -0.14525877), (-0.6057674, 0.78226954, -0.14525877), (-0.42694426, 0.8739131, -0.23236723), (-0.42694426, 0.8739131, -0.23236723), (-0.42694426, 0.8739131, -0.23236723), (-0.42694426, 0.8739131, -0.23236723), (-0.053984385, 0.97818977, 0.2005754), (-0.053984385, 0.97818977, 0.2005754), (-0.053984385, 0.97818977, 0.2005754), (-0.053984385, 0.97818977, 0.2005754), (0.08429723, 0.81178945, 0.57783383), (0.08429723, 0.81178945, 0.57783383), (0.08429723, 0.81178945, 0.57783383), (0.08429723, 0.81178945, 0.57783383), (0.09066116, 0.9881077, 0.124192126), (0.09066116, 0.9881077, 0.124192126), (0.09066116, 0.9881077, 0.124192126), (0.09066116, 0.9881077, 0.124192126), (0.23455983, 0.84883934, 0.4737651), (0.23455983, 0.84883934, 0.4737651), (0.23455983, 0.84883934, 0.4737651), (0.23455983, 0.84883934, 0.4737651), (-0.3538192, 0.89948565, 0.25639322), (-0.3538192, 0.89948565, 0.25639322), (-0.3538192, 0.89948565, 0.25639322), (-0.3538192, 0.89948565, 0.25639322), (-0.7043132, 0.6838321, 0.19056909), (-0.7043132, 0.6838321, 0.19056909), (-0.7043132, 0.6838321, 0.19056909), (-0.7043132, 0.6838321, 0.19056909), (-0.3193766, 0.71138483, 0.62604344), (-0.3193766, 0.71138483, 0.62604344), (-0.3193766, 0.71138483, 0.62604344), (-0.3193766, 0.71138483, 0.62604344), (-0.63810265, 0.5603344, 0.5280629), (-0.63810265, 0.5603344, 0.5280629), (-0.63810265, 0.5603344, 0.5280629), (-0.63810265, 0.5603344, 0.5280629), (-0.9640773, 0.113647334, -0.24008185), (-0.9640773, 0.113647334, -0.24008185), (-0.9640773, 0.113647334, -0.24008185), (-0.9640773, 0.113647334, -0.24008185), (-0.88998383, 0.39871767, -0.22125338), (-0.88998383, 0.39871767, -0.22125338), (-0.88998383, 0.39871767, -0.22125338), (-0.88998383, 0.39871767, -0.22125338), (-0.89394635, 0.118756115, -0.43215382), (-0.89394635, 0.118756115, -0.43215382), (-0.89394635, 0.118756115, -0.43215382), (-0.89394635, 0.118756115, -0.43215382), (-0.8078274, 0.43470392, -0.39805442), (-0.8078274, 0.43470392, -0.39805442), (-0.8078274, 0.43470392, -0.39805442), (-0.8078274, 0.43470392, -0.39805442), (-0.99254674, 0.11819856, 0.029668303), (-0.99254674, 0.11819856, 0.029668303), (-0.99254674, 0.11819856, 0.029668303), (-0.99254674, 0.11819856, 0.029668303), (-0.89826345, 0.1504288, 0.41290912), (-0.89826345, 0.1504288, 0.41290912), (-0.89826345, 0.1504288, 0.41290912), (-0.89826345, 0.1504288, 0.41290912), (-0.9226474, 0.37612352, 0.08516399), (-0.9226474, 0.37612352, 0.08516399), (-0.9226474, 0.37612352, 0.08516399), (-0.9226474, 0.37612352, 0.08516399), (-0.80672836, 0.39315534, 0.44115558), (-0.80672836, 0.39315534, 0.44115558), (-0.80672836, 0.39315534, 0.44115558), (-0.80672836, 0.39315534, 0.44115558), (-0.9925467, -0.118198305, 0.029668294), (-0.9925467, -0.118198305, 0.029668294), (-0.9925467, -0.118198305, 0.029668294), (-0.9925467, -0.118198305, 0.029668294), (-0.92264754, -0.3761234, 0.08516383), (-0.92264754, -0.3761234, 0.08516383), (-0.92264754, -0.3761234, 0.08516383), (-0.92264754, -0.3761234, 0.08516383), (-0.8982634, -0.15042876, 0.41290942), (-0.8982634, -0.15042876, 0.41290942), (-0.8982634, -0.15042876, 0.41290942), (-0.8982634, -0.15042876, 0.41290942), (-0.8067286, -0.39315465, 0.44115588), (-0.8067286, -0.39315465, 0.44115588), (-0.8067286, -0.39315465, 0.44115588), (-0.8067286, -0.39315465, 0.44115588), (-0.96407735, -0.11364739, -0.24008183), (-0.96407735, -0.11364739, -0.24008183), (-0.96407735, -0.11364739, -0.24008183), (-0.96407735, -0.11364739, -0.24008183), (-0.89394635, -0.11875604, -0.43215385), (-0.89394635, -0.11875604, -0.43215385), (-0.89394635, -0.11875604, -0.43215385), (-0.89394635, -0.11875604, -0.43215385), (-0.8899839, -0.39871743, -0.22125329), (-0.8899839, -0.39871743, -0.22125329), (-0.8899839, -0.39871743, -0.22125329), (-0.8899839, -0.39871743, -0.22125329), (-0.80782735, -0.43470392, -0.3980545), (-0.80782735, -0.43470392, -0.3980545), (-0.80782735, -0.43470392, -0.3980545), (-0.80782735, -0.43470392, -0.3980545), (0.7249757, 0.13619907, 0.6751742), (0.7249757, 0.13619907, 0.6751742), (0.7249757, 0.13619907, 0.6751742), (0.7249757, 0.13619907, 0.6751742), (0.6011816, 0.45612916, 0.65614545), (0.6011816, 0.45612916, 0.65614545), (0.6011816, 0.45612916, 0.65614545), (0.6011816, 0.45612916, 0.65614545), (0.52620286, 0.15405719, 0.8362876), (0.52620286, 0.15405719, 0.8362876), (0.52620286, 0.15405719, 0.8362876), (0.52620286, 0.15405719, 0.8362876), (0.45287862, 0.49470118, 0.7417356), (0.45287862, 0.49470118, 0.7417356), (0.45287862, 0.49470118, 0.7417356), (0.45287862, 0.49470118, 0.7417356), (0.8683157, 0.095332615, 0.48676446), (0.8683157, 0.095332615, 0.48676446), (0.8683157, 0.095332615, 0.48676446), (0.8683157, 0.095332615, 0.48676446), (0.9299499, 0.048530176, 0.3644694), (0.9299499, 0.048530176, 0.3644694), (0.9299499, 0.048530176, 0.3644694), (0.9299499, 0.048530176, 0.3644694), (0.7427138, 0.35744157, 0.56622577), (0.7427138, 0.35744157, 0.56622577), (0.7427138, 0.35744157, 0.56622577), (0.7427138, 0.35744157, 0.56622577), (0.83430505, 0.21769752, 0.50650054), (0.83430505, 0.21769752, 0.50650054), (0.83430505, 0.21769752, 0.50650054), (0.83430505, 0.21769752, 0.50650054), (0.86831564, -0.09533258, 0.48676434), (0.86831564, -0.09533258, 0.48676434), (0.86831564, -0.09533258, 0.48676434), (0.86831564, -0.09533258, 0.48676434), (0.7427137, -0.35744166, 0.56622607), (0.7427137, -0.35744166, 0.56622607), (0.7427137, -0.35744166, 0.56622607), (0.7427137, -0.35744166, 0.56622607), (0.9299499, -0.048530173, 0.3644694), (0.9299499, -0.048530173, 0.3644694), (0.9299499, -0.048530173, 0.3644694), (0.9299499, -0.048530173, 0.3644694), (0.83430505, -0.21769752, 0.5065004), (0.83430505, -0.21769752, 0.5065004), (0.83430505, -0.21769752, 0.5065004), (0.83430505, -0.21769752, 0.5065004), (0.7249756, -0.13619912, 0.6751741), (0.7249756, -0.13619912, 0.6751741), (0.7249756, -0.13619912, 0.6751741), (0.7249756, -0.13619912, 0.6751741), (0.526203, -0.1540574, 0.83628744), (0.526203, -0.1540574, 0.83628744), (0.526203, -0.1540574, 0.83628744), (0.526203, -0.1540574, 0.83628744), (0.6011816, -0.45612913, 0.65614545), (0.6011816, -0.45612913, 0.65614545), (0.6011816, -0.45612913, 0.65614545), (0.6011816, -0.45612913, 0.65614545), (0.45287803, -0.49470124, 0.74173594), (0.45287803, -0.49470124, 0.74173594), (0.45287803, -0.49470124, 0.74173594), (0.45287803, -0.49470124, 0.74173594), (-0.056266036, -0.9978104, -0.03476367), (-0.056266036, -0.9978104, -0.03476367), (-0.056266036, -0.9978104, -0.03476367), (-0.056266036, -0.9978104, -0.03476367), (-0.083187684, -0.99444485, -0.06449297), (-0.083187684, -0.99444485, -0.06449297), (-0.083187684, -0.99444485, -0.06449297), (-0.083187684, -0.99444485, -0.06449297), (-0.115780525, -0.9784343, -0.17105895), (-0.115780525, -0.9784343, -0.17105895), (-0.115780525, -0.9784343, -0.17105895), (-0.115780525, -0.9784343, -0.17105895), (-0.25917313, -0.9424457, -0.21124679), (-0.25917313, -0.9424457, -0.21124679), (-0.25917313, -0.9424457, -0.21124679), (-0.25917313, -0.9424457, -0.21124679), (0.0677124, -0.981845, 0.17718759), (0.0677124, -0.981845, 0.17718759), (0.0677124, -0.981845, 0.17718759), (0.0677124, -0.981845, 0.17718759), (0.3050736, -0.83952165, 0.4495925), (0.3050736, -0.83952165, 0.4495925), (0.3050736, -0.83952165, 0.4495925), (0.3050736, -0.83952165, 0.4495925), (0.069408335, -0.98743284, 0.14198242), (0.069408335, -0.98743284, 0.14198242), (0.069408335, -0.98743284, 0.14198242), (0.069408335, -0.98743284, 0.14198242), (0.25785723, -0.858741, 0.44280213), (0.25785723, -0.858741, 0.44280213), (0.25785723, -0.858741, 0.44280213), (0.25785723, -0.858741, 0.44280213), (0.08375955, -0.97222096, 0.21856523), (0.08375955, -0.97222096, 0.21856523), (0.08375955, -0.97222096, 0.21856523), (0.08375955, -0.97222096, 0.21856523), (0.08625901, -0.9492362, 0.3025062), (0.08625901, -0.9492362, 0.3025062), (0.08625901, -0.9492362, 0.3025062), (0.08625901, -0.9492362, 0.3025062), (0.3804907, -0.7815167, 0.49442753), (0.3804907, -0.7815167, 0.49442753), (0.3804907, -0.7815167, 0.49442753), (0.3804907, -0.7815167, 0.49442753), (0.48311147, -0.6530502, 0.58320576), (0.48311147, -0.6530502, 0.58320576), (0.48311147, -0.6530502, 0.58320576), (0.48311147, -0.6530502, 0.58320576), (-0.013533258, -0.99952394, -0.027727231), (-0.013533258, -0.99952394, -0.027727231), (-0.013533258, -0.99952394, -0.027727231), (-0.013533258, -0.99952394, -0.027727231), (-0.027101988, -0.9841836, -0.17506588), (-0.027101988, -0.9841836, -0.17506588), (-0.027101988, -0.9841836, -0.17506588), (-0.027101988, -0.9841836, -0.17506588), (0.0033326976, -0.9992411, -0.03880818), (0.0033326976, -0.9992411, -0.03880818), (0.0033326976, -0.9992411, -0.03880818), (0.0033326976, -0.9992411, -0.03880818), (0.024987603, -0.9772251, -0.21072881), (0.024987603, -0.9772251, -0.21072881), (0.024987603, -0.9772251, -0.21072881), (0.024987603, -0.9772251, -0.21072881), (-0.1601792, -0.8975635, -0.410758), (-0.1601792, -0.8975635, -0.410758), (-0.1601792, -0.8975635, -0.410758), (-0.1601792, -0.8975635, -0.410758), (-0.15662274, -0.94848883, -0.27538735), (-0.15662274, -0.94848883, -0.27538735), (-0.15662274, -0.94848883, -0.27538735), (-0.15662274, -0.94848883, -0.27538735), (-0.40594348, -0.70045286, -0.58700573), (-0.40594348, -0.70045286, -0.58700573), (-0.40594348, -0.70045286, -0.58700573), (-0.40594348, -0.70045286, -0.58700573), (-0.3892024, -0.82311046, -0.4135344), (-0.3892024, -0.82311046, -0.4135344), (-0.3892024, -0.82311046, -0.4135344), (-0.3892024, -0.82311046, -0.4135344), (-0.039423324, -0.93713325, -0.34673795), (-0.039423324, -0.93713325, -0.34673795), (-0.039423324, -0.93713325, -0.34673795), (-0.039423324, -0.93713325, -0.34673795), (0.043340866, -0.9397739, -0.3390376), (0.043340866, -0.9397739, -0.3390376), (0.043340866, -0.9397739, -0.3390376), (0.043340866, -0.9397739, -0.3390376), (-0.023848882, -0.9709349, -0.23815246), (-0.023848882, -0.9709349, -0.23815246), (-0.023848882, -0.9709349, -0.23815246), (-0.023848882, -0.9709349, -0.23815246), (0.055308588, -0.9718198, -0.22914438), (0.055308588, -0.9718198, -0.22914438), (0.055308588, -0.9718198, -0.22914438), (0.055308588, -0.9718198, -0.22914438), (-0.10311428, -0.8788417, -0.4658377), (-0.10311428, -0.8788417, -0.4658377), (-0.10311428, -0.8788417, -0.4658377), (-0.10311428, -0.8788417, -0.4658377), (-0.2864575, -0.69299793, -0.661586), (-0.2864575, -0.69299793, -0.661586), (-0.2864575, -0.69299793, -0.661586), (-0.2864575, -0.69299793, -0.661586), (0.009749483, -0.9087271, -0.41727704), (0.009749483, -0.9087271, -0.41727704), (0.009749483, -0.9087271, -0.41727704), (0.009749483, -0.9087271, -0.41727704), (-0.15301181, -0.6692959, -0.7270698), (-0.15301181, -0.6692959, -0.7270698), (-0.15301181, -0.6692959, -0.7270698), (-0.15301181, -0.6692959, -0.7270698), (-0.10311416, 0.87884176, -0.46583754), (-0.10311416, 0.87884176, -0.46583754), (-0.10311416, 0.87884176, -0.46583754), (-0.10311416, 0.87884176, -0.46583754), (0.00974938, 0.9087272, -0.41727683), (0.00974938, 0.9087272, -0.41727683), (0.00974938, 0.9087272, -0.41727683), (0.00974938, 0.9087272, -0.41727683), (-0.28645742, 0.69299805, -0.6615858), (-0.28645742, 0.69299805, -0.6615858), (-0.28645742, 0.69299805, -0.6615858), (-0.28645742, 0.69299805, -0.6615858), (-0.15301187, 0.6692959, -0.7270698), (-0.15301187, 0.6692959, -0.7270698), (-0.15301187, 0.6692959, -0.7270698), (-0.15301187, 0.6692959, -0.7270698), (-0.039423373, 0.937133, -0.3467385), (-0.039423373, 0.937133, -0.3467385), (-0.039423373, 0.937133, -0.3467385), (-0.039423373, 0.937133, -0.3467385), (-0.02384898, 0.970935, -0.23815216), (-0.02384898, 0.970935, -0.23815216), (-0.02384898, 0.970935, -0.23815216), (-0.02384898, 0.970935, -0.23815216), (0.04334084, 0.93977386, -0.33903784), (0.04334084, 0.93977386, -0.33903784), (0.04334084, 0.93977386, -0.33903784), (0.04334084, 0.93977386, -0.33903784), (0.055308767, 0.9718198, -0.22914413), (0.055308767, 0.9718198, -0.22914413), (0.055308767, 0.9718198, -0.22914413), (0.055308767, 0.9718198, -0.22914413), (-0.16017923, 0.8975634, -0.41075847), (-0.16017923, 0.8975634, -0.41075847), (-0.16017923, 0.8975634, -0.41075847), (-0.16017923, 0.8975634, -0.41075847), (-0.4059433, 0.7004529, -0.5870057), (-0.4059433, 0.7004529, -0.5870057), (-0.4059433, 0.7004529, -0.5870057), (-0.4059433, 0.7004529, -0.5870057), (-0.15662257, 0.94848883, -0.27538764), (-0.15662257, 0.94848883, -0.27538764), (-0.15662257, 0.94848883, -0.27538764), (-0.15662257, 0.94848883, -0.27538764), (-0.38920248, 0.82311034, -0.41353467), (-0.38920248, 0.82311034, -0.41353467), (-0.38920248, 0.82311034, -0.41353467), (-0.38920248, 0.82311034, -0.41353467), (-0.55393016, 0.11983443, -0.8238939), (-0.55393016, 0.11983443, -0.8238939), (-0.55393016, 0.11983443, -0.8238939), (-0.55393016, 0.11983443, -0.8238939), (-0.4761516, 0.38171372, -0.792196), (-0.4761516, 0.38171372, -0.792196), (-0.4761516, 0.38171372, -0.792196), (-0.4761516, 0.38171372, -0.792196), (-0.4965517, 0.1626714, -0.85262793), (-0.4965517, 0.1626714, -0.85262793), (-0.4965517, 0.1626714, -0.85262793), (-0.4965517, 0.1626714, -0.85262793), (-0.22299224, 0.66296816, -0.714666), (-0.22299224, 0.66296816, -0.714666), (-0.22299224, 0.66296816, -0.714666), (-0.22299224, 0.66296816, -0.714666), (-0.6580398, 0.10914047, -0.7450316), (-0.6580398, 0.10914047, -0.7450316), (-0.6580398, 0.10914047, -0.7450316), (-0.6580398, 0.10914047, -0.7450316), (-0.7781544, 0.11599681, -0.6172686), (-0.7781544, 0.11599681, -0.6172686), (-0.7781544, 0.11599681, -0.6172686), (-0.7781544, 0.11599681, -0.6172686), (-0.6002859, 0.35745063, -0.71546197), (-0.6002859, 0.35745063, -0.71546197), (-0.6002859, 0.35745063, -0.71546197), (-0.6002859, 0.35745063, -0.71546197), (-0.7093509, 0.41316026, -0.57106906), (-0.7093509, 0.41316026, -0.57106906), (-0.7093509, 0.41316026, -0.57106906), (-0.7093509, 0.41316026, -0.57106906), (-0.6580396, -0.10914051, -0.74503165), (-0.6580396, -0.10914051, -0.74503165), (-0.6580396, -0.10914051, -0.74503165), (-0.6580396, -0.10914051, -0.74503165), (-0.60028565, -0.3574508, -0.71546215), (-0.60028565, -0.3574508, -0.71546215), (-0.60028565, -0.3574508, -0.71546215), (-0.60028565, -0.3574508, -0.71546215), (-0.7781543, -0.11599689, -0.6172686), (-0.7781543, -0.11599689, -0.6172686), (-0.7781543, -0.11599689, -0.6172686), (-0.7781543, -0.11599689, -0.6172686), (-0.709351, -0.41316015, -0.571069), (-0.709351, -0.41316015, -0.571069), (-0.709351, -0.41316015, -0.571069), (-0.709351, -0.41316015, -0.571069), (-0.5539304, -0.119834594, -0.82389367), (-0.5539304, -0.119834594, -0.82389367), (-0.5539304, -0.119834594, -0.82389367), (-0.5539304, -0.119834594, -0.82389367), (-0.4965517, -0.1626714, -0.85262793), (-0.4965517, -0.1626714, -0.85262793), (-0.4965517, -0.1626714, -0.85262793), (-0.4965517, -0.1626714, -0.85262793), (-0.47615176, -0.38171345, -0.79219586), (-0.47615176, -0.38171345, -0.79219586), (-0.47615176, -0.38171345, -0.79219586), (-0.47615176, -0.38171345, -0.79219586), (-0.2229922, -0.66296816, -0.71466607), (-0.2229922, -0.66296816, -0.71466607), (-0.2229922, -0.66296816, -0.71466607), (-0.2229922, -0.66296816, -0.71466607), (-0.2502586, -0.96817905, 0.00015708993), (-0.2502586, -0.96817905, 0.00015708993), (-0.2502586, -0.96817905, 0.00015708993), (-0.2502586, -0.96817905, 0.00015708993), (-0.6057672, -0.7822699, -0.14525843), (-0.6057672, -0.7822699, -0.14525843), (-0.6057672, -0.7822699, -0.14525843), (-0.6057672, -0.7822699, -0.14525843), (-0.112754755, -0.9887393, -0.098392114), (-0.112754755, -0.9887393, -0.098392114), (-0.112754755, -0.9887393, -0.098392114), (-0.112754755, -0.9887393, -0.098392114), (-0.4269443, -0.87391305, -0.23236716), (-0.4269443, -0.87391305, -0.23236716), (-0.4269443, -0.87391305, -0.23236716), (-0.4269443, -0.87391305, -0.23236716), (-0.35381907, -0.89948565, 0.25639355), (-0.35381907, -0.89948565, 0.25639355), (-0.35381907, -0.89948565, 0.25639355), (-0.35381907, -0.89948565, 0.25639355), (-0.3193769, -0.711385, 0.62604284), (-0.3193769, -0.711385, 0.62604284), (-0.3193769, -0.711385, 0.62604284), (-0.3193769, -0.711385, 0.62604284), (-0.7043133, -0.6838321, 0.1905684), (-0.7043133, -0.6838321, 0.1905684), (-0.7043133, -0.6838321, 0.1905684), (-0.7043133, -0.6838321, 0.1905684), (-0.6381019, -0.5603349, 0.5280631), (-0.6381019, -0.5603349, 0.5280631), (-0.6381019, -0.5603349, 0.5280631), (-0.6381019, -0.5603349, 0.5280631), (-0.0539844, -0.97818965, 0.20057546), (-0.0539844, -0.97818965, 0.20057546), (-0.0539844, -0.97818965, 0.20057546), (-0.0539844, -0.97818965, 0.20057546), (0.09066136, -0.9881077, 0.12419202), (0.09066136, -0.9881077, 0.12419202), (0.09066136, -0.9881077, 0.12419202), (0.09066136, -0.9881077, 0.12419202), (0.084297255, -0.81178945, 0.57783383), (0.084297255, -0.81178945, 0.57783383), (0.084297255, -0.81178945, 0.57783383), (0.084297255, -0.81178945, 0.57783383), (0.23456015, -0.8488391, 0.47376546), (0.23456015, -0.8488391, 0.47376546), (0.23456015, -0.8488391, 0.47376546), (0.23456015, -0.8488391, 0.47376546), (-0.13413398, 0.13136838, 0.98221713), (-0.13413398, 0.13136838, 0.98221713), (-0.13413398, 0.13136838, 0.98221713), (-0.13413398, 0.13136838, 0.98221713), (-0.20701304, 0.40746987, 0.8894458), (-0.20701304, 0.40746987, 0.8894458), (-0.20701304, 0.40746987, 0.8894458), (-0.20701304, 0.40746987, 0.8894458), (-0.5312758, 0.15937023, 0.83207405), (-0.5312758, 0.15937023, 0.83207405), (-0.5312758, 0.15937023, 0.83207405), (-0.5312758, 0.15937023, 0.83207405), (-0.55933034, 0.40833715, 0.7213947), (-0.55933034, 0.40833715, 0.7213947), (-0.55933034, 0.40833715, 0.7213947), (-0.55933034, 0.40833715, 0.7213947), (0.15555876, 0.13012955, 0.9792179), (0.15555876, 0.13012955, 0.9792179), (0.15555876, 0.13012955, 0.9792179), (0.15555876, 0.13012955, 0.9792179), (0.34017932, 0.14676075, 0.9288376), (0.34017932, 0.14676075, 0.9288376), (0.34017932, 0.14676075, 0.9288376), (0.34017932, 0.14676075, 0.9288376), (0.14784199, 0.43254223, 0.88940996), (0.14784199, 0.43254223, 0.88940996), (0.14784199, 0.43254223, 0.88940996), (0.14784199, 0.43254223, 0.88940996), (0.32773307, 0.47768465, 0.81511253), (0.32773307, 0.47768465, 0.81511253), (0.32773307, 0.47768465, 0.81511253), (0.32773307, 0.47768465, 0.81511253), (0.15555865, -0.13012956, 0.9792179), (0.15555865, -0.13012956, 0.9792179), (0.15555865, -0.13012956, 0.9792179), (0.15555865, -0.13012956, 0.9792179), (0.1478421, -0.43254232, 0.8894099), (0.1478421, -0.43254232, 0.8894099), (0.1478421, -0.43254232, 0.8894099), (0.1478421, -0.43254232, 0.8894099), (0.34017915, -0.14676093, 0.9288376), (0.34017915, -0.14676093, 0.9288376), (0.34017915, -0.14676093, 0.9288376), (0.34017915, -0.14676093, 0.9288376), (0.32773328, -0.47768465, 0.81511235), (0.32773328, -0.47768465, 0.81511235), (0.32773328, -0.47768465, 0.81511235), (0.32773328, -0.47768465, 0.81511235), (-0.13413438, -0.1313686, 0.9822171), (-0.13413438, -0.1313686, 0.9822171), (-0.13413438, -0.1313686, 0.9822171), (-0.13413438, -0.1313686, 0.9822171), (-0.53127545, -0.15937056, 0.8320743), (-0.53127545, -0.15937056, 0.8320743), (-0.53127545, -0.15937056, 0.8320743), (-0.53127545, -0.15937056, 0.8320743), (-0.20701334, -0.4074697, 0.8894459), (-0.20701334, -0.4074697, 0.8894459), (-0.20701334, -0.4074697, 0.8894459), (-0.20701334, -0.4074697, 0.8894459), (-0.5593302, -0.40833685, 0.721395), (-0.5593302, -0.40833685, 0.721395), (-0.5593302, -0.40833685, 0.721395), (-0.5593302, -0.40833685, 0.721395), (-0.013533255, 0.99952394, -0.027727108), (-0.013533255, 0.99952394, -0.027727108), (-0.013533255, 0.99952394, -0.027727108), (-0.013533255, 0.99952394, -0.027727108), (0.0033326985, 0.9992411, -0.03880818), (0.0033326985, 0.9992411, -0.03880818), (0.0033326985, 0.9992411, -0.03880818), (0.0033326985, 0.9992411, -0.03880818), (-0.027101979, 0.98418355, -0.17506613), (-0.027101979, 0.98418355, -0.17506613), (-0.027101979, 0.98418355, -0.17506613), (-0.027101979, 0.98418355, -0.17506613), (0.024987603, 0.9772251, -0.21072881), (0.024987603, 0.9772251, -0.21072881), (0.024987603, 0.9772251, -0.21072881), (0.024987603, 0.9772251, -0.21072881), (0.083759405, 0.97222096, 0.21856537), (0.083759405, 0.97222096, 0.21856537), (0.083759405, 0.97222096, 0.21856537), (0.083759405, 0.97222096, 0.21856537), (0.38049054, 0.78151673, 0.4944275), (0.38049054, 0.78151673, 0.4944275), (0.38049054, 0.78151673, 0.4944275), (0.38049054, 0.78151673, 0.4944275), (0.08625907, 0.94923633, 0.30250594), (0.08625907, 0.94923633, 0.30250594), (0.08625907, 0.94923633, 0.30250594), (0.08625907, 0.94923633, 0.30250594), (0.4831117, 0.65304995, 0.58320546), (0.4831117, 0.65304995, 0.58320546), (0.4831117, 0.65304995, 0.58320546), (0.4831117, 0.65304995, 0.58320546), (0.067712545, 0.98184496, 0.17718735), (0.067712545, 0.98184496, 0.17718735), (0.067712545, 0.98184496, 0.17718735), (0.067712545, 0.98184496, 0.17718735), (0.06940838, 0.9874328, 0.14198194), (0.06940838, 0.9874328, 0.14198194), (0.06940838, 0.9874328, 0.14198194), (0.06940838, 0.9874328, 0.14198194), (0.30507332, 0.8395219, 0.44959232), (0.30507332, 0.8395219, 0.44959232), (0.30507332, 0.8395219, 0.44959232), (0.30507332, 0.8395219, 0.44959232), (0.25785744, 0.85874104, 0.44280177), (0.25785744, 0.85874104, 0.44280177), (0.25785744, 0.85874104, 0.44280177), (0.25785744, 0.85874104, 0.44280177), (-0.056265835, 0.99781036, -0.034764092), (-0.056265835, 0.99781036, -0.034764092), (-0.056265835, 0.99781036, -0.034764092), (-0.056265835, 0.99781036, -0.034764092), (-0.115780264, 0.9784344, -0.17105907), (-0.115780264, 0.9784344, -0.17105907), (-0.115780264, 0.9784344, -0.17105907), (-0.115780264, 0.9784344, -0.17105907), (-0.08318792, 0.9944448, -0.064492956), (-0.08318792, 0.9944448, -0.064492956), (-0.08318792, 0.9944448, -0.064492956), (-0.08318792, 0.9944448, -0.064492956), (-0.25917327, 0.9424457, -0.21124671), (-0.25917327, 0.9424457, -0.21124671), (-0.25917327, 0.9424457, -0.21124671), (-0.25917327, 0.9424457, -0.21124671), (0.83835596, 0.007708889, -0.5450686), (0.83835596, 0.007708889, -0.5450686), (0.83835596, 0.007708889, -0.5450686), (0.83835596, 0.007708889, -0.5450686), (0.76323533, -0.011983043, 0.64600945), (0.76323533, -0.011983043, 0.64600945), (0.76323533, -0.011983043, 0.64600945), (0.76323533, -0.011983043, 0.64600945), (1, 2.8039429e-9, 0), (1, 1.4019715e-9, 0), (1, -6.8306616e-10, 1.44065995e-8), (1, 4.6899316e-9, 3.810879e-9), (1, 1.9696774e-8, 2.0269207e-8), (1, -1.5665813e-9, -4.4780858e-8), (1, -4.762102e-15, -1.2984366e-7), (0.8365677, 0.023669511, -0.54735196), (0.8365677, 0.023669511, -0.54735196), (0.8365677, 0.023669511, -0.54735196), (0.8365677, 0.023669511, -0.54735196), (0.75969595, 0.024138777, 0.6498303), (0.75969595, 0.024138777, 0.6498303), (0.75969595, 0.024138777, 0.6498303), (0.75969595, 0.024138777, 0.6498303), (1, 4.6899316e-9, 3.810879e-9), (1, -6.8306616e-10, 1.44065995e-8), (1, -1.5665813e-9, -4.4780858e-8), (1, 1.9696774e-8, 2.0269207e-8), (0.6254096, -0.062482752, 0.7777909), (0.6254096, -0.062482752, 0.7777909), (0.6254096, -0.062482752, 0.7777909), (0.6254096, -0.062482752, 0.7777909), (0.78232974, -0.016025743, -0.6226583), (0.78232974, -0.016025743, -0.6226583), (0.78232974, -0.016025743, -0.6226583), (0.78232974, -0.016025743, -0.6226583), (0.7122741, -0.09007129, -0.6960983), (0.7122741, -0.09007129, -0.6960983), (0.7122741, -0.09007129, -0.6960983), (0.7122741, -0.09007129, -0.6960983), (0.8816678, 0.000050279166, 0.4718707), (0.8816678, 3.8859125e-9, 0.4718707), (0.8816678, 3.8859445e-9, 0.47187063), (0.8816678, 0.000050279166, 0.4718707), (0.83835596, -0.007708886, -0.5450686), (0.83835596, -0.007708886, -0.5450686), (0.83835596, -0.007708886, -0.5450686), (0.83835596, -0.007708886, -0.5450686), (0.99999994, -8.636945e-8, 1.1414622e-7), (1, -2.529747e-14, 1.141462e-7), (1, -2.3729365e-14, 1.1414618e-7), (0.76323533, 0.011983043, 0.64600945), (0.76323533, 0.011983043, 0.64600945), (0.76323533, 0.011983043, 0.64600945), (0.76323533, 0.011983043, 0.64600945), (1, -2.9890705e-9, 3.810879e-9), (1, -6.8306616e-10, 1.44065995e-8), (1, 1.4019715e-9, 0), (1, 0, 0), (1, -2.3729365e-14, 1.1414618e-7), (1, -2.529747e-14, 1.141462e-7), (1, 8.636939e-8, 1.1414614e-7), (0.8365677, -0.023669511, -0.54735196), (0.8365677, -0.023669511, -0.54735196), (0.8365677, -0.023669511, -0.54735196), (0.8365677, -0.023669511, -0.54735196), (0.7596959, -0.024138777, 0.6498303), (0.7596959, -0.024138777, 0.6498303), (0.7596959, -0.024138777, 0.6498303), (0.7596959, -0.024138777, 0.6498303), (0.7122739, 0.090071306, -0.6960984), (0.7122739, 0.090071306, -0.6960984), (0.7122739, 0.090071306, -0.6960984), (0.7122739, 0.090071306, -0.6960984), (1, -2.5225946e-8, 2.0269205e-8), (1, -1.5665813e-9, -4.4780858e-8), (1, -6.8306616e-10, 1.44065995e-8), (1, -2.9890705e-9, 3.810879e-9), (0.6254096, 0.062482752, 0.7777909), (0.6254096, 0.062482752, 0.7777909), (0.6254096, 0.062482752, 0.7777909), (0.6254096, 0.062482752, 0.7777909), (0.78232974, 0.016025743, -0.62265825), (0.78232974, 0.016025743, -0.62265825), (0.78232974, 0.016025743, -0.62265825), (0.78232974, 0.016025743, -0.62265825), (0.8816678, -0.000050271396, 0.4718707), (0.8816678, 3.8859445e-9, 0.47187063), (0.8816678, 3.8859125e-9, 0.4718707), (0.8816678, -0.000050271396, 0.4718707), (1, -4.762102e-15, -1.2984366e-7), (1, -1.5665813e-9, -4.4780858e-8), (1, -2.5225946e-8, 2.0269205e-8)] (
                interpolation = "faceVarying"
            )
            point3f[] points = [(0.30466214, 0.18564877, 0.21445498), (0.2731095, 0.19481394, 0.18417639), (0.29165673, 0.17806755, 0.26085523), (0.34526604, 0.17616116, 0.19356328), (0.3192416, 0.18189417, 0.128371), (0.23655002, 0.18347125, 0.24340676), (0.3423783, 0.1599663, 0.25250703), (0.41884482, 9.509739e-9, 0.15761393), (0.41060123, 0.075126626, 0.1596748), (0.41710076, 5.1307727e-9, 0.24153765), (0.41060123, -0.07512662, 0.15967481), (0.39491805, 1.106207e-8, 0.061134633), (0.38666537, 0.07842159, 0.065515794), (0.40836963, 0.06775813, 0.23811194), (0.40836963, -0.06775812, 0.23811196), (0.38666537, -0.07842157, 0.065515794), (0.047863975, -5.911318e-11, 0.25000274), (0.05293198, 0.079699375, 0.2406523), (0.030125111, -8.005254e-10, 0.21557732), (0.05293198, -0.079699375, 0.2406523), (0.07657906, 6.822991e-10, 0.2821209), (0.08312756, 0.07974663, 0.27178058), (0.03286981, 0.079683624, 0.20764938), (0.03286981, -0.079683624, 0.20764938), (0.083127566, -0.07974663, 0.27178058), (0.12261996, -0.19623145, 0.10643908), (0.1748201, -0.19528913, 0.12315629), (0.093475975, -0.18197484, 0.16584879), (0.070281684, -0.19637433, 0.09290849), (0.14923584, -0.19384913, 0.04041531), (0.21415152, -0.18908753, 0.04953569), (0.1355156, -0.18221112, 0.18905786), (0.054827407, -0.18189608, 0.14422587), (0.083708115, -0.19475137, 0.034091704), (0.13651703, -0.15182802, -0.12810017), (0.15605238, -0.16726619, -0.08679431), (0.08747649, -0.14868082, -0.14482215), (0.16291414, -0.13731338, -0.14956948), (0.2127434, -0.15432766, -0.09291293), (0.08944297, -0.16815427, -0.08932721), (0.09493236, -0.12410749, -0.18960218), (0.13651703, 0.15182802, -0.12810017), (0.087476484, 0.1486808, -0.14482215), (0.15605238, 0.16726619, -0.0867943), (0.16291414, 0.13731337, -0.14956948), (0.09493236, 0.12410749, -0.18960218), (0.08944297, 0.16815428, -0.08932721), (0.2127434, 0.15432766, -0.09291293), (0.20337242, 4.7600666e-9, -0.18721807), (0.19926694, 0.056885574, -0.18258508), (0.28332368, 6.613597e-9, -0.11667624), (0.19926693, -0.056885563, -0.18258508), (0.113182954, 2.1651236e-9, -0.24873604), (0.111155115, 0.048492122, -0.2421656), (0.27704084, 0.067681946, -0.11223659), (0.27704084, -0.06768194, -0.11223658), (0.111155115, -0.048492115, -0.2421656), (0.30466214, -0.18564875, 0.21445498), (0.345266, -0.17616113, 0.19356328), (0.29165673, -0.17806754, 0.26085523), (0.2731095, -0.19481394, 0.18417639), (0.3192416, -0.18189415, 0.128371), (0.34237832, -0.15996628, 0.25250706), (0.23655002, -0.18347123, 0.24340676), (0.26441166, -2.4446625e-10, 0.3464512), (0.26641682, 0.07741107, 0.33684975), (0.18889026, -8.005254e-10, 0.3348211), (0.26641682, -0.07741107, 0.33684975), (0.33475977, 6.822991e-10, 0.33787015), (0.33151802, 0.06927026, 0.3280223), (0.19418581, 0.07999866, 0.32466397), (0.19418581, -0.07999866, 0.32466397), (0.33151802, -0.06927026, 0.32802227), (0.12261996, 0.19623145, 0.10643908), (0.070281684, 0.19637433, 0.09290849), (0.09347598, 0.18197484, 0.16584879), (0.1748201, 0.19528915, 0.12315629), (0.14923584, 0.19384913, 0.04041531), (0.083708115, 0.19475137, 0.034091704), (0.054827407, 0.18189609, 0.14422587), (0.1355156, 0.18221112, 0.18905786), (0.21415152, 0.18908754, 0.049535695), (0.2100724, 0.14586613, 0.29419252), (0.27473196, 0.14128073, 0.3082497), (0.33099136, 0.1265794, 0.2992956), (0.38149902, 0.06343352, 0.29587767), (0.38922575, 2.1651236e-9, 0.30444375), (0.38149902, -0.06343352, 0.29587767), (0.10507158, -0.09164202, -0.22245434), (0.18607321, -0.105435304, -0.16969818), (0.25468364, -0.123184346, -0.10296602), (0.25468364, 0.123184346, -0.10296602), (0.18607321, 0.105435304, -0.1696982), (0.10507158, 0.09164202, -0.22245434), (0.10277307, -0.14523606, 0.24075955), (0.06813598, -0.14511791, 0.21260098), (0.041103907, -0.14507854, 0.18386558), (0.017874347, 0.079683624, 0.17370917), (0.017874347, -8.005254e-10, 0.17999831), (0.017874347, -0.079683624, 0.17370917), (0.017874347, 0.04130013, -0.2963621), (0.017874347, -8.005254e-10, -0.305742), (0.017874347, -0.04130013, -0.2963621), (0.017874347, -0.16301715, -0.09618586), (0.05079779, -0.1404614, -0.1505254), (0.017874347, -0.11280579, -0.22132292), (0.017874347, 0.16301715, -0.09618586), (0.05079779, 0.1404614, -0.1505254), (0.017874347, 0.11280579, -0.22132292), (0.38314062, 0.12468922, 0.23828502), (0.3860238, 0.13794857, 0.17020775), (0.36155677, 0.14350054, 0.08561076), (0.38314065, -0.12468922, 0.23828503), (0.3860238, -0.13794856, 0.17020777), (0.36155677, -0.14350052, 0.08561076), (0.017874347, -0.18189609, 0.12339602), (0.063368574, -0.19611748, 0.083365634), (0.017874347, -0.19372395, 0.029166488), (0.017874347, 0.18189609, 0.12339602), (0.063368574, 0.19611748, 0.083365634), (0.017874347, 0.19372395, 0.029166488), (0.34074947, 0.07636578, -0.029932255), (0.34863833, 8.7451575e-9, -0.034696635), (0.34074947, -0.07636576, -0.029932251), (0.041103907, 0.14507855, 0.18386558), (0.06813598, 0.14511794, 0.21260098), (0.10277307, 0.14523606, 0.24075955), (0.33099136, -0.12657939, 0.2992956), (0.274732, -0.14128073, 0.3082497), (0.2100724, -0.14586613, 0.2941925), (0.18264177, -0.18268366, 0.21464613), (0.22545797, -0.19449933, 0.14756656), (0.27272886, -0.18394357, 0.074503906), (0.12852326, 0.079841144, 0.30009693), (0.121758446, 3.1159295e-10, 0.31077823), (0.12852328, -0.07984113, 0.3000969), (0.23347192, -0.17247683, -0.024816511), (0.1636159, -0.18185249, -0.026052501), (0.091348074, -0.18326531, -0.02804627), (0.091348074, 0.18326531, -0.02804627), (0.16361591, 0.18185249, -0.026052501), (0.23347193, 0.17247686, -0.024816511), (0.18264177, 0.18268368, 0.21464613), (0.22545797, 0.19449933, 0.14756657), (0.27272886, 0.18394357, 0.074503906), (0.36669537, -0.10686822, 0.2794658), (0.36669537, 0.10686822, 0.2794658), (0.0507978, 0.079826616, -0.24966556), (0.017874347, 0.14507855, 0.15484174), (0.0507978, -0.079826616, -0.24966556), (0.017874347, -0.14507855, 0.15484174), (0.31076717, 0.14880268, -0.011653902), (0.31076717, -0.14880267, -0.011653902), (-0.017683027, -0.18069676, -0.03444158), (-0.017683027, 0.18069676, -0.03444158), (0.1488177, 0.14547235, 0.26805288), (0.1488177, -0.14547232, 0.26805288), (0.017874349, 0, 0.16565304), (0.017874349, 0, -0.28942388), (0.017874347, 0, -0.0947688), (0.05079779, -1.5281368e-9, -0.14631315), (0.017874347, 0, -0.21458298), (0.017874347, 0, 0.115472816), (0.063368574, -3.217132e-10, 0.07724704), (0.017874347, 0, 0.025251493), (0.0507978, -2.4932774e-9, -0.24093066), (0.017874347, 0, 0.14558092), (-0.017683027, 5.404787e-10, -0.035822015), (-0.30466214, 0.18564877, 0.21445498), (-0.2731095, 0.19481394, 0.18417639), (-0.29165673, 0.17806755, 0.26085523), (-0.34526604, 0.17616116, 0.19356328), (-0.3192416, 0.18189417, 0.128371), (-0.23655002, 0.18347125, 0.24340676), (-0.3423783, 0.1599663, 0.25250703), (-0.41884482, 9.509739e-9, 0.15761393), (-0.41060123, 0.075126626, 0.1596748), (-0.41710076, 5.1307727e-9, 0.24153765), (-0.41060123, -0.07512662, 0.15967481), (-0.39491805, 1.106207e-8, 0.061134633), (-0.38666537, 0.07842159, 0.065515794), (-0.40836963, 0.06775813, 0.23811194), (-0.40836963, -0.06775812, 0.23811196), (-0.38666537, -0.07842157, 0.065515794), (-0.047863975, -5.911318e-11, 0.25000274), (-0.05293198, 0.079699375, 0.2406523), (-0.030125111, -8.005254e-10, 0.21557732), (-0.05293198, -0.079699375, 0.2406523), (-0.07657906, 6.822991e-10, 0.2821209), (-0.08312756, 0.07974663, 0.27178058), (-0.03286981, 0.079683624, 0.20764938), (-0.03286981, -0.079683624, 0.20764938), (-0.083127566, -0.07974663, 0.27178058), (-0.12261996, -0.19623145, 0.10643908), (-0.1748201, -0.19528913, 0.12315629), (-0.093475975, -0.18197484, 0.16584879), (-0.070281684, -0.19637433, 0.09290849), (-0.14923584, -0.19384913, 0.04041531), (-0.21415152, -0.18908753, 0.04953569), (-0.1355156, -0.18221112, 0.18905786), (-0.054827407, -0.18189608, 0.14422587), (-0.083708115, -0.19475137, 0.034091704), (-0.13651703, -0.15182802, -0.12810017), (-0.15605238, -0.16726619, -0.08679431), (-0.08747649, -0.14868082, -0.14482215), (-0.16291414, -0.13731338, -0.14956948), (-0.2127434, -0.15432766, -0.09291293), (-0.08944297, -0.16815427, -0.08932721), (-0.09493236, -0.12410749, -0.18960218), (-0.13651703, 0.15182802, -0.12810017), (-0.087476484, 0.1486808, -0.14482215), (-0.15605238, 0.16726619, -0.0867943), (-0.16291414, 0.13731337, -0.14956948), (-0.09493236, 0.12410749, -0.18960218), (-0.08944297, 0.16815428, -0.08932721), (-0.2127434, 0.15432766, -0.09291293), (-0.20337242, 4.7600666e-9, -0.18721807), (-0.19926694, 0.056885574, -0.18258508), (-0.28332368, 6.613597e-9, -0.11667624), (-0.19926693, -0.056885563, -0.18258508), (-0.113182954, 2.1651236e-9, -0.24873604), (-0.111155115, 0.048492122, -0.2421656), (-0.27704084, 0.067681946, -0.11223659), (-0.27704084, -0.06768194, -0.11223658), (-0.111155115, -0.048492115, -0.2421656), (-0.30466214, -0.18564875, 0.21445498), (-0.345266, -0.17616113, 0.19356328), (-0.29165673, -0.17806754, 0.26085523), (-0.2731095, -0.19481394, 0.18417639), (-0.3192416, -0.18189415, 0.128371), (-0.34237832, -0.15996628, 0.25250706), (-0.23655002, -0.18347123, 0.24340676), (-0.26441166, -2.4446625e-10, 0.3464512), (-0.26641682, 0.07741107, 0.33684975), (-0.18889026, -8.005254e-10, 0.3348211), (-0.26641682, -0.07741107, 0.33684975), (-0.33475977, 6.822991e-10, 0.33787015), (-0.33151802, 0.06927026, 0.3280223), (-0.19418581, 0.07999866, 0.32466397), (-0.19418581, -0.07999866, 0.32466397), (-0.33151802, -0.06927026, 0.32802227), (-0.12261996, 0.19623145, 0.10643908), (-0.070281684, 0.19637433, 0.09290849), (-0.09347598, 0.18197484, 0.16584879), (-0.1748201, 0.19528915, 0.12315629), (-0.14923584, 0.19384913, 0.04041531), (-0.083708115, 0.19475137, 0.034091704), (-0.054827407, 0.18189609, 0.14422587), (-0.1355156, 0.18221112, 0.18905786), (-0.21415152, 0.18908754, 0.049535695), (-0.2100724, 0.14586613, 0.29419252), (-0.27473196, 0.14128073, 0.3082497), (-0.33099136, 0.1265794, 0.2992956), (-0.38149902, 0.06343352, 0.29587767), (-0.38922575, 2.1651236e-9, 0.30444375), (-0.38149902, -0.06343352, 0.29587767), (-0.10507158, -0.09164202, -0.22245434), (-0.18607321, -0.105435304, -0.16969818), (-0.25468364, -0.123184346, -0.10296602), (-0.25468364, 0.123184346, -0.10296602), (-0.18607321, 0.105435304, -0.1696982), (-0.10507158, 0.09164202, -0.22245434), (-0.10277307, -0.14523606, 0.24075955), (-0.06813598, -0.14511791, 0.21260098), (-0.041103907, -0.14507854, 0.18386558), (-0.017874347, 0.079683624, 0.17370917), (-0.017874347, -8.005254e-10, 0.17999831), (-0.017874347, -0.079683624, 0.17370917), (-0.017874347, 0.04130013, -0.2963621), (-0.017874347, -8.005254e-10, -0.305742), (-0.017874347, -0.04130013, -0.2963621), (-0.017874347, -0.16301715, -0.09618586), (0.027619936, -0.1404614, -0.151124), (-0.017874347, -0.11280579, -0.22132292), (-0.017874347, 0.16301715, -0.09618586), (0.027619936, 0.1404614, -0.151124), (-0.017874347, 0.11280579, -0.22132292), (-0.38314062, 0.12468922, 0.23828502), (-0.3860238, 0.13794857, 0.17020775), (-0.36155677, 0.14350054, 0.08561076), (-0.38314065, -0.12468922, 0.23828503), (-0.3860238, -0.13794856, 0.17020777), (-0.36155677, -0.14350052, 0.08561076), (-0.017874347, -0.18189609, 0.12339602), (0.020245062, -0.19611748, 0.07819366), (-0.017874347, -0.19372395, 0.029166488), (-0.017874347, 0.18189609, 0.12339602), (0.020245062, 0.19611748, 0.07819366), (-0.017874347, 0.19372395, 0.029166488), (-0.34074947, 0.07636578, -0.029932255), (-0.34863833, 8.7451575e-9, -0.034696635), (-0.34074947, -0.07636576, -0.029932251), (-0.041103907, 0.14507855, 0.18386558), (-0.06813598, 0.14511794, 0.21260098), (-0.10277307, 0.14523606, 0.24075955), (-0.33099136, -0.12657939, 0.2992956), (-0.274732, -0.14128073, 0.3082497), (-0.2100724, -0.14586613, 0.2941925), (-0.18264177, -0.18268366, 0.21464613), (-0.22545797, -0.19449933, 0.14756656), (-0.27272886, -0.18394357, 0.074503906), (-0.12852326, 0.079841144, 0.30009693), (-0.121758446, 3.1159295e-10, 0.31077823), (-0.12852328, -0.07984113, 0.3000969), (-0.23347192, -0.17247683, -0.024816511), (-0.1636159, -0.18185249, -0.026052501), (-0.091348074, -0.18326531, -0.02804627), (-0.091348074, 0.18326531, -0.02804627), (-0.16361591, 0.18185249, -0.026052501), (-0.23347193, 0.17247686, -0.024816511), (-0.18264177, 0.18268368, 0.21464613), (-0.22545797, 0.19449933, 0.14756657), (-0.27272886, 0.18394357, 0.074503906), (-0.36669537, -0.10686822, 0.2794658), (-0.36669537, 0.10686822, 0.2794658), (0.025225485, 0.079826616, -0.25565165), (-0.017874347, 0.14507855, 0.15484174), (0.025225485, -0.079826616, -0.25565165), (-0.017874347, -0.14507855, 0.15484174), (-0.31076717, 0.14880268, -0.011653902), (-0.31076717, -0.14880267, -0.011653902), (-0.053862665, -0.18069676, -0.027545612), (-0.053862665, 0.18069676, -0.027545612), (-0.1488177, 0.14547235, 0.26805288), (-0.1488177, -0.14547232, 0.26805288), (-0.017874349, 0, 0.16565304), (-0.017874349, 0, -0.28942388), (-0.017874347, 0, -0.0947688), (0.027619936, -1.4477087e-9, -0.14691174), (-0.017874347, 0, -0.21458298), (-0.017874347, 0, 0.115472816), (0.020245062, 3.731876e-10, 0.07207506), (-0.017874347, 0, 0.025251493), (0.025225485, -1.688994e-9, -0.24691674), (-0.017874347, 0, 0.14558092), (-0.053862665, -3.8605566e-10, -0.028926045)]
            uniform token subdivisionScheme = "none"
            custom string userProperties:blender:data_name = "Cube.002"
        }
    }

    def Scope "_materials"
    {
        def Material "Red"
        {
            token outputs:surface.connect = </root/_materials/Red/Principled_BSDF.outputs:surface>
            custom string userProperties:blender:data_name = "Red"

            def Shader "Principled_BSDF"
            {
                uniform token info:id = "UsdPreviewSurface"
                float inputs:clearcoat = 0
                float inputs:clearcoatRoughness = 0.03
                color3f inputs:diffuseColor = (0.8000001, 0.083962254, 0.056242373)
                float inputs:ior = 1.5
                float inputs:metallic = 0
                float inputs:opacity = 1
                float inputs:roughness = 0.6900348
                float inputs:specular = 0.5
                token outputs:surface
            }
        }
    }
}

