#usda 1.0
(
    defaultPrim = "root"
    doc = "Blender v5.1.2"
    metersPerUnit = 1
    upAxis = "Y"
)

def Xform "root" (
    customData = {
        dictionary Blender = {
            bool generated = 1
        }
    }
)
{
    float3 xformOp:rotateXYZ = (-90, -0, 0)
    uniform token[] xformOpOrder = ["xformOp:rotateXYZ"]

    def Xform "Bow_Golden"
    {
        custom string userProperties:blender:object_name = "Bow_Golden"

        def Mesh "Cylinder_043" (
            active = true
            prepend apiSchemas = ["MaterialBindingAPI"]
        )
        {
            uniform bool doubleSided = 1
            float3[] extent = [(-0.19201566, -0.04867387, -1.0871346), (0.4399118, 0.048673257, 1.0871346)]
            int[] faceVertexCounts = [4, 4, 4, 4, 4, 4, 3, 4, 4, 4, 4, 4, 4, 4, 4, 4, 4, 4, 4, 4, 4, 4, 4, 4, 4, 4, 4, 4, 4, 4, 4, 4, 4, 4, 4, 4, 4, 4, 4, 4, 4, 4, 4, 4, 4, 4, 4, 4, 4, 4, 4, 4, 4, 4, 4, 4, 4, 4, 4, 4, 4, 4, 4, 4, 4, 4, 4, 4, 4, 4, 4, 4, 4, 4, 4, 4, 4, 4, 4, 4, 4, 4, 4, 4, 4, 4, 4, 4, 4, 4, 4, 4, 4, 4, 4, 4, 4, 4, 4, 4, 4, 4, 4, 4, 4, 4, 4, 4, 4, 4, 4, 4, 4, 4, 4, 4, 4, 4, 4, 4, 4, 4, 4, 4, 4, 4, 4, 4, 4, 4, 4, 4, 4, 4, 4, 4, 4, 4, 3, 4, 4, 4, 4, 4, 4, 4, 4, 4, 4, 4, 4, 4, 4, 4, 4, 4, 4, 4, 4, 4, 4, 4, 4, 4, 4, 4, 4, 4, 4, 4, 4, 4, 4, 4, 4, 4, 4, 4, 4, 4, 4, 4, 4, 4, 4, 4, 4, 4, 4, 4, 4, 4, 4, 4, 4, 4, 4, 4, 4, 4, 3, 4, 4, 4, 4, 4, 4, 4, 4, 4, 4, 4, 4, 4, 4, 4, 4, 4, 4, 4, 4, 4, 4, 4, 4, 4, 4, 4, 4, 4, 4, 4, 4, 4, 4, 4, 4, 4, 4, 4, 4, 4, 4, 4, 4, 4, 4, 4, 4, 4, 4, 4, 4, 4, 4, 4, 4, 4, 4, 4, 4, 4, 4, 4, 4, 4, 4, 4, 4, 4, 4, 4, 4, 4, 4, 4, 4, 4, 4, 4, 4, 4, 4, 4, 4, 4, 4, 4, 4, 4, 4, 4, 4, 4, 4, 4, 4, 4, 4, 4, 4, 4, 4, 4, 4, 4, 4, 4, 4, 4, 4, 4, 4, 4, 4, 4, 4, 4, 4, 4, 4, 4, 4, 4, 4, 4, 4, 4, 4, 4, 4, 4, 3, 4, 4, 4, 4, 4, 4, 4, 6, 4, 4, 4, 4, 4, 4, 4, 4, 4, 4, 4, 4, 4, 4, 4, 4, 4, 4, 4, 4, 4, 4, 4, 4, 4, 4, 4, 4, 4, 4, 4, 4, 4, 4, 4, 4, 4, 4, 4, 4, 4, 4, 4, 4, 4, 4, 4, 4]
            int[] faceVertexIndices = [0, 1, 3, 2, 2, 3, 5, 4, 4, 5, 7, 6, 6, 7, 9, 8, 8, 9, 11, 10, 10, 11, 13, 12, 3, 7, 5, 12, 13, 15, 14, 14, 15, 1, 0, 2, 4, 18, 17, 18, 19, 27, 26, 8, 10, 21, 20, 14, 0, 16, 23, 0, 2, 17, 16, 4, 6, 19, 18, 10, 12, 22, 21, 6, 8, 20, 19, 12, 14, 23, 22, 30, 31, 39, 38, 16, 17, 25, 24, 23, 16, 24, 31, 21, 22, 30, 29, 19, 20, 28, 27, 17, 18, 26, 25, 22, 23, 31, 30, 20, 21, 29, 28, 172, 171, 44, 43, 28, 29, 37, 36, 26, 27, 35, 34, 24, 25, 33, 32, 31, 24, 32, 39, 29, 30, 38, 37, 27, 28, 36, 35, 25, 26, 34, 33, 47, 40, 48, 55, 174, 173, 42, 41, 47, 46, 180, 181, 171, 177, 45, 44, 173, 172, 43, 42, 178, 174, 41, 40, 175, 178, 40, 47, 177, 176, 184, 183, 133, 62, 61, 126, 45, 46, 54, 53, 43, 44, 52, 51, 41, 42, 50, 49, 46, 47, 55, 54, 44, 45, 53, 52, 42, 43, 51, 50, 40, 41, 49, 48, 56, 63, 132, 131, 60, 59, 128, 127, 58, 57, 130, 129, 133, 132, 63, 62, 126, 61, 60, 127, 128, 59, 58, 129, 70, 69, 149, 150, 64, 158, 70, 71, 59, 60, 68, 67, 57, 58, 73, 72, 62, 63, 148, 147, 60, 61, 69, 68, 59, 67, 77, 74, 56, 57, 65, 64, 63, 56, 64, 71, 72, 73, 76, 75, 73, 74, 77, 76, 93, 92, 78, 79, 58, 59, 74, 73, 65, 57, 72, 75, 91, 90, 83, 82, 82, 83, 89, 88, 78, 82, 88, 84, 95, 94, 80, 81, 90, 95, 81, 83, 92, 91, 82, 78, 94, 93, 79, 80, 85, 84, 88, 89, 86, 85, 89, 87, 123, 122, 110, 112, 83, 81, 87, 89, 81, 80, 86, 87, 103, 102, 97, 98, 139, 135, 93, 94, 138, 134, 91, 92, 137, 136, 95, 90, 136, 139, 94, 95, 134, 137, 90, 91, 135, 138, 92, 93, 98, 97, 160, 161, 100, 101, 164, 163, 106, 105, 99, 96, 121, 120, 108, 109, 107, 103, 98, 101, 102, 106, 96, 97, 79, 78, 106, 102, 86, 80, 103, 107, 85, 86, 107, 104, 78, 84, 105, 106, 80, 79, 102, 103, 84, 85, 104, 105, 111, 112, 118, 117, 109, 108, 114, 115, 124, 123, 112, 111, 122, 121, 109, 110, 125, 124, 111, 113, 120, 125, 113, 108, 112, 110, 116, 118, 110, 109, 115, 116, 113, 111, 117, 119, 108, 113, 119, 114, 117, 118, 314, 316, 119, 315, 311, 114, 117, 316, 315, 119, 118, 116, 313, 314, 115, 312, 313, 116, 99, 105, 125, 120, 105, 104, 124, 125, 101, 100, 121, 122, 104, 107, 123, 124, 100, 99, 120, 121, 107, 101, 122, 123, 54, 55, 132, 133, 49, 50, 129, 130, 51, 52, 127, 128, 53, 54, 133, 126, 55, 48, 131, 132, 48, 49, 130, 131, 50, 51, 128, 129, 52, 53, 126, 127, 66, 65, 138, 135, 70, 158, 68, 69, 75, 76, 137, 134, 77, 67, 139, 136, 76, 77, 136, 137, 65, 75, 134, 138, 67, 66, 135, 139, 9, 1, 15, 11, 11, 15, 13, 7, 3, 1, 9, 337, 140, 141, 339, 339, 141, 142, 341, 341, 142, 143, 343, 343, 143, 144, 345, 345, 144, 145, 347, 347, 145, 140, 337, 130, 57, 56, 131, 150, 149, 155, 156, 148, 151, 157, 154, 63, 71, 151, 148, 71, 70, 150, 151, 61, 62, 147, 146, 69, 61, 146, 149, 152, 153, 156, 155, 153, 154, 157, 156, 146, 147, 153, 152, 149, 146, 152, 155, 151, 150, 156, 157, 147, 148, 154, 153, 161, 160, 166, 167, 68, 158, 66, 67, 158, 64, 65, 66, 163, 164, 170, 169, 101, 98, 161, 164, 96, 99, 162, 159, 99, 100, 163, 162, 97, 96, 159, 160, 167, 166, 169, 170, 166, 165, 168, 169, 164, 161, 167, 170, 159, 162, 168, 165, 162, 163, 169, 168, 160, 159, 165, 166, 114, 311, 312, 115, 37, 38, 176, 177, 39, 32, 178, 175, 32, 33, 174, 178, 34, 35, 172, 173, 36, 37, 177, 171, 38, 39, 175, 176, 33, 34, 173, 174, 35, 36, 171, 172, 181, 180, 186, 187, 179, 183, 189, 185, 176, 175, 182, 184, 46, 45, 179, 180, 45, 177, 183, 179, 175, 47, 181, 182, 190, 188, 187, 186, 189, 190, 186, 185, 184, 182, 188, 190, 182, 181, 187, 188, 180, 179, 185, 186, 183, 184, 190, 189, 191, 193, 194, 192, 193, 195, 196, 194, 195, 197, 198, 196, 197, 199, 200, 198, 199, 201, 202, 200, 201, 203, 204, 202, 194, 196, 198, 203, 205, 206, 204, 205, 191, 192, 206, 193, 208, 209, 195, 209, 217, 218, 210, 199, 211, 212, 201, 205, 214, 207, 191, 191, 207, 208, 193, 195, 209, 210, 197, 201, 212, 213, 203, 197, 210, 211, 199, 203, 213, 214, 205, 221, 229, 230, 222, 207, 215, 216, 208, 214, 222, 215, 207, 212, 220, 221, 213, 210, 218, 219, 211, 208, 216, 217, 209, 213, 221, 222, 214, 211, 219, 220, 212, 375, 234, 235, 374, 219, 227, 228, 220, 217, 225, 226, 218, 215, 223, 224, 216, 222, 230, 223, 215, 220, 228, 229, 221, 218, 226, 227, 219, 216, 224, 225, 217, 238, 246, 239, 231, 377, 232, 233, 376, 238, 384, 383, 237, 374, 235, 236, 380, 376, 233, 234, 375, 381, 231, 232, 377, 378, 238, 231, 381, 380, 386, 387, 379, 330, 323, 252, 253, 236, 244, 245, 237, 234, 242, 243, 235, 232, 240, 241, 233, 237, 245, 246, 238, 235, 243, 244, 236, 233, 241, 242, 234, 231, 239, 240, 232, 247, 328, 329, 254, 251, 324, 325, 250, 249, 326, 327, 248, 330, 253, 254, 329, 323, 324, 251, 252, 325, 326, 249, 250, 261, 353, 352, 260, 255, 262, 261, 361, 250, 258, 259, 251, 248, 263, 264, 249, 253, 350, 351, 254, 251, 259, 260, 252, 250, 265, 268, 258, 247, 255, 256, 248, 254, 262, 255, 247, 263, 266, 267, 264, 264, 267, 268, 265, 284, 270, 269, 283, 249, 264, 265, 250, 256, 266, 263, 248, 282, 273, 274, 281, 273, 279, 280, 274, 269, 275, 279, 273, 286, 272, 271, 285, 281, 274, 272, 286, 283, 269, 273, 282, 285, 271, 270, 284, 276, 280, 279, 275, 277, 278, 280, 276, 320, 303, 301, 319, 274, 280, 278, 272, 272, 278, 277, 271, 294, 289, 288, 293, 336, 285, 284, 332, 335, 283, 282, 331, 334, 281, 286, 333, 333, 286, 285, 336, 331, 282, 281, 334, 332, 284, 283, 335, 289, 364, 363, 288, 291, 366, 367, 292, 297, 287, 290, 296, 318, 300, 299, 317, 298, 292, 289, 294, 293, 288, 287, 297, 270, 293, 297, 269, 277, 298, 294, 271, 276, 295, 298, 277, 269, 297, 296, 275, 271, 294, 293, 270, 275, 296, 295, 276, 302, 308, 309, 303, 300, 306, 305, 299, 321, 302, 303, 320, 319, 301, 300, 318, 322, 304, 302, 321, 317, 299, 304, 322, 303, 309, 307, 301, 301, 307, 306, 300, 304, 310, 308, 302, 299, 305, 310, 304, 308, 316, 314, 309, 310, 305, 311, 315, 308, 310, 315, 316, 309, 314, 313, 307, 306, 307, 313, 312, 290, 317, 322, 296, 296, 322, 321, 295, 292, 319, 318, 291, 295, 321, 320, 298, 291, 318, 317, 290, 298, 320, 319, 292, 245, 330, 329, 246, 240, 327, 326, 241, 242, 325, 324, 243, 244, 323, 330, 245, 246, 329, 328, 239, 239, 328, 327, 240, 241, 326, 325, 242, 243, 324, 323, 244, 257, 332, 335, 256, 261, 260, 259, 361, 266, 331, 334, 267, 268, 333, 336, 258, 267, 334, 333, 268, 256, 335, 331, 266, 258, 336, 332, 257, 200, 202, 206, 192, 202, 204, 206, 198, 200, 192, 194, 337, 339, 340, 338, 339, 341, 342, 340, 341, 343, 344, 342, 343, 345, 346, 344, 345, 347, 348, 346, 347, 337, 338, 348, 337, 347, 345, 343, 341, 339, 327, 328, 247, 248, 353, 359, 358, 352, 351, 357, 360, 354, 254, 351, 354, 262, 262, 354, 353, 261, 252, 349, 350, 253, 260, 352, 349, 252, 355, 358, 359, 356, 356, 359, 360, 357, 349, 355, 356, 350, 352, 358, 355, 349, 354, 360, 359, 353, 350, 356, 357, 351, 364, 370, 369, 363, 259, 258, 257, 361, 361, 257, 256, 255, 366, 372, 373, 367, 292, 367, 364, 289, 287, 362, 365, 290, 290, 365, 366, 291, 288, 363, 362, 287, 370, 373, 372, 369, 369, 372, 371, 368, 367, 373, 370, 364, 362, 368, 371, 365, 365, 371, 372, 366, 363, 369, 368, 362, 305, 306, 312, 311, 228, 380, 379, 229, 230, 378, 381, 223, 223, 381, 377, 224, 225, 376, 375, 226, 227, 374, 380, 228, 229, 379, 378, 230, 224, 377, 376, 225, 226, 375, 374, 227, 384, 390, 389, 383, 382, 388, 392, 386, 379, 387, 385, 378, 237, 383, 382, 236, 236, 382, 386, 380, 378, 385, 384, 238, 393, 389, 390, 391, 392, 388, 389, 393, 387, 393, 391, 385, 385, 391, 390, 384, 383, 389, 388, 382, 386, 392, 393, 387]
            rel material:binding = </root/_materials/Golden>
            normal3f[] normals = [(0.334653, 0.9406311, 0.056749623), (0.334653, 0.9406311, 0.056749623), (0.334653, 0.9406311, 0.056749623), (0.334653, 0.9406311, 0.056749623), (0.82329404, 0.5084213, 0.25237805), (0.82329404, 0.5084213, 0.25237805), (0.82329404, 0.5084213, 0.25237805), (0.82329404, 0.5084213, 0.25237805), (0.8232926, -0.5084235, 0.25237826), (0.8232926, -0.5084235, 0.25237826), (0.8232926, -0.5084235, 0.25237826), (0.8232926, -0.5084235, 0.25237826), (0.33465362, -0.94063085, 0.05674987), (0.33465362, -0.94063085, 0.05674987), (0.33465362, -0.94063085, 0.05674987), (0.33465362, -0.94063085, 0.05674987), (-0.36315554, -0.882698, -0.2982654), (-0.36315554, -0.882698, -0.2982654), (-0.36315554, -0.882698, -0.2982654), (-0.36315554, -0.882698, -0.2982654), (-0.73618776, -0.50641865, -0.44896293), (-0.73618776, -0.50641865, -0.44896293), (-0.73618776, -0.50641865, -0.44896293), (-0.73618776, -0.50641865, -0.44896293), (-0.60524666, 0, 0.79603803), (-0.60524666, 0, 0.79603803), (-0.60524666, 0, 0.79603803), (-0.73618805, 0.5064184, -0.44896272), (-0.73618805, 0.5064184, -0.44896272), (-0.73618805, 0.5064184, -0.44896272), (-0.73618805, 0.5064184, -0.44896272), (-0.3631555, 0.88269794, -0.29826558), (-0.3631555, 0.88269794, -0.29826558), (-0.3631555, 0.88269794, -0.29826558), (-0.3631555, 0.88269794, -0.29826558), (0.71457547, 0.37716898, -0.58917356), (0.71457547, 0.37716898, -0.58917356), (0.71457547, 0.37716898, -0.58917356), (0.71457547, 0.37716898, -0.58917356), (0.7408615, -0.37625453, -0.55637836), (0.7408615, -0.37625453, -0.55637836), (0.7408615, -0.37625453, -0.55637836), (0.7408615, -0.37625453, -0.55637836), (-0.30973598, -0.9294327, 0.2005457), (-0.30973598, -0.9294327, 0.2005457), (-0.30973598, -0.9294327, 0.2005457), (-0.30973598, -0.9294327, 0.2005457), (-0.30973774, 0.9294321, 0.2005454), (-0.30973774, 0.9294321, 0.2005454), (-0.30973774, 0.9294321, 0.2005454), (-0.30973774, 0.9294321, 0.2005454), (0.30020368, 0.9220925, -0.24417874), (0.30020368, 0.9220925, -0.24417874), (0.30020368, 0.9220925, -0.24417874), (0.30020368, 0.9220925, -0.24417874), (0.7145781, -0.37716758, -0.5891713), (0.7145781, -0.37716758, -0.5891713), (0.7145781, -0.37716758, -0.5891713), (0.7145781, -0.37716758, -0.5891713), (-0.7873226, -0.4022331, 0.4672597), (-0.7873226, -0.4022331, 0.4672597), (-0.7873226, -0.4022331, 0.4672597), (-0.7873226, -0.4022331, 0.4672597), (0.30020368, -0.9220925, -0.2441787), (0.30020368, -0.9220925, -0.2441787), (0.30020368, -0.9220925, -0.2441787), (0.30020368, -0.9220925, -0.2441787), (-0.7873226, 0.4022331, 0.4672597), (-0.7873226, 0.4022331, 0.4672597), (-0.7873226, 0.4022331, 0.4672597), (-0.7873226, 0.4022331, 0.4672597), (-0.36909702, 0.3656408, 0.8544438), (-0.36909702, 0.3656408, 0.8544438), (-0.36909702, 0.3656408, 0.8544438), (-0.36909702, 0.3656408, 0.8544438), (0.31656364, 0.92147374, -0.225108), (0.31656364, 0.92147374, -0.225108), (0.31656364, 0.92147374, -0.225108), (0.31656364, 0.92147374, -0.225108), (-0.29234016, 0.9193264, 0.2633937), (-0.29234016, 0.9193264, 0.2633937), (-0.29234016, 0.9193264, 0.2633937), (-0.29234016, 0.9193264, 0.2633937), (-0.70393133, -0.37345442, 0.6041627), (-0.70393133, -0.37345442, 0.6041627), (-0.70393133, -0.37345442, 0.6041627), (-0.70393133, -0.37345442, 0.6041627), (0.31656414, -0.92147356, -0.22510807), (0.31656414, -0.92147356, -0.22510807), (0.31656414, -0.92147356, -0.22510807), (0.31656414, -0.92147356, -0.22510807), (0.7408615, 0.37625453, -0.5563785), (0.7408615, 0.37625453, -0.5563785), (0.7408615, 0.37625453, -0.5563785), (0.7408615, 0.37625453, -0.5563785), (-0.7039319, 0.37345406, 0.6041621), (-0.7039319, 0.37345406, 0.6041621), (-0.7039319, 0.37345406, 0.6041621), (-0.7039319, 0.37345406, 0.6041621), (-0.29233956, -0.9193266, 0.2633936), (-0.29233956, -0.9193266, 0.2633936), (-0.29233956, -0.9193266, 0.2633936), (-0.29233956, -0.9193266, 0.2633936), (0.24883357, -0.9222923, -0.29573423), (0.24883357, -0.9222923, -0.29573423), (0.24883357, -0.9222923, -0.29573423), (0.24883357, -0.9222923, -0.29573423), (-0.14673464, -0.91569865, 0.37411886), (-0.14673464, -0.91569865, 0.37411886), (-0.14673464, -0.91569865, 0.37411886), (-0.14673464, -0.91569865, 0.37411886), (0.43123126, -0.36768645, -0.8239214), (0.43123126, -0.36768645, -0.8239214), (0.43123126, -0.36768645, -0.8239214), (0.43123126, -0.36768645, -0.8239214), (0.19689927, 0.9175123, -0.34554586), (0.19689927, 0.9175123, -0.34554586), (0.19689927, 0.9175123, -0.34554586), (0.19689927, 0.9175123, -0.34554586), (-0.1467351, 0.9156985, 0.37411872), (-0.1467351, 0.9156985, 0.37411872), (-0.1467351, 0.9156985, 0.37411872), (-0.1467351, 0.9156985, 0.37411872), (-0.36909655, -0.36564136, 0.8544438), (-0.36909655, -0.36564136, 0.8544438), (-0.36909655, -0.36564136, 0.8544438), (-0.36909655, -0.36564136, 0.8544438), (0.1968995, -0.9175122, -0.34554592), (0.1968995, -0.9175122, -0.34554592), (0.1968995, -0.9175122, -0.34554592), (0.1968995, -0.9175122, -0.34554592), (0.43123072, 0.36768642, -0.82392156), (0.43123072, 0.36768642, -0.82392156), (0.43123072, 0.36768642, -0.82392156), (0.43123072, 0.36768642, -0.82392156), (-0.27074298, 0.9186524, 0.28770807), (-0.27074298, 0.9186524, 0.28770807), (-0.27074298, 0.9186524, 0.28770807), (-0.27074298, 0.9186524, 0.28770807), (0.5558647, 0.36865455, -0.74505585), (0.55498666, 0.37258598, -0.7437537), (0.5540112, 0.37689507, -0.74230826), (0.5540112, 0.37689507, -0.74230826), (-0.7964817, 0.3696856, 0.47848642), (-0.7964817, 0.3696856, 0.47848642), (-0.7964817, 0.3696856, 0.47848642), (-0.7964817, 0.3696856, 0.47848642), (-0.18931916, -0.91705287, 0.3509589), (-0.18754269, -0.9184224, 0.34832188), (-0.18936726, -0.9170156, 0.35103056), (-0.18936726, -0.9170156, 0.35103056), (0.55498725, -0.37258592, -0.74375325), (0.5558645, -0.36865452, -0.745056), (0.5540114, -0.37689498, -0.7423082), (0.5540114, -0.37689498, -0.7423082), (0.2488329, 0.92229253, -0.29573423), (0.2488329, 0.92229253, -0.29573423), (0.2488329, 0.92229253, -0.29573423), (0.2488329, 0.92229253, -0.29573423), (-0.18754244, 0.91842276, 0.3483209), (-0.18926887, 0.91709137, 0.35088566), (-0.18936603, 0.91701615, 0.35102987), (-0.18936603, 0.91701615, 0.35102987), (0.8199628, 0.35309017, -0.4505423), (0.8199628, 0.35309017, -0.4505423), (0.8199628, 0.35309017, -0.4505423), (0.8199628, 0.35309017, -0.4505423), (-0.852759, -0.40103185, 0.33462763), (-0.852759, -0.40103185, 0.33462763), (-0.852759, -0.40103185, 0.33462763), (-0.852759, -0.40103185, 0.33462763), (-0.68865746, -0.37559524, 0.6202251), (-0.68865746, -0.37559524, 0.6202251), (-0.68865746, -0.37559524, 0.6202251), (-0.68865746, -0.37559524, 0.6202251), (0.3324418, -0.922176, -0.19767118), (0.3324418, -0.922176, -0.19767118), (0.3324418, -0.922176, -0.19767118), (0.3324418, -0.922176, -0.19767118), (0.751982, 0.37885153, -0.53943926), (0.751982, 0.37885153, -0.53943926), (0.751982, 0.37885153, -0.53943926), (0.751982, 0.37885153, -0.53943926), (-0.6886588, 0.37559223, 0.6202255), (-0.6886588, 0.37559223, 0.6202255), (-0.6886588, 0.37559223, 0.6202255), (-0.6886588, 0.37559223, 0.6202255), (-0.27074313, -0.9186519, 0.28770965), (-0.27074313, -0.9186519, 0.28770965), (-0.27074313, -0.9186519, 0.28770965), (-0.27074313, -0.9186519, 0.28770965), (0.7519822, -0.37885162, -0.5394388), (0.7519822, -0.37885162, -0.5394388), (0.7519822, -0.37885162, -0.5394388), (0.7519822, -0.37885162, -0.5394388), (0.3324406, 0.9221762, -0.19767202), (0.3324406, 0.9221762, -0.19767202), (0.3324406, 0.9221762, -0.19767202), (0.3324406, 0.9221762, -0.19767202), (-0.3469051, 0.9205907, 0.17935902), (-0.3469051, 0.9205907, 0.17935902), (-0.3469051, 0.9205907, 0.17935902), (-0.3469051, 0.9205907, 0.17935902), (0.26766628, -0.962459, 0.045027915), (0.26766628, -0.962459, 0.045027915), (0.26766628, -0.962459, 0.045027915), (0.26766628, -0.962459, 0.045027915), (0.8894245, 0.4519603, -0.06823449), (0.8894245, 0.4519603, -0.06823449), (0.8894245, 0.4519603, -0.06823449), (0.8894245, 0.4519603, -0.06823449), (-0.8527593, 0.40103152, 0.33462724), (-0.8527593, 0.40103152, 0.33462724), (-0.8527593, 0.40103152, 0.33462724), (-0.8527593, 0.40103152, 0.33462724), (-0.3469053, -0.92059034, 0.17936023), (-0.3469053, -0.92059034, 0.17936023), (-0.3469053, -0.92059034, 0.17936023), (-0.3469053, -0.92059034, 0.17936023), (0.8894245, -0.4519604, -0.06823371), (0.8894245, -0.4519604, -0.06823371), (0.8894245, -0.4519604, -0.06823371), (0.8894245, -0.4519604, -0.06823371), (0.5319796, -0.23412791, -0.81374556), (0.5319796, -0.23412791, -0.81374556), (0.5319796, -0.23412791, -0.81374556), (0.5319796, -0.23412791, -0.81374556), (0.33896023, 0.14190115, -0.9300375), (0.33896023, 0.14190115, -0.9300375), (0.33896023, 0.14190115, -0.9300375), (0.33896023, 0.14190115, -0.9300375), (0.24616198, -0.96487325, 0.09178121), (0.24616198, -0.96487325, 0.09178121), (0.24616198, -0.96487325, 0.09178121), (0.24616198, -0.96487325, 0.09178121), (0.12583435, 0.28357518, 0.9506581), (0.12583435, 0.28357518, 0.9506581), (0.12583435, 0.28357518, 0.9506581), (0.12583435, 0.28357518, 0.9506581), (-0.71939486, 0.28247282, 0.63457066), (-0.71939486, 0.28247282, 0.63457066), (-0.71939486, 0.28247282, 0.63457066), (-0.71939486, 0.28247282, 0.63457066), (-0.2461629, -0.96487314, -0.091781385), (-0.2461629, -0.96487314, -0.091781385), (-0.2461629, -0.96487314, -0.091781385), (-0.2461629, -0.96487314, -0.091781385), (4.3131838e-8, -1, 7.2587596e-8), (4.3131838e-8, -1, 7.2587596e-8), (4.3131838e-8, -1, 7.2587596e-8), (4.3131838e-8, -1, 7.2587596e-8), (0.24616179, 0.9648734, 0.09178129), (0.24616179, 0.9648734, 0.09178129), (0.24616179, 0.9648734, 0.09178129), (0.24616179, 0.9648734, 0.09178129), (-0.2461621, 0.96487325, -0.09178131), (-0.2461621, 0.96487325, -0.09178131), (-0.2461621, 0.96487325, -0.09178131), (-0.2461621, 0.96487325, -0.09178131), (0.60945565, 0.49600682, 0.6184991), (0.60945565, 0.49600682, 0.6184991), (0.60945565, 0.49600682, 0.6184991), (0.60945565, 0.49600682, 0.6184991), (0.60945565, -0.49600682, 0.6184991), (0.60945565, -0.49600682, 0.6184991), (0.60945565, -0.49600682, 0.6184991), (0.60945565, -0.49600682, 0.6184991), (-0.91434276, 0.3985367, -0.07173449), (-0.91434276, 0.3985367, -0.07173449), (-0.91434276, 0.3985367, -0.07173449), (-0.91434276, 0.3985367, -0.07173449), (0.1258344, -0.2835753, 0.9506581), (0.1258344, -0.2835753, 0.9506581), (0.1258344, -0.2835753, 0.9506581), (0.1258344, -0.2835753, 0.9506581), (0, 1, 7.2587596e-8), (0, 1, 7.2587596e-8), (0, 1, 7.2587596e-8), (0, 1, 7.2587596e-8), (0.76770365, 0.5319455, 0.35730246), (0.76770365, 0.5319455, 0.35730246), (0.76770365, 0.5319455, 0.35730246), (0.76770365, 0.5319455, 0.35730246), (0.8828219, 0.4393562, -0.16610728), (0.8828219, 0.4393562, -0.16610728), (0.8828219, 0.4393562, -0.16610728), (0.8828219, 0.4393562, -0.16610728), (2.0315467e-7, 1, -1.3930617e-7), (3.9081402e-7, 1, -2.4443477e-7), (3.9081402e-7, 1, -2.4443477e-7), (7.01689e-8, 1, -6.480623e-8), (-0.058740713, -0.9857631, 0.15754558), (-0.058740713, -0.9857631, 0.15754558), (-0.058740713, -0.9857631, 0.15754558), (-0.058740713, -0.9857631, 0.15754558), (0.7677035, -0.53194577, 0.35730243), (0.7677035, -0.53194577, 0.35730243), (0.7677035, -0.53194577, 0.35730243), (0.7677035, -0.53194577, 0.35730243), (-0.058740713, 0.9857631, 0.15754561), (-0.058740713, 0.9857631, 0.15754561), (-0.058740713, 0.9857631, 0.15754561), (-0.058740713, 0.9857631, 0.15754561), (-0.91434276, -0.3985367, -0.07173444), (-0.91434276, -0.3985367, -0.07173444), (-0.91434276, -0.3985367, -0.07173444), (-0.91434276, -0.3985367, -0.07173444), (0.8317146, 0.035400327, -0.55407375), (0.8317146, 0.035400327, -0.55407375), (0.8317146, 0.035400327, -0.55407375), (0.8317146, 0.035400327, -0.55407375), (0.8317146, -0.03540039, -0.55407375), (0.8317146, -0.03540039, -0.55407375), (0.8317146, -0.03540039, -0.55407375), (0.8317146, -0.03540039, -0.55407375), (-0.16574624, -0.57624215, 0.8002957), (-0.16574624, -0.57624215, 0.8002957), (-0.16574624, -0.57624215, 0.8002957), (-0.16574624, -0.57624215, 0.8002957), (0.88282216, -0.43935594, -0.16610684), (0.88282216, -0.43935594, -0.16610684), (0.88282216, -0.43935594, -0.16610684), (0.88282216, -0.43935594, -0.16610684), (-3.1716894e-7, -1, 0), (-1.8075825e-7, -1, 2.3605418e-8), (-8.409002e-8, -1, 4.033354e-8), (-3.1716894e-7, -1, 0), (-0.5265469, -0.1791889, 0.8310473), (-0.5265469, -0.1791889, 0.8310473), (-0.5265469, -0.1791889, 0.8310473), (-0.5265469, -0.1791889, 0.8310473), (-0.87476444, -0.24075265, -0.42050603), (-0.87476444, -0.24075265, -0.42050603), (-0.87476444, -0.24075265, -0.42050603), (-0.87476444, -0.24075265, -0.42050603), (0.042952947, 0.9886561, -0.14392415), (0.042952947, 0.9886561, -0.14392415), (0.042952947, 0.9886561, -0.14392415), (0.042952947, 0.9886561, -0.14392415), (0.83059025, -0.52883786, 0.17450008), (0.8304931, -0.528863, 0.1748863), (0.8306257, -0.5288265, 0.1743657), (0.8306257, -0.5288265, 0.1743657), (0.0381994, -0.99103874, -0.12799631), (0.0381994, -0.99103874, -0.12799631), (0.0381994, -0.99103874, -0.12799631), (0.0381994, -0.99103874, -0.12799631), (0.8329144, 0.5281638, 0.16521658), (0.8329144, 0.5281638, 0.16521658), (0.8329144, 0.5281638, 0.16521658), (0.8329144, 0.5281638, 0.16521658), (-0.8729103, 0.24101856, -0.42419055), (-0.8729103, 0.24101856, -0.42419055), (-0.8729103, 0.24101856, -0.42419055), (-0.8729103, 0.24101856, -0.42419055), (-0.50752056, -0.2485657, 0.82500774), (-0.50752056, -0.2485657, 0.82500774), (-0.50752056, -0.2485657, 0.82500774), (-0.50752056, -0.2485657, 0.82500774), (0.17199, -0.11622347, -0.97821856), (0.17199, -0.11622347, -0.97821856), (0.17199, -0.11622347, -0.97821856), (0.17199, -0.11622347, -0.97821856), (-1.6722822e-8, 1, -1.07282165e-8), (1.9055846e-10, 1, -1.703069e-8), (3.026928e-8, 1, -2.8238995e-8), (3.026928e-8, 1, -2.8238995e-8), (-0.73792464, 0.2305658, 0.63427657), (-0.73792464, 0.2305658, 0.63427657), (-0.73792464, 0.2305658, 0.63427657), (-0.73792464, 0.2305658, 0.63427657), (-1.8255141e-8, -1, 3.881503e-8), (-1.149953e-8, -1, 4.4762e-8), (-3.0269273e-8, -1, 2.8238986e-8), (-3.0269273e-8, -1, 2.8238986e-8), (-0.5265472, 0.17918865, 0.8310472), (-0.5265472, 0.17918865, 0.8310472), (-0.5265472, 0.17918865, 0.8310472), (-0.5265472, 0.17918865, 0.8310472), (-0.5318487, 0.11187257, 0.8394174), (-0.5318487, 0.11187257, 0.8394174), (-0.5318487, 0.11187257, 0.8394174), (-0.5318487, 0.11187257, 0.8394174), (-8.409002e-8, -1, 4.033354e-8), (-1.8075825e-7, -1, 2.3605418e-8), (-1.149953e-8, -1, 4.4762e-8), (-1.8255141e-8, -1, 3.881503e-8), (0.52011573, 2.215301e-11, -0.8540958), (0.52011573, 0.00023763503, -0.8540958), (0.52011573, 0.00023763503, -0.8540958), (0.52011573, 0, -0.85409576), (2.0315467e-7, 1, -1.3930617e-7), (7.01689e-8, 1, -6.480623e-8), (1.9055846e-10, 1, -1.703069e-8), (-1.6722822e-8, 1, -1.07282165e-8), (-0.5318491, -0.111873135, 0.83941704), (-0.5318491, -0.111873135, 0.83941704), (-0.5318491, -0.111873135, 0.83941704), (-0.5318491, -0.111873135, 0.83941704), (0.5201157, -0.000237635, -0.8540958), (0.52011573, 2.215301e-11, -0.8540958), (0.52011573, 0, -0.85409576), (0.5201157, -0.000237635, -0.8540958), (0.8320997, -0.15657648, 0.5320659), (0.8320997, -0.15657648, 0.5320659), (0.8320997, -0.15657648, 0.5320659), (0.8320997, -0.15657648, 0.5320659), (-0.8771408, 0.45134512, 0.16404738), (-0.8771408, 0.45134512, 0.16404738), (-0.8771408, 0.45134512, 0.16404738), (-0.8771408, 0.45134512, 0.16404738), (0.59715474, -0.08994005, 0.79706776), (0.59715474, -0.08994005, 0.79706776), (0.59715474, -0.08994005, 0.79706776), (0.59715474, -0.08994005, 0.79706776), (-0.737925, -0.23056556, 0.63427615), (-0.737925, -0.23056556, 0.63427615), (-0.737925, -0.23056556, 0.63427615), (-0.737925, -0.23056556, 0.63427615), (0.59715503, 0.08993933, 0.7970676), (0.59715503, 0.08993933, 0.7970676), (0.59715503, 0.08993933, 0.7970676), (0.59715503, 0.08993933, 0.7970676), (-0.16574606, 0.57624227, 0.80029565), (-0.16574606, 0.57624227, 0.80029565), (-0.16574606, 0.57624227, 0.80029565), (-0.16574606, 0.57624227, 0.80029565), (0.002576535, -0.99991924, -0.012440671), (0.002576535, -0.99991924, -0.012440671), (0.002576535, -0.99991924, -0.012440671), (0.002576535, -0.99991924, -0.012440671), (-0.8771409, -0.4513451, 0.16404738), (-0.8771409, -0.4513451, 0.16404738), (-0.8771409, -0.4513451, 0.16404738), (-0.8771409, -0.4513451, 0.16404738), (0.8320996, 0.15657571, 0.53206605), (0.8320996, 0.15657571, 0.53206605), (0.8320996, 0.15657571, 0.53206605), (0.8320996, 0.15657571, 0.53206605), (0.0025765093, 0.99991924, -0.012440486), (0.0025765093, 0.99991924, -0.012440486), (0.0025765093, 0.99991924, -0.012440486), (0.0025765093, 0.99991924, -0.012440486), (0.95439035, -0.17729186, -0.24022222), (0.95439035, -0.17729186, -0.24022222), (0.95439035, -0.17729186, -0.24022222), (0.95439035, -0.17729186, -0.24022222), (-0.0021175505, 0.999825, 0.018587532), (-0.0021175505, 0.999825, 0.018587532), (-0.0021175505, 0.999825, 0.018587532), (-0.0021175505, 0.999825, 0.018587532), (0.9543905, 0.17729084, -0.24022226), (0.9543905, 0.17729084, -0.24022226), (0.9543905, 0.17729084, -0.24022226), (0.9543905, 0.17729084, -0.24022226), (-0.0021175463, -0.99982494, 0.018587505), (-0.0021175463, -0.99982494, 0.018587505), (-0.0021175463, -0.99982494, 0.018587505), (-0.0021175463, -0.99982494, 0.018587505), (-0.8498687, -0.516135, 0.10643194), (-0.8498687, -0.516135, 0.10643194), (-0.8498687, -0.516135, 0.10643194), (-0.8498687, -0.516135, 0.10643194), (-0.021123193, 0.9983873, 0.0526943), (-0.021123193, 0.9983873, 0.0526943), (-0.021123193, 0.9983873, 0.0526943), (-0.021123193, 0.9983873, 0.0526943), (0.95384485, 0.12678559, 0.27222306), (0.95384485, 0.12678559, 0.27222306), (0.95384485, 0.12678559, 0.27222306), (0.95384485, 0.12678559, 0.27222306), (-0.8868455, -0.380796, -0.26172414), (-0.8868455, -0.380796, -0.26172414), (-0.8868455, -0.380796, -0.26172414), (-0.8868455, -0.380796, -0.26172414), (0.95384485, -0.1267861, 0.27222264), (0.95384485, -0.1267861, 0.27222264), (0.95384485, -0.1267861, 0.27222264), (0.95384485, -0.1267861, 0.27222264), (-0.8868455, 0.38079593, -0.2617239), (-0.8868455, 0.38079593, -0.2617239), (-0.8868455, 0.38079593, -0.2617239), (-0.8868455, 0.38079593, -0.2617239), (-0.021123301, -0.9983873, 0.05269423), (-0.021123301, -0.9983873, 0.05269423), (-0.021123301, -0.9983873, 0.05269423), (-0.021123301, -0.9983873, 0.05269423), (-0.83897007, 0.3709294, 0.39817157), (-0.83897007, 0.3709294, 0.39817157), (-0.83897007, 0.3709294, 0.39817157), (-0.83897007, 0.3709294, 0.39817157), (0.83487326, 0.3703028, -0.4072622), (0.83487326, 0.3703028, -0.4072622), (0.83487326, 0.3703028, -0.4072622), (0.83487326, 0.3703028, -0.4072622), (0.2950409, -0.9393014, -0.17511052), (0.2950409, -0.9393014, -0.17511052), (0.2950409, -0.9393014, -0.17511052), (0.2950409, -0.9393014, -0.17511052), (-0.8389688, -0.37093192, 0.39817187), (-0.8389688, -0.37093192, 0.39817187), (-0.8389688, -0.37093192, 0.39817187), (-0.8389688, -0.37093192, 0.39817187), (-0.35960594, 0.9194414, 0.15909466), (-0.35960594, 0.9194414, 0.15909466), (-0.35960594, 0.9194414, 0.15909466), (-0.35960594, 0.9194414, 0.15909466), (0.29504043, 0.9393014, -0.17511137), (0.29504043, 0.9393014, -0.17511137), (0.29504043, 0.9393014, -0.17511137), (0.29504043, 0.9393014, -0.17511137), (0.83487326, -0.37030306, -0.4072619), (0.83487326, -0.37030306, -0.4072619), (0.83487326, -0.37030306, -0.4072619), (0.83487326, -0.37030306, -0.4072619), (-0.35960656, -0.91944087, 0.15909606), (-0.35960656, -0.91944087, 0.15909606), (-0.35960656, -0.91944087, 0.15909606), (-0.35960656, -0.91944087, 0.15909606), (0.002766306, 0.16705644, -0.9859435), (0.002766306, 0.16705644, -0.9859435), (0.002766306, 0.16705644, -0.9859435), (0.002766306, 0.16705644, -0.9859435), (0.33895767, -0.141903, -0.93003833), (0.33895767, -0.141903, -0.93003833), (0.33895767, -0.141903, -0.93003833), (0.33895767, -0.141903, -0.93003833), (0.8211199, 0.530936, 0.20944908), (0.8211199, 0.530936, 0.20944908), (0.8211199, 0.530936, 0.20944908), (0.8211199, 0.530936, 0.20944908), (0.24072807, -0.5942637, -0.76739866), (0.24072807, -0.5942637, -0.76739866), (0.24072807, -0.5942637, -0.76739866), (0.24072807, -0.5942637, -0.76739866), (0.8293727, -0.5291599, 0.17925078), (0.8293727, -0.5291599, 0.17925078), (0.8304931, -0.528863, 0.1748863), (0.83059025, -0.52883786, 0.17450008), (0.23548922, 0.6172474, -0.7507), (0.23548922, 0.6172474, -0.7507), (0.23548922, 0.6172474, -0.7507), (0.23548922, 0.6172474, -0.7507), (0.009232979, -0.16663687, -0.98597515), (0.009232979, -0.16663687, -0.98597515), (0.009232979, -0.16663687, -0.98597515), (0.009232979, -0.16663687, -0.98597515), (0.41485333, 0, 0.9098883), (0.41485333, 0, 0.9098883), (0.41485333, 0, 0.9098883), (0.41485333, 0, 0.9098883), (-0.6052503, 0, 0.7960353), (-0.6052503, 0, 0.7960353), (-0.6052503, 0, 0.7960353), (-0.94519794, 0, 0.3264979), (-0.94519794, 0, 0.3264979), (-0.94519794, 0, 0.3264979), (-0.94519794, 0, 0.3264979), (0.49999774, 0.8660267, 0), (0.49999774, 0.8660267, 0), (0.49999774, 0.8660267, 0), (0.49999774, 0.8660267, 0), (1, 0, 0), (1, 0, 0), (1, 0, 0), (1, 0, 0), (0.49999774, -0.86602676, 0), (0.49999774, -0.86602676, 0), (0.49999774, -0.86602676, 0), (0.49999774, -0.86602676, 0), (-0.50000006, -0.8660254, 0), (-0.50000006, -0.8660254, 0), (-0.50000006, -0.8660254, 0), (-0.50000006, -0.8660254, 0), (-1, 0, 0), (-1, 0, 0), (-1, 0, 0), (-1, 0, 0), (-0.5000001, 0.8660254, 0), (-0.5000001, 0.8660254, 0), (-0.5000001, 0.8660254, 0), (-0.5000001, 0.8660254, 0), (0.26766655, 0.962459, 0.045026552), (0.26766655, 0.962459, 0.045026552), (0.26766655, 0.962459, 0.045026552), (0.26766655, 0.962459, 0.045026552), (0.86931735, -0.19455956, -0.45435002), (0.86931735, -0.19455956, -0.45435002), (0.86931735, -0.19455956, -0.45435002), (0.86931735, -0.19455956, -0.45435002), (-0.19197299, 0.97063017, -0.14499424), (-0.19197299, 0.97063017, -0.14499424), (-0.19197299, 0.97063017, -0.14499424), (-0.19197299, 0.97063017, -0.14499424), (-0.2836347, 0.94974005, -0.13245858), (-0.2836347, 0.94974005, -0.13245858), (-0.2836347, 0.94974005, -0.13245858), (-0.2836347, 0.94974005, -0.13245858), (0.53198004, 0.23412286, -0.81374675), (0.53198004, 0.23412286, -0.81374675), (0.53198004, 0.23412286, -0.81374675), (0.53198004, 0.23412286, -0.81374675), (-0.7193946, -0.2824699, 0.6345725), (-0.7193946, -0.2824699, 0.6345725), (-0.7193946, -0.2824699, 0.6345725), (-0.7193946, -0.2824699, 0.6345725), (-0.28363276, -0.94974077, -0.13245745), (-0.28363276, -0.94974077, -0.13245745), (-0.28363276, -0.94974077, -0.13245745), (-0.28363276, -0.94974077, -0.13245745), (-0.34155777, -0.6992803, -0.6279693), (-0.34155777, -0.6992803, -0.6279693), (-0.34155777, -0.6992803, -0.6279693), (-0.34155777, -0.6992803, -0.6279693), (-0.34155792, 0.699277, -0.62797284), (-0.34155792, 0.699277, -0.62797284), (-0.34155792, 0.699277, -0.62797284), (-0.34155792, 0.699277, -0.62797284), (-0.8076401, -0.5874186, 0.051543713), (-0.8076401, -0.5874186, 0.051543713), (-0.8076401, -0.5874186, 0.051543713), (-0.8076401, -0.5874186, 0.051543713), (-0.19197045, -0.97063094, -0.14499335), (-0.19197045, -0.97063094, -0.14499335), (-0.19197045, -0.97063094, -0.14499335), (-0.19197045, -0.97063094, -0.14499335), (0.8693181, 0.19455495, -0.4543505), (0.8693181, 0.19455495, -0.4543505), (0.8693181, 0.19455495, -0.4543505), (0.8693181, 0.19455495, -0.4543505), (-0.8076379, 0.587422, 0.051542114), (-0.8076379, 0.587422, 0.051542114), (-0.8076379, 0.587422, 0.051542114), (-0.8076379, 0.587422, 0.051542114), (-0.4863441, -0.21334857, 0.8473204), (-0.4863441, -0.21334857, 0.8473204), (-0.4863441, -0.21334857, 0.8473204), (-0.4863441, -0.21334857, 0.8473204), (0.3727714, -0.1106215, -0.9213058), (0.3727714, -0.1106215, -0.9213058), (0.3727714, -0.1106215, -0.9213058), (0.3727714, -0.1106215, -0.9213058), (0.37277058, 0.11062149, -0.92130613), (0.37277058, 0.11062149, -0.92130613), (0.37277058, 0.11062149, -0.92130613), (0.37277058, 0.11062149, -0.92130613), (0.32603818, -0.089735344, -0.9410881), (0.32603818, -0.089735344, -0.9410881), (0.32603818, -0.089735344, -0.9410881), (0.32603818, -0.089735344, -0.9410881), (-0.17908439, -0.9838062, -0.0073639485), (-0.17908439, -0.9838062, -0.0073639485), (-0.17908439, -0.9838062, -0.0073639485), (-0.17908439, -0.9838062, -0.0073639485), (-0.1790846, 0.9838061, -0.007363666), (-0.1790846, 0.9838061, -0.007363666), (-0.1790846, 0.9838061, -0.007363666), (-0.1790846, 0.9838061, -0.007363666), (0.17199041, 0.11622347, -0.97821844), (0.17199041, 0.11622347, -0.97821844), (0.17199041, 0.11622347, -0.97821844), (0.17199041, 0.11622347, -0.97821844), (-0.5075208, 0.24856608, 0.82500756), (-0.5075208, 0.24856608, 0.82500756), (-0.5075208, 0.24856608, 0.82500756), (-0.5075208, 0.24856608, 0.82500756), (-0.5949929, -0.5591832, -0.5773193), (-0.5949929, -0.5591832, -0.5773193), (-0.5949929, -0.5591832, -0.5773193), (-0.5949929, -0.5591832, -0.5773193), (-0.594993, 0.55918324, -0.57731926), (-0.594993, 0.55918324, -0.57731926), (-0.594993, 0.55918324, -0.57731926), (-0.594993, 0.55918324, -0.57731926), (-0.16512413, -0.9860315, -0.021818005), (-0.16512413, -0.9860315, -0.021818005), (-0.16512413, -0.9860315, -0.021818005), (-0.16512413, -0.9860315, -0.021818005), (-0.16512473, 0.98603135, -0.021817695), (-0.16512473, 0.98603135, -0.021817695), (-0.16512473, 0.98603135, -0.021817695), (-0.16512473, 0.98603135, -0.021817695), (0.32603848, 0.08973538, -0.94108796), (0.32603848, 0.08973538, -0.94108796), (0.32603848, 0.08973538, -0.94108796), (0.32603848, 0.08973538, -0.94108796), (-0.48634407, 0.21334901, 0.8473202), (-0.48634407, 0.21334901, 0.8473202), (-0.48634407, 0.21334901, 0.8473202), (-0.48634407, 0.21334901, 0.8473202), (-0.8498686, 0.51613516, 0.10643195), (-0.8498686, 0.51613516, 0.10643195), (-0.8498686, 0.51613516, 0.10643195), (-0.8498686, 0.51613516, 0.10643195), (-0.48578146, -0.3703622, 0.7917375), (-0.48578146, -0.3703622, 0.7917375), (-0.48578146, -0.3703622, 0.7917375), (-0.48578146, -0.3703622, 0.7917375), (-0.18744847, 0.91849476, 0.34818166), (-0.18744847, 0.91849476, 0.34818166), (-0.18926887, 0.91709137, 0.35088566), (-0.18754244, 0.91842276, 0.3483209), (0.25632638, 0.9165927, -0.30684626), (0.25632638, 0.9165927, -0.30684626), (0.25632638, 0.9165927, -0.30684626), (0.25632638, 0.9165927, -0.30684626), (0.5559067, -0.36846873, -0.7451165), (0.5559067, -0.36846873, -0.7451165), (0.5558645, -0.36865452, -0.745056), (0.55498725, -0.37258592, -0.74375325), (-0.18744847, -0.9184945, 0.34818226), (-0.18744847, -0.9184945, 0.34818226), (-0.18754269, -0.9184224, 0.34832188), (-0.18931916, -0.91705287, 0.3509589), (-0.48578072, 0.37036064, 0.7917387), (-0.48578072, 0.37036064, 0.7917387), (-0.48578072, 0.37036064, 0.7917387), (-0.48578072, 0.37036064, 0.7917387), (0.55590576, 0.36846885, -0.7451171), (0.55590576, 0.36846885, -0.7451171), (0.55498666, 0.37258598, -0.7437537), (0.5558647, 0.36865455, -0.74505585), (0.2563268, -0.91659254, -0.3068464), (0.2563268, -0.91659254, -0.3068464), (0.2563268, -0.91659254, -0.3068464), (0.2563268, -0.91659254, -0.3068464), (-0.9455905, 0.29193786, 0.14363477), (-0.9455905, 0.29193786, 0.14363477), (-0.9455905, 0.29193786, 0.14363477), (-0.9455905, 0.29193786, 0.14363477), (0.01759789, -0.9993727, 0.030733299), (0.01759789, -0.9993727, 0.030733299), (0.01759789, -0.9993727, 0.030733299), (0.01759789, -0.9993727, 0.030733299), (0.8199634, -0.35308778, -0.4505432), (0.8199634, -0.35308778, -0.4505432), (0.8199634, -0.35308778, -0.4505432), (0.8199634, -0.35308778, -0.4505432), (-0.7964811, -0.36968896, 0.47848514), (-0.7964811, -0.36968896, 0.47848514), (-0.7964811, -0.36968896, 0.47848514), (-0.7964811, -0.36968896, 0.47848514), (-0.029103927, -0.9933823, 0.11110667), (-0.029103927, -0.9933823, 0.11110667), (-0.029103927, -0.9933823, 0.11110667), (-0.029103927, -0.9933823, 0.11110667), (-0.0291048, 0.99338204, 0.11110795), (-0.0291048, 0.99338204, 0.11110795), (-0.0291048, 0.99338204, 0.11110795), (-0.0291048, 0.99338204, 0.11110795), (-0.39005318, 0.371557, 0.84249854), (-0.39005318, 0.371557, 0.84249854), (-0.39005318, 0.371557, 0.84249854), (-0.39005318, 0.371557, 0.84249854), (-0.39005297, -0.37155807, 0.84249824), (-0.39005297, -0.37155807, 0.84249824), (-0.39005297, -0.37155807, 0.84249824), (-0.39005297, -0.37155807, 0.84249824), (0.9606055, -0.25832102, -0.10250523), (0.9606055, -0.25832102, -0.10250523), (0.9606055, -0.25832102, -0.10250523), (0.9606055, -0.25832102, -0.10250523), (0.017596861, 0.99937266, 0.030734975), (0.017596861, 0.99937266, 0.030734975), (0.017596861, 0.99937266, 0.030734975), (0.017596861, 0.99937266, 0.030734975), (-0.9455895, -0.29194102, 0.14363421), (-0.9455895, -0.29194102, 0.14363421), (-0.9455895, -0.29194102, 0.14363421), (-0.9455895, -0.29194102, 0.14363421), (0.9606043, 0.25832546, -0.10250467), (0.9606043, 0.25832546, -0.10250467), (0.9606043, 0.25832546, -0.10250467), (0.9606043, 0.25832546, -0.10250467), (0.33465236, 0.94063145, -0.05674957), (0.33465236, 0.94063145, -0.05674957), (0.33465236, 0.94063145, -0.05674957), (0.33465236, 0.94063145, -0.05674957), (0.8232938, 0.5084218, -0.2523779), (0.8232938, 0.5084218, -0.2523779), (0.8232938, 0.5084218, -0.2523779), (0.8232938, 0.5084218, -0.2523779), (0.8232922, -0.5084242, -0.2523782), (0.8232922, -0.5084242, -0.2523782), (0.8232922, -0.5084242, -0.2523782), (0.8232922, -0.5084242, -0.2523782), (0.33465308, -0.94063103, -0.05674988), (0.33465308, -0.94063103, -0.05674988), (0.33465308, -0.94063103, -0.05674988), (0.33465308, -0.94063103, -0.05674988), (-0.36315536, -0.8826981, 0.29826528), (-0.36315536, -0.8826981, 0.29826528), (-0.36315536, -0.8826981, 0.29826528), (-0.36315536, -0.8826981, 0.29826528), (-0.7361873, -0.50641924, 0.44896305), (-0.7361873, -0.50641924, 0.44896305), (-0.7361873, -0.50641924, 0.44896305), (-0.7361873, -0.50641924, 0.44896305), (-0.60524666, 0, -0.79603803), (-0.60524666, 0, -0.79603803), (-0.60524666, 0, -0.79603803), (-0.7361881, 0.5064185, 0.44896248), (-0.7361881, 0.5064185, 0.44896248), (-0.7361881, 0.5064185, 0.44896248), (-0.7361881, 0.5064185, 0.44896248), (-0.36315534, 0.88269806, 0.29826546), (-0.36315534, 0.88269806, 0.29826546), (-0.36315534, 0.88269806, 0.29826546), (-0.36315534, 0.88269806, 0.29826546), (0.7145755, 0.3771698, 0.589173), (0.7145755, 0.3771698, 0.589173), (0.7145755, 0.3771698, 0.589173), (0.7145755, 0.3771698, 0.589173), (0.74086136, -0.37625456, 0.5563784), (0.74086136, -0.37625456, 0.5563784), (0.74086136, -0.37625456, 0.5563784), (0.74086136, -0.37625456, 0.5563784), (-0.30973685, -0.9294324, -0.20054574), (-0.30973685, -0.9294324, -0.20054574), (-0.30973685, -0.9294324, -0.20054574), (-0.30973685, -0.9294324, -0.20054574), (-0.30973774, 0.9294321, -0.20054549), (-0.30973774, 0.9294321, -0.20054549), (-0.30973774, 0.9294321, -0.20054549), (-0.30973774, 0.9294321, -0.20054549), (0.30020356, 0.9220925, 0.24417889), (0.30020356, 0.9220925, 0.24417889), (0.30020356, 0.9220925, 0.24417889), (0.30020356, 0.9220925, 0.24417889), (0.71457785, -0.37716854, 0.589171), (0.71457785, -0.37716854, 0.589171), (0.71457785, -0.37716854, 0.589171), (0.71457785, -0.37716854, 0.589171), (-0.78732276, -0.402233, -0.46725962), (-0.78732276, -0.402233, -0.46725962), (-0.78732276, -0.402233, -0.46725962), (-0.78732276, -0.402233, -0.46725962), (0.3002035, -0.9220926, 0.24417853), (0.3002035, -0.9220926, 0.24417853), (0.3002035, -0.9220926, 0.24417853), (0.3002035, -0.9220926, 0.24417853), (-0.787323, 0.4022327, -0.4672593), (-0.787323, 0.4022327, -0.4672593), (-0.787323, 0.4022327, -0.4672593), (-0.787323, 0.4022327, -0.4672593), (-0.36909732, 0.3656405, -0.8544438), (-0.36909732, 0.3656405, -0.8544438), (-0.36909732, 0.3656405, -0.8544438), (-0.36909732, 0.3656405, -0.8544438), (0.31656364, 0.9214737, 0.22510794), (0.31656364, 0.9214737, 0.22510794), (0.31656364, 0.9214737, 0.22510794), (0.31656364, 0.9214737, 0.22510794), (-0.29233992, 0.9193264, -0.2633938), (-0.29233992, 0.9193264, -0.2633938), (-0.29233992, 0.9193264, -0.2633938), (-0.29233992, 0.9193264, -0.2633938), (-0.7039313, -0.37345526, -0.6041622), (-0.7039313, -0.37345526, -0.6041622), (-0.7039313, -0.37345526, -0.6041622), (-0.7039313, -0.37345526, -0.6041622), (0.31656432, -0.9214735, 0.22510797), (0.31656432, -0.9214735, 0.22510797), (0.31656432, -0.9214735, 0.22510797), (0.31656432, -0.9214735, 0.22510797), (0.74086154, 0.37625447, 0.55637836), (0.74086154, 0.37625447, 0.55637836), (0.74086154, 0.37625447, 0.55637836), (0.74086154, 0.37625447, 0.55637836), (-0.70393145, 0.3734552, -0.6041621), (-0.70393145, 0.3734552, -0.6041621), (-0.70393145, 0.3734552, -0.6041621), (-0.70393145, 0.3734552, -0.6041621), (-0.29233962, -0.9193264, -0.2633937), (-0.29233962, -0.9193264, -0.2633937), (-0.29233962, -0.9193264, -0.2633937), (-0.29233962, -0.9193264, -0.2633937), (0.24883345, -0.9222925, 0.2957342), (0.24883345, -0.9222925, 0.2957342), (0.24883345, -0.9222925, 0.2957342), (0.24883345, -0.9222925, 0.2957342), (-0.14673442, -0.9156987, -0.37411866), (-0.14673442, -0.9156987, -0.37411866), (-0.14673442, -0.9156987, -0.37411866), (-0.14673442, -0.9156987, -0.37411866), (0.43123117, -0.36768633, 0.8239215), (0.43123117, -0.36768633, 0.8239215), (0.43123117, -0.36768633, 0.8239215), (0.43123117, -0.36768633, 0.8239215), (0.19689934, 0.9175121, 0.34554598), (0.19689934, 0.9175121, 0.34554598), (0.19689934, 0.9175121, 0.34554598), (0.19689934, 0.9175121, 0.34554598), (-0.1467351, 0.9156985, -0.37411872), (-0.1467351, 0.9156985, -0.37411872), (-0.1467351, 0.9156985, -0.37411872), (-0.1467351, 0.9156985, -0.37411872), (-0.36909646, -0.36564118, -0.85444385), (-0.36909646, -0.36564118, -0.85444385), (-0.36909646, -0.36564118, -0.85444385), (-0.36909646, -0.36564118, -0.85444385), (0.19689961, -0.9175121, 0.3455461), (0.19689961, -0.9175121, 0.3455461), (0.19689961, -0.9175121, 0.3455461), (0.19689961, -0.9175121, 0.3455461), (0.43123087, 0.36768624, 0.82392156), (0.43123087, 0.36768624, 0.82392156), (0.43123087, 0.36768624, 0.82392156), (0.43123087, 0.36768624, 0.82392156), (-0.27074307, 0.9186524, -0.28770807), (-0.27074307, 0.9186524, -0.28770807), (-0.27074307, 0.9186524, -0.28770807), (-0.27074307, 0.9186524, -0.28770807), (0.5558649, 0.36865482, 0.74505556), (0.55401015, 0.37689552, 0.7423089), (0.55401015, 0.37689552, 0.7423089), (0.5549862, 0.3725863, 0.74375385), (-0.79648167, 0.3696859, -0.47848642), (-0.79648167, 0.3696859, -0.47848642), (-0.79648167, 0.3696859, -0.47848642), (-0.79648167, 0.3696859, -0.47848642), (-0.18929467, -0.917072, -0.35092247), (-0.18936701, -0.9170156, -0.35103068), (-0.18936701, -0.9170156, -0.35103068), (-0.18754257, -0.91842234, -0.34832194), (0.55498654, -0.37258616, 0.74375373), (0.5540102, -0.37689522, 0.7423089), (0.5540102, -0.37689522, 0.7423089), (0.5558537, -0.36869925, 0.7450421), (0.24883299, 0.9222925, 0.29573423), (0.24883299, 0.9222925, 0.29573423), (0.24883299, 0.9222925, 0.29573423), (0.24883299, 0.9222925, 0.29573423), (-0.18754236, 0.91842276, -0.34832102), (-0.18936633, 0.9170161, -0.35102984), (-0.18936633, 0.9170161, -0.35102984), (-0.18926902, 0.91709137, -0.35088554), (0.819963, 0.35309, 0.45054218), (0.819963, 0.35309, 0.45054218), (0.819963, 0.35309, 0.45054218), (0.819963, 0.35309, 0.45054218), (-0.8527589, -0.40103194, -0.33462754), (-0.8527589, -0.40103194, -0.33462754), (-0.8527589, -0.40103194, -0.33462754), (-0.8527589, -0.40103194, -0.33462754), (-0.6886575, -0.37559518, -0.620225), (-0.6886575, -0.37559518, -0.620225), (-0.6886575, -0.37559518, -0.620225), (-0.6886575, -0.37559518, -0.620225), (0.3324417, -0.92217606, 0.19767116), (0.3324417, -0.92217606, 0.19767116), (0.3324417, -0.92217606, 0.19767116), (0.3324417, -0.92217606, 0.19767116), (0.7519819, 0.37885153, 0.5394392), (0.7519819, 0.37885153, 0.5394392), (0.7519819, 0.37885153, 0.5394392), (0.7519819, 0.37885153, 0.5394392), (-0.6886588, 0.37559223, -0.6202255), (-0.6886588, 0.37559223, -0.6202255), (-0.6886588, 0.37559223, -0.6202255), (-0.6886588, 0.37559223, -0.6202255), (-0.27074328, -0.91865194, -0.28770968), (-0.27074328, -0.91865194, -0.28770968), (-0.27074328, -0.91865194, -0.28770968), (-0.27074328, -0.91865194, -0.28770968), (0.7519822, -0.37885168, 0.5394388), (0.7519822, -0.37885168, 0.5394388), (0.7519822, -0.37885168, 0.5394388), (0.7519822, -0.37885168, 0.5394388), (0.3324406, 0.92217624, 0.197672), (0.3324406, 0.92217624, 0.197672), (0.3324406, 0.92217624, 0.197672), (0.3324406, 0.92217624, 0.197672), (-0.34690514, 0.9205907, -0.17935902), (-0.34690514, 0.9205907, -0.17935902), (-0.34690514, 0.9205907, -0.17935902), (-0.34690514, 0.9205907, -0.17935902), (0.26766628, -0.962459, -0.045027923), (0.26766628, -0.962459, -0.045027923), (0.26766628, -0.962459, -0.045027923), (0.26766628, -0.962459, -0.045027923), (0.8894245, 0.4519603, 0.06823449), (0.8894245, 0.4519603, 0.06823449), (0.8894245, 0.4519603, 0.06823449), (0.8894245, 0.4519603, 0.06823449), (-0.85275924, 0.4010316, -0.33462718), (-0.85275924, 0.4010316, -0.33462718), (-0.85275924, 0.4010316, -0.33462718), (-0.85275924, 0.4010316, -0.33462718), (-0.3469053, -0.92059034, -0.17936023), (-0.3469053, -0.92059034, -0.17936023), (-0.3469053, -0.92059034, -0.17936023), (-0.3469053, -0.92059034, -0.17936023), (0.88942444, -0.45196044, 0.06823372), (0.88942444, -0.45196044, 0.06823372), (0.88942444, -0.45196044, 0.06823372), (0.88942444, -0.45196044, 0.06823372), (0.5319796, -0.23412791, 0.81374556), (0.5319796, -0.23412791, 0.81374556), (0.5319796, -0.23412791, 0.81374556), (0.5319796, -0.23412791, 0.81374556), (0.33896017, 0.14190117, 0.9300377), (0.33896017, 0.14190117, 0.9300377), (0.33896017, 0.14190117, 0.9300377), (0.33896017, 0.14190117, 0.9300377), (0.24616201, -0.9648733, -0.091781214), (0.24616201, -0.9648733, -0.091781214), (0.24616201, -0.9648733, -0.091781214), (0.24616201, -0.9648733, -0.091781214), (0.12583506, 0.28357515, -0.950658), (0.12583506, 0.28357515, -0.950658), (0.12583506, 0.28357515, -0.950658), (0.12583506, 0.28357515, -0.950658), (-0.71939486, 0.2824729, -0.63457066), (-0.71939486, 0.2824729, -0.63457066), (-0.71939486, 0.2824729, -0.63457066), (-0.71939486, 0.2824729, -0.63457066), (-0.24616288, -0.964873, 0.09178141), (-0.24616288, -0.964873, 0.09178141), (-0.24616288, -0.964873, 0.09178141), (-0.24616288, -0.964873, 0.09178141), (4.3131838e-8, -1, -1.4517519e-7), (4.3131838e-8, -1, -1.4517519e-7), (4.3131838e-8, -1, -1.4517519e-7), (4.3131838e-8, -1, -1.4517519e-7), (0.24616179, 0.9648734, -0.09178126), (0.24616179, 0.9648734, -0.09178126), (0.24616179, 0.9648734, -0.09178126), (0.24616179, 0.9648734, -0.09178126), (-0.24616213, 0.96487325, 0.09178129), (-0.24616213, 0.96487325, 0.09178129), (-0.24616213, 0.96487325, 0.09178129), (-0.24616213, 0.96487325, 0.09178129), (0.609455, 0.49600708, -0.6184995), (0.609455, 0.49600708, -0.6184995), (0.609455, 0.49600708, -0.6184995), (0.609455, 0.49600708, -0.6184995), (0.60945547, -0.49600688, -0.61849916), (0.60945547, -0.49600688, -0.61849916), (0.60945547, -0.49600688, -0.61849916), (0.60945547, -0.49600688, -0.61849916), (-0.91434276, 0.3985367, 0.07173449), (-0.91434276, 0.3985367, 0.07173449), (-0.91434276, 0.3985367, 0.07173449), (-0.91434276, 0.3985367, 0.07173449), (0.12583455, -0.2835753, -0.9506581), (0.12583455, -0.2835753, -0.9506581), (0.12583455, -0.2835753, -0.9506581), (0.12583455, -0.2835753, -0.9506581), (0, 1, -1.4517519e-7), (0, 1, -1.4517519e-7), (0, 1, -1.4517519e-7), (0, 1, -1.4517519e-7), (0.76770365, 0.5319455, -0.3573025), (0.76770365, 0.5319455, -0.3573025), (0.76770365, 0.5319455, -0.3573025), (0.76770365, 0.5319455, -0.3573025), (0.88282204, 0.43935612, 0.16610724), (0.88282204, 0.43935612, 0.16610724), (0.88282204, 0.43935612, 0.16610724), (0.88282204, 0.43935612, 0.16610724), (2.0315467e-7, 1, 1.3234084e-7), (7.01689e-8, 1, 6.156592e-8), (3.9081402e-7, 1, 2.3221303e-7), (3.9081402e-7, 1, 2.3221303e-7), (-0.058740713, -0.9857631, -0.15754558), (-0.058740713, -0.9857631, -0.15754558), (-0.058740713, -0.9857631, -0.15754558), (-0.058740713, -0.9857631, -0.15754558), (0.7677035, -0.5319458, -0.3573024), (0.7677035, -0.5319458, -0.3573024), (0.7677035, -0.5319458, -0.3573024), (0.7677035, -0.5319458, -0.3573024), (-0.058740713, 0.9857631, -0.15754561), (-0.058740713, 0.9857631, -0.15754561), (-0.058740713, 0.9857631, -0.15754561), (-0.058740713, 0.9857631, -0.15754561), (-0.9143427, -0.39853674, 0.07173446), (-0.9143427, -0.39853674, 0.07173446), (-0.9143427, -0.39853674, 0.07173446), (-0.9143427, -0.39853674, 0.07173446), (0.83171463, 0.03540029, 0.5540737), (0.83171463, 0.03540029, 0.5540737), (0.83171463, 0.03540029, 0.5540737), (0.83171463, 0.03540029, 0.5540737), (0.83171445, -0.035400365, 0.55407387), (0.83171445, -0.035400365, 0.55407387), (0.83171445, -0.035400365, 0.55407387), (0.83171445, -0.035400365, 0.55407387), (-0.16574624, -0.57624215, -0.8002957), (-0.16574624, -0.57624215, -0.8002957), (-0.16574624, -0.57624215, -0.8002957), (-0.16574624, -0.57624215, -0.8002957), (0.88282216, -0.439356, 0.16610686), (0.88282216, -0.439356, 0.16610686), (0.88282216, -0.439356, 0.16610686), (0.88282216, -0.439356, 0.16610686), (-3.17169e-7, -1, 0), (-3.17169e-7, -1, 0), (-8.409003e-8, -1, -5.3778052e-8), (-1.8075829e-7, -1, -3.1473892e-8), (-0.526547, -0.1791889, -0.83104724), (-0.526547, -0.1791889, -0.83104724), (-0.526547, -0.1791889, -0.83104724), (-0.526547, -0.1791889, -0.83104724), (-0.87476444, -0.24075271, 0.42050615), (-0.87476444, -0.24075271, 0.42050615), (-0.87476444, -0.24075271, 0.42050615), (-0.87476444, -0.24075271, 0.42050615), (0.042952947, 0.9886561, 0.14392413), (0.042952947, 0.9886561, 0.14392413), (0.042952947, 0.9886561, 0.14392413), (0.042952947, 0.9886561, 0.14392413), (0.8305915, -0.5288358, -0.17450076), (0.8306259, -0.52882636, -0.17436568), (0.8306259, -0.52882636, -0.17436568), (0.83048147, -0.5288657, -0.17493303), (0.0381994, -0.99103874, 0.12799631), (0.0381994, -0.99103874, 0.12799631), (0.0381994, -0.99103874, 0.12799631), (0.0381994, -0.99103874, 0.12799631), (0.8329146, 0.5281637, -0.16521652), (0.8329146, 0.5281637, -0.16521652), (0.8329146, 0.5281637, -0.16521652), (0.8329146, 0.5281637, -0.16521652), (-0.87291044, 0.24101849, 0.4241904), (-0.87291044, 0.24101849, 0.4241904), (-0.87291044, 0.24101849, 0.4241904), (-0.87291044, 0.24101849, 0.4241904), (-0.5075206, -0.24856569, -0.82500786), (-0.5075206, -0.24856569, -0.82500786), (-0.5075206, -0.24856569, -0.82500786), (-0.5075206, -0.24856569, -0.82500786), (0.17199, -0.11622345, 0.9782187), (0.17199, -0.11622345, 0.9782187), (0.17199, -0.11622345, 0.9782187), (0.17199, -0.11622345, 0.9782187), (-1.6722824e-8, 1, 0), (3.026928e-8, 1, 0), (3.026928e-8, 1, 0), (1.905562e-10, 1, 0), (-0.73792464, 0.2305658, -0.63427657), (-0.73792464, 0.2305658, -0.63427657), (-0.73792464, 0.2305658, -0.63427657), (-0.73792464, 0.2305658, -0.63427657), (-1.8255141e-8, -1, -6.3107166e-8), (-3.0269273e-8, -1, -5.6477973e-8), (-3.0269273e-8, -1, -5.6477973e-8), (-1.149953e-8, -1, -6.683481e-8), (-0.5265472, 0.17918865, -0.83104724), (-0.5265472, 0.17918865, -0.83104724), (-0.5265472, 0.17918865, -0.83104724), (-0.5265472, 0.17918865, -0.83104724), (-0.53184855, 0.111872576, -0.83941746), (-0.53184855, 0.111872576, -0.83941746), (-0.53184855, 0.111872576, -0.83941746), (-0.53184855, 0.111872576, -0.83941746), (-8.409003e-8, -1, -5.3778052e-8), (-1.8255141e-8, -1, -6.3107166e-8), (-1.149953e-8, -1, -6.683481e-8), (-1.8075829e-7, -1, -3.1473892e-8), (0.5201155, -2.215301e-11, 0.85409594), (0.52011544, -5.952285e-11, 0.85409594), (0.52011573, 0.00023763004, 0.8540958), (0.52011573, 0.00023763004, 0.8540958), (2.0315467e-7, 1, 1.3234084e-7), (-1.6722824e-8, 1, 0), (1.905562e-10, 1, 0), (7.01689e-8, 1, 6.156592e-8), (-0.5318492, -0.11187313, -0.8394169), (-0.5318492, -0.11187313, -0.8394169), (-0.5318492, -0.11187313, -0.8394169), (-0.5318492, -0.11187313, -0.8394169), (0.52011526, -0.00023763011, 0.8540961), (0.52011526, -0.00023763011, 0.8540961), (0.52011544, -5.952285e-11, 0.85409594), (0.5201155, -2.215301e-11, 0.85409594), (0.8320997, -0.15657648, -0.5320659), (0.8320997, -0.15657648, -0.5320659), (0.8320997, -0.15657648, -0.5320659), (0.8320997, -0.15657648, -0.5320659), (-0.8771408, 0.45134512, -0.16404738), (-0.8771408, 0.45134512, -0.16404738), (-0.8771408, 0.45134512, -0.16404738), (-0.8771408, 0.45134512, -0.16404738), (0.59715426, -0.08994006, -0.79706806), (0.59715426, -0.08994006, -0.79706806), (0.59715426, -0.08994006, -0.79706806), (0.59715426, -0.08994006, -0.79706806), (-0.73792535, -0.23056544, -0.6342758), (-0.73792535, -0.23056544, -0.6342758), (-0.73792535, -0.23056544, -0.6342758), (-0.73792535, -0.23056544, -0.6342758), (0.59715503, 0.08993933, -0.79706764), (0.59715503, 0.08993933, -0.79706764), (0.59715503, 0.08993933, -0.79706764), (0.59715503, 0.08993933, -0.79706764), (-0.16574606, 0.57624227, -0.80029553), (-0.16574606, 0.57624227, -0.80029553), (-0.16574606, 0.57624227, -0.80029553), (-0.16574606, 0.57624227, -0.80029553), (0.0025765353, -0.99991924, 0.012440666), (0.0025765353, -0.99991924, 0.012440666), (0.0025765353, -0.99991924, 0.012440666), (0.0025765353, -0.99991924, 0.012440666), (-0.87714094, -0.4513451, -0.16404738), (-0.87714094, -0.4513451, -0.16404738), (-0.87714094, -0.4513451, -0.16404738), (-0.87714094, -0.4513451, -0.16404738), (0.8320996, 0.15657572, -0.5320661), (0.8320996, 0.15657572, -0.5320661), (0.8320996, 0.15657572, -0.5320661), (0.8320996, 0.15657572, -0.5320661), (0.0025765093, 0.99991924, 0.012440515), (0.0025765093, 0.99991924, 0.012440515), (0.0025765093, 0.99991924, 0.012440515), (0.0025765093, 0.99991924, 0.012440515), (0.95439035, -0.17729186, 0.24022222), (0.95439035, -0.17729186, 0.24022222), (0.95439035, -0.17729186, 0.24022222), (0.95439035, -0.17729186, 0.24022222), (-0.0021175505, 0.999825, -0.018587524), (-0.0021175505, 0.999825, -0.018587524), (-0.0021175505, 0.999825, -0.018587524), (-0.0021175505, 0.999825, -0.018587524), (0.9543905, 0.17729084, 0.24022226), (0.9543905, 0.17729084, 0.24022226), (0.9543905, 0.17729084, 0.24022226), (0.9543905, 0.17729084, 0.24022226), (-0.0021175463, -0.99982494, -0.018587513), (-0.0021175463, -0.99982494, -0.018587513), (-0.0021175463, -0.99982494, -0.018587513), (-0.0021175463, -0.99982494, -0.018587513), (-0.8498687, -0.516135, -0.10643194), (-0.8498687, -0.516135, -0.10643194), (-0.8498687, -0.516135, -0.10643194), (-0.8498687, -0.516135, -0.10643194), (-0.021123193, 0.9983873, -0.0526943), (-0.021123193, 0.9983873, -0.0526943), (-0.021123193, 0.9983873, -0.0526943), (-0.021123193, 0.9983873, -0.0526943), (0.9538449, 0.1267856, -0.27222303), (0.9538449, 0.1267856, -0.27222303), (0.9538449, 0.1267856, -0.27222303), (0.9538449, 0.1267856, -0.27222303), (-0.8868455, -0.38079593, 0.26172408), (-0.8868455, -0.38079593, 0.26172408), (-0.8868455, -0.38079593, 0.26172408), (-0.8868455, -0.38079593, 0.26172408), (0.95384485, -0.1267861, -0.2722226), (0.95384485, -0.1267861, -0.2722226), (0.95384485, -0.1267861, -0.2722226), (0.95384485, -0.1267861, -0.2722226), (-0.8868456, 0.38079596, 0.2617239), (-0.8868456, 0.38079596, 0.2617239), (-0.8868456, 0.38079596, 0.2617239), (-0.8868456, 0.38079596, 0.2617239), (-0.021123301, -0.9983873, -0.05269421), (-0.021123301, -0.9983873, -0.05269421), (-0.021123301, -0.9983873, -0.05269421), (-0.021123301, -0.9983873, -0.05269421), (-0.83897, 0.3709294, -0.39817163), (-0.83897, 0.3709294, -0.39817163), (-0.83897, 0.3709294, -0.39817163), (-0.83897, 0.3709294, -0.39817163), (0.83487326, 0.3703028, 0.4072622), (0.83487326, 0.3703028, 0.4072622), (0.83487326, 0.3703028, 0.4072622), (0.83487326, 0.3703028, 0.4072622), (0.29504097, -0.93930143, 0.17511053), (0.29504097, -0.93930143, 0.17511053), (0.29504097, -0.93930143, 0.17511053), (0.29504097, -0.93930143, 0.17511053), (-0.8389687, -0.37093198, -0.39817187), (-0.8389687, -0.37093198, -0.39817187), (-0.8389687, -0.37093198, -0.39817187), (-0.8389687, -0.37093198, -0.39817187), (-0.35960588, 0.9194414, -0.15909466), (-0.35960588, 0.9194414, -0.15909466), (-0.35960588, 0.9194414, -0.15909466), (-0.35960588, 0.9194414, -0.15909466), (0.29504046, 0.9393014, 0.17511137), (0.29504046, 0.9393014, 0.17511137), (0.29504046, 0.9393014, 0.17511137), (0.29504046, 0.9393014, 0.17511137), (0.8348734, -0.37030292, 0.4072618), (0.8348734, -0.37030292, 0.4072618), (0.8348734, -0.37030292, 0.4072618), (0.8348734, -0.37030292, 0.4072618), (-0.35960653, -0.919441, -0.1590961), (-0.35960653, -0.919441, -0.1590961), (-0.35960653, -0.919441, -0.1590961), (-0.35960653, -0.919441, -0.1590961), (0.0027657445, 0.16705646, 0.9859435), (0.0027657445, 0.16705646, 0.9859435), (0.0027657445, 0.16705646, 0.9859435), (0.0027657445, 0.16705646, 0.9859435), (0.33895764, -0.141903, 0.93003833), (0.33895764, -0.141903, 0.93003833), (0.33895764, -0.141903, 0.93003833), (0.33895764, -0.141903, 0.93003833), (0.8211203, 0.5309355, -0.2094489), (0.8211203, 0.5309355, -0.2094489), (0.8211203, 0.5309355, -0.2094489), (0.8211203, 0.5309355, -0.2094489), (0.24072802, -0.5942636, 0.76739866), (0.24072802, -0.5942636, 0.76739866), (0.24072802, -0.5942636, 0.76739866), (0.24072802, -0.5942636, 0.76739866), (0.82937217, -0.52916044, -0.17925099), (0.8305915, -0.5288358, -0.17450076), (0.83048147, -0.5288657, -0.17493303), (0.82937217, -0.52916044, -0.17925099), (0.23548925, 0.6172475, 0.7507), (0.23548925, 0.6172475, 0.7507), (0.23548925, 0.6172475, 0.7507), (0.23548925, 0.6172475, 0.7507), (0.009231911, -0.16663687, 0.98597515), (0.009231911, -0.16663687, 0.98597515), (0.009231911, -0.16663687, 0.98597515), (0.009231911, -0.16663687, 0.98597515), (0.4148527, 0, -0.90988857), (0.4148527, 0, -0.90988857), (0.4148527, 0, -0.90988857), (0.4148527, 0, -0.90988857), (-0.6052503, 0, -0.7960353), (-0.6052503, 0, -0.7960353), (-0.6052503, 0, -0.7960353), (-0.945198, 0, -0.32649776), (-0.945198, 0, -0.32649776), (-0.945198, 0, -0.32649776), (-0.945198, 0, -0.32649776), (0.49999774, 0.8660267, 0), (0.49999774, 0.8660267, 0), (0.49999774, 0.8660267, 0), (0.49999774, 0.8660267, 0), (1, 0, 0), (1, 0, 0), (1, 0, 0), (1, 0, 0), (0.49999774, -0.86602676, 0), (0.49999774, -0.86602676, 0), (0.49999774, -0.86602676, 0), (0.49999774, -0.86602676, 0), (-0.50000006, -0.8660254, 0), (-0.50000006, -0.8660254, 0), (-0.50000006, -0.8660254, 0), (-0.50000006, -0.8660254, 0), (-1, 0, 0), (-1, 0, 0), (-1, 0, 0), (-1, 0, 0), (-0.5000001, 0.8660254, 0), (-0.5000001, 0.8660254, 0), (-0.5000001, 0.8660254, 0), (-0.5000001, 0.8660254, 0), (0, 0, 1), (0, 0, 1), (0, 0, 1), (0, 0, 1), (0, 0, 1), (0, 0, 1), (0.26766655, 0.962459, -0.045026552), (0.26766655, 0.962459, -0.045026552), (0.26766655, 0.962459, -0.045026552), (0.26766655, 0.962459, -0.045026552), (0.86931723, -0.19455963, 0.4543502), (0.86931723, -0.19455963, 0.4543502), (0.86931723, -0.19455963, 0.4543502), (0.86931723, -0.19455963, 0.4543502), (-0.19197303, 0.97063017, 0.1449943), (-0.19197303, 0.97063017, 0.1449943), (-0.19197303, 0.97063017, 0.1449943), (-0.19197303, 0.97063017, 0.1449943), (-0.28363472, 0.94974, 0.13245858), (-0.28363472, 0.94974, 0.13245858), (-0.28363472, 0.94974, 0.13245858), (-0.28363472, 0.94974, 0.13245858), (0.53198, 0.234123, 0.81374663), (0.53198, 0.234123, 0.81374663), (0.53198, 0.234123, 0.81374663), (0.53198, 0.234123, 0.81374663), (-0.7193947, -0.28246984, -0.6345724), (-0.7193947, -0.28246984, -0.6345724), (-0.7193947, -0.28246984, -0.6345724), (-0.7193947, -0.28246984, -0.6345724), (-0.28363276, -0.94974077, 0.13245745), (-0.28363276, -0.94974077, 0.13245745), (-0.28363276, -0.94974077, 0.13245745), (-0.28363276, -0.94974077, 0.13245745), (-0.34155786, -0.6992802, 0.6279692), (-0.34155786, -0.6992802, 0.6279692), (-0.34155786, -0.6992802, 0.6279692), (-0.34155786, -0.6992802, 0.6279692), (-0.34155798, 0.69927704, 0.62797284), (-0.34155798, 0.69927704, 0.62797284), (-0.34155798, 0.69927704, 0.62797284), (-0.34155798, 0.69927704, 0.62797284), (-0.80764, -0.5874188, -0.051543705), (-0.80764, -0.5874188, -0.051543705), (-0.80764, -0.5874188, -0.051543705), (-0.80764, -0.5874188, -0.051543705), (-0.19197051, -0.9706309, 0.1449934), (-0.19197051, -0.9706309, 0.1449934), (-0.19197051, -0.9706309, 0.1449934), (-0.19197051, -0.9706309, 0.1449934), (0.869318, 0.19455516, 0.45435044), (0.869318, 0.19455516, 0.45435044), (0.869318, 0.19455516, 0.45435044), (0.869318, 0.19455516, 0.45435044), (-0.8076377, 0.587422, -0.05154209), (-0.8076377, 0.587422, -0.05154209), (-0.8076377, 0.587422, -0.05154209), (-0.8076377, 0.587422, -0.05154209), (-0.48634416, -0.21334863, -0.8473204), (-0.48634416, -0.21334863, -0.8473204), (-0.48634416, -0.21334863, -0.8473204), (-0.48634416, -0.21334863, -0.8473204), (0.37277147, -0.11062148, 0.9213058), (0.37277147, -0.11062148, 0.9213058), (0.37277147, -0.11062148, 0.9213058), (0.37277147, -0.11062148, 0.9213058), (0.3727704, 0.110621504, 0.92130613), (0.3727704, 0.110621504, 0.92130613), (0.3727704, 0.110621504, 0.92130613), (0.3727704, 0.110621504, 0.92130613), (0.32603833, -0.08973528, 0.94108796), (0.32603833, -0.08973528, 0.94108796), (0.32603833, -0.08973528, 0.94108796), (0.32603833, -0.08973528, 0.94108796), (-0.1790844, -0.98380613, 0.0073639196), (-0.1790844, -0.98380613, 0.0073639196), (-0.1790844, -0.98380613, 0.0073639196), (-0.1790844, -0.98380613, 0.0073639196), (-0.17908461, 0.9838061, 0.007363666), (-0.17908461, 0.9838061, 0.007363666), (-0.17908461, 0.9838061, 0.007363666), (-0.17908461, 0.9838061, 0.007363666), (0.17199032, 0.116223454, 0.9782185), (0.17199032, 0.116223454, 0.9782185), (0.17199032, 0.116223454, 0.9782185), (0.17199032, 0.116223454, 0.9782185), (-0.5075208, 0.24856608, -0.82500756), (-0.5075208, 0.24856608, -0.82500756), (-0.5075208, 0.24856608, -0.82500756), (-0.5075208, 0.24856608, -0.82500756), (-0.59499264, -0.55918354, 0.5773192), (-0.59499264, -0.55918354, 0.5773192), (-0.59499264, -0.55918354, 0.5773192), (-0.59499264, -0.55918354, 0.5773192), (-0.59499276, 0.55918354, 0.5773191), (-0.59499276, 0.55918354, 0.5773191), (-0.59499276, 0.55918354, 0.5773191), (-0.59499276, 0.55918354, 0.5773191), (-0.16512413, -0.9860315, 0.021818021), (-0.16512413, -0.9860315, 0.021818021), (-0.16512413, -0.9860315, 0.021818021), (-0.16512413, -0.9860315, 0.021818021), (-0.16512473, 0.98603135, 0.021817701), (-0.16512473, 0.98603135, 0.021817701), (-0.16512473, 0.98603135, 0.021817701), (-0.16512473, 0.98603135, 0.021817701), (0.32603842, 0.089735314, 0.94108796), (0.32603842, 0.089735314, 0.94108796), (0.32603842, 0.089735314, 0.94108796), (0.32603842, 0.089735314, 0.94108796), (-0.48634407, 0.21334906, -0.8473202), (-0.48634407, 0.21334906, -0.8473202), (-0.48634407, 0.21334906, -0.8473202), (-0.48634407, 0.21334906, -0.8473202), (-0.8498686, 0.51613516, -0.10643195), (-0.8498686, 0.51613516, -0.10643195), (-0.8498686, 0.51613516, -0.10643195), (-0.8498686, 0.51613516, -0.10643195), (-0.48578128, -0.37036207, -0.7917376), (-0.48578128, -0.37036207, -0.7917376), (-0.48578128, -0.37036207, -0.7917376), (-0.48578128, -0.37036207, -0.7917376), (-0.18744826, 0.91849476, -0.3481816), (-0.18754236, 0.91842276, -0.34832102), (-0.18926902, 0.91709137, -0.35088554), (-0.18744826, 0.91849476, -0.3481816), (0.25632623, 0.9165927, 0.30684617), (0.25632623, 0.9165927, 0.30684617), (0.25632623, 0.9165927, 0.30684617), (0.25632623, 0.9165927, 0.30684617), (0.5559065, -0.3684689, 0.74511653), (0.55498654, -0.37258616, 0.74375373), (0.5558537, -0.36869925, 0.7450421), (0.5559065, -0.3684689, 0.74511653), (-0.18744856, -0.9184945, -0.3481823), (-0.18929467, -0.917072, -0.35092247), (-0.18754257, -0.91842234, -0.34832194), (-0.18744856, -0.9184945, -0.3481823), (-0.48578092, 0.3703607, -0.79173857), (-0.48578092, 0.3703607, -0.79173857), (-0.48578092, 0.3703607, -0.79173857), (-0.48578092, 0.3703607, -0.79173857), (0.5559059, 0.36846897, 0.745117), (0.5558649, 0.36865482, 0.74505556), (0.5549862, 0.3725863, 0.74375385), (0.5559059, 0.36846897, 0.745117), (0.25632676, -0.9165926, 0.30684635), (0.25632676, -0.9165926, 0.30684635), (0.25632676, -0.9165926, 0.30684635), (0.25632676, -0.9165926, 0.30684635), (-0.94559044, 0.291938, -0.14363474), (-0.94559044, 0.291938, -0.14363474), (-0.94559044, 0.291938, -0.14363474), (-0.94559044, 0.291938, -0.14363474), (0.017597914, -0.9993727, -0.030733291), (0.017597914, -0.9993727, -0.030733291), (0.017597914, -0.9993727, -0.030733291), (0.017597914, -0.9993727, -0.030733291), (0.81996346, -0.35308763, 0.45054302), (0.81996346, -0.35308763, 0.45054302), (0.81996346, -0.35308763, 0.45054302), (0.81996346, -0.35308763, 0.45054302), (-0.79648095, -0.36968917, -0.4784851), (-0.79648095, -0.36968917, -0.4784851), (-0.79648095, -0.36968917, -0.4784851), (-0.79648095, -0.36968917, -0.4784851), (-0.029103948, -0.9933823, -0.111106664), (-0.029103948, -0.9933823, -0.111106664), (-0.029103948, -0.9933823, -0.111106664), (-0.029103948, -0.9933823, -0.111106664), (-0.02910478, 0.99338204, -0.111108), (-0.02910478, 0.99338204, -0.111108), (-0.02910478, 0.99338204, -0.111108), (-0.02910478, 0.99338204, -0.111108), (-0.3900504, 0.37155718, -0.8424999), (-0.3900504, 0.37155718, -0.8424999), (-0.3900504, 0.37155718, -0.8424999), (-0.3900504, 0.37155718, -0.8424999), (-0.3900528, -0.37155813, -0.84249836), (-0.3900528, -0.37155813, -0.84249836), (-0.3900528, -0.37155813, -0.84249836), (-0.3900528, -0.37155813, -0.84249836), (0.9606056, -0.2583207, 0.10250524), (0.9606056, -0.2583207, 0.10250524), (0.9606056, -0.2583207, 0.10250524), (0.9606056, -0.2583207, 0.10250524), (0.017596977, 0.9993727, -0.030734979), (0.017596977, 0.9993727, -0.030734979), (0.017596977, 0.9993727, -0.030734979), (0.017596977, 0.9993727, -0.030734979), (-0.9455895, -0.2919412, -0.14363421), (-0.9455895, -0.2919412, -0.14363421), (-0.9455895, -0.2919412, -0.14363421), (-0.9455895, -0.2919412, -0.14363421), (0.9606044, 0.2583251, 0.10250469), (0.9606044, 0.2583251, 0.10250469), (0.9606044, 0.2583251, 0.10250469), (0.9606044, 0.2583251, 0.10250469)] (
                interpolation = "faceVarying"
            )
            point3f[] points = [(0.419148, 0.015737694, 1.0274007), (0.40487763, 0.019894004, 1.052841), (0.43383023, 0.011128231, 1.0274007), (0.41470492, 0.014067184, 1.0812905), (0.4399118, -4.0135084e-10, 1.0274007), (0.4223912, 2.5580513e-10, 1.0871346), (0.43383023, -0.011128231, 1.0274007), (0.4147049, -0.014067179, 1.0812905), (0.419148, -0.015737692, 1.0274007), (0.40487763, -0.019893996, 1.052841), (0.40446573, -0.011128228, 1.0274007), (0.38779697, -0.014067177, 1.0606287), (0.39838415, 4.742354e-10, 1.0274007), (0.38011065, 5.5022324e-9, 1.0547847), (0.40446573, 0.011128231, 1.0274007), (0.38779697, 0.014067184, 1.0606287), (0.40571618, 0.015467371, 1.0092221), (0.41593355, 0.0109370835, 1.0053202), (0.42016578, 2.4595564e-10, 1.003704), (0.41593355, -0.010937081, 1.0053202), (0.40571618, -0.015467371, 1.0092221), (0.3954988, -0.010937081, 1.013124), (0.39126664, -3.7631404e-10, 1.0147401), (0.3954988, 0.010937081, 1.013124), (0.3665152, 0.016888037, 0.9601843), (0.37558255, 0.011941649, 0.95241344), (0.37933832, 9.425346e-11, 0.9491945), (0.37558255, -0.011941646, 0.95241344), (0.3665152, -0.016888037, 0.9601843), (0.3574479, -0.011941646, 0.9679551), (0.35369208, -1.9192816e-9, 0.971174), (0.3574479, 0.011941643, 0.9679551), (0.25484192, 0.020583589, 0.9065594), (0.25860563, 0.014554793, 0.89249974), (0.2601645, -1.8507722e-8, 0.8866759), (0.25860563, -0.014554825, 0.89249974), (0.25484192, -0.020583626, 0.9065594), (0.25107828, -0.014554827, 0.92061913), (0.24951938, -2.2705581e-8, 0.92644304), (0.25107825, 0.014554786, 0.92061913), (0.116828576, 0.027737634, 0.813604), (0.13102314, 0.01961346, 0.80006874), (0.13690275, -4.020302e-8, 0.79446214), (0.13102314, -0.019613538, 0.80006874), (0.116828576, -0.02773772, 0.813604), (0.10263411, -0.01961354, 0.82713914), (0.09675458, -4.380354e-8, 0.8327459), (0.10263402, 0.019613452, 0.82713914), (0.010768664, 0.037793677, 0.68264127), (0.034719925, 0.026724128, 0.67078716), (0.044640988, -1.5000417e-7, 0.6658767), (0.034719925, -0.02672442, 0.67078716), (0.010768664, -0.037793983, 0.68264127), (-0.01318243, -0.026724422, 0.6944953), (-0.023103425, -1.5240634e-7, 0.69940585), (-0.013182573, 0.026724113, 0.6944953), (-0.07777554, 0.048673257, 0.43725336), (-0.028716264, 0.034417104, 0.4555453), (-0.008394566, -3.0879076e-7, 0.4631219), (-0.028716264, -0.03441771, 0.4555453), (-0.07777554, -0.04867387, 0.43725336), (-0.12683466, -0.034417707, 0.41896147), (-0.14715628, -3.0151332e-7, 0.411385), (-0.12683477, 0.034417093, 0.41896126), (-0.066112384, 0.048673257, 0.40597218), (-0.01705311, 0.034417104, 0.42426413), (-0.020888085, -3.070769e-7, 0.4184262), (-0.01705311, -0.03441771, 0.42426413), (-0.066112384, -0.04867387, 0.40597218), (-0.11517157, -0.034417707, 0.3876803), (-0.11347733, -3.0176145e-7, 0.38128325), (-0.11517161, 0.034417093, 0.3876801), (0.002373622, 0.034417104, 0.45143005), (0.02269532, -3.065298e-7, 0.45900664), (0.002373622, -0.034417707, 0.45143005), (0.017041741, 0.034417104, 0.43697643), (0.037363414, -3.088815e-7, 0.444553), (0.017041741, -0.03441771, 0.43697643), (0.023764325, 0.034417104, 0.3159599), (0.009220735, -3.070769e-7, 0.31012195), (0.023764325, -0.03441771, 0.3159599), (0.057859156, -0.03441771, 0.3286722), (0.057859156, 0.034417104, 0.3286722), (0.07818086, -3.088815e-7, 0.3362488), (0.03932355, 0.0344171, 0.26109093), (0.026905691, -3.071422e-7, 0.2535204), (0.03932355, -0.03441771, 0.26109093), (0.053376675, -0.034417722, 0.29545468), (0.053376675, 0.03441709, 0.29545468), (0.07072806, -3.1601124e-7, 0.30603296), (0.045341276, -3.0730203e-7, 0.4068083), (0.032833427, 0.021183355, 0.4021449), (0.011848325, 0.021183355, 0.39432064), (0.0028968612, -3.061913e-7, 0.39072743), (0.011848325, -0.021183962, 0.39432064), (0.032833427, -0.021183962, 0.4021449), (-0.030893845, 0.0344171, 0.27849478), (-0.04654129, -3.0574498e-7, 0.2776255), (-0.030893845, -0.03441771, 0.27849478), (-0.022494035, 0.034417104, 0.22340384), (-0.035854388, -3.0019297e-7, 0.21525869), (-0.022494035, -0.034417707, 0.22340384), (-0.014590431, -3.0650818e-7, 0.29624555), (0.00042459837, -0.03441771, 0.2999618), (0.017073875, -3.0556797e-7, 0.24755122), (0.012926603, 0.0344171, 0.24499804), (0.00042455067, 0.0344171, 0.2999618), (0.012926603, -0.03441771, 0.24499804), (-0.009803616, 0.046148535, 0.16503966), (-0.027345687, -2.9262566e-7, 0.16140659), (-0.009803616, -0.046149142, 0.16503966), (0.042148825, -3.017666e-7, 0.17579935), (0.036703467, -0.046149142, 0.17467159), (0.036703516, 0.046148535, 0.17467159), (-0.014772027, 0.045398552, 0.10373013), (-0.04623526, -2.9126943e-7, 0.0972139), (-0.014772027, -0.04539915, 0.10373013), (0.07840922, -3.0026177e-7, 0.12302854), (0.06864253, -0.04539915, 0.12100579), (0.06864257, 0.045398552, 0.12100579), (-0.0067185326, 0.037873413, 0.171637), (-0.02111502, -2.94415e-7, 0.1686554), (-0.0067185326, -0.03787402, 0.171637), (0.031449217, -0.03787402, 0.17954178), (0.035918158, -3.0191683e-7, 0.18046731), (0.031449266, 0.037873413, 0.17954178), (-0.07213929, -0.02425465, 0.5734895), (-0.04791983, -0.034301173, 0.5721908), (-0.012451611, -0.024254652, 0.57089216), (-0.0024192953, -2.1615632e-7, 0.570354), (-0.012451611, 0.024254223, 0.57089216), (-0.04791983, 0.03430074, 0.5721908), (-0.07213938, 0.024254212, 0.57348937), (-0.08217151, -2.1474148e-7, 0.5740276), (0.024297887, 0.025866354, 0.43020496), (-0.0056821615, 0.00026383167, 0.4185092), (0.024297887, -0.025338689, 0.43020496), (0.03941487, 0.0002638306, 0.435841), (-0.0055720313, 0.025866354, 0.42285198), (-0.0055720313, -0.025338689, 0.42285198), (0.41288206, 0.0050028437, 1.0193065), (0.4175298, 0.0023194887, 1.0193065), (0.4175298, -0.003047221, 1.0193065), (0.41288206, -0.005730576, 1.0193065), (0.40823436, -0.003047221, 1.0193065), (0.40823436, 0.0023194887, 1.0193065), (-0.1718308, -0.015913682, 0.37632868), (-0.18511407, -3.7139972e-7, 0.36821228), (-0.1718308, 0.015912931, 0.37632856), (-0.15933666, -0.015913682, 0.35588163), (-0.15807378, -3.7199766e-7, 0.3497309), (-0.15933666, 0.015912931, 0.35588145), (-0.18607153, -0.0037846009, 0.31008273), (-0.18784034, -4.1476122e-7, 0.30683085), (-0.18607147, 0.00378377, 0.31008267), (-0.18106587, -0.0037846009, 0.3073601), (-0.1828346, -4.1512826e-7, 0.30410823), (-0.18106587, 0.00378377, 0.30736005), (-0.06543563, -3.045195e-7, 0.40055552), (-0.10581329, 0.019339614, 0.23533618), (-0.114342004, -3.0450832e-7, 0.2375295), (-0.10581334, -0.01934023, 0.23533617), (-0.11067581, 0.01933962, 0.2044014), (-0.11921592, -3.0136496e-7, 0.20230904), (-0.11067581, -0.019340226, 0.2044014), (-0.18867838, 0.0060323123, 0.19334301), (-0.19201566, -3.2556966e-7, 0.19072749), (-0.18867838, -0.0060329647, 0.19334301), (-0.1782852, 0.0060323123, 0.18241982), (-0.17998852, -3.2500478e-7, 0.17854401), (-0.1782852, -0.0060329647, 0.18241982), (0.13968694, -0.02655283, 0.82899976), (0.15215391, -0.018775692, 0.8153776), (0.1573179, -3.6609748e-8, 0.8097349), (0.15215391, 0.018775623, 0.8153776), (0.12722003, 0.018775612, 0.8426218), (0.12205618, -4.0309196e-8, 0.84826446), (0.12722011, -0.018775692, 0.8426218), (0.13968694, 0.026552748, 0.82899976), (0.14730404, -0.012103371, 0.9075386), (0.1441915, -7.3829945e-8, 0.91146886), (0.14730398, 0.012103225, 0.9075386), (0.16365561, 0.011586201, 0.9148931), (0.16365565, -0.011586343, 0.9148931), (0.16098353, -7.13698e-8, 0.9187839), (0.17081496, -0.0065872846, 1.0733509), (0.16907306, -1.9700467e-7, 1.075451), (0.17081493, 0.006586891, 1.0733509), (0.17962134, 0.0063055065, 1.0775536), (0.17962137, -0.0063058976, 1.0775536), (0.17811957, -1.956934e-7, 1.0796378), (0.419148, 0.015737694, -1.0274007), (0.40487763, 0.019894004, -1.052841), (0.43383023, 0.011128231, -1.0274007), (0.41470492, 0.014067184, -1.0812905), (0.4399118, -4.0135084e-10, -1.0274007), (0.4223912, 2.5580513e-10, -1.0871346), (0.43383023, -0.011128231, -1.0274007), (0.4147049, -0.014067179, -1.0812905), (0.419148, -0.015737692, -1.0274007), (0.40487763, -0.019893996, -1.052841), (0.40446573, -0.011128228, -1.0274007), (0.38779697, -0.014067177, -1.0606287), (0.39838415, 4.742354e-10, -1.0274007), (0.38011065, 5.5022324e-9, -1.0547847), (0.40446573, 0.011128231, -1.0274007), (0.38779697, 0.014067184, -1.0606287), (0.40571618, 0.015467371, -1.0092221), (0.41593355, 0.0109370835, -1.0053202), (0.42016578, 2.4595564e-10, -1.003704), (0.41593355, -0.010937081, -1.0053202), (0.40571618, -0.015467371, -1.0092221), (0.3954988, -0.010937081, -1.013124), (0.39126664, -3.7631404e-10, -1.0147401), (0.3954988, 0.010937081, -1.013124), (0.3665152, 0.016888037, -0.9601843), (0.37558255, 0.011941649, -0.95241344), (0.37933832, 9.425346e-11, -0.9491945), (0.37558255, -0.011941646, -0.95241344), (0.3665152, -0.016888037, -0.9601843), (0.3574479, -0.011941646, -0.9679551), (0.35369208, -1.9192816e-9, -0.971174), (0.3574479, 0.011941643, -0.9679551), (0.25484192, 0.020583589, -0.9065594), (0.25860563, 0.014554793, -0.89249974), (0.2601645, -1.8507722e-8, -0.8866759), (0.25860563, -0.014554825, -0.89249974), (0.25484192, -0.020583626, -0.9065594), (0.25107828, -0.014554827, -0.92061913), (0.24951938, -2.2705581e-8, -0.92644304), (0.25107825, 0.014554786, -0.92061913), (0.116828576, 0.027737634, -0.813604), (0.13102314, 0.01961346, -0.80006874), (0.13690275, -4.020302e-8, -0.79446214), (0.13102314, -0.019613538, -0.80006874), (0.116828576, -0.02773772, -0.813604), (0.10263411, -0.01961354, -0.82713914), (0.09675458, -4.380354e-8, -0.8327459), (0.10263402, 0.019613452, -0.82713914), (0.010768664, 0.037793677, -0.68264127), (0.034719925, 0.026724128, -0.67078716), (0.044640988, -1.5000417e-7, -0.6658767), (0.034719925, -0.02672442, -0.67078716), (0.010768664, -0.037793983, -0.68264127), (-0.01318243, -0.026724422, -0.6944953), (-0.023103425, -1.5240634e-7, -0.69940585), (-0.013182573, 0.026724113, -0.6944953), (-0.07777554, 0.048673257, -0.43725336), (-0.028716264, 0.034417104, -0.4555453), (-0.008394566, -3.0879076e-7, -0.4631219), (-0.028716264, -0.03441771, -0.4555453), (-0.07777554, -0.04867387, -0.43725336), (-0.12683466, -0.034417707, -0.41896147), (-0.14715628, -3.0151332e-7, -0.411385), (-0.12683477, 0.034417093, -0.41896126), (-0.066112384, 0.048673257, -0.40597218), (-0.01705311, 0.034417104, -0.42426413), (-0.020888085, -3.070769e-7, -0.4184262), (-0.01705311, -0.03441771, -0.42426413), (-0.066112384, -0.04867387, -0.40597218), (-0.11517157, -0.034417707, -0.3876803), (-0.11347733, -3.0176145e-7, -0.38128325), (-0.11517161, 0.034417093, -0.3876801), (0.002373622, 0.034417104, -0.45143005), (0.02269532, -3.065298e-7, -0.45900664), (0.002373622, -0.034417707, -0.45143005), (0.017041741, 0.034417104, -0.43697643), (0.037363414, -3.088815e-7, -0.444553), (0.017041741, -0.03441771, -0.43697643), (0.023764325, 0.034417104, -0.3159599), (0.009220735, -3.070769e-7, -0.31012195), (0.023764325, -0.03441771, -0.3159599), (0.057859156, -0.03441771, -0.3286722), (0.057859156, 0.034417104, -0.3286722), (0.07818086, -3.088815e-7, -0.3362488), (0.03932355, 0.0344171, -0.26109093), (0.026905691, -3.071422e-7, -0.2535204), (0.03932355, -0.03441771, -0.26109093), (0.053376675, -0.034417722, -0.29545468), (0.053376675, 0.03441709, -0.29545468), (0.07072806, -3.1601124e-7, -0.30603296), (0.045341276, -3.0730203e-7, -0.4068083), (0.032833427, 0.021183355, -0.4021449), (0.011848325, 0.021183355, -0.39432064), (0.0028968612, -3.061913e-7, -0.39072743), (0.011848325, -0.021183962, -0.39432064), (0.032833427, -0.021183962, -0.4021449), (-0.030893845, 0.0344171, -0.27849478), (-0.04654129, -3.0574498e-7, -0.2776255), (-0.030893845, -0.03441771, -0.27849478), (-0.022494035, 0.034417104, -0.22340384), (-0.035854388, -3.0019297e-7, -0.21525869), (-0.022494035, -0.034417707, -0.22340384), (-0.014590431, -3.0650818e-7, -0.29624555), (0.00042459837, -0.03441771, -0.2999618), (0.017073875, -3.0556797e-7, -0.24755122), (0.012926603, 0.0344171, -0.24499804), (0.00042455067, 0.0344171, -0.2999618), (0.012926603, -0.03441771, -0.24499804), (-0.009803616, 0.046148535, -0.16503966), (-0.027345687, -2.9262566e-7, -0.16140659), (-0.009803616, -0.046149142, -0.16503966), (0.042148825, -3.017666e-7, -0.17579935), (0.036703467, -0.046149142, -0.17467159), (0.036703516, 0.046148535, -0.17467159), (-0.014772027, 0.045398552, -0.10373013), (-0.04623526, -2.9126943e-7, -0.0972139), (-0.014772027, -0.04539915, -0.10373013), (0.07840922, -3.0026177e-7, -0.12302854), (0.06864253, -0.04539915, -0.12100579), (0.06864257, 0.045398552, -0.12100579), (-0.029598596, 0.047440078, 0), (-0.055333756, -2.9093636e-7, 0), (-0.029598596, -0.047440674, 0), (0.038629916, -0.047440674, 0), (0.038629964, 0.047440078, 0), (0.046618596, -3.0033314e-7, 0), (-0.0067185326, 0.037873413, -0.171637), (-0.02111502, -2.94415e-7, -0.1686554), (-0.0067185326, -0.03787402, -0.171637), (0.031449217, -0.03787402, -0.17954178), (0.035918158, -3.0191683e-7, -0.18046731), (0.031449266, 0.037873413, -0.17954178), (-0.07213929, -0.02425465, -0.5734895), (-0.04791983, -0.034301173, -0.5721908), (-0.012451611, -0.024254652, -0.57089216), (-0.0024192953, -2.1615632e-7, -0.570354), (-0.012451611, 0.024254223, -0.57089216), (-0.04791983, 0.03430074, -0.5721908), (-0.07213938, 0.024254212, -0.57348937), (-0.08217151, -2.1474148e-7, -0.5740276), (0.024297887, 0.025866354, -0.43020496), (-0.0056821615, 0.00026383167, -0.4185092), (0.024297887, -0.025338689, -0.43020496), (0.03941487, 0.0002638306, -0.435841), (-0.0055720313, 0.025866354, -0.42285198), (-0.0055720313, -0.025338689, -0.42285198), (0.41288206, 0.0050028437, 0), (0.41288206, 0.0050028437, -1.0193065), (0.4175298, 0.0023194887, 0), (0.4175298, 0.0023194887, -1.0193065), (0.4175298, -0.003047221, 0), (0.4175298, -0.003047221, -1.0193065), (0.41288206, -0.005730576, 0), (0.41288206, -0.005730576, -1.0193065), (0.40823436, -0.003047221, 0), (0.40823436, -0.003047221, -1.0193065), (0.40823436, 0.0023194887, 0), (0.40823436, 0.0023194887, -1.0193065), (-0.1718308, -0.015913682, -0.37632868), (-0.18511407, -3.7139972e-7, -0.36821228), (-0.1718308, 0.015912931, -0.37632856), (-0.15933666, -0.015913682, -0.35588163), (-0.15807378, -3.7199766e-7, -0.3497309), (-0.15933666, 0.015912931, -0.35588145), (-0.18607153, -0.0037846009, -0.31008273), (-0.18784034, -4.1476122e-7, -0.30683085), (-0.18607147, 0.00378377, -0.31008267), (-0.18106587, -0.0037846009, -0.3073601), (-0.1828346, -4.1512826e-7, -0.30410823), (-0.18106587, 0.00378377, -0.30736005), (-0.06543563, -3.045195e-7, -0.40055552), (-0.10581329, 0.019339614, -0.23533618), (-0.114342004, -3.0450832e-7, -0.2375295), (-0.10581334, -0.01934023, -0.23533617), (-0.11067581, 0.01933962, -0.2044014), (-0.11921592, -3.0136496e-7, -0.20230904), (-0.11067581, -0.019340226, -0.2044014), (-0.18867838, 0.0060323123, -0.19334301), (-0.19201566, -3.2556966e-7, -0.19072749), (-0.18867838, -0.0060329647, -0.19334301), (-0.1782852, 0.0060323123, -0.18241982), (-0.17998852, -3.2500478e-7, -0.17854401), (-0.1782852, -0.0060329647, -0.18241982), (0.13968694, -0.02655283, -0.82899976), (0.15215391, -0.018775692, -0.8153776), (0.1573179, -3.6609748e-8, -0.8097349), (0.15215391, 0.018775623, -0.8153776), (0.12722003, 0.018775612, -0.8426218), (0.12205618, -4.0309196e-8, -0.84826446), (0.12722011, -0.018775692, -0.8426218), (0.13968694, 0.026552748, -0.82899976), (0.14730404, -0.012103371, -0.9075386), (0.1441915, -7.3829945e-8, -0.91146886), (0.14730398, 0.012103225, -0.9075386), (0.16365561, 0.011586201, -0.9148931), (0.16365565, -0.011586343, -0.9148931), (0.16098353, -7.13698e-8, -0.9187839), (0.17081496, -0.0065872846, -1.0733509), (0.16907306, -1.9700467e-7, -1.075451), (0.17081493, 0.006586891, -1.0733509), (0.17962134, 0.0063055065, -1.0775536), (0.17962137, -0.0063058976, -1.0775536), (0.17811957, -1.956934e-7, -1.0796378)]
            uniform token subdivisionScheme = "none"
            uniform token subsetFamily:materialBind:familyType = "nonOverlapping"
            custom string userProperties:blender:data_name = "Cylinder.043"

            def GeomSubset "Golden" (
                prepend apiSchemas = ["MaterialBindingAPI"]
            )
            {
                uniform token elementType = "face"
                uniform token familyName = "materialBind"
                int[] indices = [0, 1, 2, 3, 4, 5, 6, 7, 8, 9, 10, 11, 12, 13, 14, 15, 16, 17, 18, 19, 20, 21, 22, 23, 24, 25, 26, 27, 28, 29, 30, 31, 32, 33, 34, 35, 36, 37, 38, 39, 40, 41, 42, 43, 44, 45, 46, 47, 48, 49, 50, 51, 52, 53, 54, 55, 56, 57, 58, 59, 60, 61, 62, 63, 64, 65, 66, 67, 68, 69, 70, 71, 72, 73, 74, 75, 76, 77, 78, 80, 81, 82, 83, 84, 85, 86, 87, 88, 89, 90, 91, 93, 94, 95, 96, 97, 98, 99, 100, 116, 117, 118, 119, 120, 121, 122, 123, 124, 125, 126, 127, 128, 129, 130, 131, 132, 133, 134, 135, 136, 137, 138, 139, 146, 147, 148, 149, 150, 151, 152, 153, 154, 155, 156, 157, 158, 159, 160, 161, 162, 163, 164, 165, 166, 167, 168, 169, 170, 171, 172, 174, 175, 176, 177, 178, 179, 180, 181, 182, 183, 184, 185, 186, 187, 188, 189, 190, 191, 192, 193, 194, 195, 196, 197, 198, 199, 200, 201, 202, 203, 204, 205, 206, 207, 208, 209, 210, 211, 212, 213, 214, 215, 216, 217, 218, 219, 220, 221, 222, 223, 224, 225, 226, 227, 228, 229, 230, 231, 232, 233, 234, 235, 236, 237, 238, 239, 240, 241, 242, 243, 244, 245, 246, 247, 248, 249, 250, 251, 252, 253, 254, 255, 256, 257, 258, 259, 260, 261, 262, 263, 264, 265, 266, 267, 268, 269, 270, 271, 272, 274, 275, 276, 277, 278, 279, 280, 281, 282, 283, 284, 285, 287, 288, 289, 290, 291, 292, 293, 294, 310, 311, 312, 313, 314, 315, 316, 317, 318, 319, 320, 321, 322, 323, 324, 325, 326, 327, 328, 329, 330, 331, 332, 333, 340, 341, 342, 343, 344, 345, 346, 347, 348, 349, 350, 351, 352, 353, 354, 355, 356, 357, 358, 359, 360, 361, 362, 363, 364, 365, 366, 367, 369, 370, 371, 372, 373, 374, 375, 376, 377, 378, 379, 380, 381, 382, 383, 384, 385, 386, 387, 388]
                rel material:binding = </root/_materials/Golden>
            }

            def GeomSubset "LightWood" (
                prepend apiSchemas = ["MaterialBindingAPI"]
            )
            {
                uniform token elementType = "face"
                uniform token familyName = "materialBind"
                int[] indices = [79, 92, 101, 102, 103, 104, 105, 106, 107, 108, 109, 110, 111, 112, 113, 114, 115, 173, 273, 286, 295, 296, 297, 298, 299, 300, 301, 302, 303, 304, 305, 306, 307, 308, 309, 368]
                rel material:binding = </root/_materials/LightWood>
            }

            def GeomSubset "White" (
                prepend apiSchemas = ["MaterialBindingAPI"]
            )
            {
                uniform token elementType = "face"
                uniform token familyName = "materialBind"
                int[] indices = [140, 141, 142, 143, 144, 145, 334, 335, 336, 337, 338, 339]
                rel material:binding = </root/_materials/White>
            }
        }
    }

    def Scope "_materials"
    {
        def Material "Golden"
        {
            token outputs:surface.connect = </root/_materials/Golden/Principled_BSDF.outputs:surface>
            custom string userProperties:blender:data_name = "Golden"

            def Shader "Principled_BSDF"
            {
                uniform token info:id = "UsdPreviewSurface"
                float inputs:clearcoat = 0
                float inputs:clearcoatRoughness = 0.03
                color3f inputs:diffuseColor = (0.46719605, 0.3365182, 0.058923353)
                float inputs:ior = 1.5
                float inputs:metallic = 0
                float inputs:opacity = 1
                float inputs:roughness = 0.6900348
                float inputs:specular = 0.5
                token outputs:surface
            }
        }

        def Material "LightWood"
        {
            token outputs:surface.connect = </root/_materials/LightWood/Principled_BSDF.outputs:surface>
            custom string userProperties:blender:data_name = "LightWood"

            def Shader "Principled_BSDF"
            {
                uniform token info:id = "UsdPreviewSurface"
                float inputs:clearcoat = 0
                float inputs:clearcoatRoughness = 0.03
                color3f inputs:diffuseColor = (0.15742357, 0.07902975, 0.08487101)
                float inputs:ior = 1.5
                float inputs:metallic = 0
                float inputs:opacity = 1
                float inputs:roughness = 0.6900348
                float inputs:specular = 0.5
                token outputs:surface
            }
        }

        def Material "White"
        {
            token outputs:surface.connect = </root/_materials/White/Principled_BSDF.outputs:surface>
            custom string userProperties:blender:data_name = "White"

            def Shader "Principled_BSDF"
            {
                uniform token info:id = "UsdPreviewSurface"
                float inputs:clearcoat = 0
                float inputs:clearcoatRoughness = 0.03
                color3f inputs:diffuseColor = (0.8, 0.8, 0.8)
                float inputs:ior = 1.5
                float inputs:metallic = 0
                float inputs:opacity = 1
                float inputs:roughness = 0.6900348
                float inputs:specular = 0.5
                token outputs:surface
            }
        }
    }
}

