#usda 1.0
(
    defaultPrim = "root"
    doc = "Blender v5.1.2"
    metersPerUnit = 1
    upAxis = "Y"
)

def Xform "root" (
    customData = {
        dictionary Blender = {
            bool generated = 1
        }
    }
)
{
    float3 xformOp:rotateXYZ = (-90, -0, 0)
    uniform token[] xformOpOrder = ["xformOp:rotateXYZ"]

    def Xform "Book3_Open"
    {
        custom string userProperties:blender:object_name = "Book3_Open"

        def Mesh "Cube_118" (
            active = true
            prepend apiSchemas = ["MaterialBindingAPI"]
        )
        {
            uniform bool doubleSided = 1
            float3[] extent = [(-0.43828052, -0.37603062, -0.09726145), (0.43828052, 0.37603062, 0.097261466)]
            int[] faceVertexCounts = [4, 4, 4, 4, 4, 4, 4, 4, 4, 4, 4, 4, 4, 4, 4, 4, 4, 4, 4, 4, 4, 4, 4, 4, 4, 4, 4, 4, 4, 4, 4, 4, 4, 4, 4, 4, 4, 4, 4, 4, 4, 4, 4, 4, 4, 4, 4, 4, 4, 4, 4, 4, 4, 4, 8, 4, 4, 4, 4, 4, 4, 4, 4, 4, 4, 4, 4, 4, 4, 4, 4, 4, 4, 4, 4, 4, 4, 4, 4, 4, 4, 4, 4, 4, 4, 4, 4, 4, 4, 4, 4, 4, 4, 4, 4, 4, 4, 4, 4, 4, 4, 4, 4, 4, 4, 4, 4, 4, 4, 4, 4, 4, 4, 4, 4, 4, 4, 4, 4, 4, 4, 4, 4, 4, 4, 4, 4, 4, 4, 8, 4, 4, 4, 4, 4, 4, 4, 4, 4, 4, 4, 4, 4, 4, 4, 4, 4, 4, 4, 4, 4, 4, 4, 4, 4, 4, 4, 4, 4, 4, 4, 4, 4, 4, 4, 4, 4, 4, 4, 4, 4, 4, 4, 4, 4, 4, 4, 4, 4, 4, 4, 4, 4, 4, 4, 4, 4, 4, 4, 4, 4, 4, 4, 4, 4, 4, 4, 4, 4, 4, 4, 4, 4, 4, 4, 4, 4, 4, 4, 4, 4, 4, 4, 4, 4, 4, 4, 4, 4, 4, 4, 4, 4, 4, 4, 4, 4, 4, 3, 3, 4, 4, 4, 3, 3, 4, 4, 4, 3, 3, 4, 4, 4, 3, 3, 4, 4, 4, 4, 4, 4, 4, 4, 4, 4, 4, 4, 4, 4, 4]
            int[] faceVertexIndices = [14, 4, 2, 13, 10, 12, 1, 5, 12, 13, 2, 1, 6, 7, 3, 0, 1, 2, 4, 5, 11, 10, 5, 6, 15, 7, 4, 14, 9, 3, 7, 15, 8, 11, 6, 0, 5, 4, 7, 6, 30, 33, 82, 80, 0, 3, 9, 8, 32, 41, 11, 8, 35, 9, 15, 27, 57, 134, 97, 43, 41, 38, 10, 11, 18, 21, 13, 12, 38, 18, 12, 10, 24, 14, 13, 21, 44, 17, 16, 42, 55, 53, 17, 44, 53, 52, 16, 17, 137, 54, 45, 99, 67, 68, 60, 61, 61, 55, 44, 59, 99, 45, 43, 97, 67, 61, 59, 64, 59, 44, 42, 58, 85, 26, 23, 83, 49, 25, 22, 50, 25, 24, 21, 22, 84, 81, 20, 36, 70, 51, 19, 37, 37, 19, 18, 38, 81, 83, 23, 20, 51, 50, 22, 19, 19, 22, 21, 18, 87, 84, 36, 39, 71, 70, 37, 40, 40, 37, 38, 41, 52, 56, 42, 16, 45, 65, 63, 43, 60, 68, 62, 58, 82, 33, 29, 86, 46, 34, 28, 48, 34, 35, 27, 28, 80, 87, 39, 30, 47, 71, 40, 31, 31, 40, 41, 32, 8, 9, 35, 32, 32, 35, 34, 31, 47, 46, 33, 30, 30, 39, 71, 47, 31, 34, 46, 47, 14, 24, 25, 49, 48, 28, 27, 15, 86, 29, 54, 137, 61, 60, 56, 55, 55, 56, 52, 53, 26, 85, 134, 57, 54, 29, 26, 57, 48, 49, 26, 29, 54, 57, 69, 66, 56, 60, 58, 42, 69, 57, 43, 63, 54, 66, 65, 45, 67, 64, 65, 66, 64, 62, 63, 65, 69, 63, 62, 68, 68, 67, 66, 69, 64, 59, 58, 62, 33, 46, 48, 29, 39, 36, 70, 71, 20, 23, 50, 51, 36, 20, 51, 70, 26, 49, 50, 23, 94, 93, 74, 76, 90, 77, 73, 92, 92, 73, 74, 93, 78, 72, 75, 79, 73, 77, 76, 74, 91, 78, 77, 90, 95, 94, 76, 79, 89, 95, 79, 75, 88, 72, 78, 91, 77, 78, 79, 76, 112, 80, 82, 115, 72, 88, 89, 75, 114, 88, 91, 123, 117, 109, 95, 89, 141, 125, 97, 134, 123, 91, 90, 120, 100, 92, 93, 103, 120, 90, 92, 100, 106, 103, 93, 94, 126, 124, 96, 98, 139, 126, 98, 136, 136, 98, 96, 135, 137, 99, 127, 138, 151, 145, 144, 152, 145, 143, 126, 139, 99, 97, 125, 127, 151, 148, 143, 145, 143, 142, 124, 126, 85, 83, 105, 108, 131, 132, 104, 107, 107, 104, 103, 106, 84, 118, 102, 81, 154, 119, 101, 133, 119, 120, 100, 101, 81, 102, 105, 83, 133, 101, 104, 132, 101, 100, 103, 104, 87, 121, 118, 84, 155, 122, 119, 154, 122, 123, 120, 119, 135, 96, 124, 140, 127, 125, 147, 149, 144, 142, 146, 152, 82, 86, 111, 115, 128, 130, 110, 116, 116, 110, 109, 117, 80, 112, 121, 87, 129, 113, 122, 155, 113, 114, 123, 122, 88, 114, 117, 89, 114, 113, 116, 117, 129, 112, 115, 128, 112, 129, 155, 121, 113, 129, 128, 116, 94, 95, 109, 110, 130, 131, 107, 106, 86, 137, 138, 111, 145, 139, 140, 144, 139, 136, 135, 140, 108, 141, 134, 85, 138, 141, 108, 111, 130, 111, 108, 131, 138, 150, 153, 141, 140, 124, 142, 144, 153, 147, 125, 141, 138, 127, 149, 150, 151, 150, 149, 148, 148, 149, 147, 146, 153, 152, 146, 147, 152, 153, 150, 151, 148, 146, 142, 143, 115, 111, 130, 128, 121, 155, 154, 118, 102, 133, 132, 105, 118, 154, 133, 102, 108, 105, 132, 131, 167, 157, 156, 166, 157, 159, 158, 156, 164, 161, 160, 165, 161, 163, 162, 160, 159, 164, 165, 158, 167, 166, 168, 169, 169, 168, 170, 171, 176, 177, 172, 173, 173, 172, 174, 175, 171, 170, 177, 176, 178, 179, 181, 180, 180, 181, 183, 182, 186, 187, 185, 184, 184, 185, 189, 188, 182, 183, 187, 186, 178, 190, 191, 179, 190, 192, 193, 191, 196, 194, 195, 197, 194, 198, 199, 195, 192, 196, 197, 193, 165, 160, 185, 187, 172, 177, 197, 195, 157, 167, 178, 180, 167, 169, 190, 178, 162, 163, 188, 189, 175, 174, 199, 198, 166, 156, 181, 179, 168, 166, 179, 191, 163, 161, 184, 188, 173, 175, 198, 194, 160, 162, 189, 185, 174, 172, 195, 199, 159, 157, 180, 182, 169, 171, 192, 190, 161, 164, 186, 184, 176, 173, 194, 196, 156, 158, 183, 181, 170, 168, 191, 193, 158, 165, 187, 183, 177, 170, 193, 197, 164, 159, 182, 186, 171, 176, 196, 192, 200, 201, 203, 202, 216, 218, 206, 204, 208, 209, 211, 210, 212, 214, 215, 213, 219, 218, 216, 217, 220, 222, 223, 221, 200, 202, 214, 212, 201, 200, 212, 213, 203, 201, 213, 215, 202, 203, 215, 214, 217, 216, 204, 205, 218, 219, 207, 206, 219, 217, 205, 207, 207, 205, 204, 206, 208, 210, 222, 220, 209, 208, 220, 221, 211, 209, 221, 223, 210, 211, 223, 222, 236, 238, 226, 224, 228, 229, 231, 230, 233, 232, 244, 245, 239, 238, 236, 237, 240, 242, 243, 241, 235, 233, 245, 247, 237, 236, 224, 225, 238, 239, 227, 226, 239, 237, 225, 227, 244, 246, 247, 245, 228, 230, 242, 240, 229, 228, 240, 241, 231, 229, 241, 243, 230, 231, 243, 242, 232, 234, 246, 244, 234, 235, 247, 246, 227, 225, 224, 226, 232, 233, 235, 234, 249, 248, 250, 252, 253, 251, 250, 253, 252, 249, 248, 251, 253, 250, 249, 252, 251, 248, 255, 256, 254, 258, 257, 259, 256, 255, 258, 259, 254, 256, 259, 257, 255, 254, 257, 258, 261, 262, 260, 264, 263, 265, 262, 261, 264, 265, 260, 262, 265, 263, 261, 260, 263, 264, 267, 266, 268, 270, 271, 269, 268, 271, 270, 267, 266, 269, 271, 268, 267, 270, 269, 266, 276, 278, 274, 272, 279, 278, 276, 277, 277, 276, 272, 273, 278, 279, 275, 274, 279, 277, 273, 275, 275, 273, 272, 274, 284, 286, 282, 280, 287, 286, 284, 285, 285, 284, 280, 281, 286, 287, 283, 282, 287, 285, 281, 283, 283, 281, 280, 282]
            rel material:binding = </root/_materials/DarkRed>
            normal3f[] normals = [(3.440078e-7, 2.2533326e-8, 1), (6.6285105e-7, 2.2533326e-8, 1), (6.8797294e-7, 0, 1), (3.4398644e-7, 0, 1), (0, -2.2533326e-8, -1), (0, 0, -1), (0, 0, -1), (0, -2.2533326e-8, -1), (0, 1, 0), (0, 1, 0), (0, 1, 0), (0, 1, 0), (1, 0, 0), (1, 0, 0), (1, 0, 0), (1, 0, 0), (1, 0, 0), (1, 0, 0), (1, 0, 0), (1, 0, 0), (0, -2.2533326e-8, -1), (0, -2.2533326e-8, -1), (0, -2.2533326e-8, -1), (0, -2.2533326e-8, -1), (3.3173706e-7, 2.2533325e-8, 1), (6.3830964e-7, 2.2533326e-8, 1), (6.6285105e-7, 2.2533326e-8, 1), (3.440078e-7, 2.2533326e-8, 1), (3.19445e-7, 0, 1), (6.3889e-7, 0, 1), (6.3830964e-7, 2.2533326e-8, 1), (3.3173706e-7, 2.2533325e-8, 1), (0, 0, -1), (0, -2.2533326e-8, -1), (0, -2.2533326e-8, -1), (0, 0, -1), (1, 0, 0), (1, 0, 0), (1, 0, 0), (1, 0, 0), (0, -1, 0), (0, -1, 0), (0, -1, 0), (0, -1, 0), (0, -1, 0), (0, -1, 0), (0, -1, 0), (0, -1, 0), (-7.563592e-8, 0, -1), (-8.0285886e-8, -2.2533326e-8, -1), (0, -2.2533326e-8, -1), (0, 0, -1), (0, 0, 1), (3.19445e-7, 0, 1), (3.3173706e-7, 2.2533325e-8, 1), (2.5164479e-8, 2.2533325e-8, 1), (0, 1, 0), (0, 1, 0.0000014144034), (0, 1, 0), (0, 1, 0), (-8.0285886e-8, -2.2533326e-8, -1), (-6.690194e-8, -2.2533326e-8, -1), (0, -2.2533326e-8, -1), (0, -2.2533326e-8, -1), (0, 1, 0), (0, 1, 0), (0, 1, 0), (0, 1, 0), (-6.690194e-8, -2.2533326e-8, -1), (-4.886802e-8, 0, -1), (0, 0, -1), (0, -2.2533326e-8, -1), (2.5164479e-8, 2.2533325e-8, 1), (3.440078e-7, 2.2533326e-8, 1), (3.4398644e-7, 0, 1), (0, 0, 1), (-0.10009811, 4.307023e-8, 0.9949775), (-0.10009811, 4.307023e-8, 0.9949775), (-0.10009811, 4.307023e-8, 0.9949775), (-0.10009811, 4.307023e-8, 0.9949775), (0, -1, 4.3196263e-8), (0, -1, 9.785908e-8), (0, -1, 9.785908e-8), (0, -1, 5.421896e-8), (0.970955, 3.4996877e-9, 0.23926198), (0.970955, 3.4996877e-9, 0.23926198), (0.970955, 3.4996877e-9, 0.23926198), (0.970955, 3.4996877e-9, 0.23926198), (0, -1, 0.000002121605), (0, -1, 2.658071e-7), (0, -1, 0), (0, -1, 0), (-0.25568888, -3.9184485e-8, -0.96675915), (-0.25568888, -3.9184485e-8, -0.96675915), (-0.25568888, -3.9184485e-8, -0.96675915), (-0.25568888, -3.9184485e-8, -0.96675915), (0, -1, 0), (0, -1, 4.3196263e-8), (0, -1, 5.421896e-8), (0, -1, 0), (-0.11726823, 4.481085e-8, 0.9931003), (-0.11726823, 4.481085e-8, 0.9931003), (-0.11726823, 4.481085e-8, 0.9931003), (-0.11726823, 4.481085e-8, 0.9931003), (0, -1, 0), (0, -1, 0), (0, -1, 0), (0, -1, 0), (0.08478009, 4.648424e-8, 0.9963997), (0.08478009, 4.648424e-8, 0.9963997), (0.08478009, 4.648424e-8, 0.9963997), (0.08478009, 4.648424e-8, 0.9963997), (-9.046911e-14, 0, 1), (2.0775457e-7, 0, 1), (2.0775457e-7, 0, 1), (-9.046911e-14, 0, 1), (7.846614e-8, 2.2533325e-8, 1), (5.181531e-8, 2.2533325e-8, 1), (5.330166e-8, 0, 1), (1.0660332e-7, 0, 1), (5.181531e-8, 2.2533325e-8, 1), (2.5164479e-8, 2.2533325e-8, 1), (0, 0, 1), (5.330166e-8, 0, 1), (7.2375286e-14, -2.2533326e-8, -1), (1.8093822e-13, 0, -1), (-4.1550913e-7, 0, -1), (-4.4848204e-7, -2.2533326e-8, -1), (0, -2.2533326e-8, -1), (0, 0, -1), (-4.886802e-8, 0, -1), (-6.690194e-8, -2.2533326e-8, -1), (-6.690194e-8, -2.2533326e-8, -1), (-4.886802e-8, 0, -1), (-4.886802e-8, 0, -1), (-6.690194e-8, -2.2533326e-8, -1), (0, 1, 0), (0, 1, 0), (0, 1, 0), (0, 1, 0), (0, 1, 0), (0, 1, 0), (0, 1, 0), (0, 1, 0), (0, 1, 0), (0, 1, 0), (0, 1, 0), (0, 1, 0), (1.2665676e-13, -2.2533326e-8, -1), (7.2375286e-14, -2.2533326e-8, -1), (-4.4848204e-7, -2.2533326e-8, -1), (-4.818931e-7, -2.2533326e-8, -1), (0, -2.2533326e-8, -1), (0, -2.2533326e-8, -1), (-6.690194e-8, -2.2533326e-8, -1), (-8.0285886e-8, -2.2533326e-8, -1), (-8.0285886e-8, -2.2533326e-8, -1), (-6.690194e-8, -2.2533326e-8, -1), (-6.690194e-8, -2.2533326e-8, -1), (-8.0285886e-8, -2.2533326e-8, -1), (0, 1, 0), (0, 1, -1.3001099e-7), (0, 1, -1.03794406e-7), (0, 1, 0), (-0.24767412, 4.190089e-8, 0.96884334), (-0.24767412, 4.190089e-8, 0.96884334), (-0.24767412, 4.190089e-8, 0.96884334), (-0.24767412, 4.190089e-8, 0.96884334), (0, 1, -1.2592274e-7), (0, 1, 0), (0, 1, 0), (0, 1, -1.1678745e-7), (-9.951602e-14, 0, 1), (1.6077708e-7, 0, 1), (1.6077708e-7, 0, 1), (-9.951602e-14, 0, 1), (1.0999754e-7, 0, 1), (5.499877e-8, 0, 1), (5.2663864e-8, 2.2533325e-8, 1), (8.016325e-8, 2.2533325e-8, 1), (5.499877e-8, 0, 1), (0, 0, 1), (2.5164479e-8, 2.2533325e-8, 1), (5.2663864e-8, 2.2533325e-8, 1), (3.0759496e-13, 0, -1), (1.2665676e-13, -2.2533326e-8, -1), (-4.818931e-7, -2.2533326e-8, -1), (-4.8233125e-7, 0, -1), (0, 0, -1), (0, -2.2533326e-8, -1), (-8.0285886e-8, -2.2533326e-8, -1), (-7.563592e-8, 0, -1), (-7.563592e-8, 0, -1), (-8.0285886e-8, -2.2533326e-8, -1), (-8.0285886e-8, -2.2533326e-8, -1), (-7.563592e-8, 0, -1), (0, -1, 0), (0, -1, 0), (0, -1, 0), (0, -1, 0), (0, -1, 0), (0, -1, 0), (0, -1, 0), (0, -1, 0), (0, -1, 0), (0, -1, 0), (0, -1, 0), (0, -1, 0), (-0.4333938, 0, -0.90120465), (-0.43339393, -2.008078e-8, -0.90120465), (-0.43339393, -2.008078e-8, -0.90120465), (-0.4333938, 0, -0.90120465), (0, -1, 0), (0, -1, 0), (0, -1, 0), (0, -1, 0), (3.440078e-7, 2.2533326e-8, 1), (2.5164479e-8, 2.2533325e-8, 1), (5.181531e-8, 2.2533325e-8, 1), (7.846614e-8, 2.2533325e-8, 1), (8.016325e-8, 2.2533325e-8, 1), (5.2663864e-8, 2.2533325e-8, 1), (2.5164479e-8, 2.2533325e-8, 1), (3.3173706e-7, 2.2533325e-8, 1), (0, -1, 0.0000045001743), (0, -1, 0.000006000232), (0, -1, 2.658071e-7), (0, -1, 0.000002121605), (-0.21269767, -4.262454e-8, -0.9771181), (-0.21269767, -4.262454e-8, -0.9771181), (-0.21269767, -4.262454e-8, -0.9771181), (-0.21269767, -4.262454e-8, -0.9771181), (0.18948926, -4.515217e-8, -0.98188287), (0.18948926, -4.515217e-8, -0.98188287), (0.18948926, -4.515217e-8, -0.98188287), (0.18948926, -4.515217e-8, -0.98188287), (0, 1, 0), (0, 1, 0.0000030001165), (0, 1, 0.0000014144034), (0, 1, 0), (0.045511212, -4.50628e-8, -0.99896383), (0.045511212, -4.50628e-8, -0.99896383), (0.045511212, -4.50628e-8, -0.99896383), (0.045511212, -4.50628e-8, -0.99896383), (0.43339404, 2.0892191e-8, 0.9012045), (0.4333939, 2.0892193e-8, 0.90120465), (0.4333939, 2.0892193e-8, 0.90120465), (0.43339404, 2.0892191e-8, 0.9012045), (0.13405308, -4.5120256e-8, -0.9909742), (0.13405308, -4.5120256e-8, -0.9909742), (0.13405308, -4.5120256e-8, -0.9909742), (0.13405308, -4.5120256e-8, -0.9909742), (0, 1, -1.3001099e-7), (0, 1, -1.2592274e-7), (0, 1, -1.1678745e-7), (0, 1, -1.03794406e-7), (0, 1, 0), (0, 1, 0), (0, 1, 0), (0, 1, 0), (0, -1, 2.658071e-7), (0, -1, 0), (0, -1, 0), (0, -1, 0), (0, -1, 0), (0, -1, 0), (0, -1, 0), (0, -1, 0), (-0.0137711875, 4.5062286e-8, 0.99990517), (-0.0137711875, 4.5062286e-8, 0.99990517), (-0.0137711875, 4.5062286e-8, 0.99990517), (-0.0137711875, 4.5062286e-8, 0.99990517), (0, 1, 0), (0, 1, 0), (0, 1, 0), (0, 1, 0), (-0.06448736, -4.2041542e-8, -0.9979185), (-0.06448736, -4.2041542e-8, -0.9979185), (-0.06448736, -4.2041542e-8, -0.9979185), (-0.06448736, -4.2041542e-8, -0.9979185), (0.122235924, 4.4267644e-8, 0.9925011), (0.122235924, 4.4267644e-8, 0.9925011), (0.122235924, 4.4267644e-8, 0.9925011), (0.122235924, 4.4267644e-8, 0.9925011), (0.4333942, 0, 0.9012045), (0.4333942, 0, 0.9012045), (0.43339404, 2.0892191e-8, 0.9012045), (0.43339404, 2.0892191e-8, 0.9012045), (-0.43339393, -2.008078e-8, -0.90120465), (-0.43339407, -2.008078e-8, -0.9012045), (-0.43339407, -2.008078e-8, -0.9012045), (-0.43339393, -2.008078e-8, -0.90120465), (0, 1, 0), (0, 1, 0), (0, 1, 0), (0, 1, 0), (-0.43339407, -2.008078e-8, -0.9012045), (-0.43339422, 0, -0.9012044), (-0.43339422, 0, -0.9012044), (-0.43339407, -2.008078e-8, -0.9012045), (0.4333939, 2.0892193e-8, 0.90120465), (0.4333939, 2.0892193e-8, 0.90120465), (0.43339378, 0, 0.90120465), (0.43339378, 0, 0.90120465), (-3.44008e-7, 2.2533325e-8, 1), (-3.4398667e-7, 0, 1), (-6.879733e-7, 0, 0.99999994), (-6.6285156e-7, 2.2533326e-8, 1), (0, -2.2533326e-8, -1), (0, -2.2533326e-8, -1), (0, 0, -0.99999994), (0, 0, -1), (0, 1, 0), (0, 1, 0), (0, 1, 0), (0, 1, 0), (-1, 3.9047308e-9, 0), (-1, 0, 0), (-1, 0, 0), (-1, 3.9047308e-9, 0), (-1, 0, 0), (-1, 3.9047308e-9, 0), (-1, 3.9047308e-9, 0), (-1, 0, 0), (0, -2.2533326e-8, -1), (0, -2.2533325e-8, -1), (0, -2.2533326e-8, -1), (0, -2.2533326e-8, -1), (-3.3173728e-7, 2.2533326e-8, 1), (-3.44008e-7, 2.2533325e-8, 1), (-6.6285156e-7, 2.2533326e-8, 1), (-6.383101e-7, 2.2533325e-8, 1), (-3.1944526e-7, 0, 1), (-3.3173728e-7, 2.2533326e-8, 1), (-6.383101e-7, 2.2533325e-8, 1), (-6.388905e-7, 0, 1), (0, 0, -1), (0, 0, -1), (0, -2.2533325e-8, -1), (0, -2.2533326e-8, -1), (-1, 3.9047308e-9, 0), (-1, 3.9047308e-9, 0), (-1, 3.9047308e-9, 0), (-1, 3.9047308e-9, 0), (0, -1, 0), (0, -1, 0), (0, -1, 0), (0, -1, 0), (0, -1, 0), (0, -1, 0), (0, -1, 0), (0, -1, 0), (7.563601e-8, 0, -1), (0, 0, -1), (0, -2.2533326e-8, -1), (8.028598e-8, -2.2533326e-8, -1), (0, 0, 1), (-2.5164477e-8, 2.2533326e-8, 1), (-3.3173728e-7, 2.2533326e-8, 1), (-3.1944526e-7, 0, 1), (0, 1, 2.658071e-7), (0, 1, 0), (0, 1, 0), (0, 1, 0.0000014144034), (8.028598e-8, -2.2533326e-8, -1), (0, -2.2533326e-8, -1), (0, -2.2533326e-8, -1), (6.6902004e-8, -2.2533326e-8, -1), (0, 1, 0), (0, 1, 0), (0, 1, 0), (0, 1, 0), (6.6902004e-8, -2.2533326e-8, -1), (0, -2.2533326e-8, -1), (0, 0, -1), (4.886806e-8, 0, -1), (-2.5164475e-8, 2.2533325e-8, 1), (0, 0, 1), (-3.4398667e-7, 0, 1), (-3.44008e-7, 2.2533325e-8, 1), (0.10009811, 4.6933216e-8, 0.9949775), (0.10009811, 4.6933216e-8, 0.9949775), (0.10009811, 4.6933216e-8, 0.9949775), (0.10009811, 4.6933216e-8, 0.9949775), (0, -1, 1.0820177e-7), (0, -1, 1.06116175e-7), (0, -1, 9.785908e-8), (0, -1, 9.785908e-8), (-0.970955, 0, 0.23926198), (-0.970955, 0, 0.23926198), (-0.970955, 0, 0.23926198), (-0.970955, 0, 0.23926198), (0, -1, 0.000002121605), (0, -1, 0), (0, -1, 0), (0, -1, 1.3290357e-7), (0.25568888, -4.208924e-8, -0.96675915), (0.25568888, -4.208924e-8, -0.96675915), (0.25568888, -4.208924e-8, -0.96675915), (0.25568888, -4.208924e-8, -0.96675915), (0, -1, 6.296138e-8), (0, -1, 5.839373e-8), (0, -1, 1.06116175e-7), (0, -1, 1.0820177e-7), (0.11726823, 4.436079e-8, 0.9931003), (0.11726823, 4.436079e-8, 0.9931003), (0.11726823, 4.436079e-8, 0.9931003), (0.11726823, 4.436079e-8, 0.9931003), (0, -1, 0), (0, -1, 0), (0, -1, 5.839373e-8), (0, -1, 6.296138e-8), (-0.08478009, 4.4990735e-8, 0.9963997), (-0.08478009, 4.4990735e-8, 0.9963997), (-0.08478009, 4.4990735e-8, 0.9963997), (-0.08478009, 4.4990735e-8, 0.9963997), (-9.046911e-14, 0, 1), (-9.046911e-14, 0, 1), (-2.0775474e-7, 0, 1), (-2.0775474e-7, 0, 1), (-7.8466144e-8, 2.2533326e-8, 1), (-1.0660332e-7, 0, 1), (-5.330166e-8, 0, 1), (-5.181531e-8, 2.2533326e-8, 1), (-5.181531e-8, 2.2533326e-8, 1), (-5.330166e-8, 0, 1), (0, 0, 1), (-2.5164475e-8, 2.2533325e-8, 1), (7.2375286e-14, -2.2533326e-8, -1), (4.4848218e-7, -2.2533325e-8, -1), (4.1550948e-7, 0, -1), (1.8093822e-13, 0, -1), (0, -2.2533326e-8, -1), (6.6902004e-8, -2.2533326e-8, -1), (4.886806e-8, 0, -1), (0, 0, -1), (6.6902004e-8, -2.2533326e-8, -1), (6.6902004e-8, -2.2533326e-8, -1), (4.886806e-8, 0, -1), (4.886806e-8, 0, -1), (0, 1, 0), (0, 1, 0), (0, 1, 0), (0, 1, 0), (0, 1, 0), (0, 1, 0), (0, 1, 0), (0, 1, 0), (0, 1, 0), (0, 1, 0), (0, 1, 0), (0, 1, 0), (1.2665676e-13, -2.2533326e-8, -1), (4.818934e-7, -2.2533325e-8, -1), (4.4848218e-7, -2.2533325e-8, -1), (7.2375286e-14, -2.2533326e-8, -1), (0, -2.2533326e-8, -1), (8.028598e-8, -2.2533326e-8, -1), (6.6902004e-8, -2.2533326e-8, -1), (0, -2.2533326e-8, -1), (8.028598e-8, -2.2533326e-8, -1), (8.028598e-8, -2.2533326e-8, -1), (6.6902004e-8, -2.2533326e-8, -1), (6.6902004e-8, -2.2533326e-8, -1), (0, 1, 0), (0, 1, 0), (0, 1, -1.0379442e-7), (0, 1, -1.3001102e-7), (0.24767412, 4.306634e-8, 0.96884334), (0.24767412, 4.306634e-8, 0.96884334), (0.24767412, 4.306634e-8, 0.96884334), (0.24767412, 4.306634e-8, 0.96884334), (0, 1, -1.2592275e-7), (0, 1, -1.1678746e-7), (0, 1, 0), (0, 1, 0), (-9.951602e-14, 0, 1), (-9.951602e-14, 0, 1), (-1.6077729e-7, 0, 1), (-1.6077729e-7, 0, 1), (-1.0999754e-7, 0, 1), (-8.0163254e-8, 2.2533326e-8, 1), (-5.266386e-8, 2.2533325e-8, 1), (-5.499877e-8, 0, 1), (-5.499877e-8, 0, 1), (-5.266386e-8, 2.2533325e-8, 1), (-2.5164477e-8, 2.2533326e-8, 1), (0, 0, 1), (3.0759496e-13, 0, -1), (4.8233187e-7, 0, -1), (4.818934e-7, -2.2533325e-8, -1), (1.2665676e-13, -2.2533326e-8, -1), (0, 0, -1), (7.563601e-8, 0, -1), (8.028598e-8, -2.2533326e-8, -1), (0, -2.2533326e-8, -1), (7.563601e-8, 0, -1), (7.563601e-8, 0, -1), (8.028598e-8, -2.2533326e-8, -1), (8.028598e-8, -2.2533326e-8, -1), (0, -1, 0), (0, -1, 0), (0, -1, 0), (0, -1, 0), (0, -1, 0), (0, -1, 0), (0, -1, 0), (0, -1, 0), (0, -1, 0), (0, -1, 0), (0, -1, 0), (0, -1, 0), (0.4333938, 0, -0.90120465), (0.4333938, 0, -0.90120465), (0.43339393, -2.066584e-8, -0.9012046), (0.43339393, -2.066584e-8, -0.9012046), (0, -1, 0), (0, -1, 0), (0, -1, 0), (0, -1, 0), (-3.44008e-7, 2.2533325e-8, 1), (-3.3173728e-7, 2.2533326e-8, 1), (-2.5164477e-8, 2.2533326e-8, 1), (-5.266386e-8, 2.2533325e-8, 1), (-8.0163254e-8, 2.2533326e-8, 1), (-7.8466144e-8, 2.2533326e-8, 1), (-5.181531e-8, 2.2533326e-8, 1), (-2.5164475e-8, 2.2533325e-8, 1), (0, -1, 0.0000045001743), (0, -1, 0.000002121605), (0, -1, 1.3290357e-7), (0, -1, 0.0000030001163), (0.21269767, -4.7701867e-8, -0.9771181), (0.21269767, -4.7701867e-8, -0.9771181), (0.21269767, -4.7701867e-8, -0.9771181), (0.21269767, -4.7701867e-8, -0.9771181), (-0.18948926, -4.9535416e-8, -0.98188287), (-0.18948926, -4.9535416e-8, -0.98188287), (-0.18948926, -4.9535416e-8, -0.98188287), (-0.18948926, -4.9535416e-8, -0.98188287), (0, 1, 0.0000060002326), (0, 1, 2.658071e-7), (0, 1, 0.0000014144034), (0, 1, 0.0000030001165), (-0.045511212, -4.5040352e-8, -0.99896383), (-0.045511212, -4.5040352e-8, -0.99896383), (-0.045511212, -4.5040352e-8, -0.99896383), (-0.045511212, -4.5040352e-8, -0.99896383), (-0.43339413, 2.0665839e-8, 0.9012045), (-0.43339413, 2.0665839e-8, 0.9012045), (-0.433394, 2.066584e-8, 0.9012046), (-0.433394, 2.066584e-8, 0.9012046), (-0.13405308, -4.5239013e-8, -0.9909742), (-0.13405308, -4.5239013e-8, -0.9909742), (-0.13405308, -4.5239013e-8, -0.9909742), (-0.13405308, -4.5239013e-8, -0.9909742), (0, 1, -1.3001102e-7), (0, 1, -1.0379442e-7), (0, 1, -1.1678746e-7), (0, 1, -1.2592275e-7), (0, 1, 0), (0, 1, 0), (0, 1, 0), (0, 1, 2.658071e-7), (0, -1, 1.3290357e-7), (0, -1, 0), (0, -1, 0), (0, -1, 0), (0, -1, 0), (0, -1, 0), (0, -1, 0), (0, -1, 0), (0.0137711875, 4.489487e-8, 0.99990517), (0.0137711875, 4.489487e-8, 0.99990517), (0.0137711875, 4.489487e-8, 0.99990517), (0.0137711875, 4.489487e-8, 0.99990517), (0, 1, 0), (0, 1, 0), (0, 1, 0), (0, 1, 0), (0.06448736, -4.1874458e-8, -0.9979185), (0.06448736, -4.1874458e-8, -0.9979185), (0.06448736, -4.1874458e-8, -0.9979185), (0.06448736, -4.1874458e-8, -0.9979185), (-0.122235924, 4.439919e-8, 0.9925011), (-0.122235924, 4.439919e-8, 0.9925011), (-0.122235924, 4.439919e-8, 0.9925011), (-0.122235924, 4.439919e-8, 0.9925011), (-0.4333942, 0, 0.9012045), (-0.43339413, 2.0665839e-8, 0.9012045), (-0.43339413, 2.0665839e-8, 0.9012045), (-0.4333942, 0, 0.9012045), (0.43339393, -2.066584e-8, -0.9012046), (0.43339393, -2.066584e-8, -0.9012046), (0.4333943, -2.066584e-8, -0.9012044), (0.4333943, -2.066584e-8, -0.9012044), (0, 1, 0), (0, 1, 0), (0, 1, 0), (0, 1, 0), (0.4333943, -2.066584e-8, -0.9012044), (0.4333943, -2.066584e-8, -0.9012044), (0.4333945, 0, -0.90120435), (0.4333945, 0, -0.90120435), (-0.433394, 2.066584e-8, 0.9012046), (-0.43339399, 0, 0.9012045), (-0.43339399, 0, 0.9012045), (-0.433394, 2.066584e-8, 0.9012046), (-0.3272434, 4.322231e-8, 0.94494015), (-0.3272434, 4.322231e-8, 0.94494015), (-0.3272434, 4.322231e-8, 0.94494015), (-0.3272434, 4.322231e-8, 0.94494015), (-0.09675964, 4.63521e-8, 0.99530786), (-0.09675964, 4.63521e-8, 0.99530786), (-0.09675964, 4.63521e-8, 0.99530786), (-0.09675964, 4.63521e-8, 0.99530786), (0.20326751, 5.9336166e-8, 0.9791233), (0.20326751, 5.9336166e-8, 0.9791233), (0.20326751, 5.9336166e-8, 0.9791233), (0.20326751, 5.9336166e-8, 0.9791233), (-0.1718873, 4.901687e-8, 0.9851166), (-0.1718873, 4.901687e-8, 0.9851166), (-0.1718873, 4.901687e-8, 0.9851166), (-0.1718873, 4.901687e-8, 0.9851166), (0.010618448, 4.5764036e-8, 0.9999436), (0.010618448, 4.5764036e-8, 0.9999436), (0.010618448, 4.5764036e-8, 0.9999436), (0.010618448, 4.5764036e-8, 0.9999436), (0.32724312, 4.3845098e-8, 0.9449402), (0.32724312, 4.3845098e-8, 0.9449402), (0.32724312, 4.3845098e-8, 0.9449402), (0.32724312, 4.3845098e-8, 0.9449402), (0.096759655, 4.645585e-8, 0.9953078), (0.096759655, 4.645585e-8, 0.9953078), (0.096759655, 4.645585e-8, 0.9953078), (0.096759655, 4.645585e-8, 0.9953078), (-0.13151462, 0.012023151, 0.9912412), (-0.13151462, 0.012023151, 0.9912412), (-0.13151462, 0.012023151, 0.9912412), (-0.13151462, 0.012023151, 0.9912412), (0.26968193, -0.024654359, 0.9626338), (0.26968193, -0.024654359, 0.9626338), (0.26968193, -0.024654359, 0.9626338), (0.26968193, -0.024654359, 0.9626338), (-0.008497024, 0.00038773756, 0.9999638), (-0.008497024, 0.00038773756, 0.9999638), (-0.008497024, 0.00038773756, 0.9999638), (-0.008497024, 0.00038773756, 0.9999638), (0.33510277, -4.2805798e-8, -0.94218165), (0.33510277, -4.2805798e-8, -0.94218165), (0.33510277, -4.2805798e-8, -0.94218165), (0.33510277, -4.2805798e-8, -0.94218165), (0.09934836, -4.5336222e-8, -0.99505275), (0.09934836, -4.5336222e-8, -0.99505275), (0.09934836, -4.5336222e-8, -0.99505275), (0.09934836, -4.5336222e-8, -0.99505275), (-0.20852317, -4.767532e-8, -0.9780174), (-0.20852317, -4.767532e-8, -0.9780174), (-0.20852317, -4.767532e-8, -0.9780174), (-0.20852317, -4.767532e-8, -0.9780174), (0.1763876, -5.6645824e-8, -0.9843208), (0.1763876, -5.6645824e-8, -0.9843208), (0.1763876, -5.6645824e-8, -0.9843208), (0.1763876, -5.6645824e-8, -0.9843208), (-0.0109054055, -4.5917734e-8, -0.9999406), (-0.0109054055, -4.5917734e-8, -0.9999406), (-0.0109054055, -4.5917734e-8, -0.9999406), (-0.0109054055, -4.5917734e-8, -0.9999406), (-0.33510277, -4.30961e-8, -0.94218165), (-0.33510277, -4.30961e-8, -0.94218165), (-0.33510277, -4.30961e-8, -0.94218165), (-0.33510277, -4.30961e-8, -0.94218165), (-0.099348284, -4.6340222e-8, -0.99505275), (-0.099348284, -4.6340222e-8, -0.99505275), (-0.099348284, -4.6340222e-8, -0.99505275), (-0.099348284, -4.6340222e-8, -0.99505275), (0.13500246, -0.012341996, -0.9907684), (0.13500246, -0.012341996, -0.9907684), (0.13500246, -0.012341996, -0.9907684), (0.13500246, -0.012341996, -0.9907684), (-0.2764131, 0.025269693, -0.9607066), (-0.2764131, 0.025269693, -0.9607066), (-0.2764131, 0.025269693, -0.9607066), (-0.2764131, 0.025269693, -0.9607066), (0.008726665, -0.0003982142, -0.99996185), (0.008726665, -0.0003982142, -0.99996185), (0.008726665, -0.0003982142, -0.99996185), (0.008726665, -0.0003982142, -0.99996185), (0, 1, 0), (0, 1, 0), (0, 1, 0), (0, 1, 0), (0.08002523, 0.99679285, -0.00000565688), (0.08002523, 0.99679285, -0.00000565688), (0.08002523, 0.99679285, -0.00000565688), (0.08002523, 0.99679285, -0.00000565688), (0, -1, 0), (0, -1, 0), (0, -1, 0), (0, -1, 0), (0, -1, 0), (0, -1, 0), (0, -1, 0), (0, -1, 0), (0.99999994, 6.5763066e-9, 0.000025950285), (0.99999994, 6.5763066e-9, 0.000025950285), (0.99999994, 6.5763066e-9, 0.000025950285), (0.99999994, 6.5763066e-9, 0.000025950285), (-0.9958473, 0.091040455, 0), (-0.9958473, 0.091040455, 0), (-0.9958473, 0.091040455, 0), (-0.9958473, 0.091040455, 0), (0, 1, 0), (0, 1, 0), (0, 1, 0), (0, 1, 0), (0, 1, 0), (0, 1, 0), (0, 1, 0), (0, 1, 0), (-0.018737283, -0.9998244, 0), (-0.018737283, -0.9998244, 0), (-0.018737283, -0.9998244, 0), (-0.018737283, -0.9998244, 0), (-0.06091064, -0.9981432, 0), (-0.06091064, -0.9981432, 0), (-0.06091064, -0.9981432, 0), (-0.06091064, -0.9981432, 0), (0.018735241, 0.9998244, 0), (0.018735241, 0.9998244, 0), (0.018735241, 0.9998244, 0), (0.018735241, 0.9998244, 0), (0.060911577, 0.9981432, 0), (0.060911577, 0.9981432, 0), (0.060911577, 0.9981432, 0), (0.060911577, 0.9981432, 0), (0, -1, 0), (0, -1, 0), (0, -1, 0), (0, -1, 0), (0, -1, 0), (0, -0.99999994, 0), (0, -0.99999994, 0), (0, -1, 0), (0, -1, 0), (0, -1, 0), (0, -1, 0), (0, -1, 0), (-0.079853825, -0.9968066, -4.3422915e-8), (-0.080025375, -0.99679285, 0), (-0.080025375, -0.99679285, 0), (-0.072352745, -0.99737906, 0.000025783522), (0, 1, 0), (0, 1, 0), (0, 1, 0), (0, 1, 0), (0, 1, 0), (0, 1, 0), (0, 1, 0), (0, 1, 0), (0, 1, 0), (0, 1, 0), (0, 1, 0), (0, 1, 0), (0.10425598, 0.9945505, 0), (0.10425598, 0.9945505, 0), (0.10425598, 0.9945505, 0), (0.10425598, 0.9945505, 0), (0, -1, 0), (0, -1, 0), (0, -1, 0), (0, -1, 0), (-0.07219065, -0.9973909, 0), (-0.079853825, -0.9968066, -4.3422915e-8), (-0.072352745, -0.99737906, 0.000025783522), (-0.07219065, -0.9973909, 0), (0.092042476, -0.0002643446, 0.9957551), (0.092042476, -0.0002643446, 0.9957551), (0.092042476, -0.0002643446, 0.9957551), (0.092042476, -0.0002643446, 0.9957551), (0.9638233, -0.25036883, -0.09143251), (0.9638233, -0.25036883, -0.09143251), (0.9638233, -0.25036883, -0.09143251), (0.9638233, -0.25036883, -0.09143251), (0.13705017, 0.008733682, 0.9905256), (0.13705017, 0.008733682, 0.9905256), (0.13705017, 0.008733682, 0.9905256), (0.13705017, 0.008733682, 0.9905256), (-0.09204291, 0.00026439337, -0.995755), (-0.09204291, 0.00026439337, -0.995755), (-0.09204291, 0.00026439337, -0.995755), (-0.09204291, 0.00026439337, -0.995755), (0.09132309, -0.014732554, 0.9957123), (0.09132309, -0.014732554, 0.9957123), (0.09132309, -0.014732554, 0.9957123), (0.09132309, -0.014732554, 0.9957123), (-0.13705055, -0.008733557, -0.9905256), (-0.13705055, -0.008733557, -0.9905256), (-0.13705055, -0.008733557, -0.9905256), (-0.13705055, -0.008733557, -0.9905256), (-0.9644146, 0.24890254, 0.089173816), (-0.9644146, 0.24890254, 0.089173816), (-0.9644146, 0.24890254, 0.089173816), (-0.9644146, 0.24890254, 0.089173816), (-0.0022572067, -0.99999744, -0.000023509756), (-0.0022572067, -0.99999744, -0.000023509756), (-0.0022572067, -0.99999744, -0.000023509756), (-0.0022572067, -0.99999744, -0.000023509756), (0.992362, -0.08249238, -0.0917207), (0.992362, -0.08249238, -0.0917207), (0.992362, -0.08249238, -0.0917207), (0.992362, -0.08249238, -0.0917207), (0.28502864, 0.95816195, -0.026157131), (0.28502864, 0.95816195, -0.026157131), (0.28502864, 0.95816195, -0.026157131), (0.28502864, 0.95816195, -0.026157131), (0.4254101, 0.9046226, -0.026158258), (0.4254101, 0.9046226, -0.026158258), (0.4254101, 0.9046226, -0.026158258), (0.4254101, 0.9046226, -0.026158258), (-0.086856484, -0.9962047, -0.0056579416), (-0.086856484, -0.9962047, -0.0056579416), (-0.086856484, -0.9962047, -0.0056579416), (-0.086856484, -0.9962047, -0.0056579416), (-0.91621834, 0.39063, 0.08917421), (-0.91621834, 0.39063, 0.08917421), (-0.91621834, 0.39063, 0.08917421), (-0.91621834, 0.39063, 0.08917421), (-0.09132346, 0.014732546, -0.99571234), (-0.09132346, 0.014732546, -0.99571234), (-0.09132346, 0.014732546, -0.99571234), (-0.09132346, 0.014732546, -0.99571234), (-0.12781063, 0.9917803, 0.0060205506), (-0.12781063, 0.9917803, 0.0060205506), (-0.12781063, 0.9917803, 0.0060205506), (-0.12781063, 0.9917803, 0.0060205506), (-0.92805314, -0.36200285, 0.08758621), (-0.92805314, -0.36200285, 0.08758621), (-0.92805314, -0.36200285, 0.08758621), (-0.92805314, -0.36200285, 0.08758621), (0.3863025, -0.92188865, -0.029865025), (0.3863025, -0.92188865, -0.029865025), (0.3863025, -0.92188865, -0.029865025), (0.3863025, -0.92188865, -0.029865025), (0.99098927, 0.097516656, -0.091819), (0.99098927, 0.097516656, -0.091819), (0.99098927, 0.097516656, -0.091819), (0.99098927, 0.097516656, -0.091819), (0.38744578, -0.92188835, -0.0027578746), (0.38744578, -0.92188835, -0.0027578746), (0.38744578, -0.92188835, -0.0027578746), (0.38744578, -0.92188835, -0.0027578746), (-0.13670063, -0.066816635, 0.9883564), (-0.13670063, -0.066816635, 0.9883564), (-0.13670063, -0.066816635, 0.9883564), (-0.13670063, -0.066816635, 0.9883564), (-0.08594098, -0.9962315, -0.011702617), (-0.08594098, -0.9962315, -0.011702617), (-0.08594098, -0.9962315, -0.011702617), (-0.08594098, -0.9962315, -0.011702617), (0.06738208, 0.008730681, 0.9976891), (0.06738208, 0.008730681, 0.9976891), (0.06738208, 0.008730681, 0.9976891), (0.06738208, 0.008730681, 0.9976891), (0.13670081, 0.06681655, -0.9883565), (0.13670081, 0.06681655, -0.9883565), (0.13670081, 0.06681655, -0.9883565), (0.13670081, 0.06681655, -0.9883565), (0.967833, -0.2504698, -0.023755807), (0.967833, -0.2504698, -0.023755807), (0.967833, -0.2504698, -0.023755807), (0.967833, -0.2504698, -0.023755807), (0.99498934, 0.09747812, -0.022230415), (0.99498934, 0.09747812, -0.022230415), (0.99498934, 0.09747812, -0.022230415), (0.99498934, 0.09747812, -0.022230415), (-0.93194884, -0.3618969, 0.022408055), (-0.93194884, -0.3618969, 0.022408055), (-0.93194884, -0.3618969, 0.022408055), (-0.93194884, -0.3618969, 0.022408055), (-0.12791935, 0.9917802, -0.0029426715), (-0.12791935, 0.9917802, -0.0029426715), (-0.12791935, 0.9917802, -0.0029426715), (-0.12791935, 0.9917802, -0.0029426715), (-0.021405531, 0.01473586, -0.9996623), (-0.021405531, 0.01473586, -0.9996623), (-0.021405531, 0.01473586, -0.9996623), (-0.021405531, 0.01473586, -0.9996623), (0.9840453, -0.123550825, 0.12802304), (0.9840453, -0.123550825, 0.12802304), (0.9840453, -0.123550825, 0.12802304), (0.9840453, -0.123550825, 0.12802304), (0.12769645, 0.9916731, 0.016677937), (0.12769645, 0.9916731, 0.016677937), (0.12769645, 0.9916731, 0.016677937), (0.12769645, 0.9916731, 0.016677937), (-0.990624, 0.045255337, -0.12890339), (-0.990624, 0.045255337, -0.12890339), (-0.990624, 0.045255337, -0.12890339), (-0.990624, 0.045255337, -0.12890339), (-0.31287894, -0.948921, -0.04069094), (-0.31287894, -0.948921, -0.04069094), (-0.31287894, -0.948921, -0.04069094), (-0.31287894, -0.948921, -0.04069094), (-0.9202129, 0.3906298, 0.024829164), (-0.9202129, 0.3906298, 0.024829164), (-0.9202129, 0.3906298, 0.024829164), (-0.9202129, 0.3906298, 0.024829164), (0.42619798, 0.9046224, 0.0036789654), (0.42619798, 0.9046224, 0.0036789654), (0.42619798, 0.9046224, 0.0036789654), (0.42619798, 0.9046224, 0.0036789654), (-0.06738253, -0.008730597, -0.99768907), (-0.06738253, -0.008730597, -0.99768907), (-0.06738253, -0.008730597, -0.99768907), (-0.06738253, -0.008730597, -0.99768907), (0.021405177, -0.014735839, 0.99966234), (0.021405177, -0.014735839, 0.99966234), (0.021405177, -0.014735839, 0.99966234), (0.021405177, -0.014735839, 0.99966234), (-1.6334675e-7, 0, -1), (-1.6334675e-7, 0, -1), (-1.6334675e-7, 0, -1), (1.6334675e-7, 0, 1), (1.6334675e-7, 0, 1), (1.6334675e-7, 0, 1), (0.787377, 0.61647177, 0), (0.787377, 0.61647177, 0), (0.787377, 0.61647177, 0), (0.787377, 0.61647177, 0), (-0.99999994, 0, 0), (-0.99999994, 0, 0), (-0.99999994, 0, 0), (-0.99999994, 0, 0), (-4.4605665e-7, -1, 0), (-4.4605665e-7, -1, 0), (-4.4605665e-7, -1, 0), (-4.4605665e-7, -1, 0), (-3.2635063e-7, 4.3608846e-8, -1), (-3.2635063e-7, 4.3608846e-8, -1), (-3.2635063e-7, 4.3608846e-8, -1), (2.44763e-7, -4.3608885e-8, 1), (2.44763e-7, -4.3608885e-8, 1), (2.44763e-7, -4.3608885e-8, 1), (0.7876905, -0.6160711, 0), (0.7876905, -0.6160711, 0), (0.7876905, -0.6160711, 0), (0.7876905, -0.6160711, 0), (-1, 1.8885735e-11, 0), (-1, 1.8885735e-11, 0), (-1, 1.8885735e-11, 0), (-1, 1.8885735e-11, 0), (-4.4605622e-7, 1, 0), (-4.4605622e-7, 1, 0), (-4.4605622e-7, 1, 0), (-4.4605622e-7, 1, 0), (1.6317532e-7, -4.3608885e-8, -1), (1.6317532e-7, -4.3608885e-8, -1), (1.6317532e-7, -4.3608885e-8, -1), (0, 4.3608885e-8, 1), (0, 4.3608885e-8, 1), (0, 4.3608885e-8, 1), (-0.7876908, 0.6160707, 0), (-0.7876908, 0.6160707, 0), (-0.7876908, 0.6160707, 0), (-0.7876908, 0.6160707, 0), (0.99999994, -2.24826e-9, 0), (0.99999994, -2.24826e-9, 0), (0.99999994, -2.24826e-9, 0), (0.99999994, -2.24826e-9, 0), (4.4605633e-7, -1, 0), (4.4605633e-7, -1, 0), (4.4605633e-7, -1, 0), (4.4605633e-7, -1, 0), (3.037106e-7, 4.0583085e-8, -1), (3.037106e-7, 4.0583085e-8, -1), (3.037106e-7, 4.0583085e-8, -1), (0, 4.058374e-8, 1), (0, 4.058374e-8, 1), (0, 4.058374e-8, 1), (-0.80850893, -0.5884839, 0), (-0.80850893, -0.5884839, 0), (-0.80850893, -0.5884839, 0), (-0.80850893, -0.5884839, 0), (1, -0.0000016753933, 0), (1, -0.0000016753933, 0), (1, -0.0000016753933, 0), (1, -0.0000016753933, 0), (0, 1, 0), (0, 1, 0), (0, 1, 0), (0, 1, 0), (0.71711105, 0.6910484, -0.09057623), (0.71711105, 0.6910484, -0.09057623), (0.71711105, 0.6910484, -0.09057623), (0.71711105, 0.6910484, -0.09057623), (0.06524613, 0.068732426, 0.99549925), (0.06524613, 0.068732426, 0.99549925), (0.06524613, 0.068732426, 0.99549925), (0.06524613, 0.068732426, 0.99549925), (-0.42090052, 0.9065965, -0.03042228), (-0.42090052, 0.9065965, -0.03042228), (-0.42090052, 0.9065965, -0.03042228), (-0.42090052, 0.9065965, -0.03042228), (0.7114779, -0.7027085, -0.000023961922), (0.7114779, -0.7027085, -0.000023961922), (0.7114779, -0.7027085, -0.000023961922), (0.7114779, -0.7027085, -0.000023961922), (-0.8536346, -0.5131827, 0.08917094), (-0.8536346, -0.5131827, 0.08917094), (-0.8536346, -0.5131827, 0.08917094), (-0.8536346, -0.5131827, 0.08917094), (-0.06524602, -0.068730064, -0.9954995), (-0.06524602, -0.068730064, -0.9954995), (-0.06524602, -0.068730064, -0.9954995), (-0.06524602, -0.068730064, -0.9954995), (0.73275024, 0.6793594, -0.039342232), (0.73275024, 0.6793594, -0.039342232), (0.73275024, 0.6793594, -0.039342232), (0.73275024, 0.6793594, -0.039342232), (-0.004750345, 0.067791246, 0.99768823), (-0.004750345, 0.067791246, 0.99768823), (-0.004750345, 0.067791246, 0.99768823), (-0.004750345, 0.067791246, 0.99768823), (-0.43573663, 0.8981144, -0.059364077), (-0.43573663, 0.8981144, -0.059364077), (-0.43573663, 0.8981144, -0.059364077), (-0.43573663, 0.8981144, -0.059364077), (0.709735, -0.70270777, 0.04978112), (0.709735, -0.70270777, 0.04978112), (0.709735, -0.70270777, 0.04978112), (0.709735, -0.70270777, 0.04978112), (-0.8577825, -0.5131822, 0.029208992), (-0.8577825, -0.5131822, 0.029208992), (-0.8577825, -0.5131822, 0.029208992), (-0.8577825, -0.5131822, 0.029208992), (0.0047504455, -0.06778891, -0.9976884), (0.0047504455, -0.06778891, -0.9976884), (0.0047504455, -0.06778891, -0.9976884), (0.0047504455, -0.06778891, -0.9976884)] (
                interpolation = "faceVarying"
            )
            point3f[] points = [(0.43220544, -0.36994022, -0.09360768), (0.43220544, 0.37018654, -0.09360771), (0.43220544, 0.37018654, -0.07546424), (0.43220544, -0.36994022, -0.07546421), (0.43220544, 0.322296, -0.07546424), (0.43220544, 0.322296, -0.09360771), (0.43220544, -0.33899838, -0.09360768), (0.43220544, -0.33899838, -0.07546421), (0.39687175, -0.36994022, -0.09360768), (0.39687175, -0.36994022, -0.07546419), (0.39687175, 0.322296, -0.09360771), (0.39687175, -0.33899838, -0.09360768), (0.39687175, 0.37018654, -0.09360771), (0.39687175, 0.37018654, -0.07546422), (0.39687175, 0.322296, -0.07546422), (0.39687175, -0.33899838, -0.07546419), (0.36463425, 0.322296, 0.07189825), (0.36463425, -0.33899838, 0.07189828), (0.29738513, 0.37018654, -0.09360771), (0.19789833, 0.37018654, -0.093607694), (0.045727294, 0.37018654, -0.086223975), (0.29738513, 0.37018654, -0.07546422), (0.19789833, 0.37018654, -0.07546422), (0.045727294, 0.37018654, -0.068080485), (0.29738513, 0.322296, -0.07546422), (0.19789833, 0.322296, -0.07546422), (0.045727294, 0.322296, -0.068080485), (0.29738513, -0.33899838, -0.07546419), (0.19789833, -0.33899838, -0.07546419), (0.045727294, -0.33899838, -0.068080455), (0.045727294, -0.36994022, -0.086223945), (0.19789833, -0.36994022, -0.093607664), (0.29738513, -0.36994022, -0.09360768), (0.045727294, -0.36994022, -0.068080455), (0.19789833, -0.36994022, -0.07546419), (0.29738513, -0.36994022, -0.07546419), (0.045727294, 0.322296, -0.086223975), (0.19789833, 0.322296, -0.093607694), (0.29738513, 0.322296, -0.09360771), (0.045727294, -0.33899838, -0.086223945), (0.19789833, -0.33899838, -0.093607664), (0.29738513, -0.33899838, -0.09360768), (0.32396638, 0.322296, 0.06780693), (0.09841153, 0.322296, 0.058352552), (0.32396638, -0.33899838, 0.06780696), (0.09841153, -0.33899838, 0.058352582), (0.06108109, -0.36994022, -0.075464174), (0.06108109, -0.36994022, -0.093607664), (0.06108109, -0.33899838, -0.075464174), (0.06108109, 0.322296, -0.075464204), (0.06108109, 0.37018654, -0.075464204), (0.06108109, 0.37018654, -0.093607694), (0.39657173, 0.322296, -0.057708036), (0.39657173, -0.33899838, -0.057708006), (0.09841153, -0.33899838, -0.06568024), (0.29886663, -0.33899838, -0.076563686), (0.29886663, 0.322296, -0.076563716), (0.09841153, 0.322296, -0.06568027), (0.26359054, 0.322296, 0.07294409), (0.26359054, -0.33899838, 0.07294412), (0.24838248, 0.322296, -0.0655744), (0.24838248, -0.33899838, -0.06557437), (0.2241212, 0.322296, 0.07780512), (0.17168017, 0.322296, 0.07708287), (0.2241212, -0.33899838, 0.07780515), (0.17168017, -0.33899838, 0.0770829), (0.17168017, -0.33899838, -0.055768896), (0.2241212, -0.33899838, -0.05915774), (0.2241212, 0.322296, -0.059157766), (0.17168017, 0.322296, -0.055768926), (0.06108109, 0.322296, -0.093607694), (0.06108109, -0.33899838, -0.093607664), (-0.43435597, -0.36994022, -0.09360768), (-0.43435597, 0.37018654, -0.09360771), (-0.43435597, 0.37018654, -0.07546424), (-0.43435597, -0.36994022, -0.07546421), (-0.43435597, 0.322296, -0.07546424), (-0.43435597, 0.322296, -0.09360771), (-0.43435597, -0.33899838, -0.09360768), (-0.43435597, -0.33899838, -0.07546421), (-0.0010752688, -0.36994022, -0.08622392), (-0.0010752688, 0.37018654, -0.08622395), (-0.0010752688, -0.36994022, -0.06808045), (-0.0010752688, 0.37018654, -0.06808048), (-0.0010752688, 0.322296, -0.08622395), (-0.0010752688, 0.322296, -0.06808048), (-0.0010752688, -0.33899838, -0.06808045), (-0.0010752688, -0.33899838, -0.08622392), (-0.3990223, -0.36994022, -0.09360768), (-0.3990223, -0.36994022, -0.07546419), (-0.3990223, 0.322296, -0.09360771), (-0.3990223, -0.33899838, -0.09360768), (-0.3990223, 0.37018654, -0.09360771), (-0.3990223, 0.37018654, -0.07546422), (-0.3990223, 0.322296, -0.07546422), (-0.3990223, -0.33899838, -0.07546419), (-0.36678478, 0.322296, 0.07189825), (-0.0010752688, 0.322296, 0.046604857), (-0.36678478, -0.33899838, 0.07189828), (-0.0010752688, -0.33899838, 0.046604887), (-0.29953557, 0.37018654, -0.09360771), (-0.20004886, 0.37018654, -0.093607694), (-0.047877833, 0.37018654, -0.086223975), (-0.29953557, 0.37018654, -0.07546422), (-0.20004886, 0.37018654, -0.07546422), (-0.047877833, 0.37018654, -0.068080485), (-0.29953557, 0.322296, -0.07546422), (-0.20004886, 0.322296, -0.07546422), (-0.047877833, 0.322296, -0.068080485), (-0.29953557, -0.33899838, -0.07546419), (-0.20004886, -0.33899838, -0.07546419), (-0.047877833, -0.33899838, -0.068080455), (-0.047877833, -0.36994022, -0.086223945), (-0.20004886, -0.36994022, -0.093607664), (-0.29953557, -0.36994022, -0.09360768), (-0.047877833, -0.36994022, -0.068080455), (-0.20004886, -0.36994022, -0.07546419), (-0.29953557, -0.36994022, -0.07546419), (-0.047877833, 0.322296, -0.086223975), (-0.20004886, 0.322296, -0.093607694), (-0.29953557, 0.322296, -0.09360771), (-0.047877833, -0.33899838, -0.086223945), (-0.20004886, -0.33899838, -0.093607664), (-0.29953557, -0.33899838, -0.09360768), (-0.32611692, 0.322296, 0.06780693), (-0.100562066, 0.322296, 0.058352552), (-0.32611692, -0.33899838, 0.06780696), (-0.100562066, -0.33899838, 0.058352582), (-0.063231625, -0.36994022, -0.075464174), (-0.063231625, -0.36994022, -0.093607664), (-0.063231625, -0.33899838, -0.075464174), (-0.063231625, 0.322296, -0.075464204), (-0.063231625, 0.37018654, -0.075464204), (-0.063231625, 0.37018654, -0.093607694), (-0.0010752688, 0.322296, -0.05672843), (-0.39872226, 0.322296, -0.057708036), (-0.39872226, -0.33899838, -0.057708006), (-0.0010752688, -0.33899838, -0.0567284), (-0.100562066, -0.33899838, -0.06568024), (-0.30101717, -0.33899838, -0.076563686), (-0.30101717, 0.322296, -0.076563716), (-0.100562066, 0.322296, -0.06568027), (-0.26574108, 0.322296, 0.07294409), (-0.26574108, -0.33899838, 0.07294412), (-0.250533, 0.322296, -0.0655744), (-0.250533, -0.33899838, -0.06557437), (-0.22627173, 0.322296, 0.07780512), (-0.1738307, 0.322296, 0.07708287), (-0.22627173, -0.33899838, 0.07780515), (-0.1738307, -0.33899838, 0.0770829), (-0.1738307, -0.33899838, -0.055768896), (-0.22627173, -0.33899838, -0.05915774), (-0.22627173, 0.322296, -0.059157766), (-0.1738307, 0.322296, -0.055768926), (-0.063231625, 0.322296, -0.093607694), (-0.063231625, -0.33899838, -0.093607664), (0.100878276, 0.31626582, 0.08475742), (0.100878276, -0.3327924, 0.08475745), (0.18945964, 0.31626582, 0.093368925), (0.18945964, -0.3327924, 0.093368955), (0.33152416, 0.31626582, 0.077868216), (0.33152416, -0.3327924, 0.07786826), (0.36036173, 0.31572545, 0.08289993), (0.36036173, -0.33333284, 0.08289994), (0.2604919, -0.3327924, 0.09261466), (0.2604919, 0.31626582, 0.09261463), (-0.001073814, 0.31626582, 0.049450263), (-0.001073814, -0.3327924, 0.049450293), (-0.10302599, 0.31626582, 0.08475742), (-0.10302599, -0.3327924, 0.08475745), (-0.19160734, 0.31626582, 0.093368925), (-0.19160734, -0.3327924, 0.093368955), (-0.27507406, 0.32441175, 0.089327596), (-0.3341945, -0.32227764, 0.089327626), (-0.30323693, 0.3261304, 0.09726145), (-0.36235738, -0.32055902, 0.097261466), (-0.30960032, -0.32425213, 0.09261466), (-0.2504798, 0.32243726, 0.09261463), (-0.001073814, -0.3327924, 0.04165598), (-0.001073814, 0.31626582, 0.04165595), (0.10087836, -0.3327924, 0.07791699), (0.10087836, 0.31626582, 0.07791696), (0.18945964, -0.3327924, 0.08676115), (0.18945964, 0.31626582, 0.08676112), (0.33152416, -0.3327924, 0.07084168), (0.33152416, 0.31626582, 0.07084163), (0.2604919, -0.3327924, 0.085986465), (0.2604919, 0.31626582, 0.085986435), (0.3603619, -0.33333284, 0.07600932), (0.3603619, 0.31572545, 0.07600929), (-0.10302599, -0.3327924, 0.07791699), (-0.10302599, 0.31626582, 0.07791696), (-0.19160734, -0.3327924, 0.08676115), (-0.19160734, 0.31626582, 0.08676112), (-0.3341945, -0.32227764, 0.082610644), (-0.27507412, 0.32441175, 0.082610615), (-0.30960032, -0.32425213, 0.085986465), (-0.2504798, 0.32243726, 0.085986435), (-0.36235738, -0.32055902, 0.090758815), (-0.30323693, 0.3261304, 0.0907588), (-0.43228075, -0.1059542, 0.044123884), (-0.14200334, -0.10660896, 0.017283237), (-0.35507277, 0.19573182, 0.037058543), (-0.12281966, 0.12605624, 0.015580485), (-0.089576095, -0.07953534, -0.051872995), (-0.30876338, 0.02416142, -0.030394828), (-0.14341253, -0.28740934, -0.05017026), (-0.43031344, -0.26254585, -0.023329508), (-0.39745247, 0.25108021, -0.0030537562), (-0.29494792, -0.01470267, -0.015435623), (-0.1367664, 0.28489923, -0.03996343), (-0.11483931, 0.06158041, -0.040485553), (-0.43260577, -0.10595348, 0.04060577), (-0.1423282, -0.10660807, 0.013765), (-0.35539797, 0.19573253, 0.033540443), (-0.12314502, 0.12605698, 0.012062274), (-0.089254506, -0.07958484, -0.048354786), (-0.30844197, 0.024111995, -0.026876733), (-0.14309154, -0.2874558, -0.04665203), (-0.42999217, -0.26259527, -0.01981139), (-0.39777648, 0.25105986, -0.006571899), (-0.29527158, -0.014724388, -0.018953908), (-0.13709024, 0.2848789, -0.04348174), (-0.115163304, 0.06155869, -0.044003814), (0.39466798, 0.06013502, 0.019125443), (0.37275836, 0.28354478, 0.018111425), (0.2132482, -0.01614806, 0.031507075), (0.110127985, 0.24972574, 0.036683805), (0.40441808, 0.19583535, -0.0011079606), (0.17215486, 0.22627115, -0.032482583), (0.37808362, -0.035222974, -0.021678347), (0.16509344, 0.03600508, -0.045014337), (0.078918055, -0.26401892, 0.021221811), (0.36699358, -0.2887899, 0.014528857), (0.2006646, 0.022688324, 0.022681803), (0.4208178, -0.081008516, 0.016598638), (0.39474502, 0.060156737, 0.022657748), (0.37283504, 0.2835651, 0.021643773), (0.21332479, -0.016126342, 0.035039376), (0.11020491, 0.24974611, 0.040215988), (0.40484133, 0.1958355, -0.004361974), (0.17257829, 0.22627144, -0.03573661), (0.37850705, -0.035223123, -0.02493235), (0.16551687, 0.036005072, -0.048268355), (0.07884378, -0.2639695, 0.017689839), (0.36691964, -0.28874347, 0.010996773), (0.20059022, 0.022737747, 0.01914984), (0.42074317, -0.080959015, 0.013066556), (-0.43828052, -0.37603056, -0.09726144), (-0.30465478, -0.37603062, -0.09726145), (-0.43828052, -0.20535961, -0.09726144), (-0.43828052, -0.37603056, -0.08212184), (-0.30465478, -0.37603062, -0.08212186), (-0.43828052, -0.20535961, -0.08212184), (-0.43750656, 0.37336072, -0.097261414), (-0.30388072, 0.37336078, -0.09726145), (-0.43750656, 0.20251061, -0.09726142), (-0.43750656, 0.37336072, -0.082121834), (-0.30388072, 0.37336078, -0.08212185), (-0.43750656, 0.20251061, -0.08212184), (0.43828052, -0.37336072, -0.09726142), (0.3046547, -0.37336078, -0.09726145), (0.43828052, -0.20251061, -0.09726143), (0.43828052, -0.37336072, -0.08212184), (0.3046547, -0.37336078, -0.08212186), (0.43828052, -0.20251061, -0.08212185), (0.43750656, 0.37603062, -0.097261414), (0.30388072, 0.37603062, -0.09726145), (0.43750623, 0.19244458, -0.09726142), (0.43750656, 0.37603062, -0.082121834), (0.30388072, 0.37603062, -0.08212185), (0.43750623, 0.19244458, -0.08212183), (-0.21650112, 0.280304, -0.051872984), (-0.42901668, 0.18235396, -0.03039483), (-0.06404572, 0.12231506, -0.05017026), (-0.26802605, -0.084212065, -0.023329511), (-0.21627246, 0.28052095, -0.048354775), (-0.42878821, 0.18258537, -0.026876738), (-0.063817315, 0.122546084, -0.046652034), (-0.26779765, -0.08398082, -0.019811397), (0.2643378, 0.20272234, -0.014580296), (0.05084006, 0.0995657, -0.008030024), (0.41630003, 0.03952679, -0.0022105016), (0.2109413, -0.16700034, 0.010286626), (0.26431957, 0.20293926, -0.011054717), (0.05082175, 0.09979711, -0.004504573), (0.41628155, 0.039757818, 0.0013150775), (0.21092291, -0.16676909, 0.013812103)]
            uniform token subdivisionScheme = "none"
            uniform token subsetFamily:materialBind:familyType = "nonOverlapping"
            custom string userProperties:blender:data_name = "Cube.118"

            def GeomSubset "Beige" (
                prepend apiSchemas = ["MaterialBindingAPI"]
            )
            {
                uniform token elementType = "face"
                uniform token familyName = "materialBind"
                int[] indices = [14, 19, 20, 21, 22, 23, 24, 25, 26, 27, 40, 41, 42, 55, 56, 57, 58, 59, 61, 62, 63, 64, 65, 66, 67, 68, 69, 89, 94, 95, 96, 97, 98, 99, 100, 101, 102, 115, 116, 117, 130, 131, 132, 133, 134, 136, 137, 138, 139, 140, 141, 142, 143, 144, 150, 151, 152, 153, 154, 155, 156, 157, 158, 159, 160, 161, 162, 163, 164, 165, 166, 167, 168, 169, 170, 171, 172, 173, 174, 175, 176, 177, 178, 179, 180, 181, 182, 183, 184, 185, 186, 187, 188, 189, 190, 191, 192, 193, 194, 195, 196, 197, 198, 199, 200, 201, 202, 203, 204, 205, 206, 207, 208, 209, 210, 211, 212, 213, 214, 215, 216, 217, 218, 219, 220, 221, 222, 223, 224, 225, 226, 227, 248, 249, 250, 251, 252, 253, 254, 255, 256, 257, 258, 259]
                rel material:binding = </root/_materials/Beige>
            }

            def GeomSubset "DarkBrown" (
                prepend apiSchemas = ["MaterialBindingAPI"]
            )
            {
                uniform token elementType = "face"
                uniform token familyName = "materialBind"
                int[] indices = [0, 1, 2, 3, 4, 5, 6, 7, 8, 9, 10, 11, 12, 13, 15, 16, 17, 18, 28, 29, 30, 31, 32, 33, 34, 35, 36, 37, 38, 39, 43, 44, 45, 46, 47, 48, 49, 50, 51, 52, 53, 54, 60, 70, 71, 72, 73, 74, 75, 76, 77, 78, 79, 80, 81, 82, 83, 84, 85, 86, 87, 88, 90, 91, 92, 93, 103, 104, 105, 106, 107, 108, 109, 110, 111, 112, 113, 114, 118, 119, 120, 121, 122, 123, 124, 125, 126, 127, 128, 129, 135, 145, 146, 147, 148, 149]
                rel material:binding = </root/_materials/DarkBrown>
            }

            def GeomSubset "Gold" (
                prepend apiSchemas = ["MaterialBindingAPI"]
            )
            {
                uniform token elementType = "face"
                uniform token familyName = "materialBind"
                int[] indices = [228, 229, 230, 231, 232, 233, 234, 235, 236, 237, 238, 239, 240, 241, 242, 243, 244, 245, 246, 247]
                rel material:binding = </root/_materials/Gold>
            }
        }
    }

    def Scope "_materials"
    {
        def Material "DarkRed"
        {
            token outputs:surface.connect = </root/_materials/DarkRed/Principled_BSDF.outputs:surface>
            custom string userProperties:blender:data_name = "DarkRed"

            def Shader "Principled_BSDF"
            {
                uniform token info:id = "UsdPreviewSurface"
                float inputs:clearcoat = 0
                float inputs:clearcoatRoughness = 0.03
                color3f inputs:diffuseColor = (0.114931844, 0.032245763, 0.026707541)
                float inputs:ior = 1.5
                float inputs:metallic = 0
                float inputs:opacity = 1
                float inputs:roughness = 0.6900348
                float inputs:specular = 0.5
                token outputs:surface
            }
        }

        def Material "Beige"
        {
            token outputs:surface.connect = </root/_materials/Beige/Principled_BSDF.outputs:surface>
            custom string userProperties:blender:data_name = "Beige"

            def Shader "Principled_BSDF"
            {
                uniform token info:id = "UsdPreviewSurface"
                float inputs:clearcoat = 0
                float inputs:clearcoatRoughness = 0.03
                color3f inputs:diffuseColor = (0.34237862, 0.29983246, 0.21136512)
                float inputs:ior = 1.5
                float inputs:metallic = 0
                float inputs:opacity = 1
                float inputs:roughness = 0.6900348
                float inputs:specular = 0.5
                token outputs:surface
            }
        }

        def Material "DarkBrown"
        {
            token outputs:surface.connect = </root/_materials/DarkBrown/Principled_BSDF.outputs:surface>
            custom string userProperties:blender:data_name = "DarkBrown"

            def Shader "Principled_BSDF"
            {
                uniform token info:id = "UsdPreviewSurface"
                float inputs:clearcoat = 0
                float inputs:clearcoatRoughness = 0.03
                color3f inputs:diffuseColor = (0.0985016, 0.054407902, 0.037490133)
                float inputs:ior = 1.5
                float inputs:metallic = 0
                float inputs:opacity = 1
                float inputs:roughness = 0.6900348
                float inputs:specular = 0.5
                token outputs:surface
            }
        }

        def Material "Gold"
        {
            token outputs:surface.connect = </root/_materials/Gold/Principled_BSDF.outputs:surface>
            custom string userProperties:blender:data_name = "Gold"

            def Shader "Principled_BSDF"
            {
                uniform token info:id = "UsdPreviewSurface"
                float inputs:clearcoat = 0
                float inputs:clearcoatRoughness = 0.03
                color3f inputs:diffuseColor = (0.6038168, 0.4702883, 0.09837735)
                float inputs:ior = 1.5
                float inputs:metallic = 0
                float inputs:opacity = 1
                float inputs:roughness = 0.6900348
                float inputs:specular = 0.5
                token outputs:surface
            }
        }
    }
}

