#usda 1.0
(
    defaultPrim = "root"
    doc = "Blender v5.1.2"
    metersPerUnit = 1
    upAxis = "Y"
)

def Xform "root" (
    customData = {
        dictionary Blender = {
            bool generated = 1
        }
    }
)
{
    float3 xformOp:rotateXYZ = (-90, -0, 0)
    uniform token[] xformOpOrder = ["xformOp:rotateXYZ"]

    def Xform "Heart"
    {
        custom string userProperties:blender:object_name = "Heart"

        def Mesh "Cube_003" (
            active = true
            prepend apiSchemas = ["MaterialBindingAPI"]
        )
        {
            uniform bool doubleSided = 1
            float3[] extent = [(-0.40097046, -0.19637433, -0.3117001), (0.40097046, 0.19637433, 0.34049308)]
            int[] faceVertexCounts = [4, 4, 4, 4, 4, 4, 4, 4, 4, 4, 4, 4, 4, 4, 4, 4, 4, 4, 4, 4, 4, 4, 4, 4, 4, 4, 4, 4, 4, 4, 4, 4, 4, 4, 4, 4, 4, 4, 4, 4, 4, 4, 4, 4, 4, 4, 4, 4, 4, 4, 4, 4, 4, 4, 4, 4, 4, 4, 4, 4, 4, 4, 4, 4, 4, 4, 4, 4, 4, 4, 4, 4, 4, 4, 4, 4, 4, 4, 4, 4, 4, 4, 4, 4, 4, 4, 4, 4, 4, 4, 4, 4, 4, 4, 4, 4, 4, 4, 4, 4, 4, 4, 4, 4, 4, 4, 4, 4, 4, 4, 4, 4, 4, 4, 4, 4, 4, 4, 4, 4, 4, 4, 4, 4, 4, 4, 4, 4, 4, 4, 4, 4, 4, 4, 4, 4, 4, 4, 4, 4, 4, 4, 4, 4, 4, 4, 4, 4, 4, 4, 4, 4, 4, 4, 4, 4, 4, 4, 4, 4, 4, 4, 4, 4, 4, 4, 4, 4, 4, 4, 4, 4, 4, 4, 4, 4, 4, 4, 4, 4, 4, 4, 4, 4, 4, 4, 4, 4, 4, 4, 4, 4, 4, 4, 4, 4, 4, 4, 4, 4, 4, 4, 4, 4, 4, 4, 4, 4, 4, 4, 4, 4, 4, 4, 4, 4, 4, 4, 4, 4, 4, 4, 4, 4, 4, 4, 4, 4, 4, 4, 4, 4, 4, 4, 4, 4, 4, 4, 4, 4, 4, 4, 4, 4, 4, 4, 4, 4, 4, 4, 4, 4, 4, 4, 4, 4, 4, 4, 4, 4, 4, 4, 4, 4, 4, 4, 4, 4, 4, 4, 4, 4, 4, 4, 4, 4, 4, 4, 4, 4, 4, 4, 4, 4, 4, 4, 4, 4]
            int[] faceVertexIndices = [0, 3, 4, 1, 1, 4, 126, 125, 3, 98, 99, 4, 4, 99, 129, 126, 0, 1, 5, 2, 2, 5, 82, 83, 1, 125, 124, 5, 5, 124, 131, 82, 0, 2, 6, 3, 3, 6, 97, 98, 2, 83, 84, 6, 6, 84, 128, 97, 7, 11, 12, 8, 8, 12, 99, 98, 11, 104, 103, 12, 12, 103, 129, 99, 7, 8, 13, 9, 9, 13, 85, 86, 8, 98, 97, 13, 13, 97, 128, 85, 7, 9, 14, 10, 10, 14, 100, 101, 9, 86, 87, 14, 14, 87, 127, 100, 7, 10, 15, 11, 11, 15, 105, 104, 10, 101, 102, 15, 15, 102, 130, 105, 16, 20, 21, 17, 17, 21, 108, 107, 20, 116, 115, 21, 21, 115, 131, 108, 16, 17, 22, 18, 18, 22, 230, 231, 17, 107, 106, 22, 22, 106, 281, 230, 16, 18, 23, 19, 19, 23, 96, 95, 18, 231, 232, 23, 23, 232, 283, 96, 16, 19, 24, 20, 20, 24, 117, 116, 19, 95, 94, 24, 24, 94, 132, 117, 25, 29, 30, 26, 26, 30, 114, 113, 29, 119, 118, 30, 30, 118, 130, 114, 25, 26, 31, 27, 27, 31, 94, 95, 26, 113, 112, 31, 31, 112, 132, 94, 25, 27, 32, 28, 28, 32, 248, 249, 27, 95, 96, 32, 32, 96, 283, 248, 25, 28, 33, 29, 29, 33, 120, 119, 28, 249, 250, 33, 33, 250, 286, 120, 34, 37, 38, 35, 35, 38, 118, 119, 37, 89, 90, 38, 38, 90, 130, 118, 34, 35, 39, 36, 36, 39, 236, 237, 35, 119, 120, 39, 39, 120, 286, 236, 34, 36, 40, 37, 37, 40, 88, 89, 36, 237, 238, 40, 40, 238, 282, 88, 41, 44, 45, 42, 42, 45, 241, 240, 44, 92, 93, 45, 45, 93, 280, 241, 41, 42, 46, 43, 43, 46, 121, 122, 42, 240, 239, 46, 46, 239, 287, 121, 41, 43, 47, 44, 44, 47, 91, 92, 43, 122, 123, 47, 47, 123, 129, 91, 48, 52, 53, 49, 49, 53, 93, 92, 52, 234, 233, 53, 53, 233, 280, 93, 48, 49, 54, 50, 50, 54, 103, 104, 49, 92, 91, 54, 54, 91, 129, 103, 48, 50, 55, 51, 51, 55, 90, 89, 50, 104, 105, 55, 55, 105, 130, 90, 48, 51, 56, 52, 52, 56, 235, 234, 51, 89, 88, 56, 56, 88, 282, 235, 57, 60, 61, 58, 58, 61, 102, 101, 60, 113, 114, 61, 61, 114, 130, 102, 57, 58, 62, 59, 59, 62, 109, 110, 58, 101, 100, 62, 62, 100, 127, 109, 57, 59, 63, 60, 60, 63, 112, 113, 59, 110, 111, 63, 63, 111, 132, 112, 64, 68, 69, 65, 65, 69, 84, 83, 68, 86, 85, 69, 69, 85, 128, 84, 64, 65, 70, 66, 66, 70, 115, 116, 65, 83, 82, 70, 70, 82, 131, 115, 64, 66, 71, 67, 67, 71, 111, 110, 66, 116, 117, 71, 71, 117, 132, 111, 64, 67, 72, 68, 68, 72, 87, 86, 67, 110, 109, 72, 72, 109, 127, 87, 73, 77, 78, 74, 74, 78, 253, 252, 77, 122, 121, 78, 78, 121, 287, 253, 73, 74, 79, 75, 75, 79, 106, 107, 74, 252, 251, 79, 79, 251, 281, 106, 73, 75, 80, 76, 76, 80, 124, 125, 75, 107, 108, 80, 80, 108, 131, 124, 73, 76, 81, 77, 77, 81, 123, 122, 76, 125, 126, 81, 81, 126, 129, 123, 133, 134, 137, 136, 134, 276, 277, 137, 136, 137, 244, 243, 137, 277, 284, 244, 133, 135, 138, 134, 135, 216, 215, 138, 134, 138, 275, 276, 138, 215, 288, 275, 133, 136, 139, 135, 136, 243, 242, 139, 135, 139, 217, 216, 139, 242, 279, 217, 140, 141, 145, 144, 141, 243, 244, 145, 144, 145, 254, 255, 145, 244, 284, 254, 140, 142, 146, 141, 142, 219, 218, 146, 141, 146, 242, 243, 146, 218, 279, 242, 140, 143, 147, 142, 143, 246, 245, 147, 142, 147, 220, 219, 147, 245, 278, 220, 140, 144, 148, 143, 144, 255, 256, 148, 143, 148, 247, 246, 148, 256, 285, 247, 149, 150, 154, 153, 150, 258, 259, 154, 153, 154, 266, 267, 154, 259, 288, 266, 149, 151, 155, 150, 151, 231, 230, 155, 150, 155, 257, 258, 155, 230, 281, 257, 149, 152, 156, 151, 152, 228, 229, 156, 151, 156, 232, 231, 156, 229, 283, 232, 149, 153, 157, 152, 153, 267, 268, 157, 152, 157, 227, 228, 157, 268, 289, 227, 158, 159, 163, 162, 159, 264, 265, 163, 162, 163, 269, 270, 163, 265, 285, 269, 158, 160, 164, 159, 160, 228, 227, 164, 159, 164, 263, 264, 164, 227, 289, 263, 158, 161, 165, 160, 161, 249, 248, 165, 160, 165, 229, 228, 165, 248, 283, 229, 158, 162, 166, 161, 162, 270, 271, 166, 161, 166, 250, 249, 166, 271, 286, 250, 167, 168, 171, 170, 168, 270, 269, 171, 170, 171, 223, 222, 171, 269, 285, 223, 167, 169, 172, 168, 169, 237, 236, 172, 168, 172, 271, 270, 172, 236, 286, 271, 167, 170, 173, 169, 170, 222, 221, 173, 169, 173, 238, 237, 173, 221, 282, 238, 174, 175, 178, 177, 175, 240, 241, 178, 177, 178, 226, 225, 178, 241, 280, 226, 174, 176, 179, 175, 176, 273, 272, 179, 175, 179, 239, 240, 179, 272, 287, 239, 174, 177, 180, 176, 177, 225, 224, 180, 176, 180, 274, 273, 180, 224, 284, 274, 181, 182, 186, 185, 182, 225, 226, 186, 185, 186, 233, 234, 186, 226, 280, 233, 181, 183, 187, 182, 183, 255, 254, 187, 182, 187, 224, 225, 187, 254, 284, 224, 181, 184, 188, 183, 184, 222, 223, 188, 183, 188, 256, 255, 188, 223, 285, 256, 181, 185, 189, 184, 185, 234, 235, 189, 184, 189, 221, 222, 189, 235, 282, 221, 190, 191, 194, 193, 191, 246, 247, 194, 193, 194, 265, 264, 194, 247, 285, 265, 190, 192, 195, 191, 192, 261, 260, 195, 191, 195, 245, 246, 195, 260, 278, 245, 190, 193, 196, 192, 193, 264, 263, 196, 192, 196, 262, 261, 196, 263, 289, 262, 197, 198, 202, 201, 198, 216, 217, 202, 201, 202, 218, 219, 202, 217, 279, 218, 197, 199, 203, 198, 199, 267, 266, 203, 198, 203, 215, 216, 203, 266, 288, 215, 197, 200, 204, 199, 200, 261, 262, 204, 199, 204, 268, 267, 204, 262, 289, 268, 197, 201, 205, 200, 201, 219, 220, 205, 200, 205, 260, 261, 205, 220, 278, 260, 206, 207, 211, 210, 207, 252, 253, 211, 210, 211, 272, 273, 211, 253, 287, 272, 206, 208, 212, 207, 208, 258, 257, 212, 207, 212, 251, 252, 212, 257, 281, 251, 206, 209, 213, 208, 209, 276, 275, 213, 208, 213, 259, 258, 213, 275, 288, 259, 206, 210, 214, 209, 210, 273, 274, 214, 209, 214, 277, 276, 214, 274, 284, 277]
            rel material:binding = </root/_materials/Red>
            normal3f[] normals = [(0.25025818, 0.96817917, 0.00015680584), (0.25025818, 0.96817917, 0.00015680584), (0.25025818, 0.96817917, 0.00015680584), (0.25025818, 0.96817917, 0.00015680584), (0.11275452, 0.9887394, -0.098391905), (0.11275452, 0.9887394, -0.098391905), (0.11275452, 0.9887394, -0.098391905), (0.11275452, 0.9887394, -0.098391905), (0.605767, 0.78226995, -0.14525846), (0.605767, 0.78226995, -0.14525846), (0.605767, 0.78226995, -0.14525846), (0.605767, 0.78226995, -0.14525846), (0.42694417, 0.8739131, -0.2323673), (0.42694417, 0.8739131, -0.2323673), (0.42694417, 0.8739131, -0.2323673), (0.42694417, 0.8739131, -0.2323673), (0.053984232, 0.9781898, 0.2005751), (0.053984232, 0.9781898, 0.2005751), (0.053984232, 0.9781898, 0.2005751), (0.053984232, 0.9781898, 0.2005751), (-0.08429771, 0.8117893, 0.577834), (-0.08429771, 0.8117893, 0.577834), (-0.08429771, 0.8117893, 0.577834), (-0.08429771, 0.8117893, 0.577834), (-0.090661205, 0.9881077, 0.124192074), (-0.090661205, 0.9881077, 0.124192074), (-0.090661205, 0.9881077, 0.124192074), (-0.090661205, 0.9881077, 0.124192074), (-0.23455983, 0.8488394, 0.4737649), (-0.23455983, 0.8488394, 0.4737649), (-0.23455983, 0.8488394, 0.4737649), (-0.23455983, 0.8488394, 0.4737649), (0.3538191, 0.89948565, 0.2563934), (0.3538191, 0.89948565, 0.2563934), (0.3538191, 0.89948565, 0.2563934), (0.3538191, 0.89948565, 0.2563934), (0.70431346, 0.683832, 0.19056894), (0.70431346, 0.683832, 0.19056894), (0.70431346, 0.683832, 0.19056894), (0.70431346, 0.683832, 0.19056894), (0.31937712, 0.7113849, 0.6260429), (0.31937712, 0.7113849, 0.6260429), (0.31937712, 0.7113849, 0.6260429), (0.31937712, 0.7113849, 0.6260429), (0.6381025, 0.56033474, 0.5280628), (0.6381025, 0.56033474, 0.5280628), (0.6381025, 0.56033474, 0.5280628), (0.6381025, 0.56033474, 0.5280628), (0.96407735, 0.11364693, -0.24008173), (0.96407735, 0.11364693, -0.24008173), (0.96407735, 0.11364693, -0.24008173), (0.96407735, 0.11364693, -0.24008173), (0.88998395, 0.39871746, -0.22125305), (0.88998395, 0.39871746, -0.22125305), (0.88998395, 0.39871746, -0.22125305), (0.88998395, 0.39871746, -0.22125305), (0.8939464, 0.118756056, -0.43215385), (0.8939464, 0.118756056, -0.43215385), (0.8939464, 0.118756056, -0.43215385), (0.8939464, 0.118756056, -0.43215385), (0.8078276, 0.43470335, -0.3980548), (0.8078276, 0.43470335, -0.3980548), (0.8078276, 0.43470335, -0.3980548), (0.8078276, 0.43470335, -0.3980548), (0.9925468, 0.118197836, 0.029668465), (0.9925468, 0.118197836, 0.029668465), (0.9925468, 0.118197836, 0.029668465), (0.9925468, 0.118197836, 0.029668465), (0.89826363, 0.15042828, 0.41290876), (0.89826363, 0.15042828, 0.41290876), (0.89826363, 0.15042828, 0.41290876), (0.89826363, 0.15042828, 0.41290876), (0.9226471, 0.37612405, 0.08516399), (0.9226471, 0.37612405, 0.08516399), (0.9226471, 0.37612405, 0.08516399), (0.9226471, 0.37612405, 0.08516399), (0.80672836, 0.3931553, 0.44115552), (0.80672836, 0.3931553, 0.44115552), (0.80672836, 0.3931553, 0.44115552), (0.80672836, 0.3931553, 0.44115552), (0.99254674, -0.118197545, 0.029668458), (0.99254674, -0.118197545, 0.029668458), (0.99254674, -0.118197545, 0.029668458), (0.99254674, -0.118197545, 0.029668458), (0.9226472, -0.3761241, 0.085163765), (0.9226472, -0.3761241, 0.085163765), (0.9226472, -0.3761241, 0.085163765), (0.9226472, -0.3761241, 0.085163765), (0.89826345, -0.15042819, 0.41290912), (0.89826345, -0.15042819, 0.41290912), (0.89826345, -0.15042819, 0.41290912), (0.89826345, -0.15042819, 0.41290912), (0.80672836, -0.393155, 0.44115588), (0.80672836, -0.393155, 0.44115588), (0.80672836, -0.393155, 0.44115588), (0.80672836, -0.393155, 0.44115588), (0.96407735, -0.11364732, -0.24008176), (0.96407735, -0.11364732, -0.24008176), (0.96407735, -0.11364732, -0.24008176), (0.96407735, -0.11364732, -0.24008176), (0.8939463, -0.11875634, -0.43215376), (0.8939463, -0.11875634, -0.43215376), (0.8939463, -0.11875634, -0.43215376), (0.8939463, -0.11875634, -0.43215376), (0.88998425, -0.39871687, -0.22125313), (0.88998425, -0.39871687, -0.22125313), (0.88998425, -0.39871687, -0.22125313), (0.88998425, -0.39871687, -0.22125313), (0.8078276, -0.43470326, -0.3980549), (0.8078276, -0.43470326, -0.3980549), (0.8078276, -0.43470326, -0.3980549), (0.8078276, -0.43470326, -0.3980549), (-0.7249757, 0.13619904, 0.675174), (-0.7249757, 0.13619904, 0.675174), (-0.7249757, 0.13619904, 0.675174), (-0.7249757, 0.13619904, 0.675174), (-0.6011822, 0.45612887, 0.65614516), (-0.6011822, 0.45612887, 0.65614516), (-0.6011822, 0.45612887, 0.65614516), (-0.6011822, 0.45612887, 0.65614516), (-0.52620363, 0.15405712, 0.8362871), (-0.52620363, 0.15405712, 0.8362871), (-0.52620363, 0.15405712, 0.8362871), (-0.52620363, 0.15405712, 0.8362871), (-0.4528778, 0.49470145, 0.7417358), (-0.4528778, 0.49470145, 0.7417358), (-0.4528778, 0.49470145, 0.7417358), (-0.4528778, 0.49470145, 0.7417358), (-0.8683156, 0.095332585, 0.48676464), (-0.8683156, 0.095332585, 0.48676464), (-0.8683156, 0.095332585, 0.48676464), (-0.8683156, 0.095332585, 0.48676464), (-0.92994994, 0.048530214, 0.3644693), (-0.92994994, 0.048530214, 0.3644693), (-0.92994994, 0.048530214, 0.3644693), (-0.92994994, 0.048530214, 0.3644693), (-0.7427137, 0.35744178, 0.566226), (-0.7427137, 0.35744178, 0.566226), (-0.7427137, 0.35744178, 0.566226), (-0.7427137, 0.35744178, 0.566226), (-0.83430517, 0.2176975, 0.50650036), (-0.83430517, 0.2176975, 0.50650036), (-0.83430517, 0.2176975, 0.50650036), (-0.83430517, 0.2176975, 0.50650036), (-0.8683156, -0.095332585, 0.48676464), (-0.8683156, -0.095332585, 0.48676464), (-0.8683156, -0.095332585, 0.48676464), (-0.8683156, -0.095332585, 0.48676464), (-0.7427135, -0.3574418, 0.56622607), (-0.7427135, -0.3574418, 0.56622607), (-0.7427135, -0.3574418, 0.56622607), (-0.7427135, -0.3574418, 0.56622607), (-0.92994994, -0.048530214, 0.3644693), (-0.92994994, -0.048530214, 0.3644693), (-0.92994994, -0.048530214, 0.3644693), (-0.92994994, -0.048530214, 0.3644693), (-0.83430517, -0.21769755, 0.5065004), (-0.83430517, -0.21769755, 0.5065004), (-0.83430517, -0.21769755, 0.5065004), (-0.83430517, -0.21769755, 0.5065004), (-0.72497565, -0.1361991, 0.6751742), (-0.72497565, -0.1361991, 0.6751742), (-0.72497565, -0.1361991, 0.6751742), (-0.72497565, -0.1361991, 0.6751742), (-0.52620316, -0.1540574, 0.83628744), (-0.52620316, -0.1540574, 0.83628744), (-0.52620316, -0.1540574, 0.83628744), (-0.52620316, -0.1540574, 0.83628744), (-0.60118216, -0.4561289, 0.656145), (-0.60118216, -0.4561289, 0.656145), (-0.60118216, -0.4561289, 0.656145), (-0.60118216, -0.4561289, 0.656145), (-0.45287767, -0.49470153, 0.74173605), (-0.45287767, -0.49470153, 0.74173605), (-0.45287767, -0.49470153, 0.74173605), (-0.45287767, -0.49470153, 0.74173605), (0.056266066, -0.99781036, -0.034763683), (0.056266066, -0.99781036, -0.034763683), (0.056266066, -0.99781036, -0.034763683), (0.056266066, -0.99781036, -0.034763683), (0.0831877, -0.99444485, -0.06449316), (0.0831877, -0.99444485, -0.06449316), (0.0831877, -0.99444485, -0.06449316), (0.0831877, -0.99444485, -0.06449316), (0.115780555, -0.9784344, -0.17105912), (0.115780555, -0.9784344, -0.17105912), (0.115780555, -0.9784344, -0.17105912), (0.115780555, -0.9784344, -0.17105912), (0.25917307, -0.9424458, -0.21124674), (0.25917307, -0.9424458, -0.21124674), (0.25917307, -0.9424458, -0.21124674), (0.25917307, -0.9424458, -0.21124674), (-0.067712456, -0.981845, 0.1771874), (-0.067712456, -0.981845, 0.1771874), (-0.067712456, -0.981845, 0.1771874), (-0.067712456, -0.981845, 0.1771874), (-0.30507362, -0.8395219, 0.44959214), (-0.30507362, -0.8395219, 0.44959214), (-0.30507362, -0.8395219, 0.44959214), (-0.30507362, -0.8395219, 0.44959214), (-0.06940829, -0.9874328, 0.14198194), (-0.06940829, -0.9874328, 0.14198194), (-0.06940829, -0.9874328, 0.14198194), (-0.06940829, -0.9874328, 0.14198194), (-0.25785747, -0.85874087, 0.44280222), (-0.25785747, -0.85874087, 0.44280222), (-0.25785747, -0.85874087, 0.44280222), (-0.25785747, -0.85874087, 0.44280222), (-0.08375953, -0.97222096, 0.21856532), (-0.08375953, -0.97222096, 0.21856532), (-0.08375953, -0.97222096, 0.21856532), (-0.08375953, -0.97222096, 0.21856532), (-0.10376234, -0.9556895, 0.27548334), (-0.10376234, -0.9556895, 0.27548334), (-0.10376234, -0.9556895, 0.27548334), (-0.10376234, -0.9556895, 0.27548334), (-0.38049033, -0.78151685, 0.4944275), (-0.38049033, -0.78151685, 0.4944275), (-0.38049033, -0.78151685, 0.4944275), (-0.38049033, -0.78151685, 0.4944275), (-0.48311183, -0.6530502, 0.58320534), (-0.48311183, -0.6530502, 0.58320534), (-0.48311183, -0.6530502, 0.58320534), (-0.48311183, -0.6530502, 0.58320534), (0.01353325, -0.9995239, -0.027727352), (0.01353325, -0.9995239, -0.027727352), (0.01353325, -0.9995239, -0.027727352), (0.01353325, -0.9995239, -0.027727352), (0.027101988, -0.9841836, -0.17506595), (0.027101988, -0.9841836, -0.17506595), (0.027101988, -0.9841836, -0.17506595), (0.027101988, -0.9841836, -0.17506595), (-0.0055828756, -0.99930114, -0.036960777), (2.594626e-10, -0.9993167, -0.036961354), (0, -0.99931663, -0.03696135), (-0.0055828756, -0.99930114, -0.036960777), (-0.014909475, -0.9800283, -0.19829856), (-0.014909475, -0.9800283, -0.19829856), (-0.014909475, -0.9800283, -0.19829856), (-0.014909475, -0.9800283, -0.19829856), (0.16017912, -0.8975634, -0.41075832), (0.16017912, -0.8975634, -0.41075832), (0.16017912, -0.8975634, -0.41075832), (0.16017912, -0.8975634, -0.41075832), (0.15662278, -0.94848895, -0.27538717), (0.15662278, -0.94848895, -0.27538717), (0.15662278, -0.94848895, -0.27538717), (0.15662278, -0.94848895, -0.27538717), (0.40594327, -0.7004528, -0.5870058), (0.40594327, -0.7004528, -0.5870058), (0.40594327, -0.7004528, -0.5870058), (0.40594327, -0.7004528, -0.5870058), (0.3892023, -0.8231106, -0.4135342), (0.3892023, -0.8231106, -0.4135342), (0.3892023, -0.8231106, -0.4135342), (0.3892023, -0.8231106, -0.4135342), (0.03942322, -0.93713325, -0.34673786), (0.03942322, -0.93713325, -0.34673786), (0.03942322, -0.93713325, -0.34673786), (0.03942322, -0.93713325, -0.34673786), (-0.033923846, -0.9444375, -0.3269357), (-0.033923846, -0.9444375, -0.3269357), (-0.033923846, -0.9444375, -0.3269357), (-0.033923846, -0.9444375, -0.3269357), (0.023848863, -0.970935, -0.23815241), (0.023848863, -0.970935, -0.23815241), (0.023848863, -0.970935, -0.23815241), (0.023848863, -0.970935, -0.23815241), (-0.035552036, -0.96778655, -0.24924926), (-0.035552036, -0.96778655, -0.24924926), (-0.035552036, -0.96778655, -0.24924926), (-0.035552036, -0.96778655, -0.24924926), (0.103114106, -0.8788419, -0.46583736), (0.103114106, -0.8788419, -0.46583736), (0.103114106, -0.8788419, -0.46583736), (0.103114106, -0.8788419, -0.46583736), (0.28645754, -0.6929977, -0.66158605), (0.28645754, -0.6929977, -0.66158605), (0.28645754, -0.6929977, -0.66158605), (0.28645754, -0.6929977, -0.66158605), (0.029410152, -0.8944458, -0.44620824), (0.029410152, -0.8944458, -0.44620824), (0.029410152, -0.8944458, -0.44620824), (0.029410152, -0.8944458, -0.44620824), (0.17934783, -0.7715633, -0.6103477), (0.17934783, -0.7715633, -0.6103477), (0.17934783, -0.7715633, -0.6103477), (0.17934783, -0.7715633, -0.6103477), (0.103114106, 0.8788419, -0.46583736), (0.103114106, 0.8788419, -0.46583736), (0.103114106, 0.8788419, -0.46583736), (0.103114106, 0.8788419, -0.46583736), (0.029410213, 0.89444584, -0.44620815), (0.029410213, 0.89444584, -0.44620815), (0.029410213, 0.89444584, -0.44620815), (0.029410213, 0.89444584, -0.44620815), (0.28645757, 0.6929979, -0.6615859), (0.28645757, 0.6929979, -0.6615859), (0.28645757, 0.6929979, -0.6615859), (0.28645757, 0.6929979, -0.6615859), (0.17934789, 0.7715633, -0.6103477), (0.17934789, 0.7715633, -0.6103477), (0.17934789, 0.7715633, -0.6103477), (0.17934789, 0.7715633, -0.6103477), (0.03942332, 0.937133, -0.34673843), (0.03942332, 0.937133, -0.34673843), (0.03942332, 0.937133, -0.34673843), (0.03942332, 0.937133, -0.34673843), (0.02384896, 0.9709349, -0.23815224), (0.02384896, 0.9709349, -0.23815224), (0.02384896, 0.9709349, -0.23815224), (0.02384896, 0.9709349, -0.23815224), (-0.033923842, 0.94443744, -0.3269361), (-0.033923842, 0.94443744, -0.3269361), (-0.033923842, 0.94443744, -0.3269361), (-0.033923842, 0.94443744, -0.3269361), (-0.035552137, 0.9677866, -0.24924909), (-0.035552137, 0.9677866, -0.24924909), (-0.035552137, 0.9677866, -0.24924909), (-0.035552137, 0.9677866, -0.24924909), (0.1601793, 0.89756334, -0.41075855), (0.1601793, 0.89756334, -0.41075855), (0.1601793, 0.89756334, -0.41075855), (0.1601793, 0.89756334, -0.41075855), (0.40594304, 0.70045304, -0.58700573), (0.40594304, 0.70045304, -0.58700573), (0.40594304, 0.70045304, -0.58700573), (0.40594304, 0.70045304, -0.58700573), (0.15662254, 0.9484889, -0.27538744), (0.15662254, 0.9484889, -0.27538744), (0.15662254, 0.9484889, -0.27538744), (0.15662254, 0.9484889, -0.27538744), (0.38920242, 0.8231104, -0.41353446), (0.38920242, 0.8231104, -0.41353446), (0.38920242, 0.8231104, -0.41353446), (0.38920242, 0.8231104, -0.41353446), (0.55393016, 0.119834594, -0.8238937), (0.55393016, 0.119834594, -0.8238937), (0.55393016, 0.119834594, -0.8238937), (0.55393016, 0.119834594, -0.8238937), (0.47615173, 0.38171372, -0.79219586), (0.47615173, 0.38171372, -0.79219586), (0.47615173, 0.38171372, -0.79219586), (0.47615173, 0.38171372, -0.79219586), (0.49655193, 0.1626713, -0.8526279), (0.49655193, 0.1626713, -0.8526279), (0.49655193, 0.1626713, -0.8526279), (0.49655193, 0.1626713, -0.8526279), (0.38301948, 0.48802072, -0.7843035), (0.38301948, 0.48802072, -0.7843035), (0.38301948, 0.48802072, -0.7843035), (0.38301948, 0.48802072, -0.7843035), (0.6580395, 0.10914039, -0.7450318), (0.6580395, 0.10914039, -0.7450318), (0.6580395, 0.10914039, -0.7450318), (0.6580395, 0.10914039, -0.7450318), (0.7781544, 0.11599707, -0.6172686), (0.7781544, 0.11599707, -0.6172686), (0.7781544, 0.11599707, -0.6172686), (0.7781544, 0.11599707, -0.6172686), (0.6002856, 0.3574508, -0.71546215), (0.6002856, 0.3574508, -0.71546215), (0.6002856, 0.3574508, -0.71546215), (0.6002856, 0.3574508, -0.71546215), (0.70935106, 0.41316012, -0.5710689), (0.70935106, 0.41316012, -0.5710689), (0.70935106, 0.41316012, -0.5710689), (0.70935106, 0.41316012, -0.5710689), (0.6580395, -0.10914045, -0.7450317), (0.6580395, -0.10914045, -0.7450317), (0.6580395, -0.10914045, -0.7450317), (0.6580395, -0.10914045, -0.7450317), (0.6002856, -0.3574507, -0.71546227), (0.6002856, -0.3574507, -0.71546227), (0.6002856, -0.3574507, -0.71546227), (0.6002856, -0.3574507, -0.71546227), (0.7781542, -0.11599753, -0.61726856), (0.7781542, -0.11599753, -0.61726856), (0.7781542, -0.11599753, -0.61726856), (0.7781542, -0.11599753, -0.61726856), (0.70935136, -0.41315967, -0.5710689), (0.70935136, -0.41315967, -0.5710689), (0.70935136, -0.41315967, -0.5710689), (0.70935136, -0.41315967, -0.5710689), (0.55393034, -0.119834505, -0.8238938), (0.55393034, -0.119834505, -0.8238938), (0.55393034, -0.119834505, -0.8238938), (0.55393034, -0.119834505, -0.8238938), (0.4965519, -0.16267131, -0.8526279), (0.4965519, -0.16267131, -0.8526279), (0.4965519, -0.16267131, -0.8526279), (0.4965519, -0.16267131, -0.8526279), (0.47615167, -0.38171366, -0.79219586), (0.47615167, -0.38171366, -0.79219586), (0.47615167, -0.38171366, -0.79219586), (0.47615167, -0.38171366, -0.79219586), (0.38301954, -0.4880206, -0.78430337), (0.38301954, -0.4880206, -0.78430337), (0.38301954, -0.4880206, -0.78430337), (0.38301954, -0.4880206, -0.78430337), (0.25025848, -0.96817905, 0.00015708983), (0.25025848, -0.96817905, 0.00015708983), (0.25025848, -0.96817905, 0.00015708983), (0.25025848, -0.96817905, 0.00015708983), (0.60576713, -0.78226995, -0.14525825), (0.60576713, -0.78226995, -0.14525825), (0.60576713, -0.78226995, -0.14525825), (0.60576713, -0.78226995, -0.14525825), (0.112754725, -0.9887393, -0.09839195), (0.112754725, -0.9887393, -0.09839195), (0.112754725, -0.9887393, -0.09839195), (0.112754725, -0.9887393, -0.09839195), (0.4269443, -0.873913, -0.23236728), (0.4269443, -0.873913, -0.23236728), (0.4269443, -0.873913, -0.23236728), (0.4269443, -0.873913, -0.23236728), (0.3538194, -0.89948565, 0.2563932), (0.3538194, -0.89948565, 0.2563932), (0.3538194, -0.89948565, 0.2563932), (0.3538194, -0.89948565, 0.2563932), (0.31937674, -0.7113853, 0.6260426), (0.31937674, -0.7113853, 0.6260426), (0.31937674, -0.7113853, 0.6260426), (0.31937674, -0.7113853, 0.6260426), (0.7043133, -0.68383217, 0.19056818), (0.7043133, -0.68383217, 0.19056818), (0.7043133, -0.68383217, 0.19056818), (0.7043133, -0.68383217, 0.19056818), (0.63810265, -0.56033415, 0.52806336), (0.63810265, -0.56033415, 0.52806336), (0.63810265, -0.56033415, 0.52806336), (0.63810265, -0.56033415, 0.52806336), (0.053984426, -0.9781897, 0.20057556), (0.053984426, -0.9781897, 0.20057556), (0.053984426, -0.9781897, 0.20057556), (0.053984426, -0.9781897, 0.20057556), (-0.0906614, -0.9881077, 0.12419197), (-0.0906614, -0.9881077, 0.12419197), (-0.0906614, -0.9881077, 0.12419197), (-0.0906614, -0.9881077, 0.12419197), (-0.08429775, -0.8117893, 0.57783395), (-0.08429775, -0.8117893, 0.57783395), (-0.08429775, -0.8117893, 0.57783395), (-0.08429775, -0.8117893, 0.57783395), (-0.23456013, -0.8488393, 0.4737652), (-0.23456013, -0.8488393, 0.4737652), (-0.23456013, -0.8488393, 0.4737652), (-0.23456013, -0.8488393, 0.4737652), (0.13413413, 0.13136849, 0.9822171), (0.13413413, 0.13136849, 0.9822171), (0.13413413, 0.13136849, 0.9822171), (0.13413413, 0.13136849, 0.9822171), (0.20701326, 0.40747002, 0.8894457), (0.20701326, 0.40747002, 0.8894457), (0.20701326, 0.40747002, 0.8894457), (0.20701326, 0.40747002, 0.8894457), (0.5312758, 0.15937003, 0.83207405), (0.5312758, 0.15937003, 0.83207405), (0.5312758, 0.15937003, 0.83207405), (0.5312758, 0.15937003, 0.83207405), (0.5593308, 0.4083369, 0.7213945), (0.5593308, 0.4083369, 0.7213945), (0.5593308, 0.4083369, 0.7213945), (0.5593308, 0.4083369, 0.7213945), (-0.15555862, 0.13012932, 0.97921807), (-0.15555862, 0.13012932, 0.97921807), (-0.15555862, 0.13012932, 0.97921807), (-0.15555862, 0.13012932, 0.97921807), (-0.34017888, 0.14676057, 0.92883784), (-0.34017888, 0.14676057, 0.92883784), (-0.34017888, 0.14676057, 0.92883784), (-0.34017888, 0.14676057, 0.92883784), (-0.14784211, 0.43254218, 0.88940984), (-0.14784211, 0.43254218, 0.88940984), (-0.14784211, 0.43254218, 0.88940984), (-0.14784211, 0.43254218, 0.88940984), (-0.32773295, 0.4776849, 0.8151124), (-0.32773295, 0.4776849, 0.8151124), (-0.32773295, 0.4776849, 0.8151124), (-0.32773295, 0.4776849, 0.8151124), (-0.15555905, -0.13012952, 0.97921795), (-0.15555905, -0.13012952, 0.97921795), (-0.15555905, -0.13012952, 0.97921795), (-0.15555905, -0.13012952, 0.97921795), (-0.14784205, -0.43254244, 0.8894098), (-0.14784205, -0.43254244, 0.8894098), (-0.14784205, -0.43254244, 0.8894098), (-0.14784205, -0.43254244, 0.8894098), (-0.34017897, -0.14676091, 0.9288378), (-0.34017897, -0.14676091, 0.9288378), (-0.34017897, -0.14676091, 0.9288378), (-0.34017897, -0.14676091, 0.9288378), (-0.32773355, -0.47768456, 0.8151124), (-0.32773355, -0.47768456, 0.8151124), (-0.32773355, -0.47768456, 0.8151124), (-0.32773355, -0.47768456, 0.8151124), (0.134134, -0.13136868, 0.9822171), (0.134134, -0.13136868, 0.9822171), (0.134134, -0.13136868, 0.9822171), (0.134134, -0.13136868, 0.9822171), (0.5312757, -0.15937026, 0.8320741), (0.5312757, -0.15937026, 0.8320741), (0.5312757, -0.15937026, 0.8320741), (0.5312757, -0.15937026, 0.8320741), (0.20701356, -0.40746978, 0.88944584), (0.20701356, -0.40746978, 0.88944584), (0.20701356, -0.40746978, 0.88944584), (0.20701356, -0.40746978, 0.88944584), (0.5593306, -0.4083368, 0.72139466), (0.5593306, -0.4083368, 0.72139466), (0.5593306, -0.4083368, 0.72139466), (0.5593306, -0.4083368, 0.72139466), (0.01353325, 0.99952394, -0.027727049), (0.01353325, 0.99952394, -0.027727049), (0.01353325, 0.99952394, -0.027727049), (0.01353325, 0.99952394, -0.027727049), (-0.005582876, 0.99930114, -0.036960777), (-0.005582876, 0.99930114, -0.036960777), (0, 0.99931663, -0.03696135), (-2.594626e-10, 0.9993167, -0.036961354), (0.027101977, 0.98418355, -0.17506604), (0.027101977, 0.98418355, -0.17506604), (0.027101977, 0.98418355, -0.17506604), (0.027101977, 0.98418355, -0.17506604), (-0.014909475, 0.9800283, -0.19829856), (-0.014909475, 0.9800283, -0.19829856), (-0.014909475, 0.9800283, -0.19829856), (-0.014909475, 0.9800283, -0.19829856), (-0.08375932, 0.97222084, 0.21856551), (-0.08375932, 0.97222084, 0.21856551), (-0.08375932, 0.97222084, 0.21856551), (-0.08375932, 0.97222084, 0.21856551), (-0.38049024, 0.7815169, 0.49442735), (-0.38049024, 0.7815169, 0.49442735), (-0.38049024, 0.7815169, 0.49442735), (-0.38049024, 0.7815169, 0.49442735), (-0.10376245, 0.9556895, 0.27548316), (-0.10376245, 0.9556895, 0.27548316), (-0.10376245, 0.9556895, 0.27548316), (-0.10376245, 0.9556895, 0.27548316), (-0.48311207, 0.6530502, 0.5832052), (-0.48311207, 0.6530502, 0.5832052), (-0.48311207, 0.6530502, 0.5832052), (-0.48311207, 0.6530502, 0.5832052), (-0.06771256, 0.98184496, 0.17718735), (-0.06771256, 0.98184496, 0.17718735), (-0.06771256, 0.98184496, 0.17718735), (-0.06771256, 0.98184496, 0.17718735), (-0.06940837, 0.9874328, 0.14198217), (-0.06940837, 0.9874328, 0.14198217), (-0.06940837, 0.9874328, 0.14198217), (-0.06940837, 0.9874328, 0.14198217), (-0.30507323, 0.839522, 0.44959202), (-0.30507323, 0.839522, 0.44959202), (-0.30507323, 0.839522, 0.44959202), (-0.30507323, 0.839522, 0.44959202), (-0.25785753, 0.85874104, 0.44280177), (-0.25785753, 0.85874104, 0.44280177), (-0.25785753, 0.85874104, 0.44280177), (-0.25785753, 0.85874104, 0.44280177), (0.05626585, 0.9978104, -0.0347641), (0.05626585, 0.9978104, -0.0347641), (0.05626585, 0.9978104, -0.0347641), (0.05626585, 0.9978104, -0.0347641), (0.11578021, 0.9784344, -0.17105895), (0.11578021, 0.9784344, -0.17105895), (0.11578021, 0.9784344, -0.17105895), (0.11578021, 0.9784344, -0.17105895), (0.083187915, 0.9944447, -0.06449296), (0.083187915, 0.9944447, -0.06449296), (0.083187915, 0.9944447, -0.06449296), (0.083187915, 0.9944447, -0.06449296), (0.2591734, 0.94244576, -0.21124674), (0.2591734, 0.94244576, -0.21124674), (0.2591734, 0.94244576, -0.21124674), (0.2591734, 0.94244576, -0.21124674), (-0.2502582, 0.96817917, 0.00015680588), (-0.2502582, 0.96817917, 0.00015680588), (-0.2502582, 0.96817917, 0.00015680588), (-0.2502582, 0.96817917, 0.00015680588), (-0.11275454, 0.98873925, -0.09839191), (-0.11275454, 0.98873925, -0.09839191), (-0.11275454, 0.98873925, -0.09839191), (-0.11275454, 0.98873925, -0.09839191), (-0.60576695, 0.78226995, -0.14525846), (-0.60576695, 0.78226995, -0.14525846), (-0.60576695, 0.78226995, -0.14525846), (-0.60576695, 0.78226995, -0.14525846), (-0.42694423, 0.87391317, -0.2323672), (-0.42694423, 0.87391317, -0.2323672), (-0.42694423, 0.87391317, -0.2323672), (-0.42694423, 0.87391317, -0.2323672), (-0.053984273, 0.9781898, 0.20057526), (-0.053984273, 0.9781898, 0.20057526), (-0.053984273, 0.9781898, 0.20057526), (-0.053984273, 0.9781898, 0.20057526), (0.08429771, 0.81178933, 0.5778339), (0.08429771, 0.81178933, 0.5778339), (0.08429771, 0.81178933, 0.5778339), (0.08429771, 0.81178933, 0.5778339), (0.09066122, 0.9881077, 0.1241922), (0.09066122, 0.9881077, 0.1241922), (0.09066122, 0.9881077, 0.1241922), (0.09066122, 0.9881077, 0.1241922), (0.23455983, 0.8488395, 0.4737649), (0.23455983, 0.8488395, 0.4737649), (0.23455983, 0.8488395, 0.4737649), (0.23455983, 0.8488395, 0.4737649), (-0.3538192, 0.89948565, 0.25639322), (-0.3538192, 0.89948565, 0.25639322), (-0.3538192, 0.89948565, 0.25639322), (-0.3538192, 0.89948565, 0.25639322), (-0.70431334, 0.683832, 0.19056888), (-0.70431334, 0.683832, 0.19056888), (-0.70431334, 0.683832, 0.19056888), (-0.70431334, 0.683832, 0.19056888), (-0.319377, 0.71138495, 0.62604296), (-0.319377, 0.71138495, 0.62604296), (-0.319377, 0.71138495, 0.62604296), (-0.319377, 0.71138495, 0.62604296), (-0.6381023, 0.5603348, 0.52806276), (-0.6381023, 0.5603348, 0.52806276), (-0.6381023, 0.5603348, 0.52806276), (-0.6381023, 0.5603348, 0.52806276), (-0.9640773, 0.11364684, -0.24008174), (-0.9640773, 0.11364684, -0.24008174), (-0.9640773, 0.11364684, -0.24008174), (-0.9640773, 0.11364684, -0.24008174), (-0.889984, 0.3987173, -0.2212531), (-0.889984, 0.3987173, -0.2212531), (-0.889984, 0.3987173, -0.2212531), (-0.889984, 0.3987173, -0.2212531), (-0.8939464, 0.118756056, -0.43215385), (-0.8939464, 0.118756056, -0.43215385), (-0.8939464, 0.118756056, -0.43215385), (-0.8939464, 0.118756056, -0.43215385), (-0.80782753, 0.4347035, -0.39805475), (-0.80782753, 0.4347035, -0.39805475), (-0.80782753, 0.4347035, -0.39805475), (-0.80782753, 0.4347035, -0.39805475), (-0.99254674, 0.11819788, 0.029668462), (-0.99254674, 0.11819788, 0.029668462), (-0.99254674, 0.11819788, 0.029668462), (-0.99254674, 0.11819788, 0.029668462), (-0.89826363, 0.15042807, 0.4129088), (-0.89826363, 0.15042807, 0.4129088), (-0.89826363, 0.15042807, 0.4129088), (-0.89826363, 0.15042807, 0.4129088), (-0.9226471, 0.37612417, 0.08516396), (-0.9226471, 0.37612417, 0.08516396), (-0.9226471, 0.37612417, 0.08516396), (-0.9226471, 0.37612417, 0.08516396), (-0.8067284, 0.3931552, 0.44115555), (-0.8067284, 0.3931552, 0.44115555), (-0.8067284, 0.3931552, 0.44115555), (-0.8067284, 0.3931552, 0.44115555), (-0.99254674, -0.118197575, 0.029668454), (-0.99254674, -0.118197575, 0.029668454), (-0.99254674, -0.118197575, 0.029668454), (-0.99254674, -0.118197575, 0.029668454), (-0.92264724, -0.37612402, 0.08516379), (-0.92264724, -0.37612402, 0.08516379), (-0.92264724, -0.37612402, 0.08516379), (-0.92264724, -0.37612402, 0.08516379), (-0.89826345, -0.1504284, 0.41290912), (-0.89826345, -0.1504284, 0.41290912), (-0.89826345, -0.1504284, 0.41290912), (-0.89826345, -0.1504284, 0.41290912), (-0.8067283, -0.39315513, 0.44115582), (-0.8067283, -0.39315513, 0.44115582), (-0.8067283, -0.39315513, 0.44115582), (-0.8067283, -0.39315513, 0.44115582), (-0.9640773, -0.11364741, -0.24008176), (-0.9640773, -0.11364741, -0.24008176), (-0.9640773, -0.11364741, -0.24008176), (-0.9640773, -0.11364741, -0.24008176), (-0.89394635, -0.11875648, -0.43215376), (-0.89394635, -0.11875648, -0.43215376), (-0.89394635, -0.11875648, -0.43215376), (-0.89394635, -0.11875648, -0.43215376), (-0.88998413, -0.39871702, -0.22125308), (-0.88998413, -0.39871702, -0.22125308), (-0.88998413, -0.39871702, -0.22125308), (-0.88998413, -0.39871702, -0.22125308), (-0.80782753, -0.43470332, -0.3980549), (-0.80782753, -0.43470332, -0.3980549), (-0.80782753, -0.43470332, -0.3980549), (-0.80782753, -0.43470332, -0.3980549), (0.7249757, 0.13619907, 0.6751742), (0.7249757, 0.13619907, 0.6751742), (0.7249757, 0.13619907, 0.6751742), (0.7249757, 0.13619907, 0.6751742), (0.6011821, 0.45612887, 0.6561452), (0.6011821, 0.45612887, 0.6561452), (0.6011821, 0.45612887, 0.6561452), (0.6011821, 0.45612887, 0.6561452), (0.52620375, 0.1540571, 0.83628696), (0.52620375, 0.1540571, 0.83628696), (0.52620375, 0.1540571, 0.83628696), (0.52620375, 0.1540571, 0.83628696), (0.45287785, 0.49470145, 0.7417358), (0.45287785, 0.49470145, 0.7417358), (0.45287785, 0.49470145, 0.7417358), (0.45287785, 0.49470145, 0.7417358), (0.8683156, 0.095332585, 0.48676464), (0.8683156, 0.095332585, 0.48676464), (0.8683156, 0.095332585, 0.48676464), (0.8683156, 0.095332585, 0.48676464), (0.92994994, 0.048530214, 0.3644693), (0.92994994, 0.048530214, 0.3644693), (0.92994994, 0.048530214, 0.3644693), (0.92994994, 0.048530214, 0.3644693), (0.7427137, 0.35744175, 0.566226), (0.7427137, 0.35744175, 0.566226), (0.7427137, 0.35744175, 0.566226), (0.7427137, 0.35744175, 0.566226), (0.83430517, 0.2176975, 0.50650036), (0.83430517, 0.2176975, 0.50650036), (0.83430517, 0.2176975, 0.50650036), (0.83430517, 0.2176975, 0.50650036), (0.8683156, -0.095332585, 0.48676464), (0.8683156, -0.095332585, 0.48676464), (0.8683156, -0.095332585, 0.48676464), (0.8683156, -0.095332585, 0.48676464), (0.7427135, -0.35744187, 0.5662261), (0.7427135, -0.35744187, 0.5662261), (0.7427135, -0.35744187, 0.5662261), (0.7427135, -0.35744187, 0.5662261), (0.92994994, -0.048530214, 0.3644693), (0.92994994, -0.048530214, 0.3644693), (0.92994994, -0.048530214, 0.3644693), (0.92994994, -0.048530214, 0.3644693), (0.83430517, -0.2176975, 0.5065003), (0.83430517, -0.2176975, 0.5065003), (0.83430517, -0.2176975, 0.5065003), (0.83430517, -0.2176975, 0.5065003), (0.7249757, -0.13619904, 0.6751741), (0.7249757, -0.13619904, 0.6751741), (0.7249757, -0.13619904, 0.6751741), (0.7249757, -0.13619904, 0.6751741), (0.5262031, -0.1540574, 0.83628744), (0.5262031, -0.1540574, 0.83628744), (0.5262031, -0.1540574, 0.83628744), (0.5262031, -0.1540574, 0.83628744), (0.6011822, -0.4561289, 0.6561449), (0.6011822, -0.4561289, 0.6561449), (0.6011822, -0.4561289, 0.6561449), (0.6011822, -0.4561289, 0.6561449), (0.45287752, -0.49470147, 0.74173605), (0.45287752, -0.49470147, 0.74173605), (0.45287752, -0.49470147, 0.74173605), (0.45287752, -0.49470147, 0.74173605), (-0.056266066, -0.99781036, -0.034763683), (-0.056266066, -0.99781036, -0.034763683), (-0.056266066, -0.99781036, -0.034763683), (-0.056266066, -0.99781036, -0.034763683), (-0.0831877, -0.99444485, -0.06449297), (-0.0831877, -0.99444485, -0.06449297), (-0.0831877, -0.99444485, -0.06449297), (-0.0831877, -0.99444485, -0.06449297), (-0.11578055, -0.97843426, -0.17105916), (-0.11578055, -0.97843426, -0.17105916), (-0.11578055, -0.97843426, -0.17105916), (-0.11578055, -0.97843426, -0.17105916), (-0.2591731, -0.94244576, -0.21124676), (-0.2591731, -0.94244576, -0.21124676), (-0.2591731, -0.94244576, -0.21124676), (-0.2591731, -0.94244576, -0.21124676), (0.06771245, -0.9818451, 0.17718728), (0.06771245, -0.9818451, 0.17718728), (0.06771245, -0.9818451, 0.17718728), (0.06771245, -0.9818451, 0.17718728), (0.30507356, -0.8395219, 0.44959214), (0.30507356, -0.8395219, 0.44959214), (0.30507356, -0.8395219, 0.44959214), (0.30507356, -0.8395219, 0.44959214), (0.069408275, -0.98743284, 0.14198191), (0.069408275, -0.98743284, 0.14198191), (0.069408275, -0.98743284, 0.14198191), (0.069408275, -0.98743284, 0.14198191), (0.25785747, -0.8587408, 0.44280216), (0.25785747, -0.8587408, 0.44280216), (0.25785747, -0.8587408, 0.44280216), (0.25785747, -0.8587408, 0.44280216), (0.08375953, -0.97222096, 0.21856537), (0.08375953, -0.97222096, 0.21856537), (0.08375953, -0.97222096, 0.21856537), (0.08375953, -0.97222096, 0.21856537), (0.10376233, -0.9556895, 0.27548334), (0.10376233, -0.9556895, 0.27548334), (0.10376233, -0.9556895, 0.27548334), (0.10376233, -0.9556895, 0.27548334), (0.38049027, -0.7815168, 0.49442756), (0.38049027, -0.7815168, 0.49442756), (0.38049027, -0.7815168, 0.49442756), (0.38049027, -0.7815168, 0.49442756), (0.48311177, -0.6530502, 0.58320534), (0.48311177, -0.6530502, 0.58320534), (0.48311177, -0.6530502, 0.58320534), (0.48311177, -0.6530502, 0.58320534), (-0.013533254, -0.99952394, -0.027727295), (-0.013533254, -0.99952394, -0.027727295), (-0.013533254, -0.99952394, -0.027727295), (-0.013533254, -0.99952394, -0.027727295), (-0.027101984, -0.9841836, -0.17506588), (-0.027101984, -0.9841836, -0.17506588), (-0.027101984, -0.9841836, -0.17506588), (-0.027101984, -0.9841836, -0.17506588), (0.005582876, -0.99930114, -0.036960777), (0.005582876, -0.99930114, -0.036960777), (0, -0.99931663, -0.03696135), (2.594626e-10, -0.9993167, -0.036961354), (0.014909475, -0.9800283, -0.19829856), (0.014909475, -0.9800283, -0.19829856), (0.014909475, -0.9800283, -0.19829856), (0.014909475, -0.9800283, -0.19829856), (-0.16017908, -0.8975635, -0.41075832), (-0.16017908, -0.8975635, -0.41075832), (-0.16017908, -0.8975635, -0.41075832), (-0.16017908, -0.8975635, -0.41075832), (-0.15662278, -0.94848895, -0.2753873), (-0.15662278, -0.94848895, -0.2753873), (-0.15662278, -0.94848895, -0.2753873), (-0.15662278, -0.94848895, -0.2753873), (-0.4059433, -0.7004528, -0.58700573), (-0.4059433, -0.7004528, -0.58700573), (-0.4059433, -0.7004528, -0.58700573), (-0.4059433, -0.7004528, -0.58700573), (-0.38920236, -0.8231106, -0.4135342), (-0.38920236, -0.8231106, -0.4135342), (-0.38920236, -0.8231106, -0.4135342), (-0.38920236, -0.8231106, -0.4135342), (-0.039423253, -0.93713325, -0.34673795), (-0.039423253, -0.93713325, -0.34673795), (-0.039423253, -0.93713325, -0.34673795), (-0.039423253, -0.93713325, -0.34673795), (0.033923857, -0.9444375, -0.3269357), (0.033923857, -0.9444375, -0.3269357), (0.033923857, -0.9444375, -0.3269357), (0.033923857, -0.9444375, -0.3269357), (-0.02384886, -0.970935, -0.23815252), (-0.02384886, -0.970935, -0.23815252), (-0.02384886, -0.970935, -0.23815252), (-0.02384886, -0.970935, -0.23815252), (0.035552036, -0.96778655, -0.24924926), (0.035552036, -0.96778655, -0.24924926), (0.035552036, -0.96778655, -0.24924926), (0.035552036, -0.96778655, -0.24924926), (-0.103114106, -0.8788419, -0.46583736), (-0.103114106, -0.8788419, -0.46583736), (-0.103114106, -0.8788419, -0.46583736), (-0.103114106, -0.8788419, -0.46583736), (-0.28645754, -0.69299775, -0.66158605), (-0.28645754, -0.69299775, -0.66158605), (-0.28645754, -0.69299775, -0.66158605), (-0.28645754, -0.69299775, -0.66158605), (-0.0294101, -0.8944458, -0.44620824), (-0.0294101, -0.8944458, -0.44620824), (-0.0294101, -0.8944458, -0.44620824), (-0.0294101, -0.8944458, -0.44620824), (-0.17934789, -0.7715633, -0.6103477), (-0.17934789, -0.7715633, -0.6103477), (-0.17934789, -0.7715633, -0.6103477), (-0.17934789, -0.7715633, -0.6103477), (-0.103114195, 0.8788419, -0.46583736), (-0.103114195, 0.8788419, -0.46583736), (-0.103114195, 0.8788419, -0.46583736), (-0.103114195, 0.8788419, -0.46583736), (-0.029410213, 0.89444584, -0.44620815), (-0.029410213, 0.89444584, -0.44620815), (-0.029410213, 0.89444584, -0.44620815), (-0.029410213, 0.89444584, -0.44620815), (-0.28645763, 0.69299793, -0.6615859), (-0.28645763, 0.69299793, -0.6615859), (-0.28645763, 0.69299793, -0.6615859), (-0.28645763, 0.69299793, -0.6615859), (-0.17934783, 0.7715633, -0.6103477), (-0.17934783, 0.7715633, -0.6103477), (-0.17934783, 0.7715633, -0.6103477), (-0.17934783, 0.7715633, -0.6103477), (-0.039423283, 0.937133, -0.34673843), (-0.039423283, 0.937133, -0.34673843), (-0.039423283, 0.937133, -0.34673843), (-0.039423283, 0.937133, -0.34673843), (-0.023848964, 0.9709349, -0.23815213), (-0.023848964, 0.9709349, -0.23815213), (-0.023848964, 0.9709349, -0.23815213), (-0.023848964, 0.9709349, -0.23815213), (0.033923842, 0.94443744, -0.3269361), (0.033923842, 0.94443744, -0.3269361), (0.033923842, 0.94443744, -0.3269361), (0.033923842, 0.94443744, -0.3269361), (0.035552137, 0.9677866, -0.24924909), (0.035552137, 0.9677866, -0.24924909), (0.035552137, 0.9677866, -0.24924909), (0.035552137, 0.9677866, -0.24924909), (-0.1601793, 0.89756334, -0.41075855), (-0.1601793, 0.89756334, -0.41075855), (-0.1601793, 0.89756334, -0.41075855), (-0.1601793, 0.89756334, -0.41075855), (-0.4059431, 0.7004531, -0.5870057), (-0.4059431, 0.7004531, -0.5870057), (-0.4059431, 0.7004531, -0.5870057), (-0.4059431, 0.7004531, -0.5870057), (-0.15662254, 0.9484889, -0.27538744), (-0.15662254, 0.9484889, -0.27538744), (-0.15662254, 0.9484889, -0.27538744), (-0.15662254, 0.9484889, -0.27538744), (-0.38920236, 0.82311046, -0.41353446), (-0.38920236, 0.82311046, -0.41353446), (-0.38920236, 0.82311046, -0.41353446), (-0.38920236, 0.82311046, -0.41353446), (-0.55393016, 0.11983467, -0.82389385), (-0.55393016, 0.11983467, -0.82389385), (-0.55393016, 0.11983467, -0.82389385), (-0.55393016, 0.11983467, -0.82389385), (-0.47615173, 0.38171372, -0.7921958), (-0.47615173, 0.38171372, -0.7921958), (-0.47615173, 0.38171372, -0.7921958), (-0.47615173, 0.38171372, -0.7921958), (-0.49655202, 0.1626713, -0.8526279), (-0.49655202, 0.1626713, -0.8526279), (-0.49655202, 0.1626713, -0.8526279), (-0.49655202, 0.1626713, -0.8526279), (-0.38301942, 0.48802072, -0.7843035), (-0.38301942, 0.48802072, -0.7843035), (-0.38301942, 0.48802072, -0.7843035), (-0.38301942, 0.48802072, -0.7843035), (-0.6580395, 0.10914032, -0.7450318), (-0.6580395, 0.10914032, -0.7450318), (-0.6580395, 0.10914032, -0.7450318), (-0.6580395, 0.10914032, -0.7450318), (-0.77815443, 0.11599707, -0.61726856), (-0.77815443, 0.11599707, -0.61726856), (-0.77815443, 0.11599707, -0.61726856), (-0.77815443, 0.11599707, -0.61726856), (-0.6002856, 0.35745078, -0.71546215), (-0.6002856, 0.35745078, -0.71546215), (-0.6002856, 0.35745078, -0.71546215), (-0.6002856, 0.35745078, -0.71546215), (-0.7093512, 0.41316012, -0.57106894), (-0.7093512, 0.41316012, -0.57106894), (-0.7093512, 0.41316012, -0.57106894), (-0.7093512, 0.41316012, -0.57106894), (-0.65803957, -0.109140515, -0.7450317), (-0.65803957, -0.109140515, -0.7450317), (-0.65803957, -0.109140515, -0.7450317), (-0.65803957, -0.109140515, -0.7450317), (-0.60028553, -0.35745072, -0.71546227), (-0.60028553, -0.35745072, -0.71546227), (-0.60028553, -0.35745072, -0.71546227), (-0.60028553, -0.35745072, -0.71546227), (-0.7781542, -0.11599744, -0.61726856), (-0.7781542, -0.11599744, -0.61726856), (-0.7781542, -0.11599744, -0.61726856), (-0.7781542, -0.11599744, -0.61726856), (-0.70935136, -0.4131598, -0.5710689), (-0.70935136, -0.4131598, -0.5710689), (-0.70935136, -0.4131598, -0.5710689), (-0.70935136, -0.4131598, -0.5710689), (-0.5539304, -0.11983444, -0.8238937), (-0.5539304, -0.11983444, -0.8238937), (-0.5539304, -0.11983444, -0.8238937), (-0.5539304, -0.11983444, -0.8238937), (-0.49655196, -0.16267131, -0.8526279), (-0.49655196, -0.16267131, -0.8526279), (-0.49655196, -0.16267131, -0.8526279), (-0.49655196, -0.16267131, -0.8526279), (-0.47615173, -0.3817136, -0.7921958), (-0.47615173, -0.3817136, -0.7921958), (-0.47615173, -0.3817136, -0.7921958), (-0.47615173, -0.3817136, -0.7921958), (-0.3830196, -0.4880206, -0.78430337), (-0.3830196, -0.4880206, -0.78430337), (-0.3830196, -0.4880206, -0.78430337), (-0.3830196, -0.4880206, -0.78430337), (-0.25025854, -0.96817905, 0.00015708989), (-0.25025854, -0.96817905, 0.00015708989), (-0.25025854, -0.96817905, 0.00015708989), (-0.25025854, -0.96817905, 0.00015708989), (-0.60576695, -0.78227, -0.14525819), (-0.60576695, -0.78227, -0.14525819), (-0.60576695, -0.78227, -0.14525819), (-0.60576695, -0.78227, -0.14525819), (-0.11275471, -0.9887393, -0.098391935), (-0.11275471, -0.9887393, -0.098391935), (-0.11275471, -0.9887393, -0.098391935), (-0.11275471, -0.9887393, -0.098391935), (-0.42694426, -0.873913, -0.23236735), (-0.42694426, -0.873913, -0.23236735), (-0.42694426, -0.873913, -0.23236735), (-0.42694426, -0.873913, -0.23236735), (-0.35381943, -0.8994855, 0.25639334), (-0.35381943, -0.8994855, 0.25639334), (-0.35381943, -0.8994855, 0.25639334), (-0.35381943, -0.8994855, 0.25639334), (-0.3193769, -0.71138525, 0.6260428), (-0.3193769, -0.71138525, 0.6260428), (-0.3193769, -0.71138525, 0.6260428), (-0.3193769, -0.71138525, 0.6260428), (-0.70431334, -0.6838321, 0.19056815), (-0.70431334, -0.6838321, 0.19056815), (-0.70431334, -0.6838321, 0.19056815), (-0.70431334, -0.6838321, 0.19056815), (-0.63810265, -0.56033397, 0.5280634), (-0.63810265, -0.56033397, 0.5280634), (-0.63810265, -0.56033397, 0.5280634), (-0.63810265, -0.56033397, 0.5280634), (-0.053984385, -0.9781897, 0.20057541), (-0.053984385, -0.9781897, 0.20057541), (-0.053984385, -0.9781897, 0.20057541), (-0.053984385, -0.9781897, 0.20057541), (0.09066139, -0.9881077, 0.124192044), (0.09066139, -0.9881077, 0.124192044), (0.09066139, -0.9881077, 0.124192044), (0.09066139, -0.9881077, 0.124192044), (0.08429775, -0.81178933, 0.57783407), (0.08429775, -0.81178933, 0.57783407), (0.08429775, -0.81178933, 0.57783407), (0.08429775, -0.81178933, 0.57783407), (0.23456007, -0.8488393, 0.4737651), (0.23456007, -0.8488393, 0.4737651), (0.23456007, -0.8488393, 0.4737651), (0.23456007, -0.8488393, 0.4737651), (-0.134134, 0.13136849, 0.9822171), (-0.134134, 0.13136849, 0.9822171), (-0.134134, 0.13136849, 0.9822171), (-0.134134, 0.13136849, 0.9822171), (-0.20701347, 0.40747005, 0.88944566), (-0.20701347, 0.40747005, 0.88944566), (-0.20701347, 0.40747005, 0.88944566), (-0.20701347, 0.40747005, 0.88944566), (-0.53127575, 0.15937005, 0.8320741), (-0.53127575, 0.15937005, 0.8320741), (-0.53127575, 0.15937005, 0.8320741), (-0.53127575, 0.15937005, 0.8320741), (-0.5593307, 0.40833694, 0.72139454), (-0.5593307, 0.40833694, 0.72139454), (-0.5593307, 0.40833694, 0.72139454), (-0.5593307, 0.40833694, 0.72139454), (0.15555874, 0.13012931, 0.97921795), (0.15555874, 0.13012931, 0.97921795), (0.15555874, 0.13012931, 0.97921795), (0.15555874, 0.13012931, 0.97921795), (0.34017876, 0.14676057, 0.92883784), (0.34017876, 0.14676057, 0.92883784), (0.34017876, 0.14676057, 0.92883784), (0.34017876, 0.14676057, 0.92883784), (0.14784211, 0.43254223, 0.88940984), (0.14784211, 0.43254223, 0.88940984), (0.14784211, 0.43254223, 0.88940984), (0.14784211, 0.43254223, 0.88940984), (0.32773295, 0.4776849, 0.8151124), (0.32773295, 0.4776849, 0.8151124), (0.32773295, 0.4776849, 0.8151124), (0.32773295, 0.4776849, 0.8151124), (0.15555891, -0.13012952, 0.97921795), (0.15555891, -0.13012952, 0.97921795), (0.15555891, -0.13012952, 0.97921795), (0.15555891, -0.13012952, 0.97921795), (0.14784205, -0.43254238, 0.8894098), (0.14784205, -0.43254238, 0.8894098), (0.14784205, -0.43254238, 0.8894098), (0.14784205, -0.43254238, 0.8894098), (0.3401789, -0.14676091, 0.9288378), (0.3401789, -0.14676091, 0.9288378), (0.3401789, -0.14676091, 0.9288378), (0.3401789, -0.14676091, 0.9288378), (0.32773367, -0.4776845, 0.81511235), (0.32773367, -0.4776845, 0.81511235), (0.32773367, -0.4776845, 0.81511235), (0.32773367, -0.4776845, 0.81511235), (-0.13413417, -0.13136868, 0.9822171), (-0.13413417, -0.13136868, 0.9822171), (-0.13413417, -0.13136868, 0.9822171), (-0.13413417, -0.13136868, 0.9822171), (-0.53127575, -0.15937024, 0.832074), (-0.53127575, -0.15937024, 0.832074), (-0.53127575, -0.15937024, 0.832074), (-0.53127575, -0.15937024, 0.832074), (-0.20701367, -0.40746972, 0.88944584), (-0.20701367, -0.40746972, 0.88944584), (-0.20701367, -0.40746972, 0.88944584), (-0.20701367, -0.40746972, 0.88944584), (-0.5593306, -0.4083368, 0.72139466), (-0.5593306, -0.4083368, 0.72139466), (-0.5593306, -0.4083368, 0.72139466), (-0.5593306, -0.4083368, 0.72139466), (-0.013533248, 0.9995239, -0.027727105), (-0.013533248, 0.9995239, -0.027727105), (-0.013533248, 0.9995239, -0.027727105), (-0.013533248, 0.9995239, -0.027727105), (0.0055828756, 0.99930114, -0.036960777), (-2.594626e-10, 0.9993167, -0.036961354), (0, 0.99931663, -0.03696135), (0.0055828756, 0.99930114, -0.036960777), (-0.02710198, 0.98418355, -0.17506611), (-0.02710198, 0.98418355, -0.17506611), (-0.02710198, 0.98418355, -0.17506611), (-0.02710198, 0.98418355, -0.17506611), (0.014909475, 0.9800283, -0.19829856), (0.014909475, 0.9800283, -0.19829856), (0.014909475, 0.9800283, -0.19829856), (0.014909475, 0.9800283, -0.19829856), (0.08375933, 0.97222084, 0.21856554), (0.08375933, 0.97222084, 0.21856554), (0.08375933, 0.97222084, 0.21856554), (0.08375933, 0.97222084, 0.21856554), (0.3804903, 0.78151697, 0.4944273), (0.3804903, 0.78151697, 0.4944273), (0.3804903, 0.78151697, 0.4944273), (0.3804903, 0.78151697, 0.4944273), (0.10376245, 0.9556895, 0.27548316), (0.10376245, 0.9556895, 0.27548316), (0.10376245, 0.9556895, 0.27548316), (0.10376245, 0.9556895, 0.27548316), (0.48311207, 0.6530502, 0.5832052), (0.48311207, 0.6530502, 0.5832052), (0.48311207, 0.6530502, 0.5832052), (0.48311207, 0.6530502, 0.5832052), (0.067712575, 0.981845, 0.17718738), (0.067712575, 0.981845, 0.17718738), (0.067712575, 0.981845, 0.17718738), (0.067712575, 0.981845, 0.17718738), (0.06940837, 0.9874328, 0.14198217), (0.06940837, 0.9874328, 0.14198217), (0.06940837, 0.9874328, 0.14198217), (0.06940837, 0.9874328, 0.14198217), (0.30507332, 0.83952206, 0.4495921), (0.30507332, 0.83952206, 0.4495921), (0.30507332, 0.83952206, 0.4495921), (0.30507332, 0.83952206, 0.4495921), (0.2578575, 0.85874104, 0.4428017), (0.2578575, 0.85874104, 0.4428017), (0.2578575, 0.85874104, 0.4428017), (0.2578575, 0.85874104, 0.4428017), (-0.056265846, 0.99781036, -0.0347641), (-0.056265846, 0.99781036, -0.0347641), (-0.056265846, 0.99781036, -0.0347641), (-0.056265846, 0.99781036, -0.0347641), (-0.11578021, 0.9784344, -0.171059), (-0.11578021, 0.9784344, -0.171059), (-0.11578021, 0.9784344, -0.171059), (-0.11578021, 0.9784344, -0.171059), (-0.083187915, 0.99444485, -0.06449279), (-0.083187915, 0.99444485, -0.06449279), (-0.083187915, 0.99444485, -0.06449279), (-0.083187915, 0.99444485, -0.06449279), (-0.25917333, 0.94244564, -0.21124676), (-0.25917333, 0.94244564, -0.21124676), (-0.25917333, 0.94244564, -0.21124676), (-0.25917333, 0.94244564, -0.21124676)] (
                interpolation = "faceVarying"
            )
            point3f[] points = [(0.2867878, 0.18564877, 0.20849687), (0.25523514, 0.19481394, 0.17821826), (0.27378237, 0.17806755, 0.25489712), (0.32739168, 0.17616116, 0.18760516), (0.30136725, 0.18189417, 0.12241288), (0.21867567, 0.18347125, 0.23744865), (0.32450396, 0.1599663, 0.24654892), (0.40097046, 1.0310265e-8, 0.15165582), (0.39272687, 0.075126626, 0.15371667), (0.39922637, 5.931298e-9, 0.23557954), (0.39272687, -0.07512662, 0.15371668), (0.3770437, 1.1862596e-8, 0.05517652), (0.36879104, 0.07842159, 0.059557684), (0.39049527, 0.06775813, 0.23215383), (0.39049527, -0.06775812, 0.23215386), (0.36879104, -0.07842157, 0.059557684), (0.029989628, 7.4141226e-10, 0.24404463), (0.03505763, 0.079699375, 0.23469418), (0.0122507615, 0, 0.20961922), (0.03505763, -0.079699375, 0.23469418), (0.058704708, 1.4828245e-9, 0.2761628), (0.06525321, 0.07974663, 0.26582247), (0.01499546, 0.079683624, 0.20169128), (0.01499546, -0.079683624, 0.20169128), (0.06525322, -0.07974663, 0.26582247), (0.10474561, -0.19623145, 0.10048096), (0.15694574, -0.19528913, 0.11719817), (0.07560163, -0.18197484, 0.15989067), (0.052407335, -0.19637433, 0.08695038), (0.13136148, -0.19384913, 0.034457196), (0.19627716, -0.18908753, 0.043577578), (0.11764125, -0.18221112, 0.18309973), (0.036953058, -0.18189608, 0.13826774), (0.06583377, -0.19475137, 0.028133588), (0.11864269, -0.15182802, -0.13405828), (0.13817804, -0.16726619, -0.09275243), (0.06960215, -0.14868082, -0.15078026), (0.14503978, -0.13731338, -0.1555276), (0.19486906, -0.15432766, -0.09887104), (0.07156862, -0.16815427, -0.09528532), (0.07705802, -0.12410749, -0.19556029), (0.11864269, 0.15182802, -0.13405828), (0.06960214, 0.1486808, -0.15078028), (0.13817804, 0.16726619, -0.09275242), (0.14503978, 0.13731337, -0.1555276), (0.07705802, 0.12410749, -0.19556029), (0.07156862, 0.16815428, -0.09528532), (0.19486904, 0.15432766, -0.09887104), (0.18549807, 5.560592e-9, -0.19317618), (0.18139258, 0.056885574, -0.18854319), (0.26544935, 7.4141226e-9, -0.12263436), (0.18139257, -0.056885563, -0.18854319), (0.09530861, 2.965649e-9, -0.25469413), (0.09328076, 0.048492122, -0.2481237), (0.2591665, 0.067681946, -0.11819471), (0.2591665, -0.06768194, -0.1181947), (0.09328076, -0.048492115, -0.2481237), (0.2867878, -0.18564875, 0.20849687), (0.32739165, -0.17616113, 0.18760517), (0.27378237, -0.17806754, 0.25489712), (0.25523514, -0.19481394, 0.17821826), (0.30136725, -0.18189415, 0.12241288), (0.324504, -0.15996628, 0.24654895), (0.21867567, -0.18347123, 0.23744865), (0.24653733, 5.560592e-10, 0.34049308), (0.24854249, 0.07741107, 0.33089164), (0.17101592, 0, 0.328863), (0.24854249, -0.07741107, 0.33089164), (0.31688544, 1.4828245e-9, 0.33191204), (0.31364366, 0.06927026, 0.3220642), (0.17631145, 0.07999866, 0.3187059), (0.17631145, -0.07999866, 0.31870586), (0.31364366, -0.06927026, 0.32206416), (0.10474561, 0.19623145, 0.10048096), (0.052407335, 0.19637433, 0.08695038), (0.07560164, 0.18197484, 0.15989067), (0.15694575, 0.19528915, 0.11719817), (0.1313615, 0.19384913, 0.034457196), (0.06583377, 0.19475137, 0.028133588), (0.036953058, 0.18189609, 0.13826774), (0.11764125, 0.18221112, 0.18309973), (0.19627717, 0.18908754, 0.043577578), (0.19219804, 0.14586613, 0.2882344), (0.2568576, 0.14128073, 0.3022916), (0.31311703, 0.1265794, 0.2933375), (0.3636247, 0.06343352, 0.28991956), (0.37135142, 2.965649e-9, 0.29848564), (0.3636247, -0.06343352, 0.28991956), (0.08719724, -0.09164202, -0.22841243), (0.16819887, -0.105435304, -0.17565629), (0.23680931, -0.123184346, -0.108924136), (0.23680931, 0.123184346, -0.108924136), (0.16819887, 0.105435304, -0.1756563), (0.08719724, 0.09164202, -0.22841243), (0.084898725, -0.14523606, 0.23480144), (0.05026163, -0.14511791, 0.20664287), (0.023229558, -0.14507854, 0.17790747), (0.36526626, 0.12468922, 0.23232691), (0.36814943, 0.13794857, 0.16424964), (0.34368244, 0.14350054, 0.079652645), (0.3652663, -0.12468922, 0.23232692), (0.36814943, -0.13794856, 0.16424964), (0.34368244, -0.14350052, 0.079652645), (0.3228751, 0.07636578, -0.03589037), (0.330764, 9.545683e-9, -0.040654752), (0.3228751, -0.07636576, -0.035890367), (0.023229558, 0.14507855, 0.17790747), (0.05026163, 0.14511794, 0.20664287), (0.084898725, 0.14523606, 0.23480144), (0.31311703, -0.12657939, 0.2933375), (0.25685763, -0.14128073, 0.3022916), (0.19219804, -0.14586613, 0.28823438), (0.16476743, -0.18268366, 0.20868802), (0.20758362, -0.19449933, 0.14160843), (0.2548545, -0.18394357, 0.068545796), (0.110648915, 0.079841144, 0.29413882), (0.1038841, 1.1121184e-9, 0.30482012), (0.11064892, -0.07984113, 0.2941388), (0.21559756, -0.17247683, -0.030774627), (0.14574155, -0.18185249, -0.03201062), (0.07347373, -0.18326531, -0.034004387), (0.07347373, 0.18326531, -0.034004387), (0.14574157, 0.18185249, -0.03201062), (0.21559758, 0.17247686, -0.030774627), (0.16476743, 0.18268368, 0.20868802), (0.20758362, 0.19449933, 0.14160845), (0.2548545, 0.18394357, 0.068545796), (0.348821, -0.10686822, 0.27350768), (0.348821, 0.10686822, 0.27350768), (0.2928928, 0.14880268, -0.017612018), (0.2928928, -0.14880267, -0.017612018), (0.13094336, 0.14547235, 0.26209477), (0.13094336, -0.14547232, 0.26209477), (-0.2867878, 0.18564877, 0.20849687), (-0.25523514, 0.19481394, 0.17821826), (-0.27378237, 0.17806755, 0.25489712), (-0.32739168, 0.17616116, 0.18760516), (-0.30136725, 0.18189417, 0.12241288), (-0.21867567, 0.18347125, 0.23744865), (-0.32450396, 0.1599663, 0.24654892), (-0.40097046, 1.0310265e-8, 0.15165582), (-0.39272687, 0.075126626, 0.15371667), (-0.39922637, 5.931298e-9, 0.23557954), (-0.39272687, -0.07512662, 0.15371668), (-0.3770437, 1.1862596e-8, 0.05517652), (-0.36879104, 0.07842159, 0.059557684), (-0.39049527, 0.06775813, 0.23215383), (-0.39049527, -0.06775812, 0.23215386), (-0.36879104, -0.07842157, 0.059557684), (-0.029989628, 7.4141226e-10, 0.24404463), (-0.03505763, 0.079699375, 0.23469418), (-0.0122507615, 0, 0.20961922), (-0.03505763, -0.079699375, 0.23469418), (-0.058704708, 1.4828245e-9, 0.2761628), (-0.06525321, 0.07974663, 0.26582247), (-0.01499546, 0.079683624, 0.20169128), (-0.01499546, -0.079683624, 0.20169128), (-0.06525322, -0.07974663, 0.26582247), (-0.10474561, -0.19623145, 0.10048096), (-0.15694574, -0.19528913, 0.11719817), (-0.07560163, -0.18197484, 0.15989067), (-0.052407335, -0.19637433, 0.08695038), (-0.13136148, -0.19384913, 0.034457196), (-0.19627716, -0.18908753, 0.043577578), (-0.11764125, -0.18221112, 0.18309973), (-0.036953058, -0.18189608, 0.13826774), (-0.06583377, -0.19475137, 0.028133588), (-0.11864269, -0.15182802, -0.13405828), (-0.13817804, -0.16726619, -0.09275243), (-0.06960215, -0.14868082, -0.15078026), (-0.14503978, -0.13731338, -0.1555276), (-0.19486906, -0.15432766, -0.09887104), (-0.07156862, -0.16815427, -0.09528532), (-0.07705802, -0.12410749, -0.19556029), (-0.11864269, 0.15182802, -0.13405828), (-0.06960214, 0.1486808, -0.15078028), (-0.13817804, 0.16726619, -0.09275242), (-0.14503978, 0.13731337, -0.1555276), (-0.07705802, 0.12410749, -0.19556029), (-0.07156862, 0.16815428, -0.09528532), (-0.19486904, 0.15432766, -0.09887104), (-0.18549807, 5.560592e-9, -0.19317618), (-0.18139258, 0.056885574, -0.18854319), (-0.26544935, 7.4141226e-9, -0.12263436), (-0.18139257, -0.056885563, -0.18854319), (-0.09530861, 2.965649e-9, -0.25469413), (-0.09328076, 0.048492122, -0.2481237), (-0.2591665, 0.067681946, -0.11819471), (-0.2591665, -0.06768194, -0.1181947), (-0.09328076, -0.048492115, -0.2481237), (-0.2867878, -0.18564875, 0.20849687), (-0.32739165, -0.17616113, 0.18760517), (-0.27378237, -0.17806754, 0.25489712), (-0.25523514, -0.19481394, 0.17821826), (-0.30136725, -0.18189415, 0.12241288), (-0.324504, -0.15996628, 0.24654895), (-0.21867567, -0.18347123, 0.23744865), (-0.24653733, 5.560592e-10, 0.34049308), (-0.24854249, 0.07741107, 0.33089164), (-0.17101592, 0, 0.328863), (-0.24854249, -0.07741107, 0.33089164), (-0.31688544, 1.4828245e-9, 0.33191204), (-0.31364366, 0.06927026, 0.3220642), (-0.17631145, 0.07999866, 0.3187059), (-0.17631145, -0.07999866, 0.31870586), (-0.31364366, -0.06927026, 0.32206416), (-0.10474561, 0.19623145, 0.10048096), (-0.052407335, 0.19637433, 0.08695038), (-0.07560164, 0.18197484, 0.15989067), (-0.15694575, 0.19528915, 0.11719817), (-0.1313615, 0.19384913, 0.034457196), (-0.06583377, 0.19475137, 0.028133588), (-0.036953058, 0.18189609, 0.13826774), (-0.11764125, 0.18221112, 0.18309973), (-0.19627717, 0.18908754, 0.043577578), (-0.19219804, 0.14586613, 0.2882344), (-0.2568576, 0.14128073, 0.3022916), (-0.31311703, 0.1265794, 0.2933375), (-0.3636247, 0.06343352, 0.28991956), (-0.37135142, 2.965649e-9, 0.29848564), (-0.3636247, -0.06343352, 0.28991956), (-0.08719724, -0.09164202, -0.22841243), (-0.16819887, -0.105435304, -0.17565629), (-0.23680931, -0.123184346, -0.108924136), (-0.23680931, 0.123184346, -0.108924136), (-0.16819887, 0.105435304, -0.1756563), (-0.08719724, 0.09164202, -0.22841243), (-0.084898725, -0.14523606, 0.23480144), (-0.05026163, -0.14511791, 0.20664287), (-0.023229558, -0.14507854, 0.17790747), (0, 0.079683624, 0.16775104), (0, 0, 0.1740402), (0, -0.079683624, 0.16775104), (0, 0.04130013, -0.3023202), (0, 0, -0.3117001), (0, -0.04130013, -0.3023202), (0, -0.16301715, -0.10214397), (0, -0.1404614, -0.16785708), (0, -0.11280579, -0.22728103), (0, 0.16301715, -0.10214397), (0, 0.1404614, -0.16785708), (0, 0.11280579, -0.22728103), (-0.36526626, 0.12468922, 0.23232691), (-0.36814943, 0.13794857, 0.16424964), (-0.34368244, 0.14350054, 0.079652645), (-0.3652663, -0.12468922, 0.23232692), (-0.36814943, -0.13794856, 0.16424964), (-0.34368244, -0.14350052, 0.079652645), (0, -0.18189609, 0.1174379), (0, -0.19611748, 0.075013086), (0, -0.19372395, 0.023208372), (0, 0.18189609, 0.1174379), (0, 0.19611748, 0.075013086), (0, 0.19372395, 0.023208372), (-0.3228751, 0.07636578, -0.03589037), (-0.330764, 9.545683e-9, -0.040654752), (-0.3228751, -0.07636576, -0.035890367), (-0.023229558, 0.14507855, 0.17790747), (-0.05026163, 0.14511794, 0.20664287), (-0.084898725, 0.14523606, 0.23480144), (-0.31311703, -0.12657939, 0.2933375), (-0.25685763, -0.14128073, 0.3022916), (-0.19219804, -0.14586613, 0.28823438), (-0.16476743, -0.18268366, 0.20868802), (-0.20758362, -0.19449933, 0.14160843), (-0.2548545, -0.18394357, 0.068545796), (-0.110648915, 0.079841144, 0.29413882), (-0.1038841, 1.1121184e-9, 0.30482012), (-0.11064892, -0.07984113, 0.2941388), (-0.21559756, -0.17247683, -0.030774627), (-0.14574155, -0.18185249, -0.03201062), (-0.07347373, -0.18326531, -0.034004387), (-0.07347373, 0.18326531, -0.034004387), (-0.14574157, 0.18185249, -0.03201062), (-0.21559758, 0.17247686, -0.030774627), (-0.16476743, 0.18268368, 0.20868802), (-0.20758362, 0.19449933, 0.14160845), (-0.2548545, 0.18394357, 0.068545796), (-0.348821, -0.10686822, 0.27350768), (-0.348821, 0.10686822, 0.27350768), (0, 0.079826616, -0.27418053), (0, 0.14507855, 0.14888361), (0, -0.079826616, -0.27418053), (0, -0.14507855, 0.14888361), (-0.2928928, 0.14880268, -0.017612018), (-0.2928928, -0.14880267, -0.017612018), (0, -0.18069676, -0.036377046), (0, 0.18069676, -0.036377046), (-0.13094336, 0.14547235, 0.26209477), (-0.13094336, -0.14547232, 0.26209477)]
            uniform token subdivisionScheme = "none"
            custom string userProperties:blender:data_name = "Cube.003"
        }
    }

    def Scope "_materials"
    {
        def Material "Red"
        {
            token outputs:surface.connect = </root/_materials/Red/Principled_BSDF.outputs:surface>
            custom string userProperties:blender:data_name = "Red"

            def Shader "Principled_BSDF"
            {
                uniform token info:id = "UsdPreviewSurface"
                float inputs:clearcoat = 0
                float inputs:clearcoatRoughness = 0.03
                color3f inputs:diffuseColor = (0.8000001, 0.083962254, 0.056242373)
                float inputs:ior = 1.5
                float inputs:metallic = 0
                float inputs:opacity = 1
                float inputs:roughness = 0.6900348
                float inputs:specular = 0.5
                token outputs:surface
            }
        }
    }
}

