#usda 1.0
(
    defaultPrim = "root"
    doc = "Blender v5.1.2"
    metersPerUnit = 1
    upAxis = "Y"
)

def Xform "root" (
    customData = {
        dictionary Blender = {
            bool generated = 1
        }
    }
)
{
    float3 xformOp:rotateXYZ = (-90, -0, 0)
    uniform token[] xformOpOrder = ["xformOp:rotateXYZ"]

    def Xform "Body_Sniper_1"
    {
        custom string userProperties:blender:object_name = "Body_Sniper_1"

        def Mesh "Cube_244" (
            active = true
            prepend apiSchemas = ["MaterialBindingAPI"]
        )
        {
            uniform bool doubleSided = 1
            float3[] extent = [(-0.25636232, -0.0416094, -0.13614306), (0.5849341, 0.04055263, 0.15936567)]
            int[] faceVertexCounts = [4, 4, 4, 4, 10, 4, 4, 4, 4, 4, 4, 4, 4, 4, 4, 4, 4, 4, 4, 4, 4, 4, 4, 4, 4, 4, 4, 4, 4, 4, 4, 4, 4, 4, 4, 4, 4, 4, 4, 4, 4, 4, 4, 4, 4, 4, 4, 4, 4, 4, 4, 4, 4, 4, 4, 4, 4, 4, 4, 4, 4, 4, 4, 4, 4, 4, 4, 4, 4, 4, 4, 4, 4, 4, 4, 4, 4, 4, 4, 4, 4, 4, 4, 4, 4, 4, 4, 4, 4, 4, 4, 4, 4, 4, 4, 4, 4, 4, 4, 4, 4, 4, 4, 4, 4, 4, 4, 4, 4, 4, 4, 4, 4, 4, 4, 4, 4, 4, 4, 4, 4, 4, 4, 4, 4, 4, 4, 4, 4, 4, 4, 4, 4, 4, 4, 4, 4, 4, 4, 4, 4, 4, 4, 4, 4, 4, 4, 4, 4, 4, 4, 4, 4, 4, 4, 4, 4, 4, 4, 4, 4, 4, 4, 4, 4, 4, 4, 4, 4, 4, 4, 4, 4, 4, 4, 4, 4, 4, 4, 4, 4, 4, 4, 4, 4, 4, 4, 4, 4, 4, 4, 4, 4, 4, 4, 4, 4, 4, 4, 4, 4, 4, 4, 4, 4, 4, 4, 4, 4, 4, 4, 4, 4, 4, 4, 4, 4, 4, 4, 4, 4, 4, 4, 4, 4, 4, 4, 4, 4, 4, 4, 4, 4, 4, 4, 4, 4, 4, 4, 4, 4, 4, 4, 4, 4, 4, 4, 4, 4, 4, 4, 4, 4, 4, 4, 4, 4, 4, 4, 4, 4, 4, 4, 4, 4, 4, 4, 4, 4, 4, 4, 4, 4, 4, 4, 4, 4, 4, 4, 4, 4, 4, 4, 4, 14, 4, 4, 4, 4, 4, 4, 4, 4, 4, 4, 4, 4, 4, 4, 4, 4, 4]
            int[] faceVertexIndices = [44, 43, 3, 2, 45, 5, 13, 42, 127, 7, 11, 129, 135, 124, 5, 45, 5, 4, 16, 18, 19, 17, 12, 14, 15, 13, 130, 126, 6, 23, 124, 125, 4, 5, 47, 12, 17, 39, 1, 0, 8, 9, 126, 1, 9, 128, 26, 25, 118, 119, 22, 33, 107, 84, 24, 23, 108, 117, 33, 30, 123, 107, 25, 34, 109, 118, 34, 24, 117, 109, 35, 27, 120, 113, 30, 29, 122, 123, 29, 28, 121, 122, 6, 10, 87, 86, 11, 7, 85, 88, 28, 35, 113, 121, 7, 22, 84, 85, 132, 130, 23, 24, 127, 131, 22, 7, 0, 1, 20, 21, 137, 132, 24, 53, 53, 24, 34, 51, 51, 34, 25, 54, 54, 25, 26, 55, 55, 26, 27, 56, 52, 35, 28, 57, 57, 28, 29, 58, 58, 29, 30, 59, 27, 26, 119, 120, 131, 133, 33, 22, 23, 6, 86, 108, 21, 20, 31, 32, 15, 41, 42, 13, 14, 40, 41, 15, 12, 47, 40, 14, 19, 38, 39, 17, 18, 37, 38, 19, 16, 46, 37, 18, 4, 36, 46, 16, 125, 134, 36, 4, 82, 47, 39, 67, 141, 135, 45, 78, 78, 45, 42, 73, 76, 74, 43, 44, 32, 31, 48, 49, 33, 50, 59, 30, 133, 136, 50, 33, 35, 52, 56, 27, 70, 58, 59, 72, 68, 57, 58, 70, 83, 52, 57, 68, 64, 55, 56, 66, 62, 54, 55, 64, 81, 51, 54, 62, 60, 53, 51, 81, 139, 137, 53, 60, 134, 138, 61, 36, 138, 139, 60, 61, 36, 61, 80, 46, 61, 60, 81, 80, 46, 80, 63, 37, 80, 81, 62, 63, 37, 63, 65, 38, 63, 62, 64, 65, 38, 65, 67, 39, 65, 64, 66, 67, 47, 82, 69, 40, 82, 83, 68, 69, 40, 69, 71, 41, 69, 68, 70, 71, 41, 71, 73, 42, 71, 70, 72, 73, 49, 48, 75, 77, 77, 75, 74, 76, 50, 79, 72, 59, 79, 78, 73, 72, 136, 140, 79, 50, 140, 141, 78, 79, 52, 83, 66, 56, 83, 82, 67, 66, 90, 86, 87, 102, 85, 98, 104, 88, 108, 86, 90, 89, 89, 90, 91, 110, 110, 91, 92, 111, 111, 92, 93, 112, 94, 95, 96, 114, 114, 96, 97, 115, 115, 97, 98, 116, 100, 93, 92, 99, 99, 92, 91, 101, 101, 91, 90, 102, 104, 98, 97, 103, 103, 97, 96, 105, 105, 96, 95, 106, 95, 93, 100, 106, 122, 115, 116, 123, 121, 114, 115, 122, 113, 94, 114, 121, 119, 111, 112, 120, 118, 110, 111, 119, 109, 89, 110, 118, 117, 108, 89, 109, 95, 94, 112, 93, 85, 84, 116, 98, 94, 113, 120, 112, 84, 107, 123, 116, 77, 76, 141, 140, 49, 77, 140, 136, 74, 75, 139, 138, 43, 74, 138, 134, 75, 48, 137, 139, 32, 49, 136, 133, 76, 44, 135, 141, 3, 43, 134, 125, 21, 32, 133, 131, 48, 31, 132, 137, 0, 21, 131, 127, 31, 20, 130, 132, 6, 126, 128, 10, 2, 3, 125, 124, 20, 1, 126, 130, 44, 2, 124, 135, 0, 127, 129, 8, 213, 205, 154, 159, 210, 163, 162, 209, 211, 208, 158, 160, 255, 211, 160, 250, 166, 173, 191, 185, 167, 176, 193, 183, 176, 172, 192, 193, 174, 167, 183, 194, 180, 168, 189, 195, 168, 178, 196, 189, 174, 194, 190, 175, 164, 175, 190, 184, 169, 177, 197, 186, 173, 164, 184, 191, 179, 180, 195, 199, 172, 165, 182, 192, 178, 170, 188, 196, 181, 171, 187, 198, 171, 179, 199, 187, 177, 181, 198, 197, 257, 219, 151, 252, 219, 217, 200, 151, 217, 220, 150, 200, 220, 221, 149, 150, 221, 222, 148, 149, 218, 223, 147, 201, 223, 224, 146, 147, 224, 225, 145, 146, 156, 158, 208, 207, 157, 156, 207, 206, 159, 157, 206, 213, 152, 154, 205, 204, 153, 152, 204, 203, 155, 153, 203, 212, 161, 155, 212, 202, 251, 161, 202, 254, 248, 233, 205, 213, 261, 244, 211, 255, 244, 239, 208, 211, 242, 210, 209, 240, 143, 215, 214, 144, 142, 145, 225, 216, 253, 142, 216, 256, 201, 148, 222, 218, 236, 238, 225, 224, 234, 236, 224, 223, 249, 234, 223, 218, 230, 232, 222, 221, 228, 230, 221, 220, 247, 228, 220, 217, 226, 247, 217, 219, 259, 226, 219, 257, 254, 202, 227, 258, 258, 227, 226, 259, 202, 212, 246, 227, 227, 246, 247, 226, 212, 203, 229, 246, 246, 229, 228, 247, 203, 204, 231, 229, 229, 231, 230, 228, 204, 205, 233, 231, 231, 233, 232, 230, 213, 206, 235, 248, 248, 235, 234, 249, 206, 207, 237, 235, 235, 237, 236, 234, 207, 208, 239, 237, 237, 239, 238, 236, 215, 243, 241, 214, 243, 242, 240, 241, 216, 225, 238, 245, 245, 238, 239, 244, 256, 216, 245, 260, 260, 245, 244, 261, 218, 222, 232, 249, 249, 232, 233, 248, 243, 260, 261, 242, 215, 256, 260, 243, 240, 258, 259, 241, 209, 254, 258, 240, 241, 259, 257, 214, 143, 253, 256, 215, 242, 261, 255, 210, 162, 251, 254, 209, 214, 257, 252, 144, 210, 255, 250, 163, 287, 267, 280, 305, 287, 300, 278, 267, 288, 268, 278, 300, 288, 301, 281, 268, 289, 270, 279, 304, 289, 305, 280, 270, 262, 267, 278, 268, 262, 268, 281, 266, 262, 266, 284, 271, 262, 271, 280, 267, 263, 270, 280, 271, 263, 271, 284, 269, 263, 269, 283, 272, 263, 272, 279, 270, 292, 313, 286, 273, 292, 273, 282, 310, 293, 310, 282, 274, 293, 274, 281, 301, 294, 312, 285, 275, 294, 275, 286, 313, 264, 274, 282, 273, 264, 273, 286, 276, 264, 276, 284, 266, 264, 266, 281, 274, 265, 276, 286, 275, 265, 275, 285, 277, 265, 277, 283, 269, 265, 269, 284, 276, 325, 334, 318, 298, 325, 298, 316, 331, 326, 331, 316, 299, 326, 299, 319, 332, 327, 333, 317, 303, 327, 303, 318, 334, 290, 299, 316, 298, 290, 297, 319, 299, 290, 306, 322, 297, 290, 298, 318, 306, 291, 306, 318, 303, 291, 302, 322, 306, 291, 307, 321, 302, 291, 303, 317, 307, 328, 308, 324, 337, 328, 335, 320, 308, 329, 309, 320, 335, 329, 332, 319, 309, 330, 311, 323, 336, 330, 337, 324, 311, 295, 308, 320, 309, 295, 314, 324, 308, 295, 297, 322, 314, 295, 309, 319, 297, 296, 311, 324, 314, 296, 315, 323, 311, 296, 302, 321, 315, 296, 314, 322, 302, 294, 313, 337, 330, 294, 330, 336, 312, 293, 301, 332, 329, 293, 329, 335, 310, 292, 310, 335, 328, 292, 328, 337, 313, 289, 327, 334, 305, 289, 304, 333, 327, 288, 326, 332, 301, 288, 300, 331, 326, 287, 325, 331, 300, 287, 305, 334, 325, 159, 154, 152, 153, 155, 161, 251, 162, 163, 250, 160, 158, 156, 157, 166, 170, 178, 173, 173, 178, 168, 164, 164, 168, 180, 175, 175, 180, 179, 174, 174, 179, 171, 167, 167, 171, 181, 176, 176, 181, 177, 172, 172, 177, 169, 165, 166, 185, 188, 170, 165, 169, 186, 182, 9, 8, 129, 128, 128, 129, 11, 10, 10, 11, 88, 87, 87, 88, 104, 102, 102, 104, 103, 101, 101, 103, 105, 99, 99, 105, 106, 100]
            rel material:binding = </root/_materials/Black>
            normal3f[] normals = [(2.8235948e-7, 0, -1), (2.8235948e-7, 0, -1), (2.6757263e-7, 0, -1), (2.6757263e-7, 0, -1), (1.2066465e-7, 1, 8.9934105e-8), (5.1319343e-8, 1, 2.6683876e-8), (6.758616e-8, 0.99175555, 0.12814471), (0.046436492, 0.9878999, 0.14797774), (-1.3170315e-8, 0.9868483, -0.16164899), (-1.04673346e-8, 1, 0), (0, 1, 0), (0, 0.9868483, -0.161649), (1.16194634e-7, 0.9868483, -0.16164899), (6.184527e-8, 0.9868483, -0.16164896), (5.1319343e-8, 1, 2.6683876e-8), (1.2066465e-7, 1, 8.9934105e-8), (-1, 2.0581222e-8, 0), (-1, 2.0581222e-8, 0), (-1, 4.1162444e-8, 0), (-1, 4.1162444e-8, 0), (-1, 4.1162444e-8, 0), (-1, 4.1162444e-8, 0), (-1, 4.1162444e-8, 0), (-1, 4.1162444e-8, 0), (-1, 4.1162444e-8, 0), (-1, 4.1162444e-8, 0), (-1.8673367e-8, -0.9820814, -0.18845743), (-1.0519256e-8, -0.9820813, -0.18845738), (-1.04673346e-8, -1, 0), (-1.0467335e-8, -1, 0), (-1, 0, 0), (-1, 0, 0), (-1, 2.0581222e-8, 0), (-1, 2.0581222e-8, 0), (0.2441896, 0.1266563, 0.96142066), (2.870437e-8, 0.13294694, 0.99112314), (4.0395538e-8, -0.13294871, 0.9911229), (0.24418941, -0.12665781, 0.9614205), (-2.251234e-8, 0, -1), (-2.2512342e-8, 0, -1), (0, 0, -1), (0, 0, -1), (-1.0519256e-8, -0.9820813, -0.18845738), (-1.01941975e-8, -0.92896765, -0.37016097), (0, -0.92896765, -0.370161), (0, -0.9820813, -0.18845738), (0.7841494, -0.3592289, 0.50602794), (0.8710384, -0.43778503, 0.2227922), (0.8597488, -0.43048057, 0.27480614), (0.71300113, -0.2876186, 0.63945675), (-7.407942e-8, 0.36348948, 0.9315983), (-1.1043264e-7, 0.36348975, 0.93159825), (-1.1043264e-7, 0.36348975, 0.93159825), (-5.8801533e-8, 0.3634894, 0.93159837), (3.888571e-8, -0.36348942, 0.9315983), (1.3543817e-8, -0.3634894, 0.93159837), (2.8935643e-9, -0.3634894, 0.93159837), (3.888571e-8, -0.36348942, 0.9315983), (0.62574244, 0.39723715, 0.671304), (0.62574244, 0.39723715, 0.671304), (0.62574244, 0.39723715, 0.671304), (0.62574244, 0.39723715, 0.671304), (0.8710384, -0.43778503, 0.2227922), (0.88633084, -0.44882014, 0.113920934), (0.88633084, -0.44882014, 0.113920934), (0.8597488, -0.43048057, 0.27480614), (0.625743, -0.39723626, 0.671304), (0.625743, -0.39723626, 0.671304), (0.625743, -0.39723626, 0.671304), (0.625743, -0.39723626, 0.671304), (0.30079913, 0.1470715, 0.94227904), (0.30079973, -0.14707324, 0.9422786), (0.53323394, -0.07088688, 0.84299266), (0.5332331, 0.070886, 0.8429932), (0.8863312, 0.4488198, 0.113920465), (0.8710384, 0.4377852, 0.22279185), (0.8597487, 0.43048105, 0.27480575), (0.8863312, 0.4488198, 0.113920465), (0.8710384, 0.4377852, 0.22279185), (0.784149, 0.35922918, 0.5060284), (0.71300024, 0.28761765, 0.63945824), (0.8597487, 0.43048105, 0.27480575), (-1.0998516e-8, -0.3634894, 0.93159837), (0, -0.36348942, 0.9315983), (0, -0.36348942, 0.9315983), (-1.1449813e-8, -0.3634894, 0.93159837), (0, 0.3634892, 0.9315984), (-1.099851e-8, 0.36348915, 0.9315985), (-1.1449806e-8, 0.36348915, 0.9315985), (0, 0.3634892, 0.9315984), (0.784149, 0.35922918, 0.5060284), (0.30079913, 0.1470715, 0.94227904), (0.5332331, 0.070886, 0.8429932), (0.71300024, 0.28761765, 0.63945824), (-1.099851e-8, 0.36348915, 0.9315985), (-7.407942e-8, 0.36348948, 0.9315983), (-5.8801533e-8, 0.3634894, 0.93159837), (-1.1449806e-8, 0.36348915, 0.9315985), (-8.154109e-9, -0.9820814, -0.18845743), (-1.8673367e-8, -0.9820814, -0.18845743), (-1.0467335e-8, -1, 0), (0, -1, 1.6921328e-8), (-1.3170315e-8, 0.9868483, -0.16164899), (-4.6867722e-8, 0.9868483, -0.161649), (-4.382856e-8, 1, 0), (-1.04673346e-8, 1, 0), (-2.2512342e-8, 0, -1), (-2.251234e-8, 0, -1), (-2.0338076e-8, 0, -1), (-2.033808e-8, 0, -1), (-1.4443353e-7, -0.9820814, -0.18845746), (-8.154109e-9, -0.9820814, -0.18845743), (0, -1, 1.6921328e-8), (-6.540984e-8, -1, 2.1752529e-8), (-6.540984e-8, -1, 2.1752529e-8), (0, -1, 1.6921328e-8), (0, -0.9948067, 0.1017822), (-0.04643698, -0.9878997, 0.14797862), (-0.04643698, -0.9878997, 0.14797862), (0, -0.9948067, 0.1017822), (0, -0.8696247, 0.4937134), (-0.14462899, -0.8444559, 0.5157293), (-0.14462899, -0.8444559, 0.5157293), (0, -0.8696247, 0.4937134), (0, -0.50629723, 0.86235905), (-0.21776594, -0.47973427, 0.8499606), (-0.21776594, -0.47973427, 0.8499606), (0, -0.50629723, 0.86235905), (0.30079973, -0.14707324, 0.9422786), (-0.24419066, -0.12665772, 0.96142024), (-0.24419081, 0.12665614, 0.9614203), (0.30079913, 0.1470715, 0.94227904), (0, 0.50629646, 0.8623595), (-0.21776608, 0.47973338, 0.8499611), (-0.21776608, 0.47973338, 0.8499611), (0, 0.50629646, 0.8623595), (0, 0.86962545, 0.493712), (-0.1446288, 0.8444567, 0.51572806), (-0.1446288, 0.8444567, 0.51572806), (0, 0.86962545, 0.493712), (0, 0.99480677, 0.10178155), (-0.046436902, 0.9878999, 0.14797778), (0.30079973, -0.14707324, 0.9422786), (0.7841494, -0.3592289, 0.50602794), (0.71300113, -0.2876186, 0.63945675), (0.53323394, -0.07088688, 0.84299266), (-4.6867722e-8, 0.9868483, -0.161649), (-3.3697404e-8, 0.9868483, -0.16164902), (-2.6873288e-8, 1, 0), (-4.382856e-8, 1, 0), (1.3543817e-8, -0.3634894, 0.93159837), (-1.0998516e-8, -0.3634894, 0.93159837), (-1.1449813e-8, -0.3634894, 0.93159837), (2.8935643e-9, -0.3634894, 0.93159837), (-2.033808e-8, 0, -1), (-2.0338076e-8, 0, -1), (2.1742659e-9, 0, -1), (2.1742659e-9, 0, -1), (6.052597e-8, 0.86962545, 0.49371198), (0.14462787, 0.844457, 0.5157279), (0.046436492, 0.9878999, 0.14797774), (6.758616e-8, 0.99175555, 0.12814471), (1.5703238e-8, 0.5062966, 0.8623594), (0.21776494, 0.47973382, 0.84996116), (0.14462787, 0.844457, 0.5157279), (6.052597e-8, 0.86962545, 0.49371198), (2.870437e-8, 0.13294694, 0.99112314), (0.2441896, 0.1266563, 0.96142066), (0.21776494, 0.47973382, 0.84996116), (1.5703238e-8, 0.5062966, 0.8623594), (1.0116906e-8, -0.5062972, 0.86235905), (0.21776481, -0.47973433, 0.84996086), (0.24418941, -0.12665781, 0.9614205), (4.0395538e-8, -0.13294871, 0.9911229), (1.8684306e-8, -0.8696246, 0.49371347), (0.14462811, -0.8444559, 0.51572937), (0.21776481, -0.47973433, 0.84996086), (1.0116906e-8, -0.5062972, 0.86235905), (3.357949e-8, -0.99175537, 0.1281453), (0.04643667, -0.98789984, 0.14797856), (0.14462811, -0.8444559, 0.51572937), (1.8684306e-8, -0.8696246, 0.49371347), (4.105547e-8, -1, 0), (2.0527736e-8, -1, -1.2216466e-8), (0.04643667, -0.98789984, 0.14797856), (3.357949e-8, -0.99175537, 0.1281453), (6.634593e-8, -0.9820813, -0.1884573), (5.9417484e-8, -0.9820813, -0.18845741), (2.0527736e-8, -1, -1.2216466e-8), (4.105547e-8, -1, 0), (0.25405848, 0.13124646, 0.95824254), (0.2441896, 0.1266563, 0.96142066), (0.24418941, -0.12665781, 0.9614205), (0.2540584, -0.13124792, 0.9582423), (5.9550548e-8, 0.9868483, -0.1616491), (1.16194634e-7, 0.9868483, -0.16164899), (1.2066465e-7, 1, 8.9934105e-8), (1.2038817e-7, 1, 1.0938641e-7), (1.2038817e-7, 1, 1.0938641e-7), (1.2066465e-7, 1, 8.9934105e-8), (0.046436492, 0.9878999, 0.14797774), (0.024231542, 0.9939006, 0.107584395), (1.4857316e-7, 0, -1), (1.4857316e-7, 0, -1), (2.8235948e-7, 0, -1), (2.8235948e-7, 0, -1), (2.1742659e-9, 0, -1), (2.1742659e-9, 0, -1), (-5.5779145e-7, 0, -1), (-5.5779145e-7, 0, -1), (-2.6873288e-8, 1, 0), (-1.6618581e-7, 1, 0), (-0.046436902, 0.9878999, 0.14797778), (0, 0.99480677, 0.10178155), (-3.3697404e-8, 0.9868483, -0.16164902), (-1.9363523e-7, 0.9868483, -0.16164902), (-1.6618581e-7, 1, 0), (-2.6873288e-8, 1, 0), (0.30079913, 0.1470715, 0.94227904), (-0.24419081, 0.12665614, 0.9614203), (-0.24419066, -0.12665772, 0.96142024), (0.30079973, -0.14707324, 0.9422786), (-0.11851324, 0.881511, 0.45704815), (-0.1446288, 0.8444567, 0.51572806), (-0.046436902, 0.9878999, 0.14797778), (-0.024231737, 0.9939006, 0.107584246), (-0.22425537, 0.5124056, 0.82894504), (-0.21776608, 0.47973338, 0.8499611), (-0.1446288, 0.8444567, 0.51572806), (-0.11851324, 0.881511, 0.45704815), (-0.25405982, 0.1312463, 0.9582421), (-0.24419081, 0.12665614, 0.9614203), (-0.21776608, 0.47973338, 0.8499611), (-0.22425537, 0.5124056, 0.82894504), (-0.22425513, -0.51240605, 0.8289449), (-0.21776594, -0.47973427, 0.8499606), (-0.24419066, -0.12665772, 0.96142024), (-0.25405976, -0.1312479, 0.958242), (-0.118513465, -0.88151026, 0.45704946), (-0.14462899, -0.8444559, 0.5157293), (-0.21776594, -0.47973427, 0.8499606), (-0.22425513, -0.51240605, 0.8289449), (-0.024231726, -0.9939006, 0.107584834), (-0.04643698, -0.9878997, 0.14797862), (-0.14462899, -0.8444559, 0.5157293), (-0.118513465, -0.88151026, 0.45704946), (-6.540984e-8, -1, 5.570039e-8), (-6.540984e-8, -1, 2.1752529e-8), (-0.04643698, -0.9878997, 0.14797862), (-0.024231726, -0.9939006, 0.107584834), (-1.4443354e-7, -0.9820814, -0.1884575), (-1.4443353e-7, -0.9820814, -0.18845746), (-6.540984e-8, -1, 2.1752529e-8), (-6.540984e-8, -1, 5.570039e-8), (5.9417484e-8, -0.9820813, -0.18845741), (2.6244521e-8, -0.9820813, -0.18845749), (0, -1, 7.020306e-9), (2.0527736e-8, -1, -1.2216466e-8), (2.6244521e-8, -0.9820813, -0.18845749), (-1.4443354e-7, -0.9820814, -0.1884575), (-6.540984e-8, -1, 5.570039e-8), (0, -1, 7.020306e-9), (2.0527736e-8, -1, -1.2216466e-8), (0, -1, 7.020306e-9), (0.024231616, -0.9939006, 0.10758497), (0.04643667, -0.98789984, 0.14797856), (0, -1, 7.020306e-9), (-6.540984e-8, -1, 5.570039e-8), (-0.024231726, -0.9939006, 0.107584834), (0.024231616, -0.9939006, 0.10758497), (0.04643667, -0.98789984, 0.14797856), (0.024231616, -0.9939006, 0.10758497), (0.11851287, -0.88151014, 0.4570498), (0.14462811, -0.8444559, 0.51572937), (0.024231616, -0.9939006, 0.10758497), (-0.024231726, -0.9939006, 0.107584834), (-0.118513465, -0.88151026, 0.45704946), (0.11851287, -0.88151014, 0.4570498), (0.14462811, -0.8444559, 0.51572937), (0.11851287, -0.88151014, 0.4570498), (0.2242539, -0.512406, 0.82894534), (0.21776481, -0.47973433, 0.84996086), (0.11851287, -0.88151014, 0.4570498), (-0.118513465, -0.88151026, 0.45704946), (-0.22425513, -0.51240605, 0.8289449), (0.2242539, -0.512406, 0.82894534), (0.21776481, -0.47973433, 0.84996086), (0.2242539, -0.512406, 0.82894534), (0.2540584, -0.13124792, 0.9582423), (0.24418941, -0.12665781, 0.9614205), (0.2242539, -0.512406, 0.82894534), (-0.22425513, -0.51240605, 0.8289449), (-0.25405976, -0.1312479, 0.958242), (0.2540584, -0.13124792, 0.9582423), (0.2441896, 0.1266563, 0.96142066), (0.25405848, 0.13124646, 0.95824254), (0.22425406, 0.5124059, 0.8289453), (0.21776494, 0.47973382, 0.84996116), (0.25405848, 0.13124646, 0.95824254), (-0.25405982, 0.1312463, 0.9582421), (-0.22425537, 0.5124056, 0.82894504), (0.22425406, 0.5124059, 0.8289453), (0.21776494, 0.47973382, 0.84996116), (0.22425406, 0.5124059, 0.8289453), (0.11851248, 0.88151103, 0.45704836), (0.14462787, 0.844457, 0.5157279), (0.22425406, 0.5124059, 0.8289453), (-0.22425537, 0.5124056, 0.82894504), (-0.11851324, 0.881511, 0.45704815), (0.11851248, 0.88151103, 0.45704836), (0.14462787, 0.844457, 0.5157279), (0.11851248, 0.88151103, 0.45704836), (0.024231542, 0.9939006, 0.107584395), (0.046436492, 0.9878999, 0.14797774), (0.11851248, 0.88151103, 0.45704836), (-0.11851324, 0.881511, 0.45704815), (-0.024231737, 0.9939006, 0.107584246), (0.024231542, 0.9939006, 0.107584395), (-5.5779145e-7, 0, -1), (-5.5779145e-7, 0, -1), (-5.5779157e-7, 0, -1), (-5.5779157e-7, 0, -1), (-5.5779157e-7, 0, -1), (-5.5779157e-7, 0, -1), (1.4857316e-7, 0, -1), (1.4857316e-7, 0, -1), (-1.6618581e-7, 1, 0), (-1.6618581e-7, 1, 0), (-0.024231737, 0.9939006, 0.107584246), (-0.046436902, 0.9878999, 0.14797778), (-1.6618581e-7, 1, 0), (1.2038817e-7, 1, 1.0938641e-7), (0.024231542, 0.9939006, 0.107584395), (-0.024231737, 0.9939006, 0.107584246), (-1.9363523e-7, 0.9868483, -0.16164902), (-1.9363526e-7, 0.9868483, -0.16164908), (-1.6618581e-7, 1, 0), (-1.6618581e-7, 1, 0), (-1.9363526e-7, 0.9868483, -0.16164908), (5.9550548e-8, 0.9868483, -0.1616491), (1.2038817e-7, 1, 1.0938641e-7), (-1.6618581e-7, 1, 0), (-0.24419081, 0.12665614, 0.9614203), (-0.25405982, 0.1312463, 0.9582421), (-0.25405976, -0.1312479, 0.958242), (-0.24419066, -0.12665772, 0.96142024), (-0.25405982, 0.1312463, 0.9582421), (0.25405848, 0.13124646, 0.95824254), (0.2540584, -0.13124792, 0.9582423), (-0.25405976, -0.1312479, 0.958242), (-0.000099251636, -0.9928308, 0.119528554), (-1.3460899e-8, -1, 1.9039279e-8), (-5.812078e-9, -1, 3.8078557e-8), (-0.0001988912, -0.99280834, 0.11971471), (-8.183467e-9, 1, 1.7409759e-8), (-0.000099239354, 0.9928307, 0.119528934), (-0.00019887865, 0.9928082, 0.119715795), (-5.812073e-9, 0.99999994, 0), (-3.7277918e-8, -1, 4.4078458e-8), (-1.3460899e-8, -1, 1.9039279e-8), (-0.000099251636, -0.9928308, 0.119528554), (-0.019597612, -0.99135166, 0.12976041), (-0.019597612, -0.99135166, 0.12976041), (-0.000099251636, -0.9928308, 0.119528554), (-0.00039057646, -0.88254154, 0.47023425), (-0.06921885, -0.87173855, 0.48505735), (-0.06921885, -0.87173855, 0.48505735), (-0.00039057646, -0.88254154, 0.47023425), (-0.0007045091, -0.5299259, 0.8480437), (-0.11581122, -0.51679426, 0.8482402), (-0.11581122, -0.51679426, 0.8482402), (-0.0007045091, -0.5299259, 0.8480437), (-0.0008222408, -0.14235888, 0.98981476), (-0.13345435, -0.1394759, 0.98119134), (-0.13345432, 0.13947545, 0.98119134), (-0.0008222555, 0.14235891, 0.98981476), (-0.00070450787, 0.5299263, 0.84804344), (-0.115811124, 0.5167941, 0.84824026), (-0.115811124, 0.5167941, 0.84824026), (-0.00070450787, 0.5299263, 0.84804344), (-0.00039055012, 0.8825416, 0.4702342), (-0.06921874, 0.8717387, 0.48505726), (-0.06921874, 0.8717387, 0.48505726), (-0.00039055012, 0.8825416, 0.4702342), (-0.000099239354, 0.9928307, 0.119528934), (-0.019597637, 0.99135166, 0.12976062), (-0.0016444101, -0.14232662, 0.9898184), (-0.0008222408, -0.14235888, 0.98981476), (-0.0007045091, -0.5299259, 0.8480437), (-0.0014091287, -0.5297334, 0.848163), (-0.0014091287, -0.5297334, 0.848163), (-0.0007045091, -0.5299259, 0.8480437), (-0.00039057646, -0.88254154, 0.47023425), (-0.00078176707, -0.8823793, 0.47053817), (-0.00078176707, -0.8823793, 0.47053817), (-0.00039057646, -0.88254154, 0.47023425), (-0.000099251636, -0.9928308, 0.119528554), (-0.0001988912, -0.99280834, 0.11971471), (-0.00019887865, 0.9928082, 0.119715795), (-0.000099239354, 0.9928307, 0.119528934), (-0.00039055012, 0.8825416, 0.4702342), (-0.0007817107, 0.8823795, 0.4705378), (-0.0007817107, 0.8823795, 0.4705378), (-0.00039055012, 0.8825416, 0.4702342), (-0.00070450787, 0.5299263, 0.84804344), (-0.0014090855, 0.5297353, 0.8481618), (-0.0014090855, 0.5297353, 0.8481618), (-0.00070450787, 0.5299263, 0.84804344), (-0.0008222555, 0.14235891, 0.98981476), (-0.0016444104, 0.1423267, 0.9898184), (-0.0008222555, 0.14235891, 0.98981476), (-0.0008222408, -0.14235888, 0.98981476), (-0.0016444101, -0.14232662, 0.9898184), (-0.0016444104, 0.1423267, 0.9898184), (-0.12127349, 0.8935209, 0.4323346), (-0.06921874, 0.8717387, 0.48505726), (-0.019597637, 0.99135166, 0.12976062), (-0.037669033, 0.9902261, 0.13428827), (-0.22778012, 0.53733575, 0.8120262), (-0.115811124, 0.5167941, 0.84824026), (-0.06921874, 0.8717387, 0.48505726), (-0.12127349, 0.8935209, 0.4323346), (-0.26740065, 0.14060795, 0.9532713), (-0.13345432, 0.13947545, 0.98119134), (-0.115811124, 0.5167941, 0.84824026), (-0.22778012, 0.53733575, 0.8120262), (-0.22778031, -0.53733593, 0.8120261), (-0.11581122, -0.51679426, 0.8482402), (-0.13345435, -0.1394759, 0.98119134), (-0.26740077, -0.14060892, 0.9532712), (-0.12127365, -0.8935207, 0.43233487), (-0.06921885, -0.87173855, 0.48505735), (-0.11581122, -0.51679426, 0.8482402), (-0.22778031, -0.53733593, 0.8120261), (-0.03766899, -0.9902261, 0.13428813), (-0.019597612, -0.99135166, 0.12976041), (-0.06921885, -0.87173855, 0.48505735), (-0.12127365, -0.8935207, 0.43233487), (-5.344611e-8, -0.99999994, 8.815691e-8), (-3.7277918e-8, -1, 4.4078458e-8), (-0.019597612, -0.99135166, 0.12976041), (-0.03766899, -0.9902261, 0.13428813), (-0.0008222555, 0.14235891, 0.98981476), (-0.13345432, 0.13947545, 0.98119134), (-0.13345435, -0.1394759, 0.98119134), (-0.0008222408, -0.14235888, 0.98981476), (-8.183467e-9, 1, 1.7409759e-8), (-3.2000496e-8, 1, 6.148822e-8), (-0.019597637, 0.99135166, 0.12976062), (-0.000099239354, 0.9928307, 0.119528934), (-0.13345432, 0.13947545, 0.98119134), (-0.26740065, 0.14060795, 0.9532713), (-0.26740077, -0.14060892, 0.9532712), (-0.13345435, -0.1394759, 0.98119134), (-3.2000496e-8, 1, 6.148822e-8), (-5.3446133e-8, 1, 8.815693e-8), (-0.037669033, 0.9902261, 0.13428827), (-0.019597637, 0.99135166, 0.12976062), (-2.1599148e-7, 0.9477391, -0.31904623), (7.374403e-8, 0.9477391, -0.31904632), (5.9550548e-8, 0.9868483, -0.1616491), (-1.9363526e-7, 0.9868483, -0.16164908), (-2.1599134e-7, 0.9477392, -0.31904614), (-2.1599148e-7, 0.9477391, -0.31904623), (-1.9363526e-7, 0.9868483, -0.16164908), (-1.9363523e-7, 0.9868483, -0.16164902), (5.154851e-8, -0.9289675, -0.3701613), (-2.0059811e-7, -0.9289675, -0.3701613), (-1.4443354e-7, -0.9820814, -0.1884575), (2.6244521e-8, -0.9820813, -0.18845749), (9.617787e-8, -0.92896754, -0.370161), (5.154851e-8, -0.9289675, -0.3701613), (2.6244521e-8, -0.9820813, -0.18845749), (5.9417484e-8, -0.9820813, -0.18845741), (-2.0059811e-7, -0.9289675, -0.3701613), (-2.0059797e-7, -0.92896754, -0.37016112), (-1.4443353e-7, -0.9820814, -0.18845746), (-1.4443354e-7, -0.9820814, -0.1884575), (-3.3147234e-8, 0.9477392, -0.31904614), (-2.1599134e-7, 0.9477392, -0.31904614), (-1.9363523e-7, 0.9868483, -0.16164902), (-3.3697404e-8, 0.9868483, -0.16164902), (7.374403e-8, 0.9477391, -0.31904632), (1.1424819e-7, 0.9477392, -0.3190462), (1.16194634e-7, 0.9868483, -0.16164899), (5.9550548e-8, 0.9868483, -0.1616491), (8.925875e-8, -0.92896765, -0.37016085), (9.617787e-8, -0.92896754, -0.370161), (5.9417484e-8, -0.9820813, -0.18845741), (6.634593e-8, -0.9820813, -0.1884573), (-4.8674103e-8, 0.9477392, -0.3190461), (-3.3147234e-8, 0.9477392, -0.31904614), (-3.3697404e-8, 0.9868483, -0.16164902), (-4.6867722e-8, 0.9868483, -0.161649), (-2.0059797e-7, -0.92896754, -0.37016112), (-1.6015996e-8, -0.92896754, -0.370161), (-8.154109e-9, -0.9820814, -0.18845743), (-1.4443353e-7, -0.9820814, -0.18845746), (-1.5526872e-8, 0.9477392, -0.3190461), (-4.8674103e-8, 0.9477392, -0.3190461), (-4.6867722e-8, 0.9868483, -0.161649), (-1.3170315e-8, 0.9868483, -0.16164899), (-1.6015996e-8, -0.92896754, -0.370161), (-2.6210193e-8, -0.92896754, -0.370161), (-1.8673367e-8, -0.9820814, -0.18845743), (-8.154109e-9, -0.9820814, -0.18845743), (-1.04673346e-8, -1, 0), (-1.0519256e-8, -0.9820813, -0.18845738), (0, -0.9820813, -0.18845738), (0, -1, 0), (-1, 0, 0), (-1, 0, 0), (-1, 0, 0), (-1, 0, 0), (-2.6210193e-8, -0.92896754, -0.370161), (-1.01941975e-8, -0.92896765, -0.37016097), (-1.0519256e-8, -0.9820813, -0.18845738), (-1.8673367e-8, -0.9820814, -0.18845743), (1.1424819e-7, 0.9477392, -0.3190462), (8.100834e-8, 0.94773924, -0.31904602), (6.184527e-8, 0.9868483, -0.16164896), (1.16194634e-7, 0.9868483, -0.16164899), (-1.5526872e-8, 0.9477392, -0.3190461), (-1.3170315e-8, 0.9868483, -0.16164899), (0, 0.9868483, -0.161649), (0, 0.9477392, -0.3190461), (0.24354368, 0.16504171, -0.95574456), (0.24354361, -0.16504434, -0.95574415), (6.19657e-8, -0.17408556, -0.9847305), (6.1965665e-8, 0.1740827, -0.984731), (6.9894046e-9, 0, 1), (-2.200053e-9, 0, 1), (-2.200053e-9, 0, 1), (6.9894037e-9, 0, 1), (6.3538046e-8, 1, -8.7945715e-8), (0.035763476, 0.9930228, -0.11236862), (6.4457325e-8, 0.9952877, -0.09696597), (3.2291954e-8, 1, -3.279999e-8), (1.9807006e-8, 1, -1.1770585e-8), (6.3538046e-8, 1, -8.7945715e-8), (3.2291954e-8, 1, -3.279999e-8), (0, 1, 0), (5.9041888e-8, -0.27305755, 0.96199775), (1.0834546e-7, -0.50107723, 0.8654025), (1.0834546e-7, -0.50107723, 0.8654025), (5.60931e-8, -0.25941998, 0.96576464), (0, -1, -4.7590998e-8), (0, -0.9969022, -0.07865073), (0, -0.99715394, -0.07539174), (0, -1, -4.4962214e-8), (0, -0.9969022, -0.07865073), (0, -0.98863214, -0.15035436), (0, -0.98863214, -0.15035436), (0, -0.99715394, -0.07539174), (0, -1, -4.1838938e-8), (0, -1, -4.7590998e-8), (0, -1, -4.4962214e-8), (0, -1, -4.8736542e-8), (0, 1, 3.5675924e-8), (0, 0.99416345, 0.10788456), (0, 0.99457127, 0.10405706), (0, 1, 3.1606113e-8), (0, 0.99416345, 0.10788456), (0, 0.97834426, 0.20698428), (0, 0.97834426, 0.20698428), (0, 0.99457127, 0.10405706), (0, -1, -4.1838938e-8), (0, -1, -4.8736542e-8), (0, -1, 2.7831785e-8), (0, -1, 3.2387604e-8), (0, -0.99416345, 0.10788463), (0, -1, 3.2387604e-8), (0, -1, 2.7831785e-8), (0, -0.99457127, 0.10405712), (0, 0.68674487, -0.72689855), (0, 0.68674487, -0.72689855), (0, 0.68674487, -0.72689855), (0, 0.68674487, -0.72689855), (0, -0.9783442, 0.2069844), (0, -0.99416345, 0.10788463), (0, -0.99457127, 0.10405712), (0, -0.9783442, 0.2069844), (0, 1, 0), (0, 1, 3.5675924e-8), (0, 1, 3.1606113e-8), (0, 1, 0), (0, -0.68674505, -0.7268983), (0, -0.68674505, -0.7268983), (0, -0.68674505, -0.7268983), (0, -0.68674505, -0.7268983), (1.0834544e-7, 0.5010771, 0.8654027), (5.9041867e-8, 0.27305743, 0.9619977), (5.6093093e-8, 0.25941992, 0.96576464), (1.0834544e-7, 0.5010771, 0.8654027), (0, 0.9969022, -0.07865073), (0, 1, 0), (0, 1, 0), (0, 0.99715394, -0.07539174), (0, 1, 0), (0, 1, 0), (0, 1, 0), (0, 1, 0), (0, 0.98863214, -0.15035436), (0, 0.9969022, -0.07865073), (0, 0.99715394, -0.07539174), (0, 0.98863214, -0.15035436), (-1.517021e-7, -0.98951596, 0.14442351), (-1.52586e-7, -1, -5.9781364e-8), (0, -1, -8.967503e-8), (0, -0.98951596, 0.14442357), (-1.52586e-7, -1, -5.9781364e-8), (-0.03576401, -0.9930227, -0.1123697), (0, -0.99528766, -0.096966766), (0, -1, -8.967503e-8), (-0.03576401, -0.9930227, -0.1123697), (-0.12332652, -0.8963431, -0.42586333), (0, -0.9156143, -0.4020578), (0, -0.99528766, -0.096966766), (-0.12332652, -0.8963431, -0.42586333), (-0.13590494, -0.7986071, -0.5863075), (0, -0.8060861, -0.5917982), (0, -0.9156143, -0.4020578), (-0.25234765, -0.33175907, -0.90898657), (-0.24354482, -0.16504423, -0.95574385), (0, -0.17408551, -0.98473054), (0, -0.34285462, -0.93938845), (-0.24354497, 0.1650416, -0.9557443), (-0.25234783, 0.33175376, -0.9089884), (0, 0.34284925, -0.9393905), (0, 0.17408268, -0.984731), (-0.13590433, 0.79860884, -0.5863053), (-0.123326, 0.8963441, -0.42586136), (0, 0.9156151, -0.40205592), (0, 0.8060878, -0.5917959), (-0.123326, 0.8963441, -0.42586136), (-0.035763815, 0.9930228, -0.11236884), (0, 0.9952877, -0.09696608), (0, 0.9156151, -0.40205592), (6.928059e-8, 0.91561514, -0.40205583), (6.4457325e-8, 0.9952877, -0.09696597), (0.035763476, 0.9930228, -0.11236862), (0.12332528, 0.8963443, -0.4258612), (7.15126e-8, 0.80608773, -0.591796), (6.928059e-8, 0.91561514, -0.40205583), (0.12332528, 0.8963443, -0.4258612), (0.13590387, 0.79860884, -0.58630544), (6.1965665e-8, 0.1740827, -0.984731), (0, 0.34284925, -0.9393904), (0.25234637, 0.33175406, -0.90898883), (0.24354368, 0.16504171, -0.95574456), (0, -0.34285474, -0.9393885), (6.19657e-8, -0.17408556, -0.9847305), (0.24354361, -0.16504434, -0.95574415), (0.25234637, -0.3317592, -0.90898687), (8.5603546e-8, -0.9156143, -0.40205792), (7.151291e-8, -0.806086, -0.59179837), (0.13590428, -0.7986071, -0.58630776), (0.12332571, -0.8963433, -0.42586324), (1.1290868e-7, -0.99528766, -0.096966736), (8.5603546e-8, -0.9156143, -0.40205792), (0.12332571, -0.8963433, -0.42586324), (0.035763722, -0.9930226, -0.112369545), (1.1625105e-7, -1, -3.2799946e-8), (1.1290868e-7, -0.99528766, -0.096966736), (0.035763722, -0.9930226, -0.112369545), (1.04984e-7, -1, -7.8426076e-8), (9.56247e-8, -0.98951596, 0.14442347), (1.1625105e-7, -1, -3.2799946e-8), (1.04984e-7, -1, -7.8426076e-8), (9.079465e-8, -0.989516, 0.14442345), (0.25625166, 0.17296268, -0.9510094), (0.25625175, -0.17296556, -0.9510089), (0.24354361, -0.16504434, -0.95574415), (0.24354368, 0.16504171, -0.95574456), (1.3583679e-8, 1, -8.5027914e-8), (4.9261303e-8, 1, -1.6169038e-7), (6.3538046e-8, 1, -8.7945715e-8), (1.9807006e-8, 1, -1.1770585e-8), (4.9261303e-8, 1, -1.6169038e-7), (0.018402772, 0.9965248, -0.0812384), (0.035763476, 0.9930228, -0.11236862), (6.3538046e-8, 1, -8.7945715e-8), (8.089431e-9, 0, 1), (6.9894046e-9, 0, 1), (6.9894037e-9, 0, 1), (8.089431e-9, 0, 1), (0, 0, 1), (-2.0345226e-8, 0, 1), (-2.0345224e-8, 0, 1), (0, 0, 1), (0, 1, 0), (0, 0.9952877, -0.09696608), (-0.035763815, 0.9930228, -0.11236884), (-8.8062926e-8, 1, -2.9887754e-8), (0, 1, 0), (0, 1, 0), (-8.8062926e-8, 1, -2.9887754e-8), (-4.0983206e-8, 1, 0), (0, 0.17408268, -0.984731), (0, -0.17408551, -0.98473054), (-0.24354482, -0.16504423, -0.95574385), (-0.24354497, 0.1650416, -0.9557443), (-0.09538837, 0.9244148, -0.36926728), (-0.018402962, 0.9965248, -0.08123832), (-0.035763815, 0.9930228, -0.11236884), (-0.123326, 0.8963441, -0.42586136), (-0.1778054, 0.79324317, -0.58236635), (-0.09538837, 0.9244148, -0.36926728), (-0.123326, 0.8963441, -0.42586136), (-0.13590433, 0.79860884, -0.5863053), (-0.25625303, 0.17296258, -0.9510091), (-0.22650707, 0.33393943, -0.91497487), (-0.25234783, 0.33175376, -0.9089884), (-0.24354497, 0.1650416, -0.9557443), (-0.22650655, -0.33394483, -0.914973), (-0.2562531, -0.17296553, -0.95100856), (-0.24354482, -0.16504423, -0.95574385), (-0.25234765, -0.33175907, -0.90898657), (-0.095388815, -0.924414, -0.36926922), (-0.1778061, -0.7932414, -0.5823686), (-0.13590494, -0.7986071, -0.5863075), (-0.12332652, -0.8963431, -0.42586333), (-0.018403053, -0.9965247, -0.08123893), (-0.095388815, -0.924414, -0.36926922), (-0.12332652, -0.8963431, -0.42586333), (-0.03576401, -0.9930227, -0.1123697), (-1.8697892e-7, -1, -4.478537e-8), (-0.018403053, -0.9965247, -0.08123893), (-0.03576401, -0.9930227, -0.1123697), (-1.52586e-7, -1, -5.9781364e-8), (-2.0156287e-7, -0.98951596, 0.1444235), (-1.8697892e-7, -1, -4.478537e-8), (-1.52586e-7, -1, -5.9781364e-8), (-1.517021e-7, -0.98951596, 0.14442351), (9.079465e-8, -0.989516, 0.14442345), (1.04984e-7, -1, -7.8426076e-8), (3.8621735e-8, -1, -1.1699838e-7), (-3.3311814e-8, -0.98951596, 0.14442348), (-3.3311814e-8, -0.98951596, 0.14442348), (3.8621735e-8, -1, -1.1699838e-7), (-1.8697892e-7, -1, -4.478537e-8), (-2.0156287e-7, -0.98951596, 0.1444235), (1.04984e-7, -1, -7.8426076e-8), (0.035763722, -0.9930226, -0.112369545), (0.018402882, -0.9965248, -0.08123899), (3.8621735e-8, -1, -1.1699838e-7), (3.8621735e-8, -1, -1.1699838e-7), (0.018402882, -0.9965248, -0.08123899), (-0.018403053, -0.9965247, -0.08123893), (-1.8697892e-7, -1, -4.478537e-8), (0.035763722, -0.9930226, -0.112369545), (0.12332571, -0.8963433, -0.42586324), (0.095388256, -0.92441404, -0.36926934), (0.018402882, -0.9965248, -0.08123899), (0.018402882, -0.9965248, -0.08123899), (0.095388256, -0.92441404, -0.36926934), (-0.095388815, -0.924414, -0.36926922), (-0.018403053, -0.9965247, -0.08123893), (0.12332571, -0.8963433, -0.42586324), (0.13590428, -0.7986071, -0.58630776), (0.17780492, -0.7932415, -0.58236873), (0.095388256, -0.92441404, -0.36926934), (0.095388256, -0.92441404, -0.36926934), (0.17780492, -0.7932415, -0.58236873), (-0.1778061, -0.7932414, -0.5823686), (-0.095388815, -0.924414, -0.36926922), (0.25234637, -0.3317592, -0.90898687), (0.24354361, -0.16504434, -0.95574415), (0.25625175, -0.17296556, -0.9510089), (0.2265053, -0.3339449, -0.9149733), (0.2265053, -0.3339449, -0.9149733), (0.25625175, -0.17296556, -0.9510089), (-0.2562531, -0.17296553, -0.95100856), (-0.22650655, -0.33394483, -0.914973), (0.24354368, 0.16504171, -0.95574456), (0.25234637, 0.33175406, -0.90898883), (0.2265058, 0.33393964, -0.9149751), (0.25625166, 0.17296268, -0.9510094), (0.25625166, 0.17296268, -0.9510094), (0.2265058, 0.33393964, -0.9149751), (-0.22650707, 0.33393943, -0.91497487), (-0.25625303, 0.17296258, -0.9510091), (0.13590387, 0.79860884, -0.58630544), (0.12332528, 0.8963443, -0.4258612), (0.09538781, 0.9244148, -0.3692673), (0.17780447, 0.7932432, -0.5823665), (0.17780447, 0.7932432, -0.5823665), (0.09538781, 0.9244148, -0.3692673), (-0.09538837, 0.9244148, -0.36926728), (-0.1778054, 0.79324317, -0.58236635), (0.12332528, 0.8963443, -0.4258612), (0.035763476, 0.9930228, -0.11236862), (0.018402772, 0.9965248, -0.0812384), (0.09538781, 0.9244148, -0.3692673), (0.09538781, 0.9244148, -0.3692673), (0.018402772, 0.9965248, -0.0812384), (-0.018402962, 0.9965248, -0.08123832), (-0.09538837, 0.9244148, -0.36926728), (-2.0345226e-8, 0, 1), (-2.0345226e-8, 0, 1), (-2.0345228e-8, 0, 1), (-2.0345224e-8, 0, 1), (-2.0345226e-8, 0, 1), (8.089431e-9, 0, 1), (8.089431e-9, 0, 1), (-2.0345228e-8, 0, 1), (-8.8062926e-8, 1, -2.9887754e-8), (-0.035763815, 0.9930228, -0.11236884), (-0.018402962, 0.9965248, -0.08123832), (-9.2417025e-8, 1, -1.4143032e-7), (-9.2417025e-8, 1, -1.4143032e-7), (-0.018402962, 0.9965248, -0.08123832), (0.018402772, 0.9965248, -0.0812384), (4.9261303e-8, 1, -1.6169038e-7), (-4.0983206e-8, 1, 0), (-8.8062926e-8, 1, -2.9887754e-8), (-9.2417025e-8, 1, -1.4143032e-7), (-4.0983206e-8, 1, -5.185944e-8), (-4.0983206e-8, 1, -5.185944e-8), (-9.2417025e-8, 1, -1.4143032e-7), (4.9261303e-8, 1, -1.6169038e-7), (1.3583679e-8, 1, -8.5027914e-8), (-0.24354497, 0.1650416, -0.9557443), (-0.24354482, -0.16504423, -0.95574385), (-0.2562531, -0.17296553, -0.95100856), (-0.25625303, 0.17296258, -0.9510091), (-0.25625303, 0.17296258, -0.9510091), (-0.2562531, -0.17296553, -0.95100856), (0.25625175, -0.17296556, -0.9510089), (0.25625166, 0.17296268, -0.9510094), (-4.0983206e-8, 1, 0), (-4.0983206e-8, 1, -5.185944e-8), (1.3583679e-8, 1, -8.5027914e-8), (1.6295267e-8, 1, 0), (-4.0983206e-8, 1, 0), (-4.0983206e-8, 1, 0), (-4.0983206e-8, 1, -5.185944e-8), (-4.0983206e-8, 1, 0), (-8.880828e-9, -0.9582837, 0.28581876), (-3.3311814e-8, -0.98951596, 0.14442348), (-2.0156287e-7, -0.98951596, 0.1444235), (-1.8359712e-7, -0.9582837, 0.28581876), (8.138085e-8, -0.9582838, 0.28581873), (9.079465e-8, -0.989516, 0.14442345), (-3.3311814e-8, -0.98951596, 0.14442348), (-8.880828e-9, -0.9582837, 0.28581876), (-1.8359712e-7, -0.9582837, 0.28581876), (-2.0156287e-7, -0.98951596, 0.1444235), (-1.517021e-7, -0.98951596, 0.14442351), (-1.3629051e-7, -0.9582837, 0.28581882), (0, 1, 0), (0, 1, 0), (-4.0983206e-8, 1, 0), (-4.0983206e-8, 1, 0), (1.6295267e-8, 1, 0), (1.3583679e-8, 1, -8.5027914e-8), (1.9807006e-8, 1, -1.1770585e-8), (1.6295267e-8, 1, 0), (8.5910074e-8, -0.9582838, 0.2858187), (9.56247e-8, -0.98951596, 0.14442347), (9.079465e-8, -0.989516, 0.14442345), (8.138085e-8, -0.9582838, 0.28581873), (-1.3629051e-7, -0.9582837, 0.28581882), (-1.517021e-7, -0.98951596, 0.14442351), (0, -0.98951596, 0.14442357), (0, -0.9582837, 0.28581887), (1.6295267e-8, 1, 0), (1.9807006e-8, 1, -1.1770585e-8), (0, 1, 0), (0, 1, 0), (0.60847914, -0.79356974, -2.6530162e-7), (0.60847914, -0.79356974, -2.6530162e-7), (0.608479, -0.79357, -1.8636081e-7), (0.6084791, -0.7935699, -2.0453041e-7), (0.7314073, -0.4876426, -0.4767054), (0.7298081, -0.3596965, -0.5813764), (0.772965, -0.2941823, -0.56212264), (0.89164674, -0.33171695, -0.308107), (0.6643134, -0.085348584, -0.7425654), (0.79188496, -0.10136484, -0.6021987), (0.772965, -0.2941823, -0.56212264), (0.7298081, -0.3596965, -0.5813764), (0.6643134, -0.085348584, -0.7425654), (0.6267993, 6.890731e-7, -0.7791807), (0.787087, 0.0000011472923, -0.61684203), (0.79188496, -0.10136484, -0.6021987), (0.6084784, -0.7935704, -6.279478e-8), (0.6084784, -0.7935704, -6.279479e-8), (0.60847795, -0.79357076, 0), (0.60847795, -0.79357076, 0), (0.6084784, -0.7935704, -6.279478e-8), (0.6084791, -0.7935699, -2.0453041e-7), (0.608479, -0.79357, -1.8636081e-7), (0.6084784, -0.7935704, -6.279479e-8), (0.967742, -0.11981865, -0.22162816), (0.89164674, -0.33171695, -0.308107), (0.772965, -0.2941823, -0.56212264), (0.79188496, -0.10136484, -0.6021987), (0.967742, -0.11981865, -0.22162816), (0.79188496, -0.10136484, -0.6021987), (0.787087, 0.0000011472923, -0.61684203), (0.9763221, 0.000002633895, -0.21632206), (0.967742, -0.11981865, -0.22162816), (0.9763221, 0.000002633895, -0.21632206), (1, 0.0000035724797, -7.7770954e-7), (0.99242294, -0.1228687, -4.1836097e-7), (0.967742, -0.11981865, -0.22162816), (0.99242294, -0.1228687, -4.1836097e-7), (0.96980524, -0.24388057, -5.2465953e-8), (0.89164674, -0.33171695, -0.308107), (0.99242276, -0.12287052, -4.0867866e-7), (0.96980524, -0.2438806, -3.3454448e-8), (0.96980524, -0.24388057, -5.2465953e-8), (0.99242294, -0.1228687, -4.1836097e-7), (0.99242276, -0.12287052, -4.0867866e-7), (0.99242294, -0.1228687, -4.1836097e-7), (1, 0.0000035724797, -7.7770954e-7), (1, 0.0000034927928, -7.777095e-7), (0.99242276, -0.12287052, -4.0867866e-7), (1, 0.0000034927928, -7.777095e-7), (1, 0.0000034378834, 1.7564041e-13), (0.99242264, -0.122871295, -4.999307e-9), (0.99242276, -0.12287052, -4.0867866e-7), (0.99242264, -0.122871295, -4.999307e-9), (0.9698053, -0.24388048, -9.92285e-9), (0.96980524, -0.2438806, -3.3454448e-8), (0.608483, 0.7935669, 1.7686874e-7), (0.60848296, 0.7935669, 9.993537e-8), (0.608483, 0.79356694, 7.693336e-8), (0.608483, 0.7935669, 1.7686874e-7), (0.7314119, 0.4876368, -0.47670433), (0.891649, 0.3317134, -0.3081045), (0.7729676, 0.2941805, -0.56212014), (0.72981083, 0.35969344, -0.5813749), (0.6643126, 0.08534919, -0.742566), (0.72981083, 0.35969344, -0.5813749), (0.7729676, 0.2941805, -0.56212014), (0.7918868, 0.1013662, -0.60219604), (0.6643126, 0.08534919, -0.742566), (0.7918868, 0.1013662, -0.60219604), (0.787087, 0.0000011472923, -0.61684203), (0.6267993, 6.890731e-7, -0.7791807), (0.60848284, 0.79356694, 0), (0.6084828, 0.7935671, 0), (0.6084828, 0.7935671, 0), (0.60848284, 0.79356694, 0), (0.60848284, 0.79356694, 0), (0.60848284, 0.79356694, 0), (0.608483, 0.79356694, 7.693336e-8), (0.60848296, 0.7935669, 9.993537e-8), (0.9677424, 0.119820215, -0.22162497), (0.7918868, 0.1013662, -0.60219604), (0.7729676, 0.2941805, -0.56212014), (0.891649, 0.3317134, -0.3081045), (0.9677424, 0.119820215, -0.22162497), (0.891649, 0.3317134, -0.3081045), (0.9698064, 0.24387594, 3.0203363e-8), (0.99242276, 0.12286987, -3.770387e-7), (0.9677424, 0.119820215, -0.22162497), (0.99242276, 0.12286987, -3.770387e-7), (1, 0.0000035724797, -7.7770954e-7), (0.9763221, 0.000002633895, -0.21632206), (0.9677424, 0.119820215, -0.22162497), (0.9763221, 0.000002633895, -0.21632206), (0.787087, 0.0000011472923, -0.61684203), (0.7918868, 0.1013662, -0.60219604), (0.99242264, 0.122871675, -3.8895254e-7), (0.99242276, 0.12286987, -3.770387e-7), (0.9698064, 0.24387594, 3.0203363e-8), (0.9698065, 0.24387613, 5.698615e-9), (0.99242264, 0.122871675, -3.8895254e-7), (0.9698065, 0.24387613, 5.698615e-9), (0.9698064, 0.2438763, 0), (0.99242246, 0.12287254, 1.7698135e-13), (0.99242264, 0.122871675, -3.8895254e-7), (0.99242246, 0.12287254, 1.7698135e-13), (1, 0.0000034378834, 1.7564041e-13), (1, 0.0000034927928, -7.777095e-7), (0.99242264, 0.122871675, -3.8895254e-7), (1, 0.0000034927928, -7.777095e-7), (1, 0.0000035724797, -7.7770954e-7), (0.99242276, 0.12286987, -3.770387e-7), (-0.67850024, -0.73460025, -2.958314e-7), (-0.67850024, -0.73460025, -2.0922877e-7), (-0.67850024, -0.73460025, -1.7996392e-7), (-0.67850024, -0.73460025, -2.958314e-7), (-0.8057732, -0.40081495, -0.43597823), (-0.90799195, -0.29993448, -0.29255757), (-0.81942666, -0.261636, -0.50998676), (-0.8031938, -0.30722684, -0.5103835), (-0.7415333, -0.08322472, -0.6657342), (-0.8031938, -0.30722684, -0.5103835), (-0.81942666, -0.261636, -0.50998676), (-0.822975, -0.099893615, -0.5592256), (-0.7415333, -0.08322472, -0.6657342), (-0.822975, -0.099893615, -0.5592256), (-0.8146836, 6.513459e-7, -0.5799057), (-0.6958936, 5.2385417e-7, -0.7181449), (-0.6785002, -0.7346003, -4.6680636e-8), (-0.6785, -0.7346003, 0), (-0.6785, -0.7346003, 0), (-0.67850006, -0.7346003, -4.6680636e-8), (-0.6785002, -0.7346003, -4.6680636e-8), (-0.67850006, -0.7346003, -4.6680636e-8), (-0.67850024, -0.73460025, -1.7996392e-7), (-0.67850024, -0.73460025, -2.0922877e-7), (-0.967742, -0.11981914, -0.22162747), (-0.822975, -0.099893615, -0.5592256), (-0.81942666, -0.261636, -0.50998676), (-0.90799195, -0.29993448, -0.29255757), (-0.967742, -0.11981914, -0.22162747), (-0.9763218, 0.0000012321472, -0.21632311), (-0.8146836, 6.513459e-7, -0.5799057), (-0.822975, -0.099893615, -0.5592256), (-0.967742, -0.11981914, -0.22162747), (-0.99242294, -0.122868985, -2.11565e-7), (-1, 0.0000016403432, -3.6725172e-7), (-0.9763218, 0.0000012321472, -0.21632311), (-0.967742, -0.11981914, -0.22162747), (-0.90799195, -0.29993448, -0.29255757), (-0.96980584, -0.24387844, -5.2465982e-8), (-0.99242294, -0.122868985, -2.11565e-7), (-0.99242276, -0.12286986, -2.0188276e-7), (-0.99242294, -0.122868985, -2.11565e-7), (-0.96980584, -0.24387844, -5.2465982e-8), (-0.9698058, -0.24387851, -3.3454466e-8), (-0.99242276, -0.12286986, -2.0188276e-7), (-1, 0.0000016754424, -3.6725172e-7), (-1, 0.0000016403432, -3.6725172e-7), (-0.99242294, -0.122868985, -2.11565e-7), (-0.99242276, -0.12286986, -2.0188276e-7), (-0.9924227, -0.122870356, -4.9993085e-9), (-1, 0.0000017189417, 7.3183504e-14), (-1, 0.0000016754424, -3.6725172e-7), (-0.99242276, -0.12286986, -2.0188276e-7), (-0.9698058, -0.24387851, -3.3454466e-8), (-0.96980584, -0.24387868, -9.9228545e-9), (-0.9924227, -0.122870356, -4.9993085e-9), (-0.67850494, 0.7345959, 1.9722215e-7), (-0.67850494, 0.7345959, 1.9722215e-7), (-0.6785051, 0.73459566, 8.435783e-8), (-0.678505, 0.7345957, 1.1286432e-7), (-0.8057786, 0.4008057, -0.43597665), (-0.80319756, 0.30722243, -0.51038027), (-0.81942844, 0.26163474, -0.50998455), (-0.90799296, 0.29993215, -0.29255673), (-0.74153364, 0.083226174, -0.6657337), (-0.8229755, 0.099895716, -0.5592245), (-0.81942844, 0.26163474, -0.50998455), (-0.80319756, 0.30722243, -0.51038027), (-0.74153364, 0.083226174, -0.6657337), (-0.6958936, 5.2385417e-7, -0.7181449), (-0.8146836, 6.513459e-7, -0.5799057), (-0.8229755, 0.099895716, -0.5592245), (-0.6785052, 0.73459566, 0), (-0.6785052, 0.73459566, 0), (-0.67850506, 0.7345957, 0), (-0.67850506, 0.7345957, 0), (-0.6785052, 0.73459566, 0), (-0.678505, 0.7345957, 1.1286432e-7), (-0.6785051, 0.73459566, 8.435783e-8), (-0.6785052, 0.73459566, 0), (-0.96774197, 0.11982122, -0.22162654), (-0.90799296, 0.29993215, -0.29255673), (-0.81942844, 0.26163474, -0.50998455), (-0.8229755, 0.099895716, -0.5592245), (-0.96774197, 0.11982122, -0.22162654), (-0.9924227, 0.12287069, -1.7616635e-7), (-0.9698058, 0.24387854, 1.7884503e-8), (-0.90799296, 0.29993215, -0.29255673), (-0.96774197, 0.11982122, -0.22162654), (-0.9763218, 0.0000012321472, -0.21632311), (-1, 0.0000016403432, -3.6725172e-7), (-0.9924227, 0.12287069, -1.7616635e-7), (-0.96774197, 0.11982122, -0.22162654), (-0.8229755, 0.099895716, -0.5592245), (-0.8146836, 6.513459e-7, -0.5799057), (-0.9763218, 0.0000012321472, -0.21632311), (-0.9924225, 0.12287151, -1.8215677e-7), (-0.9698058, 0.24387854, 5.698611e-9), (-0.9698058, 0.24387854, 1.7884503e-8), (-0.9924227, 0.12287069, -1.7616635e-7), (-0.9924225, 0.12287151, -1.8215677e-7), (-0.9924225, 0.122871906, 7.374227e-14), (-0.9698057, 0.24387836, 0), (-0.9698058, 0.24387854, 5.698611e-9), (-0.9924225, 0.12287151, -1.8215677e-7), (-1, 0.0000016754424, -3.6725172e-7), (-1, 0.0000017189417, 7.3183504e-14), (-0.9924225, 0.122871906, 7.374227e-14), (-0.9924225, 0.12287151, -1.8215677e-7), (-0.9924227, 0.12287069, -1.7616635e-7), (-1, 0.0000016403432, -3.6725172e-7), (-1, 0.0000016754424, -3.6725172e-7), (0, 1, 0), (0, 1, 5.2970265e-8), (0, 1, 5.2970265e-8), (0, 1, 0), (0, 1, 0), (0, 1, 0), (0, 1, 0), (0, 1, 0), (0, 0.0824418, -0.99659586), (0, 0.0000015661454, -1), (0, 0.0000015661454, -1), (0, 0.0824418, -0.99659586), (0, 0.0824418, -0.99659586), (0, 0.0824418, -0.99659586), (0, 0.16432232, -0.9864067), (0, 0.16432232, -0.9864067), (0, 0.8319363, -0.55487126), (0, 0.8319363, -0.55487126), (0, 0.8319363, -0.55487126), (0, 0.8319363, -0.55487126), (0, 1, 1.0594053e-7), (0, 1, 1.0594053e-7), (0, 1, 5.2970265e-8), (0, 1, 5.2970265e-8), (0, -1, -5.0150643e-8), (0, -1, -5.0150643e-8), (0, -1, -1.5609116e-7), (0, -1, -1.5609116e-7), (0, -1, -5.0150643e-8), (0, -1, 0), (0, -1, 0), (0, -1, -5.0150643e-8), (0, -0.08244224, -0.99659586), (0, -0.08244224, -0.99659586), (0, 0.0000015661454, -1), (0, 0.0000015661454, -1), (0, -0.08244224, -0.99659586), (0, -0.16432627, -0.986406), (0, -0.16432627, -0.986406), (0, -0.08244224, -0.99659586), (0, -0.83193636, -0.5548711), (0, -0.83193636, -0.5548711), (0, -0.83193636, -0.5548711), (0, -0.83193636, -0.5548711), (0, -1, -2.1188106e-7), (0, -1, -1.5609116e-7), (0, -1, -1.5609116e-7), (0, -1, -2.1188106e-7), (-1, -2.4155042e-7, 0), (-1, -2.4155042e-7, 0), (-1, -2.4155042e-7, 0), (-1, -2.4155042e-7, 0), (-1, -2.4155042e-7, 0), (-1, -2.4155042e-7, 0), (-1, -2.4155042e-7, 0), (-1, -2.4155042e-7, 0), (-1, -2.4155042e-7, 0), (-1, -2.4155042e-7, 0), (-1, -2.4155042e-7, 0), (-1, -2.4155042e-7, 0), (-1, -2.4155042e-7, 0), (-1, -2.4155042e-7, 0), (-0.9431978, 0, 0.33223176), (-0.9431978, 0, 0.33223176), (-0.9998852, 0, -0.015150999), (-0.9998852, 0, -0.015150971), (-0.9998852, 0, -0.015150971), (-0.9998852, 0, -0.015150999), (-0.9983759, 0, -0.056970187), (-0.9983759, 0, -0.056970187), (-0.9983759, 0, -0.056970187), (-0.9983759, 0, -0.056970187), (-0.983992, 0, -0.17821285), (-0.983992, 0, -0.17821285), (-0.983992, 0, -0.17821285), (-0.983992, 0, -0.17821285), (-0.961959, 0, -0.27319387), (-0.961959, 0, -0.27319387), (-0.961959, 0, -0.27319387), (-0.961959, 0, -0.27319387), (-0.9952463, 0, -0.097389854), (-0.9952463, 0, -0.097389854), (-0.9952463, 0, -0.097389854), (-0.9952463, 0, -0.097389854), (-0.9976747, 0, 0.06815601), (-0.9976747, 0, 0.06815601), (-0.9976747, 0, 0.06815601), (-0.9976747, 0, 0.06815601), (-0.9963113, 0, 0.08581195), (-0.9963114, 0, 0.08581194), (-0.9963114, 0, 0.08581194), (-0.9963113, 0, 0.08581195), (-0.9989708, 0, -0.04535871), (-0.9989708, 0, -0.04535871), (5.9041888e-8, -0.27305755, 0.96199775), (5.60931e-8, -0.25941998, 0.96576464), (5.6093093e-8, 0.25941992, 0.96576464), (5.9041867e-8, 0.27305743, 0.9619977), (0, 0, -0.99999994), (0, 0, -0.99999994), (0, 0, -0.99999994), (0, 0, -0.99999994), (1, 0, 0), (1, 0, 0), (1, 0, 0), (1, 0, 0), (1, 0, 0), (1, 0, 0), (1, 0, 0), (1, 0, 0), (0.6149128, 0, 0.78859514), (0.6149128, 0, 0.78859514), (0.6149128, 0, 0.78859514), (0.6149128, 0, 0.78859514), (1, -4.405328e-7, 0), (1, -4.405328e-7, 0), (1, -0.0000010802089, 0.000003520189), (1, -0.0000010802096, 0.000003520193), (1, -0.0000010802096, 0.000003520193), (1, -0.0000010802089, 0.000003520189), (1, -0.0000018317766, 0.00000855839), (1, -0.0000018317764, 0.000008558391), (1, -0.0000018317764, 0.000008558391), (1, -0.0000018317766, 0.00000855839), (1, -0.0000016237605, 0.00000933014), (1, -0.0000016237607, 0.000009330141), (1, -0.0000016237607, 0.000009330141), (1, -0.0000016237605, 0.00000933014), (1, 0, 0), (1, 0, 0)] (
                interpolation = "faceVarying"
            )
            point3f[] points = [(0.26127025, 0.03037438, -0.0024436575), (0.26127025, -0.02956185, -0.0024436575), (-0.24065366, 0.030374374, -0.0024436656), (-0.24065366, -0.02956185, -0.0024436656), (-0.24065366, -0.041609395, 0.058026142), (-0.24065366, 0.040552627, 0.058026142), (0.26127025, -0.0416094, 0.058026142), (0.26127025, 0.04055263, 0.058026142), (0.5849341, 0.03037438, -0.0024436575), (0.5849341, -0.02956185, -0.0024436575), (0.5849341, -0.0416094, 0.058026142), (0.5849341, 0.04055263, 0.058026142), (-0.24065366, 0.016735591, 0.13038999), (-0.24065366, 0.040552624, 0.10610699), (-0.24065366, 0.028644105, 0.12713669), (-0.24065366, 0.03736175, 0.11824848), (-0.24065366, -0.041609395, 0.106107034), (-0.24065366, -0.017792366, 0.13038999), (-0.24065366, -0.038418513, 0.11824848), (-0.24065366, -0.029700879, 0.12713665), (0.08332186, -0.02956185, -0.0024436493), (0.08332186, 0.030374374, -0.0024436493), (0.08332186, 0.040552627, 0.058026142), (0.08332186, -0.041609395, 0.058026142), (0.027489219, -0.041609395, 0.058026142), (-0.023258481, -0.038418513, 0.11824848), (-0.023258481, -0.029700879, 0.12713665), (-0.023258481, -0.017792365, 0.13038999), (-0.023258481, 0.028644102, 0.12713669), (-0.023258481, 0.03736175, 0.11824848), (-0.023258481, 0.040552624, 0.10610699), (0.027489219, -0.029561846, -0.0024436493), (0.027489219, 0.03037437, -0.0024436493), (0.027489219, 0.040552624, 0.058026142), (-0.023258481, -0.04160939, 0.106107034), (-0.023258481, 0.01673559, 0.13038999), (-0.14991568, -0.04160939, 0.058026142), (-0.14991568, -0.038418513, 0.11824848), (-0.14991568, -0.029700873, 0.12713665), (-0.14991568, -0.017792365, 0.13038999), (-0.14991568, 0.028644098, 0.12713669), (-0.14991568, 0.03736174, 0.11824848), (-0.14991568, 0.040552616, 0.10610699), (-0.14991568, -0.029561846, -0.0024436412), (-0.14991568, 0.03037437, -0.0024436412), (-0.14991568, 0.040552624, 0.058026142), (-0.14991568, -0.04160939, 0.106107034), (-0.14991568, 0.016735587, 0.13038999), (-0.053538825, -0.029561846, -0.0024436493), (-0.053538825, 0.03037437, -0.0024436493), (-0.053538825, 0.040552624, 0.058026142), (-0.053538825, -0.04160939, 0.106107034), (-0.053538825, 0.01673559, 0.13038999), (-0.053538825, -0.041609395, 0.058026142), (-0.053538825, -0.038418513, 0.11824848), (-0.053538825, -0.029700879, 0.12713665), (-0.053538825, -0.017792365, 0.13038999), (-0.053538825, 0.028644102, 0.12713669), (-0.053538825, 0.03736175, 0.11824848), (-0.053538825, 0.040552624, 0.10610699), (-0.07595524, -0.04160939, 0.058026142), (-0.12749912, -0.04160939, 0.058026142), (-0.07595524, -0.038418513, 0.10579616), (-0.12749912, -0.038418513, 0.10579616), (-0.07595524, -0.029700873, 0.11468432), (-0.12749912, -0.029700873, 0.11468432), (-0.07595524, -0.017792365, 0.11793766), (-0.12749912, -0.017792365, 0.11793766), (-0.07595524, 0.028644098, 0.11468436), (-0.12749912, 0.028644092, 0.11468436), (-0.07595524, 0.03736174, 0.10579616), (-0.12749912, 0.037361737, 0.10579616), (-0.07595524, 0.040552616, 0.09365465), (-0.12749912, 0.040552616, 0.09365465), (-0.09353769, -0.02956184, -0.0024436244), (-0.07595524, -0.02956184, -0.0024436244), (-0.09353769, 0.030374367, -0.0024436244), (-0.07595524, 0.030374367, -0.0024436244), (-0.12749912, 0.040552616, 0.058026142), (-0.07595524, 0.040552616, 0.058026142), (-0.12749912, -0.04160939, 0.0936547), (-0.07595524, -0.04160939, 0.0936547), (-0.12749912, 0.016735585, 0.11793766), (-0.07595524, 0.016735585, 0.11793766), (0.08464762, 0.036136936, 0.05974905), (0.26112038, 0.03613694, 0.05974905), (0.26112038, -0.03719371, 0.05974905), (0.5827246, -0.03719371, 0.05974905), (0.5827246, 0.03613694, 0.05974905), (0.08464762, -0.037193704, 0.1355317), (0.26112038, -0.037193708, 0.1355317), (0.26112038, -0.034345813, 0.14718154), (0.26112038, -0.026565215, 0.15570979), (0.26112038, -0.015936708, 0.15883139), (0.08464762, 0.014879928, 0.15883139), (0.26112038, 0.01487993, 0.15883139), (0.26112038, 0.025508432, 0.15570979), (0.26112038, 0.033289038, 0.14718154), (0.26112038, 0.036136936, 0.1355317), (0.5827244, -0.026565215, 0.1562441), (0.5827244, -0.015936708, 0.15936567), (0.5827244, -0.034345813, 0.14771587), (0.5827246, -0.03719371, 0.13606597), (0.5827246, 0.033289038, 0.14771579), (0.5827246, 0.03613694, 0.13606595), (0.5827244, 0.02550843, 0.1562441), (0.5827244, 0.01487993, 0.15936567), (0.029278073, 0.036136936, 0.05974905), (0.08464762, -0.037193708, 0.05974905), (-0.021048905, -0.0371937, 0.105882935), (0.08464762, -0.03434581, 0.14718154), (0.08464762, -0.026565207, 0.15570979), (0.08464762, -0.015936706, 0.15883139), (-0.021048905, 0.014879928, 0.1291826), (0.08464762, 0.02550843, 0.15570979), (0.08464762, 0.033289034, 0.14718154), (0.08464762, 0.036136936, 0.1355317), (0.029278073, -0.037193704, 0.05974905), (-0.021048905, -0.03434581, 0.11753276), (-0.021048905, -0.026565202, 0.126061), (-0.021048905, -0.015936704, 0.1291826), (-0.021048905, 0.025508426, 0.12606105), (-0.021048905, 0.033289034, 0.11753276), (-0.021048905, 0.03613693, 0.105882905), (-0.24065366, 0.040552627, 0.027791252), (-0.24065366, -0.041609395, 0.027791252), (0.26127025, -0.0416094, 0.027791252), (0.26127025, 0.04055263, 0.027791252), (0.5849341, -0.0416094, 0.027791252), (0.5849341, 0.04055263, 0.027791252), (0.08332186, -0.041609395, 0.027791252), (0.08332186, 0.040552627, 0.027791252), (0.027489219, -0.041609395, 0.027791252), (0.027489219, 0.040552624, 0.027791252), (-0.14991568, -0.04160939, 0.027791252), (-0.14991568, 0.040552624, 0.027791252), (-0.053538825, 0.040552624, 0.027791252), (-0.053538825, -0.041609395, 0.027791252), (-0.09353769, -0.04160939, 0.027791252), (-0.07595524, -0.04160939, 0.027791252), (-0.07595524, 0.040552616, 0.027791252), (-0.09353769, 0.040552616, 0.027791252), (0.06478929, 0.031154882, -0.049967498), (0.06478929, 0.031154882, 0.011941983), (0.06478929, -0.022577045, 0.011941983), (0.06478929, 0.031154882, -0.09919306), (0.06478929, 0.028709568, -0.11162365), (0.06478929, 0.02202884, -0.1207235), (0.06478929, -0.013557552, -0.12405423), (0.06478929, -0.022683594, -0.12072344), (0.06478929, -0.029364318, -0.11162365), (0.06478929, -0.031809643, -0.049967498), (-0.15898004, -0.022683594, -0.12072344), (-0.15898004, -0.029364318, -0.11162365), (-0.15898004, -0.013557553, -0.12405423), (-0.15898004, -0.031809643, -0.099193126), (-0.15898004, 0.028709568, -0.11162365), (-0.15898004, 0.02202884, -0.1207235), (-0.15898004, 0.031154882, -0.09919306), (-0.15898004, 0.012902799, -0.12405423), (-0.15898004, 0.031154882, -0.049967498), (-0.15898004, -0.031809643, -0.049967498), (-0.15898004, -0.022577051, 0.011941983), (-0.15898004, 0.031154882, 0.011941983), (-0.25555468, -0.01300239, 0.124787204), (-0.18308778, -0.0076563978, -0.11799482), (-0.25555468, -0.0076563978, 0.13363121), (-0.18193991, -0.01300239, -0.094339654), (-0.25555468, 0.011945577, 0.124787204), (-0.18308778, 0.0065995837, -0.11799482), (-0.25555468, 0.0065995837, 0.13363121), (-0.18193991, 0.011945577, -0.094339654), (-0.18325765, -0.011616394, -0.11425358), (-0.25636232, -0.011616394, 0.13133834), (-0.18479393, -0.013002391, -0.07989597), (-0.25555468, -0.013002391, 0.10904692), (-0.18193986, -0.013002391, -0.10514016), (-0.18325765, 0.010559581, -0.11425358), (-0.25636232, 0.010559581, 0.13133834), (-0.18479393, 0.011945578, -0.07989597), (-0.25555468, 0.011945578, 0.10904692), (-0.18193986, 0.011945578, -0.10514016), (-0.1385518, -0.0076563978, -0.11799482), (-0.1385518, -0.01300239, -0.094339654), (-0.1385518, -0.01300239, 0.124787204), (-0.1385518, -0.0076563978, 0.13363121), (-0.1385518, 0.0065995837, -0.11799482), (-0.1385518, 0.011945577, -0.094339654), (-0.1385518, 0.0065995837, 0.13363121), (-0.1385518, 0.011945577, 0.124787204), (-0.1385518, -0.013002391, 0.10904692), (-0.1385518, -0.011616394, 0.13133833), (-0.1385518, -0.011616394, -0.114253566), (-0.1385518, -0.013002391, -0.10514016), (-0.1385518, -0.013002391, -0.07989597), (-0.1385518, 0.011945578, 0.10904692), (-0.1385518, 0.010559581, 0.13133833), (-0.1385518, 0.010559581, -0.114253566), (-0.1385518, 0.011945578, -0.10514016), (-0.1385518, 0.011945578, -0.07989597), (0.06478929, -0.031809635, -0.099193126), (0.06478929, 0.012902799, -0.12405423), (-0.0868783, -0.031809635, -0.049967498), (-0.0868783, -0.029364316, -0.11162365), (-0.0868783, -0.022683589, -0.12072344), (-0.0868783, -0.013557552, -0.12405423), (-0.0868783, 0.022028834, -0.1207235), (-0.0868783, 0.028709564, -0.11162365), (-0.0868783, 0.031154873, -0.09919306), (-0.0868783, -0.022577045, 0.011941983), (-0.0868783, 0.031154882, 0.011941983), (-0.0868783, 0.031154882, -0.049967498), (-0.0868783, -0.03180963, -0.099193126), (-0.0868783, 0.012902796, -0.12405423), (0.012044764, -0.022577045, 0.011941983), (0.012044764, 0.031154882, 0.011941983), (0.012044764, 0.031154882, -0.049967498), (0.012044764, -0.031809635, -0.099193126), (0.012044764, 0.012902799, -0.12405423), (0.012044764, -0.031809643, -0.049967498), (0.012044764, -0.029364318, -0.11162365), (0.012044764, -0.022683594, -0.12072344), (0.012044764, -0.013557552, -0.12405423), (0.012044764, 0.02202884, -0.1207235), (0.012044764, 0.028709568, -0.11162365), (0.012044764, 0.031154882, -0.09919306), (-0.010679728, -0.031809635, -0.049967498), (-0.06415367, -0.03180963, -0.049967498), (-0.010679728, -0.029364316, -0.09887486), (-0.06415367, -0.029364316, -0.09887486), (-0.010679728, -0.022683589, -0.10797464), (-0.06415367, -0.022683589, -0.10797464), (-0.010679728, -0.013557552, -0.111305445), (-0.06415367, -0.0135575505, -0.111305445), (-0.010679728, 0.022028834, -0.1079747), (-0.06415367, 0.022028832, -0.1079747), (-0.010679728, 0.028709564, -0.09887486), (-0.06415367, 0.028709562, -0.09887486), (-0.010679728, 0.031154873, -0.08644427), (-0.06415367, 0.031154871, -0.08644427), (-0.029725345, -0.02257704, 0.011941983), (-0.010679728, -0.02257704, 0.011941983), (-0.029725345, 0.03115488, 0.011941983), (-0.010679728, 0.03115488, 0.011941983), (-0.06415367, 0.03115488, -0.049967498), (-0.010679728, 0.03115488, -0.049967498), (-0.06415367, -0.03180963, -0.08644433), (-0.010679728, -0.03180963, -0.08644433), (-0.06415367, 0.012902794, -0.111305445), (-0.010679728, 0.012902794, -0.111305445), (-0.15898004, 0.031154882, -0.019012757), (-0.15898004, -0.031809643, -0.019012757), (0.06478929, -0.031809643, -0.019012757), (0.06478929, 0.031154882, -0.019012757), (-0.0868783, -0.031809635, -0.019012757), (-0.0868783, 0.031154882, -0.019012757), (0.012044764, 0.031154882, -0.019012757), (0.012044764, -0.031809643, -0.019012757), (-0.029725345, -0.03180963, -0.019012757), (-0.010679728, -0.031809635, -0.019012757), (-0.010679728, 0.03115488, -0.019012757), (-0.029725345, 0.03115488, -0.019012757), (0.08228776, -0.019557463, -0.12345068), (0.08228776, -0.019557472, -0.05993191), (0.082287624, 0.018500715, -0.12345068), (0.082287624, 0.01850071, -0.05993191), (0.082287624, -0.0005283727, -0.12345068), (0.07869877, -0.03382928, -0.12424615), (0.07869871, -0.019557461, -0.13115208), (0.08228776, -0.0005283806, -0.05993191), (0.07869877, -0.033829294, -0.05993191), (0.08228776, -0.019557463, -0.10304262), (0.08228776, -0.019557482, 0.039720766), (0.07869871, 0.03277253, -0.12424615), (0.07869871, 0.01850072, -0.13115208), (0.07869871, 0.032772526, -0.05993191), (0.082287624, 0.018500712, -0.10304262), (0.082287624, 0.018500706, 0.039720766), (0.07590742, -0.030129185, -0.13004757), (0.07869877, -0.033829298, 0.039720766), (0.07869877, -0.033829283, -0.10358264), (0.07869871, -0.0005283722, -0.13115202), (0.07590735, 0.029072432, -0.13004757), (0.08228776, -0.00052838615, 0.039720766), (0.082287624, -0.0005283751, -0.10304262), (0.07869871, 0.032772526, 0.039720766), (0.07869871, 0.032772526, -0.10358264), (0.072494395, -0.038586553, -0.12663276), (0.072494395, -0.019557463, -0.13614306), (0.072494395, -0.038586564, -0.05993191), (0.03811657, -0.019557463, -0.12345068), (0.03811657, -0.019557472, -0.05993191), (0.072494395, 0.037529808, -0.12663276), (0.072494395, 0.018500715, -0.136143), (0.072494395, 0.037529804, -0.05993191), (0.038116634, 0.018500715, -0.12345068), (0.038116634, 0.01850071, -0.05993191), (0.038116634, -0.0005283727, -0.12345068), (0.041705526, -0.03382928, -0.12424615), (0.04170559, -0.019557461, -0.13115208), (0.072494395, -0.03382928, -0.1337655), (0.072494395, -0.00052837294, -0.136143), (0.03811657, -0.0005283806, -0.05993191), (0.041705526, -0.033829294, -0.05993191), (0.072494395, -0.038586564, 0.039720766), (0.072494395, -0.038586557, -0.1052024), (0.03811657, -0.019557463, -0.10304262), (0.03811657, -0.019557482, 0.039720766), (0.04170559, 0.03277253, -0.12424615), (0.04170559, 0.01850072, -0.13115208), (0.072494395, 0.03277253, -0.1337655), (0.04170559, 0.032772526, -0.05993191), (0.072494395, 0.037529804, 0.039720766), (0.072494395, 0.037529804, -0.1052024), (0.038116634, 0.018500712, -0.10304262), (0.038116634, 0.018500706, 0.039720766), (0.04449685, -0.030129185, -0.13004757), (0.041705526, -0.033829298, 0.039720766), (0.041705526, -0.033829283, -0.10358264), (0.04170559, -0.0005283722, -0.13115202), (0.04449695, 0.029072432, -0.13004757), (0.03811657, -0.00052838615, 0.039720766), (0.038116634, -0.0005283751, -0.10304262), (0.04170559, 0.032772526, 0.039720766), (0.04170559, 0.032772526, -0.10358264), (0.046856143, -0.038586553, -0.12663276), (0.046856143, -0.019557463, -0.13614306), (0.046856143, -0.038586564, -0.05993191), (0.046856143, 0.037529808, -0.12663276), (0.046856143, 0.018500715, -0.136143), (0.046856143, 0.037529804, -0.05993191), (0.046856143, -0.03382928, -0.1337655), (0.046856143, -0.00052837294, -0.136143), (0.046856143, -0.038586564, 0.039720766), (0.046856143, -0.038586557, -0.1052024), (0.046856143, 0.03277253, -0.1337655), (0.046856143, 0.037529804, 0.039720766), (0.046856143, 0.037529804, -0.1052024)]
            uniform token subdivisionScheme = "none"
            uniform token subsetFamily:materialBind:familyType = "nonOverlapping"
            custom string userProperties:blender:data_name = "Cube.244"

            def GeomSubset "Black" (
                prepend apiSchemas = ["MaterialBindingAPI"]
            )
            {
                uniform token elementType = "face"
                uniform token familyName = "materialBind"
                int[] indices = [0, 1, 3, 4, 6, 7, 8, 9, 25, 37, 38, 39, 40, 41, 42, 43, 44, 45, 46, 47, 48, 49, 50, 62, 64, 66, 68, 70, 72, 74, 76, 78, 79, 113, 114, 115, 116, 117, 118, 119, 120, 121, 122, 123, 124, 126, 127, 128, 129, 130, 131, 132, 133, 158, 159, 160, 161, 162, 163, 164, 165, 166, 167, 168, 169, 170, 182, 184, 186, 188, 190, 192, 194, 196, 198, 199, 206, 207, 208, 209, 210, 211, 212, 213, 214, 215, 284, 295]
                rel material:binding = </root/_materials/Black>
            }

            def GeomSubset "Grey" (
                prepend apiSchemas = ["MaterialBindingAPI"]
            )
            {
                uniform token elementType = "face"
                uniform token familyName = "materialBind"
                int[] indices = [86, 87, 88, 89, 90, 91, 92, 93, 94, 95, 96, 97, 98, 99, 100, 101, 102, 103, 104, 105, 106, 107, 108, 109, 110, 111, 112, 134, 135, 136, 137, 138, 139, 140, 141, 142, 143, 144, 145, 146, 147, 148, 149, 216, 217, 218, 219, 220, 221, 222, 223, 224, 225, 226, 227, 228, 229, 230, 231, 232, 233, 234, 235, 236, 237, 238, 239, 240, 241, 242, 243, 244, 245, 246, 247, 248, 249, 250, 251, 252, 253, 254, 255, 256, 257, 258, 259, 260, 261, 262, 263, 264, 265, 266, 267, 268, 269, 270, 271, 272, 273, 274, 275, 276, 277, 278, 279, 280, 281, 282, 283, 285, 286, 287, 288, 289, 290, 291, 292, 293, 294, 298, 299, 300, 301]
                rel material:binding = </root/_materials/Grey>
            }

            def GeomSubset "White" (
                prepend apiSchemas = ["MaterialBindingAPI"]
            )
            {
                uniform token elementType = "face"
                uniform token familyName = "materialBind"
                int[] indices = [2, 5, 10, 11, 12, 13, 14, 15, 16, 17, 18, 19, 20, 21, 22, 23, 24, 26, 27, 28, 29, 30, 31, 32, 33, 34, 35, 36, 51, 52, 53, 54, 55, 56, 57, 58, 59, 60, 61, 63, 65, 67, 69, 71, 73, 75, 77, 80, 81, 82, 83, 84, 85, 125, 150, 151, 152, 153, 154, 155, 156, 157, 171, 172, 173, 174, 175, 176, 177, 178, 179, 180, 181, 183, 185, 187, 189, 191, 193, 195, 197, 200, 201, 202, 203, 204, 205, 296, 297]
                rel material:binding = </root/_materials/White>
            }
        }
    }

    def Scope "_materials"
    {
        def Material "Black"
        {
            token outputs:surface.connect = </root/_materials/Black/Principled_BSDF.outputs:surface>
            custom string userProperties:blender:data_name = "Black"

            def Shader "Principled_BSDF"
            {
                uniform token info:id = "UsdPreviewSurface"
                float inputs:clearcoat = 0
                float inputs:clearcoatRoughness = 0.03
                color3f inputs:diffuseColor = (0.029098269, 0.029098269, 0.029098269)
                float inputs:ior = 1.5
                float inputs:metallic = 0
                float inputs:opacity = 1
                float inputs:roughness = 0.6900348
                float inputs:specular = 0.5
                token outputs:surface
            }
        }

        def Material "Grey"
        {
            token outputs:surface.connect = </root/_materials/Grey/Principled_BSDF.outputs:surface>
            custom string userProperties:blender:data_name = "Grey"

            def Shader "Principled_BSDF"
            {
                uniform token info:id = "UsdPreviewSurface"
                float inputs:clearcoat = 0
                float inputs:clearcoatRoughness = 0.03
                color3f inputs:diffuseColor = (0.10247143, 0.10247143, 0.10247143)
                float inputs:ior = 1.5
                float inputs:metallic = 0
                float inputs:opacity = 1
                float inputs:roughness = 0.6900348
                float inputs:specular = 0.5
                token outputs:surface
            }
        }

        def Material "White"
        {
            token outputs:surface.connect = </root/_materials/White/Principled_BSDF.outputs:surface>
            custom string userProperties:blender:data_name = "White"

            def Shader "Principled_BSDF"
            {
                uniform token info:id = "UsdPreviewSurface"
                float inputs:clearcoat = 0
                float inputs:clearcoatRoughness = 0.03
                color3f inputs:diffuseColor = (0.45752734, 0.45752734, 0.45752734)
                float inputs:ior = 1.5
                float inputs:metallic = 0
                float inputs:opacity = 1
                float inputs:roughness = 0.6900348
                float inputs:specular = 0.5
                token outputs:surface
            }
        }
    }
}

