#usda 1.0
(
    defaultPrim = "root"
    doc = "Blender v5.1.2"
    metersPerUnit = 1
    upAxis = "Y"
)

def Xform "root" (
    customData = {
        dictionary Blender = {
            bool generated = 1
        }
    }
)
{
    float3 xformOp:rotateXYZ = (-90, -0, 0)
    uniform token[] xformOpOrder = ["xformOp:rotateXYZ"]

    def Xform "Brick_HalfColumn_Bottom"
    {
        custom string userProperties:blender:object_name = "Brick_HalfColumn_Bottom"

        def Mesh "Cube_002" (
            active = true
            prepend apiSchemas = ["MaterialBindingAPI"]
        )
        {
            uniform bool doubleSided = 1
            float3[] extent = [(-0.55442494, -0.23556194, -3.073063e-9), (0.55442494, 0.040704187, 2.9999993)]
            int[] faceVertexCounts = [4, 4, 4, 4, 4, 4, 4, 4, 4, 4, 4, 4, 4, 4, 4, 4, 4, 4, 4, 4, 4, 4, 4, 4, 4, 4, 4, 4, 4, 4, 4, 4, 4, 4, 4, 4, 4, 4, 4, 4, 4, 4]
            int[] faceVertexIndices = [31, 28, 44, 47, 10, 38, 40, 4, 12, 10, 4, 8, 49, 48, 18, 23, 24, 20, 10, 12, 9, 11, 6, 0, 11, 12, 8, 6, 51, 49, 23, 25, 37, 47, 44, 34, 50, 51, 25, 21, 54, 50, 21, 19, 3, 2, 39, 14, 7, 3, 14, 16, 1, 5, 15, 13, 5, 7, 16, 15, 25, 23, 15, 16, 39, 35, 36, 19, 21, 25, 16, 14, 45, 46, 36, 35, 22, 24, 12, 11, 37, 34, 38, 41, 44, 42, 32, 34, 55, 52, 31, 47, 53, 37, 41, 54, 39, 19, 21, 14, 45, 29, 30, 46, 43, 45, 35, 33, 20, 41, 38, 10, 34, 32, 40, 38, 33, 35, 39, 2, 27, 29, 45, 43, 23, 18, 13, 15, 53, 55, 47, 37, 28, 26, 42, 44, 22, 11, 9, 17, 36, 46, 55, 53, 36, 53, 54, 19, 46, 30, 52, 55, 41, 20, 50, 54, 20, 24, 51, 50, 24, 22, 49, 51, 22, 17, 48, 49]
            rel material:binding = </root/_materials/MI_RedBrick>
            normal3f[] normals = [(-0.8160696, -0.57795364, 4.6224486e-8), (-0.8160696, -0.57795364, 4.6224486e-8), (-0.81606954, -0.5779537, 4.333545e-8), (-0.81606954, -0.5779537, 4.333545e-8), (-0.7233085, 0, 0.69052494), (-0.7233085, 0, 0.69052494), (-0.7233085, 0, 0.69052494), (-0.7233085, 0, 0.69052494), (-1, 0, 0), (-1, 0, 0), (-1, 0, 0), (-1, 0, 0), (-1.665383e-8, -1, 1.10779276e-7), (-1.665383e-8, -1, 1.10779276e-7), (0, -1, 5.162197e-8), (0, -1, 5.162197e-8), (-0.8469513, -0.53167033, -0.00014137801), (-0.8469513, -0.53167033, -0.00014137801), (-0.8469513, -0.53167033, -0.00014137801), (-0.8469513, -0.53167033, -0.00014137801), (-1, 3.9000736e-7, 0), (-1, 3.9000736e-7, 0), (-1, 3.9000736e-7, 0), (-1, 3.9000736e-7, 0), (-0.7487807, 0, 0.66281784), (-0.7487807, 0, 0.66281784), (-0.7487807, 0, 0.66281784), (-0.7487807, 0, 0.66281784), (-3.020714e-8, -0.8957739, 0.44450998), (-3.020714e-8, -0.8957739, 0.44450998), (-2.0138094e-8, -0.8957738, 0.44451), (-2.0138094e-8, -0.8957738, 0.44451), (-0.8160695, -0.57795376, 4.333545e-8), (-0.81606954, -0.5779537, 4.333545e-8), (-0.81606954, -0.5779537, 4.333545e-8), (-0.8160695, -0.57795376, 4.333545e-8), (-3.627995e-8, -1, 4.3327045e-8), (-3.627995e-8, -1, 4.3327045e-8), (-3.627995e-8, -1, 7.326223e-8), (-3.627995e-8, -1, 7.326223e-8), (-0.00043758407, -0.7770817, 0.6293995), (-0.00043756692, -0.7771018, 0.62937474), (-0.00043600926, -0.7789109, 0.6271344), (-0.00043600926, -0.7789109, 0.6271344), (0.7269878, -0.0043179705, 0.68663675), (0.7269878, -0.0043179705, 0.68663675), (0.7269878, -0.0043179705, 0.68663675), (0.7269878, -0.0043179705, 0.68663675), (1, 0, 0), (1, 0, 0), (1, 0, 0), (1, 0, 0), (1, 3.900073e-7, 0), (1, 3.900073e-7, 0), (1, 3.900073e-7, 0), (1, 3.900073e-7, 0), (0.7487807, 0, 0.66281784), (0.7487807, 0, 0.66281784), (0.7487807, 0, 0.66281784), (0.7487807, 0, 0.66281784), (0.645498, -0.39545327, 0.65341336), (0.645498, -0.39545327, 0.65341336), (0.645498, -0.39545327, 0.65341336), (0.645498, -0.39545327, 0.65341336), (0.8143945, -0.5803109, -0.0009320701), (0.81523293, -0.579133, -0.0004660153), (0.81523263, -0.5791335, -0.00046621152), (0.8143945, -0.5803109, -0.0009320701), (0.84695137, -0.5316703, -0.00014144872), (0.84695137, -0.5316703, -0.00014144872), (0.84695137, -0.5316703, -0.00014144872), (0.84695137, -0.5316703, -0.00014144872), (0.8160696, -0.5779537, 4.3335454e-8), (0.8160696, -0.5779537, 4.3335454e-8), (0.81523263, -0.5791335, -0.00046621152), (0.81523293, -0.579133, -0.0004660153), (-0.6454979, -0.39545304, 0.6534136), (-0.6454979, -0.39545304, 0.6534136), (-0.6454979, -0.39545304, 0.6534136), (-0.6454979, -0.39545304, 0.6534136), (-0.8160695, -0.57795376, 4.333545e-8), (-0.8160695, -0.57795376, 4.333545e-8), (-0.81606954, -0.5779538, 4.6224486e-8), (-0.81606954, -0.5779538, 4.6224486e-8), (-1, 0, 0), (-1, 0, 0), (-1, 0, 0), (-1, 0, 0), (0, -1, 6.990935e-8), (0, -1, 5.99223e-8), (0, -1, 5.99223e-8), (0, -1, 6.990934e-8), (-2.1794165e-11, -1, 5.995943e-8), (-2.1782265e-11, -1, 5.994851e-8), (-4.356453e-11, -1, 4.0000632e-8), (-4.3588272e-11, -1, 4.002243e-8), (0.58659345, -0.3890463, 0.7103176), (0.58659345, -0.3890463, 0.7103176), (0.58659345, -0.3890463, 0.7103176), (0.58659345, -0.3890463, 0.7103176), (0.8160696, -0.5779537, 4.3335454e-8), (0.8160696, -0.57795364, 4.6224486e-8), (0.8160696, -0.57795364, 4.6224486e-8), (0.8160696, -0.5779537, 4.3335454e-8), (1, 0, 0), (1, 0, 0), (1, -4.3500048e-8, 0), (1, -4.350004e-8, 0), (-0.5859879, -0.38899723, 0.7108441), (-0.5859879, -0.38899723, 0.7108441), (-0.5859879, -0.38899723, 0.7108441), (-0.5859879, -0.38899723, 0.7108441), (-1, 0, 0), (-1, 0, 0), (-1, 0, 0), (-1, 0, 0), (1, -4.350004e-8, 0), (1, -4.3500048e-8, 0), (1, -8.700009e-8, 0), (1, -8.700009e-8, 0), (1, 0, 0), (1, 0, 0), (1, 0, 0), (1, 0, 0), (0.8579867, -0.513672, 0.00011706194), (0.8579867, -0.513672, 0.00011706194), (0.8579867, -0.513672, 0.00011706194), (0.8579867, -0.513672, 0.00011706194), (-2.1794165e-11, -1, 5.995943e-8), (0, -1, 6.990935e-8), (0, -1, 6.990934e-8), (-2.1782265e-11, -1, 5.994851e-8), (-1, 0, 0), (-1, 0, 0), (-1, 0, 0), (-1, 0, 0), (-0.85798675, -0.5136719, 0.000117016345), (-0.85798675, -0.5136719, 0.000117016345), (-0.85798675, -0.5136719, 0.000117016345), (-0.85798675, -0.5136719, 0.000117016345), (-2.179015e-11, -1, 5.998487e-8), (0, -1, 6.990934e-8), (0, -1, 6.990935e-8), (-2.1794165e-11, -1, 5.995943e-8), (-2.179015e-11, -1, 5.998487e-8), (-2.1794165e-11, -1, 5.995943e-8), (-4.3588272e-11, -1, 4.002243e-8), (-4.3612093e-11, -1, 4.0044302e-8), (0, -1, 6.990934e-8), (0, -1, 5.99223e-8), (0, -1, 5.99223e-8), (0, -1, 6.990935e-8), (-0.00043913917, -0.7752648, 0.6316362), (-0.00043913917, -0.7752648, 0.6316362), (-0.00043756692, -0.7771018, 0.62937474), (-0.00043758407, -0.7770817, 0.6293995), (-3.627995e-8, -1, 1.3391862e-8), (-3.627995e-8, -1, 1.3391862e-8), (-3.627995e-8, -1, 4.3327045e-8), (-3.627995e-8, -1, 4.3327045e-8), (-4.0276188e-8, -0.895774, 0.44450992), (-4.0276188e-8, -0.895774, 0.44450992), (-3.020714e-8, -0.8957739, 0.44450998), (-3.020714e-8, -0.8957739, 0.44450998), (-3.330766e-8, -1, 1.6993657e-7), (-3.330766e-8, -1, 1.6993657e-7), (-1.665383e-8, -1, 1.10779276e-7), (-1.665383e-8, -1, 1.10779276e-7)] (
                interpolation = "faceVarying"
            )
            point3f[] points = [(-0.55442494, 0.040703952, -3.073063e-9), (0.55442494, 0.040703952, -3.073063e-9), (0.46616828, 0.04070399, 0.50108904), (0.5116874, 0.040703986, 0.45231968), (-0.5116874, 0.040703986, 0.45231968), (0.55442494, 0.040703967, 0.1960006), (-0.55442494, 0.040703967, 0.1960006), (0.5116874, 0.04070397, 0.2442809), (-0.5116874, 0.04070397, 0.2442809), (-0.55442494, -0.056763567, 4.28553e-9), (-0.5116874, -0.050773997, 0.45231968), (-0.55442494, -0.056763552, 0.1960006), (-0.5116874, -0.05077401, 0.2442809), (0.55442494, -0.05676357, 4.28553e-9), (0.5116874, -0.050774004, 0.45231968), (0.55442494, -0.056763556, 0.1960006), (0.5116874, -0.05077402, 0.2442809), (-0.4474061, -0.23556192, 1.778443e-8), (0.44740608, -0.23556194, 1.7784432e-8), (0.37186888, -0.17254569, 0.50108904), (-0.4107619, -0.21160375, 0.4523197), (0.4107619, -0.21160378, 0.4523197), (-0.44735268, -0.2355619, 0.19600056), (0.44735262, -0.23556192, 0.19600056), (-0.41069242, -0.21160376, 0.24428087), (0.4106924, -0.21160379, 0.24428087), (-0.46616828, 0.040704187, 2.9999993), (0.46616828, 0.040704187, 2.9999993), (-0.46616828, -0.041009292, 2.9999993), (0.46616828, -0.041009292, 2.9999993), (0.37301219, -0.17254551, 2.9999993), (-0.37301219, -0.17254551, 2.9999993), (-0.46616828, 0.040704027, 0.9999998), (0.46616828, 0.040704027, 0.9999998), (-0.46616828, -0.041009445, 0.9999998), (0.46616828, -0.041009445, 0.9999998), (0.37301219, -0.17254566, 0.9999998), (-0.37301219, -0.17254566, 0.9999998), (-0.46616828, -0.041009482, 0.4999999), (0.46616828, -0.041009482, 0.4999999), (-0.46616828, 0.04070399, 0.4999999), (-0.37301219, -0.17254569, 0.4999999), (-0.46616828, 0.040704112, 1.9999996), (0.46616828, 0.040704105, 1.9999996), (-0.46616828, -0.041009367, 1.9999996), (0.46616828, -0.041009367, 1.9999996), (0.37301219, -0.17254558, 1.9999996), (-0.37301219, -0.17254558, 1.9999996), (0, -0.23556194, 1.7784432e-8), (0, -0.23556192, 0.19600056), (-2.9802322e-8, -0.21160376, 0.4523197), (0, -0.21160378, 0.24428087), (0, -0.17254551, 2.9999993), (0, -0.17254566, 0.9999998), (-0.00057166815, -0.17254569, 0.5005445), (0, -0.17254558, 1.9999996)]
            texCoord2f[] primvars:st = [(1.0521455, 0.9048232), (-0.06854141, 0.90482336), (0.99989307, 0.2019479), (0.7364158, -0.24984992), (0.99989307, 0.1568368), (0.99989307, 0.19492272), (0.0012882352, 0.15683685), (0.0012882352, 0.19492278), (-0.06854129, 0.8015512), (1.0521455, 0.8015511), (0.99989307, 0.057557523), (-0.06854141, 0.76780015), (0.0012882352, 0.057557583), (1.0521455, 0.76780003), (0.9809422, 0.9048232), (0.064735025, 0.19492278), (0.064735025, 0.15683685), (0.98094213, 0.8015511), (0.064735025, 0.057557553), (0.98094213, 0.76780003), (0.0026617646, 0.90482336), (0.9364462, 0.19492272), (0.9364462, 0.1568368), (0.0026618838, 0.8015512), (0.0026617646, 0.76780015), (0.9364462, 0.057557523), (0.81742406, 0.9048232), (0.16617978, 0.9048233), (0.7874117, 0.2019479), (0.612275, -0.24984992), (0.21195522, 0.15683684), (0.21195522, 0.19492278), (0.78922594, 0.19492272), (0.78922594, 0.1568368), (0.8173852, 0.8015511), (0.16621868, 0.8015512), (0.21200404, 0.057557553), (0.81566906, 0.7678001), (0.16793483, 0.7678001), (0.7891771, 0.057557523), (0.114571206, 1), (0.7364158, 1), (0.15548828, 1), (0.6954988, 1), (0.61227494, 1.0000001), (0.23871213, 1), (0.114571296, 0.000519166), (0.7364158, 0.0005191064), (0.15548834, 0.0005191064), (0.6954988, 0.0005191064), (0.61227494, 0.0005191064), (0.2387122, 0.000519166), (0.064735025, 0.20194796), (0.15548833, -0.24984987), (0.9364462, 0.2019479), (0.6954988, -0.24984993), (0.0012882352, 0.20194796), (0.11457128, -0.24984983), (0.23871219, -0.24984983), (0.21376942, 0.20194796), (0.11457126, 0.5002596), (0.7364158, 0.5002596), (0.15548831, 0.5002596), (0.6954988, 0.50025964), (0.6122749, 0.50025964), (0.23871216, 0.5002595), (0.49180192, 0.90482324), (0.49180198, 0.80155116), (0.50059056, 0.15683681), (0.50059056, 0.19492275), (0.50059056, 0.05755754), (0.49180198, 0.7678001), (0.42549354, 1), (0.42549357, 0.00051913614), (0.4254936, -0.24984987), (0.50059056, 0.20194793), (0.42549354, 0.50025964)] (
                interpolation = "faceVarying"
            )
            int[] primvars:st:indices = [45, 42, 62, 65, 16, 52, 56, 6, 18, 15, 7, 12, 67, 66, 27, 35, 36, 31, 15, 18, 14, 17, 9, 0, 17, 19, 13, 9, 71, 67, 35, 38, 51, 65, 62, 48, 69, 70, 39, 32, 75, 68, 33, 28, 4, 2, 54, 22, 10, 5, 21, 25, 1, 8, 23, 20, 8, 11, 24, 23, 38, 35, 23, 24, 55, 49, 50, 29, 32, 39, 25, 21, 63, 64, 50, 49, 34, 37, 19, 17, 51, 48, 53, 58, 62, 60, 46, 48, 76, 72, 45, 65, 73, 51, 58, 74, 54, 28, 33, 22, 63, 43, 44, 64, 61, 63, 49, 47, 30, 59, 52, 16, 48, 46, 57, 53, 47, 49, 55, 3, 41, 43, 63, 61, 35, 27, 20, 23, 73, 76, 65, 51, 42, 40, 60, 62, 34, 17, 14, 26, 50, 64, 76, 73, 50, 73, 74, 29, 64, 44, 72, 76, 59, 30, 68, 75, 31, 36, 70, 69, 37, 34, 67, 71, 34, 26, 66, 67]
            texCoord2f[] primvars:UVMap_1 = [(0.49180204, 0.46214747), (0.49180204, 0.46214747), (0.49180204, 0.46214747), (0.3333605, 0.07703596), (0.49180204, 0.46214747), (0.49180204, 0.46214747), (0.49180204, 0.46214747), (0.49180204, 0.46214747), (0.49180204, 0.46214747), (0.49180204, 0.46214747), (0.49180204, 0.46214747), (0.49180204, 0.46214747), (0.49180204, 0.46214747), (0.49180204, 0.46214747), (0.49180204, 0.46214747), (0.49180204, 0.46214747), (0.49180204, 0.46214747), (0.49180204, 0.46214747), (0.49180204, 0.46214747), (0.49180204, 0.46214747), (0.79935795, 0.07703596), (0.49180204, 0.46214747), (0.97615916, 0.07703596), (0.49180204, 0.46214747), (0.49180204, 0.46214747), (0.49180204, 0.46214747), (0.49180204, 0.46214747), (0.49180204, 0.46214747), (0.49180204, 0.46214747), (0.0036165565, 0.92333287), (0.83270925, 0.92333287), (0.2242829, 0.9123785), (0.0036165565, 0.92333287), (0.83270925, 0.92333287), (0.7997624, 0.92333287), (0.97667164, 0.92333287), (0.2563773, 0.9123785), (0.01753819, 0.92333287), (0.0036165565, 0.24600023), (0.83270925, 0.24600023), (0.3333605, 0.24600023), (0.2242829, 0.25257286), (0.0036165565, 0.24600023), (0.83270925, 0.24600023), (0.3333605, 0.24600023), (0.7997624, 0.24600023), (0.97667164, 0.24600023), (0.2563773, 0.25257286), (0.01753819, 0.24600023), (0.2242829, 0.08762151), (0.49180204, 0.46214747), (0.0036165565, 0.07666713), (0.83270925, 0.07666713), (0.49180204, 0.46214747), (0.3333605, 0.07666713), (0.49180204, 0.46214747), (0.0036165565, 0.07666713), (0.2563773, 0.08762151), (0.01753819, 0.07666713), (0.49180204, 0.46214747), (0.0036165565, 0.5846664), (0.83270925, 0.5846664), (0.2242829, 0.5824755), (0.0036165565, 0.5846664), (0.83270925, 0.5846664), (0.7997624, 0.5846664), (0.97667164, 0.5846664), (0.2563773, 0.5824755), (0.01753819, 0.5846664), (0.49180204, 0.46214747), (0.49180204, 0.46214747), (0.49180204, 0.46214747), (0.49180204, 0.46214747), (0.18468055, 0.92333287), (0.80952924, 0.92333287), (0.18468055, 0.24600023), (0.80952924, 0.24600023), (0.18442434, 0.07685155), (0.809273, 0.07685155), (0.49180204, 0.46214747), (0.18468055, 0.58466643), (0.80952924, 0.58466643)] (
                interpolation = "faceVarying"
            )
            int[] primvars:UVMap_1:indices = [36, 31, 62, 67, 11, 50, 55, 5, 13, 11, 5, 9, 70, 69, 19, 26, 27, 23, 11, 13, 10, 12, 7, 0, 12, 13, 9, 7, 72, 70, 26, 28, 47, 67, 62, 41, 71, 72, 28, 24, 79, 71, 24, 21, 4, 2, 53, 15, 8, 4, 15, 17, 1, 6, 16, 14, 6, 8, 17, 16, 28, 26, 16, 17, 52, 43, 45, 20, 24, 28, 17, 15, 64, 65, 45, 43, 25, 27, 13, 12, 47, 41, 49, 57, 63, 60, 38, 42, 80, 73, 37, 68, 75, 48, 58, 77, 53, 21, 24, 15, 64, 33, 34, 65, 61, 64, 43, 39, 23, 59, 50, 11, 42, 38, 56, 51, 40, 44, 54, 3, 30, 33, 64, 61, 26, 19, 14, 16, 75, 80, 68, 48, 32, 29, 60, 63, 25, 12, 10, 18, 46, 66, 81, 76, 46, 76, 78, 22, 66, 35, 74, 81, 59, 23, 71, 79, 23, 27, 72, 71, 27, 25, 70, 72, 25, 18, 69, 70]
            uniform token subdivisionScheme = "none"
            uniform token subsetFamily:materialBind:familyType = "nonOverlapping"
            custom string userProperties:blender:data_name = "Cube.002"

            def GeomSubset "MI_RedBrick" (
                prepend apiSchemas = ["MaterialBindingAPI"]
            )
            {
                uniform token elementType = "face"
                uniform token familyName = "materialBind"
                int[] indices = [0, 8, 16, 18, 20, 21, 22, 23, 25, 26, 28, 29, 30, 32, 33, 35, 36, 37]
                rel material:binding = </root/_materials/MI_RedBrick>
            }

            def GeomSubset "MI_Trim" (
                prepend apiSchemas = ["MaterialBindingAPI"]
            )
            {
                uniform token elementType = "face"
                uniform token familyName = "materialBind"
                int[] indices = [1, 2, 3, 4, 5, 6, 7, 9, 10, 11, 12, 13, 14, 15, 17, 19, 24, 27, 31, 34, 38, 39, 40, 41]
                rel material:binding = </root/_materials/MI_Trim>
            }
        }
    }

    def Scope "_materials"
    {
        def Material "MI_RedBrick"
        {
            token outputs:surface.connect = </root/_materials/MI_RedBrick/Principled_BSDF.outputs:surface>
            custom string userProperties:blender:data_name = "MI_RedBrick"

            def Shader "Principled_BSDF"
            {
                uniform token info:id = "UsdPreviewSurface"
                float inputs:clearcoat = 0
                float inputs:clearcoatRoughness = 0.03
                color3f inputs:diffuseColor.connect = </root/_materials/MI_RedBrick/Image_Texture.outputs:rgb>
                float inputs:ior = 1.5
                float inputs:metallic = 0
                normal3f inputs:normal.connect = </root/_materials/MI_RedBrick/Image_Texture_001.outputs:rgb>
                float inputs:opacity = 1
                float inputs:roughness = 0.5
                float inputs:specular = 0.5
                token outputs:surface
            }

            def Shader "Image_Texture"
            {
                uniform token info:id = "UsdUVTexture"
                asset inputs:file = @./textures/T_RedBrick_D.png@
                token inputs:sourceColorSpace = "sRGB"
                float2 inputs:st.connect = </root/_materials/MI_RedBrick/uvmap.outputs:result>
                token inputs:wrapS = "repeat"
                token inputs:wrapT = "repeat"
                float3 outputs:rgb
            }

            def Shader "uvmap"
            {
                uniform token info:id = "UsdPrimvarReader_float2"
                string inputs:varname = "st"
                float2 outputs:result
            }

            def Shader "Image_Texture_001"
            {
                uniform token info:id = "UsdUVTexture"
                float4 inputs:bias = (-1, -1, -1, -1)
                asset inputs:file = @./textures/T_RedBrick_N.png@
                float4 inputs:scale = (2, 2, 2, 2)
                token inputs:sourceColorSpace = "raw"
                float2 inputs:st.connect = </root/_materials/MI_RedBrick/uvmap.outputs:result>
                token inputs:wrapS = "repeat"
                token inputs:wrapT = "repeat"
                float3 outputs:rgb
            }
        }

        def Material "MI_Trim"
        {
            token outputs:surface.connect = </root/_materials/MI_Trim/Principled_BSDF.outputs:surface>
            custom string userProperties:blender:data_name = "MI_Trim"

            def Shader "Principled_BSDF"
            {
                uniform token info:id = "UsdPreviewSurface"
                float inputs:clearcoat = 0
                float inputs:clearcoatRoughness = 0.03
                color3f inputs:diffuseColor.connect = </root/_materials/MI_Trim/Image_Texture.outputs:rgb>
                float inputs:ior = 1.5
                float inputs:metallic = 0
                normal3f inputs:normal.connect = </root/_materials/MI_Trim/Image_Texture_001.outputs:rgb>
                float inputs:opacity = 1
                float inputs:roughness = 0.5
                float inputs:specular = 0.5
                token outputs:surface
            }

            def Shader "Image_Texture"
            {
                uniform token info:id = "UsdUVTexture"
                asset inputs:file = @./textures/T_Trim_D.png@
                token inputs:sourceColorSpace = "sRGB"
                float2 inputs:st.connect = </root/_materials/MI_Trim/uvmap.outputs:result>
                token inputs:wrapS = "repeat"
                token inputs:wrapT = "repeat"
                float3 outputs:rgb
            }

            def Shader "uvmap"
            {
                uniform token info:id = "UsdPrimvarReader_float2"
                string inputs:varname = "st"
                float2 outputs:result
            }

            def Shader "Image_Texture_001"
            {
                uniform token info:id = "UsdUVTexture"
                float4 inputs:bias = (-1, -1, -1, -1)
                asset inputs:file = @./textures/T_Trim_N.png@
                float4 inputs:scale = (2, 2, 2, 2)
                token inputs:sourceColorSpace = "raw"
                float2 inputs:st.connect = </root/_materials/MI_Trim/uvmap.outputs:result>
                token inputs:wrapS = "repeat"
                token inputs:wrapT = "repeat"
                float3 outputs:rgb
            }
        }
    }
}

