#usda 1.0
(
    defaultPrim = "root"
    doc = "Blender v5.1.2"
    metersPerUnit = 1
    upAxis = "Y"
)

def Xform "root" (
    customData = {
        dictionary Blender = {
            bool generated = 1
        }
    }
)
{
    float3 xformOp:rotateXYZ = (-90, -0, 0)
    uniform token[] xformOpOrder = ["xformOp:rotateXYZ"]

    def Xform "Brick_CornerColumn_Center_Half"
    {
        custom string userProperties:blender:object_name = "Brick_CornerColumn_Center_Half"

        def Mesh "Cube_002" (
            active = true
            prepend apiSchemas = ["MaterialBindingAPI"]
        )
        {
            uniform bool doubleSided = 1
            float3[] extent = [(-0.17000039, -0.17000024, -3.782932e-8), (0.96999997, 0.97, 1.9994715)]
            int[] faceVertexCounts = [4, 4, 4, 4, 4, 4, 4, 4, 4, 4, 4, 4, 4, 4, 4, 4]
            int[] faceVertexIndices = [9, 15, 4, 1, 15, 16, 7, 4, 12, 6, 7, 16, 10, 17, 8, 2, 2, 8, 13, 3, 0, 14, 11, 5, 11, 17, 10, 5, 12, 14, 0, 6, 25, 22, 17, 11, 18, 25, 11, 14, 23, 19, 13, 8, 22, 23, 8, 17, 16, 21, 26, 12, 15, 20, 21, 16, 9, 24, 20, 15, 12, 26, 18, 14]
            rel material:binding = </root/_materials/MI_RedBrick_Pale>
            normal3f[] normals = [(1, -2.1695524e-8, 1.5648588e-7), (1, -2.1695518e-8, 1.5648587e-7), (0.99999994, -4.339104e-8, 1.7893217e-7), (0.99999994, -4.339104e-8, 1.7893217e-7), (-2.6609212e-7, -1, -5.8369302e-8), (-1.6805816e-7, -1, -5.7219054e-8), (-1.6105577e-7, -1, -7.567634e-9), (-2.520873e-7, -1, 0), (-6.769011e-8, -1, -6.707852e-8), (-7.858278e-8, -1, -3.209233e-8), (-1.6105577e-7, -1, -7.567634e-9), (-1.6805816e-7, -1, -5.7219054e-8), (-1, 2.772944e-8, -1.0624099e-7), (-1, 2.4362807e-8, -1.5365018e-7), (-1, -2.0996179e-8, -1.5365018e-7), (-1, 0, -1.0624101e-7), (1.753077e-7, 1, 1.2293602e-7), (8.765384e-8, 1, 1.2717365e-7), (8.7653866e-8, 1, 1.2717365e-7), (1.753077e-7, 1, 1.2293602e-7), (-1, 0, -1.06240996e-7), (-1, -3.2660715e-8, -1.5365018e-7), (-1, 1.853054e-8, -1.5365019e-7), (-1, 2.772944e-8, -1.0624099e-7), (-1, 1.853054e-8, -1.5365019e-7), (-1, 2.4362807e-8, -1.5365018e-7), (-1, 2.772944e-8, -1.0624099e-7), (-1, 2.772944e-8, -1.0624099e-7), (-6.769011e-8, -1, -6.707852e-8), (-6.535598e-8, -1, -7.8088256e-8), (-8.7141295e-8, -0.99999994, -4.904939e-8), (-7.858278e-8, -1, -3.209233e-8), (-1, 9.331633e-9, -2.010594e-7), (-1, 2.0996179e-8, -2.010594e-7), (-1, 2.4362807e-8, -1.5365018e-7), (-1, 1.853054e-8, -1.5365019e-7), (-1, -6.532143e-8, -2.0105936e-7), (-1, 9.331633e-9, -2.010594e-7), (-1, 1.853054e-8, -1.5365019e-7), (-1, -3.2660715e-8, -1.5365018e-7), (0, 1, 1.314113e-7), (0, 1, 1.314113e-7), (8.7653866e-8, 1, 1.2717365e-7), (8.765384e-8, 1, 1.2717365e-7), (-1, 2.0996179e-8, -2.010594e-7), (-0.99999994, -4.1992358e-8, -2.0105934e-7), (-1, -2.0996179e-8, -1.5365018e-7), (-1, 2.4362807e-8, -1.5365018e-7), (-1.6805816e-7, -1, -5.7219054e-8), (-1.7506055e-7, -1, -1.0687046e-7), (-5.6797433e-8, -1, -1.0206471e-7), (-6.769011e-8, -1, -6.707852e-8), (-2.6609212e-7, -1, -5.8369302e-8), (-2.8009688e-7, -0.99999994, -1.1673861e-7), (-1.7506055e-7, -1, -1.0687046e-7), (-1.6805816e-7, -1, -5.7219054e-8), (1, -2.1695524e-8, 1.5648588e-7), (1, 0, 1.3403954e-7), (1, 0, 1.3403954e-7), (1, -2.1695518e-8, 1.5648587e-7), (-6.769011e-8, -1, -6.707852e-8), (-5.6797433e-8, -1, -1.0206471e-7), (-4.3570658e-8, -1, -1.0712711e-7), (-6.535598e-8, -1, -7.8088256e-8)] (
                interpolation = "faceVarying"
            )
            point3f[] points = [(-0.1700001, -0.16999997, -3.782932e-8), (0.96999997, 1.7204588e-8, 1.5803306e-7), (-0.17000006, 0.97, 3.011997e-8), (4.2400046e-8, 0.96999997, 5.78165e-8), (0.96999997, -0.17000014, 1.4790027e-7), (-0.17000009, 0.17200007, -1.7444531e-8), (0.17199995, -0.17000002, 1.788956e-8), (0.704, -0.17000008, 1.0456336e-7), (-0.17000021, 0.9699999, 1.3324522), (0.96999973, -6.221573e-8, 1.3324523), (-0.17000008, 0.70400006, 1.4265137e-8), (-0.17000024, 0.17199996, 1.3324522), (0.17199974, -0.17000006, 1.3324522), (-1.7468398e-7, 0.9699999, 1.3324522), (-0.17000024, -0.17000005, 1.3324522), (0.96999973, -0.17000015, 1.3324523), (0.70399976, -0.17000008, 1.3324523), (-0.17000021, 0.704, 1.3324522), (-0.17000036, -0.17000009, 1.9994714), (-2.833552e-7, 0.96999985, 1.9994714), (0.9699996, -0.17000024, 1.9994715), (0.70399964, -0.17000017, 1.9994715), (-0.17000033, 0.70399994, 1.9994714), (-0.17000036, 0.96999985, 1.9994714), (0.9699997, -1.0197316e-7, 1.9994715), (-0.17000039, 0.17199992, 1.9994714), (0.17199963, -0.1700001, 1.9994714)]
            color4f[] primvars:Attribute = [(1, 1, 1, 1), (1, 1, 1, 1), (1, 1, 1, 1), (1, 1, 1, 1), (1, 1, 1, 1), (1, 1, 1, 1), (1, 1, 1, 1), (1, 1, 1, 1), (1, 1, 1, 1), (1, 1, 1, 1), (1, 1, 1, 1), (1, 1, 1, 1), (1, 1, 1, 1), (1, 1, 1, 1), (1, 1, 1, 1), (1, 1, 1, 1), (1, 1, 1, 1), (1, 1, 1, 1), (1, 1, 1, 1), (1, 1, 1, 1), (1, 1, 1, 1), (1, 1, 1, 1), (1, 1, 1, 1), (1, 1, 1, 1), (1, 1, 1, 1), (1, 1, 1, 1), (1, 1, 1, 1), (1, 1, 1, 1), (1, 1, 1, 1), (1, 1, 1, 1), (1, 1, 1, 1), (1, 1, 1, 1), (1, 1, 1, 1), (1, 1, 1, 1), (1, 1, 1, 1), (1, 1, 1, 1), (1, 1, 1, 1), (1, 1, 1, 1), (1, 1, 1, 1), (1, 1, 1, 1), (1, 1, 1, 1), (1, 1, 1, 1), (1, 1, 1, 1), (1, 1, 1, 1), (1, 1, 1, 1), (1, 1, 1, 1), (1, 1, 1, 1), (1, 1, 1, 1), (1, 1, 1, 1), (1, 1, 1, 1), (1, 1, 1, 1), (1, 1, 1, 1), (1, 1, 1, 1), (1, 1, 1, 1), (1, 1, 1, 1), (1, 1, 1, 1), (1, 1, 1, 1), (1, 1, 1, 1), (1, 1, 1, 1), (1, 1, 1, 1), (1, 1, 1, 1), (1, 1, 1, 1), (1, 1, 1, 1), (1, 1, 1, 1)] (
                interpolation = "faceVarying"
            )
            color4f[] primvars:Attribute_001 = [(1, 1, 1, 1), (1, 1, 1, 1), (1, 1, 1, 1), (1, 1, 1, 1), (1, 1, 1, 1), (1, 1, 1, 1), (1, 1, 1, 1), (1, 1, 1, 1), (1, 1, 1, 1), (1, 1, 1, 1), (1, 1, 1, 1), (1, 1, 1, 1), (1, 1, 1, 1), (1, 1, 1, 1), (1, 1, 1, 1), (1, 1, 1, 1), (1, 1, 1, 1), (1, 1, 1, 1), (1, 1, 1, 1), (1, 1, 1, 1), (1, 1, 1, 1), (1, 1, 1, 1), (1, 1, 1, 1), (1, 1, 1, 1), (1, 1, 1, 1), (1, 1, 1, 1), (1, 1, 1, 1), (1, 1, 1, 1), (1, 1, 1, 1), (1, 1, 1, 1), (1, 1, 1, 1), (1, 1, 1, 1), (1, 1, 1, 1), (1, 1, 1, 1), (1, 1, 1, 1), (1, 1, 1, 1), (1, 1, 1, 1), (1, 1, 1, 1), (1, 1, 1, 1), (1, 1, 1, 1), (1, 1, 1, 1), (1, 1, 1, 1), (1, 1, 1, 1), (1, 1, 1, 1), (1, 1, 1, 1), (1, 1, 1, 1), (1, 1, 1, 1), (1, 1, 1, 1), (1, 1, 1, 1), (1, 1, 1, 1), (1, 1, 1, 1), (1, 1, 1, 1), (1, 1, 1, 1), (1, 1, 1, 1), (1, 1, 1, 1), (1, 1, 1, 1), (1, 1, 1, 1), (1, 1, 1, 1), (1, 1, 1, 1), (1, 1, 1, 1), (1, 1, 1, 1), (1, 1, 1, 1), (1, 1, 1, 1), (1, 1, 1, 1)] (
                interpolation = "faceVarying"
            )
            texCoord2f[] primvars:st = [(1.5, -0.290843), (-0.5, -0.290843), (0.16666663, -0.290843), (0.89999986, -0.290843), (0.83333325, -0.290843), (0.099999964, -0.290843), (1.3199999, -0.290843), (-0.32, -0.290843), (-0.04000002, -0.290843), (0.89999986, 0.37541914), (0.8999998, 0.16619015), (0.16666666, 0.37541914), (0.16666666, 0.16619009), (1.0399998, -0.290843), (1.3199999, 0.37541914), (1.3199999, 0.16619015), (-0.32, 0.3754191), (-0.31999996, 0.16619016), (0.83333325, 0.37541905), (0.83333325, 0.16619019), (1.5, 0.37541914), (-0.5, 0.3754191), (1.5, 0.16619016), (-0.5, 0.16619015), (0.099999934, 0.37541908), (0.09999992, 0.1661902), (-0.040000055, 0.37541908), (-0.040000066, 0.16619024), (1.04, 0.37541914), (1.04, 0.16619018), (1.5, 0.49971414), (-0.5, 0.49971414), (0.8333333, 0.49971414), (0.099999934, 0.49971414), (-0.04000005, 0.4997142), (1.04, 0.49971414), (0.89999986, 0.49971414), (0.16666664, 0.4997141), (1.3199999, 0.49971414), (-0.32, 0.49971417)] (
                interpolation = "faceVarying"
            )
            int[] primvars:st:indices = [11, 24, 5, 2, 24, 26, 8, 5, 16, 7, 8, 26, 13, 28, 9, 3, 3, 9, 18, 4, 0, 20, 14, 6, 14, 28, 13, 6, 16, 21, 1, 7, 38, 35, 29, 15, 30, 38, 15, 22, 36, 32, 19, 10, 35, 36, 10, 29, 27, 34, 39, 17, 25, 33, 34, 27, 12, 37, 33, 25, 17, 39, 31, 23]
            texCoord2f[] primvars:UVMap_1 = [(0.9925081, 0.94117105), (0.012109987, 0.9391067), (0.0853883, 0.93910664), (0.012109987, 0.9391067), (0.9775686, 0.9365523), (0.91172016, 0.9365523), (0.020729098, 0.93910664), (0.9925081, 0.94117105), (0.85870767, 0.94117105), (0.6653274, 0.3189806), (0.6653274, 0.3189806), (0.14359078, 0.9391067), (0.8908036, 0.94117105), (0.6653274, 0.3189806), (0.012109987, 0.48582128), (0.9775686, 0.48590374), (0.9775686, 0.3725773), (0.012109987, 0.3718317), (0.0853883, 0.48582122), (0.0853883, 0.37183163), (0.11188091, 0.9391067), (0.6653274, 0.3189806), (0.85870767, 0.4857546), (0.6653274, 0.31898054), (0.85870767, 0.37122914), (0.14359073, 0.48582125), (0.6653274, 0.31898057), (0.14359072, 0.37183172), (0.91172016, 0.48590377), (0.91172016, 0.37257728), (0.9925081, 0.4857546), (0.012109987, 0.48582128), (0.9925081, 0.37122917), (0.012109987, 0.37183172), (0.02072911, 0.48582122), (0.9925081, 0.4857546), (0.9925081, 0.37122917), (0.020729112, 0.3718316), (0.8908036, 0.4857546), (0.6653274, 0.31898054), (0.8908036, 0.37122914), (0.11188083, 0.48582125), (0.6653274, 0.31898057), (0.11188081, 0.37183172), (0.9925082, 0.599206), (0.012109987, 0.5987417), (0.91172016, 0.59816736), (0.9925082, 0.599206), (0.020729108, 0.59874165), (0.6653274, 0.31898057), (0.8908036, 0.599206), (0.6653274, 0.31898057), (0.111880854, 0.5987417), (0.9775686, 0.5981673), (0.012109987, 0.5987417), (0.0853883, 0.59874165), (0.6653274, 0.31898057), (0.85870767, 0.599206), (0.6653274, 0.31898057), (0.14359075, 0.5987417)] (
                interpolation = "faceVarying"
            )
            int[] primvars:UVMap_1:indices = [18, 34, 6, 2, 35, 38, 12, 7, 26, 10, 13, 39, 20, 41, 14, 3, 4, 15, 28, 5, 0, 30, 22, 8, 23, 42, 21, 9, 25, 31, 1, 11, 56, 51, 42, 23, 44, 57, 24, 32, 53, 46, 29, 16, 52, 54, 17, 43, 39, 49, 58, 26, 36, 47, 50, 40, 19, 55, 48, 37, 27, 59, 45, 33]
            uniform token subdivisionScheme = "none"
            custom string userProperties:blender:data_name = "Cube.002"
        }
    }

    def Scope "_materials"
    {
        def Material "MI_RedBrick_Pale"
        {
            token outputs:surface.connect = </root/_materials/MI_RedBrick_Pale/Principled_BSDF.outputs:surface>
            custom string userProperties:blender:data_name = "MI_RedBrick_Pale"

            def Shader "Principled_BSDF"
            {
                uniform token info:id = "UsdPreviewSurface"
                float inputs:clearcoat = 0
                float inputs:clearcoatRoughness = 0.03
                color3f inputs:diffuseColor.connect = </root/_materials/MI_RedBrick_Pale/Image_Texture.outputs:rgb>
                float inputs:ior = 1.5
                float inputs:metallic = 0
                normal3f inputs:normal.connect = </root/_materials/MI_RedBrick_Pale/Image_Texture_001.outputs:rgb>
                float inputs:opacity = 1
                float inputs:roughness = 0.5
                float inputs:specular = 0.5
                token outputs:surface
            }

            def Shader "Image_Texture"
            {
                uniform token info:id = "UsdUVTexture"
                asset inputs:file = @./textures/T_RedBrick_D.png@
                token inputs:sourceColorSpace = "sRGB"
                float2 inputs:st.connect = </root/_materials/MI_RedBrick_Pale/uvmap.outputs:result>
                token inputs:wrapS = "repeat"
                token inputs:wrapT = "repeat"
                float3 outputs:rgb
            }

            def Shader "uvmap"
            {
                uniform token info:id = "UsdPrimvarReader_float2"
                string inputs:varname = "st"
                float2 outputs:result
            }

            def Shader "Image_Texture_001"
            {
                uniform token info:id = "UsdUVTexture"
                float4 inputs:bias = (-1, -1, -1, -1)
                asset inputs:file = @./textures/T_RedBrick_N.png@
                float4 inputs:scale = (2, 2, 2, 2)
                token inputs:sourceColorSpace = "raw"
                float2 inputs:st.connect = </root/_materials/MI_RedBrick_Pale/uvmap.outputs:result>
                token inputs:wrapS = "repeat"
                token inputs:wrapT = "repeat"
                float3 outputs:rgb
            }
        }
    }
}

