#usda 1.0
(
    defaultPrim = "root"
    doc = "Blender v5.1.2"
    metersPerUnit = 1
    upAxis = "Y"
)

def Xform "root" (
    customData = {
        dictionary Blender = {
            bool generated = 1
        }
    }
)
{
    float3 xformOp:rotateXYZ = (-90, -0, 0)
    uniform token[] xformOpOrder = ["xformOp:rotateXYZ"]

    def Xform "Roof_SlateCornice_InnerCorner"
    {
        custom string userProperties:blender:object_name = "Roof_SlateCornice_InnerCorner"

        def Mesh "Plane_004" (
            active = true
            prepend apiSchemas = ["MaterialBindingAPI"]
        )
        {
            uniform bool doubleSided = 1
            float3[] extent = [(-2.0000012, -1.9999998, 0), (0, 0.0000012358043, 3.1999998)]
            int[] faceVertexCounts = [4, 3, 4, 4, 4, 4, 4, 4, 4, 4, 4, 4, 3, 4, 4, 4, 4, 4, 4, 4, 4, 4]
            int[] faceVertexIndices = [2, 3, 5, 4, 0, 12, 1, 15, 14, 7, 8, 18, 11, 9, 16, 15, 8, 11, 18, 6, 10, 8, 7, 10, 9, 11, 8, 9, 10, 17, 16, 6, 13, 17, 10, 6, 7, 14, 13, 1, 12, 3, 2, 20, 21, 5, 3, 0, 19, 12, 15, 24, 23, 14, 18, 16, 25, 27, 15, 18, 27, 24, 22, 23, 24, 26, 26, 24, 27, 25, 25, 16, 17, 26, 22, 26, 17, 13, 22, 13, 14, 23, 19, 20, 3, 12]
            rel material:binding = </root/_materials/MI_Roof_Slate>
            normal3f[] normals = [(-4.172323e-7, -1, 0), (-4.172323e-7, -1, 0), (-4.172323e-7, -1, 0), (-4.172323e-7, -1, 0), (4.1467015e-7, 0.9486834, 0.31622764), (4.1467015e-7, 0.9486834, 0.31622764), (4.1467015e-7, 0.9486834, 0.31622764), (0.008537945, 0.008539523, -0.9999271), (0.008537941, 0.0085395295, -0.99992716), (0, 0.01707782, -0.99985415), (0, 0.01707782, -0.99985415), (-0.003357837, -0.003357685, -0.9999887), (-2.1065472e-9, -0.006715298, -0.9999774), (-2.1065472e-9, -0.006715298, -0.9999774), (-0.0033578374, -0.0033576854, -0.9999888), (3.72529e-7, 1, 0), (3.72529e-7, 1, 0), (3.72529e-7, 1, 0), (3.72529e-7, 1, 0), (0.99999994, -3.2584168e-7, 3.002981e-14), (1, -3.2584146e-7, 1.2780644e-14), (1, -3.2584148e-7, 1.5707786e-14), (0.99999994, -3.2584168e-7, 3.002981e-14), (1, -3.2584146e-7, 1.2780644e-14), (1, -3.2584123e-7, 0), (1, -3.2584123e-7, 0), (1, -3.2584148e-7, 1.5707786e-14), (-4.876743e-7, -0.99999994, 0), (-4.876743e-7, -0.99999994, 0), (-4.876743e-7, -0.99999994, 0), (-4.876743e-7, -0.99999994, 0), (2.649091e-7, 0, 1), (-3.311386e-8, 0, 1), (-3.311383e-8, 0, 1), (2.649091e-7, 0, 1), (3.4059798e-7, 1, 0), (3.4059798e-7, 1, 0), (3.4059798e-7, 1, 0), (3.4059798e-7, 1, 0), (7.9473e-8, 2.3841856e-7, 1), (1.986822e-7, 1.5894567e-7, 1), (1.986822e-7, 1.5894567e-7, 1), (7.9473e-8, 2.3841856e-7, 1), (-1, 5.9604633e-7, 0), (-1, 5.9604633e-7, 0), (-1, 5.9604633e-7, 0), (-1, 5.9604633e-7, 0), (0.94868326, -6.031566e-7, 0.31622776), (0.94868326, -6.031566e-7, 0.31622776), (0.94868326, -6.031566e-7, 0.31622776), (0.008537945, 0.008539523, -0.9999271), (0.017074639, -1.0863847e-8, -0.9998542), (0.017074639, -1.0863847e-8, -0.9998542), (0.008537941, 0.0085395295, -0.99992716), (-0.003357837, -0.003357685, -0.9999887), (-0.0033578374, -0.0033576854, -0.9999888), (-0.0067155967, 4.0846553e-9, -0.9999774), (-0.0067155967, 4.0846553e-9, -0.9999774), (1, -6.8123495e-7, 1.816627e-7), (1, -6.8123495e-7, 1.816627e-7), (1, -6.8123495e-7, 1.816627e-7), (1, -6.8123495e-7, 1.816627e-7), (3.2584157e-7, 1, -7.549852e-8), (3.2584157e-7, 1, -7.549852e-8), (3.258415e-7, 1, -7.549819e-8), (3.2584148e-7, 1, -7.549813e-8), (3.2584148e-7, 1, -7.549813e-8), (3.258415e-7, 1, -7.549819e-8), (3.2584143e-7, 1, -7.549784e-8), (3.2584143e-7, 1, -7.549784e-8), (-1, 5.432288e-7, 6.475792e-14), (-1, 5.432288e-7, 6.475792e-14), (-1, 5.432288e-7, 6.475792e-14), (-1, 5.432288e-7, 6.475792e-14), (-3.3113682e-7, 0, 1), (-3.3113682e-7, 0, 1), (-3.311383e-8, 0, 1), (-3.311386e-8, 0, 1), (0.99999994, -5.4293844e-7, 0), (0.99999994, -5.4293844e-7, 0), (0.99999994, -5.4293844e-7, 0), (0.99999994, -5.4293844e-7, 0), (3.1789142e-7, 7.947278e-8, 1), (3.1789142e-7, 7.947278e-8, 1), (1.986822e-7, 1.5894567e-7, 1), (1.986822e-7, 1.5894567e-7, 1)] (
                interpolation = "faceVarying"
            )
            point3f[] points = [(0, 0, 0), (-5.6425995e-7, -0.99999976, 3), (-0.0000010093106, -1.9999998, 3.0000002), (-2.0000012, -1.9999989, 3.0000002), (-0.0000010093106, -1.9999998, 2.8000002), (-2.0000012, -1.9999989, 2.8000002), (-3.4729823e-7, -0.6999997, 3.1999998), (-3.4729823e-7, -0.6999997, 2.9647536), (-3.7988235e-7, -0.79999965, 2.9630456), (-4.7763484e-7, -1.0999999, 2.8010073), (-4.7763484e-7, -1.0999999, 3.1999998), (-3.7988235e-7, -0.79999965, 2.7989926), (-1.0000006, -0.99999934, 3), (-0.70000035, -0.69999945, 3.1999998), (-0.70000035, -0.69999945, 2.9647536), (-0.8000004, -0.79999936, 2.9630456), (-1.1000006, -1.0999993, 2.8010073), (-1.1000006, -1.0999994, 3.1999998), (-0.80000037, -0.79999936, 2.7989926), (-1, 6.7154434e-7, 3), (-2, 0.0000012358043, 3), (-2, 0.0000012207047, 2.8), (-0.6999999, 5.888915e-7, 3.1999998), (-0.6999999, 5.711309e-7, 2.9647536), (-0.7999999, 6.0358605e-7, 2.9630456), (-1.1, 6.891049e-7, 2.8010073), (-1.1, 7.1922807e-7, 3.1999998), (-0.7999999, 5.9120043e-7, 2.7989926)]
            texCoord2f[] primvars:st = [(0, 0), (0, 1), (0, 1.375), (0.72497094, 0.8987167), (0, 1), (0.27502906, 0.89871675), (1, 1), (0.72497094, 0.8537224), (0.275029, 0.8537224), (0.48104557, 0.4124543), (8.940697e-8, 0.90240747), (1, 0.7702548), (8.940697e-8, 0.98297215), (0.48104557, 0.336008), (1, 0.8240331), (5.9604645e-8, 0.89713764), (2.9802322e-8, 0.82764083), (0.51354194, 0.33545294), (5.9604645e-8, 0.7718033), (0.6110307, 0.28279647), (0.2433699, 0.9987049), (0.6110307, 0.4124543), (0.2433699, 0.9044122), (5.9604645e-8, 0.9977475), (0, 0.827155), (0, 0.7699791), (0.51354194, 0.2821419), (0.5, 1), (0.5, 1.375), (0.35000008, 0.90240747), (0.65, 0.7702548), (0.35000008, 0.98297215), (0.65, 0.824033), (0.40000007, 0.89713764), (0.40000007, 0.82764083), (0.5500001, 0.7718033), (0.5033297, 0.9987049), (0.5033297, 0.9044122), (0.5500001, 0.9977475), (0.39999998, 0.827155), (0.39999998, 0.7699791), (0, 1), (0, 1.375), (0.72497094, 0.8987167), (0, 1), (0.72497094, 0.8537224), (0.48104557, 0.4124543), (8.940697e-8, 0.90240747), (1, 0.7702548), (8.940697e-8, 0.98297215), (0.48104557, 0.336008), (1, 0.8240331), (5.9604645e-8, 0.89713764), (2.9802322e-8, 0.82764083), (0.51354194, 0.33545294), (5.9604645e-8, 0.7718033), (0.6110307, 0.28279647), (0.2433699, 0.9987049), (0.6110307, 0.4124543), (0.2433699, 0.9044122), (5.9604645e-8, 0.9977475), (0, 0.827155), (0, 0.7699791), (0.51354194, 0.2821419)] (
                interpolation = "faceVarying"
            )
            int[] primvars:st:indices = [3, 5, 8, 7, 0, 27, 1, 33, 31, 12, 15, 39, 24, 18, 35, 34, 16, 25, 40, 9, 21, 17, 13, 21, 19, 26, 17, 20, 22, 37, 36, 10, 29, 38, 23, 11, 14, 32, 30, 2, 28, 6, 4, 43, 45, 8, 5, 0, 41, 27, 33, 52, 49, 31, 39, 35, 55, 61, 34, 40, 62, 53, 46, 50, 54, 58, 58, 54, 63, 56, 57, 36, 37, 59, 47, 60, 38, 29, 48, 30, 32, 51, 42, 44, 6, 28]
            texCoord2f[] primvars:UVMap_1 = [(0.25122362, 0.1954727), (0.25122362, 0.6788844), (0.25122362, 0.86016375), (0.25122362, 0.6788844), (0.7346353, 0.6788844), (0.25122362, 0.6788844), (0.7346353, 0.6788844), (0.68768364, 0.46449244), (0.30472642, 0.5060978), (0.5086618, 0.49222928), (0.33735138, 0.5060978), (0.5225313, 0.49222928), (0.33735138, 0.5060978), (0.7847607, 0.18712354), (0.7431574, 0.46449244), (0.7431573, 0.18712357), (0.36010298, 0.5060978), (0.49292946, 0.6788844), (0.49292946, 0.86016375), (0.68768364, 0.36741334), (0.30472642, 0.60317695), (0.50866187, 0.58930844), (0.33735138, 0.60317695), (0.5225314, 0.60317683), (0.3373514, 0.6170454), (0.78476083, 0.33967647), (0.7431574, 0.31193954), (0.7431574, 0.29807115), (0.360103, 0.61704534), (0.25122362, 0.6788844), (0.25122362, 0.86016375), (0.25122362, 0.6788844), (0.25122362, 0.6788844), (0.68768364, 0.46449244), (0.30472642, 0.5060978), (0.5086618, 0.49222928), (0.33735138, 0.5060978), (0.5225313, 0.49222928), (0.33735138, 0.5060978), (0.7847607, 0.18712354), (0.7431574, 0.46449244), (0.7431573, 0.18712357), (0.36010298, 0.5060978)] (
                interpolation = "faceVarying"
            )
            int[] primvars:UVMap_1:indices = [3, 4, 6, 5, 0, 17, 1, 23, 21, 9, 11, 27, 15, 13, 25, 24, 12, 16, 28, 8, 14, 12, 9, 14, 13, 16, 12, 13, 14, 26, 25, 7, 19, 26, 14, 8, 10, 22, 20, 2, 18, 4, 3, 31, 32, 6, 4, 0, 29, 17, 23, 37, 35, 21, 27, 25, 39, 41, 24, 28, 42, 38, 34, 35, 38, 40, 40, 38, 42, 39, 39, 25, 26, 40, 33, 40, 26, 19, 34, 20, 22, 36, 30, 31, 4, 18]
            uniform token subdivisionScheme = "none"
            uniform token subsetFamily:materialBind:familyType = "nonOverlapping"
            custom string userProperties:blender:data_name = "Plane.004"

            def GeomSubset "MI_Roof_Slate" (
                prepend apiSchemas = ["MaterialBindingAPI"]
            )
            {
                uniform token elementType = "face"
                uniform token familyName = "materialBind"
                int[] indices = [1, 10, 12, 21]
                rel material:binding = </root/_materials/MI_Roof_Slate>
            }

            def GeomSubset "MI_Trim_MetalConcrete" (
                prepend apiSchemas = ["MaterialBindingAPI"]
            )
            {
                uniform token elementType = "face"
                uniform token familyName = "materialBind"
                int[] indices = [0, 11]
                rel material:binding = </root/_materials/MI_Trim_MetalConcrete>
            }

            def GeomSubset "MI_Trim" (
                prepend apiSchemas = ["MaterialBindingAPI"]
            )
            {
                uniform token elementType = "face"
                uniform token familyName = "materialBind"
                int[] indices = [2, 3, 4, 5, 6, 7, 8, 9, 13, 14, 15, 16, 17, 18, 19, 20]
                rel material:binding = </root/_materials/MI_Trim>
            }
        }
    }

    def Scope "_materials"
    {
        def Material "MI_Roof_Slate"
        {
            token outputs:surface.connect = </root/_materials/MI_Roof_Slate/Principled_BSDF.outputs:surface>
            custom string userProperties:blender:data_name = "MI_Roof_Slate"

            def Shader "Principled_BSDF"
            {
                uniform token info:id = "UsdPreviewSurface"
                float inputs:clearcoat = 0
                float inputs:clearcoatRoughness = 0.03
                color3f inputs:diffuseColor.connect = </root/_materials/MI_Roof_Slate/Image_Texture.outputs:rgb>
                float inputs:ior = 1.5
                float inputs:metallic = 0
                normal3f inputs:normal.connect = </root/_materials/MI_Roof_Slate/Image_Texture_001.outputs:rgb>
                float inputs:opacity = 1
                float inputs:roughness = 1
                float inputs:specular = 0.5
                token outputs:surface
            }

            def Shader "Image_Texture"
            {
                uniform token info:id = "UsdUVTexture"
                asset inputs:file = @./textures/T_RoofSlate_D.png@
                token inputs:sourceColorSpace = "sRGB"
                float2 inputs:st.connect = </root/_materials/MI_Roof_Slate/uvmap.outputs:result>
                token inputs:wrapS = "repeat"
                token inputs:wrapT = "repeat"
                float3 outputs:rgb
            }

            def Shader "uvmap"
            {
                uniform token info:id = "UsdPrimvarReader_float2"
                string inputs:varname = "st"
                float2 outputs:result
            }

            def Shader "Image_Texture_001"
            {
                uniform token info:id = "UsdUVTexture"
                float4 inputs:bias = (-1, -1, -1, -1)
                asset inputs:file = @./textures/T_RoofSlate_N.png@
                float4 inputs:scale = (2, 2, 2, 2)
                token inputs:sourceColorSpace = "raw"
                float2 inputs:st.connect = </root/_materials/MI_Roof_Slate/uvmap.outputs:result>
                token inputs:wrapS = "repeat"
                token inputs:wrapT = "repeat"
                float3 outputs:rgb
            }
        }

        def Material "MI_Trim_MetalConcrete"
        {
            token outputs:surface.connect = </root/_materials/MI_Trim_MetalConcrete/Principled_BSDF.outputs:surface>
            custom string userProperties:blender:data_name = "MI_Trim_MetalConcrete"

            def Shader "Principled_BSDF"
            {
                uniform token info:id = "UsdPreviewSurface"
                float inputs:clearcoat = 0
                float inputs:clearcoatRoughness = 0.03
                color3f inputs:diffuseColor.connect = </root/_materials/MI_Trim_MetalConcrete/Image_Texture.outputs:rgb>
                float inputs:ior = 1.5
                float inputs:metallic = 0
                normal3f inputs:normal.connect = </root/_materials/MI_Trim_MetalConcrete/Image_Texture_001.outputs:rgb>
                float inputs:opacity = 1
                float inputs:roughness = 0.5
                float inputs:specular = 0.5
                token outputs:surface
            }

            def Shader "Image_Texture"
            {
                uniform token info:id = "UsdUVTexture"
                asset inputs:file = @./textures/T_MetalConcrete_D.png@
                token inputs:sourceColorSpace = "sRGB"
                float2 inputs:st.connect = </root/_materials/MI_Trim_MetalConcrete/uvmap.outputs:result>
                token inputs:wrapS = "repeat"
                token inputs:wrapT = "repeat"
                float3 outputs:rgb
            }

            def Shader "uvmap"
            {
                uniform token info:id = "UsdPrimvarReader_float2"
                string inputs:varname = "st"
                float2 outputs:result
            }

            def Shader "Image_Texture_001"
            {
                uniform token info:id = "UsdUVTexture"
                float4 inputs:bias = (-1, -1, -1, -1)
                asset inputs:file = @./textures/T_MetalConcrete_N.png@
                float4 inputs:scale = (2, 2, 2, 2)
                token inputs:sourceColorSpace = "raw"
                float2 inputs:st.connect = </root/_materials/MI_Trim_MetalConcrete/uvmap.outputs:result>
                token inputs:wrapS = "repeat"
                token inputs:wrapT = "repeat"
                float3 outputs:rgb
            }
        }

        def Material "MI_Trim"
        {
            token outputs:surface.connect = </root/_materials/MI_Trim/Principled_BSDF.outputs:surface>
            custom string userProperties:blender:data_name = "MI_Trim"

            def Shader "Principled_BSDF"
            {
                uniform token info:id = "UsdPreviewSurface"
                float inputs:clearcoat = 0
                float inputs:clearcoatRoughness = 0.03
                color3f inputs:diffuseColor.connect = </root/_materials/MI_Trim/Image_Texture.outputs:rgb>
                float inputs:ior = 1.5
                float inputs:metallic = 0
                normal3f inputs:normal.connect = </root/_materials/MI_Trim/Image_Texture_001.outputs:rgb>
                float inputs:opacity = 1
                float inputs:roughness = 0.5
                float inputs:specular = 0.5
                token outputs:surface
            }

            def Shader "Image_Texture"
            {
                uniform token info:id = "UsdUVTexture"
                asset inputs:file = @./textures/T_Trim_D.png@
                token inputs:sourceColorSpace = "sRGB"
                float2 inputs:st.connect = </root/_materials/MI_Trim/uvmap.outputs:result>
                token inputs:wrapS = "repeat"
                token inputs:wrapT = "repeat"
                float3 outputs:rgb
            }

            def Shader "uvmap"
            {
                uniform token info:id = "UsdPrimvarReader_float2"
                string inputs:varname = "st"
                float2 outputs:result
            }

            def Shader "Image_Texture_001"
            {
                uniform token info:id = "UsdUVTexture"
                float4 inputs:bias = (-1, -1, -1, -1)
                asset inputs:file = @./textures/T_Trim_N.png@
                float4 inputs:scale = (2, 2, 2, 2)
                token inputs:sourceColorSpace = "raw"
                float2 inputs:st.connect = </root/_materials/MI_Trim/uvmap.outputs:result>
                token inputs:wrapS = "repeat"
                token inputs:wrapT = "repeat"
                float3 outputs:rgb
            }
        }
    }
}

