#usda 1.0
(
    defaultPrim = "root"
    doc = "Blender v5.1.2"
    metersPerUnit = 1
    upAxis = "Y"
)

def Xform "root" (
    customData = {
        dictionary Blender = {
            bool generated = 1
        }
    }
)
{
    float3 xformOp:rotateXYZ = (-90, -0, 0)
    uniform token[] xformOpOrder = ["xformOp:rotateXYZ"]

    def Xform "Rail_Short"
    {
        custom string userProperties:blender:object_name = "Rail_Short"

        def Mesh "Cube_033" (
            active = true
            prepend apiSchemas = ["MaterialBindingAPI"]
        )
        {
            uniform bool doubleSided = 1
            float3[] extent = [(-0.62724185, -0.030321462, -0.0073046386), (0.62724185, 0.030198395, 0.22920859)]
            int[] faceVertexCounts = [4, 4, 4, 4, 4, 4, 4, 4, 4, 4, 4, 4, 4, 4, 4, 4, 4, 4, 4, 4, 4, 4, 4, 4, 4, 4, 4, 4, 4, 4, 4, 4, 4, 4, 4, 4, 4, 4, 4, 4, 4, 4, 4, 4, 4, 4, 4, 4, 4, 4, 4, 4, 4, 4, 4, 4, 4, 4, 4, 4, 4, 4, 4, 4, 4, 4, 4, 4, 4, 4, 4, 4, 4, 4, 4, 4, 4, 4, 4, 4, 4, 4, 4, 4, 4, 4, 4, 4, 4, 4, 4, 4, 4, 4, 4, 4, 4, 4, 4, 4, 4, 4, 4, 4, 4, 4, 4, 4, 4, 4, 4, 4, 4, 4, 4, 4, 4, 4, 4, 4, 4, 4, 4, 4, 4, 4, 4, 4]
            int[] faceVertexIndices = [69, 42, 17, 65, 0, 26, 47, 15, 0, 15, 40, 17, 0, 17, 42, 14, 0, 14, 45, 26, 1, 31, 51, 25, 1, 25, 44, 20, 1, 20, 46, 23, 1, 23, 49, 31, 2, 28, 49, 23, 2, 23, 46, 24, 2, 24, 47, 21, 2, 21, 48, 28, 3, 30, 50, 27, 3, 27, 45, 22, 3, 22, 44, 25, 3, 25, 51, 30, 4, 39, 53, 34, 4, 34, 50, 30, 4, 30, 51, 32, 4, 32, 52, 39, 5, 38, 55, 35, 5, 35, 49, 28, 5, 28, 48, 33, 5, 33, 54, 38, 6, 37, 52, 32, 6, 32, 51, 31, 6, 31, 49, 35, 6, 35, 55, 37, 7, 36, 54, 33, 7, 33, 48, 29, 7, 29, 50, 34, 7, 34, 53, 36, 8, 22, 45, 14, 8, 14, 42, 18, 8, 18, 43, 13, 8, 13, 44, 22, 9, 20, 44, 13, 9, 13, 43, 16, 9, 16, 41, 12, 9, 12, 46, 20, 10, 24, 46, 12, 10, 12, 41, 19, 10, 19, 40, 15, 10, 15, 47, 24, 11, 29, 48, 21, 11, 21, 47, 26, 11, 26, 45, 27, 11, 27, 50, 29, 65, 17, 40, 71, 67, 18, 42, 69, 71, 40, 19, 66, 64, 16, 43, 70, 70, 43, 18, 67, 66, 19, 41, 68, 68, 41, 16, 64, 133, 62, 57, 129, 129, 57, 60, 135, 131, 58, 62, 133, 135, 60, 59, 130, 128, 56, 63, 134, 134, 63, 58, 131, 130, 59, 61, 132, 132, 61, 56, 128, 69, 65, 89, 114, 72, 87, 119, 98, 72, 89, 112, 87, 72, 86, 114, 89, 72, 98, 117, 86, 73, 97, 123, 103, 73, 92, 116, 97, 73, 95, 118, 92, 73, 103, 121, 95, 74, 95, 121, 100, 74, 96, 118, 95, 74, 93, 119, 96, 74, 100, 120, 93, 75, 99, 122, 102, 75, 94, 117, 99, 75, 97, 116, 94, 75, 102, 123, 97, 76, 106, 125, 111, 76, 102, 122, 106, 76, 104, 123, 102, 76, 111, 124, 104, 77, 107, 127, 110, 77, 100, 121, 107, 77, 105, 120, 100, 77, 110, 126, 105, 78, 104, 124, 109, 78, 103, 123, 104, 78, 107, 121, 103, 78, 109, 127, 107, 79, 105, 126, 108, 79, 101, 120, 105, 79, 106, 122, 101, 79, 108, 125, 106, 80, 86, 117, 94, 80, 90, 114, 86, 80, 85, 115, 90, 80, 94, 116, 85, 81, 85, 116, 92, 81, 88, 115, 85, 81, 84, 113, 88, 81, 92, 118, 84, 82, 84, 118, 96, 82, 91, 113, 84, 82, 87, 112, 91, 82, 96, 119, 87, 83, 93, 120, 101, 83, 98, 119, 93, 83, 99, 117, 98, 83, 101, 122, 99, 65, 71, 112, 89, 67, 69, 114, 90, 71, 66, 91, 112, 64, 70, 115, 88, 70, 67, 90, 115, 66, 68, 113, 91, 68, 64, 88, 113, 133, 129, 137, 142, 129, 135, 140, 137, 131, 133, 142, 138, 135, 130, 139, 140, 128, 134, 143, 136, 134, 131, 138, 143, 130, 132, 141, 139, 132, 128, 136, 141]
            rel material:binding = </root/_materials/Black>
            normal3f[] normals = [(3.084186e-8, 0.7052147, -0.7089938), (0.0020968902, 0.69837344, -0.7157304), (0.0052881874, -0.0019562996, -0.999984), (1.2086905e-9, -0.0034275132, -0.9999941), (0.0110077225, -1.4905824e-8, -0.99993944), (-0.3644403, -0.0000035308663, -0.93122673), (-0.28231162, -0.76248944, -0.5821598), (-0.016259449, -0.68866414, -0.7248981), (0.0110077225, -1.4905824e-8, -0.99993944), (-0.016259449, -0.68866414, -0.7248981), (0.0011677917, -0.69932026, -0.7148075), (0.0052881874, -0.0019562996, -0.999984), (0.0110077225, -1.4905824e-8, -0.99993944), (0.0052881874, -0.0019562996, -0.999984), (0.0020968902, 0.69837344, -0.7157304), (-0.016259419, 0.6886628, -0.72489935), (0.0110077225, -1.4905824e-8, -0.99993944), (-0.016259419, 0.6886628, -0.72489935), (-0.28230757, 0.7624906, -0.5821602), (-0.3644403, -0.0000035308663, -0.93122673), (0.894665, 9.58343e-7, 0.4467377), (0.98774064, -0.0000015323072, 0.15610357), (0.72699004, 0.6777657, 0.11008622), (0.6778935, 0.6544605, 0.33487597), (0.894665, 9.58343e-7, 0.4467377), (0.6778935, 0.6544605, 0.33487597), (0.45762974, 0.64856726, 0.60822326), (0.60716844, 1.5045134e-7, 0.7945731), (0.894665, 9.58343e-7, 0.4467377), (0.60716844, 1.5045134e-7, 0.7945731), (0.4576293, -0.648564, 0.608227), (0.6778936, -0.6544591, 0.33487833), (0.894665, 9.58343e-7, 0.4467377), (0.6778936, -0.6544591, 0.33487833), (0.7269904, -0.67776513, 0.11008757), (0.98774064, -0.0000015323072, 0.15610357), (0.07498811, -0.9966337, 0.0331358), (0.030176178, -0.99949926, 0.009523263), (0.7269904, -0.67776513, 0.11008757), (0.6778936, -0.6544591, 0.33487833), (0.07498811, -0.9966337, 0.0331358), (0.6778936, -0.6544591, 0.33487833), (0.4576293, -0.648564, 0.608227), (0.055950273, -0.9958678, 0.07153257), (0.07498811, -0.9966337, 0.0331358), (0.055950273, -0.9958678, 0.07153257), (-0.28231162, -0.76248944, -0.5821598), (-0.60234654, -0.75395405, -0.2621678), (0.07498811, -0.9966337, 0.0331358), (-0.60234654, -0.75395405, -0.2621678), (-0.7158348, -0.698056, -0.017272318), (0.030176178, -0.99949926, 0.009523263), (0.0749903, 0.99663365, 0.033133127), (0.030174961, 0.99949926, 0.009522642), (-0.7158348, 0.69805604, -0.017272409), (-0.60234517, 0.753954, -0.26217112), (0.0749903, 0.99663365, 0.033133127), (-0.60234517, 0.753954, -0.26217112), (-0.28230757, 0.7624906, -0.5821602), (0.055952452, 0.99586797, 0.07152841), (0.0749903, 0.99663365, 0.033133127), (0.055952452, 0.99586797, 0.07152841), (0.45762974, 0.64856726, 0.60822326), (0.6778935, 0.6544605, 0.33487597), (0.0749903, 0.99663365, 0.033133127), (0.6778935, 0.6544605, 0.33487597), (0.72699004, 0.6777657, 0.11008622), (0.030174961, 0.99949926, 0.009522642), (0.010395416, 0.9999445, 0.0017229985), (0.0030640191, 0.9999953, 0.000046584875), (-0.7071312, 0.7070793, 0.002076544), (-0.7087617, 0.7054477, 0.000649397), (0.010395416, 0.9999445, 0.0017229985), (-0.7087617, 0.7054477, 0.000649397), (-0.7158348, 0.69805604, -0.017272409), (0.030174961, 0.99949926, 0.009522642), (0.010395416, 0.9999445, 0.0017229985), (0.030174961, 0.99949926, 0.009522642), (0.72699004, 0.6777657, 0.11008622), (0.7150726, 0.6988034, 0.018578392), (0.010395416, 0.9999445, 0.0017229985), (0.7150726, 0.6988034, 0.018578392), (0.7076362, 0.7065765, -0.0008598405), (0.0030640191, 0.9999953, 0.000046584875), (0.010394907, -0.9999444, 0.0017259471), (0.003063467, -0.9999953, 0.000048020338), (0.70763445, -0.7065782, -0.0008588938), (0.71507144, -0.6988045, 0.018580131), (0.010394907, -0.9999444, 0.0017259471), (0.71507144, -0.6988045, 0.018580131), (0.7269904, -0.67776513, 0.11008757), (0.030176178, -0.99949926, 0.009523263), (0.010394907, -0.9999444, 0.0017259471), (0.030176178, -0.99949926, 0.009523263), (-0.7158348, -0.698056, -0.017272318), (-0.7087613, -0.70544815, 0.00065114815), (0.010394907, -0.9999444, 0.0017259471), (-0.7087613, -0.70544815, 0.00065114815), (-0.7071304, -0.7070802, 0.0020776272), (0.003063467, -0.9999953, 0.000048020338), (0.999621, -2.2636353e-7, 0.027530322), (0.99999887, 3.0999587e-7, -0.0014610867), (0.7076362, 0.7065765, -0.0008598405), (0.7150726, 0.6988034, 0.018578392), (0.999621, -2.2636353e-7, 0.027530322), (0.7150726, 0.6988034, 0.018578392), (0.72699004, 0.6777657, 0.11008622), (0.98774064, -0.0000015323072, 0.15610357), (0.999621, -2.2636353e-7, 0.027530322), (0.98774064, -0.0000015323072, 0.15610357), (0.7269904, -0.67776513, 0.11008757), (0.71507144, -0.6988045, 0.018580131), (0.999621, -2.2636353e-7, 0.027530322), (0.71507144, -0.6988045, 0.018580131), (0.70763445, -0.7065782, -0.0008588938), (0.99999887, 3.0999587e-7, -0.0014610867), (-0.99998736, 6.689947e-7, 0.0050249537), (-0.9999934, 7.3022284e-7, 0.003645598), (-0.7071304, -0.7070802, 0.0020776272), (-0.7087613, -0.70544815, 0.00065114815), (-0.99998736, 6.689947e-7, 0.0050249537), (-0.7087613, -0.70544815, 0.00065114815), (-0.7158348, -0.698056, -0.017272318), (-0.9999966, -0.000001181162, -0.0025974808), (-0.99998736, 6.689947e-7, 0.0050249537), (-0.9999966, -0.000001181162, -0.0025974808), (-0.7158348, 0.69805604, -0.017272409), (-0.7087617, 0.7054477, 0.000649397), (-0.99998736, 6.689947e-7, 0.0050249537), (-0.7087617, 0.7054477, 0.000649397), (-0.7071312, 0.7070793, 0.002076544), (-0.9999934, 7.3022284e-7, 0.003645598), (0.010064162, 0.99881965, 0.047519103), (0.055952452, 0.99586797, 0.07152841), (-0.28230757, 0.7624906, -0.5821602), (-0.016259419, 0.6886628, -0.72489935), (0.010064162, 0.99881965, 0.047519103), (-0.016259419, 0.6886628, -0.72489935), (0.0020968902, 0.69837344, -0.7157304), (0.0015424389, 0.99995744, 0.009094878), (0.010064162, 0.99881965, 0.047519103), (0.0015424389, 0.99995744, 0.009094878), (0.013688001, 0.6937088, 0.7201255), (0.156329, 0.6620784, 0.7329484), (0.010064162, 0.99881965, 0.047519103), (0.156329, 0.6620784, 0.7329484), (0.45762974, 0.64856726, 0.60822326), (0.055952452, 0.99586797, 0.07152841), (0.21936901, -0.000001230107, 0.9756419), (0.60716844, 1.5045134e-7, 0.7945731), (0.45762974, 0.64856726, 0.60822326), (0.156329, 0.6620784, 0.7329484), (0.21936901, -0.000001230107, 0.9756419), (0.156329, 0.6620784, 0.7329484), (0.013688001, 0.6937088, 0.7201255), (0.020405823, -0.0019033388, 0.99979), (0.21936901, -0.000001230107, 0.9756419), (0.020405823, -0.0019033388, 0.99979), (0.012810151, -0.6947229, 0.7191635), (0.15632844, -0.6620798, 0.73294723), (0.21936901, -0.000001230107, 0.9756419), (0.15632844, -0.6620798, 0.73294723), (0.4576293, -0.648564, 0.608227), (0.60716844, 1.5045134e-7, 0.7945731), (0.010064657, -0.99881965, 0.047519736), (0.055950273, -0.9958678, 0.07153257), (0.4576293, -0.648564, 0.608227), (0.15632844, -0.6620798, 0.73294723), (0.010064657, -0.99881965, 0.047519736), (0.15632844, -0.6620798, 0.73294723), (0.012810151, -0.6947229, 0.7191635), (0.0004010026, -0.99995744, 0.009222491), (0.010064657, -0.99881965, 0.047519736), (0.0004010026, -0.99995744, 0.009222491), (0.0011677917, -0.69932026, -0.7148075), (-0.016259449, -0.68866414, -0.7248981), (0.010064657, -0.99881965, 0.047519736), (-0.016259449, -0.68866414, -0.7248981), (-0.28231162, -0.76248944, -0.5821598), (0.055950273, -0.9958678, 0.07153257), (-0.927426, -0.0000026353403, -0.3740068), (-0.9999966, -0.000001181162, -0.0025974808), (-0.7158348, -0.698056, -0.017272318), (-0.60234654, -0.75395405, -0.2621678), (-0.927426, -0.0000026353403, -0.3740068), (-0.60234654, -0.75395405, -0.2621678), (-0.28231162, -0.76248944, -0.5821598), (-0.3644403, -0.0000035308663, -0.93122673), (-0.927426, -0.0000026353403, -0.3740068), (-0.3644403, -0.0000035308663, -0.93122673), (-0.28230757, 0.7624906, -0.5821602), (-0.60234517, 0.753954, -0.26217112), (-0.927426, -0.0000026353403, -0.3740068), (-0.60234517, 0.753954, -0.26217112), (-0.7158348, 0.69805604, -0.017272409), (-0.9999966, -0.000001181162, -0.0025974808), (1.2086905e-9, -0.0034275132, -0.9999941), (0.0052881874, -0.0019562996, -0.999984), (0.0011677917, -0.69932026, -0.7148075), (-3.030073e-8, -0.7067593, -0.7074541), (4.386319e-8, 0.9999911, 0.0042082337), (0.0015424389, 0.99995744, 0.009094878), (0.0020968902, 0.69837344, -0.7157304), (3.084186e-8, 0.7052147, -0.7089938), (-3.030073e-8, -0.7067593, -0.7074541), (0.0011677917, -0.69932026, -0.7148075), (0.0004010026, -0.99995744, 0.009222491), (-4.4193634e-8, -0.99999064, 0.0043301787), (-1.34425715e-8, -0.003426923, 0.99999416), (0.020405823, -0.0019033388, 0.99979), (0.013688001, 0.6937088, 0.7201255), (2.72164e-8, 0.7026588, 0.71152705), (2.72164e-8, 0.7026588, 0.71152705), (0.013688001, 0.6937088, 0.7201255), (0.0015424389, 0.99995744, 0.009094878), (4.386319e-8, 0.9999911, 0.0042082337), (-4.4193634e-8, -0.99999064, 0.0043301787), (0.0004010026, -0.99995744, 0.009222491), (0.012810151, -0.6947229, 0.7191635), (-4.107174e-8, -0.7041373, 0.7100638), (-4.107174e-8, -0.7041373, 0.7100638), (0.012810151, -0.6947229, 0.7191635), (0.020405823, -0.0019033388, 0.99979), (-1.34425715e-8, -0.003426923, 0.99999416), (3.532354e-8, 0.79167664, -0.6109404), (-0.00047174524, 0.79128575, -0.6114464), (-0.0016592395, 0.0044793566, -0.99998856), (1.3760161e-9, 0.0051445724, -0.99998677), (1.3760161e-9, 0.0051445724, -0.99998677), (-0.0016592395, 0.0044793566, -0.99998856), (-0.0021644155, -0.7857422, -0.61855024), (-3.3858598e-8, -0.7858203, -0.6184549), (4.3835648e-8, 0.9999853, 0.005427793), (0.0007831416, 0.9999883, 0.0047787633), (-0.00047174524, 0.79128575, -0.6114464), (3.532354e-8, 0.79167664, -0.6109404), (-3.3858598e-8, -0.7858203, -0.6184549), (-0.0021644155, -0.7857422, -0.61855024), (-0.001083016, -0.99998784, 0.0048228176), (-4.3519535e-8, -0.9999848, 0.0055084783), (-4.5346926e-9, 0.008238521, 0.9999661), (0.0042834477, 0.0075367526, 0.99996245), (0.0032758648, 0.80089134, 0.59880084), (3.301405e-8, 0.7997695, 0.6003071), (3.301405e-8, 0.7997695, 0.6003071), (0.0032758648, 0.80089134, 0.59880084), (0.0007831416, 0.9999883, 0.0047787633), (4.3835648e-8, 0.9999853, 0.005427793), (-4.3519535e-8, -0.9999848, 0.0055084783), (-0.001083016, -0.99998784, 0.0048228176), (0.0016137725, -0.793545, 0.60850936), (-3.7226506e-8, -0.7921182, 0.6103677), (-3.7226506e-8, -0.7921182, 0.6103677), (0.0016137725, -0.793545, 0.60850936), (0.0042834477, 0.0075367526, 0.99996245), (-4.5346926e-9, 0.008238521, 0.9999661), (3.084186e-8, 0.7052147, -0.7089938), (1.2086905e-9, -0.0034275132, -0.9999941), (-0.0052881874, -0.0019562747, -0.999984), (-0.0020967757, 0.69837344, -0.7157305), (-0.011007799, 1.4905825e-7, -0.99993944), (0.016259074, -0.68866414, -0.72489816), (0.2823117, -0.76248914, -0.5821602), (0.36444056, -0.0000022873223, -0.9312267), (-0.011007799, 1.4905825e-7, -0.99993944), (-0.0052881874, -0.0019562747, -0.999984), (-0.0011679202, -0.6993203, -0.7148075), (0.016259074, -0.68866414, -0.72489816), (-0.011007799, 1.4905825e-7, -0.99993944), (0.016259842, 0.6886628, -0.72489935), (-0.0020967757, 0.69837344, -0.7157305), (-0.0052881874, -0.0019562747, -0.999984), (-0.011007799, 1.4905825e-7, -0.99993944), (0.36444056, -0.0000022873223, -0.9312267), (0.28230774, 0.7624909, -0.5821596), (0.016259842, 0.6886628, -0.72489935), (-0.89466506, 0.0000020483265, 0.4467375), (-0.67789334, 0.6544608, 0.33487564), (-0.7269901, 0.6777657, 0.11008624), (-0.9877407, -0.000001276923, 0.15610358), (-0.89466506, 0.0000020483265, 0.4467375), (-0.60716873, 3.9762142e-7, 0.79457295), (-0.4576301, 0.6485674, 0.6082229), (-0.67789334, 0.6544608, 0.33487564), (-0.89466506, 0.0000020483265, 0.4467375), (-0.677894, -0.65445864, 0.33487844), (-0.45762935, -0.6485639, 0.6082272), (-0.60716873, 3.9762142e-7, 0.79457295), (-0.89466506, 0.0000020483265, 0.4467375), (-0.9877407, -0.000001276923, 0.15610358), (-0.72699046, -0.6777651, 0.11008755), (-0.677894, -0.65445864, 0.33487844), (-0.074988045, -0.9966337, 0.033135816), (-0.677894, -0.65445864, 0.33487844), (-0.72699046, -0.6777651, 0.11008755), (-0.030176358, -0.99949926, 0.009523223), (-0.074988045, -0.9966337, 0.033135816), (-0.055950254, -0.9958678, 0.07153274), (-0.45762935, -0.6485639, 0.6082272), (-0.677894, -0.65445864, 0.33487844), (-0.074988045, -0.9966337, 0.033135816), (0.60234696, -0.7539536, -0.26216805), (0.2823117, -0.76248914, -0.5821602), (-0.055950254, -0.9958678, 0.07153274), (-0.074988045, -0.9966337, 0.033135816), (-0.030176358, -0.99949926, 0.009523223), (0.7158347, -0.69805616, -0.017272353), (0.60234696, -0.7539536, -0.26216805), (-0.07499072, 0.99663365, 0.033133205), (0.6023448, 0.7539545, -0.2621706), (0.7158349, 0.6980559, -0.01727234), (-0.03017501, 0.99949926, 0.009522746), (-0.07499072, 0.99663365, 0.033133205), (-0.055952575, 0.99586797, 0.07152836), (0.28230774, 0.7624909, -0.5821596), (0.6023448, 0.7539545, -0.2621706), (-0.07499072, 0.99663365, 0.033133205), (-0.67789334, 0.6544608, 0.33487564), (-0.4576301, 0.6485674, 0.6082229), (-0.055952575, 0.99586797, 0.07152836), (-0.07499072, 0.99663365, 0.033133205), (-0.03017501, 0.99949926, 0.009522746), (-0.7269901, 0.6777657, 0.11008624), (-0.67789334, 0.6544608, 0.33487564), (-0.0103953155, 0.9999445, 0.0017230189), (0.7087619, 0.70544744, 0.00064940855), (0.70713127, 0.7070793, 0.002076539), (-0.003063919, 0.9999953, 0.000046573354), (-0.0103953155, 0.9999445, 0.0017230189), (-0.03017501, 0.99949926, 0.009522746), (0.7158349, 0.6980559, -0.01727234), (0.7087619, 0.70544744, 0.00064940855), (-0.0103953155, 0.9999445, 0.0017230189), (-0.7150727, 0.6988032, 0.018578412), (-0.7269901, 0.6777657, 0.11008624), (-0.03017501, 0.99949926, 0.009522746), (-0.0103953155, 0.9999445, 0.0017230189), (-0.003063919, 0.9999953, 0.000046573354), (-0.7076361, 0.7065766, -0.00085984834), (-0.7150727, 0.6988032, 0.018578412), (-0.010394987, -0.9999444, 0.0017258986), (-0.7150714, -0.6988046, 0.018580096), (-0.70763445, -0.70657825, -0.0008588911), (-0.0030635272, -0.99999535, 0.00004802911), (-0.010394987, -0.9999444, 0.0017258986), (-0.030176358, -0.99949926, 0.009523223), (-0.72699046, -0.6777651, 0.11008755), (-0.7150714, -0.6988046, 0.018580096), (-0.010394987, -0.9999444, 0.0017258986), (0.708761, -0.7054483, 0.00065112306), (0.7158347, -0.69805616, -0.017272353), (-0.030176358, -0.99949926, 0.009523223), (-0.010394987, -0.9999444, 0.0017258986), (-0.0030635272, -0.99999535, 0.00004802911), (0.7071303, -0.70708025, 0.0020776328), (0.708761, -0.7054483, 0.00065112306), (-0.9996209, -6.589694e-7, 0.027530324), (-0.7150727, 0.6988032, 0.018578412), (-0.7076361, 0.7065766, -0.00085984834), (-0.99999887, 3.0999587e-7, -0.0014610874), (-0.9996209, -6.589694e-7, 0.027530324), (-0.9877407, -0.000001276923, 0.15610358), (-0.7269901, 0.6777657, 0.11008624), (-0.7150727, 0.6988032, 0.018578412), (-0.9996209, -6.589694e-7, 0.027530324), (-0.7150714, -0.6988046, 0.018580096), (-0.72699046, -0.6777651, 0.11008755), (-0.9877407, -0.000001276923, 0.15610358), (-0.9996209, -6.589694e-7, 0.027530324), (-0.99999887, 3.0999587e-7, -0.0014610874), (-0.70763445, -0.70657825, -0.0008588911), (-0.7150714, -0.6988046, 0.018580096), (0.99998736, 2.496249e-7, 0.005024954), (0.708761, -0.7054483, 0.00065112306), (0.7071303, -0.70708025, 0.0020776328), (0.9999934, 7.3022284e-7, 0.003645597), (0.99998736, 2.496249e-7, 0.005024954), (0.9999966, -0.0000013945652, -0.002597482), (0.7158347, -0.69805616, -0.017272353), (0.708761, -0.7054483, 0.00065112306), (0.99998736, 2.496249e-7, 0.005024954), (0.7087619, 0.70544744, 0.00064940855), (0.7158349, 0.6980559, -0.01727234), (0.9999966, -0.0000013945652, -0.002597482), (0.99998736, 2.496249e-7, 0.005024954), (0.9999934, 7.3022284e-7, 0.003645597), (0.70713127, 0.7070793, 0.002076539), (0.7087619, 0.70544744, 0.00064940855), (-0.010063829, 0.99881965, 0.047518983), (0.016259842, 0.6886628, -0.72489935), (0.28230774, 0.7624909, -0.5821596), (-0.055952575, 0.99586797, 0.07152836), (-0.010063829, 0.99881965, 0.047518983), (-0.0015423533, 0.99995744, 0.009094789), (-0.0020967757, 0.69837344, -0.7157305), (0.016259842, 0.6886628, -0.72489935), (-0.010063829, 0.99881965, 0.047518983), (-0.15632924, 0.6620784, 0.7329484), (-0.013687962, 0.6937088, 0.7201255), (-0.0015423533, 0.99995744, 0.009094789), (-0.010063829, 0.99881965, 0.047518983), (-0.055952575, 0.99586797, 0.07152836), (-0.4576301, 0.6485674, 0.6082229), (-0.15632924, 0.6620784, 0.7329484), (-0.21936904, -0.0000014342525, 0.9756419), (-0.15632924, 0.6620784, 0.7329484), (-0.4576301, 0.6485674, 0.6082229), (-0.60716873, 3.9762142e-7, 0.79457295), (-0.21936904, -0.0000014342525, 0.9756419), (-0.020405792, -0.0019033739, 0.99979), (-0.013687962, 0.6937088, 0.7201255), (-0.15632924, 0.6620784, 0.7329484), (-0.21936904, -0.0000014342525, 0.9756419), (-0.15632828, -0.6620798, 0.7329473), (-0.012810137, -0.6947229, 0.7191634), (-0.020405792, -0.0019033739, 0.99979), (-0.21936904, -0.0000014342525, 0.9756419), (-0.60716873, 3.9762142e-7, 0.79457295), (-0.45762935, -0.6485639, 0.6082272), (-0.15632828, -0.6620798, 0.7329473), (-0.010064843, -0.9988196, 0.047519937), (-0.15632828, -0.6620798, 0.7329473), (-0.45762935, -0.6485639, 0.6082272), (-0.055950254, -0.9958678, 0.07153274), (-0.010064843, -0.9988196, 0.047519937), (-0.0004010848, -0.99995744, 0.009222532), (-0.012810137, -0.6947229, 0.7191634), (-0.15632828, -0.6620798, 0.7329473), (-0.010064843, -0.9988196, 0.047519937), (0.016259074, -0.68866414, -0.72489816), (-0.0011679202, -0.6993203, -0.7148075), (-0.0004010848, -0.99995744, 0.009222532), (-0.010064843, -0.9988196, 0.047519937), (-0.055950254, -0.9958678, 0.07153274), (0.2823117, -0.76248914, -0.5821602), (0.016259074, -0.68866414, -0.72489816), (0.9274261, -0.0000012706985, -0.37400645), (0.60234696, -0.7539536, -0.26216805), (0.7158347, -0.69805616, -0.017272353), (0.9999966, -0.0000013945652, -0.002597482), (0.9274261, -0.0000012706985, -0.37400645), (0.36444056, -0.0000022873223, -0.9312267), (0.2823117, -0.76248914, -0.5821602), (0.60234696, -0.7539536, -0.26216805), (0.9274261, -0.0000012706985, -0.37400645), (0.6023448, 0.7539545, -0.2621706), (0.28230774, 0.7624909, -0.5821596), (0.36444056, -0.0000022873223, -0.9312267), (0.9274261, -0.0000012706985, -0.37400645), (0.9999966, -0.0000013945652, -0.002597482), (0.7158349, 0.6980559, -0.01727234), (0.6023448, 0.7539545, -0.2621706), (1.2086905e-9, -0.0034275132, -0.9999941), (-3.030073e-8, -0.7067593, -0.7074541), (-0.0011679202, -0.6993203, -0.7148075), (-0.0052881874, -0.0019562747, -0.999984), (4.386319e-8, 0.9999911, 0.0042082337), (3.084186e-8, 0.7052147, -0.7089938), (-0.0020967757, 0.69837344, -0.7157305), (-0.0015423533, 0.99995744, 0.009094789), (-3.030073e-8, -0.7067593, -0.7074541), (-4.4193634e-8, -0.99999064, 0.0043301787), (-0.0004010848, -0.99995744, 0.009222532), (-0.0011679202, -0.6993203, -0.7148075), (-1.34425715e-8, -0.003426923, 0.99999416), (2.72164e-8, 0.7026588, 0.71152705), (-0.013687962, 0.6937088, 0.7201255), (-0.020405792, -0.0019033739, 0.99979), (2.72164e-8, 0.7026588, 0.71152705), (4.386319e-8, 0.9999911, 0.0042082337), (-0.0015423533, 0.99995744, 0.009094789), (-0.013687962, 0.6937088, 0.7201255), (-4.4193634e-8, -0.99999064, 0.0043301787), (-4.107174e-8, -0.7041373, 0.7100638), (-0.012810137, -0.6947229, 0.7191634), (-0.0004010848, -0.99995744, 0.009222532), (-4.107174e-8, -0.7041373, 0.7100638), (-1.34425715e-8, -0.003426923, 0.99999416), (-0.020405792, -0.0019033739, 0.99979), (-0.012810137, -0.6947229, 0.7191634), (3.532354e-8, 0.79167664, -0.6109404), (1.3760161e-9, 0.0051445724, -0.99998677), (0.0016592422, 0.0044793356, -0.99998856), (0.00047181582, 0.7912857, -0.6114464), (1.3760161e-9, 0.0051445724, -0.99998677), (-3.3858598e-8, -0.7858203, -0.6184549), (0.0021643478, -0.7857423, -0.61855024), (0.0016592422, 0.0044793356, -0.99998856), (4.3835648e-8, 0.9999853, 0.005427793), (3.532354e-8, 0.79167664, -0.6109404), (0.00047181582, 0.7912857, -0.6114464), (-0.0007830539, 0.9999883, 0.004778744), (-3.3858598e-8, -0.7858203, -0.6184549), (-4.3519535e-8, -0.9999848, 0.0055084783), (0.0010829291, -0.9999877, 0.0048228083), (0.0021643478, -0.7857423, -0.61855024), (-4.5346926e-9, 0.008238521, 0.9999661), (3.301405e-8, 0.7997695, 0.6003071), (-0.0032757984, 0.80089134, 0.59880084), (-0.0042834566, 0.007536753, 0.99996245), (3.301405e-8, 0.7997695, 0.6003071), (4.3835648e-8, 0.9999853, 0.005427793), (-0.0007830539, 0.9999883, 0.004778744), (-0.0032757984, 0.80089134, 0.59880084), (-4.3519535e-8, -0.9999848, 0.0055084783), (-3.7226506e-8, -0.7921182, 0.6103677), (-0.0016138472, -0.793545, 0.60850936), (0.0010829291, -0.9999877, 0.0048228083), (-3.7226506e-8, -0.7921182, 0.6103677), (-4.5346926e-9, 0.008238521, 0.9999661), (-0.0042834566, 0.007536753, 0.99996245), (-0.0016138472, -0.793545, 0.60850936)] (
                interpolation = "faceVarying"
            )
            point3f[] points = [(0.5597724, -0.00011586587, 0.17009121), (0.61641276, -0.00011568877, 0.19391152), (0.5924606, -0.030242268, 0.18144634), (0.59246063, 0.030010441, 0.18144633), (0.5974368, 0.029791536, 0.118730605), (0.5974368, -0.030023362, 0.11873061), (0.62724185, -0.00011595861, 0.11985936), (0.56763154, -0.00011586621, 0.117601864), (0.56916225, 0.02991769, 0.19644323), (0.5785526, -0.000115687115, 0.22279471), (0.56916225, -0.030149335, 0.19644323), (0.56850857, -0.00011595604, 0.16898105), (0.5762049, -0.022139944, 0.21620676), (0.5762049, 0.0219083, 0.21620703), (0.56211984, 0.022910351, 0.17667924), (0.56211984, -0.023141991, 0.17667924), (0.47590742, -0.0001158622, 0.22669585), (0.47055566, -0.00011586197, 0.16850579), (0.47323167, 0.029714232, 0.19760095), (0.47323167, -0.029945778, 0.19760095), (0.60143524, -0.00011568811, 0.21295226), (0.57449645, -0.023352457, 0.17209746), (0.5839725, 0.030089816, 0.1919111), (0.61042434, -0.02206856, 0.19079539), (0.58397245, -0.030321462, 0.1919111), (0.61042434, 0.021836916, 0.19079539), (0.5665093, -0.000115955954, 0.17087048), (0.57449645, 0.023120817, 0.17209746), (0.5963682, -0.030084958, 0.15905179), (0.5681043, -0.00011595603, 0.15452424), (0.5963682, 0.02985331, 0.15905142), (0.62463206, -0.0001159585, 0.16357888), (0.61979055, 0.022133939, 0.11957733), (0.5750828, -0.022727074, 0.11788407), (0.5750828, 0.022495255, 0.11788407), (0.61979055, -0.022365766, 0.11957733), (0.5671244, -0.00011595598, -0.0073046386), (0.6270473, -0.0001159586, -0.0073046237), (0.59708565, -0.030009266, -0.0073046386), (0.59708565, 0.029777348, -0.0073046237), (0.47122476, -0.022663051, 0.17577954), (0.47523868, -0.022313591, 0.21942219), (0.47122476, 0.022431418, 0.17577952), (0.47523868, 0.022082048, 0.21942219), (0.5970695, 0.021791304, 0.20769176), (0.57087517, 0.02328558, 0.17613062), (0.5970695, -0.022022858, 0.20769176), (0.57087517, -0.023517132, 0.17613062), (0.5751703, -0.022978934, 0.15565631), (0.6175661, -0.022206388, 0.16244699), (0.5751703, 0.022747293, 0.15565631), (0.6175661, 0.021974744, 0.16244699), (0.619557, 0.022303909, -0.0073046237), (0.5746147, 0.022303913, -0.0073046386), (0.5746147, -0.022536002, -0.0073046386), (0.619557, -0.022536006, -0.0073046237), (0.5850257, -0.000049153467, 0.13080212), (0.5850257, -0.00004870452, 0.10558107), (0.5850257, 0.0041080047, 0.118087724), (0.5850257, -0.004339559, 0.11808626), (0.5850257, -0.002515488, 0.10654404), (0.5850257, -0.0022031108, 0.12980723), (0.5850257, 0.0023159883, 0.1065703), (0.5850257, 0.002007472, 0.12977818), (1.7186114e-11, 0.00039317246, 0.22920859), (1.7186114e-11, 0.00039317246, 0.16939373), (-1.2856417e-9, -0.029412054, 0.19930115), (1.3200138e-9, 0.030198395, 0.19930117), (-9.599288e-10, -0.02196061, 0.22155103), (9.94305e-10, 0.022747045, 0.17669), (9.94305e-10, 0.022747045, 0.22191232), (-9.599288e-10, -0.02196061, 0.17705129), (-0.5597724, -0.00011581693, 0.17009121), (-0.61641276, -0.00011563488, 0.19391152), (-0.5924606, -0.030242216, 0.18144634), (-0.59246063, 0.030010493, 0.18144633), (-0.5974368, 0.029791588, 0.118730605), (-0.5974368, -0.03002331, 0.11873061), (-0.62724185, -0.00011590378, 0.11985936), (-0.56763154, -0.00011581659, 0.117601864), (-0.56916225, 0.02991774, 0.19644323), (-0.5785526, -0.00011563653, 0.22279471), (-0.56916225, -0.030149287, 0.19644323), (-0.56850857, -0.00011590635, 0.16898105), (-0.5762049, -0.022139892, 0.21620676), (-0.5762049, 0.021908352, 0.21620703), (-0.56211984, 0.0229104, 0.17667924), (-0.56211984, -0.023141943, 0.17667924), (-0.47590742, -0.0001158206, 0.22669585), (-0.47055566, -0.00011582083, 0.16850579), (-0.47323167, 0.029714273, 0.19760095), (-0.47323167, -0.029945737, 0.19760095), (-0.60143524, -0.000115635536, 0.21295226), (-0.57449645, -0.023352409, 0.17209746), (-0.5839725, 0.030089868, 0.1919111), (-0.61042434, -0.022068508, 0.19079539), (-0.58397245, -0.03032141, 0.1919111), (-0.61042434, 0.021836968, 0.19079539), (-0.5665093, -0.000115906434, 0.17087048), (-0.57449645, 0.023120865, 0.17209746), (-0.5963682, -0.030084906, 0.15905179), (-0.5681043, -0.00011590636, 0.15452424), (-0.5963682, 0.029853363, 0.15905142), (-0.62463206, -0.00011590389, 0.16357888), (-0.61979055, 0.022133995, 0.11957733), (-0.5750828, -0.022727026, 0.11788407), (-0.5750828, 0.022495303, 0.11788407), (-0.61979055, -0.02236571, 0.11957733), (-0.5671244, -0.000115906405, -0.0073046386), (-0.6270473, -0.000115903786, -0.0073046237), (-0.59708565, -0.030009214, -0.0073046386), (-0.59708565, 0.0297774, -0.0073046237), (-0.47122476, -0.02266301, 0.17577954), (-0.47523868, -0.02231355, 0.21942219), (-0.47122476, 0.02243146, 0.17577952), (-0.47523868, 0.022082089, 0.21942219), (-0.5970695, 0.021791356, 0.20769176), (-0.57087517, 0.02328563, 0.17613062), (-0.5970695, -0.022022806, 0.20769176), (-0.57087517, -0.023517083, 0.17613062), (-0.5751703, -0.022978885, 0.15565631), (-0.6175661, -0.022206336, 0.16244699), (-0.5751703, 0.022747342, 0.15565631), (-0.6175661, 0.021974796, 0.16244699), (-0.619557, 0.022303965, -0.0073046237), (-0.5746147, 0.022303961, -0.0073046386), (-0.5746147, -0.022535954, -0.0073046386), (-0.619557, -0.02253595, -0.0073046237), (3.1076045e-11, 0.0007109371, 0.1333125), (3.0903353e-11, 0.0007069863, 0.10646799), (-1.6653069e-10, -0.0038097783, 0.119865544), (2.0071061e-10, 0.004591724, 0.119865954), (-6.484651e-11, -0.0014835153, 0.13224316), (1.048901e-10, 0.0023996057, 0.1072883), (1.05733935e-10, 0.0024189104, 0.13247609), (-6.4041925e-11, -0.0014651085, 0.107520565), (-0.5850257, -0.000049102324, 0.13080212), (-0.5850257, -0.00004865338, 0.10558107), (-0.5850257, 0.004108056, 0.118087724), (-0.5850257, -0.004339508, 0.11808626), (-0.5850257, -0.0025154368, 0.10654404), (-0.5850257, -0.0022030596, 0.12980723), (-0.5850257, 0.0023160395, 0.1065703), (-0.5850257, 0.0020075233, 0.12977818)]
            texCoord2f[] primvars:st = [(0, 0), (0, 0), (0, 0), (0, 0), (0, 0), (0, 0), (0, 0), (0, 0), (0, 0), (0, 0), (0, 0), (0, 0), (0, 0), (0, 0), (0, 0), (0, 0), (0, 0), (0, 0), (0, 0), (0, 0), (0, 0), (0, 0), (0, 0), (0, 0), (0, 0), (0, 0), (0, 0), (0, 0), (0, 0), (0, 0), (0, 0), (0, 0), (0, 0), (0, 0), (0, 0), (0, 0), (0, 0), (0, 0), (0, 0), (0, 0), (0, 0), (0, 0), (0, 0), (0, 0), (0, 0), (0, 0), (0, 0), (0, 0), (0, 0), (0, 0), (0, 0), (0, 0), (0, 0), (0, 0), (0, 0), (0, 0), (0, 0), (0, 0), (0, 0), (0, 0), (0, 0), (0, 0), (0, 0), (0, 0), (0, 0), (0, 0), (0, 0), (0, 0), (0, 0), (0, 0), (0, 0), (0, 0), (0, 0), (0, 0), (0, 0), (0, 0), (0, 0), (0, 0), (0, 0), (0, 0), (0, 0), (0, 0), (0, 0), (0, 0), (0, 0), (0, 0), (0, 0), (0, 0), (0, 0), (0, 0), (0, 0), (0, 0), (0, 0), (0, 0), (0, 0), (0, 0), (0, 0), (0, 0), (0, 0), (0, 0), (0, 0), (0, 0), (0, 0), (0, 0), (0, 0), (0, 0), (0, 0), (0, 0), (0, 0), (0, 0), (0, 0), (0, 0), (0, 0), (0, 0), (0, 0), (0, 0), (0, 0), (0, 0), (0, 0), (0, 0), (0, 0), (0, 0), (0, 0), (0, 0), (0, 0), (0, 0), (0, 0), (0, 0), (0, 0), (0, 0), (0, 0), (0, 0), (0, 0), (0, 0), (0, 0), (0, 0), (0, 0), (0, 0), (0, 0), (0, 0), (0, 0), (0, 0), (0, 0), (0, 0)] (
                interpolation = "faceVarying"
            )
            int[] primvars:st:indices = [69, 42, 17, 65, 0, 26, 47, 15, 0, 15, 40, 17, 0, 17, 42, 14, 0, 14, 45, 26, 1, 31, 51, 25, 1, 25, 44, 20, 1, 20, 46, 23, 1, 23, 49, 31, 2, 28, 49, 23, 2, 23, 46, 24, 2, 24, 47, 21, 2, 21, 48, 28, 3, 30, 50, 27, 3, 27, 45, 22, 3, 22, 44, 25, 3, 25, 51, 30, 4, 39, 53, 34, 4, 34, 50, 30, 4, 30, 51, 32, 4, 32, 52, 39, 5, 38, 55, 35, 5, 35, 49, 28, 5, 28, 48, 33, 5, 33, 54, 38, 6, 37, 52, 32, 6, 32, 51, 31, 6, 31, 49, 35, 6, 35, 55, 37, 7, 36, 54, 33, 7, 33, 48, 29, 7, 29, 50, 34, 7, 34, 53, 36, 8, 22, 45, 14, 8, 14, 42, 18, 8, 18, 43, 13, 8, 13, 44, 22, 9, 20, 44, 13, 9, 13, 43, 16, 9, 16, 41, 12, 9, 12, 46, 20, 10, 24, 46, 12, 10, 12, 41, 19, 10, 19, 40, 15, 10, 15, 47, 24, 11, 29, 48, 21, 11, 21, 47, 26, 11, 26, 45, 27, 11, 27, 50, 29, 65, 17, 40, 71, 67, 18, 42, 69, 71, 40, 19, 66, 64, 16, 43, 70, 70, 43, 18, 67, 66, 19, 41, 68, 68, 41, 16, 64, 133, 62, 57, 129, 129, 57, 60, 135, 131, 58, 62, 133, 135, 60, 59, 130, 128, 56, 63, 134, 134, 63, 58, 131, 130, 59, 61, 132, 132, 61, 56, 128, 69, 65, 89, 114, 72, 87, 119, 98, 72, 89, 112, 87, 72, 86, 114, 89, 72, 98, 117, 86, 73, 97, 123, 103, 73, 92, 116, 97, 73, 95, 118, 92, 73, 103, 121, 95, 74, 95, 121, 100, 74, 96, 118, 95, 74, 93, 119, 96, 74, 100, 120, 93, 75, 99, 122, 102, 75, 94, 117, 99, 75, 97, 116, 94, 75, 102, 123, 97, 76, 106, 125, 111, 76, 102, 122, 106, 76, 104, 123, 102, 76, 111, 124, 104, 77, 107, 127, 110, 77, 100, 121, 107, 77, 105, 120, 100, 77, 110, 126, 105, 78, 104, 124, 109, 78, 103, 123, 104, 78, 107, 121, 103, 78, 109, 127, 107, 79, 105, 126, 108, 79, 101, 120, 105, 79, 106, 122, 101, 79, 108, 125, 106, 80, 86, 117, 94, 80, 90, 114, 86, 80, 85, 115, 90, 80, 94, 116, 85, 81, 85, 116, 92, 81, 88, 115, 85, 81, 84, 113, 88, 81, 92, 118, 84, 82, 84, 118, 96, 82, 91, 113, 84, 82, 87, 112, 91, 82, 96, 119, 87, 83, 93, 120, 101, 83, 98, 119, 93, 83, 99, 117, 98, 83, 101, 122, 99, 65, 71, 112, 89, 67, 69, 114, 90, 71, 66, 91, 112, 64, 70, 115, 88, 70, 67, 90, 115, 66, 68, 113, 91, 68, 64, 88, 113, 133, 129, 137, 142, 129, 135, 140, 137, 131, 133, 142, 138, 135, 130, 139, 140, 128, 134, 143, 136, 134, 131, 138, 143, 130, 132, 141, 139, 132, 128, 136, 141]
            uniform token subdivisionScheme = "none"
            custom string userProperties:blender:data_name = "Cube.033"
        }
    }

    def Scope "_materials"
    {
        def Material "Black"
        {
            token outputs:surface.connect = </root/_materials/Black/Principled_BSDF.outputs:surface>
            custom string userProperties:blender:data_name = "Black"

            def Shader "Principled_BSDF"
            {
                uniform token info:id = "UsdPreviewSurface"
                float inputs:clearcoat = 0
                float inputs:clearcoatRoughness = 0.03
                color3f inputs:diffuseColor = (0.027209053, 0.027209053, 0.027209053)
                color3f inputs:emissiveColor = (0, 0, 0)
                float inputs:ior = 1.5
                float inputs:metallic = 0
                float inputs:opacity = 1
                float inputs:roughness = 0.5
                float inputs:specular = 0.5
                token outputs:surface
            }
        }
    }
}

