#usda 1.0
(
    defaultPrim = "root"
    doc = "Blender v5.1.2"
    metersPerUnit = 1
    upAxis = "Y"
)

def Xform "root" (
    customData = {
        dictionary Blender = {
            bool generated = 1
        }
    }
)
{
    float3 xformOp:rotateXYZ = (-90, -0, 0)
    uniform token[] xformOpOrder = ["xformOp:rotateXYZ"]

    def Xform "Fence2"
    {
        custom string userProperties:blender:object_name = "Fence2"

        def Mesh "Cube_024" (
            active = true
            prepend apiSchemas = ["MaterialBindingAPI"]
        )
        {
            uniform bool doubleSided = 1
            float3[] extent = [(-2.9450629, -0.08275307, -0.009339929), (2.9450629, 0.08275295, 1.1640354)]
            int[] faceVertexCounts = [4, 4, 4, 4, 4, 4, 4, 4, 4, 4, 4, 4, 4, 4, 4, 4, 4, 4, 4, 4, 4, 4, 4, 4, 4, 4, 4, 4, 4, 4, 4, 4, 4, 4, 4, 4, 4, 4, 4, 4, 4, 4, 4, 4, 4, 4, 4, 4, 4, 4, 4, 4, 4, 4, 4, 4, 4, 4, 4, 4, 4, 4, 4, 4, 4, 4, 4, 4, 4, 4, 4, 4, 4, 4, 4, 4, 4, 4, 4, 4, 4, 4, 4, 4, 4, 4, 4, 4, 4, 4, 4, 4, 4, 4, 4, 4, 4, 4, 4, 4, 4, 4, 4, 4, 4, 4, 4, 4, 4, 4, 4, 4, 4, 4, 4, 4, 4, 4, 4, 4, 4, 4, 4, 4, 4, 4, 4, 4, 4, 4, 4, 4, 4, 4, 4, 4, 4, 4, 4, 4, 4, 4, 4, 4, 4, 4, 4, 4, 4, 4, 4, 4, 4, 4, 4, 4, 4, 4, 4, 4, 4, 4]
            int[] faceVertexIndices = [0, 1, 3, 2, 8, 9, 7, 6, 6, 7, 5, 4, 10, 11, 1, 0, 8, 6, 4, 10, 9, 3, 1, 11, 7, 9, 11, 5, 2, 8, 10, 0, 4, 5, 11, 10, 2, 3, 9, 8, 12, 13, 15, 14, 20, 21, 19, 18, 18, 19, 17, 16, 22, 23, 13, 12, 20, 18, 16, 22, 21, 15, 13, 23, 19, 21, 23, 17, 14, 20, 22, 12, 16, 17, 23, 22, 14, 15, 21, 20, 24, 25, 27, 26, 32, 33, 31, 30, 30, 31, 29, 28, 34, 35, 25, 24, 32, 30, 28, 34, 33, 27, 25, 35, 31, 33, 35, 29, 26, 32, 34, 24, 28, 29, 35, 34, 26, 27, 33, 32, 36, 37, 39, 38, 44, 45, 43, 42, 42, 43, 41, 40, 46, 47, 37, 36, 44, 42, 40, 46, 45, 39, 37, 47, 43, 45, 47, 41, 38, 44, 46, 36, 40, 41, 47, 46, 38, 39, 45, 44, 48, 49, 51, 50, 56, 57, 55, 54, 54, 55, 53, 52, 58, 59, 49, 48, 56, 54, 52, 58, 57, 51, 49, 59, 55, 57, 59, 53, 50, 56, 58, 48, 52, 53, 59, 58, 50, 51, 57, 56, 60, 61, 63, 62, 68, 69, 67, 66, 66, 67, 65, 64, 70, 71, 61, 60, 68, 66, 64, 70, 69, 63, 61, 71, 67, 69, 71, 65, 62, 68, 70, 60, 64, 65, 71, 70, 62, 63, 69, 68, 72, 74, 75, 73, 80, 78, 79, 81, 78, 76, 77, 79, 82, 72, 73, 83, 80, 82, 76, 78, 81, 83, 73, 75, 79, 77, 83, 81, 74, 72, 82, 80, 76, 82, 83, 77, 74, 80, 81, 75, 84, 86, 87, 85, 92, 90, 91, 93, 90, 88, 89, 91, 94, 84, 85, 95, 92, 94, 88, 90, 93, 95, 85, 87, 91, 89, 95, 93, 86, 84, 94, 92, 88, 94, 95, 89, 86, 92, 93, 87, 96, 98, 99, 97, 104, 102, 103, 105, 102, 100, 101, 103, 106, 96, 97, 107, 104, 106, 100, 102, 105, 107, 97, 99, 103, 101, 107, 105, 98, 96, 106, 104, 100, 106, 107, 101, 98, 104, 105, 99, 108, 110, 111, 109, 116, 114, 115, 117, 114, 112, 113, 115, 118, 108, 109, 119, 116, 118, 112, 114, 117, 119, 109, 111, 115, 113, 119, 117, 110, 108, 118, 116, 112, 118, 119, 113, 110, 116, 117, 111, 120, 122, 123, 121, 128, 126, 127, 129, 126, 124, 125, 127, 130, 120, 121, 131, 128, 130, 124, 126, 129, 131, 121, 123, 127, 125, 131, 129, 122, 120, 130, 128, 124, 130, 131, 125, 122, 128, 129, 123, 132, 134, 135, 133, 140, 138, 139, 141, 138, 136, 137, 139, 142, 132, 133, 143, 140, 142, 136, 138, 141, 143, 133, 135, 139, 137, 143, 141, 134, 132, 142, 140, 136, 142, 143, 137, 134, 140, 141, 135, 144, 145, 147, 146, 146, 147, 151, 150, 150, 151, 149, 148, 148, 149, 145, 144, 146, 150, 148, 144, 151, 147, 145, 149, 194, 152, 154, 192, 193, 192, 154, 155, 156, 177, 179, 157, 157, 179, 183, 159, 159, 183, 181, 158, 158, 181, 177, 156, 157, 159, 158, 156, 160, 185, 187, 161, 161, 187, 191, 163, 163, 191, 189, 162, 162, 189, 185, 160, 161, 163, 162, 160, 155, 154, 152, 153, 153, 152, 194, 195, 153, 195, 193, 155, 164, 166, 167, 165, 166, 170, 171, 167, 170, 168, 169, 171, 168, 164, 165, 169, 166, 164, 168, 170, 171, 169, 165, 167, 194, 192, 174, 172, 193, 175, 174, 192, 176, 178, 179, 177, 178, 182, 183, 179, 182, 180, 181, 183, 180, 176, 177, 181, 178, 176, 180, 182, 184, 186, 187, 185, 186, 190, 191, 187, 190, 188, 189, 191, 188, 184, 185, 189, 186, 184, 188, 190, 175, 173, 172, 174, 173, 195, 194, 172, 173, 175, 193, 195]
            rel material:binding = </root/_materials/Brown>
            normal3f[] normals = [(0.99999994, 0, 0), (0.99999994, 0, 0), (0.99999994, 0, 0), (0.99999994, 0, 0), (-4.429543e-8, -1, 0), (-4.4295437e-8, -1, 0), (-3.5436393e-8, -1, 0), (-3.5436393e-8, -1, 0), (-0.99999994, 0, 0), (-0.99999994, 0, 0), (-0.99999994, 0, 0), (-0.99999994, 0, 0), (4.429543e-8, 1, 0), (4.4295437e-8, 1, 0), (5.315446e-8, 0.99999994, 0), (5.315446e-8, 0.99999994, 0), (2.092274e-9, 0, -1), (-1.2650083e-8, 0, -1), (-1.2650083e-8, 0, -1), (2.0922712e-9, 0, -1), (0.87344205, 0, 0.48692814), (0.87344205, 0, 0.48692814), (0.87344205, 0, 0.48692814), (0.87344205, 0, 0.48692814), (-0.87344253, 0, 0.48692736), (-0.87344253, 0, 0.48692736), (-0.87344253, 0, 0.48692736), (-0.87344253, 0, 0.48692736), (1.6834628e-8, 0, -1), (2.092274e-9, 0, -1), (2.0922712e-9, 0, -1), (1.6834628e-8, 0, -1), (3.5436393e-8, 1, 0), (3.5436393e-8, 1, 0), (4.4295437e-8, 1, 0), (4.429543e-8, 1, 0), (-5.315446e-8, -0.99999994, 0), (-5.315446e-8, -0.99999994, 0), (-4.4295437e-8, -1, 0), (-4.429543e-8, -1, 0), (0.99999994, 0, 0), (0.99999994, 0, 0), (0.99999994, 0, 0), (0.99999994, 0, 0), (-4.4295472e-8, -1, 0), (-4.4295476e-8, -1, 0), (-3.5436354e-8, -1, 0), (-3.5436354e-8, -1, 0), (-0.99999994, 0.000002209006, 0), (-0.99999994, 0.000002209006, 0), (-0.99999994, 0.000002209006, 0), (-0.99999994, 0.000002209006, 0), (4.4295458e-8, 1, 0), (4.429547e-8, 1, 0), (5.3154526e-8, 1, 0), (5.3154526e-8, 1, 0), (2.0922706e-9, 0, -1), (-1.265009e-8, 0, -1), (-1.265009e-8, 0, -1), (2.0922677e-9, 0, -1), (0.87344205, 0, 0.48692814), (0.87344205, 0, 0.48692814), (0.87344205, 0, 0.48692814), (0.87344205, 0, 0.48692814), (-0.8734426, 0.0000022319064, 0.48692712), (-0.8734426, 0.0000022319064, 0.48692712), (-0.8734426, 0.0000022319064, 0.48692712), (-0.8734426, 0.0000022319064, 0.48692712), (1.6834628e-8, 0, -1), (2.0922706e-9, 0, -1), (2.0922677e-9, 0, -1), (1.6834628e-8, 0, -1), (3.5436393e-8, 1, 0), (3.5436393e-8, 1, 0), (4.429547e-8, 1, 0), (4.4295458e-8, 1, 0), (-5.315459e-8, -1, 0), (-5.315459e-8, -1, 0), (-4.4295476e-8, -1, 0), (-4.4295472e-8, -1, 0), (0.99999994, -0.000002209006, 0), (0.99999994, -0.000002209006, 0), (0.99999994, -0.000002209006, 0), (0.99999994, -0.000002209006, 0), (-4.429546e-8, -1, 0), (-4.429545e-8, -1, 0), (-3.5436265e-8, -0.99999994, 0), (-3.5436265e-8, -0.99999994, 0), (-0.99999994, 0.000002209006, 0), (-0.99999994, 0.000002209006, 0), (-0.99999994, 0.000002209006, 0), (-0.99999994, 0.000002209006, 0), (4.429546e-8, 1, 0), (4.429545e-8, 1, 0), (5.315465e-8, 1, 0), (5.315465e-8, 1, 0), (2.0922821e-9, 0, -1), (-1.2650068e-8, 0, -0.99999994), (-1.2650068e-8, 0, -0.99999994), (2.0923177e-9, 0, -1), (0.8734425, 0, 0.48692727), (0.8734425, 0, 0.48692727), (0.8734425, 0, 0.48692727), (0.8734425, 0, 0.48692727), (-0.87344223, 0, 0.48692778), (-0.87344223, 0, 0.48692778), (-0.87344223, 0, 0.48692778), (-0.87344223, 0, 0.48692778), (1.6834667e-8, 0, -1), (2.0922821e-9, 0, -1), (2.0923177e-9, 0, -1), (1.6834667e-8, 0, -1), (3.5436265e-8, 0.99999994, 0), (3.5436265e-8, 0.99999994, 0), (4.429545e-8, 1, 0), (4.429546e-8, 1, 0), (-5.315465e-8, -1, 0), (-5.315465e-8, -1, 0), (-4.429545e-8, -1, 0), (-4.429546e-8, -1, 0), (0.99999994, -0.000002209006, 0), (0.99999994, -0.000002209006, 0), (0.99999994, -0.000002209006, 0), (0.99999994, -0.000002209006, 0), (-6.1127713e-7, -1, 0), (-6.1127736e-7, -1, 0), (-5.315459e-8, -1, 0), (-5.315459e-8, -1, 0), (-0.99999994, 0.000002209006, 0), (-0.99999994, 0.000002209006, 0), (-0.99999994, 0.000002209006, 0), (-0.99999994, 0.000002209006, 0), (6.1127713e-7, 1, 0), (6.1127736e-7, 1, 0), (0.0000011693996, 1, 0), (0.0000011693996, 1, 0), (1.4549733e-8, 0, -1), (1.6834667e-8, 0, -1), (1.6834667e-8, 0, -1), (1.4549729e-8, 0, -1), (0.87344235, 0, 0.48692772), (0.87344235, 0, 0.48692772), (0.87344235, 0, 0.48692772), (0.87344235, 0, 0.48692772), (-0.87344235, 0.0000011159531, 0.48692736), (-0.87344235, 0.0000011159531, 0.48692736), (-0.87344235, 0.0000011159531, 0.48692736), (-0.87344235, 0.0000011159531, 0.48692736), (1.2264795e-8, 0, -0.99999994), (1.4549733e-8, 0, -1), (1.4549729e-8, 0, -1), (1.2264795e-8, 0, -0.99999994), (5.315459e-8, 1, 0), (5.315459e-8, 1, 0), (6.1127736e-7, 1, 0), (6.1127713e-7, 1, 0), (-0.0000011693996, -1, 0), (-0.0000011693996, -1, 0), (-6.1127736e-7, -1, 0), (-6.1127713e-7, -1, 0), (0.99999994, 0, 0), (0.99999994, 0, 0), (0.99999994, 0, 0), (0.99999994, 0, 0), (-4.4295472e-8, -1, 0), (-4.4295472e-8, -1, 0), (-5.3154526e-8, -1, 0), (-5.3154526e-8, -1, 0), (-0.99999994, 0, 0), (-0.99999994, 0, 0), (-0.99999994, 0, 0), (-0.99999994, 0, 0), (4.4295458e-8, 1, 0), (4.4295458e-8, 1, 0), (3.5436393e-8, 1, 0), (3.5436393e-8, 1, 0), (2.0922892e-9, 0, -1), (1.6834656e-8, 0, -1), (1.6834656e-8, 0, -1), (2.0922921e-9, 0, -1), (0.8734424, 0, 0.48692745), (0.8734424, 0, 0.48692745), (0.8734424, 0, 0.48692745), (0.8734424, 0, 0.48692745), (-0.87344235, 0, 0.48692763), (-0.87344235, 0, 0.48692763), (-0.87344235, 0, 0.48692763), (-0.87344235, 0, 0.48692763), (-1.2650075e-8, 0, -1), (2.0922892e-9, 0, -1), (2.0922921e-9, 0, -1), (-1.2650075e-8, 0, -1), (5.3154526e-8, 1, 0), (5.3154526e-8, 1, 0), (4.4295458e-8, 1, 0), (4.4295458e-8, 1, 0), (-3.5436415e-8, -1, 0), (-3.5436415e-8, -1, 0), (-4.4295472e-8, -1, 0), (-4.4295472e-8, -1, 0), (0.99999994, 0, 0), (0.99999994, 0, 0), (0.99999994, 0, 0), (0.99999994, 0, 0), (-4.4295458e-8, -1, 0), (-4.4295454e-8, -1, 0), (-5.3154544e-8, -1, 0), (-5.3154544e-8, -1, 0), (-0.99999994, 0, 0), (-0.99999994, 0, 0), (-0.99999994, 0, 0), (-0.99999994, 0, 0), (4.4295465e-8, 1, 0), (4.429546e-8, 1, 0), (3.5436383e-8, 1, 0), (3.5436383e-8, 1, 0), (2.0922852e-9, 0, -1), (1.6834656e-8, 0, -1), (1.6834656e-8, 0, -1), (2.0922881e-9, 0, -1), (0.87344253, 0, 0.4869272), (0.87344253, 0, 0.4869272), (0.87344253, 0, 0.4869272), (0.87344253, 0, 0.4869272), (-0.87344235, 0, 0.48692763), (-0.87344235, 0, 0.48692763), (-0.87344235, 0, 0.48692763), (-0.87344235, 0, 0.48692763), (-1.2650083e-8, 0, -1), (2.0922852e-9, 0, -1), (2.0922881e-9, 0, -1), (-1.2650083e-8, 0, -1), (5.3154544e-8, 1, 0), (5.3154544e-8, 1, 0), (4.429546e-8, 1, 0), (4.4295465e-8, 1, 0), (-3.5436372e-8, -1, 0), (-3.5436372e-8, -1, 0), (-4.4295454e-8, -1, 0), (-4.4295458e-8, -1, 0), (-0.99999994, 0, 0), (-0.99999994, 0, 0), (-0.99999994, 0, 0), (-0.99999994, 0, 0), (-4.429544e-8, -1, 0), (-3.5436365e-8, -1, 0), (-3.5436365e-8, -1, 0), (-4.4295447e-8, -1, 0), (0.99999994, 0, 0), (0.99999994, 0, 0), (0.99999994, 0, 0), (0.99999994, 0, 0), (4.429544e-8, 1, 0), (5.3154512e-8, 1, 0), (5.3154512e-8, 1, 0), (4.4295447e-8, 1, 0), (0, 0, -1), (0, 0, -1), (0, 0, -1), (0, 0, -1), (-0.873442, 0, 0.48692816), (-0.873442, 0, 0.48692816), (-0.873442, 0, 0.48692816), (-0.873442, 0, 0.48692816), (0.87344253, 0, 0.48692736), (0.87344253, 0, 0.48692736), (0.87344253, 0, 0.48692736), (0.87344253, 0, 0.48692736), (0, 0, -1), (0, 0, -1), (0, 0, -1), (0, 0, -1), (3.5436365e-8, 1, 0), (4.429544e-8, 1, 0), (4.4295447e-8, 1, 0), (3.5436365e-8, 1, 0), (-5.3154512e-8, -1, 0), (-4.429544e-8, -1, 0), (-4.4295447e-8, -1, 0), (-5.3154512e-8, -1, 0), (-0.99999994, 0, 0), (-0.99999994, 0, 0), (-0.99999994, 0, 0), (-0.99999994, 0, 0), (-4.429544e-8, -1, 0), (-3.5436333e-8, -1, 0), (-3.5436333e-8, -1, 0), (-4.4295447e-8, -1, 0), (0.99999994, -0.000002209006, 0), (0.99999994, -0.000002209006, 0), (0.99999994, -0.000002209006, 0), (0.99999994, -0.000002209006, 0), (4.429542e-8, 1, 0), (5.3154544e-8, 1, 0), (5.3154544e-8, 1, 0), (4.4295422e-8, 1, 0), (0, 0, -1), (0, 0, -1), (0, 0, -1), (0, 0, -1), (-0.873442, 0, 0.48692816), (-0.873442, 0, 0.48692816), (-0.873442, 0, 0.48692816), (-0.873442, 0, 0.48692816), (0.87344235, 0, 0.48692754), (0.87344235, 0, 0.48692754), (0.87344235, 0, 0.48692754), (0.87344235, 0, 0.48692754), (0, 0, -1), (0, 0, -1), (0, 0, -1), (0, 0, -1), (3.5436287e-8, 0.99999994, 0), (4.429542e-8, 1, 0), (4.4295422e-8, 1, 0), (3.5436287e-8, 0.99999994, 0), (-5.3154544e-8, -1, 0), (-4.429544e-8, -1, 0), (-4.4295447e-8, -1, 0), (-5.3154544e-8, -1, 0), (-0.99999994, 0.000002209006, 0), (-0.99999994, 0.000002209006, 0), (-0.99999994, 0.000002209006, 0), (-0.99999994, 0.000002209006, 0), (-4.429546e-8, -1, 0), (-3.5436276e-8, -0.99999994, 0), (-3.5436276e-8, -0.99999994, 0), (-4.429545e-8, -1, 0), (0.99999994, 0, 0), (0.99999994, 0, 0), (0.99999994, 0, 0), (0.99999994, 0, 0), (4.4295465e-8, 1, 0), (5.315459e-8, 1, 0), (5.315459e-8, 1, 0), (4.4295458e-8, 1, 0), (0, 0, -1), (0, 0, -1), (0, 0, -0.99999994), (0, 0, -0.99999994), (-0.87344253, 0.0000022319061, 0.48692736), (-0.87344253, 0.0000022319061, 0.48692736), (-0.87344253, 0.0000022319061, 0.48692736), (-0.87344253, 0.0000022319061, 0.48692736), (0.87344223, -0.000004463811, 0.48692778), (0.87344223, -0.000004463811, 0.48692778), (0.87344223, -0.000004463811, 0.48692778), (0.87344223, -0.000004463811, 0.48692778), (0, 0, -1), (0, 0, -1), (0, 0, -1), (0, 0, -1), (3.5436344e-8, 1, 0), (4.4295465e-8, 1, 0), (4.4295458e-8, 1, 0), (3.5436344e-8, 1, 0), (-5.3154636e-8, -1, 0), (-4.429546e-8, -1, 0), (-4.429545e-8, -1, 0), (-5.3154636e-8, -1, 0), (-0.99999994, 0.000002209006, 0), (-0.99999994, 0.000002209006, 0), (-0.99999994, 0.000002209006, 0), (-0.99999994, 0.000002209006, 0), (-6.1127724e-7, -1, 0), (-5.3154558e-8, -1, 0), (-5.3154558e-8, -1, 0), (-6.112775e-7, -1, 0), (0.99999994, -0.000002209006, 0), (0.99999994, -0.000002209006, 0), (0.99999994, -0.000002209006, 0), (0.99999994, -0.000002209006, 0), (6.112775e-7, 1, 0), (0.0000011694005, 1, 0), (0.0000011694005, 1, 0), (6.1127787e-7, 1, 0), (0, 0, -1), (0, 0, -1), (0, 0, -1), (0, 0, -1), (-0.87344223, 0.0000033478582, 0.48692778), (-0.87344223, 0.0000033478582, 0.48692778), (-0.87344223, 0.0000033478582, 0.48692778), (-0.87344223, 0.0000033478582, 0.48692778), (0.87344253, -0.0000022319061, 0.48692736), (0.87344253, -0.0000022319061, 0.48692736), (0.87344253, -0.0000022319061, 0.48692736), (0.87344253, -0.0000022319061, 0.48692736), (0, 0, -0.99999994), (0, 0, -0.99999994), (0, 0, -1), (0, 0, -1), (5.3154544e-8, 1, 0), (6.112775e-7, 1, 0), (6.1127787e-7, 1, 0), (5.3154544e-8, 1, 0), (-0.0000011694, -1, 0), (-6.1127724e-7, -1, 0), (-6.112775e-7, -1, 0), (-0.0000011694, -1, 0), (-0.99999994, 0, 0), (-0.99999994, 0, 0), (-0.99999994, 0, 0), (-0.99999994, 0, 0), (-4.4295472e-8, -1, 0), (-5.3154547e-8, -1, 0), (-5.3154547e-8, -1, 0), (-4.429547e-8, -1, 0), (0.99999994, 0, 0), (0.99999994, 0, 0), (0.99999994, 0, 0), (0.99999994, 0, 0), (4.4295472e-8, 1, 0), (3.5436397e-8, 1, 0), (3.5436397e-8, 1, 0), (4.429547e-8, 1, 0), (0, 0, -1), (0, 0, -1), (0, 0, -1), (0, 0, -1), (-0.87344235, 0, 0.48692754), (-0.87344235, 0, 0.48692754), (-0.87344235, 0, 0.48692754), (-0.87344235, 0, 0.48692754), (0.87344253, 0, 0.48692736), (0.87344253, 0, 0.48692736), (0.87344253, 0, 0.48692736), (0.87344253, 0, 0.48692736), (0, 0, -1), (0, 0, -1), (0, 0, -1), (0, 0, -1), (5.3154547e-8, 1, 0), (4.4295472e-8, 1, 0), (4.429547e-8, 1, 0), (5.3154547e-8, 1, 0), (-3.5436397e-8, -1, 0), (-4.4295472e-8, -1, 0), (-4.429547e-8, -1, 0), (-3.5436397e-8, -1, 0), (-0.99999994, 0, 0), (-0.99999994, 0, 0), (-0.99999994, 0, 0), (-0.99999994, 0, 0), (-4.4295465e-8, -1, 0), (-5.3154544e-8, -0.99999994, 0), (-5.3154544e-8, -0.99999994, 0), (-4.4295465e-8, -1, 0), (0.99999994, 0, 0), (0.99999994, 0, 0), (0.99999994, 0, 0), (0.99999994, 0, 0), (4.4295465e-8, 1, 0), (3.543638e-8, 1, 0), (3.543638e-8, 1, 0), (4.4295465e-8, 1, 0), (0, 0, -1), (0, 0, -1), (0, 0, -1), (0, 0, -1), (-0.87344253, 0, 0.48692736), (-0.87344253, 0, 0.48692736), (-0.87344253, 0, 0.48692736), (-0.87344253, 0, 0.48692736), (0.87344235, 0, 0.48692754), (0.87344235, 0, 0.48692754), (0.87344235, 0, 0.48692754), (0.87344235, 0, 0.48692754), (0, 0, -1), (0, 0, -1), (0, 0, -1), (0, 0, -1), (5.3154544e-8, 0.99999994, 0), (4.4295465e-8, 1, 0), (4.4295465e-8, 1, 0), (5.3154544e-8, 0.99999994, 0), (-3.543638e-8, -1, 0), (-4.4295465e-8, -1, 0), (-4.4295465e-8, -1, 0), (-3.543638e-8, -1, 0), (0.99999994, 0, 0), (0.99999994, 0, 0), (0.99999994, 0, 0), (0.99999994, 0, 0), (-4.452459e-8, -1, 0), (-4.452459e-8, -1, 0), (-4.452459e-8, -1, 0), (-4.452459e-8, -1, 0), (-0.99999994, 0, 0), (-0.99999994, 0, 0), (-0.99999994, 0, 0), (-0.99999994, 0, 0), (4.452459e-8, 1, 0), (4.452459e-8, 1, 0), (4.452459e-8, 1, 0), (4.452459e-8, 1, 0), (1.6908196e-9, 0, -1), (1.6908196e-9, 0, -1), (1.6908196e-9, 0, -1), (1.6908196e-9, 0, -1), (2.4542211e-7, 0, 1), (2.4542211e-7, 0, 1), (2.4542211e-7, 0, 1), (2.4542211e-7, 0, 1), (0, 0, 1), (0, 0, 0.99999994), (0, 0, 0.99999994), (0, 0, 1), (0, 1, 0), (0, 1, 0), (0, 0.99999994, 0), (0, 0.99999994, 0), (-7.4087176e-9, 3.486962e-7, 1), (-3.7043586e-9, 3.486962e-7, 1), (-3.7043586e-9, 3.4869623e-7, 1), (-7.4087176e-9, 3.486962e-7, 1), (0.0050456724, -0.9999873, 2.9081139e-7), (-8.508199e-8, -1, 2.9081508e-7), (-8.478555e-8, -1, 2.9081505e-7), (0.0050456724, -0.9999873, 2.9081139e-7), (2.0373959e-8, -6.973919e-7, -1), (-9.260896e-10, -6.973919e-7, -1), (-9.260896e-10, -6.973919e-7, -1), (2.0373959e-8, -6.973919e-7, -1), (0.0050458224, 0.9999873, 0), (8.508199e-8, 1, 0), (8.508199e-8, 1, 0), (0.0050458224, 0.9999873, 0), (0.99999994, 0, 0), (0.99999994, 0, 0), (0.99999994, 0, 0), (0.99999994, 0, 0), (-7.4087176e-9, 6.973924e-7, 1), (1.1113077e-8, 6.973924e-7, 1), (1.1113076e-8, 6.9739247e-7, 1), (-7.4087176e-9, 6.973924e-7, 1), (0.005045673, -0.9999873, 2.9081139e-7), (-8.567489e-8, -1, 2.9081508e-7), (-8.5674905e-8, -1, 2.9081505e-7), (0.005045673, -0.9999873, 2.9081139e-7), (2.5930493e-8, -6.973919e-7, -1), (-1.8521781e-9, -6.973919e-7, -1), (-1.8521781e-9, -6.973919e-7, -1), (2.5930493e-8, -6.973919e-7, -1), (0.005045823, 0.9999873, 0), (8.478554e-8, 1, 0), (8.478554e-8, 1, 0), (0.005045823, 0.9999873, 0), (1, 0, 0), (1, 0, 0), (1, 0, 0), (1, 0, 0), (0.99999994, -4.1034202e-8, 0), (0.99999994, -4.1034202e-8, 0), (0.99999994, -4.1034202e-8, 0), (0.99999994, -4.1034202e-8, 0), (0, -1, 0), (0, -1, 0), (0, -1, 0), (0, -1, 0), (0, 0, -0.99999994), (0, 0, -1), (0, 0, -1), (0, 0, -0.99999994), (-0.99999994, 0, 0), (-0.99999994, 0, 0), (-0.99999994, 0, 0), (-0.99999994, 0, 0), (-4.452459e-8, -1, 0), (-4.452459e-8, -1, 0), (-4.452459e-8, -1, 0), (-4.452459e-8, -1, 0), (0.99999994, 0, 0), (0.99999994, 0, 0), (0.99999994, 0, 0), (0.99999994, 0, 0), (4.452459e-8, 1, 0), (4.452459e-8, 1, 0), (4.452459e-8, 1, 0), (4.452459e-8, 1, 0), (0, 0, -1), (0, 0, -1), (0, 0, -1), (0, 0, -1), (0, 0, 1), (0, 0, 1), (0, 0, 1), (0, 0, 1), (0, 0, 1), (0, 0, 1), (0, 0, 0.99999994), (0, 0, 0.99999994), (0, 1, 0), (0, 1, 0), (0, 1, 0), (0, 1, 0), (0, 3.486962e-7, 1), (0, 3.486962e-7, 1), (-3.7043586e-9, 3.4869623e-7, 1), (-3.7043586e-9, 3.486962e-7, 1), (-0.0050458424, -0.9999873, 2.9081139e-7), (-0.0050458424, -0.9999873, 2.9081139e-7), (-8.478555e-8, -1, 2.9081505e-7), (-8.508199e-8, -1, 2.9081508e-7), (-2.2226137e-8, -6.973919e-7, -1), (-2.2226137e-8, -6.973919e-7, -1), (-9.260896e-10, -6.973919e-7, -1), (-9.260896e-10, -6.973919e-7, -1), (-0.005045652, 0.9999873, 0), (-0.005045652, 0.9999873, 0), (8.508199e-8, 1, 0), (8.508199e-8, 1, 0), (-0.99999994, 0.0000016651202, 0), (-0.99999994, 0.0000016651202, 0), (-0.99999994, 0.0000016651202, 0), (-0.99999994, 0.0000016651202, 0), (2.963487e-8, 6.973924e-7, 1), (2.963487e-8, 6.973924e-7, 1), (1.1113076e-8, 6.9739247e-7, 1), (1.1113077e-8, 6.973924e-7, 1), (-0.0050458442, -0.9999873, 2.9081139e-7), (-0.0050458442, -0.9999873, 2.9081139e-7), (-8.5674905e-8, -1, 2.9081505e-7), (-8.567489e-8, -1, 2.9081508e-7), (-2.963485e-8, -6.973919e-7, -1), (-2.963485e-8, -6.973919e-7, -1), (-1.8521781e-9, -6.973919e-7, -1), (-1.8521781e-9, -6.973919e-7, -1), (-0.0050456533, 0.9999873, 0), (-0.0050456533, 0.9999873, 0), (8.478554e-8, 1, 0), (8.478554e-8, 1, 0), (-1, -4.7155726e-7, 0), (-1, -4.7155726e-7, 0), (-1, -4.7155726e-7, 0), (-1, -4.7155726e-7, 0), (-0.99999994, 4.1034202e-8, 0), (-0.99999994, 4.1034202e-8, 0), (-0.99999994, 4.1034202e-8, 0), (-0.99999994, 4.1034202e-8, 0), (0, -0.99999994, 0), (0, -1, 0), (0, -1, 0), (0, -0.99999994, 0), (0, 0, -0.99999994), (0, 0, -0.99999994), (0, 0, -1), (0, 0, -1)] (
                interpolation = "faceVarying"
            )
            point3f[] points = [(2.502446, 0.030923853, 0.1029214), (2.502446, 0.030923853, 0.9754618), (2.502446, -0.03092443, 0.1029214), (2.502446, -0.03092443, 0.9754618), (2.2921934, 0.030923862, 0.1029214), (2.2921934, 0.030923862, 0.9754618), (2.2921934, -0.03092442, 0.1029214), (2.2921934, -0.03092442, 0.9754618), (2.3973196, -0.030924425, 0.1029214), (2.3973196, -0.030924425, 1.1640354), (2.3973196, 0.030923858, 0.1029214), (2.3973196, 0.030923858, 1.1640354), (2.1239917, 0.03092387, 0.1029214), (2.1239917, 0.03092387, 0.9754618), (2.1239917, -0.030924413, 0.1029214), (2.1239917, -0.030924413, 0.9754618), (1.9137393, 0.030923879, 0.1029214), (1.9137393, 0.030923879, 0.9754618), (1.9137392, -0.030924404, 0.1029214), (1.9137392, -0.030924404, 0.9754618), (2.0188653, -0.030924408, 0.1029214), (2.0188653, -0.030924408, 1.1640354), (2.0188653, 0.030923875, 0.1029214), (2.0188653, 0.030923875, 1.1640354), (1.7455375, 0.030923886, 0.1029214), (1.7455375, 0.030923886, 0.9754618), (1.7455374, -0.030924397, 0.1029214), (1.7455374, -0.030924397, 0.9754618), (1.5352851, 0.030923896, 0.1029214), (1.5352851, 0.030923896, 0.9754618), (1.535285, -0.030924387, 0.1029214), (1.535285, -0.030924387, 0.9754618), (1.6404113, -0.030924391, 0.1029214), (1.6404113, -0.030924391, 1.1640354), (1.6404114, 0.030923892, 0.1029214), (1.6404114, 0.030923892, 1.1640354), (1.3670833, 0.030923903, 0.1029214), (1.3670833, 0.030923903, 0.9754618), (1.3670832, -0.03092438, 0.1029214), (1.3670832, -0.03092438, 0.9754618), (1.1568309, 0.030924032, 0.1029214), (1.1568309, 0.030924032, 0.9754618), (1.1568308, -0.030924251, 0.1029214), (1.1568308, -0.030924251, 0.9754618), (1.2619569, -0.030924257, 0.1029214), (1.2619569, -0.030924257, 1.1640354), (1.261957, 0.030924026, 0.1029214), (1.261957, 0.030924026, 1.1640354), (0.9886289, 0.030924039, 0.1029214), (0.9886289, 0.030924039, 0.9754618), (0.9886289, -0.030924244, 0.1029214), (0.9886289, -0.030924244, 0.9754618), (0.7783765, 0.030924048, 0.1029214), (0.7783765, 0.030924048, 0.9754618), (0.7783765, -0.030924235, 0.1029214), (0.7783765, -0.030924235, 0.9754618), (0.8835027, -0.03092424, 0.1029214), (0.8835027, -0.03092424, 1.1640354), (0.8835027, 0.030924043, 0.1029214), (0.8835027, 0.030924043, 1.1640354), (0.61017466, 0.030924056, 0.1029214), (0.61017466, 0.030924056, 0.9754618), (0.61017466, -0.030924227, 0.1029214), (0.61017466, -0.030924227, 0.9754618), (0.3999223, 0.030924065, 0.1029214), (0.3999223, 0.030924065, 0.9754618), (0.3999223, -0.030924218, 0.1029214), (0.3999223, -0.030924218, 0.9754618), (0.5050485, -0.030924223, 0.1029214), (0.5050485, -0.030924223, 1.1640354), (0.5050485, 0.03092406, 0.1029214), (0.5050485, 0.03092406, 1.1640354), (-2.502446, 0.03092431, 0.1029214), (-2.502446, 0.03092431, 0.9754618), (-2.502446, -0.030923972, 0.1029214), (-2.502446, -0.030923972, 0.9754618), (-2.2921934, 0.030924302, 0.1029214), (-2.2921934, 0.030924302, 0.9754618), (-2.2921934, -0.030923981, 0.1029214), (-2.2921934, -0.030923981, 0.9754618), (-2.3973196, -0.030923977, 0.1029214), (-2.3973196, -0.030923977, 1.1640354), (-2.3973196, 0.030924305, 0.1029214), (-2.3973196, 0.030924305, 1.1640354), (-2.1239917, 0.030924294, 0.1029214), (-2.1239917, 0.030924294, 0.9754618), (-2.1239917, -0.030923989, 0.1029214), (-2.1239917, -0.030923989, 0.9754618), (-1.9137391, 0.030924285, 0.1029214), (-1.9137391, 0.030924285, 0.9754618), (-1.9137392, -0.030923998, 0.1029214), (-1.9137392, -0.030923998, 0.9754618), (-2.0188653, -0.030923994, 0.1029214), (-2.0188653, -0.030923994, 1.1640354), (-2.0188653, 0.030924289, 0.1029214), (-2.0188653, 0.030924289, 1.1640354), (-1.7455373, 0.030924277, 0.1029214), (-1.7455373, 0.030924277, 0.9754618), (-1.7455374, -0.030924005, 0.1029214), (-1.7455374, -0.030924005, 0.9754618), (-1.5352849, 0.030924268, 0.1029214), (-1.5352849, 0.030924268, 0.9754618), (-1.535285, -0.030924015, 0.1029214), (-1.535285, -0.030924015, 0.9754618), (-1.6404113, -0.030924011, 0.1029214), (-1.6404113, -0.030924011, 1.1640354), (-1.6404111, 0.030924272, 0.1029214), (-1.6404111, 0.030924272, 1.1640354), (-1.3670831, 0.03092426, 0.1029214), (-1.3670831, 0.03092426, 0.9754618), (-1.3670832, -0.030924022, 0.1029214), (-1.3670832, -0.030924022, 0.9754618), (-1.1568307, 0.030924132, 0.1029214), (-1.1568307, 0.030924132, 0.9754618), (-1.1568308, -0.03092415, 0.1029214), (-1.1568308, -0.03092415, 0.9754618), (-1.2619569, -0.030924145, 0.1029214), (-1.2619569, -0.030924145, 1.1640354), (-1.2619568, 0.030924138, 0.1029214), (-1.2619568, 0.030924138, 1.1640354), (-0.9886289, 0.030924125, 0.1029214), (-0.9886289, 0.030924125, 0.9754618), (-0.9886289, -0.030924158, 0.1029214), (-0.9886289, -0.030924158, 0.9754618), (-0.7783766, 0.030924115, 0.1029214), (-0.7783766, 0.030924115, 0.9754618), (-0.7783766, -0.030924167, 0.1029214), (-0.7783766, -0.030924167, 0.9754618), (-0.8835027, -0.030924162, 0.1029214), (-0.8835027, -0.030924162, 1.1640354), (-0.8835027, 0.03092412, 0.1029214), (-0.8835027, 0.03092412, 1.1640354), (-0.61017466, 0.030924108, 0.1029214), (-0.61017466, 0.030924108, 0.9754618), (-0.61017466, -0.030924175, 0.1029214), (-0.61017466, -0.030924175, 0.9754618), (-0.3999223, 0.030924099, 0.1029214), (-0.3999223, 0.030924099, 0.9754618), (-0.3999223, -0.030924184, 0.1029214), (-0.3999223, -0.030924184, 0.9754618), (-0.5050485, -0.030924179, 0.1029214), (-0.5050485, -0.030924179, 1.1640354), (-0.5050485, 0.030924104, 0.1029214), (-0.5050485, 0.030924104, 1.1640354), (2.9450629, 0.08275246, -0.009339929), (2.9450629, 0.08275246, 1.0877231), (2.9450629, -0.08275307, -0.009339929), (2.9450629, -0.08275307, 1.0877231), (2.7777264, 0.082752466, -0.009339929), (2.7777264, 0.082752466, 1.0877231), (2.7777264, -0.08275306, -0.009339929), (2.7777264, -0.08275306, 1.0877231), (0.08449763, -0.082752824, 1.0877231), (0.08449763, -0.082752824, -0.009339929), (0.08449764, 0.082752705, 1.0877231), (0.08449764, 0.082752705, -0.009339929), (2.941604, 0.035312284, 0.40633574), (2.941604, -0.035312783, 0.4063358), (2.941604, 0.035312284, 0.19730976), (2.941604, -0.035312902, 0.19730985), (2.941604, 0.035312284, 0.8714503), (2.941604, -0.035312783, 0.8714504), (2.941604, 0.035312284, 0.6624243), (2.941604, -0.035312902, 0.66242445), (-2.9450629, 0.08275295, -0.009339929), (-2.9450629, 0.08275295, 1.0877231), (-2.9450629, -0.08275258, -0.009339929), (-2.9450629, -0.08275258, 1.0877231), (-2.7777264, 0.08275294, -0.009339929), (-2.7777264, 0.08275294, 1.0877231), (-2.7777264, -0.082752585, -0.009339929), (-2.7777264, -0.082752585, 1.0877231), (-0.08449764, -0.082752824, 1.0877231), (-0.08449764, -0.082752824, -0.009339929), (-0.08449763, 0.082752705, 1.0877231), (-0.08449763, 0.082752705, -0.009339929), (-2.941604, 0.035312783, 0.40633574), (4.3847117e-9, 0.050155282, 0.40633574), (-2.941604, -0.035312284, 0.4063358), (-4.384724e-9, -0.0501554, 0.40633574), (-2.941604, 0.035312783, 0.19730976), (4.3847117e-9, 0.050155282, 0.19730973), (-2.941604, -0.035312403, 0.19730985), (-4.384724e-9, -0.0501554, 0.19730976), (-2.941604, 0.035312783, 0.8714503), (4.3847117e-9, 0.050155282, 0.8714503), (-2.941604, -0.035312284, 0.8714504), (-4.384724e-9, -0.0501554, 0.8714503), (-2.941604, 0.035312783, 0.6624243), (4.3847117e-9, 0.050155282, 0.6624243), (-2.941604, -0.035312403, 0.66242445), (-4.384724e-9, -0.0501554, 0.6624243), (7.23447e-9, 0.082752705, 1.0877231), (7.23447e-9, 0.082752705, -0.009339929), (-7.2344823e-9, -0.082752824, 1.0877231), (-7.2344823e-9, -0.082752824, -0.009339929)]
            uniform token subdivisionScheme = "none"
            custom string userProperties:blender:data_name = "Cube.024"
        }
    }

    def Scope "_materials"
    {
        def Material "Brown"
        {
            token outputs:surface.connect = </root/_materials/Brown/Principled_BSDF.outputs:surface>
            custom string userProperties:blender:data_name = "Brown"

            def Shader "Principled_BSDF"
            {
                uniform token info:id = "UsdPreviewSurface"
                float inputs:clearcoat = 0
                float inputs:clearcoatRoughness = 0.03
                color3f inputs:diffuseColor = (0.2810048, 0.09588584, 0.04670547)
                float inputs:ior = 1.5
                float inputs:metallic = 0
                float inputs:opacity = 1
                float inputs:roughness = 0.6900348
                float inputs:specular = 0.5
                token outputs:surface
            }
        }
    }
}

