#usda 1.0
(
    defaultPrim = "root"
    doc = "Blender v5.1.2"
    metersPerUnit = 1
    upAxis = "Y"
)

def Xform "root" (
    customData = {
        dictionary Blender = {
            bool generated = 1
        }
    }
)
{
    float3 xformOp:rotateXYZ = (-90, -0, 0)
    uniform token[] xformOpOrder = ["xformOp:rotateXYZ"]

    def Xform "Tree3"
    {
        custom string userProperties:blender:object_name = "Tree3"

        def Mesh "Cylinder_010" (
            active = true
            prepend apiSchemas = ["MaterialBindingAPI"]
        )
        {
            uniform bool doubleSided = 1
            float3[] extent = [(-1.2920276, -0.17195606, 0.0016906725), (0.862205, 0.1738065, 4.7397914)]
            int[] faceVertexCounts = [4, 4, 4, 4, 4, 4, 4, 4, 4, 4, 4, 4, 4, 4, 4, 4, 4, 4, 4, 4, 4, 4, 4, 4, 4, 4, 4, 4, 4, 4, 4, 4, 4, 4, 4, 4, 4, 4, 4, 4, 4, 4, 4, 4, 4, 4, 4, 4, 4, 4, 4, 4, 4, 4, 4, 4, 4, 4, 4, 4, 4, 4, 4, 4, 4, 4, 4, 4, 4, 4, 4, 4, 4, 4, 4, 4, 4, 4, 4, 4, 4, 4, 4, 4, 4, 4, 4, 4, 4, 4, 4, 4, 4, 4, 4, 4, 4, 4, 4, 4, 4, 4, 4, 4, 4, 4, 4, 4, 4, 4, 4, 4, 4, 4, 4, 4, 4, 4, 4, 4, 4, 4, 4, 4, 4, 4, 4, 4, 4, 4, 4, 4, 4, 4, 4, 4, 4, 4, 4, 4, 4, 4, 4, 4, 4, 4, 4, 4, 4, 4, 4, 4, 4, 4, 4, 4, 4, 4, 4, 4, 4, 4, 4, 4, 4, 4, 4, 4, 4, 4, 4, 4, 4, 4, 4, 4, 4, 4, 4, 4, 4, 4, 4, 4, 4, 4, 4, 4, 4, 4, 4, 4, 4, 4, 4, 4, 4, 4, 4, 4, 4, 4, 4, 4, 4, 4, 4, 4, 4, 4, 4, 4, 4, 4, 4, 4, 4, 4, 4, 4, 4, 4, 4, 4, 4, 4, 4, 4, 4, 4, 4, 4, 4, 4, 4, 4, 4, 4, 4, 4, 4, 4, 4, 4, 4, 4, 4, 4, 4, 4, 4, 4, 4, 4, 4, 4, 4, 4, 4, 4, 4, 4, 4, 4, 4, 4, 4, 4, 4, 4, 4, 4, 4, 4, 4, 4, 4, 4, 4, 4]
            int[] faceVertexIndices = [0, 133, 246, 118, 0, 118, 243, 112, 0, 112, 234, 116, 0, 116, 244, 133, 1, 121, 238, 105, 1, 105, 236, 114, 1, 114, 219, 75, 1, 75, 221, 121, 2, 123, 240, 108, 2, 108, 238, 121, 2, 121, 221, 76, 2, 76, 222, 123, 3, 132, 248, 128, 3, 128, 241, 110, 3, 110, 243, 118, 3, 118, 246, 132, 4, 119, 242, 111, 4, 111, 240, 123, 4, 123, 222, 77, 4, 77, 223, 119, 5, 115, 235, 113, 5, 113, 242, 119, 5, 119, 223, 78, 5, 78, 220, 115, 6, 73, 214, 69, 6, 69, 215, 70, 6, 70, 216, 71, 6, 71, 217, 72, 6, 72, 218, 73, 7, 85, 220, 78, 7, 78, 223, 84, 7, 84, 228, 83, 7, 83, 225, 85, 8, 131, 247, 127, 8, 127, 239, 107, 8, 107, 241, 128, 8, 128, 248, 131, 9, 130, 245, 125, 9, 125, 237, 104, 9, 104, 239, 127, 9, 127, 247, 130, 10, 129, 244, 116, 10, 116, 234, 100, 10, 100, 237, 125, 10, 125, 245, 129, 11, 205, 290, 213, 11, 213, 289, 94, 11, 94, 232, 92, 11, 92, 233, 205, 12, 87, 222, 76, 12, 76, 221, 86, 12, 86, 226, 81, 12, 81, 227, 87, 13, 88, 219, 74, 13, 74, 220, 85, 13, 85, 225, 79, 13, 79, 224, 88, 14, 84, 223, 77, 14, 77, 222, 87, 14, 87, 227, 82, 14, 82, 228, 84, 15, 86, 221, 75, 15, 75, 219, 88, 15, 88, 224, 80, 15, 80, 226, 86, 16, 90, 229, 89, 16, 89, 230, 93, 16, 93, 233, 92, 16, 92, 232, 91, 16, 91, 231, 90, 17, 207, 292, 212, 17, 212, 291, 96, 17, 96, 229, 90, 17, 90, 231, 207, 18, 208, 293, 211, 18, 211, 290, 205, 18, 205, 233, 93, 18, 93, 230, 208, 19, 94, 289, 210, 19, 210, 292, 207, 19, 207, 231, 91, 19, 91, 232, 94, 20, 96, 291, 209, 20, 209, 293, 208, 20, 208, 230, 89, 20, 89, 229, 96, 21, 99, 237, 100, 21, 100, 234, 101, 21, 101, 235, 102, 21, 102, 236, 99, 22, 103, 239, 104, 22, 104, 237, 99, 22, 99, 236, 105, 22, 105, 238, 103, 23, 106, 241, 107, 23, 107, 239, 103, 23, 103, 238, 108, 23, 108, 240, 106, 24, 109, 243, 110, 24, 110, 241, 106, 24, 106, 240, 111, 24, 111, 242, 109, 25, 101, 234, 112, 25, 112, 243, 109, 25, 109, 242, 113, 25, 113, 235, 101, 26, 114, 236, 102, 26, 102, 235, 115, 26, 115, 220, 74, 26, 74, 219, 114, 27, 69, 214, 124, 27, 124, 244, 129, 27, 129, 245, 117, 27, 117, 215, 69, 28, 70, 215, 117, 28, 117, 245, 130, 28, 130, 247, 120, 28, 120, 216, 70, 29, 71, 216, 120, 29, 120, 247, 131, 29, 131, 248, 122, 29, 122, 217, 71, 30, 72, 217, 122, 30, 122, 248, 132, 30, 132, 246, 126, 30, 126, 218, 72, 31, 73, 218, 126, 31, 126, 246, 133, 31, 133, 244, 124, 31, 124, 214, 73, 32, 145, 250, 138, 32, 138, 253, 144, 32, 144, 258, 143, 32, 143, 255, 145, 33, 160, 265, 168, 33, 168, 264, 154, 33, 154, 262, 152, 33, 152, 263, 160, 34, 147, 252, 136, 34, 136, 251, 146, 34, 146, 256, 141, 34, 141, 257, 147, 35, 148, 249, 134, 35, 134, 250, 145, 35, 145, 255, 139, 35, 139, 254, 148, 36, 144, 253, 137, 36, 137, 252, 147, 36, 147, 257, 142, 36, 142, 258, 144, 37, 146, 251, 135, 37, 135, 249, 148, 37, 148, 254, 140, 37, 140, 256, 146, 38, 150, 259, 149, 38, 149, 260, 153, 38, 153, 263, 152, 38, 152, 262, 151, 38, 151, 261, 150, 39, 162, 267, 167, 39, 167, 266, 156, 39, 156, 259, 150, 39, 150, 261, 162, 40, 163, 268, 166, 40, 166, 265, 160, 40, 160, 263, 153, 40, 153, 260, 163, 41, 154, 264, 165, 41, 165, 267, 162, 41, 162, 261, 151, 41, 151, 262, 154, 42, 156, 266, 164, 42, 164, 268, 163, 42, 163, 260, 149, 42, 149, 259, 156, 43, 161, 254, 139, 43, 139, 255, 158, 43, 158, 268, 164, 43, 164, 266, 161, 44, 159, 257, 141, 44, 141, 256, 157, 44, 157, 267, 165, 44, 165, 264, 159, 45, 158, 255, 143, 45, 143, 258, 155, 45, 155, 265, 166, 45, 166, 268, 158, 46, 157, 256, 140, 46, 140, 254, 161, 46, 161, 266, 167, 46, 167, 267, 157, 47, 155, 258, 142, 47, 142, 257, 159, 47, 159, 264, 168, 47, 168, 265, 155, 48, 173, 270, 180, 48, 180, 275, 178, 48, 178, 278, 179, 48, 179, 273, 173, 49, 203, 285, 195, 49, 195, 283, 187, 49, 187, 282, 189, 49, 189, 284, 203, 50, 171, 272, 182, 50, 182, 277, 176, 50, 176, 276, 181, 50, 181, 271, 171, 51, 169, 269, 183, 51, 183, 274, 174, 51, 174, 275, 180, 51, 180, 270, 169, 52, 172, 273, 179, 52, 179, 278, 177, 52, 177, 277, 182, 52, 182, 272, 172, 53, 170, 271, 181, 53, 181, 276, 175, 53, 175, 274, 183, 53, 183, 269, 170, 54, 184, 279, 185, 54, 185, 281, 186, 54, 186, 282, 187, 54, 187, 283, 188, 54, 188, 280, 184, 55, 202, 287, 197, 55, 197, 281, 185, 55, 185, 279, 191, 55, 191, 286, 202, 56, 201, 288, 198, 56, 198, 280, 188, 56, 188, 283, 195, 56, 195, 285, 201, 57, 200, 284, 189, 57, 189, 282, 186, 57, 186, 281, 197, 57, 197, 287, 200, 58, 199, 286, 191, 58, 191, 279, 184, 58, 184, 280, 198, 58, 198, 288, 199, 59, 174, 274, 196, 59, 196, 286, 199, 59, 199, 288, 193, 59, 193, 275, 174, 60, 176, 277, 194, 60, 194, 284, 200, 60, 200, 287, 192, 60, 192, 276, 176, 61, 178, 275, 193, 61, 193, 288, 201, 61, 201, 285, 190, 61, 190, 278, 178, 62, 175, 276, 192, 62, 192, 287, 202, 62, 202, 286, 196, 62, 196, 274, 175, 63, 177, 278, 190, 63, 190, 285, 203, 63, 203, 284, 194, 63, 194, 277, 177, 64, 206, 224, 79, 64, 79, 225, 98, 64, 98, 293, 209, 64, 209, 291, 206, 65, 204, 227, 81, 65, 81, 226, 97, 65, 97, 292, 210, 65, 210, 289, 204, 66, 98, 225, 83, 66, 83, 228, 95, 66, 95, 290, 211, 66, 211, 293, 98, 67, 97, 226, 80, 67, 80, 224, 206, 67, 206, 291, 212, 67, 212, 292, 97, 68, 95, 228, 82, 68, 82, 227, 204, 68, 204, 289, 213, 68, 213, 290, 95]
            rel material:binding = </root/_materials/Brown>
            normal3f[] normals = [(-0.5873013, 0.80901533, 0.023903888), (-0.5872594, 0.80890703, 0.028210545), (-0.5872594, 0.80890703, 0.028210545), (-0.5872999, 0.8090111, 0.024081137), (-0.5873013, 0.80901533, 0.023903888), (-0.5872999, 0.8090111, 0.024081137), (-0.58733135, 0.80910504, 0.019774806), (-0.58733135, 0.80910504, 0.019774806), (-0.06816046, 0.9976705, 0.0028005948), (-0.0681397, 0.99767584, -0.00020569516), (-0.06813976, 0.9976757, -0.00019626619), (-0.06816024, 0.99767053, 0.0027753592), (-0.06816046, 0.9976705, 0.0028005948), (-0.06816024, 0.99767053, 0.0027753592), (-0.068164825, 0.99767405, -0.0002819172), (-0.068164825, 0.99767405, -0.00026388493), (0.6529017, -0.7442247, 0.14088587), (0.6529017, -0.7442247, 0.14088587), (0.6529017, -0.7442247, 0.14088587), (0.6529017, -0.7442247, 0.14088587), (0.93993545, -0.29240045, 0.1761347), (0.93993545, -0.29240045, 0.1761347), (0.93993545, -0.29240045, 0.1761347), (0.93993545, -0.29240045, 0.1761347), (0.9486258, -0.27370253, 0.15873235), (0.9486258, -0.27370253, 0.15873235), (0.9486258, -0.27370253, 0.15873235), (0.9486258, -0.27370253, 0.15873235), (0.68268394, -0.7193325, 0.12846576), (0.68268394, -0.7193325, 0.12846576), (0.68268394, -0.7193325, 0.12846576), (0.68268394, -0.7193325, 0.12846576), (-0.5397255, -0.84172624, 0.013903645), (-0.5397255, -0.84172624, 0.013903645), (-0.5397255, -0.84172624, 0.013903645), (-0.5397255, -0.84172624, 0.013903645), (0.007534492, -0.99767524, 0.06773023), (0.0067826845, -0.9976274, 0.0685102), (0.0067826845, -0.9976274, 0.0685102), (0.015629962, -0.9981162, 0.059327703), (0.007534492, -0.99767524, 0.06773023), (0.015629962, -0.9981162, 0.059327703), (0.01651735, -0.99815625, 0.058405835), (0.01651735, -0.99815625, 0.058405835), (-0.5576894, -0.83004534, 0.0026640464), (-0.5576894, -0.83004534, 0.0026640464), (-0.5576894, -0.83004534, 0.0026640464), (-0.5576894, -0.83004534, 0.0026640464), (-0.95044434, -0.30845731, 0.03885565), (-0.9501767, -0.30835184, 0.04564427), (-0.9501767, -0.30835184, 0.04564427), (-0.9504482, -0.3084589, 0.038746048), (-0.95044434, -0.30845731, 0.03885565), (-0.9504482, -0.3084589, 0.038746048), (-0.9506712, -0.30854985, 0.031955782), (-0.9506712, -0.30854985, 0.031955782), (-0.9691439, 0.24329284, 0.039606553), (-0.9693865, 0.24336869, 0.032581493), (-0.9693865, 0.24336869, 0.032581493), (-0.96914726, 0.24329385, 0.039518394), (-0.9691439, 0.24329284, 0.039606553), (-0.96914726, 0.24329385, 0.039518394), (-0.96885735, 0.24320614, 0.046541635), (-0.96885735, 0.24320614, 0.046541635), (-0.9710487, 0.23698394, -0.030050758), (-0.9710487, 0.23698394, -0.030050758), (-0.9710487, 0.23698394, -0.030050758), (-0.9710487, 0.23698394, -0.030050758), (-0.9533225, -0.30091757, -0.024995372), (-0.9533225, -0.30091757, -0.024995372), (-0.9533225, -0.30091757, -0.024995372), (-0.9533225, -0.30091757, -0.024995372), (-0.95743454, -0.28654847, -0.034771122), (-0.95743454, -0.28654847, -0.034771122), (-0.95743454, -0.28654847, -0.034771122), (-0.95743454, -0.28654847, -0.034771122), (-0.97354287, 0.22512947, -0.03912891), (-0.97354287, 0.22512947, -0.03912891), (-0.97354287, 0.22512947, -0.03912891), (-0.97354287, 0.22512947, -0.03912891), (-0.064735025, 0.9968386, 0.046068057), (-0.062371112, 0.9973003, 0.038755894), (-0.0649474, 0.99679404, 0.04672552), (-0.0649474, 0.99679404, 0.04672552), (-0.5972702, 0.8020355, -0.0026982029), (-0.5972702, 0.8020355, -0.0026982029), (-0.5972702, 0.8020355, -0.0026982029), (-0.5972702, 0.8020355, -0.0026982029), (-0.61670744, 0.7870928, -0.01252041), (-0.61670744, 0.7870928, -0.01252041), (-0.61670744, 0.7870928, -0.01252041), (-0.61670744, 0.7870928, -0.01252041), (-0.064735025, 0.9968386, 0.046068057), (-0.062118795, 0.99734604, 0.037976146), (-0.062118795, 0.99734604, 0.037976146), (-0.062371112, 0.9973003, 0.038755894), (0.020630036, 0.0716807, -0.99721426), (0.020630036, 0.0716807, -0.99721426), (0.020630036, 0.0716807, -0.99721426), (0.020630036, 0.0716807, -0.99721426), (0.07655213, 0.0025982668, -0.9970622), (0.07655213, 0.0025982668, -0.9970622), (0.07655213, 0.0025982668, -0.9970622), (0.07655213, 0.0025982668, -0.9970622), (0.025502458, -0.07028129, -0.99720114), (0.025502458, -0.07028129, -0.99720114), (0.025502458, -0.07028129, -0.99720114), (0.025502458, -0.07028129, -0.99720114), (-0.056637008, -0.044160537, -0.9974177), (-0.056637008, -0.044160537, -0.9974177), (-0.056637008, -0.044160537, -0.9974177), (-0.056637008, -0.044160537, -0.9974177), (-0.05941826, 0.040162712, -0.9974249), (-0.05941826, 0.040162712, -0.9974249), (-0.05941826, 0.040162712, -0.9974249), (-0.05941826, 0.040162712, -0.9974249), (-0.07154987, 0.99738616, 0.010067896), (-0.07254719, 0.99733084, 0.008246272), (-0.07136012, 0.99739623, 0.010414506), (-0.07136012, 0.99739623, 0.010414506), (-0.64148694, 0.766139, -0.039057806), (-0.64148694, 0.766139, -0.039057806), (-0.64148694, 0.766139, -0.039057806), (-0.64148694, 0.766139, -0.039057806), (-0.6346997, 0.7727461, -0.004454555), (-0.6346997, 0.7727461, -0.004454555), (-0.6346997, 0.7727461, -0.004454555), (-0.6346997, 0.7727461, -0.004454555), (-0.07154987, 0.99738616, 0.010067896), (-0.07273078, 0.99732023, 0.007910797), (-0.07273078, 0.99732023, 0.007910797), (-0.07254719, 0.99733084, 0.008246272), (-0.0003608661, -0.99999994, 0.000014797558), (-0.00036095455, -0.99999994, -0.0000013984035), (-0.0003609549, -1, -0.0000014931823), (-0.00036086497, -1, 0.000014671649), (-0.0003608661, -0.99999994, 0.000014797558), (-0.00036086497, -1, 0.000014671649), (-0.00036078828, -0.99999994, -9.898883e-7), (-0.0003607881, -1, -0.0000010397604), (-0.5311238, -0.8470185, 0.0216162), (-0.5311399, -0.8470952, 0.01788791), (-0.5311399, -0.8470952, 0.01788791), (-0.5311229, -0.8470147, 0.021783952), (-0.5311238, -0.8470185, 0.0216162), (-0.5311229, -0.8470147, 0.021783952), (-0.5310991, -0.84692556, 0.02551267), (-0.5310991, -0.84692556, 0.02551267), (0.95021564, -0.30914232, -0.039001465), (0.9499543, -0.30903807, -0.04563368), (0.9499543, -0.30903807, -0.04563368), (0.95021963, -0.30914393, -0.038893722), (0.95021564, -0.30914232, -0.039001465), (0.95021963, -0.30914393, -0.038893722), (0.9504385, -0.30923435, -0.032259937), (0.9504385, -0.30923435, -0.032259937), (0.64132065, -0.76682633, -0.026176794), (0.64136595, -0.76692724, -0.021730183), (0.64136595, -0.76692724, -0.021730183), (0.64131856, -0.7668218, -0.026357993), (0.64132065, -0.76682633, -0.026176794), (0.64131856, -0.7668218, -0.026357993), (0.6412601, -0.7667051, -0.030804787), (0.6412601, -0.7667051, -0.030804787), (0.58788353, 0.8085898, -0.023988154), (0.58784276, 0.80848235, -0.028238632), (0.58784276, 0.80848235, -0.028238632), (0.58788204, 0.80858564, -0.024163429), (0.58788353, 0.8085898, -0.023988154), (0.58788204, 0.80858564, -0.024163429), (0.58791274, 0.8086792, -0.019913273), (0.58791274, 0.8086792, -0.019913273), (0.9271002, 0.37287626, -0.038061853), (0.9273046, 0.37298223, -0.031471234), (0.9273046, 0.37298223, -0.031471234), (0.9271044, 0.37287837, -0.037935015), (0.9271002, 0.37287626, -0.038061853), (0.9271044, 0.37287837, -0.037935015), (0.9268604, 0.3727565, -0.044524256), (0.9268604, 0.3727565, -0.044524256), (-0.95089114, 0.24107713, 0.19413345), (-0.95089114, 0.24107713, 0.19413345), (-0.95120025, 0.23980808, 0.19419101), (-0.95119286, 0.23983836, 0.19418965), (-0.93243897, -0.30577198, 0.19251275), (-0.93290514, -0.30429783, 0.1925895), (-0.9329234, -0.30424026, 0.19259249), (-0.93243897, -0.30577198, 0.19251275), (-0.88173443, -0.31857166, 0.34793174), (-0.88173443, -0.31857166, 0.34793174), (-0.88173443, -0.31857166, 0.34793174), (-0.88173443, -0.31857166, 0.34793174), (-0.9014069, 0.2551524, 0.34980416), (-0.9014069, 0.2551524, 0.34980416), (-0.9014069, 0.2551524, 0.34980416), (-0.9014069, 0.2551524, 0.34980416), (-0.58366656, -0.8114766, -0.028966907), (-0.58366656, -0.8114766, -0.028966907), (-0.58366656, -0.8114766, -0.028966907), (-0.58366656, -0.8114766, -0.028966907), (0.010467039, -0.99968815, 0.022673765), (0.0111057265, -0.9996457, 0.02418591), (0.0111057265, -0.9996457, 0.02418591), (0.0073659727, -0.99985534, 0.0153322695), (0.010467039, -0.99968815, 0.022673765), (0.0073659727, -0.99985534, 0.0153322695), (0.009320275, -0.9997285, 0.02135547), (0.007093666, -0.9998642, 0.0148751205), (-0.57710195, -0.81667197, 0.0003835244), (-0.57710195, -0.81667197, 0.0003835244), (-0.57710195, -0.81667197, 0.0003835244), (-0.57710195, -0.81667197, 0.0003835244), (0.94154024, 0.3202386, 0.10463848), (0.94154024, 0.3202386, 0.10463848), (0.94154024, 0.3202386, 0.10463848), (0.94154024, 0.3202386, 0.10463848), (0.6511411, 0.75512064, 0.076210625), (0.6511411, 0.75512064, 0.076210625), (0.6511411, 0.75512064, 0.076210625), (0.6511411, 0.75512064, 0.076210625), (0.64054334, 0.76760435, 0.022088561), (0.64054334, 0.76760435, 0.022088561), (0.64054334, 0.76760435, 0.022088561), (0.64054334, 0.76760435, 0.022088561), (0.9430963, 0.33135983, 0.027749801), (0.9430963, 0.33135983, 0.027749801), (0.9430963, 0.33135983, 0.027749801), (0.9430963, 0.33135983, 0.027749801), (-0.9751319, 0.2115168, -0.06616991), (-0.9751319, 0.2115168, -0.06616991), (-0.9751319, 0.2115168, -0.06616991), (-0.9751319, 0.2115168, -0.06616991), (-0.96085674, -0.2696868, -0.06343022), (-0.96085674, -0.2696868, -0.06343022), (-0.96085674, -0.2696868, -0.06343022), (-0.96085674, -0.2696868, -0.06343022), (-0.9613334, -0.27518472, -0.010563937), (-0.9613334, -0.27518472, -0.010563937), (-0.9613334, -0.27518472, -0.010563937), (-0.9613334, -0.27518472, -0.010563937), (-0.9763132, 0.2160269, -0.012041439), (-0.9763132, 0.2160269, -0.012041439), (-0.9763132, 0.2160269, -0.012041439), (-0.9763132, 0.2160269, -0.012041439), (0.7025047, -0.7065116, 0.085606255), (0.7025047, -0.7065116, 0.085606255), (0.7025047, -0.7065116, 0.085606255), (0.7025047, -0.7065116, 0.085606255), (0.9585794, -0.26351187, 0.1081059), (0.9585794, -0.26351187, 0.1081059), (0.9585794, -0.26351187, 0.1081059), (0.9585794, -0.26351187, 0.1081059), (0.9615317, -0.27312595, 0.029307386), (0.9615317, -0.27312595, 0.029307386), (0.9615317, -0.27312595, 0.029307386), (0.9615317, -0.27312595, 0.029307386), (0.69287485, -0.72058374, 0.026147602), (0.69287485, -0.72058374, 0.026147602), (0.69287485, -0.72058374, 0.026147602), (0.69287485, -0.72058374, 0.026147602), (0.8426854, 0.025252199, 0.53781384), (0.8426854, 0.025252199, 0.53781384), (0.8426854, 0.025252199, 0.53781384), (0.8426854, 0.025252199, 0.53781384), (0.31008422, 0.71024716, 0.6319784), (0.31008422, 0.71024716, 0.6319784), (0.31008422, 0.71024716, 0.6319784), (0.31008422, 0.71024716, 0.6319784), (-0.48717186, 0.40772533, 0.77228475), (-0.48717186, 0.40772533, 0.77228475), (-0.48717186, 0.40772533, 0.77228475), (-0.48717186, 0.40772533, 0.77228475), (-0.4576535, -0.44717923, 0.7684948), (-0.4576535, -0.44717923, 0.7684948), (-0.4576535, -0.44717923, 0.7684948), (-0.4576535, -0.44717923, 0.7684948), (0.35703805, -0.693436, 0.6258356), (0.35703805, -0.693436, 0.6258356), (0.35703805, -0.693436, 0.6258356), (0.35703805, -0.693436, 0.6258356), (0.6406788, -0.7626, -0.08928554), (0.6406788, -0.7626, -0.08928554), (0.64695024, -0.75714827, -0.090453655), (0.64081615, -0.76248163, -0.08931108), (0.94078875, -0.30579555, -0.14630608), (0.94146514, -0.30364546, -0.14643386), (0.9414851, -0.3035818, -0.14643763), (0.94078875, -0.30579555, -0.14630608), (0.9581548, -0.2860371, 0.011052464), (0.9581548, -0.2860371, 0.011052464), (0.9581548, -0.2860371, 0.011052464), (0.9581548, -0.2860371, 0.011052464), (0.64160866, -0.7636858, 0.07156884), (0.64160866, -0.7636858, 0.07156884), (0.64160866, -0.7636858, 0.07156884), (0.64160866, -0.7636858, 0.07156884), (-0.06281588, 0.9974473, 0.03395568), (-0.06281588, 0.9974473, 0.03395568), (-0.06214075, 0.9974938, 0.033834472), (-0.0622095, 0.997489, 0.033846814), (-0.5777081, 0.80636185, 0.1266256), (-0.579621, 0.8049331, 0.12697338), (-0.5794663, 0.8050488, 0.12694526), (-0.5777081, 0.80636185, 0.1266256), (-0.5514843, 0.7837101, 0.28576842), (-0.5514843, 0.7837101, 0.28576842), (-0.5514843, 0.7837101, 0.28576842), (-0.5514843, 0.7837101, 0.28576842), (-0.016493734, 0.9819525, 0.18840717), (-0.016493734, 0.9819525, 0.18840717), (-0.016493734, 0.9819525, 0.18840717), (-0.016493734, 0.9819525, 0.18840717), (-0.5211943, -0.84475774, 0.12141185), (-0.5211943, -0.84475774, 0.12141185), (-0.52270216, -0.84378695, 0.12168001), (-0.52284825, -0.84369266, 0.12170597), (0.0059291273, -0.99960977, 0.027297582), (0.007233994, -0.9996075, 0.02706333), (0.0073823007, -0.9996072, 0.027036706), (0.0059291273, -0.99960977, 0.027297582), (0.050374303, -0.9820689, 0.18166772), (0.050374303, -0.9820689, 0.18166772), (0.050374303, -0.9820689, 0.18166772), (0.050374303, -0.9820689, 0.18166772), (-0.49650502, -0.8215005, 0.28039217), (-0.49650502, -0.8215005, 0.28039217), (-0.49650502, -0.8215005, 0.28039217), (-0.49650502, -0.8215005, 0.28039217), (0.9181794, 0.36905947, -0.1440198), (0.9181794, 0.36905947, -0.1440198), (0.9191705, 0.36651644, -0.14419167), (0.9191296, 0.3666219, -0.14418457), (0.5874077, 0.8049254, -0.08394762), (0.5875804, 0.80479616, -0.0839792), (0.59370637, 0.80017024, -0.08509029), (0.5874077, 0.8049254, -0.08394762), (0.5888996, 0.80452555, 0.07704439), (0.5888996, 0.80452555, 0.07704439), (0.5888996, 0.80452555, 0.07704439), (0.5888996, 0.80452555, 0.07704439), (0.9370095, 0.34905085, 0.013289556), (0.9370095, 0.34905085, 0.013289556), (0.9370095, 0.34905085, 0.013289556), (0.9370095, 0.34905085, 0.013289556), (0.9270898, 0.37308052, 0.036268126), (0.9270898, 0.37308052, 0.036268126), (0.9270898, 0.37308052, 0.036268126), (0.9270898, 0.37308052, 0.036268126), (0.5876829, 0.8087608, 0.023122221), (0.5876829, 0.8087608, 0.023122221), (0.5876829, 0.8087608, 0.023122221), (0.5876829, 0.8087608, 0.023122221), (0.5882304, 0.8040942, 0.08612529), (0.5882304, 0.8040942, 0.08612529), (0.5882304, 0.8040942, 0.08612529), (0.5882304, 0.8040942, 0.08612529), (0.92145956, 0.36841896, 0.123205796), (0.92145956, 0.36841896, 0.123205796), (0.92145956, 0.36841896, 0.123205796), (0.92145956, 0.36841896, 0.123205796), (0.6411281, -0.76701987, 0.025203656), (0.6411281, -0.76701987, 0.025203656), (0.6411281, -0.76701987, 0.025203656), (0.6411281, -0.76701987, 0.025203656), (0.950232, -0.30931872, 0.037161425), (0.950232, -0.30931872, 0.037161425), (0.950232, -0.30931872, 0.037161425), (0.950232, -0.30931872, 0.037161425), (0.9436389, -0.30517307, 0.12812087), (0.9436389, -0.30517307, 0.12812087), (0.9436389, -0.30517307, 0.12812087), (0.9436389, -0.30517307, 0.12812087), (0.64084435, -0.7614677, 0.097393274), (0.64084435, -0.7614677, 0.097393274), (0.64084435, -0.7614677, 0.097393274), (0.64084435, -0.7614677, 0.097393274), (-0.53266776, -0.8462076, -0.014066566), (-0.53094846, -0.8471409, -0.021117676), (-0.53091854, -0.8471569, -0.021232966), (-0.53091854, -0.8471569, -0.021232966), (-0.0003607331, -0.9999999, -0.000014342898), (-0.0003607881, -1, -0.0000010397604), (-0.00036078828, -0.99999994, -9.898883e-7), (-0.0003607331, -0.9999999, -0.000014342898), (0.00027904217, -0.9993892, 0.03494752), (0.00027904217, -0.9993892, 0.03494752), (0.00027904217, -0.9993892, 0.03494752), (0.00027904217, -0.9993892, 0.03494752), (-0.53266776, -0.8462076, -0.014066566), (-0.53270346, -0.84618765, -0.013916937), (-0.53270346, -0.84618765, -0.013916937), (-0.53094846, -0.8471409, -0.021117676), (-0.96913594, 0.24342564, -0.03897935), (-0.96913594, 0.24342564, -0.03897935), (-0.96913594, 0.24342564, -0.03897935), (-0.96913594, 0.24342564, -0.03897935), (-0.9503888, -0.307827, -0.044761755), (-0.9504185, -0.3086168, -0.038215857), (-0.9504185, -0.3086168, -0.038215857), (-0.95032066, -0.30705306, -0.051078524), (-0.9503888, -0.307827, -0.044761755), (-0.95032066, -0.30705306, -0.051078524), (-0.95031977, -0.30704102, -0.051167015), (-0.95031977, -0.30704102, -0.051167015), (-0.96871346, 0.24209464, -0.05462838), (-0.96871346, 0.24209464, -0.05462838), (-0.96871346, 0.24209464, -0.05462838), (-0.96871346, 0.24209464, -0.05462838), (-0.068122834, 0.99767315, -0.0027034464), (-0.068122834, 0.99767315, -0.0027034464), (-0.06813976, 0.9976757, -0.00019626619), (-0.0681397, 0.99767584, -0.00020569516), (-0.58797693, 0.8085179, -0.02412444), (-0.5870965, 0.8091759, -0.023497399), (-0.5870965, 0.8091759, -0.023497399), (-0.5880361, 0.8084735, -0.024166647), (-0.58797693, 0.8085179, -0.02412444), (-0.5880361, 0.8084735, -0.024166647), (-0.5889228, 0.80780864, -0.024798851), (-0.5889228, 0.80780864, -0.024798851), (-0.06799461, 0.99746126, 0.021158235), (-0.06799461, 0.99746126, 0.021158235), (-0.06799461, 0.99746126, 0.021158235), (-0.06799461, 0.99746126, 0.021158235), (0.91993505, 0.35394564, 0.16864794), (0.91993505, 0.35394564, 0.16864794), (0.91993505, 0.35394564, 0.16864794), (0.91993505, 0.35394564, 0.16864794), (0.6013563, 0.7894149, 0.12326699), (0.6013563, 0.7894149, 0.12326699), (0.6013563, 0.7894149, 0.12326699), (0.6013563, 0.7894149, 0.12326699), (0.63127565, 0.7672731, 0.11306151), (0.63127565, 0.7672731, 0.11306151), (0.63127565, 0.7672731, 0.11306151), (0.63127565, 0.7672731, 0.11306151), (0.9307379, 0.33232647, 0.152598), (0.9307379, 0.33232647, 0.152598), (0.9307379, 0.33232647, 0.152598), (0.9307379, 0.33232647, 0.152598), (0.23846717, 0.3411596, -0.9092543), (0.23846717, 0.3411596, -0.9092543), (0.23846717, 0.3411596, -0.9092543), (0.23846717, 0.3411596, -0.9092543), (0.58775795, 0.80836564, 0.03294763), (0.58775795, 0.80836564, 0.03294763), (0.58775795, 0.80836564, 0.03294763), (0.58775795, 0.80836564, 0.03294763), (0.9265282, 0.37262297, 0.05193789), (0.9265282, 0.37262297, 0.05193789), (0.9265282, 0.37262297, 0.05193789), (0.9265282, 0.37262297, 0.05193789), (0.41657135, 0.15858202, -0.8951648), (0.41657135, 0.15858202, -0.8951648), (0.41657135, 0.15858202, -0.8951648), (0.41657135, 0.15858202, -0.8951648), (0.42819288, -0.13052888, -0.8942109), (0.42819288, -0.13052888, -0.8942109), (0.42819288, -0.13052888, -0.8942109), (0.42819288, -0.13052888, -0.8942109), (0.9495967, -0.30892184, 0.05323107), (0.9495967, -0.30892184, 0.05323107), (0.9495967, -0.30892184, 0.05323107), (0.9495967, -0.30892184, 0.05323107), (0.64115, -0.7665735, 0.035940576), (0.64115, -0.7665735, 0.035940576), (0.64115, -0.7665735, 0.035940576), (0.64115, -0.7665735, 0.035940576), (0.2636849, -0.32747716, -0.90731966), (0.2636849, -0.32747716, -0.90731966), (0.2636849, -0.32747716, -0.90731966), (0.2636849, -0.32747716, -0.90731966), (0.006892969, -0.37722802, -0.9260948), (0.006892969, -0.37722802, -0.9260948), (0.006892969, -0.37722802, -0.9260948), (0.006892969, -0.37722802, -0.9260948), (-0.0003610217, -0.9999999, -0.000020050424), (-0.0003610217, -0.9999999, -0.000020050424), (-0.0003609549, -1, -0.0000014931823), (-0.00036095455, -0.99999994, -0.0000013984035), (-0.5310363, -0.846826, -0.029767755), (-0.5310363, -0.846826, -0.029767755), (-0.5310363, -0.846826, -0.029767755), (-0.5310363, -0.846826, -0.029767755), (-0.18813488, -0.28795043, -0.9389833), (-0.18813488, -0.28795043, -0.9389833), (-0.18813488, -0.28795043, -0.9389833), (-0.18813488, -0.28795043, -0.9389833), (-0.30588982, -0.105606146, -0.9461918), (-0.30588982, -0.105606146, -0.9461918), (-0.30588982, -0.105606146, -0.9461918), (-0.30588982, -0.105606146, -0.9461918), (-0.9498189, -0.30823562, -0.053243354), (-0.9498189, -0.30823562, -0.053243354), (-0.9498189, -0.30823562, -0.053243354), (-0.9498189, -0.30823562, -0.053243354), (-0.968478, 0.24311082, -0.054288972), (-0.968478, 0.24311082, -0.054288972), (-0.968478, 0.24311082, -0.054288972), (-0.968478, 0.24311082, -0.054288972), (-0.31141964, 0.08437116, -0.94651955), (-0.31141964, 0.08437116, -0.94651955), (-0.31141964, 0.08437116, -0.94651955), (-0.31141964, 0.08437116, -0.94651955), (-0.2054315, 0.2721536, -0.9400694), (-0.2054315, 0.2721536, -0.9400694), (-0.2054315, 0.2721536, -0.9400694), (-0.2054315, 0.2721536, -0.9400694), (-0.5871749, 0.8087906, -0.032914374), (-0.5871749, 0.8087906, -0.032914374), (-0.5871749, 0.8087906, -0.032914374), (-0.5871749, 0.8087906, -0.032914374), (-0.0681643, 0.9976668, -0.0038208263), (-0.068164825, 0.99767405, -0.00026388493), (-0.068164825, 0.99767405, -0.0002819172), (-0.0681643, 0.9976668, -0.0038208263), (-0.01848697, 0.37252238, -0.92783904), (-0.01848697, 0.37252238, -0.92783904), (-0.01848697, 0.37252238, -0.92783904), (-0.01848697, 0.37252238, -0.92783904), (-0.04606754, 0.99749583, 0.053664576), (-0.04959417, 0.9975028, 0.050286267), (-0.0458842, 0.9974948, 0.053839657), (-0.0458842, 0.9974948, 0.053839657), (-0.41618007, 0.79581094, 0.4398627), (-0.41618007, 0.79581094, 0.4398627), (-0.41618007, 0.79581094, 0.4398627), (-0.41618007, 0.79581094, 0.4398627), (-0.4559245, 0.7983745, 0.39335862), (-0.4559245, 0.7983745, 0.39335862), (-0.4559245, 0.7983745, 0.39335862), (-0.4559245, 0.7983745, 0.39335862), (-0.04606754, 0.99749583, 0.053664576), (-0.049972806, 0.99750555, 0.04985442), (-0.05711811, 0.99756885, 0.039924156), (-0.04959417, 0.9975028, 0.050286267), (-0.9169498, 0.24189152, 0.31731933), (-0.9169498, 0.24189152, 0.31731933), (-0.91761637, 0.24056153, 0.31640226), (-0.91760767, 0.24057885, 0.31641418), (-0.89893234, -0.30673566, 0.312784), (-0.89977634, -0.30516344, 0.311894), (-0.8997954, -0.3051277, 0.31187376), (-0.89893234, -0.30673566, 0.312784), (-0.7187584, -0.30020347, 0.6271079), (-0.7187584, -0.30020347, 0.6271079), (-0.7187584, -0.30020347, 0.6271079), (-0.7187584, -0.30020347, 0.6271079), (-0.7369614, 0.24058458, 0.6316699), (-0.7369614, 0.24058458, 0.6316699), (-0.7369614, 0.24058458, 0.6316699), (-0.7369614, 0.24058458, 0.6316699), (-0.37502134, -0.83595157, 0.40067947), (-0.37502134, -0.83595157, 0.40067947), (-0.37502134, -0.83595157, 0.40067947), (-0.37502134, -0.83595157, 0.40067947), (0.0059348103, -0.99997365, 0.0041803108), (0.005916671, -0.9999744, 0.004032947), (0.005916671, -0.9999744, 0.004032947), (0.0062431605, -0.9999581, 0.006691457), (0.0059348103, -0.99997365, 0.0041803108), (0.0062431605, -0.9999581, 0.006691457), (0.007400211, -0.99990225, 0.01186776), (0.0062947357, -0.9999558, 0.006990917), (-0.41091996, -0.8379802, 0.35907385), (-0.41091996, -0.8379802, 0.35907385), (-0.41091996, -0.8379802, 0.35907385), (-0.41091996, -0.8379802, 0.35907385), (0.64780796, 0.35764298, -0.672634), (0.64780796, 0.35764298, -0.672634), (0.64780796, 0.35764298, -0.672634), (0.64780796, 0.35764298, -0.672634), (0.42234334, 0.7946213, -0.4361228), (0.42234334, 0.7946213, -0.4361228), (0.42234334, 0.7946213, -0.4361228), (0.42234334, 0.7946213, -0.4361228), (0.46325606, 0.797561, -0.38638103), (0.46325606, 0.797561, -0.38638103), (0.46325606, 0.797561, -0.38638103), (0.46325606, 0.797561, -0.38638103), (0.713667, 0.3607161, -0.6004692), (0.713667, 0.3607161, -0.6004692), (0.713667, 0.3607161, -0.6004692), (0.713667, 0.3607161, -0.6004692), (-0.67033124, 0.23278731, 0.7046035), (-0.67033124, 0.23278731, 0.7046035), (-0.67033124, 0.23278731, 0.7046035), (-0.67033124, 0.23278731, 0.7046035), (-0.6577571, -0.2956701, 0.69277316), (-0.6577571, -0.2956701, 0.69277316), (-0.6577571, -0.2956701, 0.69277316), (-0.6577571, -0.2956701, 0.69277316), (-0.72470695, -0.2980979, 0.62123865), (-0.72470695, -0.2980979, 0.62123865), (-0.72470695, -0.2980979, 0.62123865), (-0.72470695, -0.2980979, 0.62123865), (-0.73873305, 0.23479967, 0.6317772), (-0.73873305, 0.23479967, 0.6317772), (-0.73873305, 0.23479967, 0.6317772), (-0.73873305, 0.23479967, 0.6317772), (0.46069, -0.7509337, -0.47314194), (0.46069, -0.7509337, -0.47314194), (0.46069, -0.7509337, -0.47314194), (0.46069, -0.7509337, -0.47314194), (0.66319996, -0.29586232, -0.6874818), (0.66319996, -0.29586232, -0.6874818), (0.66319996, -0.29586232, -0.6874818), (0.66319996, -0.29586232, -0.6874818), (0.7308136, -0.2985564, -0.6138203), (0.7308136, -0.2985564, -0.6138203), (0.7308136, -0.2985564, -0.6138203), (0.7308136, -0.2985564, -0.6138203), (0.5053037, -0.7543483, -0.41907856), (0.5053037, -0.7543483, -0.41907856), (0.5053037, -0.7543483, -0.41907856), (0.5053037, -0.7543483, -0.41907856), (0.68416697, 0.015034463, 0.72917044), (0.68416697, 0.015034463, 0.72917044), (0.68416697, 0.015034463, 0.72917044), (0.68416697, 0.015034463, 0.72917044), (0.3764766, 0.42130035, 0.8250887), (0.3764766, 0.42130035, 0.8250887), (0.3764766, 0.42130035, 0.8250887), (0.3764766, 0.42130035, 0.8250887), (-0.08005368, 0.24088182, 0.9672473), (-0.08005368, 0.24088182, 0.9672473), (-0.08005368, 0.24088182, 0.9672473), (-0.08005368, 0.24088182, 0.9672473), (-0.063348725, -0.26432222, 0.9623517), (-0.063348725, -0.26432222, 0.9623517), (-0.063348725, -0.26432222, 0.9623517), (-0.063348725, -0.26432222, 0.9623517), (0.40349957, -0.41168538, 0.8171311), (0.40349957, -0.41168538, 0.8171311), (0.40349957, -0.41168538, 0.8171311), (0.40349957, -0.41168538, 0.8171311), (0.61723584, -0.7645628, -0.18564354), (0.61723584, -0.7645628, -0.18564354), (0.61954486, -0.7622454, -0.18747286), (0.61964077, -0.7621488, -0.1875489), (0.908162, -0.3072677, -0.2843034), (0.90846103, -0.3053492, -0.28541267), (0.9084655, -0.30531985, -0.28542963), (0.908162, -0.3072677, -0.2843034), (0.9597173, -0.27281055, 0.067209534), (0.9597173, -0.27281055, 0.067209534), (0.9597173, -0.27281055, 0.067209534), (0.9597173, -0.27281055, 0.067209534), (0.6664808, -0.7265227, 0.16723682), (0.6664808, -0.7265227, 0.16723682), (0.6664808, -0.7265227, 0.16723682), (0.6664808, -0.7265227, 0.16723682), (-0.060379274, 0.9975529, 0.035252735), (-0.060379274, 0.9975529, 0.035252735), (-0.060545433, 0.99757653, 0.034282565), (-0.060535844, 0.99757516, 0.03433855), (-0.5558443, 0.8072741, 0.19835743), (-0.55821097, 0.8057128, 0.19805907), (-0.55810267, 0.8057846, 0.19807279), (-0.5558443, 0.8072741, 0.19835743), (-0.4210692, 0.73874813, 0.5262623), (-0.4210692, 0.73874813, 0.5262623), (-0.4210692, 0.73874813, 0.5262623), (-0.4210692, 0.73874813, 0.5262623), (0.064880915, 0.92879677, 0.3648658), (0.064880915, 0.92879677, 0.3648658), (0.064880915, 0.92879677, 0.3648658), (0.064880915, 0.92879677, 0.3648658), (-0.50112927, -0.8455042, 0.18436943), (-0.50112927, -0.8455042, 0.18436943), (-0.5032655, -0.8443335, 0.18391503), (-0.5033798, -0.84427077, 0.18389066), (0.0059106746, -0.99982023, 0.018017843), (0.0062941085, -0.9998394, 0.01677531), (0.0063176183, -0.9998406, 0.016699126), (0.0059106746, -0.99982023, 0.018017843), (0.12621784, -0.928496, 0.34923384), (0.12621784, -0.928496, 0.34923384), (0.12621784, -0.928496, 0.34923384), (0.12621784, -0.928496, 0.34923384), (-0.37052333, -0.7739766, 0.5134905), (-0.37052333, -0.7739766, 0.5134905), (-0.37052333, -0.7739766, 0.5134905), (-0.37052333, -0.7739766, 0.5134905), (0.8860197, 0.37073955, -0.2784263), (0.8860197, 0.37073955, -0.2784263), (0.88658875, 0.36850172, -0.2795834), (0.8865755, 0.36855417, -0.2795563), (0.56549746, 0.8066179, -0.17198895), (0.5679528, 0.804506, -0.1737806), (0.5678411, 0.80460244, -0.17369904), (0.56549746, 0.8066179, -0.17198895), (0.61791134, 0.7654288, 0.17973413), (0.61791134, 0.7654288, 0.17973413), (0.61791134, 0.7654288, 0.17973413), (0.61791134, 0.7654288, 0.17973413), (0.94015646, 0.33298767, 0.072283834), (0.94015646, 0.33298767, 0.072283834), (0.94015646, 0.33298767, 0.072283834), (0.94015646, 0.33298767, 0.072283834), (0.8393717, 0.36340007, -0.4042223), (0.8393717, 0.36340007, -0.4042223), (0.8393717, 0.36340007, -0.4042223), (0.8393717, 0.36340007, -0.4042223), (0.54252, 0.7998669, -0.25668055), (0.54252, 0.7998669, -0.25668055), (0.54252, 0.7998669, -0.25668055), (0.54252, 0.7998669, -0.25668055), (0.5702754, 0.8024919, -0.17547847), (0.5702754, 0.8024919, -0.17547847), (0.5678411, 0.80460244, -0.17369904), (0.5679528, 0.804506, -0.1737806), (0.88713527, 0.36632767, -0.28070444), (0.8865755, 0.36855417, -0.2795563), (0.88658875, 0.36850172, -0.2795834), (0.88713527, 0.36632767, -0.28070444), (-0.4801513, -0.84067786, 0.2504307), (-0.4801513, -0.84067786, 0.2504307), (-0.4801513, -0.84067786, 0.2504307), (-0.4801513, -0.84067786, 0.2504307), (0.0074006044, -0.9998981, 0.012213033), (0.0062947357, -0.9999558, 0.006990917), (0.007400211, -0.99990225, 0.01186776), (0.0067202165, -0.99985933, 0.015364593), (0.0074006044, -0.9998981, 0.012213033), (0.0067202165, -0.99985933, 0.015364593), (0.0063176183, -0.9998406, 0.016699126), (0.0062941085, -0.9998394, 0.01677531), (-0.50550014, -0.8431015, 0.1834377), (-0.5033798, -0.84427077, 0.18389066), (-0.5032655, -0.8443335, 0.18391503), (-0.50550014, -0.8431015, 0.1834377), (-0.057440527, 0.9975701, 0.039427403), (-0.060579836, 0.99759775, 0.033598475), (-0.05711811, 0.99756885, 0.039924156), (-0.049972806, 0.99750555, 0.04985442), (-0.53253835, 0.8013902, 0.272354), (-0.53253835, 0.8013902, 0.272354), (-0.53253835, 0.8013902, 0.272354), (-0.53253835, 0.8013902, 0.272354), (-0.5604515, 0.8042259, 0.19777459), (-0.5604515, 0.8042259, 0.19777459), (-0.55810267, 0.8057846, 0.19807279), (-0.55821097, 0.8057128, 0.19805907), (-0.057440527, 0.9975701, 0.039427403), (-0.060535844, 0.99757516, 0.03433855), (-0.060545433, 0.99757653, 0.034282565), (-0.060579836, 0.99759775, 0.033598475), (0.59156793, -0.7568823, -0.27780646), (0.59156793, -0.7568823, -0.27780646), (0.59156793, -0.7568823, -0.27780646), (0.59156793, -0.7568823, -0.27780646), (0.85961574, -0.3008698, -0.41296268), (0.85961574, -0.3008698, -0.41296268), (0.85961574, -0.3008698, -0.41296268), (0.85961574, -0.3008698, -0.41296268), (0.90875816, -0.30341196, -0.28653044), (0.90875816, -0.30341196, -0.28653044), (0.9084655, -0.30531985, -0.28542963), (0.90846103, -0.3053492, -0.28541267), (0.6219272, -0.75983405, -0.1893647), (0.61964077, -0.7621488, -0.1875489), (0.61954486, -0.7622454, -0.18747286), (0.6219272, -0.75983405, -0.1893647), (-0.8680695, 0.23702563, 0.43620434), (-0.8680695, 0.23702563, 0.43620434), (-0.8680695, 0.23702563, 0.43620434), (-0.8680695, 0.23702563, 0.43620434), (-0.8515285, -0.3008428, 0.42940965), (-0.8515285, -0.3008428, 0.42940965), (-0.8515285, -0.3008428, 0.42940965), (-0.8515285, -0.3008428, 0.42940965), (-0.90063024, -0.3035646, 0.31098837), (-0.90063024, -0.3035646, 0.31098837), (-0.8997954, -0.3051277, 0.31187376), (-0.89977634, -0.30516344, 0.311894), (-0.91826713, 0.23925681, 0.31550214), (-0.91760767, 0.24057885, 0.31641418), (-0.91761637, 0.24056153, 0.31640226), (-0.91826713, 0.23925681, 0.31550214), (0.034622323, 0.99776566, 0.05714002), (0.031734735, 0.997842, 0.057483464), (0.031734735, 0.997842, 0.057483464), (0.03718061, 0.99769104, 0.056835234), (0.034622323, 0.99776566, 0.05714002), (0.03718061, 0.99769104, 0.056835234), (0.04738271, 0.9976224, 0.05004518), (0.037513494, 0.9976866, 0.056693535), (0.35856628, 0.810307, 0.46350056), (0.35856628, 0.810307, 0.46350056), (0.35856628, 0.810307, 0.46350056), (0.35856628, 0.810307, 0.46350056), (0.3039461, 0.81862265, 0.4873128), (0.3039461, 0.81862265, 0.4873128), (0.3039461, 0.81862265, 0.4873128), (0.3039461, 0.81862265, 0.4873128), (0.8324813, 0.24189189, 0.49846068), (0.8333116, 0.24057908, 0.49770817), (0.8333225, 0.24056174, 0.49769822), (0.8324813, 0.24189189, 0.49846068), (0.5919155, 0.24057946, 0.7692577), (0.5919155, 0.24057946, 0.7692577), (0.5919155, 0.24057946, 0.7692577), (0.5919155, 0.24057946, 0.7692577), (0.575022, -0.30021554, 0.7610653), (0.575022, -0.30021554, 0.7610653), (0.575022, -0.30021554, 0.7610653), (0.575022, -0.30021554, 0.7610653), (0.815775, -0.3067433, 0.4903262), (0.815775, -0.3067433, 0.4903262), (0.8168066, -0.30513224, 0.48961332), (0.8167837, -0.30516803, 0.4896292), (0.27190518, -0.85500795, 0.4416208), (0.27190518, -0.85500795, 0.4416208), (0.27190518, -0.85500795, 0.4416208), (0.27190518, -0.85500795, 0.4416208), (0.3215797, -0.8479805, 0.4213259), (0.3215797, -0.8479805, 0.4213259), (0.3215797, -0.8479805, 0.4213259), (0.3215797, -0.8479805, 0.4213259), (-0.006767988, -0.99996555, 0.004810832), (-0.008531624, -0.9999297, 0.008230385), (-0.009614522, -0.9999008, 0.010288527), (-0.0067288117, -0.9999662, 0.004731485), (-0.006767988, -0.99996555, 0.004810832), (-0.0067288117, -0.9999662, 0.004731485), (-0.0061938763, -0.99997413, 0.0036480357), (-0.0061938763, -0.99997413, 0.0036480357), (-0.50353295, 0.38570073, -0.77310383), (-0.50353295, 0.38570073, -0.77310383), (-0.50353295, 0.38570073, -0.77310383), (-0.50353295, 0.38570073, -0.77310383), (-0.58339286, 0.37520158, -0.72033095), (-0.58339286, 0.37520158, -0.72033095), (-0.58339286, 0.37520158, -0.72033095), (-0.58339286, 0.37520158, -0.72033095), (-0.3697389, 0.8104318, -0.45441562), (-0.3697389, 0.8104318, -0.45441562), (-0.3697389, 0.8104318, -0.45441562), (-0.3697389, 0.8104318, -0.45441562), (-0.31333694, 0.81913507, -0.48045576), (-0.31333694, 0.81913507, -0.48045576), (-0.31333694, 0.81913507, -0.48045576), (-0.31333694, 0.81913507, -0.48045576), (0.5126578, 0.2529491, 0.82048684), (0.5126578, 0.2529491, 0.82048684), (0.5126578, 0.2529491, 0.82048684), (0.5126578, 0.2529491, 0.82048684), (0.5951288, 0.24514201, 0.76532817), (0.5951288, 0.24514201, 0.76532817), (0.5951288, 0.24514201, 0.76532817), (0.5951288, 0.24514201, 0.76532817), (0.5829746, -0.308799, 0.75152093), (0.5829746, -0.308799, 0.75152093), (0.5829746, -0.308799, 0.75152093), (0.5829746, -0.308799, 0.75152093), (0.5018034, -0.31650442, 0.8049958), (0.5018034, -0.31650442, 0.8049958), (0.5018034, -0.31650442, 0.8049958), (0.5018034, -0.31650442, 0.8049958), (-0.343863, -0.7794986, -0.52358395), (-0.343863, -0.7794986, -0.52358395), (-0.343863, -0.7794986, -0.52358395), (-0.343863, -0.7794986, -0.52358395), (-0.40476248, -0.76930445, -0.49430558), (-0.40476248, -0.76930445, -0.49430558), (-0.40476248, -0.76930445, -0.49430558), (-0.40476248, -0.76930445, -0.49430558), (-0.5985794, -0.31249005, -0.73759925), (-0.5985794, -0.31249005, -0.73759925), (-0.5985794, -0.31249005, -0.73759925), (-0.5985794, -0.31249005, -0.73759925), (-0.51731133, -0.32290763, -0.7925399), (-0.51731133, -0.32290763, -0.7925399), (-0.51731133, -0.32290763, -0.7925399), (-0.51731133, -0.32290763, -0.7925399), (-0.81905353, 0.015045233, 0.5735198), (-0.81905353, 0.015045233, 0.5735198), (-0.81905353, 0.015045233, 0.5735198), (-0.81905353, 0.015045233, 0.5735198), (-0.56234, -0.41169295, 0.71713513), (-0.56234, -0.41169295, 0.71713513), (-0.56234, -0.41169295, 0.71713513), (-0.56234, -0.41169295, 0.71713513), (-0.13516161, -0.26433212, 0.95491356), (-0.13516161, -0.26433212, 0.95491356), (-0.13516161, -0.26433212, 0.95491356), (-0.13516161, -0.26433212, 0.95491356), (-0.11982986, 0.24088538, 0.96312773), (-0.11982986, 0.24088538, 0.96312773), (-0.11982986, 0.24088538, 0.96312773), (-0.11982986, 0.24088538, 0.96312773), (-0.537541, 0.42129934, 0.7304495), (-0.537541, 0.42129934, 0.7304495), (-0.537541, 0.42129934, 0.7304495), (-0.537541, 0.42129934, 0.7304495), (-0.5661039, -0.76456445, -0.30816832), (-0.5680689, -0.762149, -0.3105264), (-0.56799066, -0.7622456, -0.31043234), (-0.5661039, -0.76456445, -0.30816832), (-0.686613, -0.7265164, 0.027137326), (-0.686613, -0.7265164, 0.027137326), (-0.686613, -0.7265164, 0.027137326), (-0.686613, -0.7265164, 0.027137326), (-0.9531272, -0.2728146, -0.13084663), (-0.9531272, -0.2728146, -0.13084663), (-0.9531272, -0.2728146, -0.13084663), (-0.9531272, -0.2728146, -0.13084663), (-0.83064437, -0.3072733, -0.46434146), (-0.83064437, -0.3072733, -0.46434146), (-0.83071023, -0.3053271, -0.46550605), (-0.8307093, -0.3053564, -0.46548852), (0.05187724, 0.9975526, 0.046876773), (0.052217312, 0.9975751, 0.046013866), (0.052238133, 0.9975764, 0.045961026), (0.05187724, 0.9975526, 0.046876773), (-0.13826574, 0.9287948, 0.34383526), (-0.13826574, 0.9287948, 0.34383526), (-0.13826574, 0.9287948, 0.34383526), (-0.13826574, 0.9287948, 0.34383526), (0.30430397, 0.73875195, 0.601369), (0.30430397, 0.73875195, 0.601369), (0.30430397, 0.73875195, 0.601369), (0.30430397, 0.73875195, 0.601369), (0.5034056, 0.807279, 0.30803147), (0.5034056, 0.807279, 0.30803147), (0.50567734, 0.80578685, 0.30821735), (0.5057864, 0.8057151, 0.30822626), (0.45272356, -0.8455041, 0.28313285), (0.45502356, -0.8442712, 0.28312513), (0.4549066, -0.844334, 0.28312555), (0.45272356, -0.8455041, 0.28313285), (0.2574553, -0.77397287, 0.57851774), (0.2574553, -0.77397287, 0.57851774), (0.2574553, -0.77397287, 0.57851774), (0.2574553, -0.77397287, 0.57851774), (-0.19509526, -0.9284942, 0.31596872), (-0.19509526, -0.9284942, 0.31596872), (-0.19509526, -0.9284942, 0.31596872), (-0.19509526, -0.9284942, 0.31596872), (-0.0094780885, -0.9998202, 0.016424013), (-0.0094780885, -0.9998202, 0.016424013), (-0.009605598, -0.9998406, 0.015050293), (-0.009598234, -0.9998394, 0.015129633), (-0.8101796, 0.37073588, -0.45405293), (-0.81049, 0.3685541, -0.45527333), (-0.8104974, 0.3685017, -0.45530257), (-0.8101796, 0.37073588, -0.45405293), (-0.93502414, 0.332982, -0.12187234), (-0.93502414, 0.332982, -0.12187234), (-0.93502414, 0.332982, -0.12187234), (-0.93502414, 0.332982, -0.12187234), (-0.64162314, 0.7654326, 0.049322955), (-0.64162314, 0.7654326, 0.049322955), (-0.64162314, 0.7654326, 0.049322955), (-0.64162314, 0.7654326, 0.049322955), (-0.51826173, 0.8066186, -0.28420293), (-0.51826173, 0.8066186, -0.28420293), (-0.5202045, 0.80460376, -0.28635672), (-0.52029705, 0.80450726, -0.28645942), (-0.741732, 0.36720055, -0.56124634), (-0.741732, 0.36720055, -0.56124634), (-0.741732, 0.36720055, -0.56124634), (-0.741732, 0.36720055, -0.56124634), (-0.8108008, 0.3663313, -0.45651242), (-0.8108008, 0.3663313, -0.45651242), (-0.8104974, 0.3685017, -0.45530257), (-0.81049, 0.3685541, -0.45527333), (-0.52222174, 0.8024939, -0.28859693), (-0.52029705, 0.80450726, -0.28645942), (-0.5202045, 0.80460376, -0.28635672), (-0.52222174, 0.8024939, -0.28859693), (-0.47704485, 0.80330837, -0.35654426), (-0.47704485, 0.80330837, -0.35654426), (-0.47704485, 0.80330837, -0.35654426), (-0.47704485, 0.80330837, -0.35654426), (0.41624445, -0.8434295, 0.33965722), (0.41624445, -0.8434295, 0.33965722), (0.41624445, -0.8434295, 0.33965722), (0.41624445, -0.8434295, 0.33965722), (0.45719084, -0.8431026, 0.28311604), (0.45719084, -0.8431026, 0.28311604), (0.4549066, -0.844334, 0.28312555), (0.45502356, -0.8442712, 0.28312513), (-0.009670234, -0.9998981, 0.010502646), (-0.009598234, -0.9998394, 0.015129633), (-0.009605598, -0.9998406, 0.015050293), (-0.009722804, -0.9998598, 0.013634164), (-0.009670234, -0.9998981, 0.010502646), (-0.009722804, -0.9998598, 0.013634164), (-0.009614522, -0.9999008, 0.010288527), (-0.008531624, -0.9999297, 0.008230385), (0.04777222, 0.997619, 0.049739867), (0.037513494, 0.9976866, 0.056693535), (0.04738271, 0.9976224, 0.05004518), (0.052401137, 0.9975994, 0.04527167), (0.04777222, 0.997619, 0.049739867), (0.052401137, 0.9975994, 0.04527167), (0.052238133, 0.9975764, 0.045961026), (0.052217312, 0.9975751, 0.046013866), (0.5080407, 0.8042256, 0.30840862), (0.5057864, 0.8057151, 0.30822626), (0.50567734, 0.80578685, 0.30821735), (0.5080407, 0.8042256, 0.30840862), (0.46302113, 0.80466634, 0.37164986), (0.46302113, 0.80466634, 0.37164986), (0.46302113, 0.80466634, 0.37164986), (0.46302113, 0.80466634, 0.37164986), (-0.520931, -0.7608731, -0.38691476), (-0.520931, -0.7608731, -0.38691476), (-0.520931, -0.7608731, -0.38691476), (-0.520931, -0.7608731, -0.38691476), (-0.5699364, -0.7598329, -0.3127726), (-0.5699364, -0.7598329, -0.3127726), (-0.56799066, -0.7622456, -0.31043234), (-0.5680689, -0.762149, -0.3105264), (-0.83077055, -0.3034208, -0.4666435), (-0.8307093, -0.3053564, -0.46548852), (-0.83071023, -0.3053271, -0.46550605), (-0.83077055, -0.3034208, -0.4666435), (-0.7601349, -0.3045386, -0.57397836), (-0.7601349, -0.3045386, -0.57397836), (-0.7601349, -0.3045386, -0.57397836), (-0.7601349, -0.3045386, -0.57397836), (0.7608651, 0.23986207, 0.6029514), (0.7608651, 0.23986207, 0.6029514), (0.7608651, 0.23986207, 0.6029514), (0.7608651, 0.23986207, 0.6029514), (0.83414483, 0.23925686, 0.49694917), (0.83414483, 0.23925686, 0.49694917), (0.8333225, 0.24056174, 0.49769822), (0.8333116, 0.24057908, 0.49770817), (0.8178055, -0.30356613, 0.488919), (0.8167837, -0.30516803, 0.4896292), (0.8168066, -0.30513224, 0.48961332), (0.8178055, -0.30356613, 0.488919), (0.74586594, -0.30377427, 0.5927944), (0.74586594, -0.30377427, 0.5927944), (0.74586594, -0.30377427, 0.5927944), (0.74586594, -0.30377427, 0.5927944), (0.9314688, 0.35315475, -0.087450586), (0.9314688, 0.35315475, -0.087450586), (0.9314688, 0.35315475, -0.087450586), (0.9314688, 0.35315475, -0.087450586), (0.611667, 0.78946936, -0.05100498), (0.611667, 0.78946936, -0.05100498), (0.611667, 0.78946936, -0.05100498), (0.611667, 0.78946936, -0.05100498), (0.59381133, 0.8000903, -0.08510902), (0.59381133, 0.8000903, -0.08510902), (0.59370637, 0.80017024, -0.08509029), (0.5875804, 0.80479616, -0.0839792), (0.9201045, 0.36410117, -0.14435376), (0.9191296, 0.3666219, -0.14418457), (0.9191705, 0.36651644, -0.14419167), (0.9201045, 0.36410117, -0.14435376), (-0.5423921, -0.8360447, 0.08270447), (-0.5423921, -0.8360447, 0.08270447), (-0.5423921, -0.8360447, 0.08270447), (-0.5423921, -0.8360447, 0.08270447), (0.009571104, -0.999698, 0.022633899), (0.007093666, -0.9998642, 0.0148751205), (0.009320275, -0.9997285, 0.02135547), (0.008748063, -0.9996115, 0.026462553), (0.009571104, -0.999698, 0.022633899), (0.008748063, -0.9996115, 0.026462553), (0.0073823007, -0.9996072, 0.027036706), (0.007233994, -0.9996075, 0.02706333), (-0.5243391, -0.8427286, 0.121970996), (-0.52284825, -0.84369266, 0.12170597), (-0.52270216, -0.84378695, 0.12168001), (-0.5243391, -0.8427286, 0.121970996), (-0.06380368, 0.99762684, 0.025878284), (-0.061705854, 0.99754363, 0.033153094), (-0.06397978, 0.9976312, 0.02526681), (-0.06397978, 0.9976312, 0.02526681), (-0.60025835, 0.79531735, 0.0846177), (-0.60025835, 0.79531735, 0.0846177), (-0.60025835, 0.79531735, 0.0846177), (-0.60025835, 0.79531735, 0.0846177), (-0.5813583, 0.8036292, 0.12728913), (-0.5813583, 0.8036292, 0.12728913), (-0.5794663, 0.8050488, 0.12694526), (-0.579621, 0.8049331, 0.12697338), (-0.06380368, 0.99762684, 0.025878284), (-0.0622095, 0.997489, 0.033846814), (-0.06214075, 0.9974938, 0.033834472), (-0.061705854, 0.99754363, 0.033153094), (0.66494846, -0.7449928, -0.053191498), (0.66494846, -0.7449928, -0.053191498), (0.66494846, -0.7449928, -0.053191498), (0.66494846, -0.7449928, -0.053191498), (0.9523624, -0.29192123, -0.0882487), (0.9523624, -0.29192123, -0.0882487), (0.9523624, -0.29192123, -0.0882487), (0.9523624, -0.29192123, -0.0882487), (0.9421496, -0.30145207, -0.14656332), (0.9421496, -0.30145207, -0.14656332), (0.9414851, -0.3035818, -0.14643763), (0.94146514, -0.30364546, -0.14643386), (0.64705765, -0.7570541, -0.090473264), (0.64081615, -0.76248163, -0.08931108), (0.64695024, -0.75714827, -0.090453655), (0.64705765, -0.7570541, -0.090473264), (-0.9646981, 0.23181254, 0.1249823), (-0.9646981, 0.23181254, 0.1249823), (-0.9646981, 0.23181254, 0.1249823), (-0.9646981, 0.23181254, 0.1249823), (-0.94747233, -0.29457533, 0.12458582), (-0.94747233, -0.29457533, 0.12458582), (-0.94747233, -0.29457533, 0.12458582), (-0.94747233, -0.29457533, 0.12458582), (-0.93338245, -0.30278105, 0.19266799), (-0.93338245, -0.30278105, 0.19266799), (-0.9329234, -0.30424026, 0.19259249), (-0.93290514, -0.30429783, 0.1925895), (-0.95149726, 0.23858204, 0.1942463), (-0.95119286, 0.23983836, 0.19418965), (-0.95120025, 0.23980808, 0.19419101), (-0.95149726, 0.23858204, 0.1942463)] (
                interpolation = "faceVarying"
            )
            point3f[] points = [(-0.05236034, 0.1662241, 0.3082821), (0.04892341, -0.07607571, 1.4621325), (-0.10045947, -0.13280362, 1.4900544), (-0.16945843, -0.0070151314, 0.30828214), (-0.19817258, -0.0016507208, 1.5083107), (-0.109181456, 0.13613412, 1.4916848), (0.015100355, -0.0009813295, 0.0016906725), (-0.20186587, 0.10276933, 2.6525679), (-0.040883444, -0.17191592, 0.30828217), (0.15567835, -0.10059093, 0.30828217), (0.14858523, 0.108391084, 0.30828214), (-0.042299625, 0.011603016, 4.6364675), (-0.19615945, -0.08784758, 2.6495197), (-0.1019558, 0.07016759, 2.5992002), (-0.26008695, 0.005110584, 2.683667), (-0.09842904, -0.047640152, 2.5973165), (0.03670159, 0.013962335, 4.7397914), (0.06444566, -0.019857407, 4.616181), (-0.0038552172, 0.069846496, 4.629161), (-0.00008730218, -0.04383704, 4.6284447), (0.062116913, 0.05040289, 4.6166234), (0.14836103, 0.108391084, 0.7705308), (0.15546149, -0.100590944, 0.7705308), (-0.041294567, -0.1719159, 0.77054924), (-0.16999538, -0.0070151426, 0.7705535), (-0.05278259, 0.16622412, 0.77055043), (0.04353244, 0.090136945, 1.4631394), (0.1436226, 0.1083911, 0.025815904), (0.15071572, -0.10059093, 0.025815915), (-0.045846082, -0.17191587, 0.025815915), (-0.17442106, -0.0070151053, 0.025815904), (-0.05732298, 0.16622414, 0.025815891), (0.20609309, 0.052954204, 2.5653386), (0.7809806, -0.000411883, 3.6772084), (0.20834929, -0.05697587, 2.5625281), (0.24559376, 0.034152552, 2.516128), (0.1830748, -0.003366273, 2.5940156), (0.24698824, -0.033787955, 2.514391), (0.8327925, 0.0011273623, 3.6997635), (0.8544313, -0.022646517, 3.653998), (0.807434, 0.040751547, 3.6688495), (0.81002665, -0.039593995, 3.6680298), (0.85282874, 0.027009785, 3.6545043), (0.7196611, 0.030331805, 3.236682), (0.67407465, -0.047118545, 3.2609978), (0.6713132, 0.046311438, 3.2624705), (0.7213678, -0.027411118, 3.2357717), (0.64313924, -0.0015555471, 3.2774985), (-0.43211657, 0.052954234, 2.045255), (-1.2152239, -0.0004117489, 3.0157502), (-0.43391508, -0.05697579, 2.0420418), (-0.4678403, 0.034152597, 1.9889951), (-0.41135877, -0.003366202, 2.0780394), (-0.46898043, -0.033787884, 1.9870092), (-1.2705578, 0.0011275411, 3.0272112), (-1.2823607, -0.022646457, 2.9779832), (-1.2394034, 0.040751576, 3.0021484), (-1.2417731, -0.039593875, 3.0008152), (-1.2808962, 0.027009845, 2.9788072), (-1.0649469, 0.03033185, 2.5971327), (-1.0253096, -0.047118425, 2.6302726), (-1.0229084, 0.046311483, 2.63228), (-1.0664308, -0.027411014, 2.595892), (-0.9984112, -0.0015554428, 2.6527615), (-0.058152582, 0.06019584, 3.8732803), (-0.13558199, -0.06454489, 3.9041052), (-0.1402723, 0.08593237, 3.9059718), (-0.05525378, -0.032804225, 3.8721263), (-0.18812639, 0.008838382, 3.9250226), (0.1173674, 0.08104801, 0.00772198), (0.12268725, -0.075688526, 0.0077219834), (-0.024734112, -0.12918223, 0.0077219834), (-0.12116535, -0.0055066645, 0.00772198), (-0.03334181, 0.12442277, 0.0077219773), (-0.036785148, 0.07601754, 1.9915049), (-0.032718647, -0.056709222, 1.9897753), (-0.14540468, -0.10200848, 2.03771), (-0.21911465, 0.0027218163, 2.0690632), (-0.15198423, 0.11274793, 2.0405087), (-0.11980361, 0.066817045, 3.2414002), (-0.11650752, -0.041970983, 3.239764), (-0.20784484, -0.07910004, 3.2851095), (-0.26759055, 0.0067409948, 3.3147707), (-0.21317798, 0.09692268, 3.287757), (-0.24662147, 0.06592987, 2.6764743), (-0.14668801, 0.10704368, 2.623094), (-0.14085293, -0.08787024, 2.6199775), (-0.24301526, -0.054533545, 2.6745481), (-0.08131944, 0.01199, 2.5881774), (0.06519761, 0.040524546, 4.7057266), (0.066899456, -0.010386856, 4.7054505), (0.019738793, -0.02776277, 4.7131023), (-0.011109965, 0.012409724, 4.7181077), (0.016985206, 0.054613598, 4.713549), (-0.031026945, -0.023968617, 4.634325), (-0.1770586, 0.05685046, 3.9206164), (0.07574336, 0.015705897, 4.614033), (-0.09012352, -0.06456275, 3.8860083), (-0.09491959, 0.089306645, 3.887917), (0.18990776, 0.0051884316, 0.77052313), (0.15688583, 0.10839108, 0.55301476), (0.05830348, 0.17380646, 0.77054334), (0.11368511, 0.103827536, 1.0456368), (0.070051074, -0.17195606, 0.77054316), (0.16398078, -0.100590944, 0.5530148), (0.12036188, -0.094462134, 1.045385), (-0.1356264, -0.112819314, 0.77055186), (-0.03262956, -0.1719159, 0.55301946), (-0.064648, -0.16213784, 1.0523887), (-0.142886, 0.10087368, 0.77055335), (-0.16123599, -0.007015135, 0.5530205), (-0.18566485, -0.005674038, 1.056958), (-0.044109263, 0.1662241, 0.5530197), (-0.07545008, 0.1587016, 1.0527977), (0.07507609, 0.008055309, 1.4572395), (-0.024841923, 0.14216469, 1.4759235), (0.05861699, 0.17380649, 0.3082821), (0.18512775, 0.005188454, 0.025815913), (-0.1423758, 0.10087368, 0.3082821), (-0.17759028, 0.08415802, 1.504466), (0.065389976, -0.17195605, 0.025815915), (-0.015922721, -0.13283554, 1.4742572), (-0.14008541, -0.112819314, 0.025815913), (-0.17207879, -0.0858015, 1.5034348), (0.053654354, 0.1738065, 0.025815895), (0.19009036, 0.0051884428, 0.30828214), (-0.14733845, 0.100873694, 0.025815895), (0.0703526, -0.17195606, 0.30828217), (-0.1351228, -0.112819314, 0.30828217), (0.13898791, 0.1083911, 0.10849509), (0.14608102, -0.10059094, 0.1084951), (-0.050480764, -0.17191589, 0.1084951), (-0.17905574, -0.0070151202, 0.10849509), (-0.061957642, 0.1662241, 0.10849506), (-0.1064979, 0.035141785, 2.1773746), (-0.105496645, -0.036048792, 2.1751754), (-0.1332377, -0.06034599, 2.236118), (-0.15138373, -0.004171837, 2.275982), (-0.1348576, 0.054842837, 2.2396765), (0.5401564, 0.032702744, 2.8656433), (0.5418256, -0.031063326, 2.8643441), (0.49557412, -0.05282648, 2.9003506), (0.46532014, -0.0025108084, 2.923903), (0.49287346, 0.050349206, 2.9024527), (0.1883985, 0.031708628, 2.587383), (0.22790827, 0.05541925, 2.538161), (0.23021542, -0.056988917, 2.535287), (0.18982428, -0.037763447, 2.585607), (0.25375268, 0.0006011501, 2.5059636), (0.8534158, 0.020293921, 3.6838305), (0.85460603, -0.01637876, 3.6834698), (0.82162493, -0.028894976, 3.6934497), (0.8000514, 0.000042125583, 3.6999774), (0.8196992, 0.030442595, 3.6940324), (0.78873724, -0.025552034, 3.6747575), (0.64965546, 0.028254747, 3.2740228), (0.862205, 0.002487734, 3.6515415), (0.70083827, -0.047129646, 3.2467222), (0.69801456, 0.04840648, 3.248228), (0.6514004, -0.030789807, 3.273092), (0.787099, 0.025223538, 3.6752748), (0.7296473, 0.0018163174, 3.2313554), (0.8351557, -0.039603576, 3.660089), (0.83250445, 0.042553157, 3.6609268), (0.8139408, 0.02808556, 3.5320377), (0.7701317, -0.041993782, 3.5487857), (0.76747817, 0.04254441, 3.5498002), (0.81558096, -0.02416198, 3.5314107), (0.7404026, -0.0007670671, 3.5601504), (-0.06834782, 0.03514183, 1.729567), (-0.0691396, -0.036048733, 1.7272093), (-0.04025591, -0.060345855, 1.7925432), (-0.022123635, -0.0041717677, 1.8352793), (-0.03906716, 0.05484286, 1.7963579), (-0.8168633, 0.032702833, 2.2707431), (-0.8182636, -0.031063244, 2.2691298), (-0.7785933, -0.05282642, 2.3138487), (-0.7527395, -0.0025107265, 2.3431003), (-0.77633923, 0.05034925, 2.3164597), (-0.416219, 0.031708658, 2.070457), (-0.45175558, 0.05541929, 2.014184), (-0.45363045, -0.05698882, 2.0108984), (-0.41732708, -0.037763365, 2.0684266), (-0.47527912, 0.00060118735, 1.9773748), (-1.2874792, 0.02029398, 3.0073905), (-1.2885702, -0.01637867, 3.0067945), (-1.2583336, -0.028894842, 3.0233192), (-1.2385551, 0.000042319298, 3.034129), (-1.2565682, 0.030442685, 3.0242844), (-1.2223138, -0.025551915, 3.011762), (-1.0040771, 0.028254822, 2.6480246), (-1.2894664, 0.0024877787, 2.973986), (-1.0485805, -0.04712957, 2.6108165), (-1.0461252, 0.04840654, 2.6128693), (-1.0055943, -0.030789733, 2.646756), (-1.2208164, 0.025223672, 3.0126045), (-1.07363, 0.0018163621, 2.589873), (-1.2647421, -0.039603412, 2.9878945), (-1.2623188, 0.042553246, 2.9892576), (-1.2177413, 0.02808559, 2.866906), (-1.178293, -0.041993678, 2.8922744), (-1.1759036, 0.042544454, 2.8938112), (-1.2192181, -0.024161845, 2.8659565), (-1.1515231, -0.00076693296, 2.9094896), (-0.17409456, -0.038246006, 3.9194365), (-0.03340813, 0.047875512, 4.634778), (-0.04119082, 0.014269153, 3.866528), (0.03643252, -0.04385055, 4.6215053), (0.03257961, 0.07239571, 4.6222367), (0.022615008, 0.053619336, 4.3724756), (-0.044589832, -0.05063843, 4.3905396), (-0.048660725, 0.07512982, 4.391633), (0.02513098, -0.024109712, 4.3718004), (-0.09019568, 0.010694986, 4.4027967), (0.049924415, 0.13816392, 0.012412993), (0.15458786, 0.003930323, 0.012413003), (0.05926692, -0.13709101, 0.0124130035), (-0.10430809, -0.09001341, 0.012413003), (-0.110082105, 0.08010351, 0.012412993), (-0.012990704, 0.010472425, 1.9813825), (-0.08836275, 0.117563576, 2.013446), (-0.081634745, -0.10203396, 2.0105846), (-0.19943061, -0.06447558, 2.0606902), (-0.20358855, 0.07124316, 2.0624592), (-0.10051716, 0.013093701, 3.2318254), (-0.1616096, 0.10086979, 3.2621553), (-0.15615621, -0.07912095, 3.259448), (-0.2516356, -0.048336595, 3.3068497), (-0.2550059, 0.06290375, 3.3085227), (0.07423307, 0.01542961, 4.6809163), (0.040454015, 0.059547085, 4.68672), (0.04346923, -0.030918736, 4.6862016), (-0.009323016, -0.0154461125, 4.695271), (-0.011186504, 0.04046484, 4.695591), (0.06689529, 0.17380647, 0.553018), (0.02900373, 0.16589603, 1.0488485), (0.15275188, 0.005905155, 1.0441523), (0.19840136, 0.0051884353, 0.55301285), (0.040050205, -0.16217594, 1.0484318), (0.07863388, -0.17195605, 0.5530179), (-0.15334798, -0.10606488, 1.0557369), (-0.12689205, -0.112819314, 0.55302006), (-0.16017379, 0.09669475, 1.0559965), (-0.13414672, 0.10087369, 0.5530205), (0.049019642, 0.1738065, 0.10849506), (0.18049304, 0.0051884465, 0.1084951), (-0.1519731, 0.10087368, 0.10849506), (0.060755275, -0.17195603, 0.1084951), (-0.14472012, -0.11281929, 0.1084951), (-0.10064012, -0.000014590099, 2.1645062), (-0.1191953, 0.05742579, 2.2052686), (-0.11753874, -0.060359642, 2.2016299), (-0.1465379, -0.0402145, 2.2653365), (-0.14756152, 0.032580953, 2.267585), (0.5499227, 0.0012128204, 2.8580403), (0.51898664, 0.05266279, 2.882124), (0.5217482, -0.05283872, 2.8799741), (0.47339937, -0.03479451, 2.9176135), (0.47169274, 0.030408978, 2.9189417), (0.86009496, 0.002235651, 3.6741226), (0.8366025, 0.0338078, 3.681338), (0.8386996, -0.030932903, 3.680694), (0.8019838, -0.019860089, 3.6919708), (0.80068797, 0.020151809, 3.692369), (0.74834156, -0.027219057, 3.5571158), (0.7466648, 0.02620615, 3.5577567), (0.82353765, 0.0022838414, 3.5283687), (0.795852, -0.0420039, 3.5389528), (0.7931384, 0.04444006, 3.5399902), (-0.07451584, -0.00001456216, 1.7157714), (-0.0550576, 0.05742584, 1.7594709), (-0.05634451, -0.060359545, 1.7555702), (-0.02685517, -0.040214367, 1.8238668), (-0.026161045, 0.03258097, 1.8262774), (-0.8252485, 0.0012128502, 2.2613008), (-0.798697, 0.05266285, 2.2912116), (-0.80101085, -0.052838683, 2.288542), (-0.7596298, -0.034794465, 2.3352888), (-0.7582125, 0.030409053, 2.3369386), (-1.2920276, 0.0022357106, 2.9965203), (-1.270512, 0.033807844, 3.008396), (-1.2724324, -0.030932784, 3.007336), (-1.2388061, -0.01986, 3.0258958), (-1.2376193, 0.020151943, 3.0265512), (-1.1586719, -0.027218968, 2.9048924), (-1.157162, 0.026206255, 2.9058635), (-1.2263829, 0.0022839904, 2.8613486), (-1.201453, -0.04200375, 2.8773808), (-1.1990094, 0.04444012, 2.878952), (-0.07801677, -0.028657958, 4.3995233), (-0.0805894, 0.050823286, 4.400215), (0.037336923, 0.015234008, 4.3685193), (-0.0051341774, -0.050653357, 4.3799343), (-0.009296881, 0.07795003, 4.381053)]
            uniform token subdivisionScheme = "none"
            custom string userProperties:blender:data_name = "Cylinder.010"
        }
    }

    def Scope "_materials"
    {
        def Material "Brown"
        {
            token outputs:surface.connect = </root/_materials/Brown/Principled_BSDF.outputs:surface>
            custom string userProperties:blender:data_name = "Brown"

            def Shader "Principled_BSDF"
            {
                uniform token info:id = "UsdPreviewSurface"
                float inputs:clearcoat = 0
                float inputs:clearcoatRoughness = 0.03
                color3f inputs:diffuseColor = (0.3843708, 0.17054185, 0.07073957)
                float inputs:ior = 1.5
                float inputs:metallic = 0
                float inputs:opacity = 1
                float inputs:roughness = 0.6900348
                float inputs:specular = 0.5
                token outputs:surface
            }
        }
    }
}

