#usda 1.0
(
    defaultPrim = "root"
    doc = "Blender v5.1.2"
    metersPerUnit = 1
    upAxis = "Y"
)

def Xform "root" (
    customData = {
        dictionary Blender = {
            bool generated = 1
        }
    }
)
{
    float3 xformOp:rotateXYZ = (-90, -0, 0)
    uniform token[] xformOpOrder = ["xformOp:rotateXYZ"]

    def Xform "Petal_4"
    {
        custom string userProperties:blender:object_name = "Petal_4"

        def Mesh "Plane_027" (
            active = true
            prepend apiSchemas = ["MaterialBindingAPI"]
        )
        {
            uniform bool doubleSided = 1
            float3[] extent = [(-0.14339481, -0.12215581, -1.374305e-7), (0.18569846, 0.12229617, 0.25205618)]
            int[] faceVertexCounts = [3, 4, 4, 4, 4, 3, 3, 4, 4, 4, 3, 3, 4, 4, 4, 3, 4, 4]
            int[] faceVertexIndices = [3, 16, 15, 11, 9, 2, 0, 5, 3, 14, 6, 0, 2, 20, 21, 13, 11, 0, 10, 5, 9, 16, 13, 15, 16, 15, 13, 10, 8, 9, 5, 6, 2, 14, 8, 4, 22, 3, 5, 16, 9, 11, 16, 2, 6, 7, 1, 10, 0, 12, 23, 3, 15, 8, 14, 11, 13, 16, 6, 14, 24, 19, 8, 10, 17, 18]
            rel material:binding = </root/_materials/Flowers>
            normal3f[] normals = [(0.39590472, 0.7563231, -0.5208021), (-0.014847638, 0.017044054, -0.9997445), (-0.40953496, 0.78387856, -0.466707), (-0.48272535, -0.7129601, -0.5085902), (0.3343824, -0.78658956, -0.51910037), (0.30962893, -0.78973746, -0.5295702), (-0.46662515, -0.72588706, -0.5053206), (0.8255163, -0.010408473, -0.56428236), (0.39590472, 0.7563231, -0.5208021), (0.389028, 0.7407008, -0.5477404), (0.76495063, -0.013042462, -0.64395684), (-0.46662515, -0.72588706, -0.5053206), (0.30962893, -0.78973746, -0.5295702), (-0.0915668, -0.76160675, -0.6415378), (-0.0915668, -0.76160675, -0.6415378), (-0.8691809, 0.032330763, -0.493436), (-0.48272535, -0.7129601, -0.5085902), (-0.46662515, -0.72588706, -0.5053206), (-0.8560164, 0.062700704, -0.5131322), (0.8255163, -0.010408473, -0.56428236), (0.3343824, -0.78658956, -0.51910037), (-0.014847638, 0.017044054, -0.9997445), (-0.8691809, 0.032330763, -0.493436), (-0.40953496, 0.78387856, -0.466707), (-0.014847638, 0.017044054, -0.9997445), (-0.40953496, 0.78387856, -0.466707), (-0.8691809, 0.032330763, -0.493436), (-0.8560164, 0.062700704, -0.5131322), (-0.3987002, 0.79011023, -0.46557912), (0.3343824, -0.78658956, -0.51910037), (0.8255163, -0.010408473, -0.56428236), (0.76495063, -0.013042462, -0.64395684), (0.30962893, -0.78973746, -0.5295702), (0.389028, 0.7407008, -0.5477404), (-0.3987002, 0.79011023, -0.46557912), (0.026947953, 0.7067633, -0.7069365), (0.026947953, 0.7067633, -0.7069365), (0.39590472, 0.7563231, -0.5208021), (0.8255163, -0.010408473, -0.56428236), (-0.014847638, 0.017044054, -0.9997445), (0.3343824, -0.78658956, -0.51910037), (-0.48272535, -0.7129601, -0.5085902), (-0.014847638, 0.017044054, -0.9997445), (0.30962893, -0.78973746, -0.5295702), (0.76495063, -0.013042462, -0.64395684), (0.5064299, -0.37782204, -0.7750995), (0.5064299, -0.37782204, -0.7750995), (-0.8560164, 0.062700704, -0.5131322), (-0.46662515, -0.72588706, -0.5053206), (-0.5602281, -0.29553166, -0.7738252), (-0.5602281, -0.29553166, -0.7738252), (0.39590472, 0.7563231, -0.5208021), (-0.40953496, 0.78387856, -0.466707), (-0.3987002, 0.79011023, -0.46557912), (0.389028, 0.7407008, -0.5477404), (-0.48272535, -0.7129601, -0.5085902), (-0.8691809, 0.032330763, -0.493436), (-0.014847638, 0.017044054, -0.9997445), (0.76495063, -0.013042462, -0.64395684), (0.389028, 0.7407008, -0.5477404), (0.54116136, 0.38096923, -0.7496711), (0.54116136, 0.38096923, -0.7496711), (-0.3987002, 0.79011023, -0.46557912), (-0.8560164, 0.062700704, -0.5131322), (-0.64070195, 0.44619343, -0.6248299), (-0.64070195, 0.44619343, -0.6248299)] (
                interpolation = "faceVarying"
            )
            point3f[] points = [(-0.0557116, -0.06851485, 0.19624308), (0.09955125, -0.114059485, 0.24579193), (0.049099386, -0.08176107, 0.19691499), (0.043990314, 0.047364127, 0.041692942), (-0.032037683, 0.12229617, 0.25021857), (0.07266584, 0.0065002376, 0.041012768), (0.121471316, 0.008631197, 0.20030838), (0.18569846, -0.007331894, 0.24988477), (-0.032429878, 0.07229423, 0.20009553), (0.029701568, -0.0538575, 0.039394792), (-0.08813703, -0.010435017, 0.1974829), (-0.041621827, -0.044705853, 0.03890429), (-0.10529318, -0.09995327, 0.2440914), (-0.06554179, -0.005705691, 0.039527938), (0.08083834, 0.06919832, 0.20143649), (-0.02882635, 0.05018368, 0.04115745), (8.356233e-8, -1.7954294e-7, -1.374305e-7), (-0.12526079, 0.003923652, 0.24646088), (-0.066919, 0.09232681, 0.2491085), (0.17774956, 0.028584253, 0.250754), (0.04945428, -0.12215581, 0.24491301), (-0.06327345, -0.1080371, 0.24414779), (0.10380619, 0.119073085, 0.25205618), (-0.14339481, -0.03145104, 0.24556828), (0.13326636, 0.09331526, 0.25185773)]
            texCoord2f[] primvars:st = [(0.7699307, 0.12556489), (0.9638659, 0.035102874), (0.8655216, 0.118988104), (0.85476464, 0.27489075), (0.7313367, 0.40739733), (0.89345056, 0.20570579), (0.9264802, 0.20872948), (1.015703, 0.17193556), (0.7671312, 0.2920172), (0.8561444, 0.13592327), (0.72542304, 0.20555136), (0.7814556, 0.14111827), (0.67706865, 0.03239255), (0.744762, 0.20640714), (0.8697691, 0.3028009), (0.7761562, 0.27489173), (0.81306785, 0.2054975), (0.60457253, 0.22695328), (0.67886615, 0.37726325), (1.0309845, 0.24299556), (0.90079975, 0.0021473262), (0.72823244, 0.0145481145), (0.89977086, 0.40742654), (0.6025134, 0.18237299), (0.964198, 0.37346703)] (
                interpolation = "faceVarying"
            )
            int[] primvars:st:indices = [3, 16, 15, 11, 9, 2, 0, 5, 3, 14, 6, 0, 2, 20, 21, 13, 11, 0, 10, 5, 9, 16, 13, 15, 16, 15, 13, 10, 8, 9, 5, 6, 2, 14, 8, 4, 22, 3, 5, 16, 9, 11, 16, 2, 6, 7, 1, 10, 0, 12, 23, 3, 15, 8, 14, 11, 13, 16, 6, 14, 24, 19, 8, 10, 17, 18]
            uniform token subdivisionScheme = "none"
            custom string userProperties:blender:data_name = "Plane.027"
        }
    }

    def Scope "_materials"
    {
        def Material "Flowers"
        {
            token outputs:surface.connect = </root/_materials/Flowers/Principled_BSDF.outputs:surface>
            custom string userProperties:blender:data_name = "Flowers"

            def Shader "Principled_BSDF"
            {
                uniform token info:id = "UsdPreviewSurface"
                float inputs:clearcoat = 0
                float inputs:clearcoatRoughness = 0.03
                color3f inputs:diffuseColor.connect = </root/_materials/Flowers/Image_Texture.outputs:rgb>
                float inputs:ior = 1.5
                float inputs:metallic = 0
                float inputs:opacity = 1
                float inputs:opacity.connect = </root/_materials/Flowers/Image_Texture_001.outputs:r>
                float inputs:roughness = 1
                float inputs:specular = 0.5
                token outputs:surface
            }

            def Shader "Image_Texture"
            {
                uniform token info:id = "UsdUVTexture"
                token inputs:sourceColorSpace = "raw"
                float2 inputs:st.connect = </root/_materials/Flowers/uvmap.outputs:result>
                token inputs:wrapS = "repeat"
                token inputs:wrapT = "repeat"
                float3 outputs:rgb
            }

            def Shader "uvmap"
            {
                uniform token info:id = "UsdPrimvarReader_float2"
                string inputs:varname = "st"
                float2 outputs:result
            }

            def Shader "Image_Texture_001"
            {
                uniform token info:id = "UsdUVTexture"
                token inputs:sourceColorSpace = "raw"
                float2 inputs:st.connect = </root/_materials/Flowers/uvmap.outputs:result>
                token inputs:wrapS = "repeat"
                token inputs:wrapT = "repeat"
                float outputs:r
            }
        }
    }
}

