#usda 1.0
(
    defaultPrim = "root"
    doc = "Blender v5.1.2"
    metersPerUnit = 1
    upAxis = "Y"
)

def Xform "root" (
    customData = {
        dictionary Blender = {
            bool generated = 1
        }
    }
)
{
    float3 xformOp:rotateXYZ = (-90, -0, 0)
    uniform token[] xformOpOrder = ["xformOp:rotateXYZ"]

    def Xform "Petal_2"
    {
        custom string userProperties:blender:object_name = "Petal_2"

        def Mesh "Plane_024" (
            active = true
            prepend apiSchemas = ["MaterialBindingAPI"]
        )
        {
            uniform bool doubleSided = 1
            float3[] extent = [(-0.32067162, -0.30195338, 0), (0.3525437, 0.32914138, 0.23606068)]
            int[] faceVertexCounts = [3, 3, 3, 3, 3, 3, 3, 3, 3, 3, 3, 3, 3, 3, 3]
            int[] faceVertexIndices = [11, 14, 0, 7, 9, 0, 2, 3, 0, 13, 2, 0, 12, 11, 0, 3, 1, 0, 14, 15, 0, 9, 8, 0, 4, 7, 0, 15, 13, 0, 8, 10, 0, 5, 6, 0, 10, 12, 0, 6, 4, 0, 1, 5, 0]
            rel material:binding = </root/_materials/Flowers>
            normal3f[] normals = [(-0.47592312, 0.20262054, 0.8558283), (-0.33197796, -0.3034116, 0.8931585), (0.08110092, -0.0611912, 0.9948257), (0.0728557, 0.5083583, 0.8580582), (0.0038790156, 0.6063963, 0.79515314), (0.08110092, -0.0611912, 0.9948257), (0.27972206, -0.51079375, 0.81292397), (0.50446403, -0.5345486, 0.6780663), (0.08110092, -0.0611912, 0.9948257), (-0.21841799, -0.5472334, 0.80797845), (0.27972206, -0.51079375, 0.81292397), (0.08110092, -0.0611912, 0.9948257), (-0.5966727, 0.15097725, 0.7881545), (-0.47592312, 0.20262054, 0.8558283), (0.08110092, -0.0611912, 0.9948257), (0.50446403, -0.5345486, 0.6780663), (0.4701563, -0.39687017, 0.7883191), (0.08110092, -0.0611912, 0.9948257), (-0.33197796, -0.3034116, 0.8931585), (-0.30171958, -0.6089309, 0.7335997), (0.08110092, -0.0611912, 0.9948257), (0.0038790156, 0.6063963, 0.79515314), (-0.17501055, 0.34634078, 0.9216395), (0.08110092, -0.0611912, 0.9948257), (0.47038, 0.26015988, 0.8432434), (0.0728557, 0.5083583, 0.8580582), (0.08110092, -0.0611912, 0.9948257), (-0.30171958, -0.6089309, 0.7335997), (-0.21841799, -0.5472334, 0.80797845), (0.08110092, -0.0611912, 0.9948257), (-0.17501055, 0.34634078, 0.9216395), (-0.5295465, -0.0013338486, 0.8482799), (0.08110092, -0.0611912, 0.9948257), (0.58827627, 0.045457, 0.80738145), (0.6811842, 0.21168962, 0.7008392), (0.08110092, -0.0611912, 0.9948257), (-0.5295465, -0.0013338486, 0.8482799), (-0.5966727, 0.15097725, 0.7881545), (0.08110092, -0.0611912, 0.9948257), (0.6811842, 0.21168962, 0.7008392), (0.47038, 0.26015988, 0.8432434), (0.08110092, -0.0611912, 0.9948257), (0.4701563, -0.39687017, 0.7883191), (0.58827627, 0.045457, 0.80738145), (0.08110092, -0.0611912, 0.9948257)] (
                interpolation = "faceVarying"
            )
            point3f[] points = [(0, 0, 0), (-0.2975612, 0.11638784, 0.23606068), (-0.06628419, 0.32914138, 0.22962111), (-0.13105546, 0.15982191, 0.22349638), (-0.19990677, -0.28082383, 0.19815303), (-0.32067162, 0.029696152, 0.2319766), (-0.18936208, -0.08922405, 0.21100166), (-0.119028375, -0.30195338, 0.18899931), (0.23901376, -0.2938663, 0.15581779), (0.02075176, -0.23684543, 0.18052083), (0.25461328, -0.23534952, 0.15857461), (0.33075386, 0.0502687, 0.17202973), (0.21500139, -0.062724605, 0.1747823), (0.052885313, 0.29800832, 0.21613346), (0.3525437, 0.13200657, 0.17588037), (0.13671575, 0.17216404, 0.19913559)]
            texCoord2f[] primvars:st = [(0.23874888, 0.7806582), (0.20087913, 0.5375318), (0.01412476, 0.66237503), (0.14275989, 0.64628637), (0.46081537, 0.6740189), (0.2650556, 0.5363114), (0.32577005, 0.64842355), (0.46195805, 0.7341085), (0.3963254, 0.9826405), (0.39324176, 0.8204799), (0.3530062, 0.98346436), (0.14156748, 0.9874852), (0.23956616, 0.9261221), (0.015808472, 0.7509133), (0.08105805, 0.9886359), (0.089296676, 0.831075)] (
                interpolation = "faceVarying"
            )
            int[] primvars:st:indices = [11, 14, 0, 7, 9, 0, 2, 3, 0, 13, 2, 0, 12, 11, 0, 3, 1, 0, 14, 15, 0, 9, 8, 0, 4, 7, 0, 15, 13, 0, 8, 10, 0, 5, 6, 0, 10, 12, 0, 6, 4, 0, 1, 5, 0]
            uniform token subdivisionScheme = "none"
            custom string userProperties:blender:data_name = "Plane.024"
        }
    }

    def Scope "_materials"
    {
        def Material "Flowers"
        {
            token outputs:surface.connect = </root/_materials/Flowers/Principled_BSDF.outputs:surface>
            custom string userProperties:blender:data_name = "Flowers"

            def Shader "Principled_BSDF"
            {
                uniform token info:id = "UsdPreviewSurface"
                float inputs:clearcoat = 0
                float inputs:clearcoatRoughness = 0.03
                color3f inputs:diffuseColor.connect = </root/_materials/Flowers/Image_Texture.outputs:rgb>
                float inputs:ior = 1.5
                float inputs:metallic = 0
                float inputs:opacity = 1
                float inputs:opacity.connect = </root/_materials/Flowers/Image_Texture_001.outputs:r>
                float inputs:roughness = 1
                float inputs:specular = 0.5
                token outputs:surface
            }

            def Shader "Image_Texture"
            {
                uniform token info:id = "UsdUVTexture"
                asset inputs:file = @./textures/T_Flowers_D.png@
                token inputs:sourceColorSpace = "raw"
                float2 inputs:st.connect = </root/_materials/Flowers/uvmap.outputs:result>
                token inputs:wrapS = "repeat"
                token inputs:wrapT = "repeat"
                float3 outputs:rgb
            }

            def Shader "uvmap"
            {
                uniform token info:id = "UsdPrimvarReader_float2"
                string inputs:varname = "st"
                float2 outputs:result
            }

            def Shader "Image_Texture_001"
            {
                uniform token info:id = "UsdUVTexture"
                asset inputs:file = @./textures/T_Flowers_D.png@
                token inputs:sourceColorSpace = "raw"
                float2 inputs:st.connect = </root/_materials/Flowers/uvmap.outputs:result>
                token inputs:wrapS = "repeat"
                token inputs:wrapT = "repeat"
                float outputs:r
            }
        }
    }
}

