#usda 1.0
(
    defaultPrim = "root"
    doc = "Blender v5.1.2"
    metersPerUnit = 1
    upAxis = "Y"
)

def Xform "root" (
    customData = {
        dictionary Blender = {
            bool generated = 1
        }
    }
)
{
    float3 xformOp:rotateXYZ = (-90, -0, 0)
    uniform token[] xformOpOrder = ["xformOp:rotateXYZ"]

    def Xform "Petal_2"
    {
        custom string userProperties:blender:object_name = "Petal_2"

        def Mesh "Plane_024" (
            active = true
            prepend apiSchemas = ["MaterialBindingAPI"]
        )
        {
            uniform bool doubleSided = 1
            float3[] extent = [(-0.32067162, -0.30195338, 0), (0.3525437, 0.32914135, 0.2360607)]
            int[] faceVertexCounts = [3, 3, 3, 3, 3, 3, 3, 3, 3, 3, 3, 3, 3, 3, 3]
            int[] faceVertexIndices = [11, 14, 0, 7, 9, 0, 2, 3, 0, 13, 2, 0, 12, 11, 0, 3, 1, 0, 14, 15, 0, 9, 8, 0, 4, 7, 0, 15, 13, 0, 8, 10, 0, 5, 6, 0, 10, 12, 0, 6, 4, 0, 1, 5, 0]
            rel material:binding = </root/_materials/Flowers>
            normal3f[] normals = [(-0.47592312, 0.20262046, 0.8558283), (-0.33197793, -0.3034118, 0.8931584), (0.081100725, -0.061191384, 0.9948257), (0.07285571, 0.5083583, 0.8580582), (0.0038788565, 0.6063964, 0.79515314), (0.081100725, -0.061191384, 0.9948257), (0.27972212, -0.5107938, 0.81292385), (0.5044641, -0.5345487, 0.67806613), (0.081100725, -0.061191384, 0.9948257), (-0.21841794, -0.54723346, 0.8079784), (0.27972212, -0.5107938, 0.81292385), (0.081100725, -0.061191384, 0.9948257), (-0.5966728, 0.15097716, 0.7881545), (-0.47592312, 0.20262046, 0.8558283), (0.081100725, -0.061191384, 0.9948257), (0.5044641, -0.5345487, 0.67806613), (0.47015625, -0.39687032, 0.78831905), (0.081100725, -0.061191384, 0.9948257), (-0.33197793, -0.3034118, 0.8931584), (-0.30171952, -0.60893095, 0.7335996), (0.081100725, -0.061191384, 0.9948257), (0.0038788565, 0.6063964, 0.79515314), (-0.17501056, 0.34634075, 0.9216395), (0.081100725, -0.061191384, 0.9948257), (0.47037995, 0.26015985, 0.84324354), (0.07285571, 0.5083583, 0.8580582), (0.081100725, -0.061191384, 0.9948257), (-0.30171952, -0.60893095, 0.7335996), (-0.21841794, -0.54723346, 0.8079784), (0.081100725, -0.061191384, 0.9948257), (-0.17501056, 0.34634075, 0.9216395), (-0.5295465, -0.001334007, 0.84827983), (0.081100725, -0.061191384, 0.9948257), (0.58827627, 0.045456868, 0.80738145), (0.6811841, 0.21168958, 0.70083934), (0.081100725, -0.061191384, 0.9948257), (-0.5295465, -0.001334007, 0.84827983), (-0.5966728, 0.15097716, 0.7881545), (0.081100725, -0.061191384, 0.9948257), (0.6811841, 0.21168958, 0.70083934), (0.47037995, 0.26015985, 0.84324354), (0.081100725, -0.061191384, 0.9948257), (0.47015625, -0.39687032, 0.78831905), (0.58827627, 0.045456868, 0.80738145), (0.081100725, -0.061191384, 0.9948257)] (
                interpolation = "faceVarying"
            )
            point3f[] points = [(0, 0, 0), (-0.2975612, 0.11638783, 0.2360607), (-0.06628419, 0.32914135, 0.22962114), (-0.13105546, 0.1598219, 0.22349639), (-0.19990677, -0.28082386, 0.19815302), (-0.32067162, 0.029696135, 0.23197661), (-0.18936208, -0.08922406, 0.21100166), (-0.119028375, -0.30195338, 0.1889993), (0.23901378, -0.2938663, 0.15581778), (0.02075176, -0.23684545, 0.18052082), (0.25461328, -0.23534954, 0.1585746), (0.33075386, 0.050268687, 0.17202975), (0.21500139, -0.06272462, 0.17478232), (0.052885313, 0.2980083, 0.21613349), (0.3525437, 0.13200656, 0.1758804), (0.13671575, 0.17216402, 0.1991356)]
            texCoord2f[] primvars:st = [(0.23874888, 0.7806582), (0.20087913, 0.5375318), (0.01412476, 0.66237503), (0.14275989, 0.64628637), (0.46081537, 0.6740189), (0.2650556, 0.5363114), (0.32577005, 0.64842355), (0.46195805, 0.7341085), (0.3963254, 0.9826405), (0.39324176, 0.8204799), (0.3530062, 0.98346436), (0.14156748, 0.9874852), (0.23956616, 0.9261221), (0.015808472, 0.7509133), (0.08105805, 0.9886359), (0.089296676, 0.831075)] (
                interpolation = "faceVarying"
            )
            int[] primvars:st:indices = [11, 14, 0, 7, 9, 0, 2, 3, 0, 13, 2, 0, 12, 11, 0, 3, 1, 0, 14, 15, 0, 9, 8, 0, 4, 7, 0, 15, 13, 0, 8, 10, 0, 5, 6, 0, 10, 12, 0, 6, 4, 0, 1, 5, 0]
            uniform token subdivisionScheme = "none"
            custom string userProperties:blender:data_name = "Plane.024"
        }
    }

    def Scope "_materials"
    {
        def Material "Flowers"
        {
            token outputs:surface.connect = </root/_materials/Flowers/Principled_BSDF.outputs:surface>
            custom string userProperties:blender:data_name = "Flowers"

            def Shader "Principled_BSDF"
            {
                uniform token info:id = "UsdPreviewSurface"
                float inputs:clearcoat = 0
                float inputs:clearcoatRoughness = 0.03
                color3f inputs:diffuseColor.connect = </root/_materials/Flowers/Image_Texture.outputs:rgb>
                float inputs:ior = 1.5
                float inputs:metallic = 0
                float inputs:opacity = 1
                float inputs:opacity.connect = </root/_materials/Flowers/Image_Texture_001.outputs:r>
                float inputs:roughness = 1
                float inputs:specular = 0.5
                token outputs:surface
            }

            def Shader "Image_Texture"
            {
                uniform token info:id = "UsdUVTexture"
                asset inputs:file = @./textures/T_Flowers_D.png@
                token inputs:sourceColorSpace = "raw"
                float2 inputs:st.connect = </root/_materials/Flowers/uvmap.outputs:result>
                token inputs:wrapS = "repeat"
                token inputs:wrapT = "repeat"
                float3 outputs:rgb
            }

            def Shader "uvmap"
            {
                uniform token info:id = "UsdPrimvarReader_float2"
                string inputs:varname = "st"
                float2 outputs:result
            }

            def Shader "Image_Texture_001"
            {
                uniform token info:id = "UsdUVTexture"
                asset inputs:file = @./textures/T_Flowers_D.png@
                token inputs:sourceColorSpace = "raw"
                float2 inputs:st.connect = </root/_materials/Flowers/uvmap.outputs:result>
                token inputs:wrapS = "repeat"
                token inputs:wrapT = "repeat"
                float outputs:r
            }
        }
    }
}

