#usda 1.0
(
    defaultPrim = "root"
    doc = "Blender v5.1.2"
    metersPerUnit = 1
    upAxis = "Y"
)

def Xform "root" (
    customData = {
        dictionary Blender = {
            bool generated = 1
        }
    }
)
{
    float3 xformOp:rotateXYZ = (-90, -0, 0)
    uniform token[] xformOpOrder = ["xformOp:rotateXYZ"]

    def Xform "RockPath_Square_Small_2"
    {
        custom string userProperties:blender:object_name = "RockPath_Square_Small_2"

        def Mesh "Cube_017_Retopology_011" (
            active = true
            prepend apiSchemas = ["MaterialBindingAPI"]
        )
        {
            uniform bool doubleSided = 1
            float3[] extent = [(-0.49753928, -0.47212064, -0.013205453), (0.49518257, 0.4939475, 0.13612974)]
            int[] faceVertexCounts = [4, 4, 4, 3, 4, 3, 4, 4, 4, 4, 4, 4, 4, 3, 4, 4, 3, 3, 4, 4, 4, 4, 4, 3, 4, 4, 4, 4, 4, 4, 4, 3, 3, 4, 3, 4, 4, 4, 4, 4, 4, 4, 4, 4, 4, 4, 4, 3, 4, 4, 3, 4, 4, 4, 4, 4, 4, 3, 4, 3, 4, 4, 4, 4, 4, 4, 4, 4, 4, 4, 4, 4, 3, 4, 4, 4, 4, 3, 3, 3, 4, 4, 4, 4, 4, 4, 4, 4, 4, 4, 4, 4, 4, 4, 4, 4, 4, 4, 4, 4, 4, 4, 4, 4, 4, 4, 4, 4, 4, 3, 3, 4, 4, 4, 3, 4, 3, 4, 4, 4, 3, 4, 4, 4, 4, 3, 4, 3, 4, 4, 4, 3, 3, 4, 4, 3, 4, 4, 4, 4, 4, 4, 4, 4, 4, 4, 4, 3, 4, 4, 3, 4, 4, 4, 4, 4, 4, 3, 4, 3, 4, 4, 4, 4, 4, 4, 4, 4, 4, 4, 4, 4, 3, 4, 4, 4, 4, 3, 3, 3, 4, 4, 4, 4, 4, 4, 4, 4, 4, 4, 3, 4, 4, 3, 4, 4, 4, 4, 4, 4, 3, 4, 3, 4, 4, 4, 4, 4, 4, 4, 4, 4, 4, 4, 4, 3, 4, 4, 4, 4, 3, 3, 3, 4, 4, 4, 4, 4, 4, 4, 4, 4, 4, 3, 4, 4, 3, 4, 4, 4, 4, 4, 4, 3, 4, 3, 4, 4, 4, 4, 4, 4, 4, 4, 4, 4, 4, 4, 3, 4, 4, 4, 4, 3, 3, 3, 4, 4, 4, 4, 4, 4, 4, 4, 4, 4, 3, 4, 4, 3, 4, 4, 4, 4, 4, 4, 3, 4, 3, 4, 4, 4, 4, 4, 4, 4, 4, 4, 4, 4, 4, 3, 4, 4, 4, 4, 3, 3, 3]
            int[] faceVertexIndices = [1, 0, 3, 6, 0, 1, 34, 2, 3, 0, 2, 5, 3, 4, 7, 4, 3, 5, 17, 6, 3, 7, 6, 7, 8, 27, 7, 9, 10, 8, 12, 9, 7, 4, 11, 14, 10, 9, 11, 12, 13, 14, 12, 4, 17, 13, 23, 14, 13, 15, 13, 16, 15, 17, 18, 16, 13, 5, 19, 18, 17, 18, 20, 16, 18, 19, 20, 20, 21, 24, 23, 21, 20, 22, 26, 19, 28, 22, 20, 16, 20, 23, 15, 14, 23, 24, 10, 10, 24, 25, 24, 21, 26, 25, 26, 8, 10, 25, 22, 27, 8, 26, 27, 22, 28, 29, 31, 29, 28, 30, 32, 30, 28, 19, 30, 32, 33, 31, 33, 32, 19, 33, 2, 34, 19, 5, 2, 33, 34, 31, 33, 34, 1, 29, 31, 1, 6, 27, 29, 38, 41, 36, 35, 35, 36, 73, 37, 40, 38, 35, 37, 38, 39, 43, 41, 54, 39, 38, 40, 41, 42, 71, 36, 45, 42, 41, 44, 47, 44, 41, 43, 45, 44, 46, 64, 44, 47, 48, 46, 48, 47, 49, 47, 50, 52, 49, 47, 43, 53, 50, 51, 50, 40, 50, 51, 56, 52, 54, 40, 50, 53, 43, 39, 54, 53, 55, 63, 49, 52, 56, 60, 55, 52, 73, 58, 56, 51, 59, 56, 57, 58, 69, 57, 56, 56, 59, 60, 60, 61, 63, 55, 59, 62, 61, 60, 49, 63, 61, 46, 62, 64, 46, 61, 65, 66, 64, 62, 57, 65, 62, 59, 68, 66, 65, 67, 69, 67, 65, 57, 69, 70, 68, 67, 71, 70, 69, 58, 42, 72, 70, 71, 72, 66, 68, 70, 72, 42, 45, 72, 45, 64, 66, 73, 36, 71, 58, 75, 37, 73, 74, 40, 74, 73, 51, 40, 75, 74, 37, 75, 40, 46, 48, 49, 76, 77, 82, 81, 76, 78, 129, 77, 78, 76, 79, 128, 80, 124, 79, 76, 76, 81, 83, 80, 81, 82, 87, 84, 81, 84, 85, 83, 85, 84, 86, 108, 84, 87, 88, 86, 87, 89, 92, 88, 87, 82, 91, 89, 90, 93, 92, 89, 127, 90, 89, 91, 92, 93, 94, 88, 90, 96, 94, 93, 94, 95, 86, 88, 96, 98, 95, 94, 96, 97, 99, 98, 90, 127, 97, 96, 98, 99, 102, 100, 95, 98, 100, 104, 114, 103, 100, 101, 101, 100, 102, 125, 104, 100, 103, 105, 95, 104, 105, 107, 105, 106, 110, 107, 103, 114, 106, 105, 95, 107, 108, 86, 108, 107, 109, 111, 107, 110, 109, 109, 110, 106, 111, 109, 106, 112, 112, 85, 108, 111, 112, 106, 114, 113, 112, 113, 85, 114, 101, 115, 113, 115, 85, 113, 115, 101, 117, 116, 85, 115, 116, 119, 116, 117, 126, 118, 116, 118, 119, 118, 126, 120, 119, 119, 120, 122, 121, 119, 121, 83, 85, 122, 124, 80, 121, 80, 83, 121, 102, 122, 123, 125, 120, 123, 122, 122, 102, 99, 124, 97, 79, 124, 99, 126, 125, 123, 120, 125, 117, 101, 117, 125, 126, 79, 97, 127, 128, 128, 127, 91, 78, 129, 78, 91, 82, 77, 129, 91, 133, 136, 131, 130, 130, 131, 168, 132, 135, 133, 130, 132, 133, 134, 138, 136, 149, 134, 133, 135, 136, 137, 166, 131, 140, 137, 136, 139, 142, 139, 136, 138, 140, 139, 141, 159, 139, 142, 143, 141, 143, 142, 144, 142, 145, 147, 144, 142, 138, 148, 145, 146, 145, 135, 145, 146, 151, 147, 149, 135, 145, 148, 138, 134, 149, 148, 150, 158, 144, 147, 151, 155, 150, 147, 168, 153, 151, 146, 154, 151, 152, 153, 164, 152, 151, 151, 154, 155, 155, 156, 158, 150, 154, 157, 156, 155, 144, 158, 156, 141, 157, 159, 141, 156, 160, 161, 159, 157, 152, 160, 157, 154, 163, 161, 160, 162, 164, 162, 160, 152, 164, 165, 163, 162, 166, 165, 164, 153, 137, 167, 165, 166, 167, 161, 163, 165, 167, 137, 140, 167, 140, 159, 161, 168, 131, 166, 153, 170, 132, 168, 169, 135, 169, 168, 146, 135, 170, 169, 132, 170, 135, 141, 143, 144, 174, 177, 172, 171, 171, 172, 209, 173, 176, 174, 171, 173, 174, 175, 179, 177, 190, 175, 174, 176, 177, 178, 207, 172, 181, 178, 177, 180, 183, 180, 177, 179, 181, 180, 182, 200, 180, 183, 184, 182, 184, 183, 185, 183, 186, 188, 185, 183, 179, 189, 186, 187, 186, 176, 186, 187, 192, 188, 190, 176, 186, 189, 179, 175, 190, 189, 191, 199, 185, 188, 192, 196, 191, 188, 209, 194, 192, 187, 195, 192, 193, 194, 205, 193, 192, 192, 195, 196, 196, 197, 199, 191, 195, 198, 197, 196, 185, 199, 197, 182, 198, 200, 182, 197, 201, 202, 200, 198, 193, 201, 198, 195, 204, 202, 201, 203, 205, 203, 201, 193, 205, 206, 204, 203, 207, 206, 205, 194, 178, 208, 206, 207, 208, 202, 204, 206, 208, 178, 181, 208, 181, 200, 202, 209, 172, 207, 194, 211, 173, 209, 210, 176, 210, 209, 187, 176, 211, 210, 173, 211, 176, 182, 184, 185, 215, 218, 213, 212, 212, 213, 250, 214, 217, 215, 212, 214, 215, 216, 220, 218, 231, 216, 215, 217, 218, 219, 248, 213, 222, 219, 218, 221, 224, 221, 218, 220, 222, 221, 223, 241, 221, 224, 225, 223, 225, 224, 226, 224, 227, 229, 226, 224, 220, 230, 227, 228, 227, 217, 227, 228, 233, 229, 231, 217, 227, 230, 220, 216, 231, 230, 232, 240, 226, 229, 233, 237, 232, 229, 250, 235, 233, 228, 236, 233, 234, 235, 246, 234, 233, 233, 236, 237, 237, 238, 240, 232, 236, 239, 238, 237, 226, 240, 238, 223, 239, 241, 223, 238, 242, 243, 241, 239, 234, 242, 239, 236, 245, 243, 242, 244, 246, 244, 242, 234, 246, 247, 245, 244, 248, 247, 246, 235, 219, 249, 247, 248, 249, 243, 245, 247, 249, 219, 222, 249, 222, 241, 243, 250, 213, 248, 235, 252, 214, 250, 251, 217, 251, 250, 228, 217, 252, 251, 214, 252, 217, 223, 225, 226, 256, 259, 254, 253, 253, 254, 291, 255, 258, 256, 253, 255, 256, 257, 261, 259, 272, 257, 256, 258, 259, 260, 289, 254, 263, 260, 259, 262, 265, 262, 259, 261, 263, 262, 264, 282, 262, 265, 266, 264, 266, 265, 267, 265, 268, 270, 267, 265, 261, 271, 268, 269, 268, 258, 268, 269, 274, 270, 272, 258, 268, 271, 261, 257, 272, 271, 273, 281, 267, 270, 274, 278, 273, 270, 291, 276, 274, 269, 277, 274, 275, 276, 287, 275, 274, 274, 277, 278, 278, 279, 281, 273, 277, 280, 279, 278, 267, 281, 279, 264, 280, 282, 264, 279, 283, 284, 282, 280, 275, 283, 280, 277, 286, 284, 283, 285, 287, 285, 283, 275, 287, 288, 286, 285, 289, 288, 287, 276, 260, 290, 288, 289, 290, 284, 286, 288, 290, 260, 263, 290, 263, 282, 284, 291, 254, 289, 276, 293, 255, 291, 292, 258, 292, 291, 269, 258, 293, 292, 255, 293, 258, 264, 266, 267]
            rel material:binding = </root/_materials/PathRocks>
            normal3f[] normals = [(0.021886839, 0.02237544, -0.99951), (0.021886839, 0.02237544, -0.99951), (0.021886839, 0.02237544, -0.99951), (0.021886839, 0.02237544, -0.99951), (0.009107121, -0.9596958, 0.28089318), (0.009107121, -0.9596958, 0.28089318), (0.009107121, -0.9596958, 0.28089318), (0.009107121, -0.9596958, 0.28089318), (-0.9800717, -0.0065063466, 0.1985376), (-0.9800717, -0.0065063466, 0.1985376), (-0.9800717, -0.0065063466, 0.1985376), (-0.9800717, -0.0065063466, 0.1985376), (-0.007897831, -0.023746422, -0.99968684), (-0.007876094, -0.023677083, -0.9996885), (-0.008015189, -0.024120798, -0.9996769), (-0.92753565, 0.23329954, 0.2919744), (-0.92753565, 0.23329954, 0.2919744), (-0.9277947, 0.23259944, 0.29170993), (-0.9298883, 0.22689456, 0.28952822), (-0.008019684, -0.024135139, -0.9996765), (-0.007897831, -0.023746422, -0.99968684), (-0.008015189, -0.024120798, -0.9996769), (0.96756333, -0.000017770528, 0.25262883), (0.96756333, -0.000017770528, 0.25262883), (0.96756333, -0.000017770528, 0.25262883), (0.96756333, -0.000017770528, 0.25262883), (0.973895, 0.005722187, 0.22692679), (0.973895, 0.005722187, 0.22692679), (0.973895, 0.005722187, 0.22692679), (0.973895, 0.005722187, 0.22692679), (0.005103505, -0.0029118275, -0.99998266), (0.005103505, -0.0029118275, -0.99998266), (0.005103505, -0.0029118275, -0.99998266), (0.005103505, -0.0029118275, -0.99998266), (-0.0064188065, 0.95109695, 0.30882606), (-0.0064188065, 0.95109695, 0.30882606), (-0.0064188065, 0.95109695, 0.30882606), (-0.0064188065, 0.95109695, 0.30882606), (-0.025525494, 0.966618, 0.2549472), (-0.025525494, 0.966618, 0.2549472), (-0.025525494, 0.966618, 0.2549472), (-0.025525494, 0.966618, 0.2549472), (-0.9421479, 0.1903856, 0.2758814), (-0.9421479, 0.1903856, 0.2758814), (-0.9421479, 0.1903856, 0.2758814), (-0.9421479, 0.1903856, 0.2758814), (-0.028101103, 0.9710724, 0.23712593), (-0.028101103, 0.9710724, 0.23712593), (-0.028101103, 0.9710724, 0.23712593), (-0.028101103, 0.9710724, 0.23712593), (-0.77403647, 0.38959894, 0.49907932), (-0.77403647, 0.38959894, 0.49907932), (-0.77403647, 0.38959894, 0.49907932), (-0.94728035, 0.18614478, 0.26078737), (-0.94728035, 0.18614478, 0.26078737), (-0.94728035, 0.18614478, 0.26078737), (-0.94728035, 0.18614478, 0.26078737), (-0.9277947, 0.23259944, 0.29170993), (-0.9301366, 0.2262125, 0.28926417), (-0.9301366, 0.2262125, 0.28926417), (-0.9298883, 0.22689456, 0.28952822), (-0.043115787, 0.025677377, 0.99873996), (-0.04340451, 0.016335567, 0.998924), (-0.043094464, 0.026333528, 0.9987239), (-0.043115787, 0.025677377, 0.99873996), (-0.04350479, 0.013044835, 0.99896806), (-0.04340451, 0.016335567, 0.998924), (0.3219336, 0.02670877, 0.94638544), (0.31561333, 0.025599388, 0.94854254), (0.31863588, 0.026129596, 0.947517), (0.3219336, 0.02670877, 0.94638544), (0.30211464, 0.3700963, 0.87849617), (0.30211464, 0.3700963, 0.87849617), (0.30211464, 0.3700963, 0.87849617), (0.30211464, 0.3700963, 0.87849617), (-0.03425239, -0.029064761, 0.99899054), (-0.03425239, -0.029064761, 0.99899054), (-0.03425239, -0.029064761, 0.99899054), (-0.03425239, -0.029064761, 0.99899054), (-0.06492451, 0.00089104223, 0.99788976), (-0.06492451, 0.00089104223, 0.99788976), (-0.06492451, 0.00089104223, 0.99788976), (-0.06492451, 0.00089104223, 0.99788976), (0.0064532435, 0.9750933, 0.22170095), (0.0064532435, 0.9750933, 0.22170095), (0.0064532435, 0.9750933, 0.22170095), (0.0064532435, 0.9750933, 0.22170095), (0.26092523, 0.8628012, 0.4330037), (0.26092523, 0.8628012, 0.4330037), (0.26092523, 0.8628012, 0.4330037), (0.31863588, 0.026129596, 0.947517), (0.31561333, 0.025599388, 0.94854254), (0.3153394, 0.025551016, 0.94863486), (0.3153394, 0.025551016, 0.94863486), (0.9638493, -0.0037650226, 0.2664216), (0.96624553, 0.00028694753, 0.2576226), (0.96677756, 0.0012083871, 0.25561664), (0.96677756, 0.0012083871, 0.25561664), (0.9635423, -0.0042730276, 0.26752207), (0.9635423, -0.0042730276, 0.26752207), (0.96624553, 0.00028694753, 0.2576226), (0.9638493, -0.0037650226, 0.2664216), (0.95199275, -0.015647328, 0.30572054), (0.95199275, -0.015647328, 0.30572054), (0.95199275, -0.015647328, 0.30572054), (0.95199275, -0.015647328, 0.30572054), (0.8526528, -0.14990754, 0.5005106), (0.8526528, -0.14990754, 0.5005106), (0.8526528, -0.14990754, 0.5005106), (0.8526528, -0.14990754, 0.5005106), (-0.010002235, -0.02797345, 0.99955857), (-0.010002235, -0.02797345, 0.99955857), (-0.010002235, -0.02797345, 0.99955857), (-0.010002235, -0.02797345, 0.99955857), (0.06468421, -0.47095802, 0.8797809), (0.06468421, -0.47095802, 0.8797809), (0.06468421, -0.47095802, 0.8797809), (0.06468421, -0.47095802, 0.8797809), (-0.9668737, 0.008105528, 0.25512663), (-0.9668737, 0.008105528, 0.25512663), (-0.9668737, 0.008105528, 0.25512663), (0.022063773, -0.71540326, 0.6983635), (0.022063773, -0.71540326, 0.6983635), (0.022063773, -0.71540326, 0.6983635), (-0.9877922, 0.0070333187, 0.15561797), (-0.9877922, 0.0070333187, 0.15561797), (-0.9877922, 0.0070333187, 0.15561797), (-0.9877922, 0.0070333187, 0.15561797), (0.06984488, -0.48832297, 0.86986345), (0.06984488, -0.48832297, 0.86986345), (0.06984488, -0.48832297, 0.86986345), (0.66885805, -0.57800835, 0.4674777), (0.66885805, -0.57800835, 0.4674777), (0.66885805, -0.57800835, 0.4674777), (0.66885805, -0.57800835, 0.4674777), (0.9766141, -0.021465281, 0.21392588), (0.9766141, -0.021465281, 0.21392588), (0.9766141, -0.021465281, 0.21392588), (0.9766141, -0.021465281, 0.21392588), (-0.009254941, -0.018313427, -0.99978954), (-0.009254941, -0.018313427, -0.99978954), (-0.009254941, -0.018313427, -0.99978954), (-0.009254941, -0.018313427, -0.99978954), (-0.01896096, -0.96466064, 0.2628123), (-0.01896096, -0.96466064, 0.2628123), (-0.01896096, -0.96466064, 0.2628123), (-0.01896096, -0.96466064, 0.2628123), (-0.98478085, -0.010416365, 0.17348866), (-0.98478085, -0.010416365, 0.17348866), (-0.98478085, -0.010416365, 0.17348866), (-0.98478085, -0.010416365, 0.17348866), (-0.07866896, 0.017893618, -0.99674016), (-0.07866896, 0.017893618, -0.99674016), (-0.07866896, 0.017893618, -0.99674016), (-0.07866896, 0.017893618, -0.99674016), (-0.9853694, 0.005570909, 0.17034143), (-0.9853694, 0.005570909, 0.17034143), (-0.9853694, 0.005570909, 0.17034143), (-0.9853694, 0.005570909, 0.17034143), (-0.013867523, -0.04223065, -0.99901164), (-0.013867523, -0.04223065, -0.99901164), (-0.013867523, -0.04223065, -0.99901164), (-0.013867523, -0.04223065, -0.99901164), (-0.000001756097, -5.306868e-7, -1), (-0.0000019917009, -1.9857575e-7, -1), (-0.000001700083, -6.0964516e-7, -1), (-0.000001700083, -6.0964516e-7, -1), (-0.044442385, 0.017504899, -0.9988586), (-0.044442385, 0.017504899, -0.9988586), (-0.044442385, 0.017504899, -0.9988586), (-0.044442385, 0.017504899, -0.9988586), (0.038545605, -0.00087967986, -0.9992565), (0.038545605, -0.00087967986, -0.9992565), (0.038545605, -0.00087967986, -0.9992565), (0.038545605, -0.00087967986, -0.9992565), (0.0055443174, 0.06236061, -0.99803823), (0.0055443174, 0.06236061, -0.99803823), (0.0055443174, 0.06236061, -0.99803823), (0.0055443174, 0.06236061, -0.99803823), (-0.022993077, 0.950852, 0.3087908), (-0.022993077, 0.950852, 0.3087908), (-0.022993077, 0.950852, 0.3087908), (-0.02470257, 0.9566662, 0.29013735), (-0.024393644, 0.95660657, 0.2903596), (-0.016257148, 0.9549545, 0.29630682), (-0.016257148, 0.9549545, 0.29630682), (-0.02470257, 0.9566662, 0.29013735), (-0.024827516, 0.9566917, 0.29004264), (-0.024827516, 0.9566917, 0.29004264), (-0.024393644, 0.95660657, 0.2903596), (-0.28623065, 0.0030096546, 0.95815605), (-0.29316005, 0.0104376115, 0.9560064), (-0.29460213, 0.011987691, 0.9555448), (-0.29316005, 0.0104376115, 0.9560064), (-0.28623065, 0.0030096546, 0.95815605), (-0.2852265, 0.0019359188, 0.9584582), (-0.2852265, 0.0019359188, 0.9584582), (-0.30042657, 0.018747652, 0.95362073), (-0.30042657, 0.018747652, 0.95362073), (-0.30042657, 0.018747652, 0.95362073), (-0.30042657, 0.018747652, 0.95362073), (-0.81103176, 0.51394486, 0.2794426), (-0.81103176, 0.51394486, 0.2794426), (-0.81103176, 0.51394486, 0.2794426), (-0.81103176, 0.51394486, 0.2794426), (0.22314131, 0.8262105, 0.51728547), (0.22314131, 0.8262105, 0.51728547), (0.22314131, 0.8262105, 0.51728547), (0.22314131, 0.8262105, 0.51728547), (-0.009511539, 0.057916485, 0.9982762), (-0.009511539, 0.057916485, 0.9982762), (-0.009511539, 0.057916485, 0.9982762), (-0.009511539, 0.057916485, 0.9982762), (-0.5496928, 0.11825871, 0.82695395), (-0.5496928, 0.11825871, 0.82695395), (-0.5496928, 0.11825871, 0.82695395), (-0.5496928, 0.11825871, 0.82695395), (0.11417495, -0.015192659, 0.99334455), (0.11417495, -0.015192659, 0.99334455), (0.11417495, -0.015192659, 0.99334455), (0.04547374, -0.028287925, 0.9985649), (0.04547374, -0.028287925, 0.9985649), (0.04547374, -0.028287925, 0.9985649), (0.04547374, -0.028287925, 0.9985649), (0.134357, 0.0021240218, 0.9909307), (0.134357, 0.0021240218, 0.9909307), (0.134357, 0.0021240218, 0.9909307), (0.63740987, 0.31384605, 0.7037112), (0.63740987, 0.31384605, 0.7037112), (0.63740987, 0.31384605, 0.7037112), (0.63740987, 0.31384605, 0.7037112), (0.7737959, 0.00166014, 0.6334328), (0.7737959, 0.00166014, 0.6334328), (0.7737959, 0.00166014, 0.6334328), (0.7737959, 0.00166014, 0.6334328), (0.98594224, 0.049024332, 0.15973255), (0.98594224, 0.049024332, 0.15973255), (0.98594224, 0.049024332, 0.15973255), (0.98594224, 0.049024332, 0.15973255), (0.9856955, 0.00068927574, 0.16853456), (0.9856685, 0.0008747451, 0.16869152), (0.985514, 0.0019288913, 0.16958353), (0.985514, 0.0019288913, 0.16958353), (0.98584914, -0.00037377916, 0.16763462), (0.98584914, -0.00037377916, 0.16763462), (0.9856685, 0.0008747451, 0.16869152), (0.9856955, 0.00068927574, 0.16853456), (0.7835167, -0.003437508, 0.6213612), (0.7835167, -0.003437508, 0.6213612), (0.7835167, -0.003437508, 0.6213612), (0.7835167, -0.003437508, 0.6213612), (0.983854, -0.025672192, 0.17712201), (0.983854, -0.025672192, 0.17712201), (0.983854, -0.025672192, 0.17712201), (0.983854, -0.025672192, 0.17712201), (0.74009484, -0.043969247, 0.6710636), (0.74009484, -0.043969247, 0.6710636), (0.74009484, -0.043969247, 0.6710636), (0.74009484, -0.043969247, 0.6710636), (-0.0446431, -0.9471554, 0.31765336), (-0.0446431, -0.9471554, 0.31765336), (-0.0446431, -0.9471554, 0.31765336), (-0.0446431, -0.9471554, 0.31765336), (0.042480133, -0.9463375, 0.3203759), (0.042480133, -0.9463375, 0.3203759), (0.042480133, -0.9463375, 0.3203759), (0.042480133, -0.9463375, 0.3203759), (0.0037282493, -0.059869632, -0.9981992), (0.0037282493, -0.059869632, -0.9981992), (0.0037282493, -0.059869632, -0.9981992), (0.0037282493, -0.059869632, -0.9981992), (0.026934143, -0.052008197, -0.9982833), (0.026934143, -0.052008197, -0.9982833), (0.026934143, -0.052008197, -0.9982833), (0.026934143, -0.052008197, -0.9982833), (-0.0000022095392, 1.0849275e-7, -1), (-0.0000019917009, -1.9857575e-7, -1), (-0.000001756097, -5.306868e-7, -1), (0.066595845, -0.0023531443, -0.9977772), (0.066595845, -0.0023531443, -0.9977772), (0.066595845, -0.0023531443, -0.9977772), (0.066595845, -0.0023531443, -0.9977772), (0.020214738, -0.9576269, 0.28730133), (0.020214738, -0.9576269, 0.28730133), (0.020214738, -0.9576269, 0.28730133), (0.020214738, -0.9576269, 0.28730133), (-0.70844865, -0.44472554, 0.5480142), (-0.70844865, -0.44472554, 0.5480142), (-0.70844865, -0.44472554, 0.5480142), (-0.70844865, -0.44472554, 0.5480142), (-0.30432263, 0.023085734, 0.9522892), (-0.30432263, 0.023085734, 0.9522892), (-0.30432263, 0.023085734, 0.9522892), (-0.30432263, 0.023085734, 0.9522892), (-0.7707353, -0.05598457, 0.63469106), (-0.7707353, -0.05598457, 0.63469106), (-0.7707353, -0.05598457, 0.63469106), (-0.9886514, 0.00067536684, 0.15022606), (-0.9886514, 0.00067536684, 0.15022606), (-0.9886514, 0.00067536684, 0.15022606), (0.95893306, -0.015311173, 0.28321886), (0.95893306, -0.015311173, 0.28321886), (0.95893306, -0.015311173, 0.28321886), (-0.0012109668, 0.0019142366, -0.9999974), (-0.0020834235, 0.0045208214, -0.99998766), (-0.0018011568, 0.003908059, -0.99999076), (0.0000045950874, -0.00009383587, -1), (-0.81898236, 0.2338506, 0.52400565), (-0.81898236, 0.2338506, 0.52400565), (-0.81898236, 0.2338506, 0.52400565), (-0.81898236, 0.2338506, 0.52400565), (-0.8243494, 0.28905332, 0.4867201), (-0.8243494, 0.28905332, 0.4867201), (-0.8243494, 0.28905332, 0.4867201), (-0.8243494, 0.28905332, 0.4867201), (-0.9472252, 0.024401657, 0.31963885), (-0.9472252, 0.024401657, 0.31963885), (-0.9472252, 0.024401657, 0.31963885), (-0.9472252, 0.024401657, 0.31963885), (-0.0012109668, 0.0019142366, -0.9999974), (0.0000045950874, -0.00009383587, -1), (-0.00023238605, 0.0011062861, -0.9999994), (-0.0011361361, 0.0016909646, -0.99999785), (0.0000045950874, -0.00009383587, -1), (-0.0018011568, 0.003908059, -0.99999076), (0.005044786, 0.00018328433, -0.99998724), (0.00014668633, 0.00008366979, -1), (0.0000045950874, -0.00009383587, -1), (0.00014668633, 0.00008366979, -1), (-0.0023652131, -0.004660372, -0.9999863), (-0.00023238605, 0.0011062861, -0.9999994), (-0.0023652131, -0.004660372, -0.9999863), (0.00014668633, 0.00008366979, -1), (0.009612226, 0.000659672, -0.9999536), (0.008832932, 0.0007003963, -0.9999608), (0.00014668633, 0.00008366979, -1), (0.005044786, 0.00018328433, -0.99998724), (0.010089443, 0.00036696275, -0.99994904), (0.009612226, 0.000659672, -0.9999536), (-0.0020750598, 0.0221998, -0.9997514), (0.0033894773, 0.01567255, -0.9998715), (0.003856292, 0.015115386, -0.9998783), (0.003856292, 0.015115386, -0.9998783), (-0.0020750598, 0.0221998, -0.9997514), (-0.0018506185, 0.022124568, -0.99975353), (0.00065321615, 0.020157285, -0.99979657), (0.0033894773, 0.01567255, -0.9998715), (0.048445273, 0.9726337, 0.22723697), (0.048445273, 0.9726337, 0.22723697), (0.048445273, 0.9726337, 0.22723697), (0.048445273, 0.9726337, 0.22723697), (0.020828666, 0.9725034, 0.23195526), (0.020828666, 0.9725034, 0.23195526), (0.020828666, 0.9725034, 0.23195526), (0.020828666, 0.9725034, 0.23195526), (0.8518168, 0.45354182, 0.26212218), (0.8518168, 0.45354182, 0.26212218), (0.8518168, 0.45354182, 0.26212218), (0.8518168, 0.45354182, 0.26212218), (0.041135248, -0.008260904, 0.99911946), (0.04193814, -0.0069097737, 0.99909633), (0.044435963, -0.0027036122, 0.9990085), (0.041135248, -0.008260904, 0.99911946), (0.9773285, 0.006305886, 0.21163504), (0.9773194, 0.006177059, 0.21168038), (0.97693926, 0.00028205762, 0.213517), (0.9773285, 0.006305886, 0.21163504), (0.04193814, -0.0069097737, 0.99909633), (0.045353033, -0.003592732, 0.9989645), (0.04974806, -0.0075015826, 0.99873364), (0.044435963, -0.0027036122, 0.9990085), (-0.12948808, 0.07942552, 0.98839486), (-0.12948808, 0.07942552, 0.98839486), (-0.12948808, 0.07942552, 0.98839486), (-0.12948808, 0.07942552, 0.98839486), (-0.20110309, 0.116991326, 0.9725588), (-0.20110309, 0.116991326, 0.9725588), (-0.20110309, 0.116991326, 0.9725588), (-0.20110309, 0.116991326, 0.9725588), (-0.11201779, 0.0766178, 0.9907481), (-0.11218172, 0.07660526, 0.99073046), (-0.117690034, 0.075417764, 0.9901824), (-0.11201779, 0.0766178, 0.9907481), (0.04974806, -0.0075015826, 0.99873364), (0.045353033, -0.003592732, 0.9989645), (0.047689494, -0.010902, 0.9988027), (0.05031711, -0.0010049196, 0.99873275), (0.07082227, -0.1131618, 0.9910492), (0.07082227, -0.1131618, 0.9910492), (0.07082227, -0.1131618, 0.9910492), (0.07082227, -0.1131618, 0.9910492), (-0.06839468, 0.011669293, 0.99759007), (-0.06839468, 0.011669293, 0.99759007), (-0.06839468, 0.011669293, 0.99759007), (-0.06839468, 0.011669293, 0.99759007), (0.03229914, -0.02150285, 0.9992469), (0.03229914, -0.02150285, 0.9992469), (0.03229914, -0.02150285, 0.9992469), (0.03229914, -0.02150285, 0.9992469), (0.04974806, -0.0075015826, 0.99873364), (0.05031711, -0.0010049196, 0.99873275), (0.05058842, 0.000016520791, 0.9987196), (0.05058842, 0.000016520791, 0.9987196), (0.049949907, -0.29815406, 0.9532099), (0.049949907, -0.29815406, 0.9532099), (0.049949907, -0.29815406, 0.9532099), (0.049949907, -0.29815406, 0.9532099), (0.09846006, -0.32259062, 0.9414037), (0.09846006, -0.32259062, 0.9414037), (0.09846006, -0.32259062, 0.9414037), (0.09846006, -0.32259062, 0.9414037), (0.9773194, 0.006177059, 0.21168038), (0.9768842, -0.0015055143, 0.21376409), (0.9769042, -0.00080671505, 0.21367581), (0.97693926, 0.00028205762, 0.213517), (0.9769042, -0.00080671505, 0.21367581), (0.9768842, -0.0015055143, 0.21376409), (0.97687685, -0.0017613146, 0.21379545), (0.97687685, -0.0017613146, 0.21379545), (0.9098284, -0.12365591, 0.396133), (0.9098284, -0.12365591, 0.396133), (0.9098284, -0.12365591, 0.396133), (0.19530399, -0.66747636, 0.71856225), (0.19530399, -0.66747636, 0.71856225), (0.19530399, -0.66747636, 0.71856225), (0.02622451, -0.9713909, 0.23603372), (0.02622451, -0.9713909, 0.23603372), (0.02622451, -0.9713909, 0.23603372), (0.02622451, -0.9713909, 0.23603372), (0.0006573506, -0.0047835857, -0.9999883), (-0.0023652131, -0.004660372, -0.9999863), (0.008832932, 0.0007003963, -0.9999608), (0.0038280897, -0.0033463165, -0.99998707), (0.0027817136, -0.9702611, 0.24204507), (0.0027817136, -0.9702611, 0.24204507), (0.0027817136, -0.9702611, 0.24204507), (0.0027817136, -0.9702611, 0.24204507), (0.0006573506, -0.0047835857, -0.9999883), (-0.002396038, -0.0061676027, -0.99997807), (-0.0023652131, -0.004660372, -0.9999863), (-0.015921813, -0.96813506, 0.24992192), (-0.015921813, -0.96813506, 0.24992192), (-0.015921813, -0.96813506, 0.24992192), (-0.015921813, -0.96813506, 0.24992192), (0.007108194, -0.017634729, -0.9998193), (0.007108194, -0.017634729, -0.9998193), (0.007108194, -0.017634729, -0.9998193), (0.0041478025, -0.96935445, 0.24563119), (0.0041478025, -0.96935445, 0.24563119), (0.0041478025, -0.96935445, 0.24563119), (0.0041478025, -0.96935445, 0.24563119), (-0.0023652131, -0.004660372, -0.9999863), (-0.00041005836, -0.0073680226, -0.9999728), (-0.00041005836, -0.0073680226, -0.9999728), (-0.0038833674, -0.00019206823, -0.99999243), (-0.50137424, -0.78760624, 0.3581901), (-0.50137424, -0.78760624, 0.3581901), (-0.50137424, -0.78760624, 0.3581901), (-0.50137424, -0.78760624, 0.3581901), (0.035866488, 0.002846557, -0.9993525), (0.035866488, 0.002846557, -0.9993525), (0.035866488, 0.002846557, -0.9993525), (-0.96853447, -0.013751539, 0.24849948), (-0.96853447, -0.013751539, 0.24849948), (-0.96853447, -0.013751539, 0.24849948), (-0.96853447, -0.013751539, 0.24849948), (-0.9748204, 0.012064311, 0.22266477), (-0.9748204, 0.012064311, 0.22266477), (-0.9748204, 0.012064311, 0.22266477), (-0.9748204, 0.012064311, 0.22266477), (-0.0038833674, -0.00019206823, -0.99999243), (-0.0039841807, 0.000016444781, -0.99999213), (-0.00023238605, 0.0011062861, -0.9999994), (-0.0023652131, -0.004660372, -0.9999863), (-0.86969906, 0.47318324, 0.14043234), (-0.86969906, 0.47318324, 0.14043234), (-0.86969906, 0.47318324, 0.14043234), (-0.86969906, 0.47318324, 0.14043234), (-0.0062738704, -0.05565147, -0.9984305), (-0.0062738704, -0.05565147, -0.9984305), (-0.0062738704, -0.05565147, -0.9984305), (-0.117690034, 0.075417764, 0.9901824), (-0.120666824, 0.073993094, 0.9899316), (-0.12066594, 0.07365773, 0.9899568), (-0.12066594, 0.07365773, 0.9899568), (-0.7830329, -0.0062747183, 0.6219486), (-0.7830329, -0.0062747183, 0.6219486), (-0.7830329, -0.0062747183, 0.6219486), (-0.120666824, 0.073993094, 0.9899316), (-0.117690034, 0.075417764, 0.9901824), (-0.11218172, 0.07660526, 0.99073046), (-0.120671466, 0.07621792, 0.9897622), (-0.1109561, 0.0897829, 0.9897615), (-0.1109561, 0.0897829, 0.9897615), (-0.1109561, 0.0897829, 0.9897615), (-0.1109561, 0.0897829, 0.9897615), (-0.7385016, -0.22741768, 0.63474137), (-0.7385016, -0.22741768, 0.63474137), (-0.7385016, -0.22741768, 0.63474137), (-0.7385016, -0.22741768, 0.63474137), (-0.06814247, -0.54237735, 0.8373669), (-0.06814247, -0.54237735, 0.8373669), (-0.06814247, -0.54237735, 0.8373669), (-0.5782853, -0.58031666, 0.5734272), (-0.5782853, -0.58031666, 0.5734272), (-0.5782853, -0.58031666, 0.5734272), (-0.100703426, 0.065831676, 0.99273604), (-0.100703426, 0.065831676, 0.99273604), (-0.100703426, 0.065831676, 0.99273604), (-0.100703426, 0.065831676, 0.99273604), (-0.022664286, 0.9713216, 0.23668693), (-0.022664286, 0.9713216, 0.23668693), (-0.022664286, 0.9713216, 0.23668693), (-0.022664286, 0.9713216, 0.23668693), (-0.014852076, 0.9675654, 0.25218394), (-0.014852076, 0.9675654, 0.25218394), (-0.014852076, 0.9675654, 0.25218394), (-0.0018506185, 0.022124568, -0.99975353), (0.0011183609, 0.019791923, -0.9998035), (0.0011183609, 0.019791923, -0.9998035), (0.00065321615, 0.020157285, -0.99979657), (-0.022318697, 0.008446874, -0.99971527), (-0.022318697, 0.008446874, -0.99971527), (-0.022318697, 0.008446874, -0.99971527), (-0.022318697, 0.008446874, -0.99971527), (-0.97581494, 0.01436215, 0.21812624), (-0.97581494, 0.01436215, 0.21812624), (-0.97581494, 0.01436215, 0.21812624), (-0.97581494, 0.01436215, 0.21812624), (-0.013866229, 0.9817852, 0.18948764), (-0.013866229, 0.9817852, 0.18948764), (-0.013866229, 0.9817852, 0.18948764), (-0.013866229, 0.9817852, 0.18948764), (0.021818455, 0.07183822, -0.9971776), (0.021818455, 0.07183822, -0.9971776), (0.021818455, 0.07183822, -0.9971776), (0.021818455, 0.07183822, -0.9971776), (0.0074175242, 0.9825071, 0.18607712), (0.0074175242, 0.9825071, 0.18607712), (0.0074175242, 0.9825071, 0.18607712), (0.0074175242, 0.9825071, 0.18607712), (-0.051449284, 0.012652783, -0.9985954), (-0.051449284, 0.012652783, -0.9985954), (-0.051449284, 0.012652783, -0.9985954), (-0.051449284, 0.012652783, -0.9985954), (-5.800061e-7, 0.0000015147582, -1), (-2.773088e-7, 0.0000016628045, -1), (-7.0499556e-7, 0.0000014536271, -1), (-7.0499556e-7, 0.0000014536271, -1), (0.021337105, 0.040569145, -0.99894893), (0.021337105, 0.040569145, -0.99894893), (0.021337105, 0.040569145, -0.99894893), (0.021337105, 0.040569145, -0.99894893), (-0.0010722228, -0.035187636, -0.9993802), (-0.0010722228, -0.035187636, -0.9993802), (-0.0010722228, -0.035187636, -0.9993802), (-0.0010722228, -0.035187636, -0.9993802), (0.07593378, -0.0050557978, -0.99710006), (0.07593378, -0.0050557978, -0.99710006), (0.07593378, -0.0050557978, -0.99710006), (0.07593378, -0.0050557978, -0.99710006), (0.96613884, 0.017498681, 0.25742868), (0.9667869, 0.01636221, 0.25505933), (0.96875435, 0.012835121, 0.24769023), (0.9667869, 0.01636221, 0.25505933), (0.96901566, 0.01235724, 0.24669015), (0.96901566, 0.01235724, 0.24669015), (0.96875435, 0.012835121, 0.24769023), (0.9702556, 0.018854648, 0.24134739), (0.9702556, 0.018854648, 0.24134739), (0.9702556, 0.018854648, 0.24134739), (0.9702556, 0.018854648, 0.24134739), (0.014716388, 0.27086127, 0.9625059), (0.015875475, 0.2716194, 0.96227384), (0.021855641, 0.27552426, 0.9610456), (0.0023745263, 0.26213077, 0.9650295), (0.0023745263, 0.26213077, 0.9650295), (0.0023745263, 0.26213077, 0.9650295), (0.0023745263, 0.26213077, 0.9650295), (0.023021722, 0.27628475, 0.9608), (0.021855641, 0.27552426, 0.9610456), (0.015875475, 0.2716194, 0.96227384), (0.023021722, 0.27628475, 0.9608), (0.62068784, 0.7335366, 0.27689457), (0.62068784, 0.7335366, 0.27689457), (0.62068784, 0.7335366, 0.27689457), (0.62068784, 0.7335366, 0.27689457), (0.8754453, -0.17707108, 0.4497125), (0.8754453, -0.17707108, 0.4497125), (0.8754453, -0.17707108, 0.4497125), (0.8754453, -0.17707108, 0.4497125), (0.070531204, 0.008674107, 0.9974719), (0.070531204, 0.008674107, 0.9974719), (0.070531204, 0.008674107, 0.9974719), (0.070531204, 0.008674107, 0.9974719), (0.14738391, 0.51305616, 0.8456071), (0.14738391, 0.51305616, 0.8456071), (0.14738391, 0.51305616, 0.8456071), (0.14738391, 0.51305616, 0.8456071), (-0.018535694, -0.10432135, 0.99437094), (-0.018535694, -0.10432135, 0.99437094), (-0.018535694, -0.10432135, 0.99437094), (-0.034476534, -0.041506276, 0.99854326), (-0.034476534, -0.041506276, 0.99854326), (-0.034476534, -0.041506276, 0.99854326), (-0.034476534, -0.041506276, 0.99854326), (0.0025924651, -0.12282083, 0.9924255), (0.0025924651, -0.12282083, 0.9924255), (0.0025924651, -0.12282083, 0.9924255), (0.38639534, -0.58770436, 0.7108461), (0.38639534, -0.58770436, 0.7108461), (0.38639534, -0.58770436, 0.7108461), (0.38639534, -0.58770436, 0.7108461), (0.0021301007, -0.7444624, 0.667661), (0.0021301007, -0.7444624, 0.667661), (0.0021301007, -0.7444624, 0.667661), (0.0021301007, -0.7444624, 0.667661), (0.065240696, -0.9825131, 0.17438914), (0.065240696, -0.9825131, 0.17438914), (0.065240696, -0.9825131, 0.17438914), (0.065240696, -0.9825131, 0.17438914), (0.0009407548, -0.98290044, 0.18413559), (-0.00034760247, -0.9830673, 0.18324493), (0.0025653376, -0.98268664, 0.18525748), (0.0025653376, -0.98268664, 0.18525748), (-0.0004976209, -0.98308647, 0.1831417), (-0.0004976209, -0.98308647, 0.1831417), (-0.00034760247, -0.9830673, 0.18324493), (0.0009407548, -0.98290044, 0.18413559), (-0.004421532, -0.75487435, 0.6558545), (-0.004421532, -0.75487435, 0.6558545), (-0.004421532, -0.75487435, 0.6558545), (-0.004421532, -0.75487435, 0.6558545), (-0.034162518, -0.9805263, 0.19339378), (-0.034162518, -0.9805263, 0.19339378), (-0.034162518, -0.9805263, 0.19339378), (-0.034162518, -0.9805263, 0.19339378), (-0.056192454, -0.70832926, 0.70364195), (-0.056192454, -0.70832926, 0.70364195), (-0.056192454, -0.70832926, 0.70364195), (-0.056192454, -0.70832926, 0.70364195), (-0.96360606, 0.0340181, 0.2651529), (-0.96360606, 0.0340181, 0.2651529), (-0.96360606, 0.0340181, 0.2651529), (-0.96360606, 0.0340181, 0.2651529), (-0.96301526, -0.032376416, 0.2674945), (-0.96301526, -0.032376416, 0.2674945), (-0.96301526, -0.032376416, 0.2674945), (-0.96301526, -0.032376416, 0.2674945), (-0.072905794, -0.0034005437, -0.997333), (-0.072905794, -0.0034005437, -0.997333), (-0.072905794, -0.0034005437, -0.997333), (-0.072905794, -0.0034005437, -0.997333), (-0.06334988, -0.024569802, -0.9976889), (-0.06334988, -0.024569802, -0.9976889), (-0.06334988, -0.024569802, -0.9976889), (-0.06334988, -0.024569802, -0.9976889), (1.5584652e-7, 0.0000018746566, -1), (-2.773088e-7, 0.0000016628045, -1), (-5.800061e-7, 0.0000015147582, -1), (-0.002869046, -0.06080909, -0.9981453), (-0.002869046, -0.06080909, -0.9981453), (-0.002869046, -0.06080909, -0.9981453), (-0.002869046, -0.06080909, -0.9981453), (-0.97090113, -0.015338531, 0.23898898), (-0.97090113, -0.015338531, 0.23898898), (-0.97090113, -0.015338531, 0.23898898), (-0.97090113, -0.015338531, 0.23898898), (-0.53873837, 0.64271367, 0.5446835), (-0.53873837, 0.64271367, 0.5446835), (-0.53873837, 0.64271367, 0.5446835), (-0.53873837, 0.64271367, 0.5446835), (0.028353482, 0.27991065, 0.95960724), (0.028353482, 0.27991065, 0.95960724), (0.028353482, 0.27991065, 0.95960724), (0.028353482, 0.27991065, 0.95960724), (-0.0718302, 0.7405681, 0.66813123), (-0.0718302, 0.7405681, 0.66813123), (-0.0718302, 0.7405681, 0.66813123), (0.0008988826, 0.9864241, 0.16421553), (0.0008988826, 0.9864241, 0.16421553), (0.0008988826, 0.9864241, 0.16421553), (-0.020281473, -0.9512339, 0.30780298), (-0.020281473, -0.9512339, 0.30780298), (-0.020281473, -0.9512339, 0.30780298), (0.008624243, 0.02119143, -0.9997382), (0.008624243, 0.02119143, -0.9997382), (0.008624243, 0.02119143, -0.9997382), (0.008624243, 0.02119143, -0.9997382), (0.015407683, 0.97327256, 0.22913548), (0.015407683, 0.97327256, 0.22913548), (0.015407683, 0.97327256, 0.22913548), (0.015407683, 0.97327256, 0.22913548), (0.9825144, 0.012906811, 0.18573883), (0.9825144, 0.012906811, 0.18573883), (0.9825144, 0.012906811, 0.18573883), (0.9825144, 0.012906811, 0.18573883), (0.07333751, -0.02071444, -0.99709207), (0.07333751, -0.02071444, -0.99709207), (0.07333751, -0.02071444, -0.99709207), (0.07333751, -0.02071444, -0.99709207), (0.98320264, -0.0069040353, 0.18238713), (0.98320264, -0.0069040353, 0.18238713), (0.98320264, -0.0069040353, 0.18238713), (0.98320264, -0.0069040353, 0.18238713), (0.012919341, 0.04885596, -0.9987224), (0.012919341, 0.04885596, -0.9987224), (0.012919341, 0.04885596, -0.9987224), (0.012919341, 0.04885596, -0.9987224), (0.0000016691815, 4.9170467e-7, -1), (0.0000018119518, 1.9737236e-7, -1), (0.0000016182867, 5.966284e-7, -1), (0.0000016182867, 5.966284e-7, -1), (0.041418977, -0.020258792, -0.9989365), (0.041418977, -0.020258792, -0.9989365), (0.041418977, -0.020258792, -0.9989365), (0.041418977, -0.020258792, -0.9989365), (-0.03592406, 0.0010179209, -0.99935395), (-0.03592406, 0.0010179209, -0.99935395), (-0.03592406, 0.0010179209, -0.99935395), (-0.03592406, 0.0010179209, -0.99935395), (-0.005163538, -0.072117835, -0.99738276), (-0.005163538, -0.072117835, -0.99738276), (-0.005163538, -0.072117835, -0.99738276), (-0.005163538, -0.072117835, -0.99738276), (0.018744051, -0.96263915, 0.27013814), (0.01754414, -0.96334136, 0.26770455), (0.0137056075, -0.96553856, 0.25989905), (0.01754414, -0.96334136, 0.26770455), (0.013241162, -0.9657981, 0.25895724), (0.013241162, -0.9657981, 0.25895724), (0.0137056075, -0.96553856, 0.25989905), (0.02021199, -0.967156, 0.2533789), (0.02021199, -0.967156, 0.2533789), (0.02021199, -0.967156, 0.2533789), (0.02021199, -0.967156, 0.2533789), (0.27611357, -0.013952162, 0.96102375), (0.27695116, -0.015145244, 0.96076465), (0.28081617, -0.020663697, 0.9595391), (0.2672368, -0.0022517059, 0.96362823), (0.2672368, -0.0022517059, 0.96362823), (0.2672368, -0.0022517059, 0.96362823), (0.2672368, -0.0022517059, 0.96362823), (0.2816265, -0.021823479, 0.9592759), (0.28081617, -0.020663697, 0.9595391), (0.27695116, -0.015145244, 0.96076465), (0.2816265, -0.021823479, 0.9592759), (0.75465196, -0.5938432, 0.27901712), (0.75465196, -0.5938432, 0.27901712), (0.75465196, -0.5938432, 0.27901712), (0.75465196, -0.5938432, 0.27901712), (-0.18788487, -0.8638605, 0.4673802), (-0.18788487, -0.8638605, 0.4673802), (-0.18788487, -0.8638605, 0.4673802), (-0.18788487, -0.8638605, 0.4673802), (0.008858769, -0.066984534, 0.9977147), (0.008858769, -0.066984534, 0.9977147), (0.008858769, -0.066984534, 0.9977147), (0.008858769, -0.066984534, 0.9977147), (0.5214613, -0.13930888, 0.841826), (0.5214613, -0.13930888, 0.841826), (0.5214613, -0.13930888, 0.841826), (0.5214613, -0.13930888, 0.841826), (-0.10648526, 0.017595844, 0.9941586), (-0.10648526, 0.017595844, 0.9941586), (-0.10648526, 0.017595844, 0.9941586), (-0.042377323, 0.032735635, 0.99856526), (-0.042377323, 0.032735635, 0.99856526), (-0.042377323, 0.032735635, 0.99856526), (-0.042377323, 0.032735635, 0.99856526), (-0.1253551, -0.0024602383, 0.9921089), (-0.1253551, -0.0024602383, 0.9921089), (-0.1253551, -0.0024602383, 0.9921089), (-0.6000453, -0.36688754, 0.7108722), (-0.6000453, -0.36688754, 0.7108722), (-0.6000453, -0.36688754, 0.7108722), (-0.6000453, -0.36688754, 0.7108722), (-0.75130135, -0.0019992227, 0.6599562), (-0.75130135, -0.0019992227, 0.6599562), (-0.75130135, -0.0019992227, 0.6599562), (-0.75130135, -0.0019992227, 0.6599562), (-0.9834044, -0.06072043, 0.17096461), (-0.9834044, -0.06072043, 0.17096461), (-0.9834044, -0.06072043, 0.17096461), (-0.9834044, -0.06072043, 0.17096461), (-0.9835788, -0.00087066524, 0.18047732), (-0.98374265, 0.0003566826, 0.17958364), (-0.98337275, -0.0023895397, 0.18158269), (-0.98337275, -0.0023895397, 0.18158269), (-0.98375684, 0.0004635995, 0.1795058), (-0.98375684, 0.0004635995, 0.1795058), (-0.98374265, 0.0003566826, 0.17958364), (-0.9835788, -0.00087066524, 0.18047732), (-0.7615597, 0.004148683, 0.64808136), (-0.7615597, 0.004148683, 0.64808136), (-0.7615597, 0.004148683, 0.64808136), (-0.7615597, 0.004148683, 0.64808136), (-0.9813497, 0.031797465, 0.189583), (-0.9813497, 0.031797465, 0.189583), (-0.9813497, 0.031797465, 0.189583), (-0.9813497, 0.031797465, 0.189583), (-0.71571964, 0.05280089, 0.69638884), (-0.71571964, 0.05280089, 0.69638884), (-0.71571964, 0.05280089, 0.69638884), (-0.71571964, 0.05280089, 0.69638884), (0.036440715, 0.95984006, 0.27817118), (0.036440715, 0.95984006, 0.27817118), (0.036440715, 0.95984006, 0.27817118), (0.036440715, 0.95984006, 0.27817118), (-0.034674477, 0.9591954, 0.28061), (-0.034674477, 0.9591954, 0.28061), (-0.034674477, 0.9591954, 0.28061), (-0.034674477, 0.9591954, 0.28061), (-0.0034722663, 0.069240324, -0.997594), (-0.0034722663, 0.069240324, -0.997594), (-0.0034722663, 0.069240324, -0.997594), (-0.0034722663, 0.069240324, -0.997594), (-0.025089089, 0.06016024, -0.99787337), (-0.025089089, 0.06016024, -0.99787337), (-0.025089089, 0.06016024, -0.99787337), (-0.025089089, 0.06016024, -0.99787337), (0.0000019938288, -1.7758147e-7, -1), (0.0000018119518, 1.9737236e-7, -1), (0.0000016691815, 4.9170467e-7, -1), (-0.06207842, 0.0027238305, -0.9980675), (-0.06207842, 0.0027238305, -0.9980675), (-0.06207842, 0.0027238305, -0.9980675), (-0.06207842, 0.0027238305, -0.9980675), (-0.016450882, 0.9678676, 0.25092173), (-0.016450882, 0.9678676, 0.25092173), (-0.016450882, 0.9678676, 0.25092173), (-0.016450882, 0.9678676, 0.25092173), (0.6598522, 0.51438195, 0.5477282), (0.6598522, 0.51438195, 0.5477282), (0.6598522, 0.51438195, 0.5477282), (0.6598522, 0.51438195, 0.5477282), (0.2853152, -0.026876891, 0.9580569), (0.2853152, -0.026876891, 0.9580569), (0.2853152, -0.026876891, 0.9580569), (0.2853152, -0.026876891, 0.9580569), (0.7476389, 0.06743869, 0.6606724), (0.7476389, 0.06743869, 0.6606724), (0.7476389, 0.06743869, 0.6606724), (0.98696625, -0.0008378402, 0.16092525), (0.98696625, -0.0008378402, 0.16092525), (0.98696625, -0.0008378402, 0.16092525), (-0.95310026, 0.018897504, 0.3020643), (-0.95310026, 0.018897504, 0.3020643), (-0.95310026, 0.018897504, 0.3020643), (-0.02006259, 0.010394237, -0.9997448), (-0.02006259, 0.010394237, -0.9997448), (-0.02006259, 0.010394237, -0.9997448), (-0.02006259, 0.010394237, -0.9997448), (-0.9702582, 0.019551057, 0.24128164), (-0.9702582, 0.019551057, 0.24128164), (-0.9702582, 0.019551057, 0.24128164), (-0.9702582, 0.019551057, 0.24128164), (-0.010192555, 0.98786974, 0.15495032), (-0.010192555, 0.98786974, 0.15495032), (-0.010192555, 0.98786974, 0.15495032), (-0.010192555, 0.98786974, 0.15495032), (0.019587304, 0.088283546, -0.9959028), (0.019587304, 0.088283546, -0.9959028), (0.019587304, 0.088283546, -0.9959028), (0.019587304, 0.088283546, -0.9959028), (0.0054511675, 0.9883472, 0.15211934), (0.0054511675, 0.9883472, 0.15211934), (0.0054511675, 0.9883472, 0.15211934), (0.0054511675, 0.9883472, 0.15211934), (-0.04625707, 0.015572263, -0.99880815), (-0.04625707, 0.015572263, -0.99880815), (-0.04625707, 0.015572263, -0.99880815), (-0.04625707, 0.015572263, -0.99880815), (-5.3340057e-7, 0.0000018515144, -1), (-1.4626721e-7, 0.000002144258, -1), (-6.2148615e-7, 0.0000017849057, -1), (-6.2148615e-7, 0.0000017849057, -1), (0.019172376, 0.049901314, -0.99857014), (0.019172376, 0.049901314, -0.99857014), (0.019172376, 0.049901314, -0.99857014), (0.019172376, 0.049901314, -0.99857014), (-0.0009634761, -0.04328442, -0.99906236), (-0.0009634761, -0.04328442, -0.99906236), (-0.0009634761, -0.04328442, -0.99906236), (-0.0009634761, -0.04328442, -0.99906236), (0.06829354, -0.0062247966, -0.9976458), (0.06829354, -0.0062247966, -0.9976458), (0.06829354, -0.0062247966, -0.9976458), (0.06829354, -0.0062247966, -0.9976458), (0.9584947, 0.0237624, 0.28411824), (0.9592103, 0.02237685, 0.28180638), (0.9618896, 0.017052718, 0.27290604), (0.9592103, 0.02237685, 0.28180638), (0.9620201, 0.016791798, 0.2724613), (0.9620201, 0.016791798, 0.2724613), (0.9618896, 0.017052718, 0.27290604), (0.96346176, 0.025627187, 0.26661697), (0.96346176, 0.025627187, 0.26661697), (0.96346176, 0.025627187, 0.26661697), (0.96346176, 0.025627187, 0.26661697), (0.012986288, 0.32718748, 0.9448702), (0.01433468, 0.32835498, 0.94444555), (0.019101482, 0.3324715, 0.9429198), (0.002098154, 0.31699803, 0.9484239), (0.002098154, 0.31699803, 0.9484239), (0.002098154, 0.31699803, 0.9484239), (0.002098154, 0.31699803, 0.9484239), (0.020300703, 0.33350322, 0.94253033), (0.019101482, 0.3324715, 0.9429198), (0.01433468, 0.32835498, 0.94444555), (0.020300703, 0.33350322, 0.94253033), (0.50875086, 0.82305616, 0.25248966), (0.50875086, 0.82305616, 0.25248966), (0.50875086, 0.82305616, 0.25248966), (0.50875086, 0.82305616, 0.25248966), (0.8441759, -0.23373328, 0.48242712), (0.8441759, -0.23373328, 0.48242712), (0.8441759, -0.23373328, 0.48242712), (0.8441759, -0.23373328, 0.48242712), (0.063428536, 0.010679366, 0.9979292), (0.063428536, 0.010679366, 0.9979292), (0.063428536, 0.010679366, 0.9979292), (0.063428536, 0.010679366, 0.9979292), (0.12456233, 0.59357744, 0.7950786), (0.12456233, 0.59357744, 0.7950786), (0.12456233, 0.59357744, 0.7950786), (0.12456233, 0.59357744, 0.7950786), (-0.016615938, -0.12801258, 0.9916333), (-0.016615938, -0.12801258, 0.9916333), (-0.016615938, -0.12801258, 0.9916333), (-0.03098049, -0.05105675, 0.9982151), (-0.03098049, -0.05105675, 0.9982151), (-0.03098049, -0.05105675, 0.9982151), (-0.03098049, -0.05105675, 0.9982151), (0.002321221, -0.15054713, 0.98860013), (0.002321221, -0.15054713, 0.98860013), (0.002321221, -0.15054713, 0.98860013), (0.32403713, -0.67468, 0.6631793), (0.32403713, -0.67468, 0.6631793), (0.32403713, -0.67468, 0.6631793), (0.32403713, -0.67468, 0.6631793), (0.0016909942, -0.8081335, 0.588997), (0.0016909942, -0.8081335, 0.588997), (0.0016909942, -0.8081335, 0.588997), (0.0016909942, -0.8081335, 0.588997), (0.047950223, -0.9886177, 0.14260337), (0.047950223, -0.9886177, 0.14260337), (0.047950223, -0.9886177, 0.14260337), (0.047950223, -0.9886177, 0.14260337), (0.00068220095, -0.9886092, 0.15050404), (0.0008482823, -0.9885894, 0.15063302), (0.0018875677, -0.98846465, 0.15143998), (0.0018875677, -0.98846465, 0.15143998), (-0.00036667712, -0.98873293, 0.1496893), (-0.00036667712, -0.98873293, 0.1496893), (0.0008482823, -0.9885894, 0.15063302), (0.00068220095, -0.9886092, 0.15050404), (-0.0034965472, -0.8168871, 0.576787), (-0.0034965472, -0.8168871, 0.576787), (-0.0034965472, -0.8168871, 0.576787), (-0.0034965472, -0.8168871, 0.576787), (-0.025123589, -0.9870845, 0.15821777), (-0.025123589, -0.9870845, 0.15821777), (-0.025123589, -0.9870845, 0.15821777), (-0.025123589, -0.9870845, 0.15821777), (-0.045045674, -0.77730125, 0.6275139), (-0.045045674, -0.77730125, 0.6275139), (-0.045045674, -0.77730125, 0.6275139), (-0.045045674, -0.77730125, 0.6275139), (-0.95518184, 0.046154942, 0.2923993), (-0.95518184, 0.046154942, 0.2923993), (-0.95518184, 0.046154942, 0.2923993), (-0.95518184, 0.046154942, 0.2923993), (-0.9545025, -0.04392657, 0.2949498), (-0.9545025, -0.04392657, 0.2949498), (-0.9545025, -0.04392657, 0.2949498), (-0.9545025, -0.04392657, 0.2949498), (-0.065567635, -0.0041860812, -0.9978393), (-0.065567635, -0.0041860812, -0.9978393), (-0.065567635, -0.0041860812, -0.9978393), (-0.065567635, -0.0041860812, -0.9978393), (-0.056957684, -0.030240163, -0.9979185), (-0.056957684, -0.030240163, -0.9979185), (-0.056957684, -0.030240163, -0.9979185), (-0.056957684, -0.030240163, -0.9979185), (1.9936313e-7, 0.0000024056174, -1), (-1.4626721e-7, 0.000002144258, -1), (-5.3340057e-7, 0.0000018515144, -1), (-0.0025765307, -0.0747542, -0.9971987), (-0.0025765307, -0.0747542, -0.9971987), (-0.0025765307, -0.0747542, -0.9971987), (-0.0025765307, -0.0747542, -0.9971987), (-0.96428156, -0.020855045, 0.26405716), (-0.96428156, -0.020855045, 0.26405716), (-0.96428156, -0.020855045, 0.26405716), (-0.96428156, -0.020855045, 0.26405716), (-0.4502831, 0.7353565, 0.5064542), (-0.4502831, 0.7353565, 0.5064542), (-0.4502831, 0.7353565, 0.5064542), (-0.4502831, 0.7353565, 0.5064542), (0.024990385, 0.33772, 0.94091487), (0.024990385, 0.33772, 0.94091487), (0.024990385, 0.33772, 0.94091487), (0.024990385, 0.33772, 0.94091487), (-0.0570473, 0.8051484, 0.5903232), (-0.0570473, 0.8051484, 0.5903232), (-0.0570473, 0.8051484, 0.5903232), (0.0006611953, 0.9909725, 0.13406287), (0.0006611953, 0.9909725, 0.13406287), (0.0006611953, 0.9909725, 0.13406287), (-0.01506492, -0.9670105, 0.25429037), (-0.01506492, -0.9670105, 0.25429037), (-0.01506492, -0.9670105, 0.25429037), (0.008624252, 0.021191448, -0.9997383), (0.008624252, 0.021191448, -0.9997383), (0.008624252, 0.021191448, -0.9997383), (0.008624252, 0.021191448, -0.9997383), (0.015407, 0.97327274, 0.22913511), (0.015407, 0.97327274, 0.22913511), (0.015407, 0.97327274, 0.22913511), (0.015407, 0.97327274, 0.22913511), (0.9825145, 0.012905463, 0.18573792), (0.9825145, 0.012905463, 0.18573792), (0.9825145, 0.012905463, 0.18573792), (0.9825145, 0.012905463, 0.18573792), (0.073337674, -0.020714434, -0.99709195), (0.073337674, -0.020714434, -0.99709195), (0.073337674, -0.020714434, -0.99709195), (0.073337674, -0.020714434, -0.99709195), (0.98320264, -0.0069037485, 0.18238693), (0.98320264, -0.0069037485, 0.18238693), (0.98320264, -0.0069037485, 0.18238693), (0.98320264, -0.0069037485, 0.18238693), (0.012919361, 0.04885596, -0.9987223), (0.012919361, 0.04885596, -0.9987223), (0.012919361, 0.04885596, -0.9987223), (0.012919361, 0.04885596, -0.9987223), (0.0000016098766, 4.5930733e-7, -1), (0.0000017636104, 1.5609709e-7, -1), (0.0000015550733, 5.6739594e-7, -0.99999994), (0.0000015550733, 5.6739594e-7, -0.99999994), (0.04141895, -0.020258807, -0.99893653), (0.04141895, -0.020258807, -0.99893653), (0.04141895, -0.020258807, -0.99893653), (0.04141895, -0.020258807, -0.99893653), (-0.03592398, 0.0010178726, -0.999354), (-0.03592398, 0.0010178726, -0.999354), (-0.03592398, 0.0010178726, -0.999354), (-0.03592398, 0.0010178726, -0.999354), (-0.0051634856, -0.07211777, -0.9973827), (-0.0051634856, -0.07211777, -0.9973827), (-0.0051634856, -0.07211777, -0.9973827), (-0.0051634856, -0.07211777, -0.9973827), (0.01874403, -0.9626393, 0.27013728), (0.017524192, -0.96335316, 0.2676633), (0.013704478, -0.9655385, 0.25989944), (0.017524192, -0.96335316, 0.2676633), (0.013241812, -0.9657978, 0.25895777), (0.013241812, -0.9657978, 0.25895777), (0.013704478, -0.9655385, 0.25989944), (0.020209666, -0.967156, 0.2533789), (0.020209666, -0.967156, 0.2533789), (0.020209666, -0.967156, 0.2533789), (0.020209666, -0.967156, 0.2533789), (0.27611464, -0.013952258, 0.96102345), (0.2769527, -0.015144454, 0.9607642), (0.280817, -0.02066375, 0.9595389), (0.26723585, -0.0022525785, 0.9636285), (0.26723585, -0.0022525785, 0.9636285), (0.26723585, -0.0022525785, 0.9636285), (0.26723585, -0.0022525785, 0.9636285), (0.28162673, -0.021823434, 0.95927584), (0.280817, -0.02066375, 0.9595389), (0.2769527, -0.015144454, 0.9607642), (0.28162673, -0.021823434, 0.95927584), (0.7546536, -0.5938414, 0.2790168), (0.7546536, -0.5938414, 0.2790168), (0.7546536, -0.5938414, 0.2790168), (0.7546536, -0.5938414, 0.2790168), (-0.18788405, -0.8638614, 0.46737888), (-0.18788405, -0.8638614, 0.46737888), (-0.18788405, -0.8638614, 0.46737888), (-0.18788405, -0.8638614, 0.46737888), (0.008858683, -0.06698426, 0.9977147), (0.008858683, -0.06698426, 0.9977147), (0.008858683, -0.06698426, 0.9977147), (0.008858683, -0.06698426, 0.9977147), (0.5214584, -0.13930745, 0.84182817), (0.5214584, -0.13930745, 0.84182817), (0.5214584, -0.13930745, 0.84182817), (0.5214584, -0.13930745, 0.84182817), (-0.10648443, 0.017595826, 0.9941586), (-0.10648443, 0.017595826, 0.9941586), (-0.10648443, 0.017595826, 0.9941586), (-0.04237732, 0.03273551, 0.9985653), (-0.04237732, 0.03273551, 0.9985653), (-0.04237732, 0.03273551, 0.9985653), (-0.04237732, 0.03273551, 0.9985653), (-0.12535493, -0.0024603053, 0.99210894), (-0.12535493, -0.0024603053, 0.99210894), (-0.12535493, -0.0024603053, 0.99210894), (-0.60004544, -0.36688852, 0.7108715), (-0.60004544, -0.36688852, 0.7108715), (-0.60004544, -0.36688852, 0.7108715), (-0.60004544, -0.36688852, 0.7108715), (-0.7513013, -0.0019995063, 0.65995634), (-0.7513013, -0.0019995063, 0.65995634), (-0.7513013, -0.0019995063, 0.65995634), (-0.7513013, -0.0019995063, 0.65995634), (-0.98340434, -0.0607231, 0.17096396), (-0.98340434, -0.0607231, 0.17096396), (-0.98340434, -0.0607231, 0.17096396), (-0.98340434, -0.0607231, 0.17096396), (-0.9835788, -0.0008708226, 0.18047708), (-0.98374254, 0.00035693045, 0.17958395), (-0.98337275, -0.002389702, 0.18158263), (-0.98337275, -0.002389702, 0.18158263), (-0.9837569, 0.00046344797, 0.1795054), (-0.9837569, 0.00046344797, 0.1795054), (-0.98374254, 0.00035693045, 0.17958395), (-0.9835788, -0.0008708226, 0.18047708), (-0.7615598, 0.0041488893, 0.64808136), (-0.7615598, 0.0041488893, 0.64808136), (-0.7615598, 0.0041488893, 0.64808136), (-0.7615598, 0.0041488893, 0.64808136), (-0.9813497, 0.0317973, 0.18958262), (-0.9813497, 0.0317973, 0.18958262), (-0.9813497, 0.0317973, 0.18958262), (-0.9813497, 0.0317973, 0.18958262), (-0.71571934, 0.052801453, 0.696389), (-0.71571934, 0.052801453, 0.696389), (-0.71571934, 0.052801453, 0.696389), (-0.71571934, 0.052801453, 0.696389), (0.036439758, 0.9598399, 0.27817208), (0.036439758, 0.9598399, 0.27817208), (0.036439758, 0.9598399, 0.27817208), (0.036439758, 0.9598399, 0.27817208), (-0.034674734, 0.95919526, 0.28061017), (-0.034674734, 0.95919526, 0.28061017), (-0.034674734, 0.95919526, 0.28061017), (-0.034674734, 0.95919526, 0.28061017), (-0.0034722367, 0.06924027, -0.99759394), (-0.0034722367, 0.06924027, -0.99759394), (-0.0034722367, 0.06924027, -0.99759394), (-0.0034722367, 0.06924027, -0.99759394), (-0.02508896, 0.060160287, -0.9978734), (-0.02508896, 0.060160287, -0.9978734), (-0.02508896, 0.060160287, -0.9978734), (-0.02508896, 0.060160287, -0.9978734), (0.000001959454, -2.3016644e-7, -1), (0.0000017636104, 1.5609709e-7, -1), (0.0000016098766, 4.5930733e-7, -1), (-0.062078323, 0.0027238303, -0.9980675), (-0.062078323, 0.0027238303, -0.9980675), (-0.062078323, 0.0027238303, -0.9980675), (-0.062078323, 0.0027238303, -0.9980675), (-0.016448522, 0.96786755, 0.25092208), (-0.016448522, 0.96786755, 0.25092208), (-0.016448522, 0.96786755, 0.25092208), (-0.016448522, 0.96786755, 0.25092208), (0.6598538, 0.5143799, 0.54772836), (0.6598538, 0.5143799, 0.54772836), (0.6598538, 0.5143799, 0.54772836), (0.6598538, 0.5143799, 0.54772836), (0.2853163, -0.026876941, 0.9580565), (0.2853163, -0.026876941, 0.9580565), (0.2853163, -0.026876941, 0.9580565), (0.2853163, -0.026876941, 0.9580565), (0.7476387, 0.067438975, 0.66067266), (0.7476387, 0.067438975, 0.66067266), (0.7476387, 0.067438975, 0.66067266), (0.986966, -0.0008391154, 0.16092685), (0.986966, -0.0008391154, 0.16092685), (0.986966, -0.0008391154, 0.16092685), (-0.9530985, 0.018898511, 0.30206993), (-0.9530985, 0.018898511, 0.30206993), (-0.9530985, 0.018898511, 0.30206993)] (
                interpolation = "faceVarying"
            )
            point3f[] points = [(-0.49586248, -0.061123952, -0.013205453), (-0.22799113, -0.058473267, -0.007827214), (-0.4789193, -0.03647989, 0.07545067), (-0.49753928, 0.27442405, -0.0062772883), (-0.49392962, 0.29162988, -0.0067132385), (-0.47916296, 0.24282832, 0.079191886), (-0.22357348, 0.08650294, -0.0039381497), (-0.22292638, 0.18833208, -0.0064017964), (-0.23775649, 0.19040935, 0.050389785), (-0.22627832, 0.46756732, -0.0058595636), (-0.23574948, 0.4475439, 0.04209444), (-0.35048124, 0.46253762, -0.00646675), (-0.45941424, 0.46088877, -0.008402386), (-0.4408834, 0.43931648, 0.07252372), (-0.35174295, 0.4472274, 0.054174088), (-0.41279048, 0.42822665, 0.12475094), (-0.43913192, 0.37966502, 0.12180622), (-0.4748619, 0.25828162, 0.07866218), (-0.46567988, 0.24055007, 0.124328755), (-0.4693637, 0.22239594, 0.124405384), (-0.33084178, 0.23649596, 0.13025387), (-0.31135675, 0.25042498, 0.12369158), (-0.2600462, 0.1919145, 0.13069542), (-0.3395228, 0.42864355, 0.12824322), (-0.3121483, 0.43237022, 0.11836694), (-0.25088045, 0.42359936, 0.09892405), (-0.25174594, 0.23519933, 0.10359907), (-0.23863555, 0.07097791, 0.053755816), (-0.2621889, 0.102343805, 0.12870473), (-0.23798299, -0.020239035, 0.05113364), (-0.2659316, 0.056751583, 0.12180537), (-0.25421146, -0.018704982, 0.078859344), (-0.4708111, 0.037363485, 0.12479859), (-0.4775958, -0.011840665, 0.10064927), (-0.26394537, -0.03431243, 0.07087923), (0.2617945, -0.46667853, -0.0037693118), (0.35255018, -0.4685188, -0.0014866513), (0.26900572, -0.4556692, 0.03965076), (0.25986645, -0.31066057, -0.0035202208), (0.26284263, -0.04437704, 0.0024192382), (0.27829647, -0.29713678, 0.10008109), (0.33776137, -0.28463793, -0.0078070164), (0.38941905, -0.33110753, -0.007807155), (0.2929158, 0.0049533923, -0.00046273286), (0.42392418, -0.08153236, -0.007807366), (0.43862674, -0.18615875, -0.0078072483), (0.47674438, -0.046482094, -0.0064598504), (0.36059493, 0.0081416415, -0.0036920193), (0.47626838, 0.010317072, -0.0017775374), (0.46465275, -0.0025106443, 0.03685763), (0.33510208, -0.028722698, 0.11422737), (0.37978315, -0.174957, 0.12983747), (0.36050963, -0.03142224, 0.12381198), (0.3096945, -0.026023416, 0.10464274), (0.27864623, -0.07070234, 0.097266935), (0.41231462, -0.044769887, 0.12693147), (0.39926192, -0.16166773, 0.13358912), (0.43880266, -0.37816203, 0.12573321), (0.32441348, -0.42982134, 0.12947898), (0.43532288, -0.20436609, 0.12879127), (0.43656477, -0.09792252, 0.12839474), (0.4581158, -0.07879104, 0.10061855), (0.45838356, -0.20237139, 0.102014825), (0.4629124, -0.02728112, 0.073024295), (0.4766218, -0.18838133, -0.005680531), (0.45887363, -0.33600676, 0.09836626), (0.47650868, -0.34682074, -0.004899944), (0.45450088, -0.43335208, 0.10480402), (0.47324446, -0.46806955, -0.0006004394), (0.42970484, -0.4239704, 0.12477211), (0.447038, -0.4679428, 0.0006151011), (0.38834304, -0.46831983, -0.0007444601), (0.43913895, -0.3473992, -0.007807267), (0.31039688, -0.43563133, 0.11369685), (0.29275367, -0.4096281, 0.10771449), (0.276282, -0.41375446, 0.087348215), (-0.20036271, 0.16657563, -0.004466674), (-0.19703841, 0.21002662, -0.004100377), (-0.16484644, 0.23025802, 0.037184563), (-0.16198897, 0.14200783, 0.09443424), (-0.19893673, 0.008792589, -0.004887746), (-0.038987182, 0.10418539, -0.0049081645), (0.0015120307, 0.16193324, -0.0049082576), (-0.06803348, -0.0055985735, -0.004908159), (0.12336276, 0.014830301, -0.004908132), (0.11832687, -0.13013023, -0.0049080756), (0.24024482, 0.014294434, -0.003656573), (0.11044166, 0.17282046, -0.0049081044), (0.23906778, 0.18098779, -0.003679697), (0.095469214, 0.24386373, -0.003283013), (0.08926845, 0.21216634, 0.12643233), (0.04580496, 0.24400583, -0.0031560918), (0.21291707, 0.23637594, -0.0035520983), (0.1845274, 0.20973143, 0.12382561), (0.21227859, 0.16560079, 0.12098279), (0.21330284, 0.006130127, 0.12051266), (0.03577089, 0.04062916, 0.12855199), (-0.05843068, 0.082601085, 0.111477174), (-0.0027880743, -0.059484515, 0.13018455), (-0.073277, -0.026051214, 0.119624116), (-0.027120123, -0.10308415, 0.1308), (-0.039570108, -0.22547615, 0.12611079), (-0.09212184, -0.06682852, 0.12065207), (0.055803046, -0.17666762, 0.12486839), (0.09061693, -0.11040857, 0.12516892), (0.13874792, -0.15637508, 0.12429179), (0.1205344, -0.23300484, 0.09879316), (0.21346757, -0.1530036, 0.11894684), (0.24054284, -0.15199341, -0.003995338), (0.22523901, -0.23851274, 0.06521833), (0.21237299, -0.19626966, 0.107955106), (0.24019714, -0.2547575, -0.004024492), (0.11669942, -0.25828964, -0.004113722), (-0.037220992, -0.25903553, -0.0037403149), (-0.015732782, -0.22879711, 0.11563185), (-0.07724551, -0.2586762, -0.004031205), (-0.19553092, -0.25906986, -0.003829316), (-0.15548685, -0.22900254, 0.1143937), (-0.21326116, -0.24626327, -0.0044291713), (-0.21342042, -0.2102374, -0.004332272), (-0.18704632, -0.19233093, 0.100728475), (-0.20865992, -0.013154018, -0.0036033674), (-0.18610574, 0.00010299976, 0.10385406), (-0.17168573, -0.18967307, 0.12009426), (-0.16726804, 0.031001322, 0.103956774), (-0.1609383, -0.21512923, 0.12293608), (-0.18956783, -0.22108817, 0.08803345), (0.0566721, 0.21728797, 0.11162319), (-0.12374664, 0.21588457, 0.09601303), (-0.178622, 0.24066387, -0.0035512152), (-0.17379594, 0.4917957, -0.0037910428), (-0.17533399, 0.39051193, -0.0014657946), (-0.16459467, 0.48374823, 0.040439006), (-0.043398865, 0.4939475, -0.0035372977), (0.17915653, 0.49062595, 0.0025129772), (-0.0320959, 0.4733796, 0.10199665), (-0.021649132, 0.40701637, -0.007904054), (-0.060487997, 0.34936607, -0.0079041915), (0.220386, 0.45706436, -0.00042274932), (0.14810249, 0.31085813, -0.0079043945), (0.060657725, 0.29444972, -0.007904275), (0.17739722, 0.25191018, -0.0065317294), (0.22305056, 0.38153377, -0.0037122723), (0.224869, 0.2524414, -0.0017620696), (0.21414779, 0.2654049, 0.037593823), (0.19223998, 0.40998435, 0.116406836), (0.070019975, 0.36011973, 0.13230808), (0.18998408, 0.38162932, 0.12617028), (0.19449615, 0.43833914, 0.10664342), (0.15715432, 0.47298926, 0.09913), (0.17882824, 0.32381445, 0.12934794), (0.08112694, 0.3383813, 0.13612974), (-0.09981535, 0.2942535, 0.1281273), (-0.1429913, 0.42191255, 0.13194296), (0.0454402, 0.29813707, 0.13124241), (0.13440394, 0.2967509, 0.13083847), (0.15039372, 0.27269974, 0.10254416), (0.04710746, 0.27240133, 0.10396647), (0.19344497, 0.26734683, 0.07443515), (0.058800206, 0.25204715, -0.005737881), (-0.06458282, 0.27185434, 0.100249834), (-0.07362057, 0.25217345, -0.004942748), (-0.14594221, 0.27673426, 0.106807694), (-0.17495872, 0.25581616, -0.00056303863), (-0.13810134, 0.30440706, 0.12714827), (-0.17485239, 0.2850628, 0.0006751748), (-0.17516805, 0.35056677, -0.0007097551), (-0.07410432, 0.29387817, -0.007904298), (-0.14784694, 0.43755537, 0.11586641), (-0.12611413, 0.45724523, 0.10977244), (-0.1295631, 0.4756277, 0.08902625), (-0.24675515, -0.07847705, -0.0037170858), (-0.33976105, -0.07695827, -0.0015371352), (-0.25414518, -0.08756276, 0.037749298), (-0.24477914, -0.207232, -0.0034791832), (-0.24782947, -0.42698428, 0.0021930614), (-0.26366615, -0.21839245, 0.09546057), (-0.32460546, -0.22870736, -0.0075730905), (-0.3775442, -0.19035783, -0.007573227), (-0.2786482, -0.4676945, -0.00055923435), (-0.41290504, -0.39632145, -0.007573407), (-0.4279721, -0.3099778, -0.0075733066), (-0.46703488, -0.4252466, -0.006286517), (-0.34800535, -0.47032553, -0.0036432154), (-0.46654707, -0.47212064, -0.0018148759), (-0.45464355, -0.46153477, 0.0350819), (-0.3218806, -0.43990305, 0.10897037), (-0.3676693, -0.31922218, 0.12387807), (-0.34791782, -0.43767527, 0.11812372), (-0.29584268, -0.44213057, 0.099817), (-0.26402476, -0.40525892, 0.092773065), (-0.40100744, -0.42665985, 0.121102855), (-0.38763118, -0.3301892, 0.12746093), (-0.4281523, -0.15152606, 0.11995846), (-0.31092715, -0.108893566, 0.123535685), (-0.4245863, -0.29495203, 0.122878954), (-0.42585924, -0.38279536, 0.12250028), (-0.44794443, -0.3985836, 0.095973864), (-0.44821855, -0.29659814, 0.0973073), (-0.45285994, -0.44109255, 0.06962123), (-0.46690944, -0.30814362, -0.005542279), (-0.44872093, -0.18631479, 0.09382291), (-0.46679333, -0.17739037, -0.0047968365), (-0.44423983, -0.10597982, 0.099970974), (-0.46344832, -0.07732878, -0.0006907961), (-0.41882896, -0.11372217, 0.119040586), (-0.4365919, -0.07743378, 0.00047005212), (-0.37644175, -0.07712257, -0.00082834053), (-0.4284971, -0.17691287, -0.0075733312), (-0.29656267, -0.10409904, 0.10846368), (-0.27848196, -0.12555836, 0.10275049), (-0.26160172, -0.12215278, 0.083300605), (-0.19500522, -0.27510855, -0.0037351844), (-0.19663553, -0.35353705, -0.0015196288), (-0.18525152, -0.28134033, 0.03840839), (-0.05678348, -0.27344245, -0.0034934056), (0.17912622, -0.27601466, 0.0022714615), (-0.04480245, -0.28936908, 0.09706215), (-0.033729117, -0.34075716, -0.0076541696), (-0.07489828, -0.38539806, -0.007654302), (0.22282977, -0.30200273, -0.0005257786), (0.14620896, -0.41521657, -0.007654492), (0.05351682, -0.42792216, -0.007654379), (0.17726107, -0.46086234, -0.006346581), (0.22565408, -0.36048928, -0.003660126), (0.22758146, -0.4604512, -0.0018019213), (0.216217, -0.4504131, 0.035697423), (0.19299455, -0.3384588, 0.11079257), (0.063440785, -0.37707114, 0.12594374), (0.19060299, -0.36041537, 0.12009543), (0.19538614, -0.31650257, 0.101489715), (0.15580341, -0.28967133, 0.09433074), (0.17877813, -0.40518397, 0.12312321), (0.07521413, -0.3939043, 0.12958507), (-0.11658528, -0.42807418, 0.12196014), (-0.16235235, -0.32922238, 0.1255958), (0.037386395, -0.42506722, 0.1249283), (0.13168809, -0.42614046, 0.12454344), (0.1486375, -0.44476405, 0.097583845), (0.03915331, -0.4449955, 0.09893906), (0.19427177, -0.44890913, 0.07080083), (0.05154772, -0.4607565, -0.005590185), (-0.07923868, -0.44541892, 0.09539776), (-0.08881907, -0.46065855, -0.0048325574), (-0.16548017, -0.44164008, 0.10164623), (-0.1962376, -0.45783785, -0.0006594626), (-0.1571689, -0.42021206, 0.121027276), (-0.19612506, -0.43519095, 0.00052034255), (-0.19645932, -0.38446826, -0.00079925207), (-0.08933167, -0.42836475, -0.007654408), (-0.1674991, -0.31710917, 0.11027762), (-0.14446238, -0.30186245, 0.10447113), (-0.14811805, -0.2876282, 0.0847036), (0.4932066, 0.43982565, -0.0037171226), (0.40020084, 0.44134444, -0.0015371718), (0.4858167, 0.43074003, 0.037749257), (0.49518257, 0.31107074, -0.0034792235), (0.49213225, 0.091318466, 0.0021930248), (0.47629556, 0.29991028, 0.09546053), (0.41535637, 0.28959534, -0.0075731315), (0.36241767, 0.32794482, -0.0075732674), (0.46131358, 0.05060816, -0.00055927114), (0.32705683, 0.12198132, -0.0075734397), (0.31198972, 0.20832498, -0.0075733396), (0.27292702, 0.09305601, -0.0062865494), (0.3919565, 0.047977183, -0.0036432524), (0.27341482, 0.04618207, -0.0018149163), (0.28531858, 0.05676788, 0.035081863), (0.41808128, 0.07839974, 0.108970314), (0.37229273, 0.19908054, 0.12387803), (0.39204407, 0.080627546, 0.11812367), (0.4441191, 0.076172054, 0.09981695), (0.47593698, 0.113043725, 0.09277303), (0.33895445, 0.091642775, 0.12110282), (0.35233068, 0.1881135, 0.12746087), (0.31180957, 0.36677676, 0.119958416), (0.4290347, 0.40940917, 0.12353565), (0.31537554, 0.22335075, 0.12287892), (0.31410265, 0.13550739, 0.12250024), (0.29201746, 0.119719036, 0.09597383), (0.29174328, 0.2217045, 0.097307265), (0.28710195, 0.07721022, 0.06962119), (0.27305242, 0.2101591, -0.00554232), (0.2912409, 0.33198807, 0.093822874), (0.27316856, 0.34091246, -0.0047968766), (0.29572204, 0.41232285, 0.09997094), (0.27651358, 0.44097403, -0.0006908366), (0.32113293, 0.4045806, 0.11904055), (0.30337, 0.44086897, 0.00047001164), (0.36352012, 0.44118026, -0.00082837726), (0.3114648, 0.34138986, -0.0075733713), (0.44339922, 0.41420367, 0.10846364), (0.46147978, 0.39274436, 0.10275045), (0.47836006, 0.39614993, 0.08330057)]
            texCoord2f[] primvars:st = [(0.9806348, 0.37610173), (0.6895562, 0.22715104), (0.87565154, 0.37652177), (0.5554708, 0.25419685), (0.6602699, 0.20330356), (0.6895562, 0.07744916), (0.9806348, 0.49614134), (0.9791889, 0.50228995), (0.68573856, 0.06873053), (0.6586667, 0.09818316), (0.8736297, 0.4283837), (0.5209732, 0.19431148), (0.50708514, 0.15142669), (0.87319, 0.46481332), (0.530125, 0.14651586), (0.87400156, 0.564686), (0.5096306, 0.031415723), (0.5279628, 0.04444849), (0.5713265, 0.001953125), (0.96536636, 0.5627607), (0.6331585, 0.0035659578), (0.61954445, 0.032938186), (0.57748586, 0.023623314), (0.6041176, 0.048548274), (0.6162999, 0.06159931), (0.65623015, 0.0924243), (0.64037824, 0.10429782), (0.64186597, 0.10992377), (0.5851918, 0.11812154), (0.57598764, 0.11506812), (0.5609301, 0.1393943), (0.5789557, 0.052011818), (0.56841326, 0.05361286), (0.5467136, 0.05975766), (0.5496917, 0.12550315), (0.5465579, 0.191455), (0.5701875, 0.16794947), (0.5602478, 0.22325115), (0.5738185, 0.18290204), (0.57061327, 0.2144022), (0.644437, 0.17543036), (0.6529056, 0.19237582), (0.5756974, 0.21960738), (0.8603845, 0.1616366), (0.66498923, 0.6653704), (0.9083967, 0.16224773), (0.60607284, 0.6826803), (0.6524329, 0.6522263), (0.85928726, 0.10947449), (0.6874982, 0.6062445), (0.8606883, 0.020409336), (0.6789167, 0.50007725), (0.645455, 0.5958484), (0.9005042, 0.10073235), (0.92784023, 0.1162251), (0.87663865, 0.0039184857), (0.6563237, 0.47759503), (0.946, 0.032796957), (0.95381397, 0.067754775), (0.97391856, 0.021033145), (0.5198599, 0.48610383), (0.91245973, 0.002835019), (0.6121489, 0.46122), (0.9736424, 0.001953125), (0.5379661, 0.46656653), (0.5473728, 0.48120067), (0.6155523, 0.50754166), (0.5905024, 0.55367553), (0.60199714, 0.51068205), (0.6286676, 0.5086161), (0.6436556, 0.5224048), (0.5764847, 0.51450634), (0.5799186, 0.5489996), (0.5572778, 0.6169142), (0.6128651, 0.63341826), (0.55928725, 0.5615842), (0.5629916, 0.5288033), (0.549893, 0.5183696), (0.541877, 0.55949795), (0.5505099, 0.49758366), (0.49781665, 0.5467902), (0.9739275, 0.06847712), (0.54141873, 0.6050468), (0.49781665, 0.6186094), (0.9739275, 0.12145117), (0.54930943, 0.63501376), (0.5264417, 0.66983503), (0.9722703, 0.16203333), (0.5618289, 0.6307216), (0.5437856, 0.6789191), (0.95840055, 0.16204192), (0.927336, 0.1621808), (0.58193284, 0.68242866), (0.9541314, 0.12163111), (0.6215542, 0.63618916), (0.63115835, 0.6290794), (0.64060074, 0.63243675), (0.2517821, 0.06522133), (0.56268656, 0.83833164), (0.25998554, 0.046981722), (0.56393343, 0.85387677), (0.2826242, 0.04596502), (0.2914038, 0.08604438), (0.24415962, 0.13457702), (0.5634472, 0.78190446), (0.6259966, 0.8162429), (0.6417905, 0.8369536), (0.6147563, 0.7769371), (0.68972456, 0.7845174), (0.68794173, 0.7326674), (0.73552537, 0.78449476), (0.4932898, 0.10770291), (0.68445617, 0.84100133), (0.73484516, 0.84410995), (0.47262025, 0.038698122), (0.6784995, 0.8663962), (0.39262044, 0.001953125), (0.387891, 0.052552093), (0.36745805, 0.003635175), (0.6590397, 0.8663773), (0.72452784, 0.8638826), (0.45094723, 0.018237555), (0.42126033, 0.053467494), (0.43256137, 0.06657559), (0.44463125, 0.11856803), (0.3722147, 0.11406527), (0.3342407, 0.10300497), (0.36212745, 0.15008034), (0.33235633, 0.14108025), (0.35519558, 0.1660623), (0.35537827, 0.21014144), (0.3277977, 0.15543434), (0.38947335, 0.18948503), (0.4002287, 0.16421507), (0.4202223, 0.17858112), (0.4171936, 0.20913516), (0.44836253, 0.17317589), (0.4932898, 0.17923528), (0.73585916, 0.7250244), (0.4583561, 0.20631796), (0.448035, 0.188763), (0.48131186, 0.22119947), (0.73585916, 0.6882714), (0.427069, 0.24970075), (0.68747485, 0.68682855), (0.35778925, 0.260231), (0.6271663, 0.6863362), (0.3643594, 0.21210064), (0.3387133, 0.25911662), (0.61148286, 0.686408), (0.28625777, 0.250596), (0.5651363, 0.6860942), (0.3127361, 0.2108283), (0.5581688, 0.6906496), (0.2773919, 0.24496263), (0.2664934, 0.23060136), (0.5580618, 0.70353395), (0.2967727, 0.20283127), (0.24293353, 0.14578353), (0.5596634, 0.77402717), (0.28708142, 0.1384177), (0.30539176, 0.19891833), (0.29061097, 0.12560838), (0.31099492, 0.2060144), (0.29791158, 0.21357717), (0.3753071, 0.04886997), (0.30569202, 0.06135433), (0.27032852, 0.033622295), (0.5711097, 0.8648621), (0.8603845, 0.1616366), (0.66498923, 0.6653704), (0.9083967, 0.16224773), (0.60607284, 0.6826803), (0.6524329, 0.6522263), (0.85928726, 0.10947449), (0.6874982, 0.6062445), (0.8606883, 0.020409336), (0.6789167, 0.50007725), (0.645455, 0.5958484), (0.9005042, 0.10073235), (0.92784023, 0.1162251), (0.87663865, 0.0039184857), (0.6563237, 0.47759503), (0.946, 0.032796957), (0.95381397, 0.067754775), (0.97391856, 0.021033145), (0.5198599, 0.48610383), (0.91245973, 0.002835019), (0.6121489, 0.46122), (0.9736424, 0.001953125), (0.5379661, 0.46656653), (0.5473728, 0.48120067), (0.6155523, 0.50754166), (0.5905024, 0.55367553), (0.60199714, 0.51068205), (0.6286676, 0.5086161), (0.6436556, 0.5224048), (0.5764847, 0.51450634), (0.5799186, 0.5489996), (0.5572778, 0.6169142), (0.6128651, 0.63341826), (0.55928725, 0.5615842), (0.5629916, 0.5288033), (0.549893, 0.5183696), (0.541877, 0.55949795), (0.5505099, 0.49758366), (0.49781665, 0.5467902), (0.9739275, 0.06847712), (0.54141873, 0.6050468), (0.49781665, 0.6186094), (0.9739275, 0.12145117), (0.54930943, 0.63501376), (0.5264417, 0.66983503), (0.9722703, 0.16203333), (0.5618289, 0.6307216), (0.5437856, 0.6789191), (0.95840055, 0.16204192), (0.927336, 0.1621808), (0.58193284, 0.68242866), (0.9541314, 0.12163111), (0.6215542, 0.63618916), (0.63115835, 0.6290794), (0.64060074, 0.63243675), (0.8603845, 0.1616366), (0.66498923, 0.6653704), (0.9083967, 0.16224773), (0.60607284, 0.6826803), (0.6524329, 0.6522263), (0.85928726, 0.10947449), (0.6874982, 0.6062445), (0.8606883, 0.020409336), (0.6789167, 0.50007725), (0.645455, 0.5958484), (0.9005042, 0.10073235), (0.92784023, 0.1162251), (0.87663865, 0.0039184857), (0.6563237, 0.47759503), (0.946, 0.032796957), (0.95381397, 0.067754775), (0.97391856, 0.021033145), (0.5198599, 0.48610383), (0.91245973, 0.002835019), (0.6121489, 0.46122), (0.9736424, 0.001953125), (0.5379661, 0.46656653), (0.5473728, 0.48120067), (0.6155523, 0.50754166), (0.5905024, 0.55367553), (0.60199714, 0.51068205), (0.6286676, 0.5086161), (0.6436556, 0.5224048), (0.5764847, 0.51450634), (0.5799186, 0.5489996), (0.5572778, 0.6169142), (0.6128651, 0.63341826), (0.55928725, 0.5615842), (0.5629916, 0.5288033), (0.549893, 0.5183696), (0.541877, 0.55949795), (0.5505099, 0.49758366), (0.49781665, 0.5467902), (0.9739275, 0.06847712), (0.54141873, 0.6050468), (0.49781665, 0.6186094), (0.9739275, 0.12145117), (0.54930943, 0.63501376), (0.5264417, 0.66983503), (0.9722703, 0.16203333), (0.5618289, 0.6307216), (0.5437856, 0.6789191), (0.95840055, 0.16204192), (0.927336, 0.1621808), (0.58193284, 0.68242866), (0.9541314, 0.12163111), (0.6215542, 0.63618916), (0.63115835, 0.6290794), (0.64060074, 0.63243675), (0.8603845, 0.1616366), (0.66498923, 0.6653704), (0.9083967, 0.16224773), (0.60607284, 0.6826803), (0.6524329, 0.6522263), (0.85928726, 0.10947449), (0.6874982, 0.6062445), (0.8606883, 0.020409336), (0.6789167, 0.50007725), (0.645455, 0.5958484), (0.9005042, 0.10073235), (0.92784023, 0.1162251), (0.87663865, 0.0039184857), (0.6563237, 0.47759503), (0.946, 0.032796957), (0.95381397, 0.067754775), (0.97391856, 0.021033145), (0.5198599, 0.48610383), (0.91245973, 0.002835019), (0.6121489, 0.46122), (0.9736424, 0.001953125), (0.5379661, 0.46656653), (0.5473728, 0.48120067), (0.6155523, 0.50754166), (0.5905024, 0.55367553), (0.60199714, 0.51068205), (0.6286676, 0.5086161), (0.6436556, 0.5224048), (0.5764847, 0.51450634), (0.5799186, 0.5489996), (0.5572778, 0.6169142), (0.6128651, 0.63341826), (0.55928725, 0.5615842), (0.5629916, 0.5288033), (0.549893, 0.5183696), (0.541877, 0.55949795), (0.5505099, 0.49758366), (0.49781665, 0.5467902), (0.9739275, 0.06847712), (0.54141873, 0.6050468), (0.49781665, 0.6186094), (0.9739275, 0.12145117), (0.54930943, 0.63501376), (0.5264417, 0.66983503), (0.9722703, 0.16203333), (0.5618289, 0.6307216), (0.5437856, 0.6789191), (0.95840055, 0.16204192), (0.927336, 0.1621808), (0.58193284, 0.68242866), (0.9541314, 0.12163111), (0.6215542, 0.63618916), (0.63115835, 0.6290794), (0.64060074, 0.63243675), (0.8603845, 0.1616366), (0.66498923, 0.6653704), (0.9083967, 0.16224773), (0.60607284, 0.6826803), (0.6524329, 0.6522263), (0.85928726, 0.10947449), (0.6874982, 0.6062445), (0.8606883, 0.020409336), (0.6789167, 0.50007725), (0.645455, 0.5958484), (0.9005042, 0.10073235), (0.92784023, 0.1162251), (0.87663865, 0.0039184857), (0.6563237, 0.47759503), (0.946, 0.032796957), (0.95381397, 0.067754775), (0.97391856, 0.021033145), (0.5198599, 0.48610383), (0.91245973, 0.002835019), (0.6121489, 0.46122), (0.9736424, 0.001953125), (0.5379661, 0.46656653), (0.5473728, 0.48120067), (0.6155523, 0.50754166), (0.5905024, 0.55367553), (0.60199714, 0.51068205), (0.6286676, 0.5086161), (0.6436556, 0.5224048), (0.5764847, 0.51450634), (0.5799186, 0.5489996), (0.5572778, 0.6169142), (0.6128651, 0.63341826), (0.55928725, 0.5615842), (0.5629916, 0.5288033), (0.549893, 0.5183696), (0.541877, 0.55949795), (0.5505099, 0.49758366), (0.49781665, 0.5467902), (0.9739275, 0.06847712), (0.54141873, 0.6050468), (0.49781665, 0.6186094), (0.9739275, 0.12145117), (0.54930943, 0.63501376), (0.5264417, 0.66983503), (0.9722703, 0.16203333), (0.5618289, 0.6307216), (0.5437856, 0.6789191), (0.95840055, 0.16204192), (0.927336, 0.1621808), (0.58193284, 0.68242866), (0.9541314, 0.12163111), (0.6215542, 0.63618916), (0.63115835, 0.6290794), (0.64060074, 0.63243675)] (
                interpolation = "faceVarying"
            )
            int[] primvars:st:indices = [2, 0, 6, 10, 1, 3, 42, 4, 5, 1, 4, 9, 6, 7, 13, 8, 5, 9, 25, 10, 6, 13, 11, 12, 14, 35, 12, 16, 17, 14, 19, 15, 13, 7, 18, 22, 17, 16, 18, 20, 21, 22, 20, 8, 25, 21, 31, 22, 21, 23, 21, 24, 23, 25, 26, 24, 21, 9, 27, 26, 25, 26, 28, 24, 26, 27, 28, 28, 29, 32, 31, 29, 28, 30, 34, 27, 36, 30, 28, 24, 28, 31, 23, 22, 31, 32, 17, 17, 32, 33, 32, 29, 34, 33, 34, 14, 17, 33, 30, 35, 14, 34, 35, 30, 36, 37, 39, 37, 36, 38, 40, 38, 36, 27, 38, 40, 41, 39, 41, 40, 27, 41, 4, 42, 27, 9, 4, 41, 42, 39, 41, 42, 3, 37, 39, 3, 11, 35, 37, 48, 53, 45, 43, 44, 46, 94, 47, 52, 49, 44, 47, 48, 50, 55, 53, 70, 51, 49, 52, 53, 54, 91, 45, 58, 54, 53, 57, 61, 57, 53, 55, 58, 57, 59, 81, 57, 61, 63, 59, 64, 62, 65, 62, 66, 68, 65, 62, 56, 69, 66, 67, 66, 52, 66, 67, 72, 68, 70, 52, 66, 69, 56, 51, 70, 69, 71, 79, 65, 68, 72, 76, 71, 68, 94, 74, 72, 67, 75, 72, 73, 74, 88, 73, 72, 72, 75, 76, 76, 77, 79, 71, 75, 78, 77, 76, 65, 79, 77, 60, 78, 80, 60, 77, 82, 83, 80, 78, 73, 82, 78, 75, 86, 83, 82, 85, 88, 85, 82, 73, 88, 89, 86, 85, 92, 89, 88, 74, 54, 93, 90, 91, 93, 84, 87, 90, 93, 54, 58, 93, 58, 81, 84, 94, 46, 92, 74, 96, 47, 94, 95, 52, 95, 94, 67, 52, 96, 95, 47, 96, 52, 60, 64, 65, 98, 100, 106, 105, 97, 101, 167, 99, 101, 97, 102, 166, 103, 162, 102, 97, 98, 105, 107, 104, 105, 106, 112, 108, 105, 108, 109, 107, 109, 108, 110, 138, 108, 112, 113, 110, 112, 115, 120, 113, 112, 106, 119, 115, 117, 122, 121, 116, 165, 117, 116, 118, 121, 122, 123, 114, 117, 125, 123, 122, 123, 124, 111, 114, 125, 127, 124, 123, 125, 126, 128, 127, 117, 165, 126, 125, 127, 128, 131, 129, 124, 127, 129, 133, 147, 132, 129, 130, 130, 129, 131, 163, 133, 129, 132, 134, 124, 133, 134, 136, 134, 135, 140, 136, 132, 147, 135, 134, 124, 136, 137, 111, 137, 136, 139, 141, 136, 140, 139, 139, 140, 135, 141, 139, 135, 143, 144, 109, 138, 142, 143, 135, 147, 145, 144, 146, 109, 147, 130, 148, 145, 149, 109, 146, 148, 130, 152, 150, 109, 149, 151, 156, 150, 152, 164, 154, 151, 153, 156, 154, 164, 157, 155, 155, 157, 160, 158, 156, 159, 107, 109, 160, 162, 103, 158, 104, 107, 159, 131, 160, 161, 163, 157, 161, 160, 160, 131, 128, 162, 126, 102, 162, 128, 164, 163, 161, 157, 163, 152, 130, 152, 163, 164, 102, 126, 165, 166, 166, 165, 118, 101, 167, 101, 118, 106, 100, 168, 119, 174, 179, 171, 169, 170, 172, 220, 173, 178, 175, 170, 173, 174, 176, 181, 179, 196, 177, 175, 178, 179, 180, 217, 171, 184, 180, 179, 183, 187, 183, 179, 181, 184, 183, 185, 207, 183, 187, 189, 185, 190, 188, 191, 188, 192, 194, 191, 188, 182, 195, 192, 193, 192, 178, 192, 193, 198, 194, 196, 178, 192, 195, 182, 177, 196, 195, 197, 205, 191, 194, 198, 202, 197, 194, 220, 200, 198, 193, 201, 198, 199, 200, 214, 199, 198, 198, 201, 202, 202, 203, 205, 197, 201, 204, 203, 202, 191, 205, 203, 186, 204, 206, 186, 203, 208, 209, 206, 204, 199, 208, 204, 201, 212, 209, 208, 211, 214, 211, 208, 199, 214, 215, 212, 211, 218, 215, 214, 200, 180, 219, 216, 217, 219, 210, 213, 216, 219, 180, 184, 219, 184, 207, 210, 220, 172, 218, 200, 222, 173, 220, 221, 178, 221, 220, 193, 178, 222, 221, 173, 222, 178, 186, 190, 191, 228, 233, 225, 223, 224, 226, 274, 227, 232, 229, 224, 227, 228, 230, 235, 233, 250, 231, 229, 232, 233, 234, 271, 225, 238, 234, 233, 237, 241, 237, 233, 235, 238, 237, 239, 261, 237, 241, 243, 239, 244, 242, 245, 242, 246, 248, 245, 242, 236, 249, 246, 247, 246, 232, 246, 247, 252, 248, 250, 232, 246, 249, 236, 231, 250, 249, 251, 259, 245, 248, 252, 256, 251, 248, 274, 254, 252, 247, 255, 252, 253, 254, 268, 253, 252, 252, 255, 256, 256, 257, 259, 251, 255, 258, 257, 256, 245, 259, 257, 240, 258, 260, 240, 257, 262, 263, 260, 258, 253, 262, 258, 255, 266, 263, 262, 265, 268, 265, 262, 253, 268, 269, 266, 265, 272, 269, 268, 254, 234, 273, 270, 271, 273, 264, 267, 270, 273, 234, 238, 273, 238, 261, 264, 274, 226, 272, 254, 276, 227, 274, 275, 232, 275, 274, 247, 232, 276, 275, 227, 276, 232, 240, 244, 245, 282, 287, 279, 277, 278, 280, 328, 281, 286, 283, 278, 281, 282, 284, 289, 287, 304, 285, 283, 286, 287, 288, 325, 279, 292, 288, 287, 291, 295, 291, 287, 289, 292, 291, 293, 315, 291, 295, 297, 293, 298, 296, 299, 296, 300, 302, 299, 296, 290, 303, 300, 301, 300, 286, 300, 301, 306, 302, 304, 286, 300, 303, 290, 285, 304, 303, 305, 313, 299, 302, 306, 310, 305, 302, 328, 308, 306, 301, 309, 306, 307, 308, 322, 307, 306, 306, 309, 310, 310, 311, 313, 305, 309, 312, 311, 310, 299, 313, 311, 294, 312, 314, 294, 311, 316, 317, 314, 312, 307, 316, 312, 309, 320, 317, 316, 319, 322, 319, 316, 307, 322, 323, 320, 319, 326, 323, 322, 308, 288, 327, 324, 325, 327, 318, 321, 324, 327, 288, 292, 327, 292, 315, 318, 328, 280, 326, 308, 330, 281, 328, 329, 286, 329, 328, 301, 286, 330, 329, 281, 330, 286, 294, 298, 299, 336, 341, 333, 331, 332, 334, 382, 335, 340, 337, 332, 335, 336, 338, 343, 341, 358, 339, 337, 340, 341, 342, 379, 333, 346, 342, 341, 345, 349, 345, 341, 343, 346, 345, 347, 369, 345, 349, 351, 347, 352, 350, 353, 350, 354, 356, 353, 350, 344, 357, 354, 355, 354, 340, 354, 355, 360, 356, 358, 340, 354, 357, 344, 339, 358, 357, 359, 367, 353, 356, 360, 364, 359, 356, 382, 362, 360, 355, 363, 360, 361, 362, 376, 361, 360, 360, 363, 364, 364, 365, 367, 359, 363, 366, 365, 364, 353, 367, 365, 348, 366, 368, 348, 365, 370, 371, 368, 366, 361, 370, 366, 363, 374, 371, 370, 373, 376, 373, 370, 361, 376, 377, 374, 373, 380, 377, 376, 362, 342, 381, 378, 379, 381, 372, 375, 378, 381, 342, 346, 381, 346, 369, 372, 382, 334, 380, 362, 384, 335, 382, 383, 340, 383, 382, 355, 340, 384, 383, 335, 384, 340, 348, 352, 353]
            uniform token subdivisionScheme = "none"
            custom string userProperties:blender:data_name = "Cube.017_Retopology.011"
        }
    }

    def Scope "_materials"
    {
        def Material "PathRocks"
        {
            token outputs:surface.connect = </root/_materials/PathRocks/Principled_BSDF.outputs:surface>
            custom string userProperties:blender:data_name = "PathRocks"

            def Shader "Principled_BSDF"
            {
                uniform token info:id = "UsdPreviewSurface"
                float inputs:clearcoat = 0
                float inputs:clearcoatRoughness = 0.03
                color3f inputs:diffuseColor.connect = </root/_materials/PathRocks/Image_Texture.outputs:rgb>
                float inputs:ior = 1.5
                float inputs:metallic = 0
                float inputs:opacity = 1
                float inputs:roughness = 1
                float inputs:specular = 0.5
                token outputs:surface
            }

            def Shader "Image_Texture"
            {
                uniform token info:id = "UsdUVTexture"
                asset inputs:file = @./textures/T_PathRocks_D.png@
                token inputs:sourceColorSpace = "sRGB"
                float2 inputs:st.connect = </root/_materials/PathRocks/uvmap.outputs:result>
                token inputs:wrapS = "repeat"
                token inputs:wrapT = "repeat"
                float3 outputs:rgb
            }

            def Shader "uvmap"
            {
                uniform token info:id = "UsdPrimvarReader_float2"
                string inputs:varname = "st"
                float2 outputs:result
            }
        }
    }
}

