#usda 1.0
(
    defaultPrim = "root"
    doc = "Blender v5.1.2"
    metersPerUnit = 1
    upAxis = "Y"
)

def Xform "root" (
    customData = {
        dictionary Blender = {
            bool generated = 1
        }
    }
)
{
    float3 xformOp:rotateXYZ = (-90, -0, 0)
    uniform token[] xformOpOrder = ["xformOp:rotateXYZ"]

    def Xform "Rock_Medium_2"
    {
        custom string userProperties:blender:object_name = "Rock_Medium_2"

        def Mesh "Cube_004_Retopology_001" (
            active = true
            prepend apiSchemas = ["MaterialBindingAPI"]
        )
        {
            uniform bool doubleSided = 1
            float3[] extent = [(-1.7136419, -1.3199463, -0.05084159), (1.3351185, 1.1591253, 1.8481333)]
            int[] faceVertexCounts = [4, 4, 4, 4, 3, 4, 4, 4, 4, 4, 4, 4, 4, 4, 3, 4, 4, 4, 4, 4, 4, 4, 4, 4, 4, 4, 3, 4, 3, 3, 4, 3, 4, 4, 4, 4, 4, 4, 4, 4, 4, 4, 3, 4, 4, 4, 3, 4, 4, 4, 4, 3, 4, 4, 4, 4, 4, 4, 4, 4, 4, 4, 3, 4, 4, 4, 4, 3, 4, 4, 4, 4, 4, 4, 4, 4, 4, 4, 4, 4, 4, 4, 4, 4, 4, 4, 4, 4, 4, 4, 4, 4, 4, 4, 4, 4, 4, 4, 4, 4, 4, 3, 4, 4, 4, 3, 4, 4, 5, 4, 4, 4, 4, 3, 4, 4, 4, 4, 4, 4, 4, 4, 4, 4, 4, 4, 4, 4, 3]
            int[] faceVertexIndices = [104, 3, 2, 103, 2, 3, 4, 5, 4, 7, 6, 5, 30, 31, 9, 8, 113, 10, 11, 11, 12, 13, 14, 14, 15, 8, 11, 11, 10, 35, 34, 15, 14, 17, 16, 14, 13, 18, 17, 19, 20, 21, 18, 18, 21, 22, 17, 22, 23, 16, 17, 16, 23, 5, 6, 30, 8, 15, 2, 26, 25, 24, 26, 2, 5, 23, 25, 26, 28, 27, 28, 26, 23, 22, 22, 29, 27, 28, 6, 30, 15, 16, 20, 29, 22, 21, 12, 33, 32, 19, 34, 33, 12, 11, 6, 7, 31, 30, 18, 13, 12, 19, 34, 35, 36, 36, 37, 38, 39, 39, 34, 36, 39, 33, 34, 33, 39, 38, 41, 32, 20, 19, 41, 40, 32, 33, 40, 42, 20, 32, 42, 43, 29, 20, 38, 37, 45, 44, 41, 38, 44, 46, 46, 47, 40, 41, 47, 48, 42, 40, 43, 42, 48, 49, 50, 51, 52, 56, 49, 48, 54, 53, 53, 54, 55, 56, 52, 53, 55, 57, 54, 48, 47, 55, 54, 57, 58, 80, 50, 56, 50, 59, 60, 51, 59, 61, 62, 60, 65, 63, 64, 66, 59, 65, 66, 61, 66, 64, 67, 65, 69, 68, 63, 69, 65, 59, 70, 70, 59, 50, 71, 81, 80, 58, 72, 72, 58, 57, 47, 72, 47, 46, 73, 73, 46, 44, 74, 74, 44, 45, 75, 82, 76, 71, 81, 69, 70, 71, 76, 76, 68, 69, 68, 76, 79, 78, 73, 82, 81, 72, 71, 50, 80, 81, 58, 80, 56, 55, 79, 76, 82, 73, 74, 79, 82, 78, 79, 74, 75, 87, 77, 83, 88, 88, 86, 61, 66, 86, 89, 62, 61, 84, 85, 89, 86, 83, 84, 86, 88, 67, 87, 88, 66, 77, 90, 91, 83, 91, 92, 93, 83, 93, 94, 84, 83, 94, 95, 85, 84, 95, 94, 97, 96, 97, 94, 93, 98, 93, 92, 100, 99, 100, 92, 91, 101, 90, 102, 101, 91, 0, 104, 103, 1, 104, 0, 101, 102, 99, 100, 106, 105, 106, 0, 1, 105, 101, 0, 106, 100, 98, 93, 99, 105, 98, 105, 1, 97, 103, 107, 97, 1, 103, 2, 24, 107, 97, 107, 24, 96, 96, 24, 25, 108, 95, 96, 108, 109, 85, 60, 62, 89, 95, 51, 60, 85, 95, 109, 52, 51, 109, 110, 53, 52, 108, 110, 109, 108, 25, 27, 110, 29, 53, 110, 27, 29, 43, 49, 53, 7, 9, 31, 9, 113, 11, 8, 112, 113, 9, 114, 113, 112, 111, 35, 10, 114, 9, 7, 4, 114, 4, 3, 115, 115, 3, 104, 102, 111, 45, 37, 36, 36, 35, 111, 45, 116, 78, 75, 116, 63, 68, 78, 64, 63, 116, 117, 117, 118, 67, 64, 118, 119, 87, 67, 87, 119, 90, 77, 119, 120, 102, 90, 120, 119, 118, 121, 121, 115, 102, 120, 121, 122, 114, 115, 122, 121, 118, 117, 111, 112, 114, 123, 116, 45, 111, 123, 116, 123, 122, 117, 123, 114, 122]
            rel material:binding = </root/_materials/Rocks>
            normal3f[] normals = [(0.35818258, -0.9100097, 0.20877619), (0.4021534, -0.8786445, 0.25740337), (0.39375755, -0.885564, 0.24643707), (0.35646006, -0.9110305, 0.20726739), (0.39375755, -0.885564, 0.24643707), (0.4021534, -0.8786445, 0.25740337), (0.41889143, -0.8639622, 0.2794624), (0.41889143, -0.8639622, 0.2794624), (0.7829715, -0.46241763, 0.41608366), (0.7865676, -0.45644444, 0.41589648), (0.7031751, -0.3190531, 0.63541317), (0.7829715, -0.46241763, 0.41608366), (0.8654253, -0.2416222, 0.4389279), (0.90569186, -0.26374042, 0.3319085), (0.9777834, -0.027484689, 0.20780835), (0.9796078, -0.016822096, 0.20021354), (0.9655385, 0.16326773, 0.2026797), (0.90196395, 0.3801805, 0.20475297), (0.9792759, 0.04524393, 0.19741288), (0.6808474, 0.09558381, 0.72616154), (0.5399564, 0.23853102, 0.8071865), (0.51254267, 0.16414553, 0.84282637), (0.60373515, 0.027914332, 0.7966961), (0.60373515, 0.027914332, 0.7966961), (0.6211572, -0.124890245, 0.7736705), (0.73959595, -0.13293114, 0.65979326), (0.6808474, 0.09558381, 0.72616154), (0.3989716, 0.8860748, 0.23599425), (0.38231343, 0.8905793, 0.24638383), (0.36750656, 0.9025444, 0.2243939), (0.25425035, 0.95166206, 0.17232545), (0.6211572, -0.124890245, 0.7736705), (0.60373515, 0.027914332, 0.7966961), (0.60427445, 0.008597973, 0.79672986), (0.5913823, -0.11300914, 0.7984334), (0.60373515, 0.027914332, 0.7966961), (0.51254267, 0.16414553, 0.84282637), (0.61902547, 0.1669151, 0.7674287), (0.60427445, 0.008597973, 0.79672986), (0.6259879, 0.25465846, 0.73708093), (0.70681906, 0.18161035, 0.6836845), (0.71579206, 0.11634814, 0.68855274), (0.61902547, 0.1669151, 0.7674287), (0.61902547, 0.1669151, 0.7674287), (0.71579206, 0.11634814, 0.68855274), (0.6155696, -0.04309483, 0.7869034), (0.60427445, 0.008597973, 0.79672986), (0.6155696, -0.04309483, 0.7869034), (0.55292875, -0.13802233, 0.82171744), (0.5913823, -0.11300914, 0.7984334), (0.60427445, 0.008597973, 0.79672986), (0.5913823, -0.11300914, 0.7984334), (0.55292875, -0.13802233, 0.82171744), (0.50855666, -0.17535713, 0.84298277), (0.7031751, -0.3190531, 0.63541317), (0.8654253, -0.2416222, 0.4389279), (0.73959595, -0.13293114, 0.65979326), (0.6211572, -0.124890245, 0.7736705), (0.48608583, -0.16631559, 0.85793924), (0.48281762, -0.17329228, 0.8584037), (0.4660432, -0.19125076, 0.8638443), (0.48818678, -0.1436834, 0.8608303), (0.48281762, -0.17329228, 0.8584037), (0.48608583, -0.16631559, 0.85793924), (0.50855666, -0.17535713, 0.84298277), (0.55292875, -0.13802233, 0.82171744), (0.4660432, -0.19125076, 0.8638443), (0.48281762, -0.17329228, 0.8584037), (0.48239747, -0.1851048, 0.8561711), (0.46286622, -0.20911977, 0.86140805), (0.48239747, -0.1851048, 0.8561711), (0.48281762, -0.17329228, 0.8584037), (0.55292875, -0.13802233, 0.82171744), (0.6155696, -0.04309483, 0.7869034), (0.6155696, -0.04309483, 0.7869034), (0.5633512, -0.036871158, 0.82539445), (0.46286622, -0.20911977, 0.86140805), (0.48239747, -0.1851048, 0.8561711), (0.7031751, -0.3190531, 0.63541317), (0.8654253, -0.2416222, 0.4389279), (0.6211572, -0.124890245, 0.7736705), (0.5913823, -0.11300914, 0.7984334), (0.70681906, 0.18161035, 0.6836845), (0.5633512, -0.036871158, 0.82539445), (0.6155696, -0.04309483, 0.7869034), (0.71579206, 0.11634814, 0.68855274), (0.4297781, 0.88061273, 0.19952947), (0.23253332, 0.9545122, 0.1866412), (0.29410577, 0.93992764, 0.17331435), (0.44237116, 0.8805774, 0.16997439), (0.25425035, 0.95166206, 0.17232545), (0.23253332, 0.9545122, 0.1866412), (0.4297781, 0.88061273, 0.19952947), (0.3989716, 0.8860748, 0.23599425), (0.7031751, -0.3190531, 0.63541317), (0.7865676, -0.45644444, 0.41589648), (0.90569186, -0.26374042, 0.3319085), (0.8654253, -0.2416222, 0.4389279), (0.61902547, 0.1669151, 0.7674287), (0.51254267, 0.16414553, 0.84282637), (0.5399564, 0.23853102, 0.8071865), (0.6259879, 0.25465846, 0.73708093), (0.25425035, 0.95166206, 0.17232545), (0.36750656, 0.9025444, 0.2243939), (0.20181327, 0.9623956, 0.18184102), (0.20181327, 0.9623956, 0.18184102), (0.045590185, 0.9869907, 0.15417804), (0.10459767, 0.99431604, 0.019873982), (0.06568116, 0.99230343, -0.10497595), (0.06568116, 0.99230343, -0.10497595), (0.25425035, 0.95166206, 0.17232545), (0.20181327, 0.9623956, 0.18184102), (0.06568116, 0.99230343, -0.10497595), (0.119869165, 0.94490826, -0.3045977), (0.25425035, 0.95166206, 0.17232545), (0.119869165, 0.94490826, -0.3045977), (0.06568116, 0.99230343, -0.10497595), (0.10459767, 0.99431604, 0.019873982), (0.23490945, 0.92480814, -0.29924473), (0.29410577, 0.93992764, 0.17331435), (0.098233454, 0.96930975, 0.22536352), (0.44237116, 0.8805774, 0.16997439), (0.052695327, 0.9772115, 0.20562343), (0.046652354, 0.9760768, 0.2123623), (0.29410577, 0.93992764, 0.17331435), (0.23253332, 0.9545122, 0.1866412), (0.046652354, 0.9760768, 0.2123623), (0.028169371, 0.97777355, 0.20776314), (0.098233454, 0.96930975, 0.22536352), (0.29410577, 0.93992764, 0.17331435), (0.028169371, 0.97777355, 0.20776314), (0.019322326, 0.97915184, 0.20220873), (0.019322326, 0.97915184, 0.20220873), (0.098233454, 0.96930975, 0.22536352), (-0.45848507, 0.8862543, 0.065913916), (-0.48365065, 0.8729001, 0.064244434), (-0.2993373, 0.9497173, 0.09183747), (-0.2828393, 0.95416886, 0.097794354), (-0.43847242, 0.8958182, 0.07246858), (-0.45848507, 0.8862543, 0.065913916), (-0.2828393, 0.95416886, 0.097794354), (-0.2928551, 0.9487689, 0.118631914), (-0.2928551, 0.9487689, 0.118631914), (-0.4070188, 0.9058822, 0.117103055), (-0.46767172, 0.880359, 0.07906503), (-0.43847242, 0.8958182, 0.07246858), (-0.4070188, 0.9058822, 0.117103055), (-0.5262176, 0.84440875, 0.100343846), (-0.5146101, 0.85280704, 0.08886264), (-0.46767172, 0.880359, 0.07906503), (-0.53673446, 0.8376232, 0.10150624), (-0.5146101, 0.85280704, 0.08886264), (-0.5262176, 0.84440875, 0.100343846), (-0.5380192, 0.8364203, 0.10457726), (-0.60488653, 0.77964306, 0.16207735), (-0.56270695, 0.8192944, 0.11007971), (-0.5583027, 0.82331145, 0.10225694), (-0.56389725, 0.81577337, 0.12858339), (-0.5380192, 0.8364203, 0.10457726), (-0.5262176, 0.84440875, 0.100343846), (-0.5181274, 0.8476088, 0.114470124), (-0.54966444, 0.82966834, 0.09756804), (-0.54966444, 0.82966834, 0.09756804), (-0.5181274, 0.8476088, 0.114470124), (-0.5230857, 0.84275043, 0.1270947), (-0.56389725, 0.81577337, 0.12858339), (-0.5583027, 0.82331145, 0.10225694), (-0.54966444, 0.82966834, 0.09756804), (-0.5230857, 0.84275043, 0.1270947), (-0.482579, 0.8661743, 0.12984471), (-0.5181274, 0.8476088, 0.114470124), (-0.5262176, 0.84440875, 0.100343846), (-0.4070188, 0.9058822, 0.117103055), (-0.5230857, 0.84275043, 0.1270947), (-0.5181274, 0.8476088, 0.114470124), (-0.482579, 0.8661743, 0.12984471), (-0.50398576, 0.84959424, 0.1555251), (-0.61583453, 0.7633969, 0.19486655), (-0.60488653, 0.77964306, 0.16207735), (-0.56389725, 0.81577337, 0.12858339), (-0.95605797, 0.27683207, 0.09652529), (-0.9755484, 0.20490457, 0.079494335), (-0.9641626, 0.24965169, 0.089803), (-0.95605797, 0.27683207, 0.09652529), (-0.9755484, 0.20490457, 0.079494335), (-0.9979271, -0.020458845, 0.06101568), (-0.9979658, 0.02310156, 0.05941865), (-0.9641626, 0.24965169, 0.089803), (-0.99382865, 0.08340575, 0.0731313), (-0.99654406, 0.011002471, 0.08233358), (-0.9972873, -0.016823603, 0.07165922), (-0.99169046, -0.087078, 0.09469622), (-0.9755484, 0.20490457, 0.079494335), (-0.99382865, 0.08340575, 0.0731313), (-0.99169046, -0.087078, 0.09469622), (-0.9979271, -0.020458845, 0.06101568), (-0.99169046, -0.087078, 0.09469622), (-0.9972873, -0.016823603, 0.07165922), (-0.9522139, -0.24201052, 0.18633191), (-0.35202828, -0.91886395, 0.17822753), (-0.3974782, -0.90395945, 0.15769713), (-0.3399263, -0.92236775, 0.18354258), (-0.3399263, -0.92236775, 0.18354258), (-0.3974782, -0.90395945, 0.15769713), (-0.35202828, -0.91886395, 0.17822753), (-0.4104917, -0.8991661, 0.1516473), (-0.4104917, -0.8991661, 0.1516473), (-0.30897328, -0.35578042, 0.8820181), (-0.30897328, -0.35578042, 0.8820181), (-0.27672338, -0.12108996, 0.95328975), (-0.2939889, -0.2321579, 0.92718565), (-0.22923578, -0.01686592, 0.9732248), (-0.1868365, -0.03544652, 0.9817513), (-0.11872702, -0.041328423, 0.99206644), (-0.15743752, -0.04425016, 0.9865371), (-0.15743752, -0.04425016, 0.9865371), (-0.11872702, -0.041328423, 0.99206644), (-0.10489943, -0.040272746, 0.993667), (-0.10489943, -0.040272746, 0.993667), (-0.13260952, 0.9734728, 0.18645515), (-0.4070188, 0.9058822, 0.117103055), (-0.2928551, 0.9487689, 0.118631914), (-0.12663612, 0.9786835, 0.16168429), (-0.12663612, 0.9786835, 0.16168429), (-0.2928551, 0.9487689, 0.118631914), (-0.2828393, 0.95416886, 0.097794354), (-0.25072128, 0.9572455, 0.14429073), (-0.25072128, 0.9572455, 0.14429073), (-0.2828393, 0.95416886, 0.097794354), (-0.2993373, 0.9497173, 0.09183747), (-0.34741157, 0.9257808, 0.1491139), (-0.7018652, 0.59623295, 0.38973278), (-0.7703032, 0.5973386, 0.2232029), (-0.7703032, 0.5973386, 0.2232029), (-0.74782383, 0.6319895, 0.20334399), (-0.9738675, -0.15217458, 0.16859718), (-0.98596716, -0.1322762, 0.10184205), (-0.98596716, -0.1322762, 0.10184205), (-0.9876656, -0.09419783, 0.12507421), (-0.9876656, -0.09419783, 0.12507421), (-0.98231864, -0.1002143, 0.15813653), (-0.9738675, -0.15217458, 0.16859718), (-0.98231864, -0.1002143, 0.15813653), (-0.9876656, -0.09419783, 0.12507421), (-0.9913149, -0.052970346, 0.1203697), (-0.9913149, -0.052970346, 0.1203697), (-0.6836095, 0.61685294, 0.39009035), (-0.7018652, 0.59623295, 0.38973278), (-0.74782383, 0.6319895, 0.20334399), (-0.7268315, 0.6612661, 0.18558848), (-0.2939889, -0.2321579, 0.92718565), (-0.27672338, -0.12108996, 0.95328975), (-0.1868365, -0.03544652, 0.9817513), (-0.22923578, -0.01686592, 0.9732248), (-0.50398576, 0.84959424, 0.1555251), (-0.61583453, 0.7633969, 0.19486655), (-0.56389725, 0.81577337, 0.12858339), (-0.5230857, 0.84275043, 0.1270947), (-0.5099204, -0.124109216, 0.85122156), (-0.5099204, -0.124109216, 0.85122156), (-0.5099204, -0.124109216, 0.85122156), (-0.6836095, 0.61685294, 0.39009035), (-0.57586753, 0.5123475, 0.6370844), (-0.57586753, 0.5123475, 0.6370844), (-0.7018652, 0.59623295, 0.38973278), (-0.54843163, 0.8183486, 0.17183799), (-0.54843163, 0.8183486, 0.17183799), (-0.25072128, 0.9572455, 0.14429073), (-0.34741157, 0.9257808, 0.1491139), (-0.8927203, -0.39430225, 0.21811986), (-0.83893675, -0.533032, 0.10982699), (-0.7683662, -0.6387212, 0.040601563), (-0.91594046, -0.37839618, 0.13367622), (-0.91594046, -0.37839618, 0.13367622), (-0.94431525, -0.32804748, 0.02556246), (-0.9979271, -0.020458845, 0.06101568), (-0.99169046, -0.087078, 0.09469622), (-0.94431525, -0.32804748, 0.02556246), (-0.957693, -0.2875486, 0.011826821), (-0.9979658, 0.02310156, 0.05941865), (-0.9979271, -0.020458845, 0.06101568), (-0.76899, -0.6389699, 0.01928143), (-0.9179777, -0.3963908, -0.013829345), (-0.957693, -0.2875486, 0.011826821), (-0.94431525, -0.32804748, 0.02556246), (-0.7683662, -0.6387212, 0.040601563), (-0.76899, -0.6389699, 0.01928143), (-0.94431525, -0.32804748, 0.02556246), (-0.91594046, -0.37839618, 0.13367622), (-0.9522139, -0.24201052, 0.18633191), (-0.8927203, -0.39430225, 0.21811986), (-0.91594046, -0.37839618, 0.13367622), (-0.99169046, -0.087078, 0.09469622), (-0.83893675, -0.533032, 0.10982699), (-0.7306321, -0.67178994, -0.121962935), (-0.66939235, -0.7418829, -0.039033975), (-0.7683662, -0.6387212, 0.040601563), (-0.66939235, -0.7418829, -0.039033975), (-0.5496091, -0.8343965, -0.04137942), (-0.5511364, -0.82592505, 0.11872884), (-0.7683662, -0.6387212, 0.040601563), (-0.5511364, -0.82592505, 0.11872884), (-0.4950856, -0.868582, 0.02134385), (-0.76899, -0.6389699, 0.01928143), (-0.7683662, -0.6387212, 0.040601563), (-0.4950856, -0.868582, 0.02134385), (-0.48343688, -0.8753238, 0.009843964), (-0.57653254, -0.8170537, -0.0057920804), (-0.76899, -0.6389699, 0.01928143), (-0.48343688, -0.8753238, 0.009843964), (-0.4950856, -0.868582, 0.02134385), (-0.37972495, -0.9244259, 0.035294894), (-0.4061226, -0.91355276, 0.022043908), (-0.37972495, -0.9244259, 0.035294894), (-0.4950856, -0.868582, 0.02134385), (-0.5511364, -0.82592505, 0.11872884), (-0.37884218, -0.92477196, 0.035713464), (-0.5511364, -0.82592505, 0.11872884), (-0.5496091, -0.8343965, -0.04137942), (-0.5172239, -0.8238593, 0.23180886), (-0.40622234, -0.78955495, 0.45998517), (-0.15870039, -0.97061086, -0.18091036), (-0.5496091, -0.8343965, -0.04137942), (-0.66939235, -0.7418829, -0.039033975), (-0.25681195, -0.78135955, -0.5687925), (-0.29981315, -0.47647315, -0.82648987), (0.020860193, -0.6889971, -0.7244638), (-0.25681195, -0.78135955, -0.5687925), (-0.28116578, -0.54912823, -0.7870223), (0.33237594, -0.9245761, 0.18624), (0.35818258, -0.9100097, 0.20877619), (0.35646006, -0.9110305, 0.20726739), (0.33237594, -0.9245761, 0.18624), (0.21344054, -0.6781745, -0.70322293), (-0.0022571723, -0.9092417, -0.41626257), (-0.25681195, -0.78135955, -0.5687925), (0.020860193, -0.6889971, -0.7244638), (-0.022419464, -0.9873124, 0.15719959), (-0.15870039, -0.97061086, -0.18091036), (-0.09220188, -0.9936779, -0.06405448), (-0.1958599, -0.9745462, 0.10908103), (-0.09220188, -0.9936779, -0.06405448), (-0.0022571723, -0.9092417, -0.41626257), (-0.30914167, -0.9485746, 0.06810049), (-0.1958599, -0.9745462, 0.10908103), (-0.25681195, -0.78135955, -0.5687925), (-0.0022571723, -0.9092417, -0.41626257), (-0.09220188, -0.9936779, -0.06405448), (-0.15870039, -0.97061086, -0.18091036), (-0.32448238, -0.7426557, 0.5858104), (-0.5511364, -0.82592505, 0.11872884), (-0.40622234, -0.78955495, 0.45998517), (-0.32448238, -0.7426557, 0.5858104), (-0.37884218, -0.92477196, 0.035713464), (-0.1958599, -0.9745462, 0.10908103), (-0.30914167, -0.9485746, 0.06810049), (-0.37972495, -0.9244259, 0.035294894), (0.19309236, -0.71920747, 0.66742486), (0.18972859, -0.72460735, 0.66253096), (0.17029157, -0.7418516, 0.64858085), (0.15721443, -0.74558234, 0.6476037), (0.19309236, -0.71920747, 0.66742486), (0.21787727, -0.6997742, 0.68032753), (0.19232398, -0.7261102, 0.6601329), (0.18972859, -0.72460735, 0.66253096), (0.17029157, -0.7418516, 0.64858085), (0.18972859, -0.72460735, 0.66253096), (0.19232398, -0.7261102, 0.6601329), (0.17888384, -0.73932004, 0.6491582), (-0.2749742, -0.18365228, 0.9437484), (-0.25647897, -0.18060555, 0.94952637), (-0.25647897, -0.18060555, 0.94952637), (-0.2776854, -0.18409441, 0.942868), (-0.3123813, -0.1772108, 0.9332815), (-0.2749742, -0.18365228, 0.9437484), (-0.2776854, -0.18409441, 0.942868), (-0.31679177, -0.1666368, 0.9337425), (-0.32610884, -0.16687511, 0.9304868), (-0.32232642, -0.16652752, 0.931866), (-0.16038853, -0.14965501, 0.9756428), (-0.16038853, -0.14965501, 0.9756428), (-0.3123813, -0.1772108, 0.9332815), (-0.32993957, -0.1607365, 0.93021697), (-0.32232642, -0.16652752, 0.931866), (-0.32610884, -0.16687511, 0.9304868), (-0.3123813, -0.1772108, 0.9332815), (-0.31679177, -0.1666368, 0.9337425), (-0.32634678, -0.15872106, 0.93182904), (-0.32993957, -0.1607365, 0.93021697), (0.28063175, 0.09706135, 0.9548952), (-0.033154607, 0.2861129, 0.9576222), (0.3561224, 0.0026111393, 0.93443567), (0.3561224, 0.0026111393, 0.93443567), (-0.091133684, 0.35753962, 0.9294407), (-0.033154607, 0.2861129, 0.9576222), (0.28063175, 0.09706135, 0.9548952), (-0.091133684, 0.35753962, 0.9294407), (-0.34248617, 0.42292467, 0.8389504), (-0.34248617, 0.42292467, 0.8389504), (-0.033154607, 0.2861129, 0.9576222), (-0.26041272, -0.11423195, 0.958716), (-0.264643, -0.10471217, 0.95864457), (-0.27284497, -0.086034395, 0.95820343), (-0.27284497, -0.086034395, 0.95820343), (-0.26041272, -0.11423195, 0.958716), (-0.21133758, -0.219509, 0.9524453), (-0.21133758, -0.219509, 0.9524453), (-0.264643, -0.10471217, 0.95864457), (0.80467004, -0.3889335, -0.44859436), (0.7880014, -0.38734105, -0.47856113), (0.7326151, -0.37985247, -0.5647895), (0.9777834, -0.027484689, 0.20780835), (0.9655385, 0.16326773, 0.2026797), (0.9792759, 0.04524393, 0.19741288), (0.9796078, -0.016822096, 0.20021354), (0.56744033, 0.217228, -0.79424405), (0.56810004, 0.19988154, -0.79831684), (0.5631934, 0.00314869, -0.8263191), (0.5631934, 0.00314869, -0.8263191), (0.56810004, 0.19988154, -0.79831684), (0.56744033, 0.217228, -0.79424405), (0.55117154, 0.38478076, -0.7403739), (0.55117154, 0.38478076, -0.7403739), (0.55117154, 0.38478076, -0.7403739), (0.8118465, -0.38949952, -0.43496618), (0.7880014, -0.38734105, -0.47856113), (0.80467004, -0.3889335, -0.44859436), (0.8118465, -0.38949952, -0.43496618), (0.2882833, -0.63477963, -0.71690136), (0.2882833, -0.63477963, -0.71690136), (0.26554775, -0.64526594, -0.71632135), (0.26473093, -0.64563376, -0.71629226), (0.26473093, -0.64563376, -0.71629226), (0.26554775, -0.64526594, -0.71632135), (0.21344054, -0.6781745, -0.70322293), (0.020860193, -0.6889971, -0.7244638), (0.08300102, 0.6484917, -0.7566831), (0.055005804, 0.5722931, -0.8182022), (0.055005804, 0.5722931, -0.8182022), (0.05976417, 0.585552, -0.80842876), (0.05976417, 0.585552, -0.80842876), (0.09387976, 0.67688644, -0.7300762), (0.08300102, 0.6484917, -0.7566831), (0.013129823, 0.027309598, -0.99954075), (-0.0066047804, 0.025717312, -0.99964744), (-0.029604148, 0.028435633, -0.9991571), (-0.021418063, 0.037782047, -0.9990565), (-0.0066047804, 0.025717312, -0.99964744), (-0.049106866, 0.023787493, -0.9985102), (-0.042678446, 0.013488194, -0.99899787), (-0.029604148, 0.028435633, -0.9991571), (-0.06774036, 0.053851932, -0.99624854), (-0.049106866, 0.023787493, -0.9985102), (-0.0066047804, 0.025717312, -0.99964744), (-0.017396625, 0.037260123, -0.99915415), (-0.017396625, 0.037260123, -0.99915415), (-0.03568188, 0.044248596, -0.99838316), (-0.09413338, 0.067420855, -0.9932741), (-0.06774036, 0.053851932, -0.99624854), (-0.03568188, 0.044248596, -0.99838316), (-0.18391621, -0.20839149, -0.96059763), (-0.116601676, 0.06826407, -0.99083006), (-0.09413338, 0.067420855, -0.9932741), (-0.36684218, -0.48371613, -0.79463536), (-0.18391621, -0.20839149, -0.96059763), (-0.29981315, -0.47647315, -0.82648987), (-0.36684218, -0.48371613, -0.79463536), (-0.18391621, -0.20839149, -0.96059763), (-0.09280509, -0.1938989, -0.976622), (0.020860193, -0.6889971, -0.7244638), (-0.29981315, -0.47647315, -0.82648987), (-0.09280509, -0.1938989, -0.976622), (-0.18391621, -0.20839149, -0.96059763), (-0.03568188, 0.044248596, -0.99838316), (0.036457274, 0.022780003, -0.99907553), (0.036457274, 0.022780003, -0.99907553), (0.060717076, -0.0089977365, -0.9981145), (0.060676005, 0.021392686, -0.9979282), (-0.09280509, -0.1938989, -0.976622), (0.036457274, 0.022780003, -0.99907553), (0.048503265, 0.006848657, -0.9987996), (0.060294677, -0.0075592035, -0.998152), (0.060717076, -0.0089977365, -0.9981145), (0.048503265, 0.006848657, -0.9987996), (0.036457274, 0.022780003, -0.99907553), (-0.03568188, 0.044248596, -0.99838316), (-0.017396625, 0.037260123, -0.99915415), (0.049430266, 0.0020211043, -0.9987756), (0.05843886, -0.007831443, -0.99826026), (0.060294677, -0.0075592035, -0.998152), (0.04318851, 0.013857462, -0.9989708), (-0.0066047804, 0.025717312, -0.99964744), (0.013129823, 0.027309598, -0.99954075), (0.049430266, 0.0020211043, -0.9987756), (0.04318851, 0.013857462, -0.9989708), (-0.0066047804, 0.025717312, -0.99964744), (0.04318851, 0.013857462, -0.9989708), (0.048503265, 0.006848657, -0.9987996), (-0.017396625, 0.037260123, -0.99915415), (0.04318851, 0.013857462, -0.9989708), (0.060294677, -0.0075592035, -0.998152), (0.048503265, 0.006848657, -0.9987996)] (
                interpolation = "faceVarying"
            )
            point3f[] points = [(0.038835734, -1.3199463, 0.34588465), (-0.0576327, -1.2252196, 1.044316), (0.45291126, -0.96889144, 1.1766284), (0.73726714, -1.0722961, 0.35360208), (1.03439, -0.95193475, 0.35746083), (0.73726714, -0.84762555, 1.0481747), (0.9762511, -0.5270309, 0.9390841), (1.1531518, -0.7486098, 0.3756199), (1.2063677, 0.1027594, 0.8908661), (1.3244281, -0.21503209, 0.23892996), (1.2650561, 0.8505829, 0.31826368), (1.1998956, 0.68818456, 0.9068412), (1.0039425, 0.75082546, 1.0429517), (0.98994184, 0.6246751, 1.0992529), (1.0711868, 0.48868877, 1.0492846), (1.0557089, 0.03898423, 1.0413278), (0.6797824, -0.22421722, 1.2130498), (0.57551765, 0.6388638, 1.299318), (0.5699125, 0.72651666, 1.2768346), (0.55754554, 0.95160633, 1.2120132), (0.3371718, 0.9704139, 1.4804821), (0.37875736, 0.6650796, 1.5339066), (0.34166777, 0.56643367, 1.5542042), (0.5996737, -0.26729682, 1.241509), (-0.24170959, -0.7217633, 1.6466907), (-0.2861272, -0.104209706, 1.7400718), (0.32514787, -0.33226824, 1.390231), (-0.17280072, 0.0105443, 1.739366), (0.30040145, 0.022754198, 1.4733031), (-0.04633808, 0.9130906, 1.8481333), (1.2171097, -0.3385949, 0.69640154), (1.2954947, -0.4814245, 0.3805628), (0.43456388, 1.0467225, 1.0921761), (0.36639458, 1.0808209, 0.93590903), (0.61216223, 1.024371, 0.7031836), (0.8530657, 1.0654488, 0.08135683), (0.641798, 1.1371553, 0.12067246), (-0.3329022, 1.1591253, 0.056286026), (-0.30573106, 1.1180309, 0.5232822), (0.36802053, 1.0193621, 0.7437362), (-0.30961335, 1.0732384, 1.1451861), (-0.1984981, 1.1577579, 0.7267234), (-0.43106902, 0.9750395, 1.584923), (-0.46994647, 0.93142897, 1.7463834), (-0.53358847, 1.0054415, 0.63359076), (-0.45128322, 1.0755935, 0.0041274466), (-0.5537064, 0.9769298, 0.8315135), (-0.6169077, 0.9023692, 1.209895), (-0.6540072, 0.8351574, 1.5675528), (-0.68111056, 0.80306214, 1.6819258), (-1.3075848, 0.45944715, 1.1136659), (-1.2656379, 0.42945433, 1.533475), (-0.9630332, 0.6217175, 1.667214), (-0.88406295, 0.6828184, 1.5971982), (-0.82151306, 0.73074067, 1.5395842), (-0.8812363, 0.69367564, 1.5174316), (-0.9912161, 0.62070405, 1.5128456), (-0.83854, 0.77121854, 1.1767726), (-0.89929163, 0.75237626, 1.1740052), (-1.4355578, 0.05776325, 0.91646326), (-1.3912584, 0.061812334, 1.4253082), (-1.473027, -0.123358935, 0.9180133), (-1.4409808, -0.1428128, 1.3779453), (-1.5323406, -0.06399864, 0.00048394053), (-1.5265622, -0.18814349, -0.004894524), (-1.4981642, -0.021642871, 0.31657898), (-1.5075905, -0.16561909, 0.313632), (-1.5184687, -0.39585823, -0.012295897), (-1.6673385, -0.022193432, 0.0004963911), (-1.5725433, 0.049206458, 0.4949236), (-1.5396348, 0.09308817, 0.88459975), (-1.5724347, 0.46138108, 1.0313226), (-1.2542131, 0.8233751, 1.1350046), (-1.2710342, 0.8876871, 0.82132554), (-1.2856972, 0.89960194, 0.7398828), (-1.3815901, 0.9862207, 0.013836074), (-1.6268932, 0.55738956, 0.642874), (-1.4486376, -0.50853395, -0.00013794661), (-1.7136419, 0.7640927, 0.019410009), (-1.6247828, 0.68692327, 0.66302425), (-1.1771348, 0.56616944, 1.1362253), (-1.4746165, 0.59403366, 1.0703341), (-1.500524, 0.6651079, 0.7342803), (-1.270561, -0.729479, 0.29315013), (-1.2753584, -0.6862206, 0.9210252), (-1.299589, -0.6712535, 1.3201307), (-1.398354, -0.42940363, 0.9438999), (-1.4889345, -0.4551063, -0.011897974), (-1.4293437, -0.42109555, 0.29630968), (-1.4016974, -0.4086558, 1.3514265), (-1.3992728, -0.53547955, -0.004364776), (-1.1737567, -0.8312819, 0.13090004), (-0.95463586, -1.0143075, 0.29131866), (-1.0729632, -0.8568417, 0.5957153), (-1.0394855, -0.8523018, 0.9692976), (-1.0457473, -0.851545, 1.3873008), (-0.67002094, -1.0045842, 1.4651208), (-0.50852346, -1.0925252, 1.2979574), (-0.6634563, -1.0260421, 0.71786016), (-0.48658037, -1.2351702, 0.5507119), (-0.52566624, -1.2738659, 0.33475003), (-0.57932574, -1.1657774, 0.14248411), (-0.31318164, -1.0474144, -0.02574081), (0.19914621, -1.1089528, 1.1072483), (0.38859344, -1.2047336, 0.34965268), (-0.21319476, -1.24116, 0.58472747), (-0.23170587, -1.26831, 0.3789235), (-0.1568405, -0.9004841, 1.4422662), (-0.760314, -0.20027277, 1.6057999), (-0.8525516, -0.1033904, 1.5873859), (-0.7025356, -0.103977606, 1.5699637), (0.7968293, 1.0328938, 0.043942284), (1.0599844, 0.68271685, 0.062114306), (1.3351185, 0.7123484, 0.26629972), (1.0575533, -0.60890234, 0.0720853), (0.6302558, -0.78418255, 0.046412714), (-0.9121646, 0.084648065, -0.030323042), (-0.98658574, -0.10344646, -0.033132654), (-1.1540816, -0.3527335, -0.04425067), (-1.3700981, -0.5068759, -0.037404932), (-1.0265663, -0.6216719, -0.05084159), (-0.788369, -0.4707692, -0.042271536), (-0.4340071, -0.28029388, -0.025832606), (-0.33355528, 0.050831284, -0.014507302)]
            texCoord2f[] primvars:st = [(0.8054989, 0.515947), (0.7740862, 0.5081156), (0.41335505, 0.8170075), (0.7623848, 0.53328776), (0.8022414, 0.5505693), (0.46726817, 0.78408325), (0.80076313, 0.5656114), (0.7666225, 0.5492643), (0.43092287, 0.81179595), (0.4497078, 0.8200043), (0.47165337, 0.7945287), (0.47276196, 0.84034187), (0.4904177, 0.81326944), (0.51357764, 0.8555697), (0.4875891, 0.86141086), (0.4822696, 0.86961555), (0.4767535, 0.8664777), (0.47559285, 0.8592642), (0.4632129, 0.8432226), (0.43985674, 0.8431857), (0.46272925, 0.8795905), (0.46635464, 0.88266176), (0.47577786, 0.89044005), (0.46344838, 0.89922196), (0.45318478, 0.8884576), (0.44851753, 0.88616204), (0.4352301, 0.8437693), (0.3865621, 0.8566717), (0.7382104, 0.4965703), (0.13297318, 0.07521591), (0.113507256, 0.05280446), (0.40332213, 0.88625354), (0.42127147, 0.8511491), (0.41087845, 0.8866462), (0.43083748, 0.8665328), (0.4441621, 0.90981567), (0.46849138, 0.81948954), (0.47827402, 0.80691457), (0.4825454, 0.89779747), (0.49018404, 0.9012057), (0.5011042, 0.8894141), (0.5294492, 0.87145984), (0.09732133, 0.11990134), (0.5302641, 0.88320994), (0.5328789, 0.9332527), (0.80516326, 0.30355585), (0.10570769, 0.074288264), (0.5090748, 0.9323169), (0.7857459, 0.31455564), (0.49987662, 0.9005854), (0.47391978, 0.9300288), (0.7606692, 0.32979757), (0.49811733, 0.9276816), (0.7749593, 0.31466925), (0.44900453, 0.92968017), (0.74437904, 0.3446997), (0.7382104, 0.35004947), (0.43955138, 0.92785066), (0.7869838, 0.32767949), (0.81064856, 0.30829594), (0.10221504, 0.067872494), (0.77934474, 0.33372307), (0.76509756, 0.3466698), (0.749928, 0.35607913), (0.7454526, 0.3598128), (0.42862332, 0.9335449), (0.78187895, 0.38558352), (0.7619612, 0.38853404), (0.13128948, 0.001953125), (0.75095177, 0.37443805), (0.113507256, 0.005542497), (0.4126951, 0.9415258), (0.7527179, 0.3688968), (0.4184111, 0.93971974), (0.7541347, 0.36447632), (0.75622094, 0.36729896), (0.75830865, 0.37336963), (0.769659, 0.35872874), (0.77133197, 0.36139843), (0.7938405, 0.4067775), (0.7683547, 0.40621302), (0.14853011, 0.010218054), (0.7929024, 0.4157757), (0.77027905, 0.41584697), (0.15729958, 0.015491022), (0.83777636, 0.42021832), (0.05786888, 0.007913793), (0.8373092, 0.4259437), (0.052008662, 0.0071693403), (0.82318974, 0.41550174), (0.822235, 0.4222856), (0.8366236, 0.43559152), (0.04218519, 0.005886823), (0.8400641, 0.4141577), (0.060920525, 0.001953125), (0.81656855, 0.408229), (0.7984669, 0.40321362), (0.7947925, 0.38690504), (0.7858903, 0.36884525), (0.7984411, 0.36188456), (0.8020874, 0.36051387), (0.8417638, 0.001953125), (0.8336108, 0.345777), (0.84192234, 0.03691453), (0.10570769, 0.0235985), (0.8135216, 0.38238138), (0.83495224, 0.44146633), (0.036100406, 0.008044835), (0.8449107, 0.37744215), (0.8229915, 0.037550487), (0.09804565, 0.006241492), (0.8140229, 0.37608895), (0.8229915, 0.0065317126), (0.7778643, 0.37753898), (0.7917604, 0.38085014), (0.8073431, 0.37528098), (0.81773627, 0.45101318), (0.78809774, 0.44457462), (0.76932174, 0.441413), (0.17026469, 0.0381317), (0.7893682, 0.43081653), (0.8360416, 0.4386072), (0.039138623, 0.0068063955), (0.82091093, 0.43492112), (0.770136, 0.42815322), (0.16484384, 0.025833882), (0.8348784, 0.4441052), (0.0343378, 0.010129672), (0.8239955, 0.45926735), (0.81490993, 0.4706983), (0.800993, 0.45966968), (0.7832739, 0.4580629), (0.76346046, 0.4560175), (0.16675268, 0.052818008), (0.7566645, 0.475754), (0.15835102, 0.07050852), (0.7640032, 0.48496646), (0.7922934, 0.47929987), (0.80140144, 0.49156883), (0.8104143, 0.49259615), (0.82017, 0.49091104), (0.8310552, 0.50343794), (0.001953125, 0.05657934), (0.76864815, 0.5205168), (0.80374795, 0.53271), (0.79538256, 0.5028025), (0.8055763, 0.5041381), (0.7510362, 0.50158066), (0.13376488, 0.04030388), (0.38569933, 0.9042463), (0.13397701, 0.033905823), (0.3865189, 0.9112455), (0.39109707, 0.9055847), (0.5328789, 0.8717012), (0.089825295, 0.12587343), (0.52728885, 0.845294), (0.07126836, 0.13529126), (0.51277786, 0.8489244), (0.4912516, 0.79007125), (0.82067955, 0.57361), (0.010932328, 0.12445452), (0.8229171, 0.55145824), (0.0063208947, 0.10300798), (0.059760585, 0.038156655), (0.051603023, 0.033150125), (0.04132569, 0.023327257), (0.035868447, 0.012107385), (0.027752511, 0.02704294), (0.0328255, 0.039386667), (0.038769115, 0.05748149), (0.05339567, 0.06492139)] (
                interpolation = "faceVarying"
            )
            int[] primvars:st:indices = [144, 4, 3, 143, 3, 4, 6, 7, 5, 10, 9, 8, 36, 37, 12, 11, 157, 13, 14, 14, 15, 16, 17, 17, 18, 11, 14, 14, 13, 41, 40, 18, 17, 20, 19, 17, 16, 21, 20, 22, 23, 24, 21, 21, 24, 25, 20, 25, 26, 19, 20, 19, 26, 8, 9, 36, 11, 18, 2, 32, 31, 27, 32, 2, 8, 26, 31, 32, 34, 33, 34, 32, 26, 25, 25, 35, 33, 34, 9, 36, 18, 19, 23, 35, 25, 24, 15, 39, 38, 22, 40, 39, 15, 14, 9, 10, 37, 36, 21, 16, 15, 22, 40, 41, 43, 43, 44, 47, 49, 49, 40, 43, 49, 39, 40, 39, 49, 47, 52, 38, 23, 22, 52, 50, 38, 39, 50, 54, 23, 38, 54, 57, 35, 23, 48, 45, 59, 58, 53, 48, 58, 61, 61, 62, 51, 53, 62, 63, 55, 51, 56, 55, 63, 64, 66, 67, 69, 76, 64, 63, 74, 72, 72, 74, 75, 76, 69, 72, 75, 77, 74, 63, 62, 75, 74, 77, 78, 113, 66, 76, 66, 79, 80, 67, 79, 82, 83, 80, 89, 85, 87, 90, 79, 89, 90, 82, 90, 87, 91, 89, 95, 93, 85, 95, 89, 79, 96, 96, 79, 66, 97, 114, 113, 78, 98, 98, 78, 77, 62, 98, 62, 61, 99, 99, 61, 58, 100, 100, 58, 59, 102, 115, 105, 97, 114, 95, 96, 97, 105, 105, 93, 95, 93, 105, 111, 108, 99, 115, 114, 98, 97, 66, 113, 114, 78, 113, 76, 75, 111, 105, 115, 99, 100, 111, 115, 109, 112, 101, 103, 121, 106, 116, 123, 123, 120, 82, 90, 120, 124, 83, 82, 117, 118, 124, 120, 116, 117, 120, 123, 91, 121, 123, 90, 106, 126, 128, 116, 128, 129, 130, 116, 130, 131, 117, 116, 131, 132, 118, 117, 132, 131, 136, 134, 136, 131, 130, 137, 130, 129, 139, 138, 139, 129, 128, 140, 126, 141, 140, 128, 0, 144, 143, 1, 144, 0, 140, 141, 138, 139, 146, 145, 146, 0, 1, 145, 140, 0, 146, 139, 137, 130, 138, 145, 137, 145, 1, 136, 143, 147, 136, 1, 143, 3, 28, 147, 136, 147, 28, 134, 135, 29, 30, 148, 133, 135, 148, 150, 119, 81, 84, 125, 133, 68, 81, 119, 133, 150, 70, 68, 151, 152, 73, 71, 149, 152, 151, 149, 31, 33, 152, 35, 73, 152, 33, 35, 57, 65, 73, 10, 12, 37, 12, 157, 14, 11, 155, 157, 12, 158, 157, 155, 153, 41, 13, 158, 12, 10, 5, 159, 6, 4, 161, 161, 4, 144, 141, 154, 60, 46, 42, 43, 41, 153, 60, 163, 110, 104, 163, 86, 94, 110, 88, 86, 163, 164, 164, 165, 92, 88, 165, 166, 122, 92, 122, 166, 127, 107, 166, 167, 142, 127, 167, 166, 165, 168, 168, 162, 142, 167, 168, 169, 160, 162, 169, 168, 165, 164, 154, 156, 160, 170, 163, 60, 154, 170, 163, 170, 169, 164, 170, 160, 169]
            uniform token subdivisionScheme = "none"
            custom string userProperties:blender:data_name = "Cube.004_Retopology.001"
        }
    }

    def Scope "_materials"
    {
        def Material "Rocks"
        {
            token outputs:surface.connect = </root/_materials/Rocks/Principled_BSDF.outputs:surface>
            custom string userProperties:blender:data_name = "Rocks"

            def Shader "Principled_BSDF"
            {
                uniform token info:id = "UsdPreviewSurface"
                float inputs:clearcoat = 0
                float inputs:clearcoatRoughness = 0.03
                color3f inputs:diffuseColor.connect = </root/_materials/Rocks/Image_Texture.outputs:rgb>
                float inputs:ior = 1.5
                float inputs:metallic = 0
                float inputs:opacity = 1
                float inputs:roughness = 1
                float inputs:specular = 0.5
                token outputs:surface
            }

            def Shader "Image_Texture"
            {
                uniform token info:id = "UsdUVTexture"
                asset inputs:file = @./textures/T_Rocks_D.png@
                token inputs:sourceColorSpace = "sRGB"
                float2 inputs:st.connect = </root/_materials/Rocks/uvmap.outputs:result>
                token inputs:wrapS = "repeat"
                token inputs:wrapT = "repeat"
                float3 outputs:rgb
            }

            def Shader "uvmap"
            {
                uniform token info:id = "UsdPrimvarReader_float2"
                string inputs:varname = "st"
                float2 outputs:result
            }
        }
    }
}

